<svg id="Capa_1" data-name="Capa 1" xmlns="http://www.w3.org/2000/svg" viewBox="0 0 278.2 288.95">
  <defs>
    <style>
      .cls-1, .cls-2 {
        fill: none;
        stroke-linecap: round;
        stroke-linejoin: round;
        stroke-width: 10px;
      }

      .cls-1 {
        stroke: #231f20;
      }

      .cls-2 {
        stroke: #31c101;
      }
    </style>
  </defs>
  <title>icon-tall</title>
  <circle class="cls-1" cx="211.4" cy="41.32" r="36.32"/>
  <path class="cls-1" d="M-44.3,120.47c-2.44-13.85-11-29-33-29h-40.54c-22,0-30.54,15.15-33,29s-8.55,75.61-8.55,75.61l18,11.39a13,13,0,0,1,5.9,9l11.11,53.12A17,17,0,0,0-107.49,284h19.88a17,17,0,0,0,16.8-14.37l11.11-53.12a13,13,0,0,1,5.9-9l18-11.39S-41.86,134.31-44.3,120.47Z" transform="translate(308.95)"/>
  <line class="cls-1" x1="5" y1="5" x2="105.89" y2="5"/>
  <line class="cls-1" x1="15" y1="35.99" x2="75.89" y2="35.99"/>
  <line class="cls-2" x1="15" y1="66.99" x2="95.89" y2="66.99"/>
  <line class="cls-1" x1="15" y1="97.98" x2="75.89" y2="97.98"/>
  <line class="cls-1" x1="15" y1="128.98" x2="75.89" y2="128.98"/>
  <line class="cls-1" x1="15" y1="159.97" x2="75.89" y2="159.97"/>
  <line class="cls-2" x1="15" y1="190.97" x2="95.89" y2="190.97"/>
  <line class="cls-1" x1="15" y1="221.96" x2="75.89" y2="221.96"/>
  <line class="cls-1" x1="15" y1="252.96" x2="75.89" y2="252.96"/>
  <line class="cls-1" x1="5" y1="283.95" x2="125.89" y2="283.95"/>
</svg>
