<svg id="Capa_1" data-name="Capa 1" xmlns="http://www.w3.org/2000/svg" viewBox="0 0 287.8 287.8">
  <defs>
    <style>
      .cls-1, .cls-2, .cls-3, .cls-4, .cls-6 {
        fill: none;
        stroke-linecap: round;
        stroke-linejoin: round;
      }

      .cls-1, .cls-3, .cls-4 {
        stroke: #231f20;
      }

      .cls-1, .cls-2 {
        stroke-width: 6px;
      }

      .cls-2, .cls-6 {
        stroke: #31c101;
      }

      .cls-3, .cls-4, .cls-6 {
        stroke-width: 10px;
      }

      .cls-4 {
        stroke-dasharray: 1.05 22.11;
      }

      .cls-5 {
        fill: #31c101;
      }
    </style>
  </defs>
  <title>icon-ticket</title>
  <g>
    <g>
      <line class="cls-1" x1="83.5" y1="12.7" x2="83.5" y2="18.7"/>
      <line class="cls-1" x1="83.5" y1="34.7" x2="83.5" y2="40.7"/>
      <line class="cls-2" x1="97.5" y1="26.7" x2="91.5" y2="26.7"/>
      <line class="cls-2" x1="75.5" y1="26.7" x2="69.5" y2="26.7"/>
    </g>
    <g>
      <line class="cls-2" x1="36.5" y1="58.7" x2="36.5" y2="72.7"/>
      <line class="cls-2" x1="36.5" y1="88.7" x2="36.5" y2="102.7"/>
      <line class="cls-1" x1="58.5" y1="80.7" x2="44.5" y2="80.7"/>
      <line class="cls-1" x1="28.5" y1="80.7" x2="14.5" y2="80.7"/>
    </g>
    <g>
      <line class="cls-2" x1="259.4" y1="198.9" x2="259.4" y2="212.9"/>
      <line class="cls-2" x1="259.4" y1="228.9" x2="259.4" y2="242.9"/>
      <line class="cls-1" x1="281.4" y1="220.9" x2="267.4" y2="220.9"/>
      <line class="cls-1" x1="251.4" y1="220.9" x2="237.4" y2="220.9"/>
    </g>
    <g>
      <line class="cls-1" x1="199.4" y1="246.9" x2="199.4" y2="252.9"/>
      <line class="cls-1" x1="199.4" y1="268.9" x2="199.4" y2="274.9"/>
      <line class="cls-2" x1="213.4" y1="260.9" x2="207.4" y2="260.9"/>
      <line class="cls-2" x1="191.4" y1="260.9" x2="185.4" y2="260.9"/>
    </g>
    <g>
      <polygon class="cls-3" points="5 184.6 29 194.4 37.2 216.7 61.2 226.6 71.1 250.7 93.3 258.8 103.2 282.8 282.8 103.2 258.8 93.3 250.7 71.1 226.6 61.2 216.7 37.1 194.4 29 184.6 5 5 184.6"/>
      <g>
        <line class="cls-3" x1="118.5" y1="70.8" x2="118.9" y2="71.2"/>
        <line class="cls-4" x1="134.5" y1="86.8" x2="208.6" y2="160.9"/>
        <line class="cls-3" x1="216.4" y1="168.7" x2="216.8" y2="169.1"/>
      </g>
      <path class="cls-5" d="M135.4,149.3l-4.3,20.5,16.1,13.4a1.65,1.65,0,0,1-.9,2.9l-20.8,2.2-7.8,19.4a1.62,1.62,0,0,1-3,.1l-8.5-19.1-20.9-1.4a1.66,1.66,0,0,1-1-2.9l15.5-14-5.2-20.3a1.61,1.61,0,0,1,2.4-1.8l18.1,10.4,17.7-11.2A1.74,1.74,0,0,1,135.4,149.3Z" transform="translate(-0.6 -0.6)"/>
      <path class="cls-3" d="M135.4,149.3l-4.3,20.5,16.1,13.4a1.65,1.65,0,0,1-.9,2.9l-20.8,2.2-7.8,19.4a1.62,1.62,0,0,1-3,.1l-8.5-19.1-20.9-1.4a1.66,1.66,0,0,1-1-2.9l15.5-14-5.2-20.3a1.61,1.61,0,0,1,2.4-1.8l18.1,10.4,17.7-11.2A1.74,1.74,0,0,1,135.4,149.3Z" transform="translate(-0.6 -0.6)"/>
      <line class="cls-3" x1="191.1" y1="96.6" x2="204.8" y2="82.3"/>
      <line class="cls-6" x1="166.5" y1="70.7" x2="180.1" y2="56.3"/>
      <line class="cls-6" x1="216.6" y1="121.1" x2="230.3" y2="106.7"/>
    </g>
  </g>
</svg>
