<svg id="Capa_1" data-name="Capa 1" xmlns="http://www.w3.org/2000/svg" viewBox="0 0 288.9 289">
  <defs>
    <style>
      .cls-1, .cls-2, .cls-4 {
        fill: none;
        stroke-width: 10px;
      }

      .cls-1 {
        stroke: #31c101;
      }

      .cls-1, .cls-2 {
        stroke-linecap: round;
        stroke-linejoin: round;
      }

      .cls-2, .cls-4 {
        stroke: #231f20;
      }

      .cls-3 {
        fill: #31c101;
      }

      .cls-4 {
        stroke-miterlimit: 10;
      }
    </style>
  </defs>
  <title>icon-time</title>
  <g>
    <g>
      <g>
        <line class="cls-1" x1="144.5" y1="5" x2="144.5" y2="33.5"/>
        <line class="cls-1" x1="144.5" y1="255.4" x2="144.5" y2="284"/>
        <line class="cls-1" x1="283.9" y1="144.5" x2="255.4" y2="144.5"/>
        <line class="cls-1" x1="33.5" y1="144.5" x2="5" y2="144.5"/>
      </g>
      <g>
        <line class="cls-2" x1="265.3" y1="74.8" x2="248.2" y2="85"/>
        <line class="cls-2" x1="40.8" y1="204" x2="23.6" y2="214.1"/>
        <line class="cls-2" x1="214.1" y1="265.3" x2="203.9" y2="248.2"/>
        <line class="cls-2" x1="85" y1="40.8" x2="74.8" y2="23.6"/>
      </g>
      <g>
        <line class="cls-2" x1="265.2" y1="214.3" x2="247.8" y2="204.5"/>
        <line class="cls-2" x1="39.1" y1="83.4" x2="23.7" y2="74.7"/>
        <line class="cls-2" x1="74.7" y1="265.2" x2="84.4" y2="247.8"/>
        <line class="cls-2" x1="204.5" y1="41.1" x2="214.3" y2="23.7"/>
      </g>
      <g>
        <line class="cls-2" x1="251.1" y1="234.4" x2="246.7" y2="230.7"/>
        <line class="cls-2" x1="41.2" y1="57.2" x2="37.8" y2="54.6"/>
        <line class="cls-2" x1="54.6" y1="251.1" x2="58.2" y2="246.7"/>
        <line class="cls-2" x1="230.7" y1="42.2" x2="234.4" y2="37.8"/>
      </g>
      <g>
        <line class="cls-2" x1="234" y1="251.4" x2="230.3" y2="247"/>
        <line class="cls-2" x1="57.8" y1="40.7" x2="54.9" y2="37.5"/>
        <line class="cls-2" x1="37.5" y1="234" x2="41.9" y2="230.3"/>
        <line class="cls-2" x1="247" y1="58.6" x2="251.4" y2="54.9"/>
      </g>
      <g>
        <line class="cls-2" x1="192.1" y1="275.5" x2="190.2" y2="270.2"/>
        <line class="cls-2" x1="98.4" y1="17.4" x2="96.8" y2="13.4"/>
        <line class="cls-2" x1="13.4" y1="192.2" x2="18.8" y2="190.2"/>
        <line class="cls-2" x1="270.2" y1="98.8" x2="275.5" y2="96.8"/>
      </g>
      <g>
        <line class="cls-2" x1="168.9" y1="281.8" x2="167.9" y2="276.2"/>
        <line class="cls-2" x1="120.9" y1="11.4" x2="120.1" y2="7.2"/>
        <line class="cls-2" x1="7.1" y1="168.9" x2="12.8" y2="167.9"/>
        <line class="cls-2" x1="276.2" y1="121.1" x2="281.8" y2="120.1"/>
      </g>
      <g>
        <line class="cls-2" x1="120.2" y1="281.8" x2="121.1" y2="276.2"/>
        <line class="cls-2" x1="168.2" y1="11.4" x2="168.8" y2="7.1"/>
        <line class="cls-2" x1="7.1" y1="120.2" x2="12.8" y2="121.1"/>
        <line class="cls-2" x1="276.2" y1="167.8" x2="281.8" y2="168.8"/>
      </g>
      <g>
        <line class="cls-2" x1="96.9" y1="275.6" x2="98.8" y2="270.2"/>
        <line class="cls-2" x1="190.7" y1="17.5" x2="192" y2="13.4"/>
        <line class="cls-2" x1="13.4" y1="96.9" x2="18.7" y2="98.8"/>
        <line class="cls-2" x1="270.2" y1="190.1" x2="275.6" y2="192.1"/>
      </g>
    </g>
    <g>
      <path class="cls-3" d="M134.8,155.3a14.43,14.43,0,1,0-.3-20.4h0A14.49,14.49,0,0,0,134.8,155.3Z"/>
      <path class="cls-4" d="M134.8,155.3a14.43,14.43,0,1,0-.3-20.4h0A14.49,14.49,0,0,0,134.8,155.3Z"/>
      <line class="cls-2" x1="155" y1="134.5" x2="209.7" y2="79.7"/>
      <line class="cls-2" x1="107.5" y1="107.4" x2="134.7" y2="134.6"/>
    </g>
  </g>
</svg>
