<svg id="Capa_1" data-name="Capa 1" xmlns="http://www.w3.org/2000/svg" viewBox="0 0 289.27 288.44"><defs><style>.cls-1,.cls-2{fill:none;stroke-linecap:round;stroke-linejoin:round;stroke-width:10px}.cls-1{stroke:#231f20}.cls-2{stroke:#31c101}</style></defs><path class="cls-1" d="M-447.64 144.48h-115.28l-27.25 30v-30a24 24 0 01-22.73-24V29a24 24 0 0124-24h141.26a24 24 0 0124 24v91.48a24 24 0 01-24 24z" transform="translate(617.9)"/><rect class="cls-2" x="36.42" y="52.64" width="32.78" height="40.26" rx="16.39"/><path class="cls-2" d="M55.69 78.52l18.4 14.38"/><path class="cls-1" d="M99.63 55.83h66.2m-66.2 33h66.2"/><path class="cls-1" d="M-522.9 144.48v85a24 24 0 0024 24h115.28l27.25 30v-30a24 24 0 0022.73-24V138a24 24 0 00-24-24h-66" transform="translate(617.9)"/><path class="cls-1" d="M190.14 172.11h66.2m-66.2 33h66.2"/><path class="cls-2" d="M126.26 207.11l18.22-37.53 17.34 37.53m-30.73-9.95h26.13"/></svg>