<svg id="Capa_1" data-name="Capa 1" xmlns="http://www.w3.org/2000/svg" viewBox="0 0 288.9 289"><defs><style>.cls-2{fill:none;stroke-width:10px;stroke-linecap:round;stroke-linejoin:round;stroke:#231f20}</style></defs><path d="M144.5 5v28.5m0 221.9V284m139.4-139.5h-28.5m-221.9 0H5" fill="none" stroke-width="10" stroke="#31c101" stroke-linecap="round" stroke-linejoin="round"/><path class="cls-2" d="M265.3 74.8L248.2 85M40.8 204l-17.2 10.1m190.5 51.2l-10.2-17.1M85 40.8L74.8 23.6m190.4 190.7l-17.4-9.8M39.1 83.4l-15.4-8.7m51 190.5l9.7-17.4M204.5 41.1l9.8-17.4m36.8 210.7l-4.4-3.7M41.2 57.2l-3.4-2.6m16.8 196.5l3.6-4.4M230.7 42.2l3.7-4.4m-.4 213.6l-3.7-4.4M57.8 40.7l-2.9-3.2M37.5 234l4.4-3.7M247 58.6l4.4-3.7m-59.3 220.6l-1.9-5.3M98.4 17.4l-1.6-4M13.4 192.2l5.4-2m251.4-91.4l5.3-2m-106.6 185l-1-5.6m-47-264.8l-.8-4.2M7.1 168.9l5.7-1m263.4-46.8l5.6-1M120.2 281.8l.9-5.6m47.1-264.8l.6-4.3M7.1 120.2l5.7.9m263.4 46.7l5.6 1M96.9 275.6l1.9-5.4m91.9-252.7l1.3-4.1M13.4 96.9l5.3 1.9m251.5 91.3l5.4 2"/><path d="M134.8 155.3a14.43 14.43 0 10-.3-20.4 14.49 14.49 0 00.3 20.4z" fill="#31c101"/><path d="M134.8 155.3a14.43 14.43 0 10-.3-20.4h0a14.49 14.49 0 00.3 20.4z" stroke-miterlimit="10" stroke="#231f20" fill="none" stroke-width="10"/><path class="cls-2" d="M155 134.5l54.7-54.8m-102.2 27.7l27.2 27.2"/></svg>