<svg id="Capa_1" data-name="Capa 1" xmlns="http://www.w3.org/2000/svg" viewBox="0 0 278.2 288.95"><defs><style>.cls-1,.cls-2{fill:none;stroke-linecap:round;stroke-linejoin:round;stroke-width:10px}.cls-1{stroke:#231f20}.cls-2{stroke:#31c101}</style></defs><circle class="cls-1" cx="211.4" cy="41.32" r="36.32"/><path class="cls-1" d="M-44.3 120.47c-2.44-13.85-11-29-33-29h-40.54c-22 0-30.54 15.15-33 29s-8.55 75.61-8.55 75.61l18 11.39a13 13 0 015.9 9l11.11 53.12A17 17 0 00-107.49 284h19.88a17 17 0 0016.8-14.37l11.11-53.12a13 13 0 015.9-9l18-11.39s-6.06-61.81-8.5-75.65z" transform="translate(308.95)"/><path class="cls-1" d="M5 5h100.89M15 35.99h60.89"/><path class="cls-2" d="M15 66.99h80.89"/><path class="cls-1" d="M15 97.98h60.89m-60.89 31h60.89M15 159.97h60.89"/><path class="cls-2" d="M15 190.97h80.89"/><path class="cls-1" d="M15 221.96h60.89m-60.89 31h60.89M5 283.95h120.89"/></svg>