<svg id="Capa_1" data-name="Capa 1" xmlns="http://www.w3.org/2000/svg" viewBox="0 0 287.8 287.8"><defs><style>.cls-1,.cls-2,.cls-3{fill:none;stroke-linecap:round;stroke-linejoin:round}.cls-1,.cls-3{stroke:#231f20}.cls-1,.cls-2{stroke-width:6px}.cls-2{stroke:#31c101}.cls-3{stroke-width:10px}</style></defs><path class="cls-1" d="M83.5 12.7v6m0 16v6"/><path class="cls-2" d="M97.5 26.7h-6m-16 0h-6m-33 32v14m0 16v14"/><path class="cls-1" d="M58.5 80.7h-14m-16 0h-14"/><path class="cls-2" d="M259.4 198.9v14m0 16v14"/><path class="cls-1" d="M281.4 220.9h-14m-16 0h-14m-38 26v6m0 16v6"/><path class="cls-2" d="M213.4 260.9h-6m-16 0h-6"/><path class="cls-3" d="M5 184.6l24 9.8 8.2 22.3 24 9.9 9.9 24.1 22.2 8.1 9.9 24 179.6-179.6-24-9.9-8.1-22.2-24.1-9.9-9.9-24.1-22.3-8.1-9.8-24L5 184.6zM118.5 70.8l.4.4"/><path stroke-dasharray="1.05 22.11" stroke-width="10" stroke="#231f20" fill="none" stroke-linecap="round" stroke-linejoin="round" d="M134.5 86.8l74.1 74.1"/><path class="cls-3" d="M216.4 168.7l.4.4"/><path d="M135.4 149.3l-4.3 20.5 16.1 13.4a1.65 1.65 0 01-.9 2.9l-20.8 2.2-7.8 19.4a1.62 1.62 0 01-3 .1l-8.5-19.1-20.9-1.4a1.66 1.66 0 01-1-2.9l15.5-14-5.2-20.3a1.61 1.61 0 012.4-1.8l18.1 10.4 17.7-11.2a1.74 1.74 0 012.6 1.8z" transform="translate(-.6 -.6)" fill="#31c101"/><path class="cls-3" d="M135.4 149.3l-4.3 20.5 16.1 13.4a1.65 1.65 0 01-.9 2.9l-20.8 2.2-7.8 19.4a1.62 1.62 0 01-3 .1l-8.5-19.1-20.9-1.4a1.66 1.66 0 01-1-2.9l15.5-14-5.2-20.3a1.61 1.61 0 012.4-1.8l18.1 10.4 17.7-11.2a1.74 1.74 0 012.6 1.8z" transform="translate(-.6 -.6)"/><path class="cls-3" d="M191.1 96.6l13.7-14.3"/><path d="M166.5 70.7l13.6-14.4m36.5 64.8l13.7-14.4" stroke-width="10" stroke="#31c101" fill="none" stroke-linecap="round" stroke-linejoin="round"/></svg>