<svg id="Capa_1" data-name="Capa 1" xmlns="http://www.w3.org/2000/svg" viewBox="0 0 285.95 234.94">
  <defs>
    <style>
      .cls-1, .cls-2, .cls-3, .cls-5, .cls-6 {
        fill: none;
        stroke-linecap: round;
        stroke-linejoin: round;
      }

      .cls-1, .cls-3, .cls-6 {
        stroke: #231f20;
      }

      .cls-1 {
        stroke-width: 8px;
      }

      .cls-2, .cls-5 {
        stroke: #31c101;
      }

      .cls-2, .cls-3 {
        stroke-width: 7px;
      }

      .cls-4 {
        fill: #31c101;
      }

      .cls-5, .cls-6 {
        stroke-width: 6px;
      }
    </style>
  </defs>
  <title>icon-car</title>
  <line class="cls-1" x1="194.87" y1="211.61" x2="96.72" y2="211.61"/>
  <path class="cls-2" d="M5,180.68H20.85A10.28,10.28,0,0,1,31.13,191h0a10.28,10.28,0,0,1-10.28,10.28H5" transform="translate(-1.5 -23.5)"/>
  <path class="cls-2" d="M284,197.23h-15.2A10.29,10.29,0,0,1,258.46,187h0a10.29,10.29,0,0,1,10.29-10.29h14.74" transform="translate(-1.5 -23.5)"/>
  <path class="cls-3" d="M43.36,235.11H25a20,20,0,0,1-20-20V180.68a20,20,0,0,1,6.67-14.91l47.65-42.32a30,30,0,0,1,20-7.64h75.53a20,20,0,0,1,12.82,4.65L216.15,161H264a20,20,0,0,1,20,20v34.15a20,20,0,0,1-20,20H251.22" transform="translate(-1.5 -23.5)"/>
  <polyline class="cls-3" points="92.58 92.31 46.16 137.47 173.16 137.47"/>
  <line class="cls-3" x1="214.65" y1="137.47" x2="189.16" y2="137.47"/>
  <line class="cls-3" x1="113.26" y1="92.32" x2="113.26" y2="137.47"/>
  <circle class="cls-3" cx="69.29" cy="202.3" r="29.14"/>
  <circle class="cls-4" cx="222.29" cy="202.3" r="9.85"/>
  <circle class="cls-4" cx="69.29" cy="202.3" r="9.85"/>
  <circle class="cls-1" cx="69.29" cy="202.3" r="9.85"/>
  <circle class="cls-3" cx="222.29" cy="202.3" r="29.14"/>
  <circle class="cls-1" cx="222.29" cy="202.3" r="9.85"/>
  <line class="cls-3" x1="123.24" y1="157.18" x2="143.3" y2="157.18"/>
  <g>
    <line class="cls-5" x1="259.43" y1="41.97" x2="259.43" y2="55.97"/>
    <line class="cls-5" x1="259.43" y1="71.97" x2="259.43" y2="85.97"/>
    <line class="cls-6" x1="281.43" y1="63.97" x2="267.43" y2="63.97"/>
    <line class="cls-6" x1="251.43" y1="63.97" x2="237.43" y2="63.97"/>
  </g>
  <g>
    <line class="cls-6" x1="147.26" y1="3" x2="147.26" y2="9"/>
    <line class="cls-6" x1="147.26" y1="25" x2="147.26" y2="31"/>
    <line class="cls-5" x1="161.26" y1="17" x2="155.26" y2="17"/>
    <line class="cls-5" x1="139.26" y1="17" x2="133.26" y2="17"/>
  </g>
  <g>
    <line class="cls-5" x1="31.35" y1="26.42" x2="31.35" y2="40.42"/>
    <line class="cls-5" x1="31.35" y1="56.42" x2="31.35" y2="70.42"/>
    <line class="cls-6" x1="53.35" y1="48.42" x2="39.35" y2="48.42"/>
    <line class="cls-6" x1="23.35" y1="48.42" x2="9.35" y2="48.42"/>
  </g>
</svg>
