<svg id="Capa_1" data-name="Capa 1" xmlns="http://www.w3.org/2000/svg" viewBox="0 0 285.95 234.94"><defs><style>.cls-1,.cls-3,.cls-5,.cls-6{fill:none;stroke-linecap:round;stroke-linejoin:round}.cls-1,.cls-3,.cls-6{stroke:#231f20}.cls-1{stroke-width:8px}.cls-5{stroke:#31c101}.cls-3{stroke-width:7px}.cls-4{fill:#31c101}.cls-5,.cls-6{stroke-width:6px}</style></defs><path class="cls-1" d="M194.87 211.61H96.72"/><path d="M3.5 157.18h15.85a10.28 10.28 0 0110.28 10.32 10.28 10.28 0 01-10.28 10.28H3.5m279-4.05h-15.2a10.29 10.29 0 01-10.34-10.23 10.29 10.29 0 0110.29-10.29h14.74" stroke-width="7" stroke="#31c101" fill="none" stroke-linecap="round" stroke-linejoin="round"/><path class="cls-3" d="M43.36 235.11H25a20 20 0 01-20-20v-34.43a20 20 0 016.67-14.91l47.65-42.32a30 30 0 0120-7.64h75.53a20 20 0 0112.82 4.65L216.15 161H264a20 20 0 0120 20v34.15a20 20 0 01-20 20h-12.78" transform="translate(-1.5 -23.5)"/><path class="cls-3" d="M92.58 92.31l-46.42 45.16h127m41.49 0h-25.49m-75.9-45.15v45.15"/><circle class="cls-3" cx="69.29" cy="202.3" r="29.14"/><circle class="cls-4" cx="222.29" cy="202.3" r="9.85"/><circle class="cls-4" cx="69.29" cy="202.3" r="9.85"/><circle class="cls-1" cx="69.29" cy="202.3" r="9.85"/><circle class="cls-3" cx="222.29" cy="202.3" r="29.14"/><circle class="cls-1" cx="222.29" cy="202.3" r="9.85"/><path class="cls-3" d="M123.24 157.18h20.06"/><path class="cls-5" d="M259.43 41.97v14m0 16v14"/><path class="cls-6" d="M281.43 63.97h-14m-16 0h-14M147.26 3v6m0 16v6"/><path class="cls-5" d="M161.26 17h-6m-16 0h-6M31.35 26.42v14m0 16v14"/><path class="cls-6" d="M53.35 48.42h-14m-16 0h-14"/></svg>