<svg id="Capa_1" data-name="Capa 1" xmlns="http://www.w3.org/2000/svg" viewBox="0 0 289.27 288.44">
  <defs>
    <style>
      .cls-1, .cls-2 {
        fill: none;
        stroke-linecap: round;
        stroke-linejoin: round;
        stroke-width: 10px;
      }

      .cls-1 {
        stroke: #231f20;
      }

      .cls-2 {
        stroke: #31c101;
      }
    </style>
  </defs>
  <title>icon-qa</title>
  <g>
    <g>
      <path class="cls-1" d="M-447.64,144.48H-562.92l-27.25,30v-30a24,24,0,0,1-22.73-24V29a24,24,0,0,1,24-24h141.26a24,24,0,0,1,24,24v91.48A24,24,0,0,1-447.64,144.48Z" transform="translate(617.9)"/>
      <rect class="cls-2" x="36.42" y="52.64" width="32.78" height="40.26" rx="16.39"/>
      <line class="cls-2" x1="55.69" y1="78.52" x2="74.09" y2="92.9"/>
      <line class="cls-1" x1="99.63" y1="55.83" x2="165.83" y2="55.83"/>
      <line class="cls-1" x1="99.63" y1="88.83" x2="165.83" y2="88.83"/>
    </g>
    <g>
      <path class="cls-1" d="M-522.9,144.48v85a24,24,0,0,0,24,24h115.28l27.25,30v-30a24,24,0,0,0,22.73-24V138a24,24,0,0,0-24-24h-66" transform="translate(617.9)"/>
      <line class="cls-1" x1="190.14" y1="172.11" x2="256.34" y2="172.11"/>
      <line class="cls-1" x1="190.14" y1="205.11" x2="256.34" y2="205.11"/>
      <polyline class="cls-2" points="126.26 207.11 144.48 169.58 161.82 207.11"/>
      <line class="cls-2" x1="131.09" y1="197.16" x2="157.22" y2="197.16"/>
    </g>
  </g>
</svg>
