<svg xmlns="http://www.w3.org/2000/svg" viewBox="0 0 333.18 53.63"><defs><style>.cls-1{fill:#231916}</style></defs><g id="Layer_2" data-name="Layer 2"><g id="レイヤー_1" data-name="レイヤー 1"><path class="cls-1" d="M149.68 22.64h6.52V38.8h-6.52zm-44.91 9.08H90v5.46h11v12.68h7.37V37.05c2.81-.25 9.32-1.77 10.2-10.3v-4.11h-7.08s.57 9.08-6.66 9.08m16.52-9.08h14.16v5.82h-14.16zm19.4 11.77s.85 9.22-10.77 9.22h-8.48v6.23h9.75s15.17 1.54 15.44-14.74v-9.5h-5.94v8.79m35.41-11.77h-6.64v12.9c.41 9.07-8.64 8.64-8.64 8.64h-7.81v5.68h8.5c15.6 0 14.59-12.62 14.59-12.62v-14.6m2.98.07h14.17v5.81h-14.17zm19.42 11.77s.85 9.21-10.77 9.21h-8.49v6.24h9.77s15.16 1.55 15.43-14.75v-9.47h-5.94v8.77m8.51-.92v5.66s11.46-.55 11.18-11.47h8.95v8.79s.27 7.64-9.52 7.64h-7.36v5.68h10.35s12.9 0 12.9-12.76V22.64h-21.4s1.25 9.5-5.1 10.92m-126.26-.15c.44 10.92-9.06 10.5-9.06 10.5h-9.92v6H71.9c15.29 0 15.86-13.6 15.86-13.6V22.64h-7v10.77m-12.58 2.14l-1.57-12.91h-5.77l1.43 12.91h5.91"/><path class="cls-1" d="M76.9 35.61l-1.56-12.9h-5.76L71 35.61h5.9M264.16 42a2 2 0 01-2.07 2.14h-6.71c-2.13 0-2.27-2.69-2.27-2.69v-4.53h16.76V32h-16.69v-3.27h16.64v-4.94h-16.58v-2.7h-7.08v2.7h-4.7v4.95h4.7V32h-4.63v5h4.65v7.22a5.88 5.88 0 005.48 5.68h13.6a5.17 5.17 0 005.47-4.81v-4.87h-6.61V42m9.69-14.25h12.46s-11.75 5-11.19 12.32c.43 5.66 3.55 9.08 14 9.79h7.66v-6.52h-9.07s-6.52-.15-6.52-3.83c0-4.25 12.32-9.64 18.12-11.76V22h-25.46v5.8m47.79.37h7.04v-6.66h-3.26v2.28h-5.21l-.74-2.28-6.98.04.76 2.24h-11.64v4.38h13.14l1.46 4.33h-14.45v4.41h15.93l1.28 3.77 6.73-.05-1.22-3.72h4.34V32.5h-5.77l-1.41-4.33m-13.37 11.9h-6.37v3.84c.84 6.79 9.5 6 9.5 6h14v-6.28h-13.17c-4.94 0-4-3.56-4-3.56m21.72-18.56h3.26v6.66h-3.26z"/><path d="M7.12 21.47S28.08 5.26 32 2.74C36.66-.23 45-2 50.82 4c7.7 7.9 3.65 15.72 2.13 18.11-2 3.19-18.62 23.17-24.38 28-3.57 3-14.48 6.58-22.87-1.26-9.37-8.74-6-22 1.42-27.42" fill="gray"/><path d="M10.45 22.78S28.57 9 32.51 6.29c3.54-2.4 7.24-4.41 12.7-2.28a10.88 10.88 0 016.73 8.15 11.29 11.29 0 01-2.33 9.31c-3 4-18.82 22.87-21.85 25.19-2 1.53-5.52 4.65-12.7 3.14-6.8-1.44-11.28-6.68-11.59-12.95-.27-5.56 1.44-9.73 7-14.07" fill="#fff"/><path d="M20.88 16.51s11.8-8.46 13.7-9.92c2.39-1.82 7.09-3 10.68-1 3.14 1.72 4.56 3.54 5.27 6.88a9.6 9.6 0 01-1.83 7.89C47 22.78 43.23 27 43.23 27a80.53 80.53 0 00.41-12c-.44-4.68-2.79-5.06-4.15-5.16a4.14 4.14 0 00-3.84 3.89 10.27 10.27 0 01-.76 4s-.39-2.87-2.18-3.85a4 4 0 00-5.56 2.08c-.91 2.06-.2 3.44-1.82 7.18 0 0 1.32-6.57-4.45-6.57" fill="#0081cc"/><path d="M17.89 18.89S9.34 25 7.72 27.23a14 14 0 00-2.43 12.24c1.62 6.81 9.41 9.62 13 9.47s6.12-.56 11.31-6A172.29 172.29 0 0041 29.67s-3.44 1.17-4.73-1.73c-1-2.28 0-2.23-.51-6.47 0 0-2.28 9.81-3 11.53s-1.95 3.41-4.35 2.94a3.32 3.32 0 01-2.94-3.55c0-1.72.53-4.2.33-5.31 0 0-4.4 12.6-5.9 15.23a4.35 4.35 0 01-6 1.92c-2.71-1.5-3.11-4.09-1.13-7.21a38.51 38.51 0 003.34-8 46.23 46.23 0 001.74-10.17" fill="#00a041"/><path class="cls-1" d="M65 12.6a16 16 0 01-1 1.48c-.59.8-.9 1.13-1.31 1.13a1.09 1.09 0 01-1-1.05c0-.33.14-.53.76-1.11a15.77 15.77 0 002-2.35h-1.61a.83.83 0 110-1.65H65v-.66c0-.7.27-1 .91-1s.82.65.82 1v.66h1.37c.41 0 .93.11.93.82a.79.79 0 01-.93.83h-1.26a14.16 14.16 0 001.29 1.17c.46.37.62.52.62.83a1 1 0 01-.85 1c-.28 0-.61-.24-1.16-1v2.69c0 .58-.2.95-.88.95-.84 0-.85-.65-.85-.95V12.6m5.16-5.23c0 .32 0 1-.87 1-.67 0-1-.24-1-1V5.11a12 12 0 01-5 2.7c-.63 0-.85-.66-.85-1 0-.59.34-.71 1.61-1.14a13.26 13.26 0 002.69-1.34h-3.31a.81.81 0 01-.94-.82.81.81 0 01.94-.84h4.87v-.51c0-.64.53-.74.86-.74s1 .06 1 .74v.53h4.88a.81.81 0 01.94.82.81.81 0 01-.94.84h-3.38a11 11 0 002.75 1.34c1.2.39 1.59.53 1.59 1.14 0 .31-.19 1-.84 1a11.65 11.65 0 01-5-2.67zm3.65 3.33a12 12 0 001.94 2.35c.57.53.79.79.79 1.18a1 1 0 01-1.83.57 11.64 11.64 0 01-1.47-2.33v2.89c0 .67-.28.95-.94.95a.81.81 0 01-.84-.95v-3a8.92 8.92 0 01-1 1.59c-.65.9-1.07 1.36-1.5 1.36a1 1 0 01-.9-.9c0-.35.17-.55.87-1.21a11.82 11.82 0 001.91-2.5h-.65a.83.83 0 110-1.65h1.27v-.66c0-.73.33-1 .94-1 .81 0 .84.65.84 1v.66h2.35c.41 0 1 .09 1 .82s-.7.83-1 .83zm10.48 1.69a3.17 3.17 0 01-2.73 1.89c-2 0-3.11-2.08-3.11-4.56 0-4.77 3.51-7.3 7.42-7.3 4.71 0 6.6 3.11 6.6 6.52a6.1 6.1 0 01-2.82 5.36 7.78 7.78 0 01-3.74 1.22 1 1 0 01-1-1.08c0-.81.58-.91 1.15-1 1.24-.2 4.32-.68 4.32-4.66 0-2.56-1.38-4.27-3.8-4.43a22.31 22.31 0 01-2.25 8m-1.56-7.23a5.37 5.37 0 00-2.34 4.63c0 1.5.61 2.35 1.23 2.35s1.11-.88 1.53-2a24.55 24.55 0 001.35-5.67 6.11 6.11 0 00-1.77.69zm19.93 10.21c0 .25 0 .94-1 .94s-1-.55-1-.94V12h-3.65C95.7 12 95 11.52 95 9.87V6c0-1.62.69-2.09 2.07-2.09h3.65V2.39a.82.82 0 01.94-.92c.76 0 1.06.26 1.06.92v1.55h3.7c1.4 0 2.07.5 2.07 2.09v3.84c0 1.6-.65 2.1-2.07 2.1h-3.7v3.36m-2-9.52h-3.08a.61.61 0 00-.64.69v2.92a.61.61 0 00.69.69h3.07zm2 4.3h3.12a.6.6 0 00.67-.69V6.5c0-.47-.22-.69-.67-.69h-3.12zm14.07 2.28a3.17 3.17 0 01-2.73 1.89c-2 0-3.1-2.08-3.1-4.56 0-4.77 3.51-7.3 7.4-7.3 4.72 0 6.61 3.11 6.61 6.52a6.1 6.1 0 01-2.82 5.36 7.78 7.78 0 01-3.74 1.22 1 1 0 01-1-1.08c0-.81.58-.91 1.15-1 1.24-.2 4.31-.68 4.31-4.66 0-2.56-1.37-4.27-3.79-4.43a22.31 22.31 0 01-2.25 8m-1.52-7.27a5.37 5.37 0 00-2.34 4.63c0 1.5.61 2.35 1.23 2.35s1.11-.88 1.53-2A24 24 0 00117 4.42a6.08 6.08 0 00-1.73.7zm18.42 2.27h6.14a.87.87 0 011 1 .88.88 0 01-1 1h-6.14v3.38c0 .72.12.72 2.29.72l3.18-.06c.34 0 1 0 1 .9 0 1.06-.59 1.08-3 1.08-3.69 0-4-.08-4.37-.19a1.91 1.91 0 01-1.24-2.18V9.28h-3.32a.89.89 0 01-1-1 .88.88 0 011-1h3.32V4.63h-2.71a.87.87 0 01-1-1 .86.86 0 011-1h10.32a.88.88 0 011 1 .88.88 0 01-1 1h-5.47v2.72M146 12.08c0 1.08.11 1.11 2.76 1.11 1.34 0 2.95 0 4-.07.28 0 1.46-.09 1.71-.09s1 0 1 1-.66 1.06-1.52 1.12-3.9.07-5.08.07a28.2 28.2 0 01-3-.1 2.16 2.16 0 01-2-2.45V3.12c0-.48.13-1 1.05-1s1.07.31 1.07 1v3.82a33.51 33.51 0 006-2.12 3.58 3.58 0 011.56-.57 1.16 1.16 0 011 1.16c0 .39-.14.68-1.58 1.28-.74.31-2.13.84-3.63 1.33A28.2 28.2 0 01146 9v3.13m7.27-9.92a1.07 1.07 0 01-.06-.35c0-.36.39-.44.56-.44s.42.21.65.77a5.88 5.88 0 01.37 1.28c0 .5-.53.5-.55.5a.45.45 0 01-.46-.32c-.09-.23-.18-.58-.26-.8zm1.84-.21l-.05-.28c0-.35.39-.45.56-.45s.42.22.65.76a4.3 4.3 0 01.39 1.27c0 .45-.47.5-.56.5-.36 0-.4-.14-.73-1.11-.03-.13-.23-.58-.26-.69zm5.98 8.09c0 .49-.15 1-1.06 1-.7 0-1.1-.26-1.1-1V3.3c0-.49.16-1 1.07-1 .69 0 1.09.26 1.09 1v6.79M169 9c0 1.79-.26 4.9-5 6.22a11.86 11.86 0 01-2.91.42 1 1 0 01-1.2-1.08c0-.84.52-.9 1.55-1 2.46-.23 3.63-.74 4.46-1.69a3.92 3.92 0 00.88-2.81V3.11c0-.49.15-1 1.08-1 .68 0 1.1.27 1.1 1zm3.85-.25a.87.87 0 01-1-1 .87.87 0 011-1h11.59a.87.87 0 011 1 .88.88 0 01-1 1h-4.31c-.08 1.3-.23 4.22-2.93 5.87a7.92 7.92 0 01-3.2 1.13c-.76 0-1-.77-1-1.13 0-.6.36-.71 1.32-1 2.1-.59 3.5-1.51 3.66-4.89h-5.17m10.43-6.09a.86.86 0 011 .95.85.85 0 01-1 .95H174a.85.85 0 01-1-.94.85.85 0 011-1zm11.43 12.27c0 .51-.23.93-1 .93s-1-.26-1-.93V9.69a22.39 22.39 0 01-2.91 1.19 6.49 6.49 0 01-1.42.34 1 1 0 01-.93-1.06c0-.63.27-.69 1.24-1a19.7 19.7 0 006.63-3.35l1.29-1.1a1 1 0 011.78.67 1.08 1.08 0 01-.43.81 19.59 19.59 0 01-3.25 2.39v6.3m6.68-6.13a.87.87 0 01-1-1 .87.87 0 011-1h11.59a.87.87 0 011 1 .88.88 0 01-1 1h-4.32c-.08 1.3-.23 4.22-2.92 5.87a8 8 0 01-3.19 1.13c-.76 0-1-.77-1-1.13 0-.6.35-.71 1.31-1 2.11-.59 3.51-1.51 3.67-4.89h-5.17m10.43-6.09a.86.86 0 011 .95.86.86 0 01-1 .95h-9.25a.86.86 0 01-1-.94.86.86 0 011-1zm5.6 7.3c-.34 0-1.15 0-1.15-1.06s.7-1.08 1.15-1.08h11.51A1 1 0 01230 8.86c0 1.05-.73 1.08-1.15 1.08h-11.5m26.9-6.8c.67 0 1.49.22 1.49 1.19 0 1.29-1.75 4.44-5.68 7.08 1 1 1.35 1.42 1.64 1.75.45.53.59.78.59 1.11a1.28 1.28 0 01-1.22 1.17c-.47 0-.59-.16-1.27-1a29.27 29.27 0 00-4.27-4.3c-.78-.66-.94-.8-.94-1.29a1.2 1.2 0 011.1-1 1.27 1.27 0 01.8.33c.28.2 1.27 1 2.14 1.81a13.52 13.52 0 003.82-3.48 3.44 3.44 0 00.64-1.18c0-.22-.26-.22-.48-.22h-9.29a.9.9 0 01-1-1 .91.91 0 011-1h10.93m9.65.39c0 .22-.36 6.23-2.75 10.19-.78 1.31-1.11 1.55-1.6 1.55a1.22 1.22 0 01-1.15-1.07 1.52 1.52 0 01.44-1c2.22-3.11 2.62-6.41 3-9.71.06-.45.19-1.12 1.19-1a.86.86 0 01.86 1m4.82 0c.37 3.21.8 6.61 3 9.71a1.59 1.59 0 01.44 1 1.24 1.24 0 01-1.15 1.08c-.54 0-.88-.36-1.62-1.58-2.36-3.9-2.76-9.89-2.76-10.17s0-.86.89-1 1.17.5 1.21.98zM261 4.87a1.72 1.72 0 111.68-1.71A1.72 1.72 0 01261 4.87zm0-2.51a.8.8 0 00-.81.8.8.8 0 00.81.84.78.78 0 00.78-.79.79.79 0 00-.78-.85zm4.79 7.58a1 1 0 01-1.14-1.06c0-1 .69-1.08 1.14-1.08h11.51a1 1 0 011.14 1.06c0 1.05-.72 1.08-1.14 1.08h-11.51m25.48-5.88c1.13 0 1.54.57 1.54 1.38a11.67 11.67 0 01-4.14 7.72 13.58 13.58 0 01-6.27 2.59 1 1 0 01-1-1.08c0-.67.3-.76 1.44-1 2.55-.64 5.2-1.68 6.81-4.85a9.16 9.16 0 00.88-2.52c0-.29-.2-.29-.59-.29h-4.55c-.78 1.06-2.73 3.25-3.78 3.25a1.08 1.08 0 01-1-1.05c0-.42.13-.51.84-1a12.71 12.71 0 003.23-3.8c.57-1.16.68-1.42 1.33-1.42.47 0 1.11.25 1.11.81a3 3 0 01-.5 1.34h4.68"/></g></g></svg>