<svg xmlns="http://www.w3.org/2000/svg" viewBox="0 0 826.08 61.51"><defs><style>.cls-1{fill:#040000}</style></defs><g id="Layer_2" data-name="Layer 2"><g id="レイヤー_1" data-name="レイヤー 1"><path class="cls-1" d="M166.16 40.1c2.28-6.1 2.28-6.1 2.64-6.1a.58.58 0 01.48.54.89.89 0 01-.06.36c-.24.42-1.14 3.48-1.56 5A48.31 48.31 0 00166 50.42a8.06 8.06 0 00.72 3.48A3.22 3.22 0 01167 55a2.05 2.05 0 01-1.86 2.22c-3.42 0-6.72-8-6.72-16.32 0-4 .54-7.38 2.7-16.68.9-4 1.14-5.34 1.14-7.08 0-2.4-.66-4.2-1.92-5.1-.18-.18-.24-.24-.24-.36s.12-.18.36-.18a6.48 6.48 0 013.6 1.62 6.83 6.83 0 012.82 5.7c0 2-.18 2.52-2.7 8.88-2.22 5.64-3 8.88-3 12.9s.72 6.84 1.74 6.84c.6 0 1-.42 1.38-1.8zm31.98-18.36c0 .78-.84 1.32-2.4 1.5a89.14 89.14 0 01-10.32.78 9.38 9.38 0 01-7.32-2.76 4.54 4.54 0 01-1.2-2.26c0-.12.18-.24.3-.24s.24.06.36.3c.66 1.14 2.7 1.86 5.1 1.86a27.25 27.25 0 0010.8-2.34 1.62 1.62 0 011-.3c1.28.04 3.68 2.2 3.68 3.46zm159.33 1.49c0 2.11 1.52 4 3.24 4 1 0 1.78-.33 4.68-1.91 5.55-3 8.65-4.1 11.62-4.1 5.94 0 10.1 5.42 10.1 13.27 0 10.1-5.35 18.21-15.38 23.43-2.57 1.32-9.57 3.63-11 3.63a.62.62 0 01-.66-.6c0-.26.2-.46.93-.66a36.33 36.33 0 0011.75-6.4A24.91 24.91 0 00382 34.58c0-6.8-2.58-11.15-6.54-11.15-2.77 0-7.12 2.51-10.62 6.14-2.05 2.11-2.9 2.7-4 2.7-2.44 0-5.08-3.17-5.08-6.07 0-1.65.93-3.76 1.59-3.76a.28.28 0 01.26.26.32.32 0 01-.07.2zm97.15-3.3a2.41 2.41 0 01-2.24 2.24c-.66 0-1.06-.33-1.52-1.18a11 11 0 00-6.53-5.35c-.4-.13-.46-.13-.46-.33s1-.53 2.31-.53c4.15 0 8.44 2.58 8.44 5.15zm31.16-8.18a.54.54 0 01-.26.06.28.28 0 01-.27-.26c0-.4 1.12-.79 2.38-.79 3.76 0 7.19 2.9 7.19 6.07a23.69 23.69 0 01-.86 5.34 42.23 42.23 0 00-1.18 10.5c0 5 1 8.77 3 11.55 1.12 1.51 2.64 2.64 3.63 2.64s1.06-.2 3-4.62c3-6.54 4.22-8.71 4.75-8.71a.56.56 0 01.46.52 2.27 2.27 0 01-.26 1c-1.39 3.17-3 9.37-3 11.82a7.4 7.4 0 001.28 4.13c.4.66.47.73.47 1.06 0 .79-1.19 1.58-2.45 1.52a14.09 14.09 0 01-6.92-2.91C492 47 489.21 39.4 489.21 30.36c0-2.84.27-7.13.6-10.43.06-1 .13-1.78.13-2.38 0-3-2-5.8-4-5.8zm106.39 11.81c0-.53 2.11-1 4.42-1 7.33 0 15 7 15 13.73 0 2.64-1.58 4.48-3.83 4.48-1.18 0-1.65-.59-1.65-2.24.07-8-5.61-14.65-12.6-14.65-1.27.01-1.34.01-1.34-.32zM55.9 11.55l-5.68-5.41L46.06 16a2.77 2.77 0 00-.13.59.31.31 0 00.27.34 2.44 2.44 0 00.66-.27l4.55-2.84 4 .27h.13A1.15 1.15 0 0056.82 13c0-.4-.26-.86-.92-1.45zM45.26 10.3l.67-1.59H30.69V4.55l1.52-1c.66-.46.92-.86.92-1.32s-.53-1-1.39-1.12l-5.8-.58v8.18H7.52a9.14 9.14 0 00-.79-2.84H5.41c-.06 3.9-.26 4.69-2.18 6.87C0 16.23 0 16.23 0 17.42A2.4 2.4 0 002.24 20c3 0 5.55-3.44 5.55-7.4 0-.79 0-1.45-.07-2.3zM103 15.24l-4.69-3.49-3.56 3.63h-5.12v-10l1.58-1.06c.59-.4.92-.79.92-1.25a1.4 1.4 0 00-1.45-1.26l-5.41-.46v14.03c-5.34 0-6.2 0-11.81-.27l.86 2.05c4.81-.13 5.47-.13 10-.2h18.34a.8.8 0 00.73-.79 1.29 1.29 0 00-.39-.93z"/><path class="cls-1" d="M112.92 7l2-.73c.79-.33 1.19-.73 1.19-1.25s-.33-.86-1-1.19L109 1a77 77 0 01-9.17 23.76c-1.32 2-1.32 2-1.32 2.37a.35.35 0 00.4.4c.46 0 1-.53 2.7-2.38a54.56 54.56 0 006.67-9.37l.86-1.58c1.74-3.2 2-3.64 3.78-7.2zm-9.04 29c.79-.06 3.76-4 5.68-7.59h19.8a.8.8 0 00.79-.79 1.42 1.42 0 00-.46-1l-4.76-3.5-3.69 3.7h-10.63l2.25-4.09 1.58-.53a1.55 1.55 0 001.06-1.39 1.11 1.11 0 00-.79-1.05l-5-1.91a57.3 57.3 0 01-5.34 16c-.73 1.26-.79 1.45-.79 1.72s.17.43.3.43z"/><path class="cls-1" d="M133.91 39.14a.86.86 0 00.79-.8 1 1 0 00-.4-.92l-4.94-3.76-3.83 3.89h-7.86c.27-3.09.36-4.19.52-6.76h-4.29c-.09 2.55-.19 3.62-.45 6.76h-4c-.86 0-2.31 0-4-.07l-4.89-.19.86 2c6.27-.19 6.34-.19 8-.19h3.83c-1.45 10-5.41 14.78-16.3 19.79-.73.33-1 .6-1 1a.58.58 0 00.59.53c1.39 0 8-3 10.89-4.88 5.81-3.83 8-7.26 9.7-14.85a12.91 12.91 0 00.27-1.58z"/><path class="cls-1" d="M119.46 41.15h-.19s-.21 1.62-.59 3.17a41.33 41.33 0 0011.53 14.22 14.38 14.38 0 012.71-2.18c.73-.26 1.38-.53 2.11-.86a4 4 0 00.97-.5c-8.19-4.15-13.21-8.34-16.54-13.85zm-19.8-11.39l-4.36-3.49-1.78 2.37H89.9l-.1 1.59h4.45c-.2 10-.6 13.85-1.79 19.6-.52 2.44-1.65 3.89-2.77 3.69l-.26-.06L83 52.6l-.07.86 4.62 2.37a2.27 2.27 0 01.86.93l.2 1.31c.13.73.39 1.06.86 1.06 2.3 0 4.61-1.91 5.8-4.82 1.78-4.22 2.44-9.3 3-22.1l1.32-.6a1.1 1.1 0 00.59-.92 1.27 1.27 0 00-.52-.93zm-63.23 7.72l-1.12-1.12c-.8-.72-1-.92-2.11-1.91a37.46 37.46 0 00-7.07-9.24c3.5-2.24 4.29-2.84 6.14-4.22h15.25a.71.71 0 00.79-.8c0-.33-.13-.59-.6-.92l-5.14-4.16-3.9 4.29H15.44c-.66 0-2.11-.06-4.22-.13-.6 0-2.51-.07-4.62-.13l1.12 2c3.83-.13 5.54-.19 7.72-.19h9.37C19.14 26.13 9 32.87 2.9 35.51.2 36.63.07 36.69.07 37.15s.26.53.72.53a33.14 33.14 0 006.6-2.24 105.35 105.35 0 0017-9.11l1.85 1.85A79.19 79.19 0 015.15 44.81c-3 1.58-3 1.58-3 1.91s.27.53.66.53c1.06 0 4.49-1.38 8.91-3.63A85.4 85.4 0 0028.51 32a8.62 8.62 0 011.58 3.23 23.58 23.58 0 011.06 4.55 11.1 11.1 0 01.26 2.51 24.79 24.79 0 01-1.58 8.85 5.07 5.07 0 01-4.36 3.16c-.13 0-1-.06-2.44-.19l-5.21-.53-.07 1L23.23 57c1.39.72 1.45.79 1.45 2.51 0 .59.13.79.53.79a9.49 9.49 0 005.34-2.18c3-2.57 4.76-7.65 4.76-13.4a22.86 22.86 0 00-1.06-7c4.82 8 11.81 14.85 19.21 18.61.72-.73 1.25-1.32 2-2a11.75 11.75 0 014.16-2.44c-9.53-2.99-18.18-8.33-23.19-14.41zm214.72-7.12c-5 0-9.51 2-14.65 6.53a2 2 0 01-1.06.6c-.53 0-1-.86-1-2a104.38 104.38 0 011.83-12.9l-2.72.47c-.59 2.78-1.17 5.5-1.82 8.28l-.85 4c-.8 3-.8 3-.8 3.76a6 6 0 002.45 4.68 5.47 5.47 0 002.31 1.13c.59 0 1-.47 1.18-1.32a10.53 10.53 0 012.31-5.42 15.32 15.32 0 0111.49-5.47c4 0 7.32 3.56 7.32 8 0 6.07-4.82 10.63-14.25 13.53a68.47 68.47 0 01-11.75 2.38c-.46.06-.59.13-.59.46s.33.53 2.44.53a56.91 56.91 0 0015.44-2.18c9.17-2.71 14-7.66 14-14.59 0-6.25-4.55-10.47-11.28-10.47zm58.91 17.22a7.35 7.35 0 01-.2-1.22c-.06-.26-.19-1.09-.38-2.3a99.1 99.1 0 01-1.15-13.83s-.07-2.88-.07-3.2a23.24 23.24 0 011-6.84 5 5 0 00.32-1.41c0-1.35-3.33-3.65-5.38-3.65-1.41 0-4.48 1.34-4.48 2a.34.34 0 00.39.39 6.16 6.16 0 012.75.64c1.92 1.21 1.92 1.34 2.05 9.47a113.31 113.31 0 001.15 16.13c.19 1.08.32 1.85.32 2a9.82 9.82 0 01.19 1.28 50.75 50.75 0 00-7-.76c-6 0-10.49 2.49-10.49 5.76 0 3.64 5.06 6.65 11.2 6.65s9.66-2.81 9.92-8.06c2.94 1.21 4.86 2.69 7.87 6.14.7.83 1.15 1.09 1.79 1.09a2.3 2.3 0 002.24-2.37c.05-2.49-4.3-5.35-12.04-7.91zm-3.33 2.3c0 4-2.11 5.95-6.59 5.95s-7.81-1.85-7.81-4.16c0-1.92 2.75-3.26 6.66-3.26a31.8 31.8 0 017.74 1.15zm123.74-38.46l-.07 2c-.19 3.76-.39 8.45-.39 10.3a15 15 0 001.13 6.78 21 21 0 002.68-1 9.52 9.52 0 01-.25-2.26 62 62 0 012.25-14.65 13.9 13.9 0 00.79-3.89 3.26 3.26 0 00-1.52-2.91 11.3 11.3 0 00-5.48-1.58c-2.7 0-5.94 1-5.94 1.85 0 .26.13.33.73.33 4.6.01 6.07 1.27 6.07 5.03zm240.62 43.09h-25.35v-7.85h25.35v-1.59h-25.35v-7.26h25.35v-1.58h-25.35V29h25.35v-1.61h-24.23l-5.41-2.84V59.2c0 .59.27.79.93.79 2 0 3.36-.79 3.36-1.91v-2h25.35zm15.64-48.77l-4.43-3.83-2 3.17h-37.93v1.59h38.28v5.8h-38.28v1.59h38.28v5.87h-38.28v1.58h38.28v3.17a.87.87 0 00.93.93 6.69 6.69 0 001.91-.4c1.12-.33 1.59-.79 1.59-1.58v-15l1.45-.4c.72-.19.92-.46.92-1.12a1.81 1.81 0 00-.72-1.37z"/><path d="M461.16 16.17a2.43 2.43 0 01-2.25 2.37c-.66 0-1.05-.33-1.58-1.32a11.33 11.33 0 00-6.67-5.34c-.26-.07-.39-.13-.39-.33s.86-.46 2.31-.46c4.29 0 8.58 2.57 8.58 5.08zm99.2-4.42a.54.54 0 01-.26.06.28.28 0 01-.27-.26c0-.4 1.12-.79 2.38-.79 3.76 0 7.19 2.9 7.19 6.07a23.69 23.69 0 01-.86 5.34 42.23 42.23 0 00-1.18 10.5c0 5 1 8.77 3 11.55 1.12 1.51 2.64 2.64 3.63 2.64s1.06-.2 3-4.62c3-6.54 4.22-8.71 4.75-8.71a.56.56 0 01.46.52 2.27 2.27 0 01-.26 1c-1.39 3.17-3 9.37-3 11.82a7.4 7.4 0 001.28 4.13c.4.66.47.73.47 1.06 0 .79-1.19 1.58-2.45 1.52a14.09 14.09 0 01-6.92-2.91c-4.76-3.69-7.53-11.28-7.53-20.32 0-2.84.27-7.13.6-10.43.06-1 .13-1.78.13-2.38 0-3-2-5.8-4-5.8zm-426.45 2.11l-5.08-3.7-4 4h-13.18l-.81 1.58h22.87c.33 0 .53-.39.53-.86a1.41 1.41 0 00-.33-1.02zM318 26.07a21.6 21.6 0 01-7.61 2.25l.17 2.31a36.49 36.49 0 004.88.24c4.67 0 6.27-.38 6.27-1.53s-.84-1.73-3.71-3.27zm362.06 2.44l-4.42-4-1.59 2.35v31.48a.8.8 0 00.86.86c1.72 0 3.7-.93 3.7-1.78V31l1.12-.4c.66-.2 1-.53 1-.92a2 2 0 00-.67-1.17zM51 28.05l-4.09-4c-3.68 4.29-6.51 7.44-9.08 10l1.28 1.62 9.25-5.56h1.85c.79 0 1.38-.4 1.38-1.06a1.47 1.47 0 00-.59-1zM713.59 4.48l-4-2.3V59c0 .4.27.66.79.66 1.65 0 3.17-.92 3.17-1.91V4.48z" fill="#fffe07"/><path class="cls-1" d="M719 20.52l8.19-11.35 1.25-.26c.73-.13 1.19-.53 1.19-1.06a2.45 2.45 0 00-.79-1.58l-4.16-4L723 4.75h-7v1.52h7.22L717 21c3.9 4.42 6.07 9.24 6.07 13.46 0 4.62-1.18 6.6-3.89 6.6a10.45 10.45 0 01-1.38-.07l-2.65-.26-.26.66 3.83 1.78c1 .46 1.12.59 1.12 2.24 0 .86.2 1.06.73 1.06 3.82 0 6.6-4.16 6.6-9.9.02-5.42-2.43-10.24-8.17-16.05zm35.57 1.39a.87.87 0 00.73-.86 1.47 1.47 0 00-.4-.92l-3.9-3.37-3 3.57h-13.55v1.58z"/><path class="cls-1" d="M747.12 4.16l.88-.46a.82.82 0 00.5-.7c0-.4-.26-.73-.86-1l-5.34-2a54.67 54.67 0 01-6.3 13.2c-2.31 3.76-3.7 5.41-8.65 10.56-1.22 1.24-1.35 1.38-1.35 1.78a.47.47 0 00.53.46c.52 0 1.65-.72 3.69-2.31 5.94-4.62 9.64-9 15.58-18.34.68-1.08 1.32-1.19 1.32-1.19zM748 5.7a12 12 0 00-1.29 1.51c3.74 7.45 8.37 12.79 16 18.4a12.76 12.76 0 013.5-2.91c.26-.13 1-.66 1.85-1.19C758.77 17.83 752 12.44 748 5.7zm13.17 23.54l-3.82-3.57-1.85 2.64h-7.34v1.59H756v9.3h-7.78l-.08 1.58H756v2c0 .33.46.66 1 .66 1.45 0 2.83-.72 2.83-1.45V31.28l1.32-.59a.77.77 0 00.53-.6 1.23 1.23 0 00-.51-.85zm-14.25-.93l-.07-3.23v-.85h-3.75c.06 1.18.06 2.09.06 4.08h-7.53l-4.55-2.44v18.61c0 .26.4.46.92.46 1.52 0 2.84-.72 2.84-1.58v-2.58h7.59c-1.06 8.19-5.28 13.07-15 17.3-.92.33-1.39.72-1.39 1.12a.61.61 0 00.66.59c.93 0 7.07-2.44 9.38-3.69 5.8-3.3 8.38-6.93 10-14.13.1-.46.18-.79.46-2.77s.38-10.89.38-10.89zm-4.23 10.89h-7.85v-9.3h8.32a69.58 69.58 0 01-.47 9.3zM231.41 5.94q3.57 0 3.57 4.35a45.48 45.48 0 01-.31 5.08l3.17-.6.31-1.37.39-1.65.2-.79c.4-2.38.59-3.77.59-4 0-2.11-2-3.7-4.62-3.7-1.32 0-4 1.59-4 2.31-.02.3.04.3.7.37zm572.9 31.65a22.52 22.52 0 00-.72-3.54c-.72-2.34-1.26-3.36-2.22-4.26a6.12 6.12 0 00-3.84-1.38 9.52 9.52 0 00-4 1.08 68.86 68.86 0 006.84-12.78c5.7-1.68 7-2.22 7-2.94 0-.48-.6-.9-2.64-1.92a8.73 8.73 0 01-3.84 2 9.06 9.06 0 00.48-2.28c0-1.74-2-3.54-4-3.54-1.14 0-3.18 1-3.18 1.5 0 .18.06.24.3.24 1.86.12 2.82 1.26 2.82 3.24a10 10 0 01-.18 1.68 16.13 16.13 0 01-5.46 1 3.8 3.8 0 01-3.54-1.56c-.12-.18-.24-.24-.3-.24a.26.26 0 00-.24.24 7.63 7.63 0 00.9 2.28 3.73 3.73 0 003.12 2.16 18.34 18.34 0 005.22-1c-1.14 5.58-5.1 11.4-11.58 17-1.2.9-1.44 1.32-1.44 2.1 0 1.56 1.2 3.54 2.1 3.54.66 0 1.32-.54 2-1.68a36.15 36.15 0 015.16-6.42 7 7 0 014.26-2.22 3.13 3.13 0 012.82 2.1c.54 1.32.72 3.3.78 7.56 0 0 0 6.18-.24 8.22a1.49 1.49 0 00-.06.48c0 .36.36.6 1.08.6 2.4 0 3-.78 3-3.78 0-1-.12-2.88-.3-5.52z"/><path d="M177.92 38a.19.19 0 01-.06.12 14 14 0 00-.18 1.92c0 5.1 3.66 7.62 11 7.62a34.47 34.47 0 008.4-1.14 7.9 7.9 0 012.22-.42 2.52 2.52 0 012.7 2.46c0 2.28-3.18 3.42-9.18 3.42-5.52 0-10-.78-12.3-2.22a9.27 9.27 0 01-4.26-7.86c0-2.58.48-4.2 1.26-4.2a.34.34 0 01.4.3zM364 5c0-1.12.2-1.91.53-1.91.13 0 .19.06.26.66.33 3.23 4 5.34 9.24 5.34.86 0 1.71-.06 2.51-.13a9.21 9.21 0 011.25-.07 2.2 2.2 0 012 1.26 6.41 6.41 0 011 2.84c0 .85-.59 1.31-1.65 1.31a4.93 4.93 0 01-1.12-.19 15.61 15.61 0 00-3.17-.27c-3.76 0-5.41.27-8.12 1.46-.66.26-.66.26-.85.26a.28.28 0 01-.27-.26c0-.27 1.59-1.39 4.56-3.24C367 12 364 8.51 364 5zm153.59 18.56c0-.53 2.11-1 4.42-1 7.33 0 15 7 15 13.73 0 2.64-1.58 4.48-3.83 4.48-1.18 0-1.65-.59-1.65-2.24.07-8-5.61-14.65-12.6-14.65-1.27.01-1.34.01-1.34-.32zM88.45 19.32h-4.12c-.19 22-2.28 29-11.2 39.68a1.12 1.12 0 00-.4.73.58.58 0 00.53.46c.59 0 3.43-2.64 5.74-5.35 5.61-6.47 7.92-13 9-24.61 0 0 .35-7.17.45-10.91zm362.08 32.02a3.89 3.89 0 00-1.58.47 44.09 44.09 0 01-13.6 2.44c-7.72 0-11.55-2.31-11.55-7 0-4.35 2.65-7.82 7.4-10.89 4.08-2.64 11-3.16 13.72-3.89 2.38-.73 3.37-1.39 3.37-2.38 0-1.25-2.44-2.9-4.36-2.9-.59 0-.92.2-1.71.79-1.45 1.26-2.77 2.58-10.1 5.88s-12.21 8.77-12.21 13.85c0 3.83 2.38 7 6.53 8.78 2.91 1.19 7.2 1.85 12.61 1.85 5.67 0 11.75-.79 14.06-1.85a1.81 1.81 0 001.18-1.49c0-1.61-2.11-3.66-3.76-3.66zM27.63 37.58a113.4 113.4 0 01-22 16.34C1.72 56 1.72 56 1.72 56.36a.46.46 0 00.52.46c.93 0 4.43-1.45 9.11-3.76A81.23 81.23 0 0028.8 41.7a14.9 14.9 0 00-1.17-4.12zm611.78-23.52V4.73l-4.56-2.42V25a.8.8 0 00.86.86c1.78 0 3.7-1.12 3.7-2.18v-9.62zm109.42 29.08c-.18.67-.43 1.58-.71 2.53a24.4 24.4 0 004.94 6.33c3.69 3.44 6.6 5.42 9.3 6.54a18.91 18.91 0 014.82-4c-8.56-2.54-14.62-6.29-18.35-11.4zM814 52.29a5 5 0 00-1.57.3 34.36 34.36 0 01-8.81 1.08c-7 0-9.84-1.2-9.84-4.2 0-2.27 1.51-4.33 5-6.73v-1.89a31.83 31.83 0 00-4.89 3.34 7.6 7.6 0 00-3.06 5.64A7.13 7.13 0 00795 56c2.52 1.32 5.22 1.8 9.78 1.8 8.16 0 12.12-1 12.12-3 .01-1.13-1.61-2.51-2.9-2.51zM247.12 11.81a1.27 1.27 0 00-.59.14 5.52 5.52 0 01-1.78.26 21.42 21.42 0 01-6-1.25l-.2.79.93.39c3.63 1.52 3.63 1.52 3.63 1.92 0 .66-1.19 1.19-5.68 2.57l-3 .59a23.25 23.25 0 01-5.61.8c-3.3 0-5.41-1.06-6.4-3.24-.13-.33-.26-.46-.4-.46s-.59.26-.59.46a11.79 11.79 0 001.65 4.16 5.54 5.54 0 004.75 2.44 31.66 31.66 0 006.2-.66s2.09-.28 2.71-.46c7.79-2.24 12.87-4.68 12.87-6.27.02-.79-1.61-2.18-2.49-2.18zm571.41 9.7a13.8 13.8 0 00-8.94 3.84c-2.4 2.1-3.84 4.26-6 8.7 0 0 .26.92.72 3.54a30.41 30.41 0 013.54-7.38c2.34-3.84 6.42-6.66 9.53-6.66 1.87 0 3.66 1.5 3.66 3a3.29 3.29 0 01-1.2 2.1c-.72.6-1.92 1.32-7.68 4.5-3 1.64-4.35 2.39-5.47 3l.29 2.07c2.5-1.27 5.09-2.37 10.35-4.5 5.58-2.22 5.93-2.34 7.19-3.3a3.55 3.55 0 001.56-3.18c0-3.24-3.29-5.73-7.55-5.73z" fill="#36960a"/></g></g></svg>