<svg xmlns="http://www.w3.org/2000/svg" viewBox="0 0 826.58 62.01"><defs><style>.cls-1{fill:#040000;}.cls-2{fill:#ddd824;}.cls-3{fill:#59c626;}</style></defs><title>maincopy</title><g id="レイヤー_2" data-name="レイヤー 2"><g id="レイヤー_1-2" data-name="レイヤー 1"><path class="cls-1" d="M165.39,57.63c-3.52,0-6.85-8-6.85-16.44,0-4,.56-7.47,2.71-16.71.89-4,1.13-5.33,1.13-7,0-2.4-.64-4.13-1.86-5-.21-.21-.3-.29-.3-.46s.09-.31.49-.31a6.61,6.61,0,0,1,3.68,1.65,7,7,0,0,1,2.86,5.8c0,2-.23,2.66-2.71,8.92-2.23,5.68-3,8.93-3,12.86,0,4.36.83,6.71,1.62,6.71.48,0,.82-.27,1.26-1.71l1.86-5.58c2.31-6.21,2.31-6.21,2.76-6.21a.7.7,0,0,1,.6.67,1.1,1.1,0,0,1-.06.4,52.17,52.17,0,0,0-1.56,5,48.16,48.16,0,0,0-1.62,10.47,7.88,7.88,0,0,0,.71,3.43,3.28,3.28,0,0,1,.25,1.19A2.16,2.16,0,0,1,165.39,57.63Z"/><path d="M160.71,11.79a6.48,6.48,0,0,1,3.6,1.62,6.83,6.83,0,0,1,2.82,5.7c0,2-.18,2.52-2.7,8.88-2.22,5.64-3,8.88-3,12.9s.72,6.84,1.74,6.84c.6,0,1-.42,1.38-1.8l1.86-5.58c2.28-6.12,2.28-6.12,2.64-6.12a.58.58,0,0,1,.48.54.89.89,0,0,1-.06.36c-.24.42-1.14,3.48-1.56,5a48.31,48.31,0,0,0-1.62,10.5,8.06,8.06,0,0,0,.72,3.48,3.22,3.22,0,0,1,.24,1.14,2.05,2.05,0,0,1-1.86,2.22c-3.42,0-6.72-8-6.72-16.32,0-4,.54-7.38,2.7-16.68.9-4,1.14-5.34,1.14-7.08,0-2.4-.66-4.2-1.92-5.1-.18-.18-.24-.24-.24-.36s.12-.18.36-.18m0-.25c-.55,0-.61.3-.61.43s.11.34.31.53c1.2.87,1.85,2.61,1.85,4.93,0,1.71-.24,3-1.14,7-2.15,9.26-2.7,12.7-2.7,16.74,0,8.51,3.39,16.57,7,16.57a2.29,2.29,0,0,0,2.11-2.47,3.56,3.56,0,0,0-.25-1.22,7.81,7.81,0,0,1-.71-3.4,47.84,47.84,0,0,1,1.61-10.44c.46-1.7,1.32-4.61,1.53-5l0,0a1.27,1.27,0,0,0,.07-.43.83.83,0,0,0-.73-.79c-.54,0-.54,0-2.88,6.28l-1.86,5.59c-.42,1.37-.72,1.63-1.14,1.63-.62,0-1.49-2-1.49-6.59,0-3.91.75-7.15,3-12.81,2.49-6.28,2.72-6.92,2.72-9a7.09,7.09,0,0,0-2.91-5.9,6.76,6.76,0,0,0-3.76-1.67Z"/><path class="cls-1" d="M185.67,24.39c-3.28,0-5.43-.81-7.41-2.8a4.61,4.61,0,0,1-1.24-2.3c0-.21.26-.37.43-.37s.34.12.47.37c.62,1.07,2.62,1.79,5,1.79a27.26,27.26,0,0,0,10.74-2.32,1.68,1.68,0,0,1,1-.32c1.4,0,3.84,2.25,3.84,3.55,0,.86-.89,1.43-2.51,1.62A88.32,88.32,0,0,1,185.67,24.39Z"/><path d="M194.67,18.57c1.32,0,3.72,2.16,3.72,3.42,0,.78-.84,1.32-2.4,1.5a89.14,89.14,0,0,1-10.32.78,9.38,9.38,0,0,1-7.32-2.76,4.54,4.54,0,0,1-1.2-2.22c0-.12.18-.24.3-.24s.24.06.36.3c.66,1.14,2.7,1.86,5.1,1.86a27.25,27.25,0,0,0,10.8-2.34,1.62,1.62,0,0,1,1-.3m0-.25a1.85,1.85,0,0,0-1.09.33A27,27,0,0,1,182.91,21c-2.32,0-4.29-.7-4.89-1.74a.66.66,0,0,0-.57-.42.56.56,0,0,0-.55.49,4.68,4.68,0,0,0,1.27,2.39c2,2,4.18,2.84,7.5,2.84A88.93,88.93,0,0,0,196,23.73c2.28-.26,2.62-1.2,2.62-1.74,0-1.38-2.49-3.67-4-3.67Z"/><path class="cls-1" d="M361,61.88a.74.74,0,0,1-.78-.72c0-.36.28-.58,1-.78A36.36,36.36,0,0,0,373,54a24.72,24.72,0,0,0,9.12-19.18c0-6.7-2.51-11-6.41-11-2.74,0-7.07,2.51-10.53,6.1-2.09,2.16-3,2.75-4.12,2.75-2.48,0-5.2-3.25-5.2-6.2,0-1.57.9-3.89,1.71-3.89a.41.41,0,0,1,.39.39.45.45,0,0,1-.11.29l0,.24c0,2,1.45,3.83,3.11,3.83,1,0,1.73-.31,4.62-1.89,5.66-3,8.72-4.11,11.68-4.11,6,0,10.22,5.51,10.22,13.39,0,10.15-5.34,18.29-15.44,23.54C369.45,59.57,362.45,61.88,361,61.88Z"/><path d="M377.26,21.43c5.94,0,10.1,5.42,10.1,13.27,0,10.1-5.35,18.21-15.38,23.43-2.57,1.32-9.57,3.63-11,3.63a.62.62,0,0,1-.66-.6c0-.26.2-.46.93-.66A36.33,36.33,0,0,0,373,54.1a24.91,24.91,0,0,0,9.17-19.27c0-6.8-2.58-11.15-6.54-11.15-2.77,0-7.12,2.51-10.62,6.14-2.05,2.11-2.9,2.7-4,2.7-2.44,0-5.08-3.17-5.08-6.07,0-1.65.93-3.76,1.59-3.76a.28.28,0,0,1,.26.26.32.32,0,0,1-.07.2v.33c0,2.11,1.52,4,3.24,4,1,0,1.78-.33,4.68-1.91,5.55-3,8.65-4.1,11.62-4.1m0-.25c-3,0-6.05,1.08-11.73,4.13-2.88,1.56-3.64,1.88-4.57,1.88-1.59,0-3-1.73-3-3.71v-.25A.68.68,0,0,0,358,23a.53.53,0,0,0-.51-.51c-.91,0-1.84,2.33-1.84,4,0,3.07,2.74,6.32,5.33,6.32,1.19,0,2.09-.6,4.21-2.78,3.44-3.57,7.73-6.06,10.44-6.06,3.82,0,6.29,4.28,6.29,10.9a24.59,24.59,0,0,1-9.08,19.08,36.12,36.12,0,0,1-11.66,6.35c-.57.16-1.11.38-1.11.9A.87.87,0,0,0,361,62c1.44,0,8.47-2.33,11.07-3.66,10.15-5.27,15.52-13.45,15.52-23.65,0-8-4.26-13.52-10.35-13.52Z"/><path class="cls-1" d="M452.63,22.55c-.7,0-1.14-.34-1.63-1.25A11,11,0,0,0,444.54,16l-.11,0c-.3-.09-.44-.14-.44-.41,0-.59,1.7-.65,2.44-.65,4.24,0,8.57,2.66,8.57,5.27A2.52,2.52,0,0,1,452.63,22.55Z"/><path d="M446.43,15c4.15,0,8.44,2.58,8.44,5.15a2.41,2.41,0,0,1-2.24,2.24c-.66,0-1.06-.33-1.52-1.18a11,11,0,0,0-6.53-5.35c-.4-.13-.46-.13-.46-.33s1-.53,2.31-.53m0-.25c-1.17,0-2.56.14-2.56.78,0,.36.22.43.52.53l.11,0a10.88,10.88,0,0,1,6.39,5.22c.44.82.88,1.32,1.74,1.32a2.65,2.65,0,0,0,2.49-2.49c0-2.72-4.3-5.4-8.69-5.4Z"/><path class="cls-1" d="M503.91,54a14.18,14.18,0,0,1-7-2.93c-4.74-3.68-7.57-11.32-7.57-20.42,0-2.69.24-6.89.59-10.44l0-.62c0-.7.09-1.28.09-1.75,0-2.86-1.9-5.68-3.83-5.68H486a.42.42,0,0,1-.65-.32c0-.54,1.32-.92,2.5-.92,3.83,0,7.32,3,7.32,6.2a23.9,23.9,0,0,1-.86,5.37,41.66,41.66,0,0,0-1.19,10.47c0,5,1,8.73,3,11.47,1.11,1.5,2.6,2.59,3.53,2.59.76,0,.94-.12,2.92-4.55,3.49-7.51,4.33-8.78,4.87-8.78a.7.7,0,0,1,.59.65,2.43,2.43,0,0,1-.28,1.05c-1.41,3.22-3,9.37-3,11.76A7.23,7.23,0,0,0,506,51.19l.13.22c.28.47.35.58.35.91,0,.85-1.18,1.65-2.42,1.65Z"/><path d="M487.88,11c3.76,0,7.19,2.9,7.19,6.07a23.69,23.69,0,0,1-.86,5.34A42.23,42.23,0,0,0,493,32.92c0,5,1,8.77,3,11.55,1.12,1.51,2.64,2.64,3.63,2.64s1.06-.2,3-4.62c3-6.54,4.22-8.71,4.75-8.71a.56.56,0,0,1,.46.52,2.27,2.27,0,0,1-.26,1c-1.39,3.17-3,9.37-3,11.82a7.4,7.4,0,0,0,1.18,4.15c.4.66.47.73.47,1.06,0,.76-1.1,1.52-2.3,1.52h-.15A14.09,14.09,0,0,1,497,50.93c-4.76-3.69-7.53-11.28-7.53-20.32,0-2.84.27-7.13.6-10.43.06-1,.13-1.78.13-2.38,0-3-2-5.8-4-5.8H486a.54.54,0,0,1-.26.06.28.28,0,0,1-.27-.26c0-.4,1.12-.79,2.38-.79m0-.25c-1.26,0-2.63.4-2.63,1a.53.53,0,0,0,.52.51.73.73,0,0,0,.32-.06h.14c1.87,0,3.71,2.75,3.71,5.55,0,.46,0,1.05-.09,1.74l0,.62c-.36,3.55-.6,7.75-.6,10.45,0,9.14,2.85,16.81,7.62,20.52a14.45,14.45,0,0,0,7.08,3h.15c1.33,0,2.55-.84,2.55-1.77,0-.36-.08-.49-.37-1l-.13-.21a7.12,7.12,0,0,1-1.15-4c0-2.37,1.54-8.5,2.94-11.72a2.4,2.4,0,0,0,.29-1.09.81.81,0,0,0-.71-.77c-.59,0-1.27.87-5,8.85-1.95,4.35-2.12,4.48-2.81,4.48-.88,0-2.36-1.09-3.43-2.54-2-2.73-3-6.46-3-11.4a41.41,41.41,0,0,1,1.18-10.44,23.56,23.56,0,0,0,.86-5.4c0-3.31-3.55-6.32-7.44-6.32Z"/><path class="cls-1" d="M608,41.16c-1.27,0-1.77-.66-1.77-2.37a15.42,15.42,0,0,0-4.28-11,11.55,11.55,0,0,0-8.2-3.56c-1.28,0-1.45,0-1.45-.45,0-.69,2.36-1.11,4.55-1.11,7.34,0,15.11,7.12,15.11,13.85C612,39.26,610.32,41.16,608,41.16Z"/><path d="M596.84,22.82c7.33,0,15,7,15,13.73,0,2.64-1.58,4.48-3.83,4.48-1.18,0-1.65-.59-1.65-2.24.07-8-5.61-14.65-12.6-14.65-1.25,0-1.32,0-1.32-.33,0-.53,2.11-1,4.42-1m0-.25c-1.3,0-4.67.22-4.67,1.24,0,.58.27.58,1.57.58a11.42,11.42,0,0,1,8.11,3.52,15.27,15.27,0,0,1,4.24,10.88c0,1.77.55,2.49,1.9,2.49,2.4,0,4.08-1.94,4.08-4.73,0-6.93-7.69-14-15.23-14Z"/><path class="cls-1" d="M46.45,17.27a.42.42,0,0,1-.39-.46,2.66,2.66,0,0,1,.14-.64l4.16-9.83a.1.1,0,0,1,.09-.07h0a.18.18,0,0,1,.09,0l5.67,5.41c.66.59,1,1.08,1,1.54a1.16,1.16,0,0,1-.4.85,1.28,1.28,0,0,1-.86.35h0l-.22,0h-.1l-4-.26L47.17,17A2,2,0,0,1,46.45,17.27Z"/><path d="M50.47,6.39l5.68,5.41c.66.59.92,1,.92,1.45a1.16,1.16,0,0,1-1.13,1.08l-.19,0h-.13l-4-.27-4.55,2.84a2.44,2.44,0,0,1-.66.27.31.31,0,0,1-.27-.34,2.77,2.77,0,0,1,.13-.59l4.16-9.83m0-.25h0a.27.27,0,0,0-.18.15l-4.16,9.83a2.7,2.7,0,0,0-.15.69.56.56,0,0,0,.52.59,2.28,2.28,0,0,0,.77-.29l4.5-2.81,3.88.26h.12l.22,0a1.41,1.41,0,0,0,1.38-1.33,2.38,2.38,0,0,0-1-1.64l-5.67-5.4a.21.21,0,0,0-.17-.07Z"/><path class="cls-1" d="M2.49,20.37a2.52,2.52,0,0,1-2.36-2.7c0-1.23,0-1.23,3.26-4.77,1.86-2.11,2.08-2.81,2.15-6.78A.12.12,0,0,1,5.66,6H7a.14.14,0,0,1,.12.07,9.42,9.42,0,0,1,.78,2.77H26.06V.78a.13.13,0,0,1,0-.09.1.1,0,0,1,.09,0L32,1.18c1,.15,1.5.6,1.5,1.25s-.29.94-1,1.42l-1.47,1v4H46.18a.16.16,0,0,1,.11.05.17.17,0,0,1,0,.12l-.68,1.58a.11.11,0,0,1-.11.08H8.11c.05.8.05,1.44.05,2.18C8.16,16.86,5.51,20.37,2.49,20.37Z"/><path d="M26.19.78l5.8.53c.86.13,1.39.52,1.39,1.12s-.26.86-.92,1.32l-1.52,1V9H46.18l-.67,1.59H8c.07.85.07,1.51.07,2.3,0,4-2.58,7.4-5.55,7.4A2.4,2.4,0,0,1,.25,17.67c0-1.19,0-1.19,3.23-4.68C5.4,10.81,5.6,10,5.66,6.12H7A9.14,9.14,0,0,1,7.77,9H26.19V.78m0-.25A.24.24,0,0,0,26,.59a.27.27,0,0,0-.08.19V8.71H8A8.9,8.9,0,0,0,7.21,6,.25.25,0,0,0,7,5.87H5.66a.25.25,0,0,0-.25.25c-.06,3.93-.28,4.62-2.11,6.7C.06,16.32,0,16.39,0,17.67A2.65,2.65,0,0,0,2.49,20.5c3.09,0,5.8-3.57,5.8-7.65,0-.7,0-1.31,0-2H45.51a.25.25,0,0,0,.23-.16l.67-1.58a.26.26,0,0,0,0-.24.25.25,0,0,0-.21-.11h-15V4.93L32.6,4c.71-.5,1-1,1-1.52,0-.72-.58-1.21-1.6-1.37L26.21.53Z"/><path class="cls-1" d="M74.57,17.53a.14.14,0,0,1-.12-.07l-.86-2.05a.13.13,0,0,1,0-.12.12.12,0,0,1,.1,0h0c5.57.26,6.42.26,11.69.26V1.57a.1.1,0,0,1,0-.09.12.12,0,0,1,.08,0l5.42.47a1.53,1.53,0,0,1,1.57,1.38c0,.48-.31.91-1,1.35L90,5.66V15.5h5l3.47-3.59a.18.18,0,0,1,.09,0,.13.13,0,0,1,.08,0l4.68,3.49a1.4,1.4,0,0,1,.52,1,.93.93,0,0,1-.86.92H84.6l-1.6,0c-3.2,0-4.24.06-8.43.17Z"/><path d="M85.52,1.57,90.93,2a1.4,1.4,0,0,1,1.45,1.26c0,.46-.33.85-.92,1.25L89.88,5.6v10H95L98.52,12l4.69,3.49a1.29,1.29,0,0,1,.46.93.8.8,0,0,1-.73.79H84.6c-4.56.07-5.22.07-10,.2l-.86-2.05c5.61.27,6.47.27,11.81.27V1.57m0-.25a.26.26,0,0,0-.25.25V15.38c-5.15,0-6,0-11.55-.27h0a.26.26,0,0,0-.21.11.23.23,0,0,0,0,.24l.86,2.05a.24.24,0,0,0,.23.15h0c4.19-.12,5.26-.13,8.43-.18l1.6,0h18.34a1,1,0,0,0,1-1,1.55,1.55,0,0,0-.56-1.13L98.67,11.8a.21.21,0,0,0-.15-.05.26.26,0,0,0-.18.07l-3.49,3.56H90.13V5.73l1.47-1a1.93,1.93,0,0,0,1-1.46A1.64,1.64,0,0,0,91,1.78l-5.41-.46Z"/><path class="cls-1" d="M99.12,27.89a.47.47,0,0,1-.53-.52c0-.43,0-.43,1.35-2.44a76.89,76.89,0,0,0,9.15-23.71.13.13,0,0,1,.07-.09h.1L115.47,4c.71.36,1.06.79,1.06,1.31s-.4,1-1.26,1.37l-2,.72c-1.69,3.45-2,4-3.67,7l-1,1.74a54.85,54.85,0,0,1-6.68,9.4C100.2,27.4,99.62,27.89,99.12,27.89Z"/><path d="M109.21,1.24l6.21,2.84c.66.33,1,.72,1,1.19s-.4.92-1.19,1.25l-2,.73c-1.78,3.56-2,4-3.82,7.19L108.49,16a54.56,54.56,0,0,1-6.67,9.37c-1.65,1.85-2.24,2.38-2.7,2.38a.35.35,0,0,1-.4-.4c0-.39,0-.39,1.32-2.37a77,77,0,0,0,9.17-23.76m0-.25a.2.2,0,0,0-.11,0,.23.23,0,0,0-.13.17,76.7,76.7,0,0,1-9.14,23.68c-1.36,2-1.36,2-1.36,2.5a.59.59,0,0,0,.65.65c.56,0,1.12-.48,2.89-2.46a54.42,54.42,0,0,0,6.69-9.41l.87-1.59.09-.16c1.66-3,2-3.53,3.69-6.95l2-.69c.92-.39,1.36-.87,1.36-1.49s-.38-1-1.13-1.42L109.32,1l-.11,0Z"/><path class="cls-1" d="M104.13,36.41c-.22,0-.39-.28-.39-.52s.07-.49.81-1.78a57,57,0,0,0,5.33-16,.15.15,0,0,1,.06-.09l.07,0h0l5,1.91a1.24,1.24,0,0,1,.87,1.17,1.68,1.68,0,0,1-1.14,1.51l-1.58.53L111.07,27h10.42l3.61-3.65a.09.09,0,0,1,.08,0l.08,0,4.75,3.5a1.52,1.52,0,0,1,.51,1.09.93.93,0,0,1-.91.92H109.88c-1.78,3.3-4.82,7.51-5.74,7.59Z"/><path d="M110,18.14l5,1.91a1.11,1.11,0,0,1,.79,1.05,1.55,1.55,0,0,1-1.06,1.39l-1.58.53-2.25,4.09h10.63l3.69-3.7,4.76,3.5a1.42,1.42,0,0,1,.46,1,.8.8,0,0,1-.79.79h-19.8c-1.92,3.57-4.89,7.53-5.68,7.59-.13,0-.26-.19-.26-.39s.06-.46.79-1.72a57.3,57.3,0,0,0,5.34-16m0-.25a.27.27,0,0,0-.12,0,.23.23,0,0,0-.12.18,56.92,56.92,0,0,1-5.32,16c-.74,1.27-.82,1.5-.82,1.83s.21.64.51.64c1.06-.08,4.17-4.54,5.83-7.59h19.65a1.05,1.05,0,0,0,1-1,1.65,1.65,0,0,0-.56-1.19l-4.76-3.5a.23.23,0,0,0-.32,0l-3.63,3.62H111.29l2-3.64,1.49-.49A1.82,1.82,0,0,0,116,21.1a1.35,1.35,0,0,0-1-1.29L110.1,17.9Z"/><path class="cls-1" d="M96.87,60.83a.71.71,0,0,1-.72-.66c0-.51.41-.8,1.07-1.1,10.79-5,14.75-9.74,16.2-19.56h-3.68c-1.71,0-1.78,0-8,.2h0a.13.13,0,0,1-.12-.08l-.85-2.05a.13.13,0,0,1,.11-.17l4.89.2c1.71.07,3.16.07,4,.07h3.85l0-.33c.24-2.83.33-3.89.42-6.32a.13.13,0,0,1,.12-.12h4.29a.13.13,0,0,1,.09,0,.13.13,0,0,1,0,.1c-.16,2.48-.25,3.57-.5,6.47v.16h7.72l3.74-3.86a.13.13,0,0,1,.09,0,.11.11,0,0,1,.07,0l4.95,3.76a1.14,1.14,0,0,1,.45,1,1,1,0,0,1-.92.92H117.84a13.6,13.6,0,0,1-.25,1.49c-1.66,7.6-3.94,11.08-9.76,14.92C104.84,57.89,98.28,60.83,96.87,60.83Z"/><path d="M118.44,31c-.16,2.57-.25,3.67-.52,6.76h7.86l3.83-3.89,4.94,3.76a1,1,0,0,1,.4.92.86.86,0,0,1-.79.8H117.73a12.91,12.91,0,0,1-.27,1.58c-1.65,7.59-3.89,11-9.7,14.85-2.9,1.91-9.5,4.88-10.89,4.88a.58.58,0,0,1-.59-.53c0-.39.26-.66,1-1,10.89-5,14.85-9.76,16.3-19.79h-3.83c-1.71,0-1.78,0-8,.19l-.86-2,4.89.19c1.71.07,3.16.07,4,.07h4c.26-3.14.36-4.21.45-6.76h4.29m0-.25h-4.29a.26.26,0,0,0-.25.24c-.09,2.42-.18,3.48-.41,6.31l0,.21h-3.73c-.86,0-2.3,0-4-.06l-4.89-.2h0a.25.25,0,0,0-.2.1.26.26,0,0,0,0,.24l.86,2a.25.25,0,0,0,.23.15h0c6.26-.19,6.33-.19,8-.19h3.54C111.82,49.31,107.86,54,97.16,59c-.68.31-1.13.63-1.13,1.21a.83.83,0,0,0,.84.78c1.54,0,8.26-3.1,11-4.92,5.85-3.86,8.15-7.37,9.81-15,.14-.64.21-1.12.24-1.38h16.21a1.1,1.1,0,0,0,1-1,1.25,1.25,0,0,0-.53-1.14l-4.91-3.74a.23.23,0,0,0-.15-.05.24.24,0,0,0-.18.07l-3.76,3.82H118.2v-.07c.25-2.87.34-3.95.49-6.43a.22.22,0,0,0-.07-.18.23.23,0,0,0-.18-.08Z"/><path class="cls-1" d="M130.46,58.91l-.07,0a41.65,41.65,0,0,1-11.58-14.27c.37-1.6.58-3.22.59-3.24a.12.12,0,0,1,.12-.11h.19a.14.14,0,0,1,.11.06c3.31,5.48,8.23,9.62,16.44,13.85a.12.12,0,0,1,.07.11.13.13,0,0,1-.06.11l-.15.08a2.37,2.37,0,0,1-.84.4c-.64.3-1.29.56-2.07.85a14.12,14.12,0,0,0-2.66,2.15Z"/><path d="M119.71,41.4c3.33,5.51,8.35,9.7,16.5,13.89a4,4,0,0,1-.93.46c-.73.33-1.38.6-2.11.86a14.38,14.38,0,0,0-2.71,2.18,41.33,41.33,0,0,1-11.53-14.22c.38-1.55.59-3.17.59-3.17h.19m0-.25h-.19a.25.25,0,0,0-.25.22,31.2,31.2,0,0,1-.59,3.14.26.26,0,0,0,0,.17A41.69,41.69,0,0,0,130.32,59a.24.24,0,0,0,.14,0,.23.23,0,0,0,.17-.07,14.28,14.28,0,0,1,2.64-2.13c.75-.27,1.4-.54,2.08-.84a3.55,3.55,0,0,0,.84-.41l.14-.08a.25.25,0,0,0,0-.44c-8.19-4.22-13.1-8.34-16.4-13.8a.22.22,0,0,0-.21-.12Z"/><path class="cls-1" d="M89.75,59.51c-.7,0-.9-.67-1-1.16L88.57,57a2.23,2.23,0,0,0-.81-.83l-4.61-2.37a.12.12,0,0,1-.06-.12l.06-.86a.13.13,0,0,1,0-.09.11.11,0,0,1,.08,0l6.42.86.27.07h.18c1,0,2-1.45,2.44-3.61,1.13-5.47,1.58-9.25,1.78-19.45H90.05a.1.1,0,0,1-.09,0,.11.11,0,0,1,0-.09L90,28.88a.12.12,0,0,1,.12-.11h3.56l1.74-2.33a.13.13,0,0,1,.09-.05h0a.11.11,0,0,1,.08,0l4.36,3.5a1.37,1.37,0,0,1,.64,1,1.24,1.24,0,0,1-.68,1l-1.24.56c-.6,13-1.29,17.91-3,22.07C94.47,57.54,92.09,59.51,89.75,59.51Z"/><path d="M95.55,26.52,99.91,30a1.27,1.27,0,0,1,.59.93,1.1,1.1,0,0,1-.59.92l-1.32.6c-.6,12.8-1.26,17.88-3,22.1-1.19,2.91-3.5,4.82-5.8,4.82-.47,0-.73-.33-.86-1.06L88.69,57a2.27,2.27,0,0,0-.86-.93l-4.62-2.37.07-.86,6.4.86.26.06.21,0c1,0,2.07-1.42,2.56-3.71,1.19-5.75,1.59-9.57,1.79-19.6H90.05l.1-1.59h3.62l1.78-2.37m0-.25h0a.23.23,0,0,0-.17.1l-1.7,2.27h-3.5a.24.24,0,0,0-.24.24l-.11,1.58a.26.26,0,0,0,.07.19.23.23,0,0,0,.18.08h4.19C94,40.82,93.6,44.58,92.47,50c-.45,2.1-1.39,3.51-2.32,3.51H90l-.25-.07-6.43-.86h0a.28.28,0,0,0-.16,0,.26.26,0,0,0-.09.18l-.07.86a.25.25,0,0,0,.14.24l4.62,2.37a2.26,2.26,0,0,1,.73.77l.19,1.29c.06.32.23,1.27,1.11,1.27,2.43,0,4.8-2,6-5,1.76-4.17,2.45-9.12,3-22l1.18-.53a1.37,1.37,0,0,0,.74-1.15,1.48,1.48,0,0,0-.7-1.13l-4.34-3.49a.3.3,0,0,0-.16-.05Z"/><path class="cls-1" d="M25.46,60.69c-.54,0-.65-.36-.65-.91,0-1.68-.06-1.7-1.39-2.4L18,54.94a.11.11,0,0,1-.07-.12l.06-1a.16.16,0,0,1,0-.09.11.11,0,0,1,.08,0l5.22.53c1.39.13,2.31.2,2.43.2A5,5,0,0,0,30,51.34a24.59,24.59,0,0,0,1.57-8.79,11.25,11.25,0,0,0-.26-2.48,24.84,24.84,0,0,0-1.05-4.53,8.61,8.61,0,0,0-1.49-3.1A84.84,84.84,0,0,1,12,44c-4.43,2.25-7.87,3.65-9,3.65-.48,0-.78-.26-.78-.66s0-.4,3.1-2a78.83,78.83,0,0,0,21-16.51l-1.69-1.7a104.93,104.93,0,0,1-17,9.06A33.13,33.13,0,0,1,1,38.06c-.52,0-.85-.25-.85-.66s.17-.62,2.92-1.76c6-2.58,15.81-9.07,21.63-14.28h-9c-2,0-3.64.06-6.89.17l-.83,0a.14.14,0,0,1-.11-.07l-1.12-2a.15.15,0,0,1,0-.13.17.17,0,0,1,.11-.06l1.29,0c1.56.05,2.86.1,3.33.1l2.16.07c1,0,1.66.06,2.06.06H38.87l3.85-4.25a.13.13,0,0,1,.1,0l.08,0L48,19.42a1.2,1.2,0,0,1,.64,1,.82.82,0,0,1-.91.92H32.52a67.44,67.44,0,0,1-5.94,4.12,37.52,37.52,0,0,1,7,9.16c.82.71,1.14,1,1.58,1.41l.51.47,1.13,1.13C41.75,43.68,50.41,49,60,52a.12.12,0,0,1,.08.12.11.11,0,0,1-.07.12,11.55,11.55,0,0,0-4.12,2.41c-.53.48-.93.9-1.36,1.34l-.69.71a.11.11,0,0,1-.08,0h-.06C46.53,53.1,39.72,46.59,34.84,38.79a21.63,21.63,0,0,1,.84,6.2c0,5.85-1.79,10.89-4.79,13.5A9.69,9.69,0,0,1,25.46,60.69Z"/><path d="M42.82,15.36,48,19.52c.47.33.6.59.6.92a.71.71,0,0,1-.79.8H32.52c-1.85,1.38-2.64,2-6.14,4.22a37.46,37.46,0,0,1,7.07,9.24c1.12,1,1.31,1.19,2.11,1.91l1.12,1.12c5,6.08,13.66,11.42,23.23,14.39a11.75,11.75,0,0,0-4.16,2.44c-.79.73-1.32,1.32-2,2C46.31,52.85,39.32,46,34.5,38a22.86,22.86,0,0,1,1.06,7c0,5.75-1.79,10.83-4.76,13.4a9.49,9.49,0,0,1-5.34,2.18c-.4,0-.53-.2-.53-.79,0-1.72-.06-1.79-1.45-2.51L18,54.83l.07-1,5.21.53c1.39.13,2.31.19,2.44.19a5.07,5.07,0,0,0,4.36-3.16,24.79,24.79,0,0,0,1.58-8.85A11.1,11.1,0,0,0,31.4,40a23.58,23.58,0,0,0-1.06-4.55,8.62,8.62,0,0,0-1.58-3.23A85.4,85.4,0,0,1,11.93,43.87C7.51,46.12,4.08,47.5,3,47.5c-.39,0-.66-.2-.66-.53s0-.33,3-1.91A79.19,79.19,0,0,0,26.52,28.43l-1.85-1.85a105.35,105.35,0,0,1-17,9.11A33.14,33.14,0,0,1,1,37.93c-.46,0-.72-.2-.72-.53s.13-.52,2.83-1.64c6.14-2.64,16.24-9.38,21.91-14.52H15.69c-2.18,0-3.89.06-7.72.19l-1.12-2c2.11.06,4,.13,4.62.13,2.11.07,3.56.13,4.22.13H38.92l3.9-4.29m0-.25a.27.27,0,0,0-.19.08L38.81,19.4H15.69c-.4,0-1.09,0-2-.06l-2.16-.07c-.48,0-1.8,0-3.34-.09l-1.28,0h0a.22.22,0,0,0-.21.12.25.25,0,0,0,0,.25l1.12,2a.26.26,0,0,0,.22.13H8l.83,0c3.24-.12,4.87-.17,6.88-.17h8.72C18.57,26.65,9,33,3.05,35.53c-2.76,1.14-3,1.24-3,1.87,0,.38.25.78,1,.78a32.6,32.6,0,0,0,6.7-2.26,104.77,104.77,0,0,0,16.89-9l1.54,1.54A78.75,78.75,0,0,1,5.28,44.84C2.11,46.49,2.11,46.49,2.11,47a.81.81,0,0,0,.91.78c1.12,0,4.58-1.4,9-3.65A85.4,85.4,0,0,0,28.72,32.63a8.48,8.48,0,0,1,1.39,2.94,24.32,24.32,0,0,1,1,4.52,10.57,10.57,0,0,1,.26,2.46,24.35,24.35,0,0,1-1.56,8.74,4.83,4.83,0,0,1-4.13,3c-.12,0-1-.06-2.42-.19l-5.21-.53h0a.23.23,0,0,0-.16.06.22.22,0,0,0-.09.17l-.07,1a.26.26,0,0,0,.15.25l5.48,2.44c1.3.68,1.3.68,1.3,2.28,0,.51.09,1,.78,1A9.79,9.79,0,0,0,31,58.58C34,56,35.81,50.88,35.81,45a20.53,20.53,0,0,0-.66-5.48C40,47,46.66,53.3,53.59,56.83a.27.27,0,0,0,.12,0,.28.28,0,0,0,.17-.07l.69-.71c.43-.44.83-.86,1.35-1.33A11.46,11.46,0,0,1,60,52.35a.27.27,0,0,0,.15-.24.26.26,0,0,0-.18-.23c-9.51-3-18.15-8.3-23.11-14.3l-1.14-1.14L35.21,36c-.43-.4-.75-.7-1.57-1.42a37.52,37.52,0,0,0-6.86-9c3.25-2.08,4-2.68,5.82-4H47.77a1,1,0,0,0,1-1,1.31,1.31,0,0,0-.7-1.12L43,15.17a.22.22,0,0,0-.15-.06Z"/><path class="cls-1" d="M233.25,57.92c-2.11,0-2.57-.05-2.57-.65s.27-.52.7-.59a66.77,66.77,0,0,0,11.73-2.37c9.4-2.89,14.17-7.4,14.17-13.41,0-4.33-3.23-7.86-7.2-7.86a15.09,15.09,0,0,0-11.39,5.43,10.25,10.25,0,0,0-2.28,5.36c-.27,1.18-.87,1.42-1.31,1.42a5.55,5.55,0,0,1-2.39-1.15,6.17,6.17,0,0,1-2.49-4.78c0-.81,0-.81.8-3.79l.85-4c.68-2.94,1.3-5.83,1.81-8.27a.13.13,0,0,1,.1-.1l2.75-.47a.12.12,0,0,1,.09,0,.12.12,0,0,1,0,.11,103,103,0,0,0-1.83,12.88c0,1.11.44,1.86.86,1.86.22,0,.52-.17,1-.56,5.21-4.54,9.76-6.57,14.74-6.57,6.82,0,11.41,4.24,11.41,10.55,0,6.91-4.87,12-14.08,14.71A56.81,56.81,0,0,1,233.25,57.92Z"/><path d="M236.53,22.85a104.38,104.38,0,0,0-1.83,12.9c0,1.13.46,2,1,2a2,2,0,0,0,1.06-.6c5.14-4.49,9.7-6.53,14.65-6.53,6.73,0,11.28,4.22,11.28,10.42,0,6.93-4.82,11.88-14,14.59a56.91,56.91,0,0,1-15.44,2.18c-2.11,0-2.44-.07-2.44-.53s.13-.4.59-.46a68.47,68.47,0,0,0,11.75-2.38c9.43-2.9,14.25-7.46,14.25-13.53,0-4.42-3.3-8-7.32-8a15.32,15.32,0,0,0-11.49,5.47,10.53,10.53,0,0,0-2.31,5.42c-.19.85-.59,1.32-1.18,1.32A5.47,5.47,0,0,1,232.79,44a6,6,0,0,1-2.45-4.68c0-.79,0-.79.8-3.76l.85-4c.65-2.78,1.23-5.5,1.82-8.28l2.72-.47m0-.25h0l-2.73.48a.23.23,0,0,0-.2.19c-.51,2.45-1.13,5.34-1.81,8.27l-.86,4c-.8,3-.8,3-.8,3.82a6.32,6.32,0,0,0,2.55,4.89,5.72,5.72,0,0,0,2.46,1.17c.49,0,1.14-.27,1.43-1.52a10.14,10.14,0,0,1,2.26-5.31,15.16,15.16,0,0,1,11.29-5.38c3.9,0,7.07,3.47,7.07,7.73,0,6-4.73,10.42-14.08,13.29a68.63,68.63,0,0,1-11.68,2.37c-.48.06-.83.16-.83.71,0,.78.73.78,2.69.78a57,57,0,0,0,15.51-2.19C258,53.13,262.93,48,262.93,41c0-6.38-4.63-10.67-11.53-10.67-5,0-9.59,2-14.82,6.59-.42.36-.71.54-.89.54s-.74-.66-.74-1.74a104.43,104.43,0,0,1,1.83-12.85.22.22,0,0,0-.07-.22.23.23,0,0,0-.18-.08Z"/><path class="cls-1" d="M300.58,59.09c-6.24,0-11.32-3.05-11.32-6.78,0-3.36,4.56-5.89,10.62-5.89a48.39,48.39,0,0,1,6.83.74,10.25,10.25,0,0,0-.17-1.09c0-.23-.17-1.17-.32-2.06a111.49,111.49,0,0,1-1.16-16.15c-.13-8.11-.14-8.2-2-9.37a6.12,6.12,0,0,0-2.68-.62.46.46,0,0,1-.51-.51c0-.76,3.18-2.1,4.6-2.1,2.11,0,5.5,2.32,5.5,3.77a4.91,4.91,0,0,1-.32,1.44,23.07,23.07,0,0,0-1,6.81c0,.32.06,3.2.06,3.2a98.79,98.79,0,0,0,1.15,13.81l.06.37c.16,1,.27,1.7.33,1.92a6.44,6.44,0,0,0,.17,1.15c7.82,2.59,12.12,5.44,12.12,8a2.43,2.43,0,0,1-2.37,2.49c-.69,0-1.17-.28-1.89-1.13-2.9-3.33-4.79-4.83-7.66-6C310.28,56.32,306.82,59.09,300.58,59.09Zm-1.34-10.31c-3.85,0-6.54,1.29-6.54,3.14,0,2.23,3.45,4,7.69,4,4.41,0,6.46-1.86,6.46-5.83v-.22A31.28,31.28,0,0,0,299.24,48.78Z"/><path d="M304.48,15.38c2,0,5.38,2.3,5.38,3.65a5,5,0,0,1-.32,1.41,23.24,23.24,0,0,0-1,6.84c0,.32.07,3.2.07,3.2a99.1,99.1,0,0,0,1.15,13.83c.19,1.21.32,2,.38,2.3a7.35,7.35,0,0,0,.2,1.22c7.74,2.56,12.09,5.37,12.09,7.93a2.3,2.3,0,0,1-2.24,2.37c-.64,0-1.09-.26-1.79-1.09-3-3.45-4.93-4.93-7.87-6.14-.26,5.25-3.71,8.06-9.92,8.06s-11.2-3-11.2-6.65c0-3.27,4.48-5.76,10.5-5.76a50.8,50.8,0,0,1,7,.76,9.82,9.82,0,0,0-.19-1.28c0-.19-.13-1-.32-2a113.31,113.31,0,0,1-1.15-16.13c-.13-8.13-.13-8.26-2.05-9.47a6.16,6.16,0,0,0-2.75-.64.34.34,0,0,1-.39-.39c0-.64,3.07-2,4.48-2m-4.09,40.7c4.48,0,6.59-1.92,6.59-5.95v-.32a31.8,31.8,0,0,0-7.74-1.15c-3.91,0-6.66,1.34-6.66,3.26,0,2.31,3.46,4.16,7.81,4.16m4.09-40.95c-1.37,0-4.73,1.35-4.73,2.23a.59.59,0,0,0,.64.64,6,6,0,0,1,2.63.61c1.79,1.13,1.79,1.13,1.92,9.23A113.83,113.83,0,0,0,306.09,44c.1.53.32,1.78.32,2a.19.19,0,0,0,0,.08,6.92,6.92,0,0,1,.14.9,48.07,48.07,0,0,0-6.68-.71c-6.13,0-10.75,2.58-10.75,6,0,3.8,5.14,6.9,11.45,6.9,6.15,0,9.74-2.82,10.15-8,2.76,1.2,4.61,2.69,7.45,6,.73.86,1.25,1.17,2,1.17a2.56,2.56,0,0,0,2.49-2.62c0-3.37-6.56-6.27-12.13-8.13a6.09,6.09,0,0,1-.16-1v-.06c-.06-.22-.17-.93-.32-1.91l-.06-.37a96.89,96.89,0,0,1-1.15-13.79s-.07-2.88-.07-3.2a22.8,22.8,0,0,1,1-6.77,4.94,4.94,0,0,0,.33-1.48c0-1.5-3.47-3.9-5.63-3.9Zm-4.09,40.7c-4.17,0-7.56-1.75-7.56-3.91,0-1.74,2.69-3,6.41-3a31,31,0,0,1,7.49,1.1v.12c0,3.89-2,5.7-6.34,5.7Z"/><path class="cls-1" d="M431.39,30.92a.14.14,0,0,1-.11-.07c-.85-1.84-1.15-3.63-1.15-6.84,0-1.91.21-6.68.4-10.3l.06-2.05c0-3.65-1.36-4.82-5.6-4.82h-.34c-.52,0-.85,0-.85-.45,0-1,3.41-2,6.06-2A11.39,11.39,0,0,1,435.41,6,3.36,3.36,0,0,1,437,9a14.18,14.18,0,0,1-.79,3.92A61.68,61.68,0,0,0,434,27.57a9,9,0,0,0,.25,2.23.14.14,0,0,1-.08.15,22.73,22.73,0,0,1-2.69,1Z"/><path d="M429.86,4.54a11.3,11.3,0,0,1,5.48,1.58A3.26,3.26,0,0,1,436.86,9a13.9,13.9,0,0,1-.79,3.89,62,62,0,0,0-2.25,14.65,9.52,9.52,0,0,0,.25,2.26,21,21,0,0,1-2.68,1A15,15,0,0,1,430.26,24c0-1.85.2-6.54.39-10.3l.07-2c0-3.67-1.38-4.95-5.73-4.95h-.34c-.6,0-.73-.07-.73-.33,0-.86,3.24-1.85,5.94-1.85m0-.25c-2.43,0-6.19.9-6.19,2.1,0,.58.54.58,1,.58H425c2.18,0,3.51.32,4.33,1s1.15,1.83,1.15,3.67l-.07,2c-.19,3.63-.39,8.4-.39,10.31,0,3.23.3,5,1.16,6.89a.24.24,0,0,0,.22.14h.07a21.41,21.41,0,0,0,2.71-1,.25.25,0,0,0,.15-.29,8.76,8.76,0,0,1-.25-2.2A61.85,61.85,0,0,1,436.3,13a14,14,0,0,0,.81-4,3.49,3.49,0,0,0-1.63-3.11,11.57,11.57,0,0,0-5.62-1.63Z"/><path class="cls-1" d="M642.63,60.36c-.75,0-1-.26-1-.91V24.8a.14.14,0,0,1,.06-.11l.06,0,.06,0,5.41,2.84,24.17,0a.12.12,0,0,1,.12.13v1.58a.12.12,0,0,1-.12.13H646.12v7h25.22a.12.12,0,0,1,.12.12v1.58a.12.12,0,0,1-.12.13H646.12v7h25.22a.12.12,0,0,1,.12.12v1.59a.12.12,0,0,1-.12.12H646.12v7.61h25.22a.12.12,0,0,1,.12.12v1.59a.12.12,0,0,1-.12.12H646.12v1.86C646.12,59.53,644.68,60.36,642.63,60.36Z"/><path d="M641.7,24.8l5.41,2.84h24.23v1.58H646v7.26h25.35v1.58H646v7.26h25.35v1.59H646v7.85h25.35v1.59H646v2c0,1.12-1.38,1.91-3.36,1.91-.66,0-.93-.2-.93-.79V24.8m0-.25a.22.22,0,0,0-.13,0,.24.24,0,0,0-.12.21V59.45c0,.92.63,1,1.18,1,2.13,0,3.61-.89,3.61-2.16V56.6h25.1a.25.25,0,0,0,.25-.25V54.76a.25.25,0,0,0-.25-.25h-25.1V47.16h25.1a.25.25,0,0,0,.25-.25V45.32a.25.25,0,0,0-.25-.25h-25.1V38.31h25.1a.25.25,0,0,0,.25-.25V36.48a.25.25,0,0,0-.25-.25h-25.1V29.47h25.1a.25.25,0,0,0,.25-.25V27.64a.25.25,0,0,0-.25-.25H647.18l-5.36-2.81-.12,0Z"/><path class="cls-1" d="M681.83,26a1,1,0,0,1-1.05-1.05v-3H642.62a.12.12,0,0,1-.12-.13V20.18a.12.12,0,0,1,.12-.12h38.16V14.43H642.62a.12.12,0,0,1-.12-.12V12.72a.12.12,0,0,1,.12-.12h38.16V7H642.62a.12.12,0,0,1-.12-.12V5.33a.12.12,0,0,1,.12-.12h37.82l2-3.11a.15.15,0,0,1,.09-.06h0a.16.16,0,0,1,.09,0l4.42,3.83a1.93,1.93,0,0,1,.77,1.41c0,.73-.25,1-1,1.24l-1.36.37v15c0,.85-.5,1.35-1.67,1.7A6.78,6.78,0,0,1,681.83,26Z"/><path d="M682.55,2.16,687,6a1.81,1.81,0,0,1,.72,1.32c0,.66-.2.93-.92,1.12l-1.45.4V23.88c0,.79-.47,1.25-1.59,1.58a6.69,6.69,0,0,1-1.91.4.87.87,0,0,1-.93-.93V21.76H642.62V20.18H680.9V14.31H642.62V12.72H680.9V6.92H642.62V5.33h37.89l2-3.17m0-.25h0a.27.27,0,0,0-.18.11l-2,3.05H642.62a.25.25,0,0,0-.25.25V6.92a.26.26,0,0,0,.25.25h38v5.3h-38a.25.25,0,0,0-.25.25v1.59a.26.26,0,0,0,.25.25h38v5.37h-38a.25.25,0,0,0-.25.25v1.58a.25.25,0,0,0,.25.25h38v2.92a1.12,1.12,0,0,0,1.18,1.18,7,7,0,0,0,2-.41c1.23-.36,1.76-.91,1.76-1.82V9l1.26-.35c.82-.22,1.11-.58,1.11-1.36a2.07,2.07,0,0,0-.81-1.51L682.72,2a.28.28,0,0,0-.17-.07Z"/><path class="cls-2" d="M459.16,18.92c-.71,0-1.14-.35-1.69-1.39a11.15,11.15,0,0,0-6.59-5.28c-.19-.05-.49-.12-.49-.45,0-.51,1.53-.59,2.44-.59,4.31,0,8.7,2.63,8.7,5.21A2.57,2.57,0,0,1,459.16,18.92Z"/><path class="cls-2" d="M452.83,11.34c4.29,0,8.58,2.57,8.58,5.08a2.43,2.43,0,0,1-2.25,2.37c-.66,0-1.05-.33-1.58-1.32a11.33,11.33,0,0,0-6.67-5.34c-.26-.07-.39-.13-.39-.33s.86-.46,2.31-.46m0-.25c-2.56,0-2.56.53-2.56.71,0,.43.38.52.58.57a11,11,0,0,1,6.5,5.21c.5.93.95,1.46,1.81,1.46a2.69,2.69,0,0,0,2.5-2.62c0-2.69-4.38-5.33-8.83-5.33Z"/><path class="cls-2" d="M578.49,54a14.18,14.18,0,0,1-7-2.93c-4.74-3.68-7.57-11.32-7.57-20.42,0-2.69.24-6.89.59-10.44l0-.62c.05-.7.09-1.28.09-1.75,0-2.86-1.9-5.68-3.83-5.68h-.2a.42.42,0,0,1-.65-.32c0-.54,1.32-.92,2.5-.92,3.83,0,7.32,3,7.32,6.2a23.9,23.9,0,0,1-.86,5.37,41.66,41.66,0,0,0-1.19,10.47c0,5,1,8.73,3,11.47,1.11,1.5,2.6,2.59,3.53,2.59.76,0,.94-.12,2.92-4.55,3.49-7.51,4.33-8.78,4.87-8.78a.7.7,0,0,1,.59.65,2.43,2.43,0,0,1-.28,1.05c-1.41,3.22-3,9.37-3,11.76a7.23,7.23,0,0,0,1.17,4.08l.13.22c.28.47.35.58.35.91,0,.85-1.18,1.65-2.42,1.65Z"/><path class="cls-2" d="M562.46,11c3.76,0,7.19,2.9,7.19,6.07a23.69,23.69,0,0,1-.86,5.34,42.23,42.23,0,0,0-1.18,10.5c0,5,1,8.77,3,11.55,1.12,1.51,2.64,2.64,3.63,2.64s1.06-.2,3-4.62c3-6.54,4.22-8.71,4.75-8.71a.56.56,0,0,1,.46.52,2.27,2.27,0,0,1-.26,1c-1.39,3.17-3,9.37-3,11.82a7.4,7.4,0,0,0,1.18,4.15c.4.66.47.73.47,1.06,0,.76-1.1,1.52-2.3,1.52h-.15a14.09,14.09,0,0,1-6.92-2.91C566.81,47.24,564,39.65,564,30.61c0-2.84.27-7.13.6-10.43.06-1,.13-1.78.13-2.38,0-3-2-5.8-4-5.8h-.2a.54.54,0,0,1-.26.06.28.28,0,0,1-.27-.26c0-.4,1.12-.79,2.38-.79m0-.25c-1.26,0-2.63.4-2.63,1a.53.53,0,0,0,.52.51.73.73,0,0,0,.32-.06h.14c1.87,0,3.71,2.75,3.71,5.55,0,.46,0,1.05-.09,1.74l0,.62c-.36,3.55-.6,7.75-.6,10.45,0,9.14,2.85,16.81,7.62,20.52a14.45,14.45,0,0,0,7.08,3h.15c1.33,0,2.55-.84,2.55-1.77,0-.36-.08-.49-.37-1l-.13-.21a7.12,7.12,0,0,1-1.15-4c0-2.37,1.54-8.5,2.94-11.72a2.4,2.4,0,0,0,.29-1.09.81.81,0,0,0-.71-.77c-.59,0-1.27.87-5,8.85-2,4.35-2.12,4.48-2.81,4.48-.88,0-2.36-1.09-3.43-2.54-2-2.73-3-6.46-3-11.4A41.41,41.41,0,0,1,569,22.48a23.56,23.56,0,0,0,.86-5.4c0-3.31-3.55-6.32-7.44-6.32Z"/><path class="cls-2" d="M111.09,16.15a.11.11,0,0,1-.1-.06.11.11,0,0,1,0-.12l.81-1.59a.14.14,0,0,1,.11-.07h13.22l3.87-4a.1.1,0,0,1,.09,0l.07,0,5.08,3.7a1.54,1.54,0,0,1,.38,1.15c0,.58-.26,1-.65,1Z"/><path class="cls-2" d="M129.08,10.41l5.08,3.7a1.41,1.41,0,0,1,.33,1.05c0,.47-.2.86-.53.86H111.09l.81-1.58h13.22l4-4m0-.25a.25.25,0,0,0-.18.08L125,14.19H111.9a.24.24,0,0,0-.22.14l-.81,1.58a.23.23,0,0,0,0,.24.25.25,0,0,0,.21.12H134c.46,0,.78-.45.78-1.11a1.64,1.64,0,0,0-.44-1.26l-5.08-3.69a.24.24,0,0,0-.14-.05Z"/><path class="cls-2" d="M315.68,31.25a36.6,36.6,0,0,1-4.89-.24.13.13,0,0,1-.11-.12l-.18-2.31a.14.14,0,0,1,.12-.14,21.55,21.55,0,0,0,7.57-2.23h.11c3,1.58,3.78,2.31,3.78,3.38C322.08,30.84,320.52,31.25,315.68,31.25Z"/><path class="cls-2" d="M318.24,26.32c2.88,1.54,3.71,2.24,3.71,3.27s-1.6,1.53-6.27,1.53a36.49,36.49,0,0,1-4.88-.24l-.17-2.31a21.6,21.6,0,0,0,7.61-2.25m0-.25a.2.2,0,0,0-.11,0,21.21,21.21,0,0,1-7.53,2.22.24.24,0,0,0-.22.26l.17,2.32a.26.26,0,0,0,.22.23,36.93,36.93,0,0,0,4.91.24c4.33,0,6.52-.27,6.52-1.78,0-1.24-1.13-2-3.84-3.49l-.12,0Z"/><path class="cls-2" d="M675.16,59.57a.92.92,0,0,1-1-1V27.15l1.61-2.42a.1.1,0,0,1,.08-.05h0a.12.12,0,0,1,.08,0l4.42,4a2,2,0,0,1,.7,1.28c0,.46-.38.83-1.07,1l-1,.37v26.3C679,58.67,676.85,59.57,675.16,59.57Z"/><path class="cls-2" d="M675.89,24.8l4.42,4A2,2,0,0,1,681,30c0,.39-.33.72-1,.92l-1.12.4v26.4c0,.85-2,1.78-3.7,1.78a.8.8,0,0,1-.86-.86V27.15l1.59-2.35m0-.25h0a.27.27,0,0,0-.18.11L674.1,27a.24.24,0,0,0-.05.14V58.59a1.06,1.06,0,0,0,1.11,1.11c1.74,0,4-1,4-2V31.44l.95-.33c1-.3,1.16-.86,1.16-1.16a2.16,2.16,0,0,0-.73-1.37l-4.43-4a.27.27,0,0,0-.17-.06Z"/><path class="cls-2" d="M39.31,36.09a.12.12,0,0,1-.1-.05l-1.28-1.61a.11.11,0,0,1,0-.16c2.4-2.4,5.11-5.4,9.07-10a.16.16,0,0,1,.09-.05h0a.12.12,0,0,1,.08,0l4.09,4a1.55,1.55,0,0,1,.64,1.14c0,.71-.61,1.18-1.51,1.18H48.56l-9.19,5.54A.07.07,0,0,1,39.31,36.09Z"/><path class="cls-2" d="M47.11,24.34l4.09,4a1.47,1.47,0,0,1,.59,1.05c0,.66-.59,1.06-1.38,1.06H48.56L39.31,36,38,34.35c2.57-2.57,5.4-5.72,9.08-10m0-.25h0a.2.2,0,0,0-.17.09c-4,4.61-6.67,7.6-9.07,10a.25.25,0,0,0,0,.33l1.28,1.61a.26.26,0,0,0,.2.1.33.33,0,0,0,.13,0l9.19-5.52h1.78c1,0,1.63-.54,1.63-1.31a1.69,1.69,0,0,0-.68-1.24l-4.08-3.95a.23.23,0,0,0-.17-.07Z"/><path class="cls-2" d="M710.67,60c-.57,0-.91-.29-.91-.78V2.43a.11.11,0,0,1,.06-.11l.06,0,.06,0,4,2.3a.15.15,0,0,1,.07.11V58C714,59.06,712.4,60,710.67,60Z"/><path class="cls-2" d="M709.88,2.43l4,2.3V58c0,1-1.52,1.91-3.17,1.91-.52,0-.79-.26-.79-.66V2.43m0-.25a.27.27,0,0,0-.12,0,.26.26,0,0,0-.13.22V59.25a.91.91,0,0,0,1,.91c1.79,0,3.42-1,3.42-2.16V4.73a.24.24,0,0,0-.12-.21l-4-2.31a.28.28,0,0,0-.13,0Z"/><path class="cls-1" d="M720.84,46.83c-.64,0-.85-.29-.85-1.18,0-1.61,0-1.68-1-2.13l-3.83-1.78a.12.12,0,0,1-.06-.16l.26-.66a.12.12,0,0,1,.11-.08l2.66.27a12.1,12.1,0,0,0,1.37.06c2.64,0,3.77-1.93,3.77-6.47,0-4.21-2.15-9-6-13.38a.13.13,0,0,1,0-.13l6.13-14.55h-7a.12.12,0,0,1-.12-.12V5a.12.12,0,0,1,.12-.12h7l1.62-2.39a.15.15,0,0,1,.09-.06h0a.12.12,0,0,1,.08,0l4.16,4A2.56,2.56,0,0,1,730,8.1c0,.59-.49,1-1.29,1.18l-1.25.27-8,11.21c5.71,5.8,8.14,10.6,8.14,16.05C727.56,42.62,724.73,46.83,720.84,46.83Z"/><path d="M724.93,2.56l4.16,4a2.45,2.45,0,0,1,.79,1.58c0,.53-.46.93-1.19,1.06l-1.25.26-8.19,11.35c5.74,5.81,8.19,10.63,8.19,16,0,5.74-2.78,9.9-6.6,9.9-.53,0-.73-.2-.73-1.06,0-1.65-.07-1.78-1.12-2.24l-3.83-1.78.26-.66,2.65.26a10.45,10.45,0,0,0,1.38.07c2.71,0,3.89-2,3.89-6.6,0-4.22-2.17-9-6.07-13.46l6.21-14.72h-7.22V5h7l1.65-2.44m0-.25h0a.27.27,0,0,0-.18.11l-1.57,2.33h-6.89A.25.25,0,0,0,716,5V6.52a.25.25,0,0,0,.25.25h6.84L717,21.14a.25.25,0,0,0,.05.26c3.87,4.4,6,9.12,6,13.3,0,4.45-1.08,6.35-3.64,6.35A10,10,0,0,1,718.1,41l-2.65-.26h0a.25.25,0,0,0-.23.16l-.26.66a.25.25,0,0,0,.13.32l3.82,1.78c.94.41,1,.42,1,2,0,.81.16,1.31,1,1.31,4,0,6.85-4.27,6.85-10.15,0-5.46-2.43-10.27-8.11-16.06l8-11.1,1.16-.25c.85-.15,1.39-.65,1.39-1.3a2.68,2.68,0,0,0-.87-1.76l-4.16-4a.23.23,0,0,0-.17-.07Z"/><path class="cls-1" d="M734.7,22.29a.13.13,0,0,1-.13-.13V20.58a.13.13,0,0,1,.13-.13h13.47l3-3.52a.12.12,0,0,1,.08,0h0a.11.11,0,0,1,.08,0l3.9,3.36a1.67,1.67,0,0,1,.43,1,1,1,0,0,1-.85,1Z"/><path d="M751.26,17l3.89,3.37a1.47,1.47,0,0,1,.4.92.87.87,0,0,1-.73.86H734.7V20.58h13.52l3-3.57m0-.25h0a.26.26,0,0,0-.17.09l-3,3.48H734.7a.25.25,0,0,0-.25.25v1.58a.25.25,0,0,0,.25.25h20.12a1.1,1.1,0,0,0,1-1.11,1.74,1.74,0,0,0-.47-1.1l-3.91-3.38a.23.23,0,0,0-.16-.06Z"/><path class="cls-1" d="M726.78,26.38a.6.6,0,0,1-.66-.59c0-.45.14-.58,1.43-1.87,5.07-5.28,6.36-6.86,8.62-10.54A54.46,54.46,0,0,0,742.43.22a.1.1,0,0,1,.06-.08l.06,0h0l5.35,2.05c.63.28.94.64.94,1.11a.93.93,0,0,1-.53.77l-.93.46s-.62.13-1.27,1.14c-6,9.44-9.62,13.73-15.6,18.38C728.38,25.72,727.32,26.38,726.78,26.38Z"/><path d="M742.55.25l5.34,2.05c.6.26.86.59.86,1a.82.82,0,0,1-.46.66l-.92.46s-.64.11-1.32,1.19c-5.94,9.37-9.64,13.72-15.58,18.34-2,1.59-3.17,2.31-3.69,2.31a.47.47,0,0,1-.53-.46c0-.4.13-.53,1.38-1.78,5-5.15,6.34-6.8,8.65-10.56,3.23-5.28,5.35-9.77,6.27-13.2m0-.25a.2.2,0,0,0-.11,0,.23.23,0,0,0-.13.16,55.1,55.1,0,0,1-6.24,13.13c-2.26,3.67-3.54,5.24-8.62,10.51-1.29,1.29-1.45,1.46-1.45,2a.72.72,0,0,0,.78.71c.58,0,1.62-.64,3.84-2.36,6-4.66,9.65-9,15.64-18.41.6-1,1.15-1.08,1.15-1.08l.07,0,.92-.46a1,1,0,0,0,.6-.88c0-.52-.34-.93-1-1.22l-5.36-2-.09,0Z"/><path class="cls-1" d="M762.94,26l-.07,0c-7.63-5.62-12.28-11-16-18.44a.15.15,0,0,1,0-.13,12.15,12.15,0,0,1,1.3-1.52.11.11,0,0,1,.09,0h0a.18.18,0,0,1,.09.06c4,6.78,10.74,12.09,20,15.76a.12.12,0,0,1,0,.22c-.43.26-.82.53-1.14.74a6.55,6.55,0,0,1-.72.45A12.84,12.84,0,0,0,763,25.94.11.11,0,0,1,762.94,26Z"/><path d="M748.24,6c4,6.74,10.78,12.13,20,15.81-.86.53-1.59,1.06-1.85,1.19a12.76,12.76,0,0,0-3.5,2.91c-7.62-5.61-12.25-10.95-16-18.4A12,12,0,0,1,748.24,6m0-.25a.25.25,0,0,0-.18.08,11.08,11.08,0,0,0-1.31,1.54.27.27,0,0,0,0,.26c3.76,7.49,8.41,12.85,16.06,18.48a.3.3,0,0,0,.15.05.25.25,0,0,0,.18-.08,12.8,12.8,0,0,1,3.45-2.87,7.13,7.13,0,0,0,.71-.45c.32-.21.71-.47,1.14-.73a.27.27,0,0,0,.12-.24.26.26,0,0,0-.16-.21c-9.22-3.66-15.92-8.94-19.93-15.7a.22.22,0,0,0-.18-.12Z"/><path class="cls-1" d="M757.27,43.8c-.59,0-1.12-.37-1.12-.79V41.16h-7.73a.18.18,0,0,1-.1,0,.14.14,0,0,1,0-.09l.08-1.59a.13.13,0,0,1,.13-.11h7.65V30.27h-7.74a.12.12,0,0,1-.12-.12V28.56a.12.12,0,0,1,.12-.12h7.27l1.81-2.59a.12.12,0,0,1,.09-.05h0a.11.11,0,0,1,.08,0l3.83,3.56a1.36,1.36,0,0,1,.57.95.89.89,0,0,1-.61.71l-1.24.56V42.22C760.23,43,758.79,43.8,757.27,43.8Z"/><path d="M757.6,25.92l3.82,3.57a1.23,1.23,0,0,1,.53.85.77.77,0,0,1-.53.6l-1.32.59V42.22c0,.73-1.38,1.45-2.83,1.45-.53,0-1-.33-1-.66V41h-7.86l.08-1.58h7.78v-9.3h-7.87V28.56h7.34l1.85-2.64m0-.25h0a.27.27,0,0,0-.18.11l-1.77,2.53h-7.21a.25.25,0,0,0-.25.25v1.59a.25.25,0,0,0,.25.25H756v8.8H748.5a.26.26,0,0,0-.25.24L748.17,41a.26.26,0,0,0,.06.19.26.26,0,0,0,.19.07H756V43c0,.49.57.91,1.24.91,1.45,0,3.08-.72,3.08-1.7V31.69l1.18-.52a1,1,0,0,0,.67-.83,1.46,1.46,0,0,0-.62-1.05l-3.81-3.55a.28.28,0,0,0-.17-.07Z"/><path class="cls-1" d="M727,60.17a.74.74,0,0,1-.78-.72c0-.47.51-.9,1.47-1.24,9.61-4.19,13.8-9,14.88-17.05h-7.32v2.45c0,.92-1.36,1.71-3,1.71-.6,0-1-.25-1-.59V26.12a.14.14,0,0,1,.06-.11h.12l4.55,2.44h7.34c0-1.84,0-2.78,0-4a.12.12,0,0,1,.12-.13h3.75a.12.12,0,0,1,.13.12v.85l.06,3.23c0,.37-.11,9-.39,10.91s-.36,2.32-.47,2.78c-1.58,7.18-4.2,10.9-10,14.2C734.17,57.67,728,60.17,727,60.17Zm15.86-20.84a69.58,69.58,0,0,0,.45-9.06h-8.06v9.06Z"/><path d="M747.1,24.48v.85l.07,3.23s-.11,8.92-.4,10.89-.36,2.31-.46,2.77c-1.58,7.2-4.16,10.83-10,14.13C734,57.6,727.9,60,727,60a.61.61,0,0,1-.66-.59c0-.4.47-.79,1.39-1.12,9.7-4.23,13.93-9.11,15-17.3h-7.59v2.58c0,.86-1.32,1.58-2.84,1.58-.52,0-.92-.2-.92-.46V26.12l4.55,2.44h7.53c0-2,0-2.9-.06-4.08h3.75m-12,15h7.85a69.58,69.58,0,0,0,.47-9.3h-8.32v9.3m12-15.22h-3.75a.27.27,0,0,0-.18.08.31.31,0,0,0-.07.18c0,1.11.06,2,.06,3.82H736l-4.5-2.41-.12,0a.22.22,0,0,0-.13,0,.24.24,0,0,0-.12.21V44.73c0,.42.48.71,1.17.71,1.71,0,3.09-.82,3.09-1.83V41.28h7c-1.1,7.94-5.27,12.67-14.79,16.82-1,.36-1.54.81-1.54,1.35a.86.86,0,0,0,.91.84c1,0,7.25-2.51,9.49-3.72,5.87-3.33,8.5-7.07,10.09-14.29.11-.46.18-.79.47-2.79s.39-10.56.4-10.93l-.07-3.24v-.84a.25.25,0,0,0-.25-.25ZM735.34,30.4h7.82a69.6,69.6,0,0,1-.44,8.8h-7.38V30.4Z"/><path class="cls-1" d="M234.92,15.75a.09.09,0,0,1-.08,0,.1.1,0,0,1,0-.1,46.23,46.23,0,0,0,.3-5.07c0-2.84-1.12-4.23-3.44-4.23-.66-.06-.85-.08-.85-.52,0-.88,2.87-2.43,4.15-2.43,2.71,0,4.75,1.64,4.75,3.82,0,.29-.22,1.81-.6,4.05l-.2.8-.39,1.65L238.21,15a.13.13,0,0,1-.1.1Z"/><path d="M235,3.48c2.64,0,4.62,1.59,4.62,3.7,0,.26-.19,1.65-.59,4l-.2.79-.39,1.65L238.09,15l-3.17.6a45.48,45.48,0,0,0,.31-5.08q0-4.35-3.57-4.35c-.66-.07-.72-.07-.72-.4,0-.72,2.7-2.31,4-2.31m0-.25c-1.36,0-4.27,1.61-4.27,2.56,0,.55.28.58.91.64h.06c2.23,0,3.32,1.34,3.32,4.1a46.28,46.28,0,0,1-.31,5.06.26.26,0,0,0,.08.21.27.27,0,0,0,.17.06H235l3.17-.61a.25.25,0,0,0,.19-.19l.31-1.37.4-1.64.19-.79c.39-2.3.6-3.79.6-4.09,0-2.25-2.09-3.95-4.87-3.95Z"/><path class="cls-1" d="M802,49.24c-1.09,0-1.21-.5-1.21-.72a1.52,1.52,0,0,1,.07-.52c.23-2,.23-8.12.23-8.18-.06-4.36-.26-6.26-.77-7.51a3,3,0,0,0-2.7-2,6.93,6.93,0,0,0-4.18,2.19,36.29,36.29,0,0,0-5.14,6.39c-.67,1.16-1.37,1.74-2.08,1.74-1,0-2.23-2.05-2.23-3.66,0-.86.31-1.31,1.49-2.2C791.86,29.22,795.83,23.43,797,18a18.33,18.33,0,0,1-5,1,3.85,3.85,0,0,1-3.23-2.22,7.43,7.43,0,0,1-.92-2.34.39.39,0,0,1,.37-.37.55.55,0,0,1,.4.3c.69,1,1.75,1.5,3.44,1.5a15.74,15.74,0,0,0,5.34-.93v-.05a8.64,8.64,0,0,0,.16-1.53c0-1.93-.93-3-2.7-3.12h0c-.22,0-.42,0-.42-.36,0-.65,2.17-1.63,3.31-1.63,2,0,4.08,1.89,4.08,3.67a8.3,8.3,0,0,1-.42,2.09A8.12,8.12,0,0,0,804.93,12a.16.16,0,0,1,.11,0l.05,0c2.15,1.07,2.71,1.49,2.71,2,0,.8-1.19,1.31-7,3a67.87,67.87,0,0,1-6.61,12.41,9,9,0,0,1,3.64-.94,6.32,6.32,0,0,1,3.92,1.41c1,.93,1.53,2,2.26,4.32a22.16,22.16,0,0,1,.72,3.56l.18,2c.19,2.71.3,4.58.3,5.53C805.16,48.4,804.49,49.24,802,49.24Z"/><path d="M797.72,8.32c1.92,0,4,1.8,4,3.54a9.06,9.06,0,0,1-.48,2.28,8.73,8.73,0,0,0,3.84-2c2,1,2.64,1.44,2.64,1.92,0,.72-1.32,1.26-7,2.94a68.86,68.86,0,0,1-6.84,12.78,9.52,9.52,0,0,1,4-1.08A6.12,6.12,0,0,1,801.62,30c1,.9,1.5,1.92,2.22,4.26a22.52,22.52,0,0,1,.72,3.54l.18,2c.18,2.64.3,4.56.3,5.52,0,3-.6,3.78-3,3.78-.72,0-1.08-.24-1.08-.6A1.49,1.49,0,0,1,801,48c.24-2,.24-8.22.24-8.22-.06-4.26-.24-6.24-.78-7.56a3.13,3.13,0,0,0-2.82-2.1,7,7,0,0,0-4.26,2.22,36.15,36.15,0,0,0-5.16,6.42c-.66,1.14-1.32,1.68-2,1.68-.9,0-2.1-2-2.1-3.54,0-.78.24-1.2,1.44-2.1,6.48-5.64,10.44-11.46,11.58-17a18.34,18.34,0,0,1-5.22,1,3.73,3.73,0,0,1-3.12-2.16,7.63,7.63,0,0,1-.9-2.28.26.26,0,0,1,.24-.24c.06,0,.18.06.3.24A3.8,3.8,0,0,0,792,15.94a16.13,16.13,0,0,0,5.46-1,10,10,0,0,0,.18-1.68c0-2-1-3.12-2.82-3.24-.24,0-.3-.06-.3-.24,0-.54,2-1.5,3.18-1.5m0-.25c-1.14,0-3.43,1-3.43,1.75a.47.47,0,0,0,.55.49c1.7.11,2.57,1.12,2.57,3a9.38,9.38,0,0,1-.16,1.49,15.77,15.77,0,0,1-5.23.9c-1.66,0-2.66-.43-3.34-1.45a.66.66,0,0,0-.5-.35.5.5,0,0,0-.49.49,7.61,7.61,0,0,0,.93,2.41A4,4,0,0,0,792,19.07a17.92,17.92,0,0,0,4.88-.9c-1.23,5.36-5.17,11-11.41,16.48-1.19.9-1.52,1.39-1.52,2.29,0,1.56,1.21,3.79,2.35,3.79.77,0,1.49-.59,2.19-1.81a36.25,36.25,0,0,1,5.12-6.36,6.76,6.76,0,0,1,4.09-2.15,2.87,2.87,0,0,1,2.58,1.94c.51,1.24.7,3.13.77,7.47,0,.06,0,6.14-.24,8.16a2,2,0,0,0-.06.54c0,.2.09.85,1.33.85,2.55,0,3.25-.87,3.25-4,0-1-.12-2.83-.31-5.54l-.18-2a22.29,22.29,0,0,0-.73-3.61c-.72-2.35-1.28-3.41-2.28-4.35a6.37,6.37,0,0,0-4-1.45,8.23,8.23,0,0,0-3.31.79,67.59,67.59,0,0,0,6.37-12c6-1.76,7.09-2.27,7.09-3.15,0-.65-.7-1.1-2.78-2.14l-.11,0a.25.25,0,0,0-.21.1,7.73,7.73,0,0,1-3.26,1.81,7.85,7.85,0,0,0,.36-1.9c0-1.88-2.13-3.79-4.21-3.79Z"/><path class="cls-3" d="M193.11,52.35c-5.61,0-10.12-.82-12.37-2.24a9.38,9.38,0,0,1-4.32-8c0-2.71.52-4.33,1.39-4.33a.46.46,0,0,1,.48.43.29.29,0,0,1-.09.2c0,.23-.15,1.15-.15,1.84,0,5,3.55,7.49,10.86,7.49a33.84,33.84,0,0,0,8.37-1.14,8.16,8.16,0,0,1,2.25-.42,2.62,2.62,0,0,1,2.88,2.59C202.41,51.16,199.28,52.35,193.11,52.35Z"/><path class="cls-3" d="M177.81,38a.34.34,0,0,1,.36.3.19.19,0,0,1-.06.12,14,14,0,0,0-.18,1.92c0,5.1,3.66,7.62,11,7.62a34.47,34.47,0,0,0,8.4-1.14,7.9,7.9,0,0,1,2.22-.42,2.52,2.52,0,0,1,2.76,2.46c0,2.28-3.18,3.42-9.18,3.42-5.52,0-10-.78-12.3-2.22a9.27,9.27,0,0,1-4.26-7.86c0-2.58.48-4.2,1.26-4.2m0-.25c-1,0-1.51,1.62-1.51,4.45a9.5,9.5,0,0,0,4.37,8.07c2.28,1.43,6.81,2.26,12.44,2.26,6.25,0,9.43-1.24,9.43-3.67a2.77,2.77,0,0,0-3-2.71,8.23,8.23,0,0,0-2.29.42,34,34,0,0,1-8.33,1.14c-7.22,0-10.73-2.42-10.73-7.37a14.61,14.61,0,0,1,.16-1.82.41.41,0,0,0,.08-.22.58.58,0,0,0-.61-.55Z"/><path class="cls-3" d="M366.11,15.88a.41.41,0,0,1-.39-.38c0-.15,0-.46,4.27-3.13-3-.29-5.86-3.7-5.86-7.17,0-.61.07-2,.66-2,.27,0,.33.25.38.77.32,3.13,4,5.24,9.12,5.24.86,0,1.7-.07,2.5-.14A11,11,0,0,1,378.05,9a2.31,2.31,0,0,1,2.09,1.31,6.45,6.45,0,0,1,1,2.91c0,.91-.65,1.44-1.78,1.44a5.16,5.16,0,0,1-1.16-.2,15.45,15.45,0,0,0-3.13-.26c-3.85,0-5.43.28-8.07,1.44C366.34,15.88,366.33,15.88,366.11,15.88Z"/><path class="cls-3" d="M364.79,3.29c.13,0,.19.06.26.66.33,3.23,4,5.34,9.24,5.34.86,0,1.71-.06,2.51-.13a9.21,9.21,0,0,1,1.25-.07,2.2,2.2,0,0,1,2,1.26,6.41,6.41,0,0,1,1,2.84c0,.85-.59,1.31-1.65,1.31a4.93,4.93,0,0,1-1.12-.19,15.61,15.61,0,0,0-3.17-.27c-3.76,0-5.41.27-8.12,1.46-.66.26-.66.26-.85.26a.28.28,0,0,1-.27-.26c0-.27,1.59-1.39,4.56-3.24-3.11,0-6.14-3.5-6.14-7.06,0-1.12.2-1.91.53-1.91m0-.25c-.68,0-.78,1.35-.78,2.16,0,3.4,2.68,6.74,5.62,7.24-4,2.55-4,2.85-4,3.06a.54.54,0,0,0,.52.51c.24,0,.27,0,.95-.28,2.62-1.16,4.2-1.44,8-1.44a15.48,15.48,0,0,1,3.12.26,5.06,5.06,0,0,0,1.17.2c1.21,0,1.9-.57,1.9-1.56a6.54,6.54,0,0,0-1-3,2.44,2.44,0,0,0-2.19-1.37,9.77,9.77,0,0,0-1.28.07C376,9,375.14,9,374.29,9c-5.07,0-8.68-2.06-9-5.12-.05-.46-.1-.88-.51-.88Z"/><path class="cls-3" d="M533.41,41.16c-1.27,0-1.77-.66-1.77-2.37a15.42,15.42,0,0,0-4.28-11,11.57,11.57,0,0,0-8.2-3.56c-1.28,0-1.45,0-1.45-.45,0-.69,2.36-1.11,4.55-1.11,7.34,0,15.11,7.12,15.11,13.85C537.37,39.26,535.74,41.16,533.41,41.16Z"/><path class="cls-3" d="M522.26,22.82c7.33,0,15,7,15,13.73,0,2.64-1.58,4.48-3.83,4.48-1.18,0-1.65-.59-1.65-2.24.07-8-5.61-14.65-12.6-14.65-1.25,0-1.32,0-1.32-.33,0-.53,2.11-1,4.42-1m0-.25c-1.3,0-4.67.22-4.67,1.24,0,.58.27.58,1.57.58a11.42,11.42,0,0,1,8.11,3.52,15.27,15.27,0,0,1,4.24,10.88c0,1.77.55,2.49,1.9,2.49,2.4,0,4.08-1.94,4.08-4.73,0-6.93-7.69-14-15.23-14Z"/><path class="cls-3" d="M73.51,60.56a.68.68,0,0,1-.65-.58,1.25,1.25,0,0,1,.43-.82c9-10.73,11-17.76,11.17-39.59a.12.12,0,0,1,.12-.13H88.7a.18.18,0,0,1,.09,0,.14.14,0,0,1,0,.09c-.1,3.71-.46,10.84-.47,10.91-1.07,11.81-3.43,18.27-9,24.69C77.22,57.66,74.21,60.56,73.51,60.56Z"/><path class="cls-3" d="M88.7,19.57c-.1,3.74-.47,10.91-.47,10.91-1.06,11.61-3.37,18.14-9,24.61-2.31,2.71-5.15,5.35-5.74,5.35A.58.58,0,0,1,73,60a1.12,1.12,0,0,1,.4-.73c8.92-10.65,11-17.73,11.2-39.68H88.7m0-.25H84.58a.26.26,0,0,0-.25.25c-.19,21.79-2.17,28.81-11.14,39.52a1.36,1.36,0,0,0-.46.89.82.82,0,0,0,.78.71c.83,0,4-3.22,5.93-5.44,5.6-6.45,8-12.92,9-24.75,0-.08.37-7.22.47-10.93a.31.31,0,0,0-.07-.18.26.26,0,0,0-.18-.07Z"/><path class="cls-3" d="M439.3,58.71c-5.31,0-9.68-.64-12.65-1.85-4.2-1.8-6.61-5-6.61-8.9,0-5.12,4.82-10.61,12.28-14,6.92-3.12,8.47-4.47,9.84-5.65l.22-.2c.8-.6,1.16-.83,1.8-.83,2,0,4.48,1.7,4.48,3,0,1-1,1.74-3.45,2.5-.73.19-1.75.37-2.92.58-3.29.58-7.79,1.37-10.78,3.3-5,3.24-7.33,6.66-7.33,10.78,0,4.62,3.74,6.87,11.42,6.87a44.09,44.09,0,0,0,13.55-2.43,4,4,0,0,1,1.63-.47c1.71,0,3.89,2.1,3.89,3.75a1.93,1.93,0,0,1-1.26,1.63C451.09,57.91,445,58.71,439.3,58.71Z"/><path class="cls-3" d="M444.18,27.44c1.92,0,4.36,1.65,4.36,2.9,0,1-1,1.65-3.37,2.38-2.7.73-9.64,1.25-13.72,3.89-4.75,3.07-7.4,6.54-7.4,10.89,0,4.69,3.83,7,11.55,7a44.09,44.09,0,0,0,13.6-2.44,3.89,3.89,0,0,1,1.58-.47c1.65,0,3.76,2,3.76,3.63a1.81,1.81,0,0,1-1.18,1.52c-2.31,1.06-8.39,1.85-14.06,1.85-5.41,0-9.7-.66-12.61-1.85-4.15-1.78-6.53-5-6.53-8.78,0-5.08,4.88-10.55,12.21-13.85s8.65-4.62,10.1-5.88c.79-.59,1.12-.79,1.71-.79m0-.25a2.84,2.84,0,0,0-1.86.84l-.25.21c-1.36,1.19-2.9,2.53-9.8,5.64-7.51,3.38-12.36,8.91-12.36,14.08,0,3.91,2.44,7.19,6.69,9,3,1.22,7.38,1.87,12.7,1.87,5.74,0,11.83-.81,14.16-1.87a2.06,2.06,0,0,0,1.33-1.75c0-1.74-2.21-3.88-4-3.88a4.17,4.17,0,0,0-1.67.48,43.84,43.84,0,0,1-13.51,2.43c-7.6,0-11.3-2.21-11.3-6.75,0-4.07,2.32-7.46,7.28-10.68,3-1.91,7.45-2.7,10.73-3.28,1.18-.2,2.2-.38,2.93-.58,2.13-.65,3.55-1.34,3.55-2.62s-2.54-3.15-4.61-3.15Z"/><path class="cls-3" d="M2.49,57.2a.6.6,0,0,1-.65-.59c0-.41,0-.41,4-2.55A114.89,114.89,0,0,0,27.8,37.74a.09.09,0,0,1,.08,0h0a.11.11,0,0,1,.09.07,15.39,15.39,0,0,1,1.17,4.15.12.12,0,0,1-.05.12A81.25,81.25,0,0,1,11.66,53.42C6.86,55.79,3.44,57.2,2.49,57.2Z"/><path class="cls-3" d="M27.88,37.83A14.9,14.9,0,0,1,29.05,42,81.23,81.23,0,0,1,11.6,53.31c-4.68,2.31-8.18,3.76-9.11,3.76A.46.46,0,0,1,2,56.61c0-.33,0-.33,4-2.44a113.4,113.4,0,0,0,22-16.34m0-.25a.23.23,0,0,0-.17.07A114.71,114.71,0,0,1,5.81,54c-4.09,2.18-4.09,2.18-4.09,2.66a.72.72,0,0,0,.77.71c1,0,4.41-1.41,9.22-3.79A81.16,81.16,0,0,0,29.2,42.14a.23.23,0,0,0,.09-.23,15.34,15.34,0,0,0-1.18-4.19.26.26,0,0,0-.18-.14Z"/><path class="cls-3" d="M636,26.25a.92.92,0,0,1-1-1V2.56a.14.14,0,0,1,.06-.11l.06,0,.06,0,4.56,2.42a.11.11,0,0,1,.06.11v19C639.78,25.06,637.82,26.25,636,26.25Z"/><path class="cls-3" d="M635.1,2.56,639.66,5v19c0,1.06-1.92,2.18-3.7,2.18a.8.8,0,0,1-.86-.86V2.56m0-.25a.22.22,0,0,0-.13,0,.24.24,0,0,0-.12.21v22.7A1.06,1.06,0,0,0,636,26.37c2,0,3.95-1.23,3.95-2.43V5a.24.24,0,0,0-.14-.22l-4.55-2.42-.12,0Z"/><path class="cls-3" d="M762.61,58.91h-.05c-2.81-1.16-5.78-3.25-9.34-6.55a24.68,24.68,0,0,1-5-6.36c.26-1.06.51-2,.69-2.63a.12.12,0,0,1,.09-.09h0a.12.12,0,0,1,.1,0c3.7,5.06,9.68,8.79,18.29,11.39a.11.11,0,0,1,.08.1.14.14,0,0,1-.06.13,18.81,18.81,0,0,0-4.79,3.94A.14.14,0,0,1,762.61,58.91Z"/><path class="cls-3" d="M749.08,43.39c3.73,5.11,9.79,8.85,18.35,11.44a18.91,18.91,0,0,0-4.82,4c-2.7-1.12-5.61-3.1-9.3-6.54a24.4,24.4,0,0,1-4.94-6.33c.28-1,.53-1.86.71-2.53m0-.25H749a.25.25,0,0,0-.19.18c-.18.67-.43,1.57-.71,2.52a.24.24,0,0,0,0,.2,24.73,24.73,0,0,0,5,6.38c3.58,3.33,6.56,5.42,9.39,6.59l.09,0a.25.25,0,0,0,.18-.08A19.23,19.23,0,0,1,767.55,55a.24.24,0,0,0,0-.45C758.93,52,753,48.29,749.28,43.25a.24.24,0,0,0-.2-.11Z"/><path class="cls-3" d="M805,58.12c-4.65,0-7.32-.49-9.84-1.81A7.25,7.25,0,0,1,791,50.08a7.72,7.72,0,0,1,3.11-5.74A31.16,31.16,0,0,1,799,41a.1.1,0,0,1,.07,0h.06a.11.11,0,0,1,.06.11c0,.59,0,1.25,0,1.89a.12.12,0,0,1-.05.1c-3.44,2.36-5,4.4-5,6.63,0,2.89,2.82,4.07,9.72,4.07a34.68,34.68,0,0,0,8.78-1.07,5.1,5.1,0,0,1,1.6-.31c1.32,0,3,1.45,3,2.59C817.28,57.1,813.27,58.12,805,58.12Z"/><path class="cls-3" d="M799.07,41.1c0,.59,0,1.25,0,1.89-3.52,2.4-5,4.46-5,6.73,0,3,2.82,4.2,9.84,4.2a34.36,34.36,0,0,0,8.81-1.08,5,5,0,0,1,1.57-.3c1.26,0,2.88,1.38,2.88,2.46,0,2-4,3-12.12,3-4.56,0-7.26-.48-9.78-1.8a7.13,7.13,0,0,1-4.14-6.12,7.6,7.6,0,0,1,3.06-5.64,31.83,31.83,0,0,1,4.89-3.34m0-.25a.2.2,0,0,0-.13,0A31.38,31.38,0,0,0,794,44.25a7.82,7.82,0,0,0-3.15,5.83,7.37,7.37,0,0,0,4.27,6.34c2.55,1.33,5.23,1.83,9.9,1.83,8.32,0,12.37-1.07,12.37-3.25,0-1.22-1.73-2.71-3.13-2.71a5.07,5.07,0,0,0-1.64.31,34.31,34.31,0,0,1-8.74,1.07c-8.43,0-9.59-1.9-9.59-4s1.51-4.2,4.92-6.53a.23.23,0,0,0,.11-.2c0-.58,0-1.21,0-1.9a.32.32,0,0,0-.13-.21l-.12,0Z"/><path class="cls-3" d="M228.1,21.76a5.68,5.68,0,0,1-4.85-2.5A11.8,11.8,0,0,1,221.57,15c0-.27.39-.58.72-.58s.42.3.52.54c1,2.12,3,3.15,6.28,3.15a22.73,22.73,0,0,0,5.58-.79l3-.59c4.32-1.34,5.57-1.89,5.57-2.45,0-.3,0-.32-3.55-1.8l-.93-.4a.13.13,0,0,1-.07-.14l.2-.8a.16.16,0,0,1,.06-.08h.1a21,21,0,0,0,6,1.24,5.23,5.23,0,0,0,1.74-.25,1.41,1.41,0,0,1,.63-.14c1,0,2.63,1.44,2.63,2.3,0,1.64-5,4.09-13,6.39-.62.18-2.63.45-2.72.47A31.83,31.83,0,0,1,228.1,21.76Z"/><path class="cls-3" d="M239,11.21a21.42,21.42,0,0,0,6,1.25,5.52,5.52,0,0,0,1.78-.26,1.27,1.27,0,0,1,.59-.14c.92,0,2.51,1.39,2.51,2.18,0,1.59-5.08,4-12.87,6.27-.62.18-2.71.46-2.71.46a31.66,31.66,0,0,1-6.2.66,5.54,5.54,0,0,1-4.75-2.44A11.79,11.79,0,0,1,221.7,15c0-.2.33-.46.59-.46s.27.13.4.46c1,2.18,3.1,3.24,6.4,3.24a23.25,23.25,0,0,0,5.61-.8l3-.59c4.49-1.38,5.68-1.91,5.68-2.57,0-.4,0-.4-3.63-1.92l-.93-.39.2-.79m0-.25a.25.25,0,0,0-.12,0,.27.27,0,0,0-.12.16l-.2.8a.25.25,0,0,0,.14.29l.93.39c3.31,1.39,3.48,1.47,3.48,1.69,0,.54-1.86,1.21-5.5,2.33l-2.95.59a23.14,23.14,0,0,1-5.56.79c-3.21,0-5.23-1-6.17-3.09-.1-.26-.29-.61-.63-.61s-.84.35-.84.71a12,12,0,0,0,1.7,4.31,5.8,5.8,0,0,0,4.95,2.54,31.37,31.37,0,0,0,6.25-.66c.07,0,2.1-.28,2.73-.47,3.06-.88,13-4,13-6.51,0-.93-1.7-2.43-2.76-2.43a1.6,1.6,0,0,0-.69.15,4.83,4.83,0,0,1-1.68.25A21.27,21.27,0,0,1,239.08,11Z"/><path class="cls-3" d="M807.23,38.62h-.06a.13.13,0,0,1-.06-.1l-.29-2.06a.13.13,0,0,1,.06-.13c1.12-.64,2.48-1.39,5.48-3,5.81-3.21,7-3.91,7.65-4.49a3.23,3.23,0,0,0,1.16-2c0-1.45-1.75-2.88-3.54-2.88-3.08,0-7.13,2.84-9.43,6.6a29.76,29.76,0,0,0-3.52,7.35.13.13,0,0,1-.12.09h0a.12.12,0,0,1-.12-.1c-.45-2.58-.71-3.52-.71-3.53,2.23-4.65,3.69-6.78,6-8.83a14,14,0,0,1,9-3.87c4.31,0,7.68,2.59,7.68,5.89a3.67,3.67,0,0,1-1.62,3.28c-1.2.92-1.6,1.08-6.46,3l-.76.3c-4.93,2-7.74,3.19-10.33,4.5Z"/><path class="cls-3" d="M818.78,21.76c4.26,0,7.55,2.52,7.55,5.76a3.55,3.55,0,0,1-1.56,3.18c-1.26,1-1.61,1.08-7.19,3.3-5.26,2.13-7.85,3.23-10.35,4.5l-.29-2.07c1.12-.64,2.48-1.39,5.47-3,5.76-3.18,7-3.9,7.68-4.5a3.29,3.29,0,0,0,1.2-2.1c0-1.5-1.79-3-3.66-3-3.11,0-7.19,2.82-9.53,6.66a30.41,30.41,0,0,0-3.54,7.38c-.46-2.62-.72-3.54-.72-3.54,2.16-4.44,3.6-6.6,6-8.7a13.8,13.8,0,0,1,8.94-3.84m0-.25a14,14,0,0,0-9.11,3.9c-2.36,2.06-3.83,4.2-6.06,8.78a.22.22,0,0,0,0,.18s.26,1,.71,3.51a.25.25,0,0,0,.23.21h0a.26.26,0,0,0,.24-.18,29.93,29.93,0,0,1,3.51-7.32c2.27-3.73,6.28-6.54,9.32-6.54,1.69,0,3.41,1.39,3.41,2.75a3.16,3.16,0,0,1-1.11,1.91c-.68.57-1.83,1.26-7.64,4.47-2.94,1.61-4.35,2.38-5.47,3a.26.26,0,0,0-.13.25l.29,2.07a.26.26,0,0,0,.13.19.27.27,0,0,0,.12,0,.2.2,0,0,0,.11,0c2.59-1.31,5.4-2.49,10.33-4.49l.75-.3c4.88-1.94,5.28-2.1,6.51-3a3.81,3.81,0,0,0,1.65-3.38c0-3.37-3.43-6-7.8-6Z"/></g></g></svg>