<svg xmlns="http://www.w3.org/2000/svg" viewBox="0 0 295.61 68.47">
  <defs>
    <style>
      .cls-1 {
        fill: gray;
      }

      .cls-2 {
        fill: #fff;
      }

      .cls-3 {
        fill: #0081cc;
      }

      .cls-4 {
        fill: #00a041;
      }
    </style>
  </defs>
  <title>Asset 2</title>
  <g id="Layer_2" data-name="Layer 2">
    <g id="レイヤー_1" data-name="レイヤー 1">
      <g>
        <g>
          <path class="cls-1" d="M9.08,27.41S35.84,6.73,40.86,3.51c6-3.81,16.54-6.07,24,1.61,9.82,10.08,4.65,20.07,2.71,23.13C65,32.31,43.83,57.83,36.47,64c-4.56,3.84-18.47,8.4-29.2-1.61C-4.68,51.26-.35,34.38,9.08,27.41Z"/>
          <path class="cls-2" d="M13.35,29.09S36.47,11.45,41.51,8C46,5,50.75,2.41,57.72,5.12a13.91,13.91,0,0,1,8.59,10.4,14.36,14.36,0,0,1-3,11.89c-3.91,5-24,29.19-27.9,32.16-2.55,2-7,5.95-16.21,4C10.54,61.74,4.82,55.05,4.43,47,4.09,40,6.27,34.62,13.35,29.09Z"/>
          <path class="cls-3" d="M26.65,21.08S41.72,10.28,44.16,8.42c3-2.33,9-3.81,13.63-1.29,4,2.19,5.81,4.51,6.71,8.78.83,3.89-.19,7-2.32,10.07s-7,8.53-7,8.53,1-9.82.52-15.37c-.56-6-3.57-6.46-5.3-6.59s-4.65,1.75-4.91,5c-.28,3.48-.58,4.07-1,5,0,0-.5-3.66-2.78-4.91a5.07,5.07,0,0,0-7.11,2.65c-1.17,2.63-.26,4.39-2.32,9.17C32.34,29.47,34,21.08,26.65,21.08Z"/>
          <path class="cls-4" d="M22.84,24.11s-10.91,7.82-13,10.66A17.77,17.77,0,0,0,6.76,50.4c2.06,8.69,12,12.27,16.57,12.08s7.81-.71,14.43-7.69A216.67,216.67,0,0,0,52.39,37.87s-4.39,1.5-6-2.2c-1.29-2.9.07-2.84-.64-8.26,0,0-2.91,12.53-3.81,14.72s-2.49,4.36-5.56,3.75a4.22,4.22,0,0,1-3.74-4.52c0-2.2.67-5.36.41-6.78,0,0-5.61,16.08-7.52,19.44-1.22,2.15-4.2,4.39-7.69,2.45s-4-5.23-1.45-9.2A48.93,48.93,0,0,0,20.61,37.1,58.52,58.52,0,0,0,22.84,24.11Z"/>
        </g>
        <g>
          <g>
            <polygon points="204.13 26.7 204.14 43.66 207.95 43.66 207.9 32.54 211.46 43.66 214.98 43.66 218.85 32.25 218.85 43.66 222.44 43.66 222.44 26.7 216.87 26.7 213.19 37.25 209.6 26.7 204.13 26.7"/>
            <polygon points="256.12 26.7 242.73 26.7 242.73 30.66 247.45 30.66 247.45 43.66 251.6 43.66 251.6 30.66 256.12 30.66 256.12 26.7"/>
            <polygon points="269.5 40.77 261.93 40.77 261.93 37.02 269.43 37.02 269.43 33.76 261.93 33.76 261.93 30.22 269.43 30.22 269.43 26.7 258.18 26.7 258.15 43.66 269.5 43.66 269.5 40.77"/>
            <path d="M233.55,26.63a9,9,0,1,0,9,9A9,9,0,0,0,233.55,26.63Zm0,14.19a5.2,5.2,0,1,1,5.2-5.2A5.2,5.2,0,0,1,233.57,40.82Z"/>
            <path d="M289.61,34.61H281v3.26l4.37,0a5.2,5.2,0,1,1-4.65-7.54A4.71,4.71,0,0,1,285,32.63l3.17-2.11a9,9,0,1,0,1.54,5C289.66,35.23,289.64,34.92,289.61,34.61Z"/>
            <rect x="291.65" y="26.7" width="3.96" height="16.95"/>
          </g>
          <g>
            <polygon points="87.97 26.7 74.69 26.7 74.69 30.16 79.29 30.16 79.29 43.66 83.4 43.66 83.4 30.16 87.97 30.16 87.97 26.7"/>
            <path d="M196,34.08h-8.56v3.23l4.32,0a5.16,5.16,0,1,1-4.6-7.48,4.67,4.67,0,0,1,4.23,2.26L194.5,30A8.92,8.92,0,1,0,196,35C196,34.7,196,34.39,196,34.08Z"/>
            <rect x="112.99" y="26.7" width="3.93" height="16.95"/>
            <rect x="156" y="26.7" width="3.93" height="16.95"/>
            <polygon points="176 26.7 172.06 26.7 172.06 35.55 167.19 26.7 162.74 26.7 162.74 43.66 166.78 43.66 166.78 34.92 171.44 43.66 176 43.66 176 26.7"/>
            <polygon points="132.91 26.7 128.97 26.7 128.97 35.55 124.1 26.7 119.64 26.7 119.64 43.66 123.68 43.66 123.68 34.92 128.34 43.66 132.91 43.66 132.91 26.7"/>
            <polygon points="106.77 26.7 104.59 35.69 102.42 26.7 102.41 26.7 102.42 26.7 98.38 26.7 98.39 26.7 98.39 26.7 96.21 35.69 94.03 26.7 89.99 26.7 94.03 43.66 98.38 43.66 100.4 35.03 102.42 43.66 106.77 43.66 110.81 26.7 106.77 26.7"/>
            <path d="M150.68,37.06a4.73,4.73,0,0,0,2.42-2,6.19,6.19,0,0,0,.41-5.11c-1-3.45-5.38-3.24-5.38-3.24h-6.76v17h3.92V35.54l3.93,8.12h4.7Zm-3.38-2.42h-1.94V30.15h2.08a2.37,2.37,0,0,1,2,2.21A2,2,0,0,1,147.3,34.64Z"/>
          </g>
        </g>
      </g>
    </g>
  </g>
</svg>
