<svg xmlns="http://www.w3.org/2000/svg" width="676.934" height="40.41" viewBox="0 0 676.934 40.41">
  <defs>
    <style>
      .cls-1 {
        fill: #333;
        fill-rule: evenodd;
      }
    </style>
  </defs>
  <path id="_2021年2月28日_日_までのご予約" data-name="2021年2月28日(日)までのご予約" class="cls-1" d="M385.645,1556.62h18.77l0.7-9.22h-0.935c-0.35,3.58-1.791,4.9-5.179,4.86h-9.034a40.7,40.7,0,0,1,7.321-5.76,31.9,31.9,0,0,0,5.451-4.01,7.71,7.71,0,0,0,2.492-5.96c0-5.18-3.66-8.6-9.228-8.6-5.53,0-9.93,3.69-9.93,8.33,0,2.02,1.207,3.43,3,3.43a2.939,2.939,0,0,0,2.921-3c0-1.6-1.091-2.69-3.077-3-0.467-.08-0.545-0.16-0.545-0.47,0-1.6,2.8-3.35,5.413-3.35,3.66,0,5.958,2.53,5.958,6.58a10.171,10.171,0,0,1-1.947,6.16,23.189,23.189,0,0,1-4.206,4.36c-1.168,1.05-2.141,1.94-2.687,2.49l-2.219,2.22-2.064,2.06c-0.312.28-.662,0.66-0.974,0.98v1.9Zm38.4-28.69c-6.075,0-9.58,5.52-9.58,15.06,0,9,3.544,14.22,9.618,14.22,6.036,0,9.424-5.18,9.424-14.45C433.508,1533.3,430.081,1527.93,424.046,1527.93Zm-0.117,1.01c1.713,0,2.764.93,3.271,3,0.506,1.83.7,5.56,0.7,12.42,0,9.19-.818,11.72-3.778,11.72-1.752,0-2.842-1.01-3.387-3.12-0.429-1.79-.585-3.77-0.585-8.33a116.036,116.036,0,0,1,.39-11.99C420.93,1530.22,422.137,1528.94,423.929,1528.94Zm17.956,27.68h18.769l0.7-9.22h-0.934c-0.351,3.58-1.791,4.9-5.179,4.86h-9.034a40.722,40.722,0,0,1,7.32-5.76,31.921,31.921,0,0,0,5.452-4.01,7.713,7.713,0,0,0,2.492-5.96c0-5.18-3.66-8.6-9.229-8.6-5.529,0-9.93,3.69-9.93,8.33,0,2.02,1.208,3.43,3,3.43a2.938,2.938,0,0,0,2.92-3c0-1.6-1.09-2.69-3.076-3-0.467-.08-0.545-0.16-0.545-0.47,0-1.6,2.8-3.35,5.413-3.35,3.66,0,5.958,2.53,5.958,6.58a10.171,10.171,0,0,1-1.947,6.16,23.189,23.189,0,0,1-4.206,4.36c-1.168,1.05-2.142,1.94-2.687,2.49l-2.22,2.22-2.063,2.06c-0.312.28-.662,0.66-0.974,0.98v1.9Zm28.276,0H485.27v-0.97c-3.661-.04-4.751-0.7-4.829-3v-24.84h-1.285c-1.986,1.79-5.062,2.69-9.112,2.69v1.05c3.972,0.04,5.218.85,5.3,3.42v17.68c-0.039,2.3-1.285,3.04-5.179,3v0.97Zm41.008-24.37v6.7h-5.8l-4.946-2.15v10.87c-2.492-.04-2.959-0.04-5.957-0.24l0.584,1.48c3.426-.15,4.945-0.19,7.087-0.19h9.034v10.2c0,0.86.195,1.05,1.051,1.05a8.6,8.6,0,0,0,2.765-.5,1.082,1.082,0,0,0,.7-1.13v-9.62h14.291a0.545,0.545,0,0,0,.468-0.62,1.066,1.066,0,0,0-.507-0.86l-3.972-3.12-2.609,3.55h-7.671V1540H525.85c0.545,0,.778-0.16.778-0.55a1.207,1.207,0,0,0-.662-0.89l-3.426-2.89-2.415,3.28h-4.439v-6.7h12.656a0.593,0.593,0,0,0,.74-0.59,1.2,1.2,0,0,0-.507-0.93l-3.777-3.04-2.531,3.51H504c0.7-1.09.973-1.56,1.986-3.35l1.168-.35a0.906,0.906,0,0,0,.779-0.86,1.1,1.1,0,0,0-.9-0.97l-4.867-2.18c-2.337,7.9-4.517,12.46-8.256,17.56a1.014,1.014,0,0,0-.35.62,0.262,0.262,0,0,0,.273.27,12.691,12.691,0,0,0,3.154-2.41,45.177,45.177,0,0,0,6.386-7.28h7.788ZM504.9,1540h6.269v7.67H504.9V1540Zm33.535,16.62h18.77l0.7-9.22h-0.935c-0.35,3.58-1.791,4.9-5.179,4.86h-9.034a40.7,40.7,0,0,1,7.321-5.76,31.9,31.9,0,0,0,5.451-4.01,7.71,7.71,0,0,0,2.492-5.96c0-5.18-3.66-8.6-9.228-8.6-5.53,0-9.93,3.69-9.93,8.33,0,2.02,1.207,3.43,3,3.43a2.939,2.939,0,0,0,2.921-3c0-1.6-1.091-2.69-3.077-3-0.467-.08-0.545-0.16-0.545-0.47,0-1.6,2.8-3.35,5.413-3.35,3.66,0,5.958,2.53,5.958,6.58a10.171,10.171,0,0,1-1.947,6.16,23.189,23.189,0,0,1-4.206,4.36c-1.168,1.05-2.141,1.94-2.687,2.49l-2.219,2.22-2.064,2.06c-0.312.28-.662,0.66-0.974,0.98v1.9Zm53.626-11.37v7.71c0,1.48,0,1.48-3.232,1.48-0.779,0-1.207,0-1.83-.04h-0.9c-0.428,0-.623.12-0.623,0.32a0.741,0.741,0,0,0,.584.46c0.546,0.16,1.052.35,1.6,0.55,0.234,0.08.7,0.27,1.246,0.47a8.514,8.514,0,0,0,1.168.42c0.7,0.28.74,0.32,0.9,1.68,0.117,0.78.389,1.13,0.935,1.13a6.082,6.082,0,0,0,1.908-.47,4.824,4.824,0,0,0,2.453-1.48c0.467-.58.545-0.89,0.545-2.41v-24.11l0.662-.43a1.388,1.388,0,0,0,.584-1.05,1.962,1.962,0,0,0-.662-1.24l-4.167-3.78-1.635,3.08h-11.02l-5.413-2.46c0.312,4.83.39,6.93,0.39,12.11,0,7.71-.507,11.88-1.87,15.15a16.88,16.88,0,0,1-4.049,5.92,1.248,1.248,0,0,0-.429.66,0.314,0.314,0,0,0,.351.31,4.021,4.021,0,0,0,1.557-.78,19.15,19.15,0,0,0,5.725-5.1c1.713-2.33,2.414-4.28,2.959-8.1h12.266Zm-11.954-8.21h11.954v7.16H579.912c0.156-2.61.195-3.39,0.195-4.28v-2.88Zm0-8.45h11.954v7.4H580.107v-7.4Zm31.627,28.03H630.5l0.7-9.22H630.27c-0.351,3.58-1.791,4.9-5.179,4.86h-9.034a40.722,40.722,0,0,1,7.32-5.76,31.921,31.921,0,0,0,5.452-4.01,7.713,7.713,0,0,0,2.492-5.96c0-5.18-3.66-8.6-9.229-8.6-5.529,0-9.929,3.69-9.929,8.33,0,2.02,1.207,3.43,3,3.43a2.939,2.939,0,0,0,2.921-3c0-1.6-1.091-2.69-3.077-3-0.467-.08-0.545-0.16-0.545-0.47,0-1.6,2.8-3.35,5.413-3.35,3.66,0,5.958,2.53,5.958,6.58a10.171,10.171,0,0,1-1.947,6.16,23.189,23.189,0,0,1-4.206,4.36c-1.168,1.05-2.142,1.94-2.687,2.49l-2.219,2.22-2.064,2.06c-0.312.28-.662,0.66-0.974,0.98v1.9Zm41.827-15.69c3.622-1.56,5.023-3.31,5.023-6.31,0-4.09-3.232-6.69-8.294-6.69-5.257,0-8.8,3.11-8.8,7.78,0,2.96,1.324,4.91,4.75,7.05-4.088,1.68-5.685,3.58-5.685,6.74,0,4.63,3.777,7.71,9.385,7.71,5.646,0,9.7-3.35,9.7-8.06C659.636,1545.95,657.845,1543.54,653.561,1540.93Zm-6.347,2.49c0.078-.04,4.166,2.5,5.062,3.12,2.492,1.75,3.466,3.07,3.466,4.75,0,2.65-2.453,4.71-5.647,4.71-3.855,0-6.425-2.72-6.425-6.89C643.67,1546.54,644.683,1544.94,647.214,1543.42Zm5.335-3.11c-1.207-.74-1.207-0.74-1.636-1.01-4.478-2.69-5.763-4.02-5.763-6.04,0-2.45,2.064-4.24,4.868-4.24,3.426,0,5.685,2.33,5.685,5.88A5.88,5.88,0,0,1,652.549,1540.31Zm26.328,14.83h15.265v1.87c0,0.94.156,1.13,1.09,1.13,2.064,0,3.622-1.05,3.622-2.49v-23.44l0.934-.47a1.02,1.02,0,0,0,.7-0.86,1.458,1.458,0,0,0-.584-1.05l-4.517-4.24-1.6,2.92H679.345l-5.024-2.38v31.66c0,0.94.195,1.17,1.052,1.17,1.83,0,3.5-.9,3.5-1.87v-1.95Zm0-1.05V1541.9h15.265v12.19H678.877Zm0-24.53h15.265v11.29H678.877v-11.29Zm45.452-2.45a23.684,23.684,0,0,0-4.167,6.34,29.618,29.618,0,0,0-2.57,12.27,27.221,27.221,0,0,0,6.737,18.19h1.947a34.006,34.006,0,0,1-5.257-18.27,33,33,0,0,1,5.257-18.53h-1.947Zm20.564,28.03h15.265v1.87c0,0.94.156,1.13,1.09,1.13,2.064,0,3.622-1.05,3.622-2.49v-23.44l0.934-.47a1.02,1.02,0,0,0,.7-0.86,1.461,1.461,0,0,0-.584-1.05l-4.517-4.24-1.6,2.92H745.36l-5.023-2.38v31.66c0,0.94.2,1.17,1.052,1.17,1.83,0,3.5-.9,3.5-1.87v-1.95Zm0-1.05V1541.9h15.265v12.19H744.893Zm0-24.53h15.265v11.29H744.893v-11.29Zm34.2-2.45a33.1,33.1,0,0,1,5.257,18.53,34.088,34.088,0,0,1-5.257,18.27h1.947a27.275,27.275,0,0,0,6.737-18.19,30.759,30.759,0,0,0-2.259-11.6,24.935,24.935,0,0,0-4.478-7.01h-1.947Zm38.555,14.56a37.85,37.85,0,0,1-4.829.27c-3.115,0-4.945-.81-5.8-2.57a0.378,0.378,0,0,0-.273-0.23,0.475,0.475,0,0,0-.272.55,5.562,5.562,0,0,0,1.791,3.73c1.129,1.02,2.687,1.44,5.179,1.44a28.518,28.518,0,0,0,4.245-.31l0.116,4.95a13.717,13.717,0,0,0-1.752-.08c-5.374,0-8.333,1.52-8.333,4.32,0,2.65,2.92,4.48,7.087,4.48,4.128,0,7.087-1.91,7.087-4.59v-0.2a15.842,15.842,0,0,1,4.011,3.54,2.359,2.359,0,0,0,1.869,1.06,2.015,2.015,0,0,0,1.908-2.11c0-1.2-1.051-2.45-3.115-3.74a19.063,19.063,0,0,0-4.829-1.98,54.316,54.316,0,0,1-.778-6.19c5.412-1.13,8.8-2.81,8.8-4.4a1.447,1.447,0,0,0-1.246-1.29,4.893,4.893,0,0,1-3.544-1.09,0.683,0.683,0,0,0-.428-0.27,0.324,0.324,0,0,0-.272.27,0.565,0.565,0,0,0,.077.16,2.725,2.725,0,0,1,.429,1.32c0,0.98-1.052,1.56-4.089,2.38a18.784,18.784,0,0,1-.117-2.5,15.29,15.29,0,0,1,.117-2.37c3.076-.55,4.79-1.36,4.79-2.18,0-.78-1.246-1.56-3.116-1.99a2.224,2.224,0,0,1-1.44,1.02,9.267,9.267,0,0,1,.973-4.21,1.8,1.8,0,0,0,.351-0.86,2.926,2.926,0,0,0-.857-1.52,5.183,5.183,0,0,0-3.427-1.44c-1.4,0-2.726.47-2.726,0.94a0.288,0.288,0,0,0,.234.27c1.6,0.27,1.908,1.6,1.908,7.48a5.892,5.892,0,0,1-1.324.15,7.217,7.217,0,0,1-2.687-.5A2.4,2.4,0,0,1,812,1531.9a1.033,1.033,0,0,0-.7,1.24c0,2.3,1.792,3.7,4.751,3.7,0.39,0,.9,0,1.519-0.04Zm0.233,10.2a8.225,8.225,0,0,1-.116,1.52c-0.351,1.44-1.4,2.14-3.271,2.14-2.415,0-4.011-.89-4.011-2.22,0-1.24,1.363-1.94,3.777-1.94a12.4,12.4,0,0,1,3.349.43A1.281,1.281,0,0,1,817.879,1551.87Zm58.3-16.27c-1.051,0-1.752.23-1.752,0.54,0,0.2.117,0.27,0.467,0.35a5.051,5.051,0,0,1,3.193,2.84,1.512,1.512,0,0,0,1.48,1.09,1.758,1.758,0,0,0,1.791-1.67C881.36,1537.04,878.985,1535.6,876.181,1535.6Zm-5.3,2.33c-0.856,0-1.44.2-1.44,0.43,0,0.2.155,0.31,0.662,0.47a5.9,5.9,0,0,1,2.92,3,1.385,1.385,0,0,0,1.441,1.05,1.746,1.746,0,0,0,1.83-1.64C876.3,1539.49,873.767,1537.93,870.885,1537.93Zm3.5-11.02c-1.6,1.05-3.31,1.6-12.695,4.05-2.609.66-4.828,1.29-6,1.64a14.342,14.342,0,0,1-4.4.89,3.121,3.121,0,0,1-2.92-1.59c-0.117-.35-0.156-0.39-0.273-0.39a1.019,1.019,0,0,0-.389,1.09,5.366,5.366,0,0,0,2.064,4.16,5.541,5.541,0,0,0,2.531,1.21,2.855,2.855,0,0,0,1.479-.74,34.659,34.659,0,0,1,10.514-5.06c0.7-.16,1.13-0.31,1.324-0.35a0.119,0.119,0,0,1,.078-0.04,0.1,0.1,0,0,1,.117.12,1.283,1.283,0,0,1-.389.7,23.292,23.292,0,0,0-6.192,15.11c0,6.23,4.829,10.12,12.578,10.12,2.414,0,3.621-.62,3.621-1.95,0-1.48-1.324-3.19-2.492-3.19a4.6,4.6,0,0,0-.7.04,19.988,19.988,0,0,1-2.219.16c-4.751,0-6.776-2.03-6.776-6.7,0-7.01,2.375-12.31,6.269-13.94a10.534,10.534,0,0,1,4.556-.66,8.185,8.185,0,0,1,2.609.27,7.125,7.125,0,0,0,1.4.23,1.378,1.378,0,0,0,1.4-1.32c0-.94-0.779-1.83-2.492-2.84A5.5,5.5,0,0,0,874.39,1526.91Zm35.911,3.78H910.5a9.448,9.448,0,0,1,5.88,2.38c1.947,1.86,3.076,5.17,3.076,9.07a14.11,14.11,0,0,1-3.933,10.36,19.239,19.239,0,0,1-6.737,4.12c-0.856.28-1.129,0.47-1.129,0.71a0.362,0.362,0,0,0,.39.35,22.753,22.753,0,0,0,5.88-1.6c6.658-2.73,10.552-7.98,10.552-14.25,0-7.44-5.685-12.5-14.057-12.5a16.429,16.429,0,0,0-11.02,4.01,15.672,15.672,0,0,0-5.88,11.8,10.186,10.186,0,0,0,2.648,7.24,4.542,4.542,0,0,0,2.687,1.36c1.83,0,4.789-2.14,6.853-4.94a25.973,25.973,0,0,0,4.751-13.71,17.218,17.218,0,0,0-.584-4.36,0.653,0.653,0,0,0,.311-0.04H910.3Zm-2.375.27a0.315,0.315,0,0,1,.039.12v0.08a10.847,10.847,0,0,1,.194,2.06,21.966,21.966,0,0,1-3.115,10.4c-1.752,3.19-4.283,5.76-5.607,5.76-1.013,0-1.986-1.95-1.986-4.01a17.028,17.028,0,0,1,4.322-10.94,12.757,12.757,0,0,1,6.153-3.55v0.08Zm59.158-6.27c-1.129,0-1.83.24-1.83,0.55,0,0.15.078,0.23,0.351,0.31a4.8,4.8,0,0,1,3.31,2.92,1.481,1.481,0,0,0,1.479,1.01,1.715,1.715,0,0,0,1.792-1.67C972.186,1526.17,969.771,1524.69,967.084,1524.69Zm-4.906,2.81c-1.052,0-1.83.23-1.83,0.54,0,0.16.155,0.27,0.545,0.39a5.411,5.411,0,0,1,3.232,2.96,1.282,1.282,0,0,0,1.324.86,1.716,1.716,0,0,0,1.908-1.6C967.357,1528.98,964.943,1527.5,962.178,1527.5Zm-16.472.19a0.4,0.4,0,0,0-.273.47,6.4,6.4,0,0,0,4.829,5.84c0.818,0.19.857,0.23,0.857,0.39a1.9,1.9,0,0,1-.506.58,8.308,8.308,0,0,0-2.22,2.57,0.365,0.365,0,0,0,.311.31,0.9,0.9,0,0,0,.273-0.07,22.718,22.718,0,0,1,10.047-2.73c1.713-.04,2.57-0.47,2.57-1.28a5.51,5.51,0,0,0-.779-2.34,2.471,2.471,0,0,0-1.947-1.25,3.74,3.74,0,0,0-.662.08,14.393,14.393,0,0,1-4.478.78c-3.349,0-6.542-1.25-7.633-3A0.513,0.513,0,0,0,945.706,1527.69Zm-1.207,14.64c-0.935,0-2.22,3.04-2.22,5.26a8.271,8.271,0,0,0,3.778,6.81c2.336,1.52,5.334,2.19,9.812,2.19a26.334,26.334,0,0,0,7.438-.9c1.869-.58,2.648-1.25,2.648-2.3a2.9,2.9,0,0,0-3.115-2.68,2.6,2.6,0,0,0-1.363.35,24.14,24.14,0,0,1-7.866,1.24c-6.075,0-9.151-2.33-9.151-7.01a7.638,7.638,0,0,1,.311-2.37,0.8,0.8,0,0,0,.039-0.28A0.338,0.338,0,0,0,944.5,1542.33Zm37.975-1.75c1.674-.04,3.154-0.08,3.66-0.12,1.636-.04,2.8-0.07,3.31-0.07h7.516V1553c0,1.52-.156,1.68-1.6,1.68-0.973,0-.973,0-3.232-0.12l-1.051-.04-0.468-.04a0.416,0.416,0,0,0-.467.39c0,0.31.234,0.43,1.6,0.98,2.258,0.89,2.842,1.12,3.426,1.4,0.39,0.15.468,0.39,0.585,1.36,0.038,0.86.272,1.17,0.856,1.17a6.741,6.741,0,0,0,3-1.13c1.592-.97,1.912-1.68,1.912-4.17v-14.09h8.17a47.648,47.648,0,0,1-6.42,7.55c-0.59.55-.62,0.58-0.62,0.78a0.263,0.263,0,0,0,.27.27c0.85,0,6.81-3.42,11.33-6.54l2.14-.58a0.855,0.855,0,0,0,.7-0.74,1.246,1.246,0,0,0-.5-0.86l-4.52-3.89-2.34,2.95H989.444c-1.986,0-3.66-.03-7.632-0.19Zm25.736-15.07-2.18,2.73H992.014c-1.324,0-2.492-.04-6.736-0.2l0.623,1.4c3.271-.11,4.634-0.15,6.152-0.15h13.277a24.643,24.643,0,0,1-4.63,4.52,10.985,10.985,0,0,0-4.714-2.15,22.509,22.509,0,0,0-3.232-.46,0.311,0.311,0,0,0-.389.31c0,0.31.155,0.43,1.246,1.01a8.711,8.711,0,0,1,3.777,4.32,6.016,6.016,0,0,0,.662,1.48,1.969,1.969,0,0,0,1.519.74,2.613,2.613,0,0,0,2.531-2.68,2.184,2.184,0,0,0-.43-1.37,54.046,54.046,0,0,0,8.53-4.79h1.4a0.972,0.972,0,0,0,.97-0.89,1.066,1.066,0,0,0-.54-0.82Zm23.77,22.47a1.138,1.138,0,0,0,.42-0.82,0.747,0.747,0,0,0-.66-0.74l-3.74-.85a45.029,45.029,0,0,1-1.52,12.77l-0.03.23a0.326,0.326,0,0,0,.31.31c0.31,0,.85-0.78,1.79-2.41a32.928,32.928,0,0,0,2.92-8.06Zm0.89,11.02a0.6,0.6,0,0,0,.74.66,8,8,0,0,0,2.49-.54,0.754,0.754,0,0,0,.59-0.82v-16.16c0.07-.04.66-0.2,1.75-0.47l0.43-.12a10.164,10.164,0,0,1,.43,1.8c0.23,1.67.58,2.1,1.59,2.1a2.054,2.054,0,0,0,2.07-2.22c0-1.95-1.6-3.86-4.17-4.95a8.619,8.619,0,0,0-1.75-.5,0.176,0.176,0,0,0-.2.15,0.409,0.409,0,0,0,.16.28,8.15,8.15,0,0,1,1.4,2.1c-1.17.11-1.99,0.15-5.14,0.23,1.05-.97,1.91-1.79,2.61-2.53,0.66-.7,1.32-1.4,2.02-2.1l1.87-1.95,0.7-.74,0.82-.23a0.913,0.913,0,0,0,.86-0.86,1.172,1.172,0,0,0-.62-0.93l-3.31-2.3c-1.6,3.89-4.91,9.85-6.59,11.76-3.11.04-3.73,0.04-5.52,0.04l1.67,3.74a0.9,0.9,0,0,0,.78.62,1.016,1.016,0,0,0,.86-0.66l0.19-.51c1.75-.39,2.26-0.51,3.27-0.78V1559Zm4.01-31.23c0.78-.2,1.09-0.47,1.09-0.9a1.109,1.109,0,0,0-.7-0.85l-4.01-2.03a60.764,60.764,0,0,1-1.87,7.28,9.692,9.692,0,0,0-4.44-1.55c-0.23,0-.39.07-0.39,0.23a0.462,0.462,0,0,0,.2.31c1.52,1.17,2.26,2.73,2.53,5.18,0.12,1.25.62,1.79,1.71,1.79a2.134,2.134,0,0,0,2.14-2.33,4.379,4.379,0,0,0-.93-2.73c0.31-.35.97-1.05,2.02-2.14,0.39-.39.78-0.86,1.87-2.07Zm1.05,18.11a0.257,0.257,0,0,0-.27.23,0.96,0.96,0,0,0,.27.55,10.728,10.728,0,0,1,1.4,4.59c0.2,1.95.2,1.95,0.39,2.3a1.556,1.556,0,0,0,1.41.74,1.8,1.8,0,0,0,1.9-2.03c0-2.22-1.01-3.81-3.34-5.41A4.985,4.985,0,0,0,1037.93,1545.88Zm19.04-12.74v1.25c0,5.02-.35,12.07-0.7,14.8-0.5,3.62-1.4,5.1-3.11,5.1a31.3,31.3,0,0,1-3.97-.59,12.571,12.571,0,0,0-1.91-.39,0.277,0.277,0,0,0-.31.28,0.742,0.742,0,0,0,.54.5c4.83,2.65,4.87,2.69,4.83,3.66,0.08,1.33.31,1.68,1.13,1.68a5.85,5.85,0,0,0,3.54-1.56,10.372,10.372,0,0,0,3.2-6.07c0.66-2.93,1.09-9.39,1.09-16.32l0.58-.27a1.031,1.031,0,0,0,.7-0.98,1.537,1.537,0,0,0-.54-1.05l-3.97-3.78-1.41,2.69h-9.15l1.17-2.26a8.416,8.416,0,0,1,1.01-1.75l0.7-.23a1.148,1.148,0,0,0,.9-1.02,1.074,1.074,0,0,0-.66-0.89l-4.79-2.1a58.521,58.521,0,0,1-4.48,15.07,1.107,1.107,0,0,0-.16.42,0.243,0.243,0,0,0,.24.28,5.193,5.193,0,0,0,1.52-1.37,35.848,35.848,0,0,0,3.93-5.1h10.08Zm-13.2,5.57a0.349,0.349,0,0,0-.42.35,0.407,0.407,0,0,0,.31.35c1.4,0.78,2.72,2.85,3.39,5.26,0.42,1.6.58,1.95,0.89,2.26a1.924,1.924,0,0,0,1.32.5,2.435,2.435,0,0,0,2.34-2.6c0-2.15-1.79-4.25-4.55-5.3A14.358,14.358,0,0,0,1043.77,1538.71Z" transform="translate(-385.656 -1523.5)"/>
</svg>
