<svg xmlns="http://www.w3.org/2000/svg" viewBox="0 0 478.6 40.9"><defs><style>.cls-1{fill:#fff;}</style></defs><g id="レイヤー_2" data-name="レイヤー 2"><g id="レイヤー_1-2" data-name="レイヤー 1"><path class="cls-1" d="M20.2,0H17.9L.1,27.6H0v2.4H15.6v4.4c-.1,2.1-.1,2.4-5.7,2.4H9.4v2.8H25.2V36.9h-.5c-4.5-.1-4.5-.3-4.5-2.3V30.1h5.4V27.3H20.2ZM3.3,27.3l12.3-19v19Z"/><path class="cls-1" d="M54.1,5.3A10.3,10.3,0,0,0,45.4.1a10,10,0,0,0-8.1,4c-2.7,3.1-4.3,9-4.3,16.1,0,12.4,4.8,20.2,12.5,20.2,4,0,6.9-2,9.1-6.3s2.7-7.9,2.7-13.5S56.2,8.9,54.1,5.3ZM45.2,2.9c4.7,0,6.9,6,6.9,18.2,0,5.4-.5,9.3-1.5,12.1s-3.1,4.4-5.3,4.4-4.2-1.8-5.2-4.2-1.8-7.5-1.8-13,.3-8.6,1.1-11.3h0C40.5,5,42.4,2.9,45.2,2.9Z"/><path class="cls-1" d="M84.1,0H81.7L63.9,27.6h-.1v2.4H79.4v4.4c-.1,2.1-.1,2.4-5.6,2.4h-.5v2.8H89V36.9h-.5c-4.4-.1-4.4-.3-4.4-2.3V30.1h5.4V27.3H84.1Zm-17,27.3,12.3-19v19Z"/><path class="cls-1" d="M138.1,3.5h2.1c2.4.1,3.6,1.9,3.6,5.3V31.2L120.1.9h-11V3.5h2.5c3.5.2,4.1.8,4.2,4.2v23c-.1,4.1-1.5,6-4.7,6.2h-2v2.7H125V37l-2.2-.2c-2.9-.2-4.1-2.1-4.1-6.5V7.1L145,40.9h1.6V8.7c0-2.3.6-5.1,3.7-5.2h2.3V.8H138.1Z"/><path class="cls-1" d="M177.2,0C165.7,0,157,8.6,157,20c0,5.9,1.9,10.8,5.6,14.4a20.8,20.8,0,0,0,14.4,6c10.9,0,19.5-9,19.5-20.5S188,0,177.2,0Zm0,37.6a13.6,13.6,0,0,1-9.9-4.1c-2.7-3-4.4-8.2-4.4-13.6,0-10,5.7-17,13.8-17s13.7,6.9,13.7,16.8S184.9,37.6,177.2,37.6Z"/><path class="cls-1" d="M205.1.8l-3.8,9.4,2.2,1.1.2-.3a26.2,26.2,0,0,1,4.6-5,12.4,12.4,0,0,1,7.4-2.5c2.3,0,3.3.6,3.3,4.2V32.3c0,2-.1,3.3-.7,3.9s-2,.8-4,.8h-2.1v2.7h18.6V36.9H228c-3.7-.3-3.9-.4-4-4.6V7.7c0-3.7.7-4.2,3.1-4.2a13.1,13.1,0,0,1,7.5,2.6c1.6,1.3,1.7,1.3,4.6,5.2l.3.4,2.2-1.5-4-9.4Z"/><path class="cls-1" d="M257.6.8V3.5h2.2c2.8,0,3.8.9,3.8,5.5V33.8c0,2.2-1.1,3.2-3.6,3.2h-2.4v2.7h17.1V36.9H272c-2.7,0-3.4-.6-3.4-4.5V20.9H275c3.5.2,5,1.6,5.3,5.4v.5h2.5V12.9h-2.4v.3c-1,4.5-1.7,4.9-4.9,5h-6.9V6.9c0-2.6.9-3.4,6.4-3.4s7.1.6,9.3,2.1,2.5,1.9,5.1,5.1l.2.4,2.2-1.2L288.2.8Z"/><path class="cls-1" d="M317.4,0c-11.6,0-20.2,8.6-20.2,20,0,5.9,1.9,10.8,5.6,14.4a20.8,20.8,0,0,0,14.4,6c10.9,0,19.5-9,19.5-20.5S328.2,0,317.4,0Zm0,37.6a13.6,13.6,0,0,1-9.9-4.1c-2.7-3-4.4-8.2-4.4-13.6,0-10,5.7-17,13.8-17s13.7,6.9,13.7,16.8S325,37.6,317.4,37.6Z"/><path class="cls-1" d="M371.2,3.5h2.1c2.4.2,3.8,2,3.8,5V24.9c0,5.5-.4,7.4-2.3,9.5s-4.8,3.5-8.9,3.5-7.5-1.1-9.6-3.2-2.7-4.7-2.7-9.3V6.2c0-2,.8-2.7,3.2-2.7h2.5V.8H342.6V3.5h2.3c2.9.1,3.5.8,3.4,3.8V26c0,5.3,1.5,8.9,4.5,11.2s7.3,3.5,12,3.5,9.2-1.5,12-4.4,3.2-5.2,3.2-13.1V8.1c.1-2.7,1.2-4.2,3.5-4.5l2.1-.2V.8H371.2Z"/><path class="cls-1" d="M419.5,3.5h2.1c2.4.1,3.6,1.9,3.6,5.3V31.2L401.5.9h-11V3.5H393c3.5.2,4.1.8,4.2,4.2v23c-.1,4.1-1.5,6-4.7,6.2h-2v2.7h15.9V37l-2.2-.2c-2.9-.2-4.1-2.1-4.1-6.5V7.1l26.3,33.8H428V8.7c0-2.3.6-5.1,3.6-5.2H434V.8H419.5Z"/><path class="cls-1" d="M458.4.9H438.9V3.5h2.4c2.4.1,3.4,1.3,3.4,4.3V33.3c-.1,2.8-.9,3.7-3.4,3.7h-2.4v2.7h20.2c11.3,0,19.5-8,19.5-19A19.8,19.8,0,0,0,458.4.9ZM449.7,7c0-2.7.7-3.4,5.4-3.4s8.5,1,11,2.9c4,3,6.4,8.5,6.4,14.7,0,10.2-5.9,15.8-16.8,15.8-5.5,0-6-.5-6-3.6Z"/></g></g></svg>