<svg xmlns="http://www.w3.org/2000/svg" viewBox="0 0 739.87 33.13"><defs><style>.cls-1{fill:#333;}</style></defs><g id="Layer_2" data-name="Layer 2"><g id="Layer_1-2" data-name="Layer 1"><path class="cls-1" d="M21.76,15.74c-2.85,0-6,1-9.86,3.3,0-.78,0-1.46,0-1.81,0-.59,0-1.29,0-2.17l0-1c4.12-1.4,5.65-2.41,5.65-3.69,0-.56-.37-1.06-.78-1.06l-.82,0a10.78,10.78,0,0,1-3.69-1.06,6.75,6.75,0,0,1,.35-1.58A3.1,3.1,0,0,0,12.85,6c0-.86-2-2.25-3.29-2.25-1,0-2.18.92-2.18,1.67a.27.27,0,0,0,.27.31,1.35,1.35,0,0,0,.35,0,1.23,1.23,0,0,1,.4,0c.87,0,1.3.47,1.46,1.62a50.69,50.69,0,0,1,.22,5.13,9.13,9.13,0,0,1-3.84.82c-1.23,0-2.15-.36-2.25-.88v0c0-.12-.06-.25-.26-.25s-.41.41-.41,1.24a2,2,0,0,0,.46,1.16,2.09,2.09,0,0,0,2,1,11.42,11.42,0,0,0,4.3-.88c0,.93,0,1.61,0,2l0,2.34v1L6.94,21.66c-.7.37-1.37.76-1.49.83-1.14.79-1.8,1-4.1,1-.81,0-1.35.16-1.35.95a3.54,3.54,0,0,0,2.72,2.72,1.3,1.3,0,0,0,.95-.55A11,11,0,0,1,5.61,25a7.22,7.22,0,0,1,3.5,5.18c0,.39.16.59.48.59a2.93,2.93,0,0,0,2.79-2.54,10.47,10.47,0,0,0-.11-1.35C12.13,26,12,23,12,21.59v-1c4-2.41,6.22-3.22,8.73-3.22,2.73,0,4.23,1.59,4.23,4.48a5,5,0,0,1-5.05,5.38,4.06,4.06,0,0,1-2.34-.76,3.79,3.79,0,0,1-1.21-2.57,9.8,9.8,0,0,1,.17-1.68,1.21,1.21,0,0,0,.12-.44c0-.16-.18-.27-.34-.27-.6,0-1,1.68-1,2.82,0,3.14,1.81,5,4.84,5,4.53,0,7.69-3.08,7.69-7.5A5.82,5.82,0,0,0,21.76,15.74ZM12,11.94v-.36c0-1.25,0-1.81.11-2.6l1.52.88c.63.34.7.43.7.54C14.33,10.74,13.46,11.41,12,11.94Zm-1.8,13.54c0,.47-.06,1.28-.42,1.28-.16,0-.34-.08-.78-.44a23.32,23.32,0,0,0-2.58-2,26.56,26.56,0,0,1,3.77-2.89c0,1.54,0,1.61,0,1.82Z"/><path class="cls-1" d="M26.4,9.51c-1.55,0-4.44.81-4.44,1.57a.43.43,0,0,0,.37.41,1.84,1.84,0,0,0,.59-.19,7.4,7.4,0,0,1,1.75-.24,5.18,5.18,0,0,1,3.2,1.16,5.87,5.87,0,0,1,1.69,2.38c.23,1.05.35,1.39.84,1.39a2,2,0,0,0,2-1.89,5,5,0,0,0-1.29-2.82A6.64,6.64,0,0,0,26.4,9.51Z"/><path class="cls-1" d="M53.18,12.81l-.12.07c-2.36,1.28-3.31,1.77-5.18,2.61V10h4.8a.53.53,0,0,0,.52-.56,1,1,0,0,0-.33-.71L50.5,6.84l-1.62,2h-1V2.47l.95-.61a.93.93,0,0,0,.52-.75.9.9,0,0,0-.8-.85L45.47,0V8.86h-.33c-1.93,0-2.39,0-4.83-.14h-.17l.35,1.37h.1l2-.06h.65l2.18,0v6.56l-.43.18c-1.82.78-2.37,1-4.86,2l-.16.07L42,21c.43.46.64.65.89.65s.51-.34.62-.66l.31-.93L45.47,19v9.48c0,.69-.19.85-1,.85L41,29.16l-.2.75L44,31c.56.2.56.22.56.67a1.27,1.27,0,0,0,.2.94.5.5,0,0,0,.39.16,3.18,3.18,0,0,0,1.7-.75,2.26,2.26,0,0,0,1.06-2.11V17.48l5.64-3.83Z"/><path class="cls-1" d="M64.05,20h9.08a.52.52,0,0,0,.56-.52.92.92,0,0,0-.41-.68l-2.72-2.3-2.31,2.38H63.54v-2l.69-.47c.49-.32.71-.49.71-.86,0-.55-.6-.68-1.13-.74l-2.61-.19v4.22H58.41c-.46,0-1.24,0-2.13-.05L52,18.69l.49,1.44h.09C55.82,20,57.07,20,58.41,20h1.73a32.51,32.51,0,0,1-9.36,9.45c-.57.34-.85.55-.85.86a.41.41,0,0,0,.41.41,16.87,16.87,0,0,0,3.74-2c2.24-1.41,3.53-2.49,7.12-6v9.13a.51.51,0,0,0,.48.56c1,0,1.86-.61,1.86-1.24V21.45a21.67,21.67,0,0,0,7.86,8.88l.09.06.07-.07a10.64,10.64,0,0,1,2.64-2.18l.21-.13-.23-.09C69.53,26.08,65.67,23.05,64.05,20Z"/><path class="cls-1" d="M53.51,8.25c1.3,0,2.39-1.72,2.39-3.76,0-.17,0-.56-.06-.92H58.5c-.09,5.86-1.36,8.35-5.37,10.6-.84.44-1,.57-1,.83a.35.35,0,0,0,.34.34c.2,0,.2,0,1.84-.58a13.79,13.79,0,0,0,3.53-2.22c1.95-1.77,2.73-4,3.06-9h2.17v7.11c0,2.38.73,2.83,4.59,2.83a19.89,19.89,0,0,0,4.9-.34c.69-.28,1.13-.75,1.13-1.19a.9.9,0,0,0-.26-.59c-.82-.83-.82-.83-.82-1.21A19,19,0,0,1,72.78,8c0-.22.11-.69.18-1.23l0-.1-.8-.25,0,.12c-1.41,4.32-1.49,4.5-2.22,4.63a15.4,15.4,0,0,1-1.73.1H66.43a2.77,2.77,0,0,1-.89-.13v0l0,0s-.13-.24-.13-.62V3.57h3.81L67.25,7.21l.39.39,3.8-2.23h1.33c.77,0,1.17-.26,1.17-.77a1.31,1.31,0,0,0-.44-.92L70.63.88,69.47,2.46H55.61L54.89.62,54.2.67l0,.13c.06.46.14,1.1.14,1.35a3.45,3.45,0,0,1-.62,2.23c-1.54,2-1.54,2-1.54,2.56A1.33,1.33,0,0,0,53.51,8.25Z"/><path class="cls-1" d="M111.79,22.72c-.2,0-.37.14-.53.42a14.36,14.36,0,0,1-3,2.89,13.3,13.3,0,0,1-7.81,2.89c-4.4,0-6.36-2.22-6.36-7.19A77.3,77.3,0,0,1,95.57,9.42a9.52,9.52,0,0,0,.55-2.77c0-2.28-1.81-4.44-3.73-4.44-.82,0-1.71.32-1.71.84,0,.07,0,.31.45.31,1.15,0,1.64.94,1.64,3.15,0,.43,0,.43-.21,3.44l0,.37c-.66,9-.7,9.53-.7,11.67,0,3.33.66,5.45,2.2,7.1a8.06,8.06,0,0,0,6.1,2.31c3.81,0,7.06-1.57,10-4.8,1.28-1.47,2.08-2.78,2.08-3.43A.42.42,0,0,0,111.79,22.72Z"/><path class="cls-1" d="M142,5.84c-8.17,0-14.81,6.29-14.81,14a8.51,8.51,0,0,0,1.9,5.77A3.32,3.32,0,0,0,131.67,27c1.91,0,3.88-1.33,6-4.08a19.82,19.82,0,0,0,4.42-11.52,33.28,33.28,0,0,0-.49-4.24l.87,0A9.15,9.15,0,0,1,148,9c2,1.52,3.05,4,3.05,7.21A13,13,0,0,1,147,26.17a16.24,16.24,0,0,1-6.76,3.54c-.54.16-.7.2-.7.41s.29.45.59.45a21.54,21.54,0,0,0,5-1.2c5.74-2.06,9.16-6.75,9.16-12.53C154.22,10.36,149.19,5.84,142,5.84ZM131.85,24.52c-1.29,0-2.25-1.95-2.25-4.55a12.66,12.66,0,0,1,10.34-12.6l0,.08a6.76,6.76,0,0,1,.46,2.44,22.88,22.88,0,0,1-2.5,8.44C136.19,21.63,133.35,24.52,131.85,24.52Z"/><path class="cls-1" d="M189.3,11.24a3.65,3.65,0,1,0-3.65-3.69A3.66,3.66,0,0,0,189.3,11.24Zm0-5.83a2.17,2.17,0,0,1,2.21,2.18,2.18,2.18,0,1,1-2.21-2.18Z"/><path class="cls-1" d="M195.16,21.2h0c-3.29-1.35-6.8-3.83-12.53-8.87-1.88-1.66-2.12-1.8-3.21-1.8s-1.9.37-3.26,1.73c-1.51,1.51-3.87,3.65-4.67,4.27-1.24,1-1.55,1.13-2.08,1.13a1.41,1.41,0,0,1-1.32-.74c-.11-.32-.2-.48-.44-.48a.36.36,0,0,0-.38.41,5.74,5.74,0,0,0,.15,1.61,3.51,3.51,0,0,0,3,2.29c.84,0,1.21-.34,2.26-1.7.08-.11.27-.31.52-.6l.55-.62.15-.16c.25-.29.6-.68,1-1.25,2.89-3.34,3.44-3.84,4.23-3.84s1.48.43,2.64,1.62a118.84,118.84,0,0,0,8.87,8c2.74,2.16,4.49,3.12,5.66,3.12a1.48,1.48,0,0,0,1.63-1.38,2.37,2.37,0,0,0-.75-1.67C196.72,21.78,196.6,21.73,195.16,21.2Z"/><path class="cls-1" d="M236.14,15.09a9.17,9.17,0,0,0-1,.08,167.72,167.72,0,0,1-20.79,1.47c-2,0-2.86-.33-3.31-1.34-.1-.17-.21-.31-.4-.31s-.41.22-.41.55a10.58,10.58,0,0,0,.26,2.06,4.46,4.46,0,0,0,3.28,2,7.52,7.52,0,0,0,1.69-.26,97.31,97.31,0,0,1,15.09-1.18c1.64,0,4.44,0,5.21.1s1,0,1.34,0c1.25,0,2-.37,2-1,0-.37-.26-.74-1-1.42A2.54,2.54,0,0,0,236.14,15.09Z"/><path class="cls-1" d="M257,7.1h0a7.74,7.74,0,0,1,5.21,4c.39.78.63,1,1.33,1a1.75,1.75,0,0,0,1.67-1.82c0-1.18-.66-2.13-2.07-3h0a10.74,10.74,0,0,0-4.78-1.16c-.55,0-1.82,0-1.82.59C256.57,6.91,256.65,7.1,257,7.1Z"/><path class="cls-1" d="M258,17.62a1.39,1.39,0,0,0,1.33.93,1.65,1.65,0,0,0,1.57-1.6c0-1.11-.61-2-2-2.92h0a9.12,9.12,0,0,0-4.31-1.2c-.57,0-1.42.12-1.42.48s.27.33.4.37A8,8,0,0,1,258,17.62Z"/><path class="cls-1" d="M272.31,4a6.39,6.39,0,0,1,3.28,2.82c.31.61.56.79,1.12.79A1.37,1.37,0,0,0,278,6.26c0-1.58-2.38-3-5-3-.26,0-1.13,0-1.13.38S272.07,3.89,272.31,4Z"/><path class="cls-1" d="M279.59,8c-.22,0-.39.21-.68.63a39.75,39.75,0,0,1-3.84,4.78,73.47,73.47,0,0,1-11,9.48c-2.73,1.77-4.89,2.75-6.08,2.75a2.56,2.56,0,0,1-2.49-1.32l-.08-.11c-.23-.31-.3-.41-.49-.41s-.45.12-.45.67a3.39,3.39,0,0,0,.56,2.22c.84,1.4,2.37,2.58,3.34,2.58a1,1,0,0,0,.77-.39c.07-.06.59-.36,1.53-.91l.21-.12a52.68,52.68,0,0,0,15.55-13.24c1.65-2.19,3.56-5.33,3.56-6.09C280,8.29,279.79,8,279.59,8Z"/><path class="cls-1" d="M277.07,1.63c-.35,0-1.24.08-1.24.41,0,.07,0,.24.34.3a6.48,6.48,0,0,1,3.45,2.93,1.18,1.18,0,0,0,1.12.79,1.4,1.4,0,0,0,1.31-1.35C282.05,3.16,279.59,1.63,277.07,1.63Z"/><path class="cls-1" d="M316,23.33c0-1.66-.15-3.73-.4-6.72l0-.24c-.09-1.08-.16-1.79-.16-2.15a3.83,3.83,0,0,1,0-.51c0-.15,0-.32,0-.49a14.51,14.51,0,0,0,3.89-1.71c.93-.56,1.61-1.38,1.61-1.94a1.58,1.58,0,0,0-1.31-1.21,2,2,0,0,0-.32.05l-.18,0a3.1,3.1,0,0,1-.58,0,4,4,0,0,1-2.85-1.22,4.4,4.4,0,0,1,.48-1.49,1.08,1.08,0,0,0,.11-.44,1.38,1.38,0,0,0-.69-1.11A4.59,4.59,0,0,0,313,3a3,3,0,0,0-1.88.85c-.4.32-.51.44-.51.57a.27.27,0,0,0,.23.23.38.38,0,0,0,.17,0h.19a1.77,1.77,0,0,1,1.93,1.63c.11.5.14,2.67.17,5.26a27.71,27.71,0,0,1-4.44.45c-1.69,0-2.81-.46-3.15-1.27-.06-.29-.22-.35-.34-.35a.33.33,0,0,0-.31.34,4.86,4.86,0,0,0,.56,2.12,3,3,0,0,0,2.77,1.43,29.63,29.63,0,0,0,4.92-.55c0,2,.07,2.66.23,5.49l0,.38c.1,1.78.11,2.29.11,3.33a16.47,16.47,0,0,0-3.16-.3c-3.73,0-6.24,1.47-6.24,3.65s2.41,3.76,5.6,3.76c3.43,0,5.54-1.63,6.1-4.71a13,13,0,0,1,3.91,3.51,1.79,1.79,0,0,0,1.51.95,1.44,1.44,0,0,0,1.49-1.49C322.88,26.32,320.45,24.57,316,23.33ZM317.37,10c0,.14-.63.62-2.09,1.12a19.91,19.91,0,0,1,.22-3l.39.4c.51.52.95,1,1.28,1.24C317.35,9.88,317.37,10,317.37,10Zm-7,14.05a15.94,15.94,0,0,1,3.1.37c-.37,2.5-1.53,3.31-4.68,3.31-1.59,0-2.61-.6-2.61-1.53C306.18,24.94,307.9,24.05,310.37,24.05Z"/><path class="cls-1" d="M301.7,16.14c-.26,0-.26,0-.84,1.22l-2.06,5.31c-.06.21-.2.59-.37,1.06l-.09.23c-.23.67-.48,1.36-.71,1.36s-.74-1.41-.74-4.09c0-3.42.66-6,2.83-11.22a6.28,6.28,0,0,0,.7-2.57,4.1,4.1,0,0,0-1.19-2.64,5.31,5.31,0,0,0-2.9-1.51.32.32,0,0,0-.34.3c0,.13.07.19.16.28a3.22,3.22,0,0,1,1.21,3,12.25,12.25,0,0,1-.61,3.57,41.85,41.85,0,0,0-1.77,11c0,3.66.5,6.08,1.68,8.1a3.46,3.46,0,0,0,2.52,1.93,1.39,1.39,0,0,0,1.2-1.32,1.36,1.36,0,0,0-.19-.62A5.29,5.29,0,0,1,299.7,27a31.7,31.7,0,0,1,2.11-9.6c.07-.21.12-.36.16-.46a1.05,1.05,0,0,0,.1-.37A.41.41,0,0,0,301.7,16.14Z"/><path class="cls-1" d="M365.71,29.39c-.63-.21-.82-.43-.82-1l.15-4.86-1.1-.18-.77,4.37c-.38,1.84-.38,1.84-7,1.91l-2.08,0-.48,0c-.07,0-.09-.1-.09-.63V20.71h3.39V22.6c0,.58.36.7.66.7A3.83,3.83,0,0,0,359,23a.78.78,0,0,0,.58-.77v-18l.85-.26c.46-.15.55-.42.55-.62a.84.84,0,0,0-.36-.63L358,.41,357,2.14H342.38l-3-1.87v22.9a.58.58,0,0,0,.62.56c1,0,1.93-.55,1.93-1.13V20.71h3.55c-.66,6.53-3,8.87-11.13,11.34-.36.14-.7.3-.7.63s.2.45.52.45a16.55,16.55,0,0,0,2-.33,25.79,25.79,0,0,0,6.19-1.92c3.52-1.81,5.05-4.48,5.81-10.17h2.76V30.1c.26,1.78.66,1.91,6.1,1.91,6.13-.11,6.13-.11,7.47-.36s1.87-.74,1.87-1.57C366.37,29.66,366.17,29.53,365.71,29.39Zm-8.77-14.48v4.68H342V14.91Zm0-5.9v4.75H342V9ZM342,7.86V3.29h15V7.86Z"/><path class="cls-1" d="M396.34,7.61c-4.21,0-8.77,1.5-14.36,4.73-2,1.16-2.43,1.35-3.28,1.35a2.27,2.27,0,0,1-2.33-1.81c0-.14-.08-.28-.3-.28-.41,0-.45.35-.45.74a4.36,4.36,0,0,0,.71,2.77,4.82,4.82,0,0,0,3.41,1.82c.74,0,1.13-.21,2.1-1.11a46.31,46.31,0,0,1,4.74-3.45,20.3,20.3,0,0,1,9.69-3.11c4,0,6.5,2.5,6.5,6.53,0,5.42-5.19,9.69-13.54,11.15-.53.06-.79.1-.79.34s.42.63.88.63A39.52,39.52,0,0,0,397.86,26c5.34-2.06,8.29-5.67,8.29-10.16C406.15,11,402.11,7.61,396.34,7.61Z"/><path class="cls-1" d="M432.52,10.38a10.64,10.64,0,0,0-3,.56,31,31,0,0,0,1.09-5.55c0-.58-.27-.94-1.1-1.47A4.57,4.57,0,0,0,427,3.11c-.75,0-2.25.69-2.25,1.13a.26.26,0,0,0,.27.27,1.57,1.57,0,0,0,.34,0h.13a2.58,2.58,0,0,1,1.31.38c.59.33.83.92.83,2a45.5,45.5,0,0,1-.52,4.62,32.87,32.87,0,0,1-6.12,1.3,1.49,1.49,0,0,1-1.51-.9c-.13-.27-.31-.43-.47-.43s-.45.13-.45.77c0,1.71,1.13,3.26,2.36,3.26a3.48,3.48,0,0,0,1.35-.41c1.56-.69,3.24-1.38,4.46-1.85-2,6-4.81,11.1-7.74,14a1.6,1.6,0,0,0-.61,1.17A1.5,1.5,0,0,0,420,30a2.3,2.3,0,0,0,2-1.17,52.15,52.15,0,0,0,2.6-4.7,84.68,84.68,0,0,0,4.56-11.66,9.8,9.8,0,0,1,3.21-.76c1.69,0,2,2,2,3.66a24.12,24.12,0,0,1-1.15,7.34c-.77,2.28-1.78,3.44-3,3.44-.68,0-1.61-.59-2.94-1.84-.46-.47-.61-.47-.66-.47s-.38.26-.38.45.14.45.57.91c1.35,1.67,1.67,2.29,1.85,3.46.07.74.26.94.84.94a6.11,6.11,0,0,0,4.24-2.06c1.7-2.1,3-6.74,3-10.81a9.69,9.69,0,0,0-.81-4.49A3.94,3.94,0,0,0,432.52,10.38Z"/><path class="cls-1" d="M441,9.23c-1.15,0-1.64.13-1.64.45a.25.25,0,0,0,.29.26h0a6.22,6.22,0,0,1,2.55.68c2.29,1.06,4,3.38,4,5.39,0,.74-1.11,1.23-3.93,1.75-.45.07-.64.11-.64.45a.39.39,0,0,0,.41.41,1.4,1.4,0,0,0,.38,0l1.6,0a4.77,4.77,0,0,1,2.58.65c.66.51.69.53,1.05.53,1,0,1.68-1.1,1.68-2.68A8.12,8.12,0,0,0,441,9.23Z"/><path class="cls-1" d="M477.56,8c-1.59,0-3.16,1-4.53,2.78a20.38,20.38,0,0,0-2.14,3.92c-.18.51-.33.6-.53.6s-.28-.4-.28-.52a20.65,20.65,0,0,1,3-9.14c.69-.94.82-1.22.82-1.77s-.35-1-1-1.6a4.25,4.25,0,0,0-2.78-1.15c-.74,0-2.36.39-2.36.81s.28.27.41.27a2.35,2.35,0,0,1,2.29,1.93,21.44,21.44,0,0,1-1,4.25,27.9,27.9,0,0,0-1.3,8.09c0,3.62,1,6.25,2.35,6.25A1.59,1.59,0,0,0,471.81,21a.87.87,0,0,0-.15-.55,5.4,5.4,0,0,1-.32-1.9,12.91,12.91,0,0,1,2-6.06c1.05-1.78,2.46-2.85,3.7-2.78,1.83.11,2.76,2.62,2.76,7.47,0,5.51-1.64,9.65-4.89,12.32a11.13,11.13,0,0,1-5.32,2.39c-.24,0-.41.11-.41.27,0,.33.43.66.85.66a16.48,16.48,0,0,0,5.09-1.6c4.92-2.53,7.63-7.26,7.63-13.32a18.42,18.42,0,0,0-1.27-7.29A4.54,4.54,0,0,0,477.56,8Z"/><path class="cls-1" d="M526.46,14.53c0-.69-.4-.84-.73-.84A6.8,6.8,0,0,1,522,12.38c-.38-.23-.46-.27-.57-.27a.42.42,0,0,0-.34.41c0,.12.09.21.23.35,1.26,1,1.42,1.24,1.42,1.3,0,.5-1.45,1.36-4.65,2.12,0-.55,0-1,0-1.35s0-.62,0-.73V11c3.34-.73,4.31-1.13,4.31-1.76s-1.05-1.35-1.93-1.56l-.08,0-.05.07c-.26.39-.65.56-2.17.92A11.77,11.77,0,0,1,519,4.22a1.86,1.86,0,0,0,.27-.74c0-.51-.49-.83-1.27-1.19A11,11,0,0,0,515,1.56a1.76,1.76,0,0,0-1.31.53c-.51.44-.51.44-.51.57s.18.19.37.19a3,3,0,0,1,1.63.41c.55.39.59.42.63,3.25,0,.29,0,.53,0,.76,0,.48,0,.94.07,1.83a11.68,11.68,0,0,1-2.35.23c-1.62,0-2.66-.6-2.86-1.63a.21.21,0,0,0-.2-.24c-.22,0-.38.26-.38.6a3.39,3.39,0,0,0,3.44,3.5,19.6,19.6,0,0,0,2.47-.23c.1,1.54.14,2.53.17,5.29a21.75,21.75,0,0,1-3.25.24c-3.48,0-5.36-.67-6.27-2.25-.15-.23-.18-.27-.32-.27s-.41,0-.41.48c0,2.92,2,4.16,6.75,4.16a26.09,26.09,0,0,0,3.51-.23v1.11l.07,4.22,0,.21a22.19,22.19,0,0,0-2.85-.23c-4,0-6.78,1.54-6.78,3.76s2.48,3.76,6.31,3.76a6.49,6.49,0,0,0,4.84-1.73,3.63,3.63,0,0,0,1.22-3A14.35,14.35,0,0,1,523.86,31a1.15,1.15,0,0,0,.93.56,1.48,1.48,0,0,0,1.45-1.57c0-1.66-3.27-3.89-7.46-5.1-.18-1.55-.47-4.35-.56-6.42C523.53,17.31,526.46,15.94,526.46,14.53Zm-13.05,11a10,10,0,0,1,2.86.4v.12c0,2.51-1,3.44-3.54,3.44s-4-.74-4-1.89S510.58,25.53,513.41,25.53Z"/><path class="cls-1" d="M572.59,10.88a10.06,10.06,0,0,1-4.47-1.46.77.77,0,0,0-.39-.16.37.37,0,0,0-.3.38c0,.14.09.21.37.42.56.44.8.64,1.05.87l-2.94.6-.77.15c.37-4.27.59-6.14.76-6.44l0-.14a.92.92,0,0,0,0-.25C566,4.26,563.4,3,562.48,3c-.51,0-2,.69-2,1.06,0,.16.18.27.34.27a1.12,1.12,0,0,0,.27,0h.13a2.18,2.18,0,0,1,1.28.5,3.46,3.46,0,0,1,.61,2.47c0,.61,0,1.24-.12,3.59l-.06,1.31c-1.81.34-2.07.39-8.19,2l-1,.27c.34-3.22.52-4.93.63-5.46l0-.11a2.68,2.68,0,0,0,0-.45,1.44,1.44,0,0,0-1-1.09,8.7,8.7,0,0,0-2.75-.8,2.53,2.53,0,0,0-1.72.7c-1.07.66-1.07.86-1.07.94a.29.29,0,0,0,.31.27.73.73,0,0,0,.27,0,4.15,4.15,0,0,1,.88-.11,2,2,0,0,1,1.9.86,17,17,0,0,1,.19,3.54v2.29l-.77.16c-5,1.22-5,1.22-5.8,1.22a2.7,2.7,0,0,1-2.58-1.27c-.11-.2-.17-.32-.37-.32s-.3.28-.3.38a3.65,3.65,0,0,0,.86,2.67,4.72,4.72,0,0,0,2.32,1.67c.29,0,.35,0,1-.41a42.6,42.6,0,0,1,5.72-2.35c.22,6.78.38,8,1.27,9.6,1.32,2.42,4.56,3.6,9.9,3.6,4.25,0,6.14-.54,6.14-1.75a2.2,2.2,0,0,0-2-1.74,2.62,2.62,0,0,0-1.08.25,19.18,19.18,0,0,1-4.93.65c-3,0-4.73-.55-6-1.87-1-1.09-1.37-3.15-1.37-6.68,0-.91,0-1.63.1-2.79a47.67,47.67,0,0,1,9.25-2.4c-.43,5.5-1.23,6.32-1.67,6.32-.28,0-.29,0-3-1.57-1.18-.66-1.18-.66-1.32-.66a.4.4,0,0,0-.34.41c0,.18,0,.25.34.43,1.81,1.35,2.8,2.62,3,3.89.1.4.15.56.44.56a3.81,3.81,0,0,0,1.12-.33,3.87,3.87,0,0,0,2.12-1.38c.69-1,1-2.55,1.45-7.91,2-.14,2.7-.17,3.56-.17a18.32,18.32,0,0,1,4.17.46,2.44,2.44,0,0,0,.69.11.93.93,0,0,0,1-.88A1.72,1.72,0,0,0,572.59,10.88Z"/><path class="cls-1" d="M614.39,22.47c-.19,0-.28.22-.33.41-1.56,3.93-4.3,6.18-7.52,6.18-1.63,0-2.36-.81-2.36-2.61a29.23,29.23,0,0,1,.76-5.38v0a10.56,10.56,0,0,0,.24-2,4.54,4.54,0,0,0-4.62-4.66c-2.11,0-5.34,1.86-7.52,4.33-.12.16-.16.17-.29.17a.2.2,0,0,1-.2-.16,6.68,6.68,0,0,1,.88-1.67A60.39,60.39,0,0,1,601.19,7c.78-.74,1-1.17,1-1.82,0-1.56-2.21-3.33-4.15-3.33-.69,0-2,.19-2,.63,0,.26.19.31.33.34a2.06,2.06,0,0,1,2.11,1.86c0,.62-.26,1.16-1.34,2.77-6.27,9.36-10.64,18.63-10.64,22.53a1.35,1.35,0,0,0,.47,1.14,3.09,3.09,0,0,0,1.67.75c.35,0,.8-.27.95-1.56.43-5.15,1.7-8.46,4.14-10.71s4.44-3.35,6.14-3.35a2.3,2.3,0,0,1,2.57,2.43,13.45,13.45,0,0,1-.32,2.57,32.24,32.24,0,0,0-.58,5.1c0,3,1.73,4.84,4.63,4.84a8.45,8.45,0,0,0,7-3.7A12,12,0,0,0,614.8,23,.49.49,0,0,0,614.39,22.47Z"/><path class="cls-1" d="M649.74,27.37a1.48,1.48,0,0,0-.49,0,11.38,11.38,0,0,1-2.57.25c-4.45,0-6.1-1.63-6.1-6a24.56,24.56,0,0,1,1-7.19c.84-2.61,2.81-5.17,4.69-6.09a11.2,11.2,0,0,1,4.33-1,9.56,9.56,0,0,1,2.59.39,3.12,3.12,0,0,0,1.16.26c.63,0,1.09-.36,1.09-.85a4,4,0,0,0-1-1.74,2.78,2.78,0,0,0-2-1.12c-.55,0-.55,0-4.49,1l-3.2.82C640.93,7,638,7.79,632.57,9.41a6.63,6.63,0,0,1-2.66.57c-1.26,0-1.92-.32-2.27-1.12-.07-.14-.13-.25-.32-.25A.34.34,0,0,0,627,9a4.37,4.37,0,0,0,.78,2.63,5,5,0,0,0,2.8,1.53c.64,0,1-.15,2-.89,2.35-1.71,9.64-4.56,11.7-4.56h0s0,.1-.13.19A11,11,0,0,0,642.3,10a21.85,21.85,0,0,0-4.38,12.75c0,5.06,3.93,8.08,10.53,8.08,2.06,0,3.43-.22,3.43-1.25A3.35,3.35,0,0,0,651.2,28,1.91,1.91,0,0,0,649.74,27.37Z"/><path class="cls-1" d="M652.19,11.06c-1.42,0-1.42.31-1.42.42s.21.24.34.26a6,6,0,0,1,3.63,3c.23.46.48.65.87.65A1.44,1.44,0,0,0,657,13.92C657,12.48,654.61,11.06,652.19,11.06Z"/><path class="cls-1" d="M648.45,13c-1.35,0-1.35.28-1.35.37s.17.27.37.3a5.71,5.71,0,0,1,3.46,2.82c.26.47.51.75.94.75a1.45,1.45,0,0,0,1.38-1.38C653.25,14.42,650.87,13,648.45,13Z"/><path class="cls-1" d="M696.43,22.72c-.2,0-.38.15-.53.42a14.36,14.36,0,0,1-3,2.89,13.3,13.3,0,0,1-7.81,2.89c-4.4,0-6.36-2.22-6.36-7.19a77.44,77.44,0,0,1,1.51-12.31,9.52,9.52,0,0,0,.55-2.77c0-2.28-1.81-4.44-3.73-4.44-.82,0-1.71.32-1.71.84,0,.07,0,.31.45.31,1.15,0,1.64.94,1.64,3.15,0,.43,0,.43-.21,3.44l0,.37c-.66,9-.69,9.53-.69,11.67,0,3.33.65,5.45,2.19,7.1a8.06,8.06,0,0,0,6.1,2.31c3.8,0,7.06-1.57,10-4.8,1.28-1.47,2.08-2.78,2.08-3.43A.42.42,0,0,0,696.43,22.72Z"/><path class="cls-1" d="M728.48,13.9c.11,0,.14,0,.28-.13a5.62,5.62,0,0,1,3-.73c1.59,0,2.93.5,2.93.81,0,.13-.48.4-1.3.82s-2,1.05-2,1.34a.36.36,0,0,0,.31.31.31.31,0,0,0,.21-.06,11.38,11.38,0,0,1,3.6-.84,5.55,5.55,0,0,1,2.08.42l.07,0A1,1,0,0,0,738,16c.54,0,.92-.48.92-1.17,0-1.8-2.64-3.37-5.64-3.37a7.51,7.51,0,0,0-4.17,1.21c-.36.24-.92.77-.92,1A.34.34,0,0,0,728.48,13.9Z"/><path class="cls-1" d="M738.23,27.12a2.73,2.73,0,0,0-.68.11,15.22,15.22,0,0,1-3.75.35c-4.67,0-6.5-1.13-6.5-4a8.25,8.25,0,0,1,.36-2.33.89.89,0,0,0,0-.29.36.36,0,0,0-.34-.35c-.67,0-1.42,2.72-1.42,4.16,0,3.84,3.09,5.71,9.45,5.71,3.3,0,4.48-.46,4.48-1.75A1.66,1.66,0,0,0,738.23,27.12Z"/><path class="cls-1" d="M727.77,8.27a.73.73,0,0,0-.66-.77.79.79,0,0,0-.2,0h-.16c-.68,0-1.77-.45-3.64-1.52.18-.78.32-1.3.48-1.78a1.57,1.57,0,0,0,.08-.39c0-.74-1.71-1.56-2.86-1.56-.89,0-2.72.92-2.72,1.49a.28.28,0,0,0,.27.27h.14a3,3,0,0,1,.58-.07c1.19,0,1.57.44,1.57,1.82a27.73,27.73,0,0,1-.53,4.91,18.79,18.79,0,0,1-5.36,1.08,3,3,0,0,1-2.91-1.48c-.12-.24-.26-.35-.44-.35s-.27.18-.27.34a4.06,4.06,0,0,0,3.73,3.87,18.74,18.74,0,0,0,4.76-1.2c-1.25,5.66-4,13-5.87,15.54a3,3,0,0,0-.67,1.66A1.77,1.77,0,0,0,715,31.72c1.07,0,1.68-.76,2.42-3a134.7,134.7,0,0,0,4.49-16.51C726.34,10.39,727.77,9.43,727.77,8.27Zm-2.95.15c0,.21-1,.92-2.55,1.62.5-2.51.53-2.73.57-3a3.58,3.58,0,0,1,.09-.36C724.24,7.72,724.82,8.21,724.82,8.42Z"/></g></g></svg>