<svg xmlns="http://www.w3.org/2000/svg" viewBox="0 0 655 57.1"><defs><style>.cls-1{fill:#fff;}</style></defs><g id="レイヤー_2" data-name="レイヤー 2"><g id="レイヤー_1-2" data-name="レイヤー 1"><path class="cls-1" d="M28.1,0h-3L.1,38.8H0v3H22v6.5c-.2,3.1-.5,3.5-8.2,3.5h-.5v3.5H35V51.9h-.4c-6.3-.1-6.5-.4-6.5-3.4V41.9h7.6V38.5H28.1ZM4.1,38.5,22,10.9V38.5Z"/><path class="cls-1" d="M74.2,7.3A13.9,13.9,0,0,0,50.9,5.6C47.1,10,45,18.2,45,28.2c0,17.4,6.6,28.2,17.3,28.2,5.6,0,9.6-2.7,12.6-8.6s3.8-11.2,3.8-19S77.1,12.4,74.2,7.3ZM61.9,3.7c6.7,0,9.9,8.4,9.9,25.8,0,7.6-.7,13.2-2.2,17.1s-4.4,6.3-7.5,6.3-6.1-2.5-7.6-6.1-2.6-10.5-2.6-18.3.5-12.1,1.6-16h0C55,6.6,57.9,3.7,61.9,3.7Z"/><path class="cls-1" d="M108.8,48.4c-.2,3.1-.6,3.5-8.2,3.5h-.5v3.5h21.7V51.9h-.5c-6.2-.1-6.5-.4-6.5-3.4V41.9h7.6V38.5h-7.6V0h-2.9l-25,38.8h-.1v3h22ZM90.9,38.5l17.9-27.6V38.5Z"/><path class="cls-1" d="M188.3,4.5H191c3.5.1,5.3,2.7,5.3,7.6V44.3l-33.7-43V1.1h-15V4.5h3.3c5,.2,6,1.2,6.1,6V43c-.1,6-2.1,8.6-6.8,8.9l-2.6.2v3.3h22V52.1l-3-.3c-4.2-.3-5.9-3-6-9.3V9.2l37.4,47.9h1.9v-45c0-3.4.9-7.4,5.4-7.5h3.1V1.1h-20Z"/><path class="cls-1" d="M241.3,56.4c15.5,0,27.3-12.3,27.3-28.6S256.7,0,241.6,0s-28.3,12-28.3,28c0,8.1,2.7,15.1,7.9,20.1A29.3,29.3,0,0,0,241.3,56.4Zm-.4-52.7c11.5,0,19.5,9.8,19.5,23.8s-7.9,25.4-18.8,25.4a19.3,19.3,0,0,1-14.1-5.8c-3.8-4.2-6.2-11.6-6.2-19.3C221.3,13.6,229.4,3.7,240.9,3.7Z"/><path class="cls-1" d="M277.2,15.2a33.7,33.7,0,0,1,6.5-7.1,16.9,16.9,0,0,1,10.5-3.6c3.8,0,4.9,1.4,4.9,6.1V45.3c0,2.8-.2,4.7-1.1,5.6s-2.8,1.1-5.7,1.2h-2.8v3.3h25.8V52h-3.7c-5.4-.3-5.7-.7-5.8-6.7V10.6c0-5.3,1-6.1,4.5-6.1a17,17,0,0,1,10.6,3.8c2.4,1.8,2.4,1.8,6.6,7.3l.3.4,2.9-1.9L325,1.1H279.5l-5.2,13,2.7,1.4Z"/><path class="cls-1" d="M395.3,15.1l2.8-1.5-5-12.5H350.4V4.6h2.9c4.3,0,5.5,1.7,5.6,7.9V47.4c-.1,3.2-1.7,4.7-5.4,4.7h-3.1v3.3h23.7V52h-3.7c-4-.1-4.9-1.3-5-6.6V29h9.2c5.2.3,7.2,2.4,7.8,7.8v.5h3.2V18.1h-3v.4c-1.4,6.1-2.3,7-7.2,7.1h-9.9V9.5c0-3.8,1.4-5,9.2-5,6,0,10.1.9,13.3,3s3.5,2.6,7.2,7.3Z"/><path class="cls-1" d="M432.5,56.4c15.6,0,27.3-12.3,27.3-28.6S447.9,0,432.8,0s-28.3,12-28.3,28c0,8.1,2.7,15.1,7.9,20.1A29.3,29.3,0,0,0,432.5,56.4Zm-.4-52.7c11.5,0,19.5,9.8,19.5,23.8s-7.9,25.4-18.7,25.4a19.5,19.5,0,0,1-14.2-5.8c-3.8-4.2-6.2-11.6-6.2-19.3C412.5,13.6,420.6,3.7,432.1,3.7Z"/><path class="cls-1" d="M475.1,10.1V36.5c0,7.3,1.9,12.2,6.1,15.5s10.2,4.9,16.9,4.9,12.8-2.1,16.7-6.2,4.4-7.1,4.4-18.2V11.2c.1-3.9,1.8-6.1,5.1-6.5l2.8-.3V1.1H507.2V4.5H510c3.5.3,5.5,3,5.6,7.3V34.8c0,7.9-.7,10.5-3.3,13.6s-6.9,5-12.7,5-10.7-1.6-13.6-4.6-4-6.7-4-13.3V8.5c.1-2.9,1.3-3.9,4.8-4h3.3V1.1H467V4.5h3.1C474.3,4.7,475.1,5.7,475.1,10.1Z"/><path class="cls-1" d="M573.6,4.5h2.8c3.5.1,5.3,2.7,5.3,7.6V44.3L548,1.3V1.1h-15V4.5h3.3c5,.2,6,1.2,6.1,6V43c-.1,6-2.1,8.6-6.8,8.9l-2.6.2v3.3h22V52.1l-3-.3c-4.2-.3-5.9-3-6-9.3V9.2l37.4,47.9h1.9v-45c0-3.4.9-7.4,5.4-7.5h3V1.1h-20Z"/><path class="cls-1" d="M626.7,1.2H599.5V4.6h3.1c3.6,0,5,1.8,5,6.2V46.7c-.1,4-1.3,5.4-5,5.4h-3.1v3.3h28.2c15.8,0,27.3-11.1,27.3-26.5S642.5,1.2,626.7,1.2ZM614.3,9.6c0-3.9,1-5,7.8-5s12,1.5,15.6,4.1c5.7,4.3,9.1,12.2,9.1,21,0,14.5-8.5,22.4-23.9,22.4-7.9,0-8.6-.8-8.6-5.2Z"/></g></g></svg>