<svg xmlns="http://www.w3.org/2000/svg" viewBox="0 0 116.81 32.14"><defs><style>.cls-1{fill:#343434;}</style></defs><g id="Layer_2" data-name="Layer 2"><g id="Layer_1-2" data-name="Layer 1"><path class="cls-1" d="M6.52,9.21h5.86l1-1.43,2.2,1.76a1.25,1.25,0,0,1,.54.72c0,.21-.22.43-.54.54l-.72.21v8.36c0,.5-.72.86-1.7.86-.39,0-.54-.18-.54-.61V17.28H6.12C6,22,5.11,25.16,3,28.47,1.87,30.2.65,31.64.29,31.64A.31.31,0,0,1,0,31.32c0-.18.07-.33.5-.94,2.24-3,3.28-7.56,3.28-14.22,0-1.94-.07-3.89-.29-8.85ZM14.72.79,17.21,2.7a1.06,1.06,0,0,1,.39.72.4.4,0,0,1-.36.4h-12c-.8,0-1.08,0-4.43.1L.43,2.81l2.38.07L5.26,3h7.37ZM12.63,16.41V10.08H6.08v6.33ZM21,4.75A33.68,33.68,0,0,0,29.16.9l2.48,1.73c.43.29.65.57.65.83S32,4,31.53,4H30.16L20.84,5.76v7.05h7.78l1.94-2.23,2.66,2.27c.18.18.26.29.26.47a.4.4,0,0,1-.4.36H28V30.74c0,.47-.11.58-.58.79a6.87,6.87,0,0,1-1.4.36c-.29,0-.43-.21-.43-.65V13.68H20.88c-.22,6.26-.51,8.1-1.59,10.33A18.18,18.18,0,0,1,13.1,30.7a4.64,4.64,0,0,1-1.8.9.31.31,0,0,1-.29-.28c0-.22.11-.36.87-.9a16.32,16.32,0,0,0,4.71-5.62C18,22,18.47,19,18.47,11.88c0-2.74-.08-4.54-.36-8.53Z"/><path class="cls-1" d="M49.79,12l.46-1c.47-1,.8-1.66.9-1.87s.36-.9.65-1.62H49.61c-2.7.07-3.13.07-6.63.18l-.46-1.26,3,.11c2,.07,3.42.1,4.07.1h2.55A63.45,63.45,0,0,0,54.39,0l2.67,1c.72.29,1,.58,1,.94s-.21.43-.75.61l-.69.25L55.37,5.72l-.4.9H69l2.24-2.44L74,6.23a1.11,1.11,0,0,1,.5.79.48.48,0,0,1-.4.47H54.5a41.1,41.1,0,0,1-3.89,6.84V31.21c0,.47-.9.93-1.83.93-.32,0-.51-.14-.51-.46V17.31A28.17,28.17,0,0,1,44,21.45c-1.37,1.05-1.59,1.23-1.84,1.23a.39.39,0,0,1-.36-.36c0-.15,0-.15.9-1a49.25,49.25,0,0,0,5.61-6.73V11.12Zm11.37,6.26H58.21c-1.94.07-3.46.11-4.46.11l-.36-1.12c.86,0,2,.07,4.82.15h2.95V8.6l3.17.26c.54,0,.83.25.83.64a1,1,0,0,1-.54.83l-1.05.58v6.48h4.18l2-2.27L73,17.53a.34.34,0,0,1,.14.32c0,.22-.11.4-.25.4H63.57V29.16h5.29l2.38-2.74,3.6,2.92a.34.34,0,0,1,.14.32c0,.18-.1.36-.21.36H57.92c-3.63.11-3.71.11-5.83.14L51.66,29c3.17.14,4.5.18,6.26.18h3.24Z"/><path class="cls-1" d="M89,.43l2.84.25c.58,0,1,.33,1,.69s-.29.68-.76,1l-.83.47v7.34h1.33L94.28,8l2,2.12c.22.25.29.36.29.5a.45.45,0,0,1-.47.43H91.22V23.07c1.8-.36,2-.39,5-1.18l.29.54c-4.65,2.15-5.87,2.69-8.89,3.85l-.33.75a1.08,1.08,0,0,1-.86.69c-.22,0-.4-.15-.65-.43l-1.94-2.63c2.45-.44,2.8-.51,5.18-1.08V11l-2.41.08-2.59,0L83.56,10c2.66.11,3,.11,5.43.14ZM92.73,15c2.42-.68,2.81-.82,4.68-1.47V5.08l3.06.46a.58.58,0,0,1,.58.62.8.8,0,0,1-.5.68l-.87.47v5.32l4.68-1.72V.07L107.2.4c.47,0,.76.28.76.64s-.14.44-.5.69l-.9.57v7.78l4.35-1.66,1-2,2,1.83a2.59,2.59,0,0,1,1,1.37c0,.25-.33.54-.72.61l-.43.11v11c0,.86-.36,1.36-1.34,2a3.38,3.38,0,0,1-1.54.65c-.26,0-.36-.18-.4-.61-.11-.9-.18-1-.86-1.33l-2-.72v-.51h3c.8,0,.83,0,.87-.61v-11l-4.93,1.87V23.58c0,.36-.94.9-1.62.9-.4,0-.58-.22-.58-.69V11.84l-4.68,1.8V28a.63.63,0,0,0,.61.72c.33.08,3.53.15,5.37.15,2.41,0,5.94-.15,6.66-.25A1.86,1.86,0,0,0,114,27.21l1.44-4.46.54.18-.29,4.32v.39c0,.22,0,.22.83.9a.75.75,0,0,1,.28.58c0,.79-.68,1.26-2.08,1.48a50.46,50.46,0,0,1-6.45.39c-4.93,0-7.52-.07-8.45-.21-1.8-.26-2.42-.8-2.42-2V14.58c-1.72.61-2,.72-3.92,1.51Z"/></g></g></svg>