<svg xmlns="http://www.w3.org/2000/svg" viewBox="0 0 195.35 42.09"><defs><style>.cls-1{fill:#fff;}</style></defs><g id="Layer_2" data-name="Layer 2"><g id="Layer_1-2" data-name="Layer 1"><path class="cls-1" d="M30.74,12.49c-4.37,2.64-5.08,3-8.48,4.8-.65,8.59-3.13,14.37-8,18.85C12,38.25,6.93,41.59,6.06,41.59a.47.47,0,0,1-.48-.48c0-.27.16-.43.91-.92A24.63,24.63,0,0,0,15.94,30a37.44,37.44,0,0,0,2.87-13.12c0-1.56-.87-2.37-2.92-2.86-.59-.16-.81-.27-.81-.49s.16-.43,2-1.72a16.83,16.83,0,0,1,6,3.34C28,11.3,29.71,9.9,33.49,6.6,13.78,8.22,8.65,9,5.25,11.08a.83.83,0,0,1-.48.22A6.41,6.41,0,0,1,2.88,9.79C.5,7.3.5,7.3.5,6.82A2.26,2.26,0,0,1,1.9,4.6C3,6.17,4,6.93,4.93,6.93a7,7,0,0,0,.86-.11A9.54,9.54,0,0,0,7.2,6.66l6-.65c9-1,10.53-1.08,20.9-1.78l2-1.46A29.36,29.36,0,0,1,38.46,4.6c1.84,1.57,2.32,2.11,2.32,2.7s-.43.87-2.32.87H38c-1,.54-2.27,1.35-3.89,2.32Z"/><path class="cls-1" d="M6.06,42.09a1,1,0,0,1-1-1c0-.57.41-.87,1.14-1.34a24.13,24.13,0,0,0,9.27-10,37,37,0,0,0,2.82-12.91c0-1.09-.43-1.87-2.54-2.37-.54-.15-1.19-.33-1.19-1s.31-.79,2.21-2.13l.19-.14.23.06a18,18,0,0,1,5.89,3.18c4.28-3.31,6-4.77,8.91-7.25C13.76,8.75,8.71,9.58,5.51,11.51a1.28,1.28,0,0,1-.74.29c-.67,0-2.24-1.65-2.26-1.67C0,7.5,0,7.5,0,6.82a2.75,2.75,0,0,1,1.77-2.7L2.12,4l.2.29c1,1.42,1.83,2.11,2.61,2.11a6.14,6.14,0,0,0,.78-.1,9.55,9.55,0,0,0,1.4-.17l6.08-.65c9.13-1,10.73-1.09,20.77-1.77l2.11-1.58.29.19a29.09,29.09,0,0,1,2.41,1.86c1.95,1.66,2.51,2.27,2.51,3.09,0,1.37-1.37,1.37-2.82,1.37h-.3c-.63.35-1.39.82-2.29,1.36L31,12.92c-4.28,2.59-5.05,3-8.26,4.69-.69,8.53-3.22,14.37-8.19,18.9C12.46,38.45,7.23,42.09,6.06,42.09ZM15.7,13.42l.32.1c2.3.54,3.29,1.54,3.29,3.34A38.25,38.25,0,0,1,16.4,30.19,25.13,25.13,0,0,1,6.75,40.62a3.77,3.77,0,0,0-.68.51c.71-.1,5.45-3.17,7.81-5.36,4.82-4.39,7.25-10.1,7.88-18.51l0-.28.25-.13c3.4-1.78,4.09-2.15,8.45-4.79h0l4.86-2.89c1-.58,1.77-1.07,2.44-1.44l.11-.06h.56c1.82,0,1.82-.17,1.82-.37,0-.38-.48-.89-2.14-2.31-1.41-1.13-1.75-1.41-2-1.61L34.32,4.71h-.14c-10.56.72-12,.83-20.88,1.78l-6.05.65a8.49,8.49,0,0,1-1.46.17,5.33,5.33,0,0,1-.86.11c-1.07,0-2.09-.7-3.2-2.2A2,2,0,0,0,1,6.82c0,.27,0,.28,2.24,2.62A8.38,8.38,0,0,0,4.8,10.78a.53.53,0,0,0,.15-.1c3.54-2.13,8.59-2.94,28.5-4.58L35,6,33.82,7c-3.86,3.37-5.6,4.81-10.44,8.55l-.34.26-.31-.3a16.91,16.91,0,0,0-5.56-3.16C16.64,12.71,16,13.17,15.7,13.42Z"/><path class="cls-1" d="M83.34,6.93A14.92,14.92,0,0,1,85.82,9l.7.65c.65.64.87.91.87,1.24s-.44.7-1.62,1c-.65.27-.71.27-1,1A76.55,76.55,0,0,1,77.61,25c-4.1,5.61-7.77,8.85-15,13.28-3,1.84-5,2.86-5.45,2.86a.59.59,0,0,1-.59-.54c0-.27.21-.54.75-.81,11.4-7,18.52-15.55,24.14-28.94A67.69,67.69,0,0,0,70.27,12l-.81-.87A54.83,54.83,0,0,1,59.09,23c-2.05,1.83-4.7,3.72-5.24,3.72a.46.46,0,0,1-.43-.43c0-.32.16-.48.92-1.13,3.13-2.54,7.29-7.62,10.53-12.8,1.62-2.65,4.32-7.94,4.32-8.53,0-.43-.92-1.14-2.11-1.62-.7-.27-.81-.33-.81-.54S68.22.5,68.92.5s.75,0,4.37,2.27c1,.65,1.35,1,1.35,1.56s-.27.76-1.13,1.08a2.31,2.31,0,0,0-1,.76c0,.11-.16.32-.7,1.3-.38.59-.59.91-1,1.67l2-.05L76,8.92l3.84-.21c.21,0,.7-.06,1.45-.11Z"/><path class="cls-1" d="M57.2,41.66a1.09,1.09,0,0,1-1.09-1c0-.74.77-1.13,1-1.25,11-6.71,18.07-15.11,23.59-28a64.52,64.52,0,0,0-10.38,1l-.26,0-.55-.58A56,56,0,0,1,59.42,23.39c-1.5,1.34-4.67,3.85-5.57,3.85a1,1,0,0,1-.93-.93c0-.58.34-.87,1.09-1.51,3.09-2.5,7.18-7.48,10.43-12.68a63.1,63.1,0,0,0,4.25-8.3,4.81,4.81,0,0,0-1.8-1.13c-.72-.28-1.12-.43-1.12-1C65.77.8,68.34,0,68.92,0c.9,0,.9,0,4.64,2.34,1,.65,1.58,1.16,1.58,2s-.75,1.29-1.46,1.55a1.84,1.84,0,0,0-.78.57c-.06.13-.21.41-.68,1.26L72,8c-.13.21-.26.4-.39.62l1.1,0,7.06-.38.64,0,.65-.06L83.31,6.3l.31.22a15.4,15.4,0,0,1,2.55,2.1l.69.64c.66.66,1,1.05,1,1.61,0,.85-1,1.24-2,1.51-.46.19-.46.19-.64.67A77.37,77.37,0,0,1,78,25.31c-4.14,5.66-7.81,8.92-15.1,13.42C58.08,41.66,57.44,41.66,57.2,41.66Zm-.09-1a.14.14,0,0,0,.09,0c.11,0,.91-.18,5.19-2.79,7.17-4.42,10.77-7.61,14.82-13.15a75.22,75.22,0,0,0,7.12-12,1.62,1.62,0,0,1,1.18-1.21l.12-.05c1.14-.31,1.25-.54,1.26-.55s-.27-.43-.72-.88l-.69-.63a14.53,14.53,0,0,0-2.12-1.8L81.48,9.09l-1,.07-.7.05-7,.37-2.9.08.44-.77c.37-.64.58-1,.87-1.43l.17-.26C71.87,6.27,72,6.05,72,6l.07-.1A2.68,2.68,0,0,1,73.3,5c.84-.32.84-.47.84-.63S74.06,3.84,73,3.19C69.53,1,69.53,1,68.92,1A6,6,0,0,0,67,1.67l.22.09c.41.17,2.43,1.05,2.43,2.09,0,.83-3,6.55-4.4,8.79C62,17.94,57.81,23,54.65,25.57a8.06,8.06,0,0,0-.68.62,26.9,26.9,0,0,0,4.79-3.54A54.3,54.3,0,0,0,69,10.82l.35-.55,1.07,1.14a67.9,67.9,0,0,1,11-1l.79,0-.31.73C76.31,24.54,69,33.26,57.62,40.24c-.47.24-.51.38-.51.38Z"/><path class="cls-1" d="M136.36,9.52l1.57-1.35c2.38,1.46,4.7,3.72,4.7,4.48,0,.59-.81.92-2.16.92h-1.08c-.06-.06-.43.27-.81.59-2.59,2.7-11.94,9.4-15.55,11.18l-.44-.54c6.59-5.72,8.75-7.94,12.53-12.64-5.13.65-6.26.87-14.58,2.54l-1.73.38L118.44,25c-.06,1-.06,1.78-.06,2.32,0,6.54.27,6.81,7.94,6.81,4.64,0,6.64-.22,8.69-.92a6.82,6.82,0,0,1,1.84-.49A2.65,2.65,0,0,1,139.33,35,1.77,1.77,0,0,1,138,36.41c-1.19.43-4.7.7-8.43.7-6.85,0-10.42-.48-12.15-1.56s-2.1-2.81-2.1-7.67V26.1l.27-10.26c-5.78,1.4-7.78,2.1-8.7,3a2.35,2.35,0,0,1-1.4.75c-.59,0-1.13-.43-2.65-2l-1.08-1.13c-.81-.81-1-1.14-1-1.52a6.7,6.7,0,0,1,1-2.21c2,2,2.65,2.48,3,2.48a3.17,3.17,0,0,0,.81-.16c.06,0,.49-.11,1.14-.21l9-1.68.22-5.56,0-2.11c0-1.29-.65-1.78-4.16-3,1.08-1.57,1.3-1.78,1.95-1.78,1.73,0,7,2.59,7,3.4,0,.32-.1.54-.81,1.3a2.32,2.32,0,0,0-.75,1.51l-.27,5.67Z"/><path class="cls-1" d="M129.61,37.61c-6.86,0-10.57-.49-12.41-1.64s-2.34-3-2.34-8.09V26.1l.25-9.62c-5,1.23-7,1.93-7.83,2.69a2.83,2.83,0,0,1-1.75.89c-.82,0-1.44-.52-3-2.21l-1.08-1.13c-.82-.82-1.16-1.26-1.16-1.86,0-.35.16-.83,1-2.45l.31-.58.48.46a16.28,16.28,0,0,0,2.68,2.34,2.73,2.73,0,0,0,.67-.14l.13,0,.13,0,.93-.18,8.56-1.6.25-7.26c0-.89-.29-1.29-3.82-2.54L111,2.64l.37-.53c1.07-1.55,1.42-2,2.36-2,1.51,0,7.46,2.54,7.46,3.9,0,.53-.23.87-.94,1.64a1.84,1.84,0,0,0-.62,1.22l-.24,5,16.74-2.84,1.74-1.5.31.19c2.06,1.27,4.94,3.75,4.94,4.91,0,.53-.35,1.42-2.66,1.42h-1c-.14.1-.4.32-.58.47-2.56,2.68-12,9.42-15.65,11.25l-.36.18-1-1.23.37-.32c6-5.19,8.31-7.48,11.68-11.6-4.11.53-5.68.84-13.31,2.37l-1.34.3L118.94,25c-.06,1-.06,1.77-.06,2.3,0,6.19,0,6.31,7.44,6.31,4.54,0,6.53-.21,8.53-.89a6.86,6.86,0,0,1,2-.52,3.17,3.17,0,0,1,3,2.77,2.27,2.27,0,0,1-1.64,1.94C136.82,37.39,132.89,37.61,129.61,37.61ZM116.15,15.2l-.29,12.68c0,4.65.42,6.28,1.88,7.25,1.64,1,5.3,1.48,11.87,1.48,3.78,0,7.17-.27,8.26-.67a1.31,1.31,0,0,0,1-1,2.17,2.17,0,0,0-2-1.77,6.88,6.88,0,0,0-1.68.47c-2.11.72-4.18.94-8.85.94-7.89,0-8.44-.48-8.44-7.31,0-.54,0-1.36.06-2.35l.39-10.26,2.11-.46c8.39-1.68,9.48-1.89,14.62-2.54l1.23-.16-.78,1A78.61,78.61,0,0,1,124,24.27c4.15-2.38,11.94-8,14.25-10.45.62-.54,1-.85,1.3-.75h.95c1.24,0,1.66-.29,1.66-.42-.06-.46-1.83-2.37-4.15-3.86L136.59,10l-18.25,3.09.3-6.29A2.87,2.87,0,0,1,119.52,5c.68-.73.68-.84.68-1-.31-.55-4.87-2.9-6.46-2.9-.32,0-.43,0-1.16,1,3,1.1,3.87,1.71,3.87,3.27l0,2.12-.23,6-9.36,1.75c-.4.06-.7.13-.9.17l-.23,0a3.42,3.42,0,0,1-.91.17c-.52,0-1-.35-2.89-2.16a5.07,5.07,0,0,0-.6,1.39c0,.18.14.42.88,1.16l1.09,1.15c1.37,1.47,1.88,1.89,2.28,1.89a2,2,0,0,0,1.07-.62c1-1,3.09-1.68,8.91-3.09Z"/><path class="cls-1" d="M188.47,7.52a2.15,2.15,0,0,1,1,1.51c0,.49-.44.81-1.19.92l-1.35.27A103.71,103.71,0,0,1,178.54,22c10.15,4.43,16.31,9.45,16.31,13.29A2.1,2.1,0,0,1,193,37.44c-.81,0-1.35-.49-2.38-2.11-1.72-3.19-9.18-10.15-13-12.15-5.89,6.7-10.26,10.31-17.33,14.31a16.59,16.59,0,0,1-4.86,2.11.54.54,0,0,1-.54-.49c0-.32.21-.54,1.56-1.35,12.42-7.61,19-14.8,26.68-28.94A63.66,63.66,0,0,0,173,10.6c-1.3.27-3.57.75-5.46,1.19a5.38,5.38,0,0,0-1.94.86c-.87.54-1.14.65-1.46.65s-.54-.16-1.51-1.19c-1.89-2-2.54-2.86-2.54-3.46,0-.43,0-.43,1.13-2.1,1,1.67,2,2.48,2.87,2.48a11.25,11.25,0,0,0,1.29-.16l18.15-2.48,1.67-1.73Z"/><path class="cls-1" d="M155.43,40.1a1,1,0,0,1-1-1c0-.64.46-1,1.8-1.78C168.32,29.9,174.75,23,182.24,9.41a67,67,0,0,0-9.16,1.68c-1.3.27-3.56.75-5.45,1.18a5,5,0,0,0-1.77.79,3.27,3.27,0,0,1-1.74.74c-.57,0-.93-.35-1.88-1.35-2.07-2.19-2.67-3-2.67-3.8,0-.58.05-.65,1.22-2.38l.45-.66.4.69c.85,1.46,1.69,2.23,2.43,2.23.07,0,.12,0,1.22-.15l18-2.47L185.15,4l3.65,3.17A2.55,2.55,0,0,1,190,9c0,.36-.16,1.21-1.62,1.42l-1.1.22a105.85,105.85,0,0,1-7.89,11.13c10,4.47,16,9.49,16,13.48A2.59,2.59,0,0,1,193,37.94c-1.12,0-1.79-.76-2.8-2.34-1.64-3-8.67-9.63-12.48-11.79a59.89,59.89,0,0,1-17.2,14.12C159.62,38.44,156.55,40.1,155.43,40.1ZM184,8.23l-.44.82c-7.69,14.19-14.47,21.54-26.86,29.14a6.89,6.89,0,0,0-1.33.92A16.29,16.29,0,0,0,160,37.05c7-3.95,11.35-7.54,17.2-14.2l.26-.29.35.18c3.91,2,11.45,9.08,13.22,12.35,1,1.58,1.41,1.85,1.94,1.85a1.61,1.61,0,0,0,1.34-1.66c0-3.61-6.14-8.52-16-12.83l-.6-.26.41-.51A104.61,104.61,0,0,0,186.48,10l.11-.2,1.57-.31c.21,0,.79-.14.79-.43s-.27-.69-.8-1.13h0l-2.94-2.55-1.47,1.51L165.43,9.37a11,11,0,0,1-1.36.16c-1,0-2-.69-2.88-2.07-.62.92-.62,1-.62,1.19,0,.48,1,1.59,2.4,3.12.74.78,1,1,1.15,1s.34,0,1.19-.57a5.69,5.69,0,0,1,2.11-.93c1.88-.43,4.16-.92,5.45-1.19a65.72,65.72,0,0,1,10.21-1.79Z"/></g></g></svg>