<svg id="Layer_1" data-name="Layer 1" xmlns="http://www.w3.org/2000/svg" viewBox="0 0 1250 70"><title>acro-x-enjoy</title><path d="M711,70H0V13a40.49,40.49,0,0,0,6.32,1c13,.09,26,0,38.93.07a56,56,0,0,1,5.62.57l1,1.49L39.1,32c3.27,3.15,4.2,3.48,6.78.37a144.38,144.38,0,0,0,11.75-16c3.51-5.66,2.17-7.55-4.45-7.55-15.64,0-31.28,0-46.92.09C4.17,8.85,2.09,9.59,0,10V0H993.06c-1.2.87-2.43,1.7-3.59,2.62a8.44,8.44,0,0,0-1.14,12.32,8.5,8.5,0,0,0,12,.44A8.45,8.45,0,0,0,1000.17,3c-1-1-2.07-2-3.11-3H1250V70H716V51.4c2.36,1.79,3.4,2.75,4.59,3.46,6.83,4.08,13.62,8.24,20.63,12,1,.56,3.19-.94,4.82-1.5-.91-1-1.63-2.46-2.78-3.1-5.22-2.89-10.57-5.55-15.87-8.3-1.71-.89-3.41-1.8-5.11-2.71L724,48.63c5.73,0,11.46.16,17.18-.11,1.63-.07,3.2-1.41,4.8-2.17-1.61-.7-3.2-1.94-4.83-2-7-.23-14,0-21-.2-1.32,0-2.61-1.34-3.91-2.06a34.59,34.59,0,0,1,3.39-3.84c.5-.44,1.62-.28,2.43-.2,3.72.39,5.59-.8,5.31-5-.24-3.68,1.84-3.8,4.44-2,3.3,2.26,6.51,4.66,9.93,6.69,1,.58,2.59.1,3.91.11-.29-1.4-.09-3.53-.92-4.08C739.44,30.31,734,27.2,728.54,24l-1.2,1.1c.15-1.63.3-3.26.43-4.59,9.66,1.37,11.34-7.16,16.66-10.8-2.58-3.57-4.48-3.59-6.93-.52-2.59,3.25-5.7,6.08-9.33,9.87-.52-2.44-1-3.39-.88-4.28.44-3.82-1.33-5.18-4.93-4.81-1,.1-2,0-3,0-2.55,0-4.28-.42-3.47-3.75.21-.88-1.15-2.14-1.78-3.23-1.15.66-3.13,1.18-3.29,2-.79,4.26-3.39,5.33-7.22,5-2.91-.27-3.7,1.37-3.63,4,.12,4.6,0,9.2,0,12.74-3,.62-5.2.7-7.09,1.57-3.16,1.45-6,3.64-9.14,5.09-4.25,2-3.75,3.83-.62,6.23l17.51-10.3c-2.41,8.29,1.19,9.21,6.46,8.87,1.14-.07,2.4,1.94,3.61,3-1.2,1-2.35,2.85-3.59,2.91-6.15.31-12.33,0-18.49.24-2.38.1-4.72,1.14-7.07,1.76,1.19,4.15,4.63,2.3,7.11,2.44,4.84.28,9.7.09,14.55.09l.33,1.6c-6.3,6.79-15,10.12-23.11,14.1,1.62,4,4,4.26,6.69,2.61,6.23-3.79,12.4-7.7,18.55-11.63a42.43,42.43,0,0,0,3.67-2.93l1.66.46ZM618.82,27.89c.48-6.47,3.46-8.92,9.35-9.22s11.5-1.62,17.17-2.86c.95-.2,1.49-2.27,2.22-3.48-1.22-.45-2.52-1.44-3.65-1.26-3.76.58-7.45,1.65-11.2,2.41-9,1.81-9.3,1.53-8.26-7.25,0-.15-.11-.31-.26-.68-3.6-1.64-5.94-1-6.06,3.6-.1,4.1-2.41,5.4-6.24,5.15a56.09,56.09,0,0,0-9,.09c-1,.09-1.88,1.3-2.82,2,.92.93,1.72,2.45,2.79,2.67,2.07.43,4.3.13,6.46.15,5.65.07,6.76,1.29,3.94,6-3.55,5.92-8,11.31-12.08,16.9-1.23,1.69-4.48,2.83-1.72,5.57s4.19-.23,5.7-1.67c2.78-2.62,5.05-5.84,8-8.18A33.32,33.32,0,0,1,623.4,32c1.81-.57,5.28.9,6.53,2.56,2.12,2.8-1,4.13-3,5.61-4,3-8.38,5.61-11.66,9.24C610,55.2,611.45,63,618.64,64.44c9.46,1.86,19.4,1.35,29.13,1.64.7,0,1.45-1.73,2.18-2.66-1.16-.6-2.32-1.68-3.49-1.7-5.65-.08-11.32.36-17,.13A18.09,18.09,0,0,1,621,59.72c-1.53-.94-3.05-4.61-2.38-5.93,2.54-5,7-7.95,12.65-10,.37,1.35.5,2.14.79,2.86,1,2.39-2.27,7.16,2.67,7,4.53-.13,2.58-4.8,2.4-7.26-.34-4.78,1.82-7,5.93-8.36,4.84-1.6,9.6-3.43,14.54-5.22-.78-4.08-2.36-5.67-6.49-3.45a57,57,0,0,1-10.61,4.27c-1.34.41-3.79,0-4.51-.94-5.51-7.25-5.51-7.34-14.44-5A14.91,14.91,0,0,1,618.82,27.89ZM898.25,39.16c1.61,2.83,3.18,5.19,4.35,7.74,3.43,7.49,1.17,12.5-6.88,14a80.54,80.54,0,0,1-16.36,1c-8.84-.21-10.84-4.32-7.42-12.46,1.95-4.61,2.75-9.75,3.67-14.72.58-3.08.43-6.3.61-9.45.2-3.53,1.78-5.36,5.59-5.53a38.72,38.72,0,0,0,9.26-1.8c.94-.29,1.44-2,2.14-3-1.18-.56-2.34-1.55-3.54-1.59-1.61-.06-3.22.72-4.86,1-8.06,1.16-8.24.95-6.87-7.24,0-.26-.25-.58-.47-1.08-2.39-.58-4.67-1.41-5.52,2.44-1.68,7.63-1.79,7.6-9.78,7.63a6.33,6.33,0,0,0-2.47.07,27.65,27.65,0,0,0-3.58,2.36c1.12.74,2.17,1.94,3.37,2.12a36.13,36.13,0,0,0,7,.1c3.28-.14,4.42,1.52,4.39,4.58,0,3.36-1.75,3.44-4.58,3.24-5.8-.41-10.91,4.43-11.9,10.65-1.13,7.19,1.29,11.2,7.6,13.68A5.65,5.65,0,0,1,864.73,57c.15,4.53,2.3,7.54,6.41,8.41a62.68,62.68,0,0,0,30.13-.69c7.53-2.1,10.53-8.13,8.12-15.62-1.1-3.42-3.14-6.56-4.94-9.73C902.74,36.33,900.65,36.76,898.25,39.16Zm-672.2-.73c0-6.66-.05-13.32,0-20,0-2.47-.32-4.21-3.41-4.2-14.48.06-29,0-43.45.15-1.09,0-3.08,1.74-3.1,2.69-.2,14.15-.17,28.3,0,42.45a3.54,3.54,0,0,0,2,2.75c.87.17,2-1.11,3-1.75,1.49-.93,3-2.63,4.49-2.66,10.32-.24,20.64-.2,31,0,1.38,0,2.77,1.19,4.11,1.92,1.17.64,2.26,1.41,3.39,2.12.66-1.33,1.85-2.63,1.89-4C226.16,51.42,226.05,44.92,226.05,38.43ZM568.76,65.72c4.12-1.89,4.67-4,1.33-7.07-6.5-6-12.74-12.2-19.36-18-2.51-2.22-2.86-3.62-1-6.57,3.78-5.84,7.06-12,10.31-18.2,2.3-4.38,1.31-5.86-3.84-5.89-10.82-.08-21.65-.12-32.47.13-1.63,0-3.23,1.69-4.84,2.6,1.72.84,3.41,2.35,5.15,2.41,7.82.26,15.66.07,23.49.14a54.83,54.83,0,0,1,5.76.74c-1,2.25-1.55,3.78-2.32,5.2a106.2,106.2,0,0,1-34.9,38.43c-1.23.82-2.72,3.27-2.32,4.17,1.12,2.53,3.38,2.18,5.34.51,6.59-5.59,13.35-11,19.69-16.85,5.11-4.73,3.93-6.27,10.5-.27S562.29,59.52,568.76,65.72ZM87.56,35.53c2.1,4.09,4.2,4.17,6.79,1.39s5.78-4.88,7.51-8c3.81-6.76,9.45-7.91,16.38-7.29,4.49.4,9,.07,14.27.07-3.22,10.35-7.33,18.72-14,25.29s-14,12-21.2,18.12c1.11,2.48,3,3.5,6,1.56,2.24-1.44,4.56-2.74,6.78-4.21,15-10,23.18-24.84,29.21-41.21,1.27-3.45-.7-4.67-3.53-5a69.25,69.25,0,0,0-7.49-.06c-5.39,0-10.78,0-17.32,0l5.46-11.13c-3.26.67-6.81.48-7.34,1.65A85.8,85.8,0,0,1,87.56,35.53ZM457.34,6.76c-5.27-2.86-5.19-2.82-7.69,2.23-4.55,9.17-10.19,17.53-18,24.37-.93.82-.76,2.91-1.09,4.41,1.57,0,3.78.58,4.61-.23,4.18-4,8-8.46,11.94-12.73.88-.95,1.79-2.63,2.73-2.65,7.87-.22,15.74-.13,24.15-.13-.49,1.79-.68,2.73-1,3.62-5.83,16-16.36,28-31.11,36.44-1.13.64-1.52,2.57-2.26,3.9,1.72.3,3.43.65,5.16.85.39,0,.84-.49,1.28-.73,16.58-9.16,26.83-23.53,33.43-40.84,3.24-8.52,2.8-9-6.6-9-5.16,0-10.33,0-15.49,0a33.71,33.71,0,0,1-4.42-.7ZM286.34,60c8.5,0,17,.11,25.49-.1,1.4,0,2.76-1.48,4.14-2.28-1.41-.95-2.78-2.65-4.24-2.73-6-.32-12-.2-18-.12-3.11.05-4.58-1.15-4.55-4.4.1-8.66.08-17.32,0-26,0-3.16,1.3-4.51,4.52-4.41a128.93,128.93,0,0,0,13.48-.1c1.35-.1,2.6-1.65,3.89-2.54-1.2-.85-2.39-2.43-3.61-2.44q-21-.27-42,0c-1.17,0-2.32,1.64-3.48,2.52,1.14.86,2.24,2.39,3.44,2.47A126.25,126.25,0,0,0,279,20c3.61-.13,5.12,1.23,5.06,4.94-.16,8.32-.18,16.66,0,25,.09,3.8-1.54,5-5.07,4.91-5.83-.13-11.67-.21-17.48.09-1.57.08-3.06,1.62-4.58,2.5,1.48.87,2.94,2.46,4.45,2.5C269.68,60.16,278,60,286.34,60Zm667,2.62c1.4,2,1.9,3.58,2.93,4.11,7.26,3.74,16.23-1.46,16.38-9.53q.25-13.24,0-26.48c-.08-3.62,1.15-5.17,4.87-5,5.16.17,10.34.22,15.48-.11,1.28-.08,2.46-1.78,3.68-2.73-1.19-.83-2.34-2.3-3.58-2.38-5.31-.3-10.65-.28-16-.22-3.14,0-4.61-1.16-4.46-4.42s0-6.52,0-9.85c-3.6-1.2-5.3-.11-5.26,3.54,0,2-.12,4,0,6,.26,3.43-1.18,4.85-4.63,4.75-5.33-.14-10.67-.19-16,.1-1.37.08-2.66,1.59-4,2.45,1.37,1,2.71,2.68,4.14,2.77,5.31.34,10.65.22,16,.13,3.13-.06,4.53,1.12,4.49,4.4-.12,8.82-.06,17.65,0,26.47,0,3.86-1.49,5.93-5.67,5.7C959.38,62.16,957,62.48,953.32,62.65ZM1082.67,9.33c-2.94-3.94-5.15-3.87-8.27-1.07-6.31,5.65-12.7,11.34-19.66,16.12-8.48,5.83-17.62,10.69-26.37,16.13-1.11.69-1.61,2.36-2.39,3.58,1.56.35,3.27,1.28,4.64.91a27,27,0,0,0,6.22-3.1c5.58-3.2,11.11-6.47,17.45-10.18.24,2.52.54,4.24.54,6,.05,8.5,0,17,0,25.49,0,2.22-.08,4.93,3.1,4.29,1.14-.23,2.58-2.67,2.62-4.13.23-9.65.2-19.32.08-29a12.73,12.73,0,0,1,5.41-11.11C1071.71,18.92,1077,14.11,1082.67,9.33ZM785.93,5.77c-1.71-.44-5-1.7-5.07,3.31-.29,14-.8,28-.49,41.93.18,8.34,5.9,13.81,14,15.15,12.73,2.08,23.27-2.45,32.15-11.2,1-1,.4-3.68.54-5.59-1.5.43-3.43.4-4.42,1.36-5.31,5.05-11.25,8.79-18.5,10.3-9.45,2-17.77-2.78-18.1-11.46C785.53,35.32,785.93,21,785.93,5.77Zm435.94,25.78c7.56,3.54,14.27,6.65,20.94,9.84,2.08,1,4.4,2.07,5.16-1,.3-1.2-1-3.64-2.27-4.25a182.25,182.25,0,0,0-18.23-8c-4.54-1.66-6.8-4-6.29-9.07.46-4.55.1-9.17.1-13.74-3.94-1.18-5.88-.16-5.86,4.09.08,17.81,0,35.63.16,53.44,0,1.44,1.8,2.87,2.76,4.31,1-1.41,2.76-2.8,2.81-4.25.27-8.31.1-16.64.15-25C1221.31,36.17,1221.6,34.44,1221.87,31.55ZM1119,65.57c3.52-1.41,6.46-2.52,9.35-3.76,17.78-7.62,32.13-19.14,41.62-36.34,2.32-4.2,1-5.86-3.44-6.84C1156.68,41,1138,52.91,1115.38,60.49ZM31.41,24.84c-5.39-1.68-6-1.32-6.83,4.08-2,13.82-6.94,26-19.16,34.07-.33.22-.38.86-.59,1.38,1.74,3,3.91,3.37,6.48,1.15a77,77,0,0,0,6.6-6C26.87,49.7,29.07,37.23,31.41,24.84Zm363.47.32c-4-2.31-5.72-2.6-6.86,1.4-4.3,15.2-12.48,27.43-27.24,34.49-1.08.51-1.55,2.29-2.3,3.48,1.48.19,3.25,1,4.41.47C371,61.28,378.37,56.2,383,48.42,387.38,41.08,390.83,33.19,394.88,25.16ZM981.56,37c4.37,6.49,8.45,12.73,12.81,18.78.65.91,2.61.87,4,1.27.23-1.54,1.21-3.57.57-4.53-3.57-5.4-7.5-10.57-11.37-15.77C985.57,34.08,983.56,34.07,981.56,37ZM943.29,57.91c1-.8,2.21-1.31,2.79-2.2,3.4-5.25,6.79-10.52,9.87-16,.5-.88-.5-2.63-.81-4-1.31.56-3.14.75-3.84,1.74-3.58,5.11-6.92,10.4-10.21,15.71a3.79,3.79,0,0,0-.24,3C941.14,57,942.35,57.31,943.29,57.91ZM1117.2,10.09c-1.2,1.33-2.39,2.11-2.66,3.14a3.1,3.1,0,0,0,1.43,2.58c5.6,2.81,11.26,5.52,17,8a3.47,3.47,0,0,0,3.16-1.06c.55-.77.52-3.05,0-3.3C1130.05,16.26,1123.81,13.3,1117.2,10.09ZM917.51,24c-6.09-1.42-12-2.91-17.86-4.06-1-.19-2.29,1.05-3.44,1.63.87,1,1.57,2.47,2.64,2.83,4.37,1.46,9,2.15,13.23,3.93C915.77,29.92,916.87,28.72,917.51,24ZM699.32,17.44c-4-3.2-7.49-6.19-11.22-8.82-.92-.65-2.67-.11-4-.11,0,1-.41,2.43.09,2.91,3.39,3.29,7,6.37,10.81,9.79Zm-349,6.09c-.68,1.36-1.76,2.5-1.54,3.27a102.34,102.34,0,0,0,4.08,11.69c.33.77,2.12,1.14,3.27,1.22.37,0,1.38-1.59,1.2-2.17-1.23-3.95-2.62-7.85-4.14-11.7C352.92,25.09,351.79,24.66,350.35,23.53Zm22.44,11c-.84-4-1.36-7.47-2.35-10.75-.36-1.19-1.87-2-2.86-3-.48,1.42-1.48,2.89-1.33,4.25a58.91,58.91,0,0,0,2,9.63c.31,1.07,1.54,1.88,2.35,2.8Z" fill="#fff"/><path d="M711,70V52.84l-1.66-.46a42.43,42.43,0,0,1-3.67,2.93c-6.15,3.93-12.32,7.84-18.55,11.63-2.71,1.65-5.07,1.34-6.69-2.61,8.14-4,16.81-7.31,23.11-14.1l-.33-1.6c-4.85,0-9.71.19-14.55-.09-2.48-.14-5.92,1.71-7.11-2.44,2.35-.62,4.69-1.66,7.07-1.76,6.16-.26,12.34.07,18.49-.24,1.24-.06,2.39-1.89,3.59-2.91-1.21-1-2.47-3.06-3.61-3-5.27.34-8.87-.58-6.46-8.87l-17.51,10.3c-3.13-2.4-3.63-4.28.62-6.23,3.16-1.45,6-3.64,9.14-5.09,1.89-.87,4.14-.95,7.09-1.57,0-3.54.09-8.14,0-12.74-.07-2.64.72-4.28,3.63-4,3.83.36,6.43-.71,7.22-5,.16-.85,2.14-1.37,3.29-2,.63,1.09,2,2.35,1.78,3.23-.81,3.33.92,3.8,3.47,3.75,1,0,2,.08,3,0,3.6-.37,5.37,1,4.93,4.81-.1.89.36,1.84.88,4.28,3.63-3.79,6.74-6.62,9.33-9.87,2.45-3.07,4.35-3,6.93.52-5.32,3.64-7,12.17-16.66,10.8-.13,1.33-.28,3-.43,4.59l1.2-1.1c5.41,3.22,10.9,6.33,16.16,9.79.83.55.63,2.68.92,4.08-1.32,0-2.93.47-3.91-.11-3.42-2-6.63-4.43-9.93-6.69-2.6-1.78-4.68-1.66-4.44,2,.28,4.18-1.59,5.37-5.31,5-.81-.08-1.93-.24-2.43.2a34.59,34.59,0,0,0-3.39,3.84c1.3.72,2.59,2,3.91,2.06,7,.21,14,0,21,.2,1.63.06,3.22,1.3,4.83,2-1.6.76-3.17,2.1-4.8,2.17-5.72.27-11.45.11-17.18.11l-1.65,2.59c1.7.91,3.4,1.82,5.11,2.71,5.3,2.75,10.65,5.41,15.87,8.3,1.15.64,1.87,2.05,2.78,3.1-1.63.56-3.78,2.06-4.82,1.5-7-3.73-13.8-7.89-20.63-12-1.19-.71-2.23-1.67-4.59-3.46V70Zm2.15-48.07h0c1.66,0,3.32,0,5,0,2.74,0,3.84-1.33,3.83-4S720.72,14,718.06,14c-3.32.05-6.71-.34-9.93.22A5.06,5.06,0,0,0,705,18.05c0,1.31,1.86,3.06,3.31,3.74S711.53,21.93,713.19,21.93Zm.17,11.91c2,0,4.12.43,5.92-.15a4.43,4.43,0,0,0,2.5-3.41c-.07-1.41-1.42-3.81-2.43-3.93a55,55,0,0,0-11.9,0c-1,.1-2.59,2.25-2.53,3.39a5.25,5.25,0,0,0,2.54,3.94C709.18,34.34,711.37,33.83,713.36,33.84Z"/><path d="M0,10c2.09-.41,4.17-1.15,6.26-1.16,15.64-.11,31.28-.09,46.92-.09,6.62,0,8,1.89,4.45,7.55a144.38,144.38,0,0,1-11.75,16C43.3,35.43,42.37,35.1,39.1,32L51.86,16.12l-1-1.49a56,56,0,0,0-5.62-.57c-13-.05-26,0-38.93-.07A40.49,40.49,0,0,1,0,13Z"/><path d="M997.06,0c1,1,2.06,2,3.11,3a8.45,8.45,0,0,1,.21,12.39,8.5,8.5,0,0,1-12-.44,8.44,8.44,0,0,1,1.14-12.32c1.16-.92,2.39-1.75,3.59-2.62Zm3.71,10.17c0-.73,0-1.47-.07-2.21-2.11-1.36-4.28-3.86-6.3-3.74-1.75.11-4.34,3-4.75,5a4.29,4.29,0,0,0,5,5.17C996.88,14,998.75,11.64,1000.77,10.17Z"/><path d="M618.82,27.89a14.91,14.91,0,0,0,2.68-.14c8.93-2.35,8.93-2.26,14.44,5,.72.95,3.17,1.35,4.51.94a57,57,0,0,0,10.61-4.27c4.13-2.22,5.71-.63,6.49,3.45-4.94,1.79-9.7,3.62-14.54,5.22-4.11,1.37-6.27,3.58-5.93,8.36.18,2.46,2.13,7.13-2.4,7.26-4.94.15-1.7-4.62-2.67-7-.29-.72-.42-1.51-.79-2.86-5.6,2-10.11,5-12.65,10-.67,1.32.85,5,2.38,5.93a18.09,18.09,0,0,0,8.56,2.13c5.63.23,11.3-.21,17-.13,1.17,0,2.33,1.1,3.49,1.7-.73.93-1.48,2.68-2.18,2.66-9.73-.29-19.67.22-29.13-1.64C611.45,63,610,55.2,615.28,49.38c3.28-3.63,7.67-6.29,11.66-9.24,2-1.48,5.11-2.81,3-5.61-1.25-1.66-4.72-3.13-6.53-2.56a33.32,33.32,0,0,0-10.2,5.86c-3,2.34-5.24,5.56-8,8.18-1.51,1.44-3,4.31-5.7,1.67s.49-3.88,1.72-5.57c4.09-5.59,8.53-11,12.08-16.9,2.82-4.71,1.71-5.93-3.94-6-2.16,0-4.39.28-6.46-.15-1.07-.22-1.87-1.74-2.79-2.67.94-.7,1.83-1.91,2.82-2a56.09,56.09,0,0,1,9-.09c3.83.25,6.14-1.05,6.24-5.15.12-4.65,2.46-5.24,6.06-3.6.15.37.27.53.26.68-1,8.78-.74,9.06,8.26,7.25,3.75-.76,7.44-1.83,11.2-2.41,1.13-.18,2.43.81,3.65,1.26-.73,1.21-1.27,3.28-2.22,3.48-5.67,1.24-11.4,2.57-17.17,2.86S619.3,21.42,618.82,27.89Z"/><path d="M898.25,39.16c2.4-2.4,4.49-2.83,6.2.18,1.8,3.17,3.84,6.31,4.94,9.73,2.41,7.49-.59,13.52-8.12,15.62a62.68,62.68,0,0,1-30.13.69c-4.11-.87-6.26-3.88-6.41-8.41A5.65,5.65,0,0,0,862,52.76c-6.31-2.48-8.73-6.49-7.6-13.68,1-6.22,6.1-11.06,11.9-10.65,2.83.2,4.55.12,4.58-3.24,0-3.06-1.11-4.72-4.39-4.58a36.13,36.13,0,0,1-7-.1c-1.2-.18-2.25-1.38-3.37-2.12A27.65,27.65,0,0,1,859.7,16a6.33,6.33,0,0,1,2.47-.07c8,0,8.1,0,9.78-7.63.85-3.85,3.13-3,5.52-2.44.22.5.51.82.47,1.08-1.37,8.19-1.19,8.4,6.87,7.24,1.64-.23,3.25-1,4.86-1,1.2,0,2.36,1,3.54,1.59-.7,1.06-1.2,2.75-2.14,3a38.72,38.72,0,0,1-9.26,1.8c-3.81.17-5.39,2-5.59,5.53-.18,3.15,0,6.37-.61,9.45-.92,5-1.72,10.11-3.67,14.72-3.42,8.14-1.42,12.25,7.42,12.46a80.54,80.54,0,0,0,16.36-1c8-1.46,10.31-6.47,6.88-14C901.43,44.35,899.86,42,898.25,39.16Zm-28-2.12c-.93-.83-2.57-3.45-4.7-3.93-3.5-.81-7.09,4.18-6.77,8.79.22,3.13,1.07,6.1,5,6.27C867.2,48.31,870.28,43.79,870.21,37Z"/><path d="M226.05,38.43c0,6.49.11,13-.09,19.47,0,1.35-1.23,2.65-1.89,4-1.13-.71-2.22-1.48-3.39-2.12-1.34-.73-2.73-1.9-4.11-1.92-10.32-.16-20.64-.2-31,0-1.52,0-3,1.73-4.49,2.66-1,.64-2.15,1.92-3,1.75a3.54,3.54,0,0,1-2-2.75c-.13-14.15-.16-28.3,0-42.45,0-.95,2-2.67,3.1-2.69,14.48-.18,29-.09,43.45-.15,3.09,0,3.44,1.73,3.41,4.2C226,25.11,226.05,31.77,226.05,38.43ZM200.72,52.24c5.32,0,10.63-.07,15.95,0,3,.06,4.19-1.16,4.16-4.14-.09-8.14-.08-16.28,0-24.42,0-2.68-1-4-3.8-4q-16,.07-31.91,0c-2.72,0-3.91,1.13-3.89,3.88.06,8.14.11,16.28,0,24.42-.06,3.37,1.53,4.31,4.57,4.24C190.74,52.16,195.73,52.25,200.72,52.24Z"/><path d="M568.76,65.72c-6.47-6.2-12.83-12.51-19.43-18.55s-5.39-4.46-10.5.27c-6.34,5.86-13.1,11.26-19.69,16.85-2,1.67-4.22,2-5.34-.51-.4-.9,1.09-3.35,2.32-4.17A106.2,106.2,0,0,0,551,21.18c.77-1.42,1.32-2.95,2.32-5.2a54.83,54.83,0,0,0-5.76-.74c-7.83-.07-15.67.12-23.49-.14-1.74-.06-3.43-1.57-5.15-2.41,1.61-.91,3.21-2.57,4.84-2.6,10.82-.25,21.65-.21,32.47-.13,5.15,0,6.14,1.51,3.84,5.89-3.25,6.17-6.53,12.36-10.31,18.2-1.91,3-1.56,4.35,1,6.57,6.62,5.83,12.86,12.07,19.36,18C573.43,61.71,572.88,63.83,568.76,65.72Z"/><path d="M87.56,35.53A85.8,85.8,0,0,0,109.08,6.78c.53-1.17,4.08-1,7.34-1.65L111,16.26c6.54,0,11.93,0,17.32,0a69.25,69.25,0,0,1,7.49.06c2.83.3,4.8,1.52,3.53,5-6,16.37-14.19,31.22-29.21,41.21-2.22,1.47-4.54,2.77-6.78,4.21-3,1.94-4.93.92-6-1.56C104.51,59,111.9,53.46,118.47,47s10.82-14.94,14-25.29c-5.23,0-9.78.33-14.27-.07-6.93-.62-12.57.53-16.38,7.29-1.73,3.08-5,5.28-7.51,8S89.66,39.62,87.56,35.53Z"/><path d="M457.34,6.76,453,15.52a33.71,33.71,0,0,0,4.42.7c5.16.07,10.33,0,15.49,0,9.4,0,9.84.5,6.6,9C472.93,42.58,462.68,57,446.1,66.11c-.44.24-.89.77-1.28.73-1.73-.2-3.44-.55-5.16-.85.74-1.33,1.13-3.26,2.26-3.9C456.67,53.64,467.2,41.67,473,25.65c.32-.89.51-1.83,1-3.62-8.41,0-16.28-.09-24.15.13-.94,0-1.85,1.7-2.73,2.65-3.95,4.27-7.76,8.69-11.94,12.73-.83.81-3,.19-4.61.23.33-1.5.16-3.59,1.09-4.41,7.77-6.84,13.41-15.2,18-24.37C452.15,3.94,452.07,3.9,457.34,6.76Z"/><path d="M286.34,60c-8.33,0-16.66.13-25-.12-1.51,0-3-1.63-4.45-2.5,1.52-.88,3-2.42,4.58-2.5,5.81-.3,11.65-.22,17.48-.09,3.53.08,5.16-1.11,5.07-4.91-.19-8.32-.17-16.66,0-25,.06-3.71-1.45-5.07-5.06-4.94a126.25,126.25,0,0,1-13.48-.09c-1.2-.08-2.3-1.61-3.44-2.47,1.16-.88,2.31-2.5,3.48-2.52q21-.25,42,0c1.22,0,2.41,1.59,3.61,2.44-1.29.89-2.54,2.44-3.89,2.54a128.93,128.93,0,0,1-13.48.1c-3.22-.1-4.54,1.25-4.52,4.41.06,8.67.08,17.33,0,26,0,3.25,1.44,4.45,4.55,4.4,6-.08,12-.2,18,.12,1.46.08,2.83,1.78,4.24,2.73-1.38.8-2.74,2.24-4.14,2.28C303.34,60.14,294.84,60,286.34,60Z"/><path d="M953.32,62.65c3.64-.17,6.06-.49,8.46-.35,4.18.23,5.68-1.84,5.67-5.7,0-8.82-.1-17.65,0-26.47,0-3.28-1.36-4.46-4.49-4.4-5.32.09-10.66.21-16-.13-1.43-.09-2.77-1.8-4.14-2.77,1.32-.86,2.61-2.37,4-2.45,5.31-.29,10.65-.24,16-.1,3.45.1,4.89-1.32,4.63-4.75-.15-2,0-4,0-6,0-3.65,1.66-4.74,5.26-3.54,0,3.33.12,6.6,0,9.85s1.32,4.46,4.46,4.42c5.32-.06,10.66-.08,16,.22,1.24.08,2.39,1.55,3.58,2.38-1.22.95-2.4,2.65-3.68,2.73-5.14.33-10.32.28-15.48.11-3.72-.13-5,1.42-4.87,5q.25,13.24,0,26.48c-.15,8.07-9.12,13.27-16.38,9.53C955.22,66.23,954.72,64.68,953.32,62.65Z"/><path d="M1082.67,9.33c-5.67,4.78-11,9.59-16.61,13.92a12.73,12.73,0,0,0-5.41,11.11c.12,9.66.15,19.33-.08,29,0,1.46-1.48,3.9-2.62,4.13-3.18.64-3.1-2.07-3.1-4.29,0-8.5,0-17,0-25.49,0-1.73-.3-3.45-.54-6-6.34,3.71-11.87,7-17.45,10.18a27,27,0,0,1-6.22,3.1c-1.37.37-3.08-.56-4.64-.91.78-1.22,1.28-2.89,2.39-3.58,8.75-5.44,17.89-10.3,26.37-16.13,7-4.78,13.35-10.47,19.66-16.12C1077.52,5.46,1079.73,5.39,1082.67,9.33Z"/><path d="M785.93,5.77c0,15.26-.4,29.55.15,43.8.33,8.68,8.65,13.43,18.1,11.46,7.25-1.51,13.19-5.25,18.5-10.3,1-1,2.92-.93,4.42-1.36-.14,1.91.48,4.58-.54,5.59-8.88,8.75-19.42,13.28-32.15,11.2-8.14-1.34-13.86-6.81-14-15.15-.31-14,.2-27.95.49-41.93C781,4.07,784.22,5.33,785.93,5.77Z"/><path d="M1221.87,31.55c-.27,2.89-.56,4.62-.57,6.36,0,8.32.12,16.65-.15,25-.05,1.45-1.83,2.84-2.81,4.25-1-1.44-2.74-2.87-2.76-4.31-.19-17.81-.08-35.63-.16-53.44,0-4.25,1.92-5.27,5.86-4.09,0,4.57.36,9.19-.1,13.74-.51,5.11,1.75,7.41,6.29,9.07a182.25,182.25,0,0,1,18.23,8c1.22.61,2.57,3,2.27,4.25-.76,3.1-3.08,2-5.16,1C1236.14,38.2,1229.43,35.09,1221.87,31.55Z"/><path d="M1119,65.57l-3.65-5.08c22.65-7.58,41.3-19.49,51.18-41.86,4.48,1,5.76,2.64,3.44,6.84-9.49,17.2-23.84,28.72-41.62,36.34C1125.49,63.05,1122.55,64.16,1119,65.57Z"/><path d="M31.41,24.84C29.07,37.23,26.87,49.7,17.91,59.5a77,77,0,0,1-6.6,6c-2.57,2.22-4.74,1.87-6.48-1.15.21-.52.26-1.16.59-1.38C17.64,54.9,22.56,42.74,24.58,28.92,25.37,23.52,26,23.16,31.41,24.84Z"/><path d="M394.88,25.16c-4.05,8-7.5,15.92-11.88,23.26C378.37,56.2,371,61.28,362.89,65c-1.16.53-2.93-.28-4.41-.47.75-1.19,1.22-3,2.3-3.48C375.54,54,383.72,41.76,388,26.56,389.16,22.56,390.92,22.85,394.88,25.16Z"/><path d="M981.56,37c2-2.91,4-2.9,6-.25,3.87,5.2,7.8,10.37,11.37,15.77.64,1-.34,3-.57,4.53-1.36-.4-3.32-.36-4-1.27C990,49.71,985.93,43.47,981.56,37Z"/><path d="M943.29,57.91c-.94-.6-2.15-.94-2.44-1.66a3.79,3.79,0,0,1,.24-3c3.29-5.31,6.63-10.6,10.21-15.71.7-1,2.53-1.18,3.84-1.74.31,1.34,1.31,3.09.81,4-3.08,5.44-6.47,10.71-9.87,16C945.5,56.6,944.33,57.11,943.29,57.91Z"/><path d="M1117.2,10.09c6.61,3.21,12.85,6.17,19,9.38.49.25.52,2.53,0,3.3a3.47,3.47,0,0,1-3.16,1.06c-5.75-2.5-11.41-5.21-17-8a3.1,3.1,0,0,1-1.43-2.58C1114.81,12.2,1116,11.42,1117.2,10.09Z"/><path d="M917.51,24c-.64,4.69-1.74,5.89-5.43,4.33-4.2-1.78-8.86-2.47-13.23-3.93-1.07-.36-1.77-1.86-2.64-2.83,1.15-.58,2.43-1.82,3.44-1.63C905.56,21.12,911.42,22.61,917.51,24Z"/><path d="M699.32,17.44,695,21.21c-3.83-3.42-7.42-6.5-10.81-9.79-.5-.48-.09-1.92-.09-2.91,1.37,0,3.12-.54,4,.11C691.83,11.25,695.31,14.24,699.32,17.44Z"/><path d="M350.35,23.53c1.44,1.13,2.57,1.56,2.87,2.31,1.52,3.85,2.91,7.75,4.14,11.7.18.58-.83,2.2-1.2,2.17-1.15-.08-2.94-.45-3.27-1.22a102.34,102.34,0,0,1-4.08-11.69C348.59,26,349.67,24.89,350.35,23.53Z"/><path d="M372.79,34.58l-2.16,2.92c-.81-.92-2-1.73-2.35-2.8a58.91,58.91,0,0,1-2-9.63c-.15-1.36.85-2.83,1.33-4.25,1,1,2.5,1.82,2.86,3C371.43,27.11,372,30.55,372.79,34.58Z"/><path d="M713.19,21.93c-1.66,0-3.56.5-4.91-.14S705,19.36,705,18.05a5.06,5.06,0,0,1,3.16-3.79c3.22-.56,6.61-.17,9.93-.22,2.66,0,3.94,1.16,3.94,3.9s-1.09,4-3.83,4c-1.66,0-3.32,0-5,0Z" fill="#fff"/><path d="M713.36,33.84c-2,0-4.18.5-5.9-.18a5.25,5.25,0,0,1-2.54-3.94c-.06-1.14,1.52-3.29,2.53-3.39a55,55,0,0,1,11.9,0c1,.12,2.36,2.52,2.43,3.93a4.43,4.43,0,0,1-2.5,3.41C717.48,34.27,715.35,33.84,713.36,33.84Z" fill="#fff"/><path d="M1000.77,10.17c-2,1.47-3.89,3.83-6.1,4.2a4.29,4.29,0,0,1-5-5.17c.41-2,3-4.87,4.75-5,2-.12,4.19,2.38,6.3,3.74C1000.72,8.7,1000.75,9.44,1000.77,10.17Z" fill="#fff"/><path d="M870.21,37c.07,6.75-3,11.27-6.44,11.13-4-.17-4.81-3.14-5-6.27-.32-4.61,3.27-9.6,6.77-8.79C867.64,33.59,869.28,36.21,870.21,37Z" fill="#fff"/><path d="M200.72,52.25c-5,0-10-.09-15,0-3,.07-4.63-.87-4.57-4.24.13-8.14.08-16.28,0-24.42,0-2.75,1.17-3.89,3.89-3.88q16,.07,31.91,0c2.79,0,3.82,1.29,3.8,4-.06,8.14-.07,16.28,0,24.42,0,3-1.2,4.2-4.16,4.14C211.35,52.17,206,52.24,200.72,52.25Z" fill="#fff"/></svg>