<svg xmlns="http://www.w3.org/2000/svg" viewBox="0 0 438.37 110.28"><defs><style>.cls-1{fill:#333;}</style></defs><title>acrox-enjoy-point-title</title><g id="Layer_2" data-name="Layer 2"><g id="Layer_1-2" data-name="Layer 1"><path class="cls-1" d="M22.25,17.71a4.41,4.41,0,0,1-.7.38,54.24,54.24,0,0,1-8.64,17.82A28.07,28.07,0,0,1,4.7,43.36a6.29,6.29,0,0,1-2.22.87.54.54,0,0,1-.54-.44c0-.16.06-.21.65-.64a29.28,29.28,0,0,0,9.72-11.29A39.52,39.52,0,0,0,16,21.92a31,31,0,0,0,.92-5.23,1.77,1.77,0,0,0-1.46-2c-.16-.06-.27-.16-.27-.27,0-.33.49-.65,1-.65,1.35,0,3.61,1.19,5.72,3,3.94-2.32,7.88-5.83,7.88-7.07,0-.65-1-1-3-1A113.54,113.54,0,0,0,15.07,10a43.33,43.33,0,0,0-8.75,2.49c-1,.48-1.19.54-1.46.54-1.13,0-3-1.24-4-2.65C.22,9.45.11,9.18,0,7.29V7a.49.49,0,0,1,.49-.49c.21,0,.27,0,.48.49.38,1,2.32,1.94,3.84,1.94.43,0,1.08-.05,1.94-.11.49-.05,1.62-.16,3.35-.27s3.24-.21,3.78-.27c1.94-.21,3.89-.48,5.88-.7,8-.86,8.43-.92,11.45-1.84a5.24,5.24,0,0,1,.81-.1c.76,0,1.73.81,3.35,2.8.59.76,1,1.25,1.19,1.46.75.76.92,1,.92,1.57s-.38.86-1.19.92c-2.86.27-3.67.54-7.13,2.26-2,1-2.54,1.19-5.35,2.43Z"/><path class="cls-1" d="M56.65,42A56.13,56.13,0,0,0,73.22,30.4a45,45,0,0,0,9.4-12.69,18.88,18.88,0,0,0,2-4.8,1.27,1.27,0,0,0-1.3-1.19,9.47,9.47,0,0,0-1,.11c-.17.05-1.3.27-2.43.43-.92.16-1.68.27-2.11.32a4.6,4.6,0,0,1-1.08.16A4.26,4.26,0,0,1,74.57,12a52.84,52.84,0,0,1-8.91,10.85c-2.59,2.38-6.15,4.81-7,4.81-.32,0-.59-.16-.59-.38,0-.38.11-.48,1.46-1.46,2.27-1.56,5.88-5.72,8.85-10.1C70.63,12.26,72,9.18,72,7.4a3.45,3.45,0,0,0-2-3.35c-.22,0-.38-.22-.38-.32,0-.27.59-.49,1.46-.49A6.43,6.43,0,0,1,74.9,4.59c1.94,1.3,2.37,1.73,2.37,2.48,0,.33,0,.44-.37.81A10.44,10.44,0,0,0,76,9.23c-.38.87-.54,1.14-.76,1.57a3.7,3.7,0,0,0,1.3.22A34.74,34.74,0,0,0,83,9.83a10.64,10.64,0,0,0,2-1c.92-.6,1.24-.71,1.57-.71.59,0,1.29.44,3.13,2,1.62,1.35,1.83,1.57,1.83,2s-.21.65-.81.87a14.51,14.51,0,0,0-1.72.75C81.38,29.16,72.25,37.69,57.73,43a3.84,3.84,0,0,0-.76.27,3.3,3.3,0,0,1-.49.11c-.43,0-1-.43-1-.81,0-.16.11-.27.76-.44Z"/><path class="cls-1" d="M120.2,32.56A118.62,118.62,0,0,0,118,15.88a3.69,3.69,0,0,0-1.35-2.49,4.35,4.35,0,0,0-1.56-.75c-.33,0-.49-.17-.49-.38s.11-.27.38-.33c.92-.16,1.84-.32,2.11-.32a6.11,6.11,0,0,1,4.37,2.59c3.89-.27,9.94-1,16.52-1.94a11.7,11.7,0,0,0,4.38-1.46,3,3,0,0,1,1.46-.59c.86,0,4.8,3.83,4.8,4.64,0,.22-.21.49-.7.86-1.51,1.08-1.67,1.3-2.05,2.33-.54,1.35-1.95,6.75-3,11.34,2.21,1.62,2.21,1.62,2.21,2.16s-.27.81-.54.81a3,3,0,0,1-.43-.11,41.32,41.32,0,0,0-5.62-.43c-1.35,0-5.29.32-9.34.75-3.45.33-3.83.38-5.34.87v1.35c0,1.46-.44,2.26-1.3,2.26a3,3,0,0,1-2.43-2.48c0-.27,0-.76,0-1.56Zm17.61-3.08a4.31,4.31,0,0,0,1.24-.21,4.56,4.56,0,0,0,.7-.16c.76-4.43,1.41-8.64,1.57-10.43.16-1.13.21-1.83.21-2a9.12,9.12,0,0,0,.11-1.08c0-.92-.65-1.46-1.73-1.46a164,164,0,0,0-17.82,2.43c.38,2.27,1.41,11.34,1.62,14.31,4.32-.33,4.7-.33,11.07-1.08Z"/><path class="cls-1" d="M202.39,29.11a17.51,17.51,0,0,1,3.4-.44c1.14,0,2.49.49,4.65,1.68a2.48,2.48,0,0,1,1.46,2,1.38,1.38,0,0,1-1.35,1.4,6.31,6.31,0,0,1-1.35-.26c-2.38-.65-8.75-1.19-13.83-1.19A68.61,68.61,0,0,0,182,33.48a35,35,0,0,0-7.51,1.68c-1.89.64-2,.7-2.59.7s-1.73-.54-3.89-2.11c-1.08-.75-1.51-1.35-1.51-2s.43-1.56.65-1.56.16,0,.22.21c.43.87,2.26,1.35,5,1.35,2.06,0,8.7-.43,14.64-1,.21-3.78.43-9.4.43-11.93,0-2.11-.59-3.24-1.89-3.73a44.09,44.09,0,0,0-7.34,1.35,6,6,0,0,1-1.68.27,3.19,3.19,0,0,1-2.91-2.16,6.3,6.3,0,0,1-.6-2.27c0-.21.11-.38.27-.38a.41.41,0,0,1,.33.22,5,5,0,0,0,3.51,1.46c.59,0,.59,0,4.32-.33,8.8-.7,12.79-1.35,15.82-2.7.81-.37.86-.43,1.35-.43.81,0,1.89.49,3.56,1.62.87.6,1.24,1.14,1.24,1.78a1,1,0,0,1-.91,1.08c-.22,0-.6-.05-1-.1s-2.32-.17-3.51-.17c-1.84,0-5.35.17-9.23.49.27.16.64.38,1,.54s.86.43,1.29.7c.76.38,1.08.81,1.08,1.3a2.94,2.94,0,0,1-.37,1.29c-.71,1.73-.81,2.87-1.25,11.78C193,30.29,196.78,29.86,202.39,29.11Z"/><path class="cls-1" d="M236.2,21.28c1.89,1.4,2.8,2.86,2.8,4.43,0,1.4-.75,2.32-1.89,2.32-1,0-1.29-.44-1.72-2-.71-2.48-3-5.51-4.65-6.15-.59-.27-.7-.33-.7-.54s.27-.38.7-.38C232,19,234.41,19.93,236.2,21.28Zm-2.81,23.54c-.54.11-.92.22-1.08.27a2.15,2.15,0,0,1-.54.11.74.74,0,0,1-.65-.59c0-.17.11-.22.32-.28a38.67,38.67,0,0,0,8.1-4.21,46.92,46.92,0,0,0,12.37-12,32.74,32.74,0,0,0,3.35-6.75,20.55,20.55,0,0,0,.86-3.94,2.23,2.23,0,0,0-1.46-2.11c-.37-.11-.48-.21-.48-.38,0-.37.65-.59,1.56-.59a4.1,4.1,0,0,1,3.14,1.57c1.78,1.83,2.37,2.59,2.37,3.08s-.21.7-1.35,1.56C255,32.08,243.65,42.55,233.39,44.82Zm14-22.84a2.17,2.17,0,0,1-2.05,2.27,1.36,1.36,0,0,1-1.4-1.25c-.49-3-2.86-6.75-4.81-7.61-.21-.11-.32-.22-.32-.38s.21-.32.54-.32C242.78,14.69,247.37,18.79,247.37,22Z"/><path class="cls-1" d="M285.61,42A56.13,56.13,0,0,0,302.18,30.4a45,45,0,0,0,9.4-12.69,18.88,18.88,0,0,0,2-4.8,1.27,1.27,0,0,0-1.3-1.19,9.47,9.47,0,0,0-1,.11c-.17.05-1.3.27-2.43.43-.92.16-1.68.27-2.11.32a4.6,4.6,0,0,1-1.08.16,4.26,4.26,0,0,1-2.11-.75,52.84,52.84,0,0,1-8.91,10.85c-2.59,2.38-6.15,4.81-7,4.81-.32,0-.59-.16-.59-.38,0-.38.11-.48,1.46-1.46,2.27-1.56,5.88-5.72,8.85-10.1C299.59,12.26,301,9.18,301,7.4a3.45,3.45,0,0,0-2-3.35c-.22,0-.38-.22-.38-.32,0-.27.59-.49,1.46-.49a6.43,6.43,0,0,1,3.78,1.35c1.94,1.3,2.37,1.73,2.37,2.48,0,.33-.05.44-.37.81a10.44,10.44,0,0,0-.92,1.35c-.38.87-.54,1.14-.76,1.57a3.7,3.7,0,0,0,1.3.22A34.74,34.74,0,0,0,312,9.83a10.64,10.64,0,0,0,2.05-1c.92-.6,1.24-.71,1.57-.71.59,0,1.29.44,3.13,2,1.62,1.35,1.83,1.57,1.83,2s-.21.65-.81.87a14.51,14.51,0,0,0-1.72.75c-7.67,15.34-16.8,23.87-31.32,29.22a3.84,3.84,0,0,0-.76.27,3.3,3.3,0,0,1-.49.11c-.43,0-1-.43-1-.81,0-.16.11-.27.76-.44Z"/><path class="cls-1" d="M374.38,28.08c3.13,2.48,4.81,5.08,4.81,7.45a2.59,2.59,0,0,1-2.38,2.81c-1.08,0-1.78-.7-2.48-2.54-2-5.34-6.37-10.09-11.23-12.09A44.23,44.23,0,0,1,347,37.42c-2.75,1.41-6.26,2.81-7.13,2.81-.38,0-.81-.32-.81-.65s.16-.32,1-.65c5.18-2,11.93-7,16.74-12.42A51.07,51.07,0,0,0,364.34,15c1.4-2.86,1.94-4.27,1.94-4.92,0-.48-.38-.81-1-.81-1.89,0-7.94,1.62-12.85,3.41-.92.37-1,.37-1.19.37-.49,0-.54,0-2.27-1.29a2.63,2.63,0,0,1-1.4-2.59c0-1,.16-1.46.54-1.46.11,0,.21.11.27.27.32.81,1.94,1.4,3.83,1.4a86,86,0,0,0,10.42-1.62A11.41,11.41,0,0,0,367,5.94a1.45,1.45,0,0,1,.87-.32c.54,0,1.19.37,3.24,1.94,1.46,1.13,1.73,1.4,1.73,1.84,0,.21-.17.37-.65.7s-.54.38-1.14.81a77.4,77.4,0,0,1-7.23,11.88A24.7,24.7,0,0,1,374.38,28.08Z"/><path class="cls-1" d="M423.52,15.55a12.45,12.45,0,0,1,8.05-3.45c3.83,0,6.8,2.26,6.8,5.18a3.19,3.19,0,0,1-1.4,2.86c-1.14.87-1.46,1-6.48,3a93,93,0,0,0-11.56,5.24c.16,2.38.27,4.11.27,5,0,2.7-.54,3.4-2.7,3.4-.65,0-1-.22-1-.54a1.42,1.42,0,0,1,.05-.43,41.44,41.44,0,0,0,.27-5.83c-4.64,2.75-6.53,4.91-6.53,7.34,0,2.7,2.54,3.78,8.86,3.78a30.88,30.88,0,0,0,7.93-1,4.33,4.33,0,0,1,1.41-.27c1.13,0,2.59,1.24,2.59,2.21,0,1.78-3.56,2.7-10.91,2.7-4.1,0-6.53-.43-8.8-1.62a6.42,6.42,0,0,1-3.73-5.51,6.82,6.82,0,0,1,2.76-5.07,38.77,38.77,0,0,1,6.37-4.16c-.05-3.83-.22-5.62-.7-6.8a2.81,2.81,0,0,0-2.54-1.89,6.28,6.28,0,0,0-3.83,2,33.21,33.21,0,0,0-4.65,5.78c-.59,1-1.19,1.51-1.78,1.51-.81,0-1.89-1.78-1.89-3.18,0-.7.22-1.08,1.3-1.89,5.83-5.08,9.39-10.32,10.42-15.34a16.34,16.34,0,0,1-4.7.92,3.36,3.36,0,0,1-2.81-1.94,6.9,6.9,0,0,1-.81-2.06.24.24,0,0,1,.22-.21c.05,0,.16,0,.27.21a3.4,3.4,0,0,0,3.18,1.41A14.4,14.4,0,0,0,412.4,6a8.72,8.72,0,0,0,.16-1.51c0-1.78-.86-2.81-2.54-2.91-.21,0-.27-.06-.27-.22,0-.49,1.84-1.35,2.86-1.35,1.73,0,3.57,1.62,3.57,3.19a8.19,8.19,0,0,1-.43,2.05A7.8,7.8,0,0,0,419.2,3.4c1.84.92,2.38,1.3,2.38,1.73,0,.65-1.19,1.13-6.32,2.65a61.94,61.94,0,0,1-6.16,11.5,8.55,8.55,0,0,1,3.57-1,5.47,5.47,0,0,1,3.45,1.24c.87.81,1.35,1.73,2,3.83C420.07,19.39,421.36,17.44,423.52,15.55Zm2.32,7c5.19-2.86,6.27-3.51,6.92-4.05a3,3,0,0,0,1.08-1.89c0-1.35-1.62-2.7-3.3-2.7-2.81,0-6.48,2.54-8.58,6a27.29,27.29,0,0,0-3.19,6.64C420.93,25.27,421.31,25.06,425.84,22.57Z"/><path class="cls-1" d="M44.28,86.41H40.72v2.21c0,.6-1,1.09-2.16,1.09-.6,0-1-.33-1-.82V66.81l3.78,2.1h2.43a47.33,47.33,0,0,0,1-7.5l4.27.7c.64.11,1,.49,1,.92a1.48,1.48,0,0,1-.75,1.13L48.22,65,45.9,68.91h5.18l1.3-2,3.08,2.92a1.29,1.29,0,0,1,.38.86,1,1,0,0,1-.6.81l-.86.49V87.65c0,1-1,1.68-2.43,1.68-.49,0-.7-.27-.7-.81V86.41H47.63v6.21H62.69l2.81-3.51,4.32,3.56c.38.27.54.54.54.76a.55.55,0,0,1-.59.49H49c5.29,5.34,13.29,9.07,22.47,10.37a14.5,14.5,0,0,0-4.16,4.21,44.22,44.22,0,0,1-11.13-5.67c-3.29-2.33-4.8-3.73-8.58-8.21v14.26a.87.87,0,0,1-.16.54,4.25,4.25,0,0,1-2.38.86.78.78,0,0,1-.81-.7V95.81c-6.05,5.13-9,7.12-14.8,9.93-3.29,1.62-6.8,3-7.66,3a.44.44,0,0,1-.49-.43c0-.27,0-.27,3.19-1.89A61.43,61.43,0,0,0,41,93.92H32.83c-3.72.1-5.4.1-9.93.27l-.71-1.89c2.6.11,4.86.16,5.78.21,2.38.06,4,.11,4.86.11H44.28Zm-7.94-6-8.75,7.18-.21,1c-.16.7-.6,1.14-1.08,1.14a1.15,1.15,0,0,1-.6-.22l-3.45-3.4c4.7-2,6.32-2.87,13.66-6.75ZM24,67c5.45,1.3,9.13,4.38,9.13,7.51a2.13,2.13,0,0,1-1.95,2.38,1.86,1.86,0,0,1-1.35-.6c-.38-.38-.38-.38-1.46-3.35a16,16,0,0,0-4.59-5.29ZM51.25,77v-6.8H40.72V77Zm0,8.1v-6.8H40.72v6.8Zm16-15.87a.62.62,0,0,1,.27.48c0,.27-.32.54-1,.71l-1.84.48L56.86,77.5c-.54.43-.81.59-1.08.59s-.43-.16-.43-.48.22-.6,2.38-3.35c1.45-2,2.86-3.94,5.72-8.21ZM56,79.07c4.37.7,6.32,1.29,8.42,2.53,2.27,1.3,3.46,2.81,3.46,4.32a2,2,0,0,1-1.89,2c-.7,0-.87-.16-3.67-3.4A22,22,0,0,0,55.89,80Z"/><path class="cls-1" d="M123.07,96.08c0,.92-1.25,2.91-3.08,5-4.27,4.75-9.13,7.13-14.8,7.13-3.83,0-6.86-1.14-9-3.4-2.26-2.44-3.24-5.62-3.24-10.54,0-3.24.06-3.94,1.08-18,.33-4.54.33-4.54.33-5.19,0-3.45-.81-4.91-2.65-4.91-.32,0-.48-.11-.48-.27,0-.59,1.13-1.08,2.37-1.08,2.76,0,5.4,3.13,5.4,6.48,0,.81,0,.86-.81,4.1A117.16,117.16,0,0,0,95.9,93.92c0,7.56,3,11,9.72,11a19.89,19.89,0,0,0,11.83-4.38A21.15,21.15,0,0,0,122,96.13c.22-.38.43-.54.65-.54A.45.45,0,0,1,123.07,96.08Z"/><path class="cls-1" d="M151,70.7c0-3.57-.54-4.43-2.75-4.54-.43,0-.49,0-.49-.22,0-.43,2.11-1.4,3-1.4a8.45,8.45,0,0,1,3.4,1.13,2.23,2.23,0,0,1,1.13,1.62,5.7,5.7,0,0,1-.37,1.52,26.5,26.5,0,0,0-.92,4.48c2.43-.92,3.24-1.46,3.83-2.49,1.68.11,3.24,1.14,3.24,2,0,.49-.27.7-1.29,1.19a38,38,0,0,1-6.32,2.32c-.38,2.81-.43,3.19-.81,5.89a2.45,2.45,0,0,1,1.89,2.32c0,.76-.43,2.48-1.73,6.81-1.51,5.18-2,7.66-2,9.66,0,2.48,1.89,3.62,6.1,3.62a32.09,32.09,0,0,0,10.37-1.89c1.83-.87,2.54-2.16,2.54-4.75,0-1.62-.06-2.27-.81-10.21-.38-3.56-.54-6.16-.54-7.78,0-3.45,1.4-5.23,4.1-5.23,4.91,0,11.18,5.13,11.18,9.18,0,1.78-1.46,3.78-2.7,3.78-.22,0-.38-.11-.54-.38-1.3-1.46-2.54-1.89-5.67-1.84-.43,0-.65-.11-.65-.38s0-.27.49-.32a2.53,2.53,0,0,0,.64-.16c.76-.11,1.35-.27,1.95-.38,1.67-.32,2.21-.7,2.21-1.51a8,8,0,0,0-2.16-3.94c-1.56-1.68-3.56-2.76-5-2.76s-2.38,1.41-2.38,4.27a64.47,64.47,0,0,0,1.35,12.2c.81,3.67,1.52,5.24,2.87,6.43a3,3,0,0,1,.27,1.24c0,1.73-1.14,3.24-3.3,4.48-3,1.68-8,2.76-12.74,2.76-6.91,0-10.21-2.11-10.21-6.54a26.78,26.78,0,0,1,.65-4.53,2.82,2.82,0,0,1-2.11.81c-2.1,0-3.45-2.49-3.45-6.27,0-5.13,2.91-9.23,6.53-9.23a5.37,5.37,0,0,1,.81,0c.11-2.43.16-2.81.27-4.8a27,27,0,0,1-7,1.35c-1.73,0-2.48-.44-3.08-1.73a9.82,9.82,0,0,1-.81-3.84c0-.27.11-.43.33-.43s.16.06.27.27a3.72,3.72,0,0,0,3.89,2.92,26,26,0,0,0,6.53-1.24,17.86,17.86,0,0,1,0-1.95Zm-4,14.68A12.63,12.63,0,0,0,145.75,91c0,2.11.81,3.56,1.94,3.56s1.57-.75,1.89-2.59c.43-2.32,1-6.26,1-6.75,0-1.08-.38-1.72-1.08-1.83S147.58,84.25,147,85.38Z"/><path class="cls-1" d="M208.49,87.87a17.09,17.09,0,0,1-1.18,6.53c-1.3,3.14-4.32,5.67-6.75,5.67a2.81,2.81,0,0,1-2.33-2.37c0-.81.27-1,2.06-1.84a13.35,13.35,0,0,0,7.29-8.15c0-.27.16-.33.37-.33C208.33,87.38,208.49,87.54,208.49,87.87ZM219.56,81c0,1.08,0,3.56.06,7.45l.11,6.05c.05,1.89.05,3.78.1,4,.06,1,.06,1.94.06,2.48a5.2,5.2,0,0,1-1.89,4.27,5,5,0,0,1-3.08,1.46c-.54,0-.76-.32-.81-1.19-.16-2.43-1-3.78-3.62-6-.21-.22-.32-.33-.32-.49a.62.62,0,0,1,.54-.48c.21,0,.54.16,1.29.64,2,1.3,2.49,1.57,3.08,1.57,1.3,0,1.3,0,1.35-11,.06-4.86.11-7.29.11-7.29V81.06a48.74,48.74,0,0,0-11.34,2.38,4.42,4.42,0,0,1-1.51.38,6,6,0,0,1-2.43-1A4.27,4.27,0,0,1,199,79.17q0-.48.33-.48c.11,0,.27.11.43.32.76,1,2,1.3,4.64,1.3a115.79,115.79,0,0,0,12.05-1c-.06-8.21-.33-8.8-3.41-9.18-.32,0-.48-.11-.48-.21,0-.54,2-1.62,3-1.62a6.8,6.8,0,0,1,4,1.62c.86.7,1.35,1.24,1.35,1.56a1.3,1.3,0,0,1-.16.54c-.71,1.14-.87,2.05-1.14,6.86,6.1-.49,9.4-1.08,11.18-1.94,1.08-.6,1.08-.6,1.46-.6.75,0,1.51.38,3.29,1.57,1.24.81,1.62,1.24,1.62,1.83a1.4,1.4,0,0,1-1.29,1.3,7.64,7.64,0,0,1-1-.11,52.88,52.88,0,0,0-7.93-.59c-2.27,0-5.4.21-7.46.43Zm10.05,7.29c4.53,2.7,7.18,5.89,7.18,8.64a2.72,2.72,0,0,1-2.54,3c-1,0-1.35-.38-1.94-2.65-1-4.1-4.86-8.8-8.26-10-.27-.11-.38-.22-.38-.38s.27-.43.59-.43A12.79,12.79,0,0,1,229.61,88.3Zm9.29-20.36a5.3,5.3,0,1,1-5.24-5.29A5.3,5.3,0,0,1,238.9,67.94Zm-8.75,0a3.46,3.46,0,1,0,3.4-3.45A3.48,3.48,0,0,0,230.15,67.94Z"/><path class="cls-1" d="M276.53,81.82c2.76,1.24,2.76,1.24,2.76,1.78a1.87,1.87,0,0,1-.22.76,12,12,0,0,0-.48,4.32l.1,5.51v6.15l.06,3.73c.05.7.05,1.35.05,1.78,0,1.4-.48,2.22-1.29,2.22-1.62,0-3.51-1.41-3.51-2.65a4.32,4.32,0,0,1,.16-1,173.91,173.91,0,0,0,1.29-18.68,5.58,5.58,0,0,0-.64-3.19,68.83,68.83,0,0,1-14,11.13,24.42,24.42,0,0,1-6,2.53c-.21,0-.54-.21-.54-.43s.11-.27.54-.43C263.3,91.43,280,74.37,280,69.62c0-.54-1-1.52-1.78-1.68-.49-.11-.6-.21-.6-.43,0-.38,1.14-.76,2.22-.76,2,0,6.1,2.92,6.1,4.38,0,.38-.16.54-.65.81a3.88,3.88,0,0,0-1.94,1.62,89.13,89.13,0,0,1-7.51,7.94Z"/><path class="cls-1" d="M329.08,78.58a2.26,2.26,0,0,1-2.49,2.32c-.7,0-1.08-.27-1.62-1.24A11.91,11.91,0,0,0,316.66,73c-.33-.11-.49-.22-.49-.38,0-.38,1-.65,2.54-.65C323.89,72,329.08,75.29,329.08,78.58Zm-7,24c-.81,0-2.6-1.3-3.89-2.81a4,4,0,0,1-1.35-3.4c0-1,.27-1.84.65-1.84.21,0,.32.11.43.38a3.79,3.79,0,0,0,3.24,2.75c2.21,0,8.75-4,16.58-10.26a105.08,105.08,0,0,0,10.09-9c1.08-1.08,4-4.42,4.54-5.07s.65-.87.92-.87a.44.44,0,0,1,.43.49c0,.86-2.38,4.54-5.08,7.83a84.56,84.56,0,0,1-11.55,11.67,82.92,82.92,0,0,1-12.85,8.85C323.19,102.18,322.6,102.56,322.06,102.56Z"/><path class="cls-1" d="M387.18,83.06c.05,9.67.16,14.8.43,18.42.11,1.13.16,1.94.16,2.43,0,2.26-.81,3.94-1.94,3.94s-2.86-2.43-2.86-3.78a7.22,7.22,0,0,1,.16-1.4c.43-3,.86-15,.86-25.76,0-5.08-.21-6.92-.86-8a2.72,2.72,0,0,0-2.59-1.35c-.38,0-.54-.16-.54-.48s.16-.38.48-.54a15.57,15.57,0,0,1,3.3-.87c.81,0,1.56.38,3.94,1.89.7.49,1,.87,1,1.25a2.93,2.93,0,0,1-.27,1c-.87,1.46-1.19,4-1.3,10a23,23,0,0,1,11.34,3.51c2.92,2,4.27,3.72,4.27,5.45a2.21,2.21,0,0,1-2.27,2.38c-1.19,0-1.78-.49-3.13-2.54a19.43,19.43,0,0,0-10.21-7.94Z"/></g></g></svg>