<svg id="Layer_1" data-name="Layer 1" xmlns="http://www.w3.org/2000/svg" viewBox="0 0 742 64.44"><title>adveture-subtext</title><path d="M743,40c-2.87,1-3.26,6.69-7.25,4.38-1.43,6.63-.53,13.51-1.32,20.3-.29,2.52-2.36,2.47-4.63,1.31-5.24-2.68-10.56-3.61-15.49.84-.78.7-1.62,1.34-2.64.67a3.35,3.35,0,0,1-1.26-3.1c0-5-.07-10,0-15,0-3.45-.51-5.92-4.79-3.67-.69.36-1.82.88-2-.31-.76-4.91-4.37-2.58-6.55-2.27-3,.42-1.78,3.41-2,5.4-.12,1.15,0,2.33,0,3.5-.21,3.8,1.55,4.67,5,3.59,1.52-.48,3.15-1.1,4.84-.46.46,1.86-1.16,1.74-2.05,2.18-6.55,3.26-13.95,4.38-20.33,8.1-2.28,1.34-3.26-.83-4.4-2.13s-1.28-2.76.69-3.54c2.44-1,2.23-3,2.22-5,0-4.49,0-9,0-13.49,0-1.26-.53-2.85,1.14-3.48a4.48,4.48,0,0,1,3.85.47c1.63,1,.61,2.24.25,3.49-1.24,4.42-.46,8.94-.52,13.41,0,1.35.38,2.78,2.2,2.71a2.26,2.26,0,0,0,2.26-2.26q.12-12.74,0-25.47a2.09,2.09,0,0,0-1.86-2.05c-1.43-.21-2.13.72-2.57,1.87-.6,1.56-1.06,3.64-3.18,3.12-2.47-.6-1.53-3-1.55-4.68-.1-6,0-12,0-18,0-2.69.75-3.6,3.63-2.33A14.49,14.49,0,0,0,697.05,8a4,4,0,0,1,5.74,4.12c-.89,4.83-.32,9.64-.62,14.45-.2,3.36-1,5.84-5.1,3.48-1.26-.74-2-.38-2,.9a36.79,36.79,0,0,0,.19,7c.38,2.35,2.27,2.52,3.7,1.12,2.29-2.24,4-1.77,5.77.45s3.52,2.18,5.46.24c1.42-1.41,3-2.69,4.37-4.11,4-4.1,4-8.52,0-12.46-1.66-1.62-2.64-.31-3.66.83-1.59,1.79-2.53,4.24-5,5.27-1.21-2,.28-3.08,1-4.23a86.91,86.91,0,0,0,8.27-18.66c.41-1.27.44-2.88,2.22-2.81a6.61,6.61,0,0,1,4.8,2.36c1.23,1.5-.38,2.31-1.36,3.14-.79.67-1.59,1.44-1.22,2.52.47,1.37,1.82,1.3,3,1.24,2.44-.13,5.12.84,7.21-1.09,2.56-2.37,4.19-.61,5.84,1.13,2.14,2.26.12,3-1.26,4.61a107.31,107.31,0,0,0-8.39,11.74c-1.24,1.91.38,3.07,1.85,4A46.24,46.24,0,0,0,743,39ZM729.79,54.72c0-7.54,0-7.54-6.78-7.54-8,0-8,0-8,7.36,0,7.87,0,7.87,9.11,7.89C729.64,62.44,729.8,62.23,729.79,54.72ZM697.26,18.33c-.34-1.95,1-4.79-1-6.34-2.36-1.78-5.49-1-8.22-.53s-2.33,2.85-2.38,4.83c0,1.5.09,3,0,4.5-.29,3.68,1.43,5,5,5.06C697,25.91,697.26,25.72,697.26,18.33Zm24.63,26.85h2.88c2.34,0,5.15.21,5.86-2.51.62-2.42-2.42-2.69-3.75-4-.94-.92-2.09-1.63-3-2.55-1.48-1.43-3-1.47-4.31,0-2.06,2.21-6.74,3.37-6,6.48C714.55,46.53,719.15,44.8,721.89,45.18Zm5.57-28.53c-.39-2.69-2.86-1.8-4.59-1.76-2.9.06-7.27-1.32-7.21,3.47a9.16,9.16,0,0,0,5.15,7.91C722,26.84,727.4,19.2,727.46,16.65Z" transform="translate(-1 -3.34)"/><path d="M1,16c4.12-.68,7.55,2.21,12,1.64,10.05-1.3,20.2-1.79,30.17-3.88,2.52-.53,8.6,4.54,8.65,7,0,1.59-1.16,1.82-2.34,2-5.68,1-10.36,4.49-15.69,6.34-3,1.06-3.49,3.86-4.39,6.29-3,8-6.87,15.53-12.57,22A25.34,25.34,0,0,1,6.12,65.09C5.19,62.7,7,62.32,7.81,61.6c9.68-8.19,14.11-19.11,16.39-31.17a1.52,1.52,0,0,0,.08-.49c-1.93-7.59,1.59-5.16,5.36-3.06,2.38,1.32,11-4.21,10.9-6.88-.06-2.09-1.79-2.18-3.31-2.05-7.3.64-14.87.77-21.62,3.53C9.34,24.05,4.85,23.48,1,18Z" transform="translate(-1 -3.34)"/><path d="M612.64,52c3.07-5.29,8.14-8.78,11.17-14,.75-1.3,1.72-2.46,2.49-3.74,1.88-3.14.83-4.5-2.7-4.78-4-.32-8.21,1.2-12.59-.78,2.35-2.5,4.84-1.44,7.09-1.16,11.16,1.41,11.69,1,11.69-10v-11c0-1.38,0-2.87,1.75-3.11s3.43-.32,4.69,1c1.11,1.16-.29,2-.6,3.06-1.79,6-1.11,12.23-.52,18.29.3,3.13,8.78,3.24,11.72-.31s5-1.74,7.32.33c.75.67,1.59,1.43,1.18,2.53s-1.53,1.2-2.53,1.2c-4.5,0-9-.06-13.5,0-1.6,0-3.61-.54-4.17,1.68-.63,2.51,1.48,3.06,3.18,3.66A39,39,0,0,1,650,41.41a10.8,10.8,0,0,1,3.6,4.71,3.16,3.16,0,0,1-1,4c-1.64,1.15-2.85.08-3.82-1.13-3-3.77-6-7.58-10-10.4-.91-.64-1.76-1.78-3.07-1.1s-.89,2-1,3.13c-.34,5.8.69,11.65-.64,17.43-.58,2.49,1.33,2.31,2.75,2.28,5.15-.13,10.3-.48,15.46-.55,1.61,0,4.38-1.75,4.63.75.21,2-1.79,4.15-4.54,4.5a108.19,108.19,0,0,1-19,.38c-9.93-.47-19.64-1.54-27.53-8.59-1.65-1.48-3.13-.59-4.26.86s-2.37,3.2-3.46,4.87c-.66,1-1.29,2.3-2.63,1.71a6.73,6.73,0,0,1-4-4.15c-.36-1.32,1.14-1.85,2.13-2.42,2.83-1.62,7.11-2.12,7.68-5.73.78-4.88.37-9.95.29-14.94,0-1.61-1.4-2.08-2.91-2s-3,.15-4.49.08c-1.06-.05-2.67.23-2.5-1.54.13-1.28,1.42-1.22,2.4-1,3.07.61,5.78.41,8.37-1.84,1.66-1.44,3,.59,4.16,1.64s2.39,2.06,1.31,4.2c-2.54,5-1,10.42-1,15.65,0,2.21,2.33,3.14,4,4.1a28.38,28.38,0,0,0,5.05,2.12c11.61,3.76,13.77,2.3,13.6-9.6,0-2.66,1.7-6.58-1.23-7.71-2.33-.91-3.79,3.1-5.86,4.66C619.5,48.1,616.64,50.84,612.64,52Z" transform="translate(-1 -3.34)"/><path d="M547.53,32.29c5.76,0,11.33,0,16.89,0a2.07,2.07,0,0,1,1.61.87c.43,1-.39,1.45-1.23,1.7-8.93,2.64-9,12.18-13.88,18-1.43,1.71.87,3.28,2.58,4,3.36,1.44,6.49.55,9.51-1.22,1-.58,2.39-1.32,3.13-.09.93,1.55-.57,2.37-1.73,3-5.87,3.15-11.79,5.88-18.11,1-1.74-1.34-3.31-.67-5.09.15-6.27,2.9-12.79,3.64-19.42,1.37-5.59-1.91-9.43-5.76-10.43-11.67-1-6.09,1.9-10.6,6.86-13.91a14,14,0,0,1,3.43-2c4-1.21,4.78-3.55,3-7.2-2.31-4.86-1.67-9.59,1.9-13.47,3.77-4.11,8.65-5.3,14.14-3.89,4.31,1.1,7.11,3.71,7.87,8.05s-.87,7.83-4.36,10.48a13.47,13.47,0,0,1-1.24.84c-7.83,4.66-7.83,4.66-2.94,12.27a30.35,30.35,0,0,0,3.1,4.52c1.57,1.69,2.37,5.81,5.13,4.29,3.31-1.81,4.89-5.83,5.31-9.74.32-3.06-1.69-4.47-4.52-4.9C548.43,34.69,547.77,34.46,547.53,32.29Zm-14.47,26c.51,0,1.51-.1,2.49-.27,6.1-1.08,6.51-2.08,3.14-7.12-3-4.41-5.94-8.81-8.63-13.38-1.64-2.8-3.17-3.31-5.9-1.38-4.79,3.37-6.79,8.09-5.24,13.34S526,58.29,533.06,58.33Zm10-38.92c.06-3.91-3-7.55-6.43-7.62a7.14,7.14,0,0,0-6.92,7.1c0,4.18,3.15,9.92,5.35,9.8C538.21,28.53,543,22.93,543.08,19.41Z" transform="translate(-1 -3.34)"/><path d="M263,23.72c6.81-2.68,13.72-5,19.95-8.81,1.8-1.11,3.95-1.86,4.18-4.52.18-1.94,1.64-1.79,3-1.45,2.45.6,5.07,1.28,6.07,3.8.62,1.56-1.3,2.06-2.42,2.67-1.46.79-3,1.48-4.47,2.22-2.07,1-4.28,2-1.34,4.52a2.85,2.85,0,0,1,.73,1.28c2.06,6.47,2.25,6.66,9.19,4.73,3.73-1,7.34-2.51,10.86.51,1,.85,2.45,1.43,1.79,3.1-.54,1.32-1.87,1.21-3,1.16-4.32-.21-8.65-.36-13-.7-4.74-.38-6.85,1.72-7.63,6.4C284.91,51,277.2,59,266.14,64.21a2.07,2.07,0,0,1-2.55-.15c0-2,1.93-2.25,3.16-3.06A34,34,0,0,0,282,37.39c.56-3.31-.82-4.38-3.86-3.73-4.55,1-9.25,1.05-13.71,2.63-3.63,1.3-7.24,1.33-10-2.18-.62-.8-1.34-1.6-.84-2.67.62-1.3,1.65-.59,2.59-.39,7.65,1.64,15.24-.12,22.85-.45,3.49-.16,4.48-2.51,3.59-5.65-.81-2.81-2.15-3.94-5.52-2.84C272.7,23.56,268.11,25.34,263,23.72Z" transform="translate(-1 -3.34)"/><path d="M81.81,58.56a109.94,109.94,0,0,0,14.63-9.1c8.93-6.92,15.09-15.84,19.87-25.88.62-1.32,1.63-2.75.27-4.12-1.1-1.1-2.53-.5-3.78-.14-3.68,1-7.32,2.2-11,3.22-2.22.61-4.54,1.43-6.65-.35-1.16-1-2.5-2.08-1.92-3.75.81-2.32,2.4-.59,3.72-.47a40.09,40.09,0,0,0,20.41-3.44c3.82-1.76,5.67.35,7.86,2.14C128,19,125,20.32,124,22c-2.2,3.72-4.35,7.47-6.66,11.12-1.47,2.3-1,3.51,1.55,4.48A34.59,34.59,0,0,1,130.64,45c2.14,2.1,4.24,4.32,4.36,7.59.07,1.85.1,3.84-2.2,4.47s-3.3-.86-4.12-2.68a34.53,34.53,0,0,0-10.5-13.71c-2.84-2.15-4.72-2.1-7.07.76A58.76,58.76,0,0,1,86.1,59C85.08,59.39,84,60.17,81.81,58.56Z" transform="translate(-1 -3.34)"/><path d="M428,63.49c.18-2.7,2.73-2.66,4.27-3.54C445.94,52.21,457,42,463.77,27.58c.62-1.33,1.84-2.58.91-4.15s-2.65-.69-4.07-.79c-6-.41-10.21,1.92-13.58,7a44.22,44.22,0,0,1-11.35,11.14c-1.19.86-2.28,2.7-4.31,1.39-.1-2.1,1.78-2.69,2.9-3.76A62.37,62.37,0,0,0,447,21.29c1.31-2.6,3-5.31.5-8.32-1-1.15-.4-2.2,1.2-2.4,3.22-.41,7.14,3.57,6.32,6.79-.71,2.82.4,3.43,2.73,2.9A32.89,32.89,0,0,0,465.36,18c3-1.48,5-.6,7.18,1.34s3.09,3.22.11,5.41c-3.14,2.31-4.11,6.34-6.11,9.57A68.54,68.54,0,0,1,432.72,62.7C431.3,63.26,429.87,64.63,428,63.49Z" transform="translate(-1 -3.34)"/><path d="M226,19.07c1.43,2.57-.31,3.71-1.13,4.94a84.73,84.73,0,0,1-29.63,27c-2.18,1.22-4.31,2.51-6.45,3.8-1.49.91-2.73,2.79-4.81,1.26s-3.6-3.23-3-6.27c1.42-7.09.91-14.28.56-21.42-.14-2.89.06-6-2.86-8.13C177,19,178,18,179.8,17.77c4.76-.49,8.45,4.2,7.61,8.94a80.74,80.74,0,0,0-1.13,17.91c.21,4.54,3.14,3.52,5.65,2.37,9.35-4.3,17.21-10.73,24.51-17.85C219.7,26,222.71,22.55,226,19.07Z" transform="translate(-1 -3.34)"/><path d="M347.16,67.08c1.39-3.16,3.19-3.37,4.58-4.14,11.36-6.25,20.78-14.41,26.09-26.57,1.24-2.85,2.81-5.8.76-9-.75-1.16-.4-1.9.93-2,2.47-.25,4,1.36,5.46,3,1.08,1.22,2.33,2.41,1.28,4.38-6.92,13-15.58,24.43-29.35,30.92C354.14,64.93,351.11,65.7,347.16,67.08Z" transform="translate(-1 -3.34)"/><path d="M638.69,23.86c2.13-5.29,3.74-10.63,6.38-15.38,1.73-3.12,4,.11,5.68,1.15,1.81,1.15.83,2.37-.72,3.33-3.18,2-4.72,5.42-7.08,8.14C642,22.24,641.57,24.21,638.69,23.86Z" transform="translate(-1 -3.34)"/><path d="M595.08,5.81c6.25-.54,12.44,4.84,11.93,9.93-.16,1.6-.57,3-2.45,3.22a2.62,2.62,0,0,1-3.07-2C600.53,12.66,597.75,9.37,595.08,5.81Z" transform="translate(-1 -3.34)"/><path d="M624.24,20.33c-.18,2.23-.63,4.1-2.92,4.27s-2.4-1.78-2.81-3.4c-.84-3.34-1-6.89-3.13-9.85a2,2,0,0,1-.17-1.78c.6-.9,1.49-.39,2.16.07A15.29,15.29,0,0,1,624.24,20.33Z" transform="translate(-1 -3.34)"/><path d="M358.25,26.5c5,.25,9.37,3.72,10.17,7.84.37,1.9-.31,3.37-2.06,4-1.9.66-2.7-.79-3.05-2.32C362.48,32.43,359.61,29.94,358.25,26.5Z" transform="translate(-1 -3.34)"/><path d="M346,31.9a11.53,11.53,0,0,1,10.57,6c1,1.66,1.3,4.15-1.07,5.19-2.07.91-3-1.06-3.54-2.58C350.74,37.1,348.28,34.69,346,31.9Z" transform="translate(-1 -3.34)"/></svg>