<svg xmlns="http://www.w3.org/2000/svg" viewBox="0 0 493.02 32.83"><defs><style>.cls-1{fill:#343434;}</style></defs><g id="Layer_2" data-name="Layer 2"><g id="Layer_1-2" data-name="Layer 1"><path class="cls-1" d="M9.83,1.44a.79.79,0,0,1,.5.65.83.83,0,0,1-.5.61L9,3.17A38.65,38.65,0,0,1,6.88,9l.79.39c.39.18.57.36.57.58a.75.75,0,0,1-.32.54l-.54.43V31.42c0,.54-.9,1-1.84,1a.55.55,0,0,1-.61-.61V13.32a32.77,32.77,0,0,1-3.49,5.29c-.72.83-1,1.08-1.19,1.08A.25.25,0,0,1,0,19.44c0-.18,0-.29.43-.94C3.56,13.1,5,8.67,6.62,0Zm4.35,7.27h5.4V.22l2.7.28c.72.08,1.12.33,1.12.72s-.22.54-.9,1l-.44.28V8.71H27.9l1-1.55,2.56,2.13a.74.74,0,0,1,.29.54c0,.25-.15.43-.54.57l-.47.22V20.81c0,.39-.14.57-.58.79a3.33,3.33,0,0,1-1.26.29c-.46,0-.64-.18-.64-.69V19.55h-6.2V31.24c0,.51-1,1.16-1.87,1.16-.43,0-.61-.26-.61-.83v-12h-6v2.73c0,.51-.94,1-1.88,1-.39,0-.57-.29-.57-.9V7.31Zm5.4,10V9.57h-6v9.11Zm8.68,0V9.57h-6.2v9.11Z"/><path class="cls-1" d="M46.08,2.05h7.41l1-1.58,2.26,2.34A.83.83,0,0,1,57,3.2a.44.44,0,0,1-.26.33l-.68.32v9.29c0,.32-.07.43-.47.65a3,3,0,0,1-1.37.39c-.28,0-.46-.21-.46-.54v-1.8H45.61V31.35c0,.51-.93,1-1.83,1-.36,0-.54-.22-.54-.62V.47Zm7.67,4.32V2.92H45.61V6.37Zm0,4.61V7.23H45.61V11Zm.75,5.87h7.13l1.19-1.66,2.12,2.27a.66.66,0,0,1,.18.43c0,.11-.07.29-.18.32l-.83.33V29.05c0,.57-.79,1-1.83,1-.33,0-.47-.18-.47-.61V27.64h-7.7v2.24c0,.54-1,1.15-1.84,1.15-.29,0-.43-.18-.43-.47V15.15Zm7.31,4.86v-4h-7.7v4Zm0,5.07V22.57h-7.7v4.21Zm.65-24.73h7.38L71,.47l2.27,2.09a1.09,1.09,0,0,1,.43.75.37.37,0,0,1-.25.36l-.86.43V30.31c0,.65-.51,1.29-1.44,1.83a3,3,0,0,1-1.3.51c-.36,0-.36,0-.61-1.48,0-.11-.15-.18-.33-.25l-3.24-1.08,0-.54h3.46c.86,0,1-.11,1-.61V11.84H62.24v1.62c0,.4-1,.83-1.83.83-.33,0-.47-.18-.47-.68V.68Zm7.7,4.32V2.92H62.24V6.37Zm0,4.61V7.23H62.24V11Z"/><path class="cls-1" d="M98.6,18A7.75,7.75,0,0,1,97,12.6c0-1,.11-3.53.21-5.62l0-1.11c0-1.95-.83-2.7-2.88-2.7a1.48,1.48,0,0,0-.43,0h-.07c-.22,0-.33-.07-.33-.18,0-.46,1.77-1,3.24-1a6.18,6.18,0,0,1,3,.86,1.75,1.75,0,0,1,.83,1.62,7.63,7.63,0,0,1-.43,2.09,34.23,34.23,0,0,0-1.23,8C99,16,99.39,17,100,17a12.81,12.81,0,0,0,3.64-2c.43-.36.61-.43.93-.43,1,0,2.38.9,2.38,1.58s-.54.9-1.84,1.3a36.91,36.91,0,0,1-4.42.9,8,8,0,0,0-3.06,1.22c-2.67,1.55-4,3.56-4,5.94,0,2.55,2.09,3.81,6.27,3.81a24.25,24.25,0,0,0,7.45-1.33,2.22,2.22,0,0,1,.86-.25,2.41,2.41,0,0,1,2.05,2,1,1,0,0,1-.64.83,24.16,24.16,0,0,1-7.63,1,19.19,19.19,0,0,1-6.92-1,5.28,5.28,0,0,1-3.56-4.79c0-2.77,2.66-5.76,6.66-7.56Z"/><path class="cls-1" d="M143.67,10.87c4.43-.72,4.61-.79,5.73-1.58.32-.29.43-.33.68-.33s.72.18,1.69,1c1.3,1.11,1.41,1.26,1.41,1.62,0,.14-.11.28-.36.43-.58.32-.62.39-1,2.41-1.15,5.62-1.95,8.17-3.13,10.29s-2.88,3.39-4.5,3.39c-.25,0-.43-.11-.43-.29v-.25a1.23,1.23,0,0,0,0-.33,5.49,5.49,0,0,0-1.8-3.81c-.32-.29-.39-.32-.39-.4s.25-.32.36-.32,0,0,.46.25l.33.22c1.65,1.11,1.69,1.15,2.19,1.15,1.26,0,2.2-1.3,3.24-4.46a29.28,29.28,0,0,0,1.3-7.35c0-.93-.22-1.29-.79-1.29a33.48,33.48,0,0,0-6.09.9,30.72,30.72,0,0,1-4.75,10.15,20.7,20.7,0,0,1-7.92,6.22,13.89,13.89,0,0,1-2.44,1,.58.58,0,0,1-.51-.47c0-.15.11-.25.54-.4a23.81,23.81,0,0,0,12.53-16c-1.26.29-3.42.94-4.65,1.37a3.34,3.34,0,0,1-1.36.39,4.83,4.83,0,0,1-2.42-1.22,2.68,2.68,0,0,1-.71-1.91c0-.25.1-.39.28-.39s.15,0,.26.21c.43.76.93,1,2.08,1a53.05,53.05,0,0,0,6.81-.72,41.66,41.66,0,0,0,.57-5,2.62,2.62,0,0,0-1.26-2.37.51.51,0,0,1-.11-.22c0-.25.29-.39.87-.39a4.11,4.11,0,0,1,2.48,1.08c1.23.9,1.37,1,1.37,1.4,0,.14,0,.14-.18.43a11.82,11.82,0,0,0-.54,1.84c-.25,1-.32,1.29-.5,2-.08.32-.11.43-.22.82Z"/><path class="cls-1" d="M174.49,19.19a7.65,7.65,0,0,1-1.66.25,4.38,4.38,0,0,1-3.16-2,10,10,0,0,1-.25-2c0-.25.1-.43.28-.43s.18.07.29.25c.47,1,1.33,1.4,3.42,1.4a168.85,168.85,0,0,0,20.81-1.47,8.44,8.44,0,0,1,1-.08,2.44,2.44,0,0,1,1.91.8c.68.64.93,1,.93,1.33,0,.54-.72.86-1.87.86-.29,0-.68,0-1.33,0s-3.71-.11-5.22-.11A96.46,96.46,0,0,0,174.49,19.19Z"/><path class="cls-1" d="M223.41,14.43c0,6.45.11,9.87.29,12.28.07.75.11,1.29.11,1.62,0,1.51-.54,2.63-1.3,2.63s-1.9-1.62-1.9-2.52a5,5,0,0,1,.1-.94c.29-2,.58-10,.58-17.17,0-3.38-.14-4.61-.58-5.33A1.8,1.8,0,0,0,219,4.1c-.26,0-.36-.1-.36-.32s.1-.25.32-.36a10.38,10.38,0,0,1,2.2-.58c.54,0,1,.26,2.62,1.26.47.33.69.58.69.83a2,2,0,0,1-.18.69c-.58,1-.79,2.66-.87,6.69A15.34,15.34,0,0,1,231,14.65c1.95,1.33,2.85,2.48,2.85,3.64a1.48,1.48,0,0,1-1.52,1.58c-.79,0-1.18-.32-2.08-1.69a12.94,12.94,0,0,0-6.81-5.29Z"/><path class="cls-1" d="M273,5.36c3.92-1,3.92-1,4.46-1a2.65,2.65,0,0,1,1.95,1.08,3.57,3.57,0,0,1,1,1.66c0,.43-.43.72-1,.72a3,3,0,0,1-1.12-.25,9.44,9.44,0,0,0-2.63-.4,11.12,11.12,0,0,0-4.39,1c-1.91.93-3.89,3.49-4.75,6.15a24.85,24.85,0,0,0-1,7.24c0,4.42,1.69,6.12,6.22,6.12a11,11,0,0,0,2.59-.26,1.82,1.82,0,0,1,.47,0,1.79,1.79,0,0,1,1.37.61,3.19,3.19,0,0,1,.65,1.44c0,.79-.94,1.12-3.31,1.12-6.52,0-10.41-3-10.41-8A21.64,21.64,0,0,1,267.37,10a10.63,10.63,0,0,1,1.84-2.05.39.39,0,0,0,.18-.29.16.16,0,0,0-.15-.14c-2.05,0-9.39,2.88-11.77,4.6-1,.72-1.33.87-1.94.87a4.9,4.9,0,0,1-2.7-1.48,4.2,4.2,0,0,1-.76-2.55c0-.15.07-.26.22-.26s.14,0,.21.18c.36.83,1.05,1.19,2.38,1.19a6.93,6.93,0,0,0,2.7-.57C263.16,7.81,266,7,269.75,6.19ZM278.1,15.8a1.33,1.33,0,0,1-1.26,1.26c-.33,0-.54-.18-.83-.68a5.83,5.83,0,0,0-3.53-2.88c-.25,0-.29-.07-.29-.18s.44-.25,1.23-.25C275.76,13.07,278.1,14.43,278.1,15.8Zm3.74-1.94a1.32,1.32,0,0,1-1.26,1.33c-.32,0-.54-.14-.76-.58a6.25,6.25,0,0,0-3.7-3.06c-.22,0-.26-.07-.26-.14s.51-.29,1.3-.29C279.5,11.12,281.84,12.49,281.84,13.86Z"/><path class="cls-1" d="M300.27,9.72c-1.79,0-3.24,0-6.65.18l-.4-1.23c3.74.15,5.29.18,7,.18h7V.4l2.8.18c.65,0,1,.25,1,.68,0,.25-.18.47-.58.68l-.83.51v6.4h9.11l2.59-2.52,2.77,2.16a.91.91,0,0,1,.4.72c0,.36-.25.51-.79.51H310.17a29.29,29.29,0,0,0,5.37,7.45c2.91,2.92,4.78,4.14,10.26,6.66-2,1.11-2.38,1.44-3,2.59-5.62-3.38-9.9-8.31-13.18-15.15V24.62H313l2-2.27,2.63,2.27a.76.76,0,0,1,.25.47.42.42,0,0,1-.47.39h-7.81v6c0,.36-.25.57-.82.75a6,6,0,0,1-1.05.22c-.32,0-.5-.22-.5-.61V25.48h-2c-1.62,0-2.92,0-5.83.15l-.4-1.15c3.28.07,4,.1,6.23.14h2v-11c-3.57,5.15-6.45,8.28-9.79,10.8-2.24,1.65-4.93,3.31-5.44,3.31a.32.32,0,0,1-.32-.32c0-.22,0-.22,2.05-1.77A49.1,49.1,0,0,0,306.5,9.72Z"/><path class="cls-1" d="M339.3.14l3,.22a.73.73,0,0,1,.72.76c0,.28-.15.5-.51.72l-.93.57v6.3h1.58l1.87-2,2.31,1.94a.75.75,0,0,1,.32.61c0,.22-.14.32-.36.32h-5.72V15.3c2.95.86,4.46,2.09,4.46,3.63a1.48,1.48,0,0,1-1.33,1.55c-.51,0-.76-.25-1-.93a6.92,6.92,0,0,0-2.16-3.39V31.75c0,.36-.15.57-.58.75a4,4,0,0,1-1.3.33c-.28,0-.39-.15-.39-.47V18.14a26.2,26.2,0,0,1-4.5,6.66c-.72.79-1.08,1.08-1.3,1.08s-.21-.07-.21-.22,0-.1,1-1.72a29.7,29.7,0,0,0,5-14.37c-2.45,0-2.84,0-5.54.11l-.29-1.11c2.88.1,3.31.1,5.83.14Zm20.62,5.12,1.19-1.37,2.23,2.23a1,1,0,0,1,.33.61c0,.25-.36.54-.76.61l-.86.11a53.92,53.92,0,0,1-5.11,6.73c2.62,1.91,5.47,3,10,3.85a9.33,9.33,0,0,0-2.34,2.81,22.79,22.79,0,0,1-8.75-5.33,25.62,25.62,0,0,1-6,4.86l1.58,1.08h9.18l1-1.47,2.37,2.34a.81.81,0,0,1,.26.5c0,.14-.11.25-.29.33l-.76.28v8.14a.44.44,0,0,1-.32.5,4.79,4.79,0,0,1-1.41.36c-.36,0-.5-.18-.5-.57V30.34h-9.86v1.59a.54.54,0,0,1-.36.57,5,5,0,0,1-1.48.33c-.25,0-.36-.11-.36-.36V21a31.46,31.46,0,0,1-5,2.23.31.31,0,0,1-.29-.32c0-.15.11-.22,1.4-1a34,34,0,0,0,9.36-7.74,17.44,17.44,0,0,1-3.38-5,33.29,33.29,0,0,1-5.26,5.83c-.61.54-.79.68-.9.68a.39.39,0,0,1-.36-.36c0-.11,0-.11.69-.93,3.42-4,5.47-7.74,7.7-14l2.88,1.4a.62.62,0,0,1,.4.54,1,1,0,0,1-.8.83l-.75.14c-.4.72-.76,1.41-1.15,2.06ZM361,29.48V22.32h-9.86v7.16Zm-8-23.36a23,23,0,0,1-1.44,2.23,17.75,17.75,0,0,0,3.74,4.57,57.46,57.46,0,0,0,4.54-6.8Z"/><path class="cls-1" d="M388.73,12.92c1.18.72,1.94,1.55,1.94,2.05,0,.18-.11.36-.43.54-.54.36-.65.51-1.37,1.55a24.63,24.63,0,0,1-10.44,8.78,14.22,14.22,0,0,1-2.63.87c-.21,0-.43-.18-.43-.33s0-.18.61-.43a24.14,24.14,0,0,0,7.2-5.47c2-2.27,3.6-5.07,3.6-6.26a2.42,2.42,0,0,0-1.47-1.8c-.18-.07-.22-.11-.22-.22s.25-.39.58-.39A8.9,8.9,0,0,1,388.73,12.92Zm11.33.72a20.24,20.24,0,0,1,4.83,5.29,7.61,7.61,0,0,1,1,3.35,1.85,1.85,0,0,1-1.84,1.91c-.68,0-1-.43-1.48-1.91-1.58-5-4.67-9.07-8.24-10.8-.36-.11-.43-.18-.43-.32s.22-.29.43-.29C395.46,10.87,398.23,12.24,400.06,13.64Zm1.8-5.29a1.33,1.33,0,0,1-1.22,1.19c-.47,0-.72-.18-1-.69a6.75,6.75,0,0,0-3.63-3c-.15-.07-.22-.11-.22-.18s.54-.29,1.08-.29C399.38,5.36,401.86,6.88,401.86,8.35Zm3.78-1.94a1.28,1.28,0,0,1-1.18,1.26c-.51,0-.8-.22-1.12-.87A6.61,6.61,0,0,0,400,4c-.32-.11-.43-.18-.43-.29s.46-.25,1.15-.25C403.16,3.49,405.64,5,405.64,6.41Z"/><path class="cls-1" d="M432.21,14.43c0,6.45.11,9.87.29,12.28.07.75.11,1.29.11,1.62,0,1.51-.54,2.63-1.3,2.63s-1.9-1.62-1.9-2.52a5,5,0,0,1,.1-.94c.29-2,.58-10,.58-17.17,0-3.38-.14-4.61-.58-5.33a1.8,1.8,0,0,0-1.72-.9c-.26,0-.36-.1-.36-.32s.1-.25.32-.36a10.38,10.38,0,0,1,2.2-.58c.54,0,1,.26,2.62,1.26.47.33.69.58.69.83a2,2,0,0,1-.18.69c-.58,1-.79,2.66-.87,6.69a15.34,15.34,0,0,1,7.56,2.34c2,1.33,2.85,2.48,2.85,3.64a1.48,1.48,0,0,1-1.52,1.58c-.79,0-1.18-.32-2.08-1.69a12.94,12.94,0,0,0-6.81-5.29Z"/><path class="cls-1" d="M470.77,9.39c1.08.58,1.87,1.3,1.87,1.62,0,.15,0,.18-.32.44a2.72,2.72,0,0,0-.47,1.33,31.75,31.75,0,0,1-3.45,8.75c-1.95,3.2-6.23,7.37-7.6,7.37a.41.41,0,0,1-.43-.39c0-.15.11-.29.36-.43a19.41,19.41,0,0,0,5-5.94c1.9-3.28,3.42-8.1,3.42-10.87A2,2,0,0,0,468,9.32c-.18-.07-.25-.18-.25-.29s.21-.28.5-.28A6.06,6.06,0,0,1,470.77,9.39Zm5,6.09c0-3.17.07-4.83.07-4.9a4,4,0,0,0-.29-2.09,1.88,1.88,0,0,0-.72-.5c-.21,0-.29-.07-.29-.22s.72-.5,1.16-.5a4.08,4.08,0,0,1,2.3,1c.93.65,1,.75,1,1s0,.18-.28.5a7.36,7.36,0,0,0-.65,2.88c-.11,1.34-.36,6.88-.36,8.1,0,.51.18.72.57.72,1.34,0,4.14-1.62,6.73-3.88a40,40,0,0,0,7.13-8.28c.22-.44.33-.54.47-.54a.5.5,0,0,1,.4.43,21.1,21.1,0,0,1-2.7,4.86,33.2,33.2,0,0,1-5.58,6.23,31.69,31.69,0,0,1-5,3.42,4.78,4.78,0,0,0-2.2,1.58.42.42,0,0,1-.21.11c-.58,0-2.27-2-2.27-2.63a1.49,1.49,0,0,1,.14-.43,3.84,3.84,0,0,0,.47-2.45Z"/></g></g></svg>