<svg xmlns="http://www.w3.org/2000/svg" width="623.499" height="78.91" viewBox="0 0 623.499 78.91">
  <defs>
    <style>
      .cls-1 {
        fill: #333;
        fill-rule: evenodd;
      }
    </style>
  </defs>
  <path id="_プレミアムBBQプラン_グランピング_ワイド_森のテラス" data-name="－プレミアムBBQプラン－ グランピング・ワイド 森のテラス" class="cls-1" d="M475.08,1221.22H500.3v-1.94H475.08v1.94Zm67.041-14.43a2.175,2.175,0,1,1,0,4.35A2.175,2.175,0,0,1,542.121,1206.79Zm-23.245,25.95a29.087,29.087,0,0,0,9.32-4c4.534-2.95,7.125-6.19,10.9-13.71,0,0,.612-0.36.791-0.43a0.667,0.667,0,0,0,.54-0.54,1.269,1.269,0,0,0-.755-0.9,9.789,9.789,0,0,1-.792-0.65c-1.511-1.22-1.8-1.4-2.3-1.4a1.793,1.793,0,0,0-1.079.5,6.51,6.51,0,0,1-2.987.86c-3.023.44-7.844,0.94-9.14,0.94s-2.555-.54-2.734-1.19c-0.108-.29-0.144-0.32-0.252-0.32-0.216,0-.324.32-0.324,0.97a2.53,2.53,0,0,0,.791,1.84,4.315,4.315,0,0,0,1.98,1.04,3.332,3.332,0,0,0,.575-0.14,43.743,43.743,0,0,1,11.515-2.06,0.893,0.893,0,0,1,1.043.87,13.842,13.842,0,0,1-1.511,4.17,29.339,29.339,0,0,1-6.945,8.46,36.7,36.7,0,0,1-9.355,5.15c-0.4.14-.5,0.22-0.5,0.36a0.505,0.505,0,0,0,.5.32,2.011,2.011,0,0,0,.288-0.07Zm23.281-27.1a3.31,3.31,0,1,0,3.275,3.31A3.321,3.321,0,0,0,542.157,1205.64Zm22.207,20.08a4.077,4.077,0,0,1-.432,1.87,1.235,1.235,0,0,0-.144.54,2.648,2.648,0,0,0,1.008,1.33,6.419,6.419,0,0,0,1.475.98,1.065,1.065,0,0,0,.648-0.47,7.5,7.5,0,0,1,2.3-1.62,35.66,35.66,0,0,0,7.808-5.08,40.206,40.206,0,0,0,7.737-8.31,12.551,12.551,0,0,0,1.331-2.45,0.451,0.451,0,0,0-.288-0.4c-0.144,0-.18.04-0.5,0.51-4.426,6.05-14.609,13.82-18.135,13.82-0.684,0-.792-0.4-0.792-2.59,0-1.69.144-3.78,0.4-6.59a7.164,7.164,0,0,1,.684-2.63,1.01,1.01,0,0,0,.216-0.46,0.989,0.989,0,0,0-.54-0.58,5.577,5.577,0,0,1-.648-0.5,5.3,5.3,0,0,0-2.843-1.34,3,3,0,0,0-1.8.47,0.39,0.39,0,0,0,.288.22,2.83,2.83,0,0,1,2.195,2.81c0,0.14,0,.61.036,1.29v9.18Zm43.8-15.15c3.058,0.46,5.649,1.83,8.672,4.57a1.539,1.539,0,0,0,1.331.65,1.284,1.284,0,0,0,1.4-1.19c0-2.38-5.613-5.01-10.687-5.01-1.511,0-2.3.15-2.3,0.47,0,0.18.108,0.25,0.36,0.29a2.771,2.771,0,0,0,.432.07Zm-0.252,6.62c-1.4,0-1.835.11-1.835,0.4a0.271,0.271,0,0,0,.324.28,13.523,13.523,0,0,1,7.7,3.68c0.935,0.86,1.079.93,1.691,0.93a1.206,1.206,0,0,0,1.259-1.15c0-.9-1.187-2.09-2.914-2.88A14.09,14.09,0,0,0,607.909,1217.19Zm-2.195,7.34c-0.5,0-.72.11-0.72,0.33,0,0.25.072,0.28,0.684,0.43a27.64,27.64,0,0,1,10.939,6.23c1.331,1.47,1.547,1.58,2.375,1.58a1.414,1.414,0,0,0,1.547-1.33c0-1.66-3.2-3.93-7.844-5.62A28.109,28.109,0,0,0,605.714,1224.53Zm54.16-7.92c0.755-.32,1.583-0.68,2.374-1.11a10.011,10.011,0,0,1,4.57-1.44,0.689,0.689,0,0,0,.792-0.61,1.487,1.487,0,0,0-.612-0.98,11.1,11.1,0,0,1-.756-0.93c-1.007-1.23-1.655-1.8-2.087-1.8a1.6,1.6,0,0,0-.575.11c-1.943.57-2.3,0.64-7.341,1.15-1.259.18-2.519,0.32-3.742,0.47-0.5.07-1.4,0.14-2.447,0.18-1.079.07-1.8,0.1-2.123,0.14a10.953,10.953,0,0,1-1.151.11,3.2,3.2,0,0,1-2.555-1.26c-0.108-.29-0.18-0.36-0.324-0.36a0.393,0.393,0,0,0-.288.36v0.18a2.815,2.815,0,0,0,.576,1.98,4.079,4.079,0,0,0,2.519,1.73,2.8,2.8,0,0,0,.935-0.36,26,26,0,0,1,5.578-1.59,72.547,72.547,0,0,1,7.52-.93c1.152,0,1.907.28,1.907,0.68a5.62,5.62,0,0,1-2.015,2.38c-2.591,1.98-2.591,1.98-3.022,2.16a7.021,7.021,0,0,0-3.635-1.91,0.6,0.6,0,0,0-.647.39c0,0.11.036,0.15,0.18,0.18a1.128,1.128,0,0,1,.935,1.26,18.084,18.084,0,0,1-.576,3.39,24.243,24.243,0,0,1-2.375,6.33,18.629,18.629,0,0,1-6.225,7.24,0.82,0.82,0,0,0-.431.39,0.352,0.352,0,0,0,.359.29c1.3,0,4.606-2.63,6.657-5.33a34.824,34.824,0,0,0,5.542-11.37,6.623,6.623,0,0,1,.755-0.36Zm34.656-6.22c-0.431.07-.539,0.1-0.539,0.25,0,0.11.036,0.14,0.18,0.21a4.089,4.089,0,0,1,.827.44,2.309,2.309,0,0,1,.684,1.51c0,1.01-3.994,9.75-6.585,14.47a15.666,15.666,0,0,1-2.267.18c-1.3,0-1.979-.4-2.159-1.26-0.072-.22-0.072-0.25-0.216-0.25-0.216,0-.252.03-0.324,0.28a6.6,6.6,0,0,0-.18,1.3,2.15,2.15,0,0,0,.684,1.62,4.755,4.755,0,0,0,2.051,1.69,1.847,1.847,0,0,0,.684-0.25,25.73,25.73,0,0,1,5.757-1.98c7.341-1.91,8.06-2.12,11.191-3.31a20.776,20.776,0,0,1,1.691,3.56c0.612,1.77.792,1.98,1.619,1.98a1.486,1.486,0,0,0,1.511-1.62c0-1.87-1.943-4.64-4.605-6.55a9.826,9.826,0,0,0-4.21-1.98,0.315,0.315,0,0,0-.36.22,0.7,0.7,0,0,0,.54.47,11.589,11.589,0,0,1,3.31,3.09c-3.886.97-9.1,2.02-13.278,2.63a110.635,110.635,0,0,1,8.312-12.85,1.269,1.269,0,0,0,.5-0.79c0-.51-0.648-1.3-1.835-2.31a2.664,2.664,0,0,0-2.591-.79Zm26.453,23.5h12.306c8.132,0,11.875-2.09,11.875-6.62a6.294,6.294,0,0,0-3.635-5.8,14.9,14.9,0,0,0-4.713-1.29c4.641-1.15,6.513-2.88,6.513-6.05,0-3.85-3.095-5.83-9.068-5.83H720.983v1.19c3.311,0,3.958.43,4.03,2.48v17.53c0,2.63-.755,3.24-4.03,3.24v1.15Zm7.2-13.03h4.785c5.506,0,8.1,1.87,8.1,5.9a5.233,5.233,0,0,1-2.843,4.94c-1.367.72-3.131,1-6.477,1-2.987,0-3.562-.5-3.562-3.09v-8.75Zm0-1.22v-7.89c0-1.9.575-2.3,3.418-2.3a13.041,13.041,0,0,1,5.11.65c2.231,0.86,3.274,2.23,3.274,4.35,0,3.5-2.555,5.19-7.916,5.19H728.18Zm25.264,14.25H765.75c8.132,0,11.874-2.09,11.874-6.62a6.293,6.293,0,0,0-3.634-5.8,14.9,14.9,0,0,0-4.714-1.29c4.642-1.15,6.513-2.88,6.513-6.05,0-3.85-3.094-5.83-9.067-5.83H753.444v1.19c3.31,0,3.958.43,4.03,2.48v17.53c0,2.63-.756,3.24-4.03,3.24v1.15Zm7.2-13.03h4.786c5.506,0,8.1,1.87,8.1,5.9a5.232,5.232,0,0,1-2.842,4.94c-1.368.72-3.131,1-6.477,1-2.987,0-3.563-.5-3.563-3.09v-8.75Zm0-1.22v-7.89c0-1.9.576-2.3,3.419-2.3a13.032,13.032,0,0,1,5.109.65c2.231,0.86,3.275,2.23,3.275,4.35,0,3.5-2.555,5.19-7.916,5.19H760.64Zm51.028,13.35c-0.827,1.3-1.547,1.84-2.41,1.84-1.044,0-1.908-.69-3.131-2.38,4.57-3.85,6.225-6.98,6.225-11.91,0-7.71-5.074-12.67-12.954-12.67a11.933,11.933,0,0,0-8.276,2.91,13.59,13.59,0,0,0-4.5,10.3c0,7.41,5.47,13.17,12.486,13.17a12.365,12.365,0,0,0,3.815-.61c1.583,2.84,2.842,3.85,4.785,3.85,2.123,0,3.563-1.15,4.894-3.99Zm-6.872-2.16c-2.663-3.85-4.21-4.97-6.945-4.97-2.771,0-4.1,1.3-4.426,4.36a13.718,13.718,0,0,1-2.915-9.14c0-7.38,3.491-12.1,9.032-12.1,5.506,0,8.96,4.61,8.96,11.92A13.168,13.168,0,0,1,804.8,1230.83Zm-2.663,1.55a5.955,5.955,0,0,1-2.951.72c-2.734,0-4.5-1.26-4.5-3.24a2.638,2.638,0,0,1,2.735-2.7c1.943,0,3.311,1.44,4.894,5.11Zm48.437-25.59a2.175,2.175,0,1,1,0,4.35A2.175,2.175,0,0,1,850.57,1206.79Zm-23.245,25.95a29.087,29.087,0,0,0,9.32-4c4.534-2.95,7.125-6.19,10.9-13.71,0,0,.612-0.36.791-0.43a0.667,0.667,0,0,0,.54-0.54,1.269,1.269,0,0,0-.755-0.9,9.789,9.789,0,0,1-.792-0.65c-1.511-1.22-1.8-1.4-2.3-1.4a1.8,1.8,0,0,0-1.08.5,6.5,6.5,0,0,1-2.986.86c-3.023.44-7.844,0.94-9.14,0.94s-2.555-.54-2.734-1.19c-0.108-.29-0.144-0.32-0.252-0.32-0.216,0-.324.32-0.324,0.97a2.53,2.53,0,0,0,.791,1.84,4.317,4.317,0,0,0,1.979,1.04,3.316,3.316,0,0,0,.576-0.14,43.743,43.743,0,0,1,11.515-2.06,0.894,0.894,0,0,1,1.043.87,13.842,13.842,0,0,1-1.511,4.17,29.339,29.339,0,0,1-6.945,8.46,36.7,36.7,0,0,1-9.355,5.15c-0.4.14-.5,0.22-0.5,0.36a0.505,0.505,0,0,0,.5.32,2.011,2.011,0,0,0,.288-0.07Zm23.281-27.1a3.31,3.31,0,1,0,3.275,3.31A3.321,3.321,0,0,0,850.606,1205.64Zm32.75,5c0.54-.07,1.116-0.15,1.8-0.22,1.3-.11,1.584-0.25,1.584-0.68a1.331,1.331,0,0,0-.936-0.97,3.915,3.915,0,0,0-1.727-.69,2.748,2.748,0,0,0-1.26.4,28.377,28.377,0,0,1-7.988,1.33c-1.295,0-2.015-.25-2.447-0.86a0.19,0.19,0,0,0-.144-0.15,0.163,0.163,0,0,0-.144.18,5.546,5.546,0,0,0,.684,1.48,2.707,2.707,0,0,0,2.663,1.29,31.359,31.359,0,0,0,5.181-.64c1.3-.22,2.2-0.36,2.339-0.4Zm5.434,7.41c1.079-.79,1.259-0.97,1.259-1.22,0-.54-2.447-2.52-3.131-2.52a2.174,2.174,0,0,0-.647.18,11.726,11.726,0,0,1-3.886,1.04q-0.7.12-4.966,0.54c-4.174.44-4.174,0.44-4.714,0.44-1.367,0-2.627-.54-2.878-1.23-0.072-.21-0.108-0.25-0.216-0.25-0.18,0-.288.18-0.288,0.47a3.457,3.457,0,0,0,.9,2.23,3.883,3.883,0,0,0,1.979,1.22,1.17,1.17,0,0,0,.54-0.14,47.486,47.486,0,0,1,6.045-1.55,58.4,58.4,0,0,1,6.045-.79,0.923,0.923,0,0,1,1.116.9c0,0.68-.5,1.91-1.8,4.32a24.465,24.465,0,0,1-6.765,7.49,24.878,24.878,0,0,1-7.161,3.67c-0.216.03-.288,0.11-0.288,0.21a0.5,0.5,0,0,0,.54.36c1.368,0,4.534-1.18,7.053-2.62C882.529,1227.88,885.3,1224.75,888.79,1218.05Zm27.532,11.92a50.324,50.324,0,0,0,8.2-5.65,53.555,53.555,0,0,0,7.412-7.45c1.692-2.09,3.239-4.47,3.239-5.01a0.287,0.287,0,0,0-.252-0.32,0.8,0.8,0,0,0-.612.54c-0.324.43-2.267,2.63-2.878,3.27a68.854,68.854,0,0,1-6.477,5.73c-5.038,4.03-9.176,6.58-10.615,6.58a2.43,2.43,0,0,1-2.051-1.72,0.307,0.307,0,0,0-.252-0.26c-0.252,0-.432.51-0.432,1.19a2.561,2.561,0,0,0,.864,2.16,5.169,5.169,0,0,0,2.482,1.8A2.523,2.523,0,0,0,916.322,1229.97Zm-3.527-18.72c-1.007,0-1.619.14-1.619,0.4a0.364,0.364,0,0,0,.324.25,7.419,7.419,0,0,1,5.29,4.25,1.115,1.115,0,0,0,1.043.79,1.45,1.45,0,0,0,1.583-1.48C919.416,1213.37,916.106,1211.25,912.8,1211.25Zm37.716,9.97h25.224v-1.94H950.511v1.94Zm-516.082,42.89c0.18-.07.36-0.18,0.4-0.18l0.4-.14c0.971-.44.971-0.44,0.971-0.76,0-.29-0.108-0.43-1.187-1.33-1.224-1.01-1.619-1.26-2.015-1.26a2.394,2.394,0,0,0-1.008.43,6.939,6.939,0,0,1-1.3.65,18.621,18.621,0,0,1-4.174.79,1.206,1.206,0,0,1-.864-0.25,13.026,13.026,0,0,0,.828-1.59,1.076,1.076,0,0,0,.5-0.75c0-.51-0.288-0.83-1.512-1.62a4.189,4.189,0,0,0-2.41-.87,0.88,0.88,0,0,0-.9.33,0.239,0.239,0,0,0,.216.18,2.16,2.16,0,0,1,1.259,2.19c0,2.6-4.21,8.39-7.988,11.02-0.864.61-.935,0.68-0.935,0.86a0.322,0.322,0,0,0,.359.25c0.612,0,3.1-1.61,4.678-3.05a30.235,30.235,0,0,0,5.434-6.2,2.853,2.853,0,0,0,1.475.58,3.373,3.373,0,0,0,.684-0.11c0.251-.03.755-0.11,1.331-0.21,0.72-.11,1.511-0.26,1.583-0.29a4.392,4.392,0,0,1,.648-0.07,0.752,0.752,0,0,1,.791.79,4.851,4.851,0,0,1-.935,2.3,31.1,31.1,0,0,1-7.449,9.5,36.744,36.744,0,0,1-8.887,5.98c-1.152.47-1.152,0.47-1.152,0.72a0.368,0.368,0,0,0,.324.4c0.324,0,.324,0,2.123-0.69a31.918,31.918,0,0,0,11.659-7.49,35.022,35.022,0,0,0,6.333-8.89Zm1.907-10.58a1.079,1.079,0,0,0-1.043.29,0.459,0.459,0,0,0,.288.14,6.56,6.56,0,0,1,3.31,2.7,1.047,1.047,0,0,0,1.044.83,1.248,1.248,0,0,0,1.151-1.19C441.086,1254.89,438.711,1253.53,436.336,1253.53Zm-3.814,1.72a1.369,1.369,0,0,0-1.043.29,0.436,0.436,0,0,0,.287.15,6.619,6.619,0,0,1,3.239,2.66,1,1,0,0,0,1.007.79,1.23,1.23,0,0,0,1.116-1.15C437.128,1256.62,434.825,1255.25,432.522,1255.25Zm38.759,3.39c0.54-.07,1.115-0.15,1.8-0.22,1.3-.11,1.583-0.25,1.583-0.68a1.329,1.329,0,0,0-.935-0.97,3.919,3.919,0,0,0-1.727-.69,2.748,2.748,0,0,0-1.26.4,28.377,28.377,0,0,1-7.988,1.33c-1.295,0-2.015-.25-2.447-0.86a0.19,0.19,0,0,0-.144-0.15,0.163,0.163,0,0,0-.144.18,5.546,5.546,0,0,0,.684,1.48,2.707,2.707,0,0,0,2.663,1.29,31.359,31.359,0,0,0,5.181-.64c1.3-.22,2.195-0.36,2.339-0.4Zm5.433,7.41c1.08-.79,1.26-0.97,1.26-1.22,0-.54-2.447-2.52-3.131-2.52a2.166,2.166,0,0,0-.647.18,11.732,11.732,0,0,1-3.887,1.04q-0.7.12-4.965,0.54c-4.174.44-4.174,0.44-4.714,0.44-1.367,0-2.627-.54-2.879-1.23-0.072-.21-0.108-0.25-0.215-0.25-0.18,0-.288.18-0.288,0.47a3.452,3.452,0,0,0,.9,2.23,3.879,3.879,0,0,0,1.979,1.22,1.17,1.17,0,0,0,.54-0.14,47.441,47.441,0,0,1,6.045-1.55,58.368,58.368,0,0,1,6.045-.79,0.923,0.923,0,0,1,1.116.9c0,0.68-.5,1.91-1.8,4.32a24.465,24.465,0,0,1-6.765,7.49,24.878,24.878,0,0,1-7.161,3.67c-0.216.03-.288,0.11-0.288,0.21a0.5,0.5,0,0,0,.54.36c1.367,0,4.534-1.18,7.053-2.62C470.453,1275.88,473.224,1272.75,476.714,1266.05Zm27.533,11.92a50.324,50.324,0,0,0,8.2-5.65,53.61,53.61,0,0,0,7.412-7.45c1.692-2.09,3.239-4.47,3.239-5.01a0.287,0.287,0,0,0-.252-0.32,0.8,0.8,0,0,0-.612.54c-0.324.43-2.267,2.63-2.878,3.27a68.981,68.981,0,0,1-6.477,5.73c-5.038,4.03-9.176,6.58-10.615,6.58a2.429,2.429,0,0,1-2.051-1.72,0.307,0.307,0,0,0-.252-0.26c-0.252,0-.432.51-0.432,1.19a2.561,2.561,0,0,0,.864,2.16,5.169,5.169,0,0,0,2.482,1.8A2.523,2.523,0,0,0,504.247,1277.97Zm-3.527-18.72c-1.007,0-1.619.14-1.619,0.4a0.364,0.364,0,0,0,.324.25,7.415,7.415,0,0,1,5.289,4.25,1.117,1.117,0,0,0,1.044.79,1.45,1.45,0,0,0,1.583-1.48C507.341,1261.37,504.031,1259.25,500.72,1259.25Zm60.421-2.92a2.215,2.215,0,0,1,.036,4.43A2.215,2.215,0,0,1,561.141,1256.33Zm-17.02,8.18c-0.036,1.8-.072,3.06-0.072,3.49l-0.036,3.31-0.036,2.23c0,2.84,1.116,4.86,3.059,5.58,1.187,0.47,3.67.68,7.52,0.68a24.181,24.181,0,0,0,4.966-.43,1.519,1.519,0,0,0,1.4-1.4,0.981,0.981,0,0,0-.791-0.9,10.1,10.1,0,0,0-2.3-.79c-1.907.97-4.138,1.36-7.449,1.36-1.763,0-2.843-.25-3.418-0.86a4.688,4.688,0,0,1-1.044-3.28c0-.25,0-0.72.036-1.18,0.036-.76.036-1.23,0.072-2.27a80.779,80.779,0,0,0,9.212-3.38c2.663-1.08,3.238-1.44,3.238-1.91,0-.94-2.986-2.81-4.5-2.81a0.3,0.3,0,0,0-.323.22,0.358,0.358,0,0,0,.144.28,1.253,1.253,0,0,1,.467.9c0,0.9-.719,1.7-2.842,3.06a31.444,31.444,0,0,1-5.362,2.88c0.36-5.47.432-6.4,0.72-7.66a5.063,5.063,0,0,0,.072-0.69c0-.97-1.727-2.34-3.023-2.34a2.791,2.791,0,0,0-1.763.65,0.271,0.271,0,0,0,.216.22c1.367,0.43,1.835,1.47,1.835,3.99v1.05Zm17.092-9.36a3.38,3.38,0,1,0,3.346,3.38A3.4,3.4,0,0,0,561.213,1255.15Zm26.525,22.82a50.324,50.324,0,0,0,8.2-5.65,53.61,53.61,0,0,0,7.412-7.45c1.692-2.09,3.239-4.47,3.239-5.01a0.287,0.287,0,0,0-.252-0.32,0.8,0.8,0,0,0-.612.54c-0.324.43-2.267,2.63-2.878,3.27a68.981,68.981,0,0,1-6.477,5.73c-5.038,4.03-9.176,6.58-10.615,6.58a2.429,2.429,0,0,1-2.051-1.72,0.307,0.307,0,0,0-.252-0.26c-0.252,0-.432.51-0.432,1.19a2.561,2.561,0,0,0,.864,2.16,5.169,5.169,0,0,0,2.482,1.8A2.523,2.523,0,0,0,587.738,1277.97Zm-3.527-18.72c-1.007,0-1.619.14-1.619,0.4a0.364,0.364,0,0,0,.324.25,7.415,7.415,0,0,1,5.289,4.25,1.117,1.117,0,0,0,1.044.79,1.45,1.45,0,0,0,1.583-1.48C590.832,1261.37,587.522,1259.25,584.211,1259.25Zm58.946,4.86c0.18-.07.36-0.18,0.4-0.18l0.395-.14c0.972-.44.972-0.44,0.972-0.76,0-.29-0.108-0.43-1.187-1.33-1.224-1.01-1.62-1.26-2.016-1.26a2.4,2.4,0,0,0-1.007.43,7,7,0,0,1-1.3.65,18.631,18.631,0,0,1-4.174.79,1.206,1.206,0,0,1-.864-0.25,13.026,13.026,0,0,0,.828-1.59,1.076,1.076,0,0,0,.5-0.75c0-.51-0.288-0.83-1.511-1.62a4.19,4.19,0,0,0-2.411-.87,0.878,0.878,0,0,0-.9.33,0.239,0.239,0,0,0,.215.18,2.16,2.16,0,0,1,1.26,2.19c0,2.6-4.21,8.39-7.988,11.02-0.864.61-.936,0.68-0.936,0.86a0.323,0.323,0,0,0,.36.25c0.612,0,3.094-1.61,4.678-3.05a30.2,30.2,0,0,0,5.433-6.2,2.859,2.859,0,0,0,1.475.58,3.373,3.373,0,0,0,.684-0.11c0.252-.03.756-0.11,1.332-0.21,0.719-.11,1.511-0.26,1.583-0.29a4.395,4.395,0,0,1,.647-0.07,0.753,0.753,0,0,1,.792.79,4.862,4.862,0,0,1-.935,2.3,31.1,31.1,0,0,1-7.449,9.5,36.747,36.747,0,0,1-8.888,5.98c-1.151.47-1.151,0.47-1.151,0.72a0.368,0.368,0,0,0,.324.4c0.323,0,.323,0,2.123-0.69a31.914,31.914,0,0,0,11.658-7.49,35,35,0,0,0,6.333-8.89Zm1.907-10.58a1.08,1.08,0,0,0-1.044.29,0.459,0.459,0,0,0,.288.14,6.558,6.558,0,0,1,3.311,2.7,1.047,1.047,0,0,0,1.043.83,1.248,1.248,0,0,0,1.152-1.19C649.814,1254.89,647.439,1253.53,645.064,1253.53Zm-3.814,1.72a1.372,1.372,0,0,0-1.044.29,0.437,0.437,0,0,0,.288.15,6.623,6.623,0,0,1,3.239,2.66,1,1,0,0,0,1.007.79,1.23,1.23,0,0,0,1.116-1.15C645.856,1256.62,643.553,1255.25,641.25,1255.25Zm35.16,9.98a3.055,3.055,0,1,0,3.023,3.06A3.074,3.074,0,0,0,676.41,1265.23Zm31.383-5.66c0.755,0,1.4.72,1.691,1.91a40.316,40.316,0,0,1,.792,6.12,6.993,6.993,0,0,1-.072.97c-0.036.22-.072,0.4-0.072,0.44a2.365,2.365,0,0,0,1.943,1.62c0.5,0,.827-0.51.827-1.34a36.083,36.083,0,0,0-.539-4.46c-0.252-1.73-.252-1.8-0.4-2.92,0.9-.43,1.007-0.46,3.886-0.9,3.13-.46,6.405-0.86,7.2-0.86,1.439,0,2.051.36,2.051,1.19,0,1.55-1.4,5.83-2.735,8.39a21.193,21.193,0,0,1-7.952,8.63,23.412,23.412,0,0,1-3.707,1.73c-0.216.07-.288,0.11-0.288,0.22a0.579,0.579,0,0,0,.5.43,19.973,19.973,0,0,0,2.987-.9,21.916,21.916,0,0,0,9.068-6.95c2.087-2.77,3.31-5.5,5-11.05a2.51,2.51,0,0,0,1.224-1.4c0-.22-0.216-0.47-1.116-1.33-1.187-1.05-1.583-1.34-1.907-1.34a1.828,1.828,0,0,0-.72.22,10.719,10.719,0,0,1-3.382,1.08,93.565,93.565,0,0,1-9.464,1.12,8.533,8.533,0,0,1-.935-0.04,5.18,5.18,0,0,0-3.059-1.12c-0.791,0-1.187.11-1.187,0.36a0.186,0.186,0,0,0,.144.18h0.216Zm52.576,5.76a51.715,51.715,0,0,0,4.786-5.07,2.537,2.537,0,0,1,1.223-1.05,0.511,0.511,0,0,0,.432-0.5c0-.94-2.591-2.81-3.886-2.81a1.66,1.66,0,0,0-1.4.47c0,0.14.072,0.22,0.359,0.29a1.664,1.664,0,0,1,1.152,1.08c0,3.06-10.687,13.93-16.121,16.41a0.515,0.515,0,0,0-.359.29,0.36,0.36,0,0,0,.359.29,16.286,16.286,0,0,0,3.815-1.62,43.658,43.658,0,0,0,9-7.13,3.828,3.828,0,0,1,.4,2.05,106.421,106.421,0,0,1-.827,11.95,3.211,3.211,0,0,0-.108.69c0,0.79,1.223,1.69,2.267,1.69,0.5,0,.827-0.54.827-1.44,0-.22,0-0.65-0.036-1.12l-0.036-2.37-0.036-3.96-0.036-3.53a7.1,7.1,0,0,1,.288-2.73,2.1,2.1,0,0,0,.144-0.54c0-.29,0-0.29-1.763-1.12Zm49.734-9.03c-0.684,0-1.044.07-1.044,0.25a0.234,0.234,0,0,0,.18.14,6.448,6.448,0,0,1,3.491,2.92,1.033,1.033,0,0,0,1.043.65,1.147,1.147,0,0,0,1.08-1.15C814.853,1257.67,812.514,1256.3,810.1,1256.3Zm-3.742,2.05a1.189,1.189,0,0,0-1.008.25,0.261,0.261,0,0,0,.18.15,6.169,6.169,0,0,1,3.382,2.77,1.006,1.006,0,0,0,1.008.72,1.177,1.177,0,0,0,1.115-1.15C811.038,1259.68,808.736,1258.35,806.361,1258.35Zm-6.441,6.91a12.62,12.62,0,0,1,6.549,5.04c0.827,1.33,1.259,1.66,2.015,1.66a1.423,1.423,0,0,0,1.439-1.51c0-1.12-.864-2.24-2.735-3.5a14.87,14.87,0,0,0-7.268-2.23c0.072-3.89.288-5.51,0.827-6.44a1.772,1.772,0,0,0,.18-0.65,1.077,1.077,0,0,0-.683-0.79c-1.44-.97-1.98-1.23-2.483-1.23a9.528,9.528,0,0,0-2.123.58,0.372,0.372,0,0,0-.288.32,0.278,0.278,0,0,0,.324.29,1.786,1.786,0,0,1,1.691.9c0.4,0.65.54,1.91,0.54,5.11,0,6.81-.252,14.58-0.576,16.49-0.036.36-.072,0.65-0.072,0.9,0,0.83,1.187,2.41,1.835,2.41,0.684,0,1.223-1.08,1.223-2.55,0-.29-0.035-0.8-0.107-1.52-0.18-2.52-.252-5.68-0.252-11.77l-0.036-1.04v-0.47Zm48.836,6.98a28.9,28.9,0,0,1-6.3,8.79,1.777,1.777,0,0,0-.864.93,0.358,0.358,0,0,0,.36.36,7.845,7.845,0,0,0,2.771-1.83,31.289,31.289,0,0,0,4.641-4.93v8.38c0,0.4.108,0.58,0.432,0.58,0.936,0,1.727-.47,1.727-1.01v-8.06a5.824,5.824,0,0,1,2.3,2.16,12.98,12.98,0,0,0,1.116,1.8,1.327,1.327,0,0,0,.755.29,1.309,1.309,0,0,0,1.224-1.3,3.23,3.23,0,0,0-1.835-2.63,12.788,12.788,0,0,0-3.563-1.33v-2.2h5.506a0.459,0.459,0,0,0,.432-0.43,1.138,1.138,0,0,0-.432-0.72l-2.411-1.9-1.655,2.19h-1.44v-3.06l0.828-.39a0.94,0.94,0,0,0,.54-0.76,0.766,0.766,0,0,0-.828-0.68l-2.7-.22v5.11h-2.3c-1.007-.04-2.194-0.07-4.821-0.18l0.432,1.15c1.043-.03,1.943-0.03,2.266-0.03,1.116-.04,1.872-0.08,2.195-0.08h1.62Zm6.333-14.61a35.162,35.162,0,0,1-9.464,7.78c-2.339,1.33-2.7,1.58-2.7,1.76a0.315,0.315,0,0,0,.288.29,27.077,27.077,0,0,0,4.678-2.16,44.377,44.377,0,0,0,9.212-6.23v8.5a0.453,0.453,0,0,0,.5.54c0.971,0,1.691-.4,1.691-0.9v-9.08c2.914,3.93,6.621,6.59,12.234,8.82a6.992,6.992,0,0,1,2.447-2.77c-6.189-1.08-10.327-3.02-14.07-6.55h12.415c0.395,0,.575-0.14.575-0.43a1.085,1.085,0,0,0-.467-0.69l-2.555-2.01-1.943,2.27H859.3v-2.59l0.863-.69a0.829,0.829,0,0,0,.288-0.65c0-.39-0.252-0.57-0.755-0.61l-2.591-.11v4.65h-5.937c-0.612,0-1.8-.04-3.563-0.11-0.54,0-1.871-.04-3.526-0.11l0.54,1.26c1.4-.04,2.7-0.04,3.13-0.07,1.907-.07,3.2-0.11,3.419-0.11h3.922Zm8.888,14.61a49.736,49.736,0,0,1-7.7,9.36c-1.187,1.01-1.187,1.01-1.187,1.16a0.345,0.345,0,0,0,.288.32c0.359,0,1.727-.97,3.742-2.63a48.057,48.057,0,0,0,5.5-5.4v8.89a0.421,0.421,0,0,0,.468.51c1.079,0,1.619-.25,1.619-0.76v-9.57a19.378,19.378,0,0,0,6.225,7.92,5.878,5.878,0,0,1,2.447-2.27c-4.318-1.91-7.448-4.68-8.6-7.53h7.377a0.432,0.432,0,0,0,.467-0.46,0.854,0.854,0,0,0-.395-0.65l-2.555-1.94-1.907,2.19h-3.059v-2.88l1.008-.57a0.923,0.923,0,0,0,.468-0.69,0.661,0.661,0,0,0-.612-0.5l-2.951-.18v4.82h-1.043c-1.044,0-1.224,0-4.822-.14l0.36,1.11Zm35.3-12.88s0.036,0.07.108,0.25a7.054,7.054,0,0,1,.432,2.3,21.828,21.828,0,0,1-2.447,8.18c-1.655,3.2-4.462,6.01-5.973,6.01-1.3,0-2.267-1.91-2.267-4.5A12.3,12.3,0,0,1,899.281,1259.36Zm1.655-.15a2.5,2.5,0,0,1,.36-0.03h0.324a9.222,9.222,0,0,1,5.4,1.8c1.943,1.51,2.951,3.85,2.951,7.02a12.487,12.487,0,0,1-3.958,9.64,15.849,15.849,0,0,1-6.549,3.42c-0.468.11-.576,0.18-0.576,0.26a0.4,0.4,0,0,0,.432.32,20.853,20.853,0,0,0,4.75-1.15c5.469-1.98,8.708-6.41,8.708-11.88,0-6.19-4.75-10.48-11.587-10.48-7.772,0-14.105,6.02-14.105,13.36a7.848,7.848,0,0,0,1.8,5.43,3.156,3.156,0,0,0,2.411,1.34c1.763,0,3.634-1.3,5.649-3.86a18.984,18.984,0,0,0,4.21-10.97,33.992,33.992,0,0,0-.5-4.22h0.288Zm33.29-1.33a0.163,0.163,0,0,0-.144.18,4.63,4.63,0,0,0,.648,1.33,2.471,2.471,0,0,0,2.266,1.3,27.858,27.858,0,0,0,5.182-.86c0.792-.18,1.367-0.33,1.583-0.36,0.612-.11,1.26-0.22,1.871-0.36,2.051-.44,2.051-0.44,2.051-0.9a0.891,0.891,0,0,0-.539-0.72,9.312,9.312,0,0,0-2.231-.8,2.437,2.437,0,0,0-1.008.36,20.982,20.982,0,0,1-7.52,1.7,2.094,2.094,0,0,1-1.943-.69A0.253,0.253,0,0,0,934.226,1257.88Zm0.36,7.09c-2.591.22-2.591,0.22-2.843,0.22a3.469,3.469,0,0,1-2.159-.86,0.5,0.5,0,0,0-.36-0.26,0.221,0.221,0,0,0-.18.26,2.348,2.348,0,0,0,.54,1.51,3.7,3.7,0,0,0,2.591,1.47,4.469,4.469,0,0,0,1.367-.28,41.647,41.647,0,0,1,7.808-1.62,1.54,1.54,0,0,1,.432,1.22,14.78,14.78,0,0,1-1.763,5.54,21.135,21.135,0,0,1-6.369,7.53,18.667,18.667,0,0,1-2.951,1.69c-0.215.07-.251,0.14-0.251,0.25a0.279,0.279,0,0,0,.287.25,20.617,20.617,0,0,0,4.031-1.55,21.027,21.027,0,0,0,9.607-12.31c0.684-.79.72-0.82,0.72-1,0-.33-0.72-0.9-2.231-1.77,1.763-.14,4.03-0.29,4.677-0.29a39.566,39.566,0,0,1,4.426.4,5.623,5.623,0,0,0,.9.11,1.018,1.018,0,0,0,.972-0.97c0-.62-2.375-1.98-3.419-1.98a0.824,0.824,0,0,0-.576.21c-1.439.72-3.49,1.05-12.666,1.95Zm52.4-6.33c0.54-.07,1.116-0.15,1.8-0.22,1.3-.11,1.583-0.25,1.583-0.68a1.329,1.329,0,0,0-.935-0.97,3.919,3.919,0,0,0-1.727-.69,2.748,2.748,0,0,0-1.26.4,28.377,28.377,0,0,1-7.988,1.33c-1.295,0-2.015-.25-2.447-0.86a0.19,0.19,0,0,0-.144-0.15,0.163,0.163,0,0,0-.144.18,5.546,5.546,0,0,0,.684,1.48,2.707,2.707,0,0,0,2.663,1.29,31.359,31.359,0,0,0,5.181-.64c1.3-.22,2.2-0.36,2.339-0.4Zm5.434,7.41c1.079-.79,1.259-0.97,1.259-1.22,0-.54-2.447-2.52-3.131-2.52a2.166,2.166,0,0,0-.647.18,11.726,11.726,0,0,1-3.886,1.04q-0.7.12-4.966,0.54c-4.174.44-4.174,0.44-4.714,0.44-1.367,0-2.627-.54-2.879-1.23-0.071-.21-0.107-0.25-0.215-0.25-0.18,0-.288.18-0.288,0.47a3.457,3.457,0,0,0,.9,2.23,3.883,3.883,0,0,0,1.979,1.22,1.17,1.17,0,0,0,.54-0.14,47.486,47.486,0,0,1,6.045-1.55,58.4,58.4,0,0,1,6.045-.79,0.923,0.923,0,0,1,1.116.9c0,0.68-.5,1.91-1.8,4.32a24.465,24.465,0,0,1-6.765,7.49,24.878,24.878,0,0,1-7.161,3.67c-0.216.03-.288,0.11-0.288,0.21a0.5,0.5,0,0,0,.54.36c1.368,0,4.534-1.18,7.053-2.62C986.154,1275.88,988.925,1272.75,992.416,1266.05Zm34.514,2.67a47.007,47.007,0,0,0,4.64-7.6c0.4-.29.58-0.39,0.76-0.54a0.612,0.612,0,0,0,.39-0.43c0-.25-0.18-0.43-1.11-1.15-1.23-.97-1.73-1.26-2.05-1.26a0.792,0.792,0,0,0-.54.21,7.331,7.331,0,0,1-2.78,1.16,54.22,54.22,0,0,1-6.69,1.04c-1.22,0-2.26-.4-2.48-0.9a0.232,0.232,0,0,0-.18-0.18c-0.22,0-.32.29-0.32,0.94a1.686,1.686,0,0,0,.89,1.65,5.67,5.67,0,0,1,.51.4,1.6,1.6,0,0,0,.93.43,2.809,2.809,0,0,0,.8-0.22,36.585,36.585,0,0,1,8.24-2.23,0.547,0.547,0,0,1,.61.51,10.348,10.348,0,0,1-1.26,3.16,31.508,31.508,0,0,1-15.55,15.34c-0.57.21-.64,0.25-0.64,0.43a0.513,0.513,0,0,0,.5.4,19,19,0,0,0,4.57-1.8,28.03,28.03,0,0,0,10.33-8.75,13.854,13.854,0,0,1,7.19,7.74c0.44,1.19.87,1.62,1.59,1.62a1.647,1.647,0,0,0,1.51-1.8c0-1.51-1.08-3.17-3.1-4.79A16.21,16.21,0,0,0,1026.93,1268.72Z" transform="translate(-413.281 -1205.62)"/>
</svg>
