<svg xmlns="http://www.w3.org/2000/svg" width="710.596" height="37.12" viewBox="0 0 710.596 37.12">
  <defs>
    <style>
      .cls-1 {
        fill: #333;
        fill-rule: evenodd;
      }
    </style>
  </defs>
  <path id="朝食はホテルでゆっくりビュッフェ" class="cls-1" d="M359,3763.92c2.064-.11,2.57-0.11,4.322-0.11h3.972v3.85h-2.375l-3.388-1.71v14.6c0,0.39.195,0.55,0.7,0.55,1.441,0,2.492-.43,2.492-0.98v-1.63h2.57v4.24H363.71c-1.4,0-2.492-.04-5.218-0.16l0.856,1.33c2.142-.08,2.765-0.12,4.362-0.12h3.582v7.21c0,0.42.234,0.58,0.818,0.58,1.4,0,2.375-.47,2.375-1.09v-6.7h8.645c-1.129,2.88-3.076,4.99-6.464,7.17a0.657,0.657,0,0,0-.389.46,0.314,0.314,0,0,0,.311.35,8.233,8.233,0,0,0,2.414-1.05,16.137,16.137,0,0,0,6.542-5.68c1.13-1.83,1.48-3.23,1.714-7.17H389.8v8.22c-0.039,1.17-.467,1.28-4.362,1.28H384.5c-1.4,0-1.441,0-1.441.24,0,0.15.117,0.23,0.39,0.31a3.153,3.153,0,0,0,.584.16l0.778,0.27c0.039,0,.857.23,1.558,0.43a3.9,3.9,0,0,1,1.48.54,0.548,0.548,0,0,1,.078.39c0.272,1.64.311,1.68,0.9,1.68a5.9,5.9,0,0,0,2.609-.78c1.207-.78,1.48-1.29,1.48-3.04v-25.31l0.779-.39a0.81,0.81,0,0,0,.389-0.66,1.12,1.12,0,0,0-.311-0.74l-3.038-3.27-1.4,2.1h-5.569l-3.621-1.68c0.155,5.22.272,10.83,0.272,12.82,0,6.42-.272,10.2-0.9,12.18l-3.233-2.68-2.219,2.8h-3.583v-4.24h2.726v1.28c0,0.23.195,0.35,0.584,0.35a7.326,7.326,0,0,0,1.908-.39,0.927,0.927,0,0,0,.779-0.74v-8.76l0.545-.35a0.563,0.563,0,0,0,.312-0.51,1.411,1.411,0,0,0-.39-0.81l-2.686-2.77-1.052,1.87h-2.726v-3.85h8.1a0.552,0.552,0,0,0,.389-0.59,0.7,0.7,0,0,0-.233-0.47l-2.921-2.64-2.142,2.64h-3.193v-4.47l1.052-.51a0.769,0.769,0,0,0-.273-1.4l-3.972-.47v6.85H363.32c-1.6,0-2.57-.03-5.218-0.15Zm5.724,13.51v-3.93h8.489v3.93h-8.489Zm0-4.98v-3.74h8.489v3.74h-8.489Zm18.769-3.27H389.8v7.63h-6.464c0.039-.93.078-1.79,0.078-2.06,0.039-.47.039-1.83,0.077-3.86v-1.71Zm0-8.84H389.8v7.79h-6.309v-7.79Zm28.085,26.87c-2.415.19-2.843,0.23-5.491,0.35l2.687,4.01a0.984,0.984,0,0,0,.779.55,0.869,0.869,0,0,0,.74-0.55l0.545-1.01c2.609-.74,2.726-0.78,4.867-1.37,4.323-1.16,6.075-1.71,8.3-2.45a0.571,0.571,0,0,0,.506-0.47,0.362,0.362,0,0,0-.39-0.35,3.967,3.967,0,0,0-.584.08c-1.986.24-5.179,0.59-8.216,0.82v-7.87h5.374c2.531,6.35,7.671,10.56,16,13.05a10.865,10.865,0,0,1,4.284-3.78c-5.841-.47-10.164-1.71-13.707-3.89,2.063-1.02,5.568-2.77,7.788-3.9l1.129,0.04,0.272,0.04a0.785,0.785,0,0,0,1.013-.66,1.241,1.241,0,0,0-.584-0.86l-2.882-2.57a72.254,72.254,0,0,1-7.554,7.36,15.2,15.2,0,0,1-4.712-4.83H427v0.78a0.6,0.6,0,0,0,.7.63,6.927,6.927,0,0,0,1.947-.43,0.829,0.829,0,0,0,.74-0.98v-8.06l0.818-.23a0.733,0.733,0,0,0,.467-0.7,0.983,0.983,0,0,0-.429-0.74l-3.309-3.12-1.247,2.07h-4.127v-2.65l1.129-.51a0.745,0.745,0,0,0,.389-0.66,0.6,0.6,0,0,0-.584-0.58l-4.322-.43v4.83h-3.738l-1.986-1.09a68.858,68.858,0,0,0,9.112-8.49c3.271,5.18,7.4,8.56,14.213,11.6a9.757,9.757,0,0,1,4.089-3.62c-8.295-1.75-13.824-4.44-17.446-8.41l0.74-.23a0.732,0.732,0,0,0,.545-0.67,0.627,0.627,0,0,0-.389-0.54l-4.361-1.72a49.716,49.716,0,0,1-15.693,16.71,0.933,0.933,0,0,0-.584.62,0.262,0.262,0,0,0,.272.24c0.779,0,4.362-1.87,7.633-4.01v18.65Zm3.738-9.31v-3.78H427v3.78H415.314Zm0-4.83v-3.85H427v3.85H415.314Zm64.844-8.1a8.345,8.345,0,0,1-4.05-1.13,5.584,5.584,0,0,1,.545-1.71,1.16,1.16,0,0,0,.156-0.54c0-.98-2.726-2.73-4.245-2.73-0.973,0-2.492.62-2.492,1.01a0.22,0.22,0,0,0,.234.2h0.156a2.246,2.246,0,0,1,.311-0.04,1.989,1.989,0,0,1,1.48,1.36c0.428,1.01.428,1.01,0.584,7.21a24.224,24.224,0,0,1-4.556.54,4.346,4.346,0,0,1-3.816-1.6,0.425,0.425,0,0,0-.312-0.31,0.261,0.261,0,0,0-.194.27,4.966,4.966,0,0,0,.739,2.03,4.812,4.812,0,0,0,4.556,2.26,18.581,18.581,0,0,0,3.622-.39c0.272,2.65.506,6.85,0.467,8.96-0.9-.08-1.986-0.16-2.8-0.16-4.322,0-7.32,1.83-7.32,4.48,0,2.41,2.687,4.24,6.269,4.24a7,7,0,0,0,5.646-2.33,5.246,5.246,0,0,0,1.208-2.73,10.406,10.406,0,0,1,3,2.61,4.813,4.813,0,0,0,1.129,1.44,2.345,2.345,0,0,0,1.558.58,1.819,1.819,0,0,0,1.869-1.94c0-2.03-2.609-4.05-7.282-5.61-0.039-1.36-.078-1.95-0.272-4.09-0.351-3.54-.351-3.85-0.546-6.07,4.167-1.25,6.114-2.69,6.114-4.6a1.1,1.1,0,0,0-.9-1.25,1.308,1.308,0,0,0-.35.04h-0.506Zm-6.971,17.84c-0.35,2.41-1.713,3.39-4.711,3.39-1.519,0-2.726-.78-2.726-1.79,0-1.45,1.635-2.54,3.855-2.54a10.149,10.149,0,0,1,3.621.74Zm3.077-18.11a8.626,8.626,0,0,0,.778.51c0.429,0.27.546,0.35,0.974,0.58a0.714,0.714,0,0,1,.389.39c0,0.47-.973,1.09-2.686,1.68a23.649,23.649,0,0,1,.155-3.39Zm-16.083,10.01c-0.194,0-.311.15-0.545,0.82-0.039.19-.234,0.62-0.467,1.2-0.273.7-.584,1.6-0.935,2.61-1.09,3.16-1.207,3.39-1.713,3.39a0.563,0.563,0,0,1-.545-0.43,12.911,12.911,0,0,1-.39-3.23,26.068,26.068,0,0,1,2.531-10.4c1.285-2.64,1.441-3.15,1.441-4.16a5.482,5.482,0,0,0-3.037-4.56,5,5,0,0,0-2.259-.7,0.192,0.192,0,0,0-.233.16,0.533,0.533,0,0,0,.311.35,4.5,4.5,0,0,1,1.168,3.31c0,1.05-.233,2.29-1.09,6.07a45.193,45.193,0,0,0-1.363,10.09c0,5.88,2.181,10.67,4.907,10.67a1.921,1.921,0,0,0,1.791-1.6,1.837,1.837,0,0,0-.195-0.62,9.671,9.671,0,0,1-.662-3.98,33.423,33.423,0,0,1,1.324-7.75,6.353,6.353,0,0,0,.195-0.97A0.262,0.262,0,0,0,460.181,3774.71Zm50.9,7.28a1.319,1.319,0,0,1-.74,1.44,16.123,16.123,0,0,1-2.726-1.44,1.482,1.482,0,0,0-.662-0.35,0.348,0.348,0,0,0-.234.27,0.841,0.841,0,0,0,.312.47,8.922,8.922,0,0,1,2.959,5.22c0.117,0.66.273,0.82,0.9,0.82a3.184,3.184,0,0,0,2.414-1.37,4.883,4.883,0,0,0,1.09-3c0-.62-0.038-1.71-0.077-2.84-0.2-4.71-.312-9.81-0.273-12.07a38.434,38.434,0,0,1,5.491-.35,43.311,43.311,0,0,1,4.4.27,10.928,10.928,0,0,0,1.363.12,1.239,1.239,0,0,0,1.4-1.13c0-.93-2.493-2.53-3.933-2.53a2.526,2.526,0,0,0-1.013.27c-1.83.86-3.31,1.17-7.593,1.64,0.078-2.69.2-3.39,0.662-4.4a2.45,2.45,0,0,0,.233-0.82c0-.39-0.35-0.78-1.6-1.71a4.235,4.235,0,0,0-2.453-1.13c-0.857,0-2.454.66-2.454,1.05,0,0.15.117,0.23,0.468,0.23,1.479,0.12,1.869,1.13,1.986,5.38,0,0.27.039,0.97,0.078,1.83-4.557.5-6.737,0.7-8.334,0.7-2.375,0-3.271-.28-3.933-1.29a0.705,0.705,0,0,0-.428.74c0,1.48,2.375,3.86,3.855,3.86a1.786,1.786,0,0,0,.935-0.39,22.517,22.517,0,0,1,7.943-1.99Zm-5.842-7.94c-0.155,0-.194.04-0.272,0.23-0.662,2.53-2.843,4.75-6.036,6.19a1.608,1.608,0,0,0-1.09,1.56,2.009,2.009,0,0,0,1.947,1.95c1.285,0,2.959-1.05,4.244-2.65a7.668,7.668,0,0,0,1.714-5.06C505.75,3774.71,505.594,3774.05,505.243,3774.05Zm12.695-.86c-0.662,0-1.09.16-1.09,0.39,0,0.12.078,0.19,0.428,0.31,2.492,1.01,4.634,3.7,5.607,7.05,0.468,1.6,1.052,2.22,2.025,2.22a2.154,2.154,0,0,0,2.142-2.38C527.05,3776.97,522.533,3773.19,517.938,3773.19Zm31.316-11.37a0.333,0.333,0,0,0-.233.31,5.138,5.138,0,0,0,1.09,2.1,3.17,3.17,0,0,0,2.531,1.13,54.249,54.249,0,0,0,9.657-1.59c2.1-.47,2.882-0.82,2.882-1.37a2.033,2.033,0,0,0-1.207-1.44,6.321,6.321,0,0,0-2.025-.7,1.874,1.874,0,0,0-.7.2,16.05,16.05,0,0,1-2.376.97,26.889,26.889,0,0,1-6.931,1.29,3.937,3.937,0,0,1-2.57-.82A0.206,0.206,0,0,0,549.254,3761.82Zm8.1,8.92a1.631,1.631,0,0,1,.311,1.01c0,2.1-1.324,5.84-3.115,8.72-1.986,3.16-5.179,6.35-7.671,7.63-1.869.98-1.869,0.98-1.869,1.13a0.254,0.254,0,0,0,.311.24,27.592,27.592,0,0,0,5.686-2.26c4.828-2.65,8.683-7.67,10.825-14.02a1.448,1.448,0,0,0,.584-0.9c0-.27-0.389-0.66-1.908-1.83,2.492-.15,3-0.19,3.972-0.19a46.5,46.5,0,0,1,5.3.39,6,6,0,0,0,1.012.12,1.3,1.3,0,0,0,1.441-1.13c0-.67-0.389-1.09-1.6-1.83a7.426,7.426,0,0,0-2.647-1.21c-1.6.97-2.726,1.32-5.958,1.79-3.271.47-13.941,1.6-15.3,1.6-1.635,0-2.375-.31-3.037-1.25a0.887,0.887,0,0,0-.39.74,2.716,2.716,0,0,0,.974,1.95,6.129,6.129,0,0,0,2.959,1.52,2.085,2.085,0,0,0,.623-0.12A38.123,38.123,0,0,1,557.354,3770.74Zm44.906,8.33-0.623,2.18a6.662,6.662,0,0,0,1.441,2.53,1.525,1.525,0,0,0,1.051.66,0.987,0.987,0,0,0,.584-0.23l0.546-.43c0.155-.08.506-0.31,1.09-0.66a37.451,37.451,0,0,0,11.643-10.71c1.675-2.41,3.738-6.27,3.738-7.01a0.3,0.3,0,0,0-.311-0.27,0.633,0.633,0,0,0-.506.51,38.441,38.441,0,0,1-3.894,5.29,40.269,40.269,0,0,1-7.282,6.39,12.159,12.159,0,0,1-4.284,1.98c-0.272,0-.428-0.31-0.428-0.81,0-.24.039-0.55,0.078-0.94,0-.27.156-2.14,0.35-4.87,0.2-2.88.312-3.97,0.39-4.75a3.33,3.33,0,0,1,.389-1.2,2.592,2.592,0,0,0,.351-0.98,2.414,2.414,0,0,0-1.13-1.4c-1.635-1.28-2.064-1.52-2.8-1.52-0.662,0-1.986.59-1.986,0.9,0,0.15.078,0.19,0.389,0.27a1.62,1.62,0,0,1,.974,1.21c0.233,0.66.272,2.68,0.272,10.12Zm-3.271-9.11a5.514,5.514,0,0,1,.273-0.86,1.7,1.7,0,0,0,.156-0.54c0-.55-0.935-1.72-2.025-2.53a5.4,5.4,0,0,0-3-1.25,1.45,1.45,0,0,0-1.441.66,0.359,0.359,0,0,0,.273.27,3.064,3.064,0,0,1,1.674,3.08,25.17,25.17,0,0,1-1.986,8.22,22.7,22.7,0,0,1-7.71,10.51,1.009,1.009,0,0,0-.545.55,0.3,0.3,0,0,0,.312.27,3.76,3.76,0,0,0,1.129-.39,21.137,21.137,0,0,0,6.23-4.67,29.454,29.454,0,0,0,6.426-12.39Zm60.677-2.73c-1.051,0-1.713.2-1.713,0.47a0.512,0.512,0,0,0,.351.35,6.394,6.394,0,0,1,3.5,2.73c0.545,1.01.623,1.05,1.246,1.05a1.7,1.7,0,0,0,1.792-1.52C664.846,3768.75,662.314,3767.23,659.666,3767.23Zm-4.867,2.46c-0.584,0-.935.11-0.935,0.35a0.409,0.409,0,0,0,.234.27,5.646,5.646,0,0,1,3,3c0.468,1.13.662,1.32,1.48,1.32a1.587,1.587,0,0,0,1.636-1.36C660.212,3771.52,657.408,3769.69,654.8,3769.69Zm4.128-10.48c-0.857.47-1.013,0.51-5.958,1.95-5.063,1.28-8.8,2.33-13.318,3.7a13.2,13.2,0,0,1-4.011.93,3.375,3.375,0,0,1-2.881-1.56c-0.2-.39-0.2-0.42-0.351-0.42-0.117,0-.2.11-0.2,0.31a6.312,6.312,0,0,0,.468,2.57c0.662,1.4,2.687,2.92,3.933,2.92a1.582,1.582,0,0,0,.973-0.39,30.96,30.96,0,0,1,5.8-3.19,29.606,29.606,0,0,1,6.854-2.26,0.185,0.185,0,0,1,.195.11,1.852,1.852,0,0,1-.39.47,21.1,21.1,0,0,0-4.322,6.82,24.665,24.665,0,0,0-1.6,8.09c0,4.44,1.753,7.33,5.335,8.69a20.739,20.739,0,0,0,7.087,1.32c2.1,0,3.193-.66,3.193-1.94a3,3,0,0,0-2.414-2.73,0.484,0.484,0,0,0-.234.04,24.1,24.1,0,0,1-3.076.27c-4.361,0-6.5-2.3-6.5-6.93a25.18,25.18,0,0,1,1.558-8.76,9.08,9.08,0,0,1,4.361-5.03,11.256,11.256,0,0,1,5.179-.85,15.1,15.1,0,0,1,2.921.31,5.692,5.692,0,0,0,.778.08,1.213,1.213,0,0,0,1.247-1.13c0-.7-0.585-1.48-1.753-2.26A4.976,4.976,0,0,0,658.927,3759.21Zm30.148,10.9a17.737,17.737,0,0,0,2.764,9.78,7.74,7.74,0,0,0,3.894,3.11c-1.908,3.43-4.867,5.84-9.19,7.52-0.35.15-.467,0.23-0.467,0.39a0.262,0.262,0,0,0,.234.27,1.421,1.421,0,0,0,.389-0.04,2.821,2.821,0,0,1,.74-0.15c5.8-1.6,9.93-4.37,11.955-7.99a10.688,10.688,0,0,0,5.568-1.98c2.96-2.14,4.751-6.19,4.751-10.75a10.738,10.738,0,0,0-1.713-6.31,7.971,7.971,0,0,0-6.348-2.92,13.307,13.307,0,0,0-1.791.16c-1.324-2.03-2.765-2.96-4.6-2.96a4.714,4.714,0,0,0-3.816,2.18c-1.129,1.56-1.752,3.46-2.375,7.05a42.91,42.91,0,0,0-6.231,7.94c-0.311.58-.389,0.66-0.7,0.66-0.467,0-.74-0.97-0.74-2.61a29.15,29.15,0,0,1,1.052-6.62c0.623-2.22.623-2.22,0.623-2.8,0-1.95-2.843-3.86-5.724-3.86-0.857,0-1.286.12-1.286,0.35,0,0.16.078,0.2,0.312,0.28,1.83,0.43,2.765,1.91,2.765,4.36,0,0.31-.039,1.05-0.078,1.71-0.2,2.34-.273,4.48-0.273,5.88a14.517,14.517,0,0,0,1.636,7.44c0.934,1.6,2.142,2.57,3.154,2.57a1.466,1.466,0,0,0,1.674-1.79,10.075,10.075,0,0,1-.155-2.03c0-3.58.9-5.84,3.972-9.81v0.97Zm11.448-7.71c3.388,0,4.945,2.42,4.945,7.71,0,5.53-1.285,8.1-5.062,10.01,0.7-2.84.9-4.9,0.9-9.73a26.493,26.493,0,0,0-.935-7.99h0.156Zm-9.424,4.83a21.787,21.787,0,0,1,6.309-4.16,35.475,35.475,0,0,1,.428,6.11,41.356,41.356,0,0,1-1.129,10.98c-2.375-1.28-3.349-2.18-4.245-3.97a14.6,14.6,0,0,1-1.479-6.66C690.983,3768.79,691.022,3768.01,691.1,3767.23Zm0.195-1.75a12.406,12.406,0,0,1,1.558-4.56,2.894,2.894,0,0,1,2.142-1.59c0.934,0,1.713.97,2.1,2.65A23.133,23.133,0,0,0,691.294,3765.48Zm51.293,4.95a4.647,4.647,0,0,1,4.166,2.18,7.716,7.716,0,0,1,1.052,3.77c0,3.59-2.376,6.78-6.815,9.08a23.385,23.385,0,0,1-5.023,1.9c-0.351.08-.506,0.2-0.506,0.35,0,0.24.194,0.36,0.545,0.36a36.445,36.445,0,0,0,8.061-1.95c5.179-1.99,7.827-5.22,7.827-9.43,0-4.59-3.778-7.9-9.035-7.9-3.894,0-7.943,1.32-13.084,4.32-1.83,1.05-2.414,1.29-3.232,1.29a2.577,2.577,0,0,1-2.18-.98c-0.234-.5-0.273-0.5-0.39-0.5-0.233,0-.35.31-0.35,1.01a3.242,3.242,0,0,0,1.246,2.8,5.56,5.56,0,0,0,3,1.29c0.779,0,1.13-.2,2.726-1.68C734.6,3772.61,739.043,3770.43,742.587,3770.43Zm40.817-13.95c-1.09,0-2.1.28-2.1,0.59,0,0.19.078,0.23,0.428,0.31a2.271,2.271,0,0,1,1.752,2.14,3.528,3.528,0,0,1-.545,1.68,25.591,25.591,0,0,1-2.726,3.58c-3.426,4.48-3.426,4.48-3.816,5.1a5.567,5.567,0,0,0-.272,5.72,15.564,15.564,0,0,0,2.336,3.04,30.885,30.885,0,0,1,6.464,10.71c0.506,1.52,1.324,2.22,2.57,2.22a2.422,2.422,0,0,0,2.3-2.57,8.823,8.823,0,0,0-1.986-4.4,25.916,25.916,0,0,0-4.245-4.79c-4.517-4.28-5.3-5.3-5.3-6.89,0-2.03,1.324-3.47,8.606-9.66,1.869-1.6,2.025-1.75,2.025-2.49a4.13,4.13,0,0,0-2.1-2.88A6.5,6.5,0,0,0,783.4,3756.48Zm47.516,8.69c1.947,0,3.154,3.39,3.154,8.84,0,5.1-1.246,9.07-3.738,11.84a22.515,22.515,0,0,1-6.659,4.9c-0.584.27-.623,0.27-0.623,0.47a0.255,0.255,0,0,0,.272.23,1.71,1.71,0,0,0,.507-0.11,8.369,8.369,0,0,1,.856-0.24,24.333,24.333,0,0,0,6.5-3.11c4.6-3.23,6.971-8.02,6.971-14.1,0-6.42-2.454-10.71-6.153-10.71-2.648,0-5.023,2.34-7.321,7.25a1.157,1.157,0,0,1-.817.85c-0.273,0-.468-0.66-0.468-1.4,0-1.67.7-3.89,2.142-6.78,1.246-2.49,1.4-2.88,1.4-3.54,0-1.75-2.57-3.78-4.79-3.78-0.934,0-1.908.32-1.908,0.59,0,0.11.078,0.19,0.312,0.23,1.4,0.2,1.986,1.09,1.986,2.92a24.276,24.276,0,0,1-.857,5.49,32.7,32.7,0,0,0-1.051,7.56c0,4.44,1.479,7.98,3.309,7.98a2.046,2.046,0,0,0,1.753-1.95,3.278,3.278,0,0,0-.156-0.89,10.25,10.25,0,0,1-.389-2.49C825.157,3770.54,828.233,3765.17,830.92,3765.17Zm34.12,11.14c0,4.71.311,6.3,1.441,7.86,1.557,2.1,3.7,2.77,8.722,2.77a32.777,32.777,0,0,0,7.983-.86c1.168-.35,1.752-0.94,1.752-1.67,0-1.02-1.947-2.11-4.127-2.26a15.517,15.517,0,0,1-7.633,1.55c-4.05,0-4.984-1.05-4.984-5.53,0-.77,0-1.09.117-3.19a64.545,64.545,0,0,0,11.682-4.24c2.531-1.09,3.037-1.44,3.037-1.99a1.753,1.753,0,0,0-.506-1.05,12.448,12.448,0,0,0-2.414-2.06,6.953,6.953,0,0,0-2.337-.51c-0.35,0-.545.08-0.545,0.27a0.784,0.784,0,0,0,.2.39,1.331,1.331,0,0,1,.311.9,3.657,3.657,0,0,1-1.635,2.53,46.925,46.925,0,0,1-7.749,4.63,66.051,66.051,0,0,1,.7-8.53,6.051,6.051,0,0,0,.194-1.32,1.988,1.988,0,0,0-1.207-1.75,6.3,6.3,0,0,0-2.881-1.05c-0.974,0-2.454.5-2.454,0.81a0.25,0.25,0,0,0,.2.2c1.908,0.74,2.259,1.56,2.259,5.18,0,0.82-.039,2.3-0.078,4.4Zm15.537-16.52c-1.051,0-1.636.16-1.636,0.47a0.314,0.314,0,0,0,.273.27,6.013,6.013,0,0,1,3.388,2.61c0.545,0.98.74,1.17,1.324,1.17a1.615,1.615,0,0,0,1.713-1.48C885.639,3761.24,883.225,3759.79,880.577,3759.79Zm4.673-2.88c-0.935,0-1.675.24-1.675,0.51a0.374,0.374,0,0,0,.273.27,5.762,5.762,0,0,1,3.388,2.53c0.623,1.05.818,1.21,1.4,1.21a1.7,1.7,0,0,0,1.713-1.52C890.351,3758.39,887.859,3756.91,885.25,3756.91Zm34.626,24.89c-0.857.07-1.713,0.19-2.531,0.27-0.273,0-2.492.27-5.179,0.58-2.882.31-2.882,0.31-3.271,0.31a3.713,3.713,0,0,1-2.531-.66c-0.117-.19-0.117-0.19-0.2-0.19a1.17,1.17,0,0,0-.467,1.17c0,0.42.272,0.74,1.051,1.36a5.276,5.276,0,0,0,2.453,1.05,5.372,5.372,0,0,0,2.142-.66,10.837,10.837,0,0,1,2.648-.82,63.236,63.236,0,0,1,9.579-.93,41.833,41.833,0,0,1,7.126.62,6.283,6.283,0,0,0,1.13.19,1.044,1.044,0,0,0,1.168-.85c0-.9-2.181-2.96-3.154-2.96a2.213,2.213,0,0,0-.546.11,13.785,13.785,0,0,1-4.361.9c-0.311.04-1.246,0.12-2.258,0.23,0.7-3.19,1.051-4.67,1.986-7.78,0.817-.71.973-0.9,0.973-1.17,0-.35-0.234-0.59-1.441-1.44-1.713-1.21-1.752-1.25-1.986-1.25a1.293,1.293,0,0,0-.7.31,11.06,11.06,0,0,1-2.3.98,37.632,37.632,0,0,1-6.192,1.12,2.091,2.091,0,0,1-1.713-.74c-0.273-.46-0.273-0.46-0.428-0.46-0.312,0-.468.27-0.468,0.89a2.558,2.558,0,0,0,1.246,2.42,2.277,2.277,0,0,0,1.363.5,8.737,8.737,0,0,0,2.8-.89,14.372,14.372,0,0,1,4.439-1.36,0.757,0.757,0,0,1,.662.89A70.827,70.827,0,0,1,919.876,3781.8Zm39.727-13.63c-0.233,0-.428.07-0.428,0.23a0.353,0.353,0,0,0,.272.31c1.519,0.74,3.038,3,3.661,5.53,0.272,1.05.584,1.44,1.246,1.44a2.074,2.074,0,0,0,1.947-2.14C966.3,3770.97,962.835,3768.17,959.6,3768.17Zm15.265,4.12c0.662-.7.74-0.77,0.74-1.05a6.332,6.332,0,0,0-1.908-2.68,3.942,3.942,0,0,0-2.8-1.29,0.533,0.533,0,0,0-.623.39,0.714,0.714,0,0,0,.389.43,2.566,2.566,0,0,1,.507,1.67c0,3.08-2.1,7.64-5.18,11.34a31.214,31.214,0,0,1-10.708,8.29c-0.974.39-.974,0.39-0.974,0.58a0.388,0.388,0,0,0,.39.32c1.479,0,5.646-1.64,8.021-3.12A31.91,31.91,0,0,0,974.868,3772.29Zm-21.3-.81c-0.389,0-.506.07-0.506,0.23a0.626,0.626,0,0,0,.429.47,10.43,10.43,0,0,1,3.543,5.25,1.06,1.06,0,0,0,1.052.86,2,2,0,0,0,1.791-2.18C959.876,3773.66,956.955,3771.48,953.567,3771.48Zm66.873-4.4c1.44-.98,1.79-1.33,1.79-1.64a3.217,3.217,0,0,0-1.37-1.32c-2.21-1.56-2.84-1.91-3.31-1.91a2.4,2.4,0,0,0-1.32.54,11.283,11.283,0,0,1-4.63,1.56,90.31,90.31,0,0,1-9.97,1.21,3.566,3.566,0,0,1-2.961-1.13,0.523,0.523,0,0,0-.312-0.27,0.448,0.448,0,0,0-.311.54,3.681,3.681,0,0,0,1.323,3.12,5.266,5.266,0,0,0,2.371,1.13,1.52,1.52,0,0,0,.63-0.24,16.315,16.315,0,0,1,4.67-1.63,49.109,49.109,0,0,1,7.67-1.33c0.9,0,1.25.24,1.25,0.86a12.029,12.029,0,0,1-.74,2.96,24.667,24.667,0,0,1-5.41,9.23,27.915,27.915,0,0,1-12.7,8.76,0.379,0.379,0,0,0-.351.31,0.328,0.328,0,0,0,.39.27c1.869,0,6.85-1.83,10.01-3.66C1012.96,3781.06,1016.78,3776.03,1020.44,3767.08Zm31.31,15.92-3,.28c-4.08.23-4.08,0.23-4.86,0.23-1.37,0-2.3-.23-2.61-0.66a0.274,0.274,0,0,0-.24-0.2,1.034,1.034,0,0,0-.39,1.09c0,0.55.32,0.98,1.21,1.52,1.79,1.17,1.79,1.17,2.42,1.17a4.326,4.326,0,0,0,1.48-.31c3.42-1.25,7.32-1.79,13.12-1.79a34.027,34.027,0,0,1,7.05.7,9.758,9.758,0,0,0,1.63.27,1.144,1.144,0,0,0,1.13-1.05c0-1.05-2.45-2.92-3.89-2.92a1.02,1.02,0,0,0-.35.04c-1.72.54-2.07,0.62-8.61,1.28,0.12-4.63.31-6.27,0.82-7.9a1.125,1.125,0,0,0,.15-0.51,2.875,2.875,0,0,0-1.44-1.32c1.41-.12,2.54-0.16,3.78-0.16,0.55,0,.55,0,2.57.08l0.47,0.04h0.39a0.909,0.909,0,0,0,.93-0.86,1.834,1.834,0,0,0-.93-1.32,4.958,4.958,0,0,0-2.38-1.13,2.812,2.812,0,0,0-1.05.35,19.49,19.49,0,0,1-6.31,1.4,53.875,53.875,0,0,1-5.41.47,3.352,3.352,0,0,1-2.14-.59c-0.31-.39-0.31-0.39-0.39-0.39-0.2,0-.27.16-0.27,0.55,0,1.44,1.24,3,2.41,3a1.793,1.793,0,0,0,.35-0.08,6.185,6.185,0,0,1,1.83-.58,16.768,16.768,0,0,1,2.69-.43c0.97,0,1.09.47,1.09,4.63a42.866,42.866,0,0,1-.2,5.03Z" transform="translate(-358.094 -3755)"/>
</svg>
