<svg xmlns="http://www.w3.org/2000/svg" width="80.468" height="35.94" viewBox="0 0 80.468 35.94">
  <defs>
    <style>
      .cls-1 {
        fill: #fff;
        fill-rule: evenodd;
      }
    </style>
  </defs>
  <path id="予約" class="cls-1" d="M676.514,3772.26c4.128-.16,5.452-0.2,6.854-0.2h7.866v14.25a0.8,0.8,0,0,1-.857.98h-0.818c-1.4-.04-1.557-0.04-4.2-0.24a1.867,1.867,0,0,0-.429-0.04,0.317,0.317,0,0,0-.35.28c0,0.23.545,0.46,2.22,1.01,0.74,0.19,3,.97,3.193,1.05,0.233,0.08.272,0.27,0.311,1.21,0.039,0.82.234,1.13,0.7,1.13a6.985,6.985,0,0,0,2.3-.74c1.4-.74,1.752-1.29,1.752-2.73v-16.16h9.969a42.633,42.633,0,0,1-6.27,7.2c-1.012.98-1.012,0.98-1.012,1.13a0.263,0.263,0,0,0,.272.24c0.507,0,3.116-1.64,8.957-5.61l0.973-.66,2.454-.16a0.858,0.858,0,0,0,.739-0.89,1.567,1.567,0,0,0-.428-1.05l-3.388-3.47-2.025,2.22H683.368c-1.675,0-3.31-.04-7.671-0.2Zm3.933-11.26c3.116-.12,4.4-0.15,5.8-0.15h12.695a36.168,36.168,0,0,1-5.1,4.94,11.472,11.472,0,0,0-4.05-1.91,16.928,16.928,0,0,0-2.375-.42c-0.2,0-.273.07-0.273,0.23a0.4,0.4,0,0,0,.312.31,8.544,8.544,0,0,1,3.894,4.09c1.012,2.18,1.285,2.49,2.3,2.49a1.806,1.806,0,0,0,1.791-1.87,3.9,3.9,0,0,0-.7-1.98c2.064-1.06,2.96-1.52,7.828-4.09l2.063,0.04,0.117,0.04a1.091,1.091,0,0,0,.584-0.74,1.266,1.266,0,0,0-.35-0.74l-3.5-3.51-2.025,2.06h-13.2c-1.869,0-3.309-.03-6.736-0.19Zm45.763,18.54a0.739,0.739,0,0,0,.39-0.59,1,1,0,0,0-.974-0.85l-2.959-.67a43.587,43.587,0,0,1-1.675,11.53,8.532,8.532,0,0,0-.428,1.68,0.237,0.237,0,0,0,.234.27c0.311,0,.856-0.82,1.947-2.84a33.368,33.368,0,0,0,2.881-8.1Zm1.052,11.48a0.45,0.45,0,0,0,.545.51,8.553,8.553,0,0,0,1.674-.27c0.779-.24.974-0.43,0.974-0.97v-16.2c0.467-.08,1.012-0.24,2.609-0.59,0.078,0.35.078,0.35,0.156,0.74a10.4,10.4,0,0,0,.389,1.83,1.215,1.215,0,0,0,1.246.9,1.948,1.948,0,0,0,1.714-2.18c0-1.56-1.441-3.39-3.583-4.6a11.787,11.787,0,0,0-1.83-.85,0.1,0.1,0,0,0-.117.11,0.445,0.445,0,0,0,.117.24,6.7,6.7,0,0,1,1.557,2.68c-0.856.08-2.453,0.2-4.789,0.35h-0.662a21.237,21.237,0,0,1,1.441-1.67c0.194-.16.7-0.74,1.44-1.56,0.39-.47.9-0.97,1.4-1.52l1.441-1.52,1.246-1.4,0.312-.35,0.817-.23a0.87,0.87,0,0,0,.779-0.7,1.17,1.17,0,0,0-.623-0.9l-2.959-2.02a77.1,77.1,0,0,1-6.153,11.44l-0.272.43-0.546.04c-2.18.08-2.492,0.08-4.75,0.2h-0.623l1.6,3.03a0.771,0.771,0,0,0,.7.59,0.92,0.92,0,0,0,.818-0.59l0.2-.39,0.428-.11,1.519-.31c0.895-.2,1.518-0.35,1.791-0.43v16.27Zm3.816-31.81a0.88,0.88,0,0,0,.7-0.78,0.972,0.972,0,0,0-.584-0.78l-3.115-1.71a64.251,64.251,0,0,1-2.765,7.52,9.968,9.968,0,0,0-4.245-1.64,0.179,0.179,0,0,0-.194.16,0.568,0.568,0,0,0,.233.35,6.664,6.664,0,0,1,2.57,4.32c0.39,1.56.818,2.1,1.636,2.1a1.929,1.929,0,0,0,1.83-1.95,4.338,4.338,0,0,0-1.09-2.64l0.311-.35,1.207-1.29c1.753-1.91,2.687-2.92,2.882-3.08Zm0.7,18.5a0.166,0.166,0,0,0-.2.19,0.764,0.764,0,0,0,.117.43,14.92,14.92,0,0,1,1.363,4.91c0.311,2.57.584,3.19,1.6,3.19,1.051,0,1.713-.93,1.713-2.41,0-1.68-.9-3.28-2.726-5.07A4.887,4.887,0,0,0,731.779,3777.71Zm8.645-12.46H751.6c0.039,1.67.077,2.57,0.077,3.85a102.251,102.251,0,0,1-.506,12.19c-0.545,3.78-1.674,5.37-3.855,5.37a40.988,40.988,0,0,1-4.205-.39,7.336,7.336,0,0,0-.935-0.15,0.2,0.2,0,0,0-.234.15,1.193,1.193,0,0,0,.818.59c3.388,1.67,4.05,2.06,3.933,2.45a2.209,2.209,0,0,0,.234,1.33,0.848,0.848,0,0,0,.817.38,5.743,5.743,0,0,0,3.271-1.36,9.952,9.952,0,0,0,3.077-5.72c0.662-3.23.856-6.78,0.895-16.36v-0.62l0.507-.23a0.781,0.781,0,0,0,.662-0.78,1.337,1.337,0,0,0-.546-1.02l-2.959-3.07-1.48,2.33H741.086a44.088,44.088,0,0,0,2.3-4.9l0.818-.24a0.886,0.886,0,0,0,.74-0.74,1.348,1.348,0,0,0-1.013-1.01l-3.349-1.56a47.977,47.977,0,0,1-4.322,13.87,4.225,4.225,0,0,0-.662,1.48,0.2,0.2,0,0,0,.195.23,1.318,1.318,0,0,0,.856-0.7,31.4,31.4,0,0,0,3.622-5.1Zm-2.3,5.76a0.237,0.237,0,0,0-.272.23,0.527,0.527,0,0,0,.272.31,10.291,10.291,0,0,1,4.128,6.27c0.389,1.21.9,1.68,1.713,1.68a2.115,2.115,0,0,0,2.1-2.26c0-1.99-1.558-3.93-4.05-5.14A12.5,12.5,0,0,0,738.126,3771.01Z" transform="translate(-675.688 -3755.75)"/>
</svg>
