<svg xmlns="http://www.w3.org/2000/svg" width="367.75" height="52.939" viewBox="0 0 367.75 52.939">
  <defs>
    <style>
      .cls-1 {
        fill: #fff;
        fill-rule: evenodd;
      }
    </style>
  </defs>
  <path id="バーベキュー" class="cls-1" d="M123.55,998.6c-0.831,0-1.215.128-1.215,0.448,0,0.192.064,0.256,0.384,0.384,0.9,0.32,1.535,1.666,1.535,3.2,0,2.63-2.239,6.92-5.951,11.4a39.6,39.6,0,0,1-13.247,11c-0.768.39-1.024,0.64-1.024,0.9a0.521,0.521,0,0,0,.576.51c1.728,0,6.847-2.05,10.623-4.29,5.568-3.2,8.7-6.27,14.975-14.59a5.693,5.693,0,0,1,1.344-1.41,1.326,1.326,0,0,0,.64-0.96c0-.96-0.96-2.3-2.688-3.84C127.2,999.306,125.726,998.6,123.55,998.6Zm15.1-1.472c-0.512.064-.768,0.192-0.768,0.512,0,0.256.064,0.32,1.088,0.768,4.544,2.05,9.664,9.47,12.863,18.62,1.088,3.78,1.088,3.78,1.536,4.42a2.4,2.4,0,0,0,2.048,1.09,4.315,4.315,0,0,0,4.16-4.48c0-5.89-6.464-14.66-13.759-18.626C143.389,998.154,139.933,997,138.653,997.13Zm4.736-10.047c-1.728,0-2.688.256-2.688,0.768a0.474,0.474,0,0,0,.448.448,9.718,9.718,0,0,1,5.5,4.288c0.832,1.407,1.28,1.791,2.24,1.791a2.651,2.651,0,0,0,2.815-2.367C151.708,989.451,147.741,987.083,143.389,987.083Zm8-4.032c-1.6,0-2.815.384-2.815,0.832a0.539,0.539,0,0,0,.448.448,9.442,9.442,0,0,1,5.567,4.16c1.152,1.856,1.408,2.048,2.3,2.048a2.863,2.863,0,0,0,2.88-2.5C159.772,985.483,155.676,983.051,151.388,983.051Zm64.96,21.379a50.156,50.156,0,0,1-10.175,2.17c-4.416.51-20.35,1.47-25.214,1.47-5.12,0-7.232-.57-8.191-2.17a0.936,0.936,0,0,0-.64-0.64c-0.64,0-.96.64-0.96,1.79a5.953,5.953,0,0,0,2.3,5.18,11.426,11.426,0,0,0,5.5,2.11,2.464,2.464,0,0,0,.9-0.19c4.8-1.92,14.271-2.81,30.27-2.81,2.368,0,4.288.06,5.631,0.19,2.752,0.26,4.8.45,5.376,0.45,1.984,0,3.264-.83,3.264-2.11C224.412,1007.37,221.724,1005.51,216.348,1004.43Zm58.369-20.8c-1.984,0-2.688.128-2.688,0.576,0,0.32.128,0.384,0.64,0.512a11.891,11.891,0,0,1,5.7,4.544c1.151,1.856,1.215,1.92,2.367,1.92a2.406,2.406,0,0,0,2.624-2.432C283.356,986,279.388,983.627,274.717,983.627Zm-7.488,3.968c-1.728,0-2.3.128-2.3,0.512,0,0.256.128,0.384,0.768,0.512,1.92,0.576,4.16,2.816,5.632,5.631a1.763,1.763,0,0,0,1.856,1.088,2.445,2.445,0,0,0,2.432-2.5C275.613,990.091,271.645,987.6,267.229,987.6ZM233.12,1006.99a0.439,0.439,0,0,0-.128.19,3.655,3.655,0,0,0-.256,1.53,5.784,5.784,0,0,0,1.792,3.91,9.633,9.633,0,0,0,5.439,2.62c1.216,0,2.56-.9,4.352-3.07,1.024-1.22,1.088-1.28,6.08-7.87,2.815-3.71,3.007-3.91,4.095-3.91,1.28,0,2.56.9,5.376,3.52,0.384,0.39,2.944,2.76,5.5,5,3.008,2.75,5.5,4.99,7.488,6.84a90.531,90.531,0,0,0,8.447,7.23c3.136,2.44,4.48,3.14,5.888,3.14a3.034,3.034,0,0,0,2.88-3.33,8.338,8.338,0,0,0-1.216-4.41c-0.64-.9-1.408-1.35-4.224-2.69a87.8,87.8,0,0,1-19.2-12.74c-7.3-6.076-7.871-6.46-10.367-6.46-2.368,0-3.456.7-8.191,5.12-6.08,5.76-8,7.04-10.3,7.04A4.465,4.465,0,0,1,233.12,1006.99Zm80.447,4.22c-7.935,1.86-7.935,1.86-9.727,1.86a6.749,6.749,0,0,1-3.9-1.03,0.366,0.366,0,0,0-.192-0.13,0.728,0.728,0,0,0-.448.64c0,1.92,5.12,5.57,7.808,5.57a5.07,5.07,0,0,0,2.3-.9c2.5-1.53,4.031-2.17,13.375-5.5,0.959,5.31,1.343,8.58,2.239,17.86a6.027,6.027,0,0,0,1.792,4.03c1.344,1.34,2.624,2.11,3.648,2.11a2.71,2.71,0,0,0,2.56-2.94,13.722,13.722,0,0,0-.448-2.88c-2.3-8.07-2.88-10.37-5.056-19.52,10.431-1.99,14.207-2.5,18.047-2.5l1.92,0.07c1.728,0,2.624-.52,2.624-1.41,0-1.86-4.16-4.42-7.168-4.42a4.206,4.206,0,0,0-.832.07c-3.2,2.24-3.264,2.3-15.295,5.69-0.768-3.45-1.024-4.8-1.536-7.934,8.7-2.752,9.664-3.008,11.776-3.264,1.983-.192,2.623-0.512,2.623-1.408,0-1.408-3.519-3.391-5.951-3.391-0.768,0-1.344.256-2.688,1.216a21.113,21.113,0,0,1-6.336,3.263c-0.128-1.92-.256-4.543-0.256-6.143a15.368,15.368,0,0,1,.448-3.136,4.068,4.068,0,0,0,.192-0.96c0-1.088-4.543-3.328-6.783-3.328-1.728,0-5.056,1.728-5.056,2.624,0,0.256.256,0.32,0.768,0.32,3.2,0.064,4.416,2.5,6.08,12.095-5.888,1.664-8.7,2.176-11.9,2.176a7.977,7.977,0,0,1-2.432-.32,4,4,0,0,0-1.216-.448,0.343,0.343,0,0,0-.32.32c0,0.508,1.088,1.788,2.24,2.628a9.622,9.622,0,0,0,5.183,1.79c2.048,0,3.9-.51,9.28-2.63,0.768,3.72.96,4.93,1.344,7.75-1.792.45-3.008,0.77-3.584,0.89Zm72.063,10.62c-1.407.13-2.815,0.32-4.159,0.45-0.448,0-4.1.45-8.512,0.96-4.735.51-4.735,0.51-5.375,0.51-1.984,0-3.84-.51-4.16-1.09-0.192-.32-0.192-0.32-0.32-0.32-0.384,0-.768.9-0.768,1.92,0,0.71.448,1.22,1.728,2.24a8.569,8.569,0,0,0,4.032,1.73c0.832,0,1.408-.19,3.52-1.09a18.172,18.172,0,0,1,4.351-1.34,105.036,105.036,0,0,1,15.743-1.54,68.547,68.547,0,0,1,11.711,1.03,11.276,11.276,0,0,0,1.856.32,1.714,1.714,0,0,0,1.92-1.41c0-1.47-3.584-4.86-5.184-4.86a3.12,3.12,0,0,0-.9.19,23.005,23.005,0,0,1-7.167,1.47c-0.512.06-2.048,0.19-3.712,0.38,1.152-5.24,1.728-7.67,3.264-12.79,1.344-1.16,1.6-1.48,1.6-1.92,0-.58-0.384-0.96-2.368-2.37-2.816-1.99-2.88-2.05-3.264-2.05a2.069,2.069,0,0,0-1.152.51,17.8,17.8,0,0,1-3.775,1.6,61.607,61.607,0,0,1-10.176,1.86,3.426,3.426,0,0,1-2.815-1.22c-0.448-.77-0.448-0.77-0.7-0.77-0.512,0-.768.45-0.768,1.48a4.179,4.179,0,0,0,2.047,3.96,3.738,3.738,0,0,0,2.24.84c0.832,0,1.728-.32,4.608-1.48,3.456-1.47,6.016-2.24,7.295-2.24a1.254,1.254,0,0,1,1.088,1.48A116.47,116.47,0,0,1,385.63,1021.83Zm78.08-17.4a50.18,50.18,0,0,1-10.176,2.17c-4.415.51-20.35,1.47-25.214,1.47-5.119,0-7.231-.57-8.191-2.17a0.936,0.936,0,0,0-.64-0.64c-0.64,0-.96.64-0.96,1.79a5.951,5.951,0,0,0,2.3,5.18,11.427,11.427,0,0,0,5.5,2.11,2.464,2.464,0,0,0,.9-0.19c4.8-1.92,14.271-2.81,30.27-2.81,2.368,0,4.288.06,5.632,0.19,2.752,0.26,4.8.45,5.375,0.45,1.984,0,3.264-.83,3.264-2.11C471.773,1007.37,469.085,1005.51,463.71,1004.43Z" transform="translate(-104.031 -982.781)"/>
</svg>
