<svg xmlns="http://www.w3.org/2000/svg" viewBox="0 0 456.54 44.24"><defs><style>.cls-1{fill:#fff;}</style></defs><title>big-banner-2-title</title><g id="Layer_2" data-name="Layer 2"><g id="Layer_1-2" data-name="Layer 1"><path class="cls-1" d="M4.17,3.26h29L34.75,1l3.06,2.73c.53.53.82.91.82,1.25s-.29.62-.91.81L37,6V41.55c0,.68-1.29,1.35-2.49,1.35-.53,0-.81-.24-.81-.77V40.4H3.31V43c0,.62-1.3,1.25-2.45,1.25C.19,44.24,0,44,0,43.09v-42Zm29.48,36V4.41H3.31V39.25ZM21.71,5.66,25.35,6c.72.09,1.2.43,1.2.91s-.38.91-1.05,1.15l-.63.24v6.42h2.07l2.25-3.07,3,2.74a1,1,0,0,1,.38.76c0,.39-.24.72-.52.72H24.87V34.56c0,1.1-.57,1.87-2,2.63a3.51,3.51,0,0,1-1.34.48c-.63,0-.63-.05-1-1.82,0-.19-.29-.38-.67-.48l-4.46-1.29.15-.72h3.69c2-.1,2.44-.29,2.44-1.15V15.91H13.8c-1.43,0-1.63,0-9,.24l-.39-1.63,5.08.15c2.11,0,3.6.09,4.36.09h7.91ZM8.1,18.88c5.32,1.63,8.29,4.65,8.29,8.39a2.07,2.07,0,0,1-2,2.3c-.72,0-1.2-.62-1.59-2.11-.91-4.12-1.58-5.17-5-8Z"/><path class="cls-1" d="M65.34,2.44a1,1,0,0,1,.57.87c0,.48-.24.76-.81,1L64,4.75a81.74,81.74,0,0,1-2.73,7.71l.81.19a.72.72,0,0,1,.58.67.94.94,0,0,1-.29.63l-.52.57V42.13c0,.72-.1.91-.44,1.2a3.58,3.58,0,0,1-2,.67c-.58,0-.86-.24-.86-.63V18.21a43.16,43.16,0,0,1-5.9,8.68c-.53.67-.72.81-1,.81a.31.31,0,0,1-.29-.28,4.87,4.87,0,0,1,.82-1.63A65.36,65.36,0,0,0,60.88.86ZM77.27,18a60.54,60.54,0,0,1-7.62,10.31c-2.64,3-5.7,5.89-6.28,5.89-.24,0-.43-.14-.43-.33s.38-.77,1.53-2.07c4.46-5.22,9.64-13.56,11.7-18.74H72c-2.3,0-3.88.05-7.77.2l-.57-1.59,4.65.15c1.53.09,2.87.09,3.69.09h5.27V.77l3.83.48a1,1,0,0,1,.91.81,1.26,1.26,0,0,1-.47.82l-1.06.86v8.19h8.24l3.12-3,3.88,3.21a.5.5,0,0,1,.24.44c0,.23-.19.47-.33.47H81.34a27,27,0,0,0,15.39,16.4c-2.3,1.34-2.49,1.48-3.88,3.4A36.9,36.9,0,0,1,80.48,13.8V31.39h3l2.49-2.63,3.36,2.63a.88.88,0,0,1,.29.67.45.45,0,0,1-.48.48H80.48v9.3c0,.77,0,.86-.43,1.15a4.11,4.11,0,0,1-2.11.67c-.48,0-.67-.19-.67-.62V32.54H75.59c-1.48,0-2.73.05-6,.15l-.43-1.44c3,.14,4.07.14,6.42.14h1.68Z"/><path class="cls-1" d="M124.18,33.93a39.12,39.12,0,0,1-12.89,5.51,3.19,3.19,0,0,1-.62.15,2.34,2.34,0,0,1-.43.09c-.29,0-.68-.24-.68-.47s.15-.29.72-.48a50.52,50.52,0,0,0,12.94-7.15,40.92,40.92,0,0,0,9.64-11.69,18.43,18.43,0,0,0,2.11-5.8c0-.77-.58-1.2-1.44-1.2a63,63,0,0,0-16,2.78,2.35,2.35,0,0,1-.82.24A6.26,6.26,0,0,1,114,14.47a3.59,3.59,0,0,1-1.1-2.54c0-.91.14-1.34.48-1.34.14,0,.19.1.33.43.29.91,2,1.68,3.74,1.68s8.15-.67,12.7-1.29c2.35-.34,3.07-.58,4.12-1.25s1.16-.67,1.54-.67c.67,0,1.1.24,3.16,2,.53.43,1,.81,1.1.91.82.57,1.06.86,1.06,1.24s-.19.48-.77.72a11.79,11.79,0,0,1-1,.62C134.1,25.35,130.51,29.86,124.18,33.93Zm24-27.41a4.61,4.61,0,1,1-4.51-4.6A4.61,4.61,0,0,1,148.15,6.52Zm-7.62,0a3,3,0,1,0,3-3A3,3,0,0,0,140.53,6.52Z"/><path class="cls-1" d="M174,36.86c-3.49,2-7.86,3.64-9.77,3.64-.43,0-.77-.24-.77-.48s.1-.29.38-.34a33.53,33.53,0,0,0,9.92-5.08,32.72,32.72,0,0,0,9.4-10.4c1.72-3.16,2.49-5,2.49-6S185.1,17,184.1,17s-6.23.67-8.44,1.1a62.08,62.08,0,0,0-8.34,2.16,1.83,1.83,0,0,1-.76.19,5.56,5.56,0,0,1-2.74-1.68,4.79,4.79,0,0,1-1.24-3.16c0-.39.14-.63.43-.63s.19.05.29.34c.28,1,2.1,1.72,4,1.72.77,0,.77,0,6.57-.57,3.88-.43,6.18-.67,6.9-.77a16.06,16.06,0,0,0,5.37-1.48A2.76,2.76,0,0,1,187,14c.91,0,4.36,2.73,4.36,3.45,0,.43-.19.62-1.72,1.77C184.72,28.52,180.93,32.78,174,36.86Zm-7-30.2c.48.72,1.58,1.06,3.35,1.06a36.38,36.38,0,0,0,11.27-2A3.22,3.22,0,0,1,183,5.32c.48,0,.91.19,2.35,1,1,.53,1.34.86,1.34,1.34s-.43.77-2.2,1c-2.45.29-2.54.29-6.28,1a47.24,47.24,0,0,1-7.24.86,3.84,3.84,0,0,1-3.64-1.77,8.58,8.58,0,0,1-1-2.06c0-.1.1-.24.19-.24S166.75,6.37,166.94,6.66Z"/><path class="cls-1" d="M220.15,15.58a2,2,0,0,1-2.21,2.06c-.62,0-1-.24-1.43-1.1a10.59,10.59,0,0,0-7.39-5.9c-.28-.1-.43-.19-.43-.34,0-.33.87-.57,2.26-.57C215.55,9.73,220.15,12.65,220.15,15.58Zm-6.23,21.28c-.72,0-2.3-1.15-3.45-2.5a3.51,3.51,0,0,1-1.2-3c0-.92.24-1.63.57-1.63s.29.09.39.33a3.39,3.39,0,0,0,2.87,2.45c2,0,7.77-3.6,14.72-9.11a96.89,96.89,0,0,0,9-8c1-1,3.55-3.93,4-4.51s.57-.77.81-.77a.39.39,0,0,1,.38.43c0,.77-2.11,4-4.5,7a74.67,74.67,0,0,1-10.26,10.36,72.73,72.73,0,0,1-11.41,7.86C214.92,36.52,214.4,36.86,213.92,36.86Z"/><path class="cls-1" d="M273.89,9.68a44.77,44.77,0,0,1,.67,5.8c0,4.84-2.21,10.54-5.85,15.24-2.78,3.6-5.36,5.37-7.86,5.37a4.27,4.27,0,0,1-3.3-1.82,11.17,11.17,0,0,1-2.5-7.57c0-10.16,8.82-18.5,19.56-18.5,9.49,0,16.1,5.94,16.1,14.47,0,7.62-4.5,13.8-12.08,16.54a29.38,29.38,0,0,1-6.56,1.58c-.34,0-.63-.24-.63-.43s.15-.2.82-.39a21.71,21.71,0,0,0,9.06-4.74c3.45-3,5.46-7.86,5.46-13.37,0-4.41-1.39-7.67-4.12-9.73a12.31,12.31,0,0,0-7.43-2.5ZM272,9.87a17.06,17.06,0,0,0-14,17c0,3.55,1.34,6.23,3.16,6.23,2.06,0,5.9-3.88,8.25-8.34,1.86-3.64,3.35-8.58,3.35-11.31a9.54,9.54,0,0,0-.62-3.31Z"/><path class="cls-1" d="M311.57,24.3a.21.21,0,0,1-.05.14,11.93,11.93,0,0,0-.67,3.93c0,5.08,4.08,7.67,12,7.67a34.43,34.43,0,0,0,9.11-1.29c1.39-.48,1.39-.48,1.87-.48,1.44,0,3.16,1.44,3.16,2.59a1.53,1.53,0,0,1-1,1.24c-1.78.77-5.8,1.3-10,1.3-5.51,0-9.35-.67-12-2a8.32,8.32,0,0,1-4.6-7.71,11.59,11.59,0,0,1,1.48-5.32c.15-.19.24-.29.43-.29S311.57,24.16,311.57,24.3Zm8.77-11.12c-2.87-.24-4.65-.86-5.85-2.06a6.71,6.71,0,0,1-1.77-3.88c0-.29.14-.48.38-.48s.2,0,.39.48c.91,2.3,3.4,3.54,7.09,3.54a23.66,23.66,0,0,0,5.9-.76,4.37,4.37,0,0,1,1.15-.29c1,0,2.63,1.73,2.63,2.78s-.48,1.1-2.92,1.15c-3.31-.14-8.2,1.53-11.41,3.93-.14.1-.19.14-.29.14s-.28-.19-.28-.38c0-.34,2.15-2.2,4.55-3.88Zm17.21-2.3a1.7,1.7,0,0,1-1.68,1.68c-.48,0-.58-.1-1.25-1.2A8.08,8.08,0,0,0,330,7.81c-.19-.09-.29-.14-.29-.24s.77-.38,1.78-.38C334.48,7.19,337.55,9.06,337.55,10.88Zm4.65-2.25a1.76,1.76,0,0,1-1.63,1.67c-.53,0-.72-.19-1.2-1.15a8.37,8.37,0,0,0-4.79-3.69c-.15,0-.2,0-.2-.19s.67-.33,1.68-.33C339.18,4.94,342.2,6.76,342.2,8.63Z"/><path class="cls-1" d="M361.63,20.8c3.93-6.13,4.55-7.19,8.53-14.28L373,8.44a1.38,1.38,0,0,1,.67,1c0,.29-.34.53-.82.67l-1,.34L363.26,20.8l7.38-.57a6.35,6.35,0,0,0-1.92-3.31l.19-.38a8.51,8.51,0,0,1,3.84,2.34,5.64,5.64,0,0,1,1.63,3.5,1.85,1.85,0,0,1-1.73,2c-.77,0-1-.34-1.58-2.73l-3.55.62V42.32c0,.77-.91,1.29-2.11,1.29a.48.48,0,0,1-.52-.43V22.67l-5.8,1-.58,1a.8.8,0,0,1-.67.43c-.29,0-.57-.33-.77-.91L355.92,21Zm.62,6.23a1,1,0,0,1,.91,1,1.2,1.2,0,0,1-.81,1.05l-.53.24c-.1.34-.19.58-.19.63l-.58,2.49a38.65,38.65,0,0,1-3.26,8.24c-.57,1.06-.76,1.3-1.1,1.34a.44.44,0,0,1-.43-.47,1.87,1.87,0,0,1,.14-.53,46,46,0,0,0,2.54-14.57ZM357,6.81a14.76,14.76,0,0,1,4.45,2.3A61.24,61.24,0,0,0,365.65.53l2.93,2a1,1,0,0,1,.48.77c0,.43-.29.67-.87.81l-.91.2L362.35,10A4.91,4.91,0,0,1,363.64,13,1.8,1.8,0,0,1,362,15a1.55,1.55,0,0,1-1.1-.48c-.14-.14-.14-.14-.91-2.87a9.66,9.66,0,0,0-3.12-4.27Zm12.65,19.84c3.35,2.44,5,4.93,5,7.62,0,1.34-.67,2.2-1.68,2.2a1.69,1.69,0,0,1-1-.33c-.24-.24-.24-.24-.48-3.17a15.39,15.39,0,0,0-2.25-6ZM380.22,5.51c-.76,0-1.72,0-2.82,0l-2.88.1L374,4.17c3.16.14,4.41.19,6.14.19h13.61L395,2.54l3.07,2.64a1.68,1.68,0,0,1,.58,1c0,.29-.29.58-.72.72l-1,.34-.48,4.84c-.48,5.17-1,6.85-2.44,8.82a5.18,5.18,0,0,1-3.69,1.87c-.43,0-.63-.24-.82-1.15a1.33,1.33,0,0,0-.24-.68,5.28,5.28,0,0,0-1-.47L385,19.08l.09-.68,3.12.44A11.73,11.73,0,0,0,390,19c2.16,0,3-1.39,3.45-6a60.35,60.35,0,0,0,.53-7.48h-9.06c-.81,6.62-1.72,9.73-3.93,13.28a22.71,22.71,0,0,1-5.75,6.28,7.81,7.81,0,0,1-2.49,1.58.64.64,0,0,1-.43-.43c0-.15,0-.15,1.19-1.3,5.28-5,7.72-10.78,8.34-19.41Zm1.92,19.22h11.21l1.3-2,3.07,2.54a1.18,1.18,0,0,1,.48.67c0,.24-.34.57-.72.67l-.91.29V41c0,.67-1.25,1.29-2.45,1.29-.48,0-.62-.19-.62-.81v-2.3H381.8V41.6c0,.86-1.05,1.58-2.34,1.58a.47.47,0,0,1-.53-.48V22.86ZM393.5,38v-12H381.8V38Z"/><path class="cls-1" d="M435.21,1.44c.48.19.77.48.77.86a.84.84,0,0,1-.39.72L435,3.4c4.5,7.34,11.93,12.94,21.52,16.25-2.4,1.1-2.73,1.39-4.55,3.55A44.89,44.89,0,0,1,433.73,3.88,68,68,0,0,1,423.37,17.4,51.05,51.05,0,0,1,414,24.73a5.89,5.89,0,0,1-1.82.91.46.46,0,0,1-.39-.43c0-.19.24-.48.58-.72C420,19.17,426.87,10.11,431,0Zm-5.37,16c1.06.09,1.39.33,1.39,1a1.23,1.23,0,0,1-.52.91l-1.06.87v.86l.05,4.6c0,4.6-.91,8.39-2.49,10.74-1.82,2.63-5.52,5-9.92,6.47a19,19,0,0,1-3.36.86c-.38,0-.57-.15-.57-.48s.19-.43.67-.58a19.78,19.78,0,0,0,9.25-5.84c2.15-2.54,3-6,3-12a61.45,61.45,0,0,0-.53-7.72Zm10.88-.05c1,.14,1.34.38,1.34.91,0,.33-.19.62-.71.91l-1,.67V42.23c0,.38-.19.62-.77.86a5.74,5.74,0,0,1-1.48.38.92.92,0,0,1-1-1V17Z"/></g></g></svg>