<svg xmlns="http://www.w3.org/2000/svg" viewBox="0 0 494.2 46.4"><defs><style>.cls-1{fill:#fff;}</style></defs><g id="レイヤー_2" data-name="レイヤー 2"><g id="レイヤー_1-2" data-name="レイヤー 1"><path class="cls-1" d="M5.7,9.7c1.5,1.2,1.8,1.5,2.2,1.5a2.4,2.4,0,0,0,1-.5C10.1,10,17,9.2,23.8,9.2h4.5c1.8,0,2.5-.8,2.5-1.5a2.3,2.3,0,0,0-1-1.6,9.4,9.4,0,0,0-3.5-1.6,1.9,1.9,0,0,0-1.4.7l-.4.3h-.9l-2,.2-4.3.2-7.9.5-2,.2c-.8,0-1.3-.2-2-1.5V5.2H4.8c-.8,0-1.1.3-1.1,1.1S4.2,8.4,5.7,9.7Z"/><path class="cls-1" d="M32.9,16.4,29,14.1l-1.2,1.4c-3.7.2-8.6.6-15.8,1.4l-7.5.6c-.9,0-1.5-.3-2.9-2v-.2H1.3C.2,15.3,0,16,0,16.4a4.4,4.4,0,0,0,1.4,3c1.9,1.9,2.7,2.5,3.4,2.5l.9-.3h.1c1-.9,12.7-2.5,21.2-2.7A43.4,43.4,0,0,1,6.1,42.6c-.9.4-1.7.9-1.7,1.7a1,1,0,0,0,1.1,1c2,0,8.6-3.8,12.2-6.8A52.1,52.1,0,0,0,31.8,19.4h.6c1.2,0,1.7-.6,1.7-1.3A2,2,0,0,0,32.9,16.4Z"/><path class="cls-1" d="M77.1,9.3l-1.7,1.8H69.7l-3.9.2V6c.8-.4,1.2-.8,1.2-1.5s-3.4-2.7-5.5-2.7-2.7.9-2.7,1.4a1.8,1.8,0,0,0,.1.6v.3h.3c2.4.4,2.4.4,2.4,2.2v5.5l-2,.2-3.6.4H53.1c-1.9-1.4-2.6-1.8-3.7-1.8s-1.9,1-1.9,1.4v.5h.2l.4.2h.2c1.1.5,1.3.6,1.4,3.1v2c.2,5.1.2,5.1.2,5.3a16.6,16.6,0,0,1-.4,3.3v.9a3.1,3.1,0,0,0,2.8,3.2c.6,0,1.6-.3,1.6-2.2s-.1-1.6-.2-3l-.2-3.4a12.1,12.1,0,0,0-.1-2c0-1.2-.1-2.2-.1-3.3a4.1,4.1,0,0,1-.1-1h1.9a188.1,188.1,0,0,1,19.1-1.6h1c-3.8,14.1-10.1,22.8-21,29.1-1.6,1-2.1,1.4-2.1,2.1a1.1,1.1,0,0,0,1.1,1.1c.7,0,1.8-.6,5.3-2.6A41.6,41.6,0,0,0,73.8,28.5c2.2-3.9,2.9-5.5,5.5-12.7h.6c1.2-.2,1.6-.8,1.6-1.4s-.2-.8-.9-1.6Z"/><path class="cls-1" d="M133.1,12.2l-.5.5c-8.9,8.6-13.6,12.6-20.4,17.1s-10.9,6.5-11.7,6.5a2.9,2.9,0,0,1-1.9-1.4,6.7,6.7,0,0,1-1.1-2.4l-.2-.3H97c-1.3.1-1.4,1.1-1.4,2s1.3,4,3.7,5.8a8.2,8.2,0,0,0,2.8,1.7,1.6,1.6,0,0,0,1.3-1c.3-.7.5-.8,1.4-1.4,11.1-6.6,23.8-17.5,29.7-25.3l.6-.8-1.7-1.4Z"/><path class="cls-1" d="M101.8,17.1c.7,1.5,1.2,2.3,2.5,2.3a2.5,2.5,0,0,0,2.4-2.6c0-3.4-4.1-7-9.8-8.6h-.2l-.8-.3L94.8,9.4l.5.3A14.4,14.4,0,0,1,101.8,17.1Z"/><path class="cls-1" d="M152.4,23.8c.6,1,1.1,1.4,2,1.4a2,2,0,0,0,2-2c0-3.4-4.6-6.3-10.6-6.6h-1l-.4,1.6.6.3C149.4,20.2,150.3,20.9,152.4,23.8Z"/><path class="cls-1" d="M181.1,6.5c.7.8,1.3,1.4,2.1,1.4a1.8,1.8,0,0,0,1.8-2c0-2.4-2.9-4.5-7.6-5.6l-.6-.3-1.2,1.6.4.3A18.7,18.7,0,0,1,181.1,6.5Z"/><path class="cls-1" d="M184.5,13.2a131.3,131.3,0,0,1-15,13.6c-6.6,5.1-14.4,9.6-15.9,9.6s-2.3-1.5-2.5-2.6V33h-1.8v.4c0,.2-.1.3-.1.5v.5a6,6,0,0,0,1.8,4.5c1.4,1.5,3.3,3,4.4,3a2.2,2.2,0,0,0,1.5-1,6.5,6.5,0,0,1,1.9-1.5c7.1-4.5,8.1-5.3,12.6-9.4a201.4,201.4,0,0,0,14.5-14.7l.4-.4h0l.2-.3.2-.3L185,12.5Z"/><path class="cls-1" d="M157.6,12.8c1.1,1.3,1.7,1.7,2.6,1.7a2,2,0,0,0,1.8-2.2c0-3.2-4.7-5.9-10.2-5.9h-1.9V8.2l.6.2A12.6,12.6,0,0,1,157.6,12.8Z"/><path class="cls-1" d="M174.7,10.1c1.1,1.8,1.5,2.3,2.7,2.3a2,2,0,0,0,1.9-2.2c0-2.4-2.8-4.6-8.1-6.3h-.3l-1.4,1.4.5.3A13.8,13.8,0,0,1,174.7,10.1Z"/><path class="cls-1" d="M245.5.3h-1l-.9,1.6.4.3a14.3,14.3,0,0,1,5.5,4.2c.8,1.1,1.3,1.6,2.2,1.6s1.6-.8,1.6-2S250,1.2,245.5.3Z"/><path class="cls-1" d="M244.3,11.2l-3.9-3.1L239,9.7l-6.2.2h-3l-4.3.4-6.4.5-3.1.3a3.8,3.8,0,0,1-3.3-1.6l-.2-.2-1.2.2v.3a8.1,8.1,0,0,0-.2.9,4.4,4.4,0,0,0,2.3,3.3l1.2.8c1,.9,1.3,1.2,1.9,1.2s.8-.2,1.6-.9,1.2-.8,3.6-1.1A138.7,138.7,0,0,1,236,13h2.6a36.3,36.3,0,0,1-7,14.7c-3.4,4.5-9,8.4-15.7,11.2-.9.4-1.9.9-1.9,1.9a1.2,1.2,0,0,0,1.3,1.1c2,0,9.7-4,14.1-7.2,7-5.1,11.3-11.7,13.5-20.8h.8c1.1,0,1.5-.7,1.5-1.2A2.1,2.1,0,0,0,244.3,11.2Z"/><path class="cls-1" d="M240.9,3.7h-.4l-.7,1.6.3.2.5.2a10.6,10.6,0,0,1,4.8,4.8,2.3,2.3,0,0,0,2,1.5,1.8,1.8,0,0,0,1.8-2C249.2,7.1,245.9,4.6,240.9,3.7Z"/><path class="cls-1" d="M305.9,17.7l-.6.5a73.2,73.2,0,0,1-19,14.2c-.1-2.8-.1-3.9-.1-5.5,0-4.3.1-10.7.3-13.6,1-.6,1.6-1.2,1.6-1.9s-.5-1.2-1.7-1.8a13.5,13.5,0,0,0-4.9-1.8c-1.1,0-2.1.7-2.1,1.5v.8h.4c2.3.4,2.9,1.2,2.8,3.6V33.7c-.6.4-1,.7-1,1.3s.2.8,1,1.8,1.8,2.1,2.6,2.1a1.8,1.8,0,0,0,1.5-1.1c.1-.1.2-.3.3-.3s0-.2.1-.2a1.5,1.5,0,0,1,.6-.4c8.3-5.6,16-12.3,19.4-17.1l.9-.9-1.8-1.5Z"/><path class="cls-1" d="M276.2,14.5a12.3,12.3,0,0,0-3.9-1.4c-2.4.1-2.8.1-3.1,1.4v.4l.4.2,1,.3h.4c1.3.5,1.4.8,1.4,1.2,0,2.3-2,8.5-4.2,12.9A37.3,37.3,0,0,1,260.3,40c-.5.5-.8.8-.8,1.3a1.1,1.1,0,0,0,1.1,1c.6,0,1.1-.4,3-2.1a41.5,41.5,0,0,0,8.6-11c1.7-3.1,2.1-3.8,4.3-10.9.9-.2,1.7-.6,1.7-1.5S277.5,15.2,276.2,14.5Z"/><path class="cls-1" d="M358.1,21.3a4.5,4.5,0,0,0-2.4-1.2l-1.1.2c-1.6.6-6.9,1-12.6,1l-13.2.3h-4.5c-6,0-6.9-.8-7.3-3.7v-.4h-.4c-1.6.1-1.8,1.2-1.8,2.2a8.1,8.1,0,0,0,1.4,3.9c1.4,2.1,1.8,2.7,2.5,2.7s.8-.1,1.8-.9c12-.7,16.1-.8,26.8-.8a60,60,0,0,1,8.4.3l2.1.2a1.6,1.6,0,0,0,1.8-1.6A2.8,2.8,0,0,0,358.1,21.3Z"/><path class="cls-1" d="M396.6,7.4a8.8,8.8,0,0,0-3.7-1.5,1.3,1.3,0,0,0-1.3,1.2,1.1,1.1,0,0,0,.1.5h.2c2.3,1.2,2.4,1.5,2.4,1.9s-2.1,6-5.1,11.3c-5.1,9-10.7,15.1-17.5,19.3-1,.6-1.6,1-1.6,1.8a1.1,1.1,0,0,0,1,1c1,0,3.1-1.3,3.9-1.8a49.3,49.3,0,0,0,10.8-8.9h0a71.3,71.3,0,0,0,11.9-19h.7c1.3,0,1.7-.8,1.7-1.4S397.8,8.2,396.6,7.4Z"/><path class="cls-1" d="M455.9,21.3a4.8,4.8,0,0,0-2.5-1.2l-1.1.2c-1.6.6-6.9,1-12.6,1l-13.2.3H422c-5.9,0-6.9-.8-7.3-3.7v-.4h-.5c-1.6.1-1.8,1.2-1.8,2.2a7.4,7.4,0,0,0,1.5,3.9c1.4,2.1,1.8,2.7,2.5,2.7s.7-.1,1.7-.9c12.1-.7,16.1-.8,26.8-.8a62.4,62.4,0,0,1,8.5.3l2.1.2a1.6,1.6,0,0,0,1.7-1.6A2.7,2.7,0,0,0,455.9,21.3Z"/><path class="cls-1" d="M477.8,18.8V14.9c.2-2.9.2-3.3.2-5.4V9.1a.7.7,0,0,1,.1-.5h.2A1.5,1.5,0,0,0,479.7,7c0-.9-.8-1.6-2-2.3s-3.1-1.6-4.8-1.6h-1.8l-.3,1.5.9.5c2.5,1.3,2.5,1.3,2.5,3.1v3.5c0,2.3-.1,4,0,9.6l-.2,8.4c0,7.6,0,7.9-.5,9.9a6.6,6.6,0,0,0-.2,1.7c0,1.8,1.3,3.7,2.6,3.7s2-.3,2-3.1c0-.6,0-.6-.1-2.4V25.7c0-.7,0-1.4.1-4.4a23.9,23.9,0,0,1,11.2,7c1.5,1.7,2.2,2.3,3.3,2.3a1.9,1.9,0,0,0,1.9-2C494.2,24.6,487.6,20.7,477.8,18.8Z"/></g></g></svg>