<svg xmlns="http://www.w3.org/2000/svg" width="420.531" height="142.66" viewBox="0 0 420.531 142.66">
  <defs>
    <style>
      .cls-1 {
        fill: #fff;
        fill-rule: evenodd;
      }
    </style>
  </defs>
  <path id="ラウンジ_ブルーノート" data-name="ラウンジ ブルーノート" class="cls-1" d="M563.221,3887.52a4.9,4.9,0,0,0-1.824.53c-1.9.99-1.9,0.99-2.28,1.22-2.584,1.06-12.009,2.81-15.581,2.81-3.192,0-4.712-.45-5.852-1.59a1.473,1.473,0,0,0-.912-0.54,0.524,0.524,0,0,0-.38.54,10.067,10.067,0,0,0,1.976,3.8,8.34,8.34,0,0,0,6.916,3.26c2.28,0,4.56-.3,10.869-1.44,5.852-1.06,7.3-1.29,11.628-1.9,1.749-.23,2.585-0.76,2.585-1.75,0-.91-0.684-1.9-2.053-2.89C566.793,3888.51,564.209,3887.45,563.221,3887.52Zm12.769,23.18c2.432-1.74,2.584-1.82,2.584-2.43s-0.456-1.14-1.976-2.58c-3.268-2.97-5.7-4.64-6.84-4.64a8.959,8.959,0,0,0-2.433.91c-2.584,1.29-3.8,1.67-8.74,2.59a193.787,193.787,0,0,1-20.065,2.2c-2.736,0-5.7-1.22-6.688-2.74a1.248,1.248,0,0,0-.684-0.68c-0.457,0-.913,1.06-0.913,2.2,0,3.5,4.561,8.44,7.829,8.44a4.261,4.261,0,0,0,1.976-.76c4.256-2.2,18.7-5.7,23.713-5.7a2.193,2.193,0,0,1,2.432,1.9c0,2.13-3.876,10.64-6.992,15.28a49.67,49.67,0,0,1-25.917,19.61c-0.76.22-.988,0.38-0.988,0.76a0.6,0.6,0,0,0,.684.68,40.629,40.629,0,0,0,4.484-.84c11.932-2.88,21.433-8.58,28.5-17.25C569.378,3923.55,571.734,3919.44,575.99,3910.7Zm25.609-12.08c2.964,0.61,4.029,1.59,4.713,4.33a72.951,72.951,0,0,1,1.6,14.37,10.656,10.656,0,0,1-.3,2.81c1.444,2.73,3.648,4.41,5.776,4.41a3.572,3.572,0,0,0,3.572-3.58c0-.45-0.076-1.06-0.152-1.82-0.152-.91-0.38-2.66-0.684-5.17-0.38-3.34-.608-4.94-1.216-9.04,0.3-.99.684-1.14,5.016-1.83,3.648-.68,18.7-2.66,19.761-2.66a1.43,1.43,0,0,1,1.444,1.67c0,3.35-2.66,10.65-6.384,17.33a52.319,52.319,0,0,1-27.817,24.17c-3.117,1.22-3.269,1.29-3.269,1.9a0.683,0.683,0,0,0,.836.61,34.048,34.048,0,0,0,7.221-1.75c10.868-3.42,20.445-9.65,27.057-17.63,4.333-5.32,6.917-10.18,11.933-22.65,0.456-.38.836-0.68,1.064-0.91,0.532-.38.836-0.69,0.988-0.76a1.469,1.469,0,0,0,.532-0.91c0-1.6-6.308-6.69-8.284-6.69a3.83,3.83,0,0,0-1.9.76c-2.357,1.44-3.193,1.59-12.389,2.96,0.456-4.03,1.292-7.29,2.128-8.36a2.452,2.452,0,0,0,.456-1.14c0-2.28-5.092-5.09-9.349-5.09-2.2,0-5.092.99-5.092,1.67a0.809,0.809,0,0,0,.836.53c3.268,1.22,4.1,3.8,4.028,13.08-4.712.45-5.4,0.53-10.26,1.14a10.583,10.583,0,0,0-7.98-3.65C603.5,3896.72,601.979,3897.48,601.6,3898.62Zm129.811-6.01a1.469,1.469,0,0,0-1.14.76c-4.56,6.08-12.312,13.68-20.749,20.45-10.564,8.44-19.533,13.45-24.7,13.68a6.635,6.635,0,0,1-5.321-2.36c-0.152-.3-0.228-0.38-0.38-0.38-0.608,0-1.216,1.68-1.216,3.35,0,2.13,1.368,4.33,4.181,6.84,1.976,1.75,3.8,2.81,5.016,2.81,0.912,0,1.6-.3,3.8-1.82,0.228-.16.988-0.61,1.824-1.14a116.049,116.049,0,0,0,30.858-27.52c4.028-5.24,8.36-12.54,8.36-13.98A0.62,0.62,0,0,0,731.41,3892.61Zm-48.87-.98c-2.737,0-5.093.6-5.093,1.29,0,0.3.228,0.45,0.836,0.68,4.941,1.67,8.209,4.87,11.249,10.87,0.836,1.75,1.672,2.36,3.344,2.36a4.486,4.486,0,0,0,4.712-4.41C697.588,3896.87,690.292,3891.63,682.54,3891.63Zm116.966-12.32c-2.2,0-3.42.38-3.42,1.07a0.729,0.729,0,0,0,.608.61,10.761,10.761,0,0,1,6.992,5.85c0.76,1.52,1.368,1.9,2.736,1.9a3.366,3.366,0,0,0,3.5-3.35C809.918,3881.97,805.434,3879.31,799.506,3879.31Zm-10.337,4.56c-1.976,0-3.268.38-3.268,1.07,0,0.3.152,0.45,0.684,0.61,2.2,0.6,4.256,2.5,6.081,5.47,0.988,1.67,1.368,1.97,2.584,1.97a3.379,3.379,0,0,0,3.572-3.34C798.822,3886.31,794.718,3883.87,789.169,3883.87Zm-27.361,6.54c-2.964,0-5.852.84-5.776,1.67,0,0.31.076,0.31,0.76,0.46,4.484,1.21,7.752,3.87,10.64,8.66,1.368,2.59,2.052,3.12,3.876,3.12a4.832,4.832,0,0,0,5.017-4.56C776.325,3894.59,769.788,3890.41,761.808,3890.41Zm-7.981,14.9c-2.66,0-5.092.76-5.168,1.52,0,0.22.076,0.3,0.684,0.45,3.724,1.07,7.449,4.49,9.729,8.82,1.292,2.28,1.748,2.66,3.648,2.66a4.451,4.451,0,0,0,4.636-4.33C767.356,3909.56,761.048,3905.31,753.827,3905.31Zm10.337,36.25c15.733-9.04,26.373-18.62,36.026-32.38,3.724-5.32,7.6-12.54,7.6-14.21a0.561,0.561,0,0,0-.608-0.61c-0.38,0-.532.15-1.14,1.07-3.42,5.54-12.008,14.67-20.445,21.73-11.476,9.73-22.041,15.74-27.513,15.74a5.925,5.925,0,0,1-4.409-2.06c-0.3-.6-0.38-0.6-0.532-0.6-0.608,0-1.14,1.36-1.14,3.04,0,1.9.532,2.96,2.661,5.24,2.812,3.04,5.244,4.64,6.84,4.64C762.34,3943.16,762.872,3942.85,764.164,3941.56ZM579.41,3953.49c-2.356,0-3.648.38-3.648,1.06,0,0.31.152,0.38,1.14,0.76a11.579,11.579,0,0,1,6.688,6.16,2.464,2.464,0,0,0,2.508,1.52,3.3,3.3,0,0,0,3.5-3.27C589.6,3956.23,585.11,3953.49,579.41,3953.49Zm-9.12,4.94c-1.444,0-2.357.3-2.357,0.84a0.788,0.788,0,0,0,.684.68c1.977,0.53,4.485,3.04,6,6.16,0.684,1.36,1.216,1.74,2.432,1.74a3.317,3.317,0,0,0,3.572-3.26C580.626,3961.09,576.142,3958.43,570.29,3958.43Zm4.18,19c3.344-2.13,3.648-2.43,3.648-3.12,0-.45-0.532-0.91-2.66-2.35-4.332-2.89-6.308-3.95-7.145-3.95a4.556,4.556,0,0,0-1.824.6c-5.092,2.59-5.4,2.66-11.932,3.65-9.121,1.37-15.2,2.13-17.557,2.13-2.432,0-5.016-1.06-5.852-2.43-0.229-.38-0.305-0.46-0.457-0.46-0.456,0-.684.76-0.684,2.13,0,1.82.836,3.5,2.737,5.32a8.391,8.391,0,0,0,5.092,2.58,2.9,2.9,0,0,0,1.824-.76c3.116-2.28,17.785-5.85,24.017-5.85a1.034,1.034,0,0,1,1.14,1.22,23.018,23.018,0,0,1-1.748,6.61,58.853,58.853,0,0,1-12.768,19.76c-6.537,6.77-15.581,12.92-22.65,15.43-0.836.3-1.14,0.53-1.14,0.84a0.644,0.644,0,0,0,.76.6c3.192,0,12.085-3.19,17.937-6.46C558.813,4005.4,565.881,3996.89,574.47,3977.43Zm35.87-4.86c-1.368,0-3.572.91-3.572,1.44,0,0.23.228,0.38,0.836,0.61,2.128,0.68,3.192,2.89,3.192,6.76,0,7.91-5.016,21.44-10.717,28.88a43.743,43.743,0,0,1-7.6,7.45,1.008,1.008,0,0,0-.608.84,0.659,0.659,0,0,0,.608.61c1.368,0,6.992-3.58,10.944-6.84,7.981-6.69,12.617-15.13,15.429-27.97a18.074,18.074,0,0,1,.912-3.04,5.165,5.165,0,0,0,.38-1.3c0-1.21-1.824-3.57-3.952-5.16A9.852,9.852,0,0,0,610.34,3972.57ZM626,3984.27c-0.076,3.04-.076,4.64-0.076,6.92,0,0.76,0,3.11.076,6v1.14c0,2.81-.152,3.8-0.912,5.55a3.115,3.115,0,0,0-.3,1.14c0,0.61,1.292,2.96,2.432,4.48,1.064,1.3,1.976,1.9,2.736,1.9s0.836,0,2.964-1.52c0.3-.22.988-0.6,1.9-1.14,11.1-6.68,19.229-14.59,25.081-24.47,2.813-4.79,4.713-8.89,4.789-10.41a0.706,0.706,0,0,0-.76-0.69c-0.38,0-.608.23-1.6,1.9-3.953,6.84-11.4,14.75-18.393,19.77-4.029,2.88-9.577,5.92-10.945,5.92-0.456,0-.684-0.45-0.684-1.36,0-.46,0-0.46.608-9.05,0.152-2.73.38-5.39,0.608-8.13,0.076-1.67.152-2.81,0.228-3.27a8.733,8.733,0,0,1,.912-3.12,4.271,4.271,0,0,0,.684-1.82c0-.68-0.456-1.44-1.748-2.51-2.66-2.35-4.864-3.49-6.688-3.49-1.6,0-4.105,1.29-4.105,2.2a0.7,0.7,0,0,0,.684.38c1.977,0.46,2.509,2.89,2.509,10.94v2.74Zm98.725-.38a44.322,44.322,0,0,1-11.553,2.89,302.532,302.532,0,0,1-30.553,1.9c-6.689,0-9.045-.76-10.717-3.57a0.592,0.592,0,0,0-.532-0.38c-0.456,0-.532.38-0.532,2.73a7.535,7.535,0,0,0,2.2,5.7c1.672,1.45,5.472,3.27,6.764,3.27a5.278,5.278,0,0,0,1.6-.45c2.508-.92,4.332-1.3,9.728-1.98a232.375,232.375,0,0,1,23.485-1.37c3.421,0,8.057.15,12.009,0.46,1.824,0.15,3.648.23,4.712,0.23,2.432,0,3.876-.99,3.876-2.66C735.21,3987.84,731.182,3985.26,724.722,3983.89Zm70.224-7.6c1.976-1.44,2.2-1.75,2.2-2.43,0-1.29-2.736-4.41-5.929-6.92a9.719,9.719,0,0,0-6.46-2.35c-0.912,0-1.216.15-1.216,0.45a0.418,0.418,0,0,0,.152.38,8.071,8.071,0,0,1,1.748,5.4c0,5.93-5.244,16.11-13.225,25.61-7.6,9.05-16.492,16.27-24.777,20.07a1.249,1.249,0,0,0-.912.98,0.65,0.65,0,0,0,.76.61,21.146,21.146,0,0,0,5.244-1.29c10.185-3.42,19.913-10.11,28.578-19.61C786.053,3991.72,789.093,3987.08,794.946,3976.29Zm78.736,7.6a44.322,44.322,0,0,1-11.553,2.89,302.532,302.532,0,0,1-30.553,1.9c-6.689,0-9.045-.76-10.717-3.57a0.592,0.592,0,0,0-.532-0.38c-0.456,0-.532.38-0.532,2.73a7.535,7.535,0,0,0,2.2,5.7c1.672,1.45,5.472,3.27,6.764,3.27a5.278,5.278,0,0,0,1.6-.45c2.508-.92,4.332-1.3,9.728-1.98a232.375,232.375,0,0,1,23.485-1.37c3.421,0,8.057.15,12.009,0.46,1.824,0.15,3.648.23,4.712,0.23,2.432,0,3.876-.99,3.876-2.66C884.17,3987.84,880.142,3985.26,873.682,3983.89Zm51.147-3.72c0.3-9.28.608-11.18,1.824-13.53a3.536,3.536,0,0,0,.456-1.37,8.737,8.737,0,0,0-1.976-3.42c-1.672-2.13-4.333-3.65-6.157-3.65-1.216,0-2.28.38-5.548,2.05-1.672.84-1.748,0.99-1.748,1.45,0,0.38.152,0.45,1.292,0.45,2.052,0.08,2.736.38,3.42,1.68,0.912,1.82,1.368,7.67,1.368,17.86,0,15.05-.684,26.98-1.672,30.47a9.713,9.713,0,0,0-.456,2.13,11.238,11.238,0,0,0,2.128,4.79c1.292,2.05,2.508,2.89,3.876,2.89,2.509,0,4.029-2.81,4.029-7.53,0-.98-0.076-2.2-0.152-3.64-0.38-7.45-.608-14.37-0.76-28.58,4.56,1.97,8.36,5.7,12.312,11.86,1.824,2.96,3.192,3.95,5.321,3.95,2.356,0,4.636-2.05,4.636-4.26,0-2.96-2.812-6.53-7.145-9.12S931.213,3980.77,924.829,3980.17Z" transform="translate(-526.5 -3879.31)"/>
</svg>
