<svg xmlns="http://www.w3.org/2000/svg" viewBox="0 0 382.4 139"><defs><style>.cls-1{fill:#fff;}</style></defs><g id="レイヤー_2" data-name="レイヤー 2"><g id="レイヤー_1-2" data-name="レイヤー 1"><path class="cls-1" d="M6.5,30.4a2.4,2.4,0,0,0,1.2-.5h.2C9,28.5,25.8,26.2,38,26A60.6,60.6,0,0,1,8.5,59.9c-1.5.7-2.3,1.3-2.3,2.3a1.3,1.3,0,0,0,1.3,1.2c2.6,0,11.7-5.2,17-9.7C33,46.6,39.3,38.1,44.4,26.9h1c1.6,0,2.2-.9,2.2-1.7a2.6,2.6,0,0,0-1.5-2.1l-5.4-3.3-1.7,2c-5.1.2-12,.8-22.3,1.9-4.9.5-9.4.9-10.6.9S3.9,24.2,2,21.7l-.2-.2H1.6c-1.3,0-1.6.7-1.6,1.3A6.1,6.1,0,0,0,2,27C4.5,29.5,5.7,30.4,6.5,30.4Z"/><path class="cls-1" d="M7.9,13.2c2.1,1.7,2.5,2,3,2a2.2,2.2,0,0,0,1.3-.6c1.7-1,11.5-2.2,21.1-2.2l4,.2h2.3c2.1,0,3.4-.8,3.4-2a3.2,3.2,0,0,0-1.4-2.1,11.8,11.8,0,0,0-4.8-2.1,3.1,3.1,0,0,0-1.9.9l-.4.4h-.4l-1,.2-2.9.2-6.1.3c-4.2.2-7.9.4-11,.7l-2.9.2c-1.4,0-2-.5-3-2.1V7.3H6.5c-.9,0-1.3.4-1.3,1.3S5.7,11.4,7.9,13.2Z"/><path class="cls-1" d="M66,17.7h.3c1.7.7,2,1.1,2.1,4.5l.2,2.9c.2,7.1.2,7.1.2,7.5a22.4,22.4,0,0,1-.5,4.6v.3a3.8,3.8,0,0,0-.1,1c0,2.2,1.8,4.3,3.8,4.3s2-.6,2-3c0-.8-.1-2.2-.2-4.1l-.3-4.9c0-1-.1-1.9-.1-2.8L73,23.4a9.7,9.7,0,0,0-.1-1.8,2.3,2.3,0,0,0,1.1.3l1.8-.3c3.2-.6,21.1-2.2,26.8-2.2h1.8c-5.3,20-14.2,32.3-29.7,41.3-2.3,1.4-2.9,1.8-2.9,2.7a1.3,1.3,0,0,0,1.4,1.3c.8,0,2.4-.8,7.4-3.6a57.8,57.8,0,0,0,21.3-21.5c3.2-5.4,4.2-7.6,7.8-17.9l1-.2c1.2-.2,2-.8,2-1.7s-.2-1.1-1.2-2.1l-4.7-4.6-2.2,2.4H96.4l-5.7.3v-8c1.1-.6,1.6-1.1,1.6-2s-4.3-3.6-7.6-3.6-3.5,1.1-3.5,1.8a3.2,3.2,0,0,0,.1.7v.3h.3c3.5.5,3.5.5,3.6,3.3v7.9l-2.9.2-5.2.6-2.3.2H73.5a1.1,1.1,0,0,1-.7-.2c-2.6-2-3.5-2.4-5-2.4s-2.5,1-2.5,1.6v.6l.3.2Z"/><path class="cls-1" d="M140.2,23.7c1.1,2.3,1.7,3.1,3.3,3.1a3.3,3.3,0,0,0,3.2-3.5c0-4.6-5.7-9.6-13.6-11.9h-.3l-1-.4-1.3,1.9.5.3C135.5,15.9,137.7,18.4,140.2,23.7Z"/><path class="cls-1" d="M144.2,54.9c15.5-9.3,33.5-24.6,41.7-35.6l.7-1-2-1.7-.5.7-.6.4C171,29.9,164.3,35.6,154.7,41.9c-7,4.8-15.3,9.2-16.5,9.2s-1.7-.6-2.8-2.1a11.6,11.6,0,0,1-1.7-3.4v-.4h-.4c-1.4.1-1.6,1-1.6,2.6s1.8,5.4,5,8c.9.7,3.1,2.4,3.9,2.4s1.4-1.1,1.6-1.4S142.8,55.8,144.2,54.9Z"/><path class="cls-1" d="M209.8,33.1c1,1.4,1.6,2,2.7,2a2.7,2.7,0,0,0,2.7-2.6c0-4.6-6.6-8.7-14.7-9.2h-1.4l-.3,1.9.6.3C205.6,28,206.9,28.9,209.8,33.1Z"/><path class="cls-1" d="M250.2,8.8c1.2,1.3,2,1.9,2.9,1.9a2.4,2.4,0,0,0,2.4-2.6c0-3.3-4.2-6.3-10.7-7.8l-.7-.3-1.5,1.9.4.3A24.1,24.1,0,0,1,250.2,8.8Z"/><path class="cls-1" d="M255,18.4a186,186,0,0,1-21.1,19.2c-9.3,7.2-20.3,13.7-22.4,13.7s-3.5-2.3-3.8-4v-.9h-2.2v1.7a8.1,8.1,0,0,0,2.4,6.3c2.2,2.4,4.7,4.1,6,4.1s1.3-.5,2-1.3a7,7,0,0,1,2.7-2.1c10-6.5,11.3-7.4,17.6-13.2a287.7,287.7,0,0,0,20.5-20.8l.5-.5h0a.1.1,0,0,0,.1-.1l.2-.3.2-.3-2-2.1Z"/><path class="cls-1" d="M217.2,17.6c1.6,1.8,2.2,2.4,3.5,2.4s2.3-1.2,2.3-2.9c0-4.4-6.5-8.1-14.1-8.1h-2.5l-.2,2.2.7.2A18.3,18.3,0,0,1,217.2,17.6Z"/><path class="cls-1" d="M241.2,13.9c1.7,2.5,2.1,3.1,3.6,3.1s2.5-1.2,2.5-2.9c0-3.3-3.9-6.3-11.2-8.7h-.3L234.1,7l.5.3A18.9,18.9,0,0,1,241.2,13.9Z"/><path class="cls-1" d="M48.2,91.6l-5.3-4.1L41,89.6l-8.8.3-4.2.2-6.3.5-8.8.7-4.4.4c-2.1,0-3.2-.6-4.7-2.3l-.2-.2-1.5.3v.3A6.3,6.3,0,0,0,1.7,91c0,1.4,1.4,3.4,3.1,4.4l1.7,1.2c1.4,1.2,1.8,1.6,2.6,1.6s1.1-.2,2.1-1.2,1.7-1.1,5.2-1.7c6.7-.8,15.5-1.5,20.4-1.5h3.9c-1.1,6.4-5.4,15.6-10,21.1S17.9,126.8,8.5,130.6c-1.3.6-2.6,1.3-2.6,2.6a1.6,1.6,0,0,0,1.6,1.4c2.9,0,13.6-5.7,19.7-10.2,9.9-7.1,15.9-16.4,19-29.3h1.3c1.5,0,2-.8,2-1.5A3.1,3.1,0,0,0,48.2,91.6Z"/><path class="cls-1" d="M50,76.4H48.8l-1.2,2,.5.2a22.6,22.6,0,0,1,7.8,6.1c1,1.5,1.7,2.1,2.8,2.1s2.2-1,2.2-2.6S56.1,77.6,50,76.4Z"/><path class="cls-1" d="M43.5,81.2h-.4l-.8,2,.6.4.4.2c3.5,2,4.3,2.7,6.8,6.8.7,1.1,1.4,1.9,2.7,1.9s2.2-1,2.2-2.6C55,85.8,50.5,82.4,43.5,81.2Z"/><path class="cls-1" d="M127.6,100.8l-.8.7a104.2,104.2,0,0,1-27.1,20.2c-.1-4.2-.1-5.8-.1-8.1,0-6.2.1-15.2.3-19.3,1.4-.8,2.3-1.5,2.3-2.6s-.7-1.4-2.2-2.3S94.6,87,93.1,87s-2.7.9-2.7,1.8v1h.4c3.3.6,4.3,1.8,4.1,5.3l.2,15.2c0,3.6,0,4.5-.1,8.3v4.5c-1,.7-1.4,1.1-1.4,1.8s.2,1,1.4,2.4,2.4,2.8,3.4,2.8a2.1,2.1,0,0,0,1.9-1.3l.4-.6a.2.2,0,0,0,.2-.2l.9-.6c11.7-7.8,22.4-17.3,27.3-24.1l.3-.3.7-.7-2.1-1.9Z"/><path class="cls-1" d="M85.6,96.3a20.6,20.6,0,0,0-5.5-2c-3.3.2-3.7.2-4.1,1.9v.4l.5.2,1.3.4.6.2c1.7.6,2,1.2,2,1.9,0,3.3-2.8,12-5.9,18.2a52.6,52.6,0,0,1-10.9,14.7c-.7.7-1.1,1.1-1.1,1.7a1.3,1.3,0,0,0,1.3,1.2c.8,0,1.5-.6,4.1-2.9a56.9,56.9,0,0,0,12.1-15.5c2.4-4.3,2.9-5.3,6-15.4,1.2-.3,2.3-.7,2.3-1.9S87.3,97.3,85.6,96.3Z"/><path class="cls-1" d="M202.4,105.9a6.4,6.4,0,0,0-3.4-1.6l-1.4.3c-2.3.7-9.8,1.3-17.8,1.4s-11.5.1-18.6.4h-6.3c-8.5,0-10-1.2-10.5-5.3v-.5h-.4c-1.7.1-2.4,1-2.4,2.9a9.8,9.8,0,0,0,2.1,5.3c1.9,3.1,2.5,3.8,3.3,3.8s1-.2,2.4-1.3c17-1,22.7-1.2,37.8-1.2a86,86,0,0,1,11.9.5l2.9.3a2.1,2.1,0,0,0,2.3-2.1A3.5,3.5,0,0,0,202.4,105.9Z"/><path class="cls-1" d="M248.5,86.3a12.6,12.6,0,0,0-5.1-2.1,1.7,1.7,0,0,0-1.6,1.5,1.3,1.3,0,0,0,.1.6v.2h.1c3.1,1.6,3.5,2,3.5,2.9s-3.2,9-7.1,15.9c-7.3,12.7-15.1,21.3-24.8,27.2-1.4.8-2.2,1.4-2.2,2.4a1.3,1.3,0,0,0,1.3,1.2c.9,0,3-1,5.4-2.5a70.8,70.8,0,0,0,15.1-12.5,100.1,100.1,0,0,0,16.8-26.7h1.1c1.4,0,2.2-.7,2.2-1.8S250.4,87.6,248.5,86.3Z"/><path class="cls-1" d="M331.6,105.9a6.4,6.4,0,0,0-3.4-1.6l-1.4.3c-2.3.7-9.8,1.3-17.8,1.4s-11.5.1-18.6.4h-6.3c-8.5,0-10-1.2-10.5-5.3v-.5h-.4c-1.7.1-2.4,1-2.4,2.9a9.8,9.8,0,0,0,2.1,5.3c1.9,3.1,2.5,3.8,3.3,3.8s1-.2,2.4-1.3c17-1,22.7-1.2,37.8-1.2a86,86,0,0,1,11.9.5l2.9.3a2,2,0,0,0,2.2-2.1A3.4,3.4,0,0,0,331.6,105.9Z"/><path class="cls-1" d="M359.4,102.3V96.7c.2-4,.2-4.6.3-7.6V87.8h.1l.4-.2c1.1-.3,1.7-.9,1.7-1.7s-1.1-2.2-2.7-3.1-4.4-2.3-6.6-2.3h-2.4l-.4,1.8,1.2.6c3.5,1.9,3.5,2,3.5,4.5v4.9c-.1,3.3-.1,5.6,0,13.6l-.3,11.7c0,10.8,0,11.2-.6,14.1a7,7,0,0,0-.4,2.4c0,2.4,1.8,4.9,3.5,4.9s2.6-.4,2.6-4.2c0-.7,0-.7-.1-3.3V111.9c0-.9,0-2,.1-6.4,7.1,2.2,12.1,5.3,16.2,10,2,2.3,2.9,3.1,4.5,3.1a2.5,2.5,0,0,0,2.4-2.5C382.4,110.5,373.1,105,359.4,102.3Z"/></g></g></svg>