<svg xmlns="http://www.w3.org/2000/svg" width="587.12" height="57.16" viewBox="0 0 587.12 57.16">
  <defs>
    <style>
      .cls-1 {
        fill: #fff;
        fill-rule: evenodd;
      }
    </style>
  </defs>
  <path id="ラウンジ_ブルーノート" data-name="ラウンジ ブルーノート" class="cls-1" d="M1098.21,988.619a0.414,0.414,0,0,0-.39.32,8.544,8.544,0,0,0,1.79,3.072,6.78,6.78,0,0,0,5.51,2.431,61.635,61.635,0,0,0,10.56-1.535c3.13-.64,5.12-0.96,7.87-1.28,1.53-.256,2.3-0.7,2.3-1.472,0-1.408-3.71-3.648-5.95-3.648a3.661,3.661,0,0,0-1.73.7,11.253,11.253,0,0,1-3.39,1.28,57.379,57.379,0,0,1-11.45,1.728c-2.05,0-3.84-.512-4.61-1.28A0.67,0.67,0,0,0,1098.21,988.619Zm32.12,16.7a4.614,4.614,0,0,1,1.41-.83,2.058,2.058,0,0,0,.77-0.45,1.157,1.157,0,0,0,.25-0.7c0-.58,0-0.58-1.4-1.99-2.88-2.876-3.97-3.644-4.87-3.644-0.45,0-.77.128-2.49,0.9a16.1,16.1,0,0,1-4.93,1.538,164.952,164.952,0,0,1-19.84,2.62c-2.37,0-4.67-.89-5.37-2.11a0.8,0.8,0,0,0-.58-0.58c-0.38,0-.58.52-0.58,1.54,0,2.88,3.52,6.59,6.27,6.59,0.45,0,.45,0,2.5-0.96,3.14-1.53,15.94-4.35,19.65-4.35,1.34,0,2.11.38,2.11,1.15,0,0.64-.38,1.73-1.73,4.87-2.75,6.39-4.86,9.72-8.38,13.56-4.99,5.38-12.1,9.86-18.24,11.39a0.7,0.7,0,0,0-.7.58,0.568,0.568,0,0,0,.7.51,35.791,35.791,0,0,0,9.66-2.17,46.189,46.189,0,0,0,16.71-11.97C1124.32,1017.22,1126.62,1013.26,1130.33,1005.32Zm24.33-7.742a8.13,8.13,0,0,0-6.02-2.944c-1.28,0-2.82.512-2.82,0.96a0.3,0.3,0,0,0,.32.32,3,3,0,0,1,2.69,1.984c1.22,2.372,2.11,8.252,2.11,13.572a15.866,15.866,0,0,1-.19,2.56c1.28,2.3,2.63,3.32,4.48,3.32a2.252,2.252,0,0,0,2.37-2.37c0-1.08-.83-7.42-1.79-13.69,0.32-.9.64-1.02,3.39-1.472,4.99-.832,17.02-2.5,18.17-2.5a1.267,1.267,0,0,1,1.41,1.216,5.5,5.5,0,0,1-.19,1.28,4.011,4.011,0,0,0-.19.892c-3.65,16.26-13.5,27.2-30.21,33.54-0.7.25-.89,0.38-0.89,0.7a0.415,0.415,0,0,0,.51.39,44.686,44.686,0,0,0,8.19-2.12,43.476,43.476,0,0,0,19.58-13.31c4.1-4.86,6.02-8.44,10.43-19.45,1.6-1.282,2.12-1.794,2.12-2.306,0-.96-5.19-5.311-6.4-5.311a2.681,2.681,0,0,0-1.41.575c-2.75,1.536-3.59,1.728-11.14,2.624,0.51-4.159.83-5.375,1.79-7.3a2.023,2.023,0,0,0,.32-0.9c0-1.856-4.16-4.1-7.48-4.1-1.79,0-3.65.576-3.65,1.152,0,0.192.13,0.32,0.58,0.384,2.68,0.768,3.45,3.264,3.39,11.263C1159.14,997.13,1158.11,997.258,1154.66,997.578Zm51.2-7.359c-2.31,0-3.91.32-3.91,0.832,0,0.192.19,0.32,0.71,0.448,3.26,0.96,7.8,5.183,9.34,8.571,0.9,1.92,1.47,2.44,2.75,2.44a3.528,3.528,0,0,0,3.52-3.4C1218.27,994.7,1212.06,990.219,1205.86,990.219Zm41.08,0.192a1.739,1.739,0,0,0-.96.768c-3.9,5.183-13.18,14.141-21.56,20.731-6.98,5.51-12.93,8.64-16.39,8.64-1.47,0-3.33-.77-3.77-1.53-0.32-.64-0.39-0.64-0.58-0.64-0.51,0-.9,1.21-0.9,2.56,0,1.4.9,2.75,3.33,5.05,1.86,1.73,3.46,2.69,4.48,2.69a1.845,1.845,0,0,0,.9-0.38c0.45-.32.83-0.71,1.21-1.03a7.587,7.587,0,0,1,1.22-.83,95.989,95.989,0,0,0,27.26-24.77c2.69-3.644,6.21-9.787,6.21-10.811A0.548,0.548,0,0,0,1246.94,990.411Zm53.63-11.135c-2.04,0-3,.192-3,0.639,0,0.256.12,0.384,0.51,0.448,1.98,0.448,4.67,2.56,6.08,4.928,0.89,1.472,1.09,1.664,2.17,1.664a2.677,2.677,0,0,0,2.82-2.56C1309.15,981.707,1304.99,979.276,1300.57,979.276Zm-8.06,3.775c-1.6,0-2.24.128-2.24,0.512,0,0.256.13,0.384,0.58,0.512,1.79,0.448,4.16,2.56,5.31,4.8,0.96,1.728,1.21,1.984,2.3,1.984a2.476,2.476,0,0,0,2.69-2.5C1301.15,985.611,1296.99,983.051,1292.51,983.051Zm-21.82,6.208c-2.75,0-5.57.576-5.57,1.152,0,0.192.13,0.32,0.58,0.448a14.817,14.817,0,0,1,9.15,7.167c1.02,1.92,1.41,2.244,2.75,2.244a3.582,3.582,0,0,0,3.84-3.46C1281.44,992.779,1276.45,989.259,1270.69,989.259Zm-7.74,12.161c-2.12,0-4.04.38-4.04,0.83,0,0.19.07,0.26,0.64,0.51a16.287,16.287,0,0,1,8.39,7.68c0.76,1.35,1.34,1.79,2.24,1.79a3.663,3.663,0,0,0,3.71-3.39C1273.89,1005.07,1268.51,1001.42,1262.95,1001.42Zm-0.32,21.12h-0.07c-0.51-.07-0.89.7-0.89,1.72a6.841,6.841,0,0,0,2.43,4.68c2.3,2.24,4.09,3.45,5.12,3.45,0.51,0,.7-0.13,1.72-0.96a9.194,9.194,0,0,1,1.28-.83c8.77-5.44,15.81-10.75,20.74-15.62a83.1,83.1,0,0,0,12.29-16.186c1.92-3.584,2.62-5.056,2.62-5.759a0.5,0.5,0,0,0-.38-0.512c-0.32,0-.52.192-1.16,1.087a105.574,105.574,0,0,1-23.67,23.1c-7.24,5.06-12.42,7.55-15.75,7.55-2.75,0-3.84-.44-4.22-1.72h-0.06Zm113.59-24.13c2.37-1.664,2.95-2.176,2.95-2.688,0-.448-0.9-1.344-2.24-2.24-3.65-2.559-4.68-3.135-5.44-3.135-0.58,0-.9.128-2.18,0.9-2.43,1.408-3.65,1.856-7.61,2.559a150.185,150.185,0,0,1-16.39,1.984c-2.24,0-4.09-.7-4.86-1.856a0.914,0.914,0,0,0-.51-0.448,0.745,0.745,0,0,0-.51.9,6.161,6.161,0,0,0,2.17,5.184,8.4,8.4,0,0,0,3.84,1.858,2.046,2.046,0,0,0,1.09-.45,26.854,26.854,0,0,1,7.68-2.688,79.485,79.485,0,0,1,12.67-2.176c1.41,0,1.98.384,1.98,1.408a19.326,19.326,0,0,1-1.21,4.866c-1.86,5.76-4.35,9.92-8.9,15.16a45.941,45.941,0,0,1-20.86,14.47,0.619,0.619,0,0,0-.58.51,0.52,0.52,0,0,0,.58.45c3.14,0,11.33-3.01,16.51-6.02C1363.94,1021.38,1370.21,1013.19,1376.22,998.41Zm4.42-19.9c-1.54,0-2.75.384-2.75,0.832a0.617,0.617,0,0,0,.44.447,9.884,9.884,0,0,1,5.51,4.224c1.02,1.728,1.41,2.048,2.43,2.048a2.688,2.688,0,0,0,2.75-2.5C1389.02,980.939,1385.05,978.508,1380.64,978.508Zm-7.81,3.583c-0.77,0-1.28.192-1.28,0.512a0.882,0.882,0,0,0,.39.512,9.493,9.493,0,0,1,4.92,4.928c0.71,1.792,1.15,2.176,2.31,2.176a2.679,2.679,0,0,0,2.75-2.368c0-1.28-1.35-3.072-3.14-4.16A11.647,11.647,0,0,0,1372.83,982.091Zm48.96,35.259-1.02,3.59c0,0.7,1.21,2.81,2.37,4.16a2.5,2.5,0,0,0,1.72,1.08,1.64,1.64,0,0,0,.96-0.38l0.9-.7c0.26-.13.83-0.52,1.79-1.09a61.691,61.691,0,0,0,19.14-17.6c2.75-3.97,6.14-10.3,6.14-11.52a0.5,0.5,0,0,0-.51-0.448,1.032,1.032,0,0,0-.83.832,63.646,63.646,0,0,1-6.4,8.706,65.518,65.518,0,0,1-11.97,10.49c-2.56,1.73-5.89,3.27-7.04,3.27-0.45,0-.7-0.52-0.7-1.35,0-.38.06-0.89,0.12-1.53,0-.45.26-3.52,0.58-8,0.32-4.74.51-6.53,0.64-7.81a5.672,5.672,0,0,1,.64-1.984,4.237,4.237,0,0,0,.58-1.6c0-.576-0.64-1.344-1.86-2.3-2.69-2.112-3.39-2.5-4.61-2.5-1.09,0-3.26.96-3.26,1.472,0,0.256.13,0.32,0.64,0.448a2.642,2.642,0,0,1,1.6,1.983c0.38,1.088.45,4.416,0.45,16.64Zm-5.37-14.97a8.6,8.6,0,0,1,.44-1.41,2.615,2.615,0,0,0,.26-0.9c0-.892-1.54-2.812-3.33-4.156a8.864,8.864,0,0,0-4.93-2.048c-1.21,0-2.36.576-2.36,1.088a0.617,0.617,0,0,0,.45.448c1.79,0.768,2.75,2.56,2.75,5.058,0,3.2-1.09,7.81-3.27,13.5a37.223,37.223,0,0,1-12.67,17.28,1.643,1.643,0,0,0-.89.9,0.488,0.488,0,0,0,.51.44,5.924,5.924,0,0,0,1.85-.64,34.4,34.4,0,0,0,10.24-7.68,48.168,48.168,0,0,0,10.56-20.35Zm89.21,2.05a50.1,50.1,0,0,1-10.17,2.17c-4.42.51-20.36,1.47-25.22,1.47-5.12,0-7.23-.57-8.19-2.17a0.939,0.939,0,0,0-.64-0.64c-0.64,0-.96.64-0.96,1.79a5.958,5.958,0,0,0,2.3,5.18,11.455,11.455,0,0,0,5.51,2.11,2.46,2.46,0,0,0,.89-0.19c4.8-1.92,14.27-2.81,30.27-2.81,2.37,0,4.29.06,5.63,0.19,2.76,0.26,4.8.45,5.38,0.45,1.98,0,3.26-.83,3.26-2.11C1513.69,1007.37,1511.01,1005.51,1505.63,1004.43Zm59.01-7.044c1.34-1.024,1.6-1.344,1.6-1.984,0-.768-0.7-1.92-2.18-3.583-2.62-2.88-4.73-4.224-6.65-4.224-1.79,0-2.31.128-2.31,0.7,0,0.256.13,0.384,0.64,0.576,1.16,0.448,1.86,1.856,1.86,3.84,0,4.607-3.78,12.355-9.73,19.715-6.78,8.51-14.01,14.39-22.27,18.17a1.185,1.185,0,0,0-.89.77,0.589,0.589,0,0,0,.57.64,26.405,26.405,0,0,0,5.19-1.35q8.535-2.775,17.27-10.56C1554.4,1014.15,1559.39,1007.37,1564.64,997.386Zm62.27,7.044a50.1,50.1,0,0,1-10.17,2.17c-4.42.51-20.35,1.47-25.22,1.47-5.12,0-7.23-.57-8.19-2.17a0.939,0.939,0,0,0-.64-0.64c-0.64,0-.96.64-0.96,1.79a5.958,5.958,0,0,0,2.3,5.18,11.455,11.455,0,0,0,5.51,2.11,2.46,2.46,0,0,0,.89-0.19c4.8-1.92,14.27-2.81,30.27-2.81,2.37,0,4.29.06,5.63,0.19,2.76,0.26,4.8.45,5.38,0.45,1.98,0,3.26-.83,3.26-2.11C1634.97,1007.37,1632.29,1005.51,1626.91,1004.43Zm34.69,8.76-0.06-5.24-0.13-5.83a22.568,22.568,0,0,1,10.05,8.58c1.72,2.69,1.72,2.69,2.04,3.01a3.9,3.9,0,0,0,2.95,1.34,3.261,3.261,0,0,0,3.39-3.39c0-2.31-2.11-5.06-5.31-7.11-3.52-2.24-7.04-3.2-13.06-3.71a46.094,46.094,0,0,1,.9-10.429c0.83-1.92.89-2.048,0.89-2.5,0-.64-0.64-1.664-1.72-2.944-1.8-1.856-3.2-2.688-4.61-2.688-1.86,0-5.7,1.792-5.7,2.624a0.432,0.432,0,0,0,.52.448c3.07,0,3.71.832,4.03,4.8,0.12,1.792.44,14.205,0.44,18.5a164.585,164.585,0,0,1-.89,17.02,19.074,19.074,0,0,0-.64,3.59c0,2.36,2.81,6.4,4.54,6.4,1.6,0,2.88-2.5,2.88-5.76,0-.84-0.06-3.01-0.25-5.64-0.07-.76-0.13-2.88-0.13-5.12Z" transform="translate(-1092.72 -978.5)"/>
</svg>
