<svg xmlns="http://www.w3.org/2000/svg" viewBox="0 0 404.8 60.99"><defs><style>.cls-1{fill:#fff;}</style></defs><title>top-title_1</title><g id="Layer_2" data-name="Layer 2"><g id="Layer_1-2" data-name="Layer 1"><path class="cls-1" d="M0,12.48c4.35.19,6,.26,8.58.26H15.1V1.47l6.53.77a1.2,1.2,0,0,1,1,1.28,1.19,1.19,0,0,1-.57,1l-1.73.84v7.36H25.6l3.52-4.36,4.8,4.36a1.11,1.11,0,0,1,.38.76c0,.51-.32,1-.64,1H20.35V20.8h4.48l1.73-3.07L31,22.27a2.32,2.32,0,0,1,.64,1.34.93.93,0,0,1-.51.84l-.89.57v14.4c0,.51-.39.83-1.28,1.22a12.52,12.52,0,0,1-3.14.64c-.64,0-1-.2-1-.58V38.59H20.35v7h5.89L29.89,41l5.31,4.41c1-3.26,1.47-9.47,1.47-20,0-3.26-.19-12.48-.45-21l6,2.75h9.15l2.31-3.46,5,5.38a1.86,1.86,0,0,1,.51,1.21,1.3,1.3,0,0,1-.64,1.09l-1.28.64V53.5c0,2.88-.45,3.71-2.43,5a9.44,9.44,0,0,1-4.29,1.28c-1,0-1-.06-1.47-2.75,0-.38-.06-.64-.13-.64s-.32-.26-2.43-.9c-1.15-.32-2.5-.7-2.56-.7l-1.28-.45a5.66,5.66,0,0,1-1-.25c-.45-.13-.64-.26-.64-.52s.06-.38,2.37-.38h1.53c6.4,0,7.11-.19,7.17-2.11V37.57H41.34c-.38,6.46-1,8.76-2.81,11.77C36.29,53,32.83,56,27.77,58.68c-2.3,1.22-3.45,1.73-4,1.73a.53.53,0,0,1-.52-.58c0-.25.2-.44.64-.76,5.57-3.59,8.77-7,10.63-11.78H20.35v11c0,1-1.6,1.79-3.9,1.79-1,0-1.35-.26-1.35-1V47.29H9.22c-2.63,0-3.65.07-7.17.19L.64,45.31c4.48.19,6.27.25,8.58.25H15.1v-7H10.88v2.69c0,.89-1.73,1.6-4.1,1.6-.83,0-1.15-.26-1.15-.9V18L11.2,20.8h3.9V14.46H8.58c-2.88,0-3.72,0-7.11.2ZM24.83,28.67V22.53H10.88v6.14Zm0,8.19V30.4H10.88v6.46ZM41.72,26.11c-.06,3.33-.06,5.57-.12,6.34,0,.44-.07,1.85-.13,3.39H52.09V23.29H41.72Zm0-4.54H52.09V8.77H41.72Z"/><path class="cls-1" d="M81.47,22.27c-5.37,3.52-11.26,6.59-12.54,6.59a.43.43,0,0,1-.45-.38c0-.32.32-.64,1-1A81.74,81.74,0,0,0,95.23,0l7.17,2.82a1,1,0,0,1,.64.89,1.19,1.19,0,0,1-.9,1.09l-1.21.38c5.95,6.53,15,11,28.67,13.83-3.84,2.24-4.93,3.26-6.72,5.95-11.2-5-18-10.56-23.36-19.07a112.87,112.87,0,0,1-15,14l3.27,1.79H94V13.7l7.1.7a1,1,0,0,1,1,1,1.24,1.24,0,0,1-.64,1.09l-1.85.83v4.35h6.78l2-3.39,5.44,5.12a1.64,1.64,0,0,1,.7,1.21,1.2,1.2,0,0,1-.77,1.16l-1.34.38V39.36c0,1-.26,1.28-1.21,1.6a11.18,11.18,0,0,1-3.21.7c-.76,0-1.15-.38-1.15-1V39.36H98.17c1.86,3.07,3.84,5.12,7.75,7.93A119.43,119.43,0,0,0,118.33,35.2l4.74,4.22c.7.58,1,1,1,1.41,0,.77-.71,1.15-1.67,1.09l-.44-.07-1.86-.06c-3.65,1.85-9.41,4.73-12.8,6.4,5.82,3.58,12.93,5.63,22.53,6.4a17.9,17.9,0,0,0-7,6.2c-13.7-4.09-22.14-11-26.3-21.43H87.61V52.28c5-.38,10.24-1,13.51-1.34a7.15,7.15,0,0,1,1-.13.6.6,0,0,1,.64.58c0,.32-.26.57-.83.77-3.65,1.21-6.53,2.11-13.64,4-3.52,1-3.71,1-8,2.24l-.89,1.66a1.41,1.41,0,0,1-1.22.9c-.44,0-.83-.26-1.28-.9L72.45,53.5c4.35-.19,5-.26,9-.58Zm25.34,7.42V23.36H87.61v6.33Zm0,7.94V31.42H87.61v6.21Z"/><path class="cls-1" d="M145.73,27.58c.06-3.45.13-5.89.13-7.23,0-6-.58-7.3-3.72-8.51-.19-.06-.32-.19-.32-.32,0-.51,2.43-1.35,4-1.35a10.54,10.54,0,0,1,4.73,1.73c1.47,1,2,1.73,2,2.88a9.94,9.94,0,0,1-.32,2.18,110,110,0,0,0-1.15,14,76.64,76.64,0,0,0,12.74-7.61c1.66-1.28,2.69-2.88,2.69-4.16a2.15,2.15,0,0,0-.52-1.47c-.25-.39-.32-.52-.32-.64,0-.32.32-.45.9-.45a11.78,11.78,0,0,1,3.84.83,20.81,20.81,0,0,1,4,3.39,2.9,2.9,0,0,1,.83,1.73c0,.9-.83,1.47-5,3.26-9,4-12,5.06-19.2,7-.19,3.46-.19,4-.19,5.25,0,7.36,1.53,9.09,8.19,9.09,5.44,0,8.83-.71,12.54-2.57,3.59.26,6.79,2,6.79,3.72,0,1.21-1,2.17-2.88,2.75a54.41,54.41,0,0,1-13.12,1.41c-8.26,0-11.78-1.09-14.34-4.55-1.86-2.56-2.37-5.18-2.37-12.92Zm33.79-14.72a2.65,2.65,0,0,1-2.82,2.43c-1,0-1.28-.32-2.17-1.91A9.86,9.86,0,0,0,169,9.09c-.26-.07-.45-.26-.45-.45,0-.51,1-.77,2.69-.77C175.55,7.87,179.52,10.24,179.52,12.86Zm7.74-4.8a2.8,2.8,0,0,1-2.82,2.5c-1,0-1.28-.26-2.3-2a9.38,9.38,0,0,0-5.57-4.16.64.64,0,0,1-.45-.45c0-.45,1.22-.83,2.76-.83C183.16,3.14,187.26,5.57,187.26,8.06Z"/><path class="cls-1" d="M219.58,30.46c0-.89-.45-1.47-1.09-1.47-1.28,0-3.84.77-7.29,2.24-2.88,1.15-3.78,1.47-4.61,1.47a3.73,3.73,0,0,1-2.24-.83,4.19,4.19,0,0,1-2-4c0-1,.26-1.47.77-1.47.26,0,.26,0,.7.77a3.47,3.47,0,0,0,2.82,1.21,61.53,61.53,0,0,0,10.18-1.85,17.84,17.84,0,0,0,3.77-1.6c.71-.45.9-.51,1.15-.51s.45.06,3.27,2c2,1.41,2.36,1.8,2.36,2.37s-.25.77-1.6,1.92c-1.53,5.12-2.11,7.55-3.26,12.8,1.66-.19,3.2-.32,3.71-.38a23.26,23.26,0,0,0,7.17-1.48,3.44,3.44,0,0,1,.9-.19c1.6,0,5.18,3.39,5.18,4.87,0,.77-.83,1.4-1.92,1.4a10.41,10.41,0,0,1-1.86-.32,68.6,68.6,0,0,0-11.71-1A105,105,0,0,0,208.19,48a18.12,18.12,0,0,0-4.35,1.34c-2.11.9-2.69,1.09-3.52,1.09a8.66,8.66,0,0,1-4-1.73c-1.28-1-1.73-1.53-1.73-2.24,0-1,.38-1.92.77-1.92.13,0,.13,0,.32.32.32.58,2.17,1.09,4.16,1.09a53.89,53.89,0,0,0,5.37-.51c4.42-.52,8.07-1,8.51-1,1.35-.13,2.76-.32,4.16-.45A116.69,116.69,0,0,0,219.58,30.46Z"/><path class="cls-1" d="M265.66,34.69c0,2-1.28,3.58-2.94,3.58A1.75,1.75,0,0,1,261,36.86c-1.15-3.65-3.45-7-5.82-8.64-.58-.38-.71-.51-.71-.77s.2-.38.83-.38C260.86,27.07,265.66,30.65,265.66,34.69Zm4.67,18.17c-3.9,2.43-10.75,5.12-13.18,5.12a.64.64,0,0,1-.64-.51c0-.32,0-.32,1.6-1,5.82-2.43,12.8-7.87,17.6-13.63,5.06-6.08,8.51-13.57,8.51-18.63a4.25,4.25,0,0,0-.83-2.75c-.64-.57-.64-.57-.64-.7,0-.39.45-.64,1-.64a6.49,6.49,0,0,1,4.61,2.11c1.66,1.54,3.14,3.65,3.14,4.42,0,.44-.13.57-1.22,1.72C285.88,38.91,279,47.36,270.33,52.86Zm5.89-22.4A3.41,3.41,0,0,1,273,34c-1.09,0-1.6-.64-2-2.37-1-4.16-3.52-7.87-6-9.08-.32-.13-.45-.32-.45-.52s.32-.38.7-.38C270.53,21.63,276.22,26.24,276.22,30.46Z"/><path class="cls-1" d="M322.88,48.38c-5.19,3-13.38,6-16.45,6-.38,0-.64-.2-.64-.45s.19-.39.58-.51c8.38-2.88,14.65-7.23,20.86-14.4,4.54-5.25,7-9.41,8.89-15.17A19.07,19.07,0,0,0,337.34,19c0-1-.58-1.41-2-1.41a80.79,80.79,0,0,0-12.6,2.17A27.09,27.09,0,0,0,315,22.46a2.57,2.57,0,0,1-1,.39,8.55,8.55,0,0,1-3.9-1.86,6,6,0,0,1-2.18-5.12c0-.51.19-.9.52-.9.12,0,.25.13.51.45.76,1.16,2.62,1.86,4.86,1.86a149.3,149.3,0,0,0,16.38-2c4-.7,5.19-1.15,7.62-2.55,1.28-.77,1.6-.9,2.17-.9.77,0,1.8.58,5.44,3.13,1.35.9,2.24,1.8,2.24,2.18s-.57,1.09-2.94,2.69C338.68,34.56,332.41,42.81,322.88,48.38Z"/><path class="cls-1" d="M378.69,45.88a73.48,73.48,0,0,0,.32-8.25c0-6.85-.2-7.62-1.8-7.62-.51,0-.51,0-4.41.71a10.56,10.56,0,0,0-3,1,3.79,3.79,0,0,1-.58.13c-1.92,0-4-2.56-4-4.93,0-.64.13-.9.44-.9.13,0,.13,0,.64.64s2.05,1,3.52,1c1.22,0,1.22,0,8.9-.77,4.74-.44,7.81-1.15,10.37-2.3a4.52,4.52,0,0,1,1.72-.58,8.11,8.11,0,0,1,3.91,1.86c1,.77,1.53,1.47,1.53,2.18a1.49,1.49,0,0,1-1.53,1.4h-.64l-.77-.06c-3.33-.13-3.33-.13-4.22-.13-2.05,0-3.91.07-6.21.26,1.47.89,2.37,1.73,2.37,2.17a2,2,0,0,1-.26.84c-.83,2.68-1.15,5.37-1.34,13,10.75-1.09,11.32-1.22,14.14-2.11a1.62,1.62,0,0,1,.58-.07c2.36,0,6.4,3.07,6.4,4.8a1.88,1.88,0,0,1-1.86,1.73,14.88,14.88,0,0,1-2.69-.45,55.92,55.92,0,0,0-11.58-1.15c-9.54,0-15.94.89-21.57,2.94a6.7,6.7,0,0,1-2.43.51c-1,0-1,0-4-1.92-1.47-.89-2-1.6-2-2.49s.26-1.79.64-1.79c.13,0,.26.06.38.32.51.7,2.05,1.08,4.29,1.08,1.28,0,1.28,0,8-.38L377,46Z"/></g></g></svg>