<svg xmlns="http://www.w3.org/2000/svg" viewBox="0 0 686.28 26.68"><defs><style>.cls-1{fill:#343434;}</style></defs><title>Title-3</title><g id="Layer_2" data-name="Layer 2"><g id="Layer_1-2" data-name="Layer 1"><path class="cls-1" d="M0,23.18l.73,0c1.62-.12,2.15-.84,2.18-3V7.36C3,4.68,2.6,4.14.5,4.09H0V3.33H6.83l6.22,15.54L19.26,3.33H26v.76h-.36c-2-.06-2.74.73-2.74,3.11V20.13c0,2.35.42,2.91,2.49,3.05h.42v.76H16.72v-.76h.39c1.87,0,2.49-.67,2.49-2.74V4.73L12.12,23.94h-.61L3.92,4.73V20.16c0,2.46.59,3.08,2.74,3h.45v.76H0Z"/><path class="cls-1" d="M31.67,23.16c2.1-.09,2.66-.51,3.47-2.61l6.64-18h1.45L50,20.38c.72,1.88,1.56,2.72,2.74,2.78h.62v.78H44.13v-.78h.47c1.38,0,2-.4,2-1.18a5.61,5.61,0,0,0-.45-1.85l-1-2.8H37.41l-1.12,2.91a3.53,3.53,0,0,0-.31,1.4c0,1,.81,1.52,2.6,1.52h.28v.78H31.67Zm13.21-6.75L41.38,6.5l-3.67,9.91Z"/><path class="cls-1" d="M59.08,23.16h.53c2.18,0,2.6-.45,2.6-2.55V6c0-1.26-.7-1.87-2.09-1.9h-1V3.3H70c3.55,0,4.73.23,6,1.18a4.83,4.83,0,0,1,2,3.84,4.83,4.83,0,0,1-2.41,4.11,9,9,0,0,1-3.44,1.07l4.39,8a3.07,3.07,0,0,0,2.83,1.63h.73v.78H73.89L68.74,13.61H65.6v6.91c0,1.94.62,2.55,2.61,2.64h.7v.78H59.08Zm8.48-10.39c4.65,0,6.58-1.26,6.58-4.26,0-2.8-1.9-4.31-5.48-4.31-2.27,0-3.06.59-3.06,2.32v6.25Z"/><path class="cls-1" d="M104.72,17.58c-1.85,4.65-4.45,6.78-8.32,6.78-5.9,0-10-4.51-10-11a10.09,10.09,0,0,1,3-7.59,9.41,9.41,0,0,1,7-2.91,8.69,8.69,0,0,1,5.4,1.76L103.26,3H104l.28,7.78h-1a9.3,9.3,0,0,0-2.07-4.62A6.05,6.05,0,0,0,96.88,4C93.07,4,90.44,8.09,90.44,14c0,5.71,2.44,9,6.66,9A6,6,0,0,0,102,20.47a14.49,14.49,0,0,0,1.79-3.31Z"/><path class="cls-1" d="M124.26,3.33h9.58v.76h-.45c-2.18,0-2.72.53-2.66,2.71V21c.06,1.77.42,2.1,2.35,2.16l.7,0v.78h-9.54v-.78h.64c1.74,0,2.38-.59,2.44-2.33V13.72H117.26v7.11c0,1.88.4,2.27,2.38,2.33h.65v.78h-9.55v-.78h1.32c1.42,0,1.76-.56,1.79-2.75V6.13c-.09-1.51-.7-2-2.44-2h-.67V3.33h9.63v.76h-.75c-1.66-.06-2.3.42-2.36,1.76v7h10.06v-6c0-2.18-.45-2.74-2.3-2.77h-.76Z"/><path class="cls-1" d="M139.72,23.18h.81c1.91,0,2.38-.7,2.38-3.38V6.22c-.14-1.66-.95-2.3-2.77-2.19h-.39v-.7h17.47l.42,7.09h-.84c-.56-2.41-1.06-3.56-2-4.51-1.09-1.15-3.13-1.77-5.79-1.77-2,0-2.69.56-2.69,2.05v6.55h1.29c3,0,4-1,4.34-4.54h.78V18.26h-.81c-.11-3.45-1.23-4.62-4.31-4.65H146.3v7c0,1.29.14,1.76.59,2a5.35,5.35,0,0,0,2.57.42c4.23,0,6.25-1.82,7.51-6.77h.92l-.76,7.64H139.72Z"/><path class="cls-1" d="M164.19,23.16h.53c2.19,0,2.61-.45,2.61-2.55V6c0-1.26-.7-1.87-2.1-1.9h-1V3.3h10.92c3.56,0,4.73.23,6,1.18a4.83,4.83,0,0,1,2,3.84,4.81,4.81,0,0,1-2.41,4.11,8.92,8.92,0,0,1-3.44,1.07l4.39,8a3.07,3.07,0,0,0,2.83,1.63h.73v.78H179l-5.15-10.33h-3.14v6.91c0,1.94.62,2.55,2.61,2.64h.7v.78h-9.83Zm8.48-10.39c4.65,0,6.58-1.26,6.58-4.26,0-2.8-1.9-4.31-5.48-4.31-2.27,0-3.06.59-3.06,2.32v6.25Z"/><path class="cls-1" d="M191,23.16c2.1-.09,2.66-.51,3.47-2.61l6.64-18h1.46l6.8,17.86c.73,1.88,1.57,2.72,2.74,2.78h.62v.78H203.5v-.78H204c1.37,0,2-.4,2-1.18a5.79,5.79,0,0,0-.44-1.85l-1-2.8h-7.81l-1.12,2.91a3.71,3.71,0,0,0-.31,1.4c0,1,.82,1.52,2.61,1.52h.28v.78H191Zm13.22-6.75-3.5-9.91-3.67,9.91Z"/><path class="cls-1" d="M218.51,23.16h.73c1.65-.06,2.29-.68,2.27-2.13V6.36c-.09-1.74-.68-2.3-2.44-2.27h-.61V3.33h5.15l12,15.57V6.24a2.14,2.14,0,0,0-2.52-2.15h-.42V3.33h6.83v.76H239c-1.79-.06-2.46.61-2.52,2.46V24.47h-.64L222.38,7.11V21c-.06,1.31.69,2,2.18,2.13h.81v.78h-6.86Z"/><path class="cls-1" d="M246,3.33h19.1l.33,7.59h-.87c-.78-3-1.17-4.12-1.79-5a4,4,0,0,0-3.53-1.79,2.12,2.12,0,0,0-1.62.53c-.39.4-.42.56-.42,2.52V20.5c-.08,2.07.59,2.71,2.86,2.68h.64v.76H250.26v-.76h.65c2.4-.05,2.88-.56,2.91-3.16V6.58c0-1.2-.09-1.65-.39-2a2.39,2.39,0,0,0-1.57-.45,4.51,4.51,0,0,0-4.2,2.8,16.77,16.77,0,0,0-1.26,4h-.87Z"/><path class="cls-1" d="M278.43,14.08a.23.23,0,0,1,0,.12,8.39,8.39,0,0,0-.19,1.68,4.57,4.57,0,0,0,2,4A9.72,9.72,0,0,0,285.07,21a20,20,0,0,0,5.32-.81,3.49,3.49,0,0,1,1.23-.28,1.74,1.74,0,0,1,1.93,1.54c0,.84-.42,1.31-1.46,1.65a21.42,21.42,0,0,1-5.76.7c-6,0-9.36-2.27-9.36-6.41,0-1.51.76-3.42,1.35-3.42A.13.13,0,0,1,278.43,14.08Zm.76-10.69c0-.09.05-.14.11-.14s.08,0,.14.14c.75,1.2,3.27,2.24,5.4,2.24a9.42,9.42,0,0,0,2.52-.37A6,6,0,0,1,288.62,5,1.66,1.66,0,0,1,290,6a4.11,4.11,0,0,1,.42,1.43c0,.56-.45.81-1.48.84A18.7,18.7,0,0,0,282.07,10a2.74,2.74,0,0,1-.62.28.13.13,0,0,1-.14-.14A11,11,0,0,1,283,8.32c.17-.14.23-.23.23-.34s-.06-.2-.23-.22a4.67,4.67,0,0,1-3.83-4.32Z"/><path class="cls-1" d="M315.36,4.62A5.1,5.1,0,0,0,318.41,6a.6.6,0,0,1,.65.67,1.75,1.75,0,0,1-.95,1.51,22.12,22.12,0,0,1-3.78,1.91c-1.1,4.51-2.19,8.43-3.36,12.07a5.88,5.88,0,0,1-1.1,2.43,1.78,1.78,0,0,1-1.26.56,2,2,0,0,1-1.84-1.65c0-.31.11-.53.5-1.12a39.21,39.21,0,0,0,4.84-11.7,13.85,13.85,0,0,1-3.33.44,2.59,2.59,0,0,1-2.15-1,4.4,4.4,0,0,1-.84-2.33c0-.14,0-.22.14-.22s.11,0,.28.34a2.81,2.81,0,0,0,2.46,1,13.78,13.78,0,0,0,3.89-.53,18.8,18.8,0,0,0,.48-4,2,2,0,0,0-.81-1.94,2.2,2.2,0,0,0-.7-.25h-.06a.15.15,0,0,1-.11,0c-.09,0-.17-.06-.17-.11,0-.31,1.06-.81,1.71-.81,1.2,0,2.88,1.06,2.88,1.82a1.45,1.45,0,0,1-.17.53,1.7,1.7,0,0,1-.11.25l-.05.34-.06.28Zm-.42,1.6-.33,1.59c1.09-.36,2-.87,2-1.09s-.67-.9-1.45-1.46Zm11.37,14.84c1.18,0,1.9.64,1.9,1.65,0,1.2-.78,1.59-3.16,1.59a14.35,14.35,0,0,1-4.93-.72,4.56,4.56,0,0,1-3.05-4.46c0-1.2.7-3.08,1.15-3.08a.16.16,0,0,1,.14.17.27.27,0,0,1,0,.14,9.41,9.41,0,0,0-.22,1.82c0,2.16,1.65,3.25,4.84,3.25Zm-6.92-10a.08.08,0,0,1-.08,0c-.06,0-.14-.06-.14-.11,0-.23.53-.81,1-1.15A6.58,6.58,0,0,1,323.59,9c2.41,0,4.18,1.26,4.18,2.94,0,.62-.28.92-.79.92a3.2,3.2,0,0,1-.5-.11,8.2,8.2,0,0,0-1.74-.19A7,7,0,0,0,322,13c-.28.11-.31.11-.34.11a.18.18,0,0,1-.17-.14c0-.08.06-.17.23-.25s.42-.28,1.17-.81c1-.62,1-.62,1-.76,0-.33-1-.67-1.91-.67A5.5,5.5,0,0,0,319.39,11Zm6.22-5.54a1.09,1.09,0,0,1-1.09,1.15c-.42,0-.62-.14-.84-.65a5.07,5.07,0,0,0-2.41-2.38c-.25-.08-.31-.14-.31-.25s.25-.25,1-.25C323.85,3.11,325.61,4.26,325.61,5.49Zm3.14-2.1a1.07,1.07,0,0,1-1.1,1.12c-.56,0-.58,0-1.17-1a4.14,4.14,0,0,0-2.27-1.82c-.22-.06-.31-.14-.31-.25s.51-.26,1.32-.26C327,1.2,328.75,2.3,328.75,3.39Z"/><path class="cls-1" d="M341.09,14.53a4.42,4.42,0,0,1-.7-2.1c0-1.12,1.32-2.35,4.18-3.95,0-.75,0-1.23,0-1.84,0-2.41-.22-3.42-.92-4.23a1.27,1.27,0,0,0-1-.45.18.18,0,0,1-.11-.17c0-.19.84-.42,1.62-.42,1.32,0,3.14,1.49,3.14,2.58a2.08,2.08,0,0,1-.14.61,13,13,0,0,0-.59,3.25,3.49,3.49,0,0,0,.5-.08c.68.31,1.18.87,1.18,1.29,0,.19-.11.39-.5.84-.23.28-.82,1-1,1.23a2.11,2.11,0,0,0-.48,1.15c3.16-2.69,5.68-3.9,8.18-3.9a6.1,6.1,0,0,1,6.3,6.28,8.47,8.47,0,0,1-3.25,6.58,15.31,15.31,0,0,1-5.6,2.68,7.72,7.72,0,0,1-1.15.23.22.22,0,0,1-.22-.23c0-.08.08-.16.39-.28a13.87,13.87,0,0,0,4.09-2.52,8.63,8.63,0,0,0,2.6-6.49c0-3.11-1.48-4.82-4.14-4.82a10.35,10.35,0,0,0-6.5,3.11c-.73.73-.9,1-.9,1.76a41.55,41.55,0,0,0,.68,8.18,4.75,4.75,0,0,1,.05.53,2.36,2.36,0,0,1-2.21,2.07.64.64,0,0,1-.5-.28c-.09-.19-.09-.19-.12-1.26A18,18,0,0,0,343,18.54c-1,1.68-1.46,2.46-1.82,3.19s-.56.95-1,.95c-.81,0-1.37-.81-1.37-1.93,0-.56.17-.84,1-1.63a17.36,17.36,0,0,0,2.3-2.57A13.07,13.07,0,0,0,341.09,14.53Zm3.22-1a3.13,3.13,0,0,0,.4-1.12c0-.78,0-.78,0-1.93-2.27,1-2.83,1.43-2.83,2.18,0,.37,0,.4.48,1.63.25.64.25.64.44,1.23ZM344,19a4.66,4.66,0,0,1,.22.79c.11.61.2.75.42.75s.42-.36.42-.87c0-.25-.06-1.76-.2-4.5a20.41,20.41,0,0,0-1.34,2.32l.22.67Z"/><path class="cls-1" d="M379.59,14.53a7.23,7.23,0,0,0,.29,1.79A2.54,2.54,0,0,1,380,17a1.48,1.48,0,0,1-1.26,1.4c-1.32,0-2.38-2.55-2.38-5.74a23.5,23.5,0,0,1,.75-5.43,17.37,17.37,0,0,0,.62-3.95c0-1.32-.42-2-1.43-2.1-.17,0-.22-.09-.22-.17s.7-.42,1.37-.42c1.59,0,3.44,1.46,3.44,2.72,0,.47-.11.75-1,2.54a11.81,11.81,0,0,0-1.55,4.88c0,.53.14,1,.34,1s.39-.19.59-.61c1.65-3.53,3.36-5.21,5.26-5.21,2.66,0,4.43,3.08,4.43,7.7a11.74,11.74,0,0,1-5,10.14A17.58,17.58,0,0,1,379.26,26l-.62.16a1,1,0,0,1-.36.09.2.2,0,0,1-.2-.17c0-.14,0-.14.45-.34a16.15,16.15,0,0,0,4.79-3.52c1.79-2,2.69-4.85,2.69-8.52,0-3.92-.87-6.35-2.27-6.35C381.81,7.31,379.59,11.17,379.59,14.53Z"/><path class="cls-1" d="M415.57,8.23a18,18,0,0,1-2.8,9.1c-1.65,2.58-4.08,4.57-5.62,4.57a3.42,3.42,0,0,1-2.36-1.54,7.3,7.3,0,0,1-1.37-4.51c0-6.16,5.63-11.45,12.18-11.45a10.77,10.77,0,0,1,7.87,3.08,8.4,8.4,0,0,1,2.21,5.9,10.3,10.3,0,0,1-5.18,9,17.24,17.24,0,0,1-5.18,1.91,11.85,11.85,0,0,1-1.79.33c-.17,0-.28,0-.28-.16s.08-.17.53-.31a15.1,15.1,0,0,0,5-2.61,9.55,9.55,0,0,0,3.59-8c0-3.75-1.26-6.3-3.7-7.53a6.69,6.69,0,0,0-2.88-.67,5.71,5.71,0,0,0-.59,0A10.71,10.71,0,0,1,415.57,8.23ZM409.25,8a10.94,10.94,0,0,0-3.31,7.81c0,1.65.76,3.11,1.63,3.11s2.46-1.46,3.64-3.3a16.5,16.5,0,0,0,2.85-8.38,6.27,6.27,0,0,0-.17-1.56c0-.06,0-.12-.05-.2A10.53,10.53,0,0,0,409.25,8Z"/><path class="cls-1" d="M444,25.28c0,.34-1.1.73-2.08.73-.33,0-.47-.11-.47-.36V15.18a28.8,28.8,0,0,1-4.48,4,12.22,12.22,0,0,1-2.61,1.57.19.19,0,0,1-.16-.2c0-.08.08-.17.3-.36A27.34,27.34,0,0,0,444,4.31h-3.55c-.48,0-1.24,0-2.13.06l-2.72.08-.67-1,3.19.08c1,0,1.93.06,2.33.06h14.61l2-2.24,2.8,2.24a.42.42,0,0,1,.19.36.36.36,0,0,1-.33.39H447.1a34.44,34.44,0,0,1-3.67,8.23l.59.51h9l1.09-1.68,2.69,2.52a.76.76,0,0,1,.28.53.7.7,0,0,1-.37.56l-.75.34v9.35c0,.33-1.21.78-2.13.78-.34,0-.48-.11-.48-.39V23.52H444Zm9.4-2.52v-9H444v9Z"/><path class="cls-1" d="M467.4,19.43c3,.11,4.26.14,5.49.14h5.52V16.86h-3.34c-1.37,0-2.15,0-4.25.11l-.62-1c2.69.11,3.73.14,4.87.14h3.34V13.72h-4.48c-1,0-2,0-5,.14l-.59-1.06c3.11.14,4.32.16,5.52.16h1.88c-.14-.25-.2-.42-.23-.47-.11-.25-.19-.48-.28-.73A3.54,3.54,0,0,0,474,10a21.79,21.79,0,0,1-5.54,1.34c-.17,0-.28-.08-.28-.22s.11-.23.45-.34c4.59-1.17,6.88-3,7.39-6h-4.31A6.45,6.45,0,0,1,471.27,7,2.75,2.75,0,0,1,469,8.74a1.3,1.3,0,0,1-1.26-1.38c0-.58.11-.72,1.17-1.59a3.86,3.86,0,0,0,1.71-3.11c0-.25.11-.39.28-.39.34,0,.5.45.7,1.73h6.66V.36l2.86.17a.61.61,0,0,1,.59.59.61.61,0,0,1-.37.56l-.53.22V4H488l1.15-1.65,2.58,2.52a.88.88,0,0,1,.28.56.54.54,0,0,1-.56.51h-1.26a15,15,0,0,0-1.49.89c-.28.2-.58.39-.81.56s-.36.23-.53.31a1.13,1.13,0,0,1-.59.28.13.13,0,0,1-.11-.14,3,3,0,0,1,.28-.62A22.9,22.9,0,0,0,488,4.76H483v2.8c0,.7,0,.7,3.28.7,1.68,0,2.21-.06,2.52-.34a6,6,0,0,0,1-1.4c.22-.36.36-.5.5-.5s.11.08.11.2,0,.33-.08,1.06c0,.2-.06.45-.06.48s.06.25.31.36c.5.22.73.5.73.9s-.45.81-1.26.92-1.93.11-4.73.11l-.7,0,1.12.65a.43.43,0,0,1,.22.39.47.47,0,0,1-.45.48h-.64A22.49,22.49,0,0,0,482.89,13h3.24l1.8-2.12,2.38,2.07a.57.57,0,0,1,.22.42c0,.25-.14.39-.34.39h-9.46V16.1h3.75l1.71-2,2.27,2a.78.78,0,0,1,.25.47.4.4,0,0,1-.34.37h-7.64v2.71h7.36l1.8-2,2.38,2a.62.62,0,0,1,.22.42.35.35,0,0,1-.36.34H472.89c-1.82,0-2.52,0-4.84.14Zm4.54,3.22a5.32,5.32,0,0,1-.56,2.55,2.93,2.93,0,0,1-2.16,1.48,1.46,1.46,0,0,1-1.59-1.48c0-.62.11-.73,1.4-1.57a4.3,4.3,0,0,0,2.1-2.52c.08-.22.16-.31.3-.31C471.77,20.8,471.94,21.39,471.94,22.65Zm4-1.06c1.57,1,2.24,2,2.24,3.33a1.54,1.54,0,0,1-1.57,1.71c-.78,0-1.15-.51-1.2-1.71a6.67,6.67,0,0,0-.84-3.56.72.72,0,0,1-.17-.3.18.18,0,0,1,.2-.17A4.63,4.63,0,0,1,476,21.59Zm2.49-16.83a1.28,1.28,0,0,1-.11.36,6.46,6.46,0,0,1-3.58,4.51,6.2,6.2,0,0,1,1.9.67,2.24,2.24,0,0,1,1.2,1.88,1.3,1.3,0,0,1-.25.78h4.06a19.45,19.45,0,0,0,1.18-3c-1.82,0-2.13-.25-2.13-1.51V4.76Zm2.63,16.86c1.94.72,3,1.93,3,3.3A1.37,1.37,0,0,1,482,26c-.31-.31-.31-.31-.84-2a4.47,4.47,0,0,0-1.68-2.41c-.17-.14-.22-.23-.22-.31a.19.19,0,0,1,.19-.17A12.54,12.54,0,0,1,481.09,21.62Zm6.14-.17c2.43.75,3.66,1.82,3.66,3.16a1.49,1.49,0,0,1-1.48,1.46c-.62,0-.64,0-1.76-1.71a10.85,10.85,0,0,0-3.2-2.88c-.33-.23-.44-.31-.44-.42a.26.26,0,0,1,.28-.26A21.49,21.49,0,0,1,487.23,21.45Z"/><path class="cls-1" d="M498.54,5.46c1.9.08,2.6.11,3.75.11h2.86V.64L508,1a.53.53,0,0,1,.45.56.53.53,0,0,1-.25.45l-.76.36V5.57h2.3l1.54-1.9,2.1,1.9a.5.5,0,0,1,.17.34c0,.22-.14.42-.28.42h-5.83V9.1h2l.76-1.34,1.93,2a1,1,0,0,1,.28.59.41.41,0,0,1-.22.37l-.4.25v6.3c0,.22-.16.36-.56.53a5.39,5.39,0,0,1-1.37.28c-.28,0-.42-.08-.42-.25v-.93h-2v3.06H510l1.59-2,2.33,1.93c.45-1.43.64-4.14.64-8.76,0-1.43-.08-5.46-.19-9.21l2.6,1.2h4l1-1.51,2.19,2.35a.81.81,0,0,1,.22.53.57.57,0,0,1-.28.48l-.56.28v18.2c0,1.26-.2,1.62-1.06,2.18a4.18,4.18,0,0,1-1.88.56c-.42,0-.45,0-.64-1.2,0-.17,0-.28-.06-.28s-.14-.11-1.06-.39L517.75,24l-.56-.2a2.17,2.17,0,0,1-.42-.11c-.2-.06-.28-.11-.28-.22s0-.17,1-.17h.67c2.8,0,3.11-.09,3.14-.93v-5.9h-4.7c-.17,2.82-.42,3.83-1.24,5.15a11.73,11.73,0,0,1-4.7,4.09,5.86,5.86,0,0,1-1.74.75.22.22,0,0,1-.22-.25c0-.11.08-.2.28-.34a10.58,10.58,0,0,0,4.65-5.15h-6.22v4.82c0,.45-.7.78-1.71.78-.42,0-.58-.11-.58-.42V20.69h-2.58c-1.15,0-1.6,0-3.14.09l-.61-1c2,.09,2.74.12,3.75.12h2.58V16.88H503.3v1.18c0,.39-.76.7-1.79.7-.37,0-.51-.11-.51-.39V7.87l2.44,1.23h1.71V6.33h-2.86c-1.26,0-1.62,0-3.11.08Zm10.86,7.08V9.86h-6.1v2.68Zm0,3.59V13.3h-6.1v2.83Zm7.39-4.71c0,1.46,0,2.44,0,2.78s0,.81-.06,1.48h4.65V10.19h-4.54Zm0-2h4.54V3.84h-4.54Z"/><path class="cls-1" d="M537,9.74c-2.35,1.54-4.93,2.89-5.49,2.89a.19.19,0,0,1-.19-.17c0-.14.14-.28.42-.45A35.75,35.75,0,0,0,543,0l3.14,1.23a.46.46,0,0,1,.28.39.52.52,0,0,1-.39.48l-.54.17c2.61,2.85,6.58,4.79,12.55,6.05a7,7,0,0,0-2.94,2.6c-4.9-2.18-7.87-4.62-10.22-8.34a50.18,50.18,0,0,1-6.55,6.1l1.42.78h2.69V6l3.11.31a.44.44,0,0,1,.42.42.55.55,0,0,1-.28.48l-.81.36v1.9h3L548.74,8l2.38,2.24a.7.7,0,0,1,.31.53.53.53,0,0,1-.34.51l-.58.16v5.8c0,.45-.12.56-.54.7a4.71,4.71,0,0,1-1.4.31c-.33,0-.5-.17-.5-.45v-.56h-3.78a10.94,10.94,0,0,0,3.39,3.47,52.2,52.2,0,0,0,5.43-5.29l2.07,1.85c.31.25.42.45.42.61,0,.34-.31.51-.73.48l-.19,0-.81,0c-1.6.82-4.12,2.08-5.6,2.8a21.36,21.36,0,0,0,9.85,2.8A7.87,7.87,0,0,0,555,26.6c-6-1.79-9.69-4.82-11.51-9.38h-3.86v5.66c2.18-.17,4.48-.42,5.91-.59a2.8,2.8,0,0,1,.42-.06.26.26,0,0,1,.28.25c0,.14-.11.26-.37.34-1.59.53-2.85.92-6,1.76-1.54.42-1.62.45-3.5,1l-.39.73a.62.62,0,0,1-.53.39c-.2,0-.37-.11-.56-.39L533,23.41c1.91-.09,2.22-.11,4-.25ZM548.07,13V10.22h-8.4V13Zm0,3.47V13.75h-8.4v2.71Z"/><path class="cls-1" d="M584.67,16.86a1.42,1.42,0,0,1-1.4,1.48c-.51,0-.7-.17-1.35-1.12a15.81,15.81,0,0,0-2.15-2.74,26.75,26.75,0,0,1-7.82,7,24.63,24.63,0,0,1-5.46,2.24.24.24,0,0,1-.22-.25c0-.14.11-.23.84-.59a34.39,34.39,0,0,0,10.92-10,13.54,13.54,0,0,0-5.21-3.33c-.47-.14-.61-.22-.61-.39s.19-.25.47-.25a13.87,13.87,0,0,1,6.5,2.1,13.54,13.54,0,0,0,1.71-5.27,2.45,2.45,0,0,0-.79-2c-.05,0-.08-.08-.08-.11s.22-.28.39-.28a5.18,5.18,0,0,1,2.38,1.09,4.71,4.71,0,0,1,1.76,2.16c0,.19-.08.31-.39.53s-.33.31-.7,1.06a33.09,33.09,0,0,1-2.27,4.18C583.6,14.17,584.67,15.54,584.67,16.86Z"/><path class="cls-1" d="M598.61,17c.42.48,1.54.76,3.11.76s6.21-.45,11.59-1.12a11.73,11.73,0,0,0,4.34-1.09,2.85,2.85,0,0,1,.76-.2c.3,0,.86.31,2.15,1.23.73.51,1,1,1,1.49s-.34.7-.84.7c-.28,0-.67-.06-1.12-.11a23.09,23.09,0,0,0-4.31-.34c-5.27,0-10.28.67-13.14,1.74a3.43,3.43,0,0,1-1.12.28c-1.23,0-3-1.94-3-3.31a.25.25,0,0,1,.25-.25C598.41,16.8,598.44,16.83,598.61,17ZM615.8,8.37c0,.45-.36.62-1.87.84-1.88.28-2.55.37-4,.65a21.26,21.26,0,0,1-3.86.53c-1,0-1.62-.42-2.38-1.57a2.28,2.28,0,0,1-.5-1,.13.13,0,0,1,.14-.11,1.34,1.34,0,0,1,.19.11,5.46,5.46,0,0,0,2.33.59,28.19,28.19,0,0,0,4.92-.73,7.58,7.58,0,0,0,2.16-1C614.54,6.86,615.8,7.62,615.8,8.37Z"/><path class="cls-1" d="M643.33,13.33c0-.39-.2-.65-.48-.65a10.55,10.55,0,0,0-3.19,1,6.22,6.22,0,0,1-2,.65,1.6,1.6,0,0,1-1-.37,1.82,1.82,0,0,1-.89-1.73c0-.45.11-.65.33-.65s.11,0,.31.34a1.5,1.5,0,0,0,1.23.53,26.77,26.77,0,0,0,4.45-.81,7.63,7.63,0,0,0,1.66-.7c.3-.2.39-.22.5-.22s.2,0,1.43.89c.87.62,1,.79,1,1s-.11.33-.7.84c-.67,2.24-.92,3.3-1.42,5.6.72-.09,1.4-.14,1.62-.17a10.27,10.27,0,0,0,3.14-.64,1.23,1.23,0,0,1,.39-.09A3.59,3.59,0,0,1,652,20.3c0,.34-.37.62-.84.62a5.48,5.48,0,0,1-.82-.14,29.21,29.21,0,0,0-5.12-.45,46.38,46.38,0,0,0-6.89.67,8,8,0,0,0-1.9.59,3.83,3.83,0,0,1-1.54.47,3.77,3.77,0,0,1-1.77-.75c-.56-.45-.75-.67-.75-1s.17-.84.33-.84.06,0,.14.14a2.7,2.7,0,0,0,1.82.47c.28,0,.28,0,2.36-.22s3.52-.42,3.72-.42l1.82-.2A51.07,51.07,0,0,0,643.33,13.33Z"/><path class="cls-1" d="M686.28,14c0,.56-.56.92-1.43.92-.25,0-1.15-.08-2.35-.19-.59-.06-1.43-.09-2.47-.09-7,0-11.14.39-13.24,1.23a1,1,0,0,1-.39.09,5,5,0,0,1-2.41-.93,2.59,2.59,0,0,1-1-2.26c0-.51.14-.79.42-.79.09,0,.14.06.28.28.42.7,1.35,1,3.59,1s9.1-.42,11-.64a22.07,22.07,0,0,0,4.45-.95C685.1,12.12,686.28,12.94,686.28,14Z"/></g></g></svg>