<svg xmlns="http://www.w3.org/2000/svg" viewBox="0 0 575.04 26.68"><defs><style>.cls-1{fill:#343434;}</style></defs><title>title-5</title><g id="Layer_2" data-name="Layer 2"><g id="Layer_1-2" data-name="Layer 1"><path class="cls-1" d="M2,8.26c1.6.56,2.6,1.65,2.6,2.88a1.64,1.64,0,0,1-1.48,1.71,1,1,0,0,1-.84-.47c-.22-.31-.22-.31-.45-1.74A4,4,0,0,0,.14,8.23C0,8.15,0,8.12,0,8.06s.08-.19.22-.19A8,8,0,0,1,2,8.26Zm2.52,11-.14.33a2.72,2.72,0,0,0-.17.81c0,.65,0,.76.65,2.86a3.41,3.41,0,0,1,.16,1,1.62,1.62,0,0,1-1.62,1.79,1.54,1.54,0,0,1-1.57-1.71,13.63,13.63,0,0,1,.39-2.46,4.23,4.23,0,0,0,.06-.79A2.18,2.18,0,0,0,.5,18.76c-.36-.11-.47-.2-.47-.34s.11-.22.33-.22l.65,0,1,.08.33.06L8.88,4.54c.08-.23.22-.34.36-.34a.28.28,0,0,1,.25.31,1.11,1.11,0,0,1-.05.25l-1,2.88h8.23A30.68,30.68,0,0,0,19,.59L21.7,1.9a.83.83,0,0,1,.45.62.52.52,0,0,1-.28.42l-.7.39c-.28.34-.56.67-.81,1-.56.73-1.12,1.4-1.71,2.13L17.7,7.64h3.41l1.79-2.1,2.27,1.88a.66.66,0,0,1,.23.5c0,.26-.14.48-.31.48H17V13h3.36l1.6-1.9,2.13,1.76a.87.87,0,0,1,.25.53.37.37,0,0,1-.36.37H17v5h4.6l1.84-2.1L26,18.73a.48.48,0,0,1,.17.37c0,.22-.11.39-.22.39H17v6c0,.31-.11.42-.47.59a4.8,4.8,0,0,1-1.54.31c-.37,0-.53-.14-.53-.39V19.49H10c-.53,0-1.23,0-2,0l-2.27.08-.56-1c2.52.11,3.5.14,4.84.14h4.46v-5H11.82c-.31,0-.87,0-1.52,0l-1.7.05-.54-.95C10.19,13,11,13,11.82,13h2.66V8.4H8.2Zm-1-17.67C5.66,2,6.92,3.25,6.92,4.84A1.47,1.47,0,0,1,5.43,6.41c-.73,0-.89-.22-1.43-1.9A5,5,0,0,0,2,1.68c-.09-.06-.11-.11-.11-.17s.08-.14.25-.14A9.14,9.14,0,0,1,3.44,1.57ZM11,1.26c2.19.87,3.36,2.24,3.36,4A1.67,1.67,0,0,1,12.91,7c-.62,0-1-.5-1.26-1.68-.42-2.16-.9-3.05-2.19-4.12C9.35,1.09,9.32,1,9.32,1a.2.2,0,0,1,.2-.17A8.25,8.25,0,0,1,11,1.26Z"/><path class="cls-1" d="M37.66,9.74c-2.35,1.54-4.93,2.89-5.49,2.89a.19.19,0,0,1-.19-.17c0-.14.14-.28.42-.45A35.75,35.75,0,0,0,43.68,0l3.14,1.23a.48.48,0,0,1,.28.39.52.52,0,0,1-.4.48l-.53.17c2.61,2.85,6.58,4.79,12.55,6.05a7,7,0,0,0-2.94,2.6c-4.9-2.18-7.87-4.62-10.22-8.34A50.29,50.29,0,0,1,39,8.68l1.43.78h2.69V6l3.11.31a.44.44,0,0,1,.42.42.55.55,0,0,1-.28.48l-.81.36v1.9h3L49.42,8l2.38,2.24a.73.73,0,0,1,.31.53.53.53,0,0,1-.34.51l-.59.16v5.8c0,.45-.11.56-.53.7a4.77,4.77,0,0,1-1.4.31c-.33,0-.5-.17-.5-.45v-.56H45a10.94,10.94,0,0,0,3.39,3.47,52.2,52.2,0,0,0,5.43-5.29l2.07,1.85c.31.25.42.45.42.61,0,.34-.31.51-.73.48l-.19,0-.82,0c-1.59.82-4.11,2.08-5.6,2.8a21.44,21.44,0,0,0,9.86,2.8,7.87,7.87,0,0,0-3.08,2.72c-6-1.79-9.69-4.82-11.51-9.38H40.35v5.66c2.18-.17,4.48-.42,5.91-.59a2.49,2.49,0,0,1,.42-.06.26.26,0,0,1,.28.25c0,.14-.12.26-.37.34-1.59.53-2.85.92-6,1.76-1.54.42-1.63.45-3.5,1l-.39.73a.62.62,0,0,1-.54.39c-.19,0-.36-.11-.56-.39l-1.93-2.88c1.91-.09,2.21-.11,3.95-.25ZM48.75,13V10.22h-8.4V13Zm0,3.47V13.75h-8.4v2.71Z"/><path class="cls-1" d="M75,10.11a7.07,7.07,0,0,1-2.54-.81,3.44,3.44,0,0,1-1.66-2.69c0-.39.09-.7.23-.7s.08,0,.25.45c.36.84,1.74,1.51,4.09,2A27.74,27.74,0,0,0,76,3.81a2.24,2.24,0,0,0-1.12-2.16c-.28-.11-.31-.14-.31-.19s.62-.4,1-.4c1.51,0,3.64,1.85,3.64,3.2,0,.44-.06.58-.73,1.76a24.76,24.76,0,0,0-1.17,2.72,6.16,6.16,0,0,0,.78.08,1.24,1.24,0,0,0,.45-.06,1.81,1.81,0,0,1,1.15,1.63c0,.42-.09.47-1.46.59a5.84,5.84,0,0,0-2,.36,35.12,35.12,0,0,0-1.18,4.79c1.15.08,1.15.08,1.4.08A6.1,6.1,0,0,0,78.06,16c.65.11,1.46.9,1.46,1.43s-.64.87-2.1.87c-.7,0-1.6-.06-2.38-.14a6.81,6.81,0,0,0-.11,1.31c0,2.72,1.57,4.4,4.11,4.4a3.47,3.47,0,0,0,3.67-3.75,9.74,9.74,0,0,0-3.08-6.84c-.17-.14-.22-.22-.22-.3a.18.18,0,0,1,.19-.14,12,12,0,0,1,1.91,1.14c2.55,1.94,3.92,4.23,3.92,6.61a4.44,4.44,0,0,1-1.93,3.84,7.43,7.43,0,0,1-4.18,1.26c-3.66,0-5.76-2.1-5.76-5.8a12.72,12.72,0,0,1,.16-2c-2-.61-3.19-1.76-3.19-3A3.62,3.62,0,0,1,72.44,12a18.41,18.41,0,0,1,2.38-1.34Zm-.22,1.59c-2,1.07-2.77,1.77-2.77,2.64,0,.7.67,1.2,2,1.54C74.4,13.58,74.45,13.16,74.76,11.7Z"/><path class="cls-1" d="M102.28,16.35a23.86,23.86,0,0,1-3.72,4.15c-.9.84-1.18,1.06-1.37,1.06s-.17-.08-.17-.2.08-.25.39-.64a23.16,23.16,0,0,0,4.87-10.22h-1.42c-1,0-1.6,0-3.17.08l-.59-.95,2,.09c.76,0,1.43,0,1.74,0h1.42V5.26c-1.59.28-2,.37-2.66.45s-1.2.2-1.34.23-.39,0-.53,0-.25-.08-.25-.19.08-.23.75-.45a43.49,43.49,0,0,0,9.1-4.29l1.93,2a.76.76,0,0,1,.26.45c0,.14-.2.28-.4.25h0l-1,0a34.34,34.34,0,0,1-3.39.9V9.74h1.85l1.54-2L110,9.52a1,1,0,0,1,.37.62c0,.19-.23.36-.48.36h-5.18v3.22c2.83.62,4.23,1.74,4.23,3.42,0,.84-.45,1.34-1.15,1.34s-1-.34-1.29-1.37a5.47,5.47,0,0,0-1.79-2.77V25.59a.64.64,0,0,1-.53.65,6.1,6.1,0,0,1-1.37.19c-.37,0-.54-.17-.54-.59Zm11.15,7.93c0,.39-.14.53-.81.72a10.38,10.38,0,0,1-1.15.23.51.51,0,0,1-.51-.56V4.73l2.72,1.49h5.49l1.17-1.57L122.44,7a1.49,1.49,0,0,1,.37.79.78.78,0,0,1-.53.64l-.31.11V22.65c0,.37-.09.51-.39.62a9.51,9.51,0,0,1-1.6.28c-.39,0-.56-.23-.56-.67V21h-6Zm6-4V7h-6v13.3Z"/><path class="cls-1" d="M135.1,9.74c-2.35,1.54-4.93,2.89-5.49,2.89a.19.19,0,0,1-.19-.17c0-.14.14-.28.42-.45A35.75,35.75,0,0,0,141.12,0l3.14,1.23a.48.48,0,0,1,.28.39.52.52,0,0,1-.4.48l-.53.17c2.61,2.85,6.58,4.79,12.55,6.05a7,7,0,0,0-2.94,2.6c-4.9-2.18-7.87-4.62-10.22-8.34a50.29,50.29,0,0,1-6.56,6.1l1.43.78h2.69V6l3.11.31a.44.44,0,0,1,.42.42.55.55,0,0,1-.28.48l-.81.36v1.9h3l.9-1.48,2.38,2.24a.73.73,0,0,1,.31.53.53.53,0,0,1-.34.51l-.59.16v5.8c0,.45-.11.56-.53.7a4.77,4.77,0,0,1-1.4.31c-.33,0-.5-.17-.5-.45v-.56h-3.78a10.94,10.94,0,0,0,3.39,3.47,52.2,52.2,0,0,0,5.43-5.29l2.07,1.85c.31.25.42.45.42.61,0,.34-.31.51-.73.48l-.19,0-.82,0c-1.59.82-4.11,2.08-5.6,2.8a21.44,21.44,0,0,0,9.86,2.8,7.87,7.87,0,0,0-3.08,2.72c-6-1.79-9.69-4.82-11.51-9.38h-3.86v5.66c2.18-.17,4.48-.42,5.91-.59a2.49,2.49,0,0,1,.42-.06.26.26,0,0,1,.28.25c0,.14-.12.26-.37.34-1.59.53-2.85.92-6,1.76-1.54.42-1.63.45-3.5,1l-.39.73a.62.62,0,0,1-.54.39c-.19,0-.36-.11-.56-.39l-1.93-2.88c1.91-.09,2.21-.11,3.95-.25ZM146.19,13V10.22h-8.4V13Zm0,3.47V13.75h-8.4v2.71Z"/><path class="cls-1" d="M172.42,10.11a7.07,7.07,0,0,1-2.54-.81,3.44,3.44,0,0,1-1.66-2.69c0-.39.09-.7.23-.7s.08,0,.25.45c.36.84,1.74,1.51,4.09,2a27.74,27.74,0,0,0,.64-4.53,2.24,2.24,0,0,0-1.12-2.16c-.28-.11-.31-.14-.31-.19s.62-.4,1-.4c1.51,0,3.64,1.85,3.64,3.2,0,.44-.06.58-.73,1.76a24.76,24.76,0,0,0-1.17,2.72,6.16,6.16,0,0,0,.78.08,1.24,1.24,0,0,0,.45-.06,1.81,1.81,0,0,1,1.15,1.63c0,.42-.09.47-1.46.59a5.84,5.84,0,0,0-2,.36,35.12,35.12,0,0,0-1.18,4.79c1.15.08,1.15.08,1.4.08A6.1,6.1,0,0,0,175.5,16c.65.11,1.46.9,1.46,1.43s-.64.87-2.1.87c-.7,0-1.6-.06-2.38-.14a6.81,6.81,0,0,0-.11,1.31c0,2.72,1.57,4.4,4.11,4.4a3.47,3.47,0,0,0,3.67-3.75,9.74,9.74,0,0,0-3.08-6.84c-.17-.14-.22-.22-.22-.3a.18.18,0,0,1,.19-.14A12,12,0,0,1,179,13.94c2.55,1.94,3.92,4.23,3.92,6.61a4.44,4.44,0,0,1-1.93,3.84,7.43,7.43,0,0,1-4.18,1.26c-3.66,0-5.76-2.1-5.76-5.8a12.72,12.72,0,0,1,.16-2c-2-.61-3.19-1.76-3.19-3a3.62,3.62,0,0,1,1.91-2.8,18.41,18.41,0,0,1,2.38-1.34Zm-.22,1.59c-2,1.07-2.77,1.77-2.77,2.64,0,.7.67,1.2,2,1.54C171.84,13.58,171.89,13.16,172.2,11.7Z"/><path class="cls-1" d="M201,13.1a6.07,6.07,0,0,1,2.07.9,2.38,2.38,0,0,1,1.29,2,1.3,1.3,0,0,1-1.29,1.46c-.53,0-.73-.26-.87-1.07a5.19,5.19,0,0,0-1.2-2.71V25.48c0,.31-.14.45-.53.62a5.6,5.6,0,0,1-1.49.33c-.33,0-.39-.08-.39-.5V16.35c-1.73,2.83-3.41,4.9-3.95,4.9a.22.22,0,0,1-.22-.25c0-.11,0-.14.36-.67A27.11,27.11,0,0,0,198.6,9.8h-.36c-.87,0-1.57,0-3.28.08l-.47-1c2.21.09,3,.11,3.75.11h.39V4.87a27.83,27.83,0,0,1-3.47.67c-.22,0-.36-.11-.36-.25s0-.19,1.23-.75A28.66,28.66,0,0,0,202.58,1l1.85,1.68a.74.74,0,0,1,.19.48c0,.19-.14.39-.3.39l-.84,0c-1,.31-1.26.39-2.44.73V9h.56l1.23-1.82,1.88,1.88a.48.48,0,0,1,.14.34c0,.19-.11.36-.25.36H201Zm1.37,11.2c2.77.12,3.78.14,4.85.14h3.27v-3.1h-1.76c-1.37,0-2.19,0-4.37.11l-.48-1,2.78.11c.89,0,1.68,0,2.07,0h1.76v-2.8h-3.16v1c0,.42-.81.78-1.77.78-.28,0-.36-.11-.36-.44V9.69l2.24,1.17h3.05V8.37h-1.45c-1.35,0-2.13,0-4.23.11l-.62-1c2.61.11,3.64.14,4.85.14h1.45V4.9c-2.88.48-5.51.84-6.24.84-.25,0-.37-.08-.37-.28s.17-.28,1.29-.53a51.66,51.66,0,0,0,10.84-4l2,1.7a.78.78,0,0,1,.28.51.42.42,0,0,1-.39.39h-1.12c-1.54.39-2.41.59-4,.92v3.2h3.56l1.6-2,2.43,2a.45.45,0,0,1,.2.37c0,.19-.09.33-.2.33h-7.59v2.49H216l.9-1.37,2,2.19a.8.8,0,0,1,.22.5.54.54,0,0,1-.36.48l-.31.11v4.87c0,.45-.11.59-.59.73a4.09,4.09,0,0,1-1.23.25c-.31,0-.45-.11-.45-.39v-.45h-3.28v2.8h3.17l1.48-1.85,2.33,1.93A.51.51,0,0,1,220,21c0,.2-.11.34-.22.34h-6.92v3.1h3.62l1.73-2,2.58,2.13a.53.53,0,0,1,.14.36c0,.14-.11.31-.2.31H207.26c-1.4,0-1.82.06-4.23.11Zm8.12-10.38v-2.3h-3.16v2.3Zm0,3.1V14.67h-3.16V17Zm5.63-3.1v-2.3h-3.28v2.3Zm0,3.1V14.67h-3.28V17Z"/><path class="cls-1" d="M233,11c-2.18,2.19-5.07,4.37-5.74,4.37-.11,0-.2,0-.2-.17s0-.14,1-1.09a18.85,18.85,0,0,0,4.12-5.71h-1.46c-.61,0-.73,0-3.13.08l-.59-1,2.1.09c.67,0,1.29,0,1.62,0H233V.81l2.69.2c.47.05.73.25.73.61a.72.72,0,0,1-.37.62l-.64.39v5H237l1.71-2,1.88,1.74a.77.77,0,0,1,.25.5c0,.31-.23.48-.59.48h-4.87v.92a12.63,12.63,0,0,1,2.85.82,2.7,2.7,0,0,1,1.71,2.26,1.17,1.17,0,0,1-1.15,1.29c-.5,0-.72-.22-1.4-1.29-1-1.51-1.23-1.82-2-2.32v3.64a.5.5,0,0,1-.39.56,3.84,3.84,0,0,1-1.32.22c-.53,0-.7-.14-.7-.58Zm-6,6.81c1.06,0,2.07.05,3.72.11h2a20.09,20.09,0,0,0,.14-2.24v-.81l2.77.39c.36.06.59.25.59.53a.58.58,0,0,1-.31.48l-.59.39c-.08.62-.11.7-.19,1.26h1.73l1.71-2,2.13,2a.65.65,0,0,1,.19.42c0,.2-.16.34-.44.34H235c-.12.56-.14.64-.28,1.2,2.94.42,4.9,1.82,4.9,3.5a1.29,1.29,0,0,1-1.26,1.37c-.56,0-.84-.22-1.18-1a7.84,7.84,0,0,0-2.6-3.3,7.93,7.93,0,0,1-3.39,4.39,12.66,12.66,0,0,1-3.59,1.63c-.16,0-.25-.06-.25-.2s.11-.22.37-.39a9.31,9.31,0,0,0,4.92-7.22h-1.93c-.67,0-.75,0-3.16.08Zm2.91-15.18a3.51,3.51,0,0,1,2.24,2.91A1.28,1.28,0,0,1,230.92,7a1.4,1.4,0,0,1-.87-.36c-.28-.25-.28-.25-.59-1.63a5.37,5.37,0,0,0-1.26-2.49c-.2-.19-.25-.31-.25-.39S228,2,228.09,2A6.26,6.26,0,0,1,229.88,2.63Zm9.55,1.57-1.77,1.57c-1.2,1.12-1.62,1.43-1.84,1.43a.18.18,0,0,1-.2-.2,1.43,1.43,0,0,1,.14-.39,21.14,21.14,0,0,0,2.1-5.18l2.24,1.62a.41.41,0,0,1,.22.37.51.51,0,0,1-.3.47Zm6.75,18.37a.48.48,0,0,1,.22.42.44.44,0,0,1-.42.42l-.78.11a29.53,29.53,0,0,1-4,2,16.49,16.49,0,0,1-3.13.95c-.14,0-.23-.06-.23-.17s.12-.22.37-.39a19.74,19.74,0,0,0,5.93-5.07ZM240.49,2.66c2,.08,2.77.11,3.75.11h4.43l2-2.27,2.4,2.22a.74.74,0,0,1,.17.42.34.34,0,0,1-.36.36h-4.76a38.58,38.58,0,0,1-2.3,3.42H249l1-1.6,2.4,2.35a.88.88,0,0,1,.23.53.66.66,0,0,1-.34.51L251.8,9V20.72c0,.48-.72.76-2,.76-.34,0-.5-.17-.5-.56v-.54h-5.55V21c0,.37-.19.51-1,.73a4.69,4.69,0,0,1-.92.14.52.52,0,0,1-.59-.59V5.71l2.63,1.21h.37c.33-1.91.42-2.33.53-3.42h-.51c-1.14,0-1.76,0-3.33.08Zm8.77,8.51V7.67h-5.55v3.5Zm0,4.26v-3.5h-5.55v3.5Zm0,4.2V16.18h-5.55v3.45ZM250,22c2.21.87,3.08,1.71,3.08,3a1.37,1.37,0,0,1-1.34,1.51,1.07,1.07,0,0,1-.9-.48,8.32,8.32,0,0,1-.95-1.31,10.22,10.22,0,0,0-3.19-3c-.2-.14-.28-.22-.28-.31s.11-.17.3-.17A12.52,12.52,0,0,1,250,22Z"/><path class="cls-1" d="M259.9,23.8c2.94.14,4.11.17,5.51.17h3.5a2.84,2.84,0,0,1-.11-.37,5.24,5.24,0,0,1-.14-.92,4,4,0,0,0-1.12-2.41H267v.9c0,.45-.17.59-.87.75a4.4,4.4,0,0,1-1,.2c-.28,0-.39-.14-.39-.48V14.42l2.55,1.26H278.1l1-1.4,2.1,2.1a.8.8,0,0,1,.3.59.64.64,0,0,1-.44.61l-.31.14v2.83c0,.42-.17.62-.65.76a3.51,3.51,0,0,1-1.06.17c-.56,0-.73-.12-.73-.54v-.67h-.19c-1.07,1.4-2.05,2.63-3,3.7h5.65l2.05-2.35,2.38,2.1a.76.76,0,0,1,.36.58.45.45,0,0,1-.47.42H265.41c-1.29,0-2.24,0-4.65.14ZM260,13.13c2.72.14,3.28.17,5.52.17h15.71l1.68-2.07L285,13a.79.79,0,0,1,.37.59c0,.33-.17.45-.7.45H265.47c-1.74,0-2.52,0-4.87.14Zm5.91-1.26c0,.62-.48.81-1.82.81-.45,0-.53-.08-.53-.44V2.49l2.88,1.63h2.44V.76l2.69.28a.55.55,0,0,1,.53.53.64.64,0,0,1-.37.56l-.64.36V4.12H274V.76l2.69.28a.56.56,0,0,1,.56.58.63.63,0,0,1-.45.62l-.53.2V4.12h2.83l1-1.54,2.16,2.32a1,1,0,0,1,.36.7c0,.28-.16.48-.56.64l-.36.17v4.9a.72.72,0,0,1-.59.79,7.12,7.12,0,0,1-1.34.22c-.31,0-.42-.11-.42-.36v-.73H265.86Zm3-4.73V4.87h-3V7.14Zm-3,3.33h3V7.9h-3Zm12.43,9V16.44H267v3.08Zm-9.18.75c1.54,1,2,1.65,2,2.72a1.13,1.13,0,0,1-.42,1h3.45a36.94,36.94,0,0,0,.92-3.7ZM274,7.14V4.87H271V7.14ZM271,10.47H274V7.9H271Zm8.29-3.33V4.87h-3.11V7.14Zm-3.11,3.33h3.11V7.9h-3.11Z"/><path class="cls-1" d="M296.72,4.87c0,.45,0,.93,0,1.21,0,1.87-1,3.16-2.49,3.16-.84,0-1.43-.48-1.43-1.18s.14-.81,1.57-2.12a4.57,4.57,0,0,0,1.37-3c0-.23.06-.34.2-.34s.47.56.61,1.49h7.2V.5l3,.26c.36.05.53.16.53.44a.53.53,0,0,1-.31.45l-.78.48v2h8l1.12-1.54,2.52,2.77a1.3,1.3,0,0,1,.34.64.69.69,0,0,1-.53.59h-.14L316,6.5c-.28.22-.51.36-.59.42-.34.25-.65.47-.95.72-1.38.87-1.38.87-1.46.87s-.14,0-.14-.11,0-.11.17-.36a14.45,14.45,0,0,0,1.29-3.17Zm1.59,20.75c0,.25-.11.36-.42.48a4.86,4.86,0,0,1-1.51.28c-.39,0-.56-.12-.56-.42V15.34l2.88,1.38h12.88l1-1.43,2.15,2c.34.31.42.45.42.67a.53.53,0,0,1-.36.5l-.48.2V25c0,.37-.22.54-.84.7a5.17,5.17,0,0,1-1.31.23c-.31,0-.4-.09-.4-.45V24.42H298.31Zm-1-18.06c2.66.11,3.67.14,4.85.14H309l1.63-1.79,1.93,1.71a.57.57,0,0,1,.22.44.36.36,0,0,1-.39.4H302.18c-1.66,0-2.22,0-4.32.11Zm6.27,12.6V17.47h-5.29v2.69Zm0,3.5V20.92h-5.29v2.74Zm-2.49-8.2c0,.33-.73.61-1.68.61-.33,0-.47-.11-.47-.36V9.27l2.43,1.17h7.51l.92-1.23,1.93,1.88c.25.22.31.31.31.5a.49.49,0,0,1-.31.48l-.36.22v2.8c0,.34-.14.48-.59.59a5.42,5.42,0,0,1-1.23.22c-.28,0-.39-.08-.39-.33v-.9h-8.07Zm0-1.54h8.07V11.2h-8.07Zm10.61,6.24V17.47h-5.65v2.69Zm0,3.5V20.92h-5.65v2.74Z"/><path class="cls-1" d="M331.16,9a3.15,3.15,0,0,1-2.72-1.2,4.28,4.28,0,0,1-.67-1.9.19.19,0,0,1,.19-.2c.09,0,.14,0,.23.22a2.81,2.81,0,0,0,2.6,1.24,10.34,10.34,0,0,0,3.08-.56,9.34,9.34,0,0,0,.56-2.92A1.68,1.68,0,0,0,332.78,2c-.17,0-.22,0-.22-.11,0-.34,1.06-.73,1.9-.73a2.47,2.47,0,0,1,2.32,1.23c-.08.65-.14.9-.22,1.4a3.69,3.69,0,0,0,2.46.62c.73,0,.87.14.87.81,0,.9-.5,1.51-1.76,2.18a11.06,11.06,0,0,1-2.61,1,73.49,73.49,0,0,1-3.89,8.71,13.38,13.38,0,0,1-1.43,2.44,2.26,2.26,0,0,1-1.68.75,1.59,1.59,0,0,1-1.59-1.48c0-.37.25-.73.89-1.32a21,21,0,0,0,5.49-8.62A14.51,14.51,0,0,1,331.16,9Zm10-.25a.49.49,0,0,1-.19,0,.18.18,0,0,1-.17-.17c0-.42,2.07-1.06,3.39-1.06,2.38,0,4.28,1.48,4.28,3.33a1.2,1.2,0,0,1-1,1.34,6.68,6.68,0,0,0-2.94-.81c-1.54,0-2.38,1.12-2.38,3.17a37.7,37.7,0,0,0,.51,4.53c3.3,1,5.49,2.55,5.49,3.92a1.31,1.31,0,0,1-1.18,1.35c-.45,0-.84-.23-1.46-.84a11.07,11.07,0,0,0-2.85-2.19,4.8,4.8,0,0,1-.56,2.55,3.94,3.94,0,0,1-3.64,1.65c-2.83,0-5-1.57-5-3.64a3.2,3.2,0,0,1,1.68-2.63,8,8,0,0,1,3.7-.73,11.76,11.76,0,0,1,1.37.06c0-3,.11-4.23.45-5.1a5.3,5.3,0,0,1,3.56-3c.61-.16.72-.22.72-.47,0-.7-1.4-1.35-2.91-1.35Zm-1,11.68a7.32,7.32,0,0,0-2.57-.48c-1.51,0-2.55.7-2.55,1.77s1.09,1.7,2.74,1.7a2.13,2.13,0,0,0,2.38-2.18ZM335.86,6.22c1.09-.48,1.65-.87,1.65-1.18,0-.11-.11-.22-1.09-.84C336.22,5,336.17,5.15,335.86,6.22Z"/><path class="cls-1" d="M356.5,5.46c1.9.08,2.6.11,3.75.11h2.85V.64L366,1a.53.53,0,0,1,.45.56.53.53,0,0,1-.25.45l-.76.36V5.57h2.3l1.54-1.9,2.1,1.9a.49.49,0,0,1,.16.34c0,.22-.14.42-.28.42H365.4V9.1h2l.76-1.34,1.93,2a1,1,0,0,1,.28.59.42.42,0,0,1-.23.37l-.39.25v6.3c0,.22-.17.36-.56.53a5.39,5.39,0,0,1-1.37.28c-.28,0-.42-.08-.42-.25v-.93h-2v3.06H368l1.59-2,2.33,1.93c.44-1.43.64-4.14.64-8.76,0-1.43-.08-5.46-.2-9.21L375,3.08h4l1-1.51,2.18,2.35a.82.82,0,0,1,.23.53.57.57,0,0,1-.28.48l-.56.28v18.2c0,1.26-.2,1.62-1.07,2.18a4.1,4.1,0,0,1-1.87.56c-.42,0-.45,0-.65-1.2,0-.17,0-.28-.05-.28s-.14-.11-1.07-.39L375.7,24l-.56-.2a2.17,2.17,0,0,1-.42-.11c-.19-.06-.28-.11-.28-.22s0-.17,1-.17h.67c2.8,0,3.11-.09,3.14-.93v-5.9h-4.71c-.16,2.82-.42,3.83-1.23,5.15a11.73,11.73,0,0,1-4.7,4.09,5.86,5.86,0,0,1-1.74.75.22.22,0,0,1-.22-.25c0-.11.08-.2.28-.34a10.67,10.67,0,0,0,4.65-5.15H365.4v4.82c0,.45-.7.78-1.71.78-.42,0-.59-.11-.59-.42V20.69h-2.57c-1.15,0-1.6,0-3.14.09l-.61-1c2,.09,2.74.12,3.75.12h2.57V16.88h-1.84v1.18c0,.39-.76.7-1.8.7-.36,0-.5-.11-.5-.39V7.87L361.4,9.1h1.7V6.33h-2.85c-1.26,0-1.63,0-3.11.08Zm10.86,7.08V9.86h-6.1v2.68Zm0,3.59V13.3h-6.1v2.83Zm7.39-4.71c0,1.46,0,2.44-.05,2.78s0,.81-.06,1.48h4.65V10.19h-4.54Zm0-2h4.54V3.84h-4.54Z"/><path class="cls-1" d="M394.94,9.74c-2.35,1.54-4.93,2.89-5.49,2.89a.19.19,0,0,1-.19-.17c0-.14.14-.28.42-.45A35.75,35.75,0,0,0,401,0l3.14,1.23a.48.48,0,0,1,.28.39.52.52,0,0,1-.4.48l-.53.17C406.06,5.12,410,7.06,416,8.32a7,7,0,0,0-2.94,2.6c-4.9-2.18-7.87-4.62-10.22-8.34a50.29,50.29,0,0,1-6.56,6.1l1.43.78h2.69V6l3.11.31a.44.44,0,0,1,.42.42.55.55,0,0,1-.28.48l-.81.36v1.9h3L406.7,8l2.38,2.24a.73.73,0,0,1,.31.53.53.53,0,0,1-.34.51l-.59.16v5.8c0,.45-.11.56-.53.7a4.77,4.77,0,0,1-1.4.31c-.33,0-.5-.17-.5-.45v-.56h-3.78a10.94,10.94,0,0,0,3.39,3.47,52.2,52.2,0,0,0,5.43-5.29l2.07,1.85c.31.25.42.45.42.61,0,.34-.31.51-.73.48l-.19,0-.82,0c-1.59.82-4.11,2.08-5.6,2.8a21.44,21.44,0,0,0,9.86,2.8A7.87,7.87,0,0,0,413,26.6c-6-1.79-9.69-4.82-11.51-9.38h-3.86v5.66c2.18-.17,4.48-.42,5.91-.59a2.49,2.49,0,0,1,.42-.06.26.26,0,0,1,.28.25c0,.14-.12.26-.37.34-1.59.53-2.85.92-6,1.76-1.54.42-1.63.45-3.5,1l-.39.73a.62.62,0,0,1-.54.39c-.19,0-.36-.11-.56-.39L391,23.41c1.91-.09,2.21-.11,3.95-.25ZM406,13V10.22h-8.4V13Zm0,3.47V13.75h-8.4v2.71Z"/><path class="cls-1" d="M428.65,12.07c0-1.51.06-2.58.06-3.17,0-2.6-.25-3.19-1.63-3.72-.08,0-.14-.08-.14-.14,0-.22,1.07-.59,1.77-.59a4.59,4.59,0,0,1,2.07.76c.64.42.87.75.87,1.26a4.33,4.33,0,0,1-.14,1,47.71,47.71,0,0,0-.51,6.13,33.59,33.59,0,0,0,5.58-3.33,2.65,2.65,0,0,0,1.17-1.82,1,1,0,0,0-.22-.64c-.11-.17-.14-.23-.14-.28s.14-.2.39-.2a5.32,5.32,0,0,1,1.68.36,9.64,9.64,0,0,1,1.74,1.49,1.27,1.27,0,0,1,.36.75c0,.4-.36.65-2.18,1.43a45.94,45.94,0,0,1-8.4,3c-.09,1.52-.09,1.74-.09,2.3,0,3.22.67,4,3.59,4A11.14,11.14,0,0,0,440,19.52c1.57.11,3,.89,3,1.62,0,.53-.42.95-1.26,1.2a23.35,23.35,0,0,1-5.74.62c-3.61,0-5.15-.48-6.27-2-.81-1.12-1-2.27-1-5.65Zm14.79-6.44a1.16,1.16,0,0,1-1.24,1.06c-.42,0-.56-.14-.95-.84A4.3,4.3,0,0,0,438.82,4a.24.24,0,0,1-.2-.2c0-.22.42-.34,1.18-.34C441.7,3.44,443.44,4.48,443.44,5.63Zm3.38-2.1a1.22,1.22,0,0,1-1.23,1.09c-.42,0-.56-.11-1-.87a4.1,4.1,0,0,0-2.43-1.82.29.29,0,0,1-.2-.19c0-.2.53-.37,1.21-.37C445,1.37,446.82,2.44,446.82,3.53Z"/><path class="cls-1" d="M468.8,13.33c0-.39-.19-.65-.47-.65a10.55,10.55,0,0,0-3.19,1,6.29,6.29,0,0,1-2,.65,1.6,1.6,0,0,1-1-.37,1.83,1.83,0,0,1-.9-1.73c0-.45.12-.65.34-.65s.11,0,.31.34a1.5,1.5,0,0,0,1.23.53,26.77,26.77,0,0,0,4.45-.81,7.37,7.37,0,0,0,1.65-.7c.31-.2.4-.22.51-.22s.19,0,1.43.89c.86.62,1,.79,1,1s-.11.33-.7.84c-.67,2.24-.92,3.3-1.43,5.6.73-.09,1.4-.14,1.63-.17a10.13,10.13,0,0,0,3.13-.64,1.34,1.34,0,0,1,.4-.09,3.58,3.58,0,0,1,2.26,2.13c0,.34-.36.62-.84.62a5.41,5.41,0,0,1-.81-.14,29.21,29.21,0,0,0-5.12-.45,46.38,46.38,0,0,0-6.89.67,8,8,0,0,0-1.9.59,3.83,3.83,0,0,1-1.54.47,3.77,3.77,0,0,1-1.77-.75c-.56-.45-.75-.67-.75-1s.16-.84.33-.84.06,0,.14.14a2.68,2.68,0,0,0,1.82.47c.28,0,.28,0,2.35-.22s3.53-.42,3.73-.42l1.82-.2A50.48,50.48,0,0,0,468.8,13.33Z"/><path class="cls-1" d="M496.8,15.18a1.43,1.43,0,0,1-1.28,1.56.76.76,0,0,1-.76-.61,7.43,7.43,0,0,0-2.55-3.78c-.25-.17-.31-.23-.31-.34s.09-.17.37-.17C494.7,11.84,496.8,13.41,496.8,15.18Zm2.05,8a16.86,16.86,0,0,1-5.77,2.24.27.27,0,0,1-.28-.23c0-.14,0-.14.7-.42a22.33,22.33,0,0,0,7.7-6c2.21-2.66,3.72-5.94,3.72-8.15a1.84,1.84,0,0,0-.36-1.2c-.28-.25-.28-.25-.28-.31s.2-.28.45-.28a2.84,2.84,0,0,1,2,.92,4.6,4.6,0,0,1,1.38,1.94c0,.19-.06.25-.54.75A22.94,22.94,0,0,1,498.85,23.13Zm2.57-9.8a1.49,1.49,0,0,1-1.4,1.54c-.47,0-.7-.28-.89-1a6.23,6.23,0,0,0-2.63-4c-.14-.06-.2-.14-.2-.23s.14-.17.31-.17C498.93,9.46,501.42,11.48,501.42,13.33Z"/><path class="cls-1" d="M530.8,21.17c-2.27,1.31-5.86,2.63-7.2,2.63-.17,0-.28-.08-.28-.2s.08-.16.25-.22a20,20,0,0,0,9.13-6.3,17.66,17.66,0,0,0,3.89-6.64,8.13,8.13,0,0,0,.53-2.12c0-.45-.25-.62-.89-.62a35.35,35.35,0,0,0-5.52,1,11.93,11.93,0,0,0-3.36,1.18,1.11,1.11,0,0,1-.45.17,3.75,3.75,0,0,1-1.7-.82,2.62,2.62,0,0,1-1-2.24c0-.22.09-.39.23-.39s.11.06.22.2a2.58,2.58,0,0,0,2.13.81A66.19,66.19,0,0,0,534,6.69a8.1,8.1,0,0,0,3.33-1.12c.56-.33.7-.39.95-.39s.79.25,2.38,1.37c.59.39,1,.79,1,1s-.25.48-1.29,1.18C537.71,15.12,535,18.73,530.8,21.17Z"/><path class="cls-1" d="M563.61,20.08a32.28,32.28,0,0,0,.14-3.62c0-3-.08-3.33-.78-3.33a11.7,11.7,0,0,0-1.93.31,4.4,4.4,0,0,0-1.32.42,1.4,1.4,0,0,1-.25.06c-.84,0-1.74-1.12-1.74-2.16,0-.28.06-.39.2-.39s.05,0,.28.28a2.49,2.49,0,0,0,1.54.42,38.61,38.61,0,0,0,3.89-.34,13.74,13.74,0,0,0,4.54-1,2,2,0,0,1,.75-.25,3.63,3.63,0,0,1,1.71.81c.45.34.67.65.67,1a.65.65,0,0,1-.67.61h-.28l-.34,0c-1.45-.05-1.45-.05-1.84-.05-.9,0-1.71,0-2.72.11.64.39,1,.76,1,.95a.81.81,0,0,1-.12.37c-.36,1.17-.5,2.35-.58,5.68,4.7-.48,5-.53,6.18-.92a.77.77,0,0,1,.26,0c1,0,2.8,1.34,2.8,2.1a.83.83,0,0,1-.82.75,6.66,6.66,0,0,1-1.17-.19,24.5,24.5,0,0,0-5.07-.51,27,27,0,0,0-9.44,1.29,2.94,2.94,0,0,1-1.06.23c-.45,0-.45,0-1.74-.84-.64-.4-.86-.7-.86-1.1s.11-.78.28-.78.11,0,.16.14c.23.31.9.48,1.88.48.56,0,.56,0,3.5-.17l2.16-.2Z"/></g></g></svg>