<svg xmlns="http://www.w3.org/2000/svg" viewBox="0 0 405.22 102.3"><defs><style>.cls-1{fill:#343434;}</style></defs><title>point-title</title><g id="Layer_2" data-name="Layer 2"><g id="Layer_1-2" data-name="Layer 1"><path class="cls-1" d="M0,8.78C3.06,8.91,4.18,9,6,9h4.59V1l4.59.54a.85.85,0,0,1,.72.9.86.86,0,0,1-.41.72l-1.21.58V9H18L20.47,5.9,23.85,9a.76.76,0,0,1,.27.54c0,.36-.23.67-.45.67H14.31v4.45h3.15l1.21-2.16,3.11,3.2a1.62,1.62,0,0,1,.45.94.66.66,0,0,1-.36.59l-.63.4V27.72c0,.36-.27.58-.9.85a8.51,8.51,0,0,1-2.21.45c-.45,0-.67-.13-.67-.4V27.13H14.31V32h4.14L21,28.8l3.74,3.1c.72-2.29,1-6.66,1-14.08,0-2.3-.13-8.78-.31-14.8L29.65,5h6.44l1.62-2.43L41.22,6.3a1.34,1.34,0,0,1,.36.86.93.93,0,0,1-.45.76l-.9.45V37.62c0,2-.32,2.61-1.71,3.51a6.77,6.77,0,0,1-3,.9c-.67,0-.72-.05-1-1.94,0-.27,0-.45-.09-.45s-.23-.18-1.71-.63c-.81-.22-1.76-.49-1.8-.49L30,38.2a3.42,3.42,0,0,1-.68-.18c-.31-.09-.45-.18-.45-.36s.05-.27,1.67-.27h1.08c4.5,0,5-.13,5-1.48v-9.5H29.07c-.27,4.55-.68,6.17-2,8.28a18.75,18.75,0,0,1-7.56,6.57,9.5,9.5,0,0,1-2.79,1.22.37.37,0,0,1-.36-.41c0-.18.13-.31.45-.54,3.91-2.52,6.16-5,7.47-8.28h-10V41c0,.72-1.13,1.26-2.75,1.26-.67,0-.94-.18-.94-.67V33.25H6.48c-1.85,0-2.57,0-5,.14l-1-1.53c3.15.13,4.41.18,6,.18h4.14V27.13h-3V29c0,.63-1.22,1.13-2.88,1.13-.59,0-.81-.18-.81-.63V12.64l3.91,2h2.75V10.17H6c-2,0-2.61,0-5,.13ZM17.46,20.16V15.84H7.65v4.32Zm0,5.76V21.38H7.65v4.54Zm11.88-7.56c-.05,2.34-.05,3.91-.09,4.45,0,.32-.05,1.31-.09,2.39h7.47V16.38H29.34Zm0-3.19h7.29v-9H29.34Z"/><path class="cls-1" d="M61.78,15.66C58,18.13,53.86,20.29,53,20.29a.3.3,0,0,1-.31-.27c0-.22.23-.45.68-.72A57.46,57.46,0,0,0,71.46,0l5,2a.73.73,0,0,1,.45.63.85.85,0,0,1-.63.77l-.86.27C79.65,8.24,86,11.34,95.62,13.37c-2.7,1.57-3.46,2.29-4.72,4.18C83,14,78.25,10.12,74.47,4.14A78.63,78.63,0,0,1,63.94,14l2.3,1.26h4.32V9.63l5,.49a.7.7,0,0,1,.68.68.88.88,0,0,1-.45.77l-1.31.58v3.06h4.77l1.44-2.38,3.83,3.59a1.16,1.16,0,0,1,.49.86.84.84,0,0,1-.54.81l-.94.27v9.31c0,.72-.18.9-.86,1.13a8,8,0,0,1-2.25.49c-.54,0-.81-.27-.81-.72v-.9H73.53A17.6,17.6,0,0,0,79,33.25a83.14,83.14,0,0,0,8.73-8.5l3.33,3c.5.4.68.72.68,1,0,.54-.5.81-1.17.76l-.32,0-1.3-.05c-2.57,1.31-6.62,3.33-9,4.5,4.09,2.52,9.09,4,15.84,4.5a12.61,12.61,0,0,0-5,4.37C81.18,39.87,75.24,35,72.31,27.67H66.1v9.09c3.51-.27,7.2-.67,9.5-.94a4,4,0,0,1,.67-.09.41.41,0,0,1,.45.4c0,.23-.18.41-.58.54-2.57.86-4.59,1.49-9.59,2.84-2.47.67-2.61.72-5.62,1.57l-.63,1.17a1,1,0,0,1-.86.63c-.31,0-.58-.18-.9-.63l-3.1-4.63c3.06-.14,3.55-.18,6.34-.41ZM79.6,20.88V16.42H66.1v4.46Zm0,5.58V22.09H66.1v4.37Z"/><path class="cls-1" d="M116,19.39c.05-2.43.09-4.14.09-5.08,0-4.19-.4-5.13-2.61-6-.13-.05-.22-.14-.22-.23,0-.36,1.71-.94,2.83-.94a7.35,7.35,0,0,1,3.33,1.21c1,.67,1.4,1.21,1.4,2a6.77,6.77,0,0,1-.23,1.53,76.56,76.56,0,0,0-.81,9.86,53.11,53.11,0,0,0,9-5.36,4.22,4.22,0,0,0,1.89-2.92,1.56,1.56,0,0,0-.36-1c-.18-.26-.23-.36-.23-.45s.23-.31.63-.31a7.94,7.94,0,0,1,2.7.59,13.93,13.93,0,0,1,2.79,2.38,2,2,0,0,1,.59,1.21c0,.63-.59,1-3.51,2.3a74.3,74.3,0,0,1-13.5,4.9c-.14,2.43-.14,2.79-.14,3.69,0,5.18,1.08,6.39,5.76,6.39a17.87,17.87,0,0,0,8.82-1.8c2.52.18,4.77,1.44,4.77,2.61,0,.86-.67,1.53-2,1.94a38.43,38.43,0,0,1-9.23,1c-5.8,0-8.28-.77-10.08-3.2-1.3-1.8-1.66-3.64-1.66-9.09ZM139.72,9a1.86,1.86,0,0,1-2,1.71c-.67,0-.9-.22-1.53-1.34a6.91,6.91,0,0,0-3.91-3c-.18,0-.32-.18-.32-.31,0-.37.68-.54,1.89-.54C136.93,5.54,139.72,7.2,139.72,9Zm5.45-3.37a2,2,0,0,1-2,1.75c-.68,0-.9-.17-1.62-1.39a6.6,6.6,0,0,0-3.92-2.92.44.44,0,0,1-.31-.32c0-.31.85-.58,1.93-.58C142.29,2.21,145.17,3.92,145.17,5.67Z"/><path class="cls-1" d="M180.49,21.42c0-.63-.31-1-.76-1A16.71,16.71,0,0,0,174.6,22c-2,.81-2.66,1-3.24,1a2.66,2.66,0,0,1-1.58-.58,3,3,0,0,1-1.44-2.79c0-.72.18-1,.54-1,.18,0,.18,0,.5.54a2.41,2.41,0,0,0,2,.86,42.72,42.72,0,0,0,7.15-1.31,12.31,12.31,0,0,0,2.66-1.12c.49-.32.63-.36.81-.36s.31,0,2.29,1.44c1.4,1,1.67,1.26,1.67,1.66s-.18.54-1.13,1.35c-1.08,3.6-1.48,5.31-2.29,9,1.17-.13,2.25-.22,2.61-.27a16.49,16.49,0,0,0,5-1,2.27,2.27,0,0,1,.63-.14c1.12,0,3.64,2.39,3.64,3.42,0,.54-.58,1-1.35,1a8.13,8.13,0,0,1-1.3-.22,48.19,48.19,0,0,0-8.24-.72,73.08,73.08,0,0,0-11.07,1.08,13.17,13.17,0,0,0-3.06.94,4.1,4.1,0,0,1-5.31-.45c-.9-.72-1.21-1.08-1.21-1.57,0-.72.27-1.35.54-1.35.09,0,.09,0,.22.22.23.41,1.53.77,2.93.77a37.86,37.86,0,0,0,3.78-.36c3.1-.36,5.67-.68,6-.68,1-.09,1.94-.22,2.93-.31A83,83,0,0,0,180.49,21.42Z"/><path class="cls-1" d="M225.49,24.39a2.31,2.31,0,0,1-2.07,2.52,1.23,1.23,0,0,1-1.21-1,12,12,0,0,0-4.1-6.08c-.4-.27-.49-.36-.49-.54s.13-.27.58-.27C222.12,19,225.49,21.55,225.49,24.39Zm3.29,12.78c-2.75,1.71-7.56,3.6-9.27,3.6a.44.44,0,0,1-.45-.36c0-.23,0-.23,1.12-.68a36,36,0,0,0,12.38-9.58c3.55-4.28,6-9.54,6-13.1a3,3,0,0,0-.58-1.93c-.45-.41-.45-.41-.45-.5,0-.27.31-.45.72-.45a4.56,4.56,0,0,1,3.24,1.49c1.17,1.08,2.2,2.56,2.2,3.1,0,.32-.09.41-.85,1.22A36.9,36.9,0,0,1,228.78,37.17Zm4.14-15.75a2.4,2.4,0,0,1-2.25,2.47c-.77,0-1.13-.45-1.44-1.66-.72-2.93-2.48-5.54-4.23-6.39-.23-.09-.32-.22-.32-.36s.23-.27.5-.27C228.91,15.21,232.92,18.45,232.92,21.42Z"/><path class="cls-1" d="M280.12,34c-3.64,2.11-9.4,4.23-11.56,4.23-.27,0-.45-.14-.45-.32s.13-.27.4-.36a32.13,32.13,0,0,0,14.67-10.12,28.49,28.49,0,0,0,6.26-10.66,13.82,13.82,0,0,0,.85-3.42c0-.73-.4-1-1.44-1A55.84,55.84,0,0,0,280,13.91a19,19,0,0,0-5.4,1.88,1.85,1.85,0,0,1-.72.27,6,6,0,0,1-2.75-1.3,4.25,4.25,0,0,1-1.53-3.6c0-.36.14-.63.36-.63s.18.09.36.31a4.09,4.09,0,0,0,3.42,1.31,105.5,105.5,0,0,0,11.52-1.4A13,13,0,0,0,290.61,9c.9-.54,1.12-.63,1.53-.63s1.26.4,3.82,2.2c1,.63,1.58,1.26,1.58,1.53s-.41.77-2.07,1.89C291.24,24.3,286.83,30.1,280.12,34Z"/><path class="cls-1" d="M332.86,32.26a50.48,50.48,0,0,0,.23-5.8c0-4.82-.14-5.36-1.26-5.36a19.22,19.22,0,0,0-3.11.5,7.33,7.33,0,0,0-2.11.67,1.93,1.93,0,0,1-.41.09c-1.35,0-2.79-1.8-2.79-3.46,0-.45.09-.63.32-.63s.09,0,.45.45a4,4,0,0,0,2.47.67,62.59,62.59,0,0,0,6.26-.54,22.39,22.39,0,0,0,7.29-1.62,3.23,3.23,0,0,1,1.21-.4,5.74,5.74,0,0,1,2.75,1.3c.72.54,1.08,1,1.08,1.54a1,1,0,0,1-1.08,1h-.45l-.54,0c-2.34-.09-2.34-.09-3-.09-1.44,0-2.75,0-4.37.18,1,.63,1.67,1.21,1.67,1.53a1.44,1.44,0,0,1-.18.58c-.59,1.89-.81,3.78-.95,9.14,7.56-.77,8-.86,9.95-1.49a1.36,1.36,0,0,1,.4,0c1.67,0,4.5,2.16,4.5,3.37a1.33,1.33,0,0,1-1.3,1.22,10.78,10.78,0,0,1-1.89-.32,39.37,39.37,0,0,0-8.15-.81c-6.7,0-11.2.63-15.16,2.07a4.83,4.83,0,0,1-1.71.36c-.72,0-.72,0-2.79-1.35-1-.63-1.4-1.12-1.4-1.75S319,32,319.27,32c.09,0,.18,0,.27.22.36.5,1.44.77,3,.77.9,0,.9,0,5.62-.27l3.47-.32Z"/><path class="cls-1" d="M388.62,5.08c1.89.63,1.89.63,1.89,1.22,0,1.21-1.08,1.85-5.54,3.15-2.07,4.09-2.79,5.44-4.63,8.55a6.34,6.34,0,0,1,2.38-.54A4.91,4.91,0,0,1,386,18.63c.77.67,1.13,1.58,1.4,3.51C390.19,15.25,394,11.88,399,11.88c3.6,0,6.21,2.07,6.21,4.95,0,1.71-1.21,2.84-4.27,3.91-6.89,2.43-9.05,3.29-12.51,5.09.09,2.61.13,3.33.13,4.14,0,2-.85,2.88-2.79,2.88-.58,0-1.08-.36-1.08-.77a1.81,1.81,0,0,1,.05-.49,9.67,9.67,0,0,0,.09-1.44l0-1.8v-.86a15.46,15.46,0,0,0-3.1,2.48,5.29,5.29,0,0,0-1.53,3.37c0,2,2,2.88,6.3,2.88a26.91,26.91,0,0,0,7-1,4.91,4.91,0,0,1,1.35-.31,2.63,2.63,0,0,1,1.94.81,4,4,0,0,1,.94,2c0,1-.94,1.76-2.79,2.21a36.16,36.16,0,0,1-6.84.63,15.68,15.68,0,0,1-7.6-1.49,5.77,5.77,0,0,1-3.2-4.86c0-1.89,1.08-3.69,3.33-5.49a38.82,38.82,0,0,1,4.14-2.7v-.9l0-1.93c-.05-3-.81-4.46-2.3-4.46a5.12,5.12,0,0,0-3.28,2c-.5.64-2.84,4.14-3.78,5.72-.63,1-1.17,1.53-1.8,1.53-1,0-2.29-2.07-2.29-3.74,0-.67.09-.81,1.39-1.8,5.13-4.18,7.15-7,8.82-12.1a21.35,21.35,0,0,1-4,.63c-1.93,0-3.86-1.76-3.86-3.47a.2.2,0,0,1,.17-.22.71.71,0,0,1,.37.22c.53.59,1.3.82,2.92.82a12.3,12.3,0,0,0,4.77-1,5.53,5.53,0,0,0,.18-1.39c0-1.89-.72-3.24-1.76-3.28-.22-.05-.31-.09-.31-.23,0-.36,1.44-.81,2.61-.81a3.58,3.58,0,0,1,2.2.72,3,3,0,0,1,1.13,2.83,5.13,5.13,0,0,1-.14,1.13,3.87,3.87,0,0,0,2.12-1.44Zm-.5,19.08c11.79-6.79,11.79-6.79,11.79-8a2.48,2.48,0,0,0-2.29-2.39c-2.7,0-5.4,2.07-7.65,5.85a11,11,0,0,0-1.8,4.37V24Z"/><path class="cls-1" d="M68.13,87.49a1,1,0,0,1,.49.81.51.51,0,0,1-.58.54H50.58c3.78,4,10.62,7.11,18.4,8.24a14.2,14.2,0,0,0-4,4.14c-6.39-2.61-12-6.84-15.07-11.43V100.9c0,.23-.23.41-.72.63a8.93,8.93,0,0,1-2.57.77c-.36,0-.58-.27-.58-.68V91.81a46.19,46.19,0,0,1-12.42,7.34,38.21,38.21,0,0,1-6.48,2.16c-.18,0-.32-.09-.32-.27s.09-.32,1.58-1a48,48,0,0,0,14.8-11.16H36c-2,0-3.69,0-7.83.23l-1-1.76c5.22.23,6.93.27,8.86.27H46V82.32H44.14v1.35c0,.76-1.44,1.44-3,1.44-.59,0-.72-.18-.72-.9V65.45l4.45,1.84h.59a56.13,56.13,0,0,0,1-6.62l4.36,1.17c.5.14.77.37.77.68s-.23.59-.81.86l-.72.36a1.9,1.9,0,0,0-.32.31c-.36.45-.67.9-1,1.3s-.9,1-1.31,1.58l-.31.36h4.54l1.49-2.07,3.37,3.55a1.49,1.49,0,0,1,.54,1c0,.27-.22.54-.76.81l-.63.4V83.17c0,.59-1.71,1.31-3,1.31-.54,0-.76-.18-.76-.68V82.32h-2v5.26H61.6l2.66-3ZM27.31,81.42A75.85,75.85,0,0,0,37.84,77c1.35-.68,1.62-.81,1.85-.81a.34.34,0,0,1,.36.31c0,.45-4,4.14-7.43,6.89l-.18.9c-.09.81-.4,1.17-1,1.17-.27,0-.58-.18-1-.63Zm5.9-15.17c2.52,1.13,4.09,3.2,4.09,5.4a2.2,2.2,0,0,1-2.16,2.48,1.73,1.73,0,0,1-1.57-.95,20.45,20.45,0,0,1-.86-2.43,7.59,7.59,0,0,0-3.06-4.45c-.36-.27-.49-.45-.49-.63s.22-.36.58-.36A14,14,0,0,1,33.21,66.25ZM51.84,73.9V68.5h-7.7v5.4Zm0,7.2v-6h-7.7v6ZM65.07,69c-3.65,2.87-7.74,5.71-8.33,5.71a.26.26,0,0,1-.22-.27c0-.18.13-.4.49-.86a52.12,52.12,0,0,0,5.76-9.45l3.33,2.84a1.37,1.37,0,0,1,.63,1c0,.32-.31.63-.76.76ZM62.1,77c3.1,1,4.9,2.74,4.9,4.72a2,2,0,0,1-2,2.07c-.68,0-1.13-.31-1.85-1.35a22.17,22.17,0,0,0-5.67-5.53c-.45-.32-.54-.45-.54-.59s.18-.27.54-.27A21.36,21.36,0,0,1,62.1,77Z"/><path class="cls-1" d="M96.39,68.33c0,.76-.09,1.08-.9,3.55a104.4,104.4,0,0,0-2.07,15.84c0,5.4,2.56,8.37,7.29,8.37a18.08,18.08,0,0,0,11-4,21.13,21.13,0,0,0,4.14-4.1c.09-.18.18-.22.27-.22s.22.13.22.31a17.13,17.13,0,0,1-2.61,4.68c-3.64,4.82-8.14,7.38-13,7.38-7,0-10.71-4.41-10.71-12.73,0-1.62,0-1.94.63-13.28.18-2.92.27-5,.27-5.58,0-3.19-.81-4.85-2.48-5a.2.2,0,0,1-.22-.17c0-.37,1.21-.77,2.16-.77C93.33,62.61,96.39,65.49,96.39,68.33Z"/><path class="cls-1" d="M163.35,82.54a.21.21,0,0,1-.23-.18c0-.13.09-.22.36-.36,2.75-1.12,3.69-1.71,3.69-2.2a8.13,8.13,0,0,0-2.25-4,4.85,4.85,0,0,0-3.1-1.67c-1.26,0-1.89,1.13-1.89,3.42A50.22,50.22,0,0,0,161.1,87.9c.58,2.34,1.39,3.82,2.61,4.77a2.82,2.82,0,0,1,.22,1.08c0,3.51-6,6.16-13.86,6.16-5.71,0-8.64-2-8.64-5.85a13.47,13.47,0,0,1,.68-3.73A2.59,2.59,0,0,1,140,91.45c-1.8,0-3.15-2.16-3.15-5.17,0-2.84,1.17-5.72,2.92-7.07a5.44,5.44,0,0,1,3.6-1.17,25.16,25.16,0,0,0,.27-3.28,22.16,22.16,0,0,1-5.22.81,3.89,3.89,0,0,1-3.87-2.3,6.84,6.84,0,0,1-.54-2.29.21.21,0,0,1,.18-.23c.09,0,.14.09.36.36a4.05,4.05,0,0,0,3.6,1.58,26.43,26.43,0,0,0,5.67-.81c0-1.94,0-1.94,0-2.34,0-3.37-.81-5.13-2.43-5.22-.41,0-.5,0-.5-.23,0-.44,2.43-1.48,3.42-1.48a5.84,5.84,0,0,1,4.19,3.69,1.91,1.91,0,0,1-.18.72,22.28,22.28,0,0,0-.95,3.91A4.11,4.11,0,0,0,149.62,69c2.21.32,3.65,1.13,3.65,2.07,0,.54-.41.86-1.44,1.31a30.1,30.1,0,0,1-5,1.62c-.27,1.8-.36,2.2-.67,4.63a2.51,2.51,0,0,1,1.39,2.3c0,2.16-1,5.26-3.06,9a8.89,8.89,0,0,0-1.08,3.87c0,1.89,1.76,3,4.77,3s7.34-.72,8.69-1.49c1.62-.9,2.11-1.84,2.11-4,0-1.26,0-1.26-.18-5.71-.27-6.84-.27-6.84-.27-8.1,0-3.33,1.31-4.86,4.14-4.86,4.86,0,9.27,4.14,9.27,8.73,0,1.71-.94,2.83-2.47,2.88-.77-1.22-2.25-1.85-4.37-1.85h-.49l-.59,0a3,3,0,0,0-.58,0Zm-22.77-1.21a11.13,11.13,0,0,0-.81,4.45c0,1.8.54,2.93,1.39,2.93.63,0,.77-.32,1.4-3.33a24.91,24.91,0,0,0,.67-4.82c0-.76-.13-1-.49-1.08C142.11,79.44,141.12,80.29,140.58,81.33Z"/><path class="cls-1" d="M196.69,84.57a8.88,8.88,0,0,1-2,5.85c-1.48,1.84-3.42,3.06-4.9,3.06a2.32,2.32,0,0,1-2.25-2.25,1.84,1.84,0,0,1,1.26-1.8c3.69-1.67,6.21-4.23,7-7.16.09-.22.14-.27.32-.27C196.51,82,196.69,82.77,196.69,84.57Zm6.21-7.83c-3.1.18-7.56,1.3-9.18,2.29a2,2,0,0,1-1.08.45c-1.71,0-4.45-2.74-4.45-4.45a.81.81,0,0,1,.49-.86c.77,1.17,1.8,1.49,4.55,1.49,1.84,0,4.36-.23,9.63-.81-.05-1-.09-1.8-.09-2.12-.14-4.9-.59-6.07-2.3-6.2-.4,0-.54-.1-.54-.28,0-.45,1.85-1.21,2.84-1.21.81,0,1.53.36,2.83,1.3s1.85,1.54,1.85,2a2.81,2.81,0,0,1-.27.94c-.54,1.17-.68,2-.77,5.08,5-.54,6.66-.89,8.78-1.89a2.9,2.9,0,0,1,1.17-.31c1.66,0,4.54,1.85,4.54,2.92,0,.77-.67,1.31-1.62,1.31a13.21,13.21,0,0,1-1.57-.14,48.28,48.28,0,0,0-5.09-.31,43.83,43.83,0,0,0-6.34.4c-.05,2.61.09,8.51.31,14,0,1.31.09,2.57.09,3.29A5.64,5.64,0,0,1,205.42,97a3.66,3.66,0,0,1-2.79,1.58c-.72,0-.9-.18-1-1a10.37,10.37,0,0,0-3.42-6c-.23-.22-.36-.4-.36-.54a.39.39,0,0,1,.27-.31c.13,0,.31.09.76.4A18.29,18.29,0,0,0,202,92.85c.45,0,.86-.77.86-1.67Zm18.41,13.05a2.49,2.49,0,0,1-2.48,2.74c-1.12,0-1.8-.72-2.34-2.56-1.12-3.87-3.6-7-6.48-8.15-.4-.13-.49-.22-.49-.36S210,81,210.78,81C216.09,81,221.31,85.38,221.31,89.79Zm.81-24.57a4.55,4.55,0,1,1-4.46-4.5A4.53,4.53,0,0,1,222.12,65.22Zm-7.34,0a2.79,2.79,0,1,0,2.84-2.74A2.78,2.78,0,0,0,214.78,65.17Z"/><path class="cls-1" d="M260.86,98.38c0,1.35-.72,2.43-1.62,2.43-1.08,0-3.73-2.47-3.73-3.51,0-.27,0-.27.4-1.44a19.2,19.2,0,0,0,.77-6c.18-4.32.22-6.16.22-8.41a6.21,6.21,0,0,0-.31-2.61c-6,5.67-8.15,7.2-12.74,9.18a20.82,20.82,0,0,1-4.36,1.53.35.35,0,0,1-.36-.32c0-.22.05-.22.85-.63,8.29-4.23,20.43-17.68,20.43-22.68A1.92,1.92,0,0,0,259.33,64q-.27-.14-.27-.27c0-.27.45-.4,1.31-.4,1.44,0,2.29.45,3.69,1.88,1.62,1.62,2.29,2.57,2.29,3.16,0,.31-.18.54-.58.76a4.59,4.59,0,0,0-1.58,1.44c-1.35,1.62-2.74,3.19-5.85,6.52.45.23.9.45,1,.5,1.48.67,1.75.9,1.75,1.35,0,.27,0,.27-.4.94a13.06,13.06,0,0,0-.32,3s.09,3.78.18,7.92.23,6.21.23,6.26Z"/><path class="cls-1" d="M306.18,75a2.48,2.48,0,0,1-2.48,2.39c-.89,0-1.3-.36-1.93-1.71-1.08-2.39-4.28-5.36-6.57-6-.36-.09-.49-.18-.49-.32,0-.35,1.12-.58,2.74-.58C301.81,68.73,306.18,71.88,306.18,75Zm20.47-5.8c0,.72-2.47,5-4.36,7.6A67.72,67.72,0,0,1,303.12,94.2a5.13,5.13,0,0,0-.85.58c-.28.23-.54.5-.86.72a1.24,1.24,0,0,1-.63.27c-.72,0-1.84-.67-3.15-1.89-1.71-1.62-2.34-2.56-2.34-3.55s.27-1.8.63-1.8c.14,0,.18,0,.4.45A3.66,3.66,0,0,0,299,90.06c2.43,0,6.61-2.21,11.52-6.08,5.89-4.63,12.42-10.93,15.16-14.57.32-.37.5-.54.68-.54A.37.37,0,0,1,326.65,69.18Z"/><path class="cls-1" d="M360.81,89.07c0,1.57,0,3.06.09,3.6.13,1.84.18,3.37.18,4,0,2.29-.9,4.05-2,4.05s-3.19-2.84-3.19-4.5a13.25,13.25,0,0,1,.45-2.52,114.71,114.71,0,0,0,.63-12c0-3-.23-11.75-.32-13-.22-2.79-.67-3.37-2.83-3.37-.23,0-.36-.09-.36-.31,0-.59,2.7-1.85,4-1.85,1,0,2,.59,3.24,1.89a4.26,4.26,0,0,1,1.22,2.07c0,.31-.05.4-.63,1.76a32.33,32.33,0,0,0-.63,7.33c4.23.36,6.7,1,9.18,2.61,2.25,1.44,3.73,3.37,3.73,5a2.29,2.29,0,0,1-2.38,2.39,2.71,2.71,0,0,1-2.07-1,11.23,11.23,0,0,1-1.44-2.11,15.8,15.8,0,0,0-7.07-6l.09,4.09.05,3.69Z"/></g></g></svg>