<svg xmlns="http://www.w3.org/2000/svg" viewBox="0 0 621.92 30.49"><defs><style>.cls-1{fill:#343434;}</style></defs><g id="Layer_2" data-name="Layer 2"><g id="Layer_1-2" data-name="Layer 1"><path class="cls-1" d="M0,27.2c3.36.16,4.7.19,6.3.19h4a2.45,2.45,0,0,1-.12-.42,5.23,5.23,0,0,1-.16-1,4.5,4.5,0,0,0-1.28-2.75H8.1v1c0,.51-.2.67-1,.86A5.49,5.49,0,0,1,6,25.28c-.32,0-.44-.16-.44-.55V16.48l2.91,1.44H20.8l1.12-1.6,2.4,2.4a.94.94,0,0,1,.35.67.73.73,0,0,1-.51.7l-.35.16v3.24c0,.48-.2.7-.74.86a3.93,3.93,0,0,1-1.22.19c-.64,0-.83-.13-.83-.61v-.76H20.8c-1.22,1.6-2.34,3-3.39,4.22h6.46l2.34-2.69,2.72,2.4a.91.91,0,0,1,.41.67.52.52,0,0,1-.54.48H6.3c-1.47,0-2.56,0-5.31.16ZM.06,15c3.11.16,3.75.19,6.31.19h18l1.92-2.37,2.46,2.05a.88.88,0,0,1,.42.67c0,.38-.19.51-.8.51H6.37c-2,0-2.88,0-5.57.16Zm6.76-1.44c0,.7-.55.93-2.08.93-.52,0-.61-.1-.61-.52V2.85L7.42,4.7h2.79V.86l3.07.32a.64.64,0,0,1,.61.61.73.73,0,0,1-.42.64l-.73.42V4.7h3.32V.86l3.07.32a.65.65,0,0,1,.64.68.72.72,0,0,1-.51.7l-.6.22V4.7h3.23l1.18-1.76L25.53,5.6a1.15,1.15,0,0,1,.42.8c0,.32-.19.54-.64.74l-.42.19v5.6a.81.81,0,0,1-.67.89,7.88,7.88,0,0,1-1.53.26c-.36,0-.48-.13-.48-.42v-.83H6.82Zm3.39-5.41V5.57H6.82V8.16ZM6.82,12h3.39V9H6.82ZM21,22.3V18.78H8.1V22.3Zm-10.49.87c1.76,1.12,2.33,1.88,2.33,3.1a1.28,1.28,0,0,1-.48,1.12h3.94a43,43,0,0,0,1.06-4.22Zm5.53-15V5.57H12.74V8.16ZM12.74,12h3.32V9H12.74Zm9.47-3.81V5.57H18.66V8.16ZM18.66,12h3.55V9H18.66Z"/><path class="cls-1" d="M42.08,5.57c0,.51.06,1,.06,1.37,0,2.15-1.15,3.62-2.84,3.62-1,0-1.64-.54-1.64-1.34s.16-.93,1.8-2.44A5.15,5.15,0,0,0,41,3.39c0-.25.07-.38.23-.38s.54.64.7,1.69h8.23V.58L53.6.86c.41.07.61.2.61.52a.6.6,0,0,1-.35.51l-.9.54V4.7h9.15l1.28-1.76,2.88,3.17a1.5,1.5,0,0,1,.38.74.78.78,0,0,1-.6.67h-.16l-1.73-.1a7.31,7.31,0,0,1-.67.48c-.39.29-.74.55-1.09.84-1.57,1-1.57,1-1.67,1s-.16-.07-.16-.13,0-.13.2-.42a16.26,16.26,0,0,0,1.47-3.61ZM43.9,29.28c0,.29-.12.41-.48.54a5.29,5.29,0,0,1-1.72.32c-.45,0-.64-.13-.64-.48V17.54l3.29,1.56H59.07l1.09-1.63,2.46,2.24c.39.35.48.51.48.77a.61.61,0,0,1-.41.57l-.55.23v7.29c0,.42-.25.61-1,.8a5.9,5.9,0,0,1-1.5.26c-.35,0-.45-.1-.45-.51V27.9H43.9ZM42.78,8.64c3,.13,4.2.16,5.54.16h7.74l1.86-2.05L60.13,8.7a.67.67,0,0,1,.25.52.4.4,0,0,1-.45.44H48.32c-1.89,0-2.53,0-4.93.13ZM50,23V20H43.9V23Zm0,4V23.9H43.9V27ZM47.1,17.66c0,.39-.83.71-1.92.71-.38,0-.54-.13-.54-.42V10.59l2.78,1.35H56l1-1.41,2.21,2.14c.29.26.35.35.35.58a.56.56,0,0,1-.35.54l-.41.26v3.2c0,.38-.16.54-.68.67a6.18,6.18,0,0,1-1.4.25c-.32,0-.45-.09-.45-.38v-1H47.1Zm0-1.76h9.22V12.8H47.1ZM59.23,23V20H52.77V23Zm0,4V23.9H52.77V27Z"/><path class="cls-1" d="M100.09,4.38c1,.64,1.44,1.28,1.44,1.86a1,1,0,0,1-1,.93,3.79,3.79,0,0,1-.64-.07,12.49,12.49,0,0,0-2.4-.25,9.26,9.26,0,0,0-4.26.7,7.46,7.46,0,0,0-3.58,4.13,20.72,20.72,0,0,0-1.28,7.2c0,3.81,1.76,5.69,5.34,5.69a19,19,0,0,0,2.53-.22.44.44,0,0,1,.19,0,2.46,2.46,0,0,1,2,2.24c0,1.05-.9,1.6-2.63,1.6A17.16,17.16,0,0,1,90,27.07C87,26,85.57,23.58,85.57,19.93a20.28,20.28,0,0,1,1.31-6.65,17.44,17.44,0,0,1,3.55-5.6,1.69,1.69,0,0,0,.32-.38c0-.07-.1-.1-.16-.1A24.44,24.44,0,0,0,85,9.06a26,26,0,0,0-4.77,2.62,1.31,1.31,0,0,1-.8.32,4.68,4.68,0,0,1-3.23-2.4,5.1,5.1,0,0,1-.38-2.11c0-.16.06-.26.16-.26s.12,0,.28.35a2.78,2.78,0,0,0,2.37,1.28,11.05,11.05,0,0,0,3.3-.76c3.71-1.12,6.78-2,10.94-3s4.19-1.22,4.9-1.6A4,4,0,0,1,100.09,4.38ZM98.78,15a1.31,1.31,0,0,1-1.34,1.12c-.67,0-.83-.16-1.22-1.09a4.59,4.59,0,0,0-2.46-2.46c-.1-.07-.19-.13-.19-.23s.28-.29.76-.29C96.48,12.06,98.78,13.57,98.78,15Zm3.81-2.43a1.39,1.39,0,0,1-1.47,1.24c-.51,0-.58,0-1-.86a5.25,5.25,0,0,0-2.88-2.24c-.16-.06-.28-.19-.28-.29s.54-.38,1.4-.38C100.51,10.05,102.59,11.29,102.59,12.58Z"/><path class="cls-1" d="M113.25,11.87l1.92.07c-.32-.58-.32-.58-.39-1.83a5,5,0,0,0-1-3,.55.55,0,0,1-.13-.23c0-.09.1-.16.22-.16a5.46,5.46,0,0,1,2.08.87,3.1,3.1,0,0,1,1.64,2.78,1.63,1.63,0,0,1-.87,1.54h3.23a34.27,34.27,0,0,0,1.16-5.54l2.75,1.09c.35.13.51.32.51.57a.61.61,0,0,1-.42.55l-.67.29a8.89,8.89,0,0,0-.61.83L121,11.94h1.73L124.38,10l2.18,2c.22.19.32.32.32.48a.3.3,0,0,1-.32.29H120.1V16.7h1.53l1.76-2,2.21,2c.29.26.41.42.41.61s-.15.29-.38.29H120.1v2a11.71,11.71,0,0,1,2.91.87,2.63,2.63,0,0,1,1.6,2.3,1.3,1.3,0,0,1-1.28,1.44c-.74,0-.9-.16-1.54-1.67a5.1,5.1,0,0,0-1.69-2.17V29a.81.81,0,0,1-.61.77,4.3,4.3,0,0,1-1.57.35c-.48,0-.7-.23-.7-.71v-7c-2.5,2.53-5.25,4.77-5.83,4.77a.21.21,0,0,1-.22-.2c0-.16.09-.28.57-.83a29.22,29.22,0,0,0,5.38-8.57h-1.41c-.73,0-.8,0-3.45.09l-.84-1.08c2.5.09,3.4.12,4.29.12h1.51V12.77h-2c-.58,0-.8,0-3.62.09l-.67-1Zm-1.83-6.65c2.28.09,3.2.12,4.29.12h1.51V.54l3.36.42a.58.58,0,0,1,.51.51.64.64,0,0,1-.35.55l-.64.38V5.34h2l1.6-1.95,2,1.79a.91.91,0,0,1,.35.61.41.41,0,0,1-.45.42h-9.92c-1.09,0-1.82,0-3.61.09Zm18.66,8.67c-.16,5.92-.8,8.41-2.62,10.91-1.29,1.69-4.42,4.25-5.22,4.25a.25.25,0,0,1-.22-.22c0-.16.12-.32.54-.67a13.71,13.71,0,0,0,4.06-6.4c.64-2.27.84-4.58.84-10.37,0-3.1-.07-4.89-.29-8.57l2.91,1.37a19,19,0,0,0,6.75-3.13l2.37,2.56a.79.79,0,0,1,.22.51c0,.29-.29.48-.64.41l-.13,0-1.44-.06c-2.62.38-2.62.38-7.07.89.07,1.83.07,2.76.07,4.42,0,1.41,0,2-.1,3.26h6.43l1.89-2.08,2.46,2.15a.73.73,0,0,1,.23.48c0,.19-.16.32-.42.32H136V28.64a.9.9,0,0,1-.67,1,5.6,5.6,0,0,1-1.73.38c-.45,0-.67-.25-.67-.8V13.89Z"/><path class="cls-1" d="M149.86,12.58A5.41,5.41,0,0,1,148,14.14a.21.21,0,0,1-.22-.22c0-.13,0-.13.77-1.34A31.73,31.73,0,0,0,152.67.8l2.82,1.09c.48.19.77.48.77.77s-.26.54-.74.64l-.48.09c-.22.67-.26.8-.51,1.41H157l.84-1.41L160,5.73a1.22,1.22,0,0,1,.39.8c0,.32-.26.48-.8.57l-.61.13c-.26.29-.32.35-1,1.19s-1.21,1.34-1.85,2h2.27l1-1.66,1.86,1.88c.51.52.54.58.54.84s-.09.38-.45.57l-.32.16v9.22a.63.63,0,0,1-.44.7,6.06,6.06,0,0,1-1.48.29c-.25,0-.38-.13-.38-.35V20.83h-6.56v1.6c0,.35-.19.51-1,.7a4.52,4.52,0,0,1-1,.16c-.23,0-.32-.09-.32-.41Zm1.63,13.79c0,2-1.06,3.77-2.34,3.77a1.31,1.31,0,0,1-1.31-1.28c0-.57.22-1,1.28-2a4.14,4.14,0,0,0,1.5-2.88c0-.23.07-.35.2-.35C151.17,23.65,151.49,25,151.49,26.37Zm2.69-20.71a32,32,0,0,1-2.63,4.61l.23.13h3.29a2.21,2.21,0,0,0,.16-.42c.16-.35.32-.7.45-1,.32-.9,1.06-2.82,1.22-3.3Zm.25,9.44V11.26h-2.27V15.1Zm0,4.87V16h-2.27v4Zm-1.63,3.61c0-.06.06-.19.13-.19s.25.06.48.29a6.21,6.21,0,0,1,1.66,3.84c0,1.15-.61,2.05-1.37,2.05a1.07,1.07,0,0,1-1.12-1,5.2,5.2,0,0,1,.19-1.09,12.5,12.5,0,0,0,.29-2.21,8.1,8.1,0,0,0-.2-1.6Zm3.58.13a4.5,4.5,0,0,1,2.44,3.52,1.36,1.36,0,0,1-1.25,1.47.84.84,0,0,1-.58-.22c-.35-.35-.35-.35-.61-2.08a6.29,6.29,0,0,0-1.15-2.82.68.68,0,0,1-.09-.25.13.13,0,0,1,.12-.13A3.63,3.63,0,0,1,156.38,23.71Zm2.34-8.61V11.26h-2V15.1Zm0,4.87V16h-2v4Zm1.7,3.48a4,4,0,0,1,2.43,3.14,1.46,1.46,0,0,1-1.31,1.47c-.58,0-.9-.45-1.25-1.63a7.27,7.27,0,0,0-1.73-3.1c-.13-.16-.16-.23-.16-.32s.06-.16.19-.16A6.77,6.77,0,0,1,160.42,23.45Zm.86-14.2,4.29.13h4c.32-.9.89-2.85,1.28-4.26l.92-3.78,2.82,1.38c.74.38.93.58.93,1s-.26.64-.8.8L174,4.7c-.09.16-.7.93-1.79,2.34l-1.54,2c-.06.1-.19.26-.28.39h2.84L175.1,7.2,177.31,9a1,1,0,0,1,.45.71c0,.29-.29.51-.67.51h-6.92v5.22h2.24l1.86-2.21,2.14,1.88a1,1,0,0,1,.42.74c0,.26-.26.45-.61.45h-6.05v5.31h3.33l2-2.46,2.37,2.24a.87.87,0,0,1,.32.6c0,.29-.29.48-.64.48h-7.4v6.44c0,.32-.09.44-.57.6a8.47,8.47,0,0,1-1.73.32c-.35,0-.51-.16-.51-.48V22.49H166c-.7,0-1,0-3.74.1l-.54-1.09c1,0,1.88.07,2.2.07l2.08.06h1.38V16.32h-1.09c-1.41,0-1.85,0-3.84.1L162,15.33c2.34.09,2.85.09,4.29.13h1.09V10.24h-1.79c-.93,0-1.67,0-3.59.16Zm2.62-7c2.34,1.19,3.75,2.95,3.75,4.71,0,1.18-.68,2-1.64,2a1,1,0,0,1-.92-.51c-.16-.26-.16-.26-.29-1.76a9,9,0,0,0-2-4.61.54.54,0,0,1-.06-.16s0-.06.1-.06A4.85,4.85,0,0,1,163.9,2.27Z"/><path class="cls-1" d="M192.8,10.33A3.57,3.57,0,0,1,189.7,9a4.79,4.79,0,0,1-.77-2.18.22.22,0,0,1,.22-.22c.1,0,.16,0,.26.26a3.21,3.21,0,0,0,3,1.4,11.65,11.65,0,0,0,3.52-.64,10.47,10.47,0,0,0,.64-3.32,1.92,1.92,0,0,0-1.88-2c-.2,0-.26,0-.26-.13,0-.38,1.22-.83,2.18-.83a2.83,2.83,0,0,1,2.65,1.41c-.09.73-.16,1-.25,1.6a4.18,4.18,0,0,0,2.81.7c.83,0,1,.16,1,.93,0,1-.57,1.73-2,2.5a13,13,0,0,1-3,1.15,83.64,83.64,0,0,1-4.45,10,14.76,14.76,0,0,1-1.63,2.78,2.55,2.55,0,0,1-1.92.87,1.82,1.82,0,0,1-1.82-1.7c0-.42.29-.83,1-1.5a24.11,24.11,0,0,0,6.27-9.86A16.62,16.62,0,0,1,192.8,10.33Zm11.39-.28a.67.67,0,0,1-.22,0,.2.2,0,0,1-.19-.19c0-.48,2.36-1.22,3.87-1.22,2.72,0,4.89,1.7,4.89,3.81A1.37,1.37,0,0,1,211.39,14a7.54,7.54,0,0,0-3.36-.92c-1.76,0-2.72,1.28-2.72,3.61a43.67,43.67,0,0,0,.58,5.19c3.77,1.12,6.27,2.91,6.27,4.48a1.48,1.48,0,0,1-1.35,1.53c-.51,0-1-.25-1.66-1a13,13,0,0,0-3.26-2.49,5.49,5.49,0,0,1-.64,2.91c-.74,1.25-2.18,1.89-4.16,1.89-3.23,0-5.7-1.8-5.7-4.16a3.66,3.66,0,0,1,1.92-3,9.1,9.1,0,0,1,4.23-.83,15.31,15.31,0,0,1,1.56.06c0-3.42.13-4.83.52-5.82a6,6,0,0,1,4.06-3.39c.7-.2.83-.26.83-.55,0-.8-1.6-1.53-3.33-1.53Zm-1.12,13.34a8.45,8.45,0,0,0-2.94-.54c-1.73,0-2.91.8-2.91,2s1.24,1.95,3.13,1.95a2.43,2.43,0,0,0,2.72-2.49ZM198.18,7.1c1.24-.54,1.88-1,1.88-1.34,0-.13-.12-.26-1.24-1C198.59,5.7,198.53,5.89,198.18,7.1Z"/><path class="cls-1" d="M230.91,13.73a2,2,0,0,1-.7.19,3.83,3.83,0,0,1-2.15-1.34,3.34,3.34,0,0,1-.73-1.8c0-.32.06-.41.19-.41s.06,0,.32.32a4,4,0,0,0,2.62.6c1.25,0,3.75-.22,8.45-.76-.45-6.18-.74-7.14-2.14-7.14a.17.17,0,0,1-.19-.16c0-.35,1.27-.86,2.08-.86,1.08,0,3.26,1.41,3.26,2.11a.83.83,0,0,1-.13.38c-.22.52-.29,1.32-.29,3.84,0,.58,0,.9,0,1.51A13,13,0,0,0,245,9c.74-.41.8-.44,1.09-.44a3.88,3.88,0,0,1,1.73.67c.89.61,1.31,1.15,1.31,1.69s-.42.74-1.12.74c-.19,0-.8,0-1.57-.1-.45,0-1.73-.06-2.37-.06-.83,0-1.4,0-2.56.13.13,2.88.42,6.2,1,11.61.09.8.16,1.57.16,2a3.61,3.61,0,0,1-1.15,2.43,3.74,3.74,0,0,1-2.08,1.12c-.32,0-.52-.19-.58-.64A8.44,8.44,0,0,0,236.32,24c-.16-.13-.32-.29-.48-.45a3,3,0,0,0-.32-.25c-.1-.07-.13-.13-.13-.2a.28.28,0,0,1,.23-.25c.09,0,.09,0,1.15.54,1.85,1,2,1.12,2.33,1.12s.48-.45.48-1.37-.06-2.75-.16-4.71c0-1.08-.06-1.76-.16-3.93-3.29,4.57-5.95,6.88-10.14,8.76a24.18,24.18,0,0,1-5.89,1.8c-.16,0-.22-.07-.22-.2s.06-.16.22-.22a27.52,27.52,0,0,0,14.11-12.54A25.38,25.38,0,0,0,230.91,13.73Z"/><path class="cls-1" d="M272,8a1.72,1.72,0,0,1-.1.51,18.17,18.17,0,0,0-.19,3.75c0,.48.1,2.75.16,3.74,0,.55.06,1,.06,1.35,0,.73-.35,1.28-.83,1.28a2.92,2.92,0,0,1-2.4-2.18,3,3,0,0,1,.13-.58,24.76,24.76,0,0,0,.13-3c0-1.22-.1-3.62-.19-4.13-.16-1-.77-1.47-1.92-1.67-.2,0-.29-.09-.29-.19,0-.32,1.73-1.09,2.4-1.09C270,5.82,272,7.23,272,8Zm7.87-2.81c1.05.67,1.37,1,1.37,1.24a.81.81,0,0,1-.12.39c-.42.67-.45.77-.45,2.62,0,6.31-.29,8.7-1.25,10.75-1.5,3.14-4.45,5.44-9,7a13.69,13.69,0,0,1-3.07.83c-.16,0-.26-.06-.26-.16s.13-.25.58-.38a17.5,17.5,0,0,0,7-5c2.3-2.78,3-5.47,3-12,0-4.13-.25-4.93-1.66-5.06-.35,0-.45-.1-.45-.26,0-.32,1.44-.92,2.17-.92C278.21,4.26,278.37,4.32,279.84,5.22Z"/><path class="cls-1" d="M307.62,15.52a1.83,1.83,0,0,1-1.86,1.69c-.45,0-.74-.22-1.12-.89a8.13,8.13,0,0,0-4.19-3.84c-.29-.13-.32-.16-.32-.26s1-.41,2-.41C304.93,11.81,307.62,13.63,307.62,15.52ZM302,22.37c.19.64.73.86,2.11.86,1.66,0,4.25-1.25,7.87-3.77A53,53,0,0,0,323.84,7.9c.32-.44.41-.54.57-.54s.2.13.2.26a10.47,10.47,0,0,1-1.32,2.88,41.5,41.5,0,0,1-6.14,8.09,60,60,0,0,1-10.37,7.81,6.29,6.29,0,0,0-.64.41c-.51.42-.6.48-.86.48-.51,0-1.41-.6-2.56-1.72a3.43,3.43,0,0,1-1.22-2.34c0-.51.2-.9.45-.86H302ZM311.39,9.5a1.79,1.79,0,0,1-1.92,1.73c-.67,0-.86-.16-1.37-1.12a7.38,7.38,0,0,0-4.58-3.58c-.22-.07-.29-.13-.29-.23,0-.28,1.41-.57,2.79-.57C308.9,5.73,311.39,7.49,311.39,9.5Zm9.86-4.22a1.24,1.24,0,0,1-1.35,1.25c-.54,0-.67-.13-1.15-1a5,5,0,0,0-2.66-2.4c-.22-.07-.28-.13-.28-.26s.32-.26,1.12-.26C319.17,2.62,321.25,3.9,321.25,5.28Zm4-2a1.34,1.34,0,0,1-1.41,1.28c-.55,0-.64-.1-1.09-.84a5.64,5.64,0,0,0-3-2.46c-.19,0-.26-.1-.26-.22s.48-.32,1.51-.32C323.17.74,325.25,2,325.25,3.3Z"/><path class="cls-1" d="M348.86,20.38a14.31,14.31,0,0,1-5.76,6.37,15.63,15.63,0,0,1-4,1.5.21.21,0,0,1-.22-.19c0-.16.1-.22.58-.48,4.67-2.3,7.67-7.68,8.41-14.81a31.84,31.84,0,0,0-6.59,1.53,6.82,6.82,0,0,1-2,.52c-1.47,0-3.2-1.89-3.2-3.53a.24.24,0,0,1,.26-.25c.09,0,.16,0,.29.22.41.55,1.37.8,3,.8,1.28,0,2.18-.09,8.45-.77,0-1,.06-1.5.06-1.95,0-3.9-.44-5.28-1.85-5.56-.32-.07-.42-.1-.42-.2,0-.35,1.47-1,2.27-1,1.09,0,3.59,1.64,3.59,2.34a.75.75,0,0,1-.13.35,1.88,1.88,0,0,0-.26.67c-.06.58-.16,2.37-.25,4.9,3.9-.48,4.6-.64,5.85-1.31.87-.45,1.06-.55,1.25-.55a6.18,6.18,0,0,1,2.37,1.19c.83.64,1.18,1,1.18,1.41a.9.9,0,0,1-1,.89,7.13,7.13,0,0,1-.73-.06,26.25,26.25,0,0,0-4.16-.32,48.45,48.45,0,0,0-5,.29C350.33,16.42,349.89,18.17,348.86,20.38Z"/><path class="cls-1" d="M382.37,13.06a24.09,24.09,0,0,1-5.28,10.17A17.41,17.41,0,0,1,372,27.07a3.12,3.12,0,0,1-.93.32.25.25,0,0,1-.26-.22c0-.1.1-.2.45-.45a18.71,18.71,0,0,0,6.34-8.64,20.6,20.6,0,0,0,1.63-6.75,2.51,2.51,0,0,0-1.38-2.53c-.12-.06-.22-.13-.22-.22,0-.26.58-.55,1.18-.55a4.44,4.44,0,0,1,2.47,1c.89.67,1.66,1.63,1.66,2.08a1.28,1.28,0,0,1-.13.44,4.91,4.91,0,0,0-.22.71Zm2.91,3.64c0-6.11,0-7.77-.22-8.32a1.32,1.32,0,0,0-.81-1c-.25-.06-.31-.09-.31-.22s1.08-.74,1.63-.74,1,.19,2.3,1.25c.61.48.93.86.93,1.15a2,2,0,0,1-.29.8,2.8,2.8,0,0,0-.32,1c-.06.64-.16,1.54-.32,3.91s-.29,3.77-.29,4-.06.57-.06.76c0,.42.13.68.35.68a9.91,9.91,0,0,0,3.52-1.64,32.54,32.54,0,0,0,6-5.24,31.11,31.11,0,0,0,3.2-4.35c.16-.32.26-.42.42-.42a.25.25,0,0,1,.26.22c0,.61-1.7,3.78-3.08,5.76a30.69,30.69,0,0,1-9.56,8.8l-.9.55-.45.35a.82.82,0,0,1-.48.19,1.27,1.27,0,0,1-.86-.54,5.47,5.47,0,0,1-1.18-2.08l.51-1.8Z"/><path class="cls-1" d="M407.36,6.24c2.18.1,3,.13,4.29.13h3.26V.74l3.27.38a.61.61,0,0,1,.51.64.6.6,0,0,1-.29.51l-.86.42V6.37h2.62l1.76-2.18,2.4,2.18a.53.53,0,0,1,.19.38c0,.26-.16.48-.32.48h-6.65V10.4h2.24l.86-1.54,2.21,2.28a1.18,1.18,0,0,1,.32.67.45.45,0,0,1-.26.41l-.45.29v7.2c0,.26-.19.42-.64.61a6.1,6.1,0,0,1-1.56.32c-.32,0-.48-.1-.48-.29V19.29h-2.24v3.49h2.94l1.82-2.3L425,22.69c.51-1.64.74-4.74.74-10,0-1.63-.1-6.24-.23-10.53l3,1.38H433l1.15-1.73,2.5,2.69a1,1,0,0,1,.26.61.67.67,0,0,1-.32.54L436,6v20.8c0,1.44-.23,1.86-1.22,2.5a4.78,4.78,0,0,1-2.14.64c-.48,0-.52,0-.74-1.38,0-.19,0-.32-.06-.32s-.16-.13-1.22-.45l-1.28-.35-.64-.22a4.27,4.27,0,0,1-.48-.13c-.22-.07-.32-.13-.32-.26s0-.19,1.18-.19h.77c3.2,0,3.55-.1,3.59-1.06V18.78H428c-.19,3.23-.48,4.39-1.41,5.89a13.28,13.28,0,0,1-5.37,4.67,6.78,6.78,0,0,1-2,.87.26.26,0,0,1-.25-.29c0-.13.09-.23.32-.39,2.78-1.79,4.38-3.52,5.31-5.88h-7.1v5.5c0,.51-.8.9-2,.9-.48,0-.67-.13-.67-.48V23.65H412c-1.31,0-1.83,0-3.59.09l-.7-1.09c2.24.1,3.14.13,4.29.13h2.94V19.29H412.8v1.35c0,.45-.86.8-2.05.8-.41,0-.57-.13-.57-.45V9L413,10.4h2V7.23h-3.26c-1.44,0-1.86,0-3.55.1Zm12.42,8.09V11.26h-7v3.07Zm0,4.1V15.2h-7v3.23Zm8.44-5.37c0,1.66,0,2.78-.06,3.16s0,.93-.07,1.7h5.32V11.65h-5.19Zm0-2.28h5.19V4.38h-5.19Z"/><path class="cls-1" d="M451.29,11.14c-2.68,1.76-5.63,3.29-6.27,3.29a.22.22,0,0,1-.22-.19c0-.16.16-.32.48-.51A40.87,40.87,0,0,0,458.17,0l3.59,1.41a.51.51,0,0,1,.32.45.6.6,0,0,1-.45.54l-.61.19c3,3.27,7.52,5.47,14.34,6.91a8,8,0,0,0-3.36,3c-5.6-2.5-9-5.28-11.68-9.54a56.11,56.11,0,0,1-7.49,7l1.63.9h3.07v-4l3.56.35a.49.49,0,0,1,.48.48.61.61,0,0,1-.32.54l-.93.42v2.18h3.39l1-1.7,2.72,2.56a.82.82,0,0,1,.36.61.59.59,0,0,1-.39.57l-.67.2v6.62c0,.51-.13.64-.61.8a5.67,5.67,0,0,1-1.6.35c-.38,0-.57-.19-.57-.51v-.64h-4.32a12.54,12.54,0,0,0,3.87,4,60.33,60.33,0,0,0,6.21-6l2.36,2.11c.36.29.48.51.48.71,0,.38-.35.57-.83.54l-.22,0-.93,0c-1.82.93-4.7,2.37-6.4,3.2,2.91,1.8,6.46,2.82,11.26,3.2a9,9,0,0,0-3.52,3.11c-6.84-2-11.07-5.51-13.15-10.72h-4.41v6.46c2.49-.19,5.12-.48,6.75-.67a3.46,3.46,0,0,1,.48-.06.29.29,0,0,1,.32.28c0,.16-.13.29-.42.39-1.82.61-3.26,1.05-6.81,2-1.76.48-1.86.52-4,1.12l-.45.84a.71.71,0,0,1-.61.44c-.22,0-.42-.12-.64-.44l-2.21-3.3c2.18-.1,2.53-.13,4.51-.29ZM464,14.85V11.68h-9.6v3.17Zm0,4v-3.1h-9.6v3.1Z"/><path class="cls-1" d="M505.79,19.26a1.63,1.63,0,0,1-1.6,1.7c-.58,0-.8-.19-1.54-1.28a18.44,18.44,0,0,0-2.46-3.14,30.34,30.34,0,0,1-8.93,8A27.59,27.59,0,0,1,485,27.07a.29.29,0,0,1-.25-.29c0-.16.13-.25,1-.67a39.37,39.37,0,0,0,12.48-11.42,15.42,15.42,0,0,0-6-3.81c-.54-.16-.7-.26-.7-.45s.22-.29.54-.29a15.89,15.89,0,0,1,7.43,2.4,15.45,15.45,0,0,0,2-6,2.78,2.78,0,0,0-.9-2.24c-.06-.07-.09-.1-.09-.13s.25-.32.45-.32a6,6,0,0,1,2.72,1.25c1.05.8,2,2,2,2.46,0,.23-.09.35-.45.61s-.38.35-.8,1.22a37.79,37.79,0,0,1-2.59,4.76C504.57,16.19,505.79,17.76,505.79,19.26Z"/><path class="cls-1" d="M521.73,19.46c.48.54,1.76.86,3.55.86s7.1-.51,13.25-1.28a13.59,13.59,0,0,0,5-1.25,3,3,0,0,1,.86-.22c.35,0,1,.35,2.46,1.4.84.58,1.19,1.09,1.19,1.7s-.39.8-1,.8a10.81,10.81,0,0,1-1.28-.13,27.67,27.67,0,0,0-4.93-.38c-6,0-11.74.77-15,2a3.64,3.64,0,0,1-1.28.32c-1.4,0-3.42-2.21-3.42-3.77a.29.29,0,0,1,.29-.29C521.5,19.2,521.54,19.23,521.73,19.46Zm19.64-9.89c0,.51-.41.7-2.14,1-2.14.32-2.91.41-4.61.73a23.39,23.39,0,0,1-4.41.61c-1.16,0-1.86-.48-2.72-1.79a2.61,2.61,0,0,1-.58-1.18.15.15,0,0,1,.16-.13s.06,0,.22.13a6.3,6.3,0,0,0,2.66.67,32.23,32.23,0,0,0,5.63-.83,9.45,9.45,0,0,0,2.47-1.16C539.93,7.84,541.37,8.7,541.37,9.57Z"/><path class="cls-1" d="M572.83,15.23c0-.45-.22-.73-.54-.73a11.85,11.85,0,0,0-3.65,1.12,7.3,7.3,0,0,1-2.31.73,1.89,1.89,0,0,1-1.12-.42,2.1,2.1,0,0,1-1-2c0-.51.13-.74.39-.74s.12,0,.35.39a1.72,1.72,0,0,0,1.4.61,30.53,30.53,0,0,0,5.09-.93,9,9,0,0,0,1.89-.8c.35-.23.45-.26.58-.26s.22,0,1.63,1c1,.7,1.18.89,1.18,1.18s-.13.39-.8,1c-.77,2.56-1,3.78-1.63,6.4.83-.1,1.6-.16,1.86-.19a11.55,11.55,0,0,0,3.58-.74,1.67,1.67,0,0,1,.45-.09c.8,0,2.59,1.69,2.59,2.43,0,.38-.42.7-1,.7a5.2,5.2,0,0,1-.93-.16,34.75,34.75,0,0,0-5.85-.51,52.1,52.1,0,0,0-7.88.77,9.16,9.16,0,0,0-2.17.67,4.29,4.29,0,0,1-1.76.54,4.35,4.35,0,0,1-2-.86c-.64-.51-.86-.77-.86-1.12,0-.51.19-1,.38-1s.07,0,.16.16a3,3,0,0,0,2.08.54c.32,0,.32,0,2.69-.25,2.21-.26,4-.48,4.26-.48L572,22A57.74,57.74,0,0,0,572.83,15.23Z"/><path class="cls-1" d="M621.92,16c0,.64-.64,1.06-1.63,1.06-.29,0-1.32-.1-2.69-.23-.67-.06-1.63-.09-2.82-.09-8,0-12.73.44-15.13,1.4a1.15,1.15,0,0,1-.45.1,5.69,5.69,0,0,1-2.75-1.06,3,3,0,0,1-1.15-2.59c0-.57.16-.89.48-.89.09,0,.16.06.32.32.48.8,1.53,1.08,4.09,1.08s10.4-.47,12.61-.73a25.67,25.67,0,0,0,5.09-1.09C620.57,13.86,621.92,14.78,621.92,16Z"/></g></g></svg>