<svg xmlns="http://www.w3.org/2000/svg" viewBox="0 0 662.14 37.11"><defs><style>.cls-1{fill:#343434;}</style></defs><title>title-2</title><g id="Layer_2" data-name="Layer 2"><g id="Layer_1-2" data-name="Layer 1"><path class="cls-1" d="M0,7.59c2.65.12,3.62.16,5.22.16h4V.9l4,.46a.74.74,0,0,1,.63.78.72.72,0,0,1-.36.62l-1,.51V7.75h3.2L17.72,5.1l2.92,2.65a.68.68,0,0,1,.23.47c0,.31-.19.58-.39.58h-8.1v3.86h2.73l1.05-1.87,2.69,2.76a1.43,1.43,0,0,1,.39.82.57.57,0,0,1-.32.51l-.54.35V24c0,.31-.23.5-.78.74a7.72,7.72,0,0,1-1.91.39c-.39,0-.58-.12-.58-.35V23.48H12.38v4.25H16l2.22-2.81,3.23,2.69c.62-2,.89-5.76.89-12.19,0-2-.11-7.59-.27-12.81l3.62,1.67h5.57l1.4-2.1,3,3.27a1.18,1.18,0,0,1,.31.74.78.78,0,0,1-.39.66l-.78.39V32.55c0,1.76-.27,2.26-1.48,3a5.77,5.77,0,0,1-2.61.78c-.58,0-.62,0-.89-1.67,0-.24,0-.39-.08-.39s-.19-.16-1.48-.55c-.7-.19-1.52-.43-1.56-.43l-.78-.27a3.14,3.14,0,0,1-.58-.16c-.27-.07-.39-.15-.39-.31s0-.23,1.44-.23h.94c3.89,0,4.32-.12,4.36-1.29V22.86H25.16c-.24,3.93-.59,5.33-1.72,7.16a16.19,16.19,0,0,1-6.54,5.69,8.24,8.24,0,0,1-2.41,1,.32.32,0,0,1-.32-.35c0-.16.12-.27.39-.47C18,33.76,19.9,31.66,21,28.78H12.38v6.69c0,.63-1,1.1-2.37,1.1-.59,0-.82-.16-.82-.59v-7.2H5.61c-1.6,0-2.22,0-4.36.11L.39,27.57c2.73.12,3.82.16,5.22.16H9.19V23.48H6.62v1.64c0,.54-1,1-2.49,1-.51,0-.7-.16-.7-.55V10.94l3.38,1.72H9.19V8.8h-4C3.47,8.8,3,8.8.9,8.92Zm15.11,9.86V13.71H6.62v3.74Zm0,5V18.5H6.62v3.93Zm10.28-6.54c0,2,0,3.39-.08,3.85,0,.27,0,1.13-.08,2.07H31.7V14.17H25.39Zm0-2.77H31.7V5.33H25.39Z"/><path class="cls-1" d="M53.47,13.55c-3.27,2.14-6.85,4-7.63,4a.26.26,0,0,1-.27-.23c0-.2.19-.39.58-.62A49.9,49.9,0,0,0,61.85,0l4.36,1.71a.64.64,0,0,1,.39.55.74.74,0,0,1-.55.66l-.74.23c3.62,4,9.15,6.66,17.45,8.42a9.68,9.68,0,0,0-4.09,3.62c-6.82-3-10.94-6.43-14.21-11.61a68,68,0,0,1-9.12,8.49l2,1.09h3.74V8.33l4.32.43a.59.59,0,0,1,.58.59.75.75,0,0,1-.39.66l-1.12.5v2.65h4.12l1.25-2.06,3.31,3.11a1,1,0,0,1,.43.74.73.73,0,0,1-.47.7l-.82.24V24c0,.62-.15.78-.74,1a6.94,6.94,0,0,1-2,.43c-.46,0-.7-.23-.7-.62V24H63.64a15.26,15.26,0,0,0,4.71,4.83,73.3,73.3,0,0,0,7.55-7.36L78.79,24c.42.35.58.62.58.85,0,.47-.43.7-1,.67l-.28,0-1.12,0c-2.22,1.13-5.73,2.88-7.79,3.89,3.54,2.18,7.86,3.43,13.7,3.9A10.84,10.84,0,0,0,78.59,37c-8.33-2.49-13.47-6.7-16-13H57.21v7.86c3-.23,6.23-.58,8.22-.81a3.94,3.94,0,0,1,.58-.08.35.35,0,0,1,.39.35c0,.19-.15.35-.5.47-2.22.74-4,1.28-8.3,2.45-2.14.58-2.26.62-4.87,1.36l-.54,1a.86.86,0,0,1-.74.54c-.27,0-.51-.16-.78-.54l-2.69-4c2.65-.11,3.08-.15,5.49-.35Zm15.42,4.52V14.21H57.21v3.86Zm0,4.83V19.12H57.21V22.9Z"/><path class="cls-1" d="M100.37,16.78c0-2.1.07-3.58.07-4.4,0-3.62-.35-4.44-2.26-5.18-.11,0-.19-.11-.19-.19,0-.31,1.48-.82,2.45-.82a6.48,6.48,0,0,1,2.89,1c.89.59,1.2,1,1.2,1.76a6.17,6.17,0,0,1-.19,1.32,65.37,65.37,0,0,0-.7,8.53,46.62,46.62,0,0,0,7.75-4.64A3.65,3.65,0,0,0,113,11.68a1.3,1.3,0,0,0-.31-.89c-.16-.24-.2-.32-.2-.39s.2-.28.55-.28a7.25,7.25,0,0,1,2.34.51,13,13,0,0,1,2.41,2.06,1.76,1.76,0,0,1,.51,1.06c0,.54-.51.89-3,2A63.87,63.87,0,0,1,103.6,20c-.12,2.1-.12,2.41-.12,3.19,0,4.48.94,5.53,5,5.53a15.52,15.52,0,0,0,7.64-1.56c2.18.16,4.13,1.25,4.13,2.26,0,.74-.59,1.32-1.76,1.67a32.72,32.72,0,0,1-8,.86c-5,0-7.16-.66-8.72-2.76-1.13-1.56-1.44-3.16-1.44-7.87Zm20.56-9a1.63,1.63,0,0,1-1.72,1.48c-.58,0-.78-.2-1.32-1.17a6,6,0,0,0-3.39-2.61c-.15,0-.27-.16-.27-.27,0-.31.58-.47,1.63-.47C118.51,4.79,120.93,6.23,120.93,7.83Zm4.71-2.92a1.71,1.71,0,0,1-1.72,1.51c-.58,0-.77-.15-1.4-1.2a5.68,5.68,0,0,0-3.39-2.53.39.39,0,0,1-.27-.28c0-.27.74-.5,1.68-.5C123.15,1.91,125.64,3.39,125.64,4.91Z"/><path class="cls-1" d="M156.21,18.54c0-.55-.27-.9-.66-.9A14.72,14.72,0,0,0,151.11,19a8.85,8.85,0,0,1-2.8.9,2.26,2.26,0,0,1-1.36-.51A2.54,2.54,0,0,1,145.7,17c0-.63.16-.9.47-.9.15,0,.15,0,.43.47a2.08,2.08,0,0,0,1.71.74,38,38,0,0,0,6.19-1.13,11.68,11.68,0,0,0,2.3-1c.43-.28.54-.31.7-.31s.27,0,2,1.24c1.2.86,1.44,1.09,1.44,1.44s-.16.47-1,1.17c-.93,3.12-1.28,4.6-2,7.79,1-.12,1.94-.2,2.26-.24a14.17,14.17,0,0,0,4.36-.89,1.84,1.84,0,0,1,.54-.12c1,0,3.16,2.07,3.16,3,0,.47-.51.86-1.17.86a6.55,6.55,0,0,1-1.13-.2,41.9,41.9,0,0,0-7.13-.62,63.36,63.36,0,0,0-9.58.94,10.92,10.92,0,0,0-2.65.81,3.56,3.56,0,0,1-4.59-.39c-.78-.62-1-.93-1-1.36,0-.62.23-1.17.47-1.17.07,0,.07,0,.19.2a3.72,3.72,0,0,0,2.53.66c.39,0,.39,0,3.27-.31,2.69-.31,4.91-.59,5.18-.59.82-.07,1.68-.19,2.53-.27A69.6,69.6,0,0,0,156.21,18.54Z"/><path class="cls-1" d="M195.16,21.11a2,2,0,0,1-1.79,2.18,1.07,1.07,0,0,1-1.05-.86,10.45,10.45,0,0,0-3.54-5.26c-.35-.23-.43-.31-.43-.46s.11-.24.5-.24C192.24,16.47,195.16,18.65,195.16,21.11Zm2.85,11c-2.38,1.48-6.55,3.12-8,3.12-.19,0-.39-.16-.39-.31s0-.2,1-.59a31.25,31.25,0,0,0,10.71-8.29c3.07-3.7,5.18-8.26,5.18-11.33a2.64,2.64,0,0,0-.51-1.68c-.39-.35-.39-.35-.39-.42,0-.24.27-.39.62-.39A4,4,0,0,1,209,13.55a6.33,6.33,0,0,1,1.9,2.69c0,.27-.07.35-.73,1.05A31.89,31.89,0,0,1,198,32.16Zm3.58-13.62a2.08,2.08,0,0,1-2,2.14c-.66,0-1-.39-1.25-1.44-.62-2.53-2.14-4.79-3.66-5.53-.19-.08-.27-.2-.27-.31s.2-.24.43-.24C198.12,13.16,201.59,16,201.59,18.54Z"/><path class="cls-1" d="M242.44,29.44c-3.15,1.83-8.13,3.66-10,3.66-.24,0-.39-.12-.39-.27s.11-.24.35-.32a27.83,27.83,0,0,0,12.69-8.76,24.49,24.49,0,0,0,5.42-9.23,12,12,0,0,0,.74-2.95c0-.63-.36-.86-1.25-.86A48.58,48.58,0,0,0,242.33,12a16.27,16.27,0,0,0-4.67,1.64,1.67,1.67,0,0,1-.63.23,5.15,5.15,0,0,1-2.37-1.13,3.65,3.65,0,0,1-1.33-3.11c0-.31.12-.55.31-.55s.16.08.32.27a3.54,3.54,0,0,0,3,1.13,92.26,92.26,0,0,0,10-1.2,11.28,11.28,0,0,0,4.64-1.56c.78-.47,1-.55,1.32-.55s1.09.35,3.31,1.91c.82.55,1.36,1.09,1.36,1.33s-.35.66-1.79,1.63C252.06,21,248.25,26.05,242.44,29.44Z"/><path class="cls-1" d="M288.09,27.92a42.78,42.78,0,0,0,.2-5c0-4.17-.12-4.64-1.09-4.64a16.4,16.4,0,0,0-2.69.43,6.64,6.64,0,0,0-1.83.59,3,3,0,0,1-.35.07c-1.17,0-2.42-1.55-2.42-3,0-.39.08-.54.28-.54s.07,0,.39.39a3.42,3.42,0,0,0,2.14.58c.74,0,.74,0,5.41-.46a19.46,19.46,0,0,0,6.31-1.41,2.81,2.81,0,0,1,1.05-.35,5,5,0,0,1,2.38,1.13c.62.47.93.9.93,1.33a.91.91,0,0,1-.93.85h-.39l-.47,0c-2-.07-2-.07-2.57-.07-1.25,0-2.38,0-3.78.15.9.55,1.44,1.05,1.44,1.33a1.24,1.24,0,0,1-.15.5c-.51,1.64-.7,3.27-.82,7.91,6.54-.66,6.89-.74,8.6-1.29a1.08,1.08,0,0,1,.35,0c1.45,0,3.9,1.87,3.9,2.92a1.14,1.14,0,0,1-1.13,1.05,9,9,0,0,1-1.64-.27,33.92,33.92,0,0,0-7-.7c-5.81,0-9.7.55-13.13,1.79a4,4,0,0,1-1.48.31c-.62,0-.62,0-2.41-1.16-.9-.55-1.21-1-1.21-1.52s.16-1.09.39-1.09.16,0,.23.19c.32.43,1.25.66,2.61.66.78,0,.78,0,4.87-.23l3-.27Z"/><path class="cls-1" d="M336.35,4.4C338,5,338,5,338,5.45c0,1-.93,1.6-4.79,2.73-1.79,3.54-2.41,4.71-4,7.4a5.62,5.62,0,0,1,2.07-.47,4.26,4.26,0,0,1,2.8,1c.66.59,1,1.36,1.21,3,2.45-6,5.76-8.88,10.08-8.88,3.12,0,5.37,1.79,5.37,4.28,0,1.48-1,2.46-3.69,3.39a71.68,71.68,0,0,0-10.83,4.4c.08,2.26.12,2.88.12,3.58,0,1.72-.74,2.5-2.42,2.5-.5,0-.93-.32-.93-.67a1.64,1.64,0,0,1,0-.42,7.65,7.65,0,0,0,.08-1.25l0-1.56v-.74a13.7,13.7,0,0,0-2.68,2.14,4.61,4.61,0,0,0-1.33,2.92c0,1.72,1.72,2.5,5.45,2.5a23.37,23.37,0,0,0,6-.86,4.47,4.47,0,0,1,1.17-.27,2.27,2.27,0,0,1,1.67.7,3.39,3.39,0,0,1,.82,1.75c0,.86-.82,1.52-2.41,1.91a31.57,31.57,0,0,1-5.92.54,13.7,13.7,0,0,1-6.58-1.28,5,5,0,0,1-2.77-4.21c0-1.63.94-3.19,2.88-4.75A31.47,31.47,0,0,1,333,22.55v-.78l0-1.68c0-2.57-.7-3.85-2-3.85A4.43,4.43,0,0,0,328.17,18c-.43.55-2.45,3.58-3.27,4.95-.55.89-1,1.32-1.56,1.32-.86,0-2-1.79-2-3.23,0-.59.08-.7,1.21-1.56,4.44-3.62,6.19-6,7.63-10.47a18,18,0,0,1-3.46.54,3.44,3.44,0,0,1-3.35-3,.18.18,0,0,1,.16-.19.64.64,0,0,1,.31.19c.46.51,1.13.7,2.53.7a10.68,10.68,0,0,0,4.12-.85,4.58,4.58,0,0,0,.16-1.21c0-1.64-.62-2.8-1.52-2.84-.19,0-.27-.08-.27-.2,0-.31,1.25-.7,2.26-.7A3.12,3.12,0,0,1,333,2a2.66,2.66,0,0,1,1,2.46,4.28,4.28,0,0,1-.12,1,3.37,3.37,0,0,0,1.83-1.24Zm-.43,16.51c10.2-5.88,10.2-5.88,10.2-7a2.14,2.14,0,0,0-2-2.06c-2.33,0-4.67,1.79-6.62,5.06A9.52,9.52,0,0,0,336,20.72v.07Z"/><path class="cls-1" d="M397.8,23.79a.89.89,0,0,1,.43.7c0,.31-.19.47-.51.47h-15.1c3.27,3.5,9.18,6.15,15.92,7.13a12.12,12.12,0,0,0-3.5,3.58c-5.53-2.26-10.36-5.92-13.05-9.89V35.4c0,.19-.19.35-.62.54a7.69,7.69,0,0,1-2.22.66.51.51,0,0,1-.51-.58V27.53a39.94,39.94,0,0,1-10.74,6.35,33.64,33.64,0,0,1-5.61,1.87c-.16,0-.27-.08-.27-.24s.07-.27,1.36-.89A41.72,41.72,0,0,0,376.19,25H370c-1.71,0-3.19,0-6.78.2l-.89-1.52c4.52.19,6,.23,7.67.23h8.68V19.31h-1.59v1.17c0,.66-1.25,1.25-2.61,1.25-.51,0-.63-.16-.63-.78V4.71l3.86,1.6h.51A48.15,48.15,0,0,0,379,.58l3.78,1c.43.11.66.31.66.58s-.19.51-.7.74l-.62.31a1.71,1.71,0,0,0-.27.27c-.32.39-.59.78-.9,1.13s-.78.9-1.13,1.37l-.27.31h3.93l1.29-1.79,2.92,3.07a1.28,1.28,0,0,1,.46.82c0,.23-.19.47-.66.7l-.54.35V20.05c0,.51-1.48,1.13-2.61,1.13-.47,0-.66-.15-.66-.58V19.31H382v4.56h10.17l2.29-2.57Zm-35.32-5.25a66.51,66.51,0,0,0,9.11-3.82c1.17-.59,1.41-.7,1.6-.7a.29.29,0,0,1,.31.27c0,.39-3.42,3.58-6.42,6l-.16.78c-.08.7-.35,1-.85,1-.24,0-.51-.16-.86-.54Zm5.1-13.13c2.18,1,3.55,2.77,3.55,4.67a1.91,1.91,0,0,1-1.87,2.15,1.5,1.5,0,0,1-1.36-.82,18.14,18.14,0,0,1-.74-2.1,6.69,6.69,0,0,0-2.65-3.86c-.31-.23-.43-.39-.43-.54s.19-.32.51-.32A12.07,12.07,0,0,1,367.58,5.41ZM383.71,12V7.36h-6.66V12Zm0,6.23V13.08h-6.66v5.18ZM395.15,7.75c-3.15,2.49-6.69,4.94-7.2,4.94a.21.21,0,0,1-.2-.23c0-.16.12-.35.43-.74a45.06,45.06,0,0,0,5-8.18L396.05,6a1.18,1.18,0,0,1,.54.85c0,.28-.27.55-.66.67Zm-2.57,7c2.69.9,4.25,2.37,4.25,4.09a1.71,1.71,0,0,1-1.75,1.79c-.59,0-1-.27-1.6-1.17a19.18,19.18,0,0,0-4.91-4.79c-.39-.27-.46-.39-.46-.51s.15-.23.46-.23A18.55,18.55,0,0,1,392.58,14.72Z"/><path class="cls-1" d="M422.26,7.2c0,.67-.07.94-.77,3.08A90,90,0,0,0,419.69,24c0,4.67,2.22,7.24,6.31,7.24a15.64,15.64,0,0,0,9.5-3.43,18,18,0,0,0,3.59-3.54c.07-.16.15-.2.23-.2s.19.12.19.28a15,15,0,0,1-2.25,4.05c-3.16,4.16-7.05,6.38-11.26,6.38-6.07,0-9.27-3.81-9.27-11,0-1.4,0-1.67.55-11.48.16-2.54.23-4.33.23-4.83,0-2.77-.7-4.21-2.14-4.36a.17.17,0,0,1-.19-.16c0-.31,1.05-.66,1.87-.66C419.62,2.26,422.26,4.75,422.26,7.2Z"/><path class="cls-1" d="M480.22,19.51a.18.18,0,0,1-.2-.16c0-.11.08-.19.31-.31,2.38-1,3.2-1.48,3.2-1.91a7.11,7.11,0,0,0-1.95-3.42,4.18,4.18,0,0,0-2.69-1.44c-1.09,0-1.63,1-1.63,3a44,44,0,0,0,1,8.91,7.1,7.1,0,0,0,2.26,4.13,2.59,2.59,0,0,1,.19.94c0,3-5.22,5.33-12,5.33-5,0-7.48-1.71-7.48-5.06a11.58,11.58,0,0,1,.59-3.23,2.23,2.23,0,0,1-1.8,1c-1.55,0-2.72-1.87-2.72-4.48a8,8,0,0,1,2.53-6.11,4.64,4.64,0,0,1,3.12-1,24.67,24.67,0,0,0,.23-2.85,18.88,18.88,0,0,1-4.52.7,3.37,3.37,0,0,1-3.35-2,6,6,0,0,1-.46-2c0-.12.07-.19.15-.19s.12.07.31.31A3.53,3.53,0,0,0,458.45,11a23,23,0,0,0,4.91-.7c0-1.67,0-1.67,0-2,0-2.92-.7-4.43-2.1-4.51-.35,0-.43,0-.43-.2,0-.39,2.11-1.28,3-1.28a3.72,3.72,0,0,1,2.46,1.36,3.59,3.59,0,0,1,1.16,1.83,1.47,1.47,0,0,1-.15.62,19.76,19.76,0,0,0-.82,3.39,3.57,3.57,0,0,0,1.87-1.63c1.91.27,3.15,1,3.15,1.79,0,.46-.35.74-1.24,1.13a26,26,0,0,1-4.32,1.4c-.24,1.56-.32,1.91-.59,4a2.17,2.17,0,0,1,1.21,2c0,1.86-.9,4.55-2.65,7.75a7.62,7.62,0,0,0-.93,3.34c0,1.64,1.51,2.61,4.12,2.61s6.35-.62,7.52-1.28c1.4-.78,1.83-1.6,1.83-3.43,0-1.09,0-1.09-.16-4.94-.23-5.92-.23-5.92-.23-7,0-2.89,1.13-4.21,3.58-4.21,4.21,0,8,3.58,8,7.56A2.21,2.21,0,0,1,485.51,21c-.66-1.05-1.94-1.6-3.77-1.6h-.43l-.51,0a2.37,2.37,0,0,0-.51,0Zm-19.71-1.05a9.67,9.67,0,0,0-.7,3.85c0,1.56.47,2.53,1.21,2.53.54,0,.66-.27,1.21-2.88a21.46,21.46,0,0,0,.58-4.16c0-.67-.12-.9-.43-.94C461.84,16.82,461,17.56,460.51,18.46Z"/><path class="cls-1" d="M509.08,21.26a7.69,7.69,0,0,1-1.71,5.06c-1.29,1.6-3,2.65-4.25,2.65A2,2,0,0,1,501.17,27a1.6,1.6,0,0,1,1.09-1.55c3.2-1.44,5.38-3.66,6-6.19.08-.2.12-.24.27-.24C508.92,19,509.08,19.7,509.08,21.26Zm5.37-6.77a22.54,22.54,0,0,0-7.94,2,1.78,1.78,0,0,1-.94.39c-1.48,0-3.85-2.37-3.85-3.85a.7.7,0,0,1,.43-.74c.66,1,1.56,1.28,3.93,1.28a82.85,82.85,0,0,0,8.33-.7c0-.86-.07-1.56-.07-1.83-.12-4.24-.51-5.26-2-5.37-.35,0-.47-.08-.47-.24,0-.39,1.6-1,2.46-1a4.23,4.23,0,0,1,2.45,1.13c1.25.93,1.6,1.32,1.6,1.71a2.35,2.35,0,0,1-.24.82c-.47,1-.58,1.71-.66,4.4,4.28-.47,5.76-.78,7.59-1.63a2.42,2.42,0,0,1,1-.28c1.44,0,3.93,1.6,3.93,2.53,0,.67-.58,1.13-1.4,1.13a12.79,12.79,0,0,1-1.37-.11,40.45,40.45,0,0,0-4.4-.28,38.48,38.48,0,0,0-5.49.35c0,2.26.08,7.37.28,12.08,0,1.13.07,2.22.07,2.84a4.91,4.91,0,0,1-1.09,3,3.15,3.15,0,0,1-2.41,1.36c-.62,0-.78-.16-.9-.82a8.83,8.83,0,0,0-3-5.21c-.19-.2-.31-.36-.31-.47a.35.35,0,0,1,.24-.28c.11,0,.27.08.66.36a16.31,16.31,0,0,0,2.72,1.44c.39,0,.74-.67.74-1.44Zm15.93,11.29a2.15,2.15,0,0,1-2.14,2.37c-1,0-1.56-.62-2-2.22-1-3.35-3.11-6-5.6-7-.36-.12-.43-.2-.43-.32s.43-.39,1.09-.39C525.86,18.18,530.38,22,530.38,25.78Zm.7-21.26a3.94,3.94,0,1,1-3.85-3.9A3.92,3.92,0,0,1,531.08,4.52Zm-6.35,0a2.42,2.42,0,1,0,4.83,0,2.45,2.45,0,0,0-2.37-2.42A2.4,2.4,0,0,0,524.73,4.48Z"/><path class="cls-1" d="M564.62,33.22c0,1.16-.63,2.1-1.41,2.1-.93,0-3.23-2.14-3.23-3,0-.23,0-.23.35-1.24a16.54,16.54,0,0,0,.66-5.22c.16-3.74.2-5.34.2-7.28a5.42,5.42,0,0,0-.27-2.26c-5.22,4.9-7,6.23-11,7.94a17.8,17.8,0,0,1-3.78,1.32.29.29,0,0,1-.31-.27c0-.19,0-.19.74-.54,7.16-3.66,17.68-15.31,17.68-19.63a1.64,1.64,0,0,0-.94-1.67c-.15-.08-.23-.16-.23-.24s.39-.35,1.13-.35c1.24,0,2,.39,3.19,1.64,1.4,1.4,2,2.22,2,2.72,0,.28-.16.47-.51.67a3.83,3.83,0,0,0-1.36,1.24c-1.17,1.4-2.38,2.77-5.06,5.65.38.19.77.39.89.43,1.29.58,1.52.77,1.52,1.16,0,.24,0,.24-.35.82a11.52,11.52,0,0,0-.27,2.57s.07,3.27.15,6.86.2,5.37.2,5.41Z"/><path class="cls-1" d="M603.84,13A2.15,2.15,0,0,1,601.7,15c-.78,0-1.13-.31-1.68-1.48a11.38,11.38,0,0,0-5.69-5.22c-.31-.08-.42-.15-.42-.27,0-.31,1-.51,2.37-.51C600.06,7.55,603.84,10.28,603.84,13Zm17.71-5c0,.63-2.14,4.36-3.77,6.58a58.29,58.29,0,0,1-16.59,15.07,4.67,4.67,0,0,0-.74.51c-.24.19-.47.43-.74.62a1.11,1.11,0,0,1-.55.24,5.14,5.14,0,0,1-2.72-1.64c-1.48-1.4-2-2.22-2-3.07s.24-1.56.55-1.56c.12,0,.15,0,.35.39a3.18,3.18,0,0,0,2.3.93c2.1,0,5.72-1.91,10-5.26,5.1-4,10.74-9.46,13.12-12.61.27-.31.43-.47.58-.47A.33.33,0,0,1,621.55,7.94Z"/><path class="cls-1" d="M651.12,25.16c0,1.36,0,2.64.08,3.11.11,1.6.15,2.92.15,3.43,0,2-.78,3.5-1.75,3.5s-2.76-2.45-2.76-3.89a11.64,11.64,0,0,1,.39-2.18,100.81,100.81,0,0,0,.54-10.36c0-2.61-.19-10.16-.27-11.25-.2-2.42-.59-2.93-2.46-2.93-.19,0-.31-.07-.31-.27,0-.5,2.34-1.59,3.47-1.59.86,0,1.71.5,2.8,1.63a3.71,3.71,0,0,1,1,1.79c0,.27,0,.35-.54,1.52A28,28,0,0,0,651,14c3.66.31,5.81.89,7.95,2.26,1.94,1.24,3.23,2.92,3.23,4.32a2,2,0,0,1-2.06,2.06,2.38,2.38,0,0,1-1.8-.81A12.21,12.21,0,0,1,657,20a13.71,13.71,0,0,0-6.12-5.21l.08,3.54,0,3.19Z"/></g></g></svg>