<svg xmlns="http://www.w3.org/2000/svg" viewBox="0 0 549.99 51.46"><defs><style>.cls-1{fill:#343434;}</style></defs><title>other-menu</title><g id="Layer_2" data-name="Layer 2"><g id="Layer_1-2" data-name="Layer 1"><path class="cls-1" d="M0,10.53c3.67.16,5,.22,7.24.22h5.5V1.24l5.51.65A1,1,0,0,1,19.12,3a1,1,0,0,1-.49.86l-1.46.71v6.21H21.6l3-3.68,4.05,3.68a.9.9,0,0,1,.32.64c0,.44-.27.81-.54.81H17.17v5.35H21L22.41,15l3.73,3.83a2,2,0,0,1,.54,1.14.79.79,0,0,1-.44.7l-.75.48V33.26c0,.44-.33.71-1.08,1a10.49,10.49,0,0,1-2.65.54c-.54,0-.81-.16-.81-.49V32.56H17.17v5.89h5l3.08-3.89,4.48,3.73c.86-2.76,1.24-8,1.24-16.91,0-2.75-.16-10.53-.38-17.76l5,2.32h7.72L45.25,3l4.21,4.54a1.59,1.59,0,0,1,.44,1,1.11,1.11,0,0,1-.54.91L48.28,10v35.1c0,2.44-.38,3.14-2.06,4.22a8,8,0,0,1-3.61,1.08c-.81,0-.87-.06-1.25-2.32,0-.33,0-.54-.1-.54s-.27-.22-2.06-.76c-1-.27-2.1-.6-2.16-.6L36,45.85a4.88,4.88,0,0,1-.81-.22c-.37-.11-.54-.21-.54-.43s.06-.32,2-.32h1.3c5.4,0,6-.17,6.05-1.79V31.7H34.88c-.32,5.45-.81,7.4-2.37,9.93-1.89,3.08-4.81,5.62-9.07,7.89A11.81,11.81,0,0,1,20.09,51a.44.44,0,0,1-.43-.49c0-.21.16-.38.54-.65,4.69-3,7.39-5.94,9-9.93h-12V49.2c0,.86-1.35,1.51-3.29,1.51-.81,0-1.14-.22-1.14-.81v-10h-5c-2.22,0-3.08.05-6.05.16L.54,38.23c3.78.16,5.29.22,7.24.22h5V32.56H9.18v2.27c0,.76-1.46,1.35-3.46,1.35-.7,0-1-.22-1-.76V15.17l4.7,2.38h3.29V12.2H7.24c-2.43,0-3.14,0-6,.17ZM21,24.19V19H9.18v5.18Zm0,6.91V25.65H9.18V31.1ZM35.21,22c-.06,2.81-.06,4.7-.11,5.35,0,.38-.05,1.56-.11,2.86h9V19.66H35.21Zm0-3.83H44V7.4H35.21Z"/><path class="cls-1" d="M74.14,18.79c-4.53,3-9.5,5.56-10.58,5.56a.36.36,0,0,1-.38-.32c0-.27.27-.54.81-.86A69,69,0,0,0,85.75,0l6,2.38a.87.87,0,0,1,.54.75,1,1,0,0,1-.76.92l-1,.32c5,5.51,12.69,9.24,24.19,11.67-3.24,1.89-4.16,2.75-5.67,5C99.63,16.85,93.91,12.15,89.37,5A94.6,94.6,0,0,1,76.73,16.74l2.76,1.51h5.18V11.56l6,.59a.83.83,0,0,1,.81.81,1.05,1.05,0,0,1-.54.92l-1.57.7v3.67h5.72l1.73-2.86,4.59,4.32a1.4,1.4,0,0,1,.6,1,1,1,0,0,1-.65,1l-1.14.32V33.21c0,.86-.21,1.08-1,1.35a9.38,9.38,0,0,1-2.7.59c-.65,0-1-.32-1-.86V33.21H88.24a21.17,21.17,0,0,0,6.53,6.7A101.06,101.06,0,0,0,105.25,29.7l4,3.56c.6.49.81.87.81,1.19,0,.65-.59,1-1.4.92l-.38,0-1.56-.06c-3.08,1.57-7.94,4-10.81,5.4,4.92,3,10.91,4.76,19,5.4A15.05,15.05,0,0,0,109,51.3C97.42,47.84,90.29,42,86.78,33.21H79.33V44.12c4.21-.33,8.64-.81,11.39-1.14a5.89,5.89,0,0,1,.81-.1.5.5,0,0,1,.54.48c0,.27-.22.49-.7.65-3.08,1-5.51,1.78-11.5,3.4-3,.81-3.14.87-6.75,1.89l-.76,1.41a1.19,1.19,0,0,1-1,.75c-.37,0-.7-.21-1.08-.75l-3.72-5.57c3.67-.16,4.26-.21,7.61-.48Zm21.39,6.27V19.71H79.33v5.35Zm0,6.69V26.51H79.33v5.24Z"/><path class="cls-1" d="M126.58,37.91c2.32-.43,2.53-.49,6.91-1.57V6.05l5.51.7a1.21,1.21,0,0,1,1.24,1.19,1.15,1.15,0,0,1-.7,1l-1.08.65V35.05c2.64-.6,5.13-1.35,13.39-3.89a7,7,0,0,1,1.78-.43.44.44,0,0,1,.49.43c0,.43-.44.65-3.78,2.32-4.11,1.94-10.37,4.86-17.23,7.83l-.54,1.46c-.22.59-.59,1-1,1a1.56,1.56,0,0,1-1.13-.65Zm40.77-30.4c-.22,14.47-1.52,22.62-4.43,28.56,4.91,2,6.86,3.13,9.07,5.4a8.1,8.1,0,0,1,2.7,5.57,2.4,2.4,0,0,1-2.38,2.64,2.08,2.08,0,0,1-1.45-.59c-.65-.6-.65-.6-2.49-4.11a20,20,0,0,0-6.15-7.61c-3.24,4.86-6.43,7.34-12.59,9.83-3.51,1.4-10.63,3.29-12.47,3.29-.38,0-.59-.16-.59-.43s.37-.6,1.62-1c10.9-3.3,17.11-7.78,20.46-14.64,2.7-5.24,3.46-11.93,3.57-30.83l6.21.92a1.19,1.19,0,0,1,1.13,1.18,1.17,1.17,0,0,1-.59,1ZM149.9,9.67c2.92,2.16,4.7,5,4.7,7.66,0,1.84-1,3-2.59,3-1.4,0-1.89-.65-2.92-4a16,16,0,0,0-5.18-8.53,1.39,1.39,0,0,1-.32-.49c0-.27.21-.43.48-.48C144.77,6.8,148.18,8.42,149.9,9.67Z"/><path class="cls-1" d="M224.32,27.22c4.42,3.51,8.91,5.77,15.82,7.88A14.85,14.85,0,0,0,235.28,40a43.84,43.84,0,0,1-11-7.51V49c0,.6-.22.92-.92,1.14a13.31,13.31,0,0,1-3.13.7c-.65,0-.87-.33-.87-1.19V26.84a31,31,0,0,1-4.64-10.69c-1.89,7.07-3.35,11-5.56,15.12-3.46,6.37-7.08,10-14,14.2a32.88,32.88,0,0,1-5.56,2.65c-.22,0-.33-.11-.33-.28s.22-.48.65-.8c6.91-4.6,11.4-9.56,14.53-16a6.28,6.28,0,0,1-.81.1c-1,.06-1.73-.64-2.43-2.37-1.57-3.89-2.16-4.86-4.16-6.43C195,26.14,190,32.24,189,32.24a.3.3,0,0,1-.27-.33c0-.32.22-.75.81-1.62,4.86-7.5,8.15-17.87,9.07-28.29L205,3.73a1.07,1.07,0,0,1,.81,1c0,.48-.27.75-.91,1l-1.25.54c-.81,2.54-.91,2.92-1.72,5.24H210l1.78-3.18,4.59,3.88c.38.33.54.54.54.87a.75.75,0,0,1-.54.7l-.81.27a22.15,22.15,0,0,0,3.83,8.05V2l5.67.54c.7.11,1.19.54,1.19,1.13a1.09,1.09,0,0,1-.76,1l-1.18.59ZM201.42,13a86.85,86.85,0,0,1-3.83,8.48c5,.65,7.77,2.64,8.42,6.15A79.06,79.06,0,0,0,209.9,13Z"/><path class="cls-1" d="M278.48,15.88a34.81,34.81,0,0,1-5.4,17.55c-3.19,5-7.89,8.8-10.86,8.8-1.4,0-3.24-1.19-4.53-3a14,14,0,0,1-2.65-8.7c0-11.88,10.86-22.08,23.49-22.08,6.05,0,11.72,2.21,15.18,5.94A16.26,16.26,0,0,1,298,25.81a19.89,19.89,0,0,1-10,17.28,33.17,33.17,0,0,1-10,3.67,23.13,23.13,0,0,1-3.45.65c-.33,0-.54-.11-.54-.32s.16-.33,1-.59a29,29,0,0,0,9.67-5c4.7-3.83,6.91-8.75,6.91-15.39,0-7.23-2.43-12.15-7.13-14.52a12.91,12.91,0,0,0-5.56-1.3c-.16,0-.54,0-1.13.05A20.73,20.73,0,0,1,278.48,15.88Zm-12.21-.49a21.15,21.15,0,0,0-6.37,15.07c0,3.18,1.46,6,3.13,6s4.76-2.81,7-6.37c3.46-5.35,5.51-11.34,5.51-16.15a13.26,13.26,0,0,0-.32-3c-.05-.11-.05-.22-.11-.38C270.92,11.88,268.76,13.07,266.27,15.39Z"/><path class="cls-1" d="M354,32.51a2.74,2.74,0,0,1-2.7,2.86c-1,0-1.35-.32-2.59-2.16a31.36,31.36,0,0,0-4.16-5.29c-5.4,6.64-9.61,10.31-15.06,13.44-3.19,1.79-9.34,4.32-10.53,4.32a.47.47,0,0,1-.43-.48c0-.27.21-.43,1.62-1.14,7.23-3.83,14.68-10.63,21.06-19.27-3.89-3.57-6.48-5.24-10.05-6.43-.92-.27-1.19-.43-1.19-.76s.38-.48.92-.48c3.51,0,8.43,1.56,12.53,4.05,2.16-4.32,3.29-7.89,3.29-10.15a4.72,4.72,0,0,0-1.51-3.78c-.11-.11-.16-.17-.16-.22,0-.27.43-.54.76-.54a10,10,0,0,1,4.59,2.11c1.78,1.35,3.4,3.34,3.4,4.15,0,.38-.16.6-.76,1s-.65.59-1.35,2.05a64.22,64.22,0,0,1-4.37,8.05C352,27.32,354,30,354,32.51Z"/><path class="cls-1" d="M380.92,32.83c.81.92,3,1.46,6,1.46,2.86,0,12-.86,22.36-2.16A22.68,22.68,0,0,0,417.64,30a5.32,5.32,0,0,1,1.46-.37c.59,0,1.67.59,4.15,2.37,1.41,1,2,1.84,2,2.86,0,.81-.65,1.35-1.62,1.35a20,20,0,0,1-2.16-.21,45.73,45.73,0,0,0-8.32-.65c-10.15,0-19.81,1.3-25.32,3.35a6.42,6.42,0,0,1-2.16.54c-2.38,0-5.78-3.73-5.78-6.37a.49.49,0,0,1,.49-.49C380.54,32.4,380.59,32.45,380.92,32.83Zm33.15-16.68c0,.86-.7,1.18-3.62,1.62-3.61.54-4.91.7-7.77,1.24-5.19.92-6,1-7.45,1-2,0-3.14-.81-4.59-3a4.53,4.53,0,0,1-1-2c0-.11.11-.21.28-.21s.1,0,.37.21a10.52,10.52,0,0,0,4.48,1.14,54.49,54.49,0,0,0,9.51-1.41c1.3-.38,1.3-.38,4.16-1.94C411.64,13.23,414.07,14.69,414.07,16.15Z"/><path class="cls-1" d="M467.15,25.7c0-.75-.37-1.24-.91-1.24a20.26,20.26,0,0,0-6.16,1.89c-2.43,1-3.19,1.24-3.89,1.24a3.15,3.15,0,0,1-1.89-.7,3.55,3.55,0,0,1-1.73-3.35c0-.86.22-1.24.65-1.24.22,0,.22,0,.6.65a2.9,2.9,0,0,0,2.37,1,52,52,0,0,0,8.59-1.57A14.83,14.83,0,0,0,468,21.06c.6-.38.76-.43,1-.43s.37.05,2.75,1.73c1.67,1.18,2,1.51,2,2s-.22.65-1.35,1.62c-1.3,4.32-1.78,6.38-2.76,10.8,1.41-.16,2.7-.27,3.14-.32a19.51,19.51,0,0,0,6-1.24,2.58,2.58,0,0,1,.75-.16c1.35,0,4.38,2.86,4.38,4.1,0,.65-.71,1.19-1.63,1.19a9.47,9.47,0,0,1-1.56-.27,57.86,57.86,0,0,0-9.88-.87,88.76,88.76,0,0,0-13.29,1.3,15.42,15.42,0,0,0-3.67,1.13,7.29,7.29,0,0,1-3,.92,7.21,7.21,0,0,1-3.4-1.46c-1.08-.86-1.46-1.29-1.46-1.89,0-.86.32-1.62.65-1.62.11,0,.11,0,.27.27.27.49,1.83.92,3.51.92a45.48,45.48,0,0,0,4.53-.43c3.73-.43,6.81-.81,7.19-.81,1.13-.11,2.32-.27,3.51-.38A97.64,97.64,0,0,0,467.15,25.7Z"/><path class="cls-1" d="M550,27.05c0,1.08-1.08,1.79-2.75,1.79-.49,0-2.22-.17-4.54-.38-1.13-.11-2.75-.16-4.75-.16-13.5,0-21.49.75-25.54,2.37a2.07,2.07,0,0,1-.76.16A9.59,9.59,0,0,1,507,29.05a5,5,0,0,1-1.95-4.37c0-1,.27-1.51.81-1.51.16,0,.27.1.54.54.81,1.35,2.59,1.83,6.91,1.83,4.11,0,17.55-.81,21.28-1.24a43.14,43.14,0,0,0,8.59-1.84C547.72,23.38,550,25,550,27.05Z"/></g></g></svg>