<svg xmlns="http://www.w3.org/2000/svg" width="723.438" height="67.18" viewBox="0 0 361.719 33.59">
  <defs>
    <style>
      .cls-1 {
        fill: #fff;
        fill-rule: evenodd;
      }
    </style>
  </defs>
  <path id="ご予約_お問い合わせ" data-name="ご予約・お問い合わせ" class="cls-1" d="M579.827,6195.02a1.5,1.5,0,0,0-1.223.25c0,0.07.036,0.11,0.144,0.11a6.065,6.065,0,0,1,3.418,2.62c0.4,0.69.5,0.83,0.864,0.83a1.245,1.245,0,0,0,1.187-1.19C584.217,6196.31,582.058,6195.02,579.827,6195.02Zm-3.31,1.62a1.756,1.756,0,0,0-1.26.25,0.239,0.239,0,0,0,.216.18,5.955,5.955,0,0,1,3.311,2.55c0.467,0.8.539,0.87,0.9,0.87a1.253,1.253,0,0,0,1.188-1.19C580.871,6197.97,578.676,6196.64,576.517,6196.64Zm-8.348,4.5a15.193,15.193,0,0,0-3.275,2.8,0.277,0.277,0,0,0,.216.26,0.35,0.35,0,0,0,.18-0.11,14.974,14.974,0,0,1,8.2-2.85c1.763,0,2.123-.14,2.123-0.79a2.673,2.673,0,0,0-1.871-2.01,3.489,3.489,0,0,0-.864.21,16.549,16.549,0,0,1-4.246.58c-2.626,0-4.426-.94-5.073-2.59-0.108-.29-0.144-0.33-0.252-0.33a0.31,0.31,0,0,0-.288.36,4.612,4.612,0,0,0,1.727,3.17,6.953,6.953,0,0,0,3.742,1.08Zm-6.261,7.63a0.393,0.393,0,0,0-.36.32c-0.864,1.98-1.008,2.45-1.008,3.74a5.927,5.927,0,0,0,3.311,5.51c1.907,1.01,4.749,1.48,8.672,1.48a22.868,22.868,0,0,0,7.232-.94,1.063,1.063,0,0,0,.72-0.9,2.492,2.492,0,0,0-2.267-1.83,3.372,3.372,0,0,0-1.332.32,26.086,26.086,0,0,1-6.584.94c-5.686,0-8.636-1.91-8.636-5.58a8.841,8.841,0,0,1,.467-2.81,0.118,0.118,0,0,0,.036-0.07A0.214,0.214,0,0,0,561.908,6208.77Zm39.3-11.27a12.332,12.332,0,0,1,5.613,6.73h-8.1c-2.7,0-3.778-.03-7.089-0.21l0.4,1.22c3.2-.11,4.534-0.14,6.693-0.14h7.556v14.14c0,0.58-.216.72-1.007,0.76h-4.534l-0.144.57,4.21,1.12c0.36,0.11.4,0.21,0.432,0.9a0.7,0.7,0,0,0,.755.83,2.853,2.853,0,0,0,1.476-.51c1.079-.68,1.259-1.01,1.259-2.48V6205.1h10a58.4,58.4,0,0,1-6.153,6.33l0.36,0.68a70.515,70.515,0,0,0,8.024-5.29h1.4a0.857,0.857,0,0,0,1.043-.72,1.38,1.38,0,0,0-.432-0.86l-2.734-2.74-1.548,1.73H608.618a1.523,1.523,0,0,0,.612-1.15,4.19,4.19,0,0,0-.72-1.91c3.311-2.23,4.57-3.09,7.017-4.93l1.367-.04c0.684,0,1.044-.21,1.044-0.57a1.748,1.748,0,0,0-.684-1.12l-2.339-2.26-1.655,1.69H602.573c-2.627,0-3.706-.04-7.125-0.22l0.5,1.3c3.167-.15,4.426-0.18,6.621-0.18h10.615c-2.339,2.7-3.238,3.63-5.182,5.65a11.793,11.793,0,0,0-6.62-3.39Zm33.972,10.51v15.3a0.446,0.446,0,0,0,.54.47c0.936,0,1.619-.44,1.619-1.01v-15.08l3.023-.51a14.539,14.539,0,0,1,.4,1.59,3.16,3.16,0,0,0,.324,1.15,0.917,0.917,0,0,0,.683.36,1.414,1.414,0,0,0,1.332-1.55c0-2.05-1.224-3.71-4.1-5.43l-0.432.36a7.513,7.513,0,0,1,1.475,2.48l-5.649.29,6.441-7.56,0.791-.18a0.81,0.81,0,0,0,.648-0.61,0.957,0.957,0,0,0-.324-0.58l-2.3-1.87a111.435,111.435,0,0,1-6.4,10.87c-2.914.07-3.274,0.11-5,.11l1.691,2.62a0.685,0.685,0,0,0,.54.4,0.844,0.844,0,0,0,.611-0.4l0.36-.5Zm-4.426,2.81a29,29,0,0,1-1.259,9.07,9.378,9.378,0,0,0-.72,2.19,0.307,0.307,0,0,0,.288.29c0.324,0,.792-0.68,1.655-2.41a24.923,24.923,0,0,0,2.339-7.05l0.5-.33a0.8,0.8,0,0,0,.5-0.68,0.644,0.644,0,0,0-.5-0.61Zm-1.439-14.36a6.64,6.64,0,0,1,2.159,3.42c0.5,1.9.5,1.9,0.648,2.08a1.125,1.125,0,0,0,.863.4,1.484,1.484,0,0,0,1.368-1.55,4.14,4.14,0,0,0-.864-2.16l4.066-4.6,0.684-.22a0.622,0.622,0,0,0,.432-0.61,0.639,0.639,0,0,0-.252-0.51l-2.3-1.62a58.363,58.363,0,0,1-3.419,6.81,7.337,7.337,0,0,0-3.238-1.84Zm8.924,14.18a8.777,8.777,0,0,1,1.727,4.43c0.432,2.88.432,2.88,0.648,3.2a1,1,0,0,0,.791.4,1.52,1.52,0,0,0,1.368-1.66,6.935,6.935,0,0,0-.684-2.7,8.708,8.708,0,0,0-3.6-4.07Zm8.672-19.44a37.69,37.69,0,0,1-4.426,13.1,0.689,0.689,0,0,0-.144.4,0.344,0.344,0,0,0,.324.32c0.54,0,2.483-2.66,4.138-5.65h10.4c0.108,7.89.108,7.89,0.108,9.29,0,5.11-.36,8.28-1.044,9.61a2.021,2.021,0,0,1-2.2,1.12,25.132,25.132,0,0,1-3.454-.36c-0.18-.04-0.72-0.11-1.295-0.18l-0.144.68,3.418,1.26c0.252,0.11.432,0.18,0.432,0.18a0.991,0.991,0,0,1,.288.47c0.539,1.4.539,1.4,0.935,1.4a4.474,4.474,0,0,0,1.476-.36,5.359,5.359,0,0,0,2.986-3.38c0.792-2.05,1.08-5.44,1.08-12.6v-5.72l0.647-.29a0.709,0.709,0,0,0,.54-0.61,1.207,1.207,0,0,0-.4-0.72l-2.375-2.34-1.223,1.69h-9.751a40.493,40.493,0,0,0,1.8-4.32l0.791-.22a0.835,0.835,0,0,0,.756-0.82,0.616,0.616,0,0,0-.468-0.62Zm-1.943,14.15a9.75,9.75,0,0,1,3.562,5.47c0.36,1.44.72,1.91,1.475,1.91a1.639,1.639,0,0,0,1.476-1.77,6.181,6.181,0,0,0-2.3-3.92,9.849,9.849,0,0,0-3.886-2.09Zm37.427-.94a3.06,3.06,0,1,0,3.022,3.06A3.081,3.081,0,0,0,682.393,6204.41Zm34.044-1.15a24.412,24.412,0,0,1,.144-3.24c0.72,0.47.864,0.54,1.619,0.97,0.612,0.33.72,0.4,0.72,0.58C718.92,6202.07,717.949,6202.72,716.437,6203.26Zm-1.475,8.71c-0.036,1.48-.036,1.73-0.036,1.98,0,2.77,0,2.77-.108,3.1a0.48,0.48,0,0,1-.432.36,1.33,1.33,0,0,1-.791-0.47c-0.828-.69-1.044-0.83-2.555-1.95A27.674,27.674,0,0,1,714.962,6211.97Zm13.746-9.86a5.182,5.182,0,0,1,3.166,1.15,5.755,5.755,0,0,1,1.655,2.34c0.252,1.12.324,1.26,0.684,1.26a1.818,1.818,0,0,0,1.835-1.69,4.509,4.509,0,0,0-1.223-2.63,6.3,6.3,0,0,0-4.426-1.66c-1.691,0-4.174.83-4.174,1.37a0.3,0.3,0,0,0,.252.25,4.383,4.383,0,0,0,.5-0.14A5.613,5.613,0,0,1,728.708,6202.11Zm-12.271,9.21c3.922-2.34,6.045-3.13,8.492-3.13,2.7,0,4.174,1.58,4.174,4.43a5.013,5.013,0,0,1-4.965,5.29,4.151,4.151,0,0,1-2.339-.76,3.786,3.786,0,0,1-1.188-2.55,8.877,8.877,0,0,1,.18-1.69,1.189,1.189,0,0,0,.108-0.36,0.2,0.2,0,0,0-.216-0.15,0.821,0.821,0,0,0-.539.76,6.671,6.671,0,0,0-.324,1.83c0,2.96,1.691,4.72,4.534,4.72a6.888,6.888,0,0,0,7.232-7.13,5.431,5.431,0,0,0-5.685-5.72c-2.771,0-5.757,1.01-9.536,3.24-0.036-.87-0.036-1.26-0.036-1.84,0-1.04,0-1.69.072-3.24,3.958-1.36,5.434-2.3,5.434-3.45a0.8,0.8,0,0,0-.648-0.9l-0.792.03a10.091,10.091,0,0,1-3.67-1.08,5.317,5.317,0,0,1,.36-1.62,3.693,3.693,0,0,0,.18-0.64c0-.8-1.871-2.06-3.023-2.06a2.105,2.105,0,0,0-1.979,1.48,0.144,0.144,0,0,0,.144.18,1.121,1.121,0,0,0,.324-0.04,0.949,0.949,0,0,1,.324-0.03c0.971,0,1.4.47,1.583,1.65,0.108,0.83.144,1.84,0.216,5.01a8.669,8.669,0,0,1-3.814.86c-1.3,0-2.195-.36-2.3-0.93,0-.15-0.036-0.18-0.108-0.18-0.18,0-.288.36-0.288,1.04a1.715,1.715,0,0,0,.4,1.04,1.882,1.882,0,0,0,1.835.9,11.417,11.417,0,0,0,4.282-.9v2.05l0.036,2.27c0,0.11,0,.54.036,1.01-1.583.9-1.727,1.01-3.166,1.8a13.789,13.789,0,0,0-1.4.83c-1.151.75-1.763,0.9-3.994,0.97-0.864,0-1.187.22-1.187,0.83a3.359,3.359,0,0,0,2.518,2.45,1.193,1.193,0,0,0,.792-0.47,9.659,9.659,0,0,1,1.907-1.66,7.032,7.032,0,0,1,3.526,5.11c0,0.29.108,0.43,0.324,0.43a2.73,2.73,0,0,0,2.555-2.3,10.746,10.746,0,0,0-.108-1.29c-0.108-.87-0.252-3.64-0.252-5.04v-1.05Zm26.381-19.72v31.31c0,0.29.107,0.47,0.323,0.47a4.49,4.49,0,0,0,1.4-.43,0.788,0.788,0,0,0,.611-0.87v-18.89h7.737v1.73a0.35,0.35,0,0,0,.36.43,6.749,6.749,0,0,0,1.511-.36,0.658,0.658,0,0,0,.4-0.79v-9.15l0.575-.21a0.662,0.662,0,0,0,.36-0.47,1.133,1.133,0,0,0-.36-0.68l-2.159-2.02-1.151,1.58h-6.657Zm2.338,10.72v-3.74h7.737v3.74h-7.737Zm0-4.6v-3.6h7.737v3.6h-7.737Zm5.578,9.32v12.17a0.42,0.42,0,0,0,.432.5,5.048,5.048,0,0,0,1.475-.4,0.558,0.558,0,0,0,.4-0.57v-3.06h8.312v2.27a0.39,0.39,0,0,0,.432.46,5.876,5.876,0,0,0,1.4-.28,0.686,0.686,0,0,0,.5-0.69v-7.34l0.575-.11a0.62,0.62,0,0,0,.432-0.54,0.866,0.866,0,0,0-.4-0.61l-2.015-1.87-1.187,1.44h-7.736Zm2.3,7.77v-5.54h8.312v5.54h-8.312Zm6.117-23.07v13.1a0.493,0.493,0,0,0,.468.58,3.226,3.226,0,0,0,.935-0.18c0.648-.18.792-0.32,0.792-0.79v-1.26h7.628v16.16c0,0.75-.108.79-2.159,0.79-0.324,0-.971-0.04-1.907-0.07l-1.007-.04v0.61l3.562,1.08a0.775,0.775,0,0,1,.72.83c0.072,0.58.251,0.87,0.611,0.87a3.684,3.684,0,0,0,1.8-.94,1.891,1.891,0,0,0,.792-1.8v-25.23l0.684-.33a0.673,0.673,0,0,0,.36-0.57,0.876,0.876,0,0,0-.288-0.61l-2.267-2.23-1.3,1.54h-6.692Zm2.2,10.58v-3.74h7.628v3.74h-7.628Zm0-4.6v-3.6h7.628v3.6h-7.628Zm37.643,6.22a6.064,6.064,0,0,1,3.526,1.05,8.159,8.159,0,0,1,3.2,6.62c0,0.86.251,1.19,0.863,1.19a2.1,2.1,0,0,0,2.015-2.34c0-3.53-3.994-7.2-7.844-7.2-1.26,0-2.3.25-2.3,0.5,0,0.15.108,0.18,0.432,0.18h0.108Zm-17.092-6.37c1.043,0,2.087,1.51,2.087,3.03,0,0.32-.036.75-0.072,1.26-0.18,1.76-.288,3.88-0.288,5.47,0,4.75,1.439,8.67,3.922,10.62a7.524,7.524,0,0,0,3.634,1.54,1.141,1.141,0,0,0,1.26-.79,0.851,0.851,0,0,0-.252-0.54,4.189,4.189,0,0,1-.612-2.23,18.528,18.528,0,0,1,1.26-5.33,4.8,4.8,0,0,0,.431-1.33,0.283,0.283,0,0,0-.251-0.29c-0.252,0-.936,1.19-2.447,4.54-1.08,2.3-1.152,2.45-1.584,2.45a3.069,3.069,0,0,1-1.943-1.37,9.922,9.922,0,0,1-1.583-6.05,21.118,21.118,0,0,1,.648-5.51,12.789,12.789,0,0,0,.432-2.8c0-1.66-1.8-3.17-3.779-3.17a1.331,1.331,0,0,0-1.223.39,0.154,0.154,0,0,0,.144.15,0.329,0.329,0,0,0,.144-0.04H781.9Zm48.366-7.12a40.235,40.235,0,0,1-13.35,17.7c-1.259.87-1.331,0.9-1.331,1.12a0.279,0.279,0,0,0,.287.25c0.792,0,4.462-2.37,7.269-4.71,3.778-3.1,4.606-4.11,9.212-11.23a32.827,32.827,0,0,0,13.205,14.83,6.78,6.78,0,0,1,3.455-2.49c-7.233-2.62-12.7-7.09-15.725-12.81l0.324-.22a0.491,0.491,0,0,0,.288-0.39,0.559,0.559,0,0,0-.36-0.43Zm-8.564,19.22v13.82a0.477,0.477,0,0,0,.539.54,8.165,8.165,0,0,0,1.116-.18,0.986,0.986,0,0,0,.935-1.05v-1.47h15.041v1.8a0.434,0.434,0,0,0,.54.43c1.152,0,2.087-.54,2.087-1.22v-8.71l0.72-.4a0.971,0.971,0,0,0,.539-0.65,1.112,1.112,0,0,0-.431-0.68l-2.375-1.91-1.188,1.51H824.76Zm2.59,10.79v-8.09h15.041v8.09H824.292Zm-0.611-14.14,2.195-.04c1.223-.03,2.051-0.07,2.2-0.07h11.37a0.55,0.55,0,0,0,.432-0.54,0.877,0.877,0,0,0-.4-0.61l-2.519-2.05-2.123,2.34h-6.764c-0.324,0-1.188,0-2.2-.04l-2.591-.11Zm39.442,1.51c-0.324.43-.72,0.97-1.224,1.66l-0.539.72-0.324.43c-1.044-2.95-1.26-3.67-1.26-4.14a2.423,2.423,0,0,1,1.3-1.98,4.969,4.969,0,0,1,1.943-1.01c0.108,0,.144.04,0.144,0.25Zm0.288,1.37v0.68l-0.036,2.34c0,1.08,0,1.08.036,2.02v1.15c0,1.48-.036,1.62-0.252,1.62-0.18,0-.252-0.14-0.432-0.86-0.18-.65-0.324-1.12-0.468-1.66-0.18-.5-0.324-1.01-0.468-1.51l-0.287-.9,0.395-.58,0.972-1.44,0.36-.57Zm-2.519-14.87a1.065,1.065,0,0,1,.288-0.03,2.03,2.03,0,0,1,1.943,1.72,15.173,15.173,0,0,1,.108,2.09l-0.036,3.6a11.636,11.636,0,0,0-3.886,2.59,2.73,2.73,0,0,0-.936,2.16,2.514,2.514,0,0,0,.36,1.44,29.363,29.363,0,0,1,1.547,3.6,42.814,42.814,0,0,1-3.094,3.31,1.907,1.907,0,0,0-.756,1.41c0,1.11.936,2.41,1.763,2.41,0.36,0,.432-0.14.648-1.01a19.688,19.688,0,0,1,2.087-4.57,23.006,23.006,0,0,1,1.547,7.45c0.072,1.12.108,1.3,0.468,1.3a3.5,3.5,0,0,0,1.547-.62,1.443,1.443,0,0,0,.756-1.15,3.155,3.155,0,0,0-.036-0.54c-0.252-1.58-.612-7.09-0.612-9.25,0-.39,0-0.39.072-1.98a11.027,11.027,0,0,1,3.922-3.63,9.567,9.567,0,0,1,5.47-1.87c3.526,0,5.361,2.26,5.361,6.58a9.443,9.443,0,0,1-4.966,8.57,18.5,18.5,0,0,1-4.03,1.98c-0.252.11-.324,0.14-0.324,0.32a0.3,0.3,0,0,0,.324.29,24.022,24.022,0,0,0,4.858-1.58c4.822-2.13,7.089-5.15,7.089-9.33,0-4.89-2.915-8.2-7.269-8.2-3.166,0-6.693,1.73-10.363,5.07a10.983,10.983,0,0,1,2.051-3.63,0.875,0.875,0,0,0,.288-0.54,2.236,2.236,0,0,0-1.152-1.33,6.4,6.4,0,0,0-1.007.25,26.809,26.809,0,0,1,.935-5.04,2.6,2.6,0,0,0,.18-0.83c0-.47-0.431-0.93-1.439-1.51a3.675,3.675,0,0,0-1.763-.61c-0.792,0-2.231.65-2.231,1.01a0.091,0.091,0,0,0,.108.1h0.18Zm41.565,11.27c0.324-3.35.5-4.86,0.576-5.4a3.892,3.892,0,0,0,.072-0.54,1.31,1.31,0,0,0-.828-0.94,9.051,9.051,0,0,0-2.591-.75,2.348,2.348,0,0,0-1.583.65,2.671,2.671,0,0,0-.972.79,0.163,0.163,0,0,0,.18.14,0.633,0.633,0,0,0,.216-0.03,3.793,3.793,0,0,1,.828-0.11c1.151,0,1.943.43,2.051,1.15,0.072,0.5.072,0.65,0.144,5.47l-1.4.36c-4.174,1.01-4.174,1.01-5.037,1.01a2.614,2.614,0,0,1-2.555-1.3,0.307,0.307,0,0,0-.288-0.21c-0.108,0-.144.07-0.144,0.21a3.579,3.579,0,0,0,.792,2.52,4.6,4.6,0,0,0,2.159,1.55,1.206,1.206,0,0,0,.827-0.4,46.455,46.455,0,0,1,5.686-2.3c0.216,6.66.36,7.7,1.223,9.32,1.224,2.27,4.282,3.39,9.392,3.39,3.958,0,5.757-.47,5.757-1.55a2.011,2.011,0,0,0-1.8-1.55,2.528,2.528,0,0,0-1.008.25,18.1,18.1,0,0,1-4.749.62c-3.491,0-5.542-.87-6.369-2.7a14.046,14.046,0,0,1-.792-5.26c0-.83.036-1.55,0.108-3.13a46.785,46.785,0,0,1,9.1-2.38c-0.288,4.14-.864,6.34-1.728,6.34-0.287,0-.287,0-2.986-1.51a3.559,3.559,0,0,0-1.188-.62,0.285,0.285,0,0,0-.215.29c0,0.11,0,.11.287,0.29,1.728,1.3,2.735,2.59,2.951,3.78,0.072,0.4.144,0.47,0.288,0.47a4.7,4.7,0,0,0,1.043-.29,3.66,3.66,0,0,0,1.979-1.33c0.648-.94.9-2.27,1.368-7.6a34.857,34.857,0,0,1,3.49-.18,17.054,17.054,0,0,1,4.1.47,3.979,3.979,0,0,0,.612.07,0.765,0.765,0,0,0,.792-0.75,1.546,1.546,0,0,0-1.548-1.73,10.409,10.409,0,0,1-4.1-1.22,2.628,2.628,0,0,0-.576-0.33,0.237,0.237,0,0,0-.179.22c0,0.11.036,0.14,0.323,0.36a11.584,11.584,0,0,1,1.188.97c-0.54.11-.612,0.11-1.008,0.18l-2.051.43-0.9.18c0.36-4.21.575-6.12,0.755-6.37a1.764,1.764,0,0,0,.072-0.32c0-.47-2.339-1.69-3.238-1.69a3.038,3.038,0,0,0-1.8.89,0.164,0.164,0,0,0,.18.15,0.735,0.735,0,0,0,.252-0.04H909.8a2.35,2.35,0,0,1,1.3.51,3.613,3.613,0,0,1,.612,2.48c0,0.76-.036,1.69-0.18,4.79-1.907.36-2.159,0.43-7.953,1.94Z" transform="translate(-560.531 -6190.44)"/>
</svg>
