<svg xmlns="http://www.w3.org/2000/svg" viewBox="0 0 622.57 37.11"><defs><style>.cls-1{fill:#343434;}</style></defs><title>other-menu-title</title><g id="Layer_2" data-name="Layer 2"><g id="Layer_1-2" data-name="Layer 1"><path class="cls-1" d="M0,7.59c2.65.12,3.62.16,5.22.16h4V.9l4,.46a.74.74,0,0,1,.63.78.72.72,0,0,1-.36.62l-1,.51V7.75h3.2L17.72,5.1l2.92,2.65a.7.7,0,0,1,.23.47c0,.31-.19.58-.39.58h-8.1v3.86h2.73l1.05-1.87,2.69,2.76a1.46,1.46,0,0,1,.39.82.57.57,0,0,1-.32.51l-.54.35V24c0,.31-.23.5-.78.74a7.72,7.72,0,0,1-1.91.39c-.39,0-.58-.12-.58-.35V23.48H12.38v4.25H16l2.22-2.81,3.23,2.69c.62-2,.89-5.76.89-12.19,0-2-.11-7.59-.27-12.81l3.62,1.67h5.57l1.4-2.1,3,3.27a1.18,1.18,0,0,1,.31.74.78.78,0,0,1-.39.66l-.78.39V32.55c0,1.76-.27,2.26-1.48,3a5.77,5.77,0,0,1-2.61.78c-.58,0-.62,0-.89-1.67,0-.24,0-.39-.08-.39s-.19-.16-1.48-.55c-.7-.19-1.52-.43-1.56-.43l-.78-.27a3.14,3.14,0,0,1-.58-.16c-.27-.07-.39-.15-.39-.31s0-.23,1.44-.23h.94c3.89,0,4.32-.12,4.36-1.29V22.86H25.16c-.24,3.93-.59,5.33-1.72,7.16a16.19,16.19,0,0,1-6.54,5.69,8.24,8.24,0,0,1-2.41,1,.32.32,0,0,1-.32-.35c0-.16.12-.27.39-.47C18,33.76,19.9,31.66,21,28.78H12.38v6.69c0,.63-1,1.1-2.37,1.1-.59,0-.82-.16-.82-.59v-7.2H5.61c-1.6,0-2.22,0-4.36.11L.39,27.57c2.73.12,3.82.16,5.22.16H9.19V23.48H6.62v1.64c0,.54-1,1-2.49,1-.51,0-.7-.16-.7-.55V10.94l3.38,1.72H9.19V8.8h-4C3.47,8.8,3,8.8.9,8.92Zm15.11,9.86V13.71H6.62v3.74Zm0,5V18.5H6.62v3.93Zm10.28-6.54c0,2,0,3.39-.08,3.85,0,.28,0,1.13-.08,2.07H31.7V14.17H25.39Zm0-2.77H31.7V5.33H25.39Z"/><path class="cls-1" d="M53.47,13.55c-3.27,2.14-6.85,4-7.63,4a.26.26,0,0,1-.27-.23c0-.2.19-.39.58-.62A49.8,49.8,0,0,0,61.85,0l4.36,1.71a.65.65,0,0,1,.39.55.74.74,0,0,1-.55.66l-.74.23c3.62,4,9.15,6.66,17.45,8.42a9.68,9.68,0,0,0-4.09,3.62c-6.82-3-10.94-6.43-14.21-11.61a68,68,0,0,1-9.12,8.49l2,1.09h3.74V8.33l4.32.43a.59.59,0,0,1,.58.59.75.75,0,0,1-.39.66l-1.12.5v2.65h4.12l1.25-2.06,3.31,3.11a1,1,0,0,1,.43.74.73.73,0,0,1-.47.7l-.82.24V24c0,.62-.15.78-.74,1a6.94,6.94,0,0,1-2,.43c-.46,0-.7-.23-.7-.62V24H63.64a15.26,15.26,0,0,0,4.71,4.83,73.3,73.3,0,0,0,7.55-7.36L78.79,24c.42.35.58.62.58.85,0,.47-.43.7-1,.67l-.28,0-1.12,0c-2.22,1.13-5.73,2.88-7.79,3.89,3.54,2.18,7.86,3.43,13.7,3.9A10.84,10.84,0,0,0,78.59,37c-8.33-2.49-13.47-6.69-16-13H57.21v7.86c3-.23,6.23-.58,8.22-.81a3.94,3.94,0,0,1,.58-.08.35.35,0,0,1,.39.35c0,.19-.15.35-.5.47-2.22.74-4,1.28-8.3,2.45-2.14.58-2.26.62-4.87,1.36l-.54,1a.86.86,0,0,1-.74.54c-.27,0-.51-.16-.78-.54l-2.69-4c2.65-.11,3.08-.15,5.49-.35Zm15.42,4.52V14.21H57.21v3.86Zm0,4.83V19.12H57.21V22.9Z"/><path class="cls-1" d="M100.37,16.78c0-2.1.07-3.58.07-4.4,0-3.62-.35-4.44-2.25-5.18-.12,0-.2-.11-.2-.19,0-.31,1.48-.82,2.45-.82a6.48,6.48,0,0,1,2.89,1c.89.59,1.2,1,1.2,1.76a6.17,6.17,0,0,1-.19,1.32,65.55,65.55,0,0,0-.7,8.53,46.62,46.62,0,0,0,7.75-4.64A3.65,3.65,0,0,0,113,11.68a1.3,1.3,0,0,0-.31-.89c-.16-.24-.19-.32-.19-.39s.19-.28.54-.28a7.25,7.25,0,0,1,2.34.51,13,13,0,0,1,2.41,2.06,1.76,1.76,0,0,1,.51,1.06c0,.54-.51.89-3,2A63.87,63.87,0,0,1,103.6,20c-.12,2.1-.12,2.41-.12,3.19,0,4.48.94,5.53,5,5.53a15.5,15.5,0,0,0,7.63-1.56c2.18.16,4.13,1.25,4.13,2.26,0,.74-.59,1.32-1.76,1.67a32.72,32.72,0,0,1-8,.86c-5,0-7.16-.66-8.72-2.76-1.13-1.56-1.44-3.16-1.44-7.87Zm20.56-9a1.63,1.63,0,0,1-1.72,1.48c-.58,0-.78-.2-1.32-1.17a6,6,0,0,0-3.39-2.61c-.15,0-.27-.16-.27-.27,0-.31.58-.47,1.63-.47C118.51,4.79,120.93,6.23,120.93,7.83Zm4.71-2.92a1.7,1.7,0,0,1-1.72,1.51c-.58,0-.77-.15-1.4-1.2a5.68,5.68,0,0,0-3.39-2.53.39.39,0,0,1-.27-.28c0-.27.74-.5,1.68-.5C123.15,1.91,125.64,3.39,125.64,4.91Z"/><path class="cls-1" d="M156.21,18.54c0-.55-.27-.9-.66-.9A14.72,14.72,0,0,0,151.11,19a8.85,8.85,0,0,1-2.8.9,2.26,2.26,0,0,1-1.36-.51A2.54,2.54,0,0,1,145.7,17c0-.62.16-.9.47-.9.15,0,.15,0,.43.47a2.08,2.08,0,0,0,1.71.74,38,38,0,0,0,6.19-1.13,11.1,11.1,0,0,0,2.3-1c.43-.28.54-.31.7-.31s.27,0,2,1.24c1.2.86,1.44,1.09,1.44,1.44s-.16.47-1,1.17c-.93,3.12-1.28,4.6-2,7.79,1-.12,1.94-.2,2.26-.23a14.45,14.45,0,0,0,4.36-.9,1.9,1.9,0,0,1,.54-.12c1,0,3.16,2.07,3.16,3,0,.47-.51.86-1.17.86a6.55,6.55,0,0,1-1.13-.2,41.9,41.9,0,0,0-7.13-.62,63.36,63.36,0,0,0-9.58.94,10.71,10.71,0,0,0-2.64.81,5.31,5.31,0,0,1-2.15.67A5.23,5.23,0,0,1,142,29.63c-.78-.62-1-.93-1-1.36,0-.62.23-1.17.47-1.17.07,0,.07,0,.19.2a3.72,3.72,0,0,0,2.53.66c.39,0,.39,0,3.27-.31,2.69-.31,4.91-.59,5.18-.59.82-.07,1.68-.19,2.53-.27A69.6,69.6,0,0,0,156.21,18.54Z"/><path class="cls-1" d="M195.16,21.11a2,2,0,0,1-1.79,2.18,1.07,1.07,0,0,1-1.05-.86,10.45,10.45,0,0,0-3.54-5.26c-.35-.23-.43-.31-.43-.46s.11-.24.5-.24C192.24,16.47,195.16,18.65,195.16,21.11ZM198,32.17c-2.38,1.47-6.55,3.11-8,3.11-.19,0-.39-.16-.39-.31s0-.2,1-.59a31.25,31.25,0,0,0,10.71-8.29c3.07-3.7,5.18-8.26,5.18-11.33a2.64,2.64,0,0,0-.51-1.68c-.39-.35-.39-.35-.39-.42,0-.24.27-.39.62-.39A4,4,0,0,1,209,13.55a6.33,6.33,0,0,1,1.9,2.69c0,.27-.07.35-.73,1.05A32,32,0,0,1,198,32.17Zm3.58-13.63a2.08,2.08,0,0,1-2,2.14c-.66,0-1-.39-1.25-1.44-.62-2.53-2.14-4.79-3.66-5.53-.19-.08-.27-.2-.27-.31s.2-.24.43-.24C198.12,13.16,201.59,16,201.59,18.54Z"/><path class="cls-1" d="M242.45,29.44c-3.16,1.83-8.14,3.66-10,3.66-.24,0-.39-.12-.39-.27s.12-.24.35-.31a27.85,27.85,0,0,0,12.69-8.77,24.49,24.49,0,0,0,5.42-9.23,12,12,0,0,0,.74-2.95c0-.63-.36-.86-1.25-.86A48.58,48.58,0,0,0,242.33,12a16.27,16.27,0,0,0-4.67,1.64,1.67,1.67,0,0,1-.63.23,5.15,5.15,0,0,1-2.37-1.13,3.65,3.65,0,0,1-1.33-3.11c0-.31.12-.55.31-.55s.16.08.32.27a3.51,3.51,0,0,0,3,1.13,92.26,92.26,0,0,0,10-1.2,11.28,11.28,0,0,0,4.64-1.56c.78-.47,1-.55,1.32-.55s1.09.35,3.31,1.91c.82.55,1.36,1.09,1.36,1.33s-.35.66-1.79,1.63C252.06,21,248.25,26.05,242.45,29.44Z"/><path class="cls-1" d="M288.09,27.92a42.78,42.78,0,0,0,.2-5c0-4.17-.12-4.64-1.09-4.64a16.4,16.4,0,0,0-2.69.43,6.64,6.64,0,0,0-1.83.59,3,3,0,0,1-.35.07c-1.17,0-2.42-1.55-2.42-3,0-.39.08-.55.28-.55s.07,0,.39.39a3.42,3.42,0,0,0,2.14.58c.74,0,.74,0,5.41-.46a19.46,19.46,0,0,0,6.31-1.41,2.81,2.81,0,0,1,1.05-.35,5,5,0,0,1,2.38,1.13c.62.47.93.9.93,1.33a.91.91,0,0,1-.93.85h-.39l-.47,0c-2-.07-2-.07-2.57-.07-1.25,0-2.38,0-3.78.15.9.55,1.44,1.05,1.44,1.33a1.24,1.24,0,0,1-.15.5c-.51,1.64-.7,3.27-.82,7.91,6.54-.66,6.89-.74,8.6-1.29a1.08,1.08,0,0,1,.35,0c1.45,0,3.9,1.87,3.9,2.92a1.15,1.15,0,0,1-1.13,1.06,9.24,9.24,0,0,1-1.64-.28,33.92,33.92,0,0,0-7-.7c-5.81,0-9.7.55-13.13,1.79a4,4,0,0,1-1.48.31c-.62,0-.62,0-2.41-1.16-.9-.55-1.21-1-1.21-1.52s.16-1.09.39-1.09.16,0,.23.19c.32.43,1.25.66,2.61.66.78,0,.78,0,4.87-.23l3-.27Z"/><path class="cls-1" d="M317.19,27.34c1.67-.32,1.83-.35,5-1.13V4.36l4,.51a.87.87,0,0,1,.9.85.83.83,0,0,1-.51.74l-.78.47V25.27c1.91-.43,3.7-1,9.66-2.8a5.29,5.29,0,0,1,1.29-.31.32.32,0,0,1,.35.31c0,.31-.31.47-2.73,1.67-3,1.4-7.48,3.51-12.42,5.65l-.39,1.05c-.16.43-.43.7-.74.7a1.12,1.12,0,0,1-.82-.47Zm29.4-21.93c-.16,10.44-1.09,16.32-3.2,20.6,3.55,1.4,4.95,2.26,6.55,3.9a5.82,5.82,0,0,1,1.94,4,1.73,1.73,0,0,1-1.71,1.91,1.51,1.51,0,0,1-1.05-.43c-.47-.43-.47-.43-1.79-3A14.34,14.34,0,0,0,342.89,27c-2.34,3.5-4.64,5.29-9.07,7.08a42.4,42.4,0,0,1-9,2.38c-.27,0-.43-.12-.43-.31s.27-.43,1.17-.7c7.87-2.38,12.34-5.61,14.76-10.56,1.94-3.77,2.49-8.6,2.57-22.23l4.48.66a.86.86,0,0,1,.81.86.82.82,0,0,1-.42.7ZM334,7c2.1,1.56,3.39,3.62,3.39,5.53,0,1.32-.74,2.18-1.87,2.18s-1.36-.47-2.1-2.88a11.61,11.61,0,0,0-3.74-6.15,1.18,1.18,0,0,1-.24-.35A.37.37,0,0,1,329.8,5,13.71,13.71,0,0,1,334,7Z"/><path class="cls-1" d="M387.68,19.63a31.91,31.91,0,0,0,11.41,5.68,10.9,10.9,0,0,0-3.51,3.51,31.88,31.88,0,0,1-7.9-5.42v12c0,.43-.16.66-.66.82a9.38,9.38,0,0,1-2.26.5c-.47,0-.63-.23-.63-.85V19.35a22.38,22.38,0,0,1-3.34-7.71,47.83,47.83,0,0,1-4,10.91c-2.5,4.59-5.11,7.24-10.09,10.24a23.34,23.34,0,0,1-4,1.91c-.16,0-.23-.08-.23-.2s.15-.35.46-.58a28.17,28.17,0,0,0,10.48-11.57,4,4,0,0,1-.59.08c-.74,0-1.24-.47-1.75-1.71-1.13-2.81-1.56-3.51-3-4.64-1.52,2.77-5.1,7.17-5.84,7.17A.22.22,0,0,1,362,23c0-.23.15-.54.58-1.16,3.51-5.42,5.88-12.89,6.54-20.41l4.6,1.25a.77.77,0,0,1,.58.7c0,.35-.19.54-.66.74l-.9.39c-.58,1.83-.66,2.1-1.24,3.77h5.84L378.64,6,382,8.8c.28.23.39.39.39.62a.53.53,0,0,1-.39.51l-.58.19a16.13,16.13,0,0,0,2.76,5.81V1.44l4.09.39c.51.08.86.39.86.82a.78.78,0,0,1-.54.74l-.86.43ZM371.17,9.35a61.5,61.5,0,0,1-2.77,6.11c3.62.47,5.61,1.91,6.08,4.44a56.65,56.65,0,0,0,2.8-10.55Z"/><path class="cls-1" d="M426.74,11.45a25.06,25.06,0,0,1-3.89,12.65c-2.3,3.59-5.69,6.35-7.83,6.35a4.73,4.73,0,0,1-3.27-2.14A10.12,10.12,0,0,1,409.84,22c0-8.57,7.83-15.93,16.94-15.93a15,15,0,0,1,10.94,4.29,11.71,11.71,0,0,1,3.08,8.21,14.32,14.32,0,0,1-7.2,12.46,24,24,0,0,1-7.21,2.65,17.3,17.3,0,0,1-2.49.47c-.23,0-.39-.08-.39-.23s.12-.24.74-.43a21,21,0,0,0,7-3.62c3.39-2.77,5-6.31,5-11.1,0-5.22-1.76-8.76-5.14-10.48a9.41,9.41,0,0,0-4-.93c-.11,0-.38,0-.81,0A14.82,14.82,0,0,1,426.74,11.45Zm-8.8-.35A15.25,15.25,0,0,0,413.35,22c0,2.3,1,4.33,2.26,4.33s3.42-2,5.06-4.6c2.49-3.86,4-8.18,4-11.64a9.66,9.66,0,0,0-.23-2.18,2.55,2.55,0,0,1-.08-.28A14.72,14.72,0,0,0,417.94,11.1Z"/><path class="cls-1" d="M481.23,23.44a2,2,0,0,1-2,2.07c-.7,0-1-.24-1.87-1.56a22.44,22.44,0,0,0-3-3.82c-3.89,4.79-6.93,7.44-10.86,9.7-2.3,1.28-6.74,3.11-7.59,3.11a.34.34,0,0,1-.31-.35c0-.19.15-.31,1.16-.81C462,29,467.41,24.1,472,17.87c-2.8-2.57-4.67-3.77-7.24-4.63-.67-.2-.86-.31-.86-.55s.27-.35.66-.35a19.33,19.33,0,0,1,9,2.92c1.55-3.11,2.37-5.68,2.37-7.32a3.43,3.43,0,0,0-1.09-2.72c-.08-.08-.12-.12-.12-.16s.32-.39.55-.39a7.18,7.18,0,0,1,3.31,1.52c1.29,1,2.45,2.42,2.45,3,0,.27-.11.43-.54.74s-.47.43-1,1.48a45.58,45.58,0,0,1-3.15,5.8C479.75,19.7,481.23,21.61,481.23,23.44Z"/><path class="cls-1" d="M500.63,23.68c.58.66,2.14,1.05,4.32,1.05s8.65-.63,16.12-1.56a16.44,16.44,0,0,0,6-1.52,4,4,0,0,1,1-.27c.43,0,1.21.43,3,1.71,1,.7,1.44,1.33,1.44,2.07,0,.58-.47,1-1.17,1a14.68,14.68,0,0,1-1.56-.16,33,33,0,0,0-6-.46c-7.32,0-14.3.93-18.27,2.41a4.69,4.69,0,0,1-1.55.39c-1.72,0-4.17-2.69-4.17-4.6a.35.35,0,0,1,.35-.35C500.36,23.36,500.4,23.4,500.63,23.68Zm23.91-12c0,.63-.51.86-2.61,1.17-2.61.39-3.54.51-5.61.9a29.28,29.28,0,0,1-5.37.74c-1.4,0-2.26-.59-3.31-2.18a3.26,3.26,0,0,1-.7-1.44.18.18,0,0,1,.19-.16s.08,0,.27.16a7.74,7.74,0,0,0,3.24.81,39.27,39.27,0,0,0,6.85-1,11.13,11.13,0,0,0,3-1.4C522.79,9.54,524.54,10.59,524.54,11.64Z"/><path class="cls-1" d="M562.83,18.54c0-.55-.28-.9-.67-.9A14.72,14.72,0,0,0,557.72,19a8.85,8.85,0,0,1-2.8.9,2.29,2.29,0,0,1-1.36-.51A2.54,2.54,0,0,1,552.31,17c0-.62.16-.9.47-.9.15,0,.15,0,.43.47a2.08,2.08,0,0,0,1.71.74,38,38,0,0,0,6.19-1.13,11.1,11.1,0,0,0,2.3-1c.43-.28.55-.31.7-.31s.27,0,2,1.24c1.2.86,1.44,1.09,1.44,1.44s-.16.47-1,1.17c-.93,3.12-1.28,4.6-2,7.79,1-.12,1.95-.2,2.26-.23a14.45,14.45,0,0,0,4.36-.9,1.9,1.9,0,0,1,.54-.12c1,0,3.16,2.07,3.16,3,0,.47-.51.86-1.17.86a6.55,6.55,0,0,1-1.13-.2,41.9,41.9,0,0,0-7.13-.62,63.36,63.36,0,0,0-9.58.94,10.71,10.71,0,0,0-2.64.81,5.31,5.31,0,0,1-2.15.67,5.23,5.23,0,0,1-2.45-1.06c-.78-.62-1-.93-1-1.36,0-.62.23-1.17.47-1.17.08,0,.08,0,.19.2a3.74,3.74,0,0,0,2.53.66c.39,0,.39,0,3.27-.31,2.69-.31,4.91-.59,5.18-.59.82-.07,1.68-.19,2.53-.27A70.19,70.19,0,0,0,562.83,18.54Z"/><path class="cls-1" d="M622.57,19.51c0,.78-.78,1.28-2,1.28-.35,0-1.59-.11-3.27-.27-.82-.08-2-.11-3.43-.11-9.73,0-15.49.54-18.41,1.71a1.52,1.52,0,0,1-.55.12A7,7,0,0,1,591.57,21a3.63,3.63,0,0,1-1.4-3.15c0-.71.19-1.09.58-1.09.12,0,.2.07.39.38.59,1,1.87,1.33,5,1.33,3,0,12.65-.59,15.34-.9a30.62,30.62,0,0,0,6.19-1.32C620.93,16.86,622.57,18,622.57,19.51Z"/></g></g></svg>