<svg xmlns="http://www.w3.org/2000/svg" viewBox="0 0 923.21 54.82"><defs><style>.cls-1{isolation:isolate;}.cls-2{fill:#333;}</style></defs><title>bun-bun-scooter-subtext</title><g id="Layer_2" data-name="Layer 2"><g id="Layer_1-2" data-name="Layer 1"><g class="cls-1"><g class="cls-1"><path class="cls-2" d="M0,44.22a112.62,112.62,0,0,0,12.2-11L14,36.32c-3.31,3.51-8.06,8-10.71,10.37a1.83,1.83,0,0,1-.55,1.56ZM14,2.94a40.72,40.72,0,0,0,18.8,7l-.7,3.74a14.56,14.56,0,0,0-2.1-.17c-2.5,0-4.45,1-7.55,4.32l-2.95-1.44a17.9,17.9,0,0,1,5.05-4.26,37.66,37.66,0,0,1-12.36-6Zm6.55,18.5a10,10,0,0,0-1.35,4.39c0,2.36,1.45,4.38,4.8,7C28,36,30,40,30,44.1c0,5.3-3.55,8.82-8.15,8.82-2.5,0-5.3-1.21-9.66-3.86a17.86,17.86,0,0,0,.95-3.35c4.21,2.54,6.71,3.41,8.36,3.41,3.15,0,4.85-2.14,4.85-5.13,0-2.6-1.65-6.06-5.25-8.94s-5.4-5.65-5.4-8.88a13.31,13.31,0,0,1,1.7-6.05Zm11.3,6.87A25.26,25.26,0,0,1,45.32,44.22l-3.25,2.07c-2.11-7-7-12.74-12.11-15Zm2.4-24.39A33.72,33.72,0,0,1,41,12.11l-1.9,1.73a34.58,34.58,0,0,0-6.6-8.25ZM40.36.23A31.72,31.72,0,0,1,47,8.3L45.12,10A32.38,32.38,0,0,0,38.56,2Z"/><path class="cls-2" d="M57.22,50.79C60.92,38.57,67.08,18.16,69,12.05c1-3.11,2.25-7.5,2.6-8.94L77,4.73c-.25.8-1,1.09-2,1.09-2.75,7.9-7,21.39-8.85,27.15h0c3-4.15,7.45-7.09,11-7.09,4.35,0,6.45,3.41,6.3,8.77l-.15,6.86c0,4.32,2,6.68,5.2,6.68,4.51,0,8.66-5.93,11-15.85a22.1,22.1,0,0,0,3.25,2.13c-2.75,11-7.7,17.93-14.36,17.93-5.3,0-8.75-3.69-8.75-9.57,0-1.09.15-6.4.15-7.61,0-3.63-1.3-5.53-3.5-5.53-5.75,0-11.55,9.63-12.81,13.37-.7,2-1.8,5.71-2.75,9Z"/><path class="cls-2" d="M114.54,44.22a111.67,111.67,0,0,0,12.21-11l1.75,3.11c-3.3,3.51-8,8-10.71,10.37a1.78,1.78,0,0,1-.55,1.56Zm14-41.28a40.72,40.72,0,0,0,18.81,7l-.7,3.74a14.7,14.7,0,0,0-2.11-.17c-2.5,0-4.45,1-7.55,4.32L134,16.37a17.9,17.9,0,0,1,5.05-4.26,37.53,37.53,0,0,1-12.35-6Zm6.55,18.5a10,10,0,0,0-1.35,4.39c0,2.36,1.45,4.38,4.8,7,4.05,3.17,6,7.09,6,11.24,0,5.3-3.55,8.82-8.15,8.82-2.5,0-5.3-1.21-9.65-3.86a17.86,17.86,0,0,0,1-3.35c4.2,2.54,6.7,3.41,8.35,3.41,3.15,0,4.85-2.14,4.85-5.13,0-2.6-1.65-6.06-5.25-8.94s-5.4-5.65-5.4-8.88a13.31,13.31,0,0,1,1.7-6.05Zm11.31,6.87a25.25,25.25,0,0,1,13.5,15.91l-3.25,2.07c-2.1-7-7-12.74-12.11-15Zm2.4-24.39a33.72,33.72,0,0,1,6.75,8.19l-1.9,1.73A34.58,34.58,0,0,0,147,5.59ZM154.91.23a31.88,31.88,0,0,1,6.65,8.07L159.66,10A32.55,32.55,0,0,0,153.11,2Z"/><path class="cls-2" d="M171.77,50.79c3.7-12.22,9.85-32.63,11.8-38.74,1-3.11,2.25-7.5,2.6-8.94l5.4,1.62c-.25.8-.95,1.09-1.95,1.09-2.75,7.9-7,21.39-8.85,27.15h0c3-4.15,7.45-7.09,11-7.09,4.35,0,6.46,3.41,6.31,8.77l-.15,6.86c-.05,4.32,1.95,6.68,5.2,6.68,4.5,0,8.65-5.93,11-15.85a22.1,22.1,0,0,0,3.25,2.13c-2.75,11-7.7,17.93-14.35,17.93-5.3,0-8.76-3.69-8.76-9.57,0-1.09.15-6.4.15-7.61,0-3.63-1.3-5.53-3.5-5.53-5.75,0-11.55,9.63-12.8,13.37-.7,2-1.8,5.71-2.75,9Z"/><path class="cls-2" d="M263.35,8.82a1.07,1.07,0,0,1-.65.63,93.16,93.16,0,0,1-10,19.84A196.11,196.11,0,0,1,271,48.83L268,51.88A176.64,176.64,0,0,0,250.4,32.51c-4.41,6.17-12,14.59-19.26,19.37a20.92,20.92,0,0,0-2.6-3.11c13.85-8.76,24.81-25.13,29.31-37.64H233.29V7.21H259.8l.65-.29Z"/><path class="cls-2" d="M320.82,13.84a3.76,3.76,0,0,1-.75.8c-5.25,18.68-13.45,30.67-27.26,38.74a14.55,14.55,0,0,0-2.55-3.17c13.11-7.32,21.21-18.85,25.36-34.13H297.76a56.89,56.89,0,0,1-11.2,14.24,21,21,0,0,0-2.85-2.65c6.8-6.05,12.55-14.87,16-25l4.75,1.56c-.2.57-.8.75-1.45.75-1,2.53-2.05,5-3.2,7.26h17.6l.6-.34Z"/><path class="cls-2" d="M335.73,25H377.5v4.09H337.63a2.28,2.28,0,0,1-1.6,1.1Z"/><path class="cls-2" d="M428.47,12.62a.91.91,0,0,1-.6.64,81.77,81.77,0,0,1-7.36,19.08c2.15,1.44,4.6,3.23,6.45,4.78l-2.1,3.81c-1.8-1.61-4.35-3.52-6.45-5a49.56,49.56,0,0,1-18.05,17.53,11.45,11.45,0,0,0-2.76-3,49.46,49.46,0,0,0,17.71-16.6,81.12,81.12,0,0,0-11.05-6l1.9-3.22a77.58,77.58,0,0,1,11.25,5.82,63.92,63.92,0,0,0,6-15.28H406.51A61.16,61.16,0,0,1,395,31a27.65,27.65,0,0,0-2.85-2.59c6.55-5.76,12.76-16.14,15.76-26l4.75,1.27a1.12,1.12,0,0,1-1.35.75c-.7,1.9-1.85,4.73-2.8,6.86h16.6l.7-.23Z"/><path class="cls-2" d="M445.77,25h41.77v4.09H447.67a2.28,2.28,0,0,1-1.6,1.1Z"/><path class="cls-2" d="M544.31,25.94a.63.63,0,0,1-.3.12,1.2,1.2,0,0,1-.75-.35c-3.8,1.44-9.35,3.81-13.5,5.88q.15,2,.15,4.5c0,1.84,0,3.92-.15,6.17l-3.66.23c.15-2.08.25-4.73.25-7,0-.86,0-1.67-.05-2.3-5.65,3.17-10.25,7-10.25,10.49s3.45,4.95,10.35,4.95A97.69,97.69,0,0,0,539,48.08l0,3.86a121.32,121.32,0,0,1-12.61.46c-9.6,0-13.85-2.65-13.85-8.53,0-5.07,5.8-10,13.3-14.3-.3-3.63-1.7-5.42-3.7-5.42-3.65,0-7.45,2.37-11.95,8.13-1.4,1.79-3.35,4-5.5,6.29l-2.45-2.83c5-5.07,9.7-9.91,12.6-21.27l-2.8.06H503.7V10.78c3.05.06,6.6.06,8.65.06l3.4-.06c.55-2.65,1-5.13,1.35-8.24l4.9.69c-.1.57-.5.92-1.25,1-.35,2.3-.8,4.32-1.25,6.39a60.06,60.06,0,0,0,17.21-3.34l.6,3.86a66.1,66.1,0,0,1-18.76,3.23,45.33,45.33,0,0,1-3.6,9.74h0a12.43,12.43,0,0,1,8-3.74c3.4,0,5.56,2.82,6.21,7.49,4.2-2.19,9.5-4.55,13.5-6.34Z"/><path class="cls-2" d="M603,38.16H585.33a41.7,41.7,0,0,0,18.55,12.11,16,16,0,0,0-2.25,3.28,46.2,46.2,0,0,1-19.55-14.29V54.82h-3.41V39c-4.7,6.45-12.45,12-19.3,14.93a17.74,17.74,0,0,0-2.3-3.23c6.55-2.42,13.75-7.15,18.2-12.57H558V34.7h20.65V29.57l4.41.29c-.05.46-.35.75-1,.81v4H603ZM557.37,27.33c3-1.73,7.4-4.67,11.8-7.56l1,3.23c-3.75,2.6-7.7,5.31-10.2,7a1.17,1.17,0,0,1-.5,1Zm4-22.49a36,36,0,0,1,8,9.23l-2.55,2.53A36.06,36.06,0,0,0,559,7Zm28.56,2.37V29.29H571.17V7.21h6.4c.55-1.91,1.15-4.27,1.5-6l4.16,1.1c-.1.34-.45.57-1,.57-.35,1.21-.85,2.83-1.4,4.33Zm-3.3,9.45V10.38H574.37v6.28Zm0,9.45V19.72H574.37v6.39Zm5.7-7.14a64.58,64.58,0,0,1,11.5,8.47l-2.05,2.94a65.42,65.42,0,0,0-11.45-8.82ZM591,14.18a69.46,69.46,0,0,0,8.1-10l3.45,2.48c-.15.29-.5.46-1.1.34a86.8,86.8,0,0,1-7.95,9.17Z"/><path class="cls-2" d="M626.64,3.75c-.1.69-.55,1.09-1.55,1.27-.4,6.68-.9,22-.9,30.49s3.7,12.74,10,12.74c6.1,0,12.3-3.52,18-11a23.31,23.31,0,0,0,2.25,3.4c-5.85,7.67-13,11.7-20.3,11.7-9.11,0-13.76-6-13.76-16.95,0-7.26.45-25.13.8-32.22Z"/><path class="cls-2" d="M685.57,3.57c-.05.64-.5,1-1.4,1.21,0,2.2-.21,4.39-.3,6.69a50.59,50.59,0,0,0,10.85-2.36l.55,3.86a51.7,51.7,0,0,1-11.65,2.25c-.36,4.9-.76,9.45-1,12.28a12.49,12.49,0,0,1,.1,2,17.13,17.13,0,0,1-2.35,8.93,14.92,14.92,0,0,0-1.5,5.6c0,4.26,4.15,4.78,9.56,4.78,10.15,0,14.6-1.61,14.6-7.55,0-2.94-1.35-6.75-4.6-11.24a17.93,17.93,0,0,0,3.05-1.56c3.6,5.13,5.3,9.8,5.3,13.6a8.92,8.92,0,0,1-6.7,9.11,40,40,0,0,1-11.45,1.33c-4.2,0-13.21,0-13.21-7.32a12,12,0,0,1,1-4.44,5.7,5.7,0,0,1-2.35.52c-3,0-6-2.77-6-8.36C668,26,672,22,676.11,22a4.32,4.32,0,0,1,3.4,1.67l.55-8.3c-4,.23-10.65.12-10.7.12V11.82c1.95.06,9.65,0,10.85-.06.2-3.17.3-6.23.3-8.7ZM679.46,30c0-2.65-1.05-4.85-3.25-4.85-3.45,0-5.3,3.35-5.3,7.38,0,3.23,1.45,5.31,3.7,5.31C678.86,37.82,679.46,31.19,679.46,30Zm31.42-7.09c-3.76-2.31-9.06-3.81-13.91-4.56l.75-3.57c4.9.63,10.45,2.13,14.26,4.32Z"/><path class="cls-2" d="M738.14,28.42a49.34,49.34,0,0,1-9.41,17l-2.9-2.19a41.62,41.62,0,0,0,9-16.26Zm10.7-8.88v27c0,6.28-3.9,6.28-11.9,6.28A27.48,27.48,0,0,0,735.89,49c1.45.06,3.05.06,4.4.06h2.9c1.4,0,2-1,2-2.42V19.54h-17V15.62h17V3.46l4.75.29a1.17,1.17,0,0,1-1.15,1.09V15.62h16.91v3.92Zm8.95,7a115.09,115.09,0,0,1,10.56,16.77l-3.2,2.13a108.76,108.76,0,0,0-10.21-17.06ZM764.3,0c3.05,0,5.55,2.88,5.55,6.46s-2.5,6.45-5.55,6.45-5.66-2.88-5.66-6.45S761.24,0,764.3,0Zm3.9,6.46c0-2.54-1.75-4.62-3.9-4.62s-4,2.08-4,4.62a4.33,4.33,0,0,0,4,4.55C766.55,11,768.2,8.82,768.2,6.46Z"/><path class="cls-2" d="M823.32,6.57a1.07,1.07,0,0,1-1,.46,1.88,1.88,0,0,1-.5,0,127.89,127.89,0,0,1-14.26,13.77c.4.18,1,.52,1.2.64a1.29,1.29,0,0,1-1.1.75v31h-3.65V23.46A139.7,139.7,0,0,1,785,36.32a20.73,20.73,0,0,0-2.1-3.17c13.66-7.27,28.61-19.6,36.67-29.81Z"/><path class="cls-2" d="M839.83,7.55c5.2,1.9,11.2,4.9,14.9,7.84L852.83,19c-3.6-2.94-9.5-6-14.6-8Zm-.2,40c17.75-6.34,29.56-17.81,35.56-33.78a19,19,0,0,0,3.25,2.36C872.19,31.88,860,44.16,843,50.67a2,2,0,0,1-.7,1.33Z"/><path class="cls-2" d="M921.21,33.55a171.1,171.1,0,0,0-17.56-9.4V53H899.9V2.88l5.05.35c-.05.63-.45,1-1.3,1.21V21.27l.75-1.21a163.66,163.66,0,0,1,18.81,9.63Z"/></g></g></g></g></svg>