<svg xmlns="http://www.w3.org/2000/svg" viewBox="0 0 562.45 32.58"><defs><style>.cls-1{isolation:isolate;}.cls-2{fill:#333;}</style></defs><title>Asset 7</title><g id="Layer_2" data-name="Layer 2"><g id="Layer_1-2" data-name="Layer 1"><g class="cls-1"><path class="cls-2" d="M19.68,25.92a3.33,3.33,0,0,1-1.19,2.59,5,5,0,0,1-3.16,1c-.65-2.05-2.27-3.1-7.81-5.18-1.33,1.29-1.91,1.9-2.59,2.62-1.12,1.26-1.55,1.59-2.23,1.59A3.33,3.33,0,0,1,0,25.63c0-1.12,1-3,1.58-3a.24.24,0,0,1,.18.22,1,1,0,0,1,0,.25,4.41,4.41,0,0,0-.11,1.15c0,.94.25,1.33.83,1.33s1.11-.29,3.2-1.83c6.08-4.43,6.76-4.86,8.81-5.76a8.91,8.91,0,0,0-1.29-1.59c-1.76-2-2.34-2.95-2.34-4a5.34,5.34,0,0,1,2-3.6,23.61,23.61,0,0,1,2-1.47,3.87,3.87,0,0,1-2.7-4c0-.65.11-1,.33-1s.22.11.22.32c.21,1.84,2.77,3.35,5.75,3.39.72,0,1,.1,1.3.5a3.47,3.47,0,0,1,.54,1.58c0,.4-.51.79-1.08.79a8.59,8.59,0,0,1-.9-.07c-.36,0-.65-.07-.9-.07-2.88,0-5.26,1.73-5.26,3.82,0,.86.76,1.94,2.38,3.45.68.65.72.69,1.22,1.23a11.75,11.75,0,0,1,4.54-.83,9.94,9.94,0,0,1,6.94,2.59,9,9,0,0,1,3,6,1.65,1.65,0,0,1-1.69,1.77c-.62,0-1-.43-1.12-1.19-.72-5.15-3.38-8.13-7.27-8.13a9.4,9.4,0,0,0-3.6.75A12.1,12.1,0,0,1,19.68,25.92ZM9,23.94c.32.1.47.18,3.67,1.33l1.8.65s.43.18.83.32a2.73,2.73,0,0,0,.79.22c.64,0,1-.65,1-1.84a9.86,9.86,0,0,0-2-5.76,28.89,28.89,0,0,0-6.91,4.83ZM27.78,9.68a1.26,1.26,0,0,1-1.16,1.26c-.35,0-.46-.11-.86-.75a5.94,5.94,0,0,0-3.49-2.74c-.11,0-.14-.07-.14-.14s.54-.25,1.15-.25C25.55,7.06,27.78,8.35,27.78,9.68Zm2.91-2.34A1.24,1.24,0,0,1,29.5,8.6c-.32,0-.54-.18-.75-.61a5.83,5.83,0,0,0-3.49-2.88C25,5,25,5,25,5s.5-.29,1.26-.29C28.42,4.68,30.69,6.05,30.69,7.34Z"/><path class="cls-2" d="M53.22,5.54c0,.58-.21.94-.93,1.62a62.62,62.62,0,0,0-7.49,9.72,7.45,7.45,0,0,0-.86,1.66.32.32,0,0,0,.32.29.46.46,0,0,0,.4-.22c2-2.3,5.11-4.07,7.12-4.07A4.23,4.23,0,0,1,56.1,18.9a8.33,8.33,0,0,1-.25,1.94A26.38,26.38,0,0,0,55.09,26c0,1.8.76,2.63,2.41,2.63,3.13,0,5.76-2.16,7.31-6,.11-.25.14-.32.25-.32s.25.18.25.4a11.23,11.23,0,0,1-1.76,4.6,8,8,0,0,1-6.37,3.1c-2.7,0-4.32-1.73-4.32-4.54A28.75,28.75,0,0,1,53.44,21a16.32,16.32,0,0,0,.29-2.52A2.33,2.33,0,0,0,51.13,16c-1.65,0-3.59,1-6,3.24s-3.56,5.4-4,10.4c-.07.9-.36,1.37-.79,1.37a3.11,3.11,0,0,1-1.51-.69,1.28,1.28,0,0,1-.4-1c0-3.75,4.18-12.53,10.22-21.57C49.7,6.19,50,5.65,50,5a2.11,2.11,0,0,0-2.16-1.91c-.14,0-.22-.07-.22-.21s.94-.47,1.8-.47C51.13,2.45,53.22,4.1,53.22,5.54Z"/><path class="cls-2" d="M92.2,25.92A3.37,3.37,0,0,1,91,28.51a5.07,5.07,0,0,1-3.17,1c-.65-2.05-2.26-3.1-7.81-5.18-1.33,1.29-1.9,1.9-2.59,2.62-1.11,1.26-1.54,1.59-2.23,1.59a3.34,3.34,0,0,1-2.7-2.88c0-1.12,1-3,1.59-3a.24.24,0,0,1,.18.22.75.75,0,0,1,0,.25,4.89,4.89,0,0,0-.11,1.15c0,.94.26,1.33.83,1.33s1.12-.29,3.2-1.83C84.24,19.33,84.93,18.9,87,18a8.59,8.59,0,0,0-1.3-1.59c-1.76-2-2.34-2.95-2.34-4a5.32,5.32,0,0,1,2-3.6,22,22,0,0,1,2-1.47,3.87,3.87,0,0,1-2.7-4c0-.65.11-1,.32-1s.22.11.22.32C85.4,4.61,88,6.12,90.94,6.16c.72,0,1,.1,1.29.5a3.47,3.47,0,0,1,.54,1.58c0,.4-.5.79-1.08.79a8.59,8.59,0,0,1-.9-.07c-.36,0-.64-.07-.9-.07-2.87,0-5.25,1.73-5.25,3.82,0,.86.76,1.94,2.38,3.45.68.65.71.69,1.22,1.23a11.7,11.7,0,0,1,4.53-.83,10,10,0,0,1,7,2.59,9,9,0,0,1,3,6A1.64,1.64,0,0,1,101,26.89c-.61,0-1-.43-1.11-1.19-.72-5.15-3.39-8.13-7.27-8.13a9.33,9.33,0,0,0-3.6.75A12.16,12.16,0,0,1,92.2,25.92Zm-10.73-2c.33.1.47.18,3.67,1.33l1.8.65s.43.18.83.32a2.82,2.82,0,0,0,.79.22c.65,0,1-.65,1-1.84a9.88,9.88,0,0,0-2-5.76,29.09,29.09,0,0,0-6.91,4.83ZM100.29,9.68a1.26,1.26,0,0,1-1.15,1.26c-.36,0-.47-.11-.86-.75a6,6,0,0,0-3.49-2.74c-.11,0-.15-.07-.15-.14s.54-.25,1.15-.25C98.06,7.06,100.29,8.35,100.29,9.68Zm2.92-2.34A1.24,1.24,0,0,1,102,8.6c-.33,0-.54-.18-.76-.61a5.78,5.78,0,0,0-3.49-2.88C97.56,5,97.52,5,97.52,5s.5-.29,1.26-.29C100.94,4.68,103.21,6.05,103.21,7.34Z"/><path class="cls-2" d="M125.74,5.54c0,.58-.22.94-.94,1.62a62.6,62.6,0,0,0-7.48,9.72,7.8,7.8,0,0,0-.87,1.66.33.33,0,0,0,.33.29.45.45,0,0,0,.39-.22c2-2.3,5.11-4.07,7.13-4.07a4.23,4.23,0,0,1,4.32,4.36,7.94,7.94,0,0,1-.26,1.94,27,27,0,0,0-.75,5.15c0,1.8.75,2.63,2.41,2.63,3.13,0,5.76-2.16,7.3-6,.11-.25.15-.32.25-.32s.26.18.26.4a11.12,11.12,0,0,1-1.77,4.6,8,8,0,0,1-6.37,3.1c-2.69,0-4.31-1.73-4.31-4.54A29.58,29.58,0,0,1,126,21a15.12,15.12,0,0,0,.29-2.52A2.33,2.33,0,0,0,123.65,16c-1.65,0-3.6,1-6,3.24s-3.56,5.4-4,10.4c-.07.9-.36,1.37-.79,1.37a3.18,3.18,0,0,1-1.52-.69,1.28,1.28,0,0,1-.39-1c0-3.75,4.17-12.53,10.22-21.57,1-1.58,1.29-2.12,1.29-2.73a2.1,2.1,0,0,0-2.16-1.91c-.14,0-.21-.07-.21-.21s.93-.47,1.8-.47C123.65,2.45,125.74,4.1,125.74,5.54Z"/><path class="cls-2" d="M168.49,20.27c2,1.62,3.09,3.27,3.09,4.78a1.64,1.64,0,0,1-1.51,1.8c-.72,0-1.15-.43-1.58-1.62a13.87,13.87,0,0,0-7.2-7.74A28,28,0,0,1,151,26.24,19.32,19.32,0,0,1,146.4,28c-.25,0-.51-.22-.51-.4s.08-.21.65-.43a31.37,31.37,0,0,0,10.72-7.95,31.41,31.41,0,0,0,4.82-7.38,10.36,10.36,0,0,0,1.26-3.17c0-.29-.25-.5-.61-.5a36.18,36.18,0,0,0-8.24,2.23,2.65,2.65,0,0,1-.79.21,1.53,1.53,0,0,1-.93-.43,5.65,5.65,0,0,0-.51-.39,1.68,1.68,0,0,1-.9-1.66c0-.65.11-.94.33-.94.07,0,.14.08.18.19.21.5,1.25.89,2.48.89a54.5,54.5,0,0,0,6.69-1,7.34,7.34,0,0,0,2.77-1.15.81.81,0,0,1,.54-.22c.32,0,.83.29,2.05,1.26.94.72,1.12.9,1.12,1.15s-.11.26-.4.44-.36.25-.75.54a46.34,46.34,0,0,1-4.65,7.59A16.15,16.15,0,0,1,168.49,20.27Z"/><path class="cls-2" d="M181.05,29.84c-.21.07-.32.14-.46.18a1.63,1.63,0,0,1-.33.07c-.25,0-.61-.29-.61-.5s.07-.18.47-.29c0,0,.11-.07.25-.11s.25-.11.43-.18c3.46-1.44,8.53-5.25,11.95-9a33.32,33.32,0,0,0,4.57-7,10.19,10.19,0,0,0,1-2.48.83.83,0,0,0-.83-.76c-.14,0-.4,0-.65.07-.07,0-.86.18-1.58.29s-1,.18-1.33.22a3.22,3.22,0,0,1-.69.1,2.57,2.57,0,0,1-1.36-.5,34.87,34.87,0,0,1-5.72,7c-1.66,1.52-3.93,3.06-4.5,3.06-.18,0-.36-.1-.36-.25s.07-.29.93-.9a29,29,0,0,0,5.65-6.48c1.44-2.16,2.34-4.17,2.34-5.29a2.23,2.23,0,0,0-1.26-2.16c-.1,0-.21-.11-.21-.18s.39-.32.9-.32a4.12,4.12,0,0,1,2.41.86c1.22.79,1.51,1.12,1.51,1.59,0,.18,0,.25-.22.5a4.89,4.89,0,0,0-.61.86c-.21.47-.29.61-.43,1a1.58,1.58,0,0,0,.83.18,18.77,18.77,0,0,0,4.13-.79,7.5,7.5,0,0,0,1.3-.64c.58-.33.79-.44,1-.44s.82.29,2,1.26,1.18,1.05,1.18,1.33-.14.44-.5.58a5.72,5.72,0,0,0-1.12.47C196.2,21,190.34,26.42,181.05,29.84Z"/><path class="cls-2" d="M215.75,19a6.71,6.71,0,0,1-1.59.25,4.12,4.12,0,0,1-3-1.87,9,9,0,0,1-.25-1.94c0-.25.11-.4.25-.4s.18.07.29.25c.5,1,1.29,1.37,3.31,1.37a161.91,161.91,0,0,0,19.93-1.44c.36,0,.68-.07,1-.07a2.35,2.35,0,0,1,1.8.76c.65.64.9,1,.9,1.29,0,.51-.68.83-1.8.83-.21,0-.65,0-1.26,0s-4-.1-5.11-.1A95.52,95.52,0,0,0,215.75,19Z"/><path class="cls-2" d="M259,7.67c-.15.36-.33.64-.47,1a2.48,2.48,0,0,0,1.55.47c.18,0,1.51-.18,4-.54a3.39,3.39,0,0,0,.93-.47c.72-.47.9-.54,1.15-.54s.58.18,1.77,1.19c1.43,1.26,1.47,1.29,1.47,1.58s-.14.29-.47.4a10.81,10.81,0,0,0-1,.46,46.19,46.19,0,0,1-4.21,6.63c2.48,1.83,3.6,3.24,3.6,4.46A1.36,1.36,0,0,1,266,23.72c-.69,0-.9-.18-1.87-1.76a12.86,12.86,0,0,0-1.84-2.45,33.35,33.35,0,0,1-12,8.71,26.29,26.29,0,0,1-4.71,1.58.51.51,0,0,1-.54-.46c0-.11.07-.18.25-.22a37.77,37.77,0,0,0,15.4-10.94,16.6,16.6,0,0,0-6.44-3.46,21.71,21.71,0,0,1-4.36,3.71c-1.22.72-1.44.86-1.65.86s-.4-.14-.4-.28.07-.33.76-.8c3.74-2.52,8.06-9.25,8.06-12.52a2.18,2.18,0,0,0-1.15-2c-.18-.07-.26-.11-.26-.18s.11-.22.87-.29l.29,0a3.61,3.61,0,0,1,2.3,1c1.22,1,1.4,1.19,1.4,1.59,0,.21-.07.32-.36.65-.11.1-.14.18-.5.61Zm6,2.84a.82.82,0,0,0-.83-.76,3.67,3.67,0,0,0-.57.08c-.29,0-.83.1-1.44.14a12.18,12.18,0,0,0-1.55.18c-.36,0-.61.07-.75.07a2.63,2.63,0,0,1-1.77-.83,36.53,36.53,0,0,1-3.42,4.83,20.54,20.54,0,0,1,7.06,2.45C263.32,14.58,265.08,11.23,265.08,10.51Z"/><path class="cls-2" d="M282.68,19a6.66,6.66,0,0,1-1.58.25,4.12,4.12,0,0,1-3-1.87,8.93,8.93,0,0,1-.26-1.94c0-.25.11-.4.26-.4s.18.07.28.25c.51,1,1.3,1.37,3.31,1.37a162.07,162.07,0,0,0,19.94-1.44c.36,0,.68-.07,1-.07a2.35,2.35,0,0,1,1.8.76c.65.64.9,1,.9,1.29,0,.51-.69.83-1.8.83-.22,0-.65,0-1.26,0s-4-.1-5.11-.1A95.78,95.78,0,0,0,282.68,19Z"/><path class="cls-2" d="M327.27,13.14a8.37,8.37,0,0,1,6-3.1c2.48,0,4.35,1.44,4.35,3.31a2.07,2.07,0,0,1-.9,1.84c-.72.54-1,.65-4.14,1.91a62.7,62.7,0,0,0-7.37,3.35c.14,1.87.18,2.73.18,3.2,0,1.69-.36,2.16-1.73,2.16-.4,0-.61-.15-.61-.36a1,1,0,0,1,0-.29,27.5,27.5,0,0,0,.14-3.71c-3,1.84-4.18,3.17-4.18,4.72,0,1.73,1.66,2.41,5.69,2.41a19.41,19.41,0,0,0,5.07-.61,2.78,2.78,0,0,1,.9-.18c.72,0,1.66.79,1.66,1.4,0,1.15-2.27,1.73-7,1.73a11.52,11.52,0,0,1-5.65-1,4.09,4.09,0,0,1-2.38-3.5c0-1.51.94-2.8,3.06-4.24.58-.4.58-.4,2.77-1.69a12.66,12.66,0,0,0-.43-4.4,1.75,1.75,0,0,0-1.62-1.18c-1.37,0-3.7,2.16-5.43,5-.4.65-.76,1-1.15,1s-1.19-1.15-1.19-2c0-.47.14-.69.83-1.26,3.67-3.14,6-6.63,6.65-9.8a11.68,11.68,0,0,1-3,.58,2.07,2.07,0,0,1-1.76-1.22,4.87,4.87,0,0,1-.54-1.33.16.16,0,0,1,.11-.15c.07,0,.11.07.18.15a2.26,2.26,0,0,0,2.05.93A9,9,0,0,0,321,6.16a5.36,5.36,0,0,0,.11-1,1.67,1.67,0,0,0-1.65-1.87c-.11,0-.15,0-.15-.14,0-.33,1.15-.87,1.8-.87a2.43,2.43,0,0,1,2.3,2.06,4.14,4.14,0,0,1-.28,1.29A4.68,4.68,0,0,0,325.4,4.5c1.15.58,1.51.83,1.51,1.08,0,.43-.65.72-4,1.69a39.27,39.27,0,0,1-4,7.38,5.68,5.68,0,0,1,2.3-.61,3.21,3.21,0,0,1,2.56,1.19,5.63,5.63,0,0,1,.93,2.05A16.1,16.1,0,0,1,327.27,13.14Zm2.37,3.63c4-2.23,4-2.23,4.43-2.59a1.84,1.84,0,0,0,.68-1.22,2.07,2.07,0,0,0-2.08-1.73,6.55,6.55,0,0,0-4.39,2.38,18.19,18.19,0,0,0-3.1,5.43,1,1,0,0,0-.07.29C326.19,18.68,326.19,18.68,329.64,16.77Z"/><path class="cls-2" d="M359.33,16.67H357v1.47c0,.4-.65.72-1.44.72-.4,0-.65-.21-.65-.54V3.6L357.39,5H359a31.69,31.69,0,0,0,.68-5l2.85.47c.43.07.68.32.68.61a1,1,0,0,1-.5.76l-.76.54L360.41,5h3.46l.86-1.36,2,1.94a.83.83,0,0,1,.25.58.66.66,0,0,1-.39.54l-.58.32V17.49c0,.65-.68,1.12-1.62,1.12-.32,0-.46-.18-.46-.54v-1.4h-2.42v4.14h10l1.88-2.34,2.87,2.37c.25.18.36.36.36.51a.36.36,0,0,1-.39.32H362.5c3.53,3.56,8.85,6,15,6.91a9.74,9.74,0,0,0-2.77,2.81,29.34,29.34,0,0,1-7.41-3.78,25.53,25.53,0,0,1-5.73-5.47v9.5a.55.55,0,0,1-.1.36,2.8,2.8,0,0,1-1.59.58.53.53,0,0,1-.54-.47V22.93a39.47,39.47,0,0,1-9.85,6.62,22.4,22.4,0,0,1-5.11,2,.3.3,0,0,1-.33-.29c0-.18,0-.18,2.13-1.26a41,41,0,0,0,11-8.31h-5.47c-2.49.07-3.6.07-6.62.18l-.47-1.26,3.85.14c1.58,0,2.66.08,3.24.08h7.62Zm-5.28-4-5.83,4.79-.15.69c-.11.46-.39.75-.72.75a.74.74,0,0,1-.39-.14l-2.31-2.27c3.13-1.37,4.21-1.91,9.11-4.5Zm-8.21-8.89c3.64.87,6.08,2.92,6.08,5a1.42,1.42,0,0,1-1.29,1.58,1.18,1.18,0,0,1-.9-.4c-.25-.25-.25-.25-1-2.23a10.69,10.69,0,0,0-3.06-3.52ZM364,10.4V5.87h-7V10.4Zm0,5.4V11.27h-7V15.8ZM374.66,5.22a.43.43,0,0,1,.18.32c0,.18-.21.36-.68.47l-1.22.32-5.22,4.4c-.36.28-.54.39-.72.39s-.29-.11-.29-.32.14-.4,1.58-2.23c1-1.34,1.91-2.63,3.82-5.47Zm-7.52,6.55c2.92.47,4.21.86,5.62,1.69s2.3,1.87,2.3,2.88a1.32,1.32,0,0,1-1.26,1.33c-.47,0-.58-.1-2.45-2.26a14.46,14.46,0,0,0-4.28-3Z"/><path class="cls-2" d="M405.54,22.82c0,.61-.83,1.91-2,3.24a12.41,12.41,0,0,1-9.46,4.54,7.62,7.62,0,0,1-5.76-2.2c-1.47-1.55-2.08-3.56-2.08-6.73,0-2.05,0-2.52.72-11.48.21-2.92.21-2.92.21-3.35,0-2.2-.5-3.13-1.69-3.13-.22,0-.32-.07-.32-.18,0-.36.72-.69,1.51-.69,1.76,0,3.45,2,3.45,4.14a9.83,9.83,0,0,1-.5,2.63,71,71,0,0,0-1.48,11.84c0,4.86,1.91,7,6.23,7A13.07,13.07,0,0,0,402,25.7a15.12,15.12,0,0,0,2.91-2.81c.15-.25.29-.36.4-.36A.28.28,0,0,1,405.54,22.82Z"/><path class="cls-2" d="M421.67,8c0-.83,0-1.44,0-1.55,0-2.12-.36-2.7-1.76-2.77-.25,0-.32,0-.32-.11,0-.28,1.36-.9,1.94-.9a5.5,5.5,0,0,1,2.16.72,1.43,1.43,0,0,1,.72,1,4.41,4.41,0,0,1-.22,1,15.63,15.63,0,0,0-.61,2.88c1.55-.61,2.09-1,2.48-1.62,1.12.14,2.05.72,2.05,1.3,0,.28-.18.43-.82.75a29.14,29.14,0,0,1-4,1.51,4,4,0,0,0-.15.76c-.07.57-.14,1.19-.21,1.8,0,.07-.08.61-.18,1.19A1.56,1.56,0,0,1,424,15.44c0,.51-.11.87-1.08,4.36-1.12,3.78-1.33,4.86-1.33,6.19,0,1.58,1.22,2.3,3.88,2.3a19.93,19.93,0,0,0,6.66-1.22c1.19-.54,1.62-1.37,1.62-3,0-1.08,0-1.33-.54-6.55-.21-2.3-.32-4-.32-5,0-2.24.9-3.35,2.59-3.35,3.16,0,7.16,3.31,7.16,5.9,0,1.12-.94,2.41-1.73,2.41a.45.45,0,0,1-.36-.21c-.79-.94-1.65-1.23-3.63-1.19-.29,0-.4-.11-.4-.25s0-.18.32-.22c.58-.11,2.13-.43,2.45-.54a.83.83,0,0,0,.65-.75,5.1,5.1,0,0,0-1.4-2.56A5,5,0,0,0,435.27,10c-1,0-1.51.93-1.51,2.73a42.35,42.35,0,0,0,.86,7.81c.54,2.34,1,3.35,1.83,4.11a1.82,1.82,0,0,1,.19.79,3.46,3.46,0,0,1-2.09,2.88,18.07,18.07,0,0,1-8.17,1.76c-4.43,0-6.51-1.33-6.51-4.17a16.8,16.8,0,0,1,.39-2.92,1.73,1.73,0,0,1-1.33.54c-1.37,0-2.23-1.58-2.23-4,0-3.28,1.87-5.94,4.14-5.94a4.87,4.87,0,0,1,.58,0c.1-1.76.1-1.83.18-3.06a18.49,18.49,0,0,1-4.57.87A1.88,1.88,0,0,1,415,10a6.84,6.84,0,0,1-.37-2.12c0-.18.08-.25.22-.25s.11,0,.15.17a2.42,2.42,0,0,0,2.48,1.88,16.24,16.24,0,0,0,4.21-.8Zm-2.56,8a8.35,8.35,0,0,0-.79,3.56c0,1.37.5,2.31,1.26,2.31.58,0,.94-.44,1.15-1.34s.72-4.24.72-4.64c0-.72-.25-1.15-.68-1.19A2.31,2.31,0,0,0,419.11,16Z"/><path class="cls-2" d="M457.3,17.6a11.46,11.46,0,0,1-.76,4.18c-.83,2-2.77,3.63-4.32,3.63a1.72,1.72,0,0,1-1.47-1.55c0-.46.18-.64,1.29-1.15a8.51,8.51,0,0,0,4.68-5.22c0-.18.11-.21.25-.21A.29.29,0,0,1,457.3,17.6Zm7.08-3.49c0,.11,0,.11,0,3.85l.07,3.89c0,1.19,0,2.34.07,2.59,0,.65,0,1.22,0,1.58a3.34,3.34,0,0,1-1.22,2.74,3.25,3.25,0,0,1-2,.94c-.33,0-.47-.22-.51-.76-.1-1.58-.64-2.45-2.3-3.85-.14-.11-.22-.22-.22-.29a.39.39,0,0,1,.36-.32c.15,0,.15,0,1.44.82.76.47,1,.58,1.34.58.82,0,.82,0,.89-7l0-4.68v-1a33.41,33.41,0,0,0-7.27,1.55,2.71,2.71,0,0,1-1,.25,4.48,4.48,0,0,1-1.55-.61,2.81,2.81,0,0,1-1.4-2.34c0-.22.07-.33.18-.33s.18,0,.29.18c.5.65,1.29.87,3,.87,1.48,0,5.25-.36,7.66-.69,0-5.25-.18-5.65-2.15-5.9-.22,0-.33,0-.33-.14,0-.33,1.3-1,1.94-1a4.21,4.21,0,0,1,2.56,1c.57.44.86.8.86,1a.71.71,0,0,1-.1.33c-.47.75-.54,1.29-.72,4.42,4.2-.39,5.93-.72,7.16-1.26.68-.39.68-.39.9-.39a4.16,4.16,0,0,1,2.12,1c.79.54,1,.79,1,1.19a.85.85,0,0,1-.83.82,4.54,4.54,0,0,1-.61-.07,38.68,38.68,0,0,0-5-.36c-1.43,0-3.59.15-4.82.29Zm6.44,3.78c2.88,1.73,4.57,3.74,4.57,5.51a1.73,1.73,0,0,1-1.62,1.9c-.64,0-.86-.25-1.25-1.69-.65-2.66-3.1-5.65-5.29-6.44-.15-.07-.22-.11-.22-.22s.18-.28.4-.28A7.85,7.85,0,0,1,470.82,17.89Zm5.94-13.07a3.38,3.38,0,1,1-3.31-3.38A3.38,3.38,0,0,1,476.76,4.82Zm-5.61,0a2.21,2.21,0,1,0,2.19-2.23A2.22,2.22,0,0,0,471.15,4.86Z"/><path class="cls-2" d="M497.67,13.71c1.77.83,1.77.83,1.77,1.12a2.25,2.25,0,0,1-.15.54,7.24,7.24,0,0,0-.29,2.74l0,3.52,0,4,0,2.38c0,.47,0,.9,0,1.11,0,.9-.33,1.44-.83,1.44-1,0-2.27-.9-2.27-1.69a3.41,3.41,0,0,1,.11-.68A107.22,107.22,0,0,0,497,16.2a3.78,3.78,0,0,0-.4-2,43.62,43.62,0,0,1-9,7.12,15.7,15.7,0,0,1-3.82,1.62.35.35,0,0,1-.36-.29c0-.07.08-.14.36-.28C489.22,19.83,499.9,9,499.9,5.9c0-.36-.64-1-1.15-1.08-.29-.07-.36-.14-.36-.28s.72-.47,1.41-.47c1.29,0,3.88,1.87,3.88,2.81,0,.25-.11.35-.43.5-.47.18-.68.36-1.22,1a53.27,53.27,0,0,1-4.79,5.08Z"/><path class="cls-2" d="M522.22,11.63a1.45,1.45,0,0,1-1.59,1.47c-.46,0-.68-.18-1-.79a7.47,7.47,0,0,0-5.29-4.25c-.22-.07-.32-.14-.32-.25s.61-.39,1.62-.39C518.91,7.42,522.22,9.54,522.22,11.63ZM517.75,27a5.19,5.19,0,0,1-2.48-1.8,2.59,2.59,0,0,1-.86-2.16c0-.69.18-1.19.43-1.19s.18.07.25.25a2.45,2.45,0,0,0,2,1.73c1.44,0,5.58-2.56,10.62-6.59a68.34,68.34,0,0,0,6.47-5.72c.62-.65,2.56-2.85,2.88-3.28s.43-.54.61-.54A.3.3,0,0,1,538,8c0,.54-1.55,2.91-3.24,5a54.2,54.2,0,0,1-7.41,7.45,49.31,49.31,0,0,1-8.21,5.65C518.44,26.74,518.08,27,517.75,27Z"/><path class="cls-2" d="M552.48,14.51c0,6.08.07,9.32.25,11.8a14.65,14.65,0,0,1,.11,1.51c0,1.48-.54,2.56-1.22,2.56s-1.84-1.58-1.84-2.45c0-.21,0-.5.08-.86.32-1.91.57-9.68.57-16.49,0-3.2-.14-4.46-.54-5.11a1.79,1.79,0,0,0-1.69-.9c-.22,0-.32-.11-.32-.29s.1-.25.28-.32a8.36,8.36,0,0,1,2.13-.58c.5,0,1,.26,2.48,1.23.5.32.68.54.68.79a1.73,1.73,0,0,1-.18.65c-.54.93-.75,2.52-.82,6.4a14.56,14.56,0,0,1,7.26,2.27c1.88,1.26,2.74,2.38,2.74,3.49A1.42,1.42,0,0,1,561,19.73c-.76,0-1.19-.33-2-1.66a12.26,12.26,0,0,0-6.54-5Z"/></g></g></g></svg>