<svg xmlns="http://www.w3.org/2000/svg" viewBox="0 0 209.76 50.72"><defs><style>.cls-1{fill:#fff;}</style></defs><title>top-new-title</title><g id="Layer_2" data-name="Layer 2"><g id="Layer_1-2" data-name="Layer 1"><path class="cls-1" d="M5.68,14.9a12.17,12.17,0,0,1,.06,1.3C5.74,19.76,4,23,2.07,23A1.63,1.63,0,0,1,.5,21.28C.5,20.52.77,20,2,18.47A9,9,0,0,0,4,12.15a9.25,9.25,0,0,0,0-1L4.77,11a9.1,9.1,0,0,1,.81,2.49H31.23A92.15,92.15,0,0,0,36.09,1.3l4.37,2.26c.27.17.43.33.43.6a.51.51,0,0,1-.43.48l-2.27.49c-.43.7-.7,1.13-.75,1.24-.6.87-1.14,1.73-1.73,2.54-2.21,3.35-2.32,3.51-3,4.54h8.16l1.67-2.11L47.21,15a1.44,1.44,0,0,1,.49.87.55.55,0,0,1-.49.59H44.57l-5.19,4.16-.48-.38c1.35-2.7,1.56-3.13,2.53-5.35ZM8.11,3.08c5.35,2.43,7.73,4.59,7.73,7,0,1.19-.76,2.21-1.68,2.21-.65,0-1-.38-1.62-1.94A13.78,13.78,0,0,0,7.63,3.78Zm3.57,45.36c0,.59-1.57,1.73-2.49,1.78-.21,0-.32-.16-.32-.54V32.89l3,1.89h8.16L21,29.16H15.73v1.78c0,.49-1.35,1.51-2,1.51-.32,0-.59-.37-.59-.75V18.09L16.27,20h15l.92-1.62L36,20.3c.32.17.48.38.48.6s-.1.38-.48.59l-1.19.7v7.24c0,.76-.32,1.19-1.24,1.73a2.52,2.52,0,0,1-1,.38.38.38,0,0,1-.38-.38v-2h-7.5l-3,5.62H36.79l1.13-1.68,4,2.11c.22.11.33.21.33.43a.51.51,0,0,1-.33.43l-1.78.81V47.2c0,.7-.11.86-.76,1.13a4.58,4.58,0,0,1-1.4.43c-.43,0-.7-.21-.7-.54V45.63H11.68Zm0-4.43H37.33V36.23H11.68ZM15.73,27.7H32.14V21.49H15.73Zm2.1-27C23.23,3.08,26,5.72,26,8.53a1.74,1.74,0,0,1-1.68,1.89c-.91,0-1.13-.32-1.89-2.59a13.91,13.91,0,0,0-5-6.48Z"/><path class="cls-1" d="M9.22,50.72c-.23,0-.85-.08-.85-1V32L12,34.28h7.58l.76-4.62H16.23v1.28c0,.87-1.68,2-2.45,2a1.19,1.19,0,0,1-1.09-1.25V17.18l3.72,2.35H31l1-1.78,4.2,2.11a1.09,1.09,0,0,1,0,2.07l-.94.55v7a2.37,2.37,0,0,1-1.49,2.16,2.77,2.77,0,0,1-1.28.45.87.87,0,0,1-.88-.88v-1.5h-6.7L22.5,34.28h14l1.24-1.83,4.44,2.31a1,1,0,0,1,.6.88,1,1,0,0,1-.61.88l-1.5.68v10a1.41,1.41,0,0,1-1.06,1.59,4.71,4.71,0,0,1-1.6.47,1.08,1.08,0,0,1-1.2-1V46.13H12.18v2.31c0,1-1.93,2.22-3,2.28Zm.15-16.93V49.68h0a3.44,3.44,0,0,0,1.81-1.27V45.13H37.83v3.09s.07,0,.2,0a4.22,4.22,0,0,0,1.21-.39c.45-.19.45-.19.45-.67V36.56l2-.92-3.63-1.89-1,1.53H20.84l3.5-6.62h8.3V31a2.78,2.78,0,0,0,.66-.3c.85-.49,1-.8,1-1.29V21.91l1.43-.85c.21-.12.25-.17.25-.18s-.06-.05-.21-.13L32.4,19.07l-.83,1.46H16.12L13.69,19V31.7a.33.33,0,0,0,.12.26,2.93,2.93,0,0,0,1.42-1.06V28.66h6.32l-1.08,6.62H11.75ZM37.83,44.51H11.18V35.73H37.83Zm-25.65-1H36.83V36.73H12.18ZM32.64,28.2H15.23V21H32.64Zm-16.41-1H31.64V22H16.23ZM2.07,23.45A2.13,2.13,0,0,1,0,21.28c0-1,.39-1.63,1.56-3.12a8.55,8.55,0,0,0,1.95-6,8.26,8.26,0,0,0,0-1l0-.46,1.65-.33.16.37A8.54,8.54,0,0,1,6,13H30.91a91.08,91.08,0,0,0,4.7-11.81L35.8.58l4.89,2.54a1.22,1.22,0,0,1,.7,1,1,1,0,0,1-.83,1l-2.05.44-.13.22c-.28.44-.45.72-.5.81l-.68,1c-.36.54-.71,1.07-1.09,1.59L33.63,13h7l1.83-2.31,5.09,4a1.93,1.93,0,0,1,.68,1.26,1,1,0,0,1-1,1.09H44.74l-5.35,4.3-1.13-.88.19-.36c1.19-2.4,1.5-3,2.22-4.63H6.22c0,.35,0,.61,0,.8C6.24,20.13,4.33,23.45,2.07,23.45ZM4.5,11.59c0,.24,0,.42,0,.56a9.48,9.48,0,0,1-2.16,6.63C1.2,20.25,1,20.69,1,21.28a1.13,1.13,0,0,0,1.07,1.17c1.46,0,3.17-2.73,3.17-6.25,0-.26,0-.68,0-1.25l-.05-.55H42.2l-.31.71c-.88,2-1.14,2.54-2.17,4.6L44.39,16H47.2s0,0,0-.09a1.08,1.08,0,0,0-.34-.51L42.6,12,41.08,14H31.74l.53-.79c.7-1,.81-1.18,3-4.53.38-.52.73-1,1.08-1.57l.65-1s.2-.34.51-.83l.35-.57,2.48-.54s0-.06-.15-.16L36.38,2a92.52,92.52,0,0,1-4.7,11.65l-.14.29H5.17l-.08-.4A8.07,8.07,0,0,0,4.5,11.59Zm9.66,1.22c-1,0-1.42-.66-2.08-2.25A13.42,13.42,0,0,0,7.33,4.18l-.39-.29,1-1.44.38.17c5.55,2.52,8,4.83,8,7.48A2.5,2.5,0,0,1,14.16,12.81Zm-5.7-9A14.34,14.34,0,0,1,13,10.18c.67,1.63.88,1.63,1.15,1.63.63,0,1.18-.8,1.18-1.71C15.34,8,13.21,6,8.46,3.79Zm15.85,7.13C23,10.92,22.68,10.17,22,8a13.53,13.53,0,0,0-4.81-6.25l-.32-.26L17.62,0,18,.19c5.61,2.53,8.45,5.33,8.45,8.34A2.24,2.24,0,0,1,24.31,10.92Zm-6-9.49A14,14,0,0,1,22.9,7.67c.75,2.25.88,2.25,1.41,2.25a1.25,1.25,0,0,0,1.18-1.39C25.49,6.07,23.09,3.69,18.35,1.43Z"/><path class="cls-1" d="M52.88,33c5.18.22,6.75.27,10.64.27H75.29V28.67H69.13c-2,0-2,0-7.77.22l-1.57-1.78c4.81.21,6.7.27,9.34.27h6.16V22.57H65.84c-3,0-4.16.06-7.67.22l-1.73-1.95c4.7.22,6.21.27,9.4.27h3.51C69.13,20.57,69,20.2,69,20l-.38-1.56a18.55,18.55,0,0,0-2.26-5.29H62.49c-2.43,0-3.89.05-7.56.21l-1.78-1.94c4.64.21,6.26.27,9.34.27H71V.81l4,.59c.27,0,.54.33.54.71a.84.84,0,0,1-.33.59l-1.29.65v8.37h5.23V.81l4.16.49a.64.64,0,0,1,.6.59.52.52,0,0,1-.27.43l-1.78.81v8.59h3.45a61.17,61.17,0,0,0,5.29-9.78l3.84,2.49c.32.21.43.38.43.59a.49.49,0,0,1-.49.49l-2.27,0a81.38,81.38,0,0,1-5.56,6.16h7.83l3.24-3,3.57,3a1.07,1.07,0,0,1,.32.7.72.72,0,0,1-.65.76H84.74l2.16,1.4c.27.22.49.43.49.7s-.33.54-.65.6L85.06,16c-1.61,2.48-1.83,2.81-3.51,5.07H92.3l2.49-2.48L98.08,21a1,1,0,0,1,.38.75.79.79,0,0,1-.76.81H78v4.81H88.47l2.75-2.76,3.46,2.49a1.17,1.17,0,0,1,.48.81.78.78,0,0,1-.81.75H78v4.59H94.46l3.13-2.8L101,33.21a.93.93,0,0,1,.37.7.72.72,0,0,1-.64.76H79.18c5.24,4.91,13.61,8.64,23.22,10.42-2.75,1.4-3.51,2-4.43,3.46C88.2,44.28,83.5,41.26,78,35.69V47.84c0,.65-.32,1-1.13,1.41a4.84,4.84,0,0,1-1.19.38c-.32,0-.43-.17-.43-.49V36.07a76.35,76.35,0,0,1-14,10c-3.94,2.21-7.18,3.78-7.88,3.78a.44.44,0,0,1-.43-.49c0-.38,0-.43,1.67-1.3A75.36,75.36,0,0,0,72.38,34.67H63.52c-3,0-4.7,0-8.7.27ZM58.71,3.08A17.88,17.88,0,0,1,63,4.64c2,1.14,3.24,2.76,3.24,4.16a1.4,1.4,0,0,1-1.35,1.46c-.59,0-.86-.27-1.51-1.46a12.93,12.93,0,0,0-5-5.07Zm8.8,10.1c3.24,2.43,4.43,4.05,4.43,6.21a4.46,4.46,0,0,1-.43,1.72h8.64A51.15,51.15,0,0,0,83,13.18Z"/><path class="cls-1" d="M53.42,50.4a.94.94,0,0,1-.93-1c0-.7.29-.86,1.94-1.74a75.15,75.15,0,0,0,16.74-12.5H63.52c-3,0-4.62,0-8.67.27h-.22l-3-3,1.28.05c5.32.23,6.82.27,10.62.27H74.79V29.17H69.13c-2,0-2,0-7.75.22h-.24l-2.5-2.84,1.18.05c4.75.21,6.67.27,9.31.27h5.66V23.07h-9c-3,0-4.16.06-7.64.22H58l-2.68-3,1.19.06c4.67.21,6.2.26,9.37.26h2.79c0-.12-.07-.23-.1-.31l0-.11-.39-1.61A17.79,17.79,0,0,0,66,13.68H62.49c-2.42,0-3.91.05-7.53.21h-.24l-2.76-3,1.21.06c4.56.21,6.23.27,9.32.27h8V.23L75,.91h0a1.14,1.14,0,0,1,1,1.2,1.35,1.35,0,0,1-.55,1l-1.07.54v7.56h4.23V.25L83.34.8a1.14,1.14,0,0,1,1,1.09,1,1,0,0,1-.55.88l-1.5.68v7.77H85a61.66,61.66,0,0,0,5.11-9.48l.24-.53L94.68,4a1.21,1.21,0,0,1,.66,1,1,1,0,0,1-1,1l-2,0c-1.7,2-2.76,3.23-4.62,5.16h6.45L97.58,8l3.9,3.31a1.58,1.58,0,0,1,.5,1.08,1.22,1.22,0,0,1-1.15,1.26H86.43l.74.48a1.52,1.52,0,0,1,.72,1.12,1.25,1.25,0,0,1-1.07,1.09l-1.47.14c-1.3,2-1.67,2.56-2.81,4.1h9.55L94.73,18l3.64,2.62A1.54,1.54,0,0,1,99,21.76a1.29,1.29,0,0,1-1.26,1.31H78.54v3.81h9.72L91.17,24,95,26.7a1.71,1.71,0,0,1,.69,1.22,1.28,1.28,0,0,1-1.31,1.25H78.54v3.59H94.27l3.31-3,3.73,3a1.42,1.42,0,0,1,.56,1.09,1.22,1.22,0,0,1-1.14,1.26H80.49c5.19,4.42,12.94,7.75,22,9.43l1.45.27-1.31.67c-2.66,1.35-3.37,1.9-4.24,3.27l-.22.37-.4-.18c-9.36-4.08-14.07-7-19.23-12.1V47.84a2,2,0,0,1-1.42,1.86,4.39,4.39,0,0,1-1.4.43.88.88,0,0,1-.93-1v-12a76.19,76.19,0,0,1-13.24,9.36C59.94,47.45,54.61,50.4,53.42,50.4Zm10.1-16.23h10l-.84.85A76.18,76.18,0,0,1,54.91,48.55a9.56,9.56,0,0,0-1.44.84h0c.36,0,2.79-1,7.59-3.71A75.66,75.66,0,0,0,75,35.7l.83-.75V49.11a7.67,7.67,0,0,0,.93-.33c.76-.35.82-.61.82-.94V34.47l.86.87c5.34,5.44,9.9,8.41,19.38,12.58a7.91,7.91,0,0,1,3.13-2.61c-9.22-1.91-17-5.53-22.07-10.28l-.92-.86h22.81a.26.26,0,0,0,.14-.26.45.45,0,0,0-.17-.3l-3.09-2.5-3,2.65H77.54V28.17H94.35a.28.28,0,0,0,.31-.25.79.79,0,0,0-.29-.42l-3.1-2.22-2.6,2.6H77.54V22.07H97.7a.3.3,0,0,0,.26-.31.52.52,0,0,0-.18-.35l-2.94-2.13-2.33,2.33h-12l.59-.79c1.67-2.26,1.87-2.55,3.5-5.06l.13-.2,1.91-.18a.41.41,0,0,0,.2-.13,3.58,3.58,0,0,0-.3-.28l-3-2-.07.29a52.73,52.73,0,0,1-2.89,8l-.13.29H70.77l.28-.68a3.91,3.91,0,0,0,.39-1.54c0-1.95-1.1-3.47-4.23-5.81l-.13-.1a18.56,18.56,0,0,1,2,4.86L69.49,20c.06.19.16.51.32.93l.28.68H65.84c-2.91,0-4.44,0-8.23-.21l.78.88c3.32-.16,4.51-.21,7.45-.21h10v5.81H69.13c-2.43,0-4.25-.05-8.19-.22l.64.72c5.49-.21,5.52-.21,7.55-.21h6.66v5.59H63.52c-3.5,0-5.05,0-9.38-.21l.88.88C58.88,34.22,60.59,34.17,63.52,34.17Zm8.71-13.56h7.59a51.62,51.62,0,0,0,2.54-6.93H69c2.55,2.09,3.48,3.67,3.48,5.71A3.86,3.86,0,0,1,72.23,20.61ZM54.34,12l.8.88c3.48-.15,5-.2,7.35-.2h38.34a.26.26,0,0,0,.15-.26.54.54,0,0,0-.18-.35L97.61,9.36l-3.06,2.86H81.33V2.81l2.07-.94a.43.43,0,0,0-.2-.08l-3.58-.42V12.22H73.39V3L75,2.25h0s0-.1.05-.15a.32.32,0,0,0-.09-.21l-3.4-.5V12.22h-9C59.67,12.22,58,12.17,54.34,12ZM90.79,2.68A61.48,61.48,0,0,1,86,11.54l.17-.17A81.17,81.17,0,0,0,91.7,5.24l.14-.17L94.34,5a1.82,1.82,0,0,0-.21-.17ZM64.92,10.76c-.91,0-1.31-.55-2-1.72a12.44,12.44,0,0,0-4.85-4.89l-.38-.24.71-1.43.4.12a17.67,17.67,0,0,1,4.42,1.61c2.17,1.26,3.5,3,3.5,4.59A1.88,1.88,0,0,1,64.92,10.76Zm-5.49-7a13,13,0,0,1,4.41,4.75c.66,1.21.8,1.21,1.08,1.21a.9.9,0,0,0,.85-1c0-1.18-1.2-2.68-3-3.72A14,14,0,0,0,59.43,3.8Z"/><path class="cls-1" d="M112.06,42.34c0,.59-1.35,1.4-2.32,1.4-.27,0-.43-.16-.43-.54V6.43l3.29,1.94h6.7l1.08-1.62,3.51,2.43a1,1,0,0,1,.54.81c0,.27-.16.49-.54.59l-1.46.38V40c0,.38-1.35,1-2.16,1-.27,0-.48-.11-.48-.27V36.83h-7.73Zm0-20.42h7.73V9.83h-7.73Zm0,13.4h7.73V23.38h-7.73Zm24.63-23.06h-4.16c-1.24,0-1.46,0-5.94.16l-1.3-1.78c3.57.11,4.76.16,7.24.16h4.16v-9l3.78.49c.54.11,1,.43,1,.81s-.22.59-.7.86l-1.14.7V10.8H147l2.54-2.92,3.34,2.43c.55.44.71.65.71,1.08a.87.87,0,0,1-.92.87h-13v8.15h10.7l2.53-3,3.25,2.54a1.41,1.41,0,0,1,.75,1.18c0,.49-.32.76-.92.76h-9.23v7.88h3.51l2.43-2.86,3.24,2.65a1.36,1.36,0,0,1,.59,1c0,.49-.27.7-.81.7h-9V45.63c0,1.89-.38,2.54-2.05,3.51a5.11,5.11,0,0,1-2.16.81c-.33,0-.54-.22-.65-.7a3.88,3.88,0,0,0-.32-1,2.61,2.61,0,0,0-.87-.38l-4.54-1.35.11-.65,4.7.16c2.21.06,2.81-.38,2.81-2.05V31.21H133.56c-1.52,0-2.11,0-7.56.22l-1.57-1.89c5.08.16,7,.21,9.13.21h10.15V21.87h-16c-.43,0-1.29.05-2.59.11l-1.46-1.78c3.57.21,4.32.21,7.24.21h5.78Zm-7.78,21.33c3.35,1.24,3.62,1.35,4.81,2.48a5.52,5.52,0,0,1,1.94,3.84c0,1.29-.7,2.16-1.73,2.16-.81,0-1.08-.38-1.45-2.06a11.4,11.4,0,0,0-3.84-6Z"/><path class="cls-1" d="M142.47,50.45c-.34,0-.93-.14-1.14-1.09a3.4,3.4,0,0,0-.23-.75,5.87,5.87,0,0,0-.63-.24l-4.94-1.47.25-1.51,5.14.17c1.1,0,1.72-.08,2-.34a1.65,1.65,0,0,0,.3-1.21V31.71h-9.65c-1.53,0-2.1,0-7.54.22h-.25L123.34,29l1.11,0c5.12.16,7,.21,9.11.21h9.65V22.37H127.72c-.26,0-.69,0-1.29.05l-1.53.07-2-2.41V40c0,.88-1.86,1.53-2.66,1.53-.57,0-1-.33-1-.77V37.33h-6.73v5c0,1-1.75,1.9-2.82,1.9a.92.92,0,0,1-.93-1V5.55l3.93,2.32H119l1.22-1.82,3.92,2.72a1.51,1.51,0,0,1,.76,1.22.76.76,0,0,1,0,.14l2,.06c2.34.07,3.52.11,5.56.11h3.66V1.21l4.34.56c.86.17,1.41.69,1.41,1.31a1.59,1.59,0,0,1-1,1.3l-.88.54V10.3h6.62l2.69-3.09,3.72,2.7a1.78,1.78,0,0,1,.91,1.48,1.37,1.37,0,0,1-1.42,1.37H140.1v7.15h10l2.7-3.21,3.62,2.83a1.91,1.91,0,0,1,1,1.58,1.24,1.24,0,0,1-1.42,1.26h-8.73v6.88H150l2.6-3.05,3.62,2.95a1.83,1.83,0,0,1,.77,1.36,1.16,1.16,0,0,1-1.31,1.2h-8.46V45.63c0,2.07-.47,2.88-2.3,3.94A5.54,5.54,0,0,1,142.47,50.45Zm-5-4,3.27,1a2.84,2.84,0,0,1,1.08.5l.09.13a4,4,0,0,1,.37,1.1c.05.25.12.3.12.3h0a4.69,4.69,0,0,0,1.93-.74c1.52-.88,1.81-1.37,1.81-3.08V30.71h9.46c.31,0,.31,0,.31-.2s-.15-.36-.42-.59l-2.85-2.33-2.26,2.66h-4.24V21.37h9.73c.42,0,.42-.14.42-.26s-.06-.44-.54-.78l-2.88-2.25-2.38,2.83H139.1V11.76h13.52a.38.38,0,0,0,.42-.37c0-.19,0-.27-.52-.68l-3-2.15-2.38,2.74H139.1V4.37l1.38-.85c.39-.22.46-.4.46-.44s-.19-.25-.57-.32l-3.18-.41v9h-4.66c-2.06,0-3.24,0-5.59-.11l-.64,0,.54.74c4.23-.15,4.47-.15,5.69-.15h4.66v9.15h-6.28c-2.57,0-3.48,0-6.13-.15l.58.71,1,0c.62,0,1.07-.05,1.34-.05h16.49v8.88H133.56c-2,0-3.73,0-8-.18l.7.85c5.24-.21,5.86-.21,7.34-.21h10.65V44a2.6,2.6,0,0,1-.6,1.92,3.62,3.62,0,0,1-2.72.63ZM109.81,7.3V43.24a2.51,2.51,0,0,0,1.75-.91v-6h8.73v4.16a3.26,3.26,0,0,0,1.64-.63V10.58l1.84-.48c.1,0,.16-.07.16-.11s-.12-.25-.33-.4l-3.09-2.14-.94,1.42h-7.1Zm13.12,12.35.78.05c3.54.21,4.32.21,7.2.21h5.28V12.76h-3.66c-1.23,0-1.45,0-5.92.16h-.27l-1.65-2.27a1.27,1.27,0,0,1-.66.4l-1.1.29Zm11,22.92c-1.3,0-1.6-.93-1.94-2.45a10.91,10.91,0,0,0-3.67-5.72l-.33-.28L128.7,33l.39.14c3.35,1.24,3.7,1.37,5,2.59a6,6,0,0,1,2.1,4.2C136.16,41.47,135.25,42.57,133.93,42.57Zm-4.08-8.1A11.35,11.35,0,0,1,133,39.91c.37,1.66.56,1.66,1,1.66.75,0,1.23-.65,1.23-1.66a5,5,0,0,0-1.78-3.47C132.39,35.5,132.11,35.32,129.85,34.47Zm-9.56,1.35h-8.73V22.88h8.73Zm-7.73-1h6.73V23.88h-6.73Zm7.73-12.4h-8.73V9.33h8.73Zm-7.73-1h6.73V10.33h-6.73Z"/><path class="cls-1" d="M167.52,48.71a.8.8,0,0,1-.48.86,7.1,7.1,0,0,1-2,.65c-.27,0-.43-.22-.43-.7V2.27l3.94,1.94h10.58l1.08-1.4,3,1.51a1,1,0,0,1,.54.76c0,.27-.17.48-.54.64l-1.19.6V19.93c0,.43-.16.7-.7,1a3.87,3.87,0,0,1-1.46.59c-.27,0-.38-.16-.38-.54V18.63h-12Zm12-38.29V5.67h-12v4.75Zm0,6.75V11.88h-12v5.29Zm-.11,26.95c0,.59-.16.76-1.08,1.19a5.3,5.3,0,0,1-1.08.32.39.39,0,0,1-.43-.43V23.33L179.73,25h11.12l1.4-1.67,2.81,1.46a1,1,0,0,1,.6.86.94.94,0,0,1-.6.81l-1.13.43V42.61c0,.59-.11.75-.81,1.18a2.42,2.42,0,0,1-1.3.54.52.52,0,0,1-.54-.59V40.12H179.4Zm11.88-12.69v-5H179.4v5ZM179.4,38.66h11.88V32.89H179.4ZM191.5,20a.87.87,0,0,1-.54.86,6,6,0,0,1-1.89.65c-.27,0-.38-.21-.38-.54V2.48L192,4.21h12l1.19-1.73,3.51,2.06a.85.85,0,0,1,.48.7c0,.32-.16.48-.48.59l-1.51.43V45.63c0,1.62-.44,2.32-2,3.24a7.38,7.38,0,0,1-2.92,1c-.48,0-.75-.22-1-.76a2.74,2.74,0,0,0-.54-1s-.32-.16-.86-.37l-3-1.41v-.59l4,.27a4.74,4.74,0,0,0,.81.05c2.11,0,2.65-.43,2.65-1.94V18.63h-13Zm13-9.56V5.67h-13v4.75Zm0,6.75V11.88h-13v5.29Z"/><path class="cls-1" d="M165,50.72c-.16,0-.93-.06-.93-1.2V1.46l4.55,2.25h10.23l1.18-1.53,3.39,1.69a1.45,1.45,0,0,1,.82,1.21,1.17,1.17,0,0,1-.85,1.1l-.88.45v13.3a1.48,1.48,0,0,1-1,1.42,4,4,0,0,1-1.68.64c-.27,0-.88-.1-.88-1V19.13H168V48.71a1.28,1.28,0,0,1-.74,1.3A7.4,7.4,0,0,1,165,50.72Zm.07-47.65V49.52a.92.92,0,0,0,0,.19,7.64,7.64,0,0,0,1.69-.59c.21-.11.21-.12.21-.41V18.13h13V21h0a3.57,3.57,0,0,0,1-.46c.5-.26.5-.39.5-.57V6L183,5.28c.14-.06.27-.13.27-.2a.49.49,0,0,0-.27-.31l-2.65-1.33-1,1.27H168.43ZM202.35,50.4a1.46,1.46,0,0,1-1.43-1.07,5.16,5.16,0,0,0-.38-.81s-.31-.15-.75-.32l-3.28-1.55V45.2l4.53.31a4.48,4.48,0,0,0,.77.05c2.07,0,2.15-.41,2.15-1.44v-25H192V20a1.39,1.39,0,0,1-.79,1.3,6.38,6.38,0,0,1-2.14.71c-.41,0-.88-.27-.88-1V1.66l4,2.05h11.66l1.3-1.89L209,4.1a1.42,1.42,0,0,1,.73,1.14,1.07,1.07,0,0,1-.82,1.07l-1.17.33v39c0,1.81-.53,2.66-2.25,3.67A7.64,7.64,0,0,1,202.35,50.4Zm-4.21-4.09,2.05,1c.54.22.87.39.87.39.33.21.5.57.78,1.29.17.42.3.44.51.44a6.86,6.86,0,0,0,2.67-1c1.4-.83,1.75-1.38,1.75-2.81V5.89l1.87-.54c.1,0,.12-.06.12-.06s-.08-.22-.26-.34l-3.08-1.8-1.08,1.56H191.92L189.19,3.3V21a7.07,7.07,0,0,0,1.53-.57c.25-.15.28-.22.28-.43V18.13h14v26c0,2.05-1.11,2.44-3.15,2.44a5,5,0,0,1-.9-.06Zm-20.9-.18a.89.89,0,0,1-.93-.93V22.46l3.55,2h10.76l1.51-1.8,3.16,1.64a1.55,1.55,0,0,1,.87,1.31,1.41,1.41,0,0,1-.94,1.28l-.79.31V42.61c0,.82-.26,1.13-1.05,1.61a2.84,2.84,0,0,1-1.56.61,1,1,0,0,1-1-1.09V40.62H179.9v3.5c0,.9-.41,1.19-1.36,1.64A4,4,0,0,1,177.24,46.13Zm.07-21.94V45.11a6.36,6.36,0,0,0,.84-.27c.75-.36.75-.39.75-.72v-4.5h12.88v4.12a.19.19,0,0,0,0,.1,2.08,2.08,0,0,0,1-.45c.6-.37.6-.4.6-.78V26.55l1.45-.56a.45.45,0,0,0,.28-.34.6.6,0,0,0-.35-.43L192.38,24l-1.3,1.54H179.59Zm14.47,15H178.9V32.39h12.88Zm-11.88-1h10.88V33.39H179.9Zm11.88-6.23H178.9V26h12.88Zm-11.88-1h10.88V27H179.9ZM205,17.67H191V11.38h14Zm-13-1h12V12.38H192Zm-12,1H167V11.38h13Zm-12-1h11V12.38H168ZM205,10.92H191V5.17h14Zm-13-1h12V6.17H192Zm-12,1H167V5.17h13Zm-12-1h11V6.17H168Z"/></g></g></svg>