<svg xmlns="http://www.w3.org/2000/svg" viewBox="0 0 208.76 49.57"><defs><style>.cls-1{fill:#fff;}</style></defs><title>top-title</title><g id="Layer_2" data-name="Layer 2"><g id="Layer_1-2" data-name="Layer 1"><path class="cls-1" d="M5.18,14.26a11.91,11.91,0,0,1,.06,1.29c0,3.57-1.73,6.75-3.67,6.75A1.62,1.62,0,0,1,0,20.63c0-.76.27-1.3,1.46-2.81A9,9,0,0,0,3.51,11.5a9.1,9.1,0,0,0,0-1l.81-.17a9.21,9.21,0,0,1,.81,2.49H30.73A93.54,93.54,0,0,0,35.59.65L40,2.92c.27.16.43.32.43.59A.52.52,0,0,1,40,4l-2.27.48c-.43.7-.7,1.14-.75,1.24-.6.87-1.14,1.73-1.73,2.54-2.22,3.35-2.32,3.51-3,4.54h8.16L42,10.69l4.7,3.67a1.44,1.44,0,0,1,.49.87.55.55,0,0,1-.49.59H44.06L38.88,20l-.48-.38c1.34-2.7,1.56-3.13,2.53-5.34ZM7.61,2.43C13,4.86,15.34,7,15.34,9.45c0,1.19-.76,2.21-1.68,2.21-.65,0-1-.37-1.62-1.94A13.83,13.83,0,0,0,7.13,3.13Zm3.57,45.36c0,.59-1.57,1.73-2.49,1.78-.21,0-.32-.16-.32-.54V32.24l3,1.89h8.16l.92-5.62H15.23v1.78c0,.49-1.35,1.52-2,1.52-.32,0-.59-.38-.59-.76V17.44l3.08,1.95h15l.92-1.62,3.78,1.89c.32.16.48.37.48.59s-.1.38-.48.59l-1.19.71v7.23c0,.76-.32,1.19-1.24,1.73a2.38,2.38,0,0,1-1,.38.37.37,0,0,1-.38-.38v-2h-7.5l-3,5.62H36.29l1.13-1.68,4,2.11c.22.11.33.22.33.43a.5.5,0,0,1-.33.43l-1.78.81V46.55c0,.7-.11.86-.76,1.13a4.68,4.68,0,0,1-1.4.44c-.43,0-.7-.22-.7-.54V45H11.18Zm0-4.43H36.83V35.59H11.18Zm4.05-16.31H31.64V20.84H15.23Zm2.1-27c5.4,2.43,8.16,5.08,8.16,7.88a1.74,1.74,0,0,1-1.68,1.89c-.91,0-1.13-.32-1.89-2.59A13.91,13.91,0,0,0,17,.7Z"/><path class="cls-1" d="M52.38,32.35c5.18.21,6.75.27,10.64.27H74.79V28H68.63c-2,0-2,0-7.77.21l-1.57-1.78c4.81.22,6.7.27,9.34.27h6.16V21.92H65.34c-3,0-4.16.06-7.67.22L55.94,20.2c4.7.21,6.21.27,9.4.27h3.51c-.22-.54-.32-.92-.38-1.08l-.38-1.57a18.55,18.55,0,0,0-2.26-5.29H62c-2.43,0-3.89.05-7.56.21L52.65,10.8c4.64.22,6.26.27,9.34.27h8.53V.16l4,.6a.66.66,0,0,1,.54.7.84.84,0,0,1-.33.59l-1.29.65v8.37h5.23V.16l4.16.49a.64.64,0,0,1,.6.59.52.52,0,0,1-.27.43l-1.79.81v8.59h3.46A61.47,61.47,0,0,0,90.07,1.3l3.84,2.48c.32.22.43.38.43.59a.49.49,0,0,1-.49.49l-2.27,0A79.5,79.5,0,0,1,86,11.07h7.83l3.24-3,3.57,3a1.07,1.07,0,0,1,.32.7.72.72,0,0,1-.65.76H84.24l2.16,1.4c.27.22.49.43.49.7s-.33.54-.65.6l-1.68.16c-1.62,2.48-1.83,2.81-3.51,5.08H91.8L94.28,18l3.3,2.38a1,1,0,0,1,.38.75.78.78,0,0,1-.76.81H77.54v4.81H88L90.72,24l3.46,2.48a1.19,1.19,0,0,1,.48.81.79.79,0,0,1-.81.76H77.54v4.59H94l3.13-2.81,3.41,2.75a.93.93,0,0,1,.37.7.72.72,0,0,1-.64.76H78.68c5.24,4.91,13.61,8.64,23.22,10.42-2.75,1.41-3.51,2-4.43,3.46C87.7,43.63,83,40.61,77.54,35.05V47.2c0,.64-.32,1-1.13,1.4a4.43,4.43,0,0,1-1.19.38c-.32,0-.43-.16-.43-.49V35.42a76.35,76.35,0,0,1-14,10c-3.94,2.21-7.18,3.78-7.88,3.78a.44.44,0,0,1-.43-.49c0-.38,0-.43,1.67-1.29A75.41,75.41,0,0,0,71.87,34H63c-3,0-4.7,0-8.7.27ZM58.21,2.43A17.35,17.35,0,0,1,62.53,4c2,1.13,3.24,2.75,3.24,4.15a1.4,1.4,0,0,1-1.35,1.46c-.59,0-.86-.27-1.51-1.46a13,13,0,0,0-5-5.07ZM67,12.53c3.24,2.43,4.43,4,4.43,6.21A4.5,4.5,0,0,1,71,20.47h8.64a51.6,51.6,0,0,0,2.86-7.94Z"/><path class="cls-1" d="M111.56,41.69c0,.59-1.35,1.4-2.32,1.4-.27,0-.43-.16-.43-.54V5.78l3.29,1.94h6.7l1.08-1.62,3.51,2.43a1,1,0,0,1,.54.81c0,.27-.16.49-.54.6l-1.46.37v29c0,.38-1.35,1-2.16,1-.27,0-.48-.11-.48-.27V36.18h-7.73Zm0-20.41h7.73V9.18h-7.73Zm0,13.39h7.73V22.73h-7.73Zm24.63-23.06H132c-1.24,0-1.46,0-5.94.16L124.79,10c3.57.11,4.76.16,7.24.16h4.16v-9l3.78.49c.54.11,1,.43,1,.81s-.21.59-.7.86L139.1,4v6.15h7.35L149,7.24l3.34,2.43c.54.43.71.64.71,1.08a.87.87,0,0,1-.92.86h-13v8.15h10.7l2.53-3,3.24,2.54a1.44,1.44,0,0,1,.76,1.19c0,.48-.32.75-.92.75h-9.23v7.89h3.51l2.43-2.87,3.24,2.65a1.36,1.36,0,0,1,.59,1c0,.49-.27.7-.81.7h-9V45c0,1.89-.38,2.54-2.05,3.51a5.11,5.11,0,0,1-2.16.81c-.33,0-.54-.21-.65-.7a3.49,3.49,0,0,0-.33-1,2.42,2.42,0,0,0-.86-.38l-4.54-1.35.11-.65,4.7.17c2.21,0,2.81-.38,2.81-2.06V30.56H133.06c-1.52,0-2.11,0-7.56.22l-1.57-1.89c5.08.16,7,.22,9.13.22h10.15V21.22h-16c-.43,0-1.29.06-2.59.11l-1.46-1.78c3.57.21,4.32.21,7.24.21h5.78Zm-7.78,21.33c3.35,1.24,3.62,1.35,4.81,2.48a5.54,5.54,0,0,1,1.94,3.84c0,1.29-.7,2.16-1.72,2.16-.82,0-1.09-.38-1.46-2.05a11.39,11.39,0,0,0-3.84-6Z"/><path class="cls-1" d="M167,48.06a.79.79,0,0,1-.48.86,6.79,6.79,0,0,1-2,.65c-.27,0-.43-.21-.43-.7V1.62l3.94,1.94h10.58l1.08-1.4,3,1.51a1,1,0,0,1,.54.76c0,.27-.17.48-.54.65l-1.19.59V19.28c0,.43-.16.7-.7,1a3.87,3.87,0,0,1-1.46.59c-.27,0-.38-.16-.38-.54V18H167ZM179,9.77V5H167V9.77Zm0,6.75V11.23H167v5.29Zm-.11,27c0,.59-.16.76-1.08,1.19a5.3,5.3,0,0,1-1.08.32.39.39,0,0,1-.43-.43V22.68l2.92,1.67h11.12l1.4-1.67,2.81,1.46a1,1,0,0,1,.6.86.93.93,0,0,1-.6.81l-1.13.43V42c0,.59-.11.75-.81,1.19a2.5,2.5,0,0,1-1.3.54.53.53,0,0,1-.54-.6V39.47H178.9Zm11.88-12.69v-5H178.9v5ZM178.9,38h11.88V32.24H178.9ZM191,19.33a.89.89,0,0,1-.54.87,6.15,6.15,0,0,1-1.89.64c-.27,0-.38-.21-.38-.54V1.84l3.35,1.72h12l1.19-1.72,3.51,2.05a.85.85,0,0,1,.48.7.57.57,0,0,1-.48.59l-1.51.44V45c0,1.62-.44,2.32-2,3.24a7.23,7.23,0,0,1-2.92,1c-.48,0-.75-.22-1-.76a2.67,2.67,0,0,0-.54-1,8.87,8.87,0,0,0-.86-.38l-3-1.41v-.59l4,.27a4,4,0,0,0,.81.06c2.11,0,2.65-.44,2.65-2V18H191Zm13-9.56V5H191V9.77Zm0,6.75V11.23H191v5.29Z"/></g></g></svg>