<svg xmlns="http://www.w3.org/2000/svg" viewBox="0 0 304.78 70.63"><defs><style>.cls-1{fill:#fff;}</style></defs><g id="Layer_2" data-name="Layer 2"><g id="Layer_1-2" data-name="Layer 1"><path class="cls-1" d="M15.37,10.22c1.33,4.91,1.33,4.91,2.15,5.73a3.19,3.19,0,0,0,1.9.64c1.92,0,3.32-1.59,3.32-3.77,0-4.65-5-9.47-11.41-11l-.4-.1-.71,1.57.31.24A14,14,0,0,1,15.37,10.22Z"/><path class="cls-1" d="M30.51,8.29c2.09,5.42,2.09,5.42,2.51,5.83a2.7,2.7,0,0,0,2.06.8c1.89,0,3.16-1.43,3.16-3.54a9.86,9.86,0,0,0-4.55-7.71A22.16,22.16,0,0,0,25.32.25L24.9.15,24.18,1.9l.43.2A12.93,12.93,0,0,1,30.51,8.29Z"/><path class="cls-1" d="M60.7,13,58,17H48.44l6.39-9,2.68-.56a1.66,1.66,0,0,0,1.25-1.64c0-.61-.35-1.53-2-2.42L50.41,0l-.16.61A84.65,84.65,0,0,1,44.71,17h-35c-.24-1.07-.36-1.5-.84-3.14l-.13-.45-2.14.5v1.84a13.61,13.61,0,0,1-2.7,7.13C0,27.69,0,27.69,0,28.93A3.17,3.17,0,0,0,3.31,32C7,32,10,27.23,10,21.33c0-.3,0-.86,0-1.55H57.82L54.76,27.3a4.89,4.89,0,0,0-.24.76l-5.43-5-2,3.57H19.49L13.38,23v21.1c0,1.21.65,1.64,1.26,1.64,2,0,4.3-1,4.3-2.32V41.44h9.51L26.7,49.26H15.46L9,45.3V69.07a1.38,1.38,0,0,0,1.56,1.41c1.92,0,4.23-1.31,4.23-2.94V66.07h37V68.3A1.67,1.67,0,0,0,53.55,70c2,0,4.38-1.09,4.38-2.48V53.65l1.62-.78a1.52,1.52,0,0,0,1-1.29,1.74,1.74,0,0,0-.71-1.29l-6-4.93-2.44,3.9H31.12l4.11-7.82h12.2v2a1.17,1.17,0,0,0,1.18,1.34,10.14,10.14,0,0,0,3.24-1A2,2,0,0,0,53.21,42V31.45l1.11-.52a1.33,1.33,0,0,0,1-1.39c0-.06,0-.11,0-.17a1,1,0,0,0,.34.06,2.16,2.16,0,0,0,1.16-.57L62.62,24H66.7a2,2,0,0,0,1.87-1.87A3.24,3.24,0,0,0,67.51,20ZM51.76,52.08V63.24h-37V52.08ZM47.43,38.62H18.94V29.43H47.43Z"/><path class="cls-1" d="M91.68,11.31c1.8,5.15,1.87,5.36,3.67,5.36,2,0,3.31-1.52,3.31-3.77,0-2.62-1.45-4.89-4.19-6.58-1.67-1-2.32-1.27-6.65-2.64l-.39-.12-.86,1.58.35.26A14,14,0,0,1,91.68,11.31Z"/><path class="cls-1" d="M135.59,9.31,137,8.88a2,2,0,0,0,1.39-1.76,1.89,1.89,0,0,0-1.1-1.5l-5.68-3.18-.2.56a83.16,83.16,0,0,1-5.21,12.56l-.26.5,2,.76Z"/><path class="cls-1" d="M117.87,48.59h27.49A1.51,1.51,0,0,0,146.7,47a1.88,1.88,0,0,0-.89-1.61l-6.21-4.68-4.64,5H115.84V39.85h23.59a1.54,1.54,0,0,0,1.34-1.41,1.77,1.77,0,0,0-.58-1.39l-6.06-4.53L129.94,37h-14.1V31.49l27.7.07a1.29,1.29,0,0,0,1.25-1.41,2,2,0,0,0-.95-1.61l-6.22-4.68-4.49,4.8h-10l3.65-5,1.21-.34c.78-.24,1.8-.67,1.8-1.69A1.54,1.54,0,0,0,129,20.3L128.5,20H147a1.27,1.27,0,0,0,1.26-1.26A2.56,2.56,0,0,0,147,16.91L140.5,12l-4.64,5.2H122.45V5.47l1.48-1.15c.71-.55,1.18-1.06,1.18-1.76A1.84,1.84,0,0,0,123.26.85h0L117,.6V17.19h-7.89V5.59l1.79-1a2.14,2.14,0,0,0,1.33-1.88,1.57,1.57,0,0,0-1.7-1.56h0l-6.9-.33V17.19H91.93c-.83,0-2.7-.06-4.87-.12l-8.77-.29,1.28,3.55.37,0c9-.3,9.09-.3,12-.3h6.12a11.79,11.79,0,0,1,3.12,5.52l.52,2.64a1.47,1.47,0,0,0,.07.38l0,.11h-6.9c-.18,0-2.45-.05-6.08-.15-.35,0-1.46,0-2.81-.09l-4-.14-.72,0,1.18,3.55.38,0c5.84-.23,7.89-.3,12.06-.3h15.23V37H98.54c-.62,0-1.66,0-3.09-.07l-2.88-.08c-1.14-.08-4.26-.16-7.17-.23h-.69l1.08,3.53h.38c9.87-.3,10-.3,12.52-.3h11.43v5.91H93.37c-1,0-3.57-.08-7-.22-.51,0-1.57,0-2.92-.09s-3.24-.1-5-.14l-.72,0L79,49h.36c3.44-.08,6.36-.16,7.3-.23l3.95-.09c1.39,0,2.36-.06,2.88-.06h11.44C99.16,55,92.32,60.08,81.51,65.85c-2.57,1.36-2.77,1.48-2.77,2.23A1.18,1.18,0,0,0,80,69.18c.91,0,7.31-2.63,10.7-4.22a77.39,77.39,0,0,0,19.42-13.29V69.22a1.47,1.47,0,0,0,1.57,1.41,8.66,8.66,0,0,0,3.55-.92,1.85,1.85,0,0,0,.6-1.48V51c6.86,7.79,15.83,13.75,27.36,18.2l.36.14.29-.4a13.89,13.89,0,0,1,3.36-3.71,24.55,24.55,0,0,1,2.08-1.71l1-.68-1.16-.22C136.15,60.1,123.82,54.55,117.87,48.59ZM107.63,28.66a3.28,3.28,0,0,0,.3-1.4c0-2.76-1.48-5-4.89-7.25H121.9a56.83,56.83,0,0,1-3,8.65Z"/><path class="cls-1" d="M227.31,38.43,222.07,34l-4.28,4.84h-2.85V29.28h11.51c1.62,0,1.79-1,1.79-1.49a2.64,2.64,0,0,0-1.08-1.89l-5.93-5.12-5,5.68H203.69V16.13h19.49c1.09,0,1.8-.58,1.8-1.48,0-.59-.28-1-1-1.6l-6-5.11-4.73,5.37h-9.54V7l1.93-1.24A2.36,2.36,0,0,0,206.81,4c0-.51-.21-1.75-2.19-2l-6.94-.83V13.31H194c-3.61,0-5.46-.08-10.39-.3l-.37,0a1.11,1.11,0,0,0,.09-.4,2.49,2.49,0,0,0-.75-1.55l-5.07-5.4L175,9.36h-9.1L160.21,6V64.5A1.59,1.59,0,0,0,161.85,66a7.3,7.3,0,0,0,3-.81,2.15,2.15,0,0,0,1.19-2V54.21h9.33v5.66c0,.8.66,1.33,1.64,1.33a7.79,7.79,0,0,0,2.55-.57A2.13,2.13,0,0,0,181,58.42V26.92l.9,2.68h.37c6.64-.24,9.22-.31,12.37-.31h14.25v9.57H195c-3.94,0-6.66-.08-13.21-.38l-.72,0L182.24,42l.37,0c6.42-.23,9-.3,12.38-.3h13.94V60.48c0,1.47-.57,1.47-1,1.47h-.5l-8.59-.4v2.58l6.3,1.62c1.8.51,1.8.51,2,2.09.13.94.46,2,1.94,2a5.38,5.38,0,0,0,3-1.31c2.12-1.46,2.8-2.5,2.8-4.28V41.67h12a1.28,1.28,0,0,0,1.42-1.34A2.63,2.63,0,0,0,227.31,38.43Zm-52,12.88H166V33.08h9.33Zm0-21H166V12.18h9.33Zm22.35-3.8h-3c-3.52,0-6.35-.08-13.2-.38l-.44,0V14.19l1-.28a2.1,2.1,0,0,0,.93-.55l1.27,3,2-.07c3.26-.11,4.9-.17,7.72-.17h3.68Z"/><path class="cls-1" d="M194.47,47.48c-2.35-2-4.27-2.89-8.24-4l-.55-.15-.28,1.95.28.17c3,1.86,5.28,5.39,6.31,9.94.42,2,1.23,2.75,2.77,2.75a3.77,3.77,0,0,0,3.69-3.92C198.45,52.08,196.89,49.42,194.47,47.48Z"/><path class="cls-1" d="M303.7,6,298.49,1.2,296,4.8h-15.2l-5.94-3.23V29.69c0,.49,0,1.95,1.49,1.95,2,0,4.37-1,4.37-2.25V26.47H296.4V61.54c0,.64,0,.79-1.7.79h-7.77l-.13,2L294,66.72c.31.12.38.2.38.17.54,3.18.6,3.51,1.78,3.51a6.78,6.78,0,0,0,3-1.13c2.12-1.22,3.29-2.75,3.29-4.31v-55l1.51-.76A1.29,1.29,0,0,0,304.78,8,2.82,2.82,0,0,0,303.7,6Zm-7.3,17.66H280.68V16.74H296.4Zm0-9.73H280.68V7.62H296.4Z"/><path class="cls-1" d="M281.35,32.25,278.63,36H264l-6.27-4V65.49A1.36,1.36,0,0,0,259.13,67c1.93,0,4.37-1.38,4.37-2.93V59.84h15.27v3.37c0,1.48.81,1.79,1.49,1.79,2.49,0,4.37-1.16,4.37-2.7V40.45L286,39.9a1.29,1.29,0,0,0,.72-1.16,2,2,0,0,0-.51-1.26ZM278.77,57H263.5V49.12h15.27Zm0-10.71H263.5V38.86h15.27Z"/><path class="cls-1" d="M261.75,29.77a1.5,1.5,0,0,0,1.48,1.64,6.65,6.65,0,0,0,3.13-.9c.88-.48,1.25-.83,1.25-1.8V9.41l1.17-.55a1.4,1.4,0,0,0,.81-1.13,2.2,2.2,0,0,0-.68-1.19l-5.23-5.4L261.43,4.8H246.19l-6.64-3.7v67a1.58,1.58,0,0,0,1.64,1.79c2,0,4.38-1.21,4.38-2.7V26.47h16.18ZM245.57,7.62h16.18v6.3H245.57Zm0,16V16.74h16.18v6.91Z"/></g></g></svg>