<svg xmlns="http://www.w3.org/2000/svg" viewBox="0 0 176.55 177.72">
  <title>Asset 1</title>
  <g id="Layer_2" data-name="Layer 2">
    <g id="レイヤー_1" data-name="レイヤー 1">
      <path class="cls-1" d="M176.17,173.89l-51.88-83.3,0,0-33-53.08,21-33.67A2.5,2.5,0,0,0,108,1.18L88.27,32.76,68.6,1.18a2.5,2.5,0,1,0-4.24,2.64l21,33.67L.38,173.89a2.5,2.5,0,0,0,2.12,3.83H174.05a2.51,2.51,0,0,0,2.12-3.83ZM33.1,130.8H72.22v10H51.72a2.5,2.5,0,0,0,0,5h20.5v10H17.53Zm6.23,30v11.92h-11V160.8Zm5,0h11v11.92h-11Zm16,0H72.22v11.92H60.33ZM72.22,115V125.8h-36L55.73,94.47h65.09l19.51,31.33h-36V115a16.06,16.06,0,0,0-32.11,0ZM70.68,70.47h35.19l11.83,19H58.85Zm33.65,90.33h12v11.92h-12Zm17,0h11v11.92h-11Zm16,0h11v11.92h-11Zm-33-5v-10h20.5a2.5,2.5,0,0,0,0-5h-20.5v-10h39.11l15.57,25ZM88.27,42.22l14.48,23.25h-29ZM14.42,160.8h8.91v11.92H7Zm62.8,11.92V115a11.06,11.06,0,0,1,22.11,0v57.74Zm76.11,0V160.8h8.8l7.42,11.92Z"/>
    </g>
  </g>
</svg>
