<svg id="Layer_1" data-name="Layer 1" xmlns="http://www.w3.org/2000/svg" viewBox="0 0 978 60"><title>car-and-bike-attraction-categories</title><path d="M95,0H978V60H0V0H94L91.28,2.12c1.18,3.45,2.84,6.08,2.85,8.73,0,13.14-.42,26.28-.66,39.42,0,1.15-.2,2.55.36,3.4a22.78,22.78,0,0,0,3.56,3.59c.78-1.33,2.13-2.63,2.22-4,.24-3.46-.15-7-.18-10.46-.05-6.56,0-13.12,0-20.4,6.5,1.65,10,5.37,13.07,9.84,1.48,2.17,3.67,4.42,6,1.91,1-1.09.51-5.38-.72-6.26-4.1-2.94-8.6-5.93-13.39-7.14s-5.68-3.16-4.9-7.23c.35-1.79,1-3.66.8-5.39A15.67,15.67,0,0,0,98,2.43C97.41,1.39,96,.8,95,0ZM563,55l.28,1.45c3.25-.94,6.59-1.63,9.72-2.86,17.74-7,22.79-29.25,9.35-40.92-7.54-6.55-22.52-7.31-32-1.64-10.62,6.35-16.72,18.51-13.7,29.06,1,3.31,3.78,7.52,6.66,8.41s7.65-1.07,10-3.39c8.48-8.36,13.57-18.5,12.06-30.87-.49-4,1.21-4.92,4.48-4.13,6,1.45,10.62,4.58,12.7,10.76a25.86,25.86,0,0,1-10,29A106.51,106.51,0,0,1,563,55Zm73.14-32.64c-4,14.1-12.66,23.91-24.6,31.42a9.78,9.78,0,0,0,5-.82c11.52-5.32,19.5-14.08,23.08-26.12,1.84-6.16,5.55-7.84,11.07-8.4,3.33-.34,5,.89,4.61,4a69.42,69.42,0,0,1-2.19,11.74c-2.76,9.25-3.72,9.72-12.5,7.57,1.19,2.51,2.76,4.72,3.26,7.15.77,3.73,3.06,3.68,4.9,1.89,2.78-2.7,5.68-5.81,7-9.33,2.37-6.16,3.48-12.8,5.37-19.16.69-2.32,2.56-4.22-.15-6.62s-4.83-1.95-7.76-.84-5.94,1.28-9.72,2c.49-4.12,1.82-7.46,1-10.1-1-3-4.09-5-8.32-3.9.45,1,.75,1.74,1.07,2.45,3.39,7.48.77,12.72-7.13,13.63-3.77.44-7.64.08-12.13.08a25,25,0,0,0,2.59,3.51C625.5,27.13,630.57,21,636.17,22.31ZM231,55.32l.56,1.35A31.8,31.8,0,0,0,236,55.51c14.43-6,26-15.35,33.93-28.91,1.84-3.12,3.53-6.48,6-9s2.25-4.22-.39-5.4a14.67,14.67,0,0,0-7.22-1.06c-3.26.33-6.44,1.47-10,2.35.71-7.79-2.21-10.68-8.21-9,3.36,4.09,1.5,8.07-.86,11.42-4,5.67-8.62,10.91-13,16.33-.71.88-1.45,1.74-2.18,2.6l.93.91c6.28-2.75,11-7.65,15-13,3.53-4.82,7.39-7.72,13.46-7.21,1.42.12,2.84.2,4.27.3-.26,1.54-.19,3.24-.82,4.61C260.12,35.07,248.73,45.22,235,53,233.65,53.78,232.35,54.56,231,55.32ZM2.51,9.79c-.37,4.84,3.28,7.22,9.16,5.78,8-2,16.22-3.33,24.38-4.75,1.24-.21,2.68.72,4,1.12-.72,1.34-1.17,3-2.22,4-3.33,3.24-6.88,6-11.63,2.1-.58-.47-1.77-.18-2.28-.22C24,34.19,17.1,46.83,5.45,57.62a23.22,23.22,0,0,0,8.12-4.48c7.91-7,12.54-16.18,16.29-25.93a11.42,11.42,0,0,1,5-5.5c5.37-2.78,11.08-4.93,16.67-7.34C50,9.07,46.42,5.9,42.64,6.49,35.42,7.61,28.22,9,21,9.68,15,10.21,9,9.79,2.51,9.79Zm423,41c-.65-1.27-2.57-3.23-2.33-4.87.8-5.38,2.4-10.64,3.65-16,.38-1.58,1.36-4.21.81-4.59-2-1.42-4.8-3.29-6.83-2.84-10.62,2.33-21.14,4.73-32.45,2.15.93,4.52,3.51,6.21,7.79,5.53,6.24-1,12.47-2,18.71-3,2.47-.39,5.42-1.19,5.59,2.68.13,2.88.32,5.88-4.37,6.11-8,.41-16,1.54-24,2.36,1.65,3.47,2.37,3.74,6.31,3.12,5.24-.83,10.5-1.67,15.78-2.13,4.82-.42,5.49.78,4.79,5.45-.46,3.09-2.32,3.66-4.83,3.86q-11.71.91-23.43,1.88l-.62,1.4c2.28,1,4.67,3.07,6.83,2.85C406.41,53.8,415.81,52.17,425.54,50.75Zm389.51-31.1c-2.42-3-5.23-5-10.79-3.62-11,2.8-22.27,5.12-33.73,1.91.07,4.79,2.73,7.08,7.63,6.35,5.27-.77,10.49-1.87,15.74-2.73,12.76-2.1,12.77-2.07,10.58,10.85-1.57,9.26-1.58,9.24-11.22,9.85-7,.43-14,.92-21,1.4,2.72,5.14,4.17,5.37,8.95,4.72,9.16-1.24,18.41-1.81,27.62-2.67,1.19-.12,2.37-.31,4.06-.53-.75-1.39-1-2.43-1.52-2.72-3.81-1.91-3.46-4.69-2.08-8C811.21,29.78,813,25,815.05,19.65ZM690.13,21c1.69,4.09,4.34,6,8.82,5.05,4.22-.93,8.41-2,12.66-2.77,4.62-.79,6.18.5,4.36,4.67a98.56,98.56,0,0,1-10.46,18.4c-2.69,3.7-7,6.24-10.78,9.49,12.63-.69,28.36-19.24,28.81-34.18,4.77.21,9.55.53,14.33.57,1.26,0,2.53-.83,3.79-1.28-.83-1.07-1.49-2.79-2.54-3.09a16.08,16.08,0,0,0-7-.6C718.52,19.79,704.88,21.86,690.13,21ZM160.24,55.7l-.2.88c4.72-1.95,9.6-3.59,14.13-5.91,10.67-5.48,17.46-14.68,22.94-25,1.1-2.08,4.75-3.6,1.84-6.74-2.51-2.71-5.3-2.9-9-2.12-10.6,2.24-21.28,4.95-32.24,2.07.58,5.55,3.48,7.45,8.53,6.24q10.17-2.41,20.51-4.11c4.08-.67,5.52,1.15,3.61,4.85-2.42,4.69-4.84,9.8-8.6,13.27C175.11,45.24,167.46,50.24,160.24,55.7ZM874.55,3.64c6,11.34,4.26,21.29,1.76,31-2.77,10.74-11.87,15.68-21.47,19.93.84.69,1.11,1.09,1.3,1,13.29-2.74,26.42-11.25,27.08-27.52.23-5.64.65-11.29.68-16.93,0-2-.27-5-1.53-5.8C880.43,4,877.52,4.19,874.55,3.64Zm-514,8.59-1.35-.66a36.5,36.5,0,0,1-2.54,2.86c-9.34,8.65-18.4,17.65-28.21,25.74-4.93,4-10.86,8.94-17.93,2.26-.29,7.43,4.93,11.83,10,9,15.24-8.6,28.61-19.33,37.82-34.55A46.06,46.06,0,0,0,360.5,12.23Zm153.79-.3-2.1-1.8c-.73,1.3-1.17,2.92-2.22,3.83-9.8,8.45-19.53,17-29.65,25-4.07,3.24-8.82,7.26-14.29,1.11-.54,4.79.35,7.37,3.67,8.94a6.79,6.79,0,0,0,5.45,0c13.94-8.11,26.28-18.13,35.8-31.31A65.45,65.45,0,0,0,514.29,11.93ZM919.87,26.87c-.43,5.31,2.36,7.87,8.16,7.29,6.45-.64,12.88-1.73,19.35-2,8.14-.4,16.32-.14,24.47-.37,1.4,0,2.77-1.1,4.15-1.69-1.25-1.32-2.29-3.09-3.82-3.82-1.36-.66-3.28-.31-4.92-.15-5,.46-9.93,1.42-14.9,1.49C941.53,27.73,930.62,30.68,919.87,26.87ZM855.77,8c1,3.65,2.12,6.58,2.39,9.59.36,4-.31,8,.15,12,.17,1.45,2.3,2.67,3.54,4,.63-1.32,1.76-2.61,1.81-4,.22-5.3,0-10.62.12-15.94S860,6.1,855.77,8ZM193.11,6.9l.55-1.77c-2.44-.64-5-2-7.3-1.76-7.52.9-15,2.43-22.25,3.69C166.07,11.73,179.66,12,193.11,6.9ZM702.17,9.3c1.82,4.33,20.23,3.52,27.65-3.12-3.21-.69-5.66-1.95-7.81-1.55C715.29,5.86,708.69,7.72,702.17,9.3Zm-236,.84c3.24,3.08,6.28,6.22,9.61,9,1.22,1,3.12,1.25,4.71,1.83.21-1.8,1.15-3.95.49-5.34C478.75,11.09,471.16,8.59,466.12,10.14ZM315.54,7.09c3.55,3.28,6.17,6,9.09,8.27,1.43,1.12,3.44,1.5,5.19,2.22-.06-2.21.77-5.21-.36-6.48C326,7.2,321.22,6.38,315.54,7.09Zm-5.72,13.3c2.17,2.76,4.25,5.78,6.76,8.39,1,1.08,3,1.27,4.5,1.87.09-1.95,1-4.59.13-5.73C318.15,21.12,313.89,19.56,309.82,20.39ZM814.31.63l-.81,1.74a75.67,75.67,0,0,0,5.73,5.87c.92.77,2.5.75,3.79,1.08,0-1.48.59-3.83-.1-4.29A70.39,70.39,0,0,0,814.31.63Zm-8.19,3.73-.82,1.49a67.43,67.43,0,0,0,5.76,5.71c.91.73,2.52.58,3.81.83-.13-1.47.26-3.76-.5-4.25C811.85,6.53,808.9,5.57,806.12,4.36Z" fill="#fff"/><path d="M95,0c1,.8,2.41,1.39,3,2.43a15.67,15.67,0,0,1,2.22,5.69c.24,1.73-.45,3.6-.8,5.39-.78,4.07.23,6.06,4.9,7.23s9.29,4.2,13.39,7.14c1.23.88,1.71,5.17.72,6.26-2.29,2.51-4.48.26-6-1.91-3-4.47-6.57-8.19-13.07-9.84,0,7.28,0,13.84,0,20.4,0,3.49.42,7,.18,10.46-.09,1.38-1.44,2.68-2.22,4a22.78,22.78,0,0,1-3.56-3.59c-.56-.85-.38-2.25-.36-3.4.24-13.14.67-26.28.66-39.42,0-2.65-1.67-5.28-2.85-8.73L94,0Z"/><path d="M563,55a106.51,106.51,0,0,0,9.56-5.1,25.86,25.86,0,0,0,10-29c-2.08-6.18-6.72-9.31-12.7-10.76-3.27-.79-5,.13-4.48,4.13,1.51,12.37-3.58,22.51-12.06,30.87-2.35,2.32-7.21,4.26-10,3.39s-5.71-5.1-6.66-8.41c-3-10.55,3.08-22.71,13.7-29.06,9.51-5.67,24.49-4.91,32,1.64,13.44,11.67,8.39,33.94-9.35,40.92-3.13,1.23-6.47,1.92-9.72,2.86Zm-.33-40.53c-.88-.85-2.43-3.51-3.71-3.39-11.55,1.07-21.64,18.75-17.22,29.66,1.59,3.91,4,4.59,7.27,1.75C557.13,35.49,560.9,26.31,562.7,14.42Z"/><path d="M636.17,22.31c-5.6-1.31-10.67,4.82-15.59.22A25,25,0,0,1,618,19c4.49,0,8.36.36,12.13-.08,7.9-.91,10.52-6.15,7.13-13.63-.32-.71-.62-1.43-1.07-2.45,4.23-1.09,7.34.88,8.32,3.9.85,2.64-.48,6-1,10.1,3.78-.75,6.92-1,9.72-2s5.19-1.43,7.76.84.84,4.3.15,6.62c-1.89,6.36-3,13-5.37,19.16-1.35,3.52-4.25,6.63-7,9.33-1.84,1.79-4.13,1.84-4.9-1.89-.5-2.43-2.07-4.64-3.26-7.15,8.78,2.15,9.74,1.68,12.5-7.57a69.42,69.42,0,0,0,2.19-11.74c.36-3.15-1.28-4.38-4.61-4-5.52.56-9.23,2.24-11.07,8.4-3.58,12-11.56,20.8-23.08,26.12a9.78,9.78,0,0,1-5,.82C623.51,46.22,632.15,36.41,636.17,22.31Z"/><path d="M231,55.32c1.32-.76,2.62-1.54,3.94-2.28,13.76-7.82,25.15-18,31.89-32.62.63-1.37.56-3.07.82-4.61-1.43-.1-2.85-.18-4.27-.3-6.07-.51-9.93,2.39-13.46,7.21-3.92,5.36-8.68,10.26-15,13l-.93-.91c.73-.86,1.47-1.72,2.18-2.6,4.36-5.42,9-10.66,13-16.33,2.36-3.35,4.22-7.33.86-11.42,6-1.71,8.92,1.18,8.21,9,3.57-.88,6.75-2,10-2.35a14.67,14.67,0,0,1,7.22,1.06c2.64,1.18,2.72,3,.39,5.4s-4.16,5.93-6,9.05c-8,13.56-19.5,22.95-33.93,28.91a31.8,31.8,0,0,1-4.39,1.16Z"/><path d="M2.51,9.79C9,9.79,15,10.21,21,9.68,28.22,9,35.42,7.61,42.64,6.49c3.78-.59,7.32,2.58,8.89,7.88-5.59,2.41-11.3,4.56-16.67,7.34a11.42,11.42,0,0,0-5,5.5C26.11,37,21.48,46.09,13.57,53.14a23.22,23.22,0,0,1-8.12,4.48C17.1,46.83,24,34.19,24,17.78c.51,0,1.7-.25,2.28.22,4.75,3.88,8.3,1.14,11.63-2.1,1-1,1.5-2.62,2.22-4-1.35-.4-2.79-1.33-4-1.12-8.16,1.42-16.35,2.79-24.38,4.75C5.79,17,2.14,14.63,2.51,9.79Z"/><path d="M425.54,50.75c-9.73,1.42-19.13,3-28.6,4-2.16.22-4.55-1.84-6.83-2.85l.62-1.4q11.72-.94,23.43-1.88c2.51-.2,4.37-.77,4.83-3.86.7-4.67,0-5.87-4.79-5.45-5.28.46-10.54,1.3-15.78,2.13-3.94.62-4.66.35-6.31-3.12,8-.82,16-1.95,24-2.36,4.69-.23,4.5-3.23,4.37-6.11-.17-3.87-3.12-3.07-5.59-2.68-6.24,1-12.47,2-18.71,3-4.28.68-6.86-1-7.79-5.53,11.31,2.58,21.83.18,32.45-2.15,2-.45,4.82,1.42,6.83,2.84.55.38-.43,3-.81,4.59-1.25,5.32-2.85,10.58-3.65,16C423,47.52,424.89,49.48,425.54,50.75Z"/><path d="M815.05,19.65c-2.08,5.35-3.84,10.13-5.8,14.83-1.38,3.29-1.73,6.07,2.08,8,.57.29.77,1.33,1.52,2.72-1.69.22-2.87.41-4.06.53-9.21.86-18.46,1.43-27.62,2.67-4.78.65-6.23.42-8.95-4.72,7.07-.48,14-1,21-1.4,9.64-.61,9.65-.59,11.22-9.85,2.19-12.92,2.18-12.95-10.58-10.85-5.25.86-10.47,2-15.74,2.73-4.9.73-7.56-1.56-7.63-6.35,11.46,3.21,22.73.89,33.73-1.91C809.82,14.62,812.63,16.61,815.05,19.65Z"/><path d="M690.13,21c14.75.84,28.39-1.23,42-3.74a16.08,16.08,0,0,1,7,.6c1,.3,1.71,2,2.54,3.09-1.26.45-2.53,1.29-3.79,1.28-4.78,0-9.56-.36-14.33-.57-.45,14.94-16.18,33.49-28.81,34.18,3.81-3.25,8.09-5.79,10.78-9.49A98.56,98.56,0,0,0,716,28c1.82-4.17.26-5.46-4.36-4.67-4.25.73-8.44,1.84-12.66,2.77C694.47,27.06,691.82,25.11,690.13,21Z"/><path d="M160.24,55.7c7.22-5.46,14.87-10.46,21.5-16.56,3.76-3.47,6.18-8.58,8.6-13.27,1.91-3.7.47-5.52-3.61-4.85q-10.32,1.68-20.51,4.11c-5.05,1.21-7.95-.69-8.53-6.23,11,2.87,21.64.16,32.24-2.08,3.72-.78,6.51-.59,9,2.12,2.91,3.14-.74,4.66-1.84,6.74-5.48,10.31-12.27,19.51-22.94,25-4.53,2.32-9.41,4-14.13,5.91Z"/><path d="M874.55,3.64c3,.55,5.88.39,7.82,1.69,1.26.84,1.54,3.79,1.53,5.8,0,5.64-.45,11.29-.68,16.93-.66,16.27-13.79,24.78-27.08,27.52-.19,0-.46-.36-1.3-1,9.6-4.25,18.7-9.19,21.47-19.93C878.81,24.93,880.52,15,874.55,3.64Z"/><path d="M360.5,12.23a46.06,46.06,0,0,1-2.17,4.6c-9.21,15.22-22.58,26-37.82,34.55-5.11,2.88-10.33-1.52-10-9,7.07,6.68,13,1.79,17.93-2.26,9.81-8.09,18.87-17.09,28.21-25.74a36.5,36.5,0,0,0,2.54-2.86Z"/><path d="M514.29,11.93A65.45,65.45,0,0,1,511,17.69c-9.52,13.18-21.86,23.2-35.8,31.31a6.79,6.79,0,0,1-5.45,0c-3.32-1.57-4.21-4.15-3.67-8.94,5.47,6.15,10.22,2.13,14.29-1.11,10.12-8,19.85-16.58,29.65-25,1-.91,1.49-2.53,2.22-3.83Z"/><path d="M919.87,26.88c10.75,3.8,21.66.85,32.49.69,5-.07,9.92-1,14.9-1.49,1.64-.16,3.56-.51,4.92.15,1.53.73,2.57,2.5,3.82,3.82-1.38.59-2.75,1.65-4.15,1.69-8.15.23-16.33,0-24.47.37-6.47.32-12.9,1.41-19.35,2C922.23,34.74,919.44,32.18,919.87,26.88Z"/><path d="M855.77,8c4.21-1.91,8.1.4,8,5.66s.1,10.64-.12,15.94c0,1.35-1.18,2.64-1.81,4-1.24-1.33-3.37-2.55-3.54-4-.46-3.94.21-8-.15-12C857.89,14.59,856.72,11.66,855.77,8Z"/><path d="M193.11,6.9c-13.45,5.14-27,4.83-29,.16,7.28-1.26,14.73-2.79,22.25-3.69,2.33-.28,4.86,1.12,7.3,1.76Z"/><path d="M702.17,9.3c6.52-1.58,13.12-3.44,19.84-4.67,2.15-.4,4.6.86,7.81,1.55C722.4,12.82,704,13.63,702.17,9.3Z"/><path d="M466.12,10.14c5-1.55,12.63.95,14.81,5.51.66,1.39-.28,3.54-.49,5.34-1.59-.58-3.49-.8-4.71-1.83C472.4,16.36,469.36,13.22,466.12,10.14Z"/><path d="M315.54,7.09c5.68-.71,10.48.11,13.92,4,1.13,1.27.3,4.27.36,6.48-1.75-.72-3.76-1.1-5.19-2.22C321.71,13.06,319.09,10.37,315.54,7.09Z"/><path d="M309.82,20.39c4.07-.83,8.33.73,11.39,4.53.91,1.14,0,3.78-.13,5.73-1.53-.6-3.47-.79-4.5-1.87C314.07,26.17,312,23.15,309.82,20.39Z"/><path d="M814.31.63A70.39,70.39,0,0,1,822.92,5c.69.46.1,2.81.1,4.29-1.29-.33-2.87-.31-3.79-1.08a75.67,75.67,0,0,1-5.73-5.87Z"/><path d="M806.12,4.36c2.78,1.21,5.73,2.17,8.25,3.78.76.49.37,2.78.5,4.25-1.29-.25-2.9-.1-3.81-.83a67.43,67.43,0,0,1-5.76-5.71Z"/><path d="M562.7,14.42c-1.8,11.89-5.57,21.07-13.66,28-3.3,2.84-5.68,2.16-7.27-1.75C537.35,29.78,547.44,12.1,559,11,560.27,10.91,561.82,13.57,562.7,14.42Z" fill="#fff"/></svg>