<svg xmlns="http://www.w3.org/2000/svg" viewBox="0 0 464.6 28.36"><defs><style>.cls-1{isolation:isolate;}.cls-2{fill:#333;}</style></defs><title>carbike-category-title</title><g id="Layer_2" data-name="Layer 2"><g id="Layer_1-2" data-name="Layer 1"><g class="cls-1"><path class="cls-2" d="M14.82,10.69a2.6,2.6,0,0,1-.46.25A36.13,36.13,0,0,1,8.6,22.82a18.64,18.64,0,0,1-5.47,5,4.13,4.13,0,0,1-1.47.57c-.18,0-.37-.14-.37-.28s0-.15.44-.44A19.51,19.51,0,0,0,8.2,20.12a26.45,26.45,0,0,0,2.45-6.62A20.8,20.8,0,0,0,11.26,10a1.19,1.19,0,0,0-1-1.34c-.11,0-.18-.1-.18-.18s.32-.43.65-.43a7.39,7.39,0,0,1,3.81,2c2.63-1.55,5.26-3.88,5.26-4.71,0-.43-.69-.69-2-.69A75.16,75.16,0,0,0,10,5.58,29,29,0,0,0,4.21,7.23c-.65.33-.79.36-1,.36A4.11,4.11,0,0,1,.58,5.83,3,3,0,0,1,0,3.74V3.53A.32.32,0,0,1,.32,3.2c.15,0,.18,0,.33.33A3.11,3.11,0,0,0,3.2,4.82c.29,0,.72,0,1.3-.07.32,0,1.08-.11,2.23-.18s2.16-.14,2.52-.18c1.29-.14,2.59-.32,3.92-.47,5.36-.57,5.61-.61,7.63-1.22a2.76,2.76,0,0,1,.54-.07c.5,0,1.15.54,2.23,1.87.39.5.68.83.79,1,.5.51.61.69.61,1s-.25.57-.79.61a10.32,10.32,0,0,0-4.75,1.51c-1.33.65-1.69.79-3.56,1.62Z"/><path class="cls-2" d="M44.8,11.59c0,6.44.11,9.86.29,12.27.07.76.11,1.3.11,1.62,0,1.52-.54,2.63-1.3,2.63S42,26.49,42,25.59a5,5,0,0,1,.1-.93c.29-2,.58-10,.58-17.17,0-3.39-.14-4.61-.58-5.33a1.8,1.8,0,0,0-1.72-.9c-.26,0-.36-.11-.36-.32s.1-.26.32-.36A10.38,10.38,0,0,1,42.54,0c.54,0,1,.25,2.62,1.26.47.32.69.58.69.83a2.09,2.09,0,0,1-.18.68c-.58,1-.79,2.67-.87,6.7a15.24,15.24,0,0,1,7.56,2.34c1.94,1.33,2.84,2.48,2.84,3.63A1.48,1.48,0,0,1,53.69,17c-.79,0-1.19-.33-2.09-1.7A12.92,12.92,0,0,0,44.8,10Z"/><path class="cls-2" d="M77.91,24.58c-2.63,1.52-5.9,2.74-7.34,2.74-.32,0-.57-.18-.57-.36s.07-.22.28-.25a25.14,25.14,0,0,0,7.45-3.82,24.59,24.59,0,0,0,7-7.81c1.3-2.37,1.87-3.78,1.87-4.5s-.39-.93-1.15-.93-4.67.5-6.33.82a50.57,50.57,0,0,0-6.26,1.62,1.34,1.34,0,0,1-.58.15,4.19,4.19,0,0,1-2-1.26,3.61,3.61,0,0,1-.93-2.38c0-.29.11-.47.32-.47s.15,0,.22.26c.21.72,1.58,1.29,3,1.29.58,0,.58,0,4.93-.43,2.92-.32,4.64-.5,5.18-.58a12.1,12.1,0,0,0,4-1.11,2.23,2.23,0,0,1,.65-.18c.69,0,3.28,2.05,3.28,2.59,0,.32-.15.47-1.3,1.33C86,18.32,83.13,21.52,77.91,24.58ZM72.62,1.91c.36.54,1.19.79,2.52.79A27.26,27.26,0,0,0,83.6,1.22,2.44,2.44,0,0,1,84.71.9c.36,0,.68.14,1.76.72.76.4,1,.65,1,1s-.32.57-1.65.72c-1.84.21-1.91.21-4.72.72a35.27,35.27,0,0,1-5.43.65A2.86,2.86,0,0,1,73,3.38a6,6,0,0,1-.72-1.54c0-.08.07-.18.14-.18S72.48,1.69,72.62,1.91Z"/><path class="cls-2" d="M103.61,26.89a37.63,37.63,0,0,0,11-7.74,30.12,30.12,0,0,0,6.27-8.46,12.8,12.8,0,0,0,1.33-3.2.85.85,0,0,0-.87-.8,6.84,6.84,0,0,0-.68.08c-.11,0-.86.18-1.62.29l-1.4.21a3.32,3.32,0,0,1-.72.11,2.84,2.84,0,0,1-1.41-.5,35.78,35.78,0,0,1-5.93,7.23c-1.73,1.58-4.1,3.2-4.68,3.2-.22,0-.4-.1-.4-.25s.08-.32,1-1a29.91,29.91,0,0,0,5.9-6.73c1.51-2.3,2.44-4.36,2.44-5.54a2.31,2.31,0,0,0-1.33-2.24c-.14,0-.25-.14-.25-.21s.4-.33,1-.33a4.33,4.33,0,0,1,2.52.9c1.3.87,1.58,1.16,1.58,1.66,0,.22,0,.29-.25.54a6.81,6.81,0,0,0-.61.9c-.25.58-.36.75-.5,1a2.36,2.36,0,0,0,.86.15,23.38,23.38,0,0,0,4.32-.79,7.21,7.21,0,0,0,1.36-.65c.62-.4.83-.47,1-.47.39,0,.86.29,2.09,1.33,1.07.9,1.22,1,1.22,1.37s-.15.43-.54.57a10.18,10.18,0,0,0-1.15.51C120.09,18.32,114,24,104.33,27.57a3.45,3.45,0,0,0-.51.18,1.44,1.44,0,0,1-.32.07c-.29,0-.65-.28-.65-.54,0-.1.07-.18.51-.28Z"/><path class="cls-2" d="M144.67,10.73c1.37.9,2,1.72,2,2.8A1.53,1.53,0,0,1,145.21,15c-.58,0-.9-.25-1.22-.86a8.24,8.24,0,0,0-4.54-4c-.21-.07-.32-.14-.32-.25s.57-.36,1.29-.36A8.88,8.88,0,0,1,144.67,10.73Zm-.43,15a5,5,0,0,1-2.77-1.8,3.77,3.77,0,0,1-1-2.13,4.71,4.71,0,0,1,0-.75c0-.36.11-.54.32-.54s.18,0,.47.47a2.67,2.67,0,0,0,2.56,1.36c1.22,0,3.41-1,6.18-2.77a73.92,73.92,0,0,0,11-9.5,36.48,36.48,0,0,0,3.85-4.79c.29-.43.43-.57.58-.57s.25.21.25.39c0,.68-1.76,3.71-3.53,6a52.2,52.2,0,0,1-15.51,13.21c-1.18.69-1.69,1-1.76,1.05A.83.83,0,0,1,144.24,25.74ZM149,4c1.36.83,2,1.73,2,2.88a1.61,1.61,0,0,1-1.54,1.69c-.62,0-.83-.18-1.23-1a8,8,0,0,0-5.29-4.07c-.25,0-.36-.07-.36-.21s.65-.47,1.73-.47A10.51,10.51,0,0,1,149,4Z"/><path class="cls-2" d="M194.47,14.72c.08-.57.11-1,.11-1.08,0-.54-.57-1-1.33-1a92.75,92.75,0,0,0-10.65,1.66,4.92,4.92,0,0,1-1.48.32A3.53,3.53,0,0,1,179,13.5a2.62,2.62,0,0,1-.65-1.66c0-.39.14-.65.36-.65s.14,0,.22.29c.21.69,1.22,1,3.13,1,1.29,0,6.29-.5,10.83-1.12a6.85,6.85,0,0,0,1.18-.5c.76-.43.94-.5,1.19-.5.72,0,3.2,2,3.2,2.59,0,.18,0,.21-.54.57-.93.76-1.26,1.88-2.73,10,1.44.54,2,1,2,1.58,0,.33-.18.58-.43.58s-.29,0-.51-.07a16.75,16.75,0,0,0-3.67-.51,42.14,42.14,0,0,0-9.42,1.48,3,3,0,0,1-1.3.32c-.86,0-2.77-1.8-2.77-2.62a.24.24,0,0,1,.22-.22l.36.11a6.46,6.46,0,0,0,2.19.43c.22,0,.54,0,.9-.07s1.47-.11,3-.22c4-.32,6-.54,7.63-.72l.58-4.75a10.35,10.35,0,0,0-1.34-.07A66.75,66.75,0,0,0,183,20a4.49,4.49,0,0,1-1.12.22,2.6,2.6,0,0,1-2-1.55,1.91,1.91,0,0,0-.15-.39,2.73,2.73,0,0,1-.07-.29.24.24,0,0,1,.18-.18c.11,0,.14,0,.36.18a2.17,2.17,0,0,0,1.51.47c.5,0,.5,0,3.24-.22,1.4-.11,2.81-.25,4.17-.36a8.67,8.67,0,0,0,3.13-.58,1.64,1.64,0,0,1,.47-.1c.29,0,.36,0,1.4.82Z"/><path class="cls-2" d="M220.39,8.6a1.51,1.51,0,0,1-1.66,1.55c-.47,0-.72-.18-1.08-.83a7.93,7.93,0,0,0-5.54-4.42c-.21-.08-.32-.15-.32-.26s.64-.43,1.69-.43C216.93,4.21,220.39,6.41,220.39,8.6Zm-4.68,16a5.3,5.3,0,0,1-2.59-1.87,2.65,2.65,0,0,1-.9-2.26c0-.69.18-1.23.43-1.23s.22.07.29.25a2.53,2.53,0,0,0,2.16,1.84c1.47,0,5.83-2.7,11-6.84a70.24,70.24,0,0,0,6.73-6c.72-.72,2.66-3,3-3.38s.44-.58.62-.58a.28.28,0,0,1,.28.32c0,.58-1.58,3-3.38,5.22a55.82,55.82,0,0,1-7.7,7.78,54.4,54.4,0,0,1-8.56,5.9C216.46,24.33,216.07,24.58,215.71,24.58Z"/><path class="cls-2" d="M263.1,4.18a34.07,34.07,0,0,1,.51,4.35A19.8,19.8,0,0,1,259.22,20c-2.09,2.7-4,4-5.9,4a3.21,3.21,0,0,1-2.49-1.37A8.39,8.39,0,0,1,249,17c0-7.63,6.62-13.89,14.68-13.89,7.13,0,12.09,4.46,12.09,10.87,0,5.72-3.38,10.37-9.06,12.42a22.15,22.15,0,0,1-4.93,1.19c-.26,0-.47-.18-.47-.33s.11-.14.61-.29a16.2,16.2,0,0,0,6.8-3.56,13.12,13.12,0,0,0,4.1-10c0-3.31-1-5.76-3.09-7.31a9.27,9.27,0,0,0-5.58-1.87Zm-1.44.14a12.81,12.81,0,0,0-10.54,12.74c0,2.67,1,4.68,2.38,4.68,1.54,0,4.42-2.91,6.18-6.26A22.71,22.71,0,0,0,262.2,7a7.28,7.28,0,0,0-.46-2.48Z"/><path class="cls-2" d="M304.81,8c4.43-.72,4.61-.8,5.72-1.59.33-.28.43-.32.69-.32s.72.18,1.69,1c1.29,1.12,1.4,1.26,1.4,1.62,0,.15-.11.29-.36.43-.57.33-.61.4-1,2.42-1.15,5.61-1.94,8.17-3.13,10.29s-2.87,3.38-4.49,3.38c-.26,0-.44-.1-.44-.28v-.26a.85.85,0,0,0,0-.32,5.53,5.53,0,0,0-1.8-3.82c-.32-.28-.39-.32-.39-.39s.25-.32.36-.32,0,0,.46.25l.33.21c1.65,1.12,1.69,1.15,2.19,1.15,1.26,0,2.2-1.29,3.24-4.46a29.75,29.75,0,0,0,1.3-7.34c0-.94-.22-1.3-.8-1.3a34.3,34.3,0,0,0-6.08.9A30.62,30.62,0,0,1,299,19.47a20.69,20.69,0,0,1-7.91,6.23,13.2,13.2,0,0,1-2.45,1,.57.57,0,0,1-.5-.47c0-.14.11-.25.54-.39a23.81,23.81,0,0,0,12.52-16c-1.26.28-3.42.93-4.64,1.36a3.42,3.42,0,0,1-1.37.4,4.85,4.85,0,0,1-2.41-1.22A2.66,2.66,0,0,1,292,8.46c0-.25.11-.4.29-.4s.14,0,.25.22c.43.75.93,1,2.09,1a55.25,55.25,0,0,0,6.8-.72,41.66,41.66,0,0,0,.57-5,2.65,2.65,0,0,0-1.26-2.38.42.42,0,0,1-.11-.21c0-.25.29-.4.87-.4A4.17,4.17,0,0,1,304,1.69c1.22.9,1.37,1.05,1.37,1.41,0,.14,0,.14-.18.43a10,10,0,0,0-.54,1.83c-.25,1-.33,1.3-.5,2-.08.33-.11.43-.22.83Z"/><path class="cls-2" d="M335.8,9.86c9.53-1,11.69-1.29,13.2-2,.36-.22.36-.22.58-.22,1.08,0,3.56,1.44,3.56,2.09a1,1,0,0,1-1,1,6,6,0,0,1-.93-.11,37.88,37.88,0,0,0-4.61-.39c-.75,0-2.73.1-4.89.28,1.62.9,2.34,1.48,2.34,1.8s0,.29-.76,1.08a21.94,21.94,0,0,1-10,12.82,21.41,21.41,0,0,1-4.21,1.62.32.32,0,0,1-.29-.29c0-.11.08-.14.29-.25a18.53,18.53,0,0,0,6.23-4.61,22,22,0,0,0,4.49-7.31,11.13,11.13,0,0,0,.79-3.45,1.6,1.6,0,0,0-.46-1.26,42.77,42.77,0,0,0-8.1,1.65,4.19,4.19,0,0,1-1.44.33,4.1,4.1,0,0,1-2.73-1.51,2.61,2.61,0,0,1-.54-1.59c0-.18.07-.29.18-.29s.11,0,.36.29a3.72,3.72,0,0,0,2.26.87c.29,0,.29,0,3-.26Zm6.84-5.43c-.26,0-.83.18-1.66.36a29.72,29.72,0,0,1-5.4.9,2.69,2.69,0,0,1-2.37-1.33A4.67,4.67,0,0,1,332.56,3a.16.16,0,0,1,.15-.18c.1,0,.14,0,.21.18.29.47,1,.72,2,.72a30.29,30.29,0,0,0,4.42-.61,12.93,12.93,0,0,0,3.46-1.15,2.4,2.4,0,0,1,1-.36,8.5,8.5,0,0,1,2.34.83c.4.21.58.46.58.75a.56.56,0,0,1-.36.51,10.54,10.54,0,0,1-1.77.43Z"/><path class="cls-2" d="M384,13.21a7.25,7.25,0,0,0,.18-1c.07-.54.14-.94.14-1.05a3.7,3.7,0,0,0,.11-.79c0-.61-.61-1-1.58-1a118.53,118.53,0,0,0-11.91,2,6.54,6.54,0,0,1-1.73.29c-.64,0-1-.22-2.34-1.37a2,2,0,0,1-.64-1.62c0-.65.11-.86.36-.86s.18,0,.21.18c.29.9,1.26,1.26,3.53,1.26a70.67,70.67,0,0,0,9.82-1c.72-.1,1.4-.21,1.62-.25a7.28,7.28,0,0,0,2.74-.9c.5-.25.57-.28.82-.28s.87.28,2.13,1.25S389,9.43,389,9.79c0,.14-.14.32-.36.5-1.15.62-1.91,2.49-3.81,9.76l.93-.07c1.15.47,1.84,1.11,1.84,1.69,0,.39-.25.75-.58.75a1.44,1.44,0,0,1-.32-.07,17.91,17.91,0,0,0-3.92-.5,40.45,40.45,0,0,0-11.09,1.62,3.65,3.65,0,0,1-1.58.39c-.54,0-1-.32-2.19-1.47a3.27,3.27,0,0,1-1-1.48.25.25,0,0,1,.26-.25c.1,0,.1,0,.32.15a8.24,8.24,0,0,0,2.66.46c1.15,0,6.19-.43,11-.93l1.66-.18Zm5-8.35A1.24,1.24,0,0,1,387.91,6a1,1,0,0,1-1.05-.72,6.42,6.42,0,0,0-3.56-2.91c-.11,0-.18-.11-.18-.18s.47-.26,1.15-.26C386.68,1.94,389.06,3.38,389.06,4.86ZM393.2,3.2A1.39,1.39,0,0,1,392,4.36c-.5,0-.75-.18-1-.76a6.73,6.73,0,0,0-3.6-3c-.14,0-.21-.11-.21-.18s.57-.29,1.15-.29C390.75.14,393.2,1.66,393.2,3.2Z"/><path class="cls-2" d="M406.3,4.14a.24.24,0,0,1-.18-.22,4.08,4.08,0,0,1,2.09-.9,4.76,4.76,0,0,1,1.87.8c1,.5,1.19.72,1.19,1a2.37,2.37,0,0,1-.08.43,19.49,19.49,0,0,0-.28,4.14c0,.61,0,1.44.07,2.52,0,.79.07,1.62.07,1.66a8.06,8.06,0,0,0,.07,1.29,2.36,2.36,0,0,1,0,.47.83.83,0,0,1-.76.86,2.31,2.31,0,0,1-2-1.72,1.59,1.59,0,0,1,0-.36,38.68,38.68,0,0,0,.18-4.61c0-2.95-.07-4-.39-4.5a1.71,1.71,0,0,0-1.59-.94.39.39,0,0,0-.21,0Zm10.29-1.58a.22.22,0,0,1-.11,0,.34.34,0,0,1-.28-.32c0-.33,1.54-1,2.26-1,1,0,3.38,1.55,3.38,2.24,0,.14,0,.25-.25.61-.29.54-.36.65-.43.79a10.35,10.35,0,0,0-.07,1.33c0,2.88-.18,7.45-.36,8.64-.72,5.11-4.1,9-9.57,11.09A17.62,17.62,0,0,1,407,27.21c-.25,0-.57-.18-.57-.36s.11-.14.47-.25a20.09,20.09,0,0,0,7.05-4c3.85-3.92,4.64-6.51,4.64-15.54l0-1.52c0-1.8-.72-3-1.84-3Z"/><path class="cls-2" d="M441.07,16.34a7.1,7.1,0,0,1-1.66.25,4.39,4.39,0,0,1-3.17-1.94,10.9,10.9,0,0,1-.25-2c0-.25.11-.43.29-.43s.18.07.29.25c.47,1.05,1.33,1.41,3.42,1.41a166.62,166.62,0,0,0,20.79-1.48c.33,0,.69-.07,1-.07a2.46,2.46,0,0,1,1.91.79c.68.65.94,1,.94,1.33,0,.54-.72.87-1.87.87-.29,0-.69,0-1.34,0s-3.7-.11-5.21-.11A97.44,97.44,0,0,0,441.07,16.34Z"/></g></g></g></svg>