<svg id="Layer_1" data-name="Layer 1" xmlns="http://www.w3.org/2000/svg" viewBox="0 0 1427.65 65.74"><title>car-bike</title><path d="M183,69c-1.36-7.1-.29-14.27-.61-21.4-.06-1.23.79-3-.91-3.5-1.49-.4-2.1,1.27-2.86,2.34-2,2.77-4,5.52-6,8.34-2.18-1.85-.71-2.9-.18-3.9,3.9-7.39,7.24-15,8.94-23.21,1-4.93.42-5.6-4.54-5.13a10.65,10.65,0,0,1-1.48.17c-1.41-.09-3.68.6-3.7-1.37,0-2.29,2.2-1.26,3.53-1.16,6.84.51,7.2.2,7.23-6.47,0-2.17,0-4.33,0-6.5,0-1.45-.34-3.19,1.63-3.72a4.79,4.79,0,0,1,4.71.92c1.62,1.57-.38,2.6-.93,3.84-1.35,3-.89,6.26-.57,9.35.26,2.59,1.91,2,3.58.88a17,17,0,0,1,9.8-2.75c1.74,0,4,.78,5-1.16S205,10.82,204.29,9c-.61-1.5-3.82-2.61-1.75-4.29,1.35-1.1,3.63.76,5.2,2.06s3.31,2.89,3.16,5.35c-.13,2.16.44,3.61,2.92,3.63,2.23,0,4.46,0,5.31-2.66.76-2.37,1.43-4.78,2.07-7.19.31-1.19.72-2.58,2.14-2.13a12.05,12.05,0,0,1,4.7,2.6c1.09,1-.19,2-1.15,2.76a6.58,6.58,0,0,0-1.75,1.74c-.76,1.3-2.93,2.52-1.2,4.23,1.44,1.43,3.12.39,4.45-.7,1-.84,1.83-2.24,3.34-1.79,2,.58,4,1.77,4,3.93-.07,2.46-2.5,1.55-4,1.6-3.83.13-7.66.09-11.49.1-2.17,0-3.48.89-3.48,3.25s1.06,3.39,3.35,3.33c2.47-.07,5.07.42,7-1.67s3.58-1.14,5.15.4c.55.55,1.29,1.4,1.2,2-.16,1.27-1.47,1.06-2.41,1.09-3.67.09-7.33.16-11,.18-2.22,0-3.41.87-3.38,3.26,0,2.18.81,3.57,3.1,3.67,3.65.16,7.25.54,10.27-2.52,1.78-1.82,6-.19,6.72,2.32.6,2.23-1.21,2-2.42,2-4.5,0-9,0-13.49-.06-1.7,0-3.74-.2-3.88,2.05-.18,3,1.6,5.39,3.66,7.33,1.56,1.46,2.7-.12,3.73-1.18,1.39-1.43,2.66-3,4.12-4.34,2.28-2.13,3.67-.1,4.84,1.4,1.53,1.95-.32,2.44-1.64,3.17-9,4.91-9,5.89-.08,11.48a18.08,18.08,0,0,1,3,1.77c1.16,1.11,5,.72,3,3.64-1.4,2-3.54,4.82-7,1.86A48.55,48.55,0,0,1,220,50.29c-.48-.84-.87-2.14-2-1.94-1.49.25-1.27,1.75-1.27,2.87,0,3.66,0,7.33,0,11a4.47,4.47,0,0,1-2.52,4.49c-2,1-3.35.15-4.83-1.26a34.33,34.33,0,0,0-4.89-3.31c1-2,2.65-1,4-1,1.76-.09,2.87-.85,3.1-2.6s.8-3.53-.6-4.73-2.82.34-3.91,1.15c-2.9,2.17-6.57,3.36-8.53,6.73-.69,1.19-1.86,1.67-3,.81-1.41-1.11-3.06-2.33-3.71-3.88-.73-1.75,1.53-1.81,2.58-2.29,4.36-2,8.8-3.83,13.22-5.7,4.07-1.73,5.27-5.48,4-12-.84-4.36-4.19-3.18-6.74-3-3.89.29-8.86-1.29-9.82,5.26-.31,2.12-2.58,2.52-4.06.28-1-1.48-1.15-3.5-3-4.48-1.88.92-1.13,2.61-1.14,4-.05,7.67,0,15.33,0,23A13.36,13.36,0,0,1,186,69Zm14.75-43c4.08-1.69,7.1-1,10-1.1,2.31-.08,3.95-.69,3.94-3.34s-1.78-3.29-4-3.29c-2.66,0-5.32,0-8,0-1.12,0-2.78-.27-2.9,1.2-.26,3-2.22,2.73-4.26,2.8-2.23.07-5-.52-5.43,2.85-.35,3-.39,5.79,3,7.7,5.88,3.34,11.92,0,17.83.94,2.57.42,4-1.27,3.82-4-.15-2.88-2.2-2.78-4.26-2.95C204.66,26.57,201.72,27.54,197.75,26Z" transform="translate(-3.09 -3.26)"/><path d="M343.9,54.24c1.31-1.7,3.12-1,4.66-1q10.23-.15,20.49-.06c3.08,0,4-1.47,4-4.35,0-2.73-1.07-4.29-3.8-3.94-4,.52-8.93-2.28-11.65,3.63-.8,1.74-4.09,1.47-4.18-1.49-.25-8-.13-16,0-24,0-2.16,1.6-2.46,3.16-1.62,4.1,2.19,8.48,1.2,12.76,1.35,2.42.09,3.65-1.06,3.7-3.6.06-2.75-1.16-4-3.87-4-5.49.1-11,.17-16.47.28-1.66,0-3.32.23-5,.21-1,0-2.19-.14-2-1.53.14-1,1.23-.94,2-.95,6.49,0,13-.2,19.48,0,4.13.15,6.44-.9,5.86-5.53-.18-1.45-.17-3.26,1.71-3.7A6,6,0,0,1,380,5c1.69,1.46-.18,2.59-.87,3.79-1.54,2.64-.75,4.23,2.28,4.3,4.67.12,9.33,0,14,0a5.32,5.32,0,0,0,4.18-2.37c1.37-1.69,3-2.2,4.68-.54,1.15,1.1,3.5,1.74,3,3.59-.55,2-2.84,1.17-4.38,1.21-6.5.13-13,.15-19.49.15-2.65,0-5.08,0-5.15,3.7-.08,4,2.52,4.17,5.35,3.94,3.41-.28,6.85.69,10.23-1.25,2.47-1.42,6.18,1.88,5.08,4.54-2.21,5.39-.8,10.88-1.24,16.29-.17,2.12.43,4.57-1.89,5.84-2.52,1.38-2.69-1.76-4.1-2.42-3.92-1.84-8.17-1.4-12.14-.35-2,.54-1.24,3.17-1.23,4.93s1.16,2.93,2.88,2.69c6.44-.89,13.71,2.91,19.26-3.52,1.21-1.4,7.33,1.75,7.56,3.82.27,2.28-1.63,1.63-2.77,1.64-7,.11-14,.37-21,.08-4.55-.19-6.6,1.26-6.05,5.93a16.57,16.57,0,0,1-.08,4,2.69,2.69,0,0,1-2.81,2.36c-1.71.07-2.05-1.21-2.34-2.64-.64-3.07,1.94-7.33-1.95-9-2.7-1.16-6.22-.54-9.37-.5-4.33.06-8.64.42-13,.47C347,55.7,345,56.58,343.9,54.24Zm22.39-29.41c-1.22,0-2.05,0-2.88,0-2.84-.17-4.81.34-4.73,4s1.83,4.22,4.76,4c2-.12,4-.05,6-.06,2.51,0,3.46-1.34,3.54-3.78C373.17,23.16,368.75,25.37,366.29,24.83Zm18.51,8c.83,0,1.66,0,2.49,0,3.1.16,5.19-.66,5.11-4.37s-2.66-3.62-5.21-3.63c-1.83,0-3.67,0-5.5,0-2.57,0-3.51,1.29-3.49,3.74s.66,4.29,3.6,4.24C382.8,32.8,383.8,32.81,384.8,32.82Zm.93,2c-1.11,0-1.94,0-2.77,0-2.84-.15-4.87.38-4.79,4s2,4.17,4.87,4c2.16-.12,4.34,0,6.49-.17a2.79,2.79,0,0,0,2.76-3c.06-1.46.48-3.11-1-4.14C389.51,34.33,387.41,35,385.73,34.83Zm-20.26,8c.83,0,1.66,0,2.49,0,3.1.18,5.13-.59,5.05-4.35s-2.59-3.63-5.14-3.64c-2,0-4,0-6,0-2.8,0-3.19,1.72-3.15,4s.5,4,3.24,4C363.14,42.8,364.3,42.81,365.47,42.82Z" transform="translate(-3.09 -3.26)"/><path d="M480.21,32.37a14.82,14.82,0,0,1,2,0c2.39.34,6.12-1.35,6.89,1s-3.42,2-5,3.55a16.84,16.84,0,0,0-3.27,4.35c-1.63,3.1-3.1,6.28-4.92,9.26-2.7,4.39-1.52,6.85,3.7,7.19a12.14,12.14,0,0,0,7.56-2.1c.86-.56,2-.72,2.54.48.43.92-.27,1.52-.88,2.11-4.7,4.6-13.17,5.58-18.79,1.83-2.1-1.4-3.51-.77-5.45.08C458,63,451.2,64,444.24,61.06c-5.35-2.25-8.69-6-9.49-11.82s1.76-10,6.4-13.1a5.85,5.85,0,0,1,1.25-.82c5.49-2,7.85-4.73,5.08-11-2-4.49-.19-9.23,3.87-12.52C455.8,8.14,461,8,466,9.79a9.16,9.16,0,0,1,6.08,9c0,5.65-3.34,9.52-8.46,11.17-5,1.6-4.94,3.89-2.36,7.52,2.41,3.39,4.64,6.91,7,10.35.75,1.1,1.72,2.72,3.07,2,3.51-1.85,4.55-5.58,5.64-9,.84-2.63-.52-4.47-3.08-5.45-1-.38-2.8-.19-2.51-1.79s2.08-1.21,3.33-1.25c1.83-.06,3.67,0,5.5,0ZM456.59,58.8c.75-.12,1.74-.24,2.71-.44,5.85-1.22,6.2-2.13,3-7-3-4.54-6.12-9-8.88-13.75-1.71-2.9-3.35-3.09-6-1.25-4.8,3.37-6.73,8.12-5.1,13.32C444,55.11,449.87,58.9,456.59,58.8Zm9.76-39.07c.11-3.78-3.06-7.7-6.29-7.8-3.43-.11-6.91,3.42-7,7.09-.1,4,3,9.82,5.33,9.84C461.74,28.9,466.25,23.73,466.35,19.73Z" transform="translate(-3.09 -3.26)"/><path d="M34.34,48.83c1.74,4.67,3.29,9.11,9.54,8.38,5.2-.61,9.49-6,9-11.44-.51-5.61-4.4-8.63-10.5-8-4.91.5-9.22,2.68-13.44,5.09-1.87,1.06-2.24,2.78-2.17,4.69.13,3.66.29,7.31.46,11,.13,2.71-1.16,4.64-3.65,5.28-2.71.7-2.41-2.13-3.34-3.48-1-1.51-1.89-3.13-3-4.58-1.81-2.37-3.83-3.07-6.17-.51s-4.75,2.08-6.77-.41S2.6,50,6,50c5.62-.07,9.52-3.61,14.11-5.8,2.43-1.16,3.25-2.94,3.17-5.59-.15-5.49-.68-6.14-6.08-5.3-3,.47-5.7.32-7.4-2.6a2.83,2.83,0,0,1-.18-2.32c.44-.89,1.35-.49,2.16-.12a7.47,7.47,0,0,0,2.8.9c3,.12,6.2.37,8-2.8,1.51-2.7.21-9.81-1.94-11.61-.82-.69-2.56-.75-2-2.36s2.26-2,3.77-1.77c3,.39,5.93,1.5,5.61,5.08-.39,4.28,2,5.18,5.29,5.53,1.6.17,3.59-.26,4,2s-1,3.39-2.72,4.28-3.3,1.56-4.93,2.4c-2.59,1.34-4,6.09-2.63,8.54,1.14,2,2.58.92,3.83.25a38.27,38.27,0,0,1,11.75-4c8.18-1.38,14.18,2.24,15.48,9.47,1.37,7.64-3.41,15.12-10.72,16.77-4.23,1-8.38,1.17-11.55-2.43C33.4,55.76,32.56,52.54,34.34,48.83Zm-11,2.53c-.82-1.13,1.11-4.08-1.84-4-2,.07-4.35,1.72-4.38,4.08,0,2.13,2.22,3.49,4.08,3.76C23.88,55.6,23,53.1,23.36,51.36Z" transform="translate(-3.09 -3.26)"/><path d="M290.31,63c1.27-2.13,3.15-2,4.6-2.7a26.85,26.85,0,0,0,15.92-28.83,16.92,16.92,0,0,0-14.27-14.12c-4.49-.66-3.94,2.34-3.75,5,.89,12.17-3.86,22.08-12.36,30.39-6.72,6.57-12.74,5.24-16-3.51-2.93-7.87-.85-15.19,3.56-21.79,7-10.47,20.45-15.23,32.62-12C315.31,19.28,321.71,35,314.34,49,310.08,57.15,299.65,63.33,290.31,63ZM268.24,42a18.87,18.87,0,0,0,0,2c.33,2.81.34,6,3.52,7.17s5.08-1.29,6.79-3.17a42,42,0,0,0,11.05-24.1c.61-5.46-1.39-7-6.22-4.67C274,23.86,268.59,31.32,268.24,42Z" transform="translate(-3.09 -3.26)"/><path d="M803.18,62.59c2.46-1.18,5-2.29,7.37-3.56a26.14,26.14,0,0,0,13.29-28.71c-1.61-6.9-5.92-11-12.66-12.68-4.24-1.07-5.32-.12-5,4.4.83,12.32-3.9,22.41-12.45,30.92-2.83,2.82-6.32,5-10.31,3.36s-5.77-5.47-6.31-9.61c-2.84-21.8,17.45-37.17,38.54-30.63,19,5.89,19,28.58,6.65,39.7C817.06,60.51,810.73,63.24,803.18,62.59ZM781.11,42.31c-.16,2.24.68,4.24,1.48,6.24,1.44,3.59,3.92,3.93,6.65,1.67,8.51-7,12.65-16.45,13.83-27.18.49-4.45-1.61-5.63-5.85-4A26.4,26.4,0,0,0,781.11,42.31Z" transform="translate(-3.09 -3.26)"/><path d="M108,62c.23-.47.28-.72.37-.73C117,59.63,117,59.63,117,50.26c-.1-14.41,1.8-12.58-12.83-12.63-4.31,0-8.62.43-12.94.54-1.34,0-3.57.73-3.47-1.49.08-1.92,2.09-.93,3.28-.93,6.82,0,13.64,0,20.46.14,4,.1,6-1.28,5.53-5.53-.45-3.94-.08-6.87,4.62-8.91,3.21-1.39,7.74-5.3,6.75-8.9-.9-3.22-6.22-1.19-9.54-1.28-6.14-.15-12.31-.49-18.45.39-1.12.16-2.67.27-2.6-1.37,0-1.2,1.49-1.06,2.45-1.07,9.16,0,18.31,0,27.47,0,1.8,0,3.81.49,5.23-1,2.39-2.53,4.35-1.51,6.35.46,1,1,2.76,1.75,2.49,3.47-.34,2.15-2.58,1.56-3.95,2.27-6.34,3.3-12.5,7-15.26,14.06-1.85,4.74.12,7.51,5.18,7.37,5.78-.15,12.08,1.78,16.75-3.85,1.28-1.54,2.74,0,3.86,1s3.41,1.49,3.29,3.4-2,1.28-3.24,1.29c-7,0-14,.17-21-.12-4-.17-5.34,1.5-5.25,5.26.14,5.82,0,11.65.06,17.47,0,2.59-.2,5-2.79,6.47s-3.81-.51-5.47-1.8S109.58,63.74,108,62Z" transform="translate(-3.09 -3.26)"/><path d="M696.92,42.86c4.84-5.66,9.66-11.09,13.35-17.38,2.29-3.9,5.7-7.7,2.45-12.8-.76-1.18.28-1.7,1.43-1.83,3.44-.39,7.27,3.29,6.49,6.7s.82,3.43,3.17,2.82,5-1,7.13-2.14c4.34-2.38,6.44.8,9,3.08a1.53,1.53,0,0,1,0,2.25C732.47,31,728.93,41.31,721,48.46a78.47,78.47,0,0,1-24.4,15.24c-1,.39-2.43,1.5-3,0-.67-1.68,1.24-2,2.36-2.6A75.06,75.06,0,0,0,722,39.79a62.83,62.83,0,0,0,7.94-13.25c1.3-3,.35-4.1-2.67-3.85-5.57.47-10.84.62-14.34,6.69-3.22,5.58-8.41,9.86-14.15,13.14A6,6,0,0,1,696.92,42.86Z" transform="translate(-3.09 -3.26)"/><path d="M1124.19,42.11c3-3.24,6.48-6.17,8.88-9.81,4-6,11.54-11,7-20.12-.46-.93.56-1.29,1.48-1.39,3.57-.4,7.45,3.32,6.78,7-.55,3,.87,3.19,3,2.68,2.41-.57,5-.95,7.12-2.14,4-2.25,6.22.15,8.6,2.55.75.75,1.19,1.81.32,2.66-6.24,6.12-9.08,14.59-14.91,21.07-8.13,9-18,15.16-29.14,19.46a6,6,0,0,1-1.94,0c-.22-2.55,1.9-2.54,3.18-3.26,13.83-7.73,25.09-18,32.24-32.35.75-1.5,2.55-3.2,1.26-5s-3.38-.44-5.12-.56c-5.68-.37-9.17,2.29-12.52,6.85-4,5.46-8.8,10.67-15.39,13.32Z" transform="translate(-3.09 -3.26)"/><path d="M869,64.29c3.4-3.43,7.06-5.92,9.35-9.57,5.34-8.49,10.08-17.16,9.14-27.81-.27-3,2.17-1.71,3.53-1.19,4.82,1.84,10.43.12,12.84-4.41,1.93-3.63-1.44-3-3-3-8.84.4-17.6,1.57-25.91,4.75-3.5,1.33-5.77.11-7.8-2.45-.85-1.07-1.66-2.38-.95-3.67,1-1.86,2.24-.16,3.38.15,6.31,1.7,12.58.07,18.83-.43s12.19-1.7,18.28-2.57c2.86-.41,8.65,4.06,8.85,6.75.12,1.62-1,1.92-2.18,2.16-5.47,1.1-10.08,4.28-15.21,6.19-3.26,1.22-4.06,4.14-5.13,6.94-4,10.4-9,20.08-18.37,26.75C873.17,63.91,871.89,65.58,869,64.29Z" transform="translate(-3.09 -3.26)"/><path d="M1307.09,45.41c5.77-.74,11.53-1.63,17.32-2.18,4-.38,3.81-3.28,3.75-5.83-.06-2.89-2.31-3.31-4.7-2.94-6.24,1-12.49,1.91-18.7,3.06-1.86.35-3.54.69-5.3-.26s-3.47-2.27-2.77-4.18,2.5,0,3.82,0a74.77,74.77,0,0,0,26.6-3c3.67-1.17,5.63.18,8,2.16,2.61,2.23.13,3.75-.65,5.56-2.07,4.77-2.84,9.88-3.63,15-.29,1.85.69,3.16,2,4.32a1.63,1.63,0,0,1,.52,2.21,2,2,0,0,1-2.26.6c-8.79-2.13-17.15.33-25.53,2.4-1.53.37-3,.6-4.28-.44s-3.42-1.79-2.94-3.61,2.52-.6,3.88-.7c6.64-.44,13.27-.89,19.89-1.4,4.18-.33,5.13-3.26,4.93-6.72-.24-4.17-3.6-2.71-5.72-2.58-4.47.27-8.91,1.07-13.37,1.59a38.32,38.32,0,0,1-5.45.39c-1.39,0-2.8-.74-2.83-2.29-.06-2.29,1.82-1.26,3-1.33,1.49-.08,3,0,4.49,0Z" transform="translate(-3.09 -3.26)"/><path d="M605.14,48.33a108.75,108.75,0,0,0,25-21.3c2.48-2.91,4.76-6,7-9.12,1.12-1.58,2.4-3.36.48-5.37-.59-.62-.89-1.79.06-2.11,3.11-1.07,5.33.94,7.57,2.62,1.81,1.35,2.09,2.77.31,4.53-2.25,2.22-4.32,4.62-6.43,7s-5.55,4.5-1.34,8c.26.21.22,1,.11,1.44-2,8.27.63,16.59-.26,24.87-.25,2.37,1.18,6.19-3.15,5.9-4-.26-3.43-3.75-3.19-6.59.56-6.8,1.2-13.59,1.66-20.4.1-1.52.81-3.63-1.26-4.38-1.64-.59-2.69,1-3.75,2A68.49,68.49,0,0,1,610.44,47.7C609.12,48.33,607.9,49.35,605.14,48.33Z" transform="translate(-3.09 -3.26)"/><path d="M971.44,41c.34,5.48.7,10.95,1,16.43a20.57,20.57,0,0,1-.19,4.44c-.22,1.32-.82,2.61-2.42,2.8s-2.35-1-3-2.15a8.35,8.35,0,0,1-.82-5.32c1.4-12.94,1.08-25.92,1-38.9,0-2.26-.42-4.27-2.18-5.87-.78-.71-2.45-1.34-1.42-2.65.58-.73,2.08-1,3.18-1,4.59-.2,7.15,3,6.17,7.53-.1.49-.24,1-.32,1.47-1.56,8.53-1.6,8.68,6.66,11a22.69,22.69,0,0,1,11.77,7.08c1.57,1.85,3,4.14.56,6.12s-4.39.44-5.9-1.63c-2.46-3.4-5.07-6.61-8.79-8.73s-4.92-1.54-5.07,2.94c-.08,2.17,0,4.33,0,6.5Z" transform="translate(-3.09 -3.26)"/><path d="M1040.73,62.12c6.76-3.32,12.7-6.19,17.75-10.61A52.78,52.78,0,0,0,1072,33.18c1.69-3.73.3-5.07-3.3-4.76a90.63,90.63,0,0,0-20.05,3.77c-4.82,1.55-8.4.18-9.6-3.43-.26-.77-.64-1.61.08-2.33.56-.55,1.17-.18,1.82,0,10.52,2.58,20.77.15,30.85-2.31,3.78-.93,6-.05,8.36,2.34a2.76,2.76,0,0,1,.59,3.61c-8,13.7-16.93,26.37-32.89,31.8C1045.85,62.52,1043.92,63.71,1040.73,62.12Z" transform="translate(-3.09 -3.26)"/><path d="M1430.22,18.22c1.29,1.7-.11,2.83-.86,4C1419.53,37.05,1406.17,48,1391,57a4,4,0,0,1-5-.42c-2-1.74-4.2-3.46-4.09-6.49.08-2.06,1.43-2.31,2.57-1,2.74,3.14,5.36,1.6,8,.09a142.45,142.45,0,0,0,34.22-27.87C1427.66,20.13,1428.21,18.32,1430.22,18.22Z" transform="translate(-3.09 -3.26)"/><path d="M1258.52,19.48c1.08,1.44.11,2.54-.55,3.65-9.42,16-23.28,27.1-39.15,36.09-2.54,1.43-4.58.58-6.37-1-2.2-2-4.47-4.12-2.72-8.14,4.76,5.07,9.36,2.79,13.93,0A117.39,117.39,0,0,0,1255,22.64C1256,21.42,1256.5,19.6,1258.52,19.48Z" transform="translate(-3.09 -3.26)"/><path d="M514.3,56c.22-2.1,2.19-2.27,3.48-3.07a45.89,45.89,0,0,0,16.07-16.1c1.5-2.61,3.2-5.16.47-8.15-1.18-1.29-.42-2.28,1.23-1.95,3.17.62,6.19,1.84,7.86,4.78,1.5,2.62-1.39,3.78-2.5,5.4-6,8.71-13.65,15.42-23.78,19a9.73,9.73,0,0,1-1.9.52C515,56.48,514.67,56.2,514.3,56Z" transform="translate(-3.09 -3.26)"/><path d="M551.84,25.73c8.4-.8,22.24,12.76,22.84,20.07.19,2.21.21,4.48-2.57,5.21-2.29.61-3.42-.89-4.05-2.74a53.09,53.09,0,0,0-6.36-12.88C559.07,31.52,555.55,28.61,551.84,25.73Z" transform="translate(-3.09 -3.26)"/><path d="M1049.19,13.8c6-.23,11.49-.64,16.72-2.59a8,8,0,0,1,7.2.5,2.13,2.13,0,0,1,1.29,2c-.09,1-.93,1.31-1.79,1.44-7.08,1-14.16,2.09-21.24,3.09a4.13,4.13,0,0,1-2-.24c-1.84-.68-4.5-1.23-4-3.62S1048.24,14.07,1049.19,13.8Z" transform="translate(-3.09 -3.26)"/><path d="M47.92,24.84C54,20.53,61.57,21.25,65.49,26c1.55,1.89,2.45,4,1.58,6.46a2.79,2.79,0,0,1-2.51,2.11A2.23,2.23,0,0,1,62.27,33C59.76,26.39,54.81,24.09,47.92,24.84Z" transform="translate(-3.09 -3.26)"/><path d="M1381.89,17.83c6.12-1.35,11.27,0,15.13,4.78,1.48,1.85,1.9,4.1-.29,5.68s-3.77,0-4.84-1.82C1389.53,22.5,1385.92,20.07,1381.89,17.83Z" transform="translate(-3.09 -3.26)"/><path d="M1214.71,15.3c5.06-1.17,9.86-.85,13.63,3,1.78,1.82,2.94,4.41.48,6.6-2.84,2.52-4.17-.36-5.35-2.13C1221.26,19.46,1218,17.58,1214.71,15.3Z" transform="translate(-3.09 -3.26)"/><path d="M1210.51,27.44c3.56,1.12,7.48,1.74,9.85,5.12,1.22,1.72,1.58,3.95-.25,5.42-2.1,1.68-3.65.15-4.81-1.66a18.33,18.33,0,0,0-6-5.87c-.8-.5-2-1-1.52-2.19S1209.5,27.55,1210.51,27.44Z" transform="translate(-3.09 -3.26)"/><path d="M558.64,13.42a16.75,16.75,0,0,1,6.52,3.25c1.3,1.18,2.27,2.67.75,4.31s-2.94.72-4.24-.58-2.83-2.77-4.28-4.13c-.68-.63-2-.95-1.53-2.19S557.55,13.41,558.64,13.42Z" transform="translate(-3.09 -3.26)"/><path d="M207,46.41c-.07,1.75-.89,3.15-2.72,2.63-3.95-1.14-2.5-5.79-4.85-8.14-.64-.64.38-1.4,1.34-1.42C203.27,39.43,207.07,43.66,207,46.41Z" transform="translate(-3.09 -3.26)"/><path d="M562.67,10.55c5.08-1.14,8,.24,10.41,2.81,1.09,1.16,1.48,2.7.17,4s-2.59.5-3.76-.63C567.53,14.81,565.46,13.05,562.67,10.55Z" transform="translate(-3.09 -3.26)"/></svg>