<svg xmlns="http://www.w3.org/2000/svg" viewBox="0 0 438.32 105.69"><defs><style>.cls-1{fill:#333;}</style></defs><title>carbike-category-title</title><g id="Layer_2" data-name="Layer 2"><g id="Layer_1-2" data-name="Layer 1"><path class="cls-1" d="M22.25,16a5.4,5.4,0,0,1-.7.38,54.34,54.34,0,0,1-8.64,17.82A28.21,28.21,0,0,1,4.7,41.69a6.21,6.21,0,0,1-2.22.86.53.53,0,0,1-.54-.43c0-.16.06-.22.65-.65a29.32,29.32,0,0,0,9.72-11.28A39.81,39.81,0,0,0,16,20.25,31.1,31.1,0,0,0,16.9,15a1.78,1.78,0,0,0-1.46-2c-.16,0-.27-.16-.27-.27,0-.32.49-.64,1-.64,1.35,0,3.61,1.18,5.72,3,3.94-2.33,7.88-5.84,7.88-7.08,0-.65-1-1-3-1a110.78,110.78,0,0,0-11.66,1.4,43.39,43.39,0,0,0-8.75,2.48c-1,.49-1.19.54-1.46.54-1.13,0-3-1.24-4-2.64C.22,7.78.11,7.51,0,5.62V5.29a.48.48,0,0,1,.49-.48c.21,0,.27.05.48.48.38,1,2.32,2,3.84,2,.43,0,1.08-.06,1.94-.11.49-.06,1.62-.16,3.35-.27s3.24-.22,3.78-.27c1.94-.22,3.89-.49,5.88-.7,8-.87,8.43-.92,11.45-1.84A5.36,5.36,0,0,1,32,3.94c.76,0,1.73.81,3.35,2.81.59.76,1,1.24,1.19,1.46.75.75.92,1,.92,1.56s-.38.87-1.19.92c-2.86.27-3.67.54-7.13,2.27-2,1-2.54,1.19-5.35,2.43Z"/><path class="cls-1" d="M72.36,17.39c0,9.66.16,14.79.43,18.41.11,1.14.16,2,.16,2.43,0,2.27-.81,3.94-1.94,3.94s-2.86-2.43-2.86-3.77A7.31,7.31,0,0,1,68.31,37c.43-3,.86-15,.86-25.76,0-5.07-.21-6.91-.86-8a2.7,2.7,0,0,0-2.59-1.35c-.38,0-.54-.16-.54-.49s.16-.37.48-.54A15.32,15.32,0,0,1,69,0c.81,0,1.56.38,3.94,1.89.7.49,1,.86,1,1.24a3,3,0,0,1-.27,1c-.87,1.46-1.19,4-1.3,10A23.07,23.07,0,0,1,83.7,17.71c2.92,2,4.27,3.73,4.27,5.46a2.21,2.21,0,0,1-2.27,2.37c-1.19,0-1.78-.48-3.13-2.54a19.41,19.41,0,0,0-10.21-7.93Z"/><path class="cls-1" d="M128.52,36.88c-3.94,2.27-8.86,4.11-11,4.11-.48,0-.86-.27-.86-.54s.11-.33.43-.38a37.74,37.74,0,0,0,11.18-5.73c4.86-3.72,8.42-7.61,10.58-11.71,1.95-3.57,2.81-5.67,2.81-6.75,0-.92-.59-1.41-1.73-1.41s-7,.76-9.5,1.24a72.86,72.86,0,0,0-9.4,2.43,1.88,1.88,0,0,1-.86.22c-.65,0-1.78-.7-3.08-1.89a5.42,5.42,0,0,1-1.4-3.56c0-.44.16-.71.48-.71.17,0,.22.06.33.38.32,1.08,2.37,1.95,4.48,1.95.86,0,.86,0,7.4-.65,4.37-.49,7-.76,7.77-.87a18,18,0,0,0,6.05-1.67,3.44,3.44,0,0,1,1-.27c1,0,4.92,3.08,4.92,3.89,0,.48-.22.7-1.95,2C140.62,27.49,136.35,32.29,128.52,36.88Zm-7.94-34c.54.81,1.78,1.19,3.78,1.19,3.94,0,10.1-1.08,12.69-2.21a3.51,3.51,0,0,1,1.68-.49c.54,0,1,.22,2.64,1.08,1.14.59,1.51,1,1.51,1.51s-.48.87-2.48,1.08c-2.75.33-2.86.33-7.07,1.08a52.46,52.46,0,0,1-8.16,1,4.32,4.32,0,0,1-4.1-2A9.37,9.37,0,0,1,120,2.75c0-.1.11-.27.21-.27S120.37,2.54,120.58,2.86Z"/><path class="cls-1" d="M171.13,40.34A56.51,56.51,0,0,0,187.7,28.73,45,45,0,0,0,197.1,16a19.05,19.05,0,0,0,2-4.81A1.27,1.27,0,0,0,197.8,10c-.21,0-.59.06-1,.11-.17.06-1.3.27-2.43.43-.92.17-1.68.27-2.11.33a4.6,4.6,0,0,1-1.08.16,4.18,4.18,0,0,1-2.11-.76,52.9,52.9,0,0,1-8.91,10.86c-2.59,2.37-6.15,4.8-7,4.8-.32,0-.59-.16-.59-.37,0-.38.11-.49,1.46-1.46,2.27-1.57,5.88-5.73,8.85-10.1,2.27-3.46,3.68-6.53,3.68-8.32a3.44,3.44,0,0,0-2-3.34c-.22-.06-.38-.22-.38-.33,0-.27.59-.48,1.46-.48a6.43,6.43,0,0,1,3.78,1.35c1.94,1.29,2.37,1.72,2.37,2.48,0,.32-.05.43-.37.81a9.8,9.8,0,0,0-.92,1.35c-.38.86-.54,1.13-.76,1.57a3.69,3.69,0,0,0,1.3.21,33.85,33.85,0,0,0,6.48-1.19,10.08,10.08,0,0,0,2.05-1c.92-.59,1.24-.7,1.57-.7.59,0,1.29.43,3.13,2,1.62,1.35,1.83,1.56,1.83,2s-.21.65-.81.86a16.53,16.53,0,0,0-1.72.76c-7.67,15.34-16.8,23.87-31.32,29.21a5.76,5.76,0,0,0-.76.27,2.37,2.37,0,0,1-.49.11c-.43,0-1-.43-1-.81,0-.16.11-.27.76-.43Z"/><path class="cls-1" d="M236,16.09c2.05,1.35,3,2.59,3,4.21a2.29,2.29,0,0,1-2.16,2.22c-.86,0-1.35-.38-1.84-1.3a12.33,12.33,0,0,0-6.8-6c-.32-.11-.49-.22-.49-.38s.87-.54,2-.54A13.48,13.48,0,0,1,236,16.09Zm-.65,22.52c-1,0-3.08-1.35-4.16-2.7a5.78,5.78,0,0,1-1.45-3.19,7.07,7.07,0,0,1-.06-1.13c0-.54.16-.81.49-.81.16,0,.27,0,.7.7a4,4,0,0,0,3.83,2.05c1.84,0,5.13-1.45,9.29-4.15a110.71,110.71,0,0,0,16.58-14.26,54.55,54.55,0,0,0,5.78-7.18c.43-.65.65-.87.86-.87s.38.33.38.6c0,1-2.65,5.56-5.29,9A78.68,78.68,0,0,1,239,36.5c-1.78,1-2.53,1.46-2.64,1.57A1.24,1.24,0,0,1,235.33,38.61Zm7.13-32.56c2,1.24,3,2.59,3,4.32a2.43,2.43,0,0,1-2.32,2.54c-.92,0-1.24-.27-1.83-1.46a12,12,0,0,0-7.94-6.1c-.38,0-.54-.11-.54-.33,0-.43,1-.7,2.59-.7A15.63,15.63,0,0,1,242.46,6.05Z"/><path class="cls-1" d="M312.34,22.09c.1-.87.16-1.52.16-1.62,0-.81-.87-1.46-2-1.46a141.2,141.2,0,0,0-16,2.48,7.26,7.26,0,0,1-2.22.49,5.28,5.28,0,0,1-3.13-1.73,3.9,3.9,0,0,1-1-2.48c0-.6.21-1,.54-1,.16,0,.21.06.32.44.33,1,1.84,1.51,4.7,1.51,1.94,0,9.45-.76,16.25-1.68a10.42,10.42,0,0,0,1.79-.75c1.13-.65,1.4-.76,1.78-.76,1.08,0,4.8,3,4.8,3.89,0,.27-.05.32-.81.86-1.4,1.14-1.89,2.81-4.1,15,2.16.81,3,1.45,3,2.37,0,.49-.27.87-.65.87a7.11,7.11,0,0,1-.75-.11,25.09,25.09,0,0,0-5.51-.76,62.72,62.72,0,0,0-14.15,2.22,4.41,4.41,0,0,1-1.94.48c-1.3,0-4.16-2.7-4.16-3.94a.34.34,0,0,1,.32-.32c.06,0,.33.1.54.16a9.64,9.64,0,0,0,3.3.65c.32,0,.81-.06,1.35-.11s2.21-.16,4.53-.33c5.94-.48,9.07-.81,11.45-1.08l.86-7.12a14.6,14.6,0,0,0-2-.11A98.8,98.8,0,0,0,295.06,30a7.07,7.07,0,0,1-1.68.33,4,4,0,0,1-3-2.32,3.71,3.71,0,0,0-.21-.6,1.91,1.91,0,0,1-.11-.43.34.34,0,0,1,.27-.27c.16,0,.21.05.54.27a3.25,3.25,0,0,0,2.27.7c.75,0,.75,0,4.86-.32,2.1-.16,4.21-.38,6.26-.54A13.49,13.49,0,0,0,309,26a2.7,2.7,0,0,1,.7-.16c.43,0,.54.06,2.11,1.24Z"/><path class="cls-1" d="M357.7,12.91a2.26,2.26,0,0,1-2.49,2.32c-.7,0-1.08-.27-1.62-1.24a11.9,11.9,0,0,0-8.31-6.65c-.33-.1-.49-.21-.49-.37,0-.38,1-.65,2.54-.65C352.51,6.32,357.7,9.61,357.7,12.91Zm-7,24c-.81,0-2.6-1.29-3.89-2.81a4,4,0,0,1-1.35-3.4c0-1,.27-1.83.65-1.83.21,0,.32.1.43.37A3.81,3.81,0,0,0,349.76,32c2.21,0,8.75-4,16.58-10.26a106.45,106.45,0,0,0,10.09-9c1.08-1.08,4-4.43,4.54-5.08s.65-.86.92-.86a.44.44,0,0,1,.43.49c0,.86-2.38,4.53-5.08,7.83a84,84,0,0,1-11.55,11.66,82.88,82.88,0,0,1-12.85,8.86C351.81,36.5,351.22,36.88,350.68,36.88Z"/><path class="cls-1" d="M419.36,6.26a51.06,51.06,0,0,1,.76,6.54c0,5.45-2.48,11.88-6.59,17.17-3.13,4.05-6,6.05-8.85,6.05A4.84,4.84,0,0,1,401,34a12.62,12.62,0,0,1-2.81-8.54c0-11.44,9.94-20.84,22-20.84,10.7,0,18.15,6.7,18.15,16.31,0,8.58-5.08,15.55-13.61,18.63a32.72,32.72,0,0,1-7.4,1.78c-.38,0-.7-.27-.7-.49s.16-.21.92-.43a24.43,24.43,0,0,0,10.2-5.34c3.89-3.35,6.16-8.86,6.16-15.07,0-5-1.56-8.64-4.64-11a14,14,0,0,0-8.37-2.81Zm-2.16.22A19.22,19.22,0,0,0,401.38,25.6c0,4,1.51,7,3.57,7,2.32,0,6.64-4.38,9.28-9.4,2.11-4.1,3.78-9.67,3.78-12.74a10.66,10.66,0,0,0-.7-3.73Z"/><path class="cls-1" d="M106.65,76c6.64-1.08,6.91-1.19,8.59-2.37.48-.44.64-.49,1-.49.6,0,1.08.27,2.54,1.57,1.94,1.67,2.11,1.89,2.11,2.43,0,.21-.17.43-.54.64-.87.49-.92.6-1.52,3.62-1.72,8.43-2.91,12.26-4.69,15.45s-4.32,5.07-6.75,5.07c-.38,0-.65-.16-.65-.43v-.38a1.57,1.57,0,0,0,0-.48,8.31,8.31,0,0,0-2.7-5.73c-.48-.43-.59-.48-.59-.59s.38-.49.54-.49,0,0,.7.38l.49.32c2.48,1.68,2.53,1.73,3.29,1.73,1.89,0,3.29-1.94,4.86-6.69a44.2,44.2,0,0,0,1.94-11c0-1.4-.32-1.94-1.18-1.94A50.62,50.62,0,0,0,105,78c-1.89,6.42-4.43,11.88-7.13,15.22A31.15,31.15,0,0,1,86,102.56,20.42,20.42,0,0,1,82.35,104a.87.87,0,0,1-.76-.71c0-.21.17-.37.81-.59,9.18-4.32,16.69-13.93,18.8-24-1.89.43-5.13,1.41-7,2.05a5.14,5.14,0,0,1-2,.6,7.22,7.22,0,0,1-3.62-1.84,4,4,0,0,1-1.08-2.86c0-.38.16-.59.43-.59s.22.05.38.32c.65,1.13,1.4,1.51,3.13,1.51,2,0,3.78-.21,10.21-1.08a62.68,62.68,0,0,0,.86-7.45,3.91,3.91,0,0,0-1.89-3.56.68.68,0,0,1-.16-.33c0-.38.43-.59,1.3-.59a6.18,6.18,0,0,1,3.72,1.62c1.84,1.35,2.05,1.56,2.05,2.1,0,.22,0,.22-.27.65a18.1,18.1,0,0,0-.81,2.76c-.37,1.56-.48,1.94-.75,3-.11.48-.16.64-.33,1.24Z"/><path class="cls-1" d="M153.68,78.8c14.31-1.46,17.55-2,19.82-3.08.54-.33.54-.33.87-.33,1.62,0,5.34,2.16,5.34,3.14A1.54,1.54,0,0,1,178.2,80a9.43,9.43,0,0,1-1.4-.16,54.29,54.29,0,0,0-6.92-.6c-1.13,0-4.1.16-7.34.43,2.43,1.35,3.51,2.22,3.51,2.7s-.05.44-1.13,1.62c-2.7,8.54-8.16,15.5-15,19.23a31.78,31.78,0,0,1-6.31,2.43.47.47,0,0,1-.44-.43c0-.17.11-.22.44-.38A27.81,27.81,0,0,0,152.93,98a33.33,33.33,0,0,0,6.75-11,17.24,17.24,0,0,0,1.19-5.18,2.41,2.41,0,0,0-.71-1.89A63.83,63.83,0,0,0,148,82.41a6.47,6.47,0,0,1-2.16.49,6.12,6.12,0,0,1-4.1-2.27,3.9,3.9,0,0,1-.81-2.37c0-.27.11-.44.27-.44s.16,0,.54.44a5.61,5.61,0,0,0,3.4,1.29c.43,0,.43,0,4.43-.38Zm10.26-8.16c-.37.06-1.24.27-2.48.54-4.48,1-6.64,1.35-8.1,1.35a4,4,0,0,1-3.56-2,7.27,7.27,0,0,1-1-2.1.25.25,0,0,1,.22-.27c.16,0,.22,0,.32.27.44.7,1.46,1.08,3,1.08a46.25,46.25,0,0,0,6.64-.92,18.29,18.29,0,0,0,5.18-1.73,3.61,3.61,0,0,1,1.52-.54,13.42,13.42,0,0,1,3.51,1.24c.59.33.86.71.86,1.14a.81.81,0,0,1-.54.75,14.13,14.13,0,0,1-2.65.65Z"/><path class="cls-1" d="M227.12,83.82a10.52,10.52,0,0,0,.27-1.46c.11-.81.22-1.4.22-1.57a6.31,6.31,0,0,0,.16-1.18c0-.92-.92-1.52-2.37-1.52-2,0-13.56,2-17.88,3a10.19,10.19,0,0,1-2.59.43c-1,0-1.57-.32-3.51-2a3,3,0,0,1-1-2.43c0-1,.16-1.3.54-1.3.21,0,.27.06.32.27.43,1.35,1.89,1.89,5.29,1.89a106.53,106.53,0,0,0,14.75-1.46l2.43-.37a11,11,0,0,0,4.1-1.35c.76-.38.86-.44,1.24-.44.6,0,1.3.44,3.19,1.89,1.73,1.41,2.21,2,2.21,2.49,0,.21-.21.48-.54.75-1.73.92-2.86,3.73-5.72,14.64l1.4-.11c1.73.7,2.76,1.68,2.76,2.54,0,.59-.38,1.13-.87,1.13a2.18,2.18,0,0,1-.48-.11,27.23,27.23,0,0,0-5.89-.75c-5.35,0-12.8,1.08-16.63,2.43a5.5,5.5,0,0,1-2.38.59c-.81,0-1.51-.48-3.29-2.21a4.84,4.84,0,0,1-1.46-2.22.37.37,0,0,1,.38-.37c.16,0,.16,0,.48.21a12,12,0,0,0,4,.7c1.73,0,9.29-.64,16.52-1.4l2.49-.27Zm7.56-12.53A1.86,1.86,0,0,1,233,73a1.45,1.45,0,0,1-1.57-1.08A9.75,9.75,0,0,0,226,67.56c-.16,0-.27-.16-.27-.27s.71-.37,1.73-.37C231.12,66.92,234.68,69.08,234.68,71.29Zm6.21-2.48a2.05,2.05,0,0,1-1.83,1.72c-.76,0-1.14-.27-1.57-1.13a10.13,10.13,0,0,0-5.4-4.48c-.21-.06-.32-.16-.32-.27s.86-.43,1.73-.43C237.22,64.22,240.89,66.48,240.89,68.81Z"/><path class="cls-1" d="M263,70.21a.35.35,0,0,1-.27-.32c0-.33,2.27-1.35,3.13-1.35.49,0,1.14.27,2.81,1.18,1.46.76,1.78,1.08,1.78,1.57a3.49,3.49,0,0,1-.11.65,28.84,28.84,0,0,0-.43,6.21c0,.92.06,2.16.11,3.78.05,1.19.11,2.43.11,2.48a10.5,10.5,0,0,0,.11,2,4.14,4.14,0,0,1,0,.7,1.25,1.25,0,0,1-1.13,1.29c-1.3,0-3-1.51-3-2.59a1.85,1.85,0,0,1,.06-.54,58.94,58.94,0,0,0,.27-6.91c0-4.43-.11-5.94-.6-6.75a2.51,2.51,0,0,0-2.37-1.4.76.76,0,0,0-.33,0Zm15.44-2.38a.24.24,0,0,1-.16.06.52.52,0,0,1-.43-.49c0-.48,2.32-1.56,3.4-1.56,1.57,0,5.08,2.32,5.08,3.34,0,.22-.06.38-.38.92-.43.81-.54,1-.65,1.19s0,.65-.11,2c0,4.32-.27,11.18-.54,13-1.08,7.67-6.15,13.55-14.36,16.63-3.51,1.35-5.51,1.94-6.26,1.94-.38,0-.87-.26-.87-.54s.16-.21.7-.37a30.18,30.18,0,0,0,10.59-6c5.78-5.88,7-9.77,7-23.33l.06-2.26c0-2.7-1.08-4.49-2.76-4.49Z"/><path class="cls-1" d="M319.19,88.52a11,11,0,0,1-2.48.37c-1.57,0-4.32-1.67-4.75-2.91a15.61,15.61,0,0,1-.38-3c0-.37.16-.64.43-.64s.27.1.43.37c.71,1.57,2,2.11,5.13,2.11a253.3,253.3,0,0,0,31.22-2.21,12.58,12.58,0,0,1,1.45-.11,3.65,3.65,0,0,1,2.87,1.19c1,1,1.4,1.51,1.4,2,0,.81-1.08,1.3-2.81,1.3-.43,0-1,0-2,0-1.18-.11-5.56-.17-7.83-.17C334.42,86.73,323.41,87.6,319.19,88.52Z"/></g></g></svg>