<svg xmlns="http://www.w3.org/2000/svg" viewBox="0 0 695.51 80.54"><path d="M29.51,2.34H46.27L47.38.79l2.23,2a.93.93,0,0,1,.25.54.57.57,0,0,1-.39.47l-.72.32V10a.71.71,0,0,1-.36.72,2.46,2.46,0,0,1-1.26.39c-.32,0-.54-.18-.54-.43v-2H40c2.37,3.56,8.48,6.62,14.34,7.19a9.62,9.62,0,0,0-2.84,2.77,24.83,24.83,0,0,1-6.26-3.09V27.07c0,.47-.86.93-1.68.93-.33,0-.47-.21-.47-.64V26.24H31.6v1.37c0,.68-.58,1.08-1.62,1.08-.32,0-.47-.15-.47-.58V13.37l2.81,1.69H42.74l.69-.93a17.9,17.9,0,0,1-4.35-5.47H29c-.22,5-1.23,7.59-4.46,11.36-1.3,1.51-2.55,2.66-2.91,2.66-.18,0-.29-.1-.29-.25s.11-.36.65-.93a20,20,0,0,0,4-7.41,27.2,27.2,0,0,0,.82-7.73c0-1.15-.07-3.12-.18-5.57ZM50.58,27.39l3.13,2.49a.67.67,0,0,1,.29.46.37.37,0,0,1-.34.4h-25c-1.76,0-3.17,0-6.69.18l-.36-1.26,3.85.14,3.2.08H48.17Zm-4-19.59V3.2H29V7.8ZM43.07,20.24V15.93H31.6v4.31Zm0,5.14V21.1H31.6v4.28Z" fill="#343434"/><path d="M72.55,17c.54-1.15.54-1.15.72-1.15a.28.28,0,0,1,.25.32,5.57,5.57,0,0,1-.25.79,31.56,31.56,0,0,0-2.13,9.64,5.29,5.29,0,0,0,.51,2.48,1.41,1.41,0,0,1,.18.57,1.27,1.27,0,0,1-1.08,1.19A3.38,3.38,0,0,1,68.34,29c-1.15-2-1.65-4.35-1.65-8a41.74,41.74,0,0,1,1.76-10.93,12.25,12.25,0,0,0,.61-3.6,3.31,3.31,0,0,0-1.26-3c-.07-.08-.11-.11-.11-.18a.2.2,0,0,1,.22-.18h0a5.3,5.3,0,0,1,2.8,1.47,4,4,0,0,1,1.15,2.55,6.31,6.31,0,0,1-.68,2.52c-2.16,5.14-2.84,7.8-2.84,11.25,0,2.37.4,4.21.86,4.21.25,0,.47-.36.83-1.44.22-.58.39-1,.47-1.29l.86-2.23Zm10-12.91h-.14A.15.15,0,0,1,82.3,4c0-.07.11-.18.47-.46a2.88,2.88,0,0,1,1.79-.83A4.38,4.38,0,0,1,87,4c.47.35.65.64.65,1a1.08,1.08,0,0,1-.11.4A4.63,4.63,0,0,0,87,7a4.29,4.29,0,0,0,3,1.29,3.11,3.11,0,0,0,.61,0,2.85,2.85,0,0,0,.47-.08,1.47,1.47,0,0,1,1.2,1c0,.51-.65,1.3-1.55,1.84a14,14,0,0,1-4,1.72,4.18,4.18,0,0,0,.07,1.12c0,.36.07,1.15.18,2.37.25,3.06.4,5.14.4,6.79,4.38,1.23,6.83,2.95,6.83,4.82A1.33,1.33,0,0,1,93,29.23h-.08a1.67,1.67,0,0,1-1.4-.9,13.09,13.09,0,0,0-4.1-3.63c-.5,3.13-2.55,4.78-6,4.78-3.13,0-5.47-1.55-5.47-3.63s2.45-3.52,6.11-3.52a16.33,16.33,0,0,1,3.27.32c0-1.15,0-1.62-.1-3.49-.18-3.2-.22-3.77-.26-6a30,30,0,0,1-5,.57,2.88,2.88,0,0,1-2.66-1.36,4.81,4.81,0,0,1-.54-2,.2.2,0,0,1,.18-.22h0c.11,0,.18.07.22.25.36.87,1.51,1.37,3.27,1.37a28.55,28.55,0,0,0,4.6-.52,53.82,53.82,0,0,0-.18-5.39,1.9,1.9,0,0,0-2-1.73Zm-.61,19.42c-2.55,0-4.32.93-4.32,2.26,0,1,1.08,1.66,2.74,1.66,3.27,0,4.45-.9,4.81-3.53a16.82,16.82,0,0,0-3.24-.35Zm4.78-12.62c1.4-.47,2.34-1,2.34-1.3,0-.1-.07-.21-.25-.35A23.76,23.76,0,0,1,87,7.44a19.4,19.4,0,0,0-.26,3.49Z" fill="#343434"/><path d="M111.37,5.82h8.23V.29l3.31.36a.76.76,0,0,1,.72.68c0,.22-.18.43-.54.72l-.86.65V5.82h9.45l2.48-2.62,3.17,2.55a.76.76,0,0,1,.14.43c0,.26-.14.47-.32.47H110.69c0,2.23.07,3.74.07,4.57,0,9.63-.54,12.79-2.8,16.53-1.26,2.05-3.56,4.71-4.07,4.71a.32.32,0,0,1-.32-.28c0-.15,0-.15.9-1.48,2.84-4.35,3.81-8.48,3.81-16.39,0-2,0-2.45-.11-10.32ZM125,10a.71.71,0,0,1,.43.57c0,.26-.25.54-.64.76l-.72.36c-1.94,4.85-2.95,7.12-6.87,15.6,3.09-.07,10.07-.58,13.12-1a23,23,0,0,0-6.25-7.19l.25-.54c6.43,3.06,10.82,7.69,10.82,11.43a1.59,1.59,0,0,1-1.47,1.69h-.11a1.1,1.1,0,0,1-.79-.32,11,11,0,0,1-1.22-2.59,10.8,10.8,0,0,0-.69-1.51c-7.8,1.44-10,1.76-17.25,2.73l-.4.58a1.43,1.43,0,0,1-.9.65.81.81,0,0,1-.57-.36l-2.16-3.49h2.59c.65,0,2,0,3.66-.07a92.75,92.75,0,0,0,5.4-18.69Z" fill="#343434"/><path d="M154.4,11.36c-1.29,0-1.33,0-6.65.18l-.43-1.22c3.85.14,5.39.18,7.08.18h6.08c.07-1.22.11-2.34.11-2.77,0-1.08,0-1.08-.08-5.43L160.44,0l3.81.46a.73.73,0,0,1,.69.69c0,.25-.15.46-.54.75l-1,.76c-.07,3.7-.11,4.27-.36,7.8h9.78L175.33,8l3.09,2.48a.67.67,0,0,1,.25.53.37.37,0,0,1-.34.4H163.75a26.46,26.46,0,0,0,6.51,11,27.82,27.82,0,0,0,8.91,6,3.7,3.7,0,0,1-.43.25l-1.4.72A10.8,10.8,0,0,0,175.65,31C168.71,26.28,164.9,20.38,163,11.36c-.43,4.53-1,6.72-2.66,9.74a21.68,21.68,0,0,1-8.59,8.63A21.63,21.63,0,0,1,147,32.07a.32.32,0,0,1-.32-.32h0c0-.25,0-.25,1.94-1.4,7.51-5,10.75-10.21,11.86-19Z" fill="#343434"/><path d="M195.35,22.15c-1.19,2.15-1.65,2.62-2.81,2.62-1,0-1.65-.5-1.65-1.22a1.6,1.6,0,0,1,.65-1.15c2.12-1.76,6.15-8.63,7.4-12.59a15.59,15.59,0,0,1-3.59.54,3.49,3.49,0,0,1-3.13-2.12,6.13,6.13,0,0,1-.54-1.54.18.18,0,0,1,.16-.18h0c.07,0,.11,0,.15.11a3.81,3.81,0,0,0,3.41,1.79,18.74,18.74,0,0,0,4.14-.68,17.52,17.52,0,0,0,.61-4,1.67,1.67,0,0,0-1.46-1.84,1.93,1.93,0,0,0-.34,0c-.32,0-.4,0-.4-.18s1.23-.83,2-.83c1.33,0,2.59.8,2.59,1.66a7.18,7.18,0,0,1-.33,1.29c1.37.76,1.58.87,1.87,1A1.86,1.86,0,0,0,205,5a1.18,1.18,0,0,1,1.22,1c0,1.15-1.83,2.3-5.28,3.38A114,114,0,0,1,195.35,22.15ZM217,29a1.27,1.27,0,0,1-1.29,1.25h0a2,2,0,0,1-1.55-.9,12.64,12.64,0,0,0-4.06-3.27c0,3.74-1.58,5.36-5.29,5.36-3.41,0-5.68-1.54-5.68-3.92,0-2.55,2.38-4.06,6.3-4.06a14.24,14.24,0,0,1,2.44.18V19.07c0-3.63,1.54-5.5,5.5-6.54.5-.14.75-.32.75-.65,0-.9-1.79-1.69-3.74-1.69a5.53,5.53,0,0,0-1.76.22.34.34,0,0,1-.43-.29c0-.47,2-1.08,3.49-1.08,3.27,0,6,1.83,6,4,0,.68-.32,1-.9,1a1.6,1.6,0,0,1-.57-.15,8,8,0,0,0-2.37-.39c-2.77,0-4.21,1.37-4.21,4a29.78,29.78,0,0,0,.25,3.13,25.55,25.55,0,0,1,.29,3.38C214.44,25.52,217,27.36,217,29Zm-12.81-4.3c-2.12,0-3.56,1.08-3.56,2.62,0,1.26,1.66,2.19,3.78,2.19s3.09-.89,3.34-2.76a8.92,8.92,0,0,0,.07-1.37A8.88,8.88,0,0,0,204.19,24.7Zm-.43-19c0-.22-.36-.54-1.62-1.44-.28,1.3-.39,1.69-.75,3,1.61-.68,2.37-1.18,2.37-1.58Z" fill="#343434"/><path d="M235.07,20.1c-.32,0-1.08,0-2.19.07h-2.26L230.18,19c2.63.11,3.81.15,4.82.18h2.3V14.1l2.7.21a.76.76,0,0,1,.83.69,1,1,0,0,1-.54.75l-.83.4V19.2h1.44l1.65-2.2L245,19a1.09,1.09,0,0,1,.43.72.47.47,0,0,1-.43.43h-5.5v2.19a12.91,12.91,0,0,1,3.5,1.28,3.21,3.21,0,0,1,1.83,2.62,1.3,1.3,0,0,1-1.22,1.3,1.4,1.4,0,0,1-.76-.29,15.82,15.82,0,0,1-1.11-1.8,5.81,5.81,0,0,0-2.3-2.15v8.05c0,.54-.79,1-1.73,1-.32,0-.43-.18-.43-.58V23.4a31,31,0,0,1-4.64,4.93,7.89,7.89,0,0,1-2.76,1.83.36.36,0,0,1-.36-.36h0c0-.18.18-.39.86-.93a28.92,28.92,0,0,0,6.29-8.77Zm4-14.6-3.42.11c-.43,0-1.72,0-3.12.07L232,4.42c1.65.07,3,.11,3.52.11,1.76.07,3,.11,3.56.11H245V0l2.59.11c.5,0,.75.21.75.61a.85.85,0,0,1-.28.65l-.87.68V4.64h8.63l1.94-2.27,2.56,2a1.08,1.08,0,0,1,.46.68c0,.29-.18.43-.57.43h-12.4c3.73,3.52,7.87,5.46,14,6.54a6.94,6.94,0,0,0-2.44,2.77c-5.61-2.23-9.31-4.89-12.23-8.81V15c0,.51-.71.9-1.69.9-.36,0-.5-.18-.5-.54V6.94a44.42,44.42,0,0,1-9.2,6.22,27.88,27.88,0,0,1-4.68,2.15.3.3,0,0,1-.28-.28c0-.18.36-.43,2.69-1.76A35,35,0,0,0,243,5.5ZM247,20.2l-.35-1.11c3.59.14,3.77.14,4.81.14h1V14.42l3,.18a.61.61,0,0,1,.61.5.89.89,0,0,1-.46.68l-1,.58v2.87h3.06l1.9-2.19,2.57,2a.83.83,0,0,1,.4.65.44.44,0,0,1-.41.47H254.7c1.15,2.84,4.28,5.6,8.59,7.51a5.87,5.87,0,0,0-2.44,2.27,19.41,19.41,0,0,1-6.22-7.9v9.56q0,.75-1.62.75c-.32,0-.47-.14-.47-.5V22.9a46.67,46.67,0,0,1-5.5,5.39c-2,1.66-3.37,2.63-3.73,2.63a.33.33,0,0,1-.29-.33c0-.14,0-.14,1.18-1.15a49.66,49.66,0,0,0,7.7-9.34Z" fill="#343434"/><path d="M286.66,17.65a7.72,7.72,0,0,1-1.58-5.36c0-1,.11-3.52.21-5.6V5.57c0-1.94-.83-2.69-2.88-2.69a1.55,1.55,0,0,0-.43,0h0c-.21,0-.32-.07-.32-.18,0-.46,1.76-1,3.23-1a6.21,6.21,0,0,1,3,.86,1.76,1.76,0,0,1,.82,1.62,7.48,7.48,0,0,1-.43,2.09,34.34,34.34,0,0,0-1.22,8c0,1.4.43,2.41,1.08,2.41a12.63,12.63,0,0,0,3.63-2c.43-.36.61-.43.93-.43,1,0,2.38.9,2.38,1.58s-.54.9-1.84,1.3a36.82,36.82,0,0,1-4.42.9,8,8,0,0,0-3,1.22c-2.66,1.54-4,3.56-4,5.93,0,2.55,2.08,3.81,6.25,3.81a24.54,24.54,0,0,0,7.45-1.33,2,2,0,0,1,.86-.25,2.4,2.4,0,0,1,2.05,2,1,1,0,0,1-.65.83c-1.26.58-4.56,1-7.62,1a19.25,19.25,0,0,1-6.9-1,5.25,5.25,0,0,1-3.56-4.78c0-2.77,2.66-5.75,6.65-7.55Z" fill="#343434"/><path d="M322.25,13.41V10.93A2.9,2.9,0,0,0,319.91,8c-.18-.07-.28-.14-.28-.21a4.23,4.23,0,0,1,1.87-.51c.79,0,1.58.4,2.94,1.4a5.58,5.58,0,0,0,.69.51c.43.29.57.43.57.61s0,.11-.21.47a6.52,6.52,0,0,0-.72,2.73c-.29,2.87-.43,5.1-.43,6.72,0,2.48.1,2.84.82,2.84,1.51,0,4.89-1.72,8.41-4.31A53.4,53.4,0,0,0,344,8.2c.32-.47.43-.54.54-.54s.32.25.32.43a12.66,12.66,0,0,1-1.4,2.52,40.87,40.87,0,0,1-8,8.66,40.27,40.27,0,0,1-8.12,5.28,7.69,7.69,0,0,0-2.41,1.66c-.32.36-.54.5-.68.5a6.1,6.1,0,0,1-1.51-1,2.68,2.68,0,0,1-1.08-1.4,1.44,1.44,0,0,1,.14-.54,4.77,4.77,0,0,0,.47-2Z" fill="#343434"/><path d="M362.44,18.87a7.1,7.1,0,0,1-1.65.26,4.41,4.41,0,0,1-3.17-1.95,10.42,10.42,0,0,1-.25-2c0-.25.11-.43.29-.43s.18.07.29.25c.47,1,1.33,1.4,3.41,1.4a168,168,0,0,0,20.78-1.47,8.4,8.4,0,0,1,1-.07,2.47,2.47,0,0,1,1.91.79c.68.65.93,1,.93,1.33,0,.54-.72.86-1.87.86h-1.33c-.65,0-3.7-.11-5.21-.11A98.24,98.24,0,0,0,362.44,18.87Z" fill="#343434"/><path d="M405.9,13.27c1.37.89,2,1.72,2,2.8a1.51,1.51,0,0,1-1.44,1.47,1.27,1.27,0,0,1-1.22-.86,8.24,8.24,0,0,0-4.53-4c-.21-.07-.32-.14-.32-.25s.57-.36,1.29-.36A8.8,8.8,0,0,1,405.9,13.27Zm-.43,15a5,5,0,0,1-2.76-1.8,3.78,3.78,0,0,1-1-2.12c0-.25,0-.51,0-.76s.11-.54.32-.54.18,0,.47.47a2.65,2.65,0,0,0,2.5,1.36c1.22,0,3.42-1,6.19-2.77a73.64,73.64,0,0,0,11-9.49A35.33,35.33,0,0,0,426,7.84c.29-.43.43-.58.57-.58s.26.22.26.4c0,.68-1.77,3.7-3.53,6a52.23,52.23,0,0,1-15.49,13.19c-1.19.69-1.69,1-1.76,1a.87.87,0,0,1-.62.41Zm4.75-21.68c1.36.83,2,1.72,2,2.88a1.61,1.61,0,0,1-1.54,1.68h0c-.61,0-.83-.18-1.23-1a8,8,0,0,0-5.28-4.06c-.25,0-.36-.07-.36-.21,0-.29.65-.47,1.72-.47a10.5,10.5,0,0,1,4.69,1.17Z" fill="#343434"/><path d="M452.42,11.14A1.51,1.51,0,0,1,451,12.7h-.21c-.47,0-.72-.18-1.08-.83a7.94,7.94,0,0,0-5.54-4.42c-.21-.07-.32-.14-.32-.25s.65-.43,1.69-.43C449,6.76,452.42,9,452.42,11.14Zm-4.67,16a5.4,5.4,0,0,1-2.59-1.87,2.68,2.68,0,0,1-.9-2.27c0-.68.18-1.22.43-1.22s.22.07.29.25a2.55,2.55,0,0,0,2.16,1.83c1.47,0,5.82-2.69,11-6.83a71,71,0,0,0,6.73-6c.72-.72,2.66-2.95,3-3.38s.43-.57.61-.57a.29.29,0,0,1,.29.29v0c0,.58-1.59,3-3.38,5.21a55.44,55.44,0,0,1-7.7,7.77,55,55,0,0,1-8.55,5.89c-.64.58-1,.84-1.39.84Z" fill="#343434"/><path d="M505.38,11.68a.65.65,0,0,0-.29.11c-3.06,5.47-3.06,5.47-4.71,7.59a32.23,32.23,0,0,1-9.74,8.41c-2.34,1.29-6.44,3.06-7.19,3.06-.22,0-.36-.18-.36-.44s.07-.25.75-.57a37.83,37.83,0,0,0,11.08-7.66,34,34,0,0,0,6.25-8.34,7,7,0,0,0,1.12-2.7.81.81,0,0,0-.83-.79h0a5.05,5.05,0,0,0-.68.08c-.18,0-.9.18-1.66.28s-1.15.18-1.37.22A3.81,3.81,0,0,1,497,11a2.62,2.62,0,0,1-1.4-.51l-.11-.07a30.45,30.45,0,0,1-5.64,6.4C488.19,18.33,485.6,20,485,20c-.21,0-.39-.11-.39-.25s.07-.25,1-.9A23,23,0,0,0,491.28,13c1.77-2.48,2.59-4.24,2.59-5.54a2.25,2.25,0,0,0-1.29-2.26.27.27,0,0,1-.25-.22,1.21,1.21,0,0,1,.93-.32,4.13,4.13,0,0,1,2.52.93c1.29.83,1.58,1.12,1.58,1.62,0,.25,0,.25-.5.83A7.44,7.44,0,0,0,496,9.69a1.22,1.22,0,0,0,.9.25,22,22,0,0,0,4.32-.82,11.3,11.3,0,0,0,1.36-.65c.61-.4.83-.47,1.05-.47.39,0,.79.25,2.08,1.33,1.08.9,1.22,1,1.22,1.37s0,.32-1,.79Zm2.55-6.25a1.28,1.28,0,0,1-1.15,1.22c-.5,0-.68-.14-1.08-.83A6.83,6.83,0,0,0,502.36,3c-.25-.07-.33-.11-.33-.18a2,2,0,0,1,1.08-.29C505.52,2.55,507.93,4,507.93,5.43ZM512,3.7a1.29,1.29,0,0,1-1.19,1.23c-.54,0-.72-.15-1.11-.9a6.84,6.84,0,0,0-3.42-2.81c-.21-.07-.29-.1-.29-.18a1.63,1.63,0,0,1,1.12-.29C509.58.75,512,2.23,512,3.7Z" fill="#343434"/><path d="M544.35,14.85a8.37,8.37,0,0,0,.18-1c.07-.5.14-.86.14-1a4.18,4.18,0,0,0,.11-.79c0-.61-.61-1-1.58-1a116.77,116.77,0,0,0-11.9,2,6.74,6.74,0,0,1-1.73.29c-.65,0-1-.22-2.34-1.37a2,2,0,0,1-.64-1.62c0-.64.1-.86.36-.86s.18,0,.21.18c.29.9,1.26,1.26,3.52,1.26a72,72,0,0,0,9.82-1c.75-.15,1.4-.22,1.62-.25a7.15,7.15,0,0,0,2.73-.9c.5-.25.57-.29.83-.29s.86.29,2.12,1.26,1.47,1.29,1.47,1.65c0,.15-.14.33-.36.51-1.15.61-1.9,2.51-3.81,9.74l.94-.07c1.11.46,1.83,1.11,1.83,1.69,0,.43-.25.75-.58.75a1.43,1.43,0,0,1-.29,0,18.09,18.09,0,0,0-3.88-.5A40.66,40.66,0,0,0,532,25.09a4.33,4.33,0,0,1-1.58.4c-.54,0-1-.32-2.2-1.48a2.93,2.93,0,0,1-1-1.47.25.25,0,0,1,.25-.25h0c.1,0,.1,0,.32.14a7.82,7.82,0,0,0,2.62.47,7.41,7.41,0,0,0,1.05-.07,19.91,19.91,0,0,0,2.22-.15c1.91-.14,3.28-.25,4-.32,1.26-.14,2.55-.29,3.81-.39l1.65-.18Z" fill="#343434"/><path d="M571,18.87a7.18,7.18,0,0,1-1.66.26,4.37,4.37,0,0,1-3.16-1.95,10.42,10.42,0,0,1-.25-2c0-.25.11-.43.29-.43s.18.07.29.25c.46,1,1.33,1.4,3.41,1.4a168,168,0,0,0,20.78-1.47,8.4,8.4,0,0,1,1-.07,2.47,2.47,0,0,1,1.91.79c.68.65.93,1,.93,1.33,0,.54-.72.86-1.87.86h-1.33c-.65,0-3.7-.11-5.21-.11A98.24,98.24,0,0,0,571,18.87Z" fill="#343434"/><path d="M630.34,20.13c2.08,1.66,3.2,3.38,3.2,5A1.72,1.72,0,0,1,632,27c-.71,0-1.18-.46-1.65-1.69a14.36,14.36,0,0,0-7.48-8,29.42,29.42,0,0,1-10.74,9.13,20.24,20.24,0,0,1-4.75,1.87c-.25,0-.54-.22-.54-.43s.11-.22.68-.43c3.45-1.33,8-4.68,11.15-8.27a33.86,33.86,0,0,0,5-7.69A11.06,11.06,0,0,0,625,8.21c0-.32-.25-.53-.64-.53a39.58,39.58,0,0,0-8.56,2.26c-.61.25-.65.25-.79.25-.32,0-.36,0-1.51-.86a1.76,1.76,0,0,1-.93-1.73c0-.68.1-1,.36-1,.07,0,.14.08.18.18.21.54,1.29.94,2.55.94a58.19,58.19,0,0,0,6.94-1.08,7.71,7.71,0,0,0,2.87-1.19,1,1,0,0,1,.58-.21c.36,0,.79.25,2.15,1.29,1,.76,1.15.94,1.15,1.22s-.1.26-.43.47-.36.25-.75.54a51.89,51.89,0,0,1-4.82,7.91A16.46,16.46,0,0,1,630.34,20.13Z" fill="#343434"/><path d="M647.3,23.73c4.39,1,7.34,3.3,7.34,5.68a1.79,1.79,0,0,1-1.68,1.9h-.05a1.57,1.57,0,0,1-1.15-.5c-.28-.36-.28-.36-.72-1.94-.72-2.23-1.36-3-4-4.64Z" fill="#343434"/><path d="M6.29,54c-1.22,0-1.36,0-5.53.14L0,53l3.41.1c1.22,0,2.27.08,2.84.08h8.92V47.54l3.2.36a.69.69,0,0,1,.64.68c0,.25-.1.43-.46.65l-.9.61v3.31h9.74l2.23-2.34,2.95,2a.81.81,0,0,1,.32.68.51.51,0,0,1-.48.54H18.91l1.15.72a.7.7,0,0,1,.29.57.84.84,0,0,1-.58.72l-.64.18-1,2.37H25.5l1-1.43,2.3,1.76c.43.36.61.61.61.9a.79.79,0,0,1-.57.68l-.87.4a39.2,39.2,0,0,1-5.82,10.9c2.85,2.2,6.5,3.6,11.54,4.61a6.25,6.25,0,0,0-3.31,2.76,33.57,33.57,0,0,1-9.64-5.71,21.38,21.38,0,0,1-6.36,4.81,23.56,23.56,0,0,1-4.75,2A.32.32,0,0,1,9.31,80c0-.15.11-.29.4-.43A26.49,26.49,0,0,0,19.27,72a26.1,26.1,0,0,1-4.39-7.3c-1.9,3.06-4.81,6.4-5.57,6.4A.34.34,0,0,1,9,70.83a.71.71,0,0,1,.25-.5A39.7,39.7,0,0,0,16.82,54H9.53l1.58.86a.75.75,0,0,1,.47.65.91.91,0,0,1-.62.75l-.82.43a8.41,8.41,0,0,1-.47,1c-.67,1.6-1.11,2.64-1.26,2.93s-.43.9-.79,1.66l.72.32a.58.58,0,0,1,.4.5.73.73,0,0,1-.29.54l-.61.47V79.5c0,.32-.11.46-.51.64a5.54,5.54,0,0,1-1.43.4c-.26,0-.4-.14-.4-.47V65.62C3.42,68.46.79,71.19.22,71.19A.23.23,0,0,1,0,71c0-.18.29-.58,1.11-1.55A41.73,41.73,0,0,0,8,54Zm11.47,5.43-.83,1.65c3.63,1.08,5.43,2.45,5.43,4.17a1.4,1.4,0,0,1-1.27,1.52H21c-.62,0-.83-.22-1.55-1.83a5.81,5.81,0,0,0-2.88-3.13L16,62.89l-.43.79a19.23,19.23,0,0,0,4.82,6.9A35.38,35.38,0,0,0,25.6,59.44Z" fill="#343434"/><path d="M51.7,65c.53-1.15.53-1.15.71-1.15a.3.3,0,0,1,.26.33,5.61,5.61,0,0,1-.26.79,31.55,31.55,0,0,0-2.12,9.63,5.29,5.29,0,0,0,.51,2.48,1.51,1.51,0,0,1,.18.58,1.28,1.28,0,0,1-1.08,1.18A3.36,3.36,0,0,1,47.49,77c-1.15-2-1.65-4.35-1.65-8A42,42,0,0,1,47.6,58a12.58,12.58,0,0,0,.61-3.6,3.34,3.34,0,0,0-1.26-3c-.07-.07-.11-.11-.11-.18a.2.2,0,0,1,.22-.18h0a5.4,5.4,0,0,1,2.8,1.47A4,4,0,0,1,51,55a6.31,6.31,0,0,1-.68,2.52c-2.16,5.14-2.84,7.8-2.84,11.25,0,2.38.39,4.21.86,4.21.25,0,.47-.36.83-1.44.21-.57.39-1,.47-1.29L50.51,68Zm10-12.9h-.14a.16.16,0,0,1-.11-.1c0-.08.11-.18.47-.47a2.88,2.88,0,0,1,1.79-.83,4.48,4.48,0,0,1,2.48,1.19c.47.36.65.64.65,1a1.14,1.14,0,0,1-.11.4,4.86,4.86,0,0,0-.5,1.58,4.2,4.2,0,0,0,3,1.3,3.11,3.11,0,0,0,.61,0,3.81,3.81,0,0,1,.47-.07,1.46,1.46,0,0,1,1.19,1.08c0,.5-.65,1.29-1.55,1.83a14.35,14.35,0,0,1-4,1.73A4.09,4.09,0,0,0,66,61.85c0,.36.07,1.15.18,2.37.25,3.06.39,5.14.39,6.8C71,72.24,73.42,74,73.42,75.83a1.32,1.32,0,0,1-1.27,1.37h-.09a1.67,1.67,0,0,1-1.4-.9,13.09,13.09,0,0,0-4.1-3.63c-.5,3.13-2.55,4.78-6,4.78-3.13,0-5.47-1.54-5.47-3.63s2.45-3.52,6.11-3.52a16.33,16.33,0,0,1,3.27.32c0-1.15,0-1.62-.1-3.49-.18-3.2-.22-3.77-.26-6a29,29,0,0,1-5,.58,2.89,2.89,0,0,1-2.66-1.37,4.81,4.81,0,0,1-.54-2,.2.2,0,0,1,.18-.22h0c.11,0,.18.08.22.26.36.86,1.51,1.36,3.27,1.36a27.87,27.87,0,0,0,4.56-.47A52.7,52.7,0,0,0,64,53.79a1.89,1.89,0,0,0-2-1.72Zm-.61,19.41c-2.55,0-4.32.93-4.32,2.26,0,1,1.08,1.66,2.74,1.66,3.27,0,4.45-.9,4.81-3.52a16.08,16.08,0,0,0-3.24-.43Zm4.78-12.62c1.4-.47,2.34-1,2.34-1.29,0-.11-.08-.22-.26-.36-.43-.36-1.07-1-1.83-1.8a19.55,19.55,0,0,0-.26,3.42Z" fill="#343434"/><path d="M83.83,69.75l2.81.29L93.18,55.3l.72.25L89,69.93a4.86,4.86,0,0,0-.39,1.84A23.62,23.62,0,0,0,89.26,77a2.44,2.44,0,0,1,0,.54,1.85,1.85,0,0,1-1.62,2A1.72,1.72,0,0,1,86,77.75a19.58,19.58,0,0,1,.25-2A9.37,9.37,0,0,0,86.46,74c0-1.55-.43-2.55-1.26-3.06a3.54,3.54,0,0,0-.9-.25,3.39,3.39,0,0,1-.61-.21Zm.26-12.9h.25a6.65,6.65,0,0,1,3.34,1.44,3.42,3.42,0,0,1,1.37,2.62,1.58,1.58,0,0,1-1.38,1.76h0a1.12,1.12,0,0,1-1-.57,11.72,11.72,0,0,1-.58-2,4.48,4.48,0,0,0-2-2.87Zm1.72-8c3.27.33,5.72,2.16,5.72,4.25a1.49,1.49,0,0,1-1.25,1.71,1.32,1.32,0,0,1-.28,0c-.72,0-.72,0-1.73-2.66a6.47,6.47,0,0,0-2.73-2.87Zm13.41-1,2.66.33c.5,0,.76.25.76.57s-.18.54-.62.79l-.61.33v2.94h4.89v-5L109,48c.51,0,.83.29.83.65s-.21.57-.61.75l-.75.36v3h3.55l1.87-2.22,2.84,2a.82.82,0,0,1,.36.62.45.45,0,0,1-.43.43H108.5v4.49H111L112.69,56l2.44,1.68a1,1,0,0,1,.4.72A.54.54,0,0,1,115,59H105V62.6h7.12l1-1.4,2,1.87a1.06,1.06,0,0,1,.36.68q0,.39-.54.54l-.39.11V77.92a2.2,2.2,0,0,1-2.23,2c-.47,0-.65-.18-.69-.72s-.07-.64-.79-.93l-2.55-.9v-.5h3.52c.47,0,.51-.11.54-.72V63.61H105v8.12h3.09V66.09l2,.11c.61,0,.9.25.9.64a.93.93,0,0,1-.5.72l-.47.25v6.76c0,.65-.57,1-1.51,1-.32,0-.47-.18-.47-.51V72.59h-8v3.6c0,.36-1,.83-1.69.83-.22,0-.36-.18-.36-.51V66l2.19.11c.61,0,.9.25.9.61a1,1,0,0,1-.47.72l-.57.39v3.92h2.73V63.61H95.55V78.92c0,.54-.1.72-.57.94a2.5,2.5,0,0,1-1,.28c-.36,0-.5-.18-.5-.54V61.52l2.91,1.22h6.4V59.11H98.72c-1.15,0-1.26,0-4.42.11l-.4-1.11c2.44.1,3.52.14,4.82.14h.5V53.76H97c-1.76,0-2.34,0-4.42.1l-.4-1.11,2.77.11h4.23Zm7.08,10.32V53.76h-4.89v4.49Z" fill="#343434"/><path d="M154.44,49.44l3.13,2.41a.56.56,0,0,1,.21.47c0,.32-.14.5-.39.5H142.5a78.09,78.09,0,0,1-.39,8.38h7.8l2.23-2.37L155.05,61a.65.65,0,0,1,.29.54c0,.29-.18.54-.4.54H143c2.08,6,7.94,11.18,15.6,13.91a7.29,7.29,0,0,0-3.31,2.7A24.78,24.78,0,0,1,142,62.06h-.11a22.72,22.72,0,0,1-1.48,5.79c-1.79,4.49-4.63,7.37-9.52,9.78a16.41,16.41,0,0,1-4.24,1.47.33.33,0,0,1-.36-.3v0c0-.25.28-.51.86-.72,7.51-3.63,10.93-8.16,12.08-16h-4.75c-.72,0-1.79,0-5.64.18L128.3,61c3.28.14,4.61.18,6.22.18h4.86a36,36,0,0,0,.39-6.22V52.8h-7c-1.58,0-3,0-6.51.18l-.57-1.26c3.52.18,5.1.22,7.08.22H152Z" fill="#343434"/><path d="M184.31,54.66a35,35,0,0,1,.51,4.34,19.72,19.72,0,0,1-4.39,11.44c-2.08,2.69-4,4-5.9,4a3.23,3.23,0,0,1-2.48-1.36,8.42,8.42,0,0,1-1.87-5.68c0-7.62,6.62-13.88,14.67-13.88,7.12,0,12.08,4.46,12.08,10.86,0,5.71-3.38,10.35-9.06,12.4A22.14,22.14,0,0,1,183,78c-.25,0-.47-.18-.47-.33s.11-.14.61-.28a16.31,16.31,0,0,0,6.8-3.56,13.16,13.16,0,0,0,4.09-10c0-3.31-1-5.76-3.09-7.3a9.25,9.25,0,0,0-5.57-1.87Zm-1.43.14a12.79,12.79,0,0,0-10.54,12.73c0,2.66,1,4.67,2.37,4.67,1.55,0,4.43-2.91,6.19-6.26a22.73,22.73,0,0,0,2.51-8.48A7.1,7.1,0,0,0,183,55Z" fill="#343434"/><path d="M224.07,73h-2.84l-2.8.07-3,.07L215,72c4.39.14,5.47.14,6.22.18h2.84v-5H217.3a27,27,0,0,1-5.57,5.72,2.05,2.05,0,0,1-.9.5.26.26,0,0,1-.28-.24v-.05c0-.14.07-.28.28-.54a26.13,26.13,0,0,0,6.47-10.82l2.77,1.08c.4.15.65.4.65.65s-.22.47-.65.57l-.79.26c-.57.89-.68,1-1.36,2h6.14v-5.2l2.81.18c.54.07.86.28.86.68a.71.71,0,0,1-.43.65l-.86.43v3.27h7.47L236,64.18l2.34,1.94c.47.4.57.51.57.72s-.18.36-.57.36H226.45v4.93h5.86L234.17,70l2.27,1.83c.39.33.61.61.61.79s-.32.4-.86.4h-9.74v5h10l2.08-2.34,2.95,2.45a.66.66,0,0,1,.29.47c0,.18-.15.28-.4.28H216.16c-.39,0-1.51,0-3.12.08-.51,0-2,.07-3.53.1l-.43-1.25c1.8.07,3.38.1,4,.1,1.58.08,2.69.11,3.12.11h7.91Zm-6.72-22.9h15.93l1-1.62,2.3,2.23a1,1,0,0,1,.32.61.62.62,0,0,1-.5.54l-.65.22V61.5c0,.43-1,1.07-1.69,1.07a.56.56,0,0,1-.57-.55V60.6H216.85v.9c0,.54-.79,1-1.69,1-.4,0-.54-.18-.54-.57V48.62Zm16.11,4.71V51H216.85v3.8Zm0,4.89v-4H216.85v4Z" fill="#343434"/><path d="M270.48,59.72a8.28,8.28,0,0,1,5.36-2.3c2.55,0,4.53,1.51,4.53,3.46a2.15,2.15,0,0,1-.93,1.9c-.76.58-1,.65-4.32,2a63.28,63.28,0,0,0-7.69,3.48c.11,1.59.18,2.74.18,3.31,0,1.8-.36,2.27-1.8,2.27-.43,0-.65-.15-.65-.36a.71.71,0,0,1,0-.29,27.93,27.93,0,0,0,.18-3.88c-3.09,1.83-4.35,3.27-4.35,4.89,0,1.79,1.69,2.51,5.89,2.51a20.12,20.12,0,0,0,5.29-.65,2.94,2.94,0,0,1,.93-.17,1.92,1.92,0,0,1,1.73,1.47c0,1.19-2.37,1.8-7.26,1.8a11.84,11.84,0,0,1-5.86-1.08,4.27,4.27,0,0,1-2.48-3.67A4.55,4.55,0,0,1,261.1,71a25.75,25.75,0,0,1,4.24-2.77,13.82,13.82,0,0,0-.46-4.53,1.88,1.88,0,0,0-1.69-1.25,4.23,4.23,0,0,0-2.56,1.33,21.58,21.58,0,0,0-3.09,3.84c-.39.69-.79,1-1.19,1s-1.25-1.19-1.25-2.12c0-.47.14-.72.86-1.26,3.88-3.38,6.25-6.87,6.94-10.21a10.79,10.79,0,0,1-3.13.61,2.24,2.24,0,0,1-1.87-1.29,4.89,4.89,0,0,1-.54-1.37.15.15,0,0,1,.15-.14s.1,0,.18.14a2.26,2.26,0,0,0,2.12.94,9.59,9.59,0,0,0,3.27-.58,6.65,6.65,0,0,0,.11-1,1.7,1.7,0,0,0-1.46-1.92l-.23,0c-.15,0-.18,0-.18-.14,0-.32,1.22-.9,1.9-.9a2.47,2.47,0,0,1,2.37,2.12,5.3,5.3,0,0,1-.28,1.37,5.29,5.29,0,0,0,2.3-1.22c1.22.61,1.58.86,1.58,1.15s-.79.75-4.21,1.76a41.17,41.17,0,0,1-4.1,7.66,5.68,5.68,0,0,1,2.38-.65,3.64,3.64,0,0,1,2.3.82,5.31,5.31,0,0,1,1.33,2.56A14.58,14.58,0,0,1,270.48,59.72ZM272,64.4a37.91,37.91,0,0,0,4.6-2.7,2,2,0,0,0,.72-1.26,2.16,2.16,0,0,0-2.19-1.79c-1.87,0-4.32,1.68-5.72,4a18.17,18.17,0,0,0-2.12,4.42C268.76,66.2,269,66.05,272,64.4Z" fill="#343434"/><path d="M309.42,54.66a33.14,33.14,0,0,1,.5,4.34,19.72,19.72,0,0,1-4.39,11.44c-2.08,2.69-4,4-5.89,4a3.23,3.23,0,0,1-2.48-1.36,8.36,8.36,0,0,1-1.87-5.68c0-7.62,6.61-13.88,14.67-13.88,7.11,0,12,4.48,12,10.88,0,5.71-3.38,10.35-9.06,12.4a21.71,21.71,0,0,1-4.89,1.2c-.25,0-.47-.18-.47-.33s.11-.14.61-.28a16.31,16.31,0,0,0,6.8-3.56,13.13,13.13,0,0,0,4.1-10c0-3.31-1-5.76-3.09-7.3a9.3,9.3,0,0,0-5.58-1.87ZM308,54.8a12.78,12.78,0,0,0-10.53,12.73c0,2.66,1,4.67,2.37,4.67,1.54,0,4.42-2.91,6.18-6.26a22.74,22.74,0,0,0,2.52-8.48,7,7,0,0,0-.47-2.48Z" fill="#343434"/><path d="M356.29,76.33a1.85,1.85,0,0,1,2,1.66c0,.93-.75,1.43-2.15,1.43a14,14,0,0,1-6.76-1.68,6.59,6.59,0,0,1-3.6-5.9c0-1.8.33-2.73,1.87-5.36A17.54,17.54,0,0,0,341,71c-.36.43-.61.58-.94.58-.57,0-.86-.69-.86-2.12,0-1,.18-1.33,1.9-3.17s1.84-1.94,5.29-5.86l3.77-4.1c.76-.86,1.26-1.43,1.37-1.51.86-.82,1-1.07,1-1.61s-.44-1.3-.94-1.3c-.32,0-.79.29-3.16,1.91s-2.73,1.83-3.27,1.83a2.4,2.4,0,0,1-2.05-2.33c0-1,.21-1.8.46-1.8s.15,0,.15.25a1.82,1.82,0,0,0,1.54,1.55,31.66,31.66,0,0,0,6.19-2.59,1.39,1.39,0,0,1,.82-.22c1.37,0,3.67,2.27,3.67,3.63,0,.61-.32,1-1.08,1.44a26.72,26.72,0,0,0-9.74,8,16.63,16.63,0,0,0-2.41,3.52c0,.11.22.22.43.22a2.4,2.4,0,0,0,.94-.29A68.86,68.86,0,0,1,354,63.21a34.33,34.33,0,0,1,5.18-1.36A2.59,2.59,0,0,1,360.93,63a3,3,0,0,1,.83,1.4c0,.29-.43.57-.94.57a7,7,0,0,1-.79-.07,15.5,15.5,0,0,0-2.26-.14,17.72,17.72,0,0,0-8.09,1.83,6.47,6.47,0,0,0-2.55,5.14c0,3,2.62,4.64,7.3,4.64.41,0,.81,0,1.22,0Zm7-18.87A1.32,1.32,0,0,1,362,58.72c-.36,0-.54-.18-.87-.79a6,6,0,0,0-3.48-2.77c-.22,0-.25-.07-.25-.18s.46-.25,1.22-.25c2.34,0,4.64,1.36,4.64,2.73Zm3-2.23A1.28,1.28,0,0,1,365,56.52h0c-.29,0-.43-.1-.61-.43A6.22,6.22,0,0,0,360.68,53c-.18-.08-.22-.11-.22-.18s.44-.26,1.19-.26C364,52.53,366.29,53.83,366.29,55.23Z" fill="#343434"/><path d="M385.63,53.83c0-2.37-.36-2.95-1.83-3-.29,0-.33,0-.33-.14s1.4-.94,2-.94a5.66,5.66,0,0,1,2.26.76,1.45,1.45,0,0,1,.75,1.07,3.5,3.5,0,0,1-.25,1,20.45,20.45,0,0,0-.61,3c1.62-.61,2.16-1,2.56-1.65,1.11.07,2.15.76,2.15,1.33,0,.32-.18.47-.86.79a25,25,0,0,1-4.21,1.55c-.25,1.87-.28,2.12-.54,3.92A1.63,1.63,0,0,1,388,63a24.46,24.46,0,0,1-1.15,4.53c-1,3.45-1.36,5.11-1.36,6.44,0,1.65,1.25,2.41,4.06,2.41a21.41,21.41,0,0,0,6.9-1.26c1.22-.58,1.69-1.44,1.69-3.17a59,59,0,0,0-.54-6.79c-.25-2.37-.36-4.1-.36-5.18,0-2.3.94-3.49,2.73-3.49,3.28,0,7.45,3.42,7.45,6.12,0,1.18-1,2.51-1.8,2.51-.15,0-.25-.07-.36-.25-.86-1-1.69-1.26-3.78-1.22-.28,0-.43-.07-.43-.25s0-.18.33-.22a1.6,1.6,0,0,0,.43-.11c.5-.07.9-.18,1.29-.25,1.12-.21,1.48-.47,1.48-1a6.07,6.07,0,0,0-4.79-4.46c-1,0-1.58.93-1.58,2.84a42.6,42.6,0,0,0,.9,8.12c.54,2.45,1,3.49,1.91,4.28a2,2,0,0,1,.18.83c0,1.15-.76,2.15-2.2,3a18.84,18.84,0,0,1-8.48,1.83c-4.6,0-6.8-1.4-6.8-4.35a17.94,17.94,0,0,1,.44-3,1.84,1.84,0,0,1-1.41.54c-1.4,0-2.3-1.65-2.3-4.17,0-3.41,1.94-6.14,4.35-6.14h.54c.07-1.62.11-1.87.18-3.2a17.71,17.71,0,0,1-4.67.9c-1.15,0-1.66-.29-2.05-1.15a6.55,6.55,0,0,1-.54-2.55c0-.18.07-.29.22-.29s.1,0,.18.18a2.47,2.47,0,0,0,2.58,2,17.88,17.88,0,0,0,4.35-.82,9.4,9.4,0,0,1,0-1.3ZM383,63.61a8.51,8.51,0,0,0-.83,3.74c0,1.4.54,2.37,1.3,2.37s1-.51,1.25-1.73c.29-1.54.69-4.17.69-4.49,0-.72-.25-1.15-.72-1.22S383.36,62.85,383,63.61Z" fill="#343434"/><path d="M425.64,51.92h8V47.61l2.91.36a.63.63,0,0,1,.61.61.83.83,0,0,1-.5.68l-.75.47v2.19h9.16l2.27-2.44L450,51.92a.77.77,0,0,1,.29.54c0,.25-.18.36-.61.36H437.29l1,.54c.25.11.36.25.36.4s-.11.25-.29.32l-.32.11c2.84,2.73,7.37,4.78,12.65,5.71a7.69,7.69,0,0,0-2.3,2.45c-5.36-2.16-8.16-4.14-11.14-7.77a43,43,0,0,1-8.85,7.05l1.37.72h3.7l.86-1.3,1.8,1.33a.83.83,0,0,1,.4.62.55.55,0,0,1-.33.46l-.43.22v7.55a1.42,1.42,0,0,1-.79,1.51,3.49,3.49,0,0,1-1.18.43c-.26,0-.29-.07-.51-.86A.46.46,0,0,0,433,72l-1.58-.61.1-.47h1.59c.61,0,.75-.14.75-.86V68.53h-4.42V72c0,.58-.58,1-1.4,1-.33,0-.47-.18-.47-.54V62a5.88,5.88,0,0,1-1.91.86.21.21,0,0,1-.21-.21h0c0-.18,0-.18,1.54-1.26a35.06,35.06,0,0,0,8.42-8.59H425.07V61.1c0,6.86-1,10.46-3.85,14.52-1.3,1.8-2.45,3.06-2.84,3.06a.33.33,0,0,1-.29-.26c0-.18,0-.18,1-1.72a21.9,21.9,0,0,0,3.45-10.57l-2.09,1.33-.36.79c-.18.47-.39.65-.68.65a.64.64,0,0,1-.5-.29l-1.51-2.19c2.26-.61,2.69-.76,5.28-1.62.07-2.27.11-3.24.11-4.82s0-1.94-.18-9.67Zm-8,2.91c2.48,1.41,3.77,3.17,3.77,5.18,0,1.08-.53,1.76-1.33,1.76S419,61.34,419,59.94a8.25,8.25,0,0,0-1.51-4.75Zm10.53,18.73a8.77,8.77,0,0,1,.22,1.62c0,2.09-1.48,4.28-2.88,4.28a1.14,1.14,0,0,1-1.18-1.1v0c0-.65.21-1,1.25-1.62a4.55,4.55,0,0,0,2.16-3ZM433.8,65V63.21h-4.42V65Zm0,2.63V65.91h-4.42v1.76Zm-.5,5.61a.66.66,0,0,1,.68.57.76.76,0,0,1-.36.61l-.68.47V77c0,.64.29.75,2.37.75,5.57,0,5.65,0,6-1.36L442,74h.5v2.77a1,1,0,0,0,0,.43,7.84,7.84,0,0,0,.61.54.76.76,0,0,1,.36.61c0,1-1.4,1.33-5.43,1.33a46.23,46.23,0,0,1-6-.22,1.37,1.37,0,0,1-1.19-1.36V73Zm-1.58-13.52H438L439.44,58l2.3,1.69a.5.5,0,0,1,.28.47c0,.25-.1.39-.36.39h-10Zm3.91,13a5.74,5.74,0,0,1,2.34,1,2.6,2.6,0,0,1,1.15,1.94A1.18,1.18,0,0,1,438,76.84a1,1,0,0,1-.65-.33,10.8,10.8,0,0,1-.68-1.65,5.1,5.1,0,0,0-1.18-1.76Zm5.47-9.6a.56.56,0,0,1,.5.54.72.72,0,0,1-.28.54l-.76.58v5c0,.54-.58.93-1.4.93-.33,0-.47-.18-.47-.5V63Zm5.61-.9a.49.49,0,0,1,.46.52v0a.61.61,0,0,1-.32.51l-.65.5v7a1.48,1.48,0,0,1-.89,1.54,2.8,2.8,0,0,1-1.05.33c-.28,0-.39-.15-.43-.54a.8.8,0,0,0-.47-.76l-1.47-.68v-.36h2c.26,0,.33-.11.36-.58V62Zm-3.17,11.07c3.71.9,6.19,2.84,6.19,4.89a1.22,1.22,0,0,1-1.15,1.3c-.61,0-.61,0-2-2.63a8.14,8.14,0,0,0-3.09-3.23Z" fill="#343434"/><path d="M488.55,70.72a7.39,7.39,0,0,1-2.05,3.35c-2.84,3.16-6.07,4.74-9.85,4.74a7.88,7.88,0,0,1-6-2.26c-1.51-1.62-2.16-3.74-2.16-7,0-2.16,0-2.63.72-12,.22-3,.22-3,.22-3.45,0-2.3-.54-3.27-1.76-3.27-.22,0-.33-.07-.33-.18,0-.4.76-.72,1.58-.72,1.84,0,3.6,2.09,3.6,4.31A9.63,9.63,0,0,1,472,57a77.49,77.49,0,0,0-1.51,12.33c0,5,2,7.29,6.47,7.29a13.22,13.22,0,0,0,7.87-2.91,14.08,14.08,0,0,0,3.06-2.91c.14-.25.29-.36.43-.36A.29.29,0,0,1,488.55,70.72Z" fill="#343434"/><path d="M517.92,54.66a35,35,0,0,1,.51,4.34A19.81,19.81,0,0,1,514,70.44c-2.08,2.69-4,4-5.89,4a3.23,3.23,0,0,1-2.48-1.36,8.36,8.36,0,0,1-1.87-5.68c0-7.62,6.61-13.88,14.66-13.88,7.12,0,12.08,4.46,12.08,10.86,0,5.71-3.38,10.35-9.06,12.4A22.08,22.08,0,0,1,516.56,78c-.25,0-.47-.18-.47-.33s.11-.14.61-.28a16.31,16.31,0,0,0,6.8-3.56,13.16,13.16,0,0,0,4.09-10c0-3.31-1-5.76-3.09-7.3a9.25,9.25,0,0,0-5.57-1.87Zm-1.43.14A12.8,12.8,0,0,0,506,67.53c0,2.66,1,4.67,2.38,4.67,1.54,0,4.42-2.91,6.18-6.26A22.68,22.68,0,0,0,517,57.46a7,7,0,0,0-.47-2.48Z" fill="#343434"/><path d="M565.34,60c-.54,8.81-.61,9.31-1.19,11.51A8.52,8.52,0,0,1,555.63,78c-4.85,0-8-3.38-8-8.7a14.56,14.56,0,0,1,2.7-8.2c.79-1.18,1.26-1.79,3.81-5-2.88,1.36-4.1,1.83-4.82,1.83s-1.22-.39-1.65-1.4a5.36,5.36,0,0,1-.54-2c0-.11,0-.14.11-.14s.14,0,.18.14a2.32,2.32,0,0,0,2,1.4,11.41,11.41,0,0,0,4.24-1.4,10.16,10.16,0,0,0,2-1.58c.22-.18.33-.25.51-.25.9,0,2.77,1.36,2.77,2,0,.25-.18.43-.62.54a5.51,5.51,0,0,0-2.76,1.29A16.58,16.58,0,0,0,549.85,69c0,4,2.19,6.33,5.89,6.33,4,0,6.62-3,8-8.92a31.4,31.4,0,0,0,.68-7.91,26.89,26.89,0,0,1-1.51-5.93,1.89,1.89,0,0,1,1.8-1.73c.46,0,.75.51.75,1.26v1.19a16.43,16.43,0,0,0,1,5.93,14.44,14.44,0,0,0,6.25,6.29c1,.54,1.33,1.08,1.33,1.87,0,.94-.53,1.58-1.29,1.58a4.19,4.19,0,0,1-2.41-1.4,20.91,20.91,0,0,1-4.78-7.4Z" fill="#343434"/><path d="M599.42,65.58a7.68,7.68,0,0,1-1.58-5.35c0-1,.11-3.53.21-5.61V53.5c0-1.94-.83-2.69-2.88-2.69a1.55,1.55,0,0,0-.43,0h-.07c-.21,0-.32-.07-.32-.17,0-.47,1.76-1,3.23-1a6,6,0,0,1,3,.87,1.74,1.74,0,0,1,.82,1.61,7.48,7.48,0,0,1-.43,2.09,34.34,34.34,0,0,0-1.22,8c0,1.4.43,2.4,1.08,2.4a12.63,12.63,0,0,0,3.63-2c.43-.35.61-.43.93-.43,1.05,0,2.38.9,2.38,1.58s-.54.9-1.84,1.3a36.82,36.82,0,0,1-4.42.9,8.2,8.2,0,0,0-3,1.22c-2.66,1.55-4,3.56-4,5.93,0,2.55,2.08,3.81,6.25,3.81a24.24,24.24,0,0,0,7.45-1.33,2.19,2.19,0,0,1,.86-.25,2.41,2.41,0,0,1,2,2,1,1,0,0,1-.65.82c-1.26.58-4.56,1-7.62,1a19.25,19.25,0,0,1-6.9-1,5.25,5.25,0,0,1-3.56-4.78c0-2.77,2.66-5.75,6.65-7.55Z" fill="#343434"/><path d="M641.12,65.58a7.68,7.68,0,0,1-1.58-5.35c0-1,.11-3.53.22-5.61V53.5c0-1.94-.83-2.69-2.87-2.69a1.62,1.62,0,0,0-.44,0h-.07c-.21,0-.32-.07-.32-.17,0-.47,1.76-1,3.23-1a6,6,0,0,1,3,.87,1.74,1.74,0,0,1,.82,1.61,7.48,7.48,0,0,1-.43,2.09,34.34,34.34,0,0,0-1.22,8c0,1.4.43,2.4,1.08,2.4a12.63,12.63,0,0,0,3.63-2c.43-.35.61-.43.94-.43,1,0,2.37.9,2.37,1.58s-.54.9-1.84,1.3a36.82,36.82,0,0,1-4.42.9,8.2,8.2,0,0,0-3,1.22c-2.66,1.55-4,3.56-4,5.93,0,2.55,2.09,3.81,6.26,3.81a24.23,24.23,0,0,0,7.44-1.33,2.19,2.19,0,0,1,.86-.25,2.4,2.4,0,0,1,2,2,1,1,0,0,1-.65.82c-1.26.58-4.56,1-7.62,1a19.25,19.25,0,0,1-6.9-1,5.25,5.25,0,0,1-3.61-4.8c0-2.77,2.66-5.75,6.65-7.55Z" fill="#343434"/><path d="M689.83,60.16a11.23,11.23,0,0,0,2.38-1.59c.46-.5.57-.57.86-.57,1.15,0,2.44.61,2.44,1.15s-.72,1.11-3.09,2.23A29.68,29.68,0,0,1,688.5,63a57.17,57.17,0,0,0,3.56,4.5,4.71,4.71,0,0,1,1.51,3.23,2.41,2.41,0,0,1-2.05,2.59c-.25,0-.39-.11-1-.61a11.79,11.79,0,0,0-7.84-2.84c-3.12,0-5.17,1.54-5.17,3.84,0,2.05,2,3.13,5.71,3.13h3c1.44,0,1.83.25,1.83,1,0,1.23-.93,1.69-3.31,1.69a16.89,16.89,0,0,1-5.89-1c-2.19-.9-3.38-2.48-3.38-4.53,0-3.09,2.87-5,7.48-5a17.69,17.69,0,0,1,5.53,1.08,2.35,2.35,0,0,0,1,.32.67.67,0,0,0,.68-.64h0c0-.71-1-2.8-3-6.18a38.46,38.46,0,0,1-10.1,1.62c-2.56,0-4.17-1.3-4.17-3.31,0-.21.1-.39.25-.39s.21.07.43.5c.43,1,1.9,1.65,3.7,1.65A25.61,25.61,0,0,0,686.17,62c-.65-1.25-.72-1.36-2.2-3.88a20.61,20.61,0,0,1-5.57.86c-2.16,0-3.7-1-3.7-2.41,0-.25.14-.43.29-.43s.18,0,.25.36c.21.76,1.11,1.19,2.41,1.19A14.25,14.25,0,0,0,683,56.56a33.41,33.41,0,0,0-2.77-3.92,3.67,3.67,0,0,0-2.84-1.4.71.71,0,0,0-.29,0h-.29a.14.14,0,0,1-.14-.14,2.31,2.31,0,0,1,.83-1,2.59,2.59,0,0,1,1.79-.69,5.09,5.09,0,0,1,2.88,1c.32.28.39.43.39,1.25,0,1.08.37,1.91,1.77,4.28a8.67,8.67,0,0,0,2-1.4c.54-.47.86-.65,1.15-.65.72,0,1.76.76,1.76,1.22,0,.62-1.33,1.48-4,2.56.94,1.58,1.4,2.33,2.19,3.59A14.07,14.07,0,0,0,689.83,60.16Z" fill="#343434"/></svg>