<svg xmlns="http://www.w3.org/2000/svg" viewBox="0 0 611.12 263.26"><defs><style>.cls-1{fill:#343434;}</style></defs><title>catch-copy</title><g id="Layer_2" data-name="Layer 2"><g id="Layer_1-2" data-name="Layer 1"><path class="cls-1" d="M106.82,3.5H132l1.67-2.31,3.35,3a1.28,1.28,0,0,1,.38.8.87.87,0,0,1-.6.71l-1.08.48v8.74a1,1,0,0,1-.54,1.08,3.73,3.73,0,0,1-1.88.59c-.49,0-.81-.27-.81-.65V13h-9.92c3.55,5.33,12.72,9.92,21.51,10.78a14.29,14.29,0,0,0-4.26,4.15,36.77,36.77,0,0,1-9.38-4.64V40.61c0,.7-1.3,1.4-2.54,1.4-.48,0-.7-.33-.7-1V39.37H110v2c0,1-.86,1.62-2.43,1.62-.48,0-.7-.21-.7-.86V20.06L111,22.59h15.64l1-1.4c-2.91-2.59-3.72-3.56-6.52-8.19H106c-.33,7.49-1.84,11.37-6.69,17C97.39,32.3,95.5,34,95,34a.39.39,0,0,1-.43-.38c0-.27.16-.54,1-1.4a30,30,0,0,0,6.09-11.11c.87-3,1.24-6.31,1.24-11.6,0-1.72-.1-4.69-.27-8.35Zm31.6,37.59,4.7,3.72a1.06,1.06,0,0,1,.43.7.56.56,0,0,1-.54.6H105.58c-2.64,0-4.74,0-10,.27L95,44.49l5.77.21,4.8.11h29.23Zm-6-29.39V4.8H106.07c.05,1.4.05,2.64.05,3.29,0,.86,0,2-.05,3.61Zm-5.29,18.66V23.89H110v6.47Zm0,7.71V31.65H110v6.42Z"/><path class="cls-1" d="M171.37,25.56c.81-1.73.81-1.73,1.08-1.73s.38.22.38.49a8.4,8.4,0,0,1-.38,1.19c-1.89,4.9-3.18,10.89-3.18,14.45a8,8,0,0,0,.75,3.72,2,2,0,0,1,.27.86,1.9,1.9,0,0,1-1.62,1.78c-1.18,0-2.58-1.13-3.61-2.8-1.72-3-2.48-6.53-2.48-12,0-4.58.81-9.54,2.64-16.39a18.36,18.36,0,0,0,.92-5.39c0-2.27-.54-3.62-1.89-4.59-.1-.11-.16-.16-.16-.27a.3.3,0,0,1,.32-.27c.87-.1,3.24,1.19,4.21,2.21a6,6,0,0,1,1.73,3.83,9.39,9.39,0,0,1-1,3.78c-3.23,7.71-4.26,11.7-4.26,16.88,0,3.55.59,6.3,1.3,6.3.37,0,.7-.53,1.24-2.15.32-.86.59-1.57.7-1.94l1.29-3.35Zm15-19.36a.43.43,0,0,1-.21,0,.23.23,0,0,1-.17-.16c0-.1.17-.27.71-.7a4.3,4.3,0,0,1,2.69-1.24,6.76,6.76,0,0,1,3.72,1.78c.7.54,1,1,1,1.51a1.58,1.58,0,0,1-.16.59,7.22,7.22,0,0,0-.75,2.38,6.35,6.35,0,0,0,4.47,1.94,4,4,0,0,0,.92-.06c.32,0,.59-.1.7-.1A2.21,2.21,0,0,1,201,13.8c0,.76-1,1.95-2.32,2.75a21.2,21.2,0,0,1-5.93,2.59c.05.76.05,1.46.11,1.67,0,.54.1,1.73.27,3.56.37,4.59.59,7.71.59,10.2C200.33,36.4,204,39,204,41.79A2,2,0,0,1,202,43.84a2.52,2.52,0,0,1-2.11-1.35,19.6,19.6,0,0,0-6.14-5.44c-.76,4.69-3.83,7.17-9,7.17-4.69,0-8.2-2.32-8.2-5.45s3.67-5.28,9.17-5.28a24.45,24.45,0,0,1,4.91.48c0-1.72,0-2.42-.16-5.23-.27-4.8-.33-5.66-.38-9a44.78,44.78,0,0,1-7.55.86,4.33,4.33,0,0,1-4-2.05,7.24,7.24,0,0,1-.81-3.07.3.3,0,0,1,.27-.33c.16,0,.27.11.32.38.54,1.29,2.27,2,4.91,2a43.52,43.52,0,0,0,6.85-.7c-.06-4.37-.11-7.34-.27-8.09a2.85,2.85,0,0,0-3.07-2.59Zm-.91,29.12c-3.83,0-6.48,1.4-6.48,3.4,0,1.51,1.62,2.48,4.1,2.48,4.91,0,6.69-1.35,7.23-5.29A24.3,24.3,0,0,0,185.45,35.32Zm7.17-18.93c2.1-.7,3.5-1.51,3.5-1.94,0-.16-.11-.32-.38-.54-.64-.54-1.61-1.56-2.75-2.69A30.82,30.82,0,0,0,192.62,16.39Z"/><path class="cls-1" d="M229.61,8.74H242V.43l5,.54A1.16,1.16,0,0,1,248,2c0,.32-.27.64-.81,1.07l-1.3,1v4.7h14.19L263.8,4.8l4.74,3.83a1.14,1.14,0,0,1,.22.64c0,.38-.22.71-.49.71H228.58c.06,3.34.11,5.6.11,6.84,0,14.46-.81,19.2-4.2,24.81-1.89,3.07-5.34,7.06-6.1,7.06a.47.47,0,0,1-.48-.43c0-.21,0-.21,1.35-2.21,4.26-6.52,5.71-12.72,5.71-24.59,0-3,0-3.67-.16-15.47Zm20.49,6.2a1,1,0,0,1,.65.86c0,.38-.38.81-1,1.13l-1.08.54c-2.91,7.28-4.42,10.68-10.3,23.41,4.64-.11,15.1-.87,19.68-1.46-2.48-4.37-6.42-8.9-9.38-10.79l.38-.8c9.65,4.58,16.23,11.54,16.23,17.14a2.37,2.37,0,0,1-2.38,2.54,1.69,1.69,0,0,1-1.18-.49,17.48,17.48,0,0,1-1.84-3.88,16.14,16.14,0,0,0-1-2.26C247.19,43,244,43.52,233,45l-.6.87a2.07,2.07,0,0,1-1.35,1,1.22,1.22,0,0,1-.86-.54L227,41c1.72.05,2.59.05,3.88.05,1,0,3.07-.05,5.5-.11a139.53,139.53,0,0,0,8.09-28Z"/><path class="cls-1" d="M294.16,17c-2,0-2,0-10,.27l-.65-1.83c5.77.21,8.09.27,10.63.27h9.11c.11-1.84.16-3.51.16-4.16,0-1.61,0-1.61-.11-8.14l-.1-3.4,5.71.7a1.08,1.08,0,0,1,1,1c0,.38-.22.7-.81,1.13L307.64,4c-.11,5.56-.16,6.42-.54,11.71h14.67l3.77-3.83,4.64,3.72a1.06,1.06,0,0,1,.38.81A.56.56,0,0,1,330,17H308.18a39.77,39.77,0,0,0,9.76,16.5c4.31,4.15,9.6,7.71,13.37,9a5.49,5.49,0,0,1-.65.38L328.56,44A15.73,15.73,0,0,0,326,46.43c-10.41-7-16.13-15.85-19-29.39-.65,6.79-1.56,10.08-4,14.61-2.8,5.29-6.79,9.28-12.89,13-2.91,1.78-6.47,3.5-7.12,3.5a.48.48,0,0,1-.48-.48c0-.38,0-.38,2.91-2.11C296.69,38,301.54,30.2,303.22,17Z"/><path class="cls-1" d="M355.58,33.22c-1.78,3.23-2.48,3.93-4.21,3.93-1.46,0-2.48-.75-2.48-1.83,0-.54.27-1,1-1.73C353,31,359.08,20.65,361,14.72a24.63,24.63,0,0,1-5.39.81c-2,0-3.56-1.08-4.7-3.18a9.63,9.63,0,0,1-.81-2.32.26.26,0,0,1,.27-.27.22.22,0,0,1,.22.16,5.73,5.73,0,0,0,5.12,2.7,27.31,27.31,0,0,0,6.2-1,25.76,25.76,0,0,0,.92-5.93,2.49,2.49,0,0,0-2.7-2.75c-.48-.05-.59-.05-.59-.27,0-.48,1.84-1.24,3-1.24,2,0,3.88,1.19,3.88,2.48a9,9,0,0,1-.48,1.94c2.05,1.14,2.37,1.3,2.8,1.51a2.73,2.73,0,0,0,1.24.22,1.74,1.74,0,0,1,1.84,1.51c0,1.73-2.75,3.45-7.93,5.07A170.87,170.87,0,0,1,355.58,33.22Zm32.51,10.24a1.9,1.9,0,0,1-2,1.89A3,3,0,0,1,383.78,44a18.91,18.91,0,0,0-6.1-4.91c0,5.61-2.37,8-7.92,8-5.13,0-8.52-2.32-8.52-5.88,0-3.83,3.56-6.09,9.43-6.09a20.55,20.55,0,0,1,3.67.27c0-3,0-3,0-4.59-.06-1.07-.06-1.83-.06-2.26,0-5.45,2.32-8.25,8.25-9.81.76-.22,1.14-.49,1.14-1,0-1.34-2.7-2.53-5.61-2.53a8,8,0,0,0-2.64.32.55.55,0,0,1-.27.06.42.42,0,0,1-.38-.43c0-.7,3.07-1.62,5.23-1.62,4.91,0,9,2.75,9,6,0,1-.48,1.56-1.34,1.56a2.48,2.48,0,0,1-.87-.21,11.6,11.6,0,0,0-3.55-.6c-4.16,0-6.31,2.05-6.31,6a44.23,44.23,0,0,0,.37,4.69,36.64,36.64,0,0,1,.43,5.07C384.21,38.29,388.09,41,388.09,43.46Zm-19.25-6.41c-3.18,0-5.34,1.61-5.34,3.93,0,1.89,2.48,3.29,5.66,3.29,3,0,4.64-1.35,5-4.15a17.34,17.34,0,0,0,.11-2A13.2,13.2,0,0,0,368.84,37.05Zm-.65-28.53c0-.32-.54-.81-2.42-2.16-.43,1.94-.6,2.54-1.14,4.43C367,9.87,368.19,9.11,368.19,8.52Z"/><path class="cls-1" d="M415.16,30.14c-.48,0-1.62.06-3.29.11-.48,0-1.83,0-3.39.06l-.65-1.73c3.93.16,5.71.22,7.22.27h3.45V21.19l4.05.33c.75.05,1.24.48,1.24,1a1.4,1.4,0,0,1-.81,1.13l-1.24.6v4.58h2.16l2.48-3.29L430,28.42a1.64,1.64,0,0,1,.65,1.08.7.7,0,0,1-.65.64h-8.25v3.29a19.19,19.19,0,0,1,5.34,2,4.84,4.84,0,0,1,2.75,3.94A2,2,0,0,1,428,41.31a2.07,2.07,0,0,1-1.14-.43,21.21,21.21,0,0,1-1.67-2.7,8.72,8.72,0,0,0-3.45-3.24V47c0,.81-1.19,1.51-2.59,1.51-.48,0-.65-.27-.65-.86V35.1a46,46,0,0,1-6.95,7.39c-2.05,1.73-3.56,2.75-4.15,2.75a.54.54,0,0,1-.54-.54c0-.27.27-.59,1.29-1.4a43.19,43.19,0,0,0,9.44-13.16Zm6-21.89c-.32,0-2.26.05-5.12.16-.65.06-2.59.06-4.69.11l-.81-1.89c2.48.11,4.47.16,5.28.16,2.64.11,4.42.17,5.34.17h8.9V0L434,.16c.76.06,1.13.33,1.13.92a1.26,1.26,0,0,1-.43,1l-1.29,1V7h12.94l2.91-3.4,3.83,3a1.58,1.58,0,0,1,.7,1c0,.43-.27.65-.86.65H434.3c5.61,5.29,11.81,8.2,21.09,9.81a10.47,10.47,0,0,0-3.67,4.16c-8.41-3.35-14-7.34-18.33-13.22V22.59c0,.76-1.08,1.35-2.54,1.35-.54,0-.75-.27-.75-.81V10.41a66.66,66.66,0,0,1-13.81,9.33c-3.93,2.05-6.52,3.23-7,3.23a.46.46,0,0,1-.43-.43c0-.27.54-.65,4-2.64A52.66,52.66,0,0,0,427.08,8.25Zm11.92,22.06-.54-1.68c5.39.22,5.66.22,7.23.22h1.56V21.62l4.42.27c.49.06.92.43.92.76a1.34,1.34,0,0,1-.7,1l-1.51.87v4.31h4.58l2.86-3.29,3.83,2.91a1.31,1.31,0,0,1,.59,1,.65.65,0,0,1-.7.7H444.6c1.73,4.26,6.42,8.42,12.89,11.27a9,9,0,0,0-3.66,3.4A28.93,28.93,0,0,1,444.5,33V47.29c0,.76-.81,1.13-2.43,1.13-.49,0-.7-.21-.7-.75V34.35a73.38,73.38,0,0,1-8.25,8.09c-3,2.48-5.07,3.94-5.61,3.94a.51.51,0,0,1-.43-.49c0-.22,0-.22,1.78-1.73a74.79,74.79,0,0,0,11.54-14Z"/><path class="cls-1" d="M492.54,26.48c-1.94-2.86-2.37-4.37-2.37-8,0-1.51.16-5.28.32-8.41l.06-1.67c0-2.91-1.24-4-4.32-4a1.65,1.65,0,0,0-.64.06h-.11c-.32,0-.49-.11-.49-.27,0-.7,2.65-1.57,4.86-1.57a9.12,9.12,0,0,1,4.47,1.3,2.62,2.62,0,0,1,1.24,2.42,11.27,11.27,0,0,1-.64,3.13,51.44,51.44,0,0,0-1.84,12c0,2.1.65,3.61,1.62,3.61.65,0,4.26-2,5.45-3.07.64-.54.91-.65,1.4-.65,1.56,0,3.56,1.35,3.56,2.37,0,.81-.81,1.35-2.75,1.94A52.74,52.74,0,0,1,495.73,27a12.21,12.21,0,0,0-4.59,1.84c-4,2.31-6,5.33-6,8.89,0,3.83,3.13,5.72,9.38,5.72a36.31,36.31,0,0,0,11.17-2,3.18,3.18,0,0,1,1.29-.37A3.61,3.61,0,0,1,510,44a1.47,1.47,0,0,1-1,1.24c-1.88.87-6.84,1.51-11.43,1.51a28.75,28.75,0,0,1-10.35-1.51c-3.4-1.45-5.34-4.1-5.34-7.17,0-4.15,4-8.63,10-11.32Z"/><path class="cls-1" d="M45.51,92V90.29c0-1,0-1.73,0-2A4.38,4.38,0,0,0,42,83.87c-.27-.11-.43-.22-.43-.32,0-.33,1.61-.76,2.8-.76s2.37.59,4.42,2.1a8.28,8.28,0,0,0,1,.76c.64.43.86.65.86.92s0,.16-.32.7a9.61,9.61,0,0,0-1.08,4.1c-.44,4.31-.65,7.65-.65,10.08,0,3.72.16,4.26,1.24,4.26,2.26,0,7.33-2.59,12.62-6.47,6-4.42,12.51-10.68,15.64-15,.48-.7.64-.81.8-.81s.49.38.49.65a18.08,18.08,0,0,1-2.1,3.78,61.36,61.36,0,0,1-12,13,60.49,60.49,0,0,1-12.18,7.93,11.83,11.83,0,0,0-3.62,2.48c-.48.54-.81.75-1,.75a8.87,8.87,0,0,1-2.27-1.51,4.13,4.13,0,0,1-1.61-2.1,1.86,1.86,0,0,1,.21-.81,7,7,0,0,0,.7-3Z"/><path class="cls-1" d="M105.8,100.21a11.3,11.3,0,0,1-2.48.38c-1.57,0-4.32-1.67-4.75-2.92a15.46,15.46,0,0,1-.37-3c0-.37.16-.64.43-.64s.27.11.43.37c.7,1.57,2,2.11,5.12,2.11a252.36,252.36,0,0,0,31.17-2.21,12.58,12.58,0,0,1,1.46-.11,3.61,3.61,0,0,1,2.85,1.19c1,1,1.41,1.51,1.41,2,0,.81-1.08,1.3-2.81,1.3-.43,0-1,0-2-.06-1.19-.11-5.56-.16-7.82-.16C121,98.43,110,99.29,105.8,100.21Z"/><path class="cls-1" d="M171,91.8c2,1.34,3,2.58,3,4.2a2.29,2.29,0,0,1-2.16,2.21A1.9,1.9,0,0,1,170,96.92a12.33,12.33,0,0,0-6.8-6c-.32-.1-.48-.21-.48-.37s.86-.54,1.94-.54A13.33,13.33,0,0,1,171,91.8Zm-.64,22.48c-1,0-3.08-1.34-4.16-2.69a5.79,5.79,0,0,1-1.45-3.18,7.26,7.26,0,0,1-.06-1.14c0-.54.17-.81.49-.81.16,0,.27.06.7.71a4,4,0,0,0,3.83,2c1.83,0,5.12-1.45,9.27-4.15a110.91,110.91,0,0,0,16.56-14.23,54.39,54.39,0,0,0,5.77-7.18c.43-.64.65-.86.86-.86s.38.33.38.59c0,1-2.64,5.56-5.29,9A78.33,78.33,0,0,1,174,112.18c-1.78,1-2.53,1.46-2.64,1.56A1.21,1.21,0,0,1,170.35,114.28Zm7.11-32.51c2,1.24,3,2.59,3,4.31a2.43,2.43,0,0,1-2.31,2.54c-.92,0-1.25-.27-1.84-1.46a11.91,11.91,0,0,0-7.93-6.09c-.37,0-.53-.11-.53-.33,0-.43,1-.7,2.58-.7A15.59,15.59,0,0,1,177.46,81.77Z"/><path class="cls-1" d="M240.77,88.62a2.25,2.25,0,0,1-2.48,2.31c-.7,0-1.08-.27-1.62-1.24a11.88,11.88,0,0,0-8.3-6.63c-.33-.11-.49-.22-.49-.38,0-.37,1-.64,2.54-.64C235.59,82,240.77,85.33,240.77,88.62Zm-7,23.94c-.81,0-2.59-1.3-3.88-2.81a4,4,0,0,1-1.35-3.39c0-1,.27-1.84.65-1.84.21,0,.32.11.43.38a3.81,3.81,0,0,0,3.23,2.75c2.22,0,8.74-4,16.56-10.24a107.64,107.64,0,0,0,10.08-9c1.08-1.08,4-4.42,4.53-5.07s.65-.86.92-.86a.43.43,0,0,1,.43.48c0,.87-2.37,4.53-5.07,7.82a82.72,82.72,0,0,1-11.54,11.65,82,82,0,0,1-12.83,8.84C234.89,112.18,234.3,112.56,233.76,112.56Z"/><path class="cls-1" d="M320.2,89.42a1.1,1.1,0,0,0-.43.17c-4.58,8.19-4.58,8.19-7.06,11.37a48.24,48.24,0,0,1-14.62,12.62c-3.5,1.94-9.65,4.59-10.78,4.59-.33,0-.54-.27-.54-.65s.11-.38,1.13-.86c5.23-2.16,11.33-6.37,16.61-11.49a50.89,50.89,0,0,0,9.38-12.51c1.19-2.16,1.67-3.29,1.67-4a1.21,1.21,0,0,0-1.24-1.19,7.29,7.29,0,0,0-1,.11c-.27,0-1.35.27-2.48.43-.92.16-1.73.27-2.05.32a5.45,5.45,0,0,1-1.13.16,4,4,0,0,1-2.11-.75l-.16-.11a45.4,45.4,0,0,1-8.46,9.6c-2.48,2.26-6.37,4.8-7.28,4.8-.33,0-.6-.16-.6-.38s.11-.38,1.46-1.35c3.23-2.26,5.5-4.69,8.57-8.89C301.71,87.64,303,85,303,83.06a3.39,3.39,0,0,0-1.95-3.4c-.21,0-.37-.21-.37-.32,0-.27.59-.49,1.4-.49a6.18,6.18,0,0,1,3.77,1.41c1.94,1.24,2.38,1.67,2.38,2.42,0,.38,0,.38-.76,1.24-.54,1.08-.75,1.51-1.29,2.48a1.87,1.87,0,0,0,1.35.38A33,33,0,0,0,314,85.54a15.35,15.35,0,0,0,2.05-1c.91-.59,1.24-.7,1.56-.7.59,0,1.19.38,3.13,2,1.61,1.34,1.83,1.56,1.83,2s0,.49-1.51,1.19ZM324,80a1.92,1.92,0,0,1-1.73,1.84c-.75,0-1-.22-1.61-1.25a10.19,10.19,0,0,0-5-4.2c-.38-.11-.48-.16-.48-.27s.86-.43,1.61-.43C320.42,75.73,324,77.88,324,80Zm6.15-2.59a1.93,1.93,0,0,1-1.78,1.84c-.81,0-1.08-.22-1.67-1.35a10.39,10.39,0,0,0-5.13-4.21c-.32-.11-.43-.16-.43-.27,0-.27.7-.43,1.67-.43C326.51,73,330.18,75.24,330.18,77.45Z"/><path class="cls-1" d="M378.65,94.17a9,9,0,0,0,.27-1.51c.11-.76.22-1.29.22-1.51A5.92,5.92,0,0,0,379.3,90c0-.91-.91-1.51-2.37-1.51-1.94,0-13.54,2-17.85,3a9.75,9.75,0,0,1-2.59.43c-1,0-1.56-.32-3.5-2a3,3,0,0,1-1-2.43c0-1,.16-1.3.54-1.3.21,0,.27.06.32.27.43,1.35,1.89,1.89,5.28,1.89a107.5,107.5,0,0,0,14.73-1.45c1.13-.22,2.1-.33,2.42-.38a10.83,10.83,0,0,0,4.1-1.35c.75-.38.86-.43,1.24-.43.59,0,1.29.43,3.18,1.89S386,88.51,386,89.05c0,.21-.21.48-.54.75-1.72.92-2.85,3.78-5.71,14.62l1.4-.11c1.67.7,2.75,1.67,2.75,2.53,0,.65-.38,1.13-.86,1.13a3,3,0,0,1-.49-.1,26.79,26.79,0,0,0-5.82-.76,61,61,0,0,0-16.67,2.43,6.15,6.15,0,0,1-2.37.59c-.81,0-1.51-.48-3.29-2.21a4.44,4.44,0,0,1-1.45-2.21.37.37,0,0,1,.37-.38c.17,0,.17,0,.49.22a12.11,12.11,0,0,0,3.94.7,9.19,9.19,0,0,0,1.56-.11c.22,0,1.35,0,3.34-.22,2.86-.21,4.91-.37,5.94-.48,1.88-.22,3.82-.43,5.71-.59l2.48-.27Z"/><path class="cls-1" d="M418.56,100.21a11.3,11.3,0,0,1-2.48.38c-1.57,0-4.32-1.67-4.75-2.92a15.46,15.46,0,0,1-.37-3c0-.37.16-.64.43-.64s.27.11.43.37c.7,1.57,2,2.11,5.12,2.11a252.36,252.36,0,0,0,31.17-2.21,12.58,12.58,0,0,1,1.45-.11,3.61,3.61,0,0,1,2.86,1.19c1,1,1.41,1.51,1.41,2,0,.81-1.08,1.3-2.81,1.3-.43,0-1,0-2-.06-1.19-.11-5.56-.16-7.82-.16C433.77,98.43,422.77,99.29,418.56,100.21Z"/><path class="cls-1" d="M507.64,102.1c3.13,2.48,4.8,5.07,4.8,7.44a2.58,2.58,0,0,1-2.37,2.8c-1.08,0-1.78-.7-2.48-2.53-2-5.34-6.37-10.09-11.22-12.08a44.18,44.18,0,0,1-16.12,13.69c-2.75,1.41-6.26,2.81-7.12,2.81-.38,0-.81-.32-.81-.65s.16-.32,1-.64c5.17-2,11.91-7,16.71-12.41A50.64,50.64,0,0,0,497.61,89c1.4-2.86,1.94-4.26,1.94-4.9s-.37-.81-1-.81c-1.89,0-7.93,1.61-12.83,3.39-.92.38-1,.38-1.19.38-.48,0-.54,0-2.26-1.29a2.62,2.62,0,0,1-1.4-2.59c0-1,.16-1.46.53-1.46.11,0,.22.11.27.27.33.81,1.95,1.4,3.83,1.4a87.75,87.75,0,0,0,10.41-1.61A11.53,11.53,0,0,0,500.25,80a1.48,1.48,0,0,1,.87-.33c.54,0,1.18.38,3.23,1.94,1.46,1.14,1.73,1.41,1.73,1.84,0,.21-.16.38-.65.7L504.3,85a77.35,77.35,0,0,1-7.23,11.86A24.66,24.66,0,0,1,507.64,102.1Z"/><path class="cls-1" d="M533.09,107.49c6.58,1.51,11,5,11,8.52a2.69,2.69,0,0,1-2.58,2.86,2.32,2.32,0,0,1-1.73-.76c-.43-.54-.43-.54-1.08-2.91-1.08-3.34-2.05-4.48-6-7Z"/><path class="cls-1" d="M9.44,152.91c-1.84,0-2,0-8.31.22L.05,151.35l5.13.16c1.83.05,3.39.11,4.26.11H22.81V143.2l4.8.54a1.06,1.06,0,0,1,1,1c0,.38-.16.65-.7,1l-1.35.92v5H41.14l3.35-3.51,4.42,3a1.24,1.24,0,0,1,.49,1,.77.77,0,0,1-.81.81H28.36L30.09,154a1,1,0,0,1,.43.86,1.27,1.27,0,0,1-.86,1.08l-1,.27-1.51,3.56h11l1.46-2.16,3.45,2.64c.65.54.92.92.92,1.35a1.2,1.2,0,0,1-.87,1l-1.29.59a59.16,59.16,0,0,1-8.68,16.39c4.31,3.24,9.76,5.4,17.31,6.9a9.39,9.39,0,0,0-5,4.16,50.26,50.26,0,0,1-14.46-8.58,32.52,32.52,0,0,1-9.54,7.23c-2.86,1.46-6.42,3-7.12,3a.48.48,0,0,1-.48-.49c0-.22.16-.43.59-.65,6.63-3.39,10.62-6.52,14.34-11.21a39.55,39.55,0,0,1-6.58-11c-2.85,4.58-7.22,9.6-8.35,9.6a.52.52,0,0,1-.49-.43,1.12,1.12,0,0,1,.38-.76c5.18-6.25,9.6-15.74,11.38-24.48H14.29l2.37,1.29a1.17,1.17,0,0,1,.7,1,1.37,1.37,0,0,1-.91,1.14l-1.24.64c-.22.49-.43,1.08-.7,1.57-1,2.32-1.68,3.88-1.89,4.31l-1.19,2.48,1.08.49a.87.87,0,0,1,.59.75,1.1,1.1,0,0,1-.43.81l-.91.7v23.08c0,.49-.17.7-.76,1a8.18,8.18,0,0,1-2.16.6c-.37,0-.59-.22-.59-.7V170.33c-3.13,4.26-7.06,8.36-7.93,8.36a.35.35,0,0,1-.32-.33c0-.27.43-.86,1.67-2.32a62.53,62.53,0,0,0,10.25-23.13Zm17.2,8.14-1.24,2.48c5.44,1.62,8.14,3.67,8.14,6.26a2.1,2.1,0,0,1-2.05,2.26c-.91,0-1.24-.32-2.32-2.75-1.24-2.53-2.37-3.77-4.31-4.69l-.92,1.62-.64,1.19a28.75,28.75,0,0,0,7.22,10.35,53,53,0,0,0,7.82-16.72Z"/><path class="cls-1" d="M77.54,169.36c.81-1.73.81-1.73,1.08-1.73s.38.22.38.49a9.28,9.28,0,0,1-.38,1.18c-1.89,4.91-3.18,10.9-3.18,14.45a8.23,8.23,0,0,0,.75,3.73,1.94,1.94,0,0,1,.27.86,1.9,1.9,0,0,1-1.61,1.78c-1.19,0-2.59-1.13-3.62-2.81-1.72-3-2.48-6.52-2.48-12,0-4.58.81-9.55,2.65-16.39a18.34,18.34,0,0,0,.91-5.4c0-2.26-.54-3.61-1.89-4.58-.1-.11-.16-.16-.16-.27a.3.3,0,0,1,.33-.27c.86-.11,3.23,1.19,4.2,2.21a6,6,0,0,1,1.73,3.83,9.32,9.32,0,0,1-1,3.77c-3.23,7.72-4.26,11.71-4.26,16.88,0,3.56.6,6.31,1.3,6.31.38,0,.7-.54,1.24-2.15.32-.87.59-1.57.7-1.95l1.29-3.34Zm15-19.36a.41.41,0,0,1-.21.05c-.06,0-.16-.11-.16-.16s.16-.27.7-.7A4.3,4.3,0,0,1,95.55,148a6.69,6.69,0,0,1,3.72,1.78c.71.54,1,1,1,1.51a1.64,1.64,0,0,1-.17.59,7.4,7.4,0,0,0-.75,2.37,6.35,6.35,0,0,0,4.47,2,4,4,0,0,0,.92-.06c.32-.05.59-.11.7-.11a2.21,2.21,0,0,1,1.78,1.62c0,.76-1,1.94-2.32,2.75A21.5,21.5,0,0,1,99,162.94c0,.76,0,1.46.11,1.67,0,.54.11,1.73.27,3.56.38,4.58.59,7.71.59,10.19,6.58,1.84,10.25,4.42,10.25,7.23a2,2,0,0,1-2,2c-.81,0-1.4-.38-2.11-1.35a19.63,19.63,0,0,0-6.14-5.45c-.76,4.69-3.83,7.17-9,7.17-4.69,0-8.19-2.31-8.19-5.44s3.66-5.29,9.16-5.29a24.54,24.54,0,0,1,4.91.49c0-1.73,0-2.43-.16-5.23-.27-4.8-.33-5.66-.38-9a44,44,0,0,1-7.55.87,4.33,4.33,0,0,1-4-2.05,7.25,7.25,0,0,1-.81-3.08.3.3,0,0,1,.27-.32c.16,0,.27.11.32.38.54,1.29,2.27,2,4.91,2a43.4,43.4,0,0,0,6.85-.7c0-4.37-.11-7.34-.27-8.09A2.85,2.85,0,0,0,92.86,150Zm-.91,29.12c-3.83,0-6.47,1.4-6.47,3.39,0,1.51,1.61,2.49,4.09,2.49,4.91,0,6.69-1.35,7.23-5.29A24.3,24.3,0,0,0,91.62,179.12Zm7.17-18.93c2.1-.7,3.5-1.51,3.5-1.94,0-.16-.1-.33-.37-.54-.65-.54-1.62-1.56-2.75-2.7A29.85,29.85,0,0,0,98.79,160.19Z"/><path class="cls-1" d="M125.75,176.53,130,177l9.81-22.11,1.08.38-7.39,21.57a7.45,7.45,0,0,0-.59,2.75c0,2,.11,3,1,7.82a3.69,3.69,0,0,1,.06.81,2.77,2.77,0,0,1-2.43,3,2.59,2.59,0,0,1-2.43-2.7c0-.43.17-1.67.38-3.07a14.23,14.23,0,0,0,.22-2.59c0-2.32-.65-3.83-1.89-4.59a6.47,6.47,0,0,0-1.35-.37,4.47,4.47,0,0,1-.91-.33Zm.38-19.36h.38a10,10,0,0,1,5,2.16,5.19,5.19,0,0,1,2,3.93c0,1.51-.92,2.65-2.1,2.65A1.72,1.72,0,0,1,130,165c-.11-.16-.11-.16-.87-3a6.64,6.64,0,0,0-3-4.31Zm2.59-11.92c4.9.49,8.57,3.24,8.57,6.37a2.25,2.25,0,0,1-2.26,2.53c-1.08,0-1.08,0-2.59-4a9.68,9.68,0,0,0-4.1-4.31Zm20.11-1.45,4,.48c.76.06,1.13.38,1.13.87s-.27.8-.91,1.18l-.92.49v4.42h7.33V143.8l4.1.32c.76,0,1.24.43,1.24,1s-.32.86-.91,1.13l-1.14.54v4.48h5.34l2.81-3.34,4.26,3.07a1.19,1.19,0,0,1,.54.92.7.7,0,0,1-.65.64h-12.3v6.74h3.72l2.54-3.12,3.67,2.53a1.41,1.41,0,0,1,.59,1.08.81.81,0,0,1-.86.81H157.46V166h10.68l1.56-2.1,3,2.8a1.63,1.63,0,0,1,.53,1c0,.38-.26.65-.8.81l-.6.16v20.06a3.31,3.31,0,0,1-3.34,3c-.7,0-1-.27-1-1.08s-.1-1-1.18-1.41l-3.83-1.34v-.76h5.28c.71,0,.76-.16.81-1.08V167.31h-11V179.5h4.64V171l3.07.16c.92.05,1.35.38,1.35,1a1.4,1.4,0,0,1-.76,1.08l-.7.38v10.13c0,1-.86,1.51-2.26,1.51-.49,0-.7-.26-.7-.75v-3.72h-12v5.39c0,.54-1.46,1.24-2.53,1.24-.33,0-.54-.27-.54-.75v-15.8l3.29.16c.91.05,1.34.38,1.34.92a1.43,1.43,0,0,1-.7,1.07l-.86.6v5.88h4.1V167.31H143.33v23c0,.81-.16,1.08-.86,1.4a3.64,3.64,0,0,1-1.51.43c-.54,0-.76-.27-.76-.81V164.18l4.37,1.83h9.6v-5.44h-6.09c-1.73,0-1.89,0-6.64.16l-.59-1.67c3.67.16,5.28.21,7.23.21h.75v-6.74h-3.34c-2.64,0-3.51,0-6.64.16l-.59-1.67,4.15.16c1.41.06,2.75.06,3.08.06h3.34Zm10.62,15.47v-6.74h-7.33v6.74Z"/><path class="cls-1" d="M231.66,146.06l4.69,3.61a.81.81,0,0,1,.32.71c0,.48-.21.75-.59.75H213.76a120.25,120.25,0,0,1-.6,12.57h11.7l3.35-3.56,4.36,3.29a1,1,0,0,1,.44.8c0,.44-.27.81-.6.81l-17.9,0c3.13,8.95,11.92,16.77,23.4,20.87a10.91,10.91,0,0,0-5,4c-10.24-5.17-17.68-14.45-19.9-24.91h-.16c-.81,4.69-1.18,6.2-2.21,8.68-2.69,6.74-7,11.06-14.29,14.67a24.79,24.79,0,0,1-6.36,2.21.5.5,0,0,1-.54-.49c0-.37.43-.75,1.29-1.07,11.27-5.45,16.4-12.24,18.12-24h-7.12c-1.07,0-2.69,0-8.46.27l-.86-1.83c4.9.21,6.9.27,9.32.27h7.28a52,52,0,0,0,.6-9.33c0-.6,0-1.84-.06-3.24H199.2c-2.38,0-4.53.05-9.76.27l-.87-1.89c5.29.27,7.66.33,10.63.33H228Z"/><path class="cls-1" d="M276.47,153.88a50.07,50.07,0,0,1,.75,6.53c0,5.44-2.48,11.86-6.57,17.14-3.13,4-6,6-8.85,6a4.79,4.79,0,0,1-3.72-2.05,12.56,12.56,0,0,1-2.8-8.52c0-11.43,9.92-20.81,22-20.81,10.67,0,18.12,6.69,18.12,16.28,0,8.58-5.07,15.53-13.59,18.61a33.22,33.22,0,0,1-7.39,1.78c-.38,0-.7-.27-.7-.49s.16-.21.92-.43a24.46,24.46,0,0,0,10.19-5.34c3.88-3.34,6.14-8.84,6.14-15,0-5-1.56-8.63-4.63-11a13.94,13.94,0,0,0-8.36-2.8Zm-2.16.22a19.19,19.19,0,0,0-15.8,19.09c0,4,1.51,7,3.56,7,2.32,0,6.63-4.37,9.28-9.39,2.1-4.1,3.77-9.65,3.77-12.72a10.6,10.6,0,0,0-.7-3.72Z"/><path class="cls-1" d="M336.11,181.38h-4.26c-.54,0-2.05.06-4.21.11-.64,0-2.53,0-4.53.11l-.59-1.78c6.58.21,8.2.21,9.33.27h4.26V172.7H326a40.35,40.35,0,0,1-8.36,8.57,3.07,3.07,0,0,1-1.35.76.39.39,0,0,1-.43-.43c0-.22.11-.43.43-.81,4.43-4.42,8.36-11,9.71-16.23l4.15,1.62c.6.21,1,.59,1,1s-.32.7-1,.86l-1.18.38c-.87,1.34-1,1.56-2.05,3h9.22v-7.82l4.2.27c.81.1,1.3.43,1.3,1a1.06,1.06,0,0,1-.65,1l-1.29.65v4.91h11.21l3.08-3.24,3.5,2.91c.7.6.87.76.87,1.08s-.27.54-.87.54H339.67v7.39h8.79l2.8-3.24,3.4,2.75c.59.49.92.92.92,1.19s-.49.59-1.3.59H339.67v7.44h15l3.13-3.5,4.42,3.67a1,1,0,0,1,.43.7c0,.27-.21.43-.59.43H324.24c-.59,0-2.26,0-4.69.11-.75.05-3,.1-5.28.16l-.65-1.89c2.7.11,5.07.16,5.93.16,2.38.11,4.05.16,4.69.16h11.87ZM326,147h23.89l1.46-2.42,3.45,3.34a1.55,1.55,0,0,1,.49.92,1,1,0,0,1-.76.8l-1,.33v14.13c0,.64-1.56,1.61-2.53,1.61a.85.85,0,0,1-.87-.86v-2.1H325.27v1.35c0,.81-1.19,1.51-2.54,1.51-.59,0-.8-.27-.8-.87v-20Zm24.16,7.07v-5.77H325.27v5.77Zm0,7.33v-6H325.27v6Z"/><path class="cls-1" d="M405.73,161.48a12.38,12.38,0,0,1,8-3.45c3.83,0,6.79,2.27,6.79,5.18a3.2,3.2,0,0,1-1.4,2.86c-1.13.86-1.45,1-6.47,3a94.17,94.17,0,0,0-11.54,5.23c.16,2.38.27,4.1.27,5,0,2.69-.54,3.39-2.69,3.39-.65,0-1-.21-1-.54a1.22,1.22,0,0,1,.06-.43,42.77,42.77,0,0,0,.27-5.82c-4.64,2.75-6.53,4.91-6.53,7.33,0,2.7,2.54,3.78,8.85,3.78a31.25,31.25,0,0,0,7.92-1,4.33,4.33,0,0,1,1.41-.27c1.13,0,2.58,1.24,2.58,2.21,0,1.78-3.55,2.69-10.89,2.69-4.1,0-6.52-.43-8.79-1.61a6.41,6.41,0,0,1-3.72-5.5,6.84,6.84,0,0,1,2.75-5.07,39,39,0,0,1,6.36-4.16c-.05-3.82-.21-5.6-.7-6.79a2.81,2.81,0,0,0-2.53-1.89,6.3,6.3,0,0,0-3.83,2,32.36,32.36,0,0,0-4.64,5.77c-.59,1-1.18,1.51-1.78,1.51-.81,0-1.88-1.78-1.88-3.18,0-.71.21-1.08,1.29-1.89,5.82-5.07,9.38-10.3,10.41-15.32a16.28,16.28,0,0,1-4.69.92,3.36,3.36,0,0,1-2.81-1.94,6.76,6.76,0,0,1-.81-2,.24.24,0,0,1,.22-.22c.05,0,.16.06.27.22a3.42,3.42,0,0,0,3.18,1.4,14.61,14.61,0,0,0,4.91-.86,8.72,8.72,0,0,0,.16-1.51c0-1.78-.86-2.8-2.54-2.91-.21,0-.27-.06-.27-.22,0-.48,1.84-1.35,2.86-1.35,1.73,0,3.56,1.62,3.56,3.19a8,8,0,0,1-.43,2,7.74,7.74,0,0,0,3.45-1.83c1.83.92,2.37,1.3,2.37,1.73,0,.64-1.18,1.13-6.3,2.64a62.09,62.09,0,0,1-6.15,11.49,8.53,8.53,0,0,1,3.56-1,5.55,5.55,0,0,1,3.45,1.24c.86.81,1.35,1.73,2,3.83C402.27,165.31,403.57,163.37,405.73,161.48Zm2.31,7c5.18-2.85,6.26-3.5,6.91-4a3,3,0,0,0,1.07-1.89c0-1.35-1.61-2.69-3.28-2.69-2.81,0-6.48,2.53-8.58,6a27.71,27.71,0,0,0-3.18,6.63C403.14,171.19,403.51,171,408,168.49Z"/><path class="cls-1" d="M464.12,153.88a50.79,50.79,0,0,1,.76,6.53c0,5.44-2.48,11.86-6.58,17.14-3.13,4-6,6-8.84,6a4.78,4.78,0,0,1-3.72-2.05,12.56,12.56,0,0,1-2.81-8.52c0-11.43,9.92-20.81,22-20.81,10.68,0,18.12,6.69,18.12,16.28,0,8.58-5.07,15.53-13.59,18.61a33,33,0,0,1-7.38,1.78c-.38,0-.71-.27-.71-.49s.17-.21.92-.43a24.34,24.34,0,0,0,10.19-5.34c3.89-3.34,6.15-8.84,6.15-15,0-5-1.56-8.63-4.64-11a13.89,13.89,0,0,0-8.35-2.8Zm-2.15.22a19.18,19.18,0,0,0-15.8,19.09c0,4,1.51,7,3.56,7,2.32,0,6.63-4.37,9.27-9.39,2.1-4.1,3.78-9.65,3.78-12.72a10.6,10.6,0,0,0-.7-3.72Z"/><path class="cls-1" d="M534.44,186.4c1.73,0,3.08,1.08,3.08,2.48s-1.14,2.16-3.24,2.16a21,21,0,0,1-10.14-2.54,9.87,9.87,0,0,1-5.39-8.84c0-2.7.48-4.1,2.8-8a26.22,26.22,0,0,0-10,6.8c-.54.64-.91.86-1.4.86-.86,0-1.29-1-1.29-3.18,0-1.57.27-2,2.86-4.75,2.69-2.91,2.75-2.91,7.92-8.79l5.66-6.14c1.14-1.3,1.89-2.16,2.05-2.27,1.3-1.24,1.51-1.62,1.51-2.43,0-1-.64-1.94-1.4-1.94-.48,0-1.18.43-4.74,2.86s-4.1,2.75-4.91,2.75c-1.51,0-3.07-1.78-3.07-3.5,0-1.46.32-2.7.7-2.7.16,0,.21.05.21.38a2.76,2.76,0,0,0,2.32,2.32c.86,0,6-2.16,9.28-3.89a2.12,2.12,0,0,1,1.24-.32c2,0,5.5,3.4,5.5,5.45,0,.91-.49,1.56-1.62,2.15a40.17,40.17,0,0,0-14.61,12c-1.78,2.15-3.62,4.85-3.62,5.28,0,.16.33.33.65.33a3.18,3.18,0,0,0,1.4-.44A105.79,105.79,0,0,1,531,166.71c4.58-1.4,7.07-2,7.77-2a3.88,3.88,0,0,1,2.64,1.72,4.44,4.44,0,0,1,1.24,2.1c0,.44-.65.87-1.4.87-.27,0-.7-.06-1.19-.11a23.22,23.22,0,0,0-3.4-.22c-4.47,0-9.6,1.19-12.13,2.75-2.16,1.35-3.83,4.7-3.83,7.72,0,4.47,3.94,6.95,10.95,6.95.75,0,1.18,0,1.83,0ZM545,158.09a2,2,0,0,1-1.89,1.88c-.54,0-.81-.26-1.29-1.18a9,9,0,0,0-5.24-4.15c-.32-.06-.37-.11-.37-.27s.7-.38,1.83-.38C541.51,154,545,156,545,158.09Zm4.47-3.35a1.92,1.92,0,0,1-1.88,1.94c-.44,0-.65-.16-.92-.64a9.29,9.29,0,0,0-5.61-4.69c-.27-.11-.32-.17-.32-.27s.64-.38,1.78-.38C546,150.7,549.43,152.64,549.43,154.74Z"/><path class="cls-1" d="M578.44,152.64c0-3.56-.54-4.42-2.75-4.53-.43-.05-.48-.05-.48-.21,0-.44,2.1-1.41,3-1.41a8.33,8.33,0,0,1,3.4,1.14,2.2,2.2,0,0,1,1.13,1.61,6,6,0,0,1-.38,1.51,28.9,28.9,0,0,0-.92,4.48c2.43-.92,3.24-1.46,3.83-2.48,1.67.11,3.24,1.13,3.24,2,0,.49-.27.7-1.3,1.19a37.21,37.21,0,0,1-6.31,2.32c-.37,2.8-.43,3.18-.8,5.88a2.44,2.44,0,0,1,1.88,2.32c0,.75-.43,2.48-1.72,6.79-1.51,5.18-2,7.66-2,9.65,0,2.48,1.89,3.61,6.09,3.61a32,32,0,0,0,10.36-1.88c1.83-.87,2.53-2.16,2.53-4.75,0-1.62-.05-2.26-.81-10.19-.38-3.56-.54-6.15-.54-7.76,0-3.46,1.4-5.24,4.1-5.24,4.91,0,11.16,5.13,11.16,9.17,0,1.78-1.45,3.78-2.69,3.78-.22,0-.38-.11-.54-.38-1.3-1.46-2.54-1.89-5.67-1.83-.43,0-.64-.11-.64-.38s0-.27.48-.33a2.47,2.47,0,0,0,.65-.16c.75-.1,1.35-.27,1.94-.37,1.67-.33,2.21-.71,2.21-1.51a8,8,0,0,0-2.15-3.94c-1.57-1.67-3.56-2.75-5-2.75s-2.37,1.4-2.37,4.26a63.55,63.55,0,0,0,1.35,12.19c.8,3.66,1.51,5.23,2.85,6.41a2.82,2.82,0,0,1,.27,1.24c0,1.73-1.13,3.24-3.29,4.48-3,1.67-8,2.75-12.72,2.75-6.9,0-10.19-2.1-10.19-6.53a26.6,26.6,0,0,1,.64-4.53,2.81,2.81,0,0,1-2.1.81c-2.1,0-3.45-2.48-3.45-6.25,0-5.12,2.91-9.22,6.52-9.22a5.37,5.37,0,0,1,.81,0c.11-2.43.16-2.8.27-4.8a26.92,26.92,0,0,1-7,1.35c-1.72,0-2.48-.43-3.07-1.73a9.59,9.59,0,0,1-.81-3.82c0-.27.11-.44.32-.44s.16.06.27.27a3.72,3.72,0,0,0,3.88,2.92,26.42,26.42,0,0,0,6.53-1.24,17.86,17.86,0,0,1,.05-2Zm-4,14.67a12.73,12.73,0,0,0-1.24,5.61c0,2.1.81,3.56,1.94,3.56s1.57-.76,1.89-2.59c.43-2.32,1-6.26,1-6.74,0-1.08-.38-1.73-1.08-1.84S575.05,166.18,574.45,167.31Z"/><path class="cls-1" d="M106.77,221.68h12v-6.47l4.37.54a.94.94,0,0,1,.92.92,1.26,1.26,0,0,1-.76,1l-1.13.7v3.29h13.75l3.4-3.67,4,3.67a1.11,1.11,0,0,1,.43.81c0,.38-.27.54-.92.54H124.24l1.46.81c.37.16.54.38.54.59s-.17.38-.43.49l-.49.16c4.26,4.1,11.05,7.17,19,8.57a11.4,11.4,0,0,0-3.45,3.67c-8-3.24-12.24-6.2-16.72-11.65a64.16,64.16,0,0,1-13.26,10.57l2,1.08h5.55l1.3-1.94,2.69,2a1.22,1.22,0,0,1,.6.92.84.84,0,0,1-.49.7l-.65.33v11.32a2.12,2.12,0,0,1-1.18,2.26,5.13,5.13,0,0,1-1.78.65c-.38,0-.43-.11-.76-1.29a.74.74,0,0,0-.48-.49l-2.38-.91.17-.71c.86.06,1.78.06,2.37.06.91,0,1.13-.22,1.13-1.3v-2.32h-6.63v5.18c0,.86-.86,1.46-2.11,1.46-.48,0-.7-.27-.7-.81V236.83c-2,1.08-2.53,1.3-2.85,1.3a.31.31,0,0,1-.33-.32c0-.27,0-.27,2.32-1.89A53,53,0,0,0,121.33,223H105.91v12.46c0,10.3-1.46,15.69-5.77,21.78-1.94,2.7-3.67,4.59-4.26,4.59a.46.46,0,0,1-.43-.38c0-.27,0-.27,1.51-2.59A32.89,32.89,0,0,0,102.13,243L99,245l-.53,1.19c-.27.7-.6,1-1,1a1,1,0,0,1-.75-.43l-2.27-3.29c3.4-.92,4-1.14,7.93-2.43.11-3.4.16-4.85.16-7.22,0-2.59,0-2.92-.27-14.51Zm-12,4.37c3.72,2.1,5.66,4.74,5.66,7.77,0,1.61-.81,2.64-2,2.64s-1.62-.65-1.68-2.75a12.25,12.25,0,0,0-2.26-7.12Zm15.8,28.09a14.14,14.14,0,0,1,.32,2.43c0,3.13-2.21,6.42-4.31,6.42a1.72,1.72,0,0,1-1.78-1.73c0-1,.32-1.45,1.89-2.42a6.84,6.84,0,0,0,3.23-4.59ZM119,241.36v-2.75h-6.63v2.75Zm0,3.94v-2.64h-6.63v2.64Zm-.75,8.41c.59.06,1,.43,1,.87a1.19,1.19,0,0,1-.54.91l-1,.7v3.13c0,1,.43,1.13,3.56,1.13,8.35,0,8.46,0,9.05-2.05l1-3.66h.75v4.15a2,2,0,0,0,.05.65c.11.1.44.43.92.81a1.11,1.11,0,0,1,.54.91c0,1.51-2.1,2-8.14,2a70.72,70.72,0,0,1-9-.33,2.06,2.06,0,0,1-1.78-2.05v-7.54Zm-2.38-20.27h9.44l2.16-2.54,3.45,2.54a.74.74,0,0,1,.43.7c0,.38-.16.59-.54.59H115.88ZM121.76,253a8.77,8.77,0,0,1,3.51,1.46,3.93,3.93,0,0,1,1.72,2.91,1.77,1.77,0,0,1-1.72,1.67,1.38,1.38,0,0,1-1-.48,19.59,19.59,0,0,1-1-2.48,7.66,7.66,0,0,0-1.78-2.65Zm8.2-14.4a.87.87,0,0,1,.75.81,1.07,1.07,0,0,1-.43.81l-1.13.86v7.55c0,.81-.86,1.41-2.1,1.41-.49,0-.71-.27-.71-.76v-11Zm8.41-1.34a.74.74,0,0,1,.7.81,1,1,0,0,1-.48.75l-1,.75V250a2.24,2.24,0,0,1-1.34,2.32,4.28,4.28,0,0,1-1.57.49c-.43,0-.59-.22-.64-.81s-.27-1-.71-1.13l-2.21-1v-.54h3c.38,0,.49-.16.54-.86V236.78Zm-4.75,16.61c5.56,1.34,9.28,4.25,9.28,7.33a1.83,1.83,0,0,1-1.73,1.94c-.91,0-.91,0-3-3.94a12.18,12.18,0,0,0-4.63-4.85Z"/><path class="cls-1" d="M201.14,249.88c0,.92-1.24,2.92-3.08,5C193.8,259.64,189,262,183.29,262c-3.83,0-6.85-1.14-9-3.4-2.26-2.43-3.23-5.61-3.23-10.51,0-3.24,0-3.94,1.08-18,.32-4.53.32-4.53.32-5.17,0-3.45-.81-4.91-2.64-4.91-.33,0-.49-.11-.49-.27,0-.59,1.13-1.08,2.37-1.08,2.75,0,5.4,3.13,5.4,6.47,0,.81,0,.87-.81,4.1a115.78,115.78,0,0,0-2.27,18.5c0,7.55,3,10.94,9.71,10.94a20,20,0,0,0,11.81-4.36,21.31,21.31,0,0,0,4.58-4.37c.22-.38.43-.54.65-.54A.43.43,0,0,1,201.14,249.88Z"/><path class="cls-1" d="M245.19,225.78a50.7,50.7,0,0,1,.76,6.52c0,5.45-2.48,11.87-6.58,17.15-3.13,4.05-6,6-8.84,6a4.78,4.78,0,0,1-3.72-2.05,12.56,12.56,0,0,1-2.81-8.52c0-11.43,9.92-20.81,22-20.81,10.68,0,18.12,6.68,18.12,16.28,0,8.58-5.07,15.53-13.59,18.61a33.22,33.22,0,0,1-7.39,1.78c-.37,0-.7-.27-.7-.49s.16-.21.92-.43a24.34,24.34,0,0,0,10.19-5.34c3.88-3.34,6.15-8.84,6.15-15,0-5-1.56-8.63-4.64-10.95a13.9,13.9,0,0,0-8.36-2.8ZM243,226a19.17,19.17,0,0,0-15.8,19.08c0,4,1.51,7,3.56,7,2.31,0,6.63-4.37,9.27-9.39,2.1-4.1,3.78-9.65,3.78-12.72a10.39,10.39,0,0,0-.71-3.72Z"/><path class="cls-1" d="M316.32,233.82c-.81,13.21-.92,14-1.78,17.25a12.77,12.77,0,0,1-12.78,9.65c-7.28,0-12-5.07-12-13.05a21.68,21.68,0,0,1,4-12.29c1.19-1.78,1.89-2.7,5.72-7.5-4.32,2.05-6.15,2.75-7.23,2.75s-1.83-.59-2.48-2.1a8,8,0,0,1-.81-3c0-.16.06-.21.16-.21s.22.05.27.21a3.5,3.5,0,0,0,3,2.11,17.16,17.16,0,0,0,6.36-2.11,14.88,14.88,0,0,0,3-2.37c.32-.27.48-.38.75-.38,1.35,0,4.16,2.05,4.16,3,0,.38-.27.65-.92.81a8.34,8.34,0,0,0-4.15,1.94,24.83,24.83,0,0,0-8.52,18.72c0,6,3.29,9.49,8.84,9.49,5.93,0,9.92-4.48,11.92-13.38.81-3.72,1-5.44,1-11.86-1.51-4.64-2.26-7.66-2.26-8.9a2.85,2.85,0,0,1,2.69-2.59c.71,0,1.14.76,1.14,1.89a9.92,9.92,0,0,1-.06,1.19v.59a24.55,24.55,0,0,0,1.57,8.9c1.72,3.72,4.9,6.9,9.38,9.44,1.46.8,2,1.61,2,2.8,0,1.4-.8,2.37-1.94,2.37-.91,0-2.21-.75-3.61-2.1-2.86-2.7-5-5.93-7.17-11.11Z"/><path class="cls-1" d="M367.44,242.17c-1.94-2.85-2.37-4.36-2.37-8,0-1.51.16-5.29.32-8.41l.05-1.68c0-2.91-1.24-4-4.31-4a2,2,0,0,0-.65.05h-.11c-.32,0-.48-.1-.48-.27,0-.7,2.64-1.56,4.85-1.56a9.16,9.16,0,0,1,4.48,1.3,2.61,2.61,0,0,1,1.24,2.42,11.59,11.59,0,0,1-.65,3.13,51.93,51.93,0,0,0-1.83,12c0,2.11.65,3.62,1.62,3.62.64,0,4.26-2,5.44-3.08.65-.54.92-.64,1.4-.64,1.57,0,3.56,1.34,3.56,2.37,0,.81-.81,1.35-2.75,1.94a54.2,54.2,0,0,1-6.63,1.35,12.23,12.23,0,0,0-4.58,1.83c-4,2.32-6,5.34-6,8.9,0,3.83,3.12,5.72,9.38,5.72a36.55,36.55,0,0,0,11.16-2,3.25,3.25,0,0,1,1.3-.38,3.6,3.6,0,0,1,3.07,3,1.49,1.49,0,0,1-1,1.24c-1.89.86-6.85,1.51-11.43,1.51a28.85,28.85,0,0,1-10.36-1.51c-3.39-1.46-5.33-4.1-5.33-7.17,0-4.15,4-8.63,10-11.33Z"/><path class="cls-1" d="M430,242.17c-1.94-2.85-2.37-4.36-2.37-8,0-1.51.16-5.29.32-8.41l.06-1.68c0-2.91-1.24-4-4.32-4a2,2,0,0,0-.65.05h-.1c-.33,0-.49-.1-.49-.27,0-.7,2.64-1.56,4.85-1.56a9.16,9.16,0,0,1,4.48,1.3A2.61,2.61,0,0,1,433,222a11.59,11.59,0,0,1-.65,3.13,51.93,51.93,0,0,0-1.83,12c0,2.11.65,3.62,1.62,3.62.64,0,4.26-2,5.44-3.08A1.9,1.9,0,0,1,439,237c1.56,0,3.56,1.34,3.56,2.37,0,.81-.81,1.35-2.75,1.94a54.73,54.73,0,0,1-6.64,1.35,12.3,12.3,0,0,0-4.58,1.83c-4,2.32-6,5.34-6,8.9,0,3.83,3.13,5.72,9.38,5.72a36.55,36.55,0,0,0,11.16-2,3.25,3.25,0,0,1,1.3-.38,3.6,3.6,0,0,1,3.07,3,1.49,1.49,0,0,1-1,1.24c-1.89.86-6.85,1.51-11.43,1.51a28.75,28.75,0,0,1-10.35-1.51c-3.4-1.46-5.34-4.1-5.34-7.17,0-4.15,4-8.63,10-11.33Z"/><path class="cls-1" d="M503.06,234a17.38,17.38,0,0,0,3.56-2.37c.7-.76.86-.87,1.29-.87,1.73,0,3.67.92,3.67,1.73s-1.08,1.67-4.64,3.34a42.46,42.46,0,0,1-5.88,2.48,79.41,79.41,0,0,0,5.34,6.74c1.62,1.84,2.27,3.24,2.27,4.86,0,2.1-1.4,3.88-3.08,3.88-.37,0-.59-.16-1.45-.92a17.64,17.64,0,0,0-11.76-4.26c-4.69,0-7.76,2.32-7.76,5.77,0,3.08,3,4.7,8.57,4.7.75,0,1.51,0,2.48-.06s1.56-.05,2-.05c2.15,0,2.75.38,2.75,1.56,0,1.84-1.41,2.54-5,2.54a26,26,0,0,1-8.85-1.46c-3.29-1.35-5.07-3.72-5.07-6.79,0-4.64,4.32-7.55,11.22-7.55a26.5,26.5,0,0,1,8.3,1.61,3.38,3.38,0,0,0,1.57.49,1,1,0,0,0,1-1c0-1.08-1.51-4.21-4.53-9.28A57.63,57.63,0,0,1,484,241.58c-3.83,0-6.26-1.94-6.26-5,0-.32.17-.59.38-.59s.33.1.65.75c.65,1.51,2.86,2.48,5.55,2.48a38.73,38.73,0,0,0,13.27-2.53c-1-1.89-1.08-2-3.29-5.83a31.4,31.4,0,0,1-8.36,1.3c-3.23,0-5.55-1.51-5.55-3.62,0-.37.21-.64.43-.64s.27.05.38.54c.32,1.13,1.67,1.78,3.61,1.78a21.55,21.55,0,0,0,8-1.62,48.54,48.54,0,0,0-4.15-5.88,5.47,5.47,0,0,0-4.26-2.1,1.1,1.1,0,0,0-.43.05,1.43,1.43,0,0,1-.44.06.24.24,0,0,1-.21-.22,3.54,3.54,0,0,1,1.24-1.46,4,4,0,0,1,2.69-1,7.69,7.69,0,0,1,4.32,1.46c.48.43.59.64.59,1.88.06,1.62.54,2.86,2.64,6.42a12.8,12.8,0,0,0,3-2.1c.81-.7,1.3-1,1.73-1,1.08,0,2.64,1.13,2.64,1.83,0,.92-2,2.21-6,3.83,1.4,2.37,2.1,3.5,3.29,5.39A21.05,21.05,0,0,0,503.06,234Z"/></g></g></svg>