<svg xmlns="http://www.w3.org/2000/svg" viewBox="0 0 579.14 32.58"><defs><style>.cls-1{isolation:isolate;}.cls-2{fill:#333;}</style></defs><title>challenge-enjoy-point-title</title><g id="Layer_2" data-name="Layer 2"><g id="Layer_1-2" data-name="Layer 1"><g class="cls-1"><path class="cls-2" d="M9.21,14.33a47.84,47.84,0,0,0,5.54-.54c0-.44,0-.76,0-1,0-2.41-.43-3.64-1.33-3.71-4,1.37-5.9,1.76-8.28,1.76-.57,0-.93-.14-.93-.39s.1-.18.39-.22a2.83,2.83,0,0,0,.4-.11c.21,0,.46-.1.72-.14a27.91,27.91,0,0,0,7.55-2.92c3.28-1.76,3.78-2.12,3.78-2.73a1.49,1.49,0,0,0-.5-1.19c-.11-.07-.18-.14-.18-.21s.18-.15.36-.15c1.44,0,4.85,1.69,4.85,2.41,0,.33-.14.44-1.65,1.19a44,44,0,0,1-4.71,2.09c1.76.93,2.62,1.62,2.62,2.09a2.32,2.32,0,0,1-.07.36A3.8,3.8,0,0,0,17.52,12c0,.82-.07,1.58-.07,1.58,4-.47,5.79-.83,6.84-1.33.61-.33.64-.33.9-.33a4,4,0,0,1,2,.83c1.47.94,1.72,1.19,1.72,1.59a.9.9,0,0,1-.9.82,6.36,6.36,0,0,1-.79-.07,36.91,36.91,0,0,0-5.07-.43c-1.12,0-3.64.11-4.79.18a21.49,21.49,0,0,1-2.3,8A17.54,17.54,0,0,1,6.8,30.38,4.23,4.23,0,0,1,5,31c-.25,0-.43-.15-.43-.33s0-.21.57-.47c5.72-2.88,9.07-8.2,9.5-15.11a55.34,55.34,0,0,0-9.82,1.8,5,5,0,0,1-1.62.39A4.1,4.1,0,0,1,.65,15.69,2.41,2.41,0,0,1,0,13.86c0-.15.07-.22.18-.22s.25,0,.43.22a4.62,4.62,0,0,0,3.13.83c.4,0,.4,0,2.77-.18Z"/><path class="cls-2" d="M50.74,11.73a15.67,15.67,0,0,0,.58,3.75c1.15-.4,1.51-.51,3.27-1a25.88,25.88,0,0,0,4.75-1.69,1.72,1.72,0,0,1,.54-.18c.29,0,1,.54,2.41,1.65.65.58.94.94.94,1.26s-.15.36-.9.58a7.64,7.64,0,0,0-3.1,2c-1.91,1.66-2.7,2.23-3,2.23a.37.37,0,0,1-.4-.32c0-.22.08-.36.47-.76a12.57,12.57,0,0,0,2.48-4c0-.21-.28-.36-.75-.36-1.3,0-3.1.47-6.44,1.73.36,1.37.47,1.73.79,2.77.18.58.68,2.2,1.51,4.79l1,3.24c.9,3,.9,3,.9,3.49s-.36,1.22-.79,1.22a2.33,2.33,0,0,1-1.37-.72,1.84,1.84,0,0,1-.79-1.62A114.34,114.34,0,0,0,50,17.21c-3.31,1.22-5.11,2-5.65,2.44s-.68.43-.94.43A3.55,3.55,0,0,1,41,18.83,3.41,3.41,0,0,1,40.38,17c0-.21.11-.36.21-.36s.18.08.29.26a1.61,1.61,0,0,0,1.62.79A42.7,42.7,0,0,0,49.62,16c-1.11-4.25-1.51-5-2.69-5a3.36,3.36,0,0,0-.69.08,1.22,1.22,0,0,1-.25.07.31.31,0,0,1-.25-.29c0-.11.14-.29.57-.79a1.56,1.56,0,0,1,1.16-.54,8.65,8.65,0,0,1,2.37.43c.65.22,1,.5,1,.9,0,.07,0,.25-.07.54Z"/><path class="cls-2" d="M79.42,13.71V12.56c0-.68,0-1.15,0-1.33a2.91,2.91,0,0,0-2.31-3c-.17-.07-.28-.15-.28-.22s1.08-.5,1.87-.5,1.58.4,3,1.4a8.22,8.22,0,0,0,.68.51c.43.28.58.43.58.61s0,.11-.22.47a6.45,6.45,0,0,0-.72,2.73c-.29,2.88-.43,5.11-.43,6.73,0,2.49.11,2.85.83,2.85,1.51,0,4.89-1.73,8.42-4.32a53.89,53.89,0,0,0,10.43-10c.32-.46.43-.53.54-.53s.33.25.33.43a12.57,12.57,0,0,1-1.41,2.52,41,41,0,0,1-8,8.67,40.66,40.66,0,0,1-8.13,5.29,7.68,7.68,0,0,0-2.41,1.66c-.33.36-.54.5-.69.5a6.18,6.18,0,0,1-1.51-1,2.77,2.77,0,0,1-1.08-1.4,1.23,1.23,0,0,1,.15-.54,4.79,4.79,0,0,0,.46-2Z"/><path class="cls-2" d="M122.1,11.45A1.5,1.5,0,0,1,120.45,13c-.47,0-.72-.18-1.08-.82a7.93,7.93,0,0,0-5.54-4.43c-.22-.07-.33-.15-.33-.25,0-.26.65-.44,1.7-.44C118.65,7.05,122.1,9.25,122.1,11.45Zm-4.67,16a5.43,5.43,0,0,1-2.6-1.87,2.66,2.66,0,0,1-.89-2.27c0-.69.18-1.23.43-1.23s.21.08.29.26a2.53,2.53,0,0,0,2.15,1.83c1.48,0,5.83-2.7,11-6.84a70.11,70.11,0,0,0,6.73-6c.72-.72,2.66-3,3-3.38s.43-.58.61-.58a.3.3,0,0,1,.29.33c0,.57-1.58,3-3.38,5.22a55.77,55.77,0,0,1-7.7,7.77,54.88,54.88,0,0,1-8.56,5.9C118.18,27.18,117.79,27.43,117.43,27.43Z"/><path class="cls-2" d="M155.25,14.07c1.37.9,2,1.73,2,2.81a1.53,1.53,0,0,1-1.44,1.48c-.58,0-.9-.25-1.22-.87a8.26,8.26,0,0,0-4.54-4c-.21-.07-.32-.15-.32-.25s.57-.36,1.29-.36A9.12,9.12,0,0,1,155.25,14.07Zm-.43,15c-.9,0-2.41-1.15-3.24-2.52A3.33,3.33,0,0,1,151,24.4c0-.36.11-.54.32-.54s.18.08.47.47a2.68,2.68,0,0,0,2.59,1.37c1.23,0,3.38-1,6.15-2.77a73.42,73.42,0,0,0,11.05-9.5,40,40,0,0,0,3.85-4.79c.29-.43.43-.58.58-.58s.25.22.25.4c0,.68-1.8,3.71-3.53,6a52.64,52.64,0,0,1-15.51,13.21c-1.18.68-1.69,1-1.76,1A.81.81,0,0,1,154.82,29.08Zm4.75-21.7c1.36.83,2,1.73,2,2.88A1.62,1.62,0,0,1,160,12c-.61,0-.82-.18-1.22-1a7.88,7.88,0,0,0-5.29-4.07c-.25,0-.36-.07-.36-.21,0-.29.69-.47,1.69-.47A10.54,10.54,0,0,1,159.57,7.38Zm14.75-1.19a1.25,1.25,0,0,1-1.15,1.19c-.51,0-.72-.15-1-.72a6.48,6.48,0,0,0-3.35-2.88c-.25-.07-.36-.11-.36-.22s.44-.25,1-.25C172,3.31,174.32,4.68,174.32,6.19Zm4.06-1.55a1.28,1.28,0,0,1-1.18,1.23,1.06,1.06,0,0,1-1-.72,6.54,6.54,0,0,0-3.53-3c-.18,0-.25-.11-.25-.18s.54-.29,1.12-.29C176,1.69,178.38,3.17,178.38,4.64Z"/><path class="cls-2" d="M204.91,10.87c4.43-.72,4.61-.79,5.72-1.58.33-.29.43-.33.69-.33s.71.18,1.69,1c1.29,1.11,1.4,1.26,1.4,1.62,0,.14-.11.28-.36.43-.58.32-.61.39-1,2.41-1.15,5.61-1.94,8.17-3.13,10.29s-2.88,3.39-4.5,3.39c-.25,0-.43-.11-.43-.29v-.25a.93.93,0,0,0,0-.33,5.53,5.53,0,0,0-1.8-3.81c-.32-.29-.4-.33-.4-.4s.26-.32.36-.32,0,0,.47.25l.33.22c1.65,1.11,1.69,1.15,2.19,1.15,1.26,0,2.19-1.3,3.24-4.46a29.7,29.7,0,0,0,1.29-7.35c0-.93-.21-1.29-.79-1.29a33.39,33.39,0,0,0-6.08.9,30.82,30.82,0,0,1-4.75,10.15,20.67,20.67,0,0,1-7.91,6.22,14.18,14.18,0,0,1-2.45,1,.57.57,0,0,1-.5-.47c0-.15.1-.25.53-.4a23.81,23.81,0,0,0,12.53-16c-1.26.29-3.42.94-4.65,1.37a3.26,3.26,0,0,1-1.36.39,4.77,4.77,0,0,1-2.41-1.22,2.64,2.64,0,0,1-.72-1.91c0-.25.11-.39.28-.39s.15,0,.26.21c.43.76.93,1,2.08,1a52.8,52.8,0,0,0,6.8-.72,40.09,40.09,0,0,0,.58-5,2.62,2.62,0,0,0-1.26-2.37.42.42,0,0,1-.11-.22c0-.25.29-.39.87-.39a4.11,4.11,0,0,1,2.48,1.08c1.22.89,1.37,1,1.37,1.4,0,.14,0,.14-.18.43a9.9,9.9,0,0,0-.54,1.84c-.26,1-.33,1.29-.51,2-.07.32-.1.43-.21.82Z"/><path class="cls-2" d="M231.58,19.19a7.73,7.73,0,0,1-1.66.25,4.38,4.38,0,0,1-3.16-2,10,10,0,0,1-.25-2c0-.25.1-.43.28-.43s.18.07.29.25c.47,1,1.33,1.4,3.42,1.4a168.69,168.69,0,0,0,20.8-1.47,8.44,8.44,0,0,1,1-.08,2.4,2.4,0,0,1,1.9.8c.69.64.94,1,.94,1.33,0,.54-.72.86-1.87.86-.29,0-.68,0-1.33,0S248.2,18,246.69,18A96.42,96.42,0,0,0,231.58,19.19Z"/><path class="cls-2" d="M272.93,14.43c0,6.45.11,9.87.29,12.28.07.75.1,1.29.1,1.62,0,1.51-.54,2.63-1.29,2.63s-1.91-1.62-1.91-2.52a5.13,5.13,0,0,1,.11-.94c.29-2,.58-10,.58-17.17,0-3.38-.15-4.61-.58-5.33a1.81,1.81,0,0,0-1.73-.9c-.25,0-.36-.1-.36-.32s.11-.25.33-.36a10.2,10.2,0,0,1,2.19-.58c.54,0,1,.26,2.63,1.26.46.33.68.58.68.83a2,2,0,0,1-.18.69c-.57,1-.79,2.66-.86,6.69a15.33,15.33,0,0,1,7.55,2.34c1.95,1.33,2.85,2.48,2.85,3.64a1.48,1.48,0,0,1-1.51,1.58c-.8,0-1.19-.33-2.09-1.69a13,13,0,0,0-6.8-5.29Z"/><path class="cls-2" d="M313,12.09a8.3,8.3,0,0,1,5.36-2.3c2.56,0,4.54,1.51,4.54,3.46a2.12,2.12,0,0,1-.94,1.9c-.76.58-1,.65-4.32,2a64.76,64.76,0,0,0-7.7,3.49c.11,1.59.18,2.74.18,3.32,0,1.8-.36,2.26-1.8,2.26-.43,0-.64-.14-.64-.36a1,1,0,0,1,0-.28,28.77,28.77,0,0,0,.18-3.89c-3.09,1.83-4.35,3.27-4.35,4.89,0,1.8,1.69,2.52,5.9,2.52a20.78,20.78,0,0,0,5.29-.64,2.71,2.71,0,0,1,.93-.18,1.92,1.92,0,0,1,1.73,1.47c0,1.19-2.37,1.8-7.27,1.8a11.84,11.84,0,0,1-5.86-1.08,4.28,4.28,0,0,1-2.49-3.67,4.55,4.55,0,0,1,1.84-3.38,26.68,26.68,0,0,1,4.24-2.78,13.73,13.73,0,0,0-.46-4.53,1.87,1.87,0,0,0-1.69-1.26,4.21,4.21,0,0,0-2.56,1.33A21.74,21.74,0,0,0,300,20c-.4.69-.79,1-1.19,1s-1.26-1.19-1.26-2.12c0-.47.15-.72.86-1.26,3.89-3.39,6.27-6.88,6.95-10.22a11.25,11.25,0,0,1-3.13.61,2.23,2.23,0,0,1-1.87-1.3,4.68,4.68,0,0,1-.54-1.37.15.15,0,0,1,.14-.14s.11,0,.18.14a2.27,2.27,0,0,0,2.12.94,9.58,9.58,0,0,0,3.28-.58,6.26,6.26,0,0,0,.11-1A1.7,1.7,0,0,0,304,2.77c-.15,0-.18,0-.18-.14,0-.33,1.22-.9,1.9-.9a2.48,2.48,0,0,1,2.38,2.12,5.49,5.49,0,0,1-.29,1.37A5.25,5.25,0,0,0,310.1,4c1.23.61,1.58.86,1.58,1.15s-.79.75-4.2,1.76a41.42,41.42,0,0,1-4.11,7.67,5.64,5.64,0,0,1,2.38-.65,3.63,3.63,0,0,1,2.3.83,5.13,5.13,0,0,1,1.33,2.55A14.67,14.67,0,0,1,313,12.09Zm1.55,4.68a36.63,36.63,0,0,0,4.6-2.7,2,2,0,0,0,.72-1.26,2.17,2.17,0,0,0-2.19-1.8c-1.87,0-4.32,1.7-5.72,4a18.42,18.42,0,0,0-2.13,4.43C311.25,18.57,311.5,18.43,314.53,16.77Z"/><path class="cls-2" d="M348,16.67h-2.37v1.47c0,.4-.65.72-1.44.72-.4,0-.65-.21-.65-.54V3.6L346,5h1.62a31.69,31.69,0,0,0,.68-5l2.84.47c.43.07.69.32.69.61a1,1,0,0,1-.51.75l-.75.55L349,5h3.46l.86-1.37,2.05,2a.86.86,0,0,1,.25.58.65.65,0,0,1-.4.54l-.57.32V17.49c0,.65-.68,1.12-1.62,1.12-.32,0-.47-.18-.47-.54v-1.4h-2.41V20.8h10l1.87-2.33L365,20.84c.25.18.36.36.36.5a.37.37,0,0,1-.4.33H351.13c3.52,3.56,8.85,6,15,6.91a9.84,9.84,0,0,0-2.76,2.81,29.37,29.37,0,0,1-7.42-3.78,25.73,25.73,0,0,1-5.72-5.47v9.5a.5.5,0,0,1-.11.36,2.77,2.77,0,0,1-1.58.58.52.52,0,0,1-.54-.47V22.93a39.69,39.69,0,0,1-9.86,6.62,22,22,0,0,1-5.11,2,.29.29,0,0,1-.32-.29c0-.18,0-.18,2.12-1.26a40.81,40.81,0,0,0,11-8.31h-5.47c-2.48.07-3.59.07-6.62.18l-.46-1.26,3.84.14c1.59,0,2.67.07,3.24.07H348Zm-5.29-4-5.83,4.79-.14.69c-.11.46-.4.75-.72.75a.8.8,0,0,1-.4-.14l-2.3-2.27c3.13-1.37,4.21-1.91,9.1-4.5Zm-8.2-8.89c3.63.87,6.08,2.92,6.08,5a1.42,1.42,0,0,1-1.3,1.58,1.21,1.21,0,0,1-.9-.4c-.25-.25-.25-.25-1-2.23a10.78,10.78,0,0,0-3.05-3.53ZM352.6,10.4V5.87h-7V10.4Zm0,5.4V11.27h-7V15.8ZM363.29,5.22a.41.41,0,0,1,.18.32c0,.18-.22.36-.68.47l-1.23.32-5.22,4.4c-.35.28-.53.39-.71.39s-.29-.11-.29-.32.14-.4,1.58-2.23c1-1.34,1.91-2.63,3.82-5.47Zm-7.52,6.55c2.91.47,4.21.86,5.61,1.69s2.3,1.87,2.3,2.88a1.31,1.31,0,0,1-1.26,1.33c-.46,0-.57-.1-2.44-2.26a14.59,14.59,0,0,0-4.28-3Z"/><path class="cls-2" d="M398.67,23.11c0,.61-.83,1.94-2.05,3.35-2.85,3.16-6.09,4.75-9.86,4.75a7.92,7.92,0,0,1-6-2.27c-1.51-1.62-2.16-3.74-2.16-7,0-2.16,0-2.63.72-12,.21-3,.21-3,.21-3.46,0-2.3-.53-3.27-1.76-3.27-.21,0-.32-.07-.32-.18,0-.4.75-.72,1.58-.72,1.84,0,3.6,2.09,3.6,4.32a9.55,9.55,0,0,1-.54,2.73,78.1,78.1,0,0,0-1.51,12.35c0,5,2,7.31,6.47,7.31a13.23,13.23,0,0,0,7.88-2.92A14,14,0,0,0,398,23.14c.15-.25.29-.35.44-.35A.29.29,0,0,1,398.67,23.11Z"/><path class="cls-2" d="M418.35,6.19c0-2.37-.35-2.95-1.83-3-.29,0-.32,0-.32-.15,0-.28,1.4-.93,2-.93a5.71,5.71,0,0,1,2.27.75,1.51,1.51,0,0,1,.75,1.08,3.58,3.58,0,0,1-.25,1,17.83,17.83,0,0,0-.61,3c1.62-.61,2.16-1,2.55-1.66,1.12.07,2.16.76,2.16,1.33,0,.33-.18.47-.86.8A25,25,0,0,1,420,9.93c-.25,1.88-.29,2.13-.54,3.93a1.63,1.63,0,0,1,1.26,1.55,24.63,24.63,0,0,1-1.15,4.53c-1,3.46-1.37,5.11-1.37,6.44,0,1.66,1.26,2.42,4.07,2.42a21.51,21.51,0,0,0,6.9-1.26c1.23-.58,1.7-1.44,1.7-3.17,0-1.08,0-1.51-.55-6.8-.25-2.38-.35-4.11-.35-5.19,0-2.3.93-3.49,2.73-3.49,3.28,0,7.45,3.42,7.45,6.12,0,1.19-1,2.52-1.8,2.52-.14,0-.25-.07-.36-.25-.86-1-1.69-1.26-3.78-1.23-.29,0-.43-.07-.43-.25s0-.18.32-.21a1.9,1.9,0,0,0,.44-.11c.5-.07.89-.18,1.29-.25,1.12-.22,1.48-.47,1.48-1a5.39,5.39,0,0,0-1.44-2.63,5.27,5.27,0,0,0-3.35-1.84c-1,0-1.58.94-1.58,2.85a42.17,42.17,0,0,0,.9,8.13c.54,2.45,1,3.49,1.9,4.29a1.82,1.82,0,0,1,.18.82c0,1.16-.75,2.16-2.19,3a18.82,18.82,0,0,1-8.49,1.84c-4.61,0-6.8-1.41-6.8-4.36a17.32,17.32,0,0,1,.43-3,1.89,1.89,0,0,1-1.4.54c-1.41,0-2.31-1.66-2.31-4.18,0-3.42,1.95-6.15,4.36-6.15a4,4,0,0,1,.54,0c.07-1.62.1-1.87.18-3.2a17.91,17.91,0,0,1-4.68.9c-1.15,0-1.66-.29-2.05-1.15A6.4,6.4,0,0,1,411,7.52c0-.18.07-.29.21-.29s.11,0,.18.19A2.49,2.49,0,0,0,414,9.36a17.4,17.4,0,0,0,4.35-.83c0-.61,0-1.11,0-1.3ZM415.69,16a8.51,8.51,0,0,0-.83,3.75c0,1.4.54,2.37,1.3,2.37s1-.5,1.26-1.73c.29-1.54.68-4.17.68-4.5,0-.72-.25-1.15-.72-1.22S416.09,15.23,415.69,16Z"/><path class="cls-2" d="M458.3,17.64a11.41,11.41,0,0,1-.79,4.35c-.86,2.09-2.88,3.78-4.5,3.78a1.88,1.88,0,0,1-1.55-1.58c0-.54.19-.69,1.37-1.23a8.87,8.87,0,0,0,4.86-5.43c0-.18.11-.22.25-.22S458.3,17.42,458.3,17.64Zm7.38-4.57c0,.72,0,2.37,0,5l.07,4c0,1.27,0,2.52.08,2.7,0,.69,0,1.3,0,1.66a3.45,3.45,0,0,1-1.26,2.84,3.29,3.29,0,0,1-2.05,1c-.36,0-.5-.22-.54-.8-.11-1.62-.64-2.52-2.41-4-.14-.15-.21-.22-.21-.33a.42.42,0,0,1,.36-.32c.14,0,.36.11.86.43,1.33.87,1.65,1.05,2.05,1.05.86,0,.86,0,.9-7.31,0-3.24.07-4.86.07-4.86v-1a32.39,32.39,0,0,0-7.55,1.59,3,3,0,0,1-1,.25,4,4,0,0,1-1.62-.65A2.83,2.83,0,0,1,452,11.84c0-.21.08-.32.22-.32a.47.47,0,0,1,.29.21c.5.65,1.33.87,3.09.87a77.25,77.25,0,0,0,8-.69c0-5.47-.22-5.86-2.27-6.12-.22,0-.32-.07-.32-.14,0-.36,1.33-1.08,2-1.08a4.53,4.53,0,0,1,2.66,1.08c.58.47.9.83.9,1a.7.7,0,0,1-.11.35c-.46.76-.57,1.37-.75,4.58,4.07-.33,6.26-.72,7.45-1.3.72-.4.72-.4,1-.4.5,0,1,.26,2.19,1.05.83.54,1.08.83,1.08,1.22a.93.93,0,0,1-.86.87,5.13,5.13,0,0,1-.65-.08,35.75,35.75,0,0,0-5.29-.39c-1.51,0-3.6.14-5,.29Zm6.69,4.86c3,1.8,4.79,3.92,4.79,5.75a1.82,1.82,0,0,1-1.7,2c-.68,0-.9-.25-1.29-1.76-.68-2.73-3.24-5.87-5.51-6.69-.18-.08-.25-.15-.25-.26s.18-.28.4-.28A8.5,8.5,0,0,1,472.37,17.93Zm6.19-13.57A3.53,3.53,0,1,1,475.07.83,3.53,3.53,0,0,1,478.56,4.36Zm-5.83,0A2.3,2.3,0,1,0,475,2.05,2.31,2.31,0,0,0,472.73,4.36Z"/><path class="cls-2" d="M504,13.61c1.84.82,1.84.82,1.84,1.18a1.23,1.23,0,0,1-.15.51,8.13,8.13,0,0,0-.32,2.88l.07,3.67V26l0,2.49c0,.46,0,.9,0,1.18,0,.94-.32,1.48-.86,1.48-1.08,0-2.34-.94-2.34-1.76a3.1,3.1,0,0,1,.11-.69,113.51,113.51,0,0,0,.86-12.45,3.65,3.65,0,0,0-.43-2.13,45.88,45.88,0,0,1-9.35,7.42,16.09,16.09,0,0,1-4,1.69c-.14,0-.36-.14-.36-.29s.08-.18.36-.29c5.69-2.59,16.81-14,16.81-17.13,0-.36-.69-1-1.19-1.11-.32-.08-.4-.15-.4-.29s.76-.51,1.48-.51c1.33,0,4.06,1.95,4.06,2.92,0,.25-.1.36-.43.54a2.55,2.55,0,0,0-1.29,1.08,61.29,61.29,0,0,1-5,5.29Z"/><path class="cls-2" d="M533.44,11.45A1.5,1.5,0,0,1,531.79,13c-.47,0-.72-.18-1.08-.82a7.93,7.93,0,0,0-5.54-4.43c-.22-.07-.33-.15-.33-.25,0-.26.65-.44,1.69-.44C530,7.05,533.44,9.25,533.44,11.45Zm-4.68,16a5.46,5.46,0,0,1-2.59-1.87,2.67,2.67,0,0,1-.9-2.27c0-.69.18-1.23.44-1.23s.21.08.28.26a2.55,2.55,0,0,0,2.16,1.83c1.48,0,5.83-2.7,11.05-6.84a70.11,70.11,0,0,0,6.73-6c.72-.72,2.66-3,3-3.38s.43-.58.61-.58a.3.3,0,0,1,.29.33c0,.57-1.58,3-3.38,5.22a56.33,56.33,0,0,1-7.7,7.77,54.55,54.55,0,0,1-8.57,5.9C529.52,27.18,529.12,27.43,528.76,27.43Z"/><path class="cls-2" d="M568.75,14.43c0,6.45.1,9.87.28,12.28.08.75.11,1.29.11,1.62,0,1.51-.54,2.63-1.29,2.63s-1.91-1.62-1.91-2.52a5.13,5.13,0,0,1,.11-.94c.28-2,.57-10,.57-17.17,0-3.38-.14-4.61-.57-5.33a1.81,1.81,0,0,0-1.73-.9c-.25,0-.36-.1-.36-.32s.11-.25.32-.36a10.38,10.38,0,0,1,2.2-.58c.54,0,1,.26,2.63,1.26.46.33.68.58.68.83a2,2,0,0,1-.18.69c-.58,1-.79,2.66-.86,6.69a15.33,15.33,0,0,1,7.55,2.34c2,1.33,2.84,2.48,2.84,3.64a1.47,1.47,0,0,1-1.51,1.58c-.79,0-1.18-.33-2.08-1.69a13,13,0,0,0-6.8-5.29Z"/></g></g></g></svg>