<svg xmlns="http://www.w3.org/2000/svg" viewBox="0 0 612.76 34.27"><defs><style>.cls-1{isolation:isolate;}.cls-2{fill:#333;}</style></defs><title>challenge-subtext</title><g id="Layer_2" data-name="Layer 2"><g id="Layer_1-2" data-name="Layer 1"><g class="cls-1"><g class="cls-1"><path class="cls-2" d="M29.79,17.31H17.23c-.79,6.91-3.13,12.1-10.11,16.06a18.19,18.19,0,0,0-2-1.73c6.48-3.53,8.81-8,9.57-14.33H0V14.94H14.86c.18-2.38.18-4.83.22-7.71A121.51,121.51,0,0,1,2.7,9.29,11.44,11.44,0,0,0,1.94,7.2c12.63-1.51,20.08-4,22.31-5l1.91,2.13a1,1,0,0,1-.47.1,1.84,1.84,0,0,1-.4,0A77,77,0,0,1,17.23,6.8l1.19.11c0,.32-.29.54-.75.61,0,2.7-.08,5.15-.22,7.42H29.79Z"/><path class="cls-2" d="M64.56,14a1,1,0,0,1-.4.25,30.93,30.93,0,0,1-6.47,10A12.1,12.1,0,0,0,55.89,23a25.06,25.06,0,0,0,5.39-7.66L51.21,17.53,54.52,32.9l-2.12.47L49.09,18l-8.21,1.87-.47-2L48.69,16,47.07,8.53l3-.29c0,.29-.18.51-.65.72l1.37,6.55L62.61,13l.26-.18Z"/><path class="cls-2" d="M82.34,29.08c9.14-2.55,16.41-6.94,20.83-14.79a12.85,12.85,0,0,0,1.91,1.8c-4.86,8.28-12.88,13.1-23.71,16a1.08,1.08,0,0,1-.58.72l-1.51-2.52.43-.69V3l3.71.18c0,.4-.36.72-1.08.8Z"/><path class="cls-2" d="M117,4.75a44.63,44.63,0,0,1,10.72,4.9l-1.36,2.26a46.22,46.22,0,0,0-10.51-5Zm-.14,25c12.77-4,21.26-11.13,25.58-21.1a14,14,0,0,0,2.34,1.48c-4.5,9.86-13.28,17.53-25.48,21.6a1.14,1.14,0,0,1-.5.82Z"/><path class="cls-2" d="M155.54,12.31a51.76,51.76,0,0,1,9.68,3.24l-1.08,2.27a52.68,52.68,0,0,0-9.68-3.31Zm2.16,17.6C169.25,26,177.42,19.69,182.17,9a22.06,22.06,0,0,0,2.19,1.62C179.54,21.2,171,28,160.15,31.82a.83.83,0,0,1-.4.9Zm1.8-26.53a58.51,58.51,0,0,1,9.64,3.53L168,9.11a56,56,0,0,0-9.53-3.64ZM176.34,2.2A28.44,28.44,0,0,1,181,7.42l-1.41,1A30.84,30.84,0,0,0,175,3.2Zm5-2.2A33.14,33.14,0,0,1,186,5.18l-1.41,1.05A32.5,32.5,0,0,0,180,1Z"/><path class="cls-2" d="M223.08,10.33a1.27,1.27,0,0,1-.32.47c-.47,10.37-1.48,16.88-2.88,19.44a4.93,4.93,0,0,1-4.71,2.59,38.54,38.54,0,0,1-6.44-.83,12.32,12.32,0,0,0-.11-2.56,36.7,36.7,0,0,0,6.3.9,2.69,2.69,0,0,0,2.77-1.69c1.08-2.19,2-8.24,2.33-16.34H208.51c-1.8,8.6-5.36,15.73-11.87,20.63a12.14,12.14,0,0,0-2-1.59c6.22-4.68,9.5-10.83,11.22-19h-9.93V9.9h10.44a70.74,70.74,0,0,0,.82-7.85l3.57.29c0,.4-.36.61-.9.65-.22,2.63-.4,4.6-.8,6.91h11.66l.58-.22Z"/><path class="cls-2" d="M235.07,15.62h30.05v2.56H236.44a1.65,1.65,0,0,1-1.15.68Z"/><path class="cls-2" d="M296.79,21a128.29,128.29,0,0,0-12.63-5.87v18h-2.7V1.83l3.63.22c0,.4-.32.65-.93.76V13.32l.54-.76a126.12,126.12,0,0,1,13.53,6Z"/><path class="cls-2" d="M340.15,16.23a.46.46,0,0,1-.21.08.88.88,0,0,1-.54-.22c-2.74.9-6.73,2.38-9.72,3.67.07.83.11,1.77.11,2.81s0,2.45-.11,3.85l-2.62.14c.1-1.29.17-2.95.17-4.35,0-.54,0-1,0-1.44-4.07,2-7.38,4.39-7.38,6.55s2.49,3.1,7.45,3.1a82.47,82.47,0,0,0,9-.36l0,2.41c-2.12.21-5.36.29-9.07.29-6.91,0-10-1.66-10-5.33,0-3.17,4.18-6.23,9.58-8.93-.22-2.27-1.23-3.38-2.67-3.38-2.62,0-5.36,1.47-8.6,5.07-1,1.12-2.41,2.52-3.95,3.93l-1.77-1.77c3.6-3.16,7-6.19,9.07-13.28l-2,0h-6V6.77c2.19,0,4.75,0,6.22,0l2.45,0a48.31,48.31,0,0,0,1-5.15l3.52.43c-.07.36-.36.58-.89.65-.26,1.44-.58,2.7-.9,4a49.65,49.65,0,0,0,12.37-2.09L335.11,7a54,54,0,0,1-13.49,2A26.12,26.12,0,0,1,319,15.12h0a9.51,9.51,0,0,1,5.79-2.34c2.45,0,4,1.76,4.46,4.68,3-1.37,6.84-2.85,9.72-4Z"/><path class="cls-2" d="M382.36,23.86h-12.7A30.71,30.71,0,0,0,383,31.42a10.08,10.08,0,0,0-1.62,2.06,33.53,33.53,0,0,1-14.06-8.93v9.72h-2.45V24.4A34.78,34.78,0,0,1,351,33.73a12,12,0,0,0-1.65-2,33,33,0,0,0,13.09-7.85H350V21.71h14.86V18.5l3.17.18c0,.29-.26.47-.72.51v2.52h15ZM349.55,17.1c2.16-1.08,5.33-2.92,8.49-4.72l.69,2c-2.7,1.62-5.54,3.31-7.34,4.35a.73.73,0,0,1-.36.65Zm2.88-14a23.6,23.6,0,0,1,5.79,5.76l-1.83,1.58a23.49,23.49,0,0,0-5.65-6ZM373,4.54V18.32H359.48V4.54h4.61c.39-1.19.82-2.67,1.08-3.75l3,.69c-.07.21-.32.35-.72.35-.25.76-.61,1.77-1,2.71Zm-2.37,5.9V6.51h-8.82v3.93Zm0,5.9v-4h-8.82v4Zm4.1-4.46A47.42,47.42,0,0,1,383,17.17L381.5,19a47,47,0,0,0-8.24-5.5Zm-1-3a45.09,45.09,0,0,0,5.83-6.23L382,4.21c-.11.18-.36.29-.79.22a58.26,58.26,0,0,1-5.72,5.72Z"/><path class="cls-2" d="M399.39,2.38c-.07.43-.39.68-1.11.79-.29,4.17-.65,13.71-.65,19s2.66,8,7.19,8,8.86-2.19,13-6.83a15,15,0,0,0,1.62,2.12c-4.21,4.79-9.32,7.31-14.61,7.31-6.55,0-9.9-3.78-9.9-10.59,0-4.53.33-15.69.58-20.12Z"/><path class="cls-2" d="M441.78,2.27c0,.39-.36.61-1,.75,0,1.37-.15,2.74-.22,4.18a41.33,41.33,0,0,0,7.81-1.48l.39,2.41a41.59,41.59,0,0,1-8.38,1.41c-.25,3.06-.54,5.9-.72,7.67a6.91,6.91,0,0,1,.07,1.22A9.67,9.67,0,0,1,438,24,8.34,8.34,0,0,0,437,27.5c0,2.66,3,3,6.88,3,7.3,0,10.5-1,10.5-4.72,0-1.83-1-4.21-3.31-7a12.59,12.59,0,0,0,2.2-1C455.82,21,457,23.9,457,26.28c0,2.8-1.69,4.86-4.82,5.68a32.7,32.7,0,0,1-8.24.83c-3,0-9.5,0-9.5-4.57a6.75,6.75,0,0,1,.68-2.77,4.65,4.65,0,0,1-1.69.32c-2.19,0-4.32-1.73-4.32-5.22,0-4.28,2.85-6.76,5.83-6.76a3.27,3.27,0,0,1,2.45,1l.4-5.18c-2.92.14-7.67.07-7.7.07V7.42c1.4,0,6.94,0,7.8,0,.15-2,.22-3.89.22-5.44ZM437.4,18.75c0-1.65-.76-3-2.34-3-2.49,0-3.82,2.09-3.82,4.61,0,2,1.05,3.31,2.66,3.31C437,23.65,437.4,19.51,437.4,18.75ZM460,14.33a31.53,31.53,0,0,0-10-2.85l.54-2.23A33,33,0,0,1,460.78,12Z"/><path class="cls-2" d="M479.61,17.78a30,30,0,0,1-6.77,10.62L470.76,27a25.41,25.41,0,0,0,6.51-10.15Zm7.7-5.54V29.12c0,3.92-2.81,3.92-8.57,3.92a15.58,15.58,0,0,0-.75-2.41c1,0,2.19,0,3.16,0h2.09a1.37,1.37,0,0,0,1.48-1.51V12.24H472.48V9.79h12.24V2.2l3.42.18c0,.36-.29.61-.83.68V9.79h12.16v2.45Zm6.44,4.39a71.13,71.13,0,0,1,7.59,10.47L499,28.44a67.16,67.16,0,0,0-7.34-10.66ZM498.43,0a4,4,0,1,1-4.07,4A4,4,0,0,1,498.43,0Zm2.8,4a2.85,2.85,0,0,0-2.8-2.88,2.86,2.86,0,1,0,0,5.72A2.84,2.84,0,0,0,501.23,4.07Z"/><path class="cls-2" d="M540.89,4.14a.81.81,0,0,1-.68.29,1.2,1.2,0,0,1-.36,0A87.34,87.34,0,0,1,529.59,13c.29.11.72.33.87.4a1,1,0,0,1-.8.47V33.19H527V14.69a103.72,103.72,0,0,1-13.71,8,14,14,0,0,0-1.51-2c9.82-4.53,20.58-12.24,26.37-18.61Z"/><path class="cls-2" d="M552.77,4.75a44.45,44.45,0,0,1,10.72,4.9l-1.36,2.26a46.22,46.22,0,0,0-10.51-5Zm-.14,25c12.77-4,21.26-11.13,25.58-21.1a14.42,14.42,0,0,0,2.34,1.48c-4.5,9.86-13.28,17.53-25.47,21.6a1.19,1.19,0,0,1-.51.82Z"/><path class="cls-2" d="M611.32,21a128.29,128.29,0,0,0-12.63-5.87v18H596V1.83l3.64.22c0,.4-.33.65-.94.76V13.32l.54-.76a125.24,125.24,0,0,1,13.53,6Z"/></g></g></g></g></svg>