<svg xmlns="http://www.w3.org/2000/svg" viewBox="0 0 499.34 110.33"><defs><style>.cls-1{fill:#333;}</style></defs><title>challenge-enjoy-point-title</title><g id="Layer_2" data-name="Layer 2"><g id="Layer_1-2" data-name="Layer 1"><path class="cls-1" d="M13.82,19a65.91,65.91,0,0,0,8.32-.81c.05-.64.05-1.13.05-1.51,0-3.62-.64-5.45-2-5.56-6,2-8.86,2.65-12.42,2.65-.87,0-1.41-.22-1.41-.6,0-.16.16-.27.6-.32l.59-.16c.32-.06.7-.17,1.08-.22A41.85,41.85,0,0,0,20,8.05c4.91-2.65,5.67-3.19,5.67-4.11a2.2,2.2,0,0,0-.76-1.78c-.16-.11-.27-.22-.27-.32s.27-.22.54-.22c2.16,0,7.29,2.54,7.29,3.62,0,.48-.21.65-2.48,1.78a68.68,68.68,0,0,1-7.07,3.13c2.64,1.41,3.94,2.43,3.94,3.13,0,.11-.06.27-.11.54a5.52,5.52,0,0,0-.43,1.62c-.06,1.25-.11,2.38-.11,2.38,6.05-.7,8.69-1.24,10.26-2,.92-.48,1-.48,1.35-.48.76,0,1.46.32,3,1.24C43,18,43.36,18.36,43.36,19A1.36,1.36,0,0,1,42,20.2c-.32,0-.75-.06-1.19-.11a54.69,54.69,0,0,0-7.61-.65c-1.67,0-5.45.16-7.18.27-.76,5.51-1.68,8.69-3.46,12A26.43,26.43,0,0,1,10.21,43a6.45,6.45,0,0,1-2.65.86c-.38,0-.65-.21-.65-.48s.06-.33.87-.71C16.36,38.39,21.38,30.4,22,20c-5.94.65-13.23,2-14.74,2.7a7.49,7.49,0,0,1-2.43.6A6.18,6.18,0,0,1,1,21a3.74,3.74,0,0,1-1-2.76c0-.21.11-.32.27-.32s.38.05.65.32c.65.76,2.48,1.24,4.7,1.24.59,0,.59,0,4.15-.27Z"/><path class="cls-1" d="M77,15.07a23.86,23.86,0,0,0,.86,5.61c1.73-.59,2.27-.75,4.92-1.51a39,39,0,0,0,7.13-2.54,2.64,2.64,0,0,1,.81-.27c.43,0,1.56.81,3.61,2.49,1,.86,1.41,1.4,1.41,1.89s-.22.54-1.35.86c-1.94.76-2.11.81-4.65,3-2.86,2.48-4,3.35-4.53,3.35a.55.55,0,0,1-.6-.49c0-.32.11-.54.71-1.13C86.78,24.68,89,21.17,89,20.36c0-.33-.43-.54-1.13-.54-2,0-4.65.7-9.67,2.59.54,2.05.7,2.59,1.19,4.16.27.86,1,3.29,2.27,7.18l1.51,4.86c1.35,4.48,1.35,4.48,1.35,5.24,0,1-.54,1.83-1.19,1.83a3.54,3.54,0,0,1-2-1.08,2.76,2.76,0,0,1-1.19-2.43c.06-1.35-2.37-12-4.32-18.9-5,1.84-7.67,3-8.48,3.68-.7.48-1,.64-1.4.64a5.31,5.31,0,0,1-3.62-1.89,5,5,0,0,1-.86-2.8c0-.33.16-.54.32-.54s.27.1.43.37a2.39,2.39,0,0,0,2.43,1.19,65.66,65.66,0,0,0,10.7-2.48C73.6,15.07,73,14,71.23,14a5.89,5.89,0,0,0-1,.1,1.18,1.18,0,0,1-.38.11.46.46,0,0,1-.38-.43c0-.16.22-.43.87-1.19A2.36,2.36,0,0,1,72,11.77a13.31,13.31,0,0,1,3.56.65c1,.32,1.46.76,1.46,1.35,0,.11-.06.38-.11.81Z"/><path class="cls-1" d="M124.85,18V16.31c-.06-1-.06-1.73-.06-2a4.37,4.37,0,0,0-3.45-4.43c-.27-.11-.43-.21-.43-.32,0-.33,1.62-.76,2.8-.76s2.38.6,4.43,2.11a8.89,8.89,0,0,0,1,.75c.65.44.86.65.86.92s0,.16-.32.7a9.71,9.71,0,0,0-1.08,4.11c-.43,4.32-.65,7.67-.65,10.1,0,3.72.16,4.26,1.24,4.26,2.27,0,7.35-2.59,12.64-6.48,6-4.43,12.53-10.69,15.66-15.06.48-.71.65-.81.81-.81s.48.37.48.64a18.08,18.08,0,0,1-2.1,3.78,61.54,61.54,0,0,1-12,13,61.2,61.2,0,0,1-12.21,7.94,11.83,11.83,0,0,0-3.62,2.48c-.48.54-.81.76-1,.76a9,9,0,0,1-2.27-1.52,4.21,4.21,0,0,1-1.62-2.1,1.7,1.7,0,0,1,.22-.81,7.11,7.11,0,0,0,.7-3Z"/><path class="cls-1" d="M189.7,14.63A2.26,2.26,0,0,1,187.22,17c-.7,0-1.08-.27-1.62-1.25a11.91,11.91,0,0,0-8.32-6.64c-.32-.11-.48-.21-.48-.38,0-.37,1-.64,2.53-.64C184.52,8.05,189.7,11.34,189.7,14.63Zm-7,24c-.81,0-2.59-1.3-3.89-2.81a4,4,0,0,1-1.35-3.4c0-1,.27-1.84.65-1.84.22,0,.33.11.43.38a3.83,3.83,0,0,0,3.24,2.76c2.22,0,8.75-4.05,16.58-10.26a108.11,108.11,0,0,0,10.1-9c1.08-1.08,4-4.43,4.54-5.08s.64-.86.92-.86a.43.43,0,0,1,.43.48c0,.87-2.38,4.54-5.08,7.83a83.55,83.55,0,0,1-11.56,11.67,81.28,81.28,0,0,1-12.85,8.85C183.82,38.23,183.22,38.61,182.68,38.61Z"/><path class="cls-1" d="M239.44,18.58c2.05,1.35,3,2.59,3,4.21A2.29,2.29,0,0,1,240.25,25c-.87,0-1.35-.38-1.84-1.29a12.31,12.31,0,0,0-6.8-6c-.33-.11-.49-.21-.49-.38s.86-.54,1.94-.54A13.58,13.58,0,0,1,239.44,18.58Zm-.65,22.51c-1.35,0-3.62-1.72-4.86-3.78a5,5,0,0,1-.81-3.24q0-.81.48-.81c.22,0,.27.11.71.71A4,4,0,0,0,238.19,36c1.84,0,5.08-1.46,9.24-4.16A111.2,111.2,0,0,0,264,17.6a59,59,0,0,0,5.77-7.18c.44-.65.65-.86.87-.86s.38.32.38.59c0,1-2.7,5.56-5.3,9A79.2,79.2,0,0,1,242.46,39c-1.78,1-2.54,1.46-2.65,1.56A1.19,1.19,0,0,1,238.79,41.09Zm7.13-32.56c2.05,1.24,3,2.59,3,4.32a2.43,2.43,0,0,1-2.32,2.54c-.92,0-1.24-.27-1.84-1.46a11.86,11.86,0,0,0-7.94-6.1c-.37,0-.54-.11-.54-.32,0-.44,1-.71,2.54-.71A15.85,15.85,0,0,1,245.92,8.53Zm22.14-1.78a1.87,1.87,0,0,1-1.73,1.78c-.76,0-1.08-.21-1.51-1.08a9.73,9.73,0,0,0-5-4.32c-.37-.11-.54-.16-.54-.32s.65-.38,1.52-.38C264.55,2.43,268.06,4.48,268.06,6.75Zm6.1-2.32a1.92,1.92,0,0,1-1.78,1.83,1.58,1.58,0,0,1-1.52-1.08A9.82,9.82,0,0,0,265.57.7c-.27,0-.38-.16-.38-.27S266,0,266.87,0C270.54,0,274.16,2.21,274.16,4.43Z"/><path class="cls-1" d="M310.72,13.77c6.64-1.08,6.91-1.19,8.58-2.38.49-.43.65-.48,1-.48.59,0,1.08.27,2.54,1.56,1.94,1.68,2.1,1.89,2.1,2.43,0,.22-.16.44-.54.65-.86.49-.92.6-1.51,3.62-1.73,8.42-2.92,12.26-4.7,15.44s-4.32,5.08-6.75,5.08c-.38,0-.65-.16-.65-.43v-.38a1.35,1.35,0,0,0,.06-.49,8.33,8.33,0,0,0-2.7-5.72c-.49-.43-.6-.49-.6-.59s.38-.49.54-.49.06,0,.71.38l.48.32C311.8,34,311.85,34,312.61,34c1.89,0,3.29-1.94,4.86-6.7a44.5,44.5,0,0,0,1.94-11c0-1.41-.32-1.95-1.19-1.95a51.44,51.44,0,0,0-9.12,1.35c-1.89,6.43-4.43,11.88-7.13,15.23a31.1,31.1,0,0,1-11.88,9.34,20.42,20.42,0,0,1-3.67,1.46.86.86,0,0,1-.76-.7c0-.22.16-.38.81-.59,9.18-4.32,16.69-13.94,18.79-24-1.89.43-5.13,1.4-7,2.05a5.13,5.13,0,0,1-2.06.6,7.28,7.28,0,0,1-3.61-1.84,4,4,0,0,1-1.08-2.86c0-.38.16-.6.43-.6s.21.06.38.33c.64,1.13,1.4,1.51,3.13,1.51,1.94,0,3.78-.22,10.2-1.08a61.08,61.08,0,0,0,.87-7.45,3.94,3.94,0,0,0-1.89-3.57.54.54,0,0,1-.16-.32c0-.38.43-.59,1.29-.59a6.2,6.2,0,0,1,3.73,1.62c1.83,1.35,2.05,1.56,2.05,2.1,0,.22,0,.22-.27.65a16.08,16.08,0,0,0-.81,2.75c-.38,1.57-.49,2-.76,3-.1.49-.16.65-.32,1.25Z"/><path class="cls-1" d="M351.54,26.24a10.68,10.68,0,0,1-2.48.38c-1.57,0-4.32-1.67-4.76-2.91a15.67,15.67,0,0,1-.37-3c0-.38.16-.65.43-.65s.27.11.43.38c.7,1.57,2,2.11,5.13,2.11a251.08,251.08,0,0,0,31.21-2.22c.49-.05,1-.1,1.46-.1a3.64,3.64,0,0,1,2.86,1.18c1,1,1.41,1.52,1.41,2,0,.81-1.08,1.3-2.81,1.3-.43,0-1,0-2-.06-1.19-.1-5.56-.16-7.83-.16C366.77,24.46,355.75,25.33,351.54,26.24Z"/><path class="cls-1" d="M419.53,19.12c.05,9.66.16,14.79.43,18.41.11,1.13.16,1.94.16,2.43,0,2.27-.81,3.94-1.94,3.94s-2.87-2.43-2.87-3.78a7.33,7.33,0,0,1,.17-1.4c.43-3,.86-15,.86-25.76,0-5.08-.22-6.91-.86-8a2.71,2.71,0,0,0-2.6-1.35c-.37-.06-.54-.16-.54-.49s.17-.38.49-.54a15.14,15.14,0,0,1,3.29-.86c.81,0,1.57.38,3.95,1.89.7.48,1,.86,1,1.24a3,3,0,0,1-.27,1c-.86,1.45-1.19,4-1.29,10a23.07,23.07,0,0,1,11.34,3.51c2.91,2,4.26,3.73,4.26,5.45a2.21,2.21,0,0,1-2.27,2.38c-1.18,0-1.78-.49-3.13-2.54a19.36,19.36,0,0,0-10.2-7.94Z"/><path class="cls-1" d="M484.49,15.61a12.37,12.37,0,0,1,8-3.46c3.84,0,6.81,2.27,6.81,5.18a3.19,3.19,0,0,1-1.41,2.87c-1.13.86-1.45,1-6.48,3A92.25,92.25,0,0,0,479.9,28.4c.16,2.38.27,4.11.27,5,0,2.7-.54,3.4-2.7,3.4-.65,0-1-.21-1-.54a1.45,1.45,0,0,1,.05-.43,41.27,41.27,0,0,0,.27-5.83c-4.64,2.75-6.53,4.91-6.53,7.34,0,2.7,2.53,3.78,8.85,3.78a31,31,0,0,0,7.94-1,4.57,4.57,0,0,1,1.4-.27c1.14,0,2.6,1.24,2.6,2.22,0,1.78-3.57,2.7-10.91,2.7-4.11,0-6.54-.44-8.8-1.62a6.43,6.43,0,0,1-3.73-5.51,6.88,6.88,0,0,1,2.75-5.08,39,39,0,0,1,6.38-4.16c-.06-3.83-.22-5.61-.71-6.8a2.81,2.81,0,0,0-2.53-1.89,6.34,6.34,0,0,0-3.84,2,32,32,0,0,0-4.64,5.78c-.6,1-1.19,1.51-1.78,1.51-.81,0-1.89-1.78-1.89-3.19,0-.7.21-1.08,1.29-1.89,5.83-5.07,9.4-10.31,10.42-15.33a16.56,16.56,0,0,1-4.69.91,3.36,3.36,0,0,1-2.81-1.94,6.76,6.76,0,0,1-.81-2,.24.24,0,0,1,.21-.22c.06,0,.17.06.27.22a3.43,3.43,0,0,0,3.19,1.4,14.57,14.57,0,0,0,4.91-.86,9,9,0,0,0,.17-1.51c0-1.79-.87-2.81-2.54-2.92-.22,0-.27-.05-.27-.22,0-.48,1.83-1.35,2.86-1.35,1.73,0,3.56,1.62,3.56,3.19a8.1,8.1,0,0,1-.43,2.05,8,8,0,0,0,3.46-1.83c1.83.91,2.37,1.29,2.37,1.72,0,.65-1.18,1.14-6.31,2.65a61.89,61.89,0,0,1-6.16,11.5,8.64,8.64,0,0,1,3.56-1,5.55,5.55,0,0,1,3.46,1.24c.86.81,1.35,1.73,2,3.84C481,19.44,482.33,17.5,484.49,15.61Zm2.32,7c5.18-2.87,6.26-3.51,6.91-4.05a3,3,0,0,0,1.08-1.89c0-1.35-1.62-2.7-3.29-2.7-2.81,0-6.48,2.53-8.59,6a27.19,27.19,0,0,0-3.18,6.64C481.9,25.33,482.27,25.11,486.81,22.63Z"/><path class="cls-1" d="M76.63,86.46H73.06v2.22c0,.59-1,1.08-2.16,1.08-.59,0-1-.33-1-.81V66.86L73.71,69h2.43a47.64,47.64,0,0,0,1-7.51l4.26.7c.65.11,1,.49,1,.92a1.5,1.5,0,0,1-.76,1.14L80.57,65,78.25,69h5.18l1.3-2,3.07,2.91a1.27,1.27,0,0,1,.38.87,1,1,0,0,1-.59.81l-.87.48V87.71c0,1-1,1.67-2.43,1.67-.48,0-.7-.27-.7-.81V86.46H80v6.21H95l2.81-3.51,4.32,3.57c.38.27.54.54.54.75a.55.55,0,0,1-.6.49H81.38c5.29,5.35,13.28,9.07,22.46,10.37a14.75,14.75,0,0,0-4.16,4.21,43.85,43.85,0,0,1-11.12-5.67c-3.29-2.32-4.81-3.73-8.59-8.21v14.26a.79.79,0,0,1-.16.54,4.22,4.22,0,0,1-2.37.86.77.77,0,0,1-.81-.7V95.86c-6,5.13-9,7.13-14.8,9.94-3.29,1.62-6.8,3-7.67,3a.44.44,0,0,1-.48-.44c0-.27,0-.27,3.18-1.89A61.49,61.49,0,0,0,73.39,94H65.18c-3.73.11-5.4.11-9.94.27l-.7-1.89c2.59.11,4.86.16,5.78.22,2.37.05,4,.1,4.86.1H76.63Zm-7.94-6L59.94,87.6l-.22,1c-.16.71-.59,1.14-1.08,1.14a1.12,1.12,0,0,1-.59-.22l-3.46-3.4c4.7-2,6.32-2.86,13.67-6.75ZM56.38,67.08c5.45,1.29,9.12,4.37,9.12,7.5A2.13,2.13,0,0,1,63.56,77a1.85,1.85,0,0,1-1.35-.59C61.83,76,61.83,76,60.75,73a15.91,15.91,0,0,0-4.59-5.29Zm27.21,10V70.26H73.06v6.81Zm0,8.1V78.36H73.06v6.81Zm16-15.88a.66.66,0,0,1,.27.49c0,.27-.32.54-1,.7L97,71l-7.83,6.58c-.54.44-.81.6-1.08.6s-.43-.16-.43-.49.21-.59,2.37-3.35c1.46-2,2.86-3.94,5.73-8.2ZM88.34,79.12c4.38.7,6.32,1.3,8.43,2.54C99,83,100.22,84.47,100.22,86a2,2,0,0,1-1.89,2c-.7,0-.86-.17-3.67-3.41A21.9,21.9,0,0,0,88.24,80Z"/><path class="cls-1" d="M155.41,96.13c0,.92-1.24,2.92-3.08,5-4.26,4.75-9.12,7.13-14.79,7.13-3.84,0-6.86-1.13-9-3.4-2.27-2.43-3.24-5.62-3.24-10.53,0-3.24,0-3.94,1.08-18,.32-4.53.32-4.53.32-5.18,0-3.46-.81-4.92-2.64-4.92-.33,0-.49-.1-.49-.27,0-.59,1.14-1.08,2.38-1.08,2.75,0,5.4,3.14,5.4,6.48,0,.81,0,.87-.81,4.11A115.89,115.89,0,0,0,128.25,94c0,7.56,3,11,9.72,11a19.94,19.94,0,0,0,11.83-4.37,21.4,21.4,0,0,0,4.59-4.38c.21-.37.43-.54.64-.54S155.41,95.86,155.41,96.13Z"/><path class="cls-1" d="M183.33,70.75c0-3.56-.54-4.43-2.75-4.54-.44,0-.49,0-.49-.21,0-.43,2.11-1.41,3-1.41a8.42,8.42,0,0,1,3.41,1.14,2.22,2.22,0,0,1,1.13,1.62,5.49,5.49,0,0,1-.38,1.51,28.9,28.9,0,0,0-.92,4.48c2.43-.92,3.24-1.46,3.84-2.48,1.67.11,3.24,1.13,3.24,2,0,.48-.27.7-1.3,1.18a37.32,37.32,0,0,1-6.32,2.33c-.37,2.8-.43,3.18-.81,5.88a2.45,2.45,0,0,1,1.89,2.32c0,.76-.43,2.49-1.72,6.81-1.52,5.18-2.06,7.67-2.06,9.66,0,2.49,1.89,3.62,6.11,3.62a32,32,0,0,0,10.36-1.89c1.84-.86,2.54-2.16,2.54-4.75,0-1.62-.05-2.27-.81-10.21-.38-3.56-.54-6.15-.54-7.77,0-3.46,1.41-5.24,4.11-5.24,4.91,0,11.17,5.13,11.17,9.18,0,1.78-1.45,3.78-2.7,3.78-.21,0-.37-.11-.54-.38-1.29-1.46-2.53-1.89-5.67-1.83-.43,0-.64-.11-.64-.38s.05-.27.48-.33a2.47,2.47,0,0,0,.65-.16c.76-.11,1.35-.27,1.94-.38,1.68-.32,2.22-.7,2.22-1.51a8.09,8.09,0,0,0-2.16-3.94c-1.57-1.67-3.57-2.75-5-2.75s-2.38,1.4-2.38,4.26a63.67,63.67,0,0,0,1.35,12.21c.81,3.67,1.51,5.23,2.86,6.42a2.82,2.82,0,0,1,.27,1.24c0,1.73-1.13,3.24-3.29,4.49-3,1.67-8,2.75-12.75,2.75-6.91,0-10.2-2.11-10.2-6.53a25.72,25.72,0,0,1,.65-4.54,2.83,2.83,0,0,1-2.11.81c-2.11,0-3.46-2.48-3.46-6.26,0-5.13,2.92-9.24,6.54-9.24a4.54,4.54,0,0,1,.81.06c.11-2.43.16-2.81.27-4.81a27,27,0,0,1-7,1.35c-1.73,0-2.49-.43-3.08-1.73a9.63,9.63,0,0,1-.81-3.83c0-.27.11-.43.32-.43s.17.05.27.27a3.72,3.72,0,0,0,3.89,2.91,26.1,26.1,0,0,0,6.54-1.24,17.65,17.65,0,0,1,.05-1.94Zm-4,14.69a12.76,12.76,0,0,0-1.24,5.61c0,2.11.81,3.57,1.95,3.57s1.56-.76,1.89-2.59c.43-2.33,1-6.27,1-6.75,0-1.08-.38-1.73-1.08-1.84S179.93,84.3,179.33,85.44Z"/><path class="cls-1" d="M240.84,87.92a17.18,17.18,0,0,1-1.19,6.54c-1.29,3.13-4.32,5.67-6.75,5.67a2.81,2.81,0,0,1-2.32-2.38c0-.81.27-1,2-1.84a13.25,13.25,0,0,0,7.29-8.15c.06-.27.16-.32.38-.32C240.68,87.44,240.84,87.6,240.84,87.92Zm11.07-6.86c0,1.08,0,3.57.05,7.46l.11,6c.06,1.89.06,3.78.11,4,0,1,0,2,0,2.49a5.19,5.19,0,0,1-1.89,4.26,5,5,0,0,1-3.07,1.46c-.54,0-.76-.32-.81-1.19-.17-2.43-1-3.78-3.62-6-.22-.22-.33-.32-.33-.49s.33-.48.54-.48.54.16,1.3.65c2,1.29,2.48,1.56,3.08,1.56,1.29,0,1.29,0,1.35-11,.05-4.86.11-7.29.11-7.29V81.12a48.08,48.08,0,0,0-11.34,2.37,4.26,4.26,0,0,1-1.52.38,6.11,6.11,0,0,1-2.43-1,4.25,4.25,0,0,1-2.21-3.67c0-.33.11-.49.32-.49s.27.11.44.33c.75,1,2,1.29,4.64,1.29a115.06,115.06,0,0,0,12-1c-.05-8.21-.32-8.81-3.4-9.18-.32,0-.49-.11-.49-.22,0-.54,2-1.62,3-1.62a6.75,6.75,0,0,1,4,1.62c.87.7,1.35,1.24,1.35,1.57a1.2,1.2,0,0,1-.16.54c-.7,1.13-.86,2-1.13,6.85,6.1-.48,9.39-1.08,11.18-1.94,1.08-.59,1.08-.59,1.45-.59.76,0,1.52.37,3.3,1.56,1.24.81,1.62,1.24,1.62,1.84a1.39,1.39,0,0,1-1.3,1.29,9.64,9.64,0,0,1-1-.1,53,53,0,0,0-7.94-.6c-2.27,0-5.4.22-7.45.43Zm10,7.29c4.54,2.7,7.19,5.89,7.19,8.64a2.72,2.72,0,0,1-2.54,3c-1,0-1.35-.37-2-2.64-1-4.11-4.86-8.8-8.26-10-.27-.1-.38-.21-.38-.37s.27-.44.6-.44A12.76,12.76,0,0,1,262,88.35ZM271.24,68A5.29,5.29,0,1,1,266,62.7,5.3,5.3,0,0,1,271.24,68Zm-8.75,0a3.46,3.46,0,1,0,3.41-3.46A3.48,3.48,0,0,0,262.49,68Z"/><path class="cls-1" d="M308.88,81.87c2.75,1.25,2.75,1.25,2.75,1.79a1.78,1.78,0,0,1-.21.75,11.73,11.73,0,0,0-.49,4.32l.11,5.51v6.16l0,3.72c.06.7.06,1.35.06,1.78,0,1.41-.49,2.22-1.3,2.22-1.62,0-3.51-1.41-3.51-2.65a4.74,4.74,0,0,1,.16-1,171.4,171.4,0,0,0,1.3-18.69,5.45,5.45,0,0,0-.65-3.18,68.82,68.82,0,0,1-14,11.12,24,24,0,0,1-6,2.54c-.22,0-.54-.22-.54-.43s.11-.27.54-.44c8.53-3.88,25.22-21,25.22-25.7,0-.54-1-1.51-1.79-1.67-.48-.11-.59-.22-.59-.44,0-.37,1.13-.75,2.21-.75,2,0,6.11,2.91,6.11,4.37,0,.38-.17.54-.65.81a4,4,0,0,0-1.95,1.62,89.08,89.08,0,0,1-7.5,7.94Z"/><path class="cls-1" d="M361.42,78.63A2.26,2.26,0,0,1,358.94,81c-.7,0-1.08-.27-1.62-1.25A11.91,11.91,0,0,0,349,73.07c-.32-.11-.48-.21-.48-.38,0-.37,1-.64,2.53-.64C356.24,72.05,361.42,75.34,361.42,78.63Zm-7,24c-.81,0-2.59-1.3-3.89-2.81a4,4,0,0,1-1.35-3.4c0-1,.27-1.84.65-1.84.22,0,.33.11.43.38a3.83,3.83,0,0,0,3.24,2.76c2.22,0,8.75-4,16.58-10.26a108.11,108.11,0,0,0,10.1-9c1.08-1.08,4-4.43,4.54-5.08s.64-.86.91-.86a.44.44,0,0,1,.44.48c0,.87-2.38,4.54-5.08,7.83a83.55,83.55,0,0,1-11.56,11.67,81.28,81.28,0,0,1-12.85,8.85C355.54,102.23,354.94,102.61,354.4,102.61Z"/><path class="cls-1" d="M419.53,83.12c.05,9.66.16,14.79.43,18.41.11,1.13.16,1.94.16,2.43,0,2.27-.81,3.94-1.94,3.94s-2.87-2.43-2.87-3.78a7.33,7.33,0,0,1,.17-1.4c.43-3,.86-15,.86-25.76,0-5.08-.22-6.91-.86-8a2.71,2.71,0,0,0-2.6-1.35c-.37-.06-.54-.16-.54-.49s.17-.38.49-.54a15.14,15.14,0,0,1,3.29-.86c.81,0,1.57.38,3.95,1.89.7.48,1,.86,1,1.24a3,3,0,0,1-.27,1c-.86,1.45-1.19,4-1.29,10a23.07,23.07,0,0,1,11.34,3.51c2.91,2,4.26,3.73,4.26,5.45a2.21,2.21,0,0,1-2.27,2.38c-1.18,0-1.78-.49-3.13-2.54a19.36,19.36,0,0,0-10.2-7.94Z"/></g></g></svg>