<svg xmlns="http://www.w3.org/2000/svg" viewBox="0 0 580.39 32.5"><defs><style>.cls-1{fill:#343434;}</style></defs><g id="Layer_2" data-name="Layer 2"><g id="Layer_1-2" data-name="Layer 1"><path class="cls-1" d="M17.78,15.05A6.15,6.15,0,0,0,18,14c.07-.51.15-.87.15-1a4,4,0,0,0,.1-.79c0-.61-.61-1-1.58-1a115.73,115.73,0,0,0-11.91,2A6.93,6.93,0,0,1,3,13.53c-.65,0-1.05-.21-2.34-1.36A2,2,0,0,1,0,10.55c0-.65.11-.87.36-.87s.18,0,.22.18c.28.9,1.26,1.26,3.52,1.26a71.82,71.82,0,0,0,9.83-1c.76-.14,1.4-.22,1.62-.25A7.28,7.28,0,0,0,18.29,9c.5-.25.57-.29.82-.29.4,0,.87.29,2.13,1.26s1.47,1.3,1.47,1.66c0,.14-.14.32-.36.5-1.15.61-1.9,2.52-3.81,9.76l.93-.08c1.12.47,1.84,1.12,1.84,1.69s-.25.76-.58.76a1.44,1.44,0,0,1-.32-.07,18.2,18.2,0,0,0-3.89-.5A40.7,40.7,0,0,0,5.4,25.3a4.21,4.21,0,0,1-1.58.4c-.54,0-1-.32-2.2-1.47a2.92,2.92,0,0,1-1-1.48A.24.24,0,0,1,.9,22.5c.11,0,.11,0,.32.14a8,8,0,0,0,2.63.47A6.53,6.53,0,0,0,4.9,23c.14,0,.9,0,2.23-.15,1.91-.14,3.27-.25,4-.32,1.26-.14,2.55-.29,3.81-.4L16.56,22Z"/><path class="cls-1" d="M43,19.08a7.59,7.59,0,0,1-1.65.25,4.4,4.4,0,0,1-3.17-1.94,10.21,10.21,0,0,1-.25-2c0-.25.11-.43.29-.43s.18.07.28.25c.47,1,1.34,1.4,3.42,1.4a168.72,168.72,0,0,0,20.81-1.47,8.36,8.36,0,0,1,1-.07,2.43,2.43,0,0,1,1.91.79c.68.65.93,1,.93,1.33,0,.54-.72.86-1.87.86-.29,0-.68,0-1.33,0s-3.71-.11-5.22-.11A97.69,97.69,0,0,0,43,19.08Z"/><path class="cls-1" d="M101,20.34c2.09,1.65,3.21,3.38,3.21,5a1.73,1.73,0,0,1-1.59,1.88c-.72,0-1.18-.47-1.65-1.7a14.37,14.37,0,0,0-7.49-8.06,29.38,29.38,0,0,1-10.76,9.14A20.4,20.4,0,0,1,78,28.44a.54.54,0,0,1-.54-.44c0-.14.1-.21.68-.43,3.46-1.33,8-4.68,11.16-8.28a34.08,34.08,0,0,0,5-7.7,11.05,11.05,0,0,0,1.29-3.28c0-.32-.25-.54-.64-.54A40,40,0,0,0,86.4,10c-.61.25-.65.25-.79.25-.33,0-.36,0-1.51-.86a1.75,1.75,0,0,1-.94-1.73c0-.68.11-1,.36-1,.07,0,.14.07.18.18.22.54,1.3.94,2.56.94A58.82,58.82,0,0,0,93.2,6.77a7.64,7.64,0,0,0,2.88-1.19,1,1,0,0,1,.58-.22c.36,0,.79.26,2.16,1.3,1,.76,1.15.94,1.15,1.22s-.11.25-.43.47l-.76.54A51.11,51.11,0,0,1,94,16.81,16.59,16.59,0,0,1,101,20.34Z"/><path class="cls-1" d="M124.42,13.61V12.45c0-.68,0-1.15,0-1.33a2.92,2.92,0,0,0-2.3-2.95c-.18-.07-.29-.14-.29-.21,0-.22,1.08-.51,1.87-.51s1.58.4,3,1.4a6.34,6.34,0,0,0,.69.51c.43.29.57.43.57.61s0,.11-.21.47a6.31,6.31,0,0,0-.72,2.73c-.29,2.88-.44,5.12-.44,6.74,0,2.48.11,2.84.83,2.84,1.51,0,4.9-1.73,8.42-4.32a53.67,53.67,0,0,0,10.44-10c.33-.47.43-.54.54-.54s.33.25.33.43a12.29,12.29,0,0,1-1.41,2.52,41,41,0,0,1-8,8.67,40.31,40.31,0,0,1-8.14,5.29,7.85,7.85,0,0,0-2.41,1.66c-.32.36-.54.5-.68.5a6.16,6.16,0,0,1-1.52-1,2.85,2.85,0,0,1-1.08-1.41A1.23,1.23,0,0,1,124,24a4.65,4.65,0,0,0,.47-2Z"/><path class="cls-1" d="M172.22,13.5c1.84.83,1.84.83,1.84,1.19a1.24,1.24,0,0,1-.15.5,8.13,8.13,0,0,0-.32,2.88l.07,3.67v4.1l0,2.49c0,.47,0,.9,0,1.19,0,.93-.32,1.47-.86,1.47-1.08,0-2.34-.93-2.34-1.76a3.1,3.1,0,0,1,.11-.69,115.67,115.67,0,0,0,.86-12.45,3.69,3.69,0,0,0-.43-2.12,46.18,46.18,0,0,1-9.36,7.41,16.22,16.22,0,0,1-4,1.69c-.15,0-.36-.14-.36-.28s.07-.19.36-.29c5.68-2.59,16.81-14,16.81-17.14,0-.36-.69-1-1.19-1.11-.33-.07-.4-.15-.4-.29s.76-.5,1.48-.5c1.33,0,4.07,1.94,4.07,2.91,0,.25-.11.36-.44.54A2.6,2.6,0,0,0,176.76,8a59.84,59.84,0,0,1-5,5.29Z"/><path class="cls-1" d="M214,13.43a4.33,4.33,0,0,1-.47.25,36.22,36.22,0,0,1-5.76,11.88,18.6,18.6,0,0,1-5.47,5,4.17,4.17,0,0,1-1.48.58.35.35,0,0,1-.36-.29c0-.11,0-.14.44-.43a19.69,19.69,0,0,0,6.48-7.52,26.89,26.89,0,0,0,2.44-6.63,20.47,20.47,0,0,0,.61-3.49,1.18,1.18,0,0,0-1-1.33c-.1,0-.18-.11-.18-.18,0-.22.33-.43.65-.43a7.44,7.44,0,0,1,3.82,2c2.62-1.55,5.25-3.89,5.25-4.72,0-.43-.68-.68-2-.68a74.48,74.48,0,0,0-7.78.93A29,29,0,0,0,203.4,10c-.65.32-.79.36-1,.36a4.19,4.19,0,0,1-2.67-1.76,3.09,3.09,0,0,1-.57-2.09V6.26a.32.32,0,0,1,.32-.32c.15,0,.18,0,.33.32a3.1,3.1,0,0,0,2.55,1.3c.29,0,.72,0,1.3-.07.32,0,1.08-.11,2.23-.18s2.16-.15,2.52-.18c1.29-.15,2.59-.33,3.92-.47,5.37-.58,5.62-.61,7.63-1.22a2.94,2.94,0,0,1,.54-.08c.51,0,1.16.54,2.24,1.87.39.51.68.83.79,1,.5.5.61.68.61,1s-.25.58-.79.61a10.32,10.32,0,0,0-4.75,1.51c-1.34.65-1.7.8-3.57,1.62Z"/><path class="cls-1" d="M252.43,9.21C254,9.07,254.84,9,255,9a8,8,0,0,0,2.85-.72c1.08-.47,1.08-.47,1.33-.47s.5.11.9.51l1,.79c.76.61,1.12,1,1.12,1.22s0,.26-1.08,1c-4,8.74-7,12.63-12.39,16.12a24.17,24.17,0,0,1-6.62,3.06,14.84,14.84,0,0,1-1.62.36.43.43,0,0,1-.43-.36c0-.11.07-.14.25-.21a23.67,23.67,0,0,0,6-3A28.51,28.51,0,0,0,257.54,12c.15-.5.22-.86.25-.93a2.61,2.61,0,0,0,.11-.65c0-.33-.39-.54-1-.54-1.37,0-7.38.61-9.72,1s-2.95.64-3.2,1.18l.25,1.52.32,2.08.33,2a8.7,8.7,0,0,1,.21,1.59c0,.65-.36.9-1.19.9-1.36,0-1.65-.15-1.65-.9,0-.18,0-.43,0-.76v-.65a31.63,31.63,0,0,0-.93-6.84,2.39,2.39,0,0,0-1.87-1.87.3.3,0,0,1-.29-.29c0-.18.47-.32,1.15-.32a5.85,5.85,0,0,1,3.17,1.62c1.19-.18,3.74-.47,6-.65,0-5.25,0-5.32-2.12-5.58-.21,0-.32-.07-.32-.21,0-.36,1.51-1,2.34-1A6.21,6.21,0,0,1,252,3.6c.61.36.79.58.79.86a.79.79,0,0,1-.21.54,12.1,12.1,0,0,0-1,4.32Z"/><path class="cls-1" d="M284.87,14.33c0,6.44.11,9.86.28,12.27.08.76.11,1.3.11,1.62,0,1.51-.54,2.63-1.29,2.63s-1.91-1.62-1.91-2.52a5.23,5.23,0,0,1,.11-.94c.29-2,.57-10,.57-17.17,0-3.38-.14-4.6-.57-5.32a1.79,1.79,0,0,0-1.73-.9c-.25,0-.36-.11-.36-.33s.11-.25.32-.36a10.13,10.13,0,0,1,2.2-.57c.54,0,1,.25,2.63,1.26.46.32.68.57.68.82a1.91,1.91,0,0,1-.18.69c-.58,1-.79,2.66-.86,6.69a15.47,15.47,0,0,1,7.56,2.34c1.94,1.33,2.84,2.49,2.84,3.64a1.47,1.47,0,0,1-1.51,1.58c-.79,0-1.19-.32-2.09-1.69a12.91,12.91,0,0,0-6.8-5.29Z"/><path class="cls-1" d="M332.78,14.72h9.72v1.15h-.68c-2.06.26-3.06,1.08-4.21,3.5-1.73,3.7-2.13,4.32-3.82,6,1.58,1.69,2.34,2.09,3.74,2.09s2.52-.43,4.54-1.76l.61,1.08c-2.56,1.87-4.86,2.8-6.87,2.8-1.59,0-2.56-.54-4.29-2.34a12.82,12.82,0,0,1-7.85,2.38c-4.93,0-8.78-3.31-8.78-7.52,0-3.35,2.59-5.94,7.85-7.85-1.22-2.52-1.66-4-1.66-5.44,0-3.34,3-6,6.7-6,3.31,0,5.72,2.16,5.72,5.18a5.46,5.46,0,0,1-2.37,4.36,15.41,15.41,0,0,1-4.61,1.94A59.85,59.85,0,0,0,333,24.37c2.19-2.59,3.24-4.68,3.24-6.34,0-1.44-.83-2.16-2.45-2.16h-1Zm-14.47,6.84c0,3.71,2.92,6.23,7.2,6.23a8.29,8.29,0,0,0,5-1.37,106.37,106.37,0,0,1-7.27-11.12C319.64,17.13,318.31,18.83,318.31,21.56Zm10.33-9.43a4.83,4.83,0,0,0,2.23-4c0-2.09-1.58-4-3.34-4a3.77,3.77,0,0,0-3.6,3.52,12.53,12.53,0,0,0,1.51,4.72c.14.21.43.83.43.83A6.76,6.76,0,0,0,328.64,12.13Z"/><path class="cls-1" d="M360.83,7.09c-2.45,0-2.77,0-5.22.11l-.4-1.12,5.69.15h3.74l2.24-2.52,2.95,2.55a.57.57,0,0,1,.25.4c0,.22-.18.43-.33.43h-6.51V22.28c1.94-.32,3.38-.65,7.56-1.65l.21.57a124,124,0,0,1-12,4.28l-.43.83a1.06,1.06,0,0,1-.79.61.93.93,0,0,1-.69-.36L355,23.79c2.59-.43,3.42-.57,5.8-1Zm15.66-5.72A.7.7,0,0,1,377,2c0,.36-.21.64-.68.86l-.83.36A52.72,52.72,0,0,1,373.32,9h9.18l2.19-2.45,2.77,2.38a.67.67,0,0,1,.26.54c0,.21-.15.39-.29.39h-5.15a31.71,31.71,0,0,1-4.43,12.89,23.16,23.16,0,0,0,10.41,5.83c-.26.14-.47.29-.54.32a5.4,5.4,0,0,0-1.84,1.34,11.84,11.84,0,0,0-.83,1,28.19,28.19,0,0,1-8.6-6.7,20.93,20.93,0,0,1-9,5.94,25.65,25.65,0,0,1-5,1.34c-.32,0-.5-.15-.5-.36s.32-.47,1.69-.87a22,22,0,0,0,11.41-7.74,24.1,24.1,0,0,1-3.49-10.4c-1.87,3.42-4.5,7-5.11,7a.3.3,0,0,1-.29-.25c0-.15.07-.29.58-1.15C369.58,13.5,371.7,7.27,372.92,0Zm-3.57,8.49-.5,1.05c.68,4.42,1.91,7.7,3.85,10.18a27.46,27.46,0,0,0,3.2-11.23Z"/><path class="cls-1" d="M400.9,4.14h6.3l.86-1.3,2,1.88a.68.68,0,0,1,.28.46.78.78,0,0,1-.47.62l-.43.18v8.67c2.63-3.31,4.86-8.78,6-14.65l2.91,1.15c.36.11.58.33.58.54a.6.6,0,0,1-.4.54l-1.11.54L417,4.14h5.72l1.19-1.37,1.87,1.69c.47.44.72.8.72,1s-.36.58-.75.65l-.62.14a44.13,44.13,0,0,1-4.28,6.27c2.81,2.44,5.11,3.67,9.65,5.11a5.41,5.41,0,0,0-2.52,2.48A23.55,23.55,0,0,1,419.61,14a34.78,34.78,0,0,1-5.4,5.14l1.88,1.12h6.51l1.15-1.37,1.87,1.69c.4.33.55.58.55.83a.62.62,0,0,1-.4.51l-.51.25v8.31c0,.51-.82,1-1.58,1-.39,0-.61-.18-.61-.47V29.23h-7.45v2.48c0,.4-.79.79-1.62.79-.36,0-.61-.18-.61-.46V19.76a23.55,23.55,0,0,1-3.93,2.45v2.95c0,.47-.75,1-1.47,1a.46.46,0,0,1-.51-.39v-2h-6.94v3.38c0,.58-.72,1-1.55,1-.36,0-.47-.14-.47-.57V2.77Zm2.16,9.43V5h-2.52v8.57Zm0,9.36v-8.5h-2.52v8.5Zm4.42-9.36V5H405v8.57Zm0,9.36v-8.5H405v8.5Zm2-1.62a33.63,33.63,0,0,0,8.89-9.14,18.39,18.39,0,0,1-2.52-5.4,28.88,28.88,0,0,1-6.37,9.07Zm13.61,7.05V21.09h-7.45v7.27ZM416.59,5l-.32.83a18.23,18.23,0,0,0,3,5A48.23,48.23,0,0,0,422.82,5Z"/><path class="cls-1" d="M448.7,17.53a11.5,11.5,0,0,1-.79,4.36c-.86,2.08-2.88,3.77-4.5,3.77a1.88,1.88,0,0,1-1.55-1.58c0-.54.18-.68,1.37-1.22a8.86,8.86,0,0,0,4.86-5.44c0-.18.11-.21.25-.21S448.7,17.31,448.7,17.53ZM456.08,13c0,.72,0,2.37,0,5l.07,4c0,1.26,0,2.52.07,2.7,0,.68,0,1.29,0,1.65A3.47,3.47,0,0,1,455,29.16a3.37,3.37,0,0,1-2.05,1c-.36,0-.51-.22-.54-.79-.11-1.62-.65-2.52-2.41-4-.15-.14-.22-.22-.22-.32a.43.43,0,0,1,.36-.33c.14,0,.36.11.86.43,1.34.87,1.66,1.05,2,1.05.87,0,.87,0,.9-7.31,0-3.24.08-4.86.08-4.86V13a32.37,32.37,0,0,0-7.56,1.59,3,3,0,0,1-1,.25,4,4,0,0,1-1.62-.65,2.83,2.83,0,0,1-1.48-2.45c0-.21.08-.32.22-.32s.18.07.29.22c.5.64,1.33.86,3.09.86a76.91,76.91,0,0,0,8-.68c0-5.48-.22-5.87-2.27-6.12-.21,0-.32-.07-.32-.15,0-.36,1.33-1.08,2-1.08a4.58,4.58,0,0,1,2.67,1.08c.57.47.9.83.9,1a.85.85,0,0,1-.11.36c-.47.75-.58,1.36-.76,4.57,4.07-.33,6.27-.72,7.46-1.3.72-.39.72-.39,1-.39.5,0,1,.25,2.19,1,.83.54,1.08.83,1.08,1.22A.93.93,0,0,1,467,13c-.15,0-.4,0-.65-.07a34.42,34.42,0,0,0-5.29-.4c-1.51,0-3.6.14-5,.29Zm6.7,4.86c3,1.8,4.78,3.92,4.78,5.76a1.82,1.82,0,0,1-1.69,2c-.68,0-.9-.26-1.29-1.77-.69-2.73-3.24-5.86-5.51-6.69-.18-.07-.25-.15-.25-.25s.18-.29.39-.29A8.54,8.54,0,0,1,462.78,17.82ZM469,4.25A3.53,3.53,0,1,1,465.48.72,3.53,3.53,0,0,1,469,4.25Zm-5.83,0a2.3,2.3,0,1,0,2.27-2.31A2.31,2.31,0,0,0,463.14,4.25Z"/><path class="cls-1" d="M495.5,13.5c1.84.83,1.84.83,1.84,1.19a1.24,1.24,0,0,1-.15.5,8.13,8.13,0,0,0-.32,2.88l.07,3.67v4.1l0,2.49c0,.47,0,.9,0,1.19,0,.93-.32,1.47-.86,1.47-1.08,0-2.34-.93-2.34-1.76a3.1,3.1,0,0,1,.11-.69,115.67,115.67,0,0,0,.86-12.45,3.69,3.69,0,0,0-.43-2.12A46.18,46.18,0,0,1,485,21.38a16.22,16.22,0,0,1-4,1.69c-.15,0-.36-.14-.36-.28s.07-.19.36-.29c5.68-2.59,16.81-14,16.81-17.14,0-.36-.69-1-1.19-1.11-.33-.07-.4-.15-.4-.29s.76-.5,1.48-.5c1.33,0,4.07,1.94,4.07,2.91,0,.25-.11.36-.44.54A2.6,2.6,0,0,0,500,8a61.29,61.29,0,0,1-5,5.29Z"/><path class="cls-1" d="M532,11.34a1.51,1.51,0,0,1-1.66,1.55c-.46,0-.72-.18-1.07-.83a7.93,7.93,0,0,0-5.55-4.43c-.21-.07-.32-.14-.32-.25S524,7,525.06,7C528.51,7,532,9.14,532,11.34Zm-4.68,16a5.3,5.3,0,0,1-2.59-1.87,2.66,2.66,0,0,1-.9-2.27c0-.68.18-1.22.43-1.22s.22.07.29.25A2.54,2.54,0,0,0,526.68,24c1.48,0,5.83-2.69,11.05-6.83a71.44,71.44,0,0,0,6.73-6c.72-.72,2.66-2.95,3-3.38s.44-.58.62-.58a.29.29,0,0,1,.28.33c0,.57-1.58,3-3.38,5.22a55.77,55.77,0,0,1-7.7,7.77,54.52,54.52,0,0,1-8.57,5.91C528.05,27.07,527.65,27.32,527.29,27.32Z"/><path class="cls-1" d="M570,14.33c0,6.44.1,9.86.29,12.27.07.76.1,1.3.1,1.62,0,1.51-.54,2.63-1.29,2.63s-1.91-1.62-1.91-2.52a5.23,5.23,0,0,1,.11-.94c.29-2,.57-10,.57-17.17,0-3.38-.14-4.6-.57-5.32a1.79,1.79,0,0,0-1.73-.9c-.25,0-.36-.11-.36-.33s.11-.25.32-.36a10.13,10.13,0,0,1,2.2-.57c.54,0,1,.25,2.63,1.26.46.32.68.57.68.82a1.91,1.91,0,0,1-.18.69c-.57,1-.79,2.66-.86,6.69a15.47,15.47,0,0,1,7.56,2.34c1.94,1.33,2.84,2.49,2.84,3.64a1.47,1.47,0,0,1-1.51,1.58c-.79,0-1.19-.32-2.09-1.69a12.91,12.91,0,0,0-6.8-5.29Z"/></g></g></svg>