<svg xmlns="http://www.w3.org/2000/svg" viewBox="0 0 502.85 49.79"><defs><style>.cls-1{fill:#333;}</style></defs><title>craft-trial-title</title><g id="Layer_2" data-name="Layer 2"><g id="Layer_1-2" data-name="Layer 1"><path class="cls-1" d="M1.13,44.77A56.54,56.54,0,0,0,17.71,33.16a45.33,45.33,0,0,0,9.4-12.69,19.45,19.45,0,0,0,2-4.81,1.27,1.27,0,0,0-1.3-1.19c-.22,0-.59.06-1,.11-.16.05-1.29.27-2.43.43-.91.16-1.67.27-2.1.33a5.2,5.2,0,0,1-1.08.16,4.15,4.15,0,0,1-2.11-.76A53.5,53.5,0,0,1,10.15,25.6C7.56,28,4,30.4,3.13,30.4c-.32,0-.59-.16-.59-.38,0-.37.11-.48,1.46-1.45,2.26-1.57,5.88-5.73,8.85-10.1,2.27-3.46,3.67-6.54,3.67-8.32a3.47,3.47,0,0,0-2-3.35c-.22,0-.38-.21-.38-.32,0-.27.59-.49,1.46-.49a6.5,6.5,0,0,1,3.78,1.35c1.94,1.3,2.37,1.73,2.37,2.49,0,.32-.05.43-.38.81A9.14,9.14,0,0,0,20.47,12c-.38.86-.54,1.13-.76,1.56a3.49,3.49,0,0,0,1.3.22,34,34,0,0,0,6.48-1.19,10.64,10.64,0,0,0,2.05-1c.92-.59,1.24-.7,1.56-.7.6,0,1.3.43,3.14,2,1.62,1.35,1.83,1.56,1.83,2.05s-.21.65-.81.86a17.64,17.64,0,0,0-1.73.76C25.87,31.92,16.74,40.45,2.21,45.79a5.63,5.63,0,0,0-.75.27,2.37,2.37,0,0,1-.49.11c-.43,0-1-.43-1-.81,0-.16.11-.27.76-.43Z"/><path class="cls-1" d="M73,41.31c-3.94,2.27-8.86,4.11-11,4.11-.48,0-.86-.28-.86-.54s.11-.33.43-.38a38,38,0,0,0,11.18-5.73c4.86-3.72,8.42-7.61,10.58-11.72,2-3.56,2.81-5.67,2.81-6.75,0-.91-.59-1.4-1.73-1.4s-7,.76-9.5,1.24a72.86,72.86,0,0,0-9.4,2.43,2,2,0,0,1-.86.22c-.65,0-1.78-.7-3.08-1.89a5.42,5.42,0,0,1-1.4-3.57c0-.43.16-.7.48-.7.16,0,.22.06.33.38.32,1.08,2.37,1.94,4.48,1.94.86,0,.86,0,7.4-.64,4.37-.49,7-.76,7.77-.87a18.22,18.22,0,0,0,6-1.67,3.44,3.44,0,0,1,1-.27c1,0,4.92,3.08,4.92,3.89,0,.48-.22.7-2,2C85.1,31.92,80.84,36.72,73,41.31Zm-7.94-34c.54.81,1.78,1.19,3.78,1.19,3.94,0,10.1-1.08,12.69-2.22a3.58,3.58,0,0,1,1.67-.48c.54,0,1,.21,2.65,1.08,1.13.59,1.51,1,1.51,1.51s-.48.86-2.48,1.08c-2.76.32-2.86.32-7.08,1.08a52.23,52.23,0,0,1-8.15,1,4.3,4.3,0,0,1-4.1-2,8.83,8.83,0,0,1-1.08-2.32c0-.11.1-.27.21-.27S64.85,7,65.07,7.29Z"/><path class="cls-1" d="M131.81,37.15a44.18,44.18,0,0,1-14.52,6.21,3.47,3.47,0,0,1-.7.16,2.37,2.37,0,0,1-.49.11c-.32,0-.76-.27-.76-.54s.17-.32.81-.54a57.25,57.25,0,0,0,14.58-8,46,46,0,0,0,10.86-13.18c1.29-2.43,2.37-5.45,2.37-6.53,0-.87-.64-1.35-1.62-1.35a70.73,70.73,0,0,0-18,3.13,2.78,2.78,0,0,1-.92.27,7.12,7.12,0,0,1-3.07-1.62,4.08,4.08,0,0,1-1.25-2.86c0-1,.17-1.52.54-1.52.17,0,.22.11.38.49.33,1,2.22,1.89,4.27,1.89s9.07-.7,14.25-1.46c2.65-.38,3.46-.65,4.65-1.4s1.29-.76,1.78-.76.81.16,1.73.76c.21.11.65.43,1.24.81,3,1.78,3.35,2.1,3.35,2.48,0,.54-.54,1-2.43,2.11C143,27.43,138.94,32.56,131.81,37.15Z"/><path class="cls-1" d="M188.57,21.82c.05,9.66.16,14.79.43,18.41.11,1.14.16,1.94.16,2.43,0,2.27-.81,3.94-1.94,3.94s-2.86-2.43-2.86-3.78a7.3,7.3,0,0,1,.16-1.4c.43-3,.86-15,.86-25.76,0-5.08-.21-6.91-.86-8a2.7,2.7,0,0,0-2.59-1.35c-.38-.06-.54-.16-.54-.49s.16-.38.48-.54a15.32,15.32,0,0,1,3.3-.86c.81,0,1.56.38,3.94,1.89.7.48,1,.86,1,1.24a2.76,2.76,0,0,1-.27,1c-.86,1.45-1.18,4-1.29,10a23.07,23.07,0,0,1,11.34,3.51c2.91,2,4.26,3.73,4.26,5.45A2.21,2.21,0,0,1,201.91,30c-1.19,0-1.79-.49-3.14-2.54a19.36,19.36,0,0,0-10.2-7.94Z"/><path class="cls-1" d="M238.79,2.54a1.06,1.06,0,0,1,.65,1c0,.54-.27.86-.92,1.13l-1.19.49a92.07,92.07,0,0,1-3.08,8.69l.92.22a.8.8,0,0,1,.65.76,1.05,1.05,0,0,1-.33.7l-.59.65v31.1c0,.81-.11,1-.49,1.35a4,4,0,0,1-2.21.76c-.65,0-1-.27-1-.7V20.3a48.87,48.87,0,0,1-6.64,9.78c-.6.75-.81.92-1.08.92a.35.35,0,0,1-.33-.33,5.61,5.61,0,0,1,.92-1.83c4.75-7.56,8.48-18.47,9.67-28.08Zm13.44,17.55a68.53,68.53,0,0,1-8.58,11.61c-3,3.4-6.43,6.64-7.08,6.64-.27,0-.48-.16-.48-.38s.43-.86,1.73-2.32c5-5.89,10.85-15.28,13.17-21.11h-4.7c-2.59,0-4.37.05-8.74.21L236.9,13l5.24.16c1.72.11,3.24.11,4.15.11h5.94V.65l4.32.54a1.09,1.09,0,0,1,1,.92A1.39,1.39,0,0,1,257,3l-1.19,1v9.23h9.29l3.51-3.35L273,13.5a.55.55,0,0,1,.27.49c0,.27-.21.54-.37.54h-16.1A30.36,30.36,0,0,0,274.16,33c-2.59,1.51-2.81,1.67-4.38,3.83a41.62,41.62,0,0,1-13.93-21.49V35.15h3.35l2.81-3,3.78,3a1,1,0,0,1,.32.76.51.51,0,0,1-.54.54h-9.72V46.93c0,.86,0,1-.48,1.29A4.54,4.54,0,0,1,253,49c-.54,0-.76-.22-.76-.7V36.45h-1.89c-1.67,0-3.07,0-6.75.16L243.11,35c3.4.16,4.59.16,7.23.16h1.89Z"/><path class="cls-1" d="M283.88,33.54a12.22,12.22,0,0,1,.81,4.75c0,3.08-1.19,5.4-2.76,5.4a1.54,1.54,0,0,1-1.56-1.3c0-.43,0-.43,1.51-3A9.66,9.66,0,0,0,283,35.1a10.8,10.8,0,0,0-.1-1.62ZM287.33,4H297.7L300,1l3.62,2.91a1,1,0,0,1,.43.76.52.52,0,0,1-.54.59h-9.88v6.1h2.49l2-2.59,3.46,2.59a1.13,1.13,0,0,1,.43.71.65.65,0,0,1-.65.59h-7.72V19h2.49l2.26-2.8,3.73,2.91c4.43-5.07,6.7-9,11-19.06l4.38,1.62a1.08,1.08,0,0,1,.64.92.84.84,0,0,1-.7.75l-.75.22a23.79,23.79,0,0,0,3.83,5.56A32.42,32.42,0,0,0,329.78,16a7,7,0,0,1,1.3.76l.37.22a12.7,12.7,0,0,0-3.67,3.29c-6.37-5.08-9.45-9.13-12.31-16.25-3.57,6.37-3.94,7-8.21,12.25H316l2.27-3,3.84,3a1.39,1.39,0,0,1,.43.87.37.37,0,0,1-.32.38H316V23h6.32l1.3-2.26,3.4,3a1.1,1.1,0,0,1,.38.7.63.63,0,0,1-.38.48l-1,.54v8.21c0,.6-1,1.14-2.16,1.14-.37,0-.86-.27-.86-.54V32.46h-6.59c2.59,6,6.64,9.66,14.75,13.33l-1.41.81a11.82,11.82,0,0,0-1.29.7c-.11.11-.49.44-1,.87a5.16,5.16,0,0,1-.59.59,26.79,26.79,0,0,1-11.29-15.17c0,.32-.16.59-.16.7-1,4.21-1.67,5.94-3.4,8.21s-4,3.94-8.37,6.1a10.68,10.68,0,0,1-3.08,1.19.58.58,0,0,1-.54-.49c0-.27,0-.27,1.46-1.08,6.91-3.78,10.15-8.26,11.18-15.76H307.1v3.45c0,.65-1,1.08-2.43,1.08a.58.58,0,0,1-.65-.65V20.74L307.75,23H313c0-2.7,0-3.07-.16-5.5H306c-2.54,2.7-5.29,5-6,5-.21,0-.43-.16-.43-.32s.43-.86,1.46-1.89h-7.4v6.26h3.73l1.29-1.89,3.24,3a1.18,1.18,0,0,1,.38.65c0,.27-.27.54-.59.7l-.92.33c-.43,9.56-.92,13.18-2.16,15.87-1.08,2.22-3.46,4.11-5.24,4.11-.54,0-.86-.27-.92-.92a3,3,0,0,0-.27-1.13,15.19,15.19,0,0,0-1.89-.7l-3.24-1.3.22-.87,4.64.55c.49,0,1.08.1,1.3.1,2.16,0,2.92-1.19,3.78-5.83.49-2.54.65-5.24.7-11.07v-.32h-11v1.62a1.08,1.08,0,0,1-.76,1.08,7.18,7.18,0,0,1-1.56.37c-.43,0-.7-.21-.7-.54V1.89ZM286,33.21a8.76,8.76,0,0,1,3,6.26c0,1.36-.59,2.11-1.62,2.11a1,1,0,0,1-1.13-1.24,2.17,2.17,0,0,1,.05-.54c.06-.65.06-1.24.06-1.89a9.93,9.93,0,0,0-.92-4.32Zm4.8-21.82V5.29h-4.1v6.1Zm0,7.56V12.69h-4.1V19Zm0,7.56V20.25h-4.1v6.26Zm-2.21,5.35c2.54,1.57,4.1,3.62,4.1,5.51a1.79,1.79,0,0,1-1.56,1.84c-.43,0-.65-.28-.7-1A12.51,12.51,0,0,0,288,32.29Zm2.05-2c3.3,1,5.62,2.92,5.62,4.76a1.41,1.41,0,0,1-1.19,1.51c-.76,0-.92-.22-2-2.43a10.22,10.22,0,0,0-2.64-3.19Zm22.09,1.3c.16-1.68.21-2.92.27-6.86H307.1v6.86Zm10.15,0V24.3h-7c0,3.19,0,3.67-.16,6.86Z"/><path class="cls-1" d="M363.85,10.69a50.87,50.87,0,0,1,.76,6.54c0,5.45-2.49,11.88-6.59,17.17-3.13,4.05-6,6.05-8.86,6.05a4.81,4.81,0,0,1-3.72-2.06,12.57,12.57,0,0,1-2.81-8.53c0-11.45,9.94-20.84,22-20.84,10.69,0,18.15,6.69,18.15,16.31,0,8.58-5.08,15.55-13.61,18.63a32.72,32.72,0,0,1-7.4,1.78c-.38,0-.7-.27-.7-.49s.16-.21.92-.43a24.34,24.34,0,0,0,10.2-5.35c3.89-3.34,6.16-8.85,6.16-15.06,0-5-1.57-8.64-4.65-11a13.87,13.87,0,0,0-8.37-2.81Zm-2.16.22A19.21,19.21,0,0,0,345.87,30c0,4,1.51,7,3.56,7,2.33,0,6.65-4.37,9.29-9.39,2.11-4.11,3.78-9.67,3.78-12.75a10.64,10.64,0,0,0-.7-3.72Z"/><path class="cls-1" d="M396,14.2c4.43.54,7.89,3.3,7.89,6.37a2.31,2.31,0,0,1-2.16,2.54c-1.08,0-1.19-.11-1.95-2.81s-2.05-4.48-3.89-5.5Zm1.08,19.44,3.73.49,9.83-21.71.86.38L405,32.62a20.55,20.55,0,0,0-1.25,5.61c0,1,0,1,1,6a2.82,2.82,0,0,1,.05.7c0,2-1,3.13-2.81,3.13s-2.48-.86-2.48-2.75a32.24,32.24,0,0,1,.43-3.62,19.17,19.17,0,0,0,.27-2.81c0-2.16-1-3.4-3.24-4.26Zm2.86-31.75c3,.54,4.38,1,5.94,2.16s2.38,2.48,2.38,3.83c0,1.52-.76,2.43-2,2.43s-1.56-.43-2.27-2.64a9.43,9.43,0,0,0-4.37-5.35Zm18,23.87c.81,0,1.18.32,1.18.86a1.29,1.29,0,0,1-.59,1l-.92.7-.11,5.13c-.1,7.35-.91,9.61-4.69,12.48-1.79,1.34-5.13,3.13-5.84,3.13a.47.47,0,0,1-.43-.43c0-.11.16-.28.43-.49,2.7-1.62,3.73-2.54,5-4.38,1.68-2.53,2.27-5,2.27-9.45,0-2.1-.05-4.1-.16-9ZM423.09.43l4.27.33c.91.1,1.35.37,1.35,1A1.57,1.57,0,0,1,428,2.86l-1.35.92V9.13h9.56l3.24-3.41,4.27,3.08a1.6,1.6,0,0,1,.64,1,.64.64,0,0,1-.64.59H426.6c-2.65,4.43-3.08,5.08-6,9.45,5.72-.11,8.15-.27,14.2-.7A36.21,36.21,0,0,0,429,14.8l.38-.76c7.34,2.16,12.31,5.94,12.31,9.29a1.87,1.87,0,0,1-1.78,2.05,1.47,1.47,0,0,1-1.14-.49c-.16-.27-.75-1.18-1.56-2.64-.27-.38-.65-1-1.24-1.73-9.08,1.4-12.75,1.84-21.06,2.59L414,24.19a1,1,0,0,1-.76.38c-.32,0-.54-.16-.75-.59l-2.22-4.11c2,.06,3.3.06,4.48.06.71,0,2.11,0,3.73-.06,1.62-3.94,2.27-5.61,3.67-9.45h-3.51c-2.05,0-2.32,0-8.8.22l-.59-1.78c5.07.21,7.12.27,9.39.27h4.43Zm3.29,44.12c0,1-.81,1.51-2.26,1.51-.65,0-.92-.27-.92-.92v-19l3.83.32c.76.05,1.08.38,1.08,1,0,.38-.21.65-.7,1l-1,.71Zm16.85-8.75L443,42.17v.11c0,.65.11.81,1.25,1.84a1.52,1.52,0,0,1,.48,1c0,1.35-1.57,1.78-6.37,1.78-6.21,0-6.43-.11-6.43-3.56V24.68l4.11.38c.75.05,1.24.43,1.24,1a1.49,1.49,0,0,1-1,1.19l-1,.48V42.93c0,.86.32,1,2.05,1s2-.06,2.38-.44A5.39,5.39,0,0,0,441,41.09l1.46-5.56Z"/><path class="cls-1" d="M469.1,27.81c0,4.65.16,8.1.75,16.2a5.1,5.1,0,0,1,.06.87,2,2,0,0,1-.76,1.56,5.8,5.8,0,0,1-2.59,1.14c-.49,0-.65-.44-.76-1.84-.27-3.89-1-6.64-2.8-11.5a28.6,28.6,0,0,0-2.7,8.37,1.74,1.74,0,0,1-1.57,1.62c-.49,0-.86-.33-1.24-1.08a11.91,11.91,0,0,1-.87-3.3c0-.81.33-1.4,1.62-3.08.65-.86,1.08-1.51,3.41-4.91-.92-1.67-1.35-2.43-2.38-4.16-1.46-2.43-1.89-3.51-1.89-4.7,0-1.56.86-2.53,3.62-4.32a37.2,37.2,0,0,1,5.56-2.91V14.58c-.05-7.88-.43-8.75-4.1-9a.25.25,0,0,1-.27-.27c0-.44,2.26-1.52,3.24-1.52,1.83,0,5.5,2.27,5.5,3.35,0,.16,0,.16-.27.87a38,38,0,0,0-1.4,7.88c1.08.27,1.4.65,1.4,1.51a23.32,23.32,0,0,1-.91,3.51c6.91-7.18,10.69-9.61,14.79-9.61,3.94,0,6.7,2.48,6.7,6.05,0,.92,0,1-.65,4.21-1.46,7.51-2.11,11.61-2.11,13.77,0,2.32,1.14,3.46,3.35,3.46,4.16,0,7.62-2.65,9.72-7.35.27-.54.38-.7.6-.7s.7.49.7.92a10.85,10.85,0,0,1-.76,2.32c-1.94,5-6.59,8.53-11.28,8.53-3.62,0-5.78-2.8-5.78-7.61a121.69,121.69,0,0,1,1.4-12.37,33,33,0,0,0,.49-4.43c0-2.7-1.24-4.37-3.35-4.37-3.62,0-7.51,2.75-14.47,10.31Zm-2.54-3.35c-.05-1.19-.05-1.62-.05-2.21,0-.27,0-.43.05-2.59-.32-.44-.54-.6-.92-.6A10.41,10.41,0,0,0,462,20.79a3.27,3.27,0,0,0-1.67,3c0,.86.16,1.41,1,3.35.33.7.38.92,1.51,3.67l2.38-4Zm-.16,15.07c.16.43.21.54.38.54.32,0,.37-.54.37-3.46,0-4.37,0-5.94-.16-9.88-1.56,3-1.78,3.4-3.18,6.05C465,35.59,465.7,37.42,466.4,39.53Z"/></g></g></svg>