<svg xmlns="http://www.w3.org/2000/svg" viewBox="0 0 363.33 32.4"><defs><style>.cls-1{isolation:isolate;}.cls-2{fill:#333;}</style></defs><title>craft-menu-title</title><g id="Layer_2" data-name="Layer 2"><g id="Layer_1-2" data-name="Layer 1"><g class="cls-1"><path class="cls-2" d="M5.54,20.12c-.32,0-1.08,0-2.19.07-.33,0-1.23,0-2.27,0L.65,19.08c2.62.11,3.81.14,4.82.18h2.3V14.15l2.7.21c.5,0,.83.33.83.69a1,1,0,0,1-.54.75l-.83.4v3.06h1.44L13,17.06,15.44,19a1.12,1.12,0,0,1,.43.72.46.46,0,0,1-.43.43H9.93v2.2a12.68,12.68,0,0,1,3.56,1.33,3.23,3.23,0,0,1,1.84,2.63,1.3,1.3,0,0,1-1.23,1.29,1.31,1.31,0,0,1-.75-.29,10.73,10.73,0,0,1-1.12-1.8,5.75,5.75,0,0,0-2.3-2.15v8.06c0,.54-.79,1-1.73,1-.32,0-.43-.18-.43-.58V23.43a30.17,30.17,0,0,1-4.64,4.93C1.76,29.52.76,30.2.36,30.2A.36.36,0,0,1,0,29.84c0-.18.18-.4.86-.94a28.72,28.72,0,0,0,6.3-8.78Zm4-14.61c-.21,0-1.51,0-3.42.11-.43,0-1.72,0-3.13.07L2.48,4.43c1.66.07,3,.11,3.53.11,1.76.07,3,.1,3.56.1h5.94V0L18.1.11c.5,0,.75.21.75.61a.85.85,0,0,1-.28.65l-.87.68V4.64h8.64l1.94-2.26,2.55,2a1.08,1.08,0,0,1,.47.69c0,.28-.18.43-.57.43H18.31C22.06,9,26.19,11,32.38,12.06a6.91,6.91,0,0,0-2.44,2.77C24.32,12.6,20.62,9.93,17.7,6v9.07c0,.51-.72.9-1.69.9-.36,0-.5-.18-.5-.54V7A44.06,44.06,0,0,1,6.3,13.17a27.32,27.32,0,0,1-4.68,2.16.3.3,0,0,1-.29-.28c0-.18.36-.44,2.7-1.77a34.87,34.87,0,0,0,9.46-7.77Zm8,14.72-.36-1.12c3.6.15,3.78.15,4.82.15H23V14.43l2.95.18c.32,0,.61.29.61.51a.9.9,0,0,1-.47.68l-1,.58v2.88h3.06l1.91-2.2,2.55,2a.84.84,0,0,1,.4.64.44.44,0,0,1-.47.47H25.19c1.15,2.84,4.28,5.62,8.6,7.52a6,6,0,0,0-2.45,2.27A19.41,19.41,0,0,1,25.11,22v9.58c0,.5-.54.75-1.61.75-.33,0-.47-.14-.47-.5V22.93a49.32,49.32,0,0,1-5.51,5.4C15.51,30,14.14,31,13.78,31a.35.35,0,0,1-.29-.33c0-.14,0-.14,1.19-1.15a49.83,49.83,0,0,0,7.7-9.36Z"/><path class="cls-2" d="M57.65,6.73a33.44,33.44,0,0,1,.5,4.36,19.7,19.7,0,0,1-4.39,11.44c-2.08,2.7-4,4-5.9,4a3.21,3.21,0,0,1-2.48-1.36,8.39,8.39,0,0,1-1.87-5.69c0-7.63,6.62-13.89,14.68-13.89,7.12,0,12.09,4.46,12.09,10.87,0,5.72-3.38,10.36-9.07,12.41a21.48,21.48,0,0,1-4.93,1.19c-.25,0-.47-.18-.47-.32s.11-.15.62-.29a16.43,16.43,0,0,0,6.8-3.56,13.14,13.14,0,0,0,4.1-10.05c0-3.31-1-5.75-3.1-7.3A9.27,9.27,0,0,0,58.66,6.7Zm-1.44.15A12.8,12.8,0,0,0,45.67,19.62c0,2.66,1,4.68,2.37,4.68,1.55,0,4.43-2.92,6.19-6.27a22.8,22.8,0,0,0,2.52-8.49,7.06,7.06,0,0,0-.47-2.49Z"/><path class="cls-2" d="M83.49,29.44a37.61,37.61,0,0,0,11.05-7.73,30.43,30.43,0,0,0,6.26-8.46A13,13,0,0,0,102.13,10a.84.84,0,0,0-.87-.79c-.14,0-.39,0-.68.07-.11,0-.86.18-1.62.29-.61.11-1.11.18-1.4.22a3.21,3.21,0,0,1-.72.1,2.77,2.77,0,0,1-1.4-.5,35.89,35.89,0,0,1-5.94,7.24c-1.73,1.58-4.1,3.2-4.68,3.2-.21,0-.39-.11-.39-.25s.07-.33,1-1a30.14,30.14,0,0,0,5.9-6.73c1.51-2.31,2.44-4.36,2.44-5.55a2.29,2.29,0,0,0-1.33-2.23c-.14,0-.25-.14-.25-.22s.4-.32,1-.32a4.33,4.33,0,0,1,2.52.9c1.3.86,1.58,1.15,1.58,1.66,0,.21,0,.28-.25.54a6.73,6.73,0,0,0-.61.89c-.25.58-.36.76-.5,1.05a2.35,2.35,0,0,0,.86.14A22.49,22.49,0,0,0,101.05,8a6.75,6.75,0,0,0,1.37-.65c.61-.39.82-.46,1-.46.4,0,.86.28,2.09,1.33,1.07.9,1.22,1,1.22,1.37s-.15.43-.54.57a12.17,12.17,0,0,0-1.15.5C100,20.88,93.89,26.56,84.21,30.13a2.51,2.51,0,0,0-.5.18,2.87,2.87,0,0,1-.33.07c-.29,0-.65-.29-.65-.54s.08-.18.51-.29Z"/><path class="cls-2" d="M128.15,27.14c-2.63,1.51-5.9,2.74-7.34,2.74-.32,0-.58-.18-.58-.36s.08-.22.29-.26A25.22,25.22,0,0,0,128,25.45,24.8,24.8,0,0,0,135,17.64c1.3-2.38,1.87-3.78,1.87-4.5s-.39-.94-1.15-.94-4.68.51-6.33.83a47.22,47.22,0,0,0-6.26,1.62,1.31,1.31,0,0,1-.58.14,4.07,4.07,0,0,1-2-1.26,3.6,3.6,0,0,1-.93-2.37c0-.29.1-.47.32-.47s.14,0,.21.25c.22.72,1.59,1.3,3,1.3.58,0,.58,0,4.93-.43l5.18-.58a12.1,12.1,0,0,0,4-1.11,2.33,2.33,0,0,1,.65-.19c.68,0,3.27,2.06,3.27,2.6,0,.32-.14.46-1.29,1.33C136.21,20.88,133.37,24.08,128.15,27.14ZM122.86,4.46c.36.54,1.19.8,2.52.8a27.14,27.14,0,0,0,8.45-1.48A2.36,2.36,0,0,1,135,3.46c.36,0,.68.14,1.76.72.76.39,1,.64,1,1s-.32.58-1.66.72c-1.83.22-1.9.22-4.71.72a35.41,35.41,0,0,1-5.43.65,2.9,2.9,0,0,1-2.74-1.33,6.43,6.43,0,0,1-.72-1.55c0-.07.08-.18.15-.18S122.72,4.25,122.86,4.46Z"/><path class="cls-2" d="M164.64,24.37A29.75,29.75,0,0,1,155,28.51a27.85,27.85,0,0,1-.79.18c-.22,0-.5-.18-.5-.36s.1-.22.54-.36a38.39,38.39,0,0,0,9.71-5.36,30.64,30.64,0,0,0,7.23-8.79,13.69,13.69,0,0,0,1.59-4.35c0-.58-.44-.9-1.08-.9a47.27,47.27,0,0,0-12,2.08,1.72,1.72,0,0,1-.61.18A4.76,4.76,0,0,1,157,9.75a2.67,2.67,0,0,1-.82-1.9c0-.69.1-1,.35-1s.15.07.26.32c.21.69,1.47,1.26,2.84,1.26s6-.46,9.5-1a6.53,6.53,0,0,0,3.09-.93c.79-.47.87-.51,1.19-.51s.54.11,1.15.51c.14.07.43.28.83.53,2,1.19,2.23,1.41,2.23,1.66s-.36.65-1.62,1.41C172.09,17.89,169.39,21.31,164.64,24.37Z"/><path class="cls-2" d="M198,14.15c0,6.44.11,9.86.29,12.27.07.76.11,1.3.11,1.62,0,1.51-.54,2.63-1.29,2.63s-1.91-1.62-1.91-2.52a4.45,4.45,0,0,1,.11-.94c.28-2,.57-10,.57-17.17,0-3.38-.14-4.6-.57-5.32a1.79,1.79,0,0,0-1.73-.9c-.25,0-.36-.11-.36-.33s.11-.25.32-.36a10.13,10.13,0,0,1,2.2-.57c.54,0,1,.25,2.62,1.26.47.32.69.57.69.82a1.91,1.91,0,0,1-.18.69C198.25,6.3,198,8,198,12a15.44,15.44,0,0,1,7.56,2.34c1.94,1.33,2.84,2.49,2.84,3.64a1.47,1.47,0,0,1-1.51,1.58c-.79,0-1.19-.32-2.08-1.69A12.94,12.94,0,0,0,198,12.6Z"/><path class="cls-2" d="M240.32,15.66c3.1,2.59,4.28,4.14,4.28,5.43a1.39,1.39,0,0,1-1.36,1.37c-.76,0-1-.25-2.24-2.12a24.35,24.35,0,0,0-2.15-2.67c-3.64,4.18-6.91,7-10.55,8.82a38.87,38.87,0,0,1-6.4,2.56c-.29,0-.5-.15-.5-.33s.1-.32.5-.46a40.08,40.08,0,0,0,15.29-12.21,21.1,21.1,0,0,0-7-4.5c-.29-.1-.4-.21-.4-.36s.15-.25.33-.25a27.25,27.25,0,0,1,3.16.79,20,20,0,0,1,5.15,2.49c1.62-2.74,2.55-5.08,2.55-6.37a4.06,4.06,0,0,0-.93-2.52c-.22-.18-.25-.25-.25-.36s.25-.33.61-.33a4.16,4.16,0,0,1,2.45,1.15C244.24,7,245,7.92,245,8.35c0,.22-.11.36-.47.61a8.46,8.46,0,0,0-.68.51A49.76,49.76,0,0,1,240.32,15.66Z"/><path class="cls-2" d="M263.21,24a7.73,7.73,0,0,1-2.12.44c-1.19,0-2.52-1.3-3.13-3.1a1.22,1.22,0,0,0-.07-.25,1,1,0,0,1-.07-.29.22.22,0,0,1,.18-.18c.07,0,.14,0,.28.15a4.88,4.88,0,0,0,3.53,1c2.77,0,7.52-.4,13.74-1.08,1.05-.15,1.87-.22,2.52-.29a15.35,15.35,0,0,0,4.14-.94,2.15,2.15,0,0,1,.65-.18,8.25,8.25,0,0,1,2.52,1.08c1.15.69,1.62,1.19,1.62,1.77a.82.82,0,0,1-.87.82,11.51,11.51,0,0,1-2-.25,32.48,32.48,0,0,0-5.9-.43A69.16,69.16,0,0,0,263.21,24Zm15-15c.79.35,1.11.71,1.11,1.18s-.28.54-1,.61c-4.72.72-5.11.8-8.21,1.34a12.37,12.37,0,0,1-2.41.28c-1.18,0-1.87-.43-2.73-1.8a6.47,6.47,0,0,1-.72-1.29.2.2,0,0,1,.22-.18c.1,0,.14,0,.32.21.43.54,1.26.76,3,.76a19.26,19.26,0,0,0,7.37-1.48c.76-.39.87-.43,1.19-.43s.36,0,1,.36Z"/><path class="cls-2" d="M312.66,19.26a20.27,20.27,0,0,0,.21-2.13.88.88,0,0,0-1-.9c-1.12,0-2.67.44-5.83,1.59a3.86,3.86,0,0,1-1.08.32,2.33,2.33,0,0,1-1.44-.75,1.9,1.9,0,0,1-.72-1.59c0-.57.11-.86.32-.86s.07,0,.15.11c.25.72.82,1,2.08,1a21.54,21.54,0,0,0,4.5-.64,7,7,0,0,0,2.81-1.05,1.92,1.92,0,0,1,.79-.29c.29,0,.83.33,2.59,1.59.39.29.58.5.58.72s-.11.36-.51.75c-.68.44-1.44,2.78-2.48,7.63a42,42,0,0,0,6.12-.79,5.27,5.27,0,0,1,.93-.1c.47,0,.86.21,1.94,1,.65.47.94.86.94,1.3a.77.77,0,0,1-.72.68,3.89,3.89,0,0,1-1-.18,33.62,33.62,0,0,0-7.38-.69,67.29,67.29,0,0,0-7.34.54,21.3,21.3,0,0,0-4.32,1,4.06,4.06,0,0,1-1.62.46c-.39,0-.79-.21-1.83-1s-1.22-.93-1.22-1.33.18-.86.36-.86.1,0,.18.14c.28.47,1.29.76,2.73.76.25,0,.65,0,1.19-.07,1.08-.08,2-.15,2.73-.22,2.45-.15,4.28-.29,4.57-.33s1-.1,1.84-.17Z"/><path class="cls-2" d="M339.79,18.9a7.59,7.59,0,0,1-1.65.25A4.4,4.4,0,0,1,335,17.21a10.21,10.21,0,0,1-.25-2c0-.25.11-.43.29-.43s.18.07.29.25c.46,1,1.33,1.4,3.41,1.4a168.56,168.56,0,0,0,20.8-1.47,8.36,8.36,0,0,1,1-.07,2.43,2.43,0,0,1,1.91.79c.68.65.94,1,.94,1.33,0,.54-.72.86-1.88.86-.28,0-.68,0-1.33,0s-3.7-.11-5.21-.11A97.69,97.69,0,0,0,339.79,18.9Z"/></g></g></g></svg>