<svg xmlns="http://www.w3.org/2000/svg" viewBox="0 0 611.28 51.3"><defs><style>.cls-1{fill:#333;}</style></defs><title>craft-recommendation-title</title><g id="Layer_2" data-name="Layer 2"><g id="Layer_1-2" data-name="Layer 1"><path class="cls-1" d="M51.25,25.65A25.62,25.62,0,1,1,26,0C39.74,0,51.25,11.66,51.25,25.65Zm-49.58,0a24,24,0,1,0,47.9-.16A23.72,23.72,0,0,0,41.63,7.83,24,24,0,0,0,25.22,1.67C12.42,1.67,1.67,12.58,1.67,25.65Z"/><path class="cls-1" d="M75,6H92.67l1.89-2.53L97.9,6.7a2.59,2.59,0,0,1,.87,1.4c0,.27-.33.65-.76.81l-1,.38V45.68c0,1.14-.7,2.06-2.21,2.92a4.53,4.53,0,0,1-1.94.59c-.65,0-.87-.27-.92-1.08s-.22-1.24-.6-1.35l-6.1-1.94.11-.7,6.8.05c.82,0,.92-.11,1-.65V30.24H74.41A26.67,26.67,0,0,1,72.79,38c-1.56,3.89-4.43,6.86-9.34,9.78a15.43,15.43,0,0,1-4.64,2,.42.42,0,0,1-.44-.38c0-.22.22-.43.71-.7a25.69,25.69,0,0,0,9.55-10.15c1.84-3.89,2.27-8.1,2.27-21.23,0-4.8-.05-7.77-.32-13.93Zm18.09,23V18.79H74.57v6.37c0,1.3,0,2.06-.1,3.78Zm0-11.44V7.29H74.57V17.5Z"/><path class="cls-1" d="M141.32,11.66a50.34,50.34,0,0,1,.75,6.54c0,5.45-2.48,11.88-6.58,17.17-3.14,4.05-6.05,6.05-8.86,6.05a4.84,4.84,0,0,1-3.73-2.05,12.61,12.61,0,0,1-2.8-8.54c0-11.44,9.93-20.84,22-20.84,10.69,0,18.14,6.7,18.14,16.31,0,8.58-5.07,15.55-13.61,18.63a32.66,32.66,0,0,1-7.39,1.78c-.38,0-.71-.27-.71-.49s.17-.21.92-.43a24.41,24.41,0,0,0,10.21-5.34c3.89-3.35,6.15-8.86,6.15-15.07,0-5-1.56-8.64-4.64-11a14,14,0,0,0-8.37-2.81Zm-2.16.22A19.21,19.21,0,0,0,123.34,31c0,4,1.51,7,3.56,7,2.32,0,6.64-4.38,9.29-9.4,2.1-4.1,3.78-9.67,3.78-12.74a10.66,10.66,0,0,0-.7-3.73Z"/><path class="cls-1" d="M189.7,29.32l0-3.51c-.06-.59-.06-1.73-.06-3.24A17,17,0,0,1,183,24a2.93,2.93,0,0,1-2.86-1.41,2.84,2.84,0,0,1-.65-1.62c0-1.08.16-1.67.43-1.67s.17,0,.22.27c.16.86,1.57,1.46,3.56,1.46a13.84,13.84,0,0,0,5.94-1.3,74.54,74.54,0,0,0-.32-7.83c-.27-1.84-1-2.59-2.38-2.59a2.52,2.52,0,0,0-.64.05,1.71,1.71,0,0,1-.49.06c-.16,0-.22-.11-.22-.27,0-1,1.73-2.33,3.08-2.33,1.78,0,4.76,2,4.76,3.19a4.6,4.6,0,0,1-.28,1,9.41,9.41,0,0,0-.54,2.53,16.42,16.42,0,0,0,5.73,1.68l1.24-.06c.49,0,1,.65,1,1.41,0,1.83-2.27,3.29-8.48,5.4-.05,2.16-.1,3.67-.1,4.91,0,.54,0,1.73.05,3,5.89-3.46,10.64-5.08,15-5.08,5.24,0,8.86,3.67,8.86,9,0,6.48-4.7,11.07-11.35,11.07-4.42,0-7.07-2.76-7.07-7.35,0-1.89.7-4,1.35-4,.16,0,.32.11.32.22a1.58,1.58,0,0,1-.16.59,14.52,14.52,0,0,0-.27,2.6,5.85,5.85,0,0,0,1.89,4,6.2,6.2,0,0,0,3.62,1.19c4.48,0,7.78-3.51,7.78-8.26,0-4.48-2.32-6.91-6.54-6.91-3.78,0-7.18,1.24-13.28,4.91v1.57c0,2.1.21,6.58.43,7.93a16.72,16.72,0,0,1,.16,2c0,1.73-2,3.62-4,3.62-.38,0-.54-.22-.54-.7-.11-2.81-2.65-6.48-5.46-8a16.27,16.27,0,0,0-3,2.59,1.76,1.76,0,0,1-1.3.75c-1.46,0-3.89-2.37-3.89-3.88,0-.92.49-1.25,1.84-1.25,3.56-.1,4.54-.37,6.26-1.56.17-.11,1.19-.7,2.22-1.24l4.91-2.81Zm0,6.64c0-.32,0-.43.06-3.07a39.85,39.85,0,0,0-6.16,4.69,35.69,35.69,0,0,1,4.05,3.08c.65.54,1,.7,1.3.7q.81,0,.81-2.1ZM196,16.63c0-.27-.17-.43-1.14-1s-1.35-.76-2.54-1.46c-.16,1.51-.16,2.38-.21,5C194.4,18.41,196,17.33,196,16.63Zm12.63,1.19a2.64,2.64,0,0,1-.81.27.46.46,0,0,1-.37-.43c0-.87,3.94-2.16,6.48-2.16a9.84,9.84,0,0,1,7,2.59,7.26,7.26,0,0,1,1.89,4.1,2.84,2.84,0,0,1-2.86,2.65c-.54,0-.7-.27-1.08-1.94a8.91,8.91,0,0,0-2.59-3.68,8,8,0,0,0-4.92-1.78A10.94,10.94,0,0,0,208.6,17.82Z"/><path class="cls-1" d="M257.09,34.94c-.81,2.32-1.67,3.18-3,3.18-3,0-5.72-3.61-5.72-7.56,0-4.64,2.8-8.42,6.26-8.42a4.91,4.91,0,0,1,2.16.49c0-1.46,0-2.33,0-3.3,0-1.24,0-1.46,0-2.75-8,1.24-13.07,2.59-17.55,4.75a4.51,4.51,0,0,1-2.16.7c-.81,0-1.94-.65-3.24-1.83-.92-.87-1.24-1.95-1.24-4.05,0-.44.11-.65.32-.65s.22.05.27.27a3.46,3.46,0,0,0,3.57,2.32c1.18,0,2.16-.16,7.29-1.13,5.4-1,9.07-1.57,12.69-2-.27-7.07-.27-7.61-.65-8.48A3.1,3.1,0,0,0,253,4.7c-.22,0-.38-.06-.38-.22,0-.43,2.54-1.46,3.73-1.46,1.51,0,4.86,2.11,4.86,3a2.38,2.38,0,0,1-.33,1c-.81,1.94-.91,2.32-1.29,7.61,2.81-.48,3.45-.54,7.23-1.08a40.26,40.26,0,0,0-3.45-2.64c-.49-.33-.6-.43-.6-.6a.37.37,0,0,1,.38-.32.69.69,0,0,1,.38.16c3.24,1.73,5.24,2.49,7.24,2.65A6.4,6.4,0,0,1,274.65,14a2.9,2.9,0,0,1,1.45,1.94,1.39,1.39,0,0,1-1.24,1.35,5.94,5.94,0,0,1-.81-.11A55.07,55.07,0,0,0,264.38,16a41.34,41.34,0,0,0-4.91.32c-.27,3.57-.32,4.7-.32,5.83V24c1.78,1.78,2.21,3.34,2.21,7.93,0,7.29-2.11,11.83-7.07,15.34-2.38,1.67-5.94,3-7.94,3a.44.44,0,0,1-.49-.43c0-.21.11-.27.54-.43,6.75-2.32,10.48-7.07,11.18-14.31Zm-4.86-9.67a7.92,7.92,0,0,0-1.56,4.81c0,3,1.4,5.29,3.13,5.29s2.7-2.54,2.7-8.15c0-2.11-.49-3.08-1.67-3.19A4,4,0,0,0,252.23,25.27Z"/><path class="cls-1" d="M314.33,34.94c-.81,2.32-1.67,3.18-3,3.18-3,0-5.72-3.61-5.72-7.56,0-4.64,2.8-8.42,6.26-8.42a4.91,4.91,0,0,1,2.16.49c-.05-1.46-.05-2.33-.05-3.3,0-1.24,0-1.46.05-2.75-8.05,1.24-13.07,2.59-17.55,4.75a4.51,4.51,0,0,1-2.16.7c-.81,0-1.94-.65-3.24-1.83-.92-.87-1.24-1.95-1.24-4.05,0-.44.11-.65.32-.65s.22.05.27.27A3.46,3.46,0,0,0,294,18.09c1.18,0,2.16-.16,7.29-1.13,5.4-1,9.07-1.57,12.69-2-.27-7.07-.27-7.61-.65-8.48a3.1,3.1,0,0,0-3.08-1.83c-.22,0-.38-.06-.38-.22,0-.43,2.54-1.46,3.73-1.46,1.51,0,4.86,2.11,4.86,3a2.38,2.38,0,0,1-.33,1c-.81,1.94-.91,2.32-1.29,7.61,2.81-.48,3.45-.54,7.24-1.08a40.49,40.49,0,0,0-3.46-2.64c-.49-.33-.6-.43-.6-.6a.37.37,0,0,1,.38-.32.69.69,0,0,1,.38.16C324,11.88,326,12.64,328,12.8A6.4,6.4,0,0,1,331.89,14a2.9,2.9,0,0,1,1.45,1.94,1.39,1.39,0,0,1-1.24,1.35,5.94,5.94,0,0,1-.81-.11A55.07,55.07,0,0,0,321.62,16a41.34,41.34,0,0,0-4.91.32c-.27,3.57-.32,4.7-.32,5.83V24c1.78,1.78,2.21,3.34,2.21,7.93,0,7.29-2.1,11.83-7.07,15.34-2.38,1.67-5.94,3-7.94,3a.44.44,0,0,1-.49-.43c0-.21.11-.27.54-.43,6.75-2.32,10.48-7.07,11.18-14.31Zm-4.86-9.67a7.92,7.92,0,0,0-1.56,4.81c0,3,1.4,5.29,3.13,5.29s2.7-2.54,2.7-8.15c0-2.11-.49-3.08-1.67-3.19A4,4,0,0,0,309.47,25.27Z"/><path class="cls-1" d="M354.19,13.5c-.38-2.11-1.08-2.65-3.3-2.7-.21,0-.32-.05-.32-.27,0-.49,1.67-1.19,2.86-1.19a4.51,4.51,0,0,1,3.51,1.57c.43.54.49.7.65,2.7a24.34,24.34,0,0,0,1.4,6.53,25.52,25.52,0,0,1,12.58-4.75,19.19,19.19,0,0,0,.38-3.83c0-3.19-1.24-4.59-4.21-4.92-.22,0-.32-.11-.32-.27,0-.32,1.45-.65,3.07-.65,2.7,0,5,1.84,5,4a24.94,24.94,0,0,1-1,5.72c4.54.44,7.07,1.25,9.45,2.92,3.35,2.38,5.08,6.16,5.08,11.07,0,7.13-3.89,12.31-11.83,15.61a35.35,35.35,0,0,1-11.77,2.64c-.6,0-.92-.21-.92-.59,0-.22.11-.33.43-.38a48.83,48.83,0,0,0,7.89-2.27c7.93-3.13,11.77-8.48,11.77-16.25,0-4-1.3-6.91-4.11-9a11.3,11.3,0,0,0-6.42-2.32,69.48,69.48,0,0,1-5.35,13.66c.27,0,.49.16.54.16a1.86,1.86,0,0,1,1.24,2c0,.54-.27,1-.64,1a8.42,8.42,0,0,1-2.43-.81,21.38,21.38,0,0,1-5,6.32c-2.37,2.05-5,3.24-7,3.24-2.64,0-4.64-3.13-4.64-7.34a18.08,18.08,0,0,1,2.21-8A29.65,29.65,0,0,1,357,22,33.89,33.89,0,0,1,354.19,13.5Zm3.88,10.42c-3.18,3.78-4.48,6.75-4.48,10.42,0,2.65,1.3,4.38,3.24,4.38,2.27,0,5.67-2.7,8.64-7C362.23,29.92,360.4,28,358.07,23.92Zm8.7,5.78a52,52,0,0,0,4.48-12.8,20.6,20.6,0,0,0-11.45,5.24C361.58,25.87,363.74,28.24,366.77,29.7Z"/><path class="cls-1" d="M408.24,45.74a56.54,56.54,0,0,0,16.58-11.61,45.11,45.11,0,0,0,9.39-12.69,19.05,19.05,0,0,0,2-4.81,1.26,1.26,0,0,0-1.29-1.19c-.22,0-.6.06-1,.11-.16.06-1.3.27-2.43.43-.92.17-1.67.27-2.11.33a4.6,4.6,0,0,1-1.08.16,4.12,4.12,0,0,1-2.1-.76,53.56,53.56,0,0,1-8.91,10.86c-2.59,2.37-6.16,4.8-7,4.8-.33,0-.6-.16-.6-.37,0-.38.11-.49,1.46-1.46C413.37,28,417,23.81,420,19.44c2.27-3.46,3.67-6.53,3.67-8.32a3.44,3.44,0,0,0-2-3.34c-.21-.06-.38-.22-.38-.33,0-.27.6-.48,1.46-.48a6.43,6.43,0,0,1,3.78,1.35c1.95,1.29,2.38,1.72,2.38,2.48,0,.32-.06.43-.38.81a9.8,9.8,0,0,0-.92,1.35c-.38.86-.54,1.13-.75,1.57a3.63,3.63,0,0,0,1.29.21,33.85,33.85,0,0,0,6.48-1.19,10.45,10.45,0,0,0,2.06-1c.91-.59,1.24-.7,1.56-.7.6,0,1.3.43,3.13,2,1.62,1.35,1.84,1.56,1.84,2s-.22.65-.81.86a16.65,16.65,0,0,0-1.73.76C433,32.89,423.85,41.42,409.32,46.76a5.76,5.76,0,0,0-.76.27,2.18,2.18,0,0,1-.48.11c-.43,0-1-.43-1-.81,0-.16.1-.27.75-.43Z"/><path class="cls-1" d="M480.11,42.28c-3.94,2.27-8.85,4.11-11,4.11-.49,0-.87-.27-.87-.54s.11-.33.44-.38a37.81,37.81,0,0,0,11.17-5.73C484.7,36,488.27,32.13,490.43,28c1.94-3.57,2.81-5.67,2.81-6.75,0-.92-.6-1.41-1.73-1.41s-7,.76-9.51,1.24a72.65,72.65,0,0,0-9.39,2.43,1.94,1.94,0,0,1-.87.22c-.64,0-1.78-.7-3.07-1.89a5.43,5.43,0,0,1-1.41-3.56c0-.44.16-.71.49-.71.16,0,.21.06.32.38.33,1.08,2.38,1.95,4.48,1.95.87,0,.87,0,7.4-.65,4.38-.49,7-.76,7.78-.87a18.11,18.11,0,0,0,6-1.67,3.36,3.36,0,0,1,1-.27c1,0,4.91,3.08,4.91,3.89,0,.48-.21.7-1.94,2C492.21,32.89,487.94,37.69,480.11,42.28Zm-7.93-34c.54.81,1.78,1.19,3.78,1.19,3.94,0,10.09-1.08,12.69-2.21a3.51,3.51,0,0,1,1.67-.49c.54,0,1,.22,2.65,1.08,1.13.59,1.51,1,1.51,1.51s-.49.87-2.49,1.08c-2.75.33-2.86.33-7.07,1.08a52.36,52.36,0,0,1-8.15,1,4.34,4.34,0,0,1-4.11-2,9.37,9.37,0,0,1-1.08-2.33c0-.1.11-.27.22-.27S472,7.94,472.18,8.26Z"/><path class="cls-1" d="M538.92,38.12a44.14,44.14,0,0,1-14.53,6.21,3.49,3.49,0,0,1-.7.17,2.93,2.93,0,0,1-.48.1c-.33,0-.76-.27-.76-.54s.16-.32.81-.54a57.42,57.42,0,0,0,14.58-8A46,46,0,0,0,548.69,22.3c1.3-2.43,2.38-5.45,2.38-6.53,0-.87-.65-1.35-1.62-1.35-4.64,0-14.15,1.67-18,3.13a2.78,2.78,0,0,1-.92.27,7.15,7.15,0,0,1-3.08-1.62,4.05,4.05,0,0,1-1.24-2.86c0-1,.16-1.51.54-1.51.16,0,.22.1.38.48.32,1,2.21,1.89,4.26,1.89s9.08-.7,14.26-1.46c2.65-.37,3.46-.64,4.64-1.4s1.3-.76,1.79-.76.81.17,1.73.76c.21.11.64.43,1.24.81,3,1.78,3.35,2.11,3.35,2.48,0,.54-.54,1-2.44,2.11C550.1,28.4,546.05,33.53,538.92,38.12Z"/><path class="cls-1" d="M595.67,22.79c.06,9.66.17,14.79.44,18.41.1,1.14.16,1.95.16,2.43,0,2.27-.81,3.94-1.95,3.94s-2.86-2.43-2.86-3.78a8.21,8.21,0,0,1,.16-1.4c.44-3,.87-15,.87-25.76,0-5.07-.22-6.91-.87-8A2.7,2.7,0,0,0,589,7.29c-.38,0-.54-.16-.54-.49s.16-.37.49-.54a15.14,15.14,0,0,1,3.29-.86c.81,0,1.57.38,3.94,1.89.71.49,1,.86,1,1.24a3,3,0,0,1-.27,1c-.86,1.46-1.19,4-1.3,10A23,23,0,0,1,607,23.11c2.92,2,4.27,3.73,4.27,5.46A2.21,2.21,0,0,1,609,30.94c-1.19,0-1.78-.48-3.13-2.54a19.37,19.37,0,0,0-10.21-7.93Z"/></g></g></svg>