<svg xmlns="http://www.w3.org/2000/svg" viewBox="0 0 449.17 172.88"><defs><style>.cls-1{fill:#333;}</style></defs><title>motor-enjoy-point-title</title><g id="Layer_2" data-name="Layer 2"><g id="Layer_1-2" data-name="Layer 1"><path class="cls-1" d="M21.82,25.6c-.06,1.4-.11,2.32-.11,2.59,0,2.64.32,4.32,1,5.13,1,1.19,2.27,1.62,4.7,1.62a31.41,31.41,0,0,0,8-1,3.68,3.68,0,0,1,1.78-.44,2.24,2.24,0,0,1,1.94,1,5,5,0,0,1,.71,1.89c0,.59-.81,1.24-1.89,1.51a29.59,29.59,0,0,1-6.38.81c-3.83,0-7.77-.7-9.5-1.73-2.27-1.3-3.19-3.13-3.35-6.43,0-.7,0-1.29-.05-4.59s0-3.18-.06-4.64A54.47,54.47,0,0,0,7.83,24.19c-2.16.81-2.59.92-3.4.92C2.48,25.11,0,22.41,0,20.25c0-.22.11-.32.38-.32s.21.05.48.32c.54.59,2.06,1,3.62,1s8.32-.92,14.2-1.94c.06-2.38.06-2.54.06-3.35,0-3.4-.11-4.1-.7-4.75a31.75,31.75,0,0,1-6.21,1c-1.52,0-2.54-.65-3.57-2.21a5.8,5.8,0,0,1-.81-1.73.26.26,0,0,1,.27-.27c.11,0,.16,0,.27.21.43.76,1.41,1.08,3,1.08A38.77,38.77,0,0,0,18.9,8c5.45-1.24,6.05-1.4,8.15-2.48A4,4,0,0,1,28.62,5a8.39,8.39,0,0,1,2.75,1.08c.65.27.92.65.92,1.08,0,.75-.59,1.08-3.08,1.62-1.08.21-1.89.43-4.75,1-2.48.49-2.48.49-3.72.81.81.38,1,.49,1.56.71s.81.54.81.86a1.8,1.8,0,0,1-.16.7c-.38.7-.54,1.84-.92,6C32.18,17.66,35.37,17,37.58,15.77a3.49,3.49,0,0,1,1-.27,13,13,0,0,1,3.72,1.94c1.19.76,1.68,1.3,1.68,1.73a1.28,1.28,0,0,1-1.35,1.19c-.33,0-.87-.06-1.46-.11-1.24-.16-5-.32-6.54-.32a119.47,119.47,0,0,0-12.74.91C21.82,24.62,21.82,24.73,21.82,25.6Z"/><path class="cls-1" d="M66.42,24.79a11,11,0,0,1-2.48.37c-1.57,0-4.32-1.67-4.76-2.91a15.67,15.67,0,0,1-.37-3c0-.37.16-.64.43-.64s.27.1.43.37c.7,1.57,2,2.11,5.13,2.11A253,253,0,0,0,96,18.85a12.91,12.91,0,0,1,1.46-.11,3.61,3.61,0,0,1,2.86,1.19c1,1,1.41,1.51,1.41,2,0,.81-1.08,1.3-2.81,1.3-.43,0-1,0-2,0-1.19-.11-5.56-.17-7.83-.17C81.65,23,70.63,23.87,66.42,24.79Z"/><path class="cls-1" d="M133,.05a5.84,5.84,0,0,1,3.62,1.57c1.94,1.67,2.16,1.89,2.16,2.48,0,.38-.06.54-.54,1-.06,0-.22.27-.44.54a3.22,3.22,0,0,1-.32.43c-.43,1-.54,1.14-1.13,2.38a3.87,3.87,0,0,0,2.37.75A25,25,0,0,0,142,8.86c2.16-.38,2.16-.38,3-.49a6.08,6.08,0,0,0,1.46-.7c1.19-.76,1.4-.87,1.83-.87s.92.33,2.76,1.89c2.16,1.79,2.32,2,2.32,2.43s-.11.38-1.35.87a5.71,5.71,0,0,0-1,.48,69.87,69.87,0,0,1-6.58,10.37c3.78,2.76,5.61,5,5.61,7a2.12,2.12,0,0,1-2.1,2.27c-1.08,0-1.35-.27-2.92-2.76a19.31,19.31,0,0,0-2.86-3.83A51.8,51.8,0,0,1,123.39,39a43.72,43.72,0,0,1-7.34,2.49.88.88,0,0,1-.87-.76c0-.16.11-.27.38-.32,8.1-2.65,18.36-9.94,24.08-17.07-3.4-2.75-7.29-4.86-10-5.4a33.47,33.47,0,0,1-6.8,5.78c-2,1.24-2.33,1.4-2.65,1.4s-.59-.27-.59-.48.1-.49,1.18-1.19c5.89-4.1,12.59-14.53,12.59-19.66A3.42,3.42,0,0,0,131.6.76c-.33-.11-.43-.22-.43-.33,0-.27.16-.32,1.35-.43ZM145,15a18.32,18.32,0,0,0,1.41-3.51,1.34,1.34,0,0,0-1.3-1.19,5.45,5.45,0,0,0-.86.11c-.38.05-1.24.16-2.27.21s-2.16.22-2.43.27c-.54.06-.92.11-1.19.11a4,4,0,0,1-2.75-1.29,57.46,57.46,0,0,1-5.35,7.56A31.08,31.08,0,0,1,141.37,21,46,46,0,0,0,145,15Z"/><path class="cls-1" d="M180.9,24.79a11,11,0,0,1-2.48.37c-1.57,0-4.32-1.67-4.76-2.91a15.67,15.67,0,0,1-.37-3c0-.37.16-.64.43-.64s.27.1.43.37c.7,1.57,2,2.11,5.13,2.11a253,253,0,0,0,31.21-2.21,12.91,12.91,0,0,1,1.46-.11,3.61,3.61,0,0,1,2.86,1.19c1,1,1.41,1.51,1.41,2,0,.81-1.08,1.3-2.81,1.3-.43,0-1,0-2,0-1.19-.11-5.56-.17-7.83-.17C196.13,23,185.11,23.87,180.9,24.79Z"/><path class="cls-1" d="M260,11.83a8.62,8.62,0,0,0-.06,1.35c.49-.06,1-.17,1.14-.17L263,12.8a12.27,12.27,0,0,0,3.46-1,4.42,4.42,0,0,1,1.94-.6,15.33,15.33,0,0,1,4.37,1.62c.81.43,1.35,1,1.35,1.46a1.59,1.59,0,0,1-1.45,1.57c-.33,0-.76-.06-1.3-.11a62.65,62.65,0,0,0-7.72-.65,38.21,38.21,0,0,0-3.84.22c-.7,9.82-1.67,13.66-4.69,18.09a22.56,22.56,0,0,1-12.21,8.74,3.65,3.65,0,0,0-.65.22,2.69,2.69,0,0,1-.43.11.76.76,0,0,1-.65-.6c0-.21.17-.37.54-.48,9.56-4.21,14.64-13.23,14.64-26-4,.27-5.94.43-9,.76.05,1.67.05,2.8.05,3.34s.06,1.3.06,2.11v1.46l0,1.83a11.82,11.82,0,0,1,.11,1.19,1.25,1.25,0,0,1-1.3,1.3c-1.08,0-2.53-1.89-2.53-3.24a8.71,8.71,0,0,1,.05-1c.16-1.4.27-4.21.27-6.53a66,66,0,0,0-6.64,1.51,8,8,0,0,1-2.54.49,4.77,4.77,0,0,1-3.83-2.06,3.19,3.19,0,0,1-1-2.48v-.11a.29.29,0,0,1,.33-.32c.11,0,.21.05.38.21,1,1,2.26,1.41,4.8,1.41,1.08,0,5.24-.27,8.48-.54C244,14,244,13.23,244,13.23l-.11-2.43c-.16-4-.16-4-.65-4.48a3.89,3.89,0,0,0-2.48-.76,2,2,0,0,0-.6.06.33.33,0,0,1-.21,0,.24.24,0,0,1-.22-.22c0-.16.11-.32.49-.54.1,0,.43-.27.91-.59,1-.76,1.46-1,1.84-1a14.47,14.47,0,0,1,3.29,1.19c.76.43,1.19.91,1.19,1.4a2.56,2.56,0,0,1,0,.59,1.83,1.83,0,0,0-.11.76v.86c0,1.46,0,2.54,0,3.35s0,1.51,0,2.92c4-.43,4.54-.49,9.07-.87l-.05-4.1c.05-5.89-.6-7.18-3.67-7.83-.22-.05-.33-.16-.33-.27,0-.49,1.78-1,3.3-1,1.94,0,5.67,2.27,5.67,3.51,0,.22,0,.22-.65,1.46a5.9,5.9,0,0,0-.6,2.38L260,8.91Z"/><path class="cls-1" d="M310,16.42c2.75,1.24,2.75,1.24,2.75,1.78a1.78,1.78,0,0,1-.21.75,11.8,11.8,0,0,0-.49,4.32l.11,5.51v6.16l.05,3.73c.06.7.06,1.34.06,1.78,0,1.4-.49,2.21-1.3,2.21-1.62,0-3.51-1.4-3.51-2.65a4.83,4.83,0,0,1,.16-1,171,171,0,0,0,1.3-18.69,5.45,5.45,0,0,0-.65-3.18,68.82,68.82,0,0,1-14,11.12,24,24,0,0,1-6,2.54c-.22,0-.54-.22-.54-.43s.11-.27.54-.43C296.73,26,313.42,9,313.42,4.21c0-.54-1-1.51-1.79-1.67-.48-.11-.59-.22-.59-.43,0-.38,1.13-.76,2.21-.76,2,0,6.11,2.92,6.11,4.37,0,.38-.17.54-.65.81a4,4,0,0,0-1.95,1.62,89.08,89.08,0,0,1-7.5,7.94Z"/><path class="cls-1" d="M347.65,40.61A56.54,56.54,0,0,0,364.23,29a45.33,45.33,0,0,0,9.4-12.69,19.3,19.3,0,0,0,2-4.81,1.26,1.26,0,0,0-1.29-1.19c-.22,0-.6.06-1,.11-.16.06-1.29.27-2.43.43-.92.17-1.67.27-2.1.33a4.68,4.68,0,0,1-1.08.16,4.15,4.15,0,0,1-2.11-.76,53.56,53.56,0,0,1-8.91,10.86c-2.59,2.37-6.16,4.8-7,4.8-.32,0-.59-.16-.59-.37,0-.38.1-.49,1.45-1.46,2.27-1.57,5.89-5.73,8.86-10.1C361.64,10.85,363,7.78,363,6a3.44,3.44,0,0,0-2-3.34c-.21-.06-.37-.22-.37-.33,0-.27.59-.48,1.45-.48a6.41,6.41,0,0,1,3.78,1.35c2,1.29,2.38,1.72,2.38,2.48,0,.32,0,.43-.38.81A10.77,10.77,0,0,0,367,7.83c-.37.86-.54,1.13-.75,1.57a3.63,3.63,0,0,0,1.29.21A33.85,33.85,0,0,0,374,8.42a10.19,10.19,0,0,0,2.06-1c.91-.59,1.24-.7,1.56-.7.6,0,1.3.43,3.13,2,1.62,1.35,1.84,1.56,1.84,2.05s-.22.65-.81.86a17.64,17.64,0,0,0-1.73.76c-7.67,15.34-16.79,23.87-31.32,29.21a5.63,5.63,0,0,0-.75.27,2.37,2.37,0,0,1-.49.11c-.43,0-1-.43-1-.81,0-.16.11-.27.75-.43Z"/><path class="cls-1" d="M415.8,10.1c1.62.86,2.81,1.94,2.81,2.43,0,.21-.06.27-.49.65a4.38,4.38,0,0,0-.7,2,46.72,46.72,0,0,1-5.18,13.13c-2.92,4.8-9.35,11.07-11.4,11.07a.61.61,0,0,1-.65-.6c0-.21.17-.43.54-.65,2.22-1.4,5.3-5,7.56-8.91,2.87-4.91,5.13-12.15,5.13-16.3A3,3,0,0,0,411.64,10c-.27-.11-.38-.27-.38-.43s.33-.43.76-.43A9.12,9.12,0,0,1,415.8,10.1Zm7.45,9.12c.06-4.75.11-7.23.11-7.34,0-1.84-.11-2.65-.43-3.13A2.93,2.93,0,0,0,421.85,8c-.33,0-.43-.11-.43-.32s1.08-.76,1.72-.76c1,0,1.95.43,3.46,1.51s1.57,1.14,1.57,1.46,0,.27-.44.76a11.41,11.41,0,0,0-1,4.32c-.16,2-.54,10.31-.54,12.15,0,.75.27,1.08.87,1.08,2,0,6.21-2.43,10.1-5.83s9-9.35,10.69-12.42c.32-.65.48-.81.7-.81a.73.73,0,0,1,.59.64c0,.71-2,4.32-4.05,7.29a48.53,48.53,0,0,1-8.37,9.35,47.18,47.18,0,0,1-7.45,5.13A7.23,7.23,0,0,0,426,33.91a.6.6,0,0,1-.33.16c-.86,0-3.4-3-3.4-3.94a2.24,2.24,0,0,1,.22-.65c.59-1,.7-1.56.7-3.67Z"/><path class="cls-1" d="M48.55,81.66c.05,9.66.16,14.79.43,18.41.11,1.14.16,2,.16,2.43,0,2.27-.81,3.94-1.94,3.94s-2.87-2.43-2.87-3.77a7.42,7.42,0,0,1,.17-1.41c.43-3,.86-15,.86-25.76,0-5.07-.22-6.91-.86-8a2.71,2.71,0,0,0-2.6-1.35c-.37,0-.54-.16-.54-.49s.17-.37.49-.54a15.14,15.14,0,0,1,3.29-.86c.81,0,1.57.38,4,1.89.7.49,1,.86,1,1.24a3,3,0,0,1-.27,1c-.86,1.46-1.19,4-1.29,10A23.07,23.07,0,0,1,59.89,82c2.91,2,4.26,3.73,4.26,5.46a2.21,2.21,0,0,1-2.27,2.37c-1.18,0-1.78-.48-3.13-2.54a19.35,19.35,0,0,0-10.2-7.93Z"/><path class="cls-1" d="M97.31,80.58V78.85c-.06-1-.06-1.73-.06-2a4.37,4.37,0,0,0-3.45-4.43c-.27-.1-.43-.21-.43-.32,0-.32,1.62-.76,2.8-.76s2.38.6,4.43,2.11a11.47,11.47,0,0,0,1,.76c.65.43.86.64.86.91s0,.17-.32.71a9.61,9.61,0,0,0-1.08,4.1c-.43,4.32-.65,7.67-.65,10.1,0,3.72.16,4.26,1.24,4.26,2.27,0,7.35-2.59,12.64-6.48,6-4.42,12.53-10.69,15.66-15.06.48-.7.65-.81.81-.81s.48.38.48.65a18.34,18.34,0,0,1-2.1,3.78,61.5,61.5,0,0,1-12,13,61.2,61.2,0,0,1-12.21,7.94,12,12,0,0,0-3.62,2.48c-.48.54-.81.76-1,.76A9.16,9.16,0,0,1,98,99.05a4.22,4.22,0,0,1-1.62-2.11,1.7,1.7,0,0,1,.22-.81,7.08,7.08,0,0,0,.7-3Z"/><path class="cls-1" d="M152.28,88.79a11,11,0,0,1-2.48.37c-1.57,0-4.32-1.67-4.76-2.91a15.67,15.67,0,0,1-.37-3c0-.37.16-.64.43-.64s.27.1.43.37c.7,1.57,2,2.11,5.13,2.11a253,253,0,0,0,31.21-2.21,12.91,12.91,0,0,1,1.46-.11,3.61,3.61,0,0,1,2.86,1.19c1,1,1.41,1.51,1.41,2,0,.81-1.08,1.3-2.81,1.3-.43,0-1,0-2,0-1.19-.11-5.56-.17-7.83-.17C167.51,87,156.49,87.87,152.28,88.79Z"/><path class="cls-1" d="M209.09,96.51a12.19,12.19,0,0,1-3.19.65c-1.78,0-3.78-2-4.7-4.65a1.53,1.53,0,0,0-.1-.38,1.43,1.43,0,0,1-.11-.43.34.34,0,0,1,.27-.27c.11,0,.21.06.43.22,1.62,1.19,2.65,1.46,5.29,1.46,4.16,0,11.29-.6,20.63-1.62,1.57-.22,2.81-.33,3.78-.44a23.13,23.13,0,0,0,6.21-1.4,3.06,3.06,0,0,1,1-.27A11.88,11.88,0,0,1,242.35,91c1.73,1,2.43,1.78,2.43,2.65a1.23,1.23,0,0,1-1.29,1.24,18.68,18.68,0,0,1-3-.38,47.91,47.91,0,0,0-8.86-.65C224.59,93.86,214.33,95.05,209.09,96.51ZM231.55,74c1.19.54,1.68,1.08,1.68,1.78,0,.54-.44.81-1.52.92-7.07,1.08-7.66,1.19-12.31,2a18.45,18.45,0,0,1-3.62.43c-1.78,0-2.8-.65-4.1-2.7a9.8,9.8,0,0,1-1.08-1.94.29.29,0,0,1,.32-.27c.17,0,.22.05.49.32.65.81,1.89,1.13,4.48,1.13,3.73,0,8.64-1,11.07-2.21,1.14-.59,1.3-.65,1.78-.65s.54.06,1.46.54Z"/><path class="cls-1" d="M276.64,77.18a2.26,2.26,0,0,1-2.48,2.32c-.7,0-1.08-.27-1.62-1.24a11.9,11.9,0,0,0-8.32-6.65c-.32-.1-.48-.21-.48-.37,0-.38,1-.65,2.53-.65C271.46,70.59,276.64,73.88,276.64,77.18Zm-7,24c-.81,0-2.59-1.29-3.89-2.81a4,4,0,0,1-1.35-3.4c0-1,.27-1.83.65-1.83.22,0,.33.1.43.37a3.83,3.83,0,0,0,3.24,2.76c2.22,0,8.75-4,16.58-10.26a106.7,106.7,0,0,0,10.1-9c1.08-1.08,4-4.43,4.54-5.08s.64-.86.91-.86a.45.45,0,0,1,.44.49c0,.86-2.38,4.53-5.08,7.83A83.5,83.5,0,0,1,284.63,91a81.92,81.92,0,0,1-12.85,8.86C270.76,100.77,270.16,101.15,269.62,101.15Z"/><path class="cls-1" d="M350.78,78a1.09,1.09,0,0,0-.43.16c-4.59,8.21-4.59,8.21-7.07,11.39a48.12,48.12,0,0,1-14.64,12.64c-3.51,1.94-9.66,4.59-10.8,4.59a.58.58,0,0,1-.54-.65c0-.32.11-.38,1.14-.86,5.24-2.16,11.34-6.38,16.63-11.51a51,51,0,0,0,9.4-12.52c1.18-2.16,1.67-3.3,1.67-4A1.21,1.21,0,0,0,344.9,76a7.41,7.41,0,0,0-1,.11c-.27.05-1.35.27-2.48.43-.92.16-1.73.27-2.05.32a5.52,5.52,0,0,1-1.14.16,4,4,0,0,1-2.1-.75l-.17-.11a45,45,0,0,1-8.47,9.61c-2.49,2.27-6.38,4.81-7.29,4.81-.33,0-.6-.16-.6-.38s.11-.38,1.46-1.35c3.24-2.27,5.51-4.7,8.59-8.91,2.64-3.73,3.88-6.37,3.88-8.32a3.39,3.39,0,0,0-1.94-3.4c-.22,0-.38-.21-.38-.32,0-.27.6-.49,1.41-.49a6.23,6.23,0,0,1,3.78,1.41c1.94,1.24,2.37,1.67,2.37,2.43,0,.37,0,.37-.75,1.24-.54,1.08-.76,1.51-1.3,2.48a1.88,1.88,0,0,0,1.35.38,32.94,32.94,0,0,0,6.48-1.24,16,16,0,0,0,2.05-1c.92-.6,1.24-.71,1.57-.71.59,0,1.19.38,3.13,2,1.62,1.35,1.84,1.57,1.84,2s0,.49-1.52,1.19Zm3.84-9.4a1.93,1.93,0,0,1-1.73,1.84c-.76,0-1-.22-1.62-1.25a10.21,10.21,0,0,0-5-4.21c-.38-.11-.49-.16-.49-.27s.87-.43,1.62-.43C351,64.27,354.62,66.43,354.62,68.59ZM360.77,66A1.91,1.91,0,0,1,359,67.83c-.81,0-1.08-.21-1.67-1.35a10.39,10.39,0,0,0-5.13-4.21c-.33-.11-.43-.16-.43-.27,0-.27.7-.43,1.67-.43C357.1,61.57,360.77,63.78,360.77,66Z"/><path class="cls-1" d="M399.71,78.15a12.37,12.37,0,0,1,8-3.46c3.84,0,6.81,2.27,6.81,5.19a3.19,3.19,0,0,1-1.41,2.86c-1.13.86-1.45,1-6.48,3A92,92,0,0,0,395.12,91c.16,2.37.27,4.1.27,5,0,2.69-.54,3.4-2.7,3.4-.65,0-1-.22-1-.54a1.51,1.51,0,0,1,0-.44,41.27,41.27,0,0,0,.27-5.83c-4.64,2.76-6.53,4.92-6.53,7.35,0,2.7,2.53,3.78,8.85,3.78a31.41,31.41,0,0,0,7.94-1,4.36,4.36,0,0,1,1.4-.28c1.14,0,2.6,1.25,2.6,2.22,0,1.78-3.57,2.7-10.91,2.7-4.11,0-6.54-.43-8.8-1.62a6.41,6.41,0,0,1-3.73-5.51,6.88,6.88,0,0,1,2.75-5.08A38.48,38.48,0,0,1,392,91c-.06-3.84-.22-5.62-.71-6.81a2.81,2.81,0,0,0-2.53-1.89,6.34,6.34,0,0,0-3.84,2A32.32,32.32,0,0,0,380.27,90c-.6,1-1.19,1.51-1.78,1.51-.81,0-1.89-1.78-1.89-3.19,0-.7.21-1.08,1.29-1.89,5.83-5.07,9.4-10.31,10.42-15.33a16.63,16.63,0,0,1-4.69.92,3.37,3.37,0,0,1-2.81-2,6.76,6.76,0,0,1-.81-2,.24.24,0,0,1,.21-.22c.06,0,.17.06.27.22a3.43,3.43,0,0,0,3.19,1.4,14.57,14.57,0,0,0,4.91-.86,9,9,0,0,0,.17-1.51c0-1.78-.87-2.81-2.54-2.92-.22,0-.27,0-.27-.21,0-.49,1.83-1.35,2.86-1.35,1.73,0,3.56,1.62,3.56,3.18a8.1,8.1,0,0,1-.43,2A7.84,7.84,0,0,0,395.39,66c1.83.92,2.37,1.29,2.37,1.73,0,.64-1.18,1.13-6.31,2.64a61.89,61.89,0,0,1-6.16,11.5,8.64,8.64,0,0,1,3.56-1,5.55,5.55,0,0,1,3.46,1.24c.86.81,1.35,1.73,2,3.84C396.25,82,397.55,80,399.71,78.15Zm2.32,7c5.18-2.86,6.26-3.51,6.91-4A3,3,0,0,0,410,79.23c0-1.35-1.62-2.7-3.29-2.7-2.81,0-6.48,2.54-8.59,6A27.19,27.19,0,0,0,395,89.16C397.12,87.87,397.49,87.65,402,85.17Z"/><path class="cls-1" d="M49.09,149H45.52v2.21c0,.59-1,1.08-2.16,1.08-.59,0-1-.32-1-.81V129.4l3.78,2.11H48.6a47.64,47.64,0,0,0,1-7.51l4.26.71c.65.1,1,.48,1,.91a1.5,1.5,0,0,1-.76,1.14l-1.13.81-2.32,3.94h5.18l1.3-2,3.07,2.91a1.29,1.29,0,0,1,.38.87,1,1,0,0,1-.59.81l-.87.48v15.72c0,1-1,1.67-2.43,1.67-.48,0-.7-.27-.7-.81V149H52.43v6.21H67.5l2.81-3.51,4.32,3.56c.38.27.54.54.54.76a.55.55,0,0,1-.6.48H53.84c5.29,5.35,13.28,9.07,22.46,10.37a14.88,14.88,0,0,0-4.16,4.21A43.85,43.85,0,0,1,61,165.42c-3.29-2.32-4.81-3.72-8.59-8.21v14.26a.79.79,0,0,1-.16.54,4.22,4.22,0,0,1-2.37.87.78.78,0,0,1-.81-.71V158.4c-6.05,5.13-9,7.13-14.8,9.94-3.29,1.62-6.8,3-7.67,3a.43.43,0,0,1-.48-.43c0-.27,0-.27,3.18-1.89a61.51,61.51,0,0,0,16.53-12.48H37.64c-3.73.11-5.4.11-9.94.27l-.7-1.89c2.59.11,4.86.16,5.78.22,2.37,0,4,.11,4.86.11H49.09Zm-7.94-6-8.75,7.18-.22,1c-.16.7-.59,1.13-1.08,1.13a1.12,1.12,0,0,1-.59-.22l-3.46-3.4c4.7-2.05,6.32-2.86,13.67-6.75ZM28.84,129.62c5.45,1.3,9.12,4.37,9.12,7.51A2.12,2.12,0,0,1,36,139.5a1.82,1.82,0,0,1-1.35-.59c-.38-.38-.38-.38-1.46-3.35a16,16,0,0,0-4.59-5.29Zm27.21,10v-6.8H45.52v6.8Zm0,8.1v-6.8H45.52v6.8Zm16-15.88a.66.66,0,0,1,.27.49c0,.27-.32.54-1,.7l-1.83.49-7.83,6.59c-.54.43-.81.59-1.08.59s-.43-.16-.43-.49.21-.59,2.37-3.34c1.46-2,2.86-4,5.73-8.21ZM60.8,141.66c4.38.7,6.32,1.3,8.43,2.54,2.27,1.3,3.45,2.81,3.45,4.32a2,2,0,0,1-1.89,2c-.7,0-.86-.16-3.67-3.4a21.91,21.91,0,0,0-6.42-4.54Z"/><path class="cls-1" d="M127.87,158.67c0,.92-1.24,2.92-3.08,5-4.26,4.76-9.12,7.13-14.79,7.13-3.84,0-6.86-1.13-9-3.4-2.27-2.43-3.24-5.62-3.24-10.53,0-3.24.05-3.94,1.08-18,.32-4.53.32-4.53.32-5.18,0-3.46-.81-4.91-2.64-4.91-.33,0-.49-.11-.49-.27,0-.6,1.14-1.08,2.38-1.08,2.75,0,5.4,3.13,5.4,6.48,0,.81,0,.86-.81,4.1a115.89,115.89,0,0,0-2.27,18.52c0,7.56,3,11,9.72,11a19.94,19.94,0,0,0,11.83-4.37,21.39,21.39,0,0,0,4.59-4.37c.21-.38.43-.54.64-.54S127.87,158.4,127.87,158.67Z"/><path class="cls-1" d="M155.79,133.29c0-3.56-.54-4.43-2.75-4.53-.44-.06-.49-.06-.49-.22,0-.43,2.11-1.4,3-1.4a8.54,8.54,0,0,1,3.41,1.13,2.23,2.23,0,0,1,1.13,1.62,5.49,5.49,0,0,1-.38,1.51,28.9,28.9,0,0,0-.92,4.48c2.43-.91,3.24-1.45,3.84-2.48,1.67.11,3.24,1.13,3.24,2,0,.48-.27.7-1.3,1.19a38.21,38.21,0,0,1-6.32,2.32c-.37,2.81-.43,3.18-.81,5.88a2.46,2.46,0,0,1,1.89,2.33c0,.75-.43,2.48-1.72,6.8-1.52,5.18-2.06,7.67-2.06,9.67,0,2.48,1.89,3.62,6.11,3.62a31.7,31.7,0,0,0,10.36-1.9c1.84-.86,2.54-2.16,2.54-4.75,0-1.62-.05-2.27-.81-10.2-.38-3.57-.54-6.16-.54-7.78,0-3.46,1.41-5.24,4.11-5.24,4.91,0,11.17,5.13,11.17,9.18,0,1.78-1.45,3.78-2.7,3.78-.21,0-.37-.11-.54-.38-1.29-1.45-2.53-1.89-5.67-1.83-.43,0-.64-.11-.64-.38s0-.27.48-.32a2.65,2.65,0,0,0,.65-.17c.76-.1,1.35-.27,1.94-.37,1.68-.33,2.22-.71,2.22-1.52a8.09,8.09,0,0,0-2.16-3.94c-1.57-1.67-3.57-2.75-5-2.75s-2.38,1.4-2.38,4.26A63.67,63.67,0,0,0,176,155.11c.81,3.67,1.51,5.24,2.86,6.42a2.83,2.83,0,0,1,.27,1.25c0,1.72-1.13,3.24-3.29,4.48-3,1.67-8,2.75-12.75,2.75-6.91,0-10.2-2.1-10.2-6.53a26,26,0,0,1,.65-4.54,2.83,2.83,0,0,1-2.11.81c-2.11,0-3.46-2.48-3.46-6.26,0-5.13,2.92-9.24,6.54-9.24a4.54,4.54,0,0,1,.81.06c.11-2.43.16-2.81.27-4.81a27,27,0,0,1-7,1.35c-1.73,0-2.49-.43-3.08-1.73a9.63,9.63,0,0,1-.81-3.83c0-.27.11-.43.32-.43s.17,0,.27.27A3.72,3.72,0,0,0,149.2,138a26.1,26.1,0,0,0,6.54-1.24,17.65,17.65,0,0,1,0-1.94Zm-4,14.69a12.77,12.77,0,0,0-1.24,5.62c0,2.1.81,3.56,1.95,3.56s1.56-.76,1.89-2.59c.43-2.32,1-6.27,1-6.75,0-1.08-.38-1.73-1.08-1.84S152.39,146.85,151.79,148Z"/><path class="cls-1" d="M213.3,150.46a17.18,17.18,0,0,1-1.19,6.54c-1.29,3.13-4.32,5.67-6.75,5.67a2.81,2.81,0,0,1-2.32-2.38c0-.81.27-1,2.05-1.83,3.62-1.73,6.43-4.81,7.29-8.16.06-.27.16-.32.38-.32C213.14,150,213.3,150.14,213.3,150.46Zm11.07-6.85c0,1.08,0,3.56,0,7.45l.11,6.05c.06,1.89.06,3.78.11,4,.05,1,.05,1.94.05,2.48a5.2,5.2,0,0,1-1.89,4.27,5,5,0,0,1-3.07,1.45c-.54,0-.76-.32-.81-1.18-.17-2.43-1-3.78-3.62-6-.22-.21-.33-.32-.33-.48a.64.64,0,0,1,.54-.49c.22,0,.54.16,1.3.65,2,1.29,2.48,1.56,3.08,1.56,1.29,0,1.29,0,1.35-11,0-4.86.11-7.29.11-7.29v-1.51A48.13,48.13,0,0,0,210,146a4.38,4.38,0,0,1-1.52.37,6.11,6.11,0,0,1-2.43-1,4.24,4.24,0,0,1-2.21-3.67c0-.32.11-.49.32-.49s.27.11.44.33c.75,1,2,1.29,4.64,1.29a115.06,115.06,0,0,0,12-1c0-8.21-.32-8.8-3.4-9.18-.32,0-.49-.11-.49-.22,0-.54,2-1.62,3-1.62a6.81,6.81,0,0,1,4,1.62c.87.7,1.35,1.24,1.35,1.57a1.2,1.2,0,0,1-.16.54c-.7,1.13-.86,2-1.13,6.86,6.1-.49,9.39-1.08,11.18-1.95,1.08-.59,1.08-.59,1.45-.59.76,0,1.52.38,3.3,1.56,1.24.81,1.62,1.25,1.62,1.84a1.4,1.4,0,0,1-1.3,1.3c-.21,0-.59-.06-1-.11a53,53,0,0,0-7.94-.6c-2.27,0-5.4.22-7.45.44Zm10,7.29c4.54,2.7,7.19,5.88,7.19,8.64a2.72,2.72,0,0,1-2.54,3c-1,0-1.35-.38-1.95-2.65-1-4.1-4.86-8.8-8.26-10-.27-.11-.38-.22-.38-.38s.27-.43.6-.43A12.76,12.76,0,0,1,234.41,150.9Zm9.29-20.36a5.29,5.29,0,1,1-5.24-5.29A5.3,5.3,0,0,1,243.7,130.54Zm-8.75,0a3.46,3.46,0,1,0,3.41-3.46A3.48,3.48,0,0,0,235,130.54Z"/><path class="cls-1" d="M281.34,144.42c2.75,1.24,2.75,1.24,2.75,1.78a1.78,1.78,0,0,1-.21.75,11.8,11.8,0,0,0-.49,4.32l.11,5.51v6.16l.05,3.73c.06.7.06,1.34.06,1.78,0,1.4-.49,2.21-1.3,2.21-1.62,0-3.51-1.4-3.51-2.65a4.83,4.83,0,0,1,.16-1,171,171,0,0,0,1.3-18.69,5.45,5.45,0,0,0-.65-3.18,68.82,68.82,0,0,1-14,11.12,24,24,0,0,1-6,2.54c-.22,0-.54-.22-.54-.43s.11-.27.54-.43c8.53-3.89,25.22-21,25.22-25.71,0-.54-1-1.51-1.79-1.67-.48-.11-.59-.22-.59-.43,0-.38,1.13-.76,2.21-.76,2,0,6.11,2.92,6.11,4.37,0,.38-.17.54-.65.81a4,4,0,0,0-1.95,1.62,89.08,89.08,0,0,1-7.5,7.94Z"/><path class="cls-1" d="M333.88,141.18a2.26,2.26,0,0,1-2.48,2.32c-.7,0-1.08-.27-1.62-1.24a11.9,11.9,0,0,0-8.32-6.65c-.32-.1-.48-.21-.48-.37,0-.38,1-.65,2.53-.65C328.7,134.59,333.88,137.88,333.88,141.18Zm-7,24c-.81,0-2.59-1.29-3.89-2.81a4,4,0,0,1-1.35-3.4c0-1,.27-1.83.65-1.83.22,0,.33.1.43.37a3.83,3.83,0,0,0,3.24,2.76c2.22,0,8.75-4.05,16.58-10.26a106.7,106.7,0,0,0,10.1-9c1.08-1.08,4-4.43,4.54-5.08s.64-.86.91-.86a.45.45,0,0,1,.44.49c0,.86-2.38,4.53-5.08,7.83A83.5,83.5,0,0,1,341.87,155,81.92,81.92,0,0,1,329,163.86C328,164.77,327.4,165.15,326.86,165.15Z"/><path class="cls-1" d="M392,145.66c.05,9.66.16,14.79.43,18.41.11,1.14.16,2,.16,2.43,0,2.27-.81,3.94-1.94,3.94s-2.87-2.43-2.87-3.77a7.42,7.42,0,0,1,.17-1.41c.43-3,.86-15,.86-25.76,0-5.07-.22-6.91-.86-8a2.71,2.71,0,0,0-2.6-1.35c-.37,0-.54-.16-.54-.49s.17-.37.49-.54a15.14,15.14,0,0,1,3.29-.86c.81,0,1.57.38,3.95,1.89.7.49,1,.86,1,1.24a3,3,0,0,1-.27,1c-.86,1.46-1.19,4-1.29,10A23.07,23.07,0,0,1,403.33,146c2.91,2,4.26,3.73,4.26,5.46a2.21,2.21,0,0,1-2.27,2.37c-1.18,0-1.78-.48-3.13-2.54a19.35,19.35,0,0,0-10.2-7.93Z"/></g></g></svg>