<svg xmlns="http://www.w3.org/2000/svg" viewBox="0 0 732.74 32.58"><defs><style>.cls-1{isolation:isolate;}.cls-2{fill:#333;}</style></defs><title>Asset 5</title><g id="Layer_2" data-name="Layer 2"><g id="Layer_1-2" data-name="Layer 1"><g class="cls-1"><path class="cls-2" d="M14.25,10.44c.36.18.54.32.54.57a1.33,1.33,0,0,1-.11.44c-.25.43-.36,1.29-.61,3.85,6.55-.79,8.63-1.19,10-2a1.82,1.82,0,0,1,.62-.18A8,8,0,0,1,27,14.36c.76.51,1.08.83,1.08,1.12a.83.83,0,0,1-.86.75c-.18,0-.58,0-.94-.07-.72-.11-3.13-.21-4.17-.21a78.67,78.67,0,0,0-8.13.57c0,2.45,0,2.52-.08,3.06,0,.87,0,1.41,0,1.62,0,1.73.21,2.81.65,3.35.64.72,1.47,1,3,1a18.06,18.06,0,0,0,5.11-.65,2.68,2.68,0,0,1,1.15-.25A1.31,1.31,0,0,1,25,25.3a2.6,2.6,0,0,1,.47,1.16c0,.86-2.34,1.51-5.29,1.51a14.34,14.34,0,0,1-6.08-1.12c-1.44-.82-2-2-2.12-4.1,0-.4,0-.68,0-2.92,0-2,0-2,0-3A36.24,36.24,0,0,0,5,18.68a5.49,5.49,0,0,1-2.16.58C1.58,19.26,0,17.53,0,16.16,0,16,.07,16,.25,16s.15,0,.33.21a3.22,3.22,0,0,0,2.26.65c1.05,0,5.47-.61,9.11-1.26,0-1.58,0-1.69,0-2.09,0-2.23-.07-2.59-.47-3.09A21.88,21.88,0,0,1,7.59,11a2.61,2.61,0,0,1-2.34-1.4,4.44,4.44,0,0,1-.5-1.16.15.15,0,0,1,.14-.14c.08,0,.11,0,.18.14.29.47.94.69,2,.69a26.43,26.43,0,0,0,5-.79c3.6-.83,3.85-.9,5.26-1.59a2.6,2.6,0,0,1,1-.36,5.9,5.9,0,0,1,1.77.69c.39.21.57.43.57.68,0,.61-.36.76-4,1.51l-2.44.5a7.39,7.39,0,0,1-.94.22Z"/><path class="cls-2" d="M42.18,19a6.71,6.71,0,0,1-1.59.25,4.14,4.14,0,0,1-3-1.87,9,9,0,0,1-.25-1.94c0-.25.11-.4.25-.4s.18.07.29.25c.5,1,1.29,1.37,3.31,1.37A161.91,161.91,0,0,0,61.1,15.26c.36,0,.69-.07,1-.07a2.35,2.35,0,0,1,1.8.76c.65.64.9,1,.9,1.29,0,.51-.68.83-1.8.83-.21,0-.64,0-1.26,0s-4-.1-5.11-.1A95.52,95.52,0,0,0,42.18,19Z"/><path class="cls-2" d="M86.19,7.67c-.15.36-.33.65-.47,1a2.5,2.5,0,0,0,1.55.47c.18,0,1.51-.18,4-.54a3.39,3.39,0,0,0,.93-.47c.72-.47.9-.54,1.15-.54s.58.18,1.77,1.19C96.59,10,96.62,10,96.62,10.33s-.14.29-.47.4a10.81,10.81,0,0,0-1,.46,45.33,45.33,0,0,1-4.21,6.63c2.48,1.83,3.6,3.24,3.6,4.46a1.36,1.36,0,0,1-1.33,1.44c-.69,0-.9-.18-1.87-1.76a12.86,12.86,0,0,0-1.84-2.45,33.35,33.35,0,0,1-12,8.71,26.29,26.29,0,0,1-4.71,1.58.51.51,0,0,1-.54-.46c0-.11.07-.18.25-.22a37.77,37.77,0,0,0,15.4-10.94,16.46,16.46,0,0,0-6.44-3.46,21.71,21.71,0,0,1-4.36,3.71c-1.22.72-1.43.86-1.65.86S75,19.15,75,19s.08-.33.76-.8C79.53,15.69,83.85,9,83.85,5.69a2.18,2.18,0,0,0-1.15-2c-.18-.07-.25-.11-.25-.18s.1-.22.86-.29l.29,0a3.59,3.59,0,0,1,2.3,1c1.22,1,1.4,1.19,1.4,1.59,0,.21-.07.32-.36.65-.1.1-.14.18-.5.61Zm6,2.84a.83.83,0,0,0-.83-.76,3.67,3.67,0,0,0-.57.08c-.29,0-.83.1-1.44.14a14.69,14.69,0,0,0-1.55.18c-.36,0-.61.07-.75.07a2.63,2.63,0,0,1-1.77-.83,36.54,36.54,0,0,1-3.41,4.83,20.49,20.49,0,0,1,7,2.45C90.47,14.58,92.23,11.23,92.23,10.51Z"/><path class="cls-2" d="M110.55,19a6.59,6.59,0,0,1-1.58.25,4.12,4.12,0,0,1-3-1.87,9,9,0,0,1-.25-1.94c0-.25.1-.4.25-.4s.18.07.29.25c.5,1,1.29,1.37,3.31,1.37a162,162,0,0,0,19.93-1.44c.36,0,.68-.07,1-.07a2.35,2.35,0,0,1,1.8.76c.65.64.9,1,.9,1.29,0,.51-.69.83-1.8.83-.22,0-.65,0-1.26,0s-4-.1-5.11-.1A95.78,95.78,0,0,0,110.55,19Z"/><path class="cls-2" d="M159.6,11.63c2.88-.33,2.92-.33,4.18-.87A2.86,2.86,0,0,1,165,10.4a9.6,9.6,0,0,1,2.78,1c.53.28.86.64.86.93a1,1,0,0,1-.94,1,4.88,4.88,0,0,1-.82-.11,45.67,45.67,0,0,0-4.93-.39,23.14,23.14,0,0,0-2.45.14c-.47,6.3-1.08,8.71-3,11.59a14.23,14.23,0,0,1-7.77,5.58c-.18.07-.36.11-.44.14a.93.93,0,0,1-.28.08c-.15,0-.4-.22-.4-.36s.11-.26.32-.33a15.28,15.28,0,0,0,6.34-5.15,18.56,18.56,0,0,0,2.7-7,22.07,22.07,0,0,0,.35-4.35.69.69,0,0,0,0-.18c-2.52.14-3.78.25-5.76.46l0,1.05,0,1.83V18a9.42,9.42,0,0,0,.08,1.19l0,.76a.81.81,0,0,1-.83.82c-.68,0-1.61-1.22-1.61-2.05a6.06,6.06,0,0,1,0-.68,40.28,40.28,0,0,0,.18-4.07v-.11a31.57,31.57,0,0,0-4.24.94,5.24,5.24,0,0,1-1.66.32,3,3,0,0,1-2.41-1.33,1.9,1.9,0,0,1-.65-1.58v-.08c0-.1.07-.17.22-.17s.11,0,.21.14c.69.65,1.48.9,3.1.9.65,0,3.31-.18,5.43-.36-.14-4.18-.18-4.64-.29-5-.18-.54-.9-.86-1.8-.86a1.71,1.71,0,0,0-.39,0,.26.26,0,0,1-.15,0,.15.15,0,0,1-.14-.11c0-.14.07-.21.32-.36,0,0,.26-.18.58-.39.61-.47.94-.62,1.15-.62a9.37,9.37,0,0,1,2.12.76c.51.29.76.58.76.86l-.11.69v.75c0,.44,0,1.8,0,2.2,0,.21,0,.21,0,1.84,2.41-.26,2.77-.29,5.79-.58v-.83c0-5.65-.17-6.3-2.37-6.8-.14,0-.22-.11-.22-.18,0-.29,1.16-.65,2.13-.65,1.26,0,3.63,1.48,3.63,2.23,0,.15,0,.15-.39,1a2.65,2.65,0,0,0-.4,1.51l0,.76-.07,1.87Z"/><path class="cls-2" d="M190.41,13.71c1.76.83,1.76.83,1.76,1.12a2.15,2.15,0,0,1-.14.54,7,7,0,0,0-.29,2.74l0,3.52,0,4,0,2.38c0,.47,0,.9,0,1.11,0,.9-.32,1.44-.82,1.44-1.05,0-2.27-.9-2.27-1.69a2.8,2.8,0,0,1,.11-.68,107.56,107.56,0,0,0,.82-11.95,3.79,3.79,0,0,0-.39-2,43.39,43.39,0,0,1-9,7.12,15.84,15.84,0,0,1-3.81,1.62c-.18,0-.36-.14-.36-.28s.07-.15.36-.29C182,19.83,192.64,9,192.64,5.9c0-.36-.65-1-1.15-1.08-.29-.07-.36-.14-.36-.28s.72-.47,1.4-.47c1.3,0,3.89,1.87,3.89,2.81,0,.25-.11.36-.44.5a2.59,2.59,0,0,0-1.22,1A53.16,53.16,0,0,1,190,13.5Z"/><path class="cls-2" d="M207.94,29.84c-.22.07-.33.14-.47.18a1.57,1.57,0,0,1-.32.07c-.26,0-.62-.29-.62-.5s.08-.18.47-.29c0,0,.11-.07.25-.11l.43-.18c3.46-1.44,8.53-5.25,11.95-9a33.32,33.32,0,0,0,4.57-7,9.76,9.76,0,0,0,1-2.48.82.82,0,0,0-.83-.76c-.14,0-.39,0-.64.07-.08,0-.87.18-1.59.29s-1,.18-1.33.22a3.23,3.23,0,0,1-.68.1,2.59,2.59,0,0,1-1.37-.5A34.54,34.54,0,0,1,213,17c-1.66,1.52-3.92,3.06-4.5,3.06-.18,0-.36-.1-.36-.25s.07-.29.94-.9a29.27,29.27,0,0,0,5.65-6.48c1.44-2.16,2.34-4.17,2.34-5.29a2.24,2.24,0,0,0-1.26-2.16c-.11,0-.22-.11-.22-.18s.4-.32.9-.32a4.07,4.07,0,0,1,2.41.86c1.22.79,1.51,1.12,1.51,1.59,0,.18,0,.25-.21.5a4.5,4.5,0,0,0-.62.86c-.21.47-.28.62-.43,1a1.6,1.6,0,0,0,.83.18,18.91,18.91,0,0,0,4.14-.79A7.38,7.38,0,0,0,225.42,8c.58-.33.79-.44,1-.44s.83.29,2,1.26,1.19,1.05,1.19,1.34-.15.43-.51.57a5.41,5.41,0,0,0-1.11.47C223.08,21,217.22,26.42,207.94,29.84Z"/><path class="cls-2" d="M248.28,9.68c1,.54,1.76,1.23,1.76,1.55,0,.11,0,.15-.32.4a2.85,2.85,0,0,0-.44,1.26A31.32,31.32,0,0,1,246,21.31c-1.87,3.1-6,7.09-7.3,7.09a.37.37,0,0,1-.4-.36c0-.14.11-.29.36-.43a18.8,18.8,0,0,0,4.83-5.72c1.79-3.14,3.27-7.78,3.27-10.44a1.91,1.91,0,0,0-1.15-1.87c-.14-.08-.22-.15-.22-.26s.18-.28.51-.28A5.46,5.46,0,0,1,248.28,9.68Zm4.82,1.15c0-1.22-.07-1.69-.29-2a1.31,1.31,0,0,0-.72-.5c-.21,0-.25-.08-.25-.19s.68-.5,1.12-.5a3.72,3.72,0,0,1,2.19,1c.93.65,1,.72,1,.94s0,.11-.29.47a6.92,6.92,0,0,0-.61,2.77c-.11,1.26-.36,6.66-.36,7.77,0,.47.18.69.54.69,1.29,0,4-1.55,6.47-3.75a37.82,37.82,0,0,0,6.84-7.95c.22-.4.32-.5.43-.5a.5.5,0,0,1,.4.43A21.33,21.33,0,0,1,267,14.11a30.41,30.41,0,0,1-5.36,6,26.4,26.4,0,0,1-4.75,3.31,4.48,4.48,0,0,0-2.09,1.51.27.27,0,0,1-.22.11c-.54,0-2.15-1.87-2.15-2.52a.82.82,0,0,1,.14-.43,3.85,3.85,0,0,0,.43-2.34l0-4.22,0-3Z"/><path class="cls-2" d="M283,14.51c0,6.08.07,9.32.25,11.8.07.69.1,1.23.1,1.51,0,1.48-.53,2.56-1.22,2.56s-1.83-1.58-1.83-2.45c0-.21,0-.5.07-.86.32-1.91.57-9.68.57-16.49,0-3.2-.14-4.46-.54-5.11a1.78,1.78,0,0,0-1.69-.9c-.21,0-.32-.11-.32-.29s.11-.25.29-.32a8.32,8.32,0,0,1,2.12-.58c.5,0,1,.26,2.48,1.23.51.32.69.54.69.79a2,2,0,0,1-.18.65c-.54.93-.76,2.52-.83,6.41a14.5,14.5,0,0,1,7.27,2.26C292.11,16,293,17.1,293,18.21a1.42,1.42,0,0,1-1.44,1.52c-.75,0-1.18-.33-2-1.66A12.28,12.28,0,0,0,283,13Z"/><path class="cls-2" d="M307.08,13.82V12.71c0-.69,0-1.16,0-1.3a2.84,2.84,0,0,0-2.2-2.81c-.18-.07-.29-.14-.29-.21s1.05-.47,1.8-.47a5.38,5.38,0,0,1,2.85,1.33,3.86,3.86,0,0,0,.64.5c.4.29.54.44.54.58s0,.07-.21.47a7.15,7.15,0,0,0-.69,2.63c-.25,2.8-.39,4.89-.39,6.58,0,2.2.11,2.6.79,2.6,3.52,0,13.71-7.78,18.13-13.83.33-.46.36-.5.51-.5s.28.22.28.39a12.13,12.13,0,0,1-1.33,2.45,40.26,40.26,0,0,1-7.73,8.32,35.74,35.74,0,0,1-7.81,5.07,7.8,7.8,0,0,0-2.3,1.62c-.33.36-.51.47-.65.47a6.42,6.42,0,0,1-1.48-1c-.61-.54-1-1.05-1-1.33a1.14,1.14,0,0,1,.14-.54,4.08,4.08,0,0,0,.43-1.87Z"/><path class="cls-2" d="M342,19a6.59,6.59,0,0,1-1.58.25,4.12,4.12,0,0,1-3-1.87,9,9,0,0,1-.25-1.94c0-.25.1-.4.25-.4s.18.07.29.25c.5,1,1.29,1.37,3.31,1.37a161.91,161.91,0,0,0,19.93-1.44c.36,0,.68-.07,1-.07a2.35,2.35,0,0,1,1.8.76c.65.64.9,1,.9,1.29,0,.51-.68.83-1.8.83-.22,0-.65,0-1.26,0s-4-.1-5.11-.1A95.78,95.78,0,0,0,342,19Z"/><path class="cls-2" d="M392.3,20.52a13.83,13.83,0,0,0,4-.9,1.91,1.91,0,0,1,.64-.18,7.17,7.17,0,0,1,2.41,1c1.12.65,1.55,1.12,1.55,1.69A.78.78,0,0,1,400,23a10.12,10.12,0,0,1-1.87-.25,35.27,35.27,0,0,0-5.75-.39A67.69,67.69,0,0,0,378.05,24a8.61,8.61,0,0,1-2,.4c-1.18,0-2.44-1.23-3-3l-.11-.25,0-.25a.19.19,0,0,1,.18-.18.51.51,0,0,1,.25.11,4.73,4.73,0,0,0,3.38,1,126.22,126.22,0,0,0,13.21-1.08Zm-.72-11.31c.14.08.43.18.83.4.75.32,1.07.68,1.07,1.15s-.28.51-1,.58c-4.42.68-4.64.68-7.84,1.29a14.56,14.56,0,0,1-2.34.26c-1.15,0-1.8-.43-2.59-1.73A5.42,5.42,0,0,1,379,9.93a.21.21,0,0,1,.22-.18c.07,0,.14,0,.28.22.44.54,1.23.72,2.88.72a18.66,18.66,0,0,0,7.09-1.44c.72-.36.83-.39,1.12-.39S391,8.89,391.58,9.21Z"/><path class="cls-2" d="M418.64,11.63a1.44,1.44,0,0,1-1.58,1.47c-.47,0-.68-.18-1-.79a7.49,7.49,0,0,0-5.29-4.25c-.22-.07-.33-.14-.33-.25s.62-.39,1.62-.39C415.33,7.42,418.64,9.54,418.64,11.63ZM414.18,27a5.19,5.19,0,0,1-2.48-1.8,2.56,2.56,0,0,1-.86-2.16c0-.69.18-1.19.43-1.19s.18.07.25.25a2.43,2.43,0,0,0,2.05,1.73c1.44,0,5.58-2.56,10.61-6.59a67.33,67.33,0,0,0,6.48-5.72c.61-.65,2.56-2.85,2.88-3.28s.43-.54.61-.54.25.15.25.33c0,.54-1.55,2.91-3.24,5a53.1,53.1,0,0,1-7.41,7.45,49.17,49.17,0,0,1-8.2,5.65C414.86,26.75,414.51,27,414.18,27Z"/><path class="cls-2" d="M462.69,13.5a35.43,35.43,0,0,1-6.33,8.89,31.93,31.93,0,0,1-11.66,7.49c-1.8.68-1.8.68-2.12.68a.37.37,0,0,1-.33-.4c0-.25,0-.25,1.15-.72a36.6,36.6,0,0,0,8.89-6,31.41,31.41,0,0,0,7.45-9.5c.75-1.34.94-1.8.94-2.31a.76.76,0,0,0-.8-.79,6.18,6.18,0,0,0-.64.07c-.08,0-.87.18-1.59.29-.57.11-1.08.18-1.33.22a3.23,3.23,0,0,1-.68.1,2.85,2.85,0,0,1-1.48-.57,29.76,29.76,0,0,1-5.43,6.19c-1.58,1.44-4.07,3.06-4.68,3.06-.18,0-.36-.11-.36-.25s.07-.25.94-.87c3.78-2.62,8-8.42,8-11a2.18,2.18,0,0,0-1.26-2.2c-.15,0-.22-.1-.22-.18s.4-.32.9-.32a4.23,4.23,0,0,1,2.41.86c1.22.8,1.51,1.12,1.51,1.62,0,.18,0,.18-.5.76a13.19,13.19,0,0,1-.83,1.58,1.16,1.16,0,0,0,.86.25,18.67,18.67,0,0,0,4.18-.79A7.75,7.75,0,0,0,461,9c.58-.33.79-.44,1-.44.4,0,.79.26,2,1.26s1.19,1.05,1.19,1.33,0,.33-1,.76l-.39.14s-.22.11-.4.18Zm3.42-7.34A1.24,1.24,0,0,1,465,7.31c-.5,0-.64-.15-1-.79a6.56,6.56,0,0,0-3.23-2.67c-.22-.07-.29-.11-.29-.14s.54-.29,1-.29C463.81,3.42,466.11,4.79,466.11,6.16Zm4-1.7a1.24,1.24,0,0,1-1.16,1.19c-.5,0-.68-.14-1-.83a6.61,6.61,0,0,0-3.31-2.7c-.21-.07-.29-.1-.29-.14s.43-.29,1.05-.29C467.69,1.69,470.07,3.06,470.07,4.46Z"/><path class="cls-2" d="M492.52,13.14a8.39,8.39,0,0,1,6-3.1c2.49,0,4.36,1.44,4.36,3.31a2.07,2.07,0,0,1-.9,1.84c-.72.54-1,.65-4.14,1.91a63,63,0,0,0-7.38,3.35c.15,1.87.18,2.73.18,3.2,0,1.69-.36,2.16-1.72,2.16-.4,0-.62-.14-.62-.36a1,1,0,0,1,0-.29,27.5,27.5,0,0,0,.14-3.71c-3,1.84-4.17,3.17-4.17,4.72,0,1.73,1.66,2.41,5.69,2.41a19.51,19.51,0,0,0,5.07-.61,2.74,2.74,0,0,1,.9-.18,1.85,1.85,0,0,1,1.65,1.4c0,1.15-2.26,1.73-7,1.73a11.54,11.54,0,0,1-5.65-1,4.1,4.1,0,0,1-2.37-3.5c0-1.51.94-2.8,3.06-4.24a32.14,32.14,0,0,1,2.77-1.69,12.92,12.92,0,0,0-.43-4.4,1.77,1.77,0,0,0-1.62-1.18c-1.37,0-3.71,2.16-5.43,5-.4.65-.76,1-1.16,1s-1.18-1.15-1.18-2c0-.47.14-.69.82-1.26,3.67-3.14,6.05-6.63,6.66-9.79a12.11,12.11,0,0,1-3,.57,2.08,2.08,0,0,1-1.77-1.22,4.78,4.78,0,0,1-.53-1.33.16.16,0,0,1,.1-.15c.08,0,.11.07.18.15a2.27,2.27,0,0,0,2.05.93,9.08,9.08,0,0,0,3.17-.57,6.43,6.43,0,0,0,.11-1,1.67,1.67,0,0,0-1.66-1.87c-.1,0-.14,0-.14-.14,0-.33,1.15-.87,1.8-.87a2.43,2.43,0,0,1,2.3,2.06,3.94,3.94,0,0,1-.29,1.29,4.63,4.63,0,0,0,2.23-1.15c1.16.58,1.51.83,1.51,1.08,0,.43-.64.72-4,1.69a39.85,39.85,0,0,1-4,7.38,5.64,5.64,0,0,1,2.3-.61A3.18,3.18,0,0,1,489,15.23a5.77,5.77,0,0,1,.94,2.05A15.84,15.84,0,0,1,492.52,13.14Zm2.38,3.63c4-2.23,4-2.23,4.42-2.59A1.82,1.82,0,0,0,500,13a2.08,2.08,0,0,0-2.09-1.73,6.57,6.57,0,0,0-4.39,2.38A18.38,18.38,0,0,0,490.44,19c0,.07,0,.07-.07.29C491.44,18.68,491.44,18.68,494.9,16.77Z"/><path class="cls-2" d="M525.31,16.67h-2.37v1.47c0,.4-.65.72-1.44.72-.4,0-.65-.21-.65-.54V3.6L523.37,5H525a31.69,31.69,0,0,0,.68-5l2.84.47c.43.07.69.32.69.61a1,1,0,0,1-.51.76l-.75.54L526.39,5h3.45l.87-1.36,2,1.94a.88.88,0,0,1,.25.58.65.65,0,0,1-.4.54L532,7V17.49c0,.65-.69,1.12-1.62,1.12-.32,0-.47-.18-.47-.54v-1.4h-2.41v4.14h10l1.87-2.34,2.88,2.37c.25.18.36.36.36.51a.37.37,0,0,1-.4.32H528.48c3.52,3.56,8.85,6,15,6.91a10,10,0,0,0-2.77,2.81,29.51,29.51,0,0,1-7.41-3.78,25.73,25.73,0,0,1-5.72-5.47v9.5a.55.55,0,0,1-.11.36,2.77,2.77,0,0,1-1.58.58.52.52,0,0,1-.54-.47V22.93a39.69,39.69,0,0,1-9.86,6.62,22,22,0,0,1-5.11,2,.29.29,0,0,1-.32-.29c0-.18,0-.18,2.12-1.26a40.81,40.81,0,0,0,11-8.31h-5.47c-2.48.07-3.6.07-6.62.18l-.47-1.26,3.85.14c1.59,0,2.67.08,3.24.08h7.63Zm-5.29-4-5.83,4.79-.14.69c-.11.46-.4.75-.72.75a.8.8,0,0,1-.4-.14l-2.3-2.27c3.13-1.37,4.21-1.91,9.1-4.5Zm-8.2-8.89c3.63.87,6.08,2.92,6.08,5a1.42,1.42,0,0,1-1.3,1.58,1.21,1.21,0,0,1-.9-.4c-.25-.25-.25-.25-1-2.23a10.58,10.58,0,0,0-3.06-3.52ZM530,10.4V5.87h-7V10.4Zm0,5.4V11.27h-7V15.8ZM540.64,5.22a.43.43,0,0,1,.18.32c0,.18-.22.36-.69.47l-1.22.32-5.22,4.4c-.36.28-.54.39-.72.39s-.28-.11-.28-.32.14-.4,1.58-2.23c1-1.33,1.91-2.63,3.81-5.47Zm-7.52,6.55c2.91.47,4.21.86,5.61,1.69s2.3,1.87,2.3,2.88a1.31,1.31,0,0,1-1.26,1.33c-.46,0-.57-.1-2.44-2.26a14.59,14.59,0,0,0-4.28-3Z"/><path class="cls-2" d="M572.24,22.82c0,.61-.83,1.91-2,3.24a12.44,12.44,0,0,1-9.47,4.54A7.6,7.6,0,0,1,555,28.4c-1.48-1.55-2.09-3.56-2.09-6.73,0-2.05,0-2.52.72-11.48.22-2.92.22-2.92.22-3.35,0-2.2-.51-3.13-1.7-3.13-.21,0-.32-.07-.32-.18,0-.36.72-.69,1.51-.69,1.77,0,3.46,2,3.46,4.14a9.66,9.66,0,0,1-.51,2.63,72,72,0,0,0-1.47,11.84c0,4.86,1.9,7,6.22,7a13,13,0,0,0,7.59-2.77,15.51,15.51,0,0,0,2.92-2.81c.14-.25.29-.36.39-.36A.28.28,0,0,1,572.24,22.82Z"/><path class="cls-2" d="M589.08,8c0-.83,0-1.44,0-1.55,0-2.12-.36-2.7-1.77-2.77-.25,0-.32,0-.32-.11,0-.28,1.37-.9,1.94-.9a5.4,5.4,0,0,1,2.16.72,1.43,1.43,0,0,1,.72,1,4.05,4.05,0,0,1-.21,1A16.34,16.34,0,0,0,591,8.28c1.55-.61,2.09-1,2.49-1.62,1.11.14,2,.72,2,1.3,0,.28-.18.43-.83.75a28.2,28.2,0,0,1-4,1.51,3.66,3.66,0,0,0-.14.76c-.08.57-.15,1.19-.22,1.8,0,.07-.07.61-.18,1.19a1.57,1.57,0,0,1,1.23,1.47c0,.51-.11.87-1.08,4.36C589.19,23.58,589,24.66,589,26c0,1.58,1.23,2.3,3.89,2.3a19.93,19.93,0,0,0,6.66-1.22c1.18-.54,1.62-1.37,1.62-3,0-1.08,0-1.33-.54-6.55-.22-2.3-.33-4-.33-5,0-2.24.9-3.35,2.59-3.35,3.17,0,7.16,3.31,7.16,5.9,0,1.12-.93,2.41-1.72,2.41a.42.42,0,0,1-.36-.21c-.8-.94-1.66-1.23-3.64-1.19-.29,0-.39-.11-.39-.25s0-.18.32-.22c.58-.11,2.12-.43,2.45-.54a.83.83,0,0,0,.64-.75,5,5,0,0,0-1.4-2.56A5,5,0,0,0,602.68,10c-1,0-1.51.93-1.51,2.73a43.23,43.23,0,0,0,.86,7.81c.54,2.34,1,3.35,1.84,4.11a1.94,1.94,0,0,1,.18.79A3.46,3.46,0,0,1,602,28.33a18,18,0,0,1-8.16,1.76c-4.43,0-6.52-1.33-6.52-4.17a16.13,16.13,0,0,1,.4-2.92,1.73,1.73,0,0,1-1.33.54c-1.37,0-2.23-1.58-2.23-4,0-3.28,1.87-5.94,4.13-5.94a4.79,4.79,0,0,1,.58,0c.11-1.76.11-1.83.18-3.06a18.41,18.41,0,0,1-4.57.87A1.89,1.89,0,0,1,582.39,10,6.78,6.78,0,0,1,582,7.85c0-.18.07-.25.22-.25s.1,0,.14.18a2.42,2.42,0,0,0,2.48,1.87,16.49,16.49,0,0,0,4.21-.79Zm-2.55,8a8.2,8.2,0,0,0-.79,3.56c0,1.37.5,2.31,1.26,2.31.57,0,.93-.44,1.15-1.34s.72-4.24.72-4.64c0-.72-.26-1.15-.69-1.19A2.29,2.29,0,0,0,586.53,16Z"/><path class="cls-2" d="M625.43,17.6a11.25,11.25,0,0,1-.76,4.18c-.82,2-2.77,3.63-4.31,3.63a1.72,1.72,0,0,1-1.48-1.54c0-.47.18-.65,1.3-1.16a8.46,8.46,0,0,0,4.67-5.22c0-.18.11-.21.26-.21A.29.29,0,0,1,625.43,17.6Zm7.09-3.49c0,.11,0,.11,0,3.85l.08,3.89c0,1.19,0,2.34.07,2.59,0,.65,0,1.23,0,1.59a3.33,3.33,0,0,1-1.22,2.73,3.2,3.2,0,0,1-2,.94c-.32,0-.47-.22-.5-.76-.11-1.58-.65-2.45-2.3-3.85-.15-.11-.22-.22-.22-.29a.39.39,0,0,1,.36-.32c.14,0,.14,0,1.44.82.75.47,1,.58,1.33.58.83,0,.83,0,.9-7l0-4.68v-1a33.21,33.21,0,0,0-7.26,1.55,2.71,2.71,0,0,1-1,.25,4.41,4.41,0,0,1-1.55-.61,2.79,2.79,0,0,1-1.4-2.34c0-.22.07-.33.17-.33s.18,0,.29.19c.51.64,1.3.86,3,.86,1.47,0,5.25-.36,7.66-.69,0-5.25-.18-5.65-2.16-5.9-.22,0-.32,0-.32-.14,0-.33,1.29-1,1.94-1a4.18,4.18,0,0,1,2.55,1c.58.44.87.8.87,1a.75.75,0,0,1-.11.33c-.47.75-.54,1.29-.72,4.42,4.21-.39,5.94-.72,7.16-1.26.68-.39.68-.39.9-.39a4.16,4.16,0,0,1,2.12,1c.79.54,1.05.79,1.05,1.19a.86.86,0,0,1-.83.82,4.37,4.37,0,0,1-.61-.07,38.81,38.81,0,0,0-5-.36c-1.44,0-3.6.15-4.82.29ZM639,17.89c2.88,1.73,4.57,3.74,4.57,5.51a1.74,1.74,0,0,1-1.62,1.9c-.65,0-.86-.25-1.26-1.69C640,21,637.56,18,635.36,17.17c-.14-.07-.21-.11-.21-.22s.17-.28.39-.28A7.88,7.88,0,0,1,639,17.89ZM644.9,4.82a3.39,3.39,0,1,1-3.31-3.38A3.39,3.39,0,0,1,644.9,4.82Zm-5.62,0a2.22,2.22,0,1,0,2.2-2.23A2.23,2.23,0,0,0,639.28,4.86Z"/><path class="cls-2" d="M666.53,13.71c1.76.83,1.76.83,1.76,1.12a2.15,2.15,0,0,1-.14.54,7,7,0,0,0-.29,2.74l0,3.52,0,4L668,28c0,.47,0,.9,0,1.11,0,.9-.32,1.44-.83,1.44-1,0-2.26-.9-2.26-1.69a2.8,2.8,0,0,1,.11-.68,107.56,107.56,0,0,0,.82-11.95,3.89,3.89,0,0,0-.39-2,43.65,43.65,0,0,1-9,7.12,15.84,15.84,0,0,1-3.81,1.62c-.18,0-.36-.14-.36-.28s.07-.15.36-.29C658.07,19.83,668.76,9,668.76,5.9c0-.36-.65-1-1.15-1.08-.29-.07-.36-.14-.36-.28s.72-.47,1.4-.47c1.29,0,3.89,1.87,3.89,2.81,0,.25-.11.36-.44.5a2.59,2.59,0,0,0-1.22,1,53.16,53.16,0,0,1-4.78,5.08Z"/><path class="cls-2" d="M691.79,11.63a1.44,1.44,0,0,1-1.58,1.47c-.47,0-.69-.18-1.05-.79a7.45,7.45,0,0,0-5.29-4.25c-.21-.07-.32-.14-.32-.25s.61-.39,1.62-.39C688.48,7.42,691.79,9.54,691.79,11.63ZM687.33,27a5.1,5.1,0,0,1-2.48-1.8A2.57,2.57,0,0,1,684,23c0-.69.18-1.19.43-1.19s.18.07.26.25a2.43,2.43,0,0,0,2.05,1.73c1.44,0,5.57-2.56,10.61-6.59a69.85,69.85,0,0,0,6.48-5.72c.61-.65,2.55-2.85,2.88-3.28s.43-.54.61-.54.25.15.25.33c0,.54-1.55,2.91-3.24,5a53.65,53.65,0,0,1-7.41,7.45,49.17,49.17,0,0,1-8.2,5.65C688,26.75,687.65,27,687.33,27Z"/><path class="cls-2" d="M722.78,14.51c0,6.08.07,9.32.25,11.8.07.69.11,1.23.11,1.51,0,1.48-.54,2.56-1.23,2.56s-1.83-1.58-1.83-2.45c0-.21,0-.5.07-.86.32-1.91.58-9.68.58-16.49,0-3.2-.15-4.46-.54-5.11a1.79,1.79,0,0,0-1.7-.9c-.21,0-.32-.11-.32-.29s.11-.25.29-.32a8.32,8.32,0,0,1,2.12-.58c.51,0,1,.26,2.48,1.23.51.32.69.54.69.79a1.73,1.73,0,0,1-.18.65c-.54.93-.76,2.52-.83,6.41A14.47,14.47,0,0,1,730,14.72c1.87,1.26,2.73,2.38,2.73,3.49a1.42,1.42,0,0,1-1.44,1.52c-.75,0-1.18-.33-2-1.66a12.28,12.28,0,0,0-6.55-5Z"/></g></g></g></svg>