<svg id="Layer_1" data-name="Layer 1" xmlns="http://www.w3.org/2000/svg" viewBox="0 0 1335.41 70"><title>deb-den-subtext</title><path d="M799,71c-1.25-4.43-.36-9-.61-13.42-.07-1.25.72-2.9-.85-3.6s-2.42.69-3.36,1.6c-5.61,5.37-12.32,9-19.24,12.37a10.94,10.94,0,0,1-1.83.78,3.4,3.4,0,0,1-4.47-2.15c-.71-2,1.28-2.5,2.58-3a66.5,66.5,0,0,0,16.56-9.11c1.26-.91,3.33-1.71,2.58-3.75-.64-1.74-2.59-1.08-4-1.1-4.66-.08-9.33,0-14,0-1.59,0-3.21-.32-3.24-2.27,0-2.17,1.82-2,3.29-2,7.17,0,14.33,0,21.5-.06,2,0,4.3.13,4.34-2.81s-2.09-3.47-4.46-3.37c-3.65.16-7.06.49-6.75-5.06.15-2.7-2-2-3.53-1-3.41,2.09-6.85,4.12-10.22,6.27-1.51,1-2.84,1.93-4.16-.19s-.4-3.48,1.65-4.24c5.14-1.91,8.73-7.18,15-6.74,1.58.11,1.39-1.65,1.42-2.73.09-3.5.18-7,0-10.49-.12-2.77.92-4.24,3.72-3.87,4.18.57,6.63-1.11,7.65-5.16C799,4.14,800.13,3.35,802,4c1.7.6,2.47,1.59,1.69,3.41-1.22,2.86.28,3.59,2.79,3.55,1.5,0,3,.07,4.49,0,2.76-.16,4.08,1,3.79,3.81a7.52,7.52,0,0,0,0,1.5c.48,4.83-2.53,11.07,6.75,11.66,3.77.24,7.3,4.33,10.94,6.68,1.51,1,2.75,2.06,1.18,4-1.39,1.7-2.77,1.28-4.33.18-3.4-2.4-6.88-4.69-10.31-7-3-2-4.52-1-4.17,2.32.43,4.15-1.36,5.45-5.15,5a7.83,7.83,0,0,0-2,.07c-2.25.3-3.93,1.6-3.89,3.82.05,2.61,2.44,2.27,4.2,2.29,7,.05,14,0,21,.07,1.65,0,4.28-.83,4.37,1.87.11,3-2.66,2.39-4.52,2.42-4.67.09-9.33,0-14,0-1.27,0-2.92-.32-3.28,1.45-.28,1.34,1,2,1.9,2.69A71.57,71.57,0,0,0,830.51,63c1.53.57,4.37.23,3.44,3s-3,3-5.67,1.77c-7.2-3.17-14.09-6.77-20.06-12-1.09-.95-2.13-2.59-3.77-1.82s-.71,2.69-.82,4.1c-.35,4.29.71,8.65-.63,12.89Zm1.61-48h0c1.32,0,2.66-.08,4,0,3,.22,4.72-.58,4.71-4s-2-4.05-4.82-3.93-6,0-9,.05c-2.66,0-3.27,1.75-3.27,4S793,23,795.64,23Zm.12,12c1.32,0,2.65-.09,4,0,3.06.25,4.65-.8,4.59-4.16-.06-3.18-1.69-3.92-4.44-3.81-3,.12-6,.06-9,0s-3.7,1.62-3.66,4.15c0,2.35,1,3.8,3.52,3.77C797.41,34.94,799.07,35,800.73,35Z" transform="translate(-1 -1)"/><path d="M1,55A40.44,40.44,0,0,1,17.51,39.63C20,38.35,20.89,27.31,19,25.26c-1.17-1.26-2.73-1-4.22-.92-3,.13-6,.27-9,.36C4,24.75,3,24,3,22s1-2.72,2.77-2.73a66.55,66.55,0,0,1,8,0c5,.57,6.63-1.68,6.1-6.33-.17-1.48,0-3,0-4.49-.15-3.28,2.08-3.24,4.36-3.23,3.23,0,2.08,1.85,1.75,3.71-1.55,8.59.35,10.17,8.87,7.59,1.46-.44,3.17-2,4,.63.77,2.34-.23,3.87-2.55,4.55-1.12.32-2.25.65-3.39.86-1.31.24-2.64.38-4,.52-2.6.28-3.64,1.76-3.88,4.32-.78,8.21.14,9.17,8.19,7.1,5.64-1.45,11.12-1.72,16.7.16,7,2.35,10.69,7,11.27,14.25C61.83,57,59,63,53.27,65.93c-6,3-15.7,2-20.38-2.07-1.69-1.47-2.82-3.11-1.24-5.13,1.88-2.39,3.12-.1,4.44,1,4.84,3.85,9.72,4.4,14.3,1.57a12.23,12.23,0,0,0,5.38-13c-1-5.1-4.68-8.48-10.32-9.5C39.35,37.63,33.57,39,27.84,41c-2.35.79-2.84,2.58-2.79,4.72.09,4.16.39,8.32.26,12.46-.15,5.1-2.38,9.07-7.56,10.55A13.17,13.17,0,0,1,3.42,64.12C2.63,63.07,1.81,62,1,61Zm19.51-.38c-.25-2.1-.62-4.07-.7-6-.13-3.57-1.52-4-4.34-2.11-3.4,2.24-6.3,4.89-7.85,8.73A6.42,6.42,0,0,0,11.7,64c3.61,1.15,6.84-.64,8-4.57A41.72,41.72,0,0,0,20.51,54.62Z" transform="translate(-1 -1)"/><path d="M319,1a33.52,33.52,0,0,1,3.13,3.18c2.72,3.6,3.05,7.45.17,11-2.6,3.22-6.15,4.14-9.82,2a7.92,7.92,0,0,0-9.3.31c-1.24.86-1,10.22.1,11.63s2.33,1,3.65.8c2.31-.36,4.62-.69,6.91-1.1,1.48-.26,2.7-.18,3,1.6A2.42,2.42,0,0,1,315,33.52a84.1,84.1,0,0,1-8.35,1.41c-2.43.29-3.36,1.33-3.34,3.91.07,6.13.88,11.53,7.71,14,2.26.84,4.18,2.7,6.13,4.26s.65,3-.29,4.38c-1.08,1.59-2.23.88-3.35,0-.51-.43-1.07-.8-1.6-1.21-5.86-4.46-5.86-4.46-8.91,1.92-2.1,4.38-7.74,6-15.61,4.58-5.32-1-8.76-4.54-9-9.27s3-8.51,8.8-10a21.52,21.52,0,0,1,4.95-.54c7.22-.09,7.16-.07,6.18-7.16-.39-2.8-1.68-4.21-4.52-4.2-3.33,0-6.67,0-10,0-1.68,0-3.74,0-3.83-2.22-.13-2.79,2.29-2.33,4-2.38,3.17-.1,6.34-.1,9.5,0,2.51.06,3.74-1,3.7-3.54,0-.17,0-.34,0-.5-.77-11.51,1.27-10.09-9.82-10.2-.66,0-1.33.05-2,0-1.71-.14-4.07.54-4.07-2.31,0-3,2.4-2.57,4.37-2.63,6-.2,12,.33,18-.37,2.48-.28,4.12-1,4.51-3.64.47-3.06,3.56-4.27,4.81-6.78ZM298.92,54.89c-.38-3.56-4-3.67-7.25-3.72-4.47-.07-8.57,3.19-8.35,6.19s4.47,5.75,8.89,5.61C296.24,62.84,299.05,59.92,298.92,54.89Zm17-50.45c-3.17.65-5.15,2.57-4.92,5.79a4.85,4.85,0,0,0,5.25,4.84c3.33-.14,5.09-2.36,4.9-5.63C320.92,6.39,318.92,4.8,315.88,4.44Z" transform="translate(-1 -1)"/><path d="M558,71c-3.12-2.89-7.4-2.59-11.08-3.94-13.23-4.88-18.55-17.81-12.09-30.36,3.5-6.79,8.75-12.07,14.6-16.83.83-.67,2.37-1.14,1.57-2.64-.55-1.05-1.76-.64-2.72-.56-9.77.75-19.55,1.43-29.31,2.37-2.05.2-3.51.71-3.88-2-.35-2.58.51-3.62,3.14-3.77,12.28-.68,24.55-1.48,36.82-2.27,5-.32,9.94-.69,14.91-1.05,1.94-.14,3.83-.12,4.13,2.4s-1.26,3-3.34,3.33c-13.45,2-22.44,10.54-29.36,21.23-7.27,11.26-2.25,22.1,11.26,26,1.27.36,2.6.52,3.9.82,6.56,1.53,6.56,1.53,3.45,7.36Z" transform="translate(-1 -1)"/><path d="M1084,1c1.4,1.15,2.91,2.2,4.19,3.47a8.13,8.13,0,0,1-.14,12,8.72,8.72,0,0,1-12.15-.57,8.17,8.17,0,0,1,1.08-12c1.29-1,2.68-1.95,4-2.92Zm-1.65,14.64c3.33-.45,5.25-2.35,5.15-5.64a4.88,4.88,0,0,0-5.17-5c-3.14,0-5.47,1.93-5.41,5.29S1079.06,15.34,1082.35,15.64Z" transform="translate(-1 -1)"/><path d="M725.42,67.54A78.6,78.6,0,0,1,710,66.92c-3.76-.61-7.31-1.82-8.83-5.6a10.62,10.62,0,0,1,2.17-11.63c3.36-3.79,7.58-6.43,11.92-8.93,1.78-1,4.14-2,2.87-4.94a5,5,0,0,0-6-3.32c-5.8.92-9.8,4.68-13.71,8.58-2.47,2.47-4.84,5-7.26,7.57-1.41,1.47-2.82,1.55-4.28,0s-.86-2.81.59-4.13a53.27,53.27,0,0,0,14-19.18c1.88-4.54.2-5.29-3.69-5.17-2.5.09-5,0-7.5,0-1.76,0-2.93-.64-3-2.53-.07-2.08,1.37-2.4,3-2.4,3.49,0,7-.12,10.49,0,2.82.09,4.4-.92,4.64-3.88a14.69,14.69,0,0,1,1-3.86c.76-2,2.47-2,4.17-1.57,2.09.54,1.67,2,1.25,3.55-1.48,5.73-1.26,6.13,4.6,5.4,4.94-.62,9.82-1.73,14.69-2.81,1.72-.38,3.24-1.18,3.83,1.37.46,2-.35,3-2.32,3.63-6.43,1.95-13.13,2.09-19.71,3.08-1.45.22-3.19-.19-4,1.39-1.06,2-3.18,4.26-2.06,6.39,1.29,2.48,3.52,0,5.27-.34,4.7-1,8.48.41,10.43,4.7,1.58,3.44,3.44,3.37,6.32,2.08,3.63-1.63,7.4-2.95,11.07-4.52,2.31-1,3.89-.49,4.72,1.92s-1,2.6-2.62,3.15c-3.94,1.32-7.79,2.93-11.73,4.24-4.12,1.37-6.14,3.65-5.78,8.41.19,2.46,2.4,7.47-2.94,7.22-4.26-.2-2.07-4.34-2.1-6.8,0-2.92-.95-3.85-3.54-2.2-3.08,2-6.3,3.83-8.55,6.81-3,4-2,7.31,2.66,8.93,7.45,2.56,15.18,1.17,22.8,1.2,2.05,0,4.89-1.25,5.06,2.06.15,2.76-2.72,2.52-4.56,2.65C730.26,67.71,727.08,67.54,725.42,67.54Z" transform="translate(-1 -1)"/><path d="M971.73,67.59A47.23,47.23,0,0,1,961,66.92c-5.85-1.13-8.19-3.7-8.28-9.79,0-2.32-.89-3.13-3.05-3.66-5.86-1.44-8.53-5.72-7.75-11.86.92-7.34,5.48-12.55,11.51-12.16,3.66.23,5.34-.54,5.34-4.28,0-4.33-3.22-3.36-5.71-3.53-1.66-.11-3.33,0-5,0s-4.08.12-4-2.5c0-2.41,2.21-2,3.8-2.11a42.76,42.76,0,0,1,6,0c4.11.4,5.82-1.29,5.49-5.44-.19-2.4-.68-5.34,3.37-5.17,2.2.09,3.21.59,2.77,3.32-1.07,6.62-.87,6.68,6,5.62,2-.3,3.92-.72,5.85-1.21,1.53-.38,3-.91,3.5,1.31.45,1.95-.1,3.28-2.21,3.67-2.94.56-5.87,1.51-8.82,1.58-4.08.08-5.61,1.89-5.66,5.79,0,2.65-.9,5.29-.85,7.93a34.89,34.89,0,0,1-4.1,17.68c-3.13,5.88-.82,9.85,5.72,10.56s12.95,1,19.32-.92c7.22-2.13,9.46-6.93,6.26-13.75a62.74,62.74,0,0,0-3.29-5.58c-.64-1.08-2-2.16-.23-3.33,1.27-.82,2.5-1.42,4.07-.17,4.73,3.77,8.09,14.6,5.87,20.21-2,5.09-6.54,6.92-11.47,7.6C980.76,67.33,976.12,68,971.73,67.59Zm-14-27.47c-.08-3-.56-5.86-4.25-6.23s-7.26,4.16-7.1,8.76c.12,3.37,1.18,6.41,5.3,6.48C955.05,49.18,957.7,45,957.72,40.12Z" transform="translate(-1 -1)"/><path d="M464.75,49.33c0,1.16.06,2.33,0,3.49-.23,3.58.46,6.84,4.11,8.3s6.87.43,9.67-2.17c3.76-3.51,5.77-8.07,7.68-12.71.64-1.55,1-4,3.69-2.76,2.34,1,2.32,2.72,1.51,5-2.11,5.88-4.71,11.43-9.62,15.51-7.45,6.17-18.36,4.48-21.76-3.26-1.42-3.22-.59-6.58-.78-9.88-.22-4,1.49-9.1-3.5-11-4.64-1.79-8.13,1.88-11.33,4.69-5.69,5-8.67,11.7-10.93,18.76-.7,2.17-1.26,4.45-4.3,3.24-2.7-1.07-1.74-3.06-1.06-5,5.94-17,11.8-33.94,17.81-50.86.66-1.88.64-4.9,4.44-3.93,3.14.81,4.33.75,2.26,4.79-4,7.8-6.62,16.3-9.77,24.52-.29.74-.66,1.67.06,2.34,1,.91,1.84.09,2.65-.43a20,20,0,0,1,6.83-2.94c7.81-1.58,12.25,1.92,12.36,9.89C464.77,46.33,464.75,47.83,464.75,49.33Z" transform="translate(-1 -1)"/><path d="M635.59,49.33a4.17,4.17,0,0,1,0,.5c-.59,4.66-.69,9.39,4.6,11.38S649,59.59,652,55.88a28.79,28.79,0,0,0,5.16-10.17c.48-1.57,1.11-2.9,3.07-2.42a3.16,3.16,0,0,1,2.55,3.27c.25,7.3-10.3,19.71-17.74,20.86C636,68.82,630.26,64,629.75,54.86c-.19-3.49,1.15-6.91.18-10.42-1.35-4.94-3.93-6.45-8.45-4.17-8.7,4.41-13.54,12-16.42,21-.3,1-.46,2-.82,2.88-.64,1.66-1.59,3-3.7,2.44-2.33-.66-2.54-2.28-1.83-4.32,2.34-6.76,4.59-13.54,7-20.28,3.81-10.82,7.69-21.61,11.54-32.42a4.75,4.75,0,0,1,7.21-2.16c1.16.81.72,1.46.09,2.43-5.3,8.18-7.2,17.8-11,26.6-.36.82-.46,1.71.34,2.24s1.56,0,2.28-.47A21.43,21.43,0,0,1,622.8,35c8.07-1.8,12.2,1.17,12.76,9.31.11,1.65,0,3.32,0,5Z" transform="translate(-1 -1)"/><path d="M203,50.77c-.26-3.89,1.49-9.22-3.77-11.1-4.62-1.66-8,2.16-11.23,5-5.69,5-8.64,11.7-10.77,18.78-.62,2.07-1.23,4-4,3.19-3.15-1-2.15-3.35-1.45-5.34q9-25.6,18.14-51.18c.69-1.95,1.18-4.25,4.41-3.41,2.92.76,4,.73,2.07,4.58-4,8-6.67,16.61-9.87,25-.3.79-.53,1.84.34,2.2a3.2,3.2,0,0,0,2.27-.48c2.2-1.15,4.27-2.51,6.79-3,8.26-1.69,13,2.27,12.57,10.65a66.61,66.61,0,0,0-.17,8.47c.57,7.22,6.35,9.95,12.42,5.9,4.51-3,6.64-7.71,8.67-12.5.75-1.78.71-5,3.87-4,3.49,1.08,2.29,4,1.38,6.25-2.86,7.22-6.17,14.38-14.16,17.06C209.2,70.53,203,64.73,203,50.77Z" transform="translate(-1 -1)"/><path d="M373.16,16.73c-8.93.79-17.07,1.4-25.17,2.32-2.28.25-3.43.05-3.76-2.44s.77-3.22,3-3.36q26.16-1.61,52.3-3.33c2-.13,3.29.38,3.41,2.56.15,2.47-1.46,2.87-3.47,3.26C384.75,18.6,375,27.85,368.68,40.89c-3.63,7.5-.95,14.42,6.19,18.81,3.91,2.39,8.3,3.35,12.65,4.48,1.66.44,4.07.51,3.42,3.23-.57,2.36-2.3,3-4.66,2.37-4.34-1.13-8.77-1.87-12.85-3.92-11.53-5.8-15.33-17.11-9.5-29,3.21-6.54,8.09-11.75,13.68-16.35,1-.85,3.28-1.26,2.41-3.18-.63-1.42-2.41-.47-3.67-.56S373.69,16.73,373.16,16.73Z" transform="translate(-1 -1)"/><path d="M1047.41,68.22a10.93,10.93,0,0,1-3-.26,3.31,3.31,0,0,1-2.54-3.34c.18-1.88,2-1.4,3.23-1.33,11.85.75,9.73-1.86,9.83-10.31.09-7-.15-14,.09-21,.13-3.85-1.09-5.47-5.09-5.29-5.16.24-10.33.07-15.49,0-1.83,0-3.9.21-4-2.49-.16-3,2-3,4.07-3H1048c7,0,7,0,7-7.26,0-1.66,0-3.33.07-5,.13-2.21,1.62-2.7,3.5-2.55,2.08.17,2.11,1.45,2,3.19-.9,14.31-.72,11.27,10.8,11.61,3.17.09,6.33.06,9.5.14,1.8,0,3.86-.26,3.92,2.55.07,3.15-2.2,2.78-4.17,2.79-5.34,0-10.67.12-16,0-3.23-.09-4.45,1.21-4.41,4.43.13,8.49,0,17,0,25.49C1060.22,66.3,1058.28,68.2,1047.41,68.22Z" transform="translate(-1 -1)"/><path d="M1143,50.4c0-4.66,0-9.33,0-14,0-3.22-1.14-3.85-3.94-2.17-6.28,3.76-12.65,7.36-19,11.07-2.23,1.31-4.74,3-6.34-.27-1.5-3,1.79-3.31,3.52-4.21,16.45-8.62,31.82-18.78,45.24-31.71,1.86-1.78,3.49-3,6-1,1.72,1.43,1.87,2.41,0,3.88-4.91,4-9.58,8.28-14.6,12.11a12.08,12.08,0,0,0-5.23,10.65c.18,9.82.06,19.66.06,29.49,0,2.18.33,4.55-3.08,4.43-3.09-.12-2.7-2.32-2.7-4.3C1143,59.73,1143,55.07,1143,50.4Z" transform="translate(-1 -1)"/><path d="M868.38,43c0-10.8,0-21.61,0-32.41,0-3.36,1.59-4.5,4.65-4.18,4.13.43,1.58,3,1.51,4.78-.48,12.3-1.71,24.63-1.15,36.88.58,12.67,10.95,17.6,23.8,12.46a43.47,43.47,0,0,0,13.56-9.18c1.33-1.26,2.43-3,4.39-.73,1.4,1.66,1.63,3-.06,4.73-8.85,8.87-19.27,13.58-32,12-8.15-1-12.8-5.43-14.83-13.41A18.82,18.82,0,0,1,868.38,43Z" transform="translate(-1 -1)"/><path d="M102.89,25c-3.66,0-7.32,0-11,0-1.76,0-3.5-.26-3.4-2.6.1-2.18,1.7-2.61,3.52-2.62,6.16,0,12.31-.14,18.46,0,4.1.13,5.47-1.52,4.53-5.41-.39-1.61-.59-3.27-.92-4.9-.44-2.17-1.28-4.44,2.36-4.56,2.67-.09,3.44.17,3.79,3.67,1,10.45-1.32,11.83,11.32,9.5,3.26-.6,6.56-1.14,9.74-2.06,2.45-.71,4.26-.78,5,2.1s-1.56,3-3.2,3.31q-8.05,1.64-16.18,2.9c-2.95.46-4,1.38-2.77,4.61,1.9,5,4.44,9.27,8.92,12.26,1.44,1,3,1.85,1.78,3.92s-2.74,2.3-4.66,1.17a27,27,0,0,0-11.33-3.49c-1.38-.13-2.78-.63-2.75-2.31s1.37-1.58,2.57-1.63,2.92-.23,2.49-1.65a62.41,62.41,0,0,0-4.31-11.07c-1.19-2.24-4-1-6-1.12-2.65-.14-5.32,0-8,0Z" transform="translate(-1 -1)"/><path d="M1303.25,36.74c0-8.82,0-17.64,0-26.46,0-2.52.07-4.69,3.61-4.52,3.75.19,2.51,2.48,2.3,4.56-1.53,15.35-1.5,15.32,12.36,21.18,3.82,1.61,7.53,3.5,11.27,5.32,1.82.9,4.67,1.28,3.24,4.41-1.54,3.37-3.93,2-6.26.84-5.08-2.47-10.15-5-15.32-7.24s-5.37-1.91-5.39,3.45c0,8.49,0,17,0,25.47,0,2.22.09,4.6-3.2,4.41-3.06-.16-2.55-2.56-2.56-4.46C1303.23,54.71,1303.25,45.73,1303.25,36.74Z" transform="translate(-1 -1)"/><path d="M1258.87,23.88c-.36.7-.87,1.73-1.42,2.74-10,18.4-25.68,30.07-44.81,37.6a15.3,15.3,0,0,0-3.23,1.27c-2.87,2.05-4-.34-5-2.08-1.49-2.53,1.13-2.7,2.41-3.2a118.26,118.26,0,0,0,18.9-8.85c11.59-7.11,20.8-16.44,27-28.59.75-1.45,1.18-3.43,3.48-2.52C1257.63,20.8,1259,21.61,1258.87,23.88Z" transform="translate(-1 -1)"/><path d="M269.6,9.76c-4.37,11.29-5.11,23.15-5.42,35.06,0,1.59-.33,3.91,1.59,4.23s1.39-2.19,2.13-3.35c.35-.55.5-1.23.81-1.81.64-1.2.57-3.4,2.78-2.68,2.37.76,2.08,2.67,1.33,4.52-1.07,2.61-2.31,5.15-3.25,7.8S267,59,267.19,62.1c.12,2-.52,3.36-2.57,3.5s-2.87-1.4-3.26-3.12a89.24,89.24,0,0,1-2.43-18.72c-.17-10,1.36-19.85,3.2-29.65C263.28,8,263.4,8,269.6,9.76Z" transform="translate(-1 -1)"/><path d="M122.79,63c2.66,0,5.33,0,8,0,1.31,0,2.88,0,3.08,1.76S133.21,68,131.48,68c-10.59.23-21.34,1.46-31.18-4.08-7.84-4.42-6.74-15.61-.79-21.1,1.44-1.32,2.68-.84,3.94.26s.74,2.21,0,3.46C98,55.31,99.78,59.34,109.91,62,114.19,63.07,118.48,62.92,122.79,63Z" transform="translate(-1 -1)"/><path d="M1072.41,35.65a4,4,0,0,1,2.45,1.69,151.4,151.4,0,0,1,11.83,16c1.22,1.84,1.23,3.35-.7,4.66-2.23,1.53-3.39,0-4.36-1.61a125.23,125.23,0,0,0-11.09-15.93c-.87-1-1.77-2.09-.62-3.5A3.62,3.62,0,0,1,1072.41,35.65Z" transform="translate(-1 -1)"/><path d="M1044.5,39.3c-3.09,6.88-6.63,13.65-12.31,19-1.17,1.09-2.51.24-3.58-.67-1.42-1.22-.77-2.31.21-3.4A56.12,56.12,0,0,0,1039,38.32c.73-1.75,1.78-2.26,3.52-1.56C1043.61,37.21,1044.7,37.62,1044.5,39.3Z" transform="translate(-1 -1)"/><path d="M1204.91,11.68a94.22,94.22,0,0,1,18.55,8.43,2.24,2.24,0,0,1,.71,3.44c-.86,1.32-1.94,2.43-3.67,1.41A101.55,101.55,0,0,0,1203,16.73c-1.12-.4-1.62-1.21-1.09-2.3C1202.58,13.15,1203,11.54,1204.91,11.68Z" transform="translate(-1 -1)"/><path d="M989,21a53.72,53.72,0,0,1,13.46,3.58c1.77.71,2.88,1.71,2.07,3.77s-2.32,2-4.07,1.19a62.65,62.65,0,0,0-12.89-3.75c-1.64-.34-4.25-.17-3.87-2.81S986.51,20.83,989,21Z" transform="translate(-1 -1)"/><path d="M63.84,25a4.23,4.23,0,0,1-1.65,3,1.9,1.9,0,0,1-2.7-.05A69.63,69.63,0,0,0,46.81,20a2.09,2.09,0,0,1-1.16-2.91c.6-1.27,1.68-2.53,3.07-2a49.3,49.3,0,0,1,14.79,9C63.72,24.23,63.73,24.65,63.84,25Z" transform="translate(-1 -1)"/><path d="M832.21,9.82a7.14,7.14,0,0,1-.84,1.74q-5.11,5.07-10.29,10.07c-1,1-2.1.77-3-.23s-1.28-2.1-.36-3.12a124.82,124.82,0,0,1,9.53-10.1C829.32,6.31,830.43,9.25,832.21,9.82Z" transform="translate(-1 -1)"/><path d="M784.57,19.57a3.53,3.53,0,0,1-1.92,2.71c-1.1.54-1.92-.11-2.54-.92A49.86,49.86,0,0,0,772,12.71a2,2,0,0,1-.7-2.63,2.65,2.65,0,0,1,2.45-1.41C776.11,8.65,784.69,17.33,784.57,19.57Z" transform="translate(-1 -1)"/><path d="M561.62,28.34c1.73,0,9,6.92,9.13,8.72a2.68,2.68,0,0,1-.6,1.73,1.54,1.54,0,0,1-2.22.25,105.76,105.76,0,0,1-7.88-8.11C558.77,29.4,560.34,28.7,561.62,28.34Z" transform="translate(-1 -1)"/><path d="M578.59,31.4a3.32,3.32,0,0,1-.82,1.22,2,2,0,0,1-2.66-.42c-2.29-2.35-4.56-4.73-6.84-7.1-.59-.62-1.07-1.31-.55-2.17a2,2,0,0,1,2.08-1C571.48,22.17,578.53,29.39,578.59,31.4Z" transform="translate(-1 -1)"/><path d="M400.21,37.71c-.37,1.39-1.63,2.55-2.8,1.53a64.92,64.92,0,0,1-7.9-8.26c-1.1-1.37-.09-2.51,1.72-2.4S400.2,36,400.21,37.71Z" transform="translate(-1 -1)"/><path d="M398.4,22c1.89.14,9.24,7.34,9.33,8.93a2.34,2.34,0,0,1-.63,1.69,1.91,1.91,0,0,1-2.69-.18C402,30,399.57,27.47,397.2,25a1.51,1.51,0,0,1-.12-2.21A4.7,4.7,0,0,1,398.4,22Z" transform="translate(-1 -1)"/></svg>