<svg xmlns="http://www.w3.org/2000/svg" viewBox="0 0 501.01 110.28"><defs><style>.cls-1{fill:#333;}</style></defs><title>osanpo-rnjoy-point-title</title><g id="Layer_2" data-name="Layer 2"><g id="Layer_1-2" data-name="Layer 1"><path class="cls-1" d="M15.23,25.6l-.06-3.51c-.05-.6-.05-1.73-.05-3.24a17.18,17.18,0,0,1-6.64,1.4,2.93,2.93,0,0,1-2.86-1.4A2.82,2.82,0,0,1,5,17.23c0-1.08.16-1.68.43-1.68s.16.06.22.27c.16.87,1.56,1.46,3.56,1.46A13.87,13.87,0,0,0,15.12,16a74.71,74.71,0,0,0-.32-7.83c-.27-1.83-1-2.59-2.38-2.59a2.21,2.21,0,0,0-.65.06,2,2,0,0,1-.48,0c-.17,0-.22-.11-.22-.27,0-1,1.73-2.32,3.08-2.32,1.78,0,4.75,2,4.75,3.18a4.84,4.84,0,0,1-.27,1,9.15,9.15,0,0,0-.54,2.54,16.48,16.48,0,0,0,5.72,1.67l1.25-.05c.48,0,1,.65,1,1.4,0,1.84-2.27,3.3-8.48,5.4-.05,2.16-.11,3.67-.11,4.92,0,.54,0,1.72.06,3,5.88-3.46,10.63-5.08,15-5.08,5.24,0,8.86,3.68,8.86,9,0,6.48-4.7,11.07-11.34,11.07-4.43,0-7.07-2.75-7.07-7.34,0-1.89.7-4.05,1.35-4.05.16,0,.32.11.32.21a1.58,1.58,0,0,1-.16.6,14.5,14.5,0,0,0-.27,2.59,5.83,5.83,0,0,0,1.89,4,6.17,6.17,0,0,0,3.62,1.18c4.48,0,7.77-3.51,7.77-8.26,0-4.48-2.32-6.91-6.53-6.91-3.78,0-7.18,1.24-13.29,4.91V29.7c0,2.11.22,6.59.44,7.94a18.76,18.76,0,0,1,.16,2c0,1.72-2.05,3.61-4,3.61-.38,0-.54-.21-.54-.7-.11-2.81-2.64-6.48-5.45-8a16.41,16.41,0,0,0-3,2.59,1.74,1.74,0,0,1-1.29.76C2.43,37.91,0,35.53,0,34c0-.92.49-1.24,1.84-1.24,3.56-.11,4.53-.38,6.26-1.57.16-.11,1.19-.7,2.21-1.24,2-1.13,2.38-1.35,4.92-2.81Zm0,6.64c0-.33,0-.43,0-3.08a40.35,40.35,0,0,0-6.15,4.7,35.69,35.69,0,0,1,4,3.08c.64.54,1,.7,1.29.7.54,0,.81-.7.81-2.11Zm6.26-19.33c0-.27-.16-.44-1.13-1s-1.35-.75-2.54-1.45c-.16,1.51-.16,2.37-.22,5C19.93,14.69,21.49,13.61,21.49,12.91Zm12.64,1.18a2.53,2.53,0,0,1-.81.27.46.46,0,0,1-.38-.43c0-.86,3.94-2.16,6.48-2.16a9.89,9.89,0,0,1,7,2.59,7.35,7.35,0,0,1,1.89,4.11,2.85,2.85,0,0,1-2.87,2.64c-.54,0-.7-.27-1.08-1.94a8.79,8.79,0,0,0-2.59-3.67,7.9,7.9,0,0,0-4.91-1.78A10.87,10.87,0,0,0,34.13,14.09Z"/><path class="cls-1" d="M79.11,2.48c-1,0-2.16.6-2.16,1.08,0,.17,0,.27.43.6,1.14,1.13,2.54,2.7,6.05,6.86,3-1.08,5-2.38,5-3.14,0-.37-.65-1-2.11-1.89-.48-.27-.59-.37-.59-.54s.16-.21.32-.21a.9.9,0,0,1,.38.11,12.64,12.64,0,0,0,4.16,1.08,3.92,3.92,0,0,0,.86-.06c.43,0,.7-.11.87-.11a2.34,2.34,0,0,1,1.94,1.68c0,.75-.76,1.56-2.27,2.48a46.54,46.54,0,0,1-6.69,2.92,43.29,43.29,0,0,1,7.88,10,15.72,15.72,0,0,1,2,5.83,4.45,4.45,0,0,1-2.1,3.62,4.62,4.62,0,0,1-1.89.81c-.38,0-.65-.16-1.14-.75a16.47,16.47,0,0,0-12.26-5.51c-4.91,0-8.26,2.59-8.26,6.48a5.08,5.08,0,0,0,2.92,4.91c1.78,1,5.29,1.73,8.48,1.73a15.31,15.31,0,0,0,3.45-.32A5.29,5.29,0,0,1,85.7,40a3.1,3.1,0,0,1,2.75,2.54c0,1.24-2.1,1.94-5.83,1.94A26.06,26.06,0,0,1,71.28,42c-3.29-1.83-5-4.48-5-7.77,0-5.08,4.48-8.64,10.85-8.64,3.3,0,6.43.91,10.37,3.07a4,4,0,0,0,2,.71A1.34,1.34,0,0,0,90.83,28c0-1.3-1.14-4.43-2.38-6.75A45.84,45.84,0,0,0,83.38,14c-6.11,2.1-9.45,2.86-12.42,2.86a7.11,7.11,0,0,1-5.73-3.08,11,11,0,0,1-1.73-3.51.55.55,0,0,1,.6-.49c.27,0,.38.11.54.54,1,2.27,3.18,3.46,6.21,3.46s6-.59,10.53-2A33.71,33.71,0,0,0,73,4.7c-.76-.43-1-.76-1-1.19C72,2.38,74.14.92,75.87.92s4.64.75,4.64,1.29c0,.17-.16.38-.27.38a.43.43,0,0,1-.21,0Z"/><path class="cls-1" d="M140.45,5c0,.92-.32,1.51-1.45,2.59-3,2.76-9.08,10.7-11.67,15.18A10.89,10.89,0,0,0,126,25.38a.48.48,0,0,0,.49.43.61.61,0,0,0,.59-.32c3.24-3.67,8-6.43,11.13-6.43a6.61,6.61,0,0,1,6.75,6.81,15.66,15.66,0,0,1-.38,3,44.19,44.19,0,0,0-1.14,8.1c0,2.81,1.19,4.1,3.73,4.1,4.91,0,9.07-3.4,11.45-9.39.11-.38.21-.49.32-.49s.43.27.43.6A17.82,17.82,0,0,1,157,38.39a12.44,12.44,0,0,1-10.37,5.46c-4.21,0-6.75-2.65-6.75-7.08a47.52,47.52,0,0,1,.87-7.61,20.51,20.51,0,0,0,.48-3.89c0-2.37-1.51-3.83-4-3.83s-5.61,1.62-9.34,5.07-5.61,8.37-6.26,16.2c-.16,1.41-.6,2.16-1.24,2.16A4.4,4.4,0,0,1,118,43.79a1.84,1.84,0,0,1-.65-1.56c0-5.83,6.54-19.66,15.93-33.7,1.68-2.48,2-3.29,2-4.26a3.26,3.26,0,0,0-3.34-3c-.22-.06-.33-.11-.33-.33,0-.38,1.41-.75,2.76-.75C137.21.22,140.45,2.81,140.45,5Z"/><path class="cls-1" d="M180.68,4.32A5.89,5.89,0,0,1,183,8.42a10.45,10.45,0,0,1-1,4c-3,7.56-4.32,12.69-4.32,17.17,0,3.51.54,5.89,1.35,5.89.38,0,.71-.54,1.14-1.89.65-1.84,1.24-3.4,2.32-6.48,1.62-4.27,1.62-4.27,1.94-4.27a.46.46,0,0,1,.38.43c0,.17,0,.17-.27,1a49.05,49.05,0,0,0-2.7,13.87,7.29,7.29,0,0,0,.7,3.57,1.83,1.83,0,0,1,.27.92,1.77,1.77,0,0,1-1.56,1.78c-1,0-2.49-1.14-3.46-2.65-1.67-2.59-2.64-6.86-2.64-11.34,0-4.21.64-8.42,2.7-17a23.63,23.63,0,0,0,.91-5.78A5.93,5.93,0,0,0,177.07,3a.41.41,0,0,1-.17-.16c0-.11.17-.22.38-.22A7.23,7.23,0,0,1,180.68,4.32ZM205,23c.48,5.94.54,6.91.59,10.91,6.16,1.78,9.67,4.1,9.67,6.42A2.19,2.19,0,0,1,213,42.39c-.65,0-1.13-.32-1.89-1.24a16.88,16.88,0,0,0-5.67-4.54,7.06,7.06,0,0,1-1.94,4.16,9.32,9.32,0,0,1-6.65,2.32c-4.59,0-8-2.27-8-5.29s3.51-5,8.59-5a32.2,32.2,0,0,1,4.86.43c0-1.13,0-1.89,0-2.54,0-1.46-.11-5.34-.21-9a41.09,41.09,0,0,1-7.19.76c-3.13,0-4.64-1.13-4.64-3.62,0-1.51.43-2.81.86-2.81.22,0,.27.11.27.27a10.48,10.48,0,0,0,.11,1.68c.27,1.13,1.78,1.83,3.89,1.83a39.62,39.62,0,0,0,6.59-.81c-.16-6.53-.43-7.5-2.32-7.88-.38-.05-.49-.11-.49-.22,0-.37,1.51-1.24,2.27-1.24,1.51,0,4.05,1.19,4.05,1.84a2.28,2.28,0,0,1-.22.7,8.87,8.87,0,0,0-.65,4c0,.86,0,1.4.06,2.32,2.59-.6,3.94-1.14,3.94-1.62,0-.22-.43-.6-1.46-1.19-.32-.22-.38-.32-.38-.43a.36.36,0,0,1,.33-.27c.11,0,.11,0,1,.43a6.68,6.68,0,0,0,2.65.54,3.66,3.66,0,0,0,.81,0,2,2,0,0,1,.54-.06c.37,0,.7.49.7,1.08,0,1.78-2.54,3.13-7.94,4.27Zm-7.78,11.83c-3.72,0-6,1.18-6,3,0,1.46,1.46,2.32,4,2.32,4,0,6.05-1.19,6.7-3.78a9,9,0,0,0,.22-.92A20.11,20.11,0,0,0,197.26,34.78Zm-2.21-30c.54.81,1.24,1.13,2.81,1.13a18.45,18.45,0,0,0,7.23-1.89,2.15,2.15,0,0,1,1.3-.49c1,0,2.91,1.68,2.91,2.49,0,.43-.7.81-1.89,1.13a42.1,42.1,0,0,1-8.69,1.14c-1.84,0-2.75-.38-3.62-1.52a2.76,2.76,0,0,1-.7-1.56c0-.49.11-.76.32-.76Q194.81,4.48,195.05,4.81Zm26,3.29a5.43,5.43,0,1,1-5.35-5.4A5.44,5.44,0,0,1,221.08,8.1Zm-9,.05a3.51,3.51,0,1,0,3.46-3.51A3.5,3.5,0,0,0,212.11,8.15Z"/><path class="cls-1" d="M261.14,5.45C267,4,267,4,267.84,4a4,4,0,0,1,2.92,1.62,5.38,5.38,0,0,1,1.45,2.48c0,.65-.64,1.08-1.45,1.08a4.45,4.45,0,0,1-1.68-.38,14.42,14.42,0,0,0-3.94-.59,16.92,16.92,0,0,0-6.59,1.51c-2.86,1.4-5.83,5.24-7.13,9.23a37.49,37.49,0,0,0-1.56,10.86c0,6.64,2.54,9.18,9.34,9.18a17.16,17.16,0,0,0,3.89-.38,2.38,2.38,0,0,1,.7,0,2.71,2.71,0,0,1,2,.91,4.87,4.87,0,0,1,1,2.16c0,1.19-1.4,1.68-5,1.68-9.78,0-15.61-4.48-15.61-11.94a32.49,32.49,0,0,1,6.53-19,16.2,16.2,0,0,1,2.76-3.08.59.59,0,0,0,.27-.43.24.24,0,0,0-.22-.22c-3.08,0-14.09,4.32-17.66,6.91-1.51,1.08-2,1.3-2.91,1.3a7.33,7.33,0,0,1-4-2.22,6.34,6.34,0,0,1-1.14-3.83c0-.22.11-.38.33-.38s.21.06.32.27c.54,1.24,1.57,1.78,3.57,1.78a10.26,10.26,0,0,0,4.05-.86c8.37-2.48,12.63-3.67,18.25-4.91Zm7.73,15.66A2,2,0,0,1,267,23c-.49,0-.81-.27-1.25-1a8.7,8.7,0,0,0-5.29-4.32c-.38-.06-.43-.11-.43-.27s.65-.38,1.84-.38C265.36,17,268.87,19.06,268.87,21.11Zm5.61-2.91a2,2,0,0,1-1.89,2c-.48,0-.81-.22-1.13-.87a9.38,9.38,0,0,0-5.56-4.59c-.33-.05-.38-.11-.38-.21,0-.27.75-.44,1.94-.44C271,14.09,274.48,16.15,274.48,18.2Z"/><path class="cls-1" d="M312.17,5c0,.92-.32,1.51-1.45,2.59-3,2.76-9.08,10.7-11.67,15.18a10.89,10.89,0,0,0-1.35,2.59.48.48,0,0,0,.49.43.61.61,0,0,0,.59-.32c3.24-3.67,8-6.43,11.13-6.43a6.61,6.61,0,0,1,6.75,6.81,15.66,15.66,0,0,1-.38,3,44.19,44.19,0,0,0-1.14,8.1c0,2.81,1.19,4.1,3.73,4.1,4.91,0,9.07-3.4,11.45-9.39.11-.38.21-.49.32-.49s.43.27.43.6a17.82,17.82,0,0,1-2.32,6.58,12.44,12.44,0,0,1-10.37,5.46c-4.21,0-6.75-2.65-6.75-7.08a47.52,47.52,0,0,1,.87-7.61,20.51,20.51,0,0,0,.48-3.89c0-2.37-1.51-3.83-4.05-3.83s-5.61,1.62-9.34,5.07-5.61,8.37-6.26,16.2c-.16,1.41-.6,2.16-1.24,2.16a4.4,4.4,0,0,1-2.38-1.08,1.84,1.84,0,0,1-.65-1.56c0-5.83,6.54-19.66,15.93-33.7C306.67,6.05,307,5.24,307,4.27a3.26,3.26,0,0,0-3.34-3c-.22-.06-.33-.11-.33-.33,0-.38,1.41-.75,2.76-.75C308.93.22,312.17,2.81,312.17,5Z"/><path class="cls-1" d="M375.62,5.45C381.51,4,381.51,4,382.32,4a4,4,0,0,1,2.92,1.62,5.38,5.38,0,0,1,1.45,2.48c0,.65-.64,1.08-1.45,1.08a4.45,4.45,0,0,1-1.68-.38,14.42,14.42,0,0,0-3.94-.59A16.92,16.92,0,0,0,373,9.72c-2.86,1.4-5.83,5.24-7.13,9.23a37.49,37.49,0,0,0-1.56,10.86c0,6.64,2.54,9.18,9.34,9.18a17.16,17.16,0,0,0,3.89-.38,2.38,2.38,0,0,1,.7,0,2.71,2.71,0,0,1,2.05.91,4.87,4.87,0,0,1,1,2.16c0,1.19-1.4,1.68-5,1.68-9.78,0-15.61-4.48-15.61-11.94a32.49,32.49,0,0,1,6.53-19A16.2,16.2,0,0,1,370,9.29a.59.59,0,0,0,.27-.43.24.24,0,0,0-.22-.22C367,8.64,356,13,352.4,15.55c-1.51,1.08-2,1.3-2.91,1.3a7.33,7.33,0,0,1-4.05-2.22,6.34,6.34,0,0,1-1.14-3.83c0-.22.11-.38.33-.38s.21.06.32.27c.54,1.24,1.57,1.78,3.57,1.78a10.26,10.26,0,0,0,4.05-.86c8.37-2.48,12.63-3.67,18.25-4.91Zm7.73,15.66A2,2,0,0,1,381.46,23c-.49,0-.81-.27-1.25-1a8.7,8.7,0,0,0-5.29-4.32c-.38-.06-.43-.11-.43-.27s.65-.38,1.84-.38C379.84,17,383.35,19.06,383.35,21.11ZM389,18.2a2,2,0,0,1-1.89,2c-.48,0-.81-.22-1.13-.87a9.38,9.38,0,0,0-5.56-4.59c-.33-.05-.38-.11-.38-.21,0-.27.75-.44,1.94-.44C385.45,14.09,389,16.15,389,18.2Z"/><path class="cls-1" d="M426.65,5c0,.92-.32,1.51-1.45,2.59-3,2.76-9.08,10.7-11.67,15.18a10.89,10.89,0,0,0-1.35,2.59.48.48,0,0,0,.49.43.61.61,0,0,0,.59-.32c3.24-3.67,8-6.43,11.13-6.43a6.61,6.61,0,0,1,6.75,6.81,15.66,15.66,0,0,1-.38,3,44.19,44.19,0,0,0-1.14,8.1c0,2.81,1.19,4.1,3.73,4.1,4.91,0,9.07-3.4,11.45-9.39.11-.38.21-.49.32-.49s.43.27.43.6a17.82,17.82,0,0,1-2.32,6.58,12.44,12.44,0,0,1-10.37,5.46c-4.21,0-6.75-2.65-6.75-7.08a47.52,47.52,0,0,1,.87-7.61,20.51,20.51,0,0,0,.48-3.89c0-2.37-1.51-3.83-4-3.83s-5.61,1.62-9.34,5.07-5.61,8.37-6.26,16.2c-.16,1.41-.6,2.16-1.24,2.16a4.4,4.4,0,0,1-2.38-1.08,1.84,1.84,0,0,1-.65-1.56c0-5.83,6.54-19.66,15.93-33.7,1.68-2.48,2-3.29,2-4.26a3.26,3.26,0,0,0-3.34-3c-.22-.06-.33-.11-.33-.33,0-.38,1.41-.75,2.76-.75C423.41.22,426.65,2.81,426.65,5Z"/><path class="cls-1" d="M486.16,15.55a12.45,12.45,0,0,1,8-3.45c3.83,0,6.8,2.26,6.8,5.18a3.2,3.2,0,0,1-1.4,2.86c-1.14.87-1.46,1-6.48,3a93,93,0,0,0-11.56,5.24c.16,2.38.27,4.1.27,5,0,2.7-.54,3.4-2.7,3.4-.65,0-1-.22-1-.54a1.42,1.42,0,0,1,.05-.43,41.44,41.44,0,0,0,.27-5.83c-4.64,2.75-6.53,4.91-6.53,7.34C472,40,474.5,41,480.82,41a30.88,30.88,0,0,0,7.93-1,4.33,4.33,0,0,1,1.41-.27c1.13,0,2.59,1.24,2.59,2.21,0,1.78-3.56,2.7-10.91,2.7-4.1,0-6.53-.43-8.8-1.62a6.42,6.42,0,0,1-3.73-5.51,6.82,6.82,0,0,1,2.76-5.07,38.77,38.77,0,0,1,6.37-4.16c-.05-3.83-.22-5.62-.7-6.8a2.81,2.81,0,0,0-2.54-1.89,6.28,6.28,0,0,0-3.83,2,32.84,32.84,0,0,0-4.65,5.78c-.59,1-1.19,1.51-1.78,1.51-.81,0-1.89-1.78-1.89-3.18,0-.7.22-1.08,1.3-1.89,5.83-5.08,9.39-10.32,10.42-15.34a16.34,16.34,0,0,1-4.7.92,3.36,3.36,0,0,1-2.81-1.94,6.9,6.9,0,0,1-.81-2.06.24.24,0,0,1,.22-.21c.05,0,.16,0,.27.21a3.4,3.4,0,0,0,3.18,1.41A14.4,14.4,0,0,0,475,6a8.72,8.72,0,0,0,.16-1.51c0-1.78-.86-2.81-2.54-2.91-.21,0-.27-.06-.27-.22,0-.49,1.84-1.35,2.86-1.35,1.73,0,3.57,1.62,3.57,3.19a8.19,8.19,0,0,1-.43,2.05,7.8,7.8,0,0,0,3.45-1.84c1.84.92,2.38,1.3,2.38,1.73,0,.65-1.19,1.13-6.32,2.65a61.94,61.94,0,0,1-6.16,11.5,8.55,8.55,0,0,1,3.57-1,5.47,5.47,0,0,1,3.45,1.24c.87.81,1.35,1.73,2,3.83C482.71,19.39,484,17.44,486.16,15.55Zm2.32,7c5.19-2.86,6.27-3.51,6.92-4.05a3,3,0,0,0,1.08-1.89c0-1.35-1.62-2.7-3.3-2.7-2.81,0-6.48,2.54-8.58,6a27.29,27.29,0,0,0-3.19,6.64C483.57,25.27,484,25.06,488.48,22.57Z"/><path class="cls-1" d="M78.3,86.41H74.74v2.21c0,.6-1,1.08-2.16,1.08-.6,0-1-.32-1-.81V66.81l3.78,2.1h2.43a47.33,47.33,0,0,0,1-7.5l4.27.7c.64.11,1,.49,1,.92a1.48,1.48,0,0,1-.75,1.13L82.24,65l-2.32,3.94H85.1l1.3-2,3.08,2.92a1.29,1.29,0,0,1,.38.86,1,1,0,0,1-.6.81l-.86.49V87.65c0,1-1,1.68-2.43,1.68-.49,0-.7-.27-.7-.81V86.41H81.65v6.21H96.71l2.81-3.51,4.32,3.56c.38.27.54.54.54.76a.55.55,0,0,1-.59.49H83.05c5.29,5.34,13.29,9.07,22.47,10.36a14.65,14.65,0,0,0-4.16,4.22,44.22,44.22,0,0,1-11.13-5.67c-3.29-2.33-4.8-3.73-8.58-8.21v14.25a.83.83,0,0,1-.16.54,4.18,4.18,0,0,1-2.38.87.78.78,0,0,1-.81-.7V95.81c-6,5.13-9,7.12-14.8,9.93-3.29,1.62-6.8,3-7.66,3a.44.44,0,0,1-.49-.43c0-.27,0-.27,3.19-1.89A61.43,61.43,0,0,0,75.06,93.92H66.85c-3.72.1-5.4.1-9.93.27l-.71-1.89c2.6.1,4.86.16,5.78.21,2.38.06,4,.11,4.86.11H78.3Zm-7.94-6-8.75,7.18-.21,1c-.16.7-.6,1.13-1.08,1.13a1.14,1.14,0,0,1-.6-.21l-3.45-3.4C61,84,62.59,83.22,69.93,79.34ZM58.05,67c5.45,1.3,9.13,4.38,9.13,7.51a2.13,2.13,0,0,1-2,2.38,1.86,1.86,0,0,1-1.35-.6c-.38-.38-.38-.38-1.46-3.35a16,16,0,0,0-4.59-5.29ZM85.27,77v-6.8H74.74V77Zm0,8.1v-6.8H74.74v6.8Zm16-15.87a.62.62,0,0,1,.27.48c0,.27-.32.54-1,.71l-1.84.48L90.88,77.5c-.54.43-.81.59-1.08.59s-.43-.16-.43-.48.22-.6,2.38-3.35c1.45-2,2.86-3.94,5.72-8.21ZM90,79.07c4.37.7,6.32,1.29,8.42,2.53,2.27,1.3,3.46,2.81,3.46,4.32a2,2,0,0,1-1.89,2c-.7,0-.87-.16-3.67-3.4A22,22,0,0,0,89.91,80Z"/><path class="cls-1" d="M157.09,96.08c0,.91-1.25,2.91-3.08,5-4.27,4.75-9.13,7.13-14.8,7.13-3.83,0-6.86-1.14-9-3.41-2.26-2.43-3.24-5.61-3.24-10.53,0-3.24.06-3.94,1.08-18,.33-4.54.33-4.54.33-5.19,0-3.45-.81-4.91-2.65-4.91-.32,0-.48-.11-.48-.27,0-.59,1.13-1.08,2.37-1.08,2.76,0,5.4,3.13,5.4,6.48,0,.81,0,.86-.81,4.1a117.16,117.16,0,0,0-2.27,18.53c0,7.56,3,11,9.72,11a19.89,19.89,0,0,0,11.83-4.38,21.15,21.15,0,0,0,4.59-4.37c.22-.38.43-.54.65-.54A.45.45,0,0,1,157.09,96.08Z"/><path class="cls-1" d="M185,70.7c0-3.57-.54-4.43-2.75-4.54-.43,0-.49,0-.49-.22,0-.43,2.11-1.4,3-1.4a8.45,8.45,0,0,1,3.4,1.13,2.23,2.23,0,0,1,1.13,1.62,5.7,5.7,0,0,1-.37,1.52,26.5,26.5,0,0,0-.92,4.48c2.43-.92,3.24-1.46,3.83-2.49,1.68.11,3.24,1.14,3.24,2,0,.49-.27.7-1.29,1.19a38,38,0,0,1-6.32,2.32c-.38,2.81-.43,3.19-.81,5.89a2.45,2.45,0,0,1,1.89,2.32c0,.76-.43,2.48-1.73,6.8-1.51,5.19-2.05,7.67-2.05,9.67,0,2.48,1.89,3.62,6.1,3.62a32.09,32.09,0,0,0,10.37-1.89c1.83-.87,2.54-2.16,2.54-4.75,0-1.62-.06-2.27-.81-10.21-.38-3.56-.54-6.16-.54-7.78,0-3.45,1.4-5.23,4.1-5.23,4.91,0,11.18,5.13,11.18,9.18,0,1.78-1.46,3.78-2.7,3.78-.22,0-.38-.11-.54-.38-1.3-1.46-2.54-1.89-5.67-1.84-.43,0-.65-.11-.65-.38s.05-.27.49-.32a2.53,2.53,0,0,0,.64-.16c.76-.11,1.35-.27,1.95-.38,1.67-.32,2.21-.7,2.21-1.51a7.93,7.93,0,0,0-2.16-3.94c-1.56-1.68-3.56-2.76-5-2.76s-2.38,1.41-2.38,4.27a64.47,64.47,0,0,0,1.35,12.2c.81,3.67,1.52,5.24,2.87,6.43a3,3,0,0,1,.27,1.24c0,1.73-1.14,3.24-3.3,4.48-3,1.68-8,2.76-12.74,2.76-6.91,0-10.21-2.11-10.21-6.54a26.78,26.78,0,0,1,.65-4.53,2.86,2.86,0,0,1-2.11.81c-2.1,0-3.45-2.49-3.45-6.27,0-5.13,2.91-9.23,6.53-9.23a5.37,5.37,0,0,1,.81,0c.11-2.43.16-2.81.27-4.8a27,27,0,0,1-7,1.35c-1.73,0-2.48-.44-3.08-1.73a9.82,9.82,0,0,1-.81-3.84c0-.27.11-.43.33-.43s.16.06.27.27a3.72,3.72,0,0,0,3.89,2.92A26,26,0,0,0,185,74.21a17.86,17.86,0,0,1,.05-1.95Zm-4,14.68A12.63,12.63,0,0,0,179.77,91c0,2.11.81,3.56,1.94,3.56s1.57-.75,1.89-2.59c.43-2.32,1-6.26,1-6.75,0-1.08-.38-1.73-1.08-1.83S181.6,84.25,181,85.38Z"/><path class="cls-1" d="M242.51,87.87a17.16,17.16,0,0,1-1.18,6.53c-1.3,3.13-4.32,5.67-6.75,5.67a2.81,2.81,0,0,1-2.33-2.37c0-.81.27-1,2.06-1.84a13.35,13.35,0,0,0,7.29-8.15c.05-.27.16-.33.37-.33C242.35,87.38,242.51,87.54,242.51,87.87ZM253.58,81c0,1.08,0,3.56.06,7.45l.11,6.05c.05,1.89.05,3.78.1,4,.06,1,.06,1.94.06,2.48a5.2,5.2,0,0,1-1.89,4.27,5,5,0,0,1-3.08,1.46c-.54,0-.76-.33-.81-1.19-.16-2.43-1-3.78-3.62-6-.21-.22-.32-.33-.32-.49a.63.63,0,0,1,.54-.49c.21,0,.54.17,1.29.65,2,1.3,2.49,1.57,3.08,1.57,1.3,0,1.3,0,1.35-11,.06-4.86.11-7.29.11-7.29V81.06a48.74,48.74,0,0,0-11.34,2.38,4.42,4.42,0,0,1-1.51.38,6,6,0,0,1-2.43-1,4.27,4.27,0,0,1-2.22-3.68q0-.48.33-.48c.11,0,.27.11.43.32.76,1,2,1.3,4.64,1.3a115.79,115.79,0,0,0,12-1c-.06-8.21-.33-8.8-3.41-9.18-.32,0-.48-.11-.48-.21,0-.54,2-1.62,3-1.62a6.8,6.8,0,0,1,4,1.62c.86.7,1.35,1.24,1.35,1.56a1.3,1.3,0,0,1-.16.54c-.71,1.14-.87,2.05-1.14,6.86,6.1-.49,9.4-1.08,11.18-1.94,1.08-.6,1.08-.6,1.46-.6.75,0,1.51.38,3.29,1.57,1.24.81,1.62,1.24,1.62,1.83A1.4,1.4,0,0,1,270,81a7.64,7.64,0,0,1-1-.11,52.88,52.88,0,0,0-7.93-.59c-2.27,0-5.4.21-7.46.43Zm10,7.29c4.53,2.7,7.18,5.89,7.18,8.64a2.72,2.72,0,0,1-2.54,3c-1,0-1.35-.38-1.94-2.65-1-4.1-4.86-8.8-8.26-10-.27-.11-.38-.22-.38-.38s.27-.43.59-.43A12.79,12.79,0,0,1,263.63,88.3Zm9.29-20.36a5.3,5.3,0,1,1-5.24-5.29A5.3,5.3,0,0,1,272.92,67.94Zm-8.75,0a3.46,3.46,0,1,0,3.4-3.45A3.48,3.48,0,0,0,264.17,67.94Z"/><path class="cls-1" d="M310.55,81.82c2.76,1.24,2.76,1.24,2.76,1.78a1.91,1.91,0,0,1-.22.76,12,12,0,0,0-.48,4.32l.1,5.51v6.15l.06,3.73c.05.7.05,1.35.05,1.78,0,1.4-.48,2.21-1.29,2.21-1.62,0-3.51-1.4-3.51-2.64a4.25,4.25,0,0,1,.16-1,173.91,173.91,0,0,0,1.29-18.68,5.58,5.58,0,0,0-.64-3.19,69.17,69.17,0,0,1-14,11.13,24.42,24.42,0,0,1-6,2.53c-.21,0-.54-.21-.54-.43s.11-.27.54-.43C297.32,91.43,314,74.37,314,69.62c0-.54-1-1.52-1.78-1.68-.49-.11-.6-.21-.6-.43,0-.38,1.14-.76,2.22-.76,2,0,6.1,2.92,6.1,4.38,0,.38-.16.54-.65.81a3.88,3.88,0,0,0-1.94,1.62,89.13,89.13,0,0,1-7.51,7.94Z"/><path class="cls-1" d="M363.1,78.58a2.26,2.26,0,0,1-2.49,2.32c-.7,0-1.08-.27-1.62-1.24A11.91,11.91,0,0,0,350.68,73c-.33-.11-.49-.22-.49-.38,0-.38,1-.65,2.54-.65C357.91,72,363.1,75.29,363.1,78.58Zm-7,24c-.81,0-2.6-1.3-3.89-2.81a4,4,0,0,1-1.35-3.4c0-1,.27-1.84.65-1.84.21,0,.32.11.43.38a3.81,3.81,0,0,0,3.24,2.75c2.21,0,8.75-4,16.58-10.26a105.08,105.08,0,0,0,10.09-9c1.08-1.08,4-4.42,4.54-5.07s.65-.87.92-.87a.44.44,0,0,1,.43.49c0,.86-2.38,4.54-5.08,7.83A84,84,0,0,1,371.09,92.4a82.19,82.19,0,0,1-12.85,8.86C357.21,102.18,356.62,102.56,356.08,102.56Z"/><path class="cls-1" d="M421.2,83.06c.05,9.67.16,14.8.43,18.42.11,1.13.16,1.94.16,2.43,0,2.26-.81,3.94-1.94,3.94s-2.86-2.43-2.86-3.78a7.31,7.31,0,0,1,.16-1.41c.43-3,.86-15,.86-25.75,0-5.08-.21-6.92-.86-8a2.72,2.72,0,0,0-2.59-1.35c-.38,0-.54-.16-.54-.48s.16-.38.48-.54a15.57,15.57,0,0,1,3.3-.87c.81,0,1.56.38,3.94,1.89.7.49,1,.87,1,1.25a2.93,2.93,0,0,1-.27,1c-.87,1.46-1.19,4-1.3,10a23,23,0,0,1,11.34,3.51c2.92,2,4.27,3.72,4.27,5.45a2.22,2.22,0,0,1-2.27,2.38c-1.19,0-1.78-.49-3.13-2.54a19.43,19.43,0,0,0-10.21-7.94Z"/></g></g></svg>