<svg xmlns="http://www.w3.org/2000/svg" viewBox="0 0 588 32.58"><defs><style>.cls-1{isolation:isolate;}.cls-2{fill:#333;}</style></defs><title>osanpo-enjpy-more-title</title><g id="Layer_2" data-name="Layer 2"><g id="Layer_1-2" data-name="Layer 1"><g class="cls-1"><path class="cls-2" d="M10.15,18.79l0-2.34c0-.4,0-1.15,0-2.16a11.42,11.42,0,0,1-4.42.94,2,2,0,0,1-1.91-.94,2,2,0,0,1-.43-1.08c0-.72.11-1.12.29-1.12s.11,0,.14.18c.11.58,1,1,2.38,1a9.26,9.26,0,0,0,4-.87,48.38,48.38,0,0,0-.21-5.22c-.18-1.22-.65-1.73-1.58-1.73a1.53,1.53,0,0,0-.44,0,1.09,1.09,0,0,1-.32,0c-.11,0-.14-.08-.14-.18,0-.69,1.15-1.55,2.05-1.55,1.19,0,3.16,1.33,3.16,2.12a3.13,3.13,0,0,1-.18.69,6.6,6.6,0,0,0-.36,1.69,11,11,0,0,0,3.82,1.11l.83,0c.32,0,.64.43.64.93,0,1.23-1.51,2.2-5.65,3.6,0,1.44-.07,2.45-.07,3.28,0,.36,0,1.15,0,2,3.92-2.31,7.09-3.39,10-3.39a5.68,5.68,0,0,1,5.91,6A7.18,7.18,0,0,1,20,29.19c-2.95,0-4.71-1.83-4.71-4.89,0-1.26.46-2.7.9-2.7.1,0,.21.07.21.14a1,1,0,0,1-.11.4,10,10,0,0,0-.18,1.72,3.92,3.92,0,0,0,1.26,2.67,4.11,4.11,0,0,0,2.41.79,5.2,5.2,0,0,0,5.18-5.51c0-3-1.54-4.6-4.35-4.6-2.52,0-4.78.82-8.85,3.27v1.05A52.59,52.59,0,0,0,12,26.82a11.66,11.66,0,0,1,.11,1.33,2.82,2.82,0,0,1-2.67,2.41c-.25,0-.36-.14-.36-.47a7.39,7.39,0,0,0-3.63-5.33,10.82,10.82,0,0,0-2,1.73,1.19,1.19,0,0,1-.87.51A3.47,3.47,0,0,1,0,24.4c0-.61.32-.82,1.22-.82,2.38-.08,3-.25,4.18-1,.11-.07.79-.47,1.47-.82l3.28-1.88Zm0,4.43c0-.22,0-.29,0-2a26.88,26.88,0,0,0-4.1,3.13,22.94,22.94,0,0,1,2.7,2.05c.43.36.65.47.86.47s.54-.47.54-1.41Zm4.17-12.89c0-.18-.11-.29-.76-.65s-.89-.5-1.69-1c-.1,1-.1,1.58-.14,3.35C13.28,11.52,14.32,10.8,14.32,10.33Zm8.42.79a1.72,1.72,0,0,1-.54.18A.3.3,0,0,1,22,11c0-.57,2.62-1.44,4.32-1.44a6.59,6.59,0,0,1,4.64,1.73A4.91,4.91,0,0,1,32.17,14a1.9,1.9,0,0,1-1.91,1.76c-.36,0-.47-.18-.72-1.29a5.84,5.84,0,0,0-1.73-2.45,5.26,5.26,0,0,0-3.27-1.19A7.11,7.11,0,0,0,22.74,11.12Z"/><path class="cls-2" d="M51.46,3.38c-.65,0-1.44.4-1.44.72,0,.11,0,.18.29.4.75.75,1.69,1.8,4,4.57,2-.72,3.31-1.58,3.31-2.09,0-.25-.43-.65-1.4-1.26-.33-.18-.4-.25-.4-.36s.11-.14.21-.14a.64.64,0,0,1,.26.07A8.27,8.27,0,0,0,59.09,6a2.6,2.6,0,0,0,.57,0c.29,0,.47-.07.58-.07A1.56,1.56,0,0,1,61.53,7c0,.5-.5,1-1.51,1.65a30.69,30.69,0,0,1-4.46,1.95,28.87,28.87,0,0,1,5.25,6.69,10.45,10.45,0,0,1,1.37,3.89,3.33,3.33,0,0,1-2.66,2.95c-.25,0-.43-.11-.76-.5A11,11,0,0,0,50.6,20c-3.28,0-5.51,1.73-5.51,4.32A3.39,3.39,0,0,0,47,27.57a12.9,12.9,0,0,0,5.65,1.15A10.33,10.33,0,0,0,55,28.51a3.7,3.7,0,0,1,.86-.15,2.06,2.06,0,0,1,1.83,1.7c0,.82-1.4,1.29-3.88,1.29a17.43,17.43,0,0,1-7.56-1.62,5.79,5.79,0,0,1-3.34-5.18c0-3.38,3-5.76,7.23-5.76A13.93,13.93,0,0,1,57,20.84a2.63,2.63,0,0,0,1.33.47.9.9,0,0,0,.9-.9,13.48,13.48,0,0,0-1.59-4.5,30.07,30.07,0,0,0-3.38-4.86C50.24,12.45,48,13,46,13a4.75,4.75,0,0,1-3.82-2.05,7.37,7.37,0,0,1-1.15-2.34.37.37,0,0,1,.4-.33c.18,0,.25.07.36.36A4.15,4.15,0,0,0,46,10.91a22,22,0,0,0,7-1.37,22.39,22.39,0,0,0-5.58-4.68c-.5-.29-.68-.5-.68-.79,0-.76,1.44-1.73,2.59-1.73s3.09.5,3.09.86c0,.11-.1.26-.18.26a.25.25,0,0,1-.14,0Z"/><path class="cls-2" d="M90.54,5.08c0,.61-.21,1-1,1.72A60.43,60.43,0,0,0,81.8,16.92a7,7,0,0,0-.9,1.73.31.31,0,0,0,.32.28.42.42,0,0,0,.4-.21c2.16-2.45,5.32-4.29,7.41-4.29A4.41,4.41,0,0,1,93.53,19a10.43,10.43,0,0,1-.25,2,29.09,29.09,0,0,0-.76,5.39c0,1.88.79,2.74,2.48,2.74,3.28,0,6-2.27,7.63-6.26.07-.26.15-.33.22-.33s.28.18.28.4a12.07,12.07,0,0,1-1.54,4.39A8.31,8.31,0,0,1,94.68,31c-2.81,0-4.5-1.77-4.5-4.72a31.49,31.49,0,0,1,.58-5.07,14,14,0,0,0,.32-2.6A2.42,2.42,0,0,0,88.38,16c-1.72,0-3.74,1.08-6.22,3.38S78.42,25,78,30.2c-.1.94-.39,1.44-.82,1.44a3,3,0,0,1-1.59-.72,1.26,1.26,0,0,1-.43-1c0-3.89,4.36-13.11,10.62-22.46,1.11-1.66,1.36-2.2,1.36-2.85a2.18,2.18,0,0,0-2.23-2c-.14,0-.21-.07-.21-.21s.93-.51,1.83-.51C88.38,1.87,90.54,3.6,90.54,5.08Z"/><path class="cls-2" d="M118.79,4.61a3.93,3.93,0,0,1,1.55,2.73,7.05,7.05,0,0,1-.65,2.67c-2,5-2.87,8.46-2.87,11.44,0,2.34.36,3.93.89,3.93.26,0,.47-.36.76-1.26.43-1.23.83-2.27,1.55-4.32C121.1,17,121.1,17,121.31,17a.31.31,0,0,1,.25.29c0,.11,0,.11-.18.65a32.73,32.73,0,0,0-1.79,9.25,4.87,4.87,0,0,0,.46,2.38,1.16,1.16,0,0,1,.18.61,1.18,1.18,0,0,1-1,1.19,3.51,3.51,0,0,1-2.3-1.77A14.72,14.72,0,0,1,115.12,22c0-2.8.44-5.61,1.8-11.34a15.78,15.78,0,0,0,.62-3.85,3.92,3.92,0,0,0-1.16-3.09.26.26,0,0,1-.1-.11c0-.07.1-.14.25-.14A4.73,4.73,0,0,1,118.79,4.61ZM135,17c.33,4,.36,4.6.4,7.27,4.1,1.18,6.44,2.73,6.44,4.28a1.46,1.46,0,0,1-1.51,1.4c-.43,0-.76-.21-1.26-.82a11.26,11.26,0,0,0-3.78-3A4.59,4.59,0,0,1,134,28.9a6.16,6.16,0,0,1-4.42,1.55c-3.06,0-5.33-1.51-5.33-3.53s2.34-3.34,5.72-3.34a21.64,21.64,0,0,1,3.24.28c0-.75,0-1.26,0-1.69,0-1-.07-3.56-.14-6a27.57,27.57,0,0,1-4.79.51c-2.09,0-3.1-.76-3.1-2.42,0-1,.29-1.87.58-1.87s.18.07.18.18a7.57,7.57,0,0,0,.07,1.12c.18.75,1.19,1.22,2.59,1.22a26.34,26.34,0,0,0,4.39-.54c-.11-4.35-.29-5-1.54-5.25-.26,0-.33-.08-.33-.15,0-.25,1-.83,1.51-.83,1,0,2.7.8,2.7,1.23a1.35,1.35,0,0,1-.14.47,5.88,5.88,0,0,0-.43,2.66c0,.58,0,.94,0,1.55,1.73-.4,2.63-.76,2.63-1.08,0-.15-.29-.4-1-.79-.22-.15-.26-.22-.26-.29a.24.24,0,0,1,.22-.18c.07,0,.07,0,.65.29a4.48,4.48,0,0,0,1.76.36,2,2,0,0,0,.54,0,1.34,1.34,0,0,1,.36,0c.25,0,.47.33.47.72,0,1.19-1.69,2.09-5.29,2.85Zm-5.18,7.88c-2.48,0-4,.79-4,2,0,1,1,1.55,2.66,1.55,2.66,0,4-.79,4.46-2.52a5.74,5.74,0,0,0,.15-.61A13.43,13.43,0,0,0,129.84,24.91Zm-1.47-20c.35.54.82.76,1.87.76a12.26,12.26,0,0,0,4.82-1.26c.47-.29.61-.33.86-.33.65,0,1.94,1.12,1.94,1.66,0,.29-.46.54-1.26.75a27.5,27.5,0,0,1-5.79.76,2.56,2.56,0,0,1-2.41-1,1.85,1.85,0,0,1-.47-1c0-.32.08-.51.22-.51S128.26,4.79,128.37,4.93Zm17.34,2.2a3.62,3.62,0,1,1-3.56-3.6A3.63,3.63,0,0,1,145.71,7.13Zm-6,0A2.34,2.34,0,1,0,142,4.82,2.34,2.34,0,0,0,139.73,7.16Z"/><path class="cls-2" d="M173.85,5.36c3.92-1,3.92-1,4.46-1a2.65,2.65,0,0,1,1.95,1.08,3.57,3.57,0,0,1,1,1.66c0,.43-.43.72-1,.72a2.87,2.87,0,0,1-1.12-.26,9.74,9.74,0,0,0-2.63-.39,11.2,11.2,0,0,0-4.39,1c-1.9.93-3.88,3.49-4.74,6.15a24.84,24.84,0,0,0-1,7.24c0,4.42,1.69,6.12,6.23,6.12a11.09,11.09,0,0,0,2.59-.26A2.06,2.06,0,0,1,177,28a3.19,3.19,0,0,1,.65,1.44c0,.79-.94,1.12-3.31,1.12-6.51,0-10.4-3-10.4-8A21.64,21.64,0,0,1,168.28,10a11,11,0,0,1,1.83-2.05.39.39,0,0,0,.18-.29.15.15,0,0,0-.14-.14c-2.05,0-9.4,2.88-11.77,4.6-1,.72-1.33.87-1.94.87a4.9,4.9,0,0,1-2.7-1.48A4.2,4.2,0,0,1,153,8.93c0-.15.07-.26.22-.26s.14,0,.22.18c.36.83,1,1.19,2.37,1.19a6.93,6.93,0,0,0,2.7-.57c5.58-1.66,8.42-2.45,12.16-3.28ZM179,15.8a1.33,1.33,0,0,1-1.26,1.26c-.33,0-.54-.18-.83-.68a5.81,5.81,0,0,0-3.53-2.88c-.25,0-.28-.07-.28-.18s.43-.25,1.22-.25C176.66,13.07,179,14.43,179,15.8Zm3.74-1.94a1.32,1.32,0,0,1-1.26,1.33c-.32,0-.54-.14-.76-.58a6.25,6.25,0,0,0-3.7-3.06c-.22,0-.25-.07-.25-.14s.5-.29,1.29-.29C180.4,11.12,182.74,12.49,182.74,13.86Z"/><path class="cls-2" d="M208.76,5.08c0,.61-.22,1-1,1.72A60.43,60.43,0,0,0,200,16.92a7,7,0,0,0-.9,1.73.31.31,0,0,0,.32.28.42.42,0,0,0,.4-.21c2.16-2.45,5.32-4.29,7.41-4.29a4.41,4.41,0,0,1,4.5,4.54,10.43,10.43,0,0,1-.25,2,29.09,29.09,0,0,0-.76,5.39c0,1.88.79,2.74,2.48,2.74,3.28,0,6.05-2.27,7.63-6.26.07-.26.14-.33.22-.33s.28.18.28.4a12.07,12.07,0,0,1-1.54,4.39A8.31,8.31,0,0,1,212.9,31c-2.81,0-4.5-1.77-4.5-4.72a31.49,31.49,0,0,1,.58-5.07,14,14,0,0,0,.32-2.6A2.42,2.42,0,0,0,206.6,16c-1.72,0-3.74,1.08-6.22,3.38S196.64,25,196.2,30.2c-.1.94-.39,1.44-.82,1.44a2.93,2.93,0,0,1-1.59-.72,1.26,1.26,0,0,1-.43-1c0-3.89,4.35-13.11,10.62-22.46,1.11-1.66,1.36-2.2,1.36-2.85a2.18,2.18,0,0,0-2.23-2c-.14,0-.21-.07-.21-.21s.93-.51,1.83-.51C206.6,1.87,208.76,3.6,208.76,5.08Z"/><path class="cls-2" d="M252.48,5.36c3.93-1,3.93-1,4.47-1a2.65,2.65,0,0,1,1.94,1.08,3.57,3.57,0,0,1,1,1.66c0,.43-.43.72-1,.72a2.94,2.94,0,0,1-1.12-.26,9.67,9.67,0,0,0-2.62-.39,11.12,11.12,0,0,0-4.39,1c-1.91.93-3.89,3.49-4.75,6.15a24.84,24.84,0,0,0-1,7.24c0,4.42,1.7,6.12,6.23,6.12a11.09,11.09,0,0,0,2.59-.26,1.82,1.82,0,0,1,.47,0,1.79,1.79,0,0,1,1.37.61,3.27,3.27,0,0,1,.64,1.44c0,.79-.93,1.12-3.31,1.12-6.51,0-10.4-3-10.4-8A21.64,21.64,0,0,1,246.91,10a11,11,0,0,1,1.83-2.05.37.37,0,0,0,.18-.29.15.15,0,0,0-.14-.14c-2.05,0-9.39,2.88-11.77,4.6-1,.72-1.33.87-1.94.87a5,5,0,0,1-2.7-1.48,4.2,4.2,0,0,1-.75-2.55c0-.15.07-.26.21-.26s.15,0,.22.18c.36.83,1,1.19,2.37,1.19a6.9,6.9,0,0,0,2.7-.57c5.58-1.66,8.42-2.45,12.16-3.28Zm5.15,10.44a1.32,1.32,0,0,1-1.26,1.26c-.32,0-.54-.18-.83-.68A5.81,5.81,0,0,0,252,13.5c-.25,0-.29-.07-.29-.18s.43-.25,1.22-.25C255.29,13.07,257.63,14.43,257.63,15.8Zm3.74-1.94a1.31,1.31,0,0,1-1.26,1.33c-.32,0-.54-.14-.75-.58a6.28,6.28,0,0,0-3.71-3.06c-.21,0-.25-.07-.25-.14s.5-.29,1.29-.29C259,11.12,261.37,12.49,261.37,13.86Z"/><path class="cls-2" d="M287.39,5.08c0,.61-.21,1-1,1.72a60.43,60.43,0,0,0-7.77,10.12,7,7,0,0,0-.9,1.73.31.31,0,0,0,.33.28.41.41,0,0,0,.39-.21c2.16-2.45,5.33-4.29,7.41-4.29a4.41,4.41,0,0,1,4.5,4.54,10.43,10.43,0,0,1-.25,2,29.09,29.09,0,0,0-.76,5.39c0,1.88.79,2.74,2.49,2.74,3.27,0,6-2.27,7.62-6.26.07-.26.15-.33.22-.33s.29.18.29.4a11.92,11.92,0,0,1-1.55,4.39A8.29,8.29,0,0,1,291.53,31c-2.81,0-4.5-1.77-4.5-4.72a31.49,31.49,0,0,1,.58-5.07,14,14,0,0,0,.32-2.6,2.42,2.42,0,0,0-2.7-2.55c-1.72,0-3.74,1.08-6.22,3.38s-3.74,5.58-4.17,10.8c-.11.94-.4,1.44-.83,1.44a2.91,2.91,0,0,1-1.58-.72,1.24,1.24,0,0,1-.44-1c0-3.89,4.36-13.11,10.62-22.46,1.11-1.66,1.37-2.2,1.37-2.85a2.19,2.19,0,0,0-2.23-2c-.15,0-.22-.07-.22-.21s.93-.51,1.83-.51C285.23,1.87,287.39,3.6,287.39,5.08Z"/><path class="cls-2" d="M326.87,12.09a8.3,8.3,0,0,1,5.36-2.3c2.56,0,4.54,1.51,4.54,3.46a2.12,2.12,0,0,1-.94,1.9c-.75.58-1,.65-4.32,2a64.76,64.76,0,0,0-7.7,3.49c.11,1.59.18,2.74.18,3.32,0,1.8-.36,2.26-1.79,2.26-.44,0-.65-.14-.65-.36a1,1,0,0,1,0-.28,27.2,27.2,0,0,0,.18-3.89c-3.09,1.83-4.35,3.27-4.35,4.89,0,1.8,1.69,2.52,5.9,2.52a20.78,20.78,0,0,0,5.29-.64,2.76,2.76,0,0,1,.94-.18,1.92,1.92,0,0,1,1.72,1.47c0,1.19-2.37,1.8-7.27,1.8a11.84,11.84,0,0,1-5.86-1.08,4.27,4.27,0,0,1-2.48-3.67,4.54,4.54,0,0,1,1.83-3.38,26.44,26.44,0,0,1,4.25-2.78,13.92,13.92,0,0,0-.47-4.53,1.87,1.87,0,0,0-1.69-1.26A4.21,4.21,0,0,0,317,16.16,21.74,21.74,0,0,0,313.92,20c-.4.69-.79,1-1.19,1s-1.26-1.19-1.26-2.12c0-.47.15-.72.87-1.26,3.88-3.39,6.26-6.88,6.94-10.22a11.18,11.18,0,0,1-3.13.61,2.24,2.24,0,0,1-1.87-1.3,4.68,4.68,0,0,1-.54-1.37.15.15,0,0,1,.14-.14s.11,0,.18.14a2.28,2.28,0,0,0,2.13.94,9.57,9.57,0,0,0,3.27-.58,6.26,6.26,0,0,0,.11-1,1.7,1.7,0,0,0-1.69-1.94c-.15,0-.18,0-.18-.14,0-.33,1.22-.9,1.9-.9A2.47,2.47,0,0,1,322,3.85a5.49,5.49,0,0,1-.29,1.37A5.25,5.25,0,0,0,324,4c1.23.61,1.59.86,1.59,1.15s-.79.75-4.21,1.76a42,42,0,0,1-4.1,7.67,5.57,5.57,0,0,1,2.37-.65,3.63,3.63,0,0,1,2.3.83,5.13,5.13,0,0,1,1.33,2.55A14.67,14.67,0,0,1,326.87,12.09Zm1.55,4.68a38.41,38.41,0,0,0,4.61-2.7,2,2,0,0,0,.71-1.26,2.17,2.17,0,0,0-2.19-1.8c-1.87,0-4.32,1.7-5.72,4a18,18,0,0,0-2.12,4.43C325.14,18.57,325.4,18.43,328.42,16.77Z"/><path class="cls-2" d="M361.13,16.67h-2.37v1.47c0,.4-.65.72-1.44.72-.4,0-.65-.21-.65-.54V3.6L359.19,5h1.62a31.69,31.69,0,0,0,.68-5l2.84.47c.44.07.69.32.69.61a1,1,0,0,1-.51.75l-.75.55L362.21,5h3.46l.86-1.37,2.05,2a.86.86,0,0,1,.25.58.66.66,0,0,1-.39.54l-.58.32V17.49c0,.65-.68,1.12-1.62,1.12-.32,0-.47-.18-.47-.54v-1.4h-2.41V20.8h10l1.87-2.33,2.88,2.37c.25.18.36.36.36.5a.36.36,0,0,1-.39.33H364.3c3.52,3.56,8.85,6,15,6.91a9.74,9.74,0,0,0-2.77,2.81,29.54,29.54,0,0,1-7.42-3.78,25.73,25.73,0,0,1-5.72-5.47v9.5a.55.55,0,0,1-.1.36,2.83,2.83,0,0,1-1.59.58.52.52,0,0,1-.54-.47V22.93a39.69,39.69,0,0,1-9.86,6.62,22,22,0,0,1-5.11,2,.29.29,0,0,1-.32-.29c0-.18,0-.18,2.12-1.26a40.65,40.65,0,0,0,11-8.31H353.5c-2.48.07-3.59.07-6.62.18l-.46-1.26,3.85.14c1.58,0,2.66.07,3.23.07h7.63Zm-5.29-4L350,17.42l-.14.69c-.11.46-.4.75-.72.75a.74.74,0,0,1-.39-.14l-2.31-2.27c3.13-1.37,4.21-1.91,9.1-4.5Zm-8.2-8.89c3.63.87,6.08,2.92,6.08,5a1.42,1.42,0,0,1-1.29,1.58,1.18,1.18,0,0,1-.9-.4c-.26-.25-.26-.25-1-2.23a10.66,10.66,0,0,0-3.05-3.53Zm18.13,6.66V5.87h-7V10.4Zm0,5.4V11.27h-7V15.8ZM376.46,5.22a.41.41,0,0,1,.18.32c0,.18-.22.36-.68.47l-1.23.32-5.21,4.4c-.36.28-.54.39-.72.39s-.29-.11-.29-.32.14-.4,1.58-2.23c1-1.34,1.91-2.63,3.82-5.47Zm-7.52,6.55c2.91.47,4.21.86,5.61,1.69s2.31,1.87,2.31,2.88a1.32,1.32,0,0,1-1.26,1.33c-.47,0-.58-.1-2.45-2.26a14.46,14.46,0,0,0-4.28-3Z"/><path class="cls-2" d="M411.12,23.11c0,.61-.83,1.94-2.05,3.35-2.85,3.16-6.08,4.75-9.86,4.75a7.92,7.92,0,0,1-6-2.27c-1.51-1.62-2.16-3.74-2.16-7,0-2.16,0-2.63.72-12,.22-3,.22-3,.22-3.46,0-2.3-.54-3.27-1.77-3.27-.21,0-.32-.07-.32-.18,0-.4.75-.72,1.58-.72,1.84,0,3.6,2.09,3.6,4.32a9.55,9.55,0,0,1-.54,2.73A78.1,78.1,0,0,0,393,21.67c0,5,2,7.31,6.48,7.31a13.27,13.27,0,0,0,7.88-2.92,14.11,14.11,0,0,0,3.05-2.92c.15-.25.29-.35.44-.35A.29.29,0,0,1,411.12,23.11Z"/><path class="cls-2" d="M430.09,6.19c0-2.37-.36-2.95-1.84-3-.29,0-.32,0-.32-.15,0-.28,1.4-.93,2-.93a5.71,5.71,0,0,1,2.27.75A1.48,1.48,0,0,1,433,3.92a3.58,3.58,0,0,1-.25,1,18.9,18.9,0,0,0-.61,3c1.62-.61,2.16-1,2.56-1.66,1.11.07,2.15.76,2.15,1.33,0,.33-.18.47-.86.8a25,25,0,0,1-4.21,1.54c-.25,1.88-.29,2.13-.54,3.93a1.63,1.63,0,0,1,1.26,1.55,24.63,24.63,0,0,1-1.15,4.53c-1,3.46-1.37,5.11-1.37,6.44,0,1.66,1.26,2.42,4.07,2.42a21.57,21.57,0,0,0,6.91-1.26c1.22-.58,1.69-1.44,1.69-3.17,0-1.08,0-1.51-.54-6.8-.25-2.38-.36-4.11-.36-5.19,0-2.3.93-3.49,2.73-3.49,3.28,0,7.45,3.42,7.45,6.12,0,1.19-1,2.52-1.8,2.52-.14,0-.25-.07-.36-.25-.86-1-1.69-1.26-3.78-1.23-.28,0-.43-.07-.43-.25s0-.18.33-.21a2,2,0,0,0,.43-.11c.5-.07.9-.18,1.29-.25,1.12-.22,1.48-.47,1.48-1a5.39,5.39,0,0,0-1.44-2.63,5.27,5.27,0,0,0-3.35-1.84c-1,0-1.58.94-1.58,2.85a42.17,42.17,0,0,0,.9,8.13c.54,2.45,1,3.49,1.91,4.29a2,2,0,0,1,.18.82c0,1.16-.76,2.16-2.2,3A18.82,18.82,0,0,1,435,30.67c-4.61,0-6.8-1.41-6.8-4.36a17.32,17.32,0,0,1,.43-3,1.89,1.89,0,0,1-1.4.54c-1.41,0-2.31-1.66-2.31-4.18,0-3.42,2-6.15,4.36-6.15a4,4,0,0,1,.54,0c.07-1.62.11-1.87.18-3.2a17.84,17.84,0,0,1-4.68.9c-1.15,0-1.65-.29-2.05-1.15a6.57,6.57,0,0,1-.54-2.56c0-.18.07-.29.22-.29s.1,0,.18.19a2.48,2.48,0,0,0,2.59,1.94,17.4,17.4,0,0,0,4.35-.83,10,10,0,0,1,0-1.3ZM427.42,16a8.51,8.51,0,0,0-.82,3.75c0,1.4.53,2.37,1.29,2.37s1.05-.5,1.26-1.73c.29-1.54.68-4.17.68-4.5,0-.72-.25-1.15-.71-1.22S427.82,15.23,427.42,16Z"/><path class="cls-2" d="M469.31,17.64a11.41,11.41,0,0,1-.79,4.35c-.86,2.09-2.88,3.78-4.5,3.78a1.87,1.87,0,0,1-1.54-1.58c0-.54.18-.69,1.36-1.23a8.87,8.87,0,0,0,4.86-5.43c0-.18.11-.22.25-.22S469.31,17.42,469.31,17.64Zm7.38-4.57c0,.72,0,2.37,0,5l.08,4c0,1.27,0,2.52.07,2.7,0,.69,0,1.3,0,1.66a3.45,3.45,0,0,1-1.26,2.84,3.29,3.29,0,0,1-2.05,1c-.36,0-.5-.22-.54-.8-.1-1.62-.64-2.52-2.41-4-.14-.15-.21-.22-.21-.33a.42.42,0,0,1,.36-.32c.14,0,.36.11.86.43,1.33.87,1.66,1.05,2.05,1.05.87,0,.87,0,.9-7.31,0-3.24.07-4.86.07-4.86v-1a32.39,32.39,0,0,0-7.55,1.59,3,3,0,0,1-1,.25,4.06,4.06,0,0,1-1.62-.65A2.83,2.83,0,0,1,463,11.84c0-.21.07-.32.21-.32a.47.47,0,0,1,.29.21c.5.65,1.33.87,3.09.87a77.25,77.25,0,0,0,8-.69c0-5.47-.22-5.86-2.27-6.12-.22,0-.32-.07-.32-.14,0-.36,1.33-1.08,2-1.08a4.53,4.53,0,0,1,2.66,1.08c.58.47.9.83.9,1a.78.78,0,0,1-.1.35c-.47.76-.58,1.37-.76,4.58,4.07-.33,6.26-.72,7.45-1.3.72-.4.72-.4,1-.4.5,0,1,.26,2.2,1.05.82.54,1.08.83,1.08,1.22a.94.94,0,0,1-.87.87,5.6,5.6,0,0,1-.65-.08,35.65,35.65,0,0,0-5.29-.39c-1.51,0-3.59.14-5,.29Zm6.69,4.86c3,1.8,4.79,3.92,4.79,5.75a1.81,1.81,0,0,1-1.7,2c-.68,0-.89-.25-1.29-1.76-.68-2.73-3.24-5.87-5.5-6.69-.18-.08-.26-.15-.26-.26s.18-.28.4-.28A8.5,8.5,0,0,1,483.38,17.93Zm6.19-13.57A3.53,3.53,0,1,1,486.08.83,3.53,3.53,0,0,1,489.57,4.36Zm-5.83,0A2.31,2.31,0,1,0,486,2.05,2.32,2.32,0,0,0,483.74,4.36Z"/><path class="cls-2" d="M514.3,13.61c1.83.82,1.83.82,1.83,1.18a1.18,1.18,0,0,1-.14.51,7.82,7.82,0,0,0-.33,2.88l.07,3.67V26l0,2.49c0,.46,0,.9,0,1.18,0,.94-.33,1.48-.87,1.48-1.08,0-2.33-.94-2.33-1.76a3,3,0,0,1,.1-.69,113.17,113.17,0,0,0,.87-12.45,3.64,3.64,0,0,0-.44-2.13,45.61,45.61,0,0,1-9.35,7.42,16.09,16.09,0,0,1-4,1.69c-.14,0-.35-.14-.35-.29s.07-.18.35-.29c5.69-2.59,16.81-14,16.81-17.13,0-.36-.69-1-1.19-1.11-.32-.08-.39-.15-.39-.29s.75-.51,1.47-.51c1.33,0,4.07,1.95,4.07,2.92,0,.25-.11.36-.44.54a2.59,2.59,0,0,0-1.29,1.08,61.29,61.29,0,0,1-5,5.29Z"/><path class="cls-2" d="M543,11.45A1.5,1.5,0,0,1,541.36,13c-.47,0-.72-.18-1.08-.82a7.93,7.93,0,0,0-5.54-4.43c-.22-.07-.33-.15-.33-.25,0-.26.65-.44,1.7-.44C539.56,7.05,543,9.25,543,11.45Zm-4.67,16a5.37,5.37,0,0,1-2.59-1.87,2.67,2.67,0,0,1-.9-2.27c0-.69.18-1.23.43-1.23s.21.08.29.26a2.53,2.53,0,0,0,2.15,1.83c1.48,0,5.83-2.7,11-6.84a70.11,70.11,0,0,0,6.73-6c.72-.72,2.66-3,3-3.38s.43-.58.61-.58a.3.3,0,0,1,.29.33c0,.57-1.58,3-3.38,5.22a55.77,55.77,0,0,1-7.7,7.77,54.4,54.4,0,0,1-8.56,5.9C539.09,27.18,538.7,27.43,538.34,27.43Z"/><path class="cls-2" d="M577.6,14.43c0,6.45.11,9.87.29,12.28.07.75.1,1.29.1,1.62,0,1.51-.53,2.63-1.29,2.63s-1.91-1.62-1.91-2.52a5.13,5.13,0,0,1,.11-.94c.29-2,.58-10,.58-17.17,0-3.38-.15-4.61-.58-5.33a1.81,1.81,0,0,0-1.73-.9c-.25,0-.36-.1-.36-.32s.11-.25.33-.36a10.2,10.2,0,0,1,2.19-.58c.54,0,1,.26,2.63,1.26.47.33.68.58.68.83a2,2,0,0,1-.18.69c-.57,1-.79,2.66-.86,6.69a15.3,15.3,0,0,1,7.55,2.34c2,1.33,2.85,2.48,2.85,3.64a1.48,1.48,0,0,1-1.51,1.58c-.8,0-1.19-.33-2.09-1.69a12.88,12.88,0,0,0-6.8-5.29Z"/></g></g></g></svg>