<svg xmlns="http://www.w3.org/2000/svg" width="810.992" height="159.56" viewBox="0 0 405.496 79.78">
  <defs>
    <style>
      .cls-1 {
        fill: #333;
        fill-rule: evenodd;
      }
    </style>
  </defs>
  <path id="お好きなスイーツが_選べるワゴンサービス" data-name="お好きなスイーツが 選べるワゴンサービス" class="cls-1" d="M676.623,7215.13c4.392-2.73,6.623-3.63,8.927-3.63,2.2,0,3.636,1.62,3.636,4.06a5.572,5.572,0,0,1-5.472,5.62c-1.8,0-2.951-1.3-2.951-3.28a6.283,6.283,0,0,1,.576-2.45,0.852,0.852,0,0,0,.072-0.25,0.2,0.2,0,0,0-.144-0.18c-0.756,0-1.944,2.45-1.944,4a6.946,6.946,0,0,0,.756,3.13,4.336,4.336,0,0,0,4.1,1.98,8.391,8.391,0,0,0,8.5-8.24c0-3.53-2.555-5.87-6.3-5.87-2.808,0-5.507.9-9.791,3.2v-1.65c0-.97.036-1.69,0.072-2.67,3.96-1.51,5.976-3.06,5.976-4.6a0.915,0.915,0,0,0-.864-1.01,4.936,4.936,0,0,0-.54.03h-0.252a10.712,10.712,0,0,1-4.032-1.11,4.2,4.2,0,0,1,.432-1.51,1.092,1.092,0,0,0,.18-0.47c0-.97-2.016-2.3-3.419-2.3-0.972,0-2.448.75-2.448,1.25a0.271,0.271,0,0,0,.252.22h0.072a0.646,0.646,0,0,1,.4-0.11c1.08,0,1.584.83,1.8,3.06,0.216,2.38.288,3.49,0.288,4.54a13.829,13.829,0,0,1-4.284.72c-1.476,0-2.232-.33-2.52-1.08a0.188,0.188,0,0,0-.18-0.15c-0.18,0-.252.26-0.252,0.83a2.892,2.892,0,0,0,3.2,2.85,17.545,17.545,0,0,0,4.14-.62c0.108,1.44.108,2.2,0.108,4.65-1.62.82-2.88,1.51-5.508,2.88-2.16,1.18-2.16,1.18-2.627,1.18a0.747,0.747,0,0,1-.468-0.18,0.845,0.845,0,0,0-.648-0.32,1.356,1.356,0,0,0-1.188,1.48c0,1.44,1.692,3.52,2.879,3.52,0.432,0,.576-0.1,1.98-1.65,0.684-.72.72-0.79,1.152-1.26,1.98,1.33,3.06,3.17,2.952,4.97,0,0.82.108,1,.648,1a3.633,3.633,0,0,0,3.239-3.13,1.9,1.9,0,0,0-.036-0.39c-0.18-2.06-.216-2.92-0.432-6.59Zm-1.764,4.82c0,0.72-.179,1.19-0.5,1.19a16.863,16.863,0,0,1-3.456-2.05c1.368-1.12,2.052-1.66,3.959-2.99-0.036.97-.036,1.33-0.036,1.95Zm1.944-16.99c0.612,0.29,1.3.65,2.088,1.05,0.18,0.07.216,0.11,0.216,0.25,0,0.61-.936,1.37-2.376,1.94l0.036-1.62Zm14.506,0.33a8.227,8.227,0,0,0-4.751,1.47,1.114,1.114,0,0,0-.612.62,0.179,0.179,0,0,0,.18.21,1.381,1.381,0,0,0,.432-0.11,5.27,5.27,0,0,1,1.728-.28,6.33,6.33,0,0,1,3.419,1.08,6.464,6.464,0,0,1,2.016,2.26,1.818,1.818,0,0,0,.54,1.08,1.648,1.648,0,0,0,1.044.44,2.469,2.469,0,0,0,2.124-2.45C697.429,7205.2,694.729,7203.29,691.309,7203.29Zm13.972,2.7c2.052-.07,2.376-0.11,4.607-0.11a119.769,119.769,0,0,1-2.555,12.2,6.285,6.285,0,0,0-.324,1.23c0,0.36.972,0.68,2.123,0.68a0.849,0.849,0,0,0,1.044-.79,7.21,7.21,0,0,1,.288-1.05,5.129,5.129,0,0,1,.18-0.68,11.954,11.954,0,0,1,2.844,2.02c-1.368,3.13-3.78,5.79-7.919,8.64a0.5,0.5,0,0,0-.252.36,0.273,0.273,0,0,0,.252.28,12.431,12.431,0,0,0,3.06-1.51,19.831,19.831,0,0,0,6.623-6.12,12.411,12.411,0,0,1,1.4,1.84c0.9,1.44,1.4,1.91,2.088,1.91a1.588,1.588,0,0,0,1.44-1.7c0-1.51-1.224-3.02-3.671-4.46a34.37,34.37,0,0,0,2.915-11.45l0.432-.1a0.81,0.81,0,0,0,.684-0.8,0.941,0.941,0,0,0-.4-0.72l-2.448-2.62-1.331,1.87h-3.384c0.108-.65.4-2.59,0.864-5.87l0.108-.79,0.936-.43a0.781,0.781,0,0,0,.576-0.72,0.951,0.951,0,0,0-.792-0.87l-3.528-.79c-0.4,4.03-.684,6.8-1.08,9.47-2.483-.04-2.879-0.04-5.255-0.15Zm21.345,7.16v9.79c0,0.94-.18,1.08-1.332,1.08-0.216,0-2.735-.11-2.915-0.14-0.72-.07-0.72-0.07-0.828-0.07a0.252,0.252,0,0,0-.288.25c0,0.11.072,0.14,0.36,0.25a8.57,8.57,0,0,0,.864.36,11.041,11.041,0,0,0,1.4.54c0.54,0.22,1.259.54,1.4,0.61a0.617,0.617,0,0,1,.288.72c-0.036,1.01.252,1.44,0.936,1.44a4.007,4.007,0,0,0,1.548-.5c1.4-.69,1.728-1.19,1.728-2.52v-11.81h8.5c0.468,0,.756-0.18.756-0.5a0.856,0.856,0,0,0-.4-0.65l-3.06-2.52-2.268,2.7h-3.527v-5.69l0.324-.29a0.722,0.722,0,0,0,.432-0.57,0.648,0.648,0,0,0-.36-0.47c2.088-1.62,2.627-2.02,5.075-3.96h0.828c0.684,0,1.044-.25,1.044-0.76a1.17,1.17,0,0,0-.36-0.72l-3.168-3.05-1.475,2.01h-8.711c-1.332,0-2.34-.04-4.824-0.14l0.648,1.22c2.124-.07,3.024-0.11,4.176-0.11h8.639a45.931,45.931,0,0,1-3.132,5.15l-2.3-.18v7.56h-2.267c-1.62,0-2.556-.04-4.824-0.14l0.684,1.22c1.836-.07,2.664-0.11,4.14-0.11h2.267Zm-10.114-7.27a55.742,55.742,0,0,1-2.232,11.81,18.95,18.95,0,0,0-3.42-.9c1.08-5.08,1.728-8.61,2.016-10.91h3.636Zm49.643,2.81a24.2,24.2,0,0,1-8.243,1.44c-2.556,0-4.176-.65-4.644-1.87-0.18-.4-0.18-0.44-0.288-0.44-0.144,0-.252.22-0.252,0.54a4.039,4.039,0,0,0,1.728,3.1,7.666,7.666,0,0,0,4.175,1.04,33.782,33.782,0,0,0,8.783-1.36c1.548,2.66,2.484,4.53,2.484,5.07a0.38,0.38,0,0,1-.432.36,7.479,7.479,0,0,1-1.944-.4,15.844,15.844,0,0,0-4.715-.72c-4.715,0-7.883,2.24-7.883,5.58,0,3.64,4.139,6.16,10.115,6.16,2.447,0,3.6-.72,3.6-2.23a1.541,1.541,0,0,0-1.728-1.59,4.823,4.823,0,0,0-.683.04c-0.648.04-2.484,0.11-2.952,0.11-3.348,0-5.435-1.3-5.435-3.42s1.835-3.46,4.859-3.46a12.081,12.081,0,0,1,8.531,4.25,1.865,1.865,0,0,0,.432.04c1.44,0,2.556-1.48,2.556-3.39a4.744,4.744,0,0,0-1.368-3.13c-1.8-2.12-2.628-3.13-3.348-4.14a27.459,27.459,0,0,0,5-2.45c1.188-.75,1.692-1.33,1.692-2.01a0.932,0.932,0,0,0-.792-0.83,12.949,12.949,0,0,0-2.843-.5c-0.288,1-1.548,1.9-4.716,3.31a25.13,25.13,0,0,1-1.871-3.17c2.807-1.15,4-1.94,4-2.66,0-.69-1.332-1.59-2.34-1.59-0.36,0-.5.11-1.439,0.94a8.348,8.348,0,0,1-1.368,1.01c-1.116-2.42-1.4-3.28-1.4-4.14a1.163,1.163,0,0,1,.036-0.33,1.214,1.214,0,0,0-.432-0.72,6.521,6.521,0,0,0-3.78-1.18c-0.828,0-2.591,1.08-2.591,1.58a0.226,0.226,0,0,0,.252.14c1.907-.07,3.167,1.05,5.9,5.37a13.514,13.514,0,0,1-4.715.93c-1.44,0-2.268-.29-2.7-0.9a0.387,0.387,0,0,0-.324-0.25,0.258,0.258,0,0,0-.288.25,3.467,3.467,0,0,0,.9,1.59,4.533,4.533,0,0,0,3.383,1.44,18.7,18.7,0,0,0,5.112-.9A28.122,28.122,0,0,1,766.155,7208.69Zm45.035-3.1c1.944,0,3.744.83,3.744,1.73,0,0.32-.144.4-0.936,0.61a6.773,6.773,0,0,0-4.572,3.82c-0.432,1.11-.576,2.7-0.576,6.55a16.763,16.763,0,0,0-1.763-.07,10.341,10.341,0,0,0-4.752.93,4.131,4.131,0,0,0-2.16,3.39c0,2.66,2.772,4.68,6.408,4.68,2.231,0,3.851-.72,4.679-2.13a6.106,6.106,0,0,0,.72-3.27,14.458,14.458,0,0,1,3.672,2.8,2.666,2.666,0,0,0,1.871,1.08,1.669,1.669,0,0,0,1.512-1.72c0-1.77-2.808-3.78-7.055-5.04a49.755,49.755,0,0,1-.648-5.83c0-2.63,1.08-4.07,3.06-4.07a8.533,8.533,0,0,1,3.779,1.04,1.551,1.551,0,0,0,1.3-1.73c0-2.37-2.448-4.28-5.507-4.28-1.692,0-4.356.83-4.356,1.37a0.225,0.225,0,0,0,.216.21,0.834,0.834,0,0,0,.252-0.03Zm-2.376,16.09a2.738,2.738,0,0,1-3.059,2.81c-2.124,0-3.528-.9-3.528-2.2,0-1.36,1.332-2.26,3.276-2.26a9.368,9.368,0,0,1,3.311.61v1.04Zm-8.782-15.98c-1.692,4.64-4.248,8.67-7.056,11.09a2.589,2.589,0,0,0-1.151,1.69,2.051,2.051,0,0,0,2.051,1.91,2.871,2.871,0,0,0,2.16-.98,16.856,16.856,0,0,0,1.836-3.13,93.508,93.508,0,0,0,5-11.19,14.471,14.471,0,0,0,3.348-1.3c1.62-.86,2.267-1.65,2.267-2.81,0-.86-0.18-1-1.115-1.04a4.764,4.764,0,0,1-3.168-.79c0.108-.65.18-0.97,0.288-1.8a3.189,3.189,0,0,0-2.988-1.58c-1.08,0-2.447.5-2.447,0.93,0,0.11.072,0.15,0.288,0.15a2.157,2.157,0,0,1,2.123,2.26,12.1,12.1,0,0,1-.72,3.75,13.346,13.346,0,0,1-3.959.72c-1.548,0-2.952-.65-3.348-1.59-0.108-.25-0.18-0.29-0.288-0.29a0.249,0.249,0,0,0-.252.26,5.4,5.4,0,0,0,.864,2.44,4.04,4.04,0,0,0,3.492,1.55A18.92,18.92,0,0,0,800.032,7205.7Zm4-5.98c1.26,0.8,1.4.94,1.4,1.08,0,0.4-.72.9-2.124,1.52C803.7,7200.95,803.775,7200.73,804.027,7199.72Zm42.12,3.06c-3.78.8-4.248,0.87-5.291,0.87a2.689,2.689,0,0,1-2.2-.79c-0.18-.33-0.18-0.33-0.324-0.33a1.39,1.39,0,0,0-.4,1.15,2.447,2.447,0,0,0,.864,1.7,4.567,4.567,0,0,0,2.016,1.15,3.226,3.226,0,0,0,1.079-.36,48.107,48.107,0,0,1,6.372-2.27,4.251,4.251,0,0,1,1.44-.32,0.488,0.488,0,0,1,.575.46,10.036,10.036,0,0,1-.863,2.49,35.834,35.834,0,0,1-4.284,7.56,31.98,31.98,0,0,1-11.59,9.82c-0.972.44-1.188,0.58-1.188,0.76a0.292,0.292,0,0,0,.324.25,7.866,7.866,0,0,0,1.763-.43,28.41,28.41,0,0,0,9.539-5.22,32.271,32.271,0,0,0,5.292-5.76,16.747,16.747,0,0,1,6.515,7.96c0.684,1.65,1.08,2.08,1.944,2.08a2.257,2.257,0,0,0,2.195-2.23c0-1.69-1.224-3.67-3.347-5.36a16.234,16.234,0,0,0-6.839-3.2,62.039,62.039,0,0,0,4.643-8.07c0.828-.5,1.152-0.79,1.152-1.11,0-.29-0.216-0.58-1.008-1.23-1.368-1.11-2.232-1.65-2.628-1.65a2.271,2.271,0,0,0-1.26.68,4.094,4.094,0,0,1-2.267.97Zm46.187,21.13c0-.03-0.072-1.69-0.18-5-0.072-3.31-.144-6.3-0.144-6.33a10.694,10.694,0,0,1,.252-2.38,1.169,1.169,0,0,0,.324-0.76c0-.36-0.216-0.54-1.4-1.08-0.108-.03-0.468-0.21-0.828-0.39,2.483-2.67,3.6-3.93,4.679-5.22a3.658,3.658,0,0,1,1.26-1.15,0.7,0.7,0,0,0,.468-0.62c0-.46-0.54-1.22-1.836-2.52-1.116-1.15-1.8-1.51-2.952-1.51-0.683,0-1.043.11-1.043,0.33a0.3,0.3,0,0,0,.216.21,1.542,1.542,0,0,1,.863,1.55c0,4-9.718,14.76-16.341,18.14-0.648.33-.684,0.33-0.684,0.51a0.28,0.28,0,0,0,.288.25,16.827,16.827,0,0,0,3.491-1.23c3.672-1.58,5.363-2.8,10.187-7.34a4.978,4.978,0,0,1,.252,2.09c0,1.8-.036,3.27-0.18,6.73a15.378,15.378,0,0,1-.612,4.82,3.156,3.156,0,0,0-.324,1.16c0,0.82,2.124,2.8,2.988,2.8,0.719,0,1.295-.86,1.295-1.94ZM941.4,7209.3a28.159,28.159,0,0,1-5.723,1.22c-2.483.29-11.446,0.83-14.182,0.83-2.88,0-4.067-.32-4.607-1.22a0.519,0.519,0,0,0-.36-0.36c-0.36,0-.54.36-0.54,1.01a3.347,3.347,0,0,0,1.3,2.91,6.419,6.419,0,0,0,3.1,1.19,1.465,1.465,0,0,0,.5-0.11c2.7-1.08,8.027-1.58,17.026-1.58,1.332,0,2.412.03,3.168,0.11,1.547,0.14,2.7.25,3.023,0.25,1.116,0,1.836-.47,1.836-1.19C945.937,7210.96,944.425,7209.91,941.4,7209.3Zm26.282-7.85c-0.468,0-.683.07-0.683,0.25a0.219,0.219,0,0,0,.215.18c1.656,0.87,3.312,3.28,4,5.8,0.432,1.69.648,2.02,1.44,2.02a2.243,2.243,0,0,0,2.088-2.31C974.739,7204.69,970.887,7201.45,967.683,7201.45Zm16.558,4.54c0.756-.76.828-0.83,0.828-1.15,0-.54-0.972-1.88-2.231-3.06a4.351,4.351,0,0,0-2.988-1.26,0.455,0.455,0,0,0-.54.32,0.339,0.339,0,0,0,.108.22,2.339,2.339,0,0,1,.828,2.23c0,3.53-2.556,8.89-6.191,13.1-3.456,3.92-8.351,7.52-12.023,8.89-0.4.11-.468,0.18-0.468,0.36a0.285,0.285,0,0,0,.324.25,19.975,19.975,0,0,0,3.456-.86,28.644,28.644,0,0,0,12.274-8.46A35.3,35.3,0,0,0,984.241,7205.99Zm-23.4-.83c-0.5,0-.684.07-0.684,0.25a0.217,0.217,0,0,0,.144.18,11.666,11.666,0,0,1,3.924,5.11c0.468,1.34.468,1.34,0.684,1.55a0.91,0.91,0,0,0,.756.36,2.21,2.21,0,0,0,1.943-2.41c0-1.55-1.115-3.06-3.059-4.1A9.461,9.461,0,0,0,960.844,7205.16Zm59.146-7.59c-0.9,0-1.55.18-1.55,0.43,0,0.14.11,0.25,0.51,0.36a5.108,5.108,0,0,1,2.73,2.08c0.79,1.26.79,1.26,1.41,1.26a1.515,1.515,0,0,0,1.58-1.4C1024.67,7198.9,1022.37,7197.57,1019.99,7197.57Zm4.79-2.06c-0.94,0-1.59.18-1.59,0.44,0,0.18.08,0.25,0.54,0.39a6.039,6.039,0,0,1,2.99,2.41c0.54,0.94.72,1.05,1.3,1.05a1.573,1.573,0,0,0,1.58-1.41C1029.6,7196.92,1027.23,7195.51,1024.78,7195.51Zm-18.61,3.46c1.33,0,2.16,1.11,2.16,2.95a22.906,22.906,0,0,1-.54,4.72,26.35,26.35,0,0,1-6.01,1.4,2.12,2.12,0,0,1-1.911-1.01c-0.108-.39-0.144-0.43-0.288-0.43a1.055,1.055,0,0,0-.36,1.08c0,1.87,1.119,3.38,2.479,3.38a4.345,4.345,0,0,0,2.06-.72c1.33-.68,1.72-0.86,3.6-1.76-1.55,5-4.4,10.26-7.13,13.1-1.081,1.15-1.261,1.44-1.261,1.98a1.727,1.727,0,0,0,1.871,1.59,2.937,2.937,0,0,0,1.8-.62,7.244,7.244,0,0,0,1.3-1.87,77.362,77.362,0,0,0,6.4-15.19,8.854,8.854,0,0,1,2.67-.65c1.33,0,1.94,1.01,1.94,3.21a26.151,26.151,0,0,1-1.69,9.18,2.671,2.671,0,0,1-2.05,1.94c-0.51,0-.72-0.14-2.67-1.8a2.555,2.555,0,0,0-1.04-.72,0.267,0.267,0,0,0-.25.22,1.06,1.06,0,0,0,.36.54,8.036,8.036,0,0,1,1.8,4.39c0.07,1.01.29,1.22,1.15,1.22a6.322,6.322,0,0,0,4.97-2.88c1.44-2.16,2.41-6.55,2.41-10.8,0-3.81-1.62-5.94-4.57-5.94a10.155,10.155,0,0,0-2.59.4,36.872,36.872,0,0,0,1.08-5.36c0-1.12-2.24-2.59-3.93-2.59-0.79,0-2.27.61-2.27,0.93a0.2,0.2,0,0,0,.18.14,0.446,0.446,0,0,0,.18-0.03h0.15Zm17.82,14.76c1.9,0,2.62.21,3.56,1.11a1.346,1.346,0,0,0,.97.47c1.19,0,1.94-1.12,1.94-2.84a8.825,8.825,0,0,0-8.85-8.53c-0.94,0-1.44.14-1.44,0.39,0,0.18.07,0.25,0.47,0.29a7.774,7.774,0,0,1,4.46,2.88,6.408,6.408,0,0,1,1.62,3.38,1.264,1.264,0,0,1-.93,1.16,25.192,25.192,0,0,1-3.28,1.22c-0.25.07-.36,0.14-0.36,0.29a0.29,0.29,0,0,0,.29.29c0.14,0,.39-0.04.72-0.08A5.529,5.529,0,0,1,1023.99,7213.73Zm-373.43,47.35,0.648-.22c0.648-.18.72-0.25,0.72-0.57a1.6,1.6,0,0,0-.612-1.12l-2.628-2.73-1.368,2.12h-0.18c-0.4,0-1.116-.04-2.16-0.07-0.431-.04-1.367-0.04-2.627-0.07l0.648,1.22c3.239-.11,3.419-0.14,4.139-0.14h0.288v9.68a27.161,27.161,0,0,1-3.131,1.73c-1.08.46-1.728,0.75-1.944,0.86l2.556,2.56a1.227,1.227,0,0,0,.863.46c0.4,0,.612-0.28.612-0.86v-0.97l0.108-.11a3.144,3.144,0,0,1,.36-0.47c0.612-.75.684-0.9,1.44-1.83,0.468-.58.612-0.76,0.9-1.16,3.564,4.43,7.127,5.84,14.9,5.84,3.456,0,8.1-.08,10.079-0.11a8.144,8.144,0,0,1,2.16-3.35c-5.148.4-10.079,0.65-13.247,0.65-4.391,0-6.227-.18-8.315-0.9a57.727,57.727,0,0,0,6.731-3.24l0.756-.07c0.72-.08,1.008-0.26,1.008-0.62a1.087,1.087,0,0,0-.72-0.82l-2.267-1.55a25.907,25.907,0,0,1-6.552,5.94,9.962,9.962,0,0,1-3.167-1.87v-8.21Zm-5.939-17.1a0.278,0.278,0,0,0-.324.29,0.44,0.44,0,0,0,.144.29A7.968,7.968,0,0,1,647,7247.9c0.72,2.63.72,2.63,1.116,3.03a1.25,1.25,0,0,0,.864.32,2.107,2.107,0,0,0,1.944-2.37c0-1.84-1.512-3.49-4-4.36A12,12,0,0,0,644.621,7243.98Zm7.559,21.09c3.923-.14,4.391-0.14,5.507-0.14h18.07a0.454,0.454,0,0,0,.5-0.5,0.922,0.922,0,0,0-.5-0.76l-2.628-2.19-2.16,2.44H668.63v-3.52h5.543a0.419,0.419,0,0,0,.5-0.4c0-.29-0.036-0.36-0.576-0.79l-2.16-1.84-1.836,2.05H668.63v-1.51l0.323-.11a0.671,0.671,0,0,0,.468-0.54c0-.25-0.216-0.39-0.647-0.43l-2.916-.14v2.73h-4.824v-1.15l0.36-.18a0.62,0.62,0,0,0,.468-0.5c0-.36-0.288-0.51-0.9-0.54l-2.807-.07v2.44h-0.576c-0.144,0-1.3-.03-2.448-0.07l-2.375-.07,0.719,1.22c3.1-.1,3.528-0.1,4.1-0.1h0.576v3.52h-0.468c-2.412,0-3.312,0-6.227-.14Zm15.01-14.65h3.491v0.51c0,0.39.18,0.54,0.648,0.54,0.9,0,2.2-.51,2.2-0.87v-3.42l0.54-.25a0.719,0.719,0,0,0,.468-0.57c0-.36-0.108-0.54-0.792-1.05l-2.34-1.98-0.936,1.7h-2.519c-1.044,0-2.088-.04-4.824-0.15l0.612,1.23c0.936-.04,1.728-0.08,2.052-0.08,1.116-.03,1.872-0.07,2.16-0.07h2.735v3.49h-3.167l-3.024-1.15v6.01c0,1.33.684,1.73,3.024,1.73a37.552,37.552,0,0,0,7.631-.47,1.419,1.419,0,0,0,.972-1.22,0.947,0.947,0,0,0-.684-0.83,1.909,1.909,0,0,1-.648-0.29,0.706,0.706,0,0,1-.072-0.39c-0.072-1.84-.108-2.09-0.324-2.09a0.5,0.5,0,0,0-.36.36c-0.72,1.55-.936,1.91-1.3,2.16a10.7,10.7,0,0,1-3.852.43,5.224,5.224,0,0,1-1.619-.11c-0.072-.03-0.072-0.03-0.072-0.61v-2.56Zm-11.447,0h3.132v0.54c0,0.36.144,0.47,0.648,0.47,1.116,0,2.231-.47,2.231-0.93v-3.46l0.54-.29a0.619,0.619,0,0,0,.468-0.57,1.084,1.084,0,0,0-.5-0.76l-2.483-1.94-1.188,1.51h-2.2c-0.4,0-1.224,0-2.412-.04-0.36-.03-1.331-0.07-2.447-0.1l0.792,1.22c1.8-.07,2.591-0.11,4.067-0.11h2.484v3.49h-3.132l-2.844-1.19v5.98c0,1.76.252,1.91,3.42,1.91,6.479,0,7.343-.15,7.343-1.37a0.848,0.848,0,0,0-.432-0.76c-0.252-.14-0.5-0.28-0.72-0.39l-0.036-.04a1.68,1.68,0,0,1-.108-0.47,4.262,4.262,0,0,0-.072-0.72l-0.036-.39c0-.25-0.072-0.36-0.18-0.36a0.275,0.275,0,0,0-.252.29c-0.684,1.76-.936,1.94-2.807,1.94h-2.772c-0.5-.04-0.5-0.07-0.5-0.76v-2.7Zm5.291,13.5v-3.52h4.824v3.52h-4.824Zm3.816,1.59a0.232,0.232,0,0,0-.288.21,0.466,0.466,0,0,0,.36.33,15.045,15.045,0,0,1,4.427,3.24c2.088,2.01,2.088,2.01,2.628,2.01a1.542,1.542,0,0,0,1.62-1.47c0-1.16-1.332-2.34-3.564-3.17A23.2,23.2,0,0,0,664.85,7265.51Zm43.92-19.08c-1.188,0-1.836.14-1.836,0.43,0,0.14.036,0.18,0.576,0.32a6.256,6.256,0,0,1,3.1,2.42c0.575,0.93.719,1.04,1.331,1.04a1.382,1.382,0,0,0,1.476-1.4C713.413,7247.76,711.253,7246.43,708.77,7246.43Zm-4.212,2.66c-1.08,0-1.584.11-1.584,0.33,0,0.14.072,0.18,0.4,0.28a6.316,6.316,0,0,1,3.168,2.85c0.54,0.9.648,1.01,1.224,1.01a1.4,1.4,0,0,0,1.44-1.44C709.2,7250.53,707.006,7249.09,704.558,7249.09Zm-19.293,10.23a0.151,0.151,0,0,0-.036.1,2.141,2.141,0,0,0-.144.83,3.13,3.13,0,0,0,.972,2.27,5.335,5.335,0,0,0,3.059,1.51c1.044,0,2.016-.94,4.14-4.03,2.411-3.49,3.059-4.18,4.031-4.18,0.648,0,1.224.36,2.16,1.37,0.684,0.76,4.355,4.57,5.543,5.8a36.264,36.264,0,0,0,6.3,5.04c1.692,1.11,2.7,1.51,3.744,1.51a2.366,2.366,0,0,0,2.556-2.09,3.056,3.056,0,0,0-2.088-2.52,36.386,36.386,0,0,1-12.311-7.56,31.9,31.9,0,0,0-3.059-2.66,4.294,4.294,0,0,0-2.556-1.08c-1.224,0-2.412.68-3.959,2.27-3.1,3.2-4.644,4.24-6.264,4.24A2.714,2.714,0,0,1,685.265,7259.32Zm62.205,11.51c-0.144-.25-0.216-0.43-0.288-0.54a5.752,5.752,0,0,0-5.4-3.16c-2.52,0-4.032,1.15-4.032,3.09,0,2.13,2.34,3.49,5.9,3.49a12.207,12.207,0,0,0,8.027-2.66,8.672,8.672,0,0,0,2.951-6.3c0-3.99-3.419-6.98-8.027-6.98a11.565,11.565,0,0,0-5.435,1.26,0.15,0.15,0,0,1-.108.03,0.073,0.073,0,0,1-.072-0.07c0-1.04,5.507-6.98,7.919-8.53,0.972-.61,1.3-0.97,1.3-1.48,0-1.08-2.844-2.98-4.5-2.98a2.555,2.555,0,0,0-1.4.5c-2.3,1.48-5.688,2.7-7.524,2.7a1.406,1.406,0,0,1-1.439-.76c-0.108-.28-0.144-0.32-0.216-0.32-0.216,0-.324.4-0.324,1.15a2.936,2.936,0,0,0,.576,1.91,3.02,3.02,0,0,0,2.123,1.33,2.555,2.555,0,0,0,1.584-.86c2.052-1.62,4.752-3.21,5.471-3.21a0.411,0.411,0,0,1,.4.44c0,1.44-3.059,6.04-6.659,10.04-1.548,1.73-4.211,4.43-5.759,5.83a2.283,2.283,0,0,0-1.008,1.73c0,1.19,1.332,2.81,2.3,2.81,0.468,0,.828-0.36,1.332-1.44a27.275,27.275,0,0,1,3.455-5.4,9.205,9.205,0,0,1,6.947-3.35,5.431,5.431,0,0,1,3.492,1.37,5.524,5.524,0,0,1,1.728,4.32,7.833,7.833,0,0,1-.828,3.63A6.4,6.4,0,0,1,747.47,7270.83Zm-3.239.87c-0.468.03-.756,0.03-0.828,0.03-2.016,0-3.78-.86-3.78-1.87a1.5,1.5,0,0,1,1.728-1.29C742.935,7268.57,743.907,7269.61,744.231,7271.7Zm34.56-18.58a67.752,67.752,0,0,1,11.267-1.98c1.188,0,1.62.29,1.62,1.16,0,2.88-2.664,9.79-5,12.92a23.327,23.327,0,0,1-9.322,7.49c-0.5.18-.648,0.32-0.648,0.57a0.338,0.338,0,0,0,.36.36,18.611,18.611,0,0,0,4.1-1.4,23.129,23.129,0,0,0,10.619-9.54c1.44-2.41,2.268-4.57,3.707-9.72,0.936-.86,1.224-1.22,1.224-1.48,0-.28-0.4-0.79-1.4-1.8a3.624,3.624,0,0,0-2.087-1.33,2.678,2.678,0,0,0-1.116.36c-1.656.9-9.9,2.38-13.751,2.45a4.293,4.293,0,0,0-3.059-1.55c-0.9,0-2.052.43-2.052,0.76,0,0.14.072,0.18,0.288,0.21,1.08,0.15,1.62.87,1.98,2.6a39.018,39.018,0,0,1,.756,5.83,11.083,11.083,0,0,1-.108,1.26c-0.036.21-.072,0.36-0.072,0.39,0,0.83,1.8,2.27,2.879,2.27a1.074,1.074,0,0,0,.972-1.29C779.943,7260.9,779.547,7258.06,778.791,7253.12Zm58.246-9.32c-1.115,0-1.691.11-1.691,0.36,0,0.18.072,0.22,0.719,0.4a6.2,6.2,0,0,1,3.168,2.84,0.962,0.962,0,0,0,1.044.68,1.418,1.418,0,0,0,1.548-1.4C841.825,7245.17,839.557,7243.8,837.037,7243.8Zm-4.571,1.8c-0.936,0-1.3.07-1.3,0.29a0.287,0.287,0,0,0,.288.29,6.175,6.175,0,0,1,3.24,2.98,1.078,1.078,0,0,0,1.116.83,1.33,1.33,0,0,0,1.4-1.37C837.217,7247.04,834.95,7245.6,832.466,7245.6Zm1.908,20.19c1.943-8.09,2.375-9.32,3.743-10.4a0.712,0.712,0,0,0,.4-0.61c0-.36-0.468-0.86-1.728-1.73-1.907-1.33-1.943-1.37-2.375-1.37a2.408,2.408,0,0,0-1.26.51,13.675,13.675,0,0,1-4.932,1.4,70.15,70.15,0,0,1-8.818.97c-2.232,0-3.636-.43-4.032-1.26a0.324,0.324,0,0,0-.252-0.25c-0.252,0-.4.58-0.4,1.37a4.627,4.627,0,0,0,3.348,3.28,2.749,2.749,0,0,0,.36-0.08,48.788,48.788,0,0,1,7.055-1.65c1.8-.33,3.6-0.65,3.887-0.72a14.022,14.022,0,0,1,2.772-.33,0.776,0.776,0,0,1,.864.9c0,1.05-.108,1.7-1.26,8.57l-0.252,1.62c-3.779.5-11.914,1.33-12.922,1.33a5.517,5.517,0,0,1-2.484-.5,0.762,0.762,0,0,1-.108-0.07,0.444,0.444,0,0,0-.288.43c0,1.08,2.268,3.27,3.384,3.27a1.726,1.726,0,0,0,.684-0.18,10.965,10.965,0,0,1,3.347-1.08,60.387,60.387,0,0,1,8.891-1.15,16.388,16.388,0,0,1,3.492.43,2.122,2.122,0,0,0,.611.11,0.961,0.961,0,0,0,1.008-.9c0-.75-0.684-1.33-2.231-1.94ZM859,7249.31c-1.3,0-2.2.18-2.2,0.47,0,0.1.108,0.18,0.4,0.25a10.474,10.474,0,0,1,5.255,4.82c0.5,1.08.828,1.37,1.548,1.37a1.982,1.982,0,0,0,1.98-1.91C865.983,7251.83,862.491,7249.31,859,7249.31Zm23.109,0.11a0.948,0.948,0,0,0-.54.43,80.05,80.05,0,0,1-12.13,11.66c-3.924,3.1-7.272,4.86-9.215,4.86a2.924,2.924,0,0,1-2.124-.86c-0.18-.36-0.216-0.36-0.324-0.36-0.288,0-.5.68-0.5,1.44,0,0.79.5,1.54,1.872,2.84a4.73,4.73,0,0,0,2.52,1.51,1.088,1.088,0,0,0,.5-0.21c0.252-.18.468-0.4,0.684-0.58a4.159,4.159,0,0,1,.684-0.47,53.994,53.994,0,0,0,15.334-13.93c1.512-2.05,3.492-5.51,3.492-6.08A0.3,0.3,0,0,0,882.109,7249.42Zm34.6,7.02c0.756-.04,1.3-0.04,1.4-0.04,1.044,0,3.527.18,4.607,0.32a10.347,10.347,0,0,0,1.368.11,1.034,1.034,0,0,0,1.152-.93c0-1.08-1.98-2.52-4-2.88a15.167,15.167,0,0,1-5.615,1.62c-0.036-.62-0.036-1.26-0.036-1.44a11.688,11.688,0,0,1,.5-4.32,1.775,1.775,0,0,0,.18-0.51,2.467,2.467,0,0,0-.792-1.08,4.852,4.852,0,0,0-3.348-1.47c-0.863,0-1.871.36-1.871,0.68a0.235,0.235,0,0,0,.18.18c1.655,0.54,1.727.72,1.835,6.01,0.036,0.29.072,1.33,0.108,2.34l-2.915.33c-0.792.1-1.152,0.14-2.2,0.21-0.036-.43-0.036-0.83-0.036-0.97l-0.036-.76v-2.23a4.1,4.1,0,0,1,.072-0.97,2.349,2.349,0,0,0,.072-0.4c0-.82-2.268-2.12-3.78-2.12a4.049,4.049,0,0,0-1.151.29l-0.54.18a0.789,0.789,0,0,0-.576.47,0.308,0.308,0,0,0,.36.18c1.728,0.36,2.411,1.36,2.411,3.49l0.072,0.97c0,0.25,0,.61.036,1.08l0.036,1.12c-3.563.32-4.679,0.39-5.363,0.39-1.692,0-2.952-.29-3.347-0.75a0.337,0.337,0,0,0-.216-0.18c-0.144,0-.216.1-0.216,0.36a2.945,2.945,0,0,0,.719,1.87,3.847,3.847,0,0,0,2.232,1.55,3.177,3.177,0,0,0,.972-0.26c0.072,0,.612-0.18,1.584-0.46,0.324-.08.684-0.18,1.116-0.26,0.936-.18.972-0.21,2.555-0.5v1.48a15.63,15.63,0,0,1-.216,3.16c-0.036.25-.072,0.4-0.072,0.51a3.5,3.5,0,0,0,.864,1.58,2.366,2.366,0,0,0,1.62.83,1.144,1.144,0,0,0,1.116-1.08c0-.15-0.036-0.43-0.072-0.83-0.036-.04-0.108-1.76-0.108-3.53-0.036-1.8-.036-1.87-0.072-2.7a42.346,42.346,0,0,1,5.075-.5c0,8.35-2.987,14.43-8.531,17.21-1.3.64-1.331,0.68-1.331,0.9a0.363,0.363,0,0,0,.324.25,11.96,11.96,0,0,0,2.807-.94c4.392-1.87,7.055-4.57,8.459-8.64,0.828-2.45,1.116-4.32,1.4-8.89Zm45.575,0.86a28.159,28.159,0,0,1-5.723,1.22c-2.484.29-11.446,0.83-14.182,0.83-2.88,0-4.068-.32-4.608-1.22a0.519,0.519,0,0,0-.36-0.36c-0.359,0-.539.36-0.539,1.01a3.349,3.349,0,0,0,1.295,2.91,6.426,6.426,0,0,0,3.1,1.19,1.465,1.465,0,0,0,.5-0.11c2.7-1.08,8.027-1.58,17.026-1.58,1.332,0,2.412.03,3.167,0.11,1.548,0.14,2.7.25,3.024,0.25,1.116,0,1.836-.47,1.836-1.19C966.817,7258.96,965.305,7257.91,962.281,7257.3Zm22.935,4.72c0,4.35.288,5.83,1.332,7.27,1.439,1.94,3.419,2.55,8.063,2.55a30.424,30.424,0,0,0,7.379-.79c1.08-.32,1.62-0.86,1.62-1.55,0-.93-1.8-1.94-3.816-2.09a14.279,14.279,0,0,1-7.055,1.44c-3.744,0-4.608-.97-4.608-5.11,0-.72,0-1.01.108-2.95a59.348,59.348,0,0,0,10.8-3.92c2.342-1.01,2.812-1.33,2.812-1.84a1.592,1.592,0,0,0-.47-0.97,12.065,12.065,0,0,0-2.234-1.91,6.723,6.723,0,0,0-2.16-.47c-0.324,0-.5.08-0.5,0.26a0.77,0.77,0,0,0,.18.36,1.2,1.2,0,0,1,.288.82,3.382,3.382,0,0,1-1.512,2.34,42.567,42.567,0,0,1-7.163,4.29,61.328,61.328,0,0,1,.648-7.89,5.493,5.493,0,0,0,.18-1.22,1.842,1.842,0,0,0-1.116-1.62,5.844,5.844,0,0,0-2.663-.97c-0.9,0-2.268.47-2.268,0.75a0.212,0.212,0,0,0,.18.18c1.764,0.69,2.088,1.44,2.088,4.79,0,0.76-.036,2.13-0.072,4.07Zm14.362-15.27c-0.972,0-1.512.15-1.512,0.43a0.313,0.313,0,0,0,.252.26,5.514,5.514,0,0,1,3.132,2.41c0.5,0.9.68,1.08,1.22,1.08a1.5,1.5,0,0,0,1.59-1.37C1004.26,7248.08,1002.03,7246.75,999.578,7246.75Zm4.322-2.66c-0.87,0-1.55.22-1.55,0.47a0.361,0.361,0,0,0,.25.25,5.266,5.266,0,0,1,3.13,2.34c0.58,0.97.76,1.11,1.3,1.11a1.565,1.565,0,0,0,1.58-1.4C1008.61,7245.46,1006.31,7244.09,1003.9,7244.09Zm30.17,6.69c-3.78.8-4.25,0.87-5.29,0.87a2.693,2.693,0,0,1-2.2-.79c-0.18-.33-0.18-0.33-0.32-0.33a1.388,1.388,0,0,0-.4,1.15,2.442,2.442,0,0,0,.86,1.7,4.587,4.587,0,0,0,2.02,1.15,3.208,3.208,0,0,0,1.08-.36,48.293,48.293,0,0,1,6.37-2.27,4.286,4.286,0,0,1,1.44-.32,0.492,0.492,0,0,1,.58.46,10.267,10.267,0,0,1-.87,2.49,35.561,35.561,0,0,1-4.28,7.56,31.988,31.988,0,0,1-11.59,9.82c-0.97.44-1.19,0.58-1.19,0.76a0.288,0.288,0,0,0,.32.25,7.929,7.929,0,0,0,1.77-.43,28.519,28.519,0,0,0,9.54-5.22,32.732,32.732,0,0,0,5.29-5.76,16.756,16.756,0,0,1,6.51,7.96c0.69,1.65,1.08,2.08,1.95,2.08a2.251,2.251,0,0,0,2.19-2.23c0-1.69-1.22-3.67-3.34-5.36a16.267,16.267,0,0,0-6.84-3.2,62.643,62.643,0,0,0,4.64-8.07c0.83-.5,1.15-0.79,1.15-1.11,0-.29-0.21-0.58-1.01-1.23-1.36-1.11-2.23-1.65-2.62-1.65a2.23,2.23,0,0,0-1.26.68,4.118,4.118,0,0,1-2.27.97Z" transform="translate(-642.344 -7195.44)"/>
</svg>
