<svg xmlns="http://www.w3.org/2000/svg" width="67.316" height="11.25" viewBox="0 0 67.316 11.25">
  <defs>
    <style>
      .cls-1 {
        fill: #00a040;
        fill-rule: evenodd;
      }
    </style>
  </defs>
  <path id="_-_Pain_-_" data-name="- Pain -  " class="cls-1" d="M992.576,2534.74l0.156-.89h-3.72l-0.156.89h3.72Zm8.924,3.24h5.25l0.07-.39h-0.32c-1.15.01-1.39-.24-1.2-1.35l0.59-3.35H1009a4.616,4.616,0,0,0,3.17-1,3.675,3.675,0,0,0,1.09-1.98c0.3-1.76-1.16-2.99-3.56-2.99h-6.28l-0.08.41h0.5c0.89-.02,1.18.36,0.99,1.29l-1.31,7.45c-0.25,1.29-.44,1.47-1.59,1.52h-0.36Zm4.47-5.55,0.7-3.96c0.14-.8.63-1.1,1.83-1.1a4.2,4.2,0,0,1,1.9.36,2.065,2.065,0,0,1,.77,2.24,2.911,2.911,0,0,1-3.2,2.46h-2Zm16.56,3.43-0.05.26c-0.18.87-.38,1.17-0.8,1.17-0.32,0-.36-0.18-0.24-0.87l0.68-3.87c0.25-1.44-.51-2.12-2.42-2.12-1.75,0-3.07.77-3.27,1.91a0.85,0.85,0,0,0,.86,1.05,1.09,1.09,0,0,0,1.06-.89,0.652,0.652,0,0,0-.65-0.81,1.922,1.922,0,0,1,1.63-.73c1.09,0,1.48.52,1.26,1.74l-0.14.82a10.286,10.286,0,0,0-2.88.6,2.841,2.841,0,0,0-2.1,2.15c-0.21,1.15.53,1.89,1.88,1.89a4.384,4.384,0,0,0,2.47-.87,0.976,0.976,0,0,0,1.16.91,1.75,1.75,0,0,0,1.65-.97,4.167,4.167,0,0,0,.39-1.37h-0.49Zm-2.65.87a3.057,3.057,0,0,1-1.67.66,1.061,1.061,0,0,1-1.1-1.36,2.353,2.353,0,0,1,1.56-1.7,5.336,5.336,0,0,1,1.7-.34Zm5.96,1.25h4.13l0.07-.41h-0.22c-0.8-.06-0.98-0.34-0.79-1.24l1.06-6.02a7.318,7.318,0,0,1-2.18.3h-0.89l-0.07.41c1.17,0,1.41.31,1.24,1.5l-0.61,3.46c-0.24,1.26-.51,1.58-1.39,1.59h-0.27Zm4.01-10.94a1.315,1.315,0,0,0-1.26,1.05,0.873,0.873,0,0,0,.87,1.08,1.342,1.342,0,0,0,1.26-1.06A0.878,0.878,0,0,0,1029.85,2527.04Zm3.3,10.94h4.2l0.06-.36h-0.39c-0.6-.05-0.87-0.3-0.79-0.78l0.7-3.99a4.516,4.516,0,0,1,1.04-1.04,2.445,2.445,0,0,1,1.37-.46,0.962,0.962,0,0,1,1.01,1.2l-0.68,3.81a1.184,1.184,0,0,1-1.28,1.26h-0.26l-0.06.36h4.21l0.07-.36h-0.33c-0.81-.02-1.02-0.29-0.85-1.14l0.67-3.83c0.25-1.41-.31-2.16-1.64-2.16a4.313,4.313,0,0,0-3.11,1.46l0.29-1.64a10.528,10.528,0,0,1-2.97.33l-0.07.41c0.99-.03,1.28.16,1.26,0.84l-0.81,4.6a1.152,1.152,0,0,1-1.32,1.13h-0.26Zm22.84-3.24,0.16-.89h-3.72l-0.16.89h3.72Z" transform="translate(-988.844 -2526.94)"/>
</svg>
