<svg xmlns="http://www.w3.org/2000/svg" width="513.82" height="112.48" viewBox="0 0 256.91 56.24">
  <defs>
    <style>
      .cls-1 {
        fill: #333;
        fill-rule: evenodd;
      }
    </style>
  </defs>
  <path id="とちぎ和牛100_ハンバーグの石窯焼き" data-name="とちぎ和牛100％ ハンバーグの石窯焼き" class="cls-1" d="M1052.29,4503.67c-3.07,1.42-4.73,3.31-4.73,5.4a4.02,4.02,0,0,0,2.04,3.39,10.3,10.3,0,0,0,5.02,1.05,19.559,19.559,0,0,0,5.31-.69c0.81-.29,1.12-0.6,1.12-1.06a1.836,1.836,0,0,0-1.75-1.7,4.21,4.21,0,0,0-1.27.31,14.784,14.784,0,0,1-4.51.84c-2.55,0-4.04-.96-4.04-2.59a4.219,4.219,0,0,1,2-3.34,10.865,10.865,0,0,1,2.56-1.25,20.436,20.436,0,0,0,2.74-.57c1.56-.44,1.97-0.65,1.97-1.09a2.225,2.225,0,0,0-1.92-1.65,0.853,0.853,0,0,0-.6.29,6.365,6.365,0,0,1-2.64,1.63,1.227,1.227,0,0,1-.53-1.3,20.4,20.4,0,0,1,.77-4.82,4.255,4.255,0,0,0,.31-1.51,1.516,1.516,0,0,0-.79-1.28,4.177,4.177,0,0,0-2.14-.72c-0.89,0-2.18.48-2.18,0.82,0,0.09.07,0.14,0.24,0.14a2.413,2.413,0,0,1,1.25.41,1.779,1.779,0,0,1,.69,1.73c0,0.24,0,.65-0.05,1.44-0.02.72-.02,1.03-0.02,1.46C1051.14,4501.56,1051.26,4502.06,1052.29,4503.67Zm23.35,9.65c0.07-.02.36-0.02,0.79-0.05a20.99,20.99,0,0,0,7.37-1.39c2.59-1.17,4.01-3,4.01-5.11,0-2.26-1.8-3.89-4.32-3.89a9.616,9.616,0,0,0-4.37,1.2,14.351,14.351,0,0,0-1.87,1.27,0.32,0.32,0,0,1-.12.1,0.552,0.552,0,0,1-.17-0.46,29.6,29.6,0,0,1,.94-5.52c3.38-.77,4.77-1.46,4.77-2.4a1.11,1.11,0,0,0-1.08-1.08c-0.29.02-.5,0.05-0.65,0.05a6.271,6.271,0,0,1-2.25-.48c0.07-.31.07-0.36,0.09-0.46a2.135,2.135,0,0,0,.1-0.65,1.2,1.2,0,0,0-.7-1.15,3.365,3.365,0,0,0-1.48-.41,1.92,1.92,0,0,0-1.54.58c0,0.07.05,0.09,0.14,0.09a0.95,0.95,0,0,1,.6.22,2.273,2.273,0,0,1,.75,2.07c0,0.48-.07,1.41-0.17,2.28a6.331,6.331,0,0,1-1.7.21c-1.66,0-2.55-.33-3.03-1.13a0.116,0.116,0,0,0-.07-0.07c-0.07,0-.12.05-0.12,0.17a2.662,2.662,0,0,0,2.71,2.62,13.326,13.326,0,0,0,2.04-.22,25.355,25.355,0,0,1-1.27,5.4,3.33,3.33,0,0,0-.41,1.42,2.835,2.835,0,0,0,1.99,2.09,0.692,0.692,0,0,0,.56-0.63c0.74-2.09,3.45-4.2,5.44-4.2a2.707,2.707,0,0,1,2.5,2.98,3.589,3.589,0,0,1-1.01,2.54,8.942,8.942,0,0,1-3.55,2.33,21.631,21.631,0,0,1-5.21,1.27c-0.26.03-.33,0.08-0.33,0.2,0,0.14.09,0.21,0.33,0.21h0.29Zm2.88-17.38c0.12,0.05.36,0.17,0.74,0.34,0.63,0.29.65,0.31,0.65,0.5,0,0.31-.6.63-1.68,0.91C1078.38,4496.9,1078.4,4496.76,1078.52,4495.94Zm35.47-3.58a1.113,1.113,0,0,0-1.03.29,0.259,0.259,0,0,0,.26.19,3.833,3.833,0,0,1,2.11,1.73,0.756,0.756,0,0,0,.75.58,1,1,0,0,0,1.05-.91C1117.13,4493.28,1115.62,4492.36,1113.99,4492.36Zm-2.62,1.52a1.083,1.083,0,0,0-1.03.26,0.264,0.264,0,0,0,.22.22,3.639,3.639,0,0,1,2.23,1.92,0.6,0.6,0,0,0,.62.33,0.98,0.98,0,0,0,1.03-.88C1114.44,4494.76,1112.96,4493.88,1111.37,4493.88Zm-5.25.31a0.3,0.3,0,0,0,.02-0.1c0-.6-1.49-1.27-2.81-1.27a2.46,2.46,0,0,0-1.73,1.06,0.157,0.157,0,0,0,.17.09c1.27-.05,2.11.7,3.94,3.58a8.956,8.956,0,0,1-3.15.62,2.039,2.039,0,0,1-1.8-.6,0.237,0.237,0,0,0-.21-0.16,0.177,0.177,0,0,0-.2.16,2.33,2.33,0,0,0,.6,1.06,3.034,3.034,0,0,0,2.26.96,12.352,12.352,0,0,0,3.41-.6,18.093,18.093,0,0,1,1.32,2.33,16.138,16.138,0,0,1-5.5.96c-1.7,0-2.78-.43-3.09-1.25-0.12-.26-0.12-0.29-0.2-0.29a0.319,0.319,0,0,0-.16.36,2.708,2.708,0,0,0,1.15,2.07,5.107,5.107,0,0,0,2.78.69,22.29,22.29,0,0,0,5.86-.91,14.009,14.009,0,0,1,1.66,3.39,0.258,0.258,0,0,1-.29.24,4.91,4.91,0,0,1-1.3-.27,10.421,10.421,0,0,0-3.14-.48c-3.15,0-5.26,1.49-5.26,3.72,0,2.43,2.76,4.11,6.75,4.11,1.63,0,2.4-.48,2.4-1.49a1.032,1.032,0,0,0-1.16-1.06,2.833,2.833,0,0,0-.45.03c-0.43.02-1.66,0.07-1.97,0.07-2.23,0-3.63-.86-3.63-2.28s1.23-2.31,3.25-2.31a8.038,8.038,0,0,1,5.68,2.84,1.679,1.679,0,0,0,.29.02,2.012,2.012,0,0,0,1.71-2.26,3.138,3.138,0,0,0-.92-2.08c-1.2-1.42-1.75-2.09-2.23-2.77a18.225,18.225,0,0,0,3.34-1.63,1.812,1.812,0,0,0,1.13-1.34,0.62,0.62,0,0,0-.53-0.55,8.706,8.706,0,0,0-1.9-.34c-0.19.67-1.03,1.27-3.14,2.21a16.156,16.156,0,0,1-1.25-2.11c1.87-.77,2.66-1.3,2.66-1.78a1.679,1.679,0,0,0-1.56-1.06,1.551,1.551,0,0,0-.96.63,5.546,5.546,0,0,1-.91.67,6.985,6.985,0,0,1-.93-2.76v-0.12Zm19.81,19.71a0.414,0.414,0,0,0,.46.5,4.944,4.944,0,0,0,1.18-.17,0.527,0.527,0,0,0,.45-0.55v-9.65a4.758,4.758,0,0,1,1.54,2.38c0.26,0.89.53,1.17,1.1,1.17a1,1,0,0,0,.99-1.15c0-1.44-1.2-2.4-3.63-2.93v-2.76h4.44a0.376,0.376,0,0,0,.41-0.31,0.855,0.855,0,0,0-.31-0.53l-1.63-1.56-1.32,1.75h-1.59v-4.39a27.322,27.322,0,0,0,2.91-.77l0.84,0.03h0.04a0.3,0.3,0,0,0,.34-0.22,0.587,0.587,0,0,0-.22-0.38l-1.65-1.71a37.451,37.451,0,0,1-7.8,3.68c-0.58.19-.65,0.24-0.65,0.38a0.2,0.2,0,0,0,.22.17c0.12,0,.28-0.03.45-0.05,0.12-.02.53-0.1,1.15-0.19,0.56-.07.92-0.15,2.28-0.39v3.84h-1.22c-0.26,0-.84,0-1.49-0.02l-1.73-.07,0.51,0.81c1.34-.04,1.89-0.07,2.71-0.07h1.22a19.706,19.706,0,0,1-4.17,8.76,1.163,1.163,0,0,0-.34.56,0.153,0.153,0,0,0,.15.17,3.115,3.115,0,0,0,1.17-.92,20.251,20.251,0,0,0,3.19-3.55v8.14Zm9.56-4.13h5.13v1.58a0.468,0.468,0,0,0,.48.58,7.8,7.8,0,0,0,1.37-.24,0.451,0.451,0,0,0,.34-0.53v-12.12l0.26-.1a0.641,0.641,0,0,0,.46-0.55,1.344,1.344,0,0,0-.31-0.67l-1.8-1.99-1.01,1.34h-4.71l-2.33-1.27v17.09a0.432,0.432,0,0,0,.44.48,9.979,9.979,0,0,0,.98-0.19c0.58-.17.7-0.29,0.7-0.63v-2.78Zm0-.65v-11.4h5.13v11.4h-5.13Zm12.71-4.3,0.53,0.92c2.59-.08,2.78-0.1,4.2-0.12h5.11v7.73a0.5,0.5,0,0,0,.58.6c1.13,0,1.8-.32,1.8-0.82v-7.51h9.55a0.336,0.336,0,0,0,.36-0.34,0.547,0.547,0,0,0-.24-0.41l-2.21-1.94-1.7,2.04h-5.76v-5.4h7.68a0.347,0.347,0,0,0,.36-0.36,0.565,0.565,0,0,0-.29-0.46l-2.02-1.82-1.68,1.99h-4.05v-5.02l0.6-.38a0.633,0.633,0,0,0,.31-0.51,0.491,0.491,0,0,0-.53-0.5l-2.76-.15v6.56h-4.2a16.659,16.659,0,0,0,1.06-2.26l0.29-.69,0.67-.29a0.584,0.584,0,0,0,.36-0.51,0.494,0.494,0,0,0-.34-0.45l-2.95-1.13c-0.75,4.63-1.39,6.65-2.91,9.22a1.932,1.932,0,0,0-.55,1.01,0.208,0.208,0,0,0,.19.21c0.56,0,2.5-2.28,3.85-4.46h4.53v5.4h-5.11c-0.02,0-1.11-.03-2.07-0.05Zm26.06,7.45h8.86v-0.68h-0.27c-2.09-.02-2.69-0.45-2.71-1.94v-15.46h-0.55c-1.2,1.01-2.93,1.56-5.5,1.73v0.55h1.3c1.99,0.07,2.18.31,2.16,2.45v10.49c0.02,1.61-.6,2.06-2.91,2.14h-0.38v0.72Zm18.55-17.43c1.06,0,1.8.67,2.33,2.06a17.609,17.609,0,0,1,.86,6.05c0,5.98-1.08,9-3.24,9-1.03,0-1.8-.64-2.35-1.96a20.322,20.322,0,0,1-.94-6.61,22.449,22.449,0,0,1,.84-6.26C1190.87,4495.51,1191.61,4494.84,1192.81,4494.84Zm-0.02-.68a5.185,5.185,0,0,0-4.64,2.93,12.6,12.6,0,0,0-1.41,6.29c0,5.5,2.4,9.22,5.97,9.22a5.012,5.012,0,0,0,4.71-3.05,13.715,13.715,0,0,0,1.37-6.33,12.327,12.327,0,0,0-1.49-6.25A4.983,4.983,0,0,0,1192.79,4494.16Zm15.91,0.68c1.05,0,1.8.67,2.32,2.06a17.343,17.343,0,0,1,.87,6.05c0,5.98-1.08,9-3.24,9-1.03,0-1.8-.64-2.36-1.96a20.361,20.361,0,0,1-.93-6.61,22.449,22.449,0,0,1,.84-6.26C1206.75,4495.51,1207.5,4494.84,1208.7,4494.84Zm-0.03-.68a5.161,5.161,0,0,0-4.63,2.93,12.487,12.487,0,0,0-1.42,6.29c0,5.5,2.4,9.22,5.98,9.22a5,5,0,0,0,4.7-3.05,13.591,13.591,0,0,0,1.37-6.33,12.226,12.226,0,0,0-1.49-6.25A4.962,4.962,0,0,0,1208.67,4494.16Zm15.67,0.17a4.179,4.179,0,0,0-3.98,4.42,4.4,4.4,0,0,0,1.1,3,4.134,4.134,0,0,0,2.9,1.42A4.437,4.437,0,0,0,1224.34,4494.33Zm0.02,0.63c1.23,0,1.9,1.27,1.9,3.55,0,2.57-.7,3.99-1.94,3.99-1.16,0-1.8-1.18-1.8-3.32C1222.52,4496.28,1223.09,4494.96,1224.36,4494.96Zm-1.17,18.29,0.79,0.48,12.75-20.67-0.82-.5Zm12.1-10.15a4.257,4.257,0,0,0-4.06,4.41,4.209,4.209,0,0,0,3.91,4.4,4.308,4.308,0,0,0,4.11-4.4A4.2,4.2,0,0,0,1235.29,4503.1Zm0,0.62c1.22,0,1.89,1.32,1.89,3.72a6.116,6.116,0,0,1-.65,3.07,1.339,1.339,0,0,1-1.29.8c-1.3,0-1.95-1.28-1.95-3.8C1233.29,4505.09,1234.01,4503.72,1235.29,4503.72Zm-210.47,29.15c-0.19.02-.29,0.07-0.29,0.19,0,0.1.02,0.12,0.41,0.29,1.7,0.77,3.62,3.55,4.82,6.99a4.736,4.736,0,0,0,.58,1.65,0.879,0.879,0,0,0,.77.41,1.617,1.617,0,0,0,1.56-1.68c0-1.68-1.52-4.2-3.51-5.86C1027.79,4533.73,1025.75,4532.8,1024.82,4532.87Zm-5.67.55c-0.31,0-.45.05-0.45,0.17,0,0.07.02,0.1,0.14,0.14a1.253,1.253,0,0,1,.58,1.2c0,0.99-.84,2.6-2.23,4.28a14.925,14.925,0,0,1-4.97,4.13,0.539,0.539,0,0,0-.39.33,0.2,0.2,0,0,0,.22.19,12.328,12.328,0,0,0,3.98-1.6c2.09-1.2,3.27-2.36,5.62-5.48a2.531,2.531,0,0,1,.5-0.53,0.487,0.487,0,0,0,.24-0.36,2.447,2.447,0,0,0-1-1.44A3.118,3.118,0,0,0,1019.15,4533.42Zm24.05-3.02c-0.87,0-1.47.12-1.47,0.31,0,0.07.07,0.12,0.27,0.17a7.018,7.018,0,0,1,3.5,3.21c0.34,0.72.55,0.92,1.03,0.92a1.324,1.324,0,0,0,1.32-1.28C1047.85,4532.08,1045.52,4530.4,1043.2,4530.4Zm15.41,0.07a0.623,0.623,0,0,0-.36.29,54.191,54.191,0,0,1-8.09,7.78c-2.62,2.06-4.85,3.24-6.15,3.24a1.912,1.912,0,0,1-1.41-.58c-0.12-.24-0.15-0.24-0.22-0.24a0.986,0.986,0,0,0-.34.96c0,0.53.34,1.03,1.25,1.9a3.17,3.17,0,0,0,1.68,1.01,0.729,0.729,0,0,0,.34-0.15c0.17-.12.31-0.26,0.45-0.38a3.1,3.1,0,0,1,.46-0.31,36.152,36.152,0,0,0,10.23-9.3,18.264,18.264,0,0,0,2.32-4.05A0.2,0.2,0,0,0,1058.61,4530.47Zm13.36,3.07c-0.31,0-.46.05-0.46,0.17,0,0.07.03,0.1,0.15,0.14a1.267,1.267,0,0,1,.57,1.2c0,0.99-.84,2.6-2.23,4.28a14.925,14.925,0,0,1-4.97,4.13,0.513,0.513,0,0,0-.38.33,0.2,0.2,0,0,0,.21.2,12.266,12.266,0,0,0,3.99-1.61c2.09-1.2,3.26-2.36,5.61-5.48a2.337,2.337,0,0,1,.51-0.53,0.487,0.487,0,0,0,.24-0.36,2.484,2.484,0,0,0-1.01-1.44A3.1,3.1,0,0,0,1071.97,4533.54Zm5.66-.55c-0.19.02-.29,0.07-0.29,0.19,0,0.1.03,0.12,0.41,0.29,1.71,0.77,3.63,3.55,4.83,6.99a5.2,5.2,0,0,0,.57,1.65,0.891,0.891,0,0,0,.77.41,1.61,1.61,0,0,0,1.56-1.68c0-2.21-2.42-5.5-5.16-6.99A7.021,7.021,0,0,0,1077.63,4532.99Zm1.78-3.77c-0.65,0-1.01.1-1.01,0.29a0.187,0.187,0,0,0,.17.17,3.623,3.623,0,0,1,2.06,1.61,0.933,0.933,0,0,0,.84.67,1,1,0,0,0,1.06-.89C1082.53,4530.11,1081.04,4529.22,1079.41,4529.22Zm3-1.51a1.148,1.148,0,0,0-1.06.31,0.225,0.225,0,0,0,.17.17,3.517,3.517,0,0,1,2.09,1.56c0.43,0.7.53,0.77,0.86,0.77a1.071,1.071,0,0,0,1.08-.94C1085.55,4528.62,1084.02,4527.71,1082.41,4527.71Zm26.75,8.02a18.476,18.476,0,0,1-3.81.81c-1.66.2-7.63,0.56-9.46,0.56-1.92,0-2.71-.22-3.07-0.82a0.358,0.358,0,0,0-.24-0.24c-0.24,0-.36.24-0.36,0.67a2.257,2.257,0,0,0,.86,1.95,4.375,4.375,0,0,0,2.07.79,1.151,1.151,0,0,0,.33-0.07c1.8-.72,5.36-1.06,11.36-1.06,0.88,0,1.6.02,2.11,0.07,1.03,0.1,1.8.17,2.01,0.17a1.01,1.01,0,0,0,1.23-.79C1112.19,4536.83,1111.18,4536.13,1109.16,4535.73Zm27.26-9.53q-0.93,0-.93.21a0.177,0.177,0,0,0,.14.19,4.029,4.029,0,0,1,2.43,2.02,0.651,0.651,0,0,0,.67.39,0.894,0.894,0,0,0,.98-0.92C1139.71,4527.04,1138.25,4526.2,1136.42,4526.2Zm-2.8,1.56c-0.56,0-.75.04-0.75,0.21,0,0.1.05,0.12,0.31,0.22a3.718,3.718,0,0,1,1.97,1.92,0.7,0.7,0,0,0,.72.58,0.943,0.943,0,0,0,.99-0.96C1136.86,4528.69,1135.32,4527.76,1133.62,4527.76Zm-5.55,5.57a1.4,1.4,0,0,0,.79.31,11.2,11.2,0,0,0,1.8-.41,6.291,6.291,0,0,1,1.06-.24,0.47,0.47,0,0,1,.46.48,7.046,7.046,0,0,1-1.11,2.71,27.416,27.416,0,0,1-5.42,6.6,21.176,21.176,0,0,1-6.32,3.92c-0.19.07-.26,0.12-0.26,0.21a0.181,0.181,0,0,0,.17.15,11.276,11.276,0,0,0,2.49-.65,23.5,23.5,0,0,0,8.38-5.4c1.71-1.71,2.47-2.86,4.73-6.94,0.29-.29.41-0.38,0.62-0.58a0.582,0.582,0,0,0,.29-0.36,4.887,4.887,0,0,0-2.33-2.13,1.842,1.842,0,0,0-.84.38,9.14,9.14,0,0,1-3.72,1.3,1.4,1.4,0,0,1-.4-0.07,9.766,9.766,0,0,0,1.12-2.21,2.3,2.3,0,0,0-1.03-1.2,3.564,3.564,0,0,0-1.99-.7,1.027,1.027,0,0,0-.96.31c0,0.05.05,0.1,0.24,0.15a1.523,1.523,0,0,1,.72,1.49c0,2.4-3.1,7.15-5.93,9.12a0.409,0.409,0,0,0-.22.26,0.17,0.17,0,0,0,.15.15,8.017,8.017,0,0,0,1.8-.87A18.6,18.6,0,0,0,1128.07,4533.33Zm27.28-3a4.365,4.365,0,0,1,.51-0.03,5.783,5.783,0,0,1,2.47.58c2.09,1.05,3.17,3.24,3.17,6.46a8.235,8.235,0,0,1-3.07,6.84,12.978,12.978,0,0,1-4.3,2.23c-0.38.12-.46,0.14-0.46,0.26,0,0.1.1,0.15,0.24,0.15a9.923,9.923,0,0,0,1.54-.29,14.7,14.7,0,0,0,4.44-1.63,8.845,8.845,0,0,0,4.44-7.68,7.228,7.228,0,0,0-1.9-5.07,9.221,9.221,0,0,0-6.74-2.64c-5.62,0-10.44,4.54-10.44,9.82a6.158,6.158,0,0,0,1.18,3.86,2.861,2.861,0,0,0,2.01,1.32c1.32,0,3.41-1.7,4.83-3.91a15.5,15.5,0,0,0,2.4-7.8A9.162,9.162,0,0,0,1155.35,4530.33Zm-1.17.09a0.687,0.687,0,0,0,.05.17,6.127,6.127,0,0,1,.14,1.34,14.063,14.063,0,0,1-2.45,7.18c-1.01,1.59-2.37,2.83-3.12,2.83s-1.39-1.24-1.39-2.66a9.4,9.4,0,0,1,2.83-6.7A9.152,9.152,0,0,1,1154.18,4530.42Zm24.38,15.49h8.06v1.32c0,0.24.12,0.33,0.41,0.33,0.79,0,1.82-.38,1.82-0.67v-8.02l0.65-.29a0.575,0.575,0,0,0,.31-0.48,0.635,0.635,0,0,0-.24-0.45l-2.3-2.16-0.94,1.44h-7.72l-0.51-.43a30.066,30.066,0,0,0,3.15-7.06h10.84a0.31,0.31,0,0,0,.29-0.34,0.369,0.369,0,0,0-.17-0.31l-2.4-1.92-1.72,1.92h-12.53c-0.34,0-1.13-.03-2-0.05l-2.73-.07,0.57,0.89,2.33-.07c0.77-.05,1.42-0.05,1.83-0.05h3.05a23.49,23.49,0,0,1-8.19,13.61,0.6,0.6,0,0,0-.26.31,0.158,0.158,0,0,0,.14.17,10.755,10.755,0,0,0,2.23-1.35,24.308,24.308,0,0,0,3.84-3.43v8.98c0,0.22.12,0.31,0.41,0.31,0.84,0,1.78-.33,1.78-0.62v-1.51Zm0-.65v-7.68h8.06v7.68h-8.06Zm19.19-1.97c1.99-.1,2.59-0.12,4.15-0.12h16.49a0.3,0.3,0,0,0,.32-0.29,0.553,0.553,0,0,0-.2-0.36l-2.04-1.75-1.53,1.75h-6.32v-2.33h6.56a0.341,0.341,0,0,0,.29-0.31,0.7,0.7,0,0,0-.22-0.41l-1.94-1.68-1.47,1.75h-3.22v-2.04h8.12a0.291,0.291,0,0,0,.29-0.33,0.494,0.494,0,0,0-.2-0.36l-2.04-1.78-1.53,1.83h-2.79a18.911,18.911,0,0,1,1.66-1.23h0.55a0.4,0.4,0,0,0,.39-0.41,0.383,0.383,0,0,0-.2-0.33l-0.96-.56,0.6,0.03c2.4,0,3.39-.03,4.06-0.1a0.97,0.97,0,0,0,1.08-.79,0.832,0.832,0,0,0-.62-0.77,0.313,0.313,0,0,1-.27-0.31c0-.02.03-0.24,0.05-0.41,0.05-.62.07-0.79,0.07-0.91,0-.1-0.02-0.17-0.09-0.17a0.715,0.715,0,0,0-.44.43,4.55,4.55,0,0,1-.84,1.2c-0.26.24-.72,0.29-2.16,0.29-2.8,0-2.8,0-2.8-.6v-2.4h4.34a17.8,17.8,0,0,1-.98,2.11,2.617,2.617,0,0,0-.24.53,0.106,0.106,0,0,0,.09.12,0.993,0.993,0,0,0,.51-0.24c0.14-.07.28-0.17,0.45-0.26,0.19-.15.46-0.31,0.7-0.48a10.958,10.958,0,0,1,1.27-.77h1.08a0.459,0.459,0,0,0,.48-0.43,0.761,0.761,0,0,0-.24-0.48l-2.21-2.16-0.98,1.41h-6.1v-1.8l0.46-.19a0.51,0.51,0,0,0-.2-0.98l-2.44-.15v3.12h-5.72c-0.16-1.1-.31-1.49-0.6-1.49a0.279,0.279,0,0,0-.24.34,3.311,3.311,0,0,1-1.46,2.67c-0.91.74-1.01,0.86-1.01,1.36a1.114,1.114,0,0,0,1.08,1.18,2.321,2.321,0,0,0,1.92-1.46,5.41,5.41,0,0,0,.36-1.95h3.7c-0.43,2.55-2.4,4.13-6.34,5.14-0.29.09-.38,0.17-0.38,0.29a0.2,0.2,0,0,0,.24.19,18.514,18.514,0,0,0,4.75-1.15,3.035,3.035,0,0,1,1.08,1.53,5.409,5.409,0,0,0,.24.63,3.165,3.165,0,0,0,.19.41h-1.61c-1.03,0-2.06-.03-4.72-0.15l0.5,0.91c2.57-.09,3.41-0.12,4.27-0.12h3.84v2.04h-2.85c-0.99,0-1.88-.02-4.18-0.12l0.53,0.87c1.8-.07,2.47-0.1,3.65-0.1h2.85v2.33h-4.73c-1.05,0-2.11-.02-4.7-0.12Zm10.87-13.47v3.15c0,1.08.27,1.27,1.83,1.29a17.477,17.477,0,0,1-1.01,2.6h-3.48a1.179,1.179,0,0,0,.22-0.68,1.945,1.945,0,0,0-1.04-1.61,5.048,5.048,0,0,0-1.63-.57,5.545,5.545,0,0,0,3.07-3.87,0.848,0.848,0,0,0,.1-0.31h1.94Zm-7.96,13.76a0.3,0.3,0,0,0-.27.26,3.622,3.622,0,0,1-1.8,2.16c-1.1.72-1.2,0.82-1.2,1.35a1.263,1.263,0,0,0,1.37,1.27,2.51,2.51,0,0,0,1.85-1.27,4.58,4.58,0,0,0,.48-2.19C1201.09,4544.08,1200.94,4543.58,1200.66,4543.58Zm2.73,0.07a0.165,0.165,0,0,0-.17.14,0.565,0.565,0,0,0,.15.27,5.585,5.585,0,0,1,.72,3.05c0.05,1.03.36,1.46,1.03,1.46a1.316,1.316,0,0,0,1.34-1.46c0-1.13-.57-1.97-1.92-2.86A3.831,3.831,0,0,0,1203.39,4543.65Zm4.11,0.19a0.159,0.159,0,0,0-.17.15,0.4,0.4,0,0,0,.19.26,3.818,3.818,0,0,1,1.44,2.06c0.46,1.49.46,1.49,0.72,1.76a1.178,1.178,0,0,0,1.85-.96c0-1.18-.94-2.21-2.59-2.84A12.66,12.66,0,0,0,1207.5,4543.84Zm4.17-.26a0.219,0.219,0,0,0-.24.21,0.644,0.644,0,0,0,.39.36,9.094,9.094,0,0,1,2.73,2.48c0.96,1.44.99,1.46,1.52,1.46a1.281,1.281,0,0,0,1.27-1.25c0-1.15-1.06-2.06-3.15-2.71A16.853,16.853,0,0,0,1211.67,4543.58Zm19.75-10.83a0.4,0.4,0,0,0,.29-0.31,0.842,0.842,0,0,0-.39-0.55l-1.27-1.18a38.161,38.161,0,0,1-1.94,3.31v-6.1l0.53-.31a0.535,0.535,0,0,0-.29-1.03l-2.16-.19v9c0,5.79-.96,9.68-2.95,12.12a1,1,0,0,0-.32.51,0.16,0.16,0,0,0,.15.14,5.818,5.818,0,0,0,1.8-1.58,11.743,11.743,0,0,0,2.69-5.36,6.6,6.6,0,0,1,1.75,2.91c0.31,0.96.57,1.27,1.13,1.27a1.021,1.021,0,0,0,.91-1.2,3.051,3.051,0,0,0-.79-1.85,5.482,5.482,0,0,0-2.93-1.49,58.272,58.272,0,0,0,.5-6.12,19.016,19.016,0,0,0,3.07-1.97Zm-6.91-.82a0.153,0.153,0,0,0-.15.17,1.073,1.073,0,0,0,.03.27,4.509,4.509,0,0,1,.05.6,5.375,5.375,0,0,1-.89,3c-0.79,1.27-.82,1.29-0.82,1.73a0.9,0.9,0,0,0,.94.93c1.1,0,1.85-1.22,1.85-3C1225.52,4534.29,1224.87,4531.93,1224.51,4531.93Zm12.98,8.31v5.74c0,1.61.22,1.7,3.6,1.7a22.9,22.9,0,0,0,3.19-.14,1.14,1.14,0,0,0,1.08-.94,1.235,1.235,0,0,0-.62-0.93c-0.26-.22-0.26-0.24-0.26-0.8l0.02-1.22c0.02-.91.02-0.91,0.02-1.01,0-.24-0.04-0.34-0.14-0.34-0.12,0-.17.1-0.29,0.46a18.75,18.75,0,0,1-.98,2.55c-0.27.5-.46,0.55-1.9,0.55-1.61,0-1.73-.05-1.73-0.77v-4.85h4.9a0.423,0.423,0,0,0,.48-0.34,0.945,0.945,0,0,0-.38-0.52l-1.66-1.37-1.22,1.58h-0.94v-3.79h4.39a0.4,0.4,0,0,0,.46-0.34,0.7,0.7,0,0,0-.36-0.48l-1.85-1.53-1.34,1.7h-1.3v-1.7l0.36-.24a0.741,0.741,0,0,0,.34-0.51,0.554,0.554,0,0,0-.6-0.43l-1.95-.17v3.05h-4.63v-1.85l0.36-.17a0.446,0.446,0,0,0-.22-0.86l-2.01-.22v3.1h-0.24c-0.79,0-1.49-.02-3.22-0.1l0.39,0.82,1.36-.05c0.58-.02,1.08-0.02,1.47-0.02h0.24v3.79c-1.51-.02-1.73-0.02-3.27-0.09l0.46,0.81c1.46-.05,2.09-0.07,2.76-0.07h1.34c-0.12,4.06-1.27,6-4.6,7.68a0.519,0.519,0,0,0-.39.36,0.156,0.156,0,0,0,.19.15,4.684,4.684,0,0,0,1.42-.44,9.2,9.2,0,0,0,3.29-1.96c1.34-1.3,1.89-2.79,2.13-5.79h1.85Zm-3.31-.65v-3.79h4.63v3.79h-4.63Zm-3.1-8.59c1.42-.05,2.04-0.07,2.79-0.07h1.68v3.02a0.4,0.4,0,0,0,.41.48,5.415,5.415,0,0,0,1.22-.22,0.416,0.416,0,0,0,.36-0.48v-2.8h5.66a0.353,0.353,0,0,0,.41-0.27,0.832,0.832,0,0,0-.33-0.48l-1.78-1.51-1.37,1.61h-2.59v-2.55l0.58-.33a0.567,0.567,0,0,0,.33-0.46,0.59,0.59,0,0,0-.6-0.46l-2.3-.19v3.99h-1.68c-0.84,0-1.54-.03-3.22-0.1Zm30.98,4.32a16.081,16.081,0,0,1-5.49.96c-1.71,0-2.79-.43-3.1-1.25-0.12-.26-0.12-0.29-0.19-0.29-0.1,0-.17.15-0.17,0.36a2.708,2.708,0,0,0,1.15,2.07,5.168,5.168,0,0,0,2.79.69,22.228,22.228,0,0,0,5.85-.91,13.6,13.6,0,0,1,1.66,3.39,0.258,0.258,0,0,1-.29.24,4.965,4.965,0,0,1-1.29-.27,10.516,10.516,0,0,0-3.15-.48c-3.14,0-5.26,1.49-5.26,3.72,0,2.43,2.76,4.11,6.75,4.11,1.63,0,2.4-.48,2.4-1.49a1.024,1.024,0,0,0-1.15-1.06,2.881,2.881,0,0,0-.46.03c-0.43.02-1.65,0.07-1.97,0.07-2.23,0-3.62-.86-3.62-2.28s1.22-2.31,3.24-2.31a8.059,8.059,0,0,1,5.69,2.84,1.622,1.622,0,0,0,.29.02c0.96,0,1.7-.98,1.7-2.26a3.171,3.171,0,0,0-.91-2.08c-1.2-1.42-1.75-2.09-2.23-2.77a18.118,18.118,0,0,0,3.33-1.63,1.812,1.812,0,0,0,1.13-1.34,0.62,0.62,0,0,0-.53-0.55,8.612,8.612,0,0,0-1.89-.34c-0.2.67-1.04,1.27-3.15,2.21a18.779,18.779,0,0,1-1.25-2.11c1.88-.77,2.67-1.3,2.67-1.78a1.69,1.69,0,0,0-1.56-1.06,1.527,1.527,0,0,0-.96.63,6,6,0,0,1-.91.67,6.9,6.9,0,0,1-.94-2.76,0.938,0.938,0,0,1,.02-0.22,0.79,0.79,0,0,0-.28-0.48,4.339,4.339,0,0,0-2.52-.79,2.439,2.439,0,0,0-1.73,1.06,0.15,0.15,0,0,0,.16.09c1.28-.05,2.12.7,3.94,3.58a8.9,8.9,0,0,1-3.14.62,2.027,2.027,0,0,1-1.8-.6,0.257,0.257,0,0,0-.22-0.16,0.167,0.167,0,0,0-.19.16,2.33,2.33,0,0,0,.6,1.06,3.012,3.012,0,0,0,2.25.96,12.293,12.293,0,0,0,3.41-.6A18.093,18.093,0,0,1,1262.06,4535.32Z" transform="translate(-1011.84 -4492.38)"/>
</svg>
