<svg xmlns="http://www.w3.org/2000/svg" width="1536.498" height="52.06" viewBox="0 0 768.249 26.03">
  <defs>
    <style>
      .cls-1 {
        fill: #333;
        fill-rule: evenodd;
      }
    </style>
  </defs>
  <path id="森のごちそうが詰まったおすすめのディナープレート" class="cls-1" d="M542.837,1653.78h4.088a0.391,0.391,0,0,0,.42-0.39,0.63,0.63,0,0,0-.28-0.48l-1.988-1.65-1.4,1.77h-0.84v-2.3l0.588-.28a0.6,0.6,0,0,0,.42-0.53,0.608,0.608,0,0,0-.56-0.59l-2.8-.28v3.98h-1.792c-0.224,0-.7,0-1.4-0.03-0.336-.03-1.288-0.06-2.324-0.09l0.588,0.96,1.764-.06c0.588-.03,1.064-0.03,1.372-0.03h1.6a20.294,20.294,0,0,1-5.516,7.45,1.233,1.233,0,0,0-.5.64,0.208,0.208,0,0,0,.2.2,7.829,7.829,0,0,0,1.848-1.09,22.755,22.755,0,0,0,4.172-3.5v5.35c0,0.42.2,0.58,0.672,0.58a2.594,2.594,0,0,0,1.148-.28,0.72,0.72,0,0,0,.532-0.78v-6.13a5,5,0,0,1,1.568,2.01c0.616,1.38.756,1.52,1.344,1.52a1.167,1.167,0,0,0,1.232-1.18,2.791,2.791,0,0,0-1.736-2.32,7.367,7.367,0,0,0-2.408-.62v-1.85Zm13.944-14.05-1.792,2.12h-6.076v-2.4l0.616-.37a0.74,0.74,0,0,0,.364-0.59,0.575,0.575,0,0,0-.56-0.5l-2.884-.22v4.08h-4.312c-0.532,0-1.372-.02-2.352-0.05l-3.136-.09,0.644,1.04c2.38-.11,3.3-0.14,4.844-0.14h2.884a29.416,29.416,0,0,1-9.464,7.59,0.458,0.458,0,0,0-.364.36,0.221,0.221,0,0,0,.224.2,21.271,21.271,0,0,0,4.34-1.77,32.974,32.974,0,0,0,6.692-4.28v5.15a0.514,0.514,0,0,0,.56.59,5.461,5.461,0,0,0,1.4-.28,0.557,0.557,0,0,0,.5-0.62v-6.38a18.516,18.516,0,0,0,8.96,6.78,6.4,6.4,0,0,1,2.912-2.38c-4.452-.48-9.072-2.47-11.536-4.96h9.912a0.337,0.337,0,0,0,.364-0.36,0.552,0.552,0,0,0-.224-0.4Zm1.568,11.39-1.6,1.91h-1.96v-2.33l0.532-.33a0.6,0.6,0,0,0,.308-0.51,0.481,0.481,0,0,0-.476-0.47l-2.744-.37v4.01H551.6c-1.512-.03-2.576-0.06-3.724-0.12l0.42,0.96c1.792-.06,2.492-0.09,3.3-0.09h0.644a21.7,21.7,0,0,1-6.216,7.45c-0.868.7-.9,0.73-0.9,0.9a0.188,0.188,0,0,0,.2.19,8.51,8.51,0,0,0,2.324-1.17,24.319,24.319,0,0,0,4.76-3.73v5.6c0,0.42.14,0.59,0.5,0.59a4.408,4.408,0,0,0,1.372-.25,0.654,0.654,0,0,0,.56-0.73v-7.2a15.869,15.869,0,0,0,4.088,6.16,5.475,5.475,0,0,1,2.324-2.26c-3.052-1.57-5.1-3.39-6.188-5.55h5.432a0.33,0.33,0,0,0,.364-0.33,0.633,0.633,0,0,0-.224-0.4Zm22.428-8.45a5.721,5.721,0,0,1,.588-0.03,6.711,6.711,0,0,1,2.884.67c2.436,1.23,3.7,3.78,3.7,7.53a9.567,9.567,0,0,1-3.584,7.98,15.127,15.127,0,0,1-5.012,2.61c-0.448.14-.532,0.16-0.532,0.3,0,0.12.112,0.17,0.28,0.17a11.941,11.941,0,0,0,1.792-.33,17.3,17.3,0,0,0,5.18-1.91,10.3,10.3,0,0,0,5.18-8.96,8.462,8.462,0,0,0-2.212-5.91,10.811,10.811,0,0,0-7.868-3.08c-6.552,0-12.18,5.3-12.18,11.46a7.23,7.23,0,0,0,1.372,4.5,3.364,3.364,0,0,0,2.352,1.54c1.54,0,3.976-1.98,5.628-4.56a18.025,18.025,0,0,0,2.8-9.1A10.627,10.627,0,0,0,580.777,1642.67Zm-1.372.11a1.525,1.525,0,0,0,.056.19,6.823,6.823,0,0,1,.168,1.57,16.459,16.459,0,0,1-2.856,8.37c-1.176,1.85-2.772,3.31-3.64,3.31s-1.624-1.46-1.624-3.11a10.957,10.957,0,0,1,3.3-7.81A10.519,10.519,0,0,1,579.405,1642.78Zm42.28-4.62c-0.728,0-1.26.14-1.26,0.36,0,0.11.112,0.17,0.42,0.28a4.377,4.377,0,0,1,2.492,2.21,0.77,0.77,0,0,0,.756.42,1.181,1.181,0,0,0,1.232-1.09C625.325,1639.22,623.533,1638.16,621.685,1638.16Zm-3,2.24c-0.672,0-1.12.11-1.12,0.31,0,0.16.056,0.22,0.392,0.3a4.2,4.2,0,0,1,2.324,1.96,0.935,0.935,0,0,0,.84.65,1.206,1.206,0,0,0,1.232-1.07C622.357,1641.43,620.621,1640.4,618.689,1640.4Zm-11.7.25c-0.084,0-.112.06-0.112,0.17a4.68,4.68,0,0,0,3.836,4.34,0.218,0.218,0,0,1,.224.22,0.419,0.419,0,0,1-.168.28,9.9,9.9,0,0,0-1.764,1.91,0.153,0.153,0,0,0,.14.14,4.481,4.481,0,0,0,.616-0.28,18.089,18.089,0,0,1,6.888-1.74c1.036-.03,1.484-0.28,1.484-0.84a4.07,4.07,0,0,0-.42-1.43,1.664,1.664,0,0,0-1.4-1.01,5.7,5.7,0,0,0-1.26.26,9.825,9.825,0,0,1-2.52.36c-2.128,0-4.648-1.04-5.4-2.24A0.209,0.209,0,0,0,606.985,1640.65Zm-0.98,10.7c-0.588,0-1.344,1.93-1.344,3.44,0,4.14,3.332,6.41,9.352,6.41a21.442,21.442,0,0,0,5.768-.7,1.646,1.646,0,0,0,1.456-1.65,1.742,1.742,0,0,0-1.932-1.57,3.775,3.775,0,0,0-1.232.28,19.9,19.9,0,0,1-5.32.81,9.71,9.71,0,0,1-4.844-1.09,4.58,4.58,0,0,1-2.016-4.03,8.135,8.135,0,0,1,.2-1.68,0.209,0.209,0,0,0,.028-0.11A0.115,0.115,0,0,0,606.005,1651.35Zm34.16,11.14c0.084-.03.42-0.03,0.924-0.06a24.553,24.553,0,0,0,8.6-1.62c3.024-1.37,4.676-3.5,4.676-5.96,0-2.64-2.1-4.54-5.04-4.54a11.15,11.15,0,0,0-5.1,1.4,17.482,17.482,0,0,0-2.184,1.48,0.3,0.3,0,0,1-.14.12,0.641,0.641,0,0,1-.2-0.54,34.74,34.74,0,0,1,1.092-6.44c3.948-.89,5.572-1.7,5.572-2.8a1.308,1.308,0,0,0-1.26-1.26c-0.336.03-.588,0.06-0.756,0.06a7.318,7.318,0,0,1-2.632-.56c0.084-.36.084-0.42,0.112-0.53a2.6,2.6,0,0,0,.112-0.76,1.409,1.409,0,0,0-.812-1.34,3.95,3.95,0,0,0-1.736-.48c-0.784,0-1.792.39-1.792,0.67,0,0.09.056,0.12,0.168,0.12a1.1,1.1,0,0,1,.7.25c0.588,0.36.868,1.17,0.868,2.41,0,0.56-.084,1.65-0.2,2.66a7.265,7.265,0,0,1-1.988.25c-1.932,0-2.968-.39-3.528-1.32a0.125,0.125,0,0,0-.084-0.08c-0.084,0-.14.05-0.14,0.19a3.109,3.109,0,0,0,3.164,3.06,14.891,14.891,0,0,0,2.38-.26,29.22,29.22,0,0,1-1.484,6.3,3.881,3.881,0,0,0-.476,1.66,3.312,3.312,0,0,0,2.324,2.43c0.28,0,.448-0.19.644-0.73,0.868-2.43,4.032-4.9,6.356-4.9,1.652,0,2.912,1.49,2.912,3.48a4.2,4.2,0,0,1-1.176,2.96,10.552,10.552,0,0,1-4.144,2.72,25.394,25.394,0,0,1-6.076,1.48c-0.308.03-.392,0.09-0.392,0.23,0,0.17.112,0.25,0.392,0.25h0.336Zm3.36-20.27c0.14,0.05.42,0.19,0.868,0.39,0.728,0.34.756,0.36,0.756,0.59,0,0.36-.7.73-1.96,1.06C643.357,1643.34,643.385,1643.17,643.525,1642.22Zm32.368,9.63c-1.26,2.24-1.6,3.22-1.6,4.73,0,3.73,2.828,5.97,7.532,5.97,1.26,0,2.016-.48,2.016-1.24a1.965,1.965,0,0,0-1.68-2.07,3.174,3.174,0,0,0-.5.03c-0.308.03-.616,0.03-0.9,0.03a8.541,8.541,0,0,1-2.884-.45,3.183,3.183,0,0,1-2.156-2.94,5.14,5.14,0,0,1,1.848-3.78c1.4-1.09,3.024-1.51,5.964-1.51a10.805,10.805,0,0,1,1.736.11,4.637,4.637,0,0,0,.616.03,0.783,0.783,0,0,0,.952-0.62,3.19,3.19,0,0,0-2.38-2.35c-0.868,0-8.708,2.8-10.64,3.81a2.261,2.261,0,0,1-1.232.42,0.219,0.219,0,0,1-.252-0.14,8.71,8.71,0,0,1,1.652-2.3,29.012,29.012,0,0,1,7.952-6.16,1.408,1.408,0,0,0,1.036-1.31c0-1.24-1.988-2.83-3.5-2.83a1.915,1.915,0,0,0-1.092.31,19.971,19.971,0,0,1-4.508,1.65,1.07,1.07,0,0,1-1.008-.87c-0.028-.2-0.084-0.28-0.168-0.28a1.729,1.729,0,0,0-.588,1.4,2.409,2.409,0,0,0,2.016,2.18,2.61,2.61,0,0,0,1.68-.98c1.4-1.31,2.436-1.98,3.024-1.98a0.722,0.722,0,0,1,.476.81c0,0.39-.448.92-4.7,5.49-0.672.72-1.372,1.48-2.072,2.21-0.028.05-.756,0.75-1.456,1.4-2.1,1.93-2.1,1.93-2.268,2.21a2.482,2.482,0,0,0-.224,1.18c0,1.42.308,2.04,1.008,2.04a0.957,0.957,0,0,0,.756-0.45A13.134,13.134,0,0,1,675.893,1651.85Zm34.944-8.57a7.215,7.215,0,0,1,1.288.09c0.392,0.02.644,0.05,0.9,0.05,1.064,0,1.512-.25,1.512-0.84,0-1.15-.7-2.18-1.484-2.18-0.084,0-.252.03-0.5,0.05a8.146,8.146,0,0,1-.952.06c-2.464,0-3.752-.7-4.424-2.38-0.056-.2-0.112-0.25-0.2-0.25a1.411,1.411,0,0,0-.28,1.12,3.693,3.693,0,0,0,1.9,3.13c0.28,0.14.336,0.17,0.336,0.26a0.5,0.5,0,0,1-.224.28,5.562,5.562,0,0,0-1.484,1.17,0.138,0.138,0,0,0,.14.09,0.2,0.2,0,0,0,.112-0.03A11.059,11.059,0,0,1,710.837,1643.28Zm-6.972,3.56c-0.28,0-.644,1.09-0.644,1.85a2.605,2.605,0,0,0,2.212,2.77,2.477,2.477,0,0,0,1.344-.81,22.64,22.64,0,0,1,2.66-2.22,5.752,5.752,0,0,1,2.8-1.2c1.456,0,2.3,1.62,2.3,4.54a10.82,10.82,0,0,1-3.248,7.92,20.612,20.612,0,0,1-5.348,3.44,0.492,0.492,0,0,0-.42.31,0.211,0.211,0,0,0,.252.14,23.234,23.234,0,0,0,4.34-1.4c4.7-2.04,7.42-5.93,7.42-10.55,0-3.53-1.736-5.72-4.564-5.72-1.4,0-2.688.42-5.488,1.77a4.29,4.29,0,0,1-1.932.64,1.693,1.693,0,0,1-1.568-1.34A0.147,0.147,0,0,0,703.865,1646.84Zm43.176-7a1.3,1.3,0,0,0-1.2.33c0,0.12.084,0.2,0.392,0.28a4.007,4.007,0,0,1,2.128,1.63c0.616,0.98.616,0.98,1.092,0.98a1.188,1.188,0,0,0,1.232-1.09C750.681,1640.87,748.889,1639.84,747.041,1639.84Zm3.724-1.6c-0.728,0-1.232.14-1.232,0.34,0,0.14.056,0.19,0.42,0.31a4.662,4.662,0,0,1,2.324,1.87c0.42,0.73.56,0.81,1.008,0.81a1.223,1.223,0,0,0,1.232-1.09C754.517,1639.33,752.669,1638.24,750.765,1638.24Zm-14.476,2.69c1.036,0,1.68.87,1.68,2.3a17.405,17.405,0,0,1-.42,3.66,20.322,20.322,0,0,1-4.676,1.1,1.648,1.648,0,0,1-1.484-.79c-0.084-.31-0.112-0.33-0.224-0.33a0.815,0.815,0,0,0-.28.84c0,1.45.868,2.63,1.932,2.63a3.509,3.509,0,0,0,1.6-.56c1.036-.53,1.344-0.67,2.8-1.37a27.965,27.965,0,0,1-5.544,10.19c-0.84.89-.98,1.12-0.98,1.54a1.339,1.339,0,0,0,1.456,1.23,2.28,2.28,0,0,0,1.4-.48,5.7,5.7,0,0,0,1.008-1.45,60.219,60.219,0,0,0,4.984-11.82,6.74,6.74,0,0,1,2.072-.5c1.036,0,1.512.78,1.512,2.49a20.237,20.237,0,0,1-1.316,7.14,2.068,2.068,0,0,1-1.6,1.51c-0.392,0-.56-0.11-2.072-1.4a2.029,2.029,0,0,0-.812-0.56,0.216,0.216,0,0,0-.2.17,0.8,0.8,0,0,0,.28.42,6.262,6.262,0,0,1,1.4,3.42c0.056,0.78.224,0.95,0.9,0.95a4.925,4.925,0,0,0,3.864-2.24c1.12-1.68,1.876-5.1,1.876-8.4,0-2.97-1.26-4.62-3.556-4.62a7.759,7.759,0,0,0-2.016.31,28.479,28.479,0,0,0,.84-4.18c0-.86-1.736-2.01-3.052-2.01a2.562,2.562,0,0,0-1.764.73,0.156,0.156,0,0,0,.14.11,0.287,0.287,0,0,0,.14-0.03h0.112Zm13.86,11.48c1.484,0,2.044.17,2.772,0.87a1.043,1.043,0,0,0,.756.36c0.924,0,1.512-.87,1.512-2.21a6.878,6.878,0,0,0-6.888-6.64c-0.728,0-1.12.12-1.12,0.31,0,0.14.056,0.2,0.364,0.23a5.975,5.975,0,0,1,3.472,2.24,4.953,4.953,0,0,1,1.26,2.63,0.968,0.968,0,0,1-.728.89,18.17,18.17,0,0,1-2.548.96c-0.2.05-.28,0.11-0.28,0.22a0.219,0.219,0,0,0,.224.22c0.112,0,.308-0.02.56-0.05A3.371,3.371,0,0,1,750.149,1652.41Zm12.124-7.95c1.792-.06,2.408-0.09,3.136-0.09h7.056a0.518,0.518,0,0,0,.448-0.58,0.412,0.412,0,0,0-.224-0.42l-2.156-1.91-1.988,2.16h-3.136c-0.784,0-1.6-.03-3.752-0.11Zm3.108,16.69h3.192v0.61a0.433,0.433,0,0,0,.476.53,4.461,4.461,0,0,0,1.428-.25,0.626,0.626,0,0,0,.532-0.64v-5.52l0.532-.28a0.621,0.621,0,0,0,.336-0.5,0.891,0.891,0,0,0-.28-0.56l-2.1-2.05-1.148,1.6h-2.492l-2.8-1.51v10.08a0.52,0.52,0,0,0,.644.59,4.058,4.058,0,0,0,1.288-.26,0.441,0.441,0,0,0,.392-0.47v-1.37Zm0-.76v-5.54h3.192v5.54h-3.192Zm-2.184-9.13h8.176a0.346,0.346,0,0,0,.364-0.39,0.754,0.754,0,0,0-.2-0.48l-1.848-1.56-1.54,1.68H763.2v0.75Zm-0.056-10.36h8.372a0.391,0.391,0,0,0,.42-0.39,0.69,0.69,0,0,0-.224-0.45l-2.044-1.76-1.708,1.85h-4.816v0.75Zm0.14,6.95h8.2a0.37,0.37,0,0,0,.336-0.37,0.678,0.678,0,0,0-.2-0.45l-1.876-1.62-1.512,1.68h-4.956v0.76Zm9.716,1.17,0.56,0.95,1.848-.05c0.56-.03,1.008-0.03,1.344-0.03h10.108a0.36,0.36,0,0,0,.392-0.36,0.686,0.686,0,0,0-.252-0.51l-2.156-1.93-1.876,2.04h-1.792v-4.84h6.86a0.414,0.414,0,0,0,.448-0.45c0-.19,0-0.19-0.392-0.53l-2.3-1.93-2.016,2.15h-2.6v-3.75l0.616-.31a0.663,0.663,0,0,0,.392-0.61,0.636,0.636,0,0,0-.644-0.65l-3.024-.28v5.6h-1.624c-1.568,0-1.876,0-3.752-.11l0.532,0.95c0.756-.02,1.428-0.02,1.652-0.05l1.568-.03h1.624v4.84h-1.764c-0.084,0-.728,0-1.372-0.02Zm3.612,12.13h6.608v1.17a0.428,0.428,0,0,0,.5.51,5.991,5.991,0,0,0,1.568-.31,0.792,0.792,0,0,0,.5-0.87v-6.44l0.42-.22a0.6,0.6,0,0,0,.336-0.51,1.077,1.077,0,0,0-.42-0.7l-2.1-2.15-1.2,1.7H777l-2.912-1.54v11.06a0.529,0.529,0,0,0,.644.56c1.12,0,1.876-.3,1.876-0.78v-1.48Zm0-.76v-6.3h6.608v6.3h-6.608Zm30.436-9.94a29.518,29.518,0,0,1-3.528.28c-2.212,0-3.668-.53-4.228-1.57-0.224-.36-0.224-0.39-0.364-0.39a0.156,0.156,0,0,0-.14.11v0.03a0.412,0.412,0,0,1,.028.22,4.69,4.69,0,0,0,.9,2.08c0.784,0.95,1.96,1.4,3.836,1.4a24.805,24.805,0,0,0,3.528-.31c0,0.81,0,.92.028,2.15l0.028,1.68a10.473,10.473,0,0,0-1.372-.08,8.734,8.734,0,0,0-4.508.84,2.555,2.555,0,0,0-1.456,2.24c0,1.85,2.072,3.14,5.068,3.14,2.744,0,4.872-1.38,4.872-3.17v-0.39a14.2,14.2,0,0,1,3.164,2.69,1.466,1.466,0,0,0,1.2.64,1.124,1.124,0,0,0,1.176-1.26c0-.84-0.532-1.59-1.708-2.43a11.439,11.439,0,0,0-3.976-1.8,46.158,46.158,0,0,1-.532-4.59c4.228-.95,6.272-1.93,6.272-3.02a0.924,0.924,0,0,0-.84-0.84l-0.364.03a3.79,3.79,0,0,1-1.792-.62,2.26,2.26,0,0,0-.532-0.39,0.175,0.175,0,0,0-.14.14,0.331,0.331,0,0,0,.112.22,1.769,1.769,0,0,1,.28.81c0,0.79-.644,1.15-3.192,1.8a10.759,10.759,0,0,1-.084-1.54c0-.96.028-1.38,0.084-2.13,2.324-.56,3.36-1.04,3.36-1.51,0-.54-0.812-1.1-1.988-1.35a1.526,1.526,0,0,1-1.232.76,7,7,0,0,1,.728-3.22,1.272,1.272,0,0,0,.2-0.56c0-.98-1.624-2.05-3.108-2.05a2.773,2.773,0,0,0-1.792.59c0,0.09.084,0.11,0.252,0.11a1.548,1.548,0,0,1,1.232,1.15c0.224,0.53.252,1.07,0.336,4.4a3.951,3.951,0,0,1-1.232.17,3.365,3.365,0,0,1-2.94-1.35,0.145,0.145,0,0,0-.14-0.11,0.168,0.168,0,0,0-.14.2c0,2.07,1.148,3.19,3.3,3.19,0.28,0,.476,0,1.288-0.06Zm0.168,7.48c0,1.7-.9,2.57-2.688,2.57-1.876,0-3.052-.64-3.052-1.65,0-1.04.84-1.48,2.828-1.48a10.02,10.02,0,0,1,2.912.39v0.17Zm35.868-9.52a3.366,3.366,0,0,1,3,1.56,5.6,5.6,0,0,1,.756,2.72c0,2.58-1.708,4.87-4.9,6.52a16.782,16.782,0,0,1-3.612,1.38c-0.252.05-.364,0.14-0.364,0.25,0,0.17.14,0.25,0.392,0.25a26.09,26.09,0,0,0,5.8-1.4c3.724-1.43,5.628-3.75,5.628-6.78,0-3.3-2.716-5.68-6.5-5.68-2.8,0-5.712.95-9.408,3.11a4.548,4.548,0,0,1-2.324.92,1.867,1.867,0,0,1-1.568-.7c-0.168-.36-0.2-0.36-0.28-0.36-0.168,0-.252.22-0.252,0.73a2.334,2.334,0,0,0,.9,2.01,4.017,4.017,0,0,0,2.156.93c0.56,0,.812-0.14,1.96-1.21C837.341,1649.97,840.533,1648.41,843.081,1648.41Zm34.188-.59c0.952,0,1.9.33,1.9,0.67,0,0.14,0,.14-0.952.76-0.756.53-1.148,0.78-1.176,0.81a0.308,0.308,0,0,0-.224.25,0.177,0.177,0,0,0,.168.14,1.067,1.067,0,0,0,.336-0.11,7.077,7.077,0,0,1,2.744-.51,8.123,8.123,0,0,1,1.736.2c0.364,0.08.448,0.11,0.5,0.11a0.768,0.768,0,0,0,.784-0.92c0-1.68-1.764-2.94-4.172-2.94a6.616,6.616,0,0,0-3.388.84,2.556,2.556,0,0,0-1.036,1.15,0.156,0.156,0,0,0,.14.11,0.1,0.1,0,0,0,.084-0.03A5.5,5.5,0,0,1,877.269,1647.82Zm1.036,10.92c-3.248,0-4.872-1.09-4.872-3.25a9.184,9.184,0,0,1,.224-1.82,0.309,0.309,0,0,0,.028-0.14,0.161,0.161,0,0,0-.14-0.17c-0.448,0-1.148,1.88-1.148,3.08a4.534,4.534,0,0,0,3.052,4.45,14.092,14.092,0,0,0,4.928.73c2.38,0,3.164-.39,3.164-1.59a1.67,1.67,0,0,0-1.9-1.66Zm-7.588-16.89,0.056-.28,0.056-.33c0.028-.03.056-0.14,0.112-0.25a1.4,1.4,0,0,0,.168-0.54c0-.75-1.68-1.82-2.884-1.82a2.188,2.188,0,0,0-1.708.82,0.166,0.166,0,0,0,.168.11,0.16,0.16,0,0,0,.112-0.03h0.056a2.171,2.171,0,0,1,.7.25,2.006,2.006,0,0,1,.812,1.93,18.927,18.927,0,0,1-.476,3.98,14.187,14.187,0,0,1-3.892.53,2.8,2.8,0,0,1-2.464-1.01c-0.168-.3-0.168-0.33-0.28-0.33-0.084,0-.14.08-0.14,0.22a4.479,4.479,0,0,0,.84,2.33,2.6,2.6,0,0,0,2.156,1.03,13.5,13.5,0,0,0,3.332-.45,39.273,39.273,0,0,1-4.844,11.71,1.991,1.991,0,0,0-.5,1.12,1.954,1.954,0,0,0,1.848,1.65,1.793,1.793,0,0,0,1.26-.56,5.981,5.981,0,0,0,1.092-2.44c1.176-3.64,2.268-7.56,3.36-12.06a21.826,21.826,0,0,0,3.78-1.91,1.745,1.745,0,0,0,.952-1.51,0.6,0.6,0,0,0-.644-0.67,5.2,5.2,0,0,1-3.052-1.4Zm-0.224.73a4.11,4.11,0,0,1,1.456,1.46,4.012,4.012,0,0,1-2.016,1.09l0.336-1.6Zm31.724,10.92c3.416-2.13,5.152-2.83,6.944-2.83,1.708,0,2.828,1.26,2.828,3.17a4.334,4.334,0,0,1-4.256,4.37,2.281,2.281,0,0,1-2.3-2.55,4.871,4.871,0,0,1,.448-1.91,0.7,0.7,0,0,0,.056-0.19,0.147,0.147,0,0,0-.112-0.14c-0.588,0-1.512,1.9-1.512,3.11a5.394,5.394,0,0,0,.588,2.43,3.362,3.362,0,0,0,3.192,1.54,6.524,6.524,0,0,0,6.608-6.41c0-2.74-1.988-4.56-4.9-4.56-2.184,0-4.284.7-7.616,2.49v-1.29c0-.76.028-1.32,0.056-2.07,3.08-1.18,4.648-2.38,4.648-3.59a0.713,0.713,0,0,0-.672-0.78,3,3,0,0,0-.42.03h-0.2a8.49,8.49,0,0,1-3.136-.87,3.389,3.389,0,0,1,.336-1.18,0.837,0.837,0,0,0,.14-0.36c0-.76-1.568-1.79-2.66-1.79-0.756,0-1.9.59-1.9,0.98a0.216,0.216,0,0,0,.2.17h0.056a0.483,0.483,0,0,1,.308-0.09c0.84,0,1.232.65,1.4,2.38,0.168,1.85.224,2.72,0.224,3.53a10.922,10.922,0,0,1-3.332.56c-1.148,0-1.736-.25-1.96-0.84a0.145,0.145,0,0,0-.14-0.11c-0.14,0-.2.19-0.2,0.64a2.241,2.241,0,0,0,2.492,2.21,13.615,13.615,0,0,0,3.22-.47c0.084,1.12.084,1.71,0.084,3.61-1.26.64-2.24,1.18-4.284,2.24-1.68.92-1.68,0.92-2.044,0.92a0.557,0.557,0,0,1-.364-0.14,0.656,0.656,0,0,0-.5-0.25,1.057,1.057,0,0,0-.924,1.15c0,1.12,1.316,2.74,2.24,2.74,0.336,0,.448-0.08,1.54-1.28,0.532-.56.56-0.62,0.9-0.98a4.513,4.513,0,0,1,2.3,3.86c0,0.64.084,0.78,0.5,0.78a2.822,2.822,0,0,0,2.52-2.43,1.5,1.5,0,0,0-.028-0.31c-0.14-1.6-.168-2.27-0.336-5.12Zm-1.372,3.75c0,0.56-.14.93-0.392,0.93a13.289,13.289,0,0,1-2.688-1.6c1.064-.87,1.6-1.29,3.08-2.32-0.028.75-.028,1.03-0.028,1.51Zm1.512-13.21c0.476,0.22,1.008.5,1.624,0.81,0.14,0.06.168,0.08,0.168,0.2,0,0.47-.728,1.06-1.848,1.51l0.028-1.26Zm11.284,0.25a6.4,6.4,0,0,0-3.7,1.15,0.864,0.864,0,0,0-.476.47,0.14,0.14,0,0,0,.14.17,1.137,1.137,0,0,0,.336-0.08,4.1,4.1,0,0,1,1.344-.23,4.832,4.832,0,0,1,4.228,2.61,1.414,1.414,0,0,0,.42.84,1.336,1.336,0,0,0,.812.33,1.913,1.913,0,0,0,1.652-1.9C918.4,1645.77,916.3,1644.29,913.641,1644.29Zm24.22,4.17a2.823,2.823,0,0,0-.868-0.14c-1.876,0-3.388,2.07-3.388,4.68,0,2.29,1.4,4.17,3.108,4.17a2.037,2.037,0,0,0,1.372-.53,8.456,8.456,0,0,1-5.656,6.52c-0.168.06-.224,0.11-0.224,0.2a0.219,0.219,0,0,0,.252.14,12.814,12.814,0,0,0,4.06-1.32c3.08-1.73,4.508-4.48,4.508-8.57,0-2.26-.252-3.19-1.2-4.25-0.028-.28-0.056-0.45-0.056-0.59,0-.62.028-1.23,0.084-2.13,0.028-.11.028-0.42,0.056-0.81,1.148-.08,1.652-0.11,2.3-0.11a21.34,21.34,0,0,1,4.872.56,2.681,2.681,0,0,0,.7.11,1,1,0,0,0,.924-0.92,1.739,1.739,0,0,0-.588-1.12,3.427,3.427,0,0,0-1.652-.73,1.19,1.19,0,0,1-.28.03,1.456,1.456,0,0,1-.308.02,6.685,6.685,0,0,1-3.052-.98,0.826,0.826,0,0,0-.392-0.22,0.178,0.178,0,0,0-.168.17,0.69,0.69,0,0,0,.252.33c0.308,0.4.588,0.76,0.84,1.1-0.728.11-1.2,0.16-1.456,0.19-0.476.09-1.092,0.17-1.876,0.28,0.168-2.38.2-2.71,0.532-3.58a2.025,2.025,0,0,0,.2-0.53c0-.84-1.932-2.3-3.024-2.3a3.2,3.2,0,0,0-1.9.64,0.142,0.142,0,0,0,.168.12c1.6,0.25,1.68.53,1.82,5.93-3.024.48-3.472,0.56-4.816,0.79-4.452.78-4.452,0.78-4.928,0.78a3.006,3.006,0,0,1-2.408-1.12c-0.084-.11-0.084-0.11-0.14-0.11a0.178,0.178,0,0,0-.168.22,4.175,4.175,0,0,0,.812,2.21,3.858,3.858,0,0,0,2.3,1.35,1.9,1.9,0,0,0,.7-0.28,31.262,31.262,0,0,1,8.652-2.66c0.056,1.17.056,1.57,0.056,1.93v0.53Zm-1.12.9a1.124,1.124,0,0,1,.924.92,6.731,6.731,0,0,1,.112,1.43c0,2.46-.392,3.72-1.148,3.72-0.9,0-1.6-1.23-1.6-2.82C935.033,1650.87,935.817,1649.36,936.741,1649.36Zm33.6-.9a2.823,2.823,0,0,0-.868-0.14c-1.876,0-3.388,2.07-3.388,4.68,0,2.29,1.4,4.17,3.108,4.17a2.037,2.037,0,0,0,1.372-.53,8.456,8.456,0,0,1-5.656,6.52c-0.168.06-.224,0.11-0.224,0.2a0.219,0.219,0,0,0,.252.14,12.814,12.814,0,0,0,4.06-1.32c3.08-1.73,4.508-4.48,4.508-8.57,0-2.26-.252-3.19-1.2-4.25-0.028-.28-0.056-0.45-0.056-0.59,0-.62.028-1.23,0.084-2.13,0.028-.11.028-0.42,0.056-0.81,1.148-.08,1.652-0.11,2.3-0.11a21.34,21.34,0,0,1,4.872.56,2.681,2.681,0,0,0,.7.11,1,1,0,0,0,.924-0.92,1.739,1.739,0,0,0-.588-1.12,3.427,3.427,0,0,0-1.652-.73,1.19,1.19,0,0,1-.28.03,1.456,1.456,0,0,1-.308.02,6.685,6.685,0,0,1-3.052-.98,0.826,0.826,0,0,0-.392-0.22,0.178,0.178,0,0,0-.168.17,0.69,0.69,0,0,0,.252.33c0.308,0.4.588,0.76,0.84,1.1-0.728.11-1.2,0.16-1.456,0.19-0.476.09-1.092,0.17-1.876,0.28,0.168-2.38.2-2.71,0.532-3.58a2.025,2.025,0,0,0,.2-0.53c0-.84-1.932-2.3-3.024-2.3a3.2,3.2,0,0,0-1.9.64,0.142,0.142,0,0,0,.168.12c1.6,0.25,1.68.53,1.82,5.93-3.024.48-3.472,0.56-4.816,0.79-4.452.78-4.452,0.78-4.928,0.78a3.006,3.006,0,0,1-2.408-1.12c-0.084-.11-0.084-0.11-0.14-0.11a0.178,0.178,0,0,0-.168.22,4.175,4.175,0,0,0,.812,2.21,3.858,3.858,0,0,0,2.3,1.35,1.9,1.9,0,0,0,.7-0.28,31.262,31.262,0,0,1,8.652-2.66c0.056,1.17.056,1.57,0.056,1.93v0.53Zm-1.12.9a1.124,1.124,0,0,1,.924.92,6.731,6.731,0,0,1,.112,1.43c0,2.46-.392,3.72-1.148,3.72-0.9,0-1.6-1.23-1.6-2.82C967.513,1650.87,968.3,1649.36,969.221,1649.36Zm23.688-6.75,0.084,0.03c0.924,0.22,1.2.67,1.624,2.43a22.313,22.313,0,0,0,1.26,3.53,13.637,13.637,0,0,0-1.932,2.44,8.392,8.392,0,0,0-1.316,4.45c0,2.38.952,3.89,2.436,3.89a7.094,7.094,0,0,0,4.228-1.93,10.669,10.669,0,0,0,2.437-3,2.545,2.545,0,0,0,1.15.31,0.524,0.524,0,0,0,.59-0.47,2.854,2.854,0,0,0-.26-0.9,1.058,1.058,0,0,0-.7-0.34,39.4,39.4,0,0,0,2.89-7.14c1.79,0.4,2.63.84,3.39,1.85a6.8,6.8,0,0,1,1.26,4.26,8.721,8.721,0,0,1-4.29,7.61,19.237,19.237,0,0,1-5.68,2.38c-0.311.06-.367,0.09-0.367,0.2s0.112,0.17.307,0.17a23.166,23.166,0,0,0,7.11-1.77c3.76-1.68,5.97-4.64,5.97-8.09a7.091,7.091,0,0,0-3.28-6.33,7.707,7.707,0,0,0-4.14-1.09,13.243,13.243,0,0,0,.47-2.85c0-1.52-1.4-2.55-3.41-2.55a1.454,1.454,0,0,0-1.12.22c0,0.09.05,0.14,0.19,0.17,1.1,0.22,1.74,1.46,1.74,3.33a9.821,9.821,0,0,1-.14,1.63,15.771,15.771,0,0,0-6.021,2.32,11.971,11.971,0,0,1-.616-3.28,1.671,1.671,0,0,0-.588-1.56,2.979,2.979,0,0,0-3.64,0,0.609,0.609,0,0,0,.14.11Zm7.311,11.09a11.506,11.506,0,0,1-2.215,2.63,3.555,3.555,0,0,1-1.82.95,1.449,1.449,0,0,1-.9-0.42,2.372,2.372,0,0,1-.532-1.85,7.278,7.278,0,0,1,1.9-4.95A9.918,9.918,0,0,0,1000.22,1653.7Zm2.99-7.73a23.62,23.62,0,0,1-2.18,6.41,7.541,7.541,0,0,1-3.081-3.67A11.3,11.3,0,0,1,1003.21,1645.97Zm32.29-3.3a5.707,5.707,0,0,1,.59-0.03,6.694,6.694,0,0,1,2.88.67c2.44,1.23,3.7,3.78,3.7,7.53a9.56,9.56,0,0,1-3.59,7.98,15.1,15.1,0,0,1-5.01,2.61c-0.45.14-.53,0.16-0.53,0.3,0,0.12.11,0.17,0.28,0.17a12.08,12.08,0,0,0,1.79-.33,17.341,17.341,0,0,0,5.18-1.91,10.3,10.3,0,0,0,5.18-8.96,8.487,8.487,0,0,0-2.21-5.91,10.806,10.806,0,0,0-7.87-3.08c-6.55,0-12.18,5.3-12.18,11.46a7.254,7.254,0,0,0,1.37,4.5,3.372,3.372,0,0,0,2.35,1.54c1.54,0,3.98-1.98,5.63-4.56a18.005,18.005,0,0,0,2.8-9.1A10.616,10.616,0,0,0,1035.5,1642.67Zm-1.37.11a0.739,0.739,0,0,0,.05.19,6.931,6.931,0,0,1,.17,1.57,16.392,16.392,0,0,1-2.86,8.37c-1.17,1.85-2.77,3.31-3.64,3.31s-1.62-1.46-1.62-3.11a10.97,10.97,0,0,1,3.3-7.81A10.528,10.528,0,0,1,1034.13,1642.78Zm42.58-4.71c-0.87,0-1.29.09-1.29,0.28,0,0.09.06,0.14,0.2,0.17a4.4,4.4,0,0,1,2.52,1.93c0.53,0.87.62,0.96,1.12,0.96a1.145,1.145,0,0,0,1.18-1.12C1080.44,1639.14,1078.64,1638.07,1076.71,1638.07Zm-2.88,2.13c-0.67,0-.92.06-0.92,0.25a0.2,0.2,0,0,0,.14.17,4.089,4.089,0,0,1,2.37,2.13c0.34,0.7.51,0.84,1.01,0.84a1.053,1.053,0,0,0,1.12-1.09C1077.55,1641.29,1075.79,1640.2,1073.83,1640.2Zm-12.77,2.19a0.25,0.25,0,0,0-.17.22,3.914,3.914,0,0,0,.79,1.51,2.262,2.262,0,0,0,1.79.81,39.517,39.517,0,0,0,6.97-1.14c1.51-.34,2.07-0.59,2.07-0.98a1.438,1.438,0,0,0-.86-1.04,4.685,4.685,0,0,0-1.46-.5,1.229,1.229,0,0,0-.5.14,13.476,13.476,0,0,1-1.71.7,18.275,18.275,0,0,1-5.01.92,2.74,2.74,0,0,1-1.82-.59A0.138,0.138,0,0,0,1061.06,1642.39Zm5.83,6.41a1.2,1.2,0,0,1,.22.7,14.425,14.425,0,0,1-2.24,6.27,16.675,16.675,0,0,1-5.52,5.52c-1.34.7-1.34,0.7-1.34,0.81a0.18,0.18,0,0,0,.22.17,19.756,19.756,0,0,0,4.09-1.63,17.863,17.863,0,0,0,7.79-10.08,1.052,1.052,0,0,0,.42-0.64c0-.23-0.26-0.48-1.38-1.32,1.8-.14,2.19-0.17,2.86-0.17a28.915,28.915,0,0,1,3.81.31,4.075,4.075,0,0,0,.72.09,0.942,0.942,0,0,0,1.04-.82c0-.47-0.28-0.78-1.15-1.31a4.908,4.908,0,0,0-1.9-.87,9.876,9.876,0,0,1-4.28,1.29c-2.27.33-10.03,1.15-11.01,1.15a2.23,2.23,0,0,1-2.18-.9,0.568,0.568,0,0,0-.28.53,1.922,1.922,0,0,0,.7,1.4,4.37,4.37,0,0,0,2.13,1.09,1.327,1.327,0,0,0,.44-0.08A27.413,27.413,0,0,1,1066.89,1648.8Zm32.9,10.05c-0.03.28-.03,0.53-0.06,0.73a7.835,7.835,0,0,1-.39,1.4,1.473,1.473,0,0,0-.14.56,3.431,3.431,0,0,0,1.99,1.85,1.137,1.137,0,0,0,.89-1.35c0-.28-0.03-0.84-0.05-1.51,0-.34-0.06-1.34-0.09-3.05-0.08-3.03-.08-3.03-0.08-3.25a6.318,6.318,0,0,1,.17-1.71,1.07,1.07,0,0,0,.22-0.53,0.817,0.817,0,0,0-.64-0.59c-0.34-.17-0.48-0.22-0.79-0.39,0.84-.87,2.02-2.18,2.8-3.14,0.31-.36.45-0.5,0.5-0.56a1.586,1.586,0,0,1,.45-0.33,0.558,0.558,0,0,0,.37-0.48,3.549,3.549,0,0,0-1.15-1.65,2.547,2.547,0,0,0-1.99-1.01c-0.47,0-.73.09-0.73,0.25a0.237,0.237,0,0,0,.2.2,1,1,0,0,1,.53,1.01c0,0.98-1.23,3.02-3.13,5.29a27.139,27.139,0,0,1-7.7,6.5,0.289,0.289,0,0,0-.23.22,0.224,0.224,0,0,0,.25.22,12.7,12.7,0,0,0,2.19-.75c2.29-.98,3.61-1.91,6.63-4.76a3.082,3.082,0,0,1,.17,1.57c0,0.58,0,.58-0.11,3.3Zm34.52-10.67c2.04-.19,3.25-0.25,4.37-0.25a23.851,23.851,0,0,1,3.64.28,5.449,5.449,0,0,0,.64.06,0.8,0.8,0,0,0,.84-0.79,2.075,2.075,0,0,0-1.03-1.23,5.531,5.531,0,0,0-2.08-1.04,3.327,3.327,0,0,0-1.09.48c-1.09.59-1.71,0.73-5.12,1.15,0.08-2.21.17-3.78,0.22-4.29a1.59,1.59,0,0,1,.23-0.58,0.754,0.754,0,0,0,.11-0.31c0-.62-2.19-2.05-3.14-2.05-0.7,0-1.99.54-1.99,0.84,0,0.09.09,0.12,0.37,0.17,1.23,0.25,1.62,1.46,1.62,4.87,0,0.4-.03.84-0.05,1.71-5.49.59-6.28,0.67-7.4,0.67-1.4,0-2.24-.22-2.6-0.7a0.3,0.3,0,0,0-.25-0.19,0.208,0.208,0,0,0-.23.22,3.38,3.38,0,0,0,2.8,3.08,5.815,5.815,0,0,0,1.8-.45,27.7,27.7,0,0,1,5.76-1.34c-0.64,6.24-3.27,10.95-7.36,12.96-0.42.23-.5,0.28-0.5,0.42a0.18,0.18,0,0,0,.19.17,13.881,13.881,0,0,0,3.5-1.31,12.57,12.57,0,0,0,5.04-5.58A20.153,20.153,0,0,0,1134.31,1648.18Zm38.81,0.79a22.066,22.066,0,0,1-4.45.95c-1.94.22-8.91,0.64-11.04,0.64-2.24,0-3.16-.25-3.58-0.95a0.425,0.425,0,0,0-.28-0.28c-0.28,0-.42.28-0.42,0.78a2.6,2.6,0,0,0,1.01,2.27,5,5,0,0,0,2.41.93,1.036,1.036,0,0,0,.39-0.09c2.1-.84,6.24-1.23,13.24-1.23,1.04,0,1.88.03,2.46,0.08,1.21,0.12,2.1.2,2.36,0.2,0.86,0,1.42-.36,1.42-0.92C1176.64,1650.25,1175.47,1649.44,1173.12,1648.97Zm31.86-2.64c1.04-.72,1.29-0.95,1.29-1.17a2.125,2.125,0,0,0-.98-0.98c-1.6-1.12-2.05-1.37-2.38-1.37a1.666,1.666,0,0,0-.95.39,8.3,8.3,0,0,1-3.34,1.12,66.053,66.053,0,0,1-7.16.87,2.551,2.551,0,0,1-2.13-.82,0.385,0.385,0,0,0-.22-0.19,0.329,0.329,0,0,0-.23.39,2.714,2.714,0,0,0,.95,2.27,3.7,3.7,0,0,0,1.68.81,0.9,0.9,0,0,0,.48-0.2,11.67,11.67,0,0,1,3.36-1.17,34.934,34.934,0,0,1,5.54-.95c0.62,0,.87.16,0.87,0.61a8.53,8.53,0,0,1-.53,2.13,17.876,17.876,0,0,1-3.86,6.66,20.768,20.768,0,0,1-9.16,6.3,0.274,0.274,0,0,0-.25.23,0.222,0.222,0,0,0,.25.19c1.51,0,5.35-1.45,7.7-2.91C1199.83,1656.11,1202.43,1652.58,1204.98,1646.33Zm2.44-8.73a2.815,2.815,0,1,0,2.77,2.8A2.821,2.821,0,0,0,1207.42,1637.6Zm-0.03,1.06a1.735,1.735,0,1,1-1.74,1.71A1.729,1.729,0,0,1,1207.39,1638.66Zm18.59,15.01c0.03-3.67.34-6.64,0.73-7.25a1.2,1.2,0,0,0,.22-0.7c0-.37-0.36-0.81-1.34-1.54a3.747,3.747,0,0,0-2.1-.9,8.922,8.922,0,0,0-1.68.34,0.315,0.315,0,0,0-.28.25c0,0.14.08,0.2,0.42,0.22,1.29,0.23,1.74,1.32,1.74,4.15,0,0.39,0,1.93.02,4.59v1.93a5.2,5.2,0,0,1-.3,2.16,1.411,1.411,0,0,0-.26.64,4.826,4.826,0,0,0,2.52,2.47,0.488,0.488,0,0,0,.39-0.26,6.357,6.357,0,0,1,2.41-1.79,33.256,33.256,0,0,0,5.49-3.64,27.676,27.676,0,0,0,6.69-7.33,15.641,15.641,0,0,0,1.26-2.38,0.3,0.3,0,0,0-.25-0.26,0.385,0.385,0,0,0-.28.23,36.342,36.342,0,0,1-6.27,6.38c-3,2.47-7.56,5.13-8.79,5.13-0.26,0-.34-0.09-0.34-0.37v-2.07Zm44.58-4.7a22.015,22.015,0,0,1-4.46.95c-1.93.22-8.9,0.64-11.03,0.64-2.24,0-3.16-.25-3.58-0.95a0.425,0.425,0,0,0-.28-0.28c-0.28,0-.42.28-0.42,0.78a2.6,2.6,0,0,0,1.01,2.27,5,5,0,0,0,2.41.93,1.036,1.036,0,0,0,.39-0.09c2.1-.84,6.24-1.23,13.24-1.23,1.04,0,1.88.03,2.46,0.08,1.21,0.12,2.1.2,2.36,0.2,0.86,0,1.42-.36,1.42-0.92C1274.08,1650.25,1272.91,1649.44,1270.56,1648.97Zm23.99,3.83-0.02-2.29-0.06-2.55a9.809,9.809,0,0,1,4.39,3.75,7.865,7.865,0,0,0,.9,1.32,1.676,1.676,0,0,0,1.29.58,1.418,1.418,0,0,0,1.48-1.48c0-1.01-.92-2.21-2.32-3.11a11.484,11.484,0,0,0-5.71-1.62,20.474,20.474,0,0,1,.39-4.57,2.861,2.861,0,0,0,.39-1.09,2.689,2.689,0,0,0-.75-1.29,2.98,2.98,0,0,0-2.02-1.17c-0.81,0-2.49.78-2.49,1.15a0.18,0.18,0,0,0,.22.19c1.35,0,1.63.37,1.77,2.1,0.05,0.79.19,6.22,0.19,8.09a70.88,70.88,0,0,1-.39,7.45,8.246,8.246,0,0,0-.28,1.57c0,1.04,1.23,2.8,1.99,2.8,0.7,0,1.26-1.09,1.26-2.52,0-.36-0.03-1.32-0.11-2.46-0.03-.34-0.06-1.26-0.06-2.24Z" transform="translate(-534.281 -1637.59)"/>
</svg>
