<svg xmlns="http://www.w3.org/2000/svg" width="138.218" height="11.69" viewBox="0 0 138.218 11.69">
  <defs>
    <style>
      .cls-1 {
        fill: #00a040;
        fill-rule: evenodd;
      }
    </style>
  </defs>
  <path id="_-_Entrée_Plat-_" data-name="- Entrée＋Plat- " class="cls-1" d="M552.076,2693.75l0.155-.88h-3.719l-0.156.88h3.72Zm8.894,3.24h9.33l1.126-4.09h-0.5c-1.143,2.65-2.394,3.63-4.659,3.63a2.62,2.62,0,0,1-1.34-.23c-0.214-.15-0.244-0.4-0.123-1.09l0.66-3.75h0.69c1.647,0.01,2.137.64,1.872,2.49h0.435l0.948-5.39h-0.42c-0.5,1.88-1.151,2.45-2.753,2.43h-0.69l0.618-3.51c0.14-.79.582-1.09,1.632-1.09a3.711,3.711,0,0,1,2.939.94,3.845,3.845,0,0,1,.655,2.42h0.45l0.443-3.8h-9.36l-0.066.38h0.21c0.986-.06,1.36.28,1.279,1.17l-1.28,7.27c-0.254,1.44-.574,1.82-1.594,1.82h-0.435Zm13.185,0h4.2l0.063-.36h-0.39c-0.607-.04-0.877-0.3-0.793-0.78l0.7-3.99a4.369,4.369,0,0,1,1.037-1.03,2.455,2.455,0,0,1,1.371-.47,0.96,0.96,0,0,1,1,1.2l-0.67,3.81a1.184,1.184,0,0,1-1.287,1.26h-0.255l-0.063.36h4.214l0.064-.36h-0.33c-0.807-.01-1.015-0.28-0.849-1.14l0.673-3.82c0.248-1.41-.31-2.16-1.645-2.16a4.341,4.341,0,0,0-3.106,1.45l0.288-1.63a10.9,10.9,0,0,1-2.968.33l-0.072.4c1-.03,1.276.17,1.263,0.84l-0.811,4.61a1.151,1.151,0,0,1-1.323,1.12h-0.255Zm13.441-6.82h1.514l-0.945,5.37a1.281,1.281,0,0,0,1.362,1.72,2.256,2.256,0,0,0,2.066-1.26,5.634,5.634,0,0,0,.511-1.71h-0.435a5.608,5.608,0,0,1-.422,1.38,1.3,1.3,0,0,1-1.028.81,0.6,0.6,0,0,1-.562-0.81l0.968-5.5h1.89l0.093-.53h-1.89l0.5-2.82h-0.465a4,4,0,0,1-3.069,2.87Zm7.078,6.82h4.62l0.066-.37c-1.433.04-1.693-.18-1.508-1.32l0.452-2.57a3.12,3.12,0,0,1,2-2.43,1,1,0,0,0-.161.41,0.729,0.729,0,0,0,.727.9,1.222,1.222,0,0,0,1.119-.99,0.9,0.9,0,0,0-.968-1.07,3.559,3.559,0,0,0-2.4,1.35l0.277-1.57a17.424,17.424,0,0,1-2.938.33l-0.069.39h0.285a0.809,0.809,0,0,1,.888,1.09l-0.676,3.84c-0.164,1.28-.425,1.56-1.458,1.64H594.74Zm16.338-2.49c-1.087,1.32-1.832,1.8-2.807,1.8-1.455,0-2.1-1.09-1.775-2.95h5.145c0.044-.17.068-0.3,0.084-0.39a3.579,3.579,0,0,0-.346-2.3,2.492,2.492,0,0,0-2.291-1.21,4.492,4.492,0,0,0-4.348,3.82c-0.394,2.24.853,3.93,2.893,3.93a3.806,3.806,0,0,0,2.146-.69,6.135,6.135,0,0,0,1.7-1.74Zm-4.482-1.63a7.053,7.053,0,0,1,.489-1.5,2.074,2.074,0,0,1,1.778-1.41,1.015,1.015,0,0,1,.94.54,3.351,3.351,0,0,1,.234,1.99c-0.016.09-.037,0.21-0.081,0.38h-3.36Zm0.494-4.43,0.181,0.33,3.407-1.54a0.907,0.907,0,0,0,.506-0.66,0.628,0.628,0,0,0-.66-0.77,0.82,0.82,0,0,0-.524.17Zm14.293,6.06c-1.088,1.32-1.832,1.8-2.807,1.8-1.455,0-2.1-1.09-1.775-2.95h5.145c0.044-.17.068-0.3,0.083-0.39a3.573,3.573,0,0,0-.346-2.3,2.492,2.492,0,0,0-2.291-1.21,4.492,4.492,0,0,0-4.348,3.82c-0.393,2.24.854,3.93,2.894,3.93a3.809,3.809,0,0,0,2.146-.69,6.135,6.135,0,0,0,1.7-1.74Zm-4.483-1.63a7.175,7.175,0,0,1,.489-1.5,2.076,2.076,0,0,1,1.779-1.41,1.012,1.012,0,0,1,.939.54,3.335,3.335,0,0,1,.234,1.99c-0.016.09-.037,0.21-0.081,0.38h-3.36Zm10.53-1.02H632.1l-0.828,4.71h1.02l0.828-4.71h4.68l0.182-1.04h-4.679l0.839-4.77h-1.02l-0.839,4.77h-4.74Zm14.619,5.14h5.249l0.069-.39h-0.315c-1.157.02-1.4-.24-1.2-1.35l0.588-3.34h3.105a4.631,4.631,0,0,0,3.177-1.01,3.677,3.677,0,0,0,1.083-1.98c0.309-1.75-1.154-2.98-3.554-2.98H643.9l-0.071.4h0.5c0.887-.01,1.181.36,0.988,1.29L644,2695.09c-0.242,1.29-.439,1.47-1.587,1.51h-0.36Zm4.471-5.55,0.7-3.96c0.14-.79.628-1.09,1.828-1.09a4.049,4.049,0,0,1,1.9.36,2.06,2.06,0,0,1,.777,2.23,2.912,2.912,0,0,1-3.208,2.46h-2Zm9.088,5.55h4.44l0.074-.42h-0.315c-0.78,0-1.019-.34-0.861-1.24l1.716-9.75a10.136,10.136,0,0,1-3.127.46l-0.068.39c1.122,0.02,1.407.27,1.288,1.2l-1.3,7.4c-0.207,1.26-.464,1.53-1.4,1.54h-0.375Zm14.982-2.11-0.045.25c-0.183.87-.386,1.17-0.806,1.17-0.315,0-.358-0.18-0.237-0.87l0.681-3.87c0.254-1.44-.512-2.11-2.417-2.11-1.755,0-3.075.76-3.275,1.9a0.851,0.851,0,0,0,.865,1.05,1.075,1.075,0,0,0,1.055-.88,0.652,0.652,0,0,0-.652-0.81,1.941,1.941,0,0,1,1.629-.74c1.1,0,1.483.53,1.269,1.74l-0.145.83a10.249,10.249,0,0,0-2.881.6,2.849,2.849,0,0,0-2.1,2.14c-0.2,1.16.537,1.89,1.887,1.89a4.379,4.379,0,0,0,2.463-.87,0.981,0.981,0,0,0,1.159.92,1.751,1.751,0,0,0,1.657-.98,3.942,3.942,0,0,0,.39-1.36h-0.5Zm-2.643.87a3.161,3.161,0,0,1-1.676.66,1.064,1.064,0,0,1-1.1-1.37,2.346,2.346,0,0,1,1.558-1.69,5.6,5.6,0,0,1,1.7-.35Zm7.042-5.58h1.515l-0.945,5.37a1.28,1.28,0,0,0,1.361,1.72,2.258,2.258,0,0,0,2.067-1.26,5.663,5.663,0,0,0,.511-1.71H679a5.641,5.641,0,0,1-.423,1.38,1.3,1.3,0,0,1-1.028.81,0.6,0.6,0,0,1-.562-0.81l0.969-5.5h1.89l0.092-.53h-1.89l0.5-2.82h-0.465a4,4,0,0,1-3.069,2.87Zm11.488,3.58,0.156-.88h-3.72l-0.155.88h3.719Z" transform="translate(-548.344 -2685.56)"/>
</svg>
