<svg xmlns="http://www.w3.org/2000/svg" width="765.688" height="115.688" viewBox="0 0 382.844 57.844">
  <defs>
    <style>
      .cls-1 {
        fill: #fff;
        fill-rule: evenodd;
      }
    </style>
  </defs>
  <path id="ディナーセット" class="cls-1" d="M356.117,840.532c-1.984,0-2.944.191-2.944,0.639a0.426,0.426,0,0,0,.448.384,9.927,9.927,0,0,1,5.759,4.416c1.216,1.984,1.408,2.176,2.56,2.176a2.6,2.6,0,0,0,2.688-2.56C364.628,842.963,360.532,840.532,356.117,840.532Zm-6.592,4.863c-1.536,0-2.112.128-2.112,0.576a0.473,0.473,0,0,0,.32.384,9.417,9.417,0,0,1,5.44,4.864c0.768,1.6,1.152,1.92,2.3,1.92a2.4,2.4,0,0,0,2.559-2.5C358.036,847.891,354.005,845.4,349.525,845.4Zm-29.182,4.992a0.557,0.557,0,0,0-.384.512,8.884,8.884,0,0,0,1.792,3.456,5.173,5.173,0,0,0,4.1,1.855c2.752,0,7.871-.832,15.935-2.623,3.455-.768,4.735-1.344,4.735-2.24,0-.768-0.7-1.6-1.984-2.368a10.326,10.326,0,0,0-3.327-1.152,3.152,3.152,0,0,0-1.152.32,26.488,26.488,0,0,1-3.9,1.6,41.537,41.537,0,0,1-11.455,2.112,6.352,6.352,0,0,1-4.16-1.344A0.339,0.339,0,0,0,320.343,850.387Zm13.311,14.655a2.634,2.634,0,0,1,.512,1.6c0,3.519-2.176,9.535-5.119,14.335-3.2,5.183-8.512,10.5-12.608,12.607-3.071,1.6-3.071,1.6-3.071,1.856a0.415,0.415,0,0,0,.512.383c0.96,0,6.975-2.367,9.343-3.711,7.935-4.416,14.271-12.671,17.791-23.039,0.768-.832.96-1.087,0.96-1.471,0-.512-0.576-1.088-3.136-3.008,4.1-.32,4.991-0.384,6.527-0.384a66.481,66.481,0,0,1,8.7.7,10.125,10.125,0,0,0,1.664.192,2.136,2.136,0,0,0,2.367-1.856c0-1.088-.64-1.792-2.623-3.008a11.291,11.291,0,0,0-4.352-1.984c-2.624,1.6-4.416,2.112-9.791,2.944-5.184.768-22.911,2.624-25.151,2.624-2.687,0-3.9-.512-4.991-2.048a1.317,1.317,0,0,0-.64,1.216,4.433,4.433,0,0,0,1.6,3.2c1.408,1.28,3.775,2.5,4.863,2.5a3.518,3.518,0,0,0,1.024-.192C321.5,867.026,326.3,866,333.654,865.042Zm58.881,22.974c-0.064.64-.064,1.216-0.128,1.664a17.37,17.37,0,0,1-.9,3.2,3.281,3.281,0,0,0-.32,1.28c0,1.152,3.264,4.223,4.544,4.223,1.216,0,2.048-1.28,2.048-3.071,0-.64-0.064-1.92-0.128-3.456,0-.768-0.128-3.072-0.192-6.976-0.192-6.911-.192-6.911-0.192-7.423a14.957,14.957,0,0,1,.384-3.9,2.4,2.4,0,0,0,.512-1.216c0-.512-0.448-0.9-1.472-1.344-0.768-.384-1.088-0.512-1.792-0.9,1.92-1.983,4.608-4.991,6.4-7.167,0.7-.832,1.024-1.152,1.152-1.28a3.534,3.534,0,0,1,1.024-.768,1.25,1.25,0,0,0,.832-1.088c0-.768-0.832-1.856-2.624-3.776-1.727-1.727-2.815-2.3-4.543-2.3-1.088,0-1.664.192-1.664,0.576a0.526,0.526,0,0,0,.448.447,2.3,2.3,0,0,1,1.216,2.3c0,2.24-2.816,6.912-7.168,12.095-5.439,6.464-12.351,12.288-17.6,14.847a0.652,0.652,0,0,0-.512.512,0.522,0.522,0,0,0,.575.512,28.888,28.888,0,0,0,4.992-1.728c5.248-2.239,8.256-4.351,15.167-10.879,0.384,0.9.384,1.088,0.384,3.584,0,1.344,0,1.344-.256,7.551Zm56.832-24.382a99.808,99.808,0,0,1,9.983-.576,53.329,53.329,0,0,1,8.32.64,13.725,13.725,0,0,0,1.471.128,1.821,1.821,0,0,0,1.92-1.792c0-.7-0.7-1.536-2.368-2.816-1.471-1.152-3.9-2.368-4.735-2.368-0.384,0-.768.192-2.5,1.088-2.5,1.344-3.9,1.664-11.711,2.624,0.192-5.056.384-8.639,0.512-9.791a3.59,3.59,0,0,1,.512-1.344,1.554,1.554,0,0,0,.256-0.7c0-1.408-4.992-4.672-7.168-4.672-1.6,0-4.543,1.216-4.543,1.92,0,0.192.192,0.256,0.832,0.384,2.815,0.576,3.711,3.328,3.711,11.135,0,0.9-.064,1.92-0.128,3.9-12.543,1.344-14.335,1.536-16.9,1.536-3.2,0-5.119-.512-5.951-1.6a0.673,0.673,0,0,0-.576-0.448,0.471,0.471,0,0,0-.512.512c0,3.264,3.456,7.039,6.4,7.039,0.831,0,1.535-.192,4.095-1.023,3.9-1.408,5.952-1.856,13.183-3.072-1.472,14.271-7.487,25.022-16.83,29.63-0.96.512-1.152,0.64-1.152,0.96a0.428,0.428,0,0,0,.448.384c1.023,0,5.887-1.792,8-3.008a28.76,28.76,0,0,0,11.519-12.735C447.511,875.153,448.407,871.633,449.367,863.634Zm78.463,1.792a50.608,50.608,0,0,1-10.175,2.176c-4.416.512-20.351,1.471-25.215,1.471-5.119,0-7.231-.576-8.191-2.175a0.931,0.931,0,0,0-.64-0.64c-0.64,0-.96.64-0.96,1.792a5.969,5.969,0,0,0,2.3,5.183,11.49,11.49,0,0,0,5.5,2.112,2.512,2.512,0,0,0,.895-0.192c4.8-1.92,14.271-2.816,30.27-2.816,2.368,0,4.288.064,5.632,0.192,2.752,0.256,4.8.448,5.375,0.448,1.984,0,3.264-.832,3.264-2.112C535.893,868.369,533.205,866.514,527.83,865.426Zm35.906,0.192c-8.255,2.751-10.175,3.263-12.991,3.263-1.536,0-2.88-.448-3.136-1.023-0.192-.384-0.256-0.448-0.448-0.448-0.256,0-.448.576-0.448,1.407,0,2.5,3.008,5.056,6.848,5.7a74.776,74.776,0,0,1,10.175-5.376c0.192,10.112.448,12.991,1.472,15.615,1.664,4.48,6.464,6.848,13.631,6.848a61.8,61.8,0,0,0,12.287-1.216c2.752-.64,4.16-1.728,4.16-3.2,0-1.856-2.176-3.712-4.416-3.712a6.606,6.606,0,0,0-1.92.256,40.009,40.009,0,0,1-13.5,2.176c-4.8,0-6.527-2.176-6.527-8.063l0.064-8.512,0.064-2.5c9.343-3.968,11.2-4.672,12.415-4.672a0.992,0.992,0,0,1,1.024,1.088c0,1.536-3.136,6.975-6.208,10.751a1.97,1.97,0,0,0-.576.96,0.413,0.413,0,0,0,.384.384c0.576,0,5.312-3.328,8.32-5.888a45.574,45.574,0,0,1,5.247-4.031c3.2-1.856,3.52-2.112,3.52-3.072,0-.832-0.576-1.408-2.688-2.88-2.816-1.92-4.607-2.88-5.5-2.88-0.64,0-1.024.192-2.56,1.472-2.176,1.664-2.176,1.664-9.855,4.352l-3.392,1.216c0.192-2.624.384-5.056,0.576-7.424a12.547,12.547,0,0,1,1.152-4.287,1.978,1.978,0,0,0,.128-0.512c0-1.664-5.056-4.864-7.744-4.864-1.344,0-3.776,1.216-3.776,1.856,0,0.32.192,0.448,0.7,0.512,2.56,0.32,3.52,2.368,3.584,7.615l-0.064,4.224v4.864Zm56.9-5.184c-0.384,0-.7.128-0.7,0.384a0.584,0.584,0,0,0,.448.512c2.5,1.216,4.992,4.928,6.016,9.087,0.448,1.728.96,2.368,2.048,2.368a3.413,3.413,0,0,0,3.2-3.52C631.639,865.042,625.944,860.434,620.632,860.434Zm25.086,6.784c1.088-1.152,1.216-1.28,1.216-1.728,0-.768-1.472-2.88-3.136-4.416a6.489,6.489,0,0,0-4.607-2.112,0.871,0.871,0,0,0-1.024.64c0,0.128,0,.128.64,0.7a4.254,4.254,0,0,1,.832,2.752c0,5.056-3.456,12.543-8.512,18.623-4.8,5.759-11.775,11.2-17.6,13.631-1.6.639-1.6,0.639-1.6,0.959a0.632,0.632,0,0,0,.64.512c2.431,0,9.279-2.687,13.183-5.119C634.455,886.16,641.3,877.713,645.718,867.218Zm-35-1.344c-0.64,0-.832.128-0.832,0.384a1.02,1.02,0,0,0,.7.768c2.368,1.6,4.671,4.991,5.823,8.639a1.745,1.745,0,0,0,1.728,1.408c1.664,0,2.944-1.6,2.944-3.584C621.08,869.457,616.28,865.874,610.713,865.874Zm64.447,8.319-0.064-5.248-0.128-5.823a22.547,22.547,0,0,1,10.047,8.575c1.728,2.688,1.728,2.688,2.048,3.008a3.859,3.859,0,0,0,2.944,1.344,3.26,3.26,0,0,0,3.392-3.392c0-2.3-2.112-5.055-5.312-7.1-3.52-2.24-7.04-3.2-13.055-3.712a46.045,46.045,0,0,1,.9-10.431c0.832-1.92.9-2.048,0.9-2.5,0-.64-0.64-1.664-1.728-2.944-1.792-1.856-3.2-2.688-4.608-2.688-1.856,0-5.7,1.792-5.7,2.624a0.426,0.426,0,0,0,.512.448c3.071,0,3.711.832,4.031,4.8,0.128,1.792.448,14.207,0.448,18.494a163.123,163.123,0,0,1-.9,17.023,19.049,19.049,0,0,0-.64,3.584c0,2.368,2.816,6.4,4.544,6.4,1.6,0,2.88-2.5,2.88-5.759,0-.832-0.064-3.008-0.256-5.632-0.064-.768-0.128-2.88-0.128-5.119Z" transform="translate(-310.562 -840.531)"/>
</svg>
