<svg xmlns="http://www.w3.org/2000/svg" width="372.312" height="38.56" viewBox="0 0 186.156 19.28">
  <defs>
    <style>
      .cls-1 {
        fill: #00a040;
        fill-rule: evenodd;
      }
    </style>
  </defs>
  <path id="その他のメニュー" class="cls-1" d="M475.379,3692.49a6.439,6.439,0,0,0-1.2,3.54c0,2.8,2.121,4.48,5.648,4.48,0.945,0,1.512-.36,1.512-0.93a1.469,1.469,0,0,0-1.26-1.55,2.674,2.674,0,0,0-.378.02c-0.231.02-.462,0.02-0.672,0.02a6.4,6.4,0,0,1-2.163-.34,2.374,2.374,0,0,1-1.616-2.2,3.839,3.839,0,0,1,1.385-2.83c1.05-.82,2.268-1.14,4.473-1.14a7.422,7.422,0,0,1,1.3.09,3.909,3.909,0,0,0,.462.02,0.588,0.588,0,0,0,.714-0.47,2.386,2.386,0,0,0-1.784-1.76,53.333,53.333,0,0,0-7.979,2.86,1.678,1.678,0,0,1-.924.31,0.162,0.162,0,0,1-.189-0.1,6.51,6.51,0,0,1,1.239-1.73,21.777,21.777,0,0,1,5.963-4.61,1.064,1.064,0,0,0,.777-0.99c0-.92-1.491-2.12-2.625-2.12a1.472,1.472,0,0,0-.819.23,14.984,14.984,0,0,1-3.38,1.24,0.811,0.811,0,0,1-.756-0.65c-0.021-.15-0.063-0.21-0.126-0.21a1.3,1.3,0,0,0-.441,1.05,1.808,1.808,0,0,0,1.512,1.63,1.968,1.968,0,0,0,1.26-.73,4.665,4.665,0,0,1,2.267-1.49,0.543,0.543,0,0,1,.357.61c0,0.29-.336.69-3.527,4.11-0.5.55-1.029,1.12-1.554,1.66-0.021.04-.567,0.57-1.092,1.05a9.719,9.719,0,0,0-1.7,1.66,1.859,1.859,0,0,0-.168.88c0,1.07.231,1.54,0.756,1.54a0.733,0.733,0,0,0,.566-0.34A9.824,9.824,0,0,1,475.379,3692.49Zm26.1-6.89c0.231-.02.378-0.02,0.441-0.02a5.1,5.1,0,0,1,2.163.5c1.827,0.93,2.771,2.84,2.771,5.65a7.171,7.171,0,0,1-2.687,5.98,11.356,11.356,0,0,1-3.758,1.96c-0.336.1-.4,0.12-0.4,0.23,0,0.08.084,0.12,0.21,0.12a8.763,8.763,0,0,0,1.343-.25,12.775,12.775,0,0,0,3.885-1.43,7.719,7.719,0,0,0,3.884-6.72,6.345,6.345,0,0,0-1.659-4.43,8.13,8.13,0,0,0-5.9-2.3c-4.913,0-9.133,3.96-9.133,8.58a5.417,5.417,0,0,0,1.029,3.38,2.524,2.524,0,0,0,1.764,1.16c1.154,0,2.981-1.49,4.22-3.42a13.537,13.537,0,0,0,2.1-6.83A7.994,7.994,0,0,0,501.481,3685.6Zm-1.028.08a0.982,0.982,0,0,0,.042.15,5.048,5.048,0,0,1,.126,1.18,12.351,12.351,0,0,1-2.142,6.27c-0.882,1.39-2.079,2.48-2.73,2.48s-1.217-1.09-1.217-2.33a8.24,8.24,0,0,1,2.477-5.86A8.017,8.017,0,0,1,500.453,3685.68Zm17.851,15.16a0.375,0.375,0,0,0,.462.46,2.619,2.619,0,0,0,1.154-.25,0.486,0.486,0,0,0,.357-0.52V3688.5l0.189-.15a0.432,0.432,0,0,0,.252-0.36,0.353,0.353,0,0,0-.252-0.31l-0.231-.13a31.783,31.783,0,0,0,1.3-3.59l0.315-.08c0.42-.13.546-0.23,0.546-0.51a0.548,0.548,0,0,0-.4-0.46l-2.162-.88a30.753,30.753,0,0,1-3.675,10.77,3.856,3.856,0,0,0-.63,1.16,0.138,0.138,0,0,0,.147.12c0.273,0,1.365-1.28,2.625-3.06v9.82Zm2.687-8.48c0.924-.48,1.071-0.57,2.016-1.01v7.35c-0.042,1.76.357,2.08,2.792,2.1,0.315,0.02,1.176.02,2.016,0.04,1.029,0.02,1.806.02,2.289,0.02a29.6,29.6,0,0,0,3.926-.14,1.171,1.171,0,0,0,1.113-.93,0.663,0.663,0,0,0-.315-0.54c-0.693-.49-0.693-0.49-0.693-0.84,0-.15.021-0.63,0.063-1.03,0.126-1.51.126-1.51,0.126-1.62,0-.17-0.042-0.25-0.147-0.25-0.126,0-.168.06-0.252,0.27-0.924,2.46-1.05,2.75-1.3,2.98-0.462.38-.735,0.42-3.065,0.44l-1.575.03-1.89-.03a3.048,3.048,0,0,1-.84-0.06c-0.293-.08-0.356-0.21-0.356-0.73v-7.92l2.036-.84v7.18c0,0.38.084,0.46,0.462,0.46,0.8,0,1.323-.33,1.323-0.82v-7.6l2.267-.94v5.61a0.5,0.5,0,0,1-.608.58c-0.063,0-.378,0-0.651-0.02l-0.462-.02H529.1c-0.126,0-.189.04-0.189,0.15a0.186,0.186,0,0,0,.147.15c1.344,0.54,1.386.56,1.365,0.92,0,0.73.084,0.9,0.5,0.9a3.074,3.074,0,0,0,1.092-.38,1.382,1.382,0,0,0,.8-1.53v-5.9l0.336-.12a0.43,0.43,0,0,0,.315-0.45,0.657,0.657,0,0,0-.273-0.48l-1.764-1.47-0.8,1.62-1.91.78v-4.71l0.441-.25a0.471,0.471,0,0,0,.336-0.44c0-.29-0.189-0.42-0.609-0.44l-1.953-.13v6.72l-2.036.82v-3.76l0.419-.29a0.567,0.567,0,0,0,.273-0.4c0-.25-0.147-0.34-0.566-0.38l-2.016-.17v5.78c-1.155.46-1.344,0.52-2.5,0.96Zm29.21-6.76c0.231-.02.378-0.02,0.441-0.02a5.1,5.1,0,0,1,2.163.5c1.827,0.93,2.771,2.84,2.771,5.65a7.171,7.171,0,0,1-2.687,5.98,11.356,11.356,0,0,1-3.758,1.96c-0.336.1-.4,0.12-0.4,0.23,0,0.08.084,0.12,0.21,0.12a8.763,8.763,0,0,0,1.343-.25,12.775,12.775,0,0,0,3.885-1.43,7.719,7.719,0,0,0,3.884-6.72,6.345,6.345,0,0,0-1.659-4.43,8.13,8.13,0,0,0-5.9-2.3c-4.913,0-9.133,3.96-9.133,8.58a5.417,5.417,0,0,0,1.029,3.38,2.524,2.524,0,0,0,1.764,1.16c1.154,0,2.981-1.49,4.22-3.42a13.537,13.537,0,0,0,2.1-6.83A7.994,7.994,0,0,0,550.2,3685.6Zm-1.028.08a0.982,0.982,0,0,0,.042.15,5.048,5.048,0,0,1,.126,1.18,12.351,12.351,0,0,1-2.142,6.27c-0.882,1.39-2.079,2.48-2.73,2.48s-1.217-1.09-1.217-2.33a8.24,8.24,0,0,1,2.477-5.86A8.017,8.017,0,0,1,549.173,3685.68Zm28.076,5.19a25.266,25.266,0,0,0,1.7-3.13,1.723,1.723,0,0,1,.524-0.8,0.482,0.482,0,0,0,.294-0.4,3.509,3.509,0,0,0-1.322-1.61,3.9,3.9,0,0,0-1.785-.82,0.3,0.3,0,0,0-.294.21,0.156,0.156,0,0,0,.063.08,1.839,1.839,0,0,1,.588,1.47,10.166,10.166,0,0,1-1.281,3.95,10.369,10.369,0,0,0-4.871-1.58,0.312,0.312,0,0,0-.357.19c0,0.13.105,0.19,0.462,0.3a10.051,10.051,0,0,1,3.9,2.5,25.734,25.734,0,0,1-8.188,7.49,0.871,0.871,0,0,0-.63.44,0.183,0.183,0,0,0,.168.19,18.554,18.554,0,0,0,4.094-1.68,19.9,19.9,0,0,0,5.858-5.23,12.456,12.456,0,0,1,1.617,2.06c0.483,0.72.63,0.84,1.008,0.84a1.065,1.065,0,0,0,1.049-1.11C579.852,3693.24,579.055,3692.21,577.249,3690.87Zm23.772-4.31a6.137,6.137,0,0,1-1.617.76,21.176,21.176,0,0,1-3.7.55,4.085,4.085,0,0,1-1.743-.44,0.491,0.491,0,0,0-.147-0.09,0.1,0.1,0,0,0-.1.09,1.738,1.738,0,0,0,.378.77,1.992,1.992,0,0,0,1.785,1.18,15.416,15.416,0,0,0,2.9-.4c1.113-.21,1.617-0.27,3.024-0.48,1.134-.17,1.407-0.3,1.407-0.63C603.205,3687.3,602.26,3686.73,601.021,3686.56Zm-10.918,7.63a0.186,0.186,0,0,0-.189.19,2.968,2.968,0,0,0,2.247,2.47,2.427,2.427,0,0,0,.839-0.21,31.934,31.934,0,0,1,9.848-1.3,18.489,18.489,0,0,1,3.233.25,6.474,6.474,0,0,0,.84.09,0.553,0.553,0,0,0,.63-0.53,1.388,1.388,0,0,0-.777-1.11,4.181,4.181,0,0,0-1.617-.92,2.124,2.124,0,0,0-.567.14,8.757,8.757,0,0,1-3.254.82c-4.031.51-7.58,0.84-8.692,0.84a3.388,3.388,0,0,1-2.331-.57A0.289,0.289,0,0,0,590.1,3694.19Zm33.178,1.84c-0.462.05-.923,0.11-1.364,0.15-0.147,0-1.344.15-2.793,0.32-1.554.16-1.554,0.16-1.764,0.16a2,2,0,0,1-1.364-.35c-0.063-.11-0.063-0.11-0.105-0.11a0.64,0.64,0,0,0-.252.63,1.062,1.062,0,0,0,.567.74,1.941,1.941,0,0,0,2.477.21,5.752,5.752,0,0,1,1.428-.44,33.5,33.5,0,0,1,5.165-.51,22.187,22.187,0,0,1,3.842.34,3.8,3.8,0,0,0,.609.1,0.563,0.563,0,0,0,.63-0.46,2.681,2.681,0,0,0-1.7-1.59,1.1,1.1,0,0,0-.294.06,7.554,7.554,0,0,1-2.351.48c-0.168.02-.672,0.06-1.218,0.13,0.378-1.72.567-2.52,1.071-4.2a1.04,1.04,0,0,0,.525-0.63c0-.19-0.126-0.32-0.777-0.78a2.683,2.683,0,0,0-1.071-.67,0.673,0.673,0,0,0-.378.17,5.676,5.676,0,0,1-1.239.52,19.66,19.66,0,0,1-3.338.61,1.134,1.134,0,0,1-.924-0.4c-0.147-.25-0.147-0.25-0.231-0.25-0.168,0-.252.15-0.252,0.48a1.365,1.365,0,0,0,.672,1.3,1.236,1.236,0,0,0,.735.28,4.8,4.8,0,0,0,1.512-.49,7.867,7.867,0,0,1,2.393-.73,0.409,0.409,0,0,1,.357.48A37.83,37.83,0,0,1,623.281,3696.03Zm30.134-5.71a16.662,16.662,0,0,1-3.338.72c-1.449.16-6.677,0.48-8.273,0.48-1.679,0-2.372-.19-2.687-0.71a0.3,0.3,0,0,0-.21-0.21c-0.21,0-.315.21-0.315,0.58a1.951,1.951,0,0,0,.756,1.7,3.742,3.742,0,0,0,1.806.7,0.7,0.7,0,0,0,.294-0.07c1.574-.63,4.682-0.92,9.931-0.92,0.777,0,1.406.02,1.847,0.06,0.9,0.09,1.575.15,1.764,0.15a0.88,0.88,0,0,0,1.071-.69C656.061,3691.29,655.179,3690.68,653.415,3690.32Z" transform="translate(-469.906 -3682.03)"/>
</svg>
