<svg xmlns="http://www.w3.org/2000/svg" width="130.18" height="31.94" viewBox="0 0 65.09 15.97">
  <defs>
    <style>
      .cls-1 {
        fill: #333;
        fill-rule: evenodd;
      }
    </style>
  </defs>
  <path id="_1_530円" data-name="1,530円" class="cls-1" d="M1106.77,4581.63h6.27v-0.48h-0.19c-1.48-.02-1.9-0.32-1.92-1.38v-10.94h-0.39a6.536,6.536,0,0,1-3.89,1.22v0.39h0.91c1.42,0.05,1.55.22,1.53,1.73v7.43c0.02,1.14-.42,1.46-2.05,1.52h-0.27v0.51Zm9.94,2.29c1.55-.95,2.26-1.99,2.26-3.25a1.383,1.383,0,0,0-1.43-1.56,1.289,1.289,0,0,0-1.39,1.29c0,0.61.39,0.97,1.27,1.17,0.28,0.07.38,0.14,0.38,0.33a2.53,2.53,0,0,1-1.39,1.59Zm6.22-8.58,0.5,0.08a2.785,2.785,0,0,1,2.38-1.33c1.61,0,2.66,1.33,2.66,3.37,0,2.24-1.22,3.79-2.99,3.79a2.831,2.831,0,0,1-1.8-.66,1.729,1.729,0,0,1-.54-0.77,1.236,1.236,0,0,0,.56.14,0.975,0.975,0,0,0,.92-1.02,1.115,1.115,0,0,0-1.08-1.11,1.319,1.319,0,0,0-1.24,1.35,2.452,2.452,0,0,0,.82,1.63,3.987,3.987,0,0,0,2.84,1.07,4.4,4.4,0,0,0,4.47-4.45,3.911,3.911,0,0,0-3.93-4.08,3.977,3.977,0,0,0-3.04,1.37l0.39-3.99h5.02c0.81,0.03,1.1-.34,1.3-1.62h-6.69Zm15.73-.24a5.568,5.568,0,0,0,1.68-.65,2.825,2.825,0,0,0,1.29-2.38,3.487,3.487,0,0,0-3.74-3.23c-1.99,0-3.67,1.35-3.67,2.94a1.268,1.268,0,0,0,1.24,1.35,1.016,1.016,0,0,0,1.07-1.01,0.942,0.942,0,0,0-.97-0.95,0.89,0.89,0,0,0-.68.32,1.7,1.7,0,0,1,.28-0.76,2.734,2.734,0,0,1,2.15-1.16,2.454,2.454,0,0,1,2.38,2.66c0,1.49-.91,2.7-2.05,2.7a2.378,2.378,0,0,1-.77-0.14,1.041,1.041,0,0,0-.27-0.05,0.412,0.412,0,0,0-.39.39,0.372,0.372,0,0,0,.36.36,1.454,1.454,0,0,0,.29-0.05,4.312,4.312,0,0,1,.88-0.17,1.865,1.865,0,0,1,1.12.42,2.923,2.923,0,0,1,1.09,2.42,2.872,2.872,0,0,1-2.81,3.14,2.73,2.73,0,0,1-2.66-1.75,1.414,1.414,0,0,0,.69.2,0.965,0.965,0,0,0,.99-0.98,1.155,1.155,0,0,0-1.17-1.12,1.277,1.277,0,0,0-1.21,1.41c0,1.53,1.75,2.84,3.81,2.84,2.34,0,4.31-1.64,4.31-3.56a3.111,3.111,0,0,0-1.37-2.51A3.735,3.735,0,0,0,1138.66,4575.1Zm10.83-5.82a1.824,1.824,0,0,1,1.65,1.47,12.534,12.534,0,0,1,.61,4.28c0,4.23-.77,6.37-2.3,6.37a1.821,1.821,0,0,1-1.66-1.39,14.328,14.328,0,0,1-.67-4.67,15.868,15.868,0,0,1,.6-4.44C1148.11,4569.76,1148.64,4569.28,1149.49,4569.28Zm-0.02-.47a3.648,3.648,0,0,0-3.28,2.07,8.9,8.9,0,0,0-1,4.46c0,3.89,1.7,6.52,4.23,6.52a3.544,3.544,0,0,0,3.33-2.16,9.616,9.616,0,0,0,.97-4.48,8.734,8.734,0,0,0-1.05-4.42A3.515,3.515,0,0,0,1149.47,4568.81Zm10.39,6.78h9.63v5.02c0,0.32-.27.39-1.54,0.39-0.22,0-.75-0.02-1.04-0.04a2.133,2.133,0,0,0-.22-0.01c-0.12,0-.17.03-0.17,0.11s0.1,0.12.78,0.34l0.72,0.24c0.3,0.1.61,0.21,0.66,0.21,0.25,0.08.27,0.08,0.27,0.54,0,0.43.03,0.51,0.26,0.51a3.132,3.132,0,0,0,1.05-.32,1.211,1.211,0,0,0,.88-1.24v-10.95l0.33-.12a0.422,0.422,0,0,0,.27-0.32,0.739,0.739,0,0,0-.22-0.43l-1.5-1.6-0.66,1.06h-9.23l-1.91-.9v14.72a0.234,0.234,0,0,0,.28.24,4.117,4.117,0,0,0,1-.19,0.455,0.455,0,0,0,.36-0.37v-6.89Zm0-6.15h3.94v5.69h-3.94v-5.69Zm5.56,5.69v-5.69h4.07v5.69h-4.07Z" transform="translate(-1106.66 -4567.94)"/>
</svg>
