<svg xmlns="http://www.w3.org/2000/svg" width="1236.992" height="71.26" viewBox="0 0 618.496 35.63">
  <defs>
    <style>
      .cls-1 {
        fill: #333;
        fill-rule: evenodd;
      }
    </style>
  </defs>
  <path id="ディナーセット以外のメニュー" class="cls-1" d="M634.057,7386.56c-1.208,0-1.792.12-1.792,0.39,0,0.12.078,0.19,0.273,0.23a6.046,6.046,0,0,1,3.5,2.69c0.739,1.21.856,1.32,1.557,1.32a1.579,1.579,0,0,0,1.636-1.55C639.236,7388.04,636.744,7386.56,634.057,7386.56Zm-4.011,2.96c-0.935,0-1.285.08-1.285,0.35a0.282,0.282,0,0,0,.194.23,5.74,5.74,0,0,1,3.31,2.96c0.468,0.98.7,1.17,1.4,1.17a1.461,1.461,0,0,0,1.558-1.52C635.225,7391.04,632.772,7389.52,630.046,7389.52Zm-17.757,3.04a0.334,0.334,0,0,0-.234.31,5.38,5.38,0,0,0,1.091,2.1,3.145,3.145,0,0,0,2.492,1.13,54.873,54.873,0,0,0,9.7-1.6c2.1-.46,2.882-0.81,2.882-1.36a2.015,2.015,0,0,0-1.208-1.44,6.316,6.316,0,0,0-2.024-.7,2.037,2.037,0,0,0-.7.19,15.28,15.28,0,0,1-2.376.98,25.255,25.255,0,0,1-6.97,1.28,3.843,3.843,0,0,1-2.531-.82A0.244,0.244,0,0,0,612.289,7392.56Zm8.1,8.91a1.624,1.624,0,0,1,.311.98c0,2.14-1.324,5.8-3.115,8.72-1.947,3.15-5.179,6.39-7.671,7.67-1.87.97-1.87,0.97-1.87,1.13s0.117,0.23.312,0.23a28.035,28.035,0,0,0,5.685-2.25c4.829-2.69,8.684-7.71,10.826-14.02a1.472,1.472,0,0,0,.584-0.9c0-.31-0.351-0.66-1.908-1.83,2.492-.19,3.037-0.23,3.972-0.23a39.4,39.4,0,0,1,5.3.43,6.958,6.958,0,0,0,1.012.11,1.3,1.3,0,0,0,1.441-1.13c0-.66-0.39-1.09-1.6-1.83a6.878,6.878,0,0,0-2.648-1.2c-1.6.97-2.687,1.28-5.958,1.79-3.154.46-13.94,1.59-15.3,1.59-1.636,0-2.376-.31-3.038-1.24a0.8,0.8,0,0,0-.389.74,2.679,2.679,0,0,0,.974,1.94,6.125,6.125,0,0,0,2.959,1.52,2.393,2.393,0,0,0,.623-0.11C612.99,7402.68,615.91,7402.06,620.389,7401.47Zm45.763,13.98c-0.039.39-.039,0.74-0.078,1.02a10.612,10.612,0,0,1-.545,1.94,2.018,2.018,0,0,0-.2.78c0,0.7,1.986,2.57,2.765,2.57,0.739,0,1.246-.78,1.246-1.87,0-.39-0.039-1.17-0.078-2.1,0-.47-0.078-1.87-0.117-4.24-0.117-4.21-.117-4.21-0.117-4.52a9.178,9.178,0,0,1,.234-2.38,1.426,1.426,0,0,0,.311-0.74,1.1,1.1,0,0,0-.895-0.81c-0.468-.24-0.662-0.32-1.091-0.55,1.169-1.21,2.8-3.04,3.894-4.36,0.429-.51.623-0.7,0.7-0.78a2.358,2.358,0,0,1,.623-0.47,0.756,0.756,0,0,0,.507-0.66c0-.47-0.507-1.13-1.6-2.3a3.552,3.552,0,0,0-2.765-1.4c-0.662,0-1.012.12-1.012,0.35a0.308,0.308,0,0,0,.272.27,1.416,1.416,0,0,1,.74,1.41c0,1.36-1.713,4.2-4.361,7.36-3.31,3.93-7.516,7.47-10.709,9.03a0.4,0.4,0,0,0-.311.31,0.314,0.314,0,0,0,.35.31,17.213,17.213,0,0,0,3.038-1.05c3.193-1.36,5.023-2.65,9.229-6.62a4.368,4.368,0,0,1,.233,2.18c0,0.82,0,.82-0.156,4.6Zm48.021-14.83a58.527,58.527,0,0,1,6.075-.35,31.445,31.445,0,0,1,5.062.39c0.312,0.03.662,0.07,0.9,0.07a1.1,1.1,0,0,0,1.168-1.09c0-.42-0.428-0.93-1.441-1.71a7.554,7.554,0,0,0-2.881-1.44,4.407,4.407,0,0,0-1.519.66c-1.519.82-2.375,1.01-7.126,1.6,0.117-3.08.234-5.26,0.311-5.96a2.221,2.221,0,0,1,.312-0.82,0.924,0.924,0,0,0,.156-0.43c0-.85-3.038-2.84-4.362-2.84-0.973,0-2.764.74-2.764,1.17,0,0.12.116,0.16,0.506,0.23,1.713,0.35,2.258,2.03,2.258,6.78,0,0.54-.039,1.17-0.078,2.37-7.632.82-8.722,0.94-10.28,0.94-1.947,0-3.115-.31-3.621-0.97a0.41,0.41,0,0,0-.351-0.28,0.288,0.288,0,0,0-.311.31c0,1.99,2.1,4.29,3.894,4.29a8.325,8.325,0,0,0,2.492-.63,38.875,38.875,0,0,1,8.022-1.86c-0.9,8.68-4.556,15.22-10.242,18.02-0.584.32-.7,0.39-0.7,0.59a0.256,0.256,0,0,0,.273.23,19.384,19.384,0,0,0,4.868-1.83,17.46,17.46,0,0,0,7.009-7.75C713.044,7407.63,713.589,7405.48,714.173,7400.62Zm53.98,1.09a30.67,30.67,0,0,1-6.192,1.32c-2.687.31-12.383,0.9-15.342,0.9-3.116,0-4.4-.35-4.985-1.33a0.57,0.57,0,0,0-.389-0.39c-0.389,0-.584.39-0.584,1.09a3.646,3.646,0,0,0,1.4,3.16,7.013,7.013,0,0,0,3.349,1.28,1.7,1.7,0,0,0,.545-0.11c2.92-1.17,8.683-1.72,18.419-1.72,1.44,0,2.609.04,3.426,0.12,1.675,0.16,2.921.27,3.271,0.27,1.207,0,1.986-.5,1.986-1.28C773.059,7403.5,771.424,7402.37,768.153,7401.71Zm28.473,0.11c-5.023,1.68-6.191,1.99-7.9,1.99a2.329,2.329,0,0,1-1.908-.62c-0.117-.24-0.155-0.28-0.272-0.28a0.849,0.849,0,0,0-.273.86c0,1.52,1.83,3.08,4.167,3.47a45.257,45.257,0,0,1,6.191-3.27c0.117,6.15.273,7.9,0.9,9.5,1.012,2.72,3.933,4.16,8.294,4.16a37.5,37.5,0,0,0,7.477-.74c1.674-.39,2.531-1.05,2.531-1.94a2.677,2.677,0,0,0-2.687-2.26,4.257,4.257,0,0,0-1.168.15,24.2,24.2,0,0,1-8.217,1.33c-2.92,0-3.972-1.33-3.972-4.91l0.039-5.18,0.039-1.52c5.686-2.41,6.815-2.84,7.555-2.84a0.6,0.6,0,0,1,.623.66c0,0.94-1.908,4.25-3.777,6.55a1.179,1.179,0,0,0-.351.58,0.246,0.246,0,0,0,.234.23,28.674,28.674,0,0,0,5.062-3.58,27.168,27.168,0,0,1,3.193-2.45c1.947-1.13,2.142-1.29,2.142-1.87,0-.51-0.351-0.86-1.636-1.75-1.713-1.17-2.8-1.76-3.349-1.76-0.389,0-.623.12-1.557,0.9-1.324,1.01-1.324,1.01-6,2.65l-2.064.74c0.117-1.6.234-3.08,0.351-4.52a7.657,7.657,0,0,1,.7-2.61,1.2,1.2,0,0,0,.077-0.31c0-1.01-3.076-2.96-4.711-2.96-0.818,0-2.3.74-2.3,1.13,0,0.19.117,0.27,0.429,0.31,1.557,0.2,2.141,1.44,2.18,4.63l-0.039,2.57v2.96Zm45.724-3.15a0.292,0.292,0,1,0-.155.55c1.518,0.73,3.037,2.99,3.66,5.52,0.273,1.06.584,1.45,1.246,1.45a2.083,2.083,0,0,0,1.947-2.15C849.048,7401.47,845.582,7398.67,842.35,7398.67Zm15.265,4.13c0.662-.7.74-0.78,0.74-1.05a6.288,6.288,0,0,0-1.908-2.69,3.94,3.94,0,0,0-2.8-1.29,0.533,0.533,0,0,0-.623.39,0.714,0.714,0,0,0,.389.43,2.619,2.619,0,0,1,.507,1.68c0,3.07-2.1,7.63-5.179,11.33a31.217,31.217,0,0,1-10.709,8.29c-0.973.39-.973,0.39-0.973,0.59a0.388,0.388,0,0,0,.389.31c1.48,0,5.646-1.64,8.022-3.12A31.93,31.93,0,0,0,857.615,7402.8Zm-21.3-.82c-0.39,0-.507.08-0.507,0.23a0.612,0.612,0,0,0,.429.47,10.411,10.411,0,0,1,3.543,5.26,1.061,1.061,0,0,0,1.052.85,2,2,0,0,0,1.791-2.18C842.623,7404.16,839.7,7401.98,836.315,7401.98Zm55.576,5.06-0.039-3.19-0.078-3.54a13.679,13.679,0,0,1,6.114,5.21,10.218,10.218,0,0,0,1.246,1.83,2.333,2.333,0,0,0,1.791.82,1.985,1.985,0,0,0,2.064-2.06c0-1.4-1.285-3.08-3.232-4.32-2.142-1.37-4.284-1.95-7.944-2.26a27.968,27.968,0,0,1,.545-6.35,3.962,3.962,0,0,0,.545-1.52,3.7,3.7,0,0,0-1.051-1.79c-1.091-1.13-1.947-1.64-2.8-1.64-1.129,0-3.466,1.09-3.466,1.6a0.256,0.256,0,0,0,.312.27c1.869,0,2.258.51,2.453,2.92,0.078,1.09.273,8.65,0.273,11.26a99.646,99.646,0,0,1-.545,10.36,11.353,11.353,0,0,0-.39,2.18c0,1.44,1.714,3.89,2.765,3.89,0.973,0,1.752-1.52,1.752-3.5,0-.51-0.039-1.83-0.156-3.43-0.038-.47-0.077-1.75-0.077-3.12Zm30.342,9.54a1.1,1.1,0,0,0,.818.47,0.891,0.891,0,0,0,.74-0.7l0.389-1.05c4.946-2.14,9.463-4.25,12.422-5.65,2.415-1.21,2.726-1.36,2.726-1.67a0.314,0.314,0,0,0-.35-0.31,4.752,4.752,0,0,0-1.285.31c-5.958,1.83-7.749,2.37-9.657,2.8v-18.34l0.778-.47a0.835,0.835,0,0,0,.507-0.74,0.861,0.861,0,0,0-.9-0.85l-3.972-.51v21.84c-3.154.78-3.31,0.82-4.984,1.13Zm27.8-26.24a0.828,0.828,0,0,0,.428-0.7,0.858,0.858,0,0,0-.818-0.86l-4.478-.66c-0.078,13.63-.623,18.45-2.57,22.23-2.414,4.95-6.892,8.18-14.758,10.55-0.9.28-1.168,0.43-1.168,0.71a0.351,0.351,0,0,0,.428.31,42.781,42.781,0,0,0,9-2.38c4.439-1.79,6.737-3.58,9.073-7.09a14.428,14.428,0,0,1,4.44,5.5c1.323,2.53,1.323,2.53,1.791,2.95a1.473,1.473,0,0,0,1.051.43,1.732,1.732,0,0,0,1.714-1.9,5.845,5.845,0,0,0-1.947-4.02c-1.6-1.63-3-2.49-6.542-3.89,2.1-4.28,3.037-10.16,3.193-20.6Zm-17.952.11a0.381,0.381,0,0,0-.35.35,0.983,0.983,0,0,0,.233.35,11.575,11.575,0,0,1,3.739,6.16c0.74,2.41,1.09,2.88,2.1,2.88a1.918,1.918,0,0,0,1.869-2.18c0-1.91-1.285-3.97-3.388-5.53A13.532,13.532,0,0,0,932.085,7390.45Zm57.874-1.13,0.857-.42a0.787,0.787,0,0,0,.545-0.74,0.888,0.888,0,0,0-.857-0.82l-4.089-.39v14.48a15.961,15.961,0,0,1-2.765-5.8l0.585-.19a0.539,0.539,0,0,0,.389-0.51,0.8,0.8,0,0,0-.389-0.62l-3.31-2.81-1.285,2.3H973.8c0.584-1.67.662-1.94,1.246-3.77l0.9-.39a0.8,0.8,0,0,0,.662-0.74,0.78,0.78,0,0,0-.584-0.71l-4.6-1.24c-0.662,7.51-3.037,14.99-6.542,20.4a2.56,2.56,0,0,0-.584,1.17,0.222,0.222,0,0,0,.195.24c0.74,0,4.322-4.4,5.841-7.17,1.441,1.13,1.869,1.83,3,4.63,0.507,1.25,1.013,1.76,1.753,1.72a3.967,3.967,0,0,0,.584-0.08,28.194,28.194,0,0,1-10.475,11.57,0.832,0.832,0,0,0-.468.58,0.193,0.193,0,0,0,.234.19,23.949,23.949,0,0,0,4.011-1.9c4.984-3,7.593-5.65,10.086-10.25a46.939,46.939,0,0,0,4.01-10.9,22.341,22.341,0,0,0,3.349,7.71v16.47c0,0.63.156,0.86,0.623,0.86a9,9,0,0,0,2.259-.51,0.751,0.751,0,0,0,.662-0.81v-11.96a31.575,31.575,0,0,0,7.905,5.41,10.764,10.764,0,0,1,3.506-3.5,31.819,31.819,0,0,1-11.411-5.69v-15.81Zm-10.4,5.53a56.775,56.775,0,0,1-2.8,10.56c-0.467-2.53-2.453-3.98-6.075-4.44a62.821,62.821,0,0,0,2.765-6.12h6.114Zm48.958-1.9c0.43-.04.7-0.04,0.82-0.04a9.4,9.4,0,0,1,4.01.93c3.38,1.71,5.14,5.26,5.14,10.48,0,4.79-1.6,8.33-4.99,11.09a20.925,20.925,0,0,1-6.97,3.63c-0.62.19-.74,0.23-0.74,0.42,0,0.16.16,0.24,0.39,0.24a17.042,17.042,0,0,0,2.49-.47,23.952,23.952,0,0,0,7.21-2.65,14.334,14.334,0,0,0,7.2-12.46,11.751,11.751,0,0,0-3.07-8.21,15.05,15.05,0,0,0-10.95-4.29c-9.11,0-16.94,7.36-16.94,15.93a10.14,10.14,0,0,0,1.91,6.27,4.733,4.733,0,0,0,3.27,2.14c2.14,0,5.53-2.77,7.83-6.35a24.99,24.99,0,0,0,3.89-12.65A14.823,14.823,0,0,0,1028.52,7392.95Zm-1.91.15a1.833,1.833,0,0,0,.08.27,9.724,9.724,0,0,1,.23,2.18c0,3.47-1.48,7.79-3.97,11.65-1.64,2.57-3.86,4.59-5.06,4.59s-2.26-2.02-2.26-4.32a15.232,15.232,0,0,1,4.59-10.86A14.619,14.619,0,0,1,1026.61,7393.1Zm52.07,9.62a46.748,46.748,0,0,0,3.16-5.8,3.121,3.121,0,0,1,.97-1.48,0.884,0.884,0,0,0,.54-0.74c0-.59-1.16-2.03-2.45-3a7.182,7.182,0,0,0-3.31-1.52,0.563,0.563,0,0,0-.54.39,0.274,0.274,0,0,0,.11.16,3.4,3.4,0,0,1,1.09,2.72c0,1.64-.81,4.21-2.37,7.32a19.335,19.335,0,0,0-9.04-2.92,0.57,0.57,0,0,0-.66.35c0,0.24.2,0.35,0.86,0.55,2.57,0.85,4.44,2.06,7.24,4.63-4.59,6.23-9.97,11.14-15.19,13.9-1.01.51-1.16,0.63-1.16,0.82a0.335,0.335,0,0,0,.31.35c0.85,0,5.29-1.83,7.59-3.11,3.93-2.26,6.97-4.91,10.87-9.7a22.575,22.575,0,0,1,2.99,3.82c0.9,1.32,1.17,1.55,1.87,1.55a1.979,1.979,0,0,0,1.95-2.06C1083.51,7407.12,1082.03,7405.21,1078.68,7402.72Zm44.09-7.98a10.855,10.855,0,0,1-3,1.4,39.129,39.129,0,0,1-6.85,1.01,7.543,7.543,0,0,1-3.23-.82,1.251,1.251,0,0,0-.28-0.15,0.18,0.18,0,0,0-.19.15,3.167,3.167,0,0,0,.7,1.44c1.05,1.6,1.91,2.18,3.31,2.18a28.668,28.668,0,0,0,5.37-.73c2.07-.39,3-0.51,5.61-0.9,2.1-.31,2.61-0.55,2.61-1.17C1126.82,7396.1,1125.07,7395.05,1122.77,7394.74Zm-20.25,14.13a0.354,0.354,0,0,0-.35.35c0,1.91,2.45,4.6,4.17,4.6a4.687,4.687,0,0,0,1.55-.39c3.98-1.48,10.95-2.42,18.27-2.42a32.912,32.912,0,0,1,5.99.47,14.682,14.682,0,0,0,1.56.16,1.027,1.027,0,0,0,1.17-.98,2.577,2.577,0,0,0-1.44-2.06c-1.79-1.29-2.57-1.71-3-1.71a3.65,3.65,0,0,0-1.05.27,16.392,16.392,0,0,1-6.04,1.52c-7.47.93-14.05,1.56-16.12,1.56-2.18,0-3.74-.39-4.32-1.06A0.53,0.53,0,0,0,1102.52,7408.87Zm61.53,3.43c-0.85.08-1.71,0.19-2.53,0.27-0.27,0-2.49.27-5.18,0.59-2.88.31-2.88,0.31-3.27,0.31a3.735,3.735,0,0,1-2.53-.66c-0.11-.2-0.11-0.2-0.19-0.2a1.17,1.17,0,0,0-.47,1.17c0,0.43.27,0.74,1.05,1.36a3.572,3.572,0,0,0,4.6.39,11.31,11.31,0,0,1,2.64-.82,64.624,64.624,0,0,1,9.58-.93,41.8,41.8,0,0,1,7.13.62,6.546,6.546,0,0,0,1.13.2,1.046,1.046,0,0,0,1.17-.86c0-.9-2.18-2.96-3.16-2.96a1.9,1.9,0,0,0-.54.12,14.173,14.173,0,0,1-4.36.89c-0.31.04-1.25,0.12-2.26,0.24,0.7-3.2,1.05-4.68,1.98-7.79,0.82-.7.98-0.9,0.98-1.17,0-.35-0.24-0.58-1.44-1.44-1.72-1.21-1.76-1.25-1.99-1.25a1.308,1.308,0,0,0-.7.31,11.192,11.192,0,0,1-2.3.98,37.781,37.781,0,0,1-6.19,1.13,2.08,2.08,0,0,1-1.71-.74c-0.27-.47-0.27-0.47-0.43-0.47-0.31,0-.47.27-0.47,0.9a2.535,2.535,0,0,0,1.25,2.41,2.286,2.286,0,0,0,1.36.51,8.943,8.943,0,0,0,2.81-.9,14.686,14.686,0,0,1,4.43-1.36,0.762,0.762,0,0,1,.67.89A70.035,70.035,0,0,1,1164.05,7412.3Zm55.89-10.59a30.622,30.622,0,0,1-6.19,1.32c-2.69.31-12.38,0.9-15.34,0.9-3.12,0-4.4-.35-4.99-1.33a0.559,0.559,0,0,0-.39-0.39c-0.38,0-.58.39-0.58,1.09a3.653,3.653,0,0,0,1.4,3.16,7.005,7.005,0,0,0,3.35,1.28,1.728,1.728,0,0,0,.55-0.11c2.92-1.17,8.68-1.72,18.42-1.72,1.44,0,2.6.04,3.42,0.12,1.68,0.16,2.92.27,3.27,0.27,1.21,0,1.99-.5,1.99-1.28C1224.85,7403.5,1223.21,7402.37,1219.94,7401.71Z" transform="translate(-606.344 -7386.56)"/>
</svg>
