<svg xmlns="http://www.w3.org/2000/svg" width="1213.818" height="52" viewBox="0 0 606.909 26">
  <defs>
    <style>
      .cls-1 {
        fill: #333;
        fill-rule: evenodd;
      }
    </style>
  </defs>
  <path id="お好きなスイーツが選べるワゴンサービス" class="cls-1" d="M587.137,5284.53c3.416-2.13,5.152-2.83,6.944-2.83,1.708,0,2.828,1.26,2.828,3.16a4.334,4.334,0,0,1-4.256,4.37,2.281,2.281,0,0,1-2.3-2.55,4.786,4.786,0,0,1,.448-1.9,0.752,0.752,0,0,0,.056-0.2,0.157,0.157,0,0,0-.112-0.14c-0.588,0-1.512,1.91-1.512,3.11a5.4,5.4,0,0,0,.588,2.44,3.381,3.381,0,0,0,3.192,1.54,6.532,6.532,0,0,0,6.608-6.42c0-2.74-1.988-4.56-4.9-4.56-2.184,0-4.284.7-7.616,2.49v-1.29c0-.75.028-1.31,0.056-2.07,3.08-1.17,4.648-2.38,4.648-3.58a0.716,0.716,0,0,0-.672-0.79,3,3,0,0,0-.42.03h-0.2a8.292,8.292,0,0,1-3.136-.87,3.32,3.32,0,0,1,.336-1.17,0.859,0.859,0,0,0,.14-0.37c0-.75-1.568-1.79-2.66-1.79-0.756,0-1.9.59-1.9,0.98a0.205,0.205,0,0,0,.2.17h0.056a0.529,0.529,0,0,1,.308-0.08c0.84,0,1.232.64,1.4,2.38,0.168,1.84.224,2.71,0.224,3.52a10.627,10.627,0,0,1-3.332.56c-1.148,0-1.736-.25-1.96-0.84a0.145,0.145,0,0,0-.14-0.11c-0.14,0-.2.2-0.2,0.65a2.247,2.247,0,0,0,2.492,2.21,13.688,13.688,0,0,0,3.22-.48c0.084,1.12.084,1.71,0.084,3.61-1.26.65-2.24,1.18-4.284,2.24-1.68.93-1.68,0.93-2.044,0.93a0.614,0.614,0,0,1-.364-0.14,0.656,0.656,0,0,0-.5-0.25,1.047,1.047,0,0,0-.924,1.14c0,1.12,1.316,2.75,2.24,2.75,0.336,0,.448-0.09,1.54-1.29,0.532-.56.56-0.62,0.9-0.98a4.524,4.524,0,0,1,2.3,3.86c0,0.65.084,0.79,0.5,0.79a2.831,2.831,0,0,0,2.52-2.44,1.555,1.555,0,0,0-.028-0.31c-0.14-1.59-.168-2.26-0.336-5.12Zm-1.372,3.75c0,0.56-.14.92-0.392,0.92a12.98,12.98,0,0,1-2.688-1.59c1.064-.87,1.6-1.29,3.08-2.33-0.028.76-.028,1.04-0.028,1.51Zm1.512-13.22c0.476,0.23,1.008.51,1.624,0.81,0.14,0.06.168,0.09,0.168,0.2,0,0.48-.728,1.06-1.848,1.51l0.028-1.26Zm11.284,0.25a6.4,6.4,0,0,0-3.7,1.15,0.9,0.9,0,0,0-.476.48,0.144,0.144,0,0,0,.14.17,1.03,1.03,0,0,0,.336-0.09,4.1,4.1,0,0,1,1.344-.22,4.985,4.985,0,0,1,2.66.84,5.071,5.071,0,0,1,1.568,1.76,1.414,1.414,0,0,0,.42.84,1.291,1.291,0,0,0,.812.34,1.916,1.916,0,0,0,1.652-1.91C603.321,5276.8,601.221,5275.31,598.561,5275.31Zm10.864,2.1c1.6-.05,1.848-0.08,3.584-0.08a92.873,92.873,0,0,1-1.988,9.49,5.125,5.125,0,0,0-.252.95c0,0.28.756,0.54,1.652,0.54a0.667,0.667,0,0,0,.812-0.62,5.374,5.374,0,0,1,.224-0.81,3.746,3.746,0,0,1,.14-0.53,9.156,9.156,0,0,1,2.212,1.56c-1.064,2.44-2.94,4.51-6.16,6.72a0.418,0.418,0,0,0-.2.28,0.217,0.217,0,0,0,.2.23,9.782,9.782,0,0,0,2.38-1.18,15.5,15.5,0,0,0,5.152-4.76,9.707,9.707,0,0,1,1.092,1.43c0.7,1.12,1.092,1.48,1.624,1.48a1.224,1.224,0,0,0,1.12-1.31c0-1.18-.952-2.35-2.856-3.47a26.854,26.854,0,0,0,2.268-8.91l0.336-.08a0.632,0.632,0,0,0,.532-0.62,0.735,0.735,0,0,0-.308-0.56l-1.9-2.04-1.036,1.45h-2.632c0.084-.5.308-2.01,0.672-4.56l0.084-.62,0.728-.33a0.607,0.607,0,0,0,.448-0.56,0.729,0.729,0,0,0-.616-0.67l-2.744-.62c-0.308,3.14-.532,5.29-0.84,7.36-1.932-.02-2.24-0.02-4.088-0.11Zm16.6,5.58v7.61c0,0.73-.14.84-1.036,0.84-0.168,0-2.128-.08-2.268-0.11a6.187,6.187,0,0,0-.644-0.06,0.2,0.2,0,0,0-.224.2c0,0.08.056,0.11,0.28,0.2a6.4,6.4,0,0,0,.672.28,10.862,10.862,0,0,0,1.092.42c0.42,0.16.98,0.42,1.092,0.47a0.479,0.479,0,0,1,.224.56c-0.028.79,0.2,1.12,0.728,1.12a3.1,3.1,0,0,0,1.2-.39,1.8,1.8,0,0,0,1.344-1.96v-9.18H635.1c0.364,0,.588-0.14.588-0.4a0.674,0.674,0,0,0-.308-0.5l-2.38-1.96-1.764,2.1h-2.744v-4.42l0.252-.23a0.579,0.579,0,0,0,.336-0.45,0.509,0.509,0,0,0-.28-0.36c1.624-1.26,2.044-1.57,3.948-3.08h0.644c0.532,0,.812-0.2.812-0.59a0.891,0.891,0,0,0-.28-0.56l-2.464-2.38-1.148,1.57h-6.776c-1.036,0-1.82-.03-3.752-0.11l0.5,0.95c1.652-.06,2.352-0.08,3.248-0.08h6.72a37.206,37.206,0,0,1-2.436,4l-1.792-.14v5.88h-1.764c-1.26,0-1.988-.03-3.752-0.11l0.532,0.95c1.428-.06,2.072-0.08,3.22-0.08h1.764Zm-7.868-5.66a43.281,43.281,0,0,1-1.736,9.18,16.374,16.374,0,0,0-2.66-.7c0.84-3.94,1.344-6.69,1.568-8.48h2.828Zm38.612,2.18a18.662,18.662,0,0,1-6.412,1.12c-1.988,0-3.248-.5-3.612-1.45-0.14-.31-0.14-0.34-0.224-0.34-0.112,0-.2.17-0.2,0.42a3.143,3.143,0,0,0,1.344,2.41,5.954,5.954,0,0,0,3.248.81,26.259,26.259,0,0,0,6.832-1.06,16.032,16.032,0,0,1,1.932,3.95,0.3,0.3,0,0,1-.336.28,5.836,5.836,0,0,1-1.512-.31,11.934,11.934,0,0,0-3.668-.56c-3.668,0-6.132,1.73-6.132,4.34,0,2.83,3.22,4.79,7.868,4.79,1.9,0,2.8-.56,2.8-1.74a1.191,1.191,0,0,0-1.344-1.23,3.9,3.9,0,0,0-.532.03c-0.5.02-1.932,0.08-2.3,0.08-2.6,0-4.228-1.01-4.228-2.66s1.428-2.69,3.78-2.69a9.382,9.382,0,0,1,6.636,3.31,2.236,2.236,0,0,0,.336.02c1.12,0,1.988-1.14,1.988-2.63a3.678,3.678,0,0,0-1.064-2.43c-1.4-1.66-2.044-2.44-2.6-3.22a21.911,21.911,0,0,0,3.892-1.91c0.924-.59,1.316-1.03,1.316-1.57a0.72,0.72,0,0,0-.616-0.64,9.52,9.52,0,0,0-2.212-.39c-0.224.78-1.2,1.48-3.668,2.57a18.8,18.8,0,0,1-1.456-2.46c2.184-.9,3.108-1.51,3.108-2.07a1.974,1.974,0,0,0-1.82-1.23c-0.28,0-.392.08-1.12,0.72a5.64,5.64,0,0,1-1.064.79c-0.868-1.88-1.092-2.55-1.092-3.22a0.825,0.825,0,0,1,.028-0.25,0.915,0.915,0,0,0-.336-0.56,4.988,4.988,0,0,0-2.94-.93c-0.644,0-2.016.84-2.016,1.23a0.176,0.176,0,0,0,.2.12c1.484-.06,2.464.81,4.592,4.17a10.48,10.48,0,0,1-3.668.73,2.4,2.4,0,0,1-2.1-.7,0.3,0.3,0,0,0-.252-0.2,0.2,0.2,0,0,0-.224.2,2.681,2.681,0,0,0,.7,1.23,3.5,3.5,0,0,0,2.632,1.12,14.718,14.718,0,0,0,3.976-.7A22.618,22.618,0,0,1,656.773,5279.51Zm35.028-2.4c1.512,0,2.912.64,2.912,1.34,0,0.25-.112.31-0.728,0.48a5.26,5.26,0,0,0-3.556,2.96c-0.336.87-.448,2.1-0.448,5.1a11.858,11.858,0,0,0-1.372-.06,8.094,8.094,0,0,0-3.7.73,3.209,3.209,0,0,0-1.68,2.63c0,2.08,2.156,3.64,4.984,3.64a3.925,3.925,0,0,0,3.64-1.65,4.748,4.748,0,0,0,.56-2.55,11.169,11.169,0,0,1,2.856,2.19,2.124,2.124,0,0,0,1.456.84,1.306,1.306,0,0,0,1.176-1.35c0-1.37-2.184-2.94-5.488-3.92a38.516,38.516,0,0,1-.5-4.53c0-2.05.84-3.17,2.38-3.17a6.588,6.588,0,0,1,2.94.82,1.219,1.219,0,0,0,1.008-1.35c0-1.85-1.9-3.33-4.284-3.33-1.316,0-3.388.64-3.388,1.06a0.178,0.178,0,0,0,.168.17,0.513,0.513,0,0,0,.2-0.03Zm-1.848,12.51a2.131,2.131,0,0,1-2.38,2.19c-1.652,0-2.744-.7-2.744-1.71,0-1.07,1.036-1.77,2.548-1.77a7.325,7.325,0,0,1,2.576.48v0.81Zm-6.832-12.43a21.087,21.087,0,0,1-5.488,8.62,2.046,2.046,0,0,0-.9,1.32,1.6,1.6,0,0,0,1.6,1.48,2.265,2.265,0,0,0,1.68-.75,13.9,13.9,0,0,0,1.428-2.44,73.087,73.087,0,0,0,3.892-8.71,11.437,11.437,0,0,0,2.6-1c1.26-.68,1.764-1.29,1.764-2.19,0-.67-0.14-0.78-0.868-0.81a3.639,3.639,0,0,1-2.464-.62c0.084-.5.14-0.75,0.224-1.4a2.481,2.481,0,0,0-2.324-1.23c-0.84,0-1.9.39-1.9,0.73,0,0.08.056,0.11,0.224,0.11a1.686,1.686,0,0,1,1.652,1.77,9.4,9.4,0,0,1-.56,2.91,10.353,10.353,0,0,1-3.08.56,2.829,2.829,0,0,1-2.6-1.23c-0.084-.2-0.14-0.23-0.224-0.23a0.2,0.2,0,0,0-.2.2,4.232,4.232,0,0,0,.672,1.9,3.134,3.134,0,0,0,2.716,1.21A14.869,14.869,0,0,0,683.121,5277.19Zm3.108-4.65c0.98,0.62,1.092.73,1.092,0.84,0,0.31-.56.7-1.652,1.18C685.977,5273.49,686.033,5273.33,686.229,5272.54Zm32.76,2.38a18.175,18.175,0,0,1-4.116.67,2.084,2.084,0,0,1-1.708-.61c-0.14-.25-0.14-0.25-0.252-0.25a1.069,1.069,0,0,0-.308.89,1.889,1.889,0,0,0,.672,1.32,3.579,3.579,0,0,0,1.568.89,2.4,2.4,0,0,0,.84-0.28,38.792,38.792,0,0,1,4.956-1.76,3.294,3.294,0,0,1,1.12-.25,0.38,0.38,0,0,1,.448.36,7.725,7.725,0,0,1-.672,1.93,27.871,27.871,0,0,1-3.332,5.88,24.912,24.912,0,0,1-9.016,7.65c-0.756.33-.924,0.45-0.924,0.59a0.224,0.224,0,0,0,.252.19,6.36,6.36,0,0,0,1.372-.33,22.3,22.3,0,0,0,7.42-4.06,25.1,25.1,0,0,0,4.116-4.48,12.967,12.967,0,0,1,5.068,6.18c0.532,1.29.84,1.63,1.512,1.63a1.757,1.757,0,0,0,1.708-1.74c0-1.31-.952-2.85-2.6-4.17a12.707,12.707,0,0,0-5.32-2.49,47.88,47.88,0,0,0,3.612-6.27,1.428,1.428,0,0,0,.9-0.87,1.518,1.518,0,0,0-.784-0.95,5.252,5.252,0,0,0-2.044-1.29,1.763,1.763,0,0,0-.98.53,3.237,3.237,0,0,1-1.764.76Zm35.924,16.44c0-.03-0.056-1.32-0.14-3.89-0.056-2.58-.112-4.9-0.112-4.93a8.323,8.323,0,0,1,.2-1.85,0.909,0.909,0,0,0,.252-0.59c0-.28-0.168-0.42-1.092-0.84-0.084-.03-0.364-0.17-0.644-0.31,1.932-2.07,2.8-3.05,3.64-4.06a2.826,2.826,0,0,1,.98-0.89,0.548,0.548,0,0,0,.364-0.48c0-.36-0.42-0.95-1.428-1.96a2.868,2.868,0,0,0-2.3-1.17c-0.532,0-.812.08-0.812,0.25a0.259,0.259,0,0,0,.168.17,1.181,1.181,0,0,1,.672,1.2c0,3.11-7.56,11.48-12.712,14.11-0.5.25-.532,0.25-0.532,0.39a0.214,0.214,0,0,0,.224.2,12.9,12.9,0,0,0,2.716-.95c2.856-1.23,4.172-2.19,7.924-5.71a3.827,3.827,0,0,1,.2,1.62c0,1.4-.028,2.55-0.14,5.24a12.054,12.054,0,0,1-.476,3.75,2.48,2.48,0,0,0-.252.89,3.814,3.814,0,0,0,2.324,2.19,1.331,1.331,0,0,0,1.008-1.51Zm38.164-11.37a22,22,0,0,1-4.452.95c-1.932.23-8.9,0.65-11.032,0.65-2.24,0-3.164-.26-3.584-0.96a0.417,0.417,0,0,0-.28-0.28c-0.28,0-.42.28-0.42,0.79a2.627,2.627,0,0,0,1.008,2.27,5.1,5.1,0,0,0,2.408.92,1.232,1.232,0,0,0,.392-0.08c2.1-.84,6.244-1.24,13.244-1.24,1.036,0,1.876.03,2.464,0.09,1.2,0.11,2.1.19,2.352,0.19,0.868,0,1.428-.36,1.428-0.92C796.605,5281.28,795.429,5280.47,793.077,5279.99Zm20.44-6.1c-0.364,0-.532.05-0.532,0.19a0.179,0.179,0,0,0,.168.14,7.585,7.585,0,0,1,3.108,4.51c0.336,1.32.5,1.57,1.12,1.57a1.738,1.738,0,0,0,1.624-1.79C819.005,5276.41,816.009,5273.89,813.517,5273.89Zm12.88,3.52c0.588-.58.644-0.64,0.644-0.89a5.561,5.561,0,0,0-1.736-2.38,3.364,3.364,0,0,0-2.324-.98,0.355,0.355,0,0,0-.42.25,0.246,0.246,0,0,0,.084.17,1.813,1.813,0,0,1,.644,1.73c0,2.75-1.988,6.92-4.816,10.2a26.707,26.707,0,0,1-9.352,6.91c-0.308.09-.364,0.14-0.364,0.28a0.23,0.23,0,0,0,.252.2,16.691,16.691,0,0,0,2.688-.67,22.264,22.264,0,0,0,9.548-6.58A27.6,27.6,0,0,0,826.4,5277.41Zm-18.2-.64c-0.392,0-.532.06-0.532,0.2a0.182,0.182,0,0,0,.112.14,9.045,9.045,0,0,1,3.052,3.97,2.622,2.622,0,0,0,.532,1.21,0.72,0.72,0,0,0,.588.28,1.722,1.722,0,0,0,1.512-1.88,3.886,3.886,0,0,0-2.38-3.19A7.474,7.474,0,0,0,808.2,5276.77Zm46-5.91a1.269,1.269,0,0,0-1.2.34c0,0.11.084,0.19,0.392,0.28a3.987,3.987,0,0,1,2.128,1.62c0.616,0.98.616,0.98,1.092,0.98a1.181,1.181,0,0,0,1.232-1.09C857.841,5271.9,856.049,5270.86,854.2,5270.86Zm3.724-1.59a1.335,1.335,0,0,0-1.232.33c0,0.14.056,0.2,0.42,0.31a4.683,4.683,0,0,1,2.324,1.88c0.42,0.72.56,0.81,1.008,0.81a1.223,1.223,0,0,0,1.232-1.09C861.677,5270.36,859.829,5269.27,857.925,5269.27Zm-14.476,2.68c1.036,0,1.68.87,1.68,2.3a17.577,17.577,0,0,1-.42,3.67,20.661,20.661,0,0,1-4.676,1.09,1.642,1.642,0,0,1-1.484-.78c-0.084-.31-0.112-0.34-0.224-0.34a0.815,0.815,0,0,0-.28.84c0,1.46.868,2.63,1.932,2.63a3.382,3.382,0,0,0,1.6-.56c1.036-.53,1.344-0.67,2.8-1.37a27.965,27.965,0,0,1-5.544,10.19c-0.84.9-.98,1.12-0.98,1.54a1.339,1.339,0,0,0,1.456,1.23,2.274,2.274,0,0,0,1.4-.47,6.069,6.069,0,0,0,1.008-1.46,60.365,60.365,0,0,0,4.984-11.81,6.563,6.563,0,0,1,2.072-.51c1.036,0,1.512.79,1.512,2.49a20.2,20.2,0,0,1-1.316,7.14,2.067,2.067,0,0,1-1.6,1.52c-0.392,0-.56-0.12-2.072-1.4a2.029,2.029,0,0,0-.812-0.56,0.207,0.207,0,0,0-.2.16,0.767,0.767,0,0,0,.28.42,6.262,6.262,0,0,1,1.4,3.42c0.056,0.78.224,0.95,0.9,0.95a4.9,4.9,0,0,0,3.864-2.24c1.12-1.68,1.876-5.09,1.876-8.4,0-2.97-1.26-4.62-3.556-4.62a8.217,8.217,0,0,0-2.016.31,28.405,28.405,0,0,0,.84-4.17c0-.87-1.736-2.02-3.052-2.02a2.607,2.607,0,0,0-1.764.73,0.144,0.144,0,0,0,.14.11,0.287,0.287,0,0,0,.14-0.03h0.112Zm13.86,11.48c1.484,0,2.044.17,2.772,0.87a1.061,1.061,0,0,0,.756.37c0.924,0,1.512-.87,1.512-2.22a6.869,6.869,0,0,0-6.888-6.63c-0.728,0-1.12.11-1.12,0.31,0,0.14.056,0.19,0.364,0.22a6.024,6.024,0,0,1,3.472,2.24,4.953,4.953,0,0,1,1.26,2.63,0.988,0.988,0,0,1-.728.9,19.278,19.278,0,0,1-2.548.95c-0.2.06-.28,0.11-0.28,0.22a0.221,0.221,0,0,0,.224.23c0.112,0,.308-0.03.56-0.06A3.371,3.371,0,0,1,857.309,5283.43Zm18.116-.5,0.5-.17c0.5-.14.56-0.19,0.56-0.45a1.216,1.216,0,0,0-.476-0.86l-2.044-2.13-1.064,1.65h-0.14c-0.308,0-.868-0.03-1.68-0.06-0.336-.02-1.064-0.02-2.044-0.05l0.5,0.95c2.52-.08,2.66-0.11,3.22-0.11h0.224v7.53a19.432,19.432,0,0,1-2.436,1.34c-0.84.37-1.344,0.59-1.512,0.68l1.988,1.98a0.938,0.938,0,0,0,.672.37c0.308,0,.476-0.23.476-0.67v-0.76l0.084-.08a2.384,2.384,0,0,1,.28-0.37c0.476-.59.532-0.7,1.12-1.43,0.364-.44.476-0.58,0.7-0.89,2.772,3.44,5.544,4.53,11.592,4.53,2.688,0,6.3-.05,7.84-0.08a6.326,6.326,0,0,1,1.68-2.6c-4,.3-7.84.5-10.3,0.5-3.416,0-4.844-.14-6.468-0.7a45.723,45.723,0,0,0,5.236-2.52l0.588-.06c0.56-.05.784-0.19,0.784-0.47a0.855,0.855,0,0,0-.56-0.65l-1.764-1.2a20.129,20.129,0,0,1-5.1,4.62,7.653,7.653,0,0,1-2.464-1.46v-6.38Zm-4.62-13.3a0.213,0.213,0,0,0-.252.22,0.356,0.356,0,0,0,.112.23,6.226,6.226,0,0,1,1.988,2.6c0.56,2.05.56,2.05,0.868,2.35a0.952,0.952,0,0,0,.672.26,1.644,1.644,0,0,0,1.512-1.85c0-1.43-1.176-2.72-3.108-3.39A8.919,8.919,0,0,0,870.805,5269.63Zm5.88,16.41c3.052-.11,3.416-0.11,4.284-0.11h14.056a0.357,0.357,0,0,0,.392-0.4,0.7,0.7,0,0,0-.392-0.58l-2.044-1.71-1.68,1.9h-1.82v-2.74h4.312a0.322,0.322,0,0,0,.392-0.31c0-.22-0.028-0.28-0.448-0.62l-1.68-1.42-1.428,1.59h-1.148v-1.17l0.252-.09a0.525,0.525,0,0,0,.364-0.42c0-.19-0.168-0.31-0.5-0.33l-2.268-.12v2.13h-3.752v-0.89l0.28-.14a0.506,0.506,0,0,0,.364-0.4c0-.28-0.224-0.39-0.7-0.42l-2.184-.05v1.9h-0.448c-0.112,0-1.008-.03-1.9-0.05l-1.848-.06,0.56,0.95c2.408-.08,2.744-0.08,3.192-0.08h0.448v2.74h-0.364c-1.876,0-2.576,0-4.844-.11Zm11.676-11.4h2.716v0.39c0,0.31.14,0.42,0.5,0.42,0.7,0,1.708-.39,1.708-0.67v-2.66l0.42-.19a0.573,0.573,0,0,0,.364-0.45,0.958,0.958,0,0,0-.616-0.81l-1.82-1.54-0.728,1.31h-1.96c-0.812,0-1.624-.03-3.752-0.11l0.476,0.95c0.728-.03,1.344-0.05,1.6-0.05,0.868-.03,1.456-0.06,1.68-0.06h2.128v2.72h-2.464l-2.352-.9v4.68c0,1.03.532,1.34,2.352,1.34a29.825,29.825,0,0,0,5.936-.36,1.105,1.105,0,0,0,.756-0.96,0.731,0.731,0,0,0-.532-0.64,1.494,1.494,0,0,1-.5-0.22,0.58,0.58,0,0,1-.056-0.31c-0.056-1.43-.084-1.63-0.252-1.63a0.407,0.407,0,0,0-.28.28,3.883,3.883,0,0,1-1.008,1.68,8.138,8.138,0,0,1-3,.34,4.378,4.378,0,0,1-1.26-.08c-0.056-.03-0.056-0.03-0.056-0.48v-1.99Zm-8.9,0h2.436v0.42c0,0.28.112,0.37,0.5,0.37,0.868,0,1.736-.37,1.736-0.73v-2.69l0.42-.22a0.5,0.5,0,0,0,.364-0.45,0.82,0.82,0,0,0-.392-0.59l-1.932-1.51-0.924,1.17h-1.708c-0.308,0-.952,0-1.876-0.02-0.28-.03-1.036-0.06-1.9-0.09l0.616,0.95c1.4-.05,2.016-0.08,3.164-0.08h1.932v2.72h-2.436l-2.212-.93v4.65c0,1.37.2,1.48,2.66,1.48,5.04,0,5.712-.11,5.712-1.06a0.662,0.662,0,0,0-.336-0.59c-0.2-.11-0.392-0.22-0.56-0.31l-0.028-.02a1.442,1.442,0,0,1-.084-0.37,3.253,3.253,0,0,0-.056-0.56l-0.028-.31c0-.19-0.056-0.28-0.14-0.28a0.22,0.22,0,0,0-.2.23c-0.532,1.37-.728,1.51-2.184,1.51h-2.156c-0.392-.03-0.392-0.06-0.392-0.59v-2.1Zm4.116,10.5v-2.74h3.752v2.74h-3.752Zm2.968,1.23a0.184,0.184,0,0,0-.224.17,0.344,0.344,0,0,0,.28.25,12.019,12.019,0,0,1,3.444,2.52c1.624,1.57,1.624,1.57,2.044,1.57a1.2,1.2,0,0,0,1.26-1.15c0-.89-1.036-1.82-2.772-2.46A18.107,18.107,0,0,0,886.541,5286.37Zm34.16-14.84c-0.924,0-1.428.12-1.428,0.34,0,0.11.028,0.14,0.448,0.25a4.9,4.9,0,0,1,2.408,1.88c0.448,0.73.56,0.81,1.036,0.81a1.075,1.075,0,0,0,1.148-1.09C924.313,5272.57,922.633,5271.53,920.7,5271.53Zm-3.276,2.08c-0.84,0-1.232.08-1.232,0.25,0,0.11.056,0.14,0.308,0.22a4.916,4.916,0,0,1,2.464,2.21c0.42,0.7.5,0.79,0.952,0.79a1.091,1.091,0,0,0,1.12-1.12C921.037,5274.73,919.329,5273.61,917.425,5273.61Zm-15.008,7.95a0.133,0.133,0,0,0-.028.08,1.666,1.666,0,0,0-.112.65,2.431,2.431,0,0,0,.756,1.76,4.159,4.159,0,0,0,2.38,1.18c0.812,0,1.568-.73,3.22-3.14,1.876-2.72,2.38-3.25,3.136-3.25a2.406,2.406,0,0,1,1.68,1.07c0.532,0.58,3.388,3.55,4.312,4.5a27.926,27.926,0,0,0,4.9,3.92,5.266,5.266,0,0,0,2.912,1.18,1.84,1.84,0,0,0,1.988-1.62,2.365,2.365,0,0,0-1.624-1.96,28.48,28.48,0,0,1-9.576-5.88,27.84,27.84,0,0,0-2.38-2.08,3.412,3.412,0,0,0-1.988-.84c-0.952,0-1.876.54-3.08,1.77-2.408,2.49-3.612,3.3-4.872,3.3A2.129,2.129,0,0,1,902.417,5281.56Zm48.384,8.96c-0.112-.2-0.168-0.34-0.224-0.42a4.484,4.484,0,0,0-4.2-2.47c-1.96,0-3.136.9-3.136,2.41,0,1.65,1.82,2.72,4.592,2.72a9.556,9.556,0,0,0,6.244-2.07,6.762,6.762,0,0,0,2.3-4.9c0-3.11-2.66-5.44-6.244-5.44a9.052,9.052,0,0,0-4.228.98,0.1,0.1,0,0,1-.084.03,0.062,0.062,0,0,1-.056-0.05c0-.82,4.284-5.44,6.16-6.64,0.756-.48,1.008-0.76,1.008-1.15,0-.84-2.212-2.32-3.5-2.32a1.994,1.994,0,0,0-1.092.39,13.508,13.508,0,0,1-5.852,2.1,1.1,1.1,0,0,1-1.12-.59c-0.084-.22-0.112-0.25-0.168-0.25-0.168,0-.252.31-0.252,0.9a2.286,2.286,0,0,0,.448,1.48,2.363,2.363,0,0,0,1.652,1.04,2.029,2.029,0,0,0,1.232-.68c1.6-1.26,3.7-2.49,4.256-2.49a0.319,0.319,0,0,1,.308.34c0,1.12-2.38,4.7-5.18,7.81-1.2,1.34-3.276,3.44-4.48,4.54a1.759,1.759,0,0,0-.784,1.34,2.484,2.484,0,0,0,1.792,2.18c0.364,0,.644-0.28,1.036-1.12a21.216,21.216,0,0,1,2.688-4.2,7.173,7.173,0,0,1,5.4-2.6,4.248,4.248,0,0,1,2.716,1.06,4.328,4.328,0,0,1,1.344,3.36,6.087,6.087,0,0,1-.644,2.83A4.95,4.95,0,0,1,950.8,5290.52Zm-2.52.67c-0.364.03-.588,0.03-0.644,0.03-1.568,0-2.94-.67-2.94-1.46a1.166,1.166,0,0,1,1.344-1.01C947.273,5288.75,948.029,5289.57,948.281,5291.19Zm26.88-14.45a52.59,52.59,0,0,1,8.764-1.54c0.924,0,1.26.23,1.26,0.9,0,2.24-2.072,7.61-3.892,10.05a18.038,18.038,0,0,1-7.252,5.82c-0.392.14-.5,0.26-0.5,0.45a0.263,0.263,0,0,0,.28.28,14.5,14.5,0,0,0,3.192-1.09,17.985,17.985,0,0,0,8.26-7.42c1.12-1.88,1.764-3.56,2.884-7.56a2.424,2.424,0,0,0,.952-1.15,3.387,3.387,0,0,0-1.092-1.4,2.805,2.805,0,0,0-1.624-1.03,1.91,1.91,0,0,0-.868.28c-1.288.7-7.7,1.84-10.7,1.9a3.329,3.329,0,0,0-2.38-1.2,2,2,0,0,0-1.6.58c0,0.12.056,0.14,0.224,0.17,0.84,0.11,1.26.67,1.54,2.02a30.515,30.515,0,0,1,.588,4.53,8.394,8.394,0,0,1-.084.98c-0.028.17-.056,0.28-0.056,0.31,0,0.65,1.4,1.77,2.24,1.77a0.844,0.844,0,0,0,.756-1.01C976.057,5282.79,975.749,5280.58,975.161,5276.74Zm45.3-7.25c-0.86,0-1.31.08-1.31,0.28,0,0.14.05,0.17,0.56,0.31a4.831,4.831,0,0,1,2.46,2.21,0.75,0.75,0,0,0,.81.53,1.112,1.112,0,0,0,1.21-1.09C1024.19,5270.55,1022.42,5269.49,1020.46,5269.49Zm-3.55,1.4c-0.73,0-1.01.06-1.01,0.22a0.222,0.222,0,0,0,.22.23,4.735,4.735,0,0,1,2.52,2.32,0.844,0.844,0,0,0,.87.65,1.034,1.034,0,0,0,1.09-1.07C1020.6,5272.01,1018.84,5270.89,1016.91,5270.89Zm1.48,15.71c1.51-6.3,1.85-7.25,2.91-8.09a0.554,0.554,0,0,0,.31-0.48c0-.28-0.36-0.67-1.34-1.34-1.49-1.04-1.51-1.07-1.85-1.07a1.892,1.892,0,0,0-.98.39,10.524,10.524,0,0,1-3.84,1.1,54.414,54.414,0,0,1-6.85.75c-1.74,0-2.83-.33-3.14-0.98a0.228,0.228,0,0,0-.2-0.19,1.078,1.078,0,0,0-.3,1.06,2.923,2.923,0,0,0,1.34,1.96,2.848,2.848,0,0,0,1.26.59,2.07,2.07,0,0,0,.28-0.06,38.318,38.318,0,0,1,5.49-1.29c1.4-.25,2.8-0.5,3.02-0.56a11.739,11.739,0,0,1,2.16-.25,0.607,0.607,0,0,1,.67.7c0,0.81-.09,1.32-0.98,6.67l-0.2,1.26c-2.94.39-9.26,1.03-10.05,1.03a4.21,4.21,0,0,1-1.93-.39,0.213,0.213,0,0,1-.08-0.06,0.347,0.347,0,0,0-.23.34c0,0.84,1.77,2.55,2.63,2.55a1.491,1.491,0,0,0,.54-0.14,8.112,8.112,0,0,1,2.6-.84,45.527,45.527,0,0,1,6.91-.9,12.426,12.426,0,0,1,2.72.34,2.15,2.15,0,0,0,.48.08,0.748,0.748,0,0,0,.78-0.7c0-.59-0.53-1.03-1.74-1.51Zm19.16-12.83c-1.01,0-1.71.14-1.71,0.37,0,0.08.08,0.14,0.31,0.19a8.162,8.162,0,0,1,4.08,3.76c0.4,0.84.65,1.06,1.21,1.06a1.542,1.542,0,0,0,1.54-1.48C1042.98,5275.73,1040.26,5273.77,1037.55,5273.77Zm17.97,0.09a0.768,0.768,0,0,0-.42.33,62.189,62.189,0,0,1-9.44,9.08c-3.05,2.4-5.65,3.78-7.16,3.78a2.229,2.229,0,0,1-1.65-.68c-0.14-.28-0.17-0.28-0.26-0.28a1.159,1.159,0,0,0-.39,1.12c0,0.62.39,1.21,1.46,2.22a3.679,3.679,0,0,0,1.96,1.17,0.744,0.744,0,0,0,.39-0.17c0.2-.14.36-0.3,0.53-0.44a3.059,3.059,0,0,1,.53-0.37,42.008,42.008,0,0,0,11.93-10.83,21.119,21.119,0,0,0,2.72-4.74A0.245,0.245,0,0,0,1055.52,5273.86Zm26.91,5.46c0.59-.03,1.01-0.03,1.09-0.03,0.81,0,2.74.14,3.58,0.25a8.609,8.609,0,0,0,1.07.09,0.806,0.806,0,0,0,.89-0.73c0-.84-1.54-1.96-3.1-2.24a11.827,11.827,0,0,1-4.37,1.26c-0.03-.48-0.03-0.98-0.03-1.12a9.176,9.176,0,0,1,.39-3.36,1.218,1.218,0,0,0,.14-0.39,1.9,1.9,0,0,0-.61-0.84,3.759,3.759,0,0,0-2.61-1.15,1.69,1.69,0,0,0-1.45.53,0.167,0.167,0,0,0,.14.14c1.28,0.42,1.34.56,1.42,4.68,0.03,0.22.06,1.03,0.09,1.82l-2.27.25c-0.61.08-.89,0.11-1.71,0.17-0.02-.34-0.02-0.65-0.02-0.76l-0.03-.59v-1.73a3.591,3.591,0,0,1,.05-0.76,1.641,1.641,0,0,0,.06-0.31c0-.64-1.76-1.65-2.94-1.65a3.141,3.141,0,0,0-.9.22l-0.42.14a0.628,0.628,0,0,0-.44.37c0,0.08.11,0.14,0.28,0.14,1.34,0.28,1.87,1.06,1.87,2.71l0.06,0.76c0,0.2,0,.48.03,0.84l0.02,0.87c-2.77.25-3.64,0.31-4.17,0.31a4,4,0,0,1-2.6-.59,0.3,0.3,0,0,0-.17-0.14c-0.11,0-.17.08-0.17,0.28a2.272,2.272,0,0,0,.56,1.45,2.946,2.946,0,0,0,1.74,1.21,2.424,2.424,0,0,0,.75-0.2c0.06,0,.48-0.14,1.24-0.36,0.25-.06.53-0.14,0.86-0.2,0.73-.14.76-0.17,1.99-0.39v1.15a11.569,11.569,0,0,1-.17,2.46c-0.02.2-.05,0.31-0.05,0.39a2.723,2.723,0,0,0,.67,1.24,1.831,1.831,0,0,0,1.26.64,0.885,0.885,0,0,0,.87-0.84c0-.11-0.03-0.34-0.06-0.64-0.03-.03-0.08-1.38-0.08-2.75-0.03-1.4-.03-1.45-0.06-2.1a31.43,31.43,0,0,1,3.95-.39c0,6.5-2.32,11.23-6.64,13.38-1,.51-1.03.54-1.03,0.7a0.271,0.271,0,0,0,.25.2,9.515,9.515,0,0,0,2.18-.73,10.808,10.808,0,0,0,6.58-6.72,23.387,23.387,0,0,0,1.09-6.91Zm35.45,0.67a22.015,22.015,0,0,1-4.46.95c-1.93.23-8.9,0.65-11.03,0.65-2.24,0-3.16-.26-3.58-0.96a0.425,0.425,0,0,0-.28-0.28c-0.28,0-.42.28-0.42,0.79a2.623,2.623,0,0,0,1.01,2.27,5.086,5.086,0,0,0,2.41.92,1.231,1.231,0,0,0,.39-0.08c2.1-.84,6.24-1.24,13.24-1.24,1.04,0,1.88.03,2.46,0.09,1.21,0.11,2.1.19,2.36,0.19,0.86,0,1.42-.36,1.42-0.92C1121.4,5281.28,1120.23,5280.47,1117.88,5279.99Zm17.83,3.67c0,3.39.23,4.53,1.04,5.65,1.12,1.52,2.66,1.99,6.27,1.99a23.92,23.92,0,0,0,5.74-.61,1.422,1.422,0,0,0,1.26-1.21c0-.73-1.4-1.51-2.97-1.62a11.179,11.179,0,0,1-5.49,1.12c-2.91,0-3.58-.76-3.58-3.98,0-.56,0-0.78.08-2.29a45.537,45.537,0,0,0,8.4-3.06c1.82-.78,2.19-1.03,2.19-1.42a1.227,1.227,0,0,0-.37-0.76,8.822,8.822,0,0,0-1.73-1.48,5.114,5.114,0,0,0-1.68-.37c-0.25,0-.39.06-0.39,0.2a0.532,0.532,0,0,0,.14.28,0.968,0.968,0,0,1,.22.64,2.631,2.631,0,0,1-1.18,1.82,33.094,33.094,0,0,1-5.57,3.33,45.911,45.911,0,0,1,.51-6.13,4.334,4.334,0,0,0,.14-0.95,1.449,1.449,0,0,0-.87-1.26,4.591,4.591,0,0,0-2.07-.76,2.634,2.634,0,0,0-1.77.59,0.18,0.18,0,0,0,.14.14c1.37,0.53,1.63,1.12,1.63,3.73,0,0.58-.03,1.65-0.06,3.16Zm11.17-11.87c-0.75,0-1.17.11-1.17,0.33a0.231,0.231,0,0,0,.19.2,4.288,4.288,0,0,1,2.44,1.87c0.39,0.7.53,0.84,0.95,0.84a1.157,1.157,0,0,0,1.23-1.06C1150.52,5272.82,1148.79,5271.79,1146.88,5271.79Zm3.36-2.08a1.281,1.281,0,0,0-1.2.37,0.256,0.256,0,0,0,.2.19,4.173,4.173,0,0,1,2.43,1.82c0.45,0.76.59,0.87,1.01,0.87a1.224,1.224,0,0,0,1.23-1.09C1153.91,5270.78,1152.12,5269.71,1150.24,5269.71Zm23.47,5.21a18.131,18.131,0,0,1-4.12.67,2.062,2.062,0,0,1-1.7-.61c-0.14-.25-0.14-0.25-0.26-0.25a1.073,1.073,0,0,0-.3.89,1.886,1.886,0,0,0,.67,1.32,3.562,3.562,0,0,0,1.57.89,2.455,2.455,0,0,0,.84-0.28,38.851,38.851,0,0,1,4.95-1.76,3.311,3.311,0,0,1,1.12-.25,0.382,0.382,0,0,1,.45.36,7.963,7.963,0,0,1-.67,1.93,28.4,28.4,0,0,1-3.33,5.88,24.89,24.89,0,0,1-9.02,7.65c-0.76.33-.92,0.45-0.92,0.59a0.222,0.222,0,0,0,.25.19,6.434,6.434,0,0,0,1.37-.33,22.3,22.3,0,0,0,7.42-4.06,25.317,25.317,0,0,0,4.12-4.48,12.964,12.964,0,0,1,5.06,6.18c0.53,1.29.84,1.63,1.51,1.63a1.755,1.755,0,0,0,1.71-1.74c0-1.31-.95-2.85-2.6-4.17a12.7,12.7,0,0,0-5.32-2.49,47.667,47.667,0,0,0,3.61-6.27,1.451,1.451,0,0,0,.9-0.87,1.522,1.522,0,0,0-.79-0.95,5.208,5.208,0,0,0-2.04-1.29,1.757,1.757,0,0,0-.98.53,3.23,3.23,0,0,1-1.76.76Z" transform="translate(-577.531 -5269.12)"/>
</svg>
