<svg xmlns="http://www.w3.org/2000/svg" width="182.812" height="42.68" viewBox="0 0 91.406 21.34">
  <defs>
    <style>
      .cls-1 {
        fill: #333;
        fill-rule: evenodd;
      }
    </style>
  </defs>
  <path id="_1_600円" data-name="1,600円" class="cls-1" d="M872.142,3579.39H881v-0.67h-0.264c-2.088-.03-2.688-0.46-2.712-1.95v-15.45h-0.552c-1.2,1-2.929,1.56-5.5,1.72v0.56h1.3c1.992,0.07,2.184.31,2.16,2.44v10.49c0.024,1.61-.6,2.07-2.9,2.14h-0.384v0.72Zm15,3.24c2.184-1.34,3.192-2.81,3.192-4.58a1.96,1.96,0,0,0-2.016-2.21,1.815,1.815,0,0,0-1.968,1.82c0,0.87.552,1.37,1.8,1.66,0.384,0.09.528,0.19,0.528,0.45,0,0.63-.7,1.42-1.968,2.26ZM898.734,3570a12.357,12.357,0,0,1,1.128-5.66,3.953,3.953,0,0,1,3.385-2.21,2.992,2.992,0,0,1,2.208.87,1.328,1.328,0,0,0-1.392,1.34,1.525,1.525,0,0,0,1.536,1.51,1.605,1.605,0,0,0,1.584-1.63c0-1.54-1.872-2.78-4.152-2.78-4.057,0-6.913,3.91-6.913,9.4,0,5.31,2.4,8.86,6,8.86a5.657,5.657,0,0,0,5.448-5.95c0-3.1-2.04-5.35-4.848-5.35-1.656,0-2.761.64-3.985,2.35V3570Zm3.025-.55a2.91,2.91,0,0,1,2.232,1.11,5.63,5.63,0,0,1,.936,3.5c0,2.93-1.128,4.83-2.88,4.83-1.993,0-3.217-2.28-3.217-5.93a3.222,3.222,0,0,1,.792-2.38A2.812,2.812,0,0,1,901.759,3569.45Zm17.376-7.49c1.056,0,1.8.68,2.328,2.07a17.454,17.454,0,0,1,.864,6.05c0,5.97-1.08,9-3.24,9-1.032,0-1.8-.65-2.353-1.97a20.215,20.215,0,0,1-.936-6.6,22.526,22.526,0,0,1,.84-6.27C917.19,3562.64,917.935,3561.96,919.135,3561.96Zm-0.024-.67a5.15,5.15,0,0,0-4.633,2.93,12.5,12.5,0,0,0-1.416,6.29c0,5.5,2.4,9.22,5.977,9.22a5.008,5.008,0,0,0,4.7-3.05,13.733,13.733,0,0,0,1.368-6.34,12.247,12.247,0,0,0-1.488-6.24A4.958,4.958,0,0,0,919.111,3561.29Zm17.352,0.67c1.056,0,1.8.68,2.328,2.07a17.454,17.454,0,0,1,.864,6.05c0,5.97-1.08,9-3.24,9-1.032,0-1.8-.65-2.353-1.97a20.215,20.215,0,0,1-.936-6.6,22.526,22.526,0,0,1,.84-6.27C934.518,3562.64,935.263,3561.96,936.463,3561.96Zm-0.024-.67a5.15,5.15,0,0,0-4.633,2.93,12.5,12.5,0,0,0-1.416,6.29c0,5.5,2.4,9.22,5.977,9.22a5.008,5.008,0,0,0,4.7-3.05,13.733,13.733,0,0,0,1.368-6.34,12.247,12.247,0,0,0-1.488-6.24A4.958,4.958,0,0,0,936.439,3561.29Zm14.358,10.43h10.209v5.31c0,0.34-.288.41-1.638,0.41-0.234,0-.793-0.01-1.1-0.03a1.262,1.262,0,0,0-.234-0.02c-0.126,0-.18.04-0.18,0.13s0.108,0.12.829,0.36c0.288,0.09.54,0.18,0.756,0.25a5.833,5.833,0,0,0,.7.21c0.27,0.09.288,0.09,0.288,0.58,0,0.45.036,0.54,0.27,0.54a3.334,3.334,0,0,0,1.116-.34,1.291,1.291,0,0,0,.937-1.32v-11.59l0.342-.13a0.435,0.435,0,0,0,.288-0.34,0.711,0.711,0,0,0-.234-0.45l-1.585-1.69-0.7,1.11h-9.777l-2.016-.95v15.59a0.24,0.24,0,0,0,.288.25,4.1,4.1,0,0,0,1.062-.19,0.492,0.492,0,0,0,.378-0.4v-7.29Zm0-6.52h4.177v6.03H950.8v-6.03Zm5.888,6.03v-6.03h4.321v6.03h-4.321Z" transform="translate(-871.969 -3561.28)"/>
</svg>
