<svg xmlns="http://www.w3.org/2000/svg" width="462.75" height="33.06" viewBox="0 0 231.375 16.53">
  <defs>
    <style>
      .cls-1 {
        fill: #333;
        fill-rule: evenodd;
      }
    </style>
  </defs>
  <path id="中辛1_230円_中辛1_430円" data-name="中辛1,230円 / 中辛1,430円" class="cls-1" d="M582.888,4577.29h3.91v5.25a0.335,0.335,0,0,0,.34.41,3.9,3.9,0,0,0,.884-0.15,0.4,0.4,0,0,0,.323-0.46v-5.05h4.181v0.94a0.328,0.328,0,0,0,.323.39,5.277,5.277,0,0,0,.918-0.14,0.36,0.36,0,0,0,.272-0.42v-4.95l0.238-.1a0.435,0.435,0,0,0,.306-0.36,0.791,0.791,0,0,0-.272-0.49l-1.258-1.33-0.646.89h-4.062v-3.2l0.357-.26a0.341,0.341,0,0,0-.238-0.64l-1.666-.15v4.25h-3.825l-1.564-.84v7.65a0.327,0.327,0,0,0,.34.38,3.234,3.234,0,0,0,.782-0.16,0.385,0.385,0,0,0,.357-0.44v-1.02Zm0-.46v-4.66h3.91v4.66h-3.91Zm5.457,0v-4.66h4.181v4.66h-4.181Zm10.9-1.51c2.346-.09,2.431-0.09,2.907-0.09h3.6v2.98h-2.414c-0.306,0-.85-0.02-1.5-0.04l-1.853-.06,0.391,0.64c0.272-.01.884-0.03,2.958-0.08h2.414v3.94a0.349,0.349,0,0,0,.408.39,4.646,4.646,0,0,0,.952-0.13,0.451,0.451,0,0,0,.306-0.5v-3.7h6.068a0.215,0.215,0,0,0,.221-0.21,0.468,0.468,0,0,0-.2-0.32l-1.326-1.22-1.207,1.29h-3.552v-2.98h6.85a0.222,0.222,0,0,0,.255-0.22,0.372,0.372,0,0,0-.136-0.25l-1.513-1.36-1.241,1.37h-3.161c0.781-1.08,1.189-1.66,1.835-2.63l0.442-.17a0.3,0.3,0,0,0,.221-0.27,0.257,0.257,0,0,0-.17-0.22l-0.884-.55h3.638a0.157,0.157,0,0,0,.17-0.17,0.268,0.268,0,0,0-.1-0.18l-1.53-1.36-1.156,1.25H607.47v-1.93l0.493-.34a0.449,0.449,0,0,0,.2-0.33,0.286,0.286,0,0,0-.323-0.3l-2.142-.21v3.11h-2.516c-0.765,0-.85,0-3.349-0.1l0.374,0.65,1.258-.04,0.8-.01a3.645,3.645,0,0,1,.969,2.75,1.313,1.313,0,0,0,.425,1.05h-1.513c-0.8,0-1.5-.01-3.28-0.1Zm9.622-4.39a29.139,29.139,0,0,1-1.037,3.84h-3.213a1.6,1.6,0,0,0,.425-1.15,2.426,2.426,0,0,0-.561-1.5,5.909,5.909,0,0,0-1.462-1.19h5.848Zm8.943,10.7h6.272v-0.48h-0.187c-1.479-.02-1.9-0.32-1.921-1.38v-10.94H621.58a6.548,6.548,0,0,1-3.892,1.22v0.39h0.917c1.411,0.05,1.547.22,1.53,1.73v7.43c0.017,1.14-.425,1.46-2.057,1.52h-0.271v0.51Zm9.944,2.29c1.547-.95,2.261-1.99,2.261-3.25a1.384,1.384,0,0,0-1.428-1.56,1.289,1.289,0,0,0-1.394,1.29c0,0.61.391,0.97,1.275,1.17,0.272,0.07.374,0.14,0.374,0.33a2.536,2.536,0,0,1-1.394,1.59Zm5.526-2.29h8.091l0.425-4.1-0.442.02c-0.408,2.1-.714,2.44-2.159,2.44h-4.556a21.928,21.928,0,0,1,4.233-3.74c2.159-1.54,2.822-2.48,2.822-3.99,0-2.04-1.683-3.49-4.029-3.49-2.278,0-4.182,1.57-4.182,3.44a1.519,1.519,0,0,0,1.445,1.6,1.154,1.154,0,0,0,1.19-1.13,1.007,1.007,0,0,0-1.02-1.02,1.087,1.087,0,0,0-1,.74,1.038,1.038,0,0,1-.034-0.29,3.063,3.063,0,0,1,3.026-2.59,2.716,2.716,0,0,1,2.6,2.88,4.541,4.541,0,0,1-.782,2.49,9.236,9.236,0,0,1-1.768,1.87,37.193,37.193,0,0,0-3.858,3.83v1.04Zm16.523-6.53a5.515,5.515,0,0,0,1.683-.65,2.836,2.836,0,0,0,1.292-2.38,3.487,3.487,0,0,0-3.74-3.23c-1.989,0-3.672,1.35-3.672,2.94a1.266,1.266,0,0,0,1.241,1.35,1.016,1.016,0,0,0,1.071-1.01,0.945,0.945,0,0,0-.969-0.95,0.884,0.884,0,0,0-.68.32,1.764,1.764,0,0,1,.272-0.76,2.746,2.746,0,0,1,2.159-1.16,2.456,2.456,0,0,1,2.38,2.66c0,1.49-.918,2.7-2.057,2.7a2.342,2.342,0,0,1-.765-0.14,1.084,1.084,0,0,0-.272-0.05,0.409,0.409,0,0,0-.391.39,0.371,0.371,0,0,0,.357.36,1.351,1.351,0,0,0,.289-0.05,4.387,4.387,0,0,1,.884-0.17,1.879,1.879,0,0,1,1.122.42,2.93,2.93,0,0,1,1.088,2.42,2.868,2.868,0,0,1-2.8,3.14,2.742,2.742,0,0,1-2.669-1.75,1.452,1.452,0,0,0,.7.2,0.961,0.961,0,0,0,.986-0.98,1.154,1.154,0,0,0-1.173-1.12,1.276,1.276,0,0,0-1.206,1.41c0,1.53,1.75,2.84,3.807,2.84,2.346,0,4.318-1.64,4.318-3.56a3.1,3.1,0,0,0-1.377-2.51A3.681,3.681,0,0,0,649.8,4575.1Zm10.829-5.82a1.81,1.81,0,0,1,1.649,1.47,12.334,12.334,0,0,1,.612,4.28c0,4.23-.765,6.37-2.295,6.37a1.828,1.828,0,0,1-1.666-1.39,14.328,14.328,0,0,1-.663-4.67,15.887,15.887,0,0,1,.6-4.44C659.252,4569.76,659.779,4569.28,660.629,4569.28Zm-0.017-.47a3.652,3.652,0,0,0-3.281,2.07,8.865,8.865,0,0,0-1,4.46c0,3.89,1.7,6.52,4.232,6.52a3.539,3.539,0,0,0,3.332-2.16,9.666,9.666,0,0,0,.969-4.48,8.663,8.663,0,0,0-1.054-4.42A3.5,3.5,0,0,0,660.612,4568.81ZM671,4575.59h9.638v5.02c0,0.32-.272.39-1.547,0.39-0.221,0-.748-0.02-1.037-0.04-0.085-.01-0.2-0.01-0.22-0.01-0.119,0-.17.03-0.17,0.11a1.089,1.089,0,0,0,.781.34q0.408,0.135.714,0.24c0.306,0.1.612,0.21,0.663,0.21,0.255,0.08.272,0.08,0.272,0.54,0,0.43.034,0.51,0.255,0.51a3.143,3.143,0,0,0,1.054-.32,1.215,1.215,0,0,0,.884-1.24v-10.95l0.323-.12a0.419,0.419,0,0,0,.272-0.32,0.708,0.708,0,0,0-.221-0.43l-1.5-1.6-0.663,1.06h-9.23l-1.9-.9v14.72a0.229,0.229,0,0,0,.272.24,4.105,4.105,0,0,0,1-.19,0.454,0.454,0,0,0,.357-0.37v-6.89Zm0-6.15h3.944v5.69H671v-5.69Zm5.559,5.69v-5.69h4.079v5.69h-4.079Zm24.123-5.95-0.9-.46-6.867,13.48,0.9,0.46Zm12.206,8.11h3.91v5.25a0.335,0.335,0,0,0,.34.41,3.9,3.9,0,0,0,.884-0.15,0.4,0.4,0,0,0,.323-0.46v-5.05h4.181v0.94a0.328,0.328,0,0,0,.323.39,5.277,5.277,0,0,0,.918-0.14,0.36,0.36,0,0,0,.272-0.42v-4.95l0.238-.1a0.435,0.435,0,0,0,.306-0.36,0.791,0.791,0,0,0-.272-0.49l-1.258-1.33-0.646.89h-4.062v-3.2l0.357-.26a0.341,0.341,0,0,0-.238-0.64l-1.666-.15v4.25h-3.825l-1.564-.84v7.65a0.327,0.327,0,0,0,.34.38,3.234,3.234,0,0,0,.782-0.16,0.385,0.385,0,0,0,.357-0.44v-1.02Zm0-.46v-4.66h3.91v4.66h-3.91Zm5.457,0v-4.66h4.181v4.66h-4.181Zm10.9-1.51c2.346-.09,2.431-0.09,2.907-0.09h3.6v2.98h-2.414c-0.306,0-.85-0.02-1.5-0.04l-1.853-.06,0.391,0.64c0.272-.01.884-0.03,2.958-0.08h2.414v3.94a0.349,0.349,0,0,0,.408.39,4.646,4.646,0,0,0,.952-0.13,0.451,0.451,0,0,0,.306-0.5v-3.7h6.068a0.215,0.215,0,0,0,.221-0.21,0.468,0.468,0,0,0-.2-0.32l-1.326-1.22-1.207,1.29h-3.552v-2.98h6.85a0.222,0.222,0,0,0,.255-0.22,0.372,0.372,0,0,0-.136-0.25l-1.513-1.36-1.241,1.37h-3.161c0.781-1.08,1.189-1.66,1.835-2.63l0.442-.17a0.3,0.3,0,0,0,.221-0.27,0.257,0.257,0,0,0-.17-0.22l-0.884-.55h3.638a0.157,0.157,0,0,0,.17-0.17,0.268,0.268,0,0,0-.1-0.18l-1.53-1.36-1.156,1.25h-3.467v-1.93l0.493-.34a0.449,0.449,0,0,0,.2-0.33,0.286,0.286,0,0,0-.323-0.3l-2.142-.21v3.11h-2.516c-0.765,0-.85,0-3.349-0.1l0.374,0.65,1.258-.04,0.8-.01a3.645,3.645,0,0,1,.969,2.75,1.313,1.313,0,0,0,.425,1.05h-1.513c-0.8,0-1.5-.01-3.281-0.1Zm9.621-4.39a29.118,29.118,0,0,1-1.036,3.84h-3.213a1.6,1.6,0,0,0,.425-1.15,2.426,2.426,0,0,0-.561-1.5,5.909,5.909,0,0,0-1.462-1.19h5.847Zm8.943,10.7h6.273v-0.48h-0.187c-1.479-.02-1.9-0.32-1.921-1.38v-10.94h-0.391a6.548,6.548,0,0,1-3.892,1.22v0.39H748.6c1.411,0.05,1.547.22,1.53,1.73v7.43c0.017,1.14-.425,1.46-2.057,1.52h-0.272v0.51Zm9.945,2.29c1.547-.95,2.261-1.99,2.261-3.25a1.384,1.384,0,0,0-1.428-1.56,1.289,1.289,0,0,0-1.394,1.29c0,0.61.391,0.97,1.275,1.17,0.272,0.07.374,0.14,0.374,0.33a2.536,2.536,0,0,1-1.394,1.59Zm5.441-5.27h4.861v1.39c0.034,0.72-.391,1.06-1.479,1.13h-0.408v0.42h5.287v-0.42h-0.136c-1-.02-1.513-0.34-1.513-1.01v-1.51h2.023v-0.73H769.8v-9.04h-0.918l-5.694,9.19v0.58Zm0.628-.73,4.233-6.78v6.78h-4.233Zm15.878-2.82a5.515,5.515,0,0,0,1.683-.65,2.836,2.836,0,0,0,1.292-2.38,3.487,3.487,0,0,0-3.74-3.23c-1.989,0-3.672,1.35-3.672,2.94a1.266,1.266,0,0,0,1.241,1.35,1.016,1.016,0,0,0,1.071-1.01,0.945,0.945,0,0,0-.969-0.95,0.884,0.884,0,0,0-.68.32,1.764,1.764,0,0,1,.272-0.76,2.746,2.746,0,0,1,2.159-1.16,2.456,2.456,0,0,1,2.38,2.66c0,1.49-.918,2.7-2.057,2.7a2.342,2.342,0,0,1-.765-0.14,1.084,1.084,0,0,0-.272-0.05,0.409,0.409,0,0,0-.391.39,0.371,0.371,0,0,0,.357.36,1.351,1.351,0,0,0,.289-0.05,4.387,4.387,0,0,1,.884-0.17,1.879,1.879,0,0,1,1.122.42,2.93,2.93,0,0,1,1.088,2.42,2.868,2.868,0,0,1-2.805,3.14,2.742,2.742,0,0,1-2.669-1.75,1.452,1.452,0,0,0,.7.2,0.961,0.961,0,0,0,.986-0.98,1.154,1.154,0,0,0-1.173-1.12,1.276,1.276,0,0,0-1.207,1.41c0,1.53,1.751,2.84,3.808,2.84,2.346,0,4.318-1.64,4.318-3.56a3.1,3.1,0,0,0-1.377-2.51A3.681,3.681,0,0,0,779.7,4575.1Zm10.829-5.82a1.81,1.81,0,0,1,1.649,1.47,12.334,12.334,0,0,1,.612,4.28c0,4.23-.765,6.37-2.3,6.37a1.828,1.828,0,0,1-1.666-1.39,14.328,14.328,0,0,1-.663-4.67,15.887,15.887,0,0,1,.6-4.44C789.149,4569.76,789.676,4569.28,790.526,4569.28Zm-0.017-.47a3.652,3.652,0,0,0-3.281,2.07,8.865,8.865,0,0,0-1,4.46c0,3.89,1.7,6.52,4.233,6.52a3.539,3.539,0,0,0,3.332-2.16,9.666,9.666,0,0,0,.969-4.48,8.663,8.663,0,0,0-1.054-4.42A3.5,3.5,0,0,0,790.509,4568.81Zm10.387,6.78h9.638v5.02c0,0.32-.272.39-1.547,0.39-0.221,0-.748-0.02-1.037-0.04-0.085-.01-0.2-0.01-0.22-0.01-0.119,0-.17.03-0.17,0.11a1.089,1.089,0,0,0,.781.34q0.408,0.135.714,0.24c0.306,0.1.612,0.21,0.663,0.21,0.255,0.08.272,0.08,0.272,0.54,0,0.43.034,0.51,0.255,0.51a3.143,3.143,0,0,0,1.054-.32,1.215,1.215,0,0,0,.884-1.24v-10.95l0.323-.12a0.419,0.419,0,0,0,.272-0.32,0.708,0.708,0,0,0-.221-0.43l-1.5-1.6-0.663,1.06h-9.23l-1.9-.9v14.72a0.229,0.229,0,0,0,.272.24,4.105,4.105,0,0,0,1-.19,0.454,0.454,0,0,0,.357-0.37v-6.89Zm0-6.15h3.944v5.69H800.9v-5.69Zm5.559,5.69v-5.69h4.079v5.69h-4.079Z" transform="translate(-581.406 -4567.38)"/>
</svg>
