<svg xmlns="http://www.w3.org/2000/svg" width="1677.18" height="53.64" viewBox="0 0 838.59 26.82">
  <defs>
    <style>
      .cls-1 {
        fill: #333;
        fill-rule: evenodd;
      }
    </style>
  </defs>
  <path id="地元のオーガニック野菜やブランド食材を使った単品料理" class="cls-1" d="M504.229,3959.79h3.5a0.419,0.419,0,0,0,.476-0.36,0.816,0.816,0,0,0-.308-0.56l-1.624-1.57-1.176,1.74h-0.868v-5.8l0.616-.39a0.751,0.751,0,0,0,.392-0.56,0.578,0.578,0,0,0-.616-0.48l-2.744-.33v7.56l-1.848-.03c-1.092-.06-1.68-0.06-2.044-0.08l0.56,0.95c1.54-.06,1.736-0.06,3.332-0.09v9.66c-1.344.45-1.932,0.62-3.892,1.21l1.848,2.46a0.862,0.862,0,0,0,.644.39,0.609,0.609,0,0,0,.5-0.61l0.2-.81c2.52-1.43,3.584-2.08,5.8-3.5,1.036-.65,1.176-0.76,1.176-0.98a0.224,0.224,0,0,0-.252-0.2,29.5,29.5,0,0,0-3.668,1.23v-8.85Zm1.6,4.46c1.316-.65,1.512-0.76,2.8-1.32v10.28c0,1.73.224,2.01,1.792,2.18,1.036,0.11,4.564.2,7.924,0.2,4.508,0,5.964-.37,5.964-1.49a1.263,1.263,0,0,0-.644-1.03,0.94,0.94,0,0,1-.448-0.9c0-.08.028-0.56,0.056-1.06,0.112-1.96.112-1.96,0.112-2.33,0-.28-0.056-0.39-0.224-0.39-0.112,0-.168.08-0.224,0.34-0.168.58-.672,1.96-1.064,2.88-0.476,1.09-.784,1.4-1.484,1.57a43.76,43.76,0,0,1-5.74.25,17.662,17.662,0,0,1-3.164-.22,0.851,0.851,0,0,1-.448-0.82v-10.55l2.856-1.18v9.3a0.488,0.488,0,0,0,.5.59,4.487,4.487,0,0,0,1.456-.28,0.647,0.647,0,0,0,.336-0.65v-9.91l3.22-1.34v7.95c-0.028.73-.2,0.78-2.3,0.78-0.588,0-.7.03-0.7,0.17a0.417,0.417,0,0,0,.308.25c0.252,0.11.532,0.23,0.812,0.34a4.976,4.976,0,0,1,.672.31,0.614,0.614,0,0,1,.476.61c0.084,0.84.252,1.09,0.672,1.09a3.074,3.074,0,0,0,1.484-.61,1.836,1.836,0,0,0,.9-1.77v-8.03l0.392-.23a0.7,0.7,0,0,0,.476-0.5,1.078,1.078,0,0,0-.336-0.64l-2.156-2.13-1.148,1.85-2.772,1.09v-6.64l0.532-.36a0.681,0.681,0,0,0,.364-0.53,0.643,0.643,0,0,0-.616-0.51l-2.576-.36v9.38l-2.856,1.17v-4.87l0.532-.36a0.813,0.813,0,0,0,.364-0.56,0.711,0.711,0,0,0-.728-0.56l-2.576-.39v7.72c-1.624.68-1.876,0.76-3.584,1.38Zm39.368-2.97v11.95c0,1.52.252,1.96,1.232,2.1,0.392,0.09,3.416.17,5.124,0.17,3.64,0,5.152-.36,5.152-1.29a1.217,1.217,0,0,0-.588-0.98c-0.784-.53-0.784-0.53-0.784-0.81l0.028-.25,0.028-1.34c0.028-.2.056-0.56,0.084-1.12,0.056-.51.14-1.57,0.14-1.66a0.243,0.243,0,0,0-.224-0.28,0.3,0.3,0,0,0-.252.23,14.825,14.825,0,0,1-1.876,4.42c-0.532.76-.728,0.81-3.584,0.81-1.68,0-1.736-.02-1.736-1.12v-10.83h8.008c0.476,0,.644-0.11.644-0.42a0.758,0.758,0,0,0-.252-0.51l-2.548-2.07-1.988,2.24H536.4c-0.28,0-1.316-.03-2.884-0.08-0.364-.03-1.428-0.06-2.632-0.09l0.7,1.07c2.24-.11,3.3-0.14,4.816-0.14h2.884c-0.056,7.67-1.96,11.45-7.2,14.31-1.064.56-1.064,0.56-1.064,0.67a0.2,0.2,0,0,0,.2.22,18.218,18.218,0,0,0,3.584-1.34,11.331,11.331,0,0,0,6.3-7c0.532-1.65.644-2.38,0.9-5.85,0.028-.17.056-0.54,0.084-1.01h3.108Zm-10.836-6.89c2.128-.11,3.108-0.14,4.816-0.14h13.636a0.391,0.391,0,0,0,.476-0.42,0.526,0.526,0,0,0-.252-0.39l-2.3-1.88L549,3953.49h-9.828c-2.8-.08-4.06-0.11-5.516-0.16Zm42.42,0.92c0.308-.02.5-0.02,0.588-0.02a6.711,6.711,0,0,1,2.884.67c2.436,1.23,3.7,3.78,3.7,7.53a9.579,9.579,0,0,1-3.584,7.98,14.918,14.918,0,0,1-5.012,2.6c-0.448.14-.532,0.17-0.532,0.31,0,0.11.112,0.17,0.28,0.17a11.289,11.289,0,0,0,1.792-.34,17.033,17.033,0,0,0,5.18-1.9,10.323,10.323,0,0,0,5.18-8.96,8.462,8.462,0,0,0-2.212-5.91,10.811,10.811,0,0,0-7.868-3.08c-6.552,0-12.18,5.29-12.18,11.45a7.239,7.239,0,0,0,1.372,4.51,3.364,3.364,0,0,0,2.352,1.54c1.54,0,3.976-1.99,5.628-4.56a18.025,18.025,0,0,0,2.8-9.1A10.745,10.745,0,0,0,576.777,3955.31Zm-1.372.12a1.525,1.525,0,0,0,.056.19,6.761,6.761,0,0,1,.168,1.57,16.459,16.459,0,0,1-2.856,8.37c-1.176,1.85-2.772,3.31-3.64,3.31s-1.624-1.46-1.624-3.11a10.957,10.957,0,0,1,3.3-7.81A10.519,10.519,0,0,1,575.405,3955.43Zm33.376,5.15a24.106,24.106,0,0,1-12.348,10.97,0.241,0.241,0,0,0-.2.2,0.16,0.16,0,0,0,.2.17,21.344,21.344,0,0,0,5.152-1.57c3.668-1.65,5.992-3.67,8.876-7.67,0.084,1.9.112,2.49,0.14,3.44,0.084,1.71.14,3.25,0.14,4.12,0,0.81-.14,1.2-0.42,1.2-0.252,0-.42-0.08-2.044-0.98a3.407,3.407,0,0,0-1.008-.47,0.238,0.238,0,0,0-.2.22,0.205,0.205,0,0,0,.112.17c0.056,0.03.14,0.11,0.28,0.22a4.982,4.982,0,0,0,.42.39,7.446,7.446,0,0,1,2.268,3.67,0.517,0.517,0,0,0,.5.56,3.282,3.282,0,0,0,1.82-.98,3.145,3.145,0,0,0,1.008-2.13,17.121,17.121,0,0,0-.14-1.79c-0.532-4.73-.784-7.64-0.9-10.16a21.83,21.83,0,0,1,2.24-.11c0.56,0,1.68.02,2.072,0.05,0.672,0.06,1.2.09,1.372,0.09,0.616,0,.98-0.23.98-0.65a2.036,2.036,0,0,0-1.148-1.48,3.426,3.426,0,0,0-1.512-.59,1.7,1.7,0,0,0-.952.39,11.667,11.667,0,0,1-3.052,1.04c-0.028-.53-0.028-0.81-0.028-1.32,0-2.21.056-2.91,0.252-3.36a0.764,0.764,0,0,0,.112-0.33c0-.62-1.9-1.85-2.856-1.85-0.7,0-1.82.45-1.82,0.75a0.153,0.153,0,0,0,.168.14c1.232,0,1.484.84,1.876,6.25-4.116.47-6.3,0.67-7.392,0.67a3.529,3.529,0,0,1-2.3-.53c-0.224-.28-0.224-0.28-0.28-0.28-0.112,0-.168.08-0.168,0.36a2.837,2.837,0,0,0,.644,1.57,3.337,3.337,0,0,0,1.876,1.18,1.919,1.919,0,0,0,.616-0.17A22.081,22.081,0,0,1,608.781,3960.58Zm40.656,1.03a22.721,22.721,0,0,1-4.452.96c-1.932.22-8.9,0.64-11.032,0.64-2.24,0-3.164-.25-3.584-0.95a0.393,0.393,0,0,0-.28-0.28c-0.28,0-.42.28-0.42,0.78a2.615,2.615,0,0,0,1.008,2.27,5,5,0,0,0,2.408.92,1.008,1.008,0,0,0,.392-0.08c2.1-.84,6.244-1.23,13.244-1.23,1.036,0,1.876.03,2.464,0.08,1.2,0.11,2.1.2,2.352,0.2,0.868,0,1.428-.37,1.428-0.93C652.965,3962.9,651.789,3962.09,649.437,3961.61Zm33.4-10.41a1.335,1.335,0,0,0-1.232.33,0.265,0.265,0,0,0,.224.23,4.03,4.03,0,0,1,2.6,2.1,0.8,0.8,0,0,0,.812.53,1.164,1.164,0,0,0,1.232-1.04C686.481,3952.23,684.717,3951.2,682.841,3951.2Zm-3.248,1.85c-0.7,0-1.2.14-1.2,0.36a0.246,0.246,0,0,0,.224.2,4.1,4.1,0,0,1,2.408,1.9,0.972,0.972,0,0,0,.952.76,1.169,1.169,0,0,0,1.176-1.04C683.149,3954.08,681.441,3953.05,679.593,3953.05Zm-4.032,7.28a23.455,23.455,0,0,1,3.276-.62c0.392,0,.5.17,0.5,0.84,0,3.98-1.68,9.18-2.94,9.18a8.1,8.1,0,0,1-2.38-1.14,0.536,0.536,0,0,0-.224-0.09,0.192,0.192,0,0,0-.2.17,1.315,1.315,0,0,0,.364.56,5.569,5.569,0,0,1,1.26,3v0.19a0.666,0.666,0,0,0-.028.2,0.524,0.524,0,0,0,.616.39,4.051,4.051,0,0,0,2.716-1.26c1.568-1.85,2.492-4.45,3.332-9.69a3.209,3.209,0,0,1,.5-1.73c0.56-.62.56-0.62,0.56-0.79,0-.42-2.212-1.99-2.772-1.99a1.842,1.842,0,0,0-.868.42,8.1,8.1,0,0,1-3.528,1.12c-0.112.03-.448,0.09-0.84,0.17,0.336-1.31.448-1.85,0.728-3.13a1.053,1.053,0,0,0,.336-0.59c0-.73-2.408-2.27-3.5-2.27a0.875,0.875,0,0,0-1.008.53c0.756,0.28,1.092.95,1.092,2.3a27.392,27.392,0,0,1-.308,3.67,34.552,34.552,0,0,1-5.152.64,2.015,2.015,0,0,1-1.652-.56c-0.112-.2-0.14-0.22-0.224-0.22-0.14,0-.2.14-0.2,0.56a2.36,2.36,0,0,0,.84,1.76,3.078,3.078,0,0,0,1.6.78,0.827,0.827,0,0,0,.448-0.11,28.092,28.092,0,0,1,4.06-1.48,18.505,18.505,0,0,1-9.52,12.77,0.348,0.348,0,0,0-.224.25,0.224,0.224,0,0,0,.252.19,10.192,10.192,0,0,0,2.1-.72,15.6,15.6,0,0,0,6.636-5.18c1.652-2.24,2.128-3.34,3.472-7.96Zm33.936-3.73a8.244,8.244,0,0,1-2.156,1.01,28.249,28.249,0,0,1-4.928.73,5.445,5.445,0,0,1-2.324-.59,0.9,0.9,0,0,0-.2-0.11,0.124,0.124,0,0,0-.14.11,2.343,2.343,0,0,0,.5,1.04c0.756,1.14,1.372,1.56,2.38,1.56a20.409,20.409,0,0,0,3.864-.53c1.484-.28,2.156-0.36,4.032-0.64,1.512-.23,1.876-0.39,1.876-0.84C712.409,3957.58,711.149,3956.83,709.5,3956.6Zm-14.56,10.17a0.249,0.249,0,0,0-.252.25c0,1.37,1.764,3.3,3,3.3a3.248,3.248,0,0,0,1.12-.28c2.856-1.06,7.868-1.73,13.132-1.73a24.058,24.058,0,0,1,4.312.33,9.63,9.63,0,0,0,1.12.11,0.736,0.736,0,0,0,.84-0.7,1.847,1.847,0,0,0-1.036-1.48,5.61,5.61,0,0,0-2.156-1.23,2.737,2.737,0,0,0-.756.19,11.885,11.885,0,0,1-4.34,1.1c-5.376.67-10.108,1.12-11.592,1.12-1.568,0-2.688-.28-3.108-0.76A0.364,0.364,0,0,0,694.937,3966.77Zm40.32-7.34a0.259,0.259,0,0,0-.308.17,0.25,0.25,0,0,0,.2.22,6.24,6.24,0,0,1,2.632,3.98c0.2,0.75.42,1.03,0.9,1.03a1.493,1.493,0,0,0,1.4-1.54C740.073,3961.45,737.581,3959.43,735.257,3959.43Zm10.976,2.97a1.163,1.163,0,0,0,.532-0.76,4.566,4.566,0,0,0-1.372-1.93,2.851,2.851,0,0,0-2.016-.92,0.38,0.38,0,0,0-.448.28,0.538,0.538,0,0,0,.28.3,1.872,1.872,0,0,1,.364,1.21c0,2.21-1.512,5.49-3.724,8.15a22.35,22.35,0,0,1-7.7,5.96c-0.7.28-.7,0.28-0.7,0.42a0.275,0.275,0,0,0,.28.22,16.607,16.607,0,0,0,5.768-2.24A22.9,22.9,0,0,0,746.233,3962.4Zm-15.316-.59c-0.28,0-.364.06-0.364,0.17a0.433,0.433,0,0,0,.308.33,7.519,7.519,0,0,1,2.548,3.78,0.767,0.767,0,0,0,.756.62,1.437,1.437,0,0,0,1.288-1.57C735.453,3963.38,733.353,3961.81,730.917,3961.81Zm40.208-3.22a1.8,1.8,0,0,0,.924.34,13.74,13.74,0,0,0,2.1-.45,5.84,5.84,0,0,1,1.232-.28,0.537,0.537,0,0,1,.532.56,8.2,8.2,0,0,1-1.288,3.16,31.39,31.39,0,0,1-6.328,7.67,24.231,24.231,0,0,1-7.364,4.57c-0.224.08-.308,0.14-0.308,0.25a0.216,0.216,0,0,0,.2.17,13.648,13.648,0,0,0,2.912-.76,27.286,27.286,0,0,0,9.772-6.3c1.988-1.99,2.912-3.33,5.516-8.06a6.431,6.431,0,0,1,.728-0.67,0.8,0.8,0,0,0,.336-0.45c0-.53-2.128-2.47-2.716-2.47a2.233,2.233,0,0,0-.98.45,10.7,10.7,0,0,1-4.34,1.51,1.228,1.228,0,0,1-.476-0.08,12.217,12.217,0,0,0,1.316-2.58,2.736,2.736,0,0,0-1.2-1.4,4.187,4.187,0,0,0-2.324-.81,1.2,1.2,0,0,0-1.12.37c0,0.05.056,0.11,0.28,0.16a1.776,1.776,0,0,1,.84,1.71c0,2.66-3.64,8.37-6.636,10.45-0.476.33-.532,0.36-0.532,0.5a0.186,0.186,0,0,0,.168.17,9.289,9.289,0,0,0,2.1-1.01A21.7,21.7,0,0,0,771.125,3958.59Zm27.5,8.85h5.656c0.364,0,.532-0.11.532-0.37a0.64,0.64,0,0,0-.308-0.5l-2.044-1.65-1.6,1.76h-2.24v-3.39h2.3v0.98a0.322,0.322,0,0,0,.392.31,5.305,5.305,0,0,0,1.624-.33,0.394,0.394,0,0,0,.252-0.48v-8.32l0.364-.11a0.674,0.674,0,0,0,.56-0.67,1.056,1.056,0,0,0-.392-0.73l-1.9-1.96-1.036,1.43h-6.524l-2.492-1.15v12.6a0.339,0.339,0,0,0,.42.34,4.3,4.3,0,0,0,1.4-.34c0.308-.14.42-0.22,0.42-0.42v-1.15h2.324v3.39h-1.932c-0.168,0-.812,0-1.484-0.03l-2.24-.08,0.56,0.95,1.68-.05c0.7-.03,1.372-0.03,1.484-0.03h1.932v4.11c-0.812.14-1.344,0.23-3,.4-1.428.16-1.848,0.22-2.828,0.33l1.316,2.35a1.029,1.029,0,0,0,.868.82c0.364,0,.5-0.14.784-0.84l0.168-.4c1.316-.39,2.072-0.61,2.66-0.81l2.38-.75c5.04-1.52,6.972-2.22,6.972-2.52a0.168,0.168,0,0,0-.2-0.17,0.983,0.983,0,0,0-.28.03c-2.632.53-4.06,0.78-6.552,1.2v-3.75Zm9.156,4.81c0,0.68-.084.79-0.672,0.82-0.476.05-1.932,0.08-2.8,0.08h-0.364c-0.308-.03-0.56-0.03-0.616-0.03-0.168,0-.28.06-0.28,0.14,0,0.17.168,0.23,2.128,0.84a3.893,3.893,0,0,1,1.288.51,1.03,1.03,0,0,1,.28.61c0.084,0.84.2,1.04,0.532,1.04a5.223,5.223,0,0,0,1.652-.53c0.952-.45,1.4-0.96,1.4-1.54v-11.65h3.08a0.577,0.577,0,0,1-.14.22,5.9,5.9,0,0,1-.392.73q-0.336.54-.5,0.84c-0.532.84-.98,1.54-1.512,2.3a1.021,1.021,0,0,0-.28.53,0.093,0.093,0,0,0,.112.11,23.556,23.556,0,0,0,3.136-2.13l0.784-.59c0.084-.05.224-0.19,0.476-0.39h0.9c0.532,0,.84-0.19.84-0.56a0.957,0.957,0,0,0-.336-0.64l-2.072-2.44-0.924,1.26h-5.628c-0.14,0-.784,0-1.456-0.03l-2.324-.08,0.56,0.98c1.568-.06,1.764-0.08,3.136-0.11v9.71Zm-13.748-13.58h2.3v3.87h-2.3v-3.87Zm0-.75v-3.75h2.3v3.75h-2.3Zm4.592,0.75h2.3v3.87h-2.3v-3.87Zm0-.75v-3.75h2.3v3.75h-2.3Zm6.188-3.64c1.512-.06,2.576-0.11,3.136-0.11h3.976c-1.008,1.37-2.156,2.85-2.772,3.5a9.961,9.961,0,0,0-3.724-1.12c-0.168,0-.252.05-0.252,0.16a0.591,0.591,0,0,0,.28.28,5.45,5.45,0,0,1,2.156,2.22c1.036,2.01,1.2,2.21,1.932,2.21a1.3,1.3,0,0,0,1.288-1.35,2.629,2.629,0,0,0-.98-1.84c1.232-.76,1.456-0.9,2.828-1.88,0.56-.36.784-0.5,1.12-0.7l0.98-.06c0.616-.02.9-0.19,0.9-0.53a1.089,1.089,0,0,0-.364-0.73l-2.128-2.35-1.2,1.43h-4.032c-0.056,0-.868-0.03-1.652-0.06-0.364,0-1.092-.02-2.1-0.05Zm18.676,0.45c2.464-.12,3.556-0.14,4.956-0.14h2.3v2.57a0.339,0.339,0,0,0,.392.37,8.323,8.323,0,0,0,1.54-.28,0.649,0.649,0,0,0,.616-0.59v-2.07h4.732v1.42a0.325,0.325,0,0,0,.392.37c1.008,0,2.128-.37,2.128-0.7v-1.09h7.952a0.359,0.359,0,0,0,.308-0.4,0.428,0.428,0,0,0-.14-0.3l-2.576-2.16-1.932,2.1h-3.612v-1.65l0.812-.51a0.538,0.538,0,0,0,.2-0.42,0.552,0.552,0,0,0-.5-0.56l-3.024-.3v3.44h-4.732v-1.54l0.728-.53a0.652,0.652,0,0,0,.336-0.56,0.612,0.612,0,0,0-.588-0.59l-3.024-.22v3.44h-2.3c-1.764,0-2.828-.03-5.516-0.17Zm0.364,12.96c2.324-.11,3.332-0.14,4.844-0.14h4.62a28.019,28.019,0,0,1-8.876,7.25c-0.812.42-.868,0.48-0.868,0.59a0.169,0.169,0,0,0,.2.2,18.383,18.383,0,0,0,3.5-1.15,29.531,29.531,0,0,0,7.28-4.45v5.71c0,0.42.112,0.53,0.5,0.53,1.092,0,2.016-.36,2.016-0.81v-7.48c1.96,3.61,4.4,5.8,9.1,8.21a6.8,6.8,0,0,1,2.828-2.75c-5.236-1.03-9.1-2.99-11.508-5.85h10.864a0.344,0.344,0,0,0,.308-0.36,0.49,0.49,0,0,0-.2-0.37l-2.352-2.13-1.96,2.1h-7.084v-1.17l0.532-.31a0.661,0.661,0,0,0,.392-0.56,0.564,0.564,0,0,0-.588-0.53l-2.856-.25v2.82h-5.852c-1.484,0-2.66-.02-5.516-0.16Zm19.852-9.55,0.672,0.09H844.4a0.37,0.37,0,0,0,.336-0.37,0.353,0.353,0,0,0-.2-0.33l-2.408-1.99a85.613,85.613,0,0,1-14.868,3.44c-2.464.39-2.464,0.39-2.464,0.7,0,0.23.2,0.34,0.56,0.34,1.232,0,6.86-.56,14.112-1.37l3-.34Zm-16.576,2.1a0.181,0.181,0,0,0-.2.11,0.381,0.381,0,0,0,.2.28,3.986,3.986,0,0,1,1.428,2.13c0.392,1.51.392,1.51,0.616,1.79a1.357,1.357,0,0,0,1.008.45,1.334,1.334,0,0,0,1.344-1.43c0-1.28-1.092-2.38-2.912-2.96A9.034,9.034,0,0,0,827.125,3960.24Zm5.964-.59c-0.168,0-.252.06-0.252,0.14a0.631,0.631,0,0,0,.28.37,4.7,4.7,0,0,1,1.708,2.04,2.815,2.815,0,0,0,.616,1.21,1.507,1.507,0,0,0,1.036.44,1.328,1.328,0,0,0,1.372-1.34c0-1.09-1.2-2.13-2.94-2.55C834.209,3959.82,833.285,3959.65,833.089,3959.65Zm12.684,1.4a0.391,0.391,0,0,0,.308-0.42,0.689,0.689,0,0,0-.336-0.56l-2.66-1.65a49.726,49.726,0,0,1-3.78,6.44,2.844,2.844,0,0,0-.672,1.09,0.19,0.19,0,0,0,.2.2c0.448,0,3.64-2.55,6.02-4.84Zm22.036-9.49v-0.14a0.161,0.161,0,0,0-.14-0.17c-0.392,0-1.008,1.15-1.008,1.85a4.1,4.1,0,0,0,.616,1.93,0.722,0.722,0,0,1,.112.2,0.26,0.26,0,0,1-.28.14,3.028,3.028,0,0,1-.448-0.06,27.156,27.156,0,0,0-3.472-.36c-1.82,0-3.108.87-3.108,2.1a2.14,2.14,0,0,0,.868,1.57,11.589,11.589,0,0,1,2.044,2.52c-2.268,1.4-3.36,1.87-4.34,1.87a2.042,2.042,0,0,1-1.82-.78c-0.084-.25-0.112-0.28-0.168-0.28a1.068,1.068,0,0,0-.28.98,2.7,2.7,0,0,0,.644,1.74,3.354,3.354,0,0,0,2.212,1.12c0.756,0,1.428-.4,3.472-2.02,0.644-.53.924-0.73,1.456-1.12,1.288,1.71,2.884,6.08,3.92,10.72,0.28,1.18.672,1.66,1.4,1.66a1.9,1.9,0,0,0,1.764-1.88,15.173,15.173,0,0,0-1.764-4.9,55.7,55.7,0,0,0-3.864-6.72c4.032-3.14,6.3-4.26,8.568-4.26,2.212,0,3.472,1.21,3.472,3.34,0,2.21-1.68,3.66-4.284,3.66a8.8,8.8,0,0,1-4.032-1.23,1.462,1.462,0,0,0-.392-0.19,0.177,0.177,0,0,0-.168.16,4.707,4.707,0,0,0,1.428,1.38,6.863,6.863,0,0,0,4.312,1.73c3.5,0,6.132-2.41,6.132-5.6,0-2.83-2.072-4.67-5.208-4.67a11.928,11.928,0,0,0-3.7.67c0.028-1.07-.252-1.6-0.924-1.88a3.187,3.187,0,0,1-3.052-2.71,1.425,1.425,0,0,1,.028-0.28v-0.09Zm-3.024,8.65c-0.42-.67-0.532-0.86-0.868-1.37-0.9-1.34-1.092-1.76-1.092-2.27,0-.53.56-0.84,1.568-0.84a9.972,9.972,0,0,1,4.508,1.24,3.8,3.8,0,0,0,.952.42A54.5,54.5,0,0,0,864.785,3960.21Zm43.876-1.23c1.036-.73,1.288-0.95,1.288-1.17a2.136,2.136,0,0,0-.98-0.98c-1.6-1.12-2.044-1.38-2.38-1.38a1.707,1.707,0,0,0-.952.4,8.249,8.249,0,0,1-3.332,1.12,65.873,65.873,0,0,1-7.168.86,2.539,2.539,0,0,1-2.128-.81,0.377,0.377,0,0,0-.224-0.19c-0.14,0-.224.16-0.224,0.39a2.7,2.7,0,0,0,.952,2.27,3.657,3.657,0,0,0,1.68.81,0.906,0.906,0,0,0,.476-0.2,11.716,11.716,0,0,1,3.36-1.17,34.16,34.16,0,0,1,5.544-.96c0.616,0,.868.17,0.868,0.62a8.479,8.479,0,0,1-.532,2.13,17.612,17.612,0,0,1-3.892,6.63,20.088,20.088,0,0,1-9.128,6.33,0.269,0.269,0,0,0-.252.23,0.224,0.224,0,0,0,.252.19c1.372,0,4.956-1.31,7.224-2.63C903.285,3969.03,906.029,3965.45,908.661,3958.98Zm1.932-8.71a1.288,1.288,0,0,0-1.2.37,0.263,0.263,0,0,0,.2.19,4.324,4.324,0,0,1,2.408,1.85c0.448,0.76.616,0.9,1.064,0.9a1.18,1.18,0,0,0,1.2-1.09C914.261,3951.34,912.525,3950.27,910.593,3950.27Zm-3.416,1.57c-0.336,0-.56.09-0.56,0.23a0.422,0.422,0,0,0,.168.22,4.158,4.158,0,0,1,2.156,2.16c0.308,0.78.5,0.95,1.008,0.95a1.177,1.177,0,0,0,1.2-1.04,2.653,2.653,0,0,0-1.372-1.82A5.082,5.082,0,0,0,907.177,3951.84Zm20.412,2.86a0.177,0.177,0,0,0-.168.14,3.68,3.68,0,0,0,.784,1.34,2.968,2.968,0,0,0,2.408,1.07,26.787,26.787,0,0,0,4.62-.68c1.372-.28,2.24-0.42,3.444-0.56,0.672-.11,1.008-0.3,1.008-0.64,0-.62-1.624-1.6-2.6-1.6a1.62,1.62,0,0,0-.756.31,4.946,4.946,0,0,1-1.484.56,24.755,24.755,0,0,1-5.012.76,3.13,3.13,0,0,1-2.016-.56A0.3,0.3,0,0,0,927.589,3954.7Zm14.056,7.31a1.923,1.923,0,0,1,.616-0.37,0.88,0.88,0,0,0,.336-0.19,0.531,0.531,0,0,0,.112-0.31c0-.25,0-0.25-0.616-0.87-1.26-1.26-1.736-1.6-2.128-1.6a2.982,2.982,0,0,0-1.092.4,7.352,7.352,0,0,1-2.156.67,73.71,73.71,0,0,1-8.68,1.15,2.9,2.9,0,0,1-2.352-.93,0.353,0.353,0,0,0-.252-0.25c-0.168,0-.252.22-0.252,0.67a3.367,3.367,0,0,0,2.744,2.89,2.426,2.426,0,0,0,1.092-.42,36.106,36.106,0,0,1,8.6-1.91c0.588,0,.924.17,0.924,0.51a7.548,7.548,0,0,1-.756,2.12,18.618,18.618,0,0,1-3.668,5.94,17.725,17.725,0,0,1-7.98,4.98c-0.224.06-.308,0.14-0.308,0.26a0.249,0.249,0,0,0,.308.22,15.768,15.768,0,0,0,4.228-.95,20.206,20.206,0,0,0,7.308-5.24A27.827,27.827,0,0,0,941.645,3962.01Zm17.22-6.61c-1.008,0-1.708.14-1.708,0.36,0,0.09.084,0.14,0.308,0.2a8.177,8.177,0,0,1,4.088,3.75c0.392,0.84.644,1.06,1.2,1.06a1.541,1.541,0,0,0,1.54-1.48C964.3,3957.36,961.581,3955.4,958.865,3955.4Zm17.976,0.08a0.735,0.735,0,0,0-.42.34,61.658,61.658,0,0,1-9.436,9.07c-3.052,2.41-5.656,3.78-7.168,3.78a2.292,2.292,0,0,1-1.652-.67c-0.14-.28-0.168-0.28-0.252-0.28a1.138,1.138,0,0,0-.392,1.12c0,0.61.392,1.2,1.456,2.21a3.661,3.661,0,0,0,1.96,1.18,0.84,0.84,0,0,0,.392-0.17c0.2-.14.364-0.31,0.532-0.45a2.98,2.98,0,0,1,.532-0.36,42.11,42.11,0,0,0,11.928-10.84,21.217,21.217,0,0,0,2.716-4.73A0.236,0.236,0,0,0,976.841,3955.48Zm28.449-2.01a1.317,1.317,0,0,0-1.21.33c0,0.14.12,0.23,0.48,0.34a4.05,4.05,0,0,1,2.3,2.04,0.8,0.8,0,0,0,.81.59,1.224,1.224,0,0,0,1.23-1.09C1008.9,3954.53,1007.16,3953.47,1005.29,3953.47Zm-2.83,2.04c-0.45,0-.7.08-0.7,0.22a0.339,0.339,0,0,0,.17.2,4.06,4.06,0,0,1,2.24,2.58,0.663,0.663,0,0,0,.67.58,1.3,1.3,0,0,0,1.2-1.17C1006.04,3956.8,1004.14,3955.51,1002.46,3955.51Zm-4.927,9.94-0.028-2.3-0.056-2.54a9.934,9.934,0,0,1,4.391,3.72,7.717,7.717,0,0,0,.9,1.34,1.653,1.653,0,0,0,1.29.59,1.418,1.418,0,0,0,1.48-1.48c0-1.01-.89-2.21-2.32-3.11a11.187,11.187,0,0,0-5.713-1.62,20.517,20.517,0,0,1,.392-4.6,2.8,2.8,0,0,0,.392-1.09,2.491,2.491,0,0,0-.756-1.26,2.915,2.915,0,0,0-2.016-1.2c-0.812,0-2.492.81-2.492,1.17a0.189,0.189,0,0,0,.224.2c1.344,0,1.624.36,1.764,2.1,0.056,0.78.2,6.22,0.2,8.09a71.491,71.491,0,0,1-.392,7.45,8.246,8.246,0,0,0-.28,1.57c0,1.03,1.26,2.8,1.988,2.8,0.7,0,1.26-1.12,1.26-2.55,0-.36-0.028-1.29-0.112-2.44-0.028-.33-0.056-1.26-0.056-2.24Zm25.817,7.67c-1.74.14-2.05,0.17-3.95,0.25l1.93,2.89a0.714,0.714,0,0,0,.56.39,0.611,0.611,0,0,0,.53-0.39l0.4-.73c1.87-.53,1.96-0.56,3.5-0.98,3.1-.84,4.36-1.23,5.96-1.76a0.416,0.416,0,0,0,.36-0.34,0.256,0.256,0,0,0-.28-0.25c-0.11,0-.25.03-0.42,0.05-1.42.17-3.72,0.42-5.9,0.59v-5.65h3.86c1.82,4.56,5.52,7.58,11.51,9.38a7.721,7.721,0,0,1,3.08-2.72,21.564,21.564,0,0,1-9.86-2.8c1.49-.73,4.01-1.99,5.6-2.8l0.81,0.03,0.2,0.03a0.573,0.573,0,0,0,.73-0.48,0.894,0.894,0,0,0-.42-0.62l-2.07-1.84a52.4,52.4,0,0,1-5.44,5.29,11.009,11.009,0,0,1-3.38-3.47h3.78v0.56a0.42,0.42,0,0,0,.5.44,5.035,5.035,0,0,0,1.4-.3,0.6,0.6,0,0,0,.53-0.7v-5.8l0.59-.17a0.515,0.515,0,0,0,.34-0.5,0.717,0.717,0,0,0-.31-0.53l-2.38-2.24-0.9,1.48h-2.97v-1.9l0.82-.37a0.551,0.551,0,0,0,.28-0.47,0.422,0.422,0,0,0-.42-0.42l-3.11-.31v3.47h-2.69l-1.43-.78a48.937,48.937,0,0,0,6.55-6.11c2.36,3.73,5.32,6.16,10.22,8.35a7.028,7.028,0,0,1,2.94-2.61c-5.96-1.26-9.94-3.19-12.54-6.05l0.53-.16a0.53,0.53,0,0,0,.39-0.48,0.438,0.438,0,0,0-.28-0.39l-3.13-1.23a35.775,35.775,0,0,1-11.29,12.01,0.679,0.679,0,0,0-.42.45,0.19,0.19,0,0,0,.2.16c0.56,0,3.14-1.34,5.49-2.88v13.41Zm2.69-6.69v-2.72h8.4v2.72h-8.4Zm0-3.47v-2.77h8.4v2.77h-8.4Zm32.2-3.84h4.36a0.447,0.447,0,0,0,.45-0.39,0.54,0.54,0,0,0-.19-0.42l-2.1-1.82-1.6,1.88h-0.92v-6.14l0.56-.36a0.765,0.765,0,0,0,.33-0.59,0.673,0.673,0,0,0-.73-0.56l-2.66-.11v7.76h-1.73c-1.21,0-1.91-.03-3.75-0.12l0.58,0.96c1.46-.06,1.99-0.09,3.17-0.09h1.68a27.341,27.341,0,0,1-5.15,11.73,0.964,0.964,0,0,0-.31.48,0.271,0.271,0,0,0,.19.22,4.288,4.288,0,0,0,1.4-1.06,24.018,24.018,0,0,0,3.92-4.56v9.85c0,0.25.17,0.39,0.54,0.39a3.541,3.541,0,0,0,1.4-.36,0.7,0.7,0,0,0,.56-0.81v-11.43a4.409,4.409,0,0,1,1.12,1.66,12.963,12.963,0,0,0,.61,1.51,1.144,1.144,0,0,0,.98.56,1.244,1.244,0,0,0,1.26-1.4c0-1.54-1.43-2.66-3.97-3.11v-3.67Zm14.33-.75h-0.89v-6.08l0.78-.53a0.623,0.623,0,0,0,.28-0.51,0.726,0.726,0,0,0-.67-0.64l-2.94-.17v7.93h-2.1c-0.87,0-1.68-.03-3.75-0.09l0.47,0.93c1.68-.06,2.38-0.09,3.28-0.09h1.62a38.863,38.863,0,0,1-8.93,13.27,0.818,0.818,0,0,0-.31.42,0.215,0.215,0,0,0,.2.2,12,12,0,0,0,2.97-1.93,31.628,31.628,0,0,0,6.55-7.23v8.18c0,0.84-.06.9-0.45,1.01a29.116,29.116,0,0,1-3.11.05c-0.61,0-.7.03-0.7,0.23,0,0.17,0,.17,1.18.53,0.47,0.14.98,0.31,1.43,0.45a2.663,2.663,0,0,1,.47.17c0.23,0.11.28,0.25,0.34,0.84,0.03,0.61.19,0.89,0.53,0.89a4.978,4.978,0,0,0,1.76-.61,1.543,1.543,0,0,0,1.1-1.74v-14.73h4.73a0.386,0.386,0,0,0,.28-0.42,0.6,0.6,0,0,0-.2-0.42l-2.18-1.93Zm23.77-5.38a2.467,2.467,0,0,1-1.31.9,3.58,3.58,0,0,0,.08-0.7,1.914,1.914,0,0,0-.7-1.77,2.229,2.229,0,0,0-1.37-.45,2.119,2.119,0,0,0-1.62.51c0,0.08.05,0.11,0.19,0.14,0.65,0.03,1.09.87,1.09,2.04a3.1,3.1,0,0,1-.11.87,7.619,7.619,0,0,1-2.97.62,2.237,2.237,0,0,1-1.82-.51,0.4,0.4,0,0,0-.22-0.14,0.127,0.127,0,0,0-.11.14,2.474,2.474,0,0,0,2.41,2.16,13.282,13.282,0,0,0,2.49-.39c-1.04,3.19-2.3,4.92-5.49,7.53-0.81.61-.87,0.7-0.87,1.12,0,1.03.81,2.32,1.43,2.32a1.507,1.507,0,0,0,1.12-.95c0.59-.98,2.04-3.16,2.35-3.56a3.232,3.232,0,0,1,2.05-1.23c0.92,0,1.4.93,1.42,2.77l0.03,1.21v0.56a21,21,0,0,0-2.57,1.68c-1.4,1.12-2.08,2.24-2.08,3.41a3.622,3.622,0,0,0,1.99,3.03,9.849,9.849,0,0,0,4.73.92,22.851,22.851,0,0,0,4.26-.39c1.15-.28,1.74-0.76,1.74-1.37a2.406,2.406,0,0,0-.59-1.26,1.648,1.648,0,0,0-1.21-.51,3.2,3.2,0,0,0-.84.2,17.033,17.033,0,0,1-4.34.62c-2.68,0-3.92-.56-3.92-1.8a3.3,3.3,0,0,1,.96-2.1,10.184,10.184,0,0,1,1.93-1.54v0.54l-0.03,1.12a5.153,5.153,0,0,1-.06.89,1.778,1.778,0,0,0-.02.31,0.611,0.611,0,0,0,.67.48,1.528,1.528,0,0,0,1.73-1.8c0-.5-0.02-0.95-0.08-2.57a52.908,52.908,0,0,1,7.78-3.17c1.91-.67,2.66-1.37,2.66-2.43,0-1.79-1.62-3.08-3.86-3.08-3.11,0-5.49,2.1-7.25,6.38a3.178,3.178,0,0,0-.87-2.18,3.06,3.06,0,0,0-2.02-.73,3.846,3.846,0,0,0-1.48.34c1.15-1.94,1.6-2.78,2.88-5.32,2.78-.82,3.45-1.21,3.45-1.96,0-.37,0-0.37-1.18-0.76Zm0.17,11.93v-0.06a6.793,6.793,0,0,1,1.12-2.71c1.4-2.36,3.08-3.64,4.76-3.64a1.538,1.538,0,0,1,1.43,1.48c0,0.78,0,.78-7.34,5.01Zm22.35,10.83a0.48,0.48,0,0,0,.5.59,5.613,5.613,0,0,0,1.43-.28,0.716,0.716,0,0,0,.59-0.75v-15.77l0.44-.36a0.582,0.582,0,0,0,.26-0.45,0.447,0.447,0,0,0-.31-0.42l-0.53-.2a35.305,35.305,0,0,0,1.68-5.2l0.89-.37a0.505,0.505,0,0,0,.34-0.47,0.573,0.573,0,0,0-.37-0.51l-3.27-1.29c-0.67,6.3-2.49,12.04-5.18,16.22a1.811,1.811,0,0,0-.37.64,0.2,0.2,0,0,0,.17.2c0.42,0,1.68-1.4,3.73-4.2v12.62Zm17.66-11.03v1.07a0.537,0.537,0,0,0,.65.56,5.038,5.038,0,0,0,1.43-.28,0.651,0.651,0,0,0,.47-0.7v-4.57l0.42-.14a0.492,0.492,0,0,0,.42-0.47,1.019,1.019,0,0,0-.28-0.62l-2.21-2.24-1.18,1.74h-3.3c0.03-.93.03-1.57,0.03-1.85v-0.93h8.12a0.349,0.349,0,0,0,.31-0.39,0.681,0.681,0,0,0-.23-0.47l-2.52-1.96-1.76,2.07h-3.92l-0.06-3.19,0.7-.37a0.71,0.71,0,0,0,.37-0.59,0.649,0.649,0,0,0-.59-0.58l-3.14-.37c0.11,1.74.11,1.99,0.14,2.69l0.06,1.46,0.03,0.95h-2.8c-2.08,0-2.47,0-4.85-.14l0.65,1.01c2.04-.09,2.71-0.12,4.2-0.12h2.77c0.03,0.65.03,0.79,0.03,1.24v1.54h-3.62l-3.02-1.43v8.73a0.457,0.457,0,0,0,.56.51,6.018,6.018,0,0,0,1.54-.31,0.479,0.479,0,0,0,.36-0.53v-1.32h4.04a20.225,20.225,0,0,1-.73,4.31,14.055,14.055,0,0,1-2.21-2.46,0.559,0.559,0,0,0-.45-0.36,0.363,0.363,0,0,0-.37.33c0,0.62,1.26,2.55,2.44,3.75-0.98,2.08-3.36,4.12-6.5,5.52a0.612,0.612,0,0,0-.42.36,0.213,0.213,0,0,0,.2.17,1.231,1.231,0,0,0,.39-0.08c0.09-.03.39-0.14,0.81-0.25a14.046,14.046,0,0,0,7.03-4.37c2.35,1.93,4.43,2.91,8.68,4.06a6.362,6.362,0,0,1,2.44-2.8c-4.59-.34-7.42-1.07-10.25-2.72a13.841,13.841,0,0,0,1.4-5.46h3.72Zm-10.22-.75v-4.15h4.18c0.02,1.26.02,1.26,0.02,1.46,0,0.5,0,.5-0.08,2.69h-4.12Zm10.22-4.15v4.15h-3.69c0.05-1.12.11-2.5,0.14-4.15h3.55Zm27.36,1.23a3.36,3.36,0,0,1,3,1.57,5.647,5.647,0,0,1,.75,2.72c0,2.57-1.71,4.87-4.9,6.52a16.6,16.6,0,0,1-3.61,1.37c-0.25.06-.36,0.14-0.36,0.26,0,0.16.14,0.25,0.39,0.25a26.566,26.566,0,0,0,5.79-1.4c3.73-1.43,5.63-3.75,5.63-6.78,0-3.3-2.71-5.68-6.49-5.68-2.8,0-5.72.95-9.41,3.11a4.567,4.567,0,0,1-2.33.92,1.845,1.845,0,0,1-1.56-.7c-0.17-.36-0.2-0.36-0.28-0.36-0.17,0-.26.22-0.26,0.72a2.354,2.354,0,0,0,.9,2.02,3.989,3.989,0,0,0,2.16.92c0.56,0,.81-0.14,1.96-1.2C1158.14,3962.62,1161.33,3961.05,1163.88,3961.05Zm34.19-.58c0.95,0,1.9.33,1.9,0.67,0,0.14,0,.14-0.95.75-0.76.54-1.15,0.79-1.18,0.82a0.3,0.3,0,0,0-.22.25,0.184,0.184,0,0,0,.17.14,1.056,1.056,0,0,0,.33-0.11,7.129,7.129,0,0,1,2.75-.51,8.065,8.065,0,0,1,1.73.2c0.37,0.08.45,0.11,0.51,0.11a0.767,0.767,0,0,0,.78-0.92c0-1.68-1.76-2.94-4.17-2.94a6.521,6.521,0,0,0-3.39.84,2.6,2.6,0,0,0-1.03,1.14,0.15,0.15,0,0,0,.14.12,0.1,0.1,0,0,0,.08-0.03A5.5,5.5,0,0,1,1198.07,3960.47Zm1.03,10.92c-3.24,0-4.87-1.1-4.87-3.25a9.14,9.14,0,0,1,.23-1.82,0.419,0.419,0,0,0,.02-0.14,0.151,0.151,0,0,0-.14-0.17c-0.44,0-1.14,1.88-1.14,3.08a4.543,4.543,0,0,0,3.05,4.45,14.089,14.089,0,0,0,4.93.73c2.38,0,3.16-.39,3.16-1.6a1.668,1.668,0,0,0-1.9-1.65Zm-7.58-16.89,0.05-.28,0.06-.33c0.03-.03.05-0.14,0.11-0.26a1.4,1.4,0,0,0,.17-0.53c0-.75-1.68-1.82-2.89-1.82a2.2,2.2,0,0,0-1.7.81,0.156,0.156,0,0,0,.16.12,0.18,0.18,0,0,0,.12-0.03h0.05a2.124,2.124,0,0,1,.7.25,2,2,0,0,1,.81,1.93,18.768,18.768,0,0,1-.47,3.98,14.2,14.2,0,0,1-3.89.53,2.812,2.812,0,0,1-2.47-1.01c-0.17-.31-0.17-0.33-0.28-0.33a0.18,0.18,0,0,0-.14.22,4.4,4.4,0,0,0,.84,2.32,2.608,2.608,0,0,0,2.16,1.04,13.493,13.493,0,0,0,3.33-.45,39.431,39.431,0,0,1-4.84,11.71,1.93,1.93,0,0,0-.51,1.12,1.953,1.953,0,0,0,1.85,1.65,1.835,1.835,0,0,0,1.26-.56,6.043,6.043,0,0,0,1.09-2.44c1.18-3.64,2.27-7.56,3.36-12.07a21.085,21.085,0,0,0,3.78-1.9,1.742,1.742,0,0,0,.95-1.51,0.588,0.588,0,0,0-.64-0.67,5.192,5.192,0,0,1-3.05-1.4Zm-0.23.73a4.079,4.079,0,0,1,1.46,1.46,4.128,4.128,0,0,1-2.02,1.09l0.34-1.6Zm22.18,15.9c3.75-.14,4-0.14,4.79-0.14h6.04v4.57c0,0.53.17,0.73,0.62,0.73a6.818,6.818,0,0,0,1.46-.23,0.719,0.719,0,0,0,.67-0.81v-4.26h11.65c0.36,0,.53-0.08.53-0.3a0.772,0.772,0,0,0-.34-0.54l-2.38-2.04-2.13,2.13h-7.33v-3.47h5.77v1.17c0,0.37.14,0.48,0.56,0.48,1.31,0,2.07-.34,2.07-0.93v-7.67l0.25-.11a0.792,0.792,0,0,0,.53-0.73,0.961,0.961,0,0,0-.36-0.7l-2.16-2.21-1.06,1.57h-2.16c2.63-2.77,2.72-2.86,4.12-4.51l0.75-.31a0.741,0.741,0,0,0,.56-0.64,0.841,0.841,0,0,0-.56-0.7l-3.05-1.63a28.56,28.56,0,0,1-2.77,7.79h-10.3l-3.03-1.54v12.29c0,0.5.11,0.64,0.56,0.64a4.744,4.744,0,0,0,1.6-.33,0.723,0.723,0,0,0,.47-0.76v-1.17h5.46v3.47h-6.04c-1.32,0-1.4,0-5.49-.17Zm5.37-5.12v-3.44h5.46v3.44h-5.46Zm0-4.2v-3.42h5.46v3.42h-5.46Zm8.21,4.2v-3.44h5.77v3.44h-5.77Zm0-4.2v-3.42h5.77v3.42h-5.77Zm-11.31-11.45a0.235,0.235,0,0,0-.28.19,0.372,0.372,0,0,0,.19.31c1.37,1.18,1.74,1.85,2.24,4.01,0.31,1.65.53,1.93,1.46,1.93a1.453,1.453,0,0,0,1.51-1.6,4.227,4.227,0,0,0-2.13-3.44A7.8,7.8,0,0,0,1215.74,3950.36Zm6.21-.11a0.256,0.256,0,0,0-.31.25,0.385,0.385,0,0,0,.23.28,5.832,5.832,0,0,1,2.57,3.55c0.48,1.68.7,1.96,1.66,1.96a1.425,1.425,0,0,0,1.54-1.59c0-1.37-1.01-2.58-2.94-3.56A11.093,11.093,0,0,0,1221.95,3950.25Zm27.39,23.71h5.29v1.6a0.39,0.39,0,0,0,.45.45,5.317,5.317,0,0,0,1.54-.4,0.608,0.608,0,0,0,.47-0.61v-8.26l0.42-.25a0.53,0.53,0,0,0,.34-0.42,0.9,0.9,0,0,0-.28-0.51l-2.1-2.49-1.07,1.48h-4.7l-2.8-1.37v12.69c0,0.36.08,0.44,0.39,0.44a5.071,5.071,0,0,0,1.6-.33,0.593,0.593,0,0,0,.45-0.65v-1.37Zm0-.75v-7.9h5.29v7.9h-5.29Zm4.2-12.83h9.43v1.23c0,0.42.11,0.56,0.45,0.56,0.92,0,2.1-.5,2.1-0.92v-6.92l0.36-.19a0.662,0.662,0,0,0,.4-0.59,0.95,0.95,0,0,0-.34-0.62l-2.27-2.07-0.92,1.46h-8.93l-2.78-1.46v11.23c0,0.42.09,0.56,0.4,0.56a8.9,8.9,0,0,0,1.51-.28,0.646,0.646,0,0,0,.59-0.59v-1.4Zm0-.75v-6.56h9.43v6.56h-9.43Zm8.65,14.33h5.37v1.57a0.364,0.364,0,0,0,.45.42,4.069,4.069,0,0,0,1.63-.39,0.8,0.8,0,0,0,.47-0.79v-8.09l0.39-.22a0.678,0.678,0,0,0,.37-0.56,0.918,0.918,0,0,0-.34-0.59l-2.07-2.32-1.06,1.56h-5.1l-2.52-1.28v12.62a0.371,0.371,0,0,0,.42.42,5.064,5.064,0,0,0,1.57-.33,0.543,0.543,0,0,0,.42-0.53v-1.49Zm0-.75v-7.9h5.37v7.9h-5.37Zm20.63,2.66a0.506,0.506,0,0,0,.56.56,4.426,4.426,0,0,0,1.29-.26,0.625,0.625,0,0,0,.53-0.67v-10.58a4.943,4.943,0,0,1,1.29,2.1,3.42,3.42,0,0,0,.65,1.57,0.888,0.888,0,0,0,.64.28,1.2,1.2,0,0,0,1.06-1.4c0-1.49-1.31-2.58-3.64-3.03v-1.96h4.74a0.4,0.4,0,0,0,.47-0.36,0.542,0.542,0,0,0-.22-0.39l-1.82-1.85-1.51,1.85h-1.66v-9.44l0.79-.59a0.529,0.529,0,0,0,.25-0.45,0.479,0.479,0,0,0-.5-0.42l-2.92-.19v11.09h-1.56c-2.1-.06-3.17-0.09-3.76-0.12l0.54,0.96c2.49-.09,2.63-0.09,3.22-0.09h1.54a25.585,25.585,0,0,1-4.85,9.94,0.943,0.943,0,0,0-.22.45,0.141,0.141,0,0,0,.17.14,8.281,8.281,0,0,0,2.1-1.65,24.453,24.453,0,0,0,2.82-3.31v7.82Zm-4.73-22.18a0.146,0.146,0,0,0-.17.14,0.92,0.92,0,0,0,.14.31,8.5,8.5,0,0,1,1.26,4.81c0.03,1.15.31,1.54,1.01,1.54,0.87,0,1.4-.72,1.4-1.87a5.161,5.161,0,0,0-2.21-3.98A5.426,5.426,0,0,0,1278.09,3953.69Zm12.43,1.57a0.633,0.633,0,0,0,.34-0.56,0.573,0.573,0,0,0-.34-0.51l-2.43-1.34a37.223,37.223,0,0,1-1.85,6.13,3.656,3.656,0,0,0-.45,1.12,0.2,0.2,0,0,0,.2.2c0.36,0,2.18-2.24,3.83-4.71Zm-3.27,15.68c1.82-.56,2.35-0.7,3.95-1.15l5.6-1.48v7.22a0.511,0.511,0,0,0,.64.53,3.628,3.628,0,0,0,1.2-.22,0.689,0.689,0,0,0,.59-0.73v-7.45l4.87-1.34a0.235,0.235,0,0,0,.2-0.23,0.652,0.652,0,0,0-.31-0.47l-2.35-1.93-1.23,2.91-1.18.33v-14.44l0.59-.4a0.583,0.583,0,0,0,.31-0.53,0.523,0.523,0,0,0-.56-0.53l-2.77-.25v16.77l-5.88,1.54c-1.52.42-2.24,0.59-4.29,1.04Zm3.53-10.05a0.137,0.137,0,0,0-.17.14,0.471,0.471,0,0,0,.22.25,4.761,4.761,0,0,1,1.85,3.44c0.2,0.98.48,1.32,1.15,1.32a1.333,1.333,0,0,0,1.34-1.6,2.9,2.9,0,0,0-1.85-2.71A7.515,7.515,0,0,0,1290.78,3960.89Zm0.95-6.28c-0.17,0-.28.06-0.28,0.14a0.48,0.48,0,0,0,.25.34,4.594,4.594,0,0,1,1.71,3.19c0.19,0.98.45,1.32,1.09,1.32a1.4,1.4,0,0,0,1.43-1.57,2.916,2.916,0,0,0-1.65-2.58A6.8,6.8,0,0,0,1291.73,3954.61Zm24.61,6.89h4a0.421,0.421,0,0,0,.4-0.39,0.656,0.656,0,0,0-.31-0.48l-1.88-1.65-1.54,1.77h-0.67v-6.53h4.26a0.344,0.344,0,0,0,.3-0.36,0.525,0.525,0,0,0-.19-0.39l-2.05-1.8-1.48,1.8h-3.33c-0.95,0-1.74-.03-3.73-0.12l0.56,0.96c1.52-.06,1.74-0.06,3.31-0.09v6.53c-1.6-.03-1.88-0.03-3.75-0.12l0.61,0.96c1.46-.06,1.68-0.06,3.14-0.09v7.25c-1.32.26-1.82,0.34-4.23,0.65l1.74,2.94a0.524,0.524,0,0,0,.5.25,0.644,0.644,0,0,0,.64-0.42l0.31-.95a62.844,62.844,0,0,0,7.23-2.94c1.28-.62,1.54-0.76,1.54-0.95a0.3,0.3,0,0,0-.34-0.28,1.986,1.986,0,0,0-.45.08c-2.21.59-3.64,0.92-4.59,1.12v-6.75Zm17.44,10.17-1.93,2.21h-2.88v-4.76h6.21a0.449,0.449,0,0,0,.37-0.48,0.628,0.628,0,0,0-.23-0.47l-2.07-1.82-1.71,2.01h-2.57v-3.95h3.47v0.93a0.35,0.35,0,0,0,.42.42,6.328,6.328,0,0,0,1.57-.31,0.51,0.51,0,0,0,.42-0.62v-10.05l0.7-.33a0.5,0.5,0,0,0,.28-0.42,0.916,0.916,0,0,0-.34-0.68l-2.27-2.15-0.92,1.26h-8.4l-2.74-1.15v14.92c0,0.31.11,0.4,0.44,0.4a5.156,5.156,0,0,0,1.35-.26c0.42-.14.56-0.25,0.56-0.5v-1.46h3.13v3.95h-1.65c-0.87,0-1.68-.03-3.75-0.11l0.59,0.95c1.57-.05,2.27-0.08,3.16-0.08h1.65v4.76h-3.3c-1.23,0-2.27-.03-4.84-0.14l0.61,1.01c2.02-.09,2.69-0.12,4.23-0.12h12.88a0.354,0.354,0,0,0,.36-0.33,0.567,0.567,0,0,0-.22-0.42Zm-10.27-8.01v-4.87h3.13v4.87h-3.13Zm0-5.63v-4.82h3.13v4.82h-3.13Zm5.46,5.63v-4.87h3.47v4.87h-3.47Zm0-5.63v-4.82h3.47v4.82h-3.47Z" transform="translate(-498 -3949.84)"/>
</svg>
