<svg xmlns="http://www.w3.org/2000/svg" width="94.656" height="11.31" viewBox="0 0 94.656 11.31">
  <defs>
    <style>
      .cls-1 {
        fill: #00a040;
        fill-rule: evenodd;
      }
    </style>
  </defs>
  <path id="_-_Dessert_-_" data-name="- Dessert - " class="cls-1" d="M1002.82,2610.11l0.15-.89h-3.716l-0.156.89h3.722Zm8.89,3.24h5.06a7.16,7.16,0,0,0,4.12-1.04,6.583,6.583,0,0,0,2.84-4.54c0.37-2.07-.17-3.62-1.6-4.59a5.8,5.8,0,0,0-3.24-.87h-5.17l-0.07.39,0.32,0.01c0.8-.03,1.22.36,1.1,1.02l-1.2,6.83c-0.34,2.02-.54,2.29-1.79,2.34h-0.29Zm5.08-8.9a2.283,2.283,0,0,1,.32-1.12,1.611,1.611,0,0,1,1.43-.54,3.28,3.28,0,0,1,2.18.73c0.97,0.84,1.25,2.19.88,4.29-0.42,2.37-1.31,3.93-2.62,4.58a5.5,5.5,0,0,1-2.25.49c-1.07,0-1.36-.36-1.17-1.44Zm16.33,6.41c-1.09,1.32-1.83,1.8-2.81,1.8-1.45,0-2.1-1.1-1.77-2.96h5.14a3.883,3.883,0,0,0,.09-0.39,3.525,3.525,0,0,0-.35-2.29,2.484,2.484,0,0,0-2.29-1.22,4.5,4.5,0,0,0-4.35,3.83c-0.39,2.23.85,3.93,2.89,3.93a3.9,3.9,0,0,0,2.15-.69,6.339,6.339,0,0,0,1.7-1.74Zm-4.48-1.64a6.838,6.838,0,0,1,.49-1.5,2.061,2.061,0,0,1,1.77-1.41,1.008,1.008,0,0,1,.94.54,3.358,3.358,0,0,1,.24,2c-0.02.09-.04,0.21-0.08,0.37h-3.36Zm8.36,4.31,0.57-.83a3.024,3.024,0,0,0,2.18.87,3.077,3.077,0,0,0,3.15-2.37,1.77,1.77,0,0,0-.49-1.63,4.437,4.437,0,0,0-1.84-.89,9.094,9.094,0,0,1-1.42-.57,0.586,0.586,0,0,1-.3-0.67,1.7,1.7,0,0,1,1.79-1.11,1.773,1.773,0,0,1,1.6.87,4.48,4.48,0,0,1,.5,1.33h0.48l0.37-2.7h-0.41l-0.47.71a2.866,2.866,0,0,0-2.02-.75,2.912,2.912,0,0,0-3.06,2.17,1.629,1.629,0,0,0,.41,1.47,3.728,3.728,0,0,0,1.69.84c1.59,0.51,2.01.84,1.9,1.52a1.714,1.714,0,0,1-1.81,1.23,2.172,2.172,0,0,1-1.78-.86,2.941,2.941,0,0,1-.42-1.74h-0.45l-0.47,3.11h0.3Zm9.39,0,0.56-.83a3.248,3.248,0,0,0,5.34-1.5,1.77,1.77,0,0,0-.49-1.63,4.437,4.437,0,0,0-1.84-.89,9.094,9.094,0,0,1-1.42-.57,0.586,0.586,0,0,1-.3-0.67,1.7,1.7,0,0,1,1.79-1.11,1.773,1.773,0,0,1,1.6.87,4.48,4.48,0,0,1,.5,1.33h0.48l0.37-2.7h-0.41l-0.47.71a2.866,2.866,0,0,0-2.02-.75,2.912,2.912,0,0,0-3.06,2.17,1.629,1.629,0,0,0,.41,1.47,3.728,3.728,0,0,0,1.69.84c1.59,0.51,2.01.84,1.9,1.52a1.714,1.714,0,0,1-1.81,1.23,2.191,2.191,0,0,1-1.79-.86,3.028,3.028,0,0,1-.41-1.74h-0.45l-0.47,3.11h0.3Zm15.81-2.67c-1.08,1.32-1.83,1.8-2.8,1.8-1.46,0-2.1-1.1-1.78-2.96h5.15a3.383,3.383,0,0,0,.08-0.39,3.525,3.525,0,0,0-.35-2.29,2.473,2.473,0,0,0-2.29-1.22,4.493,4.493,0,0,0-4.34,3.83c-0.4,2.23.85,3.93,2.89,3.93a3.9,3.9,0,0,0,2.15-.69,6.635,6.635,0,0,0,1.7-1.74Zm-4.48-1.64a8.188,8.188,0,0,1,.49-1.5,2.073,2.073,0,0,1,1.78-1.41,1.018,1.018,0,0,1,.94.54,3.363,3.363,0,0,1,.23,2,1.925,1.925,0,0,1-.08.37h-3.36Zm7.77,4.13h4.62l0.06-.38c-1.43.05-1.69-.18-1.51-1.32l0.46-2.56a3.073,3.073,0,0,1,2-2.43,0.786,0.786,0,0,0-.16.4,0.722,0.722,0,0,0,.72.9,1.219,1.219,0,0,0,1.12-.99,0.889,0.889,0,0,0-.97-1.06,3.55,3.55,0,0,0-2.39,1.35l0.27-1.58a16.321,16.321,0,0,1-2.93.33l-0.07.39h0.28a0.818,0.818,0,0,1,.89,1.1l-0.68,3.84c-0.16,1.27-.42,1.56-1.45,1.63h-0.2Zm10.47-6.83h1.51l-0.94,5.37a1.282,1.282,0,0,0,1.36,1.73,2.265,2.265,0,0,0,2.06-1.26,5.7,5.7,0,0,0,.52-1.71h-0.44a5.741,5.741,0,0,1-.42,1.38,1.29,1.29,0,0,1-1.03.81,0.6,0.6,0,0,1-.56-0.81l0.97-5.51h1.89l0.09-.52h-1.89l0.5-2.82h-0.47a3.968,3.968,0,0,1-3.07,2.86Zm17.64,3.59,0.15-.89h-3.72l-0.15.89h3.72Z" transform="translate(-999.094 -2602.31)"/>
</svg>
