<svg xmlns="http://www.w3.org/2000/svg" width="1298.26" height="66.62" viewBox="0 0 649.13 33.31">
  <defs>
    <style>
      .cls-1 {
        fill: #333;
        fill-rule: evenodd;
      }
    </style>
  </defs>
  <path id="シェフのおすすめディナープレート" class="cls-1" d="M526.864,2820.88c-1.547,0-3.131.32-3.131,0.64,0,0.11.072,0.18,0.324,0.26a8.306,8.306,0,0,1,5.147,4.03c0.576,1.08.792,1.26,1.548,1.26a2.022,2.022,0,0,0,2.16-1.98C532.912,2822.86,530.1,2820.88,526.864,2820.88Zm-4.535,18.68c0,0.03,0,.03-0.036.03-0.288-.03-0.5.4-0.5,0.98a3.8,3.8,0,0,0,1.368,2.59c1.3,1.26,2.3,1.94,2.879,1.94a1.424,1.424,0,0,0,.972-0.54,5.107,5.107,0,0,1,.72-0.47,66.386,66.386,0,0,0,11.663-8.78,44.625,44.625,0,0,0,6.911-9.11c1.08-1.94,1.476-2.8,1.476-3.2a0.286,0.286,0,0,0-.216-0.29c-0.18,0-.288.07-0.648,0.61a60.6,60.6,0,0,1-4.068,4.9,53.83,53.83,0,0,1-9.25,8.06c-4.068,2.85-6.984,4.25-8.855,4.25-1.548,0-2.16-.25-2.376-0.97h-0.036Zm0.18-11.84c-1.188,0-2.268.21-2.268,0.46,0,0.11.036,0.15,0.36,0.29a9.155,9.155,0,0,1,4.716,4.32,1.438,1.438,0,0,0,1.259,1.01,2.093,2.093,0,0,0,2.088-1.94C528.664,2829.77,525.641,2827.72,522.509,2827.72Zm49.607,12.77-2.772.26c-3.779.21-3.779,0.21-4.5,0.21-1.26,0-2.124-.21-2.412-0.61a0.253,0.253,0,0,0-.216-0.18,0.948,0.948,0,0,0-.36,1.01,1.706,1.706,0,0,0,1.116,1.4c1.656,1.08,1.656,1.08,2.232,1.08a3.785,3.785,0,0,0,1.368-.29c3.167-1.15,6.767-1.65,12.13-1.65a31.419,31.419,0,0,1,6.515.65,8.94,8.94,0,0,0,1.512.25,1.059,1.059,0,0,0,1.044-.97c0-.98-2.268-2.7-3.6-2.7a1.176,1.176,0,0,0-.323.03c-1.584.51-1.908,0.58-7.956,1.19,0.108-4.28.288-5.8,0.756-7.31a1.067,1.067,0,0,0,.144-0.46,2.686,2.686,0,0,0-1.331-1.23c1.295-.11,2.339-0.14,3.491-0.14,0.5,0,.5,0,2.376.07l0.432,0.04h0.36a0.841,0.841,0,0,0,.864-0.8,1.7,1.7,0,0,0-.864-1.22,4.563,4.563,0,0,0-2.2-1.04,2.558,2.558,0,0,0-.972.32,18.157,18.157,0,0,1-5.831,1.3c-4.32.43-4.32,0.43-5,.43a3.16,3.16,0,0,1-1.979-.54c-0.288-.36-0.288-0.36-0.36-0.36-0.18,0-.252.14-0.252,0.5,0,1.33,1.152,2.77,2.232,2.77a1.483,1.483,0,0,0,.323-0.07,6.162,6.162,0,0,1,1.692-.54,15.68,15.68,0,0,1,2.484-.39c0.9,0,1.008.43,1.008,4.28a40.558,40.558,0,0,1-.18,4.64Zm54.574-14.72c1.332-.9,1.656-1.22,1.656-1.51a2.917,2.917,0,0,0-1.26-1.22c-2.051-1.44-2.627-1.77-3.059-1.77a2.155,2.155,0,0,0-1.224.51,10.541,10.541,0,0,1-4.284,1.44,85.2,85.2,0,0,1-9.214,1.11,3.281,3.281,0,0,1-2.736-1.04,0.5,0.5,0,0,0-.288-0.25,0.414,0.414,0,0,0-.288.5,3.39,3.39,0,0,0,1.224,2.88,4.8,4.8,0,0,0,2.2,1.04,1.462,1.462,0,0,0,.575-0.21,14.949,14.949,0,0,1,4.32-1.51,44.658,44.658,0,0,1,7.091-1.23c0.828,0,1.152.22,1.152,0.79a10.823,10.823,0,0,1-.684,2.74,22.718,22.718,0,0,1-5,8.53,25.8,25.8,0,0,1-11.735,8.1,0.339,0.339,0,0,0-.324.29,0.308,0.308,0,0,0,.36.25c1.728,0,6.335-1.69,9.251-3.38C619.779,2838.69,623.307,2834.05,626.69,2825.77Zm32.33-4.28a7.07,7.07,0,0,1,.755-0.04,8.636,8.636,0,0,1,3.708.87c3.132,1.58,4.751,4.86,4.751,9.68,0,4.43-1.475,7.7-4.607,10.26a19.492,19.492,0,0,1-6.443,3.35c-0.576.18-.684,0.21-0.684,0.39,0,0.15.144,0.22,0.36,0.22a16.058,16.058,0,0,0,2.3-.43,22.285,22.285,0,0,0,6.659-2.45,13.256,13.256,0,0,0,6.659-11.52,10.873,10.873,0,0,0-2.844-7.6,13.9,13.9,0,0,0-10.115-3.96c-8.422,0-15.658,6.81-15.658,14.73a9.308,9.308,0,0,0,1.764,5.79,4.344,4.344,0,0,0,3.024,1.98c1.98,0,5.111-2.55,7.235-5.87a23.143,23.143,0,0,0,3.6-11.69A13.757,13.757,0,0,0,659.02,2821.49Zm-1.764.14a2.015,2.015,0,0,0,.072.25,8.715,8.715,0,0,1,.216,2.02,21.157,21.157,0,0,1-3.672,10.76c-1.512,2.38-3.563,4.25-4.679,4.25s-2.088-1.87-2.088-4a14.1,14.1,0,0,1,4.247-10.04A13.582,13.582,0,0,1,657.256,2821.63Zm39.2,13.79c4.392-2.74,6.623-3.64,8.927-3.64,2.2,0,3.636,1.62,3.636,4.07a5.572,5.572,0,0,1-5.472,5.62c-1.8,0-2.951-1.3-2.951-3.28a6.219,6.219,0,0,1,.575-2.45,0.945,0.945,0,0,0,.072-0.25,0.2,0.2,0,0,0-.144-0.18c-0.755,0-1.943,2.45-1.943,4a6.946,6.946,0,0,0,.756,3.13,4.335,4.335,0,0,0,4.1,1.98,8.393,8.393,0,0,0,8.5-8.25c0-3.52-2.556-5.86-6.3-5.86-2.808,0-5.507.9-9.791,3.2v-1.65c0-.98.036-1.7,0.072-2.67,3.96-1.51,5.975-3.06,5.975-4.61a0.912,0.912,0,0,0-.864-1,4.912,4.912,0,0,0-.539.03h-0.252a10.912,10.912,0,0,1-4.032-1.11,4.337,4.337,0,0,1,.432-1.52,1.071,1.071,0,0,0,.18-0.46c0-.98-2.016-2.31-3.42-2.31-0.971,0-2.447.76-2.447,1.26a0.271,0.271,0,0,0,.252.22h0.072a0.646,0.646,0,0,1,.4-0.11c1.079,0,1.583.83,1.8,3.06,0.216,2.38.288,3.49,0.288,4.54a14.119,14.119,0,0,1-4.283.72c-1.476,0-2.232-.33-2.52-1.08a0.188,0.188,0,0,0-.18-0.15c-0.18,0-.252.25-0.252,0.83,0,1.69,1.3,2.84,3.2,2.84a17.458,17.458,0,0,0,4.139-.61c0.108,1.44.108,2.2,0.108,4.64-1.619.83-2.879,1.52-5.507,2.88-2.16,1.19-2.16,1.19-2.628,1.19a0.747,0.747,0,0,1-.468-0.18,0.845,0.845,0,0,0-.648-0.32,1.352,1.352,0,0,0-1.187,1.47c0,1.44,1.691,3.53,2.879,3.53,0.432,0,.576-0.11,1.98-1.65,0.684-.72.72-0.8,1.152-1.26,1.98,1.33,3.059,3.16,2.952,4.96,0,0.83.107,1.01,0.647,1.01a3.633,3.633,0,0,0,3.24-3.13,1.982,1.982,0,0,0-.036-0.4c-0.18-2.05-.216-2.91-0.432-6.58Zm-1.764,4.82c0,0.72-.18,1.19-0.5,1.19a16.87,16.87,0,0,1-3.455-2.05c1.368-1.12,2.052-1.66,3.959-2.99-0.036.97-.036,1.33-0.036,1.94Zm1.944-16.99c0.612,0.29,1.3.65,2.088,1.05,0.18,0.07.216,0.1,0.216,0.25,0,0.61-.936,1.37-2.376,1.94l0.036-1.62Zm14.506,0.33a8.225,8.225,0,0,0-4.751,1.47,1.14,1.14,0,0,0-.612.61,0.183,0.183,0,0,0,.18.22,1.381,1.381,0,0,0,.432-0.11,5.269,5.269,0,0,1,1.728-.29,6.421,6.421,0,0,1,3.419,1.08,6.487,6.487,0,0,1,2.016,2.27,1.818,1.818,0,0,0,.54,1.08,1.691,1.691,0,0,0,1.044.43,2.457,2.457,0,0,0,2.123-2.44C717.265,2825.48,714.566,2823.58,711.146,2823.58Zm31.142,5.36a3.673,3.673,0,0,0-1.116-.18c-2.412,0-4.356,2.66-4.356,6.01,0,2.95,1.8,5.36,4,5.36a2.616,2.616,0,0,0,1.764-.68,10.892,10.892,0,0,1-7.272,8.39c-0.216.07-.288,0.14-0.288,0.25a0.276,0.276,0,0,0,.324.18,16.663,16.663,0,0,0,5.22-1.69c3.959-2.23,5.8-5.76,5.8-11.02,0-2.91-.324-4.1-1.548-5.47-0.036-.36-0.072-0.57-0.072-0.75,0-.8.036-1.59,0.108-2.74,0.036-.14.036-0.54,0.072-1.04,1.476-.11,2.124-0.15,2.952-0.15a27.834,27.834,0,0,1,6.263.72,3.231,3.231,0,0,0,.9.15,1.284,1.284,0,0,0,1.188-1.19,2.262,2.262,0,0,0-.756-1.44,4.478,4.478,0,0,0-2.124-.94,1.478,1.478,0,0,1-.36.04,1.611,1.611,0,0,1-.4.03,8.66,8.66,0,0,1-3.923-1.26,1.066,1.066,0,0,0-.5-0.28,0.225,0.225,0,0,0-.216.21,0.888,0.888,0,0,0,.324.43q0.594,0.765,1.08,1.41c-0.936.14-1.548,0.21-1.872,0.25-0.612.11-1.4,0.22-2.412,0.36,0.216-3.06.252-3.49,0.684-4.61a2.509,2.509,0,0,0,.252-0.68c0-1.08-2.484-2.95-3.887-2.95-0.828,0-2.448.54-2.448,0.83a0.18,0.18,0,0,0,.216.14c2.052,0.32,2.16.68,2.34,7.63-3.888.61-4.464,0.72-6.192,1.01-5.723,1.01-5.723,1.01-6.335,1.01a3.862,3.862,0,0,1-3.095-1.44c-0.108-.15-0.108-0.15-0.18-0.15a0.235,0.235,0,0,0-.216.29,5.387,5.387,0,0,0,1.043,2.84,4.971,4.971,0,0,0,2.952,1.73,2.335,2.335,0,0,0,.9-0.36,40.727,40.727,0,0,1,11.123-3.42c0.072,1.51.072,2.02,0.072,2.49v0.68Zm-1.44,1.15a1.445,1.445,0,0,1,1.188,1.19,8.584,8.584,0,0,1,.144,1.83c0,3.17-.5,4.79-1.476,4.79-1.152,0-2.052-1.58-2.052-3.63C738.652,2832.04,739.66,2830.09,740.848,2830.09Zm43.2-1.15a3.673,3.673,0,0,0-1.116-.18c-2.412,0-4.356,2.66-4.356,6.01,0,2.95,1.8,5.36,4,5.36a2.616,2.616,0,0,0,1.764-.68,10.892,10.892,0,0,1-7.272,8.39c-0.216.07-.288,0.14-0.288,0.25a0.276,0.276,0,0,0,.324.18,16.663,16.663,0,0,0,5.22-1.69c3.959-2.23,5.795-5.76,5.795-11.02,0-2.91-.324-4.1-1.548-5.47-0.036-.36-0.072-0.57-0.072-0.75,0-.8.036-1.59,0.108-2.74,0.036-.14.036-0.54,0.072-1.04,1.476-.11,2.124-0.15,2.952-0.15a27.834,27.834,0,0,1,6.263.72,3.231,3.231,0,0,0,.9.15,1.284,1.284,0,0,0,1.188-1.19,2.262,2.262,0,0,0-.756-1.44,4.478,4.478,0,0,0-2.124-.94,1.478,1.478,0,0,1-.36.04,1.611,1.611,0,0,1-.4.03,8.66,8.66,0,0,1-3.923-1.26,1.066,1.066,0,0,0-.5-0.28,0.225,0.225,0,0,0-.216.21,0.888,0.888,0,0,0,.324.43q0.594,0.765,1.08,1.41c-0.936.14-1.548,0.21-1.872,0.25-0.612.11-1.4,0.22-2.412,0.36,0.216-3.06.252-3.49,0.684-4.61a2.509,2.509,0,0,0,.252-0.68c0-1.08-2.484-2.95-3.887-2.95-0.828,0-2.448.54-2.448,0.83a0.18,0.18,0,0,0,.216.14c2.052,0.32,2.16.68,2.34,7.63-3.888.61-4.464,0.72-6.192,1.01-5.723,1.01-5.723,1.01-6.335,1.01a3.862,3.862,0,0,1-3.095-1.44c-0.108-.15-0.108-0.15-0.18-0.15a0.235,0.235,0,0,0-.216.29,5.387,5.387,0,0,0,1.043,2.84,4.971,4.971,0,0,0,2.952,1.73,2.335,2.335,0,0,0,.9-0.36,40.727,40.727,0,0,1,11.123-3.42c0.072,1.51.072,2.02,0.072,2.49v0.68Zm-1.44,1.15a1.445,1.445,0,0,1,1.188,1.19,8.584,8.584,0,0,1,.144,1.83c0,3.17-.5,4.79-1.476,4.79-1.152,0-2.052-1.58-2.052-3.63C780.412,2832.04,781.42,2830.09,782.608,2830.09Zm30.457-8.67,0.108,0.03c1.188,0.29,1.548.87,2.088,3.13a28.657,28.657,0,0,0,1.62,4.54,17.653,17.653,0,0,0-2.484,3.13,10.785,10.785,0,0,0-1.692,5.72c0,3.06,1.224,5.01,3.132,5.01a9.092,9.092,0,0,0,5.435-2.49,13.624,13.624,0,0,0,3.132-3.85,3.343,3.343,0,0,0,1.476.4,0.67,0.67,0,0,0,.755-0.61,3.987,3.987,0,0,0-.323-1.16,1.4,1.4,0,0,0-.9-0.43,50.18,50.18,0,0,0,3.707-9.18c2.3,0.51,3.384,1.08,4.356,2.38a8.745,8.745,0,0,1,1.619,5.47,11.214,11.214,0,0,1-5.507,9.79,24.8,24.8,0,0,1-7.307,3.06c-0.4.07-.468,0.11-0.468,0.25s0.144,0.22.4,0.22a30.067,30.067,0,0,0,9.143-2.27c4.823-2.16,7.667-5.97,7.667-10.4a9.117,9.117,0,0,0-4.212-8.14,9.9,9.9,0,0,0-5.327-1.4,16.912,16.912,0,0,0,.612-3.67c0-1.95-1.8-3.28-4.391-3.28a1.87,1.87,0,0,0-1.44.29,0.244,0.244,0,0,0,.252.22c1.4,0.28,2.231,1.87,2.231,4.28a12.249,12.249,0,0,1-.18,2.09,20.2,20.2,0,0,0-7.739,2.99,15.472,15.472,0,0,1-.791-4.22,2.166,2.166,0,0,0-.756-2.01,4.325,4.325,0,0,0-2.268-.79c-0.792,0-2.412.54-2.412,0.79a0.782,0.782,0,0,0,.18.14Zm9.395,14.25a14.592,14.592,0,0,1-2.844,3.38,4.6,4.6,0,0,1-2.339,1.23,1.894,1.894,0,0,1-1.152-.54,3.068,3.068,0,0,1-.684-2.38,9.364,9.364,0,0,1,2.448-6.37A12.73,12.73,0,0,0,822.46,2835.67Zm3.852-9.93a30.617,30.617,0,0,1-2.808,8.24,9.717,9.717,0,0,1-3.96-4.72A14.542,14.542,0,0,1,826.312,2825.74Zm52.738-10.15c-1.116,0-1.656.1-1.656,0.36a0.237,0.237,0,0,0,.252.21,5.594,5.594,0,0,1,3.24,2.48c0.684,1.12.792,1.23,1.44,1.23a1.463,1.463,0,0,0,1.512-1.44C883.838,2816.95,881.534,2815.59,879.05,2815.59Zm-3.707,2.73c-0.864,0-1.188.07-1.188,0.32a0.266,0.266,0,0,0,.18.22,5.3,5.3,0,0,1,3.059,2.74c0.432,0.9.648,1.08,1.3,1.08a1.355,1.355,0,0,0,1.44-1.41C880.13,2819.72,877.862,2818.32,875.343,2818.32Zm-16.414,2.81a0.314,0.314,0,0,0-.216.29,5,5,0,0,0,1.008,1.94,2.914,2.914,0,0,0,2.3,1.04,50.151,50.151,0,0,0,8.963-1.47c1.944-.43,2.664-0.76,2.664-1.26a1.86,1.86,0,0,0-1.116-1.33,5.772,5.772,0,0,0-1.872-.65,1.734,1.734,0,0,0-.648.18,15.412,15.412,0,0,1-2.195.9,23.526,23.526,0,0,1-6.444,1.19,3.561,3.561,0,0,1-2.339-.76A0.168,0.168,0,0,0,858.929,2821.13Zm7.487,8.24a1.5,1.5,0,0,1,.288.9c0,1.98-1.224,5.36-2.88,8.06a21.464,21.464,0,0,1-7.091,7.1c-1.728.9-1.728,0.9-1.728,1.04a0.238,0.238,0,0,0,.288.22,25.955,25.955,0,0,0,5.255-2.09c4.464-2.49,8.027-7.13,10.007-12.96a1.336,1.336,0,0,0,.54-0.83c0-.29-0.324-0.61-1.764-1.69,2.3-.18,2.808-0.22,3.672-0.22a36.71,36.71,0,0,1,4.895.4,5.977,5.977,0,0,0,.936.11,1.2,1.2,0,0,0,1.332-1.05c0-.61-0.36-1-1.476-1.69a6.413,6.413,0,0,0-2.448-1.11c-1.475.9-2.483,1.18-5.507,1.65-2.915.43-12.886,1.48-14.146,1.48-1.512,0-2.2-.29-2.808-1.15a0.739,0.739,0,0,0-.36.68,2.49,2.49,0,0,0,.9,1.8,5.661,5.661,0,0,0,2.736,1.4,2,2,0,0,0,.576-0.1A34.626,34.626,0,0,1,866.416,2829.37Zm42.3,12.92c-0.036.36-.036,0.69-0.072,0.94a9.727,9.727,0,0,1-.5,1.8,1.846,1.846,0,0,0-.18.72c0,0.65,1.836,2.38,2.555,2.38,0.684,0,1.152-.72,1.152-1.73,0-.36-0.036-1.08-0.072-1.95,0-.43-0.072-1.72-0.108-3.92-0.108-3.89-.108-3.89-0.108-4.18a8.392,8.392,0,0,1,.216-2.19,1.334,1.334,0,0,0,.288-0.69,1.03,1.03,0,0,0-.828-0.75c-0.432-.22-0.612-0.29-1.008-0.5,1.08-1.12,2.592-2.81,3.6-4.04,0.4-.46.576-0.64,0.648-0.72a1.987,1.987,0,0,1,.576-0.43,0.7,0.7,0,0,0,.468-0.61c0-.43-0.468-1.04-1.476-2.12a3.264,3.264,0,0,0-2.556-1.3c-0.612,0-.936.11-0.936,0.32a0.308,0.308,0,0,0,.252.26,1.282,1.282,0,0,1,.684,1.29c0,1.26-1.583,3.89-4.031,6.81-3.06,3.63-6.947,6.91-9.9,8.35a0.36,0.36,0,0,0-.288.28,0.3,0.3,0,0,0,.324.29,16.01,16.01,0,0,0,2.808-.97c2.951-1.26,4.643-2.45,8.531-6.12a4.02,4.02,0,0,1,.216,2.02c0,0.75,0,.75-0.144,4.24Zm44.387-13.71c2.628-.25,4.176-0.32,5.616-0.32a29.751,29.751,0,0,1,4.679.36c0.288,0.03.612,0.07,0.828,0.07a1.023,1.023,0,0,0,1.08-1.01c0-.4-0.4-0.86-1.332-1.58a6.99,6.99,0,0,0-2.664-1.34,3.98,3.98,0,0,0-1.4.62c-1.4.75-2.195,0.93-6.587,1.47,0.108-2.84.216-4.86,0.288-5.51a2,2,0,0,1,.288-0.75,0.893,0.893,0,0,0,.144-0.4c0-.79-2.807-2.63-4.031-2.63-0.9,0-2.556.69-2.556,1.08,0,0.11.108,0.15,0.468,0.22,1.584,0.32,2.088,1.87,2.088,6.26,0,0.51-.036,1.08-0.072,2.2-7.055.76-8.063,0.86-9.5,0.86-1.8,0-2.88-.28-3.348-0.9a0.387,0.387,0,0,0-.324-0.25,0.266,0.266,0,0,0-.288.29c0,1.84,1.944,3.96,3.6,3.96a7.7,7.7,0,0,0,2.3-.58,35.375,35.375,0,0,1,7.415-1.72c-0.828,8.02-4.212,14.07-9.467,16.66-0.54.29-.648,0.36-0.648,0.54a0.242,0.242,0,0,0,.252.22,18.046,18.046,0,0,0,4.5-1.69,16.225,16.225,0,0,0,6.48-7.17C952.059,2835.06,952.563,2833.08,953.1,2828.58Zm49.9,1.01a28.25,28.25,0,0,1-5.725,1.22c-2.484.29-11.447,0.83-14.182,0.83-2.88,0-4.068-.32-4.608-1.22a0.519,0.519,0,0,0-.36-0.36c-0.36,0-.54.36-0.54,1a3.354,3.354,0,0,0,1.3,2.92,6.528,6.528,0,0,0,3.1,1.19,1.465,1.465,0,0,0,.5-0.11c2.7-1.08,8.027-1.59,17.026-1.59,1.333,0,2.413.04,3.163,0.11,1.55,0.15,2.7.25,3.03,0.25,1.11,0,1.83-.46,1.83-1.18C1007.53,2831.24,1006.02,2830.2,1003,2829.59Zm40.97-3.39c1.33-.93,1.65-1.22,1.65-1.51a2.8,2.8,0,0,0-1.26-1.26c-2.05-1.44-2.63-1.76-3.06-1.76a2.193,2.193,0,0,0-1.22.5,10.394,10.394,0,0,1-4.28,1.44,83.26,83.26,0,0,1-9.22,1.12,3.3,3.3,0,0,1-2.74-1.05,0.493,0.493,0,0,0-.28-0.25,0.427,0.427,0,0,0-.29.51,3.455,3.455,0,0,0,1.22,2.91,4.73,4.73,0,0,0,2.16,1.05,1.146,1.146,0,0,0,.61-0.26,15.4,15.4,0,0,1,4.32-1.51,45.251,45.251,0,0,1,7.13-1.22c0.79,0,1.12.21,1.12,0.79a10.94,10.94,0,0,1-.69,2.74,23.116,23.116,0,0,1-4.96,8.56,26.724,26.724,0,0,1-11.77,8.1,0.352,0.352,0,0,0-.33.29,0.3,0.3,0,0,0,.33.25c1.94,0,6.87-1.87,9.89-3.74C1037.34,2838.77,1040.69,2834.23,1043.97,2826.2Zm3.13-11.23a3.62,3.62,0,1,0,3.56,3.6A3.626,3.626,0,0,0,1047.1,2814.97Zm-0.04,1.37a2.23,2.23,0,1,1-2.23,2.2A2.213,2.213,0,0,1,1047.06,2816.34Zm23.91,19.29c0.03-4.71.43-8.53,0.93-9.32a1.484,1.484,0,0,0,.29-0.9c0-.47-0.47-1.04-1.73-1.98a4.849,4.849,0,0,0-2.7-1.15,11.556,11.556,0,0,0-2.16.43,0.419,0.419,0,0,0-.36.33c0,0.18.11,0.25,0.54,0.28,1.66,0.29,2.24,1.7,2.24,5.33,0,0.51,0,2.49.03,5.9v2.49a6.665,6.665,0,0,1-.39,2.77,1.8,1.8,0,0,0-.33.83c0,0.79,2.41,3.17,3.24,3.17a0.642,0.642,0,0,0,.51-0.33,8.052,8.052,0,0,1,3.09-2.3,42.954,42.954,0,0,0,7.06-4.68,35.6,35.6,0,0,0,8.6-9.43,20.876,20.876,0,0,0,1.62-3.06,0.382,0.382,0,0,0-.32-0.33,0.492,0.492,0,0,0-.36.29,46.524,46.524,0,0,1-8.07,8.21c-3.85,3.17-9.72,6.59-11.3,6.59-0.32,0-.43-0.11-0.43-0.47v-2.67Zm57.31-6.04a28.319,28.319,0,0,1-5.72,1.22c-2.49.29-11.45,0.83-14.19,0.83-2.88,0-4.06-.32-4.6-1.22a0.532,0.532,0,0,0-.36-0.36c-0.36,0-.54.36-0.54,1a3.365,3.365,0,0,0,1.29,2.92,6.574,6.574,0,0,0,3.1,1.19,1.464,1.464,0,0,0,.5-0.11c2.7-1.08,8.03-1.59,17.03-1.59,1.33,0,2.41.04,3.16,0.11,1.55,0.15,2.7.25,3.03,0.25,1.11,0,1.83-.46,1.83-1.18C1132.81,2831.24,1131.3,2830.2,1128.28,2829.59Zm30.85,4.93-0.03-2.95-0.08-3.28a12.721,12.721,0,0,1,5.65,4.82,10.165,10.165,0,0,0,1.16,1.7,2.151,2.151,0,0,0,1.65.75,1.832,1.832,0,0,0,1.91-1.91c0-1.29-1.19-2.84-2.99-3.99-1.98-1.26-3.96-1.8-7.34-2.09a26.52,26.52,0,0,1,.5-5.87,3.691,3.691,0,0,0,.51-1.4,3.436,3.436,0,0,0-.97-1.66,3.837,3.837,0,0,0-2.6-1.51c-1.04,0-3.2,1.01-3.2,1.48a0.24,0.24,0,0,0,.29.25c1.73,0,2.09.47,2.27,2.7,0.07,1.01.25,7.99,0.25,10.4a90.367,90.367,0,0,1-.51,9.58,10.691,10.691,0,0,0-.36,2.01c0,1.34,1.59,3.6,2.56,3.6,0.9,0,1.62-1.4,1.62-3.24,0-.46-0.04-1.69-0.14-3.16-0.04-.44-0.08-1.62-0.08-2.88Z" transform="translate(-520.25 -2814.97)"/>
</svg>
