<svg xmlns="http://www.w3.org/2000/svg" width="131.47" height="11.75" viewBox="0 0 131.47 11.75">
  <defs>
    <style>
      .cls-1 {
        fill: #00a040;
        fill-rule: evenodd;
      }
    </style>
  </defs>
  <path id="_-_Café_ou_Thé-_" data-name="- Café ou Thé- " class="cls-1" d="M1009.18,2664.08l0.16-.89h-3.72l-0.16.89h3.72Zm19.01-.39a9.64,9.64,0,0,1-1.27,1.77,3.872,3.872,0,0,1-2.87,1.35c-2.27,0-3.26-1.77-2.72-4.83,0.55-3.15,2.34-5.33,4.38-5.33a2.629,2.629,0,0,1,2.14,1.13,4.137,4.137,0,0,1,.68,2.47h0.52l0.59-4.17h-0.41l-0.92.89a4,4,0,0,0-2.73-.95,6.006,6.006,0,0,0-4.01,1.56,6.619,6.619,0,0,0-2.35,4.07c-0.61,3.48,1.16,5.89,4.32,5.89,2.07,0,3.67-1.14,5.09-3.63Zm10.54,1.51-0.05.26c-0.18.87-.38,1.17-0.8,1.17-0.32,0-.36-0.18-0.24-0.87l0.68-3.87c0.25-1.44-.51-2.12-2.42-2.12-1.75,0-3.07.77-3.27,1.91a0.85,0.85,0,0,0,.86,1.05,1.09,1.09,0,0,0,1.06-.89,0.652,0.652,0,0,0-.65-0.81,1.922,1.922,0,0,1,1.63-.73c1.09,0,1.48.52,1.26,1.74l-0.14.82a10.286,10.286,0,0,0-2.88.6,2.841,2.841,0,0,0-2.1,2.15c-0.21,1.15.53,1.89,1.88,1.89a4.384,4.384,0,0,0,2.47-.87,0.976,0.976,0,0,0,1.16.91,1.75,1.75,0,0,0,1.65-.97,4.167,4.167,0,0,0,.39-1.37h-0.49Zm-2.65.87a3.057,3.057,0,0,1-1.67.66,1.061,1.061,0,0,1-1.1-1.36,2.353,2.353,0,0,1,1.56-1.7,5.336,5.336,0,0,1,1.7-.34Zm6.97-5.56h1.59l-0.95,5.38a1.1,1.1,0,0,1-1.3,1.02h-0.3l-0.08.41h4.76l0.07-.41h-0.25c-1.21-.03-1.51-0.21-1.44-0.85l0.97-5.55h2.06l0.09-.54h-2.05l0.25-1.46a3.442,3.442,0,0,1,.55-1.63,1.554,1.554,0,0,1,1.23-.59,0.791,0.791,0,0,1,.44.12,0.928,0.928,0,0,0-.61.74,0.713,0.713,0,0,0,.73.9,1.118,1.118,0,0,0,1.08-.95c0.13-.76-0.47-1.26-1.54-1.26a3.306,3.306,0,0,0-3.34,2.58l-0.28,1.55h-1.59Zm14.73,4.32c-1.08,1.32-1.83,1.8-2.8,1.8-1.46,0-2.11-1.1-1.78-2.96h5.15c0.04-.16.06-0.3,0.08-0.39a3.525,3.525,0,0,0-.35-2.29,2.473,2.473,0,0,0-2.29-1.22,4.511,4.511,0,0,0-4.35,3.83c-0.39,2.23.86,3.93,2.9,3.93a3.849,3.849,0,0,0,2.14-.69,6.486,6.486,0,0,0,1.71-1.74Zm-4.48-1.64a6.838,6.838,0,0,1,.49-1.5,2.073,2.073,0,0,1,1.78-1.41,1.018,1.018,0,0,1,.94.54,3.442,3.442,0,0,1,.23,2,3.218,3.218,0,0,1-.08.37h-3.36Zm0.49-4.42,0.19,0.33,3.4-1.55a0.874,0.874,0,0,0,.51-0.66,0.623,0.623,0,0,0-.66-0.76,0.9,0.9,0,0,0-.53.16Zm18.41,0.99a4.524,4.524,0,0,0-4.31,3.88c-0.39,2.24.8,3.9,2.81,3.9a4.494,4.494,0,0,0,4.3-3.87C1075.4,2661.35,1074.27,2659.76,1072.2,2659.76Zm-0.1.51a1.345,1.345,0,0,1,1.24.72,4.941,4.941,0,0,1-.03,2.61c-0.41,2.34-1.18,3.4-2.49,3.4-1.2,0-1.58-1.08-1.18-3.33C1070.05,2661.35,1070.82,2660.27,1072.1,2660.27Zm11.39,0.06h0.39c0.88,0.01,1.04.28,0.87,1.38l-0.69,3.87a3.428,3.428,0,0,1-2.33,1.18c-0.81,0-1.11-.52-0.92-1.6l0.98-5.57a10.684,10.684,0,0,1-2.99.36l-0.07.41a1.937,1.937,0,0,1,.29-0.02c0.81,0,1.1.32,0.97,1.04l-0.75,4.26a1.5,1.5,0,0,0,1.62,1.95,4.984,4.984,0,0,0,3.07-1.25l-0.21,1.19a15.483,15.483,0,0,1,2.99-.29l0.07-.37h-0.3c-0.94-.02-1.08-0.21-0.88-1.4l1.03-5.88a13.317,13.317,0,0,1-3.07.33Zm13.74,0.01h0.46a10.943,10.943,0,0,1,1.05-2.11,2.992,2.992,0,0,1,2.51-1.5,1.1,1.1,0,0,1,.8.24,1.265,1.265,0,0,1,.02,1.05l-1.26,7.2c-0.26,1.39-.57,1.66-1.86,1.69h-0.35l-0.07.41h5.57l0.07-.41h-0.35c-1.21.02-1.51-.33-1.27-1.44l1.25-7.11c0.18-1.05.21-1.14,0.46-1.35a1.35,1.35,0,0,1,.92-0.28,1.755,1.755,0,0,1,1.72.96,6.8,6.8,0,0,1,.5,2.65h0.46l0.54-4.06h-10.23Zm12.64,6.98h3.96l0.07-.41h-0.3c-0.63,0-.79-0.28-0.64-1.05l0.66-3.75a5.563,5.563,0,0,1,1.01-.96,2.865,2.865,0,0,1,1.5-.51c0.77,0,1.08.54,0.9,1.55l-0.67,3.79a0.951,0.951,0,0,1-1.06.93h-0.29l-0.07.41h3.99l0.07-.41h-0.19c-0.77.03-1.02-.25-0.91-1.05l0.71-4.05a2.234,2.234,0,0,0-.16-1.27,1.656,1.656,0,0,0-1.55-.69,4.341,4.341,0,0,0-1.94.52,5.051,5.051,0,0,0-1.19.93l0.94-5.37a8.011,8.011,0,0,1-3.01.47l-0.07.4c1.12-.03,1.34.17,1.23,1.04l-1.31,7.47c-0.26,1.36-.41,1.56-1.29,1.6h-0.32Zm19.24-2.49c-1.09,1.32-1.84,1.8-2.81,1.8-1.46,0-2.1-1.1-1.78-2.96h5.15a3.383,3.383,0,0,0,.08-0.39,3.587,3.587,0,0,0-.34-2.29,2.484,2.484,0,0,0-2.29-1.22,4.5,4.5,0,0,0-4.35,3.83c-0.4,2.23.85,3.93,2.89,3.93a3.9,3.9,0,0,0,2.15-.69,6.483,6.483,0,0,0,1.7-1.74Zm-4.49-1.64a8.188,8.188,0,0,1,.49-1.5,2.084,2.084,0,0,1,1.78-1.41,1.018,1.018,0,0,1,.94.54,3.287,3.287,0,0,1,.23,2,1.925,1.925,0,0,1-.08.37h-3.36Zm0.5-4.42,0.18,0.33,3.41-1.55a0.884,0.884,0,0,0,.5-0.66,0.623,0.623,0,0,0-.66-0.76,0.869,0.869,0,0,0-.52.16Zm11.68,5.31,0.15-.89h-3.72l-0.15.89h3.72Z" transform="translate(-1005.47 -2655.84)"/>
</svg>
