<svg xmlns="http://www.w3.org/2000/svg" width="1136.882" height="55.44" viewBox="0 0 568.441 27.72">
  <defs>
    <style>
      .cls-1 {
        fill: #333;
        fill-rule: evenodd;
      }
    </style>
  </defs>
  <path id="お子さまプレート_スープ_デザート_ジュース付き_" data-name="お子さまプレート（スープ・デザート・ジュース付き） " class="cls-1" d="M641.515,3530.08c3.66-2.28,5.52-3.03,7.44-3.03,1.83,0,3.03,1.35,3.03,3.39a4.643,4.643,0,0,1-4.56,4.68,2.442,2.442,0,0,1-2.46-2.73,5.181,5.181,0,0,1,.48-2.04,0.763,0.763,0,0,0,.06-0.21,0.162,0.162,0,0,0-.12-0.15c-0.63,0-1.62,2.04-1.62,3.33a5.779,5.779,0,0,0,.63,2.61,3.611,3.611,0,0,0,3.42,1.65,6.993,6.993,0,0,0,7.08-6.87c0-2.94-2.13-4.89-5.25-4.89-2.34,0-4.59.75-8.16,2.67v-1.38c0-.81.03-1.41,0.06-2.22,3.3-1.26,4.98-2.55,4.98-3.84a0.763,0.763,0,0,0-.72-0.84,3.435,3.435,0,0,0-.45.03h-0.21a9,9,0,0,1-3.36-.93,3.557,3.557,0,0,1,.36-1.26,0.906,0.906,0,0,0,.15-0.39c0-.81-1.68-1.92-2.85-1.92-0.809,0-2.039.63-2.039,1.05a0.225,0.225,0,0,0,.21.18h0.06a0.546,0.546,0,0,1,.33-0.09c0.9,0,1.319.69,1.5,2.55,0.18,1.98.24,2.91,0.24,3.78a11.562,11.562,0,0,1-3.569.6c-1.23,0-1.86-.27-2.1-0.9a0.153,0.153,0,0,0-.15-0.12c-0.15,0-.21.21-0.21,0.69a2.4,2.4,0,0,0,2.67,2.37,14.732,14.732,0,0,0,3.449-.51c0.09,1.2.09,1.83,0.09,3.87-1.349.69-2.4,1.26-4.589,2.4-1.8.99-1.8,0.99-2.19,0.99a0.632,0.632,0,0,1-.39-0.15,0.7,0.7,0,0,0-.54-0.27,1.128,1.128,0,0,0-.99,1.23c0,1.2,1.41,2.94,2.4,2.94,0.36,0,.48-0.09,1.65-1.38,0.57-.6.6-0.66,0.96-1.05a4.849,4.849,0,0,1,2.46,4.14c0,0.69.09,0.84,0.539,0.84a3.029,3.029,0,0,0,2.7-2.61,1.615,1.615,0,0,0-.03-0.33c-0.15-1.71-.18-2.43-0.36-5.49Zm-1.47,4.02c0,0.6-.15.99-0.42,0.99a14.111,14.111,0,0,1-2.879-1.71c1.14-.93,1.71-1.38,3.3-2.49-0.03.81-.03,1.11-0.03,1.62Zm1.62-14.16c0.51,0.24,1.08.54,1.74,0.87,0.15,0.06.18,0.09,0.18,0.21,0,0.51-.78,1.14-1.98,1.62l0.03-1.35Zm12.09,0.27a6.838,6.838,0,0,0-3.96,1.23,0.935,0.935,0,0,0-.51.51,0.152,0.152,0,0,0,.15.18,1.169,1.169,0,0,0,.36-0.09,4.391,4.391,0,0,1,1.44-.24,5.322,5.322,0,0,1,2.85.9,5.388,5.388,0,0,1,1.68,1.89,1.515,1.515,0,0,0,.45.9,1.4,1.4,0,0,0,.87.36,2.053,2.053,0,0,0,1.77-2.04C658.855,3521.8,656.605,3520.21,653.755,3520.21Zm34.35,7.47h-7.68v-4.17l0.45-.36a0.586,0.586,0,0,0,.21-0.45,0.691,0.691,0,0,0-.09-0.27c0.78-.51.84-0.54,1.62-1.02,0.45-.3.9-0.57,1.35-0.84,1.05-.66,1.53-0.93,3.06-1.92l1.08-.06a0.579,0.579,0,0,0,.66-0.57,0.849,0.849,0,0,0-.27-0.6l-2.61-2.58-1.38,1.53h-9.84c-1.769,0-2.639-.03-5.219-0.15l0.66,1.08c2.19-.09,3-0.12,4.559-0.12h9.48a45.606,45.606,0,0,1-4.08,4.8l-2.4-.54v6.24h-6.389c-1.62,0-2.85-.03-5.91-0.18l0.63,1.14c2.55-.12,3.12-0.15,5.28-0.15h6.389v7.98c0,0.78-.12.9-0.99,0.9-0.27,0-2.28-.09-2.939-0.15-0.48-.03-0.99-0.06-1.17-0.06a0.269,0.269,0,0,0-.33.24c0,0.24.21,0.33,2.549,0.99,1.95,0.54,2.13.66,2.19,1.38a2.307,2.307,0,0,0,.09.69,0.462,0.462,0,0,0,.45.3,5.381,5.381,0,0,0,1.74-.63,1.825,1.825,0,0,0,1.17-1.95v-9.69h12.45a0.347,0.347,0,0,0,.36-0.36,0.788,0.788,0,0,0-.21-0.42l-2.7-2.37Zm23.4-11.55a1.683,1.683,0,0,0,.3.06,0.18,0.18,0,0,0,.21-0.15c0-.39-2.07-1.47-2.88-1.47a2.6,2.6,0,0,0-2.46,2.25c0,0.51.12,0.66,1.23,1.41a13.59,13.59,0,0,1,3.45,3.21,18.164,18.164,0,0,1-5.73.96c-2.1,0-3.269-.39-4.229-1.41a0.165,0.165,0,0,0-.15-0.09,0.134,0.134,0,0,0-.09.12,3.992,3.992,0,0,0,.39,1.08,4.85,4.85,0,0,0,4.649,2.64,20.386,20.386,0,0,0,6.75-1.38c2.46,3.33,3.57,5.52,3.57,7.02a0.221,0.221,0,0,1-.24.24,1.458,1.458,0,0,1-.51-0.18,12.519,12.519,0,0,0-6.09-1.47c-3.75,0-6.3,2.07-6.3,5.1a5.163,5.163,0,0,0,2.489,4.32,13.406,13.406,0,0,0,6.39,1.47c2.04,0,3.6-.63,3.6-1.44a2.135,2.135,0,0,0-1.83-1.89,3.3,3.3,0,0,0-.75.12,4.936,4.936,0,0,1-1.59.18c-3.96,0-6.209-1.14-6.209-3.18,0-2.31,1.529-3.75,4.079-3.75a9.7,9.7,0,0,1,3.81.99,16.717,16.717,0,0,1,3.72,2.61,1.167,1.167,0,0,0,1.02.45q1.98,0,1.98-2.79c0-1.92-1.29-3.87-5.58-8.49,2.7-1.17,4.92-2.97,4.92-3.99a1.185,1.185,0,0,0-1.2-1.08,1.033,1.033,0,0,0-.27.03c-0.72.06-.72,0.06-0.84,0.06a8.139,8.139,0,0,1-2.1-.42,0.227,0.227,0,0,0-.12-0.03,0.129,0.129,0,0,0-.12.12,0.308,0.308,0,0,0,.21.24,1.885,1.885,0,0,1,.81.84c0,0.63-1.14,1.62-2.73,2.4-1.08-1.26-1.56-1.83-2.61-3.06a1.184,1.184,0,0,1-.42-0.78,1.105,1.105,0,0,1,1.26-.87h0.21Zm30.24,10.68a32.081,32.081,0,0,1-3.78.3c-2.369,0-3.929-.57-4.529-1.68-0.24-.39-0.24-0.42-0.39-0.42a0.162,0.162,0,0,0-.15.12v0.03a0.452,0.452,0,0,1,.03.24,5.025,5.025,0,0,0,.96,2.22c0.84,1.02,2.1,1.5,4.109,1.5a26.157,26.157,0,0,0,3.78-.33c0,0.87,0,.99.03,2.31l0.03,1.8a10.131,10.131,0,0,0-1.47-.09,9.4,9.4,0,0,0-4.829.9,2.738,2.738,0,0,0-1.56,2.4c0,1.98,2.22,3.36,5.429,3.36,2.94,0,5.22-1.47,5.22-3.39v-0.42a15.093,15.093,0,0,1,3.39,2.88,1.565,1.565,0,0,0,1.29.69,1.208,1.208,0,0,0,1.26-1.35c0-.9-0.57-1.71-1.83-2.61a12.257,12.257,0,0,0-4.26-1.92c-0.33-2.1-.42-2.94-0.57-4.92,4.53-1.02,6.72-2.07,6.72-3.24a0.992,0.992,0,0,0-.9-0.9l-0.39.03a3.985,3.985,0,0,1-1.92-.66,2.421,2.421,0,0,0-.57-0.42,0.193,0.193,0,0,0-.15.15,0.359,0.359,0,0,0,.12.24,1.887,1.887,0,0,1,.3.87c0,0.84-.69,1.23-3.42,1.92a11.446,11.446,0,0,1-.09-1.65c0-1.02.03-1.47,0.09-2.28,2.49-.6,3.6-1.11,3.6-1.62,0-.57-0.87-1.17-2.13-1.44a1.654,1.654,0,0,1-1.32.81,7.516,7.516,0,0,1,.78-3.45,1.339,1.339,0,0,0,.21-0.6c0-1.05-1.74-2.19-3.33-2.19a2.948,2.948,0,0,0-1.92.63c0,0.09.09,0.12,0.27,0.12a1.649,1.649,0,0,1,1.32,1.23c0.24,0.57.27,1.14,0.36,4.71a4.228,4.228,0,0,1-1.32.18c-1.38,0-2.79-.63-3.15-1.44a0.153,0.153,0,0,0-.15-0.12,0.18,0.18,0,0,0-.15.21c0,2.22,1.23,3.42,3.54,3.42,0.3,0,.51,0,1.38-0.06Zm0.18,8.01c0,1.83-.96,2.76-2.88,2.76-2.01,0-3.269-.69-3.269-1.77,0-1.11.9-1.59,3.029-1.59a10.737,10.737,0,0,1,3.12.42v0.18Zm40.38-12.42c1.11-.78,1.38-1.02,1.38-1.26a2.319,2.319,0,0,0-1.05-1.05c-1.71-1.2-2.19-1.47-2.55-1.47a1.827,1.827,0,0,0-1.02.42,8.71,8.71,0,0,1-3.57,1.2,70.4,70.4,0,0,1-7.679.93,2.74,2.74,0,0,1-2.28-.87,0.426,0.426,0,0,0-.24-0.21,0.35,0.35,0,0,0-.24.42,2.887,2.887,0,0,0,1.02,2.43,3.925,3.925,0,0,0,1.8.87,0.957,0.957,0,0,0,.51-0.21,12.633,12.633,0,0,1,3.6-1.26,37.317,37.317,0,0,1,5.94-1.02c0.66,0,.93.18,0.93,0.66a9.055,9.055,0,0,1-.57,2.28,19.189,19.189,0,0,1-4.14,7.14,22.212,22.212,0,0,1-9.809,6.75,0.287,0.287,0,0,0-.27.24,0.242,0.242,0,0,0,.27.21c1.62,0,5.729-1.56,8.249-3.12C776.785,3532.87,779.575,3529.09,782.305,3522.4Zm2.61-9.36a3.015,3.015,0,1,0,2.97,3A3.022,3.022,0,0,0,784.915,3513.04Zm-0.03,1.14a1.86,1.86,0,1,1-1.86,1.83A1.844,1.844,0,0,1,784.885,3514.18Zm17.52,16.08c0.03-3.93.36-7.11,0.78-7.77a1.254,1.254,0,0,0,.24-0.75c0-.39-0.39-0.87-1.44-1.65a4.034,4.034,0,0,0-2.249-.96,9.518,9.518,0,0,0-1.8.36,0.347,0.347,0,0,0-.3.27c0,0.15.09,0.21,0.45,0.24,1.38,0.24,1.86,1.41,1.86,4.44,0,0.42,0,2.07.03,4.92v2.07a5.422,5.422,0,0,1-.33,2.31,1.547,1.547,0,0,0-.27.69c0,0.66,2.009,2.64,2.7,2.64a0.522,0.522,0,0,0,.42-0.27,6.784,6.784,0,0,1,2.58-1.92,35.662,35.662,0,0,0,5.88-3.9,29.686,29.686,0,0,0,7.17-7.86,17.064,17.064,0,0,0,1.35-2.55,0.318,0.318,0,0,0-.27-0.27,0.4,0.4,0,0,0-.3.24,38.377,38.377,0,0,1-6.72,6.84c-3.21,2.64-8.1,5.49-9.42,5.49-0.27,0-.36-0.09-0.36-0.39v-2.22Zm47.16-5.04a23.72,23.72,0,0,1-4.77,1.02c-2.07.24-9.54,0.69-11.819,0.69-2.4,0-3.39-.27-3.84-1.02a0.436,0.436,0,0,0-.3-0.3c-0.3,0-.45.3-0.45,0.84a2.8,2.8,0,0,0,1.08,2.43,5.386,5.386,0,0,0,2.58.99,1.178,1.178,0,0,0,.42-0.09c2.25-.9,6.689-1.32,14.189-1.32,1.11,0,2.01.03,2.64,0.09,1.29,0.12,2.25.21,2.52,0.21,0.93,0,1.53-.39,1.53-0.99C853.345,3526.6,852.085,3525.73,849.565,3525.22Zm20.31,4.11-0.03-2.46-0.06-2.73a10.568,10.568,0,0,1,4.71,4.02,8.348,8.348,0,0,0,.96,1.41,1.809,1.809,0,0,0,1.38.63,1.528,1.528,0,0,0,1.59-1.59c0-1.08-.99-2.37-2.49-3.33a12.349,12.349,0,0,0-6.12-1.74,21.588,21.588,0,0,1,.42-4.89,3.031,3.031,0,0,0,.42-1.17,2.85,2.85,0,0,0-.81-1.38,3.186,3.186,0,0,0-2.16-1.26c-0.87,0-2.67.84-2.67,1.23a0.2,0.2,0,0,0,.24.21c1.44,0,1.74.39,1.89,2.25,0.06,0.84.21,6.66,0.21,8.67a76.475,76.475,0,0,1-.42,7.98,8.929,8.929,0,0,0-.3,1.68c0,1.11,1.32,3,2.13,3,0.75,0,1.35-1.17,1.35-2.7,0-.39-0.03-1.41-0.12-2.64-0.03-.36-0.06-1.35-0.06-2.4Zm25.7,7.1a12.823,12.823,0,0,1,.12-16.86l-0.54-.66a15.162,15.162,0,0,0-2.421,2.84,11.4,11.4,0,0,0-1.84,6.24,11.623,11.623,0,0,0,1.44,5.62,10.17,10.17,0,0,0,2.781,3.4Zm12.118-13.24a13.24,13.24,0,0,1-2.941.48,1.48,1.48,0,0,1-1.22-.44c-0.1-.18-0.1-0.18-0.18-0.18a0.775,0.775,0,0,0-.22.64,1.349,1.349,0,0,0,.48.94,2.531,2.531,0,0,0,1.12.64,1.827,1.827,0,0,0,.6-0.2,26.762,26.762,0,0,1,3.541-1.26,2.336,2.336,0,0,1,.8-0.18,0.272,0.272,0,0,1,.32.26,5.578,5.578,0,0,1-.48,1.38,19.908,19.908,0,0,1-2.38,4.2,17.785,17.785,0,0,1-6.442,5.46,0.934,0.934,0,0,0-.66.42,0.162,0.162,0,0,0,.18.14,4.491,4.491,0,0,0,.981-0.24,15.844,15.844,0,0,0,5.3-2.9,17.928,17.928,0,0,0,2.94-3.2,9.287,9.287,0,0,1,3.621,4.42c0.38,0.92.6,1.16,1.08,1.16a1.257,1.257,0,0,0,1.221-1.24,4.232,4.232,0,0,0-1.861-2.98,9.059,9.059,0,0,0-3.8-1.78,33.919,33.919,0,0,0,2.581-4.48,1,1,0,0,0,.64-0.62,1.1,1.1,0,0,0-.56-0.68,3.759,3.759,0,0,0-1.46-.92,1.26,1.26,0,0,0-.7.38,2.3,2.3,0,0,1-1.26.54Zm26.921,3.62a15.813,15.813,0,0,1-3.18.68c-1.381.16-6.362,0.46-7.882,0.46-1.6,0-2.261-.18-2.561-0.68a0.291,0.291,0,0,0-.2-0.2c-0.2,0-.3.2-0.3,0.56a1.866,1.866,0,0,0,.72,1.62,3.6,3.6,0,0,0,1.721.66,0.785,0.785,0,0,0,.28-0.06c1.5-.6,4.461-0.88,9.462-0.88,0.74,0,1.34.02,1.76,0.06,0.86,0.08,1.5.14,1.681,0.14a0.84,0.84,0,0,0,1.02-.66C937.13,3527.73,936.29,3527.15,934.609,3526.81Zm20.76-1.88a1.787,1.787,0,0,0,.92-0.84,1.546,1.546,0,0,0-.7-0.7,4.267,4.267,0,0,0-1.7-.98,1.218,1.218,0,0,0-.68.28,5.806,5.806,0,0,1-2.381.8,46.939,46.939,0,0,1-5.121.62,1.827,1.827,0,0,1-1.52-.58,0.284,0.284,0,0,0-.16-0.14,0.233,0.233,0,0,0-.16.28,1.925,1.925,0,0,0,.68,1.62,2.617,2.617,0,0,0,1.2.58,0.638,0.638,0,0,0,.34-0.14,8.445,8.445,0,0,1,2.4-.84,24.867,24.867,0,0,1,3.961-.68c0.44,0,.62.12,0.62,0.44a6.037,6.037,0,0,1-.38,1.52,12.8,12.8,0,0,1-2.761,4.76,14.812,14.812,0,0,1-6.541,4.5,0.192,0.192,0,0,0-.18.16,0.162,0.162,0,0,0,.18.14,15.1,15.1,0,0,0,5.5-2.08C951.688,3531.91,953.549,3529.39,955.369,3524.93Zm1.741-6.24a2.01,2.01,0,1,0,1.98,2A2.015,2.015,0,0,0,957.11,3518.69Zm-0.02.76a1.24,1.24,0,1,1-1.241,1.22A1.229,1.229,0,0,1,957.09,3519.45Zm10.458,6.26a2.28,2.28,0,1,0,2.241,2.28A2.284,2.284,0,0,0,967.548,3525.71Zm25-6.68c-0.62,0-.92.06-0.92,0.2a0.133,0.133,0,0,0,.14.12,3.1,3.1,0,0,1,1.8,1.38c0.38,0.62.44,0.68,0.8,0.68a0.812,0.812,0,0,0,.84-0.8C995.21,3519.79,993.93,3519.03,992.549,3519.03Zm-2.06,1.52c-0.48,0-.66.04-0.66,0.18a0.148,0.148,0,0,0,.1.12,2.943,2.943,0,0,1,1.7,1.52c0.24,0.5.36,0.6,0.72,0.6a0.751,0.751,0,0,0,.8-0.78C993.15,3521.33,991.889,3520.55,990.489,3520.55Zm-9.122,1.56a0.174,0.174,0,0,0-.12.16,2.776,2.776,0,0,0,.56,1.08,1.616,1.616,0,0,0,1.28.58,28.11,28.11,0,0,0,4.982-.82c1.08-.24,1.48-0.42,1.48-0.7a1.035,1.035,0,0,0-.62-0.74,3.225,3.225,0,0,0-1.041-.36,0.985,0.985,0,0,0-.36.1,8.277,8.277,0,0,1-1.22.5,12.982,12.982,0,0,1-3.581.66,1.985,1.985,0,0,1-1.3-.42A0.106,0.106,0,0,0,981.367,3522.11Zm4.161,4.58a0.823,0.823,0,0,1,.16.5,10.327,10.327,0,0,1-1.6,4.48,11.931,11.931,0,0,1-3.941,3.94c-0.96.5-.96,0.5-0.96,0.58a0.13,0.13,0,0,0,.16.12,14.223,14.223,0,0,0,2.92-1.16,12.759,12.759,0,0,0,5.561-7.2,0.742,0.742,0,0,0,.3-0.46c0-.16-0.181-0.34-0.981-0.94,1.281-.1,1.561-0.12,2.041-0.12a20.775,20.775,0,0,1,2.72.22,3.164,3.164,0,0,0,.52.06,0.668,0.668,0,0,0,.741-0.58,1.189,1.189,0,0,0-.821-0.94,3.528,3.528,0,0,0-1.36-.62,7,7,0,0,1-3.061.92c-1.62.24-7.161,0.82-7.861,0.82a1.6,1.6,0,0,1-1.561-.64,0.412,0.412,0,0,0-.2.38,1.383,1.383,0,0,0,.5,1,3.151,3.151,0,0,0,1.52.78,1.1,1.1,0,0,0,.32-0.06A19.319,19.319,0,0,1,985.528,3526.69Zm28.962-7.76c-0.64,0-.94.06-0.94,0.2a0.148,0.148,0,0,0,.14.14,3.271,3.271,0,0,1,1.86,1.42c0.34,0.58.42,0.64,0.76,0.64a0.812,0.812,0,0,0,.84-0.8C1017.15,3519.69,1015.89,3518.93,1014.49,3518.93Zm-1.98,1.56c-0.5,0-.72.06-0.72,0.18,0,0.08.04,0.12,0.18,0.16a3.407,3.407,0,0,1,1.8,1.74,0.559,0.559,0,0,0,.6.38,0.757,0.757,0,0,0,.8-0.76C1015.17,3521.31,1013.87,3520.49,1012.51,3520.49Zm-1.22,5.84c0.42-.02.72-0.02,0.78-0.02,0.58,0,1.96.1,2.56,0.18a6.587,6.587,0,0,0,.76.06,0.577,0.577,0,0,0,.64-0.52c0-.6-1.1-1.4-2.22-1.6a8.388,8.388,0,0,1-3.12.9c-0.02-.34-0.02-0.7-0.02-0.8a6.506,6.506,0,0,1,.28-2.4,0.944,0.944,0,0,0,.1-0.28,1.377,1.377,0,0,0-.44-0.6,2.685,2.685,0,0,0-1.86-.82,1.211,1.211,0,0,0-1.04.38,0.126,0.126,0,0,0,.1.1c0.92,0.3.96,0.4,1.02,3.34,0.02,0.16.04,0.74,0.06,1.3l-1.62.18c-0.44.06-.64,0.08-1.22,0.12-0.02-.24-0.02-0.46-0.02-0.54l-0.02-.42v-1.24a2.283,2.283,0,0,1,.04-0.54,1.306,1.306,0,0,0,.04-0.22c0-.46-1.26-1.18-2.1-1.18a2.237,2.237,0,0,0-.64.16l-0.3.1a0.442,0.442,0,0,0-.32.26c0,0.06.08,0.1,0.2,0.1,0.96,0.2,1.34.76,1.34,1.94l0.04,0.54c0,0.14,0,.34.02,0.6l0.02,0.62c-1.98.18-2.6,0.22-2.98,0.22a2.852,2.852,0,0,1-1.864-.42,0.2,0.2,0,0,0-.12-0.1c-0.08,0-.12.06-0.12,0.2a1.626,1.626,0,0,0,.4,1.04,2.142,2.142,0,0,0,1.244.86,1.758,1.758,0,0,0,.54-0.14c0.04,0,.34-0.1.88-0.26,0.18-.04.38-0.1,0.62-0.14,0.52-.1.54-0.12,1.42-0.28v0.82a8.736,8.736,0,0,1-.12,1.76c-0.02.14-.04,0.22-0.04,0.28a1.937,1.937,0,0,0,.48.88,1.313,1.313,0,0,0,.9.46,0.633,0.633,0,0,0,.62-0.6c0-.08-0.02-0.24-0.04-0.46-0.02-.02-0.06-0.98-0.06-1.96-0.02-1-.02-1.04-0.04-1.5a22.41,22.41,0,0,1,2.82-.28c0,4.64-1.66,8.02-4.74,9.56-0.72.36-.74,0.38-0.74,0.5a0.2,0.2,0,0,0,.18.14,6.773,6.773,0,0,0,1.56-.52,7.751,7.751,0,0,0,4.7-4.8,16.963,16.963,0,0,0,.78-4.94Zm23.72,0.48a15.813,15.813,0,0,1-3.18.68c-1.38.16-6.36,0.46-7.88,0.46-1.6,0-2.26-.18-2.56-0.68a0.291,0.291,0,0,0-.2-0.2c-0.2,0-.3.2-0.3,0.56a1.866,1.866,0,0,0,.72,1.62,3.591,3.591,0,0,0,1.72.66,0.785,0.785,0,0,0,.28-0.06c1.5-.6,4.46-0.88,9.46-0.88,0.74,0,1.34.02,1.76,0.06,0.86,0.08,1.5.14,1.68,0.14a0.84,0.84,0,0,0,1.02-.66C1037.53,3527.73,1036.69,3527.15,1035.01,3526.81Zm12.74,2.74-0.02-1.64-0.04-1.82a7.045,7.045,0,0,1,3.14,2.68,5.565,5.565,0,0,0,.64.94,1.206,1.206,0,0,0,.92.42,1.019,1.019,0,0,0,1.06-1.06,3.12,3.12,0,0,0-1.66-2.22,8.233,8.233,0,0,0-4.08-1.16,14.392,14.392,0,0,1,.28-3.26,2.021,2.021,0,0,0,.28-0.78,1.9,1.9,0,0,0-.54-0.92,2.124,2.124,0,0,0-1.44-.84,2.7,2.7,0,0,0-1.78.82,0.133,0.133,0,0,0,.16.14c0.96,0,1.16.26,1.26,1.5,0.04,0.56.14,4.44,0.14,5.78a50.983,50.983,0,0,1-.28,5.32,5.953,5.953,0,0,0-.2,1.12c0,0.74.88,2,1.42,2,0.5,0,.9-0.78.9-1.8,0-.26-0.02-0.94-0.08-1.76-0.02-.24-0.04-0.9-0.04-1.6Zm16.2-3.84a2.28,2.28,0,1,0,2.24,2.28A2.284,2.284,0,0,0,1063.95,3525.71Zm23.88-6.76c-0.64,0-.94.06-0.94,0.2,0,0.08.04,0.12,0.16,0.14a3.532,3.532,0,0,1,1.9,1.54c0.28,0.46.34,0.52,0.68,0.52a0.835,0.835,0,0,0,.88-0.8C1090.51,3519.71,1089.21,3518.95,1087.83,3518.95Zm-2.52,1.18c-0.5,0-.7.04-0.7,0.16,0,0.08.04,0.12,0.18,0.16a3.123,3.123,0,0,1,1.66,1.5c0.3,0.54.38,0.62,0.72,0.62a0.773,0.773,0,0,0,.84-0.78C1088.01,3520.93,1086.71,3520.13,1085.31,3520.13Zm-6.82,1.94a2.738,2.738,0,0,0-1.74.36c0,0.06.04,0.1,0.18,0.14a4.63,4.63,0,0,1,2.86,2.24c0.32,0.6.44,0.7,0.86,0.7a1.119,1.119,0,0,0,1.2-1.08C1081.85,3523.17,1080.29,3522.07,1078.49,3522.07Zm-2.42,3.8a1.84,1.84,0,0,0-1.26.26c0,0.06.02,0.08,0.2,0.16a5.086,5.086,0,0,1,2.62,2.4,0.8,0.8,0,0,0,.7.56,1.145,1.145,0,0,0,1.16-1.06C1079.49,3527.01,1077.81,3525.87,1076.07,3525.87Zm-0.1,6.6h-0.02c-0.16-.02-0.28.22-0.28,0.54a2.136,2.136,0,0,0,.76,1.46,3.288,3.288,0,0,0,1.6,1.08,0.8,0.8,0,0,0,.54-0.3,2.762,2.762,0,0,1,.4-0.26,37.684,37.684,0,0,0,6.48-4.88,25.973,25.973,0,0,0,3.84-5.06,6.351,6.351,0,0,0,.82-1.8,0.156,0.156,0,0,0-.12-0.16,0.543,0.543,0,0,0-.36.34,33.026,33.026,0,0,1-7.4,7.22c-2.26,1.58-3.88,2.36-4.92,2.36-0.86,0-1.2-.14-1.32-0.54h-0.02Zm24.34-.22c-0.44.04-.88,0.1-1.3,0.14-0.14,0-1.28.14-2.66,0.3a16.827,16.827,0,0,1-1.68.16,1.905,1.905,0,0,1-1.3-.34c-0.06-.1-0.06-0.1-0.1-0.1a0.6,0.6,0,0,0-.24.6,1,1,0,0,0,.54.7,1.828,1.828,0,0,0,2.36.2,5.687,5.687,0,0,1,1.36-.42,32.74,32.74,0,0,1,4.92-.48,21.388,21.388,0,0,1,3.66.32,3.456,3.456,0,0,0,.58.1,0.536,0.536,0,0,0,.6-0.44,2.554,2.554,0,0,0-1.62-1.52,1,1,0,0,0-.28.06,7.228,7.228,0,0,1-2.24.46c-0.16.02-.64,0.06-1.16,0.12,0.36-1.64.54-2.4,1.02-4a0.969,0.969,0,0,0,.5-0.6,1.219,1.219,0,0,0-.74-0.74,2.57,2.57,0,0,0-1.02-.64,0.655,0.655,0,0,0-.36.16,5.591,5.591,0,0,1-1.18.5,19.221,19.221,0,0,1-3.18.58,1.076,1.076,0,0,1-.88-0.38c-0.14-.24-0.14-0.24-0.22-0.24-0.16,0-.24.14-0.24,0.46a1.31,1.31,0,0,0,.64,1.24,1.172,1.172,0,0,0,.7.26,4.522,4.522,0,0,0,1.44-.46,7.465,7.465,0,0,1,2.28-.7,0.39,0.39,0,0,1,.34.46A36.39,36.39,0,0,1,1100.31,3532.25Zm26.3-5.44a15.813,15.813,0,0,1-3.18.68c-1.38.16-6.36,0.46-7.88,0.46-1.6,0-2.26-.18-2.56-0.68a0.291,0.291,0,0,0-.2-0.2c-0.2,0-.3.2-0.3,0.56a1.866,1.866,0,0,0,.72,1.62,3.591,3.591,0,0,0,1.72.66,0.785,0.785,0,0,0,.28-0.06c1.5-.6,4.46-0.88,9.46-0.88,0.74,0,1.34.02,1.76,0.06,0.86,0.08,1.5.14,1.68,0.14a0.84,0.84,0,0,0,1.02-.66C1129.13,3527.73,1128.29,3527.15,1126.61,3526.81Zm14.28-3.62a13.228,13.228,0,0,1-2.94.48,1.48,1.48,0,0,1-1.22-.44c-0.1-.18-0.1-0.18-0.18-0.18a0.775,0.775,0,0,0-.22.64,1.349,1.349,0,0,0,.48.94,2.531,2.531,0,0,0,1.12.64,1.827,1.827,0,0,0,.6-0.2,26.7,26.7,0,0,1,3.54-1.26,2.336,2.336,0,0,1,.8-0.18,0.272,0.272,0,0,1,.32.26,5.578,5.578,0,0,1-.48,1.38,19.908,19.908,0,0,1-2.38,4.2,17.78,17.78,0,0,1-6.44,5.46,0.934,0.934,0,0,0-.66.42,0.162,0.162,0,0,0,.18.14,4.475,4.475,0,0,0,.98-0.24,15.83,15.83,0,0,0,5.3-2.9,17.928,17.928,0,0,0,2.94-3.2,9.291,9.291,0,0,1,3.62,4.42c0.38,0.92.6,1.16,1.08,1.16a1.256,1.256,0,0,0,1.22-1.24,4.23,4.23,0,0,0-1.86-2.98,9.061,9.061,0,0,0-3.8-1.78,34.038,34.038,0,0,0,2.58-4.48,1,1,0,0,0,.64-0.62,1.1,1.1,0,0,0-.56-0.68,3.759,3.759,0,0,0-1.46-.92,1.255,1.255,0,0,0-.7.38,2.3,2.3,0,0,1-1.26.54Zm29.04,1.26h-0.96v-3.96l0.54-.34a0.441,0.441,0,0,0,.28-0.42,0.384,0.384,0,0,0-.4-0.38l-2.3-.28v5.38h-4.16c-0.26,0-1-.02-1.8-0.04l-1.98-.08a0.78,0.78,0,0,0-.38-0.16l-0.22-.04c0.58-1.46.96-2.46,1.3-3.56l0.56-.2a0.435,0.435,0,0,0,.36-0.4,0.5,0.5,0,0,0-.36-0.48l-2.3-.94c-0.82,5.08-1.9,8.16-3.96,11.44a0.655,0.655,0,0,0-.14.32,0.176,0.176,0,0,0,.18.16c0.28,0,1.54-1.48,2.66-3.1v9.6c0,0.2.08,0.28,0.32,0.28a1.544,1.544,0,0,0,1.42-.64v-11.62l0.3-.14a0.457,0.457,0,0,0,.22-0.22l0.34,0.46c2.76-.1,2.92-0.1,3.48-0.1h4.16v9.14c0,0.54,0,.54-0.78.54h-0.36c-0.46-.02-0.92-0.02-1.08-0.02-1.32,0-1.32,0-1.32.18,0,0.12.08,0.16,0.4,0.26,0.8,0.24,1.74.54,2.22,0.72,0.28,0.12.3,0.16,0.32,0.68,0,0.42.1,0.54,0.4,0.54a2.594,2.594,0,0,0,1.22-.44,1.31,1.31,0,0,0,.86-1.32v-10.28h3.88a0.267,0.267,0,0,0,.22-0.28,0.458,0.458,0,0,0-.16-0.34l-1.66-1.54Zm-8.74,2.3a0.179,0.179,0,0,0-.18.18,0.717,0.717,0,0,0,.3.38,5.852,5.852,0,0,1,1.52,3.06,0.856,0.856,0,0,0,.82.88,1.115,1.115,0,0,0,1.12-1.16,3.3,3.3,0,0,0-1.8-2.62A5.571,5.571,0,0,0,1161.19,3526.75Zm23.26-.28a13.364,13.364,0,0,1-4.58.8c-1.42,0-2.32-.36-2.58-1.04-0.1-.22-0.1-0.24-0.16-0.24-0.08,0-.14.12-0.14,0.3a2.247,2.247,0,0,0,.96,1.72,4.24,4.24,0,0,0,2.32.58,18.724,18.724,0,0,0,4.88-.76,11.479,11.479,0,0,1,1.38,2.82,0.212,0.212,0,0,1-.24.2,4.193,4.193,0,0,1-1.08-.22,8.661,8.661,0,0,0-2.62-.4c-2.62,0-4.38,1.24-4.38,3.1,0,2.02,2.3,3.42,5.62,3.42,1.36,0,2-.4,2-1.24a0.853,0.853,0,0,0-.96-0.88,2.986,2.986,0,0,0-.38.02c-0.36.02-1.38,0.06-1.64,0.06-1.86,0-3.02-.72-3.02-1.9s1.02-1.92,2.7-1.92a6.707,6.707,0,0,1,4.74,2.36,1.148,1.148,0,0,0,.24.02,1.674,1.674,0,0,0,1.42-1.88,2.634,2.634,0,0,0-.76-1.74c-1-1.18-1.46-1.74-1.86-2.3a15.649,15.649,0,0,0,2.78-1.36,1.5,1.5,0,0,0,.94-1.12,0.517,0.517,0,0,0-.44-0.46,7.194,7.194,0,0,0-1.58-.28c-0.16.56-.86,1.06-2.62,1.84a13.725,13.725,0,0,1-1.04-1.76c1.56-.64,2.22-1.08,2.22-1.48a1.409,1.409,0,0,0-1.3-.88,1.252,1.252,0,0,0-.8.52,4.325,4.325,0,0,1-.76.56,5.774,5.774,0,0,1-.78-2.3,0.617,0.617,0,0,1,.02-0.18,0.669,0.669,0,0,0-.24-0.4,3.592,3.592,0,0,0-2.1-.66,2.051,2.051,0,0,0-1.44.88,0.126,0.126,0,0,0,.14.08c1.06-.04,1.76.58,3.28,2.98a7.418,7.418,0,0,1-2.62.52,1.7,1.7,0,0,1-1.5-.5,0.21,0.21,0,0,0-.18-0.14,0.143,0.143,0,0,0-.16.14,1.919,1.919,0,0,0,.5.88,2.506,2.506,0,0,0,1.88.8,10.347,10.347,0,0,0,2.84-.5A15.823,15.823,0,0,1,1184.45,3526.47Zm11,10.54a9.839,9.839,0,0,0,2.54-2.98,11.416,11.416,0,0,0,1.68-6.04,11.549,11.549,0,0,0-1.58-5.82,13.758,13.758,0,0,0-2.68-3.26l-0.54.66a12.045,12.045,0,0,1,3.24,8.5,12.173,12.173,0,0,1-3.12,8.36Z" transform="translate(-631.219 -3513.03)"/>
</svg>
