<svg xmlns="http://www.w3.org/2000/svg" width="1081.936" height="55.5" viewBox="0 0 540.968 27.75">
  <defs>
    <style>
      .cls-1 {
        fill: #333;
        fill-rule: evenodd;
      }
    </style>
  </defs>
  <path id="シェフのおすすめディナープレート" class="cls-1" d="M651.085,2329.96c-1.29,0-2.609.27-2.609,0.54,0,0.09.06,0.15,0.27,0.21a6.946,6.946,0,0,1,4.289,3.36c0.48,0.9.66,1.05,1.29,1.05a1.684,1.684,0,0,0,1.8-1.65C656.125,2331.61,653.785,2329.96,651.085,2329.96Zm-3.779,15.57c0,0.03,0,.03-0.03.03-0.24-.03-0.42.33-0.42,0.81a3.146,3.146,0,0,0,1.14,2.16c1.08,1.05,1.919,1.62,2.4,1.62a1.194,1.194,0,0,0,.81-0.45,4.143,4.143,0,0,1,.6-0.39,55.825,55.825,0,0,0,9.72-7.32,37.242,37.242,0,0,0,5.76-7.59,8.826,8.826,0,0,0,1.23-2.67,0.234,0.234,0,0,0-.18-0.24c-0.15,0-.24.06-0.54,0.51a51.4,51.4,0,0,1-3.39,4.08,45.249,45.249,0,0,1-7.71,6.72c-3.39,2.37-5.82,3.54-7.379,3.54-1.29,0-1.8-.21-1.98-0.81h-0.03Zm0.15-9.87c-0.99,0-1.89.18-1.89,0.39,0,0.09.03,0.12,0.3,0.24a7.623,7.623,0,0,1,3.929,3.6,1.2,1.2,0,0,0,1.05.84,1.742,1.742,0,0,0,1.74-1.62C652.585,2337.37,650.065,2335.66,647.456,2335.66Zm41.339,10.65-2.31.21c-3.149.18-3.149,0.18-3.749,0.18a2.693,2.693,0,0,1-2.01-.51,0.206,0.206,0,0,0-.18-0.15,0.79,0.79,0,0,0-.3.84,1.425,1.425,0,0,0,.93,1.17c1.38,0.9,1.38.9,1.86,0.9a3.219,3.219,0,0,0,1.14-.24,28.732,28.732,0,0,1,10.109-1.38,26.211,26.211,0,0,1,5.43.54,7.159,7.159,0,0,0,1.26.21,0.882,0.882,0,0,0,.87-0.81c0-.81-1.89-2.25-3-2.25a0.831,0.831,0,0,0-.27.03c-1.32.42-1.59,0.48-6.63,0.99,0.09-3.57.24-4.83,0.63-6.09a0.9,0.9,0,0,0,.12-0.39,2.244,2.244,0,0,0-1.11-1.02c1.08-.09,1.95-0.12,2.91-0.12,0.42,0,.42,0,1.98.06l0.36,0.03h0.3a0.7,0.7,0,0,0,.72-0.66,1.416,1.416,0,0,0-.72-1.02,3.8,3.8,0,0,0-1.83-.87,2.131,2.131,0,0,0-.81.27,15.015,15.015,0,0,1-4.86,1.08,41.8,41.8,0,0,1-4.17.36,2.642,2.642,0,0,1-1.649-.45c-0.24-.3-0.24-0.3-0.3-0.3-0.15,0-.21.12-0.21,0.42a2.35,2.35,0,0,0,1.859,2.31,1.522,1.522,0,0,0,.27-0.06,5.017,5.017,0,0,1,1.41-.45,12.881,12.881,0,0,1,2.07-.33c0.75,0,.84.36,0.84,3.57a33.845,33.845,0,0,1-.15,3.87Zm45.48-12.27c1.11-.75,1.38-1.02,1.38-1.26a2.469,2.469,0,0,0-1.05-1.02c-1.71-1.2-2.19-1.47-2.55-1.47a1.827,1.827,0,0,0-1.02.42,8.71,8.71,0,0,1-3.57,1.2,70.388,70.388,0,0,1-7.68.93,2.739,2.739,0,0,1-2.279-.87,0.426,0.426,0,0,0-.24-0.21,0.35,0.35,0,0,0-.24.42,2.827,2.827,0,0,0,1.02,2.4,4.006,4.006,0,0,0,1.829.87,1.2,1.2,0,0,0,.48-0.18,12.654,12.654,0,0,1,3.6-1.26,37.652,37.652,0,0,1,5.91-1.02c0.69,0,.96.18,0.96,0.66a9.055,9.055,0,0,1-.57,2.28,18.942,18.942,0,0,1-4.17,7.11,21.487,21.487,0,0,1-9.779,6.75,0.287,0.287,0,0,0-.27.24,0.256,0.256,0,0,0,.3.21c1.44,0,5.279-1.41,7.709-2.82C728.515,2344.81,731.455,2340.94,734.275,2334.04Zm26.94-3.57c0.33-.03.54-0.03,0.63-0.03a7.192,7.192,0,0,1,3.09.72c2.61,1.32,3.96,4.05,3.96,8.07a10.256,10.256,0,0,1-3.84,8.55,16.112,16.112,0,0,1-5.37,2.79c-0.48.15-.57,0.18-0.57,0.33,0,0.12.12,0.18,0.3,0.18a12.994,12.994,0,0,0,1.92-.36,18.478,18.478,0,0,0,5.55-2.04,11.05,11.05,0,0,0,5.55-9.6,9.05,9.05,0,0,0-2.37-6.33,11.575,11.575,0,0,0-8.43-3.3c-7.02,0-13.049,5.67-13.049,12.27a7.771,7.771,0,0,0,1.47,4.83,3.625,3.625,0,0,0,2.52,1.65c1.649,0,4.259-2.13,6.029-4.89a19.306,19.306,0,0,0,3-9.75A11.478,11.478,0,0,0,761.215,2330.47Zm-1.47.12a1.912,1.912,0,0,0,.06.21,7.212,7.212,0,0,1,.18,1.68,17.641,17.641,0,0,1-3.06,8.97c-1.26,1.98-2.97,3.54-3.9,3.54s-1.74-1.56-1.74-3.33a11.752,11.752,0,0,1,3.539-8.37A11.335,11.335,0,0,1,759.745,2330.59Zm32.67,11.49c3.66-2.28,5.52-3.03,7.44-3.03,1.83,0,3.03,1.35,3.03,3.39a4.643,4.643,0,0,1-4.56,4.68,2.442,2.442,0,0,1-2.46-2.73,5.181,5.181,0,0,1,.48-2.04,0.763,0.763,0,0,0,.06-0.21,0.162,0.162,0,0,0-.12-0.15c-0.63,0-1.62,2.04-1.62,3.33a5.779,5.779,0,0,0,.63,2.61,3.611,3.611,0,0,0,3.42,1.65,6.993,6.993,0,0,0,7.08-6.87c0-2.94-2.13-4.89-5.25-4.89-2.34,0-4.59.75-8.16,2.67v-1.38c0-.81.03-1.41,0.06-2.22,3.3-1.26,4.98-2.55,4.98-3.84a0.763,0.763,0,0,0-.72-0.84,3.435,3.435,0,0,0-.45.03h-0.21a9,9,0,0,1-3.36-.93,3.557,3.557,0,0,1,.36-1.26,0.906,0.906,0,0,0,.15-0.39c0-.81-1.68-1.92-2.85-1.92-0.81,0-2.039.63-2.039,1.05a0.224,0.224,0,0,0,.209.18h0.06a0.546,0.546,0,0,1,.33-0.09c0.9,0,1.32.69,1.5,2.55,0.18,1.98.24,2.91,0.24,3.78a11.567,11.567,0,0,1-3.569.6c-1.23,0-1.86-.27-2.1-0.9a0.153,0.153,0,0,0-.15-0.12c-0.15,0-.21.21-0.21,0.69a2.4,2.4,0,0,0,2.67,2.37,14.739,14.739,0,0,0,3.449-.51c0.09,1.2.09,1.83,0.09,3.87-1.35.69-2.4,1.26-4.589,2.4-1.8.99-1.8,0.99-2.19,0.99a0.632,0.632,0,0,1-.39-0.15,0.7,0.7,0,0,0-.54-0.27,1.128,1.128,0,0,0-.99,1.23c0,1.2,1.41,2.94,2.4,2.94,0.36,0,.48-0.09,1.65-1.38,0.57-.6.6-0.66,0.96-1.05a4.85,4.85,0,0,1,2.459,4.14c0,0.69.09,0.84,0.54,0.84a3.029,3.029,0,0,0,2.7-2.61,1.615,1.615,0,0,0-.03-0.33c-0.15-1.71-.18-2.43-0.36-5.49Zm-1.47,4.02c0,0.6-.15.99-0.42,0.99a14.082,14.082,0,0,1-2.879-1.71c1.139-.93,1.709-1.38,3.3-2.49-0.03.81-.03,1.11-0.03,1.62Zm1.62-14.16c0.51,0.24,1.08.54,1.74,0.87,0.15,0.06.18,0.09,0.18,0.21,0,0.51-.78,1.14-1.98,1.62l0.03-1.35Zm12.09,0.27a6.838,6.838,0,0,0-3.96,1.23,0.935,0.935,0,0,0-.51.51,0.152,0.152,0,0,0,.15.18,1.169,1.169,0,0,0,.36-0.09,4.391,4.391,0,0,1,1.44-.24,5.322,5.322,0,0,1,2.85.9,5.388,5.388,0,0,1,1.68,1.89,1.515,1.515,0,0,0,.45.9,1.4,1.4,0,0,0,.87.36,2.053,2.053,0,0,0,1.77-2.04C809.755,2333.8,807.505,2332.21,804.655,2332.21Zm25.95,4.47a2.96,2.96,0,0,0-.93-0.15c-2.01,0-3.63,2.22-3.63,5.01,0,2.46,1.5,4.47,3.33,4.47a2.186,2.186,0,0,0,1.47-.57,9.072,9.072,0,0,1-6.06,6.99c-0.18.06-.24,0.12-0.24,0.21a0.231,0.231,0,0,0,.27.15,13.764,13.764,0,0,0,4.35-1.41c3.3-1.86,4.83-4.8,4.83-9.18,0-2.43-.27-3.42-1.29-4.56-0.03-.3-0.06-0.48-0.06-0.63,0-.66.03-1.32,0.09-2.28,0.03-.12.03-0.45,0.06-0.87,1.23-.09,1.77-0.12,2.46-0.12a23.107,23.107,0,0,1,5.22.6,2.717,2.717,0,0,0,.75.12,1.065,1.065,0,0,0,.99-0.99,1.892,1.892,0,0,0-.63-1.2,3.708,3.708,0,0,0-1.77-.78,1.361,1.361,0,0,1-.3.03,1.125,1.125,0,0,1-.33.03,7.24,7.24,0,0,1-3.27-1.05,0.879,0.879,0,0,0-.42-0.24,0.194,0.194,0,0,0-.18.18,0.74,0.74,0,0,0,.27.36q0.495,0.63.9,1.17c-0.78.12-1.29,0.18-1.56,0.21-0.51.09-1.17,0.18-2.01,0.3,0.18-2.55.21-2.91,0.57-3.84a2.106,2.106,0,0,0,.21-0.57c0-.9-2.07-2.46-3.24-2.46a3.4,3.4,0,0,0-2.04.69,0.151,0.151,0,0,0,.18.12c1.71,0.27,1.8.57,1.95,6.36-3.24.51-3.72,0.6-5.16,0.84-4.769.84-4.769,0.84-5.279,0.84a3.221,3.221,0,0,1-2.58-1.2c-0.09-.12-0.09-0.12-0.15-0.12a0.2,0.2,0,0,0-.18.24,4.5,4.5,0,0,0,.87,2.37,4.165,4.165,0,0,0,2.46,1.44,1.918,1.918,0,0,0,.75-0.3,33.707,33.707,0,0,1,9.269-2.85c0.06,1.26.06,1.68,0.06,2.07v0.57Zm-1.2.96a1.2,1.2,0,0,1,.99.99,7.164,7.164,0,0,1,.12,1.53c0,2.64-.42,3.99-1.23,3.99-0.96,0-1.71-1.32-1.71-3.03C827.575,2339.26,828.415,2337.64,829.405,2337.64Zm36-.96a2.96,2.96,0,0,0-.93-0.15c-2.01,0-3.63,2.22-3.63,5.01,0,2.46,1.5,4.47,3.33,4.47a2.186,2.186,0,0,0,1.47-.57,9.072,9.072,0,0,1-6.06,6.99c-0.18.06-.24,0.12-0.24,0.21a0.231,0.231,0,0,0,.27.15,13.764,13.764,0,0,0,4.35-1.41c3.3-1.86,4.83-4.8,4.83-9.18,0-2.43-.27-3.42-1.29-4.56-0.03-.3-0.06-0.48-0.06-0.63,0-.66.03-1.32,0.09-2.28,0.03-.12.03-0.45,0.06-0.87,1.23-.09,1.77-0.12,2.46-0.12a23.107,23.107,0,0,1,5.22.6,2.717,2.717,0,0,0,.75.12,1.065,1.065,0,0,0,.99-0.99,1.892,1.892,0,0,0-.63-1.2,3.708,3.708,0,0,0-1.77-.78,1.361,1.361,0,0,1-.3.03,1.125,1.125,0,0,1-.33.03,7.24,7.24,0,0,1-3.27-1.05,0.879,0.879,0,0,0-.42-0.24,0.194,0.194,0,0,0-.18.18,0.74,0.74,0,0,0,.27.36q0.5,0.63.9,1.17c-0.78.12-1.29,0.18-1.56,0.21-0.51.09-1.17,0.18-2.01,0.3,0.18-2.55.21-2.91,0.57-3.84a2.106,2.106,0,0,0,.21-0.57c0-.9-2.07-2.46-3.24-2.46a3.4,3.4,0,0,0-2.04.69,0.151,0.151,0,0,0,.18.12c1.71,0.27,1.8.57,1.95,6.36-3.24.51-3.72,0.6-5.16,0.84-4.769.84-4.769,0.84-5.279,0.84a3.221,3.221,0,0,1-2.58-1.2c-0.09-.12-0.09-0.12-0.15-0.12a0.2,0.2,0,0,0-.18.24,4.5,4.5,0,0,0,.87,2.37,4.165,4.165,0,0,0,2.46,1.44,1.918,1.918,0,0,0,.75-0.3,33.7,33.7,0,0,1,9.269-2.85c0.06,1.26.06,1.68,0.06,2.07v0.57Zm-1.2.96a1.2,1.2,0,0,1,.99.99,7.164,7.164,0,0,1,.12,1.53c0,2.64-.42,3.99-1.23,3.99-0.96,0-1.71-1.32-1.71-3.03C862.375,2339.26,863.215,2337.64,864.205,2337.64Zm25.381-7.23,0.09,0.03c0.99,0.24,1.29.72,1.74,2.61a24.059,24.059,0,0,0,1.349,3.78,14.5,14.5,0,0,0-2.069,2.61,9,9,0,0,0-1.41,4.77c0,2.55,1.02,4.17,2.61,4.17a7.579,7.579,0,0,0,4.529-2.07,11.414,11.414,0,0,0,2.61-3.21,2.8,2.8,0,0,0,1.23.33,0.56,0.56,0,0,0,.63-0.51,3.239,3.239,0,0,0-.27-0.96,1.164,1.164,0,0,0-.75-0.36,42.1,42.1,0,0,0,3.09-7.65c1.92,0.42,2.82.9,3.63,1.98a7.291,7.291,0,0,1,1.35,4.56,9.348,9.348,0,0,1-4.59,8.16,20.711,20.711,0,0,1-6.09,2.55c-0.33.06-.39,0.09-0.39,0.21s0.12,0.18.33,0.18a25.005,25.005,0,0,0,7.62-1.89c4.02-1.8,6.39-4.98,6.39-8.67a7.588,7.588,0,0,0-3.51-6.78,8.239,8.239,0,0,0-4.44-1.17,14.1,14.1,0,0,0,.51-3.06c0-1.62-1.5-2.73-3.66-2.73a1.562,1.562,0,0,0-1.2.24,0.2,0.2,0,0,0,.21.18c1.17,0.24,1.86,1.56,1.86,3.57a10.177,10.177,0,0,1-.15,1.74,16.94,16.94,0,0,0-6.45,2.49,12.825,12.825,0,0,1-.66-3.51,1.81,1.81,0,0,0-.63-1.68,3.207,3.207,0,0,0-3.9,0,0.654,0.654,0,0,0,.15.12Zm7.829,11.88a12.416,12.416,0,0,1-2.37,2.82,3.816,3.816,0,0,1-1.95,1.02,1.585,1.585,0,0,1-.959-0.45,2.558,2.558,0,0,1-.57-1.98,7.8,7.8,0,0,1,2.039-5.31A10.579,10.579,0,0,0,897.415,2342.29Zm3.21-8.28a25.534,25.534,0,0,1-2.34,6.87,8.127,8.127,0,0,1-3.3-3.93A12.128,12.128,0,0,1,900.625,2334.01Zm43.95-8.46c-0.93,0-1.38.09-1.38,0.3a0.2,0.2,0,0,0,.21.18,4.654,4.654,0,0,1,2.7,2.07c0.57,0.93.66,1.02,1.2,1.02a1.218,1.218,0,0,0,1.26-1.2C948.565,2326.69,946.645,2325.55,944.575,2325.55Zm-3.09,2.28c-0.72,0-.99.06-0.99,0.27a0.222,0.222,0,0,0,.15.18,4.414,4.414,0,0,1,2.55,2.28c0.36,0.75.54,0.9,1.08,0.9a1.126,1.126,0,0,0,1.2-1.17C945.475,2329,943.585,2327.83,941.485,2327.83Zm-13.68,2.34a0.261,0.261,0,0,0-.18.24,4.164,4.164,0,0,0,.84,1.62,2.424,2.424,0,0,0,1.92.87,42.146,42.146,0,0,0,7.47-1.23c1.62-.36,2.22-0.63,2.22-1.05a1.552,1.552,0,0,0-.93-1.11,4.843,4.843,0,0,0-1.56-.54,1.478,1.478,0,0,0-.54.15,12.416,12.416,0,0,1-1.83.75,19.474,19.474,0,0,1-5.37.99,2.978,2.978,0,0,1-1.95-.63A0.159,0.159,0,0,0,927.805,2330.17Zm6.24,6.87a1.235,1.235,0,0,1,.24.75,15.49,15.49,0,0,1-2.4,6.72,17.886,17.886,0,0,1-5.909,5.91c-1.44.75-1.44,0.75-1.44,0.87a0.2,0.2,0,0,0,.24.18,21.33,21.33,0,0,0,4.379-1.74c3.72-2.07,6.69-5.94,8.34-10.8a1.115,1.115,0,0,0,.45-0.69c0-.24-0.27-0.51-1.47-1.41,1.92-.15,2.34-0.18,3.06-0.18a31.163,31.163,0,0,1,4.08.33,4.746,4.746,0,0,0,.78.09,1,1,0,0,0,1.11-.87c0-.51-0.3-0.84-1.23-1.41a5.293,5.293,0,0,0-2.04-.93c-1.23.75-2.07,0.99-4.59,1.38-2.43.36-10.739,1.23-11.789,1.23a2.391,2.391,0,0,1-2.34-.96,0.617,0.617,0,0,0-.3.57,2.078,2.078,0,0,0,.75,1.5,4.727,4.727,0,0,0,2.28,1.17,1.649,1.649,0,0,0,.48-0.09A28.959,28.959,0,0,1,934.045,2337.04Zm35.25,10.77c-0.03.3-.03,0.57-0.06,0.78a8.142,8.142,0,0,1-.42,1.5,1.538,1.538,0,0,0-.15.6,3.656,3.656,0,0,0,2.13,1.98,1.217,1.217,0,0,0,.96-1.44c0-.3-0.03-0.9-0.06-1.62,0-.36-0.06-1.44-0.09-3.27-0.09-3.24-.09-3.24-0.09-3.48a7.011,7.011,0,0,1,.18-1.83,1.123,1.123,0,0,0,.24-0.57,0.855,0.855,0,0,0-.69-0.63c-0.36-.18-0.51-0.24-0.84-0.42,0.9-.93,2.16-2.34,3-3.36,0.33-.39.48-0.54,0.54-0.6a1.657,1.657,0,0,1,.48-0.36,0.586,0.586,0,0,0,.39-0.51,3.727,3.727,0,0,0-1.23-1.77,2.736,2.736,0,0,0-2.13-1.08c-0.51,0-.78.09-0.78,0.27a0.246,0.246,0,0,0,.21.21,1.078,1.078,0,0,1,.57,1.08c0,1.05-1.32,3.24-3.36,5.67a29.014,29.014,0,0,1-8.249,6.96,0.305,0.305,0,0,0-.24.24,0.245,0.245,0,0,0,.27.24,13.511,13.511,0,0,0,2.339-.81c2.46-1.05,3.87-2.04,7.11-5.1a3.353,3.353,0,0,1,.18,1.68c0,0.63,0,.63-0.12,3.54Zm37-11.43a46.626,46.626,0,0,1,4.67-.27,25,25,0,0,1,3.9.3,6.452,6.452,0,0,0,.69.06,0.854,0.854,0,0,0,.9-0.84,2.216,2.216,0,0,0-1.11-1.32,5.816,5.816,0,0,0-2.22-1.11,3.329,3.329,0,0,0-1.17.51c-1.17.63-1.83,0.78-5.48,1.23,0.09-2.37.18-4.05,0.24-4.59a1.683,1.683,0,0,1,.24-0.63,0.729,0.729,0,0,0,.12-0.33c0-.66-2.34-2.19-3.36-2.19-0.75,0-2.13.57-2.13,0.9,0,0.09.09,0.12,0.39,0.18,1.32,0.27,1.74,1.56,1.74,5.22,0,0.42-.03.9-0.06,1.83-5.885.63-6.724,0.72-7.924,0.72-1.5,0-2.4-.24-2.79-0.75a0.315,0.315,0,0,0-.27-0.21,0.221,0.221,0,0,0-.24.24c0,1.53,1.62,3.3,3,3.3a6.421,6.421,0,0,0,1.92-.48,29.559,29.559,0,0,1,6.184-1.44c-0.69,6.69-3.51,11.73-7.894,13.89-0.45.24-.54,0.3-0.54,0.45a0.2,0.2,0,0,0,.21.18,14.932,14.932,0,0,0,3.749-1.41,13.462,13.462,0,0,0,5.405-5.97A21.725,21.725,0,0,0,1006.29,2336.38Zm41.57,0.84a23.773,23.773,0,0,1-4.76,1.02c-2.07.24-9.54,0.69-11.82,0.69-2.4,0-3.39-.27-3.84-1.02a0.436,0.436,0,0,0-.3-0.3c-0.3,0-.45.3-0.45,0.84a2.8,2.8,0,0,0,1.08,2.43,5.386,5.386,0,0,0,2.58.99,1.178,1.178,0,0,0,.42-0.09c2.25-.9,6.69-1.32,14.18-1.32,1.11,0,2.01.03,2.64,0.09,1.29,0.12,2.25.21,2.52,0.21,0.93,0,1.53-.39,1.53-0.99C1051.64,2338.6,1050.38,2337.73,1047.86,2337.22Zm34.14-2.82c1.11-.78,1.38-1.02,1.38-1.26a2.319,2.319,0,0,0-1.05-1.05c-1.71-1.2-2.19-1.47-2.55-1.47a1.827,1.827,0,0,0-1.02.42,8.605,8.605,0,0,1-3.56,1.2,70.388,70.388,0,0,1-7.68.93,2.74,2.74,0,0,1-2.28-.87,0.426,0.426,0,0,0-.24-0.21,0.35,0.35,0,0,0-.24.42,2.887,2.887,0,0,0,1.02,2.43,3.925,3.925,0,0,0,1.8.87,0.957,0.957,0,0,0,.51-0.21,12.654,12.654,0,0,1,3.6-1.26,37.317,37.317,0,0,1,5.94-1.02c0.66,0,.93.18,0.93,0.66a9.055,9.055,0,0,1-.57,2.28,19.189,19.189,0,0,1-4.14,7.14,22.214,22.214,0,0,1-9.81,6.75,0.287,0.287,0,0,0-.27.24,0.242,0.242,0,0,0,.27.21c1.62,0,5.73-1.56,8.25-3.12C1076.49,2344.87,1079.27,2341.09,1082,2334.4Zm2.61-9.36a3.015,3.015,0,1,0,2.97,3A3.022,3.022,0,0,0,1084.61,2325.04Zm-0.03,1.14a1.86,1.86,0,1,1-1.86,1.83A1.844,1.844,0,0,1,1084.58,2326.18Zm19.93,16.08c0.03-3.93.36-7.11,0.78-7.77a1.254,1.254,0,0,0,.24-0.75c0-.39-0.39-0.87-1.44-1.65a4.037,4.037,0,0,0-2.25-.96,9.518,9.518,0,0,0-1.8.36,0.347,0.347,0,0,0-.3.27c0,0.15.09,0.21,0.45,0.24,1.38,0.24,1.86,1.41,1.86,4.44,0,0.42,0,2.07.03,4.92v2.07a5.422,5.422,0,0,1-.33,2.31,1.547,1.547,0,0,0-.27.69c0,0.66,2.01,2.64,2.7,2.64a0.522,0.522,0,0,0,.42-0.27,6.784,6.784,0,0,1,2.58-1.92,35.662,35.662,0,0,0,5.88-3.9,29.816,29.816,0,0,0,7.16-7.86,17.064,17.064,0,0,0,1.35-2.55,0.318,0.318,0,0,0-.27-0.27,0.4,0.4,0,0,0-.3.24,38.377,38.377,0,0,1-6.72,6.84c-3.2,2.64-8.09,5.49-9.41,5.49-0.27,0-.36-0.09-0.36-0.39v-2.22Zm47.75-5.04a23.773,23.773,0,0,1-4.76,1.02c-2.07.24-9.54,0.69-11.82,0.69-2.4,0-3.39-.27-3.84-1.02a0.436,0.436,0,0,0-.3-0.3c-0.3,0-.45.3-0.45,0.84a2.8,2.8,0,0,0,1.08,2.43,5.386,5.386,0,0,0,2.58.99,1.178,1.178,0,0,0,.42-0.09c2.25-.9,6.69-1.32,14.18-1.32,1.11,0,2.01.03,2.64,0.09,1.29,0.12,2.25.21,2.52,0.21,0.93,0,1.53-.39,1.53-0.99C1156.04,2338.6,1154.78,2337.73,1152.26,2337.22Zm25.72,4.11-0.03-2.46-0.06-2.73a10.568,10.568,0,0,1,4.71,4.02,8.348,8.348,0,0,0,.96,1.41,1.774,1.774,0,0,0,1.37.63,1.528,1.528,0,0,0,1.59-1.59c0-1.08-.99-2.37-2.49-3.33a12.275,12.275,0,0,0-6.11-1.74,21.588,21.588,0,0,1,.42-4.89,3.031,3.031,0,0,0,.42-1.17,2.85,2.85,0,0,0-.81-1.38,3.186,3.186,0,0,0-2.16-1.26c-0.87,0-2.67.84-2.67,1.23a0.2,0.2,0,0,0,.24.21c1.44,0,1.74.39,1.89,2.25,0.06,0.84.21,6.66,0.21,8.67a76.475,76.475,0,0,1-.42,7.98,8.929,8.929,0,0,0-.3,1.68c0,1.11,1.32,3,2.13,3,0.75,0,1.35-1.17,1.35-2.7,0-.39-0.03-1.41-0.12-2.64-0.03-.36-0.06-1.35-0.06-2.4Z" transform="translate(-645.562 -2325.03)"/>
</svg>
