<svg xmlns="http://www.w3.org/2000/svg" viewBox="0 0 381.46 110.28"><defs><style>.cls-1{fill:#333;}</style></defs><title>dokidoki-enjoy-point-title</title><g id="Layer_2" data-name="Layer 2"><g id="Layer_1-2" data-name="Layer 1"><path class="cls-1" d="M8.1,40.77c5.13-.22,6-.92,6.05-4.86v-26c0-3.14-1.4-4.11-6.05-4.11V4.05H25.65c6.81,0,11.94,1.4,15.5,4.27,4.21,3.34,6.64,8.85,6.64,15.06,0,11.72-8.58,19.12-22.14,19.12H8.1ZM19,36.07c0,3.78,1,4.65,5.61,4.65,10.91,0,17.12-6.54,17.12-17.93,0-11.13-6-17-17.5-17-3.94,0-5.23,1-5.23,3.94Z"/><path class="cls-1" d="M94.23,23.17c0,11.61-8.15,20.19-19.22,20.19-11.23,0-19.39-8.37-19.39-20a18.91,18.91,0,0,1,8.7-16.52,18.92,18.92,0,0,1,11.23-3.4C86.35,3.46,94.23,11.77,94.23,23.17ZM66.1,9c-3,3.08-4.43,7.5-4.43,13.71,0,12,4.75,18.8,13,18.8s13.4-7,13.4-18.63c0-11.34-4.59-17.66-12.91-17.66A12.9,12.9,0,0,0,66.1,9Z"/><path class="cls-1" d="M100.71,40.72h1c3.78,0,5.08-1,5.13-4v-27c.06-3.24-.86-3.83-6-4V4.05h16.85V5.72c-5,.06-5.94.71-6,4V24.19L127,9.72a3.44,3.44,0,0,0,1.3-2.38c0-1.18-.76-1.51-3.89-1.62V4.05h15V5.72c-4.32.22-6.43,1.08-9.45,3.89l-9.24,8.59,14,19c1.67,2.49,3.72,3.51,7.23,3.68V42.5H125.66V40.72h0c2.65,0,3.57-.43,3.57-1.73a3.32,3.32,0,0,0-.76-2L117.29,21.33l-5.67,5.35v9.61c0,3.67,1.13,4.43,5.94,4.43V42.5H100.71Z"/><path class="cls-1" d="M147.58,40.66c5.35,0,6.48-.81,6.48-4.53V9.94c.06-3.41-.91-4-6.48-4.11V4.05h17.55V5.83c-5.23,0-6.42.76-6.42,4.11V36.13c0,3.83,1.13,4.59,6.42,4.53V42.5H147.58Z"/><path class="cls-1" d="M170.53,40.77c5.13-.22,6-.92,6.05-4.86v-26c0-3.14-1.4-4.11-6.05-4.11V4.05h17.55c6.81,0,11.94,1.4,15.5,4.27,4.21,3.34,6.64,8.85,6.64,15.06,0,11.72-8.58,19.12-22.14,19.12H170.53Zm10.86-4.7c0,3.78,1,4.65,5.61,4.65,10.91,0,17.12-6.54,17.12-17.93,0-11.13-6.05-17-17.5-17-3.94,0-5.23,1-5.23,3.94Z"/><path class="cls-1" d="M256.66,23.17c0,11.61-8.15,20.19-19.22,20.19-11.23,0-19.39-8.37-19.39-20a18.91,18.91,0,0,1,8.7-16.52A18.92,18.92,0,0,1,238,3.46C248.78,3.46,256.66,11.77,256.66,23.17ZM228.53,9c-3,3.08-4.43,7.5-4.43,13.71,0,12,4.75,18.8,13,18.8s13.4-7,13.4-18.63c0-11.34-4.59-17.66-12.91-17.66A12.9,12.9,0,0,0,228.53,9Z"/><path class="cls-1" d="M263.14,40.72h1c3.78,0,5.08-1,5.13-4v-27c.06-3.24-.86-3.83-6-4V4.05H280V5.72c-5,.06-5.94.71-6,4V24.19L289.44,9.72a3.44,3.44,0,0,0,1.3-2.38c0-1.18-.76-1.51-3.89-1.62V4.05h15V5.72c-4.32.22-6.43,1.08-9.45,3.89l-9.24,8.59,14,19c1.67,2.49,3.72,3.51,7.23,3.68V42.5H288.09V40.72h.05c2.65,0,3.57-.43,3.57-1.73a3.32,3.32,0,0,0-.76-2L279.72,21.33l-5.67,5.35v9.61c.05,3.67,1.13,4.43,5.94,4.43V42.5H263.14Z"/><path class="cls-1" d="M310,40.66c5.35,0,6.48-.81,6.48-4.53V9.94c.06-3.41-.91-4-6.48-4.11V4.05h17.55V5.83c-5.23,0-6.42.76-6.42,4.11V36.13c.05,3.83,1.13,4.59,6.42,4.53V42.5H310Z"/><path class="cls-1" d="M364.28,15.55a12.45,12.45,0,0,1,8.05-3.45c3.83,0,6.8,2.26,6.8,5.18a3.19,3.19,0,0,1-1.4,2.86c-1.13.87-1.46,1-6.48,3a93.76,93.76,0,0,0-11.56,5.24c.17,2.38.27,4.11.27,5,0,2.7-.54,3.4-2.7,3.4-.64,0-1-.22-1-.54a1.42,1.42,0,0,1,0-.43,41.17,41.17,0,0,0,.28-5.83c-4.65,2.75-6.54,4.91-6.54,7.34,0,2.7,2.54,3.78,8.86,3.78a31,31,0,0,0,7.94-1,4.24,4.24,0,0,1,1.4-.27c1.13,0,2.59,1.24,2.59,2.21,0,1.78-3.56,2.7-10.91,2.7-4.1,0-6.53-.43-8.8-1.62a6.41,6.41,0,0,1-3.72-5.51,6.81,6.81,0,0,1,2.75-5.07,38.77,38.77,0,0,1,6.37-4.16c-.05-3.83-.22-5.62-.7-6.8a2.81,2.81,0,0,0-2.54-1.89,6.28,6.28,0,0,0-3.83,2,33.21,33.21,0,0,0-4.65,5.78c-.59,1-1.18,1.51-1.78,1.51-.81,0-1.89-1.78-1.89-3.18,0-.7.22-1.08,1.3-1.89,5.83-5.08,9.39-10.32,10.42-15.34a16.28,16.28,0,0,1-4.7.92,3.36,3.36,0,0,1-2.81-1.94,6.9,6.9,0,0,1-.81-2.06.24.24,0,0,1,.22-.21s.16,0,.27.21a3.41,3.41,0,0,0,3.19,1.41A14.38,14.38,0,0,0,353.16,6a8.72,8.72,0,0,0,.16-1.51c0-1.78-.86-2.81-2.54-2.91-.21,0-.27-.06-.27-.22,0-.49,1.84-1.35,2.87-1.35,1.72,0,3.56,1.62,3.56,3.19a8.19,8.19,0,0,1-.43,2.05A7.8,7.8,0,0,0,360,3.4c1.84.92,2.38,1.3,2.38,1.73,0,.65-1.19,1.13-6.32,2.65a62.52,62.52,0,0,1-6.15,11.5,8.48,8.48,0,0,1,3.56-1,5.44,5.44,0,0,1,3.45,1.24c.87.81,1.36,1.73,2,3.83C360.83,19.39,362.12,17.44,364.28,15.55Zm2.33,7c5.18-2.86,6.26-3.51,6.91-4.05a3,3,0,0,0,1.08-1.89c0-1.35-1.62-2.7-3.3-2.7-2.8,0-6.48,2.54-8.58,6a27.29,27.29,0,0,0-3.19,6.64C361.69,25.27,362.07,25.06,366.61,22.57Z"/><path class="cls-1" d="M23,86.41H19.39v2.21c0,.6-1,1.09-2.16,1.09-.6,0-1-.33-1-.82V66.81L20,68.91h2.42a47.33,47.33,0,0,0,1-7.5l4.27.7c.65.11,1,.49,1,.92A1.48,1.48,0,0,1,28,64.16L26.89,65l-2.32,3.94h5.18l1.3-2,3.08,2.92a1.29,1.29,0,0,1,.38.86,1,1,0,0,1-.6.81l-.86.49V87.65c0,1-1,1.68-2.43,1.68-.49,0-.7-.27-.7-.81V86.41H26.3v6.21H41.37l2.8-3.51,4.32,3.56c.38.27.54.54.54.76a.55.55,0,0,1-.59.49H27.7C33,99.26,41,103,50.17,104.29A14.62,14.62,0,0,0,46,108.5a44.22,44.22,0,0,1-11.13-5.67c-3.29-2.33-4.8-3.73-8.58-8.21v14.26a.81.81,0,0,1-.16.54,4.25,4.25,0,0,1-2.38.86.78.78,0,0,1-.81-.7V95.81c-6.05,5.13-9,7.12-14.8,9.93-3.29,1.62-6.8,3-7.66,3a.44.44,0,0,1-.49-.43c0-.27,0-.27,3.19-1.89A61.43,61.43,0,0,0,19.71,93.92H11.5c-3.72.1-5.4.1-9.93.27L.86,92.3c2.6.11,4.86.16,5.78.21,2.38.06,4,.11,4.86.11H23Zm-7.94-6L6.26,87.54l-.21,1c-.16.7-.6,1.14-1.08,1.14a1.09,1.09,0,0,1-.59-.22L.92,86.09c4.7-2.06,6.32-2.87,13.66-6.75ZM2.7,67c5.45,1.3,9.13,4.38,9.13,7.51a2.13,2.13,0,0,1-1.95,2.38,1.86,1.86,0,0,1-1.35-.6c-.38-.38-.38-.38-1.46-3.35a15.88,15.88,0,0,0-4.59-5.29ZM29.92,77v-6.8H19.39V77Zm0,8.1v-6.8H19.39v6.8ZM46,69.24a.65.65,0,0,1,.27.48c0,.27-.33.54-1,.71l-1.84.48L35.53,77.5c-.54.43-.81.59-1.08.59s-.43-.16-.43-.48.22-.6,2.38-3.35c1.46-2,2.86-3.94,5.72-8.21ZM34.67,79.07c4.37.7,6.32,1.29,8.42,2.53,2.27,1.3,3.46,2.81,3.46,4.32a2,2,0,0,1-1.89,2c-.7,0-.87-.16-3.67-3.4A22,22,0,0,0,34.56,80Z"/><path class="cls-1" d="M101.74,96.08c0,.92-1.24,2.91-3.08,5-4.27,4.75-9.13,7.13-14.8,7.13-3.83,0-6.86-1.14-9-3.4-2.26-2.44-3.24-5.62-3.24-10.54,0-3.24.06-3.94,1.08-18,.33-4.54.33-4.54.33-5.19,0-3.45-.81-4.91-2.65-4.91-.32,0-.48-.11-.48-.27,0-.59,1.13-1.08,2.37-1.08,2.76,0,5.4,3.13,5.4,6.48,0,.81,0,.86-.81,4.1a117.13,117.13,0,0,0-2.26,18.53c0,7.56,3,11,9.71,11a19.89,19.89,0,0,0,11.83-4.38,20.92,20.92,0,0,0,4.59-4.37c.22-.38.43-.54.65-.54S101.74,95.81,101.74,96.08Z"/><path class="cls-1" d="M129.66,70.7c0-3.57-.54-4.43-2.76-4.54-.43,0-.48,0-.48-.22,0-.43,2.1-1.4,3-1.4a8.45,8.45,0,0,1,3.4,1.13A2.25,2.25,0,0,1,134,67.29a6,6,0,0,1-.38,1.52,27.53,27.53,0,0,0-.92,4.48c2.43-.92,3.24-1.46,3.83-2.49,1.68.11,3.24,1.14,3.24,2,0,.49-.27.7-1.29,1.19a38,38,0,0,1-6.32,2.32c-.38,2.81-.43,3.19-.81,5.89a2.45,2.45,0,0,1,1.89,2.32c0,.76-.43,2.48-1.73,6.81C130,96.51,129.44,99,129.44,101c0,2.48,1.89,3.62,6.1,3.62a32.09,32.09,0,0,0,10.37-1.89c1.84-.87,2.54-2.16,2.54-4.75,0-1.62-.06-2.27-.81-10.21-.38-3.56-.54-6.16-.54-7.78,0-3.45,1.4-5.23,4.1-5.23,4.92,0,11.18,5.13,11.18,9.18,0,1.78-1.46,3.78-2.7,3.78-.22,0-.38-.11-.54-.38-1.3-1.46-2.54-1.89-5.67-1.84-.43,0-.65-.11-.65-.38s.06-.27.49-.32a2.57,2.57,0,0,0,.65-.16c.75-.11,1.35-.27,1.94-.38,1.67-.32,2.21-.7,2.21-1.51A8,8,0,0,0,156,78.8c-1.56-1.68-3.56-2.76-5-2.76s-2.37,1.41-2.37,4.27a63.66,63.66,0,0,0,1.35,12.2c.81,3.67,1.51,5.24,2.86,6.43a3,3,0,0,1,.27,1.24c0,1.73-1.14,3.24-3.3,4.48-3,1.68-8,2.76-12.74,2.76-6.91,0-10.21-2.11-10.21-6.54a26.78,26.78,0,0,1,.65-4.53,2.82,2.82,0,0,1-2.11.81c-2.1,0-3.45-2.49-3.45-6.27,0-5.13,2.91-9.23,6.53-9.23a5.37,5.37,0,0,1,.81,0c.11-2.43.16-2.81.27-4.8a27,27,0,0,1-7,1.35c-1.72,0-2.48-.44-3.08-1.73a9.82,9.82,0,0,1-.81-3.84c0-.27.11-.43.33-.43s.16.06.27.27a3.72,3.72,0,0,0,3.89,2.92,26,26,0,0,0,6.53-1.24,14.9,14.9,0,0,1,.06-1.95Zm-4,14.68A12.63,12.63,0,0,0,124.42,91c0,2.11.81,3.56,1.94,3.56s1.57-.75,1.89-2.59c.43-2.32,1-6.26,1-6.75,0-1.08-.38-1.72-1.08-1.83S126.25,84.25,125.66,85.38Z"/><path class="cls-1" d="M187.16,87.87A17.09,17.09,0,0,1,186,94.4c-1.3,3.14-4.32,5.67-6.75,5.67a2.81,2.81,0,0,1-2.33-2.37c0-.81.27-1,2.06-1.84a13.35,13.35,0,0,0,7.29-8.15c.05-.27.16-.33.37-.33C187,87.38,187.16,87.54,187.16,87.87ZM198.23,81c0,1.08,0,3.56.06,7.45l.11,6.05c0,1.89,0,3.78.1,4,.06,1,.06,1.94.06,2.48a5.2,5.2,0,0,1-1.89,4.27,5,5,0,0,1-3.08,1.46c-.54,0-.76-.32-.81-1.19-.16-2.43-1-3.78-3.62-6-.21-.22-.32-.33-.32-.49a.62.62,0,0,1,.54-.48c.21,0,.54.16,1.29.64,2,1.3,2.49,1.57,3.08,1.57,1.3,0,1.3,0,1.35-11,.06-4.86.11-7.29.11-7.29V81.06a48.74,48.74,0,0,0-11.34,2.38,4.42,4.42,0,0,1-1.51.38,6,6,0,0,1-2.43-1,4.27,4.27,0,0,1-2.22-3.68q0-.48.33-.48c.11,0,.27.11.43.32.76,1,2,1.3,4.64,1.3a115.79,115.79,0,0,0,12-1c-.06-8.21-.33-8.8-3.41-9.18-.32,0-.48-.11-.48-.21,0-.54,2-1.62,3-1.62a6.8,6.8,0,0,1,4,1.62c.86.7,1.35,1.24,1.35,1.56a1.3,1.3,0,0,1-.16.54c-.71,1.14-.87,2.05-1.14,6.86,6.1-.49,9.4-1.08,11.18-1.94,1.08-.6,1.08-.6,1.46-.6.75,0,1.51.38,3.29,1.57,1.24.81,1.62,1.24,1.62,1.83A1.39,1.39,0,0,1,214.6,81a7.64,7.64,0,0,1-1-.11,52.88,52.88,0,0,0-7.93-.59c-2.27,0-5.4.21-7.46.43Zm10.05,7.29c4.53,2.7,7.18,5.89,7.18,8.64a2.72,2.72,0,0,1-2.54,3c-1,0-1.35-.38-1.94-2.65-1-4.1-4.86-8.8-8.26-10-.27-.11-.38-.22-.38-.38s.27-.43.59-.43A12.79,12.79,0,0,1,208.28,88.3Zm9.29-20.36a5.3,5.3,0,1,1-5.24-5.29A5.3,5.3,0,0,1,217.57,67.94Zm-8.75,0a3.46,3.46,0,1,0,3.4-3.45A3.48,3.48,0,0,0,208.82,67.94Z"/><path class="cls-1" d="M255.21,81.82C258,83.06,258,83.06,258,83.6a1.75,1.75,0,0,1-.22.76,12,12,0,0,0-.48,4.32l.11,5.51v6.15l.05,3.73c.05.7.05,1.35.05,1.78,0,1.4-.48,2.22-1.29,2.22-1.62,0-3.51-1.41-3.51-2.65a4.32,4.32,0,0,1,.16-1,173.91,173.91,0,0,0,1.29-18.68,5.58,5.58,0,0,0-.64-3.19,68.83,68.83,0,0,1-14,11.13,24.42,24.42,0,0,1-6,2.53c-.21,0-.54-.21-.54-.43s.11-.27.54-.43c8.53-3.89,25.22-20.95,25.22-25.7,0-.54-1-1.52-1.78-1.68-.49-.11-.59-.21-.59-.43,0-.38,1.13-.76,2.21-.76,2,0,6.1,2.92,6.1,4.38,0,.38-.16.54-.65.81A3.88,3.88,0,0,0,262,73.56a87.71,87.71,0,0,1-7.51,7.94Z"/><path class="cls-1" d="M307.75,78.58a2.26,2.26,0,0,1-2.49,2.32c-.7,0-1.08-.27-1.62-1.24A11.91,11.91,0,0,0,295.33,73c-.33-.11-.49-.22-.49-.38,0-.38,1-.65,2.54-.65C302.56,72,307.75,75.29,307.75,78.58Zm-7,24c-.81,0-2.6-1.3-3.89-2.81a4,4,0,0,1-1.35-3.4c0-1,.27-1.84.65-1.84.21,0,.32.11.43.38a3.79,3.79,0,0,0,3.24,2.75c2.21,0,8.75-4,16.58-10.26a106.56,106.56,0,0,0,10.1-9c1.08-1.08,4-4.42,4.53-5.07s.65-.87.92-.87a.44.44,0,0,1,.43.49c0,.86-2.37,4.54-5.08,7.83a84,84,0,0,1-11.55,11.67,82.92,82.92,0,0,1-12.85,8.85C301.86,102.18,301.27,102.56,300.73,102.56Z"/><path class="cls-1" d="M365.85,83.06c.06,9.67.16,14.8.43,18.42.11,1.13.17,1.94.17,2.43,0,2.26-.82,3.94-1.95,3.94s-2.86-2.43-2.86-3.78a7.22,7.22,0,0,1,.16-1.4c.43-3,.87-15,.87-25.76,0-5.08-.22-6.92-.87-8a2.72,2.72,0,0,0-2.59-1.35c-.38,0-.54-.16-.54-.48s.16-.38.49-.54a15.39,15.39,0,0,1,3.29-.87c.81,0,1.57.38,3.94,1.89.7.49,1,.87,1,1.25a2.93,2.93,0,0,1-.27,1c-.87,1.46-1.19,4-1.3,10a23,23,0,0,1,11.34,3.51c2.92,2,4.27,3.72,4.27,5.45a2.21,2.21,0,0,1-2.27,2.38c-1.19,0-1.78-.49-3.13-2.54a19.43,19.43,0,0,0-10.21-7.94Z"/></g></g></svg>