<svg xmlns="http://www.w3.org/2000/svg" viewBox="0 0 540.54 111.9"><defs><style>.cls-1{fill:#333;}</style></defs><title>dokidoki-copy-title</title><g id="Layer_2" data-name="Layer 2"><g id="Layer_1-2" data-name="Layer 1"><path class="cls-1" d="M7.18,22.41c.06,9.67.16,14.8.43,18.41.11,1.14.17,2,.17,2.43,0,2.27-.81,4-1.95,4S3,44.77,3,43.42A7.75,7.75,0,0,1,3.13,42c.43-3,.87-15,.87-25.76,0-5.07-.17-6.85-.87-8A2.94,2.94,0,0,0,.54,6.91C.16,6.86,0,6.75,0,6.43s.16-.38.49-.49A14.33,14.33,0,0,1,3.78,5c.81,0,1.57.38,3.94,1.89.7.49,1,.87,1,1.24a3,3,0,0,1-.27,1c-.87,1.46-1.19,4-1.3,10a22.57,22.57,0,0,1,11.34,3.51c2.92,2,4.27,3.73,4.27,5.46a2.21,2.21,0,0,1-2.27,2.37c-1.19,0-1.84-.48-3.13-2.59A19,19,0,0,0,7.18,20.09Zm17.39-8.86a1.84,1.84,0,0,1-1.73,1.84c-.81,0-1.19-.27-1.62-1.13A9.55,9.55,0,0,0,16,9.88c-.21-.11-.32-.16-.32-.27s.65-.38,1.57-.38C21,9.23,24.57,11.34,24.57,13.55Zm5.94-3.13a1.84,1.84,0,0,1-1.73,1.84,1.54,1.54,0,0,1-1.56-1,10.16,10.16,0,0,0-5.51-4.59c-.16,0-.27-.16-.27-.27S22.09,6,23,6C26.84,6,30.51,8.15,30.51,10.42Z"/><path class="cls-1" d="M69.88,28.57c.27,1.18.54,2.37.81,3.61.48,2.06.86,3.78,1.19,5,.48,1.84,1,3.67,1.4,5.51a15.27,15.27,0,0,1,.48,2.43A2.08,2.08,0,0,1,72,47.2a3.74,3.74,0,0,1-2.54-1.3,4.15,4.15,0,0,1-1.13-3.13,148.82,148.82,0,0,0-1.68-15.18c-7.56,2.33-10.21,3.24-12.26,4.27a3.43,3.43,0,0,1-1.62.54c-1,0-2-.49-4.53-2.38-1.14-.81-1.46-1.13-1.46-1.45s.16-.49.32-.49a.76.76,0,0,1,.27.11,8.88,8.88,0,0,0,3.24.7c2.16,0,3.57-.27,15.72-3.19-.06-.59-.16-1-.16-1.08l-.38-2.26-.49-2.6c0-.16-.11-.54-.22-1.08L60.86,20a12.49,12.49,0,0,1-4,.86c-1.73,0-2.22-.16-4.11-1.62-1.4-1-1.45-1.08-1.45-1.4s.1-.49.27-.49a.37.37,0,0,1,.21.06,8,8,0,0,0,3.46.75c1.89,0,4.91-.59,9.5-1.83A42.69,42.69,0,0,0,63,8.86a3.51,3.51,0,0,0-3-2.27h-.33a.4.4,0,0,1-.16,0c-.16,0-.32-.21-.32-.43s.16-.43,1-1a3.63,3.63,0,0,1,2.43-1,8.74,8.74,0,0,1,3.46,1c1.35.59,1.51.75,1.51,1.35a4.21,4.21,0,0,1-.27,1.29,16.39,16.39,0,0,0-.32,3.19,41.91,41.91,0,0,0,.27,4.48,22.18,22.18,0,0,0,6.91-2.86A3.11,3.11,0,0,1,75.92,12a10,10,0,0,1,2.81.87c.92.37,1.3.81,1.3,1.4s-.22.65-2,.92c-1,0-4.54,1-10.32,2.64.49,3.3,1,6.11,1.3,7.19,3.62-.87,7-1.73,10.69-2.76,2.54-1.4,3.3-1.73,3.78-1.73a14.41,14.41,0,0,1,4,1.68c.86.48,1.19.92,1.19,1.46,0,.81-.38.91-2.43.91-3.29,0-8.21.65-16.8,2.22Z"/><path class="cls-1" d="M121.66,22.41c.06,9.67.17,14.8.43,18.41.11,1.14.17,2,.17,2.43,0,2.27-.81,4-2,4s-2.86-2.43-2.86-3.78a7.75,7.75,0,0,1,.16-1.41c.43-3,.87-15,.87-25.76,0-5.07-.17-6.85-.87-8A2.94,2.94,0,0,0,115,6.91c-.38,0-.54-.16-.54-.48s.16-.38.49-.49A14.47,14.47,0,0,1,118.26,5c.81,0,1.57.38,3.94,1.89.71.49,1,.87,1,1.24a3,3,0,0,1-.27,1c-.87,1.46-1.19,4-1.3,10A22.54,22.54,0,0,1,133,22.73c2.92,2,4.27,3.73,4.27,5.46A2.21,2.21,0,0,1,135,30.56c-1.19,0-1.83-.48-3.13-2.59a19,19,0,0,0-10.21-7.88Zm17.39-8.86a1.84,1.84,0,0,1-1.73,1.84c-.81,0-1.19-.27-1.62-1.13a9.55,9.55,0,0,0-5.24-4.38c-.21-.11-.32-.16-.32-.27s.65-.38,1.57-.38C135.49,9.23,139.05,11.34,139.05,13.55ZM145,10.42a1.84,1.84,0,0,1-1.73,1.84,1.54,1.54,0,0,1-1.56-1,10.12,10.12,0,0,0-5.51-4.59c-.16,0-.27-.16-.27-.27s.65-.38,1.51-.38C141.32,6,145,8.15,145,10.42Z"/><path class="cls-1" d="M184.36,28.57c.27,1.18.54,2.37.81,3.61.48,2.06.86,3.78,1.18,5,.49,1.84,1,3.67,1.41,5.51a15.27,15.27,0,0,1,.48,2.43,2.08,2.08,0,0,1-1.72,2.11A3.74,3.74,0,0,1,184,45.9a4.19,4.19,0,0,1-1.14-3.13,146.16,146.16,0,0,0-1.67-15.18c-7.56,2.33-10.21,3.24-12.26,4.27a3.43,3.43,0,0,1-1.62.54c-1,0-2-.49-4.53-2.38-1.14-.81-1.46-1.13-1.46-1.45s.16-.49.32-.49a.76.76,0,0,1,.27.11,8.88,8.88,0,0,0,3.24.7c2.16,0,3.57-.27,15.72-3.19-.06-.59-.17-1-.17-1.08l-.37-2.26-.49-2.6c0-.16-.11-.54-.22-1.08L175.34,20a12.49,12.49,0,0,1-4.05.86c-1.73,0-2.22-.16-4.11-1.62-1.4-1-1.45-1.08-1.45-1.4s.1-.49.27-.49a.37.37,0,0,1,.21.06,8,8,0,0,0,3.46.75c1.89,0,4.91-.59,9.5-1.83a42.69,42.69,0,0,0-1.67-7.45,3.51,3.51,0,0,0-3-2.27h-.33a.4.4,0,0,1-.16,0c-.16,0-.32-.21-.32-.43s.16-.43,1-1a3.63,3.63,0,0,1,2.43-1,8.74,8.74,0,0,1,3.46,1c1.35.59,1.51.75,1.51,1.35a4.21,4.21,0,0,1-.27,1.29,16.39,16.39,0,0,0-.32,3.19,41.91,41.91,0,0,0,.27,4.48,22.28,22.28,0,0,0,6.91-2.86A3.11,3.11,0,0,1,190.4,12a10,10,0,0,1,2.81.87c.92.37,1.3.81,1.3,1.4s-.22.65-2,.92c-1,0-4.54,1-10.32,2.64.49,3.3,1,6.11,1.3,7.19,3.62-.87,7-1.73,10.69-2.76,2.54-1.4,3.29-1.73,3.78-1.73A14.41,14.41,0,0,1,202,22.25c.86.48,1.19.92,1.19,1.46,0,.81-.38.91-2.43.91-3.3,0-8.21.65-16.8,2.22Z"/><path class="cls-1" d="M241.33,33.91c-.81,2.32-1.68,3.19-3,3.19-3,0-5.72-3.62-5.72-7.56,0-4.65,2.81-8.43,6.26-8.43a4.91,4.91,0,0,1,2.16.49c-.05-1.46-.05-2.32-.05-3.29,0-1.25,0-1.46.05-2.76-8,1.24-13.07,2.59-17.55,4.75a4.41,4.41,0,0,1-2.16.71c-.81,0-1.94-.65-3.24-1.84-.92-.86-1.24-1.94-1.24-4.05,0-.43.11-.65.32-.65s.22.06.27.27A3.46,3.46,0,0,0,221,17.06c1.19,0,2.16-.16,7.29-1.13,5.4-1,9.07-1.57,12.69-1.94-.27-7.08-.27-7.62-.65-8.48a3.11,3.11,0,0,0-3.08-1.84c-.21,0-.38,0-.38-.21,0-.44,2.54-1.46,3.73-1.46,1.51,0,4.86,2.1,4.86,3a2.25,2.25,0,0,1-.32,1c-.81,2-.92,2.33-1.3,7.62,2.81-.49,3.46-.54,7.24-1.08a38.54,38.54,0,0,0-3.46-2.65c-.49-.32-.59-.43-.59-.59a.37.37,0,0,1,.38-.33.73.73,0,0,1,.37.17C251,10.85,253,11.61,255,11.77A6.4,6.4,0,0,1,258.88,13a2.9,2.9,0,0,1,1.45,1.94,1.39,1.39,0,0,1-1.24,1.35,7.52,7.52,0,0,1-.81-.1A55.05,55.05,0,0,0,248.62,15a41.93,41.93,0,0,0-4.92.33c-.27,3.56-.32,4.69-.32,5.83V23c1.78,1.78,2.21,3.35,2.21,7.94,0,7.29-2.1,11.82-7.07,15.33-2.38,1.68-5.94,3-7.94,3a.44.44,0,0,1-.49-.43c0-.22.11-.27.54-.44,6.75-2.32,10.48-7.07,11.18-14.31Zm-4.86-9.66a7.85,7.85,0,0,0-1.57,4.8c0,3,1.4,5.29,3.13,5.29s2.7-2.53,2.7-8.15c0-2.11-.48-3.08-1.67-3.19A4,4,0,0,0,236.47,24.25Z"/><path class="cls-1" d="M301.27,42.12c2.43-1.19,3.45-2,4.48-3.67a11.62,11.62,0,0,0,1.62-5.94c0-5.35-3-8.32-8.32-8.32-5,0-8.42,1.73-11.93,6a25.11,25.11,0,0,0-4.05,6.37A2.09,2.09,0,0,1,281.12,38c-.91,0-2.32-1.62-2.32-2.76,0-.59.43-1.29,1.51-2.37,7.13-7.4,7.62-8,15.34-18.26,3.13-4.05,3.19-4.1,3.19-5a1.16,1.16,0,0,0-1.19-1.25c-1.68,0-3,.71-8.53,4.59-1,.76-1.52,1-2.06,1a4.13,4.13,0,0,1-2.53-1.57,4.21,4.21,0,0,1-1-2.92c0-1,.11-1.29.44-1.29.16,0,.16,0,.27.48A1.91,1.91,0,0,0,286.31,10c2.21,0,8.8-2.32,11.18-3.94a2.48,2.48,0,0,1,1.83-.65c2.16,0,6,2.6,6,4.11a1.24,1.24,0,0,1-.87,1.19c-2.32,1-5.34,3.72-9.77,8.69-2.65,3-3.4,3.94-3.4,4.37,0,.22.16.49.32.49a.83.83,0,0,0,.27-.11.83.83,0,0,0,.27-.11l.76-.32a20.05,20.05,0,0,1,7.77-1.62c6.37,0,10.91,4.37,10.91,10.48a11.35,11.35,0,0,1-4.05,8.91,18.91,18.91,0,0,1-11.66,4,10.41,10.41,0,0,1-6.48-2,3.86,3.86,0,0,1-1.46-3.24c0-2.49,2.1-4.11,5.29-4.11,3.62,0,6.26,1.79,7.83,5.35l.05.16Zm-3.46.81c-.59-3.29-2.16-5-4.64-5a2.2,2.2,0,0,0-2.49,2.16c0,1.78,2.05,3,5.19,3a9.18,9.18,0,0,0,1.62-.11Z"/><path class="cls-1" d="M335.67,17.55v13c0,.76-1.19,1.52-2.38,1.52-.49,0-.87-.17-.87-.44V14.31l3.68,1.94h6.26V10.64h-4.59c-2.59,0-4.37,0-8.75.21l-.64-1.78c4.64.22,6.37.27,9.39.27h4.59v-9L346.3.7c.76.11,1.19.54,1.19,1.19a1.17,1.17,0,0,1-.65.92l-1.18.86V9.34h7.12L356,5.78l4.16,3.35a1.09,1.09,0,0,1,.43.75c0,.43-.38.76-1,.76H345.66v5.61h6.85l1.62-2.1,3.24,2.54a1.18,1.18,0,0,1,.49.86.9.9,0,0,1-.38.65l-.92.65v9.5c0,1.19-2.05,3-3.35,3-.26,0-.37-.16-.48-.81a3.43,3.43,0,0,0-.54-1.24c-.06,0-.6-.21-1.46-.48L347.6,27.7l0-.7H351c1.89,0,2.32-.22,2.27-1.3V17.55h-7.61V29.86c7.23,2.43,11.44,5.62,11.44,8.7,0,1.29-.86,2.43-1.83,2.43s-1.08-.17-2.86-3c-2.16-3.08-4.92-5.78-6.75-6.64V47.9c0,.86-.28,1.24-1.19,1.46a3.8,3.8,0,0,1-1.25.21c-.54,0-.86-.21-.86-.65V32.18A49.44,49.44,0,0,1,332.1,43c-2.38,2-3.56,2.81-3.94,2.81a.39.39,0,0,1-.43-.43c0-.22,0-.22,1.94-2.11a65.19,65.19,0,0,0,7.67-9.18c1.08-1.51,1.78-2.59,2.1-3.13,2.44-4.59,2.81-5.45,2.92-6.53V17.55Zm31-9.67c.71.06,1.08.44,1.08,1a1.14,1.14,0,0,1-.64,1l-1.41,1V35.42c0,.65-1.4,1.35-2.59,1.35-.54,0-.92-.21-.92-.59V7.24ZM364,44.06l4.11.06.21.05c2.76-.05,3.19-.21,3.19-1.46V1.35l4.53.49a1.24,1.24,0,0,1,1.25,1.08,1.69,1.69,0,0,1-.92,1.18l-1.25.76V45.31c0,1.18-.37,1.72-2.1,2.8a5.18,5.18,0,0,1-2.16.87c-.54,0-.76-.27-.86-1a2.46,2.46,0,0,0-.33-1.08c-.11-.16-.38-.27-2.38-.81L364,45.14Z"/><path class="cls-1" d="M386.26,14.47c3.78.38,7,3.19,7,6.16a2.25,2.25,0,0,1-1.89,2.27,1.75,1.75,0,0,1-1.19-.54c-.32-.33-.32-.33-1.46-4.05A6.36,6.36,0,0,0,385.83,15Zm3.13,19,8.91-20.9.87.6-6,20.08a11.26,11.26,0,0,0-.59,3.19c0,.76,0,.76,1.67,7.29a2,2,0,0,1,.06.65,2.69,2.69,0,0,1-2.76,2.48,2.19,2.19,0,0,1-2.05-2.21c0-.16.16-1.24.38-2.86a16.61,16.61,0,0,0,.11-1.73c0-2.16-.33-3.51-1.14-4.48-.48-.65-1.08-.87-2.91-1.08v-1Zm-.1-31.64c2.8.43,4,.91,5.5,2.16a4.44,4.44,0,0,1,1.79,3.4,2.31,2.31,0,0,1-2.16,2.54c-1.14,0-1.41-.38-2.06-2.92A7.63,7.63,0,0,0,389,2.32Zm7,26.89L396,27.11c1.51,0,2.8.05,3.34.11,2,.05,3.35.1,3.89.1h2.05V22.63l3.51.37c.6.06.92.22.92.54a1.09,1.09,0,0,1-.54.87l-.86.54v2.37h3.56l2.59-2.7,3.24,2.65a1,1,0,0,1,.44.81.53.53,0,0,1-.6.54h-11L406,33.21h5.07l1.24-1.94,3,3a.91.91,0,0,1,.33.64c0,.17-.22.38-.6.49l-.91.27-.27,1.62c-.87,6.26-1.52,8.32-3.14,9.83a5.19,5.19,0,0,1-2.64,1.13c-.33,0-.49-.32-.54-.86-.06-1.19-.11-1.35-.27-1.51a1.69,1.69,0,0,0-.7-.44l-3.24-1.35.48-.59,2.76.43a8.56,8.56,0,0,0,1.13.11c2.38,0,3-1.67,3.56-9.5h-5.4c-1,4.86-2.43,7.66-5.07,10.2-1.89,1.84-5.62,4.27-6.43,4.27a.37.37,0,0,1-.38-.33c0-.27.22-.48.92-1,6.32-5.08,8.32-9.45,8.7-19Zm7.5-21.82h.65A66.44,66.44,0,0,0,405.38,0l4.32,1.13a.64.64,0,0,1,.54.6.92.92,0,0,1-.65.81l-1,.43-2.16,3.94h4.21l1-1.89,3.24,2.86c.33.27.38.33.38.49s-.11.32-.38.49l-1.08.54V22.84c0,.65-.81,1.08-2.05,1.14-.49,0-.81-.27-.81-.65V21.65h-8v1.84c0,.54-.11.7-.87.86a4.53,4.53,0,0,1-1.35.33.57.57,0,0,1-.64-.54V4.91Zm7.13,6.75V8.21h-8v5.45Zm0,6.7V15h-8v5.4ZM425.79,1.84c.76.21,1.24.7,1.24,1.18s-.43.92-1.13,1.14l-1.19.43a98.35,98.35,0,0,1-3.19,9.67h7l2.6-3.62L435,14a.85.85,0,0,1,.38.7c0,.49-.27.81-.7.81h-4.81c-.75,9.83-1.67,14.1-4.15,19.71a26.21,26.21,0,0,0,9.88,8.32,9.4,9.4,0,0,0-4.05,3.56c-4.16-3.83-5.62-5.45-7.62-8.64-3.34,4.21-4.69,5.51-8,7.72A22.28,22.28,0,0,1,410.62,49a.42.42,0,0,1-.38-.43c0-.27.32-.54,1.29-1.14,5.35-3.72,8.91-7.56,11-12-1.68-3.51-2.49-6.69-3.89-15.12l-1.73,2.81c-.32.54-.7,1-.92,1a.4.4,0,0,1-.32-.37,1.38,1.38,0,0,1,.16-.6C418.39,17.44,420,11,421.42.59ZM421,15.55l-1.24,2.7a45.94,45.94,0,0,0,4.05,13.88c1.62-5.08,1.89-7,2.65-16.58Z"/><path class="cls-1" d="M470.29,33.91c-.81,2.32-1.68,3.19-3,3.19-3,0-5.72-3.62-5.72-7.56,0-4.65,2.81-8.43,6.26-8.43a4.91,4.91,0,0,1,2.16.49c0-1.46,0-2.32,0-3.29,0-1.25,0-1.46,0-2.76-8,1.24-13.07,2.59-17.55,4.75a4.41,4.41,0,0,1-2.16.71c-.81,0-1.94-.65-3.24-1.84-.92-.86-1.24-1.94-1.24-4.05,0-.43.11-.65.32-.65s.22.06.27.27a3.46,3.46,0,0,0,3.57,2.32c1.19,0,2.16-.16,7.29-1.13,5.4-1,9.07-1.57,12.69-1.94-.27-7.08-.27-7.62-.65-8.48a3.11,3.11,0,0,0-3.08-1.84c-.21,0-.38,0-.38-.21C465.8,3,468.34,2,469.53,2c1.51,0,4.86,2.1,4.86,3a2.25,2.25,0,0,1-.32,1c-.81,2-.92,2.33-1.3,7.62,2.81-.49,3.46-.54,7.24-1.08a38.54,38.54,0,0,0-3.46-2.65c-.49-.32-.59-.43-.59-.59a.36.36,0,0,1,.37-.33.72.72,0,0,1,.38.17C480,10.85,482,11.61,484,11.77A6.4,6.4,0,0,1,487.84,13a2.9,2.9,0,0,1,1.45,1.94,1.39,1.39,0,0,1-1.24,1.35,7.52,7.52,0,0,1-.81-.1A55.05,55.05,0,0,0,477.58,15a41.93,41.93,0,0,0-4.92.33c-.27,3.56-.32,4.69-.32,5.83V23c1.78,1.78,2.21,3.35,2.21,7.94,0,7.29-2.1,11.82-7.07,15.33-2.38,1.68-5.94,3-7.94,3a.44.44,0,0,1-.49-.43c0-.22.11-.27.54-.44,6.75-2.32,10.48-7.07,11.18-14.31Zm-4.86-9.66a7.85,7.85,0,0,0-1.57,4.8c0,3,1.4,5.29,3.13,5.29s2.7-2.53,2.7-8.15c0-2.11-.48-3.08-1.67-3.19A4,4,0,0,0,465.43,24.25Z"/><path class="cls-1" d="M530.23,42.12c2.43-1.19,3.45-2,4.48-3.67a11.62,11.62,0,0,0,1.62-5.94c0-5.35-3-8.32-8.32-8.32-5,0-8.42,1.73-11.93,6A25.11,25.11,0,0,0,512,36.56,2.09,2.09,0,0,1,510.08,38c-.91,0-2.32-1.62-2.32-2.76,0-.59.43-1.29,1.51-2.37,7.13-7.4,7.62-8,15.34-18.26,3.13-4.05,3.19-4.1,3.19-5a1.16,1.16,0,0,0-1.19-1.25c-1.68,0-3,.71-8.53,4.59-1,.76-1.52,1-2.06,1a4.13,4.13,0,0,1-2.53-1.57,4.21,4.21,0,0,1-1-2.92c0-1,.11-1.29.44-1.29.16,0,.16,0,.27.48a1.91,1.91,0,0,0,2,1.35c2.21,0,8.8-2.32,11.18-3.94a2.48,2.48,0,0,1,1.83-.65c2.16,0,6,2.6,6,4.11a1.24,1.24,0,0,1-.87,1.19c-2.32,1-5.34,3.72-9.77,8.69-2.65,3-3.4,3.94-3.4,4.37,0,.22.16.49.32.49a1801494048948.36,1801494048948.36,0,0,0,.54-.22l.76-.32a20.05,20.05,0,0,1,7.77-1.62c6.37,0,10.91,4.37,10.91,10.48a11.35,11.35,0,0,1-4,8.91,18.91,18.91,0,0,1-11.66,4,10.41,10.41,0,0,1-6.48-2,3.86,3.86,0,0,1-1.46-3.24c0-2.49,2.1-4.11,5.29-4.11,3.62,0,6.26,1.79,7.83,5.35l0,.16Zm-3.46.81c-.59-3.29-2.16-5-4.64-5a2.2,2.2,0,0,0-2.49,2.16c0,1.78,2.05,3,5.19,3a9.18,9.18,0,0,0,1.62-.11Z"/><path class="cls-1" d="M129.12,84.41a4.91,4.91,0,0,1-.71.38,54,54,0,0,1-8.64,17.82,28,28,0,0,1-8.21,7.45,6.26,6.26,0,0,1-2.21.87.54.54,0,0,1-.54-.44c0-.16.06-.21.65-.64a29.44,29.44,0,0,0,9.72-11.29,40.06,40.06,0,0,0,3.67-9.94,31,31,0,0,0,.92-5.23,1.77,1.77,0,0,0-1.46-2c-.16-.06-.27-.16-.27-.27,0-.33.49-.65,1-.65,1.35,0,3.62,1.19,5.73,3,3.94-2.32,7.88-5.83,7.88-7.07,0-.65-1-1-3-1a114,114,0,0,0-11.67,1.4,43.72,43.72,0,0,0-8.75,2.49c-1,.48-1.18.54-1.45.54-1.14,0-3-1.24-4-2.65-.65-1-.76-1.24-.86-3.13v-.32a.48.48,0,0,1,.48-.49c.22,0,.27,0,.49.49.38,1,2.32,1.94,3.83,1.94.43,0,1.08,0,2-.11.48,0,1.62-.16,3.34-.27s3.25-.21,3.79-.27c1.94-.21,3.88-.48,5.88-.7,8.05-.86,8.43-.92,11.45-1.84a5.1,5.1,0,0,1,.81-.1c.76,0,1.73.81,3.35,2.8.59.76,1,1.25,1.19,1.46.75.76.91,1,.91,1.57s-.37.86-1.18.92c-2.87.27-3.68.54-7.13,2.26-2,1-2.54,1.19-5.35,2.43Z"/><path class="cls-1" d="M195.05,94.78c3.13,2.48,4.81,5.08,4.81,7.45a2.59,2.59,0,0,1-2.38,2.81c-1.08,0-1.78-.7-2.48-2.54-2-5.34-6.38-10.1-11.24-12.09a44.12,44.12,0,0,1-16.14,13.71c-2.76,1.41-6.27,2.81-7.13,2.81-.38,0-.81-.32-.81-.65s.16-.32,1-.65c5.18-2,11.93-7,16.74-12.42A50.94,50.94,0,0,0,185,81.66c1.41-2.86,1.95-4.27,1.95-4.92,0-.48-.38-.81-1-.81-1.89,0-7.94,1.62-12.86,3.41-.91.37-1,.37-1.18.37-.49,0-.54,0-2.27-1.29a2.64,2.64,0,0,1-1.41-2.59c0-1,.17-1.46.54-1.46.11,0,.22.11.28.27.32.81,1.94,1.4,3.83,1.4a86.25,86.25,0,0,0,10.42-1.62,11.41,11.41,0,0,0,4.32-1.78,1.43,1.43,0,0,1,.87-.32c.54,0,1.18.37,3.24,1.94,1.45,1.13,1.72,1.4,1.72,1.84,0,.21-.16.37-.65.7-.32.21-.53.38-1.13.81a77.33,77.33,0,0,1-7.24,11.88A24.73,24.73,0,0,1,195.05,94.78Z"/><path class="cls-1" d="M228,84.68V83c-.05-1-.05-1.72-.05-2a4.38,4.38,0,0,0-3.46-4.43c-.27-.11-.43-.22-.43-.33,0-.32,1.62-.75,2.81-.75s2.37.59,4.42,2.1a8.28,8.28,0,0,0,1,.76c.65.43.86.65.86.92s0,.16-.32.7a9.65,9.65,0,0,0-1.08,4.1c-.43,4.32-.65,7.67-.65,10.1,0,3.73.16,4.27,1.24,4.27,2.27,0,7.35-2.59,12.64-6.48,6-4.43,12.53-10.69,15.66-15.07.49-.7.65-.81.81-.81s.49.38.49.65a18.59,18.59,0,0,1-2.11,3.78,61.5,61.5,0,0,1-12,13,60.77,60.77,0,0,1-12.21,7.94,11.63,11.63,0,0,0-3.61,2.49c-.49.54-.81.75-1,.75a9.16,9.16,0,0,1-2.27-1.51,4.18,4.18,0,0,1-1.62-2.11,1.76,1.76,0,0,1,.22-.81,7,7,0,0,0,.7-3Z"/><path class="cls-1" d="M288.68,85.6a67.89,67.89,0,0,0,8.32-.81c.05-.65.05-1.13.05-1.51,0-3.62-.64-5.46-2-5.56-6,2-8.86,2.64-12.42,2.64-.87,0-1.41-.21-1.41-.59,0-.16.16-.27.6-.33a5.47,5.47,0,0,0,.59-.16c.32,0,.7-.16,1.08-.21a41.89,41.89,0,0,0,11.34-4.38c4.91-2.64,5.67-3.18,5.67-4.1a2.17,2.17,0,0,0-.76-1.78c-.16-.11-.27-.22-.27-.33s.27-.21.54-.21c2.16,0,7.29,2.53,7.29,3.61,0,.49-.21.65-2.48,1.79a67.72,67.72,0,0,1-7.07,3.13c2.64,1.4,3.94,2.43,3.94,3.13,0,.11-.06.27-.11.54a5.44,5.44,0,0,0-.43,1.62c-.06,1.24-.11,2.38-.11,2.38,6.05-.71,8.7-1.25,10.26-2,.92-.49,1-.49,1.35-.49.76,0,1.46.33,3,1.24,2.21,1.41,2.59,1.79,2.59,2.38a1.35,1.35,0,0,1-1.35,1.24,9.72,9.72,0,0,1-1.19-.11,56.19,56.19,0,0,0-7.61-.64c-1.67,0-5.45.16-7.18.27-.76,5.5-1.68,8.69-3.46,12a26.33,26.33,0,0,1-12.36,11.34,6.35,6.35,0,0,1-2.65.87c-.38,0-.65-.22-.65-.49s.06-.32.87-.7c8.58-4.32,13.61-12.31,14.25-22.68-5.94.65-13.23,2-14.74,2.7a7.37,7.37,0,0,1-2.43.59,6.18,6.18,0,0,1-3.89-2.32,3.71,3.71,0,0,1-1-2.75c0-.22.11-.33.27-.33s.38.06.65.33c.65.75,2.48,1.24,4.7,1.24.59,0,.59,0,4.15-.27Z"/><path class="cls-1" d="M343.06,88c1.89,1.4,2.81,2.86,2.81,4.42,0,1.41-.75,2.33-1.89,2.33-1,0-1.3-.44-1.73-2-.7-2.48-3-5.51-4.64-6.15-.6-.27-.7-.33-.7-.54s.27-.38.7-.38C338.9,85.65,341.28,86.63,343.06,88Zm-2.81,23.54c-.54.11-.91.22-1.08.27a2.47,2.47,0,0,1-.54.11.74.74,0,0,1-.64-.6c0-.16.1-.21.32-.27a38.67,38.67,0,0,0,8.1-4.21,46.92,46.92,0,0,0,12.37-12A32.17,32.17,0,0,0,362.12,88a20,20,0,0,0,.87-3.94A2.23,2.23,0,0,0,361.53,82c-.38-.11-.49-.21-.49-.38,0-.37.65-.59,1.57-.59a4.07,4.07,0,0,1,3.13,1.57c1.79,1.83,2.38,2.59,2.38,3.07s-.22.71-1.35,1.57C361.91,98.78,350.51,109.25,340.25,111.52Zm14-22.84A2.18,2.18,0,0,1,352.19,91a1.36,1.36,0,0,1-1.4-1.25c-.49-3-2.87-6.75-4.81-7.61-.22-.11-.32-.22-.32-.38s.21-.32.54-.32C349.65,81.39,354.24,85.49,354.24,88.68Z"/><path class="cls-1" d="M392.47,108.71A56.35,56.35,0,0,0,409.05,97.1a45.33,45.33,0,0,0,9.4-12.69,19.27,19.27,0,0,0,2-4.8,1.27,1.27,0,0,0-1.3-1.19,9.6,9.6,0,0,0-1,.11c-.16,0-1.29.27-2.43.43-.91.16-1.67.27-2.1.32a4.6,4.6,0,0,1-1.08.16,4.22,4.22,0,0,1-2.11-.75,53.16,53.16,0,0,1-8.91,10.85c-2.59,2.38-6.16,4.81-7,4.81-.32,0-.59-.16-.59-.38,0-.38.11-.49,1.45-1.46,2.27-1.56,5.89-5.72,8.86-10.1,2.27-3.45,3.67-6.53,3.67-8.31a3.46,3.46,0,0,0-2-3.35c-.22,0-.38-.22-.38-.32,0-.27.59-.49,1.46-.49a6.43,6.43,0,0,1,3.78,1.35c1.94,1.3,2.37,1.73,2.37,2.48,0,.33-.05.44-.38.81a10.32,10.32,0,0,0-.91,1.35c-.38.87-.54,1.14-.76,1.57a3.7,3.7,0,0,0,1.3.22,35,35,0,0,0,6.48-1.19,10.64,10.64,0,0,0,2.05-1c.91-.6,1.24-.71,1.56-.71.6,0,1.3.44,3.14,2,1.62,1.35,1.83,1.57,1.83,2.05s-.21.65-.81.87a15.37,15.37,0,0,0-1.73.75c-7.66,15.34-16.79,23.87-31.32,29.22a3.76,3.76,0,0,0-.75.27,3.3,3.3,0,0,1-.49.11c-.43,0-1-.44-1-.81,0-.17.11-.27.75-.44Z"/></g></g></svg>