<svg xmlns="http://www.w3.org/2000/svg" viewBox="0 0 821.07 49.57"><defs><style>.cls-1{fill:#fff;}</style></defs><title>title-dokidoki</title><g id="レイヤー_2" data-name="レイヤー 2"><g id="レイヤー_1-2" data-name="レイヤー 1"><path class="cls-1" d="M8.32,30.83c-.49,0-1.62.06-3.3.11-.48,0-1.83,0-3.4.06L1,29.27c3.94.16,5.73.21,7.24.27h3.45V21.87l4.05.32c.76.06,1.25.49,1.25,1a1.42,1.42,0,0,1-.81,1.13L14.9,25v4.59h2.16l2.49-3.3,3.62,2.87a1.67,1.67,0,0,1,.64,1.08.69.69,0,0,1-.64.64H14.9v3.3a18.84,18.84,0,0,1,5.35,2A4.81,4.81,0,0,1,23,40.07,2,2,0,0,1,21.17,42,2,2,0,0,1,20,41.58a18.91,18.91,0,0,1-1.67-2.7,8.75,8.75,0,0,0-3.46-3.24v12.1c0,.81-1.18,1.51-2.59,1.51-.48,0-.65-.27-.65-.87V35.8a46.15,46.15,0,0,1-7,7.4C2.65,44.93,1.13,46,.54,46A.54.54,0,0,1,0,45.42c0-.28.27-.6,1.3-1.41a43.19,43.19,0,0,0,9.45-13.18Zm6-21.92c-.32,0-2.26.05-5.13.16-.64.06-2.59.06-4.69.11L3.73,7.29c2.48.11,4.48.16,5.29.16,2.64.11,4.43.16,5.34.16h8.91v-7l3.89.16c.76,0,1.14.32,1.14.92a1.27,1.27,0,0,1-.44,1l-1.29,1V7.61h13l2.92-3.4,3.83,3a1.58,1.58,0,0,1,.7,1c0,.43-.27.65-.86.65H27.49c5.61,5.29,11.82,8.21,21.11,9.83a10.4,10.4,0,0,0-3.67,4.16c-8.43-3.35-14-7.35-18.36-13.23v13.6c0,.76-1.08,1.35-2.54,1.35-.54,0-.76-.27-.76-.81V11.07A66,66,0,0,1,9.45,20.41c-3.94,2.05-6.53,3.24-7,3.24A.45.45,0,0,1,2,23.22c0-.27.54-.65,4.05-2.65A52.44,52.44,0,0,0,20.25,8.91ZM26.3,31l-.54-1.68c5.4.22,5.67.22,7.24.22h1.56V22.3l4.43.27c.48.06.92.43.92.76a1.34,1.34,0,0,1-.7,1l-1.52.87v4.32h4.59l2.86-3.3L49,29.16a1.28,1.28,0,0,1,.59,1,.65.65,0,0,1-.7.7H37.8c1.73,4.27,6.43,8.43,12.91,11.29A8.85,8.85,0,0,0,47,45.52a29,29,0,0,1-9.35-11.88V48c0,.75-.81,1.13-2.43,1.13-.48,0-.7-.22-.7-.76V35.05a73.61,73.61,0,0,1-8.26,8.1c-3,2.48-5.08,3.94-5.62,3.94a.52.52,0,0,1-.43-.49c0-.21,0-.21,1.78-1.73a75,75,0,0,0,11.56-14Z"/><path class="cls-1" d="M66.85,7.88H85.48c-.43-3.45-.48-4-.75-7.88l4.32.27c1.08,0,1.62.38,1.62.92A1.53,1.53,0,0,1,90,2.32L88.45,3.51a36.79,36.79,0,0,0,.27,4.37h9.51l3-3.56,4.54,3.83a.7.7,0,0,1,.21.49.54.54,0,0,1-.54.54H88.83c.43,5.4,1.57,10.31,2.86,12.85a61.15,61.15,0,0,0,5-9.18l3.62,2.32a1.33,1.33,0,0,1,.48,1c0,.59-.43,1-1.13,1.08l-1.24.16A57.64,57.64,0,0,1,93,25a14.49,14.49,0,0,0,8.86,6.21,7.22,7.22,0,0,0,1.19-2.27l1.83-4.32.81.16L105,29.32a8.69,8.69,0,0,0-.11,1.14c0,1.13,0,1.18,1.4,3a1.7,1.7,0,0,1,.27.91c0,.54-.75.92-1.83.92a17.87,17.87,0,0,1-9.29-3.35,19.22,19.22,0,0,1-4.54-4.59c-3.13,3.08-7.18,6.21-8,6.21a.47.47,0,0,1-.48-.48c0-.27,0-.27,1.67-1.84a46.9,46.9,0,0,0,5.45-6.15C87.21,20,86.62,17.5,85.59,9.18H66.1c.05,2.38.1,3.67.1,5.24,0,7.4-1,12.2-3.56,16.58-1.57,2.64-4,5.61-4.59,5.61a.37.37,0,0,1-.38-.38c0-.32.11-.48.76-1.56a30.55,30.55,0,0,0,3.67-10,57.94,57.94,0,0,0,.7-10.47c0-2.16,0-4.38-.16-8.43ZM65.18,35.42a13.38,13.38,0,0,1,.48,3.51c0,4.7-2.1,8.43-4.69,8.43a1.84,1.84,0,0,1-1.79-1.78c0-.76,0-.76,2.76-3.95,1.35-1.62,1.83-2.75,2.64-6.1Zm16.2-24.08,3.51,3.13a.59.59,0,0,1,.27.49c0,.27-.16.43-.49.43H74.52c-1.4,0-1.4,0-6.8.16l-.44-1.67c3.62.16,6,.21,7.24.21h4.37Zm-8.8,8.37h6.85l1.3-2.11,3.29,3a1.06,1.06,0,0,1,.33.65.7.7,0,0,1-.33.54l-1.24.6V29.7c0,.54-.21.81-.81,1.08a7,7,0,0,1-1.4.38.61.61,0,0,1-.65-.6V28.13h-8v2.7c0,.76-1.24,1.52-2.38,1.52-.38,0-.54-.33-.54-.92V17.71ZM93,37.53l-.38,4.37L92.5,43c0,.6.17.76,1.46,1.73.33.22.54.49.54.65A2.39,2.39,0,0,1,93,47.09c-1.35.48-5.24.75-11.12.75-4.59,0-8.1-.27-9.18-.64a2.64,2.64,0,0,1-1.95-2.54V34.24l3.57.27c1.08.05,1.67.43,1.67,1.13a1.15,1.15,0,0,1-.75,1L74,37.31v5.24c.06,1.3.17,1.62.65,1.84a6.24,6.24,0,0,0,1.51.32h3.73l3.4.06,4.59-.11c1.73-.16,2.22-.65,3-3.3l1-4ZM79.92,26.84V21h-8v5.83Zm-2,6.37a12.1,12.1,0,0,1,5.13,1.57c2,1.18,3.13,2.8,3.13,4.42a2.15,2.15,0,0,1-1.89,2.33,1.72,1.72,0,0,1-1.35-.65c-.21-.22-.21-.22-1.18-2.59-.65-1.62-1.62-2.81-3.89-4.59ZM91.91.86c4.21.6,6.53,2.11,6.53,4.22A1.75,1.75,0,0,1,96.82,7c-.7,0-1.19-.38-1.67-1.3a8.12,8.12,0,0,0-3.46-4ZM96,35.59c3.24,1.35,4.11,1.83,5.51,3,2.65,2.1,4,4.32,4,6.31A2,2,0,0,1,103.68,47c-.92,0-1.4-.65-2.16-2.6a19.52,19.52,0,0,0-5.78-8Z"/><path class="cls-1" d="M128.79,35.26v2.59a.69.69,0,0,1-.21.6,5.68,5.68,0,0,1-2.44.7.68.68,0,0,1-.75-.76v-23l4.1,2.32h19.88l1.56-2.43,3.24,3.46a1.25,1.25,0,0,1,.27.7c0,.22-.27.49-.59.65l-.87.32v16.2c0,.65-1.24,1.24-2.64,1.24a.78.78,0,0,1-.81-.7V35.26h-3.3l0,8.75c0,1,.27,1,4.7,1,7.45,0,7.56-.06,8.42-2.76L161,36.77l.86.27-.16,5.67a3.62,3.62,0,0,0,.16,1.08,3.61,3.61,0,0,0,.32.44c.44.37.81.7,1.25,1a.69.69,0,0,1,.1.38c0,1.84-2.91,2.43-12.15,2.43-7.77,0-8.58-.32-8.58-3.51V35.26H137.7c-2.11,7-4.48,9.72-10.37,11.88a46.51,46.51,0,0,1-10.53,2.43c-.43,0-.75-.16-.75-.38,0-.43.43-.54,3.67-1.35,8.75-2.32,12.85-5.94,14.25-12.58ZM121.55,8.75a18.26,18.26,0,0,1,.71,2.75H147c1.19-2.91,1.3-3.29,3-10.85l4.59,2.16a1,1,0,0,1,.59.86,1.36,1.36,0,0,1-1.19,1.19l-.91.27-4.27,6.37h8.53l1.89-2.59,4.16,4.32a2.82,2.82,0,0,1,.76,1.57c0,.75-.49,1-1.89,1.08l-2.16,0-4.43,3.29-.7-.48,2.48-5.94h-35.1v1.29c0,3.35-1.78,6-4,6a1.9,1.9,0,0,1-2-1.84c0-1,.11-1.19,2.38-3.45a9.19,9.19,0,0,0,2-6.05Zm3.3-7.35c4.05,1.08,7.45,4.27,7.45,7a2.1,2.1,0,0,1-2.05,2.11c-1.08,0-1.19-.17-2.27-3.41A10.94,10.94,0,0,0,124.58,2ZM149.53,23V19H128.79V23Zm0,5.4v-4.1H128.79v4.1Zm0,5.62V29.65H128.79V34ZM134,.54c.49.11,1,.22,1.14.27,2.43.54,3.18.86,4.54,1.94a6.27,6.27,0,0,1,2.75,4.54,2.17,2.17,0,0,1-2,2.38c-1.08,0-1.08,0-2.91-4.65a9,9,0,0,0-3.62-3.83Z"/><path class="cls-1" d="M201.31,20.52a4.35,4.35,0,0,1-.7.38A54,54,0,0,1,192,38.72a28.09,28.09,0,0,1-8.21,7.45,6.26,6.26,0,0,1-2.21.87.54.54,0,0,1-.54-.44c0-.16.05-.21.65-.64a29.44,29.44,0,0,0,9.72-11.29,40.06,40.06,0,0,0,3.67-9.94,32,32,0,0,0,.92-5.24,1.77,1.77,0,0,0-1.46-2c-.16-.06-.27-.17-.27-.27,0-.33.48-.65,1-.65,1.35,0,3.62,1.19,5.72,3,3.95-2.32,7.89-5.83,7.89-7.08,0-.64-1-1-3-1a111.39,111.39,0,0,0-11.66,1.4,43.72,43.72,0,0,0-8.75,2.49c-1,.48-1.19.54-1.46.54-1.13,0-3-1.25-4-2.65-.65-1-.76-1.24-.87-3.13V9.77a.48.48,0,0,1,.49-.48c.22,0,.27.05.49.48.37,1,2.32,2,3.83,2,.43,0,1.08-.06,1.94-.11.49,0,1.62-.16,3.35-.27s3.24-.22,3.78-.27c1.95-.22,3.89-.49,5.89-.7,8-.87,8.42-.92,11.45-1.84a5.2,5.2,0,0,1,.81-.11c.75,0,1.72.81,3.34,2.81.6.76,1,1.24,1.19,1.46.76.76.92,1,.92,1.57s-.38.86-1.19.91c-2.86.27-3.67.54-7.13,2.27-2,1-2.53,1.19-5.34,2.43Z"/><path class="cls-1" d="M260.77,30.89c3.13,2.48,4.8,5.07,4.8,7.45a2.58,2.58,0,0,1-2.37,2.81c-1.08,0-1.78-.7-2.49-2.54-2-5.35-6.37-10.1-11.23-12.1a44.27,44.27,0,0,1-16.15,13.72c-2.75,1.4-6.26,2.81-7.12,2.81-.38,0-.81-.33-.81-.65s.16-.32,1-.65c5.19-2,11.94-7,16.74-12.42a50.62,50.62,0,0,0,7.56-11.55c1.41-2.87,1.95-4.27,1.95-4.92,0-.48-.38-.81-1-.81-1.9,0-7.94,1.62-12.86,3.4-.92.38-1,.38-1.18.38-.49,0-.54,0-2.27-1.29a2.63,2.63,0,0,1-1.41-2.6c0-1,.16-1.45.54-1.45.11,0,.22.1.27.27.33.81,2,1.4,3.84,1.4a86.25,86.25,0,0,0,10.42-1.62,11.41,11.41,0,0,0,4.32-1.78,1.43,1.43,0,0,1,.86-.33c.54,0,1.19.38,3.24,1.95,1.46,1.13,1.73,1.4,1.73,1.83,0,.22-.16.38-.65.71-.32.21-.54.37-1.13.81a77.33,77.33,0,0,1-7.24,11.88A24.73,24.73,0,0,1,260.77,30.89Z"/><path class="cls-1" d="M286.15,20.79V19.06c-.06-1-.06-1.73-.06-2a4.37,4.37,0,0,0-3.45-4.42c-.27-.11-.44-.22-.44-.33,0-.32,1.62-.75,2.81-.75s2.38.59,4.43,2.1a11.47,11.47,0,0,0,1,.76c.64.43.86.65.86.92s0,.16-.32.7a9.65,9.65,0,0,0-1.08,4.1c-.44,4.32-.65,7.67-.65,10.1,0,3.73.16,4.27,1.24,4.27,2.27,0,7.34-2.6,12.64-6.48,6-4.43,12.52-10.7,15.66-15.07.48-.7.64-.81.81-.81s.48.38.48.65a18.34,18.34,0,0,1-2.1,3.78,61.3,61.3,0,0,1-12.05,13,60.83,60.83,0,0,1-12.2,7.94A12,12,0,0,0,290.14,40c-.48.54-.81.76-1,.76a9.16,9.16,0,0,1-2.27-1.51,4.22,4.22,0,0,1-1.62-2.11,1.86,1.86,0,0,1,.21-.81,6.94,6.94,0,0,0,.71-3Z"/><path class="cls-1" d="M346.84,21.71a70,70,0,0,0,8.32-.81c0-.65,0-1.14,0-1.51,0-3.62-.64-5.46-2-5.57-6,2.06-8.85,2.65-12.42,2.65-.86,0-1.4-.22-1.4-.59,0-.17.16-.27.59-.33l.6-.16c.32-.05.7-.16,1.08-.22A41.85,41.85,0,0,0,353,10.8c4.91-2.65,5.67-3.19,5.67-4.1a2.21,2.21,0,0,0-.76-1.79c-.16-.1-.27-.21-.27-.32s.27-.22.54-.22c2.16,0,7.29,2.54,7.29,3.62,0,.49-.21.65-2.48,1.78a66.41,66.41,0,0,1-7.07,3.14c2.64,1.4,3.94,2.43,3.94,3.13,0,.11-.06.27-.11.54a5.44,5.44,0,0,0-.43,1.62c-.06,1.24-.11,2.37-.11,2.37,6.05-.7,8.69-1.24,10.26-2,.92-.49,1-.49,1.35-.49.76,0,1.46.32,3,1.24,2.21,1.41,2.59,1.78,2.59,2.38A1.35,1.35,0,0,1,375,23a9.72,9.72,0,0,1-1.19-.11,54.69,54.69,0,0,0-7.61-.65c-1.68,0-5.45.17-7.18.27-.76,5.51-1.68,8.7-3.46,12a26.31,26.31,0,0,1-12.37,11.34,6.28,6.28,0,0,1-2.64.87c-.38,0-.65-.22-.65-.49s.05-.32.86-.7c8.59-4.32,13.61-12.31,14.26-22.68-5.94.65-13.23,2-14.74,2.7a7.65,7.65,0,0,1-2.43.59A6.16,6.16,0,0,1,334,23.76,3.67,3.67,0,0,1,333,21c0-.22.11-.33.27-.33s.38.06.65.33c.64.75,2.48,1.24,4.69,1.24.6,0,.6,0,4.16-.27Z"/><path class="cls-1" d="M394.74,24.08c1.89,1.41,2.81,2.87,2.81,4.43,0,1.41-.76,2.32-1.89,2.32-1,0-1.3-.43-1.73-1.94-.7-2.48-3-5.51-4.64-6.16-.6-.27-.71-.32-.71-.54s.27-.37.71-.37C390.58,21.76,393,22.73,394.74,24.08Zm-2.81,23.55a8.85,8.85,0,0,0-1.08.27,2.59,2.59,0,0,1-.54.11.76.76,0,0,1-.65-.6c0-.16.11-.21.33-.27a39.16,39.16,0,0,0,8.1-4.21,47.23,47.23,0,0,0,12.37-12,32.41,32.41,0,0,0,3.34-6.75,20,20,0,0,0,.87-3.94,2.24,2.24,0,0,0-1.46-2.11c-.38-.11-.49-.22-.49-.38,0-.38.65-.59,1.57-.59a4.09,4.09,0,0,1,3.13,1.56c1.78,1.84,2.38,2.6,2.38,3.08s-.22.7-1.35,1.57C413.59,34.88,402.19,45.36,391.93,47.63Zm14-22.84a2.17,2.17,0,0,1-2.05,2.26,1.36,1.36,0,0,1-1.41-1.24c-.48-3-2.86-6.75-4.8-7.61-.22-.11-.33-.22-.33-.38s.22-.32.54-.32C401.33,17.5,405.92,21.6,405.92,24.79Z"/><path class="cls-1" d="M436.59,44.82a56.35,56.35,0,0,0,16.58-11.61,45.11,45.11,0,0,0,9.39-12.69,19.05,19.05,0,0,0,2-4.81,1.25,1.25,0,0,0-1.29-1.18c-.22,0-.6.05-1,.1-.16.06-1.3.27-2.43.44-.92.16-1.67.27-2.11.32a4.53,4.53,0,0,1-1.08.16,4.19,4.19,0,0,1-2.1-.75,53.77,53.77,0,0,1-8.91,10.85c-2.59,2.38-6.16,4.81-7,4.81-.33,0-.6-.17-.6-.38,0-.38.11-.49,1.46-1.46,2.27-1.57,5.89-5.72,8.86-10.1C450.58,15.07,452,12,452,10.21a3.45,3.45,0,0,0-2-3.35c-.21-.06-.38-.22-.38-.33,0-.27.6-.48,1.46-.48a6.41,6.41,0,0,1,3.78,1.35c2,1.29,2.38,1.73,2.38,2.48,0,.33-.06.43-.38.81a10.44,10.44,0,0,0-.92,1.35c-.38.87-.54,1.14-.75,1.57a3.63,3.63,0,0,0,1.29.21,34.35,34.35,0,0,0,6.48-1.18,9.82,9.82,0,0,0,2.05-1c.92-.59,1.25-.7,1.57-.7.59,0,1.3.43,3.13,2,1.62,1.35,1.84,1.57,1.84,2s-.22.65-.81.87a14.62,14.62,0,0,0-1.73.75C461.32,32,452.2,40.5,437.67,45.85a4.08,4.08,0,0,0-.76.27,2.74,2.74,0,0,1-.48.1c-.43,0-1-.43-1-.8,0-.17.1-.28.75-.44Z"/><path class="cls-1" d="M499.45,43.58c5.13-.22,6-.92,6-4.86v-26c0-3.13-1.4-4.1-6-4.1V6.86H517c6.8,0,11.93,1.4,15.5,4.26,4.21,3.35,6.64,8.86,6.64,15.07,0,11.72-8.59,19.12-22.14,19.12H499.45Zm10.85-4.7c0,3.78,1,4.64,5.62,4.64C526.82,43.52,533,37,533,25.6c0-11.13-6-17-17.5-17-3.94,0-5.24,1-5.24,3.94Z"/><path class="cls-1" d="M585.58,26c0,11.61-8.16,20.2-19.23,20.2-11.23,0-19.38-8.37-19.38-20a18.92,18.92,0,0,1,8.69-16.52,18.85,18.85,0,0,1,11.23-3.41C577.69,6.26,585.58,14.58,585.58,26ZM557.44,11.83c-3,3.07-4.43,7.5-4.43,13.71,0,12,4.76,18.79,13,18.79s13.39-7,13.39-18.63c0-11.34-4.59-17.65-12.91-17.65A12.92,12.92,0,0,0,557.44,11.83Z"/><path class="cls-1" d="M592.06,43.52h1c3.78,0,5.07-1,5.13-4v-27c.05-3.24-.87-3.84-6-4V6.86H609V8.53c-5,.06-5.94.7-6,4V27l15.39-14.47a3.4,3.4,0,0,0,1.3-2.38c0-1.19-.76-1.51-3.89-1.62V6.86h15V8.53c-4.32.22-6.43,1.08-9.45,3.89L612,21l14,19c1.68,2.48,3.73,3.51,7.24,3.67v1.68H617V43.52h.06c2.64,0,3.56-.43,3.56-1.72a3.29,3.29,0,0,0-.75-1.95L608.63,24.14,603,29.48V39.1c.06,3.67,1.14,4.42,5.94,4.42v1.79H592.06Z"/><path class="cls-1" d="M638.93,43.47c5.34,0,6.48-.81,6.48-4.54V12.74c.05-3.4-.92-4-6.48-4.1V6.86h17.55V8.64c-5.24,0-6.43.76-6.43,4.1V38.93c.06,3.84,1.14,4.59,6.43,4.54v1.84H638.93Z"/><path class="cls-1" d="M663,43.58c5.13-.22,6-.92,6-4.86v-26c0-3.13-1.41-4.1-6-4.1V6.86h17.55c6.8,0,11.93,1.4,15.5,4.26,4.21,3.35,6.64,8.86,6.64,15.07,0,11.72-8.59,19.12-22.14,19.12H663Zm10.85-4.7c0,3.78,1,4.64,5.62,4.64,10.91,0,17.12-6.53,17.12-17.92,0-11.13-6-17-17.5-17-3.94,0-5.24,1-5.24,3.94Z"/><path class="cls-1" d="M750.17,26c0,11.61-8.16,20.2-19.23,20.2-11.23,0-19.38-8.37-19.38-20a18.92,18.92,0,0,1,8.69-16.52,18.85,18.85,0,0,1,11.23-3.41C742.28,6.26,750.17,14.58,750.17,26ZM722,11.83c-3,3.07-4.43,7.5-4.43,13.71,0,12,4.76,18.79,13,18.79S744,37.37,744,25.7c0-11.34-4.59-17.65-12.91-17.65A12.92,12.92,0,0,0,722,11.83Z"/><path class="cls-1" d="M756.65,43.52h1c3.78,0,5.07-1,5.13-4v-27c0-3.24-.86-3.84-6-4V6.86h16.85V8.53c-5,.06-5.94.7-6,4V27L783,12.53a3.42,3.42,0,0,0,1.29-2.38c0-1.19-.76-1.51-3.89-1.62V6.86h15V8.53c-4.32.22-6.42,1.08-9.45,3.89L776.63,21l14,19c1.68,2.48,3.73,3.51,7.24,3.67v1.68H781.6V43.52h0c2.65,0,3.56-.43,3.56-1.72a3.29,3.29,0,0,0-.75-1.95L773.23,24.14l-5.67,5.34V39.1c.05,3.67,1.13,4.42,5.94,4.42v1.79H756.65Z"/><path class="cls-1" d="M803.52,43.47c5.34,0,6.48-.81,6.48-4.54V12.74c0-3.4-.92-4-6.48-4.1V6.86h17.55V8.64c-5.24,0-6.43.76-6.43,4.1V38.93c.06,3.84,1.14,4.59,6.43,4.54v1.84H803.52Z"/></g></g></svg>