<svg xmlns="http://www.w3.org/2000/svg" viewBox="0 0 621.86 30.99"><defs><style>.cls-1{isolation:isolate;}.cls-2{fill:#333;}</style></defs><title>dokidoki-athletic-title</title><g id="Layer_2" data-name="Layer 2"><g id="Layer_1-2" data-name="Layer 1"><g class="cls-1"><g class="cls-1"><path class="cls-2" d="M4.57,13.17l0,1.05c0,6.08.07,9.25.25,11.77.07.72.11,1.22.11,1.51,0,1.48-.54,2.56-1.23,2.56s-1.83-1.59-1.83-2.42A8.24,8.24,0,0,1,2,26.75c.32-1.91.58-9.69.58-16.49,0-3.2-.15-4.46-.54-5.11a1.78,1.78,0,0,0-1.7-.9C.11,4.25,0,4.14,0,4s.11-.25.29-.32a9.53,9.53,0,0,1,2.12-.58c.51,0,1,.25,2.49,1.22.5.33.68.54.68.8a1.69,1.69,0,0,1-.18.64c-.54.94-.76,2.56-.83,6.45a14.75,14.75,0,0,1,7.27,2.23c1.87,1.26,2.74,2.37,2.74,3.49a1.42,1.42,0,0,1-1.44,1.51c-.76,0-1.19-.32-2-1.65a12.54,12.54,0,0,0-6.55-5ZM15.69,8.53a1.18,1.18,0,0,1-1.11,1.15c-.51,0-.72-.18-1-.72a6.26,6.26,0,0,0-3.38-2.77c-.11,0-.18-.11-.18-.14s.43-.25,1-.25C13.39,5.8,15.69,7.13,15.69,8.53Zm3.82-2A1.14,1.14,0,0,1,18.43,7.7a1,1,0,0,1-1-.64,6.43,6.43,0,0,0-3.5-2.92c-.1,0-.18-.11-.18-.14s.36-.26,1-.26C17.17,3.74,19.51,5.11,19.51,6.55Z"/><path class="cls-2" d="M48.35,18.14c.18.79.36,1.55.54,2.31.32,1.44.64,2.77.75,3.2.33,1.15.61,2.34.94,3.53a12.37,12.37,0,0,1,.29,1.54,1.31,1.31,0,0,1-1.12,1.34,2.54,2.54,0,0,1-1.62-.83,2.69,2.69,0,0,1-.72-2,87.54,87.54,0,0,0-1.08-9.68,56,56,0,0,0-7.85,2.7,2,2,0,0,1-1,.36c-.69,0-1.34-.36-2.92-1.51-.72-.54-.94-.76-.94-1s.11-.29.22-.29.07,0,.18.07a5.39,5.39,0,0,0,2,.47c1.44,0,2.05-.11,10.11-2.05a6.23,6.23,0,0,1-.11-.69l-.28-1.44-.26-1.65c0-.11-.07-.36-.14-.72-1,.32-1.22.36-2.74.86a8.41,8.41,0,0,1-2.59.54,3.42,3.42,0,0,1-2.63-1c-.9-.69-.93-.72-.93-.94s.07-.29.18-.29a.14.14,0,0,1,.11,0,5.17,5.17,0,0,0,2.23.5,26.83,26.83,0,0,0,6.08-1.19A25,25,0,0,0,44,5.54a2.23,2.23,0,0,0-1.91-1.47h-.21a.13.13,0,0,1-.07,0,.27.27,0,0,1-.22-.25c0-.18.11-.29.65-.68a2.5,2.5,0,0,1,1.55-.61A6.11,6.11,0,0,1,46,3.2c.86.4,1,.47,1,.87a2.81,2.81,0,0,1-.18.86A8.07,8.07,0,0,0,46.58,7a24.23,24.23,0,0,0,.18,2.81A14.25,14.25,0,0,0,51.15,8a2.07,2.07,0,0,1,1.08-.43A7.37,7.37,0,0,1,54,8.1c.58.25.83.54.83.9s-.14.43-1.29.58A54.76,54.76,0,0,0,47,11.3a40.1,40.1,0,0,0,.83,4.61c2.16-.54,4.42-1.12,6.84-1.76a7.43,7.43,0,0,1,2.41-1.08,10.22,10.22,0,0,1,2.59,1c.54.32.76.61.76.94,0,.5-.22.57-1.55.61-2.09,0-5.22.36-10.76,1.37Z"/><path class="cls-2" d="M85.21,13.17l0,1.05c0,6.08.07,9.25.25,11.77.07.72.11,1.22.11,1.51,0,1.48-.54,2.56-1.23,2.56s-1.83-1.59-1.83-2.42a8.24,8.24,0,0,1,.07-.89c.32-1.91.58-9.69.58-16.49,0-3.2-.15-4.46-.54-5.11a1.78,1.78,0,0,0-1.7-.9c-.21,0-.32-.11-.32-.29s.11-.25.29-.32a9.53,9.53,0,0,1,2.12-.58c.51,0,1,.25,2.49,1.22.5.33.68.54.68.8a1.69,1.69,0,0,1-.18.64c-.54.94-.76,2.56-.83,6.45a14.75,14.75,0,0,1,7.27,2.23c1.87,1.26,2.74,2.37,2.74,3.49a1.42,1.42,0,0,1-1.44,1.51c-.76,0-1.19-.32-2-1.65a12.54,12.54,0,0,0-6.55-5ZM96.33,8.53a1.18,1.18,0,0,1-1.11,1.15c-.51,0-.72-.18-1-.72a6.26,6.26,0,0,0-3.38-2.77c-.11,0-.18-.11-.18-.14s.43-.25,1-.25C94,5.8,96.33,7.13,96.33,8.53Zm3.82-2A1.14,1.14,0,0,1,99.07,7.7a1,1,0,0,1-1-.64,6.43,6.43,0,0,0-3.5-2.92c-.1,0-.18-.11-.18-.14s.36-.26,1.05-.26C97.81,3.74,100.15,5.11,100.15,6.55Z"/><path class="cls-2" d="M129,18.14c.18.79.36,1.55.54,2.31.32,1.44.64,2.77.75,3.2.33,1.15.62,2.34.94,3.53a12.37,12.37,0,0,1,.29,1.54,1.31,1.31,0,0,1-1.12,1.34,2.54,2.54,0,0,1-1.62-.83,2.69,2.69,0,0,1-.72-2A85.2,85.2,0,0,0,127,17.53a56,56,0,0,0-7.85,2.7,2,2,0,0,1-1,.36c-.69,0-1.34-.36-2.92-1.51-.72-.54-.93-.76-.93-1s.1-.29.21-.29.07,0,.18.07a5.39,5.39,0,0,0,2,.47c1.44,0,2-.11,10.11-2.05a6.23,6.23,0,0,1-.11-.69l-.28-1.44-.26-1.65c0-.11-.07-.36-.14-.72-1,.32-1.22.36-2.74.86a8.41,8.41,0,0,1-2.59.54,3.42,3.42,0,0,1-2.63-1c-.9-.69-.93-.72-.93-.94s.07-.29.18-.29a.14.14,0,0,1,.11,0,5.17,5.17,0,0,0,2.23.5,26.83,26.83,0,0,0,6.08-1.19,25,25,0,0,0-1.08-4.75,2.23,2.23,0,0,0-1.91-1.47h-.21a.13.13,0,0,1-.07,0,.27.27,0,0,1-.22-.25c0-.18.11-.29.65-.68a2.5,2.5,0,0,1,1.55-.61,6.11,6.11,0,0,1,2.23.64c.86.4,1,.47,1,.87a2.81,2.81,0,0,1-.18.86A8.07,8.07,0,0,0,127.22,7a24.23,24.23,0,0,0,.18,2.81A14.25,14.25,0,0,0,131.79,8a2.07,2.07,0,0,1,1.08-.43,7.37,7.37,0,0,1,1.8.54c.58.25.83.54.83.9s-.14.43-1.29.58a54.76,54.76,0,0,0-6.59,1.72,40.1,40.1,0,0,0,.83,4.61c2.16-.54,4.42-1.12,6.84-1.76a7.43,7.43,0,0,1,2.41-1.08,10.22,10.22,0,0,1,2.59,1c.54.32.76.61.76.94,0,.5-.22.57-1.55.61-2.09,0-5.22.36-10.76,1.37Z"/><path class="cls-2" d="M160.13,4.36a1.41,1.41,0,0,1-.29,0,.15.15,0,0,1-.14-.11c0-.36,1.33-1,2-1a4.47,4.47,0,0,1,2.34.76c.76.47,1,.79,1,1.33a31.21,31.21,0,0,1-1.12,5.47,11.14,11.14,0,0,1,3.1-.58A3.69,3.69,0,0,1,170.13,12a8.83,8.83,0,0,1,.76,4.25c0,4-1.19,8.28-2.84,10.29a5.76,5.76,0,0,1-4,2c-.51,0-.61-.15-.69-.76-.21-1.19-.54-1.8-1.83-3.38-.43-.51-.51-.61-.51-.79s.15-.33.22-.33.25.11.58.4c1.33,1.26,2.23,1.8,2.91,1.8,1.23,0,2.23-1.15,3-3.39a22.65,22.65,0,0,0,1.12-7.09c0-2.34-.72-3.63-2.09-3.63a9.64,9.64,0,0,0-3.17.79,83.22,83.22,0,0,1-4.39,11.19,42.86,42.86,0,0,1-2.49,4.5A2.09,2.09,0,0,1,155,28.83a1.3,1.3,0,0,1-1.4-1.33c0-.36.14-.61.57-1.08,2.85-2.81,5.62-7.92,7.53-13.71-1.12.39-3.1,1.22-4.54,1.83a2.94,2.94,0,0,1-1.26.4c-1.08,0-2.12-1.48-2.12-3,0-.4.1-.62.28-.62s.26.11.36.36a1.56,1.56,0,0,0,1.55.94,32.29,32.29,0,0,0,6-1.3,35.53,35.53,0,0,0,.54-4.5c0-1.62-.76-2.44-2.2-2.44ZM177,5.87a1.31,1.31,0,0,1-1.19,1.22c-.36,0-.54-.18-.83-.72a5.67,5.67,0,0,0-3.38-2.73c-.18,0-.22-.08-.22-.15s.54-.29,1.23-.29C174.78,3.2,177,4.57,177,5.87Zm-.58,12.85a1.93,1.93,0,0,1-.36,0,.27.27,0,0,1-.28-.25c0-.21.07-.29.54-.36a16.7,16.7,0,0,0,2.66-.65c.9-.32,1.19-.61,1.19-1.18,0-2.7-3.17-5.69-6.23-5.91-.36,0-.4,0-.4-.14s.47-.32,1.41-.32a7.66,7.66,0,0,1,7.95,7.41c0,1.44-.61,2.45-1.47,2.45-.33,0-.36,0-.94-.51a4.65,4.65,0,0,0-2.48-.64C177.73,18.65,176.51,18.68,176.43,18.72Zm4.29-14.44a1.23,1.23,0,0,1-1.19,1.23c-.29,0-.5-.22-.79-.72a5.75,5.75,0,0,0-3.42-2.7c-.18,0-.25-.11-.25-.18s.57-.25,1.22-.25C178.52,1.66,180.72,3,180.72,4.28Z"/><path class="cls-2" d="M191.63,28.83c3.24.15,3.74.18,6.77.22V8.75l3.24.36c.54,0,.86.32.86.68s-.18.54-.72.79l-.86.4V29.05h6.66V0l3.09.22c.65,0,1,.28,1,.72a1,1,0,0,1-.57.75l-.9.47V13.82h6.44l2.3-2.48,2.78,2.19a1,1,0,0,1,.46.69c0,.32-.18.47-.57.47H210.17V29.05h8.31l2.38-2.56,2.91,2.23a1,1,0,0,1,.44.72.45.45,0,0,1-.51.47H198.4c-1.44,0-2.78,0-6.41.18Z"/><path class="cls-2" d="M248.08,22V20.52c0-.65,0-1.19,0-1.59V17.75a25.5,25.5,0,0,1-3.46.21c-4.5,0-6.4-1.11-6.4-3.85,0-.25.07-.36.28-.36,0,0,.08,0,.18.22.8,1.51,2.74,2.23,6.16,2.23A23,23,0,0,0,248,16c0-1.91,0-3.82-.14-5.33a19.78,19.78,0,0,1-2.52.21,3.11,3.11,0,0,1-3.17-3.2c0-.25.11-.47.25-.47s0,0,.08.11c.32,1.19,1.18,1.69,2.88,1.69a11.32,11.32,0,0,0,2.37-.25l0-.79c0-.83-.08-1.37-.08-1.51V5.22c0-2.2-.39-2.63-2.37-2.74-.11,0-.18-.07-.18-.1a.1.1,0,0,1,.07,0s0-.07.07-.11a2.29,2.29,0,0,1,1.55-.75,11.56,11.56,0,0,1,2.88.72c.76.36,1.15.68,1.15,1a2,2,0,0,1-.25.69,10.86,10.86,0,0,0-.9,4.46c1.55-.36,2.05-.57,2.3-1,1,.25,1.77.9,1.77,1.37s-.94.9-4.14,1.58c0,2.52,0,3.17.07,5.33,2.84-.65,4.68-1.51,4.68-2.16,0-.18-.61-.79-1.41-1.37-.14-.11-.18-.14-.18-.25a.27.27,0,0,1,.22-.25c.07,0,.11,0,.47.25a6.45,6.45,0,0,0,3.67,1.26c.32,0,.54.29.54.68,0,1.3-2.77,2.56-7.92,3.64,0,1.11.29,4.07.58,6.33,4,1.19,7.16,3.28,7.16,4.83a1.28,1.28,0,0,1-1.3,1.36c-.28,0-.5-.14-.79-.5a13.72,13.72,0,0,0-4.89-4,3.65,3.65,0,0,1-1.12,2.92,6.27,6.27,0,0,1-4.57,1.62c-3.6,0-5.94-1.37-5.94-3.49s2.63-3.5,6.37-3.5a17.3,17.3,0,0,1,2.88.29Zm.07,2.67a11,11,0,0,0-2.92-.4c-2.81,0-4.57.83-4.57,2.12s1.55,1.91,3.92,1.91,3.5-.93,3.57-3.38Z"/><path class="cls-2" d="M281.48,12.63c0-.61,0-1,0-1.11,0-1.87,1.15-3.35,3.27-4.18a17.66,17.66,0,0,1,3.6-.79c.22,0,.33-.07.33-.18s0-.07-.47-.18a4,4,0,0,1-3.17-4c0-.76.22-1.26.51-1.26s.18,0,.18.28c.1,2,1.51,2.85,4.6,3a1.52,1.52,0,0,1,1.26.47,3.63,3.63,0,0,1,1,2.16.92.92,0,0,1-.86,1,3.07,3.07,0,0,1-.54-.07,13.43,13.43,0,0,0-2.85-.43,8.13,8.13,0,0,0-3.7.93,2.09,2.09,0,0,0-1.3,1.91,1.23,1.23,0,0,0,.25.9,1.16,1.16,0,0,1,.36.83,9.2,9.2,0,0,1-.47,2.34,34.29,34.29,0,0,0-1,5.65c0,.86.4,1.51.9,1.51a2.07,2.07,0,0,0,1.12-.68,11.22,11.22,0,0,1,8.31-4c3.53,0,5.87,2.16,5.87,5.4,0,3.53-2.52,6.19-7.2,7.63A42.05,42.05,0,0,1,283.43,31c-.36,0-.65-.21-.65-.47s0-.14.5-.21a23.85,23.85,0,0,0,7.53-1.91C293.9,27,296,24.33,296,21.89s-1.58-3.78-4.14-3.78a7.94,7.94,0,0,0-5.51,2.44,5.72,5.72,0,0,0-1.72,3.21c-.15.65-.44,1-.87,1a4.7,4.7,0,0,1-2.3-1,3.39,3.39,0,0,1-.83-2.63,16.66,16.66,0,0,1,.43-3.35,20,20,0,0,0,.47-4Z"/><path class="cls-2" d="M320.19,21.49C319,23.58,318.6,24,317.48,24c-.93,0-1.58-.47-1.58-1.15a1.54,1.54,0,0,1,.61-1.12c2-1.69,5.94-8.31,7.13-12.09a17.26,17.26,0,0,1-3.45.5,3.27,3.27,0,0,1-3-2.05,5,5,0,0,1-.54-1.44.17.17,0,0,1,.18-.18c.07,0,.07,0,.18.22a3.77,3.77,0,0,0,3.27,1.62,17.64,17.64,0,0,0,4-.69,15.15,15.15,0,0,0,.58-3.81c0-1.19-.58-1.73-1.95-1.77a.17.17,0,0,1-.18-.14c0-.33,1.16-.79,1.91-.79,1.33,0,2.52.75,2.52,1.62,0,.07-.11.46-.32,1.22,1.91,1,2,1.08,2.59,1.12s1.19.43,1.19.93c0,1.12-1.77,2.23-5.08,3.24A106.69,106.69,0,0,1,320.19,21.49Zm12-1.51c0-.69,0-1.19,0-1.44,0-3.53,1.43-5.26,5.25-6.3.54-.15.76-.36.76-.65,0-.83-1.73-1.62-3.6-1.62a5.09,5.09,0,0,0-1.66.22.45.45,0,0,1-.18,0,.27.27,0,0,1-.25-.28c0-.4,1.94-1,3.35-1,3.13,0,5.76,1.76,5.76,3.88,0,.62-.33,1-.87,1a2.12,2.12,0,0,1-.54-.11,6.41,6.41,0,0,0-2.3-.4c-2.67,0-4,1.3-4,3.89a29,29,0,0,0,.25,2.95c.22,1.91.22,2.13.29,3.24C338.54,24.77,341,26.53,341,28a1.26,1.26,0,0,1-1.3,1.22,1.86,1.86,0,0,1-1.44-.86,13,13,0,0,0-4-3.13v.32a4.46,4.46,0,0,1-1,3.31,4.92,4.92,0,0,1-4.06,1.52c-3.32,0-5.48-1.48-5.48-3.75,0-2.44,2.27-3.92,6.05-3.92a19.45,19.45,0,0,1,2.38.14Zm-3.49,4c-2.05,0-3.42,1-3.42,2.52,0,1.22,1.58,2.12,3.64,2.12a2.84,2.84,0,0,0,3.2-2.7,8.33,8.33,0,0,0,.07-1.3A8.61,8.61,0,0,0,328.68,23.94ZM326.27,6.12c0,.14-.15.5-.29,1,1.51-.58,2.3-1.08,2.3-1.44s-.36-.54-1.58-1.41l-.14.62Z"/><path class="cls-2" d="M356.33,5.83a.31.31,0,0,1-.14,0,.15.15,0,0,1-.15-.15c0-.21.58-.39,1.23-.39,2,0,3.77,1.51,3.77,3.17a12.38,12.38,0,0,1-.43,2.8,21.29,21.29,0,0,0-.65,5.51,9.91,9.91,0,0,0,1.59,6.05,3,3,0,0,0,1.94,1.37c.43,0,.51-.15,1.59-2.45,1.51-3.35,2.19-4.54,2.44-4.54a.28.28,0,0,1,.26.29c0,.14,0,.14-.44,1.33a18.53,18.53,0,0,0-1.26,5.33,4.19,4.19,0,0,0,.62,2.23c.21.33.25.36.25.54,0,.43-.65.83-1.26.79a7.53,7.53,0,0,1-3.64-1.54c-2.48-1.95-3.92-5.87-3.92-10.62,0-1.59.11-3.71.29-5.47,0-.51.07-.94.07-1.26,0-1.52-1.05-3-2.09-3Zm17.06,6.37c-.32,0-.43,0-.43-.18s1-.5,2.3-.5c3.85,0,7.85,3.67,7.85,7.2a2.11,2.11,0,0,1-2,2.34c-.61,0-.86-.33-.86-1.19a8.16,8.16,0,0,0-3.2-6.62,6.08,6.08,0,0,0-3.53-1.05Z"/><path class="cls-2" d="M412.85,12.81c-.11,0-.43.19-.76.36a34.81,34.81,0,0,1-5.54,11.38c-2.05,2.7-5.36,5.33-6.66,5.33a.36.36,0,0,1-.36-.29c0-.07.07-.15.43-.4A18.66,18.66,0,0,0,406.19,22a24.33,24.33,0,0,0,2.37-6.34,17.93,17.93,0,0,0,.58-3.38A1.13,1.13,0,0,0,408.2,11c-.14,0-.18-.07-.18-.18s.33-.4.65-.4a7.1,7.1,0,0,1,3.64,1.91c.43-.18.43-.18,3-2.16,1-.79,2-1.94,2-2.37s-.76-.69-1.91-.69a72.83,72.83,0,0,0-7.52.94,25.46,25.46,0,0,0-5.58,1.58c-.72.33-.8.36-.94.36a4.09,4.09,0,0,1-2.52-1.73,2.82,2.82,0,0,1-.57-2V6.08a.38.38,0,0,1,.28-.36c.15,0,.22.08.33.36a3.17,3.17,0,0,0,2.55,1.26,10.11,10.11,0,0,0,1.15-.1c.33,0,1.05-.08,2.13-.15s1.94-.11,2.45-.18c1.22-.14,2.48-.29,3.74-.47,5-.5,5.4-.57,7.34-1.15a1.9,1.9,0,0,1,.58-.11c.43,0,1.08.58,2.09,1.8.36.47.61.8.75.94.51.54.61.72.61,1s-.28.58-.79.61A10.13,10.13,0,0,0,417,10.94a24.08,24.08,0,0,1-2.38,1.12Z"/><path class="cls-2" d="M458.39,19.55c2,1.62,3.09,3.27,3.09,4.78a1.65,1.65,0,0,1-1.51,1.8c-.72,0-1.15-.43-1.58-1.62a13.9,13.9,0,0,0-7.2-7.74,28,28,0,0,1-10.33,8.75,19.32,19.32,0,0,1-4.57,1.8.52.52,0,0,1-.51-.4c0-.17.07-.21.65-.43a31.5,31.5,0,0,0,10.73-7.95A31.72,31.72,0,0,0,452,11.16,10.36,10.36,0,0,0,453.24,8c0-.29-.25-.5-.61-.5a36.23,36.23,0,0,0-8.25,2.23,2.79,2.79,0,0,1-.79.22,1.56,1.56,0,0,1-.93-.44,5.65,5.65,0,0,0-.51-.39,1.68,1.68,0,0,1-.9-1.66c0-.65.11-.93.33-.93s.14.07.18.18c.21.5,1.26.9,2.48.9a53.4,53.4,0,0,0,6.7-1,7.34,7.34,0,0,0,2.77-1.15.81.81,0,0,1,.54-.22c.32,0,.82.29,2.05,1.26.93.72,1.11.9,1.11,1.16s-.1.25-.39.43-.36.25-.76.54a45.72,45.72,0,0,1-4.64,7.59A16.21,16.21,0,0,1,458.39,19.55Z"/><path class="cls-2" d="M483.19,13.1V12c0-.69,0-1.16,0-1.3A2.85,2.85,0,0,0,481,7.88c-.18-.07-.29-.14-.29-.21s1.05-.47,1.8-.47a5.38,5.38,0,0,1,2.85,1.33A5,5,0,0,0,486,9c.4.28.54.43.54.57s0,.07-.21.47a7.15,7.15,0,0,0-.69,2.63c-.25,2.8-.39,4.89-.39,6.58,0,2.2.11,2.6.79,2.6,3.53,0,13.71-7.78,18.14-13.83.33-.46.36-.5.51-.5s.28.22.28.4a12.44,12.44,0,0,1-1.33,2.44,40.6,40.6,0,0,1-7.74,8.32,35.74,35.74,0,0,1-7.81,5.07,7.94,7.94,0,0,0-2.3,1.62c-.33.36-.51.47-.65.47a6.42,6.42,0,0,1-1.48-1c-.61-.54-1-1-1-1.33a1.14,1.14,0,0,1,.14-.54,4.08,4.08,0,0,0,.43-1.87Z"/><path class="cls-2" d="M533.66,12.31a6.23,6.23,0,0,1,0,.65c3.78-.43,5.68-.79,6.58-1.26.58-.32.62-.32.87-.32a3.52,3.52,0,0,1,1.91.79c1.44.93,1.65,1.11,1.65,1.51a.83.83,0,0,1-.86.79c-.22,0-.47,0-.76-.07a33.53,33.53,0,0,0-4.93-.4c-1.08,0-3.49.07-4.53.18a20.41,20.41,0,0,1-2.24,7.67,16.89,16.89,0,0,1-7.88,7.27,4.67,4.67,0,0,1-1.73.54.36.36,0,0,1-.39-.32c0-.15,0-.18.54-.44,5.5-2.73,8.71-7.88,9.14-14.54-4,.47-8.35,1.26-9.47,1.77a5.14,5.14,0,0,1-1.55.36A4.09,4.09,0,0,1,517.5,15a2.18,2.18,0,0,1-.61-1.76.17.17,0,0,1,.18-.18c.18,0,.25,0,.4.22a4.5,4.5,0,0,0,3,.79c.36,0,.36,0,2.66-.15l2.59-.21a49.7,49.7,0,0,0,5.33-.51l0-1c0-2.34-.4-3.45-1.3-3.56-3.85,1.3-5.69,1.69-7.92,1.69-.57,0-.93-.14-.93-.36s.1-.22.36-.25a.88.88,0,0,0,.39-.07l.69-.15a25.88,25.88,0,0,0,7.27-2.8c3.13-1.66,3.63-2,3.63-2.63a1.49,1.49,0,0,0-.5-1.15c-.07-.08-.14-.15-.14-.18s.18-.15.32-.15a6.25,6.25,0,0,1,2.77.9c1.44.72,1.91,1.08,1.91,1.44s-.14.4-1.59,1.12a37.76,37.76,0,0,1-4.53,2c1.66.87,2.52,1.55,2.52,2a2.45,2.45,0,0,1-.07.36,4.55,4.55,0,0,0-.29,1Z"/><path class="cls-2" d="M564.23,15.19A3.71,3.71,0,0,1,566,18a1.32,1.32,0,0,1-1.23,1.48c-.61,0-.82-.25-1.08-1.22-.43-1.59-1.94-3.57-3-4-.36-.15-.43-.22-.43-.36s.21-.22.47-.22A6.74,6.74,0,0,1,564.23,15.19Zm-2.52,15.23a2.49,2.49,0,0,1-.33.07.47.47,0,0,1-.43-.4c0-.07.07-.11.22-.14a24.78,24.78,0,0,0,5.18-2.7,29.54,29.54,0,0,0,7.92-7.74,19.55,19.55,0,0,0,2.16-4.28,15.7,15.7,0,0,0,.54-2.52,1.44,1.44,0,0,0-1-1.37c-.25-.07-.29-.11-.29-.25s.4-.36,1-.36a2.51,2.51,0,0,1,2,1c1.16,1.18,1.52,1.69,1.52,2s-.15.47-.87,1c-3.2,7.45-10.36,14-17,15.52Zm9.65-14.76a1.43,1.43,0,0,1-1.3,1.44.82.82,0,0,1-.9-.79c-.32-1.88-1.91-4.39-3.1-4.86a.34.34,0,0,1-.21-.25c0-.15.14-.22.32-.22C568.44,11,571.36,13.61,571.36,15.66Z"/><path class="cls-2" d="M600.19,29.12c-.21.07-.32.14-.46.18a1.63,1.63,0,0,1-.33.07c-.25,0-.61-.29-.61-.5s.07-.18.47-.29a1.87,1.87,0,0,1,.25-.11c.14-.07.25-.1.43-.18,3.46-1.44,8.53-5.25,11.95-9a32.93,32.93,0,0,0,4.57-7,9.62,9.62,0,0,0,1-2.48.82.82,0,0,0-.82-.76c-.15,0-.4,0-.65.07-.07,0-.87.18-1.59.29s-1,.18-1.33.22a3.15,3.15,0,0,1-.68.1,2.51,2.51,0,0,1-1.37-.5,34.54,34.54,0,0,1-5.72,7c-1.66,1.52-3.93,3.06-4.5,3.06-.18,0-.36-.1-.36-.25s.07-.29.93-.9A29.26,29.26,0,0,0,607,11.66c1.44-2.16,2.34-4.17,2.34-5.29a2.24,2.24,0,0,0-1.26-2.16c-.11,0-.22-.11-.22-.18s.4-.32.9-.32a4.07,4.07,0,0,1,2.41.86c1.23.79,1.51,1.12,1.51,1.59,0,.18,0,.25-.21.5a4.5,4.5,0,0,0-.62.86c-.21.47-.28.62-.43,1a1.7,1.7,0,0,0,.83.17,18.81,18.81,0,0,0,4.14-.79,7.88,7.88,0,0,0,1.3-.64c.57-.33.79-.44,1-.44s.83.29,2,1.26,1.19,1,1.19,1.34-.14.43-.5.57a5.72,5.72,0,0,0-1.12.47C615.35,20.27,609.48,25.7,600.19,29.12Z"/></g></g></g></g></svg>