<svg xmlns="http://www.w3.org/2000/svg" viewBox="0 0 586.23 33.04"><defs><style>.cls-1{isolation:isolate;}.cls-2{fill:#333;}</style></defs><title>dokidoki-athletic-title</title><g id="Layer_2" data-name="Layer 2"><g id="Layer_1-2" data-name="Layer 1"><g class="cls-1"><path class="cls-2" d="M4.79,14.94c0,6.44.1,9.86.28,12.27.08.76.11,1.3.11,1.62,0,1.51-.54,2.63-1.29,2.63S2,29.84,2,28.94A5.54,5.54,0,0,1,2.09,28c.29-2,.57-10,.57-17.17,0-3.38-.11-4.57-.57-5.32a1.92,1.92,0,0,0-1.73-.9C.11,4.57,0,4.5,0,4.28S.11,4,.32,4a9.32,9.32,0,0,1,2.2-.61c.54,0,1,.25,2.63,1.26.46.32.68.57.68.83a1.86,1.86,0,0,1-.18.68c-.58,1-.79,2.66-.86,6.69a15.13,15.13,0,0,1,7.55,2.34c1.95,1.34,2.84,2.49,2.84,3.64a1.47,1.47,0,0,1-1.51,1.58c-.79,0-1.22-.32-2.08-1.72a12.7,12.7,0,0,0-6.8-5.26ZM16.37,9a1.23,1.23,0,0,1-1.15,1.22c-.54,0-.79-.18-1.08-.76a6.39,6.39,0,0,0-3.49-2.91c-.14-.07-.22-.11-.22-.18s.44-.25,1.05-.25C14,6.16,16.37,7.56,16.37,9Zm4-2.09a1.22,1.22,0,0,1-1.15,1.22,1,1,0,0,1-1.05-.68,6.71,6.71,0,0,0-3.67-3.06c-.1,0-.17-.11-.17-.18s.43-.25,1-.25C17.88,4,20.33,5.44,20.33,7Z"/><path class="cls-2" d="M46.57,19c.18.79.36,1.59.54,2.41.32,1.37.57,2.52.79,3.32.32,1.22.64,2.44.93,3.67a10.27,10.27,0,0,1,.33,1.62A1.38,1.38,0,0,1,48,31.46a2.52,2.52,0,0,1-1.7-.86,2.82,2.82,0,0,1-.75-2.09,98.38,98.38,0,0,0-1.12-10.12c-5,1.55-6.8,2.16-8.16,2.85a2.29,2.29,0,0,1-1.08.36c-.69,0-1.33-.33-3-1.59-.75-.54-1-.75-1-1s.11-.32.22-.32a.46.46,0,0,1,.18.07,5.94,5.94,0,0,0,2.16.47c1.44,0,2.37-.18,10.47-2.13,0-.39-.11-.64-.11-.72l-.25-1.51-.33-1.73c0-.1-.07-.36-.14-.72l-2.84.87a8.37,8.37,0,0,1-2.7.57,3.44,3.44,0,0,1-2.74-1.08c-.93-.68-1-.72-1-.93s.08-.33.18-.33a.26.26,0,0,1,.15,0,5.29,5.29,0,0,0,2.3.5,27.84,27.84,0,0,0,6.33-1.22A28.54,28.54,0,0,0,42,5.9a2.34,2.34,0,0,0-2-1.51H39.8a.25.25,0,0,1-.11,0c-.1,0-.21-.15-.21-.29s.11-.29.68-.68a2.42,2.42,0,0,1,1.62-.65,5.75,5.75,0,0,1,2.3.68c.9.4,1,.51,1,.9a2.89,2.89,0,0,1-.18.87,10.55,10.55,0,0,0-.21,2.12,27.41,27.41,0,0,0,.18,3,14.68,14.68,0,0,0,4.6-1.91A2.11,2.11,0,0,1,50.6,8a6.92,6.92,0,0,1,1.87.57c.61.25.86.54.86.94s-.14.43-1.37.61a61,61,0,0,0-6.87,1.76c.33,2.2.69,4.07.87,4.79,2.41-.57,4.64-1.15,7.12-1.83,1.69-.94,2.19-1.16,2.52-1.16a9.51,9.51,0,0,1,2.7,1.12c.57.32.79.61.79,1,0,.54-.25.61-1.62.61a70.37,70.37,0,0,0-11.19,1.48Z"/><path class="cls-2" d="M78.2,14.94c0,6.44.11,9.86.29,12.27.07.76.11,1.3.11,1.62,0,1.51-.54,2.63-1.3,2.63s-1.91-1.62-1.91-2.52A5.54,5.54,0,0,1,75.5,28c.29-2,.58-10,.58-17.17,0-3.38-.11-4.57-.58-5.32a1.92,1.92,0,0,0-1.73-.9c-.25,0-.35-.11-.35-.33s.1-.25.32-.32a9.16,9.16,0,0,1,2.19-.61c.54,0,1,.25,2.63,1.26.47.32.68.57.68.83a1.86,1.86,0,0,1-.18.68c-.57,1-.79,2.66-.86,6.69a15.14,15.14,0,0,1,7.56,2.34c1.94,1.34,2.84,2.49,2.84,3.64a1.47,1.47,0,0,1-1.51,1.58c-.79,0-1.23-.32-2.09-1.72a12.66,12.66,0,0,0-6.8-5.26ZM89.79,9a1.23,1.23,0,0,1-1.16,1.22c-.54,0-.79-.18-1.08-.76a6.36,6.36,0,0,0-3.49-2.91c-.14-.07-.21-.11-.21-.18s.43-.25,1-.25C87.41,6.16,89.79,7.56,89.79,9ZM93.74,7a1.22,1.22,0,0,1-1.15,1.22,1,1,0,0,1-1-.68,6.74,6.74,0,0,0-3.67-3.06c-.11,0-.18-.11-.18-.18s.43-.25,1-.25C91.3,4,93.74,5.44,93.74,7Z"/><path class="cls-2" d="M120,19c.18.79.36,1.59.54,2.41.32,1.37.58,2.52.79,3.32.33,1.22.65,2.44.94,3.67a9.91,9.91,0,0,1,.32,1.62,1.37,1.37,0,0,1-1.15,1.4,2.48,2.48,0,0,1-1.69-.86,2.86,2.86,0,0,1-.76-2.09,98.51,98.51,0,0,0-1.11-10.12c-5,1.55-6.8,2.16-8.17,2.85a2.23,2.23,0,0,1-1.08.36c-.68,0-1.33-.33-3-1.59-.76-.54-1-.75-1-1s.11-.32.21-.32a.46.46,0,0,1,.18.07,6,6,0,0,0,2.16.47c1.44,0,2.38-.18,10.47-2.13,0-.39-.1-.64-.1-.72l-.26-1.51L117,13.17a6.59,6.59,0,0,0-.15-.72l-2.84.87a8.37,8.37,0,0,1-2.7.57,3.42,3.42,0,0,1-2.73-1.08c-.94-.68-1-.72-1-.93s.07-.33.18-.33a.25.25,0,0,1,.14,0,5.29,5.29,0,0,0,2.3.5,27.89,27.89,0,0,0,6.34-1.22,29.22,29.22,0,0,0-1.12-5,2.33,2.33,0,0,0-2-1.51h-.21a.3.3,0,0,1-.11,0c-.11,0-.22-.15-.22-.29s.11-.29.69-.68a2.38,2.38,0,0,1,1.62-.65,5.75,5.75,0,0,1,2.3.68c.9.4,1,.51,1,.9a2.89,2.89,0,0,1-.18.87,10.45,10.45,0,0,0-.22,2.12,27.41,27.41,0,0,0,.18,3,14.75,14.75,0,0,0,4.61-1.91A2.09,2.09,0,0,1,124,8a6.82,6.82,0,0,1,1.87.57c.61.25.87.54.87.94s-.15.43-1.37.61a60.47,60.47,0,0,0-6.87,1.76c.32,2.2.68,4.07.86,4.79,2.41-.57,4.64-1.15,7.12-1.83,1.69-.94,2.2-1.16,2.52-1.16a9.51,9.51,0,0,1,2.7,1.12c.58.32.79.61.79,1,0,.54-.25.61-1.62.61a70.5,70.5,0,0,0-11.19,1.48Z"/><path class="cls-2" d="M160.11,22.61c-.54,1.54-1.12,2.12-2,2.12-2,0-3.81-2.41-3.81-5,0-3.1,1.87-5.62,4.17-5.62a3.31,3.31,0,0,1,1.44.33c0-1,0-1.55,0-2.2,0-.82,0-1,0-1.83-5.36.82-8.71,1.72-11.69,3.16a3,3,0,0,1-1.44.47,3.82,3.82,0,0,1-2.16-1.22,3.31,3.31,0,0,1-.83-2.7c0-.29.07-.43.22-.43s.14,0,.18.18a2.31,2.31,0,0,0,2.37,1.55,28.47,28.47,0,0,0,4.86-.76c3.6-.68,6-1,8.46-1.3-.18-4.71-.18-5.07-.44-5.65a2,2,0,0,0-2-1.22c-.14,0-.25,0-.25-.15,0-.28,1.69-1,2.48-1,1,0,3.24,1.41,3.24,2a1.46,1.46,0,0,1-.22.65c-.53,1.29-.61,1.54-.86,5.07,1.87-.32,2.3-.36,4.82-.72a25.54,25.54,0,0,0-2.3-1.76c-.32-.22-.4-.29-.4-.4a.24.24,0,0,1,.26-.21.48.48,0,0,1,.25.1,12.35,12.35,0,0,0,4.82,1.77,4.26,4.26,0,0,1,2.59.79,1.93,1.93,0,0,1,1,1.3.92.92,0,0,1-.83.89,4,4,0,0,1-.54-.07A36.53,36.53,0,0,0,165,10a27.29,27.29,0,0,0-3.27.21c-.18,2.38-.22,3.13-.22,3.89V15.3c1.19,1.19,1.48,2.23,1.48,5.29,0,4.86-1.4,7.88-4.71,10.22a11.31,11.31,0,0,1-5.29,2,.3.3,0,0,1-.33-.29c0-.14.08-.18.36-.29,4.5-1.55,7-4.71,7.45-9.54Zm-3.24-6.45a5.26,5.26,0,0,0-1,3.21c0,2,.93,3.52,2.08,3.52s1.8-1.69,1.8-5.43c0-1.41-.32-2.05-1.11-2.13A2.7,2.7,0,0,0,156.87,16.16Z"/><path class="cls-2" d="M199.51,28.08a6.06,6.06,0,0,0,3-2.45,7.8,7.8,0,0,0,1.08-4c0-3.56-2-5.54-5.54-5.54-3.31,0-5.61,1.15-7.95,4a16.69,16.69,0,0,0-2.7,4.25,1.39,1.39,0,0,1-1.3,1c-.61,0-1.55-1.08-1.55-1.83,0-.4.29-.87,1-1.59,4.75-4.93,5.08-5.33,10.22-12.17,2.09-2.69,2.12-2.73,2.12-3.31a.76.76,0,0,0-.79-.82c-1.11,0-2,.46-5.68,3.06-.69.5-1,.64-1.37.64a2.76,2.76,0,0,1-1.69-1,2.82,2.82,0,0,1-.65-1.94c0-.65.07-.87.29-.87s.11,0,.18.33a1.29,1.29,0,0,0,1.37.9A21.29,21.29,0,0,0,197,4.07a1.67,1.67,0,0,1,1.23-.43c1.44,0,4,1.72,4,2.73a.83.83,0,0,1-.57.79c-1.55.69-3.57,2.49-6.52,5.8-1.76,2-2.26,2.63-2.26,2.91s.1.33.21.33a.71.71,0,0,0,.18-.07.52.52,0,0,0,.18-.08l.51-.21a13.33,13.33,0,0,1,5.18-1.08c4.24,0,7.27,2.91,7.27,7a7.57,7.57,0,0,1-2.7,5.94,12.58,12.58,0,0,1-7.77,2.7,6.91,6.91,0,0,1-4.32-1.33,2.56,2.56,0,0,1-1-2.16c0-1.66,1.4-2.74,3.52-2.74a5.38,5.38,0,0,1,5.22,3.57l0,.1Zm-2.3.54c-.4-2.2-1.44-3.31-3.09-3.31a1.46,1.46,0,0,0-1.66,1.43c0,1.19,1.37,2,3.46,2a6.26,6.26,0,0,0,1.07-.07Z"/><path class="cls-2" d="M221.72,11.7v8.67c0,.51-.79,1-1.58,1-.33,0-.58-.11-.58-.29V9.54L222,10.83h4.17V7.09h-3.06c-1.72,0-2.91,0-5.83.15l-.43-1.19c3.1.14,4.25.18,6.26.18h3.06v-6l2.63.25a.8.8,0,0,1,.79.79.75.75,0,0,1-.43.61l-.79.58V6.23h4.75l2.12-2.38L238,6.08a.75.75,0,0,1,.29.51c0,.29-.25.5-.69.5h-9.24v3.74H233L234,9.43l2.15,1.69a.8.8,0,0,1,.33.58.63.63,0,0,1-.25.43l-.62.43V18.9a2.79,2.79,0,0,1-2.23,2c-.18,0-.25-.1-.32-.54a2.29,2.29,0,0,0-.36-.82s-.4-.15-1-.33l-2.09-.75,0-.47h2.23c1.26,0,1.55-.15,1.51-.87V11.7h-5.07v8.21c4.82,1.62,7.62,3.74,7.62,5.79,0,.86-.57,1.62-1.22,1.62s-.72-.11-1.9-2a14.53,14.53,0,0,0-4.5-4.43V31.93c0,.57-.18.83-.79,1a2.48,2.48,0,0,1-.83.14c-.36,0-.58-.14-.58-.43V21.45a33.06,33.06,0,0,1-6.83,7.2,10.09,10.09,0,0,1-2.63,1.87.26.26,0,0,1-.29-.28c0-.15,0-.15,1.3-1.41a44.77,44.77,0,0,0,5.11-6.12c.72-1,1.18-1.72,1.4-2.08,1.62-3.06,1.87-3.64,1.94-4.36V11.7Zm20.69-6.44c.47,0,.72.28.72.68a.79.79,0,0,1-.43.65l-.94.65V23.61c0,.44-.93.9-1.72.9-.37,0-.62-.14-.62-.39V4.82Zm-1.84,24.11,2.74,0,.14,0c1.84,0,2.13-.14,2.13-1V.9l3,.32a.83.83,0,0,1,.83.72,1.14,1.14,0,0,1-.62.8l-.82.5v27c0,.79-.26,1.15-1.41,1.87a3.42,3.42,0,0,1-1.44.58c-.36,0-.5-.18-.57-.69a1.61,1.61,0,0,0-.22-.72c-.07-.1-.25-.18-1.58-.54l-2.2-.61Z"/><path class="cls-2" d="M257.6,9.65c2.52.25,4.64,2.12,4.64,4.1A1.49,1.49,0,0,1,261,15.26a1.14,1.14,0,0,1-.79-.36c-.21-.21-.21-.21-1-2.7A4.27,4.27,0,0,0,257.31,10Zm2.09,12.67,5.93-13.93.58.39-4,13.39a7.51,7.51,0,0,0-.4,2.13c0,.5,0,.5,1.12,4.86a1.72,1.72,0,0,1,0,.43,1.78,1.78,0,0,1-1.83,1.65,1.46,1.46,0,0,1-1.37-1.47c0-.11.11-.83.25-1.91a9.46,9.46,0,0,0,.07-1.15,4.46,4.46,0,0,0-.75-3c-.33-.43-.72-.57-1.95-.72v-.68Zm-.07-21.1a6.4,6.4,0,0,1,3.67,1.44,3,3,0,0,1,1.18,2.27A1.54,1.54,0,0,1,263,6.62c-.75,0-.93-.25-1.36-1.94a5.12,5.12,0,0,0-2.23-3.13Zm4.67,17.93-.18-1.08c1,0,1.87,0,2.23.07l2.6.07h1.36V15.08l2.34.25c.4,0,.61.15.61.36a.72.72,0,0,1-.36.58l-.57.36v1.58h2.37l1.73-1.8,2.16,1.77a.67.67,0,0,1,.29.54.36.36,0,0,1-.4.36h-7.34l-.36,3.06h3.38l.83-1.3,2,2a.64.64,0,0,1,.21.43c0,.11-.14.26-.39.33l-.61.18L276,24.84c-.58,4.17-1,5.54-2.09,6.55a3.47,3.47,0,0,1-1.76.75c-.22,0-.33-.21-.36-.57,0-.79-.07-.9-.18-1a1.11,1.11,0,0,0-.47-.29l-2.16-.9.32-.39,1.84.28a6,6,0,0,0,.75.08c1.59,0,2-1.12,2.38-6.34h-3.6c-.68,3.24-1.62,5.11-3.38,6.8C266,31,263.54,32.65,263,32.65a.24.24,0,0,1-.25-.22c0-.18.14-.32.61-.68,4.21-3.39,5.54-6.3,5.79-12.67Zm5-14.54h.44A44.38,44.38,0,0,0,270.34,0l2.88.76a.41.41,0,0,1,.36.39.6.6,0,0,1-.44.54L272.5,2l-1.44,2.63h2.8l.65-1.26,2.16,1.91c.22.18.25.21.25.32s-.07.22-.25.32l-.72.36v9c0,.43-.54.72-1.37.75-.32,0-.54-.18-.54-.43V14.43h-5.32v1.23c0,.36-.07.47-.58.57-.75.22-.75.22-.9.22s-.43-.14-.43-.36V3.28ZM274,9.11V5.47h-5.32V9.11Zm0,4.46V10h-5.32v3.6Zm9.9-12.35c.5.15.83.47.83.8s-.29.61-.76.75l-.79.29A64.23,64.23,0,0,1,281.1,9.5h4.67l1.73-2.41,2.59,2.27a.56.56,0,0,1,.25.47.48.48,0,0,1-.46.54h-3.21c-.5,6.55-1.11,9.39-2.77,13.14a17.56,17.56,0,0,0,6.59,5.54,6.34,6.34,0,0,0-2.7,2.37,24.7,24.7,0,0,1-5.08-5.75,19.64,19.64,0,0,1-5.32,5.14,15,15,0,0,1-3.56,1.84.28.28,0,0,1-.25-.29c0-.18.21-.36.86-.76,3.56-2.48,5.94-5,7.3-8-1.11-2.34-1.65-4.46-2.59-10.08L278,15.41c-.21.36-.47.64-.61.64a.27.27,0,0,1-.22-.25.93.93,0,0,1,.11-.39c1.73-3.78,2.81-8.1,3.74-15Zm-3.2,9.15-.83,1.8a30.54,30.54,0,0,0,2.7,9.25c1.08-3.39,1.26-4.68,1.76-11.05Z"/><path class="cls-2" d="M315.75,22.61c-.54,1.54-1.11,2.12-2,2.12-2,0-3.82-2.41-3.82-5,0-3.1,1.88-5.62,4.18-5.62a3.34,3.34,0,0,1,1.44.33c0-1,0-1.55,0-2.2,0-.82,0-1,0-1.83-5.36.82-8.71,1.72-11.7,3.16a2.91,2.91,0,0,1-1.44.47,3.83,3.83,0,0,1-2.15-1.22c-.62-.58-.83-1.3-.83-2.7,0-.29.07-.43.21-.43s.15,0,.18.18a2.32,2.32,0,0,0,2.38,1.55,28.47,28.47,0,0,0,4.86-.76c3.59-.68,6-1,8.45-1.3-.18-4.71-.18-5.07-.43-5.65A2.06,2.06,0,0,0,313,2.45c-.14,0-.25,0-.25-.15,0-.28,1.69-1,2.48-1,1,0,3.24,1.41,3.24,2a1.62,1.62,0,0,1-.22.65c-.54,1.29-.61,1.54-.86,5.07,1.87-.32,2.3-.36,4.82-.72a25.54,25.54,0,0,0-2.3-1.76c-.33-.22-.4-.29-.4-.4a.24.24,0,0,1,.25-.21.48.48,0,0,1,.26.1,12.3,12.3,0,0,0,4.82,1.77,4.29,4.29,0,0,1,2.59.79,2,2,0,0,1,1,1.3.93.93,0,0,1-.83.89,3.78,3.78,0,0,1-.54-.07,36.75,36.75,0,0,0-6.44-.75,27.29,27.29,0,0,0-3.27.21c-.18,2.38-.22,3.13-.22,3.89V15.3c1.19,1.19,1.48,2.23,1.48,5.29,0,4.86-1.41,7.88-4.72,10.22a11.27,11.27,0,0,1-5.29,2,.29.29,0,0,1-.32-.29c0-.14.07-.18.36-.29,4.5-1.55,7-4.71,7.45-9.54Zm-3.23-6.45a5.2,5.2,0,0,0-1,3.21c0,2,.94,3.52,2.09,3.52s1.8-1.69,1.8-5.43c0-1.41-.33-2.05-1.12-2.13A2.67,2.67,0,0,0,312.52,16.16Z"/><path class="cls-2" d="M355.16,28.08a6.1,6.1,0,0,0,3-2.45,7.8,7.8,0,0,0,1.07-4c0-3.56-2-5.54-5.54-5.54-3.31,0-5.61,1.15-7.95,4a17,17,0,0,0-2.7,4.25,1.38,1.38,0,0,1-1.29,1c-.61,0-1.55-1.08-1.55-1.83,0-.4.29-.87,1-1.59C346,17,346.27,16.59,351.42,9.75c2.08-2.69,2.12-2.73,2.12-3.31a.76.76,0,0,0-.79-.82c-1.12,0-2,.46-5.69,3.06-.68.5-1,.64-1.36.64a2.78,2.78,0,0,1-1.7-1,2.86,2.86,0,0,1-.64-1.94c0-.65.07-.87.29-.87s.1,0,.18.33a1.28,1.28,0,0,0,1.36.9,21.27,21.27,0,0,0,7.45-2.63,1.66,1.66,0,0,1,1.22-.43c1.44,0,4,1.72,4,2.73a.82.82,0,0,1-.58.79c-1.55.69-3.56,2.49-6.51,5.8-1.76,2-2.27,2.63-2.27,2.91s.11.33.22.33a.89.89,0,0,0,.18-.07.62.62,0,0,0,.18-.08l.5-.21a13.37,13.37,0,0,1,5.18-1.08c4.25,0,7.27,2.91,7.27,7a7.53,7.53,0,0,1-2.7,5.94,12.56,12.56,0,0,1-7.77,2.7,6.93,6.93,0,0,1-4.32-1.33,2.59,2.59,0,0,1-1-2.16c0-1.66,1.4-2.74,3.53-2.74A5.37,5.37,0,0,1,355,27.72l0,.1Zm-2.3.54c-.4-2.2-1.44-3.31-3.1-3.31a1.45,1.45,0,0,0-1.65,1.43c0,1.19,1.36,2,3.45,2a6.37,6.37,0,0,0,1.08-.07Z"/><path class="cls-2" d="M389.6,13.61a3,3,0,0,1-.47.25,36.2,36.2,0,0,1-5.75,11.88,18.85,18.85,0,0,1-5.47,5,4.24,4.24,0,0,1-1.48.58.35.35,0,0,1-.36-.29c0-.11,0-.14.43-.43A19.52,19.52,0,0,0,383,23a26.92,26.92,0,0,0,2.45-6.63,21.59,21.59,0,0,0,.61-3.49,1.19,1.19,0,0,0-1-1.33c-.11,0-.18-.11-.18-.18,0-.22.32-.43.64-.43a7.44,7.44,0,0,1,3.82,2c2.62-1.55,5.25-3.89,5.25-4.72,0-.43-.68-.68-2-.68a72.6,72.6,0,0,0-7.78.94A28.27,28.27,0,0,0,379,10.15c-.65.33-.8.36-1,.36a4.2,4.2,0,0,1-2.66-1.76,3.09,3.09,0,0,1-.57-2.09V6.44a.32.32,0,0,1,.32-.32c.14,0,.18,0,.32.32A3.12,3.12,0,0,0,378,7.74c.29,0,.72,0,1.29-.07.33,0,1.08-.11,2.23-.18s2.16-.15,2.52-.18c1.3-.15,2.59-.33,3.92-.47,5.37-.58,5.62-.61,7.63-1.22a2.94,2.94,0,0,1,.54-.08c.51,0,1.15.54,2.23,1.88.4.5.69.82.79,1,.51.5.62.68.62,1s-.26.58-.8.61a10.32,10.32,0,0,0-4.74,1.51c-1.34.65-1.7.8-3.57,1.62Z"/><path class="cls-2" d="M435.16,20.52c2.09,1.65,3.2,3.38,3.2,5a1.72,1.72,0,0,1-1.58,1.88c-.72,0-1.19-.47-1.66-1.69a14.35,14.35,0,0,0-7.48-8.07,29.46,29.46,0,0,1-10.76,9.14,20.07,20.07,0,0,1-4.75,1.88c-.25,0-.54-.22-.54-.44s.11-.21.69-.43c3.45-1.33,8-4.68,11.15-8.28a34.08,34.08,0,0,0,5-7.7,11.15,11.15,0,0,0,1.29-3.27c0-.33-.25-.54-.65-.54a40.54,40.54,0,0,0-8.56,2.26c-.61.26-.65.26-.79.26-.32,0-.36,0-1.51-.87a1.75,1.75,0,0,1-.94-1.73c0-.68.11-1,.36-1a.22.22,0,0,1,.18.18c.22.54,1.3.94,2.56.94A58.82,58.82,0,0,0,427.35,7a7.64,7.64,0,0,0,2.88-1.19,1,1,0,0,1,.58-.22c.36,0,.79.26,2.15,1.3,1,.76,1.16.94,1.16,1.22s-.11.25-.44.47l-.75.54A51.9,51.9,0,0,1,428.11,17,16.59,16.59,0,0,1,435.16,20.52Z"/><path class="cls-2" d="M455,13.79V12.63c0-.68,0-1.15,0-1.33a2.92,2.92,0,0,0-2.3-3c-.18-.07-.29-.14-.29-.21,0-.22,1.08-.51,1.87-.51s1.58.4,2.95,1.41c.36.28.61.46.68.5.44.29.58.43.58.61s0,.11-.22.47a6.45,6.45,0,0,0-.72,2.73c-.28,2.88-.43,5.12-.43,6.74,0,2.48.11,2.84.83,2.84,1.51,0,4.89-1.73,8.42-4.32a53.88,53.88,0,0,0,10.43-10c.33-.47.44-.54.54-.54s.33.25.33.43A12.29,12.29,0,0,1,476.18,11a41,41,0,0,1-8,8.67A40.23,40.23,0,0,1,460,24.94a8,8,0,0,0-2.41,1.66c-.33.36-.54.5-.69.5a6.36,6.36,0,0,1-1.51-1,2.85,2.85,0,0,1-1.08-1.41,1.23,1.23,0,0,1,.15-.54,4.65,4.65,0,0,0,.47-2Z"/><path class="cls-2" d="M497.56,14.4a45.65,45.65,0,0,0,5.54-.54c0-.43,0-.76,0-1,0-2.41-.43-3.64-1.33-3.71-4,1.37-5.9,1.77-8.28,1.77-.57,0-.93-.15-.93-.4s.11-.18.39-.22l.4-.1c.22,0,.47-.11.72-.15a27.92,27.92,0,0,0,7.56-2.91c3.27-1.77,3.77-2.13,3.77-2.74a1.5,1.5,0,0,0-.5-1.19c-.11-.07-.18-.14-.18-.21s.18-.15.36-.15c1.44,0,4.86,1.7,4.86,2.42,0,.32-.15.43-1.66,1.18a44,44,0,0,1-4.71,2.09c1.76.94,2.62,1.62,2.62,2.09a2.32,2.32,0,0,1-.07.36,3.45,3.45,0,0,0-.28,1.08c0,.83-.08,1.58-.08,1.58,4-.47,5.8-.83,6.84-1.33.61-.32.65-.32.9-.32a4,4,0,0,1,2,.82c1.47.94,1.73,1.19,1.73,1.59a.91.91,0,0,1-.9.83,6.54,6.54,0,0,1-.8-.08,36.91,36.91,0,0,0-5.07-.43c-1.11,0-3.63.11-4.78.18a21.6,21.6,0,0,1-2.31,8,17.54,17.54,0,0,1-8.24,7.56,4.14,4.14,0,0,1-1.76.58c-.25,0-.43-.15-.43-.33s0-.21.57-.46c5.72-2.88,9.07-8.21,9.5-15.12a55.73,55.73,0,0,0-9.82,1.8,5,5,0,0,1-1.62.39A4.1,4.1,0,0,1,489,15.77a2.49,2.49,0,0,1-.65-1.84c0-.14.07-.22.18-.22s.25,0,.43.22a4.64,4.64,0,0,0,3.13.83c.4,0,.4,0,2.78-.18Z"/><path class="cls-2" d="M533.26,16a3.8,3.8,0,0,1,1.87,2.95c0,.94-.5,1.55-1.25,1.55s-.87-.29-1.16-1.29c-.46-1.66-2-3.68-3.09-4.11-.4-.18-.47-.21-.47-.36s.18-.25.47-.25A7,7,0,0,1,533.26,16Zm-1.87,15.7a5.46,5.46,0,0,0-.72.18,1.88,1.88,0,0,1-.36.07.5.5,0,0,1-.43-.4c0-.11.07-.14.22-.18a25.66,25.66,0,0,0,5.4-2.81,31.34,31.34,0,0,0,8.23-8A21.55,21.55,0,0,0,546,16a13.49,13.49,0,0,0,.58-2.63,1.49,1.49,0,0,0-1-1.4c-.25-.08-.32-.15-.32-.26s.43-.39,1-.39a2.76,2.76,0,0,1,2.09,1c1.18,1.23,1.58,1.73,1.58,2s-.14.47-.9,1.05C545.82,23.18,538.23,30.16,531.39,31.68Zm9.32-15.23A1.45,1.45,0,0,1,539.34,18a.9.9,0,0,1-.93-.83c-.33-2-1.91-4.5-3.2-5.07-.15-.07-.22-.15-.22-.25s.14-.22.36-.22C537.65,11.59,540.71,14.33,540.71,16.45Z"/><path class="cls-2" d="M563,29.8a37.58,37.58,0,0,0,11-7.73,30,30,0,0,0,6.26-8.46,12.58,12.58,0,0,0,1.33-3.21.83.83,0,0,0-.86-.79c-.14,0-.4,0-.68.07-.11,0-.87.18-1.62.29s-1.12.18-1.41.22a3.14,3.14,0,0,1-.72.1,2.81,2.81,0,0,1-1.4-.5A35.55,35.55,0,0,1,569,17c-1.72,1.58-4.1,3.2-4.67,3.2-.22,0-.4-.11-.4-.25s.07-.33,1-1a30,30,0,0,0,5.9-6.74c1.51-2.3,2.45-4.35,2.45-5.54a2.31,2.31,0,0,0-1.33-2.23c-.15,0-.25-.14-.25-.22S572,4,572.6,4a4.33,4.33,0,0,1,2.52.9c1.29.86,1.58,1.15,1.58,1.66,0,.21,0,.28-.25.54a5.5,5.5,0,0,0-.61.9c-.26.57-.36.75-.51,1a2.4,2.4,0,0,0,.87.14,22.31,22.31,0,0,0,4.31-.79,6.75,6.75,0,0,0,1.37-.65c.61-.39.83-.46,1-.46.4,0,.87.28,2.09,1.33,1.08.9,1.22,1,1.22,1.37s-.14.43-.54.57-.57.22-1.15.5c-5.11,10.23-11.19,15.91-20.87,19.48a2.75,2.75,0,0,0-.5.18,2.42,2.42,0,0,1-.32.07c-.29,0-.65-.29-.65-.54s.07-.18.5-.29Z"/></g></g></g></svg>