<svg xmlns="http://www.w3.org/2000/svg" viewBox="0 0 681.91 49.14"><defs><style>.cls-1{fill:#343434;}</style></defs><title>dokidoki-videos-title</title><g id="Layer_2" data-name="Layer 2"><g id="Layer_1-2" data-name="Layer 1"><path class="cls-1" d="M23,25.27H19.39v2.22c0,.59-1,1.08-2.16,1.08-.6,0-1-.33-1-.81V5.67L20,7.78h2.43a47.64,47.64,0,0,0,1-7.51l4.27.7c.64.11,1,.49,1,.92A1.48,1.48,0,0,1,28,3l-1.14.81-2.32,4h5.18l1.3-2.06,3.08,2.92a1.29,1.29,0,0,1,.38.86,1,1,0,0,1-.6.81l-.86.49V26.51c0,1-1,1.68-2.43,1.68-.49,0-.7-.27-.7-.81V25.27H26.3v6.21H41.36L44.17,28l4.32,3.57c.38.27.54.54.54.75a.55.55,0,0,1-.59.49H27.7C33,38.12,41,41.85,50.17,43.15A14.5,14.5,0,0,0,46,47.36a43.89,43.89,0,0,1-11.13-5.67c-3.29-2.32-4.8-3.73-8.58-8.21V47.74a.87.87,0,0,1-.16.54,4.25,4.25,0,0,1-2.38.86.78.78,0,0,1-.81-.7V34.67c-6.05,5.13-9,7.13-14.8,9.94-3.29,1.61-6.8,3-7.66,3A.45.45,0,0,1,0,47.14c0-.27,0-.27,3.19-1.89A61.43,61.43,0,0,0,19.71,32.78H11.5c-3.72.11-5.4.11-9.93.27L.86,31.16c2.6.11,4.86.16,5.78.22,2.38.05,4,.1,4.86.1H23ZM15,19.22,6.26,26.41l-.21,1c-.16.7-.6,1.14-1.08,1.14a1.15,1.15,0,0,1-.6-.22L.92,25c4.7-2.05,6.32-2.86,13.66-6.75ZM2.7,5.89c5.45,1.29,9.13,4.37,9.13,7.5a2.13,2.13,0,0,1-1.95,2.38,1.86,1.86,0,0,1-1.35-.6c-.38-.37-.38-.37-1.46-3.34a15.92,15.92,0,0,0-4.59-5.3Zm27.22,10V9.07H19.39v6.81Zm0,8.1V17.17H19.39V24ZM46,8.1a.62.62,0,0,1,.27.49c0,.27-.32.54-1,.7l-1.84.48-7.83,6.59c-.54.43-.81.6-1.08.6s-.43-.17-.43-.49.22-.59,2.38-3.35c1.45-2,2.86-3.94,5.72-8.21ZM34.67,17.93c4.37.7,6.32,1.29,8.42,2.54,2.27,1.29,3.46,2.8,3.46,4.32a2,2,0,0,1-1.89,2c-.7,0-.87-.17-3.67-3.41a21.78,21.78,0,0,0-6.43-4.53Z"/><path class="cls-1" d="M71.44,9.34c0-.92-.11-1.08-.65-1.29A26.58,26.58,0,0,0,66.91,6.8a1.66,1.66,0,0,1,1.24-1.13,9.43,9.43,0,0,1,2.91-.59c.65,0,1.46.43,3.62,1.78,1.57,1,1.89,1.35,1.89,1.89A2.05,2.05,0,0,1,76,9.94a3,3,0,0,0-.86,2.26L74.3,27.87c-.16,2.1-.21,4.37-.21,6.21,0,2.64.38,4.15,1.35,5.34,1.19,1.41,3.24,2.16,5.88,2.16,6.59,0,14-3.56,20.25-9.66,1-1,1.35-1.3,1.73-1.3a.64.64,0,0,1,.6.59c0,.49-2.65,3.57-5.08,5.83a40.32,40.32,0,0,1-6.8,5.3,26.15,26.15,0,0,1-10.7,2.86c-3.18,0-6.64-1.35-8.26-3.24-1.46-1.67-2.21-4.64-2.21-8.7l.05-.86.54-22.9Z"/><path class="cls-1" d="M155.68,27.05a31.13,31.13,0,0,0-1.19,3.08,54.44,54.44,0,0,1,8.43,3.95c1.56.91,2,1.51,2,2.64,0,1.3-.54,1.89-1.62,1.89a3.44,3.44,0,0,1-1.89-.76,61.62,61.62,0,0,0-8.21-5c-3,6-5.73,10-9.18,13.28-2.05,1.89-3,2.65-3.51,2.65a.46.46,0,0,1-.43-.44c0-.21.21-.54.75-1.08a46.28,46.28,0,0,0,9.4-15.66C144.45,29.7,140.94,29,137.05,29h-1.46c-1.4,2.64-3.78,6.7-5,8.37-1.84,2.64-4.22,4.37-5.89,4.37-2.92,0-5.72-2.43-5.72-5s2.21-5.45,6.1-7.4A26.82,26.82,0,0,1,133.6,27a129.65,129.65,0,0,0,7.34-17.39c-6.05,1.67-7.51,2.27-9.72,3.67a1.78,1.78,0,0,1-.86.38c-1.35,0-4.92-3.3-4.92-4.54,0-.48.16-.86.81-1.94,1.89,1.94,2.7,2.48,3.84,2.48S136.3,8.42,140.78,7l1.56-1.84c2.92,1.89,4.22,3.14,4.22,4.05,0,.65-.44.92-2.11,1.35l-3.62,7.73c-2.37,5-3,6.26-4.21,8.53,6.86.16,8.42.38,14.63,2.1a42.25,42.25,0,0,0,2.11-7.83c0-.81-.49-1.24-2.65-2.32,1.14-1.13,1.62-1.46,2.22-1.46s2.37,1,4,2.22c1.35,1,2,1.83,2,2.54,0,.54-.49.91-1.89,1.29-.16.43-.22.65-.33.92ZM122.2,37c0,1.4.76,2.32,2,2.32,1.72,0,3.45-1.62,5.88-5.56a35.32,35.32,0,0,0,2.43-4.54C126.74,30,122.2,33.43,122.2,37Z"/><path class="cls-1" d="M196.94,1.08l5,.59c.54.11,1,.54,1,1s-.27.59-.86,1l-1.24.76V12.1h14.63l3.56-4,4.49,3.45a1.48,1.48,0,0,1,.7,1.08.83.83,0,0,1-.92.81H199.21c-.17,3.78-.22,5-.65,9.72H211.3l1.46-2.32,3.89,2.86a1.79,1.79,0,0,1,.7,1.08,1,1,0,0,1-.7.87l-.92.27c-1,9.34-1,9.34-1.35,11.39-1,4.86-2.32,7.67-4.7,9.5a7.37,7.37,0,0,1-4.48,1.62c-.65,0-.86-.16-.86-.7,0-1.51,0-1.62-.17-1.72a2.4,2.4,0,0,0-.81-.54l-5.29-2.54.27-.92,3.46.65a27.59,27.59,0,0,0,3.89.48c2.26,0,3.29-1.13,4.21-4.75,1.08-4.1,1.29-5.56,1.83-13.93H198.34c-1.29,8.85-3.83,13.77-9.39,18.47a35.63,35.63,0,0,1-9.67,5.72,4.63,4.63,0,0,1-1.51.49.49.49,0,0,1-.49-.49c0-.38.27-.65,1.24-1.13,5.67-3,11.67-9.51,13.67-14.91,1.89-4.75,2.48-8.85,2.8-19.17h-9.28c-3.46,0-5.13.06-9.94.27l-.7-1.83c5.67.21,7.88.27,10.64.27h11.23Z"/><path class="cls-1" d="M255.53,7.07a2.32,2.32,0,0,0,.32-1.18c0-.6-.38-.87-3.13-2.06.86-1.18,1.24-1.45,1.94-1.45a12.1,12.1,0,0,1,4.11,2c1.24.87,1.67,1.41,1.67,2a1.27,1.27,0,0,1-.38.87,7.31,7.31,0,0,1-.64.7,6.46,6.46,0,0,0-.87.81l-2.27,3c5.3-1,5.62-1.08,6.92-2.11a1,1,0,0,1,.81-.32c1.78,0,3.13.86,3.13,2,0,1.45-1.41,1.83-11.72,3.18l-1,.16L248,23.54c4-2.05,5.62-2.53,8.21-2.53a5,5,0,0,1,4.7,2.64,6.85,6.85,0,0,1,.7,2.76l12.47-5.78c.87-.38,1.3-.7,1.3-.92,0-.49-.65-.86-3.29-1.78.86-.76,1.35-1.08,1.83-1.08a13.16,13.16,0,0,1,3.4,1.19c2.22,1.08,3.24,2.16,3.24,3.34a1.46,1.46,0,0,1-1.08,1.46C279,23,279,23,277,23.6a131.8,131.8,0,0,0-15.12,5.51l0,6.85v.44a1.85,1.85,0,0,1-.7,1.78,2.8,2.8,0,0,1-1.84.81c-.81,0-.92-.16-1.13-1.57v-.16l.21-6.53a32.62,32.62,0,0,0-5.29,3c-3.29,2.21-4.7,4-4.7,5.77,0,3.14,2.76,4.32,9.89,4.32a46.25,46.25,0,0,0,12.58-1.56,5.58,5.58,0,0,1,1.19-.27,2.78,2.78,0,0,1,2.43,2.59c0,1-1.19,1.67-3.3,2-2.48.32-7.83.64-10.69.64-9.45,0-14.15-2.48-14.15-7.45,0-2.65,1.51-4.86,5.13-7.45,2.27-1.57,4.16-2.81,6.86-4.37-.05-3.08-.05-3.19-.59-3.89a2.86,2.86,0,0,0-2.6-1.25c-1.56,0-3.18.65-5.72,2.33a13.47,13.47,0,0,0-3.62,3.18l-3.13,3.62c-1,1.14-1.4,1.4-2.21,1.4-1,0-1.52-.7-1.52-1.88a3.79,3.79,0,0,1,.81-2.33c.11-.16.11-.16,1.68-1.35a28.15,28.15,0,0,0,3.45-3.78l6.16-9.18c-2.43.22-4.32.33-5.83.33-1.35,0-2.16-.44-3.51-2a5.83,5.83,0,0,1-1.62-2.59c0-.32.21-.54,1-.92,2.32,2.38,3.46,2.76,8.26,2.76.92,0,1.73-.06,3.19-.17Z"/><path class="cls-1" d="M305.21,5.89c-6.86,1-10.37,1.45-11.4,1.45-.48,0-.75-.16-.75-.37s.27-.44.81-.6C304.72,3.94,309.53,2.43,314.44,0l2.92,2.27A1.45,1.45,0,0,1,318,3.35c0,.43-.49.75-1.08.75H315a40.78,40.78,0,0,1-6.48,1.25V9.72h5.13l2.92-3.24,3.89,3.08c.43.32.54.54.54.86s-.17.6-.65.6H308.5v4.42h5.24l1.46-2,3,2.48a1.46,1.46,0,0,1,.54,1,.87.87,0,0,1-.7.86l-.54.11v9.4c0,.91-1.08,1.67-2.38,1.67-.43,0-.7-.22-.7-.59v-1H308.5v4.91H313l2.86-2.91,3,2.48a1.56,1.56,0,0,1,.7,1.19c0,.49-.05.49-.86.49H308.5v4.69c3.35-.43,5.24-.75,10.1-1.78l.16,1c-7.61,2.38-11.34,3.35-21.27,5.67l-.65,1.08c-.38.65-.65.81-1,.81a1,1,0,0,1-.92-.59l-3-4.21c5.08-.38,7.29-.6,13.29-1.46V33.54h-4.92c-2.75.1-3.88.1-6.31.16l-1-1.62,3.84.1c1.67.06,2.81.11,3.45.11h4.92V27.38h-6.37v2.1c0,.87-.92,1.52-2.22,1.52-.54,0-.81-.27-.81-.76V13.45l4.05,2h5.35V11h-6.7c-1.62,0-3,.05-6.37.16l-.86-1.68,7.23.22h6.7Zm0,14.85v-4h-6.37v4Zm0,5.34V22h-6.37v4Zm9.23-5.34v-4H308.5v4Zm0,5.34V22H308.5v4Zm3.4-13.5c3.35.16,3.78.16,6.7.22V.43l4.32.7c1,.17,1.51.54,1.51,1.14s-.38.86-1.24,1.29L328.05,4v8.8h5.89l1.72-2.65,3.62,3a1.35,1.35,0,0,1,.54.91c0,.33-.21.6-.65.76l-1,.49V22c0,7.62-.81,14.37-2.21,18.52a10,10,0,0,1-4.92,6.11,5.55,5.55,0,0,1-2.16.64c-.64,0-.91-.32-.91-1.18-.06-1.41-.17-1.51-1.35-2.11l-3.78-1.89.21-.86,4.38.86a3.4,3.4,0,0,0,1.13.11c2.43,0,4-1.84,4.75-5.62a76.08,76.08,0,0,0,1.3-15.23c0-1.34,0-1.34-.11-7.23H328c-.06.86-.06,1.35-.06,1.62-.27,8-.81,11.5-2.48,16.31-2.22,6.26-5.4,10.26-11.83,14.63-2.32,1.62-3.89,2.43-4.53,2.43a.44.44,0,0,1-.49-.43c0-.27,0-.27,2.43-2,10-7.39,13.39-15.66,13.5-32.61-2.81,0-3.24,0-6.21.16Z"/><path class="cls-1" d="M349.87,3.73c2.43.1,4.75.16,5.45.21l5.18.11h30.19L394.15.38l4.75,3.56a1.18,1.18,0,0,1,.38.76.64.64,0,0,1-.71.65H376.22v8.91h6l1.51-2.38L387.4,15a1.11,1.11,0,0,1,.43.81c0,.38-.22.6-.7.81l-.87.38V37.1c0,1-1.29,1.94-2.7,1.94a.75.75,0,0,1-.81-.7v-2.7H366.17v3.29c0,.6-.32,1-1.08,1.3a7.56,7.56,0,0,1-1.72.43.72.72,0,0,1-.76-.81V12.26l4.16,2h5.67V5.35H360.5c-.64,0-2.43.05-5.18.16-.65,0-2.54,0-4.59.11Zm6.58,39.42H392V9.45l4.43.65c.81.16,1.24.48,1.24,1.08,0,.32-.22.59-.76,1l-1.18.92V46.71c0,.87-1.52,1.89-2.81,1.89a.88.88,0,0,1-.92-.92V44.44H356.45v3.24c0,.76-1.35,1.46-2.7,1.46a.88.88,0,0,1-1-.86V9.13l4.48.64c.87.11,1.41.54,1.41,1.19s-.33,1-1,1.3l-1.19.54Zm16-19.07V15.55h-6.27v8.53Zm0,10.21V25.38h-6.27v8.91Zm10.31-10.21V15.55h-6.53v8.53Zm0,10.26v-9h-6.53v9Z"/><path class="cls-1" d="M445.82,8.32a1.84,1.84,0,0,0,1.08-.6c.71-.75,1.14-1.08,1.57-1.08a14,14,0,0,1,4,1.51c1.08.65,1.56,1.19,1.56,1.79a1.48,1.48,0,0,1-1.62,1.4,10.32,10.32,0,0,1-1.18-.11c-.76-.05-1.36-.11-1.84-.11s-5.24.49-6.16.65c-3,.43-6.15,2.32-9,5.35-3,3.24-4.48,6.53-4.48,10.21a12.09,12.09,0,0,0,7.62,11.39,20.08,20.08,0,0,0,7,1.51c2.43.16,3.18.7,3.18,2.27s-.86,2.21-2.64,2.21A22.06,22.06,0,0,1,437.29,43a15.45,15.45,0,0,1-9.83-14.69c0-5.3,2.81-11.29,7.19-15.34-7.56,1.24-15.45,3.56-16.85,4.86a2.78,2.78,0,0,1-1.35.6c-.54,0-1.46-.65-3.57-2.65-1.56-1.51-1.72-1.68-1.72-1.95a7,7,0,0,1,.43-1.4,4.86,4.86,0,0,1,.65-.92c2.16,2.22,2.75,2.65,3.56,2.65l.81-.11Zm-4.37,11.39c4.11,1.46,6.7,3.83,6.7,6.05a1.73,1.73,0,0,1-1.73,1.89c-.7,0-.92-.22-1.57-1.84A11.76,11.76,0,0,0,441,20.36Zm5.78-3c4.86.65,7.88,2.59,7.88,5a1.61,1.61,0,0,1-1.46,1.78c-.64,0-1-.27-1.78-1.51a13.91,13.91,0,0,0-5-4.48Z"/><path class="cls-1" d="M504.25,20.68,508,19.12c3.51,1.83,4.65,2.75,4.65,3.83,0,.59-.76,1.13-1.52,1.13a7.75,7.75,0,0,1-1.4-.16,42.28,42.28,0,0,0-7.45-.59c-2.22,0-3.57.05-8.53.32-.71,12.53-4.54,18.2-15.61,22.9a5.75,5.75,0,0,0-.92.38,1.81,1.81,0,0,1-.43.11.49.49,0,0,1-.49-.38c.06-.27.27-.49,1-.92,9-4.81,12.58-10.91,13.12-21.87-7.18.48-13.71,1.62-14.63,2.43a3.54,3.54,0,0,1-1,.38c-.6,0-1.89-.87-3.46-2.33-1.35-1.18-1.51-1.4-1.51-1.94a7.91,7.91,0,0,1,.75-2.11l.38.33c2,1.94,2.38,2.1,3.89,2.1.76,0,.76,0,3.4-.21l12.26-.92c-.11-5.67-.11-6.26-.27-8.1-7.83,1.67-9,1.94-13.34,2.75a17.3,17.3,0,0,1-3.4.6c-.49,0-.76-.22-.76-.6s.22-.54,2.6-1.13c3.18-.76,10.36-2.81,15.22-4.43,5.73-1.83,7.94-2.86,7.94-3.45,0-.33-.27-.71-.92-1.3.11-.32.22-.38.54-.38a8,8,0,0,1,3,1c2.59,1.08,3.29,1.67,3.29,2.81,0,.75-.48,1.08-1.67,1.08a6.77,6.77,0,0,0-2.59.43c-2.38.65-4.38,1.19-6.05,1.56l.38.27.32.17c.43.27.59.48.59.75s-.27.7-1,1.24c-.43.33-.54.49-.54,1.35l-.11,5.08Z"/><path class="cls-1" d="M562.84,34.56c2.27,1,4.16,2.59,4.16,3.46a1.27,1.27,0,0,1-1.08,1.19,2.8,2.8,0,0,1-.76-.17,19.49,19.49,0,0,0-6-.86c-9.45,0-19.39,1.4-22.3,3.13a1.83,1.83,0,0,1-.65.27c-.86,0-4-3.08-4-3.94a3.56,3.56,0,0,1,.6-1.51l.32.27.27.16c1.73,1.29,1.73,1.29,2.05,1.29.06,0,.6-.05,1.41-.16l11.5-1.29V27.22c0-2.33,0-2.49-.43-3.3l-1.08.11c-4.11.49-4.38.54-5.73,1.19a3.7,3.7,0,0,1-1.62.59c-1,0-3.72-2.37-3.72-3.24a5.52,5.52,0,0,1,.75-1.89c1.3,1.35,2.16,1.89,3,1.89a12.15,12.15,0,0,0,1.3-.11c5.83-.7,10.91-1.18,14.31-1.4,1.57,0,1.57,0,2-.38.27-.21.92-.75,1.35-1.13.81.49,1,.65,1.62,1,1.89,1.19,2.32,1.62,2.32,2.38a.88.88,0,0,1-.92.92,4.6,4.6,0,0,1-.65-.11,6.61,6.61,0,0,0-.7-.11c-.21,0-.92,0-1.94-.11L555,23.38a34.57,34.57,0,0,0-4.48.33c1.13.64,1.45.91,1.45,1.29,0,.17-.1.27-.37.6-.44.43-.49.48-.49.91v9.78l1.08,0a85.87,85.87,0,0,1,9-.49Z"/><path class="cls-1" d="M593.14,20.14c4.59,1.84,7.18,4.38,7.18,7.13a1.91,1.91,0,0,1-1.89,2.11c-1.08,0-1.35-.38-2-2.81a10.05,10.05,0,0,0-3.78-5.67Zm23.49-1.89.32-.16a4.89,4.89,0,0,0,.76-.32,1.84,1.84,0,0,1,.64-.17c1.09,0,4.49,3.57,4.49,4.7,0,.38-.27.6-1.46,1.08A55.21,55.21,0,0,1,615,33.32a37,37,0,0,1-15,11.23,13.83,13.83,0,0,1-2.91,1.08.49.49,0,0,1-.54-.48c0-.33.21-.54,1.13-1a44.94,44.94,0,0,0,8.59-5.5,42.62,42.62,0,0,0,10.15-13.4,14.21,14.21,0,0,0,1.73-4.48c0-.54-.6-1.29-1.95-2.37Zm-14.85-.75c4.48,1,7.93,4.32,7.93,7.5a1.82,1.82,0,0,1-1.83,1.84c-1.14,0-1.35-.27-2-2.11a12.07,12.07,0,0,0-4.59-6.64Z"/><path class="cls-1" d="M677.86,11.72a15.47,15.47,0,0,1,2.49,2l.7.65c.65.65.86.92.86,1.24s-.43.7-1.62,1c-.64.27-.7.27-1,1a77.32,77.32,0,0,1-7.18,12.15c-4.11,5.61-7.78,8.86-15,13.28-3,1.84-5,2.87-5.45,2.87a.59.59,0,0,1-.6-.54c0-.27.22-.54.76-.81,11.39-7,18.52-15.56,24.14-28.95a67.94,67.94,0,0,0-11.24,1.08l-.81-.86a54.46,54.46,0,0,1-10.36,11.93c-2.06,1.84-4.7,3.73-5.24,3.73a.46.46,0,0,1-.43-.44c0-.32.16-.48.91-1.13,3.14-2.54,7.29-7.61,10.54-12.8,1.62-2.64,4.31-7.94,4.31-8.53,0-.43-.91-1.13-2.1-1.62-.7-.27-.81-.32-.81-.54s1.94-1.19,2.64-1.19.76,0,4.38,2.27c1,.65,1.35,1,1.35,1.57s-.27.75-1.14,1.08a2.33,2.33,0,0,0-1,.75c-.06.11-.16.33-.7,1.3-.38.59-.6.92-1,1.67l2,0,3.24-.16,3.83-.22c.22,0,.71-.05,1.46-.11Z"/></g></g></svg>