<svg xmlns="http://www.w3.org/2000/svg" viewBox="0 0 519.18 32.58"><defs><style>.cls-1{isolation:isolate;}.cls-2{fill:#333;}</style></defs><title>dokidoki-enjoy-point-title</title><g id="Layer_2" data-name="Layer 2"><g id="Layer_1-2" data-name="Layer 1"><g class="cls-1"><path class="cls-2" d="M0,28.9c3.42-.14,4-.61,4-3.24V8.35c0-2.09-.94-2.73-4-2.73V4.43H11.69c4.54,0,8,.93,10.33,2.84a12.62,12.62,0,0,1,4.43,10c0,7.81-5.73,12.75-14.76,12.75H0Zm7.23-3.13c0,2.52.69,3.1,3.74,3.1,7.27,0,11.41-4.36,11.41-11.95,0-7.42-4-11.34-11.66-11.34-2.62,0-3.49.65-3.49,2.63Z"/><path class="cls-2" d="M59.55,17.17c0,7.74-5.43,13.46-12.81,13.46S33.83,25.05,33.83,17.31a12.6,12.6,0,0,1,5.79-11A12.6,12.6,0,0,1,47.1,4C54.3,4,59.55,9.57,59.55,17.17ZM40.81,7.74c-2,2-3,5-3,9.14,0,8,3.16,12.53,8.67,12.53S55.45,24.76,55.45,17c0-7.56-3.06-11.77-8.6-11.77A8.62,8.62,0,0,0,40.81,7.74Z"/><path class="cls-2" d="M66,28.87h.64c2.52,0,3.39-.69,3.42-2.67v-18c0-2.16-.57-2.56-4-2.67V4.43H77.3V5.54c-3.31,0-4,.47-4,2.67v9.64L83.56,8.21a2.3,2.3,0,0,0,.86-1.59c0-.79-.5-1-2.59-1.08V4.43h10V5.54a8.42,8.42,0,0,0-6.3,2.59l-6.15,5.73,9.32,12.63c1.11,1.66,2.48,2.34,4.82,2.45v1.12H82.66V28.87h0c1.76,0,2.37-.29,2.37-1.15a2.18,2.18,0,0,0-.5-1.3L77.08,16,73.3,19.51v6.41c0,2.44.76,2.95,4,2.95v1.19H66Z"/><path class="cls-2" d="M99.43,28.83c3.57,0,4.32-.54,4.32-3V8.35c0-2.27-.61-2.66-4.32-2.73V4.43h11.7V5.62c-3.49,0-4.29.5-4.29,2.73V25.81c0,2.55.76,3.06,4.29,3v1.23H99.43Z"/><path class="cls-2" d="M116.89,28.9c3.41-.14,4-.61,4-3.24V8.35c0-2.09-.94-2.73-4-2.73V4.43h11.69c4.53,0,7.95.93,10.33,2.84a12.64,12.64,0,0,1,4.42,10c0,7.81-5.72,12.75-14.75,12.75H116.89Zm7.23-3.13c0,2.52.68,3.1,3.74,3.1,7.27,0,11.41-4.36,11.41-11.95,0-7.42-4-11.34-11.66-11.34-2.63,0-3.49.65-3.49,2.63Z"/><path class="cls-2" d="M176.44,17.17c0,7.74-5.43,13.46-12.81,13.46s-12.92-5.58-12.92-13.32a12.61,12.61,0,0,1,5.8-11A12.56,12.56,0,0,1,164,4C171.19,4,176.44,9.57,176.44,17.17ZM157.69,7.74c-2,2-2.95,5-2.95,9.14,0,8,3.17,12.53,8.68,12.53s8.92-4.65,8.92-12.42c0-7.56-3.06-11.77-8.6-11.77A8.65,8.65,0,0,0,157.69,7.74Z"/><path class="cls-2" d="M182.92,28.87h.65c2.52,0,3.38-.69,3.42-2.67v-18c0-2.16-.58-2.56-4-2.67V4.43h11.22V5.54c-3.3,0-4,.47-4,2.67v9.64l10.26-9.64a2.3,2.3,0,0,0,.86-1.59c0-.79-.51-1-2.59-1.08V4.43h10V5.54a8.4,8.4,0,0,0-6.29,2.59l-6.15,5.73,9.31,12.63c1.12,1.66,2.49,2.34,4.83,2.45v1.12H199.54V28.87h0c1.76,0,2.38-.29,2.38-1.15a2.2,2.2,0,0,0-.51-1.3L194,16l-3.78,3.56v6.41c0,2.44.76,2.95,4,2.95v1.19H182.92Z"/><path class="cls-2" d="M216.32,28.83c3.56,0,4.32-.54,4.32-3V8.35c0-2.27-.61-2.66-4.32-2.73V4.43H228V5.62c-3.49,0-4.28.5-4.28,2.73V25.81c0,2.55.76,3.06,4.28,3v1.23H216.32Z"/><path class="cls-2" d="M253,12.09a8.3,8.3,0,0,1,5.36-2.3c2.56,0,4.54,1.51,4.54,3.46a2.12,2.12,0,0,1-.94,1.9c-.75.58-1,.65-4.32,2a62.84,62.84,0,0,0-7.7,3.5c.11,1.58.18,2.73.18,3.31,0,1.8-.36,2.26-1.8,2.26-.43,0-.64-.14-.64-.36a1,1,0,0,1,0-.28,27.2,27.2,0,0,0,.18-3.89c-3.09,1.83-4.35,3.27-4.35,4.89,0,1.8,1.69,2.52,5.9,2.52a20.78,20.78,0,0,0,5.29-.64,2.75,2.75,0,0,1,.93-.18,1.92,1.92,0,0,1,1.73,1.47c0,1.19-2.37,1.8-7.27,1.8a11.84,11.84,0,0,1-5.86-1.08,4.27,4.27,0,0,1-2.48-3.67,4.54,4.54,0,0,1,1.83-3.38,25.9,25.9,0,0,1,4.25-2.77,14,14,0,0,0-.47-4.54,1.87,1.87,0,0,0-1.69-1.26,4.21,4.21,0,0,0-2.56,1.33A21.74,21.74,0,0,0,240.07,20c-.4.69-.79,1-1.19,1s-1.26-1.19-1.26-2.12c0-.47.15-.72.87-1.26,3.88-3.39,6.26-6.88,6.94-10.22A11.18,11.18,0,0,1,242.3,8a2.24,2.24,0,0,1-1.87-1.3,4.68,4.68,0,0,1-.54-1.37.15.15,0,0,1,.14-.14s.11,0,.18.14a2.28,2.28,0,0,0,2.13.94,9.57,9.57,0,0,0,3.27-.58,6.15,6.15,0,0,0,.11-1A1.71,1.71,0,0,0,244,2.77c-.15,0-.18,0-.18-.14,0-.33,1.22-.9,1.9-.9a2.47,2.47,0,0,1,2.38,2.12,5.49,5.49,0,0,1-.29,1.37A5.25,5.25,0,0,0,250.14,4c1.23.61,1.59.86,1.59,1.15s-.79.75-4.21,1.76a42,42,0,0,1-4.1,7.67,5.57,5.57,0,0,1,2.37-.65,3.63,3.63,0,0,1,2.3.83,5.13,5.13,0,0,1,1.33,2.55A14.67,14.67,0,0,1,253,12.09Zm1.55,4.68a36.63,36.63,0,0,0,4.6-2.7,2,2,0,0,0,.72-1.26A2.17,2.17,0,0,0,257.7,11c-1.87,0-4.32,1.7-5.72,4a18.32,18.32,0,0,0-2.12,4.43C251.29,18.57,251.55,18.43,254.57,16.77Z"/><path class="cls-2" d="M288,16.67h-2.37v1.47c0,.4-.65.72-1.44.72-.4,0-.65-.21-.65-.54V3.6L286.06,5h1.62a31.69,31.69,0,0,0,.68-5l2.85.47c.43.07.68.32.68.61a1,1,0,0,1-.51.76l-.75.54L289.08,5h3.46l.86-1.36,2.05,1.94a.88.88,0,0,1,.25.58.66.66,0,0,1-.39.54l-.58.32V17.49c0,.65-.68,1.12-1.62,1.12-.32,0-.47-.18-.47-.54v-1.4h-2.41v4.14h10l1.87-2.34L305,20.84c.25.18.36.36.36.51a.36.36,0,0,1-.39.32H291.17c3.53,3.56,8.85,6,15,6.91a9.74,9.74,0,0,0-2.77,2.81A29.34,29.34,0,0,1,296,27.61a25.53,25.53,0,0,1-5.73-5.47v9.5a.55.55,0,0,1-.1.36,2.83,2.83,0,0,1-1.59.58.52.52,0,0,1-.54-.47V22.93a39.69,39.69,0,0,1-9.86,6.62,22.21,22.21,0,0,1-5.1,2,.3.3,0,0,1-.33-.29c0-.18,0-.18,2.12-1.26a40.65,40.65,0,0,0,11-8.31h-5.46c-2.49.07-3.6.07-6.63.18l-.46-1.26,3.85.14c1.58,0,2.66.08,3.24.08H288Zm-5.29-4-5.83,4.79-.14.69c-.11.46-.39.75-.72.75a.74.74,0,0,1-.39-.14l-2.31-2.27c3.13-1.37,4.21-1.91,9.11-4.5Zm-8.2-8.89c3.63.87,6.08,2.92,6.08,5a1.42,1.42,0,0,1-1.29,1.58,1.18,1.18,0,0,1-.9-.4c-.26-.25-.26-.25-1-2.23a10.54,10.54,0,0,0-3.05-3.52Zm18.13,6.66V5.87h-7V10.4Zm0,5.4V11.27h-7V15.8ZM303.33,5.22a.43.43,0,0,1,.18.32c0,.18-.22.36-.68.47l-1.23.32-5.21,4.4c-.36.28-.54.39-.72.39s-.29-.11-.29-.32.14-.4,1.58-2.23c1-1.34,1.91-2.63,3.82-5.47Zm-7.52,6.55c2.91.47,4.21.86,5.61,1.69s2.31,1.87,2.31,2.88a1.32,1.32,0,0,1-1.26,1.33c-.47,0-.58-.1-2.45-2.26a14.46,14.46,0,0,0-4.28-3Z"/><path class="cls-2" d="M338.71,23.11c0,.61-.83,1.94-2,3.35-2.85,3.16-6.08,4.75-9.86,4.75a7.92,7.92,0,0,1-6-2.27c-1.51-1.62-2.16-3.74-2.16-7,0-2.16,0-2.63.72-12,.22-3,.22-3,.22-3.46,0-2.3-.54-3.27-1.77-3.27-.21,0-.32-.07-.32-.18,0-.4.75-.72,1.58-.72,1.84,0,3.6,2.09,3.6,4.32a9.55,9.55,0,0,1-.54,2.73,78.1,78.1,0,0,0-1.51,12.35c0,5,2,7.31,6.47,7.31A13.23,13.23,0,0,0,335,26.06,14.18,14.18,0,0,0,338,23.15c.15-.26.29-.36.44-.36A.29.29,0,0,1,338.71,23.11Z"/><path class="cls-2" d="M358.4,6.19c0-2.37-.36-2.95-1.84-3-.29,0-.32,0-.32-.15,0-.28,1.4-.93,2-.93a5.71,5.71,0,0,1,2.27.75,1.48,1.48,0,0,1,.75,1.08,3.58,3.58,0,0,1-.25,1,18.9,18.9,0,0,0-.61,3c1.62-.61,2.16-1,2.56-1.66,1.11.07,2.15.76,2.15,1.34,0,.32-.18.46-.86.79a25,25,0,0,1-4.21,1.54c-.25,1.88-.29,2.13-.54,3.93a1.63,1.63,0,0,1,1.26,1.55,24.63,24.63,0,0,1-1.15,4.53c-1,3.46-1.37,5.11-1.37,6.44,0,1.66,1.26,2.42,4.07,2.42a21.57,21.57,0,0,0,6.91-1.26c1.22-.58,1.69-1.44,1.69-3.17,0-1.08,0-1.51-.54-6.8-.25-2.38-.36-4.11-.36-5.19,0-2.3.93-3.49,2.73-3.49,3.28,0,7.45,3.42,7.45,6.12,0,1.19-1,2.52-1.8,2.52-.14,0-.25-.07-.36-.25-.86-1-1.69-1.26-3.78-1.23-.28,0-.43-.07-.43-.25s0-.18.33-.21a2,2,0,0,0,.43-.11c.5-.07.9-.18,1.29-.25,1.12-.22,1.48-.47,1.48-1a5.39,5.39,0,0,0-1.44-2.63,5.25,5.25,0,0,0-3.35-1.84c-1,0-1.58.94-1.58,2.85a42.17,42.17,0,0,0,.9,8.13c.54,2.45,1,3.5,1.91,4.29a2,2,0,0,1,.18.82c0,1.16-.76,2.16-2.2,3a18.82,18.82,0,0,1-8.49,1.84c-4.61,0-6.8-1.41-6.8-4.36a17.32,17.32,0,0,1,.43-3,1.89,1.89,0,0,1-1.4.54c-1.41,0-2.31-1.66-2.31-4.18,0-3.42,2-6.15,4.36-6.15a4,4,0,0,1,.54,0c.07-1.62.11-1.87.18-3.2a17.84,17.84,0,0,1-4.68.9c-1.15,0-1.65-.29-2.05-1.15A6.57,6.57,0,0,1,351,7.52c0-.18.07-.29.22-.29s.1,0,.18.19A2.47,2.47,0,0,0,354,9.36a17.4,17.4,0,0,0,4.35-.83,10,10,0,0,1,0-1.3ZM355.73,16a8.51,8.51,0,0,0-.82,3.75c0,1.4.54,2.37,1.29,2.37s1.05-.5,1.26-1.73c.29-1.54.68-4.17.68-4.5,0-.72-.25-1.15-.72-1.22S356.13,15.23,355.73,16Z"/><path class="cls-2" d="M398.34,17.64a11.41,11.41,0,0,1-.79,4.35c-.86,2.09-2.88,3.78-4.5,3.78a1.88,1.88,0,0,1-1.55-1.58c0-.54.19-.69,1.37-1.23a8.87,8.87,0,0,0,4.86-5.43c0-.18.11-.22.25-.22S398.34,17.42,398.34,17.64Zm7.38-4.57c0,.72,0,2.37,0,5l.08,4c0,1.27,0,2.52.07,2.7,0,.69,0,1.3,0,1.66a3.45,3.45,0,0,1-1.26,2.84,3.29,3.29,0,0,1-2.05,1c-.36,0-.5-.22-.54-.8-.1-1.62-.64-2.52-2.41-4-.14-.15-.21-.22-.21-.33a.42.42,0,0,1,.36-.32c.14,0,.36.11.86.43,1.33.87,1.65,1.05,2.05,1.05.86,0,.86,0,.9-7.31,0-3.24.07-4.86.07-4.86v-1a32.39,32.39,0,0,0-7.55,1.59,3,3,0,0,1-1,.25,4,4,0,0,1-1.62-.65A2.83,2.83,0,0,1,392,11.84c0-.21.08-.32.22-.32a.47.47,0,0,1,.29.21c.5.65,1.33.87,3.09.87a77.25,77.25,0,0,0,8-.69c0-5.47-.22-5.86-2.27-6.11-.22,0-.32-.08-.32-.15,0-.36,1.33-1.08,2-1.08a4.53,4.53,0,0,1,2.66,1.08c.58.47.9.83.9,1a.76.76,0,0,1-.11.36c-.46.75-.57,1.36-.75,4.57,4.07-.33,6.26-.72,7.45-1.3.72-.4.72-.4,1-.4.5,0,1,.26,2.19,1.05.83.54,1.08.83,1.08,1.22a.93.93,0,0,1-.86.87A5.36,5.36,0,0,1,416,13a35.75,35.75,0,0,0-5.29-.39c-1.51,0-3.6.14-5,.29Zm6.69,4.86c3,1.8,4.79,3.92,4.79,5.76a1.81,1.81,0,0,1-1.7,2c-.68,0-.9-.25-1.29-1.76-.68-2.73-3.24-5.87-5.51-6.69-.18-.08-.25-.15-.25-.26s.18-.28.4-.28A8.5,8.5,0,0,1,412.41,17.93ZM418.6,4.36A3.53,3.53,0,1,1,415.11.83,3.53,3.53,0,0,1,418.6,4.36Zm-5.83,0A2.31,2.31,0,1,0,415,2.05,2.31,2.31,0,0,0,412.77,4.36Z"/><path class="cls-2" d="M444,13.61c1.84.82,1.84.82,1.84,1.18a1.35,1.35,0,0,1-.14.51,7.82,7.82,0,0,0-.33,2.88l.07,3.67V26l0,2.49c0,.46,0,.9,0,1.18,0,.94-.33,1.48-.87,1.48-1.08,0-2.34-.94-2.34-1.76a3.1,3.1,0,0,1,.11-.69,113,113,0,0,0,.87-12.45,3.64,3.64,0,0,0-.44-2.13,45.88,45.88,0,0,1-9.35,7.42,16.09,16.09,0,0,1-4,1.69c-.14,0-.36-.14-.36-.29s.08-.18.36-.29c5.69-2.59,16.81-14,16.81-17.13,0-.36-.69-1-1.19-1.11-.32-.08-.4-.15-.4-.29s.76-.51,1.48-.51c1.33,0,4.06,1.95,4.06,2.92,0,.25-.1.36-.43.54a2.55,2.55,0,0,0-1.29,1.08,61.29,61.29,0,0,1-5,5.29Z"/><path class="cls-2" d="M473.48,11.45A1.5,1.5,0,0,1,471.83,13c-.47,0-.72-.18-1.08-.82a7.93,7.93,0,0,0-5.54-4.43c-.22-.07-.33-.14-.33-.25,0-.26.65-.43,1.7-.43C470,7.06,473.48,9.25,473.48,11.45Zm-4.67,16a5.37,5.37,0,0,1-2.59-1.87,2.64,2.64,0,0,1-.9-2.27c0-.69.18-1.23.43-1.23s.21.08.29.26a2.53,2.53,0,0,0,2.15,1.83c1.48,0,5.83-2.7,11.05-6.84a70.11,70.11,0,0,0,6.73-6c.72-.72,2.66-3,3-3.38s.43-.58.61-.58a.3.3,0,0,1,.29.33c0,.57-1.58,3-3.38,5.22a56.33,56.33,0,0,1-7.7,7.77,54.88,54.88,0,0,1-8.56,5.9C469.56,27.18,469.17,27.43,468.81,27.43Z"/><path class="cls-2" d="M508.79,14.43c0,6.45.1,9.87.28,12.28.08.75.11,1.29.11,1.62,0,1.51-.54,2.63-1.29,2.63S506,29.34,506,28.44a5.13,5.13,0,0,1,.11-.94c.29-2,.57-10,.57-17.17,0-3.38-.14-4.61-.57-5.33a1.81,1.81,0,0,0-1.73-.9c-.25,0-.36-.1-.36-.32s.11-.25.33-.36a10.2,10.2,0,0,1,2.19-.58c.54,0,1,.26,2.63,1.26.46.33.68.58.68.83a2,2,0,0,1-.18.69c-.58,1-.79,2.66-.86,6.69a15.33,15.33,0,0,1,7.55,2.34c1.95,1.33,2.84,2.48,2.84,3.64a1.47,1.47,0,0,1-1.51,1.58c-.79,0-1.18-.32-2.08-1.69a13,13,0,0,0-6.8-5.29Z"/></g></g></g></svg>