<svg xmlns="http://www.w3.org/2000/svg" viewBox="0 0 681.31 107.63"><defs><style>.cls-1{fill:#343434;}</style></defs><title>dokidoki-athelic-title</title><g id="Layer_2" data-name="Layer 2"><g id="Layer_1-2" data-name="Layer 1"><path class="cls-1" d="M119.9,27.41c-.43,0-1.44.05-2.92.1-.44,0-1.64,0-3,0L113.38,26l6.43.24h3.07V19.44l3.6.29c.67.05,1.1.43,1.1.91a1.23,1.23,0,0,1-.72,1l-1.1.53v4.08h1.92l2.21-2.93,3.21,2.54a1.5,1.5,0,0,1,.58,1,.62.62,0,0,1-.58.58h-7.34v2.93a17,17,0,0,1,4.75,1.77A4.3,4.3,0,0,1,133,35.62a1.74,1.74,0,0,1-1.63,1.73,1.78,1.78,0,0,1-1-.39,17.16,17.16,0,0,1-1.49-2.4,7.84,7.84,0,0,0-3.07-2.88V42.44c0,.72-1.06,1.34-2.3,1.34-.44,0-.58-.24-.58-.77V31.83a41.34,41.34,0,0,1-6.19,6.57c-1.83,1.54-3.17,2.45-3.7,2.45a.48.48,0,0,1-.48-.48c0-.24.24-.53,1.15-1.25a38.47,38.47,0,0,0,8.4-11.71Zm5.38-19.49c-.29,0-2,0-4.56.14-.58,0-2.3,0-4.18.1l-.72-1.68c2.21.1,4,.14,4.71.14,2.35.1,3.93.15,4.75.15h7.92V.58l3.46.14c.67.05,1,.29,1,.82a1.13,1.13,0,0,1-.39.86l-1.15.91V6.77h11.52l2.59-3,3.41,2.69a1.43,1.43,0,0,1,.62.91c0,.39-.24.58-.76.58H137c5,4.7,10.51,7.3,18.76,8.74a9.32,9.32,0,0,0-3.26,3.69c-7.49-3-12.43-6.52-16.32-11.76v12.1c0,.67-1,1.2-2.26,1.2-.48,0-.67-.24-.67-.72V9.84a59.44,59.44,0,0,1-12.29,8.31C117.41,20,115.1,21,114.67,21a.42.42,0,0,1-.38-.39c0-.24.48-.57,3.6-2.35A46.73,46.73,0,0,0,130.51,7.92Zm10.61,19.63-.48-1.48c4.8.19,5,.19,6.43.19h1.39V19.83l3.94.24c.43,0,.82.38.82.67a1.2,1.2,0,0,1-.63.91l-1.34.77v3.84h4.08l2.54-2.93,3.41,2.59a1.14,1.14,0,0,1,.53.87.58.58,0,0,1-.62.62h-9.85c1.54,3.79,5.72,7.49,11.48,10a8,8,0,0,0-3.27,3A25.79,25.79,0,0,1,146,29.91V42.68c0,.67-.72,1-2.16,1-.43,0-.63-.19-.63-.67V31.15a63,63,0,0,1-7.34,7.2c-2.69,2.21-4.51,3.51-5,3.51a.46.46,0,0,1-.39-.43c0-.19,0-.19,1.59-1.54a66.72,66.72,0,0,0,10.27-12.48Z"/><path class="cls-1" d="M171.94,7H188.5c-.39-3.07-.44-3.6-.67-7l3.84.24c1,0,1.44.34,1.44.82a1.36,1.36,0,0,1-.63,1l-1.34,1.06A31.42,31.42,0,0,0,191.38,7h8.45l2.68-3.17,4,3.41a.64.64,0,0,1,.19.43.48.48,0,0,1-.48.48H191.47c.39,4.8,1.4,9.17,2.55,11.43a53.54,53.54,0,0,0,4.41-8.17l3.22,2.07a1.16,1.16,0,0,1,.43.86c0,.53-.38.87-1,1l-1.1.15a51.74,51.74,0,0,1-4.75,6.72,12.8,12.8,0,0,0,7.87,5.52,6.31,6.31,0,0,0,1.06-2l1.63-3.84.72.15-.67,4.08a8.41,8.41,0,0,0-.1,1c0,1,0,1.06,1.25,2.64a1.7,1.7,0,0,1,.24.82c0,.48-.67.82-1.63.82a15.91,15.91,0,0,1-8.26-3,17.17,17.17,0,0,1-4-4.08c-2.79,2.74-6.39,5.52-7.11,5.52a.43.43,0,0,1-.43-.43c0-.24,0-.24,1.49-1.63a42.58,42.58,0,0,0,4.85-5.48c-2.07-4.51-2.59-6.72-3.51-14.11H171.26c.05,2.11.1,3.26.1,4.66,0,6.57-.91,10.85-3.17,14.73-1.39,2.36-3.55,5-4.08,5a.34.34,0,0,1-.34-.34c0-.29.1-.43.68-1.39a27.2,27.2,0,0,0,3.26-8.93,52,52,0,0,0,.63-9.31c0-1.92-.05-3.89-.15-7.49Zm-1.49,24.48a12.22,12.22,0,0,1,.43,3.12c0,4.18-1.87,7.49-4.18,7.49a1.63,1.63,0,0,1-1.58-1.58c0-.68,0-.68,2.45-3.51,1.2-1.44,1.63-2.45,2.35-5.42Zm14.4-21.41L188,12.87a.5.5,0,0,1,.24.43c0,.24-.15.38-.43.38h-9c-1.25,0-1.25,0-6.05.15l-.38-1.49c3.22.14,5.38.19,6.43.19h3.89ZM177,17.52h6.1l1.15-1.87,2.93,2.64c.19.24.29.38.29.58a.63.63,0,0,1-.29.48l-1.1.52V26.4c0,.48-.2.72-.72,1a6,6,0,0,1-1.25.34.55.55,0,0,1-.58-.53V25h-7.1v2.4c0,.67-1.11,1.34-2.11,1.34-.34,0-.48-.28-.48-.81V15.75Zm18.15,15.84-.34,3.89-.09,1c0,.53.14.67,1.29,1.54.29.19.48.43.48.57a2.15,2.15,0,0,1-1.29,1.54c-1.2.43-4.66.67-9.89.67a37.65,37.65,0,0,1-8.16-.57,2.33,2.33,0,0,1-1.73-2.26V30.43l3.17.24c1,0,1.49.39,1.49,1a1,1,0,0,1-.68.91l-1.1.58v4.66c.05,1.15.14,1.44.58,1.63a5.58,5.58,0,0,0,1.34.29h3.31l3,0c2.45,0,3.79-.1,4.08-.1,1.53-.14,2-.58,2.64-2.93l.91-3.55Zm-11.62-9.5V18.67h-7.1v5.19Zm-1.77,5.66a11.07,11.07,0,0,1,4.56,1.39c1.72,1.06,2.78,2.5,2.78,3.94a1.91,1.91,0,0,1-1.68,2.07,1.54,1.54,0,0,1-1.2-.58c-.19-.19-.19-.19-1.05-2.31-.58-1.44-1.45-2.49-3.46-4.08ZM194.21.77C198,1.3,200,2.64,200,4.51a1.56,1.56,0,0,1-1.44,1.73c-.63,0-1.06-.34-1.49-1.15A7.17,7.17,0,0,0,194,1.49Zm3.65,30.86a16.46,16.46,0,0,1,4.89,2.64c2.36,1.88,3.6,3.85,3.6,5.62a1.74,1.74,0,0,1-1.68,1.92c-.81,0-1.24-.57-1.92-2.3a17.39,17.39,0,0,0-5.13-7.16Z"/><path class="cls-1" d="M227,31.35v2.3a.62.62,0,0,1-.19.53,4.93,4.93,0,0,1-2.16.62.61.61,0,0,1-.67-.67V13.68l3.65,2.07h17.66l1.39-2.17,2.88,3.08a1.08,1.08,0,0,1,.24.62c0,.19-.24.43-.52.58l-.77.29v14.4c0,.57-1.11,1.1-2.35,1.1a.69.69,0,0,1-.72-.62V31.35H242.5l-.05,7.77c0,.87.24.92,4.18.92,6.62,0,6.72,0,7.48-2.45l1.49-4.9.77.24-.14,5a3.14,3.14,0,0,0,.14,1,2.63,2.63,0,0,0,.29.39c.38.33.72.62,1.1.91a.54.54,0,0,1,.1.33c0,1.64-2.59,2.16-10.8,2.16-6.91,0-7.63-.28-7.63-3.12V31.35h-4.52c-1.87,6.19-4,8.64-9.21,10.56a41.38,41.38,0,0,1-9.37,2.16c-.38,0-.67-.15-.67-.34,0-.38.39-.48,3.27-1.2,7.77-2.06,11.42-5.28,12.67-11.18ZM220.56,7.78a17.55,17.55,0,0,1,.62,2.44h22c1.05-2.59,1.15-2.92,2.69-9.64L250,2.5a.87.87,0,0,1,.52.76,1.21,1.21,0,0,1-1,1.06l-.82.24-3.79,5.66h7.58l1.68-2.3,3.7,3.84a2.51,2.51,0,0,1,.67,1.39c0,.68-.43.91-1.68,1l-1.92.05L251,17.09l-.63-.43,2.21-5.28h-31.2v1.15c0,3-1.59,5.33-3.55,5.33A1.69,1.69,0,0,1,216,16.23c0-.92.1-1.06,2.11-3.08a8.15,8.15,0,0,0,1.78-5.37Zm2.93-6.53c3.6,1,6.62,3.79,6.62,6.19a1.86,1.86,0,0,1-1.82,1.87c-1,0-1.06-.14-2-3a9.72,9.72,0,0,0-3-4.51ZM245.43,20.4V16.9H227v3.5Zm0,4.8V21.55H227V25.2Zm0,5V26.35H227v3.84ZM231.6.48c.43.1.86.19,1,.24a7.87,7.87,0,0,1,4,1.73,5.54,5.54,0,0,1,2.45,4,1.93,1.93,0,0,1-1.78,2.11c-1,0-1,0-2.59-4.13a7.93,7.93,0,0,0-3.22-3.4Z"/><path class="cls-1" d="M296.83,15.31c-3.88,2.36-4.51,2.69-7.53,4.28-.58,7.63-2.79,12.76-7.16,16.75-2,1.87-6.48,4.85-7.24,4.85a.44.44,0,0,1-.44-.43c0-.24.15-.39.82-.82a22,22,0,0,0,8.4-9.07,33.37,33.37,0,0,0,2.55-11.67c0-1.39-.77-2.11-2.6-2.54-.53-.15-.72-.24-.72-.43s.15-.39,1.78-1.54a14.83,14.83,0,0,1,5.33,3c4.41-3.41,5.9-4.66,9.26-7.59-17.52,1.44-22.08,2.16-25.1,4a.79.79,0,0,1-.44.2,5.89,5.89,0,0,1-1.68-1.35C270,10.7,270,10.7,270,10.27a2,2,0,0,1,1.25-2c1,1.4,1.82,2.07,2.69,2.07a5.43,5.43,0,0,0,.77-.1,8.13,8.13,0,0,0,1.24-.14l5.38-.58c8-.86,9.36-1,18.58-1.58l1.73-1.3C302,7,302,7,303.7,8.3s2.06,1.88,2.06,2.4-.38.77-2.06.77h-.39c-.86.48-2,1.2-3.45,2.07Z"/><path class="cls-1" d="M349.68,10.9a1.89,1.89,0,0,1,.87,1.34c0,.43-.39.72-1.06.82l-1.2.24a93,93,0,0,1-7.44,10.46c9,3.94,14.5,8.4,14.5,11.81a1.86,1.86,0,0,1-1.64,1.92c-.72,0-1.2-.43-2.11-1.87-1.53-2.83-8.16-9-11.57-10.8a53.13,53.13,0,0,1-15.41,12.72,14.58,14.58,0,0,1-4.32,1.87.47.47,0,0,1-.48-.43c0-.29.2-.48,1.4-1.2,11-6.77,16.89-13.15,23.71-25.73a58.2,58.2,0,0,0-9,1.58c-1.15.24-3.16.68-4.84,1.06a4.64,4.64,0,0,0-1.73.77c-.77.48-1,.57-1.3.57s-.48-.14-1.34-1.05c-1.68-1.78-2.26-2.55-2.26-3.08s0-.38,1-1.87c.86,1.49,1.73,2.21,2.54,2.21a9.9,9.9,0,0,0,1.16-.14l16.13-2.21,1.48-1.54Z"/><path class="cls-1" d="M378.38,12.72c0-1-.67-1.44-3.64-2.64,1.44-1.25,1.68-1.44,2.16-1.44a29.94,29.94,0,0,1,4.84,2c.72.43,1,.81,1,1.24s-.19.58-.62,1c-.72.52-.72.62-.82,3.16L381,33.17c6-2,17.19-9.17,23.33-15,1-.86,1.16-1,1.4-1a.71.71,0,0,1,.62.57c0,.43-1.15,1.59-5.38,5.57a82.32,82.32,0,0,1-11.28,9A71.68,71.68,0,0,1,382,36.48l-.48.72c-.28.58-.43.68-.67.68a2,2,0,0,1-.91-.44l-3.31-2.73L378.19,33l.19-18.72Z"/><path class="cls-1" d="M451.35,18.34,454.71,17c3.12,1.63,4.12,2.44,4.12,3.4,0,.53-.67,1-1.34,1a7.63,7.63,0,0,1-1.25-.14,37.35,37.35,0,0,0-6.62-.53c-2,0-3.17,0-7.59.29-.62,11.13-4,16.18-13.87,20.35a7.08,7.08,0,0,0-.82.34,1.28,1.28,0,0,1-.38.09.42.42,0,0,1-.43-.33c.05-.24.24-.43.91-.82,8-4.27,11.18-9.7,11.66-19.44-6.38.43-12.19,1.44-13,2.16a3.09,3.09,0,0,1-.87.34c-.53,0-1.68-.77-3.07-2.07-1.2-1.05-1.35-1.25-1.35-1.73a7.1,7.1,0,0,1,.68-1.87l.33.29c1.83,1.73,2.12,1.87,3.46,1.87a29.94,29.94,0,0,0,3-.19l10.9-.82c-.1-5-.1-5.57-.24-7.2-7,1.49-8,1.73-11.86,2.45a15.54,15.54,0,0,1-3,.53c-.43,0-.67-.19-.67-.53s.19-.48,2.3-1c2.83-.67,9.22-2.49,13.54-3.93,5.09-1.64,7.06-2.55,7.06-3.08,0-.28-.25-.62-.82-1.15.1-.29.19-.33.48-.33a7.1,7.1,0,0,1,2.69.91c2.3,1,2.93,1.49,2.93,2.49,0,.68-.44,1-1.49,1a6.08,6.08,0,0,0-2.31.39c-2.11.57-3.89,1-5.37,1.39.14.1.28.19.33.24l.29.14c.39.25.53.44.53.68s-.24.62-.91,1.1c-.39.29-.48.43-.48,1.2l-.1,4.51Z"/><path class="cls-1" d="M477.55,17.86c4.08,1.63,6.39,3.89,6.39,6.33a1.7,1.7,0,0,1-1.68,1.88c-1,0-1.2-.34-1.83-2.5a8.93,8.93,0,0,0-3.36-5Zm20.88-1.68.29-.15a4,4,0,0,0,.67-.28,1.64,1.64,0,0,1,.58-.15c1,0,4,3.17,4,4.18,0,.33-.24.53-1.29,1a49.16,49.16,0,0,1-5.72,8.83,33,33,0,0,1-13.29,10,12.53,12.53,0,0,1-2.59,1,.45.45,0,0,1-.48-.44c0-.28.19-.48,1-.86a40.39,40.39,0,0,0,7.64-4.9,37.9,37.9,0,0,0,9-11.9,12.8,12.8,0,0,0,1.54-4c0-.48-.53-1.15-1.73-2.11Zm-13.2-.67c4,.91,7.06,3.84,7.06,6.67a1.62,1.62,0,0,1-1.63,1.63c-1,0-1.2-.24-1.73-1.87A10.83,10.83,0,0,0,484.85,16Z"/><path class="cls-1" d="M551.91,10.37a13.76,13.76,0,0,1,2.2,1.82l.63.58c.57.58.77.81.77,1.1s-.39.63-1.44.92c-.58.24-.63.24-.87.86a68.55,68.55,0,0,1-6.38,10.8c-3.65,5-6.92,7.87-13.3,11.81-2.69,1.63-4.42,2.54-4.85,2.54a.53.53,0,0,1-.53-.48c0-.24.2-.48.68-.72,10.12-6.19,16.46-13.82,21.45-25.73a60.9,60.9,0,0,0-10,1l-.72-.77a48.09,48.09,0,0,1-9.22,10.61c-1.82,1.64-4.17,3.32-4.66,3.32a.42.42,0,0,1-.38-.39c0-.29.15-.43.82-1,2.78-2.25,6.48-6.76,9.36-11.37,1.44-2.35,3.84-7.06,3.84-7.59,0-.38-.82-1-1.87-1.44-.63-.24-.72-.29-.72-.48s1.72-1,2.35-1,.67,0,3.89,2c.91.58,1.2.91,1.2,1.39s-.24.68-1,1a2,2,0,0,0-.91.68l-.63,1.15c-.33.53-.53.82-.91,1.49l1.78-.05,2.88-.14,3.41-.2c.19,0,.62,0,1.29-.09Z"/><path class="cls-1" d="M0,102.74c4.56-.19,5.33-.82,5.38-4.32V75.33c0-2.79-1.25-3.65-5.38-3.65V70.1H15.6c6,0,10.61,1.24,13.78,3.79,3.74,3,5.9,7.87,5.9,13.39,0,10.42-7.63,17-19.68,17H0Zm9.65-4.18c0,3.36.91,4.13,5,4.13,9.7,0,15.22-5.81,15.22-15.94,0-9.89-5.38-15.12-15.55-15.12-3.51,0-4.66.87-4.66,3.51Z"/><path class="cls-1" d="M76.56,87.09c0,10.32-7.25,18-17.09,18S42.24,97.6,42.24,87.28A17.58,17.58,0,0,1,60,69.57C69.55,69.57,76.56,77,76.56,87.09Zm-25-12.58c-2.64,2.74-3.93,6.67-3.93,12.2,0,10.65,4.22,16.7,11.57,16.7s11.9-6.19,11.9-16.56c0-10.08-4.08-15.7-11.47-15.7A11.5,11.5,0,0,0,51.55,74.51Z"/><path class="cls-1" d="M82.32,102.69h.86c3.36,0,4.52-.91,4.56-3.55v-24c.05-2.88-.76-3.41-5.37-3.56V70.1h15v1.48c-4.41,0-5.28.63-5.32,3.56V88L105.7,75.14A3,3,0,0,0,106.85,73c0-1-.67-1.34-3.46-1.44V70.1h13.3v1.48c-3.84.2-5.71,1-8.4,3.46l-8.21,7.63,12.43,16.85c1.49,2.21,3.32,3.12,6.44,3.27v1.48H104.5v-1.58h0c2.35,0,3.16-.38,3.16-1.54a2.92,2.92,0,0,0-.67-1.72l-10-14-5,4.75v8.54c0,3.27,1,3.94,5.28,3.94v1.58h-15Z"/><path class="cls-1" d="M124,102.64c4.76,0,5.76-.72,5.76-4V75.33c0-3-.81-3.55-5.76-3.65V70.1h15.6v1.58c-4.65,0-5.71.67-5.71,3.65V98.61c0,3.41,1,4.08,5.71,4v1.63H124Z"/><path class="cls-1" d="M144.38,102.74c4.56-.19,5.33-.82,5.38-4.32V75.33c0-2.79-1.25-3.65-5.38-3.65V70.1H160c6.05,0,10.61,1.24,13.78,3.79,3.75,3,5.91,7.87,5.91,13.39,0,10.42-7.64,17-19.69,17h-15.6ZM154,98.56c0,3.36.91,4.13,5,4.13,9.7,0,15.22-5.81,15.22-15.94,0-9.89-5.37-15.12-15.55-15.12-3.51,0-4.66.87-4.66,3.51Z"/><path class="cls-1" d="M221,87.09c0,10.32-7.25,18-17.09,18-10,0-17.24-7.44-17.24-17.76a17.58,17.58,0,0,1,17.72-17.71C213.94,69.57,221,77,221,87.09Zm-25-12.58c-2.65,2.74-3.94,6.67-3.94,12.2,0,10.65,4.22,16.7,11.57,16.7s11.9-6.19,11.9-16.56c0-10.08-4.08-15.7-11.47-15.7A11.49,11.49,0,0,0,195.94,74.51Z"/><path class="cls-1" d="M226.7,102.69h.87c3.36,0,4.51-.91,4.56-3.55v-24c0-2.88-.77-3.41-5.38-3.56V70.1h15v1.48c-4.42,0-5.28.63-5.33,3.56V88l13.68-12.86A3,3,0,0,0,251.23,73c0-1-.67-1.34-3.45-1.44V70.1h13.29v1.48c-3.84.2-5.71,1-8.4,3.46l-8.21,7.63L256.9,99.52c1.48,2.21,3.31,3.12,6.43,3.27v1.48H248.88v-1.58h.05c2.35,0,3.17-.38,3.17-1.54a2.94,2.94,0,0,0-.68-1.72l-10-14-5,4.75v8.54c0,3.27,1,3.94,5.28,3.94v1.58h-15Z"/><path class="cls-1" d="M268.37,102.64c4.75,0,5.76-.72,5.76-4V75.33c0-3-.82-3.55-5.76-3.65V70.1H284v1.58c-4.66,0-5.71.67-5.71,3.65V98.61c0,3.41,1,4.08,5.71,4v1.63h-15.6Z"/><path class="cls-1" d="M309.6,70.24a2.09,2.09,0,0,0,.29-1.06c0-.52-.34-.76-2.79-1.82.77-1.06,1.11-1.3,1.73-1.3a10.73,10.73,0,0,1,3.65,1.78c1.1.77,1.49,1.25,1.49,1.78a1.14,1.14,0,0,1-.34.76,5.06,5.06,0,0,1-.57.63,5.57,5.57,0,0,0-.77.72l-2,2.64c4.71-.87,5-1,6.15-1.87a.86.86,0,0,1,.72-.29c1.58,0,2.78.77,2.78,1.77,0,1.3-1.25,1.64-10.42,2.84l-.91.14-5.66,7.92c3.6-1.82,5-2.26,7.29-2.26A4.42,4.42,0,0,1,314.4,85a6,6,0,0,1,.62,2.44l11.09-5.13c.77-.34,1.16-.63,1.16-.82,0-.43-.58-.77-2.93-1.58.76-.67,1.2-1,1.63-1a12.18,12.18,0,0,1,3,1c2,1,2.88,1.92,2.88,3a1.31,1.31,0,0,1-1,1.3c-.43.14-.43.14-2.25.67a116.28,116.28,0,0,0-13.44,4.9l0,6.09v.39a1.63,1.63,0,0,1-.62,1.58,2.48,2.48,0,0,1-1.63.72c-.72,0-.82-.14-1-1.39v-.15l.19-5.8a28.23,28.23,0,0,0-4.7,2.64c-2.93,2-4.18,3.55-4.18,5.13,0,2.79,2.45,3.84,8.79,3.84a41,41,0,0,0,11.18-1.39,5.19,5.19,0,0,1,1.06-.24,2.47,2.47,0,0,1,2.16,2.3c0,.87-1.06,1.49-2.93,1.73-2.21.29-7,.58-9.51.58-8.4,0-12.57-2.21-12.57-6.63,0-2.35,1.34-4.32,4.56-6.62,2-1.39,3.69-2.5,6.09-3.89,0-2.74,0-2.83-.52-3.46a2.55,2.55,0,0,0-2.31-1.1c-1.39,0-2.83.58-5.09,2.06A12,12,0,0,0,301,89.06l-2.79,3.21c-.86,1-1.25,1.25-2,1.25s-1.34-.62-1.34-1.68a3.36,3.36,0,0,1,.72-2.06c.1-.15.1-.15,1.49-1.2a26.44,26.44,0,0,0,3.07-3.36l5.47-8.16c-2.16.19-3.84.28-5.18.28s-1.92-.38-3.12-1.72a5.15,5.15,0,0,1-1.44-2.31c0-.29.19-.48.86-.81,2.07,2.11,3.07,2.44,7.35,2.44.81,0,1.53,0,2.83-.14Z"/><path class="cls-1" d="M361.1,86.42h-3.16v2c0,.53-.87,1-1.93,1-.52,0-.86-.28-.86-.72V69l3.36,1.87h2.16a42.21,42.21,0,0,0,.91-6.67l3.8.63c.57.09.91.43.91.81a1.32,1.32,0,0,1-.67,1l-1,.72-2.07,3.5h4.61L368.3,69,371,71.63a1.16,1.16,0,0,1,.34.77.87.87,0,0,1-.53.72l-.77.43v14c0,.86-.91,1.49-2.16,1.49-.43,0-.62-.24-.62-.72V86.42h-3.22v5.52h13.39l2.5-3.12L383.81,92c.34.24.48.48.48.67a.49.49,0,0,1-.53.43H365.33c4.7,4.75,11.81,8.06,20,9.22a12.92,12.92,0,0,0-3.7,3.74,39.26,39.26,0,0,1-9.89-5c-2.93-2.06-4.27-3.31-7.63-7.3v12.68a.76.76,0,0,1-.14.48,3.79,3.79,0,0,1-2.12.76.69.69,0,0,1-.72-.62V94.77c-5.37,4.56-8,6.34-13.15,8.83-2.93,1.44-6.05,2.64-6.82,2.64a.39.39,0,0,1-.43-.38c0-.24,0-.24,2.83-1.68a54.57,54.57,0,0,0,14.69-11.09h-7.29c-3.32.1-4.8.1-8.84.24l-.62-1.68c2.3.1,4.32.14,5.14.19,2.11,0,3.55.1,4.32.1H361.1ZM354.05,81l-7.78,6.38-.19.92c-.15.62-.53,1-1,1a1,1,0,0,1-.53-.19l-3.07-3c4.17-1.83,5.61-2.55,12.14-6ZM343.1,69.18c4.85,1.16,8.11,3.89,8.11,6.68A1.89,1.89,0,0,1,349.49,78a1.6,1.6,0,0,1-1.2-.53c-.34-.34-.34-.34-1.3-3a14.26,14.26,0,0,0-4.08-4.7Zm24.2,8.88V72h-9.36v6Zm0,7.2v-6h-9.36v6Zm14.25-14.11a.56.56,0,0,1,.24.43c0,.24-.29.48-.91.63l-1.63.43-7,5.86c-.48.38-.72.52-1,.52s-.39-.14-.39-.43.2-.53,2.12-3c1.29-1.78,2.54-3.51,5.08-7.3Zm-10,8.74c3.89.62,5.62,1.15,7.49,2.25s3.07,2.5,3.07,3.84a1.75,1.75,0,0,1-1.68,1.78c-.62,0-.77-.14-3.26-3a19.53,19.53,0,0,0-5.72-4Z"/><path class="cls-1" d="M403.25,72.26c0-.82-.1-1-.58-1.16a25.32,25.32,0,0,0-3.46-1.1,1.49,1.49,0,0,1,1.11-1,8.25,8.25,0,0,1,2.59-.53c.58,0,1.3.39,3.22,1.59,1.39.91,1.68,1.2,1.68,1.68a1.83,1.83,0,0,1-.48,1,2.62,2.62,0,0,0-.77,2l-.77,13.92c-.14,1.87-.19,3.89-.19,5.52,0,2.35.33,3.7,1.2,4.75,1.05,1.25,2.88,1.92,5.23,1.92,5.86,0,12.48-3.16,18-8.59.91-.91,1.2-1.15,1.54-1.15a.57.57,0,0,1,.53.53c0,.43-2.36,3.17-4.52,5.18a35.8,35.8,0,0,1-6,4.71,23.25,23.25,0,0,1-9.51,2.54c-2.83,0-5.9-1.2-7.34-2.88-1.3-1.49-2-4.13-2-7.73l0-.77.48-20.35Z"/><path class="cls-1" d="M454.89,77.2c-3.69.38-5.85.58-6.62.58s-1.3-.29-2.59-1.64c-.87-1-1.16-1.34-1.16-1.77s.15-.63.73-1a2.31,2.31,0,0,0,.48.38l1,.82a3.49,3.49,0,0,0,2.31.86,40.63,40.63,0,0,0,6-.62l0-5.76a13,13,0,0,0-3.65-1.1,3,3,0,0,1,2.11-1.69c1.54,0,5.42,2,5.42,2.74,0,.15,0,.24-.48.77a2.5,2.5,0,0,0-.62,1.34c-.14,1-.14,1-.34,3.27A30,30,0,0,0,462.86,73a8.06,8.06,0,0,1,1.92-.62c.91,0,2.21,1,2.21,1.78a1,1,0,0,1-.77,1l-8.78,1.72a40.81,40.81,0,0,0-.43,5.86c0,.29,0,1,0,1.73,1.11,1.39,1.59,2.21,1.59,2.73,0,.34-.29.82-1,1.69-2.55,3.31-4.51,7.77-4.51,10.12,0,2.16,1.63,2.88,6.43,2.88a45.49,45.49,0,0,0,12.62-1.39c1.54-.38,1.88-.72,1.83-1.82a8.71,8.71,0,0,0-.1-1l-1.05-7.16a38.31,38.31,0,0,1-.48-6.19c0-3,.57-5,1.72-6a3.77,3.77,0,0,1,2.55-1.15c2.06,0,4.7,2,6.86,5.14a8.24,8.24,0,0,1,1.73,3.84,1.33,1.33,0,0,1-1.1,1.39,3,3,0,0,1-.87-.19,1.4,1.4,0,0,0-.53-.1,2.39,2.39,0,0,0-.91.34l-5.47,3-.29-.67L479.28,87a4.33,4.33,0,0,0,1.58-2.54c0-1-1.24-3.22-2.44-4.37a3.12,3.12,0,0,0-2.12-1.2c-1.39,0-2.3,1.73-2.3,4.41a47.88,47.88,0,0,0,1.73,10.81c.67,2.3,1,3.07,2.25,4.32.72.81,1,1.2,1,1.72,0,1.11-1.05,1.88-3.5,2.64A47.21,47.21,0,0,1,463,104.51a39.62,39.62,0,0,1-9.51-.86,3.11,3.11,0,0,1-2.35-3.17,18.6,18.6,0,0,1,1.25-5.57,8.57,8.57,0,0,1-3.5,1.59c-1.54,0-3.17-2.07-3.17-4a17,17,0,0,1,1.87-6.63c1.3-2.21,3.55-3.89,5.33-3.89a4.68,4.68,0,0,1,1.82.43Zm-7.05,14.16c0,1.49.67,2.5,1.73,2.5s2.35-1.25,3.74-3.6a12.59,12.59,0,0,0,1.58-3.65,3.2,3.2,0,0,0-2.68-2.83C450.14,83.78,447.84,87.76,447.84,91.36Z"/><path class="cls-1" d="M509.13,81.57c-5.08.67-6.09.91-6.91,1.58a1.54,1.54,0,0,1-.81.29c-1,0-4.28-3.22-4.28-4.22a3.47,3.47,0,0,1,1-2.07c2,2.35,2.5,2.74,4.08,2.74.67,0,2.69-.1,4.32-.24l7.59-.58-.15-5.9c0-1.54-.57-2-3.6-2.79.43-1,1.2-1.63,1.78-1.63a15.13,15.13,0,0,1,4.13,1.35c1.29.62,1.82,1.05,1.82,1.53,0,.24-.14.43-.72.91s-.58.53-.58,1.54l0,4.75,1.63,0,5.18-.28c.44,0,1.49,0,4.23-.15l2.06-1.1C532,78,534,79.65,534,80.56a1.18,1.18,0,0,1-1.25,1.06,8.5,8.5,0,0,1-2.06-.34,51.53,51.53,0,0,0-8.11-.67c-1,0-1.88,0-5.91.24l.48,19.92v.43a2.49,2.49,0,0,1-1,2.26,3.39,3.39,0,0,1-2.06,1.29c-.72,0-1.06-.62-1.06-1.92,0-.67-.05-.67-.53-1.24l-5.9-6.1.48-.53,5.42,3.65a5.42,5.42,0,0,0,1.35.77c.24,0,.28-.48.28-1.83l0-16.46ZM506.4,85v.73a18.44,18.44,0,0,1-2.35,9.31c-1.64,3-3.17,4.46-4.71,4.46a1.68,1.68,0,0,1-1.68-1.73c0-.81.24-1.1,1.63-2.2a17.62,17.62,0,0,0,6.24-10.66Zm14.88-.09c6.19,2.49,11.42,8.16,11.42,12.29a2.13,2.13,0,0,1-2,2.3c-.82,0-1.16-.48-1.78-2.35A26.84,26.84,0,0,0,520.9,85.5Zm12.14-13.49a4.68,4.68,0,1,1-4.6-4.66A4.7,4.7,0,0,1,533.42,71.44Zm-7.87,0a3.2,3.2,0,1,0,3.12-3.22A3.21,3.21,0,0,0,525.55,71.44Z"/><path class="cls-1" d="M569.66,103.22v.91a1.49,1.49,0,0,1-1.48,1.68c-.92,0-2.12-1-2.12-1.78a3.17,3.17,0,0,1,.1-.62c.48-1.87.58-3.74.58-9.46V92.61l0-8.69a84.24,84.24,0,0,1-13,8.31,46.46,46.46,0,0,1-6,2.54.53.53,0,0,1-.53-.48c0-.34,0-.38,1.44-1.1a73.43,73.43,0,0,0,15.84-11,99.15,99.15,0,0,0,9.07-9c1.15-1.3,1.15-1.35,1.15-1.68,0-.72-.91-1.54-2.25-2.11,0-.1,0-.2,0-.2s.09-.19.24-.24.48-.19.67-.28c.81-.39.81-.39,1.05-.39s.48,0,2.26,1.25,3,2.45,3,3.26c0,.63-.48,1-2.36,1.54l-.91.86c-4.17,3.94-5.37,5.09-7.15,6.63,1.34.33,1.63.53,1.63,1s-.14.52-1.25,1.29Z"/><path class="cls-1" d="M601.53,72.21a21.39,21.39,0,0,1,5.57,2c2.88,1.58,4.71,3.93,4.71,6.09a2.35,2.35,0,0,1-2,2.55c-.77,0-1.15-.48-1.87-2.31A15.17,15.17,0,0,0,601.2,73Zm5.33,30.67c-.77,0-1.77-.72-3.5-2.4s-2-2-2-2.54a5,5,0,0,1,.82-1.78c1.39,1.39,2.4,2.11,3,2.11a37.55,37.55,0,0,0,6.24-2.78,109.72,109.72,0,0,0,22.9-17.43c.48-.52.72-.67,1-.67a.51.51,0,0,1,.43.48c0,.72-3,4.13-6.86,8-7.64,7.49-13.49,11.81-20.79,15.31C607.49,102.55,607.25,102.88,606.86,102.88Z"/><path class="cls-1" d="M663.31,72.78c0-1.48,0-1.72-.38-2.16A12.07,12.07,0,0,0,660.24,69c1.2-1,1.53-1.29,1.92-1.29a12.79,12.79,0,0,1,3.12,1.39c1.58.86,2.35,1.58,2.35,2.21a2.08,2.08,0,0,1-.57,1.1,4.08,4.08,0,0,0-.48.62,9,9,0,0,0-.2,2.26l-.28,7.2a27.91,27.91,0,0,1,9.45,3.22c3.75,2,5.76,4.08,5.76,6a1.57,1.57,0,0,1-1.53,1.63c-.77,0-1.2-.29-2-1.35a26.6,26.6,0,0,0-11.57-8.25l.1,21A1.27,1.27,0,0,1,665,106a2.57,2.57,0,0,1-2.4-2.16,12.51,12.51,0,0,1,.29-1.87c.05-.19.09-.91.14-1.68l.19-5.76,0-13.83Z"/></g></g></svg>