<svg xmlns="http://www.w3.org/2000/svg" viewBox="0 0 953.31 33.04"><title>dokidoki-enjoy-more-title</title><path d="M5.54,20.55c-.32,0-1.08,0-2.19.07H1.08L.65,19.51c2.63.11,3.81.14,4.82.18H7.78V14.58l2.7.21a.75.75,0,0,1,.82.69.91.91,0,0,1-.54.75l-.82.4v3.06h1.44L13,17.49l2.41,1.91a1.15,1.15,0,0,1,.43.72.45.45,0,0,1-.43.43H9.94v2.2a12.54,12.54,0,0,1,3.56,1.33,3.23,3.23,0,0,1,1.83,2.63A1.29,1.29,0,0,1,14.11,28a1.31,1.31,0,0,1-.76-.28,15.82,15.82,0,0,1-1.11-1.8,5.76,5.76,0,0,0-2.3-2.16v8.06c0,.54-.8,1-1.73,1-.33,0-.43-.18-.43-.58V23.86A31.08,31.08,0,0,1,3.13,28.8,7.79,7.79,0,0,1,.36,30.63.36.36,0,0,1,0,30.27c0-.18.18-.39.86-.93a29,29,0,0,0,6.3-8.79Zm4-14.61c-.22,0-1.52,0-3.42.11-.44,0-1.73,0-3.14.07l-.5-1.26C4.14,4.93,5.47,5,6,5c1.77.07,3,.11,3.57.11H15.5V.43l2.6.11c.5,0,.75.22.75.61a.84.84,0,0,1-.29.65l-.86.68v2.6h8.64l1.94-2.27,2.56,2a1.11,1.11,0,0,1,.47.69c0,.28-.18.43-.58.43H18.32c3.75,3.53,7.89,5.47,14.08,6.55A6.8,6.8,0,0,0,30,15.26C24.33,13,20.63,10.37,17.71,6.44v9.07c0,.51-.72.9-1.69.9-.36,0-.51-.18-.51-.54V7.38A44.14,44.14,0,0,1,6.3,13.61a28.75,28.75,0,0,1-4.68,2.16.32.32,0,0,1-.29-.29c0-.18.36-.43,2.7-1.77A34.78,34.78,0,0,0,13.5,5.94Zm8,14.72-.36-1.12c3.6.15,3.78.15,4.82.15h1V14.87l2.95.18a.62.62,0,0,1,.61.5.91.91,0,0,1-.47.68l-1,.58v2.88h3.06l1.91-2.2,2.56,2a.85.85,0,0,1,.39.64.43.43,0,0,1-.39.47H25.2c1.15,2.85,4.28,5.62,8.6,7.53a5.87,5.87,0,0,0-2.45,2.26,19.34,19.34,0,0,1-6.23-7.92V32c0,.5-.54.76-1.61.76-.33,0-.47-.15-.47-.51V23.36a49.29,49.29,0,0,1-5.51,5.4c-2,1.66-3.38,2.63-3.74,2.63a.33.33,0,0,1-.29-.33c0-.14,0-.14,1.19-1.15a50.11,50.11,0,0,0,7.7-9.36Z" fill="#333"/><path d="M48.17,5.25H60.59C60.3,3,60.26,2.56,60.08,0L63,.18c.72,0,1.08.25,1.08.61a1.07,1.07,0,0,1-.47.76l-1,.79a20.22,20.22,0,0,0,.18,2.91h6.33l2-2.37,3,2.55a.47.47,0,0,1,.14.33.36.36,0,0,1-.36.36H62.82a25.83,25.83,0,0,0,1.91,8.57A41.79,41.79,0,0,0,68,8.57l2.41,1.54a.91.91,0,0,1,.32.65c0,.4-.29.65-.75.72l-.83.11a38.17,38.17,0,0,1-3.57,5,9.65,9.65,0,0,0,5.91,4.14,4.74,4.74,0,0,0,.79-1.51l1.22-2.88.54.11-.5,3.05a6.51,6.51,0,0,0-.07.76c0,.76,0,.79.93,2a1.18,1.18,0,0,1,.18.61c0,.36-.5.61-1.22.61a11.93,11.93,0,0,1-6.19-2.23,12.64,12.64,0,0,1-3-3.06c-2.09,2.06-4.79,4.14-5.33,4.14a.32.32,0,0,1-.33-.31h0c0-.18,0-.18,1.12-1.23a31.48,31.48,0,0,0,3.64-4.1c-1.55-3.38-2-5-2.63-10.58h-13c0,1.58.08,2.45.08,3.49,0,4.93-.69,8.14-2.38,11.05-1,1.76-2.66,3.74-3.06,3.74a.24.24,0,0,1-.25-.23v0c0-.21.07-.32.5-1A20.46,20.46,0,0,0,45,16.41a39,39,0,0,0,.47-7c0-1.44,0-2.92-.11-5.61ZM47.05,23.61A9.19,9.19,0,0,1,47.38,26c0,3.13-1.41,5.62-3.14,5.62a1.22,1.22,0,0,1-1.18-1.19c0-.5,0-.5,1.83-2.63.9-1.08,1.23-1.83,1.77-4.07Zm10.8-16L60.19,9.7a.38.38,0,0,1,.18.32c0,.18-.11.29-.32.29H53.28c-.94,0-.94,0-4.54.11L48.46,9.3c2.41.11,4,.14,4.82.14h2.91ZM52,13.14h4.57l.87-1.41,2.19,2a.67.67,0,0,1,.22.44.51.51,0,0,1-.22.36l-.82.39v4.9c0,.36-.15.54-.54.72a5.22,5.22,0,0,1-.94.25.41.41,0,0,1-.43-.39h0V18.75H51.55v1.8c0,.51-.83,1-1.58,1-.26,0-.36-.22-.36-.61V11.81ZM65.59,25l-.25,2.91-.07.72c0,.4.1.51,1,1.15.21.15.36.33.36.44a1.61,1.61,0,0,1-1,1.15c-.89.32-3.49.5-7.41.5a27.9,27.9,0,0,1-6.12-.43,1.74,1.74,0,0,1-1.3-1.69V22.82l2.38.18c.72,0,1.12.29,1.12.76a.75.75,0,0,1-.51.68l-.83.43v3.49c0,.87.11,1.08.44,1.23a4.24,4.24,0,0,0,1,.21h4.76l3.06-.07c1.15-.11,1.47-.43,2-2.2l.68-2.66Zm-8.71-7.13V14H51.55v3.89Zm-1.33,4.25a7.92,7.92,0,0,1,3.42,1,3.75,3.75,0,0,1,2.08,2.95,1.42,1.42,0,0,1-1.26,1.55,1.16,1.16,0,0,1-.9-.43c-.14-.15-.14-.15-.79-1.73a7.07,7.07,0,0,0-2.59-3.06ZM64.87.58c2.81.39,4.35,1.4,4.35,2.8a1.15,1.15,0,0,1-1,1.29h-.07c-.46,0-.79-.25-1.11-.86a5.42,5.42,0,0,0-2.3-2.7ZM67.6,23.72a12.3,12.3,0,0,1,3.68,2C73,27.1,74,28.58,74,29.91a1.29,1.29,0,0,1-1.15,1.43h-.11c-.62,0-.94-.43-1.44-1.73a13.15,13.15,0,0,0-3.86-5.36Z" fill="#333"/><path d="M93.06,23.5v1.73a.46.46,0,0,1-.14.4,3.84,3.84,0,0,1-1.62.47.46.46,0,0,1-.51-.4V10.26l2.74,1.55h13.24l1-1.62,2.16,2.3a.91.91,0,0,1,.18.47c0,.14-.18.32-.4.43l-.57.22V24.4c0,.44-.83.83-1.77.83a.5.5,0,0,1-.54-.47V23.5h-2.19v5.84c0,.64.18.68,3.13.68,5,0,5,0,5.62-1.84l1.11-3.67.58.18L115,28.47a2.21,2.21,0,0,0,.11.72,1.94,1.94,0,0,0,.21.29c.29.25.54.47.83.68a.41.41,0,0,1,.07.26c0,1.22-1.94,1.62-8.1,1.62-5.18,0-5.72-.22-5.72-2.34V23.5H99c-1.41,4.65-3,6.48-6.91,7.92a31.09,31.09,0,0,1-7,1.62c-.29,0-.51-.1-.51-.25s.29-.36,2.45-.9c5.83-1.55,8.57-4,9.5-8.39ZM88.24,5.83a13,13,0,0,1,.46,1.84h16.53c.79-1.95.86-2.2,2-7.24l3.06,1.44a.67.67,0,0,1,.4.58.92.92,0,0,1-.8.79l-.61.18-2.84,4.25h5.69l1.26-1.73,2.77,2.88a1.8,1.8,0,0,1,.5,1c0,.51-.32.69-1.26.72H114l-3,2.19-.47-.32,1.66-4H88.81v.86c0,2.24-1.19,4-2.66,4a1.26,1.26,0,0,1-1.33-1.19v0c0-.69.07-.8,1.58-2.31a6.1,6.1,0,0,0,1.33-4ZM90.43.94c2.7.72,5,2.84,5,4.64A1.4,1.4,0,0,1,94.05,7h0c-.72,0-.79-.1-1.51-2.27a7.31,7.31,0,0,0-2.27-3.38ZM106.88,15.3V12.67H93.06V15.3Zm0,3.6V16.16H93.06V18.9Zm0,3.74V19.76H93.06v2.88ZM96.51.36c.33.07.65.14.76.18a5.88,5.88,0,0,1,3,1.3,4.16,4.16,0,0,1,1.84,3,1.45,1.45,0,0,1-1.29,1.58h0c-.72,0-.72,0-2-3.09A6,6,0,0,0,96.44.79Z" fill="#333"/><path d="M145.19,13.68a5.28,5.28,0,0,0-.76.36,35,35,0,0,1-5.54,11.37c-2.06,2.7-5.37,5.33-6.66,5.33a.35.35,0,0,1-.36-.29c0-.07.07-.14.43-.39a18.64,18.64,0,0,0,6.23-7.24,24.3,24.3,0,0,0,2.37-6.33,17.68,17.68,0,0,0,.58-3.39,1.13,1.13,0,0,0-.94-1.26c-.14,0-.18-.07-.18-.18s.33-.39.65-.39a7.09,7.09,0,0,1,3.64,1.9c.43-.18.43-.18,3-2.16,1-.79,2-1.94,2-2.37S148.93,8,147.78,8a73.37,73.37,0,0,0-7.53.93,25.2,25.2,0,0,0-5.58,1.58c-.71.33-.79.36-.93.36a4.06,4.06,0,0,1-2.52-1.72,2.87,2.87,0,0,1-.58-2V7a.38.38,0,0,1,.29-.36c.15,0,.22.07.33.36a3.2,3.2,0,0,0,2.55,1.26A9.45,9.45,0,0,0,135,8.1c.33,0,1-.07,2.13-.14a22.08,22.08,0,0,0,2.44-.19c1.23-.14,2.49-.28,3.75-.46,5-.51,5.4-.58,7.34-1.15a1.66,1.66,0,0,1,.58-.11c.43,0,1.08.57,2.08,1.8.36.46.62.79.76.93.5.54.61.72.61,1s-.29.58-.79.62a10,10,0,0,0-4.57,1.44c-.79.43-1.62.79-2.38,1.11Z" fill="#333"/><path d="M192.17,20.41c2,1.62,3.09,3.27,3.09,4.79a1.65,1.65,0,0,1-1.49,1.8h0c-.72,0-1.15-.44-1.58-1.62a13.88,13.88,0,0,0-7.2-7.74,28.16,28.16,0,0,1-10.33,8.74,19.23,19.23,0,0,1-4.58,1.8c-.25,0-.5-.21-.5-.39s.07-.22.65-.43a31.62,31.62,0,0,0,10.72-8A31.31,31.31,0,0,0,185.76,12,10.46,10.46,0,0,0,187,8.85a.55.55,0,0,0-.59-.5h0a36.22,36.22,0,0,0-8.25,2.23,2.73,2.73,0,0,1-.79.22,1.61,1.61,0,0,1-.93-.43,5,5,0,0,0-.51-.4,1.68,1.68,0,0,1-.9-1.66c0-.64.11-.93.32-.93s.15.07.19.18c.21.5,1.25.9,2.48.9a54,54,0,0,0,6.69-1,7.41,7.41,0,0,0,2.78-1.16.78.78,0,0,1,.54-.21c.32,0,.82.28,2.05,1.26.93.72,1.11.9,1.11,1.15s-.1.25-.39.43-.36.25-.76.54A47.21,47.21,0,0,1,185.4,17,16.38,16.38,0,0,1,192.17,20.41Z" fill="#333"/><path d="M218.41,14V11.55a2.83,2.83,0,0,0-2.2-2.8c-.18-.08-.29-.15-.29-.22a4.18,4.18,0,0,1,1.8-.47,5.32,5.32,0,0,1,2.84,1.33,4.56,4.56,0,0,0,.65.51c.4.29.54.43.54.57s0,.08-.21.47a7.07,7.07,0,0,0-.69,2.63c-.25,2.81-.39,4.9-.39,6.59,0,2.19.1,2.59.79,2.59,3.53,0,13.71-7.78,18.14-13.82.32-.47.36-.51.5-.51s.29.22.29.4a12.92,12.92,0,0,1-1.33,2.45,40.44,40.44,0,0,1-7.74,8.31,35.88,35.88,0,0,1-7.81,5.08,7.44,7.44,0,0,0-2.3,1.62c-.33.36-.51.46-.65.46a6.22,6.22,0,0,1-1.48-1c-.61-.54-1-1-1-1.33a1.29,1.29,0,0,1,.15-.54,4,4,0,0,0,.43-1.87Z" fill="#333"/><path d="M270.32,13.17c0,.22,0,.43,0,.65,3.78-.43,5.68-.79,6.58-1.26.58-.32.61-.32.87-.32a3.5,3.5,0,0,1,1.9.79c1.44.94,1.66,1.12,1.66,1.51a.85.85,0,0,1-.86.79,6.51,6.51,0,0,1-.76-.07,33.9,33.9,0,0,0-4.93-.39c-1.08,0-3.49.07-4.54.18A20.35,20.35,0,0,1,268,22.71,16.83,16.83,0,0,1,260.1,30a4.79,4.79,0,0,1-1.73.54.35.35,0,0,1-.39-.32c0-.14,0-.18.54-.43,5.5-2.74,8.71-7.89,9.14-14.54A52.64,52.64,0,0,0,258.19,17a4.87,4.87,0,0,1-1.55.36,4.15,4.15,0,0,1-2.48-1.51,2.19,2.19,0,0,1-.61-1.77.18.18,0,0,1,.16-.18h0c.18,0,.25,0,.39.22a4.5,4.5,0,0,0,3,.79c.36,0,.36,0,2.66-.14l2.59-.22a47.79,47.79,0,0,0,5.33-.5v-1c0-2.34-.4-3.46-1.3-3.57-3.85,1.3-5.69,1.69-7.92,1.69-.57,0-.93-.14-.93-.36s.1-.21.36-.25a.75.75,0,0,0,.39-.07l.69-.14a26.36,26.36,0,0,0,7.27-2.81c3.13-1.66,3.63-2,3.63-2.63a1.48,1.48,0,0,0-.5-1.15c-.07-.07-.15-.14-.15-.18s.18-.14.33-.14a6.34,6.34,0,0,1,2.77.9c1.44.72,1.91,1.07,1.91,1.43s-.15.4-1.59,1.12a39.69,39.69,0,0,1-4.53,2c1.65.86,2.52,1.54,2.52,2,0,.12,0,.24-.07.36a4.4,4.4,0,0,0-.29,1Z" fill="#333"/><path d="M302.33,16.05a3.73,3.73,0,0,1,1.8,2.85A1.31,1.31,0,0,1,303,20.36h-.09c-.61,0-.83-.25-1.08-1.22a7.2,7.2,0,0,0-3-4c-.36-.14-.43-.22-.43-.36s.21-.22.47-.22A6.84,6.84,0,0,1,302.33,16.05Zm-2.52,15.23a1.3,1.3,0,0,1-.33.07.45.45,0,0,1-.43-.39c0-.08.07-.11.22-.15a24.53,24.53,0,0,0,5.18-2.7,29.75,29.75,0,0,0,7.92-7.74,19.54,19.54,0,0,0,2.16-4.28,15.49,15.49,0,0,0,.54-2.52,1.45,1.45,0,0,0-1-1.37c-.25-.07-.29-.11-.29-.25s.4-.36,1-.36a2.56,2.56,0,0,1,2,1c1.15,1.19,1.51,1.69,1.51,2s-.14.47-.86,1c-3.2,7.45-10.37,14-17,15.51Zm9.64-14.76A1.41,1.41,0,0,1,308.16,18a.83.83,0,0,1-.9-.74v-.05c-.33-1.87-1.91-4.39-3.1-4.86a.33.33,0,0,1-.21-.25c0-.15.14-.22.32-.22C306.54,11.84,309.45,14.47,309.45,16.52Z" fill="#333"/><path d="M339.73,30a3.8,3.8,0,0,1-.47.18,1.67,1.67,0,0,1-.32.08c-.25,0-.61-.29-.61-.51s.07-.18.47-.29a1.09,1.09,0,0,1,.25-.1,3.25,3.25,0,0,1,.43-.18c3.46-1.44,8.53-5.26,11.95-9a33.07,33.07,0,0,0,4.57-7,9.7,9.7,0,0,0,1-2.48.82.82,0,0,0-.82-.76,4.62,4.62,0,0,0-.65.08c-.07,0-.87.18-1.59.28s-1,.18-1.33.22a3.11,3.11,0,0,1-.68.11,2.53,2.53,0,0,1-1.37-.51,34.08,34.08,0,0,1-5.72,7c-1.66,1.51-3.93,3.06-4.5,3.06-.18,0-.36-.11-.36-.25s.07-.29.93-.91a28.61,28.61,0,0,0,5.65-6.47c1.44-2.16,2.34-4.18,2.34-5.3a2.22,2.22,0,0,0-1.26-2.15.24.24,0,0,1-.21-.18,1.17,1.17,0,0,1,.9-.33,4.14,4.14,0,0,1,2.41.86c1.22.8,1.51,1.12,1.51,1.59,0,.18,0,.25-.21.5a4.44,4.44,0,0,0-.62.87c-.21.46-.28.61-.43,1a1.71,1.71,0,0,0,.83.18A19.53,19.53,0,0,0,356,8.8a7.18,7.18,0,0,0,1.3-.65c.57-.33.79-.43,1-.43s.83.29,2,1.26,1.19,1,1.19,1.33-.14.43-.5.57a5.78,5.78,0,0,0-1.12.47C354.89,21.13,349,26.56,339.73,30Z" fill="#333"/><path d="M389.84,29.05c3.42-.15,4-.61,4-3.24V8.5c0-2.09-.94-2.74-4-2.74V4.57h11.7c4.54,0,8,.94,10.33,2.85a12.63,12.63,0,0,1,4.43,10c0,7.81-5.72,12.74-14.76,12.74h-11.7Zm7.24-3.13c0,2.52.68,3.09,3.74,3.09,7.27,0,11.41-4.35,11.41-12,0-7.41-4-11.34-11.66-11.34-2.63,0-3.49.65-3.49,2.63Z" fill="#333"/><path d="M450.86,17.31c0,7.74-5.43,13.47-12.81,13.47s-12.93-5.58-12.93-13.32a12.63,12.63,0,0,1,5.8-11,12.67,12.67,0,0,1,7.49-2.27C445.61,4.17,450.86,9.72,450.86,17.31ZM432.11,7.88c-2,2.05-2.95,5-2.95,9.15,0,8,3.16,12.52,8.67,12.52s8.93-4.64,8.93-12.42c0-7.56-3.06-11.77-8.61-11.77A8.6,8.6,0,0,0,432.11,7.88Z" fill="#333"/><path d="M458.78,29h.65c2.52,0,3.39-.68,3.42-2.66v-18c0-2.16-.57-2.56-4-2.66V4.57h11.23V5.69c-3.31,0-4,.47-4,2.66V18l10.25-9.65a2.29,2.29,0,0,0,.87-1.58c0-.8-.51-1-2.59-1.08V4.57h10V5.69a8.36,8.36,0,0,0-6.3,2.59L472.1,14l9.33,12.64c1.11,1.65,2.48,2.34,4.82,2.44V30.2H475.41V29h0c1.76,0,2.38-.29,2.38-1.15a2.28,2.28,0,0,0-.51-1.3l-7.49-10.47L466,19.64v6.41c0,2.45.75,3,4,3V30.2H458.78Z" fill="#333"/><path d="M493.63,29c3.57,0,4.32-.54,4.32-3V8.5c0-2.27-.61-2.67-4.32-2.74V4.57h11.7V5.76c-3.49,0-4.28.5-4.28,2.74V26c0,2.56.75,3.06,4.28,3v1.2h-11.7Z" fill="#333"/><path d="M512.53,29.05c3.42-.15,4-.61,4-3.24V8.5c0-2.09-.93-2.74-4-2.74V4.57h11.7c4.54,0,8,.94,10.33,2.85a12.63,12.63,0,0,1,4.43,10c0,7.81-5.72,12.74-14.76,12.74h-11.7Zm7.24-3.13c0,2.52.68,3.09,3.74,3.09,7.27,0,11.41-4.35,11.41-12,0-7.41-4-11.34-11.66-11.34-2.63,0-3.49.65-3.49,2.63Z" fill="#333"/><path d="M573.55,17.31c0,7.74-5.44,13.47-12.82,13.47s-12.92-5.58-12.92-13.32a12.63,12.63,0,0,1,5.8-11,12.64,12.64,0,0,1,7.48-2.27C568.29,4.17,573.55,9.72,573.55,17.31ZM554.79,7.88c-2,2.05-2.95,5-2.95,9.15,0,8,3.17,12.52,8.68,12.52s8.92-4.64,8.92-12.42c0-7.56-3.05-11.77-8.6-11.77A8.64,8.64,0,0,0,554.79,7.88Z" fill="#333"/><path d="M581.47,29h.65c2.52,0,3.38-.68,3.42-2.66v-18c0-2.16-.58-2.56-4-2.66V4.57h11.23V5.69c-3.31,0-4,.47-4,2.66V18L599,8.35a2.28,2.28,0,0,0,.86-1.58c0-.8-.5-1-2.59-1.08V4.57h10V5.69A8.36,8.36,0,0,0,601,8.28L594.79,14l9.32,12.64c1.12,1.65,2.49,2.34,4.83,2.44V30.2H598.1V29h0c1.76,0,2.37-.29,2.37-1.15a2.21,2.21,0,0,0-.5-1.3l-7.49-10.47-3.78,3.56v6.41c0,2.45.76,3,4,3V30.2H581.47Z" fill="#333"/><path d="M616.32,29c3.56,0,4.32-.54,4.32-3V8.5c0-2.27-.61-2.67-4.32-2.74V4.57H628V5.76c-3.49,0-4.29.5-4.29,2.74V26c0,2.56.76,3.06,4.29,3v1.2H616.3Z" fill="#333"/><path d="M655.05,13.28a8.34,8.34,0,0,1,6-3.09c2.49,0,4.36,1.44,4.36,3.31a2,2,0,0,1-.9,1.83c-.72.54-1,.65-4.14,1.91A63.52,63.52,0,0,0,653,20.59c.14,1.87.18,2.74.18,3.2,0,1.69-.36,2.16-1.73,2.16-.39,0-.61-.14-.61-.36a1.41,1.41,0,0,1,0-.29,26.87,26.87,0,0,0,.14-3.7c-3,1.83-4.17,3.16-4.17,4.71,0,1.73,1.65,2.41,5.68,2.41a19.36,19.36,0,0,0,5.08-.61,2.77,2.77,0,0,1,.9-.18,1.83,1.83,0,0,1,1.65,1.41c0,1.15-2.26,1.72-7,1.72a11.44,11.44,0,0,1-5.65-1,4.07,4.07,0,0,1-2.38-3.49c0-1.51.94-2.81,3.06-4.25.58-.4.58-.4,2.77-1.69a12.51,12.51,0,0,0-.43-4.39A1.75,1.75,0,0,0,648.93,15c-1.37,0-3.7,2.16-5.43,5-.4.65-.76,1-1.15,1s-1.19-1.16-1.19-2c0-.47.14-.68.83-1.26,3.67-3.13,6-6.62,6.66-9.79a11.8,11.8,0,0,1-3,.58,2.08,2.08,0,0,1-1.76-1.23A4.83,4.83,0,0,1,643.35,6c0-.07.07-.15.11-.15s.1.08.18.15a2.26,2.26,0,0,0,2,.94,8.76,8.76,0,0,0,3.16-.58,4.79,4.79,0,0,0,.11-1,1.66,1.66,0,0,0-1.44-1.86h-.21c-.11,0-.15,0-.15-.15,0-.32,1.15-.86,1.8-.86a2.43,2.43,0,0,1,2.31,2.05A4.37,4.37,0,0,1,651,5.79a4.64,4.64,0,0,0,2.23-1.15c1.15.58,1.51.83,1.51,1.08,0,.44-.65.72-4,1.7a39.8,39.8,0,0,1-4,7.37,5.83,5.83,0,0,1,2.31-.61,3.19,3.19,0,0,1,2.55,1.19,5.71,5.71,0,0,1,.94,2.05A15.91,15.91,0,0,1,655.05,13.28Zm2.38,3.64c4-2.23,4-2.23,4.42-2.59a1.87,1.87,0,0,0,.69-1.23,2.08,2.08,0,0,0-2.09-1.73,6.54,6.54,0,0,0-4.39,2.38,18.58,18.58,0,0,0-3.1,5.44.89.89,0,0,0-.07.28C654,18.83,654,18.83,657.43,16.92Z" fill="#333"/><path d="M693.07,16.81h-2.38v1.48c0,.39-.64.71-1.44.71-.39,0-.64-.21-.64-.53V3.74l2.52,1.41h1.61a32.5,32.5,0,0,0,.69-5l2.84.47c.43.07.69.33.69.61a1,1,0,0,1-.51.76l-.75.54-1.55,2.63h3.45l.87-1.37,2,1.94a.9.9,0,0,1,.25.58.64.64,0,0,1-.39.54l-.58.32V17.64c0,.65-.68,1.11-1.62,1.11-.32,0-.47-.18-.47-.54v-1.4H695.3V21h10l1.88-2.34L710.1,21c.25.18.35.35.35.5a.35.35,0,0,1-.39.32H696.24c3.52,3.57,8.85,6.05,15,6.91a9.63,9.63,0,0,0-2.77,2.81A29,29,0,0,1,701,27.75a25.39,25.39,0,0,1-5.72-5.47v9.5a.52.52,0,0,1-.11.36,2.75,2.75,0,0,1-1.58.58.52.52,0,0,1-.54-.47V23.07a40.05,40.05,0,0,1-9.86,6.63,22.24,22.24,0,0,1-5.11,2,.3.3,0,0,1-.33-.27v0c0-.18,0-.18,2.13-1.26a41,41,0,0,0,11-8.32h-5.47c-2.49.07-3.6.07-6.63.18l-.46-1.26c1.72.07,3.24.11,3.85.15,1.58,0,2.66.07,3.24.07H693Zm-5.29-4L682,17.57l-.15.68c-.11.47-.39.75-.72.75a.77.77,0,0,1-.39-.14l-2.31-2.27c3.13-1.36,4.21-1.9,9.11-4.5Zm-8.21-8.89c3.64.86,6.08,2.91,6.08,5a1.43,1.43,0,0,1-1.25,1.58h0a1.23,1.23,0,0,1-.9-.39c-.25-.25-.25-.25-1-2.23a10.61,10.61,0,0,0-3.06-3.53Zm18.14,6.66V6h-7v4.54Zm0,5.4V11.41h-7V16ZM708.4,5.36a.44.44,0,0,1,.18.33c0,.18-.21.36-.68.47l-1.22.32-5.22,4.39c-.36.29-.54.4-.72.4s-.29-.11-.29-.33.14-.39,1.58-2.23c1-1.33,1.91-2.63,3.82-5.47Zm-7.52,6.55a14.45,14.45,0,0,1,5.62,1.7c1.51.86,2.3,1.87,2.3,2.88a1.32,1.32,0,0,1-1.26,1.33c-.47,0-.58-.11-2.45-2.27a14.39,14.39,0,0,0-4.28-3Z" fill="#333"/><path d="M748.65,23c0,.62-.83,1.91-2,3.24a12.43,12.43,0,0,1-9.47,4.54,7.65,7.65,0,0,1-5.76-2.2C730,27,729.36,25,729.36,21.81c0-2,0-2.52.72-11.48.21-2.91.21-2.91.21-3.35,0-2.19-.5-3.13-1.69-3.13-.21,0-.32-.07-.32-.18,0-.36.72-.68,1.51-.68,1.76,0,3.45,2,3.45,4.14a10.2,10.2,0,0,1-.5,2.62,71.61,71.61,0,0,0-1.47,11.85c0,4.86,1.9,7,6.22,7a13.08,13.08,0,0,0,7.6-2.78A15.55,15.55,0,0,0,748,23c.15-.25.29-.36.4-.36a.28.28,0,0,1,.27.27S748.66,23,748.65,23Z" fill="#333"/><path d="M771.62,8.13V6.59c0-2.13-.36-2.7-1.77-2.77-.25,0-.32,0-.32-.11,0-.29,1.37-.9,1.94-.9a5.37,5.37,0,0,1,2.16.72,1.4,1.4,0,0,1,.72,1,4.24,4.24,0,0,1-.21,1,16.6,16.6,0,0,0-.62,2.88c1.55-.61,2.09-1,2.49-1.62,1.11.15,2,.72,2,1.3,0,.29-.18.43-.83.75a27.2,27.2,0,0,1-4,1.52,3.82,3.82,0,0,0-.14.75c-.08.58-.15,1.19-.22,1.8,0,.07-.07.61-.18,1.19a1.56,1.56,0,0,1,1.23,1.48c0,.5-.11.86-1.08,4.35-1.12,3.78-1.34,4.86-1.34,6.19,0,1.59,1.23,2.31,3.89,2.31a19.93,19.93,0,0,0,6.66-1.23c1.19-.54,1.62-1.37,1.62-3a56.3,56.3,0,0,0-.54-6.55c-.22-2.3-.32-4-.32-5,0-2.23.9-3.35,2.59-3.35,3.16,0,7.16,3.31,7.16,5.91,0,1.11-.93,2.41-1.73,2.41a.44.44,0,0,1-.36-.22c-.79-.93-1.65-1.22-3.63-1.19-.29,0-.4-.1-.4-.25s0-.18.33-.21c.57-.11,2.12-.44,2.44-.54a.84.84,0,0,0,.65-.76,5.18,5.18,0,0,0-1.4-2.56,5,5,0,0,0-3.24-1.76c-1,0-1.51.94-1.51,2.74a41.87,41.87,0,0,0,.86,7.81c.54,2.34,1,3.34,1.84,4.1a2,2,0,0,1,.18.79c0,1.12-.72,2.09-2.09,2.88a18.05,18.05,0,0,1-8.17,1.77c-4.43,0-6.52-1.34-6.52-4.18a16,16,0,0,1,.4-2.92,1.71,1.71,0,0,1-1.33.54c-1.37,0-2.24-1.58-2.24-4,0-3.28,1.88-5.94,4.14-5.94a2.81,2.81,0,0,1,.58,0c.11-1.77.11-1.84.18-3.06a18.27,18.27,0,0,1-4.57.86A1.88,1.88,0,0,1,764.92,10a6.77,6.77,0,0,1-.35-2c0-.18.07-.25.21-.25s.11,0,.15.18a2.42,2.42,0,0,0,2.48,1.87,16.33,16.33,0,0,0,4.21-.8Zm-2.55,8a8.35,8.35,0,0,0-.8,3.57c0,1.36.51,2.3,1.26,2.3.58,0,.94-.43,1.16-1.33s.72-4.25.72-4.65c0-.72-.26-1.15-.69-1.18a2.26,2.26,0,0,0-1.65,1.32Z" fill="#333"/><path d="M813.56,17.75a11.44,11.44,0,0,1-.75,4.17c-.83,2-2.78,3.64-4.32,3.64A1.72,1.72,0,0,1,807,24c0-.47.18-.65,1.3-1.15a8.51,8.51,0,0,0,4.7-5.21c0-.18.11-.22.26-.22a.28.28,0,0,1,.3.28Zm7.09-3.5v3.86l.07,3.88a21.75,21.75,0,0,0,.07,2.59v1.59a3.31,3.31,0,0,1-1.23,2.73,3.21,3.21,0,0,1-2,.94c-.32,0-.46-.22-.5-.76-.11-1.58-.65-2.44-2.3-3.85-.15-.11-.22-.21-.22-.29a.38.38,0,0,1,.36-.32c.15,0,.15,0,1.44.83.76.47,1,.57,1.33.57.83,0,.83,0,.9-7V13.35a34.13,34.13,0,0,0-7.27,1.55,2.46,2.46,0,0,1-1,.25,4.33,4.33,0,0,1-1.55-.61,2.78,2.78,0,0,1-1.41-2.34c0-.21.08-.32.18-.32s.18,0,.29.18c.51.65,1.3.86,3,.86,1.47,0,5.25-.36,7.66-.68,0-5.26-.18-5.65-2.16-5.91-.21,0-.32,0-.32-.14,0-.32,1.29-1,1.94-1a4.18,4.18,0,0,1,2.56,1c.57.43.86.79.86,1a.57.57,0,0,1-.11.33c-.46.75-.54,1.29-.72,4.43,4.22-.4,5.94-.72,7.17-1.26.68-.4.68-.4.9-.4a4.14,4.14,0,0,1,2.12,1c.79.54,1,.79,1,1.19a.86.86,0,0,1-.82.83,2.14,2.14,0,0,1-.61-.07,38.09,38.09,0,0,0-5-.36c-1.44,0-3.6.14-4.83.28ZM827.1,18c2.88,1.73,4.57,3.75,4.57,5.51a1.73,1.73,0,0,1-1.56,1.9h-.06c-.65,0-.87-.25-1.26-1.69-.65-2.67-3.1-5.65-5.29-6.45-.15-.07-.22-.1-.22-.21a.4.4,0,0,1,.4-.29A7.91,7.91,0,0,1,827.1,18ZM833,5a3.38,3.38,0,1,1-6.76,0h0A3.38,3.38,0,1,1,833,5Zm-5.61,0a2.22,2.22,0,1,0,2.21-2.23h0A2.24,2.24,0,0,0,827.42,5Z" fill="#333"/><path d="M862.23,13.86c1.77.83,1.77.83,1.77,1.11a1.67,1.67,0,0,1-.15.54,7.27,7.27,0,0,0-.29,2.74v11c0,.9-.33,1.44-.83,1.44-1,0-2.27-.9-2.27-1.69a3.3,3.3,0,0,1,.11-.69,106,106,0,0,0,.83-11.95,3.82,3.82,0,0,0-.4-2,43.68,43.68,0,0,1-9,7.13A16.14,16.14,0,0,1,848.34,23a.36.36,0,0,1-.36-.29c0-.07.07-.15.36-.29C853.77,20,864.46,9.11,864.46,6.05c0-.36-.64-1-1.15-1.08-.29-.07-.36-.15-.36-.29s.72-.47,1.41-.47c1.29,0,3.88,1.87,3.88,2.81,0,.25-.1.36-.43.5a3,3,0,0,0-1.22,1.05,56,56,0,0,1-4.79,5.07Z" fill="#333"/><path d="M901,11.77a1.45,1.45,0,0,1-1.41,1.49h-.18c-.47,0-.68-.18-1-.8a7.45,7.45,0,0,0-5.29-4.24c-.22-.08-.33-.15-.33-.25,0-.26.61-.4,1.62-.4C897.69,7.56,901,9.68,901,11.77Zm-4.47,15.37a5.2,5.2,0,0,1-2.48-1.8,2.57,2.57,0,0,1-.87-2.16c0-.68.18-1.19.44-1.19.1,0,.18.08.25.26a2.42,2.42,0,0,0,2,1.72c1.44,0,5.58-2.55,10.62-6.58A72.29,72.29,0,0,0,913,11.66c.61-.65,2.55-2.84,2.88-3.27s.43-.54.61-.54a.28.28,0,0,1,.25.32c0,.54-1.55,2.92-3.24,5a53.24,53.24,0,0,1-7.41,7.45,50.33,50.33,0,0,1-8.21,5.66c-.65.61-1,.86-1.34.86Z" fill="#333"/><path d="M943.34,14.65c0,6.08.07,9.32.25,11.81.07.68.11,1.22.11,1.51,0,1.47-.54,2.55-1.22,2.55s-1.84-1.58-1.84-2.44a4.28,4.28,0,0,1,.07-.87c.33-1.91.58-9.68.58-16.48,0-3.21-.14-4.47-.54-5.11a1.78,1.78,0,0,0-1.69-.91c-.22,0-.33-.1-.33-.28s.11-.26.29-.33a8.71,8.71,0,0,1,2.13-.57c.5,0,1,.25,2.48,1.22.5.33.68.54.68.79a1.8,1.8,0,0,1-.18.65c-.54.94-.75,2.52-.82,6.41a14.47,14.47,0,0,1,7.27,2.27c1.87,1.26,2.73,2.37,2.73,3.49A1.42,1.42,0,0,1,952,19.87h-.11c-.75,0-1.19-.33-2-1.66a12.33,12.33,0,0,0-6.55-5Z" fill="#333"/></svg>