<svg xmlns="http://www.w3.org/2000/svg" viewBox="0 0 545.83 109.68"><defs><style>.cls-1{fill:#343434;}</style></defs><title>dokidoki-athletic-title</title><g id="Layer_2" data-name="Layer 2"><g id="Layer_1-2" data-name="Layer 1"><path class="cls-1" d="M3.4,7C3.19,6.05,3,5.94,0,4.32,1.24,3.24,1.78,2.86,2.16,2.86A14.37,14.37,0,0,1,5.67,4.43c1.78,1,2.65,1.78,2.65,2.48a2.12,2.12,0,0,1-.65,1.3,4,4,0,0,0-.54.65,12.39,12.39,0,0,0-.22,2.53l-.32,8.1A31,31,0,0,1,17,23c4.32,2.27,6.7,4.7,6.7,6.92A1.77,1.77,0,0,1,22,31.75c-.81,0-1.24-.27-2-1.19A30.22,30.22,0,0,0,6.7,21l.1,23.6A1.42,1.42,0,0,1,5.4,46a2.88,2.88,0,0,1-2.7-2.43A16.08,16.08,0,0,1,3,41.42c.06-.22.11-1,.17-1.89l.21-6.48L3.46,17.5Zm13.45-.65c4.53.92,7.61,3.08,7.61,5.4a1.64,1.64,0,0,1-1.56,1.73c-.76,0-1.19-.38-1.89-1.62a14.27,14.27,0,0,0-4.54-5Zm5.56-3A14.65,14.65,0,0,1,27,4.48c2.1,1,3.4,2.43,3.4,3.67a1.87,1.87,0,0,1-1.57,1.95c-.65,0-.81-.16-2.05-1.95a13.81,13.81,0,0,0-4.54-4.21Z"/><path class="cls-1" d="M71.17,12.8c.22-.06,1-.27,1.57-.43a2.19,2.19,0,0,0,.92-.87c.37-.48.64-.7,1-.7a14.7,14.7,0,0,1,2.91.86c1.41.6,1.95,1.14,1.95,1.95,0,.65-.54,1-1.46,1h-.59a7.72,7.72,0,0,0-.92-.05,103.84,103.84,0,0,0-11,2l2.32,8.91c4.32-1.08,8.8-2,10.85-2.32A4.43,4.43,0,0,0,81.32,22c.81-.6,1-.76,1.35-.76.17,0,.17,0,3.19,1.19,1.24.49,1.73,1,1.73,1.89s-.6,1.3-1.67,1.3a12.86,12.86,0,0,1-1.41-.06,11.39,11.39,0,0,0-1.19-.05,97,97,0,0,0-14.74,2.37c1,3.73,2.48,8.43,3.78,12a7.37,7.37,0,0,1,.86,2.86A2.36,2.36,0,0,1,71,45.09c-.86,0-1.4-.54-1.67-1.62l-3.57-15c-7.18,1.95-10.26,3-13.34,4.81a5.12,5.12,0,0,1-1.89.81c-.59,0-1.62-.7-3.13-2.11-1.35-1.24-1.62-1.62-1.62-2.16a4.22,4.22,0,0,1,.7-1.89l.22.22.22.11c2.59,1.94,2.59,1.94,3.45,1.94s1.57-.16,4.81-1.13c4.37-1.41,6.21-1.95,10-2.92L63,17.28a59.94,59.94,0,0,0-9.39,3.29c-1.46.76-1.46.76-1.89.76-1.46,0-4.81-2.75-4.81-3.94a4.81,4.81,0,0,1,.92-1.73c1.19,1.46,2.48,2.27,3.51,2.27a9.35,9.35,0,0,0,2.05-.49L62.26,15,60.7,8.91c-.65-2.11-2-3-5.13-3.4a.19.19,0,0,1-.06-.16c0-.54,1.78-1.89,2.54-1.89A28.52,28.52,0,0,1,63.5,5.13c.71.32,1.14.76,1.14,1.19a1.72,1.72,0,0,1-.38,1A1.13,1.13,0,0,0,64,8a6.93,6.93,0,0,0,.11.92l1,5.4Z"/><path class="cls-1" d="M117.88,7c-.21-.92-.38-1-3.4-2.65,1.24-1.08,1.78-1.46,2.16-1.46a14.37,14.37,0,0,1,3.51,1.57c1.78,1,2.65,1.78,2.65,2.48a2.12,2.12,0,0,1-.65,1.3,4,4,0,0,0-.54.65,12.39,12.39,0,0,0-.22,2.53l-.32,8.1A31,31,0,0,1,131.49,23c4.32,2.27,6.7,4.7,6.7,6.92a1.77,1.77,0,0,1-1.73,1.83c-.81,0-1.24-.27-2-1.19A30.22,30.22,0,0,0,121.18,21l.1,23.6a1.42,1.42,0,0,1-1.4,1.4,2.88,2.88,0,0,1-2.7-2.43,16.08,16.08,0,0,1,.32-2.1c.06-.22.11-1,.17-1.89l.21-6.48.06-15.55Zm13.45-.65c4.53.92,7.61,3.08,7.61,5.4a1.64,1.64,0,0,1-1.56,1.73c-.76,0-1.19-.38-1.89-1.62a14.27,14.27,0,0,0-4.54-5Zm5.56-3a14.65,14.65,0,0,1,4.54,1.19c2.1,1,3.4,2.43,3.4,3.67a1.87,1.87,0,0,1-1.57,1.95c-.65,0-.81-.16-2-1.95a13.81,13.81,0,0,0-4.54-4.21Z"/><path class="cls-1" d="M185.65,12.8c.22-.06,1-.27,1.57-.43a2.19,2.19,0,0,0,.92-.87c.37-.48.64-.7,1-.7a14.7,14.7,0,0,1,2.91.86c1.41.6,1.95,1.14,1.95,1.95,0,.65-.54,1-1.46,1h-.59a7.72,7.72,0,0,0-.92-.05,103.84,103.84,0,0,0-11,2l2.32,8.91c4.32-1.08,8.8-2,10.85-2.32A4.43,4.43,0,0,0,195.8,22c.81-.6,1-.76,1.35-.76.17,0,.17,0,3.19,1.19,1.24.49,1.73,1,1.73,1.89s-.6,1.3-1.67,1.3a12.86,12.86,0,0,1-1.41-.06,11.39,11.39,0,0,0-1.19-.05,97,97,0,0,0-14.74,2.37c1,3.73,2.48,8.43,3.78,12a7.37,7.37,0,0,1,.86,2.86,2.36,2.36,0,0,1-2.21,2.38c-.86,0-1.4-.54-1.67-1.62l-3.57-15c-7.18,1.95-10.26,3-13.34,4.81a5.12,5.12,0,0,1-1.89.81c-.59,0-1.62-.7-3.13-2.11-1.35-1.24-1.62-1.62-1.62-2.16A4.22,4.22,0,0,1,161,28l.22.22.22.11c2.59,1.94,2.59,1.94,3.45,1.94s1.57-.16,4.81-1.13c4.37-1.41,6.21-1.95,10-2.92l-2.22-8.91a59.94,59.94,0,0,0-9.39,3.29c-1.46.76-1.46.76-1.89.76-1.46,0-4.81-2.75-4.81-3.94a4.81,4.81,0,0,1,.92-1.73c1.19,1.46,2.48,2.27,3.51,2.27a9.35,9.35,0,0,0,2.05-.49L176.74,15l-1.56-6.1c-.65-2.11-2-3-5.13-3.4a.19.19,0,0,1-.06-.16c-.05-.54,1.78-1.89,2.54-1.89A28.52,28.52,0,0,1,178,5.13c.71.32,1.14.76,1.14,1.19a1.72,1.72,0,0,1-.38,1,1.13,1.13,0,0,0-.27.7,6.93,6.93,0,0,0,.11.92l1,5.4Z"/><path class="cls-1" d="M225.72,35.64c.92.32,1.51.54,1.73.59l2.86,1.14a11.63,11.63,0,0,0,3.19,1c2.37,0,5.13-9.61,5.13-17.82,0-2.8-.71-3.88-2.54-3.88a25.45,25.45,0,0,0-4.86.59l-5.4,12c-.76,1.73-5.51,11.5-6.37,13.17-.44.81-.92,1.19-1.62,1.19-.92,0-1.62-1.19-1.62-2.7a1.88,1.88,0,0,1,.64-1.51,44.65,44.65,0,0,0,3.08-4.81,39.45,39.45,0,0,0,2.92-5.34l5.29-11.34-1.13.38-1.52.48c-1.08.33-2.26.7-2.86,1a3.76,3.76,0,0,1-1.56.38c-.81,0-1.89-.7-3.19-2.16a5.24,5.24,0,0,1-1.62-2.7c0-.81.27-1.24,1.19-2.16,1.62,2.76,2.91,3.78,4.8,3.78,1,0,1.62-.11,6.65-1.24l2.32-6a7.56,7.56,0,0,0,.65-2.06c0-.21,0-.21-1.79-1.56-.43-.27-.91-.54-1.4-.81l-.7-.38c1.24-.92,1.89-1.3,2.37-1.3,1.68,0,6.38,3.35,6.38,4.54,0,.27-.17.49-.65.76a5.56,5.56,0,0,0-2.22,2.8l-1.72,3.46a33.35,33.35,0,0,1,4.69-.54c3.08,0,4.76,2.7,4.76,7.83a35.72,35.72,0,0,1-3.95,17.23c-1.67,3.13-3.13,4.48-4.86,4.48-1.18,0-1.35-.22-1.4-2,0-.92,0-1.19-.27-1.51a4.81,4.81,0,0,0-1.24-1l-4.54-3.18Zm19.66-5.78c2.21-.81,3.51-1.24,5.18-1.73l3.56-.86c.49-.11.92-.22,1.25-.32l.91-.27c-.54-2.92-3.51-6.92-8.1-10.7-.59-.48-.81-.75-.81-1a.54.54,0,0,1,.54-.49c.65,0,2.76,1.24,4.86,2.76,5.73,4.21,8.48,8.26,8.48,12.31,0,1.62-.75,2.75-1.78,2.75-.43,0-.49,0-1.3-1a3.34,3.34,0,0,0-3.24-1.57,59.4,59.4,0,0,0-9.45,1Zm.81-24.35c4.21.54,7.83,3.35,7.83,6.05a1.63,1.63,0,0,1-1.73,1.67c-.7,0-.87-.16-1.41-1.13a16.83,16.83,0,0,0-4.91-6Zm5.94-2.7h.48a12.23,12.23,0,0,1,4.32,1.08c2.27,1,3.67,2.54,3.67,4.1A1.56,1.56,0,0,1,259,9.56c-.43,0-.76-.22-1.3-.92C256,6.21,255,5.35,251.86,3.35Z"/><path class="cls-1" d="M270.54,43.25c4.86.22,5.62.27,10.15.33V13.12l4.86.54c.81.06,1.3.49,1.3,1s-.27.81-1.08,1.19l-1.3.59V43.58h10V0l4.65.32c1,.06,1.45.44,1.45,1.08,0,.44-.32.81-.86,1.14l-1.35.7v17.5H308L311.47,17l4.16,3.29a1.51,1.51,0,0,1,.7,1c0,.49-.27.7-.86.7H298.35V43.58h12.47l3.57-3.84,4.37,3.35a1.45,1.45,0,0,1,.65,1.08.67.67,0,0,1-.76.7h-38c-2.16,0-4.16.06-9.61.27Z"/><path class="cls-1" d="M343.06,15.34c-4.43-.22-6.42-.65-8.21-1.79-1.56-1-3.18-2.64-3.18-3.34a.36.36,0,0,1,.38-.33c.1,0,.21.06.64.38,2.92,2.05,5.08,2.54,11.18,2.54a69.64,69.64,0,0,0,7.4-.43l0-6.32c0-2.43-.27-2.65-4.59-3.35a3.46,3.46,0,0,1,2.64-2,19.91,19.91,0,0,1,5.29,2.22c.81.43,1.57,1.24,1.57,1.67,0,.27,0,.27-1.4,1.89a7.61,7.61,0,0,0-.49,2.92v2.7c5.67-.87,9.13-1.62,10-2.33A3.85,3.85,0,0,1,366,9.13c1.68,0,3.24.91,3.24,1.94s-1,1.51-4.48,2.11c-3.24.59-8.1,1.35-10.58,1.62l.05,8.15c4.48-.43,7.29-1,9.29-1.78a5.94,5.94,0,0,1,1.4-.38c1.08,0,2.33,1,2.33,1.78s-.92,1.3-3.14,1.78a93.36,93.36,0,0,1-9.77,1.41l.16,8.21c8.48,1.56,15.93,5.23,15.93,7.93A1.65,1.65,0,0,1,369,43.58c-.75,0-1-.16-3.24-1.68A45.18,45.18,0,0,0,354.62,37c0,5.67-2.54,8.15-8.48,8.15-5.62,0-9.4-2.43-9.4-6a4.56,4.56,0,0,1,2.43-3.83c2.06-1.35,4.38-1.84,8.48-1.84,1.08,0,1.57,0,3.78.16l.06-7.67c-.92.06-1.73.06-2.16.06a28.92,28.92,0,0,1-7.73-.7c-1.62-.65-2.43-1.62-2.43-2.87a8.49,8.49,0,0,1,2.16-4.91ZM346.52,36a17.69,17.69,0,0,0-5.56.71,3.16,3.16,0,0,0-2.33,2.43c0,1.89,3.19,3.34,7.35,3.34,2.64,0,4.48-1,5.13-2.91a12.06,12.06,0,0,0,.38-3.19A32.23,32.23,0,0,0,346.52,36Zm4.8-20.84c-.86.05-2.53.16-5,.27-2.64,1.46-4.75,4.1-4.75,6.1,0,1.41,1.46,2,5,2,1.14,0,1.46,0,4.92-.17Z"/><path class="cls-1" d="M397.93.27c3.18,2.75,4.1,3.24,10.9,5.62,2.54.91,3.95,2.32,3.95,3.88,0,1-.65,2-1.35,2a3.21,3.21,0,0,1-1.08-.22,17.43,17.43,0,0,0-4.76-.54,15,15,0,0,0-4.69.54c-1.95.65-3,1.3-3,1.89s.1.92,1.35,2.76a1.47,1.47,0,0,1,.32.75,3.08,3.08,0,0,1-.32,1c-.38.81-.81,2.86-1.41,6.86-.16,1.29-.38,2.75-.38,2.86a17.85,17.85,0,0,0-.37,3.18,32.59,32.59,0,0,1,6.53-4.91,24.24,24.24,0,0,1,11.77-3.35c6.7,0,11.83,4.05,11.83,9.4,0,3.56-2.22,7.23-5.83,9.5-4.22,2.7-12.15,4.43-20.09,4.43-2.49,0-2.86-.11-2.86-.65s.1-.65,2.7-.75a54.71,54.71,0,0,0,10.42-2c7.88-2.54,11.34-5.78,11.34-10.59,0-4.48-3.67-7.45-9.18-7.45-4.38,0-8.32,1.78-12,5.4a10.7,10.7,0,0,0-3.3,5.08c-.32,1.08-.7,1.46-1.29,1.46a3,3,0,0,1-1.52-.65,4.6,4.6,0,0,1-1.51-3.94,61.64,61.64,0,0,1,1.35-11.18,16.74,16.74,0,0,0,.49-3.08,24,24,0,0,0-.33-2.86,3.1,3.1,0,0,1-.1-.87c0-1.29,1.24-2.53,3.51-3.51,2.1-1,2.1-1,7.18-1.72a10,10,0,0,0-.81-.71c-.16-.1-.65-.37-1.46-.86a21.85,21.85,0,0,1-6.64-6.1Z"/><path class="cls-1" d="M460.3,6.7a3.76,3.76,0,0,0,.27-1.25c0-.54-.6-.91-3.78-2.7a2.87,2.87,0,0,1,2-1.13,11.13,11.13,0,0,1,3.72,1.62c1.52,1,2.49,2.16,2.49,2.92,0,.32-.16.48-.76,1S462.83,9,460.94,13a12.71,12.71,0,0,0,4.65-1.83c.7-.54.92-.65,1.19-.65a2.31,2.31,0,0,1,2.05,1.84c0,.7-.49,1.13-1.78,1.56a76,76,0,0,1-7.62,2.22l-8.1,18c-2.32,4.38-2.32,4.38-3.51,4.38s-2.21-.81-2.21-1.62c0-.54,0-.6,1.78-3.35a187.27,187.27,0,0,0,8.69-16.9c-.59.1-1,.16-1.18.21-1.68.27-3.89.54-4.11.54-.86,0-1.51-.43-3.4-2.16-1.19-1.13-1.24-1.19-1.24-1.51s.11-.54.59-1.13c1.78,1.56,2.81,2,4.32,2a26.53,26.53,0,0,0,6.27-.81Zm12.2,3.56c7.24.65,15.34,6.21,15.34,10.48a1.67,1.67,0,0,1-1.62,1.62,3.45,3.45,0,0,1-1.25-.44,12.12,12.12,0,0,0-5.83-1.35c-3.13,0-5.61,1.68-5.61,3.73a13,13,0,0,0,.1,1.4L475,35.37a38,38,0,0,1,9.56,3.78c1.95,1.13,2.54,2,2.54,3.46a1.52,1.52,0,0,1-.38,1.08,2.64,2.64,0,0,1-1.29.64c-.54,0-1.14-.37-2.43-1.45A32.78,32.78,0,0,0,475,38.34c-.11,2.59-.33,3.29-1.46,4.7A7.54,7.54,0,0,1,467.26,46c-4.75,0-7.83-2.26-7.83-5.72s3.67-5.72,9.13-5.72a12.34,12.34,0,0,1,3.08.37,47.74,47.74,0,0,1-.92-8.42c0-3,.48-4.37,1.89-5.4,1.67-1.19,3.4-1.73,7.18-2.16,1.51-.16,2.11-.32,2.11-.65a6.93,6.93,0,0,0-1.79-2.48,21.5,21.5,0,0,0-7.93-4.7Zm-.76,27.54c0-.27,0-.38-.05-.38a22.21,22.21,0,0,0-4.27-.43c-3.56,0-5.88,1.19-5.88,3,0,2.06,2,3.51,4.7,3.51,3.51,0,5.5-1.94,5.5-5.23Z"/><path class="cls-1" d="M503.82,7.83c.7,0,3.13,1.24,4.81,2.54,1.24.92,1.67,1.46,1.67,2.21a2.85,2.85,0,0,1-.54,1.57c-1.13,2-1.57,5-1.57,10.74,0,4.49.54,7.29,1.84,9.67.54,1,.92,1.4,1.24,1.4s1-.91,2.86-4a107.81,107.81,0,0,1,7.46-10.75c.81-1.08,1-1.29,1.35-1.29a.47.47,0,0,1,.48.43c0,.21,0,.27-.92,1.83-3.72,6.59-4,7-5.07,9.24-1.41,2.91-2.54,5.88-2.54,6.64a9,9,0,0,0,.38,1.57,3.41,3.41,0,0,1,.21,1.13A1.49,1.49,0,0,1,514,42.28c-1.62,0-4.59-2.37-6.11-4.86-1.78-3-2.75-7.94-2.75-14.47a62.29,62.29,0,0,1,.49-7.45,17.19,17.19,0,0,0,.21-2.54c0-1.24-.32-1.67-2.1-3-.44-.27-.76-.49-1.14-.7L502,8.91A1.81,1.81,0,0,1,503.82,7.83Zm27.11,3.35a20.57,20.57,0,0,1,10.42,7.5c2.7,3.46,4.48,7.73,4.48,10.75,0,2.05-1,3.46-2.32,3.46-1.19,0-1.73-.65-1.94-2.22-1.14-8.48-4.92-15-10.91-18.84Z"/><path class="cls-1" d="M134,79.93c-4.38,2.65-5.08,3-8.48,4.81-.65,8.58-3.13,14.36-8,18.84-2.26,2.11-7.29,5.46-8.15,5.46a.49.49,0,0,1-.49-.49c0-.27.17-.43.92-.92a24.67,24.67,0,0,0,9.45-10.2,37.53,37.53,0,0,0,2.86-13.13c0-1.56-.86-2.37-2.91-2.86-.6-.16-.81-.27-.81-.48s.16-.44,2-1.73a16.71,16.71,0,0,1,6,3.35c5-3.84,6.64-5.24,10.42-8.54-19.71,1.62-24.84,2.43-28.24,4.49a.89.89,0,0,1-.49.21,6.49,6.49,0,0,1-1.89-1.51c-2.37-2.48-2.37-2.48-2.37-3a2.26,2.26,0,0,1,1.4-2.22c1.08,1.57,2,2.33,3,2.33a7,7,0,0,0,.86-.11,8.24,8.24,0,0,0,1.4-.16l6-.65c9-1,10.53-1.08,20.9-1.78l1.94-1.46A26.39,26.39,0,0,1,141.75,72c1.84,1.57,2.32,2.11,2.32,2.71s-.43.86-2.32.86h-.43c-1,.54-2.27,1.35-3.89,2.32Z"/><path class="cls-1" d="M193.48,75a2.13,2.13,0,0,1,1,1.51c0,.49-.43.81-1.18.92l-1.35.27a103.71,103.71,0,0,1-8.37,11.77c10.15,4.43,16.3,9.45,16.3,13.29a2.09,2.09,0,0,1-1.83,2.16c-.81,0-1.35-.49-2.38-2.11-1.73-3.18-9.18-10.15-13-12.15-5.89,6.7-10.26,10.32-17.34,14.31a16.37,16.37,0,0,1-4.86,2.11.54.54,0,0,1-.54-.49c0-.32.22-.54,1.57-1.35,12.42-7.61,19-14.79,26.68-28.94A63.73,63.73,0,0,0,178,78c-1.29.27-3.56.75-5.45,1.19a5.24,5.24,0,0,0-1.94.86c-.87.54-1.14.65-1.46.65s-.54-.16-1.51-1.19c-1.89-2-2.54-2.86-2.54-3.45,0-.44,0-.44,1.13-2.11,1,1.67,1.95,2.48,2.86,2.48a10.9,10.9,0,0,0,1.3-.16l18.14-2.48,1.68-1.73Z"/><path class="cls-1" d="M225.77,77c0-1.08-.75-1.62-4.1-3,1.62-1.4,1.89-1.62,2.43-1.62a33.87,33.87,0,0,1,5.45,2.27c.81.49,1.14.92,1.14,1.41,0,.32-.22.64-.7,1.07-.81.6-.81.71-.92,3.57L228.74,100c6.7-2.22,19.34-10.32,26.25-16.85,1.08-1,1.29-1.13,1.56-1.13a.8.8,0,0,1,.71.64c0,.49-1.3,1.79-6,6.27a94.33,94.33,0,0,1-12.69,10.1,82.17,82.17,0,0,1-8.7,4.69l-.54.81c-.32.65-.48.76-.75.76a2.2,2.2,0,0,1-1-.49l-3.72-3.07,1.78-2,.21-21.06Z"/><path class="cls-1" d="M307.85,83.33l3.78-1.56c3.52,1.83,4.65,2.75,4.65,3.83,0,.59-.76,1.13-1.51,1.13a7.75,7.75,0,0,1-1.41-.16,42.28,42.28,0,0,0-7.45-.59c-2.21,0-3.56,0-8.53.32-.7,12.53-4.54,18.2-15.61,22.9a6.22,6.22,0,0,0-.92.38,1.73,1.73,0,0,1-.43.1.47.47,0,0,1-.48-.37c.05-.27.27-.49,1-.92,9-4.81,12.58-10.91,13.12-21.87-7.18.48-13.71,1.62-14.63,2.43a3.54,3.54,0,0,1-1,.38c-.6,0-1.89-.87-3.46-2.33-1.35-1.18-1.51-1.4-1.51-1.94a7.74,7.74,0,0,1,.76-2.11l.37.33c2.06,1.94,2.38,2.1,3.89,2.1.76,0,.76,0,3.4-.21l12.26-.92c-.11-5.67-.11-6.26-.27-8.1-7.83,1.67-9,1.94-13.34,2.75a17.3,17.3,0,0,1-3.4.6c-.48,0-.75-.22-.75-.6s.21-.54,2.59-1.13c3.18-.76,10.37-2.81,15.23-4.43,5.72-1.84,7.94-2.86,7.94-3.46,0-.32-.28-.7-.92-1.29.1-.32.21-.38.54-.38a8,8,0,0,1,3,1c2.59,1.08,3.29,1.67,3.29,2.8,0,.76-.48,1.08-1.67,1.08a6.8,6.8,0,0,0-2.59.44c-2.38.65-4.38,1.19-6.05,1.56l.38.27.32.17c.43.27.6.48.6.75s-.27.7-1,1.24c-.43.33-.54.49-.54,1.35L297.43,84Z"/><path class="cls-1" d="M337.34,82.79c4.59,1.84,7.18,4.38,7.18,7.13A1.91,1.91,0,0,1,342.63,92c-1.08,0-1.35-.38-2.05-2.81a10,10,0,0,0-3.78-5.67Zm23.49-1.89.32-.16a4.89,4.89,0,0,0,.76-.32,1.89,1.89,0,0,1,.65-.17c1.08,0,4.48,3.57,4.48,4.7,0,.38-.27.59-1.46,1.08A54.67,54.67,0,0,1,359.15,96,37.07,37.07,0,0,1,344.2,107.2a13.82,13.82,0,0,1-2.92,1.08.5.5,0,0,1-.54-.49c0-.32.22-.54,1.13-1a44.52,44.52,0,0,0,8.59-5.51,42.45,42.45,0,0,0,10.15-13.39,14.21,14.21,0,0,0,1.73-4.48c0-.54-.59-1.3-1.94-2.38ZM346,80.15c4.48,1,7.94,4.32,7.94,7.5a1.82,1.82,0,0,1-1.84,1.84c-1.13,0-1.35-.27-1.94-2.11a12.17,12.17,0,0,0-4.59-6.64Z"/><path class="cls-1" d="M421,74.37a15.47,15.47,0,0,1,2.49,2l.7.65c.65.64.86.92.86,1.24s-.43.7-1.62,1c-.64.28-.7.28-1,1a77.32,77.32,0,0,1-7.18,12.15c-4.1,5.61-7.78,8.85-15,13.28-3,1.84-5,2.86-5.45,2.86a.59.59,0,0,1-.6-.54c0-.27.22-.54.76-.81,11.39-7,18.52-15.55,24.14-28.94a67.69,67.69,0,0,0-11.23,1.08l-.81-.86a55,55,0,0,1-10.37,11.93c-2.05,1.84-4.7,3.73-5.24,3.73a.46.46,0,0,1-.43-.44c0-.32.16-.48.92-1.13,3.13-2.54,7.29-7.61,10.53-12.8,1.62-2.65,4.32-7.94,4.32-8.53,0-.43-.92-1.13-2.11-1.62-.7-.27-.81-.33-.81-.54s1.94-1.19,2.65-1.19.75,0,4.37,2.27c1,.65,1.35,1,1.35,1.57s-.27.75-1.13,1.08a2.23,2.23,0,0,0-1,.75c-.05.11-.16.33-.7,1.3-.38.59-.6.92-1,1.67l2,0,3.24-.16,3.83-.22c.22,0,.71-.05,1.46-.11Z"/></g></g></svg>