<svg xmlns="http://www.w3.org/2000/svg" width="594.437" height="59.098" viewBox="0 0 594.437 59.098">
  <defs>
    <style>
      .cls-1 {
        fill: #fff;
        fill-rule: evenodd;
      }
    </style>
  </defs>
  <path id="森のキッチン_どんぐり" data-name="森のキッチン どんぐり" class="cls-1" d="M122.271,1015.43h9.343a0.889,0.889,0,0,0,.96-0.89,1.414,1.414,0,0,0-.64-1.09l-4.544-3.78-3.2,4.04h-1.919v-5.25l1.343-.64a1.3,1.3,0,0,0-.32-2.56l-6.4-.64v9.09h-4.1c-0.512,0-1.6,0-3.2-.07-0.767-.06-2.943-0.13-5.311-0.19l1.344,2.17,4.031-.12c1.344-.07,2.432-0.07,3.136-0.07h3.648c-3.008,6.79-6.4,11.39-12.607,17.03-0.832.76-1.152,1.15-1.152,1.47a0.488,0.488,0,0,0,.448.45c0.384,0,1.664-.77,4.224-2.5a50.82,50.82,0,0,0,9.535-8v12.22c0,0.96.448,1.35,1.536,1.35a6.029,6.029,0,0,0,2.624-.64,1.669,1.669,0,0,0,1.216-1.79V1021a11.417,11.417,0,0,1,3.583,4.61c1.408,3.13,1.728,3.45,3.072,3.45a2.655,2.655,0,0,0,2.816-2.68c0-2.05-1.536-4.1-3.968-5.32a16.9,16.9,0,0,0-5.5-1.4v-4.23Zm31.869-32.123-4.095,4.864H136.158v-5.5l1.407-.832a1.712,1.712,0,0,0,.832-1.344,1.314,1.314,0,0,0-1.28-1.151l-6.591-.512v9.343h-9.855c-1.216,0-3.136-.064-5.376-0.128l-7.167-.192,1.471,2.368c5.44-.256,7.552-0.32,11.072-0.32h6.591a67.282,67.282,0,0,1-21.63,17.341,1.062,1.062,0,0,0-.832.83,0.493,0.493,0,0,0,.512.45c0.9,0,5.567-1.85,9.919-4.03,5.632-2.75,8.127-4.35,15.3-9.792v11.772a1.172,1.172,0,0,0,1.28,1.35,12.865,12.865,0,0,0,3.2-.64,1.274,1.274,0,0,0,1.152-1.41V991.179c5.183,7.231,11.2,11.841,20.478,15.491,1.984-2.76,2.944-3.46,6.656-5.44-10.176-1.09-20.735-5.636-26.367-11.331H159.58a0.773,0.773,0,0,0,.832-0.832,1.2,1.2,0,0,0-.512-0.9Zm3.584,26.043-3.648,4.36H149.6v-5.32l1.215-.76a1.363,1.363,0,0,0,.7-1.16,1.114,1.114,0,0,0-1.087-1.08l-6.272-.84v9.16H142.3c-3.456-.07-5.887-0.13-8.511-0.26l0.96,2.17c4.095-.12,5.695-0.19,7.551-0.19h1.472c-3.008,6.21-7.615,11.71-14.207,17.03-1.984,1.6-2.048,1.66-2.048,2.04a0.437,0.437,0,0,0,.448.45c0.576,0,2.368-.89,5.312-2.69a55.491,55.491,0,0,0,10.879-8.51v12.8c0,0.96.32,1.35,1.152,1.35a10.368,10.368,0,0,0,3.136-.58,1.488,1.488,0,0,0,1.28-1.66v-16.45a36.493,36.493,0,0,0,9.343,14.08,12.621,12.621,0,0,1,5.311-5.19c-6.975-3.58-11.647-7.74-14.142-12.67h12.415a0.758,0.758,0,0,0,.832-0.77,1.46,1.46,0,0,0-.512-0.89Zm41.026-19.323c0.7-.064,1.152-0.064,1.344-0.064a15.343,15.343,0,0,1,6.591,1.536c5.568,2.815,8.447,8.641,8.447,17.211,0,7.87-2.623,13.7-8.191,18.24a34.216,34.216,0,0,1-11.455,5.95c-1.024.32-1.216,0.39-1.216,0.71,0,0.25.256,0.38,0.64,0.38a27.277,27.277,0,0,0,4.1-.77,39.316,39.316,0,0,0,11.839-4.35,23.579,23.579,0,0,0,11.839-20.48,19.3,19.3,0,0,0-5.056-13.5c-4.095-4.415-10.815-7.039-17.982-7.039-14.975,0-27.838,12.1-27.838,26.179a16.593,16.593,0,0,0,3.135,10.3c1.536,2.11,3.712,3.52,5.376,3.52,3.52,0,9.087-4.55,12.863-10.43a41.2,41.2,0,0,0,6.4-20.8A24.479,24.479,0,0,0,198.75,990.027Zm-3.136.256a4.079,4.079,0,0,0,.128.448,15.384,15.384,0,0,1,.384,3.583c0,5.7-2.432,12.8-6.528,19.136-2.688,4.22-6.335,7.55-8.319,7.55s-3.712-3.33-3.712-7.1a25.055,25.055,0,0,1,7.552-17.858C188.062,993.291,190.622,991.883,195.614,990.283Zm53.953,20.927c-7.935,1.86-7.935,1.86-9.727,1.86a6.749,6.749,0,0,1-3.9-1.03,0.366,0.366,0,0,0-.192-0.13,0.728,0.728,0,0,0-.448.64c0,1.92,5.12,5.57,7.808,5.57a5.07,5.07,0,0,0,2.3-.9c2.5-1.53,4.031-2.17,13.375-5.5,0.959,5.31,1.343,8.58,2.239,17.86a6.027,6.027,0,0,0,1.792,4.03c1.344,1.34,2.624,2.11,3.648,2.11a2.71,2.71,0,0,0,2.56-2.94,13.722,13.722,0,0,0-.448-2.88c-2.3-8.07-2.88-10.37-5.056-19.52,10.431-1.99,14.207-2.5,18.047-2.5l1.92,0.07c1.728,0,2.624-.52,2.624-1.41,0-1.86-4.16-4.42-7.168-4.42a4.206,4.206,0,0,0-.832.07c-3.2,2.24-3.264,2.3-15.295,5.69-0.768-3.45-1.024-4.8-1.536-7.934,8.7-2.752,9.664-3.008,11.776-3.264,1.983-.192,2.623-0.512,2.623-1.408,0-1.408-3.519-3.391-5.951-3.391-0.768,0-1.344.256-2.688,1.216a21.113,21.113,0,0,1-6.336,3.263c-0.128-1.92-.256-4.543-0.256-6.143a15.368,15.368,0,0,1,.448-3.136,4.068,4.068,0,0,0,.192-0.96c0-1.088-4.543-3.328-6.783-3.328-1.728,0-5.056,1.728-5.056,2.624,0,0.256.256,0.32,0.768,0.32,3.2,0.064,4.416,2.5,6.08,12.095-5.888,1.664-8.7,2.176-11.9,2.176a7.977,7.977,0,0,1-2.432-.32,4,4,0,0,0-1.216-.448,0.343,0.343,0,0,0-.32.32c0,0.508,1.088,1.788,2.24,2.628a9.622,9.622,0,0,0,5.183,1.79c2.048,0,3.9-.51,9.28-2.63,0.768,3.72.96,4.93,1.344,7.75-1.792.45-3.008,0.77-3.584,0.89Zm61.184-11.776c-0.384,0-.7.128-0.7,0.384a0.586,0.586,0,0,0,.448.512c2.5,1.22,4.992,4.93,6.016,9.09,0.448,1.73.96,2.37,2.048,2.37a3.413,3.413,0,0,0,3.2-3.52C321.758,1004.04,316.063,999.434,310.751,999.434Zm25.086,6.786c1.088-1.15,1.216-1.28,1.216-1.73,0-.77-1.472-2.88-3.135-4.42a6.5,6.5,0,0,0-4.608-2.108,0.871,0.871,0,0,0-1.024.64c0,0.128,0,.128.64,0.7a4.265,4.265,0,0,1,.832,2.754c0,5.05-3.456,12.54-8.512,18.62-4.8,5.76-11.775,11.2-17.6,13.63-1.6.64-1.6,0.64-1.6,0.96a0.627,0.627,0,0,0,.64.51c2.432,0,9.279-2.68,13.183-5.12C324.574,1025.16,331.422,1016.71,335.837,1006.22Zm-35-1.35c-0.64,0-.832.13-0.832,0.39a1.039,1.039,0,0,0,.7.77c2.368,1.6,4.672,4.99,5.824,8.63a1.746,1.746,0,0,0,1.727,1.41c1.664,0,2.944-1.6,2.944-3.58C311.2,1008.46,306.4,1004.87,300.832,1004.87Zm74.239-.83c-11.2,1.47-15.167,1.86-19.839,1.86-3.071,0-4.351-.32-5.055-1.35-0.32-.44-0.384-0.51-0.576-0.51-0.256,0-.512.64-0.512,1.47a6.006,6.006,0,0,0,1.472,3.4c1.408,1.4,3.711,2.62,5.055,2.62a3.07,3.07,0,0,0,1.6-.51c2.88-1.28,7.808-2.43,17.663-4.1-0.64,13.38-6.464,23.17-16.575,27.9a0.839,0.839,0,0,0-.64.58,0.437,0.437,0,0,0,.448.45,17.353,17.353,0,0,0,3.968-1.22,30.141,30.141,0,0,0,10.175-6.4c5.44-5.37,8.256-12.29,8.9-21.95,3.967-.32,7.231-0.45,9.215-0.45a76.284,76.284,0,0,1,8.767.64,9.183,9.183,0,0,0,1.152.13,1.434,1.434,0,0,0,1.536-1.28c0-.77-0.512-1.47-1.856-2.62-2.368-1.92-3.84-2.818-4.8-2.818a3.439,3.439,0,0,0-1.728.638c-1.984.96-4.288,1.47-12.031,2.69a19.509,19.509,0,0,1,.447-4.672,2.827,2.827,0,0,0,.192-0.512c0-.512-1.279-1.6-3.2-2.624-0.768-.448-0.832-0.448-1.216-0.7a69.373,69.373,0,0,0,7.3-3.135c2.624-1.216,3.456-1.856,3.456-2.688s-0.7-1.6-2.688-2.816c-3.008-1.856-4.159-2.368-5.055-2.368-0.512,0-.768.128-0.832,0.448a1.416,1.416,0,0,1,.576,1.088c0,1.472-1.472,2.944-5.376,5.376-5.44,3.391-12.287,6.463-16.895,7.551-0.7.192-.9,0.384-0.9,0.7a0.481,0.481,0,0,0,.576.448c2.944,0,10.559-1.472,15.743-3.072C374.367,996.874,374.815,999.306,375.071,1004.04Zm43.906-13.821c-2.3,0-3.9.32-3.9,0.832,0,0.192.192,0.32,0.7,0.448,3.264,0.96,7.807,5.183,9.343,8.571,0.9,1.92,1.472,2.44,2.752,2.44a3.531,3.531,0,0,0,3.52-3.4C431.392,994.7,425.184,990.219,418.977,990.219Zm41.085,0.192a1.714,1.714,0,0,0-.96.768c-3.9,5.183-13.183,14.141-21.567,20.731-6.975,5.51-12.927,8.64-16.383,8.64-1.471,0-3.327-.77-3.775-1.53-0.32-.64-0.384-0.64-0.576-0.64-0.512,0-.9,1.21-0.9,2.56,0,1.4.9,2.75,3.328,5.05,1.855,1.73,3.455,2.69,4.479,2.69a1.832,1.832,0,0,0,.9-0.38c0.448-.32.832-0.71,1.216-1.03a7.129,7.129,0,0,1,1.216-.83,95.971,95.971,0,0,0,27.262-24.77c2.688-3.644,6.208-9.787,6.208-10.811A0.544,0.544,0,0,0,460.062,990.411Zm64.768-5.632c-1.983,0-3.007.256-3.007,0.64a0.7,0.7,0,0,0,.64.512,10.631,10.631,0,0,1,5.7,4.608c1.152,1.856,1.344,1.984,2.3,1.984a2.6,2.6,0,0,0,2.816-2.56C533.278,987.275,529.182,984.779,524.83,984.779Zm-7.167,4.864c-1.6,0-2.24.128-2.24,0.512,0,0.32.192,0.512,0.96,0.7,1.664,0.448,4.16,2.943,5.184,5.247,0.64,1.344,1.152,1.728,2.112,1.728a2.5,2.5,0,0,0,2.623-2.688C526.3,992.2,522.271,989.643,517.663,989.643ZM502.3,1009.61c-8.191,3.78-12.607,8.83-12.607,14.4a10.668,10.668,0,0,0,5.44,9.02c3.263,1.86,7.743,2.82,13.375,2.82,4.927,0,11.455-.83,14.143-1.86,2.175-.77,3.007-1.6,3.007-2.81a4.906,4.906,0,0,0-4.671-4.55,10.946,10.946,0,0,0-3.392.83,39.049,39.049,0,0,1-12.031,2.24c-6.784,0-10.751-2.56-10.751-6.91,0-3.26,1.919-6.46,5.311-8.89a29.64,29.64,0,0,1,6.848-3.33,52.59,52.59,0,0,0,7.295-1.54c4.16-1.15,5.248-1.72,5.248-2.88,0-1.85-2.944-4.41-5.12-4.41a2.288,2.288,0,0,0-1.6.77c-3.007,2.62-5.823,4.35-7.039,4.35-0.768,0-1.408-1.54-1.408-3.39a54.094,54.094,0,0,1,2.048-12.931c0.768-2.56.832-2.944,0.832-4.032a4.048,4.048,0,0,0-2.112-3.392,11.023,11.023,0,0,0-5.7-1.92c-2.368,0-5.823,1.28-5.823,2.176,0,0.256.192,0.384,0.64,0.384a6.422,6.422,0,0,1,3.327,1.088c1.408,1.024,1.856,2.112,1.856,4.608,0,0.64,0,1.728-.128,3.84-0.064,1.919-.064,2.751-0.064,3.9C499.232,1003.98,499.552,1005.32,502.3,1009.61Zm67.84-5.31c-3.584,0-8.127,2.17-12.031,5.82-0.96.83-.96,0.83-1.088,0.83a0.773,0.773,0,0,1-.576-0.76c0-2.12,9.087-13.828,14.271-18.435,1.984-1.728,2.368-2.3,2.368-3.584,0-3.136-5.184-7.168-9.151-7.168-1.28,0-2.368.256-2.368,0.64,0,0.192.128,0.256,0.64,0.32,1.408,0.128,2.687,2.3,2.687,4.416,0,1.984-.767,3.712-4.223,8.895a193.166,193.166,0,0,0-10.431,18.556c-3.648,7.68-6.272,14.98-6.272,17.35a4.925,4.925,0,0,0,1.92,3.64,5.4,5.4,0,0,0,2.624,1.28,2.39,2.39,0,0,0,1.664-.89c0.448-.64.512-1.09,0.7-2.95a39.075,39.075,0,0,1,3.327-13.24c3.008-6.72,8.64-11.2,14.079-11.2a3.61,3.61,0,0,1,3.776,3.71c0,0.64-.128,1.6-0.256,2.69a95.036,95.036,0,0,0-1.408,11.07c0,5.25,3.392,8.7,8.447,8.7a15.971,15.971,0,0,0,13.951-8.13c1.344-2.3,2.688-6.14,2.688-7.74a0.414,0.414,0,0,0-.384-0.51,0.531,0.531,0,0,0-.448.38c-2.943,6.59-8.831,11.01-14.591,11.01-2.5,0-3.583-1.15-3.583-3.97,0-1.53.192-3.01,1.28-9.66a20.756,20.756,0,0,0,.384-3.58A7.783,7.783,0,0,0,570.144,1004.3Zm66.048-8.13c-0.959,0-1.791.256-1.791,0.576a0.841,0.841,0,0,0,.512.576,8.956,8.956,0,0,1,4.927,4.348c0.96,1.99,1.28,2.24,2.5,2.24a2.413,2.413,0,0,0,2.624-2.24C644.96,998.794,640.736,996.17,636.192,996.17Zm6.528-5.375c-1.664,0-2.752.32-2.752,0.768,0,0.384.256,0.512,1.152,0.768a8.929,8.929,0,0,1,5.056,4.287c0.64,1.28,1.152,1.664,2.176,1.664a2.757,2.757,0,0,0,2.815-2.56C651.167,993.227,647.008,990.8,642.72,990.8Zm-16.575-10.56c-1.792,0-3.456.448-3.456,0.96,0,0.32.128,0.384,0.7,0.512a3.735,3.735,0,0,1,2.88,3.52,5.762,5.762,0,0,1-.9,2.752C624.8,989,624.8,989,620.9,993.866c-5.632,7.364-5.632,7.364-6.272,8.384a10.551,10.551,0,0,0-1.536,4.99,10.707,10.707,0,0,0,1.088,4.42c0.576,1.09,1.216,1.98,3.84,4.99,5.5,6.4,7.935,10.43,10.623,17.6,0.832,2.49,2.176,3.65,4.224,3.65a3.983,3.983,0,0,0,3.775-4.23c0-1.73-1.152-4.29-3.263-7.23a42.627,42.627,0,0,0-6.976-7.87c-7.423-7.04-8.7-8.7-8.7-11.33,0-3.33,2.176-5.69,14.143-15.869,3.072-2.624,3.328-2.88,3.328-4.1,0-1.472-1.408-3.392-3.456-4.736C629.345,980.939,627.553,980.235,626.145,980.235Zm59.072,14.271c3.2,0,5.183,5.564,5.183,14.524,0,8.39-2.048,14.91-6.143,19.46a37.057,37.057,0,0,1-10.944,8.06c-0.96.45-1.023,0.45-1.023,0.77a0.425,0.425,0,0,0,.447.38,2.445,2.445,0,0,0,.832-0.19c0.128-.06.64-0.19,1.408-0.38a40.044,40.044,0,0,0,10.688-5.12c7.551-5.31,11.455-13.19,11.455-23.17,0-10.558-4.032-17.6-10.112-17.6-4.351,0-8.255,3.839-12.031,11.907-0.448.96-.9,1.4-1.344,1.4s-0.768-1.08-.768-2.3c0-2.752,1.152-6.4,3.52-11.135,2.048-4.1,2.3-4.736,2.3-5.824,0-2.88-4.224-6.207-7.871-6.207-1.536,0-3.136.512-3.136,0.959,0,0.192.128,0.32,0.512,0.384,2.3,0.32,3.264,1.792,3.264,4.8,0,2.176-.32,4.16-1.408,9.023a53.7,53.7,0,0,0-1.728,12.42c0,7.29,2.432,13.11,5.439,13.11a3.361,3.361,0,0,0,2.88-3.2,5.385,5.385,0,0,0-.256-1.47,16.824,16.824,0,0,1-.64-4.09C675.745,1003.34,680.8,994.506,685.217,994.506Z" transform="translate(-102.688 -978.812)"/>
</svg>
