<svg xmlns="http://www.w3.org/2000/svg" width="1025.811" height="80.87" viewBox="0 0 1025.811 80.87">
  <defs>
    <style>
      .cls-1 {
        fill: #333;
        fill-rule: evenodd;
      }
    </style>
  </defs>
  <path id="豊かな自然に囲まれたハローウッズの森にあるレストラン_森を満喫した後に_おなかも満足できる食事処です" data-name="豊かな自然に囲まれたハローウッズの森にあるレストラン 森を満喫した後に、おなかも満足できる食事処です" class="cls-1" d="M211.885,1234.94c1.512-.04,3.059-0.08,3.491-0.11,1.583-.04,2.662-0.07,3.166-0.07h24.5a0.5,0.5,0,0,0,.575-0.51,1,1,0,0,0-.539-0.75l-2.879-2.13-2.447,2.52h-6.729l2.015-3.89a0.775,0.775,0,0,0,.54-0.68h0.936v1.19c0,0.32.144,0.47,0.575,0.47,0.828,0,1.62-.47,1.62-0.9v-5.04l0.611-.15a0.428,0.428,0,0,0,.432-0.43,0.785,0.785,0,0,0-.324-0.54l-2.231-1.87-1.151,1.47H220.377l-2.2-1.25v8.78a0.442,0.442,0,0,0,.468.39,3.559,3.559,0,0,0,.972-0.28,0.739,0.739,0,0,0,.647-0.65v-1.19h0.756a2.91,2.91,0,0,1,1.152,1.73c0.143,0.68.251,1.37,0.359,2.05a2.965,2.965,0,0,0,.288.79h-4.282c-2.195-.03-2.555-0.07-7.088-0.18Zm8.384-6.48v-4.07h14.25v4.07h-14.25Zm4.282,5.43a2.617,2.617,0,0,0,.4-1.33,2.979,2.979,0,0,0-.9-2.05,8.819,8.819,0,0,0-1.584-1.19h8.348l-1.115,4.57h-5.146Zm-12.2-12.31c1.655-.03,2.915-0.07,3.526-0.11,1.512-.03,2.627-0.07,3.167-0.07h23.281c0.432,0,.612-0.11.612-0.39a0.869,0.869,0,0,0-.36-0.58l-2.771-2.34-2.159,2.45h-18.6c-0.288,0-1.727-.04-3.167-0.07l-3.886-.15Zm3.958-14.43v12.09a0.432,0.432,0,0,0,.5.51c0.936,0,1.583-.4,1.619-0.98l0.036-1h17.7v0.97a0.343,0.343,0,0,0,.4.32,5.285,5.285,0,0,0,1.187-.25,0.7,0.7,0,0,0,.576-0.61l0.036-7.45,0.72-.29a0.689,0.689,0,0,0,.5-0.54,0.994,0.994,0,0,0-.4-0.69l-2.338-1.9-1.188,1.47H231.5v-2.08l0.648-.44a0.87,0.87,0,0,0,.468-0.64c0-.36-0.324-0.58-0.972-0.65l-2.231-.18v3.99h-4.174v-2.08l0.72-.51a0.666,0.666,0,0,0,.36-0.54,0.808,0.808,0,0,0-.864-0.68l-2.339-.25v4.06h-4.354Zm2.159,9.75v-3.45h4.642v3.45H218.47Zm0-4.32v-2.91h4.642v2.91H218.47Zm6.765,4.32v-3.45h4.174v3.45h-4.174Zm0-4.32v-2.91h4.174v2.91h-4.174Zm6.261,4.32v-3.45h4.678v3.45H231.5Zm0-4.32v-2.91h4.678v2.91H231.5Zm48.438,9.54a4.464,4.464,0,0,1,2.411.65,1.273,1.273,0,0,0,.936.47c0.9,0,1.511-1.01,1.511-2.49,0-4.03-3.562-7.34-7.916-7.34-0.936,0-1.439.11-1.439,0.32,0,0.08.072,0.11,0.18,0.11a6.267,6.267,0,0,1,2.482.69c2.231,1.04,3.923,3.31,3.923,5.29,0,0.54-.288.83-1.188,1.11a17.634,17.634,0,0,1-2.663.65c-0.431.07-.539,0.15-0.539,0.36a0.252,0.252,0,0,0,.287.25,1.974,1.974,0,0,0,.36-0.03Zm-14.249-7.02a32.381,32.381,0,0,0,1.116-5.54c0-.9-1.871-2.05-3.383-2.05-0.647,0-2.015.68-1.979,1a0.19,0.19,0,0,0,.18.15,0.638,0.638,0,0,0,.252-0.04,0.317,0.317,0,0,1,.144-0.03,3.529,3.529,0,0,1,1.367.39,2.268,2.268,0,0,1,.864,2.05c0,0.54-.4,3.6-0.576,4.5a32.738,32.738,0,0,1-5.973,1.3,1.547,1.547,0,0,1-1.547-.94,0.448,0.448,0,0,0-.36-0.36c-0.18,0-.288.22-0.288,0.58,0,1.58,1.008,3.06,2.123,3.06a2.936,2.936,0,0,0,1.259-.4q2.538-1.08,4.534-1.83c-1.943,5.9-4.678,10.9-7.52,13.71a1.531,1.531,0,0,0-.576,1.08,1.3,1.3,0,0,0,1.4,1.33c1.116,0,1.692-.64,3.491-4.03a81.661,81.661,0,0,0,5.145-12.78,9.927,9.927,0,0,1,3.167-.75c1.367,0,2.087,1.26,2.087,3.63a22.464,22.464,0,0,1-1.116,7.09c-0.755,2.24-1.763,3.39-2.986,3.39-0.684,0-1.655-.61-2.915-1.84a1.2,1.2,0,0,0-.576-0.39,0.325,0.325,0,0,0-.215.32,1.471,1.471,0,0,0,.5.79c1.3,1.59,1.656,2.2,1.835,3.39,0.072,0.64.18,0.79,0.684,0.79a5.738,5.738,0,0,0,3.958-1.95c1.655-2.01,2.843-6.37,2.843-10.29a8.966,8.966,0,0,0-.756-4.25,3.649,3.649,0,0,0-3.094-1.65A11.154,11.154,0,0,0,265.685,1215.1Zm39.37-5.65,0.144-.61c1.224,0.86,1.584,1.19,1.584,1.4,0,0.36-.792.87-2.3,1.44,0.144-.5.252-0.86,0.288-1.01Zm5.614,19.69a9.535,9.535,0,0,1-.072,1.3,2.834,2.834,0,0,1-3.2,2.7c-2.051,0-3.634-.9-3.634-2.13,0-1.51,1.367-2.52,3.418-2.52A8.468,8.468,0,0,1,310.669,1229.14Zm-6.657-15.33c3.31-1.01,5.073-2.13,5.073-3.24a1.1,1.1,0,0,0-1.187-.94c-0.612-.04-0.684-0.07-2.591-1.12,0.216-.75.324-1.15,0.324-1.22,0-.86-1.187-1.62-2.519-1.62-0.755,0-1.907.47-1.907,0.79a0.164,0.164,0,0,0,.18.15c1.367,0.03,1.943.57,1.943,1.76a15.44,15.44,0,0,1-.576,3.82,18.109,18.109,0,0,1-3.958.68,3.772,3.772,0,0,1-3.274-1.62c-0.108-.22-0.108-0.22-0.18-0.22a0.174,0.174,0,0,0-.18.18,5.106,5.106,0,0,0,.54,1.44,3.278,3.278,0,0,0,2.986,2.06,16.729,16.729,0,0,0,3.455-.51c-1.188,3.78-5.11,10.4-7.125,12.1a1.531,1.531,0,0,0-.612,1.11,1.346,1.346,0,0,0,1.584,1.15c1.115,0,1.547-.43,2.7-2.52A106.77,106.77,0,0,0,304.012,1213.81Zm6.693,13.64a17.585,17.585,0,0,0-2.375-.15c-3.778,0-6.045,1.48-6.045,3.93,0,2.27,2.159,3.74,5.469,3.74,1.871,0,3.275-.5,4.066-1.51a4.49,4.49,0,0,0,1.008-3.31v-0.33a12.93,12.93,0,0,1,3.958,3.14,1.856,1.856,0,0,0,1.439.86,1.253,1.253,0,0,0,1.3-1.22c0-1.52-2.483-3.28-6.657-4.68-0.072-1.12-.072-1.34-0.288-3.24a29.215,29.215,0,0,1-.252-2.95c0-2.6,1.367-3.89,4.03-3.89a6.638,6.638,0,0,1,2.3.39,1.744,1.744,0,0,0,.54.11,0.845,0.845,0,0,0,.863-0.97c0-2.12-2.626-3.89-5.757-3.89-1.4,0-3.346.61-3.346,1.01a0.283,0.283,0,0,0,.251.29,0.358,0.358,0,0,0,.18-0.04,5.418,5.418,0,0,1,1.656-.21c1.871,0,3.6.79,3.6,1.62a0.77,0.77,0,0,1-.756.64c-3.814,1.05-5.253,2.78-5.253,6.3,0,0.25,0,.76.036,1.44Zm27.172-19.37v28.12a0.509,0.509,0,0,0,.612.5,3.337,3.337,0,0,0,1.223-.29,0.751,0.751,0,0,0,.648-0.79v-1.87h17.02v2.12a0.525,0.525,0,0,0,.648.51,3.354,3.354,0,0,0,1.511-.44,0.641,0.641,0,0,0,.36-0.64v-23.15l0.611-.18a0.892,0.892,0,0,0,.648-0.65,1.115,1.115,0,0,0-.324-0.65l-2.375-2.41-1.043,1.73h-10l1.475-3.67,0.684-.4a0.969,0.969,0,0,0,.683-0.79,0.736,0.736,0,0,0-.539-0.65l-3.383-.72a54.849,54.849,0,0,1-.54,6.23H340.9Zm2.483,17.06v-6.8h17.02v6.8H340.36Zm0-7.66v-6.63h17.02v6.63H340.36Zm0,15.4v-6.87h17.02v6.87H340.36Zm39.91-28.5a43.737,43.737,0,0,1-5.433,17.81,0.593,0.593,0,0,0-.108.29,0.315,0.315,0,0,0,.324.29c0.324,0,1.151-1.15,3.238-4.5a6.312,6.312,0,0,1,2.159,2.7c0.72,1.51.72,1.55,1.548,1.8a19.838,19.838,0,0,1-5.866,5.04c-1.259.68-1.259,0.68-1.259,0.9a0.364,0.364,0,0,0,.4.32,5.2,5.2,0,0,0,1.8-.68,19.722,19.722,0,0,0,5.109-3.42c2.555-2.3,4.282-5.18,5.794-9.61h6.081a15.9,15.9,0,0,1-8.744,12.27,0.77,0.77,0,0,0-.54.54,0.371,0.371,0,0,0,.4.33c1.08,0,4.714-2.2,6.585-4,2.483-2.34,3.6-4.57,4.354-8.35,0.863,3.85,4.642,8.82,8.78,11.55a7.447,7.447,0,0,1,1.583-1.58c0.18-.18.4-0.32,0.576-0.47,0.036-.03.288-0.21,0.539-0.39-5.289-1.98-9.139-5.55-10.759-9.9h9.752a0.48,0.48,0,0,0,.468-0.47,0.974,0.974,0,0,0-.4-0.65l-2.735-1.87-1.979,2.12h-5.541a63.338,63.338,0,0,0,.467-7.66l0.792-.54a1.144,1.144,0,0,0,.72-0.87c0-.5-0.36-0.72-1.188-0.79l-2.77-.25c0.036,1.94.036,3.24,0.036,4.39a44.59,44.59,0,0,1-.288,5.72h-5.9l0.647-2.52,0.72-.28a0.7,0.7,0,0,0,.612-0.54,1.266,1.266,0,0,0-.432-0.76l-1.943-1.94-1.116,1.51H381.71c0.359-1.44.431-1.66,0.755-3.03l0.792-.5a0.762,0.762,0,0,0,.5-0.68,0.743,0.743,0,0,0-.72-0.69Zm-1.691,13.53a33.157,33.157,0,0,0,1.691-3.64,7.73,7.73,0,0,1,2.987,2.88,1.647,1.647,0,0,0,1.367.98,21,21,0,0,1-1.763,3.45C382.825,1219.75,381.53,1218.63,378.579,1217.91Zm8.168-7.13a36.613,36.613,0,0,1-1.4,5.51c-0.972-1.69-1.907-2.23-4.822-2.66,0.5-1.41.576-1.62,0.972-2.85h5.253Zm-7.16,17.89a5.8,5.8,0,0,1-1.656,3.49c-1.655,1.37-1.655,1.37-1.8,1.52a1.612,1.612,0,0,0-.468,1.11,1.2,1.2,0,0,0,1.368,1.12c1.871,0,3.382-2.45,3.382-5.44a8.618,8.618,0,0,0-.252-1.83Zm5.325,1.12a4.921,4.921,0,0,1,1.475,2.91c0.4,2.74.4,2.74,0.54,3.03a1.272,1.272,0,0,0,1.044.54,1.557,1.557,0,0,0,1.439-1.8c0-1.87-1.655-3.85-4.21-5.04Zm7.161-.33c1.763,1.44,2.231,2.24,2.842,4.97,0.18,0.9.468,1.19,1.188,1.19a1.393,1.393,0,0,0,1.511-1.48c0-1.98-1.907-3.81-5.325-5.04Zm5.9-20.87c1.187,1,1.223,1.11,2.087,3.2a1.367,1.367,0,0,0,1.223,1.12,1.208,1.208,0,0,0,1.188-1.23,3.64,3.64,0,0,0-2.015-2.77,8.924,8.924,0,0,0-2.3-.79Zm1.331,20.3a8.768,8.768,0,0,1,3.131,3.74c0.756,1.84.863,2.09,1.079,2.27a1.333,1.333,0,0,0,.972.43,1.462,1.462,0,0,0,1.4-1.55c0-1.9-2.447-3.99-6.369-5.43Zm42.286-17.14a1.084,1.084,0,0,0-.576.18,16.192,16.192,0,0,1-6.225,1.34,3.394,3.394,0,0,1-2.879-1.08,0.238,0.238,0,0,0-.216-0.18,0.163,0.163,0,0,0-.18.14,2.064,2.064,0,0,0,.288.76,5.2,5.2,0,0,0,4.606,2.12,51.083,51.083,0,0,0,5.937-.43c0.9-.11,1.368-0.43,1.368-0.87A2.892,2.892,0,0,0,441.591,1211.75Zm-9.5,11.31a0.2,0.2,0,0,0-.216-0.15c-0.432,0-.719.94-0.719,2.41a5.311,5.311,0,0,0,2.482,4.54c1.3,0.79,3.887,1.26,7.053,1.26,3.454,0,5.29-.68,5.29-1.94a1.491,1.491,0,0,0-1.62-1.44,4.236,4.236,0,0,0-1.259.25,19.016,19.016,0,0,1-4.822.65c-4.21,0-6.333-1.48-6.333-4.36a3.147,3.147,0,0,1,.144-1.12v-0.1Zm-7.844,4.46c-0.252.76-.432,1.01-0.792,1.01-0.576,0-1.007-1.62-1.007-3.96a18.381,18.381,0,0,1,1.727-7.42c1.439-3.63,1.547-3.99,1.547-5.11a4.049,4.049,0,0,0-1.619-3.27,4.227,4.227,0,0,0-2.051-.94c-0.144,0-.216.04-0.216,0.11a0.217,0.217,0,0,0,.144.18,3.562,3.562,0,0,1,1.115,2.95,16.994,16.994,0,0,1-.683,4.1c-1.188,5.15-1.548,7.38-1.548,9.61,0,4.79,1.908,9.4,3.851,9.4a1.194,1.194,0,0,0,1.079-1.3,1.615,1.615,0,0,0-.144-0.61,5.157,5.157,0,0,1-.4-2.05,33.34,33.34,0,0,1,1.835-8.96,0.4,0.4,0,0,0,.036-0.18,0.346,0.346,0,0,0-.287-0.33c-0.18,0-.18,0-1.512,3.53Zm39.37-5.9,0.36,1.11,5.83-.1c-0.216,4.06-1.332,6.4-3.959,8.38-1.115.79-1.115,0.79-1.115,1.01a0.355,0.355,0,0,0,.324.36c0.611,0,2.663-1.33,3.922-2.56,1.871-1.8,2.591-3.6,2.951-7.19h4.785v8.85a0.548,0.548,0,0,0,.612.61,2.714,2.714,0,0,0,1.223-.36,0.5,0.5,0,0,0,.432-0.57v-8.53h5.65c0.359,0,.539-0.11.539-0.36a1.006,1.006,0,0,0-.432-0.65l-2.338-1.98-1.728,2.12h-1.691v-6.23h5.146a0.54,0.54,0,0,0,.5-0.5,0.661,0.661,0,0,0-.288-0.5l-2.411-2.02-1.655,2.16h-1.3v-4.61l0.468-.25a0.875,0.875,0,0,0,.648-0.83,0.649,0.649,0,0,0-.648-0.65l-2.735-.28v6.62H471.93v-4.64l0.5-.33a0.977,0.977,0,0,0,.576-0.75,0.675,0.675,0,0,0-.684-0.65l-2.518-.29v6.66l-5.758-.14,0.324,1.11,5.434-.11v6.23Zm8.313,0.14v-6.23h4.785v6.23H471.93Zm-11.515-17.35v31.68c0,0.39.108,0.54,0.36,0.54a7.043,7.043,0,0,0,1.547-.36c0.432-.15.54-0.25,0.54-0.54v-1.8h22.885v1.91a0.4,0.4,0,0,0,.468.46,7.174,7.174,0,0,0,1.511-.39c0.4-.15.5-0.25,0.5-0.54v-27.29l0.576-.25a0.7,0.7,0,0,0,.359-0.61,1.109,1.109,0,0,0-.431-0.79l-2.483-2.05-1.044,1.62H463.114Zm2.447,28.65v-26.2h22.885v26.2H462.862Zm53.152-3.6c-0.072,2.45-1.044,3.39-3.562,3.39-2.375,0-3.923-.76-3.923-1.91,0-1.3,1.764-2.12,4.57-2.12a10.955,10.955,0,0,1,2.915.39v0.25Zm-0.036-1.54a16.294,16.294,0,0,0-2.879-.29c-3.742,0-6.369,1.44-6.369,3.49,0,2.12,2.339,3.49,5.937,3.49a6.271,6.271,0,0,0,4.57-1.62,3.624,3.624,0,0,0,1.116-2.91,13.568,13.568,0,0,1,4.893,3.96,1,1,0,0,0,.792.5,1.29,1.29,0,0,0,1.3-1.37c0-1.55-3.131-3.63-7.161-4.82-0.288-2.27-.54-5.22-0.576-6.34,5.146-1.08,7.916-2.34,7.916-3.63a0.6,0.6,0,0,0-.539-0.69,6.439,6.439,0,0,1-3.671-1.26,1.43,1.43,0,0,0-.467-0.25,0.275,0.275,0,0,0-.216.25,0.3,0.3,0,0,0,.18.26,4.278,4.278,0,0,1,1.4,1.36c0,0.65-1.835,1.52-4.678,2.16-0.072-2.16-.072-2.8-0.072-5.32,3.2-.69,4.138-1.08,4.138-1.59,0-.47-0.791-1.11-1.763-1.37-0.252.4-.756,0.62-2.3,0.98a10.846,10.846,0,0,1,.9-4.47,1.872,1.872,0,0,0,.252-0.68,1.612,1.612,0,0,0-1.152-1.01,11.536,11.536,0,0,0-2.878-.72,2.288,2.288,0,0,0-1.548.76,0.176,0.176,0,0,0-.072.1,0.123,0.123,0,0,0-.072.04,0.248,0.248,0,0,0,.18.11c1.979,0.11,2.339.54,2.375,2.73v1.19c0,0.15.036,0.69,0.072,1.51l0.036,0.8a11.343,11.343,0,0,1-2.375.25c-1.691,0-2.555-.51-2.878-1.69-0.036-.08-0.036-0.11-0.072-0.11a0.411,0.411,0,0,0-.252.47,3.113,3.113,0,0,0,3.166,3.2,18.275,18.275,0,0,0,2.519-.22c0.108,1.52.144,3.42,0.144,5.33a22.954,22.954,0,0,1-3.2.25c-3.418,0-5.361-.72-6.153-2.23a0.326,0.326,0,0,0-.18-0.21c-0.215,0-.287.1-0.287,0.36,0,2.73,1.907,3.85,6.4,3.85a25.678,25.678,0,0,0,3.454-.22v1.19c0,0.39,0,.93.036,1.58v1.48Zm34.189-6.37-1.043,1.76-0.468.79-0.144-.36c-0.54-1.33-.612-1.51-0.828-2.01a5,5,0,0,1-.647-2.13,2.15,2.15,0,0,1,1.079-1.91,6.907,6.907,0,0,1,2.339-1.11,0.726,0.726,0,0,1,.612.39,6.291,6.291,0,0,0-.036.72c-0.036.47-.036,0.76-0.036,0.9,0,0.29,0,.4.072,1.44Zm1.151-.08c0.072,2.38.108,3.57,0.108,6.12,0,2.09-.036,2.45-0.251,2.45-0.108,0-.144-0.04-0.216-0.36-0.684-1.91-.756-2.09-1.656-4.32,0.324-.68.684-1.37,1.044-2.05Zm1.368-1.69c4.426-4.79,6.945-6.59,9.247-6.59,1.332,0,2.159,1.05,2.159,2.81a20.292,20.292,0,0,1-.323,2.85c-0.5,3.31-.9,6.8-0.9,7.88,0,3.09,1.367,4.89,3.706,4.89a7.745,7.745,0,0,0,5.758-2.98,10.474,10.474,0,0,0,1.943-4,0.629,0.629,0,0,0-.468-0.58,0.559,0.559,0,0,0-.36.44c-1.295,3.02-3.562,4.75-6.225,4.75a1.931,1.931,0,0,1-2.159-2.23,58.528,58.528,0,0,1,1.367-8.82,11.371,11.371,0,0,0,.4-2.7c0-2.27-1.763-3.85-4.282-3.85-2.627,0-5.073,1.58-9.463,6.15,0.18-.5.216-0.68,0.252-0.79a4.383,4.383,0,0,0,.359-1.44,0.97,0.97,0,0,0-.9-1.01,23.254,23.254,0,0,1,.863-5.04,1.192,1.192,0,0,0,.18-0.57c0-.69-2.339-2.13-3.526-2.13-0.612,0-2.051.69-2.051,1.01,0,0.14.036,0.14,0.324,0.14,2.2,0.22,2.411.72,2.483,5.73v0.79a17.7,17.7,0,0,0-3.563,1.84c-1.8,1.15-2.339,1.8-2.339,2.77,0,0.75.288,1.47,1.224,3.02,0.719,1.19.971,1.62,1.511,2.66-1.4,2.06-1.763,2.6-2.159,3.14-0.827,1.08-1.043,1.44-1.043,1.98a8.487,8.487,0,0,0,.539,2.08,0.965,0.965,0,0,0,.792.69,0.978,0.978,0,0,0,.864-0.58,3.565,3.565,0,0,0,.251-1.04,19.121,19.121,0,0,1,1.62-4.75,22.175,22.175,0,0,1,1.8,7.34c0.072,0.9.18,1.19,0.5,1.19a2.848,2.848,0,0,0,1.187-.43,1.571,1.571,0,0,0,.936-1.3,3.155,3.155,0,0,0-.036-0.54c-0.36-4.97-.468-7.42-0.468-10.37v-2.41Zm43.8-5.51c0.18-.82.18-1,0.288-1.54,0.144-.8.252-1.3,0.288-1.48a4.629,4.629,0,0,1,.144-0.58c1.547,1.19,2.015,1.62,2.015,1.88C599.217,1212.87,597.922,1213.66,596.482,1214.27Zm-3.49-6.12a3.944,3.944,0,0,1,.612-0.03c1.187,0,1.619.5,1.619,1.91a25.522,25.522,0,0,1-.54,4.78,20.148,20.148,0,0,1-5.253,1.05,3.06,3.06,0,0,1-2.915-1.51,0.383,0.383,0,0,0-.288-0.26,0.188,0.188,0,0,0-.144.22,3.764,3.764,0,0,0,3.419,3.6,17.785,17.785,0,0,0,4.785-1.22c-1.187,5.43-3.958,12.77-5.721,15.19a2.854,2.854,0,0,0-.612,1.51,1.56,1.56,0,0,0,1.692,1.37c0.971,0,1.511-.69,2.2-2.78a129.162,129.162,0,0,0,4.318-15.94c4.282-1.73,5.649-2.63,5.649-3.67a0.572,0.572,0,0,0-.5-0.62,0.358,0.358,0,0,0-.18.04h-0.18c-0.683,0-1.691-.43-3.634-1.55,0.18-.83.324-1.29,0.468-1.76a1.627,1.627,0,0,0,.072-0.36c0-.58-1.548-1.37-2.591-1.37-0.864,0-2.519.86-2.519,1.3a0.164,0.164,0,0,0,.144.1h0.108Zm14.213,7.35a6.923,6.923,0,0,0-4.21,1.33,2.037,2.037,0,0,0-.575.68,0.19,0.19,0,0,0,.18.15,0.332,0.332,0,0,0,.215-0.11,5.5,5.5,0,0,1,2.879-.72c1.475,0,2.951.47,2.951,0.9,0,0.18-.216.32-1.332,0.9a5.6,5.6,0,0,0-1.8,1.15,0.234,0.234,0,0,0,.18.18,0.317,0.317,0,0,0,.144-0.03,10.171,10.171,0,0,1,3.49-.83,4.921,4.921,0,0,1,2.015.43,0.556,0.556,0,0,0,.36.11,0.87,0.87,0,0,0,.756-1.01C612.459,1216.97,610.012,1215.5,607.205,1215.5Zm-5.685,8.78c-0.468,0-1.223,2.41-1.223,3.89,0,3.63,2.842,5.36,8.923,5.36,3.1,0,4.174-.39,4.174-1.58a1.457,1.457,0,0,0-1.439-1.37,3.117,3.117,0,0,0-.648.11,13.743,13.743,0,0,1-3.6.36c-4.534,0-6.369-1.15-6.369-4.03a7.623,7.623,0,0,1,.36-2.27,0.7,0.7,0,0,0,.036-0.25A0.234,0.234,0,0,0,601.52,1224.28Zm42.069-10.33a0.378,0.378,0,0,0-.4.25c0,0.15.072,0.18,0.359,0.33,3.383,1.58,6.549,5.68,7.989,10.36,0.431,1.44.755,1.84,1.4,1.84a1.781,1.781,0,0,0,1.763-1.91c0-2.3-2.267-5.69-5.613-8.21C647.3,1215.25,644.669,1213.95,643.589,1213.95Zm-8.312.94a0.446,0.446,0,0,0-.539.36,0.216,0.216,0,0,0,.179.21,2.342,2.342,0,0,1,1.44,1.77c0,1.08-1.583,3.81-3.455,5.93a23.748,23.748,0,0,1-6.908,5.26c-0.576.29-.576,0.29-0.576,0.4a0.388,0.388,0,0,0,.4.32,15.909,15.909,0,0,0,2.555-.83,23.443,23.443,0,0,0,10-8.42,3.656,3.656,0,0,1,1.3-1.44,0.7,0.7,0,0,0,.432-0.58c0-.43-0.756-1.22-1.871-1.9A7.869,7.869,0,0,0,635.277,1214.89ZM682.636,1225c-0.144,0-.828.07-2.087,0.22-4.066.46-4.318,0.5-7.089,0.72-0.144-2.09-.756-7.45-1.008-9.18a101.3,101.3,0,0,1,11.407-1.55,0.935,0.935,0,0,1,1.08.94,4.565,4.565,0,0,1-.036.68c-0.036.07-.072,0.58-0.144,1.3-0.144,1.36-.54,3.92-1.008,6.65-0.288.08-.54,0.15-0.576,0.15Zm-11.407,2.27c-0.036.54-.036,0.83-0.036,1.01a1.913,1.913,0,0,0,1.547,1.58c0.54,0,.828-0.54.828-1.48v-0.86a15.081,15.081,0,0,1,3.418-.58c2.7-.28,5.074-0.46,5.973-0.46a26.167,26.167,0,0,1,3.563.28,1.67,1.67,0,0,0,.324.08,0.488,0.488,0,0,0,.323-0.54c0-.33,0-0.33-1.4-1.37a66.1,66.1,0,0,1,1.907-7.24,2.4,2.4,0,0,1,1.3-1.47,0.875,0.875,0,0,0,.467-0.58c0-.5-2.518-2.95-3.058-2.95a1.947,1.947,0,0,0-.936.36,6.513,6.513,0,0,1-2.842.94c-4.462.68-7.881,1.08-10.543,1.26a3.879,3.879,0,0,0-2.807-1.66,2.463,2.463,0,0,0-1.583.4,0.238,0.238,0,0,0,.288.25,2.389,2.389,0,0,1,1.871,2.09,77.279,77.279,0,0,1,1.4,10.69v0.25Zm53.116-5.51c1.151,0,4.462.07,5.109,0.11,0.612,0.04,1.044.04,1.26,0.04,1.115,0,1.8-.33,1.8-0.83a2.241,2.241,0,0,0-.9-1.3,2.335,2.335,0,0,0-1.8-.75,9.075,9.075,0,0,0-.971.07,162.015,162.015,0,0,1-19.935,1.44c-2.015,0-2.807-.33-3.31-1.37a0.326,0.326,0,0,0-.288-0.25,0.319,0.319,0,0,0-.252.39,9.214,9.214,0,0,0,.252,1.95,4.13,4.13,0,0,0,3.022,1.87,7.282,7.282,0,0,0,1.584-.25A94.237,94.237,0,0,1,724.345,1221.76Zm36.744-8.21a10.857,10.857,0,0,1,1.043-4.14,0.945,0.945,0,0,0,.18-0.54,1.049,1.049,0,0,0-.755-0.82,5.568,5.568,0,0,0-2.483-.9c-0.792,0-2.231.64-2.231,1,0,0.15.108,0.18,0.324,0.22,1.835,0.14,2.051.5,2.051,3.67,0,0.29,0,.94-0.036,1.69-1.692.15-3.239,0.29-4.678,0.47-0.432.07-.756,0.11-0.792,0.11l-0.324.04a5.373,5.373,0,0,0-3.058-1.55c-0.648,0-1.08.11-1.08,0.32a0.3,0.3,0,0,0,.288.25,2.309,2.309,0,0,1,1.8,1.8,30.049,30.049,0,0,1,.9,6.59v0.61a5.94,5.94,0,0,0-.036.72c0,0.72.252,0.87,1.619,0.87,0.756,0,1.08-.26,1.08-0.87,0-.32-0.036-0.61-0.828-5.43l-0.216-1.44c0.252-.58.828-0.76,3.059-1.15,2.267-.36,7.988-0.98,9.319-0.98,0.612,0,1.008.22,1.008,0.51a2.005,2.005,0,0,1-.108.61,9.629,9.629,0,0,0-.216.94,27.592,27.592,0,0,1-10.831,14.65,23.366,23.366,0,0,1-5.721,2.84,0.244,0.244,0,0,0-.252.22,0.44,0.44,0,0,0,.432.32c0.108,0,1.007-.22,1.511-0.32a23.675,23.675,0,0,0,6.369-2.99c5.182-3.31,8.024-7.02,11.874-15.48,1.044-.68,1.044-0.68,1.044-0.9a2.709,2.709,0,0,0-1.08-1.19c-0.5-.43-0.827-0.72-0.9-0.79a1.361,1.361,0,0,0-.864-0.47,2.509,2.509,0,0,0-1.295.47,8.671,8.671,0,0,1-3.2.76c-0.683.07-1.331,0.14-2.015,0.18Zm28.934,1.98a0.273,0.273,0,0,0-.323.22,0.341,0.341,0,0,0,.216.25c1.187,0.47,2.77,2.99,3.094,4.86a0.821,0.821,0,0,0,.9.79,1.419,1.419,0,0,0,1.3-1.44C795.205,1218.16,792.29,1215.53,790.023,1215.53Zm-3.778,19.26c6.621-1.47,13.782-8.06,16.984-15.51,0.72-.54.864-0.69,0.864-1.01,0-.29-0.36-0.79-1.511-1.98a2.544,2.544,0,0,0-2.016-1.01c-0.611,0-1.007.15-1.007,0.36,0,0.15.036,0.18,0.288,0.25a1.443,1.443,0,0,1,.971,1.37,15.352,15.352,0,0,1-.539,2.52,19.855,19.855,0,0,1-2.159,4.28,29.29,29.29,0,0,1-7.917,7.74,24.837,24.837,0,0,1-5.181,2.7c-0.144.04-.216,0.08-0.216,0.15a0.457,0.457,0,0,0,.432.39,1.489,1.489,0,0,0,.324-0.07Zm-1.655-16.48a0.443,0.443,0,0,0-.468.21c0,0.15.072,0.22,0.432,0.36,1.08,0.4,2.591,2.38,3.023,3.96,0.251,0.97.467,1.22,1.079,1.22a1.307,1.307,0,0,0,1.224-1.47,3.7,3.7,0,0,0-1.8-2.84A6.644,6.644,0,0,0,784.59,1218.31Zm56.786-11.49a1.354,1.354,0,0,0-1.08.29c0,0.07.072,0.11,0.288,0.18a6.209,6.209,0,0,1,3.239,2.63,1.1,1.1,0,0,0,1.115.86,1.23,1.23,0,0,0,1.116-1.15C846.054,1208.23,843.751,1206.82,841.376,1206.82Zm-3.922,1.62a1.046,1.046,0,0,0-.936.25c0,0.08.072,0.11,0.288,0.18a6.119,6.119,0,0,1,3.31,2.85,0.959,0.959,0,0,0,.936.61,1.2,1.2,0,0,0,1.079-1.15C842.131,1209.74,839.9,1208.44,837.454,1208.44Zm-5.29,13.11a48.7,48.7,0,0,0,4.642-7.6c0.36-.29.5-0.36,0.756-0.54a0.606,0.606,0,0,0,.395-0.43c0-.25-0.18-0.43-1.115-1.15-1.3-1.01-1.691-1.26-2.051-1.26a0.8,0.8,0,0,0-.54.21,7.249,7.249,0,0,1-2.771,1.12,55.233,55.233,0,0,1-6.656,1.04c-1.224,0-2.267-.39-2.483-0.9a0.224,0.224,0,0,0-.18-0.18c-0.216,0-.324.29-0.324,0.97a1.654,1.654,0,0,0,.9,1.62c1.115,0.83,1.115.83,1.439,0.83a2.906,2.906,0,0,0,.791-0.21,35.969,35.969,0,0,1,8.205-2.2,0.548,0.548,0,0,1,.611.5,10.276,10.276,0,0,1-1.259,3.17,31.866,31.866,0,0,1-4.822,7.38c-3.094,3.49-7.412,6.7-10.723,7.96-0.54.18-.647,0.25-0.647,0.43a0.507,0.507,0,0,0,.5.39,17.981,17.981,0,0,0,4.57-1.8,27.988,27.988,0,0,0,10.327-8.78,14,14,0,0,1,7.2,7.74c0.432,1.19.863,1.62,1.583,1.62a1.645,1.645,0,0,0,1.511-1.8c0-1.51-1.043-3.13-3.094-4.75A15.729,15.729,0,0,0,832.164,1221.55Zm39.587-10.19s0.036,0.07.108,0.25a7.079,7.079,0,0,1,.431,2.3,21.809,21.809,0,0,1-2.447,8.18c-1.655,3.2-4.461,6.01-5.973,6.01-1.295,0-2.267-1.91-2.267-4.5A12.3,12.3,0,0,1,871.751,1211.36Zm1.655-.15a2.5,2.5,0,0,1,.36-0.03h0.323a9.222,9.222,0,0,1,5.4,1.8c1.943,1.51,2.951,3.85,2.951,7.02a12.488,12.488,0,0,1-3.959,9.64,15.849,15.849,0,0,1-6.549,3.42c-0.467.11-.575,0.18-0.575,0.26a0.4,0.4,0,0,0,.432.32,20.859,20.859,0,0,0,4.749-1.15c5.47-1.98,8.708-6.41,8.708-11.88,0-6.19-4.75-10.48-11.586-10.48-7.773,0-14.106,6.02-14.106,13.36a7.848,7.848,0,0,0,1.8,5.43,3.158,3.158,0,0,0,2.411,1.34c1.763,0,3.635-1.3,5.65-3.86a18.991,18.991,0,0,0,4.21-10.97,33.992,33.992,0,0,0-.5-4.22h0.288Zm31.31,13.03a28.882,28.882,0,0,1-6.3,8.79,1.778,1.778,0,0,0-.863.93,0.358,0.358,0,0,0,.359.36,7.836,7.836,0,0,0,2.771-1.83,31.292,31.292,0,0,0,4.642-4.93v8.38c0,0.4.108,0.58,0.432,0.58,0.935,0,1.727-.47,1.727-1.01v-8.06a5.838,5.838,0,0,1,2.3,2.16,12.951,12.951,0,0,0,1.115,1.8,1.327,1.327,0,0,0,.756.29,1.308,1.308,0,0,0,1.223-1.3,3.228,3.228,0,0,0-1.835-2.63,12.778,12.778,0,0,0-3.562-1.33v-2.2h5.5a0.459,0.459,0,0,0,.432-0.43,1.138,1.138,0,0,0-.432-0.72l-2.411-1.9-1.655,2.19h-1.439v-3.06l0.828-.39a0.941,0.941,0,0,0,.539-0.76,0.765,0.765,0,0,0-.827-0.68l-2.7-.22v5.11h-2.3c-1.007-.04-2.195-0.07-4.822-0.18l0.432,1.15c1.044-.03,1.943-0.03,2.267-0.03,1.116-.04,1.871-0.08,2.195-0.08h1.619Zm6.333-14.61a35.143,35.143,0,0,1-9.463,7.78c-2.339,1.33-2.7,1.58-2.7,1.76a0.315,0.315,0,0,0,.288.29,27.077,27.077,0,0,0,4.678-2.16,44.372,44.372,0,0,0,9.211-6.23v8.5a0.453,0.453,0,0,0,.5.54c0.972,0,1.691-.4,1.691-0.9v-9.08c2.915,3.93,6.621,6.59,12.234,8.82a7,7,0,0,1,2.447-2.77c-6.189-1.08-10.327-3.02-14.069-6.55h12.414c0.4,0,.576-0.14.576-0.43a1.083,1.083,0,0,0-.468-0.69l-2.555-2.01-1.943,2.27h-8.636v-2.59l0.864-.69a0.829,0.829,0,0,0,.288-0.65c0-.39-0.252-0.57-0.756-0.61l-2.591-.11v4.65h-5.937c-0.612,0-1.8-.04-3.562-0.11-0.54,0-1.871-.04-3.527-0.11l0.54,1.26c1.4-.04,2.7-0.04,3.131-0.07,1.907-.07,3.2-0.11,3.418-0.11h3.922Zm8.888,14.61a49.774,49.774,0,0,1-7.7,9.36c-1.188,1.01-1.188,1.01-1.188,1.16a0.345,0.345,0,0,0,.288.32c0.36,0,1.727-.97,3.742-2.63a48.131,48.131,0,0,0,5.506-5.4v8.89a0.421,0.421,0,0,0,.468.51c1.079,0,1.619-.25,1.619-0.76v-9.57a19.361,19.361,0,0,0,6.225,7.92,5.866,5.866,0,0,1,2.447-2.27c-4.318-1.91-7.449-4.68-8.6-7.53h7.376a0.433,0.433,0,0,0,.468-0.46,0.856,0.856,0,0,0-.4-0.65l-2.555-1.94-1.907,2.19h-3.058v-2.88l1.007-.57a0.923,0.923,0,0,0,.468-0.69,0.661,0.661,0,0,0-.612-0.5l-2.95-.18v4.82h-1.044c-1.043,0-1.223,0-4.821-.14l0.359,1.11Zm44.912-12.49a1.084,1.084,0,0,0-.576.18,16.192,16.192,0,0,1-6.225,1.34,3.392,3.392,0,0,1-2.878-1.08,0.238,0.238,0,0,0-.216-0.18,0.163,0.163,0,0,0-.18.14,2.064,2.064,0,0,0,.288.76,5.2,5.2,0,0,0,4.606,2.12,51.083,51.083,0,0,0,5.937-.43c0.9-.11,1.367-0.43,1.367-0.87A2.89,2.89,0,0,0,964.849,1211.75Zm-9.5,11.31a0.2,0.2,0,0,0-.216-0.15c-0.432,0-.72.94-0.72,2.41a5.312,5.312,0,0,0,2.483,4.54c1.295,0.79,3.886,1.26,7.052,1.26,3.455,0,5.29-.68,5.29-1.94a1.491,1.491,0,0,0-1.619-1.44,4.24,4.24,0,0,0-1.26.25,19.009,19.009,0,0,1-4.821.65c-4.21,0-6.333-1.48-6.333-4.36a3.147,3.147,0,0,1,.144-1.12v-0.1Zm-7.845,4.46c-0.252.76-.432,1.01-0.791,1.01-0.576,0-1.008-1.62-1.008-3.96a18.4,18.4,0,0,1,1.727-7.42c1.44-3.63,1.548-3.99,1.548-5.11a4.047,4.047,0,0,0-1.62-3.27,4.223,4.223,0,0,0-2.051-.94c-0.144,0-.216.04-0.216,0.11a0.217,0.217,0,0,0,.144.18,3.563,3.563,0,0,1,1.116,2.95,16.961,16.961,0,0,1-.684,4.1c-1.187,5.15-1.547,7.38-1.547,9.61,0,4.79,1.907,9.4,3.85,9.4a1.194,1.194,0,0,0,1.08-1.3,1.615,1.615,0,0,0-.144-0.61,5.157,5.157,0,0,1-.4-2.05,33.3,33.3,0,0,1,1.835-8.96,0.4,0.4,0,0,0,.036-0.18,0.347,0.347,0,0,0-.288-0.33c-0.18,0-.18,0-1.511,3.53Zm52.755-9.93a6.747,6.747,0,0,1-.574,2.08,23.07,23.07,0,0,1-3.311,5.58,37.4,37.4,0,0,1-.251-3.88c0-1.34.036-1.84,0.107-2.78a15.558,15.558,0,0,1,4.029-1.04v0.04Zm-5.432,9.21c-2.447,2.12-4.534,3.24-6.045,3.24-0.972,0-1.4-.5-1.4-1.66a9.28,9.28,0,0,1,2.231-5.4c1.259-1.51,2.123-2.19,4.893-3.85A62.784,62.784,0,0,0,994.828,1226.8Zm6.4-9.43c4.21,0.07,6.84,2.59,6.84,6.59,0,3.78-1.94,6.87-5.69,9.03a24.959,24.959,0,0,1-6.832,2.49c-0.792.14-.828,0.14-0.828,0.32a0.409,0.409,0,0,0,.432.4,42.528,42.528,0,0,0,6.3-1.3c6.01-1.98,9.46-5.72,9.46-10.33,0-4.86-3.6-8.03-9.1-8.03a17.4,17.4,0,0,0-5.507.94,26.905,26.905,0,0,1,.36-3.28,38.189,38.189,0,0,0,4.027-1.37c2.31-.9,3.03-1.36,3.03-2.05,0-.57-0.33-0.79-1.16-0.83a7.762,7.762,0,0,1-1.22-.1c-0.36.97-1.726,1.76-4.641,2.7a26.917,26.917,0,0,1,1.152-4.04,2.543,2.543,0,0,0,.288-1.04c0-.9-1.764-1.98-3.2-1.98-0.935,0-2.159.4-2.159,0.69,0,0.14.072,0.18,0.216,0.18,1.511-.04,2.267.64,2.267,1.97,0,0.22-.036.54-0.072,0.98-0.072.54-.216,2.19-0.324,3.74a10.626,10.626,0,0,1-3.166.54c-1.836,0-3.2-.54-3.779-1.48-0.108-.18-0.144-0.18-0.18-0.18a0.233,0.233,0,0,0-.143.26c0,1.47,1.835,2.95,3.706,2.95a13.023,13.023,0,0,0,3.49-.58c-0.144,1.44-.216,2.27-0.252,3.46a24.419,24.419,0,0,0-4.642,2.88c-2.914,2.37-4.749,5.61-4.749,8.35,0,1.73,1.079,3.06,2.483,3.06,1.835,0,4.03-1.23,7.376-4.07,0.4,1.76.5,1.98,0.864,1.98a2.029,2.029,0,0,0,1.547-1.26,1.253,1.253,0,0,0-.072-0.32,7.2,7.2,0,0,1-.576-1.88,21.59,21.59,0,0,0,3.709-5.86,8.433,8.433,0,0,0,.79-2.92A4,4,0,0,0,1001.23,1217.37Zm39.23,14.51a1.093,1.093,0,0,1-.29.03,5.065,5.065,0,0,1-.97.07c-2.01,0-3.31-.75-3.31-1.9a1.423,1.423,0,0,1,1.62-1.37C1039.09,1228.71,1040.06,1229.75,1040.46,1231.88Zm2.19-.51c-0.07-.18-0.07-0.18-0.1-0.25a4.753,4.753,0,0,0-.97-1.69,5.288,5.288,0,0,0-4.07-1.84c-2.05,0-3.38,1.05-3.38,2.67,0,1.94,2.08,3.31,5.07,3.31a12.131,12.131,0,0,0,7.48-2.59,7.276,7.276,0,0,0,2.6-5.69c0-3.89-2.92-6.7-6.99-6.7a12.711,12.711,0,0,0-4.56.87,7.214,7.214,0,0,1-1.05.43,0.463,0.463,0,0,1-.18.07,0.306,0.306,0,0,1-.21-0.29c0-.32.54-1,2.15-2.84,2.96-3.28,4.75-4.86,6.27-5.54a0.8,0.8,0,0,0,.54-0.76c0-.97-2.45-2.63-3.85-2.63a1.675,1.675,0,0,0-1.19.43,20.451,20.451,0,0,1-7.13,2.52,1.26,1.26,0,0,1-1.33-.9c-0.03-.25-0.07-0.28-0.14-0.28-0.22,0-.29.18-0.29,0.82,0,1.44,1.12,2.88,2.27,2.88a2.288,2.288,0,0,0,1.29-.61c3.46-2.41,4.39-2.91,5.47-2.91a0.727,0.727,0,0,1,.76.79c0,0.54,0,.57-2.02,3.17-4.93,6.55-5.36,7.05-9.82,11.66a2.643,2.643,0,0,0-.97,1.55,2.052,2.052,0,0,0,1.47,1.72,1.392,1.392,0,0,0,1.26-.93,16.112,16.112,0,0,1,2.2-3.6c2.26-3.06,4.6-4.32,7.99-4.32,3.45,0,5.36,1.91,5.36,5.33a7.072,7.072,0,0,1-1.05,3.78A5.846,5.846,0,0,1,1042.65,1231.37Zm31.5-5.65a4.057,4.057,0,0,1-.44,1.87,1.341,1.341,0,0,0-.14.54,2.669,2.669,0,0,0,1.01,1.33,6.383,6.383,0,0,0,1.47.98,1.042,1.042,0,0,0,.65-0.47,7.577,7.577,0,0,1,2.3-1.62,35.749,35.749,0,0,0,7.81-5.08,40.307,40.307,0,0,0,7.74-8.31,12.7,12.7,0,0,0,1.33-2.45,0.449,0.449,0,0,0-.29-0.4c-0.14,0-.18.04-0.5,0.51-4.43,6.05-14.61,13.82-18.14,13.82-0.68,0-.79-0.4-0.79-2.59,0-1.69.14-3.78,0.4-6.59a7.176,7.176,0,0,1,.68-2.63,1,1,0,0,0,.22-0.46,1.013,1.013,0,0,0-.54-0.58,4.633,4.633,0,0,1-.65-0.5,5.312,5.312,0,0,0-2.84-1.34,2.987,2.987,0,0,0-1.8.47,0.371,0.371,0,0,0,.28.22,2.828,2.828,0,0,1,2.2,2.81c0,0.14,0,.61.04,1.29v9.18Zm44.73-5a47.007,47.007,0,0,0,4.64-7.6c0.39-.29.57-0.39,0.75-0.54a0.61,0.61,0,0,0,.4-0.43c0-.25-0.18-0.43-1.12-1.15-1.22-.97-1.72-1.26-2.05-1.26a0.808,0.808,0,0,0-.54.21,7.219,7.219,0,0,1-2.77,1.16,54.5,54.5,0,0,1-6.69,1.04c-1.22,0-2.27-.4-2.48-0.9a0.232,0.232,0,0,0-.18-0.18c-0.22,0-.33.29-0.33,0.94a1.679,1.679,0,0,0,.9,1.65,5.67,5.67,0,0,1,.51.4,1.6,1.6,0,0,0,.93.43,2.787,2.787,0,0,0,.79-0.22c3.17-1.18,6.98-2.23,8.24-2.23a0.557,0.557,0,0,1,.62.51,10.348,10.348,0,0,1-1.26,3.16,31.628,31.628,0,0,1-15.55,15.34c-0.57.21-.65,0.25-0.65,0.43a0.525,0.525,0,0,0,.51.4,19.32,19.32,0,0,0,4.57-1.8,27.919,27.919,0,0,0,10.32-8.75,13.837,13.837,0,0,1,7.2,7.74c0.43,1.19.86,1.62,1.58,1.62a1.648,1.648,0,0,0,1.52-1.8c0-1.51-1.08-3.17-3.1-4.79A16.21,16.21,0,0,0,1118.88,1220.72Zm32.64-3.85a12.189,12.189,0,0,1,6.55,5.04c0.82,1.33,1.26,1.65,2.01,1.65a1.416,1.416,0,0,0,1.44-1.51c0-1.12-.86-2.23-2.73-3.49a14.405,14.405,0,0,0-7.27-2.27c0.07-3.89.29-5.47,0.83-6.41a1.945,1.945,0,0,0,.18-0.65,1.09,1.09,0,0,0-.69-0.79c-1.47-.97-1.98-1.22-2.48-1.22a8.479,8.479,0,0,0-2.12.57,0.385,0.385,0,0,0-.29.33,0.277,0.277,0,0,0,.32.29,1.743,1.743,0,0,1,1.69.9c0.4,0.64.54,1.9,0.54,5.11,0,6.8-.25,14.58-0.57,16.48-0.04.36-.08,0.65-0.08,0.87,0,0.86,1.19,2.45,1.84,2.45,0.68,0,1.22-1.08,1.22-2.56,0-.29-0.03-0.83-0.1-1.51-0.18-2.49-.26-5.73-0.26-11.81Zm41.13-6.23c0.54-.07,1.12-0.15,1.8-0.22,1.3-.11,1.58-0.25,1.58-0.68a1.328,1.328,0,0,0-.93-0.97,3.941,3.941,0,0,0-1.73-.69,2.735,2.735,0,0,0-1.26.4,28.342,28.342,0,0,1-7.99,1.33c-1.29,0-2.01-.25-2.44-0.86a0.2,0.2,0,0,0-.15-0.15,0.162,0.162,0,0,0-.14.18,5.445,5.445,0,0,0,.68,1.48,2.706,2.706,0,0,0,2.66,1.29,31.465,31.465,0,0,0,5.19-.64c1.29-.22,2.19-0.36,2.33-0.4Zm5.43,7.41c1.08-.79,1.26-0.97,1.26-1.22,0-.54-2.44-2.52-3.13-2.52a2.106,2.106,0,0,0-.64.18,11.786,11.786,0,0,1-3.89,1.04c-0.47.08-2.12,0.26-4.97,0.54-4.17.44-4.17,0.44-4.71,0.44-1.37,0-2.63-.54-2.88-1.23-0.07-.21-0.11-0.25-0.21-0.25-0.18,0-.29.18-0.29,0.47a3.422,3.422,0,0,0,.9,2.23,3.835,3.835,0,0,0,1.98,1.22,1.193,1.193,0,0,0,.54-0.14,46.98,46.98,0,0,1,6.04-1.55,58.165,58.165,0,0,1,6.05-.79,0.918,0.918,0,0,1,1.11.9c0,0.68-.5,1.91-1.8,4.32a24.391,24.391,0,0,1-6.76,7.49,24.874,24.874,0,0,1-7.16,3.67c-0.22.03-.29,0.11-0.29,0.21a0.5,0.5,0,0,0,.54.36c1.37,0,4.53-1.18,7.05-2.62C1191.82,1227.88,1194.59,1224.75,1198.08,1218.05Zm20.34,11.92a50.4,50.4,0,0,0,8.2-5.65,53.74,53.74,0,0,0,7.42-7.45c1.69-2.09,3.23-4.47,3.23-5.01a0.282,0.282,0,0,0-.25-0.32,0.792,0.792,0,0,0-.61.54c-0.32.43-2.27,2.63-2.88,3.27a67.312,67.312,0,0,1-6.48,5.73c-5.03,4.03-9.17,6.58-10.61,6.58a2.422,2.422,0,0,1-2.05-1.72,0.311,0.311,0,0,0-.25-0.26c-0.25,0-.43.51-0.43,1.19a2.546,2.546,0,0,0,.86,2.16,5.193,5.193,0,0,0,2.48,1.8A2.493,2.493,0,0,0,1218.42,1229.97Zm-3.53-18.72c-1,0-1.62.14-1.62,0.4a0.369,0.369,0,0,0,.33.25,7.44,7.44,0,0,1,5.29,4.25,1.111,1.111,0,0,0,1.04.79,1.445,1.445,0,0,0,1.58-1.48C1221.51,1213.37,1218.2,1211.25,1214.89,1211.25Zm-957.949,60.99a28.882,28.882,0,0,1-6.3,8.79,1.777,1.777,0,0,0-.864.93,0.358,0.358,0,0,0,.36.36,7.836,7.836,0,0,0,2.771-1.83,31.292,31.292,0,0,0,4.642-4.93v8.38c0,0.4.108,0.58,0.432,0.58,0.935,0,1.727-.47,1.727-1.01v-8.06a5.838,5.838,0,0,1,2.3,2.16,12.951,12.951,0,0,0,1.115,1.8,1.327,1.327,0,0,0,.756.29,1.308,1.308,0,0,0,1.223-1.3,3.228,3.228,0,0,0-1.835-2.63,12.791,12.791,0,0,0-3.562-1.33v-2.2h5.5a0.459,0.459,0,0,0,.432-0.43,1.138,1.138,0,0,0-.432-0.72l-2.411-1.9-1.655,2.19h-1.439v-3.06l0.827-.39a0.94,0.94,0,0,0,.54-0.76,0.765,0.765,0,0,0-.827-0.68l-2.7-.22v5.11h-2.3c-1.008-.04-2.195-0.07-4.822-0.18l0.432,1.15c1.043-.03,1.943-0.03,2.267-0.03,1.115-.04,1.871-0.08,2.195-0.08h1.619Zm6.333-14.61a35.143,35.143,0,0,1-9.463,7.78c-2.339,1.33-2.7,1.58-2.7,1.76a0.315,0.315,0,0,0,.288.29,27.077,27.077,0,0,0,4.678-2.16,44.372,44.372,0,0,0,9.211-6.23v8.5a0.453,0.453,0,0,0,.5.54c0.971,0,1.691-.4,1.691-0.9v-9.08c2.915,3.93,6.621,6.59,12.234,8.82a7,7,0,0,1,2.447-2.77c-6.189-1.08-10.327-3.02-14.069-6.55H280.51c0.4,0,.576-0.14.576-0.43a1.083,1.083,0,0,0-.468-0.69l-2.555-2.01-1.943,2.27h-8.636v-2.59l0.864-.69a0.829,0.829,0,0,0,.288-0.65c0-.39-0.252-0.57-0.756-0.61l-2.591-.11v4.65h-5.937c-0.612,0-1.8-.04-3.562-0.11-0.54,0-1.871-.04-3.527-0.11l0.54,1.26c1.4-.04,2.7-0.04,3.131-0.07,1.907-.07,3.2-0.11,3.418-0.11h3.922Zm8.888,14.61a49.774,49.774,0,0,1-7.7,9.36c-1.188,1.01-1.188,1.01-1.188,1.16a0.345,0.345,0,0,0,.288.32c0.36,0,1.727-.97,3.742-2.63a48.131,48.131,0,0,0,5.506-5.4v8.89a0.421,0.421,0,0,0,.467.51c1.08,0,1.62-.25,1.62-0.76v-9.57a19.361,19.361,0,0,0,6.225,7.92,5.866,5.866,0,0,1,2.447-2.27c-4.318-1.91-7.449-4.68-8.6-7.53h7.376a0.433,0.433,0,0,0,.468-0.46,0.856,0.856,0,0,0-.4-0.65l-2.555-1.94-1.907,2.19H274.9v-2.88l1.007-.57a0.923,0.923,0,0,0,.468-0.69,0.661,0.661,0,0,0-.612-0.5l-2.95-.18v4.82h-1.044c-1.043,0-1.223,0-4.822-.14l0.36,1.11Zm36.276-1.08a0.709,0.709,0,0,1,.072-0.28,18.438,18.438,0,0,1,3.1-5.44,6.589,6.589,0,0,1,4.389-2.37,2.078,2.078,0,0,1,2.087,1.72,1.88,1.88,0,0,1-.683,1.23c-0.432.36-.432,0.36-4.426,2.59C309.518,1270.52,309.518,1270.52,308.438,1271.16Zm-0.4-2.05a5.826,5.826,0,0,0-.935-2.05,3.233,3.233,0,0,0-2.555-1.19,5.719,5.719,0,0,0-2.3.62,39.7,39.7,0,0,0,3.958-7.38c3.382-.98,4.03-1.26,4.03-1.7,0-.25-0.36-0.5-1.511-1.08a4.759,4.759,0,0,1-2.231,1.16,4.082,4.082,0,0,0,.288-1.3,2.433,2.433,0,0,0-2.3-2.05c-0.648,0-1.8.54-1.8,0.86a0.122,0.122,0,0,0,.144.15,1.663,1.663,0,0,1,1.655,1.87,6.032,6.032,0,0,1-.108.97,8.854,8.854,0,0,1-3.167.58,2.271,2.271,0,0,1-2.051-.94,0.318,0.318,0,0,0-.18-0.14,0.156,0.156,0,0,0-.107.14,4.8,4.8,0,0,0,.539,1.33,2.082,2.082,0,0,0,1.763,1.23,11.749,11.749,0,0,0,3.023-.58c-0.612,3.17-2.987,6.66-6.657,9.79a1.509,1.509,0,0,0-.827,1.26c0,0.86.683,2.02,1.187,2.02a1.571,1.571,0,0,0,1.151-.98c1.728-2.84,4.067-5,5.434-5a1.765,1.765,0,0,1,1.619,1.19,12.763,12.763,0,0,1,.432,4.39c-2.195,1.3-2.195,1.3-2.771,1.69-2.123,1.44-3.058,2.74-3.058,4.25a4.07,4.07,0,0,0,2.375,3.49,11.393,11.393,0,0,0,5.649,1.05c4.714,0,6.981-.58,6.981-1.73a1.864,1.864,0,0,0-1.656-1.41,3.048,3.048,0,0,0-.9.18,19.073,19.073,0,0,1-5.074.62c-4.03,0-5.685-.69-5.685-2.42,0-1.54,1.151-2.88,4.174-4.71a26.821,26.821,0,0,1-.144,3.71,1.118,1.118,0,0,0-.036.28c0,0.22.216,0.36,0.612,0.36,1.367,0,1.727-.46,1.727-2.16,0-.46-0.036-1.33-0.18-3.2a64.208,64.208,0,0,1,7.376-3.35c3.167-1.26,3.419-1.36,4.139-1.9a2.075,2.075,0,0,0,.9-1.84c0-1.87-1.871-3.31-4.354-3.31a8.358,8.358,0,0,0-6.009,3.09A16.006,16.006,0,0,0,308.042,1269.11Zm25.337,5.55a3.229,3.229,0,0,0,.612.21,3.806,3.806,0,0,1,.9.25c0.827,0.51,1.259,1.52,1.259,3.06a9.282,9.282,0,0,1-.144,1.73c-0.144.94-.252,1.77-0.252,2.05a1.723,1.723,0,0,0,1.62,1.8,1.843,1.843,0,0,0,1.619-2.01,2.725,2.725,0,0,0-.036-0.54,23.8,23.8,0,0,1-.684-5.22,4.953,4.953,0,0,1,.4-1.84l4.93-14.4-0.72-.25-6.549,14.76-2.807-.29Zm0.4-13.25a4.472,4.472,0,0,1,1.979,2.88,10.65,10.65,0,0,0,.576,2.02,1.144,1.144,0,0,0,1.008.57,1.578,1.578,0,0,0,1.4-1.76,3.47,3.47,0,0,0-1.367-2.63,6.749,6.749,0,0,0-3.347-1.44h-0.252v0.36Zm1.476-7.92a6.491,6.491,0,0,1,2.734,2.88c1.008,2.66,1.008,2.66,1.727,2.66a1.506,1.506,0,0,0,1.512-1.69c0-2.09-2.447-3.92-5.722-4.24Zm13.673,3.6h-2.231c-0.216,0-1.115,0-2.051-.04l-2.771-.1,0.4,1.11c2.087-.11,2.663-0.11,4.426-0.11h2.231v4.5h-0.5c-1.3,0-2.375-.03-4.821-0.14l0.4,1.12c3.167-.11,3.275-0.11,4.426-0.11h4.066v3.63h-6.4l-2.914-1.22v18.11a0.453,0.453,0,0,0,.5.54,2.4,2.4,0,0,0,1.007-.29,0.821,0.821,0,0,0,.576-0.94v-15.33h7.232v8.13h-2.734v-3.92l0.575-.4a0.973,0.973,0,0,0,.468-0.72c0-.36-0.288-0.57-0.9-0.61l-2.195-.11v10.55a0.411,0.411,0,0,0,.36.5c0.719,0,1.691-.46,1.691-0.82v-3.6h8.024v2.48a0.429,0.429,0,0,0,.468.5c0.935,0,1.511-.36,1.511-1v-6.77l0.468-.25a0.949,0.949,0,0,0,.5-0.72c0-.4-0.288-0.61-0.9-0.65l-2.051-.11v5.65h-3.1v-8.13h7.377v12.52c-0.036.62-.072,0.72-0.54,0.72h-3.526v0.51l2.555,0.9c0.719,0.29.719,0.32,0.791,0.93a0.607,0.607,0,0,0,.684.72,2.2,2.2,0,0,0,2.231-1.98v-13.39l0.4-.1a0.6,0.6,0,0,0,.539-0.54,1.079,1.079,0,0,0-.359-0.69l-1.979-1.87-1.044,1.4h-7.125v-3.63h9.968a0.541,0.541,0,0,0,.575-0.54,0.928,0.928,0,0,0-.395-0.72l-2.447-1.69-1.691,2.08h-2.483v-4.5h8.2a0.459,0.459,0,0,0,.432-0.43,0.794,0.794,0,0,0-.36-0.61l-2.843-2.05-1.871,2.23h-3.562v-2.99l0.755-.36a0.856,0.856,0,0,0,.612-0.75,0.752,0.752,0,0,0-.827-0.65l-2.735-.22v4.97h-4.894v-2.95l0.612-.32a0.932,0.932,0,0,0,.612-0.8,0.646,0.646,0,0,0-.756-0.57l-2.663-.33v4.97Zm2.2,5.36v-4.5h4.894v4.5h-4.894Zm25.229-6.55v21.56a0.621,0.621,0,0,0,.684.58,1.207,1.207,0,0,0,1.367-.9v-4.64h3.419v2.59c0,0.36.108,0.47,0.5,0.47a2.028,2.028,0,0,0,1.3-.47,0.805,0.805,0,0,0,.216-0.76v-15.3l0.432-.14a0.473,0.473,0,0,0,.467-0.47,0.794,0.794,0,0,0-.251-0.47l-2.015-2.12-0.828,1.4H378.9Zm2.051,15.73v-13.6h3.419v13.6H378.4Zm14.861,2.67c-1.007,4.64-3.49,7.16-8.815,8.89-1.728.5-1.728,0.5-1.728,0.79a0.343,0.343,0,0,0,.4.29,24.553,24.553,0,0,0,6.333-1.84c3.563-1.69,5.11-3.74,5.937-8.03,1.836,4.47,5.218,7.53,10.651,9.76a4.527,4.527,0,0,1,1.08-1.19l1.187-.79a4.7,4.7,0,0,0,.468-0.36c-5.757-.9-10.687-3.85-12.63-7.52h11.227a0.33,0.33,0,0,0,.252-0.4,0.729,0.729,0,0,0-.36-0.68l-2.555-1.91-1.835,2.12h-7.305c0.108-.68.144-0.93,0.252-1.98l0.864-.36a0.739,0.739,0,0,0,.647-0.64c0-.36-0.323-0.62-1.007-0.69l-2.7-.29a34.255,34.255,0,0,1-.252,3.96H389.7c-1.079,0-2.051-.03-4.822-0.14l0.468,1.11c2.447-.07,3.347-0.1,4.354-0.1h3.562Zm-4.318-17.97c-1.979,0-2.3,0-4.533-.14l0.467,1.15c1.907-.11,2.2-0.14,4.066-0.14v3.71c-1.511,0-1.8-.04-3.67-0.15l0.5,1.08c1.547-.03,1.763-0.03,3.166-0.07v4.36l-4.425.97,1.691,2.34a0.753,0.753,0,0,0,.575.32,0.833,0.833,0,0,0,.756-0.61l0.288-.83,8.456-3.49-0.144-.43-5.253,1.33v-3.96h4.425a0.345,0.345,0,0,0,.288-0.32,0.633,0.633,0,0,0-.288-0.51l-1.8-1.62-1.367,1.59h-1.259v-3.71h4.785a0.468,0.468,0,0,0,.432-0.43,0.791,0.791,0,0,0-.18-0.44h2.987c-0.252,6.81-1.584,9.33-6.693,12.53-1.224.69-1.224,0.69-1.224,0.9a0.242,0.242,0,0,0,.252.22,13.864,13.864,0,0,0,3.635-1.62,10.639,10.639,0,0,0,5.469-6.88,23.287,23.287,0,0,0,.792-5.15h3.13a52.889,52.889,0,0,1-.36,6.92c-0.252,2.44-.863,3.27-2.3,3.27h-0.467l-2.267-.29-0.072.44,2.051,0.93c0.468,0.22.468,0.25,0.468,0.51,0,1.04.108,1.33,0.575,1.33a4.286,4.286,0,0,0,2.987-2.05c0.9-1.73,1.331-4.79,1.439-9.94l0.648-.22a0.533,0.533,0,0,0,.5-0.54,0.791,0.791,0,0,0-.36-0.64l-2.3-1.84-0.648,1.3h-9.391l-1.08-.87-1.4,1.69h-1.4v-2.19l0.683-.36a0.92,0.92,0,0,0,.612-0.76,0.724,0.724,0,0,0-.792-0.72l-2.447-.18v4.21Zm56.715,18.04a0.584,0.584,0,0,0-.4.36,15.914,15.914,0,0,1-2.915,2.81,13.063,13.063,0,0,1-7.592,2.77c-4.318,0-6.225-2.16-6.225-7.02A71.432,71.432,0,0,1,430,1261.45a9.891,9.891,0,0,0,.5-2.63c0-2.13-1.691-4.14-3.454-4.14-0.792,0-1.512.32-1.512,0.68,0,0.11.108,0.18,0.324,0.18,1.188,0,1.691.94,1.691,3.13,0,0.44,0,.44-0.215,3.35-0.684,8.96-.72,9.43-0.72,11.48,0,3.17.612,5.19,2.087,6.74a7.61,7.61,0,0,0,5.757,2.19,12.416,12.416,0,0,0,9.464-4.53c1.151-1.34,1.979-2.63,1.979-3.24A0.276,0.276,0,0,0,445.657,1274.37Zm26.309-12.1c0.18-.82.18-1,0.288-1.54,0.144-.8.251-1.3,0.287-1.48a4.629,4.629,0,0,1,.144-0.58c1.548,1.19,2.015,1.62,2.015,1.88C474.7,1260.87,473.405,1261.66,471.966,1262.27Zm-3.491-6.12a3.944,3.944,0,0,1,.612-0.03c1.188,0,1.619.5,1.619,1.91a25.591,25.591,0,0,1-.539,4.78,20.154,20.154,0,0,1-5.254,1.05,3.061,3.061,0,0,1-2.915-1.51,0.382,0.382,0,0,0-.287-0.26,0.188,0.188,0,0,0-.144.22,3.763,3.763,0,0,0,3.418,3.6,17.789,17.789,0,0,0,4.786-1.22c-1.188,5.43-3.958,12.77-5.722,15.19a2.859,2.859,0,0,0-.611,1.51,1.559,1.559,0,0,0,1.691,1.37c0.971,0,1.511-.69,2.195-2.78a129.162,129.162,0,0,0,4.318-15.94c4.282-1.73,5.649-2.63,5.649-3.67a0.572,0.572,0,0,0-.5-0.62,0.352,0.352,0,0,0-.179.04h-0.18c-0.684,0-1.692-.43-3.635-1.55,0.18-.83.324-1.29,0.468-1.76a1.627,1.627,0,0,0,.072-0.36c0-.58-1.547-1.37-2.591-1.37-0.863,0-2.518.86-2.518,1.3a0.162,0.162,0,0,0,.143.1h0.108Zm14.214,7.35a6.919,6.919,0,0,0-4.21,1.33,2.044,2.044,0,0,0-.576.68,0.19,0.19,0,0,0,.18.15,0.332,0.332,0,0,0,.216-0.11,5.49,5.49,0,0,1,2.878-.72c1.476,0,2.951.47,2.951,0.9,0,0.18-.216.32-1.331,0.9a5.593,5.593,0,0,0-1.8,1.15,0.234,0.234,0,0,0,.18.18,0.317,0.317,0,0,0,.144-0.03,10.176,10.176,0,0,1,3.491-.83,4.929,4.929,0,0,1,2.015.43,0.556,0.556,0,0,0,.36.11,0.87,0.87,0,0,0,.755-1.01C487.942,1264.97,485.5,1263.5,482.689,1263.5ZM477,1272.28c-0.467,0-1.223,2.41-1.223,3.89,0,3.63,2.843,5.36,8.924,5.36,3.094,0,4.174-.39,4.174-1.58a1.458,1.458,0,0,0-1.44-1.37,3.11,3.11,0,0,0-.647.11,13.752,13.752,0,0,1-3.6.36c-4.533,0-6.369-1.15-6.369-4.03a7.623,7.623,0,0,1,.36-2.27,0.7,0.7,0,0,0,.036-0.25A0.234,0.234,0,0,0,477,1272.28Zm32.174-13.14c-3.022,6.59-4.677,9.25-8.168,13.25a1.878,1.878,0,0,0-.611.93,0.275,0.275,0,0,0,.251.29c0.612,0,2.483-1.76,5.29-4.89v15.33a0.444,0.444,0,0,0,.468.36,1.591,1.591,0,0,0,1.691-1.19v-15.73l0.72-.46a0.568,0.568,0,0,0,.251-0.44,0.591,0.591,0,0,0-.431-0.46l-0.54-.18c1.223-1.84,1.4-2.13,2.447-3.86l0.611-.03a0.7,0.7,0,0,0,.648-0.61,0.823,0.823,0,0,0-.4-0.69Zm-0.575-7.7a36.749,36.749,0,0,1-7.449,10.44,1.709,1.709,0,0,0-.719.9,0.234,0.234,0,0,0,.251.21c0.576,0,3.455-2.12,5.722-4.24a36.368,36.368,0,0,0,3.562-3.89l0.972-.25a0.758,0.758,0,0,0,.683-0.69,0.814,0.814,0,0,0-.432-0.64Zm17.487,3.63a94.922,94.922,0,0,1-8.312,10.62c-3.706.18-4.282,0.18-7.916,0.22l2.123,2.88a0.863,0.863,0,0,0,.468.29,0.944,0.944,0,0,0,.5-0.29l0.611-.76c1.907-.21,2.195-0.25,4.138-0.57a28.725,28.725,0,0,1-7.772,11.26,1.353,1.353,0,0,0-.576.8,0.25,0.25,0,0,0,.252.28,3.959,3.959,0,0,0,1.511-.93,25.915,25.915,0,0,0,5.758-5.65c0.216-.29.4-0.54,0.647-0.83a14.885,14.885,0,0,0,2.519,4.68c-2.015,2.34-4.75,4.17-9.607,6.37-0.792.32-.972,0.43-0.972,0.65a0.329,0.329,0,0,0,.36.32,21.157,21.157,0,0,0,4.066-1.26,22.126,22.126,0,0,0,7.521-4.53,26.573,26.573,0,0,0,9.139,5,11.653,11.653,0,0,1,2.915-2.63c-4.93-.97-7.521-1.87-10.507-3.71a38.4,38.4,0,0,0,3.6-4.82l1.26-.36a0.569,0.569,0,0,0,.467-0.54,0.746,0.746,0,0,0-.395-0.61l-2.339-1.87-1.116,1.4h-5.613c0.54-.79.612-0.9,1.079-1.69l0.576-.29a0.583,0.583,0,0,0,.36-0.54,1.235,1.235,0,0,0-1.008-.83c3.419-.43,4.642-0.64,8.24-1.33a19.351,19.351,0,0,1,1.548,2.7,1.385,1.385,0,0,0,1.439.97,1.214,1.214,0,0,0,1.151-1.4c0-2.27-3.526-5.18-7.52-6.23l-0.288.36c0.36,0.29.648,0.51,1.511,1.19,0.36,0.32.72,0.65,1.476,1.44-3.635.4-4.858,0.5-7.7,0.72,1.26-1.12,2.087-1.91,2.447-2.23,1.152-1.12,2.339-2.27,3.527-3.39,0.719-.68,1.151-1.11,1.655-1.54l0.683,0.03a1.761,1.761,0,0,0,.648-0.14,0.721,0.721,0,0,0,.216-0.47,0.923,0.923,0,0,0-.36-0.68Zm-1.763,16.27a30.519,30.519,0,0,1-3.166,4.61,13.739,13.739,0,0,1-3.167-4.25l0.252-.36h6.081Zm-11.946-13.17a6.95,6.95,0,0,1,3.6,3.71,5.025,5.025,0,0,0,.576,1.33,1.254,1.254,0,0,0,.971.5,1.423,1.423,0,0,0,1.368-1.51c0-.83-0.36-1.47-1.368-2.55,1.944-2.31,2.267-2.67,3.851-4.72l0.539-.04a0.582,0.582,0,0,0,.5-0.61,0.865,0.865,0,0,0-.468-0.68l-2.411-1.44c-1.259,3.2-1.475,3.67-2.95,6.87a10.056,10.056,0,0,0-4.174-1.29Zm55.167,1.58a1.084,1.084,0,0,0-.576.18,16.192,16.192,0,0,1-6.225,1.34,3.392,3.392,0,0,1-2.878-1.08,0.238,0.238,0,0,0-.216-0.18,0.163,0.163,0,0,0-.18.14,2.064,2.064,0,0,0,.288.76,5.2,5.2,0,0,0,4.605,2.12,51.084,51.084,0,0,0,5.938-.43c0.9-.11,1.367-0.43,1.367-0.87A2.89,2.89,0,0,0,567.547,1259.75Zm-9.5,11.31a0.2,0.2,0,0,0-.216-0.15c-0.432,0-.72.94-0.72,2.41a5.312,5.312,0,0,0,2.483,4.54c1.295,0.79,3.886,1.26,7.052,1.26,3.455,0,5.29-.68,5.29-1.94a1.491,1.491,0,0,0-1.619-1.44,4.24,4.24,0,0,0-1.26.25,19.009,19.009,0,0,1-4.821.65c-4.21,0-6.333-1.48-6.333-4.36a3.147,3.147,0,0,1,.144-1.12v-0.1Zm-7.845,4.46c-0.252.76-.432,1.01-0.791,1.01-0.576,0-1.008-1.62-1.008-3.96a18.4,18.4,0,0,1,1.727-7.42c1.44-3.63,1.548-3.99,1.548-5.11a4.047,4.047,0,0,0-1.62-3.27,4.223,4.223,0,0,0-2.051-.94c-0.144,0-.216.04-0.216,0.11a0.217,0.217,0,0,0,.144.18,3.563,3.563,0,0,1,1.116,2.95,16.961,16.961,0,0,1-.684,4.1c-1.187,5.15-1.547,7.38-1.547,9.61,0,4.79,1.907,9.4,3.85,9.4a1.193,1.193,0,0,0,1.079-1.3,1.61,1.61,0,0,0-.143-0.61,5.157,5.157,0,0,1-.4-2.05,33.3,33.3,0,0,1,1.835-8.96,0.4,0.4,0,0,0,.036-0.18,0.347,0.347,0,0,0-.288-0.33c-0.18,0-.18,0-1.511,3.53Zm34.045,0.86c2.627,1.66,3.275,2.42,4,4.65,0.431,1.58.431,1.58,0.719,1.94a1.537,1.537,0,0,0,1.152.51,1.8,1.8,0,0,0,1.727-1.91c0-2.38-2.951-4.68-7.341-5.69Zm54.412-12.31a24.508,24.508,0,0,1,.144-3.24c0.72,0.47.863,0.54,1.619,0.98,0.612,0.32.72,0.39,0.72,0.57C641.143,1262.89,640.171,1263.53,638.66,1264.07Zm-1.475,8.71c-0.036,1.48-.036,1.73-0.036,1.98,0,2.78,0,2.78-.108,3.1a0.48,0.48,0,0,1-.432.36,1.334,1.334,0,0,1-.792-0.47c-0.827-.68-1.043-0.83-2.555-1.94A28.526,28.526,0,0,1,637.185,1272.78Zm13.745-9.86a5.183,5.183,0,0,1,3.167,1.15,5.831,5.831,0,0,1,1.655,2.34c0.252,1.12.324,1.26,0.684,1.26a1.818,1.818,0,0,0,1.835-1.69,4.532,4.532,0,0,0-1.224-2.63,6.332,6.332,0,0,0-4.426-1.65c-1.691,0-4.174.83-4.174,1.37a0.313,0.313,0,0,0,.252.25,3.362,3.362,0,0,0,.5-0.15A5.606,5.606,0,0,1,650.93,1262.92Zm-12.27,9.22c3.922-2.34,6.045-3.13,8.492-3.13,2.7,0,4.174,1.58,4.174,4.42a5.007,5.007,0,0,1-4.966,5.29,4.224,4.224,0,0,1-2.339-.75,3.793,3.793,0,0,1-1.187-2.56,8.977,8.977,0,0,1,.18-1.69,1.189,1.189,0,0,0,.108-0.36,0.207,0.207,0,0,0-.216-0.14,0.819,0.819,0,0,0-.54.75,6.668,6.668,0,0,0-.324,1.84c0,2.95,1.692,4.71,4.534,4.71a6.886,6.886,0,0,0,7.233-7.12,5.433,5.433,0,0,0-5.686-5.73c-2.77,0-5.757,1.01-9.535,3.24-0.036-.86-0.036-1.26-0.036-1.83,0-1.05,0-1.69.072-3.24,3.958-1.37,5.433-2.31,5.433-3.46a0.8,0.8,0,0,0-.647-0.9l-0.792.04a10.3,10.3,0,0,1-3.67-1.08,5.317,5.317,0,0,1,.36-1.62,3.957,3.957,0,0,0,.18-0.65c0-.79-1.872-2.05-3.023-2.05a2.109,2.109,0,0,0-1.979,1.47,0.144,0.144,0,0,0,.144.18,1.479,1.479,0,0,0,.324-0.03,0.725,0.725,0,0,1,.324-0.04c0.971,0,1.4.47,1.583,1.66,0.108,0.83.144,1.83,0.216,5a8.687,8.687,0,0,1-3.815.87c-1.295,0-2.194-.36-2.3-0.94,0-.14-0.036-0.18-0.108-0.18-0.18,0-.288.36-0.288,1.04a1.741,1.741,0,0,0,.4,1.05,1.88,1.88,0,0,0,1.835.9,11.62,11.62,0,0,0,4.282-.9v2.05l0.036,2.27c0,0.11,0,.54.036,1-1.584.9-1.728,1.01-3.167,1.8a13.731,13.731,0,0,0-1.4.83c-1.152.76-1.763,0.9-3.994,0.97-0.864,0-1.188.22-1.188,0.83a3.36,3.36,0,0,0,2.519,2.45,1.154,1.154,0,0,0,.792-0.47,9.3,9.3,0,0,1,1.907-1.65,7.035,7.035,0,0,1,3.526,5.11c0,0.29.108,0.43,0.324,0.43a2.731,2.731,0,0,0,2.555-2.3,10.881,10.881,0,0,0-.108-1.3c-0.108-.86-0.252-3.64-0.252-5.04v-1.04Zm42.825-14.69,0.144-.61c1.223,0.86,1.583,1.19,1.583,1.4,0,0.36-.791.87-2.3,1.44,0.144-.5.252-0.86,0.288-1.01Zm5.613,19.69a9.535,9.535,0,0,1-.072,1.3,2.833,2.833,0,0,1-3.2,2.7c-2.051,0-3.634-.9-3.634-2.13,0-1.51,1.367-2.52,3.418-2.52A8.463,8.463,0,0,1,687.1,1277.14Zm-6.657-15.33c3.311-1.01,5.074-2.13,5.074-3.24a1.1,1.1,0,0,0-1.187-.94c-0.612-.04-0.684-0.07-2.591-1.12,0.216-.75.324-1.15,0.324-1.22,0-.86-1.188-1.62-2.519-1.62-0.756,0-1.907.47-1.907,0.79a0.164,0.164,0,0,0,.18.15c1.367,0.03,1.943.57,1.943,1.76a15.44,15.44,0,0,1-.576,3.82,18.118,18.118,0,0,1-3.958.68,3.773,3.773,0,0,1-3.275-1.62c-0.107-.22-0.107-0.22-0.179-0.22a0.174,0.174,0,0,0-.18.18,5.1,5.1,0,0,0,.539,1.44,3.28,3.28,0,0,0,2.987,2.06,16.723,16.723,0,0,0,3.454-.51c-1.187,3.78-5.109,10.4-7.124,12.1a1.531,1.531,0,0,0-.612,1.11,1.345,1.345,0,0,0,1.583,1.15c1.116,0,1.548-.43,2.7-2.52A106.976,106.976,0,0,0,680.441,1261.81Zm6.693,13.64a17.565,17.565,0,0,0-2.375-.15c-3.778,0-6.045,1.48-6.045,3.93,0,2.27,2.159,3.74,5.47,3.74,1.871,0,3.274-.5,4.066-1.51a4.494,4.494,0,0,0,1.007-3.31v-0.33a12.906,12.906,0,0,1,3.958,3.14,1.857,1.857,0,0,0,1.44.86,1.253,1.253,0,0,0,1.3-1.22c0-1.52-2.483-3.28-6.657-4.68-0.072-1.12-.072-1.34-0.288-3.24a29.106,29.106,0,0,1-.251-2.95c0-2.6,1.367-3.89,4.03-3.89a6.642,6.642,0,0,1,2.3.39,1.733,1.733,0,0,0,.539.11,0.846,0.846,0,0,0,.864-0.97c0-2.12-2.627-3.89-5.757-3.89-1.4,0-3.347.61-3.347,1.01a0.283,0.283,0,0,0,.252.29,0.358,0.358,0,0,0,.18-0.04,5.411,5.411,0,0,1,1.655-.21c1.871,0,3.6.79,3.6,1.62a0.769,0.769,0,0,1-.755.64c-3.814,1.05-5.254,2.78-5.254,6.3,0,0.25,0,.76.036,1.44Zm49.122-5.33a4.467,4.467,0,0,1,2.411.65,1.273,1.273,0,0,0,.936.47c0.9,0,1.511-1.01,1.511-2.49,0-4.03-3.562-7.34-7.916-7.34-0.936,0-1.44.11-1.44,0.32,0,0.08.072,0.11,0.18,0.11a6.267,6.267,0,0,1,2.483.69c2.231,1.04,3.922,3.31,3.922,5.29,0,0.54-.288.83-1.187,1.11a17.634,17.634,0,0,1-2.663.65c-0.432.07-.54,0.15-0.54,0.36a0.252,0.252,0,0,0,.288.25,1.974,1.974,0,0,0,.36-0.03Zm-14.249-7.02a32.363,32.363,0,0,0,1.115-5.54c0-.9-1.871-2.05-3.382-2.05-0.648,0-2.015.68-1.979,1a0.19,0.19,0,0,0,.18.15,0.638,0.638,0,0,0,.252-0.04,0.317,0.317,0,0,1,.144-0.03,3.529,3.529,0,0,1,1.367.39,2.268,2.268,0,0,1,.864,2.05c0,0.54-.4,3.6-0.576,4.5a32.756,32.756,0,0,1-5.973,1.3,1.546,1.546,0,0,1-1.547-.94,0.448,0.448,0,0,0-.36-0.36c-0.18,0-.288.22-0.288,0.58,0,1.58,1.007,3.06,2.123,3.06a2.936,2.936,0,0,0,1.259-.4q2.537-1.08,4.534-1.83c-1.943,5.9-4.678,10.9-7.52,13.71a1.531,1.531,0,0,0-.576,1.08,1.3,1.3,0,0,0,1.4,1.33c1.116,0,1.691-.64,3.491-4.03a81.661,81.661,0,0,0,5.145-12.78,9.922,9.922,0,0,1,3.167-.75c1.367,0,2.087,1.26,2.087,3.63a22.464,22.464,0,0,1-1.116,7.09c-0.755,2.24-1.763,3.39-2.986,3.39-0.684,0-1.656-.61-2.915-1.84a1.2,1.2,0,0,0-.576-0.39,0.325,0.325,0,0,0-.216.32,1.468,1.468,0,0,0,.5.79c1.3,1.59,1.655,2.2,1.835,3.39,0.072,0.64.18,0.79,0.684,0.79a5.742,5.742,0,0,0,3.958-1.95c1.655-2.01,2.843-6.37,2.843-10.29a8.966,8.966,0,0,0-.756-4.25,3.651,3.651,0,0,0-3.094-1.65A11.154,11.154,0,0,0,722.007,1263.1Zm40.774,8.42c-1.619-.36-2.195-0.79-2.195-1.69,0-1.15.936-2.16,3.274-3.63C763.537,1267.64,762.961,1270.48,762.781,1271.52Zm1.151,0.22a54.812,54.812,0,0,1,1.224-6.3,9.012,9.012,0,0,1,2.95-.5c0.9,0,1.116-.11,1.116-0.58a2.169,2.169,0,0,0-.5-1.19,1.118,1.118,0,0,0-1.043-.46,5.891,5.891,0,0,1-1.4-.15c0.612-1.37.9-2.01,1.584-3.38a5.889,5.889,0,0,0,.9-2.41,2.349,2.349,0,0,0-1.187-1.77,5.97,5.97,0,0,0-2.519-1.29,2.844,2.844,0,0,0-1.727.72,0.146,0.146,0,0,0,.144.14,2.39,2.39,0,0,1,2.015,2.7,14.644,14.644,0,0,1-.4,2.56c-0.072.32-.144,0.64-0.216,1-0.072.47-.18,0.94-0.252,1.37-3.058-.86-5-1.91-5.073-2.77-0.036-.18-0.072-0.22-0.216-0.22-0.18,0-.288.11-0.288,0.4a2.824,2.824,0,0,0,.683,1.98c1.08,1.19,1.8,1.55,4.534,2.3-0.108.44-.108,0.51-0.18,0.9a22.057,22.057,0,0,0-3.454,2.16,4.324,4.324,0,0,0-1.871,3.24c0,1.51,1.223,2.56,3.706,3.21a14.45,14.45,0,0,0-.216,2.62,6.594,6.594,0,0,0,1.979,5.26,7.673,7.673,0,0,0,5,1.76c4.1,0,6.873-2.48,6.873-6.12,0-2.66-1.44-5.22-4.174-7.48a8.83,8.83,0,0,0-2.771-1.69,0.287,0.287,0,0,0-.288.18,0.4,0.4,0,0,0,.252.25,25.116,25.116,0,0,1,2.519,2.55,9.571,9.571,0,0,1,1.907,5.69c0,2.81-1.835,4.57-4.822,4.57-3.166,0-5.037-2.09-5.037-5.61a16.056,16.056,0,0,1,.072-1.73,19.64,19.64,0,0,0,3.814.32c0.9,0,1.4-.36,1.4-0.97a1.114,1.114,0,0,0-.432-0.83,3.147,3.147,0,0,0-1.007-.75,1.383,1.383,0,0,0-.324.1,4.956,4.956,0,0,1-1.871.29C764.94,1271.81,764.616,1271.78,763.932,1271.74Zm28.648,2.92a3.229,3.229,0,0,0,.612.21,3.8,3.8,0,0,1,.9.25c0.828,0.51,1.26,1.52,1.26,3.06a9.282,9.282,0,0,1-.144,1.73c-0.144.94-.252,1.77-0.252,2.05a1.722,1.722,0,0,0,1.619,1.8,1.843,1.843,0,0,0,1.619-2.01,2.8,2.8,0,0,0-.035-0.54,23.8,23.8,0,0,1-.684-5.22,4.953,4.953,0,0,1,.4-1.84l4.929-14.4-0.719-.25-6.549,14.76-2.807-.29Zm0.4-13.25a4.476,4.476,0,0,1,1.979,2.88,10.65,10.65,0,0,0,.576,2.02,1.142,1.142,0,0,0,1.007.57,1.578,1.578,0,0,0,1.4-1.76,3.468,3.468,0,0,0-1.368-2.63,6.746,6.746,0,0,0-3.346-1.44h-0.252v0.36Zm1.475-7.92a6.488,6.488,0,0,1,2.735,2.88c1.007,2.66,1.007,2.66,1.727,2.66a1.505,1.505,0,0,0,1.511-1.69c0-2.09-2.446-3.92-5.721-4.24Zm13.674,3.6h-2.231c-0.216,0-1.116,0-2.051-.04l-2.771-.1,0.4,1.11c2.087-.11,2.663-0.11,4.426-0.11h2.231v4.5h-0.5c-1.295,0-2.375-.03-4.822-0.14l0.4,1.12c3.167-.11,3.275-0.11,4.426-0.11h4.066v3.63h-6.4l-2.914-1.22v18.11a0.452,0.452,0,0,0,.5.54,2.407,2.407,0,0,0,1.008-.29,0.821,0.821,0,0,0,.576-0.94v-15.33h7.232v8.13h-2.735v-3.92l0.576-.4a0.973,0.973,0,0,0,.468-0.72c0-.36-0.288-0.57-0.9-0.61l-2.2-.11v10.55a0.411,0.411,0,0,0,.36.5c0.72,0,1.691-.46,1.691-0.82v-3.6h8.025v2.48a0.428,0.428,0,0,0,.467.5c0.936,0,1.512-.36,1.512-1v-6.77l0.467-.25a0.949,0.949,0,0,0,.5-0.72c0-.4-0.288-0.61-0.9-0.65l-2.051-.11v5.65h-3.1v-8.13h7.377v12.52c-0.036.62-.072,0.72-0.54,0.72h-3.526v0.51l2.554,0.9c0.72,0.29.72,0.32,0.792,0.93a0.607,0.607,0,0,0,.684.72,2.2,2.2,0,0,0,2.231-1.98v-13.39l0.4-.1a0.606,0.606,0,0,0,.54-0.54,1.081,1.081,0,0,0-.36-0.69l-1.979-1.87-1.043,1.4h-7.125v-3.63h9.967a0.542,0.542,0,0,0,.576-0.54,0.93,0.93,0,0,0-.4-0.72l-2.447-1.69-1.691,2.08h-2.483v-4.5h8.205a0.459,0.459,0,0,0,.431-0.43,0.8,0.8,0,0,0-.359-0.61l-2.843-2.05-1.871,2.23h-3.563v-2.99l0.756-.36a0.856,0.856,0,0,0,.612-0.75,0.752,0.752,0,0,0-.828-0.65l-2.735-.22v4.97H810.32v-2.95l0.611-.32a0.932,0.932,0,0,0,.612-0.8,0.646,0.646,0,0,0-.755-0.57l-2.663-.33v4.97Zm2.2,5.36v-4.5h4.893v4.5H810.32Zm31.526,6.56c-1.619,6.8-3.166,10.11-6.693,14.14a1.007,1.007,0,0,0-.288.47,0.3,0.3,0,0,0,.324.29c0.252,0,.54-0.22,1.691-1.19a23.759,23.759,0,0,0,4.966-5.8c3.634,4.65,7.7,6.45,14.681,6.45,1.979,0,6.225-.15,9.248-0.29a7.622,7.622,0,0,1,1.583-2.95,105.431,105.431,0,0,1-11.479.61,24.529,24.529,0,0,1-3.958-.25v-7.74h12.235a0.394,0.394,0,0,0,.4-0.36,0.916,0.916,0,0,0-.216-0.54l-2.878-2.38-1.943,2.41h-7.593v-7.23h6.189v2.02a0.621,0.621,0,0,0,.72.68c1.044,0,1.871-.47,1.871-1.08v-10.01l0.648-.25a0.705,0.705,0,0,0,.5-0.61,0.83,0.83,0,0,0-.252-0.54l-2.375-2.2-1.08,1.62h-15l-2.519-1.65v14.72a0.414,0.414,0,0,0,.467.5c1.008,0,1.944-.54,1.944-1.08v-2.12h6.3v15.48a14.569,14.569,0,0,1-7.017-4.07,31.093,31.093,0,0,0,1.907-4.36l0.792-.36a0.748,0.748,0,0,0,.467-0.68,0.772,0.772,0,0,0-.539-0.72Zm1.188-5.22v-8.64H858.11v8.64H843.034Zm59.449-.62a1.489,1.489,0,0,0-1.224.26c0,0.1.036,0.1,0.252,0.14a6.064,6.064,0,0,1,3.527,2.95,0.733,0.733,0,0,0,.719.54,1.235,1.235,0,0,0,1.188-1.26C906.945,1264.47,904.714,1263.17,902.483,1263.17Zm-3.6,1.88a1.453,1.453,0,0,0-1.187.25c0,0.07.036,0.11,0.288,0.14a5.855,5.855,0,0,1,3.382,2.77,0.91,0.91,0,0,0,.792.65,1.244,1.244,0,0,0,1.187-1.19C903.346,1266.34,901.115,1265.05,898.884,1265.05Zm-3.526-6.63c-3.634.83-6.333,1.55-11.658,3.17a6.766,6.766,0,0,1-2.591.54c-1.26,0-1.979-.36-2.3-1.15a0.182,0.182,0,0,0-.18-0.18,0.219,0.219,0,0,0-.216.25,4.047,4.047,0,0,0,.72,2.48,4.978,4.978,0,0,0,2.591,1.41,2.822,2.822,0,0,0,1.835-.83,36.315,36.315,0,0,1,7.232-3.38,20.007,20.007,0,0,1,4.066-1.05,0.164,0.164,0,0,1,.18.15,0.283,0.283,0,0,1-.18.25c-3.382,2.99-5.937,9.03-5.937,14.14,0,4.76,3.742,7.64,10,7.64,2.267,0,3.167-.29,3.167-1.05a2.989,2.989,0,0,0-.612-1.4,1.708,1.708,0,0,0-1.367-.58,1.341,1.341,0,0,0-.432.04,12.375,12.375,0,0,1-2.483.21c-4.318,0-5.973-1.62-5.973-5.86a24.137,24.137,0,0,1,1.008-6.95c0.827-2.56,2.734-5.04,4.533-5.94a11.063,11.063,0,0,1,4.21-.94,10.413,10.413,0,0,1,2.519.36,2.662,2.662,0,0,0,1.08.26,0.817,0.817,0,0,0,.935-0.65,3.063,3.063,0,0,0-.935-1.62,2.473,2.473,0,0,0-1.871-1.05c-0.5,0-.5,0-4.246.94Zm32.318-2.45a0.546,0.546,0,0,1,.252-0.03c1.259,0,2.051.47,3.094,1.8a26.58,26.58,0,0,1,2.3,3.31,13.431,13.431,0,0,1-5.145,1.04c-1.332,0-2.123-.43-2.339-1.29-0.036-.15-0.072-0.18-0.18-0.18a0.358,0.358,0,0,0-.288.43c0,1.33,1.475,2.3,3.562,2.3a19.9,19.9,0,0,0,5.362-.86c1.295,2.2,1.547,2.66,2.087,3.74a23.293,23.293,0,0,1-8.456,1.66c-1.763,0-3.2-.61-3.6-1.58-0.216-.47-0.252-0.51-0.4-0.51a0.31,0.31,0,0,0-.252.36c0,1.98,1.547,3.21,3.994,3.21a34.986,34.986,0,0,0,9.715-1.59c1.908,3.24,2.915,5.26,2.915,5.98a0.614,0.614,0,0,1-.648.61,2.408,2.408,0,0,1-1.007-.29,15.76,15.76,0,0,0-5.362-1.08c-4.39,0-7.16,1.87-7.16,4.82a4.684,4.684,0,0,0,3.238,4.4,17.116,17.116,0,0,0,5.686.9c2.267,0,3.166-.47,3.166-1.59,0-.79-0.4-1.01-1.727-1.01-0.324,0-.72,0-1.295.04-0.684.04-1.224,0.04-1.656,0.04-3.526,0-5.433-1.05-5.433-3.03,0-2.23,1.979-3.71,4.966-3.71a11.439,11.439,0,0,1,7.556,2.74,1.3,1.3,0,0,0,.936.61,2.31,2.31,0,0,0,1.943-2.48,4.7,4.7,0,0,0-1.44-3.13,48.212,48.212,0,0,1-3.418-4.32,31.12,31.12,0,0,0,3.778-1.59c2.3-1.08,2.951-1.58,2.951-2.12s-1.224-1.12-2.339-1.12a1.094,1.094,0,0,0-.828.54,18.358,18.358,0,0,1-4.606,2.67c-0.719-1.08-1.151-1.84-2.123-3.46,2.483-.97,3.851-1.87,3.851-2.45a1.971,1.971,0,0,0-1.692-1.18,2.022,2.022,0,0,0-1.115.61,7.045,7.045,0,0,1-1.943,1.37c-1.332-2.24-1.655-3.06-1.691-4.14a1.193,1.193,0,0,0-.36-1.19,4.747,4.747,0,0,0-2.771-.94,2.749,2.749,0,0,0-2.087,1.01,1.04,1.04,0,0,0-.432.58,0.153,0.153,0,0,0,.144.14Zm49.446,23.91a1.065,1.065,0,0,1-.288.03,5.07,5.07,0,0,1-.971.07c-2.016,0-3.311-.75-3.311-1.9a1.421,1.421,0,0,1,1.619-1.37C975.755,1276.71,976.726,1277.75,977.122,1279.88Zm2.2-.51a2.1,2.1,0,0,0-.108-0.25,4.776,4.776,0,0,0-.972-1.69,5.27,5.27,0,0,0-4.066-1.84c-2.051,0-3.382,1.05-3.382,2.67,0,1.94,2.087,3.31,5.074,3.31a12.167,12.167,0,0,0,7.484-2.59,7.285,7.285,0,0,0,2.591-5.69,6.6,6.6,0,0,0-6.981-6.7,12.744,12.744,0,0,0-4.57.87,7.775,7.775,0,0,1-1.043.43,0.5,0.5,0,0,1-.18.07,0.314,0.314,0,0,1-.216-0.29c0-.32.54-1,2.159-2.84,2.951-3.28,4.75-4.86,6.261-5.54a0.8,0.8,0,0,0,.54-0.76c0-.97-2.447-2.63-3.85-2.63a1.679,1.679,0,0,0-1.188.43,20.392,20.392,0,0,1-7.125,2.52,1.257,1.257,0,0,1-1.331-.9c-0.036-.25-0.072-0.28-0.144-0.28-0.216,0-.288.18-0.288,0.82,0,1.44,1.116,2.88,2.267,2.88a2.283,2.283,0,0,0,1.3-.61c3.454-2.41,4.39-2.91,5.469-2.91a0.725,0.725,0,0,1,.756.79c0,0.54,0,.57-2.015,3.17-4.93,6.55-5.362,7.05-9.824,11.66a2.63,2.63,0,0,0-.971,1.55,2.054,2.054,0,0,0,1.475,1.72,1.388,1.388,0,0,0,1.259-.93,16.126,16.126,0,0,1,2.2-3.6c2.267-3.06,4.606-4.32,7.989-4.32,3.454,0,5.361,1.91,5.361,5.33A7.129,7.129,0,0,1,982.2,1277,5.875,5.875,0,0,1,979.317,1279.37Zm36.523-28.04c-4.56,6.88-8.74,11.16-13.31,13.64-1.62.9-1.73,0.98-1.73,1.19a0.365,0.365,0,0,0,.36.36c0.8,0,4.18-1.76,7.31-3.81v17.85c-1.66.14-1.69,0.14-4.14,0.18h-1.44l2.38,3.42a0.867,0.867,0,0,0,.64.4,0.833,0.833,0,0,0,.76-0.47l0.4-.87,11.76-3.06c0.36-.1.47-0.18,0.47-0.32a0.307,0.307,0,0,0-.36-0.29,7.632,7.632,0,0,0-1.15.15c-1.12.18-5.22,0.57-6.91,0.68v-7.88h4.68c3.09,6.19,7.84,9.86,15.61,12.13a7.148,7.148,0,0,1,2.85-2.92,30.557,30.557,0,0,1-12.02-3.6l6.94-3.89,1.15-.21a0.943,0.943,0,0,0,.87-0.54,0.689,0.689,0,0,0-.25-0.47l-2.52-1.98a63.368,63.368,0,0,1-7.09,6.48,17.164,17.164,0,0,1-4.46-5h5.86v1.04a0.507,0.507,0,0,0,.51.61,3.414,3.414,0,0,0,1.47-.54,0.8,0.8,0,0,0,.47-0.79v-7.45l0.57-.32a0.689,0.689,0,0,0,.44-0.58,1.047,1.047,0,0,0-.51-0.83l-2.34-1.55-0.82,1.37h-4.36v-2.52l0.87-.5a1.1,1.1,0,0,0,.46-0.72,0.736,0.736,0,0,0-.72-0.65l-2.98-.25v4.64h-4.28l-2.24-1.15a52.722,52.722,0,0,0,8.6-8.06,32.469,32.469,0,0,0,13.28,10.58,7.309,7.309,0,0,1,3.17-2.95,28.38,28.38,0,0,1-15.55-8.17l0.36-.22a0.613,0.613,0,0,0,.29-0.47,0.586,0.586,0,0,0-.39-0.43Zm-4.96,20.3v-3.2h11.62v3.2h-11.62Zm0-4.06v-3.32h11.62v3.32h-11.62Zm32.75,5.79c3.71-.14,5.11-0.18,6.69-0.18h7.92v3.2h-5.04c-1.69,0-2.99-.03-6.22-0.18l0.43,1.19c2.95-.11,4.17-0.14,5.79-0.14h5.04v3.49c0,0.47-.15.58-0.79,0.58h-0.98l-3.27-.15-0.07.65,2.95,0.79c0.32,0.07.61,0.15,0.9,0.22l0.07,0.03a1.6,1.6,0,0,1,.07.69,0.749,0.749,0,0,0,.69.93c1.18,0,2.7-1.22,2.7-2.23v-5h7.55v1.73c0,0.25.22,0.39,0.58,0.39a1.5,1.5,0,0,0,1.69-1.04v-5.15h5.4a0.362,0.362,0,0,0,.25-0.32,1.023,1.023,0,0,0-.33-0.65l-2.3-2.23-1.73,2.34h-1.29v-2.41l0.47-.22a0.584,0.584,0,0,0,.5-0.5,0.925,0.925,0,0,0-.43-0.69l-1.91-1.58-0.9,1.37h-7.55v-3.06h6.87v0.97a0.476,0.476,0,0,0,.47.47c0.75,0,1.65-.51,1.65-0.94v-3.85l0.43-.11a0.618,0.618,0,0,0,.43-0.47,0.989,0.989,0,0,0-.28-0.61l-2.02-1.62-0.9,1.26h-6.65v-2.84h14.57a0.41,0.41,0,0,0,.39-0.44,0.692,0.692,0,0,0-.28-0.54l-2.81-2.23-2.02,2.31h-9.85v-2.41l0.97-.51a0.688,0.688,0,0,0,.39-0.57,0.7,0.7,0,0,0-.75-0.72l-2.88-.29v4.5h-7.77c-1.73,0-3.24-.04-7.02-0.18l0.43,1.26c4-.15,5.18-0.18,6.59-0.18h7.77v2.84h-6.44l-2.52-1.33v7.52a0.525,0.525,0,0,0,.61.4,1.3,1.3,0,0,0,1.51-1.05v-0.64h6.84v3.06h-4.82c-1.91,0-3.13-.04-6.34-0.18l0.47,1.18c2.99-.1,4.25-0.14,5.87-0.14h4.82v3.17h-7.92c-1.83,0-3.38-.04-7.16-0.22Zm7.77-9v-3.17h6.84v3.17h-6.84Zm9.11,12.02v-3.2h7.55v3.2h-7.55Zm0-4.06v-3.17h7.55v3.17h-7.55Zm0-7.96v-3.17h6.87v3.17h-6.87Zm29.54-11.95c-0.47,8.24-1.87,13.68-5.07,19.26-0.65,1.04-.65,1.04-0.65,1.26a0.277,0.277,0,0,0,.29.25c0.29,0,.61-0.32,1.44-1.33a28,28,0,0,0,3.74-6.59,36.42,36.42,0,0,0,2.2,8.1,28.554,28.554,0,0,1-6.81,8.6,1.975,1.975,0,0,0-.82.98,0.226,0.226,0,0,0,.21.21,16.164,16.164,0,0,0,3.71-2.63,29.4,29.4,0,0,0,4.57-5.04,11.061,11.061,0,0,0,6.4,5.76c3.35,1.19,7.99,1.8,13.93,1.8,0.32,0,.36,0,2.99-0.03a7.348,7.348,0,0,1,2.48-3.21c-3.96.33-7.31,0.47-9.72,0.47-4.64,0-8.78-.86-11.26-2.34a10.379,10.379,0,0,1-3.74-4.07c2.19-3.85,3.09-6.26,4.42-12.16l0.62-.33a0.915,0.915,0,0,0,.5-0.68,1.335,1.335,0,0,0-.5-0.83l-1.98-1.8-1.3,1.66h-4.06l1.04-4.54,1.01-.61a0.845,0.845,0,0,0,.57-0.68,0.932,0.932,0,0,0-.86-0.76Zm5.94,8.17c-1.08,5.4-1.94,8.28-3.2,10.87a34.366,34.366,0,0,1-2.27-7.88c0.47-1.4.54-1.62,0.9-2.99h4.57Zm6.26-5.9v7.05c0,7.35-1.01,10.33-4.64,13.75-0.65.58-.76,0.69-0.72,0.87a0.308,0.308,0,0,0,.29.25c1.11,0,4.64-3.38,5.72-5.47,1.11-2.12,1.62-4.86,1.62-8.68v-5.43h3.88v16.92a1.7,1.7,0,0,0,.83,1.4c0.51,0.32,1.26.4,3.13,0.4,2.66,0,3.82-.15,4.61-0.51a1.386,1.386,0,0,0,.79-1.04,0.57,0.57,0,0,0-.29-0.47,3.5,3.5,0,0,0-.47-0.32c-0.21-.15-0.32-0.22-0.36-0.26a1.526,1.526,0,0,1-.14-0.61l-0.14-3.99h-0.51c-1.29,5.07-1.4,5.25-2.62,5.25-0.72,0-1.98-.07-2.2-0.11s-0.29-.14-0.29-0.46v-15.3l0.69-.22a0.856,0.856,0,0,0,.57-0.72,1.176,1.176,0,0,0-.57-0.86l-2.13-1.62-1.29,1.65h-3.24Zm50.71,8.49a1.5,1.5,0,0,0-1.23.26c0,0.1.04,0.1,0.25,0.14a6.055,6.055,0,0,1,3.53,2.95,0.738,0.738,0,0,0,.72.54,1.235,1.235,0,0,0,1.19-1.26C1157.42,1264.47,1155.19,1263.17,1152.96,1263.17Zm-3.6,1.88a1.46,1.46,0,0,0-1.19.25c0,0.07.04,0.11,0.29,0.14a5.863,5.863,0,0,1,3.38,2.77,0.91,0.91,0,0,0,.79.65,1.249,1.249,0,0,0,1.19-1.19C1153.82,1266.34,1151.59,1265.05,1149.36,1265.05Zm-3.53-6.63c-3.63.83-6.33,1.55-11.66,3.17a6.752,6.752,0,0,1-2.59.54c-1.26,0-1.98-.36-2.3-1.15a0.186,0.186,0,0,0-.18-0.18,0.224,0.224,0,0,0-.22.25,4.1,4.1,0,0,0,.72,2.48,5.013,5.013,0,0,0,2.59,1.41,2.829,2.829,0,0,0,1.84-.83,36.259,36.259,0,0,1,7.23-3.38,19.885,19.885,0,0,1,4.07-1.05,0.162,0.162,0,0,1,.18.15,0.29,0.29,0,0,1-.18.25c-3.38,2.99-5.94,9.03-5.94,14.14,0,4.76,3.74,7.64,10,7.64,2.27,0,3.17-.29,3.17-1.05a2.965,2.965,0,0,0-.61-1.4,1.709,1.709,0,0,0-1.37-.58,1.334,1.334,0,0,0-.43.04,12.387,12.387,0,0,1-2.48.21c-4.32,0-5.98-1.62-5.98-5.86a24.2,24.2,0,0,1,1.01-6.95c0.83-2.56,2.74-5.04,4.53-5.94a11.1,11.1,0,0,1,4.21-.94,10.359,10.359,0,0,1,2.52.36,2.681,2.681,0,0,0,1.08.26,0.822,0.822,0,0,0,.94-0.65,3.089,3.089,0,0,0-.94-1.62,2.463,2.463,0,0,0-1.87-1.05c-0.5,0-.5,0-4.24.94Zm39.01,8.71c0.76,0.08,1.08.69,1.08,2.06,0,3.56-.54,5.21-1.73,5.21-1.11,0-2.01-1.51-2.01-3.38a4.889,4.889,0,0,1,1.01-3.09A2.473,2.473,0,0,1,1184.84,1267.13Zm6.77-6.55-2.13.29-1.11.18-0.47.07c0.22-3.17.29-3.63,0.76-4.64a2.106,2.106,0,0,0,.28-0.83c0-.32-0.28-0.61-1.22-1.19a3.4,3.4,0,0,0-1.91-.75c-0.75,0-2.37.61-2.37,0.93a0.222,0.222,0,0,0,.25.15,1.92,1.92,0,0,1,1.94,1.15c0.26,0.54.29,0.93,0.44,5.43-2.27.26-4.54,0.58-8.1,1.26a25.608,25.608,0,0,1-4.68.72,2.172,2.172,0,0,1-2.27-1.47c-0.03-.15-0.07-0.18-0.18-0.18-0.18,0-.21.11-0.21,0.47a3.016,3.016,0,0,0,.79,2.48,3.617,3.617,0,0,0,2.05,1.19,2.975,2.975,0,0,0,1.4-.43c2.85-1.37,6.05-2.24,11.23-3.06-0.03.82-.03,1.04-0.03,1.8,0,0.82,0,1.18.03,2.12a2.68,2.68,0,0,0-1.4-.36c-2.2,0-4,2.41-4,5.4,0,2.55,1.73,4.86,3.67,4.86,0.87,0,1.41-.58,1.91-2.05l0.33,0.1c-0.44,4.65-2.81,7.67-7.13,9.15-0.29.07-.36,0.14-0.36,0.25a0.277,0.277,0,0,0,.32.29,10.711,10.711,0,0,0,5.04-1.95c3.2-2.23,4.54-5.14,4.54-9.82a14.375,14.375,0,0,0-.36-3.53,3.651,3.651,0,0,0-1.05-1.48v-1.04c0-.83.04-1.26,0.22-3.89,1.65-.14,2.34-0.18,3.17-0.18a33.914,33.914,0,0,1,6.15.76c0.21,0.03.39,0.07,0.5,0.07a0.886,0.886,0,0,0,.79-0.86,1.785,1.785,0,0,0-.9-1.26,4.094,4.094,0,0,0-2.51-.8,10.672,10.672,0,0,1-4.36-1.54,1.286,1.286,0,0,0-.54-0.26,0.227,0.227,0,0,0-.21.22,0.594,0.594,0,0,0,.36.36,20.612,20.612,0,0,1,2.23,1.73Z" transform="translate(-211.469 -1203.75)"/>
</svg>
