<svg xmlns="http://www.w3.org/2000/svg" viewBox="0 0 432.31 32.58"><defs><style>.cls-1{isolation:isolate;}.cls-2{fill:#333;}</style></defs><title>drift-enjoy-point-title</title><g id="Layer_2" data-name="Layer 2"><g id="Layer_1-2" data-name="Layer 1"><g class="cls-1"><path class="cls-2" d="M4.79,14.87c0,6.44.1,9.86.28,12.27.07.76.11,1.3.11,1.62,0,1.51-.54,2.63-1.29,2.63S2,29.77,2,28.87a4.67,4.67,0,0,1,.11-.94c.28-2,.57-10,.57-17.17,0-3.38-.11-4.57-.57-5.33A1.94,1.94,0,0,0,.36,4.54C.11,4.5,0,4.43,0,4.21S.11,4,.32,3.89a9.19,9.19,0,0,1,2.2-.61c.54,0,1,.25,2.62,1.26.47.32.69.57.69.82a2,2,0,0,1-.18.69c-.58,1-.79,2.66-.86,6.69a15,15,0,0,1,7.55,2.34c1.94,1.33,2.84,2.49,2.84,3.64a1.47,1.47,0,0,1-1.51,1.58c-.79,0-1.22-.32-2.09-1.73a12.67,12.67,0,0,0-6.79-5.25ZM16.37,9a1.23,1.23,0,0,1-1.15,1.23c-.54,0-.79-.18-1.08-.76a6.41,6.41,0,0,0-3.49-2.92c-.14-.07-.22-.1-.22-.18s.44-.25,1.05-.25C14,6.08,16.37,7.49,16.37,9Zm4-2.08A1.23,1.23,0,0,1,19.18,8.1a1,1,0,0,1-1.05-.68,6.66,6.66,0,0,0-3.67-3.06c-.1,0-.18-.11-.18-.19s.44-.25,1-.25C17.88,3.92,20.33,5.36,20.33,6.88Z"/><path class="cls-2" d="M32.71,7a.23.23,0,0,1-.18-.21,4,4,0,0,1,2.09-.9,4.77,4.77,0,0,1,1.87.79c1,.5,1.19.72,1.19,1a3.13,3.13,0,0,1-.07.43,19.26,19.26,0,0,0-.29,4.14c0,.62,0,1.44.07,2.52,0,.8.07,1.62.07,1.66a8.34,8.34,0,0,0,.07,1.3,2.27,2.27,0,0,1,0,.46.84.84,0,0,1-.76.87,2.32,2.32,0,0,1-2-1.73,1.59,1.59,0,0,1,0-.36A38.68,38.68,0,0,0,35,12.38c0-3-.07-4-.39-4.5A1.67,1.67,0,0,0,33,7a.53.53,0,0,0-.22,0ZM43,5.4a.2.2,0,0,1-.11,0,.34.34,0,0,1-.28-.32c0-.32,1.54-1,2.26-1,1.05,0,3.39,1.55,3.39,2.23,0,.14,0,.25-.26.61-.28.54-.36.65-.43.79s0,.43-.07,1.33c0,2.88-.18,7.46-.36,8.64-.72,5.12-4.1,9-9.57,11.09a18,18,0,0,1-4.17,1.3c-.26,0-.58-.18-.58-.36s.11-.15.47-.26a20.23,20.23,0,0,0,7.05-4C44.19,21.53,45,18.93,45,9.9l0-1.51c0-1.8-.72-3-1.84-3Z"/><path class="cls-2" d="M73.7,24.66A29.75,29.75,0,0,1,64,28.8a2.15,2.15,0,0,1-.47.1,1.61,1.61,0,0,1-.32.08c-.22,0-.5-.18-.5-.36s.1-.22.54-.36A38.12,38.12,0,0,0,73,22.89a30.59,30.59,0,0,0,7.23-8.78A13.72,13.72,0,0,0,81.8,9.75c0-.57-.43-.9-1.08-.9a47.12,47.12,0,0,0-12,2.09,1.82,1.82,0,0,1-.62.18A4.76,4.76,0,0,1,66.07,10a2.7,2.7,0,0,1-.82-1.91c0-.68.1-1,.36-1,.1,0,.14.07.25.32.21.68,1.47,1.26,2.84,1.26s6-.47,9.5-1a6.4,6.4,0,0,0,3.09-.94c.79-.47.87-.5,1.19-.5s.54.11,1.15.5c.15.08.43.29.83.54,2,1.19,2.23,1.41,2.23,1.66s-.36.65-1.62,1.4C81.15,18.18,78.45,21.6,73.7,24.66Z"/><path class="cls-2" d="M106.31,14.43c0,6.45.1,9.87.28,12.28.08.75.11,1.29.11,1.62,0,1.51-.54,2.63-1.29,2.63s-1.91-1.62-1.91-2.52a5.13,5.13,0,0,1,.11-.94c.29-2,.57-10,.57-17.17,0-3.38-.14-4.61-.57-5.33a1.81,1.81,0,0,0-1.73-.9c-.25,0-.36-.1-.36-.32s.11-.25.32-.36a10.38,10.38,0,0,1,2.2-.58c.54,0,1,.26,2.63,1.26.46.33.68.58.68.83a2,2,0,0,1-.18.69c-.58,1-.79,2.66-.86,6.69a15.33,15.33,0,0,1,7.55,2.34c1.94,1.33,2.84,2.48,2.84,3.64a1.47,1.47,0,0,1-1.51,1.58c-.79,0-1.18-.33-2.08-1.69a13,13,0,0,0-6.8-5.29Z"/><path class="cls-2" d="M144.2,11.23c-1.87-2.63-2.81-3.6-4.32-4.53a8.77,8.77,0,0,0-4.75-1.48c-3,0-5.14,1.8-5.14,4.32a3,3,0,0,0,1.55,2.7c1,.68,1.11.72,5.32,2.27l2.52,1a20.45,20.45,0,0,1,3.92,1.65,6.23,6.23,0,0,1,3.24,5.69,7.12,7.12,0,0,1-3,6,10.16,10.16,0,0,1-6.22,1.72,12,12,0,0,1-3.64-.64,5.92,5.92,0,0,0-2.15-.47,3.76,3.76,0,0,0-2.31.86l-2.48-7.16,1.15-.51c3.35,4.9,5.9,6.66,9.54,6.66s6.47-2.34,6.47-5.47a4,4,0,0,0-2.37-3.67c-1.37-.79-2.09-1-5.94-2.34-4.39-1.44-5.54-2-6.76-3.31a5.91,5.91,0,0,1-1.41-3.85c0-3.85,3.31-6.59,8-6.59,1.29,0,1.8.11,4.67,1a2.7,2.7,0,0,0,.83.15c.54,0,1-.29,2-1.26l2.41,6.91Z"/><path class="cls-2" d="M171.19,12.09a8.3,8.3,0,0,1,5.36-2.3c2.56,0,4.53,1.51,4.53,3.46a2.12,2.12,0,0,1-.93,1.9c-.76.58-1,.65-4.32,2a64.76,64.76,0,0,0-7.7,3.49c.11,1.59.18,2.74.18,3.32,0,1.8-.36,2.26-1.8,2.26-.43,0-.64-.14-.64-.36a1,1,0,0,1,0-.28,28.77,28.77,0,0,0,.18-3.89c-3.09,1.83-4.35,3.27-4.35,4.89,0,1.8,1.69,2.52,5.9,2.52a20.78,20.78,0,0,0,5.29-.64,2.71,2.71,0,0,1,.93-.18,1.92,1.92,0,0,1,1.73,1.47c0,1.19-2.37,1.8-7.27,1.8a11.84,11.84,0,0,1-5.86-1.08A4.28,4.28,0,0,1,160,26.78a4.55,4.55,0,0,1,1.84-3.38A26.68,26.68,0,0,1,166,20.62a13.73,13.73,0,0,0-.46-4.53,1.87,1.87,0,0,0-1.69-1.26,4.21,4.21,0,0,0-2.56,1.33A21.74,21.74,0,0,0,158.24,20c-.4.69-.79,1-1.19,1s-1.26-1.19-1.26-2.12c0-.47.14-.72.86-1.26,3.89-3.39,6.27-6.88,6.95-10.22a11.25,11.25,0,0,1-3.13.61,2.24,2.24,0,0,1-1.87-1.3,4.68,4.68,0,0,1-.54-1.37.15.15,0,0,1,.14-.14s.11,0,.18.14a2.27,2.27,0,0,0,2.12.94,9.58,9.58,0,0,0,3.28-.58,6.26,6.26,0,0,0,.11-1,1.7,1.7,0,0,0-1.69-1.94c-.15,0-.18,0-.18-.14,0-.33,1.22-.9,1.9-.9a2.48,2.48,0,0,1,2.38,2.12A5.49,5.49,0,0,1,166,5.22,5.25,5.25,0,0,0,168.31,4c1.23.61,1.59.86,1.59,1.15s-.8.75-4.21,1.76a41.42,41.42,0,0,1-4.11,7.67,5.64,5.64,0,0,1,2.38-.65,3.63,3.63,0,0,1,2.3.83,5.13,5.13,0,0,1,1.33,2.55A14.67,14.67,0,0,1,171.19,12.09Zm1.55,4.68a36.63,36.63,0,0,0,4.6-2.7,2,2,0,0,0,.72-1.26,2.17,2.17,0,0,0-2.19-1.8c-1.87,0-4.32,1.7-5.72,4A18.42,18.42,0,0,0,168,19.44C169.46,18.57,169.71,18.43,172.74,16.77Z"/><path class="cls-2" d="M205.45,16.67h-2.37v1.47c0,.4-.65.72-1.44.72-.4,0-.65-.21-.65-.54V3.6L203.51,5h1.62a31.69,31.69,0,0,0,.68-5l2.84.47c.43.07.69.32.69.61a1,1,0,0,1-.51.75l-.75.55L206.53,5H210l.86-1.37,2.05,2a.86.86,0,0,1,.25.58.66.66,0,0,1-.39.54l-.58.32V17.49c0,.65-.68,1.12-1.62,1.12-.32,0-.47-.18-.47-.54v-1.4h-2.41V20.8h10l1.87-2.33,2.88,2.37c.25.18.36.36.36.5a.37.37,0,0,1-.4.33H208.62c3.52,3.56,8.85,6,15,6.91a9.74,9.74,0,0,0-2.77,2.81,29.37,29.37,0,0,1-7.42-3.78,25.73,25.73,0,0,1-5.72-5.47v9.5a.5.5,0,0,1-.11.36,2.77,2.77,0,0,1-1.58.58.52.52,0,0,1-.54-.47V22.93a39.69,39.69,0,0,1-9.86,6.62,22,22,0,0,1-5.11,2,.29.29,0,0,1-.32-.29c0-.18,0-.18,2.12-1.26a40.81,40.81,0,0,0,11-8.31h-5.47c-2.48.07-3.59.07-6.62.18l-.46-1.26,3.84.14c1.59,0,2.67.07,3.24.07h7.63Zm-5.29-4-5.83,4.79-.14.69c-.11.46-.4.75-.72.75a.8.8,0,0,1-.4-.14l-2.3-2.27c3.13-1.37,4.21-1.91,9.1-4.5ZM192,3.74c3.63.87,6.08,2.92,6.08,5a1.42,1.42,0,0,1-1.3,1.58,1.21,1.21,0,0,1-.9-.4c-.25-.25-.25-.25-1-2.23a10.7,10.7,0,0,0-3.06-3.53Zm18.13,6.66V5.87h-7V10.4Zm0,5.4V11.27h-7V15.8ZM220.78,5.22a.41.41,0,0,1,.18.32c0,.18-.22.36-.68.47l-1.23.32-5.22,4.4c-.36.28-.54.39-.71.39s-.29-.11-.29-.32.14-.4,1.58-2.23c1-1.34,1.91-2.63,3.81-5.47Zm-7.52,6.55c2.91.47,4.21.86,5.61,1.69s2.3,1.87,2.3,2.88a1.31,1.31,0,0,1-1.25,1.33c-.47,0-.58-.1-2.45-2.26a14.59,14.59,0,0,0-4.28-3Z"/><path class="cls-2" d="M255.44,23.11c0,.61-.83,1.94-2.06,3.35-2.84,3.16-6.08,4.75-9.85,4.75a7.92,7.92,0,0,1-6-2.27c-1.51-1.62-2.16-3.74-2.16-7,0-2.16,0-2.63.72-12,.21-3,.21-3,.21-3.46,0-2.3-.54-3.27-1.76-3.27-.21,0-.32-.07-.32-.18,0-.4.75-.72,1.58-.72,1.83,0,3.6,2.09,3.6,4.32a9.55,9.55,0,0,1-.54,2.73,78.1,78.1,0,0,0-1.51,12.35c0,5,2,7.31,6.47,7.31a13.27,13.27,0,0,0,7.88-2.92,14,14,0,0,0,3.06-2.92c.15-.25.29-.35.43-.35A.29.29,0,0,1,255.44,23.11Z"/><path class="cls-2" d="M274.4,6.19c0-2.37-.36-2.95-1.83-3-.29,0-.32,0-.32-.15,0-.28,1.4-.93,2-.93a5.71,5.71,0,0,1,2.27.75,1.48,1.48,0,0,1,.75,1.08,3.58,3.58,0,0,1-.25,1,18.9,18.9,0,0,0-.61,3c1.62-.61,2.16-1,2.55-1.66,1.12.07,2.16.76,2.16,1.33,0,.33-.18.47-.86.8a25,25,0,0,1-4.21,1.54c-.25,1.88-.29,2.13-.54,3.93a1.63,1.63,0,0,1,1.26,1.55,24.63,24.63,0,0,1-1.15,4.53c-1,3.46-1.37,5.11-1.37,6.44,0,1.66,1.26,2.42,4.07,2.42a21.45,21.45,0,0,0,6.9-1.26c1.23-.58,1.7-1.44,1.7-3.17,0-1.08,0-1.51-.54-6.8a51.37,51.37,0,0,1-.36-5.19c0-2.3.93-3.49,2.73-3.49,3.27,0,7.45,3.42,7.45,6.12,0,1.19-1,2.52-1.8,2.52-.14,0-.25-.07-.36-.25-.86-1-1.69-1.26-3.78-1.23-.29,0-.43-.07-.43-.25s0-.18.32-.21a1.9,1.9,0,0,0,.44-.11c.5-.07.9-.18,1.29-.25,1.12-.22,1.48-.47,1.48-1a5.39,5.39,0,0,0-1.44-2.63,5.27,5.27,0,0,0-3.35-1.84c-1,0-1.58.94-1.58,2.85a42.17,42.17,0,0,0,.9,8.13c.54,2.45,1,3.49,1.9,4.29a1.82,1.82,0,0,1,.18.82c0,1.16-.75,2.16-2.19,3a18.85,18.85,0,0,1-8.49,1.84c-4.61,0-6.8-1.41-6.8-4.36a17.32,17.32,0,0,1,.43-3,1.89,1.89,0,0,1-1.4.54c-1.41,0-2.31-1.66-2.31-4.18,0-3.42,1.95-6.15,4.36-6.15a4,4,0,0,1,.54,0c.07-1.62.1-1.87.18-3.2a17.91,17.91,0,0,1-4.68.9c-1.15,0-1.66-.29-2.05-1.15A6.4,6.4,0,0,1,267,7.52c0-.18.07-.29.21-.29s.11,0,.18.19A2.48,2.48,0,0,0,270,9.36a17.38,17.38,0,0,0,4.36-.83c0-.61,0-1.11,0-1.3ZM271.74,16a8.51,8.51,0,0,0-.83,3.75c0,1.4.54,2.37,1.3,2.37s1-.5,1.26-1.73c.29-1.54.68-4.17.68-4.5,0-.72-.25-1.15-.72-1.22S272.14,15.23,271.74,16Z"/><path class="cls-2" d="M313.63,17.64a11.41,11.41,0,0,1-.79,4.35c-.86,2.09-2.88,3.78-4.5,3.78a1.88,1.88,0,0,1-1.55-1.58c0-.54.18-.69,1.37-1.23A8.87,8.87,0,0,0,313,17.53c0-.18.11-.22.25-.22S313.63,17.42,313.63,17.64ZM321,13.07c0,.72,0,2.37,0,5l.07,4c0,1.27,0,2.52.08,2.7,0,.69,0,1.3,0,1.66A3.45,3.45,0,0,1,320,29.26a3.29,3.29,0,0,1-2,1c-.36,0-.5-.22-.54-.8-.11-1.62-.65-2.52-2.41-4-.14-.15-.21-.22-.21-.33a.42.42,0,0,1,.36-.32c.14,0,.36.11.86.43,1.33.87,1.65,1.05,2,1.05.86,0,.86,0,.9-7.31,0-3.24.07-4.86.07-4.86v-1a32.39,32.39,0,0,0-7.55,1.59,3,3,0,0,1-1,.25,4,4,0,0,1-1.62-.65,2.83,2.83,0,0,1-1.48-2.45c0-.21.08-.32.22-.32a.47.47,0,0,1,.29.21c.5.65,1.33.87,3.09.87a77.25,77.25,0,0,0,8-.69c0-5.47-.22-5.86-2.27-6.12-.22,0-.32-.07-.32-.14,0-.36,1.33-1.08,2-1.08A4.53,4.53,0,0,1,321,5.65c.58.47.9.83.9,1a.7.7,0,0,1-.11.35c-.46.76-.57,1.37-.75,4.58,4.06-.33,6.26-.72,7.45-1.3.72-.4.72-.4,1-.4.5,0,1,.26,2.19,1.05.83.54,1.08.83,1.08,1.22a.93.93,0,0,1-.86.87,5.13,5.13,0,0,1-.65-.08A35.75,35.75,0,0,0,326,12.6c-1.51,0-3.6.14-5,.29Zm6.69,4.86c3,1.8,4.78,3.92,4.78,5.75a1.81,1.81,0,0,1-1.69,2c-.68,0-.9-.25-1.29-1.76-.69-2.73-3.24-5.87-5.51-6.69-.18-.08-.25-.15-.25-.26s.18-.28.4-.28A8.55,8.55,0,0,1,327.7,17.93Zm6.19-13.57A3.53,3.53,0,1,1,330.4.83,3.53,3.53,0,0,1,333.89,4.36Zm-5.83,0a2.3,2.3,0,1,0,2.27-2.31A2.31,2.31,0,0,0,328.06,4.36Z"/><path class="cls-2" d="M358.61,13.61c1.84.82,1.84.82,1.84,1.18a1.23,1.23,0,0,1-.15.51,8.13,8.13,0,0,0-.32,2.88l.07,3.67V26l0,2.49c0,.46,0,.9,0,1.18,0,.94-.32,1.48-.86,1.48-1.08,0-2.34-.94-2.34-1.76a3.1,3.1,0,0,1,.11-.69,116.06,116.06,0,0,0,.86-12.45,3.65,3.65,0,0,0-.43-2.13,45.88,45.88,0,0,1-9.35,7.42,16.09,16.09,0,0,1-4,1.69c-.14,0-.36-.14-.36-.29s.08-.18.36-.29c5.69-2.59,16.81-14,16.81-17.13,0-.36-.69-1-1.19-1.11-.32-.08-.4-.15-.4-.29s.76-.51,1.48-.51c1.33,0,4.06,1.95,4.06,2.92,0,.25-.1.36-.43.54a2.55,2.55,0,0,0-1.29,1.08,61.29,61.29,0,0,1-5,5.29Z"/><path class="cls-2" d="M387.33,11.45A1.5,1.5,0,0,1,385.68,13c-.47,0-.72-.18-1.08-.82a7.93,7.93,0,0,0-5.54-4.43c-.22-.07-.33-.15-.33-.25,0-.26.65-.44,1.69-.44C383.88,7.05,387.33,9.25,387.33,11.45Zm-4.67,16a5.37,5.37,0,0,1-2.59-1.87,2.64,2.64,0,0,1-.9-2.27c0-.69.18-1.23.43-1.23s.21.08.28.26A2.55,2.55,0,0,0,382,24.15c1.48,0,5.83-2.7,11-6.84a70.11,70.11,0,0,0,6.73-6c.72-.72,2.66-3,3-3.38s.43-.58.61-.58a.3.3,0,0,1,.29.33c0,.57-1.58,3-3.38,5.22a56.33,56.33,0,0,1-7.7,7.77,54.55,54.55,0,0,1-8.57,5.9C383.41,27.18,383,27.43,382.66,27.43Z"/><path class="cls-2" d="M421.92,14.43c0,6.45.1,9.87.28,12.28.08.75.11,1.29.11,1.62,0,1.51-.54,2.63-1.29,2.63s-1.91-1.62-1.91-2.52a5.13,5.13,0,0,1,.11-.94c.29-2,.57-10,.57-17.17,0-3.38-.14-4.61-.57-5.33a1.81,1.81,0,0,0-1.73-.9c-.25,0-.36-.1-.36-.32s.11-.25.33-.36a10.2,10.2,0,0,1,2.19-.58c.54,0,1,.26,2.63,1.26.46.33.68.58.68.83a2,2,0,0,1-.18.69c-.58,1-.79,2.66-.86,6.69a15.33,15.33,0,0,1,7.55,2.34c1.95,1.33,2.84,2.48,2.84,3.64a1.47,1.47,0,0,1-1.51,1.58c-.79,0-1.18-.33-2.08-1.69a13,13,0,0,0-6.8-5.29Z"/></g></g></g></svg>