<svg xmlns="http://www.w3.org/2000/svg" viewBox="0 0 610.16 32.58"><defs><style>.cls-1{fill:#333;}</style></defs><title>enjoy-wildracer-title</title><g id="レイヤー_2" data-name="レイヤー 2"><g id="レイヤー_1-2" data-name="レイヤー 1"><path class="cls-1" d="M.18,7.38A.2.2,0,0,1,0,7.16C0,7,.43,6.8,1.22,6.8A5.43,5.43,0,0,1,4.43,8a6.25,6.25,0,0,0,.75,0,90.85,90.85,0,0,0,9.07-1,12.85,12.85,0,0,0,4.58-1.3,1.75,1.75,0,0,1,.72-.21c.36,0,.82.32,2,1.4.93.86,1.18,1.15,1.18,1.37s-.39.79-1.29,1.47c-1.8,5.91-3,8.61-5.22,11.52a22.9,22.9,0,0,1-9.43,7.24,23.11,23.11,0,0,1-3.1.93A.58.58,0,0,1,3.13,29c0-.08.07-.15.29-.22A22.41,22.41,0,0,0,7.31,27a22,22,0,0,0,8.28-9c1.4-2.7,2.84-7.13,2.84-8.75,0-.86-.61-1.22-2.12-1.22-.94,0-4.54.43-8.5,1a8.13,8.13,0,0,0-3.09.8l.14,1a51.81,51.81,0,0,1,.86,6.66c0,.83-.32,1.37-.86,1.37-.83,0-2.05-1-2.05-1.69,0-.08,0-.22.07-.47a7.16,7.16,0,0,0,.07-1,43.56,43.56,0,0,0-.83-6.37c-.28-1.23-1-2-1.76-2Z"/><path class="cls-1" d="M51.73,13.61c1.84.82,1.84.82,1.84,1.18a1.23,1.23,0,0,1-.15.51,8.13,8.13,0,0,0-.32,2.88l.07,3.67V26l0,2.49c0,.46,0,.9,0,1.18,0,.94-.32,1.48-.86,1.48-1.08,0-2.34-.94-2.34-1.76a2.61,2.61,0,0,1,.11-.69A115.87,115.87,0,0,0,51,16.2a3.73,3.73,0,0,0-.43-2.13,45.91,45.91,0,0,1-9.36,7.42,16.09,16.09,0,0,1-4,1.69c-.14,0-.36-.14-.36-.29s.08-.18.36-.29C42.91,20,54,8.64,54,5.47c0-.36-.68-1-1.18-1.11-.33-.08-.4-.15-.4-.29s.76-.51,1.48-.51C55.26,3.56,58,5.51,58,6.48c0,.25-.1.36-.43.54A2.55,2.55,0,0,0,56.27,8.1a59.84,59.84,0,0,1-5,5.29Z"/><path class="cls-1" d="M84.85,9.39c1.08.58,1.87,1.3,1.87,1.62,0,.15,0,.18-.32.44a2.83,2.83,0,0,0-.47,1.33,31.14,31.14,0,0,1-3.45,8.75c-2,3.2-6.23,7.37-7.6,7.37a.41.41,0,0,1-.43-.39c0-.15.11-.29.36-.43a19.41,19.41,0,0,0,5-5.94c1.91-3.28,3.42-8.1,3.42-10.87a2,2,0,0,0-1.19-1.95c-.18-.07-.25-.18-.25-.29s.21-.28.5-.28A6.06,6.06,0,0,1,84.85,9.39Zm5,6.09c0-3.17.07-4.83.07-4.9a4,4,0,0,0-.29-2.09,1.88,1.88,0,0,0-.72-.5c-.21,0-.29-.07-.29-.22s.72-.5,1.16-.5a4.08,4.08,0,0,1,2.3,1c.94.65,1,.75,1,1s0,.18-.28.5a7.36,7.36,0,0,0-.65,2.88c-.11,1.34-.36,6.88-.36,8.1,0,.51.18.72.57.72,1.34,0,4.14-1.62,6.74-3.88a40.21,40.21,0,0,0,7.12-8.28c.22-.44.33-.54.47-.54a.5.5,0,0,1,.4.43A21.1,21.1,0,0,1,104.4,14a32.85,32.85,0,0,1-5.58,6.23,31.69,31.69,0,0,1-5,3.42,4.78,4.78,0,0,0-2.2,1.58.42.42,0,0,1-.21.11c-.58,0-2.27-2-2.27-2.63a1.49,1.49,0,0,1,.14-.43,3.84,3.84,0,0,0,.47-2.45Z"/><path class="cls-1" d="M127.44,14.87c0,6.44.11,9.86.29,12.27.07.76.1,1.3.1,1.62,0,1.51-.54,2.63-1.29,2.63s-1.91-1.62-1.91-2.52a5.54,5.54,0,0,1,.11-.94c.29-2,.58-10,.58-17.17,0-3.38-.11-4.57-.58-5.32a1.92,1.92,0,0,0-1.73-.9c-.25,0-.36-.11-.36-.33s.11-.25.33-.32a9.16,9.16,0,0,1,2.19-.61c.54,0,1,.25,2.63,1.26.47.32.68.57.68.82a1.91,1.91,0,0,1-.18.69c-.57,1-.79,2.66-.86,6.69A15,15,0,0,1,135,15.08c1.94,1.33,2.84,2.49,2.84,3.64a1.47,1.47,0,0,1-1.51,1.58c-.79,0-1.22-.32-2.09-1.73a12.69,12.69,0,0,0-6.8-5.25ZM139,9a1.23,1.23,0,0,1-1.15,1.23c-.54,0-.79-.18-1.08-.76a6.39,6.39,0,0,0-3.49-2.91c-.15-.08-.22-.11-.22-.19s.43-.25,1-.25C136.65,6.08,139,7.49,139,9Zm4-2.08a1.23,1.23,0,0,1-1.15,1.22,1,1,0,0,1-1.05-.68,6.71,6.71,0,0,0-3.67-3.06c-.11,0-.18-.11-.18-.18s.43-.26,1-.26C140.54,3.92,143,5.36,143,6.88Z"/><path class="cls-1" d="M162.32,13.71V12.56c0-.68,0-1.15,0-1.33a2.91,2.91,0,0,0-2.31-3c-.18-.07-.28-.15-.28-.22s1.08-.5,1.87-.5,1.58.4,3,1.4a8.22,8.22,0,0,0,.68.51c.44.28.58.43.58.61s0,.11-.22.47a6.45,6.45,0,0,0-.72,2.73c-.28,2.88-.43,5.11-.43,6.73,0,2.49.11,2.85.83,2.85,1.51,0,4.89-1.73,8.42-4.32a53.69,53.69,0,0,0,10.44-10c.32-.46.43-.53.54-.53s.32.25.32.43a12.32,12.32,0,0,1-1.4,2.52,40.75,40.75,0,0,1-8,8.67,40.66,40.66,0,0,1-8.13,5.29A7.68,7.68,0,0,0,165,26.53c-.33.36-.54.5-.69.5a6.18,6.18,0,0,1-1.51-1,2.77,2.77,0,0,1-1.08-1.4,1.23,1.23,0,0,1,.15-.54,4.79,4.79,0,0,0,.46-2Z"/><path class="cls-1" d="M200.2,19.19a6.18,6.18,0,0,1-1.49.25,3.92,3.92,0,0,1-2.85-2,12,12,0,0,1-.22-2c0-.25.09-.43.25-.43s.17.07.26.25c.42,1,1.2,1.4,3.08,1.4A136.75,136.75,0,0,0,218,15.23a7.18,7.18,0,0,1,.88-.08,2.09,2.09,0,0,1,1.72.8c.61.64.84,1,.84,1.33,0,.54-.65.86-1.69.86-.26,0-.61,0-1.19,0s-3.34-.11-4.7-.11A78.4,78.4,0,0,0,200.2,19.19Z"/><path class="cls-1" d="M252.61,10.55a5.72,5.72,0,0,0,0,.9c.33,0,.65-.11.76-.11l1.3-.15a8,8,0,0,0,2.3-.64,2.91,2.91,0,0,1,1.3-.4,10.28,10.28,0,0,1,2.91,1.08c.54.29.9.68.9,1a1.07,1.07,0,0,1-1,1.05c-.22,0-.51,0-.87-.08a43.62,43.62,0,0,0-5.14-.43c-.72,0-1.33,0-2.56.15-.47,6.55-1.11,9.1-3.13,12.05a15,15,0,0,1-8.14,5.84,1.8,1.8,0,0,0-.43.14,1.22,1.22,0,0,1-.28.07.5.5,0,0,1-.44-.39c0-.15.11-.26.36-.33,6.37-2.81,9.76-8.82,9.76-17.35-2.7.18-4,.29-6,.51,0,1.11,0,1.87,0,2.23s0,.86,0,1.4v1l0,1.23c0,.32.08.61.08.79a.83.83,0,0,1-.87.86c-.72,0-1.69-1.26-1.69-2.16a4.84,4.84,0,0,1,0-.68c.1-.94.18-2.81.18-4.36-2.27.44-3,.62-4.43,1a5.47,5.47,0,0,1-1.69.33,3.2,3.2,0,0,1-2.56-1.37A2.15,2.15,0,0,1,232.7,12V12a.2.2,0,0,1,.22-.22c.07,0,.14,0,.25.15.69.68,1.51.93,3.21.93.72,0,3.49-.18,5.65-.36,0-.43,0-1,0-1l-.07-1.62c-.11-2.66-.11-2.66-.43-3a2.58,2.58,0,0,0-1.66-.51,1.29,1.29,0,0,0-.39,0,.27.27,0,0,1-.15,0,.15.15,0,0,1-.14-.14c0-.11.07-.22.32-.36.07,0,.29-.18.61-.4.69-.5,1-.64,1.23-.64a9.43,9.43,0,0,1,2.19.79c.51.29.79.61.79.93a1.94,1.94,0,0,1,0,.4,1.24,1.24,0,0,0-.07.5V8.1c0,1,0,1.69,0,2.23s0,1,0,1.94c2.66-.28,3-.32,6-.57l0-2.74c0-3.92-.4-4.78-2.45-5.22-.14,0-.22-.1-.22-.18,0-.32,1.19-.68,2.2-.68,1.3,0,3.78,1.51,3.78,2.34,0,.14,0,.14-.43,1a3.88,3.88,0,0,0-.4,1.58l0,.83Z"/><path class="cls-1" d="M277.46,19.19a6.32,6.32,0,0,1-1.49.25,3.92,3.92,0,0,1-2.85-2,10.93,10.93,0,0,1-.23-2c0-.25.1-.43.26-.43s.16.07.26.25c.42,1,1.2,1.4,3.08,1.4a136.87,136.87,0,0,0,18.72-1.47,7,7,0,0,1,.88-.08,2.07,2.07,0,0,1,1.71.8c.62.64.85,1,.85,1.33,0,.54-.65.86-1.69.86-.26,0-.62,0-1.2,0s-3.33-.11-4.7-.11A78.27,78.27,0,0,0,277.46,19.19Z"/><path class="cls-1" d="M327,12.09a8.28,8.28,0,0,1,5.36-2.3c2.56,0,4.54,1.51,4.54,3.46a2.12,2.12,0,0,1-.94,1.9c-.76.58-1,.65-4.32,2a62.13,62.13,0,0,0-7.7,3.5c.1,1.58.18,2.73.18,3.31,0,1.8-.36,2.26-1.8,2.26-.43,0-.65-.14-.65-.36a1,1,0,0,1,0-.28,27,27,0,0,0,.19-3.89c-3.1,1.83-4.36,3.27-4.36,4.89,0,1.8,1.69,2.52,5.9,2.52a20.73,20.73,0,0,0,5.29-.64,2.8,2.8,0,0,1,.94-.18,1.92,1.92,0,0,1,1.73,1.47c0,1.19-2.38,1.8-7.27,1.8a11.86,11.86,0,0,1-5.87-1.08,4.27,4.27,0,0,1-2.48-3.67,4.54,4.54,0,0,1,1.83-3.38,25.9,25.9,0,0,1,4.25-2.77,14,14,0,0,0-.47-4.54,1.87,1.87,0,0,0-1.69-1.26,4.21,4.21,0,0,0-2.56,1.33A21.74,21.74,0,0,0,314,20c-.4.69-.79,1-1.19,1s-1.26-1.19-1.26-2.12c0-.47.14-.72.86-1.26,3.89-3.39,6.27-6.88,6.95-10.22a11.18,11.18,0,0,1-3.13.61,2.24,2.24,0,0,1-1.87-1.3,4.68,4.68,0,0,1-.54-1.37.15.15,0,0,1,.14-.14s.11,0,.18.14a2.28,2.28,0,0,0,2.13.94,9.57,9.57,0,0,0,3.27-.58,6.15,6.15,0,0,0,.11-1A1.71,1.71,0,0,0,318,2.77c-.15,0-.18,0-.18-.14,0-.33,1.22-.9,1.91-.9a2.47,2.47,0,0,1,2.37,2.12,5.49,5.49,0,0,1-.29,1.37A5.35,5.35,0,0,0,324.11,4c1.22.61,1.58.86,1.58,1.15s-.79.75-4.21,1.76a42,42,0,0,1-4.1,7.67,5.57,5.57,0,0,1,2.37-.65,3.66,3.66,0,0,1,2.31.83,5.3,5.3,0,0,1,1.33,2.55A14.54,14.54,0,0,1,327,12.09Zm1.54,4.68a36.39,36.39,0,0,0,4.61-2.7,2,2,0,0,0,.72-1.26,2.17,2.17,0,0,0-2.19-1.8c-1.88,0-4.32,1.7-5.73,4a18.32,18.32,0,0,0-2.12,4.43C325.26,18.57,325.51,18.43,328.53,16.77Z"/><path class="cls-1" d="M362.52,16.67h-2.38v1.47c0,.4-.64.72-1.44.72-.39,0-.64-.21-.64-.54V3.6L360.58,5h1.62a31.69,31.69,0,0,0,.68-5l2.84.47c.43.07.69.32.69.61a1,1,0,0,1-.51.76l-.75.54L363.6,5h3.46l.86-1.36L370,5.58a.88.88,0,0,1,.25.58.66.66,0,0,1-.39.54l-.58.32V17.49c0,.65-.68,1.12-1.62,1.12-.32,0-.47-.18-.47-.54v-1.4h-2.41v4.14h10l1.88-2.34,2.88,2.37a.69.69,0,0,1,.35.51.36.36,0,0,1-.39.32H365.69c3.52,3.56,8.85,6,15,6.91a9.87,9.87,0,0,0-2.77,2.81,29.54,29.54,0,0,1-7.42-3.78,25.73,25.73,0,0,1-5.72-5.47v9.5a.5.5,0,0,1-.11.36,2.77,2.77,0,0,1-1.58.58.52.52,0,0,1-.54-.47V22.93a39.69,39.69,0,0,1-9.86,6.62,22.4,22.4,0,0,1-5.11,2,.3.3,0,0,1-.33-.29c0-.18,0-.18,2.13-1.26a41,41,0,0,0,11-8.31h-5.47c-2.49.07-3.6.07-6.62.18l-.47-1.26,3.85.14c1.58,0,2.66.08,3.24.08h7.63Zm-5.29-4-5.83,4.79-.15.69c-.1.46-.39.75-.72.75a.74.74,0,0,1-.39-.14l-2.31-2.27c3.13-1.37,4.21-1.91,9.11-4.5ZM349,3.74c3.64.87,6.08,2.92,6.08,5a1.42,1.42,0,0,1-1.29,1.58,1.18,1.18,0,0,1-.9-.4c-.25-.25-.25-.25-1-2.23a10.69,10.69,0,0,0-3.06-3.52Zm18.14,6.66V5.87h-7V10.4Zm0,5.4V11.27h-7V15.8ZM377.85,5.22a.43.43,0,0,1,.18.32c0,.18-.21.36-.68.47l-1.22.32-5.22,4.4c-.36.28-.54.39-.72.39s-.29-.11-.29-.32.14-.4,1.58-2.23c1-1.34,1.91-2.63,3.82-5.47Zm-7.52,6.55c2.92.47,4.21.86,5.62,1.69s2.3,1.87,2.3,2.88A1.32,1.32,0,0,1,377,17.67c-.47,0-.58-.1-2.45-2.26a14.46,14.46,0,0,0-4.28-3Z"/><path class="cls-1" d="M417.2,23.11c0,.61-.83,1.94-2.05,3.35-2.84,3.16-6.08,4.75-9.86,4.75a8,8,0,0,1-6-2.27c-1.51-1.62-2.15-3.74-2.15-7,0-2.16,0-2.63.72-12,.21-3,.21-3,.21-3.46,0-2.3-.54-3.27-1.76-3.27-.22,0-.33-.07-.33-.18,0-.4.76-.72,1.59-.72,1.83,0,3.6,2.09,3.6,4.32a9.55,9.55,0,0,1-.54,2.73,77,77,0,0,0-1.51,12.35c0,5,2,7.31,6.47,7.31a13.28,13.28,0,0,0,7.89-2.92,14.66,14.66,0,0,0,3.06-2.91c.14-.26.29-.36.43-.36A.29.29,0,0,1,417.2,23.11Z"/><path class="cls-1" d="M438,6.19c0-2.37-.36-2.95-1.84-3-.29,0-.32,0-.32-.15,0-.28,1.4-.93,2-.93a5.71,5.71,0,0,1,2.27.75,1.48,1.48,0,0,1,.75,1.08,3.58,3.58,0,0,1-.25,1,18.9,18.9,0,0,0-.61,3c1.62-.61,2.16-1,2.56-1.66,1.11.07,2.16.76,2.16,1.34,0,.32-.18.46-.87.79a25,25,0,0,1-4.21,1.54c-.25,1.88-.29,2.13-.54,3.93a1.63,1.63,0,0,1,1.26,1.55,24.63,24.63,0,0,1-1.15,4.53c-1,3.46-1.37,5.11-1.37,6.44,0,1.66,1.26,2.42,4.07,2.42a21.52,21.52,0,0,0,6.91-1.26c1.22-.58,1.69-1.44,1.69-3.17,0-1.08,0-1.51-.54-6.8-.25-2.38-.36-4.11-.36-5.19,0-2.3.94-3.49,2.74-3.49,3.27,0,7.45,3.42,7.45,6.12,0,1.19-1,2.52-1.8,2.52-.14,0-.25-.07-.36-.25-.86-1-1.69-1.26-3.78-1.23-.29,0-.43-.07-.43-.25s0-.18.32-.21a1.86,1.86,0,0,0,.43-.11c.51-.07.9-.18,1.3-.25,1.12-.22,1.47-.47,1.47-1a5.36,5.36,0,0,0-1.43-2.63,5.27,5.27,0,0,0-3.35-1.84c-1.05,0-1.59.94-1.59,2.85a43,43,0,0,0,.9,8.13c.54,2.45,1,3.5,1.91,4.29a1.82,1.82,0,0,1,.18.82c0,1.16-.75,2.16-2.19,3a18.86,18.86,0,0,1-8.5,1.84c-4.61,0-6.8-1.41-6.8-4.36a17.32,17.32,0,0,1,.43-3,1.89,1.89,0,0,1-1.4.54c-1.41,0-2.31-1.66-2.31-4.18,0-3.42,1.95-6.15,4.36-6.15a4,4,0,0,1,.54,0c.07-1.62.11-1.87.18-3.2a17.91,17.91,0,0,1-4.68.9c-1.15,0-1.66-.29-2.05-1.15a6.4,6.4,0,0,1-.54-2.56c0-.18.07-.29.21-.29s.11,0,.18.19a2.48,2.48,0,0,0,2.59,1.94,17.38,17.38,0,0,0,4.36-.83,10,10,0,0,1,0-1.3ZM435.31,16a8.51,8.51,0,0,0-.83,3.75c0,1.4.54,2.37,1.3,2.37s1-.5,1.26-1.73c.29-1.54.68-4.17.68-4.5,0-.72-.25-1.15-.72-1.22S435.71,15.23,435.31,16Z"/><path class="cls-1" d="M480.64,17.64a11.42,11.42,0,0,1-.8,4.35c-.86,2.09-2.88,3.78-4.5,3.78a1.87,1.87,0,0,1-1.54-1.58c0-.54.18-.69,1.36-1.23A8.81,8.81,0,0,0,480,17.53c0-.18.11-.22.25-.22S480.64,17.42,480.64,17.64ZM488,13.07c0,.72,0,2.37,0,5l.07,4c0,1.27,0,2.52.07,2.7,0,.69,0,1.3,0,1.66A3.45,3.45,0,0,1,487,29.26a3.34,3.34,0,0,1-2.05,1c-.36,0-.51-.22-.54-.8-.11-1.62-.65-2.52-2.41-4-.15-.15-.22-.22-.22-.33s.22-.32.36-.32.36.11.87.43c1.33.87,1.65,1.05,2,1.05.86,0,.86,0,.9-7.31,0-3.24.07-4.86.07-4.86v-1a32.47,32.47,0,0,0-7.56,1.59,3,3,0,0,1-1,.25,4.06,4.06,0,0,1-1.62-.65,2.83,2.83,0,0,1-1.47-2.45c0-.21.07-.32.21-.32a.47.47,0,0,1,.29.21c.5.65,1.33.87,3.1.87a76.86,76.86,0,0,0,8-.69c0-5.47-.21-5.86-2.27-6.11-.21,0-.32-.08-.32-.15,0-.36,1.33-1.08,2-1.08a4.56,4.56,0,0,1,2.66,1.08c.58.47.9.83.9,1a.9.9,0,0,1-.11.36c-.47.75-.57,1.36-.75,4.57,4.06-.33,6.26-.72,7.45-1.3.72-.4.72-.4,1-.4.5,0,1,.26,2.19,1.05.83.54,1.08.83,1.08,1.22a.93.93,0,0,1-.86.87,5.36,5.36,0,0,1-.65-.08A35.75,35.75,0,0,0,493,12.6c-1.51,0-3.6.14-5,.29Zm6.7,4.86c3,1.8,4.79,3.92,4.79,5.76a1.81,1.81,0,0,1-1.69,2c-.69,0-.91-.25-1.3-1.76-.68-2.73-3.24-5.87-5.51-6.69-.18-.08-.25-.15-.25-.26s.18-.28.4-.28A8.55,8.55,0,0,1,494.71,17.93ZM500.9,4.36A3.53,3.53,0,1,1,497.41.83,3.53,3.53,0,0,1,500.9,4.36Zm-5.83,0a2.31,2.31,0,1,0,2.27-2.31A2.31,2.31,0,0,0,495.07,4.36Z"/><path class="cls-1" d="M528.87,13.61c1.84.82,1.84.82,1.84,1.18a1.35,1.35,0,0,1-.14.51,7.82,7.82,0,0,0-.33,2.88l.07,3.67V26l0,2.49c0,.46,0,.9,0,1.18,0,.94-.33,1.48-.87,1.48-1.08,0-2.34-.94-2.34-1.76a3.1,3.1,0,0,1,.11-.69,115.87,115.87,0,0,0,.86-12.45,3.65,3.65,0,0,0-.43-2.13,45.64,45.64,0,0,1-9.36,7.42,15.91,15.91,0,0,1-4,1.69c-.15,0-.36-.14-.36-.29s.07-.18.36-.29c5.69-2.59,16.81-14,16.81-17.13,0-.36-.69-1-1.19-1.11-.32-.08-.4-.15-.4-.29s.76-.51,1.48-.51c1.33,0,4.07,1.95,4.07,2.92,0,.25-.11.36-.43.54a2.6,2.6,0,0,0-1.3,1.08,61.29,61.29,0,0,1-5,5.29Z"/><path class="cls-1" d="M562.46,11.45A1.5,1.5,0,0,1,560.81,13c-.47,0-.72-.18-1.08-.82a7.93,7.93,0,0,0-5.55-4.43c-.21-.07-.32-.14-.32-.25,0-.26.65-.43,1.69-.43C559,7.06,562.46,9.25,562.46,11.45Zm-4.68,16a5.41,5.41,0,0,1-2.59-1.87,2.67,2.67,0,0,1-.9-2.27c0-.69.18-1.23.43-1.23s.22.08.29.26a2.55,2.55,0,0,0,2.16,1.83c1.48,0,5.83-2.7,11.05-6.84a68.91,68.91,0,0,0,6.73-6c.72-.72,2.67-3,3-3.38s.43-.58.61-.58a.3.3,0,0,1,.29.33c0,.57-1.59,3-3.39,5.22a55.77,55.77,0,0,1-7.7,7.77,54.08,54.08,0,0,1-8.57,5.9C558.54,27.18,558.14,27.43,557.78,27.43Z"/><path class="cls-1" d="M599.76,14.43c0,6.45.11,9.87.29,12.28.07.75.1,1.29.1,1.62,0,1.51-.54,2.63-1.29,2.63S597,29.34,597,28.44a5.13,5.13,0,0,1,.11-.94c.29-2,.58-10,.58-17.17,0-3.38-.15-4.61-.58-5.33a1.81,1.81,0,0,0-1.73-.9c-.25,0-.36-.1-.36-.32s.11-.25.33-.36a10.2,10.2,0,0,1,2.19-.58c.54,0,1,.26,2.63,1.26.47.33.68.58.68.83a2,2,0,0,1-.18.69c-.57,1-.79,2.66-.86,6.69a15.34,15.34,0,0,1,7.56,2.34c1.94,1.33,2.84,2.48,2.84,3.64a1.47,1.47,0,0,1-1.51,1.58c-.79,0-1.19-.32-2.09-1.69a12.88,12.88,0,0,0-6.8-5.29Z"/></g></g></svg>