<svg xmlns="http://www.w3.org/2000/svg" viewBox="0 0 523.83 32.58"><defs><style>.cls-1{fill:#333;}</style></defs><title>enjoy-dokidoki-title</title><g id="レイヤー_2" data-name="レイヤー 2"><g id="レイヤー_1-2" data-name="レイヤー 1"><path class="cls-1" d="M0,28.83c3.56,0,4.32-.54,4.32-3V8.35c0-2.27-.61-2.66-4.32-2.73V4.43H11.7V5.62c-3.49,0-4.28.5-4.28,2.73V25.81c0,2.55.75,3.06,4.28,3v1.23H0Z"/><path class="cls-1" d="M21,4.46H41.76l2.23,6-1.05.47C40.78,8.28,40.42,8,39.42,7.2a6.86,6.86,0,0,0-4-1.51c-1.73,0-2.59,1.22-2.59,3.63V26.06c0,2.45.36,2.66,4.57,2.81v1.19H25.23V28.87c4-.11,4.43-.4,4.5-2.81V9.32c0-2.55-.75-3.56-2.73-3.56A6.69,6.69,0,0,0,22.54,7.7,32,32,0,0,0,19.44,11l-.9-.54Z"/><path class="cls-1" d="M50.65,28.76c2.12-.07,3.56-1.19,4.46-3.38l8.25-21,2.48-.87L74.59,26c.79,2,1.69,2.7,3.78,2.81v1.3H68.5v-1.3c2.24,0,2.88-.32,2.88-1.48a4.31,4.31,0,0,0-.32-1.51l-1.94-5.14H58.28L56.55,25.2a3.29,3.29,0,0,0-.25,1.29c0,1.73.69,2.2,3.21,2.27v1.3H50.65Zm18-9.36-4.72-13-5.14,13Z"/><path class="cls-1" d="M85.39,28.9c3.42-.14,4-.61,4-3.24V8.35c0-2.09-.93-2.73-4-2.73V4.43h11.7c4.53,0,8,.93,10.33,2.84a12.62,12.62,0,0,1,4.43,10c0,7.81-5.73,12.75-14.76,12.75H85.39Zm7.24-3.13c0,2.52.68,3.1,3.74,3.1,7.27,0,11.41-4.36,11.41-11.95,0-7.42-4-11.34-11.66-11.34-2.63,0-3.49.65-3.49,2.63Z"/><path class="cls-1" d="M119.77,28.76c2.12-.07,3.56-1.19,4.46-3.38l8.25-21L135,3.49,143.71,26c.79,2,1.69,2.7,3.78,2.81v1.3h-9.87v-1.3c2.24,0,2.88-.32,2.88-1.48a4.31,4.31,0,0,0-.32-1.51l-1.94-5.14H127.4l-1.73,4.57a3.29,3.29,0,0,0-.25,1.29c0,1.73.69,2.2,3.2,2.27v1.3h-8.85Zm18-9.36-4.72-13-5.14,13Z"/><path class="cls-1" d="M154.51,28.87h.65c2.52,0,3.38-.69,3.42-2.67v-18c0-2.16-.58-2.56-4-2.67V4.43h11.23V5.54c-3.32,0-4,.47-4,2.67v9.64L172,8.21a2.26,2.26,0,0,0,.86-1.59c0-.79-.5-1-2.59-1.08V4.43h10V5.54A8.42,8.42,0,0,0,174,8.13l-6.15,5.73,9.32,12.63c1.12,1.66,2.48,2.34,4.82,2.45v1.12H171.14V28.87h0c1.76,0,2.37-.29,2.37-1.15a2.18,2.18,0,0,0-.5-1.3L165.56,16l-3.78,3.56v6.41c0,2.44.76,2.95,4,2.95v1.19H154.51Z"/><path class="cls-1" d="M189.36,28.83c3.56,0,4.32-.54,4.32-3V8.35c0-2.27-.61-2.66-4.32-2.73V4.43h11.7V5.62c-3.5,0-4.29.5-4.29,2.73V25.81c0,2.55.76,3.06,4.29,3v1.23h-11.7Z"/><path class="cls-1" d="M229.13,12.09a8.33,8.33,0,0,1,5.37-2.3c2.55,0,4.53,1.51,4.53,3.46a2.12,2.12,0,0,1-.93,1.9c-.76.58-1,.65-4.32,2a61.43,61.43,0,0,0-7.7,3.5c.1,1.58.17,2.73.17,3.31,0,1.8-.35,2.26-1.79,2.26-.44,0-.65-.14-.65-.36a1,1,0,0,1,0-.28,27.2,27.2,0,0,0,.18-3.89c-3.09,1.83-4.35,3.27-4.35,4.89,0,1.8,1.69,2.52,5.9,2.52a20.78,20.78,0,0,0,5.29-.64,2.8,2.8,0,0,1,.94-.18c.75,0,1.73.82,1.73,1.47,0,1.19-2.38,1.8-7.28,1.8a11.84,11.84,0,0,1-5.86-1.08,4.28,4.28,0,0,1-2.49-3.67,4.55,4.55,0,0,1,1.84-3.38A25.9,25.9,0,0,1,224,20.63a14,14,0,0,0-.47-4.54,1.87,1.87,0,0,0-1.69-1.26,4.21,4.21,0,0,0-2.56,1.33A21.74,21.74,0,0,0,216.18,20c-.4.69-.8,1-1.19,1-.54,0-1.26-1.19-1.26-2.12,0-.47.14-.72.86-1.26,3.89-3.39,6.27-6.88,6.95-10.22a11.25,11.25,0,0,1-3.13.61,2.23,2.23,0,0,1-1.87-1.3A4.41,4.41,0,0,1,216,5.36a.15.15,0,0,1,.14-.14s.11,0,.18.14a2.27,2.27,0,0,0,2.12.94,9.58,9.58,0,0,0,3.28-.58,6.15,6.15,0,0,0,.11-1,1.71,1.71,0,0,0-1.69-1.95c-.15,0-.18,0-.18-.14,0-.33,1.22-.9,1.9-.9a2.47,2.47,0,0,1,2.38,2.12A5.49,5.49,0,0,1,224,5.22,5.25,5.25,0,0,0,226.25,4c1.23.61,1.59.86,1.59,1.15s-.79.75-4.21,1.76a41.42,41.42,0,0,1-4.11,7.67,5.64,5.64,0,0,1,2.38-.65,3.63,3.63,0,0,1,2.3.83,5.21,5.21,0,0,1,1.34,2.55A14.54,14.54,0,0,1,229.13,12.09Zm1.55,4.68a36.39,36.39,0,0,0,4.61-2.7,2,2,0,0,0,.72-1.26,2.17,2.17,0,0,0-2.2-1.8c-1.87,0-4.32,1.7-5.72,4A18.32,18.32,0,0,0,226,19.44C227.41,18.57,227.66,18.43,230.68,16.77Z"/><path class="cls-1" d="M266.11,16.67h-2.38v1.47c0,.4-.65.72-1.44.72-.39,0-.65-.21-.65-.54V3.6L264.16,5h1.62a31.57,31.57,0,0,0,.69-5l2.84.47c.43.07.69.32.69.61a1,1,0,0,1-.51.76l-.75.54L267.19,5h3.45l.87-1.36,2.05,1.94a.88.88,0,0,1,.25.58.65.65,0,0,1-.4.54l-.57.32V17.49c0,.65-.69,1.12-1.62,1.12-.33,0-.47-.18-.47-.54v-1.4h-2.41v4.14h10l1.87-2.34,2.88,2.37c.25.18.36.36.36.51a.36.36,0,0,1-.39.32H269.27c3.53,3.56,8.86,6,15,6.91a9.74,9.74,0,0,0-2.77,2.81,29.37,29.37,0,0,1-7.42-3.78,25.73,25.73,0,0,1-5.72-5.47v9.5a.55.55,0,0,1-.11.36,2.77,2.77,0,0,1-1.58.58.52.52,0,0,1-.54-.47V22.93a39.69,39.69,0,0,1-9.86,6.62,22.24,22.24,0,0,1-5.12,2,.29.29,0,0,1-.32-.29c0-.18,0-.18,2.12-1.26a40.87,40.87,0,0,0,11-8.31h-5.47c-2.49.07-3.6.07-6.63.18l-.46-1.26,3.85.14c1.58,0,2.66.08,3.24.08h7.63Zm-5.29-4L255,17.42l-.15.69c-.11.46-.39.75-.72.75a.8.8,0,0,1-.4-.14l-2.3-2.27c3.13-1.37,4.21-1.91,9.11-4.5Zm-8.21-8.89c3.64.87,6.08,2.92,6.08,5a1.42,1.42,0,0,1-1.29,1.58,1.18,1.18,0,0,1-.9-.4c-.25-.25-.25-.25-1-2.23a10.58,10.58,0,0,0-3.06-3.52Zm18.14,6.66V5.87h-7V10.4Zm0,5.4V11.27h-7V15.8ZM281.44,5.22a.43.43,0,0,1,.18.32c0,.18-.21.36-.68.47l-1.23.32-5.22,4.4c-.36.28-.54.39-.72.39s-.28-.11-.28-.32.14-.4,1.58-2.23c1-1.34,1.91-2.63,3.82-5.47Zm-7.52,6.55c2.91.47,4.21.86,5.61,1.69s2.31,1.87,2.31,2.88a1.32,1.32,0,0,1-1.26,1.33c-.47,0-.58-.1-2.45-2.26a14.59,14.59,0,0,0-4.28-3Z"/><path class="cls-1" d="M322.23,23.11c0,.61-.83,1.94-2.05,3.35-2.85,3.16-6.09,4.75-9.86,4.75a8,8,0,0,1-6-2.27c-1.51-1.62-2.16-3.74-2.16-7,0-2.16,0-2.63.72-12,.22-3,.22-3,.22-3.46,0-2.3-.54-3.27-1.76-3.27-.22,0-.33-.07-.33-.18,0-.4.76-.72,1.59-.72,1.83,0,3.6,2.09,3.6,4.32a9.55,9.55,0,0,1-.54,2.73,77,77,0,0,0-1.52,12.35c0,5,2,7.31,6.48,7.31a13.28,13.28,0,0,0,7.89-2.92,14.66,14.66,0,0,0,3.06-2.91c.14-.26.28-.36.43-.36A.29.29,0,0,1,322.23,23.11Z"/><path class="cls-1" d="M344.44,6.19c0-2.37-.36-2.95-1.83-3-.29,0-.33,0-.33-.15,0-.28,1.41-.93,2-.93a5.71,5.71,0,0,1,2.27.75,1.48,1.48,0,0,1,.75,1.08,3.58,3.58,0,0,1-.25,1,18.9,18.9,0,0,0-.61,3c1.62-.61,2.16-1,2.56-1.66,1.11.07,2.15.76,2.15,1.34,0,.32-.17.46-.86.79a25,25,0,0,1-4.21,1.54c-.25,1.88-.29,2.13-.54,3.93a1.63,1.63,0,0,1,1.26,1.55,24.63,24.63,0,0,1-1.15,4.53c-1,3.46-1.37,5.11-1.37,6.44,0,1.66,1.26,2.42,4.07,2.42a21.52,21.52,0,0,0,6.91-1.26C356.5,27,357,26.1,357,24.37c0-1.08,0-1.51-.54-6.8-.25-2.38-.36-4.11-.36-5.19,0-2.3.94-3.49,2.74-3.49,3.27,0,7.45,3.42,7.45,6.12,0,1.19-1,2.52-1.8,2.52-.15,0-.25-.07-.36-.25-.87-1-1.69-1.26-3.78-1.23-.29,0-.43-.07-.43-.25s0-.18.32-.21a1.86,1.86,0,0,0,.43-.11c.51-.07.9-.18,1.3-.25,1.11-.22,1.47-.47,1.47-1A5.31,5.31,0,0,0,362,11.59a5.23,5.23,0,0,0-3.34-1.84c-1.05,0-1.59.94-1.59,2.85a43,43,0,0,0,.9,8.13c.54,2.45,1,3.5,1.91,4.29a2,2,0,0,1,.18.82c0,1.16-.76,2.16-2.2,3a18.82,18.82,0,0,1-8.49,1.84c-4.61,0-6.8-1.41-6.8-4.36a17.32,17.32,0,0,1,.43-3,1.9,1.9,0,0,1-1.41.54c-1.4,0-2.3-1.66-2.3-4.18,0-3.42,1.94-6.15,4.36-6.15a4.07,4.07,0,0,1,.54,0c.07-1.62.1-1.87.18-3.2a17.91,17.91,0,0,1-4.68.9c-1.16,0-1.66-.29-2.06-1.15a6.57,6.57,0,0,1-.54-2.56c0-.18.08-.29.22-.29s.11,0,.18.19a2.48,2.48,0,0,0,2.59,1.94,17.38,17.38,0,0,0,4.36-.83c0-.61,0-1.11,0-1.3ZM341.78,16a8.51,8.51,0,0,0-.83,3.75c0,1.4.54,2.37,1.3,2.37s1-.5,1.26-1.73c.29-1.54.68-4.17.68-4.5,0-.72-.25-1.15-.72-1.22S342.18,15.23,341.78,16Z"/><path class="cls-1" d="M387.1,17.64a11.41,11.41,0,0,1-.79,4.35c-.86,2.09-2.88,3.78-4.5,3.78a1.87,1.87,0,0,1-1.54-1.58c0-.54.18-.69,1.36-1.23a8.84,8.84,0,0,0,4.86-5.43c0-.18.11-.22.25-.22S387.1,17.42,387.1,17.64Zm7.38-4.57c0,.72,0,2.37,0,5l.07,4c0,1.27,0,2.52.07,2.7,0,.69,0,1.3,0,1.66a3.45,3.45,0,0,1-1.26,2.84,3.34,3.34,0,0,1-2.05,1c-.36,0-.51-.22-.54-.8-.11-1.62-.65-2.52-2.41-4-.15-.15-.22-.22-.22-.33s.22-.32.36-.32.36.11.86.43c1.34.87,1.66,1.05,2.06,1.05.86,0,.86,0,.9-7.31,0-3.24.07-4.86.07-4.86v-1a32.47,32.47,0,0,0-7.56,1.59,3,3,0,0,1-1,.25,4,4,0,0,1-1.62-.65,2.83,2.83,0,0,1-1.48-2.45c0-.21.08-.32.22-.32a.47.47,0,0,1,.29.21c.5.65,1.33.87,3.09.87a77,77,0,0,0,8-.69c0-5.47-.21-5.86-2.27-6.11-.21,0-.32-.08-.32-.15,0-.36,1.33-1.08,2-1.08a4.56,4.56,0,0,1,2.66,1.08c.58.47.9.83.9,1a.9.9,0,0,1-.11.36c-.47.75-.57,1.36-.75,4.57,4.06-.33,6.26-.72,7.45-1.3.72-.4.72-.4,1-.4.5,0,1,.26,2.19,1.05.83.54,1.08.83,1.08,1.22a.93.93,0,0,1-.86.87,5.36,5.36,0,0,1-.65-.08,35.75,35.75,0,0,0-5.29-.39c-1.51,0-3.6.14-5,.29Zm6.7,4.86c3,1.8,4.79,3.92,4.79,5.76a1.81,1.81,0,0,1-1.7,2c-.68,0-.9-.25-1.29-1.76-.69-2.73-3.24-5.87-5.51-6.69-.18-.08-.25-.15-.25-.26s.18-.28.4-.28A8.55,8.55,0,0,1,401.18,17.93Zm6.19-13.57A3.53,3.53,0,1,1,403.88.83,3.53,3.53,0,0,1,407.37,4.36Zm-5.83,0a2.31,2.31,0,1,0,2.27-2.31A2.31,2.31,0,0,0,401.54,4.36Z"/><path class="cls-1" d="M436.06,13.61c1.84.82,1.84.82,1.84,1.18a1.23,1.23,0,0,1-.15.51,8.13,8.13,0,0,0-.32,2.88l.07,3.67V26l0,2.49c0,.46,0,.9,0,1.18,0,.94-.33,1.48-.87,1.48-1.08,0-2.34-.94-2.34-1.76a3.1,3.1,0,0,1,.11-.69,115.87,115.87,0,0,0,.86-12.45,3.65,3.65,0,0,0-.43-2.13,45.91,45.91,0,0,1-9.36,7.42,16.06,16.06,0,0,1-4,1.69c-.15,0-.36-.14-.36-.29s.07-.18.36-.29c5.68-2.59,16.81-14,16.81-17.13,0-.36-.69-1-1.19-1.11-.32-.08-.4-.15-.4-.29s.76-.51,1.48-.51c1.33,0,4.07,1.95,4.07,2.92,0,.25-.11.36-.44.54A2.55,2.55,0,0,0,440.6,8.1a61.29,61.29,0,0,1-5,5.29Z"/><path class="cls-1" d="M473.25,11.45A1.5,1.5,0,0,1,471.59,13c-.46,0-.71-.18-1.07-.82A7.93,7.93,0,0,0,465,7.74c-.21-.07-.32-.14-.32-.25,0-.26.65-.43,1.69-.43C469.79,7.06,473.25,9.25,473.25,11.45Zm-4.68,16A5.37,5.37,0,0,1,466,25.56a2.67,2.67,0,0,1-.9-2.27c0-.69.18-1.23.43-1.23s.22.08.29.26A2.54,2.54,0,0,0,468,24.15c1.48,0,5.83-2.7,11.05-6.84a70.11,70.11,0,0,0,6.73-6c.72-.72,2.67-3,3-3.38s.44-.58.62-.58a.3.3,0,0,1,.29.33c0,.57-1.59,3-3.39,5.22a55.77,55.77,0,0,1-7.7,7.77,54.55,54.55,0,0,1-8.57,5.9C469.33,27.18,468.93,27.43,468.57,27.43Z"/><path class="cls-1" d="M513.43,14.43c0,6.45.11,9.87.29,12.28.07.75.1,1.29.1,1.62,0,1.51-.54,2.63-1.29,2.63s-1.91-1.62-1.91-2.52a5.13,5.13,0,0,1,.11-.94c.29-2,.57-10,.57-17.17,0-3.38-.14-4.61-.57-5.33A1.81,1.81,0,0,0,509,4.1c-.25,0-.36-.1-.36-.32s.11-.25.32-.36a10.38,10.38,0,0,1,2.2-.58c.54,0,1,.26,2.63,1.26.46.33.68.58.68.83a2,2,0,0,1-.18.69c-.57,1-.79,2.66-.86,6.69A15.34,15.34,0,0,1,521,14.65c1.94,1.33,2.84,2.48,2.84,3.64a1.47,1.47,0,0,1-1.51,1.58c-.79,0-1.19-.32-2.09-1.69a12.88,12.88,0,0,0-6.8-5.29Z"/></g></g></svg>