<svg xmlns="http://www.w3.org/2000/svg" viewBox="0 0 484.38 32.58"><defs><style>.cls-1{isolation:isolate;}.cls-2{fill:#333;}</style></defs><title>enjoy-more-dokidoki-title</title><g id="Layer_2" data-name="Layer 2"><g id="Layer_1-2" data-name="Layer 1"><g class="cls-1"><path class="cls-2" d="M0,28.9c3.42-.14,4-.61,4-3.24V8.35c0-2.09-.94-2.73-4-2.73V4.43H11.69c4.54,0,8,.93,10.33,2.84a12.62,12.62,0,0,1,4.43,10c0,7.81-5.73,12.75-14.76,12.75H0Zm7.23-3.13c0,2.52.69,3.1,3.74,3.1,7.27,0,11.41-4.36,11.41-11.95,0-7.42-4-11.34-11.66-11.34-2.62,0-3.49.65-3.49,2.63Z"/><path class="cls-2" d="M59.55,17.17c0,7.74-5.43,13.46-12.81,13.46S33.83,25.05,33.83,17.31a12.6,12.6,0,0,1,5.79-11A12.6,12.6,0,0,1,47.1,4C54.3,4,59.55,9.57,59.55,17.17ZM40.81,7.74c-2,2-3,5-3,9.14,0,8,3.16,12.53,8.67,12.53S55.45,24.76,55.45,17c0-7.56-3.06-11.77-8.6-11.77A8.62,8.62,0,0,0,40.81,7.74Z"/><path class="cls-2" d="M66,28.87h.64c2.52,0,3.39-.69,3.42-2.67v-18c0-2.16-.57-2.56-4-2.67V4.43H77.3V5.54c-3.31,0-4,.47-4,2.67v9.64L83.56,8.21a2.3,2.3,0,0,0,.86-1.59c0-.79-.5-1-2.59-1.08V4.43h10V5.54a8.42,8.42,0,0,0-6.3,2.59l-6.15,5.73,9.32,12.63c1.11,1.66,2.48,2.34,4.82,2.45v1.12H82.66V28.87h0c1.76,0,2.37-.29,2.37-1.15a2.18,2.18,0,0,0-.5-1.3L77.08,16,73.3,19.51v6.41c0,2.44.76,2.95,4,2.95v1.19H66Z"/><path class="cls-2" d="M99.43,28.83c3.57,0,4.32-.54,4.32-3V8.35c0-2.27-.61-2.66-4.32-2.73V4.43h11.7V5.62c-3.49,0-4.29.5-4.29,2.73V25.81c0,2.55.76,3.06,4.29,3v1.23H99.43Z"/><path class="cls-2" d="M116.89,28.9c3.41-.14,4-.61,4-3.24V8.35c0-2.09-.94-2.73-4-2.73V4.43h11.69c4.53,0,7.95.93,10.33,2.84a12.64,12.64,0,0,1,4.42,10c0,7.81-5.72,12.75-14.75,12.75H116.89Zm7.23-3.13c0,2.52.68,3.1,3.74,3.1,7.27,0,11.41-4.36,11.41-11.95,0-7.42-4-11.34-11.66-11.34-2.63,0-3.49.65-3.49,2.63Z"/><path class="cls-2" d="M176.44,17.17c0,7.74-5.43,13.46-12.81,13.46s-12.92-5.58-12.92-13.32a12.61,12.61,0,0,1,5.8-11A12.56,12.56,0,0,1,164,4C171.19,4,176.44,9.57,176.44,17.17ZM157.69,7.74c-2,2-2.95,5-2.95,9.14,0,8,3.17,12.53,8.68,12.53s8.92-4.65,8.92-12.42c0-7.56-3.06-11.77-8.6-11.77A8.65,8.65,0,0,0,157.69,7.74Z"/><path class="cls-2" d="M182.92,28.87h.65c2.52,0,3.38-.69,3.42-2.67v-18c0-2.16-.58-2.56-4-2.67V4.43h11.22V5.54c-3.3,0-4,.47-4,2.67v9.64l10.26-9.64a2.3,2.3,0,0,0,.86-1.59c0-.79-.51-1-2.59-1.08V4.43h10V5.54a8.4,8.4,0,0,0-6.29,2.59l-6.15,5.73,9.31,12.63c1.12,1.66,2.49,2.34,4.83,2.45v1.12H199.54V28.87h0c1.76,0,2.38-.29,2.38-1.15a2.2,2.2,0,0,0-.51-1.3L194,16l-3.78,3.56v6.41c0,2.44.76,2.95,4,2.95v1.19H182.92Z"/><path class="cls-2" d="M216.32,28.83c3.56,0,4.32-.54,4.32-3V8.35c0-2.27-.61-2.66-4.32-2.73V4.43H228V5.62c-3.49,0-4.28.5-4.28,2.73V25.81c0,2.55.76,3.06,4.28,3v1.23H216.32Z"/><path class="cls-2" d="M253,12.09a8.3,8.3,0,0,1,5.36-2.3c2.56,0,4.54,1.51,4.54,3.46a2.12,2.12,0,0,1-.94,1.9c-.75.58-1,.65-4.32,2a62.84,62.84,0,0,0-7.7,3.5c.11,1.58.18,2.73.18,3.31,0,1.8-.36,2.26-1.8,2.26-.43,0-.64-.14-.64-.36a1,1,0,0,1,0-.28,27.2,27.2,0,0,0,.18-3.89c-3.09,1.83-4.35,3.27-4.35,4.89,0,1.8,1.69,2.52,5.9,2.52a20.78,20.78,0,0,0,5.29-.64,2.75,2.75,0,0,1,.93-.18,1.92,1.92,0,0,1,1.73,1.47c0,1.19-2.37,1.8-7.27,1.8a11.84,11.84,0,0,1-5.86-1.08,4.27,4.27,0,0,1-2.48-3.67,4.54,4.54,0,0,1,1.83-3.38,25.9,25.9,0,0,1,4.25-2.77,14,14,0,0,0-.47-4.54,1.87,1.87,0,0,0-1.69-1.26,4.21,4.21,0,0,0-2.56,1.33A21.74,21.74,0,0,0,240.07,20c-.4.69-.79,1-1.19,1s-1.26-1.19-1.26-2.12c0-.47.15-.72.87-1.26,3.88-3.39,6.26-6.88,6.94-10.22A11.18,11.18,0,0,1,242.3,8a2.24,2.24,0,0,1-1.87-1.3,4.68,4.68,0,0,1-.54-1.37.15.15,0,0,1,.14-.14s.11,0,.18.14a2.28,2.28,0,0,0,2.13.94,9.57,9.57,0,0,0,3.27-.58,6.15,6.15,0,0,0,.11-1A1.71,1.71,0,0,0,244,2.77c-.15,0-.18,0-.18-.14,0-.33,1.22-.9,1.9-.9a2.47,2.47,0,0,1,2.38,2.12,5.49,5.49,0,0,1-.29,1.37A5.25,5.25,0,0,0,250.14,4c1.23.61,1.59.86,1.59,1.15s-.79.75-4.21,1.76a42,42,0,0,1-4.1,7.67,5.57,5.57,0,0,1,2.37-.65,3.63,3.63,0,0,1,2.3.83,5.13,5.13,0,0,1,1.33,2.55A14.67,14.67,0,0,1,253,12.09Zm1.55,4.68a36.63,36.63,0,0,0,4.6-2.7,2,2,0,0,0,.72-1.26A2.17,2.17,0,0,0,257.7,11c-1.87,0-4.32,1.7-5.72,4a18.32,18.32,0,0,0-2.12,4.43C251.29,18.57,251.55,18.43,254.57,16.77Z"/><path class="cls-2" d="M283.47,20.16a6.39,6.39,0,0,0,1.91-.29.71.71,0,0,1,.36-.14,3.42,3.42,0,0,1,.93.68c.4.4.54.65.54.94,0,.64-.54,1-1.47,1a23.37,23.37,0,0,1-4-.29c-.07.83-.07,1.27-.07,1.77A5.92,5.92,0,0,0,283,28.11,5.33,5.33,0,0,0,287,29.7c3.06,0,5-1.84,5-4.76a10.87,10.87,0,0,0-4.6-8.56c-.19-.15-.26-.22-.26-.29s.15-.18.29-.18a8.93,8.93,0,0,1,2.88,1.76c2.84,2.34,4.35,5,4.35,7.78,0,3.78-2.91,6.37-7.16,6.37A7.9,7.9,0,0,1,282.25,30c-1.37-1.22-2.05-3-2.05-5.47a15.75,15.75,0,0,1,.21-2.73c-2.59-.69-3.85-1.77-3.85-3.35a4.59,4.59,0,0,1,1.94-3.38,26.82,26.82,0,0,1,3.6-2.24c.07-.39.07-.46.18-.93-2.7-.76-3.31-1-4.39-2.05a2.88,2.88,0,0,1-1-2.38c0-.32.11-.43.36-.43.07,0,.14.07.14.21.11.9,2.12,2,5.33,2.88.39-2,.39-2,.46-2.44a14.52,14.52,0,0,0,.44-2.7,2.51,2.51,0,0,0-2.05-2.81c-.15,0-.18,0-.18-.11,0-.25,1.22-.79,1.79-.79a6.06,6.06,0,0,1,2.6,1.37c.86.68,1.22,1.22,1.22,1.83S286.82,5.4,286,7c-.61,1.29-1,2.05-1.62,3.52a4.59,4.59,0,0,0,1.48.18,1.13,1.13,0,0,1,1.08.47,2.32,2.32,0,0,1,.5,1.26c0,.47-.25.58-1.15.58a9.54,9.54,0,0,0-3.06.54A57.91,57.91,0,0,0,282,20.05,13.86,13.86,0,0,0,283.47,20.16Zm-2.63-.87c.11-.54.22-1,.33-1.54s.25-1.34.39-2c0-.26.15-.76.33-1.48-2.45,1.51-3.42,2.59-3.42,3.82,0,.9.57,1.33,2.26,1.72Z"/><path class="cls-2" d="M333.7,20.77c0,3.42-2.05,6.26-5.75,7.92a27.32,27.32,0,0,1-8.35,2.12c-.25,0-.58-.25-.58-.43s.08-.11.62-.22c7.3-1.29,11.4-4.71,11.4-9.43,0-3.49-2.05-5.61-5.36-5.61A17.17,17.17,0,0,0,316.9,18,24.47,24.47,0,0,0,313,21a1.94,1.94,0,0,1-1.44.64A4,4,0,0,1,309,20.3a3.85,3.85,0,0,1-.72-2.63c0-.28.07-.39.25-.39s.15,0,.15.18A2,2,0,0,0,310.68,19c.79,0,1-.07,2.88-1.19,4.78-2.77,8.41-4,12-4C330.36,13.89,333.7,16.7,333.7,20.77Z"/><path class="cls-2" d="M354.69,18a7.7,7.7,0,0,1-1.58-5.36c0-1,.1-3.53.21-5.62l0-1.11c0-1.95-.83-2.7-2.88-2.7a1.48,1.48,0,0,0-.43,0H350c-.22,0-.33-.07-.33-.18,0-.46,1.77-1,3.24-1a6.22,6.22,0,0,1,3,.86,1.76,1.76,0,0,1,.82,1.62,7.63,7.63,0,0,1-.43,2.09,34.73,34.73,0,0,0-1.22,8c0,1.4.43,2.41,1.08,2.41a12.78,12.78,0,0,0,3.63-2,1.27,1.27,0,0,1,.94-.43c1,0,2.37.9,2.37,1.58s-.54.9-1.83,1.3a37.05,37.05,0,0,1-4.43.9,8,8,0,0,0-3.06,1.22c-2.66,1.55-4,3.56-4,5.94,0,2.55,2.09,3.81,6.26,3.81a24.19,24.19,0,0,0,7.45-1.33,2.21,2.21,0,0,1,.87-.25,2.41,2.41,0,0,1,2.05,2,1,1,0,0,1-.65.83,24.12,24.12,0,0,1-7.63,1,19.17,19.17,0,0,1-6.91-1,5.28,5.28,0,0,1-3.56-4.79c0-2.77,2.66-5.76,6.66-7.56Z"/><path class="cls-2" d="M392.19,16.67h-2.38v1.47c0,.4-.64.72-1.43.72-.4,0-.65-.21-.65-.54V3.6L390.25,5h1.61a31.57,31.57,0,0,0,.69-5l2.84.47c.43.07.68.32.68.61a1,1,0,0,1-.5.76l-.75.54L393.27,5h3.45l.87-1.36,2.05,1.94a.88.88,0,0,1,.25.58.67.67,0,0,1-.4.54l-.57.32V17.49c0,.65-.69,1.12-1.62,1.12-.33,0-.47-.18-.47-.54v-1.4h-2.41v4.14h10l1.87-2.34,2.88,2.37c.25.18.36.36.36.51a.37.37,0,0,1-.4.32H395.35c3.53,3.56,8.86,6,15,6.91a10,10,0,0,0-2.77,2.81,29.51,29.51,0,0,1-7.41-3.78,25.73,25.73,0,0,1-5.72-5.47v9.5a.55.55,0,0,1-.11.36,2.77,2.77,0,0,1-1.58.58.52.52,0,0,1-.54-.47V22.93a39.69,39.69,0,0,1-9.86,6.62,22.22,22.22,0,0,1-5.11,2,.29.29,0,0,1-.32-.29c0-.18,0-.18,2.12-1.26a41,41,0,0,0,11-8.31h-5.47c-2.48.07-3.6.07-6.62.18l-.47-1.26,3.85.14c1.59,0,2.67.08,3.24.08h7.63Zm-5.29-4-5.83,4.79-.14.69c-.11.46-.4.75-.72.75a.77.77,0,0,1-.4-.14l-2.3-2.27c3.13-1.37,4.21-1.91,9.1-4.5Zm-8.2-8.89c3.63.87,6.08,2.92,6.08,5a1.42,1.42,0,0,1-1.3,1.58,1.21,1.21,0,0,1-.9-.4c-.25-.25-.25-.25-1-2.23a10.58,10.58,0,0,0-3.06-3.52Zm18.13,6.66V5.87h-7V10.4Zm0,5.4V11.27h-7V15.8ZM407.52,5.22a.46.46,0,0,1,.18.32c0,.18-.22.36-.69.47l-1.22.32-5.22,4.4c-.36.28-.54.39-.72.39s-.29-.11-.29-.32.15-.4,1.59-2.23c1-1.34,1.9-2.63,3.81-5.47ZM400,11.77c2.91.47,4.21.86,5.61,1.69s2.3,1.87,2.3,2.88a1.31,1.31,0,0,1-1.26,1.33c-.47,0-.57-.1-2.44-2.26a14.65,14.65,0,0,0-4.29-3Z"/><path class="cls-2" d="M442.89,23.11c0,.61-.83,1.94-2.05,3.35-2.84,3.16-6.08,4.75-9.86,4.75a7.94,7.94,0,0,1-6-2.27c-1.51-1.62-2.15-3.74-2.15-7,0-2.16,0-2.63.72-12,.21-3,.21-3,.21-3.46,0-2.3-.54-3.27-1.76-3.27-.22,0-.33-.07-.33-.18,0-.4.76-.72,1.59-.72,1.83,0,3.59,2.09,3.59,4.32a9.71,9.71,0,0,1-.53,2.73,77,77,0,0,0-1.52,12.35c0,5,2,7.31,6.48,7.31a13.27,13.27,0,0,0,7.88-2.92,14.18,14.18,0,0,0,3.06-2.91c.14-.26.29-.36.43-.36A.29.29,0,0,1,442.89,23.11Z"/><path class="cls-2" d="M462.58,6.19c0-2.37-.36-2.95-1.83-3-.29,0-.33,0-.33-.15,0-.28,1.41-.93,2-.93a5.62,5.62,0,0,1,2.26.75,1.5,1.5,0,0,1,.76,1.08,4.05,4.05,0,0,1-.25,1,17.83,17.83,0,0,0-.61,3c1.61-.61,2.15-1,2.55-1.66,1.12.07,2.16.76,2.16,1.34,0,.32-.18.46-.86.79a25.28,25.28,0,0,1-4.21,1.54c-.26,1.88-.29,2.13-.54,3.93A1.64,1.64,0,0,1,465,15.41a24.22,24.22,0,0,1-1.16,4.53c-1,3.46-1.36,5.11-1.36,6.44,0,1.66,1.26,2.42,4.06,2.42a21.52,21.52,0,0,0,6.91-1.26c1.22-.58,1.69-1.44,1.69-3.17,0-1.08,0-1.51-.54-6.8-.25-2.38-.36-4.11-.36-5.19,0-2.3.94-3.49,2.74-3.49,3.27,0,7.44,3.42,7.44,6.12,0,1.19-1,2.52-1.79,2.52a.39.39,0,0,1-.36-.25c-.87-1-1.69-1.26-3.78-1.23-.29,0-.43-.07-.43-.25s0-.18.32-.21a1.86,1.86,0,0,0,.43-.11c.51-.07.9-.18,1.3-.25,1.11-.22,1.47-.47,1.47-1a5.31,5.31,0,0,0-1.44-2.63,5.23,5.23,0,0,0-3.34-1.84c-1.05,0-1.59.94-1.59,2.85a43,43,0,0,0,.9,8.13c.54,2.45,1,3.5,1.91,4.29a2,2,0,0,1,.18.82c0,1.16-.76,2.16-2.2,3a18.79,18.79,0,0,1-8.49,1.84c-4.6,0-6.8-1.41-6.8-4.36a17.62,17.62,0,0,1,.44-3,1.9,1.9,0,0,1-1.41.54c-1.4,0-2.3-1.66-2.3-4.18,0-3.42,1.94-6.15,4.35-6.15a3.92,3.92,0,0,1,.54,0c.07-1.62.11-1.87.18-3.2a17.77,17.77,0,0,1-4.68.9c-1.15,0-1.65-.29-2.05-1.15a6.57,6.57,0,0,1-.53-2.56c0-.18.07-.29.21-.29s.11,0,.18.19a2.48,2.48,0,0,0,2.59,1.94,17.32,17.32,0,0,0,4.35-.83,10,10,0,0,1,0-1.3ZM459.92,16a8.37,8.37,0,0,0-.83,3.75c0,1.4.54,2.37,1.3,2.37s1-.5,1.26-1.73c.28-1.54.68-4.17.68-4.5,0-.72-.25-1.15-.72-1.22S460.31,15.23,459.92,16Z"/></g></g></g></svg>