<svg xmlns="http://www.w3.org/2000/svg" viewBox="0 0 312.2 50.4"><defs><style>.cls-1{fill:#fff;}</style></defs><g id="レイヤー_2" data-name="レイヤー 2"><g id="レイヤー_1-2" data-name="レイヤー 1"><path class="cls-1" d="M12.1,22.5l-8.5.2L2.1,20.9c4.9.2,5.4.2,9.9.2h5.3c1.1-2.5,1.2-2.9,2.1-5.3H9L7.4,14.1l4.4.2h8A35.8,35.8,0,0,0,20.9,9H13.7c-2.9,0-4.2,0-7.8.2l-1.7-2c5,.3,7,.3,9.5.3h7.5c.3-3.2.3-3.8.4-6.9l4.4.9c.9.1,1.1.3,1.1.7s-.2.5-.6.7l-1.4.6c-.3,1.8-.4,2.1-.7,4H40.6l2.8-2.8,3.4,2.5a1.6,1.6,0,0,1,.7,1.1c0,.5-.3.7-.9.7H24.2c-.7,2.7-.8,3.1-1.5,5.3H37l2.7-2.5,2.9,2.1c.6.4.8.7.8,1.2s-.2.7-.9.7H30a28.6,28.6,0,0,0,2.8,5.3H43.7l2.9-2.7L50.2,21a1,1,0,0,1,.5.8c0,.5-.5.7-1.2.7H33.7c4.5,5.6,10.1,9.4,17.9,12q-3.3,1.2-3.6,2.7c-7.5-3.9-11.7-7.7-16.1-14.7H19.4a43.9,43.9,0,0,1-3,4.5l2.7,1.5H31.5l1.3-1.9L35.7,29a.9.9,0,0,1,.4.7c0,.3-.2.4-.7.7l-.8.2V46.1a2.1,2.1,0,0,1-1.8,2.3c-.6,0-.8-.2-.8-.8V45.4H18.5v3c0,.6,0,.7-.4,1a3.3,3.3,0,0,1-1.5.5c-.6,0-.8-.2-.8-.9V27.7A35.5,35.5,0,0,1,5.7,36.4,17.9,17.9,0,0,1,.9,38.9a.4.4,0,0,1-.4-.4c0-.3.2-.4.5-.6C8.8,33,12.3,29.5,16.5,22.5ZM32,36.1V30H18.5v6.1Zm0,7.8V37.6H18.5v6.3ZM31,21.1c-1.1-2.2-1.2-2.6-2.4-5.3H22.4a52.7,52.7,0,0,1-2.3,5.3Z"/><path class="cls-1" d="M16.6,50.4A1.2,1.2,0,0,1,15.3,49V29A34.4,34.4,0,0,1,6,36.8C4.4,37.9,1.6,39.4.9,39.4a1,1,0,0,1-.9-.9,1.4,1.4,0,0,1,.8-1.1c7.4-4.7,10.8-8,14.8-14.4H12.1l-8.4.2H3.4L1,20.3H2.1c4.9.2,5.5.2,9.9.2h5c.8-2,1.1-2.5,1.7-4.3H8.8L6.2,13.6l5.7.2h7.5a41.5,41.5,0,0,0,.9-4.3H13.7c-2.9,0-4.2,0-7.8.2H5.7l-2.6-3H4.2c4.9.3,7,.3,9.5.3h7c.3-2.7.3-3.4.4-6.1V0l5,1c.6.1,1.5.3,1.5,1.2a1.3,1.3,0,0,1-.8,1.1l-1.2.6c-.3,1.3-.4,1.8-.6,3.1H40.4l3-3,3.7,2.8A2,2,0,0,1,48,8.3c0,.3-.1,1.2-1.4,1.2H24.5c-.5,2.1-.6,2.7-1.1,4.3H36.8l2.9-2.6,3.2,2.3a1.9,1.9,0,0,1,1,1.6c0,.4-.2,1.2-1.4,1.2H30.8a21.9,21.9,0,0,0,2.3,4.3H43.5l3.1-2.9,3.9,2.9a1.4,1.4,0,0,1,.7,1.2c0,.6-.5,1.2-1.7,1.2H34.8c4.3,5.1,9.6,8.5,16.9,11l1.3.4-1.2.5c-2.5,1-3.2,1.9-3.4,2.4v.6l-.6-.2a42.3,42.3,0,0,1-11.1-8h0c0,.7-.6.9-1,1.1l-.5.2V46.1a2.5,2.5,0,0,1-2.3,2.8,1.2,1.2,0,0,1-1.3-1.3V45.9H19v2.5a1.4,1.4,0,0,1-.6,1.4A3.8,3.8,0,0,1,16.6,50.4Zm-.2-1h.2a2.8,2.8,0,0,0,1.2-.5c.2-.1.2-.1.2-.5V44.9H32.5v2.7a.4.4,0,0,0,.1.3h.2c.7,0,1.3-.8,1.3-1.8V30.3l1.2-.4.4-.2c-.1,0-.1-.2-.3-.4l-2.5-1.9L31.8,29H18.9l-2.6-1.4V49a.6.6,0,0,0,.1.4ZM12.1,22h5.3l-.4.8c-4.3,7-7.8,10.4-15.5,15.4l4-2.2a33.4,33.4,0,0,0,9.9-8.7l.9-1c1.1-1.5,1.4-2,2.7-4V22h13l.2.3c4.3,6.7,8.2,10.4,15.4,14.2a5.9,5.9,0,0,1,2.5-2c-7.3-2.6-12.5-6.2-16.9-11.7l-.6-.8H49.5c.1,0,.7,0,.7-.2a.5.5,0,0,0-.3-.4L46.7,19l-2.8,2.6H32.5v-.2a25.4,25.4,0,0,1-2.6-4.9l-.6-1.2H42.9c0-.2,0-.4-.6-.8l-2.6-1.8-2.6,2.3h-15l.2-.6,1.4-5.3V8.5H46.6c.4,0,.4-.1.4-.2a1.1,1.1,0,0,0-.5-.7l-3-2.2L40.8,8h-17V7.1c.4-1.7.4-2,.7-3.7V3.2l1.6-.8.3-.2L25.9,2l-3.8-.8c-.1,2.7-.1,3.3-.4,6.4V8H13.7c-2.4,0-4.3,0-8.3-.2l.7.9c3.4-.2,4.7-.2,7.6-.2h7.8v.7a41.9,41.9,0,0,1-1.1,5.3v.3H11.8l-3.3-.2.7.8H20.1l-.2.6c-.9,2.5-1.1,2.9-2.1,5.4l-.2.3H12c-4.1,0-4.9,0-8.8-.2l.7.8Zm7.1,6h12l1.5-2.1,2.2,1.8A47.8,47.8,0,0,1,31.6,23H19.7a33,33,0,0,1-2.6,3.9ZM32.5,44.4H18V37.1H32.5ZM19,43.4H31.5V38.1H19Zm13.5-6.8H18V29.5H32.5ZM19,35.6H31.5V30.5H19Zm12.8-14H19.3l.4-.8A53.1,53.1,0,0,0,22,15.6v-.3H29l.4,1a46.9,46.9,0,0,0,2.1,4.5Zm-10.9-1h9.3a37.6,37.6,0,0,1-1.7-3.9l-.2-.4H22.8C21.9,18.4,21.7,19,20.9,20.6Z"/><path class="cls-1" d="M77.2,34.8c-2.2,3.5-4,5.3-5.1,5.3s-.7-.3-1.3-1.2a2.3,2.3,0,0,0-1.1-.9c-2.3-1-4.1-5-4.1-9.5C65.6,17.7,75.4,9,87.5,9s18.7,6.8,18.7,15.8c0,5.8-4,11.3-10.4,14.5-2.7,1.3-8.5,3.1-10.1,3.1a.5.5,0,0,1-.5-.5c0-.4.2-.6,1.2-.9a39.1,39.1,0,0,0,8.9-3.7c5-3.2,7.6-7.6,7.6-13A12.4,12.4,0,0,0,96.1,13a20.4,20.4,0,0,0-9.6-2.4,14.2,14.2,0,0,0-2.7.2c1.9,1,3.5,2.5,3.5,3.3s-.2.7-1.2,1.5C82.7,24.7,80.3,29.9,77.2,34.8Zm5-23.7A17.8,17.8,0,0,0,75,14.5a16.3,16.3,0,0,0-6.8,13.6c0,3.3.7,5.6,2.1,7.3a2.7,2.7,0,0,0,1.9,1.3c1.5,0,4-3.7,6.7-10.1S83.3,15,83.3,13.2a2.3,2.3,0,0,0-.8-1.8Z"/><path class="cls-1" d="M85.7,42.9a.9.9,0,0,1-1-1c0-.9.7-1.2,1.6-1.4A35.2,35.2,0,0,0,95,36.8c4.9-3,7.4-7.3,7.4-12.5a12.1,12.1,0,0,0-6.5-10.9,21.1,21.1,0,0,0-9.4-2.3H85.3c1.3,1,2.5,2.2,2.5,3s-.4,1.1-1.2,1.8c-3.4,9.1-5.8,14.3-8.9,19.2h0c-3.2,4.9-4.7,5.5-5.6,5.5S71,40,70.4,39.2a1.5,1.5,0,0,0-.9-.7c-2.5-1.1-4.4-5.3-4.4-10,0-11,10.1-20,22.4-20s19.2,7,19.2,16.3c0,6-4.1,11.7-10.7,14.9C93.2,41.1,87.4,42.9,85.7,42.9Zm.8-32.8a21.9,21.9,0,0,1,9.9,2.4,13.2,13.2,0,0,1,7,11.8c0,5.5-2.7,10.2-7.9,13.4a41.2,41.2,0,0,1-8.9,3.8l-.9.3c1.4.1,7-1.6,9.9-3,6.2-3,10.1-8.4,10.1-14,0-8.7-7.8-15.3-18.2-15.3S66.1,18,66.1,28.5c0,4.2,1.7,8.1,3.8,9.1a2.1,2.1,0,0,1,1.3,1c.2.3.7,1,.9,1s1.8-.5,4.7-5.1,5.5-10,8.9-19.1h.1c.9-.8,1-.9,1-1.1s-1.3-1.9-3.2-2.8l-1.1-.6.4.3a3.1,3.1,0,0,1,.9,2.2c0,1.9-1.8,7.2-4.4,13.6S74,37.2,72.2,37.2a2.8,2.8,0,0,1-2.3-1.5c-1.5-1.9-2.2-4.2-2.2-7.6a16.6,16.6,0,0,1,7-14,18.9,18.9,0,0,1,7.4-3.5h.1l1.6-.2A14.2,14.2,0,0,1,86.5,10.1Zm-4.4,1.5a18.8,18.8,0,0,0-6.8,3.3,15.7,15.7,0,0,0-6.6,13.2c0,3.2.6,5.3,2,7a2,2,0,0,0,1.5,1.1c1,0,3.1-2.6,6.2-9.8s4.4-11.5,4.4-13.2a1.6,1.6,0,0,0-.6-1.4Z"/><path class="cls-1" d="M146.7,19.5c.5.2.7.5.7.8s-.1.5-.7.8l-.8.4a17.8,17.8,0,0,1-.1,2.6v13c0,1.1,0,4.8.1,5.4v1.4a1.2,1.2,0,0,1-1.2,1.3c-.8,0-2.1-1.5-2.1-2.5a5.4,5.4,0,0,1,.1-1.1,13.5,13.5,0,0,0,.3-3.8V21.1a91.3,91.3,0,0,1-13.5,8.7c-3.8,2.1-6.7,3.4-7.3,3.4a.6.6,0,0,1-.6-.6c0-.4.2-.6,2.1-1.5,3.5-1.9,6.6-3.8,9.6-5.8a91.1,91.1,0,0,0,10.1-8c5.2-4.8,8.6-8.8,8.6-9.8s-.2-.7-1.6-1.7c.4-.5.5-.6,1.1-.6s1.9.3,3.1,1.4,2.5,2.5,2.5,3.1-.4.7-1.3.6-1.3.1-3.1,2c-5.4,5.2-5.8,5.5-7.3,6.7Z"/><path class="cls-1" d="M144.7,45.7c-1.1,0-2.6-1.7-2.6-3a5.7,5.7,0,0,1,.1-1.2,12.7,12.7,0,0,0,.3-3.7V22.1a93.1,93.1,0,0,1-12.8,8.2c-1.1.5-6.3,3.4-7.5,3.4a1.1,1.1,0,0,1-1.1-1.1c0-.8.5-1.1,2.4-2a85.2,85.2,0,0,0,9.5-5.7,88.4,88.4,0,0,0,10.1-8c5.8-5.4,8.4-8.8,8.4-9.4s0-.4-1.4-1.3l-.4-.3.3-.4c.5-.6.7-.8,1.5-.8a3.9,3.9,0,0,1,3.4,1.5c2.4,2.3,2.7,2.6,2.7,3.5a1.1,1.1,0,0,1-.3.8,2.3,2.3,0,0,1-1.6.3c-.9.1-.9.1-2.7,1.9l-1.2,1.1-5.4,5.1h.5a1.6,1.6,0,0,1,1,1.3c0,.7-.4,1-1,1.3l-.5.3a14.1,14.1,0,0,1-.1,2.2v13c0,1.1,0,4.7.1,5.4v1.4A1.7,1.7,0,0,1,144.7,45.7Zm-1.2-25.6V37.8a14.7,14.7,0,0,1-.3,3.9,4.1,4.1,0,0,0-.1,1,2.6,2.6,0,0,0,1.6,2c.6,0,.7-.5.7-.8V42.6c-.1-.7-.1-4.4-.1-5.5v-13a14.8,14.8,0,0,0,.1-2.3v-.6l1.1-.5.4-.3c0-.2-.1-.3-.3-.4h0l-2.2-.8.7-.6a74.8,74.8,0,0,0,6-5.5l1.2-1.1c1.9-2,2-2.1,3.4-2.2s.9-.1.9-.1-.1-.5-2.4-2.7a2.9,2.9,0,0,0-2.7-1.3h-.3c1,.6,1.3,1,1.3,1.7s-7.3,8.8-8.7,10.2a102,102,0,0,1-10.2,8c-3,2-6.1,3.9-9.6,5.8a8.6,8.6,0,0,0-1.9,1.1.1.1,0,0,0,.1.1c.4,0,2.6-.9,7-3.3a91.3,91.3,0,0,0,13.5-8.7Z"/><path class="cls-1" d="M178.6,26.7a5.4,5.4,0,0,0-1.6,2.6c-.3.8-.7,1.2-1.3,1.2a9.6,9.6,0,0,1-4.1-2,3.8,3.8,0,0,1-1.5-2.5c0-.6.2-.7.8-.9,1.1,1.5,1.5,1.9,2.3,1.9s2.7-1.3,7.1-5.6,5.8-5.6,7.3-5.6,1.7.5,3.6,1.9a207.5,207.5,0,0,0,20.1,12.2c3.7,2,3.9,2.2,3.9,3.8s-.3,1.7-1,1.7-1.6-.3-7.1-4S196,23.8,191.8,20.5s-3.5-2.6-4.2-2.6-2.4,1.4-6,5.6a9,9,0,0,1-1.6,1.7ZM199.2,9.6c5,1.2,8.2,3.4,8.2,5.8A1.5,1.5,0,0,1,206,17c-.6,0-1.1-.4-1.8-1.4a12.4,12.4,0,0,0-5-4.9l-.3-.2h-.2Zm5.1-4.2h.7c4.6.8,7.8,2.9,7.8,5.3a1.4,1.4,0,0,1-1.2,1.5c-.6,0-1.1-.4-1.8-1.3a12.4,12.4,0,0,0-5.9-4.8Z"/><path class="cls-1" d="M214.2,35.9c-1.1,0-1.9-.4-7.4-4.1s-10.9-7.5-15.3-10.9c-2.6-2-3.3-2.5-3.9-2.5s-2.9,2.2-5.7,5.4l-1.5,1.8L179,27.1a4.8,4.8,0,0,0-1.5,2.3h0q-.6,1.5-1.8,1.5c-1.1,0-3-1-4.4-2.1a4.3,4.3,0,0,1-1.7-2.9c0-.9.4-1.2,1.2-1.4h.3l.2.3c1.1,1.6,1.4,1.7,1.9,1.7s2.7-1.5,6.7-5.5,6-5.7,7.7-5.7,2,.5,3.9,2a202.1,202.1,0,0,0,20,12.2c3.7,1.9,4.2,2.3,4.2,4.2S214.7,35.9,214.2,35.9ZM187.6,17.4c.9,0,1.7.6,4.5,2.7,4.3,3.4,10.6,7.9,15.2,10.9s6.1,3.9,6.9,3.9.5-.9.5-1.2,0-1.4-3.6-3.3a205.9,205.9,0,0,1-20.2-12.3c-1.7-1.3-2.6-1.8-3.3-1.8s-2.4.8-7,5.4-6.1,5.8-7.4,5.8-1.5-.5-2.5-1.8-.1.1-.1.3a3.5,3.5,0,0,0,1.3,2.1,8.3,8.3,0,0,0,3.8,1.9c.2,0,.6-.1.9-.9a5.2,5.2,0,0,1,1.7-2.7h0l1.4-1.5,1.5-1.7C185,18.7,186.4,17.4,187.6,17.4Zm18.4.1c-1,0-1.6-.7-2.2-1.6a12.5,12.5,0,0,0-4.9-4.8l-.8-.5L199,9h.3c5.3,1.2,8.6,3.6,8.6,6.3A2,2,0,0,1,206,17.5Zm-6.6-7.2h0a13.4,13.4,0,0,1,5.3,5c.6,1.1,1,1.2,1.3,1.2s.9-.6.9-1.1c0-2.1-2.9-4.1-7.4-5.3Zm12.2,2.5c-.9,0-1.5-.6-2.2-1.5s-2.8-3.2-5.7-4.7l-.4-.2.7-1.6,1.1.2c4.9.8,8.2,3.2,8.2,5.8A1.8,1.8,0,0,1,211.6,12.8Zm-7-6.9a13.3,13.3,0,0,1,5.6,4.8c.7.9,1.1,1.1,1.4,1.1s.7-.5.7-1c0-2.1-3-4.1-7.4-4.8Z"/><path class="cls-1" d="M235.1,9.8l.5.2h.3c5.3,1.5,9.3,4.9,9.3,8.1a2,2,0,0,1-1.9,2.1c-.9,0-1.3-.4-2-2-1.8-3.9-3.4-5.7-6.7-7.7Zm38.4,4.8-.4.5c-5.8,7.8-18.4,18.6-29.5,25.2a3.4,3.4,0,0,0-1.6,1.5c-.3.6-.6.8-.8.8a8.5,8.5,0,0,1-2.6-1.6c-2.2-1.7-3.4-3.7-3.4-5.4s.2-1.5.8-1.5a20.1,20.1,0,0,0,1.2,2.5,3.6,3.6,0,0,0,2.4,1.6c1,0,7-3.3,11.9-6.5,6.8-4.6,11.7-8.6,20.5-17.3l.4-.3.2-.2Z"/><path class="cls-1" d="M241.2,43.1a7.6,7.6,0,0,1-2.9-1.7c-2.3-1.8-3.6-3.9-3.6-5.8s.1-1.9,1.3-2h.4v.3a9.2,9.2,0,0,0,1.1,2.4,3.2,3.2,0,0,0,2,1.4c.7,0,6.3-2.9,11.6-6.5,6.8-4.5,11.6-8.5,20.5-17.1l.5-.5.3-.4,1.7,1.4-.7.8c-5.8,7.8-18.6,18.7-29.6,25.3-1,.6-1.1.7-1.5,1.4S241.9,43.1,241.2,43.1Zm-5.4-8.3c-.1.1-.1.3-.1.8s1.2,3.4,3.2,5a12.3,12.3,0,0,0,2.3,1.5l.3-.5a4.3,4.3,0,0,1,1.8-1.7c11-6.6,23.7-17.4,29.4-25.1h-.1l-.3.2c-8.9,8.7-13.7,12.7-20.5,17.3-4.6,3.1-11,6.6-12.2,6.6a4.3,4.3,0,0,1-2.8-1.8A10.4,10.4,0,0,1,235.8,34.8Zm7.5-14c-1.3,0-1.7-.8-2.5-2.3a14.4,14.4,0,0,0-6.5-7.4l-.4-.3,1-1.6.8.3h.3c5.6,1.6,9.7,5.2,9.7,8.6A2.5,2.5,0,0,1,243.3,20.8Zm-8-10.3c3.1,1.9,4.7,3.8,6.4,7.6.8,1.6,1.1,1.7,1.6,1.7a1.5,1.5,0,0,0,1.4-1.6c0-2.9-3.8-6.2-9-7.7h-.4Z"/><path class="cls-1" d="M289.6,5.1H291a7.7,7.7,0,0,1,4.5,1.5c1.2.8,1.7,1.3,1.7,1.9s-.3.8-.9,1-.6.2-.6.4v.7c-.1,2.5-.1,2.7-.3,5.8v4.3c9.8,1.8,16.4,5.7,16.4,9.4a1.4,1.4,0,0,1-1.3,1.5c-1,0-1.5-.4-3-2.1-3-3.5-6.7-5.7-12.1-7.4-.1,3.6-.1,4.4-.1,5.1V41c.1,1.8.1,1.8.1,2.4s-.5,2.6-1.5,2.6-2.1-1.7-2.1-3.2a5,5,0,0,1,.2-1.5c.5-2.1.5-2.5.5-10.1l.2-8.4c-.1-6.8,0-7.8,0-11.2V9.7c0-2-.2-2.2-2.7-3.5l-.4-.3h-.2Z"/><path class="cls-1" d="M293.8,46.5c-1.3,0-2.6-1.9-2.6-3.7a4.5,4.5,0,0,1,.3-1.7c.4-2,.4-2.3.4-9.9l.2-8.4c-.1-5.6,0-7.3,0-9.6V9.7c0-1.8,0-1.8-2.4-3.1l-1-.5.3-1.5H291a8,8,0,0,1,4.8,1.6c1.1.7,1.9,1.4,1.9,2.3a1.5,1.5,0,0,1-1.3,1.4h-.2v.9c-.1,2.1-.1,2.5-.3,5.4v3.9c9.8,1.9,16.3,5.8,16.3,9.8a1.9,1.9,0,0,1-1.8,2c-1.2,0-1.9-.6-3.3-2.3a24.8,24.8,0,0,0-11.3-7c-.1,3-.1,3.7-.1,4.4V41c.1,1.8.1,1.8.1,2.4C295.8,46.2,294.4,46.5,293.8,46.5ZM290,5.6h.2c2.7,1.4,3,1.7,3,4v3.5c0,2.3-.1,4,0,9.6l-.2,8.4c0,7.7,0,8-.5,10.2a4.9,4.9,0,0,0-.2,1.4c0,1.3.9,2.7,1.6,2.7s1-1.3,1-2.1,0-.6-.1-2.4V27.1c0-.7,0-1.5.1-5.1v-.6l.6.2c5.4,1.6,9.2,3.9,12.3,7.5,1.5,1.7,1.9,1.9,2.6,1.9a.9.9,0,0,0,.8-1c0-3.4-6.7-7.2-16-8.9h-.4V16.3c.2-2.9.2-3.3.3-5.4V9.6a1.1,1.1,0,0,1,.9-.7c.3-.1.6-.3.6-.5s-.1-.6-1.5-1.4-2.8-1.5-4.2-1.5h-1Zm6.1,4.5Z"/></g></g></svg>