<svg xmlns="http://www.w3.org/2000/svg" viewBox="0 0 411.2 70.5"><defs><style>.cls-1{fill:#fff;}</style></defs><g id="レイヤー_2" data-name="レイヤー 2"><g id="レイヤー_1-2" data-name="レイヤー 1"><path class="cls-1" d="M48.3,32H69.4c2.1,0,2.2-1.2,2.2-1.6a1.6,1.6,0,0,0-.9-1.5L65.4,25l-4.3,3.9H46.2c-1.3-1.9-1.5-2.4-3.4-6.4H59.6c1.5,0,1.8-.8,1.8-1.5a2.5,2.5,0,0,0-1.3-2.1l-4.5-3.1-4,3.6H32.5c.7-2.5.9-3.3,1.7-6.5H65.4c1.7,0,1.8-1.1,1.8-1.4A2.5,2.5,0,0,0,66,9.6L60.9,5.7,56.8,9.8H34.7l.9-4.7,1.8-.9c.8-.4,1-.9,1-1.3s-.8-1.4-1.9-1.6L29.7,0V1a65.5,65.5,0,0,1-.4,8.8H19c-3.5,0-6.4,0-13.2-.3H4.6l3.3,3.8h.2c5.1-.2,6.9-.3,10.9-.3h9.6a41.5,41.5,0,0,1-1.3,6.5H16.5L9,19.1l3.2,3.6H26.4c-1,2.7-1.3,3.5-2.6,6.4H16.7c-6.3,0-7.1,0-14-.3H1.6l3.1,3.7h.2C10.6,32,13,32,16.8,32h5.4C16.4,41.2,11.6,45.9,1,52.6a1.7,1.7,0,0,0-1,1.3A1.2,1.2,0,0,0,1,55c1,0,4.9-2.2,7.1-3.6A50.4,50.4,0,0,0,21.6,40.1V68.8c0,.8.2,1.7,1.5,1.7a5.1,5.1,0,0,0,2.5-.9c.6-.4.8-.7.8-1.7V64.1h18v2.6c0,.9.2,1.7,1.6,1.7s3-1.6,3-3.8V43.2l.9-.3c.6-.3,1.3-.6,1.3-1.3a2.1,2.1,0,0,0-.4-1c4.3,4.7,9.2,8.3,16.3,12l.5.3.2-.6q.5-1.8,4.8-3.6l1.3-.5-1.3-.4C62,44.3,54.5,39.4,48.3,32ZM28.9,28.9a50.5,50.5,0,0,0,2.8-6.4h8.1l.3.7c1.1,2.6,1.4,3.5,2.5,5.7ZM44.4,53.2v7.9h-18V53.2Zm-18-3.1V42.4h18v7.7Zm24-10-4.6-3.6-1.9,2.9H26.8l-3.2-1.8h.1c1.5-2.1,2-2.8,3.7-5.5h17a69.9,69.9,0,0,0,6.1,8.2A.1.1,0,0,1,50.4,40.1Z"/><path class="cls-1" d="M116.8,12C99.6,12,85.5,24.5,85.5,39.9c0,6.5,2.6,12.3,6.1,13.8a3.3,3.3,0,0,1,1.3,1.1c.9,1.3,1.5,1.9,2.3,1.9s4.3-2.5,7.6-7.7h0c4.4-6.9,7.8-14.2,12.5-27,1.2-1,1.7-1.5,1.7-2.4s-1.8-3-3.8-4.3h2.3a28.9,28.9,0,0,1,13.2,3.2c6,3.4,9.4,8.9,9.4,15.6s-3.7,13.5-10.6,17.8c-2.9,1.8-6.8,3.4-12.3,5.2-1.2.3-2.2.6-2.2,1.7a1.2,1.2,0,0,0,1.3,1.2c2.3,0,10.5-2.5,14.4-4.4,9.3-4.5,15-12.5,15-20.8C143.7,21.7,132.1,12,116.8,12ZM95.2,51A3.7,3.7,0,0,1,93,49.3c-2-2.4-2.8-5.5-2.8-9.9,0-7.9,3-13.9,9.4-18.9a24.6,24.6,0,0,1,9.6-4.6l.3.3a2.7,2.7,0,0,1,.9,2.1c0,2.5-2.5,10-6.1,18.7C98.7,49.9,95.9,51,95.2,51Z"/><path class="cls-1" d="M205.5,8.7c-1.7-1.7-2.5-2.1-4.7-2.1s-1.2.2-1.9,1l-.4.4.5.3c2,1.4,2.1,1.6,2.1,2s-3.7,5.7-12,13.4a116.9,116.9,0,0,1-14.2,11.2A121.9,121.9,0,0,1,161.5,43c-2.7,1.4-3.3,1.7-3.3,2.7a1.3,1.3,0,0,0,1.3,1.2c1.3,0,6.3-2.4,10.5-4.7a126.7,126.7,0,0,0,18.3-11.7v3.9c0,1.9,0,3.8.1,7.9V52.9a19.2,19.2,0,0,1-.4,5.3,5.9,5.9,0,0,0-.2,1.7c0,1.6,2,3.9,3.5,3.9a2.1,2.1,0,0,0,2.2-2.3,15.6,15.6,0,0,0-.1-2c-.1-.8-.2-6-.2-7.5V46.1c.1-7.5.1-11.7.1-12.4s.1-1.4.2-3.2v-.2l.8-.4c.8-.4,1.3-.7,1.3-1.6a1.9,1.9,0,0,0-1.3-1.6l-1-.3c1.5-1.3,2.5-2.3,7.9-7.4l1.6-1.6c2.5-2.5,2.5-2.5,4-2.6a2.7,2.7,0,0,0,2-.5,1,1,0,0,0,.4-.9C209.2,12.3,208.8,11.8,205.5,8.7Z"/><path class="cls-1" d="M276.8,15.5c1,1.2,1.8,2,2.9,2a2.4,2.4,0,0,0,2.3-2.6c0-3.6-4.6-6.8-11.5-7.9l-1.3-.3-.9,2,.4.2C272.9,10.9,274.6,12.3,276.8,15.5Z"/><path class="cls-1" d="M279.6,41.4a274.3,274.3,0,0,1-28.3-17.2c-2.7-2-4-2.7-5.4-2.7s-4.1,1.4-10.6,8-8.2,7.8-9.5,7.8-1.5-.4-2.9-2.5l-.2-.4-.4.2c-1,.3-1.4.6-1.4,1.7a5.6,5.6,0,0,0,2.2,3.9c1.9,1.6,4.7,2.9,6.1,2.9s1.8-.6,2.4-2h0c.5-1.4.5-1.5,2.1-3.3l2-2.1a26.3,26.3,0,0,0,2.1-2.4c4.2-4.9,6.9-7.7,8.1-7.7s1.9.6,5.6,3.5c6.2,4.8,15.1,11.1,21.6,15.3s8.8,5.8,10.4,5.8,1.8-.3,1.8-2.9S284.7,44.1,279.6,41.4Z"/><path class="cls-1" d="M269,22c.9,1.5,1.8,2.1,2.9,2.1a2.5,2.5,0,0,0,2.4-2.7c0-3.6-4.5-6.9-11.9-8.7h-.3l-1.1,2,1,.6A18.2,18.2,0,0,1,269,22Z"/><path class="cls-1" d="M359.5,19.3l-.5.4c-12.5,12.2-19.2,17.9-28.8,24.2-7,4.7-15.3,9.2-16.5,9.2a4.9,4.9,0,0,1-2.9-2.1,15.7,15.7,0,0,1-1.6-3.4v-.4h-.4c-1.4.1-1.7,1.1-1.7,2.7s1.8,5.4,5.1,7.9c.9.8,3.1,2.4,3.9,2.4s1.4-1,1.5-1.3.8-1.1,2.2-2c15.5-9.3,33.4-24.6,41.7-35.6l.7-1L360,18.6Z"/><path class="cls-1" d="M315.7,25.7c1,2.3,1.7,3.1,3.3,3.1a3.3,3.3,0,0,0,3.2-3.5c0-4.7-5.7-9.7-13.6-11.9h-.4l-.9-.4L306,14.9l.4.3C311,17.8,313.2,20.4,315.7,25.7Z"/><path class="cls-1" d="M388.2,28.3V22.7c.2-4.1.2-4.6.3-7.6V13.8h.1l.4-.2c1.1-.3,1.7-.9,1.7-1.8s-1.1-2.1-2.7-3.1-4.3-2.2-6.6-2.2h-2.4l-.4,1.8,1.2.6c3.5,1.9,3.5,2,3.5,4.5v4.9c-.1,3.3-.1,5.6,0,13.5L383,43.6c0,10.8,0,11.2-.6,14.1A6.3,6.3,0,0,0,382,60c0,2.5,1.8,4.9,3.5,4.9s2.6-.4,2.6-4.1c0-.8,0-.8-.1-3.3V37.9c0-1,0-2,.1-6.5,7.1,2.3,12.1,5.4,16.2,10,2,2.4,2.9,3.2,4.5,3.2a2.5,2.5,0,0,0,2.4-2.6C411.2,36.5,401.9,31,388.2,28.3Z"/></g></g></svg>