<svg xmlns="http://www.w3.org/2000/svg" viewBox="0 0 152.49 33.19"><defs><style>.cls-1{fill:#343434;}</style></defs><title>facility-title</title><g id="Layer_2" data-name="Layer 2"><g id="Layer_1-2" data-name="Layer 1"><path class="cls-1" d="M9.65,1.4a.61.61,0,0,1,.32.51.54.54,0,0,1-.32.47l-.47.28A12.33,12.33,0,0,1,12.6,4.54a3.79,3.79,0,0,1,1.62,2.59A1.45,1.45,0,0,1,13,8.6,1.13,1.13,0,0,1,12,8a11.26,11.26,0,0,1-1-2A7.6,7.6,0,0,0,8.46,3.28a40.11,40.11,0,0,1-6,8C1.3,12.42.47,13.07.14,13.07A.16.16,0,0,1,0,12.92c0-.14,0-.14.61-1A38.71,38.71,0,0,0,6.77.25ZM3.28,10.73l2.91,1.51h.9V7.7L9.93,8a.51.51,0,0,1,.54.57.45.45,0,0,1-.35.51l-.83.32v2.81H11l.83-1.59L14,12.6a.45.45,0,0,1,.21.39.42.42,0,0,1-.21.4l-.62.32v8.57c0,.61-.64,1-1.65,1-.32,0-.43-.18-.43-.65v-1.4H5.33v7.7a45.8,45.8,0,0,0,5.14-1.4,12.61,12.61,0,0,0-2.62-3.21l.21-.5a14.42,14.42,0,0,1,4,2.38,5.09,5.09,0,0,1,2,3.56,1.47,1.47,0,0,1-1.44,1.55c-.4,0-.58-.18-.83-.76-.11-.32-.46-1-1-2.16-3.63,1.73-4.6,2.16-7,3.17l-.29.72c-.18.43-.5.72-.79.72s-.43-.18-.68-.51L.25,29.91c1.48-.25,1.69-.29,3-.54Zm8,5.5V13.14H5.33v3.09Zm0,4.14V17.21H5.33v3.16ZM17.21,4.25a12.81,12.81,0,0,1,.54,2h4.39V.5l3.13.22c.5,0,.76.25.76.65A.7.7,0,0,1,25.7,2l-1.12.76V6.23h4.29l1.22-1.59,2.74,2.52a1.66,1.66,0,0,1,.5,1.05.82.82,0,0,1-.9.72H30.74L28,10.76l-.43-.28,1.51-3.32H17.78A5.51,5.51,0,0,1,17.21,10a2.64,2.64,0,0,1-2,1.58A1.26,1.26,0,0,1,14,10.33c0-.58,0-.58,1.47-2.16a5.07,5.07,0,0,0,1.15-3.09c0-.18,0-.44,0-.8Zm3.06,7.45h5.47l1-1.48,2.45,1.84a.38.38,0,0,1,.21.32.4.4,0,0,1-.21.33l-.9.46v6a.76.76,0,0,1-.43.83,3.07,3.07,0,0,1-1.37.5c-.25,0-.4-.21-.4-.5V18.86H20v3.67H27.5l.86-1.36,2.34,1.76a.73.73,0,0,1,.36.58.47.47,0,0,1-.28.46L30,24.3v7a.74.74,0,0,1-.18.54,3.54,3.54,0,0,1-1.59.57.55.55,0,0,1-.5-.54l0-1.4H20v1.33a.73.73,0,0,1-.43.76,4.33,4.33,0,0,1-1.19.36.45.45,0,0,1-.47-.44V10.37ZM26.06,18V12.6H20V18Zm1.58,11.62V23.4H20v6.22Z"/><path class="cls-1" d="M45.68,7.24h8.57c.14-1.8.18-2.67.18-4,0-.9,0-1.65-.07-3.2l3.56.58c.69.14.9.28.9.72,0,.28-.18.54-.65.86l-.93.61c-.15,2.05-.18,2.38-.4,4.47h9.65l1-1.66,2.62,2.09a1,1,0,0,1,.44.75c0,.33-.18.54-.65.79l-.51.22V30c0,1-.14,1.22-.82,1.69a6.66,6.66,0,0,1-2.27,1.08c-.32,0-.4-.14-.54-.94-.11-.5-.15-.54-.94-.86l-3.16-1.19,0-.54,4.18.11H66c.69.07.9-.14.9-.86V8.1H56.77a40.7,40.7,0,0,1-1,4.79,27.77,27.77,0,0,1,5.94,3.24c2.16,1.54,3.71,3.74,3.71,5.25a1.77,1.77,0,0,1-1.52,1.8c-.54,0-.86-.36-1.44-1.76a20.79,20.79,0,0,0-6.94-7.81c-1.66,4.5-4.5,7.2-10.66,10v8.64c0,.47-.86.9-1.83.9-.4,0-.58-.18-.58-.54V5.54Zm-.79.86V22.75c5.76-3.46,8.35-7.56,9.29-14.65Z"/><path class="cls-1" d="M84.42,8.82c-2.27,0-2.63,0-4.93.11l-.36-1.12C81.72,8,82.48,8,84.49,8H85V.83l3,.36c.5.07.83.32.83.72a.87.87,0,0,1-.58.72l-.87.5V8h2.88l2-2.2,2.3,2.05a1,1,0,0,1,.29.61c0,.26-.21.4-.54.4H86.76c0,2.7,0,3.06-.11,5.47h3l1-1.44L93,15a.6.6,0,0,1,.25.47c0,.21-.14.36-.43.43l-.58.07c-.32,7-.72,10.12-1.54,12.49a3.8,3.8,0,0,1-2.38,2.7,2.88,2.88,0,0,1-1,.22c-.36,0-.51-.25-.54-.83s-.11-.83-1-1.15l-2-.72.14-.65,2.45.14h.36c1.4,0,1.9-.46,2.3-2.26.58-2.59.76-4.86.94-10.66H86.54c-.57,6.34-1.65,9.86-4,13.14-1.37,2-3.21,3.82-3.71,3.82a.28.28,0,0,1-.29-.26c0-.18.15-.36,1-1.44a28.32,28.32,0,0,0,3-5.29c1.3-3.24,1.91-7.81,1.91-14Zm11.84,8.71v-5.8l2.52.29c.54,0,.83.29.83.61s-.22.62-.76.9l-.5.29v3l3.2-1.12V9.47l2.38.32c.57.07.94.36.94.76s-.22.54-.69.83l-.54.28V15l2.52-.9,1-1.87,2.37,1.87a.9.9,0,0,1,.36.65.59.59,0,0,1-.43.57l-.54.26v8.24a1.25,1.25,0,0,1-.61,1.29,4.84,4.84,0,0,1-2,.87c-.25,0-.32-.22-.43-.9a1.12,1.12,0,0,0-.18-.51s-.25-.1-.65-.25l-1.51-.54V26.1c0,.46-.76.9-1.55.9a.51.51,0,0,1-.54-.51V16.67l-3.2,1.08V28c0,1.26.22,1.34,3.46,1.34a37.86,37.86,0,0,0,5.61-.29c.9-.15,1.08-.33,1.37-1.3l1-3.34.64.07-.07,2.95,0,1c0,.07.14.18.46.32a1.4,1.4,0,0,1,.69,1c0,1.22-2.27,1.65-8.53,1.65s-6.7-.11-6.7-2.23V18.47l-3.17,1.08-.32-.83ZM100.65,1.8c.43.18.65.43.65.79s-.29.69-1,.83l-.64.14a33.31,33.31,0,0,1-1.73,3.93h8.6l2.3-2.56,2.85,2.49a.74.74,0,0,1,.29.5c0,.29-.18.43-.54.43H97.49c-1.77,3.1-3.75,5.72-4.32,5.72-.15,0-.29-.1-.29-.21s0-.18,1-2A39.09,39.09,0,0,0,97.59.58Zm3,14.15v7.2L106,23c.57,0,.75-.22.79-.76V14.87Z"/><path class="cls-1" d="M130.28,5.15,133,7.27a.7.7,0,0,1,.29.47.38.38,0,0,1-.39.4h-9.33l-2.16.07-2.19,0-.47-1.11c1.22,0,2.27.07,2.66.07,1.12,0,1.84.07,2.16.07h5.08Zm-9.75,6.66h6.62L128.63,10l2.23,1.77a.53.53,0,0,1,.22.46.37.37,0,0,1-.33.4H120.53Zm.11-9h5.9l1.62-2,2.48,2a.69.69,0,0,1,.26.51.44.44,0,0,1-.4.43h-9.86Zm0,13.43h6.44l1.62-1.91,2.16,1.95a.56.56,0,0,1,.22.39.38.38,0,0,1-.44.43h-10Zm2.59,4.54h4.71l.94-1.62,2.2,2.26a.87.87,0,0,1,.25.51c0,.18-.18.36-.51.5l-.46.22v7.88c0,.36-1,.9-1.66.9a.52.52,0,0,1-.54-.47V28.87h-5.29v3.06c0,.43-.87.9-1.62.9a.57.57,0,0,1-.58-.58V19.33ZM128.16,28V21.67h-5.29V28ZM146,15.62l2.27,2.56a.81.81,0,0,1,.25.57c0,.26-.18.44-.57.47l-1,.11a34.59,34.59,0,0,1-4.07,6.34,30.38,30.38,0,0,0,9.57,4.1,9.45,9.45,0,0,0-2.55,2.63,26.17,26.17,0,0,1-8.35-5.3,21.68,21.68,0,0,1-8.1,4.65,22.69,22.69,0,0,1-2.88.86.37.37,0,0,1-.36-.39c0-.18.11-.29.36-.4a24.09,24.09,0,0,0,9.54-6.19,20,20,0,0,1-3.93-7.52l-1.37,0c-.07,0-1.11,0-2.19,0l-.33-1.12c1.12,0,2.17,0,2.52.07l2.67.08h7.34ZM138.67,2.77h3.74L143.6,1l2.27,2.2a.86.86,0,0,1,.32.57c0,.26-.21.44-.57.58l-.79.22V10c0,1.08.25,1.22,1.9,1.22s2.2-.1,2.45-.5a15.28,15.28,0,0,0,1.48-4.82l.68.14-.29,4.47,0,.1c0,.07.28.36.68.65a1,1,0,0,1,.5.76,1.19,1.19,0,0,1-.64.86c-.62.32-2.23.47-5.08.47a9.46,9.46,0,0,1-3.06-.43,1.59,1.59,0,0,1-.79-1.55V3.64h-4.32v.75c0,5.19-.72,7.49-2.95,9.61a9.25,9.25,0,0,1-2.7,2.13.33.33,0,0,1-.36-.33c0-.18,0-.21.72-1,2.34-2.85,2.91-4.61,2.91-9.18,0-1,0-2.63-.07-4.46Zm-1.55,15.3c1.44,3.2,2.41,4.61,4.18,6.16a33.22,33.22,0,0,0,3.45-6.16Z"/></g></g></svg>