<svg xmlns="http://www.w3.org/2000/svg" viewBox="0 0 746.69 52.28"><defs><style>.cls-1{fill:#fff;}</style></defs><title>top-title_1</title><g id="Layer_2" data-name="Layer 2"><g id="Layer_1-2" data-name="Layer 1"><path class="cls-1" d="M28.48,7.17a7.42,7.42,0,0,0,4-1.73c1.15-.9,1.66-1.22,2.24-1.22s2.24,1,4.67,3c1.41,1.15,1.79,1.66,1.79,2.17s-.57,1.09-2,2a109.36,109.36,0,0,1-8.26,14.33,29,29,0,0,1,12.16,5.7c3.77,3,6,6.53,6,9.53a4,4,0,0,1-3.9,4c-1.54,0-2.24-.77-3.46-3.71A29.74,29.74,0,0,0,30.08,27c-4.23,5.44-6.34,7.68-9.41,10.24a50.63,50.63,0,0,1-17,9.28,14.19,14.19,0,0,1-3.13.76c-.32,0-.58-.19-.58-.45s.38-.57,2.11-1.34C9.28,42.24,17,35.77,22.72,28a63.51,63.51,0,0,0,7.61-13.44c1.09-2.62,1.54-3.84,1.54-4.41s-.38-.84-1-.84a7.4,7.4,0,0,0-2.56.58A85.23,85.23,0,0,0,17,14a5.93,5.93,0,0,1-1.92.64,8,8,0,0,1-3.58-2.05,4.3,4.3,0,0,1-1.54-3c0-1,.38-2,.7-2s.26,0,.58.57c.51.84,2.05,1.41,3.9,1.41s2.69-.13,9.41-1.53Z"/><path class="cls-1" d="M115.2,25c0,1.28-1.28,2.11-3.27,2.11-.57,0-2.62-.19-5.37-.45-1.35-.13-3.27-.19-5.64-.19-16,0-25.46.9-30.26,2.82a2.74,2.74,0,0,1-.9.19,11.48,11.48,0,0,1-5.5-2.11A6,6,0,0,1,62,22.14c0-1.15.32-1.79,1-1.79.19,0,.32.13.64.64,1,1.6,3.07,2.18,8.19,2.18,4.87,0,20.8-1,25.22-1.47a50.8,50.8,0,0,0,10.17-2.18C112.51,20.61,115.2,22.46,115.2,25Z"/><path class="cls-1" d="M127.81,24.57c2.88,0,5.63-1.85,11.13-7.55,2.75-2.81,4.87-4,7-4a7.72,7.72,0,0,1,4.55,1.92c.57.38.57.38,5.44,4.74a64.88,64.88,0,0,0,21.88,13.44c2.11.76,3.71,2.75,3.71,4.48,0,2-2,3.71-4.54,3.71-1.86,0-3.65-.71-6.66-2.69a63.78,63.78,0,0,1-11.19-9c-2.12-2.18-8.64-9-9.86-10.3-1.66-1.79-2.69-2.43-3.84-2.43-1.73,0-2.88,1.21-7.17,7.42-3.77,5.5-5.5,7.17-7.36,7.17-1.47,0-3.84-1.16-5.44-2.69a5.6,5.6,0,0,1-1.72-4,3.81,3.81,0,0,1,.25-1.48.3.3,0,0,1,.07-.19A4.8,4.8,0,0,0,127.81,24.57ZM170.36,6.34A6.34,6.34,0,1,1,164.16,0,6.34,6.34,0,0,1,170.36,6.34Zm-10.3,0a4,4,0,0,0,7.94,0,4,4,0,0,0-3.91-4A4,4,0,0,0,160.06,6.34Z"/><path class="cls-1" d="M204.42,9a3.81,3.81,0,0,1-.2,1c-.25.9-.38,2.88-.38,7.49,0,1,.19,5.5.32,7.49.06,1.09.13,2,.13,2.69,0,1.47-.71,2.56-1.67,2.56-1.92,0-4.8-2.56-4.8-4.36a6.88,6.88,0,0,1,.26-1.15,47.47,47.47,0,0,0,.26-6c0-2.44-.2-7.23-.39-8.26-.32-1.92-1.53-2.94-3.84-3.33-.38-.06-.57-.19-.57-.38,0-.64,3.45-2.18,4.8-2.18C200.51,4.54,204.42,7.36,204.42,9Zm15.74-5.63c2.11,1.34,2.75,1.92,2.75,2.49a1.45,1.45,0,0,1-.26.77c-.83,1.35-.89,1.54-.89,5.25,0,12.61-.58,17.41-2.5,21.5-3,6.27-8.89,10.88-18,14A26.57,26.57,0,0,1,195.07,49c-.32,0-.51-.13-.51-.32s.26-.51,1.15-.77a35,35,0,0,0,14.08-10c4.61-5.57,6-10.95,6-24,0-8.26-.51-9.86-3.32-10.11-.71-.07-.9-.2-.9-.52,0-.64,2.88-1.85,4.35-1.85C216.89,1.41,217.21,1.54,220.16,3.33Z"/><path class="cls-1" d="M256.13,42.24A36,36,0,0,1,246,49.85a6.23,6.23,0,0,1-2.18.83.35.35,0,0,1-.38-.32c0-.19.12-.38.51-.64,4.16-2.75,8-7.48,10.94-13.5,2.88-5.82,5.51-15,5.51-19.45a3,3,0,0,0-2.18-3.14c.19-.7,1-1.15,2.24-1.15,2,0,4.22,1.09,6.72,3.26,4.09-2.88,7.93-6.78,7.93-8.12,0-.58-1-1-2.55-1C269.18,6.66,262,7.87,255,9.6a19.06,19.06,0,0,0-6.14,2.5c-1.22.76-1.6,1-2.11,1-1.09,0-3.46-1.35-4.87-2.69a5.81,5.81,0,0,1-1.85-4.1c0-1.28.19-2,.51-2s.25.06.51.45c.83,1.47,2.24,2.11,4.48,2.11s13.37-1.15,20.61-2.11c5.95-.84,7.42-1.16,11.32-2.63a5.08,5.08,0,0,1,1.22-.25c1,0,2.37,1.08,5,4,1.86,2.05,2.37,2.81,2.37,3.52,0,1.21-.89,1.6-3.65,1.85a15,15,0,0,0-4.35,1.48c-4.54,2.17-8.06,3.9-10.68,5.12C265,28.35,261.18,36.54,256.13,42.24Z"/><path class="cls-1" d="M317.44,41.28c-5.18,3-13.37,6-16.45,6-.38,0-.64-.19-.64-.45s.2-.38.58-.51c8.38-2.88,14.65-7.23,20.86-14.4,4.55-5.24,7-9.4,8.9-15.16a19.28,19.28,0,0,0,1.21-4.87c0-1-.57-1.4-2-1.4a80.67,80.67,0,0,0-12.61,2.17,26.78,26.78,0,0,0-7.68,2.69,2.46,2.46,0,0,1-1,.38,8.52,8.52,0,0,1-3.9-1.85,6,6,0,0,1-2.17-5.12c0-.51.19-.9.51-.9.13,0,.25.13.51.45.77,1.15,2.62,1.86,4.86,1.86a149.43,149.43,0,0,0,16.39-2c4-.7,5.18-1.15,7.61-2.56,1.28-.77,1.6-.89,2.18-.89.76,0,1.79.57,5.44,3.13,1.34.9,2.24,1.79,2.24,2.18s-.58,1.09-2.95,2.69C333.25,27.45,327,35.71,317.44,41.28Z"/><path class="cls-1" d="M369.67,45.31c-2.56,2.88-8.58,7-10.18,7a.41.41,0,0,1-.38-.38c0-.26.06-.26.57-.64,2.95-1.86,6.21-5.76,8.45-10,2.82-5.37,5.12-13.18,5.12-17.34a2.4,2.4,0,0,0-1.92-2.49c.26-.77.83-1.09,1.92-1.09,1.92,0,3.58.83,5.7,2.68,3.39-2.36,6.52-5.56,6.52-6.65,0-.45-1-.77-2.11-.77A86.54,86.54,0,0,0,369,18a22.39,22.39,0,0,0-6.15,2.69A1.93,1.93,0,0,1,362,21a8.91,8.91,0,0,1-4.23-2.37,5.25,5.25,0,0,1-1.53-3.39c0-1,.25-1.79.51-1.79a.66.66,0,0,1,.45.26c.76,1.34,1.85,1.85,4,1.85,1.41,0,10.62-1,15.74-1.6s7.62-1.21,10.43-2.24a4.3,4.3,0,0,1,1.22-.32c1,0,1.79.71,4.35,3.59,1.54,1.72,1.92,2.3,1.92,2.88a1.46,1.46,0,0,1-.51.89c-.58.45-.58.45-3,.71a11.29,11.29,0,0,0-3.14,1.15c-1.66.83-3.39,1.66-5.12,2.49-.64.32-1.92,1-3.84,1.79C377.09,33.79,373.89,40.64,369.67,45.31Z"/><path class="cls-1" d="M442.11,44.35a3.66,3.66,0,0,1-3.65,3.71c-1.47,0-1.79-.26-4-2.88-4.55-6-15.55-12.67-22.08-13.37-.45-.07-.71-.26-.71-.58,0-.58.84-.7,3.72-.7C427.84,30.53,442.11,37.89,442.11,44.35ZM428.55,17.73c3.84,1.85,5.63,3.77,5.63,5.95a3.08,3.08,0,0,1-3.14,3c-1,0-1.53-.32-2.56-1.35a29.14,29.14,0,0,0-15.1-9c-.45-.13-.64-.25-.64-.51,0-.58,1.41-.83,4.29-.83A26.47,26.47,0,0,1,428.55,17.73Zm5.76-13c3.77,1.92,5.63,4.09,5.63,6.46a3.13,3.13,0,0,1-3.14,3.26c-1.22,0-1.79-.32-3.65-2.24-5.12-4.6-10.81-7.61-16.44-8.64-1.92-.32-2-.38-2-.7,0-.58,3.2-1.22,6.27-1.22A32.73,32.73,0,0,1,434.31,4.74Z"/><path class="cls-1" d="M471,9a3.72,3.72,0,0,1-.19,1c-.26.9-.39,2.88-.39,7.49,0,1,.19,5.5.32,7.49.07,1.09.13,2,.13,2.69,0,1.47-.7,2.56-1.66,2.56-1.92,0-4.8-2.56-4.8-4.36a6.3,6.3,0,0,1,.25-1.15,47.47,47.47,0,0,0,.26-6c0-2.44-.19-7.23-.38-8.26-.32-1.92-1.54-2.94-3.84-3.33-.39-.06-.58-.19-.58-.38,0-.64,3.46-2.18,4.8-2.18C467.08,4.54,471,7.36,471,9Zm15.74-5.63c2.11,1.34,2.75,1.92,2.75,2.49a1.51,1.51,0,0,1-.25.77c-.83,1.35-.9,1.54-.9,5.25,0,12.61-.57,17.41-2.49,21.5-3,6.27-8.9,10.88-18.05,14A26.67,26.67,0,0,1,461.64,49c-.32,0-.52-.13-.52-.32s.26-.51,1.16-.77a35,35,0,0,0,14.07-10c4.61-5.57,6-10.95,6-24,0-8.26-.52-9.86-3.33-10.11-.71-.07-.9-.2-.9-.52,0-.64,2.88-1.85,4.35-1.85C483.46,1.41,483.78,1.54,486.72,3.33Z"/><path class="cls-1" d="M559.68,25c0,1.28-1.28,2.11-3.26,2.11-.58,0-2.63-.19-5.38-.45-1.34-.13-3.26-.19-5.63-.19-16,0-25.47.9-30.27,2.82a2.69,2.69,0,0,1-.9.19,11.56,11.56,0,0,1-5.5-2.11,6,6,0,0,1-2.3-5.19c0-1.15.32-1.79,1-1.79.19,0,.32.13.64.64,1,1.6,3.07,2.18,8.19,2.18,4.86,0,20.8-1,25.21-1.47a51,51,0,0,0,10.18-2.18C557,20.61,559.68,22.46,559.68,25Z"/><path class="cls-1" d="M590,19a48.29,48.29,0,0,1-10.56,20.35A34.87,34.87,0,0,1,569.22,47a6,6,0,0,1-1.86.64.5.5,0,0,1-.51-.45c0-.19.19-.39.9-.9a37.24,37.24,0,0,0,12.67-17.28c2.18-5.69,3.26-10.3,3.26-13.5,0-2.49-1-4.29-2.75-5.05-.25-.13-.45-.26-.45-.45,0-.51,1.16-1.09,2.37-1.09a8.87,8.87,0,0,1,4.93,2c1.79,1.34,3.33,3.26,3.33,4.16a2.85,2.85,0,0,1-.26.89,9.69,9.69,0,0,0-.45,1.41Zm5.82,7.29c0-12.22-.06-15.55-.45-16.64a2.63,2.63,0,0,0-1.6-2c-.51-.13-.64-.19-.64-.45,0-.51,2.18-1.47,3.27-1.47s1.92.38,4.61,2.5c1.21,1,1.85,1.72,1.85,2.3a4.33,4.33,0,0,1-.57,1.6,5.29,5.29,0,0,0-.64,2c-.13,1.28-.32,3.07-.64,7.81-.32,4.48-.58,7.55-.58,8-.06.64-.13,1.15-.13,1.54,0,.83.26,1.34.71,1.34,1.15,0,4.48-1.54,7-3.26a65.91,65.91,0,0,0,12-10.5,61.87,61.87,0,0,0,6.4-8.7c.32-.64.51-.83.83-.83a.5.5,0,0,1,.52.44c0,1.22-3.4,7.56-6.15,11.52A61.43,61.43,0,0,1,602.5,39.1c-1,.58-1.54,1-1.79,1.09l-.9.7a1.66,1.66,0,0,1-1,.39,2.56,2.56,0,0,1-1.73-1.09c-1.15-1.34-2.37-3.46-2.37-4.16l1-3.58Z"/><path class="cls-1" d="M687.68,25c0,1.28-1.28,2.11-3.26,2.11-.58,0-2.63-.19-5.38-.45-1.34-.13-3.26-.19-5.63-.19-16,0-25.47.9-30.27,2.82a2.69,2.69,0,0,1-.9.19,11.56,11.56,0,0,1-5.5-2.11,6,6,0,0,1-2.3-5.19c0-1.15.32-1.79,1-1.79.19,0,.32.13.64.64,1,1.6,3.07,2.18,8.19,2.18,4.86,0,20.8-1,25.21-1.47a51,51,0,0,0,10.18-2.18C685,20.61,687.68,22.46,687.68,25Z"/><path class="cls-1" d="M716,21.31c3.2-7.23,4.16-10.24,4.16-13a3.94,3.94,0,0,0-1.92-3.65c-.19-.07-.25-.13-.25-.19,0-.45.83-.77,1.92-.77,1.72,0,2.81.51,5,2.3,2.88,2.37,3.84,3.65,3.84,5.12,0,.39-.13.64-.64,1.15C726,14.08,715.08,31.29,713,36c8.77-1.48,12.29-2.18,22.59-4.68a17.65,17.65,0,0,0-5.37-6.59c-.51-.38-.71-.64-.71-1a.45.45,0,0,1,.45-.45c1,0,4.1,1.28,6.34,2.56,5.82,3.33,10.43,9.67,10.43,14.28a4.07,4.07,0,0,1-3.84,4.22c-1.34,0-2.05-.83-2.88-3.39a37.3,37.3,0,0,0-3.07-7.49c-6.34,2.24-13.51,4.48-22.85,7.23-4.93,1.47-5.82,1.79-7.36,2.95a3,3,0,0,1-1.47.64c-.9,0-1.92-.71-3.58-2.44-2.12-2.17-2.76-3.2-2.76-4.54,0-1,.32-1.79.77-1.79.13,0,.13,0,.71.57s1.6.84,3.07.84a45.75,45.75,0,0,0,5.12-.39C711,31.87,713,27.9,716,21.31Z"/></g></g></svg>