<svg xmlns="http://www.w3.org/2000/svg" viewBox="0 0 454.32 124.54"><defs><style>.cls-1{fill:#fff;}</style></defs><title>superior-title</title><g id="Layer_2" data-name="Layer 2"><g id="Layer_1-2" data-name="Layer 1"><path class="cls-1" d="M31.62,7,35.88,10a1.63,1.63,0,0,1,.78,1.2c0,.48-.54.9-1.2.9l-1.5.12a94,94,0,0,1-8.28,11.7,40.23,40.23,0,0,1,10.74,6.24c3.3,2.76,5,5.16,5,7.08,0,1.2-.72,2.22-1.62,2.22s-1.62-.78-2.94-2.94c-2.16-3.84-6-7.44-12.24-11.4A49.83,49.83,0,0,1,10,37.2C6.54,39.12,1.5,41.34.6,41.34a.65.65,0,0,1-.6-.6c0-.42.48-.84,1.56-1.38A56.58,56.58,0,0,0,18.24,27.9c5.7-5.94,10-12.06,12.12-17.28-14,2-18.06,2.76-18.42,3.6a1.86,1.86,0,0,1-1,.54A6.08,6.08,0,0,1,8.34,13,6.37,6.37,0,0,1,6.6,9.12c0-.54.18-.78.84-1.08,1,2.22,1.92,2.82,4.14,2.82a32.33,32.33,0,0,0,4.8-.48c1.68-.24,3.3-.42,5-.6.72-.06,2.94-.36,8.88-1.2Z"/><path class="cls-1" d="M60.72,25.92c-.42,0-.84-.48-2.28-2.76a8,8,0,0,1-1.56-4c0-1.32.42-1.8,1.5-1.86.48,3.72,2.1,4.56,8.64,4.56,1.08,0,2.7-.06,5-.12,5.7-.18,8.28-.24,14.7-.3s12.36-.54,14.16-1.14a4,4,0,0,1,1-.18,5,5,0,0,1,2.4,1.14,2.53,2.53,0,0,1,1.26,2.1c0,.84-.48,1.26-1.38,1.26a12.18,12.18,0,0,1-2.22-.24A72.41,72.41,0,0,0,92.46,24c-11.64,0-16.2.12-30,.9A3.62,3.62,0,0,1,60.72,25.92Z"/><path class="cls-1" d="M119.46,25.08c1.08,0,1.5-.36,5.64-4.38,5.64-5.58,7-6.54,9.12-6.54,1.32,0,2.94.72,6.12,2.52,13.92,8,18.12,10.32,23.22,12.6a4,4,0,0,1,2.76,4,1.12,1.12,0,0,1-1.14,1.2c-.9,0-2.1-.6-6-3.06C151.74,26.76,144.48,22,141,19.62c-3.9-2.76-5.52-3.54-7.2-3.54-1.38,0-2.76,1.08-5.34,4.38-2,2.58-3.54,4.74-4.62,6.42-.78,1.32-1.44,1.74-2.34,1.74a8.11,8.11,0,0,1-4.62-2.22A4.56,4.56,0,0,1,115.32,23c0-.42.06-.54.54-.84C117.36,24.24,118.44,25.08,119.46,25.08Zm37.86-19a6.09,6.09,0,1,1-6-6.12A6.15,6.15,0,0,1,157.32,6.12Zm-10.38,0a4.29,4.29,0,1,0,4.2-4.26A4.3,4.3,0,0,0,146.94,6.12Z"/><path class="cls-1" d="M208.26,8.28c.12,2.22.3,7,.3,8,0,8.16-1,13.62-2.94,17.4q-3.87,7.2-14.4,11.88a20.37,20.37,0,0,1-5,1.68.67.67,0,0,1-.66-.66c0-.48.3-.72,1.56-1.26A36.45,36.45,0,0,0,199.56,37a16.73,16.73,0,0,0,4.86-9.84,69.08,69.08,0,0,0,.72-10.32c0-2.82-.24-9.9-.42-11.16s-.72-1.8-3.48-2.64c0-1,.66-1.32,2.16-1.32a14.33,14.33,0,0,1,5,1.5c1,.48,1.38.9,1.38,1.5A2,2,0,0,1,209,6.06c-.66.6-.72.72-.72,1.32Zm-15.78,1.8c.12,7.08.3,14.76.42,16.56.06.72.12,1.32.12,1.74,0,.9-.6,1.74-1.2,1.74-1,0-2.58-1.8-2.58-2.88a2.79,2.79,0,0,1,.24-.9,9.61,9.61,0,0,0,.3-2.88c0-3-.24-11-.42-14.16-.24-3.36-.42-3.54-3.18-4.14a.86.86,0,0,1-.12-.42c0-.48.6-.84,1.32-.84A14.63,14.63,0,0,1,193,5.58c.6.36.84.72.84,1.14s-.18.6-.78.9-.6.24-.6.72Z"/><path class="cls-1" d="M275,11.16c-8,4.86-11.46,7-14.88,8.82-1.62,9.48-4.26,15-9.54,20-2.4,2.28-6.42,4.92-7.44,4.92a.59.59,0,0,1-.6-.54c0-.42.24-.72,1.2-1.38,4.32-3.12,7-6.06,9-9.84a36.3,36.3,0,0,0,3.72-14.82c0-1.44-.3-1.86-2.1-2.88l-.54-.36a1,1,0,0,1,1.14-1c.78,0,1.86.54,4.38,2.1.78.48,1,.84,1,1.44v.18a123.75,123.75,0,0,0,13-9.72c-8.82-.06-27.72,2.7-30.18,4.44-.54.24-.66.3-.84.3a10.87,10.87,0,0,1-2.46-1.44c-1.5-1.2-2.7-2.82-2.7-3.78,0-.72.24-1,1.14-1.32,1.5,2,2.28,2.52,4.2,2.52.9,0,.9,0,9.3-1,11.1-1.26,16.8-1.74,21.3-1.92l1.8-1.68,4.32,3.84a1.78,1.78,0,0,1,.6,1.2c0,.6-.48,1-1.26.9l-1.86-.06Z"/><path class="cls-1" d="M3.84,84.22a4.57,4.57,0,0,0,4.08,1.92,30.51,30.51,0,0,0,3.78-.3C23.46,84.46,29,83.92,35.34,83.68l1.2-1.8,4.92,3.24a1.75,1.75,0,0,1,.84,1.38c0,.6-.36.84-1.26.9l-1.32.06c-5.16,11.88-9.84,18.36-17.28,23.82-4.86,3.6-13.32,7.92-15.36,7.92a.8.8,0,0,1-.84-.72c0-.6.54-1.08,1.8-1.62,14-5.82,22.56-15.3,28.08-31-4.74.24-5.76.36-17.22,1.62-6.3.84-8.4,1.32-9.18,2.22-.78.72-.9.78-1.38.78s-.66-.12-1.2-.66-1.26-1-2-1.44a4.53,4.53,0,0,1-2.22-3.18,5.24,5.24,0,0,1,.18-.84Z"/><path class="cls-1" d="M96.54,95.2c-2.1,1.5-9.12,5.64-13,7.62-1.26,9.24-3.36,13.32-9.3,17.82-2.28,1.74-6.3,3.9-7.26,3.9a.59.59,0,0,1-.54-.6c0-.3.18-.48.72-.78a29.8,29.8,0,0,0,7.74-6,18.77,18.77,0,0,0,4.44-8.94,28.32,28.32,0,0,0,1-5.7c0-1.32-.3-1.56-2.4-1.92.06-.78.66-1.26,1.62-1.26a9.09,9.09,0,0,1,3.54,1,1,1,0,0,1,.66.84,59.54,59.54,0,0,0,9.6-7.86l-.9.06c-7.14.18-20,2.16-23.76,3.6a1.81,1.81,0,0,1-.78.24,4.48,4.48,0,0,1-2.34-1.44,3.8,3.8,0,0,1-1.44-3.06c0-.48.24-.72,1-.84l.12.24c.54,1.14,1.26,1.56,2.94,1.56a45.41,45.41,0,0,0,5.7-.48c9.66-1.14,12.54-1.44,18.9-1.68l.84-.06L95.16,90l4.08,3.72a1.4,1.4,0,0,1,.42.9c0,.42-.36.72-.9.72h-.6Z"/><path class="cls-1" d="M126.48,92.38h.72c5.88,0,10.92,1.14,14.76,3.24,2.7,1.44,4.68,3.72,4.68,5.22a1.74,1.74,0,0,1-1.5,1.68c-.54,0-1-.3-1.74-1.2-3.54-4-9.42-6.66-17.16-7.74Zm1.44,16.32.48.06h.36c11.58.84,25.14,6.6,25.14,10.68a1.78,1.78,0,0,1-1.56,1.8c-.66,0-1.08-.24-2.58-1.56-5-4.14-13.68-8-21.42-9.48l-.66-.18-.36-.06Zm3.36-28.62h1.2c6.18,0,11.76,1.14,15.42,3.24,2.46,1.38,3.78,2.82,3.78,4.08a1.74,1.74,0,0,1-1.5,1.68,3.18,3.18,0,0,1-1.92-1c-3.36-3.18-8.16-5.16-16.8-6.84l-.3-.06Z"/><path class="cls-1" d="M208.26,84.28c.12,2.22.3,7,.3,8,0,8.16-1,13.62-2.94,17.4q-3.87,7.2-14.4,11.88a20.37,20.37,0,0,1-5,1.68.67.67,0,0,1-.66-.66c0-.48.3-.72,1.56-1.26A36.45,36.45,0,0,0,199.56,113a16.73,16.73,0,0,0,4.86-9.84,69.08,69.08,0,0,0,.72-10.32c0-2.82-.24-9.9-.42-11.16s-.72-1.8-3.48-2.64c0-1,.66-1.32,2.16-1.32a14.33,14.33,0,0,1,5,1.5c1,.48,1.38.9,1.38,1.5a2,2,0,0,1-.78,1.32c-.66.6-.72.72-.72,1.32Zm-15.78,1.8c.12,7.08.3,14.76.42,16.56.06.72.12,1.32.12,1.74,0,.9-.6,1.74-1.2,1.74-1,0-2.58-1.8-2.58-2.88a2.79,2.79,0,0,1,.24-.9,9.61,9.61,0,0,0,.3-2.88c0-3-.24-11-.42-14.16-.24-3.36-.42-3.54-3.18-4.14a.86.86,0,0,1-.12-.42c0-.48.6-.84,1.32-.84A14.63,14.63,0,0,1,193,81.58c.6.36.84.72.84,1.14s-.18.6-.78.9-.6.24-.6.72Z"/><path class="cls-1" d="M237.12,101.92c-.42,0-.84-.48-2.28-2.76a8,8,0,0,1-1.56-4c0-1.32.42-1.8,1.5-1.86.48,3.72,2.1,4.56,8.64,4.56,1.08,0,2.7-.06,5-.12,5.7-.18,8.28-.24,14.7-.3s12.36-.54,14.16-1.14a4,4,0,0,1,1-.18,5,5,0,0,1,2.4,1.14,2.53,2.53,0,0,1,1.26,2.1c0,.84-.48,1.26-1.38,1.26a12.18,12.18,0,0,1-2.22-.24,72.41,72.41,0,0,0-9.48-.36c-11.64,0-16.2.12-30,.9A3.62,3.62,0,0,1,237.12,101.92Z"/><path class="cls-1" d="M303.9,105.34a44.41,44.41,0,0,1-9.48,12.06c-2,1.8-2.52,2.22-3,2.22a.64.64,0,0,1-.6-.54c0-.3.18-.54.72-1.08a40,40,0,0,0,8.7-11.7c2.52-5,4.74-11.88,4.74-14.58,0-.84-.54-1.38-1.92-1.86-.06,0-.54-.18-1.5-.48.24-1,.24-1,2.88-1.14a14.31,14.31,0,0,1,4.08,1.5c1.2.66,1.92,1.44,1.92,2.1s-.48.9-1.74,1.2C306.18,101,305.82,101.86,303.9,105.34Zm39.36-11.16-.3.3-.24.3c-3.84,5.34-12.3,12.78-21.48,18.9-.36.24-.72.48-.78.54s-.24.3-.48.66c-.36.6-.78.9-1.2.9-.6,0-.9-.3-2.4-2.1-1-1.14-1-1.26-1-1.62s.24-.6,1.14-1.2v-1.08l.06-2.7c.06-3,.06-3.66.06-6.6l-.06-7.56-.06-4.44c.12-2.88-.78-4-3.6-4.56V83.5c0-.54.84-1.08,1.74-1.08a15.92,15.92,0,0,1,5.28,1.86c1,.6,1.5,1.08,1.5,1.5,0,.6-.48,1.08-1.74,1.8-.18,3.06-.3,10.26-.3,15.48,0,1.92,0,3.24.12,7a82.48,82.48,0,0,0,22.08-16.32,5.41,5.41,0,0,0,.6-.54Z"/><path class="cls-1" d="M354.72,101.92c-.42,0-.84-.48-2.28-2.76a8,8,0,0,1-1.56-4c0-1.32.42-1.8,1.5-1.86.48,3.72,2.1,4.56,8.64,4.56,1.08,0,2.7-.06,5-.12,5.7-.18,8.28-.24,14.7-.3s12.36-.54,14.16-1.14a4,4,0,0,1,1-.18,5,5,0,0,1,2.4,1.14,2.53,2.53,0,0,1,1.26,2.1c0,.84-.48,1.26-1.38,1.26a12.18,12.18,0,0,1-2.22-.24,72.41,72.41,0,0,0-9.48-.36c-11.64,0-16.2.12-30,.9A3.62,3.62,0,0,1,354.72,101.92Z"/><path class="cls-1" d="M437.52,95.44a44.83,44.83,0,0,1,6.9,4.32c5.64,4.5,9.9,10.92,9.9,14.94a2.09,2.09,0,0,1-1.86,2.22c-.78,0-1.26-.6-2.1-2.82a35.57,35.57,0,0,0-2.64-5.46c-10.2,2.7-18.66,4.68-25.5,5.94-3.48.72-3.6.78-4.2,1.74-.36.54-.72.84-1,.84a4.53,4.53,0,0,1-2-1.5c-1.68-1.8-2.7-3.66-2.7-5a1.26,1.26,0,0,1,1.08-1.38c.78,1.86,1.2,2.22,2.52,2.22a50,50,0,0,0,5.76-.48c4.5-9.72,10.14-24.6,10.14-26.82,0-1.38-.9-2.22-3.48-3.3.12-.9.3-1.14,1-1.14,2.82,0,7.74,3.6,7.74,5.7,0,.54-.42.84-1.5,1.26a1.25,1.25,0,0,0-.6.48,18.55,18.55,0,0,1-.78,1.8c-3.24,7.68-4.38,10-9.6,20.34l-.72,1.56c8.94-1.2,15.12-2.28,22.74-4a48.16,48.16,0,0,0-9.9-11Z"/></g></g></svg>