<svg xmlns="http://www.w3.org/2000/svg" viewBox="0 0 561.31 238.19"><defs><style>.cls-1{fill:#343434;}</style></defs><title>catch-copy</title><g id="Layer_2" data-name="Layer 2"><g id="Layer_1-2" data-name="Layer 1"><path class="cls-1" d="M147.71,21a8.91,8.91,0,0,0,.27-1.52c.11-.75.22-1.29.22-1.51a5.92,5.92,0,0,0,.16-1.19c0-.92-.92-1.52-2.38-1.52-1.94,0-13.57,2-17.9,3a10,10,0,0,1-2.6.44c-1,0-1.57-.33-3.51-2.06a3,3,0,0,1-1-2.43c0-1,.16-1.3.54-1.3.22,0,.27.05.33.27.43,1.35,1.89,1.89,5.3,1.89a106.88,106.88,0,0,0,14.77-1.46c1.13-.21,2.11-.32,2.43-.38a10.87,10.87,0,0,0,4.11-1.35c.76-.38.87-.43,1.24-.43.6,0,1.3.43,3.2,1.89s2.21,2,2.21,2.49c0,.22-.21.49-.54.76-1.73.92-2.86,3.78-5.73,14.66l1.41-.11c1.67.7,2.75,1.67,2.75,2.54,0,.65-.37,1.14-.86,1.14a3.3,3.3,0,0,1-.49-.11,27,27,0,0,0-5.84-.76,61.22,61.22,0,0,0-16.71,2.43,6.19,6.19,0,0,1-2.38.6c-.82,0-1.52-.49-3.3-2.22A4.38,4.38,0,0,1,122,32.56a.36.36,0,0,1,.37-.37c.17,0,.17,0,.49.21a11.89,11.89,0,0,0,4,.71,9.24,9.24,0,0,0,1.57-.11c.21,0,1.35-.06,3.35-.22,2.87-.22,4.92-.38,6-.49,1.9-.21,3.84-.43,5.74-.59l2.48-.27Z"/><path class="cls-1" d="M192.22,15.42a2.26,2.26,0,0,1-2.48,2.32c-.71,0-1.09-.27-1.63-1.24a11.89,11.89,0,0,0-8.33-6.65c-.32-.11-.48-.22-.48-.38,0-.38,1-.65,2.54-.65C187,8.82,192.22,12.12,192.22,15.42Zm-7,24c-.81,0-2.59-1.29-3.89-2.81A4,4,0,0,1,180,33.21c0-1,.27-1.84.64-1.84.22,0,.33.11.44.38a3.81,3.81,0,0,0,3.24,2.76c2.22,0,8.77-4.06,16.61-10.28a106.91,106.91,0,0,0,10.11-9c1.09-1.08,4-4.44,4.55-5.08s.65-.87.92-.87a.44.44,0,0,1,.43.49c0,.86-2.38,4.54-5.08,7.84a83.79,83.79,0,0,1-11.58,11.68,82.63,82.63,0,0,1-12.87,8.88C186.33,39.05,185.73,39.43,185.19,39.43Z"/><path class="cls-1" d="M247,23.15c-4.7,2.06-6.16,2.76-7.84,4a3,3,0,0,1-1.73.65,10.76,10.76,0,0,1-4-1.84c-1-.59-1.19-1.14-1.19-2.7,0-.22.1-.44.27-.44s.1,0,.32.17a5.1,5.1,0,0,0,3.14.86c2,0,6.71-1.3,11-2.92,0-.76,0-1.57,0-1.73.06-1.46.11-2.44.11-2.92a39.11,39.11,0,0,0-.43-6.93c-.38-1-.65-1.19-2.38-1.46l-.27,0-.92,0c-.11,0-.33-.32-.33-.48,0-.65,2.6-1.95,3.84-1.95,1.74,0,5.25,2.33,5.25,3.46a1.22,1.22,0,0,1-.16.49c-.76,1.13-1.19,4.43-1.46,10.38,1.46-.54,1.62-.59,4.27-1.51,4.33-1.52,6-2.27,7.63-3.57a2.92,2.92,0,0,1,1.51-.76c.6,0,2.28.92,4.33,2.38,1.62,1.14,2.27,1.79,2.27,2.38,0,.38-.38.71-1.19,1.08a8.82,8.82,0,0,0-3.08,1.9c-1.08,1-5.35,4.38-6.76,5.46-1.25.92-1.62,1.14-2,1.14-.22,0-.44-.17-.44-.27s.06-.27.49-.76c3-3.52,5.63-7.36,5.63-8.22,0-.6-.6-.92-1.63-.92-1.24,0-6.38,1.62-11.08,3.57-.06,4.11-.06,4.38-.06,5.73-.05,1.14-.05,2-.05,2.6,0,5.62,1.62,7.62,6.16,7.62a34.21,34.21,0,0,0,11.31-1.73,7.77,7.77,0,0,1,1.68-.27A2.83,2.83,0,0,1,271.84,38c0,.82-.86,1.46-2.49,2a51.69,51.69,0,0,1-8.7,1.14c-4.44,0-7.42-.49-9.42-1.57-2.32-1.3-3.46-3.14-3.89-6.28-.22-1.73-.22-2.16-.27-7.95Z"/><path class="cls-1" d="M308,36.13a44.35,44.35,0,0,1-14.55,6.22,3.68,3.68,0,0,1-.71.17,2.74,2.74,0,0,1-.48.1c-.33,0-.76-.27-.76-.54s.16-.32.81-.54a57.36,57.36,0,0,0,14.61-8.06,46.07,46.07,0,0,0,10.87-13.19c1.3-2.44,2.38-5.47,2.38-6.55,0-.87-.65-1.35-1.62-1.35-4.66,0-14.18,1.67-18,3.14a2.78,2.78,0,0,1-.92.27,7.13,7.13,0,0,1-3.08-1.63,4.05,4.05,0,0,1-1.24-2.86c0-1,.16-1.52.54-1.52.16,0,.21.11.38.49.32,1,2.21,1.89,4.22,1.89s9.19-.76,14.33-1.46c2.65-.38,3.46-.65,4.65-1.41s1.3-.75,1.73-.75c.76,0,1.25.27,3.57,2.21.6.49,1.14.92,1.25,1,.92.65,1.19,1,1.19,1.41s-.22.54-.87.81c-.16.11-.16.11-1.19.7C319.17,26.45,315.11,31.54,308,36.13ZM335,5.19A5.19,5.19,0,1,1,329.93,0,5.19,5.19,0,0,1,335,5.19Zm-8.6,0a3.41,3.41,0,1,0,3.36-3.4A3.4,3.4,0,0,0,326.41,5.19Z"/><path class="cls-1" d="M365.08,19.91c.06,9.68.17,14.82.44,18.44.1,1.14.16,1.95.16,2.44,0,2.27-.81,3.94-1.95,3.94s-2.87-2.43-2.87-3.78a7.42,7.42,0,0,1,.17-1.41c.43-3,.86-15,.86-25.8,0-5.08-.21-6.92-.86-8a2.72,2.72,0,0,0-2.6-1.35c-.38,0-.54-.16-.54-.48s.16-.38.49-.55a15.17,15.17,0,0,1,3.3-.86c.81,0,1.56.38,3.94,1.89.71.49,1,.87,1,1.25a2.87,2.87,0,0,1-.27,1c-.86,1.46-1.19,4-1.3,10.06a23.12,23.12,0,0,1,11.36,3.52c2.92,2,4.28,3.73,4.28,5.46a2.22,2.22,0,0,1-2.28,2.38c-1.19,0-1.78-.48-3.13-2.54a19.4,19.4,0,0,0-10.23-8Z"/><path class="cls-1" d="M414.68,24.29c.81-1.73.81-1.73,1.08-1.73s.38.21.38.48a6.87,6.87,0,0,1-.38,1.19c-1.89,4.93-3.19,10.93-3.19,14.5a8,8,0,0,0,.76,3.73,2.16,2.16,0,0,1,.27.87A1.91,1.91,0,0,1,412,45.11c-1.19,0-2.6-1.13-3.63-2.81-1.73-3-2.49-6.54-2.49-12.06,0-4.6.81-9.58,2.65-16.45a18.09,18.09,0,0,0,.92-5.41c0-2.27-.54-3.62-1.89-4.59-.11-.11-.16-.17-.16-.27a.29.29,0,0,1,.32-.27c.87-.11,3.25,1.19,4.22,2.21a6,6,0,0,1,1.73,3.84,9.39,9.39,0,0,1-1,3.79c-3.24,7.74-4.27,11.74-4.27,16.93,0,3.57.6,6.33,1.3,6.33.38,0,.7-.54,1.24-2.16.33-.87.6-1.57.71-1.95l1.3-3.35Zm15-19.42a.44.44,0,0,1-.22,0,.25.25,0,0,1-.16-.16c0-.11.16-.27.7-.7a4.39,4.39,0,0,1,2.71-1.25,6.77,6.77,0,0,1,3.73,1.79c.7.54,1,1,1,1.51a1.58,1.58,0,0,1-.16.6,7.11,7.11,0,0,0-.76,2.38A6.44,6.44,0,0,0,441,11a3.94,3.94,0,0,0,.92-.06c.33-.05.6-.11.71-.11a2.22,2.22,0,0,1,1.78,1.63c0,.75-1,1.94-2.33,2.75a21.08,21.08,0,0,1-6,2.6c.06.76.06,1.46.11,1.68,0,.54.11,1.73.27,3.57.38,4.6.6,7.73.6,10.22,6.6,1.84,10.28,4.44,10.28,7.25a2,2,0,0,1-2.06,2,2.49,2.49,0,0,1-2.11-1.35,19.66,19.66,0,0,0-6.17-5.46c-.75,4.71-3.84,7.19-9,7.19-4.71,0-8.22-2.32-8.22-5.46s3.68-5.3,9.19-5.3a24.72,24.72,0,0,1,4.93.49c0-1.73,0-2.44-.17-5.25-.27-4.81-.32-5.68-.37-9a45.07,45.07,0,0,1-7.58.86,4.33,4.33,0,0,1-4-2,7.33,7.33,0,0,1-.81-3.09.3.3,0,0,1,.27-.32c.16,0,.27.11.32.38.55,1.3,2.28,2.05,4.93,2.05a43.86,43.86,0,0,0,6.87-.7c-.06-4.38-.11-7.36-.27-8.12A2.86,2.86,0,0,0,430,4.87Zm-.92,29.21c-3.84,0-6.49,1.41-6.49,3.41,0,1.51,1.62,2.48,4.11,2.48,4.92,0,6.71-1.35,7.25-5.3A24.47,24.47,0,0,0,428.8,34.08Zm7.19-19c2.11-.7,3.52-1.51,3.52-1.95,0-.16-.11-.32-.38-.54-.65-.54-1.62-1.56-2.76-2.7A30,30,0,0,0,436,15.09Z"/><path class="cls-1" d="M116.16,62.49h13.63V65h-11v35.43h-2.59Z"/><path class="cls-1" d="M137.35,105.65c5.14-.22,6-.92,6.06-4.87v-26c0-3.13-1.41-4.11-6.06-4.11V68.87h17.58c6.82,0,12,1.4,15.53,4.27,4.22,3.36,6.65,8.87,6.65,15.09,0,11.74-8.6,19.15-22.18,19.15H137.35Zm10.88-4.7c0,3.78,1,4.65,5.62,4.65,10.93,0,17.15-6.55,17.15-18,0-11.14-6.06-17-17.53-17-3.95,0-5.24,1-5.24,4Z"/><path class="cls-1" d="M183.6,105.43c3.19-.1,5.35-1.78,6.7-5.08l12.39-31.59,3.73-1.3,13.15,33.75c1.19,3,2.54,4.06,5.68,4.22v1.95H210.43v-1.95c3.35,0,4.32-.48,4.32-2.21a6.66,6.66,0,0,0-.48-2.27l-2.92-7.74H195.06l-2.59,6.87a5,5,0,0,0-.38,2c0,2.59,1,3.3,4.81,3.4v1.95H183.6Zm27-14.06L203.56,71.9l-7.74,19.47Z"/><path class="cls-1" d="M230.38,105.54c4.54-.11,5.9-1.46,6.06-6V75.2c0-3.46-1.14-4.28-6.06-4.55V68.92h9.25l24.18,30.89V76.22c0-3.89-1.25-5.13-5.68-5.57V68.92h13.63v1.73c-5.14.38-6,1.14-6.06,5.57v32.14h-.81L238.33,74.49V99.54c0,4.49,1.3,5.73,6.28,6v1.84H230.38Z"/><path class="cls-1" d="M277.38,105.6l.87-.06c4.11-.05,5-.86,5-4.49V74.6c-.05-3.19-1-3.78-6.06-3.89V68.87h18.12c4.39,0,7.31.48,9.53,1.51,3.4,1.63,5.19,4.33,5.19,7.74a8.41,8.41,0,0,1-4.44,7.63c-1.89,1.13-3.57,1.67-7,2.21l9.09,13.31c2.16,3.19,3.41,3.89,7.52,4.16v1.95h-9.25l-12.66-19.2H288v12.87c-.06,3.84.59,4.28,6.38,4.55v1.78h-17Zm14.5-19.21c8.43,0,12.49-2.75,12.49-8.38a6.55,6.55,0,0,0-3.68-6.27c-1.67-.82-4.11-1.2-7.73-1.2-4.06,0-4.92.71-4.92,4V86.39Z"/><path class="cls-1" d="M320.54,105.43c3.19-.1,5.36-1.78,6.71-5.08l12.39-31.59,3.73-1.3,13.14,33.75c1.19,3,2.54,4.06,5.68,4.22v1.95H347.37v-1.95c3.35,0,4.33-.48,4.33-2.21a6.46,6.46,0,0,0-.49-2.27l-2.92-7.74H332l-2.6,6.87a5,5,0,0,0-.38,2c0,2.59,1,3.3,4.82,3.4v1.95H320.54Zm27-14.06L340.5,71.9l-7.73,19.47Z"/><path class="cls-1" d="M367.32,105.54c4.55-.11,5.9-1.46,6.06-6V75.2c0-3.46-1.13-4.28-6.06-4.55V68.92h9.25l24.18,30.89V76.22c0-3.89-1.24-5.13-5.68-5.57V68.92h13.64v1.73c-5.14.38-6,1.14-6.06,5.57v32.14h-.81L375.28,74.49V99.54c0,4.49,1.29,5.73,6.27,6v1.84H367.32Z"/><path class="cls-1" d="M429.9,111.17H416.27v-2.54h11V73.2h2.59Z"/><path class="cls-1" d="M5.52,130.22a7.51,7.51,0,0,1,.65,2.32H21.26v-6.7l4.76.43c.7.11,1.13.43,1.13.92s-.21.7-.75,1.08l-1.25.87v3.4H39.43l1.73-2.11,4.66,4.44c.54.49.75.87.75,1.19a.93.93,0,0,1-1.08.86h-.11l-3.24-.21L38.41,139a1.86,1.86,0,0,1-.55.22.25.25,0,0,1-.21-.27,1.84,1.84,0,0,1,.11-.49l2.05-4.65H6.33c0,.7,0,1.25,0,1.9,0,3.24-2.11,6-4.54,6A2,2,0,0,1,0,139.68c0-1,0-1,2.65-3.84,1.57-1.78,1.73-2.43,1.79-5.62Zm-.11,10.87c1.73,0,3.3.11,3.79.11,1.73.05,2.92.11,3.46.11h19l3.19-3.52,4.22,3.41c.38.27.49.49.49.76a.57.57,0,0,1-.65.64H26.45c-1.51,1.14-2.16,1.63-5,3.47a30.51,30.51,0,0,1,5.79,7.57c.92.81,1.08,1,1.73,1.57a101.48,101.48,0,0,0,9.47-10.06l3.35,3.24a1.23,1.23,0,0,1,.49.87c0,.54-.49.86-1.14.86H39.6l-9.74,6c4.11,5,11.2,9.36,19,11.79a9.61,9.61,0,0,0-3.41,2c-.65.6-1.08,1.08-1.68,1.68-6.05-3.09-11.79-8.71-15.74-15.26a18.73,18.73,0,0,1,.87,5.74c0,4.7-1.46,8.87-3.9,11a7.79,7.79,0,0,1-4.38,1.78c-.32,0-.43-.16-.43-.65,0-1.4-.05-1.46-1.19-2.05l-4.49-2,0-.81,4.28.43c1.13.11,1.89.16,2,.16a4.18,4.18,0,0,0,3.57-2.59,20.16,20.16,0,0,0,1.3-7.25,9.33,9.33,0,0,0-.22-2.06c-6.92,5.68-10.17,7.84-16.23,10.87C5.46,170.79,2.6,172,1.84,172a.39.39,0,0,1-.43-.38c0-.27,0-.27,3.24-2a96.16,96.16,0,0,0,20-15.31,7.2,7.2,0,0,0-1.3-2.65,69.67,69.67,0,0,1-13.8,9.52c-3.62,1.84-6.43,3-7.3,3-.32,0-.54-.16-.54-.43s0-.27,2.49-1.57A64.73,64.73,0,0,0,21.53,148.5L20,147a86.61,86.61,0,0,1-14,7.46,26.81,26.81,0,0,1-5.41,1.84c-.38,0-.6-.16-.6-.43s.11-.44,2.33-1.36c5-2.16,13.31-7.68,18-11.9H12.66c-1.79,0-3.19.06-6.33.17Z"/><path class="cls-1" d="M67.23,150.18c-.87,9.52-2.76,14.87-7.36,20.17-1.89,2.22-4.22,4.39-4.7,4.39a.47.47,0,0,1-.44-.38.94.94,0,0,1,.33-.6c7.57-9,9.14-14.93,9.19-34.46-3.73.06-4.27.06-8.22.17l-.7-1.68c4.6.22,5.3.22,9.68.22V126.49l4.44.37c.7.06,1.19.49,1.19,1,0,.38-.27.7-.76,1l-1.3.87V138h4.17l2.92-3,3.84,2.87a1,1,0,0,1,.38.76.64.64,0,0,1-.6.64H67.66c-.11,4.71-.16,5.41-.38,9.58h4.49l1.46-1.95,3.57,2.87a1,1,0,0,1,.49.76.9.9,0,0,1-.49.75l-1.08.49c-.48,10.49-1,14.66-2.49,18.12-1,2.38-2.86,4-4.76,4-.37,0-.59-.27-.7-.87l-.16-1.08a1.83,1.83,0,0,0-.7-.75l-3.79-1.95.05-.71,5.25.71.22.05c.92.16,1.84-1,2.27-3,1-4.7,1.3-7.84,1.46-16.06Zm17.63,7.3c-1.4,0-1.46,0-6.59.16L77.56,156l4,.16c1.41.05,2.6.05,3.3.05h3.25c.27-3.24.32-3.78.43-7.46H84.92c-1.57,2.92-4,6.16-4.65,6.22-.11,0-.22-.16-.22-.33s0-.38.65-1.4a47.13,47.13,0,0,0,4.38-13.15l4.06,1.57a.91.91,0,0,1,.65.87,1.27,1.27,0,0,1-.87,1.13l-1.3.44-1.84,3.35h8.71l3-3,3.9,2.87a1.17,1.17,0,0,1,.38.81.67.67,0,0,1-.65.65h-9c-.21,3.68-.27,4.27-.54,7.46H98l3.14-3.19,4,3.08a.85.85,0,0,1,.33.76.7.7,0,0,1-.65.65H92.11c2.71,5.35,7,9.2,14.45,13a3.09,3.09,0,0,1-.76.37c-.6.28-1.14.49-1.73.71a11.59,11.59,0,0,0-2.22,1.78,33,33,0,0,1-10.66-14.6c-1.35,6.22-3.19,9-8,12.17-2.38,1.57-7.79,4-8.92,4a.48.48,0,0,1-.49-.43c0-.33.22-.54.81-.81,8.93-4.11,12.17-8,13.36-16.23Zm4.66-28.94c.54.27.81.6.81,1s-.33.76-1,1l-1.67.6c-1.46,2.92-1.68,3.3-3.14,5.89H97.47l3.24-3.3,4.17,3a1.2,1.2,0,0,1,.27.87c0,.38-.16.7-.43.7H83.84A44.69,44.69,0,0,1,78.37,146c-1.35,1.52-1.84,2-2.21,2a.29.29,0,0,1-.33-.32c0-.33,0-.33,1.08-1.95a63,63,0,0,0,7.52-19.48Z"/><path class="cls-1" d="M147.44,134.27c5.9-1.46,5.9-1.46,6.71-1.46a3.94,3.94,0,0,1,2.92,1.63,5.38,5.38,0,0,1,1.46,2.48c0,.65-.65,1.09-1.46,1.09a4.45,4.45,0,0,1-1.68-.38,14.45,14.45,0,0,0-3.94-.6,16.76,16.76,0,0,0-6.6,1.52c-2.87,1.4-5.85,5.24-7.14,9.25a37.11,37.11,0,0,0-1.57,10.87c0,6.65,2.54,9.2,9.36,9.2a17.16,17.16,0,0,0,3.89-.38,2,2,0,0,1,.7-.06,2.74,2.74,0,0,1,2.06.92,4.86,4.86,0,0,1,1,2.17c0,1.19-1.4,1.67-5,1.67-9.79,0-15.64-4.49-15.64-11.95a32.54,32.54,0,0,1,6.55-19,16.2,16.2,0,0,1,2.76-3.08.6.6,0,0,0,.27-.44.23.23,0,0,0-.22-.21c-3.08,0-14.12,4.32-17.69,6.92-1.51,1.08-2,1.3-2.92,1.3a7.39,7.39,0,0,1-4.05-2.22,6.33,6.33,0,0,1-1.14-3.84c0-.22.11-.38.32-.38s.22.05.33.27c.54,1.25,1.57,1.79,3.57,1.79a10.36,10.36,0,0,0,4.06-.87c8.38-2.49,12.65-3.68,18.28-4.92ZM155.18,150a2,2,0,0,1-1.9,1.89c-.48,0-.81-.27-1.24-1a8.79,8.79,0,0,0-5.3-4.33c-.38-.05-.43-.11-.43-.27s.65-.38,1.84-.38C151.66,145.85,155.18,147.91,155.18,150ZM160.8,147a2,2,0,0,1-1.89,2c-.49,0-.81-.21-1.14-.86a9.35,9.35,0,0,0-5.57-4.6c-.32-.06-.38-.11-.38-.22,0-.27.76-.43,2-.43C157.29,142.93,160.8,145,160.8,147Z"/><path class="cls-1" d="M184,132.65a2.13,2.13,0,0,1-.48.06.2.2,0,0,1-.22-.22c0-.49,2-1.52,3.19-1.52a6.68,6.68,0,0,1,3.62,1.2c1.19.75,1.57,1.24,1.57,2.05a47.1,47.1,0,0,1-1.73,8.6,17.28,17.28,0,0,1,4.82-.92,5.72,5.72,0,0,1,4.87,2.65c.75,1.3,1.19,3.63,1.19,6.66,0,6.11-1.9,13-4.44,16.12a9,9,0,0,1-6.22,3c-.76,0-1-.21-1.08-1.24-.27-1.84-.81-2.81-2.82-5.3-.65-.7-.81-.92-.81-1.25s.22-.48.38-.48.38.16.87.65c2,1.89,3.46,2.81,4.54,2.81,1.95,0,3.52-1.79,4.71-5.3a36.7,36.7,0,0,0,1.73-11.09c0-3.68-1.14-5.68-3.25-5.68a14.81,14.81,0,0,0-5,1.19,130.06,130.06,0,0,1-6.87,17.58,78.45,78.45,0,0,1-3.9,7,3.28,3.28,0,0,1-2.81,1.68,2.06,2.06,0,0,1-2.17-2.11,2.21,2.21,0,0,1,.87-1.62c4.49-4.49,8.82-12.44,11.79-21.53-1.73.65-4.38,1.73-7.08,2.92a4.83,4.83,0,0,1-2,.59c-1.73,0-3.35-2.27-3.35-4.7,0-.65.16-1,.48-1,.16,0,.38.22.54.55a2.46,2.46,0,0,0,2.44,1.46,49.9,49.9,0,0,0,9.35-2,66.62,66.62,0,0,0,.82-7.08c0-1.68-.38-2.65-1.36-3.19a3.92,3.92,0,0,0-2.05-.6Zm25.64,21.21a2.17,2.17,0,0,1-.54,0,.39.39,0,0,1-.43-.43c0-.33.11-.38.81-.49,4.38-.81,6.06-1.57,6.06-2.81,0-3.09-2.65-6.66-6.17-8.28a9.64,9.64,0,0,0-3.89-1c-.17,0-.27-.05-.27-.21,0-.33.75-.49,2.27-.49,6.81,0,12.39,5.19,12.39,11.58,0,2.27-1,3.84-2.33,3.84-.49,0-.49,0-1.46-.76a7.32,7.32,0,0,0-4-1Z"/><path class="cls-1" d="M236.52,131.57c2.92.87,5.25,3.41,5.25,5.79,0,.92-.33,2-1.57,5.52-2.44,6.81-2.82,8.43-2.82,12.33,0,3.35.92,6.92,1.79,6.92.16,0,.38-.21.54-.7.6-1.57,1.79-4.22,4.27-9.58.76-1.56.87-1.78,1.25-1.78a.7.7,0,0,1,.48.54,1.52,1.52,0,0,1-.27.76,38.76,38.76,0,0,0-3.4,12.49,16.32,16.32,0,0,0,.48,3.09,1.57,1.57,0,0,1,.22.65c0,.54-1.14,1.4-1.84,1.4-1.3,0-3.08-1.73-4.11-3.89a22.12,22.12,0,0,1-2-9.2c0-3,.43-6,1.67-11.95a39.79,39.79,0,0,0,1.14-7.58c0-2.43-.76-3.94-2.16-4.43-.11-.06-.17-.06-.17-.16a.47.47,0,0,1,.44-.44.55.55,0,0,1,.27.06Zm21.37.87a.88.88,0,0,1-.33.05.25.25,0,0,1-.27-.22c0-.48,2.6-1.84,3.52-1.84a7.85,7.85,0,0,1,3.78,1.41c1.19.7,1.57,1.08,1.57,1.73a.93.93,0,0,1-.16.54,18.34,18.34,0,0,0-.54,5.52c0,.54,0,1.19.05,2.11a12.56,12.56,0,0,0,5.3-3.19c.33-.33.49-.43.76-.43a8.74,8.74,0,0,1,2.6.86,1.41,1.41,0,0,1,.75,1.08c0,1.3-3,2.92-8.87,4.76.22,3.73.27,5.47.27,7.79,0,8.77-2.16,14.39-6.76,17.64-2.65,1.89-7.68,4.05-9.3,4.05-.38,0-.6-.16-.6-.43s.17-.49.65-.65a17.31,17.31,0,0,0,8.44-5.89c3-4,4.11-8.77,4.11-17.75,0-.54,0-2.27-.05-4.05a30.56,30.56,0,0,1-5.36.81,7.66,7.66,0,0,1-5.41-2.65,4.85,4.85,0,0,1-1-1.68c0-.16.16-.27.38-.27s.32.11.59.38a5.39,5.39,0,0,0,4.39,1.73,19.75,19.75,0,0,0,6.05-1.19c-.21-4.92-.43-7.14-.81-8.06a3.89,3.89,0,0,0-3.3-2.16Z"/><path class="cls-1" d="M298.45,133.14a2.55,2.55,0,0,1-.49.05.24.24,0,0,1-.22-.21c0-.49,2.11-1.52,3.14-1.52a6.88,6.88,0,0,1,3.68,1.19c1.19.76,1.57,1.25,1.57,2.11a42.8,42.8,0,0,1-1.73,8.55,17.21,17.21,0,0,1,4.81-.92,5.71,5.71,0,0,1,4.87,2.65c.76,1.3,1.19,3.57,1.19,6.6,0,6.16-1.89,13-4.43,16.17a9,9,0,0,1-6.23,3c-.75,0-1-.27-1.08-1.24-.27-1.84-.81-2.87-2.81-5.3-.65-.71-.81-.92-.81-1.25s.21-.49.38-.49.38.17.86.65c2.06,1.95,3.46,2.82,4.6,2.82,1.89,0,3.46-1.79,4.65-5.3a36.75,36.75,0,0,0,1.73-11.09c0-3.68-1.13-5.68-3.24-5.68a15.85,15.85,0,0,0-5,1.19A128.45,128.45,0,0,1,297,162.78c-1.24,2.49-3.08,5.84-3.89,7a3.29,3.29,0,0,1-2.82,1.68,2.06,2.06,0,0,1-2.16-2.11,2.41,2.41,0,0,1,.87-1.68c4.49-4.43,8.81-12.38,11.79-21.53-1.95.76-4.49,1.79-7.09,2.93a4.93,4.93,0,0,1-1.95.59c-1.73,0-3.35-2.27-3.35-4.71,0-.64.16-1,.49-1,.16,0,.38.22.54.54A2.43,2.43,0,0,0,291.9,146a53.28,53.28,0,0,0,9.36-2,65.28,65.28,0,0,0,.81-7c0-1.73-.38-2.65-1.35-3.25a3.79,3.79,0,0,0-2.06-.59Zm26.45,2.32a2,2,0,0,1-1.84,1.95c-.59,0-.92-.27-1.3-1.13a9.45,9.45,0,0,0-5.35-4.33c-.33-.06-.38-.11-.38-.22,0-.27.81-.43,2-.43C321.38,131.3,324.9,133.41,324.9,135.46Zm-1,20.13a2.8,2.8,0,0,1-.55,0,.43.43,0,0,1-.48-.43c0-.33.11-.38.81-.49a30.2,30.2,0,0,0,4.22-1.08c1.4-.43,1.89-.92,1.89-1.73,0-3.08-2.65-6.66-6.17-8.33a9.54,9.54,0,0,0-3.94-1c-.17,0-.27-.05-.27-.22,0-.32.75-.48,2.21-.48,6.93,0,12.5,5.19,12.5,11.63,0,2.27-1,3.84-2.38,3.84-.43,0-.49,0-1.46-.76a6.88,6.88,0,0,0-4.06-1ZM330.69,133a2,2,0,0,1-1.84,1.95c-.49,0-.81-.33-1.3-1.14a8.87,8.87,0,0,0-5.36-4.27c-.27-.11-.37-.16-.37-.27,0-.27.86-.43,1.94-.43C327.28,128.87,330.69,130.92,330.69,133Z"/><path class="cls-1" d="M363.41,157.86a8.69,8.69,0,0,1,4.22-1.08,3.36,3.36,0,0,1,3.46,2.11c.38.86.54,1.67.81,4.65a8.58,8.58,0,0,0,.81,3.73c.7,1.3,2.27,2,4.54,2a21.39,21.39,0,0,0,7.41-1.73,3,3,0,0,1,1.52-.49c1.46,0,3,1.25,3,2.49,0,1.84-4.33,3.14-10.28,3.14-4.44,0-7.14-1.14-8.38-3.52-.6-1.13-1.09-3.51-1.46-7.08-.22-2.33-.28-2.49-.6-3a2.47,2.47,0,0,0-2-1c-2.43,0-4.71,1.78-8.06,6.43a22.86,22.86,0,0,0-3,5.9c-.54,2-.76,2.27-1.68,2.27-1.19,0-2.7-2.16-2.7-3.84a3,3,0,0,1,1.24-2.49,146.71,146.71,0,0,0,10.12-11.09c1.57-1.84,2.81-3.24,3.3-3.78,1.13-1.3,2.27-2.55,3.41-3.79,2.43-2.87,2.43-2.87,2.43-3.3s-.81-1-1.46-1c-1.14,0-2.76.76-6.55,3-3.62,2.16-4.54,2.6-5.35,2.6-1.46,0-3.57-2.06-3.57-3.46,0-1.19.49-2.44.92-2.44.22,0,.27.11.27.43a2.17,2.17,0,0,0,2,2.11c2.65,0,6.76-1.4,11.52-3.94a4.37,4.37,0,0,1,2.49-.71c1.19,0,2.11.44,4.06,2,1.24,1,1.62,1.41,1.62,1.95s-.32.81-1.41,1.24a28.53,28.53,0,0,0-7.73,5.79c-3.68,3.73-5.19,5.41-5.09,5.84ZM361,129c0-1,.21-1.78.48-1.78s.22.11.22.32c0,2.65,2.65,4.44,6.65,4.44.76,0,2.11-.06,2.76-.11.49-.05.87-.11,1.14-.11a1.68,1.68,0,0,1,1.57,1,6.71,6.71,0,0,1,1,2.38c0,.49-.64,1-1.29,1a7.33,7.33,0,0,1-1.3-.16,16.27,16.27,0,0,0-3-.21,15.06,15.06,0,0,0-6.06,1c-.7.27-.75.27-.86.27a.25.25,0,0,1-.27-.22c0-.27,1.35-1.13,3.78-2.49A5.64,5.64,0,0,1,361,129Z"/><path class="cls-1" d="M426,136.76a49.28,49.28,0,0,1,.76,6.55c0,5.46-2.49,11.9-6.6,17.2-3.13,4.06-6.06,6.06-8.87,6.06a4.82,4.82,0,0,1-3.73-2.06,12.62,12.62,0,0,1-2.81-8.54c0-11.47,9.95-20.88,22.07-20.88,10.71,0,18.17,6.7,18.17,16.33,0,8.6-5.08,15.58-13.63,18.66a33,33,0,0,1-7.41,1.79c-.38,0-.7-.27-.7-.49s.16-.21.92-.43a24.43,24.43,0,0,0,10.22-5.36c3.89-3.35,6.17-8.87,6.17-15.09,0-5-1.57-8.65-4.66-11a14,14,0,0,0-8.38-2.81Zm-2.16.22A19.25,19.25,0,0,0,408,156.13c0,4,1.52,7,3.57,7,2.33,0,6.66-4.38,9.31-9.41,2.11-4.11,3.78-9.68,3.78-12.77a10.7,10.7,0,0,0-.7-3.73Z"/><path class="cls-1" d="M468.55,160c-1.79,3.24-2.49,3.95-4.22,3.95-1.46,0-2.49-.76-2.49-1.84a2.49,2.49,0,0,1,1-1.73c3.2-2.65,9.25-13,11.15-18.93a25.42,25.42,0,0,1-5.41.81c-2,0-3.57-1.09-4.71-3.2a9.07,9.07,0,0,1-.81-2.32.26.26,0,0,1,.27-.27c.11,0,.16.05.22.16a5.75,5.75,0,0,0,5.14,2.7,28,28,0,0,0,6.22-1,26.55,26.55,0,0,0,.92-5.95,2.5,2.5,0,0,0-2.71-2.76c-.48-.06-.59-.06-.59-.27,0-.49,1.84-1.25,3-1.25,2,0,3.89,1.19,3.89,2.49a10,10,0,0,1-.48,2c2.05,1.13,2.37,1.3,2.81,1.51a2.73,2.73,0,0,0,1.24.22,1.74,1.74,0,0,1,1.84,1.52c0,1.73-2.76,3.46-7.95,5.08A171,171,0,0,1,468.55,160Zm32.62,10.28a1.91,1.91,0,0,1-2,1.89,3,3,0,0,1-2.33-1.35,19.09,19.09,0,0,0-6.11-4.93c0,5.63-2.38,8.06-8,8.06-5.13,0-8.54-2.32-8.54-5.89,0-3.84,3.57-6.11,9.46-6.11a20.66,20.66,0,0,1,3.68.27c0-3,0-3-.05-4.6-.05-1.08-.05-1.84-.05-2.27,0-5.47,2.32-8.28,8.27-9.85.76-.22,1.14-.49,1.14-1,0-1.35-2.71-2.54-5.63-2.54a8.13,8.13,0,0,0-2.65.32.64.64,0,0,1-.27.05.41.41,0,0,1-.38-.43c0-.7,3.09-1.62,5.25-1.62,4.92,0,9,2.76,9,6.06,0,1-.48,1.57-1.35,1.57a2.56,2.56,0,0,1-.87-.22,11.73,11.73,0,0,0-3.57-.6c-4.16,0-6.32,2.06-6.32,6a44.18,44.18,0,0,0,.37,4.7,39,39,0,0,1,.44,5.09C497.27,165.05,501.17,167.81,501.17,170.25Zm-19.31-6.44c-3.2,0-5.36,1.62-5.36,3.95,0,1.89,2.49,3.3,5.68,3.3,3,0,4.65-1.35,5-4.17a15.41,15.41,0,0,0,.11-2A13.06,13.06,0,0,0,481.86,163.81Zm-.65-28.62c0-.32-.54-.81-2.44-2.16-.43,1.95-.59,2.54-1.13,4.44Q481.21,136.09,481.21,135.19Z"/><path class="cls-1" d="M519.33,135.46a.35.35,0,0,1-.21.06.24.24,0,0,1-.22-.22c0-.32.92-.65,2-.65,3.08,0,5.9,2.38,5.9,5A19.58,19.58,0,0,1,526,144a34.29,34.29,0,0,0-1,8.6c0,4.11.81,7.2,2.49,9.47.92,1.24,2.16,2.16,3,2.16s.87-.16,2.49-3.78c2.49-5.36,3.46-7.14,3.89-7.14a.45.45,0,0,1,.38.43,1.86,1.86,0,0,1-.21.81,34.68,34.68,0,0,0-2.44,9.68,6,6,0,0,0,1,3.41c.32.54.38.59.38.86,0,.65-1,1.3-2,1.25a11.58,11.58,0,0,1-5.68-2.38c-3.89-3-6.16-9.25-6.16-16.66,0-2.33.21-5.84.48-8.55.06-.81.11-1.46.11-1.95,0-2.43-1.62-4.76-3.24-4.76Zm26.08,9.69c0-.44,1.73-.81,3.62-.81,6,0,12.28,5.73,12.28,11.25,0,2.16-1.3,3.67-3.14,3.67-1,0-1.35-.48-1.35-1.83.06-6.6-4.6-12-10.33-12C545.46,145.42,545.41,145.42,545.41,145.15Z"/><path class="cls-1" d="M147.93,208.82c-.81,13.26-.92,14-1.79,17.31a12.8,12.8,0,0,1-12.82,9.68c-7.3,0-12-5.08-12-13.09a21.73,21.73,0,0,1,4.05-12.33c1.19-1.78,1.9-2.7,5.74-7.52-4.33,2.06-6.17,2.76-7.25,2.76s-1.84-.59-2.49-2.11a7.87,7.87,0,0,1-.81-3c0-.17,0-.22.16-.22s.22,0,.27.22a3.52,3.52,0,0,0,3,2.11,17.3,17.3,0,0,0,6.38-2.11,15.38,15.38,0,0,0,3-2.38c.33-.27.49-.38.76-.38,1.35,0,4.17,2.05,4.17,3,0,.38-.27.65-.92.81a8.37,8.37,0,0,0-4.17,2,24.9,24.9,0,0,0-8.54,18.77c0,6,3.3,9.52,8.87,9.52,5.95,0,9.95-4.49,11.95-13.42.81-3.73,1-5.46,1-11.9-1.52-4.65-2.27-7.68-2.27-8.93a2.85,2.85,0,0,1,2.7-2.59c.7,0,1.14.76,1.14,1.89a9.92,9.92,0,0,1-.06,1.19v.6a24.62,24.62,0,0,0,1.57,8.92c1.73,3.74,4.92,6.93,9.41,9.47,1.46.81,2,1.62,2,2.81,0,1.41-.82,2.38-1.95,2.38-.92,0-2.22-.76-3.63-2.11-2.86-2.7-5-6-7.19-11.14Z"/><path class="cls-1" d="M193.79,217.21c-1.94-2.87-2.38-4.38-2.38-8.06,0-1.52.17-5.3.33-8.44l0-1.68c0-2.92-1.24-4.06-4.33-4.06a1.74,1.74,0,0,0-.65.06h-.1c-.33,0-.49-.11-.49-.27,0-.7,2.65-1.57,4.87-1.57a9.2,9.2,0,0,1,4.49,1.3,2.64,2.64,0,0,1,1.24,2.43,11.63,11.63,0,0,1-.65,3.14,52.29,52.29,0,0,0-1.84,12.06c0,2.11.65,3.63,1.63,3.63.65,0,4.27-2,5.46-3.09.65-.54.92-.65,1.41-.65,1.57,0,3.57,1.36,3.57,2.38,0,.82-.81,1.36-2.76,2a52.8,52.8,0,0,1-6.66,1.35,12.39,12.39,0,0,0-4.59,1.84c-4,2.33-6.06,5.36-6.06,8.93,0,3.84,3.14,5.73,9.41,5.73a36.5,36.5,0,0,0,11.2-2,3.25,3.25,0,0,1,1.3-.38,3.62,3.62,0,0,1,3.08,3,1.49,1.49,0,0,1-1,1.24c-1.9.87-6.87,1.52-11.47,1.52A28.92,28.92,0,0,1,188.49,236c-3.41-1.46-5.35-4.11-5.35-7.19,0-4.17,4-8.66,10-11.36Z"/><path class="cls-1" d="M251.12,217.21c-1.94-2.87-2.38-4.38-2.38-8.06,0-1.52.17-5.3.33-8.44l.05-1.68c0-2.92-1.24-4.06-4.32-4.06a1.69,1.69,0,0,0-.65.06H244c-.33,0-.49-.11-.49-.27,0-.7,2.65-1.57,4.87-1.57a9.2,9.2,0,0,1,4.49,1.3,2.64,2.64,0,0,1,1.24,2.43,11.22,11.22,0,0,1-.65,3.14,52.25,52.25,0,0,0-1.83,12.06c0,2.11.64,3.63,1.62,3.63.65,0,4.27-2,5.46-3.09.65-.54.92-.65,1.41-.65,1.57,0,3.57,1.36,3.57,2.38,0,.82-.81,1.36-2.76,2a53,53,0,0,1-6.65,1.35,12.35,12.35,0,0,0-4.6,1.84c-4,2.33-6.06,5.36-6.06,8.93,0,3.84,3.14,5.73,9.41,5.73a36.5,36.5,0,0,0,11.2-2,3.25,3.25,0,0,1,1.3-.38,3.62,3.62,0,0,1,3.08,3,1.49,1.49,0,0,1-1,1.24c-1.9.87-6.87,1.52-11.47,1.52A28.92,28.92,0,0,1,245.82,236c-3.4-1.46-5.35-4.11-5.35-7.19,0-4.17,4-8.66,10-11.36Z"/><path class="cls-1" d="M319,209c2.55-1.52,3-1.79,3.57-2.38.71-.76.87-.87,1.3-.87,1.73,0,3.68.92,3.68,1.73s-1.08,1.68-4.65,3.36a45.36,45.36,0,0,1-5.9,2.49,81,81,0,0,0,5.36,6.76c1.62,1.84,2.27,3.24,2.27,4.87,0,2.11-1.41,3.89-3.08,3.89-.38,0-.6-.16-1.46-.92a17.7,17.7,0,0,0-11.8-4.27c-4.7,0-7.79,2.32-7.79,5.79,0,3.08,3,4.7,8.6,4.7.76,0,1.52,0,2.49-.05s1.57-.06,2-.06c2.17,0,2.76.38,2.76,1.57,0,1.84-1.4,2.54-5,2.54a25.84,25.84,0,0,1-8.87-1.46c-3.3-1.35-5.09-3.73-5.09-6.81,0-4.65,4.33-7.57,11.25-7.57A26.42,26.42,0,0,1,317,224a3.55,3.55,0,0,0,1.57.49,1,1,0,0,0,1-1c0-1.08-1.52-4.22-4.55-9.3a57.93,57.93,0,0,1-15.2,2.43c-3.84,0-6.27-2-6.27-5,0-.33.16-.6.38-.6s.32.11.65.76c.65,1.51,2.86,2.49,5.57,2.49a38.78,38.78,0,0,0,13.31-2.55c-1-1.89-1.09-2.05-3.3-5.84a31.6,31.6,0,0,1-8.39,1.3c-3.24,0-5.57-1.51-5.57-3.62,0-.38.22-.65.43-.65s.27,0,.38.54c.33,1.13,1.68,1.78,3.63,1.78a21.45,21.45,0,0,0,8-1.62,47.76,47.76,0,0,0-4.16-5.9,5.51,5.51,0,0,0-4.28-2.11,1,1,0,0,0-.43.06,1.63,1.63,0,0,1-.43,0,.24.24,0,0,1-.22-.21,3.51,3.51,0,0,1,1.25-1.46,3.93,3.93,0,0,1,2.7-1,7.72,7.72,0,0,1,4.33,1.46c.48.43.59.65.59,1.89.06,1.62.54,2.87,2.65,6.44a13.12,13.12,0,0,0,3-2.11c.81-.7,1.3-1,1.73-1,1.09,0,2.65,1.13,2.65,1.83,0,.92-2,2.22-6,3.85,1.41,2.37,2.11,3.51,3.3,5.4A21.07,21.07,0,0,0,319,209Z"/><path class="cls-1" d="M372.82,208.39a12.42,12.42,0,0,1,8.06-3.46c3.84,0,6.81,2.27,6.81,5.19a3.21,3.21,0,0,1-1.4,2.87c-1.14.86-1.46,1-6.49,3a91.87,91.87,0,0,0-11.58,5.25c.16,2.38.27,4.11.27,5,0,2.7-.54,3.4-2.7,3.4-.65,0-1-.21-1-.54a1.22,1.22,0,0,1,.06-.43,43.1,43.1,0,0,0,.27-5.84c-4.65,2.76-6.55,4.92-6.55,7.35,0,2.71,2.55,3.79,8.87,3.79a31.12,31.12,0,0,0,8-1,4.24,4.24,0,0,1,1.4-.27c1.14,0,2.6,1.24,2.6,2.21,0,1.79-3.57,2.71-10.93,2.71-4.11,0-6.54-.43-8.82-1.62a6.45,6.45,0,0,1-3.73-5.52,6.83,6.83,0,0,1,2.76-5.08,38.18,38.18,0,0,1,6.38-4.17c-.05-3.84-.21-5.63-.7-6.82a2.82,2.82,0,0,0-2.54-1.89,6.34,6.34,0,0,0-3.84,2,32.45,32.45,0,0,0-4.65,5.79c-.6,1-1.19,1.51-1.79,1.51-.81,0-1.89-1.78-1.89-3.19,0-.7.21-1.08,1.3-1.89,5.84-5.08,9.41-10.33,10.44-15.36a16.75,16.75,0,0,1-4.71.92,3.37,3.37,0,0,1-2.81-1.95,6.8,6.8,0,0,1-.81-2.06.23.23,0,0,1,.21-.21c.06,0,.16.05.27.21a3.42,3.42,0,0,0,3.19,1.41,14.72,14.72,0,0,0,4.93-.86,10.08,10.08,0,0,0,.16-1.52c0-1.78-.87-2.81-2.54-2.92-.22,0-.27,0-.27-.22,0-.48,1.83-1.35,2.86-1.35,1.73,0,3.57,1.62,3.57,3.19a8.16,8.16,0,0,1-.43,2.06,7.89,7.89,0,0,0,3.46-1.84c1.84.92,2.38,1.3,2.38,1.73,0,.65-1.19,1.14-6.33,2.65a62.09,62.09,0,0,1-6.16,11.52,8.64,8.64,0,0,1,3.57-1,5.57,5.57,0,0,1,3.46,1.24c.86.81,1.35,1.73,2,3.84C369.36,212.23,370.66,210.28,372.82,208.39Zm2.33,7c5.19-2.87,6.27-3.51,6.92-4a3,3,0,0,0,1.08-1.9c0-1.35-1.62-2.7-3.3-2.7-2.81,0-6.49,2.54-8.6,6a27.5,27.5,0,0,0-3.19,6.65C370.22,218.13,370.6,217.91,375.15,215.42Z"/><path class="cls-1" d="M413.65,231.16a6.55,6.55,0,0,1-6.71,6.6,6.57,6.57,0,0,1,.11-13.14A6.57,6.57,0,0,1,413.65,231.16Zm-10.92.17a4.34,4.34,0,0,0,4.32,4.16,4.41,4.41,0,0,0,4.33-4.33,4.34,4.34,0,0,0-4.33-4.33A4.41,4.41,0,0,0,402.73,231.33Z"/></g></g></svg>