<svg xmlns="http://www.w3.org/2000/svg" viewBox="0 0 266.02 32.83">
	<title>faq-title</title>


	<path d="M21.48,28.8a1.46,1.46,0,0,1-1.4,1.51c-.54,0-.83-.22-1.66-1.15a10.33,10.33,0,0,0-4.71-3.53,5.47,5.47,0,0,1-1.19,3.31,7,7,0,0,1-5.29,1.91c-4,0-7.23-2-7.23-4.29s2.7-3.7,6.73-3.7a26.74,26.74,0,0,1,4.64.47,7.31,7.31,0,0,0-.11-.94c0-.11-.11-.76-.25-1.69a74.7,74.7,0,0,1-.76-10.77c.11-5.25-.14-5.75-3.09-6-.18,0-.25-.07-.25-.18,0-.4,2-1.26,2.91-1.26a5.19,5.19,0,0,1,2.38,1c.86.61,1.08.86,1.08,1.33a2.58,2.58,0,0,1-.22.94,14.48,14.48,0,0,0-.65,5.43,12.43,12.43,0,0,0,6.37-1.58c1.76,1,2.41,1.58,2.41,2.16s-1.18,1-4.14,1a20.67,20.67,0,0,1-4.64-.43,68.83,68.83,0,0,0,.83,9.18c.18,1.08.22,1.37.33,2.23C19,25.48,21.48,27.1,21.48,28.8ZM6.26,24.12C3.74,24.12,2,25,2,26.28c0,1.54,2.27,2.77,5.14,2.77,2.24,0,3.82-.9,4.18-2.34q.13-.9.18-1.8A20.2,20.2,0,0,0,6.26,24.12Z" transform="translate(0 0)" fill="#333"/>

	<path d="M45.52,2.41c-.1,0-.18,0-.18-.11,0-.36.87-.68,1.87-.68,1.73,0,4.11,1.84,4.11,3.2,0,.43-.15.65-.76,1.08A27.08,27.08,0,0,0,46,10.29a25.66,25.66,0,0,0-3,3.5,5.07,5.07,0,0,0-.61,2.41,3.77,3.77,0,0,0,1.18,2.73c3.21,3.86,4.75,5.83,5.51,7a10.37,10.37,0,0,1,1.87,4.9c0,1.15-.65,1.94-1.58,1.94s-1.23-.47-1.62-2.23c-.4-2.2-2.13-5.65-4.68-9.29C41,18.14,40.63,17.46,40.63,16s.83-3.06,4.17-7.38c2.52-3.2,2.88-3.81,2.88-4.75A1.84,1.84,0,0,0,46.06,2.4h-.54Z" transform="translate(0 0)" fill="#333"/>

	<path d="M88.06,13.79a11.8,11.8,0,0,1-1.37,4.28A22.4,22.4,0,0,1,83.38,23,7,7,0,0,0,84,24.94c0,.11,0,.22.07.33,0,.47-1,1.33-1.62,1.33-.36,0-.47-.22-.9-2.05A27.13,27.13,0,0,1,78.45,27a9.64,9.64,0,0,1-4.6,1.8c-1.48,0-2.59-1.4-2.59-3.17A10.68,10.68,0,0,1,74,19c1.72-2.09,3.27-3.24,7-5.15a34.83,34.83,0,0,1,.25-3.6,13.67,13.67,0,0,1-3.59.58c-2,0-3.89-1.51-3.89-3.06,0-.14.07-.25.18-.25s.07,0,.14.18a3.84,3.84,0,0,0,1.12,1A6,6,0,0,0,78,9.24a11,11,0,0,0,3.31-.54c.07-1.15.25-2.88.36-3.92,0-.43.07-.76.07-1,0-1.4-.79-2.09-2.34-2-.18,0-.25-.07-.25-.22A4,4,0,0,1,81.44.79c1.55,0,3.35,1.12,3.35,2.09,0,.22,0,.22-.29,1.08a26.89,26.89,0,0,0-1.19,4.21c3-1,4.46-1.8,4.82-2.81a7.06,7.06,0,0,0,1.3.11c.82,0,1.18.29,1.18.86s-.75,1.23-3.16,2.17a40.7,40.7,0,0,1-4.21,1.4c-.18,1.19-.25,1.83-.36,3.42a18.43,18.43,0,0,1,5.75-1c5.73,0,9.47,3.31,9.47,8.38,0,5.3-4.32,9.46-11.73,11.3a43.66,43.66,0,0,1-4.68.83.43.43,0,0,1-.47-.39v0c0-.11.11-.19.29-.22a28.63,28.63,0,0,0,4.89-1.37c5.69-2.16,8.75-5.94,8.75-10.76,0-4.14-2.77-6.77-7.13-6.84A3.77,3.77,0,0,1,88.06,13.79Zm-7,1.26c-3.42,2-5,3.42-6.23,5.61a8.93,8.93,0,0,0-1.18,4c0,1.18.43,1.72,1.43,1.72,1.59,0,3.82-1.18,6.3-3.34a68.73,68.73,0,0,1-.38-8Zm1.8-.58c-.08,1-.11,1.58-.11,2.88A29.17,29.17,0,0,0,83,21.42c2.19-2.85,4-6.41,4-8a15.9,15.9,0,0,0-4.19,1.05Z" transform="translate(0 0)" fill="#333"/>

	<path d="M122.74,15.82l.5-.22a13.39,13.39,0,0,1,5.18-1.08c4.25,0,7.27,2.92,7.27,7a7.51,7.51,0,0,1-2.7,5.94,12.52,12.52,0,0,1-7.77,2.7,6.91,6.91,0,0,1-4.22-1.4,2.56,2.56,0,0,1-1-2.16c0-1.66,1.4-2.73,3.53-2.73a5.38,5.38,0,0,1,5.22,3.56v.11l.12.25a6,6,0,0,0,3-2.45,7.79,7.79,0,0,0,1.07-4c0-3.56-2-5.54-5.54-5.54-3.31,0-5.61,1.15-8,4a16.74,16.74,0,0,0-2.7,4.25,1.39,1.39,0,0,1-1.29,1c-.61,0-1.55-1.08-1.55-1.83,0-.4.29-.87,1-1.59,4.75-4.93,5.07-5.32,10.22-12.16,2.08-2.7,2.12-2.74,2.12-3.31a.76.76,0,0,0-.69-.83h-.1c-1.12,0-2,.46-5.69,3.06-.68.5-1,.65-1.36.65a2.74,2.74,0,0,1-1.7-1A2.84,2.84,0,0,1,117,6.1c0-.65.07-.87.29-.87s.1,0,.18.33a1.28,1.28,0,0,0,1.36.9,21.27,21.27,0,0,0,7.45-2.63,1.65,1.65,0,0,1,1.22-.43c1.44,0,4,1.73,4,2.73a.84.84,0,0,1-.58.8c-1.55.68-3.56,2.48-6.51,5.79-1.76,2-2.27,2.63-2.27,2.92s.11.32.22.32m4.19,12.37c-.4-2.2-1.44-3.31-3.1-3.31a1.47,1.47,0,0,0-1.64,1.26,1.09,1.09,0,0,0,0,.18c0,1.18,1.36,2,3.45,2a5.61,5.61,0,0,0,1.08-.08Z" transform="translate(0 0)" fill="#333"/>

	<path d="M155.29,17.78a.21.21,0,0,1,0,.11,9,9,0,0,0-.5,2.95c0,3.82,3.06,5.76,9,5.76a26,26,0,0,0,6.84-1c1-.36,1-.36,1.4-.36,1.08,0,2.38,1.08,2.38,1.94a1.17,1.17,0,0,1-.76.94,23.38,23.38,0,0,1-7.52,1c-4.14,0-7-.5-9-1.51a6.26,6.26,0,0,1-3.45-5.8,8.64,8.64,0,0,1,1.11-4c.11-.15.18-.22.33-.22S155.29,17.67,155.29,17.78Zm6.58-8.35c-2.16-.18-3.49-.65-4.39-1.55A5,5,0,0,1,156.15,5c0-.22.11-.36.29-.36s.14,0,.29.36c.68,1.73,2.55,2.66,5.32,2.66a17.43,17.43,0,0,0,4.43-.58,3.28,3.28,0,0,1,.86-.21,2.72,2.72,0,0,1,2,2.09c0,.68-.36.82-2.2.86a15.29,15.29,0,0,0-8.56,3c-.11.07-.14.11-.21.11a.32.32,0,0,1-.22-.29,14.87,14.87,0,0,1,3.42-2.91ZM174.79,7.7A1.27,1.27,0,0,1,173.55,9h0c-.36,0-.43-.07-.94-.9a6.08,6.08,0,0,0-3.45-2.66c-.14-.07-.22-.11-.22-.18A2.34,2.34,0,0,1,170.25,5C172.49,4.93,174.79,6.33,174.79,7.7ZM178.28,6a1.33,1.33,0,0,1-1.23,1.26c-.39,0-.53-.14-.89-.86a6.28,6.28,0,0,0-3.6-2.77c-.11,0-.15,0-.15-.15s.51-.25,1.26-.25C176,3.24,178.28,4.61,178.28,6Z" transform="translate(0 0)" fill="#333"/>

	<path d="M196.24,7.52A7.47,7.47,0,0,1,193.15,14,5.84,5.84,0,0,1,191,15.26a.3.3,0,0,1-.32-.29c0-.14.11-.28.32-.5,2.16-2,3-4.28,3-8.39a39.84,39.84,0,0,0-.22-4.82l2.88,1.08A35.06,35.06,0,0,0,204.23.22l1.55,2.12a.48.48,0,0,1,.1.29c0,.14-.25.25-.72.25a5,5,0,0,0-1.08.11c-2.19.21-5.43.39-7.8.43v3.2h6.08l2-2.23,2.52,2.27a.85.85,0,0,1,.1.47c0,.21-.1.39-.25.39h-4.39v3.57c0,.75-.54,1.11-1.58,1.11-.47,0-.65-.18-.65-.57V7.52Zm7,22.1c-4.68,1.44-5.11,1.59-6.44,1.88a33.82,33.82,0,0,1-5,.71c-.43,0-.64-.1-.64-.35s.07-.29,1.26-.62A31.92,31.92,0,0,0,202.18,27l2.62,1.73a.69.69,0,0,1,.22.47c0,.36-.29.54-.83.57H204Zm-3.85-2.52c0,.54-.79,1-1.8,1-.36,0-.54-.18-.54-.51V11.45l2.74,1.44h4.49c2.81-2.31,3.39-3.6,3.39-7.56,0-.9-.07-2.27-.18-4.36l3.13,1.19c4.17-.79,5.14-1,7.7-2.16l2.12,2.2a.55.55,0,0,1,.14.32c0,.18-.25.25-1.29.25L218,2.84c-3.31.29-5.54.44-8.24.47v3.2h8.17l2-2.3,2.63,2.3a.43.43,0,0,1,.14.37.55.55,0,0,1-.47.54h-6v3.63c0,.32-.15.47-.69.72l2.2,1.66c.28.21.39.36.39.54s-.18.39-.72.5l-.86.22v12c0,.43-.68.75-1.55.75-.47,0-.72-.18-.72-.47v-.61H199.37ZM214.3,16.77v-3H199.37v3Zm0,4.14V17.64H199.37v3.27Zm0,4.5v-3.6H199.37v3.6Zm-4.6-18c-.07,2-1,3.38-3.71,5.47h8.39l.68-1a2.85,2.85,0,0,1-.65.11c-.36,0-.58-.18-.58-.47V7.42Zm-.25,19.68a24.31,24.31,0,0,1,8.74,1.44c2.23.8,3.06,1.55,3.06,2.7,0,.83-.4,1.3-1.12,1.3s-.68,0-3.81-2.09a26.06,26.06,0,0,0-7.16-2.84Z" transform="translate(0 0)" fill="#333"/>

	<path d="M239.35,2H246L247.16.43l2.16,2a1.14,1.14,0,0,1,.36.68c0,.18-.18.36-.36.47l-.57.22V13c0,.5-.08.65-.4.79a6.52,6.52,0,0,1-1.51.36c-.25,0-.36-.14-.36-.43V12h-7.74V30.9a.78.78,0,0,1-.61.86,4.55,4.55,0,0,1-1.4.43c-.22,0-.33-.18-.33-.46V.36Zm7.13,4.46V2.88h-7.74v3.6Zm0,4.61V7.34h-7.74v3.75Zm.47,6.08h7.73l1.19-1.44,2,1.87c.29.25.4.43.4.61a.61.61,0,0,1-.43.54l-.58.11V26.2a.67.67,0,0,1-.5.69,6,6,0,0,1-1.4.29c-.29,0-.44-.15-.44-.47V24.44h-8.31V27.5a.59.59,0,0,1-.39.58,4.77,4.77,0,0,1-1.48.39c-.29,0-.43-.18-.43-.5V15.8Zm8,6.41V18h-8.31v5.55ZM255.47,2h6.7L263.46.47l2.27,2.23a.9.9,0,0,1,.29.61.71.71,0,0,1-.36.58l-.69.32V29.44a1.87,1.87,0,0,1-.79,1.8,3.65,3.65,0,0,1-1.8.94c-.36,0-.54-.29-.61-.86s-.18-.69-.72-.83l-3.56-1.08V28.8h1c.93,0,1.58.07,1.9.07,2.05,0,2.16,0,2.16-.79V12h-7.63v1.26c0,.47-.14.61-.79.79a3,3,0,0,1-.93.18c-.29,0-.47-.21-.47-.57V.5Zm7.09,4.46V2.88h-7.63v3.6Zm0,4.61V7.34h-7.63v3.75Z" transform="translate(0 0)" fill="#333"/>

</svg>