<svg xmlns="http://www.w3.org/2000/svg" viewBox="0 0 309.48 50.22"><defs><style>.cls-1{fill:#fff;}</style></defs><g id="レイヤー_2" data-name="レイヤー 2"><g id="レイヤー_1-2" data-name="レイヤー 1"><path class="cls-1" d="M1,28.41c.81,3.56,1.67,5.34,3.34,7,2.6,2.65,7.08,4,13.18,4a54,54,0,0,0,10.91-.92,8.74,8.74,0,0,1,1.67-.27c1.73,0,3.57,1.3,3.57,2.49,0,.81-.76,1-3.35,1.13-3.73.11-8,.22-9.56.22-8.69,0-12.64-.87-16-3.46C1.67,36.18.22,33.16,0,28.51ZM6.8,19.22a47.82,47.82,0,0,1,9.51-6.42C9.07,12,5.67,10.53,3.08,7.18l.59-.65c3.62,3,7.08,4,14,4A49,49,0,0,0,25,10.1a3,3,0,0,1,.7-.06,3.08,3.08,0,0,1,2.92,2.65.92.92,0,0,1-1,.81,5.11,5.11,0,0,1-.81-.05,11.8,11.8,0,0,0-1.35-.11A24.91,24.91,0,0,0,15.34,15.5,44.06,44.06,0,0,0,7.4,20ZM27.16,4.64C32.4,6.48,34.4,8,34.4,10a1.24,1.24,0,0,1-1.3,1.24c-.65,0-1.08-.32-1.73-1.35a13.77,13.77,0,0,0-4.59-4.59Zm4.59-3.45c5.94,1.62,7.94,3,7.94,5.24a1,1,0,0,1-1,1c-.64,0-1.13-.32-2.1-1.51-1.3-1.62-2.32-2.38-5.13-4Z"/><path class="cls-1" d="M68.09,29.86a60.9,60.9,0,0,1-14,13.23c-3.19,2.22-7.78,4.75-8.53,4.75a.47.47,0,0,1-.44-.48c0-.27.22-.43,1.14-1A59.55,59.55,0,0,0,65.77,27.92H57.08c-.76,0-2.22,0-4.38.16-.7,0-2.48.05-4.64.16l-1.62-2.1c5.35.27,7.18.32,10.64.32h11v-15H57.46c-2,0-3.68.05-7.73.21L48.06,9.72c4.86.22,6.86.27,9.4.27H68.09V1l4.32.54c.76.11,1.19.38,1.19.81a.79.79,0,0,1-.48.65L71,4.16V10H85.37l3-3,3,2.86c.49.48.7.75.7,1.08s-.27.54-.7.54H71v15h16.2l3.13-3.19L93.74,26c.54.48.81.86.81,1.19s-.43.7-1,.7H72.2c4.16,6.21,12.69,11.93,22.25,15-2.38.65-3.3,1.3-4.38,3C81.32,41.37,74.68,35.16,71,28.13V47.36c0,.76-.11.92-.65,1.19a4.63,4.63,0,0,1-1.73.7c-.27,0-.54-.38-.54-.76ZM53.78,13c5,3.35,7.56,6.7,7.56,9.89,0,1.4-.7,2.27-1.89,2.27-.81,0-1.13-.44-1.45-1.9a16.79,16.79,0,0,0-4.65-9.77Zm22.68,12.1a73.29,73.29,0,0,0,5-11.66l3.73,1.94c.54.27.75.54.75.86s-.16.44-.7.6l-2,.65c-1.78,2.59-3.56,5-6,8.1Z"/><path class="cls-1" d="M107.24,17.66h-1.18c-1.41,0-1.68,0-5.57.16L98.82,16c4.1.17,5.67.22,7.24.22h1.18V2.27l3.41.54c1.08.21,1.51.43,1.51.92a.89.89,0,0,1-.65.75l-1.57.81V16.2h3.35l2.54-2.7,2.92,2.32a1.5,1.5,0,0,1,.59,1.08c0,.49-.32.76-1,.76h-8.37V31.54c4.27-1.46,5.89-2.06,8.43-3.08l.32.81-15.17,7.56-.49,1c-.32.59-.54.81-.92.81a1.31,1.31,0,0,1-1-.59l-2.32-3.35c4.7-1.13,5.45-1.35,8.42-2.27Zm13.61,8.26c-1.35,0-1.4,0-5.88.16l-1.35-1.83,4.15.16c1.41.05,2.7.05,3.08.05H142l3.24-3,3.45,2.86a1.13,1.13,0,0,1,.43.87c0,.49-.27.7-1.08.7H126.25a47.68,47.68,0,0,1-2.59,4.54h17.87L142.78,29l3,2.32a1,1,0,0,1,.43.76c0,.38-.22.59-.76.64l-.92.17c-1.08,6.48-1.83,9.77-2.59,11.88a5.47,5.47,0,0,1-3.35,3.56,5.62,5.62,0,0,1-2.37.65,1.39,1.39,0,0,1-1.46-1.35c-.16-1-.16-1-.92-1.46l-2.7-1.62.33-.59c4.48,1.08,4.91,1.18,5.77,1.18,1.52,0,2.22-1.07,3.14-4.75a74.35,74.35,0,0,0,1.45-8.53h-4.32a31,31,0,0,1-10.63,14c-2.7,1.94-6.86,4.32-7.73,4.32a.46.46,0,0,1-.37-.38c0-.32.27-.54,2.7-2.05,6.42-4.16,10.74-9.4,13.06-15.93h-5a30.07,30.07,0,0,1-10.1,12.26c-3,2.21-7.34,4.64-8.31,4.64a.46.46,0,0,1-.38-.43c0-.21.27-.54.86-.92,7.62-4.48,12.37-9.45,14.85-15.55h-3.72A36.18,36.18,0,0,1,110.48,43a23,23,0,0,1-5.23,2.48.38.38,0,0,1-.38-.43c0-.22.16-.38.59-.6,8.64-5,13.93-10.64,17.34-18.52ZM124,21.06c0,.54-1.35,1.3-2.27,1.3a.39.39,0,0,1-.38-.44V1.84l3.19,1.62h13l1.14-1.41,3,1.84c.37.27.54.48.54.75a.62.62,0,0,1-.44.54l-1.13.38V20.74c0,.59-1.13,1.29-2.16,1.29-.32,0-.54-.16-.54-.48V20.2H124ZM138,11.29V4.91H124v6.38Zm0,7.45V12.58H124v6.16Z"/><path class="cls-1" d="M171.67,34.62c-2.27,3.5-4,5.29-5.13,5.29-.38,0-.7-.33-1.35-1.19a1.74,1.74,0,0,0-1-.87c-2.37-1-4.1-5.07-4.1-9.5,0-10.8,9.77-19.49,21.87-19.49,10.64,0,18.74,6.8,18.74,15.76,0,5.84-4,11.34-10.43,14.48-2.75,1.35-8.53,3.13-10.09,3.13a.51.51,0,0,1-.54-.54c0-.38.27-.6,1.24-.86a41.46,41.46,0,0,0,8.85-3.73c5-3.13,7.67-7.56,7.67-13a12.6,12.6,0,0,0-6.8-11.34A21.08,21.08,0,0,0,181,10.42a18.1,18.1,0,0,0-2.7.22c1.83,1,3.45,2.54,3.45,3.29,0,.43-.21.7-1.13,1.46C177.18,24.52,174.75,29.75,171.67,34.62Zm5-23.71a17.87,17.87,0,0,0-7.19,3.4A16.26,16.26,0,0,0,162.65,28c0,3.24.65,5.51,2,7.29a2.82,2.82,0,0,0,1.89,1.3c1.57,0,4-3.73,6.75-10.15s4.38-11.56,4.38-13.4a2.25,2.25,0,0,0-.76-1.78Z"/><path class="cls-1" d="M251.32,10.85l3.35-3.24,3.45,3.08a1.11,1.11,0,0,1,.43.81.74.74,0,0,1-.7.81h-37.8c-.54,0-2.21.06-4,.11l-5.35.16-1.3-2c5.24.22,7.24.27,10.64.27h18.47A111.45,111.45,0,0,0,242.84,0l4,2.11a.94.94,0,0,1,.64.86.55.55,0,0,1-.54.59l-2.16.27c-2.16,3.19-3.34,4.81-5.07,7Zm-34,6.7h10.85l1.24-1.46,2.92,2.05c.22.17.32.28.32.44s0,.21-.32.43l-.92.75V44.28c0,2.16-.16,2.76-1,3.24a4.41,4.41,0,0,1-2.32.86c-.65,0-.81-.1-1.19-1.13-.16-.43-.27-.65-.54-.7l-3.08-1.13.16-.81,2.76.27a10.35,10.35,0,0,0,1.51.16c.81,0,1-.22,1-1.35V35.16H217.14V47.52c0,.7-1.41,1.89-2.22,1.89a.52.52,0,0,1-.54-.59V15.5Zm11.39,8.1V19H217.14v6.64ZM217.14,33.7h11.55V27.11H217.14ZM220.65,1a18.59,18.59,0,0,1,4.86,2.49c2.1,1.56,3.29,3.18,3.29,4.59,0,.91-.7,1.83-1.46,1.83s-1.13-.43-1.83-2.21-2.76-4.21-5.19-5.89ZM242.41,40.5c0,.81-1,1.62-2,1.62a.75.75,0,0,1-.76-.81V16.79l3.78.65a.66.66,0,0,1,.43.6c0,.16-.11.43-.27.48l-1.13.65Zm3,4.27,4,.21.22.06c.86.1,1.35-.27,1.35-1.19V15l3.51.76c.54.16.81.32.81.59s-.22.38-.6.6l-.91.37V44.82a3.07,3.07,0,0,1-1.19,2.7,5.46,5.46,0,0,1-2.65,1c-.48,0-.75-.22-1-.87-.38-1-.38-1-.92-1.24l-2.75-1Z"/><path class="cls-1" d="M280.05,21.55c-1.73,3.83-1.89,4.16-2.7,6.32-1.41,3.67-2.65,8.2-2.65,9.82,0,.43.11,1,.22,1.89a21.58,21.58,0,0,1,.48,3.3c0,.91-.54,1.73-1.19,1.73-.43,0-.81-.38-1.29-1.14-1.78-3-2.7-7.94-2.7-14.26,0-4.64.43-7.88,1.89-14.58a21.78,21.78,0,0,0,.81-5.07c0-2-.6-3-2.43-4.21a.56.56,0,0,1,.65-.49c2.16,0,4.91,2.7,4.91,4.81,0,.7-.11,1.13-1.13,4.05A47.3,47.3,0,0,0,272,28.62a27.46,27.46,0,0,0,.76,6.43,64.16,64.16,0,0,1,6.48-13.88Zm6.31,3.51a14.14,14.14,0,0,0-1.18,5.45c0,5.08,3.4,7,12.69,7,4.21,0,6.53-.22,8.53-.81a3.34,3.34,0,0,1,.86-.17,2.71,2.71,0,0,1,2.22,2.38c0,.43-.33.76-1,1a48.31,48.31,0,0,1-7.61.54c-6.81,0-10.7-.54-12.86-1.83a8.44,8.44,0,0,1-4.26-7.51,10.57,10.57,0,0,1,2-6.32Zm1.35-3.46a34.23,34.23,0,0,1,8.81-8.21h-3.14c-4.75,0-6.26-.38-9.18-2.43l.27-.7a18.83,18.83,0,0,0,6.65,1.08A70.67,70.67,0,0,0,302.35,10a3,3,0,0,1,.92-.22c.86,0,2.64,1.73,2.64,2.54s-.27.81-2.16.87c-5,.48-10.74,3.83-15.39,9Z"/></g></g></svg>