<svg id="Layer_1" data-name="Layer 1" xmlns="http://www.w3.org/2000/svg" viewBox="0 0 572 70"><title>faq-subtext</title><path d="M572,65v5H0V0H448L431.29,4.13C429,10.78,426.56,17.32,424.44,24c-.29.91.47,2.5,1.24,3.26.4.39,2.41,0,2.84-.67a31.16,31.16,0,0,0,4-7.37c1.33-4,4.45-3.93,7.24-3.16,1.31.36,2.22,2.87,2.94,4.56a29.16,29.16,0,0,1,1.13,5.14,30.71,30.71,0,0,1-5.4.49c-3.88-.32-5.4,1.05-5.16,5.1.31,5.48,0,11,.09,16.49.07,4.37-1.72,9.68,6,10.49l-.59,1.2L425,63.77l-.32,1.38c1.36.75,3,2.43,4,2.09,7-2.43,14.29-4.63,20.76-8.19a14.79,14.79,0,0,1,12.33-1.18c6.68,2.24,13,5.6,19.39,8.68,3,1.44,4.89.72,6.9-2.24l-12.33-4.89c1.85-2.41,4.51-4.28,4.65-6.33.51-7.8.24-15.65.18-23.48a5.63,5.63,0,0,0-.75-2.79c-4.27-7-2.47-10.48,5.6-11.16,1.24-.1,2.41-1.12,3.61-1.72-1.19-.84-2.34-2.36-3.56-2.42-5.65-.26-11.33,0-17-.22-1.48-.06-2.92-1.27-4.38-2,1.3-.74,2.52-1.89,3.91-2.16,5.47-1,11-1.78,16.87-2.69L483,0h89V4c-7.64.09-15.29.28-22.93.21-3.23,0-4.45,1.11-4.33,4.38.19,5.48.21,11,0,16.47-.13,3.38.91,4.89,4.48,4.73,4.49-.21,9,0,13.48-.06,3-.07,4.16,1.21,4.12,4.17-.09,8-.11,16,0,24,.06,3.69-1.62,5.06-5.15,5-2.37-.07-4.76.23-7.14.36l-.69,1.67c1.46,1,3,3.1,4.34,3C562.84,67.28,567.4,66,572,65ZM194.56,3.43c-3.91-1.76-5.81-1.18-5.83,3.37,0,6.56-.2,6.59-6.82,6.56-2,0-4-.48-6-.18-1.29.2-2.42,1.39-3.63,2.14,1.12.89,2.15,2.39,3.38,2.56,2.77.4,5.65,0,8.47.21,1.21.08,2.82.42,3.48,1.25,2.19,2.73,0,10-2.79,12.24-4.45,3.57-9.22,7.12-12.52,11.65-3.75,5.13-2.9,12.58.28,15.88s8.44,3.24,15.34-.17a8.51,8.51,0,0,1,4.84-.42c3.12.54,4.79,0,4.52-3.68a6.94,6.94,0,0,1,1.21-4c3.5-5.23,7-10.47,10.9-15.4a6.09,6.09,0,0,1,5.09-1.91,12,12,0,0,1,9.34,10.53c.76,5.33-1.35,9.75-6.08,12.11-4.4,2.19-9.32,3.35-13.92,5.17-1.29.51-2.29,1.74-3.43,2.64,1.35.69,3,2.24,4,1.92,6.42-2,13.48-3.34,18.87-7,10.51-7.18,8.33-23.12-3.1-28.91-2.86-1.44-5.34-3.62-8.21-5a7.63,7.63,0,0,0-4.55-.13c-4,.8-7.84,1.95-11.8,2.72-.6.12-1.78-.89-2.12-1.64-2.1-4.56.13-8.22,5.13-8.61,6.8-.53,13.62-.87,20.38-1.7,1.41-.18,2.59-2.17,3.88-3.33-1.5-.62-3-1.83-4.47-1.74-5.47.35-10.9,1.49-16.37,1.66C193.14,12.43,193.15,14.15,194.56,3.43ZM298.73,58.28c-.88-1.54-1.64-2.79-2.34-4.07-3.23-5.88-8.23-8.46-14.88-7.93-5.19.42-9.28,3.81-9.86,8.36-.65,5.18,2.34,8,6.69,9.88,8.59,3.73,23.14.85,29.86-5.95,9.67-9.8,5.36-26.61-8-29.68-4.51-1-9.53.08-14.32.3a31.3,31.3,0,0,0-3.92.62,7.58,7.58,0,0,1,2.34-4.28c5.14-4.73,10.39-9.36,15.46-14.16.92-.87,2-2.83,1.65-3.5-.69-1.23-2.45-2.68-3.72-2.64-10.14.33-20.27.92-30.39,1.65-1,.07-1.89,1.6-2.84,2.45,1.05.91,2.1,2.58,3.15,2.59,5.32,0,10.64-.45,16-.63,2-.06,4.1.21,6.16.33l1.87,2.57c-1.46.51-3.3.61-4.32,1.59Q273,29.39,259,43.29A5.6,5.6,0,0,0,257.5,47c0,.71,1.93,2.1,2.51,1.89a10.12,10.12,0,0,0,3.82-2.8,37.88,37.88,0,0,1,29.72-12.87c7.22.08,12.05,3.67,13.43,9.6C308.45,49.1,305.78,54.37,298.73,58.28ZM32.24,50.39a10.7,10.7,0,0,1,2.51.54c5.37,3,10.63,6.16,16.11,8.92,1.08.54,3-.5,4.46-.81-.3-1.38-.12-3.41-1-4-3.2-2.36-6.5-5.22-10.2-6.15C34,46.3,29.73,40.25,30.91,30a3.46,3.46,0,0,0-.16-1c-.77-3.84.94-5.55,4.72-5.8,5.15-.34,10.3-.68,15.39-1.46,1.39-.21,2.54-2,3.8-3.07-1.52-.78-3-2.19-4.55-2.21-3,0-5.93.8-8.9,1.16C30.53,19,30.12,18.67,30.71,8c.15-2.62.24-5.14-3.07-4.59-1.16.19-2.74,2.92-2.72,4.47q.2,15,1.12,29.91c.22,3.59-1,4.43-4.43,4.61-4.73.25-9.78.57-14,2.38C-.19,48.08-.94,57.87,5.85,62.56,11.72,66.61,18.29,66.9,25,65c3.75-1.08,5.66-3.86,6.2-7.66C31.5,55.09,31.86,52.87,32.24,50.39ZM512.25,36c0,9-.12,18,.12,27,0,1.65,1.58,3.26,2.43,4.89.8-1.71,2.26-3.4,2.3-5.12.23-9,.37-18,0-27-.2-5,1.65-6.52,6.34-6.1,3.47.31,7,0,10.49.08,2.7.09,3.93-.83,3.85-3.73q-.22-9,0-18c.08-2.85-1-3.86-3.79-3.81-5.83.11-11.67.16-17.49,0-3.22-.09-4.39,1-4.32,4.32C512.38,17.69,512.25,26.85,512.25,36ZM128.19,5.69c-2.87-4-5.25-4.06-8.57-.7-7,7.08-14.38,13.8-21.67,20.6-6.2,5.77-6.13,9.48.16,15.2,8.59,7.82,17.13,15.71,25.53,23.73,2.1,2,3.71,3.2,6.18.72s.2-4-1.23-5.32q-12.51-11.43-25.23-22.61c-4.36-3.83-4.52-5.18-.25-9C111.36,20.83,119.62,13.41,128.19,5.69ZM541.52,36.27a97.24,97.24,0,0,0-10,.12c-1.25.12-3.37,1.49-3.4,2.36-.3,6.8-.22,13.62-.12,20.43a3.21,3.21,0,0,0,1.46,2.25,2.29,2.29,0,0,0,2.09-.69c1.15-3.94,4.34-2.9,7-3,3.66-.1,7.33-.22,11,0,3.87.26,5.66-1.08,5.09-5.1a25.38,25.38,0,0,1,0-3.49C554.63,36.26,554.63,36.26,541.52,36.27ZM358.36,33.08c-2.94.32-5.39-.15-6.21.8-4.51,5.21-7.58,11.2-5.07,18.29,2.41,6.81,8.08,9.57,14.88,9.71,9.12.19,18.27.08,27.38-.32,1.78-.08,4.9-2.05,4.93-3.23.12-3.82-3.19-2.17-5.24-2.17-9.28,0-18.61.71-27.83,0-8.43-.66-11.54-7.29-7.83-14.81C354.53,39,356.06,36.85,358.36,33.08Zm4.51-8.93.39,1.5c1.85,0,4,.61,5.48-.11,6.7-3.16,13.26-6.62,19.75-10.21a4.82,4.82,0,0,0,1.82-3.51c0-.56-1.89-1.81-2.87-1.77q-17.64.82-35.25,2c-1,.06-1.84,1.39-2.75,2.13.9,1,1.72,2.66,2.73,2.79,2.43.32,4.95-.14,7.43-.18,3.29-.05,6.57,0,9.86,0,.1.51.19,1,.29,1.55Zm32.92-8.71c-1.27.9-2.11,1.18-2.22,1.64a2.76,2.76,0,0,0,.34,2.2q3.38,3.66,7,7a2.55,2.55,0,0,0,2.2.49c.56-.24,1.27-1.65,1.09-1.86C401.51,21.75,398.68,18.66,395.79,15.44Zm-7.44,6.87-1.72.6c-.06,1.11-.61,2.65-.09,3.27a57.36,57.36,0,0,0,7,7c.46.39,2.08-.61,3.17-1Z" fill="#fff"/><path d="M483,0l1.9,4.5C479,5.41,473.5,6.16,468,7.19c-1.39.27-2.61,1.42-3.91,2.16,1.46.68,2.9,1.89,4.38,2,5.66.24,11.34,0,17,.22,1.22.06,2.37,1.58,3.56,2.42-1.2.6-2.37,1.62-3.61,1.72-8.07.68-9.87,4.2-5.6,11.16a5.63,5.63,0,0,1,.75,2.79c.06,7.83.33,15.68-.18,23.48-.14,2-2.8,3.92-4.65,6.33l12.33,4.89c-2,3-3.94,3.68-6.9,2.24-6.38-3.08-12.71-6.44-19.39-8.68a14.79,14.79,0,0,0-12.33,1.18c-6.47,3.56-13.72,5.76-20.76,8.19-1,.34-2.65-1.34-4-2.09l.32-1.38,13.77-4.29.59-1.2c-7.71-.81-5.92-6.12-6-10.49-.08-5.49.22-11-.09-16.49-.24-4.05,1.28-5.42,5.16-5.1a30.71,30.71,0,0,0,5.4-.49,29.16,29.16,0,0,0-1.13-5.14c-.72-1.69-1.63-4.2-2.94-4.56-2.79-.77-5.91-.86-7.24,3.16a31.16,31.16,0,0,1-4,7.37c-.43.63-2.44,1.06-2.84.67-.77-.76-1.53-2.35-1.24-3.26,2.12-6.63,4.51-13.17,6.85-19.82L448,0h4l1.51,4.12c-2.91.62-5.45,1.24-8,1.69s-5.32.55-7.87,1.22c-1.19.31-2.11,1.6-3.16,2.44,1.2.64,2.38,1.77,3.6,1.82,4.65.22,9.33-.11,14,.21,1.48.09,2.87,1.54,4.3,2.38-8.28,2.9-8.28,2.9-8.9,11.94l4.76.26c1.39-3.16,2.4-5.17,3.16-7.28,1.23-3.38,2.4-6.8,3.38-10.27a35,35,0,0,0,.66-5.32,13.76,13.76,0,0,0,3.09.27C468,2.37,473.49,1.17,479,0ZM456.44,44.23c5.15,0,10.3.13,15.43-.1,1.17-.05,2.29-1.32,3.43-2-1.12-.94-2.23-2.67-3.37-2.69q-15.18-.31-30.36,0c-1.15,0-2.27,1.71-3.4,2.62,1.11.73,2.2,2,3.34,2.09C446.48,44.35,451.47,44.22,456.44,44.23Zm.21-8.88c4.66,0,9.34.22,14-.13,1.55-.12,3-1.73,4.47-2.66-1.4-.84-2.78-2.38-4.2-2.41q-14.22-.31-28.47,0c-1.4,0-2.78,1.55-4.17,2.38,1.47.94,2.89,2.56,4.42,2.68C447.31,35.57,452,35.34,456.65,35.35Zm0,12.69c-4.66,0-9.34-.22-14,.13-1.52.11-2.94,1.7-4.4,2.62,1.38.85,2.75,2.42,4.15,2.45q14.24.34,28.47,0c1.41,0,2.79-1.6,4.18-2.45-1.47-.92-2.9-2.52-4.44-2.63C466,47.81,461.31,48,456.65,48Zm.28-21.81c4.34,0,8.7.25,13-.16,1.28-.12,3.44-2.12,3.38-3.16-.15-2.66,1.71-6.36-3.48-7.25C461.8,14.28,460.54,21.11,456.93,26.23Z"/><path d="M572,65c-4.6,1-9.16,2.28-13.82,2.8-1.31.15-2.88-1.91-4.34-3l.69-1.67c2.38-.13,4.77-.43,7.14-.36,3.53.1,5.21-1.27,5.15-5-.12-8-.1-16,0-24,0-3-1.13-4.24-4.12-4.17-4.49.1-9-.15-13.48.06-3.57.16-4.61-1.35-4.48-4.73.22-5.48.2-11,0-16.47-.12-3.27,1.1-4.41,4.33-4.38,7.64.07,15.29-.12,22.93-.21ZM558.19,25.36c1.65,0,3.45.42,4.9-.12s2.42-2,3.61-3.09c-1.1-1.15-2.08-3.13-3.31-3.3a39.77,39.77,0,0,0-10.34,0c-1.2.16-2.17,2.13-3.25,3.28,1.15,1.08,2.13,2.6,3.49,3.11S556.54,25.35,558.19,25.36Zm.11-10.64c1.64,0,3.4.35,4.9-.1,1.3-.4,2.32-1.71,3.47-2.62-1.13-1.12-2.15-3-3.4-3.2a43,43,0,0,0-10.33,0c-1.14.13-2.09,1.89-3.13,2.91,1,1,1.88,2.52,3.09,2.89C554.56,15.09,556.48,14.71,558.3,14.72Z"/><path d="M479,0c-5.51,1.17-11,2.37-16.53,3.48a13.76,13.76,0,0,1-3.09-.27,35,35,0,0,1-.66,5.32c-1,3.47-2.15,6.89-3.38,10.27-.76,2.11-1.77,4.12-3.16,7.28l-4.76-.26c.62-9,.62-9,8.9-11.94-1.43-.84-2.82-2.29-4.3-2.38-4.64-.32-9.32,0-14-.21-1.22,0-2.4-1.18-3.6-1.82,1.05-.84,2-2.13,3.16-2.44,2.55-.67,5.26-.76,7.87-1.22s5.12-1.07,8-1.69L452,0Z" fill="#fff"/><path d="M194.56,3.43c-1.41,10.72-1.42,9,7.52,8.73,5.47-.17,10.9-1.31,16.37-1.66,1.44-.09,3,1.12,4.47,1.74-1.29,1.16-2.47,3.15-3.88,3.33-6.76.83-13.58,1.17-20.38,1.7-5,.39-7.23,4.05-5.13,8.61.34.75,1.52,1.76,2.12,1.64,4-.77,7.84-1.92,11.8-2.72a7.63,7.63,0,0,1,4.55.13c2.87,1.41,5.35,3.59,8.21,5,11.43,5.79,13.61,21.73,3.1,28.91-5.39,3.69-12.45,5-18.87,7-1,.32-2.66-1.23-4-1.92,1.14-.9,2.14-2.13,3.43-2.64,4.6-1.82,9.52-3,13.92-5.17,4.73-2.36,6.84-6.78,6.08-12.11a12,12,0,0,0-9.34-10.53,6.09,6.09,0,0,0-5.09,1.91c-3.89,4.93-7.4,10.17-10.9,15.4a6.94,6.94,0,0,0-1.21,4c.27,3.66-1.4,4.22-4.52,3.68a8.51,8.51,0,0,0-4.84.42c-6.9,3.41-12,3.59-15.34.17s-4-10.75-.28-15.88c3.3-4.53,8.07-8.08,12.52-11.65,2.75-2.21,5-9.51,2.79-12.24-.66-.83-2.27-1.17-3.48-1.25-2.82-.18-5.7.19-8.47-.21-1.23-.17-2.26-1.67-3.38-2.56,1.21-.75,2.34-1.94,3.63-2.14,1.93-.3,4,.18,6,.18,6.62,0,6.79,0,6.82-6.56C188.75,2.25,190.65,1.67,194.56,3.43Zm-6.47,31.75c-6.13,3.27-10.86,6.53-12.36,12.55-.56,2.22-.12,6.1,1.3,7,1.83,1.19,5.42.9,7.65-.1s4.95-3.51,5.11-5.55C190.13,45,188.88,40.71,188.09,35.18Zm16.61-1.7-1.35-2.21c-3,.77-7.85.77-8.56,2.49-1.37,3.32-.4,7.61-.4,11.49l1.94.66Z"/><path d="M298.73,58.28c7-3.91,9.72-9.18,8.25-15.43-1.38-5.93-6.21-9.52-13.43-9.6a37.88,37.88,0,0,0-29.72,12.87,10.12,10.12,0,0,1-3.82,2.8c-.58.21-2.48-1.18-2.51-1.89A5.6,5.6,0,0,1,259,43.29q14-13.89,28.29-27.51c1-1,2.86-1.08,4.32-1.59l-1.87-2.57c-2.06-.12-4.12-.39-6.16-.33-5.32.18-10.64.65-16,.63-1.05,0-2.1-1.68-3.15-2.59,1-.85,1.84-2.38,2.84-2.45,10.12-.73,20.25-1.32,30.39-1.65,1.27,0,3,1.41,3.72,2.64.38.67-.73,2.63-1.65,3.5-5.07,4.8-10.32,9.43-15.46,14.16A7.58,7.58,0,0,0,282,29.81a31.3,31.3,0,0,1,3.92-.62c4.79-.22,9.81-1.34,14.32-.3,13.36,3.07,17.67,19.88,8,29.68-6.72,6.8-21.27,9.68-29.86,5.95-4.35-1.89-7.34-4.7-6.69-9.88.58-4.55,4.67-7.94,9.86-8.36,6.65-.53,11.65,2,14.88,7.93C297.09,55.49,297.85,56.74,298.73,58.28Zm-12.2,3.19c2.11-1.13,6.52.62,5.32-4.32-.92-3.78-6-7.29-9.57-6.27-2.19.61-3.9,2.9-5.82,4.43C278,57,279.37,59,281.23,60.22,282.63,61.15,284.7,61.08,286.53,61.47Z"/><path d="M32.24,50.39c-.38,2.48-.74,4.7-1.06,6.94-.54,3.8-2.45,6.58-6.2,7.66-6.69,1.91-13.26,1.62-19.13-2.43-6.79-4.69-6-14.48,1.72-17.79,4.26-1.81,9.31-2.13,14-2.38,3.45-.18,4.65-1,4.43-4.61q-.9-14.94-1.12-29.91c0-1.55,1.56-4.28,2.72-4.47,3.31-.55,3.22,2,3.07,4.59-.59,10.68-.18,11,10.5,9.69,3-.36,5.94-1.18,8.9-1.16,1.52,0,3,1.43,4.55,2.21-1.26,1.06-2.41,2.86-3.8,3.07-5.09.78-10.24,1.12-15.39,1.46-3.78.25-5.49,2-4.72,5.8a3.46,3.46,0,0,1,.16,1C29.73,40.25,34,46.3,44.14,48.85c3.7.93,7,3.79,10.2,6.15.86.63.68,2.66,1,4-1.51.31-3.38,1.35-4.46.81-5.48-2.76-10.74-5.94-16.11-8.92A10.7,10.7,0,0,0,32.24,50.39Zm-5.54.84c-.19-.32-1.11-3.18-2-3.19-5,0-10.34-.31-14.86,1.38-5.14,1.93-5,7.37.09,9.7a22.24,22.24,0,0,0,10.47,1.62C24.74,60.44,27,57.37,26.7,51.23Z"/><path d="M512.25,36c0-9.16.13-18.32-.06-27.48-.07-3.32,1.1-4.41,4.32-4.32,5.82.18,11.66.13,17.49,0,2.75-.05,3.87,1,3.79,3.81q-.22,9,0,18c.08,2.9-1.15,3.82-3.85,3.73-3.5-.11-7,.23-10.49-.08-4.69-.42-6.54,1.13-6.34,6.1.36,9,.22,18,0,27,0,1.72-1.5,3.41-2.3,5.12-.85-1.63-2.39-3.24-2.43-4.89C512.13,54,512.25,45,512.25,36Zm12-9.47.69-1.19c1.5,0,3.2.45,4.43-.12,1.5-.69,2.6-2.25,3.87-3.44-1.25-1-2.36-2.42-3.79-3a8.71,8.71,0,0,0-4.43-.1c-2.86.49-7.69-1.93-7.39,3.51C517.73,23.77,521.94,25.1,524.27,26.54Zm.61-11.81c1.49,0,3.11.37,4.44-.1s2.63-1.81,3.93-2.76c-1.38-1.08-2.63-2.78-4.16-3.09a21.52,21.52,0,0,0-7.92,0c-1.4.25-2.57,1.85-3.84,2.83a24.35,24.35,0,0,0,4.1,3.07C522.37,15.12,523.71,14.75,524.88,14.73Z"/><path d="M128.19,5.69c-8.57,7.72-16.83,15.14-25.08,22.58-4.27,3.86-4.11,5.21.25,9q12.74,11.17,25.23,22.61c1.43,1.31,3.71,2.81,1.23,5.32s-4.08,1.29-6.18-.72c-8.4-8-16.94-15.91-25.53-23.73-6.29-5.72-6.36-9.43-.16-15.2,7.29-6.8,14.66-13.52,21.67-20.6C122.94,1.63,125.32,1.72,128.19,5.69Z"/><path d="M541.52,36.27c13.11,0,13.11,0,13.11,12.94a25.38,25.38,0,0,0,0,3.49c.57,4-1.22,5.36-5.09,5.1-3.64-.25-7.31-.13-11,0-2.66.07-5.85-1-7,3a2.29,2.29,0,0,1-2.09.69A3.21,3.21,0,0,1,528,59.18c-.1-6.81-.18-13.63.12-20.43,0-.87,2.15-2.24,3.4-2.36A97.24,97.24,0,0,1,541.52,36.27Zm-.27,17.1c9.37,0,9.62-.34,9-8.77-.2-3-1.59-4.5-4.36-3.9-4.6,1-11.17-3.38-13.58,3-2.66,7.09-.13,9.62,7.39,9.63Z"/><path d="M358.36,33.08c-2.3,3.77-3.83,5.92-5,8.26-3.71,7.52-.6,14.15,7.83,14.81,9.22.72,18.55,0,27.83,0,2.05,0,5.36-1.65,5.24,2.17,0,1.18-3.15,3.15-4.93,3.23-9.11.4-18.26.51-27.38.32-6.8-.14-12.47-2.9-14.88-9.71-2.51-7.09.56-13.08,5.07-18.29C353,32.93,355.42,33.4,358.36,33.08Z"/><path d="M362.87,24.15l6.88-5.77c-.1-.52-.19-1-.29-1.55-3.29,0-6.57,0-9.86,0-2.48,0-5,.5-7.43.18-1-.13-1.83-1.81-2.73-2.79.91-.74,1.79-2.07,2.75-2.13q17.61-1.23,35.25-2c1,0,2.9,1.21,2.87,1.77a4.82,4.82,0,0,1-1.82,3.51c-6.49,3.59-13.05,7-19.75,10.21-1.5.72-3.63.11-5.48.11Z"/><path d="M395.79,15.44c2.89,3.22,5.72,6.31,8.42,9.52.18.21-.53,1.62-1.09,1.86a2.55,2.55,0,0,1-2.2-.49q-3.63-3.39-7-7a2.76,2.76,0,0,1-.34-2.2C393.68,16.62,394.52,16.34,395.79,15.44Z"/><path d="M388.35,22.31l8.35,9.85c-1.09.36-2.71,1.36-3.17,1a57.36,57.36,0,0,1-7-7c-.52-.62,0-2.16.09-3.27Z"/><path d="M456.44,44.22c-5,0-10,.13-14.93-.1-1.14,0-2.23-1.36-3.34-2.09,1.13-.91,2.25-2.6,3.4-2.62q15.18-.31,30.36,0c1.14,0,2.25,1.75,3.37,2.69-1.14.71-2.26,2-3.43,2C466.74,44.36,461.59,44.23,456.44,44.22Z" fill="#fff"/><path d="M456.65,35.34c-4.66,0-9.34.23-14-.13-1.53-.12-2.95-1.74-4.42-2.68,1.39-.83,2.77-2.34,4.17-2.38q14.24-.31,28.47,0c1.42,0,2.8,1.57,4.2,2.41-1.48.93-2.92,2.54-4.47,2.66C466,35.57,461.31,35.35,456.65,35.34Z" fill="#fff"/><path d="M456.65,48c4.66,0,9.34-.23,14,.13,1.54.11,3,1.71,4.44,2.63-1.39.85-2.77,2.42-4.18,2.45q-14.22.33-28.47,0c-1.4,0-2.77-1.6-4.15-2.45,1.46-.92,2.88-2.51,4.4-2.62C447.31,47.82,452,48,456.65,48Z" fill="#fff"/><path d="M456.93,26.23c3.61-5.12,4.87-12,12.9-10.57,5.19.89,3.33,4.59,3.48,7.25.06,1-2.1,3-3.38,3.16C465.63,26.48,461.27,26.23,456.93,26.23Z" fill="#fff"/><path d="M558.19,25.36c-1.65,0-3.45.41-4.9-.13s-2.34-2-3.49-3.11c1.08-1.15,2.05-3.12,3.25-3.28a39.77,39.77,0,0,1,10.34,0c1.23.17,2.21,2.15,3.31,3.3-1.19,1.07-2.22,2.57-3.61,3.09S559.84,25.36,558.19,25.36Z" fill="#fff"/><path d="M558.3,14.72c-1.82,0-3.74.37-5.4-.13-1.21-.37-2.07-1.89-3.09-2.89,1-1,2-2.78,3.13-2.91a43,43,0,0,1,10.33,0c1.25.17,2.27,2.08,3.4,3.2-1.15.91-2.17,2.22-3.47,2.62C561.7,15.07,559.94,14.72,558.3,14.72Z" fill="#fff"/><path d="M188.09,35.18c.79,5.53,2,9.8,1.7,13.93-.16,2-2.92,4.59-5.11,5.55s-5.82,1.29-7.65.1c-1.42-.93-1.86-4.81-1.3-7C177.23,41.71,182,38.45,188.09,35.18Z" fill="#fff"/><path d="M204.7,33.48l-8.37,12.43-1.94-.66c0-3.88-1-8.17.4-11.49.71-1.72,5.57-1.72,8.56-2.49Z" fill="#fff"/><path d="M286.53,61.47c-1.83-.39-3.9-.32-5.3-1.25C279.37,59,278,57,276.46,55.31c1.92-1.53,3.63-3.82,5.82-4.43,3.61-1,8.65,2.49,9.57,6.27C293.05,62.09,288.64,60.34,286.53,61.47Z" fill="#fff"/><path d="M26.7,51.23c.27,6.14-2,9.21-6.34,9.51A22.24,22.24,0,0,1,9.89,59.12c-5.07-2.33-5.23-7.77-.09-9.7C14.32,47.73,19.68,48,24.66,48,25.59,48.05,26.51,50.91,26.7,51.23Z" fill="#fff"/><path d="M524.27,26.54c-2.33-1.44-6.54-2.77-6.62-4.33-.3-5.44,4.53-3,7.39-3.51a8.71,8.71,0,0,1,4.43.1c1.43.57,2.54,2,3.79,3-1.27,1.19-2.37,2.75-3.87,3.44-1.23.57-2.93.12-4.43.12Z" fill="#fff"/><path d="M524.88,14.74c-1.17,0-2.51.38-3.45-.08a24.35,24.35,0,0,1-4.1-3.07c1.27-1,2.44-2.58,3.84-2.83a21.52,21.52,0,0,1,7.92,0c1.53.31,2.78,2,4.16,3.09-1.3,1-2.48,2.25-3.93,2.76S526.37,14.73,524.88,14.74Z" fill="#fff"/><path d="M541.25,53.38h-1.5c-7.52,0-10-2.54-7.39-9.63,2.41-6.43,9-2,13.58-3,2.77-.6,4.16.89,4.36,3.9C550.87,53,550.62,53.37,541.25,53.38Z" fill="#fff"/></svg>