<svg xmlns="http://www.w3.org/2000/svg" viewBox="0 0 277.27 32.83"><defs><style>.cls-1{fill:#333;}</style></defs><title>faq-title</title><g id="レイヤー_2" data-name="レイヤー 2"><g id="レイヤー_1-2" data-name="レイヤー 1"><path class="cls-1" d="M21.49,28.8a1.46,1.46,0,0,1-1.4,1.51c-.54,0-.83-.22-1.66-1.15a10.31,10.31,0,0,0-4.72-3.53,5.49,5.49,0,0,1-1.18,3.31,7.05,7.05,0,0,1-5.29,1.91c-4,0-7.24-2-7.24-4.29s2.7-3.7,6.73-3.7a27.06,27.06,0,0,1,4.64.46,8,8,0,0,0-.1-.93c0-.11-.11-.76-.26-1.69a73.07,73.07,0,0,1-.75-10.76c.11-5.26-.15-5.76-3.1-6-.18,0-.25-.07-.25-.18,0-.4,2-1.26,2.92-1.26a5.1,5.1,0,0,1,2.37,1c.87.61,1.08.86,1.08,1.33a2.49,2.49,0,0,1-.21.94,14.33,14.33,0,0,0-.65,5.43,12.44,12.44,0,0,0,6.37-1.58c1.76,1,2.41,1.58,2.41,2.16s-1.19,1-4.14,1a20.75,20.75,0,0,1-4.64-.43,68,68,0,0,0,.83,9.18c.18,1.08.21,1.36.32,2.23C19,25.48,21.49,27.1,21.49,28.8ZM6.26,24.12C3.74,24.12,2,25,2,26.28c0,1.54,2.27,2.77,5.15,2.77,2.23,0,3.81-.9,4.17-2.34a14,14,0,0,0,.18-1.8A20.13,20.13,0,0,0,6.26,24.12Z"/><path class="cls-1" d="M52.2,2.41c-.11,0-.18,0-.18-.11,0-.36.86-.68,1.87-.68,1.73,0,4.1,1.84,4.1,3.2,0,.44-.14.65-.75,1.08-1,.65-2.09,1.7-4.57,4.39a26,26,0,0,0-3,3.5A5.15,5.15,0,0,0,49,16.2a3.77,3.77,0,0,0,1.19,2.73c3.2,3.85,4.75,5.84,5.51,7a10.41,10.41,0,0,1,1.87,4.9c0,1.15-.65,1.94-1.59,1.94s-1.22-.47-1.62-2.23c-.39-2.2-2.12-5.65-4.68-9.29C47.63,18.14,47.3,17.46,47.3,16s.83-3.06,4.18-7.38C54,5.4,54.36,4.79,54.36,3.85a1.83,1.83,0,0,0-1.62-1.47,1.57,1.57,0,0,0-.33,0Z"/><path class="cls-1" d="M98.89,13.79a11.84,11.84,0,0,1-1.37,4.28A22.26,22.26,0,0,1,94.21,23a7.13,7.13,0,0,0,.58,1.94,2.87,2.87,0,0,1,.07.33c0,.47-1,1.33-1.62,1.33-.36,0-.47-.22-.9-2.05A27.37,27.37,0,0,1,89.28,27a9.56,9.56,0,0,1-4.61,1.8c-1.47,0-2.59-1.4-2.59-3.17A10.74,10.74,0,0,1,84.85,19c1.73-2.09,3.28-3.24,7-5.15,0-1.26.11-2.12.25-3.6a13.87,13.87,0,0,1-3.6.58c-1.94,0-3.88-1.51-3.88-3.06,0-.14.07-.25.18-.25s.07,0,.14.18a3.74,3.74,0,0,0,1.12,1,6.06,6.06,0,0,0,2.8.54,11,11,0,0,0,3.31-.54c.08-1.15.26-2.88.37-3.92,0-.43.07-.76.07-1,0-1.4-.8-2.09-2.34-2-.18,0-.25-.07-.25-.22S91.29.79,92.27.79c1.54,0,3.34,1.12,3.34,2.09,0,.22,0,.22-.28,1.08a27.12,27.12,0,0,0-1.19,4.21c3-1,4.46-1.8,4.82-2.81a7,7,0,0,0,1.3.11c.83,0,1.19.29,1.19.87s-.76,1.22-3.17,2.16c-1.55.57-2.67,1-4.21,1.4a32.25,32.25,0,0,0-.36,3.42,18.46,18.46,0,0,1,5.76-1c5.72,0,9.46,3.31,9.46,8.38,0,5.29-4.32,9.43-11.73,11.27a43.45,43.45,0,0,1-4.68.83.43.43,0,0,1-.47-.43c0-.11.11-.18.29-.22a28.89,28.89,0,0,0,4.89-1.37c5.69-2.16,8.75-5.94,8.75-10.76,0-4.14-2.77-6.77-7.13-6.84A3.36,3.36,0,0,1,98.89,13.79Zm-7.06,1.26c-3.41,2-5,3.42-6.22,5.61a9,9,0,0,0-1.19,4c0,1.18.43,1.72,1.44,1.72,1.58,0,3.82-1.18,6.3-3.34A68.59,68.59,0,0,1,91.83,15.05Zm1.8-.58c-.07,1-.1,1.58-.1,2.88a29.2,29.2,0,0,0,.25,4.07c2.19-2.85,4-6.41,4-8A16.27,16.27,0,0,0,93.63,14.47Z"/><path class="cls-1" d="M140.25,27.79a6,6,0,0,0,3-2.45,7.71,7.71,0,0,0,1.08-4c0-3.56-2-5.54-5.54-5.54-3.31,0-5.62,1.15-8,4a17.26,17.26,0,0,0-2.7,4.25,1.38,1.38,0,0,1-1.29,1c-.61,0-1.55-1.08-1.55-1.83,0-.4.29-.87,1-1.59,4.75-4.93,5.07-5.32,10.22-12.16,2.09-2.7,2.12-2.74,2.12-3.31a.76.76,0,0,0-.79-.83c-1.11,0-2,.47-5.69,3.06-.68.5-1,.65-1.36.65a2.71,2.71,0,0,1-1.69-1,2.8,2.8,0,0,1-.65-1.94c0-.65.07-.87.29-.87s.1,0,.18.33a1.28,1.28,0,0,0,1.36.9,21.27,21.27,0,0,0,7.45-2.63A1.67,1.67,0,0,1,139,3.35c1.44,0,4,1.73,4,2.73a.84.84,0,0,1-.57.8c-1.55.68-3.57,2.48-6.52,5.79-1.76,2-2.27,2.63-2.27,2.92s.11.32.22.32a3694783001307.1,3694783001307.1,0,0,0,.36-.14l.5-.22a13.42,13.42,0,0,1,5.19-1.08c4.25,0,7.27,2.92,7.27,7a7.53,7.53,0,0,1-2.7,5.94,12.59,12.59,0,0,1-7.78,2.7,7,7,0,0,1-4.32-1.33,2.58,2.58,0,0,1-1-2.16c0-1.66,1.41-2.74,3.53-2.74a5.38,5.38,0,0,1,5.22,3.57l0,.11Zm-2.3.54c-.4-2.2-1.44-3.31-3.1-3.31a1.46,1.46,0,0,0-1.65,1.44c0,1.18,1.37,2,3.45,2a5.59,5.59,0,0,0,1.08-.08Z"/><path class="cls-1" d="M170.28,17.78a.18.18,0,0,1,0,.11,9.08,9.08,0,0,0-.5,2.95c0,3.82,3.06,5.76,9,5.76a25.92,25.92,0,0,0,6.84-1c1-.36,1-.36,1.4-.36,1.08,0,2.38,1.08,2.38,1.94a1.17,1.17,0,0,1-.76.94,23.37,23.37,0,0,1-7.52,1c-4.14,0-7-.5-9-1.51a6.25,6.25,0,0,1-3.45-5.8,8.71,8.71,0,0,1,1.11-4c.11-.15.18-.22.33-.22S170.28,17.67,170.28,17.78Zm6.59-8.35c-2.16-.18-3.49-.65-4.39-1.55A5,5,0,0,1,171.14,5c0-.22.11-.36.29-.36s.15,0,.29.36c.68,1.73,2.56,2.66,5.33,2.66a17.66,17.66,0,0,0,4.42-.57,3.37,3.37,0,0,1,.87-.22,2.74,2.74,0,0,1,2,2.09c0,.68-.36.82-2.2.86a15.26,15.26,0,0,0-8.56,3c-.11.07-.15.11-.22.11s-.22-.14-.22-.29a15.08,15.08,0,0,1,3.42-2.91ZM189.79,7.7A1.27,1.27,0,0,1,188.53,9c-.36,0-.43-.07-.94-.9a6.11,6.11,0,0,0-3.45-2.66c-.15-.07-.22-.11-.22-.18s.58-.29,1.33-.29C187.49,4.93,189.79,6.34,189.79,7.7ZM193.28,6a1.32,1.32,0,0,1-1.22,1.26c-.4,0-.54-.14-.9-.86a6.25,6.25,0,0,0-3.6-2.77c-.11,0-.15,0-.15-.15s.51-.25,1.26-.25C191,3.24,193.28,4.61,193.28,6Z"/><path class="cls-1" d="M209.63,7.52a7.49,7.49,0,0,1-3.1,6.45,6,6,0,0,1-2.12,1.29.32.32,0,0,1-.33-.29c0-.14.11-.28.33-.5,2.16-2,3-4.28,3-8.39,0-1.58,0-2.66-.22-4.82l2.88,1.08A35,35,0,0,0,217.62.22l1.55,2.12a.5.5,0,0,1,.11.29c0,.14-.26.25-.73.25-.17,0-.53,0-1.07.11-2.2.21-5.44.39-7.82.43v3.2h6.09l2-2.23,2.52,2.27a.84.84,0,0,1,.1.47c0,.21-.1.39-.25.39h-4.39v3.57c0,.75-.54,1.11-1.58,1.11-.47,0-.65-.18-.65-.57V7.52Zm7,22.1c-4.68,1.44-5.11,1.59-6.44,1.88a33.74,33.74,0,0,1-5,.72c-.43,0-.65-.11-.65-.36s.07-.29,1.26-.62A32,32,0,0,0,215.57,27l2.63,1.73a.76.76,0,0,1,.21.47c0,.36-.29.54-.83.57h-.18Zm-3.85-2.52c0,.54-.79,1-1.8,1-.36,0-.54-.18-.54-.51V11.45l2.74,1.44h4.5c2.8-2.31,3.38-3.6,3.38-7.56,0-.9-.07-2.27-.18-4.36L224,2.16c4.18-.79,5.15-1,7.7-2.16l2.13,2.2a.52.52,0,0,1,.14.32c0,.18-.25.25-1.29.25l-1.26.07c-3.32.29-5.55.44-8.25.47V6.52h8.17l2-2.31L236,6.52a.43.43,0,0,1,.14.36.54.54,0,0,1-.47.54h-6v3.63c0,.32-.14.47-.68.72l2.19,1.66c.29.21.4.36.4.54s-.18.39-.72.5l-.86.22v12c0,.43-.69.75-1.55.75-.47,0-.72-.18-.72-.47v-.61H212.76ZM227.7,16.77v-3H212.76v3Zm0,4.14V17.64H212.76v3.27Zm0,4.5v-3.6H212.76v3.6Zm-4.61-18c-.07,2-1,3.38-3.71,5.47h8.39l.68-1a2.75,2.75,0,0,1-.64.11c-.36,0-.58-.18-.58-.47V7.42Zm-.25,19.68a24.52,24.52,0,0,1,8.75,1.44c2.23.8,3.06,1.55,3.06,2.7,0,.83-.4,1.3-1.12,1.3s-.68,0-3.82-2.09a25.68,25.68,0,0,0-7.16-2.84Z"/><path class="cls-1" d="M250.6,2h6.65L258.41.43l2.16,2a1.17,1.17,0,0,1,.36.68c0,.18-.18.36-.36.47l-.58.22V13c0,.5-.07.65-.4.79a6.58,6.58,0,0,1-1.51.36c-.25,0-.36-.14-.36-.43V12H250v18.9a.78.78,0,0,1-.61.86,4.54,4.54,0,0,1-1.4.43c-.22,0-.33-.18-.33-.46V.36Zm7.12,4.46V2.88H250v3.6Zm0,4.61V7.34H250v3.75Zm.47,6.08h7.74l1.19-1.44,2,1.87c.29.25.4.43.4.61a.61.61,0,0,1-.43.54l-.58.11V26.2a.68.68,0,0,1-.5.69,6,6,0,0,1-1.41.29c-.28,0-.43-.15-.43-.47V24.44h-8.31V27.5c0,.29-.11.43-.4.58a5,5,0,0,1-1.47.39c-.29,0-.44-.18-.44-.5V15.8Zm8,6.41V18h-8.31v5.55ZM266.72,2h6.7L274.71.47,277,2.7a.9.9,0,0,1,.29.61.7.7,0,0,1-.36.58l-.69.32V29.44a1.88,1.88,0,0,1-.79,1.8,3.67,3.67,0,0,1-1.8.94c-.36,0-.54-.29-.61-.86s-.18-.69-.72-.83l-3.56-1.08V28.8l1,0c.93,0,1.58.07,1.9.07,2.06,0,2.16,0,2.16-.79V12h-7.63v1.26c0,.47-.14.61-.79.79a2.92,2.92,0,0,1-.94.18c-.28,0-.46-.21-.46-.57V.5Zm7.09,4.46V2.88h-7.63v3.6Zm0,4.61V7.34h-7.63v3.75Z"/></g></g></svg>