<svg xmlns="http://www.w3.org/2000/svg" viewBox="0 0 568 68"><title>faq</title><path d="M0,50V0H443c-5.21,5-11.47,4.64-18.56,3.3.56,9.47,1.22,18.86-5.54,26.74,5.27-1.94,8.72-5.24,10-10.4.65-2.66,1.43-4.86,4.81-4.38,3.67.52,3.05,3.36,3.07,5.78a24.1,24.1,0,0,1-.49,3.44l-4.71-.34V58.85l-11.16,4.33c9.42,1.85,17.46-2.46,26.7-4.27l-4.55-5.25c4.45,0,8.15-1,11,.19,6.83,2.84,13.2,6.81,19.9,10,1.51.73,3.62.21,5.46.26-.74-1.83-1.17-5.05-2.26-5.28-7.57-1.63-6.94-7.06-6.62-12.62.2-3.32-.17-6.68.1-10,.24-3,1-5.9,1.66-9.59-3.06-2.2-3.64-7.13-1.21-9.77,2.08-2.24,7.12-1.74,10.89-2.46-1.81-4.5-4.26-6.26-6.09-4.19-3.94,4.45-8.89,3-13.51,3-1.7,0-3.39-1.75-5.08-2.7,1.49-1.14,2.85-3,4.49-3.27,5.29-.9,10.68-1.21,16.69-1.82L474,0h94V68H0V56c13.33,9.34,20.86,8.47,29.61-4a102.83,102.83,0,0,0,8.13,7.09c1.18.86,3.15.61,4.76.86-.11-1.75.43-4-.48-5.12-1.51-1.84-3.76-3.74-6-4.2-7.52-1.54-9.48-6.73-9.85-13.32-.14-2.49-.25-5-.43-7.47-.24-3.1.69-4.72,4.24-4.22a25.91,25.91,0,0,0,8,0c1.6-.28,3-1.81,4.45-2.78-1.55-1.08-3-2.76-4.67-3s-3.46.91-5.2,1.45c-6.06,1.86-7.28.91-6.7-5.26a8.56,8.56,0,0,1,.42-2.45c1.24-3,1-5.57-2.11-7.24S18,4.12,16.35,5.91c1.75,3.75,3.94,6.51,4.25,9.47,1,8.91,1.09,17.91,1.76,26.87C22.57,45,22,46.41,19,46.06,12.21,45.27,5.76,46,0,50ZM189.41,64.58l.42,1.39c10.83-1.57,21.46-3.8,28.72-13.28,4.39-5.74,4.91-12.33,1.82-18.85s-9.18-8.8-16-9c-2.64-.08-5.29.5-7.94.5a20.08,20.08,0,0,1-4.28-.95c.86-1.58,1.32-3.79,2.64-4.6,2.66-1.62,5.94-2.21,8.66-3.76,1.33-.75,2-2.71,2.93-4.13-1.79.07-3.7-.23-5.34.3-2.19.71-4.17,2.06-7.17,3.62.47-4.71,2-8.53.85-11.18C193.07,1,189,1.37,185,2.75c4.15,3.55,5.8,9.52,3,13.2-3.78,4.92-8.95,1.63-13.65.78,1.37,4.59,2.76,5.23,9.61,5.21,1.27,0,3.61.8,3.62,1.29a7.39,7.39,0,0,1-1.31,4.82c-1.4,1.54-3.61,2.31-5.38,3.56-6.47,4.54-11.64,10.11-12.57,18.33-.71,6.33,3.66,9.47,9.44,7,2.57-1.11,4.83-2.94,7.39-4.11,1.26-.57,3.25-1,4.28-.41,3.57,2,3.79-.29,4.4-2.73A47.65,47.65,0,0,1,196.24,42c1.47-3.33,3.59-6.39,4.93-9.77,2.25-5.66,4.39-6.77,9.11-2.71A17,17,0,0,1,215.72,39c1.34,8.44-4.9,17.22-14.27,21.26C197.54,61.94,193.43,63.16,189.41,64.58Zm73.91-51c1,4.76,3.48,5.91,8.31,2.86a55.51,55.51,0,0,1,5.87-3.76c1.33-.61,3-.41,4.57-.57-.42,1.45-.46,3.21-1.33,4.3-7.11,8.78-14.42,17.4-21.54,26.18a11.88,11.88,0,0,0-2.34,5.08c-.12.57,2.36,2.4,2.68,2.19A24.38,24.38,0,0,0,264,45.7c3.21-3.56,5.89-7.72,9.56-10.69,5.33-4.3,14.3-3.87,18.08,0s3.66,11.79-.1,16.66c-2,2.63-3.77,3.47-6.81.5-2.26-2.2-5.85-3.48-9.06-4.13s-6.41.84-6.8,4.84a5.88,5.88,0,0,0,5.35,6.72,35.75,35.75,0,0,0,12.3-.17c10.5-2.36,15.79-11.09,13.32-21-1.84-7.36-10.19-11-20.15-8.82-1.22.26-2.48.31-3.72.46-.34-.44-.68-.89-1-1.34,4.26-4.21,8.54-8.39,12.76-12.64,1.43-1.43,2.7-3,4-4.53-2.06-1.53-3.95-3.66-6.26-4.38-1.73-.53-4.05.7-6.06,1.3C274.21,10.11,269,11.76,263.32,13.53ZM540,2c0,8.44-.07,16.22.15,24,0,.58,3.16,1.64,3.21,1.57,2.8-5,7.59-3,11.66-3.35,2.82-.22,4.36,1.06,4.35,4.07,0,8.32,0,16.64,0,25,0,3.41-1.9,4.67-5.21,4.36a22.35,22.35,0,0,0-4.13.34c2,1.89,4.14,2.44,5.94,3.51,5.77,3.45,8.56,2,8.64-4.88.13-10.48-.11-21,.09-31.45.12-5.92,1.24-11.86,1-17.75-.08-1.82-4.17-5.32-4.93-4.95C554,5.64,547.57,4.44,540,2Zm-32.2.74a18.08,18.08,0,0,0-.41,2.77c0,17.82-.07,35.65.08,53.48,0,1.59,1.36,3.17,2.09,4.76.83-1.58,2.33-3.14,2.37-4.74.23-9.32,0-18.66.2-28,0-2.21,1.1-6.19,2-6.28a50,50,0,0,1,12,.76c1.47.22,2.79,1.48,4.18,2.26a25.49,25.49,0,0,0,1.35-4.5c.66-5.5,1.29-11,1.57-16.56.06-1.13-1.22-2.69-2.31-3.41a6.06,6.06,0,0,0-3.88-.6c-2.23.29-4.41,1.44-6.59,1.39C516.45,4,512.43,3.27,507.8,2.74Zm-399.5.19L107,4.52c5.11,2.68,3.42,5.64,1.1,8.66-2.53,3.29-5.11,6.55-7.49,10-5.19,7.46-4.85,10.42-.21,18.15,4,6.63,7,13.81,10.74,20.63.8,1.47,2.53,2.43,3.84,3.62.85-1.92,2.76-4.11,2.34-5.69a33.44,33.44,0,0,0-4.68-9.77c-2.48-3.72-5.49-7.09-8.34-10.56-4.82-5.87-4.93-9.1.19-14.85,3.64-4.08,7.49-8,11.51-11.72,3.06-2.82,2.69-5.35-.35-7.32C113.53,4.24,110.78,3.8,108.3,2.93Zm414.49,31c0,5.93-.1,12.56.08,19.17,0,1.2,1.18,2.36,1.81,3.53,1-1.08,2.84-2.12,2.88-3.24.14-3.42,1.87-4.29,4.81-4.21,2.67.07,5.37-.23,8,.14,1.36.2,2.61,1.44,3.82,2.33a30.64,30.64,0,0,1,2.51,2.33c.83-1.1,2.21-2.12,2.37-3.3a63.18,63.18,0,0,0,.16-8.49c0-2.62.75-5.67-.32-7.77-2.26-4.45-5,.47-7.54.37C535.47,34.49,529.6,34.2,522.79,33.88Zm-175,2c-5.1,8.52-2.55,17,5.13,20,9.8,3.82,19.93,2.94,30,1.44,1.25-.19,2.26-2,3.38-3.08-1.24-1.2-2.31-2.76-3.79-3.48-1-.47-2.53.22-3.8.53-7.17,1.79-14.35,2.7-21.69.91-6.36-1.54-9.34-5.19-9.24-11.65C347.83,39.44,347.81,38.3,347.81,35.91ZM351,10.1l-1,1c1,1.67,1.67,3.64,3,4.93,1.56,1.5,3.69,2.41,5.87,3.76L355,24.4c6.19-1.56,12.37-3.08,18.53-4.7,1-.27,2.7-1.29,2.63-1.53-.39-1.32-.95-3.09-2-3.58a8.1,8.1,0,0,0-4.84-.23C362.62,15.87,356.21,16.1,351,10.1Zm27.31-.94-.75,1.55a76,76,0,0,0,5.66,5.95c.78.68,2.31.49,3.51.69,0-1.33.46-3.42-.18-3.85A72.5,72.5,0,0,0,378.33,9.16ZM385,5.79l-.67,1.71A63.2,63.2,0,0,0,390,12.78c.91.67,2.46.49,3.71.69-.17-1.32.11-3.37-.61-3.82A68.33,68.33,0,0,0,385,5.79Z" fill="#fff"/><path d="M474,0l3.94,5.48c-6,.61-11.4.92-16.69,1.82-1.64.27-3,2.13-4.49,3.27,1.69.95,3.38,2.69,5.08,2.7,4.62,0,9.57,1.41,13.51-3,1.83-2.07,4.28-.31,6.09,4.19-3.77.72-8.81.22-10.89,2.46-2.43,2.64-1.85,7.57,1.21,9.77-.66,3.69-1.42,6.62-1.66,9.59-.27,3.3.1,6.66-.1,10-.32,5.56-.95,11,6.62,12.62,1.09.23,1.52,3.45,2.26,5.28-1.84-.05-3.95.47-5.46-.26-6.7-3.2-13.07-7.17-19.9-10-2.81-1.17-6.51-.19-11-.19l4.55,5.25c-9.24,1.81-17.28,6.12-26.7,4.27l11.16-4.33V24.14l4.71.34a24.1,24.1,0,0,0,.49-3.44c0-2.42.6-5.26-3.07-5.78-3.38-.48-4.16,1.72-4.81,4.38-1.27,5.16-4.72,8.46-10,10.4,6.76-7.88,6.1-17.27,5.54-26.74C431.53,4.64,437.79,5,443,0h3l2.12,5.48c-2.06.41-3.75.89-5.48,1.07-3.3.34-6.66.32-9.92.87-1.09.19-2.66,1.63-2.74,2.6s1.21,3.14,2,3.22c2.94.26,7,1,8.7-.53,3.77-3.38,6.77-2.68,10.86.54.27-4.11.47-7.26.7-10.8C459.42,5.22,465.42,3.88,471,0ZM450,44.19a90.27,90.27,0,0,0-10.92.16,4.55,4.55,0,0,0-3.1,3.21c-.05,1.32,1.54,3.82,2.52,3.87,7.76.37,15.55.46,23.31.15,1.21,0,3.16-2.51,3.23-3.93.05-1.09-2.21-3.12-3.62-3.29C457.67,43.89,453.82,44.2,450,44.19Zm.13-2v0c4,0,8,.22,11.91-.13,1.16-.11,2.18-1.82,3.27-2.79-1.11-1.11-2.19-3.15-3.34-3.19-7.6-.3-15.23-.3-22.83,0-1.17,0-2.26,2-3.38,3,1.15,1,2.21,2.83,3.46,3A96.75,96.75,0,0,0,450.14,42.15Zm-.05-8.34v0c4,0,8,.23,11.93-.14,1.16-.1,2.16-1.89,3.24-2.9-1.08-1-2.14-2.7-3.26-2.74q-11.43-.39-22.87-.06c-1.14,0-2.23,1.68-3.34,2.59,1.12,1.09,2.14,3,3.37,3.14A94.76,94.76,0,0,0,450.09,33.81Zm14.16-8.52a40,40,0,0,0-.08-6.26c-.21-1.27-1.08-3.3-1.89-3.43-1.78-.27-4.42-.2-5.44.9-2.16,2.31-3.5,5.37-5.58,8.79ZM450.7,16c-8.35-2-9.07-1.26-9.25,9.5C447.3,25.44,450.49,22.17,450.7,16Z"/><path d="M0,50c5.76-4,12.21-4.73,19-3.94,3.05.35,3.61-1,3.4-3.81-.67-9-.8-18-1.76-26.87-.31-3-2.5-5.72-4.25-9.47C18,4.12,21,4.64,24.13,6.28s3.35,4.23,2.11,7.24A8.56,8.56,0,0,0,25.82,16c-.58,6.17.64,7.12,6.7,5.26,1.74-.54,3.59-1.73,5.2-1.45s3.12,2,4.67,3c-1.48,1-2.85,2.5-4.45,2.78a25.91,25.91,0,0,1-8,0c-3.55-.5-4.48,1.12-4.24,4.22.18,2.49.29,5,.43,7.47.37,6.59,2.33,11.78,9.85,13.32,2.24.46,4.49,2.36,6,4.2.91,1.1.37,3.37.48,5.12-1.61-.25-3.58,0-4.76-.86A102.83,102.83,0,0,1,29.61,52C20.86,64.47,13.33,65.34,0,56Zm13.36-1.53c-1.76.42-4.16.6-6.19,1.57-2.71,1.28-2.89,3.44-.63,5.55,3.21,3,10.72,3.49,14,.62a8,8,0,0,0,2.22-4.65c.07-.57-2.1-1.7-3.39-2.11A45.67,45.67,0,0,0,13.36,48.47Z"/><path d="M471,0c-5.58,3.88-11.58,5.22-18.71,2.45-.23,3.54-.43,6.69-.7,10.8-4.09-3.22-7.09-3.92-10.86-.54-1.72,1.55-5.76.79-8.7.53-.84-.08-2.14-2.16-2-3.22s1.65-2.41,2.74-2.6c3.26-.55,6.62-.53,9.92-.87,1.73-.18,3.42-.66,5.48-1.07L446,0Z" fill="#fff"/><path d="M189.41,64.58c4-1.42,8.13-2.64,12-4.32,9.37-4,15.61-12.82,14.27-21.26a17,17,0,0,0-5.44-9.46c-4.72-4.06-6.86-2.95-9.11,2.71-1.34,3.38-3.46,6.44-4.93,9.77a47.65,47.65,0,0,0-2.41,7.63c-.61,2.44-.83,4.78-4.4,2.73-1-.6-3-.16-4.28.41-2.56,1.17-4.82,3-7.39,4.11-5.78,2.51-10.15-.63-9.44-7,.93-8.22,6.1-13.79,12.57-18.33,1.77-1.25,4-2,5.38-3.56a7.39,7.39,0,0,0,1.31-4.82c0-.49-2.35-1.29-3.62-1.29-6.85,0-8.24-.62-9.61-5.21,4.7.85,9.87,4.14,13.65-.78,2.82-3.68,1.17-9.65-3-13.2,4-1.38,8-1.79,9.66,1.89,1.16,2.65-.38,6.47-.85,11.18,3-1.56,5-2.91,7.17-3.62,1.64-.53,3.55-.23,5.34-.3-1,1.42-1.6,3.38-2.93,4.13-2.72,1.55-6,2.14-8.66,3.76-1.32.81-1.78,3-2.64,4.6a20.08,20.08,0,0,0,4.28.95c2.65,0,5.3-.58,7.94-.5,6.86.2,12.89,2.37,16,9s2.57,13.11-1.82,18.85C211.29,62.17,200.66,64.4,189.83,66Zm-1.32-32.65C180.35,34,173.45,42.21,173.5,48.49c0,1.31,1.05,3.31,2.14,3.78,3,1.28,12.08-4.18,12.36-7.46C188.36,40.75,188.09,36.63,188.09,31.93Zm3.38,7.61,2.4.51,5.43-11-1.12-1.38c-1.85.6-4.94.77-5.3,1.87C191.82,32.67,191.86,36.18,191.47,39.54Z"/><path d="M263.32,13.53c5.7-1.77,10.89-3.42,16.11-5,2-.6,4.33-1.83,6.06-1.3,2.31.72,4.2,2.85,6.26,4.38-1.34,1.51-2.61,3.1-4,4.53-4.22,4.25-8.5,8.43-12.76,12.64.33.45.67.9,1,1.34,1.24-.15,2.5-.2,3.72-.46,10-2.18,18.31,1.46,20.15,8.82,2.47,9.86-2.82,18.59-13.32,21a35.75,35.75,0,0,1-12.3.17,5.88,5.88,0,0,1-5.35-6.72c.39-4,3.45-5.52,6.8-4.84s6.8,1.93,9.06,4.13c3,3,4.77,2.13,6.81-.5,3.76-4.87,3.78-12.87.1-16.66s-12.75-4.32-18.08,0c-3.67,3-6.35,7.13-9.56,10.69a24.38,24.38,0,0,1-4.45,4.11c-.32.21-2.8-1.62-2.68-2.19a11.88,11.88,0,0,1,2.34-5.08c7.12-8.78,14.43-17.4,21.54-26.18.87-1.09.91-2.85,1.33-4.3-1.54.16-3.24,0-4.57.57a55.51,55.51,0,0,0-5.87,3.76C266.8,19.44,264.35,18.29,263.32,13.53Zm13.61,36.52-2-.93c-.58,1.28-2,3.12-1.59,3.74a10.63,10.63,0,0,0,4.47,3.52c.63.28,2-1.19,3.05-1.86Z"/><path d="M540,2c7.57,2.44,14,3.64,20.71.42.76-.37,4.85,3.13,4.93,5,.28,5.89-.84,11.83-1,17.75-.2,10.48,0,21-.09,31.45-.08,6.9-2.87,8.33-8.64,4.88-1.8-1.07-3.91-1.62-5.94-3.51a22.35,22.35,0,0,1,4.13-.34c3.31.31,5.19-1,5.21-4.36,0-8.32,0-16.64,0-25,0-3-1.53-4.29-4.35-4.07-4.07.31-8.86-1.69-11.66,3.35-.05.07-3.19-1-3.21-1.57C539.93,18.22,540,10.44,540,2Zm11.65,11.31v.09c1.17,0,2.58.42,3.44-.09a28.91,28.91,0,0,0,4.22-3.72c-1.32-1.13-2.49-2.91-4-3.25a18.06,18.06,0,0,0-7.43,0c-1.21.25-3.06,2.06-3,3a6.24,6.24,0,0,0,2.82,3.82C548.68,13.79,550.32,13.31,551.65,13.31Zm0,8.8v0c1.33,0,2.82.38,3.94-.1,1.41-.6,2.51-1.92,3.74-2.92-1.17-1.3-2.16-3.44-3.53-3.73a21.55,21.55,0,0,0-8.39.12c-1.1.21-2.55,2.22-2.54,3.41s1.62,2.48,2.85,3.07C548.8,22.52,550.32,22.11,551.65,22.11Z"/><path d="M507.8,2.74c4.63.53,8.65,1.24,12.69,1.34,2.18,0,4.36-1.1,6.59-1.39a6.06,6.06,0,0,1,3.88.6c1.09.72,2.37,2.28,2.31,3.41-.28,5.54-.91,11.06-1.57,16.56a25.49,25.49,0,0,1-1.35,4.5c-1.39-.78-2.71-2-4.18-2.26a50,50,0,0,0-12-.76c-.89.09-1.94,4.07-2,6.28-.22,9.33,0,18.67-.2,28,0,1.6-1.54,3.16-2.37,4.74-.73-1.59-2.08-3.17-2.09-4.76-.15-17.83-.1-35.66-.08-53.48A18.08,18.08,0,0,1,507.8,2.74Zm11,10.73c1.75,0,3.21.44,4-.1a26.25,26.25,0,0,0,3.93-3.89c-1.33-1.1-2.52-2.87-4-3.16a22.49,22.49,0,0,0-7.93.11,3.91,3.91,0,0,0-2.54,2.85A5.07,5.07,0,0,0,514.49,13C515.82,13.75,517.73,13.4,518.8,13.47Zm.13,8.68c1.79,0,3.31.41,4.38-.1,1.34-.65,3.24-2.07,3.21-3.12,0-1.25-1.64-2.79-2.94-3.57-1-.6-2.6-.38-3.89-.19-2.9.43-7.53-1.63-7.51,3.71S516.85,21.31,518.93,22.15Z"/><path d="M108.3,2.93c2.48.87,5.23,1.31,7.36,2.7,3,2,3.41,4.5.35,7.32-4,3.71-7.87,7.64-11.51,11.72-5.12,5.75-5,9-.19,14.85,2.85,3.47,5.86,6.84,8.34,10.56a33.44,33.44,0,0,1,4.68,9.77c.42,1.58-1.49,3.77-2.34,5.69-1.31-1.19-3-2.15-3.84-3.62-3.69-6.82-6.76-14-10.74-20.63-4.64-7.73-5-10.69.21-18.15,2.38-3.41,5-6.67,7.49-10,2.32-3,4-6-1.1-8.66Z"/><path d="M522.79,33.88c6.81.32,12.68.61,18.56.86,2.58.1,5.28-4.82,7.54-.37,1.07,2.1.3,5.15.32,7.77a63.18,63.18,0,0,1-.16,8.49c-.16,1.18-1.54,2.2-2.37,3.3a30.64,30.64,0,0,0-2.51-2.33c-1.21-.89-2.46-2.13-3.82-2.33-2.61-.37-5.31-.07-8-.14-2.94-.08-4.67.79-4.81,4.21,0,1.12-1.87,2.16-2.88,3.24-.63-1.17-1.78-2.33-1.81-3.53C522.69,46.44,522.79,39.81,522.79,33.88Zm13,13.66c3.24-1,8.5,2.46,8.6-4.8.07-4.76-1.47-6.8-6.26-6.18a30.91,30.91,0,0,1-4,0c-6.23,0-6.65.56-6.44,6.74C527.94,49.87,532.86,46.55,535.77,47.54Z"/><path d="M347.81,35.91c0,2.39,0,3.53,0,4.66-.1,6.46,2.88,10.11,9.24,11.65,7.34,1.79,14.52.88,21.69-.91,1.27-.31,2.84-1,3.8-.53,1.48.72,2.55,2.28,3.79,3.48-1.12,1.07-2.13,2.89-3.38,3.08-10.08,1.5-20.21,2.38-30-1.44C345.26,52.91,342.71,44.43,347.81,35.91Z"/><path d="M351,10.1c5.19,6,11.6,5.77,18.34,4.26a8.1,8.1,0,0,1,4.84.23c1,.49,1.6,2.26,2,3.58.07.24-1.64,1.26-2.63,1.53-6.16,1.62-12.34,3.14-18.53,4.7l3.88-4.61c-2.18-1.35-4.31-2.26-5.87-3.76-1.35-1.29-2-3.26-3-4.93Z"/><path d="M378.33,9.16a72.5,72.5,0,0,1,8.24,4.34c.64.43.15,2.52.18,3.85-1.2-.2-2.73,0-3.51-.69a76,76,0,0,1-5.66-5.95Z"/><path d="M385,5.79a68.33,68.33,0,0,1,8.15,3.86c.72.45.44,2.5.61,3.82-1.25-.2-2.8,0-3.71-.69a63.2,63.2,0,0,1-5.72-5.28Z"/><path d="M450,44.19c3.81,0,7.66-.3,11.42.17,1.41.17,3.67,2.2,3.62,3.29-.07,1.42-2,3.88-3.23,3.93-7.76.31-15.55.22-23.31-.15-1,0-2.57-2.55-2.52-3.87a4.55,4.55,0,0,1,3.1-3.21A90.27,90.27,0,0,1,450,44.19Z" fill="#fff"/><path d="M450.14,42.15A96.75,96.75,0,0,1,439.23,42c-1.25-.14-2.31-1.93-3.46-3,1.12-1.06,2.21-3,3.38-3,7.6-.27,15.23-.27,22.83,0,1.15,0,2.23,2.08,3.34,3.19-1.09,1-2.11,2.68-3.27,2.79-3.94.35-7.93.13-11.91.13Z" fill="#fff"/><path d="M450.09,33.81a94.76,94.76,0,0,1-10.93-.15c-1.23-.15-2.25-2-3.37-3.14,1.11-.91,2.2-2.56,3.34-2.59q11.43-.32,22.87.06c1.12,0,2.18,1.78,3.26,2.74-1.08,1-2.08,2.8-3.24,2.9-3.95.37-7.95.14-11.93.14Z" fill="#fff"/><path d="M464.25,25.29h-13c2.08-3.42,3.42-6.48,5.58-8.79,1-1.1,3.66-1.17,5.44-.9.81.13,1.68,2.16,1.89,3.43A40,40,0,0,1,464.25,25.29Z" fill="#fff"/><path d="M450.7,16c-.21,6.22-3.4,9.49-9.25,9.5C441.63,14.69,442.35,14,450.7,16Z" fill="#fff"/><path d="M13.36,48.47a45.67,45.67,0,0,1,6,1c1.29.41,3.46,1.54,3.39,2.11a8,8,0,0,1-2.22,4.65c-3.23,2.87-10.74,2.37-13.95-.62-2.26-2.11-2.08-4.27.63-5.55C9.2,49.07,11.6,48.89,13.36,48.47Z" fill="#fff"/><path d="M188.09,31.93c0,4.7.27,8.82-.09,12.88-.28,3.28-9.36,8.74-12.36,7.46-1.09-.47-2.13-2.47-2.14-3.78C173.45,42.21,180.35,34,188.09,31.93Z" fill="#fff"/><path d="M191.47,39.54c.39-3.36.35-6.87,1.41-10,.36-1.1,3.45-1.27,5.3-1.87L199.3,29l-5.43,11Z" fill="#fff"/><path d="M276.93,50.05l3.89,4.47c-1,.67-2.42,2.14-3.05,1.86a10.63,10.63,0,0,1-4.47-3.52c-.41-.62,1-2.46,1.59-3.74Z" fill="#fff"/><path d="M551.65,13.31c-1.33,0-3,.48-3.91-.12a6.24,6.24,0,0,1-2.82-3.82c-.09-.93,1.76-2.74,3-3a18.06,18.06,0,0,1,7.43,0c1.5.34,2.67,2.12,4,3.25a28.91,28.91,0,0,1-4.22,3.72c-.86.51-2.27.09-3.44.09Z" fill="#fff"/><path d="M551.65,22.11c-1.33,0-2.85.41-3.93-.11-1.23-.59-2.84-2-2.85-3.07s1.44-3.2,2.54-3.41a21.55,21.55,0,0,1,8.39-.12c1.37.29,2.36,2.43,3.53,3.73-1.23,1-2.33,2.32-3.74,2.92-1.12.48-2.61.1-3.94.1Z" fill="#fff"/><path d="M518.8,13.47c-1.07-.07-3,.28-4.31-.44a5.07,5.07,0,0,1-2.21-3.75,3.91,3.91,0,0,1,2.54-2.85,22.49,22.49,0,0,1,7.93-.11c1.48.29,2.67,2.06,4,3.16a26.25,26.25,0,0,1-3.93,3.89C522,13.91,520.55,13.47,518.8,13.47Z" fill="#fff"/><path d="M518.93,22.15c-2.08-.84-6.74,2.05-6.75-3.27s4.61-3.28,7.51-3.71c1.29-.19,2.9-.41,3.89.19,1.3.78,2.91,2.32,2.94,3.57,0,1.05-1.87,2.47-3.21,3.12C522.24,22.56,520.72,22.15,518.93,22.15Z" fill="#fff"/><path d="M535.77,47.54c-2.91-1-7.83,2.33-8.07-4.21-.21-6.18.21-6.78,6.44-6.74a30.91,30.91,0,0,0,4,0c4.79-.62,6.33,1.42,6.26,6.18C544.27,50,539,46.57,535.77,47.54Z" fill="#fff"/></svg>