<?xml version="1.0" encoding="utf-8"?>
<!-- Generator: Adobe Illustrator 24.0.3, SVG Export Plug-In . SVG Version: 6.00 Build 0)  -->
<svg version="1.1" id="Layer_1" xmlns="http://www.w3.org/2000/svg" xmlns:xlink="http://www.w3.org/1999/xlink" x="0px" y="0px"
	 viewBox="0 0 568 68" style="enable-background:new 0 0 568 68;" xml:space="preserve">
<style type="text/css">
	.st0{fill:#FFFFFF;}
</style>
<g>
	<path class="st0" d="M0,50C0,33.3,0,16.7,0,0c147.7,0,295.3,0,443,0c-5.2,5-11.5,4.6-18.6,3.3c0.6,9.5,1.2,18.9-5.5,26.7
		c5.3-1.9,8.7-5.2,10-10.4c0.7-2.7,1.4-4.9,4.8-4.4c3.7,0.5,3,3.4,3.1,5.8c0,1.1-0.3,2.2-0.5,3.4c-1.9-0.1-3.4-0.2-4.7-0.3
		c0,11.5,0,22.6,0,34.7c-3.1,1.2-7.1,2.8-11.2,4.3c9.4,1.9,17.5-2.5,26.7-4.3c-1.6-1.9-2.6-3-4.5-5.3c4.4,0,8.1-1,11,0.2
		c6.8,2.8,13.2,6.8,19.9,10c1.5,0.7,3.6,0.2,5.5,0.3c-0.7-1.8-1.2-5-2.3-5.3c-7.6-1.6-6.9-7.1-6.6-12.6c0.2-3.3-0.2-6.7,0.1-10
		c0.2-3,1-5.9,1.7-9.6c-3.1-2.2-3.6-7.1-1.2-9.8c2.1-2.2,7.1-1.7,10.9-2.5c-1.8-4.5-4.3-6.3-6.1-4.2c-3.9,4.4-8.9,3-13.5,3
		c-1.7,0-3.4-1.7-5.1-2.7c1.5-1.1,2.9-3,4.5-3.3c5.3-0.9,10.7-1.2,16.7-1.8c-1.7-2.3-2.8-3.9-3.9-5.5c31.3,0,62.7,0,94,0
		c0,22.7,0,45.3,0,68c-189.3,0-378.7,0-568,0c0-4,0-8,0-12c13.3,9.3,20.9,8.5,29.6-4c2.7,2.4,5.2,5,8.1,7.1c1.2,0.9,3.2,0.6,4.8,0.9
		c-0.1-1.7,0.4-4-0.5-5.1c-1.5-1.8-3.8-3.7-6-4.2c-7.5-1.5-9.5-6.7-9.9-13.3c-0.1-2.5-0.2-5-0.4-7.5c-0.2-3.1,0.7-4.7,4.2-4.2
		c2.6,0.4,5.4,0.5,8,0c1.6-0.3,3-1.8,4.4-2.8c-1.5-1.1-3-2.8-4.7-3c-1.6-0.3-3.5,0.9-5.2,1.4c-6.1,1.9-7.3,0.9-6.7-5.3
		c0.1-0.8,0.1-1.7,0.4-2.5c1.2-3,1-5.6-2.1-7.2C21,4.6,18,4.1,16.4,5.9c1.7,3.7,3.9,6.5,4.3,9.5c1,8.9,1.1,17.9,1.8,26.9
		c0.2,2.8-0.4,4.2-3.4,3.8C12.2,45.3,5.8,46,0,50z M189.4,64.6c0.1,0.5,0.3,0.9,0.4,1.4c10.8-1.6,21.5-3.8,28.7-13.3
		c4.4-5.7,4.9-12.3,1.8-18.9c-3.1-6.6-9.2-8.8-16-9c-2.6-0.1-5.3,0.5-7.9,0.5c-1.4,0-2.9-0.6-4.3-1c0.9-1.6,1.3-3.8,2.6-4.6
		c2.7-1.6,5.9-2.2,8.7-3.8c1.3-0.8,2-2.7,2.9-4.1c-1.8,0.1-3.7-0.2-5.3,0.3c-2.2,0.7-4.2,2.1-7.2,3.6c0.5-4.7,2-8.5,0.8-11.2
		C193.1,1,189,1.4,185,2.8c4.2,3.6,5.8,9.5,3,13.2c-3.8,4.9-8.9,1.6-13.6,0.8c1.4,4.6,2.8,5.2,9.6,5.2c1.3,0,3.6,0.8,3.6,1.3
		c0,1.6-0.3,3.7-1.3,4.8c-1.4,1.5-3.6,2.3-5.4,3.6c-6.5,4.5-11.6,10.1-12.6,18.3c-0.7,6.3,3.7,9.5,9.4,7c2.6-1.1,4.8-2.9,7.4-4.1
		c1.3-0.6,3.3-1,4.3-0.4c3.6,2.1,3.8-0.3,4.4-2.7c0.6-2.6,1.3-5.2,2.4-7.6c1.5-3.3,3.6-6.4,4.9-9.8c2.3-5.7,4.4-6.8,9.1-2.7
		c2.6,2.3,4.9,6.1,5.4,9.5c1.3,8.4-4.9,17.2-14.3,21.3C197.5,61.9,193.4,63.2,189.4,64.6z M263.3,13.5c1,4.8,3.5,5.9,8.3,2.9
		c2-1.2,3.8-2.8,5.9-3.8c1.3-0.6,3-0.4,4.6-0.6c-0.4,1.4-0.5,3.2-1.3,4.3c-7.1,8.8-14.4,17.4-21.5,26.2c-1.2,1.4-2,3.3-2.3,5.1
		c-0.1,0.6,2.4,2.4,2.7,2.2c1.7-1.1,3.1-2.6,4.5-4.1c3.2-3.6,5.9-7.7,9.6-10.7c5.3-4.3,14.3-3.9,18.1,0c3.7,3.8,3.7,11.8-0.1,16.7
		c-2,2.6-3.8,3.5-6.8,0.5c-2.3-2.2-5.9-3.5-9.1-4.1c-3.3-0.7-6.4,0.8-6.8,4.8c-0.4,3.8,2,6.3,5.3,6.7c4,0.5,8.4,0.7,12.3-0.2
		c10.5-2.4,15.8-11.1,13.3-20.9c-1.8-7.4-10.2-11-20.1-8.8c-1.2,0.3-2.5,0.3-3.7,0.5c-0.3-0.4-0.7-0.9-1-1.3
		c4.3-4.2,8.5-8.4,12.8-12.6c1.4-1.4,2.7-3,4-4.5c-2.1-1.5-3.9-3.7-6.3-4.4c-1.7-0.5-4,0.7-6.1,1.3C274.2,10.1,269,11.8,263.3,13.5z
		 M540,2c0,8.4-0.1,16.2,0.2,24c0,0.6,3.2,1.6,3.2,1.6c2.8-5,7.6-3,11.7-3.3c2.8-0.2,4.4,1.1,4.3,4.1c0,8.3,0,16.6,0,25
		c0,3.4-1.9,4.7-5.2,4.4c-1.4-0.1-2.8,0.2-4.1,0.3c2,1.9,4.1,2.4,5.9,3.5c5.8,3.4,8.6,2,8.6-4.9c0.1-10.5-0.1-21,0.1-31.4
		c0.1-5.9,1.2-11.9,1-17.7c-0.1-1.8-4.2-5.3-4.9-5C554,5.6,547.6,4.4,540,2z M507.8,2.7c-0.1,0.8-0.4,1.8-0.4,2.8
		c0,17.8-0.1,35.7,0.1,53.5c0,1.6,1.4,3.2,2.1,4.8c0.8-1.6,2.3-3.1,2.4-4.7c0.2-9.3,0-18.7,0.2-28c0.1-2.2,1.1-6.2,2-6.3
		c4-0.4,8.1,0.2,12,0.8c1.5,0.2,2.8,1.5,4.2,2.3c0.5-1.5,1.2-3,1.4-4.5c0.7-5.5,1.3-11,1.6-16.6c0.1-1.1-1.2-2.7-2.3-3.4
		c-1-0.7-2.6-0.8-3.9-0.6c-2.2,0.3-4.4,1.4-6.6,1.4C516.5,4,512.4,3.3,507.8,2.7z M108.3,2.9c-0.4,0.5-0.9,1.1-1.3,1.6
		c5.1,2.7,3.4,5.6,1.1,8.7c-2.5,3.3-5.1,6.6-7.5,10c-5.2,7.5-4.9,10.4-0.2,18.1c4,6.6,7.1,13.8,10.7,20.6c0.8,1.5,2.5,2.4,3.8,3.6
		c0.9-1.9,2.8-4.1,2.3-5.7c-0.9-3.4-2.7-6.8-4.7-9.8c-2.5-3.7-5.5-7.1-8.3-10.6c-4.8-5.9-4.9-9.1,0.2-14.8c3.6-4.1,7.5-8,11.5-11.7
		c3.1-2.8,2.7-5.3-0.3-7.3C113.5,4.2,110.8,3.8,108.3,2.9z M522.8,33.9c0,5.9-0.1,12.6,0.1,19.2c0,1.2,1.2,2.4,1.8,3.5
		c1-1.1,2.8-2.1,2.9-3.2c0.1-3.4,1.9-4.3,4.8-4.2c2.7,0.1,5.4-0.2,8,0.1c1.4,0.2,2.6,1.4,3.8,2.3c0.9,0.7,1.7,1.5,2.5,2.3
		c0.8-1.1,2.2-2.1,2.4-3.3c0.4-2.8,0.2-5.6,0.2-8.5c0-2.6,0.8-5.7-0.3-7.8c-2.3-4.4-5,0.5-7.5,0.4C535.5,34.5,529.6,34.2,522.8,33.9
		z M347.8,35.9c-5.1,8.5-2.6,17,5.1,20c9.8,3.8,19.9,2.9,30,1.4c1.3-0.2,2.3-2,3.4-3.1c-1.2-1.2-2.3-2.8-3.8-3.5
		c-1-0.5-2.5,0.2-3.8,0.5c-7.2,1.8-14.4,2.7-21.7,0.9c-6.4-1.5-9.3-5.2-9.2-11.7C347.8,39.4,347.8,38.3,347.8,35.9z M351,10.1
		c-0.3,0.3-0.7,0.7-1,1c1,1.7,1.7,3.6,3,4.9c1.6,1.5,3.7,2.4,5.9,3.8c-1.7,2-3,3.5-3.9,4.6c6.2-1.6,12.4-3.1,18.5-4.7
		c1-0.3,2.7-1.3,2.6-1.5c-0.4-1.3-1-3.1-2-3.6c-1.4-0.6-3.3-0.6-4.8-0.2C362.6,15.9,356.2,16.1,351,10.1z M378.3,9.2
		c-0.2,0.5-0.5,1-0.7,1.6c1.9,2,3.6,4.2,5.7,6c0.8,0.7,2.3,0.5,3.5,0.7c0-1.3,0.5-3.4-0.2-3.8C384,11.8,381.1,10.6,378.3,9.2z
		 M385,5.8c-0.2,0.6-0.4,1.1-0.7,1.7c1.9,1.8,3.6,3.7,5.7,5.3c0.9,0.7,2.5,0.5,3.7,0.7c-0.2-1.3,0.1-3.4-0.6-3.8
		C390.6,8.1,387.7,7,385,5.8z"/>
	<path d="M474,0c1.1,1.6,2.3,3.2,3.9,5.5c-6,0.6-11.4,0.9-16.7,1.8c-1.6,0.3-3,2.1-4.5,3.3c1.7,0.9,3.4,2.7,5.1,2.7
		c4.6,0,9.6,1.4,13.5-3c1.8-2.1,4.3-0.3,6.1,4.2c-3.8,0.7-8.8,0.2-10.9,2.5c-2.4,2.6-1.9,7.6,1.2,9.8c-0.7,3.7-1.4,6.6-1.7,9.6
		c-0.3,3.3,0.1,6.7-0.1,10c-0.3,5.6-1,11,6.6,12.6c1.1,0.2,1.5,3.4,2.3,5.3c-1.8-0.1-3.9,0.5-5.5-0.3c-6.7-3.2-13.1-7.2-19.9-10
		c-2.8-1.2-6.5-0.2-11-0.2c1.9,2.2,2.9,3.4,4.5,5.3c-9.2,1.8-17.3,6.1-26.7,4.3c4-1.6,8-3.1,11.2-4.3c0-12.1,0-23.2,0-34.7
		c1.3,0.1,2.9,0.2,4.7,0.3c0.2-1.2,0.5-2.3,0.5-3.4c0-2.4,0.6-5.3-3.1-5.8c-3.4-0.5-4.2,1.7-4.8,4.4c-1.3,5.2-4.7,8.5-10,10.4
		c6.8-7.9,6.1-17.3,5.5-26.7C431.5,4.6,437.8,5,443,0c1,0,2,0,3,0c0.6,1.6,1.3,3.2,2.1,5.5c-2.1,0.4-3.8,0.9-5.5,1.1
		c-3.3,0.3-6.7,0.3-9.9,0.9c-1.1,0.2-2.7,1.6-2.7,2.6c-0.1,1.1,1.2,3.1,2.1,3.2c2.9,0.3,7,1,8.7-0.5c3.8-3.4,6.8-2.7,10.9,0.5
		c0.3-4.1,0.5-7.3,0.7-10.8c7.1,2.8,13.1,1.4,18.7-2.5C472,0,473,0,474,0z M450,44.2c-3.6,0-7.3-0.3-10.9,0.2
		c-1.2,0.1-3.1,2.1-3.1,3.2c0,1.3,1.5,3.8,2.5,3.9c7.8,0.4,15.6,0.5,23.3,0.2c1.2,0,3.2-2.5,3.2-3.9c0.1-1.1-2.2-3.1-3.6-3.3
		C457.7,43.9,453.8,44.2,450,44.2z M450.1,42.2C450.1,42.1,450.1,42.1,450.1,42.2c4,0,8,0.2,11.9-0.2c1.2-0.1,2.2-1.8,3.3-2.8
		c-1.1-1.1-2.2-3.1-3.3-3.2c-7.6-0.3-15.2-0.3-22.8,0c-1.2,0-2.3,2-3.4,3c1.2,1,2.2,2.8,3.5,3C442.8,42.4,446.5,42.2,450.1,42.2z
		 M450.1,33.8C450.1,33.8,450.1,33.8,450.1,33.8c4,0,8,0.2,11.9-0.2c1.2-0.1,2.2-1.9,3.2-2.9c-1.1-1-2.1-2.7-3.3-2.7
		c-7.6-0.3-15.3-0.3-22.9-0.1c-1.1,0-2.2,1.7-3.3,2.6c1.1,1.1,2.1,3,3.4,3.1C442.8,34.1,446.4,33.8,450.1,33.8z M464.3,25.3
		c0-2.4,0.2-4.4-0.1-6.3c-0.2-1.3-1.1-3.3-1.9-3.4c-1.8-0.3-4.4-0.2-5.4,0.9c-2.2,2.3-3.5,5.4-5.6,8.8
		C455.8,25.3,459.8,25.3,464.3,25.3z M450.7,15.9c-8.4-2-9.1-1.3-9.3,9.5C447.3,25.4,450.5,22.2,450.7,15.9z"/>
	<path d="M0,50c5.8-4,12.2-4.7,19-3.9c3,0.4,3.6-1,3.4-3.8c-0.7-9-0.8-18-1.8-26.9c-0.3-3-2.5-5.7-4.3-9.5C18,4.1,21,4.6,24.1,6.3
		c3.1,1.7,3.3,4.2,2.1,7.2c-0.3,0.7-0.3,1.6-0.4,2.5c-0.6,6.2,0.6,7.1,6.7,5.3c1.7-0.5,3.6-1.7,5.2-1.4c1.7,0.3,3.1,2,4.7,3
		c-1.5,1-2.9,2.5-4.4,2.8c-2.6,0.5-5.3,0.4-8,0c-3.6-0.5-4.5,1.1-4.2,4.2c0.2,2.5,0.3,5,0.4,7.5c0.4,6.6,2.3,11.8,9.9,13.3
		c2.2,0.5,4.5,2.4,6,4.2c0.9,1.1,0.4,3.4,0.5,5.1c-1.6-0.3-3.6,0-4.8-0.9c-2.9-2.1-5.4-4.7-8.1-7.1C20.9,64.5,13.3,65.3,0,56
		C0,54,0,52,0,50z M13.4,48.5c-1.8,0.4-4.2,0.6-6.2,1.6c-2.7,1.3-2.9,3.4-0.6,5.6c3.2,3,10.7,3.5,14,0.6c1.2-1.1,2-3,2.2-4.7
		c0.1-0.6-2.1-1.7-3.4-2.1C17.6,48.9,15.7,48.8,13.4,48.5z"/>
	<path class="st0" d="M471,0c-5.6,3.9-11.6,5.2-18.7,2.5c-0.2,3.5-0.4,6.7-0.7,10.8c-4.1-3.2-7.1-3.9-10.9-0.5
		c-1.7,1.5-5.8,0.8-8.7,0.5c-0.8-0.1-2.1-2.2-2.1-3.2c0.1-1,1.7-2.4,2.7-2.6c3.3-0.6,6.6-0.5,9.9-0.9c1.7-0.2,3.4-0.7,5.5-1.1
		c-0.9-2.2-1.5-3.9-2.1-5.5C454.3,0,462.7,0,471,0z"/>
	<path d="M189.4,64.6c4-1.4,8.1-2.6,12-4.3c9.4-4,15.6-12.8,14.3-21.3c-0.5-3.4-2.8-7.2-5.4-9.5c-4.7-4.1-6.9-3-9.1,2.7
		c-1.3,3.4-3.5,6.4-4.9,9.8c-1.1,2.4-1.8,5-2.4,7.6c-0.6,2.4-0.8,4.8-4.4,2.7c-1-0.6-3-0.2-4.3,0.4c-2.6,1.2-4.8,3-7.4,4.1
		c-5.8,2.5-10.2-0.6-9.4-7c0.9-8.2,6.1-13.8,12.6-18.3c1.8-1.2,4-2,5.4-3.6c1-1.1,1.4-3.2,1.3-4.8c0-0.5-2.4-1.3-3.6-1.3
		c-6.8,0-8.2-0.6-9.6-5.2c4.7,0.9,9.9,4.1,13.6-0.8c2.8-3.7,1.2-9.6-3-13.2c4-1.4,8-1.8,9.7,1.9c1.2,2.6-0.4,6.5-0.8,11.2
		c3-1.6,5-2.9,7.2-3.6c1.6-0.5,3.5-0.2,5.3-0.3c-1,1.4-1.6,3.4-2.9,4.1c-2.7,1.5-6,2.1-8.7,3.8c-1.3,0.8-1.8,3-2.6,4.6
		c1.4,0.3,2.9,0.9,4.3,1c2.6,0,5.3-0.6,7.9-0.5c6.9,0.2,12.9,2.4,16,9c3.1,6.5,2.6,13.1-1.8,18.9c-7.3,9.5-17.9,11.7-28.7,13.3
		C189.7,65.5,189.6,65,189.4,64.6z M188.1,31.9c-7.7,2.1-14.6,10.3-14.6,16.6c0,1.3,1.1,3.3,2.1,3.8c3,1.3,12.1-4.2,12.4-7.5
		C188.4,40.7,188.1,36.6,188.1,31.9z M191.5,39.5c0.8,0.2,1.6,0.3,2.4,0.5c1.8-3.7,3.6-7.3,5.4-11c-0.4-0.5-0.7-0.9-1.1-1.4
		c-1.8,0.6-4.9,0.8-5.3,1.9C191.8,32.7,191.9,36.2,191.5,39.5z"/>
	<path d="M263.3,13.5c5.7-1.8,10.9-3.4,16.1-5c2-0.6,4.3-1.8,6.1-1.3c2.3,0.7,4.2,2.9,6.3,4.4c-1.3,1.5-2.6,3.1-4,4.5
		c-4.2,4.2-8.5,8.4-12.8,12.6c0.3,0.4,0.7,0.9,1,1.3c1.2-0.2,2.5-0.2,3.7-0.5c10-2.2,18.3,1.5,20.1,8.8c2.5,9.9-2.8,18.6-13.3,20.9
		c-3.9,0.9-8.3,0.7-12.3,0.2c-3.3-0.4-5.7-3-5.3-6.7c0.4-4,3.5-5.5,6.8-4.8c3.2,0.7,6.8,1.9,9.1,4.1c3,3,4.8,2.1,6.8-0.5
		c3.8-4.9,3.8-12.9,0.1-16.7c-3.8-3.9-12.7-4.3-18.1,0c-3.7,3-6.4,7.1-9.6,10.7c-1.4,1.5-2.8,3-4.5,4.1c-0.3,0.2-2.8-1.6-2.7-2.2
		c0.4-1.8,1.2-3.7,2.3-5.1c7.1-8.8,14.4-17.4,21.5-26.2c0.9-1.1,0.9-2.8,1.3-4.3c-1.5,0.2-3.2,0-4.6,0.6c-2.1,1-3.9,2.5-5.9,3.8
		C266.8,19.4,264.4,18.3,263.3,13.5z M276.9,50.1c-0.7-0.3-1.4-0.6-2-0.9c-0.6,1.3-2,3.1-1.6,3.7c1,1.5,2.8,2.8,4.5,3.5
		c0.6,0.3,2-1.2,3-1.9C279.5,53,278.2,51.5,276.9,50.1z"/>
	<path d="M540,2c7.6,2.4,14,3.6,20.7,0.4c0.8-0.4,4.9,3.1,4.9,5c0.3,5.9-0.8,11.8-1,17.7c-0.2,10.5,0,21-0.1,31.4
		c-0.1,6.9-2.9,8.3-8.6,4.9c-1.8-1.1-3.9-1.6-5.9-3.5c1.4-0.1,2.8-0.5,4.1-0.3c3.3,0.3,5.2-0.9,5.2-4.4c0-8.3,0-16.6,0-25
		c0-3-1.5-4.3-4.3-4.1c-4.1,0.3-8.9-1.7-11.7,3.3c0,0.1-3.2-1-3.2-1.6C539.9,18.2,540,10.4,540,2z M551.7,13.3
		C551.7,13.3,551.7,13.4,551.7,13.3c1.2,0.1,2.6,0.5,3.4,0c1.6-0.9,2.8-2.4,4.2-3.7c-1.3-1.1-2.5-2.9-4-3.3c-2.4-0.5-5-0.5-7.4,0
		c-1.2,0.3-3.1,2.1-3,3c0.1,1.4,1.5,3,2.8,3.8C548.7,13.8,550.3,13.3,551.7,13.3z M551.6,22.1C551.6,22.1,551.6,22.1,551.6,22.1
		c1.3,0,2.8,0.4,3.9-0.1c1.4-0.6,2.5-1.9,3.7-2.9c-1.2-1.3-2.2-3.4-3.5-3.7c-2.7-0.6-5.7-0.4-8.4,0.1c-1.1,0.2-2.6,2.2-2.5,3.4
		c0,1.1,1.6,2.5,2.8,3.1C548.8,22.5,550.3,22.1,551.6,22.1z"/>
	<path d="M507.8,2.7c4.6,0.5,8.7,1.2,12.7,1.3c2.2,0.1,4.4-1.1,6.6-1.4c1.3-0.2,2.9-0.1,3.9,0.6c1.1,0.7,2.4,2.3,2.3,3.4
		c-0.3,5.5-0.9,11.1-1.6,16.6c-0.2,1.5-0.9,3-1.4,4.5c-1.4-0.8-2.7-2-4.2-2.3c-4-0.6-8.1-1.1-12-0.8c-0.9,0.1-1.9,4.1-2,6.3
		c-0.2,9.3,0,18.7-0.2,28c0,1.6-1.5,3.2-2.4,4.7c-0.7-1.6-2.1-3.2-2.1-4.8c-0.2-17.8-0.1-35.7-0.1-53.5
		C507.4,4.5,507.7,3.6,507.8,2.7z M518.8,13.5c1.8,0,3.2,0.4,4-0.1c1.5-1,2.6-2.6,3.9-3.9c-1.3-1.1-2.5-2.9-4-3.2
		c-2.6-0.5-5.3-0.3-7.9,0.1c-1,0.2-2.6,1.9-2.5,2.9c0,1.3,1.1,3.1,2.2,3.8C515.8,13.7,517.7,13.4,518.8,13.5z M518.9,22.1
		c1.8,0,3.3,0.4,4.4-0.1c1.3-0.6,3.2-2.1,3.2-3.1c0-1.3-1.6-2.8-2.9-3.6c-1-0.6-2.6-0.4-3.9-0.2c-2.9,0.4-7.5-1.6-7.5,3.7
		C512.2,24.2,516.8,21.3,518.9,22.1z"/>
	<path d="M108.3,2.9c2.5,0.9,5.2,1.3,7.4,2.7c3,2,3.4,4.5,0.3,7.3c-4,3.7-7.9,7.6-11.5,11.7c-5.1,5.7-5,9-0.2,14.8
		c2.8,3.5,5.9,6.8,8.3,10.6c2,3,3.8,6.3,4.7,9.8c0.4,1.6-1.5,3.8-2.3,5.7c-1.3-1.2-3-2.2-3.8-3.6c-3.7-6.8-6.8-14-10.7-20.6
		c-4.6-7.7-5-10.7,0.2-18.1c2.4-3.4,5-6.7,7.5-10c2.3-3,4-6-1.1-8.7C107.4,4,107.9,3.5,108.3,2.9z"/>
	<path d="M522.8,33.9c6.8,0.3,12.7,0.6,18.6,0.9c2.6,0.1,5.3-4.8,7.5-0.4c1.1,2.1,0.3,5.2,0.3,7.8c0,2.8,0.2,5.7-0.2,8.5
		c-0.2,1.2-1.5,2.2-2.4,3.3c-0.8-0.8-1.6-1.7-2.5-2.3c-1.2-0.9-2.5-2.1-3.8-2.3c-2.6-0.4-5.3-0.1-8-0.1c-2.9-0.1-4.7,0.8-4.8,4.2
		c0,1.1-1.9,2.2-2.9,3.2c-0.6-1.2-1.8-2.3-1.8-3.5C522.7,46.4,522.8,39.8,522.8,33.9z M535.8,47.5c3.2-1,8.5,2.5,8.6-4.8
		c0.1-4.8-1.5-6.8-6.3-6.2c-1.3,0.2-2.6,0-4,0c-6.2,0-6.7,0.6-6.4,6.7C527.9,49.9,532.9,46.5,535.8,47.5z"/>
	<path d="M347.8,35.9c0,2.4,0,3.5,0,4.7c-0.1,6.5,2.9,10.1,9.2,11.7c7.3,1.8,14.5,0.9,21.7-0.9c1.3-0.3,2.8-1,3.8-0.5
		c1.5,0.7,2.5,2.3,3.8,3.5c-1.1,1.1-2.1,2.9-3.4,3.1c-10.1,1.5-20.2,2.4-30-1.4C345.3,52.9,342.7,44.4,347.8,35.9z"/>
	<path d="M351,10.1c5.2,6,11.6,5.8,18.3,4.3c1.6-0.3,3.5-0.4,4.8,0.2c1,0.5,1.6,2.3,2,3.6c0.1,0.2-1.6,1.3-2.6,1.5
		c-6.2,1.6-12.3,3.1-18.5,4.7c0.9-1.1,2.2-2.6,3.9-4.6c-2.2-1.4-4.3-2.3-5.9-3.8c-1.3-1.3-2-3.3-3-4.9
		C350.4,10.8,350.7,10.4,351,10.1z"/>
	<path d="M378.3,9.2c2.8,1.4,5.7,2.6,8.2,4.3c0.6,0.4,0.1,2.5,0.2,3.8c-1.2-0.2-2.7,0-3.5-0.7c-2.1-1.8-3.8-3.9-5.7-6
		C377.8,10.2,378.1,9.7,378.3,9.2z"/>
	<path d="M385,5.8c2.7,1.2,5.6,2.3,8.1,3.9c0.7,0.5,0.4,2.5,0.6,3.8c-1.3-0.2-2.8,0-3.7-0.7c-2.1-1.5-3.8-3.5-5.7-5.3
		C384.5,6.9,384.7,6.4,385,5.8z"/>
	<path class="st0" d="M450,44.2c3.8,0,7.7-0.3,11.4,0.2c1.4,0.2,3.7,2.2,3.6,3.3c-0.1,1.4-2,3.9-3.2,3.9c-7.8,0.3-15.6,0.2-23.3-0.2
		c-1,0-2.6-2.6-2.5-3.9c0-1.2,1.9-3.1,3.1-3.2C442.7,43.9,446.4,44.2,450,44.2z"/>
	<path class="st0" d="M450.1,42.2c-3.6,0-7.3,0.3-10.9-0.1c-1.3-0.1-2.3-1.9-3.5-3c1.1-1.1,2.2-3,3.4-3c7.6-0.3,15.2-0.3,22.8,0
		c1.2,0,2.2,2.1,3.3,3.2c-1.1,1-2.1,2.7-3.3,2.8C458.1,42.3,454.1,42.1,450.1,42.2C450.1,42.1,450.1,42.1,450.1,42.2z"/>
	<path class="st0" d="M450.1,33.8c-3.6,0-7.3,0.3-10.9-0.2c-1.2-0.1-2.3-2-3.4-3.1c1.1-0.9,2.2-2.6,3.3-2.6
		c7.6-0.2,15.3-0.2,22.9,0.1c1.1,0,2.2,1.8,3.3,2.7c-1.1,1-2.1,2.8-3.2,2.9C458.1,34,454.1,33.8,450.1,33.8
		C450.1,33.8,450.1,33.8,450.1,33.8z"/>
	<path class="st0" d="M464.3,25.3c-4.5,0-8.4,0-13,0c2.1-3.4,3.4-6.5,5.6-8.8c1-1.1,3.7-1.2,5.4-0.9c0.8,0.1,1.7,2.2,1.9,3.4
		C464.5,20.9,464.3,22.9,464.3,25.3z"/>
	<path class="st0" d="M450.7,15.9c-0.2,6.2-3.4,9.5-9.3,9.5C441.6,14.7,442.4,13.9,450.7,15.9z"/>
	<path class="st0" d="M13.4,48.5c2.4,0.4,4.2,0.4,6,1c1.3,0.4,3.5,1.5,3.4,2.1c-0.2,1.6-1,3.6-2.2,4.7c-3.2,2.9-10.7,2.4-14-0.6
		c-2.3-2.1-2.1-4.3,0.6-5.6C9.2,49.1,11.6,48.9,13.4,48.5z"/>
	<path class="st0" d="M188.1,31.9c0,4.7,0.3,8.8-0.1,12.9c-0.3,3.3-9.4,8.7-12.4,7.5c-1.1-0.5-2.1-2.5-2.1-3.8
		C173.4,42.2,180.3,34,188.1,31.9z"/>
	<path class="st0" d="M191.5,39.5c0.4-3.4,0.3-6.9,1.4-10c0.4-1.1,3.5-1.3,5.3-1.9c0.4,0.5,0.7,0.9,1.1,1.4c-1.8,3.7-3.6,7.3-5.4,11
		C193.1,39.9,192.3,39.7,191.5,39.5z"/>
	<path class="st0" d="M276.9,50.1c1.3,1.5,2.6,3,3.9,4.5c-1,0.7-2.4,2.1-3,1.9c-1.7-0.7-3.4-2-4.5-3.5c-0.4-0.6,1-2.5,1.6-3.7
		C275.6,49.4,276.3,49.7,276.9,50.1z"/>
	<path class="st0" d="M551.7,13.3c-1.3,0-3,0.5-3.9-0.1c-1.3-0.8-2.7-2.4-2.8-3.8c-0.1-0.9,1.8-2.7,3-3c2.4-0.5,5.1-0.6,7.4,0
		c1.5,0.3,2.7,2.1,4,3.3c-1.4,1.3-2.6,2.8-4.2,3.7C554.2,13.8,552.8,13.4,551.7,13.3C551.7,13.4,551.7,13.3,551.7,13.3z"/>
	<path class="st0" d="M551.6,22.1c-1.3,0-2.9,0.4-3.9-0.1c-1.2-0.6-2.8-2-2.8-3.1c0-1.2,1.4-3.2,2.5-3.4c2.7-0.5,5.7-0.7,8.4-0.1
		c1.4,0.3,2.4,2.4,3.5,3.7c-1.2,1-2.3,2.3-3.7,2.9C554.5,22.5,553,22.1,551.6,22.1C551.6,22.1,551.6,22.1,551.6,22.1z"/>
	<path class="st0" d="M518.8,13.5c-1.1-0.1-3,0.3-4.3-0.4c-1.1-0.6-2.2-2.4-2.2-3.8c0-1,1.5-2.7,2.5-2.9c2.6-0.4,5.4-0.6,7.9-0.1
		c1.5,0.3,2.7,2.1,4,3.2c-1.3,1.3-2.4,2.9-3.9,3.9C522,13.9,520.6,13.5,518.8,13.5z"/>
	<path class="st0" d="M518.9,22.1c-2.1-0.8-6.7,2-6.8-3.3c0-5.3,4.6-3.3,7.5-3.7c1.3-0.2,2.9-0.4,3.9,0.2c1.3,0.8,2.9,2.3,2.9,3.6
		c0,1-1.9,2.5-3.2,3.1C522.2,22.6,520.7,22.1,518.9,22.1z"/>
	<path class="st0" d="M535.8,47.5c-2.9-1-7.8,2.3-8.1-4.2c-0.2-6.2,0.2-6.8,6.4-6.7c1.3,0,2.7,0.1,4,0c4.8-0.6,6.3,1.4,6.3,6.2
		C544.3,50,539,46.6,535.8,47.5z"/>
</g>
</svg>
