<svg xmlns="http://www.w3.org/2000/svg" xmlns:xlink="http://www.w3.org/1999/xlink" width="818" height="192" viewBox="0 0 409 96">
  <defs>
    <style>
      .cls-1 {
        fill: #fff;
        fill-rule: evenodd;
        filter: url(#filter);
      }
    </style>
    <filter id="filter" x="543" y="484" width="409" height="96" filterUnits="userSpaceOnUse">
      <feOffset result="offset" in="SourceAlpha"/>
      <feGaussianBlur result="blur" stdDeviation="4.583"/>
      <feFlood result="flood" flood-color="#4f4f4f" flood-opacity="0.5"/>
      <feComposite result="composite" operator="in" in2="blur"/>
      <feBlend result="blend" in="SourceGraphic"/>
    </filter>
  </defs>
  <path id="料金_チケット" data-name="料金・チケット" class="cls-1" d="M579.035,527.258h9.99a0.6,0.6,0,0,0,.7-0.594,1.517,1.517,0,0,0-.54-0.918l-3.672-2.862-2.538,2.916h-3.942V510.518l2-.756a0.8,0.8,0,0,0,.54-0.7c0-.54-0.378-0.756-1.62-0.972l-3.78-.594V525.8h-3.348c-3.348,0-3.618,0-7.236-.216l1.242,1.836c3.186-.108,4.482-0.162,5.994-0.162h3.348v0.918c-1.188,4.482-5.832,12.475-10.26,17.821a1.808,1.808,0,0,0-.648,1.08,0.4,0.4,0,0,0,.432.432c1.242,0,6.48-6.372,10.476-12.69v20.358c0,0.7.108,0.972,0.486,0.972a3.343,3.343,0,0,0,1.674-.756,1.416,1.416,0,0,0,.7-1.458V532.983a12.258,12.258,0,0,1,5.994,4.86c0.7,0.972,1.134,1.3,1.62,1.3,0.756,0,1.242-.756,1.242-1.89,0-2.268-2.376-3.726-8.856-5.4v-4.59Zm-12.528-14.364c2.106,3.51,2.484,4.644,2.862,8.424,0.216,1.4.54,1.89,1.3,1.89,0.972,0,1.62-.972,1.62-2.376a8.475,8.475,0,0,0-1.674-4.752c-0.756-1.134-1.458-1.782-3.726-3.564Zm15.336,10.746c1.242-1.674,3.672-5.292,5.238-7.938l1.134-.27a0.706,0.706,0,0,0,.7-0.648,0.733,0.733,0,0,0-.378-0.594l-3.456-1.728a95.587,95.587,0,0,1-3.942,10.8Zm21.762,12.205-9.018,2.97c-3.78,1.3-5.238,1.728-10.152,3.24l2,1.3c6.858-2.592,6.966-2.592,8.316-3.078l8.856-2.97v17.226a0.5,0.5,0,0,0,.54.486,2.039,2.039,0,0,0,2.106-1.62V536.439l9.5-3.24a0.688,0.688,0,0,0,.486-0.595,1.752,1.752,0,0,0-1.026-1.134l-3.672-2.106-1.782,4.429-3.51,1.188V510.356l1.4-.918a0.964,0.964,0,0,0,.486-0.648,0.716,0.716,0,0,0-.7-0.54l-3.834-.918v28.513ZM590,511.922c2.376,1.4,3.78,3.024,5.346,6.264a1.371,1.371,0,0,0,1.3,1.026,1.783,1.783,0,0,0,1.566-1.944c0-2.484-2.754-4.644-7.776-5.994Zm0.27,14.364c2.376,1.944,3.24,3.078,4.05,5.4,0.7,1.729.972,2.107,1.62,2.107a1.778,1.778,0,0,0,1.674-2c0-1.458-.81-2.646-2.754-4.05a12.878,12.878,0,0,0-4.32-2.052Zm55.782-17.064a0.664,0.664,0,0,0,.378-0.594A0.651,0.651,0,0,0,646,507.98l-4.266-1.242c-3.186,8.478-11.61,19.764-20.2,27.163-1.836,1.512-1.836,1.512-1.836,1.836a0.465,0.465,0,0,0,.432.432c0.7,0,5.076-3.348,7.992-6.049,5.184-4.806,9.666-10.26,16.146-19.44a68.922,68.922,0,0,0,21.924,20.466c0.81-1.89,1.4-2.43,3.834-3.4-9.666-3.024-19.278-10.1-24.678-18.2Zm-22.572,44.227c4.536-.216,6.534-0.27,9.072-0.27h35.208a0.843,0.843,0,0,0,.864-0.81,1.192,1.192,0,0,0-.54-0.918l-3.942-3.294-3.348,3.564H645.779V536.007h17.01a0.417,0.417,0,0,0,.378-0.432,0.613,0.613,0,0,0-.162-0.432l-3.726-3.727-2.754,3.133H645.779v-7.561h8.8a0.63,0.63,0,0,0,.486-0.7,0.774,0.774,0,0,0-.27-0.594l-3.51-3.024-2.16,2.862h-7.722c-2.214,0-3.564-.054-7.236-0.216l1.566,1.836c4.374-.162,4.428-0.162,5.67-0.162h1.674v7.561h-7.236c-2.646,0-4.59-.054-9.4-0.27l1.836,1.944c3.4-.162,4.752-0.216,7.56-0.216h7.236v15.714h-10.53c-3.24,0-5.292-.054-10.638-0.27Zm5.022-15.228a20.37,20.37,0,0,1,4.86,9.45c0.324,1.89.7,2.43,1.566,2.43,0.972,0,1.62-.972,1.62-2.43,0-3.51-2.268-6.534-7.56-9.99Zm21.114,12.042c3.618-3.4,5.292-5.13,8.532-8.586l1.35-.108a0.555,0.555,0,0,0,.54-0.594,0.678,0.678,0,0,0-.324-0.594l-3.672-2.484a46.172,46.172,0,0,1-7.02,11.88Zm49.3-23.869a4.564,4.564,0,1,0,4.482,4.536A4.553,4.553,0,0,0,698.915,526.394Zm57.348-5.562,0.594-.54a0.856,0.856,0,0,0,.54-0.756,0.985,0.985,0,0,0-.864-0.756l-1.566-.27c0.54-.216,1.08-0.324,1.3-0.432,0.81-.27,1.674-0.54,2.538-0.81,1.674-.594,2.646-0.918,2.862-0.972,0.432-.162.756-0.27,1.242-0.432l1.3,0.162a4.2,4.2,0,0,0,.7.054,0.76,0.76,0,0,0,.864-0.648c0-.756-0.162-0.918-3.132-2.592-1.728-.972-2.052-1.08-3.024-1.08-0.594,0-.81.108-0.81,0.378a0.508,0.508,0,0,0,.486.432,0.778,0.778,0,0,1,.594.432c0,0.54-3.618,2.268-7.992,3.834a72.49,72.49,0,0,1-15.714,3.726c-1.08.108-1.566,0.378-1.566,0.918,0,0.432.432,0.648,1.242,0.648,3.024,0,11.988-1.62,17.064-3.078v0.432a64.019,64.019,0,0,1,.324,7.29l-2.862.27-3.4.27c-7.344.7-7.83,0.756-9.288,0.756-2.808,0-3.51-.27-4.7-1.782a0.95,0.95,0,0,0-.7.972,3.158,3.158,0,0,0,1.4,2.214,14.632,14.632,0,0,0,3.4,2.214,1.674,1.674,0,0,0,.594-0.27c0.918-.648,1.08-0.7,4.1-1.242a102.551,102.551,0,0,1,11.5-1.512c-0.054,10.315-3.888,16.525-13.554,21.871a0.875,0.875,0,0,0-.594.756,0.648,0.648,0,0,0,.594.648c1.4,0,6.8-3.294,9.342-5.724,4.806-4.536,6.8-9.5,7.182-17.875a65.742,65.742,0,0,1,6.912-.324,42.682,42.682,0,0,1,8.37.54,7.931,7.931,0,0,0,1.4.162,0.988,0.988,0,0,0,1.08-.81c0-.918-3.294-3.132-4.59-3.132a3.942,3.942,0,0,0-1.4.432,3.6,3.6,0,0,1-1.134.486,15.113,15.113,0,0,1-1.566.108c-0.486.054-1.674,0.162-3.4,0.324-1.89.162-3.24,0.27-5.67,0.432v-5.724Zm41.8-9.4,0.324,0.108,0.27,0.108c1.35,0.594,1.674.972,1.674,1.944,0,1.188-1.836,6.21-3.4,9.342a36.674,36.674,0,0,1-8.8,11.881c-0.864.756-1.188,1.188-1.188,1.674a0.5,0.5,0,0,0,.54.486q1.134,0,4.212-2.916c2.808-2.7,3.726-3.889,7.722-9.829a3.612,3.612,0,0,0,2.484,1.62,3.376,3.376,0,0,0,.756-0.216c0.864-.378,2.754-0.7,7.614-1.35,1.08,0.486,1.4.864,1.4,1.566,0,1.674-2.106,7.561-3.888,10.747a35.643,35.643,0,0,1-12.312,13.608c-1.242.81-1.512,1.026-1.512,1.458a0.664,0.664,0,0,0,.7.594,3.2,3.2,0,0,0,1.512-.594c4.1-2.376,4.1-2.376,6.426-4.428a41.458,41.458,0,0,0,10.8-16.255c0.27-.648.54-1.35,0.81-2.052l0.216-.432a0.853,0.853,0,0,1,.918-0.486c0.81-.054,1.35-0.378,1.35-0.864,0-.81-0.378-1.134-3.672-3.132a38.367,38.367,0,0,1,5.778-.324,30.8,30.8,0,0,1,6.318.432,10.309,10.309,0,0,0,1.08.108,0.8,0.8,0,0,0,.864-0.756c0-.648-0.54-1.3-1.62-2a9.238,9.238,0,0,0-3.186-1.458,2.247,2.247,0,0,0-.972.324c-1.35.81-1.512,0.864-3.672,1.026-2.16.108-5.832,0.54-11.772,1.458a22.4,22.4,0,0,1-3.564.486,3.805,3.805,0,0,1-2.214-.648c0.864-1.62,1.08-2.106,3.078-6.21,0.378-.864.432-0.918,0.918-1.026,0.864-.216,1.242-0.486,1.242-0.864,0-1.458-3.834-4.158-5.886-4.158a1.18,1.18,0,0,0-1.3.81Zm48.06,15.984c2.538,1.836,3.456,2.97,4.374,5.617,0.594,1.674.972,2.106,1.782,2.106a1.783,1.783,0,0,0,1.566-1.944c0-2.431-2.376-4.7-6.75-6.427l-0.216-.054-0.27-.108ZM870.2,524.4l0.27,0.162c1.026,0.7,1.242.972,1.242,1.62,0,1.62-2.376,6.534-4.968,10.423-4.266,6.21-9.666,10.368-17.6,13.5-1.3.54-1.4,0.594-1.4,1.026a0.707,0.707,0,0,0,.648.7,41.68,41.68,0,0,0,7.182-2.646,38.4,38.4,0,0,0,12.744-9.936c1.944-2.43,3.078-4.32,5.724-9.667l0.486-.918a0.779,0.779,0,0,1,.81-0.324c0.756,0.054,1.188-.216,1.188-0.7a4.719,4.719,0,0,0-2-2.538,11.713,11.713,0,0,0-3.78-1.4,0.618,0.618,0,0,0-.648.648Zm-16.146-.108,0.216,0.054,0.27,0.162a9.349,9.349,0,0,1,4.59,4.968c0.648,1.566.918,1.89,1.62,1.89a1.763,1.763,0,0,0,1.566-1.89,4.875,4.875,0,0,0-2.106-3.618,21.943,21.943,0,0,0-4.914-2.43l-0.378-.108a2.739,2.739,0,0,1-.486-0.108Zm52.164-12.312,0.216,0.108,0.378,0.216c2.538,1.35,2.7,1.512,2.7,3.51l-0.054,1.89c-0.054,3.456-.108,4.428-0.054,11.232l-0.162,8.371c0,7.668,0,7.992-.486,10.1a5.482,5.482,0,0,0-.27,1.566c0,1.512,1.134,3.132,2.16,3.132,0.972,0,1.512-.918,1.512-2.592,0-.54,0-0.54-0.108-2.376V533.253c0-.757,0-1.513.108-5.077,5.346,1.62,9.072,3.888,12.1,7.345,1.458,1.728,2,2.106,2.916,2.106a1.4,1.4,0,0,0,1.35-1.458c0-3.727-6.642-7.615-16.362-9.451l0.054-1.728,0.054-2.592c0.162-3.024.162-3.294,0.216-5.778a1.7,1.7,0,0,1,.054-0.7c0-.216.108-0.27,0.54-0.432a1.085,1.085,0,0,0,.972-0.918c0-.594-0.486-1.134-1.728-1.89-2.052-1.242-3.024-1.566-4.536-1.566a7.748,7.748,0,0,0-1.4.108Z" transform="translate(-543 -484)"/>
</svg>
