<svg xmlns="http://www.w3.org/2000/svg" viewBox="0 0 356.27 49.84"><defs><style>.cls-1{fill:#fff;}</style></defs><g id="Layer_2" data-name="Layer 2"><g id="Layer_1-2" data-name="Layer 1"><path class="cls-1" d="M8.17,22.83c-1.41,0-1.41,0-6.7.16L.93,21.32c4.38.21,5.73.21,7.24.21h3.29V.74L15.73,1a1.17,1.17,0,0,1,1.13,1.08c0,.33-.21.65-.7,1l-1.3,1V21.53H18l2.7-3.35,3.83,3.24a1.11,1.11,0,0,1,.43.81.66.66,0,0,1-.7.6h-9.4v4.86c3.19.81,4.43,1.4,5.78,2.59a4.73,4.73,0,0,1,1.62,3.35,1.82,1.82,0,0,1-1.89,1.94c-1,0-1.51-.54-2.54-2.75a9.23,9.23,0,0,0-3-3.89V47.72c0,.92-1.13,1.62-2.7,1.62-.48,0-.7-.16-.7-.48V32a63.79,63.79,0,0,1-8.64,10.1C1.74,43.24,1.2,43.62.88,43.62a.37.37,0,0,1-.38-.38c0-.16,0-.16,1.94-2.7A54.86,54.86,0,0,0,11.3,22.83ZM2.28,7c4.05,3.13,5.83,6.1,5.83,9.72,0,1.95-.81,3.19-2.1,3.19a1.57,1.57,0,0,1-1.14-.43c-.59-.65-.59-.65-.75-5.13A12.63,12.63,0,0,0,1.8,7.65Zm22.14,1.3a1,1,0,0,1,.49.81.82.82,0,0,1-.49.81l-1.56.38A71.2,71.2,0,0,1,18.05,18c-.22.27-.49.65-.59.81a1,1,0,0,1-.65.49.47.47,0,0,1-.38-.43,1.22,1.22,0,0,1,.16-.49,18.25,18.25,0,0,0,1-2.81c.54-1.78,1.51-4.91,2.81-9.39ZM38.62.85l4.86.38a1.06,1.06,0,0,1,.87,1.08,1.19,1.19,0,0,1-.65,1l-1.46.81.06,27.11,2.32-.59,2.21-4.75,3.57,3.4a1.27,1.27,0,0,1,.37.75.64.64,0,0,1-.48.65l-8,2V47.45c0,.81-1.25,1.51-2.7,1.51-.6,0-1-.37-1-1.08V33.63l-7,1.83c-3.46.92-5.89,1.68-11.4,3.41l-1.13-1.95c5.83-1.29,8.05-1.83,12-2.81l7.5-1.94ZM26.47,19.59A14.28,14.28,0,0,1,31.39,22c1.83,1.4,2.86,3,2.86,4.43A2.55,2.55,0,0,1,32,29c-1,0-1,0-2.27-3.84a11.88,11.88,0,0,0-3.34-4.8ZM28,8.09c3,.81,4.26,1.35,5.72,2.43a5.36,5.36,0,0,1,2.54,4.21,2.3,2.3,0,0,1-2.16,2.43A1.6,1.6,0,0,1,33,16.73c-.38-.44-.38-.44-1.73-4a7.75,7.75,0,0,0-3.46-4Z"/><path class="cls-1" d="M12.16,49.84c-1.11,0-1.2-.75-1.2-1V33.58a65,65,0,0,1-7.79,8.89C2,43.67,1.4,44.12.88,44.12A.87.87,0,0,1,0,43.24c0-.33,0-.33,2.05-3a55.63,55.63,0,0,0,8.59-16.91H8.17c-1.4,0-1.4,0-6.68.16H1.11L.23,20.78l.73,0C5.32,21,6.64,21,8.17,21H11V.21l4.8.3a1.68,1.68,0,0,1,1.6,1.58,1.73,1.73,0,0,1-.92,1.39l-1.08.81V21h2.4l2.87-3.56L24.85,21a1.61,1.61,0,0,1,.61,1.19,1.15,1.15,0,0,1-1.2,1.1h-8.9v4c2.92.76,4.21,1.37,5.61,2.61a5.16,5.16,0,0,1,1.79,3.72A2.34,2.34,0,0,1,21.09,36c4.34-1,6.44-1.48,9.91-2.34l7.12-1.85V.31l5.4.42a1.56,1.56,0,0,1,1.33,1.58A1.73,1.73,0,0,1,44,3.77l-1.21.67,0,26.17,1.47-.38,2.41-5.17L50.74,29a1.74,1.74,0,0,1,.53,1.11,1.14,1.14,0,0,1-.88,1.14L42.8,33.1V47.45c0,1.11-1.44,2-3.2,2a1.44,1.44,0,0,1-1.48-1.58V34.28L31.79,36c-3.44.91-5.83,1.65-11.38,3.39l-.38.12-1.68-2.88.67-.15L20.79,36a2.77,2.77,0,0,1-.42,0c-1.42,0-2-1-3-3a7.88,7.88,0,0,0-2-3V47.72C15.36,49,14,49.84,12.16,49.84Zm-.2-1h.2c1.22,0,2.2-.5,2.2-1.12V22.33h9.9a.22.22,0,0,0,.2-.1.6.6,0,0,0-.24-.41L20.76,18.9,18.24,22H14.36V3.79l1.5-1.13c.33-.21.5-.42.5-.57a.67.67,0,0,0-.67-.58L12,1.27V22H8.17c-1.46,0-2.72,0-6.54-.18l.2.63c4.93-.15,5-.15,6.34-.15H12l-.17.63A55.64,55.64,0,0,1,2.85,40.83c-.76,1-1.25,1.64-1.54,2a13.38,13.38,0,0,0,1.15-1.1,63.43,63.43,0,0,0,8.59-10L12,30.41ZM39.12,33v14.9c0,.52.24.58.48.58,1.32,0,2.2-.6,2.2-1V32.32l8.37-2.09a.17.17,0,0,0,.1-.17.76.76,0,0,0-.23-.4l-3-2.91-2,4.33-3.17.82-.06-28,1.72-1a.73.73,0,0,0,.39-.59.57.57,0,0,0-.42-.58l-4.31-.34V32.56l-7.88,2c-3.84.95-6,1.47-11.33,2.66l.58,1c5.3-1.66,7.66-2.39,11-3.29ZM14.79,28.19l.41.37a10,10,0,0,1,3.09,4.05c1,2.24,1.41,2.46,2.08,2.46a1.32,1.32,0,0,0,1.39-1.44,4.27,4.27,0,0,0-1.45-3C19,29.5,17.75,28.94,14.79,28.19ZM32,29.54c-1.33,0-1.41-.24-2.74-4.18A11.27,11.27,0,0,0,26,20.78l-.21-.18.23-1.68.58.19a15.06,15.06,0,0,1,5.05,2.51c2,1.51,3.06,3.22,3.06,4.83A3,3,0,0,1,32,29.54Zm-5-9.23A12.47,12.47,0,0,1,30.18,25c1.19,3.52,1.19,3.52,1.8,3.52a2.06,2.06,0,0,0,1.77-2.09c0-1.29-1-2.72-2.67-4A12.53,12.53,0,0,0,27,20.31ZM6,20.36a2,2,0,0,1-1.53-.62c-.69-.76-.7-.85-.86-5.43A12.14,12.14,0,0,0,1.39,8l-.21-.29,1-1.43.42.33c4.16,3.22,6,6.34,6,10.11C8.61,18.91,7.59,20.36,6,20.36ZM2.46,7.73a13.27,13.27,0,0,1,2.16,6.52c.15,4.33.15,4.33.62,4.84a1.12,1.12,0,0,0,.77.27c1.18,0,1.6-1.39,1.6-2.69C7.61,13.38,6,10.61,2.46,7.73ZM16.81,19.82a1,1,0,0,1-.88-.93,1.57,1.57,0,0,1,.22-.71,19.42,19.42,0,0,0,1-2.75l.33-1.08C18,12.49,18.88,9.73,20,6.06l.16-.59,4.57,2.35a1.5,1.5,0,0,1,.73,1.24,1.29,1.29,0,0,1-.89,1.3l-1.34.32a71.13,71.13,0,0,1-4.72,7.63c-.23.28-.48.64-.59.8A1.4,1.4,0,0,1,16.81,19.82Zm3.93-12.9c-1,3.38-1.77,6-2.31,7.72l-.33,1.1a27.94,27.94,0,0,1-1,2.65c.14-.2.34-.47.51-.68A71.53,71.53,0,0,0,22.42,10l.11-.19,1.77-.43a.5.5,0,0,0,.11-.32.52.52,0,0,0-.23-.38ZM34.09,17.66a2.1,2.1,0,0,1-1.44-.58c-.46-.52-.46-.52-1.84-4.12a7.22,7.22,0,0,0-3.25-3.75L27.26,9l.36-1.55.5.13c3,.82,4.36,1.38,5.89,2.52a5.86,5.86,0,0,1,2.74,4.61A2.82,2.82,0,0,1,34.09,17.66ZM28.78,8.82a8.18,8.18,0,0,1,3,3.76C33.06,16,33.06,16,33.38,16.4a1.15,1.15,0,0,0,.71.26,1.82,1.82,0,0,0,1.66-1.93,4.9,4.9,0,0,0-2.33-3.8A12.65,12.65,0,0,0,28.78,8.82Z"/><path class="cls-1" d="M82,2.52a1,1,0,0,1,.65.87.75.75,0,0,1-.38.65l-.65.37c4.48,7.46,11.88,12.37,23.06,15.39-.49.33-.92.6-1,.65l-1.45.81A11,11,0,0,0,100,23.69c-9.83-4.8-16.2-10.91-20.2-19.22A55.08,55.08,0,0,1,65.62,20.56c-3.34,2.65-8.85,6-9.77,6a.37.37,0,0,1-.38-.37c0-.38,0-.38,2-1.79A59.31,59.31,0,0,0,77,.63ZM77.45,31H66c-2,0-3.83.06-8.64.22l-.54-1.78c2.22,0,4.43.1,5.08.16,2.05.05,3.45.11,4.1.11H77.45V22.13H73.62c-2.27,0-3.35.05-6.48.16l-.6-1.68,3.94.17c1.35,0,2.49,0,3.19,0H84.58l2.86-3.4,4,3.18a1,1,0,0,1,.43.81.71.71,0,0,1-.59.71H81.12v7.56H93l3.4-4,4.7,3.73a1.38,1.38,0,0,1,.33.81.77.77,0,0,1-.65.75H81.12v14.8H85.5a88.52,88.52,0,0,0,5.4-13l4.15,2.1c.54.27.81.6.81.92a1.28,1.28,0,0,1-1,1.08l-1.29.49-6.32,8.37h7.83l3.72-3.94,5,4a.93.93,0,0,1,.21.6c0,.32-.21.64-.43.64H66.27c-.65,0-2.32.06-4.8.11-.71.06-2.81.11-5,.16l-.76-1.83,5.67.16,5,.11H77.45ZM63.14,33.36a13.29,13.29,0,0,1,5.13,2.81A7.58,7.58,0,0,1,71,41.46c0,1.67-1,2.92-2.32,2.92a1.82,1.82,0,0,1-1.46-.71c-.22-.38-.22-.38-.92-4.05A9.66,9.66,0,0,0,62.6,34Z"/><path class="cls-1" d="M56.17,47.85,55,45l6.44.18,4.95.11H77V31.48H66c-2,0-3.89.06-8.62.22H57l-.85-2.81.85,0c2.21,0,4.3.11,4.95.16l2,.06,2.06.05H77V22.63H73.62c-1.88,0-2.93,0-5,.11l-1.8.06-.7-2-.16.13c-2.91,2.29-8.82,6.09-10.08,6.09a.87.87,0,0,1-.88-.87c0-.64.08-.7,2.15-2.19A59,59,0,0,0,76.56.43L76.75,0l5.49,2.06a1.49,1.49,0,0,1,1,1.33,1.21,1.21,0,0,1-.66,1.09l-.18.11c4.44,7.1,11.61,11.79,22.5,14.73l1.07.29-.92.61c-.41.27-.92.6-1.08.68l-1.44.8a12.11,12.11,0,0,0-2.12,2.3l-.25.32-.36-.18c-9.55-4.67-15.94-10.6-20-18.63A55.22,55.22,0,0,1,67,20.13l3.53.15c1.35,0,2.47,0,3.17,0H84.35l3-3.59,4.43,3.48a1.42,1.42,0,0,1,.62,1.2,1.21,1.21,0,0,1-1.09,1.21H81.62v6.56H92.77L96.34,25l5.07,4a1.89,1.89,0,0,1,.52,1.21,1.26,1.26,0,0,1-1.15,1.25H81.62v13.8h3.56a84.12,84.12,0,0,0,5.24-12.62l.18-.55,4.68,2.37c.9.45,1.08,1,1.08,1.36a1.76,1.76,0,0,1-1.3,1.55l-1.15.44-5.63,7.45h6.61l3.9-4.12,5.38,4.28a1.37,1.37,0,0,1,.4,1,1.08,1.08,0,0,1-.93,1.14H66.27l-2.06,0-2.73.06c-.68.06-2.65.11-5,.16ZM56.5,46l.33.81c2.08-.06,4-.11,4.6-.16l2.75-.06,2.09,0h37.26a.29.29,0,0,0,0-.14.34.34,0,0,0-.07-.24l-4.62-3.68-3.56,3.77h-9l7-9.29,1.43-.53c.42-.16.64-.43.64-.62s-.11-.26-.53-.47l-3.64-1.84A90,90,0,0,1,86,46l-.14.29H80.62V30.48h20.16a.34.34,0,0,0,.15-.25.93.93,0,0,0-.18-.46l-4.28-3.39-3.24,3.81H80.62V21.63H91.33a.41.41,0,0,0,.09-.21.47.47,0,0,0-.19-.38l-3.72-2.92-2.7,3.21H73.67c-.71,0-1.85,0-3.21,0l-3.2-.14.22.64,1.08,0c2.11-.08,3.17-.11,5.06-.11H78v8.56H66l-2.09-.05-2-.06c-.59,0-2.46-.1-4.38-.15l.23.76c4.46-.15,6.26-.21,8.27-.21H78v15.8H66.38l-5-.11ZM77.28,1.27A60.18,60.18,0,0,1,57.7,24.8c-.79.58-1.34,1-1.59,1.19a51.3,51.3,0,0,0,9.2-5.82,54.69,54.69,0,0,0,14-16l.48-.82.4.85c3.91,8.13,10.14,14.12,19.61,18.82A9.4,9.4,0,0,1,102,20.83l1.46-.81.06,0c-10.77-3.1-17.87-8-22.28-15.32L81,4.24l1.09-.64a.26.26,0,0,0,.13-.21.48.48,0,0,0-.34-.4ZM68.65,44.88A2.31,2.31,0,0,1,66.79,44c-.29-.5-.29-.5-1-4.25a9.16,9.16,0,0,0-3.49-5.32l-.41-.32L63,32.77l.32.12a14,14,0,0,1,5.3,2.9,8,8,0,0,1,2.87,5.67C71.47,43.41,70.26,44.88,68.65,44.88ZM63.33,34a10.05,10.05,0,0,1,3.43,5.54c.69,3.62.69,3.62.86,3.92a1.32,1.32,0,0,0,1,.46c1,0,1.82-1,1.82-2.42a7.1,7.1,0,0,0-2.54-4.92A12.36,12.36,0,0,0,63.33,34Z"/><path class="cls-1" d="M138,25.15a4.59,4.59,0,1,1-4.53-4.59A4.58,4.58,0,0,1,138,25.15Z"/><path class="cls-1" d="M133.39,30.24a5.09,5.09,0,1,1,5.09-5.09A5.13,5.13,0,0,1,133.39,30.24Zm.06-9.18a4.09,4.09,0,1,0-.06,8.18,4.09,4.09,0,0,0,.06-8.18Z"/><path class="cls-1" d="M200.35,20.88l3.78-1.56c3.51,1.83,4.65,2.75,4.65,3.83,0,.6-.76,1.14-1.51,1.14a7.9,7.9,0,0,1-1.41-.17,43.26,43.26,0,0,0-7.45-.59c-2.21,0-3.56,0-8.53.32-.7,12.53-4.54,18.2-15.61,22.9a6.22,6.22,0,0,0-.92.38,1.81,1.81,0,0,1-.43.11.48.48,0,0,1-.48-.38c.05-.27.27-.49,1-.92,9-4.81,12.58-10.91,13.12-21.87-7.18.49-13.71,1.62-14.63,2.43a3.23,3.23,0,0,1-1,.38c-.6,0-1.89-.87-3.46-2.32-1.35-1.19-1.51-1.41-1.51-1.95a7.63,7.63,0,0,1,.76-2.1l.37.32c2.06,1.94,2.38,2.11,3.89,2.11a32.62,32.62,0,0,0,3.4-.22l12.26-.92c-.11-5.67-.11-6.26-.27-8.1-7.83,1.68-9,2-13.34,2.76a17.57,17.57,0,0,1-3.4.59c-.48,0-.75-.22-.75-.59s.21-.54,2.59-1.14c3.18-.75,10.37-2.81,15.23-4.43,5.72-1.83,7.93-2.86,7.93-3.45,0-.33-.27-.7-.91-1.3.1-.32.21-.38.54-.38a8,8,0,0,1,3,1c2.59,1.08,3.29,1.67,3.29,2.81,0,.75-.48,1.08-1.67,1.08a6.77,6.77,0,0,0-2.59.43c-2.38.65-4.38,1.19-6.05,1.57a2.79,2.79,0,0,1,.38.27l.32.16c.43.27.6.48.6.75s-.27.71-1,1.25c-.43.32-.54.48-.54,1.35l-.11,5.07Z"/><path class="cls-1" d="M172.92,47.74a1,1,0,0,1-1-.88c.11-.61.51-.92,1.27-1.35,8.59-4.6,12.22-10.49,12.84-20.9-7.57.55-13.1,1.68-13.77,2.27l-.11.07a2.84,2.84,0,0,1-1.19.43c-1,0-2.81-1.54-3.8-2.46-1.29-1.14-1.67-1.5-1.67-2.31a7.22,7.22,0,0,1,.8-2.3l.26-.63.9.77c2,1.92,2.24,2,3.56,2a32.18,32.18,0,0,0,3.36-.22l11.79-.88v-.81c-.08-4-.09-4.92-.2-6.22L183,15c-4.75,1-6.19,1.33-9.81,2a17.16,17.16,0,0,1-3.49.6,1.1,1.1,0,0,1-1.25-1.09c0-.88.39-1,3-1.62,3.18-.76,10.35-2.81,15.19-4.42,6.24-2,7.45-2.78,7.61-3.07a5.6,5.6,0,0,0-.77-.84l-.24-.22.1-.31a.93.93,0,0,1,1-.72,8.32,8.32,0,0,1,3.23,1.08c2.47,1,3.58,1.74,3.58,3.26s-1.63,1.58-2.17,1.58a6.42,6.42,0,0,0-2.45.41c-2,.53-3.54,1-4.93,1.3a1.23,1.23,0,0,1,.54,1c0,.64-.46,1.09-1.24,1.65-.29.22-.33.25-.33,1l-.1,4.54,9.8-.61,3.92-1.62.21.11c3.39,1.77,4.91,2.81,4.91,4.27a1.94,1.94,0,0,1-2,1.64,8.19,8.19,0,0,1-1.51-.18,41.89,41.89,0,0,0-7.35-.58c-2.12,0-3.37,0-8.06.3-.78,12.39-4.83,18.19-15.88,22.88a5.83,5.83,0,0,0-.89.37A2.3,2.3,0,0,1,172.92,47.74Zm14.19-24.21,0,.56c-.55,11.17-4.3,17.42-13.38,22.29l-.27.16c.2-.09.44-.18.68-.26,10.86-4.61,14.57-10.07,15.27-22.45l0-.45.45,0c5.08-.28,6.36-.33,8.56-.33a43.15,43.15,0,0,1,7.54.6,7.4,7.4,0,0,0,1.32.16c.55,0,1-.39,1-.64,0-.79-1.1-1.66-4.17-3.28l-3.72,1.51-11,.69.12-5.62c0-.95.15-1.3.74-1.74s.83-.73.83-.85-.23-.24-.36-.33l-.41-.23-.31-.21-1-.65,1.14-.25c1.63-.37,3.53-.88,6-1.56a7.14,7.14,0,0,1,2.72-.45c1.17,0,1.17-.31,1.17-.58,0-.75-.29-1.23-3-2.35a11.73,11.73,0,0,0-2.51-1,1.81,1.81,0,0,1,.55,1.15c0,.72-.61,1.47-8.28,3.93C182,13,174.83,15.05,171.63,15.81a11.61,11.61,0,0,0-2.24.65.38.38,0,0,0,.29.09A17.87,17.87,0,0,0,173,16c3.61-.67,5.05-1,9.79-2l4.1-.88,0,.57c.15,1.7.16,2.39.25,6.85l0,1.76-12.73.95a33.08,33.08,0,0,1-3.44.22c-1.69,0-2.17-.3-4.07-2.1a6.48,6.48,0,0,0-.45,1.27c0,.3,0,.39,1.34,1.57,1.74,1.62,2.82,2.2,3.13,2.2a4.4,4.4,0,0,0,.7-.3c1.35-1,8.56-2.08,14.87-2.51Z"/><path class="cls-1" d="M257.49,14.4c4.1,2.11,4.59,2.49,4.59,3.62A1.09,1.09,0,0,1,261,19.21c-.33,0-1.14-.11-2-.22a35,35,0,0,0-5-.21,47.31,47.31,0,0,0-4.86.21c1.78,1.25,2.21,1.68,2.21,2.33,0,.48-.32.7-1.18.7-.38,0-.54.11-.76.54-3.83,8.75-7.18,13.5-13.18,19.06-3,2.76-7.07,5.56-8.26,5.62a.47.47,0,0,1-.38-.44c0-.21.22-.43,1.08-1.08,8.75-6.8,14.15-14.85,17.72-26.46a53,53,0,0,0-9.56,1.41c-.81.21-1.3.32-1.35.32-.27,0-.54-.16-1.19-.65s-.76-.54-1.4-.91A57.26,57.26,0,0,1,224.6,29c-1.73,1.67-2.92,2.59-3.35,2.59a.47.47,0,0,1-.43-.43c0-.27.22-.54.81-1.19a42.6,42.6,0,0,0,7-9.13c2.75-4.64,5.83-11.28,5.83-12.69,0-.64-1.24-1.51-3.19-2.16.06-.48.16-.59.6-.86a5.43,5.43,0,0,1,1.78-.7c.7,0,2.32.92,4.59,2.59,1.67,1.3,1.67,1.3,1.67,1.78s-.27.81-1.78,1.51a48.81,48.81,0,0,1-3.94,7.13,5,5,0,0,0,2.16.54c.27,0,1.29-.11,3.67-.32l15.34-1.57Z"/><path class="cls-1" d="M228,47.74a1,1,0,0,1-.9-.94c0-.47.36-.78,1.28-1.48,8.45-6.56,13.81-14.46,17.32-25.52A52.26,52.26,0,0,0,237,21.15a13.13,13.13,0,0,1-1.49.34c-.44,0-.81-.24-1.49-.74l-.16-.12c-.3-.21-.5-.35-.81-.54a56,56,0,0,1-8.11,9.31c-2.81,2.73-3.43,2.73-3.69,2.73a1,1,0,0,1-.93-.93c0-.48.32-.85.94-1.53a42.1,42.1,0,0,0,6.91-9c2.91-4.91,5.76-11.27,5.76-12.44,0-.19-.7-1-2.85-1.68l-.38-.13.05-.4a1.39,1.39,0,0,1,.82-1.23A6,6,0,0,1,233.62,4c.31,0,1.24,0,4.88,2.69,1.78,1.37,1.88,1.45,1.88,2.18,0,.93-.59,1.28-1.91,1.89a51.34,51.34,0,0,1-3.55,6.52,3.58,3.58,0,0,0,1.4.27c.16,0,.73-.05,1.68-.14L240,17.2l15.18-1.55,2.3-1.84.28.15c4.13,2.12,4.87,2.61,4.87,4.06A1.59,1.59,0,0,1,261,19.71c-.32,0-1-.08-1.77-.18l-.29,0a33.08,33.08,0,0,0-4.91-.21c-1.3,0-2.45,0-3.47.1.94.73,1.32,1.22,1.32,1.94s-.56,1.2-1.68,1.2c-.18,0-.18,0-.31.26-3.8,8.66-7.15,13.51-13.29,19.21-2.86,2.66-7.14,5.68-8.58,5.75Zm19.08-29-.21.67C243.32,31,237.81,39.28,229,46.12c-.14.11-.47.35-.69.55,1.29-.44,4.8-2.82,7.6-5.42,6-5.58,9.32-10.35,13.06-18.89a1.22,1.22,0,0,1,1.22-.84c.57,0,.67-.11.67-.11,0-.48-.29-.82-2-2l-1.09-.76,1.33-.14a45.74,45.74,0,0,1,4.91-.22,34.52,34.52,0,0,1,5.06.22l.26,0c.69.08,1.39.17,1.65.17.53,0,.58-.53.58-.69,0-.75-.15-1-4-3l-2,1.61L238.1,18.38c-1.08.1-1.58.14-1.78.14a5.41,5.41,0,0,1-2.36-.58l-.56-.23.35-.51a47.81,47.81,0,0,0,3.9-7.07l.08-.15.16-.08c1.49-.69,1.49-.8,1.49-1.06V8.68a11.45,11.45,0,0,0-1.48-1.22C234.69,5.09,233.77,5,233.62,5a5.47,5.47,0,0,0-1.55.64l-.18.12c1.18.45,3,1.32,3,2.46,0,1.62-3.25,8.47-5.9,13a43.25,43.25,0,0,1-7,9.22c-.16.18-.47.51-.61.71a14.57,14.57,0,0,0,2.87-2.39,56.67,56.67,0,0,0,8.26-9.55l.27-.36.39.23a14.07,14.07,0,0,1,1.26.81l.18.13a2.83,2.83,0,0,0,.9.55s.45-.1,1.22-.31a54.52,54.52,0,0,1,9.67-1.42Z"/><path class="cls-1" d="M280.6,20.34c4.59,1.84,7.18,4.38,7.18,7.13a1.91,1.91,0,0,1-1.89,2.11c-1.08,0-1.35-.38-2.05-2.81a10.09,10.09,0,0,0-3.78-5.67Zm23.49-1.89.32-.16a4.89,4.89,0,0,0,.76-.32,1.78,1.78,0,0,1,.65-.16c1.08,0,4.48,3.56,4.48,4.69,0,.38-.27.6-1.46,1.08a54.33,54.33,0,0,1-6.43,9.94,37.07,37.07,0,0,1-15,11.23,13.21,13.21,0,0,1-2.92,1.08.5.5,0,0,1-.54-.48c0-.33.22-.54,1.13-1a45.49,45.49,0,0,0,8.59-5.51,42.62,42.62,0,0,0,10.15-13.4A14.21,14.21,0,0,0,305.6,21c0-.54-.59-1.29-1.94-2.37Zm-14.85-.75c4.48,1,7.94,4.32,7.94,7.5A1.82,1.82,0,0,1,295.34,27c-1.13,0-1.35-.27-1.94-2.11a12.17,12.17,0,0,0-4.59-6.64Z"/><path class="cls-1" d="M284.54,46.33a1,1,0,0,1-1-1c0-.71.59-1,1.42-1.43a44.3,44.3,0,0,0,8.48-5.44,42.05,42.05,0,0,0,10-13.23A14.32,14.32,0,0,0,305.1,21c0-.17-.17-.71-1.76-2l-.68-.55,1.75-.67s.06-.05.16-.09a3.8,3.8,0,0,1,.4-.19,2.28,2.28,0,0,1,.85-.2c1.35,0,5,3.79,5,5.19,0,.73-.6,1.06-1.59,1.47a55.21,55.21,0,0,1-6.41,9.86,37.45,37.45,0,0,1-15.14,11.38A10.9,10.9,0,0,1,284.54,46.33Zm20.07-27.57c1,.91,1.49,1.62,1.49,2.23a14.94,14.94,0,0,1-1.79,4.72A43,43,0,0,1,294,39.25a46.11,46.11,0,0,1-8.7,5.58c-.69.33-.82.46-.84.5a14.11,14.11,0,0,0,2.76-1A36.6,36.6,0,0,0,302,33.21a54.51,54.51,0,0,0,6.37-9.84l.08-.18.18-.07c.88-.36,1.11-.52,1.15-.59,0-.88-3.17-4.22-4-4.22a1.41,1.41,0,0,0-.47.12l-.35.17A3.25,3.25,0,0,1,304.61,18.76ZM285.89,30.08c-1.49,0-1.84-.78-2.53-3.17a9.59,9.59,0,0,0-3.63-5.43l-.35-.3,1-1.45.36.15c4.84,1.93,7.5,4.63,7.5,7.59A2.4,2.4,0,0,1,285.89,30.08ZM280.73,21a10.21,10.21,0,0,1,3.59,5.61c.71,2.45.89,2.45,1.57,2.45a1.42,1.42,0,0,0,1.39-1.61c0-2.45-2.31-4.76-6.51-6.51Zm14.61,6.52c-1.5,0-1.82-.6-2.42-2.45a11.63,11.63,0,0,0-4.41-6.4l-.4-.29.92-1.26.32.07c4.67,1.07,8.33,4.58,8.33,8A2.32,2.32,0,0,1,295.34,27.54Zm-5.69-9.22a12.61,12.61,0,0,1,4.22,6.46c.57,1.76.67,1.76,1.47,1.76a1.33,1.33,0,0,0,1.34-1.34C296.68,22.36,293.63,19.41,289.65,18.32Z"/><path class="cls-1" d="M335.52,10.14c0-1.68-.06-2-.44-2.43s-.64-.54-3-1.84c1.35-1.19,1.73-1.46,2.16-1.46A14.37,14.37,0,0,1,337.73,6c1.78,1,2.65,1.78,2.65,2.48a2.32,2.32,0,0,1-.65,1.25,3.73,3.73,0,0,0-.54.7A10.22,10.22,0,0,0,339,13l-.32,8.1a31.66,31.66,0,0,1,10.64,3.61c4.21,2.22,6.48,4.59,6.48,6.81A1.77,1.77,0,0,1,354,33.3c-.87,0-1.35-.32-2.27-1.51-2.81-3.78-8.69-8-13-9.29l.1,23.6a1.43,1.43,0,0,1-1.4,1.41,2.89,2.89,0,0,1-2.7-2.43,16.13,16.13,0,0,1,.32-2.11c.06-.22.11-1,.17-1.89l.21-6.48.06-15.55Z"/><path class="cls-1" d="M337.46,48a3.38,3.38,0,0,1-3.2-2.93,15.23,15.23,0,0,1,.33-2.21c.06-.21.12-1.3.16-1.82l.21-6.47L335,10.14c0-1.65-.06-1.78-.33-2.13a15.62,15.62,0,0,0-2.87-1.7L331.19,6l.54-.47c1.36-1.2,1.85-1.59,2.49-1.59A16.11,16.11,0,0,1,338,5.54c2,1.1,2.91,2,2.91,2.92A2.81,2.81,0,0,1,340.1,10a4.62,4.62,0,0,0-.46.59,10,10,0,0,0-.15,2l0,.33-.3,7.65a32.09,32.09,0,0,1,10.35,3.6c4.41,2.32,6.75,4.83,6.75,7.25A2.26,2.26,0,0,1,354,33.8c-1.15,0-1.77-.55-2.66-1.7a30.17,30.17,0,0,0-12.12-8.9l.1,22.9A1.93,1.93,0,0,1,337.46,48ZM332.93,5.78a10.49,10.49,0,0,1,2.51,1.57c.53.68.58,1.1.58,2.79v8.91L336,34.6l-.21,6.5a18,18,0,0,1-.18,2,15.32,15.32,0,0,0-.31,2,2.4,2.4,0,0,0,2.2,1.93.93.93,0,0,0,.9-.91l-.11-24.27.65.2c4.43,1.32,10.38,5.57,13.27,9.47.87,1.11,1.23,1.3,1.87,1.3a1.27,1.27,0,0,0,1.23-1.33c0-2-2.21-4.26-6.22-6.36a30.86,30.86,0,0,0-10.47-3.57l-.45-.06.36-8.9a8.45,8.45,0,0,1,.22-2.33,4,4,0,0,1,.64-.87,2.08,2.08,0,0,0,.53-.92c0-.22-.24-.87-2.39-2a16,16,0,0,0-3.28-1.51C334,4.91,333.72,5.1,332.93,5.78Z"/></g></g></svg>