<svg xmlns="http://www.w3.org/2000/svg" viewBox="0 0 465.1 50"><defs><style>.cls-1{fill:#fff;}</style></defs><g id="レイヤー_2" data-name="レイヤー 2"><g id="レイヤー_1-2" data-name="レイヤー 1"><path class="cls-1" d="M.7,28.78l3.78.16C6.05,29,7.4,29,7.94,29h5.88V21.92l3.51.49c1,.11,1.3.32,1.3.81s-.22.54-1,.92l-1.19.48V29h3.24L22,26.08,25.6,29h8.31V21.76l3.67.65c.6.11.92.43.92.81s-.16.59-.59.7l-1.3.43V29h7.18l2.81-2.92,3.3,2.65a1.49,1.49,0,0,1,.59,1c0,.38-.27.71-.54.71H36.72c3,5.18,8.16,9.77,14.9,13.12a5.62,5.62,0,0,0-2.1,1.13c-.16.16-.54.54-1.41,1.35a44.33,44.33,0,0,1-11.5-13.61V47.63a2.08,2.08,0,0,1-2,2c-.43,0-.65-.33-.65-.92V34C28.62,40.34,25,43.79,19.6,47.52c-.81.54-.92.59-1.19.59a.53.53,0,0,1-.54-.43c0-.32,0-.32,2.11-2A73.11,73.11,0,0,0,33.1,30.46H16.47V33.7c3.73.75,4.21.86,5.29,1.45,1.57.92,2.16,1.68,2.16,2.81a1.26,1.26,0,0,1-1.13,1.41c-.54,0-1-.33-1.68-1.08a12.74,12.74,0,0,0-4.64-3.78V48.39a1,1,0,0,1-.49,1,4.41,4.41,0,0,1-1.67.64c-.32,0-.49-.21-.49-.7V33.8A44.73,44.73,0,0,1,4.27,45.25C2.11,47.2.86,48.11.38,48.11A.46.46,0,0,1,0,47.68c0-.21.22-.48.76-1,3.78-3.29,10.63-12.53,12.09-16.25H7.94c-1.19,0-1.78,0-5.78.16ZM4.75,7.51l5.35.21c1.73.06,3.18.06,4,.06H24.62V0l3.57.7c.54.11.86.33.86.65a.85.85,0,0,1-.54.7l-1.19.6V7.78H39.58l2.59-3L46,7.45c.64.49.86.76.86,1.14s-.27.64-.76.64H27.54c5.24,5.73,11.18,8.7,22.52,11.24-2.86,1.78-3.19,2-3.94,3-9.51-3.84-14.26-6.92-18.8-12.37V21.92c0,.76-1.13,1.62-2.1,1.62a.58.58,0,0,1-.6-.64v-12a68.09,68.09,0,0,1-18,12.2C1.46,25.49,1.3,25.54.86,25.54A.54.54,0,0,1,.32,25c0-.32.27-.54,1.08-1,9.72-5,15.88-9.29,21-14.8H14.09c-.48,0-1.89.06-4,.11-.43.06-1.84.06-3.35.11Z"/><path class="cls-1" d="M74.68,34.72c-2.27,3.51-4,5.29-5.13,5.29-.38,0-.7-.32-1.35-1.18a1.75,1.75,0,0,0-1-.87c-2.38-1-4.11-5.07-4.11-9.5C63.07,17.66,72.85,9,84.94,9c10.64,0,18.74,6.81,18.74,15.77,0,5.83-4,11.34-10.42,14.47-2.76,1.35-8.53,3.14-10.1,3.14a.51.51,0,0,1-.54-.54c0-.38.27-.6,1.24-.87a41.34,41.34,0,0,0,8.86-3.72c5-3.14,7.67-7.56,7.67-13a12.59,12.59,0,0,0-6.81-11.34A21.05,21.05,0,0,0,84,10.53a17,17,0,0,0-2.7.22c1.84,1,3.46,2.53,3.46,3.29,0,.43-.22.7-1.14,1.46C80.19,24.62,77.76,29.86,74.68,34.72Zm5-23.7a17.7,17.7,0,0,0-7.18,3.4,16.25,16.25,0,0,0-6.81,13.66c0,3.24.65,5.51,2.06,7.29a2.8,2.8,0,0,0,1.89,1.3c1.56,0,4-3.73,6.75-10.16C79,20.25,80.73,15,80.73,13.12A2.21,2.21,0,0,0,80,11.34Z"/><path class="cls-1" d="M131.6,1.73c.54.21.81.48.81.86s-.33.65-.76.81l-1.35.43c-3.29,7.56-3.94,8.91-5.07,11.13l1,.59c.49.27.7.54.7.81a1,1,0,0,1-.54.76l-1,.54V47.57c0,.87-1.19,1.73-2.37,1.73-.22,0-.38-.21-.38-.65v-29a15.26,15.26,0,0,0-.92,1.29c-2.75,3.84-5.78,7.29-6.43,7.29a.47.47,0,0,1-.48-.48,1.32,1.32,0,0,1,.43-.87c5.4-6.59,9.34-15.23,12.15-26.73Zm6.05,11.82c-2.92.06-4.59.11-8.27.22l-1.08-1.94c4.86.21,6.59.27,9.35.27h5.72V.54l3.56.49c.87.1,1.25.32,1.25.75s-.22.6-.76.81l-1.19.6V12.1h11.61l2.6-3.3,3.83,3.08c.54.43.75.7.75,1s-.27.64-.86.64H147.37a40.8,40.8,0,0,0,6.48,11.78c3.07,3.83,3.83,4.48,11.39,10.15a9.09,9.09,0,0,0-3.51,2.86A52,52,0,0,1,146.23,14V35.48h4.92l2.26-2.7,3.08,2.7a1.37,1.37,0,0,1,.54.92c0,.32-.27.54-.81.54h-10V47.68c0,.43,0,.65-.27.81a3.4,3.4,0,0,1-1.94.65c-.49,0-.65-.22-.65-.92V36.94H139.7c-.33,0-1.35.05-2.81.1l-3.13.06-1.3-1.78c4.48.1,5.89.16,7.24.16h3.67v-19a65.11,65.11,0,0,1-10.64,17c-2.37,2.75-5,5.29-5.45,5.29a.58.58,0,0,1-.54-.54c0-.38.21-.65,1-1.56,6.65-7.89,11.45-15.83,14.15-23.12Z"/><path class="cls-1" d="M175,31.7a17.73,17.73,0,0,1,1.52,7c0,3-.81,4.7-2.27,4.7A1.21,1.21,0,0,1,173,42.23a2.76,2.76,0,0,1,.43-1.19,15.43,15.43,0,0,0,1.19-6,16.55,16.55,0,0,0-.27-3.24ZM178.9,4.48H190l2.48-2.43,3.08,2.16a1.24,1.24,0,0,1,.65,1c0,.54-.33.76-1.08.76h-9.51v5.24h3.19l1.78-1.84,2.54,1.73a1,1,0,0,1,.43.81c0,.49-.27.76-.81.76h-7.13v4.64H189l2.05-2.05,2.65,1.67c1.08-.81,1.35-1.08,3.13-3.4A50.58,50.58,0,0,0,204.71.86l3.25.92c.59.16.91.38.91.7s-.21.44-.59.65l-1,.54c3.67,5.4,8.32,9.13,15.88,12.69l-1,.38a4.17,4.17,0,0,0-2.48,2.16A37.72,37.72,0,0,1,206.33,4.37a52.06,52.06,0,0,1-8.15,10.53h9.4l2.21-1.83,3,2a.94.94,0,0,1,.49.75c0,.38-.27.54-.92.54h-4.91V22h7.18l.81-1.14,2.64,1.52c.49.27.65.48.65.75s-.16.49-.65.65l-.81.27v8.48c0,.59-1.13,1.4-2,1.4-.22,0-.38-.11-.38-.32v-2h-7a26.92,26.92,0,0,0,14.31,14,6.3,6.3,0,0,0-3.24,3c-4.75-2.48-9.34-8.59-12.64-17-1.51,4.81-2.26,6.43-4,8.64A28.36,28.36,0,0,1,191.75,48a11.86,11.86,0,0,1-3,1.08.38.38,0,0,1-.43-.38c0-.26.21-.43,1.35-1,8.1-4,12.36-8.8,14.26-16H198.4V33.8c0,.54-1.24,1.41-2.06,1.41a.43.43,0,0,1-.48-.38V20.52l3,1.46h6.05V16.36h-6.86l-.59-.65c-2.81,2.6-5.89,5-6.48,5a.37.37,0,0,1-.33-.38c0-.22.17-.43.49-.76l.87-.86h-6.38v5.88h4.22l.91-1.24,3,2c.54.32.75.59.75.92s-.21.43-.75.59l-1,.27-.11,1.35c-.75,9.29-1.24,12.21-2.64,15.28-1,2.11-3.51,4.06-5.35,4.06-.81,0-.81,0-1.4-1.68-.06-.16-.27-.32-.65-.54l-3.13-1.57.1-.81c.71.17,1.19.22,1.41.27l1.67.33a14.2,14.2,0,0,0,2.38.27c2.75,0,3.83-2.54,4.59-10.8.32-3.4.48-5.83.48-7.24h-12V28c0,.38-1.4,1.14-2.21,1.14-.33,0-.38-.11-.38-.65V2.92Zm-1,27.38c2.43,3,3.46,5.08,3.46,7.07,0,1.35-.54,2.11-1.51,2.11-.76,0-1-.43-1-2.11a18.3,18.3,0,0,0-1.56-6.8Zm5.24-20.68V5.94h-5.08v5.24Zm0,6.1V12.64h-5.08v4.64Zm0,7.34V18.74h-5.08v5.88Zm-3,5.78c2.76,1.51,5.19,4.38,5.19,6.16,0,.92-.49,1.62-1.19,1.62-.54,0-.86-.38-1.13-1.3a14.11,14.11,0,0,0-3.19-5.94Zm2.27-1.83c3.19,1.08,5.89,3.4,5.89,5,0,.86-.43,1.51-1,1.51-.43,0-.65-.27-1.24-1.35a16.3,16.3,0,0,0-3.94-4.59Zm21.87,1.62a37.4,37.4,0,0,0,.65-6.75H198.4v6.75Zm10.59,0V23.44h-7.45a37.84,37.84,0,0,1-.76,6.75Z"/><path class="cls-1" d="M236.79,11.29A4.25,4.25,0,0,0,240.46,13a22.23,22.23,0,0,0,3.13-.27l.76-.05,2.75-.22c3.84-.32,6.27-.54,7.19-.59,1.51-.11,2.26-.11,4.1-.16l4.05-.11,1.24,0,1.24-1.41,3.52,2.76a1.66,1.66,0,0,1,.75,1.18c0,.44-.38.71-1,.71H268l-1.08-.11c-2.1,9.18-6.37,15.87-13.39,21-4.59,3.29-12,7.13-13.82,7.13a.73.73,0,0,1-.76-.65c0-.54.49-1,1.62-1.46,6.75-2.75,12.42-6.8,15.88-11.28,3.45-4.16,6.59-11,7.23-15.56H260.5a116.61,116.61,0,0,0-12.21.81c-4.26.49-5.18.71-6.21,1.57-.7.65-.86.7-1.24.7s-.54-.16-1-.48a7.88,7.88,0,0,0-1.56-1.19,4.28,4.28,0,0,1-1.84-1.84A3.13,3.13,0,0,1,236,12.2a2.89,2.89,0,0,1,.16-.81ZM277,7.34a5.22,5.22,0,1,1-5.13-5.18A5.21,5.21,0,0,1,277,7.34Zm-8.86,0a3.65,3.65,0,1,0,3.56-3.61A3.64,3.64,0,0,0,268.11,7.34Z"/><path class="cls-1" d="M285.55,14.63c0-.48.22-.64,1-.64,1.25,0,3.41,1.13,5.13,2.7,3.68-.6,13.18-1.46,16.69-1.57l1.08-1.46,4,2.38a1.58,1.58,0,0,1,.86,1.24c0,.49-.38.81-1.19,1l-.75.16-2.92,11.94.59-.06a3.09,3.09,0,0,1,.49-.05,3.39,3.39,0,0,1,2.65,2.43.86.86,0,0,1-.92.76,6.88,6.88,0,0,1-1.35-.17,16.2,16.2,0,0,0-3.4-.27,116.94,116.94,0,0,0-14.91,1.19l.11,1.68.05.27c.06.81-.43,1.51-1,1.51-.86,0-2.26-1.78-2.26-2.92a9.57,9.57,0,0,1,.05-1.08,16.32,16.32,0,0,0,.11-1.67c0-3-.81-12.42-1.14-13.93s-.75-1.89-2.54-3.14l-.27-.16Zm21.77,14.91c.75-4.38,1-6.32,1.72-12.21-1,0-1.89-.1-2.32-.1a137.58,137.58,0,0,0-15,1.51v.86c.11,5,.16,6.81.6,12.31,4.32-.64,10.15-1.24,14.79-1.45Z"/><path class="cls-1" d="M357.43,10.42,361.32,13c.43.33.64.6.64.92s-.37.76-1,.81L359.7,15a62.34,62.34,0,0,1-10.59,17.22A52.45,52.45,0,0,1,335.67,42.5a22.37,22.37,0,0,1-4.54,2,.7.7,0,0,1-.65-.65c0-.49,0-.49,2.38-1.78a49,49,0,0,0,23.38-27.81c-.59-.06-1.19-.06-1.3-.06a47.81,47.81,0,0,0-8.58.81,1.71,1.71,0,0,1-.49.06,1.05,1.05,0,0,1-.81-.38,34.18,34.18,0,0,1-9,10.64c-2.43,2.05-4.42,3.4-5.13,3.4a.64.64,0,0,1-.59-.6c0-.37.38-.81,1.4-1.62a39.8,39.8,0,0,0,9.07-9.93c2-3.19,3.57-6.75,3.57-8.1,0-.92-.59-1.46-2.38-2.11.17-.75.49-1,1.3-1,1.19,0,1.89.27,3.78,1.46,1.62,1,1.78,1.24,1.78,1.73s-.27.7-.81.86-.49.27-.81,1.08a20.56,20.56,0,0,1-1.08,2.27l.6-.06,1.88-.16c2.22-.16,4.49-.38,4.81-.38l2-.1.81-.06Zm.54-4.8.32.1.27.11c4,1.3,6.64,3.73,6.64,6.05a1.46,1.46,0,0,1-1.29,1.57c-.81,0-1.24-.44-1.84-1.73a15.07,15.07,0,0,0-4.43-5.24l-.16-.11Zm3.29-3.41a.87.87,0,0,0,.33.06l.27,0c4.26.92,7.29,3.24,7.29,5.51A1.17,1.17,0,0,1,368,9.13c-.7,0-1.24-.38-2-1.62a12.92,12.92,0,0,0-5-4.49Z"/><path class="cls-1" d="M409.43,16,413,18.2a1.53,1.53,0,0,1,.92,1.24c0,.49-.43.81-1.19.81l-1,.05a51.39,51.39,0,0,1-14.09,19.12c-3.73,3.13-10.1,6.75-11.88,6.75a.54.54,0,0,1-.54-.48c0-.49.38-.82,1.4-1.3A43.85,43.85,0,0,0,408,19.6c-8.15.11-21.17,1.73-22.19,2.86a1.85,1.85,0,0,1-.7.27c-.49,0-1.36-.7-3-2.32a4.07,4.07,0,0,1-1.29-2.7c0-.38.21-.54.75-.54,1.36,1.68,2.11,2.16,3.24,2.16.82,0,4-.27,7.57-.65,7.18-.75,12.2-1.18,16-1.35ZM385.29,7c.7,1.24,1.3,1.67,2.38,1.67a20.07,20.07,0,0,0,2.1-.16c2.16-.16,4.76-.32,7.83-.48l4.32-.22L404,7.67a2.28,2.28,0,0,0,.91-.16c.11,0,.27-.22.6-.49a1.87,1.87,0,0,1,1.08-.54,8.06,8.06,0,0,1,3.24,1.46,2,2,0,0,1,.81,1.19c0,.64-.81,1-2.05,1a11.79,11.79,0,0,1-1.19-.05c-1.3-.06-2.49-.11-3.3-.11-6.48,0-13.77.81-15.12,1.62a1.86,1.86,0,0,1-.75.38c-.22,0-.6-.27-1.89-1.35-1.52-1.24-1.84-1.78-1.84-3,0-.48.16-.59.6-.59h.21Z"/><path class="cls-1" d="M450,21.38a40.22,40.22,0,0,1,6.21,3.89c5.08,4.05,8.91,9.83,8.91,13.45a1.87,1.87,0,0,1-1.67,2c-.7,0-1.14-.54-1.89-2.54a32.18,32.18,0,0,0-2.38-4.92c-9.18,2.43-16.79,4.22-23,5.35-3.13.65-3.24.7-3.78,1.57-.32.48-.65.75-.86.75a4,4,0,0,1-1.78-1.35c-1.52-1.62-2.43-3.29-2.43-4.48a1.13,1.13,0,0,1,1-1.24c.7,1.67,1.08,2,2.27,2a45.38,45.38,0,0,0,5.18-.44c4.05-8.74,9.13-22.14,9.13-24.13,0-1.25-.81-2-3.14-3,.11-.81.27-1,.92-1,2.54,0,7,3.24,7,5.13,0,.49-.38.76-1.35,1.13a1.12,1.12,0,0,0-.54.44,17,17,0,0,1-.7,1.62c-2.92,6.91-3.95,9-8.64,18.3l-.65,1.41c8-1.08,13.61-2.06,20.47-3.57a43.4,43.4,0,0,0-8.92-9.88Z"/></g></g></svg>