<svg id="Layer_1" data-name="Layer 1" xmlns="http://www.w3.org/2000/svg" viewBox="0 0 539 34"><title>forest-enjoy-subtext</title><path d="M278,.1Q406.44.1,534.89,0c3.42,0,4.22.65,4.1,4.06-.31,8.75-.27,17.52,0,26.27.09,3-.6,3.57-3.58,3.56q-87.47-.16-174.94-.08H273a2.18,2.18,0,0,1-.4-1.39c.48-2.81-1.15-6.69,1.65-8.19,2.3-1.23,4.27,2.31,6.6,3.37,2.16,1,4,3,6.85,1.87-4.16-1.25-8.63-1.68-11-5.95,2.51-3.49,6.47-1,9.48-2.3.56-1.06,0-2.12,0-3.16-.08-3.58-3.58-3.43-5.52-5a2.66,2.66,0,0,1-.22-2.05,13.26,13.26,0,0,1,5.64-5.26c.62-2.1.62-2.08-1.6-2.13C281.73,3.56,278.57,4.15,278,.1Z" transform="translate(0 0)" fill="#fefefe"/><path d="M278,.1c1.76,2.45,4.08,3,6.94,2.18,1.22-.34,2.86-.7,3.63.67,1,1.73.17,3.16-1.51,4.11-1.21-1.34-2.43-1.48-3.58,0s-2.33,2.63-3.32,4.09c-1.88.17-2-1.26-2.08-2.47-.14-1.58-.57-2.77-2.43-2.83-1.86-2.5-3.74-1.53-5.61,0-1.94.49-1.74,2.06-1.85,3.51-.14,1.77-.08,3.69-2.44,4.22-1.83,1.31-4.13,1.88-6.57,4.41,2.95-1.93,4.72-3.55,7-4.35,1.91,1.86,3.39,4.13,5.54,5.77a2.37,2.37,0,0,1-.77,1.89c-2.67,1.39-5.52.12-7.95.58,1.54.31,3.7-.72,5.2,1.2-.38,4.36-4.75,4.48-6.6,6.43a57.82,57.82,0,0,0,6-3.77C270.24,24,272,24.6,272.13,28c.1,1.95.61,3.92-.14,5.85H136c-.57-3.28,1.66-4,4.12-4.14,3.63-.22,7.3-.51,10.87.3,2.13.48,2.67-.35,2.66-2.19s.13-3.93.1-5.9c0-1.59-1-1.88-2.32-1.74-2.09,0-4.21.4-6.14-.75-1.35-1.86.29-2.8,1.23-4,3.4-1.95,6.57-5.64,10.82-1.37,1-9.73,1-9.73-8.14-9.72a49.65,49.65,0,0,1-6-.16c-3.66-.55-7.3.41-10.91.18-.09.6.37.91.66,1.31,1.52,1.89,2.64,4,4.1,5.95a1.68,1.68,0,0,1,.06,1.32c-1.29,1.42-3.38,1.16-5,2.3.94.1,1.49-.46,2.15-.71,6.51-2.45,5.36-3.22,8,3.72a1.69,1.69,0,0,1-.68,1.23,7.17,7.17,0,0,1-3.59.69c-2.29-.33-2.68,1-2.79,2.9-.23,3.58.61,7.18-.3,10.74h-37a1,1,0,0,1,0-1.27c2.47-1.33,5.36-1.88,7.47-3.85,3-2.76,5.71-3,8.4.38a3.25,3.25,0,0,0,2.74,1.17c-6.44-5.94-6.7-10.91-1-20.11-2.25.49-4.51,1.81-6.33,0-2.09-2,.21-4.35-.08-7.11-1.76,2.73-1.22,5.77-2.8,8-4.79,1.2-5.31.69-4.46-4.41a7.51,7.51,0,0,0-4.31-.41c-2.06.2-2-1.74-3-2.58C94,4.54,94,5.61,93.23,6.34c-1.08.83-2.31.65-3.64.53,1.4.35,3,0,3.92,1.28a2.9,2.9,0,0,1,0,2.73c-.66.77-1.44,1.21-3.25.73,2,.64,3.62.3,4.22,2a2.63,2.63,0,0,1-.43,1.86c-1,1.62-5,.18-3.79,3.24-.19,1-.14.82.28.54,2-1.32,4.18-5,6.42-1.91,1.44,2-1.83,4.74-3.31,6.93-.63.92-2.16.68-3.46,1.21,1.62.23,3.5-.78,4.39,1.14.52,1.12.59,2.6-.43,3.19-2.53,1.45,1,2.74-.09,4h-69a3.19,3.19,0,0,1-.41-1.89c.18-6.51.79-6.87,6.47-3.43-1.73-2.22-5-3-5-5.95,0-1.95,2.35-1.29,4.31-2.35-4.67,1.18-5.69-1.09-5.8-4.34A2,2,0,0,1,26,14.33c.94-.34,1.95.05,3.56-.54-2.73-1.42-5.39-2.06-7.49-3.63-1.25-.93-3.54-1.88-1-3.92,3.24-.18,6.5-.62,9.65.38-3.86-1.32-8,0-11.89-.81C17.59,5,17,2.55,14.87,5.21c-1.54,1.92-4.39.51-6.47.84-.13,0-.11,0-.11,0,3.57,0,5.41.89,2.49,4.41a13.44,13.44,0,0,1-3.73,3.18c-.85.49-.74.78.61,1.6a4.71,4.71,0,0,1,.11,4.26c-.07,1.18-2.81.6-1.51,3.21S3.88,28.82.1,29.84C.1,21.08.26,12.32,0,3.57-.08.6.61,0,3.59,0Q85.07.19,166.53.1Z" transform="translate(0 0)" fill="#fefefe"/><path d="M93,11V8.09a1.65,1.65,0,0,1,0-2.18c0-1.14.07-2.29.06-3.43C93,1,93.94.94,95,1.15c.76.15,2.08.26,1.69,1.23-2.47,6.13,3.92.44,4,3,1.09-1.9,2.39-1.54,3.45-.12,1.19,1.61-.83,1.75-1.46,2.45a2.2,2.2,0,0,0-.44,2.69c.92,1.09,2.45.42,3.73.44a1.65,1.65,0,0,1-.25,2.53c-1.94,1.23-4.13.49-6.55.76,1.75.43,3.11.87,3.37,2.59.06,1.92-2,2.47-2.62,4,.69,1.58,3.06-.18,3.56,1.75a2.1,2.1,0,0,1-1.43,2.29,5.64,5.64,0,0,0-4,5.46c-.11,1.85-1.62,2.68-3,3.54h-1c-.16-2.27-3-1.72-3.72-3.35.36-.95,1.15-.65,1.68-.6,1.84.16,2.39-.7,2.14-2.34-.39-2.58-2-1-2.94-.69-1.5.54-3.12,2.05-3.8-.58-.75-2.92,2-1.95,3.21-2.13,2.13-.3,4-.34,3.59-3.28-.32-2.06,2.84-1,2.7-3.24-2-1.28-3.34.18-4.82,1.37S89.36,21.78,87,22.24c.24-2.21,2.6-2.61,3.12-4.32-.16-1.79-2.69.41-2.79-1.75,2.34-.67,5.43.67,7-2.2C95,12.48,92.14,12.53,93,11Z" transform="translate(0 0)" fill="#3a3a3a"/><path d="M25.17,15.55c.65.24,1.83.07,1.22,1.36-.43.9-1.07,1.9-.14,2.64a1.91,1.91,0,0,0,2.63-.43c2.55-2.68,3.06.33,4.53,1.31-2.1,2.06-4.75.24-6.81,1.62,1.46,3.26,4.62,4.51,7.35,6.37-4.26,5.64-5-1.68-7.9-1.89l-1,7.28h-2c-1.67-1.52-.86-3.71-1.6-5.87-1.7,1.17-2.77,3-4.53,3.76-2.52,1.09-4.15.88-2.71-2.47,1.45-2.55,5.76-4.07,2.92-8.15-.29-.43-.16-1.23.25-1.28C20.61,19.44,21.8,15.53,25.17,15.55Z" transform="translate(0 0)" fill="#404040"/><path d="M270.93,20.81c.07-.63.15-1.26.22-1.89.46-1.93,1.08-3.5,3.34-1.53a9.57,9.57,0,0,1,.85,2.55c.6,1.29,1.21,2.59,1.77,3.9,3.79,2.7,8.25,3.9,13.53,5.54-8,5-11-2.76-16.12-4.62-1.16,2.83.85,6.37-1.53,9.05h-1l-.93-8.68c-4.6,2.46-8.53,6.08-14.79,7l11.56-8.32C268.24,22.18,269.62,21.53,270.93,20.81Z" transform="translate(0 0)" fill="#3d3d3d"/><path d="M.1,29.84c3.09-1.62,4.4-4.64,6.21-7.21-1.44-2-3.75-.36-5.59-2.36l6.36-.61c.95-1,.42-2.17.52-3.26a2.13,2.13,0,0,1,1.62-2.14c1.86-.54,8.39,5.55,7.25,6.41C13.38,23,17,25.83,15.3,28c-2.26.1-2.62.42-3.21,3.26a3.87,3.87,0,0,1-2,2.56h-2c-1.67-1.76-1.09-4-1.29-6.1.34-.51-1-.24-.37-.16-1.11,3-3,4.46-6.33,3.28Z" transform="translate(0 0)" fill="#3f3f3f"/><path d="M135,33.81c-1.81-4.71-.9-9.63-.68-14.39.15-3.35,2.36.29,3.56-.32a5.33,5.33,0,0,1,.6,2.56c3.9,3.23,10.12,2.76,12.39-.95A4.72,4.72,0,0,1,152,18.92c2.22-1.89,4-.1,3.59,1.45-.94,3.43-.29,6.78-.55,10.13-.16,2.12-.36,3-2.84,1.57C148,29.54,138.06,30.83,136,33.81Z" transform="translate(0 0)" fill="#393939"/><path d="M95.06,33.81c.39-.49,1.12-1,1.12-1.46-.09-5,2.69-8,6.78-10.25a2.15,2.15,0,0,1-.49-1.44c.36-1.59,1.28-2.83,3-2.76s2.3,1.69,2.87,3c1.29,3,.38,5.51-2.07,7.4s-5,3.74-8.14,4.41l0,1.08Z" transform="translate(0 0)" fill="#f8f8f8"/><path d="M10.09,33.81,11,26.12c1.66.12,2.27,2.42,4.12,1.92a.94.94,0,0,1-.05,1.55c-.63,1.13-1.1,2.58.93,1.34,2.32-1.42,4.26-3.47,7.08-5.83v8.71Z" transform="translate(0 0)" fill="#fbfbfb"/><path d="M.1,30.83c3.47.28,4.65-3.12,7.6-4.7l.39,7.68a27.81,27.81,0,0,0-5.48.06C-.55,34.53.14,32.47.1,30.83Z" transform="translate(0 0)" fill="#f3f3f3"/><path d="M367.82,16.93c.67-1.55,3.56-.88,2.19-3.32-.82-1.47-2-2.91-3.89-2.52S365,13.24,365,14.44c0,3.48.26,7,2.05,10,1.53,2.6.52,4.17-1.64,5.19-3.82,1.82-7.91,2.61-12.09,1.33-4.46-1.36-7.92-10.39-5.93-14.56.91-1.89,3.53-1.8,4.11-3.94-5.93-.82-5.93-.82-6.8-4.38,2.25,2.07,4.7,2.36,6.45.67s.34-3.8-1.37-5.7c3.06-.27,5.55-.82,5.15,3,0,.45-.45,1.57.68,1.24,1.39-.4,3-.81,3.08,1,.06,1.37-1.92,1.5-3.11,2s-2.22,1.43-1.75,2.59c1.73,4.25-.54,8-1.41,11.83C351.71,28,353,28.93,356,29c6.85.22,8.37-1.26,8-8.21-.15-2.63-.42-5.25-.49-7.89,0-1.55.42-3.12,2.27-3.35,3.1-.38,5.42,1.13,7.29,3.45,1,1.27,1.52,2.8.6,4.13C371.63,20,369.88,15.62,367.82,16.93Z" transform="translate(0 0)" fill="#383838"/><path d="M388.48,12.83c2.92,0,5.49-.06,8.07,0,3.94.09,3.75-2.2,3-4.91-.24-.86-2.14-.79-1.28-2.16a1.84,1.84,0,0,1,2.25-.57c1.28.41,3,1.06,2.63,2.52-1.42,6.11,2.31,4.05,5.23,3.44,1.11-.23,2.16-.91,3.39-.4s2.35,1,2.11,2.33-1.56.79-2.47.81c-8.62.1-8.62.1-8.61,8.56,0,.33,0,.67,0,1-.13,2.55.89,5.78-2.22,7-3.6,1.45-1.69-3.94-4.8-4,3.58.12,4.7-1.39,4.17-4.43a14.2,14.2,0,0,1,0-4c.4-3.35-.62-4.39-4.09-3.24C393.36,15.63,390.13,17.41,388.48,12.83Z" transform="translate(0 0)" fill="#3c3c3c"/><path d="M444,15.39c-4.62,3.24-7.54,7.09-12.55,7.39A71.42,71.42,0,0,0,444.33,10.5c1-1.23,2.31-2.44,2.19-4.23-.06-.78-1.57-1.72.28-2.14,1.25-.29,2.2.61,3.13,1.26s1.78,1.71.78,2.4c-6.95,4.84-3.23,12-4.28,18.13-.34,1.95,2,5.67-1.49,5.57-3.75-.12-1.52-3.87-1.55-6C443.35,22.42,443.74,19.37,444,15.39Z" transform="translate(0 0)" fill="#3e3e3e"/><path d="M327.33,24.85c-2.44,5.63-7.34,8.06-12.59,7-3.51-.73-5.42-2.95-5.95-6.43-.75-4.95.31-9.85.39-14.78.05-2.54.67-5.06-1.79-7.63,5.41.06,5.95,2.84,5.46,6.28-.53,3.74-1.26,7.46-1.72,11.21-.36,3-.41,6.2,2.67,7.91s6.15.87,9-.66C324.4,26.9,325.83,25.82,327.33,24.85Z" transform="translate(0 0)" fill="#3a3a3a"/><path d="M528.24,14.4c0,5,0,9.57,0,14.16,0,1.21.26,3.09-1.62,3-1.47-.07-1.9-1.61-1.86-3.06.17-4.78.26-9.56.49-14.34a33.39,33.39,0,0,0-.49-7.86c-.17-.92-2.73-.94-.93-2.43a2.29,2.29,0,0,1,2.78-.11c1.15.66,2.83,1.25,2.13,2.83-2.17,4.86-.21,6.89,4.59,7.49a6.39,6.39,0,0,1,2.59,1.42c1.2.89,2.44,1.88,2.22,3.6-.07.55-.54,1.37-1,1.49-1.88.5-2.52-1.13-3.44-2.25A10.42,10.42,0,0,0,528.24,14.4Z" transform="translate(0 0)" fill="#3a3a3a"/><path d="M274.1,18.17c-1.65-2.34-2,.39-3,.75-2.93.5-2.93.5-5.06-4.9-.93.46-1.07-.1-1.07-.83,3.46-1.19,1.93-4.1,2-6.26.06-2.81,1.24-2.47,3-1.59A3.11,3.11,0,0,1,271,7.05c.34,1,.44,2.38,2,2.36s1.59-1.36,1.91-2.42A3.42,3.42,0,0,1,276,5.29c2.84-1.67,3.53,0,3.23,2.31a6.52,6.52,0,0,0,.14,3.26A1,1,0,0,1,281,11l.3,1.82a6.1,6.1,0,0,1-.51,1.28,12.31,12.31,0,0,0-.64,2.38C278.91,20.82,278,21.06,274.1,18.17Z" transform="translate(0 0)" fill="#484848"/><path d="M500.59,8.44a43.91,43.91,0,0,1-20.06,19.24c-3,1.47-4.39-1.59-4.61-5.31,3.06,3,5.37,1.45,7.76-.12A113.11,113.11,0,0,0,500.59,8.44Z" transform="translate(0 0)" fill="#3b3b3b"/><path d="M411.23,8.91a3.57,3.57,0,0,1-3.33-3.82c0-2.67,1.81-3.89,4.13-3.72a3.56,3.56,0,0,1,3.4,4.05C415.21,7.51,413.93,9,411.23,8.91Z" transform="translate(0 0)" fill="#4b4b4b"/><path d="M404.4,17c4.7.56,7.39,2.47,9.2,5.6.67,1.15.85,2.66-.55,3.52-1.92,1.19-2.29-.63-2.67-1.74C409.42,21.52,407.23,19.59,404.4,17Z" transform="translate(0 0)" fill="#484848"/><path d="M394.81,17.5c.56,4-.38,6.58-3.11,8.46-1.21.84-2.5,1.15-3.43-.28s.4-2.11,1.38-2.57C391.86,22.07,393,20.08,394.81,17.5Z" transform="translate(0 0)" fill="#424242"/><path d="M475.32,8c4-.74,6.6,0,8.57,2.32.75.89,1.3,2,.13,3.05s-2.2.53-2.8-.62C480.1,10.62,478,9.68,475.32,8Z" transform="translate(0 0)" fill="#404040"/><path d="M277.11,23.84l-2.94-3.18c3.07-.36,6.09-1.43,9.25-.78a17.11,17.11,0,0,1,5.43,2c-2.35,1.63-5,.33-7.49.8C279.92,23,278.05,21.74,277.11,23.84Z" transform="translate(0 0)" fill="#656565"/><path d="M281,11l-1.63-.15c1.1-1.59,2.27-3.14,3.31-4.77,2.39-3.71,3.52-2.07,4.37,1C284.36,7.37,283.25,10,281,11Z" transform="translate(0 0)" fill="#404040"/><path d="M279.88,13l1.42-.21c2.94.59,6.62.38,5.77,5.15a2.15,2.15,0,0,1-1.3.53C283.21,17.32,280.38,16.42,279.88,13Z" transform="translate(0 0)" fill="#404040"/><path d="M285.61,18.12l1.46-.14c-.83,1.94,2,2.25,1.78,3.91-1.64-.27-3.54.7-4.88-1C283.32,19.27,284.55,18.75,285.61,18.12Z" transform="translate(0 0)" fill="#555"/><path d="M59.13,30.42c5.78-2.16,9.78-5.64,10.55-12a9.23,9.23,0,0,0-2.21-7.79C66,9,63.92,7.6,61.8,8.3c-2,.65-.53,2.88-.67,4.37a20,20,0,0,1-6.35,13c-3.6,3.41-7.21,2.27-8.53-2.46C44.24,16,49.9,8.12,58.06,6.71s14.47,2.74,15,9.67C73.77,24.49,67.86,30.54,59.13,30.42Z" transform="translate(0 0)" fill="#393939"/><path d="M98.09,32.73c1.61-1,3.26-2,4.82-3.13,5.69-4.06,5.86-4.86,2.48-11.89L103.1,21c-3.06-.88-.69-2.48-.52-3.79A7.23,7.23,0,0,1,105,13a2,2,0,0,0,1-2.14c.32-1.94.67-3.88,1-5.83.63-4.41.61-4.42,5.12-2.43a18.53,18.53,0,0,0-1.18,1.47c-1,1.65-2.28,4-1.2,5.25s3.63.95,5.39-.56c2.34-2,2.84.53,4.4,1.59-7.49,1.5-5.14,8.14-6.9,12.2-1.89,4.34,4.39,4.63,6.41,7.37-2.75,4.6-5,1.08-6.69-.85s-2.82-2.24-5-.3C104.81,31,102,33.39,98.09,32.73Z" transform="translate(0 0)" fill="#383838"/><path d="M192,7.05c.07,2.22-1.36,5.38.8,6.38a6.7,6.7,0,0,0,7.45-.84c2.45-2.27,2.68.84,4.4,1.87-6-.72-6,2.63-5.7,6.52.24,2.95.08,5.94,0,8.91,0,1.25.35,3-1.72,2.85-1.79-.08-1.23-1.67-1.25-2.68-.07-4.12,0-8.25,0-12.38,0-1.24.39-2.64-1.78-2.74s-2.36,1-2.39,2.7c-.07,4.05-1,7.85-4,10.89-1.24,1.27-2.31,2.92-4.77,2,7.52-6.55,5.78-15.22,5.76-23.5,0-2.43-1.74-1.95-3.15-2-4.77,0-9.55,0-14.33-.35,4.57-1.94,9.79.65,14.33-2.45.73-.5,3.52,2,5.35,3.07C191.84,5.65,192.66,5.94,192,7.05Z" transform="translate(0 0)" fill="#363636"/><path d="M227.06,22.11c2.13-1.78,1.88-4.44.35-5.66-2-1.61-3.34,1.06-4.7,2.36-.47.45-.77,1.06-1.2,1.56-.69.79-1.2,2.35-2.6.85a2,2,0,0,1,.18-3c2.6-2.53,5.33-5,6.39-8.69-1.49-1-4.4.3-4.45-2.76,1.27-1.23,6.68,2.7,4.23-3.5-.46-1.16,2.48-1.22,3-.17,1,2,3,1.44,4.48,2.57-1.15,2.22-4.72,1.56-5,4.36-.17,1.48-3.19,2.8-.56,4.34,1.69,1,3.58,2.94,5.59-.48a6.93,6.93,0,0,1,8.59-3.22,3.44,3.44,0,0,1,2.66,3.2,3.15,3.15,0,0,1-2.2,3c-1.2.55-2.47,1-3.68,1.47-3.51,1.52-7.84,2.23-7.16,7.7.12.93-1.07,1-1.93.68A17.1,17.1,0,0,0,227.06,22.11Z" transform="translate(0 0)" fill="#3b3b3b"/><path d="M20.3,7.1c2.92,3.77,7.53,4.26,11.62,5.76-1.55,2.87-1.55,2.87-6.26,2.29-2.11-.52-3.5-2.34-5.51-3.12-1.76,1.58-.07,5.71-3.79,5.42-3-.24-2-3.25-2.75-5.29-2.29.54-4,2.75-6.62,2.34L2.51,16.22c2.8-3.38,7.09-4.91,9.7-9C9,6.6,6.05,7.4,3.32,5.46c2.13,0,4.27.13,6.39,0,2.46-.19,6,1.46,6-3.4,0-1.3,1.63-1.18,2.41-.88,2.54,1-.36,2.4.13,3.61S20.13,5.88,20.3,7.1Z" transform="translate(0 0)" fill="#414141"/><path d="M7,14.5l8-5c.23.66.38,1.08.52,1.51.64,2-1.26,5.72,1.54,5.63,2.56-.09.65-3.87,1.24-5.92.12-.41.19-.84.42-1.91,2.27,2.65,5.52,3.42,7,6.34a1.15,1.15,0,0,0-.49.41c-.59.25-1.69.52-1.68.75.18,4.33-3,3.7-5.83,3.67,4,3,3.8,3.74-2.58,9.62L15.13,28c-.33-2.93-.33-2.93-4-5.74,1.21-1.79,3.52,0,5-1.65-1.15-2.43-2.54-3.48-4.77-1-.95-1.11-.59-1.93,0-2.83.86-1.38-.22-1.7-1.22-1.83s-1.94-.3-2.22,1.16c-.22,1.16.81,2.64-.82,3.47Z" transform="translate(0 0)" fill="#f8f8f8"/><path d="M171.59,30.76c4-7.06,2.13-14.73,2.51-22.39,3.23,1.53,6.06,2.23,9.3,1.06,2.08-.74,3.72-.14,2.88,2.93-.58,2.16-.32,4.55-.39,6.84,0,.87-.15,1.64-1.09,2s-1.53-.11-1.77-1.06c-.69-2.79-2.95-1.43-4.51-1.49-2.08-.08-1.29,1.84-1.57,3C176,25.14,175.62,29,171.59,30.76Z" transform="translate(0 0)" fill="#3c3c3c"/><path d="M129.06,4c4.59-1.65,9.31-1,14-.75.73.26,1.35.62,1.46,1.48-.1,3.37-.52,6.75.2,10.11,0,1.63-.25,3.1-2.43,3-3.19,0-1.81-2.89-2.71-4.43-2.53.91-5.07,1.76-7.09,3.51-1.77,1.54-2.37-.1-3-1-1.16-1.7.36-1.67,1.47-2,2-.66,4.3-.51,6.07-1.92,2.65-4.68,2.2-5.64-2.87-6.69A20,20,0,0,1,129.06,4Z" transform="translate(0 0)" fill="#3f3f3f"/><path d="M144.17,4.11l-1.1-.85c4.52-.89,9.18.65,13.73-1a2.13,2.13,0,0,1,2.55,2.67c-1.29,3.27-.4,6.53-.68,9.77-.11,1.2-.11,2.61-1.42,2.83-1.91.31-1.43-1.46-1.39-2.4.1-2.94-1.79-2.09-3.32-1.83-2.11.35-3,3-5.43,2.82a2.07,2.07,0,0,1-1.56-1.52c0-2.72,2.37-2.73,4.13-3.35,1.94-.68,4.82-.6,4.56-3.45-.31-3.39-3.44-2.1-5.49-2.4C147.15,5.15,145.44,5.45,144.17,4.11Z" transform="translate(0 0)" fill="#454545"/><path d="M227.06,22.11a4,4,0,0,1,2,4.57c-1.63-.26.27-3-1.77-2.66A3,3,0,0,0,225,27c-.08,1.94,1.5,2.09,2.74,2.11,2.64,0,5.3-.18,7.94-.33,1.22-.07,2.51-.14,2.61,1.44.07,1.17-.93,1.67-2,1.75a45,45,0,0,1-6.94.37c-2.78-.23-5.95-.54-6.71-4S224.34,23.33,227.06,22.11Z" transform="translate(0 0)" fill="#464646"/><path d="M129.06,4c2.6.06,5.21.25,7.8.16C139,4.1,140.51,4.54,140,7c-.38,2,1.64,5.46-3,4.9l0,.11a8.94,8.94,0,0,0-5-6C131.43,4.8,129.49,5.5,129.06,4Z" transform="translate(0 0)" fill="#ebebeb"/><path d="M192,7.05l-1-1.71A15.78,15.78,0,0,0,198,2.87c2.6-1.54,3.84-.24,5.46,2Z" transform="translate(0 0)" fill="#3f3f3f"/><path d="M270.93,20.81l-3.1,3c-1.8-2.22-4.22-.69-6.33-1-1.49-.2-3.25.76-4.86-2Z" transform="translate(0 0)" fill="#717171"/><path d="M270,7l0-1.63a6.67,6.67,0,0,0,1.33-1.26c.73-1.27-.2-3.95,2.89-3.12,4.06,1.09-.39,2.47.18,3.58.21.41,1.05.51,1.6.75L276,7A4.34,4.34,0,0,1,270,7Z" transform="translate(0 0)" fill="#4a4a4a"/><path d="M137.12,21c.27-.63.54-1.26.8-1.9l4-.26a20.19,20.19,0,0,1,3.3-.07l6.79.15c0,.66,0,1.33,0,2A16.93,16.93,0,0,1,137.12,21Z" transform="translate(0 0)" fill="#828282"/><path d="M265,13.19l1.07.83c-1.45,1.3-3.18,2.39-4.29,3.93-2.18,3-3.26,1.17-4.82-.9Z" transform="translate(0 0)" fill="#484848"/><path d="M20.3,7.1c-1-.47-2-1-2.05-2.34C22.38,6.53,27.1,3.61,31.17,7.1Z" transform="translate(0 0)" fill="#656565"/><path d="M258.12,4.38c3,.54,5.07,1.39,6.32,3.56.61,1.08.83,2.26-.33,3.07-1.4,1-2-.16-2.62-1.19C260.5,8.16,259.46,6.53,258.12,4.38Z" transform="translate(0 0)" fill="#4e4e4e"/><path d="M132,6c3.41.57,6.46,1.46,5,6C134,11.23,133.74,8,132,6Z" transform="translate(0 0)" fill="#464646"/><path d="M93,11c.12,1.14,3,1.11,1.31,3-2.39-2.55-5.75.27-8.63-1.66C88,10.29,90.82,12,93,11Z" transform="translate(0 0)" fill="#5c5c5c"/><path d="M145.24,18.77c-1.07,1.5-2.17,1.37-3.3.07l.36-1a2.75,2.75,0,0,0,1.75-2.64,1.16,1.16,0,0,1,1.84-.31l1.22,1.2Z" transform="translate(0 0)" fill="#383838"/><path d="M93,5.91l0,2.18C91.36,7,88.77,9.14,87.38,6.54,89.21,5.4,91.2,6.49,93,5.91Z" transform="translate(0 0)" fill="#5e5e5e"/><path d="M105,13c-.31,1.48-.56,3-2,4-.3.48-.57.49-.82,0-1.4-2.72-3.77-1.21-6.26-.65C98.26,11.31,102,13.18,105,13Z" transform="translate(0 0)" fill="#f7f7f7"/><path d="M102.25,16.92a2.07,2.07,0,0,1,.82,0c1,1.35-2.17,2.73,0,4.07L103,22.1c-1.86.43-3.67,1.25-5.69.61C97,19.07,100.89,19.07,102.25,16.92Z" transform="translate(0 0)" fill="#dadada"/><path d="M285.61,18.12,284,20.89l-9.8-.23c0-.83-.05-1.66-.07-2.49,1.54-1.49,3.32,3.32,4.66-.12.61-1.57-.54-3.61,1.12-5Z" transform="translate(0 0)" fill="#f6f6f6"/><path d="M144.25,29.82c-1.81,0-3.62,0-5.42,0s-1.79-.92-1.78-2.2.54-1.74,1.74-1.73c4,0,7.89,0,11.84,0,1.34,0,1.55.83,1.54,1.92s-.15,2-1.51,2c-2.14,0-4.27,0-6.41,0Z" transform="translate(0 0)" fill="#fefefe"/><path d="M137.12,21,152,20.91c.49,2.41.28,4.12-3,3.87a52,52,0,0,0-8.82,0C137,25.08,136.71,23.43,137.12,21Z" transform="translate(0 0)" fill="#f5f5f5"/><path d="M349.65,23c-1.09-3.29-1-5.24,1.31-7.39C351.55,18.23,351.3,20.11,349.65,23Z" transform="translate(0 0)" fill="#f1f1f1"/><path d="M270,7h6c.48,2.45.55,4.19-3,4.18S269.48,9.42,270,7Z" transform="translate(0 0)" fill="#d8d8d8"/><path d="M273,12.22c1.85-.08,3.11,0,3.12,1.91,0,2.85-2.16,1.78-3.55,1.92s-2.7.24-2.68-1.82C269.9,11.44,272,12.48,273,12.22Z" transform="translate(0 0)" fill="#f3f3f3"/><path d="M411.77,3.19c1.11.29,1.86,1,1.77,2.07a1.76,1.76,0,0,1-2,1.74,1.7,1.7,0,0,1-1.68-2A1.72,1.72,0,0,1,411.77,3.19Z" transform="translate(0 0)" fill="#e6e6e6"/><path d="M48.59,20.67c.36-5,2.29-8.79,6.63-11.07,1-.51,2.48-1.16,3.21-.78,1.28.69.76,2.4.5,3.58a20.68,20.68,0,0,1-4.86,10.07c-1,1-1.94,2.69-3.6,2.16C48.57,24,49,22,48.59,20.67Z" transform="translate(0 0)" fill="#fcfcfc"/><path d="M109.45,20.85c-1.7-2.6-3.17-5-1.6-8.21A2.5,2.5,0,0,1,111,11.05c1.79.35,1.11,1.81.86,2.76C111.23,16.13,111.28,18.69,109.45,20.85Z" transform="translate(0 0)" fill="#ededed"/><path d="M231.58,19.23c1.47-4,3.2-6,6-7.06A1.76,1.76,0,0,1,240,13a1.53,1.53,0,0,1-.89,2C237,16.28,234.72,17.49,231.58,19.23Z" transform="translate(0 0)" fill="#ededed"/><path d="M180.3,17.06c-2,.26-3.52.06-3.32-2.64.14-2,.08-3.45,2.8-3.31,2,.11,3.44.19,3.29,2.82C183,15.89,183,17.61,180.3,17.06Z" transform="translate(0 0)" fill="#f8f8f8"/><path d="M145.89,14.9l-1.84.31a11.14,11.14,0,0,1,.12-11.1c2.45,0,4.9,0,7.35.15,1.93.09,4.36-.89,4.42,2.74.06,2.94-.77,4.32-3.77,5C150,12.51,146.85,11.6,145.89,14.9Z" transform="translate(0 0)" fill="#f1f1f1"/><path d="M147.19,6c2.66.09,4.61.92,4.89,3.66.06.6-.25,1.52-1.06,1.32C148.36,10.33,149.06,7.26,147.19,6Z" transform="translate(0 0)" fill="#393939"/></svg>