<svg xmlns="http://www.w3.org/2000/svg" viewBox="0 0 381.46 112.66"><defs><style>.cls-1{fill:#333;}</style></defs><title>school-enjoy-point-title</title><g id="Layer_2" data-name="Layer 2"><g id="Layer_1-2" data-name="Layer 1"><path class="cls-1" d="M36.88,30.4c-.48,0-1.62.06-3.29.11-.49,0-1.84,0-3.4,0l-.65-1.72c3.94.16,5.72.21,7.23.27h3.46V21.44l4.05.32c.76.06,1.24.49,1.24,1a1.4,1.4,0,0,1-.81,1.13l-1.24.6v4.59h2.16l2.48-3.3,3.62,2.86a1.69,1.69,0,0,1,.65,1.08.69.69,0,0,1-.65.65H43.47v3.3a19,19,0,0,1,5.35,2,4.84,4.84,0,0,1,2.75,3.94,2,2,0,0,1-1.84,1.94,2,2,0,0,1-1.13-.43,18.91,18.91,0,0,1-1.67-2.7,8.82,8.82,0,0,0-3.46-3.24V47.3c0,.82-1.19,1.52-2.59,1.52-.49,0-.65-.27-.65-.87V35.37a46.18,46.18,0,0,1-7,7.4c-2,1.73-3.56,2.75-4.15,2.75a.54.54,0,0,1-.54-.54c0-.27.27-.59,1.29-1.4A43.19,43.19,0,0,0,39.31,30.4Zm6-21.92c-.32,0-2.27,0-5.13.16-.65,0-2.59,0-4.7.11l-.81-1.89C34.78,7,36.77,7,37.58,7c2.65.11,4.43.16,5.35.16h8.91v-7l3.89.16c.75,0,1.13.32,1.13.92a1.28,1.28,0,0,1-.43,1l-1.3,1V7.18h13L71,3.78l3.83,3a1.6,1.6,0,0,1,.71,1c0,.43-.27.65-.87.65H56.05c5.62,5.29,11.83,8.21,21.12,9.83a10.4,10.4,0,0,0-3.68,4.15c-8.42-3.34-14-7.34-18.36-13.23V22.84c0,.76-1.08,1.35-2.53,1.35-.54,0-.76-.27-.76-.81V10.64A66.64,66.64,0,0,1,38,20c-4,2.05-6.54,3.24-7,3.24a.47.47,0,0,1-.44-.43c0-.27.54-.65,4.05-2.65,5.89-3.45,9-6,14.21-11.66ZM54.86,30.56l-.54-1.67c5.4.22,5.67.22,7.24.22h1.57V21.87l4.42.27c.49.05.92.43.92.76a1.34,1.34,0,0,1-.7,1l-1.51.87v4.32h4.59l2.86-3.3,3.83,2.92a1.29,1.29,0,0,1,.6,1,.65.65,0,0,1-.7.7H66.37c1.72,4.27,6.42,8.43,12.9,11.29a8.91,8.91,0,0,0-3.67,3.4,29,29,0,0,1-9.34-11.88V47.58c0,.75-.81,1.13-2.43,1.13-.49,0-.7-.22-.7-.76V34.62a73.19,73.19,0,0,1-8.27,8.09c-3,2.49-5.07,3.95-5.61,3.95a.51.51,0,0,1-.43-.49c0-.21,0-.21,1.78-1.73a74.61,74.61,0,0,0,11.55-14Z"/><path class="cls-1" d="M111.83,10.31a51.06,51.06,0,0,1,.76,6.54c0,5.45-2.48,11.88-6.59,17.17-3.13,4-6,6-8.85,6a4.84,4.84,0,0,1-3.73-2,12.62,12.62,0,0,1-2.81-8.54c0-11.44,9.94-20.84,22-20.84,10.7,0,18.15,6.7,18.15,16.31,0,8.59-5.08,15.55-13.61,18.63a32.72,32.72,0,0,1-7.4,1.78c-.38,0-.7-.27-.7-.48s.16-.22.92-.44a24.53,24.53,0,0,0,10.21-5.34c3.88-3.35,6.15-8.86,6.15-15.07,0-5-1.57-8.64-4.64-11a14,14,0,0,0-8.37-2.81Zm-2.16.22A19.22,19.22,0,0,0,93.85,29.65c0,4,1.51,7,3.57,7,2.32,0,6.64-4.38,9.28-9.4,2.11-4.1,3.78-9.67,3.78-12.74a10.66,10.66,0,0,0-.7-3.73Z"/><path class="cls-1" d="M154.12,9.56H152c-1.14,0-2.22,0-5.62.16l-.7-1.67,3.78.16c1.13,0,2.16,0,2.54,0h2.16v-8l4.75.75a.77.77,0,0,1,.7.76,1.26,1.26,0,0,1-.65,1l-1.29.6V8.26h1.56l2.43-2.86,3.51,2.75c1.14-1.62,1.3-1.89,2.49-3.78l3.18,2.54a1.41,1.41,0,0,1,.33.87c0,.48-.38.81-1.08.91l-1.19.17c-2.43,3-3.67,4.48-6.27,7.5h3.62l2.65-2.86L172,16.15a1,1,0,0,1,.43.75.7.7,0,0,1-.7.76H161.51a53.69,53.69,0,0,1-5.13,5.51h6L164,21.28l3.51,3.13a1,1,0,0,1,.21.59c0,.49-.27.71-.91.76l-1.46,0-5.13,3.78c.38.33.54.54.54.81a.87.87,0,0,1-.54.7l-.7.38v2.76c4.64-.7,6.75-1.14,12.2-2.27l.22.92L159.52,36.5v8.43c0,1.67-.22,2-1.73,3a4.75,4.75,0,0,1-2,.87c-.49,0-.59-.11-1-1.41a1.46,1.46,0,0,0-1-.86l-4.65-1.46v-.92l4.81.27h.27c1.29.06,1.89-.21,1.89-1.08v-6l-6.75,1.79-.76,1.29c-.27.44-.59.7-.86.7a1.31,1.31,0,0,1-.87-.7l-2.32-4.1c5.94-.59,7.78-.87,11.56-1.51V28.19l2.7.81L162,24.46h-6.91a68.91,68.91,0,0,1-9.61,7.78c-.38.32-.6.43-1.14.81a1.32,1.32,0,0,1-.75.32.46.46,0,0,1-.44-.43c0-.16.17-.38.49-.65A64.32,64.32,0,0,0,152,24.46c-2.92.06-3.35.06-6.43.16L144.72,23c1.89.05,3.51.11,4.1.11,1.57.05,2.7.11,3.14.11h1.24c2.21-2.38,2.54-2.76,4.75-5.51h-8c-.06,0-1.57,0-2.92.05l-3.4.11-.7-1.67c1.78.05,3.51.1,4.05.16,1.4.05,2.91.11,3,.05h4.16Zm4.91,6.8c2.38-3,3.19-4,5.08-6.8h-6.48v6.8ZM181.44,1.89c.49.16.81.49.81.86s-.38.87-1.13,1.14l-1.52.48c-.91,4.22-1.08,4.86-2.32,9.29h8.8l2.7-3.35L193,13.66a.88.88,0,0,1,.32.7.55.55,0,0,1-.49.6h-5.72c-1.73,10.42-2.92,14.47-5.89,20,2.49,3.35,7.08,6.75,12.59,9.39-2.49.92-3.24,1.46-4.54,3.3a40.69,40.69,0,0,1-10-9.78A32.7,32.7,0,0,1,169,46.22c-2.59,1.41-6.48,3-7.29,3a.46.46,0,0,1-.43-.44c0-.27.21-.43.65-.64,7.18-3.46,12.79-8.21,15.49-13.07a38.29,38.29,0,0,1-4.05-11.88l-1.29,2c-2.76,4.42-3.73,5.66-4.32,5.66a.38.38,0,0,1-.43-.37c0-.27,0-.27,1.08-2.16,4.32-8.21,6.31-15.77,7.56-28.3ZM176.85,15a43.68,43.68,0,0,1-2.48,6.21c1,4.21,2.7,8.42,4.59,10.85,2.16-4.8,3.07-8.64,4.26-17.06Z"/><path class="cls-1" d="M218.32,4.86h-9.66c-1.3,0-3.46.11-6.48.16l-.76-1.67,3.78.16c1.57.05,2.92.05,3.46.05h9.55l1.41-2.16,3.35,3c.32.32.54.59.54.75s-.38.49-.81.65l-1.08.38V23a1.29,1.29,0,0,1-.27.87,4.47,4.47,0,0,1-2.43.81c-.44,0-.6-.22-.6-.81V17.39L206,23l-.16.65c-.22.92-.49,1.3-1,1.3s-.65-.22-1.29-1l-2.81-3.46c3.62-.59,9.07-1.89,17.6-4.16ZM205.9,7.78c5.08,1.35,7.83,3.4,7.83,5.94a2,2,0,0,1-1.89,2.21c-1,0-1,0-2.1-2.59-1-2.27-1.57-3-4.16-4.92Zm7.78,20h7.94a30.43,30.43,0,0,0,1.83-7.24l4.43,1.73a.82.82,0,0,1,.54.76.79.79,0,0,1-.59.75l-1.84.54-2.21,3.46h12.31l1.56-2.48,3.57,3.18c.32.33.49.54.49.76s-.27.54-.81.7l-.92.43V46.87a.9.9,0,0,1-.27.65,5.4,5.4,0,0,1-2.49.92c-.43,0-.65-.38-.65-1.35V45.36H212.92v2c0,.59-1.51,1.35-2.7,1.35a.6.6,0,0,1-.65-.65V25.33Zm22.89,8.26v-7H212.92v7Zm0,8V37.26H212.92v6.81Zm5.57-39.21h-10.7c-1,0-1.45,0-6.53.16l-.7-1.67c3.51.11,4.53.16,7.23.21H241.6l1.83-2.26,3.35,3.56a1.25,1.25,0,0,1,.38.76c0,.21-.22.43-.6.59l-1.13.49V23.11c0,.54-.27.87-1,1.14a6.37,6.37,0,0,1-1.84.54.45.45,0,0,1-.48-.49v-8l-10.37,4.32-.49,1c-.27.54-.7.92-1,.92a1.41,1.41,0,0,1-.76-.43l-2.86-3.41a112,112,0,0,0,15.5-3.34ZM228.1,7c4.8,1.08,7.45,3.24,7.45,6a1.93,1.93,0,0,1-1.78,2.11c-1,0-1.19-.27-2.11-2.81a9.79,9.79,0,0,0-3.83-4.59Z"/><path class="cls-1" d="M266.81,14.2h8.81L277.13,12l3.29,2.65a1.85,1.85,0,0,1,.81,1.08c0,.32-.32.65-.81.81l-1.08.32V29.43c0,.76-1.08,1.3-2.54,1.3-.59,0-.81-.27-.81-.92V26.3h-9.77c-.22,7.13-1.51,11.82-4.7,16.79-1.67,2.59-3.51,4.75-4,4.75a.47.47,0,0,1-.43-.48c0-.27.11-.49.76-1.4,3.34-4.54,4.91-11.34,4.91-21.34,0-2.91-.11-5.83-.43-13.28ZM279.13,1.57l3.72,2.86a1.55,1.55,0,0,1,.6,1.08.59.59,0,0,1-.54.59h-18c-1.18,0-1.62,0-6.64.16l-.59-1.67,3.56.11,3.67.11H276ZM276,25V15.5h-9.82V25ZM288.52,7.51a51.13,51.13,0,0,0,12.26-5.78l3.73,2.59c.64.43,1,.86,1,1.24,0,.54-.38.87-1.14.87h-2L288.31,9V19.6H300l2.92-3.35,4,3.41c.27.27.38.43.38.7a.59.59,0,0,1-.59.54H299V46.5c0,.7-.16.86-.87,1.18a10.65,10.65,0,0,1-2.1.54c-.43,0-.65-.32-.65-1V20.9h-7c-.32,9.39-.76,12.15-2.38,15.5a27.26,27.26,0,0,1-9.28,10c-1.52,1-2.27,1.35-2.7,1.35a.46.46,0,0,1-.44-.43c0-.32.17-.54,1.3-1.35a24.45,24.45,0,0,0,7.07-8.43c2.16-4.21,2.81-8.74,2.81-19.38,0-4.11-.11-6.81-.54-12.8Z"/><path class="cls-1" d="M345,17.93A12.42,12.42,0,0,1,353,14.47c3.83,0,6.8,2.27,6.8,5.19a3.2,3.2,0,0,1-1.4,2.86c-1.13.86-1.46,1-6.48,3a91.57,91.57,0,0,0-11.56,5.24c.16,2.37.27,4.1.27,5,0,2.69-.54,3.4-2.7,3.4-.65,0-1-.22-1-.54a1.51,1.51,0,0,1,.05-.44,41.27,41.27,0,0,0,.27-5.83c-4.64,2.76-6.53,4.92-6.53,7.35,0,2.7,2.54,3.78,8.86,3.78a31.33,31.33,0,0,0,7.93-1,4.41,4.41,0,0,1,1.41-.28c1.13,0,2.59,1.25,2.59,2.22,0,1.78-3.56,2.7-10.91,2.7-4.1,0-6.53-.43-8.8-1.62A6.43,6.43,0,0,1,328.1,40a6.86,6.86,0,0,1,2.76-5.08,39.62,39.62,0,0,1,6.37-4.15c-.05-3.84-.22-5.62-.7-6.81A2.82,2.82,0,0,0,334,22a6.3,6.3,0,0,0-3.83,2,32.84,32.84,0,0,0-4.65,5.78c-.59,1-1.19,1.51-1.78,1.51-.81,0-1.89-1.78-1.89-3.19,0-.7.22-1.08,1.3-1.88,5.83-5.08,9.39-10.32,10.42-15.34a16.69,16.69,0,0,1-4.7.92,3.37,3.37,0,0,1-2.81-1.95,6.76,6.76,0,0,1-.81-2.05.24.24,0,0,1,.22-.22c.05,0,.16.06.27.22a3.42,3.42,0,0,0,3.18,1.4,14.62,14.62,0,0,0,4.92-.86A8.82,8.82,0,0,0,334,6.86c0-1.78-.86-2.81-2.54-2.92-.21,0-.27,0-.27-.21,0-.49,1.84-1.35,2.86-1.35,1.73,0,3.57,1.62,3.57,3.18a8.1,8.1,0,0,1-.43,2.05,7.8,7.8,0,0,0,3.45-1.83c1.84.92,2.38,1.29,2.38,1.73,0,.64-1.19,1.13-6.32,2.64a61.3,61.3,0,0,1-6.16,11.5,8.71,8.71,0,0,1,3.57-1,5.52,5.52,0,0,1,3.45,1.24c.87.81,1.35,1.73,2,3.84C341.5,21.76,342.79,19.82,345,17.93Zm2.32,7c5.19-2.86,6.27-3.51,6.92-4.05A3.06,3.06,0,0,0,355.27,19c0-1.35-1.62-2.7-3.3-2.7-2.8,0-6.48,2.54-8.58,6a27.46,27.46,0,0,0-3.19,6.64C342.36,27.65,342.74,27.43,347.27,25Z"/><path class="cls-1" d="M23,88.79H19.39V91c0,.59-1,1.08-2.16,1.08-.6,0-1-.32-1-.81V69.18L20,71.29h2.43a47.64,47.64,0,0,0,1-7.51l4.27.71c.64.1,1,.48,1,.91A1.51,1.51,0,0,1,28,66.54l-1.14.81-2.32,3.94h5.18l1.3-2.05,3.08,2.91a1.34,1.34,0,0,1,.38.87,1,1,0,0,1-.6.81l-.86.48V90c0,1-1,1.67-2.43,1.67-.49,0-.7-.27-.7-.81v-2.1H26.3V95H41.36l2.81-3.51,4.32,3.56c.38.27.54.54.54.76a.54.54,0,0,1-.59.48H27.7C33,101.64,41,105.37,50.17,106.66A14.62,14.62,0,0,0,46,110.87a43.89,43.89,0,0,1-11.13-5.67c-3.29-2.32-4.8-3.72-8.58-8.2v14.25a.85.85,0,0,1-.16.54,4.25,4.25,0,0,1-2.38.87A.78.78,0,0,1,23,112V98.18c-6.05,5.13-9,7.13-14.8,9.94-3.29,1.62-6.8,3-7.66,3a.44.44,0,0,1-.49-.43c0-.27,0-.27,3.19-1.89A61.45,61.45,0,0,0,19.71,96.29H11.5c-3.72.11-5.4.11-9.93.27L.86,94.67c2.6.11,4.86.16,5.78.22,2.38,0,4,.11,4.86.11H23ZM15,82.74,6.26,89.92l-.21,1c-.16.7-.6,1.13-1.08,1.13a1.15,1.15,0,0,1-.6-.22L.92,88.46c4.7-2,6.32-2.86,13.66-6.75ZM2.7,69.4c5.45,1.3,9.13,4.37,9.13,7.51a2.12,2.12,0,0,1-1.95,2.37,1.85,1.85,0,0,1-1.35-.59c-.38-.38-.38-.38-1.46-3.35a15.89,15.89,0,0,0-4.59-5.29Zm27.22,10v-6.8H19.39v6.8Zm0,8.1v-6.8H19.39v6.8ZM46,71.61a.63.63,0,0,1,.27.49c0,.27-.32.54-1,.7l-1.84.49-7.83,6.59c-.54.43-.81.59-1.08.59S34,80.31,34,80s.22-.59,2.38-3.34c1.45-2,2.86-4,5.72-8.21ZM34.67,81.44c4.37.7,6.32,1.3,8.42,2.54,2.27,1.3,3.46,2.81,3.46,4.32a2,2,0,0,1-1.89,2c-.7,0-.87-.16-3.67-3.4a22,22,0,0,0-6.43-4.54Z"/><path class="cls-1" d="M101.74,98.45c0,.92-1.24,2.92-3.08,5-4.27,4.76-9.13,7.13-14.8,7.13-3.83,0-6.86-1.13-9-3.4-2.26-2.43-3.24-5.62-3.24-10.53,0-3.24.06-3.94,1.08-18C73,74.1,73,74.1,73,73.45c0-3.46-.81-4.91-2.65-4.91-.32,0-.48-.11-.48-.27,0-.6,1.13-1.08,2.37-1.08,2.76,0,5.4,3.13,5.4,6.48,0,.81,0,.86-.81,4.1a117,117,0,0,0-2.27,18.52c0,7.56,3,11,9.72,11a19.94,19.94,0,0,0,11.83-4.37,21.39,21.39,0,0,0,4.59-4.37c.22-.38.43-.54.65-.54A.44.44,0,0,1,101.74,98.45Z"/><path class="cls-1" d="M129.65,73.07c0-3.56-.54-4.43-2.75-4.53-.43-.06-.49-.06-.49-.22,0-.43,2.11-1.4,3-1.4a8.45,8.45,0,0,1,3.4,1.13A2.23,2.23,0,0,1,134,69.67a5.67,5.67,0,0,1-.37,1.51,26.72,26.72,0,0,0-.92,4.48c2.43-.91,3.24-1.45,3.83-2.48,1.68.11,3.24,1.13,3.24,2,0,.48-.27.7-1.29,1.19a38.89,38.89,0,0,1-6.32,2.32c-.38,2.81-.43,3.19-.81,5.88a2.47,2.47,0,0,1,1.89,2.33c0,.75-.43,2.48-1.73,6.8-1.51,5.18-2.05,7.67-2.05,9.67,0,2.48,1.89,3.62,6.1,3.62a31.81,31.81,0,0,0,10.37-1.9c1.83-.86,2.54-2.16,2.54-4.75,0-1.62-.06-2.26-.81-10.2-.38-3.57-.54-6.16-.54-7.78,0-3.46,1.4-5.24,4.1-5.24,4.91,0,11.18,5.13,11.18,9.18,0,1.78-1.46,3.78-2.7,3.78a.62.62,0,0,1-.54-.37c-1.3-1.46-2.54-1.9-5.67-1.84-.43,0-.65-.11-.65-.38s.05-.27.49-.32A2.73,2.73,0,0,0,154,87c.76-.1,1.35-.27,2-.37,1.67-.33,2.21-.71,2.21-1.52A8,8,0,0,0,156,81.17c-1.56-1.67-3.56-2.75-5-2.75s-2.38,1.4-2.38,4.26a64.48,64.48,0,0,0,1.35,12.21c.81,3.67,1.52,5.24,2.87,6.42a3,3,0,0,1,.27,1.25c0,1.73-1.14,3.24-3.3,4.48-3,1.67-8,2.75-12.74,2.75-6.91,0-10.21-2.1-10.21-6.53a27,27,0,0,1,.65-4.54,2.82,2.82,0,0,1-2.11.81c-2.1,0-3.45-2.48-3.45-6.26,0-5.13,2.91-9.24,6.53-9.24a4.48,4.48,0,0,1,.81.06c.11-2.43.16-2.81.27-4.81a27,27,0,0,1-7,1.35c-1.73,0-2.48-.43-3.08-1.73a9.81,9.81,0,0,1-.81-3.83c0-.27.11-.43.33-.43s.16,0,.27.27a3.72,3.72,0,0,0,3.89,2.91,26,26,0,0,0,6.53-1.24,17.65,17.65,0,0,1,.05-1.94Zm-4,14.69a12.63,12.63,0,0,0-1.24,5.62c0,2.1.81,3.56,1.94,3.56s1.57-.76,1.89-2.59c.43-2.32,1-6.27,1-6.75,0-1.08-.38-1.73-1.08-1.84S126.25,86.63,125.66,87.76Z"/><path class="cls-1" d="M187.16,90.25A17.16,17.16,0,0,1,186,96.78c-1.3,3.13-4.32,5.67-6.75,5.67a2.81,2.81,0,0,1-2.33-2.38c0-.81.27-1,2.06-1.83a13.35,13.35,0,0,0,7.29-8.16c.05-.27.16-.32.37-.32C187,89.76,187.16,89.92,187.16,90.25Zm11.07-6.86c0,1.08,0,3.56.06,7.45l.11,6c0,1.89,0,3.78.1,4,.06,1,.06,1.94.06,2.48a5.2,5.2,0,0,1-1.89,4.27,5,5,0,0,1-3.08,1.45c-.54,0-.76-.32-.81-1.18-.16-2.43-1-3.78-3.62-6-.21-.21-.32-.32-.32-.48a.63.63,0,0,1,.54-.49c.21,0,.54.16,1.29.65,2,1.29,2.49,1.57,3.08,1.57,1.3,0,1.3,0,1.35-11,.06-4.86.11-7.29.11-7.29V83.44a48.23,48.23,0,0,0-11.34,2.38,4.3,4.3,0,0,1-1.51.37,6,6,0,0,1-2.43-1,4.25,4.25,0,0,1-2.22-3.67c0-.32.11-.49.33-.49s.27.11.43.33c.76,1,2,1.29,4.64,1.29a115.44,115.44,0,0,0,12-1c-.06-8.21-.33-8.8-3.41-9.18-.32,0-.48-.11-.48-.22,0-.54,2-1.62,3-1.62a6.86,6.86,0,0,1,4,1.62c.86.7,1.35,1.24,1.35,1.57a1.34,1.34,0,0,1-.16.54c-.71,1.13-.87,2-1.14,6.86,6.1-.49,9.4-1.08,11.18-2,1.08-.59,1.08-.59,1.46-.59.75,0,1.51.38,3.29,1.56,1.24.81,1.62,1.25,1.62,1.84a1.39,1.39,0,0,1-1.29,1.3c-.22,0-.6-.06-1-.11a52.85,52.85,0,0,0-7.93-.6c-2.27,0-5.4.22-7.46.44Zm10.05,7.29c4.53,2.7,7.18,5.88,7.18,8.64a2.72,2.72,0,0,1-2.54,3c-1,0-1.35-.38-1.94-2.65-1-4.1-4.86-8.8-8.26-10-.27-.11-.38-.22-.38-.38s.27-.43.59-.43A12.79,12.79,0,0,1,208.28,90.68Zm9.29-20.36A5.3,5.3,0,1,1,212.33,65,5.31,5.31,0,0,1,217.57,70.32Zm-8.75,0a3.46,3.46,0,1,0,3.4-3.46A3.47,3.47,0,0,0,208.82,70.32Z"/><path class="cls-1" d="M255.2,84.2C258,85.44,258,85.44,258,86a1.83,1.83,0,0,1-.22.75,12.11,12.11,0,0,0-.48,4.32l.1,5.51v6.16l.06,3.73c.05.7.05,1.34.05,1.78,0,1.4-.48,2.21-1.29,2.21-1.62,0-3.51-1.4-3.51-2.65a4.25,4.25,0,0,1,.16-1,173.93,173.93,0,0,0,1.29-18.69,5.54,5.54,0,0,0-.64-3.18,69.09,69.09,0,0,1-14,11.12,24.15,24.15,0,0,1-6,2.54c-.21,0-.54-.22-.54-.43s.11-.27.54-.43c8.53-3.89,25.22-21,25.22-25.71,0-.54-1-1.51-1.78-1.67-.49-.11-.6-.22-.6-.43,0-.38,1.14-.76,2.22-.76,2,0,6.1,2.92,6.1,4.37,0,.38-.16.54-.65.81A3.93,3.93,0,0,0,262,75.93a89.13,89.13,0,0,1-7.51,7.94Z"/><path class="cls-1" d="M307.75,81a2.26,2.26,0,0,1-2.49,2.32c-.7,0-1.08-.27-1.62-1.24a11.9,11.9,0,0,0-8.31-6.65c-.33-.1-.49-.21-.49-.37,0-.38,1-.65,2.54-.65C302.56,74.37,307.75,77.66,307.75,81Zm-7,24c-.81,0-2.6-1.29-3.89-2.81a4,4,0,0,1-1.35-3.4c0-1,.27-1.83.65-1.83.21,0,.32.11.43.37a3.81,3.81,0,0,0,3.24,2.76c2.21,0,8.75-4,16.58-10.26a106.45,106.45,0,0,0,10.09-9c1.08-1.08,4-4.43,4.54-5.08s.65-.86.92-.86a.44.44,0,0,1,.43.49c0,.86-2.38,4.53-5.08,7.83a84,84,0,0,1-11.55,11.66,82.88,82.88,0,0,1-12.85,8.86C301.86,104.55,301.27,104.93,300.73,104.93Z"/><path class="cls-1" d="M365.85,85.44c0,9.66.16,14.8.43,18.41.11,1.14.16,2,.16,2.43,0,2.27-.81,3.94-1.94,3.94s-2.86-2.43-2.86-3.77a7.31,7.31,0,0,1,.16-1.41c.43-3,.86-15,.86-25.76,0-5.07-.21-6.91-.86-8a2.7,2.7,0,0,0-2.59-1.35c-.38,0-.54-.16-.54-.49s.16-.37.48-.54a15.32,15.32,0,0,1,3.3-.86c.81,0,1.56.38,3.94,1.89.7.49,1,.86,1,1.24a3,3,0,0,1-.27,1c-.87,1.46-1.19,4-1.3,10a23.07,23.07,0,0,1,11.34,3.51c2.92,2,4.27,3.73,4.27,5.46a2.21,2.21,0,0,1-2.27,2.37c-1.19,0-1.78-.48-3.13-2.54a19.41,19.41,0,0,0-10.21-7.93Z"/></g></g></svg>