<svg xmlns="http://www.w3.org/2000/svg" viewBox="0 0 465.83 50.92"><defs><style>.cls-1{fill:#fff;}</style></defs><g id="Layer_2" data-name="Layer 2"><g id="Layer_1-2" data-name="Layer 1"><path class="cls-1" d="M39.07,31.92h10.3a1.15,1.15,0,0,0,1.2-1.21,1.77,1.77,0,0,0-.79-1.37l-4.21-3.2-3,3.48H38.69V26.09L40,25.37a1.84,1.84,0,0,0,1-1.46,1.48,1.48,0,0,0-1.39-1.26l-5-.3v7.27H33.49c-1.54,0-1.82,0-7.21-.22l-.72,0,.88,2.71,6.7-.15A72.49,72.49,0,0,1,22.21,45.07c-2,1.67-2,1.67-2,2.11a1,1,0,0,0,.93,1c.3,0,1,0,5.94-4.06a68.22,68.22,0,0,0,7.44-7.21V49a1.11,1.11,0,0,0,1.2,1.25c2,0,2.93-.55,2.93-1.63V36.47a30,30,0,0,0,8.54,10l.41.32.3-.43a8.54,8.54,0,0,1,3.52-3.26l.85-.49-.9-.4C45.42,39.6,41,35.87,39.07,31.92Z"/><path class="cls-1" d="M24,40.65a5.31,5.31,0,0,0-3-4.36,18.47,18.47,0,0,0-5.12-2V31.92h7.77a1.19,1.19,0,0,0,1.14-1.15A2.15,2.15,0,0,0,24,29.3l-4-3.18-2.64,3.5H15.9V25.84l1-.47A1.89,1.89,0,0,0,18,23.8a1.65,1.65,0,0,0-1.71-1.52l-4.59-.37v7.71H8.73l-1.06,0c-1.35,0-3.11-.1-6.18-.23l-.75,0,1,2.77h.36C3.7,32,5,32,5.54,32L7.27,32l1.55,0h1.64a42.85,42.85,0,0,1-9,12.28C.44,45,0,45.46,0,46a1,1,0,0,0,1,1c.29,0,1.07,0,4.48-2.88a45.38,45.38,0,0,0,6.14-6.34V49c0,1.12.63,1.36,1.15,1.36,1.71,0,3.09-.9,3.09-2V37.15a7.15,7.15,0,0,1,2.53,2.57C20,42.31,20,42.31,20.24,42.57A2.31,2.31,0,0,0,24,40.65Z"/><path class="cls-1" d="M2.93,24.73c.76,0,4.36-1.79,7.25-3.29a64.3,64.3,0,0,0,13.09-8.73V24.4a1.17,1.17,0,0,0,1.26,1.31c1.76,0,3-.78,3-1.85V11.71c4.29,5.35,9.67,9.05,17.67,12.23l.41.16.22-.38a9.92,9.92,0,0,1,3.53-4l.93-.69-1.14-.2c-8.7-1.52-14.57-4.11-19.91-8.84H46.62C47.85,10,48,9.19,48,8.84a2,2,0,0,0-.89-1.42L42.88,4.1,39.8,7.7H27.57V4.55l1.11-.88a1.77,1.77,0,0,0,.62-1.36C29.3,1.71,29,1,27.68.89L23.27.71v7H14.86c-.9,0-2.69-.06-5.34-.17-.77,0-2.7,0-5.27-.16l-.8,0,1.26,2.93h.34l2.43,0c1.06,0,1.9,0,2.27-.06,3-.11,4.83-.16,5.11-.16h4.75A50.61,50.61,0,0,1,6.3,20.72C2.24,23,2,23.24,2,23.8A1,1,0,0,0,2.93,24.73Z"/><path class="cls-1" d="M84.9,9.1a25.62,25.62,0,0,0-17,6.83A20.53,20.53,0,0,0,61.4,30.17a11.74,11.74,0,0,0,1.81,6.5,17.37,17.37,0,0,0,3.54,3.71C68.37,41.78,68.61,42,69.4,42c1.6,0,2.35-.77,4.31-3.62a88.58,88.58,0,0,0,8.75-17.66c1.58-4.32,1.65-4.42,2.15-5.17a1.2,1.2,0,0,0,.41-.83c0-.79-.84-1.79-1.88-2.63A11,11,0,0,1,84.42,12a14.61,14.61,0,0,1,10,3.5A11.85,11.85,0,0,1,99,24.94c0,5.92-3.15,10.79-8.86,13.7a53.59,53.59,0,0,1-7.64,3.1c-.62.19-1.27.39-1.27,1.18a1,1,0,0,0,1,1,12.84,12.84,0,0,0,2.38-.45,44.25,44.25,0,0,0,10.72-4c5.38-3,8.73-8.22,8.73-13.62C104.14,16.62,95.51,9.1,84.9,9.1Zm-7,11a65.27,65.27,0,0,1-6.11,14.1c-1.12,1.89-2,2.78-2.92,2.78-.55,0-1.17-.49-1.79-1.39A9.8,9.8,0,0,1,65.85,30,16.71,16.71,0,0,1,70.31,18.2a19.79,19.79,0,0,1,8.07-5.27,4.58,4.58,0,0,1,.58.25,1,1,0,0,1,.58.9A42.89,42.89,0,0,1,78,20.14Z"/><path class="cls-1" d="M149.16,15.66h15.39a1.06,1.06,0,0,0,.43-1.91l-4.72-3.9-3.68,3.52H148V4.87L149,4a1.86,1.86,0,0,0,.72-1.3,1.58,1.58,0,0,0-1.47-1.41L143.37.72V13.37h-5.44c-.9,0-2.41,0-4.14-.11l-6-.19,1,2.82h.36c4.52-.17,6.21-.22,8.73-.22h3.95a93,93,0,0,1-12.8,20.28c-1.6,1.8-1.86,2.26-1.86,2.66a.94.94,0,0,0,1,.88c1.14,0,5.51-4.59,7.45-6.82a68.34,68.34,0,0,0,7.71-10.17v12.8H142c-2.62,0-3.82,0-7.21-.16l-.71,0,.8,2.67,2.25-.07c2.35-.07,3.52-.1,4.87-.1h1.39V48.91a1.11,1.11,0,0,0,1.26,1.2,5.1,5.1,0,0,0,2.67-.85c.61-.46.69-.75.69-1.7v-10h9.22a1,1,0,0,0,1-1,1.47,1.47,0,0,0-.52-1.15l-4.14-3.26-3,3.15H148V19.23a41.73,41.73,0,0,0,13.12,18.63l.41.32.31-.42c1.49-2.06,1.64-2.2,4.22-3.7l.87-.51-.93-.38A29.86,29.86,0,0,1,149.16,15.66Z"/><path class="cls-1" d="M128,15.43a1.29,1.29,0,0,0-1-1.24l-.35-.09c1.35-3.41,1.63-4.24,2.8-8l1-.4a1.69,1.69,0,0,0,1.22-1.59,1.56,1.56,0,0,0-.95-1.44L125,.71l-.07.62c-1.18,9.54-5,20.48-9.6,27.88-.72,1.2-1,1.69-1,2.1a.84.84,0,0,0,.82.82c.52,0,.86-.33,1.46-1.09a46.82,46.82,0,0,0,5.76-8.16V49.29c0,.58.39,1.2,1.48,1.2a4.55,4.55,0,0,0,2.54-.87,1.89,1.89,0,0,0,.66-1.73V17l.44-.49A1.54,1.54,0,0,0,128,15.43Z"/><path class="cls-1" d="M175.87,33.69,174,33.58l.09.61a9.73,9.73,0,0,1,.1,1.55,9.23,9.23,0,0,1-1.06,4.06c-1.59,2.66-1.59,2.66-1.59,3.23a2,2,0,0,0,2.07,1.79c1.89,0,3.25-2.48,3.25-5.9A12.61,12.61,0,0,0,176,34Z"/><path class="cls-1" d="M180.24,31.89l-1.3,1,.35.41a11.74,11.74,0,0,1,2.31,5.66c.08,1,.48,1.43,1.2,1.43A2.27,2.27,0,0,0,184.87,38c0-2-1.62-4.25-4.34-5.93Z"/><path class="cls-1" d="M181.2,40.11A9.17,9.17,0,0,0,178,33.48l-.29-.27-1.2.83.15.37a9.36,9.36,0,0,1,.88,4.13c0,.63,0,1.23,0,1.77a2,2,0,0,0-.06.63,1.66,1.66,0,0,0,.39,1.3,1.62,1.62,0,0,0,1.24.48C180.41,42.72,181.2,41.74,181.2,40.11Z"/><path class="cls-1" d="M184.3,34.55c1,2.14,1.32,2.71,2.45,2.71a1.89,1.89,0,0,0,1.68-2c0-2.08-2.4-4.18-6-5.23l-.46-.14-.48,1.43.26.22A9.66,9.66,0,0,1,184.3,34.55Z"/><path class="cls-1" d="M219.48,21.58l.32-.37A12.13,12.13,0,0,1,223.34,18l.76-.44L223,17a8.27,8.27,0,0,0-1.35-.79,32.17,32.17,0,0,1-9.15-6.8A22.07,22.07,0,0,1,209,4.45l.08,0a1.34,1.34,0,0,0,1.13-1.25,1.57,1.57,0,0,0-1-1.38L204.45,0l-.18.44c-4.1,9.71-6.33,13.65-10.57,18.57L190,16.08l-2.43,3h-1.74V13.83H193a1.16,1.16,0,0,0,1.15-1.1,1.64,1.64,0,0,0-.63-1.1l-3.85-2.89-2.15,2.79h-1.74V6.43h9.38a1,1,0,0,0,1-1.1,1.48,1.48,0,0,0-.62-1.14l-4-3.24L189.1,4.13h-10l-4.26-2.47V30.93a1.08,1.08,0,0,0,1.2,1,7.7,7.7,0,0,0,1.79-.43,1.58,1.58,0,0,0,1-1.53V28.89h10c-.06,5.73-.23,8.37-.69,10.8-.88,4.68-1.56,5.43-3.29,5.43-.17,0-.7,0-1.24-.11l-5.08-.59-.43,1.72,3.67,1.46,1.67.6a7.85,7.85,0,0,1,.15.81A1.35,1.35,0,0,0,185,50.38c2,0,4.51-2,5.69-4.39,1.26-2.74,1.76-6.29,2.19-15.73l.66-.23a1.39,1.39,0,0,0,.87-1.15,1.67,1.67,0,0,0-.54-1l-3.67-3.36-1.47,2.15h-3V21.39h5.73c-.64.73-.79,1.1-.79,1.39a.91.91,0,0,0,.93.82c.65,0,2.06-1.06,3.5-2.34V37a1.06,1.06,0,0,0,1.14,1.15c1.78,0,2.93-.62,2.93-1.58v-3h4.43c-1.08,7-4.16,11.18-10.84,14.83-1.58.88-1.71.95-1.71,1.52a1.06,1.06,0,0,0,1,1c.38,0,1-.15,3.3-1.24,4.4-2.2,6.63-3.83,8.54-6.24,1.59-2.08,2.35-3.76,3.23-7.31a27.73,27.73,0,0,0,11,13.69l.34.21.28-.28.27-.26a2.28,2.28,0,0,0,.35-.36l.44-.39c.21-.18.38-.32.46-.41s.58-.35,1.26-.68l.57-.33.81-.46.84-.49-.88-.4c-7.69-3.48-11.62-6.89-14.18-12.38h5.32v1.28c0,.65.79,1,1.36,1,1.28,0,2.66-.62,2.66-1.63V26.37l.75-.39a1.14,1.14,0,0,0,.66-.94,1.71,1.71,0,0,0-.55-1.08l-3.87-3.37-1.45,2.55h-5.53V18.63h5.71a.86.86,0,0,0,.82-.88,1.62,1.62,0,0,0-.11-.54,52.34,52.34,0,0,0,4.6,4.07ZM182,26.65h-3.1V21.39H182Zm0-7.56h-3.1V13.83H182Zm0-7.56h-3.1V6.43H182Zm22,19.76h-4.72V25.44h4.94C204.12,28.56,204.08,29.86,204,31.29Zm-4.43-8.15-3.85-2.35c.8-.73,1.57-1.5,2.2-2.16H204c.13,1.87.13,2.41.13,4.51Zm14.54,2.3v5.85H208c.13-2.58.14-3.27.14-5.85Zm-4.29-12.28-2.43,3.23h-7.4A57.07,57.07,0,0,0,207,5.78,34.08,34.08,0,0,0,213.31,16Z"/><path class="cls-1" d="M271.69,3.32A5.71,5.71,0,1,0,277.32,9,5.75,5.75,0,0,0,271.69,3.32Zm-.11,8.86A3.12,3.12,0,1,1,274.7,9,3.16,3.16,0,0,1,271.58,12.18Z"/><path class="cls-1" d="M263.29,11.2l-.43-.33-1,1.65c-5.13.31-7.71.47-8.45.58l-9.66.81-4.28.32c-.93,0-1.23-.14-3.72-2.31l-.35-.3-.33.33a4,4,0,0,0-1.23,2.35c0,1.18,4.41,5.25,5.68,5.25A3.13,3.13,0,0,0,241,19c1.94-1.17,2-1.22,16.91-2.79l3.76-.4c-3.77,14-9.07,20.65-21.48,27.27-1,.55-1.57.94-1.57,1.58a1.15,1.15,0,0,0,1.15,1c.85,0,4.65-1.9,5.8-2.49,8-4.23,12-7.64,15.58-13.52a46.55,46.55,0,0,0,5.49-12.08c1.11-.43,1.82-.81,1.82-1.62S267.7,14.5,263.29,11.2Z"/><path class="cls-1" d="M314.5,15.85l-4.05-3.27-1.91,2.21L291,16.27c-3.49-2.79-4.1-3.17-4.9-3.17s-1.14.24-2.66,1.27l-.64.44.66.4c.66.4,1,.59,1.25.73s.35.19.58.34c.62.4.66.43.8,1.28.21,1.41.25,2,.8,11.89.33,5.38.33,5.38.33,6.18a4.4,4.4,0,0,1-.27,1.59l0,.18a4.24,4.24,0,0,0-.08.66c0,1,1.77,3.14,2.87,3.14a2,2,0,0,0,1.85-2l0-1.16c7.85-.94,9.41-1,13.52-1a21.28,21.28,0,0,1,6.38.75,4.71,4.71,0,0,0,.8.12,1.73,1.73,0,0,0,1.53-1.69c0-1.18-.81-1.71-3.12-2.92l2.73-13.37.35-.15c1.41-.58,2-.91,2-1.92A2.68,2.68,0,0,0,314.5,15.85Zm-7.71,17.3c-6.54.36-12.1.82-15.45,1.26l-.52-13.11,0-1.55a122.48,122.48,0,0,1,16.66-1.33h1.13C308.17,23.54,307.63,28,306.79,33.15Z"/><path class="cls-1" d="M365.76,4.61a11.27,11.27,0,0,0-4.89-1.13l-.4,0L360,5l.35.19a12.93,12.93,0,0,1,5.18,4.66,2.54,2.54,0,0,0,2,1.34A2.23,2.23,0,0,0,369.71,9C369.71,7.25,368.3,5.71,365.76,4.61Z"/><path class="cls-1" d="M357.75,12.07l-.31-.25-2,1.63a14.15,14.15,0,0,1-2.55.13c-.35,0-1.79.06-3.16.16l-3.69.18c.37-.6.64-1.07.92-1.54.48-.87.48-.87,1.44-1.3a1.48,1.48,0,0,0,1.1-1.43c0-.74-.34-1.08-1.07-1.65-2.5-1.74-4.24-2.63-5.15-2.63-.75,0-3.15.78-3.15,1.69a.84.84,0,0,0,.16.44l.08.16.16.07L341,8a1.51,1.51,0,0,0,.26.12c1.49.68,1.71,1,1.71,1.08a66.33,66.33,0,0,1-4.35,8.46c-3.27,5.12-7.42,10.13-10.31,12.46-.81.64-1.11.93-1.11,1.47a1,1,0,0,0,.93,1c1,0,4.36-2.78,5.57-3.85a56.23,56.23,0,0,0,10.12-11.49l.55.59.8-.16a64.13,64.13,0,0,1,9.84-.93c-5.51,12.91-12.39,21-23.58,27.94-.57.36-1,.7-1,1.28a1.09,1.09,0,0,0,1.09,1c.32,0,.9-.13,3.71-1.74,8.67-5.12,13.14-9,17.71-15.43a74.8,74.8,0,0,0,6.59-11.33,1.51,1.51,0,0,1,.11-.26,4.13,4.13,0,0,1,.86-.26c.45-.14,1.38-.42,1.38-1.29C361.88,16.1,361.46,15,357.75,12.07Z"/><path class="cls-1" d="M361.65,8.34A16.63,16.63,0,0,0,357.28,7l-.46-.09-.44,1.52.26.21c2.55,2,3.47,3,4.48,4.63s1.63,2.34,2.53,2.34a2.58,2.58,0,0,0,2.17-2.55C365.82,11.33,364.34,9.66,361.65,8.34Z"/><path class="cls-1" d="M383.29,11.48c2.82,2.62,3.23,2.62,3.47,2.62a1.26,1.26,0,0,0,.73-.28c1-.54,1.84-.81,4.61-1a121.9,121.9,0,0,1,13.62-.92,12.89,12.89,0,0,1,1.38.1,17.92,17.92,0,0,0,2.4.23,1.92,1.92,0,0,0,1.69-2c0-1.19-1.17-1.88-4.9-3.49L406,6.64,404,8.41,391.09,9.48c-1.17.11-2.3.16-3.36.16-1.37,0-1.37,0-3.72-2l-.4-.35-.32.43c-.81,1.05-1.08,1.57-1.08,2.08S382.58,10.82,383.29,11.48Z"/><path class="cls-1" d="M410.29,16.89l-.35-.2-1.65,1.82L391,20c-6.4.53-6.47.54-6.77.54-1,0-1.35-.17-3.56-2l-.4-.35-.32.43a4.29,4.29,0,0,0-1.08,2.19c0,1.17,3.7,5,4.82,5,.45,0,.84-.3,1.39-.86.38-.56,3.14-1,9.14-1.84l13.57-1.27a50,50,0,0,1-21.95,23.5c-2.05,1.08-2.54,1.33-2.54,2.06a1.09,1.09,0,0,0,1,1c.5,0,1.08-.27,3.24-1.29,8.26-4,11.65-6.32,15.76-10.69,3.72-3.94,5.52-6.45,9.54-13.34,1.32-.56,2-1.05,2-2C414.91,20,412.42,18.11,410.29,16.89Z"/><path class="cls-1" d="M462.66,33.33a32.21,32.21,0,0,0-9.81-9c-3.15-1.91-3.15-1.91-3.56-1.91a1,1,0,0,0-1,1c0,.46.3.78,1.2,1.51a38.38,38.38,0,0,1,7.36,8.25c-6.48,1.29-8.53,1.63-19.38,3.41L447.69,16c.48-.91.48-.91,1.24-1.28s1.3-.6,1.3-1.43-.64-1.64-2.36-3c-1.38-1.06-3.86-2.59-4.73-2.59-.57,0-1.15.33-2.58,1.46l-.57.45.63.37c3,1.75,3,1.81,3,2.27,0,1.34-5.43,14.69-9.57,24.76l-2.62.34-1.46.16c-.52,0-1.09-.6-2.11-2.2l-.33-.51-.43.41a3.8,3.8,0,0,0-1.35,2.42c0,1.54,3.82,5.68,5.25,5.68.64,0,1.07-.33,2.15-1.45l11.5-2.81,6.29-1.53c2.61-.66,4.9-1.24,7.49-1.85a35.57,35.57,0,0,1,1.85,4.08c.85,2.28,1.49,3.29,3,3.29a2.57,2.57,0,0,0,2.55-2.87C465.83,38.34,465,36.47,462.66,33.33Z"/></g></g></svg>