<svg xmlns="http://www.w3.org/2000/svg" viewBox="0 0 477.55 32.94"><defs><style>.cls-1{isolation:isolate;}.cls-2{fill:#333;}</style></defs><title>Asset 2</title><g id="Layer_2" data-name="Layer 2"><g id="Layer_1-2" data-name="Layer 1"><g class="cls-1"><path class="cls-2" d="M5.54,20.41c-.32,0-1.08,0-2.19.07-.33,0-1.23,0-2.27,0L.65,19.37l4.82.18h2.3V14.43l2.7.22c.5,0,.83.32.83.68a1,1,0,0,1-.54.76l-.83.4v3.06h1.44L13,17.35l2.42,1.91a1.1,1.1,0,0,1,.43.72.47.47,0,0,1-.43.43H9.93v2.2a12.37,12.37,0,0,1,3.56,1.33,3.21,3.21,0,0,1,1.84,2.62,1.31,1.31,0,0,1-1.23,1.3,1.31,1.31,0,0,1-.75-.29,12.49,12.49,0,0,1-1.12-1.8,5.83,5.83,0,0,0-2.3-2.16v8.07c0,.54-.79,1-1.73,1-.32,0-.43-.18-.43-.57V23.72a30.59,30.59,0,0,1-4.64,4.93C1.76,29.8.76,30.49.36,30.49A.36.36,0,0,1,0,30.13c0-.18.18-.4.86-.94a28.84,28.84,0,0,0,6.3-8.78Zm4-14.61c-.22,0-1.51,0-3.42.1-.43,0-1.72,0-3.13.08L2.48,4.72c1.66.07,3,.1,3.53.1,1.76.08,3,.11,3.56.11h5.94V.29L18.1.4c.5,0,.75.21.75.61a.85.85,0,0,1-.28.65l-.87.68V4.93h8.64l1.94-2.27,2.55,2a1.06,1.06,0,0,1,.47.68c0,.29-.18.44-.57.44H18.31c3.75,3.52,7.88,5.47,14.07,6.55a6.91,6.91,0,0,0-2.44,2.77c-5.62-2.23-9.32-4.9-12.24-8.82v9.07c0,.5-.72.9-1.69.9-.36,0-.5-.18-.5-.54V7.24A44.45,44.45,0,0,1,6.3,13.46a27.32,27.32,0,0,1-4.68,2.16.3.3,0,0,1-.29-.29c0-.18.36-.43,2.7-1.76A34.87,34.87,0,0,0,13.49,5.8Zm8,14.72-.36-1.12c3.6.15,3.78.15,4.82.15H23V14.72L26,14.9c.32,0,.61.29.61.51a.9.9,0,0,1-.47.68l-1,.58v2.88h3.06l1.91-2.2,2.55,1.94a.85.85,0,0,1,.4.65.44.44,0,0,1-.47.47H25.19c1.15,2.84,4.28,5.61,8.6,7.52a6,6,0,0,0-2.45,2.27,19.41,19.41,0,0,1-6.23-7.92v9.58c0,.5-.54.75-1.61.75-.33,0-.47-.14-.47-.5V23.22a49.32,49.32,0,0,1-5.51,5.4c-2,1.65-3.38,2.62-3.74,2.62a.35.35,0,0,1-.29-.32c0-.14,0-.14,1.19-1.15a49.83,49.83,0,0,0,7.7-9.36Z"/><path class="cls-2" d="M56.93,7a33.44,33.44,0,0,1,.5,4.36A19.73,19.73,0,0,1,53,22.82c-2.08,2.7-4,4-5.9,4a3.21,3.21,0,0,1-2.48-1.36,8.43,8.43,0,0,1-1.87-5.69c0-7.63,6.62-13.9,14.68-13.9,7.12,0,12.09,4.47,12.09,10.87,0,5.73-3.38,10.37-9.07,12.42a22,22,0,0,1-4.93,1.19c-.25,0-.47-.18-.47-.32s.11-.15.62-.29a16.43,16.43,0,0,0,6.8-3.56,13.15,13.15,0,0,0,4.1-10c0-3.31-1-5.76-3.1-7.3A9.25,9.25,0,0,0,57.94,7Zm-1.44.14A12.81,12.81,0,0,0,45,19.91c0,2.66,1,4.67,2.37,4.67,1.55,0,4.43-2.91,6.19-6.26A22.8,22.8,0,0,0,56,9.83a7.06,7.06,0,0,0-.47-2.49Z"/><path class="cls-2" d="M86.55,6.52H85.11c-.76,0-1.48,0-3.74.1L80.9,5.51l2.52.11c.75,0,1.44,0,1.69,0h1.44V.29l3.16.5a.51.51,0,0,1,.47.51.85.85,0,0,1-.43.68l-.86.4V5.65h1l1.62-1.91,2.34,1.84c.75-1.08.86-1.26,1.65-2.52l2.13,1.69a1,1,0,0,1,.21.58c0,.32-.25.54-.72.61l-.79.11c-1.62,2-2.45,3-4.17,5h2.41l1.76-1.91,2.09,1.77a.66.66,0,0,1,.29.5.47.47,0,0,1-.47.51h-6.8a38.46,38.46,0,0,1-3.42,3.67h4l1.08-1.26,2.34,2.08a.72.72,0,0,1,.15.4c0,.32-.18.47-.62.5l-1,0-3.42,2.52c.26.22.36.36.36.54a.57.57,0,0,1-.36.47l-.46.25V23c3.09-.46,4.49-.75,8.13-1.51l.14.62-8.27,2.41v5.61c0,1.12-.15,1.37-1.15,2a3.1,3.1,0,0,1-1.34.57c-.32,0-.39-.07-.64-.93a1,1,0,0,0-.65-.58l-3.1-1v-.61l3.21.18h.18c.86,0,1.26-.15,1.26-.72V25l-4.5,1.19-.51.86c-.18.29-.39.47-.57.47s-.43-.22-.58-.47l-1.54-2.74c4-.39,5.18-.57,7.7-1v-4.4l1.79.54,2.09-3H87.2a44.75,44.75,0,0,1-6.41,5.18,7.08,7.08,0,0,1-.75.54.83.83,0,0,1-.51.22.31.31,0,0,1-.29-.29c0-.11.11-.25.33-.43a42.77,42.77,0,0,0,5.54-5.22c-1.94,0-2.23,0-4.28.11l-.54-1.12,2.73.07c1,0,1.8.08,2.09.08h.83c1.47-1.59,1.69-1.84,3.16-3.67H83.78s-1,0-2,0L79.57,12l-.47-1.11c1.19,0,2.34.07,2.7.1a18.7,18.7,0,0,0,2,0h2.77Zm3.27,4.53c1.59-2,2.13-2.7,3.38-4.53H88.89v4.53ZM104.75,1.4c.33.11.54.33.54.58s-.25.58-.75.76l-1,.32c-.61,2.81-.72,3.24-1.55,6.19h5.87L109.65,7l2.8,2.23a.57.57,0,0,1,.22.47.37.37,0,0,1-.32.4h-3.82c-1.15,6.94-1.94,9.64-3.92,13.31A23.19,23.19,0,0,0,113,29.7a5,5,0,0,0-3,2.19,27.27,27.27,0,0,1-6.66-6.51A21.91,21.91,0,0,1,96.48,31a21.39,21.39,0,0,1-4.86,2,.32.32,0,0,1-.29-.29c0-.18.15-.29.44-.43,4.78-2.31,8.52-5.47,10.32-8.72a25.46,25.46,0,0,1-2.7-7.91l-.86,1.33c-1.84,2.95-2.48,3.78-2.88,3.78a.26.26,0,0,1-.29-.25c0-.18,0-.18.72-1.44,2.88-5.48,4.21-10.51,5-18.87Zm-3,8.72A29.4,29.4,0,0,1,100,14.25a20.15,20.15,0,0,0,3.06,7.24c1.44-3.2,2.05-5.76,2.84-11.37Z"/><path class="cls-2" d="M130.78,3.38h-6.44c-.87,0-2.31.08-4.32.11l-.51-1.11,2.52.1c1,0,2,0,2.31,0h6.36l.94-1.44,2.23,2c.22.21.36.39.36.5s-.25.32-.54.43l-.72.25v11.2a.81.81,0,0,1-.18.57,2.92,2.92,0,0,1-1.62.54c-.29,0-.39-.14-.39-.54V11.73l-8.21,3.75-.11.43c-.14.61-.32.86-.68.86s-.43-.14-.86-.64l-1.87-2.31c2.41-.39,6-1.26,11.73-2.77Zm-8.28,2c3.38.9,5.22,2.26,5.22,4a1.32,1.32,0,0,1-1.26,1.47c-.65,0-.65,0-1.41-1.72a6.46,6.46,0,0,0-2.76-3.28Zm5.18,13.35H133a20,20,0,0,0,1.22-4.82L137.14,15a.53.53,0,0,1,.36.5.53.53,0,0,1-.39.51l-1.23.36-1.47,2.3h8.2l1-1.65L146,19.15c.22.22.33.36.33.5s-.18.36-.54.47l-.62.29v11a.59.59,0,0,1-.18.43,3.54,3.54,0,0,1-1.65.61c-.29,0-.43-.25-.43-.9V30.38H127.18v1.33c0,.4-1,.9-1.8.9a.39.39,0,0,1-.43-.43V17Zm15.26,5.51V19.55H127.18v4.64Zm0,5.33V25H127.18v4.54Zm3.7-26.14h-7.12c-.65,0-1,0-4.35.11l-.47-1.11c2.34.07,3,.1,4.82.14h6.76L147.51,1l2.23,2.37a.87.87,0,0,1,.25.51c0,.14-.14.29-.4.39l-.75.33V15.55c0,.36-.18.58-.65.76a4.36,4.36,0,0,1-1.22.36.31.31,0,0,1-.33-.33V11l-6.9,2.88-.33.65c-.18.36-.47.61-.68.61a.94.94,0,0,1-.51-.28l-1.9-2.27a75.68,75.68,0,0,0,10.32-2.23Zm-9.35,1.44c3.2.72,5,2.16,5,4a1.28,1.28,0,0,1-1.18,1.4c-.65,0-.8-.18-1.41-1.87a6.49,6.49,0,0,0-2.55-3.06Z"/><path class="cls-2" d="M164.53,9.61h5.87l1-1.44,2.19,1.76c.32.26.54.54.54.73s-.22.43-.54.53l-.72.22v8.35c0,.51-.72.87-1.69.87-.4,0-.54-.18-.54-.62V17.67h-6.51c-.15,4.76-1,7.89-3.13,11.2-1.12,1.73-2.34,3.17-2.7,3.17a.33.33,0,0,1-.29-.33c0-.18.07-.32.51-.93,2.23-3,3.27-7.56,3.27-14.22,0-1.95-.07-3.89-.29-8.86Zm8.21-8.42,2.48,1.91a1,1,0,0,1,.4.72.39.39,0,0,1-.36.39h-12c-.79,0-1.07,0-4.42.11l-.4-1.12,2.38.08,2.44.07h7.38Zm-2.09,15.62V10.47H164.1v6.34ZM179,5.15a34.06,34.06,0,0,0,8.17-3.85L189.65,3c.43.29.65.58.65.83s-.26.58-.76.58h-1.37l-9.32,1.73v7.05h7.78L188.57,11l2.66,2.27c.18.18.25.28.25.46a.39.39,0,0,1-.39.36H186V31.14c0,.46-.11.57-.58.79a7.6,7.6,0,0,1-1.4.36c-.29,0-.43-.22-.43-.65V14.07h-4.68c-.22,6.27-.5,8.1-1.58,10.34a18.25,18.25,0,0,1-6.19,6.69,4.64,4.64,0,0,1-1.8.9.3.3,0,0,1-.29-.29c0-.21.11-.36.86-.9a16.34,16.34,0,0,0,4.72-5.61c1.44-2.81,1.87-5.83,1.87-12.93,0-2.73-.07-4.53-.36-8.53Z"/><path class="cls-2" d="M216.42,12.09a8.33,8.33,0,0,1,5.37-2.3c2.55,0,4.53,1.51,4.53,3.46a2.12,2.12,0,0,1-.94,1.9c-.75.58-1,.65-4.31,2a62.13,62.13,0,0,0-7.7,3.5c.1,1.58.18,2.73.18,3.31,0,1.8-.36,2.27-1.8,2.27-.43,0-.65-.15-.65-.37a.78.78,0,0,1,0-.28,28.77,28.77,0,0,0,.18-3.89C208.22,23.5,207,25,207,26.56c0,1.8,1.69,2.52,5.9,2.52a20.73,20.73,0,0,0,5.29-.64,2.8,2.8,0,0,1,.94-.18,1.92,1.92,0,0,1,1.72,1.47c0,1.19-2.37,1.8-7.26,1.8a11.86,11.86,0,0,1-5.87-1.08,4.27,4.27,0,0,1-2.48-3.67A4.54,4.54,0,0,1,207,23.4a25.9,25.9,0,0,1,4.25-2.77c0-2.56-.14-3.75-.47-4.54a1.87,1.87,0,0,0-1.69-1.26,4.17,4.17,0,0,0-2.55,1.33,22.28,22.28,0,0,0-3.1,3.85c-.39.69-.79,1-1.19,1S201,19.83,201,18.9c0-.47.14-.72.86-1.26,3.88-3.39,6.26-6.88,6.94-10.22A11.12,11.12,0,0,1,205.7,8a2.24,2.24,0,0,1-1.87-1.3,4.68,4.68,0,0,1-.54-1.37.15.15,0,0,1,.15-.14s.1,0,.18.14a2.27,2.27,0,0,0,2.12.94A9.57,9.57,0,0,0,209,5.72a6.15,6.15,0,0,0,.11-1,1.71,1.71,0,0,0-1.69-1.95c-.14,0-.18,0-.18-.14,0-.33,1.22-.9,1.91-.9a2.47,2.47,0,0,1,2.37,2.12,5.49,5.49,0,0,1-.29,1.37A5.35,5.35,0,0,0,213.55,4c1.22.61,1.58.86,1.58,1.15s-.79.75-4.21,1.76a42,42,0,0,1-4.1,7.67,5.61,5.61,0,0,1,2.37-.65,3.66,3.66,0,0,1,2.31.83,5.3,5.3,0,0,1,1.33,2.55A14.66,14.66,0,0,1,216.42,12.09ZM218,16.77a36.39,36.39,0,0,0,4.61-2.7,2,2,0,0,0,.72-1.26,2.18,2.18,0,0,0-2.2-1.8c-1.87,0-4.32,1.7-5.72,4a18.32,18.32,0,0,0-2.12,4.43C214.7,18.57,215,18.43,218,16.77Z"/><path class="cls-2" d="M250.69,16.67h-2.38v1.47c0,.4-.65.72-1.44.72-.39,0-.65-.21-.65-.54V3.6L248.74,5h1.62a31.57,31.57,0,0,0,.69-5l2.84.47c.43.07.68.32.68.61a1,1,0,0,1-.5.76l-.76.54L251.77,5h3.45l.86-1.36,2.05,1.94a.84.84,0,0,1,.26.58.67.67,0,0,1-.4.54l-.58.32V17.49c0,.65-.68,1.12-1.62,1.12-.32,0-.46-.18-.46-.54v-1.4h-2.41v4.14h10l1.87-2.34,2.87,2.37c.26.18.36.36.36.51a.36.36,0,0,1-.39.32H253.85c3.53,3.56,8.85,6,15,6.91a9.74,9.74,0,0,0-2.77,2.81,29.34,29.34,0,0,1-7.41-3.78,25.52,25.52,0,0,1-5.72-5.47v9.5a.55.55,0,0,1-.11.36,2.8,2.8,0,0,1-1.58.58.52.52,0,0,1-.54-.47V22.93a39.69,39.69,0,0,1-9.86,6.62,22.4,22.4,0,0,1-5.11,2,.3.3,0,0,1-.33-.29c0-.18,0-.18,2.13-1.26a41,41,0,0,0,11-8.31h-5.47c-2.48.07-3.6.07-6.62.18L236,20.59l3.85.14c1.58,0,2.66.08,3.24.08h7.63Zm-5.29-4-5.83,4.79-.15.69c-.1.46-.39.75-.72.75a.77.77,0,0,1-.39-.14L236,16.45c3.13-1.37,4.21-1.91,9.1-4.5Zm-8.21-8.89c3.64.87,6.08,2.92,6.08,5A1.42,1.42,0,0,1,242,10.33a1.18,1.18,0,0,1-.9-.4c-.25-.25-.25-.25-1-2.23a10.69,10.69,0,0,0-3.06-3.52Zm18.14,6.66V5.87h-7V10.4Zm0,5.4V11.27h-7V15.8ZM266,5.22a.43.43,0,0,1,.18.32c0,.18-.21.36-.68.47l-1.22.32-5.22,4.4c-.36.28-.54.39-.72.39s-.29-.11-.29-.32.15-.4,1.58-2.23c1-1.33,1.91-2.63,3.82-5.47Zm-7.52,6.55c2.92.47,4.21.86,5.62,1.69s2.3,1.87,2.3,2.88a1.32,1.32,0,0,1-1.26,1.33c-.47,0-.58-.1-2.45-2.26a14.46,14.46,0,0,0-4.28-3Z"/><path class="cls-2" d="M300.67,23.11c0,.61-.83,1.94-2.05,3.35-2.84,3.16-6.08,4.75-9.86,4.75a7.94,7.94,0,0,1-6-2.27c-1.51-1.62-2.16-3.74-2.16-7,0-2.16,0-2.63.72-12,.22-3,.22-3,.22-3.46,0-2.3-.54-3.27-1.76-3.27-.22,0-.33-.07-.33-.18,0-.4.76-.72,1.59-.72,1.83,0,3.59,2.09,3.59,4.32a9.55,9.55,0,0,1-.54,2.73,78.1,78.1,0,0,0-1.51,12.35c0,5,2,7.31,6.48,7.31a13.27,13.27,0,0,0,7.88-2.92A14.42,14.42,0,0,0,300,23.15c.14-.26.28-.36.43-.36A.29.29,0,0,1,300.67,23.11Z"/><path class="cls-2" d="M319.64,6.19c0-2.37-.36-2.95-1.84-3-.28,0-.32,0-.32-.15,0-.28,1.4-.93,2-.93a5.67,5.67,0,0,1,2.26.75,1.5,1.5,0,0,1,.76,1.08,4.05,4.05,0,0,1-.25,1,18.76,18.76,0,0,0-.62,3c1.62-.61,2.16-1,2.56-1.66,1.11.07,2.16.76,2.16,1.33,0,.33-.18.47-.87.8a24.64,24.64,0,0,1-4.21,1.54c-.25,1.88-.28,2.13-.54,3.93A1.63,1.63,0,0,1,322,15.41a23.7,23.7,0,0,1-1.15,4.53c-1,3.46-1.36,5.11-1.36,6.44,0,1.66,1.25,2.42,4.06,2.42a21.52,21.52,0,0,0,6.91-1.26c1.22-.58,1.69-1.44,1.69-3.17,0-1.08,0-1.51-.54-6.8-.25-2.38-.36-4.11-.36-5.19,0-2.3.94-3.49,2.74-3.49,3.27,0,7.44,3.42,7.44,6.12,0,1.19-1,2.52-1.8,2.52-.14,0-.25-.07-.36-.25-.86-1-1.69-1.26-3.77-1.23-.29,0-.43-.07-.43-.25s0-.18.32-.21a2,2,0,0,0,.43-.11c.5-.07.9-.18,1.3-.25,1.11-.22,1.47-.47,1.47-1a5.31,5.31,0,0,0-1.44-2.63,5.23,5.23,0,0,0-3.34-1.84c-1.05,0-1.59.94-1.59,2.85a43,43,0,0,0,.9,8.13c.54,2.45,1,3.5,1.91,4.29a2,2,0,0,1,.18.82c0,1.16-.76,2.16-2.2,3a18.82,18.82,0,0,1-8.49,1.84c-4.6,0-6.8-1.41-6.8-4.36a18.53,18.53,0,0,1,.43-3,1.88,1.88,0,0,1-1.4.54c-1.4,0-2.3-1.66-2.3-4.18,0-3.42,1.94-6.15,4.35-6.15a3.92,3.92,0,0,1,.54,0c.07-1.61.11-1.87.18-3.2a17.84,17.84,0,0,1-4.68.9c-1.15,0-1.65-.29-2.05-1.15a6.57,6.57,0,0,1-.54-2.56c0-.18.07-.28.22-.28s.11,0,.18.18a2.48,2.48,0,0,0,2.59,1.94,17.32,17.32,0,0,0,4.35-.83,9.78,9.78,0,0,1,0-1.29ZM317,16a8.37,8.37,0,0,0-.83,3.75c0,1.4.54,2.37,1.29,2.37s1.05-.5,1.26-1.73c.29-1.54.69-4.17.69-4.5,0-.72-.25-1.15-.72-1.22S317.37,15.23,317,16Z"/><path class="cls-2" d="M358.87,17.64a11.42,11.42,0,0,1-.8,4.35c-.86,2.09-2.87,3.78-4.49,3.78A1.87,1.87,0,0,1,352,24.19c0-.54.18-.69,1.37-1.23a8.82,8.82,0,0,0,4.85-5.43c0-.18.11-.22.25-.22S358.87,17.42,358.87,17.64Zm7.37-4.57c0,.72,0,2.37,0,5l.07,4c0,1.26,0,2.51.07,2.69,0,.69,0,1.3,0,1.66a3.45,3.45,0,0,1-1.26,2.84,3.34,3.34,0,0,1-2.05,1c-.36,0-.51-.22-.54-.8-.11-1.62-.65-2.52-2.41-4-.15-.15-.22-.22-.22-.33s.22-.32.36-.32.36.11.86.43c1.34.87,1.66,1.05,2.05,1.05.87,0,.87,0,.9-7.31,0-3.24.08-4.86.08-4.86v-1a32.47,32.47,0,0,0-7.56,1.59,3,3,0,0,1-1,.25,4.06,4.06,0,0,1-1.62-.65,2.83,2.83,0,0,1-1.47-2.45c0-.21.07-.32.21-.32s.18.07.29.21c.51.65,1.33.87,3.1.87a79.34,79.34,0,0,0,8-.68c0-5.48-.22-5.87-2.27-6.12-.21,0-.32-.08-.32-.15,0-.36,1.33-1.08,2-1.08a4.58,4.58,0,0,1,2.67,1.08c.57.47.9.83.9,1a.9.9,0,0,1-.11.36c-.47.75-.58,1.36-.76,4.57,4.07-.33,6.26-.72,7.45-1.3.72-.4.72-.4,1-.4.51,0,1,.26,2.2,1.05.82.54,1.08.83,1.08,1.22a.94.94,0,0,1-.87.87,5.23,5.23,0,0,1-.64-.08,35.85,35.85,0,0,0-5.29-.39c-1.51,0-3.6.14-5,.29Zm6.69,4.86c3,1.8,4.79,3.92,4.79,5.76a1.82,1.82,0,0,1-1.69,2c-.69,0-.9-.26-1.3-1.77-.68-2.73-3.24-5.87-5.5-6.69-.18-.08-.25-.15-.25-.26s.18-.28.39-.28A8.46,8.46,0,0,1,372.93,17.93Zm6.19-13.57A3.53,3.53,0,1,1,375.63.83,3.53,3.53,0,0,1,379.12,4.36Zm-5.83,0a2.31,2.31,0,1,0,2.27-2.31A2.32,2.32,0,0,0,373.29,4.36Z"/><path class="cls-2" d="M403.85,13.61c1.83.82,1.83.82,1.83,1.18a1.18,1.18,0,0,1-.14.51,7.89,7.89,0,0,0-.32,2.88l.07,3.67V26l0,2.49c0,.46,0,.9,0,1.18,0,.94-.32,1.48-.86,1.48-1.08,0-2.34-.94-2.34-1.76a3,3,0,0,1,.1-.69,113,113,0,0,0,.87-12.45,3.73,3.73,0,0,0-.43-2.13,45.91,45.91,0,0,1-9.36,7.42,16.06,16.06,0,0,1-4,1.69c-.15,0-.36-.14-.36-.29s.07-.18.36-.28c5.68-2.6,16.8-14,16.8-17.14,0-.36-.68-1-1.19-1.11-.32-.08-.39-.15-.39-.29s.75-.51,1.47-.51c1.33,0,4.07,1.95,4.07,2.92,0,.25-.11.36-.43.54a2.66,2.66,0,0,0-1.3,1.08,59.79,59.79,0,0,1-5,5.29Z"/><path class="cls-2" d="M432.57,11.45A1.5,1.5,0,0,1,430.91,13c-.47,0-.72-.18-1.08-.82a7.89,7.89,0,0,0-5.54-4.43c-.21-.07-.32-.15-.32-.25,0-.25.65-.43,1.69-.43C429.11,7.06,432.57,9.25,432.57,11.45Zm-4.68,16a5.37,5.37,0,0,1-2.59-1.87,2.67,2.67,0,0,1-.9-2.27c0-.68.18-1.22.43-1.22s.22.07.29.25a2.54,2.54,0,0,0,2.16,1.83c1.47,0,5.83-2.7,11-6.84a68.91,68.91,0,0,0,6.73-6c.72-.72,2.66-3,3-3.38s.43-.58.61-.58a.29.29,0,0,1,.28.33c0,.57-1.58,3-3.38,5.22a55.77,55.77,0,0,1-7.7,7.77,54.4,54.4,0,0,1-8.56,5.9C428.65,27.18,428.25,27.43,427.89,27.43Z"/><path class="cls-2" d="M467.15,14.43c0,6.45.11,9.87.29,12.28.07.75.11,1.29.11,1.62,0,1.51-.54,2.63-1.3,2.63s-1.91-1.62-1.91-2.52a5.13,5.13,0,0,1,.11-.94c.29-2,.58-10,.58-17.17,0-3.38-.15-4.61-.58-5.33a1.8,1.8,0,0,0-1.72-.9c-.26,0-.36-.1-.36-.32s.1-.25.32-.36a10.2,10.2,0,0,1,2.19-.58c.54,0,1.05.26,2.63,1.26.47.33.68.58.68.83a2,2,0,0,1-.18.69c-.57,1-.79,2.66-.86,6.69a15.44,15.44,0,0,1,7.56,2.34c1.94,1.33,2.84,2.48,2.84,3.64A1.47,1.47,0,0,1,476,19.87c-.79,0-1.19-.32-2.09-1.69a12.88,12.88,0,0,0-6.8-5.29Z"/></g></g></g></svg>