<svg xmlns="http://www.w3.org/2000/svg" viewBox="0 0 151.87 28.73"><defs><style>.cls-1{fill:#542625;}</style></defs><g id="Layer_2" data-name="Layer 2"><g id="Layer_1-2" data-name="Layer 1"><path class="cls-1" d="M1,11.81a45,45,0,0,1,9.25,2.75L9.09,17.44A46.81,46.81,0,0,0,0,14.59Zm1.32,16.7c-.93-2.59-1.16-3.26-1.16-3.71s.13-.55.39-.55.48.16,1.09.74c10.81-1.63,15-6.53,18.52-16.16a13,13,0,0,0,2.5,2.53C19.74,21.05,14.5,25.76,4.42,28ZM2.85,5a35.8,35.8,0,0,1,9.5,3.3L11,11.13A29.63,29.63,0,0,0,1.79,7.84Zm17-2.81a21.57,21.57,0,0,1,4.67,4.86L22.88,8.51a22.2,22.2,0,0,0-4.67-5ZM23,0a21.32,21.32,0,0,1,4.41,4.58L25.89,5.92a20.16,20.16,0,0,0-4.42-4.64Z"/><path class="cls-1" d="M47.49,24.67h4.67l4.35-.1v2.76l-4.35-.1H40.1l-4.36.1V24.57l4.36.1h4.41v-8.9H41.57l-4.35.07V13.09l4.35.12h9.24l4.36-.12v2.75l-4.36-.07H47.49Z"/><path class="cls-1" d="M91.65,11.84c0,.8-.07,1.63-.1,2.43C91.23,22.49,84.26,27.65,75,28.73a8.41,8.41,0,0,0-1.57-2.94c9-1.06,14.27-4.77,14.75-11.1H74.27l-5.15.12V11.65l5.15.12H86.5l5-.12ZM77.25,5h6.43l5.18-.12V8l-5.18-.1H77.25L72.06,8V4.9Z"/><path class="cls-1" d="M103.1,17.89V14.46l5.22.16h13.82l5.22-.16v3.43l-5.22-.13H108.32Z"/><path class="cls-1" d="M142.08,12.25a38.33,38.33,0,0,1,9.79,4.26l-1.7,2.88a37.45,37.45,0,0,0-9.5-4.42v8.52l.13,5.18h-3.55l.09-5.18V4.64c-.8-.45-1-.67-1-1s.19-.42.77-.42A18.76,18.76,0,0,1,141,4l-.29,1.85v8.55Z"/></g></g></svg>