<svg xmlns="http://www.w3.org/2000/svg" width="302.26" height="55.94" viewBox="0 0 151.13 27.97">
  <defs>
    <style>
      .cls-1 {
        fill: #532525;
        fill-rule: evenodd;
      }
    </style>
  </defs>
  <path id="ジェラート" class="cls-1" d="M1679.43,2477.58a20.12,20.12,0,0,1,4.38,4.73l1.44-1.25a20.582,20.582,0,0,0-4.41-4.57Zm-13.98,24c9.5-2.05,15.39-6.5,19.2-16.52a12.326,12.326,0,0,1-1.83-1.85c-3.87,10.27-9.95,14.85-18.72,16.06a2.35,2.35,0,0,0-1.05-.7,0.378,0.378,0,0,0-.39.41,17.546,17.546,0,0,0,1,2.98Zm17.37-26.18a18.824,18.824,0,0,1,4.13,4.35l1.38-1.21a20.419,20.419,0,0,0-4.16-4.29Zm-19.39,5.63a31.868,31.868,0,0,1,8.58,3.04l1.02-2.05a36.926,36.926,0,0,0-8.86-3.1Zm-1.82,6.91a53.678,53.678,0,0,1,8.44,2.6l0.87-2.02a48.587,48.587,0,0,0-8.58-2.62Zm46.72,1.12h3.84l4.03,0.07v-2.11l-4.03.12h-9.38l-4.03-.12v2.11l4.03-.07h3.39v9.67h-4.89l-4.03-.1v2.11l4.03-.09h12.25l4.03,0.09v-2.11l-4.03.1h-5.21v-9.67Zm44.41-3.16-0.19-.16-4.64.12h-12.48l-4.83-.12v2.36l4.83-.12h14.75c-0.13,6.33-6.21,11.1-14.81,12.16a7.829,7.829,0,0,1,1.05,2.08c9.89-1.19,16.03-7.04,16.26-14.28Zm-19.13-7.08v2.31l4.86-.1h6.56l4.86,0.1v-2.31l-4.86.13h-6.56Zm35.84,12.2h14.14l4.86,0.12v-2.59l-4.86.16h-14.14l-4.87-.16v2.59Zm29.6,6.33-0.13,4.87h2.62l-0.13-4.87v-18.08l0.23-1.53a16.059,16.059,0,0,0-3.1-.61c-0.39,0-.55.09-0.55,0.22,0,0.29.13,0.42,1.06,1.06v18.94Zm13.66-6.94a42.72,42.72,0,0,0-9.92-4.23l-1.28,1.89a43.9,43.9,0,0,1,9.92,4.45Z" transform="translate(-1661.59 -2474.25)"/>
</svg>
