<svg xmlns="http://www.w3.org/2000/svg" viewBox="0 0 146.71 25.9"><defs><style>.cls-1{fill:#542625;}</style></defs><g id="Layer_2" data-name="Layer 2"><g id="Layer_1-2" data-name="Layer 1"><path class="cls-1" d="M16.68,11.86l-1.58.19c0,1.68,0,3.41,0,5.3v1.18a11,11,0,0,1-5.81,1.58C3.72,20.11,0,16.46,0,10.73S3.82,1.42,9.38,1.42a9.92,9.92,0,0,1,5.24,1.32l0,4.15H13.15l-1-4a5,5,0,0,0-2.32-.5c-3.6,0-6.24,2.83-6.24,8.35,0,5.24,2.54,8.38,6.09,8.38a8.16,8.16,0,0,0,2.19-.29V17.28c0-1.75,0-3.43-.07-5.16l-2.65-.26V11h7.54Z"/><path class="cls-1" d="M23.26,13.18c.09,3.67,1.92,5.28,4.24,5.28a4.12,4.12,0,0,0,3.6-1.85l.48.34A5.45,5.45,0,0,1,26.42,20c-3.76,0-6.5-2.45-6.5-6.82a6.46,6.46,0,0,1,6.53-6.79,5,5,0,0,1,5.28,5.26,5.22,5.22,0,0,1-.17,1.49Zm4.1-.89c1.1,0,1.37-.55,1.37-1.78,0-1.94-1-3.19-2.5-3.19s-2.83,1.46-3,5Z"/><path class="cls-1" d="M42.34,18.91v.75h-7v-.75l1.84-.21c.05-1.51.08-3.17.08-4.68V1.85L35.35,1.7V1l4.83-1,.33.22L40.42,4V14c0,1.51,0,3.17.07,4.7Z"/><path class="cls-1" d="M58.87,18.36A2.75,2.75,0,0,1,56.14,20a2.5,2.5,0,0,1-2.62-2.11C52.2,19.3,51.26,20,49.49,20A3.16,3.16,0,0,1,46,16.83c0-2,1.1-3.17,4.8-4.33.72-.24,1.68-.5,2.61-.71V10.56c0-2.54-.64-3.24-2.44-3.24a6.06,6.06,0,0,0-1.25.14l-.34,1.73C49.3,10.51,48.65,11,47.83,11a1.32,1.32,0,0,1-1.44-1.1C46.7,7.78,48.7,6.43,52,6.43c3.15,0,4.47,1.37,4.47,4.73v6.19c0,1.08.33,1.44.86,1.44.36,0,.65-.21,1.08-.79Zm-5.45-5.88c-.72.22-1.39.41-1.8.58C49.73,13.8,49,14.91,49,16.39a1.82,1.82,0,0,0,1.92,2.09c.79,0,1.39-.36,2.49-1.27Z"/><path class="cls-1" d="M70.08,18.34A3.82,3.82,0,0,1,66.62,20c-2.2,0-3.43-1.08-3.43-3.53,0-.76,0-1.44,0-2.4V7.82H61.15V7l2.23-.24,1-3.77h2.06l-.07,3.8h3.17v1h-3.2v8.89c0,1.34.6,1.89,1.56,1.89a2.7,2.7,0,0,0,1.71-.72Z"/><path class="cls-1" d="M73,13.2c0-4.3,3-6.77,6.48-6.77S86,8.88,86,13.2,83.16,20,79.49,20,73,17.5,73,13.2Zm9.57,0c0-4-1.15-5.9-3.09-5.9s-3.1,1.94-3.1,5.9,1.11,5.93,3.1,5.93S82.58,17.21,82.58,13.22Z"/><path class="cls-1" d="M103.53,12.53c0,1.87,0,3.93.08,6l2.56.24v.84h-8.3v-.84l2.28-.22c0-2.37,0-4.8,0-7.25V10.18c0-2.4,0-4.83,0-7.25l-2.28-.22V1.85H105c5.07,0,7.2,2,7.2,5.28,0,3-2,5.4-7.56,5.4Zm.08-9.75c-.08,2.43-.08,4.9-.08,7.4v1.41h1.18c3,0,4.32-1.82,4.32-4.46,0-2.83-1.34-4.35-4.15-4.35Z"/><path class="cls-1" d="M115.8,13.2c0-4.3,3-6.77,6.48-6.77s6.48,2.45,6.48,6.77S126,20,122.28,20,115.8,17.5,115.8,13.2Zm9.57,0c0-4-1.15-5.9-3.09-5.9s-3.1,1.94-3.1,5.9,1.11,5.93,3.1,5.93S125.37,17.21,125.37,13.22Z"/><path class="cls-1" d="M137.45,8.28a5.29,5.29,0,0,1,4.08-1.85c2.9,0,5.18,2.47,5.18,6.72S144.19,20,141,20a4.47,4.47,0,0,1-3.53-1.65V20c0,1.44,0,3.17,0,4.9l2.07.24v.72h-7.08v-.72l1.82-.22c0-1.73.05-3.45.05-4.92V12.31c0-1.56,0-2.45-.07-3.6l-2-.19v-.6l4.56-1.46.34.24Zm.09,9.34a3.31,3.31,0,0,0,2.4.88c2,0,3.39-1.36,3.39-5.28s-1.23-5.3-3.22-5.3A3.57,3.57,0,0,0,137.54,9Z"/></g></g></svg>