<svg xmlns="http://www.w3.org/2000/svg" width="165.5" height="39.7" viewBox="0 0 82.75 19.85">
  <defs>
    <style>
      .cls-1 {
        fill: #532525;
        fill-rule: evenodd;
      }
    </style>
  </defs>
  <path id="Gelato" class="cls-1" d="M1709.7,2531.17h-6.84v0.91l2.78,0.21c0.02,1.64.05,3.29,0.05,4.92v1.04a8.264,8.264,0,0,1-2.95.52c-4.04,0-6.58-3-6.58-8.04,0-5.11,2.73-8.04,6.5-8.04a5.711,5.711,0,0,1,2.98.77l0.65,3.27h1.41l-0.04-3.89a9.479,9.479,0,0,0-5.26-1.3c-5.28,0-8.95,3.87-8.95,9.19,0,5.38,3.6,9.2,8.88,9.2a11.759,11.759,0,0,0,5.71-1.54v-1.18c0-1.72.02-3.38,0.07-4.99l1.59-.14v-0.91Zm5.83,1.03c0.26-3.12,1.96-4.47,3.57-4.47a2.95,2.95,0,0,1,2.91,3.05,1.239,1.239,0,0,1-1.42,1.47Zm8.42,1.01a4.856,4.856,0,0,0,.19-1.47,4.711,4.711,0,0,0-4.92-5.01c-3.24,0-6.02,2.61-6.02,6.67,0,4.1,2.4,6.48,5.93,6.48a5.338,5.338,0,0,0,4.97-3l-0.53-.36a4.465,4.465,0,0,1-3.7,1.89c-2.57,0-4.32-1.75-4.37-5.23Zm8.4,5.23c-0.02-1.44-.05-2.98-0.05-4.42v-9.98l0.12-3.75-0.36-.19-4.05,1.1v0.8l2.13,0.19v11.83c0,1.44-.02,2.98-0.05,4.42l-2.08.29v0.81h6.45v-0.81Zm13.32-1.63c-1.46,1.15-2.06,1.53-3,1.53a1.908,1.908,0,0,1-2.14-2.04c0-.96.41-1.99,2.72-2.88,0.57-.21,1.48-0.53,2.42-0.79v4.18Zm4.18,1.17a1.366,1.366,0,0,1-1.06.65c-0.6,0-.96-0.43-0.96-1.68v-5.71c0-3.27-1.32-4.51-4.08-4.51-2.71,0-4.63,1.22-5.09,3.24a1.047,1.047,0,0,0,1.18,1,1.349,1.349,0,0,0,1.32-1.22l0.5-1.8a6.038,6.038,0,0,1,1.49-.22c1.78,0,2.52.68,2.52,3.27v0.81a25.659,25.659,0,0,0-3.02.87c-3.44,1.22-4.35,2.37-4.35,3.98a3.161,3.161,0,0,0,3.48,3.22c1.59,0,2.5-.7,3.94-2.11a2.259,2.259,0,0,0,2.35,2.06,2.478,2.478,0,0,0,2.26-1.34Zm10.53-.05a2.89,2.89,0,0,1-1.8.75c-0.93,0-1.51-.58-1.51-1.97v-8.47h3.55v-1.15h-3.53l0.15-3.63h-1.51l-0.7,3.55-2.35.29v0.94h2.23v6.38c0,0.99-.02,1.56-0.02,2.19,0,2.11,1.1,3.07,2.97,3.07a3.737,3.737,0,0,0,3.05-1.35Zm9.77,1.95c3.07,0,6.05-2.19,6.05-6.53,0-4.37-3-6.62-6.05-6.62-3.07,0-6.02,2.28-6.02,6.62C1764.13,2537.67,1767.05,2539.88,1770.15,2539.88Zm0-1.01c-2.3,0-3.62-1.9-3.62-5.52,0-3.65,1.32-5.62,3.62-5.62,2.28,0,3.63,1.97,3.63,5.62C1773.78,2536.97,1772.43,2538.87,1770.15,2538.87Z" transform="translate(-1693.44 -2520.09)"/>
</svg>
