<svg xmlns="http://www.w3.org/2000/svg" width="521.32" height="57.06" viewBox="0 0 260.66 28.53">
  <defs>
    <style>
      .cls-1 {
        fill: #532525;
        fill-rule: evenodd;
      }
    </style>
  </defs>
  <path id="ジェラートポップ" class="cls-1" d="M1624.43,6773.28a20.079,20.079,0,0,1,4.38,4.72l1.44-1.24a20.582,20.582,0,0,0-4.41-4.57Zm-13.98,23.94c9.5-2.04,15.39-6.48,19.2-16.47a12.326,12.326,0,0,1-1.83-1.85c-3.87,10.24-9.95,14.81-18.72,16.02a2.35,2.35,0,0,0-1.05-.7,0.378,0.378,0,0,0-.39.41,17.621,17.621,0,0,0,1,2.97Zm17.37-26.11a18.784,18.784,0,0,1,4.13,4.34l1.38-1.21a20.368,20.368,0,0,0-4.16-4.28Zm-19.39,5.62a31.534,31.534,0,0,1,8.58,3.03l1.02-2.04a36.5,36.5,0,0,0-8.86-3.1Zm-1.82,6.89a53.688,53.688,0,0,1,8.44,2.59l0.87-2.01a47.765,47.765,0,0,0-8.58-2.62Zm46.72,1.12h3.84l4.03,0.06v-2.1l-4.03.12h-9.38l-4.03-.12v2.1l4.03-.06h3.39v9.64h-4.89l-4.03-.1v2.11l4.03-.1h12.25l4.03,0.1v-2.11l-4.03.1h-5.21v-9.64Zm44.41-3.16-0.19-.16-4.64.13h-12.48l-4.83-.13v2.36l4.83-.13h14.75c-0.13,6.32-6.21,11.08-14.81,12.13a7.829,7.829,0,0,1,1.05,2.08c9.89-1.18,16.03-7.03,16.26-14.24Zm-19.13-7.06v2.3l4.86-.09h6.56l4.86,0.09v-2.3l-4.86.13h-6.56Zm35.84,12.17h14.14l4.86,0.12v-2.58l-4.86.16h-14.14l-4.87-.16v2.58Zm29.6,6.32-0.13,4.85h2.62l-0.13-4.85v-18.04l0.23-1.53a16.908,16.908,0,0,0-3.1-.61c-0.39,0-.55.1-0.55,0.23,0,0.28.13,0.41,1.06,1.05v18.9Zm13.66-6.93a42.68,42.68,0,0,0-9.92-4.21l-1.28,1.88a43.88,43.88,0,0,1,9.92,4.44Zm26.27-7.02v-3.96l0.23-1.53a16.57,16.57,0,0,0-2.95-.58c-0.38,0-.54.1-0.54,0.29,0,0.22.16,0.41,0.99,0.96v4.82h-6.46l-4.87-.13v2.3l4.87-.1h6.46v13.25c0,1.05-.29,1.34-0.93,1.34a14.274,14.274,0,0,1-3.96-.8,12.506,12.506,0,0,1-.16,2.07,15.373,15.373,0,0,0,4.67.96c1.72,0,2.72-.96,2.72-2.9,0-.77-0.07-1.66-0.07-2.87v-11.05H1790l4.86,0.1v-2.3l-4.86.13h-6.02Zm10.18-8.59a3.5,3.5,0,1,0,3.52,3.48A3.5,3.5,0,0,0,1794.16,6770.47Zm0,1.34a2.14,2.14,0,1,1,0,4.28A2.14,2.14,0,0,1,1794.16,6771.81Zm-6.21,14.3a33.427,33.427,0,0,1,5.73,7.63l1.85-1.41a36.772,36.772,0,0,0-5.82-7.56Zm-10.37-.13a10.38,10.38,0,0,0-2.91-1.34,0.338,0.338,0,0,0-.38.32,2.4,2.4,0,0,0,.67.96,21.113,21.113,0,0,1-5.54,6.89,7.294,7.294,0,0,1,1.64,1.41,27.934,27.934,0,0,0,5.92-7.34Zm30.08-4.02a24.994,24.994,0,0,1,3.52,6.16l1.89-1.02a23.823,23.823,0,0,0-3.61-6.19Zm6.66-1.28a25.339,25.339,0,0,1,2.88,5.97l1.92-.95a27.067,27.067,0,0,0-2.98-5.94Zm12.96,0.29a11.265,11.265,0,0,0-2.98-.86c-0.29,0-.45.1-0.45,0.32a1.593,1.593,0,0,0,.84.96c-1.03,9-6.5,13.21-13.79,15.35a6.365,6.365,0,0,1,1.44,1.75c8.09-2.52,12.99-7.14,14.59-16.15Zm34.33-4.53a3.287,3.287,0,0,0,2.12.73,3.5,3.5,0,1,0-3.49-3.51,3.368,3.368,0,0,0,.93,2.36l-4.39.13h-10.84l-4.84-.13v2.33l4.84-.12h13.05c-0.13,9.51-6.91,16.15-15.68,17.55a8.31,8.31,0,0,1,1.19,2.01c9.69-1.59,16.7-9.09,17.05-19.66Zm2.12-4.92a2.14,2.14,0,1,1,0,4.28A2.14,2.14,0,0,1,1863.73,6771.52Z" transform="translate(-1606.59 -6769.97)"/>
</svg>
