<svg xmlns="http://www.w3.org/2000/svg" width="173.063" height="19.72" viewBox="0 0 173.063 19.72">
  <defs>
    <style>
      .cls-1 {
        fill: #333;
        fill-rule: evenodd;
      }
    </style>
  </defs>
  <path id="Glamping_site" data-name="Glamping site" class="cls-1" d="M643.126,3886.66v0.58h0.62c1.34,0.1,1.68.42,1.64,1.58v1.3a2.849,2.849,0,0,1-2.92,2.62,3.5,3.5,0,0,1-2.521-1.2c-1.18-1.26-1.74-3.06-1.74-5.56,0-4.42,1.72-7.06,4.621-7.06a4.27,4.27,0,0,1,3.461,1.94,6.831,6.831,0,0,1,1.26,2.72h0.52l-0.22-5.44h-0.52l-0.94,1.2a6.212,6.212,0,0,0-3.821-1.22c-4.1,0-7.262,3.36-7.262,7.74,0,4.22,3.061,7.72,6.722,7.72a4.592,4.592,0,0,0,3.781-1.8l1.72,1.74h0.22v-4.92c0.02-.96.48-1.36,1.62-1.36h0.38v-0.58h-6.621Zm10.819,6.6h5.921v-0.56h-0.42c-1.04,0-1.44-.46-1.44-1.66v-13a12.554,12.554,0,0,1-4.061.62v0.52c1.5,0.02,1.94.36,2,1.6v9.86c0.02,1.68-.26,2.04-1.5,2.06h-0.5v0.56Zm19.482-2.82v0.34c-0.04,1.16-.24,1.56-0.8,1.56-0.42,0-.52-0.24-0.52-1.16v-5.16c0-1.92-1.18-2.82-3.721-2.82-2.34,0-3.921,1.02-3.921,2.54a1.392,1.392,0,0,0,1.4,1.4,1.162,1.162,0,0,0,1.2-1.18,1.063,1.063,0,0,0-1.06-1.08,2.144,2.144,0,0,1,2-.98c1.46,0,2.1.7,2.1,2.32v1.1a12.2,12.2,0,0,0-3.7.8c-1.561.64-2.3,1.54-2.3,2.86,0,1.54,1.16,2.52,2.961,2.52a4.99,4.99,0,0,0,3.08-1.16,1.6,1.6,0,0,0,1.761,1.22,1.9,1.9,0,0,0,1.98-1.3,4.807,4.807,0,0,0,.2-1.82h-0.66Zm-3.321,1.16a3.509,3.509,0,0,1-2.08.88,1.722,1.722,0,0,1-1.78-1.82,2.479,2.479,0,0,1,1.68-2.26,6.536,6.536,0,0,1,2.18-.46v3.66Zm8.14,1.66h5.3v-0.5h-0.26c-0.941-.06-1.141-0.32-1.141-1.4v-5.06c0.741-1.28,1.561-1.92,2.5-1.92a1.328,1.328,0,0,1,1.24,1.48v5.56c0,1-.3,1.32-1.24,1.34h-0.4v0.5h5.281v-0.5h-0.32c-1.02-.02-1.26-0.28-1.3-1.34v-5.36c0.8-1.2,1.42-1.64,2.26-1.64a1.413,1.413,0,0,1,1.46,1.52v5.14c-0.02,1.32-.28,1.64-1.4,1.68v0.5h5.261v-0.5h-0.48c-1.02-.02-1.38-0.32-1.4-1.12v-5.54c0-1.84-.88-2.82-2.521-2.82a4.033,4.033,0,0,0-3.28,1.76,2.2,2.2,0,0,0-2.381-1.74c-1.26,0-1.98.4-3.281,1.82v-2.08a13.865,13.865,0,0,1-3.9.46v0.5c1.42,0.02,1.86.3,1.88,1.24v5.88c0.02,1.3-.28,1.6-1.5,1.64h-0.38v0.5Zm27.381,3.94c-1.74-.02-2-0.18-2-1.2v-4.54a3.989,3.989,0,0,0,.98,1.18,3.6,3.6,0,0,0,2.341.82,4.1,4.1,0,0,0,2.84-1.08,5.963,5.963,0,0,0,1.621-4.18c0-2.86-1.741-4.94-4.141-4.94a3.816,3.816,0,0,0-2.341.76,5.184,5.184,0,0,0-1.26,1.52v-2.56a18.467,18.467,0,0,1-4.041.5V3884c1.46-.02,1.981.32,2.081,1.38v10.36c-0.02,1.36-.16,1.46-1.981,1.46v0.54h5.9v-0.54Zm-1.94-10a5.676,5.676,0,0,1,1.04-2,2.6,2.6,0,0,1,1.981-1c1.54,0,2.32,1.36,2.32,4.02,0,2.9-.84,4.36-2.52,4.36a2.483,2.483,0,0,1-1.821-.82,4.145,4.145,0,0,1-1-2.04v-2.52Zm12.18,6.06h5.5v-0.54h-0.3c-1.08-.08-1.38-0.46-1.34-1.66v-8.02a9.278,9.278,0,0,1-2.841.4h-1.18v0.54c1.56,0,1.96.42,2,2v4.62c-0.02,1.68-.3,2.1-1.48,2.12h-0.36v0.54Zm2.78-14.58a1.413,1.413,0,0,0-1.44,1.4A1.421,1.421,0,1,0,718.647,3878.68Zm6.96,14.58h5.6v-0.48h-0.52a1.073,1.073,0,0,1-1.24-1.04v-5.32a4.563,4.563,0,0,1,1.14-1.38,2.793,2.793,0,0,1,1.72-.62,1.561,1.561,0,0,1,1.621,1.6v5.08c0.02,1.22-.34,1.64-1.421,1.68h-0.34v0.48h5.621v-0.48h-0.44c-1.08-.02-1.42-0.38-1.4-1.52v-5.1c0-1.88-.92-2.88-2.7-2.88-1.461,0-2.4.48-3.8,1.94v-2.18a13.411,13.411,0,0,1-3.881.44v0.54c1.32-.04,1.74.22,1.88,1.12v6.14a1.268,1.268,0,0,1-1.5,1.5h-0.34v0.48Zm23.842-8.98a4.253,4.253,0,0,0-2.981-1.04c-2.4,0-4.06,1.32-4.06,3.2a2.855,2.855,0,0,0,1.76,2.62,2.221,2.221,0,0,0-1.7,2.04c0,0.98.5,1.52,1.88,2.02-1.58.42-2.321,1.12-2.321,2.22,0,1.54,1.7,2.42,4.621,2.42,3.241,0,5.2-1.26,5.2-3.34a2.476,2.476,0,0,0-1.681-2.4,11.17,11.17,0,0,0-3.161-.56c-2.38-.24-2.92-0.46-2.92-1.2a0.974,0.974,0,0,1,.84-0.9,5.357,5.357,0,0,0,1.48.18c2.481,0,3.941-1.12,3.941-3a3.2,3.2,0,0,0-.5-1.76,1.842,1.842,0,0,1,1.34-.64,1.215,1.215,0,0,0-.12.5,1.064,1.064,0,0,0,1.061,1.1,1.2,1.2,0,0,0,1.2-1.2,1.4,1.4,0,0,0-1.5-1.36A3.521,3.521,0,0,0,749.449,3884.28Zm-4.481,8.98c0.44,0.08.44,0.08,1.64,0.22a7.594,7.594,0,0,1,2.661.5,1.276,1.276,0,0,1,.84,1.22,1.49,1.49,0,0,1-.82,1.34,5.4,5.4,0,0,1-2.581.6c-1.94,0-3-.68-3-1.94A1.978,1.978,0,0,1,744.968,3893.26Zm1.48-9.38c1.2,0,1.861.92,1.861,2.54,0,1.52-.7,2.44-1.861,2.44-1.2,0-1.96-.94-1.96-2.42C744.488,3884.88,745.248,3883.88,746.448,3883.88Zm20.08,9.62,0.56-1.1a4.819,4.819,0,0,0,3.121,1.16c2.1,0,3.641-1.34,3.641-3.16a2.753,2.753,0,0,0-1.04-2.18,7.054,7.054,0,0,0-2.661-1.18,16.39,16.39,0,0,1-2.02-.76,0.954,0.954,0,0,1-.56-0.9c0-.84.9-1.48,2.12-1.48a2.891,2.891,0,0,1,2.341,1.16,7.443,7.443,0,0,1,.98,1.78h0.64l-0.14-3.6h-0.54l-0.46.94a4.553,4.553,0,0,0-2.881-1c-2.1,0-3.561,1.2-3.561,2.9a2.546,2.546,0,0,0,.88,1.96,6.292,6.292,0,0,0,2.461,1.12c2.24,0.68,2.881,1.12,2.881,2.02,0,0.96-.881,1.64-2.121,1.64a3.514,3.514,0,0,1-2.58-1.14,4.579,4.579,0,0,1-.961-2.32h-0.6l0.1,4.14h0.4Zm11.78-.24h5.5v-0.54h-0.3c-1.081-.08-1.381-0.46-1.341-1.66v-8.02a9.266,9.266,0,0,1-2.84.4h-1.181v0.54c1.561,0,1.961.42,2,2v4.62c-0.02,1.68-.3,2.1-1.48,2.12h-0.361v0.54Zm2.781-14.58a1.413,1.413,0,0,0-1.44,1.4A1.42,1.42,0,1,0,781.089,3878.68Zm6.86,5.48h2.02v7.16a2.064,2.064,0,0,0,2.22,2.3,2.445,2.445,0,0,0,2.461-1.68,6.821,6.821,0,0,0,.28-2.28h-0.58a6.8,6.8,0,0,1-.24,1.84,1.37,1.37,0,0,1-1.18,1.08,0.967,0.967,0,0,1-.941-1.08v-7.34h2.521v-0.7h-2.521v-3.76h-0.62c-0.42,2.2-1.52,3.44-3.42,3.82v0.64Zm19.822,5.78c-1.141,1.76-2.021,2.4-3.321,2.4-1.94,0-3.061-1.46-3.061-3.94h6.862c0.02-.22.02-0.4,0.02-0.52a5.328,5.328,0,0,0-1-3.06,4.035,4.035,0,0,0-3.341-1.62,4.836,4.836,0,0,0-4.9,5.1,4.923,4.923,0,0,0,4.781,5.24,4.408,4.408,0,0,0,2.7-.92,6.451,6.451,0,0,0,1.861-2.32Zm-6.362-2.18a8.5,8.5,0,0,1,.3-2c0.4-1.24,1.081-1.88,2.041-1.88a1.655,1.655,0,0,1,1.38.72,4.974,4.974,0,0,1,.78,2.66c0,0.12,0,.28-0.02.5h-4.481Z" transform="translate(-635.312 -3878.03)"/>
</svg>
