<svg xmlns="http://www.w3.org/2000/svg" width="425.875" height="35.59" viewBox="0 0 425.875 35.59">
  <defs>
    <style>
      .cls-1 {
        fill: #333;
        fill-rule: evenodd;
      }
    </style>
  </defs>
  <path id="選べる3つの過ごし方" class="cls-1" d="M511.651,3775.29l0.7-.23c0.7-.2.779-0.27,0.779-0.62a1.71,1.71,0,0,0-.662-1.21l-2.843-2.96-1.48,2.3h-0.194c-0.429,0-1.208-.04-2.337-0.08-0.467-.04-1.48-0.04-2.843-0.08l0.7,1.33c3.5-.12,3.7-0.16,4.479-0.16h0.311v10.47a27.046,27.046,0,0,1-3.388,1.87c-1.168.51-1.869,0.82-2.1,0.94l2.765,2.76a1.34,1.34,0,0,0,.935.51c0.428,0,.662-0.31.662-0.94v-1.05l0.117-.11a3.112,3.112,0,0,1,.389-0.51c0.662-.82.74-0.97,1.558-1.99,0.506-.62.662-0.81,0.973-1.24,3.855,4.79,7.71,6.31,16.121,6.31,3.739,0,8.762-.08,10.9-0.12a8.816,8.816,0,0,1,2.336-3.62c-5.568.43-10.9,0.7-14.33,0.7-4.751,0-6.737-.2-9-0.97a61.912,61.912,0,0,0,7.282-3.51l0.818-.08c0.778-.07,1.09-0.27,1.09-0.66,0-.27-0.117-0.43-0.779-0.89l-2.453-1.68a27.981,27.981,0,0,1-7.087,6.43,10.75,10.75,0,0,1-3.427-2.03v-8.88Zm-6.425-18.49a0.3,0.3,0,0,0-.351.31,0.5,0.5,0,0,0,.156.31,8.641,8.641,0,0,1,2.765,3.62c0.779,2.84.779,2.84,1.207,3.27a1.3,1.3,0,0,0,.934.35c1.208,0,2.1-1.05,2.1-2.57,0-1.98-1.635-3.78-4.322-4.71A12.94,12.94,0,0,0,505.226,3756.8Zm8.177,22.82c4.245-.16,4.751-0.16,5.958-0.16h19.548a0.5,0.5,0,0,0,.545-0.55,0.985,0.985,0,0,0-.545-0.81l-2.842-2.38-2.337,2.65H531.2v-3.82h6a0.447,0.447,0,0,0,.545-0.43c0-.31-0.039-0.38-0.623-0.85l-2.337-1.99-1.985,2.22h-1.6v-1.63l0.35-.12a0.743,0.743,0,0,0,.507-0.58c0-.28-0.234-0.43-0.7-0.47l-3.154-.16v2.96h-5.218v-1.24l0.389-.2a0.674,0.674,0,0,0,.506-0.54c0-.39-0.311-0.55-0.973-0.59l-3.038-.08v2.65h-0.623c-0.156,0-1.4-.04-2.648-0.08l-2.57-.07,0.779,1.32c3.349-.12,3.816-0.12,4.439-0.12h0.623v3.82h-0.506c-2.609,0-3.582,0-6.737-.16Zm16.238-15.85h3.778v0.54c0,0.43.194,0.59,0.7,0.59,0.974,0,2.376-.55,2.376-0.94v-3.7l0.584-.27a0.79,0.79,0,0,0,.506-0.62c0-.39-0.117-0.59-0.856-1.13l-2.532-2.14-1.012,1.83h-2.726c-1.129,0-2.258-.04-5.218-0.16l0.662,1.32c1.013-.04,1.869-0.07,2.22-0.07,1.207-.04,2.025-0.08,2.336-0.08h2.96v3.78h-3.427l-3.271-1.25v6.5c0,1.44.74,1.87,3.271,1.87a41.167,41.167,0,0,0,8.255-.5,1.545,1.545,0,0,0,1.052-1.33,1.013,1.013,0,0,0-.74-0.89,1.963,1.963,0,0,1-.7-0.32,0.74,0.74,0,0,1-.078-0.42c-0.078-1.99-.117-2.26-0.351-2.26a0.535,0.535,0,0,0-.389.39c-0.779,1.67-1.012,2.06-1.4,2.33a11.3,11.3,0,0,1-4.166.47,5.481,5.481,0,0,1-1.753-.12c-0.078-.04-0.078-0.04-0.078-0.66v-2.76Zm-12.383,0h3.388v0.58c0,0.39.156,0.51,0.7,0.51,1.207,0,2.414-.51,2.414-1.02v-3.73l0.584-.32a0.673,0.673,0,0,0,.507-0.62,1.159,1.159,0,0,0-.545-0.82l-2.687-2.1-1.285,1.64h-2.376c-0.428,0-1.324,0-2.609-.04-0.389-.04-1.441-0.08-2.648-0.12l0.857,1.32c1.947-.07,2.8-0.11,4.4-0.11h2.687v3.78h-3.388l-3.076-1.29v6.46c0,1.91.273,2.07,3.7,2.07,7.01,0,7.944-.16,7.944-1.48a0.911,0.911,0,0,0-.467-0.82c-0.273-.16-0.545-0.31-0.779-0.43l-0.039-.04a1.783,1.783,0,0,1-.117-0.5,4.531,4.531,0,0,0-.078-0.78l-0.038-.43c0-.27-0.078-0.39-0.2-0.39a0.3,0.3,0,0,0-.273.31c-0.74,1.91-1.012,2.1-3.037,2.1h-3c-0.545-.03-0.545-0.07-0.545-0.81v-2.92Zm5.725,14.6v-3.82H528.2v3.82h-5.218Zm4.127,1.71a0.254,0.254,0,0,0-.311.24,0.515,0.515,0,0,0,.389.35,16.23,16.23,0,0,1,4.79,3.5c2.258,2.18,2.258,2.18,2.842,2.18a1.666,1.666,0,0,0,1.753-1.59c0-1.25-1.441-2.54-3.855-3.43A24.844,24.844,0,0,0,527.11,3780.08Zm47.516-20.64c-1.285,0-1.986.16-1.986,0.47,0,0.16.039,0.2,0.623,0.35a6.758,6.758,0,0,1,3.349,2.61c0.623,1.01.778,1.13,1.44,1.13a1.492,1.492,0,0,0,1.6-1.52C579.649,3760.88,577.313,3759.44,574.626,3759.44Zm-4.556,2.89c-1.169,0-1.714.11-1.714,0.35,0,0.15.078,0.19,0.429,0.31a6.768,6.768,0,0,1,3.426,3.07c0.584,0.98.7,1.09,1.324,1.09a1.512,1.512,0,0,0,1.558-1.55C575.093,3763.88,572.718,3762.33,570.07,3762.33ZM549.2,3773.38a0.2,0.2,0,0,0-.039.12,2.3,2.3,0,0,0-.156.9,3.379,3.379,0,0,0,1.051,2.45,5.734,5.734,0,0,0,3.31,1.64c1.129,0,2.181-1.02,4.478-4.37,2.609-3.77,3.31-4.51,4.362-4.51,0.7,0,1.324.39,2.336,1.48,0.74,0.82,4.712,4.94,6,6.27a39.239,39.239,0,0,0,6.814,5.45c1.831,1.21,2.921,1.63,4.05,1.63a2.555,2.555,0,0,0,2.765-2.25,3.3,3.3,0,0,0-2.259-2.73,39.293,39.293,0,0,1-13.317-8.18,36.006,36.006,0,0,0-3.31-2.88,4.661,4.661,0,0,0-2.765-1.17c-1.324,0-2.609.74-4.283,2.46-3.349,3.46-5.024,4.59-6.776,4.59A2.911,2.911,0,0,1,549.2,3773.38Zm67.3,12.47c-0.156-.28-0.234-0.47-0.312-0.59a6.222,6.222,0,0,0-5.841-3.43c-2.726,0-4.361,1.25-4.361,3.35,0,2.3,2.531,3.78,6.386,3.78a13.237,13.237,0,0,0,8.684-2.88,9.384,9.384,0,0,0,3.193-6.82c0-4.32-3.7-7.55-8.684-7.55a12.568,12.568,0,0,0-5.88,1.36,0.141,0.141,0,0,1-.117.04,0.085,0.085,0,0,1-.078-0.08c0-1.12,5.958-7.55,8.567-9.22,1.052-.67,1.4-1.06,1.4-1.6,0-1.17-3.076-3.23-4.867-3.23a2.761,2.761,0,0,0-1.519.54c-2.492,1.6-6.153,2.92-8.139,2.92a1.522,1.522,0,0,1-1.557-.82c-0.117-.31-0.156-0.35-0.234-0.35-0.234,0-.35.43-0.35,1.25a3.146,3.146,0,0,0,.623,2.06,3.292,3.292,0,0,0,2.3,1.45c0.428,0,.74-0.16,1.714-0.94,2.219-1.75,5.14-3.47,5.918-3.47a0.446,0.446,0,0,1,.429.47c0,1.56-3.31,6.54-7.2,10.87-1.675,1.87-4.556,4.79-6.231,6.3a2.471,2.471,0,0,0-1.09,1.87c0,1.29,1.441,3.04,2.492,3.04,0.506,0,.9-0.39,1.441-1.56a29.6,29.6,0,0,1,3.738-5.84,9.957,9.957,0,0,1,7.516-3.62,5.913,5.913,0,0,1,3.777,1.48,5.991,5.991,0,0,1,1.869,4.67,8.519,8.519,0,0,1-.895,3.94A6.981,6.981,0,0,1,616.5,3785.85Zm-3.5.93c-0.506.04-.818,0.04-0.9,0.04-2.18,0-4.088-.94-4.088-2.03a1.625,1.625,0,0,1,1.869-1.4C611.588,3783.39,612.64,3784.52,612.99,3786.78Zm36.69-13.43a12.949,12.949,0,0,0,3.855-1.48,6.489,6.489,0,0,0,2.96-5.46c0-4.12-3.778-7.39-8.567-7.39-4.556,0-8.411,3.07-8.411,6.73a2.9,2.9,0,0,0,2.842,3.08,2.315,2.315,0,0,0,2.453-2.3,2.165,2.165,0,0,0-2.219-2.18,1.992,1.992,0,0,0-1.558.74,3.984,3.984,0,0,1,.623-1.75,6.294,6.294,0,0,1,4.946-2.65c3.154,0,5.451,2.57,5.451,6.08,0,3.42-2.1,6.19-4.711,6.19a5.3,5.3,0,0,1-1.753-.31,2.085,2.085,0,0,0-.623-0.12,0.933,0.933,0,0,0-.895.89,0.85,0.85,0,0,0,.817.82,2.558,2.558,0,0,0,.662-0.12,9.815,9.815,0,0,1,2.025-.38,4.344,4.344,0,0,1,2.57.97,6.681,6.681,0,0,1,2.492,5.53c0,4.2-2.648,7.2-6.425,7.2a6.283,6.283,0,0,1-6.113-4.01,3.287,3.287,0,0,0,1.6.47,2.211,2.211,0,0,0,2.259-2.26,2.646,2.646,0,0,0-2.687-2.57c-1.6,0-2.765,1.36-2.765,3.23,0,3.51,4.011,6.51,8.723,6.51,5.373,0,9.891-3.74,9.891-8.14a7.159,7.159,0,0,0-3.155-5.77A8.647,8.647,0,0,0,649.68,3773.35Zm40.5-9.04a24.457,24.457,0,0,0-10.086,2.38c-1.48.66-3.543,1.75-6.7,3.5a4.02,4.02,0,0,1-2.336.74,2.887,2.887,0,0,1-2.843-1.48,0.4,0.4,0,0,0-.311-0.27c-0.234,0-.351.43-0.351,1.28a3.854,3.854,0,0,0,1.285,2.89,6.71,6.71,0,0,0,3.661,1.75c0.856,0,1.479-.35,2.609-1.44,4.712-4.6,10.63-7.56,14.992-7.56,3.777,0,6.191,2.85,6.191,7.28,0,4.05-2.414,7.44-7.437,10.32a27.438,27.438,0,0,1-6.464,2.61c-0.623.12-.779,0.2-0.779,0.43,0,0.16.2,0.27,0.545,0.27a16.121,16.121,0,0,0,2.648-.35,33.975,33.975,0,0,0,10.241-3.5,10.815,10.815,0,0,0,6-9.66C701.047,3768.17,696.53,3764.31,690.183,3764.31Zm40.311-1.87c0.428-.04.7-0.04,0.818-0.04a9.259,9.259,0,0,1,4.011.94c3.388,1.71,5.14,5.26,5.14,10.47,0,4.79-1.6,8.34-4.985,11.1a20.822,20.822,0,0,1-6.97,3.62c-0.623.2-.74,0.24-0.74,0.43,0,0.16.156,0.23,0.39,0.23a16.37,16.37,0,0,0,2.492-.46,24.131,24.131,0,0,0,7.2-2.65,14.342,14.342,0,0,0,7.2-12.46,11.762,11.762,0,0,0-3.076-8.22,15.052,15.052,0,0,0-10.943-4.28c-9.112,0-16.939,7.36-16.939,15.93a10.057,10.057,0,0,0,1.908,6.26,4.706,4.706,0,0,0,3.271,2.15c2.142,0,5.53-2.77,7.827-6.35A25.069,25.069,0,0,0,731,3766.45,14.889,14.889,0,0,0,730.494,3762.44Zm-1.908.16a2.349,2.349,0,0,0,.078.27,9.377,9.377,0,0,1,.234,2.18c0,3.47-1.48,7.79-3.972,11.64-1.636,2.57-3.855,4.6-5.063,4.6s-2.258-2.03-2.258-4.32a15.265,15.265,0,0,1,4.6-10.87A14.718,14.718,0,0,1,728.586,3762.6Zm27.967,24.57,2.648,2.84a0.917,0.917,0,0,0,.623.39,0.584,0.584,0,0,0,.623-0.62l0.156-1.01c1.48-1.76,1.791-2.18,3.5-4.44,3.933,5.33,7.593,6.58,19.392,6.58,1.246,0,2.259-.04,7.321-0.2a11.084,11.084,0,0,1,1.674-3.11c0.078-.12.312-0.47,0.584-0.86a126.769,126.769,0,0,1-14.018.97c-7.555,0-10.748-.77-13.24-3.19v-9.34l0.584-.16a0.759,0.759,0,0,0,.74-0.7,1.178,1.178,0,0,0-.35-0.78l-3.193-3.62-1.519,2.65h-0.234c-1.363,0-2.492-.04-5.218-0.16l0.74,1.33c2.181-.12,3.193-0.16,4.478-0.16h0.584v10.71a32.946,32.946,0,0,1-4.244,2.14Zm2.726-30.06a0.336,0.336,0,0,0-.389.23c0,0.16.039,0.2,0.7,0.66a7.415,7.415,0,0,1,2.375,4.13,3.772,3.772,0,0,0,.74,1.91,2.1,2.1,0,0,0,1.441.58c1.09,0,1.83-.97,1.83-2.37,0-1.56-.9-2.81-2.726-3.9A10.147,10.147,0,0,0,759.279,3757.11Zm13.162,13.55h15.187v10.71c0,1.17-.2,1.24-2.843,1.24a3.065,3.065,0,0,1-.584-0.04l-1.129-.03c-0.273,0-.39.07-0.39,0.27s0,0.19,1.87.89c0.934,0.35,1.479.55,1.6,0.63,0.351,0.15.389,0.27,0.428,0.85,0,1.13.156,1.48,0.7,1.48a5.093,5.093,0,0,0,2.181-.78c1.168-.74,1.441-1.12,1.441-2.29V3772.1l0.506-.19a0.768,0.768,0,0,0,.7-0.74,1.059,1.059,0,0,0-.428-0.82l-2.921-2.85-1.285,2.11H787.2v-9.23l0.585-.23a0.669,0.669,0,0,0,.623-0.59,1.106,1.106,0,0,0-.351-0.66l-3.154-2.92-1.129,1.87h-7.788l-3.855-1.79v13.47l-2.96-1.4v17.48a0.52,0.52,0,0,0,.584.59,8.051,8.051,0,0,0,1.83-.35,0.858,0.858,0,0,0,.857-0.86v-14.33Zm2.843-1.05V3758.9h8.722v4.32H780.93l-3.271-1.56v7.95h-2.375Zm5.373,0v-5.34h3.349v5.34h-3.349Zm-2.959,10.16h4.439v1.09a0.416,0.416,0,0,0,.467.47,6.428,6.428,0,0,0,1.363-.23c1.091-.28,1.208-0.39,1.208-1.06v-4.01l0.311-.15a0.6,0.6,0,0,0,.389-0.51,1.011,1.011,0,0,0-.272-0.54l-2.414-2.73-1.441,1.83H778.01l-3.155-1.75v9.93c0,0.43.117,0.58,0.545,0.58a6.772,6.772,0,0,0,1.831-.35,0.73,0.73,0,0,0,.467-0.78v-1.79Zm0-1.05v-3.74h4.439v3.74H777.7Zm54.875-22.55c-1.012,0-1.752.2-1.752,0.51,0,0.16.156,0.23,0.584,0.39a6.076,6.076,0,0,1,3.466,3.08,1.082,1.082,0,0,0,1.051.58,1.646,1.646,0,0,0,1.713-1.52C837.635,3757.65,835.143,3756.17,832.573,3756.17Zm-4.167,3.12c-0.934,0-1.557.15-1.557,0.43,0,0.23.078,0.31,0.545,0.43a5.73,5.73,0,0,1,3.232,2.72,1.306,1.306,0,0,0,1.168.9,1.671,1.671,0,0,0,1.714-1.48C833.508,3760.73,831.093,3759.29,828.406,3759.29Zm-16.277.35c-0.116,0-.155.08-0.155,0.23a6.491,6.491,0,0,0,5.334,6.04,0.3,0.3,0,0,1,.312.31,0.61,0.61,0,0,1-.234.39,13.709,13.709,0,0,0-2.453,2.65,0.21,0.21,0,0,0,.2.19,4.5,4.5,0,0,0,.856-0.39,25.285,25.285,0,0,1,9.58-2.41c1.441-.04,2.064-0.39,2.064-1.17a5.7,5.7,0,0,0-.584-1.99,2.329,2.329,0,0,0-1.947-1.4,8.127,8.127,0,0,0-1.753.35,13.608,13.608,0,0,1-3.5.51c-2.96,0-6.465-1.44-7.516-3.12A0.286,0.286,0,0,0,812.129,3759.64Zm-1.363,14.87c-0.817,0-1.869,2.69-1.869,4.79,0,5.77,4.634,8.92,13.006,8.92a30,30,0,0,0,8.022-.97c1.441-.47,2.025-1.13,2.025-2.3a2.421,2.421,0,0,0-2.687-2.18,5.145,5.145,0,0,0-1.713.39,27.9,27.9,0,0,1-7.4,1.13,13.522,13.522,0,0,1-6.737-1.52,6.369,6.369,0,0,1-2.8-5.61,11.232,11.232,0,0,1,.272-2.33,0.309,0.309,0,0,0,.039-0.16A0.17,0.17,0,0,0,810.766,3774.51Zm46.075-17.25c-0.818,0-1.869.35-1.869,0.67a0.18,0.18,0,0,0,.2.15c1.44,0.16,2.141,1.6,2.141,4.36,0,0.51-.078,2.3-0.233,4.83-0.545,9.81-.545,10.09-0.545,11.49,0,7.2,3.193,11.02,9.267,11.02,4.206,0,8.1-2.22,11.254-6.39a14.719,14.719,0,0,0,2.259-4.05,0.235,0.235,0,0,0-.195-0.27,0.27,0.27,0,0,0-.234.19,17.95,17.95,0,0,1-3.582,3.55,15.646,15.646,0,0,1-9.5,3.43c-4.088,0-6.308-2.57-6.308-7.25a90.72,90.72,0,0,1,1.791-13.7c0.7-2.15.779-2.42,0.779-3.08C862.059,3759.76,859.411,3757.26,856.841,3757.26Zm62.235,16.32c-0.312,5.57-.662,8.14-1.519,10.51-0.779,2.18-1.4,2.73-3.037,2.73a37.151,37.151,0,0,1-4.634-.51c-0.311-.04-0.623-0.07-0.7-0.07-0.234,0-.389.07-0.389,0.27s0,0.19,1.129.7c2.025,0.86,2.22.93,2.609,1.09,1.168,0.47,1.4.66,1.4,1.25a1.1,1.1,0,0,1-.039.35v0.62a0.7,0.7,0,0,0,.818.82c2.219,0,4.4-1.76,5.724-4.56,1.246-2.69,1.869-6.07,2.1-11.02l0.623-.12a0.853,0.853,0,0,0,.856-0.85,1.826,1.826,0,0,0-.506-1.05l-3.193-3.67-1.83,2.46h-8.528c0.389-2.73.545-4.13,0.74-6.86h17.211a0.666,0.666,0,0,0,.74-0.58,1.592,1.592,0,0,0-.506-0.86l-3.621-2.99-2.882,3.38h-9.891v-5.99l0.974-.55a1.059,1.059,0,0,0,.817-0.89,0.885,0.885,0,0,0-.973-0.74l-4.478-.47v8.64h-7.866c-0.623,0-1.791-.04-3.154-0.07-1.519-.04-3-0.08-4.517-0.16l0.934,1.48,3.583-.12c1.363-.04,2.531-0.08,3.154-0.08h6.425c-0.662,13.87-3.31,19.4-11.565,24.19-2.142,1.24-2.142,1.24-2.142,1.48a0.237,0.237,0,0,0,.273.23,22.33,22.33,0,0,0,3.348-1.01,19.885,19.885,0,0,0,9.346-6.58c2.142-2.81,2.921-4.91,3.855-10.4h9.307Z" transform="translate(-502.781 -3755.97)"/>
</svg>
