<svg xmlns="http://www.w3.org/2000/svg" width="379" height="101.905" viewBox="0 0 379 101.905">
  <defs>
    <style>
      .cls-1 {
        fill: #fff;
        fill-rule: evenodd;
      }
    </style>
  </defs>
  <path id="森と星空の_キャンプヴィレッジ" data-name="森と星空の キャンプヴィレッジ" class="cls-1" d="M120.057,990.7h7.009a0.669,0.669,0,0,0,.72-0.673,1.069,1.069,0,0,0-.48-0.816l-3.408-2.832-2.4,3.024h-1.441V985.47l1.008-.48a1.018,1.018,0,0,0,.721-0.912,1.036,1.036,0,0,0-.961-1.008l-4.8-.48v6.816h-3.072c-0.384,0-1.2,0-2.4-.048-0.576-.048-2.209-0.1-3.985-0.144l1.008,1.633,3.025-.1c1.008-.048,1.824-0.048,2.352-0.048h2.736a34.844,34.844,0,0,1-9.457,12.767,2.112,2.112,0,0,0-.864,1.11,0.356,0.356,0,0,0,.336.33,12.876,12.876,0,0,0,3.168-1.87,38.038,38.038,0,0,0,7.153-6v9.171a0.925,0.925,0,0,0,1.152,1.01,4.63,4.63,0,0,0,1.968-.48,1.259,1.259,0,0,0,.912-1.35V994.879a8.568,8.568,0,0,1,2.689,3.456c1.056,2.355,1.3,2.595,2.3,2.595a2,2,0,0,0,2.112-2.019,4.806,4.806,0,0,0-2.976-3.984,12.655,12.655,0,0,0-4.129-1.056V990.7Zm23.906-24.1-3.072,3.649H130.474v-4.129l1.056-.624a1.284,1.284,0,0,0,.624-1.008,0.986,0.986,0,0,0-.96-0.864l-4.944-.384v7.009h-7.393c-0.912,0-2.352-.048-4.032-0.1l-5.377-.144,1.105,1.776c4.08-.192,5.664-0.24,8.3-0.24H123.8a50.474,50.474,0,0,1-16.226,13.009,0.794,0.794,0,0,0-.624.624,0.371,0.371,0,0,0,.384.336c0.672,0,4.177-1.392,7.441-3.024,4.224-2.064,6.1-3.264,11.473-7.345v8.833a0.877,0.877,0,0,0,.96,1.008,9.512,9.512,0,0,0,2.4-.48,0.953,0.953,0,0,0,.864-1.056V972.509c3.889,5.424,8.4,8.881,15.362,11.617,1.488-2.064,2.208-2.592,4.992-4.08-7.633-.816-15.553-4.225-19.778-8.5h16.994a0.58,0.58,0,0,0,.624-0.624,0.9,0.9,0,0,0-.384-0.672Zm2.689,19.538-2.737,3.264h-3.36v-3.984l0.912-.576a1.011,1.011,0,0,0,.528-0.864,0.84,0.84,0,0,0-.816-0.816l-4.7-.624v6.864h-1.392c-2.593-.048-4.417-0.1-6.385-0.192l0.72,1.633c3.072-.1,4.273-0.144,5.665-0.144h1.1a37.313,37.313,0,0,1-10.657,12.767c-1.488,1.2-1.536,1.25-1.536,1.54a0.324,0.324,0,0,0,.336.33c0.432,0,1.776-.67,3.984-2.01a41.949,41.949,0,0,0,8.161-6.387v9.6c0,0.72.24,1.01,0.864,1.01a7.6,7.6,0,0,0,2.352-.43,1.12,1.12,0,0,0,.96-1.25V993.535a27.408,27.408,0,0,0,7.009,10.565,9.372,9.372,0,0,1,3.984-3.89c-5.232-2.691-8.737-5.811-10.609-9.507h9.313a0.568,0.568,0,0,0,.624-0.576,1.091,1.091,0,0,0-.384-0.673Zm21.55,0.192c-6.144,2.832-9.457,6.625-9.457,10.8a8,8,0,0,0,4.081,6.765c2.448,1.4,5.808,2.12,10.033,2.12,3.7,0,8.592-.63,10.608-1.4,1.633-.57,2.257-1.2,2.257-2.11a3.677,3.677,0,0,0-3.5-3.407,8.138,8.138,0,0,0-2.544.624,29.513,29.513,0,0,1-9.025,1.683c-5.088,0-8.064-1.923-8.064-5.187,0-2.448,1.44-4.848,3.984-6.673a22.235,22.235,0,0,1,5.136-2.5,40.268,40.268,0,0,0,5.473-1.152c3.12-.864,3.936-1.3,3.936-2.16,0-1.392-2.208-3.312-3.84-3.312a1.725,1.725,0,0,0-1.2.576c-2.256,1.968-4.369,3.264-5.281,3.264-0.576,0-1.056-1.152-1.056-2.592a40.591,40.591,0,0,1,1.536-9.649,8.606,8.606,0,0,0,.624-3.024,3.039,3.039,0,0,0-1.584-2.545,8.267,8.267,0,0,0-4.272-1.44c-1.776,0-4.368.96-4.368,1.632,0,0.192.144,0.289,0.48,0.289a4.819,4.819,0,0,1,2.5.816c1.056,0.768,1.392,1.584,1.392,3.456,0,0.48,0,1.3-.1,2.88-0.048,1.44-.048,2.064-0.048,2.928C165.9,982.11,166.138,983.118,168.2,986.334Zm26.159,19.726,4.56-.14c1.728-.05,3.457-0.1,3.793-0.1h34.659a0.637,0.637,0,0,0,.384-0.67,0.834,0.834,0,0,0-.288-0.62l-4.417-3.6-3.648,3.6H217.739v-7.059H231.9a0.489,0.489,0,0,0,.432-0.528,0.667,0.667,0,0,0-.24-0.48l-4.368-3.456-2.88,3.168h-7.1v-5.952h16.369a0.561,0.561,0,0,0,.432-0.625,0.75,0.75,0,0,0-.288-0.576l-4.272-3.456L227,988.926h-9.265v-3.744l1.392-.816a1.092,1.092,0,0,0,.576-0.96,0.945,0.945,0,0,0-.816-0.96l-5.712-.288v6.768H206.41l1.44-2.208,1.488-.528a1,1,0,0,0,.576-0.864,0.907,0.907,0,0,0-.528-0.864l-4.7-2.3c-2.016,5.856-5.665,12.385-8.5,15.313-0.912.96-.912,0.96-0.912,1.152a0.243,0.243,0,0,0,.288.24c0.384,0,.384,0,3.456-2.064a32.364,32.364,0,0,0,6.529-6.576h7.633v5.952H208.81c-1.92,0-3.7-.048-8.305-0.24l0.817,1.728c3.6-.192,4.272-0.192,7.488-0.192h4.369v7.059H202.714c-1.776,0-3.553-.05-9.457-0.29Zm9.409-24.67h21.506V983.5c0,0.624.192,0.816,0.864,0.816a9.8,9.8,0,0,0,2.64-.432,1.106,1.106,0,0,0,1.008-1.056V970.4l1.152-.432a1.012,1.012,0,0,0,.72-0.912,1.492,1.492,0,0,0-.528-1.008l-4.272-4.081-1.968,2.784H204.058l-4.8-2.16v19.394c0,0.336.24,0.48,0.768,0.48,1.825,0,3.745-.624,3.745-1.248V981.39Zm0-1.3v-5.569h21.506v5.569H203.77Zm0-6.865v-5.184h21.506v5.184H203.77ZM280.188,999.3l-3.648,4.085H265.019V991.471h12.817a0.75,0.75,0,0,0,.864-0.576,1.711,1.711,0,0,0-.768-1.057l-3.84-3.12-3.169,3.457H255.13c-2.688,0-4.32-.048-8.305-0.241l1.1,1.729c3.649-.144,5.281-0.192,7.2-0.192h5.521v11.909h-9.889c-2.929,0-4.849-.05-9.457-0.24l1.248,1.77c4.176-.19,6.1-0.24,8.209-0.24h33.267a0.942,0.942,0,0,0,1.1-.72,2.308,2.308,0,0,0-.912-1.34Zm-14.929-28.37v11.281c0,2.064.384,2.784,1.776,3.168,0.96,0.24,2.5.288,7.825,0.288,6.48,0,8.5-.48,8.5-2.064,0-.528-0.192-0.816-1.008-1.3a1.284,1.284,0,0,1-.72-1.2,19.432,19.432,0,0,1,.24-2.352,13.034,13.034,0,0,0,.288-2.161,0.4,0.4,0,0,0-.432-0.48c-0.288,0-.432.288-1.248,2.064-0.96,2.209-1.44,2.929-2.016,3.265-0.816.48-3.12,0.72-6.721,0.72-2.352,0-2.592-.192-2.592-1.776v-9.457h8.017a22.435,22.435,0,0,1-2.208,5.232,2.244,2.244,0,0,0-.384.96,0.277,0.277,0,0,0,.288.288,10.511,10.511,0,0,0,3.024-1.728c0.624-.384,1.3-0.816,1.92-1.248a14.076,14.076,0,0,1,1.248-.816l1.536,0.144h0.192a1.03,1.03,0,0,0,1.249-.912,2.756,2.756,0,0,0-.865-1.584l-4.08-4.609-2.016,2.977H265.259V965.98l0.912-.432a1.281,1.281,0,0,0,.768-1.056,1.051,1.051,0,0,0-1.056-.96l-4.848-.672v6.769H248.457c-0.768-2.16-1.1-2.785-1.488-2.785a0.434,0.434,0,0,0-.336.529,8.366,8.366,0,0,1-2.784,6.288c-1.392,1.344-1.632,1.728-1.632,2.64a2.246,2.246,0,0,0,2.544,2.209c2.256,0,3.936-2.641,3.936-6.337v-1.248h6.193c0.144,8.785-3.408,13.921-11.9,17.185-0.96.384-1.248,0.576-1.248,0.864a0.409,0.409,0,0,0,.48.336c0.336,0,.336,0,3.84-0.816a22.186,22.186,0,0,0,8.689-4.56c2.832-2.64,4.272-6.721,4.608-13.009h5.905Zm47.04,0.72c0.528-.048.864-0.048,1.008-0.048a11.508,11.508,0,0,1,4.944,1.152c4.177,2.112,6.337,6.481,6.337,12.913,0,5.9-1.968,10.273-6.145,13.681a25.916,25.916,0,0,1-8.592,4.467c-0.768.24-.912,0.29-0.912,0.53,0,0.19.192,0.28,0.48,0.28a20.6,20.6,0,0,0,3.072-.57,29.635,29.635,0,0,0,8.881-3.27,17.672,17.672,0,0,0,8.88-15.358,14.482,14.482,0,0,0-3.792-10.129c-3.072-3.312-8.113-5.28-13.489-5.28-11.233,0-20.882,9.073-20.882,19.633a12.435,12.435,0,0,0,2.352,7.729c1.152,1.584,2.785,2.645,4.033,2.645,2.64,0,6.816-3.413,9.648-7.829a30.888,30.888,0,0,0,4.8-15.6A18.365,18.365,0,0,0,312.3,971.645Zm-2.352.192a3.059,3.059,0,0,0,.1.336,11.54,11.54,0,0,1,.288,2.688c0,4.273-1.824,9.6-4.9,14.353-2.016,3.169-4.752,5.665-6.24,5.665s-2.785-2.5-2.785-5.329a18.8,18.8,0,0,1,5.665-13.393C304.282,974.093,306.2,973.037,309.947,971.837ZM119.53,1045.13c-5.953,1.4-5.953,1.4-7.3,1.4a5.062,5.062,0,0,1-2.928-.77,0.254,0.254,0,0,0-.144-0.1,0.543,0.543,0,0,0-.336.48c0,1.44,3.84,4.18,5.857,4.18a3.777,3.777,0,0,0,1.728-.67c1.872-1.16,3.024-1.64,10.033-4.13,0.72,3.98,1.008,6.43,1.68,13.39a4.538,4.538,0,0,0,1.344,3.03,4.482,4.482,0,0,0,2.736,1.58,2.034,2.034,0,0,0,1.92-2.21,10.462,10.462,0,0,0-.336-2.16c-1.728-6.05-2.16-7.78-3.792-14.64,7.825-1.49,10.657-1.87,13.537-1.87l1.44,0.05c1.3,0,1.968-.39,1.968-1.06,0-1.39-3.12-3.31-5.376-3.31a3.308,3.308,0,0,0-.624.05c-2.4,1.68-2.448,1.72-11.473,4.27-0.576-2.59-.768-3.6-1.152-5.95,6.528-2.07,7.248-2.26,8.832-2.45,1.489-.15,1.969-0.39,1.969-1.06,0-1.05-2.641-2.54-4.465-2.54a3.321,3.321,0,0,0-2.016.91,15.913,15.913,0,0,1-4.752,2.45c-0.1-1.44-.192-3.41-0.192-4.61a11.4,11.4,0,0,1,.336-2.35,3.126,3.126,0,0,0,.144-0.72c0-.82-3.409-2.5-5.089-2.5-1.3,0-3.792,1.3-3.792,1.97,0,0.19.192,0.24,0.576,0.24,2.4,0.05,3.312,1.87,4.56,9.07-4.416,1.25-6.528,1.63-8.928,1.63a5.812,5.812,0,0,1-1.825-.24,3.038,3.038,0,0,0-.912-0.33,0.252,0.252,0,0,0-.24.24,4.4,4.4,0,0,0,1.681,1.97,7.215,7.215,0,0,0,3.888,1.34c1.536,0,2.928-.38,6.96-1.97,0.577,2.79.721,3.7,1.009,5.81-1.345.34-2.257,0.58-2.689,0.67Zm51.505-2.83c4.512-1.68,6.384-2.21,7.392-2.21,0.433,0,.721.15,0.721,0.44,0,0.81-1.825,4.32-3.169,6a1.069,1.069,0,0,0-.288.52,0.459,0.459,0,0,0,.432.39c0.24,0,.528-0.24,2.3-1.73a47.116,47.116,0,0,1,4.657-3.5c2.208-.77,2.832-1.11,2.832-1.54a3.152,3.152,0,0,0-1.44-1.92c-1.824-1.54-2.832-2.21-3.408-2.21a3.743,3.743,0,0,0-1.584.58c-0.769.38-1.249,0.62-1.489,0.72a12.093,12.093,0,0,1-2.736.96c-1.536.48-2.592,0.81-4.752,1.49a33.516,33.516,0,0,1-.768-5,1.911,1.911,0,0,1,.048-0.52,4.5,4.5,0,0,0,.1-0.53c0-.43-0.624-0.91-1.632-1.2a21.757,21.757,0,0,0-3.169-.67,1.792,1.792,0,0,0-1.248.52,3.474,3.474,0,0,0-1.008,1.11,0.411,0.411,0,0,0,.384.33,1.865,1.865,0,0,0,.384-0.09,0.573,0.573,0,0,1,.336-0.1c1.3,0,1.92,1.3,3.553,7.11a41.29,41.29,0,0,1-9.457,2.2,2.516,2.516,0,0,1-1.776-.67c-0.192-.33-0.24-0.33-0.336-0.33-0.241,0-.385.24-0.385,0.67,0,1.77,2.449,3.98,4.369,3.98a1.663,1.663,0,0,0,1.1-.53,27.78,27.78,0,0,1,7.1-3.16,138.589,138.589,0,0,1,3.6,16.03c0.144,1.25.24,1.54,0.72,2.02a4.282,4.282,0,0,0,2.4,1.34c0.864,0,1.632-1.06,1.632-2.3a10.532,10.532,0,0,0-.768-3.08C173.627,1051.33,172.379,1047.34,171.035,1042.3Zm28.271-12.91c-1.728,0-2.928.24-2.928,0.62,0,0.15.144,0.24,0.528,0.34,2.448,0.72,5.857,3.89,7.009,6.43,0.672,1.44,1.1,1.83,2.064,1.83a2.652,2.652,0,0,0,2.64-2.55C208.619,1032.75,203.963,1029.39,199.306,1029.39Zm30.819,0.14a1.271,1.271,0,0,0-.72.58c-2.928,3.89-9.889,10.61-16.177,15.55-5.233,4.13-9.7,6.48-12.29,6.48a3.873,3.873,0,0,1-2.832-1.15c-0.24-.48-0.288-0.48-0.432-0.48-0.384,0-.672.91-0.672,1.92,0,1.06.672,2.07,2.5,3.79,1.392,1.3,2.593,2.02,3.361,2.02a1.318,1.318,0,0,0,.672-0.29c0.336-.24.624-0.53,0.912-0.77a5.885,5.885,0,0,1,.912-0.62,72,72,0,0,0,20.45-18.58c2.016-2.73,4.656-7.34,4.656-8.11A0.405,0.405,0,0,0,230.125,1029.53Zm38.88,6c1.776-1.24,2.208-1.63,2.208-2.01a3.682,3.682,0,0,0-1.68-1.68c-2.737-1.92-3.5-2.36-4.081-2.36a2.925,2.925,0,0,0-1.632.68,14.054,14.054,0,0,1-5.712,1.92,113.245,113.245,0,0,1-12.289,1.49,4.37,4.37,0,0,1-3.649-1.4,0.661,0.661,0,0,0-.384-0.33,0.56,0.56,0,0,0-.384.67,4.628,4.628,0,0,0,1.632,3.89,6.281,6.281,0,0,0,2.881,1.39,1.544,1.544,0,0,0,.816-0.34,20.152,20.152,0,0,1,5.76-2.01,59.9,59.9,0,0,1,9.5-1.63c1.056,0,1.488.28,1.488,1.05a14.417,14.417,0,0,1-.912,3.65,30.625,30.625,0,0,1-6.624,11.42,35.539,35.539,0,0,1-15.7,10.81,0.453,0.453,0,0,0-.432.38,0.392,0.392,0,0,0,.432.34c2.592,0,9.169-2.5,13.2-5C260.172,1052.29,264.636,1046.24,269.005,1035.53Zm4.176-14.97a4.82,4.82,0,1,0,4.752,4.8A4.834,4.834,0,0,0,273.181,1020.56Zm-0.048,1.82a2.975,2.975,0,1,1-2.976,2.93A2.98,2.98,0,0,1,273.133,1022.38Zm43.393-.05c-1.489,0-2.209.15-2.209,0.43,0,0.24.144,0.29,0.768,0.53a7.761,7.761,0,0,1,3.889,3.22c1.008,1.49,1.008,1.49,1.872,1.49a1.831,1.831,0,0,0,1.92-1.88C322.766,1024.11,319.79,1022.33,316.526,1022.33Zm-5.329,3.12c-1.2,0-1.776.15-1.776,0.43,0,0.2.1,0.24,0.624,0.44a7.6,7.6,0,0,1,3.888,3.64c0.576,1.16.816,1.35,1.681,1.35a1.866,1.866,0,0,0,1.776-1.92C317.39,1027.32,314.413,1025.45,311.2,1025.45Zm-20.21,9.46a6.1,6.1,0,0,0-4.512-2.21c-0.96,0-2.112.39-2.112,0.72a0.224,0.224,0,0,0,.24.24,2.246,2.246,0,0,1,2.016,1.49c0.912,1.78,1.584,6.19,1.584,10.18a12.067,12.067,0,0,1-.144,1.92c0.96,1.72,1.968,2.49,3.36,2.49a1.687,1.687,0,0,0,1.777-1.77c0-.82-0.624-5.57-1.345-10.28,0.24-.67.481-0.76,2.545-1.1,3.744-.62,12.769-1.87,13.633-1.87a0.95,0.95,0,0,1,1.056.91,4.19,4.19,0,0,1-.144.96c-0.048.1-.1,0.38-0.192,0.72-2.544,11.95-10.225,20.5-22.61,25.11-0.528.19-.672,0.28-0.672,0.52a0.309,0.309,0,0,0,.384.29,33.99,33.99,0,0,0,6.144-1.58,32.669,32.669,0,0,0,14.69-9.99c3.072-3.65,4.512-6.33,7.824-14.59,1.2-.96,1.585-1.34,1.585-1.73,0-.72-3.889-3.98-4.8-3.98a2.045,2.045,0,0,0-1.056.43c-2.064,1.15-2.688,1.3-8.353,1.97,0.384-3.12.624-4.04,1.344-5.48a1.515,1.515,0,0,0,.24-0.67c0-1.39-3.12-3.07-5.616-3.07-1.344,0-2.736.43-2.736,0.86,0,0.15.1,0.24,0.432,0.29,2.016,0.58,2.592,2.45,2.544,8.45C294.348,1034.57,293.58,1034.67,290.987,1034.91Zm52.322,22.08c-0.048.48-.048,0.91-0.1,1.25a13.114,13.114,0,0,1-.672,2.4,2.461,2.461,0,0,0-.24.96c0,0.86,2.448,3.17,3.408,3.17,0.912,0,1.536-.96,1.536-2.31,0-.48-0.048-1.44-0.1-2.59,0-.57-0.1-2.3-0.144-5.23-0.144-5.19-.144-5.19-0.144-5.57a11.285,11.285,0,0,1,.288-2.93,1.781,1.781,0,0,0,.384-0.91c0-.38-0.336-0.67-1.1-1.01-0.576-.29-0.816-0.38-1.344-0.67,1.44-1.49,3.456-3.74,4.8-5.38,0.528-.62.768-0.86,0.864-0.96a2.668,2.668,0,0,1,.769-0.57,0.938,0.938,0,0,0,.624-0.82c0-.57-0.624-1.39-1.969-2.83-1.3-1.3-2.112-1.73-3.408-1.73-0.816,0-1.248.15-1.248,0.43a0.4,0.4,0,0,0,.336.34,1.722,1.722,0,0,1,.912,1.73c0,1.68-2.112,5.18-5.376,9.07-4.081,4.85-9.265,9.22-13.2,11.14a0.486,0.486,0,0,0-.384.38,0.4,0.4,0,0,0,.432.39,22.163,22.163,0,0,0,3.744-1.3c3.936-1.68,6.192-3.27,11.377-8.16,0.288,0.67.288,0.81,0.288,2.69,0,1,0,1-.192,5.66Zm29.136-8.88c0.048-6.29.576-11.38,1.248-12.43a2.017,2.017,0,0,0,.384-1.2c0-.63-0.624-1.39-2.305-2.64a6.454,6.454,0,0,0-3.6-1.54,15.267,15.267,0,0,0-2.88.58,0.551,0.551,0,0,0-.48.43c0,0.24.144,0.34,0.72,0.38,2.208,0.39,2.976,2.26,2.976,7.11,0,0.67,0,3.31.048,7.87v3.31a8.72,8.72,0,0,1-.528,3.7,2.471,2.471,0,0,0-.432,1.1c0,1.06,3.216,4.23,4.321,4.23a0.852,0.852,0,0,0,.672-0.43c0.624-.96,1.92-1.92,4.128-3.08a56.981,56.981,0,0,0,9.409-6.24,47.5,47.5,0,0,0,11.473-12.57,27.4,27.4,0,0,0,2.16-4.08,0.509,0.509,0,0,0-.432-0.44,0.65,0.65,0,0,0-.48.39,61.672,61.672,0,0,1-10.753,10.94c-5.137,4.23-12.961,8.79-15.073,8.79-0.432,0-.576-0.15-0.576-0.63v-3.55Zm44.5-11.81a0.442,0.442,0,0,0-.528.29,0.432,0.432,0,0,0,.336.38c1.872,0.92,3.744,3.7,4.512,6.82,0.336,1.3.72,1.78,1.536,1.78a2.561,2.561,0,0,0,2.4-2.64C425.2,1039.76,420.925,1036.3,416.941,1036.3Zm18.817,5.09c0.816-.86.913-0.96,0.913-1.3,0-.57-1.105-2.16-2.353-3.31a4.88,4.88,0,0,0-3.456-1.58,0.652,0.652,0,0,0-.768.48,0.934,0.934,0,0,0,.48.53,3.17,3.17,0,0,1,.624,2.06c0,3.79-2.592,9.41-6.385,13.97-3.6,4.32-8.832,8.4-13.2,10.22-1.2.48-1.2,0.48-1.2,0.72a0.472,0.472,0,0,0,.48.39c1.824,0,6.961-2.02,9.889-3.84A39.359,39.359,0,0,0,435.758,1041.39Zm-26.258-1.01c-0.48,0-.624.1-0.624,0.29a0.774,0.774,0,0,0,.528.58,12.835,12.835,0,0,1,4.369,6.48,1.3,1.3,0,0,0,1.3,1.05,2.463,2.463,0,0,0,2.208-2.69C417.277,1043.07,413.677,1040.38,409.5,1040.38Zm68.451-19.2c-1.536,0-2.256.14-2.256,0.48,0,0.19.1,0.29,0.384,0.34a8.465,8.465,0,0,1,4.56,3.69c0.672,1.11.816,1.25,1.632,1.25a2,2,0,0,0,2.113-1.92C484.384,1023,481.263,1021.18,477.951,1021.18Zm-6.048,2.83c-1.2,0-1.681.1-1.681,0.39,0,0.19.1,0.28,0.432,0.38a7.509,7.509,0,0,1,3.985,3.6c0.72,1.3.912,1.49,1.728,1.49a1.856,1.856,0,0,0,2.016-1.87C478.383,1025.93,475.263,1024.01,471.9,1024.01Zm-16.37,4.66c-2.064,0-4.176.43-4.176,0.86,0,0.15.1,0.24,0.432,0.34a11.105,11.105,0,0,1,6.864,5.38c0.768,1.44,1.056,1.68,2.065,1.68a2.691,2.691,0,0,0,2.88-2.6C463.6,1031.31,459.853,1028.67,455.533,1028.67Zm-5.808,9.12c-1.585,0-3.025.29-3.025,0.62,0,0.15.048,0.2,0.48,0.39a12.2,12.2,0,0,1,6.289,5.76c0.576,1.01,1.008,1.34,1.68,1.34a2.747,2.747,0,0,0,2.784-2.54C457.933,1040.53,453.9,1037.79,449.725,1037.79Zm-0.24,15.84h-0.048c-0.384-.05-0.672.53-0.672,1.3a5.123,5.123,0,0,0,1.824,3.5c1.728,1.68,3.072,2.59,3.84,2.59a1.883,1.883,0,0,0,1.3-.72,7.306,7.306,0,0,1,.96-0.62,90.882,90.882,0,0,0,15.554-11.71,62.434,62.434,0,0,0,9.216-12.15c1.44-2.69,1.969-3.79,1.969-4.32a0.371,0.371,0,0,0-.288-0.38c-0.241,0-.385.14-0.865,0.81a79.19,79.19,0,0,1-17.761,17.33c-5.425,3.79-9.313,5.67-11.809,5.67-2.064,0-2.88-.34-3.168-1.3h-0.048Z" transform="translate(-105.375 -962.875)"/>
</svg>
