<svg xmlns="http://www.w3.org/2000/svg" width="443.188" height="33.53" viewBox="0 0 443.188 33.53">
  <defs>
    <style>
      .cls-1 {
        fill: #333;
        fill-rule: evenodd;
      }
    </style>
  </defs>
  <path id="宿泊者限定アクティビティ" class="cls-1" d="M503.341,3843.69l0.612-.4a0.739,0.739,0,0,0,.468-0.64,0.88,0.88,0,0,0-.468-0.62l-0.576-.43a24.933,24.933,0,0,0,1.945-4.43l0.864-.18a0.905,0.905,0,0,0,.792-0.86,0.9,0.9,0,0,0-.54-0.79l-3.709-1.73c-1.548,7.02-3.276,11.3-6.409,15.69-1.548,2.16-1.548,2.16-1.548,2.34a0.242,0.242,0,0,0,.252.22,6.518,6.518,0,0,0,1.728-1.22,20.413,20.413,0,0,0,3.709-4.04v13.32c0,0.4.144,0.51,0.576,0.51,1.476,0,2.3-.33,2.3-0.94v-15.8Zm18.687-10.4a23.786,23.786,0,0,1-1.476,3.31,1.933,1.933,0,0,0-.4.83,0.233,0.233,0,0,0,.216.21,2.09,2.09,0,0,0,.9-0.54l1.332-.9,1.44-1.01c0.036,0,.216-0.14.468-0.28l1.657,0.07h0.108a0.75,0.75,0,0,0,.936-0.72,0.965,0.965,0,0,0-.288-0.65l-3.493-3.42-1.4,2.13h-8.965v-2.81l0.576-.22a0.731,0.731,0,0,0,.576-0.68,0.666,0.666,0,0,0-.684-0.69l-3.853-.36v4.76h-9.469c-0.432-1.48-.648-1.98-0.864-1.98-0.144,0-.18.07-0.216,0.57a6.259,6.259,0,0,1-2.557,4.61,2.451,2.451,0,0,0-1.008,1.8,1.673,1.673,0,0,0,1.764,1.73,2.953,2.953,0,0,0,2.341-1.19,5.433,5.433,0,0,0,.936-2.77,15.809,15.809,0,0,0-.144-1.8h21.567Zm-16.094,6.33c2.052-.07,2.988-0.11,4.32-0.11h3.169a29.831,29.831,0,0,1-.72,4.43h-1.657l-3.564-1.98v17.96a0.491,0.491,0,0,0,.54.58c1.548,0,2.448-.4,2.448-1.05v-1H520.8v1.33a0.446,0.446,0,0,0,.54.47,5.73,5.73,0,0,0,1.908-.4,0.712,0.712,0,0,0,.54-0.72v-12.85l0.648-.11a0.732,0.732,0,0,0,.757-0.75,1.083,1.083,0,0,0-.361-0.69l-3.06-2.84-1.224,2.05h-6.229c1.44-1.91,1.656-2.23,3.2-4.43h8.714c0.432,0,.648-0.14.648-0.43a0.626,0.626,0,0,0-.288-0.47l-3.061-2.55-2.232,2.48H510.254c-1.332,0-2.376-.03-4.788-0.14Zm4.536,17.85v-5.97H520.8v5.97H510.47Zm0-6.94v-5.62H520.8v5.62H510.47Zm22.871-13.28c-0.18,0-.252.03-0.252,0.14a0.365,0.365,0,0,0,.216.25,7.334,7.334,0,0,1,2.448,4c0.324,1.26.792,1.73,1.656,1.73a1.917,1.917,0,0,0,1.764-2.06,3.987,3.987,0,0,0-2.736-3.42A10.936,10.936,0,0,0,533.341,3837.25Zm2.988,13.42c-0.936-.11-1.908-0.21-2.3-0.21-0.432,0-.648.14-0.648,0.43,0,0.21.072,0.29,0.576,0.43,1.548,0.47,2.34,1.33,2.34,2.55a11.851,11.851,0,0,1-.18,1.66,18.845,18.845,0,0,0-.36,2.99,1.674,1.674,0,0,0,1.872,1.87,1.976,1.976,0,0,0,2.089-2.12,23.848,23.848,0,0,0-.649-4.22,8.3,8.3,0,0,1-.216-1.61,2.572,2.572,0,0,1,.18-1.05l5.725-16.41a0.268,0.268,0,0,0,.036-0.14,0.355,0.355,0,0,0-.324-0.36,0.42,0.42,0,0,0-.36.25ZM536.4,3829c-0.36,0-.54.11-0.54,0.29a0.3,0.3,0,0,0,.18.22,5.824,5.824,0,0,1,2.484,3.78c0.4,1.44.936,1.98,1.837,1.98a1.993,1.993,0,0,0,1.8-2.2C542.162,3830.91,539.461,3829,536.4,3829Zm12.062,29.45h12.206v1.69c0,0.36.216,0.5,0.684,0.5a6.664,6.664,0,0,0,2.2-.43,0.7,0.7,0,0,0,.612-0.65v-20.23l0.648-.32a1.1,1.1,0,0,0,.828-0.86,1.267,1.267,0,0,0-.468-0.8l-3.24-3.56-1.656,2.52h-8.462c0.864-1.22,1.441-2.09,1.909-2.81,1.188-1.83,1.224-1.9,1.692-2.62l0.684-.29a1.01,1.01,0,0,0,.828-0.94,0.918,0.918,0,0,0-.792-0.83l-4.069-1.26a86.405,86.405,0,0,1-1.44,8.75h-1.656l-3.853-2.09v26.17a0.548,0.548,0,0,0,.684.61c1.333,0,2.665-.5,2.665-0.97v-1.58Zm0-.98v-9.82h12.206v9.82H548.463Zm0-10.79v-9.4h12.206v9.4H548.463Zm33.78,11.84h11.665v1.62a0.49,0.49,0,0,0,.577.54,7.073,7.073,0,0,0,1.836-.33,0.818,0.818,0,0,0,.792-0.64V3848.4l0.648-.25a0.685,0.685,0,0,0,.468-0.61,0.984,0.984,0,0,0-.288-0.65l-2.88-3.02-1.405,1.91h-9.181a50.391,50.391,0,0,0,5.617-4.29h13.9a0.412,0.412,0,0,0,.324-0.46,0.631,0.631,0,0,0-.216-0.47l-3.349-2.88-2.448,2.84h-7.093c1.728-1.51,5.725-5.47,7.093-7.02l1.548-.18a0.627,0.627,0,0,0,.468-0.64,1.092,1.092,0,0,0-.324-0.72l-2.88-2.42a58.676,58.676,0,0,1-3.745,4.76,0.885,0.885,0,0,0-.324-0.62l-2.628-2.16-1.836,2.16h-1.837v-3.85l0.829-.54a0.759,0.759,0,0,0,.4-0.68,0.621,0.621,0,0,0-.613-0.61l-3.852-.36v6.04h-3.169c-0.612,0-1.584,0-2.736-.03l-3.529-.11,0.9,1.26c3.132-.11,4.248-0.14,5.364-0.14H583.5v5.86h-4.825c-1.908,0-3.384-.03-7.093-0.21l0.9,1.36c2.989-.14,3.781-0.18,6.193-0.18h7.705c-0.972.94-3.024,2.7-4.536,3.89L579,3844.19v3.35a10.005,10.005,0,0,1-1.728,1.37l-1.3.93-1.656,1.12-1.657,1.12-1.152.72c-0.792.5-.792,0.5-0.792,0.68a0.274,0.274,0,0,0,.288.21c0.684,0,5.473-2.41,7.993-4.03v10.44a0.67,0.67,0,0,0,.72.83c1.008,0,2.521-.54,2.521-0.9v-1.51Zm0-.97v-5.37h11.665v5.37H582.243Zm0-6.34v-4.46h11.665v4.46H582.243Zm4.5-10.69v-5.86h6.337a70.151,70.151,0,0,1-5.653,5.86h-0.684Zm26.975-9.1h4.645l-3.1,8.17c0.5,0.72.576,0.82,0.936,1.29a20.911,20.911,0,0,1,1.4,1.95,7.352,7.352,0,0,1,1.152,3.92c0,2.34-.576,3.09-2.3,3.09-0.18,0-.468,0-0.864-0.03l-1.225-.04c-0.252,0-.324.07-0.324,0.29,0,0.14,0,.14,1.369.83,1.4,0.72,1.4.72,1.368,1.51s0.18,1.11.864,1.11c2.124,0,4.176-2.8,4.176-5.72a7.843,7.843,0,0,0-1.332-4.21c-0.792-1.19-1.332-1.73-3.6-3.49-0.252-.22-0.5-0.4-0.684-0.58l4.752-6.55,0.612-.07a0.709,0.709,0,0,0,.757-0.72,1.075,1.075,0,0,0-.288-0.75l-2.413-2.63-1.116,1.65H614.33l-3.636-1.65v31.53a0.374,0.374,0,0,0,.4.47c0.18,0,1.152-.15,1.476-0.22,0.936-.18,1.152-0.36,1.152-0.97v-28.18Zm7.561,28.32a0.734,0.734,0,0,0,.685.47,0.866,0.866,0,0,0,.792-0.5l0.432-.83c3.888-1.51,6.733-2.7,8.641-3.6,1.224-.58,1.476-0.76,1.476-1.01a0.3,0.3,0,0,0-.324-0.29l-0.36.04c-0.324.07-1.008,0.21-1.512,0.32-0.576.11-1.26,0.25-2.052,0.43-0.577.11-.721,0.15-1.765,0.36l-0.792.18v-11.76h2.989c0.936,6.87,4.032,11.8,10.513,16.7a7.314,7.314,0,0,1,3.565-2.92,24.79,24.79,0,0,1-9.542-6.62l0.9-.54,2.269-1.33,2.34-1.37,0.864-.47,1.08-.11c0.613-.07.865-0.21,0.865-0.57a1.081,1.081,0,0,0-.36-0.69l-2.521-2.34a31.289,31.289,0,0,1-5.9,6.73,20.588,20.588,0,0,1-3.2-6.47h4.392v1.22c0,0.5.144,0.65,0.685,0.65,1.368,0,2.34-.47,2.34-1.19V3833.5l0.36-.18a0.984,0.984,0,0,0,.72-0.86,1.188,1.188,0,0,0-.4-0.79l-2.88-2.85-1.225,1.88h-7.6l-3.384-1.59v26.67c-2.089.4-2.413,0.43-4.141,0.69Zm5.221-17.17v-4.96h8.245v4.96H626.5Zm0-5.94v-4.96h8.245v4.96H626.5Zm39.145,11.85h11.414a0.512,0.512,0,0,0,.324-0.58,0.581,0.581,0,0,0-.216-0.5l-2.989-2.52-2.556,2.62h-5.977v-7.16h9.9a0.453,0.453,0,0,0,.36-0.5,0.763,0.763,0,0,0-.288-0.58l-3.024-2.48-2.232,2.59H658.768c-1.908,0-3.061-.04-6.229-0.18l0.864,1.3c2.628-.15,3.1-0.15,5.365-0.15H662.4v14.76c-2.016-.65-4.644-3.02-5.976-5.36a27.267,27.267,0,0,0,1.008-3.78l1.116-.51a0.667,0.667,0,0,0,.4-0.61,0.644,0.644,0,0,0-.5-0.61l-4.069-1.08c-0.54,7.16-2.16,11.59-5.689,15.8-0.756.9-.756,0.9-0.756,1.08a0.2,0.2,0,0,0,.216.18,2.272,2.272,0,0,0,.936-0.5,19.629,19.629,0,0,0,4.429-4.36,16.635,16.635,0,0,0,2.52-4.57,15.5,15.5,0,0,0,6.373,6.98c2.269,1.19,5.581,1.69,10.874,1.69,2.34,0,3.817-.03,6.085-0.18,0.468-1.33.648-1.58,2.2-3.42a75.436,75.436,0,0,1-9.613.58,43.193,43.193,0,0,1-6.3-.4v-7.55Zm-12.1-15.26h21.747a17.7,17.7,0,0,1-1.188,3.23,5.13,5.13,0,0,0-.36,1.01,0.1,0.1,0,0,0,.108.11,2.269,2.269,0,0,0,.9-0.5c0.324-.22.684-0.47,1.044-0.72,0.324-.22.468-0.29,1.765-1.19l2.016,0.07,0.216,0.04a0.96,0.96,0,0,0,.648-0.79,1.476,1.476,0,0,0-.432-0.8l-3.492-3.38-1.369,1.94h-9.5v-2.62l0.9-.44a0.865,0.865,0,0,0,.5-0.75,0.662,0.662,0,0,0-.612-0.65l-4.069-.32v4.78h-9c-0.36-1.54-.54-1.98-0.828-1.98-0.216,0-.288.18-0.36,0.76a5.986,5.986,0,0,1-2.232,4.07c-1.333,1.04-1.513,1.33-1.513,2.12a1.761,1.761,0,0,0,1.909,1.76c1.908,0,3.24-1.87,3.24-4.46Zm51.963,7.7c1.476-.69,3.456-1.66,6.013-2.88a8.472,8.472,0,0,1,2.448-.83c1.548-.14,2.052-0.36,2.052-1.04,0-.4-0.288-0.83-1.332-1.98-1.512-1.66-2.268-2.27-2.844-2.27a2.987,2.987,0,0,0-.684.14,23.137,23.137,0,0,1-6.373,1.48c-4.069.54-10.262,1.19-11.594,1.19a2.566,2.566,0,0,1-2.521-1.19c-0.144-.22-0.18-0.25-0.288-0.25-0.18,0-.288.39-0.288,1.11a3.264,3.264,0,0,0,1.045,2.31,5.736,5.736,0,0,0,2.736,1.51,2.307,2.307,0,0,0,1.188-.54,10.8,10.8,0,0,1,3.457-1.41,52.165,52.165,0,0,1,9.865-1.65c0.864,0,1.44.22,1.44,0.54,0,0.75-2.16,2.95-4.464,4.57a6.057,6.057,0,0,0-3.781-1.84,1.184,1.184,0,0,0-1.26.65,1.7,1.7,0,0,1,1.224,1.77c0,2.48-1.476,7.66-3.1,10.94a19.125,19.125,0,0,1-6.157,7.59,0.488,0.488,0,0,0-.288.36,0.2,0.2,0,0,0,.216.18,3.441,3.441,0,0,0,1.224-.47,20.194,20.194,0,0,0,5.689-4.28C701.981,3851.43,704.106,3846.82,705.51,3840.92Zm35.148-2.95a2.305,2.305,0,0,0,1.188.43,17.567,17.567,0,0,0,2.7-.58,7.985,7.985,0,0,1,1.585-.36,0.7,0.7,0,0,1,.684.72,10.575,10.575,0,0,1-1.656,4.07,40.6,40.6,0,0,1-8.138,9.86,31.3,31.3,0,0,1-9.469,5.87c-0.288.11-.4,0.18-0.4,0.32a0.271,0.271,0,0,0,.252.22,17.515,17.515,0,0,0,3.744-.97,35.391,35.391,0,0,0,12.566-8.1c2.557-2.56,3.745-4.29,7.093-10.37a9.839,9.839,0,0,1,.936-0.86,0.984,0.984,0,0,0,.433-0.58c0-.68-2.737-3.16-3.493-3.16a2.745,2.745,0,0,0-1.26.57,13.866,13.866,0,0,1-5.581,1.94,1.724,1.724,0,0,1-.612-0.1,16.316,16.316,0,0,0,1.692-3.31,3.465,3.465,0,0,0-1.548-1.8,5.333,5.333,0,0,0-2.989-1.05c-0.756,0-1.44.22-1.44,0.47,0,0.07.072,0.14,0.36,0.22a2.26,2.26,0,0,1,1.08,2.19c0,3.42-4.68,10.76-8.533,13.43-0.612.43-.684,0.46-0.684,0.64a0.234,0.234,0,0,0,.216.22,11.669,11.669,0,0,0,2.7-1.3C735.293,3844.62,737.777,3842.14,740.658,3837.97Zm30.359-4.79a0.314,0.314,0,0,0-.216.29,4.748,4.748,0,0,0,1.008,1.94,2.941,2.941,0,0,0,2.341,1.04,49.966,49.966,0,0,0,8.929-1.47c1.944-.43,2.664-0.76,2.664-1.26a1.86,1.86,0,0,0-1.116-1.33,5.772,5.772,0,0,0-1.872-.65,1.734,1.734,0,0,0-.648.18,15.365,15.365,0,0,1-2.2.9,24.746,24.746,0,0,1-6.409,1.19,3.6,3.6,0,0,1-2.377-.76A0.222,0.222,0,0,0,771.017,3833.18Zm7.489,8.24a1.536,1.536,0,0,1,.288.94c0,1.94-1.224,5.4-2.88,8.06a21.612,21.612,0,0,1-7.093,7.05c-1.728.9-1.728,0.9-1.728,1.05a0.232,0.232,0,0,0,.288.21,25.842,25.842,0,0,0,5.256-2.08c4.465-2.45,8.03-7.09,10.01-12.96a1.336,1.336,0,0,0,.54-0.83c0-.25-0.36-0.61-1.764-1.69,2.3-.14,2.772-0.18,3.672-0.18a44.136,44.136,0,0,1,4.9.36,5.977,5.977,0,0,0,.936.11,1.2,1.2,0,0,0,1.332-1.05c0-.61-0.36-1-1.476-1.69a6.92,6.92,0,0,0-2.448-1.11c-1.476.9-2.521,1.22-5.509,1.65-3.024.43-12.89,1.48-14.15,1.48-1.512,0-2.2-.29-2.809-1.15a0.806,0.806,0,0,0-.36.68,2.488,2.488,0,0,0,.9,1.8,5.661,5.661,0,0,0,2.736,1.4,2,2,0,0,0,.576-0.1A35.439,35.439,0,0,1,778.506,3841.42Zm38.317,13.14c-0.036.36-.036,0.68-0.072,0.93a9.727,9.727,0,0,1-.5,1.8,1.846,1.846,0,0,0-.18.72c0,0.65,1.836,2.38,2.556,2.38,0.684,0,1.152-.72,1.152-1.73,0-.36-0.036-1.08-0.072-1.94,0-.43-0.072-1.73-0.108-3.92-0.108-3.89-.108-3.89-0.108-4.18a8.488,8.488,0,0,1,.216-2.2,1.347,1.347,0,0,0,.288-0.68,1.037,1.037,0,0,0-.828-0.76c-0.432-.21-0.612-0.28-1.008-0.5,1.08-1.11,2.593-2.81,3.6-4.03,0.4-.47.576-0.65,0.648-0.72a1.987,1.987,0,0,1,.576-0.43,0.7,0.7,0,0,0,.468-0.61c0-.44-0.468-1.05-1.476-2.13a3.282,3.282,0,0,0-2.557-1.29c-0.612,0-.936.1-0.936,0.32a0.29,0.29,0,0,0,.252.25,1.3,1.3,0,0,1,.684,1.3c0,1.26-1.584,3.89-4.032,6.8-3.061,3.64-6.949,6.91-9.9,8.35a0.368,0.368,0,0,0-.288.29,0.3,0.3,0,0,0,.324.29,16.965,16.965,0,0,0,2.809-.97c2.952-1.26,4.644-2.45,8.533-6.12a4,4,0,0,1,.216,2.01c0,0.76,0,.76-0.144,4.25Zm30.107-7.99c0,4.35.288,5.83,1.332,7.27,1.441,1.94,3.421,2.55,8.066,2.55a30.424,30.424,0,0,0,7.381-.79c1.08-.32,1.62-0.86,1.62-1.55,0-.93-1.8-1.94-3.817-2.08a14.393,14.393,0,0,1-7.057,1.44c-3.744,0-4.608-.97-4.608-5.11,0-.72,0-1.01.108-2.96a59.388,59.388,0,0,0,10.8-3.92c2.341-1.01,2.809-1.33,2.809-1.83a1.647,1.647,0,0,0-.468-0.98,11.4,11.4,0,0,0-2.233-1.9,6.467,6.467,0,0,0-2.16-.47c-0.324,0-.5.07-0.5,0.25a0.77,0.77,0,0,0,.18.36,1.218,1.218,0,0,1,.288.83,3.382,3.382,0,0,1-1.512,2.34,43.26,43.26,0,0,1-7.165,4.28,61.124,61.124,0,0,1,.648-7.88,5.611,5.611,0,0,0,.18-1.23,1.84,1.84,0,0,0-1.116-1.61,5.886,5.886,0,0,0-2.665-.98c-0.9,0-2.268.47-2.268,0.76a0.235,0.235,0,0,0,.18.18c1.764,0.68,2.088,1.44,2.088,4.79,0,0.75-.036,2.12-0.072,4.06Zm14.366-15.26c-0.972,0-1.512.14-1.512,0.43a0.293,0.293,0,0,0,.252.25,5.558,5.558,0,0,1,3.133,2.41c0.5,0.9.684,1.08,1.224,1.08a1.493,1.493,0,0,0,1.584-1.36C865.977,3832.64,863.745,3831.31,861.3,3831.31Zm4.321-2.67c-0.864,0-1.548.22-1.548,0.47a0.341,0.341,0,0,0,.252.25,5.368,5.368,0,0,1,3.132,2.34c0.576,0.98.756,1.12,1.3,1.12a1.571,1.571,0,0,0,1.584-1.4C870.334,3830.01,868.029,3828.64,865.617,3828.64Zm19.918,4.54a0.314,0.314,0,0,0-.216.29,4.748,4.748,0,0,0,1.008,1.94,2.939,2.939,0,0,0,2.34,1.04,49.959,49.959,0,0,0,8.93-1.47c1.944-.43,2.664-0.76,2.664-1.26a1.86,1.86,0,0,0-1.116-1.33,5.772,5.772,0,0,0-1.872-.65,1.734,1.734,0,0,0-.648.18,15.414,15.414,0,0,1-2.2.9,24.738,24.738,0,0,1-6.409,1.19,3.6,3.6,0,0,1-2.376-.76A0.222,0.222,0,0,0,885.535,3833.18Zm7.489,8.24a1.536,1.536,0,0,1,.288.94c0,1.94-1.224,5.4-2.88,8.06a21.621,21.621,0,0,1-7.093,7.05c-1.729.9-1.729,0.9-1.729,1.05a0.232,0.232,0,0,0,.288.21,25.847,25.847,0,0,0,5.257-2.08c4.465-2.45,8.029-7.09,10.01-12.96a1.336,1.336,0,0,0,.54-0.83c0-.25-0.36-0.61-1.765-1.69,2.3-.14,2.773-0.18,3.673-0.18a44.154,44.154,0,0,1,4.9.36,5.977,5.977,0,0,0,.936.11,1.2,1.2,0,0,0,1.332-1.05c0-.61-0.36-1-1.476-1.69a6.915,6.915,0,0,0-2.449-1.11c-1.476.9-2.52,1.22-5.508,1.65-3.025.43-12.89,1.48-14.15,1.48-1.513,0-2.2-.29-2.809-1.15a0.806,0.806,0,0,0-.36.68,2.49,2.49,0,0,0,.9,1.8,5.663,5.663,0,0,0,2.737,1.4,2,2,0,0,0,.576-0.1A35.428,35.428,0,0,1,893.024,3841.42Zm38.317,13.14c-0.036.36-.036,0.68-0.072,0.93a9.727,9.727,0,0,1-.5,1.8,1.834,1.834,0,0,0-.181.72c0,0.65,1.837,2.38,2.557,2.38,0.684,0,1.152-.72,1.152-1.73,0-.36-0.036-1.08-0.072-1.94,0-.43-0.072-1.73-0.108-3.92-0.108-3.89-.108-3.89-0.108-4.18a8.488,8.488,0,0,1,.216-2.2,1.347,1.347,0,0,0,.288-0.68,1.037,1.037,0,0,0-.828-0.76c-0.432-.21-0.612-0.28-1.008-0.5,1.08-1.11,2.592-2.81,3.6-4.03,0.4-.47.576-0.65,0.648-0.72a1.98,1.98,0,0,1,.577-0.43,0.7,0.7,0,0,0,.468-0.61c0-.44-0.468-1.05-1.477-2.13a3.28,3.28,0,0,0-2.556-1.29c-0.612,0-.936.1-0.936,0.32a0.29,0.29,0,0,0,.252.25,1.3,1.3,0,0,1,.684,1.3c0,1.26-1.584,3.89-4.033,6.8-3.06,3.64-6.949,6.91-9.9,8.35a0.368,0.368,0,0,0-.288.29,0.3,0.3,0,0,0,.324.29,16.933,16.933,0,0,0,2.808-.97c2.953-1.26,4.645-2.45,8.534-6.12a4,4,0,0,1,.216,2.01c0,0.76,0,.76-0.144,4.25Z" transform="translate(-494.781 -3827.47)"/>
</svg>
