<svg xmlns="http://www.w3.org/2000/svg" width="329.469" height="31.97" viewBox="0 0 329.469 31.97">
  <defs>
    <style>
      .cls-1 {
        fill: #333;
        fill-rule: evenodd;
      }
    </style>
  </defs>
  <path id="グランピングサイト" class="cls-1" d="M580.762,3827.56q-1.4,0-1.4.33a0.282,0.282,0,0,0,.216.29,5.994,5.994,0,0,1,3.637,3.02,1,1,0,0,0,1.008.58,1.335,1.335,0,0,0,1.476-1.37C585.7,3828.82,583.5,3827.56,580.762,3827.56Zm-4.212,2.34c-0.828,0-1.116.08-1.116,0.33,0,0.14.072,0.18,0.468,0.32a5.572,5.572,0,0,1,2.952,2.88,1.057,1.057,0,0,0,1.08.87,1.414,1.414,0,0,0,1.476-1.44C581.41,3831.31,579.106,3829.9,576.55,3829.9Zm-8.318,8.35a2.106,2.106,0,0,0,1.189.47,17.424,17.424,0,0,0,2.7-.61,8.582,8.582,0,0,1,1.584-.36,0.69,0.69,0,0,1,.684.72,10.575,10.575,0,0,1-1.656,4.07,41.766,41.766,0,0,1-8.137,9.9,32.073,32.073,0,0,1-9.47,5.86c-0.288.11-.4,0.18-0.4,0.33a0.273,0.273,0,0,0,.252.21,17.505,17.505,0,0,0,3.745-.97,35.264,35.264,0,0,0,12.566-8.1c2.556-2.55,3.708-4.28,7.093-10.4,0.432-.43.612-0.58,0.936-0.86a1,1,0,0,0,.432-0.54c0-.72-2.736-3.21-3.492-3.21a2.816,2.816,0,0,0-1.261.58,13.862,13.862,0,0,1-5.58,1.94,1.651,1.651,0,0,1-.612-0.11,14.231,14.231,0,0,0,1.692-3.31,3.5,3.5,0,0,0-1.548-1.8,5.4,5.4,0,0,0-2.989-1.04c-0.756,0-1.44.22-1.44,0.47,0,0.07.072,0.14,0.36,0.21a2.315,2.315,0,0,1,1.08,2.24c0,3.59-4.645,10.72-8.893,13.67a0.612,0.612,0,0,0-.324.4,0.225,0.225,0,0,0,.216.21,11.474,11.474,0,0,0,2.7-1.29C562.868,3844.95,565.352,3842.47,568.232,3838.25Zm31.188-5.29a0.236,0.236,0,0,0-.216.18,4.734,4.734,0,0,0,1.008,1.73,3.812,3.812,0,0,0,3.1,1.37,33.994,33.994,0,0,0,5.94-.87c1.765-.36,2.881-0.53,4.429-0.71,0.864-.15,1.3-0.4,1.3-0.83,0-.79-2.088-2.05-3.348-2.05a2.045,2.045,0,0,0-.972.39,6.366,6.366,0,0,1-1.909.72,32.112,32.112,0,0,1-6.445.97,3.933,3.933,0,0,1-2.592-.72A0.386,0.386,0,0,0,599.42,3832.96Zm18.075,9.4a2.7,2.7,0,0,1,.792-0.47,1.125,1.125,0,0,0,.432-0.25,0.648,0.648,0,0,0,.144-0.4c0-.32,0-0.32-0.792-1.11-1.62-1.62-2.233-2.06-2.737-2.06a3.936,3.936,0,0,0-1.4.51,9.124,9.124,0,0,1-2.772.86A93.665,93.665,0,0,1,600,3840.92a3.724,3.724,0,0,1-3.024-1.19,0.438,0.438,0,0,0-.324-0.32c-0.216,0-.325.28-0.325,0.86,0,1.62,1.981,3.71,3.529,3.71a3.119,3.119,0,0,0,1.4-.54,46.652,46.652,0,0,1,11.054-2.45c0.756,0,1.188.22,1.188,0.65a9.69,9.69,0,0,1-.972,2.73,23.879,23.879,0,0,1-4.717,7.63,22.723,22.723,0,0,1-10.261,6.41,0.391,0.391,0,0,0-.4.32,0.324,0.324,0,0,0,.4.29,20.063,20.063,0,0,0,5.437-1.22,25.88,25.88,0,0,0,9.4-6.73C614.11,3849.05,615.406,3846.82,617.5,3842.36Zm18.549-8.5c-1.3,0-2.2.18-2.2,0.47,0,0.11.108,0.18,0.4,0.25a10.5,10.5,0,0,1,5.257,4.83c0.5,1.08.828,1.36,1.548,1.36a1.98,1.98,0,0,0,1.98-1.9C643.029,3836.38,639.537,3833.86,636.044,3833.86Zm23.116,0.11a1,1,0,0,0-.54.43,79.1,79.1,0,0,1-12.134,11.66c-3.925,3.1-7.273,4.86-9.218,4.86a2.924,2.924,0,0,1-2.124-.86c-0.18-.36-0.216-0.36-0.324-0.36-0.288,0-.5.68-0.5,1.44,0,0.79.5,1.55,1.872,2.84a4.731,4.731,0,0,0,2.521,1.51,1,1,0,0,0,.5-0.21c0.252-.18.468-0.4,0.684-0.58a4.159,4.159,0,0,1,.684-0.47,53.98,53.98,0,0,0,15.338-13.92c1.513-2.06,3.493-5.51,3.493-6.09A0.313,0.313,0,0,0,659.16,3833.97Zm15.993,12.63c0,4.36.288,5.84,1.332,7.27,1.44,1.95,3.421,2.56,8.065,2.56a30.433,30.433,0,0,0,7.382-.79c1.08-.33,1.62-0.87,1.62-1.55,0-.93-1.8-1.94-3.817-2.09a14.193,14.193,0,0,1-7.057,1.44c-3.744,0-4.609-.97-4.609-5.11,0-.72,0-1.01.108-2.95a58.448,58.448,0,0,0,10.8-3.92c2.3-1.01,2.809-1.33,2.809-1.84a1.6,1.6,0,0,0-.469-0.97,11.872,11.872,0,0,0-2.232-1.91,6.723,6.723,0,0,0-2.16-.47c-0.324,0-.5.08-0.5,0.26a0.77,0.77,0,0,0,.18.36,1.2,1.2,0,0,1,.288.82,3.382,3.382,0,0,1-1.512,2.34,42.635,42.635,0,0,1-7.166,4.29,61.277,61.277,0,0,1,.649-7.89,5.493,5.493,0,0,0,.18-1.22,1.841,1.841,0,0,0-1.117-1.62,5.971,5.971,0,0,0-2.664-.97c-0.9,0-2.268.47-2.268,0.76a0.235,0.235,0,0,0,.18.18c1.764,0.68,2.088,1.43,2.088,4.78,0,0.76-.036,2.13-0.072,4.07Zm19.3-18.06a3.615,3.615,0,1,0,3.564,3.6A3.625,3.625,0,0,0,694.452,3828.54Zm-0.036,1.36a2.235,2.235,0,1,1-2.232,2.2A2.239,2.239,0,0,1,694.416,3829.9Zm17.973,3.96c-1.3,0-2.2.18-2.2,0.47,0,0.11.108,0.18,0.4,0.25a10.5,10.5,0,0,1,5.257,4.83c0.5,1.08.828,1.36,1.548,1.36a1.98,1.98,0,0,0,1.98-1.9C719.374,3836.38,715.882,3833.86,712.389,3833.86Zm23.116,0.11a1,1,0,0,0-.54.43,79.1,79.1,0,0,1-12.134,11.66c-3.925,3.1-7.273,4.86-9.217,4.86a2.924,2.924,0,0,1-2.125-.86c-0.18-.36-0.216-0.36-0.324-0.36-0.288,0-.5.68-0.5,1.44,0,0.79.5,1.55,1.872,2.84a4.735,4.735,0,0,0,2.521,1.51,1,1,0,0,0,.5-0.21c0.252-.18.468-0.4,0.684-0.58a4.159,4.159,0,0,1,.684-0.47,53.98,53.98,0,0,0,15.338-13.92c1.513-2.06,3.493-5.51,3.493-6.09A0.313,0.313,0,0,0,735.505,3833.97Zm36.12-6.41q-1.4,0-1.4.33a0.282,0.282,0,0,0,.216.29,6,6,0,0,1,3.637,3.02,1,1,0,0,0,1.008.58,1.335,1.335,0,0,0,1.476-1.37C776.558,3828.82,774.362,3827.56,771.625,3827.56Zm-4.212,2.34c-0.829,0-1.117.08-1.117,0.33,0,0.14.072,0.18,0.468,0.32a5.57,5.57,0,0,1,2.953,2.88,1.057,1.057,0,0,0,1.08.87,1.414,1.414,0,0,0,1.476-1.44C772.273,3831.31,769.969,3829.9,767.413,3829.9Zm-8.318,8.35a2.1,2.1,0,0,0,1.188.47,17.423,17.423,0,0,0,2.7-.61,8.582,8.582,0,0,1,1.584-.36,0.69,0.69,0,0,1,.684.72,10.575,10.575,0,0,1-1.656,4.07,41.766,41.766,0,0,1-8.137,9.9,32.073,32.073,0,0,1-9.47,5.86c-0.288.11-.4,0.18-0.4,0.33a0.273,0.273,0,0,0,.252.21,17.52,17.52,0,0,0,3.745-.97,35.264,35.264,0,0,0,12.566-8.1c2.556-2.55,3.708-4.28,7.093-10.4,0.432-.43.612-0.58,0.936-0.86a1,1,0,0,0,.432-0.54c0-.72-2.736-3.21-3.493-3.21a2.81,2.81,0,0,0-1.26.58,13.861,13.861,0,0,1-5.581,1.94,1.651,1.651,0,0,1-.612-0.11,14.251,14.251,0,0,0,1.693-3.31,3.505,3.505,0,0,0-1.549-1.8,5.392,5.392,0,0,0-2.988-1.04c-0.756,0-1.44.22-1.44,0.47,0,0.07.072,0.14,0.36,0.21a2.315,2.315,0,0,1,1.08,2.24c0,3.59-4.645,10.72-8.893,13.67a0.612,0.612,0,0,0-.324.4,0.225,0.225,0,0,0,.216.21,11.474,11.474,0,0,0,2.7-1.29C753.73,3844.95,756.215,3842.47,759.1,3838.25Zm45.59,2.74c0.756-.04,1.3-0.04,1.4-0.04,1.044,0,3.529.18,4.609,0.33a12.424,12.424,0,0,0,1.368.11,1.041,1.041,0,0,0,1.152-.94c0-1.08-1.98-2.52-4-2.88a15.185,15.185,0,0,1-5.617,1.62c-0.036-.61-0.036-1.26-0.036-1.44a11.726,11.726,0,0,1,.5-4.32,1.65,1.65,0,0,0,.18-0.5,2.467,2.467,0,0,0-.792-1.08,4.823,4.823,0,0,0-3.349-1.48c-0.864,0-1.872.36-1.872,0.69a0.235,0.235,0,0,0,.18.18c1.656,0.54,1.728.72,1.836,6.01,0.036,0.28.072,1.33,0.108,2.34l-2.916.32c-0.792.11-1.152,0.14-2.2,0.22-0.036-.44-0.036-0.83-0.036-0.98l-0.036-.75v-2.23a4.188,4.188,0,0,1,.072-0.98,2.268,2.268,0,0,0,.072-0.39c0-.83-2.269-2.12-3.781-2.12a3.949,3.949,0,0,0-1.152.28l-0.54.18a0.811,0.811,0,0,0-.576.47c0,0.11.144,0.18,0.36,0.18,1.728,0.36,2.412,1.37,2.412,3.49l0.072,0.97c0,0.26,0,.62.036,1.08l0.036,1.12c-3.564.32-4.681,0.4-5.365,0.4-1.692,0-2.952-.29-3.348-0.76a0.38,0.38,0,0,0-.216-0.18c-0.144,0-.216.11-0.216,0.36a2.922,2.922,0,0,0,.72,1.87,3.8,3.8,0,0,0,2.232,1.55,3.338,3.338,0,0,0,.972-0.25c0.072,0,.612-0.18,1.585-0.47,0.324-.07.684-0.18,1.116-0.25,0.936-.18.972-0.22,2.556-0.51v1.48a15.748,15.748,0,0,1-.216,3.17c-0.036.25-.072,0.39-0.072,0.5a3.5,3.5,0,0,0,.864,1.58,2.366,2.366,0,0,0,1.62.83,1.138,1.138,0,0,0,1.117-1.08c0-.14-0.036-0.43-0.072-0.83-0.036-.03-0.108-1.76-0.108-3.52-0.036-1.8-.036-1.87-0.072-2.7a40.273,40.273,0,0,1,5.076-.51c0,8.35-2.988,14.44-8.533,17.21-1.3.65-1.332,0.68-1.332,0.9a0.35,0.35,0,0,0,.324.25,11.963,11.963,0,0,0,2.808-.94c4.393-1.87,7.057-4.57,8.462-8.63,0.828-2.45,1.116-4.32,1.4-8.89Zm34.68,15.48c0-.04-0.072-1.7-0.18-5.01-0.072-3.31-.144-6.3-0.144-6.33a10.772,10.772,0,0,1,.252-2.38,1.169,1.169,0,0,0,.324-0.75c0-.36-0.216-0.54-1.4-1.08-0.108-.04-0.468-0.22-0.828-0.4,2.484-2.66,3.6-3.92,4.68-5.22a3.651,3.651,0,0,1,1.261-1.15,0.7,0.7,0,0,0,.468-0.61c0-.47-0.54-1.22-1.837-2.52-1.116-1.15-1.8-1.51-2.952-1.51-0.684,0-1.044.11-1.044,0.32a0.311,0.311,0,0,0,.216.22,1.532,1.532,0,0,1,.864,1.55c0,3.99-9.722,14.75-16.347,18.14-0.648.32-.684,0.32-0.684,0.5a0.28,0.28,0,0,0,.288.25,16.55,16.55,0,0,0,3.493-1.22c3.672-1.59,5.365-2.81,10.189-7.34a4.924,4.924,0,0,1,.252,2.08c0,1.8-.036,3.28-0.18,6.73a15.507,15.507,0,0,1-.612,4.83,3.089,3.089,0,0,0-.324,1.15c0,0.83,2.125,2.81,2.989,2.81,0.72,0,1.3-.87,1.3-1.95Zm34.572-9.69-0.036-2.95-0.072-3.27a12.688,12.688,0,0,1,5.653,4.82,10.033,10.033,0,0,0,1.152,1.69,2.155,2.155,0,0,0,1.656.76,1.834,1.834,0,0,0,1.909-1.91c0-1.3-1.189-2.84-2.989-3.99-1.98-1.26-3.961-1.8-7.345-2.09a25.966,25.966,0,0,1,.5-5.87,3.643,3.643,0,0,0,.5-1.4,3.427,3.427,0,0,0-.972-1.66,3.835,3.835,0,0,0-2.592-1.51c-1.045,0-3.2,1.01-3.2,1.48a0.238,0.238,0,0,0,.288.25c1.728,0,2.088.47,2.268,2.7,0.073,1.01.253,7.99,0.253,10.4a91.539,91.539,0,0,1-.5,9.57,10.83,10.83,0,0,0-.36,2.02c0,1.33,1.585,3.6,2.557,3.6,0.9,0,1.62-1.41,1.62-3.24,0-.47-0.036-1.69-0.144-3.17-0.036-.43-0.072-1.62-0.072-2.88Z" transform="translate(-554.719 -3827.56)"/>
</svg>
