<svg xmlns="http://www.w3.org/2000/svg" width="124.875" height="19.78" viewBox="0 0 124.875 19.78">
  <defs>
    <style>
      .cls-1 {
        fill: #333;
        fill-rule: evenodd;
      }
    </style>
  </defs>
  <path id="Log_Cabin" data-name="Log Cabin" class="cls-1" d="M659.375,3893.26h12.983l0.12-5.78H671.9a7.4,7.4,0,0,1-1.52,3.58c-0.96,1.14-2.1,1.58-4.081,1.58a3,3,0,0,1-1.94-.44,2.1,2.1,0,0,1-.28-1.5v-9.84c-0.06-1.42.36-1.78,1.94-1.78h0.66v-0.52H659.4v0.52h0.32c1.32-.02,1.86.34,1.96,1.28v10.16c0,1.92-.3,2.2-2.3,2.2v0.54Zm22.441-10.08a4.869,4.869,0,0,0-4.841,5.18c0,2.98,1.981,5.2,4.661,5.2a4.825,4.825,0,0,0,4.821-5.16C686.457,3885.3,684.577,3883.18,681.816,3883.18Zm-0.02.68a2.2,2.2,0,0,1,1.821.96,6.939,6.939,0,0,1,.58,3.48c0,3.12-.78,4.54-2.521,4.54-1.6,0-2.36-1.44-2.36-4.44C679.316,3885.3,680.1,3883.86,681.8,3883.86Zm16.481,0.42a4.252,4.252,0,0,0-2.98-1.04c-2.4,0-4.061,1.32-4.061,3.2a2.855,2.855,0,0,0,1.76,2.62,2.221,2.221,0,0,0-1.7,2.04c0,0.98.5,1.52,1.88,2.02-1.58.42-2.32,1.12-2.32,2.22,0,1.54,1.7,2.42,4.621,2.42,3.241,0,5.2-1.26,5.2-3.34a2.475,2.475,0,0,0-1.68-2.4,11.179,11.179,0,0,0-3.161-.56c-2.381-.24-2.921-0.46-2.921-1.2a0.974,0.974,0,0,1,.841-0.9,5.357,5.357,0,0,0,1.48.18c2.48,0,3.941-1.12,3.941-3a3.2,3.2,0,0,0-.5-1.76,1.842,1.842,0,0,1,1.34-.64,1.215,1.215,0,0,0-.12.5,1.064,1.064,0,0,0,1.06,1.1,1.2,1.2,0,0,0,1.2-1.2,1.4,1.4,0,0,0-1.5-1.36A3.524,3.524,0,0,0,698.277,3884.28Zm-4.48,8.98c0.44,0.08.44,0.08,1.64,0.22a7.593,7.593,0,0,1,2.66.5,1.275,1.275,0,0,1,.841,1.22,1.49,1.49,0,0,1-.821,1.34,5.4,5.4,0,0,1-2.58.6c-1.941,0-3-.68-3-1.94A1.977,1.977,0,0,1,693.8,3893.26Zm1.48-9.38c1.2,0,1.86.92,1.86,2.54,0,1.52-.7,2.44-1.86,2.44-1.2,0-1.961-.94-1.961-2.42C693.316,3884.88,694.077,3883.88,695.277,3883.88Zm31.822,4.54a10.538,10.538,0,0,1-1.28,2.36,4.262,4.262,0,0,1-3.521,1.8c-3.02,0-4.761-2.36-4.761-6.44,0-4.2,1.881-7.1,4.6-7.1a4.3,4.3,0,0,1,3.121,1.5,6.593,6.593,0,0,1,1.48,3.3h0.7l-0.2-5.56H726.7l-1.02,1.18a6.214,6.214,0,0,0-3.861-1.26,6.725,6.725,0,0,0-4.981,2.08,7.205,7.205,0,0,0-2.18,5.42c0,4.64,2.92,7.86,7.141,7.86,2.761,0,4.621-1.52,5.941-4.84Zm14.4,2.02v0.34c-0.04,1.16-.24,1.56-0.8,1.56-0.42,0-.52-0.24-0.52-1.16v-5.16c0-1.92-1.18-2.82-3.721-2.82-2.34,0-3.921,1.02-3.921,2.54a1.392,1.392,0,0,0,1.4,1.4,1.162,1.162,0,0,0,1.2-1.18,1.063,1.063,0,0,0-1.06-1.08,2.144,2.144,0,0,1,2-.98c1.46,0,2.1.7,2.1,2.32v1.1a12.2,12.2,0,0,0-3.7.8c-1.561.64-2.3,1.54-2.3,2.86,0,1.54,1.16,2.52,2.961,2.52a4.994,4.994,0,0,0,3.081-1.16,1.6,1.6,0,0,0,1.76,1.22,1.9,1.9,0,0,0,1.98-1.3,4.807,4.807,0,0,0,.2-1.82H741.5Zm-3.32,1.16a3.513,3.513,0,0,1-2.081.88,1.722,1.722,0,0,1-1.78-1.82,2.479,2.479,0,0,1,1.68-2.26,6.537,6.537,0,0,1,2.181-.46v3.66Zm7.979-12.42h0.54c1.04,0.02,1.42.32,1.44,1.18v13.18h0.32l1.26-1.64a4.555,4.555,0,0,0,3.481,1.6c2.7,0,4.681-2.2,4.681-5.22,0-3.08-1.64-5.1-4.161-5.1-1.38,0-2.28.48-3.541,1.88v-7.08a12.088,12.088,0,0,1-4.02.64v0.56Zm4.02,7.56a3.121,3.121,0,0,1,1.121-1.8,2.837,2.837,0,0,1,1.84-.68c1.66,0,2.4,1.24,2.4,3.94,0,2.98-.881,4.44-2.641,4.44a2.93,2.93,0,0,1-1.92-.72,2.853,2.853,0,0,1-.8-1.4v-3.78Zm12.16,6.52h5.5v-0.54h-0.3c-1.08-.08-1.38-0.46-1.34-1.66v-8.02a9.269,9.269,0,0,1-2.841.4h-1.18v0.54c1.56,0,1.96.42,2,2v4.62c-0.02,1.68-.3,2.1-1.48,2.12h-0.36v0.54Zm2.781-14.58a1.413,1.413,0,0,0-1.441,1.4A1.421,1.421,0,1,0,765.119,3878.68Zm6.959,14.58h5.6v-0.48h-0.52a1.073,1.073,0,0,1-1.24-1.04v-5.32a4.563,4.563,0,0,1,1.14-1.38,2.793,2.793,0,0,1,1.721-.62,1.561,1.561,0,0,1,1.62,1.6v5.08c0.02,1.22-.34,1.64-1.42,1.68h-0.34v0.48h5.621v-0.48h-0.44c-1.081-.02-1.421-0.38-1.4-1.52v-5.1c0-1.88-.92-2.88-2.7-2.88-1.461,0-2.4.48-3.8,1.94v-2.18a13.406,13.406,0,0,1-3.881.44v0.54c1.32-.04,1.741.22,1.881,1.12v6.14a1.269,1.269,0,0,1-1.5,1.5h-0.34v0.48Z" transform="translate(-659.375 -3877.97)"/>
</svg>
