<svg xmlns="http://www.w3.org/2000/svg" width="572.372" height="33.22" viewBox="0 0 572.372 33.22">
  <defs>
    <style>
      .cls-1 {
        fill: #333;
        fill-rule: evenodd;
      }
    </style>
  </defs>
  <path id="グランピング_ワイド_森のテラス" data-name="グランピング・ワイド 森のテラス" class="cls-1" d="M464.723,3827.56q-1.4,0-1.4.33a0.282,0.282,0,0,0,.216.29,5.994,5.994,0,0,1,3.637,3.02,1,1,0,0,0,1.008.58,1.335,1.335,0,0,0,1.476-1.37C469.656,3828.82,467.46,3827.56,464.723,3827.56Zm-4.212,2.34c-0.828,0-1.116.08-1.116,0.33,0,0.14.072,0.18,0.468,0.32a5.572,5.572,0,0,1,2.952,2.88,1.057,1.057,0,0,0,1.08.87,1.414,1.414,0,0,0,1.476-1.44C465.371,3831.31,463.067,3829.9,460.511,3829.9Zm-8.318,8.35a2.106,2.106,0,0,0,1.189.47,17.424,17.424,0,0,0,2.7-.61,8.582,8.582,0,0,1,1.584-.36,0.69,0.69,0,0,1,.684.72,10.575,10.575,0,0,1-1.656,4.07,41.766,41.766,0,0,1-8.137,9.9,32.073,32.073,0,0,1-9.47,5.86c-0.288.11-.4,0.18-0.4,0.33a0.273,0.273,0,0,0,.252.21,17.505,17.505,0,0,0,3.745-.97,35.264,35.264,0,0,0,12.566-8.1c2.556-2.55,3.708-4.28,7.093-10.4,0.432-.43.612-0.58,0.936-0.86a1,1,0,0,0,.432-0.54c0-.72-2.736-3.21-3.492-3.21a2.816,2.816,0,0,0-1.261.58,13.862,13.862,0,0,1-5.58,1.94,1.651,1.651,0,0,1-.612-0.11,14.231,14.231,0,0,0,1.692-3.31,3.5,3.5,0,0,0-1.548-1.8,5.4,5.4,0,0,0-2.989-1.04c-0.756,0-1.44.22-1.44,0.47,0,0.07.072,0.14,0.36,0.21a2.315,2.315,0,0,1,1.08,2.24c0,3.59-4.645,10.72-8.893,13.67a0.612,0.612,0,0,0-.324.4,0.225,0.225,0,0,0,.216.21,11.474,11.474,0,0,0,2.7-1.29C446.829,3844.95,449.313,3842.47,452.193,3838.25Zm31.188-5.29a0.236,0.236,0,0,0-.216.18,4.734,4.734,0,0,0,1.008,1.73,3.812,3.812,0,0,0,3.1,1.37,33.994,33.994,0,0,0,5.94-.87c1.765-.36,2.881-0.53,4.429-0.71,0.864-.15,1.3-0.4,1.3-0.83,0-.79-2.088-2.05-3.348-2.05a2.045,2.045,0,0,0-.972.39,6.366,6.366,0,0,1-1.909.72,32.112,32.112,0,0,1-6.445.97,3.933,3.933,0,0,1-2.592-.72A0.386,0.386,0,0,0,483.381,3832.96Zm18.075,9.4a2.7,2.7,0,0,1,.792-0.47,1.125,1.125,0,0,0,.432-0.25,0.648,0.648,0,0,0,.144-0.4c0-.32,0-0.32-0.792-1.11-1.62-1.62-2.233-2.06-2.737-2.06a3.936,3.936,0,0,0-1.4.51,9.124,9.124,0,0,1-2.772.86,93.665,93.665,0,0,1-11.162,1.48,3.724,3.724,0,0,1-3.024-1.19,0.438,0.438,0,0,0-.324-0.32c-0.217,0-.325.28-0.325,0.86,0,1.62,1.981,3.71,3.529,3.71a3.119,3.119,0,0,0,1.4-.54,46.641,46.641,0,0,1,11.054-2.45c0.756,0,1.188.22,1.188,0.65a9.69,9.69,0,0,1-.972,2.73,23.9,23.9,0,0,1-4.717,7.63,22.723,22.723,0,0,1-10.261,6.41,0.391,0.391,0,0,0-.4.32,0.324,0.324,0,0,0,.4.29,20.049,20.049,0,0,0,5.436-1.22,25.875,25.875,0,0,0,9.4-6.73C498.071,3849.05,499.367,3846.82,501.456,3842.36Zm18.549-8.5c-1.3,0-2.2.18-2.2,0.47,0,0.11.108,0.18,0.4,0.25a10.5,10.5,0,0,1,5.257,4.83c0.5,1.08.828,1.36,1.548,1.36a1.98,1.98,0,0,0,1.98-1.9C526.99,3836.38,523.5,3833.86,520.005,3833.86Zm23.116,0.11a1,1,0,0,0-.54.43,79.1,79.1,0,0,1-12.134,11.66c-3.925,3.1-7.273,4.86-9.218,4.86a2.924,2.924,0,0,1-2.124-.86c-0.18-.36-0.216-0.36-0.324-0.36-0.288,0-.5.68-0.5,1.44,0,0.79.5,1.55,1.872,2.84a4.731,4.731,0,0,0,2.521,1.51,1,1,0,0,0,.5-0.21c0.252-.18.468-0.4,0.684-0.58a4.159,4.159,0,0,1,.684-0.47,53.98,53.98,0,0,0,15.338-13.92c1.512-2.06,3.493-5.51,3.493-6.09A0.313,0.313,0,0,0,543.121,3833.97Zm15.993,12.63c0,4.36.288,5.84,1.332,7.27,1.44,1.95,3.421,2.56,8.065,2.56a30.418,30.418,0,0,0,7.381-.79c1.081-.33,1.621-0.87,1.621-1.55,0-.93-1.8-1.94-3.817-2.09a14.193,14.193,0,0,1-7.057,1.44c-3.744,0-4.609-.97-4.609-5.11,0-.72,0-1.01.108-2.95a58.448,58.448,0,0,0,10.8-3.92c2.3-1.01,2.808-1.33,2.808-1.84a1.6,1.6,0,0,0-.468-0.97,11.872,11.872,0,0,0-2.232-1.91,6.723,6.723,0,0,0-2.16-.47c-0.324,0-.5.08-0.5,0.26a0.77,0.77,0,0,0,.18.36,1.2,1.2,0,0,1,.288.82,3.382,3.382,0,0,1-1.512,2.34,42.635,42.635,0,0,1-7.166,4.29,61.091,61.091,0,0,1,.649-7.89,5.493,5.493,0,0,0,.18-1.22,1.841,1.841,0,0,0-1.117-1.62,5.971,5.971,0,0,0-2.664-.97c-0.9,0-2.268.47-2.268,0.76a0.235,0.235,0,0,0,.18.18c1.764,0.68,2.088,1.43,2.088,4.78,0,0.76-.036,2.13-0.072,4.07Zm19.3-18.06a3.615,3.615,0,1,0,3.564,3.6A3.625,3.625,0,0,0,578.413,3828.54Zm-0.036,1.36a2.235,2.235,0,1,1-2.232,2.2A2.239,2.239,0,0,1,578.377,3829.9Zm17.973,3.96c-1.3,0-2.2.18-2.2,0.47,0,0.11.108,0.18,0.4,0.25a10.5,10.5,0,0,1,5.257,4.83c0.5,1.08.828,1.36,1.548,1.36a1.98,1.98,0,0,0,1.98-1.9C603.335,3836.38,599.843,3833.86,596.35,3833.86Zm23.116,0.11a1,1,0,0,0-.54.43,79.1,79.1,0,0,1-12.134,11.66c-3.925,3.1-7.273,4.86-9.217,4.86a2.924,2.924,0,0,1-2.125-.86c-0.18-.36-0.216-0.36-0.324-0.36-0.288,0-.5.68-0.5,1.44,0,0.79.5,1.55,1.872,2.84a4.735,4.735,0,0,0,2.521,1.51,1,1,0,0,0,.5-0.21c0.252-.18.468-0.4,0.684-0.58a4.159,4.159,0,0,1,.684-0.47,53.98,53.98,0,0,0,15.338-13.92c1.513-2.06,3.493-5.51,3.493-6.09A0.313,0.313,0,0,0,619.466,3833.97Zm36.12-6.41q-1.4,0-1.4.33a0.282,0.282,0,0,0,.216.29,5.993,5.993,0,0,1,3.636,3.02,1,1,0,0,0,1.009.58,1.335,1.335,0,0,0,1.476-1.37C660.519,3828.82,658.323,3827.56,655.586,3827.56Zm-4.213,2.34c-0.828,0-1.116.08-1.116,0.33,0,0.14.072,0.18,0.468,0.32a5.57,5.57,0,0,1,2.953,2.88,1.057,1.057,0,0,0,1.08.87,1.414,1.414,0,0,0,1.476-1.44C656.234,3831.31,653.93,3829.9,651.373,3829.9Zm-8.317,8.35a2.1,2.1,0,0,0,1.188.47,17.423,17.423,0,0,0,2.7-.61,8.582,8.582,0,0,1,1.584-.36,0.69,0.69,0,0,1,.684.72,10.575,10.575,0,0,1-1.656,4.07,41.766,41.766,0,0,1-8.137,9.9,32.073,32.073,0,0,1-9.47,5.86c-0.288.11-.4,0.18-0.4,0.33a0.273,0.273,0,0,0,.252.21,17.52,17.52,0,0,0,3.745-.97,35.273,35.273,0,0,0,12.566-8.1c2.556-2.55,3.708-4.28,7.093-10.4,0.432-.43.612-0.58,0.936-0.86a1,1,0,0,0,.432-0.54c0-.72-2.736-3.21-3.493-3.21a2.81,2.81,0,0,0-1.26.58,13.861,13.861,0,0,1-5.581,1.94,1.651,1.651,0,0,1-.612-0.11,14.251,14.251,0,0,0,1.693-3.31,3.505,3.505,0,0,0-1.549-1.8,5.392,5.392,0,0,0-2.988-1.04c-0.756,0-1.44.22-1.44,0.47,0,0.07.072,0.14,0.36,0.21a2.315,2.315,0,0,1,1.08,2.24c0,3.59-4.645,10.72-8.893,13.67a0.612,0.612,0,0,0-.324.4,0.225,0.225,0,0,0,.216.21,11.474,11.474,0,0,0,2.7-1.29C637.691,3844.95,640.176,3842.47,643.056,3838.25Zm38.857,1.62a4.105,4.105,0,1,0,4.033,4.11A4.112,4.112,0,0,0,681.913,3839.87Zm32.268-2.19a66.758,66.758,0,0,1,11.269-1.98c1.188,0,1.62.29,1.62,1.15,0,2.88-2.664,9.79-5,12.92a23.338,23.338,0,0,1-9.326,7.49c-0.5.18-.648,0.32-0.648,0.57a0.338,0.338,0,0,0,.36.36,18.617,18.617,0,0,0,4.105-1.4,23.082,23.082,0,0,0,10.622-9.54c1.44-2.41,2.268-4.57,3.708-9.72,0.936-.86,1.224-1.22,1.224-1.47,0-.29-0.4-0.79-1.4-1.8a3.625,3.625,0,0,0-2.088-1.33,2.519,2.519,0,0,0-1.116.36c-1.657.9-9.9,2.37-13.755,2.44a4.281,4.281,0,0,0-3.06-1.54c-0.9,0-2.052.43-2.052,0.75,0,0.15.072,0.18,0.288,0.22,1.08,0.14,1.62.86,1.98,2.59a39.342,39.342,0,0,1,.756,5.83,10.878,10.878,0,0,1-.108,1.26c-0.036.22-.072,0.36-0.072,0.4,0,0.82,1.8,2.26,2.881,2.26a1.074,1.074,0,0,0,.972-1.29C715.333,3845.45,714.937,3842.61,714.181,3837.68Zm47.318,18.79c0-.04-0.073-1.7-0.181-5.01-0.072-3.31-.144-6.3-0.144-6.33a10.772,10.772,0,0,1,.252-2.38,1.167,1.167,0,0,0,.325-0.75c0-.36-0.216-0.54-1.4-1.08-0.108-.04-0.468-0.22-0.828-0.4,2.485-2.66,3.6-3.92,4.681-5.22a3.658,3.658,0,0,1,1.26-1.15,0.7,0.7,0,0,0,.468-0.61c0-.47-0.54-1.22-1.836-2.52-1.116-1.15-1.8-1.51-2.953-1.51-0.684,0-1.044.11-1.044,0.32a0.311,0.311,0,0,0,.216.22,1.532,1.532,0,0,1,.864,1.55c0,3.99-9.721,14.75-16.346,18.14-0.648.32-.684,0.32-0.684,0.5a0.28,0.28,0,0,0,.288.25,16.55,16.55,0,0,0,3.492-1.22c3.673-1.59,5.365-2.81,10.19-7.34a4.924,4.924,0,0,1,.252,2.08c0,1.8-.036,3.28-0.18,6.73a15.507,15.507,0,0,1-.612,4.83,3.089,3.089,0,0,0-.324,1.15c0,0.83,2.124,2.81,2.988,2.81,0.72,0,1.3-.87,1.3-1.95Zm43.645-25.09c-0.9,0-1.548.18-1.548,0.43,0,0.18.144,0.29,0.612,0.43a5.183,5.183,0,0,1,2.952,2.63,1.037,1.037,0,0,0,1.044.76,1.58,1.58,0,0,0,1.585-1.41C809.789,3832.75,807.556,3831.38,805.144,3831.38Zm-3.637,2.63c-0.576,0-.9.11-0.9,0.29a0.45,0.45,0,0,0,.216.25,5.2,5.2,0,0,1,2.881,3.31,0.862,0.862,0,0,0,.864.75,1.69,1.69,0,0,0,1.548-1.51C806.116,3835.66,803.668,3834.01,801.507,3834.01Zm-6.337,12.77-0.036-2.95-0.072-3.27a12.849,12.849,0,0,1,5.653,4.78,9.749,9.749,0,0,0,1.152,1.73,2.157,2.157,0,0,0,1.657.76,1.833,1.833,0,0,0,1.908-1.91c0-1.3-1.152-2.84-2.989-3.99-1.98-1.26-3.96-1.84-7.345-2.09a26.218,26.218,0,0,1,.5-5.9,3.648,3.648,0,0,0,.5-1.41,3.241,3.241,0,0,0-.973-1.62c-1.008-1.08-1.8-1.55-2.592-1.55-1.044,0-3.2,1.05-3.2,1.52a0.238,0.238,0,0,0,.288.25c1.728,0,2.088.47,2.268,2.7,0.072,1.01.252,7.99,0.252,10.4a91.6,91.6,0,0,1-.5,9.57,10.83,10.83,0,0,0-.36,2.02c0,1.33,1.62,3.6,2.556,3.6,0.9,0,1.62-1.44,1.62-3.28,0-.47-0.036-1.65-0.144-3.13-0.036-.43-0.072-1.62-0.072-2.88Zm44.224,1.26h5.257a0.5,0.5,0,0,0,.54-0.5,0.784,0.784,0,0,0-.36-0.61l-2.557-2.13-1.8,2.27h-1.08v-2.95l0.756-.36a0.751,0.751,0,0,0,.54-0.68,0.776,0.776,0,0,0-.72-0.76l-3.6-.36v5.11h-2.3c-0.288,0-.9,0-1.8-0.03-0.432-.04-1.656-0.08-2.989-0.11l0.756,1.22,2.269-.07c0.756-.04,1.368-0.04,1.764-0.04h2.052a26.135,26.135,0,0,1-7.093,9.58,1.565,1.565,0,0,0-.648.83,0.272,0.272,0,0,0,.252.25,9.666,9.666,0,0,0,2.377-1.41,28.389,28.389,0,0,0,5.364-4.49v6.87a0.7,0.7,0,0,0,.865.76,3.436,3.436,0,0,0,1.476-.36,0.943,0.943,0,0,0,.684-1.01v-7.88a6.385,6.385,0,0,1,2.016,2.59c0.792,1.76.972,1.94,1.728,1.94a1.5,1.5,0,0,0,1.585-1.51,3.617,3.617,0,0,0-2.233-2.99,9.761,9.761,0,0,0-3.1-.79v-2.38Zm17.931-18.06-2.305,2.73h-7.813v-3.09l0.792-.47a0.976,0.976,0,0,0,.468-0.76,0.748,0.748,0,0,0-.72-0.65l-3.708-.28v5.25h-5.545c-0.684,0-1.765-.03-3.025-0.07l-4.032-.11,0.828,1.33c3.06-.14,4.248-0.18,6.229-0.18H842.2a37.8,37.8,0,0,1-12.17,9.76,0.593,0.593,0,0,0-.468.47,0.28,0.28,0,0,0,.288.25,28.106,28.106,0,0,0,5.581-2.27,42.8,42.8,0,0,0,8.606-5.51v6.63a0.655,0.655,0,0,0,.72.75,6.959,6.959,0,0,0,1.8-.36,0.712,0.712,0,0,0,.648-0.79v-8.21a23.709,23.709,0,0,0,11.522,8.71,8.419,8.419,0,0,1,3.744-3.06c-5.725-.61-11.665-3.16-14.834-6.37h12.746a0.433,0.433,0,0,0,.468-0.46,0.7,0.7,0,0,0-.288-0.51Zm2.016,14.64-2.052,2.45h-2.521v-2.99l0.684-.43a0.744,0.744,0,0,0,.4-0.64,0.636,0.636,0,0,0-.612-0.62l-3.528-.46v5.14h-1.044c-1.945-.03-3.313-0.07-4.789-0.14l0.54,1.22c2.3-.07,3.2-0.11,4.249-0.11h0.828a27.954,27.954,0,0,1-7.994,9.58c-1.116.9-1.152,0.93-1.152,1.15a0.247,0.247,0,0,0,.252.25,10.813,10.813,0,0,0,2.989-1.51,31.227,31.227,0,0,0,6.121-4.79v7.2c0,0.54.18,0.76,0.648,0.76a5.66,5.66,0,0,0,1.764-.33,0.833,0.833,0,0,0,.72-0.93v-9.25a20.64,20.64,0,0,0,5.257,7.92,7.063,7.063,0,0,1,2.988-2.92c-3.924-2.01-6.553-4.35-7.957-7.13h6.985a0.426,0.426,0,0,0,.468-0.43,0.821,0.821,0,0,0-.288-0.5Zm25.246-10.86a7.12,7.12,0,0,1,.757-0.04,8.628,8.628,0,0,1,3.708.86c3.133,1.59,4.753,4.86,4.753,9.68,0,4.43-1.476,7.71-4.609,10.26a19.3,19.3,0,0,1-6.445,3.35c-0.576.18-.684,0.22-0.684,0.4,0,0.14.144,0.21,0.36,0.21a16.058,16.058,0,0,0,2.3-.43,22.278,22.278,0,0,0,6.661-2.45,13.254,13.254,0,0,0,6.661-11.52,10.866,10.866,0,0,0-2.844-7.59,13.908,13.908,0,0,0-10.117-3.96c-8.426,0-15.663,6.8-15.663,14.72a9.338,9.338,0,0,0,1.764,5.8,4.381,4.381,0,0,0,3.025,1.98c1.98,0,5.113-2.56,7.237-5.87a23.151,23.151,0,0,0,3.6-11.7A13.661,13.661,0,0,0,884.587,3833.76Zm-1.764.14a2.015,2.015,0,0,0,.072.25,8.715,8.715,0,0,1,.216,2.02,21.157,21.157,0,0,1-3.672,10.76c-1.513,2.37-3.565,4.25-4.681,4.25s-2.088-1.88-2.088-4a14.1,14.1,0,0,1,4.248-10.04A13.592,13.592,0,0,1,882.823,3833.9Zm31.44-.72a0.314,0.314,0,0,0-.216.29,4.748,4.748,0,0,0,1.008,1.94,2.939,2.939,0,0,0,2.34,1.04,49.972,49.972,0,0,0,8.93-1.47c1.944-.43,2.664-0.76,2.664-1.26a1.86,1.86,0,0,0-1.116-1.33,5.772,5.772,0,0,0-1.872-.65,1.734,1.734,0,0,0-.649.18,15.365,15.365,0,0,1-2.2.9,24.738,24.738,0,0,1-6.409,1.19,3.6,3.6,0,0,1-2.376-.76A0.222,0.222,0,0,0,914.263,3833.18Zm7.489,8.24a1.536,1.536,0,0,1,.288.94c0,1.94-1.224,5.4-2.881,8.06a21.6,21.6,0,0,1-7.093,7.05c-1.728.9-1.728,0.9-1.728,1.05a0.232,0.232,0,0,0,.288.21,25.847,25.847,0,0,0,5.257-2.08c4.465-2.45,8.029-7.09,10.009-12.96a1.334,1.334,0,0,0,.541-0.83c0-.25-0.36-0.61-1.765-1.69,2.3-.14,2.773-0.18,3.673-0.18a44.172,44.172,0,0,1,4.9.36,5.977,5.977,0,0,0,.936.11,1.2,1.2,0,0,0,1.332-1.05c0-.61-0.36-1-1.476-1.69a6.923,6.923,0,0,0-2.449-1.11c-1.476.9-2.52,1.22-5.508,1.65-3.025.43-12.89,1.48-14.151,1.48-1.512,0-2.2-.29-2.808-1.15a0.806,0.806,0,0,0-.36.68,2.49,2.49,0,0,0,.9,1.8,5.661,5.661,0,0,0,2.736,1.4,2.005,2.005,0,0,0,.577-0.1A35.428,35.428,0,0,1,921.752,3841.42Zm30.863-8.46a0.236,0.236,0,0,0-.216.18,4.734,4.734,0,0,0,1.008,1.73,3.815,3.815,0,0,0,3.1,1.37,34.013,34.013,0,0,0,5.941-.87c1.764-.36,2.88-0.53,4.428-0.71,0.865-.15,1.3-0.4,1.3-0.83,0-.79-2.089-2.05-3.349-2.05a2.045,2.045,0,0,0-.972.39,6.36,6.36,0,0,1-1.908.72,32.132,32.132,0,0,1-6.445.97,3.936,3.936,0,0,1-2.593-.72A0.386,0.386,0,0,0,952.615,3832.96Zm18.075,9.4a2.7,2.7,0,0,1,.792-0.47,1.125,1.125,0,0,0,.432-0.25,0.648,0.648,0,0,0,.144-0.4c0-.32,0-0.32-0.792-1.11-1.62-1.62-2.232-2.06-2.736-2.06a3.944,3.944,0,0,0-1.4.51,9.124,9.124,0,0,1-2.772.86,93.612,93.612,0,0,1-11.162,1.48,3.724,3.724,0,0,1-3.024-1.19,0.438,0.438,0,0,0-.324-0.32c-0.216,0-.324.28-0.324,0.86,0,1.62,1.98,3.71,3.528,3.71a3.125,3.125,0,0,0,1.4-.54,46.633,46.633,0,0,1,11.053-2.45c0.756,0,1.188.22,1.188,0.65a9.69,9.69,0,0,1-.972,2.73,23.9,23.9,0,0,1-4.716,7.63,22.726,22.726,0,0,1-10.262,6.41,0.391,0.391,0,0,0-.4.32,0.324,0.324,0,0,0,.4.29,20.055,20.055,0,0,0,5.437-1.22,25.88,25.88,0,0,0,9.4-6.73C967.305,3849.05,968.6,3846.82,970.69,3842.36Zm26.579-7.02c-3.781.79-4.249,0.86-5.293,0.86a2.657,2.657,0,0,1-2.2-.79c-0.18-.32-0.18-0.32-0.324-0.32a1.39,1.39,0,0,0-.4,1.15,2.427,2.427,0,0,0,.864,1.69,4.567,4.567,0,0,0,2.016,1.15,3.235,3.235,0,0,0,1.08-.36,49.649,49.649,0,0,1,6.373-2.27,4.263,4.263,0,0,1,1.437-.32,0.493,0.493,0,0,1,.58.47,10,10,0,0,1-.86,2.48,36.069,36.069,0,0,1-4.289,7.56,32.016,32.016,0,0,1-11.594,9.83c-0.972.43-1.188,0.57-1.188,0.75a0.285,0.285,0,0,0,.324.25,7.882,7.882,0,0,0,1.764-.43,28.433,28.433,0,0,0,9.542-5.22,32.236,32.236,0,0,0,5.291-5.76,16.717,16.717,0,0,1,6.52,7.96c0.68,1.65,1.08,2.09,1.94,2.09a2.268,2.268,0,0,0,2.2-2.24c0-1.69-1.23-3.67-3.35-5.36a16.33,16.33,0,0,0-6.84-3.2,60.643,60.643,0,0,0,4.64-8.06c0.83-.51,1.16-0.8,1.16-1.12,0-.29-0.22-0.58-1.01-1.22-1.37-1.12-2.23-1.66-2.63-1.66a2.259,2.259,0,0,0-1.26.69,4.156,4.156,0,0,1-2.269.97Z" transform="translate(-438.688 -3827.47)"/>
</svg>
