<svg xmlns="http://www.w3.org/2000/svg" width="64.812" height="19.56" viewBox="0 0 64.812 19.56">
  <defs>
    <style>
      .cls-1 {
        fill: #333;
        fill-rule: evenodd;
      }
    </style>
  </defs>
  <path id="Camp" class="cls-1" d="M701.868,3888.42a10.538,10.538,0,0,1-1.28,2.36,4.262,4.262,0,0,1-3.521,1.8c-3.02,0-4.761-2.36-4.761-6.44,0-4.2,1.881-7.1,4.6-7.1a4.3,4.3,0,0,1,3.121,1.5,6.593,6.593,0,0,1,1.48,3.3h0.7l-0.2-5.56h-0.54l-1.02,1.18a6.216,6.216,0,0,0-3.861-1.26,6.725,6.725,0,0,0-4.981,2.08,7.205,7.205,0,0,0-2.18,5.42c0,4.64,2.92,7.86,7.141,7.86,2.761,0,4.621-1.52,5.941-4.84Zm14.4,2.02v0.34c-0.04,1.16-.24,1.56-0.8,1.56-0.42,0-.52-0.24-0.52-1.16v-5.16c0-1.92-1.18-2.82-3.721-2.82-2.34,0-3.921,1.02-3.921,2.54a1.392,1.392,0,0,0,1.4,1.4,1.162,1.162,0,0,0,1.2-1.18,1.063,1.063,0,0,0-1.06-1.08,2.144,2.144,0,0,1,2-.98c1.46,0,2.1.7,2.1,2.32v1.1a12.2,12.2,0,0,0-3.7.8c-1.561.64-2.3,1.54-2.3,2.86,0,1.54,1.16,2.52,2.961,2.52a4.994,4.994,0,0,0,3.081-1.16,1.6,1.6,0,0,0,1.76,1.22,1.9,1.9,0,0,0,1.98-1.3,4.807,4.807,0,0,0,.2-1.82h-0.66Zm-3.321,1.16a3.509,3.509,0,0,1-2.08.88,1.722,1.722,0,0,1-1.78-1.82,2.479,2.479,0,0,1,1.68-2.26,6.536,6.536,0,0,1,2.18-.46v3.66Zm8.14,1.66h5.3v-0.5h-0.26c-0.94-.06-1.141-0.32-1.141-1.4v-5.06c0.741-1.28,1.561-1.92,2.5-1.92a1.328,1.328,0,0,1,1.24,1.48v5.56c0,1-.3,1.32-1.24,1.34h-0.4v0.5h5.281v-0.5h-0.32c-1.02-.02-1.26-0.28-1.3-1.34v-5.36c0.8-1.2,1.42-1.64,2.26-1.64a1.413,1.413,0,0,1,1.461,1.52v5.14c-0.02,1.32-.281,1.64-1.4,1.68v0.5h5.261v-0.5h-0.48c-1.02-.02-1.38-0.32-1.4-1.12v-5.54c0-1.84-.88-2.82-2.521-2.82a4.033,4.033,0,0,0-3.28,1.76,2.2,2.2,0,0,0-2.381-1.74c-1.26,0-1.98.4-3.281,1.82v-2.08a13.865,13.865,0,0,1-3.9.46v0.5c1.42,0.02,1.86.3,1.88,1.24v5.88c0.02,1.3-.28,1.6-1.5,1.64h-0.38v0.5Zm27.382,3.94c-1.741-.02-2-0.18-2-1.2v-4.54a3.989,3.989,0,0,0,.98,1.18,3.6,3.6,0,0,0,2.341.82,4.1,4.1,0,0,0,2.84-1.08,5.963,5.963,0,0,0,1.621-4.18c0-2.86-1.741-4.94-4.141-4.94a3.818,3.818,0,0,0-2.341.76,5.184,5.184,0,0,0-1.26,1.52v-2.56a18.459,18.459,0,0,1-4.041.5V3884c1.461-.02,1.981.32,2.081,1.38v10.36c-0.02,1.36-.16,1.46-1.981,1.46v0.54h5.9v-0.54Zm-1.941-10a5.676,5.676,0,0,1,1.04-2,2.6,2.6,0,0,1,1.981-1c1.54,0,2.32,1.36,2.32,4.02,0,2.9-.84,4.36-2.52,4.36a2.485,2.485,0,0,1-1.821-.82,4.145,4.145,0,0,1-1-2.04v-2.52Z" transform="translate(-689.438 -3878.19)"/>
</svg>
