<svg xmlns="http://www.w3.org/2000/svg" width="575.254" height="36.65" viewBox="0 0 575.254 36.65">
  <defs>
    <style>
      .cls-1 {
        fill: #333;
        fill-rule: evenodd;
      }
    </style>
  </defs>
  <path id="家族で楽しめる豊富なプラン" class="cls-1" d="M456.677,3773.5l1.13,0.08H458a0.731,0.731,0,0,0,.9-0.62,0.922,0.922,0,0,0-.39-0.74l-3.31-2.53a7.776,7.776,0,0,0-.856.93l-2.453,2.8a50.589,50.589,0,0,1-3.7,3.66,16.965,16.965,0,0,0-5.529-6.03c1.635-1.13,2.025-1.4,3.972-2.77h9.034c0.623,0,.895-0.15.895-0.54a0.813,0.813,0,0,0-.35-0.55l-0.7-.62c0.35-.23.7-0.43,0.974-0.62,0.623-.35,1.207-0.74,1.791-1.13,0.117-.08.467-0.27,0.973-0.59l1.636,0.08h0.233a0.847,0.847,0,0,0,1.091-.74,1.4,1.4,0,0,0-.39-0.85l-3.621-3.78-1.441,1.94h-10.2v-2.84l0.895-.62a0.839,0.839,0,0,0,.468-0.66c0-.51-0.273-0.7-0.9-0.74l-4.011-.24v5.1H432.924c-0.078-.38-0.234-0.85-0.39-1.47a0.463,0.463,0,0,0-.428-0.47,0.544,0.544,0,0,0-.39.58,5.187,5.187,0,0,1-2.18,4.09c-1.6,1.21-1.753,1.44-1.753,2.22a2.149,2.149,0,0,0,2.3,1.87,2.6,2.6,0,0,0,2.22-1.44,5.108,5.108,0,0,0,.934-3.23,5.668,5.668,0,0,0-.078-1.09h23.52a34.234,34.234,0,0,1-1.83,4.12l-1.869-1.48-2.453,2.65H438.8c-1.753,0-3.194-.04-6.542-0.15l0.662,1.36c1.285-.04,2.414-0.08,2.842-0.08,1.519-.04,2.57-0.08,3.038-0.08h2.414a49.845,49.845,0,0,1-11.526,8.1c-2.3,1.21-2.3,1.21-2.3,1.44a0.336,0.336,0,0,0,.389.35,30.869,30.869,0,0,0,5.491-2.02,47.507,47.507,0,0,0,8.489-4.56,2.276,2.276,0,0,1,.545.63c-3.933,4.55-7.632,7.47-13.9,11.02a0.854,0.854,0,0,0-.584.54,0.314,0.314,0,0,0,.351.31c0.818,0,4.634-1.59,6.931-2.88a49.928,49.928,0,0,0,9.034-6.46,9.97,9.97,0,0,1,.662,1.32,48.306,48.306,0,0,1-16.549,12.81c-0.623.28-.74,0.39-0.74,0.59a0.354,0.354,0,0,0,.428.27,26.972,26.972,0,0,0,5.647-2.06,44.779,44.779,0,0,0,12.11-7.83,13.788,13.788,0,0,1-.662,5.14c-0.623,1.79-1.246,2.45-2.375,2.45a27.852,27.852,0,0,1-4.167-.5c-0.311-.04-0.623-0.08-0.779-0.08a0.3,0.3,0,0,0-.35.31,0.659,0.659,0,0,0,.506.51c0.506,0.23,1.051.5,1.674,0.81,0.779,0.43,1.285.7,1.441,0.78a2.241,2.241,0,0,1,.662.47,2.1,2.1,0,0,1,.117.9,1.19,1.19,0,0,0,1.285,1.44,5.235,5.235,0,0,0,3.777-2.42,13.763,13.763,0,0,0,1.947-7.55,19.453,19.453,0,0,0-.233-2.96,29.405,29.405,0,0,0,10.981,10.63,7.408,7.408,0,0,1,4.011-3.47c-6.7-1.79-11.02-4.32-14.72-8.6,1.207-.7,1.753-1.02,3.661-1.99Zm27.695,0.08a58.3,58.3,0,0,1-1.09,9.93c-0.662,3.15-.818,3.39-2.3,3.39a23.5,23.5,0,0,1-3.232-.28,0.877,0.877,0,0,0-.234-0.03,0.3,0.3,0,0,0-.311.23c0,0.19.156,0.31,0.857,0.66,2.18,1.17,2.3,1.25,2.258,2.03,0,1.51.117,1.71,0.818,1.71,2.258,0,4.128-1.95,4.945-5.18,0.74-2.88.974-4.67,1.48-10.98l0.389-.12a0.891,0.891,0,0,0,.7-0.89,0.988,0.988,0,0,0-.428-0.78l-3.115-2.77-1.363,2.03h-2.687c0.234-4.36.234-4.67,0.234-5.92,0-.12,0-0.55-0.039-0.97h7.788a0.607,0.607,0,0,0,.7-0.51,1.217,1.217,0,0,0-.545-0.86l-2.765-2.41-2.259,2.72h-2.492v-5.72l0.779-.39a1.063,1.063,0,0,0,.584-0.89,0.971,0.971,0,0,0-1.09-.94l-3.7-.39v8.33H477.09c-1.441,0-2.531-.03-5.218-0.15l0.818,1.32c1.908-.08,2.492-0.11,4.4-0.11h0.779v1.63c0,11.8-1.441,17.8-5.413,22.47-0.74.9-.74,0.9-0.74,1.13a0.339,0.339,0,0,0,.312.31c0.584,0,2.959-2.14,4.556-4.05,2.609-3.15,3.738-6.62,4.4-13.55h3.388Zm20.327,1.25-2.687,3.07H498.04a37.809,37.809,0,0,0,.351-5.41h6.464a0.53,0.53,0,0,0,.662-0.51,0.593,0.593,0,0,0-.234-0.46l-3.232-2.81-2.492,2.73h-5.53c0.662-1.13.779-1.29,1.441-2.49l1.168-.47a0.785,0.785,0,0,0,.545-0.74,0.73,0.73,0,0,0-.545-0.7l-3.777-1.52c-1.168,4.98-2.3,7.98-4.206,10.9a2.952,2.952,0,0,0-.545,1.01,0.228,0.228,0,0,0,.234.24c0.7,0,3.388-2.81,4.984-5.18h1.753v0.74a44.84,44.84,0,0,1-.273,4.67h-1.674c-0.507,0-1.363,0-2.376-.04l-2.842-.11,0.584,1.32c2.1-.04,2.842-0.08,4.634-0.12h1.518c-0.584,5.22-2.842,8.3-8.683,11.72-0.662.35-.818,0.51-0.818,0.74a0.317,0.317,0,0,0,.35.28,7.657,7.657,0,0,0,1.246-.35,22.237,22.237,0,0,0,7.126-3.82c1.986-1.79,2.921-3.5,3.817-7.05a18.372,18.372,0,0,0,7.671,10.98,7.971,7.971,0,0,1,3.7-3.11c-6.659-3-8.917-4.95-10.864-9.39h9.384c0.623,0,.9-0.15.9-0.58a1.186,1.186,0,0,0-.389-0.82Zm-0.351-13.95-2.531,2.89h-8.138c0.545-.94.973-1.72,1.207-2.22,0.818-1.68.818-1.68,1.012-2.07l0.74-.19a0.952,0.952,0,0,0,.818-0.9,0.967,0.967,0,0,0-.779-0.93l-4.05-1.48c-1.363,6.46-2.531,9.58-5.023,13.67-0.7,1.13-.7,1.13-0.7,1.32a0.3,0.3,0,0,0,.312.27c0.778,0,3.543-3.07,5.763-6.42h14.486a0.592,0.592,0,0,0,.739-0.59,1.011,1.011,0,0,0-.389-0.7Zm42.765,6.35c-1.051,0-1.713.2-1.713,0.47a0.511,0.511,0,0,0,.35.35,6.4,6.4,0,0,1,3.5,2.73c0.545,1.01.623,1.05,1.246,1.05a1.7,1.7,0,0,0,1.791-1.52C552.292,3768.75,549.761,3767.23,547.113,3767.23Zm-4.867,2.46c-0.585,0-.935.11-0.935,0.35a0.409,0.409,0,0,0,.234.27,5.646,5.646,0,0,1,3,3c0.467,1.13.662,1.32,1.48,1.32a1.587,1.587,0,0,0,1.635-1.36C547.658,3771.52,544.855,3769.69,542.246,3769.69Zm4.127-10.48c-0.857.47-1.012,0.51-5.958,1.95-5.062,1.28-8.8,2.33-13.317,3.7a13.215,13.215,0,0,1-4.011.93,3.378,3.378,0,0,1-2.882-1.56c-0.194-.39-0.194-0.42-0.35-0.42-0.117,0-.2.11-0.2,0.31a6.329,6.329,0,0,0,.467,2.57c0.662,1.4,2.687,2.92,3.933,2.92a1.584,1.584,0,0,0,.974-0.39,30.96,30.96,0,0,1,5.8-3.19,29.617,29.617,0,0,1,6.853-2.26,0.185,0.185,0,0,1,.2.11,1.861,1.861,0,0,1-.389.47,21.1,21.1,0,0,0-4.323,6.82,24.688,24.688,0,0,0-1.6,8.09c0,4.44,1.752,7.33,5.335,8.69a20.73,20.73,0,0,0,7.087,1.32c2.1,0,3.193-.66,3.193-1.94a3,3,0,0,0-2.414-2.73,0.484,0.484,0,0,0-.234.04,24.111,24.111,0,0,1-3.076.27c-4.362,0-6.5-2.3-6.5-6.93a25.2,25.2,0,0,1,1.557-8.76,9.085,9.085,0,0,1,4.362-5.03,11.253,11.253,0,0,1,5.179-.85,15.088,15.088,0,0,1,2.92.31,5.706,5.706,0,0,0,.779.08,1.212,1.212,0,0,0,1.246-1.13c0-.7-0.584-1.48-1.752-2.26A4.982,4.982,0,0,0,546.373,3759.21Zm48.45,17.1-2.3,2.57H582.362v-4.56h1.714v1.28a0.532,0.532,0,0,0,.662.59c1.129,0,2.609-.62,2.609-1.13v-10.59l0.545-.35a0.94,0.94,0,0,0,.662-0.7,1.268,1.268,0,0,0-.468-0.82l-2.92-3.08-1.285,1.79h-3.933l0.272-.31c0.351-.47.74-0.89,1.13-1.36,0.311-.35.584-0.74,0.895-1.13a1.427,1.427,0,0,1,.273-0.27l0.623-.31a0.879,0.879,0,0,0,.7-0.74,0.708,0.708,0,0,0-.662-0.59l-3.777-1.01a48.369,48.369,0,0,1-.857,5.72H578.04l-3.855-1.59v16.23c0,0.63.117,0.78,0.623,0.78,1.363,0,2.609-.58,2.609-1.24v-1.17h1.6v4.56H570.33c-1.675,0-3.155-.04-7.672-0.24l0.9,1.52c3.583-.16,5.062-0.19,6.776-0.19h6.23a41.67,41.67,0,0,1-12.811,9.65c-1.285.63-1.363,0.7-1.363,0.9a0.237,0.237,0,0,0,.272.23,32.452,32.452,0,0,0,5.608-1.87,40,40,0,0,0,10.747-6.34v8.48a0.515,0.515,0,0,0,.507.59,7.718,7.718,0,0,0,2.219-.66,0.8,0.8,0,0,0,.623-0.55v-9.62c2.687,3.98,7.516,7.64,13.045,9.89a12.242,12.242,0,0,1,3.5-3.58c-6.737-.97-12.656-3.62-15.927-7.12h15.109a0.444,0.444,0,0,0,.506-0.47,0.865,0.865,0,0,0-.428-0.7Zm-17.406-3.04v-5.18h6.659v5.18h-6.659Zm0-6.23v-4.68h6.659v4.68h-6.659Zm-11.838,9.46a1.289,1.289,0,0,0,.857.55,0.9,0.9,0,0,0,.856-1.02l0.156-.78c3-2.37,6.425-5.56,6.425-5.95a0.3,0.3,0,0,0-.311-0.28,5.566,5.566,0,0,0-1.6.7,64.621,64.621,0,0,1-9.112,3.82Zm-0.623-16.9c-0.312,0-.506.12-0.506,0.31a0.8,0.8,0,0,0,.428.55,6.6,6.6,0,0,1,2.648,3.85,19.209,19.209,0,0,0,.74,2.1,1.492,1.492,0,0,0,1.363.82,1.9,1.9,0,0,0,1.869-2.14,5.379,5.379,0,0,0-3.544-4.67A12.093,12.093,0,0,0,564.956,3759.6Zm31.347,2.92a0.824,0.824,0,0,0,.662-0.66,1.2,1.2,0,0,0-.545-0.86l-2.882-2.45a45.309,45.309,0,0,1-4.984,8.18,1.46,1.46,0,0,0-.429.74,0.219,0.219,0,0,0,.2.23c0.506,0,4.05-2.45,7.2-4.95Zm-7.36,6.39c-0.311,0-.467.07-0.467,0.23a0.786,0.786,0,0,0,.467.51,19.054,19.054,0,0,1,4.907,4.79c0.623,0.89,1.012,1.16,1.6,1.16a1.708,1.708,0,0,0,1.753-1.79c0-1.71-1.558-3.19-4.245-4.09A19.1,19.1,0,0,0,588.943,3768.91Zm28.474-11.65c-0.818,0-1.869.35-1.869,0.67a0.179,0.179,0,0,0,.194.15c1.441,0.16,2.142,1.6,2.142,4.36,0,0.51-.078,2.3-0.234,4.83-0.545,9.81-.545,10.09-0.545,11.49,0,7.2,3.193,11.02,9.268,11.02,4.206,0,8.1-2.22,11.254-6.39a14.736,14.736,0,0,0,2.258-4.05,0.235,0.235,0,0,0-.194-0.27,0.27,0.27,0,0,0-.234.19,17.959,17.959,0,0,1-3.583,3.55,15.641,15.641,0,0,1-9.5,3.43c-4.089,0-6.308-2.57-6.308-7.25a90.72,90.72,0,0,1,1.791-13.7c0.7-2.15.779-2.42,0.779-3.08C622.635,3759.76,619.987,3757.26,617.417,3757.26Zm40.311,5.1,0.117,0.04c1.285,0.32,1.674.94,2.258,3.39a31.525,31.525,0,0,0,1.753,4.91,18.348,18.348,0,0,0-2.687,3.39,11.663,11.663,0,0,0-1.83,6.19c0,3.31,1.324,5.41,3.388,5.41a9.814,9.814,0,0,0,5.88-2.69,14.731,14.731,0,0,0,3.387-4.16,3.627,3.627,0,0,0,1.6.42,0.726,0.726,0,0,0,.818-0.66,4.142,4.142,0,0,0-.351-1.24,1.459,1.459,0,0,0-.973-0.47,54.532,54.532,0,0,0,4.011-9.93c2.492,0.54,3.66,1.17,4.711,2.57a9.453,9.453,0,0,1,1.753,5.92,12.128,12.128,0,0,1-5.958,10.59,27.043,27.043,0,0,1-7.9,3.31c-0.429.08-.506,0.12-0.506,0.27s0.155,0.24.428,0.24a32.37,32.37,0,0,0,9.891-2.46c5.218-2.33,8.294-6.46,8.294-11.25a9.851,9.851,0,0,0-4.556-8.8c-1.635-1.01-3-1.36-5.763-1.52a18.283,18.283,0,0,0,.662-3.97c0-2.1-1.947-3.55-4.751-3.55-0.895,0-1.557.12-1.557,0.32a0.261,0.261,0,0,0,.272.23c1.519,0.31,2.414,2.02,2.414,4.63a13.178,13.178,0,0,1-.194,2.26,22.171,22.171,0,0,0-8.372,3.23,16.6,16.6,0,0,1-.857-4.55c-0.039-1.29-.234-1.71-0.818-2.18a4.642,4.642,0,0,0-2.453-.86c-0.857,0-2.609.59-2.609,0.86a0.845,0.845,0,0,0,.2.15Zm10.164,15.43a16.336,16.336,0,0,1-3.077,3.66,5.008,5.008,0,0,1-2.531,1.32,2.065,2.065,0,0,1-1.246-.58,3.331,3.331,0,0,1-.74-2.57,10.148,10.148,0,0,1,2.648-6.9A13.729,13.729,0,0,0,667.892,3777.79Zm4.166-10.75a33.059,33.059,0,0,1-3.037,8.91,10.5,10.5,0,0,1-4.284-5.1A15.812,15.812,0,0,1,672.058,3767.04Zm49.112,18.81c-0.156-.28-0.234-0.47-0.311-0.59a6.223,6.223,0,0,0-5.841-3.43c-2.726,0-4.362,1.25-4.362,3.35,0,2.3,2.531,3.78,6.386,3.78a13.237,13.237,0,0,0,8.684-2.88,9.384,9.384,0,0,0,3.193-6.82c0-4.32-3.7-7.55-8.683-7.55a12.565,12.565,0,0,0-5.88,1.36,0.141,0.141,0,0,1-.117.04,0.085,0.085,0,0,1-.078-0.08c0-1.12,5.958-7.55,8.567-9.22,1.051-.67,1.4-1.06,1.4-1.6,0-1.17-3.077-3.23-4.868-3.23a2.764,2.764,0,0,0-1.519.54c-2.492,1.6-6.152,2.92-8.138,2.92a1.524,1.524,0,0,1-1.558-.82c-0.117-.31-0.156-0.35-0.233-0.35-0.234,0-.351.43-0.351,1.25a3.151,3.151,0,0,0,.623,2.06,3.294,3.294,0,0,0,2.3,1.45c0.428,0,.739-0.16,1.713-0.94,2.22-1.75,5.14-3.47,5.919-3.47a0.446,0.446,0,0,1,.428.47c0,1.56-3.31,6.54-7.2,10.87-1.674,1.87-4.556,4.79-6.23,6.3a2.468,2.468,0,0,0-1.09,1.87c0,1.29,1.44,3.04,2.492,3.04,0.506,0,.895-0.39,1.44-1.56a29.645,29.645,0,0,1,3.739-5.84,9.956,9.956,0,0,1,7.515-3.62,5.918,5.918,0,0,1,3.778,1.48,5.991,5.991,0,0,1,1.869,4.67,8.519,8.519,0,0,1-.9,3.94A6.966,6.966,0,0,1,721.17,3785.85Zm-3.5.93c-0.506.04-.817,0.04-0.895,0.04-2.181,0-4.089-.94-4.089-2.03a1.625,1.625,0,0,1,1.869-1.4C716.264,3783.39,717.315,3784.52,717.665,3786.78Zm27.228,2.8c3.349-.15,4.673-0.19,6.464-0.19h27.375a0.642,0.642,0,0,0,.662-0.58,1.061,1.061,0,0,0-.506-0.82l-3.31-2.92-2.843,3.27h-7.866c1.285-1.48,2.648-3.2,4.128-5.14h0.273v0.93c0,0.59.233,0.74,1.012,0.74a5.072,5.072,0,0,0,1.48-.23,0.983,0.983,0,0,0,.9-1.05v-3.94l0.429-.19a0.9,0.9,0,0,0,.623-0.86,1.118,1.118,0,0,0-.428-0.81l-2.921-2.93L769,3776.81H753.966l-3.544-1.75v10.05c0,0.46.156,0.66,0.546,0.66a7.227,7.227,0,0,0,1.363-.27c0.973-.24,1.207-0.43,1.207-1.06v-1.24h0.779a5.4,5.4,0,0,1,1.557,3.35,7.338,7.338,0,0,0,.195,1.28,3.209,3.209,0,0,0,.156.51h-4.868c-1.947,0-3.582-.04-7.671-0.24Zm8.645-7.43v-4.29H769.27v4.29H753.538Zm11.292,1.05a51.849,51.849,0,0,1-1.285,5.14h-4.789a1.586,1.586,0,0,0,.584-1.36c0-1.48-.7-2.42-2.843-3.78h8.333Zm-20.171-8.45c3.271-.16,4.362-0.2,6.776-0.2h26.713c0.74,0,.974-0.15.974-0.62a1.075,1.075,0,0,0-.507-0.82l-3-2.49-2.336,2.88H751.435c-3.115,0-3.894-.04-7.671-0.23Zm7.321-4.13h18.73v1.01a0.469,0.469,0,0,0,.585.51,10.254,10.254,0,0,0,1.869-.31,1,1,0,0,0,.817-1.09v-6.82l0.507-.23a0.993,0.993,0,0,0,.778-0.9,1.4,1.4,0,0,0-.506-0.97l-3-3.23-1.441,2.14h-3.933v-2.34l0.74-.27a0.883,0.883,0,0,0,.623-0.86,0.782,0.782,0,0,0-.779-0.81l-3.738-.39v4.67h-4.05v-2.26l0.9-.51a0.878,0.878,0,0,0,.506-0.77,0.759,0.759,0,0,0-.74-0.74l-3.738-.39v4.67H752.72l-4.011-2.26v13.55c0,0.51.117,0.63,0.74,0.63,1.869,0,2.531-.28,2.531-1.13v-0.9Zm0-4.63h4.128v3.58H751.98v-3.58Zm0-1.06v-3.15h4.128v3.15H751.98Zm7.2,1.06h4.05v3.58h-4.05v-3.58Zm0-1.06v-3.15h4.05v3.15h-4.05Zm7.2,1.06h4.322v3.58h-4.322v-3.58Zm0-1.06v-3.15h4.322v3.15h-4.322Zm53.045-3.15a19.929,19.929,0,0,1-1.791,4.4,1.117,1.117,0,0,0-.234.51,0.2,0.2,0,0,0,.195.15c0.117,0,.117,0,2.025-1.2,0.428-.35.856-0.67,1.324-1.02a8.241,8.241,0,0,0,.817-0.58l2.1,0.12h0.2a0.957,0.957,0,0,0,.74-0.82,1.829,1.829,0,0,0-.468-0.9l-3.5-3.85-1.558,2.14H808.14v-2.77l1.091-.66a0.719,0.719,0,0,0,.428-0.62c0-.39-0.234-0.55-0.74-0.62l-4.167-.35v5.02H794.745c-0.2-1.29-.506-2.06-0.857-2.06-0.2,0-.273.15-0.273,0.46a6.308,6.308,0,0,1-1.908,4.13c-1.986,1.83-2.18,2.06-2.18,2.96a1.755,1.755,0,0,0,1.986,1.64c2.064,0,3.465-1.8,3.465-4.4,0-.39-0.039-1.06-0.078-1.68h24.533Zm-22.313,27.18h18.653v1.48c0,0.51.116,0.62,0.545,0.62a6.949,6.949,0,0,0,1.83-.31c0.857-.23,1.168-0.46,1.168-0.97v-8.88l0.662-.27a0.751,0.751,0,0,0,.506-0.7,1.223,1.223,0,0,0-.584-0.94l-3-2.72-1.324,1.98H797.665l-4.011-1.91v14.76c0,0.43.234,0.59,0.779,0.59a6.581,6.581,0,0,0,2.1-.39,0.657,0.657,0,0,0,.584-0.66v-1.68Zm0-1.05v-3.82h7.36v3.82h-7.36Zm0-4.87v-3.74h7.36v3.74h-7.36Zm10.787,4.87v-3.82h7.866v3.82h-7.866Zm0-4.87v-3.74h7.866v3.74h-7.866Zm-11.41-16.12c2.921-.12,3.7-0.15,6-0.15h14.135a0.5,0.5,0,0,0,.545-0.55,0.8,0.8,0,0,0-.311-0.62l-2.687-2.38-2.259,2.49h-9.423c-1.636,0-3.037-.04-6.737-0.19Zm4.517,8.49h11.215v1.25c0,0.35.156,0.46,0.545,0.46a7.343,7.343,0,0,0,1.714-.31,0.786,0.786,0,0,0,.817-0.82v-3.89l0.507-.31a0.7,0.7,0,0,0,.428-0.66,0.821,0.821,0,0,0-.428-0.7l-2.687-2.61-1.285,1.71H801.4l-3.388-1.64v8.96c0,0.35.194,0.51,0.662,0.51,1.324,0,2.336-.39,2.336-0.86v-1.09Zm0-4.83h11.215v3.78H801.014v-3.78Zm56.861-3.39c2.1,0,4.05.9,4.05,1.87,0,0.35-.156.43-1.012,0.66a7.361,7.361,0,0,0-4.946,4.13c-0.467,1.21-.623,2.92-0.623,7.09a17.2,17.2,0,0,0-1.908-.08,11.177,11.177,0,0,0-5.14,1.01,4.458,4.458,0,0,0-2.337,3.66c0,2.89,3,5.07,6.932,5.07,2.414,0,4.166-.78,5.062-2.3a6.62,6.62,0,0,0,.779-3.54,15.544,15.544,0,0,1,3.972,3.03,2.913,2.913,0,0,0,2.025,1.17,1.812,1.812,0,0,0,1.635-1.87c0-1.91-3.037-4.09-7.632-5.45a53.72,53.72,0,0,1-.7-6.31c0-2.84,1.168-4.4,3.31-4.4a9.138,9.138,0,0,1,4.089,1.13,1.682,1.682,0,0,0,1.4-1.87c0-2.57-2.648-4.63-5.958-4.63-1.831,0-4.712.89-4.712,1.48a0.254,0.254,0,0,0,.233.23,0.744,0.744,0,0,0,.273-0.04Zm-2.57,17.41c0,1.87-1.285,3.04-3.31,3.04-2.3,0-3.816-.98-3.816-2.38,0-1.48,1.441-2.45,3.544-2.45a10.2,10.2,0,0,1,3.582.66v1.13Zm-9.5-17.29c-1.831,5.02-4.6,9.38-7.633,11.99-0.9.82-1.246,1.33-1.246,1.83a2.225,2.225,0,0,0,2.22,2.07,3.132,3.132,0,0,0,2.336-1.05,18.745,18.745,0,0,0,1.986-3.39,102.068,102.068,0,0,0,5.413-12.11,15.651,15.651,0,0,0,3.621-1.4c1.753-.94,2.454-1.79,2.454-3.04,0-.94-0.2-1.09-1.207-1.13a5.1,5.1,0,0,1-3.427-.86c0.117-.7.194-1.05,0.311-1.94a3.454,3.454,0,0,0-3.232-1.72c-1.168,0-2.648.55-2.648,1.02,0,0.11.078,0.15,0.312,0.15a2.338,2.338,0,0,1,2.3,2.45,13.013,13.013,0,0,1-.778,4.05,14.172,14.172,0,0,1-4.284.78c-1.674,0-3.193-.7-3.621-1.71-0.117-.27-0.2-0.31-0.312-0.31a0.262,0.262,0,0,0-.273.27,5.9,5.9,0,0,0,.935,2.65,4.373,4.373,0,0,0,3.777,1.67A21.14,21.14,0,0,0,845.8,3767.31Zm4.322-6.46c1.363,0.85,1.519,1.01,1.519,1.16,0,0.43-.779.98-2.3,1.64C849.776,3762.17,849.854,3761.94,850.126,3760.85Zm57.406,6.69c1.441-1.01,1.792-1.32,1.792-1.63a3,3,0,0,0-1.363-1.36c-2.22-1.56-2.843-1.91-3.31-1.91a2.407,2.407,0,0,0-1.324.54,11.283,11.283,0,0,1-4.634,1.56,90.3,90.3,0,0,1-9.969,1.21,3.558,3.558,0,0,1-2.959-1.13,0.523,0.523,0,0,0-.312-0.27,0.448,0.448,0,0,0-.311.54,3.739,3.739,0,0,0,1.324,3.15,5.038,5.038,0,0,0,2.336,1.13,1.192,1.192,0,0,0,.662-0.27,16.389,16.389,0,0,1,4.673-1.63,48.614,48.614,0,0,1,7.71-1.33c0.857,0,1.207.24,1.207,0.86a11.8,11.8,0,0,1-.74,2.96,24.951,24.951,0,0,1-5.373,9.27,28.831,28.831,0,0,1-12.734,8.76c-0.234.08-.35,0.15-0.35,0.31a0.316,0.316,0,0,0,.35.27c2.1,0,7.438-2.02,10.709-4.05C900.367,3781.13,903.989,3776.23,907.532,3767.54Zm3.388-12.15a3.915,3.915,0,1,0,3.855,3.9A3.928,3.928,0,0,0,910.92,3755.39Zm-0.039,1.48a2.415,2.415,0,1,1-2.414,2.38A2.42,2.42,0,0,1,910.881,3756.87Zm22.983,4.72a0.245,0.245,0,0,0-.233.19,5.149,5.149,0,0,0,1.09,1.87,4.132,4.132,0,0,0,3.349,1.48,36.8,36.8,0,0,0,6.425-.94c1.908-.38,3.115-0.58,4.79-0.77,0.934-.16,1.4-0.43,1.4-0.9,0-.86-2.258-2.22-3.621-2.22a2.217,2.217,0,0,0-1.051.43,7.018,7.018,0,0,1-2.064.78,34.981,34.981,0,0,1-6.971,1.05,4.285,4.285,0,0,1-2.8-.78A0.385,0.385,0,0,0,933.864,3761.59Zm19.548,10.16a2.865,2.865,0,0,1,.857-0.51,1.1,1.1,0,0,0,.467-0.27,0.708,0.708,0,0,0,.156-0.43c0-.35,0-0.35-0.857-1.2-1.752-1.76-2.414-2.22-2.959-2.22a3.991,3.991,0,0,0-1.519.54,9.878,9.878,0,0,1-3,.94,100.953,100.953,0,0,1-12.072,1.59c-1.441,0-2.842-.54-3.271-1.28a0.463,0.463,0,0,0-.35-0.35q-0.351,0-.351.93c0,1.75,2.142,4.01,3.816,4.01a3.388,3.388,0,0,0,1.519-.58,50.482,50.482,0,0,1,11.955-2.65c0.818,0,1.285.23,1.285,0.7a10.551,10.551,0,0,1-1.052,2.96,25.96,25.96,0,0,1-5.1,8.26,24.71,24.71,0,0,1-11.1,6.93,0.414,0.414,0,0,0-.428.35,0.351,0.351,0,0,0,.428.31,21.356,21.356,0,0,0,5.88-1.33,28.017,28.017,0,0,0,10.164-7.28C949.752,3778.99,951.154,3776.58,953.412,3771.75Zm23.957-9.19c-1.4,0-2.376.19-2.376,0.51,0,0.11.117,0.19,0.429,0.27a11.314,11.314,0,0,1,5.685,5.22c0.545,1.16.9,1.48,1.674,1.48a2.151,2.151,0,0,0,2.142-2.07C984.923,3765.29,981.146,3762.56,977.369,3762.56Zm25,0.12a1.041,1.041,0,0,0-.59.46c-2.371,3.16-8.017,8.61-13.119,12.62-4.244,3.35-7.866,5.26-9.968,5.26a3.148,3.148,0,0,1-2.3-.94c-0.195-.39-0.233-0.39-0.35-0.39-0.312,0-.545.74-0.545,1.56,0,0.86.545,1.68,2.024,3.08a5.1,5.1,0,0,0,2.726,1.63,1.069,1.069,0,0,0,.545-0.23c0.273-.2.507-0.43,0.74-0.62a3.994,3.994,0,0,1,.74-0.51,58.536,58.536,0,0,0,16.589-15.07c1.636-2.22,3.776-5.96,3.776-6.58A0.318,0.318,0,0,0,1002.37,3762.68Z" transform="translate(-427.406 -3755.41)"/>
</svg>
