<svg xmlns="http://www.w3.org/2000/svg" width="145.031" height="32.22" viewBox="0 0 145.031 32.22">
  <defs>
    <style>
      .cls-1 {
        fill: #333;
        fill-rule: evenodd;
      }
    </style>
  </defs>
  <path id="キャンプ" class="cls-1" d="M658.3,3845.67c-4.465,1.04-4.465,1.04-5.473,1.04a3.8,3.8,0,0,1-2.2-.57,0.19,0.19,0,0,0-.108-0.08,0.41,0.41,0,0,0-.252.36c0,1.08,2.88,3.14,4.392,3.14a2.871,2.871,0,0,0,1.3-.51c1.4-.86,2.269-1.22,7.526-3.09,0.54,2.98.756,4.82,1.26,10.04a3.413,3.413,0,0,0,1.008,2.27,3.35,3.35,0,0,0,2.052,1.18,1.523,1.523,0,0,0,1.44-1.65,7.773,7.773,0,0,0-.252-1.62c-1.3-4.54-1.62-5.83-2.844-10.98,5.869-1.12,7.993-1.4,10.154-1.4l1.08,0.03c0.972,0,1.476-.28,1.476-0.79,0-1.04-2.34-2.48-4.033-2.48a3.09,3.09,0,0,0-.468.03c-1.8,1.26-1.836,1.3-8.605,3.21-0.432-1.95-.576-2.7-0.864-4.47,4.9-1.54,5.437-1.69,6.625-1.83,1.116-.11,1.476-0.29,1.476-0.79,0-.8-1.98-1.91-3.348-1.91a2.483,2.483,0,0,0-1.513.68,11.824,11.824,0,0,1-3.564,1.84c-0.072-1.08-.144-2.56-0.144-3.46a8.667,8.667,0,0,1,.252-1.76,2.252,2.252,0,0,0,.108-0.54c0-.61-2.557-1.87-3.817-1.87-0.972,0-2.844.97-2.844,1.47,0,0.15.144,0.18,0.432,0.18,1.8,0.04,2.484,1.41,3.42,6.81a23.313,23.313,0,0,1-6.7,1.22,4.425,4.425,0,0,1-1.368-.18,2.263,2.263,0,0,0-.684-0.25,0.191,0.191,0,0,0-.18.18,3.205,3.205,0,0,0,1.26,1.47,5.321,5.321,0,0,0,2.917,1.01c1.152,0,2.2-.29,5.22-1.47,0.432,2.08.541,2.77,0.757,4.35-1.009.25-1.693,0.43-2.017,0.5Zm44.041-2.12c3.385-1.26,4.789-1.66,5.545-1.66,0.324,0,.54.11,0.54,0.32a14.343,14.343,0,0,1-2.376,4.5,0.811,0.811,0,0,0-.216.4,0.352,0.352,0,0,0,.324.29c0.18,0,.4-0.18,1.728-1.3a34.976,34.976,0,0,1,3.493-2.63c1.656-.57,2.124-0.82,2.124-1.15a2.371,2.371,0,0,0-1.08-1.44c-1.368-1.15-2.125-1.65-2.557-1.65a2.671,2.671,0,0,0-1.188.43c-0.576.29-.936,0.47-1.116,0.54a9.2,9.2,0,0,1-2.052.72c-1.152.36-1.945,0.61-3.565,1.11a24.972,24.972,0,0,1-.576-3.74,1.544,1.544,0,0,1,.036-0.4,3.241,3.241,0,0,0,.072-0.39,1.43,1.43,0,0,0-1.224-.9,17.361,17.361,0,0,0-2.376-.51,1.34,1.34,0,0,0-.937.4,2.53,2.53,0,0,0-.756.83,0.305,0.305,0,0,0,.288.25,2.322,2.322,0,0,0,.288-0.07,0.453,0.453,0,0,1,.252-0.07c0.973,0,1.441.97,2.665,5.32a30.581,30.581,0,0,1-7.093,1.66,1.909,1.909,0,0,1-1.332-.5c-0.144-.26-0.18-0.26-0.252-0.26-0.18,0-.288.18-0.288,0.51,0,1.33,1.836,2.98,3.276,2.98a1.278,1.278,0,0,0,.828-0.39,20.914,20.914,0,0,1,5.329-2.38,104.27,104.27,0,0,1,2.7,12.02,2.005,2.005,0,0,0,.54,1.52,3.2,3.2,0,0,0,1.8,1,1.573,1.573,0,0,0,1.224-1.72,7.935,7.935,0,0,0-.576-2.31C704.284,3850.31,703.347,3847.32,702.339,3843.55Zm29.135-9.69c-1.3,0-2.2.18-2.2,0.47,0,0.11.108,0.18,0.4,0.25a10.5,10.5,0,0,1,5.257,4.83c0.5,1.08.828,1.36,1.548,1.36a1.98,1.98,0,0,0,1.98-1.9C738.459,3836.38,734.967,3833.86,731.474,3833.86Zm23.116,0.11a1,1,0,0,0-.54.43,79.051,79.051,0,0,1-12.134,11.66c-3.925,3.1-7.273,4.86-9.217,4.86a2.926,2.926,0,0,1-2.125-.86c-0.18-.36-0.216-0.36-0.324-0.36-0.288,0-.5.68-0.5,1.44,0,0.79.5,1.55,1.872,2.84a4.735,4.735,0,0,0,2.521,1.51,1,1,0,0,0,.5-0.21c0.252-.18.468-0.4,0.684-0.58a4.159,4.159,0,0,1,.684-0.47,53.98,53.98,0,0,0,15.338-13.92c1.513-2.06,3.493-5.51,3.493-6.09A0.313,0.313,0,0,0,754.59,3833.97Zm34.032,4.5c1.332-.94,1.656-1.22,1.656-1.51a2.773,2.773,0,0,0-1.26-1.26c-2.052-1.44-2.628-1.76-3.061-1.76a2.191,2.191,0,0,0-1.224.5,10.541,10.541,0,0,1-4.284,1.44,85.285,85.285,0,0,1-9.218,1.11,3.281,3.281,0,0,1-2.736-1.04,0.5,0.5,0,0,0-.288-0.25,0.414,0.414,0,0,0-.288.5,3.47,3.47,0,0,0,1.224,2.92,4.7,4.7,0,0,0,2.16,1.04,1.141,1.141,0,0,0,.612-0.25,15.267,15.267,0,0,1,4.321-1.51,44.282,44.282,0,0,1,7.129-1.23c0.792,0,1.116.22,1.116,0.8a10.882,10.882,0,0,1-.684,2.73,23.055,23.055,0,0,1-4.969,8.57,26.676,26.676,0,0,1-11.773,8.1,0.341,0.341,0,0,0-.324.28,0.292,0.292,0,0,0,.324.26c1.944,0,6.877-1.88,9.9-3.75C782,3851.03,785.345,3846.5,788.622,3838.47Zm3.132-11.23a3.62,3.62,0,1,0,3.565,3.6A3.624,3.624,0,0,0,791.754,3827.24Zm-0.036,1.37a2.23,2.23,0,1,1-2.232,2.19A2.21,2.21,0,0,1,791.718,3828.61Z" transform="translate(-650.281 -3827.25)"/>
</svg>
