<svg xmlns="http://www.w3.org/2000/svg" width="618.902" height="36.43" viewBox="0 0 618.902 36.43">
  <defs>
    <style>
      .cls-1 {
        fill: #333;
        fill-rule: evenodd;
      }
    </style>
  </defs>
  <path id="充実の施設で癒され_くつろぐ" data-name="充実の施設で癒され、くつろぐ" class="cls-1" d="M404.051,2366.88c4.985-.16,5.8-0.2,6.776-0.2h6.153a44.223,44.223,0,0,1-4.245,9.16c-1.246.03-2.336,0.03-2.843,0.03-0.116,0-1.791,0-4.984-.03l1.947,4.2a0.948,0.948,0,0,0,.9.7,1.065,1.065,0,0,0,.9-0.62l0.623-.94,1.208-.15,2.686-.35c0.195-.04.818-0.12,1.714-0.27,0.078,8.8-2.337,12.34-10.553,15.69a0.479,0.479,0,0,0-.389.39,0.308,0.308,0,0,0,.311.31,21.763,21.763,0,0,0,2.531-.58,24,24,0,0,0,5.919-2.5c4.167-2.72,5.647-6.23,5.8-13.82l3.466-.55v13.44c0,2.26.662,2.53,6.581,2.53,4.712,0,6.7-.12,8.216-0.55a1.918,1.918,0,0,0,1.675-1.63,1.651,1.651,0,0,0-1.091-1.32c-0.7-.32-0.7-0.36-0.7-0.78l0.038-1.68v-1.63c0.039-1.05.078-1.6,0.078-1.6a0.451,0.451,0,0,0-.389-0.55,0.521,0.521,0,0,0-.389.51c-1.441,4.91-1.87,5.73-3.271,6.04a36.132,36.132,0,0,1-4.167.23c-2.609,0-3.115-.19-3.115-1.17v-12.34l2.531-.39,2.959-.51a12.731,12.731,0,0,1,.974,2.11c0.545,1.51.934,1.94,1.752,1.94a2.142,2.142,0,0,0,1.986-2.41c0-1.95-1.947-4.21-5.1-6a33.5,33.5,0,0,0-5.14-2.1,0.254,0.254,0,0,0-.234.23,0.484,0.484,0,0,0,.351.35,18.287,18.287,0,0,1,4.711,4.95c-3.972.27-4.672,0.31-12.772,0.66l-3.193.16c1.09-1.25,1.285-1.48,2.025-2.34,1.051-1.25,2.141-2.53,3.232-3.78l1.051-1.24,0.935-.2a0.679,0.679,0,0,0,.662-0.66,1.4,1.4,0,0,0-.195-0.58l-0.312-.36h16.161c0.545,0,.74-0.11.74-0.5a0.758,0.758,0,0,0-.39-0.59l-3.621-2.84-2.531,2.88h-9.969v-4.4l0.9-.39a0.838,0.838,0,0,0,.507-0.78,0.891,0.891,0,0,0-.935-0.89l-4.011-.27v6.73h-7.671c-1.6,0-1.986,0-7.632-.23Zm44.985,16.47c3.271-.15,4.4-0.19,6.892-0.19h6.153c-1.908,5.21-5.608,8.45-12.461,10.78-0.7.24-.818,0.31-0.818,0.51a0.274,0.274,0,0,0,.312.27,17.047,17.047,0,0,0,2.024-.39c4.284-1.01,7.633-2.49,9.852-4.36a12.892,12.892,0,0,0,4.634-6.74c3.077,5.38,7.672,9,14.564,11.45a7.538,7.538,0,0,1,3.621-3.81c-7.593-1.09-13.161-3.59-17.094-7.71h16.9a0.474,0.474,0,0,0,.311-0.51,0.742,0.742,0,0,0-.35-0.62l-3.544-2.81-2.687,2.89h-11.37c0.35-1.64.506-2.57,0.74-4.29h11.253a0.527,0.527,0,0,0,.39-0.62,0.907,0.907,0,0,0-.273-0.62l-3.271-2.5-2.414,2.69h-5.608c0.156-2.06.156-2.37,0.2-4.4h11.682a0.474,0.474,0,0,0,.351-0.55,0.626,0.626,0,0,0-.234-0.5l-2.258-1.83c1.4-.86,2.18-1.36,3.621-2.34l1.752,0.08H482.1a1.1,1.1,0,0,0,.779-0.93,2.5,2.5,0,0,0-.467-0.98l-3.349-3.5-1.441,2.26H467.143v-3.31l1.09-.59a0.749,0.749,0,0,0-.35-1.44l-4.245-.35v5.69H453.9c-0.389-1.41-.856-2.42-1.129-2.42a0.206,0.206,0,0,0-.156.27l0.039,0.2a5.019,5.019,0,0,1-.35,1.6,8.737,8.737,0,0,1-2.493,3.23c-0.934.82-1.129,1.17-1.129,1.75a1.929,1.929,0,0,0,2.025,1.83c1.869,0,3.427-1.91,3.427-4.17,0-.31-0.039-0.78-0.078-1.24H477.7a24.208,24.208,0,0,1-1.83,3.93l-0.507-.39-2.336,2.65h-5.958c0.039-.82.039-1.56,0.039-1.91,0-.43,0-0.89-0.039-1.6l1.051-.58a0.866,0.866,0,0,0,.351-0.62,0.707,0.707,0,0,0-.584-0.7l-4.478-.43c0.078,1.52.116,2.84,0.116,3.46,0,0.82,0,1.33-.038,2.38h-3.972c-2.025,0-3.661-.04-7.672-0.2l0.779,1.44c3.933-.15,5.335-0.19,6.893-0.19h3.972c-0.039,1.83-.078,2.76-0.195,4.4h-3.816c-1.636,0-3.077-.04-6.737-0.19l0.779,1.4c3.193-.12,4.478-0.16,5.958-0.16h3.7a19.119,19.119,0,0,1-.74,4.29h-6.5c-1.635,0-3.193-.04-7.671-0.24Zm62.7-18.14c0.428-.04.7-0.04,0.818-0.04a9.387,9.387,0,0,1,4.01.93c3.388,1.71,5.141,5.26,5.141,10.48,0,4.79-1.6,8.33-4.985,11.09a21.041,21.041,0,0,1-6.97,3.63c-0.623.19-.74,0.23-0.74,0.42,0,0.16.156,0.24,0.389,0.24a17.168,17.168,0,0,0,2.493-.47,23.861,23.861,0,0,0,7.2-2.65,14.342,14.342,0,0,0,7.2-12.46,11.775,11.775,0,0,0-3.077-8.22,15.049,15.049,0,0,0-10.942-4.28c-9.112,0-16.939,7.36-16.939,15.93a10.107,10.107,0,0,0,1.908,6.27,4.721,4.721,0,0,0,3.271,2.14c2.142,0,5.53-2.77,7.827-6.35a25.044,25.044,0,0,0,3.894-12.65A14.88,14.88,0,0,0,511.738,2365.21Zm-1.908.15a1.869,1.869,0,0,0,.078.27,9.434,9.434,0,0,1,.233,2.18c0,3.47-1.479,7.79-3.972,11.65-1.635,2.57-3.855,4.59-5.062,4.59s-2.258-2.02-2.258-4.32a15.224,15.224,0,0,1,4.6-10.86A14.62,14.62,0,0,1,509.83,2365.36Zm44.088,15.07,1.792-.66v11.06c0,1.59.194,2.06,0.973,2.33a35.681,35.681,0,0,0,6.62.39c2.726,0,6.892-.19,8.255-0.35,1.636-.23,2.648-0.93,2.648-1.9a1.361,1.361,0,0,0-.817-1.21c-0.7-.35-0.74-0.43-0.74-1.05l0.039-1.33,0.039-.46,0.039-.71,0.038-.85c0.039-.47.039-0.47,0.039-0.51a0.352,0.352,0,0,0-.311-0.43c-0.234,0-.312.12-0.74,1.29-1.441,3.58-1.6,3.89-2.336,4.2-0.39.24-1.013,0.24-6.5,0.32h-1.675c-2.453,0-2.453,0-2.453-1.13V2378.6l3.31-1.17v10.2c0,0.51.156,0.71,0.584,0.71a3.933,3.933,0,0,0,1.6-.43,0.888,0.888,0,0,0,.779-0.9v-2.41c1.792,0.74,2.142,1.01,2.142,1.71,0.078,0.86.273,1.17,0.779,1.17a4.1,4.1,0,0,0,1.947-.9,2.319,2.319,0,0,0,1.207-2.14v-8.14l0.818-.31a0.67,0.67,0,0,0,.428-0.62,1.02,1.02,0,0,0-.35-0.74l-3-2.77-1.285,2.3-2.687.97v-4.51l0.74-.47a0.871,0.871,0,0,0,.467-0.7,0.638,0.638,0,0,0-.623-0.62l-3.543-.35v7.75l-3.31,1.16v-3.7l0.818-.46a0.781,0.781,0,0,0,.428-0.7,0.708,0.708,0,0,0-.623-0.67l-3.738-.35v7.01l-2.687.98Zm11.176-4.09,2.96-1.09V2383c0,0.74-.273.94-1.207,0.94a13.739,13.739,0,0,1-1.753-.12v-7.48Zm-18.341-7.79h7.866a0.5,0.5,0,0,0,.545-0.5,1.034,1.034,0,0,0-.272-0.55l-2.726-2.61-2.492,2.61h-1.947v-6.03l0.934-.55a0.839,0.839,0,0,0,.468-0.74,0.681,0.681,0,0,0-.662-0.66l-4.206-.39v8.37h-1.207c-0.35,0-1.246,0-2.22-.04l-2.959-.11,0.857,1.32c2.141-.08,2.453-0.12,4.672-0.12-0.077,13.24-1.324,19.2-5.14,24.54a1.28,1.28,0,0,0-.35.66,0.229,0.229,0,0,0,.272.19c0.546,0,2.22-1.63,3.7-3.54,2.842-3.7,3.855-6.85,4.673-14.95h3.115a68.058,68.058,0,0,1-.935,10.32c-0.623,3.15-.934,3.66-2.18,3.66a22.663,22.663,0,0,1-2.57-.24,3.516,3.516,0,0,0-.779-0.11,0.339,0.339,0,0,0-.351.31,0.573,0.573,0,0,0,.545.46c0.429,0.2.857,0.39,1.831,0.9,0.428,0.23.545,0.51,0.584,1.44,0.039,1.13.35,1.56,1.129,1.56,2.1,0,3.66-1.87,4.556-5.45,0.662-2.73.974-5.57,1.285-11.37l0.506-.2a0.667,0.667,0,0,0,.468-0.62,1.156,1.156,0,0,0-.312-0.78l-2.726-2.92-1.129,1.99h-3c0.077-1.48.077-1.6,0.116-4.09Zm27.259-.62a0.478,0.478,0,0,0,.584-0.51,0.8,0.8,0,0,0-.351-0.54l-3.426-2.96-2.765,2.96h-9.112c0.389-.78,1.129-2.26,2.18-4.48l1.091-.31a1.022,1.022,0,0,0,.817-0.9,0.846,0.846,0,0,0-.506-0.74l-4.127-1.79c-1.48,6.62-2.687,9.97-5.3,14.26a2.336,2.336,0,0,0-.39.85,0.325,0.325,0,0,0,.273.27c0.623,0,3-2.76,5.3-6.11h15.732Zm21.736-4.09-2.375,2.49h-5.49c-1.091,0-2.142-.03-5.219-0.15l0.74,1.32c2.493-.08,3.466-0.11,4.479-0.11h10.864a0.454,0.454,0,0,0,.311-0.47,0.611,0.611,0,0,0-.233-0.47Zm-7.593,26.05h4.829v2.07a0.468,0.468,0,0,0,.584.46,9.064,9.064,0,0,0,1.908-.38,0.838,0.838,0,0,0,.662-0.82v-7.87l0.545-.27a0.683,0.683,0,0,0,.428-0.66,1.021,1.021,0,0,0-.311-0.7l-2.843-2.89-1.557,2.22h-4.089l-3.466-1.75v14.06c0,0.39.195,0.54,0.662,0.54a5.283,5.283,0,0,0,1.6-.27c0.779-.19,1.051-0.47,1.051-0.97v-2.77Zm0-1.05v-6.73h4.829v6.73h-4.829Zm-3.66-12.73v1.05h12.071a0.429,0.429,0,0,0,.312-0.43,0.441,0.441,0,0,0-.2-0.39L594,2373.97l-1.947,2.14H584.5Zm0-4.95v1.05h11.8a0.5,0.5,0,0,0,.623-0.54,0.747,0.747,0,0,0-.273-0.58l-2.726-2.15-1.869,2.22H584.5Zm0.272-9.65v1.05H596.06a0.442,0.442,0,0,0,.389-0.47,0.918,0.918,0,0,0-.272-0.55l-2.726-2.37-2.025,2.34h-6.659Zm26.363,15.53h-8.567c-1.4,0-2.492-.04-5.218-0.15l0.857,1.48c1.869-.12,2.141-0.12,3.7-0.2a27.691,27.691,0,0,0,4.05,8.49,26.46,26.46,0,0,1-10.4,6.74c-1.246.5-1.285,0.5-1.285,0.74a0.256,0.256,0,0,0,.311.19,22.9,22.9,0,0,0,3.7-.93,28,28,0,0,0,9.384-4.87,26.549,26.549,0,0,0,8.84,5.37,7.452,7.452,0,0,1,2.881-3.34c-5.3-1.25-7.359-2.07-9.813-3.82a27.357,27.357,0,0,0,4.6-7.09l1.207-.27a0.743,0.743,0,0,0,.585-0.7,1.1,1.1,0,0,0-.351-0.78l-2.8-2.96Zm0.078,1.05a24.538,24.538,0,0,1-3.816,6.86,22.123,22.123,0,0,1-4.556-6.86h8.372Zm-2.337-15.53v8.56c0,2.03.273,2.18,4.167,2.18a27.257,27.257,0,0,0,5.257-.31,1.68,1.68,0,0,0,1.441-1.36,1.335,1.335,0,0,0-.584-1.05,1.252,1.252,0,0,1-.818-1.4c0-.55.039-1.4,0.2-3.2,0.116-1.13.116-1.13,0.116-1.28a0.232,0.232,0,0,0-.233-0.27c-0.156,0-.234.11-0.429,0.78-1.83,5.25-1.869,5.33-4.127,5.29h-0.623c-1.013.04-1.246-.19-1.246-1.01v-5.14l0.623-.35a1.067,1.067,0,0,0,.545-0.82,1.293,1.293,0,0,0-.351-0.7l-2.725-3.04-1.441,2.07h-3.816l-3.583-1.6a33.161,33.161,0,0,1,.234,4.01c0,6.23-.974,9.07-3.894,11.64a0.454,0.454,0,0,0-.234.31,0.17,0.17,0,0,0,.156.16c0.934,0,3.621-1.87,4.789-3.31,1.636-2.02,2.22-4.63,2.259-10.16h4.322Zm49.268,7.43c-1.051,0-1.713.2-1.713,0.47a0.511,0.511,0,0,0,.35.35,6.4,6.4,0,0,1,3.5,2.73c0.545,1.01.623,1.05,1.246,1.05a1.7,1.7,0,0,0,1.791-1.52C663.318,2371.51,660.787,2369.99,658.139,2369.99Zm-4.867,2.46c-0.585,0-.935.11-0.935,0.35a0.39,0.39,0,0,0,.234.27,5.646,5.646,0,0,1,3,3c0.467,1.13.662,1.32,1.48,1.32a1.587,1.587,0,0,0,1.635-1.36C658.684,2374.28,655.881,2372.45,653.272,2372.45Zm4.127-10.48c-0.856.47-1.012,0.51-5.958,1.95-5.062,1.29-8.8,2.34-13.317,3.7a13.209,13.209,0,0,1-4.011.93,3.393,3.393,0,0,1-2.882-1.55c-0.194-.39-0.194-0.43-0.35-0.43-0.117,0-.195.11-0.195,0.31a6.329,6.329,0,0,0,.467,2.57c0.662,1.4,2.687,2.92,3.933,2.92a1.584,1.584,0,0,0,.974-0.39,31.545,31.545,0,0,1,5.8-3.19,29.606,29.606,0,0,1,6.854-2.26,0.179,0.179,0,0,1,.194.12,2.139,2.139,0,0,1-.389.46,21.115,21.115,0,0,0-4.323,6.82,24.7,24.7,0,0,0-1.6,8.1c0,4.44,1.752,7.32,5.335,8.68a20.739,20.739,0,0,0,7.087,1.33c2.1,0,3.193-.67,3.193-1.95a3,3,0,0,0-2.414-2.73,0.484,0.484,0,0,0-.234.04,22.372,22.372,0,0,1-3.076.27c-4.362,0-6.5-2.29-6.5-6.93a25.246,25.246,0,0,1,1.557-8.76,9.063,9.063,0,0,1,4.362-5.02,11.105,11.105,0,0,1,5.179-.86,15.088,15.088,0,0,1,2.92.31,5.706,5.706,0,0,0,.779.08,1.212,1.212,0,0,0,1.246-1.13c0-.7-0.584-1.48-1.752-2.26A4.979,4.979,0,0,0,657.4,2361.97Zm26.76,24.69a6.663,6.663,0,0,1-2.025,3.23,15.682,15.682,0,0,0-1.791,1.05,1.73,1.73,0,0,0-.856,1.48,1.615,1.615,0,0,0,1.791,1.48,3.507,3.507,0,0,0,2.531-1.51,4.7,4.7,0,0,0,.973-3.08,13.423,13.423,0,0,0-.272-2.42c1.557,0,2.492-.35,2.375-0.89v-4.71h4.6v1.56c0,0.62-.039.66-1.246,0.66l-1.246.07c-1.363.04-1.363,0.04-1.363,0.32a0.573,0.573,0,0,0,.506.39,8.555,8.555,0,0,1,.9.31,9.7,9.7,0,0,1,.935.31c0.272,0.08.35,0.12,0.35,0.35,0.078,1.17.195,1.4,0.7,1.4a6.582,6.582,0,0,0,1.635-.43l0.234-.04a3.878,3.878,0,0,1,1.674,2.57c0.429,1.41.974,1.99,1.753,1.99a1.539,1.539,0,0,0,1.518-1.6c0-1.52-1.168-2.57-4.049-3.62a1.329,1.329,0,0,0,.545-1.01v-7.83l0.35-.23a0.772,0.772,0,0,0,.429-0.55c0-.23-0.078-0.35-0.779-1.09l-1.986-2.22-0.935,1.72h-4.517l-1.441-.7c0.7-.32,2.22-1.17,3.349-1.87v0.58H699.58a0.528,0.528,0,0,0,.623-0.51c0-.23-0.039-0.31-0.623-0.77l-2.181-1.83-1.713,2.06h-6.309a28.8,28.8,0,0,0,4.907-3.93c0.779-.78,1.246-1.25,1.4-1.37,2.492,3.35,6.113,6.2,11.059,8.69a11.407,11.407,0,0,1,1.48-1.68c0.077-.07.7-0.5,1.6-1.05a1.346,1.346,0,0,1,.467-0.31c-6.386-1.4-10.124-3.04-13.784-6.07l0.389-.12a0.624,0.624,0,0,0,.389-0.51,0.612,0.612,0,0,0-.389-0.5l-0.506-.28h12.772a0.709,0.709,0,0,0,.779-0.62,1.189,1.189,0,0,0-.662-0.89l-3.115-2.26-2.376,2.72h-9.462v-2.18l0.818-.47a0.931,0.931,0,0,0,.623-0.81c0-.47-0.39-0.7-1.169-0.78l-3.738-.24v4.48h-8.294l-3.31-1.4v0.86l0.117,3.42v3.98l0.039,4.36a17.656,17.656,0,0,1-.156,3.11c-0.506.2-.779,0.27-1.986,0.7-0.9.35-1.713,0.63-1.947,0.7l-1.791.55-0.351.12,1.636,3.27a0.784,0.784,0,0,0,.7.54,0.664,0.664,0,0,0,.662-0.62l0.35-1.05a0.772,0.772,0,0,1,.195-0.27c0.35-.32.7-0.59,1.09-0.9l1.051-1.01,0.273-.2c-0.545,5.77-1.791,9.54-4.167,12.7a2.511,2.511,0,0,0-.778,1.24,0.186,0.186,0,0,0,.194.2,4.446,4.446,0,0,0,1.714-1.44,20,20,0,0,0,4.712-7.09c1.09-2.69,1.518-5.06,1.674-9.85,0.195-.08.74-0.31,1.674-0.7v12.34Zm8.684-22.51c-1.908,3.31-6.308,7.64-10.319,10.17,0.078-2.46.078-4.13,0.078-6.97,0-1.83,0-1.83-.039-3.2h10.28Zm-5.958,16.09v-1.99h4.6v1.99h-4.6Zm0-4.87h4.6v1.83h-4.6v-1.83Zm-13.317-8.96a0.131,0.131,0,0,0-.156.16,0.558,0.558,0,0,0,.156.31,8.362,8.362,0,0,1,1.6,4.79c0.156,2.53.351,2.88,1.324,2.88,1.168,0,1.869-.89,1.869-2.34a6.591,6.591,0,0,0-3.232-4.98A4.794,4.794,0,0,0,673.568,2366.41Zm16.9,22.16,0.545-.31a0.84,0.84,0,0,0,.467-0.66,0.819,0.819,0,0,0-.818-0.71l-3.193-.38v5.88a1,1,0,0,0,.545,1.2c0.546,0.35,3.194.59,6.426,0.59a45.7,45.7,0,0,0,6.814-.35,1.4,1.4,0,0,0,1.207-1.29,1.479,1.479,0,0,0-.895-1.21,0.5,0.5,0,0,1-.39-0.5v-0.12c0.117-.97.273-2.96,0.273-3.43,0-.31-0.078-0.46-0.273-0.46-0.116,0-.194.11-0.311,0.43a20.218,20.218,0,0,1-1.636,3.66c-0.467.62-1.324,0.74-5.685,0.74-2.726,0-2.882,0-3-.16a1.289,1.289,0,0,1-.078-0.82v-2.1Zm9.151-11.49,0.584-.35a0.865,0.865,0,0,0,.389-0.7,0.786,0.786,0,0,0-.7-0.7l-3.193-.35v7.79a0.53,0.53,0,0,0,.662.62,6.874,6.874,0,0,0,1.753-.31,0.588,0.588,0,0,0,.506-0.66v-5.34Zm6.23-.66,0.429-.23a0.9,0.9,0,0,0,.506-0.7,0.884,0.884,0,0,0-.935-0.71l-2.959-.42v8.56c0.039,0.74,0,.74-1.636.82-2.57.12-2.687,0.16-2.687,0.35s0.156,0.27,1.48.62a7.132,7.132,0,0,1,.857.28c0.156,0.04.389,0.07,0.662,0.15a0.426,0.426,0,0,1,.35.24,2.126,2.126,0,0,1,.039.81c0.039,0.55.234,0.86,0.584,0.86a5.126,5.126,0,0,0,2.337-.97,1.707,1.707,0,0,0,.973-1.64v-8.02Zm-3.427,10.94c-0.116,0-.155.04-0.155,0.12a0.429,0.429,0,0,0,.272.27c1.091,0.59,2.882,2.92,3.739,4.95,0.467,1.05.856,1.4,1.557,1.4a1.57,1.57,0,0,0,1.558-1.75c0-1.91-1.519-3.43-4.478-4.4A10.957,10.957,0,0,0,702.422,2387.36Zm34.938-25.19a2.139,2.139,0,0,0,.39.08,0.235,0.235,0,0,0,.272-0.2c0-.51-2.687-1.91-3.738-1.91a3.382,3.382,0,0,0-3.193,2.92c0,0.67.155,0.86,1.6,1.83a17.769,17.769,0,0,1,4.478,4.17,23.693,23.693,0,0,1-7.437,1.25c-2.726,0-4.245-.51-5.491-1.83a0.214,0.214,0,0,0-.195-0.12,0.178,0.178,0,0,0-.116.16,5.235,5.235,0,0,0,.506,1.4,6.29,6.29,0,0,0,6.036,3.42,26.351,26.351,0,0,0,8.761-1.79c3.193,4.32,4.634,7.17,4.634,9.11a0.291,0.291,0,0,1-.311.32,1.854,1.854,0,0,1-.662-0.24,16.3,16.3,0,0,0-7.9-1.91c-4.868,0-8.178,2.69-8.178,6.62a6.7,6.7,0,0,0,3.232,5.61,17.4,17.4,0,0,0,8.295,1.91c2.648,0,4.672-.82,4.672-1.87a2.767,2.767,0,0,0-2.375-2.45,4.589,4.589,0,0,0-.973.15,6.249,6.249,0,0,1-2.064.24c-5.14,0-8.061-1.48-8.061-4.13,0-3,1.986-4.87,5.3-4.87a12.562,12.562,0,0,1,4.945,1.29,21.77,21.77,0,0,1,4.829,3.38,1.513,1.513,0,0,0,1.324.59q2.569,0,2.57-3.62c0-2.5-1.674-5.03-7.243-11.02,3.5-1.52,6.386-3.86,6.386-5.18a1.536,1.536,0,0,0-1.557-1.4,1.732,1.732,0,0,0-.351.03c-0.934.08-.934,0.08-1.09,0.08a10.656,10.656,0,0,1-2.726-.54,0.289,0.289,0,0,0-.156-0.04,0.168,0.168,0,0,0-.155.15,0.406,0.406,0,0,0,.272.32,2.389,2.389,0,0,1,1.052,1.09c0,0.81-1.48,2.1-3.544,3.11-1.4-1.63-2.025-2.37-3.388-3.97a1.541,1.541,0,0,1-.545-1.01,1.43,1.43,0,0,1,1.636-1.13h0.272Zm36.768,6.97c-0.623,0-1.09.19-2.648,1.09-3.232,1.91-4.245,3.04-4.245,4.67a3.073,3.073,0,0,0,.974,2.14,15.494,15.494,0,0,1,2.259,3.7c-0.818,1.25-1.247,1.83-2.3,3.2-1.519,1.83-1.791,2.37-1.791,3.38,0,1.29.895,2.65,1.791,2.65a2.107,2.107,0,0,0,1.83-1.44c0.117-.9.506-1.99,1.869-5.41,1.558,4.4,1.714,5.18,1.831,8.45,0.039,0.93.233,1.28,0.739,1.28s0.935-.31,2.259-1.52a1.218,1.218,0,0,0,.545-1.01,4.036,4.036,0,0,0-.078-0.58c-0.389-3.43-.584-5.96-0.662-9-0.039-.82-0.039-1.59-0.039-1.71-0.039-.47-0.039-0.78-0.039-0.94,0-2.02.234-2.76,1.169-3.93,2.842-3.43,6.658-6,8.917-6,1.246,0,1.947,1.02,1.947,2.73a28.05,28.05,0,0,1-.389,3.66,70.378,70.378,0,0,0-.974,8.72c0,3.59,1.869,5.88,4.79,5.88a7.7,7.7,0,0,0,5.335-2.37c1.557-1.52,2.3-2.84,3.543-6.19a1.462,1.462,0,0,0,.156-0.51,0.256,0.256,0,0,0-.273-0.23,0.4,0.4,0,0,0-.311.23c-1.908,3.39-5.062,5.84-7.477,5.84-1.246,0-1.986-1.09-1.986-2.88,0-1.64.273-3.82,1.285-9.46a15.632,15.632,0,0,0,.273-2.73,4.7,4.7,0,0,0-4.868-4.83c-1.6,0-3.154.63-5.257,2.11-1.869,1.28-3.076,2.49-5.8,5.88a12.382,12.382,0,0,1,1.324-3.43,2.106,2.106,0,0,0-1.051-1.25,34.941,34.941,0,0,1,.857-4.94,1.872,1.872,0,0,0,.194-0.74c0-1.6-2.8-3.59-5.023-3.59a2.592,2.592,0,0,0-1.83.67c0,0.11.078,0.19,0.272,0.19,1.363,0.08,2.376,1.25,2.57,2.96,0.078,0.59.078,0.7,0.234,4.01Zm0.156,5.99c-0.935,1.52-.974,1.6-2.8,4.76-1.674-3.28-1.713-3.39-1.713-4.13a2.865,2.865,0,0,1,1.363-2.22,5.559,5.559,0,0,1,2.609-1.4,0.475,0.475,0,0,1,.506.42Zm0.428,5.03,0.078,2.41,0.078,1.48v0.43c0,0.7-.2,1.09-0.506,1.09-0.273,0-.39-0.15-0.623-0.74-0.234-.7-0.507-1.4-1.052-2.69,0.818-1.67,1.129-2.33,1.986-3.89Zm35.522,3.5c-0.273,0-.429.08-0.429,0.2a0.345,0.345,0,0,0,.2.23c3.076,1.44,4.167,2.77,5.14,6.08,0.584,1.83.974,2.25,2.025,2.25a2.277,2.277,0,0,0,2.453-2.22c0-2.1-2.1-4.32-5.451-5.64A11.646,11.646,0,0,0,810.234,2383.66Zm62-24.41c-1.09,0-2.1.27-2.1,0.58,0,0.2.078,0.23,0.429,0.31a2.28,2.28,0,0,1,1.752,2.14,3.506,3.506,0,0,1-.545,1.68,25.809,25.809,0,0,1-2.726,3.58c-3.427,4.48-3.427,4.48-3.816,5.1a5.582,5.582,0,0,0-.273,5.73,16.041,16.041,0,0,0,2.337,3.03,30.916,30.916,0,0,1,6.464,10.71c0.506,1.52,1.324,2.22,2.57,2.22a2.421,2.421,0,0,0,2.3-2.57,8.823,8.823,0,0,0-1.986-4.4,26.269,26.269,0,0,0-4.244-4.79c-4.517-4.28-5.3-5.29-5.3-6.89,0-2.02,1.324-3.47,8.606-9.66,1.869-1.59,2.025-1.75,2.025-2.49a4.168,4.168,0,0,0-2.1-2.88A6.556,6.556,0,0,0,872.235,2359.25Zm50.981,7.82a24.449,24.449,0,0,0-10.085,2.38c-1.48.66-3.544,1.75-6.7,3.5a4.025,4.025,0,0,1-2.337.74,2.885,2.885,0,0,1-2.842-1.48,0.4,0.4,0,0,0-.312-0.27q-0.35,0-.35,1.29a3.829,3.829,0,0,0,1.285,2.88,6.707,6.707,0,0,0,3.66,1.75c0.857,0,1.48-.35,2.609-1.44,4.712-4.6,10.631-7.55,14.992-7.55,3.777,0,6.192,2.84,6.192,7.28,0,4.05-2.415,7.43-7.438,10.32a27.871,27.871,0,0,1-6.464,2.61c-0.623.11-.779,0.19-0.779,0.42,0,0.16.2,0.28,0.545,0.28a17.324,17.324,0,0,0,2.648-.35,34.253,34.253,0,0,0,10.242-3.51,10.814,10.814,0,0,0,6-9.66C934.08,2370.93,929.563,2367.07,923.216,2367.07Zm35.989,9.04a0.15,0.15,0,0,1-.078-0.08c-0.039-.66,6.075-7.75,7.672-8.92a5.613,5.613,0,0,0,1.285-1.01,1.961,1.961,0,0,0,.545-1.05c0-1.13-2.882-3.43-4.284-3.43a2.294,2.294,0,0,0-1.285.55,13.216,13.216,0,0,1-3.193,1.75,14.313,14.313,0,0,1-4.089,1.25,1.994,1.994,0,0,1-1.986-1.29,0.329,0.329,0,0,0-.233-0.19,0.378,0.378,0,0,0-.273.35,6.93,6.93,0,0,0,.935,2.64,3.649,3.649,0,0,0,2.881,1.72,2.553,2.553,0,0,0,2.337-1.17c1.441-1.52,3.115-2.84,3.7-2.84a0.46,0.46,0,0,1,.351.43c0,0.74-1.324,3.31-3.155,6.15a53.91,53.91,0,0,1-9.228,10.75c-1.091.93-1.441,1.44-1.441,2.18,0,1.28,1.363,3.15,2.258,3.15a1.821,1.821,0,0,0,1.324-1.13,43.817,43.817,0,0,1,3.544-5.61,11.312,11.312,0,0,1,8.528-4.67,5.612,5.612,0,0,1,5.763,5.69c0,4.67-3.816,8.45-10.553,10.39-0.818.24-1.012,0.35-1.012,0.51a0.37,0.37,0,0,0,.428.27,26.122,26.122,0,0,0,3.037-.39,24.681,24.681,0,0,0,8.567-3.5,9.281,9.281,0,0,0,3.894-7.44,6.68,6.68,0,0,0-3.543-6.04,10.514,10.514,0,0,0-4.634-1.2,17.943,17.943,0,0,0-6.425,1.4,12.027,12.027,0,0,1-1.363.62,0.406,0.406,0,0,0-.234.12Zm53.785-7.17a1.174,1.174,0,0,0-1.09.35,0.5,0.5,0,0,0,.31.35,5.42,5.42,0,0,1,3,2.65c0.58,1.21.78,1.37,1.52,1.37a1.47,1.47,0,0,0,1.59-1.37C1018.32,2370.54,1015.75,2368.94,1012.99,2368.94Zm3.97-3.27c-1.01,0-1.67.2-1.67,0.47,0,0.23.15,0.31,0.7,0.47a5.385,5.385,0,0,1,3.07,2.61,1.361,1.361,0,0,0,1.33,1.01,1.678,1.678,0,0,0,1.71-1.56C1022.1,2367.15,1019.57,2365.67,1016.96,2365.67Zm-10.08-6.42c-1.09,0-2.11.27-2.11,0.58,0,0.2.08,0.23,0.43,0.31a2.28,2.28,0,0,1,1.75,2.14,3.494,3.494,0,0,1-.54,1.68,25.484,25.484,0,0,1-2.73,3.58c-3.42,4.48-3.42,4.48-3.813,5.1a5.582,5.582,0,0,0-.273,5.73,15.873,15.873,0,0,0,2.336,3.03,30.781,30.781,0,0,1,6.46,10.71c0.51,1.52,1.33,2.22,2.58,2.22a2.419,2.419,0,0,0,2.29-2.57,8.847,8.847,0,0,0-1.98-4.4,26.448,26.448,0,0,0-4.25-4.79c-4.52-4.28-5.29-5.29-5.29-6.89,0-2.02,1.32-3.47,8.6-9.66,1.87-1.59,2.03-1.75,2.03-2.49a4.169,4.169,0,0,0-2.11-2.88A6.555,6.555,0,0,0,1006.88,2359.25Z" transform="translate(-403.188 -2358.38)"/>
</svg>
