<svg xmlns="http://www.w3.org/2000/svg" width="217.219" height="31.91" viewBox="0 0 217.219 31.91">
  <defs>
    <style>
      .cls-1 {
        fill: #333;
        fill-rule: evenodd;
      }
    </style>
  </defs>
  <path id="ログキャビン" class="cls-1" d="M634.636,3851.54a0.542,0.542,0,0,0,.576-0.54c0-.4-0.54-1.05-1.584-1.91l1.044-3.96a29.586,29.586,0,0,1,1.224-3.92,6.5,6.5,0,0,0,1.548-1.91c0-.33-0.288-0.61-1.4-1.55-1.476-1.19-1.908-1.48-2.34-1.48a11.424,11.424,0,0,0-2.737,1.23c-4.1.65-5.869,0.86-11.521,1.37a4.342,4.342,0,0,0-3.385-1.77c-1.116,0-2.088.25-2.088,0.54,0,0.15.036,0.18,0.216,0.22a2.8,2.8,0,0,1,2.016,1.69,57.827,57.827,0,0,1,1.44,11.73,8.544,8.544,0,0,1-.072,1.16c-0.036.21-.072,0.39-0.072,0.43a2.857,2.857,0,0,0,2.449,2.12c0.72,0,1.224-.76,1.224-1.87a9.033,9.033,0,0,0-.108-1.12,63.009,63.009,0,0,1,9.433-.86,16.454,16.454,0,0,1,3.637.36Zm-3.961-2.45c-5.112.61-6.193,0.72-9.793,1.01-0.324-4-.5-5.87-0.936-9.36a108.581,108.581,0,0,1,10.981-1.44c0.756,0,1.045.21,1.045,0.79a4.38,4.38,0,0,1-.036.65Zm45.518-21.53q-1.4,0-1.4.33a0.282,0.282,0,0,0,.216.29,5.993,5.993,0,0,1,3.636,3.02,1,1,0,0,0,1.009.58,1.335,1.335,0,0,0,1.476-1.37C681.126,3828.82,678.929,3827.56,676.193,3827.56Zm-4.213,2.34c-0.828,0-1.116.08-1.116,0.33,0,0.14.072,0.18,0.468,0.32a5.574,5.574,0,0,1,2.953,2.88,1.057,1.057,0,0,0,1.08.87,1.414,1.414,0,0,0,1.476-1.44C676.841,3831.31,674.537,3829.9,671.98,3829.9Zm-8.317,8.35a2.1,2.1,0,0,0,1.188.47,17.45,17.45,0,0,0,2.7-.61,8.582,8.582,0,0,1,1.584-.36,0.69,0.69,0,0,1,.684.72,10.575,10.575,0,0,1-1.656,4.07,41.79,41.79,0,0,1-8.137,9.9,32.073,32.073,0,0,1-9.47,5.86c-0.288.11-.4,0.18-0.4,0.33a0.273,0.273,0,0,0,.252.21,17.535,17.535,0,0,0,3.745-.97,35.273,35.273,0,0,0,12.566-8.1c2.556-2.55,3.708-4.28,7.093-10.4,0.432-.43.612-0.58,0.936-0.86a1,1,0,0,0,.432-0.54c0-.72-2.737-3.21-3.493-3.21a2.81,2.81,0,0,0-1.26.58,13.866,13.866,0,0,1-5.581,1.94,1.651,1.651,0,0,1-.612-0.11,14.231,14.231,0,0,0,1.692-3.31,3.5,3.5,0,0,0-1.548-1.8,5.392,5.392,0,0,0-2.988-1.04c-0.756,0-1.44.22-1.44,0.47,0,0.07.072,0.14,0.36,0.21a2.315,2.315,0,0,1,1.08,2.24c0,3.59-4.645,10.72-8.894,13.67a0.612,0.612,0,0,0-.324.4,0.225,0.225,0,0,0,.216.21,11.475,11.475,0,0,0,2.7-1.29C658.3,3844.95,660.783,3842.47,663.663,3838.25Zm32.808,7.42c-4.465,1.04-4.465,1.04-5.473,1.04a3.8,3.8,0,0,1-2.2-.57,0.19,0.19,0,0,0-.108-0.08,0.41,0.41,0,0,0-.252.36c0,1.08,2.88,3.14,4.392,3.14a2.878,2.878,0,0,0,1.3-.51c1.4-.86,2.268-1.22,7.525-3.09,0.54,2.98.756,4.82,1.26,10.04a3.413,3.413,0,0,0,1.008,2.27,3.35,3.35,0,0,0,2.052,1.18,1.524,1.524,0,0,0,1.441-1.65,7.783,7.783,0,0,0-.253-1.62c-1.3-4.54-1.62-5.83-2.844-10.98,5.869-1.12,7.993-1.4,10.154-1.4l1.08,0.03c0.972,0,1.476-.28,1.476-0.79,0-1.04-2.34-2.48-4.033-2.48a3.09,3.09,0,0,0-.468.03c-1.8,1.26-1.836,1.3-8.605,3.21-0.432-1.95-.576-2.7-0.864-4.47,4.9-1.54,5.437-1.69,6.625-1.83,1.116-.11,1.476-0.29,1.476-0.79,0-.8-1.98-1.91-3.348-1.91a2.485,2.485,0,0,0-1.513.68,11.824,11.824,0,0,1-3.564,1.84c-0.072-1.08-.144-2.56-0.144-3.46a8.667,8.667,0,0,1,.252-1.76,2.252,2.252,0,0,0,.108-0.54c0-.61-2.557-1.87-3.817-1.87-0.972,0-2.844.97-2.844,1.47,0,0.15.144,0.18,0.432,0.18,1.8,0.04,2.484,1.41,3.42,6.81a23.313,23.313,0,0,1-6.7,1.22,4.425,4.425,0,0,1-1.368-.18,2.263,2.263,0,0,0-.684-0.25,0.191,0.191,0,0,0-.18.18,3.205,3.205,0,0,0,1.26,1.47,5.321,5.321,0,0,0,2.917,1.01c1.152,0,2.2-.29,5.22-1.47,0.433,2.08.541,2.77,0.757,4.35-1.009.25-1.693,0.43-2.017,0.5Zm44.041-2.12c3.385-1.26,4.789-1.66,5.545-1.66,0.324,0,.54.11,0.54,0.32a14.343,14.343,0,0,1-2.376,4.5,0.811,0.811,0,0,0-.216.4,0.352,0.352,0,0,0,.324.29c0.18,0,.4-0.18,1.728-1.3a34.976,34.976,0,0,1,3.493-2.63c1.656-.57,2.124-0.82,2.124-1.15a2.371,2.371,0,0,0-1.08-1.44c-1.368-1.15-2.124-1.65-2.557-1.65a2.671,2.671,0,0,0-1.188.43c-0.576.29-.936,0.47-1.116,0.54a9.2,9.2,0,0,1-2.052.72c-1.152.36-1.945,0.61-3.565,1.11a24.972,24.972,0,0,1-.576-3.74,1.544,1.544,0,0,1,.036-0.4,3.241,3.241,0,0,0,.072-0.39,1.43,1.43,0,0,0-1.224-.9,17.361,17.361,0,0,0-2.376-.51,1.337,1.337,0,0,0-.936.4,2.527,2.527,0,0,0-.757.83,0.305,0.305,0,0,0,.288.25,2.322,2.322,0,0,0,.288-0.07,0.456,0.456,0,0,1,.253-0.07c0.972,0,1.44.97,2.664,5.32a30.57,30.57,0,0,1-7.093,1.66,1.909,1.909,0,0,1-1.332-.5c-0.144-.26-0.18-0.26-0.252-0.26-0.18,0-.288.18-0.288,0.51,0,1.33,1.836,2.98,3.276,2.98a1.278,1.278,0,0,0,.828-0.39,20.914,20.914,0,0,1,5.329-2.38,104.27,104.27,0,0,1,2.7,12.02,2.005,2.005,0,0,0,.54,1.52,3.2,3.2,0,0,0,1.8,1,1.573,1.573,0,0,0,1.224-1.72,7.935,7.935,0,0,0-.576-2.31C742.457,3850.31,741.52,3847.32,740.512,3843.55Zm30.072,3.02c0,4.35.288,5.83,1.332,7.27,1.44,1.94,3.42,2.55,8.065,2.55a30.424,30.424,0,0,0,7.381-.79c1.08-.32,1.62-0.86,1.62-1.55,0-.93-1.8-1.94-3.816-2.08a14.4,14.4,0,0,1-7.057,1.44c-3.745,0-4.609-.97-4.609-5.11,0-.72,0-1.01.108-2.96a59.4,59.4,0,0,0,10.8-3.92c2.34-1.01,2.808-1.33,2.808-1.83a1.647,1.647,0,0,0-.468-0.98,11.4,11.4,0,0,0-2.232-1.9,6.468,6.468,0,0,0-2.161-.47c-0.324,0-.5.07-0.5,0.25a0.77,0.77,0,0,0,.18.36,1.218,1.218,0,0,1,.288.83,3.382,3.382,0,0,1-1.512,2.34,43.26,43.26,0,0,1-7.165,4.28,61.124,61.124,0,0,1,.648-7.88,5.611,5.611,0,0,0,.18-1.23,1.84,1.84,0,0,0-1.116-1.61,5.882,5.882,0,0,0-2.664-.98c-0.9,0-2.269.47-2.269,0.76a0.235,0.235,0,0,0,.18.18c1.765,0.68,2.089,1.44,2.089,4.79,0,0.75-.036,2.12-0.072,4.06Zm14.366-15.26c-0.972,0-1.512.14-1.512,0.43a0.293,0.293,0,0,0,.252.25,5.556,5.556,0,0,1,3.132,2.41c0.5,0.9.684,1.08,1.224,1.08a1.494,1.494,0,0,0,1.585-1.36C789.631,3832.64,787.4,3831.31,784.95,3831.31Zm4.32-2.67c-0.864,0-1.548.22-1.548,0.47a0.341,0.341,0,0,0,.252.25,5.37,5.37,0,0,1,3.133,2.34c0.576,0.98.756,1.12,1.3,1.12a1.571,1.571,0,0,0,1.584-1.4C793.987,3830.01,791.683,3828.64,789.27,3828.64Zm18.55,5.22c-1.3,0-2.2.18-2.2,0.47,0,0.11.108,0.18,0.4,0.25a10.506,10.506,0,0,1,5.257,4.83c0.5,1.08.828,1.36,1.548,1.36a1.98,1.98,0,0,0,1.98-1.9C814.805,3836.38,811.313,3833.86,807.82,3833.86Zm23.116,0.11a1,1,0,0,0-.541.43,79.084,79.084,0,0,1-12.133,11.66c-3.925,3.1-7.273,4.86-9.218,4.86a2.924,2.924,0,0,1-2.124-.86c-0.18-.36-0.216-0.36-0.324-0.36-0.288,0-.5.68-0.5,1.44,0,0.79.5,1.55,1.872,2.84a4.73,4.73,0,0,0,2.52,1.51,1,1,0,0,0,.5-0.21c0.252-.18.468-0.4,0.684-0.58a4.159,4.159,0,0,1,.684-0.47,53.994,53.994,0,0,0,15.338-13.92c1.512-2.06,3.493-5.51,3.493-6.09A0.313,0.313,0,0,0,830.936,3833.97Z" transform="translate(-613.969 -3827.56)"/>
</svg>
