<svg xmlns="http://www.w3.org/2000/svg" width="258.12" height="36.85" viewBox="0 0 258.12 36.85">
  <defs>
    <style>
      .cls-1 {
        fill: #333;
        fill-rule: evenodd;
      }
    </style>
  </defs>
  <path id="ショップ一覧" class="cls-1" d="M858.658,2117.74c-1.674,0-3.387.35-3.387,0.7,0,0.12.077,0.2,0.35,0.27a9.047,9.047,0,0,1,5.568,4.36c0.623,1.17.857,1.37,1.675,1.37a2.187,2.187,0,0,0,2.336-2.14C865.2,2119.88,862.163,2117.74,858.658,2117.74Zm-4.906,20.21c0,0.04,0,.04-0.039.04-0.312-.04-0.545.43-0.545,1.05a4.061,4.061,0,0,0,1.479,2.8c1.4,1.37,2.493,2.11,3.116,2.11a1.551,1.551,0,0,0,1.051-.59,4.929,4.929,0,0,1,.779-0.5,73.371,73.371,0,0,0,12.617-9.5,48.5,48.5,0,0,0,7.476-9.86c1.168-2.1,1.6-3.03,1.6-3.46a0.3,0.3,0,0,0-.234-0.31c-0.195,0-.311.07-0.7,0.66a65.263,65.263,0,0,1-4.4,5.29,58.94,58.94,0,0,1-10.008,8.73c-4.4,3.07-7.554,4.59-9.579,4.59-1.675,0-2.337-.27-2.57-1.05h-0.039Zm0.2-12.81c-1.286,0-2.454.23-2.454,0.5,0,0.12.039,0.16,0.39,0.32a9.869,9.869,0,0,1,5.1,4.67,1.556,1.556,0,0,0,1.363,1.09,2.258,2.258,0,0,0,2.258-2.1C860.605,2127.36,857.334,2125.14,853.947,2125.14Zm61.728,13.63-2.18.23c-8.8,1.01-8.879,1.01-10.281,1.01a3.578,3.578,0,0,1-1.674-.31,1.078,1.078,0,0,0-.467-0.27,0.292,0.292,0,0,0-.234.35,2.463,2.463,0,0,0,.623,1.52,4.312,4.312,0,0,0,2.22,1.79,2.672,2.672,0,0,0,.778-0.19c0.74-.32,1.48-0.59,2.181-0.82a41.343,41.343,0,0,1,8.839-1.33,11.151,11.151,0,0,1,2.415.28,5.331,5.331,0,0,0,1.324.27,1.022,1.022,0,0,0,1.012-.94A1.769,1.769,0,0,0,919.1,2139c-0.156-.08-0.428-0.27-0.74-0.47,1.6-8.72,1.83-9.54,2.531-10.08a1.322,1.322,0,0,0,.545-0.82c0-.39-0.389-0.82-1.4-1.63-1.324-1.02-1.6-1.13-2.064-1.13a1.383,1.383,0,0,0-.779.23,7.946,7.946,0,0,1-2.882,1.09c-2.453.39-9.774,1.17-11.215,1.17a2.654,2.654,0,0,1-2.336-.9,0.7,0.7,0,0,0-.428-0.35,1.033,1.033,0,0,0-.468.94c0,1.13,2.064,3.19,3.193,3.19a2.87,2.87,0,0,0,.662-0.19,18.114,18.114,0,0,1,3.933-1.02,76.151,76.151,0,0,1,7.944-1.28,0.915,0.915,0,0,1,1.052.93c0,0.51-.2,2.46-0.429,4.17a2.43,2.43,0,0,0-1.246-.55,5,5,0,0,0-1.051.2,16.016,16.016,0,0,1-3,.43c-0.389.04-1.752,0.15-3.777,0.39-2.064.23-2.881,0.31-3.31,0.31a2.6,2.6,0,0,1-2.18-.74,0.643,0.643,0,0,0-.351.58c0,0.98,1.714,2.57,2.726,2.57a2.151,2.151,0,0,0,.623-0.11,17.429,17.429,0,0,1,1.713-.55,67.589,67.589,0,0,1,9-1.25c0.078,0,.35,0,0.778.04ZM951,2124.13c-0.233,0-.428.07-0.428,0.23a0.353,0.353,0,0,0,.272.31c1.519,0.74,3.038,3,3.661,5.53,0.272,1.05.584,1.44,1.246,1.44a2.074,2.074,0,0,0,1.947-2.14C957.7,2126.93,954.234,2124.13,951,2124.13Zm15.265,4.12c0.662-.7.74-0.77,0.74-1.05a6.332,6.332,0,0,0-1.908-2.68,3.942,3.942,0,0,0-2.8-1.29,0.533,0.533,0,0,0-.623.39,0.714,0.714,0,0,0,.389.43,2.566,2.566,0,0,1,.507,1.67c0,3.08-2.1,7.64-5.18,11.33a31.126,31.126,0,0,1-10.708,8.3c-0.974.39-.974,0.39-0.974,0.58a0.38,0.38,0,0,0,.39.31c1.479,0,5.646-1.63,8.021-3.11A31.91,31.91,0,0,0,966.267,2128.25Zm-21.3-.81c-0.389,0-.506.07-0.506,0.23a0.626,0.626,0,0,0,.429.47,10.387,10.387,0,0,1,3.543,5.25,1.06,1.06,0,0,0,1.052.86,2,2,0,0,0,1.791-2.18C951.275,2129.62,948.354,2127.44,944.966,2127.44Zm66.514-3.94c1.45-1.01,1.8-1.32,1.8-1.63a3.065,3.065,0,0,0-1.37-1.37c-2.22-1.55-2.84-1.9-3.31-1.9a2.323,2.323,0,0,0-1.32.54,11.283,11.283,0,0,1-4.63,1.56,93,93,0,0,1-9.973,1.21,3.56,3.56,0,0,1-2.96-1.13,0.56,0.56,0,0,0-.311-0.28,0.461,0.461,0,0,0-.312.55,3.739,3.739,0,0,0,1.324,3.15,5.038,5.038,0,0,0,2.336,1.13,1.189,1.189,0,0,0,.662-0.27,16.4,16.4,0,0,1,4.673-1.63,48.677,48.677,0,0,1,7.711-1.33c0.86,0,1.21.23,1.21,0.86a12.134,12.134,0,0,1-.74,2.96,24.969,24.969,0,0,1-5.38,9.27,28.876,28.876,0,0,1-12.731,8.76,0.361,0.361,0,0,0-.35.31,0.317,0.317,0,0,0,.35.27c2.1,0,7.438-2.02,10.709-4.05C1004.32,2137.09,1007.94,2132.19,1011.48,2123.5Zm3.39-12.15a3.915,3.915,0,1,0,3.86,3.9A3.927,3.927,0,0,0,1014.87,2111.35Zm-0.04,1.48a2.415,2.415,0,1,1-2.41,2.38A2.392,2.392,0,0,1,1014.83,2112.83Zm14.26,17.45c1.56-.04,2.96-0.08,3.47-0.12,1.71-.04,2.88-0.08,3.35-0.08h27.1a0.539,0.539,0,0,0,.66-0.46,1.461,1.461,0,0,0-.74-0.98l-3.62-2.88-3.04,3.19h-20.36s-1.87-.03-3.51-0.07c-0.62-.04-2.25-0.08-4.16-0.12Zm64.5,9.11v5.22c0,1.91.5,2.06,6.31,2.06,7.28,0,9.73-.43,9.73-1.67a1.927,1.927,0,0,0-.97-1.4c-0.82-.55-0.98-0.74-0.98-1.33v-0.35c0.24-2.1.39-3.7,0.39-4.09s-0.15-.62-0.39-0.62c-0.15,0-.19.04-0.58,1.17a20.879,20.879,0,0,1-2.26,4.75c-0.54.58-1.44,0.66-6.35,0.66-1.71,0-1.79-.04-1.79-0.74v-3.66h2.92v0.82c0,0.39.08,0.5,0.51,0.5a8.461,8.461,0,0,0,2.02-.35c0.63-.19.82-0.39,0.82-0.81v-7.44l0.66-.16a0.664,0.664,0,0,0,.47-0.66,1.15,1.15,0,0,0-.39-0.74l-3.07-3.15-1.37,1.98H1083.7l-4.13-1.32v13.01c0,0.31.23,0.46,0.66,0.46,1.36,0,2.61-.43,2.61-0.93v-1.21h3.47c-1.25,3.78-4.76,6.43-10.6,7.91-0.81.23-.93,0.31-0.93,0.54a0.406,0.406,0,0,0,.47.35,34.371,34.371,0,0,0,7.24-1.56,13.1,13.1,0,0,0,7.79-7.24h3.31Zm-10.75-1.05v-2.03h16.78v2.03h-16.78Zm0-3.08v-1.83h16.78v1.83h-16.78Zm0-2.88v-1.95h16.78v1.95h-16.78Zm-4.79-4.67h14.99a0.4,0.4,0,0,0,.31-0.43,0.608,0.608,0,0,0-.19-0.43l-2.88-2.22-1.83,2.03h-4.05v-3.08h2.61v0.82c0,0.27.15,0.39,0.54,0.39a8.626,8.626,0,0,0,1.83-.27,0.611,0.611,0,0,0,.55-0.67v-3.46l0.62-.2a0.351,0.351,0,0,0,.23-0.39,0.7,0.7,0,0,0-.27-0.5l-2.69-2.34-1.28,1.75h-2.18v-2.84h7.94a0.533,0.533,0,0,0,.47-0.58,0.837,0.837,0,0,0-.31-0.63l-3.04-2.33-2.18,2.49h-8.92l-3.5-1.91v16.71c0,0.39.15,0.54,0.62,0.54,1.33,0,2.61-.39,2.61-0.78v-1.67Zm0-1.05v-3.08h3.31v3.08h-3.31Zm0-4.13v-2.77h8.96v2.77h-8.96Zm0-3.82v-2.84h3.31v2.84h-3.31Zm25.12-1.01h-6.93c0.81-1.21,1.01-1.48,1.63-2.57l1.25-.31a0.557,0.557,0,0,0,.43-0.58,0.791,0.791,0,0,0-.43-0.71l-3.74-1.9a31.4,31.4,0,0,1-4.25,10.43,1.682,1.682,0,0,0-.46.82,0.323,0.323,0,0,0,.31.27c0.15,0,.15,0,1.48-1.17a27.117,27.117,0,0,0,3-3.23h12.81a0.64,0.64,0,0,0,.54-0.66,0.732,0.732,0,0,0-.31-0.62l-3-2.34Zm-9.39,7.17c2.38-.08,3.35-0.12,4.48-0.12h7.71a0.554,0.554,0,0,0,.47-0.55,0.988,0.988,0,0,0-.2-0.54l-3.11-2.42-2.18,2.46h-2.69c-1.21,0-2.3-.04-5.22-0.16Z" transform="translate(-851.5 -2111.34)"/>
</svg>
