<svg xmlns="http://www.w3.org/2000/svg" viewBox="0 0 522.9 62.4"><defs><style>.cls-1{fill:#fff;}</style></defs><g id="レイヤー_2" data-name="レイヤー 2"><g id="レイヤー_1-2" data-name="レイヤー 1"><path class="cls-1" d="M44.4,15.6l-5.9-4-1.8,2.5-3.7.2-2.5.2-4.3.4-2.6.2a26.3,26.3,0,0,0,1.2-2.4c.4-1.1.4-1.1.8-1.3s1.5-.8,1.5-1.7-.6-1.4-2.8-2.8-3.8-2.1-5.6-2.1a2,2,0,0,0-2.3,1.7v.4l.4.2c2.6.9,3.1,1.6,3.1,2.5s-2.3,6.8-5,11.1A55.8,55.8,0,0,1,2.2,34.6C.8,35.7,0,36.4,0,37.3a1.4,1.4,0,0,0,1.3,1.3c1.5,0,5.4-3.1,7.6-4.9,5.6-4.6,8.4-7.8,12.5-14.6a1.7,1.7,0,0,0,1,.3h.8a63.3,63.3,0,0,1,12-1.2h1.1A68.3,68.3,0,0,1,3.8,56.4c-3.4,1.9-3.6,2-3.6,3a1.5,1.5,0,0,0,1.4,1.4c1.2,0,6.1-2.6,6.7-2.9a74.2,74.2,0,0,0,19-14.6c5.5-5.9,11.2-15.1,14.9-24.1l1.4-.3c1.2-.1,1.9-.7,1.9-1.6A2,2,0,0,0,44.4,15.6Z"/><path class="cls-1" d="M45,.4H43.8L43,2.1l.4.3a18.1,18.1,0,0,1,6.8,6.1c1.2,1.8,2.1,2.5,3.3,2.5a2.1,2.1,0,0,0,2.1-2.3C55.6,5.2,51.3,1.8,45,.4Z"/><path class="cls-1" d="M40.4,5.4,39.2,5,38,6.8l.6.4a20.1,20.1,0,0,1,6.1,7.2c.8,1.7,1.6,2.7,3.1,2.7a2.5,2.5,0,0,0,2.3-2.7C50.1,10.9,46.2,7.3,40.4,5.4Z"/><path class="cls-1" d="M81,23.9a12.4,12.4,0,0,1,6.3,6.7c.9,2.1,1.4,3,2.7,3a3,3,0,0,0,2.7-3.2c0-1.9-1.1-3.8-3.1-5.5a33.5,33.5,0,0,0-7.1-3.5h-.7c0-.1-.2-.1-.3-.1l-.7-.2L80,23.5l.7.2Z"/><path class="cls-1" d="M109.7,23.8a18.1,18.1,0,0,0-5.6-2,1.3,1.3,0,0,0-1.4,1.3v.4l.8.4c1.5,1,1.6,1.3,1.6,1.9s-3.3,8.9-6.9,14.4c-6,8.6-13.6,14.4-24.6,18.8-1.8.8-2.3.9-2.3,1.9a1.5,1.5,0,0,0,1.4,1.5c1.1,0,7.3-2.3,10.4-3.8a56.8,56.8,0,0,0,18.1-14.1c2.8-3.5,4.4-6.2,8.1-13.7l.6-1.2c.2-.3.2-.3.7-.3a2.4,2.4,0,0,0,1.8-.4,1.5,1.5,0,0,0,.4-1.1C112.7,26.7,111.1,24.8,109.7,23.8Z"/><path class="cls-1" d="M75.1,35.6c.8,2.3,1.4,3.3,3,3.3a3,3,0,0,0,2.7-3.2c0-3.7-3.5-7-9.9-9.6l-1-.3-1.1,1.9.3.2C72.7,30.5,73.9,32,75.1,35.6Z"/><path class="cls-1" d="M181,41a50.3,50.3,0,0,0-13.1-7.7,124.3,124.3,0,0,0,10-14.2h1.6a1.9,1.9,0,0,0,2-1.7,2.6,2.6,0,0,0-1.2-1.9l-5.8-4.1-1.9,2.2c-7.3,1.1-10.1,1.4-11,1.5l-6.3.8c-4.9.6-4.9.6-6.1.6s-3.5-.7-4.8-3.3l-.2-.5-.5.3c-.8.4-1.3.8-1.3,1.8a8.3,8.3,0,0,0,2.4,5.2c.9,1,2.7,2.4,3.6,2.4a2.5,2.5,0,0,0,1.6-.8h.1c.5-1.1,10.7-2.6,22.1-4.2-2.7,6.3-8,13.7-14.9,20.9-5.1,5.4-13,10.8-21,14.5-1,.5-2.2,1.1-2.2,2.1a1.3,1.3,0,0,0,1.2,1.3c1.5,0,8.3-3.2,12.2-5.3a63.3,63.3,0,0,0,18.3-15.1c7.5,4.8,12.3,9.3,15,14.1,1.8,2.9,2.9,3.9,4.2,3.9s2.5-1.4,2.5-3.3S185.3,44.6,181,41Z"/><path class="cls-1" d="M177.3,4.8h-.4l-1.3,1.8.4.3c3.7,2.6,4.3,3.4,6.8,7.6.8,1.4,1.6,2.3,3.1,2.3a2.3,2.3,0,0,0,2.3-2.6C188.2,10.5,184.6,7.4,177.3,4.8Z"/><path class="cls-1" d="M185.1.2,184,0l-1.2,1.7.5.3a20.9,20.9,0,0,1,7.3,6.1c1.2,1.7,2.1,2.6,3.3,2.6A2.3,2.3,0,0,0,196,8.3C196,4.6,192.6,2,185.1.2Z"/><path class="cls-1" d="M225.5,25.6a6.9,6.9,0,1,0,6.8,6.9A6.9,6.9,0,0,0,225.5,25.6Z"/><path class="cls-1" d="M280.6,17.4c1.7,1.8,2.3,2.3,3.5,2.3a2.5,2.5,0,0,0,2.4-2.8c0-4.4-6.5-8.1-14.1-8.1h-2.6V11h.7A18.7,18.7,0,0,1,280.6,17.4Z"/><path class="cls-1" d="M273.3,32.9c.9,1.4,1.5,2,2.7,2a2.7,2.7,0,0,0,2.6-2.7c0-4.5-6.6-8.7-14.7-9.1h-1.3l-.4,1.9.7.3C269.1,27.8,270.3,28.7,273.3,32.9Z"/><path class="cls-1" d="M318.5,18.2a195.9,195.9,0,0,1-21.1,19.2C288,44.6,277.1,51,274.9,51s-3.4-2.2-3.7-3.9v-.9H269v.4a1.5,1.5,0,0,0-.1.6v.7a8.1,8.1,0,0,0,2.4,6.3c2.3,2.4,4.8,4.1,6,4.1s1.3-.5,2.1-1.3a6.3,6.3,0,0,1,2.7-2.1c9.9-6.5,11.3-7.5,17.6-13.2a287.7,287.7,0,0,0,20.5-20.8l.5-.5h0l.3-.3.2-.3L319,17.5Z"/><path class="cls-1" d="M373.7,24.6l-4.4-3.2L367.5,24c-5.1.3-8.6.6-16.5,1.4h-1l-3.2.2a3.6,3.6,0,0,1-3.6-1.8l-.2-.3h-.3c-.5.1-1.6.3-1.6,1.2a6.2,6.2,0,0,0,1.7,3.3c1,.9,3,2.5,3.8,2.5a1.3,1.3,0,0,0,.8-.3h.1c.7-.5,8.4-1.7,20.5-2.7-.2,2.5-.4,5.7-.4,8.9-6.5.3-13.3.9-18.8,1.6h-1.1c-.7,0-1.1-.2-2-1.3l-.6-.7h-.3a1.3,1.3,0,0,0-1.3,1.4c0,1.1.7,2.4,2.2,3.9s2.1,1.6,2.4,1.6l.8-.2c0-.1.1-.1.2-.2h.2l.6-.5h.3l1.3-.3,3.7-.4,2.4-.3c4.6-.6,5.4-.8,9.9-1.1l-.2,8.9v1.2c-7.2.3-16.6,1.1-19.5,1.6h-.2l-1.5.2c-1,0-1.6-.5-2.6-1.8l-.2-.4-.4.2c-.9.5-1.4.8-1.4,1.7s.8,2.3,2.8,3.7,2.4,1.8,3.1,1.8.7-.2,1.6-.9.5-.5,1.6-.6h.6l1.8-.2L366.5,54c1.4,2.6,1.9,3.4,3,3.4s2.5-1.6,2.5-3.6c.1-11,.3-15.3.9-24.3V28.1l.6-.3a1.5,1.5,0,0,0,1.2-1.5A2.2,2.2,0,0,0,373.7,24.6Z"/><path class="cls-1" d="M415.4,23.9a12.4,12.4,0,0,1,6.3,6.7c.9,2.1,1.4,3,2.7,3a3,3,0,0,0,2.7-3.2c0-1.9-1.1-3.8-3.1-5.5a33.5,33.5,0,0,0-7.1-3.5h-.7c0-.1-.2-.1-.3-.1l-.7-.2-.8,2.5.7.2Z"/><path class="cls-1" d="M444.1,23.8a18.1,18.1,0,0,0-5.6-2,1.3,1.3,0,0,0-1.4,1.3v.4l.8.4c1.5,1,1.6,1.3,1.6,1.9s-3.3,8.9-6.9,14.4c-6,8.6-13.6,14.4-24.6,18.8-1.8.8-2.3.9-2.3,1.9a1.5,1.5,0,0,0,1.4,1.5c1.1,0,7.3-2.3,10.4-3.8a56.8,56.8,0,0,0,18.1-14.1c2.8-3.5,4.4-6.2,8.1-13.7l.6-1.2c.2-.3.2-.3.7-.3a2.4,2.4,0,0,0,1.8-.4,1.5,1.5,0,0,0,.4-1.1C447.1,26.7,445.5,24.8,444.1,23.8Z"/><path class="cls-1" d="M409.5,35.6c.8,2.3,1.4,3.3,3,3.3a3,3,0,0,0,2.7-3.2c0-3.7-3.5-7-9.9-9.6l-1-.3-1.1,1.9.3.2C407.1,30.5,408.3,32,409.5,35.6Z"/><path class="cls-1" d="M510.7,15.4l-5.3-4.1-1.9,2.1-8.8.3-4.3.2-6.3.5-8.7.7-4.4.4c-2.1,0-3.1-.5-4.8-2.3L466,13l-1.5.3v.3c-.3.9-.3.9-.3,1.2a5.3,5.3,0,0,0,.7,2,6.4,6.4,0,0,0,2.7,2.7,7.7,7.7,0,0,1,2.2,1.7h.2a2.6,2.6,0,0,0,1.5.6c.8,0,1.1-.1,2.1-1.1s2.5-1.4,8.5-2a152.2,152.2,0,0,1,17.1-1.2h3.9c-1.1,6.4-5.4,15.5-10,21.1S480.4,50.6,471,54.4c-1.3.6-2.6,1.3-2.6,2.5a1.6,1.6,0,0,0,1.6,1.5c2.9,0,13.5-5.8,19.7-10.2,9.9-7.1,15.9-16.5,18.9-29.3H510c1.4,0,2-.8,2-1.5A3.1,3.1,0,0,0,510.7,15.4Z"/><path class="cls-1" d="M515.2.2a7.8,7.8,0,0,0-8,7.8,7.9,7.9,0,1,0,8-7.8Zm-.1,12.5A4.7,4.7,0,0,1,510.4,8a4.6,4.6,0,0,1,4.5-4.6,4.7,4.7,0,1,1,.2,9.3Z"/></g></g></svg>