<svg xmlns="http://www.w3.org/2000/svg" viewBox="0 0 398 44.6"><defs><style>.cls-1{fill:#fff;}</style></defs><g id="レイヤー_2" data-name="レイヤー 2"><g id="レイヤー_1-2" data-name="レイヤー 1"><path class="cls-1" d="M32.1.3h-.9l-.7,1.6.4.3a12.4,12.4,0,0,1,4.8,4.3c.7,1.1,1.4,1.8,2.4,1.8a1.7,1.7,0,0,0,1.7-1.8C39.8,3.8,36.7,1.3,32.1.3Z"/><path class="cls-1" d="M28.9,3.9l-1-.4L27,5l.5.4a15.2,15.2,0,0,1,4.3,5c.6,1.3,1.1,2,2.3,2a1.9,1.9,0,0,0,1.8-2C35.9,7.8,33.1,5.2,28.9,3.9Z"/><path class="cls-1" d="M31.8,11.1,27.5,8.2l-1.3,1.9H21.8l-3,.3H17.2l.7-1.5c.3-.7.3-.7.5-.8a1.4,1.4,0,0,0,1.1-1.3c0-.8-.4-1.2-2-2.2s-2.7-1.5-4-1.5a1.5,1.5,0,0,0-1.8,1.4v.4H12c1.9.7,2,1.2,2,1.7s-1.3,4.4-3.4,7.8a40.1,40.1,0,0,1-9,9.8C.5,25.4,0,26,0,26.6a1.1,1.1,0,0,0,1.1,1.1c1.1,0,3.9-2.2,5.4-3.5a34.4,34.4,0,0,0,8.9-10.3l.7.2h.5a45.4,45.4,0,0,1,8.5-.8h.6A48.5,48.5,0,0,1,2.8,40.1C.3,41.5.2,41.6.2,42.3a1.2,1.2,0,0,0,1.1,1.2c.8,0,4.1-1.7,4.8-2.1A54.6,54.6,0,0,0,19.7,31,62,62,0,0,0,30.2,13.9l1-.2a1.3,1.3,0,0,0,1.4-1.3A1.7,1.7,0,0,0,31.8,11.1Z"/><path class="cls-1" d="M57.7,25.5c.6,1.7,1.1,2.4,2.3,2.4a2.2,2.2,0,0,0,2-2.4c0-2.7-2.5-5.1-7.1-6.9l-.8-.3-1,1.6.4.2A9.5,9.5,0,0,1,57.7,25.5Z"/><path class="cls-1" d="M62,17.2A8.7,8.7,0,0,1,66.3,22c.7,1.5,1.1,2.2,2.1,2.2a2.3,2.3,0,0,0,2.1-2.4,5.5,5.5,0,0,0-2.3-4.1,26.9,26.9,0,0,0-5.1-2.5h-.7l-.6-.2-.7,2,.5.2Z"/><path class="cls-1" d="M82.5,17a12.1,12.1,0,0,0-4.1-1.5,1.1,1.1,0,0,0-1.1,1v.4l.7.4c1,.7,1,.8,1,1.2S76.6,24.8,74,28.6c-4.2,6.1-9.6,10.3-17.4,13.3-1.3.6-1.7.7-1.7,1.5a1.2,1.2,0,0,0,1.2,1.2,38.5,38.5,0,0,0,7.4-2.7,39.7,39.7,0,0,0,12.9-10c2-2.6,3.1-4.5,5.8-9.8l.4-.8H83a1.7,1.7,0,0,0,1.3-.3,1.1,1.1,0,0,0,.4-.9C84.7,19.1,83.6,17.7,82.5,17Z"/><path class="cls-1" d="M132.6,3.4h-.3l-1.1,1.5.4.3c2.6,1.8,3,2.4,4.8,5.4.6,1,1.2,1.7,2.3,1.7a1.8,1.8,0,0,0,1.8-2C140.5,7.5,137.9,5.3,132.6,3.4Z"/><path class="cls-1" d="M138.2.2l-.9-.2-1,1.4.5.3A14.5,14.5,0,0,1,141.9,6c.9,1.2,1.6,1.9,2.5,1.9A1.7,1.7,0,0,0,146,6.1C146,3.3,143.6,1.5,138.2.2Z"/><path class="cls-1" d="M135.3,29.2a37.2,37.2,0,0,0-9.1-5.5,80.3,80.3,0,0,0,6.9-9.8h1.1a1.4,1.4,0,0,0,1.5-1.3,1.9,1.9,0,0,0-.9-1.5l-4.2-3-1.4,1.6-7.8,1.1-4.5.5-4.2.5c-1.8,0-2.5-.5-3.3-2.3l-.2-.5-.5.3a1.4,1.4,0,0,0-1,1.4,6.2,6.2,0,0,0,1.7,3.8c.5.6,1.9,1.8,2.7,1.8a2.2,2.2,0,0,0,1.2-.6v-.2c.5-.7,7.5-1.7,15.4-2.8-2,4.4-5.7,9.5-10.5,14.5a49.9,49.9,0,0,1-14.9,10.3c-.8.4-1.7.9-1.7,1.6a1.1,1.1,0,0,0,1.1,1.1c1.1,0,6-2.3,8.7-3.8a48.1,48.1,0,0,0,13-10.6c5.2,3.3,8.6,6.5,10.5,9.8s1.9,2.9,3,2.9a2.3,2.3,0,0,0,2-2.5C140,34,138.4,31.7,135.3,29.2Z"/><path class="cls-1" d="M170.1,18.2a5,5,0,0,0-5.1,5,5,5,0,0,0,5,5.1,5.1,5.1,0,0,0,.1-10.1Z"/><path class="cls-1" d="M206.1,23.6c.7,1,1.1,1.5,2,1.5a2,2,0,0,0,2-2c0-3.4-4.6-6.3-10.6-6.7h-1l-.3,1.6.6.3C203.1,20,204,20.7,206.1,23.6Z"/><path class="cls-1" d="M211.3,12.6c1.2,1.3,1.7,1.7,2.6,1.7a1.9,1.9,0,0,0,1.8-2.1c0-3.2-4.7-5.9-10.2-5.9h-1.9V8.1h.6A13.1,13.1,0,0,1,211.3,12.6Z"/><path class="cls-1" d="M238.2,13a153,153,0,0,1-15,13.6c-6.6,5.1-14.3,9.7-15.8,9.7s-2.4-1.6-2.6-2.7v-.8H203v1.4a5.9,5.9,0,0,0,1.7,4.5c1.4,1.5,3.3,3,4.4,3s1-.4,1.6-1a4.6,4.6,0,0,1,1.9-1.4c7-4.6,8-5.3,12.5-9.4a184.3,184.3,0,0,0,14.5-14.8l.3-.3.2-.2v-.2l.3-.4-1.7-1.6Z"/><path class="cls-1" d="M280.9,17.5l-3.3-2.3-1.3,1.9c-3.6.2-6.1.4-11.7,1h-.7l-2.2.2a2.7,2.7,0,0,1-2.5-1.3v-.2h-.3c-.4.1-1.3.3-1.3,1.1a4.1,4.1,0,0,0,1.3,2.4c.3.4,2,1.8,2.7,1.8l.7-.2h.1c.5-.3,5.9-1.2,14.2-1.9-.1,1.8-.2,3.9-.2,6.1-4.6.2-9.4.6-13.2,1.1h-.8c-.4,0-.7-.1-1.3-.9l-.5-.6h-.3a.9.9,0,0,0-1,1,4.3,4.3,0,0,0,1.6,2.9c1,1.1,1.5,1.2,1.8,1.2l.6-.2h.3l.4-.3h.2l.9-.2,2.6-.3,1.8-.3c3.1-.4,3.8-.5,6.8-.7v6.9a136.8,136.8,0,0,0-13.7,1.1h-.2c-1.2.2-1.7.4-2.7-1.1l-.3-.3-.4.2c-.7.3-1,.6-1,1.3s.8,1.9,2,2.8,1.8,1.3,2.3,1.3.5-.2,1.2-.7a1.5,1.5,0,0,1,1-.4h1.8l9.5-1c.9,1.7,1.3,2.4,2.2,2.4s1.9-1.2,1.9-2.7c.1-7.8.2-10.9.6-17.3v-.9h.4a1.3,1.3,0,0,0,.9-1.2A1.7,1.7,0,0,0,280.9,17.5Z"/><path class="cls-1" d="M313.6,17.2A8.9,8.9,0,0,1,318,22c.6,1.5,1,2.2,2.1,2.2a2.2,2.2,0,0,0,2-2.4,5.5,5.5,0,0,0-2.3-4.1,25.9,25.9,0,0,0-5-2.5H314l-.6-.2-.7,2,.6.2Z"/><path class="cls-1" d="M334.1,17a11.6,11.6,0,0,0-4-1.5,1.2,1.2,0,0,0-1.2,1v.4l.7.4c1,.7,1,.8,1,1.2s-2.3,6.3-4.8,10.1a35.7,35.7,0,0,1-17.4,13.3c-1.3.6-1.7.7-1.7,1.5a1.1,1.1,0,0,0,1.1,1.2c.9,0,5.4-1.7,7.4-2.7a38.6,38.6,0,0,0,12.9-10,49,49,0,0,0,5.8-9.8l.4-.8h.4a2,2,0,0,0,1.4-.3,1.4,1.4,0,0,0,.3-.9C336.3,19.1,335.2,17.7,334.1,17Z"/><path class="cls-1" d="M309.3,25.5c.6,1.7,1.1,2.4,2.3,2.4a2.3,2.3,0,0,0,2.1-2.4c0-2.7-2.5-5.1-7.2-6.9l-.8-.3-.9,1.6.3.2C307.6,21.9,308.5,23,309.3,25.5Z"/><path class="cls-1" d="M389.3,11l-3.9-3L384,9.6h-6.2l-3,.2-4.4.3-6.3.5a15.1,15.1,0,0,1-3.1.3,3.6,3.6,0,0,1-3.3-1.6l-.2-.2-1.2.2v.4a2.3,2.3,0,0,0-.2.9,3.9,3.9,0,0,0,.5,1.4,4.8,4.8,0,0,0,2,2l1.6,1.2h.1a1.8,1.8,0,0,0,1.2.5c.5,0,.8-.2,1.5-.8s1.8-1,6-1.5a114.9,114.9,0,0,1,12.1-.8h2.6a37.3,37.3,0,0,1-7,14.8c-3.4,4.4-9,8.4-15.7,11.1-.9.4-1.9.9-1.9,1.9a1.3,1.3,0,0,0,1.2,1.2c2.1,0,9.8-4.1,14.2-7.3,7-5,11.3-11.7,13.5-20.8h.8c1.1,0,1.5-.7,1.5-1.2A2.1,2.1,0,0,0,389.3,11Z"/><path class="cls-1" d="M392.4.2a5.6,5.6,0,0,0-5.8,5.6,5.7,5.7,0,0,0,5.7,5.8A5.7,5.7,0,0,0,398,5.8,5.7,5.7,0,0,0,392.4.2ZM392.3,9a3.1,3.1,0,0,1-3.1-3.2,3.1,3.1,0,0,1,3-3.1,3.2,3.2,0,1,1,.1,6.3Z"/></g></g></svg>