<svg xmlns="http://www.w3.org/2000/svg" width="1897.256" height="254.64" viewBox="0 0 948.628 127.32">
  <defs>
    <style>
      .cls-1 {
        fill: #333;
        fill-rule: evenodd;
      }
    </style>
  </defs>
  <path id="プレイステーションの_カーレースゲーム_グランツーリスモ_の_世界観を楽しみながら食事ができるレストランです" data-name="プレイステーションの カーレースゲーム「グランツーリスモ」の 世界観を楽しみながら食事ができるレストランです" class="cls-1" d="M870.237,1199.79a2.175,2.175,0,1,1,0,4.35A2.175,2.175,0,0,1,870.237,1199.79Zm-23.245,25.95a29.091,29.091,0,0,0,9.319-4c4.534-2.95,7.125-6.19,10.9-13.71,0,0,.612-0.36.792-0.43a0.667,0.667,0,0,0,.539-0.54,1.269,1.269,0,0,0-.755-0.9,9.789,9.789,0,0,1-.792-0.65c-1.511-1.22-1.8-1.4-2.3-1.4a1.793,1.793,0,0,0-1.079.5,6.51,6.51,0,0,1-2.987.86c-3.023.44-7.844,0.94-9.14,0.94s-2.554-.54-2.734-1.19c-0.108-.29-0.144-0.32-0.252-0.32-0.216,0-.324.32-0.324,0.97a2.527,2.527,0,0,0,.792,1.84,4.307,4.307,0,0,0,1.979,1.04,3.311,3.311,0,0,0,.575-0.14,43.743,43.743,0,0,1,11.515-2.06,0.893,0.893,0,0,1,1.043.87,13.842,13.842,0,0,1-1.511,4.17,29.339,29.339,0,0,1-6.945,8.46,36.667,36.667,0,0,1-9.355,5.15c-0.4.14-.5,0.22-0.5,0.36a0.505,0.505,0,0,0,.5.32,2.011,2.011,0,0,0,.288-0.07Zm23.281-27.1a3.31,3.31,0,1,0,3.274,3.31A3.321,3.321,0,0,0,870.273,1198.64Zm22.206,20.08a4.077,4.077,0,0,1-.432,1.87,1.245,1.245,0,0,0-.143.54,2.644,2.644,0,0,0,1.007,1.33,6.419,6.419,0,0,0,1.475.98,1.065,1.065,0,0,0,.648-0.47,7.507,7.507,0,0,1,2.3-1.62,35.636,35.636,0,0,0,7.808-5.08,40.178,40.178,0,0,0,7.737-8.31,12.551,12.551,0,0,0,1.331-2.45,0.451,0.451,0,0,0-.288-0.4c-0.144,0-.18.04-0.5,0.51-4.426,6.05-14.609,13.82-18.135,13.82-0.684,0-.792-0.4-0.792-2.59,0-1.69.144-3.78,0.4-6.59a7.164,7.164,0,0,1,.684-2.63,1.01,1.01,0,0,0,.216-0.46,0.989,0.989,0,0,0-.54-0.58,5.577,5.577,0,0,1-.648-0.5,5.3,5.3,0,0,0-2.842-1.34,3,3,0,0,0-1.8.47,0.39,0.39,0,0,0,.288.22,2.83,2.83,0,0,1,2.195,2.81c0,0.14,0,.61.036,1.29v9.18Zm49.158-8.39a51.715,51.715,0,0,0,4.786-5.07,2.537,2.537,0,0,1,1.223-1.05,0.511,0.511,0,0,0,.432-0.5c0-.94-2.591-2.81-3.886-2.81a1.66,1.66,0,0,0-1.4.47c0,0.14.072,0.22,0.36,0.29a1.664,1.664,0,0,1,1.151,1.08c0,3.06-10.687,13.93-16.12,16.41a0.515,0.515,0,0,0-.36.29,0.361,0.361,0,0,0,.36.29,16.3,16.3,0,0,0,3.814-1.62,43.661,43.661,0,0,0,9-7.13,3.839,3.839,0,0,1,.395,2.05,106.183,106.183,0,0,1-.827,11.95,3.211,3.211,0,0,0-.108.69c0,0.79,1.223,1.69,2.267,1.69,0.5,0,.827-0.54.827-1.44,0-.22,0-0.65-0.036-1.12l-0.036-2.37-0.036-3.96-0.036-3.53a7.1,7.1,0,0,1,.288-2.73,2.1,2.1,0,0,0,.144-0.54c0-.29,0-0.29-1.763-1.12Zm43.077,3.39a46.781,46.781,0,0,0,4.642-7.6c0.4-.29.576-0.39,0.756-0.54a0.606,0.606,0,0,0,.395-0.43c0-.25-0.179-0.43-1.115-1.15-1.223-.97-1.727-1.26-2.051-1.26a0.8,0.8,0,0,0-.54.21,7.309,7.309,0,0,1-2.771,1.16,54.5,54.5,0,0,1-6.692,1.04c-1.224,0-2.267-.4-2.483-0.9a0.224,0.224,0,0,0-.18-0.18c-0.216,0-.324.29-0.324,0.94a1.679,1.679,0,0,0,.9,1.65,6.142,6.142,0,0,1,.5.4,1.608,1.608,0,0,0,.936.43,2.843,2.843,0,0,0,.792-0.22,36.667,36.667,0,0,1,8.24-2.23,0.548,0.548,0,0,1,.611.51,10.332,10.332,0,0,1-1.259,3.16,31.546,31.546,0,0,1-15.545,15.34c-0.575.21-.647,0.25-0.647,0.43a0.516,0.516,0,0,0,.5.4,19.109,19.109,0,0,0,4.57-1.8,28,28,0,0,0,10.327-8.75,13.865,13.865,0,0,1,7.2,7.74c0.432,1.19.864,1.62,1.583,1.62a1.646,1.646,0,0,0,1.512-1.8c0-1.51-1.08-3.17-3.095-4.79A16.251,16.251,0,0,0,984.714,1213.72Zm32.536-10.84a0.169,0.169,0,0,0-.15.18,4.766,4.766,0,0,0,.65,1.33,2.479,2.479,0,0,0,2.27,1.3,27.859,27.859,0,0,0,5.18-.86c0.79-.18,1.37-0.33,1.58-0.36,0.62-.11,1.26-0.22,1.87-0.36,2.06-.44,2.06-0.44,2.06-0.9a0.893,0.893,0,0,0-.54-0.72,9.272,9.272,0,0,0-2.24-.8,2.451,2.451,0,0,0-1,.36,21.021,21.021,0,0,1-7.52,1.7,2.1,2.1,0,0,1-1.95-.69A0.248,0.248,0,0,0,1017.25,1202.88Zm0.36,7.09c-2.59.22-2.59,0.22-2.84,0.22a3.467,3.467,0,0,1-2.16-.86,0.515,0.515,0,0,0-.36-0.26,0.22,0.22,0,0,0-.18.26,2.315,2.315,0,0,0,.54,1.51,3.686,3.686,0,0,0,2.59,1.47,4.467,4.467,0,0,0,1.36-.28,41.823,41.823,0,0,1,7.81-1.62,1.519,1.519,0,0,1,.43,1.22,14.84,14.84,0,0,1-1.76,5.54,21.1,21.1,0,0,1-6.37,7.53,18.485,18.485,0,0,1-2.95,1.69c-0.21.07-.25,0.14-0.25,0.25a0.277,0.277,0,0,0,.29.25,20.757,20.757,0,0,0,4.03-1.55,21.054,21.054,0,0,0,9.61-12.31c0.68-.79.71-0.82,0.71-1,0-.33-0.71-0.9-2.23-1.77,1.77-.14,4.03-0.29,4.68-0.29a39.57,39.57,0,0,1,4.43.4,5.623,5.623,0,0,0,.9.11,1.02,1.02,0,0,0,.97-0.97c0-.62-2.38-1.98-3.42-1.98a0.827,0.827,0,0,0-.58.21c-1.43.72-3.49,1.05-12.66,1.95Zm54.81,4.79c1.15,0,4.46.07,5.1,0.11,0.62,0.04,1.05.04,1.26,0.04,1.12,0,1.8-.33,1.8-0.83a2.231,2.231,0,0,0-.9-1.3,2.339,2.339,0,0,0-1.8-.75,9.2,9.2,0,0,0-.97.07,161.907,161.907,0,0,1-19.93,1.44c-2.02,0-2.81-.33-3.31-1.37a0.334,0.334,0,0,0-.29-0.25,0.321,0.321,0,0,0-.25.39,9.1,9.1,0,0,0,.25,1.95,4.136,4.136,0,0,0,3.02,1.87,7.332,7.332,0,0,0,1.59-.25A94.1,94.1,0,0,1,1072.42,1214.76Zm28.68-11.77c-1.01,0-1.66.18-1.66,0.47,0,0.11.11,0.18,0.36,0.18a7.627,7.627,0,0,1,5.08,3.89,1.137,1.137,0,0,0,1.18.93,1.563,1.563,0,0,0,1.48-1.62c0-1.11-.58-1.94-1.94-2.73A10.113,10.113,0,0,0,1101.1,1202.99Zm0.57,21.6c0.08-.07.62-0.4,1.73-1.01a50.823,50.823,0,0,0,14.86-12.67c1.66-2.2,3.39-5.11,3.39-5.8a0.33,0.33,0,0,0-.26-0.36,1.062,1.062,0,0,0-.54.54,33.792,33.792,0,0,1-3.7,4.61,69.433,69.433,0,0,1-10.62,9.11c-2.66,1.73-4.75,2.66-5.9,2.66a2.586,2.586,0,0,1-2.48-1.33,0.707,0.707,0,0,0-.43-0.43c-0.26,0-.33.18-0.33,0.72a3.331,3.331,0,0,0,.51,1.87c0.82,1.3,2.26,2.41,3.13,2.41A0.8,0.8,0,0,0,1101.67,1224.59Zm-4.31-15.23a1.45,1.45,0,0,0-1.23.36,0.4,0.4,0,0,0,.29.22,7.909,7.909,0,0,1,4.36,3.85,1.219,1.219,0,0,0,1.18.83,1.456,1.456,0,0,0,1.37-1.41c0-1.04-.58-1.83-1.91-2.7A8.229,8.229,0,0,0,1097.36,1209.36Zm57.72,8.17c-1.08-.79-1.08-0.79-1.33-0.79a1.284,1.284,0,0,0-.43.11,7.874,7.874,0,0,1-2.49.5c-1.9.18-7.01,0.58-7.66,0.58a2.036,2.036,0,0,1-1.44-.43,0.594,0.594,0,0,0-.36-0.18,0.223,0.223,0,0,0-.18.18,2.2,2.2,0,0,0,.07.28,2.768,2.768,0,0,1,.15.36,2.532,2.532,0,0,0,1.87,1.52,5.064,5.064,0,0,0,1.11-.22,59.256,59.256,0,0,1,9.29-1.19,9.98,9.98,0,0,1,1.29.07l-0.54,4.58c-1.51.18-3.38,0.36-7.34,0.68-1.47.11-2.48,0.18-2.88,0.25a7.653,7.653,0,0,1-.9.04,6.637,6.637,0,0,1-2.08-.43,0.913,0.913,0,0,0-.33-0.11,0.226,0.226,0,0,0-.21.21c0,0.8,1.83,2.52,2.66,2.52a2.487,2.487,0,0,0,.68-0.1,18.616,18.616,0,0,1,3.74-.98,50.925,50.925,0,0,1,5.91-.64,15.332,15.332,0,0,1,3.49.46,2.973,2.973,0,0,0,.5.08,0.473,0.473,0,0,0,.4-0.54c0-.62-0.4-0.94-1.91-1.52,1.44-7.95,1.69-8.85,2.62-9.61,0.47-.36.51-0.39,0.51-0.57,0-.58-2.38-2.49-3.06-2.49a2.5,2.5,0,0,0-1.15.47,3.532,3.532,0,0,1-1.12.51c-2.23.32-3.78,0.5-5.47,0.68-1.18.11-2.37,0.22-3.49,0.32a11.147,11.147,0,0,1-1.36.11c-1.8,0-2.92-.36-3.1-1.01-0.07-.21-0.11-0.25-0.21-0.25a0.538,0.538,0,0,0-.36.61,2.764,2.764,0,0,0,.64,1.59,3.623,3.623,0,0,0,1.98,1.11,2.2,2.2,0,0,0,.61-0.1,54.448,54.448,0,0,1,8.64-1.55c0.9-.11,1.48-0.18,1.73-0.22,0.29-.03.54-0.07,0.72-0.07a1.235,1.235,0,0,1,1.26.97c0,0.07-.04.43-0.11,1.01Zm31.38,5.44a50.546,50.546,0,0,0,8.21-5.65,54.2,54.2,0,0,0,7.41-7.45c1.69-2.09,3.24-4.47,3.24-5.01a0.288,0.288,0,0,0-.26-0.32,0.806,0.806,0,0,0-.61.54c-0.32.43-2.26,2.63-2.88,3.27a68.313,68.313,0,0,1-6.47,5.73c-5.04,4.03-9.18,6.58-10.62,6.58a2.422,2.422,0,0,1-2.05-1.72,0.3,0.3,0,0,0-.25-0.26c-0.25,0-.43.51-0.43,1.19a2.574,2.574,0,0,0,.86,2.16,5.193,5.193,0,0,0,2.48,1.8A2.493,2.493,0,0,0,1186.46,1222.97Zm-3.53-18.72c-1,0-1.61.14-1.61,0.4a0.352,0.352,0,0,0,.32.25,7.421,7.421,0,0,1,5.29,4.25,1.111,1.111,0,0,0,1.04.79,1.454,1.454,0,0,0,1.59-1.48C1189.56,1206.37,1186.25,1204.25,1182.93,1204.25Zm49.85,0.11s0.03,0.07.1,0.25a6.857,6.857,0,0,1,.44,2.3,21.783,21.783,0,0,1-2.45,8.18c-1.66,3.2-4.46,6.01-5.97,6.01-1.3,0-2.27-1.91-2.27-4.5A12.3,12.3,0,0,1,1232.78,1204.36Zm1.65-.15a2.5,2.5,0,0,1,.36-0.03h0.33a9.205,9.205,0,0,1,5.39,1.8c1.95,1.51,2.95,3.85,2.95,7.02a12.513,12.513,0,0,1-3.95,9.64,15.939,15.939,0,0,1-6.55,3.42c-0.47.11-.58,0.18-0.58,0.26a0.4,0.4,0,0,0,.43.32,20.914,20.914,0,0,0,4.75-1.15c5.47-1.98,8.71-6.41,8.71-11.88,0-6.19-4.75-10.48-11.59-10.48-7.77,0-14.1,6.02-14.1,13.36a7.815,7.815,0,0,0,1.8,5.43,3.136,3.136,0,0,0,2.41,1.34c1.76,0,3.63-1.3,5.65-3.86a19.032,19.032,0,0,0,4.21-10.97,33.193,33.193,0,0,0-.51-4.22h0.29Zm-563.347,51.86c0.108-.44.36-1.34,0.72-2.7a7.921,7.921,0,0,1,.5-1.77,0.622,0.622,0,0,0,.179-0.43c0-.32-0.143-0.47-1.295-1.33a4.229,4.229,0,0,0-2.411-1.05c-0.54,0-.827.15-0.827,0.36a0.443,0.443,0,0,0,.108.26,2.48,2.48,0,0,1,1.223,2.26,33.931,33.931,0,0,1-.576,4.79,52.332,52.332,0,0,1-6.513.69,1.961,1.961,0,0,1-2.015-.98,0.3,0.3,0,0,0-.216-0.21,0.318,0.318,0,0,0-.288.39,2.76,2.76,0,0,0,.684,1.84,4.779,4.779,0,0,0,2.3,1.15,3.345,3.345,0,0,0,1.331-.36c1.4-.5,2.807-0.9,4.426-1.33a22.8,22.8,0,0,1-12.018,15.37c-0.36.11-.5,0.22-0.5,0.36a0.577,0.577,0,0,0,.468.43,11.3,11.3,0,0,0,2.375-.93,20.03,20.03,0,0,0,7.592-5.98,28.61,28.61,0,0,0,4.534-9.75,31.478,31.478,0,0,1,5.865-.87c0.54,0,.756.36,0.756,1.23a28.45,28.45,0,0,1-1.223,7.05c-1.008,3.06-1.907,4.32-3.131,4.32-0.468,0-.54-0.04-2.123-1.08a1.472,1.472,0,0,1-.288-0.22l-0.288-.18a0.828,0.828,0,0,0-.179-0.07,0.491,0.491,0,0,0-.324.33,0.892,0.892,0,0,0,.359.36,5.335,5.335,0,0,1,1.728,3.63,1.1,1.1,0,0,1-.036.36v0.25a0.325,0.325,0,0,0,.4.26c1.583,0,3.166-1.19,4.353-3.24,1.152-2.06,1.872-4.4,2.987-9.9,0.432-1.98.432-1.98,0.972-2.31a0.544,0.544,0,0,0,.359-0.43c0-.36,0-0.36-1.367-1.55a2.821,2.821,0,0,0-1.583-1,0.837,0.837,0,0,0-.684.32c-1.079.79-1.115,0.79-5.505,1.51Zm46.5,6.69c1.152,0,4.462.07,5.11,0.11,0.612,0.04,1.043.04,1.259,0.04,1.116,0,1.8-.33,1.8-0.83a2.241,2.241,0,0,0-.9-1.3,2.338,2.338,0,0,0-1.8-.75,9.093,9.093,0,0,0-.972.07,162,162,0,0,1-19.934,1.44c-2.015,0-2.807-.33-3.311-1.37a0.326,0.326,0,0,0-.288-0.25,0.319,0.319,0,0,0-.251.39,9.22,9.22,0,0,0,.251,1.95,4.13,4.13,0,0,0,3.023,1.87,7.268,7.268,0,0,0,1.583-.25A94.259,94.259,0,0,1,717.578,1262.76Zm28.792,3.96a4.077,4.077,0,0,1-.432,1.87,1.235,1.235,0,0,0-.144.54,2.648,2.648,0,0,0,1.008,1.33,6.419,6.419,0,0,0,1.475.98,1.065,1.065,0,0,0,.648-0.47,7.5,7.5,0,0,1,2.3-1.62,35.66,35.66,0,0,0,7.808-5.08,40.172,40.172,0,0,0,7.736-8.31,12.52,12.52,0,0,0,1.332-2.45,0.451,0.451,0,0,0-.288-0.4c-0.144,0-.18.04-0.5,0.51-4.426,6.05-14.609,13.82-18.135,13.82-0.684,0-.792-0.4-0.792-2.59,0-1.69.144-3.78,0.4-6.59a7.164,7.164,0,0,1,.684-2.63,1.012,1.012,0,0,0,.215-0.46,0.986,0.986,0,0,0-.539-0.58,5.577,5.577,0,0,1-.648-0.5,5.3,5.3,0,0,0-2.843-1.34,3,3,0,0,0-1.8.47,0.39,0.39,0,0,0,.288.22,2.831,2.831,0,0,1,2.195,2.81c0,0.14,0,.61.036,1.29v9.18Zm54.7-3.96c1.152,0,4.462.07,5.11,0.11,0.612,0.04,1.044.04,1.259,0.04,1.116,0,1.8-.33,1.8-0.83a2.241,2.241,0,0,0-.9-1.3,2.338,2.338,0,0,0-1.8-.75,9.093,9.093,0,0,0-.972.07,162,162,0,0,1-19.934,1.44c-2.015,0-2.807-.33-3.311-1.37a0.326,0.326,0,0,0-.288-0.25,0.319,0.319,0,0,0-.251.39,9.22,9.22,0,0,0,.251,1.95,4.13,4.13,0,0,0,3.023,1.87,7.268,7.268,0,0,0,1.583-.25A94.259,94.259,0,0,1,801.069,1262.76Zm37.536-1.04a46.923,46.923,0,0,0,4.642-7.6c0.4-.29.575-0.39,0.755-0.54a0.606,0.606,0,0,0,.4-0.43c0-.25-0.18-0.43-1.115-1.15-1.224-.97-1.727-1.26-2.051-1.26a0.8,0.8,0,0,0-.54.21,7.316,7.316,0,0,1-2.771,1.16,54.5,54.5,0,0,1-6.693,1.04c-1.223,0-2.267-.4-2.482-0.9a0.224,0.224,0,0,0-.18-0.18c-0.216,0-.324.29-0.324,0.94a1.679,1.679,0,0,0,.9,1.65,6.164,6.164,0,0,1,.5.4,1.608,1.608,0,0,0,.936.43,2.832,2.832,0,0,0,.791-0.22,36.694,36.694,0,0,1,8.24-2.23,0.549,0.549,0,0,1,.612.51,10.362,10.362,0,0,1-1.259,3.16,31.546,31.546,0,0,1-15.545,15.34c-0.576.21-.648,0.25-0.648,0.43a0.516,0.516,0,0,0,.5.4,19.109,19.109,0,0,0,4.57-1.8,28,28,0,0,0,10.327-8.75,13.869,13.869,0,0,1,7.2,7.74c0.432,1.19.863,1.62,1.583,1.62a1.645,1.645,0,0,0,1.511-1.8c0-1.51-1.079-3.17-3.094-4.79A16.251,16.251,0,0,0,838.605,1261.72Zm50.633-14.18a1.153,1.153,0,0,0-1.007.25,0.58,0.58,0,0,0,.468.25,6.685,6.685,0,0,1,3.2,2.84,0.885,0.885,0,0,0,.9.61,1.243,1.243,0,0,0,1.187-1.18C893.988,1248.94,891.577,1247.54,889.238,1247.54Zm-4.678,2.15,0.18,0.04a6.263,6.263,0,0,1,3.275,2.88,0.948,0.948,0,0,0,.863.58,1.243,1.243,0,0,0,1.152-1.16c0-1.4-2.267-2.77-4.57-2.77a1.351,1.351,0,0,0-1.079.29,0.038,0.038,0,0,0,.036.04Zm5.218,7.82a0.569,0.569,0,0,0,.54-0.58,1.4,1.4,0,0,0-1.044-1.15,9.147,9.147,0,0,0-2.411-.94,2.5,2.5,0,0,0-.9.29c-1.8,1.01-2.555,1.15-8.852,2.05-2.519.36-2.519,0.36-2.7,0.36a3.368,3.368,0,0,1-.5-0.07,30.938,30.938,0,0,0,2.374-4.75c0.288-.29.4-0.43,0.576-0.58a0.646,0.646,0,0,0,.324-0.43c0-.25-0.324-0.58-1.331-1.4a4.068,4.068,0,0,0-3.131-1.08c-0.684,0-.935.07-0.935,0.28a0.3,0.3,0,0,0,.287.29,2.043,2.043,0,0,1,1.44,2.13c0,1.11-1.008,3.81-2.375,6.26a21.387,21.387,0,0,1-4.822,5.97,0.693,0.693,0,0,0-.36.54,0.365,0.365,0,0,0,.4.29,6.031,6.031,0,0,0,2.519-1.69,38.51,38.51,0,0,0,4.03-4.46,9.923,9.923,0,0,0,1.079.29,2.469,2.469,0,0,0,.5-0.15,10.812,10.812,0,0,1,3.2-.75,6.468,6.468,0,0,1,.9-0.11,1.857,1.857,0,0,1,.792,1.65,15.1,15.1,0,0,1-1.188,5.33,17.825,17.825,0,0,1-4.533,6.73,15.722,15.722,0,0,1-4.21,2.85c-0.072.03-.108,0.03-0.108,0.07a0.4,0.4,0,0,0,.395.29,5.22,5.22,0,0,0,1.4-.4,14.3,14.3,0,0,0,6.333-4.36,20.267,20.267,0,0,0,4.282-8.63c0.036-.11.072-0.33,0.144-0.62,0.18-.25.216-0.32,0.4-0.54a0.646,0.646,0,0,0,.215-0.43c0-.43-1.043-1.33-2.41-2.12a42.708,42.708,0,0,1,7.016-.43h2.663Zm36.528,5.25c1.151,0,4.462.07,5.11,0.11,0.611,0.04,1.043.04,1.259,0.04,1.115,0,1.8-.33,1.8-0.83a2.243,2.243,0,0,0-.9-1.3,2.339,2.339,0,0,0-1.8-.75,9.093,9.093,0,0,0-.971.07,162,162,0,0,1-19.935,1.44c-2.015,0-2.806-.33-3.31-1.37a0.326,0.326,0,0,0-.288-0.25,0.319,0.319,0,0,0-.252.39,9.214,9.214,0,0,0,.252,1.95,4.13,4.13,0,0,0,3.023,1.87,7.285,7.285,0,0,0,1.583-.25A94.248,94.248,0,0,1,926.306,1262.76Zm33.721-11.37c-0.432.07-.539,0.1-0.539,0.25,0,0.11.036,0.14,0.179,0.21a4.081,4.081,0,0,1,.828.44,2.309,2.309,0,0,1,.684,1.51c0,1.01-3.994,9.75-6.585,14.47a15.666,15.666,0,0,1-2.267.18c-1.295,0-1.979-.4-2.159-1.26-0.072-.22-0.072-0.25-0.216-0.25-0.216,0-.252.03-0.324,0.28a6.6,6.6,0,0,0-.18,1.3,2.15,2.15,0,0,0,.684,1.62,4.755,4.755,0,0,0,2.051,1.69,1.847,1.847,0,0,0,.684-0.25,25.73,25.73,0,0,1,5.757-1.98c7.34-1.91,8.06-2.12,11.191-3.31a20.776,20.776,0,0,1,1.691,3.56c0.612,1.77.791,1.98,1.619,1.98a1.486,1.486,0,0,0,1.511-1.62c0-1.87-1.943-4.64-4.605-6.55a9.826,9.826,0,0,0-4.21-1.98,0.315,0.315,0,0,0-.36.22,0.7,0.7,0,0,0,.539.47,11.581,11.581,0,0,1,3.311,3.09c-3.886.97-9.1,2.02-13.278,2.63a110.635,110.635,0,0,1,8.312-12.85,1.269,1.269,0,0,0,.5-0.79c0-.51-0.648-1.3-1.835-2.31a2.664,2.664,0,0,0-2.591-.79Zm50.493,18.89h1.72v-23.57h7.34v-1.69h-9.06v25.26Zm43.51-13.17c0.18-.07.36-0.18,0.39-0.18l0.4-.14c0.97-.44.97-0.44,0.97-0.76,0-.29-0.11-0.43-1.19-1.33-1.22-1.01-1.62-1.26-2.01-1.26a2.35,2.35,0,0,0-1.01.43,7.154,7.154,0,0,1-1.3.65,18.538,18.538,0,0,1-4.17.79,1.179,1.179,0,0,1-.86-0.25,13.26,13.26,0,0,0,.82-1.59,1.073,1.073,0,0,0,.51-0.75c0-.51-0.29-0.83-1.51-1.62a4.211,4.211,0,0,0-2.42-.87,0.864,0.864,0,0,0-.89.33,0.235,0.235,0,0,0,.21.18,2.163,2.163,0,0,1,1.26,2.19c0,2.6-4.21,8.39-7.99,11.02-0.86.61-.93,0.68-0.93,0.86a0.323,0.323,0,0,0,.36.25c0.61,0,3.09-1.61,4.67-3.05a30.12,30.12,0,0,0,5.44-6.2,2.848,2.848,0,0,0,1.47.58,3.377,3.377,0,0,0,.69-0.11c0.25-.03.75-0.11,1.33-0.21,0.72-.11,1.51-0.26,1.58-0.29a4.389,4.389,0,0,1,.65-0.07,0.751,0.751,0,0,1,.79.79,4.89,4.89,0,0,1-.93,2.3,31.167,31.167,0,0,1-7.45,9.5,36.677,36.677,0,0,1-8.89,5.98c-1.15.47-1.15,0.47-1.15,0.72a0.365,0.365,0,0,0,.32.4c0.33,0,.33,0,2.12-0.69a31.931,31.931,0,0,0,11.66-7.49,35,35,0,0,0,6.34-8.89Zm1.9-10.58a1.073,1.073,0,0,0-1.04.29,0.452,0.452,0,0,0,.29.14,6.6,6.6,0,0,1,3.31,2.7,1.046,1.046,0,0,0,1.04.83,1.243,1.243,0,0,0,1.15-1.19C1060.68,1247.89,1058.31,1246.53,1055.93,1246.53Zm-3.81,1.72a1.379,1.379,0,0,0-1.05.29,0.472,0.472,0,0,0,.29.15,6.612,6.612,0,0,1,3.24,2.66,1,1,0,0,0,1.01.79,1.224,1.224,0,0,0,1.11-1.15C1056.72,1249.62,1054.42,1248.25,1052.12,1248.25Zm38.76,3.39c0.54-.07,1.11-0.15,1.8-0.22,1.29-.11,1.58-0.25,1.58-0.68a1.327,1.327,0,0,0-.94-0.97,3.881,3.881,0,0,0-1.72-.69,2.735,2.735,0,0,0-1.26.4,28.468,28.468,0,0,1-7.99,1.33c-1.3,0-2.02-.25-2.45-0.86a0.187,0.187,0,0,0-.14-0.15,0.169,0.169,0,0,0-.15.18,5.54,5.54,0,0,0,.69,1.48,2.706,2.706,0,0,0,2.66,1.29,31.254,31.254,0,0,0,5.18-.64c1.3-.22,2.2-0.36,2.34-0.4Zm5.43,7.41c1.08-.79,1.26-0.97,1.26-1.22,0-.54-2.45-2.52-3.13-2.52a2.226,2.226,0,0,0-.65.18,11.732,11.732,0,0,1-3.88,1.04c-0.47.08-2.13,0.26-4.97,0.54-4.17.44-4.17,0.44-4.71,0.44-1.37,0-2.63-.54-2.88-1.23-0.07-.21-0.11-0.25-0.22-0.25-0.18,0-.29.18-0.29,0.47a3.474,3.474,0,0,0,.9,2.23,3.911,3.911,0,0,0,1.98,1.22,1.137,1.137,0,0,0,.54-0.14,47.638,47.638,0,0,1,6.05-1.55,58.367,58.367,0,0,1,6.04-.79,0.926,0.926,0,0,1,1.12.9c0,0.68-.51,1.91-1.8,4.32a24.436,24.436,0,0,1-6.77,7.49,24.874,24.874,0,0,1-7.16,3.67c-0.21.03-.28,0.11-0.28,0.21a0.5,0.5,0,0,0,.54.36c1.36,0,4.53-1.18,7.05-2.62C1090.05,1268.88,1092.82,1265.75,1096.31,1259.05Zm27.53,11.92a50.1,50.1,0,0,0,8.21-5.65,53.646,53.646,0,0,0,7.41-7.45c1.69-2.09,3.24-4.47,3.24-5.01a0.288,0.288,0,0,0-.25-0.32,0.814,0.814,0,0,0-.62.54c-0.32.43-2.26,2.63-2.87,3.27a69.825,69.825,0,0,1-6.48,5.73c-5.04,4.03-9.18,6.58-10.62,6.58a2.445,2.445,0,0,1-2.05-1.72,0.3,0.3,0,0,0-.25-0.26c-0.25,0-.43.51-0.43,1.19a2.574,2.574,0,0,0,.86,2.16,5.163,5.163,0,0,0,2.49,1.8A2.512,2.512,0,0,0,1123.84,1270.97Zm-3.52-18.72c-1.01,0-1.62.14-1.62,0.4a0.366,0.366,0,0,0,.32.25,7.4,7.4,0,0,1,5.29,4.25,1.12,1.12,0,0,0,1.04.79,1.454,1.454,0,0,0,1.59-1.48C1126.94,1254.37,1123.63,1252.25,1120.32,1252.25Zm45.88-.94c-0.25,0-.4.08-0.4,0.22a0.313,0.313,0,0,0,.29.29c1.41,0.72,3.06,3.31,3.49,5.4,0.15,0.83.43,1.15,1.05,1.15a1.613,1.613,0,0,0,1.51-1.58c0-1.34-1.12-3.06-2.7-4.18A6.53,6.53,0,0,0,1166.2,1251.31Zm15.26,4.29a1.74,1.74,0,0,0,.97-1.08c0-.33-0.4-0.87-1.51-2.05a3.271,3.271,0,0,0-2.56-1.37c-0.68,0-1.11.14-1.11,0.39,0,0.11.07,0.15,0.39,0.26a1.648,1.648,0,0,1,1.08,1.65,16.009,16.009,0,0,1-1.44,4.83,28.2,28.2,0,0,1-5.9,7.99c-3.13,3.02-8.09,6.26-10.9,7.12-0.33.11-.4,0.15-0.4,0.26a0.518,0.518,0,0,0,.47.36,0.955,0.955,0,0,0,.29-0.04,3.621,3.621,0,0,1,.54-0.14c3.42-.69,7.59-2.96,11.15-6.02A35.084,35.084,0,0,0,1181.46,1255.6Zm-21.7-1.01c-0.25,0-.43.07-0.43,0.22a0.306,0.306,0,0,0,.29.25c1.33,0.47,2.95,2.52,3.67,4.61a2.982,2.982,0,0,0,.32,1.04,1.141,1.141,0,0,0,.93.47,1.438,1.438,0,0,0,1.37-1.66c0-1.29-.97-2.63-2.66-3.71A6.927,6.927,0,0,0,1159.76,1254.59Zm58.76,8.17c1.16,0,4.47.07,5.11,0.11,0.62,0.04,1.05.04,1.26,0.04,1.12,0,1.8-.33,1.8-0.83a2.231,2.231,0,0,0-.9-1.3,2.339,2.339,0,0,0-1.8-.75,9.2,9.2,0,0,0-.97.07,161.907,161.907,0,0,1-19.93,1.44c-2.02,0-2.81-.33-3.31-1.37a0.334,0.334,0,0,0-.29-0.25,0.321,0.321,0,0,0-.25.39,9.1,9.1,0,0,0,.25,1.95,4.117,4.117,0,0,0,3.02,1.87,7.332,7.332,0,0,0,1.59-.25A94.064,94.064,0,0,1,1218.52,1262.76Zm38.08-12.09c1.04,0,1.73,1.15,1.73,2.84l-0.04,1.48c0,8.67-.75,11.19-4.42,14.93a19.991,19.991,0,0,1-6.81,3.86c-0.32.07-.43,0.14-0.43,0.21a0.535,0.535,0,0,0,.54.36,18.241,18.241,0,0,0,4.03-1.22c5.26-2.02,8.46-5.73,9.18-10.66,0.14-1.15.32-5.4,0.32-8.24a6.939,6.939,0,0,1,.07-1.33,5.86,5.86,0,0,1,.4-0.76,1.105,1.105,0,0,0,.25-0.61c0-.65-2.23-2.12-3.24-2.12-0.64,0-2.16.68-2.16,0.97a0.358,0.358,0,0,0,.26.32,0.312,0.312,0,0,0,.14-0.03h0.18Zm-9.97,1.51a0.3,0.3,0,0,1,.18-0.04,1.606,1.606,0,0,1,1.55.9c0.29,0.54.36,1.48,0.36,4.25a36.758,36.758,0,0,1-.18,4.54,1.091,1.091,0,0,0-.04.32,2.253,2.253,0,0,0,1.95,1.65,0.818,0.818,0,0,0,.72-0.82,2.022,2.022,0,0,0-.04-0.43,6.921,6.921,0,0,1-.07-1.26c0-.11-0.04-0.83-0.07-1.59-0.04-1.04-.08-1.83-0.08-2.41a18.6,18.6,0,0,1,.29-4,1.535,1.535,0,0,0,.07-0.39c0-.33-0.21-0.51-1.11-1.01a4.721,4.721,0,0,0-1.84-.76,3.653,3.653,0,0,0-1.98.87,0.237,0.237,0,0,0,.18.18h0.11Zm51.18,9.54a47.732,47.732,0,0,0,4.64-7.6c0.39-.29.57-0.39,0.75-0.54a0.61,0.61,0,0,0,.4-0.43c0-.25-0.18-0.43-1.12-1.15-1.22-.97-1.72-1.26-2.05-1.26a0.792,0.792,0,0,0-.54.21,7.219,7.219,0,0,1-2.77,1.16,54.5,54.5,0,0,1-6.69,1.04c-1.22,0-2.27-.4-2.48-0.9a0.232,0.232,0,0,0-.18-0.18c-0.22,0-.33.29-0.33,0.94a1.679,1.679,0,0,0,.9,1.65,5.67,5.67,0,0,1,.51.4,1.6,1.6,0,0,0,.93.43,2.787,2.787,0,0,0,.79-0.22c3.17-1.18,6.98-2.23,8.24-2.23a0.547,0.547,0,0,1,.61.51,10.19,10.19,0,0,1-1.25,3.16,31.628,31.628,0,0,1-15.55,15.34c-0.57.21-.65,0.25-0.65,0.43a0.516,0.516,0,0,0,.51.4,19.32,19.32,0,0,0,4.57-1.8,28,28,0,0,0,10.32-8.75,13.837,13.837,0,0,1,7.2,7.74c0.43,1.19.86,1.62,1.58,1.62a1.641,1.641,0,0,0,1.51-1.8c0-1.51-1.07-3.17-3.09-4.79A16.21,16.21,0,0,0,1297.81,1261.72Zm38.93-6.91c0.36-.08.72-0.15,0.94-0.22,0.4-.07,1.4-0.29,2.45-0.5,3.67-.76,4.03-0.9,4.03-1.52a0.855,0.855,0,0,0-.58-0.68,6.045,6.045,0,0,0-1.76-.68,2.418,2.418,0,0,0-1.01.36c-1.4.68-1.65,0.75-5.25,1.58a26.621,26.621,0,0,1-4.97.79c-1.08,0-1.73-.21-2.01-0.68a0.236,0.236,0,0,0-.18-0.15,0.161,0.161,0,0,0-.15.15,4.048,4.048,0,0,0,.51,1.15,2.578,2.578,0,0,0,2.34,1.4,22.013,22.013,0,0,0,3.92-.61c0.39,0.51.47,0.87,0.47,3.1,0,0.39,0,.5-0.04,2.09-3.64.64-8.06,1.26-9.1,1.26a3.3,3.3,0,0,1-2.27-.65,0.455,0.455,0,0,0-.33-0.22,0.2,0.2,0,0,0-.25.22,3.521,3.521,0,0,0,2.85,3.09,5.517,5.517,0,0,0,2.15-.57,36.539,36.539,0,0,1,6.95-1.84c0.04,0.94.04,0.94,0.04,2.99,0.03,2.23.03,2.52,0.03,2.91,0.11,2.13.68,3.28,2.12,4.11a14.417,14.417,0,0,0,6.09,1.11c2.95,0,5.28-.64,5.28-1.51a2.5,2.5,0,0,0-.46-1.15,1.312,1.312,0,0,0-1.23-.65,2.7,2.7,0,0,0-1.15.25,17.657,17.657,0,0,1-5.11.65,3.617,3.617,0,0,1-3.02-1.01,5.761,5.761,0,0,1-.65-3.34c0-.22,0-0.76.04-1.62,0.03-.54.03-0.62,0.07-3.06a78.725,78.725,0,0,1,8.13-.58c1.05,0,3.46.11,4.18,0.22,0.36,0.03.75,0.07,0.93,0.07a0.841,0.841,0,0,0,.87-0.76,1.944,1.944,0,0,0-1.08-1.11,7.884,7.884,0,0,0-2.38-1.23,2.042,2.042,0,0,0-.61.18c-1.33.8-3.42,1.19-9.97,1.98,0.25-2.55.36-3.42,0.61-3.85a1.079,1.079,0,0,0,.11-0.43,0.712,0.712,0,0,0-.54-0.58Zm35.96-2.67h-1.73v23.58h-7.34v1.69h9.07v-25.27Zm47.93,0.22a2.127,2.127,0,0,1,.11.25,7.105,7.105,0,0,1,.43,2.3,21.783,21.783,0,0,1-2.45,8.18c-1.65,3.2-4.46,6.01-5.97,6.01-1.29,0-2.27-1.91-2.27-4.5A12.3,12.3,0,0,1,1420.63,1252.36Zm1.66-.15a2.41,2.41,0,0,1,.36-0.03h0.32a9.236,9.236,0,0,1,5.4,1.8c1.94,1.51,2.95,3.85,2.95,7.02a12.485,12.485,0,0,1-3.96,9.64,15.816,15.816,0,0,1-6.55,3.42c-0.47.11-.57,0.18-0.57,0.26a0.4,0.4,0,0,0,.43.32,20.914,20.914,0,0,0,4.75-1.15c5.47-1.98,8.7-6.41,8.7-11.88,0-6.19-4.74-10.48-11.58-10.48-7.77,0-14.11,6.02-14.11,13.36a7.863,7.863,0,0,0,1.8,5.43,3.167,3.167,0,0,0,2.41,1.34c1.77,0,3.64-1.3,5.65-3.86a18.963,18.963,0,0,0,4.21-10.97,34.548,34.548,0,0,0-.5-4.22h0.29Zm-846.464,51.21c-2.7-.04-3.059-0.07-6.01-0.18l0.5,1.19,2.807-.08,2.7-.07v20.48a0.537,0.537,0,0,0,.575.51c1.08,0,1.871-.43,1.871-1.01v-1.87h22.85a0.489,0.489,0,0,0,.575-0.47,0.785,0.785,0,0,0-.359-0.61l-2.987-2.34-2.267,2.55H578.272v-17.24h6.01v13.82a0.591,0.591,0,0,0,.611.69,2.265,2.265,0,0,0,1.368-.51,1.152,1.152,0,0,0,.36-1.11v-2.99h5.865v2.27a0.635,0.635,0,0,0,.683.72,1.58,1.58,0,0,0,1.728-1.23v-11.66h7.088a0.625,0.625,0,0,0,.756-0.54,1.356,1.356,0,0,0-.576-0.83l-2.519-1.98-2.374,2.49H594.9v-7.7l0.467-.18a1.462,1.462,0,0,0,1.044-1.08c0-.4-0.36-0.62-1.26-0.72l-2.662-.36v10.04h-5.865v-8.17l0.719-.4a0.917,0.917,0,0,0,.684-0.79,0.838,0.838,0,0,0-.936-0.68l-2.806-.36v10.4h-6.01v-7.02l1.08-.61a1.034,1.034,0,0,0,.684-0.83,0.888,0.888,0,0,0-.936-0.83l-3.274-.25v9.54Zm10.795,9.9v-9.04h5.865v9.04h-5.865Zm39.514-6.63c-4.1,4.83-9.032,8.5-13.925,10.26a0.505,0.505,0,0,0-.468.4,0.364,0.364,0,0,0,.4.32,19.494,19.494,0,0,0,4.282-1.44,26.257,26.257,0,0,0,6.153-3.38v0.97c0,4.46-.5,6.26-2.3,8.1a11.029,11.029,0,0,1-4.642,2.77,0.831,0.831,0,0,0-.684.47,0.37,0.37,0,0,0,.432.25,8.746,8.746,0,0,0,1.727-.36,11.867,11.867,0,0,0,6.01-3.45c1.259-1.59,1.583-3.03,1.871-8.1l0.683-.36a0.625,0.625,0,0,0,.432-0.58,0.561,0.561,0,0,0-.432-0.58l-1.4-.39c2.015-1.69,2.267-1.91,4.1-3.49,0.324,0.39.828,1.01,1.511,1.83a22.383,22.383,0,0,0,1.907,2.05h-0.755v12.64a0.57,0.57,0,0,0,.683.68c0.972,0,1.728-.43,1.728-1.04v-11.09c4.246,2.7,5.325,3.24,8.744,4.39a8.7,8.7,0,0,1,3.13-3.02c-6.477-.43-13.242-3.45-16.156-7.2l0.683-.65H637.4v1.59a0.708,0.708,0,0,0,.827.65c0.828,0,1.512-.36,1.512-0.83v-10.95l0.827-.32a0.641,0.641,0,0,0,.36-0.5,0.653,0.653,0,0,0-.18-0.36l-2.591-2.52-0.863,1.58H620.018l-3.1-1.76v15.76a0.409,0.409,0,0,0,.432.47c0.936,0,1.835-.5,1.835-1.04v-1.77h6.945Zm-6.945-.86v-4.64h7.917v4.64H619.19Zm0-5.51v-4.43h7.917v4.43H619.19Zm10.256,5.51v-4.64H637.4v4.64h-7.952Zm0-5.51v-4.43H637.4v4.43h-7.952Zm23.933,3.82c3.563-.11,3.743-0.11,4.462-0.11h1.188a38.078,38.078,0,0,1-5.182,9c-0.863,1.01-.863,1.01-0.863,1.22a0.234,0.234,0,0,0,.216.22c0.5,0,2.015-1.41,3.742-3.49v14.32a0.441,0.441,0,0,0,.432.51c1.007,0,1.727-.47,1.727-1.12v-2.19h10.615a0.386,0.386,0,0,0,.432-0.36,0.7,0.7,0,0,0-.288-0.51l-2.483-1.98-1.655,1.98h-1.26v-3.67h4.714a0.421,0.421,0,0,0,.468-0.4,0.674,0.674,0,0,0-.324-0.5l-1.979-1.62-1.332,1.66h-1.547v-3.64l4.93,0.04a0.516,0.516,0,0,0,.432-0.51,0.6,0.6,0,0,0-.18-0.43l-2.2-1.73-1.44,1.8h-1.547v-3.67h5.65a0.485,0.485,0,0,0,.323-0.47,0.579,0.579,0,0,0-.179-0.39l-2.447-1.98-1.62,1.98h-2.554l1.691-2.67,0.54-.14a0.372,0.372,0,0,0,.287-0.32,0.7,0.7,0,0,0-.287-0.51l-0.612-.43h5.181a0.4,0.4,0,0,0,.36-0.4,0.656,0.656,0,0,0-.252-0.46l-2.446-2.02-1.656,2.02h-4.713a46.851,46.851,0,0,0,1.8-4.54h6.225a0.446,0.446,0,0,0,.539-0.36,0.772,0.772,0,0,0-.4-0.58l-2.195-1.83-1.692,1.91h-6.98c0.576-.87.683-1.01,1.295-2.02l0.9-.25a0.675,0.675,0,0,0,.683-0.65,0.762,0.762,0,0,0-.539-0.72l-2.663-1.33a28.216,28.216,0,0,1-3.85,8.57,1.573,1.573,0,0,0-.432.79,0.315,0.315,0,0,0,.288.29c0.4,0,1.547-1.19,3.706-3.82h2.411a21,21,0,0,1-1.4,4.54h-1.584c-1.079,0-2.087-.04-4.821-0.15Zm5.722,17.49v-3.67h3.274v3.67H659.1Zm0-4.53v-3.64h3.274v3.64H659.1Zm0-4.47v-3.67h3.274v3.67H659.1Zm0.036-4.53a40.406,40.406,0,0,0,2.2-4.07h2.051l-0.9,4.07h-3.346Zm15.149,4.53c-0.18,6.99-1.548,9.47-6.945,12.6a0.631,0.631,0,0,0-.432.43,0.307,0.307,0,0,0,.288.29,4.641,4.641,0,0,0,1.619-.57,13.9,13.9,0,0,0,4.858-3.39c1.835-2.05,2.519-4.43,2.663-9.36h1.295v10.3c0,1.58.648,1.94,3.706,1.94,3.994,0,5.074-.21,5.074-1.01a1.638,1.638,0,0,0-.684-1.04,1.243,1.243,0,0,1-.4-1.15l0.036-.22,0.144-3.85-0.575-.11L684,1321.16c-0.432,1.73-.612,1.84-2.807,1.84-1.259,0-1.4-.04-1.4-0.47v-9.9h1.367v1.23a0.488,0.488,0,0,0,.468.61c1.008,0,1.691-.43,1.691-1.08v-16.2l0.684-.14a0.708,0.708,0,0,0,.468-0.62,0.788,0.788,0,0,0-.324-0.57l-2.375-2.02-0.828,1.59h-7.268l-2.375-1.59v20.56a0.471,0.471,0,0,0,.54.43,2.673,2.673,0,0,0,1.4-.47,0.594,0.594,0,0,0,.144-0.5v-1.23h0.9Zm-0.9-.86v-4.61h7.772v4.61h-7.772Zm0-5.47v-4.54h7.772v4.54h-7.772Zm0-5.4v-4.61h7.772v4.61h-7.772Zm38.543,11.26a0.709,0.709,0,0,1,.072-0.28,18.438,18.438,0,0,1,3.1-5.44,6.589,6.589,0,0,1,4.389-2.37,2.078,2.078,0,0,1,2.087,1.72,1.88,1.88,0,0,1-.683,1.23c-0.432.36-.432,0.36-4.426,2.59C713.009,1311.52,713.009,1311.52,711.929,1312.16Zm-0.4-2.05a5.826,5.826,0,0,0-.935-2.05,3.233,3.233,0,0,0-2.555-1.19,5.719,5.719,0,0,0-2.3.62,39.7,39.7,0,0,0,3.958-7.38c3.383-.98,4.03-1.26,4.03-1.7,0-.25-0.36-0.5-1.511-1.08a4.759,4.759,0,0,1-2.231,1.16,4.082,4.082,0,0,0,.288-1.3,2.433,2.433,0,0,0-2.3-2.05c-0.648,0-1.8.54-1.8,0.86a0.122,0.122,0,0,0,.144.15,1.663,1.663,0,0,1,1.655,1.87,6.032,6.032,0,0,1-.108.97,8.854,8.854,0,0,1-3.167.58,2.271,2.271,0,0,1-2.051-.94,0.32,0.32,0,0,0-.179-0.14,0.157,0.157,0,0,0-.108.14,4.8,4.8,0,0,0,.539,1.33,2.082,2.082,0,0,0,1.763,1.23,11.749,11.749,0,0,0,3.023-.58c-0.612,3.17-2.987,6.66-6.657,9.79a1.506,1.506,0,0,0-.827,1.26c0,0.86.683,2.02,1.187,2.02a1.571,1.571,0,0,0,1.151-.98c1.728-2.84,4.067-5,5.434-5a1.765,1.765,0,0,1,1.619,1.19,12.763,12.763,0,0,1,.432,4.39c-2.2,1.3-2.2,1.3-2.771,1.69-2.123,1.44-3.058,2.74-3.058,4.25a4.07,4.07,0,0,0,2.375,3.49,11.393,11.393,0,0,0,5.649,1.05c4.714,0,6.981-.58,6.981-1.73a1.864,1.864,0,0,0-1.656-1.41,3.048,3.048,0,0,0-.9.18,19.073,19.073,0,0,1-5.074.62c-4.03,0-5.685-.69-5.685-2.42,0-1.54,1.151-2.88,4.174-4.71a26.821,26.821,0,0,1-.144,3.71,1.118,1.118,0,0,0-.036.28c0,0.22.216,0.36,0.612,0.36,1.367,0,1.727-.46,1.727-2.16,0-.46-0.036-1.33-0.18-3.2a64.16,64.16,0,0,1,7.377-3.35c3.166-1.26,3.418-1.36,4.138-1.9a2.075,2.075,0,0,0,.9-1.84c0-1.87-1.871-3.31-4.354-3.31a8.358,8.358,0,0,0-6.009,3.09A16.006,16.006,0,0,0,711.533,1310.11Zm40.558,3.53h-7.628c-0.576,0-1.655-.04-3.239-0.07-0.611-.04-2.123-0.07-3.85-0.15l0.468,1.26c3.023-.1,4.138-0.1,6.621-0.18h5.469a40.876,40.876,0,0,1-11.01,8.32c-2.123,1.08-2.123,1.08-2.123,1.26a0.3,0.3,0,0,0,.323.29,22.2,22.2,0,0,0,5.11-1.98,39.742,39.742,0,0,0,9.859-6.63v9.18a0.515,0.515,0,0,0,.54.47,2.86,2.86,0,0,0,1.583-.57,0.56,0.56,0,0,0,.108-0.36v-9.51a25.153,25.153,0,0,0,5.722,5.47,29.061,29.061,0,0,0,7.412,3.78,9.693,9.693,0,0,1,2.771-2.8c-6.117-.87-11.443-3.35-14.969-6.92h13.817a0.364,0.364,0,0,0,.4-0.32,0.7,0.7,0,0,0-.36-0.5l-2.878-2.38-1.871,2.34h-10.04v-4.14h2.411v1.41a0.443,0.443,0,0,0,.468.54,1.391,1.391,0,0,0,1.619-1.12v-10.48l0.576-.32a0.639,0.639,0,0,0,.4-0.54,0.863,0.863,0,0,0-.252-0.58l-2.051-1.94-0.864,1.37h-3.454l1.547-2.63,0.756-.54a0.975,0.975,0,0,0,.5-0.75,0.709,0.709,0,0,0-.683-0.62l-2.843-.46a31.643,31.643,0,0,1-.684,5h-1.619l-2.519-1.41v14.73a0.566,0.566,0,0,0,.648.54,1.3,1.3,0,0,0,1.439-.72v-1.48h2.375v4.14Zm-2.375-5v-4.54h7.017v4.54h-7.017Zm0-5.4v-4.54h7.017v4.54h-7.017Zm-3.2,1.55c-4.894,2.59-5.973,3.13-9.1,4.5l2.3,2.26a0.7,0.7,0,0,0,.4.15,0.84,0.84,0,0,0,.72-0.76l0.144-.68,5.829-4.79Zm-8.06-7.78a10.644,10.644,0,0,1,3.058,3.53c0.72,1.98.72,1.98,0.972,2.23a1.238,1.238,0,0,0,.9.4,1.426,1.426,0,0,0,1.3-1.59c0-2.09-2.447-4.14-6.081-5Zm26.411-1.08c-1.907,2.84-2.842,4.14-3.814,5.47-1.439,1.84-1.583,2.05-1.583,2.23a0.28,0.28,0,0,0,.288.33,1.292,1.292,0,0,0,.719-0.4l5.218-4.39,1.223-.32a0.714,0.714,0,0,0,.684-0.47,0.451,0.451,0,0,0-.18-0.33Zm-5.037,9.29a14.529,14.529,0,0,1,4.282,3.02c1.871,2.16,1.979,2.27,2.446,2.27a1.314,1.314,0,0,0,1.26-1.33c0-1.01-.792-2.02-2.3-2.88a14.231,14.231,0,0,0-5.613-1.69Zm47.574,10.15a0.583,0.583,0,0,0-.4.36,15.947,15.947,0,0,1-2.915,2.81,13.067,13.067,0,0,1-7.592,2.77c-4.318,0-6.225-2.16-6.225-7.02a71.326,71.326,0,0,1,1.475-11.84,9.891,9.891,0,0,0,.5-2.63c0-2.13-1.692-4.14-3.455-4.14-0.791,0-1.511.32-1.511,0.68,0,0.11.108,0.18,0.324,0.18,1.187,0,1.691.94,1.691,3.13,0,0.44,0,.44-0.216,3.35-0.684,8.96-.72,9.43-0.72,11.48,0,3.17.612,5.19,2.087,6.74a7.614,7.614,0,0,0,5.758,2.19,12.412,12.412,0,0,0,9.463-4.53c1.152-1.34,1.979-2.63,1.979-3.24A0.276,0.276,0,0,0,807.4,1315.37Zm24.438-5.18c-3.454,6.29-3.922,6.98-5.109,6.98a1.264,1.264,0,0,1-1.26-1.3c0-1.44,1.116-3.13,2.879-4.32A7.958,7.958,0,0,1,831.84,1310.19Zm2.231-1.44c1.583-3.14,4.894-7.49,6.189-8.18a1.134,1.134,0,0,0,.72-0.86c0-.65-2.519-2.34-3.491-2.34a1.731,1.731,0,0,0-.827.25,38.119,38.119,0,0,1-6.405,2.2c-0.648,0-1.008-.58-1.008-1.69a0.122,0.122,0,0,0-.144-0.15c-0.323,0-.611.94-0.611,1.91a1.63,1.63,0,0,0,.539,1.33,3.478,3.478,0,0,0,1.512.65,3.79,3.79,0,0,0,1.583-.79c2.375-1.51,3.454-2.02,4.21-2.02a0.921,0.921,0,0,1,1.079.79,3.2,3.2,0,0,1-.683,1.48c-2.375,4.14-2.951,5.11-4.246,7.6a11.783,11.783,0,0,0-6.045,2.48c-1.871,1.47-2.951,3.17-2.951,4.57,0,1.91,1.655,3.78,3.31,3.78,1.152,0,1.944-.65,2.627-2.12,1.332-2.81,1.835-3.75,2.915-5.69l0.72-1.3c0.036-.07.215-0.32,0.431-0.72a8.3,8.3,0,0,1,1.26-.1,20.237,20.237,0,0,1,9.1,2.3,16.577,16.577,0,0,1-10.758,10.62c-0.36.11-.432,0.14-0.432,0.25a0.368,0.368,0,0,0,.4.36,21.948,21.948,0,0,0,5.685-1.87c3.238-1.55,5.109-3.75,7.053-8.32a15.218,15.218,0,0,1,3.562,3.13c0.9,1.05,1.043,1.16,1.547,1.16a1.3,1.3,0,0,0,1.188-1.44c0-1.48-1.548-2.7-5.686-4.57a22.843,22.843,0,0,0,.9-4.76,1.606,1.606,0,0,0-.9-1.47,6.981,6.981,0,0,0-2.231-.83,4.2,4.2,0,0,0-2.123.76c0,0.07.072,0.1,0.216,0.1a2.149,2.149,0,0,1,2.447,2.16,14.1,14.1,0,0,1-.432,3.21c-4.138-1.44-6.441-1.91-9.067-1.91Zm42.177-10.3,0.144-.61c1.224,0.86,1.584,1.19,1.584,1.4,0,0.36-.792.87-2.3,1.44,0.144-.5.252-0.86,0.288-1.01Zm5.614,19.69a9.535,9.535,0,0,1-.072,1.3,2.834,2.834,0,0,1-3.2,2.7c-2.051,0-3.634-.9-3.634-2.13,0-1.51,1.367-2.52,3.418-2.52A8.468,8.468,0,0,1,881.862,1318.14Zm-6.657-15.33c3.31-1.01,5.073-2.13,5.073-3.24a1.1,1.1,0,0,0-1.187-.94c-0.612-.04-0.684-0.07-2.591-1.12,0.216-.75.324-1.15,0.324-1.22,0-.86-1.187-1.62-2.519-1.62-0.755,0-1.907.47-1.907,0.79a0.164,0.164,0,0,0,.18.15c1.367,0.03,1.943.57,1.943,1.76a15.44,15.44,0,0,1-.576,3.82,18.109,18.109,0,0,1-3.958.68,3.772,3.772,0,0,1-3.274-1.62c-0.108-.22-0.108-0.22-0.18-0.22a0.174,0.174,0,0,0-.18.18,5.106,5.106,0,0,0,.54,1.44,3.278,3.278,0,0,0,2.986,2.06,16.729,16.729,0,0,0,3.455-.51c-1.188,3.78-5.11,10.4-7.125,12.1a1.531,1.531,0,0,0-.612,1.11,1.346,1.346,0,0,0,1.584,1.15c1.115,0,1.547-.43,2.7-2.52A106.77,106.77,0,0,0,875.205,1302.81Zm6.693,13.64a17.585,17.585,0,0,0-2.375-.15c-3.778,0-6.045,1.48-6.045,3.93,0,2.27,2.159,3.74,5.469,3.74,1.871,0,3.275-.5,4.066-1.51a4.49,4.49,0,0,0,1.008-3.31v-0.33a12.93,12.93,0,0,1,3.958,3.14,1.856,1.856,0,0,0,1.439.86,1.253,1.253,0,0,0,1.3-1.22c0-1.52-2.483-3.28-6.657-4.68-0.072-1.12-.072-1.34-0.288-3.24a29.215,29.215,0,0,1-.252-2.95c0-2.6,1.367-3.89,4.03-3.89a6.638,6.638,0,0,1,2.3.39,1.744,1.744,0,0,0,.54.11,0.845,0.845,0,0,0,.863-0.97c0-2.12-2.626-3.89-5.757-3.89-1.4,0-3.346.61-3.346,1.01a0.283,0.283,0,0,0,.251.29,0.358,0.358,0,0,0,.18-0.04,5.418,5.418,0,0,1,1.656-.21c1.871,0,3.6.79,3.6,1.62a0.77,0.77,0,0,1-.756.64c-3.814,1.05-5.253,2.78-5.253,6.3,0,0.25,0,.76.036,1.44Zm47.107-21.24a1.756,1.756,0,0,0-1.224.25c0,0.08.072,0.15,0.252,0.18a5.73,5.73,0,0,1,3.419,2.7,1.03,1.03,0,0,0,.791.72,1.225,1.225,0,0,0,1.188-1.22C933.431,1296.51,931.236,1295.21,929.005,1295.21Zm-3.671,1.55a1.445,1.445,0,0,0-1.223.29c0,0.07.036,0.1,0.216,0.14a5.667,5.667,0,0,1,3.382,2.74,0.937,0.937,0,0,0,.828.72,1.319,1.319,0,0,0,1.187-1.23C929.724,1298.13,927.493,1296.76,925.334,1296.76Zm5.4,15.44a4.647,4.647,0,0,1,2.483.65,1.114,1.114,0,0,0,.935.5c0.864,0,1.476-1.01,1.476-2.44a7.671,7.671,0,0,0-7.953-7.42c-0.935,0-1.4.11-1.4,0.32,0,0.11.036,0.11,0.4,0.15,3.058,0.21,6.225,3.2,6.225,5.9,0,0.58-.288.87-1.188,1.19a19.067,19.067,0,0,1-2.662.65c-0.468.07-.54,0.14-0.54,0.36a0.28,0.28,0,0,0,.288.25,1.493,1.493,0,0,0,.36-0.04C929.221,1312.24,930.444,1312.2,930.732,1312.2Zm-17.74-14.29c1.44,0,2.2.83,2.2,2.45a35.9,35.9,0,0,1-.54,4.5,32.8,32.8,0,0,1-5.973,1.29,1.54,1.54,0,0,1-1.547-.93,0.448,0.448,0,0,0-.36-0.36c-0.18,0-.288.21-0.288,0.61,0,1.55,1.044,3.02,2.123,3.02a3.027,3.027,0,0,0,1.26-.39c1.439-.61,3.418-1.44,4.534-1.84-1.908,5.8-4.678,10.91-7.521,13.72a1.514,1.514,0,0,0-.576,1.08,1.3,1.3,0,0,0,1.4,1.33,2.112,2.112,0,0,0,1.763-1.08,44.494,44.494,0,0,0,2.483-4.5,83.459,83.459,0,0,0,4.39-11.2,9.646,9.646,0,0,1,3.166-.79c1.368,0,2.087,1.3,2.087,3.64a22.725,22.725,0,0,1-1.115,7.09c-0.756,2.23-1.763,3.38-2.987,3.38-0.684,0-1.583-.54-2.914-1.8a1.2,1.2,0,0,0-.576-0.39,0.379,0.379,0,0,0-.216.32,1.327,1.327,0,0,0,.5.79c1.295,1.59,1.619,2.2,1.835,3.39,0.072,0.61.18,0.75,0.683,0.75a5.731,5.731,0,0,0,3.959-1.94c1.655-2.02,2.842-6.34,2.842-10.3a8.907,8.907,0,0,0-.755-4.24,3.708,3.708,0,0,0-3.1-1.66,10.683,10.683,0,0,0-3.094.58,31.272,31.272,0,0,0,1.115-5.48,1.521,1.521,0,0,0-1.008-1.33,4.464,4.464,0,0,0-2.338-.75c-0.684,0-2.015.61-2.015,0.97a0.169,0.169,0,0,0,.143.11,1.048,1.048,0,0,0,.288-0.04h0.144Zm42.034,9.32a20.464,20.464,0,0,1-.468,4.04,16.326,16.326,0,0,0-.432,3.34,3.394,3.394,0,0,0,.828,2.63,4.583,4.583,0,0,0,2.3,1.04,0.971,0.971,0,0,0,.863-0.97,5.673,5.673,0,0,1,1.727-3.2,7.928,7.928,0,0,1,5.506-2.45c2.555,0,4.138,1.44,4.138,3.78,0,2.45-2.087,5.11-5.182,6.52a23.77,23.77,0,0,1-7.52,1.9c-0.468.08-.5,0.08-0.5,0.22a0.587,0.587,0,0,0,.648.47,42.031,42.031,0,0,0,8.06-1.23c4.678-1.44,7.2-4.1,7.2-7.63,0-3.24-2.339-5.4-5.866-5.4a11.254,11.254,0,0,0-8.312,3.96,2.019,2.019,0,0,1-1.115.69c-0.5,0-.9-0.65-0.9-1.52a33.87,33.87,0,0,1,.972-5.65,9.081,9.081,0,0,0,.468-2.34,1.126,1.126,0,0,0-.36-0.82,1.243,1.243,0,0,1-.252-0.9,2.086,2.086,0,0,1,1.295-1.91,8.186,8.186,0,0,1,3.706-.94,14.111,14.111,0,0,1,2.843.43,3.39,3.39,0,0,0,.54.08,0.934,0.934,0,0,0,.863-0.98,3.654,3.654,0,0,0-1.007-2.16,1.529,1.529,0,0,0-1.259-.46c-3.1-.15-4.5-1.05-4.606-2.99,0-.25-0.036-0.29-0.18-0.29-0.288,0-.5.51-0.5,1.26a3.968,3.968,0,0,0,3.167,4c0.467,0.1.467,0.1,0.467,0.18,0,0.1-.108.18-0.324,0.18a16.854,16.854,0,0,0-3.6.79c-2.123.83-3.274,2.3-3.274,4.17,0,0.11,0,.51.036,1.12Zm46.854-14.9c-4.569,6.88-8.743,11.16-13.313,13.64-1.619.9-1.727,0.98-1.727,1.19a0.361,0.361,0,0,0,.36.36c0.791,0,4.174-1.76,7.3-3.81v17.85c-1.655.14-1.691,0.14-4.138,0.18h-1.439l2.375,3.42a0.871,0.871,0,0,0,.647.4,0.838,0.838,0,0,0,.756-0.47l0.4-.87,11.769-3.06c0.36-.1.47-0.18,0.47-0.32a0.312,0.312,0,0,0-.36-0.29,7.646,7.646,0,0,0-1.16.15c-1.11.18-5.214,0.57-6.905,0.68v-7.88h4.675c3.1,6.19,7.85,9.86,15.62,12.13a7.123,7.123,0,0,1,2.84-2.92,30.608,30.608,0,0,1-12.02-3.6l6.95-3.89,1.15-.21a0.924,0.924,0,0,0,.86-0.54,0.652,0.652,0,0,0-.25-0.47l-2.52-1.98a62.479,62.479,0,0,1-7.09,6.48,17.455,17.455,0,0,1-4.46-5h5.87v1.04a0.505,0.505,0,0,0,.5.61,3.491,3.491,0,0,0,1.48-.54,0.792,0.792,0,0,0,.46-0.79v-7.45l0.58-.32a0.676,0.676,0,0,0,.43-0.58,1.036,1.036,0,0,0-.5-0.83l-2.34-1.55-0.83,1.37h-4.35v-2.52l0.86-.5a1.075,1.075,0,0,0,.47-0.72,0.736,0.736,0,0,0-.72-0.65l-2.99-.25v4.64h-4.279l-2.231-1.15a52.681,52.681,0,0,0,8.6-8.06,32.4,32.4,0,0,0,13.28,10.58,7.281,7.281,0,0,1,3.16-2.95,28.35,28.35,0,0,1-15.54-8.17l0.36-.22a0.613,0.613,0,0,0,.29-0.47,0.582,0.582,0,0,0-.4-0.43Zm-4.965,20.3v-3.2h11.625v3.2H996.915Zm0-4.06v-3.32h11.625v3.32H996.915Zm32.745,5.79c3.71-.14,5.11-0.18,6.7-0.18h7.91v3.2h-5.03c-1.69,0-2.99-.03-6.23-0.18l0.43,1.19c2.95-.11,4.18-0.14,5.8-0.14h5.03v3.49c0,0.47-.14.58-0.79,0.58h-0.97l-3.27-.15-0.08.65,2.95,0.79c0.33,0.07.62,0.15,0.9,0.22l0.08,0.03a1.6,1.6,0,0,1,.07.69,0.749,0.749,0,0,0,.68.93c1.19,0,2.7-1.22,2.7-2.23v-5h7.56v1.73c0,0.25.21,0.39,0.57,0.39,0.94,0,1.69-.47,1.69-1.04v-5.15h5.4a0.349,0.349,0,0,0,.25-0.32,1.008,1.008,0,0,0-.32-0.65l-2.3-2.23-1.73,2.34h-1.3v-2.41l0.47-.22a0.6,0.6,0,0,0,.51-0.5,0.942,0.942,0,0,0-.44-0.69l-1.9-1.58-0.9,1.37h-7.56v-3.06h6.87v0.97a0.483,0.483,0,0,0,.47.47c0.76,0,1.66-.51,1.66-0.94v-3.85l0.43-.11a0.618,0.618,0,0,0,.43-0.47,0.95,0.95,0,0,0-.29-0.61l-2.01-1.62-0.9,1.26h-6.66v-2.84h14.57a0.412,0.412,0,0,0,.4-0.44,0.7,0.7,0,0,0-.29-0.54l-2.8-2.23-2.02,2.31h-9.86v-2.41l0.97-.51a0.677,0.677,0,0,0-.36-1.29l-2.88-.29v4.5h-7.77c-1.73,0-3.24-.04-7.02-0.18l0.44,1.26c3.99-.15,5.18-0.18,6.58-0.18h7.77v2.84h-6.44l-2.52-1.33v7.52a0.537,0.537,0,0,0,.62.4,1.3,1.3,0,0,0,1.51-1.05v-0.64h6.83v3.06h-4.82c-1.9,0-3.13-.04-6.33-0.18l0.47,1.18c2.98-.1,4.24-0.14,5.86-0.14h4.82v3.17h-7.91c-1.84,0-3.38-.04-7.16-0.22Zm7.78-9v-3.17h6.83v3.17h-6.83Zm9.1,12.02v-3.2h7.56v3.2h-7.56Zm0-4.06v-3.17h7.56v3.17h-7.56Zm0-7.96v-3.17h6.87v3.17h-6.87Zm49.45-10.15a1.773,1.773,0,0,0-1.23.25,0.245,0.245,0,0,0,.26.18,5.7,5.7,0,0,1,3.41,2.7,1.04,1.04,0,0,0,.8.72,1.224,1.224,0,0,0,1.18-1.22C1100.41,1296.51,1098.22,1295.21,1095.99,1295.21Zm-3.67,1.55a1.455,1.455,0,0,0-1.23.29c0,0.07.04,0.1,0.22,0.14a5.651,5.651,0,0,1,3.38,2.74,0.941,0.941,0,0,0,.83.72,1.327,1.327,0,0,0,1.19-1.23C1096.71,1298.13,1094.48,1296.76,1092.32,1296.76Zm5.39,15.44a4.655,4.655,0,0,1,2.49.65,1.106,1.106,0,0,0,.93.5c0.87,0,1.48-1.01,1.48-2.44a7.672,7.672,0,0,0-7.95-7.42c-0.94,0-1.41.11-1.41,0.32,0,0.11.04,0.11,0.4,0.15,3.06,0.21,6.22,3.2,6.22,5.9,0,0.58-.28.87-1.18,1.19a18.981,18.981,0,0,1-2.67.65c-0.47.07-.54,0.14-0.54,0.36a0.284,0.284,0,0,0,.29.25,1.5,1.5,0,0,0,.36-0.04C1096.2,1312.24,1097.43,1312.2,1097.71,1312.2Zm-17.74-14.29c1.44,0,2.2.83,2.2,2.45a35.526,35.526,0,0,1-.54,4.5,32.727,32.727,0,0,1-5.97,1.29,1.536,1.536,0,0,1-1.55-.93,0.454,0.454,0,0,0-.36-0.36c-0.18,0-.29.21-0.29,0.61,0,1.55,1.04,3.02,2.12,3.02a3.019,3.019,0,0,0,1.26-.39c1.44-.61,3.42-1.44,4.54-1.84-1.91,5.8-4.68,10.91-7.52,13.72a1.529,1.529,0,0,0-.58,1.08,1.306,1.306,0,0,0,1.4,1.33,2.114,2.114,0,0,0,1.77-1.08,44.174,44.174,0,0,0,2.48-4.5,83.325,83.325,0,0,0,4.39-11.2,9.641,9.641,0,0,1,3.17-.79c1.36,0,2.08,1.3,2.08,3.64a22.7,22.7,0,0,1-1.11,7.09c-0.76,2.23-1.76,3.38-2.99,3.38-0.68,0-1.58-.54-2.91-1.8a1.222,1.222,0,0,0-.58-0.39,0.379,0.379,0,0,0-.21.32,1.321,1.321,0,0,0,.5.79c1.3,1.59,1.62,2.2,1.83,3.39,0.08,0.61.18,0.75,0.69,0.75a5.749,5.749,0,0,0,3.96-1.94c1.65-2.02,2.84-6.34,2.84-10.3a8.812,8.812,0,0,0-.76-4.24,3.688,3.688,0,0,0-3.09-1.66,10.776,10.776,0,0,0-3.1.58,31.281,31.281,0,0,0,1.12-5.48,1.517,1.517,0,0,0-1.01-1.33,4.459,4.459,0,0,0-2.34-.75c-0.68,0-2.01.61-2.01,0.97a0.167,0.167,0,0,0,.14.11,1.027,1.027,0,0,0,.29-0.04h0.14Zm59.02,6.26a1.487,1.487,0,0,0-1.22.26c0,0.1.03,0.1,0.25,0.14a6.086,6.086,0,0,1,3.53,2.95,0.73,0.73,0,0,0,.72.54,1.233,1.233,0,0,0,1.18-1.26C1143.45,1305.47,1141.22,1304.17,1138.99,1304.17Zm-3.6,1.88a1.429,1.429,0,0,0-1.18.25c0,0.07.03,0.11,0.28,0.14a5.884,5.884,0,0,1,3.39,2.77,0.9,0.9,0,0,0,.79.65,1.249,1.249,0,0,0,1.19-1.19C1139.86,1307.34,1137.62,1306.05,1135.39,1306.05Zm-3.52-6.63c-3.64.83-6.34,1.55-11.66,3.17a6.752,6.752,0,0,1-2.59.54c-1.26,0-1.98-.36-2.31-1.15a0.175,0.175,0,0,0-.18-0.18,0.217,0.217,0,0,0-.21.25,4.034,4.034,0,0,0,.72,2.48,4.975,4.975,0,0,0,2.59,1.41,2.791,2.791,0,0,0,1.83-.83,36.4,36.4,0,0,1,7.24-3.38,19.989,19.989,0,0,1,4.06-1.05,0.162,0.162,0,0,1,.18.15,0.273,0.273,0,0,1-.18.25c-3.38,2.99-5.93,9.03-5.93,14.14,0,4.76,3.74,7.64,10,7.64,2.27,0,3.17-.29,3.17-1.05a2.987,2.987,0,0,0-.62-1.4,1.7,1.7,0,0,0-1.36-.58,1.4,1.4,0,0,0-.44.04,12.271,12.271,0,0,1-2.48.21c-4.32,0-5.97-1.62-5.97-5.86a23.862,23.862,0,0,1,1.01-6.95,10.7,10.7,0,0,1,4.53-5.94,11.059,11.059,0,0,1,4.21-.94,10.428,10.428,0,0,1,2.52.36,2.65,2.65,0,0,0,1.08.26,0.811,0.811,0,0,0,.93-0.65,3.052,3.052,0,0,0-.93-1.62,2.463,2.463,0,0,0-1.87-1.05c-0.51,0-.51,0-4.25.94Zm32.32-2.45a0.518,0.518,0,0,1,.25-0.03c1.26,0,2.05.47,3.09,1.8a25.38,25.38,0,0,1,2.3,3.31,13.379,13.379,0,0,1-5.14,1.04c-1.33,0-2.12-.43-2.34-1.29-0.04-.15-0.07-0.18-0.18-0.18a0.359,0.359,0,0,0-.29.43c0,1.33,1.48,2.3,3.56,2.3a19.935,19.935,0,0,0,5.37-.86c1.29,2.2,1.54,2.66,2.08,3.74a23.286,23.286,0,0,1-8.45,1.66c-1.77,0-3.21-.61-3.6-1.58-0.22-.47-0.25-0.51-0.4-0.51a0.312,0.312,0,0,0-.25.36c0,1.98,1.55,3.21,4,3.21a35.017,35.017,0,0,0,9.71-1.59c1.91,3.24,2.92,5.26,2.92,5.98a0.616,0.616,0,0,1-.65.61,2.414,2.414,0,0,1-1.01-.29,15.754,15.754,0,0,0-5.36-1.08c-4.39,0-7.16,1.87-7.16,4.82a4.682,4.682,0,0,0,3.24,4.4,17.073,17.073,0,0,0,5.68.9c2.27,0,3.17-.47,3.17-1.59,0-.79-0.4-1.01-1.73-1.01-0.32,0-.72,0-1.29.04-0.69.04-1.23,0.04-1.66,0.04-3.53,0-5.43-1.05-5.43-3.03,0-2.23,1.98-3.71,4.96-3.71a11.44,11.44,0,0,1,7.56,2.74,1.294,1.294,0,0,0,.93.61,2.31,2.31,0,0,0,1.95-2.48,4.687,4.687,0,0,0-1.44-3.13,48.227,48.227,0,0,1-3.42-4.32,31.016,31.016,0,0,0,3.78-1.59c2.3-1.08,2.95-1.58,2.95-2.12s-1.22-1.12-2.34-1.12a1.1,1.1,0,0,0-.83.54,18.278,18.278,0,0,1-4.6,2.67c-0.72-1.08-1.16-1.84-2.13-3.46,2.49-.97,3.85-1.87,3.85-2.45a1.96,1.96,0,0,0-1.69-1.18,2.007,2.007,0,0,0-1.11.61,7.014,7.014,0,0,1-1.95,1.37c-1.33-2.24-1.65-3.06-1.69-4.14a1.18,1.18,0,0,0-.36-1.19,4.73,4.73,0,0,0-2.77-.94,2.724,2.724,0,0,0-2.08,1.01,1.04,1.04,0,0,0-.44.58,0.16,0.16,0,0,0,.15.14Zm49.44,23.91a1.057,1.057,0,0,1-.29.03,5.014,5.014,0,0,1-.97.07c-2.01,0-3.31-.75-3.31-1.9a1.423,1.423,0,0,1,1.62-1.37C1212.26,1317.71,1213.24,1318.75,1213.63,1320.88Zm2.2-.51c-0.08-.18-0.08-0.18-0.11-0.25a4.753,4.753,0,0,0-.97-1.69,5.288,5.288,0,0,0-4.07-1.84c-2.05,0-3.38,1.05-3.38,2.67,0,1.94,2.08,3.31,5.07,3.31a12.182,12.182,0,0,0,7.49-2.59,7.3,7.3,0,0,0,2.59-5.69,6.606,6.606,0,0,0-6.98-6.7,12.723,12.723,0,0,0-4.57.87,7.214,7.214,0,0,1-1.05.43,0.463,0.463,0,0,1-.18.07,0.306,0.306,0,0,1-.21-0.29c0-.32.54-1,2.16-2.84,2.95-3.28,4.75-4.86,6.26-5.54a0.8,0.8,0,0,0,.54-0.76c0-.97-2.45-2.63-3.85-2.63a1.675,1.675,0,0,0-1.19.43,20.451,20.451,0,0,1-7.13,2.52,1.26,1.26,0,0,1-1.33-.9c-0.03-.25-0.07-0.28-0.14-0.28-0.22,0-.29.18-0.29,0.82,0,1.44,1.12,2.88,2.27,2.88a2.261,2.261,0,0,0,1.29-.61c3.46-2.41,4.39-2.91,5.47-2.91a0.727,0.727,0,0,1,.76.79c0,0.54,0,.57-2.02,3.17-4.93,6.55-5.36,7.05-9.82,11.66a2.643,2.643,0,0,0-.97,1.55,2.052,2.052,0,0,0,1.47,1.72,1.382,1.382,0,0,0,1.26-.93,16.112,16.112,0,0,1,2.2-3.6c2.27-3.06,4.6-4.32,7.99-4.32,3.45,0,5.36,1.91,5.36,5.33a7.072,7.072,0,0,1-1.05,3.78A5.863,5.863,0,0,1,1215.83,1320.37Zm31.49-5.65a4.057,4.057,0,0,1-.44,1.87,1.341,1.341,0,0,0-.14.54,2.669,2.669,0,0,0,1.01,1.33,6.383,6.383,0,0,0,1.47.98,1.042,1.042,0,0,0,.65-0.47,7.577,7.577,0,0,1,2.3-1.62,35.509,35.509,0,0,0,7.81-5.08,40.307,40.307,0,0,0,7.74-8.31,12.7,12.7,0,0,0,1.33-2.45,0.449,0.449,0,0,0-.29-0.4c-0.14,0-.18.04-0.5,0.51-4.43,6.05-14.61,13.82-18.14,13.82-0.68,0-.79-0.4-0.79-2.59,0-1.69.15-3.78,0.4-6.59a7.176,7.176,0,0,1,.68-2.63,1,1,0,0,0,.22-0.46,1.013,1.013,0,0,0-.54-0.58,4.633,4.633,0,0,1-.65-0.5,5.312,5.312,0,0,0-2.84-1.34,2.987,2.987,0,0,0-1.8.47,0.4,0.4,0,0,0,.29.22,2.829,2.829,0,0,1,2.19,2.81c0,0.14,0,.61.04,1.29v9.18Zm50.49-5a47.732,47.732,0,0,0,4.64-7.6c0.39-.29.57-0.39,0.75-0.54a0.61,0.61,0,0,0,.4-0.43c0-.25-0.18-0.43-1.12-1.15-1.22-.97-1.72-1.26-2.05-1.26a0.792,0.792,0,0,0-.54.21,7.219,7.219,0,0,1-2.77,1.16,54.5,54.5,0,0,1-6.69,1.04c-1.22,0-2.27-.4-2.48-0.9a0.232,0.232,0,0,0-.18-0.18c-0.22,0-.33.29-0.33,0.94a1.679,1.679,0,0,0,.9,1.65,5.67,5.67,0,0,1,.51.4,1.6,1.6,0,0,0,.93.43,2.787,2.787,0,0,0,.79-0.22c3.17-1.18,6.98-2.23,8.24-2.23a0.547,0.547,0,0,1,.61.51,10.19,10.19,0,0,1-1.25,3.16,31.628,31.628,0,0,1-15.55,15.34c-0.57.21-.65,0.25-0.65,0.43a0.516,0.516,0,0,0,.51.4,19.32,19.32,0,0,0,4.57-1.8,28,28,0,0,0,10.32-8.75,13.837,13.837,0,0,1,7.2,7.74c0.43,1.19.86,1.62,1.58,1.62a1.641,1.641,0,0,0,1.51-1.8c0-1.51-1.07-3.17-3.09-4.79A16.21,16.21,0,0,0,1297.81,1309.72Zm38.39-3.85a12.153,12.153,0,0,1,6.55,5.04c0.83,1.33,1.26,1.65,2.02,1.65a1.416,1.416,0,0,0,1.44-1.51c0-1.12-.87-2.23-2.74-3.49a14.374,14.374,0,0,0-7.27-2.27c0.08-3.89.29-5.47,0.83-6.41a1.733,1.733,0,0,0,.18-0.65,1.093,1.093,0,0,0-.68-0.79c-1.48-.97-1.98-1.22-2.48-1.22a8.621,8.621,0,0,0-2.13.57,0.385,0.385,0,0,0-.29.33,0.281,0.281,0,0,0,.33.29,1.753,1.753,0,0,1,1.69.9c0.4,0.64.54,1.9,0.54,5.11,0,6.8-.25,14.58-0.58,16.48-0.03.36-.07,0.65-0.07,0.87,0,0.86,1.19,2.45,1.84,2.45,0.68,0,1.22-1.08,1.22-2.56,0-.29-0.04-0.83-0.11-1.51-0.18-2.49-.25-5.73-0.25-11.81Zm46.9-6.23c0.54-.07,1.11-0.15,1.79-0.22,1.3-.11,1.59-0.25,1.59-0.68a1.327,1.327,0,0,0-.94-0.97,3.881,3.881,0,0,0-1.72-.69,2.735,2.735,0,0,0-1.26.4,28.468,28.468,0,0,1-7.99,1.33c-1.3,0-2.02-.25-2.45-0.86a0.187,0.187,0,0,0-.14-0.15,0.169,0.169,0,0,0-.15.18,5.54,5.54,0,0,0,.69,1.48,2.7,2.7,0,0,0,2.66,1.29,31.374,31.374,0,0,0,5.18-.64c1.3-.22,2.2-0.36,2.34-0.4Zm5.43,7.41c1.08-.79,1.26-0.97,1.26-1.22,0-.54-2.45-2.52-3.13-2.52a2.149,2.149,0,0,0-.65.18,11.722,11.722,0,0,1-3.89,1.04c-0.46.08-2.12,0.26-4.96,0.54-4.18.44-4.18,0.44-4.72,0.44-1.36,0-2.62-.54-2.87-1.23-0.08-.21-0.11-0.25-0.22-0.25-0.18,0-.29.18-0.29,0.47a3.474,3.474,0,0,0,.9,2.23,3.911,3.911,0,0,0,1.98,1.22,1.165,1.165,0,0,0,.54-0.14,47.638,47.638,0,0,1,6.05-1.55,58.367,58.367,0,0,1,6.04-.79,0.926,0.926,0,0,1,1.12.9c0,0.68-.51,1.91-1.8,4.32a24.566,24.566,0,0,1-6.77,7.49,24.874,24.874,0,0,1-7.16,3.67c-0.21.03-.29,0.11-0.29,0.21a0.509,0.509,0,0,0,.54.36c1.37,0,4.54-1.18,7.06-2.62C1382.27,1316.88,1385.04,1313.75,1388.53,1307.05Zm27.53,11.92a50.546,50.546,0,0,0,8.21-5.65,54.2,54.2,0,0,0,7.41-7.45c1.69-2.09,3.24-4.47,3.24-5.01a0.288,0.288,0,0,0-.26-0.32,0.806,0.806,0,0,0-.61.54c-0.32.43-2.26,2.63-2.88,3.27a68.313,68.313,0,0,1-6.47,5.73c-5.04,4.03-9.18,6.58-10.62,6.58a2.433,2.433,0,0,1-2.05-1.72,0.3,0.3,0,0,0-.25-0.26c-0.25,0-.43.51-0.43,1.19a2.574,2.574,0,0,0,.86,2.16,5.193,5.193,0,0,0,2.48,1.8A2.493,2.493,0,0,0,1416.06,1318.97Zm-3.52-18.72c-1.01,0-1.62.14-1.62,0.4a0.352,0.352,0,0,0,.32.25,7.421,7.421,0,0,1,5.29,4.25,1.12,1.12,0,0,0,1.04.79,1.454,1.454,0,0,0,1.59-1.48C1419.16,1302.37,1415.85,1300.25,1412.54,1300.25Zm60.42,3.92a1.5,1.5,0,0,0-1.23.26c0,0.1.04,0.1,0.25,0.14a6.055,6.055,0,0,1,3.53,2.95,0.738,0.738,0,0,0,.72.54,1.235,1.235,0,0,0,1.19-1.26C1477.42,1305.47,1475.19,1304.17,1472.96,1304.17Zm-3.6,1.88a1.46,1.46,0,0,0-1.19.25c0,0.07.04,0.11,0.29,0.14a5.863,5.863,0,0,1,3.38,2.77,0.91,0.91,0,0,0,.79.65,1.249,1.249,0,0,0,1.19-1.19C1473.82,1307.34,1471.59,1306.05,1469.36,1306.05Zm-3.53-6.63c-3.63.83-6.33,1.55-11.66,3.17a6.752,6.752,0,0,1-2.59.54c-1.26,0-1.98-.36-2.3-1.15a0.186,0.186,0,0,0-.18-0.18,0.224,0.224,0,0,0-.22.25,4.1,4.1,0,0,0,.72,2.48,5.013,5.013,0,0,0,2.59,1.41,2.829,2.829,0,0,0,1.84-.83,36.259,36.259,0,0,1,7.23-3.38,19.885,19.885,0,0,1,4.07-1.05,0.162,0.162,0,0,1,.18.15,0.29,0.29,0,0,1-.18.25c-3.38,2.99-5.94,9.03-5.94,14.14,0,4.76,3.74,7.64,10,7.64,2.27,0,3.17-.29,3.17-1.05a2.965,2.965,0,0,0-.61-1.4,1.709,1.709,0,0,0-1.37-.58,1.334,1.334,0,0,0-.43.04,12.387,12.387,0,0,1-2.48.21c-4.32,0-5.98-1.62-5.98-5.86a24.2,24.2,0,0,1,1.01-6.95c0.83-2.56,2.74-5.04,4.53-5.94a11.1,11.1,0,0,1,4.21-.94,10.359,10.359,0,0,1,2.52.36,2.681,2.681,0,0,0,1.08.26,0.822,0.822,0,0,0,.94-0.65,3.089,3.089,0,0,0-.94-1.62,2.463,2.463,0,0,0-1.87-1.05c-0.5,0-.5,0-4.24.94Zm39.01,8.71c0.76,0.08,1.08.69,1.08,2.06,0,3.56-.54,5.21-1.73,5.21-1.11,0-2.01-1.51-2.01-3.38a4.889,4.889,0,0,1,1.01-3.09A2.473,2.473,0,0,1,1504.84,1308.13Zm6.77-6.55-2.13.29-1.11.18-0.47.07c0.22-3.17.29-3.63,0.76-4.64a2.106,2.106,0,0,0,.28-0.83c0-.32-0.28-0.61-1.22-1.19a3.4,3.4,0,0,0-1.91-.75c-0.75,0-2.37.61-2.37,0.93a0.222,0.222,0,0,0,.25.15,1.92,1.92,0,0,1,1.94,1.15c0.26,0.54.29,0.93,0.44,5.43-2.27.26-4.54,0.58-8.1,1.26a25.608,25.608,0,0,1-4.68.72,2.172,2.172,0,0,1-2.27-1.47c-0.03-.15-0.07-0.18-0.18-0.18-0.18,0-.21.11-0.21,0.47a3.016,3.016,0,0,0,.79,2.48,3.617,3.617,0,0,0,2.05,1.19,2.975,2.975,0,0,0,1.4-.43c2.85-1.37,6.05-2.24,11.23-3.06-0.03.82-.03,1.04-0.03,1.8,0,0.82,0,1.18.03,2.12a2.68,2.68,0,0,0-1.4-.36c-2.2,0-4,2.41-4,5.4,0,2.55,1.73,4.86,3.67,4.86,0.87,0,1.41-.58,1.91-2.05l0.33,0.1c-0.44,4.65-2.81,7.67-7.13,9.15-0.29.07-.36,0.14-0.36,0.25a0.277,0.277,0,0,0,.32.29,10.711,10.711,0,0,0,5.04-1.95c3.2-2.23,4.54-5.14,4.54-9.82a14.375,14.375,0,0,0-.36-3.53,3.651,3.651,0,0,0-1.05-1.48v-1.04c0-.83.04-1.26,0.22-3.89,1.65-.14,2.34-0.18,3.17-0.18a33.914,33.914,0,0,1,6.15.76c0.21,0.03.39,0.07,0.5,0.07a0.886,0.886,0,0,0,.79-0.86,1.785,1.785,0,0,0-.9-1.26,4.094,4.094,0,0,0-2.51-.8,10.672,10.672,0,0,1-4.36-1.54,1.286,1.286,0,0,0-.54-0.26,0.227,0.227,0,0,0-.21.22,0.594,0.594,0,0,0,.36.36,20.612,20.612,0,0,1,2.23,1.73Z" transform="translate(-569.812 -1198.62)"/>
</svg>
