<svg xmlns="http://www.w3.org/2000/svg" viewBox="0 0 443.23 80.93"><defs><style>.cls-1{fill:#343434;}</style></defs><title>catch-copy</title><g id="Layer_2" data-name="Layer 2"><g id="Layer_1-2" data-name="Layer 1"><path class="cls-1" d="M42.41,10.69l-3.24.07c-.47,0-1.91.07-3.42.11l-.43-1.22c4.35.1,4.86.14,7.09.18h6.91V.43l3.17.22a.74.74,0,0,1,.72.61.84.84,0,0,1-.44.68l-1,.65V9.83h8.89l2.3-2.52,3,2.34a.67.67,0,0,1,.29.54.44.44,0,0,1-.44.5h-14A27.71,27.71,0,0,0,67.57,25.27a7.64,7.64,0,0,0-3.17,2.81C57.85,23.47,55,20.05,51.73,13V31.57a.74.74,0,0,1-.36.72,5.72,5.72,0,0,1-1.69.36c-.25,0-.36-.15-.36-.4V14.83a46.14,46.14,0,0,1-9.43,10.76c-2.23,1.87-4.9,3.67-5.4,3.67a.39.39,0,0,1-.36-.36c0-.21.43-.61,1.65-1.58a48.34,48.34,0,0,0,12.6-16.63Z"/><path class="cls-1" d="M93.17,7.52a34.45,34.45,0,0,1,.5,4.21,19,19,0,0,1-4.21,11c-2,2.56-3.89,3.85-5.65,3.85a3.12,3.12,0,0,1-2.41-1.33,7.82,7.82,0,0,1-1.8-5.43c0-7.35,6.33-13.36,14.11-13.36,6.84,0,11.59,4.29,11.59,10.48,0,5.47-3.24,9.9-8.71,11.88A20.85,20.85,0,0,1,91.83,30c-.21,0-.43-.15-.43-.33s.11-.14.58-.25A15.82,15.82,0,0,0,98.53,26a12.48,12.48,0,0,0,4-9.64c0-3.17-1-5.51-2.95-7a9.24,9.24,0,0,0-5.4-1.8h-.33l-.36,0ZM81.65,19.91c0,2.59,1,4.49,2.27,4.49,1.51,0,4.31-2.8,6-6a21.69,21.69,0,0,0,2.45-8.17,7.11,7.11,0,0,0-.43-2.3l-.11-.25A12.3,12.3,0,0,0,81.65,19.91Z"/><path class="cls-1" d="M128,6.51l.76.33-5.08,14.9a7.47,7.47,0,0,0-.5,2.77,17.15,17.15,0,0,0,.46,4,8,8,0,0,1,.22,1.59A2,2,0,0,1,122,32.11c-.93,0-1.47-.65-1.47-1.8,0-.18,0-.18.32-2.67a8.43,8.43,0,0,0,.11-1.29,2.76,2.76,0,0,0-2.63-3.1v-.79a13.76,13.76,0,0,1,2.52.22Zm-9.22,2.6c2.85.57,4.72,2.16,4.72,4A1.69,1.69,0,0,1,122,14.9a1.1,1.1,0,0,1-.9-.57c-.1-.15-.1-.15-.54-2a6.13,6.13,0,0,0-2-3ZM121.07,1c3.13.36,5.15,2,5.15,4.25a1.35,1.35,0,0,1-1.41,1.41c-.79,0-.9-.15-1.47-2.2A5.14,5.14,0,0,0,121,1.4Zm3.56,29.45c1.84.07,2.09.11,3.67.14V18.54l2.45,1.26h13.72l1-1.48,2.16,2.13A.94.94,0,0,1,148,21c0,.14-.18.35-.44.46l-.79.33v8.85h.4L149,28.18l2.09,2.2a1,1,0,0,1,.33.65.43.43,0,0,1-.44.47H129.27c-2.55.07-3.41.1-4.28.1Zm8.21-27.32h10.37l1.26-1.51,2.12,2.08a1.12,1.12,0,0,1,.25.51c0,.29-.18.46-.5.57l-.58.18V15.77c0,.32-.11.5-.57.72a2.54,2.54,0,0,1-1.05.32c-.32,0-.57-.18-.57-.4V14.87H132.23V16.7c0,.47-.08.61-.62.79a3.15,3.15,0,0,1-1.08.26c-.32,0-.43-.18-.43-.54V1.58Zm.9,27.46v-10h-3.28v10Zm9.83-22.1V4H132.23v4.5Zm0,5.47V9.39H132.23V14ZM139.1,30.63v-10h-3.27v10Zm5.44,0v-10h-3.39v10Z"/><path class="cls-1" d="M174,20.12a5,5,0,0,0,1.87-.29,1.47,1.47,0,0,1,.32-.1,3.09,3.09,0,0,1,1,.75,1.11,1.11,0,0,1,.43.83c0,.61-.5,1-1.4,1A19.71,19.71,0,0,1,172.4,22a16.34,16.34,0,0,0-.07,1.72c0,3.53,1.87,5.62,5,5.62,3,0,4.82-1.76,4.82-4.57a9.58,9.58,0,0,0-1.9-5.69,24.33,24.33,0,0,0-2.52-2.55c-.18-.11-.26-.18-.26-.26s.15-.18.29-.18a8.86,8.86,0,0,1,2.77,1.7c2.74,2.26,4.18,4.82,4.18,7.48,0,3.64-2.77,6.12-6.88,6.12a7.74,7.74,0,0,1-5-1.76,6.6,6.6,0,0,1-2-5.26,14.49,14.49,0,0,1,.22-2.62c-2.49-.65-3.71-1.7-3.71-3.21a4.32,4.32,0,0,1,1.87-3.24,22.07,22.07,0,0,1,3.46-2.16,8.94,8.94,0,0,1,.18-.9c-2.74-.75-3.46-1.11-4.54-2.3a2.81,2.81,0,0,1-.68-2c0-.29.11-.4.29-.4s.18,0,.21.22c.07.86,2,1.91,5.08,2.77.07-.43.18-.9.25-1.37s.14-.68.21-1a14.41,14.41,0,0,0,.4-2.55,2.39,2.39,0,0,0-2-2.7c-.1,0-.14-.07-.14-.14,0-.22,1.19-.72,1.73-.72a6,6,0,0,1,2.52,1.29c.86.69,1.19,1.19,1.19,1.77s-.15.86-.9,2.41c-.69,1.36-1,2-1.59,3.38a6,6,0,0,0,1.41.14,1.11,1.11,0,0,1,1,.47,2.15,2.15,0,0,1,.5,1.19c0,.47-.21.58-1.11.58a8.74,8.74,0,0,0-2.95.5,55.16,55.16,0,0,0-1.23,6.3C173.27,20.08,173.59,20.12,174,20.12Zm-1.48-5.61c-2.34,1.47-3.28,2.48-3.28,3.63,0,.9.58,1.33,2.2,1.69C171.61,18.79,172.19,16,172.51,14.51Z"/><path class="cls-1" d="M216.21,12.63a12.36,12.36,0,0,0-1.9,5.87,5.12,5.12,0,0,0,.32,1.87c.14.29.14.29.14.47a1.4,1.4,0,0,1-1.18,1.55c-1.19,0-2.13-2.52-2.13-5.83a26.59,26.59,0,0,1,1.26-7.74,21.88,21.88,0,0,0,.94-4.14,2.38,2.38,0,0,0-2.3-2c-.22,0-.29,0-.29-.11,0-.29,1.29-.68,2.12-.68A3.84,3.84,0,0,1,215.78,3c.65.57,1,1,1,1.4,0,.51-.1.76-.75,1.66a19.8,19.8,0,0,0-2.92,8.82c0,.39.15.64.4.64s.43-.18.61-.64a17.93,17.93,0,0,1,2-3.75c1.26-1.69,2.74-2.62,4.21-2.62,3.1,0,4.86,3.41,4.86,9.35s-2.55,10.26-7.27,12.67a14.92,14.92,0,0,1-4.82,1.55c-.33,0-.68-.25-.68-.5s.1-.15.28-.18a10.11,10.11,0,0,0,5.19-2.31c3.16-2.59,4.75-6.62,4.75-11.91,0-4.72-.94-7.16-2.77-7.27C218.63,9.83,217.26,10.87,216.21,12.63Z"/><path class="cls-1" d="M262,13.28a8.36,8.36,0,0,1,6-3.09c2.49,0,4.36,1.44,4.36,3.31a2,2,0,0,1-.9,1.83c-.72.54-1,.65-4.14,1.91a63.93,63.93,0,0,0-7.38,3.35c.14,1.87.18,2.74.18,3.2,0,1.69-.36,2.16-1.73,2.16-.4,0-.61-.14-.61-.36a1.46,1.46,0,0,1,0-.29,25.53,25.53,0,0,0,.15-3.7c-3,1.83-4.18,3.16-4.18,4.71,0,1.73,1.66,2.41,5.69,2.41a19.54,19.54,0,0,0,5.08-.61,3,3,0,0,1,.9-.18,1.84,1.84,0,0,1,1.65,1.41c0,1.15-2.27,1.72-7,1.72a11.41,11.41,0,0,1-5.65-1,4.08,4.08,0,0,1-2.38-3.49c0-1.51.94-2.81,3.06-4.25.58-.4.58-.4,2.77-1.69a12.89,12.89,0,0,0-.43-4.39A1.77,1.77,0,0,0,255.85,15c-1.37,0-3.71,2.16-5.43,5-.4.65-.76,1-1.16,1s-1.18-1.16-1.18-2c0-.47.14-.68.82-1.26,3.67-3.13,6-6.62,6.66-9.79a11.68,11.68,0,0,1-3,.58,2.09,2.09,0,0,1-1.77-1.23,4.78,4.78,0,0,1-.53-1.33c0-.07.07-.15.1-.15s.11.08.18.15a2.27,2.27,0,0,0,2,.94,8.87,8.87,0,0,0,3.17-.58,6.32,6.32,0,0,0,.11-1,1.66,1.66,0,0,0-1.66-1.87c-.1,0-.14,0-.14-.15,0-.32,1.15-.86,1.8-.86a2.43,2.43,0,0,1,2.3,2.05,4.08,4.08,0,0,1-.28,1.29,4.68,4.68,0,0,0,2.23-1.15c1.15.58,1.51.83,1.51,1.08,0,.44-.65.72-4,1.7a39.75,39.75,0,0,1-4,7.37,5.81,5.81,0,0,1,2.3-.61,3.21,3.21,0,0,1,2.56,1.19,5.63,5.63,0,0,1,.93,2.05A16.28,16.28,0,0,1,262,13.28Zm2.38,3.64c4-2.23,4-2.23,4.42-2.59a1.9,1.9,0,0,0,.69-1.23,2.09,2.09,0,0,0-2.09-1.73A6.57,6.57,0,0,0,263,13.75a18.36,18.36,0,0,0-3.1,5.44,1,1,0,0,0-.07.28C260.89,18.83,260.89,18.83,264.35,16.92Z"/><path class="cls-1" d="M291.06,5.25h12.42C303.19,3,303.15,2.56,303,0l2.88.18c.72,0,1.08.25,1.08.61a1.07,1.07,0,0,1-.46.76l-1,.79a20.8,20.8,0,0,0,.18,2.91H312l2-2.37,3,2.55a.49.49,0,0,1,.15.33.36.36,0,0,1-.36.36H305.71a25.86,25.86,0,0,0,1.91,8.57,41.38,41.38,0,0,0,3.31-6.12l2.41,1.54a.89.89,0,0,1,.32.65c0,.4-.28.65-.75.72l-.83.11a38.81,38.81,0,0,1-3.56,5,9.62,9.62,0,0,0,5.9,4.14,4.76,4.76,0,0,0,.79-1.51l1.23-2.88.54.11-.51,3.05c0,.29-.07.54-.07.76,0,.76,0,.79.94,2a1.28,1.28,0,0,1,.18.61c0,.36-.51.61-1.23.61a11.88,11.88,0,0,1-6.19-2.23,12.73,12.73,0,0,1-3-3.06c-2.09,2.06-4.79,4.14-5.33,4.14a.32.32,0,0,1-.32-.32c0-.18,0-.18,1.11-1.23a31.54,31.54,0,0,0,3.64-4.1c-1.55-3.38-1.95-5-2.63-10.58h-13c0,1.58.07,2.45.07,3.49,0,4.93-.69,8.14-2.38,11.05-1,1.76-2.66,3.74-3.06,3.74a.24.24,0,0,1-.25-.25c0-.21.07-.32.5-1a20.44,20.44,0,0,0,2.45-6.7,38.29,38.29,0,0,0,.47-7c0-1.44,0-2.92-.11-5.61Zm-1.12,18.36a8.73,8.73,0,0,1,.33,2.34c0,3.13-1.41,5.62-3.13,5.62A1.22,1.22,0,0,1,286,30.38c0-.5,0-.5,1.83-2.63.9-1.08,1.23-1.83,1.77-4.07Zm10.8-16,2.34,2.09a.35.35,0,0,1,.18.32c0,.18-.11.29-.32.29h-6.77c-.94,0-.94,0-4.53.11l-.29-1.12c2.41.11,4,.14,4.82.14h2.92Zm-5.87,5.58h4.58l.86-1.41,2.2,2a.71.71,0,0,1,.21.44.52.52,0,0,1-.21.36l-.83.39v4.9c0,.36-.15.54-.54.72a5.13,5.13,0,0,1-.94.25.41.41,0,0,1-.43-.4V18.75h-5.33v1.8c0,.51-.83,1-1.58,1-.25,0-.36-.22-.36-.61V11.81ZM308.48,25l-.25,2.91-.07.72c0,.4.11.51,1,1.15.22.15.36.33.36.44a1.63,1.63,0,0,1-1,1.15c-.9.32-3.49.5-7.42.5a28,28,0,0,1-6.12-.43,1.74,1.74,0,0,1-1.29-1.69V22.82l2.37.18c.72,0,1.12.29,1.12.76a.75.75,0,0,1-.51.68l-.82.43v3.49c0,.87.1,1.08.43,1.23a4.15,4.15,0,0,0,1,.21h2.48l2.27,0,3.06-.07c1.15-.11,1.47-.43,2-2.2l.68-2.66Zm-8.71-7.13V14h-5.33v3.89Zm-1.33,4.25a8,8,0,0,1,3.42,1A3.76,3.76,0,0,1,304,26.13a1.43,1.43,0,0,1-1.26,1.55,1.13,1.13,0,0,1-.9-.43c-.15-.15-.15-.15-.8-1.73a7.11,7.11,0,0,0-2.59-3.06ZM307.76.58c2.81.39,4.36,1.4,4.36,2.8A1.17,1.17,0,0,1,311,4.68c-.47,0-.8-.25-1.12-.86a5.35,5.35,0,0,0-2.3-2.7Zm2.74,23.14a12.27,12.27,0,0,1,3.67,2c1.76,1.4,2.7,2.88,2.7,4.21a1.3,1.3,0,0,1-1.26,1.44c-.61,0-.94-.43-1.44-1.73a13.06,13.06,0,0,0-3.85-5.36Z"/><path class="cls-1" d="M355.28,23.14c0,.58-.83,1.88-2,3.21a12.42,12.42,0,0,1-9.47,4.57,7.55,7.55,0,0,1-5.75-2.2C336.6,27.18,336,25.16,336,22c0-2.08,0-2.3.72-11.52.21-2.91.21-2.91.21-3.34,0-2.16-.54-3.17-1.69-3.13-.21,0-.32-.08-.32-.18,0-.36.72-.69,1.51-.69,1.76,0,3.46,2,3.46,4.14a9.79,9.79,0,0,1-.51,2.63,72.4,72.4,0,0,0-1.47,11.84c0,4.86,1.9,7,6.22,7a13.08,13.08,0,0,0,7.6-2.77,14.29,14.29,0,0,0,2.91-2.81c.15-.25.29-.36.4-.36A.29.29,0,0,1,355.28,23.14Zm-5.11-11.69A1.25,1.25,0,0,1,349,12.63c-.36,0-.5-.1-.79-.64a6,6,0,0,0-3.49-2.78c-.18,0-.25-.07-.25-.14s.61-.25,1.33-.25C347.87,8.82,350.17,10.19,350.17,11.45Zm4-1.59a1.29,1.29,0,0,1-1.26,1.26c-.39,0-.54-.11-.93-.83a6.2,6.2,0,0,0-3.64-2.8c-.11,0-.18-.07-.18-.15s.58-.29,1.33-.29C351.83,7.05,354.2,8.5,354.2,9.86Z"/><path class="cls-1" d="M390.92,25.3A7,7,0,0,0,392,21.53c0-3.42-1.91-5.33-5.37-5.33s-5.72,1.26-8,4.32a16.07,16.07,0,0,0-2.19,3.6,1.39,1.39,0,0,1-1.26.93c-.62,0-1.48-1-1.48-1.72,0-.4.29-.83,1-1.55a86,86,0,0,0,9.83-11.67c2-2.59,2-2.62,2-3.16a.72.72,0,0,0-.75-.79c-1.08,0-2,.5-5.47,2.91a2.28,2.28,0,0,1-1.3.61c-1.15,0-2.27-1.44-2.27-2.88,0-.64.08-.83.29-.83s.11,0,.15.29a1.24,1.24,0,0,0,1.33.9,20.33,20.33,0,0,0,7.12-2.52,1.69,1.69,0,0,1,1.19-.43c1.41,0,3.85,1.66,3.85,2.63a.78.78,0,0,1-.54.75c-1.51.69-3.31,2.27-6.26,5.55-1.62,1.83-2.16,2.52-2.16,2.84,0,.11.11.29.22.29a1.2,1.2,0,0,0,.18-.07,9.07,9.07,0,0,0,1-.43,12.72,12.72,0,0,1,4.57-.87c4.07,0,7,2.81,7,6.7a7.26,7.26,0,0,1-2.6,5.68,12.16,12.16,0,0,1-7.48,2.6c-3,0-5.08-1.37-5.08-3.32,0-1.62,1.33-2.66,3.39-2.66A5.27,5.27,0,0,1,387,25.74c.36.39.36.39,1,1.69a1.34,1.34,0,0,1,.11.25A5.91,5.91,0,0,0,390.92,25.3Zm-8-.28c-1,0-1.63.54-1.63,1.36,0,1.16,1.3,1.91,3.32,1.91a5.06,5.06,0,0,0,1-.07.83.83,0,0,0,.29,0C385.45,26.06,384.48,25,382.9,25Z"/><path class="cls-1" d="M7.63,63.26c2.27,0,3.24-.32,4.25-1.44a6,6,0,0,0,1.26-4.14c0-3.35-1.62-5.18-4.57-5.18-2.16,0-4.18,1.26-4.18,2.63a4.27,4.27,0,0,0,.11.79,4.75,4.75,0,0,1,.11.9,1.72,1.72,0,0,1-1.77,1.83A1.84,1.84,0,0,1,1,56.57c0-1.37.8-2.63,2.38-3.75a8.9,8.9,0,0,1,5.51-1.55,7.75,7.75,0,0,1,5.14,1.55,5.81,5.81,0,0,1,2.34,4.79,6,6,0,0,1-2.26,4.86,13.45,13.45,0,0,1-3.6,1.58c4.06.54,6.4,3,6.4,6.81,0,4.35-3.49,7.2-8.82,7.2a9.59,9.59,0,0,1-4.75-1A5.79,5.79,0,0,1,0,72.26a2.18,2.18,0,0,1,2.12-2.41,1.86,1.86,0,0,1,1.88,2c0,.51,0,.51-.51,1.73a1.9,1.9,0,0,0-.11.54c0,1.37,2.2,2.66,4.5,2.66a5.9,5.9,0,0,0,4.25-1.65,6.28,6.28,0,0,0,1.37-4.25c0-3.89-2.27-6.3-5.91-6.3l-2.73,0v-1.3Z"/><path class="cls-1" d="M34.2,78.27c3.78.18,5.33.22,7.09.22h7.92v-5.4H44.14c-1.41,0-2.63,0-5.73.14l-.5-1.15c3.2.11,4.46.14,6.23.14h5.07v-5c-.86.11-1.73.18-2.59.25-1.62.11-2.92.22-3.67.29s-1.73.14-2.56.18l-.47.72a1,1,0,0,1-.64.5c-.18,0-.36-.14-.58-.54l-1.73-3c1.51,0,2.77.08,3.46.08,1.19,0,1.19,0,4.14-.08a47.53,47.53,0,0,0,2.34-6.12H44c-1.33,0-2.19,0-4.32.11l-.5-1.11c2.41.1,3.2.14,4.82.14H55.44l2-2.3,3,2.16a.56.56,0,0,1,.22.5c0,.29-.11.5-.29.5H50.29c-2,3-2.27,3.39-4.25,6.12l3.39,0c4.64-.08,4.93-.08,9-.36a21.67,21.67,0,0,0-4.79-3.49l.29-.51c3.74,1.19,5.29,1.8,6.62,2.63,1.8,1,3.17,2.84,3.17,4.1a1.32,1.32,0,0,1-1.26,1.41c-.47,0-.69-.15-1.05-.65a23.81,23.81,0,0,0-2.08-2.59c-3.75.46-4.29.54-7.53.82v5.22h6.77l1.8-2,2.77,2a.54.54,0,0,1,.22.44c0,.18-.15.43-.26.43H51.8v5.4h9.65l2.16-2.41,3.2,2.34a.49.49,0,0,1,.22.43c0,.25-.18.5-.36.5H41.29c-1.58,0-3,0-6.48.18Zm4.32-27,.11.39c.11.4.21.8.32,1.23l0,.07H49.32V48.47l3.2.36c.4,0,.61.21.61.54a.91.91,0,0,1-.57.72l-.72.43v2.41h9.28l1.16-1.51,3.49,2.84a1.28,1.28,0,0,1,.43.9c0,.43-.29.65-.83.65h-1.8l-3.45,1.94-.25-.28,1.51-3.68H39.13c0,.51.07,1.05.07,1.3,0,2.34-1.26,4.14-2.84,4.14A1.33,1.33,0,0,1,34.88,58c0-.5,0-.5,1.8-2.48a5.29,5.29,0,0,0,1.08-3.49v-.83Z"/><path class="cls-1" d="M80.64,50.63h5.11l.94-1.41,2.66,2.2a.84.84,0,0,1,.36.57c0,.29-.29.51-.72.51h-.93C86.76,55,86.65,55.23,83.92,60c3.24,3.46,4.46,5.94,4.46,9.07,0,2-.4,3.1-1.4,4a4.08,4.08,0,0,1-2.38,1c-.54,0-.76-.29-.79-.94,0-.86-.11-1-1-1.19l-1.48-.32v-.58l1.48,0,.9,0c1.8,0,2.41-.72,2.41-2.8a10.57,10.57,0,0,0-1.58-5.62,14.55,14.55,0,0,0-1.41-1.94,7.86,7.86,0,0,1-.46-.65c1.4-3.92,1.94-5.51,2.84-8.64H80.06V79.71c0,.4-.86.87-1.54.87-.33,0-.65-.19-.65-.37V49.12Zm12.56,0h8.46l1.23-1.41L105.3,51a.88.88,0,0,1,.43.64c0,.26-.22.47-.69.62l-.61.21V64.59c0,.47-.79.9-1.72.9-.36,0-.58-.18-.58-.43V64H97a21.24,21.24,0,0,0,2.66,6.22,51.88,51.88,0,0,0,6.09-5.72l2,1.8a1,1,0,0,1,.36.68c0,.33-.36.54-.9.54h-1.12c-2.7,1.48-3.56,1.95-6.15,3.21a20,20,0,0,0,8.78,6.62,10,10,0,0,0-2.88,2.45c-5.08-3.35-8-8.1-9.68-15.8H92.77V75.79c2.92-.51,3.46-.61,7-1.44l0,.5c-4,1.66-5.73,2.38-9.72,3.82l-.44,1.11a.57.57,0,0,1-.5.43c-.14,0-.25-.1-.4-.32l-2.19-3.24c2-.21,2.27-.25,4-.54V49.22Zm8.93,6.15V51.49H92.77v5.29Zm0,6.37v-5.5H92.77v5.5Z"/><path class="cls-1" d="M127.66,65.21a.7.7,0,0,1,.54.64c0,.29-.15.51-.54.76l-.8.5a25.23,25.23,0,0,1-.82,3c2.41,3.35,3.92,4.68,6.65,5.76V61.07h-3c-2.55,0-3.49,0-6.41.18L122.58,60c3.38.18,4.46.21,7.09.21h10.44l2.09-2.27,2.55,2a.94.94,0,0,1,.33.65c0,.25-.18.54-.36.54h-9.43v7.27h6.33L143.75,66l2.69,2.08a.86.86,0,0,1,.29.65c0,.29-.21.47-.54.47h-10.9v7.49a45.23,45.23,0,0,0,6.26.36,85.63,85.63,0,0,0,8.75-.43c-.36.43-.69.86-.8,1-.5.61-.82,1-1,1.22s-.29.47-.5.83c-.9,0-1.66,0-2.13,0-2.55,0-6.26-.14-8.06-.32a15.28,15.28,0,0,1-8.71-3.56,18.74,18.74,0,0,1-3.45-4.61,21.26,21.26,0,0,1-3.24,5.8c-.94,1.18-3.89,3.85-4.11,3.7a.69.69,0,0,0-.25.07,0,0,0,0,1,0,0,.44.44,0,0,1-.25-.25c0-.11,0-.18.18-.33,3.89-3.95,6-9,6.52-15.94Zm-5.48-14a7.34,7.34,0,0,1,.54,1.94h10.05V48.36l3.45.39c.4,0,.61.26.61.58a.88.88,0,0,1-.46.72l-1.08.65v2.41h9.43l1.44-1.48,3.38,3.21a.94.94,0,0,1,.25.61c0,.47,0,.47-1.08.68h-.07l-1.51,0L144.07,58l-.4-.25L145.19,54H122.87a7.51,7.51,0,0,1-.33,3.1c-.54,1.51-1.54,2.41-2.7,2.41a1.41,1.41,0,0,1-1.44-1.37c0-.54.18-.79,1.16-1.72a5.91,5.91,0,0,0,2.08-4.61v-.47Z"/><path class="cls-1" d="M176.69,55.52a34.45,34.45,0,0,1,.5,4.21,19,19,0,0,1-4.21,11c-2,2.56-3.89,3.85-5.65,3.85a3.12,3.12,0,0,1-2.41-1.33,7.83,7.83,0,0,1-1.8-5.43c0-7.35,6.33-13.36,14.11-13.36,6.84,0,11.59,4.29,11.59,10.48,0,5.47-3.24,9.9-8.71,11.87A20.44,20.44,0,0,1,175.35,78c-.21,0-.43-.15-.43-.33s.11-.14.58-.25A15.82,15.82,0,0,0,182.05,74a12.51,12.51,0,0,0,4-9.65c0-3.16-1-5.5-2.95-7a9.24,9.24,0,0,0-5.4-1.8h-.33l-.36,0ZM165.17,67.9c0,2.6,1,4.5,2.27,4.5,1.51,0,4.32-2.8,6-6a21.74,21.74,0,0,0,2.45-8.17,7.11,7.11,0,0,0-.43-2.3l-.11-.25A12.3,12.3,0,0,0,165.17,67.9Z"/><path class="cls-1" d="M208,59.16h-3.13c-1.26,3.42-2.92,6.48-3.49,6.48a.29.29,0,0,1-.29-.29,2.41,2.41,0,0,1,.07-.4,35.6,35.6,0,0,0,2.45-12.16l2.38.39c.93.15,1.26.36,1.26.83,0,.29,0,.32-.58.72l-.76.54c-.28,1.37-.36,1.62-.75,3H208v-10l2.59.22c.8,0,1.16.28,1.16.79s-.18.57-.83.86l-.72.33v7.84H212l1.94-2.08,2.3,2a.81.81,0,0,1,.26.5c0,.29-.18.4-.58.4h-5.72v6.26c2.05-.61,3.24-1,6-2l.29.47c-.65.29-1.22.61-1.47.72-1,.47-2,.93-3,1.4l-1.87.9V80.07c0,.43-.83.86-1.69.86-.36,0-.51-.21-.51-.61V67.9c-1.47.65-1.69.76-3.13,1.34l-.5,1.11c-.22.51-.44.72-.72.72a.93.93,0,0,1-.62-.36l-2.23-2.66c3.06-.72,4.47-1.12,7.2-2Zm17.6,2.63h-8.64c-1.18,0-2.12,0-4.42.1l-.4-1.11,2.74.11c.93,0,1.87,0,2.08,0h4.29V55.09H218.7l-2.09.07-2.34,0-.39-1.12c.14,0,2.73.07,4.82.15h2.52V48.75l2.55,0c.76,0,1.12.25,1.12.79,0,.33-.14.47-.58.76l-.72.43v3.46h3.78l2.2-2.24,2.37,2.09c.26.22.36.36.36.54a.45.45,0,0,1-.46.47h-8.25v5.83h6.27l2-2.09,2.3,2a.79.79,0,0,1,.33.61c0,.25-.15.4-.47.4h-6.16v5.39h1.84l2.09-2.3,2.52,2.23a.8.8,0,0,1,.25.51.47.47,0,0,1-.4.46h-6.3L228,78a1.9,1.9,0,0,1-.76,1.8,5.08,5.08,0,0,1-1.83.72c-.33,0-.58-.36-.65-1a1.35,1.35,0,0,0-.14-.54,8.38,8.38,0,0,0-1-.4l-2.23-.75v-.44l3.42,0h.29c.5,0,.5,0,.5-.83V68.08h-7.2c-.36,0-1.36,0-2.84.08-.4,0-1.62,0-2.95.07L212.11,67c1.55,0,3,.08,3.46.11,1.4,0,2.37.07,2.8.07h7.2Zm-9.9,7.41c3.14.61,5.19,2.34,5.19,4.32,0,1-.58,1.84-1.26,1.84a1.29,1.29,0,0,1-1-.51c-.22-.29-.22-.29-.83-2.34a5.23,5.23,0,0,0-2.27-3Z"/><path class="cls-1" d="M248.44,61v1.62c0,.61-.15.79-.72,1.08a2.19,2.19,0,0,1-1.08.29.58.58,0,0,1-.58-.65V49.51l2.59,1.58H257l1-1.51,2.56,1.84a.74.74,0,0,1,.29.54.53.53,0,0,1-.47.5l-.65.18v9.51a.65.65,0,0,1-.5.75,4.74,4.74,0,0,1-1.3.32c-.36,0-.54-.21-.54-.64V61h-4c-.25,2.48-.29,2.88-.68,5.4h5.51L259,65l2.2,1.65c.43.33.61.58.61.87a.9.9,0,0,1-.68.75l-.44.11c-.32,7.24-2.19,11.56-5,11.56-.68,0-.82-.15-.79-.65.07-.65,0-.9-.36-1l-3-1.45.14-.43,2.42.36a6.59,6.59,0,0,0,1.25.15c1.91,0,2.88-3.1,3.06-9.58h-5.79c-1.15,5.62-3.56,9-8.75,12.42l-.61.36a1.2,1.2,0,0,1-.5.22.36.36,0,0,1-.33-.36c0-.18,0-.22,1-1q7.35-6.11,7.56-17.89Zm8.92-.86V52h-8.92v8.21Zm10.08,11.19c0,.43-.93.94-1.76.94-.33,0-.51-.22-.51-.62V52.07l2.77.54c.44.07.73.32.73.61a1,1,0,0,1-.44.72l-.79.54Zm-.68,5.54,3.34.15.22,0c1,.08,1.44-.29,1.48-1.08V49.4l3.13.4c.5,0,.79.29.79.72a.77.77,0,0,1-.43.65l-1.15.75v25.7c0,1.16-.4,1.7-1.66,2.31a5.14,5.14,0,0,1-1.58.54c-.25,0-.36-.15-.4-.51-.14-.9-.32-1.11-1.08-1.4l-2.84-1.08Z"/><path class="cls-1" d="M292.54,70.35c-1.16,2.09-1.59,2.52-2.7,2.52-.94,0-1.59-.47-1.59-1.15,0-.4.18-.68.61-1.12,2-1.69,5.94-8.31,7.13-12.09a16.51,16.51,0,0,1-3.45.5,3.27,3.27,0,0,1-3-2,5.28,5.28,0,0,1-.54-1.44.17.17,0,0,1,.18-.18c.07,0,.07,0,.18.22a3.77,3.77,0,0,0,3.27,1.62,17.64,17.64,0,0,0,4-.69,15.15,15.15,0,0,0,.58-3.81c0-1.19-.58-1.73-1.94-1.76a.17.17,0,0,1-.18-.15c0-.32,1.15-.79,1.9-.79,1.34,0,2.52.75,2.52,1.62a10.81,10.81,0,0,1-.32,1.22c1.91,1,2,1.08,2.59,1.12s1.19.43,1.19.93c0,1.12-1.76,2.24-5.08,3.24A106.69,106.69,0,0,1,292.54,70.35Zm12-1.51c0-.68,0-1.19,0-1.44,0-3.53,1.44-5.25,5.25-6.3.54-.14.76-.36.76-.65,0-.82-1.73-1.62-3.6-1.62a5.38,5.38,0,0,0-1.66.22.35.35,0,0,1-.18,0,.28.28,0,0,1-.25-.29c0-.4,1.94-1,3.35-1,3.13,0,5.76,1.76,5.76,3.89a.85.85,0,0,1-.87,1,2.2,2.2,0,0,1-.54-.11,6.4,6.4,0,0,0-2.3-.39c-2.66,0-4,1.29-4,3.88a28.78,28.78,0,0,0,.25,3c.22,1.91.22,2.13.29,3.24,4.17,1.41,6.66,3.17,6.66,4.68a1.26,1.26,0,0,1-1.3,1.23,1.86,1.86,0,0,1-1.44-.87,12.9,12.9,0,0,0-4-3.13v.33a4.5,4.5,0,0,1-1,3.31c-.79,1-2.19,1.51-4.06,1.51-3.31,0-5.47-1.48-5.47-3.74,0-2.45,2.26-3.93,6-3.93a17.69,17.69,0,0,1,2.38.15Zm-3.49,4c-2,0-3.42,1-3.42,2.52,0,1.22,1.58,2.12,3.64,2.12a2.84,2.84,0,0,0,3.2-2.7,8.22,8.22,0,0,0,.07-1.29A8.45,8.45,0,0,0,301,72.8ZM298.62,55c0,.15-.14.51-.29,1,1.51-.58,2.31-1.08,2.31-1.44s-.37-.54-1.59-1.4l-.14.61Z"/><path class="cls-1" d="M339.59,69.49c0,1.4.14,4.17.25,5a11.28,11.28,0,0,1,.11,1.29,2.74,2.74,0,0,1-2.56,2.31c-.21,0-.32-.15-.32-.43a7.06,7.06,0,0,0-3.53-5.12,9.49,9.49,0,0,0-1.91,1.66c-.32.32-.54.47-.79.47a3.36,3.36,0,0,1-2.52-2.45c0-.61.33-.83,1.19-.83,2.23-.07,2.84-.21,4-1a14.14,14.14,0,0,1,1.41-.83c1.44-.79,1.58-.9,3.17-1.8,0-.47,0-.9,0-1l0-2.26V62.5a11.41,11.41,0,0,1-4.28.91,1.9,1.9,0,0,1-1.84-.91,1.73,1.73,0,0,1-.39-1c0-.68.11-1,.29-1s.1,0,.1.18c.11.57,1,.93,2.31.93a8.65,8.65,0,0,0,3.81-.86c-.07-3.17-.1-4.18-.21-5-.18-1.19-.61-1.66-1.59-1.66a.71.71,0,0,0-.32,0,1.44,1.44,0,0,1-.32,0c-.11,0-.15-.07-.15-.18,0-.65,1.08-1.47,2-1.47,1.15,0,3,1.26,3,2a4.24,4.24,0,0,1-.19.65,5.29,5.29,0,0,0-.35,1.62,10.22,10.22,0,0,0,3.67,1.08l.79,0c.36,0,.65.4.65.9,0,1.15-1.48,2.09-5.44,3.46-.07,1.54-.07,2.19-.07,3.23,0,.58,0,1,0,1.84C343.29,65,346.28,64,349.05,64a5.43,5.43,0,0,1,5.69,5.72,6.89,6.89,0,0,1-7.23,7.13c-2.85,0-4.54-1.76-4.54-4.71a6.7,6.7,0,0,1,.32-1.84c.15-.5.33-.76.54-.76s.22.08.22.15a1.28,1.28,0,0,1-.11.36,9.15,9.15,0,0,0-.18,1.69A3.8,3.8,0,0,0,345,74.28a4.23,4.23,0,0,0,2.34.75,5,5,0,0,0,5-5.29c0-2.84-1.48-4.43-4.18-4.43-2.45,0-4.57.79-8.49,3.13Zm-5.4,2.63c1.51,1.11,1.73,1.26,2.55,1.94.4.36.61.47.8.47s.32-.11.43-.36.11-.33.11-3.1c0-.25,0-.5,0-2A27.63,27.63,0,0,0,334.19,72.12Zm7.88-13.43c0-.18-.11-.25-.72-.58s-.9-.5-1.62-1a24.22,24.22,0,0,0-.14,3.24C341.1,59.84,342.07,59.19,342.07,58.69Zm8.06.79c-.25.07-.43.15-.5.15a.31.31,0,0,1-.25-.26c0-.54,2.48-1.36,4.17-1.36A6.28,6.28,0,0,1,358,59.66a4.52,4.52,0,0,1,1.22,2.63A1.81,1.81,0,0,1,357.37,64c-.36,0-.43-.14-.68-1.26A5.77,5.77,0,0,0,355,60.38a5.18,5.18,0,0,0-3.17-1.15A5.67,5.67,0,0,0,350.13,59.48Z"/><path class="cls-1" d="M367.81,63.19c2.63.11,3.67.14,4.83.14h6.73a51.1,51.1,0,0,0,2.44-8.46h-7.88c-.47,0-1.26,0-2.16,0l-2.19.07-.47-1.11c2.77.1,3.78.14,4.82.14h3.39V48.54l2.8.29c.58,0,.83.25.83.64a.74.74,0,0,1-.47.62l-.75.43V54h3.71l1.83-2.16,2.7,2a.75.75,0,0,1,.29.54c0,.25-.18.4-.51.4l-4.89,0L385,56.24a.65.65,0,0,1,.25.51c0,.14-.07.25-.25.36l-1.05.54c-1.55,2.91-1.83,3.38-3.24,5.68h3.17l1.94-2.3,2.74,2.16a.84.84,0,0,1,.36.57c0,.29-.25.44-.68.44H372.64c-1.12,0-2.06,0-4.36.1Zm4.72-7.45c2.77,1.4,4.17,3.09,4.17,5,0,1.08-.64,2-1.4,2a1,1,0,0,1-.83-.47c-.21-.32-.21-.32-.39-2.23a7.35,7.35,0,0,0-1.77-3.92ZM375,68.44h7.34l.9-1.33,2.16,1.59a.82.82,0,0,1,.44.68.64.64,0,0,1-.44.54l-.61.29v7.63a1,1,0,0,1-.21.72,2.55,2.55,0,0,1-1.62.57c-.33,0-.47-.21-.47-.68v-1.4h-7.92v2.37c0,.65-.65,1-1.66,1a.59.59,0,0,1-.61-.61V66.93Zm7.49,7.74V69.31h-7.92v6.87Zm9.93-25.09h4.43l1-1.51,2.63,2.31a1,1,0,0,1,.36.68c0,.32-.21.54-.68.54l-.58.07-5.4,7.63c4.9,3.53,6.34,5.58,6.34,9A5.78,5.78,0,0,1,399,74.38a3.07,3.07,0,0,1-2.33,1.05c-.44,0-.62-.36-.58-1.15,0-.58-.11-.72-.86-1l-2.31-.79,0-.61,2.3.11.32,0q2.49.17,2.49-2.91c0-2.74-1.26-4.9-4.79-8.24L397.08,52h-5.26V79.32c0,.75-.57,1.15-1.62,1.15-.54,0-.72-.18-.72-.72V49.4Z"/><path class="cls-1" d="M417.2,50.81h19.62L438,49.4l2.49,2a.75.75,0,0,1,.32.54c0,.21-.11.36-.4.54l-.72.36v4.28c0,.43-.93.9-1.72.9-.36,0-.65-.18-.65-.47v-.86H417L417,60.71h18.5l2.06-2.2,2.66,2c.25.22.39.4.39.58a.5.5,0,0,1-.54.5H428l-3.53,5.07,10.47-.54a29.64,29.64,0,0,0-4.32-2.95l.4-.43a28.32,28.32,0,0,1,5.47,2.2c2.38,1.29,4,3,4,4.17a1.39,1.39,0,0,1-1.3,1.33c-.5,0-.86-.28-1.47-1.18A16.08,16.08,0,0,0,435.81,67l-6,.93v4.68h5.37l2-2.23,2.66,2.13a.86.86,0,0,1,.36.61.35.35,0,0,1-.36.36h-10v4.89h7.92L440,75.82l3,2.45c.18.15.25.25.25.4s-.18.54-.4.54H421.16c-.72,0-1.87,0-3.24.07l-3.31.11-.54-1.3c4,.18,5.47.22,7.09.22h6.12V73.45h-3.45c-1.52,0-2.74,0-5.65.14l-.58-1.19c1.51,0,2.84.08,3.31.11l2.92.07h3.45V68.26l-6.51.72-.51.58a1.2,1.2,0,0,1-.68.4c-.18,0-.4-.18-.61-.54L417.56,67l5.65-.22L425,61.57h-8.06c-.22,5.51-.83,8.82-2.2,11.84-1.22,2.63-3.6,5.87-4.32,5.87a.22.22,0,0,1-.22-.25c0-.11,0-.11,1.19-2.13,2.13-3.56,3.06-9.18,3.06-18.35,0-1.26,0-1.26-.29-9.33Zm20.09,5v-4.1H417v4.1Z"/></g></g></svg>