<svg xmlns="http://www.w3.org/2000/svg" viewBox="0 0 210.86 36.72"><defs><style>.cls-1{fill:#343434;}</style></defs><title>price-title</title><g id="Layer_2" data-name="Layer 2"><g id="Layer_1-2" data-name="Layer 1"><path class="cls-1" d="M2,19.59a.33.33,0,0,1,0,.15,11.06,11.06,0,0,0-.28,2.34,6.39,6.39,0,0,0,2.81,5.61,13.51,13.51,0,0,0,6.73,1.52,27.91,27.91,0,0,0,7.4-1.13,4.94,4.94,0,0,1,1.72-.39,2.42,2.42,0,0,1,2.68,2.18c0,1.17-.58,1.83-2,2.3a30,30,0,0,1-8,1C4.63,33.14,0,30,0,24.22c0-2.1,1.05-4.79,1.87-4.79A.16.16,0,0,1,2,19.59ZM3.43,4.75C4.48,6.43,8,7.87,10.94,7.87a13.69,13.69,0,0,0,3.51-.51A8.1,8.1,0,0,1,16.2,7a2.31,2.31,0,0,1,1.95,1.4,5.68,5.68,0,0,1,.58,2c0,.78-.62,1.13-2.06,1.17A25.26,25.26,0,0,0,7.09,14a5.37,5.37,0,0,1-.86.39.21.21,0,0,1-.19-.2,13.86,13.86,0,0,1,2.45-2.64c.15-.16.23-.28.23-.39s-.08-.28-.31-.31a6.51,6.51,0,0,1-5.33-6c0-.16,0-.23.15-.23S3.35,4.6,3.43,4.75ZM24.61,7.2A1.67,1.67,0,0,1,22.9,8.68c-.51,0-.78-.23-1.17-.89A5.78,5.78,0,0,0,18.5,5.06C18,5,18,4.87,18,4.63s.62-.42,1.56-.42C22.2,4.21,24.61,5.65,24.61,7.2Zm4.13-3.07A1.65,1.65,0,0,1,27,5.65,1.08,1.08,0,0,1,26,5.06,6.05,6.05,0,0,0,22.51,2c-.43-.16-.59-.24-.59-.39,0-.31.74-.51,1.76-.51C26.25,1.09,28.74,2.57,28.74,4.13Z"/><path class="cls-1" d="M38.17,12.93c2.69.11,3.74.15,5.22.15h2.37V6.93l-1,.2a47.44,47.44,0,0,1-5.69,1,.34.34,0,0,1-.39-.35c0-.28,0-.31,1.29-.74l1.17-.43A58,58,0,0,0,52.66,1.21l2.88,2.45a.83.83,0,0,1,.31.62.62.62,0,0,1-.55.55l-.93,0c-1.95.54-2.22.62-5.26,1.36v6.85H52l2-2.64,2.84,2.45a1,1,0,0,1,.39.7.59.59,0,0,1-.54.55h-7.6v4.51a11.37,11.37,0,0,1,3.78,1.29,4.58,4.58,0,0,1,2.57,3.7,1.82,1.82,0,0,1-1.83,2c-.78,0-1.21-.35-1.52-1.32-.78-2.49-1.56-3.82-3-4.91V35.08c0,.36-.15.55-.58.71a7.2,7.2,0,0,1-2.22.46c-.43,0-.55-.11-.55-.58V22.9A42.74,42.74,0,0,1,41,28.39a7.33,7.33,0,0,1-2.14,1.71.22.22,0,0,1-.23-.23c0-.12.08-.24.31-.55,3.62-4.4,6.58-11,6.85-15.18H43.39c-1.33,0-2.26,0-4.52.11Zm24.92-5.3a.68.68,0,0,1,.59.66.71.71,0,0,1-.39.63l-.94.58V27.41c0,.51-.23.74-1,.94a7,7,0,0,1-1.79.31c-.51,0-.66-.16-.66-.62V7.09Zm8.8-5.25a.72.72,0,0,1,.7.66.92.92,0,0,1-.39.7l-1,.66V32.91a2.24,2.24,0,0,1-1.48,2.45,5.76,5.76,0,0,1-2.26.89c-.58,0-.58,0-.74-1.55,0-.32,0-.32-.31-.43a8.23,8.23,0,0,0-.78-.35l-1.52-.66-1-.43-.93-.43c-.24-.12-.31-.2-.31-.31s.11-.24.78-.24a5.2,5.2,0,0,1,.62,0s.7,0,1.36,0H66a4.73,4.73,0,0,0,.66,0c.78,0,1-.12,1-.7V1.83Z"/><path class="cls-1" d="M91.29,21.42C91,27,90.08,29.91,87.55,33c-1.44,1.72-3.5,3.55-4,3.55a.39.39,0,0,1-.35-.39c0-.16,0-.16.43-.67a16.42,16.42,0,0,0,3.2-6.54c.74-3,1-6.38,1-13.35,0-4.25,0-4.72-.39-14.18L92,3.78h20.06l1.63-2.46,3.2,3.31a1.3,1.3,0,0,1,.54,1,.8.8,0,0,1-.54.81l-.82.24V32.94a2.83,2.83,0,0,1-1.68,2.61,4.74,4.74,0,0,1-2.18.78.88.88,0,0,1-.74-.43c-.11-.15-.11-.15-.23-1.13a5,5,0,0,0-.16-.7c-.11-.15-.31-.23-1.16-.54-1.06-.35-1.13-.35-2.26-.78a3.83,3.83,0,0,1-.59-.23c-.5-.16-.66-.28-.66-.47s.16-.27.39-.27h.35l1.83,0c3.35,0,3.43,0,3.43-1.32V21.42h-9V34.31c0,.58-.23.85-.93,1a8.51,8.51,0,0,1-2,.31c-.54,0-.7-.16-.7-.74V21.42ZM91.37,13c0,2.19,0,3.78,0,4.44l0,2.89H99.7V13Zm0-1H99.7V4.83H91.37Zm21,0V4.83h-9V12Zm0,8.38V13h-9v7.33Z"/><path class="cls-1" d="M135.65,25.08a32.69,32.69,0,0,1-3.93,4.59A11,11,0,0,1,128.8,32c-.16,0-.23-.08-.23-.19a1.23,1.23,0,0,1,.31-.63,35.54,35.54,0,0,0,6.73-13.82h-2.14c-.81,0-1,0-4.48.12l-.74-1.33c.82,0,2.3.08,5.22.16h2.18V.86l4,.27c.43,0,.7.27.7.58a.74.74,0,0,1-.35.63L139,3.15V16.28h2.3l2.1-2.57,2.53,2.57c.24.23.32.39.32.54,0,.31-.28.51-.67.51H139v2.72c3.24.63,5.07,2.15,5.07,4.21,0,1.17-.63,1.95-1.48,1.95a1.22,1.22,0,0,1-.9-.39c-.31-.35-.31-.35-.9-2.18A6.8,6.8,0,0,0,139,20.72V35.44c0,.5-.19.74-.74.93a6.31,6.31,0,0,1-1.79.35.7.7,0,0,1-.78-.78ZM131.06,6.43c2.06,1.67,3.07,3.54,3.07,5.53,0,1.59-.74,2.6-1.94,2.6-1,0-1.37-.54-1.4-2.14-.08-3-.67-5.18-1.76-6.7a1.32,1.32,0,0,1-.19-.42c0-.12.08-.2.23-.2A7.67,7.67,0,0,1,131.06,6.43Zm14.33,1.32c-2.3,3.43-4.83,6.54-5.34,6.54a.27.27,0,0,1-.27-.27c0-.16,0-.16.62-1.56A51.5,51.5,0,0,0,143,3.93l3.39,1.87a.8.8,0,0,1,.47.7.89.89,0,0,1-.47.78ZM141,28c2.84-.62,3.85-.86,6-1.44l8.17-2.14V1.05l3.86.35c.51,0,.78.31.78.74a.84.84,0,0,1-.43.74l-.82.55V23.52l1.64-.47L161.82,19l3.27,2.69a.94.94,0,0,1,.43.66.33.33,0,0,1-.27.31l-6.78,1.87V34.89c0,.55-.19.78-.82,1a4.88,4.88,0,0,1-1.67.31c-.62,0-.9-.23-.9-.74v-10l-7.78,2.06c-2.22.63-3,.82-5.49,1.6Zm9.31-11.68c1.79,1,2.57,2.1,2.57,3.77,0,1.45-.67,2.22-1.87,2.22-.94,0-1.33-.46-1.6-1.83-.43-2.41-1.17-3.81-2.57-4.79-.23-.19-.31-.27-.31-.35s.08-.19.23-.19A10.43,10.43,0,0,1,150.26,16.28Zm1.32-8.73a4,4,0,0,1,2.3,3.59,1.94,1.94,0,0,1-2,2.18c-.89,0-1.24-.47-1.52-1.83-.43-2.22-1-3.31-2.37-4.44-.24-.2-.35-.31-.35-.47s.15-.19.39-.19A9.45,9.45,0,0,1,151.58,7.55Z"/><path class="cls-1" d="M174.29,32.79C178,33,179.47,33,182,33h7.91V22.39h-6.74c-2.57,0-3.82,0-6.78.2l-.85-1.48c3.74.19,5.37.23,7.63.23h6.74V16.12h-2.73c-.78,0-1.21,0-4.63.12l-.59-.86a29.44,29.44,0,0,1-5.37,3.23,7.16,7.16,0,0,1-1.83.78c-.12,0-.23-.15-.23-.31s.15-.31.54-.54c6.35-4,10.4-9.12,14.68-18.54l4.13,1.52a1,1,0,0,1,.74.78c0,.23-.27.5-.66.62l-.43.16c3,5.1,9.93,9.34,17.37,10.67a8.64,8.64,0,0,0-3.94,3.7c-5.64-2.3-11.56-8-14.37-13.83a45.42,45.42,0,0,1-10.08,11.29c2.1.12,2.76.16,4.67.16h8.3l2.18-2.61,2.88,2.22c.43.35.7.66.7.94s-.31.5-.7.5h-7.25v5.22h8.69l2.3-2.8L207.47,21c.39.31.62.58.62.82s-.31.54-.7.54H193.25V33h3.43a51.77,51.77,0,0,0,3.27-10l3.23,1.64c.82.43,1.13.7,1.13,1a1.18,1.18,0,0,1-.93,1l-.82.24-.62.78c-1.75,2.37-2,2.68-2.45,3.23l-1.09,1.36c-.08.08-.28.31-.59.7h5.69l2.53-3,3.15,2.42a1.69,1.69,0,0,1,.74,1.05c0,.31-.35.54-.82.54H182c-2.33,0-3.74,0-6.73.2Zm8.88-7.36c1.91,1.36,2.84,2.84,2.84,4.48,0,1.44-.78,2.37-2,2.37s-1.68-.54-1.95-2.45c-.43-2.53-1.09-4-2.22-5.14-.31-.31-.43-.47-.43-.59a.35.35,0,0,1,.35-.35A8.7,8.7,0,0,1,183.17,25.43Z"/></g></g></svg>