<svg xmlns="http://www.w3.org/2000/svg" viewBox="0 0 298.93 35.83"><defs><style>.cls-1{fill:#343434;}</style></defs><title>other-room-title</title><g id="Layer_2" data-name="Layer 2"><g id="Layer_1-2" data-name="Layer 1"><path class="cls-1" d="M2.43,24.8c-.42.47-.66.62-1,.62-1,0-1.39-.85-1.39-2.82A3.48,3.48,0,0,1,.31,21c.23-.38.23-.38,3.12-3,1-.89,2-1.85,2-1.93C6.4,15,7.37,14,8.29,13c5.87-6.29,6.48-7,6.48-7.56s-.3-1.12-.65-1.12c-.81,0-2.24.93-4.17,2.74C9,8,8.29,8.37,7.64,8.37a3.32,3.32,0,0,1-2.78-3c0-.77.46-1.93.81-1.93.12,0,.19.12.23.39A1.48,1.48,0,0,0,7.29,5,27.12,27.12,0,0,0,13.5,2.74,2.74,2.74,0,0,1,15,2.31c2.08,0,4.82,2.2,4.82,3.9,0,.81-.35,1.24-1.43,1.81a40.27,40.27,0,0,0-11,8.49c-1.54,1.85-2.27,2.85-2.27,3.16,0,.12.15.2.35.2a3.06,3.06,0,0,0,1.69-.58C9.88,17.9,20.68,14,21.87,14s3.28,2,3.28,3.24c0,.5-.5.85-1.31.85a6.64,6.64,0,0,1-.85,0,15,15,0,0,0-2.39-.15c-4.05,0-6.29.58-8.22,2.08a7.09,7.09,0,0,0-2.54,5.21,4.39,4.39,0,0,0,3,4.05,11.9,11.9,0,0,0,4,.62c.39,0,.81,0,1.23,0a4.6,4.6,0,0,1,.7,0A2.71,2.71,0,0,1,21,32.67c0,1-1,1.7-2.77,1.7-6.48,0-10.38-3.09-10.38-8.22,0-2.08.46-3.43,2.2-6.52A18.16,18.16,0,0,0,2.43,24.8Z"/><path class="cls-1" d="M58.51,11a24.81,24.81,0,0,1-3.85,12.53C52.38,27,49,29.78,46.9,29.78a4.68,4.68,0,0,1-3.24-2.12,10,10,0,0,1-1.89-6.21c0-8.49,7.76-15.78,16.78-15.78A14.89,14.89,0,0,1,69.39,9.91a11.62,11.62,0,0,1,3,8.14A14.22,14.22,0,0,1,65.3,30.4,24,24,0,0,1,58.17,33a16.22,16.22,0,0,1-2.47.46c-.23,0-.39-.07-.39-.23s.12-.23.73-.42A20.83,20.83,0,0,0,63,29.24c3.36-2.74,4.94-6.25,4.94-11,0-5.17-1.74-8.68-5.09-10.38a9.27,9.27,0,0,0-4-.93c-.11,0-.38,0-.81,0A14.61,14.61,0,0,1,58.51,11Zm-8.71-.35a15.09,15.09,0,0,0-4.56,10.76c0,2.28,1,4.28,2.24,4.28s3.4-2,5-4.55C55,17.28,56.43,13,56.43,9.57a9.48,9.48,0,0,0-.23-2.16c0-.08,0-.16-.08-.27A14.46,14.46,0,0,0,49.8,10.61Z"/><path class="cls-1" d="M88.91,16.93c-2.32,3.28-4.32,5.64-4.82,5.64a.26.26,0,0,1-.27-.24c0-.15,0-.15,1.15-2.12C88.29,14.47,90.22,8.87,91.72.42L95.7,2c.46.2.73.51.73.85,0,.5-.23.7-1,.93L94.85,4a62.17,62.17,0,0,1-2.39,6.6l.42.23c.35.19.46.35.46.58s-.11.42-.46.66l-.35.27v22.1a.9.9,0,0,1-.65,1,4.87,4.87,0,0,1-2.12.46c-.66,0-.85-.19-.85-.84ZM93,18c2.12-.81,2.47-.93,4.59-1.78V5.59l3.7.31c.77.08,1,.23,1,.7,0,.23-.15.46-.5.73l-.77.54v6.9l3.74-1.5V.93l3.59.23c.77,0,1.12.27,1.12.81a.9.9,0,0,1-.62.81l-.81.46v8.64l3.51-1.43,1.47-3,3.24,2.7a1.21,1.21,0,0,1,.5.89c0,.43-.16.62-.58.81l-.62.23V23c0,1.62-.27,2.09-1.46,2.82a5.81,5.81,0,0,1-2,.69c-.77,0-.93-.31-.93-1.66,0-.65,0-.69-2.5-1.69-.2-.08-.27-.16-.27-.27s.11-.27.34-.27H109l.85,0c.5,0,1.08,0,1.2,0,.81,0,1.12-.31,1.12-1.08V11.26L108,13V27c0,.89-1,1.51-2.43,1.51-.69,0-.85-.16-.85-.85V14.43L101,16V30.51c0,1,.12,1.2.66,1.35a5.1,5.1,0,0,0,1.54.12l3.47,0,2.89,0c4.28,0,4.79-.12,5.63-.81.47-.43.7-1,2.4-5.48.15-.39.23-.5.46-.5s.27.15.27.46,0,.19-.23,3c-.08.74-.12,1.62-.12,1.89,0,.66,0,.66,1.28,1.55a1.25,1.25,0,0,1,.57,1c0,.77-.81,1.46-2,1.69a49.93,49.93,0,0,1-7.21.28c-.89,0-2.32,0-4.21,0-1.54,0-3.12,0-3.7-.08-4.48,0-5.21-.62-5.13-3.86V17.55c-1.74.81-2,1-3.71,1.85Z"/><path class="cls-1" d="M148,11a24.73,24.73,0,0,1-3.86,12.53c-2.27,3.55-5.63,6.29-7.75,6.29a4.66,4.66,0,0,1-3.24-2.12,10,10,0,0,1-1.89-6.21C131.26,13,139,5.67,148,5.67a14.89,14.89,0,0,1,10.84,4.24,11.66,11.66,0,0,1,3,8.14,14.23,14.23,0,0,1-7.13,12.35A24.13,24.13,0,0,1,147.65,33a16,16,0,0,1-2.47.46c-.23,0-.38-.07-.38-.23s.11-.23.73-.42a20.92,20.92,0,0,0,6.91-3.59c3.35-2.74,4.93-6.25,4.93-11,0-5.17-1.73-8.68-5.09-10.38a9.23,9.23,0,0,0-4-.93,8,8,0,0,0-.81,0A15,15,0,0,1,148,11Zm-8.72-.35a15.12,15.12,0,0,0-4.55,10.76c0,2.28,1,4.28,2.24,4.28s3.39-2,5-4.55c2.47-3.82,3.94-8.1,3.94-11.53a9.48,9.48,0,0,0-.23-2.16c0-.08,0-.16-.08-.27A14.56,14.56,0,0,0,139.28,10.61Z"/><path class="cls-1" d="M187.65,22.41c.23,3.94.27,4.86.46,7.06a2,2,0,0,1,0,.43,3.89,3.89,0,0,1-3.47,3.35c-.58,0-.69-.19-.69-1.08.11-1.93-1.05-3.89-3.17-5.32-.46.5-.5.58-1.23,1.35-1.51,1.66-1.66,1.77-2.12,1.77-1.28,0-3.09-2.23-3.09-3.78a1.45,1.45,0,0,1,1.27-1.58c.23,0,.23,0,.7.35a.84.84,0,0,0,.5.19c.5,0,.5,0,2.82-1.27,2.81-1.47,4.16-2.2,5.9-3.09,0-2.62,0-3.43-.12-5a19.16,19.16,0,0,1-4.43.65c-2.05,0-3.44-1.23-3.44-3,0-.61.08-.88.27-.88a.19.19,0,0,1,.19.15c.31.81,1.12,1.16,2.71,1.16a15,15,0,0,0,4.59-.77c0-1.12-.08-2.32-.31-4.86s-.77-3.28-1.93-3.28a.75.75,0,0,0-.43.11h-.07a.28.28,0,0,1-.27-.23c0-.54,1.58-1.35,2.62-1.35,1.51,0,3.67,1.43,3.67,2.47,0,.12,0,.19-.2.5A4.54,4.54,0,0,0,188,8.06a11.55,11.55,0,0,0,4.32,1.2h.27a4.26,4.26,0,0,1,.58,0,1,1,0,0,1,.92,1.08c0,1.66-2.16,3.32-6.4,4.94,0,1-.08,1.81-.08,2.85v1.78c4.59-2.47,7.49-3.44,10.5-3.44,4,0,6.75,2.51,6.75,6.29a9,9,0,0,1-9.11,8.83c-2.12,0-3.55-.69-4.4-2.12a7.43,7.43,0,0,1-.81-3.35c0-1.66,1.28-4.29,2.09-4.29.08,0,.15.12.15.2a1.54,1.54,0,0,1-.07.27,6.59,6.59,0,0,0-.62,2.62c0,2.12,1.23,3.51,3.16,3.51a6,6,0,0,0,5.86-6c0-2.62-1.54-4.36-3.89-4.36s-4.86,1-9.57,3.9Zm-2,2.63c0-.66,0-1.05,0-2.09-2,1.43-2.78,2-4.24,3.2a18.28,18.28,0,0,0,3.7,2.2c.35,0,.54-.5.54-1.27Zm2.09-14.43,0,1.73c1.54-.61,2.54-1.42,2.54-2.08,0-.15,0-.19-.23-.27-.85-.42-1.58-.81-2.24-1.12Zm22.14,3.24a2.64,2.64,0,0,1-2.28,2.62,1.82,1.82,0,0,1-1.12-.46c-.23-.19-.23-.19-.58-1.16a7,7,0,0,0-2.16-2.43,6.85,6.85,0,0,0-3.66-1.16,5.69,5.69,0,0,0-1.85.31c-.39.12-.39.12-.47.12s-.19-.08-.19-.23.19-.35.66-.66a8.77,8.77,0,0,1,5.09-1.58C207,9.22,209.91,11.26,209.91,13.85Z"/><path class="cls-1" d="M221.63,16.86c1.39,0,2.62.07,3.13.07h6a59.72,59.72,0,0,0,2.4-9.52H224l-2.5.07-1.74,0-.89-1.31,2.63.08c1.19,0,2.08.08,2.5.08h4.13V0l3.59.42c.69.12.92.27.92.74,0,.27-.11.46-.46.61l-.69.39V6.37h3.24l2.08-2.55,3,2.55a.69.69,0,0,1,.23.54c0,.26-.15.5-.35.5h-4.74l1.81,1.12a.89.89,0,0,1,.43.77.67.67,0,0,1-.35.61l-1,.47c-.66,1.08-2,3.28-4.09,6.55H235l2.31-2.7,2.82,2.67a.67.67,0,0,1,.27.54c0,.3-.19.54-.39.54H224.76c-.47,0-1.47,0-2.9.07-.46,0-1.66,0-3,.08l-.81-1.39Zm3.59,17.32c0,.57-1.2,1.08-2.59,1.08-.54,0-.65-.16-.65-.7V20l3.78,1.74h7.83l1.54-2.09,2.74,3.25a1.19,1.19,0,0,1,.39.84c0,.31-.16.47-.62.66l-.43.19v8.18c0,.62-1.08,1.12-2.46,1.12-.58,0-.81-.2-.81-.58V31.36h-8.72Zm-.81-25.39c2.27,1.36,3.43,3.09,3.43,5.06,0,1.54-.62,2.31-1.93,2.31a1.48,1.48,0,0,1-1.39-.73c-.19-.39-.19-.39-.34-2.58a7,7,0,0,0-1.7-4.52.35.35,0,0,1-.12-.19c0-.12.08-.15.2-.15A6.39,6.39,0,0,1,224.41,8.79Zm9.53,21.53V22.76h-8.72v7.56Zm10.14,4.24c0,.74-1,1.24-2.54,1.24-.47,0-.66-.16-.66-.54V1.66l3.66,1.73h5l1.31-1.73,3,3.24a1.08,1.08,0,0,1,.35.73c0,.43-.31.7-.89.81l-.89.12L246.9,14c.31.24.61.51,1,.78a18.1,18.1,0,0,1,3.7,3.43,9.35,9.35,0,0,1,2.28,5.9,6.5,6.5,0,0,1-2.74,5.55,4.63,4.63,0,0,1-2,.74c-.54,0-.77-.23-.85-.93-.12-1-.19-1.27-.5-1.5a10,10,0,0,0-1.89-.93c-.77-.34-.93-.46-.93-.58s.12-.19.35-.19a2.63,2.63,0,0,1,.5,0c.5,0,1.47.08,1.93.08,2,0,2.58-.7,2.58-3,0-3.59-1-5.6-4.66-9.15l4.2-9.79h-5.71Z"/><path class="cls-1" d="M270.66,15.12c-.16,7.29-1,11-3.63,15.2-1.23,2-3,4.17-3.39,4.17a.26.26,0,0,1-.27-.27,1.46,1.46,0,0,1,.23-.66c2.85-6,3.62-10.72,3.62-22.06,0-3.09,0-4-.34-10.07l4.39,2h20.29l1.16-1.93,3.59,3.28a.92.92,0,0,1,.38.66c0,.27-.23.46-.73.65l-.54.16V10c0,.74-.15.93-.85,1.08a8.78,8.78,0,0,1-2,.23c-.54,0-.74-.15-.74-.57V9.84H270.7v4.24h20.21l2.2-2.35L296.27,14a1.08,1.08,0,0,1,.42.7c0,.31-.23.42-.73.42H282.81c-.77.93-2.28,2.7-4.55,5.36,4.39-.11,4.89-.11,6-.15l3.82-.12,1.54,0a26.44,26.44,0,0,0-4.05-3c-.19-.12-.27-.2-.27-.31a.27.27,0,0,1,.31-.27,20.32,20.32,0,0,1,6.21,1.93c2.74,1.42,4.32,3.16,4.32,4.66A1.78,1.78,0,0,1,294.53,25c-.73,0-1-.24-2.16-1.82a11.38,11.38,0,0,0-1.77-1.93l-6.21,1v4.86h5.09l2.28-2.55L295,27a.87.87,0,0,1,.34.62c0,.39-.23.58-.65.58H284.39v5.32h8.14l2.66-2.66,3.43,2.7a.7.7,0,0,1,.31.54c0,.35-.15.46-.54.46H274.51c-1.35,0-1.93,0-6.67.2L267,33.29c3.78.15,5.44.19,7.56.19h6.33V28.16h-3.28c-1.77,0-3,0-5.94.15l-.73-1.39c3.7.16,5.09.2,6.67.2h3.28V22.64c-4.24.62-4.36.66-6.56.93l-.38.62a.87.87,0,0,1-.81.57c-.31,0-.51-.15-.7-.57l-1.77-3.59h1.5c.93,0,1.16,0,4.55,0,.27-.66.51-1.27.58-1.5.5-1.24.85-2.09.93-2.32s.31-.89.54-1.62Zm21.17-6.33V4.47H270.7V8.79Z"/></g></g></svg>