<svg xmlns="http://www.w3.org/2000/svg" viewBox="0 0 693.58 129.13"><defs><style>.cls-1{fill:#fff;}</style></defs><title>activity-title</title><g id="Layer_2" data-name="Layer 2"><g id="Layer_1-2" data-name="Layer 1"><path class="cls-1" d="M8,31.61a18.84,18.84,0,0,1-4.38,2.1.38.38,0,0,1-.35-.35c0-.17.18-.41.53-.64,6.89-4.79,14.43-16.36,14.43-22.2,0-1.81-.76-3.27-1.75-3.63-.47-.11-.59-.23-.59-.35,0-.41,1.11-.76,2.34-.76a8.73,8.73,0,0,1,4.85,1.7c1.34.87,2.51,2.28,2.51,2.92s-1.23,2.92-2.75,5.38a3.18,3.18,0,0,0,1,.17c2.1,0,6.6-1.58,9.05-3.15a4.41,4.41,0,0,1,2-.94c1.23,0,5.67,4,5.67,5.2,0,.18-.24.53-.71.88s-.81.7-1.51,1.4C32.89,29.27,31,32.08,26.88,36.22A57.19,57.19,0,0,1,6.48,49.37,27.92,27.92,0,0,1,.41,51,.44.44,0,0,1,0,50.6c0-.24.17-.35.64-.53C5.32,48.44,11.1,44.81,16,40.55a67.27,67.27,0,0,0,13.2-16.07c1.76-3.1,2.69-5.32,2.69-6.6a1.13,1.13,0,0,0-1.11-1.17,14.78,14.78,0,0,0-2.57.58,27.58,27.58,0,0,1-4.38,1,3.44,3.44,0,0,1-1.93-.76C17.24,24.36,13.2,28.4,8,31.61ZM43.29,8.76A2.28,2.28,0,0,1,40.9,11.1c-.88,0-1.17-.23-1.75-1.4C37.86,7.3,36.22,5.61,34.35,5c-.64-.23-.76-.29-.76-.52,0-.41.47-.53,1.82-.53C39.55,4,43.29,6.25,43.29,8.76Zm7-4A2.17,2.17,0,0,1,47.85,7a1.61,1.61,0,0,1-1.64-.93c-1.51-2.63-3.79-4.5-5.9-4.91A.45.45,0,0,1,40,.7c0-.35.76-.52,2.28-.52C46.68.18,50.25,2.22,50.25,4.79Z"/><path class="cls-1" d="M95.87,38.33A42,42,0,0,1,80.62,49.25a32.17,32.17,0,0,1-8.82,2c-.41,0-.64-.18-.64-.47s.17-.41.64-.52c5.61-1.41,12.09-5.5,16.65-10.4,3.21-3.51,5.14-6.55,7.65-12.39,1.23-2.86,1.58-3.86,1.58-4.44S97,22,95.75,22c-3.38,0-15.07,2.57-17.93,4-1.87.88-1.87.88-2.28.88-2.51,0-5.73-3.39-5.73-6,0-.93.18-1.4.53-1.4.17,0,.29.11.53.52.64,1.11,2.74,1.93,4.9,1.93a151.39,151.39,0,0,0,18.11-2.39,14.65,14.65,0,0,0,4.5-1.41c1.58-.7,1.87-.81,2.28-.81.82,0,1.81.7,4.44,3.33,1.29,1.28,1.29,1.28,1.29,1.81a1.06,1.06,0,0,1-.24.64,1.77,1.77,0,0,1-.7.41,4.06,4.06,0,0,0-1.28.76C100.78,31.43,98.68,35.06,95.87,38.33ZM75.31,9.23a6.44,6.44,0,0,0,4.2,1.17A52.54,52.54,0,0,0,90,8.82a10.08,10.08,0,0,0,3.1-1.17C94,7.13,94.29,7,94.64,7c2,0,5.44,2.05,5.44,3.33,0,.7-.7,1.11-2.11,1.35-2.51.29-4.32.58-7.18,1.16a55.8,55.8,0,0,1-9.64,1.41,6.19,6.19,0,0,1-5-2.22,7.86,7.86,0,0,1-1.63-2.81.37.37,0,0,1,.35-.29C75,8.94,75.07,9,75.31,9.23Z"/><path class="cls-1" d="M147.92,18.52a3.22,3.22,0,0,1-3.21,3.1c-1.17,0-1.69-.47-2.51-2.22-1.4-3.1-5.55-7-8.53-7.83-.47-.12-.65-.24-.65-.41,0-.47,1.47-.76,3.57-.76C142.26,10.4,147.92,14.49,147.92,18.52ZM174.51,11c0,.94-3.22,6.55-5.67,9.88A87.77,87.77,0,0,1,144,43.47a6.66,6.66,0,0,0-1.11.76c-.35.29-.7.64-1.11.93a1.59,1.59,0,0,1-.82.35c-.93,0-2.39-.87-4.09-2.45-2.22-2.1-3-3.33-3-4.62s.36-2.33.82-2.33c.18,0,.24,0,.53.58s2.1,1.4,3.45,1.4c3.15,0,8.58-2.86,14.95-7.88,7.66-6,16.13-14.2,19.69-18.93.41-.47.64-.7.88-.7A.5.5,0,0,1,174.51,11Z"/><path class="cls-1" d="M209.56,22.9a44.07,44.07,0,0,1-9.64,18.58,31.76,31.76,0,0,1-9.35,7,5.61,5.61,0,0,1-1.69.59.45.45,0,0,1-.47-.41c0-.18.17-.35.82-.82a34,34,0,0,0,11.56-15.77c2-5.2,3-9.41,3-12.33,0-2.28-.87-3.92-2.51-4.62-.23-.11-.41-.23-.41-.41,0-.46,1.05-1,2.16-1a8.09,8.09,0,0,1,4.5,1.87c1.64,1.23,3,3,3,3.8a2.69,2.69,0,0,1-.23.82,6.85,6.85,0,0,0-.41,1.28Zm5.31,6.66c0-11.16-.05-14.19-.4-15.19A2.43,2.43,0,0,0,213,12.56c-.46-.12-.58-.17-.58-.41,0-.46,2-1.34,3-1.34s1.75.35,4.21,2.28c1.11.87,1.69,1.58,1.69,2.1a4,4,0,0,1-.52,1.46,5,5,0,0,0-.59,1.81c-.12,1.17-.29,2.81-.58,7.13-.3,4.09-.53,6.89-.53,7.3C219,33.48,219,34,219,34.3c0,.76.24,1.22.65,1.22,1,0,4.09-1.4,6.42-3A59.67,59.67,0,0,0,237,23,57.71,57.71,0,0,0,242.8,15c.29-.59.47-.76.76-.76a.45.45,0,0,1,.47.41c0,1.11-3.1,6.89-5.61,10.51A56.13,56.13,0,0,1,221,41.25c-.88.52-1.4.88-1.64,1l-.81.64a1.55,1.55,0,0,1-.88.36,2.33,2.33,0,0,1-1.58-1,9.91,9.91,0,0,1-2.16-3.8l.94-3.27Z"/><path class="cls-1" d="M304.55,28.34c0,1.17-1.17,1.92-3,1.92-.52,0-2.39-.17-4.9-.4-1.23-.12-3-.18-5.15-.18-14.6,0-23.25.82-27.63,2.57a2.26,2.26,0,0,1-.82.18,10.55,10.55,0,0,1-5-1.93,5.46,5.46,0,0,1-2.11-4.73c0-1.06.29-1.64.88-1.64.17,0,.29.12.58.58.88,1.46,2.81,2,7.48,2,4.44,0,19-.88,23-1.34a46.49,46.49,0,0,0,9.29-2C302.1,24.36,304.55,26.06,304.55,28.34Z"/><path class="cls-1" d="M337.67,25c2.93-6.61,3.8-9.35,3.8-11.92a3.59,3.59,0,0,0-1.75-3.33c-.18-.06-.23-.12-.23-.18,0-.41.76-.7,1.75-.7,1.58,0,2.57.47,4.56,2.1,2.63,2.17,3.5,3.33,3.5,4.68,0,.35-.12.58-.58,1.05-1.87,1.69-11.86,17.41-13.79,21.68,8-1.35,11.22-2,20.62-4.27a16.15,16.15,0,0,0-4.9-6c-.47-.35-.65-.58-.65-.87a.4.4,0,0,1,.41-.41c.88,0,3.74,1.17,5.79,2.33,5.31,3,9.52,8.83,9.52,13A3.72,3.72,0,0,1,362.21,46c-1.22,0-1.87-.76-2.63-3.1a33.47,33.47,0,0,0-2.8-6.83c-5.78,2-12.33,4.09-20.86,6.6-4.5,1.34-5.31,1.64-6.72,2.69a2.64,2.64,0,0,1-1.34.58c-.82,0-1.75-.64-3.27-2.22-1.93-2-2.51-2.92-2.51-4.15,0-.93.29-1.63.7-1.63.11,0,.11,0,.64.52a3.82,3.82,0,0,0,2.8.76,41.68,41.68,0,0,0,4.68-.35C333.18,34.65,335,31,337.67,25Z"/><path class="cls-1" d="M395.1,52c0,1-1.34,1.52-3.74,1.52-.7,0-.93-.18-.93-.82V31.08a32.94,32.94,0,0,1-6,6.55c-1.64,1.34-2.51,2-2.8,2a.38.38,0,0,1-.41-.35c0-.29,0-.29,2.51-3.8,5.08-7.12,7.89-14.08,10.4-25.47l6,2.81a1.46,1.46,0,0,1,.87,1.28c0,.7-.46,1.17-1.28,1.4l-1.4.3A40.63,40.63,0,0,1,395.16,23l.93.7c.59.47.76.7.76,1a1.21,1.21,0,0,1-.76,1.05l-1,.64ZM390.43,9.47a26.85,26.85,0,0,1,.23,2.92,8.81,8.81,0,0,1-1.52,4.5,4.8,4.8,0,0,1-3.8,1.92,2.71,2.71,0,0,1-2.86-2.8c0-1,.47-1.81,1.64-2.92,2.74-2.34,4-4.62,4.15-7.48.05-.82.11-.94.35-.94s.7.82,1.4,3.22h15.36V.18l6.26.58a1.08,1.08,0,0,1,1.11,1.11A1.2,1.2,0,0,1,411.81,3l-.93.35V7.89h14.55l2.27-3.45L433.37,10a1.58,1.58,0,0,1,.47,1,1.22,1.22,0,0,1-1.52,1.17h-.18l-2.68-.12c-.41.24-.7.47-.76.47l-2.34,1.64-2.16,1.46c-1.29.87-1.29.87-1.46.87a.37.37,0,0,1-.35-.35c0-.23.11-.46.64-1.34a38.71,38.71,0,0,0,2.4-5.37Zm8.12,8.29c3.91.18,5.61.24,7.77.24h17.94l3.62-4,5,4.15a1,1,0,0,1,.46.76c0,.47-.35.7-1.05.7H418.12c-2.51,3.57-2.86,4.09-5.2,7.19H423l2-3.33L430,28a1.77,1.77,0,0,1,.59,1.11c0,.71-.35,1.06-1.23,1.23l-1,.18V51.42c0,.58-.24.87-.88,1.16a9.49,9.49,0,0,1-3.1.65c-.58,0-.87-.24-.87-.76V50.3H406.67v1.64c0,1.05-1.46,1.69-4,1.69-.59,0-.88-.29-.88-.93V23.55l5.78,3.21h2.69a47.76,47.76,0,0,0,1.17-7.19h-5.14c-2.16,0-3.68.06-7,.18Zm24.89,19.69V28.34H406.67v9.11Zm0,11.28V39H406.67v9.7Z"/><path class="cls-1" d="M451.13,16.94c2.69,1.11,4.44,3.28,4.44,5.55a3.11,3.11,0,0,1-2.86,3.33c-1.41,0-2.17-.76-2.69-2.8-.94-3.1-2.11-5-4-6.49-.29-.23-.35-.29-.35-.4s.12-.24.41-.24A17.8,17.8,0,0,1,451.13,16.94Zm12.44-5.14a.72.72,0,0,1,.59-.41.58.58,0,0,1,.52.59.42.42,0,0,1-.06.23l-9.29,26.64a4.26,4.26,0,0,0-.29,1.7,14,14,0,0,0,.35,2.63A38.09,38.09,0,0,1,456.44,50a3.2,3.2,0,0,1-3.38,3.45,2.72,2.72,0,0,1-3-3,30.5,30.5,0,0,1,.58-4.85,18.52,18.52,0,0,0,.29-2.69c0-2-1.28-3.38-3.79-4.14-.82-.24-.94-.35-.94-.7s.35-.71,1-.71,2.22.18,3.74.36Zm-3.15-2.69c0,2.05-1.29,3.57-2.92,3.57-1.46,0-2.34-.88-3-3.21-1-3.34-1.64-4.27-4-6.14-.23-.17-.29-.23-.29-.35,0-.29.29-.47.88-.47C456,2.51,460.42,5.61,460.42,9.11Zm10.22,43.77c0,.75-2.16,1.57-4.32,1.57-.82,0-1.11-.29-1.11-1V11l6.25,3.39h2.69A141.17,141.17,0,0,0,476.48.18l6.61,2c.81.23,1.28.7,1.28,1.34S484,4.73,483,5.08l-1.11.47c-.76,1.17-.82,1.29-2.75,4.27-.76,1.16-1.69,2.57-3.09,4.55h13.73l2.68-4.09,5.26,5.79a2,2,0,0,1,.76,1.28c0,.53-.35.88-1.34,1.4l-1.05.53V52.12c0,.46-.3.81-1,1.05a10.68,10.68,0,0,1-3.56.7c-.76,0-1.11-.24-1.11-.82V50.3H470.64ZM490.45,31.2V16H470.64V31.2Zm0,17.53V32.78H470.64V48.73Z"/><path class="cls-1" d="M527.78,52.88c0,.58-2.46,1.46-4.09,1.46-.82,0-1.17-.41-1.17-1.35V36.05c-4.09,2.63-11.86,6.54-13,6.54-.24,0-.47-.17-.47-.35s0-.29,1.29-1.11L512.24,40l2.68-1.81,2.69-1.81,2.1-1.52a16,16,0,0,0,2.81-2.22V27.17l4.61,1.93c2.46-1.93,5.79-4.79,7.37-6.31H522c-3.91,0-5.2.05-10.05.29l-1.46-2.22c6,.29,8.42.35,11.51.35h7.83V11.69h-5.14c-1.81,0-3.62.05-8.7.23l-1.47-2.05,5.73.18c1.87.06,3.45.06,4.44.06h5.14V.29l6.25.59a1,1,0,0,1,1,1A1.25,1.25,0,0,1,536.42,3l-1.34.88v6.25h3l3-3.51,4.26,3.51a1.4,1.4,0,0,1,.53,1,96.81,96.81,0,0,0,6.08-7.71l4.67,3.91a1.83,1.83,0,0,1,.53,1.17,1,1,0,0,1-.76,1l-2.52.3c-2.22,2.51-8.7,8.93-11.51,11.39h11.51l4-4.62,5.43,4.68a1,1,0,0,1,.35.76c0,.41-.23.76-.52.76H540.51a82.88,82.88,0,0,1-9.11,7h14.9l2.28-3.1,4.67,4.91a1.58,1.58,0,0,1,.47,1.05,1.12,1.12,0,0,1-.76,1l-1.05.4V52.35c0,.47-.41.82-1.29,1a11.57,11.57,0,0,1-3,.53c-.64,0-.93-.3-.93-.88V50.42H527.78Zm18.93-14.32V31.32H527.78v7.24Zm0,10.28v-8.7H527.78v8.7ZM536.19,21.21a113.13,113.13,0,0,0,9.17-9.52H535.08v9.52Z"/><path class="cls-1" d="M581.17,52.17c0,1-.35,1.29-1.87,1.58a22.66,22.66,0,0,1-2.39.35c-.47,0-.64-.23-.64-.76V2.16l5.9,2.69h6.77l1.82-2.69,3.91,4.27a1.78,1.78,0,0,1,.47,1.22c0,.7-.41,1.06-1.23,1.17l-1,.12L585.2,19.57c.3.3.71.59,1.11.94,3.69,2.86,4.56,3.74,5.85,5.66A12.78,12.78,0,0,1,594.32,33c0,4.73-3.33,9.29-6.78,9.29-1.11,0-1.46-.53-1.4-1.81s.06-1.29-2.22-2.45-2.22-1.11-2.22-1.35.12-.47.53-.47l2,.06c.64.06,1.11.06,1.4.06,2.81,0,3.74-1.23,3.74-5A11.93,11.93,0,0,0,587.48,25a31.49,31.49,0,0,0-2.28-3.16c-.58-.76-.7-.93-1.51-2.1l5-13.26h-7.54Zm8.94-5.08c2.81-.41,3.33-.47,6.72-1.11V2.69l5.49,2.57h12.33l2-3,4.67,4.62A1.91,1.91,0,0,1,622,8.12c0,.59-.35,1-1.16,1.4l-.59.3V27.23c0,1.17-1.58,1.92-3.8,1.92-.87,0-1.11-.23-1.11-1v-2h-7.12a33.32,33.32,0,0,0,5.2,10.51A51,51,0,0,0,623,25.71l4.09,3.8a1.71,1.71,0,0,1,.58,1.11c0,.58-.41.81-1.4.93l-1.75.18-1.41.75-3.79,2.23-3.68,2.16-1.46.87a40,40,0,0,0,15.48,10.75c-3,1.41-4.38,2.57-5.79,4.74-10.51-7.95-15.54-15.95-17.06-27.11h-4.85v19.1l1.29-.29c1.69-.35,1.93-.41,2.86-.58,1.29-.3,2.4-.53,3.33-.71l2.46-.52.58-.06a.49.49,0,0,1,.53.47c0,.41-.41.7-2.4,1.63-3.09,1.46-7.71,3.39-14,5.85l-.7,1.34a1.39,1.39,0,0,1-1.29.82c-.46,0-.76-.18-1.11-.76ZM615.29,14.9V6.84H601.91V14.9Zm0,9.64V16.48H601.91v8.06Z"/><path class="cls-1" d="M667.75,46.39A70.37,70.37,0,0,0,678,47c5.26,0,6.48-.06,15.6-.93-2.51,3-2.81,3.39-3.56,5.55-3.69.23-6.08.29-9.88.29-8.59,0-14-.82-17.64-2.75-4.09-2.1-8-6.36-10.35-11.33-1.92,4.38-2.33,5.14-4.09,7.42a31.88,31.88,0,0,1-7.18,7.07c-.88.58-1.23.82-1.52.82a.33.33,0,0,1-.35-.29c0-.3,0-.3,1.23-1.76,5.72-6.83,8.35-14,9.23-25.65l6.6,1.76a1,1,0,0,1,.82,1,1.07,1.07,0,0,1-.65,1l-1.81.82a43.83,43.83,0,0,1-1.63,6.14c2.16,3.79,6.42,7.65,9.7,8.7V20.92h-5.9c-3.69,0-4.45,0-8.71.23l-1.4-2.1c5.14.23,7,.29,10.11.29h18.81L679,15.13l4.91,4a1.25,1.25,0,0,1,.47.94c0,.47-.3.82-.59.82H667.75V32.54h9.7l4.15-4.26,4.85,4.09a1,1,0,0,1,.35.82c0,.52-.23.93-.52.93H667.75ZM648.18,11.45c0,4.21-2.16,7.25-5.26,7.25a2.86,2.86,0,0,1-3.09-2.87c0-1.28.29-1.75,2.45-3.44a9.72,9.72,0,0,0,3.62-6.61c.12-.93.24-1.22.59-1.22s.76.7,1.34,3.21h14.61V0l6.6.53a1.06,1.06,0,0,1,1,1.05,1.42,1.42,0,0,1-.81,1.22l-1.47.71V7.77h15.43l2.22-3.15,5.67,5.49a2.35,2.35,0,0,1,.7,1.28c0,.53-.7,1.35-1,1.29l-.35-.06-3.28-.12c-2.1,1.46-2.33,1.58-2.86,1.93l-1.69,1.17c-.94.64-1.23.82-1.46.82a.16.16,0,0,1-.18-.18,8.6,8.6,0,0,1,.58-1.63,28.27,28.27,0,0,0,1.93-5.26H648.12Z"/><path class="cls-1" d="M212.71,121.25c-4.91,3-12.91,6.07-16.06,6.07-.3,0-.53-.17-.53-.41s.17-.35.53-.46c7.53-2.63,13.32-6.61,19.1-13.15a37.41,37.41,0,0,0,8.06-13.9A17.72,17.72,0,0,0,224.92,95c0-.94-.52-1.29-1.81-1.29a72.94,72.94,0,0,0-11.57,2,24.67,24.67,0,0,0-7,2.45,1.89,1.89,0,0,1-1,.41A7.74,7.74,0,0,1,200,96.83a5.65,5.65,0,0,1-2-4.74c0-.47.17-.82.47-.82.11,0,.23.12.46.41.7,1.06,2.4,1.7,4.44,1.7a139.08,139.08,0,0,0,15-1.81c3.62-.65,4.73-1.06,7-2.34,1.17-.7,1.46-.82,2-.82.7,0,1.64.53,5,2.86,1.22.82,2,1.64,2,2s-.53.93-2.69,2.45C226.33,108.8,220.89,116.16,212.71,121.25Zm29.8-37.86a5.87,5.87,0,1,1-5.78-5.85A5.89,5.89,0,0,1,242.51,83.39ZM233,83.33a3.6,3.6,0,1,0,3.63-3.57A3.6,3.6,0,0,0,233,83.33Z"/><path class="cls-1" d="M293,116.92a27.31,27.31,0,0,0-5.9-.58,101.07,101.07,0,0,0-15.3,1.4,15,15,0,0,1,.17,1.81c0,1.81-.82,3-2,3-1.63,0-4-2-4-3.45,0-.06.06-.35.12-.7a13.25,13.25,0,0,0,.12-1.87c0-5.43-1.35-16.18-2.34-19a4.56,4.56,0,0,0-3.27-2.75c-.3-.06-.35-.12-.35-.35,0-.47,1.57-.88,3.38-.88,2.05,0,3.74.88,5.5,2.87,9.17-.82,12-1.17,18.69-2.22,2.87-1.46,4-2,4.44-2,.7,0,1.41.47,3.8,2.39,1.81,1.52,2.28,2,2.28,2.52,0,.35-.94,1.52-2.51,3.09a49.13,49.13,0,0,0-2,6.37L292.17,113c1.69,1.4,2.57,2.45,2.57,3.1a.88.88,0,0,1-.94.87Zm-3.56-17.47a6.91,6.91,0,0,0,.06-1c0-.93-.47-1.28-1.7-1.28A178.9,178.9,0,0,0,270,99.45c.71,5.67,1,8.71,1.52,15.19,5.85-.46,7.6-.64,15.9-1.63Z"/><path class="cls-1" d="M329.32,109.5a19,19,0,0,1-4.38,2.11.38.38,0,0,1-.35-.35c0-.18.17-.41.52-.65,6.9-4.79,14.43-16.36,14.43-22.2,0-1.81-.75-3.27-1.75-3.62-.47-.12-.58-.23-.58-.35,0-.41,1.11-.76,2.33-.76a8.69,8.69,0,0,1,4.85,1.69c1.35.88,2.52,2.28,2.52,2.92s-1.23,2.93-2.75,5.38a2.87,2.87,0,0,0,1,.17c2.11,0,6.61-1.57,9.06-3.15a4.56,4.56,0,0,1,2-.94c1.23,0,5.67,4,5.67,5.21,0,.17-.23.52-.7.87s-.82.7-1.52,1.4c-5.49,9.94-7.36,12.74-11.51,16.89a57.08,57.08,0,0,1-20.39,13.14,28,28,0,0,1-6.08,1.58.43.43,0,0,1-.4-.35c0-.23.17-.35.64-.52,4.67-1.64,10.46-5.26,15.36-9.53a67.26,67.26,0,0,0,13.21-16.06c1.75-3.1,2.69-5.32,2.69-6.61a1.13,1.13,0,0,0-1.11-1.17,14.34,14.34,0,0,0-2.57.59,27.94,27.94,0,0,1-4.39,1,3.34,3.34,0,0,1-1.92-.76C338.55,102.26,334.52,106.29,329.32,109.5Zm35.29-22.84a2.29,2.29,0,0,1-2.4,2.34c-.87,0-1.17-.24-1.75-1.41-1.28-2.39-2.92-4.09-4.79-4.67-.64-.23-.76-.29-.76-.53,0-.41.47-.52,1.81-.52C360.87,81.87,364.61,84.15,364.61,86.66Zm6.95-4a2.16,2.16,0,0,1-2.39,2.22,1.62,1.62,0,0,1-1.64-.94c-1.52-2.63-3.8-4.5-5.9-4.91a.44.44,0,0,1-.35-.46c0-.35.76-.53,2.28-.53C368,78.07,371.56,80.12,371.56,82.69Z"/><path class="cls-1" d="M417.19,116.22a42.08,42.08,0,0,1-15.25,10.93,32.57,32.57,0,0,1-8.82,2c-.41,0-.65-.17-.65-.46s.18-.41.65-.53c5.6-1.4,12.09-5.49,16.65-10.4,3.21-3.5,5.14-6.54,7.65-12.39,1.23-2.86,1.58-3.85,1.58-4.44s-.7-1-1.93-1c-3.39,0-15.07,2.57-17.94,4-1.87.87-1.87.87-2.28.87-2.51,0-5.72-3.39-5.72-6,0-.93.17-1.4.52-1.4.18,0,.3.12.53.53.64,1.11,2.75,1.93,4.91,1.93a151.9,151.9,0,0,0,18.11-2.4,14.68,14.68,0,0,0,4.5-1.4c1.58-.7,1.87-.82,2.28-.82.82,0,1.81.7,4.44,3.33,1.28,1.29,1.28,1.29,1.28,1.81a1,1,0,0,1-.23.64,1.73,1.73,0,0,1-.7.41,4.4,4.4,0,0,0-1.29.76C422.1,109.33,420,113,417.19,116.22ZM396.62,87.13a6.47,6.47,0,0,0,4.21,1.16,52.45,52.45,0,0,0,10.46-1.57,10.66,10.66,0,0,0,3.09-1.17c.94-.53,1.23-.64,1.58-.64,2.05,0,5.43,2,5.43,3.33,0,.7-.7,1.11-2.1,1.34-2.51.29-4.32.58-7.19,1.17a56.35,56.35,0,0,1-9.64,1.4,6.18,6.18,0,0,1-5-2.22,7.75,7.75,0,0,1-1.64-2.8.39.39,0,0,1,.35-.3C396.33,86.83,396.39,86.89,396.62,87.13Z"/><path class="cls-1" d="M466.2,102.9c2.92-6.6,3.8-9.35,3.8-11.92a3.59,3.59,0,0,0-1.75-3.33c-.18-.06-.24-.11-.24-.17,0-.41.76-.7,1.76-.7,1.57,0,2.57.46,4.55,2.1,2.63,2.16,3.51,3.33,3.51,4.67,0,.35-.12.59-.59,1-1.87,1.7-11.86,17.42-13.78,21.68,8-1.34,11.21-2,20.62-4.26a16,16,0,0,0-4.91-6c-.47-.35-.64-.59-.64-.88a.4.4,0,0,1,.41-.41c.87,0,3.74,1.17,5.78,2.34,5.32,3,9.53,8.82,9.53,13a3.71,3.71,0,0,1-3.51,3.85c-1.23,0-1.87-.76-2.63-3.09a34.73,34.73,0,0,0-2.8-6.84c-5.79,2-12.33,4.09-20.86,6.6-4.5,1.35-5.32,1.64-6.72,2.69a2.68,2.68,0,0,1-1.34.59c-.82,0-1.76-.65-3.28-2.22-1.92-2-2.51-2.93-2.51-4.15,0-.94.29-1.64.7-1.64.12,0,.12,0,.65.53a3.85,3.85,0,0,0,2.8.76,41.56,41.56,0,0,0,4.67-.35C461.7,112.54,463.51,108.92,466.2,102.9Z"/></g></g></svg>