<svg xmlns="http://www.w3.org/2000/svg" width="1276.558" height="111.82" viewBox="0 0 638.279 55.91">
  <defs>
    <style>
      .cls-1 {
        fill: #fff;
        fill-rule: evenodd;
      }
    </style>
  </defs>
  <path id="グランツーリスモカフェ" class="cls-1" d="M457.053,1007.02c-1.664,0-2.5.19-2.5,0.58a0.493,0.493,0,0,0,.384.51c2.3,0.45,4.8,2.49,6.463,5.37a1.766,1.766,0,0,0,1.792,1.03,2.373,2.373,0,0,0,2.624-2.43C465.82,1009.26,461.916,1007.02,457.053,1007.02Zm-7.488,4.16c-1.472,0-1.984.13-1.984,0.58,0,0.25.128,0.32,0.832,0.57,2.048,0.64,3.84,2.5,5.248,5.12,0.64,1.28.96,1.54,1.92,1.54a2.506,2.506,0,0,0,2.624-2.56C458.205,1013.68,454.109,1011.18,449.565,1011.18Zm-14.783,14.85a3.719,3.719,0,0,0,2.112.83,30.622,30.622,0,0,0,4.8-1.09,15.859,15.859,0,0,1,2.815-.64,1.233,1.233,0,0,1,1.216,1.28c0,1.41-1.024,3.84-2.943,7.23a73.694,73.694,0,0,1-14.463,17.6c-5.376,4.67-11.711,8.64-16.831,10.43-0.512.19-.7,0.32-0.7,0.58a0.478,0.478,0,0,0,.448.38,30.542,30.542,0,0,0,6.655-1.73,62.538,62.538,0,0,0,22.335-14.4c4.543-4.54,6.591-7.61,12.607-18.49,0.768-.77,1.088-1.02,1.664-1.54a1.678,1.678,0,0,0,.768-0.96c0-1.28-4.864-5.69-6.208-5.69a4.858,4.858,0,0,0-2.24,1.02c-2.687,1.73-7.615,3.46-9.919,3.46a3.461,3.461,0,0,1-1.088-.19c1.664-2.69,3.008-5.32,3.008-5.89,0-.71-1.28-2.24-2.752-3.2a9.52,9.52,0,0,0-5.312-1.86c-1.343,0-2.559.39-2.559,0.84,0,0.12.128,0.25,0.64,0.38,1.088,0.38,1.919,1.98,1.919,3.97,0,6.4-8.255,19.07-15.806,24.31a1.085,1.085,0,0,0-.576.71,0.411,0.411,0,0,0,.384.38,20.755,20.755,0,0,0,4.8-2.3C425.247,1037.93,429.663,1033.51,434.782,1026.03Zm45.825-9.41a0.413,0.413,0,0,0-.384.32,8.493,8.493,0,0,0,1.792,3.07,6.772,6.772,0,0,0,5.5,2.43,62.134,62.134,0,0,0,10.559-1.53c3.136-.64,5.12-0.96,7.871-1.28,1.536-.26,2.3-0.71,2.3-1.48,0-1.4-3.711-3.64-5.951-3.64a3.552,3.552,0,0,0-1.728.7,11.306,11.306,0,0,1-3.392,1.28,57.594,57.594,0,0,1-11.455,1.73c-2.048,0-3.84-.51-4.608-1.28A0.653,0.653,0,0,0,480.607,1016.62Zm32.126,16.7a4.474,4.474,0,0,1,1.408-.83,2,2,0,0,0,.768-0.45,1.172,1.172,0,0,0,.256-0.7c0-.58,0-0.58-1.408-1.99-2.88-2.88-3.968-3.64-4.864-3.64-0.448,0-.768.12-2.5,0.89a15.867,15.867,0,0,1-4.927,1.54,164.99,164.99,0,0,1-19.839,2.62c-2.368,0-4.671-.89-5.375-2.11a0.791,0.791,0,0,0-.576-0.58c-0.384,0-.576.52-0.576,1.54,0,2.88,3.519,6.59,6.271,6.59,0.448,0,.448,0,2.5-0.96,3.136-1.53,15.935-4.35,19.647-4.35,1.344,0,2.112.38,2.112,1.15,0,0.64-.384,1.73-1.728,4.87-2.752,6.39-4.864,9.72-8.384,13.56-4.991,5.38-12.095,9.86-18.238,11.39-0.512.13-.7,0.32-0.7,0.58a0.573,0.573,0,0,0,.7.51,35.818,35.818,0,0,0,9.663-2.17,46.087,46.087,0,0,0,16.7-11.97C506.717,1045.22,509.021,1041.26,512.733,1033.32Zm20.8-15.1c-2.3,0-3.9.32-3.9,0.83,0,0.19.192,0.32,0.7,0.45,3.264,0.96,7.808,5.18,9.344,8.57,0.9,1.92,1.472,2.44,2.752,2.44a3.531,3.531,0,0,0,3.519-3.4C545.951,1022.7,539.744,1018.22,533.536,1018.22Zm41.085,0.19a1.73,1.73,0,0,0-.96.77c-3.9,5.18-13.183,14.14-21.566,20.73-6.976,5.51-12.927,8.64-16.383,8.64-1.472,0-3.328-.77-3.776-1.53-0.32-.64-0.384-0.64-0.576-0.64-0.512,0-.9,1.21-0.9,2.56,0,1.4.9,2.75,3.328,5.05,1.856,1.73,3.456,2.69,4.48,2.69a1.832,1.832,0,0,0,.9-0.38c0.448-.32.832-0.71,1.216-1.03a7.129,7.129,0,0,1,1.216-.83,95.984,95.984,0,0,0,27.262-24.77c2.687-3.64,6.207-9.79,6.207-10.81A0.548,0.548,0,0,0,574.621,1018.41Zm26.051,0.06c-0.832,0-1.216.13-1.216,0.45a0.408,0.408,0,0,0,.384.32c2.944,1.54,5.888,5.83,7.1,10.31,0.768,3,1.152,3.58,2.56,3.58a3.981,3.981,0,0,0,3.711-4.1C613.215,1024.23,606.368,1018.47,600.672,1018.47Zm29.438,8.07c1.344-1.35,1.472-1.47,1.472-2.05,0-.96-1.728-3.33-3.968-5.44a7.759,7.759,0,0,0-5.311-2.24,0.815,0.815,0,0,0-.96.58,0.564,0.564,0,0,0,.192.38c1.216,1.09,1.472,1.79,1.472,3.97,0,6.27-4.544,15.81-11.008,23.29-6.143,6.98-14.847,13.38-21.374,15.81-0.7.19-.832,0.32-0.832,0.64a0.516,0.516,0,0,0,.576.45,35.865,35.865,0,0,0,6.143-1.54c7.936-2.62,15.359-7.74,21.823-15.04A62.755,62.755,0,0,0,630.11,1026.54Zm-41.6-1.47c-0.9,0-1.216.12-1.216,0.44a0.375,0.375,0,0,0,.256.32c2.3,1.28,5.5,5.38,6.976,9.09,0.832,2.37.832,2.37,1.216,2.75a1.6,1.6,0,0,0,1.343.64c1.92,0,3.456-1.92,3.456-4.28,0-2.76-1.984-5.44-5.439-7.3A16.922,16.922,0,0,0,588.513,1025.07Zm101.118,7.36a50.18,50.18,0,0,1-10.176,2.17c-4.415.51-20.35,1.47-25.214,1.47-5.119,0-7.231-.57-8.191-2.17a0.936,0.936,0,0,0-.64-0.64c-0.64,0-.96.64-0.96,1.79a5.951,5.951,0,0,0,2.3,5.18,11.423,11.423,0,0,0,5.5,2.11,2.464,2.464,0,0,0,.9-0.19c4.8-1.92,14.271-2.81,30.27-2.81,2.368,0,4.288.06,5.632,0.19,2.751,0.26,4.8.45,5.375,0.45,1.984,0,3.264-.83,3.264-2.11C697.694,1035.37,695.006,1033.51,689.631,1032.43Zm44.737-18.11c-1.471,0-4.351,1.21-4.351,1.85,0,0.32.192,0.45,0.9,0.51,2.815,0.26,3.327,1.86,3.327,10.11,0,13.06-1.343,18.43-5.951,24a34.964,34.964,0,0,1-14.079,10.05c-0.9.26-1.152,0.45-1.152,0.77,0,0.19.192,0.32,0.512,0.32a26.771,26.771,0,0,0,6.143-1.67c9.152-3.13,15.039-7.74,18.047-14.01,1.92-4.1,2.5-8.9,2.5-21.5,0-3.72.064-3.91,0.9-5.25a1.538,1.538,0,0,0,.256-0.77c0-.58-0.64-1.15-2.752-2.5C735.712,1014.44,735.392,1014.32,734.368,1014.32Zm-17.534,3.13c-1.344,0-4.8,1.54-4.8,2.18,0,0.19.192,0.32,0.576,0.38,2.3,0.38,3.52,1.41,3.84,3.33,0.192,1.02.384,5.82,0.384,8.25a48.289,48.289,0,0,1-.256,6.02,6.424,6.424,0,0,0-.256,1.15c0,1.79,2.88,4.35,4.8,4.35,0.96,0,1.664-1.08,1.664-2.56,0-.7-0.064-1.6-0.128-2.68-0.128-1.99-.32-6.53-0.32-7.49,0-4.61.128-6.59,0.384-7.49a3.959,3.959,0,0,0,.192-1.02C722.913,1020.27,719.01,1017.45,716.834,1017.45Zm65.536,3.39c-6.72,1.41-7.552,1.54-9.408,1.54s-3.391-.58-3.9-1.41c-0.32-.58-0.32-0.58-0.576-0.58-0.32,0-.7,1.09-0.7,2.05a4.316,4.316,0,0,0,1.536,3.01,8.085,8.085,0,0,0,3.583,2.05,5.9,5.9,0,0,0,1.92-.64,84.044,84.044,0,0,1,11.327-4.03,7.431,7.431,0,0,1,2.56-.58,0.87,0.87,0,0,1,1.024.83c0,0.58-.448,1.79-1.536,4.42a63.7,63.7,0,0,1-7.615,13.44c-5.76,7.74-13.439,14.2-20.607,17.47-1.728.77-2.112,1.02-2.112,1.34a0.516,0.516,0,0,0,.576.45,14.5,14.5,0,0,0,3.136-.77,50.546,50.546,0,0,0,16.959-9.28c3.072-2.56,5.184-4.8,9.407-10.24a29.73,29.73,0,0,1,11.583,14.15c1.216,2.94,1.92,3.71,3.456,3.71a4.021,4.021,0,0,0,3.9-3.97c0-3.01-2.176-6.53-5.952-9.54a29.05,29.05,0,0,0-12.159-5.69,109.131,109.131,0,0,0,8.256-14.34c1.471-.89,2.047-1.4,2.047-1.98,0-.51-0.384-1.02-1.791-2.18-2.432-1.98-3.968-2.94-4.672-2.94-0.576,0-1.088.32-2.24,1.22a7.331,7.331,0,0,1-4.032,1.72Zm58.24,24.45c0,4.35.96,7.55,2.943,9.53,2.048,2.05,6.912,3.33,12.736,3.33,6.975,0,10.943-1.53,10.943-4.22,0-1.86-1.408-3.59-3.008-3.59a7.966,7.966,0,0,0-2.112.52c-3.008.96-5.631,1.28-10.5,1.28-4.736,0-6.016-1.6-6.016-7.56,0-1.72.064-3.51,0.192-8.76a131.831,131.831,0,0,1,13.887-1.03c1.728,0,6.528.26,8.32,0.45a17.072,17.072,0,0,0,2.24.19,1.483,1.483,0,0,0,1.663-1.34c0-.9-0.832-1.86-2.943-3.26-2.048-1.35-3.712-2.24-4.288-2.24-0.512,0-.64.06-5.056,2.24-7.1,1.15-8.511,1.34-13.5,2.04,0.256-3.45.448-4.67,1.024-5.76a2.452,2.452,0,0,0,.448-1.28c0-.64-0.96-1.47-3.52-2.94,12.288-2.18,13.951-2.69,13.951-4.03,0-1.28-3.007-3.52-4.735-3.52a2.5,2.5,0,0,0-1.28.38,52.229,52.229,0,0,1-20.415,5.12c-1.856,0-2.751-.32-3.711-1.28a0.57,0.57,0,0,0-.576.51,6.033,6.033,0,0,0,1.28,2.63,6.752,6.752,0,0,0,4.991,2.37,33.791,33.791,0,0,0,6.592-1.03c0.512,1.28.576,1.92,0.576,4.67,0,1.03,0,2.82-.064,4.93-4.48.58-4.864,0.64-8.512,1.15-5.823.96-6.015,0.96-8,.96-2.368,0-3.968-.44-4.8-1.34a0.759,0.759,0,0,0-.384-0.26,0.654,0.654,0,0,0-.448.77c0,2.63,3.456,6.21,6.016,6.21,0.96,0,1.344-.13,3.2-0.9a81.15,81.15,0,0,1,12.927-3.77Zm74.047-15.81c6.911-1.41,6.911-1.41,7.487-1.41,0.9,0,1.152.39,1.152,1.92,0,9.09-3.839,20.99-6.719,20.99-0.7,0-3.264-1.21-5.44-2.62a1.235,1.235,0,0,0-.512-0.19,0.426,0.426,0,0,0-.448.38c0,0.19.064,0.26,0.832,1.28a12.709,12.709,0,0,1,2.88,6.85v0.45a1.426,1.426,0,0,0-.064.45,1.192,1.192,0,0,0,1.408.89,9.256,9.256,0,0,0,6.207-2.88c3.584-4.22,5.7-10.17,7.616-22.14,0.384-2.56.576-3.26,1.152-3.97,1.28-1.41,1.28-1.41,1.28-1.79,0-.96-5.056-4.54-6.336-4.54-0.384,0-.448.06-1.984,0.96-2.3,1.4-3.263,1.66-8.063,2.56-0.256.06-1.024,0.19-1.92,0.38,0.768-3.01,1.024-4.22,1.664-7.17a2.35,2.35,0,0,0,.768-1.34c0-1.67-5.5-5.18-8-5.18-1.279,0-2.239.44-2.3,1.21,1.728,0.64,2.5,2.18,2.5,5.25a62.25,62.25,0,0,1-.7,8.38,76.033,76.033,0,0,1-11.776,1.47c-2.047,0-3.327-.51-3.967-1.6a0.365,0.365,0,0,0-.32-0.19c-0.32,0-.448.32-0.448,1.28a5.368,5.368,0,0,0,1.92,4.03,7.067,7.067,0,0,0,3.647,1.8,2.053,2.053,0,0,0,1.024-.26,62.885,62.885,0,0,1,9.28-3.39c-2.944,13.12-10.752,23.61-21.759,29.18a0.827,0.827,0,0,0-.512.58,0.516,0.516,0,0,0,.576.44,23.1,23.1,0,0,0,4.8-1.66,35.533,35.533,0,0,0,15.167-11.84c3.775-5.12,4.863-7.61,7.935-18.17Zm70.784-3.84c2.368-1.6,2.944-2.17,2.944-2.69,0-.38-0.9-1.28-2.24-2.17-3.648-2.56-4.672-3.14-5.439-3.14-0.576,0-.9.13-2.176,0.9-2.432,1.41-3.648,1.85-7.616,2.56a151.466,151.466,0,0,1-16.383,1.98c-2.239,0-4.095-.7-4.863-1.85a0.917,0.917,0,0,0-.512-0.45,0.74,0.74,0,0,0-.512.89,6.021,6.021,0,0,0,2.176,5.12,8.566,8.566,0,0,0,3.9,1.86,2.629,2.629,0,0,0,1.024-.38,26.923,26.923,0,0,1,7.68-2.69,79.95,79.95,0,0,1,12.607-2.18c1.472,0,2.048.39,2.048,1.41a19.262,19.262,0,0,1-1.216,4.86c-1.856,5.76-4.352,9.92-8.9,15.17-6.207,7.17-12.479,11.52-20.862,14.4a0.619,0.619,0,0,0-.576.51,0.544,0.544,0,0,0,.64.45c3.072,0,11.263-3.01,16.447-6.02C973.154,1048.62,979.426,1040.36,985.441,1025.64Zm35.779,26.18-4.93.44c-6.72.39-6.72,0.39-8,.39-2.24,0-3.77-.39-4.29-1.09a0.42,0.42,0,0,0-.38-0.32c-0.38,0-.64.77-0.64,1.79,0,0.9.51,1.6,1.98,2.5,2.95,1.92,2.95,1.92,3.97,1.92a6.921,6.921,0,0,0,2.43-.51c5.64-2.05,12.04-2.95,21.57-2.95a55.847,55.847,0,0,1,11.58,1.15,15.157,15.157,0,0,0,2.69.45,1.884,1.884,0,0,0,1.86-1.73c0-1.72-4.03-4.8-6.4-4.8a1.65,1.65,0,0,0-.58.07c-2.81.89-3.39,1.02-14.14,2.11,0.19-7.62.51-10.3,1.34-12.99a1.965,1.965,0,0,0,.26-0.83c0-.45-0.9-1.28-2.37-2.18,2.3-.19,4.16-0.25,6.21-0.25,0.89,0,.89,0,4.22.12l0.77,0.07h0.64a1.5,1.5,0,0,0,1.54-1.41,3.055,3.055,0,0,0-1.54-2.18,8.181,8.181,0,0,0-3.9-1.85,4.6,4.6,0,0,0-1.73.57c-2.56,1.16-5.63,1.86-10.37,2.31-7.68.77-7.68,0.77-8.89,0.77-1.48,0-3.14-.45-3.52-0.96-0.52-.64-0.52-0.64-0.64-0.64-0.32,0-.45.25-0.45,0.89,0,2.37,2.05,4.93,3.97,4.93a2.807,2.807,0,0,0,.57-0.13,10.556,10.556,0,0,1,3.01-.96c3.9-.7,3.9-0.7,4.42-0.7,1.6,0,1.79.77,1.79,7.61a73.679,73.679,0,0,1-.32,8.26Z" transform="translate(-410.781 -1007.03)"/>
</svg>
