<svg xmlns="http://www.w3.org/2000/svg" viewBox="0 0 435.29 112.36"><defs><style>.cls-1{fill:#343434;}</style></defs><title>amenity-title</title><g id="Layer_2" data-name="Layer 2"><g id="Layer_1-2" data-name="Layer 1"><path class="cls-1" d="M36.67,30.89c-.49,0-1.62.05-3.3.11-.49,0-1.84,0-3.41.05l-.65-1.73c3.95.16,5.74.21,7.25.27H40V21.91l4.06.32c.76.06,1.25.49,1.25,1a1.44,1.44,0,0,1-.82,1.14L43.27,25v4.6h2.16l2.49-3.3,3.63,2.87a1.64,1.64,0,0,1,.65,1.08.71.71,0,0,1-.65.65H43.27v3.3a18.93,18.93,0,0,1,5.36,2,4.83,4.83,0,0,1,2.75,4,2,2,0,0,1-1.84,1.94,2,2,0,0,1-1.13-.43A19.18,19.18,0,0,1,46.73,39a8.77,8.77,0,0,0-3.46-3.25V47.82c0,.81-1.19,1.51-2.6,1.51-.48,0-.65-.27-.65-.86V35.86a46.28,46.28,0,0,1-7,7.41C31,45,29.48,46,28.88,46a.54.54,0,0,1-.54-.54c0-.27.27-.59,1.3-1.41A43.09,43.09,0,0,0,39.1,30.89Zm6.06-22c-.33,0-2.27.06-5.14.17-.65.05-2.6.05-4.71.11l-.81-1.9c2.49.11,4.49.16,5.3.16,2.65.11,4.44.17,5.36.17h8.92v-7l3.9.16c.76.06,1.14.33,1.14.92a1.29,1.29,0,0,1-.44,1l-1.3,1v3.9h13l2.92-3.41,3.84,3a1.6,1.6,0,0,1,.7,1c0,.43-.27.64-.86.64H55.87C61.5,14.23,67.72,17.15,77,18.77a10.43,10.43,0,0,0-3.67,4.17c-8.44-3.36-14-7.36-18.4-13.26V23.31c0,.76-1.08,1.36-2.54,1.36-.54,0-.76-.27-.76-.82V11.09a66.23,66.23,0,0,1-13.84,9.36c-4,2.05-6.55,3.24-7,3.24a.46.46,0,0,1-.43-.43c0-.27.54-.65,4.06-2.65,5.9-3.46,9-6,14.23-11.69Zm12,22.13-.54-1.68c5.41.22,5.68.22,7.25.22H63V22.34l4.44.27c.48.06.91.43.91.76a1.35,1.35,0,0,1-.7,1l-1.51.86v4.33h4.6l2.86-3.3,3.84,2.92a1.29,1.29,0,0,1,.6,1,.66.66,0,0,1-.71.71H66.21c1.73,4.27,6.43,8.44,12.92,11.3a8.94,8.94,0,0,0-3.67,3.41A29,29,0,0,1,66.1,33.7V48.09c0,.76-.81,1.13-2.44,1.13-.48,0-.7-.21-.7-.75V35.11a72.82,72.82,0,0,1-8.28,8.11c-3,2.49-5.08,4-5.62,4a.51.51,0,0,1-.43-.49c0-.22,0-.22,1.78-1.73A75.17,75.17,0,0,0,62,30.89Z"/><path class="cls-1" d="M115.91,18.39A12.42,12.42,0,0,1,124,14.93c3.84,0,6.82,2.27,6.82,5.19A3.21,3.21,0,0,1,129.38,23c-1.14.86-1.46,1-6.49,3a94.88,94.88,0,0,0-11.58,5.25c.16,2.38.27,4.11.27,5,0,2.7-.54,3.41-2.7,3.41-.65,0-1-.22-1-.55a1.22,1.22,0,0,1,.06-.43,43.1,43.1,0,0,0,.27-5.84c-4.65,2.76-6.55,4.92-6.55,7.36,0,2.7,2.55,3.78,8.87,3.78a31.12,31.12,0,0,0,8-1,4.24,4.24,0,0,1,1.4-.27c1.14,0,2.6,1.24,2.6,2.22,0,1.78-3.57,2.7-10.93,2.7-4.11,0-6.54-.43-8.81-1.62A6.44,6.44,0,0,1,99,40.46a6.84,6.84,0,0,1,2.76-5.08,38.18,38.18,0,0,1,6.38-4.17c0-3.84-.21-5.62-.7-6.81a2.82,2.82,0,0,0-2.54-1.9,6.34,6.34,0,0,0-3.84,2,32.45,32.45,0,0,0-4.65,5.79c-.6,1-1.19,1.52-1.79,1.52-.81,0-1.89-1.79-1.89-3.19,0-.71.21-1.09,1.3-1.9,5.84-5.08,9.41-10.33,10.44-15.36a16.75,16.75,0,0,1-4.71.92A3.35,3.35,0,0,1,97,10.33a6.76,6.76,0,0,1-.81-2.05.23.23,0,0,1,.21-.22c.06,0,.16,0,.27.22a3.44,3.44,0,0,0,3.19,1.4,14.68,14.68,0,0,0,4.93-.86,10.08,10.08,0,0,0,.16-1.52c0-1.78-.87-2.81-2.54-2.92-.22,0-.27,0-.27-.21,0-.49,1.84-1.36,2.86-1.36,1.73,0,3.57,1.63,3.57,3.19a8.16,8.16,0,0,1-.43,2.06,7.78,7.78,0,0,0,3.46-1.84C113.42,7.14,114,7.52,114,8c0,.65-1.19,1.14-6.33,2.65a62.09,62.09,0,0,1-6.16,11.52,8.64,8.64,0,0,1,3.57-1,5.57,5.57,0,0,1,3.46,1.24c.86.82,1.35,1.73,2,3.84C112.45,22.23,113.75,20.28,115.91,18.39Zm2.33,7c5.19-2.86,6.27-3.51,6.92-4.05a3,3,0,0,0,1.08-1.9c0-1.35-1.62-2.7-3.3-2.7-2.81,0-6.49,2.54-8.6,6a27.36,27.36,0,0,0-3.19,6.66C113.31,28.13,113.69,27.91,118.24,25.42Z"/><path class="cls-1" d="M152.63,7.9h18.66c-.43-3.46-.48-4.06-.75-7.9l4.32.27c1.09,0,1.63.38,1.63.92a1.56,1.56,0,0,1-.71,1.14l-1.51,1.19a33.27,33.27,0,0,0,.27,4.38h9.52l3-3.57,4.54,3.84a.67.67,0,0,1,.22.49.54.54,0,0,1-.54.54H174.65c.43,5.4,1.57,10.33,2.86,12.87a60.52,60.52,0,0,0,5-9.2l3.63,2.33a1.31,1.31,0,0,1,.48,1c0,.6-.43,1-1.13,1.09l-1.25.16A58.62,58.62,0,0,1,178.87,25a14.42,14.42,0,0,0,8.87,6.22,7.11,7.11,0,0,0,1.19-2.27l1.84-4.33.81.16-.76,4.6a10.84,10.84,0,0,0-.11,1.14c0,1.13,0,1.19,1.41,3a1.86,1.86,0,0,1,.27.92c0,.54-.76.92-1.84.92a17.9,17.9,0,0,1-9.3-3.35,19.49,19.49,0,0,1-4.55-4.6c-3.13,3.08-7.19,6.22-8,6.22a.48.48,0,0,1-.49-.49c0-.27,0-.27,1.68-1.83a48.6,48.6,0,0,0,5.46-6.17C173,20,172.43,17.53,171.4,9.2H151.87c.06,2.38.11,3.67.11,5.24,0,7.41-1,12.23-3.57,16.61-1.57,2.65-4,5.62-4.6,5.62a.36.36,0,0,1-.37-.37c0-.33.1-.49.75-1.57a30.47,30.47,0,0,0,3.68-10.06,58.31,58.31,0,0,0,.7-10.5c0-2.16,0-4.38-.16-8.44ZM151,35.48a13.88,13.88,0,0,1,.48,3.52c0,4.71-2.11,8.44-4.7,8.44A1.84,1.84,0,0,1,145,45.65c0-.75,0-.75,2.76-3.94,1.35-1.63,1.84-2.76,2.65-6.12Zm16.22-24.12,3.52,3.14A.55.55,0,0,1,171,15c0,.27-.16.44-.49.44H160.31c-1.4,0-1.4,0-6.81.16l-.44-1.68c3.63.16,6.06.22,7.25.22h4.38Zm-8.81,8.38h6.87l1.29-2.11,3.3,3c.22.27.33.43.33.65a.71.71,0,0,1-.33.54l-1.24.59v7.36c0,.54-.22.81-.81,1.08a6.41,6.41,0,0,1-1.41.38.61.61,0,0,1-.65-.59V28.18h-8v2.71c0,.75-1.25,1.51-2.38,1.51-.38,0-.54-.32-.54-.92V17.74Zm20.44,17.85L178.43,42l-.1,1.08c0,.59.16.75,1.46,1.73.32.21.54.49.54.65a2.43,2.43,0,0,1-1.46,1.73c-1.36.49-5.25.76-11.15.76-4.59,0-8.11-.27-9.19-.65a2.64,2.64,0,0,1-1.95-2.55V34.29l3.57.28c1.08,0,1.68.43,1.68,1.13a1.15,1.15,0,0,1-.76,1l-1.24.65v5.24c0,1.3.16,1.63.65,1.84a6.55,6.55,0,0,0,1.51.33h3.73l3.41.05c2.76-.05,4.27-.11,4.6-.11,1.73-.16,2.22-.65,3-3.3l1-4ZM165.72,26.88V21h-8v5.84Zm-2,6.39a12.14,12.14,0,0,1,5.14,1.57C170.81,36,172,37.65,172,39.27a2.15,2.15,0,0,1-1.9,2.33,1.72,1.72,0,0,1-1.35-.65c-.21-.22-.21-.22-1.19-2.6-.65-1.62-1.62-2.81-3.89-4.6Zm14-32.4c4.22.59,6.55,2.1,6.55,4.21a1.76,1.76,0,0,1-1.63,2c-.7,0-1.19-.38-1.67-1.3a8.14,8.14,0,0,0-3.47-4.05Zm4.11,34.78c3.25,1.35,4.11,1.84,5.52,3C190,40.73,191.42,43,191.42,45a2,2,0,0,1-1.9,2.16c-.92,0-1.4-.65-2.16-2.59a19.45,19.45,0,0,0-5.79-8.06Z"/><path class="cls-1" d="M244.53,35.16c0,.92-1.25,3-3.09,5-4.21,4.81-9.14,7.19-14.82,7.19-3.84,0-6.87-1.13-9-3.4-2.27-2.44-3.25-5.63-3.25-10.55,0-3.25.06-3.95,1.09-18.07.32-4.54.32-4.54.32-5.19,0-3.46-.81-4.92-2.65-4.92-.32,0-.49-.11-.49-.27,0-.6,1.14-1.09,2.38-1.09,2.76,0,5.41,3.14,5.41,6.5,0,.81,0,.86-.81,4.11a116.25,116.25,0,0,0-2.27,18.55c0,7.57,3,11,9.74,11a19.92,19.92,0,0,0,11.84-4.38,21.35,21.35,0,0,0,4.6-4.44c.22-.37.43-.54.65-.54S244.53,34.89,244.53,35.16Zm-8-18.28a1.94,1.94,0,0,1-1.84,1.89c-.59,0-.86-.22-1.29-1A9,9,0,0,0,228,13.42c-.33-.06-.44-.11-.44-.28s.92-.37,2.11-.37C232.9,12.77,236.52,14.93,236.52,16.88Zm6.33-2.49a2.06,2.06,0,0,1-1.95,2c-.65,0-.86-.22-1.51-1.3a9.77,9.77,0,0,0-5.73-4.43.24.24,0,0,1-.27-.22c0-.22.86-.43,2.05-.43C239.12,10,242.85,12.22,242.85,14.39Z"/><path class="cls-1" d="M281.52,5.3c-1,0-2.16.6-2.16,1.08,0,.16.05.27.43.6,1.14,1.13,2.54,2.7,6.06,6.87,3-1.08,5-2.38,5-3.14,0-.38-.64-1-2.11-1.89-.48-.27-.59-.38-.59-.54s.16-.22.32-.22a.9.9,0,0,1,.38.11A12.44,12.44,0,0,0,293,9.25a4.69,4.69,0,0,0,.86-.05c.44-.06.71-.11.87-.11a2.35,2.35,0,0,1,1.95,1.67c0,.76-.76,1.57-2.28,2.49a45.69,45.69,0,0,1-6.7,2.92,43.56,43.56,0,0,1,7.89,10.06,15.66,15.66,0,0,1,2.06,5.85,4.45,4.45,0,0,1-2.11,3.62,4.56,4.56,0,0,1-1.89.81c-.38,0-.65-.16-1.14-.76a16.56,16.56,0,0,0-12.28-5.51c-4.92,0-8.27,2.59-8.27,6.49a5.08,5.08,0,0,0,2.92,4.92c1.78,1,5.3,1.73,8.49,1.73a15.4,15.4,0,0,0,3.46-.32,5.84,5.84,0,0,1,1.3-.22,3.12,3.12,0,0,1,2.76,2.54c0,1.25-2.11,1.95-5.84,1.95a26.12,26.12,0,0,1-11.36-2.43c-3.3-1.84-5-4.49-5-7.79,0-5.09,4.49-8.66,10.87-8.66,3.3,0,6.44.92,10.38,3.09a4,4,0,0,0,2,.7,1.34,1.34,0,0,0,1.35-1.35c0-1.3-1.14-4.44-2.38-6.77a47.46,47.46,0,0,0-5.09-7.3c-6.11,2.11-9.46,2.87-12.44,2.87a7.11,7.11,0,0,1-5.73-3.08,10.85,10.85,0,0,1-1.73-3.52.55.55,0,0,1,.59-.49c.27,0,.38.11.54.54,1,2.28,3.2,3.47,6.22,3.47s6-.6,10.55-2.06a33.58,33.58,0,0,0-8.38-7c-.76-.43-1-.76-1-1.19,0-1.14,2.16-2.6,3.89-2.6s4.66.76,4.66,1.3c0,.16-.17.38-.27.38a.44.44,0,0,1-.22,0Z"/><path class="cls-1" d="M334.63,21.53c9.31-2.44,9.58-2.49,12.44-3,.22-5.3.27-6.44.27-7.52,0-2-.32-3.24-1-3.84a3.49,3.49,0,0,0-2.06-.81h-.21a1.33,1.33,0,0,1-.38,0c-.16,0-.32-.11-.32-.21,0-.38,2.05-1.41,2.81-1.41,1.4,0,5.08,2,5.08,2.65a2.37,2.37,0,0,1-.11.49c-.27.48-.59,3.14-1.19,10l1.41-.27,3.19-.64,1.57-.33a17.56,17.56,0,0,0-1.84-1.57c-.43-.32-.49-.38-.49-.49a.37.37,0,0,1,.27-.37,1,1,0,0,1,.49.21,15.58,15.58,0,0,0,6.82,2.22c1.57.05,2.43,1,2.43,2.76a1.2,1.2,0,0,1-1.24,1.13,3.6,3.6,0,0,1-1-.16,28,28,0,0,0-6.32-.7c-1.36,0-2.38,0-5.52.27-.71,8.06-1.14,10.49-2.17,12a5.51,5.51,0,0,1-3.08,2,5.78,5.78,0,0,1-1.62.48c-.27,0-.33,0-.49-.7-.32-2-1.84-3.9-4.6-6-.43-.27-.43-.33-.43-.49s.16-.43.33-.43.16,0,1.89,1c4.16,2.38,4.16,2.38,4.65,2.38,1.3,0,2.22-3.35,2.71-9.9A72,72,0,0,0,332.69,24c-.11,1.79-.17,2.92-.17,4.33,0,5.3.65,8.49,2.11,10.17,1.84,2,4.49,2.87,9.09,2.87a29.34,29.34,0,0,0,7.46-1c1.14-.38,1.14-.38,1.57-.38,1.25,0,2.82,1.36,2.82,2.44,0,1.67-2.87,2.43-9,2.43-8,0-12.76-1.73-14.71-5.3-1.35-2.49-1.57-4.33-1.89-14.6a64.21,64.21,0,0,0-8.87,3.62c-.92.6-1,.6-1.36.6-.65,0-2.16-1.09-3.35-2.44a5.33,5.33,0,0,1-1.25-3.89c0-.27.06-.38.28-.38s.21.05.37.38a4.3,4.3,0,0,0,4.06,2c1.3,0,1.3,0,8.76-1.84l1.3-.27V20.28c-.11-5.13-.11-6-.32-6.54-.33-.81-1.57-1.41-3-1.41a6.38,6.38,0,0,0-1.35.17,1.16,1.16,0,0,1-.38.05.25.25,0,0,1-.27-.22c0-.16.38-.54,1.51-1.24,1.25-.87,1.62-1,2.49-1a13,13,0,0,1,4.06,1.19c.81.33,1.35,1,1.35,1.46a6.12,6.12,0,0,1-.11.81c-.16.81-.43,3.36-1,8.5Z"/><path class="cls-1" d="M402.4,42.3c2.44-1.19,3.46-2,4.49-3.68a11.64,11.64,0,0,0,1.63-5.95c0-5.35-3-8.33-8.33-8.33-5,0-8.44,1.73-12,6a25,25,0,0,0-4.06,6.38,2.09,2.09,0,0,1-1.94,1.46c-.92,0-2.33-1.62-2.33-2.76,0-.59.43-1.3,1.52-2.38,7.14-7.41,7.62-8,15.36-18.28,3.13-4.06,3.19-4.11,3.19-5a1.15,1.15,0,0,0-1.19-1.24c-1.68,0-3,.7-8.55,4.59-1,.76-1.51,1-2.05,1a4.12,4.12,0,0,1-2.55-1.57,4.27,4.27,0,0,1-1-2.92c0-1,.11-1.3.43-1.3s.17.05.27.49a1.94,1.94,0,0,0,2.06,1.35c2.22,0,8.82-2.33,11.2-3.95a2.49,2.49,0,0,1,1.84-.65c2.16,0,6,2.6,6,4.11a1.24,1.24,0,0,1-.87,1.19c-2.32,1-5.35,3.73-9.79,8.71-2.65,3-3.4,4-3.4,4.38,0,.22.16.49.32.49a.83.83,0,0,0,.27-.11.76.76,0,0,0,.27-.11l.76-.32a20.15,20.15,0,0,1,7.79-1.62c6.38,0,10.92,4.38,10.92,10.49a11.37,11.37,0,0,1-4.05,8.93,18.93,18.93,0,0,1-11.69,4,10.46,10.46,0,0,1-6.49-2A3.87,3.87,0,0,1,389,40.52c0-2.49,2.11-4.12,5.3-4.12,3.63,0,6.28,1.79,7.85,5.36l.05.16Zm-3.46.81c-.59-3.3-2.16-5-4.65-5a2.2,2.2,0,0,0-2.49,2.17c0,1.78,2.06,3,5.19,3a10.14,10.14,0,0,0,1.63-.1Z"/><path class="cls-1" d="M12.39,70.65h12V64.16l4.38.54a1,1,0,0,1,.92.92,1.26,1.26,0,0,1-.76,1l-1.14.7v3.3H41.6L45,67l4,3.68a1.11,1.11,0,0,1,.43.81c0,.38-.27.54-.92.54H29.91l1.46.82c.38.16.54.38.54.59s-.16.38-.43.49l-.49.16c4.28,4.11,11.09,7.19,19.05,8.6a11.48,11.48,0,0,0-3.47,3.68c-8.06-3.25-12.28-6.22-16.77-11.68a64.54,64.54,0,0,1-13.3,10.6l2.05,1.08h5.57l1.3-2,2.71,2a1.2,1.2,0,0,1,.59.92.84.84,0,0,1-.48.71l-.65.32V99.7A2.13,2.13,0,0,1,26.4,102a5.16,5.16,0,0,1-1.79.65c-.38,0-.43-.11-.76-1.3a.72.72,0,0,0-.48-.48L21,99.92l.16-.71c.87.06,1.79.06,2.38.06.92,0,1.14-.22,1.14-1.3V95.64H18v5.2c0,.86-.86,1.46-2.11,1.46-.48,0-.7-.27-.7-.81V85.85c-2,1.08-2.54,1.3-2.87,1.3a.31.31,0,0,1-.32-.32c0-.27,0-.27,2.32-1.9A52.79,52.79,0,0,0,27,72H11.52V84.5c0,10.33-1.46,15.74-5.79,21.85-1.94,2.71-3.67,4.6-4.27,4.6a.45.45,0,0,1-.43-.38c0-.27,0-.27,1.51-2.59A32.92,32.92,0,0,0,7.73,92.07l-3.13,2-.54,1.19c-.27.71-.6,1-1,1a1,1,0,0,1-.76-.43L0,92.51c3.41-.92,4.06-1.14,8-2.44.11-3.41.16-4.87.16-7.25,0-2.59,0-2.92-.27-14.55ZM.38,75c3.73,2.11,5.68,4.76,5.68,7.79,0,1.63-.81,2.65-2,2.65s-1.63-.64-1.68-2.76A12.29,12.29,0,0,0,.11,75.58Zm15.85,28.19a14.14,14.14,0,0,1,.32,2.43c0,3.14-2.22,6.44-4.33,6.44a1.72,1.72,0,0,1-1.78-1.73c0-1,.32-1.46,1.89-2.44a6.89,6.89,0,0,0,3.25-4.6ZM24.67,90.4V87.64H18V90.4Zm0,3.94V91.69H18v2.65Zm-.76,8.44a1,1,0,0,1,1,.87,1.22,1.22,0,0,1-.54.92l-1,.7v3.14c0,1,.43,1.13,3.57,1.13,8.38,0,8.49,0,9.09-2.05l1-3.68h.76V108a2,2,0,0,0,.05.65,11.23,11.23,0,0,0,.92.81,1.12,1.12,0,0,1,.54.92c0,1.51-2.11,2-8.17,2a71,71,0,0,1-9-.33,2.07,2.07,0,0,1-1.79-2v-7.57ZM21.53,82.44H31l2.17-2.54,3.46,2.54a.75.75,0,0,1,.43.71c0,.38-.16.59-.54.59h-15Zm5.89,19.64a8.69,8.69,0,0,1,3.52,1.46,3.93,3.93,0,0,1,1.73,2.92,1.77,1.77,0,0,1-1.73,1.68,1.38,1.38,0,0,1-1-.49,17.52,17.52,0,0,1-1-2.49,8,8,0,0,0-1.79-2.65Zm8.23-14.44a.85.85,0,0,1,.75.81,1.09,1.09,0,0,1-.43.81l-1.13.87V97.7c0,.81-.87,1.41-2.11,1.41-.49,0-.71-.28-.71-.76V87.26Zm8.43-1.35a.74.74,0,0,1,.71.81.91.91,0,0,1-.49.75l-1,.76V99.05A2.27,2.27,0,0,1,42,101.38a4.3,4.3,0,0,1-1.57.48c-.44,0-.6-.21-.65-.81s-.27-1-.71-1.13l-2.21-1v-.54h3c.37,0,.48-.16.54-.87V85.8ZM39.33,103c5.57,1.35,9.3,4.27,9.3,7.35a1.84,1.84,0,0,1-1.73,2c-.92,0-.92,0-3-4a12.35,12.35,0,0,0-4.65-4.87Z"/><path class="cls-1" d="M101.63,98.94c0,.92-1.24,2.92-3.08,5-4.27,4.76-9.14,7.14-14.82,7.14-3.84,0-6.87-1.13-9-3.4-2.27-2.44-3.24-5.63-3.24-10.55,0-3.25,0-4,1.08-18.07.33-4.54.33-4.54.33-5.19,0-3.46-.82-4.92-2.65-4.92-.33,0-.49-.11-.49-.27,0-.6,1.13-1.09,2.38-1.09,2.76,0,5.41,3.14,5.41,6.49,0,.82,0,.87-.81,4.12a116.14,116.14,0,0,0-2.28,18.55c0,7.57,3,11,9.74,11A20,20,0,0,0,96,103.38,21.41,21.41,0,0,0,100.6,99c.22-.38.44-.54.65-.54S101.63,98.67,101.63,98.94Z"/><path class="cls-1" d="M140.41,74.76a51.14,51.14,0,0,1,.76,6.55c0,5.46-2.49,11.9-6.6,17.2-3.14,4.06-6.06,6.06-8.87,6.06a4.84,4.84,0,0,1-3.74-2.06A12.62,12.62,0,0,1,119.15,94c0-11.47,9.95-20.88,22.07-20.88,10.71,0,18.18,6.7,18.18,16.33,0,8.6-5.09,15.58-13.63,18.66a33,33,0,0,1-7.42,1.79c-.37,0-.7-.27-.7-.49s.16-.21.92-.43a24.37,24.37,0,0,0,10.22-5.36c3.9-3.35,6.17-8.87,6.17-15.09,0-5-1.57-8.65-4.65-11a14,14,0,0,0-8.39-2.81Zm-2.16.22A19.24,19.24,0,0,0,122.4,94.13c0,4,1.51,7,3.57,7,2.32,0,6.65-4.38,9.3-9.41,2.11-4.11,3.79-9.68,3.79-12.77a10.48,10.48,0,0,0-.71-3.73Z"/><path class="cls-1" d="M201.31,84.55a3.45,3.45,0,0,1-.7.38A54.14,54.14,0,0,1,192,102.78a28.21,28.21,0,0,1-8.22,7.47,6.21,6.21,0,0,1-2.22.86.53.53,0,0,1-.54-.43c0-.16.06-.22.65-.65a29.36,29.36,0,0,0,9.74-11.3,40.37,40.37,0,0,0,3.68-10,32.4,32.4,0,0,0,.92-5.24,1.78,1.78,0,0,0-1.46-2c-.17-.06-.27-.17-.27-.28,0-.32.48-.64,1-.64,1.35,0,3.62,1.19,5.73,3,3.95-2.33,7.9-5.84,7.9-7.09,0-.64-1-1-3-1a111.36,111.36,0,0,0-11.68,1.4,43.76,43.76,0,0,0-8.77,2.49c-1,.49-1.19.54-1.46.54-1.13,0-3-1.24-4-2.65-.65-1-.76-1.24-.86-3.14v-.32a.48.48,0,0,1,.48-.49c.22,0,.27.06.49.49.38,1,2.33,1.95,3.84,1.95.43,0,1.08-.06,1.95-.11.48,0,1.62-.16,3.35-.27s3.25-.22,3.79-.27c1.94-.22,3.89-.49,5.89-.71,8.06-.86,8.44-.91,11.47-1.83a4.33,4.33,0,0,1,.81-.11c.76,0,1.73.81,3.36,2.81.59.76,1,1.24,1.19,1.46.75.76.92,1,.92,1.57s-.38.87-1.19.92c-2.87.27-3.68.54-7.14,2.27-2,1-2.55,1.19-5.36,2.44Z"/><path class="cls-1" d="M260.27,88.18c4.65,3.89,6.43,6.22,6.43,8.17a2.09,2.09,0,0,1-2.05,2.05c-1.14,0-1.52-.38-3.36-3.19a36.61,36.61,0,0,0-3.24-4c-5.47,6.27-10.39,10.44-15.85,13.25-2.87,1.46-8.82,3.84-9.63,3.84-.43,0-.76-.22-.76-.49s.17-.48.76-.7a60.22,60.22,0,0,0,23-18.34c-2.6-2.65-5.68-4.65-10.49-6.76-.44-.16-.6-.32-.6-.54s.22-.38.49-.38a39.37,39.37,0,0,1,4.76,1.19A30.37,30.37,0,0,1,257.45,86c2.44-4.11,3.84-7.62,3.84-9.57a6.09,6.09,0,0,0-1.4-3.79c-.33-.27-.38-.37-.38-.54s.38-.48.92-.48a6.19,6.19,0,0,1,3.68,1.73c2.05,1.78,3.19,3.19,3.19,3.84,0,.32-.16.54-.71.92-.32.21-.54.38-1,.76C262.81,84.18,261.62,86.34,260.27,88.18Z"/><path class="cls-1" d="M297.64,100.78a12.26,12.26,0,0,1-3.19.65c-1.79,0-3.79-2-4.71-4.65a1.18,1.18,0,0,0-.11-.38,1.81,1.81,0,0,1-.11-.43.36.36,0,0,1,.27-.27c.11,0,.22,0,.44.21,1.62,1.19,2.65,1.46,5.3,1.46,4.16,0,11.3-.59,20.66-1.62,1.57-.21,2.81-.32,3.79-.43a23.29,23.29,0,0,0,6.22-1.41,3,3,0,0,1,1-.27A11.9,11.9,0,0,1,331,95.26c1.73,1,2.43,1.79,2.43,2.66a1.24,1.24,0,0,1-1.3,1.24,17.55,17.55,0,0,1-3-.38,48,48,0,0,0-8.87-.65C313.16,98.13,302.88,99.32,297.64,100.78Zm22.5-22.55c1.19.54,1.68,1.08,1.68,1.78,0,.54-.44.81-1.52.92-7.08,1.08-7.68,1.19-12.33,2a17.79,17.79,0,0,1-3.63.43c-1.78,0-2.81-.65-4.11-2.7a9.36,9.36,0,0,1-1.08-2,.3.3,0,0,1,.33-.27c.16,0,.21.06.48.33.65.81,1.9,1.13,4.49,1.13,3.74,0,8.66-1,11.09-2.22,1.14-.59,1.3-.64,1.79-.64s.54,0,1.46.54Z"/><path class="cls-1" d="M361.62,83.31c14.34-1.46,17.58-2,19.85-3.08.54-.33.54-.33.87-.33,1.62,0,5.35,2.17,5.35,3.14a1.54,1.54,0,0,1-1.51,1.51,8.34,8.34,0,0,1-1.41-.16,55.89,55.89,0,0,0-6.92-.59c-1.14,0-4.11.16-7.36.43,2.44,1.35,3.52,2.22,3.52,2.7,0,.33-.06.44-1.14,1.63-2.7,8.54-8.17,15.52-15,19.25a32.21,32.21,0,0,1-6.32,2.44.47.47,0,0,1-.44-.43c0-.17.11-.22.44-.38a27.78,27.78,0,0,0,9.35-6.93,33.17,33.17,0,0,0,6.77-11,17.36,17.36,0,0,0,1.19-5.19,2.38,2.38,0,0,0-.71-1.89,63.9,63.9,0,0,0-12.17,2.48,6.57,6.57,0,0,1-2.16.49,6.12,6.12,0,0,1-4.11-2.27,4,4,0,0,1-.81-2.38c0-.27.1-.43.27-.43s.16,0,.54.43a5.62,5.62,0,0,0,3.4,1.3c.44,0,.44,0,4.44-.38Zm10.28-8.17c-.38.06-1.25.27-2.49.54-4.49,1-6.65,1.36-8.11,1.36a4,4,0,0,1-3.57-2,7.18,7.18,0,0,1-1-2.11.25.25,0,0,1,.22-.27c.16,0,.22.06.32.27.44.71,1.46,1.09,3,1.09a46.29,46.29,0,0,0,6.66-.92,19.14,19.14,0,0,0,5.19-1.73,3.64,3.64,0,0,1,1.51-.55,13.07,13.07,0,0,1,3.52,1.25c.6.32.86.7.86,1.14a.8.8,0,0,1-.54.75,13.4,13.4,0,0,1-2.65.65Z"/><path class="cls-1" d="M429,105.54s.05,1.19.11,2.27c.05.82.05,1.52.05,2.11,0,1.36-.38,2.06-1.19,2.06-1.41,0-3-1.24-3-2.27a5.2,5.2,0,0,1,.11-.81,129.6,129.6,0,0,0,1.14-16.12,5.1,5.1,0,0,0-.49-2.76,63.16,63.16,0,0,1-11.14,9,28.6,28.6,0,0,1-6.06,2.71c-.33,0-.6-.22-.6-.44s.11-.16.27-.27c3-1.24,8.17-5.3,12.82-10,5.09-5.09,9.2-10.49,9.2-12.17,0-.54-.76-1.3-1.62-1.52-.27,0-.38-.16-.38-.37,0-.38.86-.71,1.89-.71a5.23,5.23,0,0,1,2.81,1.19c1.79,1.19,2.44,1.84,2.44,2.65a.63.63,0,0,1-.43.65,3,3,0,0,0-1.68,1.35,60.64,60.64,0,0,1-6.6,6.87c2.81,1.25,3,1.36,3,1.79a2.61,2.61,0,0,1-.1.54c-.33.43-.44,1.68-.49,4Z"/></g></g></svg>