<svg xmlns="http://www.w3.org/2000/svg" viewBox="0 0 351.04 55.93"><defs><style>.cls-1{fill:#fff;}</style></defs><title>top-title</title><g id="Layer_2" data-name="Layer 2"><g id="Layer_1-2" data-name="Layer 1"><path class="cls-1" d="M8.77,34.43A20.79,20.79,0,0,1,4,36.73a.42.42,0,0,1-.39-.38c0-.19.2-.45.58-.7C11.71,30.4,20,17.73,20,11.33c0-2-.84-3.59-1.92-4-.52-.13-.64-.26-.64-.38,0-.45,1.21-.84,2.56-.84A9.53,9.53,0,0,1,25.28,8C26.75,9,28,10.5,28,11.2s-1.34,3.2-3,5.89a3.47,3.47,0,0,0,1.09.19c2.3,0,7.23-1.73,9.92-3.46a5,5,0,0,1,2.24-1c1.34,0,6.21,4.41,6.21,5.69,0,.2-.26.58-.77,1s-.9.77-1.67,1.54c-6,10.88-8.06,14-12.6,18.49A62.54,62.54,0,0,1,7.1,53.88,30.5,30.5,0,0,1,.45,55.61c-.19,0-.45-.19-.45-.38s.19-.39.7-.58c5.12-1.79,11.46-5.76,16.83-10.43A73.75,73.75,0,0,0,32,26.62c1.92-3.39,2.94-5.82,2.94-7.23a1.23,1.23,0,0,0-1.21-1.28,15.64,15.64,0,0,0-2.82.64,30.42,30.42,0,0,1-4.8,1.09A3.7,3.7,0,0,1,24,19C18.88,26.49,14.46,30.91,8.77,34.43Zm38.65-25A2.51,2.51,0,0,1,44.8,12c-1,0-1.28-.26-1.92-1.54C41.47,7.81,39.68,6,37.63,5.31c-.71-.25-.83-.32-.83-.57,0-.45.51-.58,2-.58C43.33,4.16,47.42,6.66,47.42,9.41ZM55,5.06a2.38,2.38,0,0,1-2.63,2.43,1.77,1.77,0,0,1-1.79-1C49,3.58,46.46,1.54,44.16,1.09a.49.49,0,0,1-.39-.51c0-.39.83-.58,2.5-.58C51.13,0,55,2.24,55,5.06Z"/><path class="cls-1" d="M92.86,41.79a46.07,46.07,0,0,1-16.7,12,35.87,35.87,0,0,1-9.66,2.17c-.45,0-.71-.19-.71-.51s.19-.45.71-.58c6.14-1.53,13.24-6,18.23-11.39,3.52-3.84,5.64-7.16,8.39-13.56,1.34-3.14,1.73-4.23,1.73-4.87s-.77-1.15-2.12-1.15c-3.71,0-16.51,2.82-19.64,4.35-2,1-2,1-2.5,1-2.75,0-6.27-3.71-6.27-6.59,0-1,.19-1.54.58-1.54.19,0,.32.13.57.58.71,1.22,3,2.11,5.38,2.11a165.21,165.21,0,0,0,19.84-2.62,15.77,15.77,0,0,0,4.92-1.54c1.73-.77,2-.89,2.5-.89.89,0,2,.76,4.86,3.64,1.41,1.41,1.41,1.41,1.41,2a1.16,1.16,0,0,1-.26.7,1.92,1.92,0,0,1-.76.45,4.47,4.47,0,0,0-1.41.83C98.24,34.24,95.93,38.21,92.86,41.79ZM70.33,9.92c.77.77,2.57,1.28,4.61,1.28A57.64,57.64,0,0,0,86.4,9.47a11.25,11.25,0,0,0,3.39-1.28c1-.57,1.34-.7,1.73-.7,2.24,0,6,2.24,6,3.65,0,.76-.77,1.21-2.3,1.47-2.76.32-4.74.64-7.88,1.28a62.06,62.06,0,0,1-10.56,1.53A6.77,6.77,0,0,1,71.23,13a8.42,8.42,0,0,1-1.79-3.07.41.41,0,0,1,.38-.32C70,9.6,70.08,9.66,70.33,9.92Z"/><path class="cls-1" d="M135.17,20.09a3.54,3.54,0,0,1-3.52,3.4c-1.28,0-1.86-.52-2.75-2.44-1.54-3.39-6.08-7.61-9.35-8.57-.51-.13-.7-.26-.7-.45,0-.51,1.6-.83,3.9-.83C129,11.2,135.17,15.68,135.17,20.09Zm29.12-8.25c0,1-3.52,7.17-6.21,10.81a96,96,0,0,1-27.26,24.77,7.13,7.13,0,0,0-1.22.83c-.38.32-.77.71-1.22,1a1.81,1.81,0,0,1-.89.38c-1,0-2.63-1-4.48-2.69-2.43-2.3-3.33-3.65-3.33-5s.38-2.56.9-2.56c.19,0,.25,0,.57.64s2.31,1.53,3.78,1.53c3.45,0,9.4-3.13,16.38-8.64,8.38-6.59,17.66-15.55,21.57-20.73.45-.51.7-.77,1-.77A.55.55,0,0,1,164.29,11.84Z"/><path class="cls-1" d="M194.37,24.89a48.28,48.28,0,0,1-10.56,20.35,34.52,34.52,0,0,1-10.24,7.68,6,6,0,0,1-1.86.64.49.49,0,0,1-.51-.44c0-.2.19-.39.9-.9a37.29,37.29,0,0,0,12.67-17.28c2.17-5.69,3.26-10.3,3.26-13.5,0-2.5-1-4.29-2.75-5.06-.26-.13-.45-.25-.45-.45,0-.51,1.15-1.08,2.37-1.08a8.87,8.87,0,0,1,4.93,2c1.79,1.35,3.33,3.27,3.33,4.16a2.88,2.88,0,0,1-.26.9,9.69,9.69,0,0,0-.45,1.41Zm5.82,7.3c0-12.22-.06-15.55-.45-16.64a2.61,2.61,0,0,0-1.6-2c-.51-.13-.64-.19-.64-.45,0-.51,2.18-1.47,3.27-1.47s1.92.38,4.61,2.49c1.21,1,1.85,1.73,1.85,2.31a4.24,4.24,0,0,1-.58,1.6,5.61,5.61,0,0,0-.64,2c-.12,1.28-.32,3.07-.63,7.81-.33,4.48-.58,7.55-.58,8-.07.64-.13,1.15-.13,1.53,0,.84.26,1.35.71,1.35,1.15,0,4.47-1.54,7-3.27a65.19,65.19,0,0,0,12-10.49,62.7,62.7,0,0,0,6.4-8.71c.32-.64.51-.83.83-.83a.49.49,0,0,1,.51.45c0,1.22-3.39,7.55-6.14,11.52A61.66,61.66,0,0,1,206.85,45c-1,.57-1.54,1-1.8,1.09l-.89.7a1.64,1.64,0,0,1-1,.38,2.54,2.54,0,0,1-1.73-1.08c-1.15-1.35-2.37-3.46-2.37-4.16l1-3.59Z"/><path class="cls-1" d="M292,30.85c0,1.28-1.28,2.11-3.26,2.11-.58,0-2.63-.19-5.38-.45-1.34-.13-3.26-.19-5.63-.19-16,0-25.47.89-30.27,2.81a2.5,2.5,0,0,1-.9.2,11.4,11.4,0,0,1-5.5-2.12,5.93,5.93,0,0,1-2.3-5.18c0-1.15.31-1.79,1-1.79.19,0,.31.13.63.64,1,1.6,3.08,2.17,8.2,2.17,4.86,0,20.8-1,25.21-1.47A50.33,50.33,0,0,0,284,25.41C289.34,26.49,292,28.35,292,30.85Z"/><path class="cls-1" d="M320.32,27.2c3.2-7.23,4.16-10.24,4.16-13.06a3.92,3.92,0,0,0-1.92-3.64c-.19-.07-.26-.13-.26-.2,0-.45.84-.76,1.92-.76,1.73,0,2.82.51,5,2.3,2.88,2.37,3.84,3.65,3.84,5.12,0,.38-.12.64-.63,1.15-2.05,1.86-13,19.07-15.11,23.74,8.77-1.47,12.29-2.17,22.59-4.67a17.57,17.57,0,0,0-5.37-6.59c-.52-.38-.71-.64-.71-1a.44.44,0,0,1,.45-.45c1,0,4.1,1.28,6.34,2.56C346.43,35.07,351,41.4,351,46a4.07,4.07,0,0,1-3.84,4.23c-1.35,0-2.05-.84-2.88-3.4a37.8,37.8,0,0,0-3.07-7.48c-6.34,2.24-13.51,4.48-22.85,7.23-4.93,1.47-5.82,1.79-7.36,2.94a2.92,2.92,0,0,1-1.47.64c-.9,0-1.92-.7-3.58-2.43-2.12-2.18-2.76-3.2-2.76-4.54,0-1,.32-1.8.77-1.8.13,0,.13,0,.71.58s1.59.83,3.07.83a44.81,44.81,0,0,0,5.12-.38C315.39,37.76,317.38,33.79,320.32,27.2Z"/></g></g></svg>