<svg xmlns="http://www.w3.org/2000/svg" width="1165.572" height="281.562" viewBox="0 0 582.786 140.781">
  <defs>
    <style>
      .cls-1 {
        fill: #fff;
        fill-rule: evenodd;
      }
    </style>
  </defs>
  <path id="グランツーリスモ_カフェ" data-name="グランツーリスモ カフェ" class="cls-1" d="M574.042,688.857q-2.964,0-2.964.684a0.578,0.578,0,0,0,.456.608c2.736,0.533,5.7,2.965,7.676,6.385a2.094,2.094,0,0,0,2.128,1.216,2.819,2.819,0,0,0,3.117-2.888C584.455,691.518,579.818,688.857,574.042,688.857ZM565.15,693.8c-1.749,0-2.357.152-2.357,0.684,0,0.3.152,0.38,0.988,0.684,2.433,0.76,4.561,2.964,6.233,6.08,0.76,1.52,1.14,1.824,2.28,1.824a2.975,2.975,0,0,0,3.116-3.04C575.41,696.762,570.546,693.8,565.15,693.8Zm-17.557,17.633a4.423,4.423,0,0,0,2.508.988,36.514,36.514,0,0,0,5.7-1.292,18.553,18.553,0,0,1,3.344-.76,1.461,1.461,0,0,1,1.444,1.52c0,1.672-1.216,4.56-3.5,8.588a87.546,87.546,0,0,1-17.177,20.9c-6.384,5.549-13.909,10.261-19.989,12.389-0.608.228-.836,0.38-0.836,0.684a0.569,0.569,0,0,0,.532.456,36.554,36.554,0,0,0,7.9-2.052,74.436,74.436,0,0,0,26.525-17.1c5.4-5.4,7.828-9.045,14.973-21.965,0.912-.912,1.292-1.216,1.976-1.824a2.035,2.035,0,0,0,.912-1.14c0-1.52-5.776-6.765-7.373-6.765-0.532,0-1.216.3-2.66,1.216-3.192,2.052-9.044,4.105-11.78,4.105a3.86,3.86,0,0,1-1.292-.228c1.976-3.193,3.572-6.309,3.572-6.993,0-.836-1.52-2.66-3.268-3.8a11.336,11.336,0,0,0-6.309-2.2c-1.6,0-3.04.456-3.04,0.988,0,0.152.152,0.3,0.76,0.456,1.292,0.456,2.28,2.356,2.28,4.712,0,7.6-9.8,22.649-18.773,28.882a1.266,1.266,0,0,0-.684.836,0.49,0.49,0,0,0,.456.456c0.608,0,3.421-1.368,5.7-2.736C536.268,725.567,541.512,720.323,547.593,711.431Zm59.735-11.173a0.493,0.493,0,0,0-.456.38c0,0.608,1.064,2.356,2.128,3.648a8.043,8.043,0,0,0,6.536,2.888c2.356,0,6.081-.532,12.541-1.824,3.724-.76,6.08-1.14,9.348-1.52,1.825-.3,2.737-0.836,2.737-1.748,0-1.672-4.409-4.332-7.069-4.332a4.3,4.3,0,0,0-2.052.836,13.426,13.426,0,0,1-4.028,1.52c-6.08,1.368-10.565,2.052-13.605,2.052-2.432,0-4.56-.608-5.472-1.52A0.789,0.789,0,0,0,607.328,700.258ZM645.482,720.1a5.447,5.447,0,0,1,1.672-.988,2.372,2.372,0,0,0,.912-0.532,1.383,1.383,0,0,0,.3-0.836c0-.684,0-0.684-1.672-2.356-3.42-3.42-4.712-4.332-5.776-4.332-0.532,0-.912.152-2.965,1.064a19,19,0,0,1-5.852,1.824c-6.156,1.292-19.913,3.116-23.561,3.116-2.812,0-5.548-1.064-6.384-2.508a0.934,0.934,0,0,0-.684-0.684q-0.685,0-.685,1.824c0,3.42,4.181,7.828,7.449,7.828,0.532,0,.532,0,2.964-1.14,3.724-1.824,18.925-5.168,23.333-5.168,1.6,0,2.508.456,2.508,1.368,0,0.76-.456,2.052-2.052,5.776-3.268,7.6-5.776,11.553-9.956,16.113-5.929,6.385-14.365,11.7-21.661,13.529a0.828,0.828,0,0,0-.836.684,0.682,0.682,0,0,0,.836.608,42.208,42.208,0,0,0,11.476-2.584,54.686,54.686,0,0,0,19.837-14.213C638.337,734.232,641.074,729.52,645.482,720.1Zm33.058-17.937c-2.737,0-4.637.38-4.637,0.988,0,0.228.228,0.38,0.836,0.532,3.877,1.14,9.273,6.157,11.1,10.185,1.064,2.28,1.748,2.888,3.268,2.888a4.188,4.188,0,0,0,4.18-4.028C693.284,707.478,685.912,702.158,678.54,702.158Zm48.794,0.228a2.035,2.035,0,0,0-1.14.912c-4.636,6.157-15.657,16.8-25.613,24.625-8.285,6.537-15.353,10.261-19.457,10.261-1.748,0-3.952-.912-4.484-1.824-0.38-.76-0.456-0.76-0.684-0.76-0.609,0-1.065,1.444-1.065,3.04,0,1.672,1.065,3.268,3.953,6,2.2,2.052,4.1,3.193,5.32,3.193a2.164,2.164,0,0,0,1.064-.456c0.532-.38.988-0.837,1.444-1.217a8.576,8.576,0,0,1,1.444-.988,114.119,114.119,0,0,0,32.378-29.413c3.192-4.332,7.372-11.629,7.372-12.845A0.646,0.646,0,0,0,727.334,702.386Zm34.73,0.076c-0.988,0-1.444.152-1.444,0.532a0.491,0.491,0,0,0,.456.38c3.5,1.824,6.992,6.917,8.437,12.237,0.912,3.572,1.368,4.256,3.04,4.256A4.723,4.723,0,0,0,776.961,715C776.961,709.3,768.828,702.462,762.064,702.462Zm34.962,9.577c1.6-1.6,1.748-1.748,1.748-2.432,0-1.141-2.052-3.953-4.712-6.461a9.2,9.2,0,0,0-6.309-2.66,0.965,0.965,0,0,0-1.14.684,0.657,0.657,0,0,0,.228.456c1.445,1.292,1.749,2.128,1.749,4.712,0,7.449-5.4,18.773-13.073,27.666-7.3,8.284-17.633,15.885-25.386,18.773-0.836.228-.988,0.38-0.988,0.76a0.614,0.614,0,0,0,.684.532,43.18,43.18,0,0,0,7.3-1.824c9.424-3.116,18.241-9.2,25.917-17.861A74.656,74.656,0,0,0,797.026,712.039Zm-49.4-1.748c-1.064,0-1.444.152-1.444,0.532a0.459,0.459,0,0,0,.3.38c2.736,1.52,6.537,6.384,8.285,10.792,0.988,2.812.988,2.812,1.444,3.268a1.909,1.909,0,0,0,1.6.76c2.28,0,4.1-2.28,4.1-5.092,0-3.268-2.356-6.46-6.46-8.664A20.189,20.189,0,0,0,747.623,710.291Zm121.6,8.74a60.085,60.085,0,0,1-12.085,2.584c-5.244.608-24.169,1.748-29.945,1.748-6.081,0-8.589-.684-9.729-2.584a1.105,1.105,0,0,0-.76-0.76c-0.76,0-1.14.76-1.14,2.128A7.092,7.092,0,0,0,818.3,728.3a13.644,13.644,0,0,0,6.537,2.508,2.984,2.984,0,0,0,1.064-.228c5.7-2.28,16.948-3.345,35.949-3.345,2.813,0,5.093.076,6.689,0.228,3.268,0.3,5.7.533,6.384,0.533,2.356,0,3.876-.989,3.876-2.509C878.8,722.527,875.61,720.323,869.226,719.031Zm59.963-21.509c-1.748,0-5.168,1.444-5.168,2.2,0,0.38.228,0.532,1.064,0.608,3.344,0.3,3.952,2.2,3.952,12.009,0,15.5-1.6,21.889-7.068,28.5-4.18,5.092-11.1,10.033-16.721,11.933-1.064.3-1.368,0.532-1.368,0.912,0,0.228.228,0.38,0.608,0.38,1.064,0,3.572-.684,7.3-1.976,10.869-3.724,17.861-9.2,21.433-16.645,2.28-4.864,2.964-10.565,2.964-25.537,0-4.409.076-4.637,1.065-6.233a1.812,1.812,0,0,0,.3-0.912c0-.684-0.761-1.368-3.269-2.964C930.785,697.674,930.405,697.522,929.189,697.522Zm-20.825,3.724c-1.6,0-5.7,1.824-5.7,2.584q0,0.342.684,0.456c2.736,0.456,4.18,1.672,4.56,3.952,0.228,1.217.456,6.917,0.456,9.8a57.426,57.426,0,0,1-.3,7.144,7.542,7.542,0,0,0-.3,1.368c0,2.129,3.42,5.169,5.7,5.169,1.14,0,1.976-1.292,1.976-3.04,0-.837-0.076-1.9-0.152-3.193-0.152-2.356-.38-7.752-0.38-8.892,0-5.472.152-7.829,0.456-8.893a4.662,4.662,0,0,0,.228-1.216C915.584,704.59,910.948,701.246,908.364,701.246Zm85.045,4.028c-7.981,1.672-8.969,1.824-11.173,1.824s-4.028-.684-4.636-1.672c-0.38-.684-0.38-0.684-0.684-0.684-0.38,0-.836,1.292-0.836,2.432a5.127,5.127,0,0,0,1.824,3.573c1.444,1.292,3.42,2.432,4.256,2.432a6.944,6.944,0,0,0,2.28-.76,101.6,101.6,0,0,1,13.453-4.789c2.357-.684,2.357-0.684,3.037-0.684a1.037,1.037,0,0,1,1.22.988c0,0.684-.53,2.129-1.83,5.245a75.408,75.408,0,0,1-9.04,15.961c-6.84,9.2-15.96,16.872-24.473,20.749-2.052.912-2.508,1.216-2.508,1.6a0.614,0.614,0,0,0,.684.532,17,17,0,0,0,3.724-.912,60.151,60.151,0,0,0,20.141-11.021c3.648-3.04,6.157-5.7,11.172-12.161a35.286,35.286,0,0,1,13.76,16.8c1.44,3.5,2.28,4.409,4.1,4.409a4.774,4.774,0,0,0,4.64-4.713c0-3.572-2.59-7.752-7.07-11.324-4.18-3.344-8.28-5.245-14.44-6.765a128.923,128.923,0,0,0,9.8-17.024c1.75-1.065,2.44-1.673,2.44-2.357,0-.608-0.46-1.216-2.13-2.584-2.89-2.356-4.71-3.5-5.55-3.5-0.68,0-1.29.38-2.66,1.444-1.52,1.216-2.21,1.52-4.789,2.052Zm70.3,29.034c0,5.168,1.14,8.968,3.49,11.324,2.44,2.433,8.21,3.953,15.13,3.953,8.28,0,13-1.824,13-5.017,0-2.2-1.68-4.256-3.58-4.256a9.573,9.573,0,0,0-2.5.608c-3.58,1.14-6.69,1.52-12.47,1.52-5.62,0-7.14-1.9-7.14-8.968,0-2.052.07-4.18,0.22-10.413a157.712,157.712,0,0,1,16.5-1.216c2.05,0,7.75.3,9.88,0.532a20.691,20.691,0,0,0,2.66.228,1.761,1.761,0,0,0,1.97-1.6c0-1.064-.98-2.2-3.49-3.876-2.43-1.6-4.41-2.66-5.09-2.66-0.61,0-.76.076-6.01,2.66-8.43,1.368-10.11,1.6-16.04,2.432,0.31-4.1.54-5.548,1.22-6.84a2.877,2.877,0,0,0,.53-1.52c0-.76-1.14-1.748-4.18-3.5,14.6-2.584,16.57-3.192,16.57-4.788,0-1.52-3.57-4.18-5.62-4.18a2.972,2.972,0,0,0-1.52.456c-6.62,3.42-17.33,6.08-24.25,6.08-2.2,0-3.27-.38-4.41-1.52a0.668,0.668,0,0,0-.68.608,7.124,7.124,0,0,0,1.52,3.116,8.023,8.023,0,0,0,5.93,2.813c1.52,0,3.04-.228,7.83-1.217,0.6,1.521.68,2.281,0.68,5.549,0,1.216,0,3.344-.08,5.852-5.32.684-5.77,0.76-10.1,1.368-6.92,1.14-7.15,1.14-9.5,1.14q-4.23,0-5.7-1.6a0.894,0.894,0,0,0-.46-0.3,0.769,0.769,0,0,0-.53.912c0,3.116,4.1,7.373,7.14,7.373,1.14,0,1.6-.152,3.8-1.064a96.137,96.137,0,0,1,15.35-4.485ZM554.281,791.535c8.208-1.672,8.208-1.672,8.892-1.672,1.064,0,1.368.456,1.368,2.28,0,10.792-4.56,24.929-7.98,24.929-0.836,0-3.876-1.444-6.46-3.116a1.518,1.518,0,0,0-.608-0.228,0.508,0.508,0,0,0-.532.456c0,0.228.076,0.3,0.988,1.52,1.9,2.28,3.42,5.852,3.42,8.133v0.532a1.712,1.712,0,0,0-.076.532c0,0.608.684,1.064,1.672,1.064a10.993,10.993,0,0,0,7.372-3.421c4.257-5.016,6.765-12.084,9.045-26.3,0.456-3.04.684-3.876,1.368-4.712,1.52-1.672,1.52-1.672,1.52-2.128,0-1.14-6-5.4-7.524-5.4-0.456,0-.532.076-2.357,1.141-2.736,1.672-3.876,1.976-9.576,3.04-0.3.076-1.216,0.228-2.28,0.456,0.912-3.573,1.216-5.017,1.976-8.513,0.76-.988.912-1.216,0.912-1.6,0-1.976-6.536-6.156-9.5-6.156-1.521,0-2.661.532-2.737,1.444,2.052,0.76,2.965,2.584,2.965,6.232a73.762,73.762,0,0,1-.837,9.957,91.313,91.313,0,0,1-13.984,1.748c-2.432,0-3.952-.608-4.713-1.9a0.418,0.418,0,0,0-.38-0.228c-0.38,0-.532.38-0.532,1.52a6.4,6.4,0,0,0,2.281,4.788,8.428,8.428,0,0,0,4.332,2.128,2.407,2.407,0,0,0,1.216-.3c1.6-.912,5.472-2.28,11.02-4.028-3.5,15.581-12.768,28.045-25.841,34.658a1,1,0,0,0-.608.684,0.614,0.614,0,0,0,.684.532,27.858,27.858,0,0,0,5.7-1.976A42.264,42.264,0,0,0,542.5,813.576c4.485-6.08,5.777-9.044,9.425-21.585Zm90.517-4.56c2.812-1.9,3.5-2.585,3.5-3.193,0-.456-1.064-1.52-2.66-2.584-4.332-3.04-5.548-3.724-6.461-3.724-0.684,0-1.064.152-2.584,1.064-2.888,1.672-4.332,2.2-9.044,3.04a178.329,178.329,0,0,1-19.457,2.356c-2.66,0-4.864-.836-5.776-2.2a1.08,1.08,0,0,0-.608-0.532,0.886,0.886,0,0,0-.609,1.064c0,2.736.837,4.713,2.585,6.081a10.155,10.155,0,0,0,4.636,2.2,3.036,3.036,0,0,0,1.216-.456q2.736-1.71,9.12-3.192c6-1.444,12.769-2.585,14.973-2.585,1.748,0,2.432.456,2.432,1.673a22.939,22.939,0,0,1-1.444,5.776c-2.2,6.84-5.168,11.78-10.564,18.013-7.373,8.512-14.821,13.681-24.778,17.1a0.728,0.728,0,0,0-.684.608,0.647,0.647,0,0,0,.76.532c3.649,0,13.377-3.572,19.533-7.145C630.205,814.26,637.653,804.456,644.8,786.975ZM692.22,818.06l-5.852.532c-7.98.456-7.98,0.456-9.5,0.456-2.661,0-4.485-.456-5.093-1.292a0.521,0.521,0,0,0-.456-0.38c-0.456,0-.76.912-0.76,2.128,0,1.064.608,1.9,2.356,2.964,3.5,2.281,3.5,2.281,4.713,2.281a8.155,8.155,0,0,0,2.888-.608c6.688-2.433,14.289-3.5,25.613-3.5a66.413,66.413,0,0,1,13.757,1.368,18.137,18.137,0,0,0,3.192.532,2.234,2.234,0,0,0,2.2-2.052c0-2.052-4.788-5.7-7.6-5.7a2.1,2.1,0,0,0-.684.076c-3.344,1.064-4.029,1.216-16.8,2.508,0.228-9.044.608-12.236,1.6-15.429a2.291,2.291,0,0,0,.3-0.988c0-.532-1.064-1.52-2.812-2.584,2.736-.228,4.94-0.3,7.372-0.3,1.064,0,1.064,0,5.016.152l0.912,0.076h0.76a1.773,1.773,0,0,0,1.825-1.672c0-.836-0.608-1.672-1.825-2.584-1.672-1.292-3.572-2.2-4.636-2.2a5.4,5.4,0,0,0-2.052.684c-3.04,1.368-6.688,2.2-12.313,2.736-9.12.912-9.12,0.912-10.564,0.912-1.748,0-3.724-.532-4.18-1.14-0.608-.76-0.608-0.76-0.76-0.76-0.38,0-.532.3-0.532,1.064,0,2.812,2.432,5.852,4.712,5.852a3.855,3.855,0,0,0,.684-0.152,12.711,12.711,0,0,1,3.572-1.14c4.636-.836,4.636-0.836,5.244-0.836,1.9,0,2.128.912,2.128,9.045a85.74,85.74,0,0,1-.38,9.8Z" transform="translate(-518.094 -688.844)"/>
</svg>
