<svg xmlns="http://www.w3.org/2000/svg" viewBox="0 0 502.36 112.9"><defs><style>.cls-1{fill:#343434;}</style></defs><title>teatime-title</title><g id="Layer_2" data-name="Layer 2"><g id="Layer_1-2" data-name="Layer 1"><path class="cls-1" d="M73.61,27.86l0-3.52c-.06-.59-.06-1.73-.06-3.24a17.19,17.19,0,0,1-6.65,1.4A3,3,0,0,1,64,21.1a2.87,2.87,0,0,1-.64-1.63c0-1.08.16-1.67.43-1.67s.16.05.21.27c.17.86,1.57,1.46,3.57,1.46a13.89,13.89,0,0,0,6-1.3,74.8,74.8,0,0,0-.32-7.84c-.27-1.84-1-2.6-2.38-2.6a2.64,2.64,0,0,0-.65,0,1.71,1.71,0,0,1-.49.06c-.16,0-.21-.11-.21-.27,0-1,1.73-2.33,3.08-2.33,1.79,0,4.76,2,4.76,3.19a5,5,0,0,1-.27,1,9.15,9.15,0,0,0-.54,2.54,16.42,16.42,0,0,0,5.73,1.68l1.25-.05c.48,0,1,.64,1,1.4,0,1.84-2.27,3.3-8.49,5.41-.06,2.16-.11,3.68-.11,4.92,0,.54,0,1.73,0,3,5.9-3.46,10.66-5.08,15-5.08,5.25,0,8.87,3.68,8.87,9,0,6.49-4.71,11.09-11.36,11.09-4.44,0-7.09-2.76-7.09-7.36,0-1.89.71-4.05,1.36-4.05.16,0,.32.11.32.21a1.58,1.58,0,0,1-.16.6,14.5,14.5,0,0,0-.27,2.59,5.84,5.84,0,0,0,1.89,4,6.2,6.2,0,0,0,3.63,1.19c4.49,0,7.79-3.52,7.79-8.28,0-4.49-2.33-6.92-6.55-6.92-3.79,0-7.19,1.24-13.31,4.92V32c0,2.11.22,6.6.44,8a19.15,19.15,0,0,1,.16,2c0,1.73-2.06,3.63-4,3.63-.38,0-.55-.22-.55-.71-.1-2.81-2.65-6.49-5.46-8a16.07,16.07,0,0,0-3,2.59,1.76,1.76,0,0,1-1.3.76c-1.46,0-3.89-2.38-3.89-3.89,0-.92.49-1.25,1.84-1.25,3.57-.11,4.54-.38,6.27-1.57.17-.1,1.19-.7,2.22-1.24l4.92-2.81Zm0,6.65c0-.32,0-.43.06-3.08a40.48,40.48,0,0,0-6.17,4.7,35,35,0,0,1,4.06,3.09c.65.54,1,.7,1.3.7.54,0,.81-.7.81-2.11Zm6.28-19.36c0-.27-.16-.44-1.14-1s-1.35-.75-2.54-1.46c-.16,1.52-.16,2.38-.22,5C78.32,16.93,79.89,15.85,79.89,15.15Zm12.66,1.19a2.76,2.76,0,0,1-.82.27.46.46,0,0,1-.37-.44c0-.86,3.94-2.16,6.49-2.16a9.83,9.83,0,0,1,7,2.6,7.27,7.27,0,0,1,1.9,4.11,2.85,2.85,0,0,1-2.87,2.65c-.54,0-.7-.27-1.08-1.95a8.85,8.85,0,0,0-2.6-3.68A8,8,0,0,0,95.25,16,10.35,10.35,0,0,0,92.55,16.34Z"/><path class="cls-1" d="M113.2,22.23c4,.16,5.52.22,7.25.22h10.12a77.56,77.56,0,0,0,3.67-12.71H122.4c-.71,0-1.9,0-3.25,0l-3.3.11-.7-1.68c4.16.16,5.68.22,7.25.22h5.08V.22l4.22.43c.87,0,1.25.38,1.25,1,0,.33-.22.65-.71.92l-1.13.65V8.44h5.57l2.76-3.25,4.05,3.09a1.11,1.11,0,0,1,.44.81c0,.38-.27.59-.76.59l-7.36.06,3.14,2a1,1,0,0,1,.38.76c0,.22-.11.38-.38.54l-1.57.81c-2.32,4.38-2.76,5.09-4.87,8.55h4.76L140.19,19l4.11,3.24a1.3,1.3,0,0,1,.55.87c0,.43-.38.65-1,.65H120.45c-1.68,0-3.08.05-6.55.16ZM120.29,11c4.16,2.1,6.27,4.65,6.27,7.51,0,1.63-1,3-2.11,3a1.5,1.5,0,0,1-1.24-.7c-.33-.49-.33-.49-.6-3.36A11.05,11.05,0,0,0,120,11.58ZM124,30.13h11l1.35-2,3.24,2.38a1.22,1.22,0,0,1,.65,1,1,1,0,0,1-.65.81l-.92.43V44.25a1.47,1.47,0,0,1-.32,1.08,3.77,3.77,0,0,1-2.44.87c-.48,0-.7-.33-.7-1V43.06h-11.9v3.57c0,1-1,1.57-2.49,1.57a.88.88,0,0,1-.92-.92V27.86Zm11.25,11.63V31.43h-11.9V41.76ZM150.2,4.06h6.65l1.57-2.27,4,3.46a1.56,1.56,0,0,1,.54,1c0,.49-.32.82-1,.82l-.86.1-8.11,11.47c7.35,5.3,9.52,8.39,9.52,13.58,0,3.14-.71,5.14-2.38,6.81a4.61,4.61,0,0,1-3.52,1.57c-.65,0-.92-.54-.87-1.73,0-.86-.16-1.08-1.29-1.46l-3.47-1.19.06-.92,3.46.16.49.06q3.74.24,3.73-4.38c0-4.11-1.89-7.36-7.19-12.39l5.73-13.42h-7.9V46.47c0,1.13-.86,1.73-2.43,1.73-.81,0-1.08-.27-1.08-1.09V1.51Z"/><path class="cls-1" d="M182,3.62h29.48l1.73-2.11,3.73,2.93a1.09,1.09,0,0,1,.49.81c0,.32-.16.54-.59.81l-1.09.54V13c0,.65-1.4,1.35-2.59,1.35-.54,0-1-.27-1-.7v-1.3H181.73l-.11,6.11h27.81l3.08-3.3,4,3c.38.32.6.59.6.86a.76.76,0,0,1-.81.76H198.17l-5.3,7.62,15.74-.81a44.36,44.36,0,0,0-6.49-4.43l.6-.65a43,43,0,0,1,8.22,3.3c3.57,2,5.95,4.49,5.95,6.27a2.1,2.1,0,0,1-1.95,2c-.75,0-1.29-.43-2.21-1.78A26.64,26.64,0,0,0,210,27.91l-9,1.41v7H209L212,33l4,3.19a1.26,1.26,0,0,1,.54.92.51.51,0,0,1-.54.54h-15V45h11.9l3.36-3.78,4.54,3.68c.27.21.38.38.38.59,0,.43-.27.81-.6.81H188c-1.08,0-2.81.06-4.87.11l-5,.16-.82-1.94c6,.27,8.23.32,10.66.32h9.2v-7.3H192c-2.27,0-4.11.05-8.49.21l-.86-1.78c2.27.05,4.27.11,5,.16,2.27.06,3.84.11,4.38.11h5.2V29.86l-9.79,1.08-.76.87a1.91,1.91,0,0,1-1,.59c-.27,0-.59-.27-.92-.81l-2.11-3.68,8.49-.32,2.66-7.79H181.57c-.33,8.27-1.25,13.25-3.3,17.79-1.84,3.95-5.41,8.82-6.49,8.82-.22,0-.33-.16-.33-.38s0-.16,1.79-3.19c3.19-5.35,4.6-13.79,4.6-27.59,0-1.89,0-1.89-.44-14Zm30.18,7.47V4.92H181.73v6.17Z"/><path class="cls-1" d="M262.59,7.68c5.9-1.46,5.9-1.46,6.71-1.46a4,4,0,0,1,2.92,1.62,5.4,5.4,0,0,1,1.46,2.49c0,.65-.65,1.08-1.46,1.08a4.56,4.56,0,0,1-1.68-.37,14.51,14.51,0,0,0-4-.6A16.92,16.92,0,0,0,260,12c-2.87,1.41-5.85,5.25-7.15,9.25a37.58,37.58,0,0,0-1.56,10.88c0,6.65,2.54,9.19,9.35,9.19a16.68,16.68,0,0,0,3.9-.38,2.38,2.38,0,0,1,.7,0,2.7,2.7,0,0,1,2.06.92,4.87,4.87,0,0,1,1,2.16c0,1.19-1.4,1.68-5,1.68-9.79,0-15.63-4.49-15.63-12a32.57,32.57,0,0,1,6.55-19A16.86,16.86,0,0,1,257,11.52a.57.57,0,0,0,.27-.43.24.24,0,0,0-.22-.22c-3.08,0-14.12,4.33-17.69,6.93-1.51,1.08-2,1.29-2.92,1.29a7.43,7.43,0,0,1-4.06-2.21A6.39,6.39,0,0,1,231.22,13c0-.22.11-.38.32-.38s.22.05.33.27c.54,1.24,1.57,1.78,3.57,1.78a10.42,10.42,0,0,0,4.05-.86c8.39-2.49,12.66-3.68,18.29-4.92Zm7.74,15.69a2,2,0,0,1-1.9,1.89c-.48,0-.81-.27-1.24-1a8.78,8.78,0,0,0-5.3-4.32c-.38-.06-.43-.11-.43-.27s.64-.38,1.83-.38C266.81,19.26,270.33,21.31,270.33,23.37ZM276,20.45a2,2,0,0,1-1.89,2c-.49,0-.81-.22-1.14-.87a9.42,9.42,0,0,0-5.57-4.6c-.32-.05-.38-.1-.38-.21,0-.27.76-.43,1.95-.43C272.44,16.34,276,18.39,276,20.45Z"/><path class="cls-1" d="M285.68,22.18c3.41.16,3.9.16,7.3.21l1.79-2.32,3.73,2.65c.33.22.49.43.49.7s-.16.49-.6.71l-1.24.54v13c4.33,4.22,10,5.73,21.47,5.73,4,0,8.71-.21,17.42-.92a16.18,16.18,0,0,0-3.41,4.65c-6,.06-6.05.06-7.35.06-10.33,0-15.74-.49-19.26-1.73a22.37,22.37,0,0,1-10.33-7.2c-1.84,2.17-2.6,3.2-4.49,5.79l-.32,1.25c-.17.7-.49,1-1,1a1.7,1.7,0,0,1-.81-.48l-3.41-3.14a42.32,42.32,0,0,0,8.06-5.09V23.75l-4.38.05-2.92.11ZM288.44.81c5.57.81,9.58,4,9.58,7.57a2.62,2.62,0,0,1-2.44,2.76,1.67,1.67,0,0,1-1.19-.65c-.54-.75-.54-.75-1.68-4.27-.64-1.68-1.73-2.92-4.49-5Zm18.18,17.31h1V.11L311.27,2h12l1.29-2,3.68,2.38c.38.27.54.49.54.76s-.1.48-.54.7l-1.08.6V18.12h1l1.35-1.95,3.63,2.6a1.22,1.22,0,0,1,.54.81.78.78,0,0,1-.44.6l-1.08.65V37.49c0,1-.54,1.78-1.84,2.59a4.32,4.32,0,0,1-2.11.87c-.48,0-.7-.22-.75-.87a2.21,2.21,0,0,0-.33-1.08c-.11-.16-.27-.27-1.35-.65l-3.25-1.08.06-.92h3.46c2.16-.05,2.65-.27,2.7-1.24V19.42H306.62v20.5c0,.81-1,1.41-2.55,1.41-.54,0-.81-.27-.81-.71V16.17Zm8.22,0V7.63l3.62,1.94h5.41V3.3h-13V18.12Zm-.16,5.63h6l1.19-1.9,3.25,2.49c.27.22.37.38.37.6s-.16.43-.54.59l-.75.38v6.71c0,.54-.11.7-.65,1A4.38,4.38,0,0,1,322,34c-.54,0-.87-.27-.87-.76V31.64H314.3v2.92c0,.65-1.09,1.36-2.17,1.36a.9.9,0,0,1-.92-.76V22Zm6.43,6.6V25H314.3v5.31Zm2.76-12.23V10.87H318v7.25Z"/><path class="cls-1" d="M355.51,26.67a.24.24,0,0,1-.06.16,13.4,13.4,0,0,0-.75,4.44c0,5.73,4.59,8.65,13.52,8.65a39,39,0,0,0,10.28-1.46c1.57-.54,1.57-.54,2.11-.54,1.62,0,3.57,1.62,3.57,2.92A1.74,1.74,0,0,1,383,42.25c-2,.86-6.54,1.46-11.3,1.46-6.22,0-10.55-.76-13.58-2.27A9.41,9.41,0,0,1,353,32.73a13.15,13.15,0,0,1,1.67-6c.17-.21.27-.32.49-.32S355.51,26.51,355.51,26.67Zm9.9-12.55c-3.25-.27-5.25-1-6.6-2.33a7.56,7.56,0,0,1-2-4.38c0-.32.16-.54.43-.54s.22,0,.43.54c1,2.6,3.84,4,8,4a26.74,26.74,0,0,0,6.65-.86,5.11,5.11,0,0,1,1.3-.33c1.14,0,3,1.95,3,3.14,0,1-.54,1.24-3.3,1.3-3.73-.16-9.24,1.73-12.87,4.43-.16.11-.22.17-.32.17s-.33-.22-.33-.44c0-.37,2.44-2.48,5.14-4.38Zm19.42-2.6a1.93,1.93,0,0,1-1.9,1.9c-.54,0-.65-.11-1.4-1.36a9.19,9.19,0,0,0-5.2-4c-.21-.11-.32-.16-.32-.27,0-.27.87-.43,2-.43C381.37,7.36,384.83,9.47,384.83,11.52ZM390.07,9a2,2,0,0,1-1.84,1.89c-.59,0-.81-.21-1.35-1.3a9.4,9.4,0,0,0-5.41-4.16c-.16,0-.21-.06-.21-.22s.75-.38,1.89-.38C386.67,4.81,390.07,6.87,390.07,9Z"/><path class="cls-1" d="M427.77,33.48c-.81,2.33-1.68,3.19-3,3.19-3,0-5.73-3.62-5.73-7.57,0-4.65,2.81-8.44,6.27-8.44a4.88,4.88,0,0,1,2.16.49c-.05-1.46-.05-2.33-.05-3.3,0-1.24,0-1.46.05-2.76-8.06,1.25-13.09,2.6-17.58,4.76a4.41,4.41,0,0,1-2.16.71c-.81,0-1.95-.65-3.24-1.84-.92-.87-1.25-1.95-1.25-4.06,0-.43.11-.65.33-.65s.21.05.27.27a3.45,3.45,0,0,0,3.57,2.33c1.19,0,2.16-.17,7.3-1.14,5.41-1,9.09-1.57,12.71-2-.27-7.08-.27-7.62-.65-8.49a3.11,3.11,0,0,0-3.08-1.84c-.22,0-.38,0-.38-.21,0-.44,2.54-1.47,3.73-1.47,1.52,0,4.87,2.11,4.87,3a2.32,2.32,0,0,1-.32,1c-.82,1.94-.92,2.32-1.3,7.62,2.81-.48,3.46-.54,7.25-1.08A38.75,38.75,0,0,0,434,9.41c-.48-.32-.59-.43-.59-.59a.36.36,0,0,1,.38-.33.81.81,0,0,1,.38.16c3.24,1.74,5.24,2.49,7.24,2.66a6.34,6.34,0,0,1,3.9,1.19,2.92,2.92,0,0,1,1.46,1.94,1.4,1.4,0,0,1-1.24,1.35,7.35,7.35,0,0,1-.82-.1,55.17,55.17,0,0,0-9.68-1.14,39.8,39.8,0,0,0-4.92.33c-.27,3.57-.32,4.7-.32,5.84V22.5c1.78,1.79,2.21,3.36,2.21,8,0,7.31-2.11,11.85-7.08,15.37-2.38,1.67-5.95,3-8,3a.44.44,0,0,1-.48-.44c0-.21.11-.27.54-.43,6.76-2.33,10.49-7.09,11.2-14.33ZM422.9,23.8a7.88,7.88,0,0,0-1.57,4.81c0,3,1.41,5.31,3.14,5.31s2.7-2.55,2.7-8.17c0-2.11-.48-3.09-1.67-3.19A4,4,0,0,0,422.9,23.8Z"/><path class="cls-1" d="M12.23,100.13v2.38c0,.49-.11.65-.76.92A12.29,12.29,0,0,1,9.3,104a.57.57,0,0,1-.54-.64V80.5l3.9,2.16h3.46V78.55c-4.17,0-4.76,0-9,.16L6.65,77c4.49.16,5.14.16,9.47.21V72.33l3.46.27c.87.11,1.25.38,1.25.92a1.29,1.29,0,0,1-.6,1l-.92.6v2.16h6.92V72.6l3.68.32c.6.06,1,.38,1,.82a1.35,1.35,0,0,1-.59,1l-.92.54v2h4.43l2.49-2.86,1.89,1.51,2.06-4.49H6.76v.92c0,3.73-2.16,7-4.6,7a2.1,2.1,0,0,1-2.11-2c0-.54.06-.65,2.87-3.68A8.68,8.68,0,0,0,5,68.17a6.1,6.1,0,0,0,0-.87l1.24-.11.54,2.87H21.2V63.4l4.82.49c.81.06,1.35.43,1.35.87a1.41,1.41,0,0,1-.76,1l-1.62,1v3.25H40l1.68-2.38,4.76,3.89a2.61,2.61,0,0,1,1.08,1.84,1,1,0,0,1-1.24,1l-.49,0L43.54,74l-4.32,2.54.92.86a.79.79,0,0,1,.27.6.53.53,0,0,1-.6.54H29.43v4.06H33.7l1.62-2.06L38.24,83a1.43,1.43,0,0,1,.6.86.82.82,0,0,1-.38.65l-1,.6v16c0,.54-.11.71-.54.92a4.45,4.45,0,0,1-2.11.6c-.49,0-.7-.33-.7-1.14v-1.3h-5v6.12c.06,1.78.49,2.11,3.14,2.16l2.54.11h.92a18.24,18.24,0,0,0,5.14-.6,3.34,3.34,0,0,0,2-2.49l1.68-6h.92l-.33,6v1.19a.85.85,0,0,0,.06.43l1.24,1a1.38,1.38,0,0,1,.54,1c0,.86-1.35,1.78-3.08,2.11-1.46.21-6.49.49-9.47.49a38.41,38.41,0,0,1-7-.49,2.65,2.65,0,0,1-1.84-2.76v-8.28H21.26c-1.46,3.68-2.22,5.14-3.57,6.6-2.22,2.44-5.68,4.06-11.25,5.36a41.52,41.52,0,0,1-5.57.81c-.49,0-.87-.27-.87-.6s.27-.48,1.68-.75a28.87,28.87,0,0,0,9.79-3.68c3.46-2.22,4.65-3.84,5.68-7.74ZM34.08,88V83.91H12.23V88Zm0,5.51V89.31H12.23v4.22Zm0,5.3v-4H12.23v4ZM26.23,82.61V78.55H19.31v4.06Z"/><path class="cls-1" d="M69.77,69.41a.23.23,0,0,1-.21-.22c0-.27.54-.86,1.24-1.46a3.77,3.77,0,0,1,2.7-1,7.76,7.76,0,0,1,4.33,1.47c.49.43.6.64.6,1.89,0,1.62.54,2.86,2.65,6.44a13.34,13.34,0,0,0,3-2.11c.81-.71,1.3-1,1.73-1,1.08,0,2.65,1.08,2.65,1.84,0,.92-2.11,2.27-6,3.84,1.36,2.27,2.17,3.63,3.3,5.41A30.32,30.32,0,0,0,93,80.28c.7-.76.86-.86,1.3-.86a8.18,8.18,0,0,1,2.81.7c.54.27.86.65.86,1,0,.92-1.08,1.67-4.65,3.4A58.14,58.14,0,0,1,87.41,87c1.08,1.57,1.89,2.6,5.35,6.76C94.38,95.59,95,97.05,95,98.67c0,2.11-1.4,3.9-3.08,3.9-.38,0-.59-.16-1.46-.92A17.66,17.66,0,0,0,78.7,97.38c-4.71,0-7.79,2.32-7.79,5.78,0,3.09,3,4.71,8.6,4.71.59,0,1.57-.06,2.49-.11l2-.05c2.16,0,2.76.37,2.76,1.57,0,1.83-1.41,2.54-4.93,2.54a27.6,27.6,0,0,1-8.92-1.41c-3.3-1.41-5.08-3.79-5.08-6.87,0-4.65,4.32-7.57,11.25-7.57a25.28,25.28,0,0,1,8.33,1.68,3.61,3.61,0,0,0,1.57.48,1,1,0,0,0,1-1c0-1.08-1.51-4.22-4.54-9.31a57.27,57.27,0,0,1-15.2,2.44c-3.84,0-6.28-2-6.28-5,0-.33.17-.6.38-.6s.33.11.65.81C65.66,87,67.88,88,70.58,88a38.46,38.46,0,0,0,13.31-2.54c-1-1.89-1.08-2.11-3.3-5.84a32.25,32.25,0,0,1-8.38,1.3c-3.25,0-5.57-1.52-5.57-3.63,0-.38.21-.65.43-.65s.27.06.38.54c.32,1.14,1.67,1.79,3.62,1.79a21.93,21.93,0,0,0,8-1.62,44.58,44.58,0,0,0-4.17-5.9,5.32,5.32,0,0,0-4.27-2.11,1,1,0,0,0-.43,0Zm27.54,4.16a2,2,0,0,1-1.9,1.84c-.48,0-.76-.21-1.13-.92a9.14,9.14,0,0,0-5.36-4.38c-.38-.11-.43-.16-.43-.27,0-.27.81-.43,2-.43C93.79,69.41,97.31,71.57,97.31,73.57ZM103,71.14A1.94,1.94,0,0,1,101.25,73c-.59,0-.86-.27-1.4-1.3a9.6,9.6,0,0,0-5.36-4.11c-.21-.05-.27-.1-.27-.21,0-.27.87-.44,2-.44C99.63,67,103,69,103,71.14Z"/><path class="cls-1" d="M139.82,74.17a50.34,50.34,0,0,1,.75,6.54c0,5.47-2.49,11.9-6.6,17.21-3.13,4-6,6-8.87,6a4.81,4.81,0,0,1-3.73-2,12.64,12.64,0,0,1-2.81-8.55c0-11.47,9.95-20.88,22.07-20.88,10.71,0,18.17,6.71,18.17,16.34,0,8.6-5.08,15.58-13.63,18.66a33,33,0,0,1-7.41,1.79c-.38,0-.7-.28-.7-.49s.16-.22.92-.43A24.49,24.49,0,0,0,148.2,103c3.89-3.35,6.17-8.87,6.17-15.09,0-5-1.57-8.66-4.66-11a13.9,13.9,0,0,0-8.38-2.81Zm-2.17.22A19.24,19.24,0,0,0,121.8,93.53c0,4,1.52,7,3.57,7,2.33,0,6.66-4.39,9.31-9.42,2.11-4.11,3.78-9.68,3.78-12.76a10.66,10.66,0,0,0-.7-3.73Z"/><path class="cls-1" d="M189,82.72c14.34-1.47,17.58-2,19.85-3.09.55-.32.55-.32.87-.32,1.62,0,5.36,2.16,5.36,3.14A1.55,1.55,0,0,1,213.59,84a8.45,8.45,0,0,1-1.41-.16,54.14,54.14,0,0,0-6.92-.6c-1.14,0-4.11.16-7.36.43,2.44,1.36,3.52,2.22,3.52,2.71,0,.32,0,.43-1.14,1.62-2.7,8.55-8.16,15.53-15,19.26a31.86,31.86,0,0,1-6.33,2.43.46.46,0,0,1-.44-.43c0-.16.11-.22.44-.38a27.68,27.68,0,0,0,9.36-6.92,33.4,33.4,0,0,0,6.76-11,17.36,17.36,0,0,0,1.19-5.19,2.42,2.42,0,0,0-.71-1.9,63.86,63.86,0,0,0-12.17,2.49,6.57,6.57,0,0,1-2.16.49,6.14,6.14,0,0,1-4.11-2.28,3.9,3.9,0,0,1-.81-2.38c0-.27.11-.43.27-.43s.16,0,.54.43a5.56,5.56,0,0,0,3.41,1.3c.43,0,.43,0,4.43-.38Zm10.28-8.17c-.38,0-1.24.27-2.49.54-4.49,1-6.65,1.35-8.11,1.35a4,4,0,0,1-3.57-2,7.3,7.3,0,0,1-1-2.11.25.25,0,0,1,.22-.27c.16,0,.22,0,.33.27.43.7,1.46,1.08,3,1.08a46.29,46.29,0,0,0,6.66-.92,18.48,18.48,0,0,0,5.19-1.73,3.57,3.57,0,0,1,1.52-.54,13.3,13.3,0,0,1,3.51,1.24c.6.33.87.71.87,1.14a.83.83,0,0,1-.54.76,14.13,14.13,0,0,1-2.65.65Z"/><path class="cls-1" d="M256.37,105s.05,1.19.11,2.27c0,.81,0,1.51,0,2.11,0,1.35-.38,2-1.19,2-1.4,0-3-1.24-3-2.27a5.36,5.36,0,0,1,.11-.81,129.45,129.45,0,0,0,1.14-16.12,5.12,5.12,0,0,0-.49-2.76,63.72,63.72,0,0,1-11.14,9,28.44,28.44,0,0,1-6.06,2.7c-.32,0-.6-.22-.6-.43s.11-.16.28-.27c3-1.25,8.16-5.3,12.82-10,5.08-5.08,9.19-10.49,9.19-12.17,0-.54-.76-1.29-1.62-1.51-.27,0-.38-.16-.38-.38,0-.38.86-.7,1.89-.7a5.18,5.18,0,0,1,2.82,1.19c1.78,1.19,2.43,1.84,2.43,2.65a.64.64,0,0,1-.43.65,2.92,2.92,0,0,0-1.68,1.35,62.37,62.37,0,0,1-6.6,6.87c2.81,1.24,3,1.35,3,1.78a2.66,2.66,0,0,1-.11.55c-.33.43-.44,1.67-.49,4Z"/><path class="cls-1" d="M297.47,92.45a10.68,10.68,0,0,1-2.48.38c-1.57,0-4.33-1.68-4.76-2.92a14.87,14.87,0,0,1-.38-3c0-.38.16-.65.43-.65s.27.11.43.38c.71,1.57,2,2.11,5.14,2.11a252.17,252.17,0,0,0,31.27-2.22c.48,0,1-.11,1.46-.11a3.65,3.65,0,0,1,2.86,1.19c1,1,1.41,1.52,1.41,2,0,.82-1.08,1.3-2.81,1.3-.43,0-1,0-2,0-1.19-.11-5.58-.16-7.85-.16C312.73,90.67,301.69,91.53,297.47,92.45Z"/><path class="cls-1" d="M364.11,67.68a5.76,5.76,0,0,1,3.62,1.57c1.95,1.67,2.17,1.89,2.17,2.48,0,.38-.06.55-.54,1-.06.06-.22.27-.44.54a3.89,3.89,0,0,1-.32.44c-.43,1-.54,1.13-1.14,2.38a3.92,3.92,0,0,0,2.38.75,25.09,25.09,0,0,0,3.36-.37c2.16-.38,2.16-.38,3-.49a6.13,6.13,0,0,0,1.46-.71c1.19-.75,1.41-.86,1.84-.86s.92.32,2.76,1.89c2.16,1.79,2.33,2,2.33,2.44s-.11.38-1.36.86a6,6,0,0,0-1,.49,70.54,70.54,0,0,1-6.6,10.38c3.78,2.76,5.62,5,5.62,7a2.11,2.11,0,0,1-2.11,2.27c-1.08,0-1.35-.27-2.92-2.75a18.76,18.76,0,0,0-2.87-3.84,51.81,51.81,0,0,1-18.76,13.57,44.06,44.06,0,0,1-7.36,2.49.89.89,0,0,1-.87-.76c0-.16.11-.27.38-.32,8.12-2.65,18.39-10,24.13-17.09-3.41-2.76-7.31-4.87-10.06-5.41a33.45,33.45,0,0,1-6.82,5.78c-2,1.25-2.33,1.41-2.65,1.41s-.6-.27-.6-.49.11-.48,1.19-1.19c5.9-4.11,12.61-14.55,12.61-19.69a3.44,3.44,0,0,0-1.73-3.08c-.33-.11-.44-.21-.44-.32,0-.27.17-.33,1.36-.44Zm12.12,14.93a18.56,18.56,0,0,0,1.4-3.52,1.35,1.35,0,0,0-1.3-1.19,7,7,0,0,0-.86.11c-.38,0-1.25.16-2.27.22s-2.17.21-2.44.27c-.54,0-.92.1-1.19.1a4,4,0,0,1-2.76-1.29,57.61,57.61,0,0,1-5.35,7.57,31.46,31.46,0,0,1,11.09,3.79A46.57,46.57,0,0,0,376.23,82.61Z"/><path class="cls-1" d="M426.74,84.07c2.76,1.24,2.76,1.24,2.76,1.78a1.78,1.78,0,0,1-.21.76,11.79,11.79,0,0,0-.49,4.33l.11,5.52v6.16l0,3.73c.05.71.05,1.36.05,1.79,0,1.4-.48,2.22-1.29,2.22-1.63,0-3.52-1.41-3.52-2.65a4.25,4.25,0,0,1,.16-1A171.83,171.83,0,0,0,425.66,88a5.49,5.49,0,0,0-.65-3.19A69,69,0,0,1,411,95.91a24.16,24.16,0,0,1-6,2.55c-.21,0-.54-.22-.54-.44s.11-.27.54-.43c8.55-3.89,25.26-21,25.26-25.75,0-.54-1-1.51-1.78-1.67-.49-.11-.6-.22-.6-.44,0-.38,1.14-.75,2.22-.75,2,0,6.11,2.92,6.11,4.38,0,.38-.16.54-.64.81a3.85,3.85,0,0,0-1.95,1.62A88,88,0,0,1,426,83.74Z"/><path class="cls-1" d="M488.78,90.07c-.65-.38-.81-.54-.81-.7s.27-.38.54-.38c1.35,0,4.11,1.3,6.6,3.08,4.16,3,7.25,7.36,7.25,10.23a2.35,2.35,0,0,1-2.38,2.54,2,2,0,0,1-1.57-.7c-.33-.44-.33-.49-1-2.38a26.53,26.53,0,0,0-2.6-5.58c-4.59,1.74-5.95,2.17-17.52,5.2a33.41,33.41,0,0,0-9,3.08,3.65,3.65,0,0,1-1.08.38c-.6,0-1.84-1-3.25-2.65a3.32,3.32,0,0,1-1.08-2.49,9.88,9.88,0,0,1,.27-2c.11-.43.16-.49.49-.49s.27.06.37.38c.28,1.3,1.41,2,3.36,2a25.63,25.63,0,0,0,3.57-.27c2.16-3.9,4.33-8.33,7.3-15,2.6-5.73,3-6.81,3-7.73a3.43,3.43,0,0,0-1.08-2.27c-.22-.22-.27-.27-1.3-.71-.22-.1-.27-.21-.27-.32.05-.33,1.14-.6,2.22-.6a5.81,5.81,0,0,1,3.3,1.36C486,75.63,487,76.82,487,77.58c0,.38-.16.59-.81,1.3A181.43,181.43,0,0,0,473.2,99c6.28-.92,14.39-2.54,20.77-4.11A16.09,16.09,0,0,0,488.78,90.07Z"/></g></g></svg>