<svg xmlns="http://www.w3.org/2000/svg" width="1225.372" height="819.94" viewBox="0 0 612.686 409.97">
  <defs>
    <style>
      .cls-1 {
        fill: #333;
        fill-rule: evenodd;
      }
    </style>
  </defs>
  <path id="プレイステーションの_カーレースゲーム_グランツーリスモ_の_世界観を楽しみながら_食事ができる_レストランです" data-name="プレイステーションの カーレースゲーム 「グランツーリスモ」の 世界観を楽しみながら 食事ができる レストランです" class="cls-1" d="M607.943,978.109c2-1.4,2.483-1.836,2.483-2.268,0-.378-0.756-1.134-1.89-1.89-3.077-2.16-3.94-2.646-4.588-2.646a3.283,3.283,0,0,0-1.835.756,15.672,15.672,0,0,1-6.424,2.16,126.615,126.615,0,0,1-13.82,1.674c-1.889,0-3.455-.594-4.1-1.566a0.767,0.767,0,0,0-.432-0.378,0.63,0.63,0,0,0-.432.756,5.2,5.2,0,0,0,1.835,4.374,7.063,7.063,0,0,0,3.239,1.566,1.722,1.722,0,0,0,.918-0.378A22.76,22.76,0,0,1,589.373,978a67.122,67.122,0,0,1,10.688-1.836c1.188,0,1.674.324,1.674,1.188a16.3,16.3,0,0,1-1.026,4.1,34.535,34.535,0,0,1-7.45,12.852,39.947,39.947,0,0,1-17.652,12.151,0.523,0.523,0,0,0-.486.43,0.435,0.435,0,0,0,.486.38c2.915,0,10.311-2.81,14.845-5.62C598.01,996.955,603.03,990.151,607.943,978.109Zm4.7-16.848a5.427,5.427,0,1,0,5.344,5.4A5.438,5.438,0,0,0,612.639,961.261Zm-0.054,2.052a3.348,3.348,0,1,1-3.347,3.294A3.319,3.319,0,0,1,612.585,963.313Zm30.445,28.944c0.054-7.074.648-12.8,1.4-13.986a2.261,2.261,0,0,0,.431-1.35c0-.7-0.7-1.566-2.591-2.97a7.261,7.261,0,0,0-4.048-1.728,17.109,17.109,0,0,0-3.239.648,0.624,0.624,0,0,0-.54.486c0,0.27.162,0.378,0.81,0.432,2.483,0.432,3.347,2.538,3.347,7.992,0,0.756,0,3.726.054,8.856v3.726a9.76,9.76,0,0,1-.594,4.158,2.785,2.785,0,0,0-.486,1.242c0,1.187,3.617,4.757,4.858,4.757a0.955,0.955,0,0,0,.756-0.49c0.7-1.08,2.159-2.16,4.642-3.46a63.958,63.958,0,0,0,10.581-7.017,53.435,53.435,0,0,0,12.9-14.148,30.78,30.78,0,0,0,2.429-4.59,0.573,0.573,0,0,0-.486-0.486,0.723,0.723,0,0,0-.54.432,69.073,69.073,0,0,1-12.092,12.312c-5.776,4.752-14.575,9.882-16.95,9.882-0.486,0-.648-0.162-0.648-0.7v-4Zm70.662,12.853c0-.05-0.108-2.54-0.27-7.507-0.108-4.968-.216-9.45-0.216-9.5a16.069,16.069,0,0,1,.378-3.564,1.753,1.753,0,0,0,.486-1.134c0-.54-0.324-0.81-2.106-1.62-0.162-.054-0.7-0.324-1.241-0.594,3.724-4,5.4-5.886,7.017-7.83a5.5,5.5,0,0,1,1.89-1.728,1.055,1.055,0,0,0,.7-0.918c0-.7-0.81-1.836-2.754-3.78-1.673-1.728-2.7-2.268-4.426-2.268-1.026,0-1.566.162-1.566,0.486a0.462,0.462,0,0,0,.324.324,2.3,2.3,0,0,1,1.3,2.322c0,5.994-14.575,22.14-24.508,27.216-0.972.486-1.026,0.486-1.026,0.756a0.417,0.417,0,0,0,.432.378,24.968,24.968,0,0,0,5.236-1.836c5.507-2.376,8.044-4.212,15.277-11.016a7.443,7.443,0,0,1,.378,3.132c0,2.7-.054,4.914-0.27,10.1-0.108,3.837-.378,5.777-0.917,7.237a4.667,4.667,0,0,0-.486,1.73c0,1.24,3.185,4.21,4.48,4.21,1.08,0,1.944-1.3,1.944-2.92Zm51.66-31.7c-5.668,1.188-6.37,1.3-7.936,1.3s-2.861-.486-3.293-1.188c-0.269-.486-0.269-0.486-0.485-0.486-0.27,0-.594.918-0.594,1.728a3.644,3.644,0,0,0,1.3,2.538,6.837,6.837,0,0,0,3.023,1.728,4.934,4.934,0,0,0,1.62-.54,72.027,72.027,0,0,1,9.555-3.4,6.3,6.3,0,0,1,2.159-.486,0.734,0.734,0,0,1,.864.7,15.06,15.06,0,0,1-1.3,3.726,53.745,53.745,0,0,1-6.424,11.34c-4.858,6.534-11.336,11.993-17.382,14.743-1.458.65-1.781,0.86-1.781,1.13a0.434,0.434,0,0,0,.485.38,11.651,11.651,0,0,0,2.646-.65,42.667,42.667,0,0,0,14.305-7.827c2.591-2.16,4.372-4.05,7.935-8.64a25.074,25.074,0,0,1,9.771,11.937c1.026,2.48,1.619,3.13,2.915,3.13a3.393,3.393,0,0,0,3.293-3.35c0-2.537-1.836-5.507-5.02-8.045a24.457,24.457,0,0,0-10.257-4.806,91.917,91.917,0,0,0,6.964-12.1c1.241-.756,1.727-1.188,1.727-1.674,0-.432-0.324-0.864-1.511-1.836-2.052-1.674-3.347-2.484-3.941-2.484a3.389,3.389,0,0,0-1.89,1.026,6.205,6.205,0,0,1-3.4,1.458Zm49.392-3.24a0.47,0.47,0,0,0-.323.432,7.151,7.151,0,0,0,1.511,2.916,4.393,4.393,0,0,0,3.509,1.566c2.267,0,6.64-.7,13.387-2.214,2.915-.648,4-1.134,4-1.89,0-.648-0.594-1.35-1.673-2a8.72,8.72,0,0,0-2.807-.972,2.66,2.66,0,0,0-.972.27,22.3,22.3,0,0,1-3.293,1.35,37.19,37.19,0,0,1-9.609,1.782,5.411,5.411,0,0,1-3.563-1.134A0.286,0.286,0,0,0,814.744,970.171Zm11.229,12.366a2.269,2.269,0,0,1,.432,1.4c0,2.916-1.836,8.1-4.319,12.1-2.753,4.373-7.18,8.8-10.635,10.583-2.591,1.35-2.591,1.35-2.591,1.57a0.351,0.351,0,0,0,.432.32c0.864,0,5.83-2,7.882-3.13,6.693-3.67,12.038-10.639,15.007-19.441a2.009,2.009,0,0,0,.809-1.242c0-.378-0.539-0.918-2.645-2.538,3.455-.216,4.157-0.27,5.506-0.27a66.15,66.15,0,0,1,7.342.54,8.543,8.543,0,0,0,1.4.162,1.8,1.8,0,0,0,2-1.566c0-.918-0.54-1.512-2.213-2.538a10.437,10.437,0,0,0-3.671-1.674c-2.213,1.35-3.779,1.836-8.259,2.484-4.535.648-19.326,2.214-21.215,2.214-2.268,0-3.293-.432-4.211-1.728a1.234,1.234,0,0,0-.54,1.026,3.74,3.74,0,0,0,1.35,2.7,8.5,8.5,0,0,0,4.1,2.106,2.969,2.969,0,0,0,.864-0.162C815.77,984.211,819.819,983.347,825.973,982.537Zm78.975,0.648a42.677,42.677,0,0,1-8.584,1.836c-3.724.432-17.166,1.242-21.269,1.242-4.318,0-6.1-.486-6.909-1.836a0.785,0.785,0,0,0-.54-0.54c-0.54,0-.81.54-0.81,1.512a5.037,5.037,0,0,0,1.944,4.374,9.684,9.684,0,0,0,4.642,1.782,2.12,2.12,0,0,0,.756-0.162c4.048-1.62,12.038-2.376,25.533-2.376,2,0,3.617.054,4.751,0.162,2.321,0.216,4.048.378,4.534,0.378,1.674,0,2.753-.7,2.753-1.782C911.749,985.669,909.482,984.1,904.948,983.185Zm37.462-13.068c-2.321,0-4.7.486-4.7,0.972,0,0.162.108,0.27,0.486,0.378a12.5,12.5,0,0,1,7.719,6.048c0.864,1.62,1.188,1.89,2.321,1.89a3.03,3.03,0,0,0,3.239-2.97C951.479,973.087,947.269,970.117,942.41,970.117Zm-6.8,28.026c0,0.054,0,.054-0.054.054-0.431-.054-0.755.594-0.755,1.458a5.639,5.639,0,0,0,2.051,3.885c1.943,1.89,3.455,2.92,4.319,2.92,0.431,0,.593-0.11,1.457-0.81a7.326,7.326,0,0,1,1.08-.7,100.388,100.388,0,0,0,17.49-13.179,67.017,67.017,0,0,0,10.364-13.662c1.62-2.916,2.214-4.212,2.214-4.806a0.42,0.42,0,0,0-.324-0.432c-0.27,0-.432.108-0.972,0.918a92.232,92.232,0,0,1-6.1,7.344,81.41,81.41,0,0,1-13.873,12.1c-6.1,4.266-10.473,6.372-13.28,6.372-2.321,0-3.239-.378-3.563-1.458h-0.054Zm0.27-17.766c-1.781,0-3.4.324-3.4,0.7,0,0.162.054,0.216,0.54,0.432a13.728,13.728,0,0,1,7.072,6.48c0.648,1.134,1.134,1.512,1.889,1.512a3.134,3.134,0,0,0,3.131-2.916C945.109,983.455,940.575,980.377,935.878,980.377Zm72.6,18.9-3.02.324c-12.2,1.409-12.307,1.409-14.251,1.409a5.041,5.041,0,0,1-2.321-.44,1.487,1.487,0,0,0-.648-0.37,0.4,0.4,0,0,0-.324.48,3.43,3.43,0,0,0,.864,2.11c1.188,1.51,2.429,2.48,3.077,2.48a3.524,3.524,0,0,0,1.08-.27c1.025-.43,2.051-0.81,3.023-1.13a57.547,57.547,0,0,1,12.25-1.84,15.584,15.584,0,0,1,3.35.38,7.124,7.124,0,0,0,1.84.38,1.417,1.417,0,0,0,1.4-1.3c0-.65-0.43-1.19-1.57-1.889-0.21-.108-0.59-0.378-1.02-0.648,2.21-12.1,2.54-13.23,3.51-13.986a1.8,1.8,0,0,0,.75-1.134c0-.54-0.54-1.134-1.94-2.268-1.84-1.4-2.21-1.566-2.86-1.566a1.863,1.863,0,0,0-1.08.324,10.885,10.885,0,0,1-4,1.512c-3.4.54-13.545,1.62-15.543,1.62a3.7,3.7,0,0,1-3.239-1.242,0.949,0.949,0,0,0-.593-0.486,1.421,1.421,0,0,0-.648,1.3c0,1.566,2.861,4.428,4.426,4.428a3.649,3.649,0,0,0,.918-0.27,25.088,25.088,0,0,1,5.452-1.4A107.3,107.3,0,0,1,1008.38,984a1.267,1.267,0,0,1,1.45,1.3c0,0.7-.27,3.4-0.59,5.778a3.364,3.364,0,0,0-1.73-.756,7.184,7.184,0,0,0-1.46.27,20.978,20.978,0,0,1-4.15.594c-0.54.054-2.432,0.216-5.239,0.54-2.861.324-3.994,0.432-4.588,0.432a3.581,3.581,0,0,1-3.023-1.026,0.9,0.9,0,0,0-.486.81c0,1.35,2.375,3.564,3.779,3.564a2.685,2.685,0,0,0,.864-0.162c1.4-.486,1.565-0.54,2.375-0.756a94.229,94.229,0,0,1,12.468-1.728c0.11,0,.49,0,1.08.054Zm30.93-28.08c-1.94,0-3.29.27-3.29,0.7,0,0.162.16,0.27,0.6,0.378,2.75,0.81,6.58,4.374,7.88,7.236,0.75,1.62,1.24,2.052,2.32,2.052a2.98,2.98,0,0,0,2.97-2.862C1049.89,974.977,1044.65,971.2,1039.41,971.2Zm34.66,0.162a1.471,1.471,0,0,0-.81.648c-3.29,4.374-11.12,11.934-18.19,17.5-5.88,4.644-10.91,7.29-13.82,7.29a4.393,4.393,0,0,1-3.19-1.3c-0.27-.54-0.32-0.54-0.48-0.54-0.43,0-.76,1.026-0.76,2.16,0,1.188.76,2.322,2.81,4.263,1.57,1.46,2.92,2.27,3.78,2.27a1.492,1.492,0,0,0,.75-0.32c0.38-.27.71-0.6,1.03-0.87a6.667,6.667,0,0,1,1.03-.7,81.026,81.026,0,0,0,22.99-20.9c2.27-3.078,5.24-8.262,5.24-9.126A0.463,0.463,0,0,0,1074.07,971.359Zm42.75-.324c0.6-.054.98-0.054,1.14-0.054a12.972,12.972,0,0,1,5.56,1.3c4.69,2.376,7.12,7.29,7.12,14.526,0,6.642-2.21,11.556-6.91,15.387a29.069,29.069,0,0,1-9.66,5.03c-0.86.27-1.02,0.32-1.02,0.59,0,0.22.21,0.32,0.53,0.32a23.608,23.608,0,0,0,3.46-.64,33.442,33.442,0,0,0,9.99-3.68,19.887,19.887,0,0,0,9.98-17.277,16.276,16.276,0,0,0-4.26-11.394c-3.46-3.726-9.12-5.94-15.17-5.94-12.63,0-23.48,10.206-23.48,22.086a14,14,0,0,0,2.64,8.694c1.3,1.781,3.13,2.971,4.54,2.971,2.97,0,7.66-3.835,10.85-8.8a34.789,34.789,0,0,0,5.4-17.55A20.684,20.684,0,0,0,1116.82,971.035Zm-2.64.216a2.079,2.079,0,0,0,.11.378,13.324,13.324,0,0,1,.32,3.024c0,4.806-2.05,10.8-5.51,16.146-2.26,3.564-5.34,6.372-7.01,6.372s-3.13-2.808-3.13-5.994a21.113,21.113,0,0,1,6.37-15.066C1107.81,973.789,1109.97,972.6,1114.18,971.251ZM640.223,1052.7c5.83-1.19,5.83-1.19,6.316-1.19,0.755,0,.971.33,0.971,1.62,0,7.67-3.239,17.72-5.668,17.72a15.485,15.485,0,0,1-4.588-2.22,1.036,1.036,0,0,0-.432-0.16,0.36,0.36,0,0,0-.378.32,2.39,2.39,0,0,0,.7,1.08,10.73,10.73,0,0,1,2.429,5.78v0.38a1.2,1.2,0,0,0-.054.38,1,1,0,0,0,1.188.75,7.811,7.811,0,0,0,5.236-2.43c3.023-3.56,4.8-8.58,6.424-18.68,0.324-2.16.485-2.75,0.971-3.35,1.08-1.19,1.08-1.19,1.08-1.51,0-.81-4.265-3.83-5.344-3.83-0.324,0-.378.05-1.674,0.81-1.943,1.18-2.753,1.4-6.8,2.16-0.216.05-.864,0.16-1.62,0.32,0.648-2.54.864-3.56,1.4-6.05a1.983,1.983,0,0,0,.647-1.13c0-1.41-4.642-4.38-6.747-4.38-1.08,0-1.89.38-1.944,1.03,1.458,0.54,2.106,1.84,2.106,4.43a52.4,52.4,0,0,1-.594,7.07,63.994,63.994,0,0,1-9.933,1.24c-1.727,0-2.807-.43-3.347-1.35a0.31,0.31,0,0,0-.27-0.16c-0.27,0-.378.27-0.378,1.08a4.526,4.526,0,0,0,1.62,3.4,5.961,5.961,0,0,0,3.077,1.52,1.736,1.736,0,0,0,.864-0.22,52.912,52.912,0,0,1,7.827-2.86c-2.483,11.07-9.069,19.92-18.354,24.62a0.714,0.714,0,0,0-.432.49,0.442,0.442,0,0,0,.486.38,19.685,19.685,0,0,0,4.049-1.41,29.954,29.954,0,0,0,12.793-9.99c3.185-4.32,4.1-6.42,6.694-15.33Zm74.71,2.49a42.246,42.246,0,0,1-8.583,1.83c-3.725.43-17.167,1.24-21.269,1.24-4.319,0-6.1-.48-6.91-1.83a0.79,0.79,0,0,0-.54-0.54c-0.54,0-.809.54-0.809,1.51a5.017,5.017,0,0,0,1.943,4.37,9.645,9.645,0,0,0,4.642,1.79,2.1,2.1,0,0,0,.756-0.17c4.049-1.62,12.038-2.37,25.534-2.37,2,0,3.616.05,4.75,0.16,2.321,0.22,4.049.38,4.535,0.38,1.673,0,2.753-.7,2.753-1.78C721.735,1057.67,719.467,1056.1,714.933,1055.19Zm39.3,9.07c0.054-7.08.648-12.8,1.4-13.99a2.254,2.254,0,0,0,.432-1.35c0-.7-0.7-1.56-2.591-2.97a7.3,7.3,0,0,0-4.048-1.73,17.128,17.128,0,0,0-3.239.65,0.631,0.631,0,0,0-.54.49c0,0.27.162,0.38,0.81,0.43,2.483,0.43,3.346,2.54,3.346,7.99,0,0.76,0,3.73.054,8.86v3.72a9.772,9.772,0,0,1-.593,4.16,2.826,2.826,0,0,0-.486,1.24c0,1.19,3.617,4.76,4.858,4.76a0.955,0.955,0,0,0,.756-0.49c0.7-1.08,2.159-2.16,4.642-3.46a63.79,63.79,0,0,0,10.581-7.02,53.4,53.4,0,0,0,12.9-14.14,31.08,31.08,0,0,0,2.429-4.59,0.573,0.573,0,0,0-.486-0.49,0.729,0.729,0,0,0-.54.43,68.871,68.871,0,0,1-12.092,12.31c-5.776,4.76-14.575,9.89-16.95,9.89-0.486,0-.648-0.17-0.648-0.71v-3.99Zm85.938-9.07a42.232,42.232,0,0,1-8.583,1.83c-3.724.43-17.166,1.24-21.269,1.24-4.318,0-6.1-.48-6.909-1.83a0.79,0.79,0,0,0-.54-0.54c-0.54,0-.81.54-0.81,1.51a5.02,5.02,0,0,0,1.943,4.37,9.644,9.644,0,0,0,4.643,1.79,2.1,2.1,0,0,0,.756-0.17c4.048-1.62,12.038-2.37,25.533-2.37,2,0,3.617.05,4.751,0.16,2.321,0.22,4.048.38,4.534,0.38,1.674,0,2.753-.7,2.753-1.78C846.971,1057.67,844.7,1056.1,840.169,1055.19Zm45.021-9.78c-5.669,1.19-6.37,1.3-7.936,1.3s-2.861-.49-3.293-1.19c-0.27-.49-0.27-0.49-0.486-0.49-0.269,0-.593.92-0.593,1.73a3.64,3.64,0,0,0,1.3,2.54,6.82,6.82,0,0,0,3.023,1.73,4.99,4.99,0,0,0,1.62-.54,70.584,70.584,0,0,1,9.555-3.4,6.256,6.256,0,0,1,2.159-.49,0.734,0.734,0,0,1,.864.7,15.09,15.09,0,0,1-1.3,3.73,53.745,53.745,0,0,1-6.424,11.34c-4.858,6.53-11.336,11.99-17.382,14.74-1.458.65-1.782,0.86-1.782,1.13a0.435,0.435,0,0,0,.486.38,11.635,11.635,0,0,0,2.645-.65,42.618,42.618,0,0,0,14.306-7.83c2.591-2.16,4.372-4.05,7.935-8.64a25.139,25.139,0,0,1,9.771,11.94c1.025,2.48,1.619,3.13,2.915,3.13a3.393,3.393,0,0,0,3.293-3.35c0-2.54-1.836-5.51-5.021-8.04a24.408,24.408,0,0,0-10.256-4.81,92.132,92.132,0,0,0,6.963-12.1c1.242-.75,1.728-1.18,1.728-1.67,0-.43-0.324-0.86-1.512-1.84-2.051-1.67-3.346-2.48-3.94-2.48a3.377,3.377,0,0,0-1.89,1.03,6.174,6.174,0,0,1-3.4,1.45Zm79.352-11.07c-1.619,0-2.375.16-2.375,0.54,0,0.22.108,0.32,0.594,0.43a9.219,9.219,0,0,1,4.7,3.73c1.188,1.78,1.242,1.78,2.214,1.78a2.1,2.1,0,0,0,2.213-2.11C971.884,1036.34,968.483,1034.34,964.542,1034.34Zm-6.208,3.35c-1.4,0-1.943.11-1.943,0.43a0.4,0.4,0,0,0,.324.43c1.619,0.33,3.671,2.22,4.8,4.32,0.648,1.14.972,1.41,1.728,1.41a2,2,0,0,0,2.213-2.05C965.46,1039.9,962.059,1037.69,958.334,1037.69Zm0.324,11.29c-4.264.91-14.251,2.75-15.223,2.75a3.015,3.015,0,0,1-.593-0.11,49.784,49.784,0,0,0,3.886-8.58,1.48,1.48,0,0,0,.54-0.76,4.565,4.565,0,0,0-1.943-2.16,8.911,8.911,0,0,0-4.913-2.22c-1.241,0-2.915.49-2.915,0.87,0,0.27.108,0.32,0.594,0.38,1.35,0.1,2.375,1.72,2.375,3.78,0,2.27-1.565,6.8-3.94,11.45a33.528,33.528,0,0,1-6.748,9.18,1.235,1.235,0,0,0-.486.75,0.356,0.356,0,0,0,.324.33,12.289,12.289,0,0,0,3.023-1.79c3.077-2.1,5.236-4.26,8.745-8.74a2.432,2.432,0,0,1,.756.37,2.182,2.182,0,0,0,.7.27,1.168,1.168,0,0,0,.539-0.21c0.324-.38,3.887-1.14,6.748-1.46a2.8,2.8,0,0,1,1.026,2.43c0,3.67-2,9.45-4.751,13.93a24.759,24.759,0,0,1-10.31,9.51c-0.7.32-.864,0.43-0.864,0.59a0.36,0.36,0,0,0,.378.32,14.367,14.367,0,0,0,2.807-.7,24.332,24.332,0,0,0,13.334-10.74,53.431,53.431,0,0,0,4.7-10.86,4.67,4.67,0,0,1,.864-1.73,0.964,0.964,0,0,0,.27-0.54c0-.43-1.62-1.78-3.617-2.97a74.626,74.626,0,0,1,8.745-.54c0.648,0,1.242,0,1.889.06,1.242,0.05,2.214.05,2.753,0.05,1.35,0,2.106-.43,2.106-1.24,0-1.46-3.563-3.67-6.532-4Zm69.362,6.21a42.189,42.189,0,0,1-8.58,1.83c-3.72.43-17.17,1.24-21.268,1.24-4.318,0-6.1-.48-6.91-1.83a0.788,0.788,0,0,0-.539-0.54c-0.54,0-.81.54-0.81,1.51a5.02,5.02,0,0,0,1.943,4.37,9.644,9.644,0,0,0,4.643,1.79,2.094,2.094,0,0,0,.755-0.17c4.046-1.62,12.036-2.37,25.536-2.37,2,0,3.61.05,4.75,0.16,2.32,0.22,4.05.38,4.53,0.38,1.68,0,2.76-.7,2.76-1.78C1034.83,1057.67,1032.56,1056.1,1028.02,1055.19Zm34.39,14.36a37.622,37.622,0,0,1-4.32.32,3.526,3.526,0,0,1-2.59-.7,1.032,1.032,0,0,0-.59-0.48c-0.38,0-.65.64-0.65,1.51,0,1.13.54,2,2.32,3.83,1.4,1.46,2.27,2.05,3.02,2.05a2.427,2.427,0,0,0,1.24-.54c1.3-.97,2.06-1.24,6.21-2.48,7.88-2.32,13.93-4.21,19.27-6.1a31.224,31.224,0,0,1,2.6,6.32c0.7,2.16,1.29,2.86,2.42,2.86a3.43,3.43,0,0,0,3.24-3.57c0-3.88-3.88-9.23-8.8-12.04a18.049,18.049,0,0,0-5.34-2.16,0.368,0.368,0,0,0-.38.38,1.06,1.06,0,0,0,.6.81,14.817,14.817,0,0,1,4.53,5.56c-8.69,2.11-11.66,2.7-19.06,3.94,1.79-3.94,11.02-18.46,12.74-20.03a1.254,1.254,0,0,0,.54-0.97c0-1.24-.81-2.32-3.23-4.32-1.84-1.51-2.76-1.95-4.22-1.95-0.91,0-1.61.27-1.61,0.65,0,0.06.05,0.11,0.21,0.16a3.335,3.335,0,0,1,1.62,3.08c0,2.38-.81,4.92-3.51,11.02C1066.19,1062.26,1064.52,1065.61,1062.41,1069.55Zm-484.589,74.48v-34.72h13.711v-3.24h-16.95v37.96h3.239Zm70.5-38.28q-2.1,0-2.105.48a0.4,0.4,0,0,0,.324.43c1.943,0.38,4.048,2.11,5.452,4.54a1.482,1.482,0,0,0,1.512.86,2,2,0,0,0,2.213-2.05C655.716,1107.64,652.423,1105.75,648.32,1105.75ZM642,1109.26c-1.241,0-1.673.1-1.673,0.48,0,0.22.108,0.27,0.7,0.49,1.727,0.54,3.239,2.1,4.426,4.32,0.54,1.08.81,1.3,1.62,1.3a2.115,2.115,0,0,0,2.213-2.16C649.292,1111.36,645.837,1109.26,642,1109.26Zm-12.47,12.53a3.137,3.137,0,0,0,1.782.7,25.819,25.819,0,0,0,4.049-.92,13.378,13.378,0,0,1,2.375-.54,1.04,1.04,0,0,1,1.025,1.08c0,1.19-.863,3.24-2.483,6.1a62.134,62.134,0,0,1-12.2,14.85c-4.534,3.94-9.878,7.29-14.2,8.8-0.432.17-.594,0.27-0.594,0.49a0.4,0.4,0,0,0,.378.32,26.163,26.163,0,0,0,5.614-1.45,53,53,0,0,0,18.84-12.15c3.833-3.84,5.56-6.43,10.634-15.61,0.648-.65.918-0.86,1.4-1.3a1.41,1.41,0,0,0,.648-0.81c0-1.08-4.1-4.8-5.237-4.8a4.094,4.094,0,0,0-1.889.86c-2.267,1.46-6.424,2.92-8.367,2.92a2.956,2.956,0,0,1-.918-0.16,21.726,21.726,0,0,0,2.537-4.97c0-.6-1.079-1.89-2.321-2.7a8.023,8.023,0,0,0-4.48-1.57c-1.134,0-2.16.32-2.16,0.7,0,0.11.108,0.22,0.54,0.33,0.918,0.32,1.62,1.67,1.62,3.35,0,5.4-6.964,16.09-13.334,20.52a0.887,0.887,0,0,0-.486.59,0.346,0.346,0,0,0,.324.32,17.514,17.514,0,0,0,4.049-1.94C621.491,1131.83,625.216,1128.1,629.534,1121.79Zm45.668-7.94a0.348,0.348,0,0,0-.323.27,7.164,7.164,0,0,0,1.511,2.59,5.712,5.712,0,0,0,4.643,2.05,52.51,52.51,0,0,0,8.907-1.29c2.645-.54,4.318-0.81,6.639-1.08,1.3-.22,1.944-0.6,1.944-1.25,0-1.18-3.131-3.08-5.021-3.08a3.049,3.049,0,0,0-1.457.6,9.544,9.544,0,0,1-2.861,1.08,48.617,48.617,0,0,1-9.663,1.46,5.955,5.955,0,0,1-3.887-1.08A0.549,0.549,0,0,0,675.2,1113.85Zm27.1,14.09a3.757,3.757,0,0,1,1.188-.7,1.684,1.684,0,0,0,.648-0.38,0.99,0.99,0,0,0,.216-0.59c0-.49,0-0.49-1.188-1.68-2.429-2.43-3.347-3.07-4.1-3.07a5.585,5.585,0,0,0-2.106.75,13.369,13.369,0,0,1-4.156,1.3,139.075,139.075,0,0,1-16.735,2.21c-2,0-3.941-.75-4.534-1.78a0.668,0.668,0,0,0-.486-0.49c-0.324,0-.486.44-0.486,1.3,0,2.43,2.969,5.56,5.29,5.56,0.378,0,.378,0,2.106-0.81,2.645-1.29,13.441-3.67,16.572-3.67,1.134,0,1.781.32,1.781,0.97,0,0.54-.323,1.46-1.457,4.11-2.321,5.4-4.1,8.2-7.072,11.44-4.21,4.54-10.2,8.32-15.385,9.62a0.582,0.582,0,0,0-.593.48,0.483,0.483,0,0,0,.593.43,29.874,29.874,0,0,0,8.152-1.83,38.877,38.877,0,0,0,14.089-10.1C697.227,1137.99,699.171,1134.64,702.3,1127.94Zm27.8-12.74c-1.943,0-3.293.27-3.293,0.7,0,0.16.162,0.27,0.594,0.38,2.753,0.81,6.586,4.37,7.882,7.23,0.755,1.62,1.241,2.06,2.321,2.06a2.98,2.98,0,0,0,2.969-2.87C740.574,1118.98,735.338,1115.2,730.1,1115.2Zm34.657,0.16a1.463,1.463,0,0,0-.81.65c-3.293,4.37-11.12,11.93-18.192,17.49-5.884,4.65-10.9,7.29-13.819,7.29a4.363,4.363,0,0,1-3.185-1.29c-0.27-.54-0.324-0.54-0.486-0.54-0.432,0-.756,1.02-0.756,2.16,0,1.19.756,2.32,2.807,4.26,1.566,1.46,2.915,2.27,3.779,2.27a1.547,1.547,0,0,0,.756-0.32c0.378-.27.7-0.6,1.025-0.87a6.668,6.668,0,0,1,1.026-.7,80.963,80.963,0,0,0,23-20.9c2.267-3.07,5.236-8.26,5.236-9.12A0.463,0.463,0,0,0,764.758,1115.36Zm28.987,0.05c-0.7,0-1.025.11-1.025,0.38a0.343,0.343,0,0,0,.324.27c2.483,1.3,4.966,4.92,5.992,8.7,0.647,2.53.971,3.02,2.159,3.02a3.359,3.359,0,0,0,3.131-3.46C804.326,1120.27,798.55,1115.41,793.745,1115.41Zm24.832,6.81c1.134-1.14,1.242-1.24,1.242-1.73,0-.81-1.458-2.81-3.347-4.59a6.546,6.546,0,0,0-4.481-1.89,0.687,0.687,0,0,0-.809.49,0.478,0.478,0,0,0,.162.32c1.025,0.92,1.241,1.51,1.241,3.35,0,5.29-3.833,13.34-9.285,19.65-5.182,5.89-12.524,11.29-18.03,13.34-0.594.16-.7,0.27-0.7,0.54a0.435,0.435,0,0,0,.486.38,30.205,30.205,0,0,0,5.183-1.3,42.787,42.787,0,0,0,18.407-12.69A52.907,52.907,0,0,0,818.577,1122.22Zm-35.088-1.24c-0.756,0-1.026.1-1.026,0.37a0.315,0.315,0,0,0,.216.27c1.943,1.08,4.643,4.54,5.884,7.67,0.7,2,.7,2,1.026,2.32a1.351,1.351,0,0,0,1.133.54c1.62,0,2.915-1.62,2.915-3.61,0-2.33-1.673-4.59-4.588-6.16A14.261,14.261,0,0,0,783.489,1120.98Zm96.087,6.21a42.246,42.246,0,0,1-8.583,1.83c-3.725.43-17.166,1.24-21.269,1.24-4.319,0-6.1-.48-6.91-1.83a0.79,0.79,0,0,0-.54-0.54c-0.539,0-.809.54-0.809,1.51a5.017,5.017,0,0,0,1.943,4.37,9.645,9.645,0,0,0,4.642,1.79,2.1,2.1,0,0,0,.756-0.17c4.049-1.62,12.038-2.37,25.534-2.37,2,0,3.617.05,4.75,0.16,2.321,0.22,4.049.38,4.535,0.38,1.673,0,2.753-.7,2.753-1.78C886.378,1129.67,884.11,1128.1,879.576,1127.19Zm52.308-15.29c-1.242,0-3.671,1.03-3.671,1.57,0,0.27.162,0.38,0.756,0.43,2.375,0.22,2.807,1.57,2.807,8.53,0,11.02-1.134,15.56-5.021,20.25a29.489,29.489,0,0,1-11.876,8.48c-0.755.22-.971,0.38-0.971,0.65,0,0.16.162,0.27,0.431,0.27a22.917,22.917,0,0,0,5.183-1.4c7.719-2.65,12.686-6.54,15.223-11.83,1.619-3.46,2.105-7.51,2.105-18.14,0-3.14.054-3.3,0.756-4.43a1.3,1.3,0,0,0,.216-0.65c0-.49-0.54-0.97-2.322-2.11C933.017,1112.01,932.747,1111.9,931.884,1111.9Zm-14.791,2.65c-1.134,0-4.049,1.3-4.049,1.84,0,0.16.162,0.27,0.486,0.32,1.943,0.32,2.969,1.19,3.239,2.81,0.162,0.86.324,4.91,0.324,6.96a40.733,40.733,0,0,1-.216,5.08,5.432,5.432,0,0,0-.216.97c0,1.51,2.429,3.67,4.048,3.67,0.81,0,1.4-.91,1.4-2.16,0-.59-0.054-1.35-0.108-2.26-0.108-1.68-.27-5.51-0.27-6.32,0-3.89.108-5.56,0.324-6.32a3.346,3.346,0,0,0,.162-0.86C922.221,1116.93,918.928,1114.55,917.093,1114.55Zm64.723,2.86c-5.668,1.19-6.37,1.3-7.935,1.3s-2.861-.49-3.293-1.19c-0.27-.49-0.27-0.49-0.486-0.49-0.27,0-.594.92-0.594,1.73a3.641,3.641,0,0,0,1.3,2.54,6.82,6.82,0,0,0,3.023,1.73,4.98,4.98,0,0,0,1.619-.54,70.632,70.632,0,0,1,9.555-3.4,6.264,6.264,0,0,1,2.159-.49,0.734,0.734,0,0,1,.864.7,15.112,15.112,0,0,1-1.295,3.73,53.789,53.789,0,0,1-6.424,11.34c-4.859,6.53-11.337,11.99-17.383,14.74-1.457.65-1.781,0.86-1.781,1.13a0.435,0.435,0,0,0,.486.38,11.647,11.647,0,0,0,2.645-.65,42.613,42.613,0,0,0,14.3-7.83c2.591-2.16,4.373-4.05,7.936-8.64a25.138,25.138,0,0,1,9.77,11.94c1.026,2.48,1.62,3.13,2.915,3.13a3.392,3.392,0,0,0,3.292-3.35c0-2.54-1.83-5.51-5.019-8.04a24.407,24.407,0,0,0-10.257-4.81,92.013,92.013,0,0,0,6.964-12.1c1.242-.75,1.728-1.18,1.728-1.67,0-.43-0.324-0.86-1.512-1.84-2.051-1.67-3.347-2.48-3.941-2.48a3.378,3.378,0,0,0-1.889,1.03,6.18,6.18,0,0,1-3.4,1.45Zm56.414,20.63c0,3.67.81,6.37,2.48,8.05,1.73,1.72,5.83,2.8,10.74,2.8,5.89,0,9.23-1.29,9.23-3.56a2.908,2.908,0,0,0-2.53-3.02,6.53,6.53,0,0,0-1.79.43,26.44,26.44,0,0,1-8.85,1.08c-3.99,0-5.07-1.35-5.07-6.37,0-1.46.05-2.97,0.16-7.4a111.026,111.026,0,0,1,11.71-.87c1.46,0,5.51.22,7.02,0.38a14.42,14.42,0,0,0,1.89.16,1.247,1.247,0,0,0,1.4-1.13c0-.76-0.7-1.57-2.48-2.75a11.692,11.692,0,0,0-3.62-1.89c-0.43,0-.54.05-4.26,1.89-5.99.97-7.18,1.13-11.39,1.72,0.22-2.91.38-3.94,0.86-4.86a2.02,2.02,0,0,0,.38-1.08c0-.54-0.81-1.24-2.97-2.48,10.37-1.84,11.77-2.27,11.77-3.4,0-1.08-2.54-2.97-3.99-2.97a2.09,2.09,0,0,0-1.08.32,44.07,44.07,0,0,1-17.22,4.32,3.783,3.783,0,0,1-3.14-1.08,0.478,0.478,0,0,0-.48.43,5.022,5.022,0,0,0,1.08,2.22,5.685,5.685,0,0,0,4.21,2,28.541,28.541,0,0,0,5.56-.87c0.43,1.08.48,1.62,0.48,3.94,0,0.87,0,2.38-.05,4.16-3.78.49-4.1,0.54-7.18,0.97-4.91.81-5.07,0.81-6.75,0.81-1.99,0-3.34-.37-4.05-1.13a0.651,0.651,0,0,0-.32-0.22,0.55,0.55,0,0,0-.38.65c0,2.22,2.92,5.24,5.08,5.24a5.968,5.968,0,0,0,2.7-.76,68.238,68.238,0,0,1,10.9-3.18Zm57.22-21.33v34.72h-13.71v3.24h16.95v-37.96h-3.24Zm48.9-1.67a10.817,10.817,0,0,1,1.14-.06,12.975,12.975,0,0,1,5.56,1.3c4.69,2.37,7.12,7.29,7.12,14.52,0,6.65-2.21,11.56-6.91,15.39a29.069,29.069,0,0,1-9.66,5.03c-0.86.27-1.02,0.32-1.02,0.59,0,0.22.21,0.32,0.53,0.32a23.608,23.608,0,0,0,3.46-.64,33.442,33.442,0,0,0,9.99-3.68,19.882,19.882,0,0,0,9.98-17.28,16.263,16.263,0,0,0-4.26-11.39c-3.46-3.73-9.12-5.94-15.17-5.94-12.63,0-23.48,10.21-23.48,22.09a14.006,14.006,0,0,0,2.64,8.69c1.3,1.78,3.13,2.97,4.54,2.97,2.97,0,7.66-3.83,10.85-8.8a34.807,34.807,0,0,0,5.4-17.55A20.64,20.64,0,0,0,1144.35,1115.04Zm-2.64.21a2.207,2.207,0,0,0,.11.38,13.326,13.326,0,0,1,.32,3.02c0,4.81-2.05,10.8-5.51,16.15-2.26,3.56-5.34,6.37-7.01,6.37s-3.13-2.81-3.13-5.99a21.112,21.112,0,0,1,6.37-15.07C1135.34,1117.79,1137.5,1116.6,1141.71,1115.25ZM553.1,1196.43c3.562-.21,4.1-0.27,7.557-0.38v29.7a0.913,0.913,0,0,0,1.134,1.03,8.12,8.12,0,0,0,2.969-.65,1.18,1.18,0,0,0,1.025-1.24v-2h34.333a0.671,0.671,0,0,0,.432-0.75,0.9,0.9,0,0,0-.324-0.71l-5.182-4.32-3.455,4.32h-25.8v-25.48h7.828v19.87c0,0.65.216,0.86,0.756,0.86a10.48,10.48,0,0,0,2.645-.54c0.863-.32,1.3-0.7,1.3-1.19v-4.21h7.612v3.46a0.8,0.8,0,0,0,.971.92,9.014,9.014,0,0,0,2.7-.65,1.169,1.169,0,0,0,1.026-1.08v-17.44h10.743a0.743,0.743,0,0,0,.593-0.81,0.957,0.957,0,0,0-.377-0.76l-4.751-4.16-3.185,4.27h-3.023V1182.5l1.35-.76a1.016,1.016,0,0,0-.378-1.94l-5.668-.54v15.23h-7.612V1181.9l1.62-1.08a1.124,1.124,0,0,0,.593-0.97,1.164,1.164,0,0,0-1.079-1.08l-5.83-.65v16.37h-7.828v-10.75l1.188-.76a1.587,1.587,0,0,0,.594-1.18,1.019,1.019,0,0,0-.972-1.03l-5.938-.43v14.15c-3.887,0-4.534-.06-8.8-0.27Zm25.209,12.85v-13.33h7.612v13.33h-7.612Zm74.441-9.61v2.54a0.909,0.909,0,0,0,1.025,1.08,8.851,8.851,0,0,0,3.185-.76,0.939,0.939,0,0,0,.648-1.02V1185.9l0.972-.48a1.079,1.079,0,0,0,.7-0.87,3.087,3.087,0,0,0-1.079-1.78l-3.779-4-2.159,3.08H627.807l-6.316-2.48v23.06c0,0.91.27,1.4,0.81,1.4a10.627,10.627,0,0,0,3.185-.7,1.039,1.039,0,0,0,.809-1.14v-2.32h8.745c-4.156,6.32-11.282,12.31-19.379,16.31a1.494,1.494,0,0,0-.918.7,0.274,0.274,0,0,0,.324.27,20.9,20.9,0,0,0,4.858-1.62,58.2,58.2,0,0,0,11.013-5.83c0.054,0.7.054,1.35,0.054,1.57,0,5.88-.756,8.85-2.807,11.12a20.111,20.111,0,0,1-8.422,4.86,1.281,1.281,0,0,0-1.079.76,0.459,0.459,0,0,0,.54.37,33.358,33.358,0,0,0,6.639-1.56c4.8-1.73,7.4-3.89,8.476-7.13,0.755-2.21.971-4.21,1.133-9.94l1.08-.75a0.818,0.818,0,0,0,.378-0.6,1.01,1.01,0,0,0-.972-0.81l-1.835-.37a40.763,40.763,0,0,0,6.316-6.21,31.707,31.707,0,0,0,5.29,6.48l-2.159-.22v19.12c0,0.97.216,1.24,1.025,1.24a7.17,7.17,0,0,0,2.753-.7,1.155,1.155,0,0,0,.864-1.08v-16.1a41.123,41.123,0,0,0,11.984,6.65c1.4-2.27,1.566-2.43,4.535-4.76-10.527-1.78-19-5.99-23.7-11.77h11.715Zm-26.452-1.46v-6.75h10.8v6.75h-10.8Zm0-14.9h10.8v6.7h-10.8v-6.7Zm15.6,14.9v-6.75h10.851v6.75H641.9Zm0-8.2v-6.7h10.851v6.7H641.9Zm62.025-10.27v30.62a0.659,0.659,0,0,0,.755.81,8.394,8.394,0,0,0,2.646-.54,0.79,0.79,0,0,0,.809-0.86v-1.89h0.648c-1.134,11.07-3.563,15.17-11.444,19.33a0.541,0.541,0,0,0-.432.49c0,0.21.162,0.32,0.486,0.32,1.565,0,6.694-2.48,9.231-4.53,4.1-3.24,5.884-7.78,6.1-15.61h1.295v14.74c0,3.24,1.026,3.94,5.83,3.94,6.316,0,8.26-.54,8.26-2.32a2.3,2.3,0,0,0-1.3-1.83c-0.972-.71-1.188-1.03-1.188-1.84,0-.16,0-0.16.054-1.03l0.216-1.94,0.054-1.03a2.357,2.357,0,0,0,.054-0.48,3.9,3.9,0,0,0,.054-0.7,0.368,0.368,0,0,0-.378-0.38c-0.269,0-.323.11-0.7,1.19-2.16,5.88-2.268,6.1-4.967,6.1-1.781,0-1.943-.16-1.943-1.46v-12.96h1.188v2.27a0.655,0.655,0,0,0,.809.65c1.566,0,3.455-.87,3.455-1.57v-22.84l0.864-.49a1.331,1.331,0,0,0,.864-0.97,2.716,2.716,0,0,0-.918-1.73l-4.049-4.05-1.727,2.92h-9.771Zm-7.18,41.1H694.2v-5.67h7.287a0.687,0.687,0,0,0,.756-0.65,1.393,1.393,0,0,0-.54-0.92l-2.645-2.37-2.429,2.48H694.2v-5.24h7.5a0.684,0.684,0,0,0,.756-0.59,1.152,1.152,0,0,0-.594-0.92l-2.753-2.48-2.375,2.54H694.2v-5.35h7.881a0.706,0.706,0,0,0,.81-0.59,1.246,1.246,0,0,0-.648-0.98l-2.915-2.53-2.537,2.7h-3.833a41.319,41.319,0,0,1,2.753-3.35l1.026-.49a0.939,0.939,0,0,0,.648-0.75,0.721,0.721,0,0,0-.324-0.54l-1.242-.87h6.424c0.594,0,.918-0.21.918-0.65a1.583,1.583,0,0,0-.648-1.08l-3.4-2.8-2.645,3.07h-5.83a69.15,69.15,0,0,0,2.483-6.69h8.583a0.73,0.73,0,0,0,.864-0.65,1.484,1.484,0,0,0-.7-1.08l-3.616-2.81-2.538,3.08h-8.961c0.918-1.3,1.026-1.51,1.836-2.81l0.755-.27c0.972-.38,1.4-0.7,1.4-1.19a1.507,1.507,0,0,0-1.026-1.08l-4.21-1.94a49.958,49.958,0,0,1-5.183,12.15c-1.079,1.89-1.079,1.89-1.079,2.05a0.356,0.356,0,0,0,.324.33c0.647,0,3.347-2.6,6.046-5.78h2.537a34.649,34.649,0,0,1-1.836,6.69h-2.807c-2.915,0-3.67-.05-7.179-0.27l1.295,1.89c3.779-.1,4.859-0.16,5.884-0.16h2.322c-1.188,3.51-4.373,9.07-8.584,14.8-0.809,1.08-.809,1.08-0.809,1.29a0.36,0.36,0,0,0,.378.33c0.377,0,2.483-1.78,5.128-4.43v19.55c0,0.48.216,0.7,0.864,0.7,1.673,0,3.347-.7,3.347-1.46v-2.75h16.572a0.757,0.757,0,0,0,.81-0.76,1.287,1.287,0,0,0-.648-1.02l-3.563-2.87Zm-10.58-5.67h4.21v5.67h-4.21v-5.67Zm0-1.46v-5.24h4.21v5.24h-4.21Zm0-12.04h4.21v5.35h-4.21v-5.35Zm6.639-7.4a55.882,55.882,0,0,1-1.943,6h-4.319a36.967,36.967,0,0,0,3.455-6H692.8Zm15.331,12.21v-6.86h11.121v6.86H708.131Zm0-8.32v-6.53h11.121v6.53H708.131Zm0-7.99v-6.7h11.121v6.7H708.131Zm57.6-7.62a4.684,4.684,0,0,1-2.537,1.73,6.1,6.1,0,0,0,.162-1.35c0-1.78-.324-2.54-1.35-3.4a4.315,4.315,0,0,0-2.645-.87c-1.4,0-3.131.54-3.131,0.98,0,0.16.108,0.21,0.378,0.27,1.242,0.05,2.105,1.67,2.105,3.94a6.451,6.451,0,0,1-.215,1.67,14.8,14.8,0,0,1-5.723,1.19c-1.943,0-2.861-.27-3.508-0.97a0.8,0.8,0,0,0-.432-0.27,0.248,0.248,0,0,0-.216.27c0,2.05,2.321,4.16,4.642,4.16a24.9,24.9,0,0,0,4.8-.76c-2,6.16-4.427,9.51-10.581,14.53-1.565,1.19-1.673,1.35-1.673,2.16,0,2,1.565,4.48,2.753,4.48,0.756,0,1.4-.59,2.159-1.84,1.134-1.89,3.941-6.1,4.535-6.85a6.123,6.123,0,0,1,3.94-2.38q2.673,0,2.753,5.35l0.054,2.32v1.08a43.539,43.539,0,0,0-4.966,3.24c-2.7,2.16-4,4.32-4,6.59a6.949,6.949,0,0,0,3.833,5.83c2.375,1.24,5.128,1.78,9.123,1.78a42.679,42.679,0,0,0,8.2-.76c2.214-.54,3.347-1.45,3.347-2.64a4.707,4.707,0,0,0-1.133-2.43,3.146,3.146,0,0,0-2.322-.97,5.976,5.976,0,0,0-1.619.37,32.263,32.263,0,0,1-8.367,1.19c-5.183,0-7.558-1.08-7.558-3.45a6.361,6.361,0,0,1,1.836-4.05,18.356,18.356,0,0,1,3.724-2.97v1.02l-0.054,2.16a10.845,10.845,0,0,1-.108,1.73,2.415,2.415,0,0,0-.054.59,1.181,1.181,0,0,0,1.3.92c2.321,0,3.347-1.08,3.347-3.45,0-.98-0.054-1.84-0.162-4.97,4.157-2.16,6.748-3.19,15.007-6.1,3.671-1.3,5.128-2.65,5.128-4.7,0-3.46-3.131-5.94-7.449-5.94-5.992,0-10.581,4.05-13.982,12.31-0.324-2.32-.755-3.4-1.673-4.21a5.868,5.868,0,0,0-3.887-1.41,7.857,7.857,0,0,0-2.861.65c2.213-3.72,3.077-5.34,5.56-10.26,5.345-1.56,6.64-2.32,6.64-3.78,0-.7,0-0.7-2.267-1.46Zm0.324,23.01v-0.11a13.289,13.289,0,0,1,2.159-5.24c2.7-4.53,5.938-7.02,9.177-7.02a2.982,2.982,0,0,1,2.753,2.86c0,1.52,0,1.52-14.143,9.67Zm81.08,0.7-3.185,3.56H829.859v-6.31h2.375v1.78a0.736,0.736,0,0,0,.918.81c1.565,0,3.617-.87,3.617-1.57v-14.69l0.755-.48a1.3,1.3,0,0,0,.918-0.97,1.77,1.77,0,0,0-.648-1.14l-4.048-4.27-1.782,2.49h-5.452l0.378-.43c0.486-.65,1.026-1.25,1.565-1.89,0.432-.49.81-1.03,1.242-1.57a2.5,2.5,0,0,1,.378-0.38l0.864-.43a1.2,1.2,0,0,0,.971-1.03,1,1,0,0,0-.917-0.81l-5.237-1.4a67.549,67.549,0,0,1-1.187,7.94h-0.7l-5.344-2.22v22.52c0,0.87.162,1.08,0.863,1.08,1.89,0,3.617-.81,3.617-1.72v-1.62h2.213v6.31H813.178c-2.321,0-4.372-.05-10.634-0.32l1.242,2.11c4.966-.22,7.017-0.27,9.392-0.27h8.638a57.8,57.8,0,0,1-17.761,13.39c-1.781.86-1.889,0.97-1.889,1.24a0.323,0.323,0,0,0,.378.32,45.2,45.2,0,0,0,7.773-2.59,55.224,55.224,0,0,0,14.9-8.8v11.77a0.711,0.711,0,0,0,.7.81,10.4,10.4,0,0,0,3.077-.92,1.11,1.11,0,0,0,.864-0.75v-13.34c3.725,5.51,10.418,10.58,18.084,13.72a16.874,16.874,0,0,1,4.858-4.97c-9.339-1.35-17.544-5.02-22.078-9.88h20.945a0.614,0.614,0,0,0,.7-0.65,1.2,1.2,0,0,0-.593-0.97ZM823,1202.05v-7.18h9.231v7.18H823Zm0-8.64v-6.48h9.231v6.48H823Zm-16.41,13.12a1.783,1.783,0,0,0,1.187.76c0.7,0,1.08-.44,1.188-1.41l0.216-1.08c4.156-3.29,8.907-7.72,8.907-8.26a0.416,0.416,0,0,0-.432-0.38,7.5,7.5,0,0,0-2.213.97,91.352,91.352,0,0,1-12.632,5.3Zm-0.864-23.44c-0.432,0-.7.16-0.7,0.43a1.092,1.092,0,0,0,.594.76c1.781,1.24,2.753,2.59,3.671,5.35a27.376,27.376,0,0,0,1.025,2.91,2.077,2.077,0,0,0,1.89,1.14c1.565,0,2.591-1.19,2.591-2.97,0-2.65-1.889-5.13-4.912-6.48A16.836,16.836,0,0,0,805.729,1183.09Zm43.456,4.05a1.135,1.135,0,0,0,.917-0.91,1.664,1.664,0,0,0-.756-1.19l-3.994-3.41a62.519,62.519,0,0,1-6.91,11.35,2.06,2.06,0,0,0-.594,1.02,0.31,0.31,0,0,0,.27.33c0.7,0,5.614-3.41,9.987-6.86Zm-10.2,8.86c-0.432,0-.648.11-0.648,0.32a1.067,1.067,0,0,0,.648.71,26.551,26.551,0,0,1,6.8,6.64c0.863,1.24,1.4,1.62,2.213,1.62a2.372,2.372,0,0,0,2.429-2.49c0-2.37-2.159-4.42-5.884-5.67A26.06,26.06,0,0,0,838.982,1196Zm39.46-16.15c-1.134,0-2.591.49-2.591,0.92a0.248,0.248,0,0,0,.27.22c2,0.21,2.969,2.21,2.969,6.05,0,0.7-.108,3.18-0.324,6.69-0.756,13.61-.756,13.99-0.756,15.93,0,9.99,4.427,15.28,12.848,15.28,5.83,0,11.228-3.07,15.6-8.85,1.4-1.84,3.131-4.97,3.131-5.62a0.33,0.33,0,0,0-.27-0.38,0.38,0.38,0,0,0-.324.27,24.967,24.967,0,0,1-4.967,4.92,21.7,21.7,0,0,1-13.171,4.75c-5.668,0-8.745-3.56-8.745-10.04,0-3.89,1.673-16.42,2.483-19.01,0.972-2.97,1.079-3.35,1.079-4.27C885.675,1183.31,882.005,1179.85,878.442,1179.85Zm88.152,29.81c2.1,1.62,3.185,2.49,4.048,3.3,2.591,2.43,2.7,2.48,3.833,2.48a2.514,2.514,0,0,0,2.483-2.75c0-1.46-.755-2.6-2.807-4.05a32.149,32.149,0,0,0-5.452-3.3,22.622,22.622,0,0,0,1.4-6.91c0-1.24-.378-1.89-1.728-2.81a9.425,9.425,0,0,0-4.1-1.78c-0.863,0-2.321.59-2.321,0.92a0.289,0.289,0,0,0,.216.27c1.566,0.21,2.159,1.13,2.159,3.51a14.267,14.267,0,0,1-.863,4.7A47.479,47.479,0,0,0,949,1200.91c3.346-5.99,6.261-9.82,9.23-12.04,1.3-.92,1.728-1.4,1.728-2.05,0-1.08-4.966-4.38-6.64-4.38a4.019,4.019,0,0,0-1.943.6,46.568,46.568,0,0,1-9.663,3.08,1.913,1.913,0,0,1-1.889-1.89c0-.38-0.108-0.6-0.27-0.6-0.486,0-1.458,1.95-1.458,2.87,0,1.99,2.267,4.59,3.941,4.59a3.546,3.546,0,0,0,2.159-1.08,35.742,35.742,0,0,1,4.265-3.3,6.828,6.828,0,0,1,2.537-1.02,1,1,0,0,1,.918,1.02c0,1.14-.7,2.65-3.131,6.86-1.62,2.81-3.4,5.99-4.481,7.78-3.779.81-5.722,1.45-7.5,2.48-4,2.27-6.37,5.62-6.37,9.07a6.321,6.321,0,0,0,6.154,6.43,4.9,4.9,0,0,0,3.293-1.24c0.917-.76,1.295-1.46,2.159-3.62a72.031,72.031,0,0,1,5.56-11.5,32.12,32.12,0,0,1,14.791,4.1c-2.969,8.15-9.393,14.85-16.464,17.12-0.594.21-.756,0.32-0.756,0.54a0.419,0.419,0,0,0,.432.32,16.068,16.068,0,0,0,3.239-.7,32.5,32.5,0,0,0,7.5-3.02C960.872,1218.79,963.193,1216.2,966.594,1209.66Zm-23.86-4.75c-3.077,5.89-3.131,5.94-3.779,6.97-1.026,1.56-1.836,2.21-2.753,2.21-1.026,0-1.728-.86-1.728-2.16,0-4.32,3.725-7.83,9.069-8.64Zm81.136-11.29c2.91,0,5.61,1.25,5.61,2.6,0,0.48-.21.59-1.4,0.91a10.2,10.2,0,0,0-6.86,5.73c-0.65,1.67-.86,4.05-0.86,9.83a24.08,24.08,0,0,0-2.65-.11,15.411,15.411,0,0,0-7.12,1.4,6.182,6.182,0,0,0-3.24,5.08c0,3.99,4.16,7.02,9.61,7.02,3.34,0,5.77-1.08,7.02-3.19,0.75-1.24.97-2.37,1.08-4.91a21.716,21.716,0,0,1,5.5,4.21c1.19,1.19,1.94,1.62,2.81,1.62a2.511,2.511,0,0,0,2.27-2.59c0-2.65-4.21-5.67-10.58-7.56a73.466,73.466,0,0,1-.98-8.75c0-3.94,1.62-6.1,4.59-6.1a12.7,12.7,0,0,1,5.67,1.56,2.325,2.325,0,0,0,1.94-2.59c0-3.56-3.67-6.42-8.26-6.42-2.53,0-6.53,1.24-6.53,2.05a0.346,0.346,0,0,0,.33.32,1.108,1.108,0,0,0,.37-0.05Zm-3.57,24.14c0,2.59-1.78,4.21-4.58,4.21-3.19,0-5.29-1.35-5.29-3.29,0-2.05,1.99-3.4,4.91-3.4a13.979,13.979,0,0,1,4.96.92v1.56Zm-13.17-23.97c-2.53,6.96-6.37,13.01-10.577,16.63-1.242,1.13-1.728,1.83-1.728,2.54a3.076,3.076,0,0,0,3.077,2.86,4.329,4.329,0,0,0,3.238-1.46c0.54-.65.76-0.97,2.75-4.7,2.38-4.37,4-7.99,7.51-16.79a21.469,21.469,0,0,0,5.02-1.95c2.43-1.29,3.4-2.48,3.4-4.21,0-1.29-.27-1.51-1.67-1.57-2.38,0-3.95-.43-4.75-1.18,0.16-.98.27-1.46,0.43-2.7a4.788,4.788,0,0,0-4.48-2.38c-1.62,0-3.67.76-3.67,1.4,0,0.17.1,0.22,0.43,0.22a3.242,3.242,0,0,1,3.18,3.4,18.042,18.042,0,0,1-1.08,5.62,19.686,19.686,0,0,1-5.94,1.08c-2.316,0-4.422-.97-5.015-2.38-0.162-.37-0.27-0.43-0.432-0.43a0.368,0.368,0,0,0-.378.38,8.129,8.129,0,0,0,1.295,3.67,6.069,6.069,0,0,0,5.24,2.32A28.088,28.088,0,0,0,1007.13,1193.79Zm6-8.97c1.88,1.19,2.1,1.41,2.1,1.62,0,0.6-1.08,1.35-3.18,2.27C1012.64,1186.66,1012.75,1186.33,1013.13,1184.82Zm73.36-3.24c-1.35,0-2.33.27-2.33,0.65,0,0.21.17,0.38,0.76,0.54a7.656,7.656,0,0,1,4.1,3.13c1.19,1.89,1.19,1.89,2.11,1.89a2.28,2.28,0,0,0,2.37-2.1C1093.5,1183.58,1090.05,1181.58,1086.49,1181.58Zm7.18-3.08c-1.41,0-2.38.27-2.38,0.65,0,0.27.11,0.38,0.81,0.59a9.074,9.074,0,0,1,4.48,3.62c0.81,1.41,1.08,1.57,1.94,1.57a2.362,2.362,0,0,0,2.38-2.11C1100.9,1180.61,1097.34,1178.5,1093.67,1178.5Zm-27.91,5.19c1.99,0,3.24,1.67,3.24,4.43a34.184,34.184,0,0,1-.81,7.07c-4.81,1.46-7.51,2.11-9.02,2.11a3.176,3.176,0,0,1-2.86-1.52c-0.16-.59-0.22-0.64-0.43-0.64-0.33,0-.54.7-0.54,1.62,0,2.8,1.67,5.07,3.72,5.07,0.7,0,1.24-.16,3.08-1.08,2-1.02,2.59-1.29,5.4-2.64-2.32,7.5-6.59,15.39-10.69,19.65-1.62,1.73-1.89,2.16-1.89,2.97a2.587,2.587,0,0,0,2.81,2.38,4.411,4.411,0,0,0,2.7-.92,11.343,11.343,0,0,0,1.94-2.81,116.236,116.236,0,0,0,9.61-22.79,13.156,13.156,0,0,1,3.99-.97c2,0,2.92,1.51,2.92,4.81a38.982,38.982,0,0,1-2.54,13.77c-0.7,1.78-1.94,2.91-3.08,2.91-0.75,0-1.08-.21-3.99-2.7-1.4-1.08-1.4-1.08-1.57-1.08a0.4,0.4,0,0,0-.37.33,1.5,1.5,0,0,0,.54.81,12.083,12.083,0,0,1,2.7,6.59c0.1,1.51.43,1.83,1.72,1.83a9.473,9.473,0,0,0,7.45-4.32c2.16-3.24,3.62-9.83,3.62-16.2,0-5.72-2.43-8.91-6.86-8.91a15.1,15.1,0,0,0-3.88.6,55.511,55.511,0,0,0,1.62-8.05c0-1.68-3.35-3.89-5.89-3.89-1.19,0-3.4.92-3.4,1.4a0.29,0.29,0,0,0,.27.22,0.619,0.619,0,0,0,.27-0.05h0.22Zm26.72,22.14c2.86,0,3.94.32,5.34,1.67a2.028,2.028,0,0,0,1.46.7c1.78,0,2.91-1.67,2.91-4.26,0-6.91-6.1-12.8-13.27-12.8-1.41,0-2.16.22-2.16,0.59,0,0.27.1,0.38,0.7,0.44a11.6,11.6,0,0,1,6.69,4.32c1.46,1.78,2.43,3.78,2.43,5.07a1.877,1.877,0,0,1-1.4,1.73,36.612,36.612,0,0,1-4.92,1.84c-0.37.1-.54,0.21-0.54,0.43a0.435,0.435,0,0,0,.44.43c0.21,0,.59-0.05,1.08-0.11A7.469,7.469,0,0,1,1092.48,1205.83Zm39.08-18.36a20.7,20.7,0,0,0-4.86,1.4c-3.13,1.41-4.64,3.62-4.64,6.86l0.05,2.11c0,0.91-.43,5.18-0.64,6.42-0.81,4.59-.81,4.59-0.81,6.37a5.659,5.659,0,0,0,1.35,3.89,6.234,6.234,0,0,0,4.21,2.43,1.915,1.915,0,0,0,1.78-1.24,18.723,18.723,0,0,1,2.7-5.08c2.64-3.61,5.61-5.45,8.85-5.45,3.51,0,5.94,2.59,5.94,6.26,0,4-3.24,8.05-8.59,10.59-3.34,1.62-5.88,2.32-11.22,3.18-0.65.06-.87,0.17-0.87,0.38,0,0.27.27,0.43,0.76,0.43a57.508,57.508,0,0,0,10.69-1.18c9.88-2.06,15.06-6.48,15.06-12.86,0-5.34-3.89-8.96-9.5-8.96-4.81,0-9.99,2.38-14.36,6.64a1.744,1.744,0,0,1-1.24.7c-0.98,0-1.46-.97-1.46-2.75,0-1.67.16-2.38,1.24-6.43a18.478,18.478,0,0,0,1.03-5.18,2.541,2.541,0,0,0-.65-1.67,1.172,1.172,0,0,1-.27-0.92c0-2.92,2.27-4.54,6.31-4.54a14.247,14.247,0,0,1,3.78.49,7.834,7.834,0,0,0,2.27.48,1.979,1.979,0,0,0,1.89-2.05,5.477,5.477,0,0,0-1.13-3.13,3.266,3.266,0,0,0-2.81-1.19c-4.64-.22-7.61-1.89-7.94-4.48-0.05-.6-0.1-0.7-0.32-0.7-0.43,0-.76,1.02-0.76,2.37,0,2.65,1.41,4.48,5.08,6.65Zm-443.4,105.91c-3.347.27-3.941,0.32-7.612,0.49l3.725,5.56a1.347,1.347,0,0,0,1.08.75,1.2,1.2,0,0,0,1.025-.75l0.756-1.41c3.617-1.02,3.779-1.08,6.748-1.89,5.992-1.62,8.421-2.37,11.5-3.4a0.79,0.79,0,0,0,.7-0.65,0.494,0.494,0,0,0-.54-0.48,4.912,4.912,0,0,0-.81.11c-2.753.32-7.179,0.81-11.39,1.13v-10.91h7.45c3.509,8.8,10.634,14.64,22.186,18.09a15.119,15.119,0,0,1,5.938-5.24c-8.1-.64-14.089-2.37-19-5.4,2.861-1.4,7.719-3.83,10.8-5.4l1.566,0.06,0.377,0.05a1.09,1.09,0,0,0,1.4-.92,1.692,1.692,0,0,0-.81-1.18l-3.994-3.57a100.21,100.21,0,0,1-10.473,10.21,21.213,21.213,0,0,1-6.532-6.7h7.288v1.08a0.834,0.834,0,0,0,.972.87,9.438,9.438,0,0,0,2.7-.6,1.14,1.14,0,0,0,1.025-1.35v-11.18l1.134-.32a1.013,1.013,0,0,0,.648-0.97,1.382,1.382,0,0,0-.594-1.03l-4.589-4.32-1.727,2.86h-5.722v-3.67l1.565-.7a1.044,1.044,0,0,0,.54-0.92,0.835,0.835,0,0,0-.81-0.81l-5.992-.59v6.69H693.5l-2.753-1.51a94.7,94.7,0,0,0,12.632-11.77c4.534,7.18,10.256,11.88,19.7,16.09,1.512-2.27,2.43-3.13,5.668-5.02-11.5-2.43-19.163-6.16-24.184-11.67l1.026-.32a1.008,1.008,0,0,0,.756-0.92,0.864,0.864,0,0,0-.54-0.75l-6.046-2.38a68.931,68.931,0,0,1-21.755,23.17,1.284,1.284,0,0,0-.809.86,0.366,0.366,0,0,0,.377.33c1.08,0,6.046-2.6,10.581-5.57v25.87Zm5.182-12.91v-5.23h16.195v5.23H693.34Zm0-6.69v-5.35h16.195v5.35H693.34Zm47.773,8.37c4.643-.22,6.208-0.27,9.447-0.27h12.578v4.53h-8.475c-1.835,0-3.725-.05-9.339-0.27l1.4,1.95c3.886-.16,5.344-0.22,7.935-0.22h8.475v4.21c0,1.57-.216,1.73-1.835,1.73-0.864,0-4.157-.16-4.859-0.27l-0.971-.05a0.538,0.538,0,0,0-.648.43,1.126,1.126,0,0,0,.918.76c0.108,0.05.593,0.21,1.295,0.54l1.889,0.7c2.376,0.92,2.376.92,2.43,2.27,0.054,1.02.324,1.45,0.917,1.45a10.842,10.842,0,0,0,3.779-1.18c1.566-.81,2.051-1.57,2.051-3.14v-7.45h9.663v2.43c0,0.92.216,1.19,1.08,1.19a7.292,7.292,0,0,0,2.429-.49,1.167,1.167,0,0,0,.972-1.35v-7.77h8.1a0.664,0.664,0,0,0,.7-0.6,1.935,1.935,0,0,0-.432-0.97l-3.563-4.1-2.969,4.21h-1.835v-2.16l1.079-.59a1.018,1.018,0,0,0,.648-0.87,1.289,1.289,0,0,0-.54-0.97l-4.1-3.78-1.836,2.32H768.1v-4.43h8.476v1.08c0,0.81.216,1.08,0.971,1.08a7.775,7.775,0,0,0,2.537-.54,1.171,1.171,0,0,0,.918-1.29v-4.11l0.972-.43a1.21,1.21,0,0,0,.756-0.97,1.967,1.967,0,0,0-.756-1.3l-3.941-3.83-1.781,2.7H768.1v-4h21.7a0.638,0.638,0,0,0,.7-0.64,1.15,1.15,0,0,0-.54-0.82L785,1252.72l-3.4,4.15H768.1v-3.83l1.026-.65a1.618,1.618,0,0,0,.756-1.19,1.224,1.224,0,0,0-1.188-1.02l-5.56-.6v7.29H751.316c-3.023,0-5.182-.05-10.58-0.32l1.349,2.05c5.344-.21,7.288-0.27,9.231-0.27h11.822v4h-8.151l-5.506-2.16v11.72a0.855,0.855,0,0,0,1.025,1.02,9.4,9.4,0,0,0,2.483-.43,0.951,0.951,0,0,0,.864-1.08v-1.46h9.285v4.43h-8.259c-0.756,0-2.105,0-3.725-.05l-5.614-.22,0.972,1.95c4.156-.17,5.452-0.22,8.367-0.22h8.259v4.59H750.56c-2.591,0-4.858-.05-10.634-0.32Zm12.74-13.66v-4.7h9.285v4.7h-9.285Zm14.251,17.92v-4.53h9.663v4.53H768.1Zm0-5.99v-4.59h9.663v4.59H768.1Zm0-11.93v-4.7h8.476v4.7H768.1Zm68.449-14.91c-1.35,0-2.321.27-2.321,0.65,0,0.21.162,0.38,0.755,0.54a7.7,7.7,0,0,1,4.1,3.13c1.188,1.89,1.188,1.89,2.105,1.89a2.281,2.281,0,0,0,2.375-2.1C843.57,1255.58,840.116,1253.58,836.553,1253.58Zm7.179-3.08c-1.4,0-2.375.27-2.375,0.65,0,0.27.108,0.38,0.81,0.59a9.057,9.057,0,0,1,4.48,3.62c0.81,1.41,1.08,1.57,1.944,1.57a2.364,2.364,0,0,0,2.375-2.11C850.966,1252.61,847.4,1250.5,843.732,1250.5Zm-27.908,5.19c2,0,3.239,1.67,3.239,4.43a33.78,33.78,0,0,1-.81,7.07c-4.805,1.46-7.5,2.11-9.015,2.11a3.175,3.175,0,0,1-2.861-1.52c-0.162-.59-0.216-0.64-0.432-0.64-0.324,0-.54.7-0.54,1.62,0,2.8,1.674,5.07,3.725,5.07,0.7,0,1.241-.16,3.077-1.08,2-1.02,2.591-1.29,5.4-2.64-2.321,7.5-6.586,15.39-10.688,19.65-1.62,1.73-1.89,2.16-1.89,2.97a2.587,2.587,0,0,0,2.807,2.38,4.388,4.388,0,0,0,2.7-.92,11.138,11.138,0,0,0,1.944-2.81,116.119,116.119,0,0,0,9.609-22.79,13.134,13.134,0,0,1,3.994-.97c2,0,2.915,1.51,2.915,4.81a39.071,39.071,0,0,1-2.537,13.77c-0.7,1.78-1.943,2.91-3.077,2.91-0.756,0-1.079-.21-4-2.7-1.4-1.08-1.4-1.08-1.565-1.08a0.412,0.412,0,0,0-.378.33,1.555,1.555,0,0,0,.54.81,12.044,12.044,0,0,1,2.7,6.59c0.108,1.51.432,1.83,1.727,1.83a9.477,9.477,0,0,0,7.45-4.32c2.159-3.24,3.617-9.83,3.617-16.2,0-5.72-2.429-8.91-6.856-8.91a15.132,15.132,0,0,0-3.887.6,54.7,54.7,0,0,0,1.62-8.05c0-1.68-3.347-3.89-5.884-3.89-1.188,0-3.4.92-3.4,1.4a0.292,0.292,0,0,0,.27.22,0.628,0.628,0,0,0,.27-0.05h0.216Zm26.721,22.14c2.861,0,3.94.32,5.344,1.67a2.021,2.021,0,0,0,1.458.7c1.781,0,2.915-1.67,2.915-4.26,0-6.91-6.1-12.8-13.28-12.8-1.4,0-2.159.22-2.159,0.59,0,0.27.108,0.38,0.7,0.44a11.6,11.6,0,0,1,6.694,4.32c1.458,1.78,2.429,3.78,2.429,5.07a1.878,1.878,0,0,1-1.4,1.73,36.313,36.313,0,0,1-4.912,1.84c-0.378.1-.54,0.21-0.54,0.43a0.428,0.428,0,0,0,.432.43c0.216,0,.593-0.05,1.079-0.11A7.511,7.511,0,0,1,842.545,1277.83Zm64.238-12.15c-1.458,0-2.376.27-2.376,0.65a0.714,0.714,0,0,0,.486.48,8.9,8.9,0,0,1,4.859,3.78c0.755,1.41.863,1.46,1.727,1.46a2.351,2.351,0,0,0,2.483-2.11C913.962,1267.78,910.453,1265.68,906.783,1265.68Zm-6.748,3.4c-0.81,0-1.3.16-1.3,0.49a0.526,0.526,0,0,0,.324.37,7.835,7.835,0,0,1,4.157,4.16c0.648,1.57.917,1.84,2.051,1.84a2.2,2.2,0,0,0,2.267-1.89C907.538,1271.62,903.652,1269.08,900.035,1269.08Zm5.722-14.53c-1.188.65-1.4,0.7-8.259,2.7-7.018,1.79-12.2,3.24-18.462,5.13-3.185,1.03-4.373,1.3-5.56,1.3a4.683,4.683,0,0,1-4-2.16c-0.27-.54-0.27-0.59-0.486-0.59-0.162,0-.27.16-0.27,0.43a8.744,8.744,0,0,0,.648,3.56c0.918,1.95,3.725,4.05,5.452,4.05a2.161,2.161,0,0,0,1.35-.54,43.286,43.286,0,0,1,8.043-4.43c3.725-1.62,8.205-3.13,9.5-3.13a0.257,0.257,0,0,1,.27.16,2.512,2.512,0,0,1-.54.65,29.436,29.436,0,0,0-5.992,9.45,34.272,34.272,0,0,0-2.213,11.23c0,6.16,2.429,10.16,7.395,12.05a28.91,28.91,0,0,0,9.825,1.83c2.915,0,4.427-.92,4.427-2.7,0-1.73-1.836-3.78-3.347-3.78a0.624,0.624,0,0,0-.324.06,32.065,32.065,0,0,1-4.265.37c-6.046,0-9.015-3.18-9.015-9.61a35.024,35.024,0,0,1,2.159-12.15,12.534,12.534,0,0,1,6.046-6.96c1.782-.87,3.725-1.19,7.18-1.19a20.473,20.473,0,0,1,4.049.43,8.852,8.852,0,0,0,1.079.11,1.676,1.676,0,0,0,1.728-1.57c0-.97-0.81-2.05-2.429-3.13A6.876,6.876,0,0,0,905.757,1254.55Zm51.12,15.72a36.155,36.155,0,0,1-12.362,2.16c-3.833,0-6.262-.97-6.964-2.81-0.27-.59-0.27-0.65-0.431-0.65-0.216,0-.378.33-0.378,0.81a6.073,6.073,0,0,0,2.591,4.65,11.493,11.493,0,0,0,6.262,1.56c3.724,0,6.855-.48,13.171-2.05,2.322,4,3.725,6.8,3.725,7.61a0.57,0.57,0,0,1-.648.54,11.379,11.379,0,0,1-2.915-.59c-3.94-.97-4.8-1.08-7.071-1.08-7.072,0-11.822,3.35-11.822,8.37,0,5.45,6.207,9.23,15.169,9.23,3.67,0,5.4-1.08,5.4-3.34a2.306,2.306,0,0,0-2.591-2.38,8.7,8.7,0,0,0-1.026.05c-0.972.06-3.725,0.17-4.427,0.17-5.02,0-8.151-1.95-8.151-5.13s2.753-5.19,7.288-5.19c4.372,0,9.393,2.49,12.793,6.37a2.8,2.8,0,0,0,.648.06c2.16,0,3.833-2.22,3.833-5.08a7.13,7.13,0,0,0-2.051-4.7c-2.7-3.18-3.941-4.69-5.021-6.21a41.558,41.558,0,0,0,7.5-3.67c1.781-1.13,2.537-2,2.537-3.02a1.393,1.393,0,0,0-1.188-1.24,19.4,19.4,0,0,0-4.264-.76c-0.432,1.51-2.321,2.86-7.072,4.97a37.99,37.99,0,0,1-2.807-4.75c4.211-1.73,5.992-2.92,5.992-4,0-1.03-2-2.38-3.509-2.38-0.54,0-.756.17-2.159,1.41a12.224,12.224,0,0,1-2.051,1.51c-1.674-3.62-2.106-4.92-2.106-6.21a1.712,1.712,0,0,1,.054-0.49,1.824,1.824,0,0,0-.647-1.08,9.709,9.709,0,0,0-5.669-1.78c-1.241,0-3.886,1.62-3.886,2.38a0.345,0.345,0,0,0,.378.21c2.861-.11,4.75,1.57,8.853,8.05a20.05,20.05,0,0,1-7.072,1.4c-2.159,0-3.4-.43-4.049-1.35a0.562,0.562,0,0,0-.486-0.37,0.383,0.383,0,0,0-.431.37,5.185,5.185,0,0,0,1.349,2.38,6.779,6.779,0,0,0,5.074,2.16,27.842,27.842,0,0,0,7.666-1.35A42.334,42.334,0,0,1,956.877,1270.27Zm58.353,21.22c-0.22-.38-0.32-0.65-0.43-0.81a8.622,8.622,0,0,0-8.1-4.75c-3.78,0-6.04,1.73-6.04,4.64,0,3.19,3.5,5.24,8.85,5.24,4.8,0,9.28-1.51,12.04-4a13.008,13.008,0,0,0,4.42-9.45c0-5.99-5.13-10.47-12.03-10.47a17.313,17.313,0,0,0-8.16,1.89,0.194,0.194,0,0,1-.16.05,0.118,0.118,0,0,1-.11-0.11c0-1.56,8.26-10.47,11.88-12.79,1.46-.92,1.94-1.46,1.94-2.22,0-1.62-4.26-4.48-6.74-4.48a3.836,3.836,0,0,0-2.11.75c-3.45,2.22-8.53,4.06-11.282,4.06a2.116,2.116,0,0,1-2.159-1.14c-0.162-.43-0.216-0.48-0.324-0.48-0.324,0-.486.59-0.486,1.72a4.418,4.418,0,0,0,.864,2.87,4.556,4.556,0,0,0,3.187,1.99c0.59,0,1.02-.21,2.37-1.29,3.08-2.43,7.13-4.81,8.21-4.81a0.613,0.613,0,0,1,.59.65c0,2.16-4.59,9.07-9.98,15.07-2.326,2.59-6.321,6.64-8.642,8.74-1.133,1.08-1.511,1.68-1.511,2.6,0,1.78,2,4.21,3.455,4.21,0.7,0,1.241-.54,2-2.16a41.136,41.136,0,0,1,5.181-8.1,13.81,13.81,0,0,1,10.42-5.02,8.165,8.165,0,0,1,5.24,2.05,8.312,8.312,0,0,1,2.59,6.48,11.74,11.74,0,0,1-1.24,5.45A9.6,9.6,0,0,1,1015.23,1291.49Zm-4.86,1.3c-0.7.05-1.13,0.05-1.24,0.05-3.02,0-5.67-1.3-5.67-2.81,0-1.13,1.08-1.94,2.59-1.94C1008.43,1288.09,1009.89,1289.65,1010.37,1292.79Zm-339.81,59.47c0.054-7.08.648-12.8,1.4-13.99a2.258,2.258,0,0,0,.431-1.35c0-.7-0.7-1.56-2.591-2.97a7.3,7.3,0,0,0-4.048-1.73,17.128,17.128,0,0,0-3.239.65,0.631,0.631,0,0,0-.54.49c0,0.27.162,0.38,0.81,0.43,2.483,0.43,3.347,2.54,3.347,7.99,0,0.76,0,3.73.053,8.86v3.72a9.756,9.756,0,0,1-.593,4.16,2.826,2.826,0,0,0-.486,1.24c0,1.19,3.617,4.76,4.858,4.76a0.955,0.955,0,0,0,.756-0.49c0.7-1.08,2.159-2.16,4.642-3.46a63.79,63.79,0,0,0,10.581-7.02,53.4,53.4,0,0,0,12.9-14.14,31.08,31.08,0,0,0,2.429-4.59,0.573,0.573,0,0,0-.486-0.49,0.729,0.729,0,0,0-.54.43,68.871,68.871,0,0,1-12.092,12.31c-5.776,4.76-14.575,9.89-16.95,9.89-0.486,0-.648-0.17-0.648-0.71v-3.99Zm62.942-18.85c-5.668,1.19-6.37,1.3-7.935,1.3s-2.861-.49-3.293-1.19c-0.27-.49-0.27-0.49-0.486-0.49-0.27,0-.594.92-0.594,1.73a3.641,3.641,0,0,0,1.3,2.54,6.82,6.82,0,0,0,3.023,1.73,4.98,4.98,0,0,0,1.619-.54,70.68,70.68,0,0,1,9.555-3.4,6.263,6.263,0,0,1,2.16-.49,0.733,0.733,0,0,1,.863.7,15.112,15.112,0,0,1-1.3,3.73,53.789,53.789,0,0,1-6.424,11.34c-4.859,6.53-11.336,11.99-17.382,14.74-1.458.65-1.782,0.86-1.782,1.13a0.435,0.435,0,0,0,.486.38,11.635,11.635,0,0,0,2.645-.65,42.613,42.613,0,0,0,14.305-7.83c2.592-2.16,4.373-4.05,7.936-8.64a25.145,25.145,0,0,1,9.771,11.94c1.025,2.48,1.619,3.13,2.915,3.13a3.392,3.392,0,0,0,3.292-3.35c0-2.54-1.835-5.51-5.02-8.04a24.408,24.408,0,0,0-10.256-4.81,92.132,92.132,0,0,0,6.963-12.1c1.242-.75,1.728-1.18,1.728-1.67,0-.43-0.324-0.86-1.512-1.84-2.051-1.67-3.347-2.48-3.941-2.48a3.378,3.378,0,0,0-1.889,1.03,6.177,6.177,0,0,1-3.4,1.45Zm59.542,17.17-0.054-4.42-0.108-4.92a19.011,19.011,0,0,1,8.475,7.24,14.985,14.985,0,0,0,1.727,2.54,3.273,3.273,0,0,0,2.484,1.13,2.751,2.751,0,0,0,2.861-2.86c0-1.95-1.782-4.27-4.481-6-2.969-1.89-5.938-2.7-11.012-3.13a38.874,38.874,0,0,1,.755-8.8c0.7-1.62.756-1.73,0.756-2.11a5.128,5.128,0,0,0-1.457-2.48c-1.512-1.57-2.7-2.27-3.887-2.27-1.566,0-4.8,1.51-4.8,2.21a0.36,0.36,0,0,0,.431.38c2.592,0,3.131.7,3.4,4.05,0.108,1.52.378,11.99,0.378,15.61a137.426,137.426,0,0,1-.756,14.36,16.125,16.125,0,0,0-.539,3.03c0,2,2.375,5.4,3.832,5.4,1.35,0,2.43-2.11,2.43-4.86,0-.7-0.054-2.54-0.216-4.75-0.054-.65-0.108-2.43-0.108-4.32Zm46.261-20.73a0.347,0.347,0,0,0-.323.27,7.164,7.164,0,0,0,1.511,2.59,5.712,5.712,0,0,0,4.643,2.05,52.51,52.51,0,0,0,8.907-1.29c2.645-.54,4.318-0.81,6.639-1.08,1.3-.22,1.944-0.6,1.944-1.25,0-1.18-3.131-3.08-5.021-3.08a3.045,3.045,0,0,0-1.457.6,9.544,9.544,0,0,1-2.861,1.08,48.617,48.617,0,0,1-9.663,1.46,5.955,5.955,0,0,1-3.887-1.08A0.549,0.549,0,0,0,839.305,1329.85Zm27.1,14.09a3.757,3.757,0,0,1,1.188-.7,1.684,1.684,0,0,0,.648-0.38,0.99,0.99,0,0,0,.216-0.59c0-.49,0-0.49-1.188-1.68-2.429-2.43-3.347-3.07-4.1-3.07a5.585,5.585,0,0,0-2.106.75,13.369,13.369,0,0,1-4.156,1.3,139.075,139.075,0,0,1-16.735,2.21c-2,0-3.941-.75-4.534-1.78a0.668,0.668,0,0,0-.486-0.49c-0.324,0-.486.44-0.486,1.3,0,2.43,2.969,5.56,5.29,5.56,0.378,0,.378,0,2.106-0.81,2.645-1.29,13.441-3.67,16.572-3.67,1.134,0,1.781.32,1.781,0.97,0,0.54-.323,1.46-1.457,4.11-2.321,5.4-4.1,8.2-7.072,11.44-4.21,4.54-10.2,8.32-15.385,9.62a0.582,0.582,0,0,0-.593.48,0.483,0.483,0,0,0,.593.43,29.874,29.874,0,0,0,8.152-1.83,38.877,38.877,0,0,0,14.089-10.1C861.33,1353.99,863.273,1350.64,866.4,1343.94Zm29.96-12.74c-1.944,0-3.293.27-3.293,0.7,0,0.16.162,0.27,0.594,0.38,2.753,0.81,6.585,4.37,7.881,7.23,0.756,1.62,1.241,2.06,2.321,2.06a2.979,2.979,0,0,0,2.969-2.87C906.836,1334.98,901.6,1331.2,896.364,1331.2Zm34.656,0.16a1.463,1.463,0,0,0-.81.65c-3.293,4.37-11.12,11.93-18.192,17.49-5.884,4.65-10.9,7.29-13.819,7.29a4.363,4.363,0,0,1-3.185-1.29c-0.27-.54-0.324-0.54-0.486-0.54-0.432,0-.756,1.02-0.756,2.16,0,1.19.756,2.32,2.808,4.26,1.565,1.46,2.915,2.27,3.778,2.27a1.547,1.547,0,0,0,.756-0.32c0.378-.27.7-0.6,1.026-0.87a6.7,6.7,0,0,1,1.025-.7,80.949,80.949,0,0,0,23-20.9c2.267-3.07,5.236-8.26,5.236-9.12A0.463,0.463,0,0,0,931.02,1331.36Zm55.655,6.32c-1.458,0-2.375.27-2.375,0.65a0.713,0.713,0,0,0,.485.48,8.9,8.9,0,0,1,4.859,3.78c0.755,1.41.863,1.46,1.727,1.46a2.351,2.351,0,0,0,2.483-2.11C993.854,1339.78,990.346,1337.68,986.675,1337.68Zm-6.748,3.4c-0.81,0-1.3.16-1.3,0.49a0.526,0.526,0,0,0,.324.37,7.835,7.835,0,0,1,4.157,4.16c0.648,1.57.918,1.84,2.051,1.84a2.2,2.2,0,0,0,2.267-1.89C987.43,1343.62,983.544,1341.08,979.927,1341.08Zm5.722-14.53c-1.188.65-1.4,0.7-8.259,2.7-7.018,1.79-12.2,3.24-18.462,5.13-3.185,1.03-4.373,1.3-5.56,1.3a4.683,4.683,0,0,1-4-2.16c-0.27-.54-0.27-0.59-0.486-0.59-0.162,0-.27.16-0.27,0.43a8.744,8.744,0,0,0,.648,3.56c0.918,1.95,3.725,4.05,5.452,4.05a2.161,2.161,0,0,0,1.35-.54,43.286,43.286,0,0,1,8.043-4.43c3.725-1.62,8.205-3.13,9.5-3.13a0.257,0.257,0,0,1,.27.16,2.512,2.512,0,0,1-.54.65,29.436,29.436,0,0,0-5.992,9.45,34.3,34.3,0,0,0-2.213,11.23c0,6.16,2.429,10.16,7.395,12.05a28.91,28.91,0,0,0,9.825,1.83c2.915,0,4.427-.92,4.427-2.7,0-1.73-1.836-3.78-3.347-3.78a0.624,0.624,0,0,0-.324.06,32.052,32.052,0,0,1-4.265.37c-6.046,0-9.015-3.18-9.015-9.61a35,35,0,0,1,2.16-12.15,12.53,12.53,0,0,1,6.046-6.96c1.781-.87,3.724-1.19,7.179-1.19a20.466,20.466,0,0,1,4.049.43,8.867,8.867,0,0,0,1.08.11,1.676,1.676,0,0,0,1.727-1.57c0-.97-0.81-2.05-2.429-3.13A6.873,6.873,0,0,0,985.649,1326.55Zm48.2,15.66a5.46,5.46,0,0,0-1.67-.27c-3.62,0-6.53,4-6.53,9.02,0,4.43,2.7,8.05,5.99,8.05a3.947,3.947,0,0,0,2.65-1.03c-1.08,5.89-4.92,10.32-10.91,12.58a0.461,0.461,0,0,0-.43.38,0.423,0.423,0,0,0,.49.27c1.51,0,5.77-1.4,7.82-2.54,5.94-3.34,8.69-8.64,8.69-16.52,0-4.37-.48-6.16-2.32-8.21-0.05-.54-0.11-0.86-0.11-1.13,0-1.19.06-2.38,0.17-4.11,0.05-.21.05-0.81,0.1-1.56,2.22-.16,3.19-0.22,4.43-0.22a41.41,41.41,0,0,1,9.39,1.08,5.023,5.023,0,0,0,1.35.22,1.924,1.924,0,0,0,1.79-1.78,3.393,3.393,0,0,0-1.14-2.16,6.665,6.665,0,0,0-3.18-1.41,20.814,20.814,0,0,1-1.14.11,13.057,13.057,0,0,1-5.88-1.89,1.583,1.583,0,0,0-.76-0.43,0.344,0.344,0,0,0-.32.32,1.342,1.342,0,0,0,.49.65c0.59,0.76,1.13,1.46,1.61,2.11-1.4.21-2.32,0.32-2.8,0.37-0.92.17-2.11,0.33-3.62,0.54,0.32-4.59.38-5.23,1.03-6.91a3.736,3.736,0,0,0,.37-1.03c0-1.62-3.72-4.42-5.83-4.42-1.24,0-3.67.81-3.67,1.24a0.271,0.271,0,0,0,.33.21c3.07,0.49,3.24,1.03,3.51,11.45-5.83.92-6.7,1.08-9.29,1.52-8.58,1.51-8.58,1.51-9.5,1.51a5.781,5.781,0,0,1-4.64-2.16c-0.16-.22-0.16-0.22-0.27-0.22a0.35,0.35,0,0,0-.33.43,8.127,8.127,0,0,0,1.57,4.27,7.483,7.483,0,0,0,4.43,2.59,3.463,3.463,0,0,0,1.35-.54c3.45-1.94,9.87-3.89,16.68-5.13,0.1,2.27.1,3.03,0.1,3.73v1.02Zm-2.16,1.73a2.175,2.175,0,0,1,1.79,1.78,13.158,13.158,0,0,1,.21,2.76c0,4.75-.75,7.18-2.21,7.18-1.73,0-3.08-2.38-3.08-5.45C1028.4,1346.86,1029.91,1343.94,1031.69,1343.94Z" transform="translate(-551.844 -961.25)"/>
</svg>
