<svg xmlns="http://www.w3.org/2000/svg" viewBox="0 0 632.45 121.41"><defs><style>.cls-1{fill:#343434;}</style></defs><title>catch-copy</title><g id="Layer_2" data-name="Layer 2"><g id="Layer_1-2" data-name="Layer 1"><path class="cls-1" d="M65.77,16c-.59,0-2.32.05-4.86.11-.7.05-2.86.1-5.13.16l-.65-1.84c6.54.16,7.29.22,10.64.27H76.14V.65L80.89,1A1.12,1.12,0,0,1,82,1.89a1.29,1.29,0,0,1-.65,1l-1.56,1V14.74H93.1L96.55,11l4.54,3.51a1,1,0,0,1,.43.81c0,.49-.27.76-.65.76h-21a41.53,41.53,0,0,0,23.65,21.87c-2.27,1.24-2.76,1.62-4.75,4.21-9.83-6.91-14.15-12-19-22.68V47.36a1.09,1.09,0,0,1-.54,1.08,8.61,8.61,0,0,1-2.54.54c-.38,0-.54-.22-.54-.6V22.25A68.91,68.91,0,0,1,62,38.39c-3.35,2.81-7.34,5.51-8.1,5.51a.58.58,0,0,1-.54-.54c0-.32.65-.92,2.49-2.37,7.34-5.94,15.33-16.47,18.9-25Z"/><path class="cls-1" d="M138.67,11.29a50.06,50.06,0,0,1,.76,6.31c0,5.19-2.38,11.4-6.32,16.47-3,3.84-5.83,5.78-8.48,5.78a4.74,4.74,0,0,1-3.62-2,11.82,11.82,0,0,1-2.7-8.15c0-11,9.51-20,21.17-20,10.26,0,17.39,6.42,17.39,15.71,0,8.21-4.86,14.85-13.07,17.82a31.07,31.07,0,0,1-7.13,1.73c-.32,0-.64-.22-.64-.49,0-.11.16-.21.86-.38a23.78,23.78,0,0,0,9.83-5.13c3.78-3.18,5.94-8.53,5.94-14.47,0-4.75-1.51-8.26-4.43-10.53a13.91,13.91,0,0,0-8.1-2.7h-.49a2.9,2.9,0,0,0-.54.06ZM121.39,29.86c0,3.89,1.46,6.75,3.4,6.75,2.27,0,6.48-4.21,9-9,2.05-3.94,3.67-9.34,3.67-12.25a10.56,10.56,0,0,0-.65-3.46l-.16-.38A18.47,18.47,0,0,0,121.39,29.86Z"/><path class="cls-1" d="M187.65,9.77l1.13.49-7.61,22.36a11.42,11.42,0,0,0-.76,4.15,25.21,25.21,0,0,0,.71,5.94,13.14,13.14,0,0,1,.32,2.38,2.92,2.92,0,0,1-2.75,3.08c-1.41,0-2.22-1-2.22-2.7,0-.27,0-.27.49-4a12.08,12.08,0,0,0,.16-1.94c0-2.76-1.4-4.43-3.94-4.65V33.7A20.49,20.49,0,0,1,177,34Zm-13.82,3.89c4.26.87,7.07,3.24,7.07,6a2.55,2.55,0,0,1-2.21,2.7,1.6,1.6,0,0,1-1.35-.87c-.17-.21-.17-.21-.81-3a9.44,9.44,0,0,0-3-4.43Zm3.45-12.09c4.7.54,7.72,3,7.72,6.37a2,2,0,0,1-2.1,2.1c-1.19,0-1.35-.21-2.22-3.29a7.53,7.53,0,0,0-3.51-4.64Zm5.35,44.17c2.75.11,3.13.16,5.51.21V27.81l3.67,1.89h20.57l1.51-2.21,3.24,3.18a1.5,1.5,0,0,1,.49.81c0,.22-.27.54-.65.7l-1.19.49V46h.6l2.75-3.67,3.13,3.3a1.47,1.47,0,0,1,.49,1,.64.64,0,0,1-.65.7H189.59c-3.83.11-5.13.16-6.42.16Zm12.31-41h15.55l1.89-2.27,3.19,3.14a1.69,1.69,0,0,1,.38.75c0,.43-.27.7-.76.87l-.86.27V23.65c0,.49-.17.76-.87,1.08a3.56,3.56,0,0,1-1.56.49c-.49,0-.87-.27-.87-.6V22.3H194v2.76c0,.7-.11.91-.92,1.18a4.76,4.76,0,0,1-1.62.38c-.48,0-.64-.27-.64-.81V2.38ZM196.29,46V31h-4.91V46ZM211,12.8V6.05H194V12.8ZM211,21V14.09H194V21ZM204.34,46V31h-4.92V46Zm8.15,0V31h-5.08V46Z"/><path class="cls-1" d="M253.42,30.19a7.41,7.41,0,0,0,2.81-.44,2.64,2.64,0,0,1,.49-.16,4.91,4.91,0,0,1,1.51,1.14,1.67,1.67,0,0,1,.65,1.24c0,.92-.76,1.46-2.11,1.46a29.09,29.09,0,0,1-5.72-.49,23.61,23.61,0,0,0-.11,2.59c0,5.29,2.81,8.43,7.56,8.43,4.48,0,7.23-2.65,7.23-6.86a14.3,14.3,0,0,0-2.86-8.53,34.37,34.37,0,0,0-3.78-3.84c-.27-.16-.38-.27-.38-.38s.22-.27.44-.27c.54,0,2.48,1.19,4.15,2.54,4.11,3.4,6.27,7.24,6.27,11.23,0,5.46-4.16,9.18-10.32,9.18a11.55,11.55,0,0,1-7.5-2.64c-2-1.78-3-4.32-3-7.89a21.84,21.84,0,0,1,.32-3.94c-3.72-1-5.56-2.54-5.56-4.8a6.42,6.42,0,0,1,2.81-4.86,32.32,32.32,0,0,1,5.18-3.24c.11-.6.11-.71.27-1.35-4.1-1.14-5.18-1.68-6.8-3.46a4.25,4.25,0,0,1-1-3c0-.43.16-.59.43-.59s.27.05.33.32c.11,1.3,3,2.86,7.61,4.16.11-.65.27-1.35.38-2,.11-.54.22-1,.32-1.52a21.21,21.21,0,0,0,.6-3.83c0-2.32-1-3.62-3-4-.16-.05-.21-.11-.21-.22C250.4,3.78,252.18,3,253,3A8.91,8.91,0,0,1,256.77,5c1.3,1,1.78,1.78,1.78,2.64,0,.71-.21,1.3-1.35,3.62-1,2-1.46,3-2.37,5.08a9,9,0,0,0,2.1.21,1.7,1.7,0,0,1,1.57.71,3.17,3.17,0,0,1,.75,1.78c0,.7-.32.86-1.67.86a13.21,13.21,0,0,0-4.43.76,82.07,82.07,0,0,0-1.83,9.45C252.34,30.13,252.83,30.19,253.42,30.19Zm-2.21-8.43c-3.51,2.22-4.92,3.73-4.92,5.46,0,1.35.87,2,3.3,2.53C249.86,28.19,250.72,23.92,251.21,21.76Z"/><path class="cls-1" d="M306,19a18.5,18.5,0,0,0-2.86,8.81,7.69,7.69,0,0,0,.49,2.8c.21.44.21.44.21.71A2.11,2.11,0,0,1,302,33.59c-1.78,0-3.18-3.78-3.18-8.75a39.34,39.34,0,0,1,1.89-11.61c1.08-4,1.4-5.4,1.4-6.21,0-1.46-1.73-2.92-3.46-3-.32,0-.43,0-.43-.16,0-.43,1.95-1,3.19-1a5.78,5.78,0,0,1,3.89,1.62c1,.87,1.45,1.57,1.45,2.11,0,.75-.16,1.13-1.13,2.48-2.11,2.86-4.37,9.72-4.37,13.23,0,.6.21,1,.59,1s.65-.27.92-1a25.61,25.61,0,0,1,3.08-5.61c1.89-2.54,4.1-4,6.31-4,4.65,0,7.29,5.13,7.29,14,0,8.7-3.83,15.39-10.9,19a22.48,22.48,0,0,1-7.24,2.32c-.49,0-1-.37-1-.75,0-.16.17-.22.44-.27a15.16,15.16,0,0,0,7.77-3.46c4.75-3.89,7.13-9.93,7.13-17.87,0-7.08-1.4-10.75-4.16-10.91C309.58,14.74,307.53,16.31,306,19Z"/><path class="cls-1" d="M368.12,19.93c2.64-3,5.94-4.65,9-4.65,3.72,0,6.53,2.16,6.53,5A3.07,3.07,0,0,1,382.32,23c-1.08.81-1.46,1-6.21,2.87a96,96,0,0,0-11.07,5c.22,2.81.27,4.1.27,4.8,0,2.54-.54,3.24-2.59,3.24-.6,0-.92-.21-.92-.54a1.9,1.9,0,0,1,.05-.43,39.35,39.35,0,0,0,.22-5.56c-4.54,2.75-6.26,4.75-6.26,7.07,0,2.6,2.48,3.62,8.53,3.62a29,29,0,0,0,7.61-.92,4.59,4.59,0,0,1,1.35-.27c1.08,0,2.49,1.19,2.49,2.11,0,1.73-3.41,2.59-10.48,2.59-3.94,0-6.32-.43-8.48-1.56a6.14,6.14,0,0,1-3.56-5.24c0-2.27,1.4-4.21,4.59-6.37.86-.6.86-.6,4.16-2.54,0-3.62-.17-5.35-.65-6.59a2.65,2.65,0,0,0-2.43-1.78c-2.05,0-5.56,3.24-8.16,7.5-.59,1-1.13,1.46-1.72,1.46-.76,0-1.79-1.73-1.79-3,0-.7.22-1,1.25-1.89,5.5-4.7,9.07-9.94,10-14.69a17.64,17.64,0,0,1-4.54.86,3.1,3.1,0,0,1-2.65-1.83,7.56,7.56,0,0,1-.81-2,.24.24,0,0,1,.17-.22c.1,0,.16.11.27.22a3.38,3.38,0,0,0,3.07,1.4,13.54,13.54,0,0,0,4.76-.86A10.08,10.08,0,0,0,358.94,8a2.51,2.51,0,0,0-2.49-2.81c-.16,0-.21,0-.21-.21,0-.49,1.73-1.3,2.7-1.3,1.67,0,3.45,1.62,3.45,3.08A5.82,5.82,0,0,1,362,8.69,7,7,0,0,0,365.31,7c1.73.86,2.27,1.24,2.27,1.62,0,.64-1,1.08-6.05,2.53a58.88,58.88,0,0,1-5.94,11.07,8.56,8.56,0,0,1,3.46-.91,4.79,4.79,0,0,1,3.83,1.78,8.55,8.55,0,0,1,1.4,3.08A23.74,23.74,0,0,1,368.12,19.93Zm3.56,5.45c6-3.35,6-3.35,6.64-3.89a2.77,2.77,0,0,0,1-1.83c0-1.3-1.57-2.6-3.13-2.6-2.05,0-4.54,1.35-6.59,3.57A27.4,27.4,0,0,0,365,28.78c-.06.11-.06.11-.11.43C366.5,28.24,366.5,28.24,371.68,25.38Z"/><path class="cls-1" d="M408.51,7.88h18.63c-.43-3.45-.49-4-.76-7.88l4.32.27c1.08,0,1.62.38,1.62.92a1.54,1.54,0,0,1-.7,1.13l-1.51,1.19a33,33,0,0,0,.27,4.37h9.5l3-3.56,4.53,3.83a.7.7,0,0,1,.22.49.54.54,0,0,1-.54.54H430.49c.43,5.4,1.56,10.31,2.86,12.85a61.15,61.15,0,0,0,5-9.18l3.62,2.32a1.33,1.33,0,0,1,.48,1c0,.59-.43,1-1.13,1.08l-1.24.16A58.61,58.61,0,0,1,434.7,25a14.46,14.46,0,0,0,8.86,6.21,7.24,7.24,0,0,0,1.18-2.27l1.84-4.32.81.16-.76,4.59a10.59,10.59,0,0,0-.1,1.14c0,1.13,0,1.18,1.4,3a1.79,1.79,0,0,1,.27.91c0,.54-.76.92-1.84.92a17.81,17.81,0,0,1-9.28-3.35,19,19,0,0,1-4.54-4.59c-3.13,3.08-7.18,6.21-8,6.21a.48.48,0,0,1-.49-.48c0-.27,0-.27,1.68-1.84a47.64,47.64,0,0,0,5.45-6.15c-2.32-5.08-2.92-7.56-3.94-15.88h-19.5c.06,2.38.11,3.67.11,5.24,0,7.4-1,12.2-3.56,16.58-1.57,2.64-4,5.61-4.59,5.61a.37.37,0,0,1-.38-.38c0-.32.11-.48.76-1.56a30.55,30.55,0,0,0,3.67-10,58.88,58.88,0,0,0,.7-10.47c0-2.16-.06-4.38-.16-8.43Zm-1.67,27.54a13.81,13.81,0,0,1,.48,3.51c0,4.7-2.1,8.43-4.7,8.43a1.84,1.84,0,0,1-1.78-1.78c0-.76,0-.76,2.76-3.95,1.34-1.62,1.83-2.75,2.64-6.1ZM423,11.34l3.51,3.13a.59.59,0,0,1,.27.49c0,.27-.17.43-.49.43H416.18c-1.41,0-1.41,0-6.81.16l-.43-1.67c3.62.16,6.05.21,7.24.21h4.37Zm-8.81,8.37h6.86l1.3-2.11,3.29,3a1.06,1.06,0,0,1,.33.65.72.72,0,0,1-.33.54l-1.24.6V29.7c0,.54-.22.81-.81,1.08a7.14,7.14,0,0,1-1.4.38.61.61,0,0,1-.65-.6V28.13h-8v2.7c0,.76-1.25,1.52-2.38,1.52-.38,0-.54-.33-.54-.92V17.71Zm20.42,17.82-.38,4.37L434.16,43c0,.6.16.76,1.46,1.73.32.22.54.49.54.65a2.43,2.43,0,0,1-1.46,1.73c-1.35.48-5.24.75-11.12.75-4.59,0-8.1-.27-9.18-.64a2.62,2.62,0,0,1-1.95-2.54V34.24l3.57.27c1.08.05,1.67.43,1.67,1.13a1.15,1.15,0,0,1-.76,1l-1.24.64v5.24c.06,1.3.16,1.62.65,1.84a6.24,6.24,0,0,0,1.51.32h3.73l3.4.06,4.59-.11c1.73-.16,2.21-.65,3-3.3l1-4ZM421.58,26.84V21h-8v5.83Zm-2,6.37a12.1,12.1,0,0,1,5.13,1.57c1.94,1.18,3.13,2.8,3.13,4.42A2.15,2.15,0,0,1,426,41.53a1.72,1.72,0,0,1-1.35-.65c-.21-.22-.21-.22-1.19-2.59-.64-1.62-1.62-2.81-3.88-4.59Zm14-32.35c4.21.6,6.53,2.11,6.53,4.22A1.75,1.75,0,0,1,438.48,7c-.7,0-1.19-.38-1.67-1.3a8.12,8.12,0,0,0-3.46-4Zm4.1,34.73c3.24,1.35,4.1,1.83,5.51,3,2.64,2.1,4.05,4.32,4.05,6.31A2,2,0,0,1,445.34,47c-.92,0-1.41-.64-2.16-2.59a19.52,19.52,0,0,0-5.78-8Z"/><path class="cls-1" d="M501.61,34.72c0,.87-1.25,2.81-3,4.81-4.05,4.53-8.81,6.86-14.21,6.86-3.67,0-6.64-1.14-8.64-3.3-2.21-2.32-3.13-5.34-3.13-10.1,0-3.13,0-3.45,1.08-17.28.33-4.37.33-4.37.33-5,0-3.24-.81-4.75-2.54-4.7-.33,0-.49-.1-.49-.27,0-.54,1.08-1,2.27-1,2.65,0,5.18,3,5.18,6.21,0,.75,0,.75-.75,3.94a107.49,107.49,0,0,0-2.22,17.77c0,7.29,2.87,10.53,9.35,10.53A19.62,19.62,0,0,0,496.26,39a21.88,21.88,0,0,0,4.37-4.21c.22-.38.44-.54.6-.54A.44.44,0,0,1,501.61,34.72Zm-7.67-17.55A1.87,1.87,0,0,1,492.16,19c-.54,0-.76-.16-1.19-1a9,9,0,0,0-5.24-4.16c-.27-.05-.38-.1-.38-.21s.92-.38,2-.38C490.48,13.23,493.94,15.28,493.94,17.17ZM500,14.8a2,2,0,0,1-1.89,1.89c-.6,0-.81-.17-1.41-1.25a9.23,9.23,0,0,0-5.45-4.21c-.16-.05-.27-.11-.27-.21,0-.27.86-.44,2-.44C496.42,10.58,500,12.74,500,14.8Z"/><path class="cls-1" d="M551.83,38a10.71,10.71,0,0,0,1.56-5.67c0-5.13-2.86-8-8-8s-8.59,1.89-12,6.48a24.4,24.4,0,0,0-3.3,5.4,2.08,2.08,0,0,1-1.89,1.4C527.26,37.58,526,36,526,35c0-.59.43-1.24,1.46-2.32,6.69-6.91,7.34-7.67,14.74-17.5,3-3.88,3-3.94,3-4.75a1.09,1.09,0,0,0-1.13-1.19c-1.62,0-3,.76-8.21,4.38a3.48,3.48,0,0,1-1.94.92c-1.73,0-3.4-2.16-3.4-4.32,0-1,.1-1.25.43-1.25.11,0,.16.06.21.44a1.9,1.9,0,0,0,2,1.35c2.16,0,8.48-2.27,10.69-3.78a2.54,2.54,0,0,1,1.79-.65c2.1,0,5.77,2.48,5.77,3.94a1.19,1.19,0,0,1-.81,1.13c-2.26,1-5,3.41-9.39,8.32C538.76,22.46,538,23.49,538,24c0,.16.16.43.32.43a1,1,0,0,0,.27-.11,10.69,10.69,0,0,0,1.57-.65A19.1,19.1,0,0,1,547,22.36c6.1,0,10.47,4.21,10.47,10a10.9,10.9,0,0,1-3.89,8.53,18.26,18.26,0,0,1-11.23,3.89c-4.48,0-7.61-2-7.61-5,0-2.43,2-4,5.07-4a7.94,7.94,0,0,1,6.11,2.75c.54.59.54.59,1.45,2.54a2.67,2.67,0,0,1,.17.38A8.94,8.94,0,0,0,551.83,38Zm-12.05-.43c-1.45,0-2.43.81-2.43,2,0,1.73,1.95,2.86,5,2.86a8,8,0,0,0,1.46-.1,1.19,1.19,0,0,0,.43-.06C543.62,39.1,542.16,37.53,539.78,37.53Z"/><path class="cls-1" d="M11.45,94.9c3.4,0,4.86-.49,6.37-2.16,1.24-1.35,1.89-3.51,1.89-6.21,0-5-2.43-7.78-6.86-7.78-3.24,0-6.26,1.89-6.26,3.94a5.92,5.92,0,0,0,.16,1.19,6.85,6.85,0,0,1,.16,1.35A2.58,2.58,0,0,1,4.27,88c-1.62,0-2.7-1.24-2.7-3.13,0-2,1.18-3.94,3.56-5.61a13.37,13.37,0,0,1,8.26-2.33,11.65,11.65,0,0,1,7.72,2.33,8.7,8.7,0,0,1,3.51,7.18,9,9,0,0,1-3.4,7.29C20,94.57,19,95,15.82,96.08c6.1.81,9.61,4.54,9.61,10.21,0,6.53-5.23,10.8-13.23,10.8a14.32,14.32,0,0,1-7.12-1.57C2,113.9,0,111.1,0,108.4c0-2.11,1.3-3.62,3.19-3.62a2.78,2.78,0,0,1,2.8,3c0,.76,0,.76-.75,2.59a2.66,2.66,0,0,0-.16.81c0,2.06,3.29,4,6.75,4a8.87,8.87,0,0,0,6.37-2.48,9.44,9.44,0,0,0,2.05-6.38c0-5.83-3.4-9.45-8.86-9.45l-4.1,0V94.9Z"/><path class="cls-1" d="M48.06,117.41c5.67.27,8,.33,10.64.33H70.58v-8.1H63c-2.1,0-3.94,0-8.58.21l-.76-1.72c4.81.16,6.7.21,9.34.21h7.62v-7.5c-1.3.16-2.59.27-3.89.37-2.43.17-4.37.33-5.51.44s-2.59.21-3.83.27l-.7,1.08a1.48,1.48,0,0,1-1,.75c-.27,0-.54-.21-.86-.81l-2.59-4.43c2.27.06,4.16.11,5.18.11,1.78,0,1.78,0,6.21-.11a70.85,70.85,0,0,0,3.51-9.18H62.75c-2,0-3.3.06-6.48.17l-.76-1.68c3.62.16,4.81.22,7.24.22H79.92l3-3.46,4.49,3.24a.86.86,0,0,1,.32.76c0,.43-.16.75-.43.75H72.2c-3,4.43-3.4,5.08-6.37,9.18l5.07-.05c7-.11,7.4-.11,13.5-.54a32.76,32.76,0,0,0-7.18-5.24l.43-.75c5.62,1.78,7.94,2.7,9.94,3.94,2.7,1.56,4.75,4.26,4.75,6.15a2,2,0,0,1-1.89,2.11c-.7,0-1-.22-1.57-1a38.66,38.66,0,0,0-3.13-3.89c-5.61.7-6.42.81-11.28,1.24v7.83H84.62l2.7-3,4.16,3a.78.78,0,0,1,.32.65c0,.27-.22.65-.38.65h-17v8.1H88.94l3.24-3.62,4.8,3.51a.77.77,0,0,1,.33.65c0,.38-.27.75-.54.75H58.7c-2.38,0-4.48.06-9.72.27Zm6.48-40.55.16.59c.16.6.33,1.19.49,1.84l.05.11h15.5V72.7l4.81.54c.59.06.91.33.91.81a1.37,1.37,0,0,1-.86,1.08l-1.08.65V79.4H88.45l1.73-2.27,5.24,4.27a1.88,1.88,0,0,1,.65,1.35c0,.64-.44,1-1.25,1h-2.7l-5.18,2.91-.38-.43,2.27-5.51H55.46c0,.76.11,1.57.11,2,0,3.51-1.89,6.21-4.27,6.21a2,2,0,0,1-2.21-1.78c0-.76,0-.76,2.7-3.73a8,8,0,0,0,1.62-5.24V76.86Z"/><path class="cls-1" d="M114.48,75.94h7.67l1.4-2.1,4,3.29a1.3,1.3,0,0,1,.54.86c0,.44-.43.76-1.08.76H125.6c-1.94,3.73-2.1,4.1-6.21,11.29,4.86,5.18,6.7,8.91,6.7,13.6,0,3-.59,4.65-2.11,5.94a6,6,0,0,1-3.56,1.57c-.81,0-1.13-.43-1.19-1.4,0-1.3-.16-1.46-1.51-1.79l-2.21-.48v-.87l2.21.06,1.35,0c2.7,0,3.62-1.08,3.62-4.21a15.65,15.65,0,0,0-2.38-8.42,18.63,18.63,0,0,0-2.1-2.92c-.38-.49-.38-.49-.71-1,2.11-5.89,2.92-8.26,4.27-13h-8.15v42.33c0,.6-1.3,1.3-2.33,1.3-.48,0-1-.27-1-.54V73.67Zm18.85,0H146l1.83-2.1,3.62,2.64a1.33,1.33,0,0,1,.65,1c0,.38-.33.71-1,.92l-.92.33V96.89c0,.71-1.18,1.35-2.59,1.35-.54,0-.86-.27-.86-.64V96h-7.67a31.84,31.84,0,0,0,4,9.34,79.43,79.43,0,0,0,9.12-8.58l3.08,2.7a1.5,1.5,0,0,1,.54,1c0,.49-.54.81-1.35.81h-1.67c-4.05,2.22-5.35,2.92-9.24,4.81a30.14,30.14,0,0,0,13.18,9.93c-2.86,2-3,2.06-4.32,3.68-7.62-5-12-12.15-14.53-23.71h-5.18v17.66c4.37-.76,5.18-.92,10.53-2.16l0,.75c-5.94,2.49-8.58,3.57-14.58,5.73l-.65,1.67a.9.9,0,0,1-.75.65c-.22,0-.38-.16-.6-.49L123.39,115c3-.32,3.4-.37,6-.81V73.84Zm13.39,9.24V77.24h-14v7.94Zm0,9.55V86.47h-14v8.26Z"/><path class="cls-1" d="M181.76,97.81a1.07,1.07,0,0,1,.81,1c0,.44-.21.76-.81,1.14l-1.18.75a36.5,36.5,0,0,1-1.25,4.49c3.62,5,5.89,7,10,8.64V91.6h-4.53c-3.84,0-5.24.06-9.61.27l-1-1.89c5.08.27,6.7.33,10.64.33h15.66l3.13-3.41,3.83,2.92a1.43,1.43,0,0,1,.49,1c0,.38-.27.81-.54.81H193.21v10.91h9.51L205.9,99l4,3.13a1.28,1.28,0,0,1,.43,1,.71.71,0,0,1-.81.71H193.21V115a68.92,68.92,0,0,0,9.4.54,125.7,125.7,0,0,0,13.12-.65c-.54.65-1,1.3-1.19,1.46-.75.92-1.24,1.56-1.46,1.83l-.75,1.25c-1.35,0-2.49,0-3.19,0-3.83,0-9.39-.22-12.09-.49A23,23,0,0,1,184,113.69c-1.68-1.51-3-3.24-5.19-6.91a31.28,31.28,0,0,1-4.86,8.69c-1.4,1.78-5.83,5.78-6.15,5.56a1.08,1.08,0,0,0-.38.11,0,0,0,0,1-.05,0,.66.66,0,0,1-.38-.37c0-.17.05-.27.27-.49,5.83-5.94,9-13.55,9.77-23.92Zm-8.2-21.06a11.75,11.75,0,0,1,.81,2.92h15.06V72.54l5.19.59c.59.06.91.38.91.87a1.31,1.31,0,0,1-.7,1.08l-1.62,1v3.62h14.15l2.16-2.22,5.08,4.81a1.43,1.43,0,0,1,.37.92c0,.7-.05.7-1.62,1h-.1l-2.27,0-4.59,2.92-.6-.38L208.06,81H174.58c0,2.92-.05,3.41-.48,4.65-.81,2.27-2.33,3.62-4,3.62a2.11,2.11,0,0,1-2.16-2.06c0-.81.27-1.18,1.72-2.59a8.86,8.86,0,0,0,3.14-6.91V77Z"/><path class="cls-1" d="M252.07,83.29a50.06,50.06,0,0,1,.76,6.31c0,5.19-2.38,11.4-6.32,16.47-3,3.84-5.83,5.78-8.48,5.78a4.74,4.74,0,0,1-3.62-2,11.82,11.82,0,0,1-2.7-8.15c0-11,9.51-20,21.17-20,10.26,0,17.39,6.42,17.39,15.71,0,8.21-4.86,14.85-13.07,17.82a31.07,31.07,0,0,1-7.13,1.73c-.32,0-.64-.22-.64-.49,0-.11.16-.21.86-.38a23.78,23.78,0,0,0,9.83-5.13c3.78-3.18,5.94-8.53,5.94-14.47,0-4.75-1.51-8.26-4.43-10.53a13.91,13.91,0,0,0-8.1-2.7H253a2.9,2.9,0,0,0-.54.06Zm-17.28,18.57c0,3.89,1.46,6.75,3.4,6.75,2.27,0,6.48-4.21,9-9,2.05-3.94,3.67-9.34,3.67-12.25a10.56,10.56,0,0,0-.65-3.46L250,83.5A18.47,18.47,0,0,0,234.79,101.86Z"/><path class="cls-1" d="M295.76,88.74h-4.7c-1.89,5.13-4.37,9.72-5.24,9.72a.43.43,0,0,1-.43-.43,2.56,2.56,0,0,1,.11-.6,53.6,53.6,0,0,0,3.67-18.25l3.56.6c1.41.21,1.89.54,1.89,1.24,0,.43-.05.48-.86,1.08l-1.13.81c-.44,2-.54,2.43-1.14,4.53h4.27V72.38l3.89.32c1.18.06,1.72.43,1.72,1.19,0,.59-.27.86-1.24,1.3l-1.08.48V87.44h2.7l2.92-3.13,3.45,3.08a1.25,1.25,0,0,1,.38.76c0,.43-.27.59-.86.59h-8.59v9.4c3.08-.92,4.86-1.52,9.07-3l.44.7c-1,.43-1.84.92-2.22,1.08-1.46.7-3,1.4-4.48,2.1l-2.81,1.35v19.71c0,.65-1.24,1.3-2.54,1.3-.54,0-.75-.32-.75-.92V101.86c-2.22,1-2.54,1.14-4.7,2l-.76,1.67c-.32.76-.64,1.08-1.08,1.08a1.35,1.35,0,0,1-.91-.54l-3.35-4c4.59-1.08,6.69-1.68,10.8-2.92Zm26.4,3.94h-13c-1.78,0-3.18.06-6.64.16L302,91.17l4.1.16c1.41.06,2.81.06,3.13.06h6.43V82.64h-3.78c-.43,0-1.57,0-3.13.11l-3.51,0-.6-1.67c.22,0,4.11.1,7.24.21h3.78V73.13l3.83.06c1.14,0,1.68.38,1.68,1.19,0,.48-.22.7-.87,1.13l-1.08.65v5.18h5.67l3.3-3.35,3.56,3.14c.38.32.54.54.54.81a.68.68,0,0,1-.7.7H319.19v8.75h9.4l3.08-3.14,3.45,2.92a1.19,1.19,0,0,1,.49.92c0,.38-.22.59-.7.59h-9.24v8.1h2.76l3.13-3.45,3.78,3.34a1.14,1.14,0,0,1,.38.76.71.71,0,0,1-.6.7h-9.45l.06,14.91a2.86,2.86,0,0,1-1.14,2.7,7.67,7.67,0,0,1-2.75,1.08c-.49,0-.86-.54-1-1.46a1.77,1.77,0,0,0-.22-.81,11.18,11.18,0,0,0-1.46-.6l-3.34-1.13v-.65l5.13.06h.43c.75-.06.75-.06.75-1.25V102.13h-10.8c-.54,0-2.05.06-4.26.11-.6.05-2.43.05-4.43.11l-.7-1.84c2.32.06,4.48.11,5.18.16,2.11.06,3.57.11,4.21.11h10.8Zm-14.85,11.13c4.7.91,7.78,3.51,7.78,6.48,0,1.51-.86,2.75-1.89,2.75a1.94,1.94,0,0,1-1.46-.76c-.32-.43-.32-.43-1.24-3.51-1.08-2.53-1.35-2.86-3.4-4.42Z"/><path class="cls-1" d="M353.21,91.55V94c0,.92-.21,1.19-1.08,1.62a3.33,3.33,0,0,1-1.62.43.85.85,0,0,1-.86-1V74.27l3.89,2.37H366l1.51-2.26,3.84,2.75a1.11,1.11,0,0,1,.43.81.81.81,0,0,1-.7.76l-1,.27V93.22a1,1,0,0,1-.76,1.14,7.05,7.05,0,0,1-1.94.48c-.54,0-.81-.32-.81-1V91.55h-5.94c-.38,3.72-.44,4.32-1,8.1h8.26L369,97.49l3.29,2.48c.65.49.92.87.92,1.3a1.35,1.35,0,0,1-1,1.13l-.65.16c-.48,10.86-3.29,17.34-7.56,17.34-1,0-1.24-.22-1.18-1,.1-1,0-1.35-.54-1.57l-4.54-2.16.22-.65,3.61.54a10.26,10.26,0,0,0,1.89.22c2.87,0,4.32-4.65,4.59-14.37h-8.69c-1.73,8.43-5.35,13.56-13.12,18.63-.54.33-.87.49-.92.54a1.57,1.57,0,0,1-.76.33.53.53,0,0,1-.48-.54c0-.27.05-.33,1.46-1.51q11-9.17,11.34-26.84Zm13.4-1.3V77.94h-13.4V90.25Zm15.12,16.8c0,.64-1.41,1.4-2.65,1.4-.49,0-.76-.32-.76-.92V78.1l4.16.81c.65.11,1.08.49,1.08.92a1.45,1.45,0,0,1-.65,1.08l-1.18.81Zm-1,8.31,5,.22.33,0c1.45.11,2.16-.43,2.21-1.62V74.1l4.7.6c.76,0,1.19.43,1.19,1.08a1.16,1.16,0,0,1-.65,1l-1.73,1.14v38.55c0,1.73-.59,2.54-2.48,3.46a7.75,7.75,0,0,1-2.38.81c-.38,0-.54-.22-.59-.76-.22-1.35-.49-1.67-1.62-2.1l-4.27-1.62Z"/><path class="cls-1" d="M416.12,105.53c-1.72,3.14-2.37,3.78-4.05,3.78-1.4,0-2.37-.7-2.37-1.72a2.3,2.3,0,0,1,.92-1.68c3-2.54,8.91-12.47,10.69-18.14a25.43,25.43,0,0,1-5.19.75c-1.94,0-3.4-1-4.48-3.07a7.94,7.94,0,0,1-.81-2.16.25.25,0,0,1,.27-.27c.11,0,.11,0,.27.32a5.66,5.66,0,0,0,4.92,2.43,26.88,26.88,0,0,0,5.94-1,23.05,23.05,0,0,0,.86-5.72c0-1.78-.86-2.59-2.92-2.65a.24.24,0,0,1-.27-.21c0-.49,1.73-1.19,2.87-1.19,2,0,3.78,1.13,3.78,2.43,0,.11-.17.7-.49,1.84,2.86,1.56,3,1.62,3.89,1.67s1.78.65,1.78,1.4c0,1.68-2.65,3.35-7.61,4.86A160.49,160.49,0,0,1,416.12,105.53Zm18-2.26c-.06-1-.06-1.79-.06-2.16,0-5.3,2.16-7.89,7.89-9.45.81-.22,1.13-.54,1.13-1,0-1.24-2.59-2.43-5.4-2.43a7.7,7.7,0,0,0-2.48.33.64.64,0,0,1-.27,0,.41.41,0,0,1-.38-.43c0-.59,2.91-1.51,5-1.51,4.7,0,8.64,2.64,8.64,5.83,0,.92-.49,1.46-1.3,1.46a3.4,3.4,0,0,1-.81-.16,9.47,9.47,0,0,0-3.45-.6c-4,0-6.05,2-6.05,5.83a44,44,0,0,0,.38,4.43c.32,2.86.32,3.19.43,4.86,6.26,2.11,10,4.75,10,7a1.88,1.88,0,0,1-1.94,1.84,2.77,2.77,0,0,1-2.16-1.3,19.65,19.65,0,0,0-5.94-4.7v.49c-.06,2.59-.44,3.67-1.52,5-1.18,1.51-3.29,2.27-6.1,2.27-5,0-8.21-2.22-8.21-5.62,0-3.67,3.41-5.89,9.08-5.89a27.1,27.1,0,0,1,3.56.22Zm-5.24,5.94c-3.08,0-5.13,1.51-5.13,3.78,0,1.83,2.37,3.18,5.45,3.18,2.86,0,4.48-1.35,4.81-4a15.73,15.73,0,0,0,.11-1.94A12.81,12.81,0,0,0,428.87,109.21Zm-3.62-26.73c-.05.21-.22.75-.43,1.51,2.27-.87,3.45-1.62,3.45-2.16,0-.33-.54-.81-2.37-2.11l-.22.92Z"/><path class="cls-1" d="M483.46,104.24c0,2.1.22,6.26.38,7.56a15.77,15.77,0,0,1,.16,1.94c0,1.62-2,3.46-3.83,3.46-.33,0-.49-.22-.49-.65-.11-2.7-2.54-6.21-5.29-7.67a14.45,14.45,0,0,0-2.86,2.49c-.49.48-.81.7-1.19.7-1.46,0-3.78-2.32-3.78-3.67,0-.92.49-1.25,1.78-1.25,3.35-.1,4.27-.32,6-1.45a19.16,19.16,0,0,1,2.1-1.25c2.16-1.18,2.38-1.35,4.75-2.7-.05-.7-.05-1.35-.05-1.51l-.05-3.4V93.76a17.38,17.38,0,0,1-6.43,1.35,2.82,2.82,0,0,1-2.75-1.35,2.55,2.55,0,0,1-.6-1.56c0-1,.16-1.57.43-1.57.11,0,.17.05.17.27.16.86,1.51,1.4,3.45,1.4A13,13,0,0,0,481.09,91c-.11-4.75-.17-6.27-.33-7.51-.27-1.78-.92-2.48-2.37-2.48a1.31,1.31,0,0,0-.49,0,1.71,1.71,0,0,1-.49.06c-.16,0-.21-.11-.21-.27,0-1,1.62-2.22,3-2.22,1.73,0,4.53,1.89,4.53,3.08a4.78,4.78,0,0,1-.27,1,8.23,8.23,0,0,0-.54,2.43,15.19,15.19,0,0,0,5.51,1.62l1.19,0c.54,0,1,.59,1,1.35,0,1.73-2.21,3.13-8.15,5.18-.11,2.32-.11,3.3-.11,4.86,0,.87,0,1.46.05,2.76C489,97.49,493.51,96,497.66,96a8.15,8.15,0,0,1,8.54,8.58c0,6.27-4.49,10.69-10.86,10.69-4.26,0-6.8-2.64-6.8-7.07a10.19,10.19,0,0,1,.48-2.75q.33-1.14.81-1.14c.17,0,.33.11.33.22a2,2,0,0,1-.16.54,13.26,13.26,0,0,0-.27,2.54,5.7,5.7,0,0,0,1.78,3.83,6.3,6.3,0,0,0,3.51,1.13c4.26,0,7.45-3.4,7.45-7.93,0-4.27-2.21-6.65-6.26-6.65-3.68,0-6.86,1.19-12.75,4.7Zm-8.1,3.94c2.27,1.67,2.59,1.89,3.84,2.92.59.54.91.7,1.18.7s.49-.16.65-.54.16-.49.16-4.65c0-.37,0-.75.06-3A42.14,42.14,0,0,0,475.36,108.18ZM487.19,88c0-.27-.16-.38-1.08-.87-1.14-.64-1.35-.75-2.43-1.45a36.72,36.72,0,0,0-.22,4.86C485.73,89.77,487.19,88.79,487.19,88Zm12.09,1.19a7.17,7.17,0,0,1-.75.21.46.46,0,0,1-.38-.38c0-.81,3.73-2,6.26-2a9.44,9.44,0,0,1,6.65,2.49,6.77,6.77,0,0,1,1.83,3.94A2.73,2.73,0,0,1,510.14,96c-.54,0-.65-.22-1-1.89a8.53,8.53,0,0,0-2.48-3.51,7.79,7.79,0,0,0-4.75-1.73A8.17,8.17,0,0,0,499.28,89.23Z"/><path class="cls-1" d="M522.56,94.79c3.94.16,5.5.21,7.23.21h10.1a77.09,77.09,0,0,0,3.67-12.69H531.74c-.7,0-1.89,0-3.24.06l-3.3.11-.7-1.68c4.16.16,5.67.22,7.24.22h5.07V72.81l4.22.43c.86.06,1.24.38,1.24,1,0,.33-.22.65-.7.92l-1.14.65V81H546l2.76-3.24,4,3.08a1.1,1.1,0,0,1,.43.81c0,.37-.27.59-.76.59l-7.34,0,3.13,2.06a.91.91,0,0,1,.38.75c0,.22-.11.38-.38.54l-1.56.81c-2.33,4.38-2.76,5.08-4.86,8.53h4.75l2.91-3.45,4.11,3.24a1.3,1.3,0,0,1,.54.86c0,.43-.38.65-1,.65H529.79c-1.67,0-3.07,0-6.53.16Zm7.07-11.18c4.16,2.11,6.27,4.64,6.27,7.51,0,1.62-1,3-2.11,3a1.48,1.48,0,0,1-1.24-.71c-.33-.48-.33-.48-.6-3.34a11.15,11.15,0,0,0-2.64-5.89Zm3.73,19.06h11l1.35-2,3.24,2.38a1.22,1.22,0,0,1,.65,1,1,1,0,0,1-.65.81l-.91.43v11.45a1.44,1.44,0,0,1-.33,1.08,3.79,3.79,0,0,1-2.43.86c-.48,0-.7-.32-.7-1v-2.1H532.71v3.56c0,1-1,1.57-2.48,1.57a.88.88,0,0,1-.92-.92V100.4Zm11.23,11.61V104H532.71v10.31Zm14.9-37.64h6.65l1.56-2.26,3.94,3.45a1.58,1.58,0,0,1,.54,1c0,.48-.32.81-1,.81l-.87.11-8.1,11.44c7.35,5.3,9.51,8.37,9.51,13.56,0,3.13-.7,5.13-2.38,6.8a4.61,4.61,0,0,1-3.51,1.57c-.65,0-.92-.54-.86-1.73,0-.86-.16-1.08-1.3-1.46l-3.45-1.19,0-.91,3.46.16.48,0c2.49.16,3.73-1.29,3.73-4.37,0-4.11-1.89-7.35-7.18-12.37l5.72-13.39h-7.88v41c0,1.13-.87,1.73-2.43,1.73-.81,0-1.08-.27-1.08-1.08V74.1Z"/><path class="cls-1" d="M593.41,76.21h29.43l1.72-2.11L628.29,77a1.13,1.13,0,0,1,.49.81c0,.33-.17.54-.6.81l-1.08.54v6.43c0,.65-1.4,1.35-2.59,1.35-.54,0-1-.27-1-.7V85h-30.4l-.11,6.1h27.75l3.08-3.29,4,3c.38.32.59.59.59.86a.75.75,0,0,1-.81.76H609.55L604.26,100,620,99.16a45,45,0,0,0-6.48-4.43l.6-.64a43.16,43.16,0,0,1,8.21,3.29c3.56,1.94,5.94,4.48,5.94,6.26a2.1,2.1,0,0,1-2,2c-.75,0-1.29-.43-2.21-1.78a25,25,0,0,0-2.76-3.4l-9,1.4v7h8l3-3.35,4,3.19a1.29,1.29,0,0,1,.54.92.51.51,0,0,1-.54.54h-15v7.34h11.88l3.34-3.78,4.54,3.67c.27.22.38.38.38.6,0,.43-.27.81-.6.81h-32.5c-1.08,0-2.81.05-4.86.11l-5,.16-.81-2c6,.27,8.21.33,10.64.33h9.18v-7.29h-5.19c-2.27,0-4.1,0-8.48.21l-.86-1.78c2.27.06,4.27.11,5,.16,2.27.06,3.83.11,4.37.11h5.19V102.4l-9.78,1.08-.75.87a1.91,1.91,0,0,1-1,.59c-.27,0-.59-.27-.92-.81l-2.1-3.67,8.47-.33,2.65-7.77H593c-.32,8.26-1.24,13.23-3.29,17.76-1.84,3.95-5.4,8.81-6.48,8.81-.22,0-.32-.17-.32-.38s0-.16,1.78-3.19c3.18-5.34,4.59-13.77,4.59-27.54,0-1.89,0-1.89-.43-14Zm30.13,7.45V77.51h-30.4v6.15Z"/></g></g></svg>