<svg xmlns="http://www.w3.org/2000/svg" width="240.44" height="33.44" viewBox="0 0 120.22 16.72">
  <defs>
    <style>
      .cls-1 {
        fill: #eee;
        fill-rule: evenodd;
      }
    </style>
  </defs>
  <path id="料理長の想い" class="cls-1" d="M1869.16,3327.64a0.318,0.318,0,0,0,.36.36,2.767,2.767,0,0,0,.82-0.16,0.406,0.406,0,0,0,.35-0.43v-6.81a3.382,3.382,0,0,1,.83,1.35,2.25,2.25,0,0,0,.41,1.01,0.542,0.542,0,0,0,.41.18,0.778,0.778,0,0,0,.69-0.9c0-.95-0.85-1.65-2.34-1.94v-1.26h3.04a0.265,0.265,0,0,0,.31-0.24,0.379,0.379,0,0,0-.15-0.25l-1.17-1.19-0.97,1.19h-1.06v-6.07l0.5-.37a0.35,0.35,0,0,0,.16-0.29,0.3,0.3,0,0,0-.32-0.27l-1.87-.13v7.13h-1.01c-1.35-.03-2.04-0.05-2.41-0.07l0.34,0.61c1.6-.05,1.69-0.05,2.07-0.05h0.99a16.439,16.439,0,0,1-3.12,6.39,0.611,0.611,0,0,0-.14.29,0.1,0.1,0,0,0,.11.09,5.435,5.435,0,0,0,1.35-1.06,15.9,15.9,0,0,0,1.82-2.13v5.02Zm-3.05-14.26a0.087,0.087,0,0,0-.1.09,0.449,0.449,0,0,0,.09.2,5.6,5.6,0,0,1,.81,3.1c0.01,0.74.19,0.99,0.64,0.99a1.008,1.008,0,0,0,.9-1.21,3.279,3.279,0,0,0-1.42-2.55A3.35,3.35,0,0,0,1866.11,3313.38Zm8,1.01a0.416,0.416,0,0,0,.21-0.36,0.364,0.364,0,0,0-.21-0.32l-1.57-.87a23.914,23.914,0,0,1-1.19,3.95,2.419,2.419,0,0,0-.28.72,0.116,0.116,0,0,0,.12.12,12.409,12.409,0,0,0,2.47-3.02Zm-2.11,10.09c1.17-.36,1.51-0.45,2.54-0.74l3.6-.96v4.65a0.335,0.335,0,0,0,.42.34,2.322,2.322,0,0,0,.77-0.14,0.445,0.445,0,0,0,.38-0.47v-4.79l3.13-.87a0.149,0.149,0,0,0,.13-0.14,0.462,0.462,0,0,0-.2-0.31l-1.51-1.24-0.8,1.87-0.75.22v-9.29l0.38-.25a0.39,0.39,0,0,0,.19-0.34,0.338,0.338,0,0,0-.36-0.35l-1.78-.16v10.79l-3.78.99c-0.97.27-1.44,0.38-2.75,0.66Zm2.27-6.47a0.1,0.1,0,0,0-.11.09,0.309,0.309,0,0,0,.15.16,3.059,3.059,0,0,1,1.18,2.22c0.13,0.63.31,0.84,0.74,0.84a0.859,0.859,0,0,0,.87-1.02,1.869,1.869,0,0,0-1.19-1.75A4.9,4.9,0,0,0,1874.27,3318.01Zm0.61-4.03c-0.11,0-.18.03-0.18,0.09a0.342,0.342,0,0,0,.16.21,2.979,2.979,0,0,1,1.1,2.06c0.13,0.63.29,0.84,0.7,0.84a0.89,0.89,0,0,0,.92-1,1.858,1.858,0,0,0-1.06-1.66A4.372,4.372,0,0,0,1874.88,3313.98Zm15.82,4.43h2.58a0.277,0.277,0,0,0,.25-0.25,0.4,0.4,0,0,0-.2-0.31l-1.2-1.06-1,1.13h-0.43v-4.19h2.74a0.225,0.225,0,0,0,.2-0.24,0.344,0.344,0,0,0-.13-0.25l-1.31-1.15-0.96,1.15h-2.14c-0.61,0-1.12-.02-2.39-0.07l0.36,0.61c0.97-.04,1.11-0.04,2.12-0.05v4.19c-1.03-.02-1.21-0.02-2.41-0.07l0.39,0.61c0.94-.03,1.08-0.03,2.02-0.05v4.66c-0.85.16-1.17,0.22-2.72,0.42l1.12,1.89a0.352,0.352,0,0,0,.32.16,0.434,0.434,0,0,0,.42-0.27l0.19-.61a42.258,42.258,0,0,0,4.65-1.89c0.83-.4.99-0.49,0.99-0.62a0.192,0.192,0,0,0-.22-0.18,1.268,1.268,0,0,0-.28.06c-1.43.38-2.35,0.59-2.96,0.72v-4.34Zm11.22,6.53-1.24,1.43h-1.86v-3.06h4a0.284,0.284,0,0,0,.23-0.31,0.426,0.426,0,0,0-.14-0.31l-1.33-1.17-1.1,1.3h-1.66v-2.54h2.24v0.59a0.225,0.225,0,0,0,.27.27,3.922,3.922,0,0,0,1-.19,0.332,0.332,0,0,0,.27-0.4v-6.46l0.45-.22a0.3,0.3,0,0,0,.18-0.27,0.59,0.59,0,0,0-.21-0.43l-1.46-1.39-0.59.81h-5.41l-1.76-.74v9.6c0,0.2.07,0.25,0.29,0.25a3.292,3.292,0,0,0,.86-0.16c0.27-.09.36-0.16,0.36-0.32v-0.94h2.02v2.54h-1.06c-0.56,0-1.08-.02-2.42-0.07l0.38,0.61c1.01-.04,1.46-0.05,2.04-0.05h1.06v3.06h-2.13c-0.79,0-1.45-.02-3.11-0.09l0.4,0.64c1.29-.05,1.72-0.07,2.71-0.07h8.29a0.238,0.238,0,0,0,.23-0.21,0.362,0.362,0,0,0-.14-0.27Zm-6.61-5.15v-3.13h2.02v3.13h-2.02Zm0-3.61v-3.1h2.02v3.1h-2.02Zm3.51,3.61v-3.13h2.24v3.13h-2.24Zm0-3.61v-3.1h2.24v3.1h-2.24Zm8.89,3.4,0.38,0.68c1.58-.07,2.14-0.09,3.17-0.09h0.23v5.1c-1.15.12-1.85,0.16-3.56,0.25l1.19,2.07a0.431,0.431,0,0,0,.32.23,0.375,0.375,0,0,0,.32-0.23l0.36-.59c3.59-.9,5.42-1.41,6.72-1.82,0.54-.18.68-0.25,0.68-0.36a0.161,0.161,0,0,0-.19-0.15,7.53,7.53,0,0,0-.76.08l-1.26.14-1.42.16c-0.07,0-.33.04-0.7,0.07v-4.95h2.28a11.429,11.429,0,0,0,1.75,3.51,12.972,12.972,0,0,0,5.02,3.77,3.336,3.336,0,0,1,1.8-1.46,15.106,15.106,0,0,1-5.87-2.9c0.25-.09.81-0.27,1.68-0.56q0.54-.18,1.08-0.39c0.07-.02.27-0.1,0.54-0.19h0.7a0.2,0.2,0,0,0,.22-0.18,0.377,0.377,0,0,0-.15-0.25l-1.44-1.2a26.632,26.632,0,0,1-2.99,2.45,10.429,10.429,0,0,1-1.91-2.6h8.34a0.205,0.205,0,0,0,.14-0.21,0.279,0.279,0,0,0-.09-0.22l-1.6-1.37-1.22,1.32h-8.28v-1.84h7.77a0.258,0.258,0,0,0,.22-0.25,0.343,0.343,0,0,0-.13-0.24l-1.4-1.13-1.03,1.13h-5.43v-1.76h7.61a0.243,0.243,0,0,0,.22-0.25,0.393,0.393,0,0,0-.16-0.29l-1.28-1.01-0.96,1.06h-5.43v-1.78h8.82a0.194,0.194,0,0,0,.14-0.22,0.327,0.327,0,0,0-.12-0.23l-1.55-1.26-0.99,1.22h-5.91l-2.09-.82v7.67h-0.23c-0.15,0-.79-0.02-1.48-0.04Zm29.56-5.15a3.534,3.534,0,0,1,.38-0.02,4.3,4.3,0,0,1,1.85.43c1.57,0.8,2.38,2.43,2.38,4.85a6.155,6.155,0,0,1-2.31,5.13,9.52,9.52,0,0,1-3.22,1.67c-0.29.09-.34,0.11-0.34,0.2,0,0.07.07,0.11,0.18,0.11a8.378,8.378,0,0,0,1.15-.22,11.08,11.08,0,0,0,3.33-1.22,6.64,6.64,0,0,0,3.33-5.76,5.409,5.409,0,0,0-1.42-3.8,6.908,6.908,0,0,0-5.06-1.98c-4.21,0-7.83,3.4-7.83,7.36a4.693,4.693,0,0,0,.88,2.9,2.2,2.2,0,0,0,1.51.99c0.99,0,2.56-1.28,3.62-2.93a11.6,11.6,0,0,0,1.8-5.86A6.885,6.885,0,0,0,1937.27,3314.43Zm-0.88.07a0.789,0.789,0,0,1,.03.13,3.907,3.907,0,0,1,.11,1.01,10.585,10.585,0,0,1-1.83,5.38c-0.76,1.19-1.79,2.12-2.35,2.12s-1.04-.93-1.04-2a7.04,7.04,0,0,1,2.13-5.02A6.752,6.752,0,0,1,1936.39,3314.5Zm16.3,7.35a0.2,0.2,0,0,0,.24.21,5.34,5.34,0,0,0,1.02-.23,0.271,0.271,0,0,0,.24-0.22v-4.52a2.9,2.9,0,0,1,.95,1.28c0.42,0.99.53,1.1,0.89,1.1a0.8,0.8,0,0,0,.79-0.83,1.577,1.577,0,0,0-.87-1.29,4.162,4.162,0,0,0-1.76-.58v-2.02h2.77a0.213,0.213,0,0,0,.22-0.23,0.461,0.461,0,0,0-.18-0.33l-1.15-1-0.85,1.08h-0.81v-1.93l0.45-.29a0.347,0.347,0,0,0,.18-0.32,0.329,0.329,0,0,0-.36-0.33l-1.77-.12v2.99h-0.84c-0.54,0-1.06-.02-2.41-0.08l0.36,0.62c1.02-.04,1.42-0.06,2.05-0.06h0.84a12.29,12.29,0,0,1-2.98,5.87,0.827,0.827,0,0,0-.31.42,0.09,0.09,0,0,0,.09.09c0.38,0,2.03-1.55,3.2-2.99v3.71Zm-0.61.86c-0.05,0-.07.04-0.09,0.16a3.145,3.145,0,0,1-.84,1.77,8.02,8.02,0,0,0-.96.93,1.125,1.125,0,0,0-.2.58,0.73,0.73,0,0,0,.81.68,1.339,1.339,0,0,0,1.03-.61,2.612,2.612,0,0,0,.61-1.87A2.931,2.931,0,0,0,1952.08,3322.71Zm3.24,0.63,0.33-.18a0.346,0.346,0,0,0,.25-0.32,0.39,0.39,0,0,0-.47-0.34l-1.71-.17v3.98c0,1.08.31,1.23,2.63,1.23l2.57-.02a17.586,17.586,0,0,0,2.89-.24,0.74,0.74,0,0,0,.55-0.61,1.122,1.122,0,0,0-.73-0.74,0.225,0.225,0,0,1-.17-0.16,0.34,0.34,0,0,1,.02-0.14c0-.07.02-0.25,0.04-0.51,0-.07.02-0.3,0.05-0.66,0.02-.25.04-0.51,0.04-0.61,0-.13-0.02-0.18-0.09-0.18s-0.07,0-.36.73c-0.65,1.44-.67,1.46-0.98,1.61a21.892,21.892,0,0,1-3.43.14,4.216,4.216,0,0,1-1.35-.09c-0.06-.02-0.06-0.02-0.08-0.38v-2.34Zm0.9-1.31c-0.09,0-.1.01-0.1,0.05a0.2,0.2,0,0,0,.1.13,3.147,3.147,0,0,1,1.28,1.56,4.122,4.122,0,0,0,.47,1.16,0.641,0.641,0,0,0,.45.18,0.889,0.889,0,0,0,.83-0.92,2.187,2.187,0,0,0-1.44-1.75A6.119,6.119,0,0,0,1956.22,3322.03Zm2.96-1.57h3.58v0.97a0.21,0.21,0,0,0,.25.22,3.258,3.258,0,0,0,.97-0.24,0.39,0.39,0,0,0,.36-0.39v-7.11l0.22-.13a0.346,0.346,0,0,0,.25-0.32,0.675,0.675,0,0,0-.2-0.42l-1.35-1.47-0.61.99h-3.31l-1.73-.81v9.81a0.246,0.246,0,0,0,.29.23,4.779,4.779,0,0,0,1.08-.23,0.287,0.287,0,0,0,.2-0.29v-0.81Zm0-.49v-2.03h3.58v2.03h-3.58Zm0-2.52v-1.99h3.58v1.99h-3.58Zm0-2.48v-1.93h3.58v1.93h-3.58Zm2.64,7.71a0.092,0.092,0,0,0-.1.09,0.155,0.155,0,0,0,.1.12,5.168,5.168,0,0,1,1.89,2.45,7.27,7.27,0,0,0,.35.85,0.891,0.891,0,0,0,.82.57,0.921,0.921,0,0,0,.87-0.99c0-.84-0.7-1.71-1.93-2.37A7.112,7.112,0,0,0,1961.82,3322.68Zm19.77-5.75a1.728,1.728,0,0,0-1.25.38c0,0.05.06,0.09,0.18,0.09,1.84-.09,3.17,1.33,3.46,3.67a1.507,1.507,0,0,0,.27,1.12,0.861,0.861,0,0,0,.58.23,1.262,1.262,0,0,0,1.15-1.37,3.93,3.93,0,0,0-1.1-2.61A4.247,4.247,0,0,0,1981.59,3316.93Zm-9.65-2.9a0.217,0.217,0,0,0-.24.11,0.185,0.185,0,0,0,.09.13,2.181,2.181,0,0,1,.96,2.16c0,0.18,0,.38-0.02.65-0.04.81-.07,1.63-0.07,1.98a8.984,8.984,0,0,0,1.4,5.33,3.669,3.669,0,0,0,2.77,1.74,0.852,0.852,0,0,0,.92-0.68,0.567,0.567,0,0,0-.03-0.15,2.411,2.411,0,0,1-.54-1.54,10.217,10.217,0,0,1,.61-3.17,0.12,0.12,0,0,0,.02-0.08,0.124,0.124,0,0,0-.13-0.12,4.676,4.676,0,0,0-.9,1.56,8.891,8.891,0,0,1-.72,1.39,0.6,0.6,0,0,1-.47.33,1.084,1.084,0,0,1-.61-0.49,4.93,4.93,0,0,1-.87-3.12,10.95,10.95,0,0,1,.44-3.15,2.506,2.506,0,0,0,.19-0.77,2.18,2.18,0,0,0-.52-1.23A3.548,3.548,0,0,0,1971.94,3314.03Z" transform="translate(-1865.75 -3311.28)"/>
</svg>
