<svg xmlns="http://www.w3.org/2000/svg" viewBox="0 0 193.75 32.76"><defs><style>.cls-1{fill:#333;}</style></defs><title>hellowoods-new2-title</title><g id="Layer_2" data-name="Layer 2"><g id="Layer_1-2" data-name="Layer 1"><path class="cls-1" d="M5.54,20.12c-.32,0-1.08,0-2.19.07-.33,0-1.23,0-2.27,0L.65,19.08c2.63.11,3.81.14,4.82.18H7.78V14.15l2.7.21c.5,0,.82.33.82.69a.93.93,0,0,1-.54.75l-.82.4v3.06h1.44L13,17.06,15.44,19a1.12,1.12,0,0,1,.43.72.45.45,0,0,1-.43.43H9.94v2.2a12.5,12.5,0,0,1,3.56,1.33,3.21,3.21,0,0,1,1.83,2.63,1.29,1.29,0,0,1-1.22,1.29,1.36,1.36,0,0,1-.76-.29,13.15,13.15,0,0,1-1.11-1.8,6,6,0,0,0-2.3-2.16v8.07c0,.54-.8,1-1.73,1-.33,0-.43-.18-.43-.58V23.43a30.63,30.63,0,0,1-4.65,4.93C1.76,29.52.76,30.2.36,30.2A.36.36,0,0,1,0,29.84c0-.18.18-.4.86-.94a28.72,28.72,0,0,0,6.3-8.78Zm4-14.61c-.22,0-1.52,0-3.42.11-.44,0-1.73,0-3.14.07L2.48,4.43c1.66.07,3,.11,3.53.11,1.77.07,3,.1,3.57.1h5.93V0l2.6.11c.5,0,.75.21.75.61a.86.86,0,0,1-.29.65l-.86.68V4.64h8.64l1.94-2.26,2.56,2a1.06,1.06,0,0,1,.47.69c0,.28-.18.43-.58.43H18.32C22.07,9,26.21,11,32.4,12.06A6.86,6.86,0,0,0,30,14.83C24.33,12.6,20.63,9.93,17.71,6v9.07c0,.51-.72.9-1.69.9-.36,0-.51-.18-.51-.54V7A44.19,44.19,0,0,1,6.3,13.17a27.32,27.32,0,0,1-4.68,2.16.31.31,0,0,1-.29-.28c0-.18.36-.44,2.7-1.77A34.91,34.91,0,0,0,13.5,5.51Zm8,14.72-.36-1.12c3.6.15,3.78.15,4.82.15H23V14.43l2.95.18c.32,0,.61.29.61.51a.9.9,0,0,1-.47.68l-1,.58v2.88h3.06l1.91-2.2L32.65,19a.89.89,0,0,1,.39.65.43.43,0,0,1-.46.47H25.2c1.15,2.84,4.28,5.62,8.6,7.52a6,6,0,0,0-2.45,2.27A19.49,19.49,0,0,1,25.12,22v9.58c0,.5-.54.75-1.61.75-.33,0-.47-.14-.47-.5V22.93a49.32,49.32,0,0,1-5.51,5.4C15.51,30,14.15,31,13.79,31a.34.34,0,0,1-.29-.33c0-.14,0-.14,1.19-1.15a50.22,50.22,0,0,0,7.7-9.36Z"/><path class="cls-1" d="M60.44,11.81A8.27,8.27,0,0,1,65.8,9.5c2.56,0,4.54,1.51,4.54,3.46a2.14,2.14,0,0,1-.94,1.91c-.75.57-1,.64-4.32,2a61.63,61.63,0,0,0-7.7,3.49c.11,1.58.18,2.73.18,3.31,0,1.8-.36,2.27-1.8,2.27-.43,0-.65-.15-.65-.36a.8.8,0,0,1,0-.29,28.77,28.77,0,0,0,.18-3.89c-3.1,1.84-4.36,3.28-4.36,4.9,0,1.8,1.7,2.52,5.91,2.52a20.78,20.78,0,0,0,5.29-.65A2.75,2.75,0,0,1,63.1,28a1.93,1.93,0,0,1,1.73,1.47c0,1.19-2.37,1.8-7.27,1.8a11.8,11.8,0,0,1-5.87-1.08,4.27,4.27,0,0,1-2.48-3.67,4.55,4.55,0,0,1,1.84-3.38,25.67,25.67,0,0,1,4.24-2.77,13.76,13.76,0,0,0-.46-4.54,1.9,1.9,0,0,0-1.7-1.26,4.22,4.22,0,0,0-2.55,1.33,22.28,22.28,0,0,0-3.1,3.85c-.39.69-.79,1-1.18,1S45,19.54,45,18.61c0-.47.14-.72.86-1.26,3.89-3.38,6.26-6.88,7-10.22a11.24,11.24,0,0,1-3.14.61,2.25,2.25,0,0,1-1.87-1.3,4.64,4.64,0,0,1-.54-1.36.16.16,0,0,1,.15-.15.29.29,0,0,1,.18.15A2.29,2.29,0,0,0,49.75,6,9.62,9.62,0,0,0,53,5.43a6,6,0,0,0,.1-1,1.7,1.7,0,0,0-1.69-1.95c-.14,0-.18,0-.18-.14,0-.32,1.23-.9,1.91-.9a2.48,2.48,0,0,1,2.38,2.12,5.4,5.4,0,0,1-.29,1.37,5.25,5.25,0,0,0,2.3-1.22c1.23.61,1.59.86,1.59,1.15s-.8.76-4.22,1.76a41.41,41.41,0,0,1-4.1,7.67,5.8,5.8,0,0,1,2.38-.65,3.69,3.69,0,0,1,2.3.83A5.13,5.13,0,0,1,56.84,17,14.57,14.57,0,0,1,60.44,11.81ZM62,16.49a39,39,0,0,0,4.61-2.7,2,2,0,0,0,.72-1.26,2.17,2.17,0,0,0-2.2-1.8c-1.87,0-4.32,1.69-5.72,4a18.42,18.42,0,0,0-2.13,4.43C58.71,18.29,59,18.14,62,16.49Z"/><path class="cls-1" d="M101.05,13.71A11.82,11.82,0,0,1,99.68,18a22.49,22.49,0,0,1-3.31,4.93A7.23,7.23,0,0,0,97,24.87a2.49,2.49,0,0,1,.07.33c0,.46-1,1.33-1.62,1.33-.36,0-.47-.22-.9-2.05a27.37,27.37,0,0,1-3.06,2.41,9.56,9.56,0,0,1-4.61,1.8c-1.47,0-2.59-1.41-2.59-3.17A10.74,10.74,0,0,1,87,19c1.73-2.09,3.28-3.24,7-5.15,0-1.26.11-2.12.25-3.6a13.93,13.93,0,0,1-3.6.58c-1.94,0-3.88-1.51-3.88-3.06,0-.15.07-.25.18-.25s.07,0,.14.18a3.82,3.82,0,0,0,1.11,1A6.13,6.13,0,0,0,91,9.18a11,11,0,0,0,3.31-.54c.08-1.15.26-2.88.36-3.93,0-.43.08-.75.08-1,0-1.41-.8-2.09-2.34-2-.18,0-.26-.08-.26-.22S93.45.72,94.43.72c1.54,0,3.34,1.11,3.34,2.09,0,.21,0,.21-.28,1.08A27.12,27.12,0,0,0,96.3,8.1c3-1,4.46-1.8,4.82-2.81a7,7,0,0,0,1.3.11c.83,0,1.19.29,1.19.86s-.76,1.23-3.17,2.16c-1.55.58-2.67,1-4.21,1.41a32,32,0,0,0-.36,3.42,18.24,18.24,0,0,1,5.76-1c5.72,0,9.46,3.32,9.46,8.39,0,5.29-4.32,9.43-11.73,11.27a43.45,43.45,0,0,1-4.68.83.43.43,0,0,1-.47-.44c0-.1.11-.18.29-.21a29.85,29.85,0,0,0,4.89-1.37c5.69-2.16,8.75-5.94,8.75-10.76,0-4.14-2.77-6.77-7.13-6.84A3.31,3.31,0,0,1,101.05,13.71ZM94,15c-3.42,2-5,3.42-6.22,5.62a9,9,0,0,0-1.19,4c0,1.19.43,1.73,1.44,1.73,1.58,0,3.81-1.19,6.3-3.35A68.49,68.49,0,0,1,94,15Zm1.8-.57c-.07,1-.1,1.58-.1,2.88a29,29,0,0,0,.25,4.06c2.19-2.84,4-6.4,4-8A16.27,16.27,0,0,0,95.79,14.4Z"/><path class="cls-1" d="M143.89,28.22a1.86,1.86,0,0,1,2.05,1.66c0,.93-.75,1.44-2.16,1.44-6.05,0-10.36-3.17-10.36-7.6,0-1.8.32-2.73,1.87-5.36a17.53,17.53,0,0,0-6.7,4.53c-.36.43-.61.58-.93.58-.58,0-.87-.68-.87-2.13,0-1,.15-1.29,1.91-3.16.43-.43,1.26-1.33,2.12-2.31,1-1.15,2.06-2.3,3.17-3.56l3.78-4.1c.76-.87,1.26-1.44,1.37-1.52.86-.82,1-1.07,1-1.65s-.44-1.26-.94-1.26c-.32,0-.79.29-3.17,1.91s-2.73,1.83-3.27,1.83a2.41,2.41,0,0,1-2.05-2.34c0-1,.21-1.8.46-1.8s.15,0,.15.25a1.82,1.82,0,0,0,1.55,1.55,33.21,33.21,0,0,0,6.19-2.59,1.4,1.4,0,0,1,.82-.21c1.37,0,3.68,2.26,3.68,3.63,0,.61-.33,1-1.08,1.44a26.5,26.5,0,0,0-9.76,8A18,18,0,0,0,130.32,19c0,.11.22.22.43.22a2.15,2.15,0,0,0,.94-.29,64.35,64.35,0,0,1,9.9-3.88,32,32,0,0,1,5.18-1.37,2.57,2.57,0,0,1,1.76,1.15,3,3,0,0,1,.83,1.44c0,.29-.43.58-.93.58-.18,0-.47,0-.8-.08a16.42,16.42,0,0,0-2.26-.14,17.76,17.76,0,0,0-8.1,1.83,6.52,6.52,0,0,0-2.56,5.15,4.21,4.21,0,0,0,2.23,3.67,11.18,11.18,0,0,0,5.11,1,11.06,11.06,0,0,0,1.19,0Z"/><path class="cls-1" d="M182.27,26a3.52,3.52,0,0,1-1.23,2.7,5.07,5.07,0,0,1-3.31,1c-.68-2.12-2.38-3.24-8.13-5.4-1.3,1.26-2,2-2.7,2.74-1.16,1.33-1.62,1.65-2.34,1.65a3.4,3.4,0,0,1-2.81-3c0-1.15,1-3.1,1.65-3.1a.23.23,0,0,1,.18.22.84.84,0,0,1,0,.25,5.88,5.88,0,0,0-.11,1.23c0,1,.25,1.4.86,1.4s1.19-.32,3.35-1.91c6-4.46,7.06-5.11,9.18-6a14.86,14.86,0,0,0-1.33-1.65c-1.91-2.13-2.45-3.06-2.45-4.11,0-1.76,1.22-3.31,4.14-5.29a4.1,4.1,0,0,1-2.81-4.14c0-.68.11-1,.36-1s.22.11.22.33c.21,1.91,2.88,3.49,5.94,3.52.79,0,1,.11,1.37.51a3.78,3.78,0,0,1,.57,1.65c0,.44-.54.83-1.15.83-.22,0-.54,0-.9-.07a9.07,9.07,0,0,0-.94-.07c-3,0-5.43,1.8-5.43,4,0,.9.75,2,2.48,3.63.72.72.79.8,1.23,1.26a13,13,0,0,1,4.75-.86,10.29,10.29,0,0,1,7.2,2.7,9.22,9.22,0,0,1,3.13,6.23A1.72,1.72,0,0,1,191.44,27c-.61,0-1-.47-1.15-1.22-.75-5.33-3.52-8.46-7.52-8.46a10,10,0,0,0-3.78.76A12.79,12.79,0,0,1,182.27,26Zm-4.61.36a2.37,2.37,0,0,0,.83.22c.68,0,1-.68,1-1.94a10.31,10.31,0,0,0-2.05-6,29.76,29.76,0,0,0-7.2,5c.5.18,1,.33,1.12.4,1.36.5,2.73,1,4.13,1.51.94.33,1.48.51,1.62.58Zm13-17.27a1.34,1.34,0,0,1-1.19,1.33c-.4,0-.5-.11-.9-.79A6.38,6.38,0,0,0,185,6.77a.14.14,0,0,1-.15-.11c0-.18.54-.29,1.19-.29C188.38,6.37,190.69,7.74,190.69,9.11Zm3.06-2.42A1.31,1.31,0,0,1,192.49,8c-.33,0-.54-.18-.79-.65a6,6,0,0,0-3.64-3c-.22-.08-.25-.11-.25-.19s.54-.28,1.33-.28C191.41,3.89,193.75,5.29,193.75,6.69Z"/></g></g></svg>