<svg xmlns="http://www.w3.org/2000/svg" viewBox="0 0 150.23 33.87"><defs><style>.cls-1{fill:#343434;}</style></defs><title>hellowoods-new-title_1</title><g id="Layer_2" data-name="Layer 2"><g id="Layer_1-2" data-name="Layer 1"><path class="cls-1" d="M5.54,21c-.32,0-1.08,0-2.19.07-.33,0-1.23,0-2.27,0L.65,19.94c2.63.11,3.81.15,4.82.18H7.78V15l2.7.22c.5,0,.82.32.82.68a.93.93,0,0,1-.54.76l-.82.39v3.06h1.44L13,17.93l2.41,1.9a1.14,1.14,0,0,1,.43.72.46.46,0,0,1-.43.44H9.94v2.19a13.14,13.14,0,0,1,3.56,1.33,3.23,3.23,0,0,1,1.83,2.63,1.3,1.3,0,0,1-1.22,1.3,1.36,1.36,0,0,1-.76-.29,15.87,15.87,0,0,1-1.11-1.8,6,6,0,0,0-2.3-2.16v8.06c0,.54-.8,1-1.73,1-.33,0-.43-.18-.43-.58V24.3a31.5,31.5,0,0,1-4.65,4.93A7.83,7.83,0,0,1,.36,31.06.36.36,0,0,1,0,30.7c0-.18.18-.39.86-.93A29,29,0,0,0,7.16,21Zm4-14.62-3.42.11c-.44,0-1.73,0-3.14.07L2.48,5.29c1.66.07,3,.11,3.53.11,1.77.07,3,.11,3.57.11h5.93V.86l2.6.11c.5,0,.75.22.75.61a.83.83,0,0,1-.29.65l-.86.69V5.51h8.64l1.94-2.27,2.56,2a1,1,0,0,1,.47.68c0,.29-.18.43-.58.43H18.32c3.75,3.53,7.89,5.47,14.08,6.55A6.92,6.92,0,0,0,30,15.69c-5.62-2.23-9.32-4.89-12.24-8.81V16c0,.5-.72.9-1.69.9-.36,0-.51-.18-.51-.54V7.81A44.26,44.26,0,0,1,6.3,14,27.32,27.32,0,0,1,1.62,16.2a.32.32,0,0,1-.29-.29c0-.18.36-.43,2.7-1.76A35.14,35.14,0,0,0,13.5,6.37Zm8,14.72L17.17,20c3.6.14,3.78.14,4.82.14H23V15.3l2.95.18c.32,0,.61.29.61.5a.93.93,0,0,1-.47.69l-1,.57v2.88h3.06l1.91-2.19,2.56,1.94a.85.85,0,0,1,.39.65.43.43,0,0,1-.46.47H25.2c1.15,2.84,4.28,5.61,8.6,7.52a5.89,5.89,0,0,0-2.45,2.27,19.49,19.49,0,0,1-6.23-7.92v9.57c0,.51-.54.76-1.61.76-.33,0-.47-.15-.47-.51V23.79a48.43,48.43,0,0,1-5.51,5.4c-2,1.66-3.38,2.63-3.74,2.63a.34.34,0,0,1-.29-.32c0-.15,0-.15,1.19-1.16A49.79,49.79,0,0,0,22.39,21Z"/><path class="cls-1" d="M61.88,12.67a8.3,8.3,0,0,1,5.36-2.3c2.56,0,4.54,1.51,4.54,3.45a2.13,2.13,0,0,1-.94,1.91c-.75.58-1,.65-4.32,2a61.63,61.63,0,0,0-7.7,3.49c.11,1.59.18,2.74.18,3.31,0,1.8-.36,2.27-1.8,2.27-.43,0-.65-.14-.65-.36a.83.83,0,0,1,0-.29,28.52,28.52,0,0,0,.18-3.88c-3.1,1.83-4.36,3.27-4.36,4.89,0,1.8,1.7,2.52,5.91,2.52A20.78,20.78,0,0,0,63.61,29a3,3,0,0,1,.93-.18,1.93,1.93,0,0,1,1.73,1.48c0,1.19-2.37,1.8-7.27,1.8A11.91,11.91,0,0,1,53.13,31a4.3,4.3,0,0,1-2.48-3.67A4.55,4.55,0,0,1,52.49,24a25.67,25.67,0,0,1,4.24-2.77,13.73,13.73,0,0,0-.46-4.53,1.88,1.88,0,0,0-1.7-1.26A4.17,4.17,0,0,0,52,16.74a21.91,21.91,0,0,0-3.1,3.85c-.39.68-.79,1-1.18,1s-1.26-1.19-1.26-2.13c0-.46.14-.72.86-1.26C51.23,14.83,53.6,11.34,54.29,8a10.89,10.89,0,0,1-3.14.61,2.24,2.24,0,0,1-1.87-1.29,4.68,4.68,0,0,1-.54-1.37.15.15,0,0,1,.15-.14.26.26,0,0,1,.18.14,2.27,2.27,0,0,0,2.12.94,9.62,9.62,0,0,0,3.28-.58,6.09,6.09,0,0,0,.1-1,1.69,1.69,0,0,0-1.69-1.94c-.14,0-.18,0-.18-.15,0-.32,1.23-.9,1.91-.9A2.48,2.48,0,0,1,57,4.43,5.49,5.49,0,0,1,56.7,5.8,5.25,5.25,0,0,0,59,4.57c1.23.61,1.59.87,1.59,1.15,0,.44-.8.76-4.22,1.77a41,41,0,0,1-4.1,7.66,5.75,5.75,0,0,1,2.38-.64,3.68,3.68,0,0,1,2.3.82,5.17,5.17,0,0,1,1.33,2.56A14.67,14.67,0,0,1,61.88,12.67Zm1.55,4.68A40.18,40.18,0,0,0,68,14.65a2,2,0,0,0,.72-1.26,2.17,2.17,0,0,0-2.2-1.8c-1.87,0-4.32,1.69-5.72,4A18.22,18.22,0,0,0,58.71,20C60.15,19.15,60.41,19,63.43,17.35Z"/><path class="cls-1" d="M85.79,10.08c2.84-3,4.35-5.29,6.59-10.08l2.48,1.26a1,1,0,0,1,.54.68c0,.26-.25.47-.65.58l-.68.14a24.44,24.44,0,0,1-1.59,2l.79.51h16.56l1.8-2.05,2.7,2.05a.66.66,0,0,1,.29.5c0,.25-.14.36-.47.36h-5v4.07h3l1.87-2,2.27,1.69a.88.88,0,0,1,.43.65c0,.33-.25.54-.65.54h-6.91v4h2l1.73-1.9,2.27,1.8a.84.84,0,0,1,.32.57c0,.29-.14.4-.72.4h-4.28c.18.21.21.29.21.39a1,1,0,0,1-.21.54l-.36.36v2.7h1.22l1.55-1.72,2.23,1.58a.85.85,0,0,1,.29.65c0,.25-.14.39-.47.39h-4.82v4.94h2l1.87-2.13,2.41,2a.72.72,0,0,1,.4.58.46.46,0,0,1-.51.43h-6.15v5.94c0,.54-.69,1-1.44,1a.73.73,0,0,1-.83-.79V26.53H101.7c-.36,0-1,0-2,0l-2.34.07-.36-1.12c2.34.11,2.7.11,4.76.15V20.73H99.18l-.36.44c-.15.21-.22.36-.25.36-.29.61-.62,1.18-.94,1.76a25.74,25.74,0,0,1-5,6.3,19.24,19.24,0,0,1-6.19,3.6,7.27,7.27,0,0,1-1.48.47.32.32,0,0,1-.32-.29c0-.18,0-.18,1.62-1A25.67,25.67,0,0,0,92.41,27a1.85,1.85,0,0,1-.61-.32l0-.07-.68-1.41a4.85,4.85,0,0,0-1.4-1.62,20.24,20.24,0,0,1-4.9,4.29,1.16,1.16,0,0,1-.58.25c-.21,0-.36-.11-.36-.29s.08-.25.26-.4a29.5,29.5,0,0,0,7.74-11.62H91c-.72,0-1.55,0-2.48,0L86.18,16l-.5-1.12c2.56.11,2.95.11,5.36.14v-4H88.13c-.33,0-1.15,0-2,0l-2.2.07-.5-1Zm5.25,0V6.16a22.7,22.7,0,0,1-4.35,3.92Zm1.15,10.33c-.86,1.22-1,1.44-1.79,2.41,1.9.36,3,1.3,3.31,2.7a33.51,33.51,0,0,0,2.88-5.11Zm4.5-.86.94-1.16,2.05,1.44h8.1v-4h-14l.69.39c.43.22.64.47.64.69s-.21.5-.57.57l-.72.15c-.51.93-.54,1-1,1.91ZM93.1,10.08h3.38V6H93.1ZM96.48,15v-4H93.1v4Zm5.18-4.89V6h-3.2v4.07Zm0,4.89v-4h-3.2v4Zm5.26-4.89V6h-3.17v4.07Zm0,4.89v-4h-3.17v4Zm.86,10.7V20.73H104v4.94Z"/><path class="cls-1" d="M134.06,13a2,2,0,0,0,1.77,2.15c.54,0,1-.18,2.55-1,3-1.62,4.72-2.23,6.34-2.23,3.24,0,5.51,2.95,5.51,7.23,0,5.51-2.92,9.94-8.39,12.78a27.42,27.42,0,0,1-6,2,.33.33,0,0,1-.36-.32c0-.15.11-.25.51-.36a20,20,0,0,0,6.4-3.49,13.59,13.59,0,0,0,5-10.51c0-3.71-1.41-6.09-3.57-6.09-1.51,0-3.88,1.37-5.79,3.35-1.12,1.15-1.59,1.48-2.2,1.48-1.33,0-2.77-1.73-2.77-3.32,0-.9.51-2,.86-2a.15.15,0,0,1,.15.15.14.14,0,0,1,0,.1Zm3.57-10c0-.61.1-1,.28-1s.11,0,.15.36c.18,1.76,2.19,2.92,5,2.92.47,0,.93,0,1.37-.08a6.34,6.34,0,0,1,.68,0,1.19,1.19,0,0,1,1.08.68,3.56,3.56,0,0,1,.54,1.55c0,.47-.32.72-.9.72a2.82,2.82,0,0,1-.61-.11,8.48,8.48,0,0,0-1.73-.14,9.21,9.21,0,0,0-4.43.79c-.36.14-.36.14-.47.14a.15.15,0,0,1-.14-.14A10.49,10.49,0,0,1,141,6.88C139.28,6.88,137.63,5,137.63,3Z"/></g></g></svg>