<svg xmlns="http://www.w3.org/2000/svg" viewBox="0 0 449.89 33.44"><defs><style>.cls-1{isolation:isolate;}.cls-2{fill:#333;}</style></defs><title>hellowoods-musasabi-title</title><g id="Layer_2" data-name="Layer 2"><g id="Layer_1-2" data-name="Layer 1"><g class="cls-1"><path class="cls-2" d="M11,23.18a9.87,9.87,0,0,1,3.1.79,3.63,3.63,0,0,1,2.23,3,1.5,1.5,0,0,1-1.59,1.51c-.75,0-.93-.18-1.72-1.94a6.44,6.44,0,0,0-2-2.59v7.88a.94.94,0,0,1-.69,1,3.41,3.41,0,0,1-1.47.36c-.61,0-.87-.22-.87-.76V25.56a28.59,28.59,0,0,1-5.36,4.5,9.69,9.69,0,0,1-2.38,1.4A.27.27,0,0,1,0,31.21c0-.18.18-.4.65-.83a26.19,26.19,0,0,0,7.09-9.57h-2c-.4,0-1,0-1.77,0l-2.26.07L.9,19.69c1.33,0,2.56.07,3,.11.9,0,1.51,0,1.8,0H8V14.72l3.61.36a.78.78,0,0,1,.72.76c0,.29-.15.47-.54.68l-.76.36v2.95H12.1l1.8-2.26,2.56,2.12a.82.82,0,0,1,.36.61.51.51,0,0,1-.54.51H11ZM32.19,5.47a.68.68,0,0,1,.29.51.43.43,0,0,1-.47.46H19.27c3.16,3.21,9.11,5.76,14.83,6.37a8.31,8.31,0,0,0-3.74,3.07A23.83,23.83,0,0,1,18.83,7.16v8.21c0,.43-.14.65-.64.79a7,7,0,0,1-1.81.36.66.66,0,0,1-.72-.75V9.14a42.67,42.67,0,0,1-8.6,5.51,27.6,27.6,0,0,1-5.58,2.27.28.28,0,0,1-.29-.25c0-.18.14-.33.47-.47A37.92,37.92,0,0,0,13.83,6.44H10.12c-2,0-3.17,0-6.23.18L3.06,5.29l4,.11c1.26,0,2.34.07,3,.07h5.54V.22L19.37.5a.74.74,0,0,1,.72.65,1,1,0,0,1-.46.76l-.8.47V5.47h7.82L29,2.74Zm1.73,14.4a.83.83,0,0,1,.29.5.43.43,0,0,1-.47.44h-7c1.4,2.77,4,5.11,8,7.12a7.06,7.06,0,0,0-3,2.92,20.43,20.43,0,0,1-5.26-7.92v9.25c0,.54-.18.76-.72.94a5.94,5.94,0,0,1-1.77.32c-.47,0-.65-.22-.65-.76V25.49a31.23,31.23,0,0,1-6.12,4.78,10.64,10.64,0,0,1-3,1.51.24.24,0,0,1-.25-.25c0-.21,0-.25,1.15-1.15a28,28,0,0,0,8-9.57h-.83c-1,0-1.94,0-4.25.1l-.54-1.22c1.48.07,2.85.11,4.79.14h1V14.69l3.53.46a.64.64,0,0,1,.62.62.75.75,0,0,1-.4.64l-.68.44v3h2.52l2-2.44Z"/><path class="cls-2" d="M58.12,10.22a23.11,23.11,0,0,1-3.6,11.7c-2.12,3.31-5.26,5.87-7.24,5.87a4.34,4.34,0,0,1-3-2A9.33,9.33,0,0,1,42.49,20c0-7.92,7.24-14.72,15.67-14.72a13.93,13.93,0,0,1,10.12,4,10.88,10.88,0,0,1,2.84,7.6,13.28,13.28,0,0,1-6.66,11.52,22,22,0,0,1-6.66,2.44,14.42,14.42,0,0,1-2.31.43c-.21,0-.36-.07-.36-.21s.11-.22.69-.4a19.5,19.5,0,0,0,6.44-3.34c3.14-2.56,4.61-5.84,4.61-10.26,0-4.83-1.62-8.1-4.75-9.69a8.64,8.64,0,0,0-3.71-.86,7.18,7.18,0,0,0-.76,0A13.7,13.7,0,0,1,58.12,10.22ZM50,9.9a14.09,14.09,0,0,0-4.25,10c0,2.13,1,4,2.09,4S51,22.07,52.5,19.69A21.12,21.12,0,0,0,56.18,8.93a8.39,8.39,0,0,0-.22-2c0-.07,0-.14-.07-.25A13.62,13.62,0,0,0,50,9.9Z"/><path class="cls-2" d="M90.75,17.1A2.06,2.06,0,0,1,88.66,19c-.5,0-.83-.26-1.26-1a9.13,9.13,0,0,0-4.72-4.32c-.32-.14-.36-.18-.36-.29s1.08-.47,2.27-.47C87.72,12.92,90.75,15,90.75,17.1Zm-6.3,7.7c.21.72.83,1,2.37,1,1.88,0,4.79-1.4,8.86-4.24A59.56,59.56,0,0,0,109,8.53c.36-.5.46-.61.64-.61s.22.14.22.29c0,.39-.4,1.22-1.48,3.24a46.89,46.89,0,0,1-6.91,9.1,67.3,67.3,0,0,1-11.67,8.79,5.49,5.49,0,0,0-.72.46c-.57.47-.68.54-1,.54-.58,0-1.58-.68-2.88-1.94a3.84,3.84,0,0,1-1.37-2.63c0-.57.22-1,.51-1h.07ZM95,10.33a2,2,0,0,1-2.16,1.95c-.76,0-1-.19-1.55-1.26a8.35,8.35,0,0,0-5.15-4c-.25-.07-.32-.14-.32-.25,0-.32,1.58-.65,3.13-.65C92.19,6.08,95,8.06,95,10.33Zm11.09-4.75A1.39,1.39,0,0,1,104.58,7c-.62,0-.76-.14-1.3-1.11a5.62,5.62,0,0,0-3-2.7C100,3.1,100,3,100,2.88s.36-.29,1.26-.29C103.75,2.59,106.09,4,106.09,5.58Zm4.5-2.23A1.5,1.5,0,0,1,109,4.79c-.62,0-.72-.11-1.23-.94a6.33,6.33,0,0,0-3.42-2.77c-.22,0-.29-.11-.29-.25s.54-.36,1.7-.36C108.25.47,110.59,1.84,110.59,3.35Z"/><path class="cls-2" d="M127.41,19.15a1.85,1.85,0,0,1-1.66,2,1,1,0,0,1-1-.8,9.67,9.67,0,0,0-3.28-4.86c-.32-.21-.39-.28-.39-.43s.1-.21.47-.21C124.71,14.87,127.41,16.88,127.41,19.15ZM130,29.37c-2.2,1.37-6,2.88-7.42,2.88a.35.35,0,0,1-.36-.29c0-.18,0-.18.9-.54a28.65,28.65,0,0,0,9.9-7.66c2.85-3.42,4.79-7.63,4.79-10.48a2.36,2.36,0,0,0-.47-1.55c-.36-.32-.36-.32-.36-.39,0-.22.26-.36.58-.36a3.64,3.64,0,0,1,2.59,1.19A5.82,5.82,0,0,1,142,14.65c0,.25-.08.32-.69,1A29.44,29.44,0,0,1,130,29.37Zm3.31-12.6a1.92,1.92,0,0,1-1.8,2c-.61,0-.9-.36-1.15-1.33-.58-2.34-2-4.43-3.39-5.11-.18-.07-.25-.18-.25-.29s.18-.21.4-.21C130.15,11.81,133.35,14.4,133.35,16.77Z"/><path class="cls-2" d="M163.85,26.92c-3,1.88-8,3.75-9.9,3.75a.29.29,0,0,1-.32-.25c0-.15.1-.22.32-.29A26.75,26.75,0,0,0,165.73,22a23.15,23.15,0,0,0,5-8.57,10.8,10.8,0,0,0,.69-2.73c0-.58-.33-.79-1.12-.79a44.08,44.08,0,0,0-7.13,1.22,15.4,15.4,0,0,0-4.32,1.51,1.14,1.14,0,0,1-.61.25,4.7,4.7,0,0,1-2.16-1A3.47,3.47,0,0,1,154.81,9c0-.28.11-.5.29-.5s.15.07.29.25a3.29,3.29,0,0,0,2.74,1,85.63,85.63,0,0,0,9.22-1.11,10.54,10.54,0,0,0,4.28-1.44c.72-.43.9-.5,1.23-.5s1,.32,3.06,1.76c.75.5,1.26,1,1.26,1.26s-.33.57-1.66,1.51C172.24,19.26,168.89,23.79,163.85,26.92ZM182.22,3.6A3.62,3.62,0,1,1,178.65,0,3.63,3.63,0,0,1,182.22,3.6Zm-5.84,0a2.26,2.26,0,0,0,2.24,2.27,2.23,2.23,0,1,0-2.24-2.27Z"/><path class="cls-2" d="M207.43,23.83a25.89,25.89,0,0,1-9.4,6.73,20.16,20.16,0,0,1-5.44,1.22c-.25,0-.4-.1-.4-.28s.11-.26.4-.33a22.77,22.77,0,0,0,10.26-6.4,24,24,0,0,0,4.72-7.64,9.5,9.5,0,0,0,1-2.73c0-.43-.43-.65-1.19-.65a46.65,46.65,0,0,0-11,2.45c-1.15.54-1.15.54-1.41.54-1.54,0-3.52-2.09-3.52-3.71,0-.57.1-.86.32-.86s.18.07.32.32a3.75,3.75,0,0,0,3,1.19A93.4,93.4,0,0,0,206.2,12.2a8.8,8.8,0,0,0,2.77-.86c1-.43,1.16-.51,1.41-.51.5,0,1.12.44,2.74,2.06.79.79.79.79.79,1.11a.61.61,0,0,1-.15.4,1.07,1.07,0,0,1-.43.25,2.71,2.71,0,0,0-.79.47C210.45,19.58,209.16,21.81,207.43,23.83ZM194.75,5.9a3.93,3.93,0,0,0,2.59.72,32.16,32.16,0,0,0,6.45-1,6.41,6.41,0,0,0,1.91-.72c.57-.32.75-.39,1-.39,1.26,0,3.35,1.25,3.35,2.05,0,.43-.43.68-1.3.83-1.55.18-2.66.36-4.43.71a33.94,33.94,0,0,1-5.94.87,3.83,3.83,0,0,1-3.1-1.37,4.74,4.74,0,0,1-1-1.73.23.23,0,0,1,.21-.18C194.57,5.72,194.61,5.76,194.75,5.9Z"/><path class="cls-2" d="M241.24,30.34c0,1.08-.57,1.95-1.29,1.95s-3-2-3-2.81c0-.22,0-.22.32-1.15a15.38,15.38,0,0,0,.61-4.82c.15-3.46.18-4.94.18-6.74a4.87,4.87,0,0,0-.25-2.08C233,19.22,231.3,20.45,227.63,22a16.63,16.63,0,0,1-3.49,1.22.27.27,0,0,1-.29-.25c0-.18,0-.18.68-.5,6.63-3.39,16.35-14.15,16.35-18.14A1.54,1.54,0,0,0,240,2.81c-.15-.07-.22-.15-.22-.22s.36-.32,1-.32c1.16,0,1.84.36,3,1.51,1.29,1.3,1.83,2.05,1.83,2.52,0,.25-.14.43-.46.61a3.57,3.57,0,0,0-1.26,1.15c-1.08,1.3-2.2,2.56-4.69,5.22l.83.4c1.19.54,1.41.72,1.41,1.08s0,.21-.33.75a11.32,11.32,0,0,0-.25,2.38s.07,3,.15,6.33.18,5,.18,5Z"/><path class="cls-2" d="M268.14,11.63a2,2,0,0,1-2,1.91c-.72,0-1-.29-1.55-1.37a10.5,10.5,0,0,0-5.25-4.83c-.29-.07-.4-.14-.4-.25,0-.29.9-.47,2.2-.47C264.65,6.62,268.14,9.14,268.14,11.63ZM284.53,7c0,.58-2,4-3.5,6.09A54,54,0,0,1,265.69,27a4.32,4.32,0,0,0-.68.46c-.22.18-.43.4-.68.58a1,1,0,0,1-.51.22,4.74,4.74,0,0,1-2.52-1.51c-1.37-1.3-1.87-2.06-1.87-2.85s.21-1.44.5-1.44c.11,0,.15,0,.33.36a2.91,2.91,0,0,0,2.12.87c1.95,0,5.29-1.77,9.22-4.86A79.65,79.65,0,0,0,283.74,7.16c.25-.28.39-.43.54-.43A.32.32,0,0,1,284.53,7Z"/><path class="cls-2" d="M316.51,15.62c1.8-4.07,2.34-5.76,2.34-7.34a2.21,2.21,0,0,0-1.08-2c-.11,0-.15-.07-.15-.11,0-.25.47-.43,1.08-.43,1,0,1.59.29,2.81,1.29,1.62,1.34,2.16,2.06,2.16,2.88,0,.22-.07.36-.36.65-1.15,1-7.31,10.73-8.5,13.36,4.94-.83,6.92-1.23,12.72-2.63a9.94,9.94,0,0,0-3-3.71c-.29-.22-.4-.36-.4-.54a.25.25,0,0,1,.26-.25,12,12,0,0,1,3.56,1.44c3.28,1.87,5.87,5.43,5.87,8a2.29,2.29,0,0,1-2.16,2.37c-.76,0-1.15-.47-1.62-1.91a21.47,21.47,0,0,0-1.73-4.21c-3.56,1.26-7.6,2.52-12.85,4.07-2.78.83-3.28,1-4.15,1.65a1.57,1.57,0,0,1-.82.36c-.51,0-1.08-.39-2-1.36-1.19-1.23-1.55-1.8-1.55-2.56,0-.58.18-1,.43-1,.08,0,.08,0,.4.33a2.39,2.39,0,0,0,1.73.47,25.85,25.85,0,0,0,2.88-.22C313.73,21.56,314.85,19.33,316.51,15.62Z"/><path class="cls-2" d="M364.69,13.79c-.29,4.57-.58,6.44-1.4,8.89-1.41,4.07-4.07,6.77-8.47,8.64a12.11,12.11,0,0,1-2.81.93c-.14,0-.32-.14-.32-.25s0-.25,1.33-.9c5.55-2.77,8.54-8.85,8.54-17.21a40.15,40.15,0,0,0-5.08.51c0,.83,0,.9.07,2.7s.07,3.49.11,3.52c0,.4.07.69.07.83a1.14,1.14,0,0,1-1.11,1.08,2.35,2.35,0,0,1-1.62-.82,3.48,3.48,0,0,1-.87-1.59c0-.11,0-.25.07-.5a15.23,15.23,0,0,0,.22-3.17V15c-1.59.29-1.62.33-2.56.51-.43.07-.79.18-1.11.25-1,.29-1.52.47-1.59.47a3.35,3.35,0,0,1-1,.25A3.77,3.77,0,0,1,345,14.9a2.89,2.89,0,0,1-.72-1.87c0-.25.07-.36.21-.36s.11,0,.22.18c.39.47,1.66.76,3.35.76.68,0,1.8-.07,5.36-.4l0-1.12c0-.46,0-.82,0-1.07l-.07-1c0-2.12-.69-3.13-2.41-3.49-.22,0-.36-.07-.36-.18s.25-.36.57-.47l.54-.18a4,4,0,0,1,1.15-.28c1.52,0,3.79,1.29,3.79,2.12a2.14,2.14,0,0,1-.08.4,4.17,4.17,0,0,0-.07,1v2.23l0,.76c0,.14,0,.54,0,1,1.05-.08,1.41-.11,2.2-.22l2.92-.32c0-1-.07-2.06-.11-2.34-.11-5.29-.18-5.47-1.84-6-.11,0-.18-.11-.18-.18,0-.33,1-.69,1.88-.69a4.81,4.81,0,0,1,3.34,1.48,2.49,2.49,0,0,1,.8,1.08,1.92,1.92,0,0,1-.18.5,11.55,11.55,0,0,0-.51,4.32c0,.18,0,.83,0,1.44a15,15,0,0,0,5.62-1.62c2,.36,4,1.8,4,2.88a1,1,0,0,1-1.15.94,12.42,12.42,0,0,1-1.37-.11c-1.08-.15-3.56-.33-4.61-.33-.11,0-.65,0-1.4,0Z"/><path class="cls-2" d="M404.12,13.79c-.29,4.57-.57,6.44-1.4,8.89-1.41,4.07-4.07,6.77-8.46,8.64a12.42,12.42,0,0,1-2.81.93c-.15,0-.33-.14-.33-.25s0-.25,1.34-.9C398,28.33,401,22.25,401,13.89a40.54,40.54,0,0,0-5.08.51c0,.83,0,.9.07,2.7s.08,3.49.11,3.52c0,.4.08.69.08.83a1.14,1.14,0,0,1-1.12,1.08,2.35,2.35,0,0,1-1.62-.82,3.48,3.48,0,0,1-.87-1.59,4.7,4.7,0,0,1,.08-.5,16.19,16.19,0,0,0,.21-3.17V15c-1.58.29-1.62.33-2.56.51-.43.07-.79.18-1.11.25-1,.29-1.51.47-1.59.47a3.27,3.27,0,0,1-1,.25,3.8,3.8,0,0,1-2.23-1.55,2.89,2.89,0,0,1-.72-1.87c0-.25.07-.36.21-.36s.11,0,.22.18c.4.47,1.66.76,3.35.76.68,0,1.8-.07,5.37-.4l0-1.12c0-.46,0-.82,0-1.07l-.07-1c0-2.12-.68-3.13-2.41-3.49-.22,0-.36-.07-.36-.18s.25-.36.57-.47l.54-.18a4,4,0,0,1,1.16-.28c1.51,0,3.78,1.29,3.78,2.12a3.09,3.09,0,0,1-.07.4,3.66,3.66,0,0,0-.08,1v2.23l0,.76c0,.14,0,.54,0,1,1-.08,1.4-.11,2.19-.22l2.92-.32c0-1-.07-2.06-.11-2.34-.11-5.29-.18-5.47-1.83-6-.11,0-.18-.11-.18-.18,0-.33,1-.69,1.87-.69a4.83,4.83,0,0,1,3.35,1.48,2.53,2.53,0,0,1,.79,1.08,1.59,1.59,0,0,1-.18.5,11.85,11.85,0,0,0-.5,4.32c0,.18,0,.83,0,1.44a15,15,0,0,0,5.62-1.62c2,.36,4,1.8,4,2.88a1,1,0,0,1-1.16.94,12.45,12.45,0,0,1-1.36-.11c-1.08-.15-3.57-.33-4.61-.33-.11,0-.65,0-1.41,0Z"/><path class="cls-2" d="M426.52,15.15c0-1.94.07-3.31.07-4.06,0-3.35-.32-4.11-2.08-4.79-.11,0-.18-.11-.18-.18,0-.29,1.37-.76,2.26-.76a5.89,5.89,0,0,1,2.67,1c.83.54,1.12,1,1.12,1.62a5.64,5.64,0,0,1-.18,1.22,59.93,59.93,0,0,0-.65,7.88,43,43,0,0,0,7.16-4.28,3.38,3.38,0,0,0,1.52-2.34,1.25,1.25,0,0,0-.29-.83c-.15-.22-.18-.29-.18-.36s.18-.25.5-.25a6.41,6.41,0,0,1,2.16.47,11.28,11.28,0,0,1,2.24,1.91,1.63,1.63,0,0,1,.46,1c0,.5-.46.82-2.8,1.83a59.62,59.62,0,0,1-10.81,3.93c-.11,1.94-.11,2.23-.11,2.95,0,4.14.87,5.11,4.61,5.11a14.41,14.41,0,0,0,7.06-1.44c2,.14,3.82,1.15,3.82,2.09,0,.68-.54,1.22-1.62,1.55a31,31,0,0,1-7.38.79c-4.65,0-6.63-.62-8.07-2.56-1-1.44-1.33-2.91-1.33-7.27Zm19-8.27A1.49,1.49,0,0,1,444,8.24c-.54,0-.72-.18-1.22-1.08a5.55,5.55,0,0,0-3.14-2.41.3.3,0,0,1-.25-.25c0-.29.54-.43,1.52-.43C443.3,4.07,445.54,5.4,445.54,6.88Zm4.35-2.7a1.57,1.57,0,0,1-1.58,1.4c-.54,0-.72-.14-1.3-1.12a5.35,5.35,0,0,0-3.13-2.34.34.34,0,0,1-.25-.25c0-.25.68-.47,1.55-.47C447.59,1.4,449.89,2.77,449.89,4.18Z"/></g></g></g></svg>