<svg xmlns="http://www.w3.org/2000/svg" viewBox="0 0 417.1 32.31"><defs><style>.cls-1{fill:#343434;}</style></defs><title>hellowoods-tsubasa-title</title><g id="Layer_2" data-name="Layer 2"><g id="Layer_1-2" data-name="Layer 1"><path class="cls-1" d="M23.64,21.34a1.82,1.82,0,0,1-1.8,1.9c-.65,0-.9-.21-1.73-1.44a20.79,20.79,0,0,0-2.77-3.52c-3.6,4.42-6.4,6.87-10,9-2.12,1.18-6.22,2.88-7,2.88A.32.32,0,0,1,0,29.79c0-.18.14-.29,1.08-.75,4.82-2.56,9.79-7.09,14-12.85a17.41,17.41,0,0,0-6.69-4.28c-.61-.18-.79-.29-.79-.5s.25-.33.61-.33a17.91,17.91,0,0,1,8.35,2.7C18,10.9,18.78,8.53,18.78,7a3.13,3.13,0,0,0-1-2.52c-.07-.07-.1-.11-.1-.15S18,4,18.17,4A6.65,6.65,0,0,1,21.23,5.4c1.19.9,2.27,2.23,2.27,2.77,0,.25-.11.39-.51.68s-.43.4-.9,1.37a42.23,42.23,0,0,1-2.91,5.36C22.27,17.88,23.64,19.65,23.64,21.34Z"/><path class="cls-1" d="M53.32,13.21c-1.73,5.93-2.34,7.33-4.46,10.21a20,20,0,0,1-8.53,6.66,13.7,13.7,0,0,1-2.7.94.29.29,0,0,1-.32-.26c0-.1.1-.21.28-.32,6.19-3.13,10.58-9,12.24-16.41a36.12,36.12,0,0,0-5.22,1.91,1.12,1.12,0,0,1-.57.14,4,4,0,0,1-2.06-1,3.07,3.07,0,0,1-1.08-2.27c0-.54.08-.72.26-.72s.14,0,.28.29a2.62,2.62,0,0,0,2.13.72,42.78,42.78,0,0,0,6.62-.83,34.44,34.44,0,0,0,.39-4.71c0-1.73-.43-2.59-1.4-2.95,0-.44.58-.69,1.3-.69,1.4,0,4.49,2,4.49,2.92,0,.18-.07.28-.43.75-.36,1.66-.5,2.34-.93,4,.5-.11.93-.18,1.08-.21,2.69-.51,3.23-.65,4.53-1.44.86-.51.9-.54,1.11-.54.72,0,3.57,2,3.57,2.55,0,.22,0,.22-.72,1-.33.39-.44.79-.65,2.23C61.45,22,60.26,25.29,58.25,27.67a5.22,5.22,0,0,1-3.49,1.62c-.47,0-.79-.22-.79-.51a1,1,0,0,1,0-.25v-.25a7.14,7.14,0,0,0-1.62-3.85c-.43-.58-.47-.61-.47-.72a.24.24,0,0,1,.26-.21.67.67,0,0,1,.28.1,10.3,10.3,0,0,0,3.06,1.48c1.62,0,3.78-6.69,3.78-11.8,0-.87-.14-1.08-.65-1.08a30.65,30.65,0,0,0-4.21.79ZM64.18,6.44a1.5,1.5,0,0,1-1.51,1.33c-.57,0-.79-.18-1.22-1a5.34,5.34,0,0,0-3.1-2.45c-.21-.07-.28-.14-.28-.25,0-.29.64-.47,1.54-.47C62,3.63,64.18,5,64.18,6.44ZM68.47,4a1.49,1.49,0,0,1-1.59,1.33,1,1,0,0,1-1-.68A5.23,5.23,0,0,0,62.49,2c-.18-.07-.28-.15-.28-.29s.64-.43,1.58-.43C66.2,1.26,68.47,2.59,68.47,4Z"/><path class="cls-1" d="M85.77,17.13A2.06,2.06,0,0,1,83.68,19c-.5,0-.83-.25-1.26-1a9.14,9.14,0,0,0-4.71-4.32c-.33-.15-.36-.18-.36-.29S78.43,13,79.61,13C82.74,13,85.77,15,85.77,17.13Zm-6.3,7.7c.22.72.83,1,2.37,1,1.88,0,4.79-1.4,8.86-4.25A59.63,59.63,0,0,0,104,8.56c.36-.5.47-.61.65-.61s.21.15.21.29c0,.4-.39,1.22-1.47,3.24a46.89,46.89,0,0,1-6.91,9.1,67.58,67.58,0,0,1-11.66,8.78,5.24,5.24,0,0,0-.72.47c-.57.47-.68.54-1,.54-.58,0-1.58-.69-2.88-1.95a3.82,3.82,0,0,1-1.37-2.62c0-.58.22-1,.51-1h.07ZM90,10.36a2,2,0,0,1-2.16,2c-.75,0-1-.18-1.54-1.26a8.3,8.3,0,0,0-5.15-4c-.25-.08-.32-.15-.32-.26,0-.32,1.58-.64,3.13-.64C87.21,6.12,90,8.1,90,10.36Zm11.08-4.75A1.39,1.39,0,0,1,99.58,7c-.61,0-.75-.15-1.29-1.12a5.62,5.62,0,0,0-3-2.7c-.25-.07-.32-.14-.32-.29s.36-.28,1.26-.28C98.76,2.63,101.09,4.07,101.09,5.61Zm4.5-2.23A1.5,1.5,0,0,1,104,4.82c-.61,0-.72-.11-1.22-.93a6.36,6.36,0,0,0-3.42-2.77c-.22,0-.29-.11-.29-.26S99.62.5,100.77.5C103.25.5,105.59,1.87,105.59,3.38Z"/><path class="cls-1" d="M124.19,19.18a1.84,1.84,0,0,1-1.66,2,1,1,0,0,1-1-.79,9.66,9.66,0,0,0-3.27-4.86c-.33-.21-.4-.28-.4-.43s.11-.21.47-.21C121.49,14.9,124.19,16.91,124.19,19.18Zm2.63,10.22c-2.2,1.36-6,2.87-7.42,2.87-.18,0-.36-.14-.36-.28s0-.18.9-.54a28.81,28.81,0,0,0,9.9-7.67c2.84-3.42,4.78-7.62,4.78-10.47a2.39,2.39,0,0,0-.46-1.54c-.36-.33-.36-.33-.36-.4s.25-.36.57-.36A3.64,3.64,0,0,1,137,12.2a5.77,5.77,0,0,1,1.76,2.48c0,.25-.07.32-.68,1A29.52,29.52,0,0,1,126.82,29.4Zm3.31-12.6a1.92,1.92,0,0,1-1.8,2c-.62,0-.9-.36-1.15-1.33-.58-2.34-2-4.43-3.39-5.11-.18-.07-.25-.18-.25-.29s.18-.21.4-.21C126.92,11.84,130.13,14.43,130.13,16.8Z"/><path class="cls-1" d="M164.55,27c-3,1.87-8,3.74-9.89,3.74-.18,0-.33-.11-.33-.25s.11-.22.33-.29a26.62,26.62,0,0,0,11.76-8.09,23,23,0,0,0,5-8.57,10.62,10.62,0,0,0,.68-2.73c0-.58-.32-.79-1.11-.79a45.25,45.25,0,0,0-7.13,1.22,15.19,15.19,0,0,0-4.31,1.51,1.17,1.17,0,0,1-.62.25,4.67,4.67,0,0,1-2.15-1A3.46,3.46,0,0,1,155.52,9c0-.29.11-.51.29-.51s.14.07.29.25a3.27,3.27,0,0,0,2.73,1A83.13,83.13,0,0,0,168,8.67a10.44,10.44,0,0,0,4.29-1.44c.71-.43.89-.5,1.22-.5s1,.32,3.06,1.76c.75.51,1.26,1,1.26,1.26s-.33.58-1.66,1.51C172.94,19.29,169.59,23.82,164.55,27ZM182.9,3.63A3.62,3.62,0,1,1,179.34,0,3.63,3.63,0,0,1,182.9,3.63Zm-5.83,0a2.22,2.22,0,1,0,2.24-2.2A2.22,2.22,0,0,0,177.07,3.6Z"/><path class="cls-1" d="M209.88,23.85a25.77,25.77,0,0,1-9.39,6.73,20.06,20.06,0,0,1-5.43,1.23c-.25,0-.4-.11-.4-.29s.11-.25.4-.33a22.74,22.74,0,0,0,10.25-6.4A23.93,23.93,0,0,0,210,17.16a9.88,9.88,0,0,0,1-2.73c0-.43-.43-.65-1.19-.65a46.57,46.57,0,0,0-11,2.45c-1.16.54-1.16.54-1.41.54-1.54,0-3.52-2.09-3.52-3.71,0-.57.1-.86.32-.86s.18.07.32.32a3.72,3.72,0,0,0,3,1.19,91.51,91.51,0,0,0,11.15-1.48,8.8,8.8,0,0,0,2.77-.86c1-.43,1.15-.5,1.4-.5.51,0,1.12.43,2.74,2.05.79.79.79.79.79,1.11a.66.66,0,0,1-.14.4,1.21,1.21,0,0,1-.44.25,2.88,2.88,0,0,0-.79.47C212.91,19.61,211.61,21.84,209.88,23.85ZM197.22,5.94a4,4,0,0,0,2.59.72,32.84,32.84,0,0,0,6.44-1A6.41,6.41,0,0,0,208.16,5c.57-.33.75-.4,1-.4,1.26,0,3.34,1.26,3.34,2.05,0,.43-.43.68-1.29.83-1.55.18-2.66.36-4.43.72a34.54,34.54,0,0,1-5.93.86,3.81,3.81,0,0,1-3.1-1.37,4.87,4.87,0,0,1-1-1.72.23.23,0,0,1,.22-.18C197,5.76,197.07,5.79,197.22,5.94Z"/><path class="cls-1" d="M246,30.37c0,1.08-.57,1.94-1.29,1.94-.87,0-3-2-3-2.81,0-.21,0-.21.32-1.15a15.25,15.25,0,0,0,.62-4.82c.14-3.45.18-4.93.18-6.73a4.83,4.83,0,0,0-.26-2.08c-4.82,4.53-6.51,5.75-10.18,7.34a16.43,16.43,0,0,1-3.49,1.22.28.28,0,0,1-.29-.25c0-.18,0-.18.69-.51,6.62-3.38,16.33-14.14,16.33-18.13a1.52,1.52,0,0,0-.86-1.55c-.14-.07-.22-.14-.22-.21s.36-.33,1.05-.33c1.15,0,1.83.36,2.95,1.51,1.29,1.3,1.83,2.05,1.83,2.52,0,.25-.14.43-.47.61a3.68,3.68,0,0,0-1.25,1.16c-1.08,1.29-2.2,2.55-4.68,5.21.36.18.72.36.83.4,1.18.54,1.4.72,1.4,1.08s0,.21-.32.75a10.54,10.54,0,0,0-.26,2.38s.07,3,.15,6.33.18,5,.18,5Z"/><path class="cls-1" d="M278.63,11.66a2,2,0,0,1-2,1.9c-.72,0-1-.28-1.54-1.36a10.5,10.5,0,0,0-5.26-4.82c-.29-.08-.39-.15-.39-.26,0-.28.9-.46,2.19-.46C275.14,6.66,278.63,9.18,278.63,11.66ZM295,7c0,.57-2,4-3.49,6.08A54,54,0,0,1,276.19,27a4.4,4.4,0,0,0-.69.47c-.21.18-.43.39-.68.57a1,1,0,0,1-.51.22,4.72,4.72,0,0,1-2.51-1.51c-1.37-1.3-1.88-2.05-1.88-2.84s.22-1.44.51-1.44c.11,0,.14,0,.32.36a2.93,2.93,0,0,0,2.13.86c1.94,0,5.28-1.76,9.21-4.86A79.39,79.39,0,0,0,294.21,7.2c.25-.29.4-.44.54-.44A.31.31,0,0,1,295,7Z"/><path class="cls-1" d="M345.33,16.77a10,10,0,0,1-5.54,8.92,31.73,31.73,0,0,1-9.46,3.24,16.35,16.35,0,0,1-2.45.32c-.32,0-.5-.11-.5-.25s.14-.29.72-.4a25.25,25.25,0,0,0,6-2.41c4.64-2.66,6.87-5.79,6.87-9.53,0-4.1-2.23-6.73-5.72-6.73-4,0-9.5,2.74-13.85,7-1,1-1.62,1.33-2.41,1.33a6.15,6.15,0,0,1-3.38-1.62A3.52,3.52,0,0,1,314.39,14c0-.79.11-1.19.32-1.19s.18.08.29.25a2.67,2.67,0,0,0,2.63,1.37,3.77,3.77,0,0,0,2.16-.68c2.91-1.62,4.82-2.63,6.19-3.24a22.66,22.66,0,0,1,9.31-2.19C341.16,8.28,345.33,11.84,345.33,16.77Z"/><path class="cls-1" d="M361.7,18.13a5.55,5.55,0,0,1-.18.9,30.69,30.69,0,0,0-1.22,7.16,8.82,8.82,0,0,0,.61,3.67,1.83,1.83,0,0,1,.18.58,1.78,1.78,0,0,1-1.66,1.47c-2.52,0-4.53-4.42-4.53-9.85a41.67,41.67,0,0,1,1.26-9.32,28.83,28.83,0,0,0,1-5.62,4.2,4.2,0,0,0-1.08-3c-.26-.18-.29-.26-.29-.33s.11-.14.21-.14a4.58,4.58,0,0,1,2.09.65,5.07,5.07,0,0,1,2.81,4.21c0,.93-.15,1.4-1.33,3.85a23.93,23.93,0,0,0-2.34,9.6,12,12,0,0,0,.36,3,.51.51,0,0,0,.5.39c.47,0,.58-.21,1.58-3.13.33-.93.62-1.76.87-2.41s.39-.93.43-1.11c.22-.61.32-.76.5-.76A.24.24,0,0,1,361.7,18.13Zm18.71-9.24a1.09,1.09,0,0,1,.32,0c.47,0,.83.5.83,1.15,0,1.77-1.8,3.1-5.65,4.25.18,2.05.18,2.34.51,5.61.17,2,.21,2.52.25,3.78,4.31,1.44,6.73,3.31,6.73,5.18a1.68,1.68,0,0,1-1.73,1.8,2.15,2.15,0,0,1-1.44-.54c-.18-.11-.18-.11-1-1.33a9.47,9.47,0,0,0-2.77-2.41,4.91,4.91,0,0,1-1.12,2.52A6.45,6.45,0,0,1,370.08,31c-3.31,0-5.79-1.7-5.79-3.93,0-2.44,2.77-4.13,6.76-4.13.76,0,1.77.07,2.59.14,0-1.94-.18-5.83-.43-8.28a16.85,16.85,0,0,1-3.34.36,4.45,4.45,0,0,1-4.21-2.08,4.64,4.64,0,0,1-.69-1.87c0-.11.07-.26.18-.26s.15,0,.29.29A4,4,0,0,0,369,12.74a22.08,22.08,0,0,0,4.21-.51c-.15-5.72-.15-5.72-.54-6.65-.36-.76-.87-1.26-1.37-1.26l-.29,0h-.14a.2.2,0,0,1-.22-.18c0-.36,1.41-.93,2.3-.93,1.41,0,3.93,1.62,3.93,2.52a1.09,1.09,0,0,1-.15.5,5.23,5.23,0,0,0-.5,1.58,7.77,7.77,0,0,0,3.74,1.05Zm-6.87,16.3a9.24,9.24,0,0,0-3.35-.69c-2.05,0-3.56,1-3.56,2.34,0,.94,1.11,1.66,2.52,1.66,2.77,0,4-.9,4.35-3.13ZM376,8.42a23.38,23.38,0,0,0-.14,3.13c1.58-.54,2.48-1.12,2.48-1.55,0-.11-.14-.21-.36-.36-.39-.21-.5-.29-.9-.54a7.22,7.22,0,0,1-.72-.46Zm7-2.52a1.37,1.37,0,0,1-1.4,1.44c-.61,0-.83-.18-1.19-.86a5.77,5.77,0,0,0-3.06-3c-.25-.07-.32-.14-.32-.32s.29-.29,1.15-.29C380.73,2.84,383,4.25,383,5.9Zm3-3.06a1.42,1.42,0,0,1-1.44,1.41,1.06,1.06,0,0,1-1-.62,6.4,6.4,0,0,0-3.28-3c-.39-.11-.5-.15-.5-.29S380.3,0,381.38,0C383.75,0,386,1.37,386,2.84Z"/><path class="cls-1" d="M406.56,3.74c-.86,0-1.51.47-1.51,1a1.41,1.41,0,0,0,.5.93l3.13,3.67c1.91-.93,3.28-2.12,3.28-2.88,0-.18-.36-.57-1-1-.18-.11-.25-.18-.25-.29a.16.16,0,0,1,.14-.15.23.23,0,0,1,.14,0,9.93,9.93,0,0,0,2.52.5c.15,0,.15,0,1-.07a1.44,1.44,0,0,1,.32,0,1.42,1.42,0,0,1,1.44,1.29c0,1.22-2.66,3.38-5.9,4.79,5.15,5.54,6.69,7.88,6.69,10.18s-.79,3.34-2.37,3.34a1.37,1.37,0,0,1-1.22-.54A20.6,20.6,0,0,0,409,21.44a11.71,11.71,0,0,0-4.57-1.18c-3.05,0-4.89,1.72-4.89,4.49,0,2.45,2.7,3.82,7.45,3.82a6,6,0,0,0,1.91-.22,3.7,3.7,0,0,1,.9-.14A2.56,2.56,0,0,1,412,30.48c0,1-1.87,1.72-4.32,1.72a16.11,16.11,0,0,1-7.66-1.76,6.2,6.2,0,0,1-3-5.18c0-3.64,3.06-6.12,7.56-6.12a15,15,0,0,1,7.3,1.76,1.72,1.72,0,0,0,.61.22.27.27,0,0,0,.29-.29c0-1.8-1.33-4.42-4.28-8.42a24.5,24.5,0,0,1-8.1,1.66,5.81,5.81,0,0,1-5.57-3.17,4.69,4.69,0,0,1-.47-1.29c0-.07.07-.15.11-.15a.21.21,0,0,1,.18.11c1.15,1.22,2.55,1.69,5.07,1.69a21.71,21.71,0,0,0,6.87-1.15,16.35,16.35,0,0,0-4.13-3.85c-1.34-.9-1.48-1.08-1.48-1.69a3.12,3.12,0,0,1,3-2.7c1,0,3.45,1.3,3.45,1.76,0,.11-.1.18-.25.18l-.36-.07Z"/></g></g></svg>