<svg xmlns="http://www.w3.org/2000/svg" viewBox="0 0 264.31 32.86"><defs><style>.cls-1{fill:#333;}</style></defs><title>title-field-info</title><g id="レイヤー_2" data-name="レイヤー 2"><g id="レイヤー_1-2" data-name="レイヤー 1"><path class="cls-1" d="M11,24.91A29.93,29.93,0,0,1,1.3,29.05a2.83,2.83,0,0,1-.47.11,2.49,2.49,0,0,1-.33.07c-.21,0-.5-.18-.5-.36s.11-.22.54-.36a38.27,38.27,0,0,0,9.72-5.36,30.64,30.64,0,0,0,7.23-8.79A13.69,13.69,0,0,0,19.08,10c0-.58-.43-.9-1.08-.9A47.27,47.27,0,0,0,6,11.19a1.78,1.78,0,0,1-.61.18,4.7,4.7,0,0,1-2.05-1.08,2.68,2.68,0,0,1-.83-1.9c0-.69.11-1,.36-1s.14.07.25.32C3.35,8.39,4.61,9,6,9s6-.47,9.5-1a6.53,6.53,0,0,0,3.09-.93c.8-.47.87-.51,1.19-.51s.54.11,1.15.51c.15.07.44.28.83.53C23.72,8.78,24,9,24,9.25s-.36.65-1.62,1.4C18.43,18.43,15.73,21.85,11,24.91Z"/><path class="cls-1" d="M49.57,27.75s0,.79.07,1.51c0,.54,0,1,0,1.41,0,.9-.25,1.37-.79,1.37-.94,0-2-.83-2-1.52a4,4,0,0,1,.07-.54,85.93,85.93,0,0,0,.76-10.72,3.34,3.34,0,0,0-.33-1.84,41.87,41.87,0,0,1-7.41,6,18.86,18.86,0,0,1-4,1.8c-.22,0-.4-.14-.4-.29s.07-.1.18-.18c2-.82,5.44-3.52,8.53-6.62,3.39-3.38,6.12-7,6.12-8.1,0-.36-.5-.86-1.08-1-.18,0-.25-.1-.25-.25s.58-.47,1.26-.47a3.45,3.45,0,0,1,1.87.8c1.19.79,1.62,1.22,1.62,1.76a.41.41,0,0,1-.29.43,2,2,0,0,0-1.11.9A42,42,0,0,1,48,16.77c1.87.83,2,.9,2,1.19a1.39,1.39,0,0,1-.08.36A6.75,6.75,0,0,0,49.57,21Z"/><path class="cls-1" d="M75.07,19.44a4.93,4.93,0,0,1-1.32.25,3.54,3.54,0,0,1-2.54-1.94,13.64,13.64,0,0,1-.2-2c0-.25.09-.43.23-.43s.15.07.23.25c.38,1,1.07,1.4,2.74,1.4a108.41,108.41,0,0,0,16.64-1.47,5.5,5.5,0,0,1,.78-.07,1.78,1.78,0,0,1,1.53.79c.54.65.74,1,.74,1.33,0,.54-.57.86-1.49.86-.23,0-.55,0-1.07,0s-3-.11-4.17-.11A63,63,0,0,0,75.07,19.44Z"/><path class="cls-1" d="M117.18,9.65c1.08.57,1.87,1.29,1.87,1.62,0,.14,0,.18-.32.43a2.77,2.77,0,0,0-.47,1.33,31.35,31.35,0,0,1-3.46,8.75c-1.94,3.2-6.22,7.38-7.59,7.38a.41.41,0,0,1-.43-.4c0-.14.1-.29.36-.43a19.55,19.55,0,0,0,5-5.94c1.9-3.28,3.42-8.1,3.42-10.87a2,2,0,0,0-1.19-1.95c-.18-.07-.25-.18-.25-.28s.21-.29.5-.29A6.07,6.07,0,0,1,117.18,9.65Zm5,6.08c0-3.17.07-4.82.07-4.9a4,4,0,0,0-.29-2.08,1.91,1.91,0,0,0-.72-.51c-.21,0-.29-.07-.29-.21s.72-.51,1.15-.51a4.07,4.07,0,0,1,2.31,1c.93.65,1,.76,1,1s0,.18-.29.51a7.49,7.49,0,0,0-.64,2.88c-.11,1.33-.36,6.87-.36,8.1,0,.5.18.72.57.72,1.33,0,4.14-1.62,6.73-3.89a40,40,0,0,0,7.13-8.28c.22-.43.32-.54.47-.54a.49.49,0,0,1,.39.43,20.7,20.7,0,0,1-2.7,4.86,32.81,32.81,0,0,1-5.57,6.23,31,31,0,0,1-5,3.42,4.85,4.85,0,0,0-2.2,1.58.36.36,0,0,1-.21.11c-.58,0-2.27-2-2.27-2.63a1.49,1.49,0,0,1,.14-.43,3.82,3.82,0,0,0,.47-2.45Z"/><path class="cls-1" d="M160.49,15.12c0,6.44.1,9.86.28,12.27.08.76.11,1.3.11,1.62,0,1.51-.54,2.63-1.29,2.63s-1.91-1.62-1.91-2.52a4.67,4.67,0,0,1,.11-.94c.29-2,.57-10,.57-17.17,0-3.38-.11-4.57-.57-5.32a1.92,1.92,0,0,0-1.73-.9c-.25,0-.36-.11-.36-.33s.11-.25.32-.32a9.32,9.32,0,0,1,2.2-.61c.54,0,1,.25,2.63,1.26.46.32.68.57.68.83a1.86,1.86,0,0,1-.18.68c-.58,1-.79,2.66-.86,6.69a15.17,15.17,0,0,1,7.56,2.34c1.94,1.34,2.84,2.49,2.84,3.64a1.47,1.47,0,0,1-1.51,1.58c-.79,0-1.23-.32-2.09-1.72a12.7,12.7,0,0,0-6.8-5.26Zm11.59-5.91a1.23,1.23,0,0,1-1.15,1.23c-.54,0-.8-.18-1.08-.76a6.41,6.41,0,0,0-3.5-2.91c-.14-.08-.21-.11-.21-.18s.43-.26,1-.26C169.7,6.33,172.08,7.74,172.08,9.21Zm4-2.08a1.23,1.23,0,0,1-1.16,1.22,1,1,0,0,1-1-.68,6.74,6.74,0,0,0-3.67-3.06c-.11,0-.18-.11-.18-.18s.43-.25,1-.25C173.59,4.18,176,5.62,176,7.13Z"/><path class="cls-1" d="M193.5,15.62c2.95-4.61,3.42-5.4,6.41-10.72L202,6.33a1.06,1.06,0,0,1,.51.76c0,.22-.26.4-.62.5l-.75.26-6.45,7.77,5.55-.43a4.7,4.7,0,0,0-1.44-2.48l.14-.29a6.35,6.35,0,0,1,2.88,1.76,4.18,4.18,0,0,1,1.23,2.63,1.39,1.39,0,0,1-1.3,1.48c-.58,0-.72-.26-1.19-2.06l-2.66.47V31.78c0,.58-.69,1-1.59,1a.37.37,0,0,1-.39-.33V17l-4.36.75-.43.76a.6.6,0,0,1-.5.32c-.22,0-.44-.25-.58-.68l-.86-2.38ZM194,20.3a.71.71,0,0,1,.68.72.88.88,0,0,1-.61.79l-.4.18c-.07.26-.14.44-.14.47l-.43,1.87a29.49,29.49,0,0,1-2.45,6.19c-.43.8-.58,1-.83,1a.33.33,0,0,1-.32-.36,1.11,1.11,0,0,1,.11-.39,34.82,34.82,0,0,0,1.9-11ZM190,5.11a11,11,0,0,1,3.35,1.73A45.74,45.74,0,0,0,196.52.4l2.2,1.47a.73.73,0,0,1,.36.58c0,.32-.22.5-.65.61l-.68.14L194,7.49a3.69,3.69,0,0,1,1,2.3,1.36,1.36,0,0,1-1.26,1.48,1.2,1.2,0,0,1-.83-.36c-.1-.11-.1-.11-.68-2.16a7.24,7.24,0,0,0-2.34-3.21ZM199.55,20c2.52,1.84,3.78,3.71,3.78,5.73,0,1-.51,1.65-1.26,1.65a1.3,1.3,0,0,1-.76-.25c-.18-.18-.18-.18-.36-2.38a11.55,11.55,0,0,0-1.69-4.49Zm7.92-15.87c-.58,0-1.3,0-2.13,0l-2.16.07-.39-1.12c2.37.11,3.31.15,4.6.15h10.23l.93-1.37,2.31,2a1.28,1.28,0,0,1,.43.75c0,.22-.22.44-.54.54l-.76.26-.36,3.63c-.36,3.89-.72,5.15-1.83,6.62A3.84,3.84,0,0,1,215,17.1c-.33,0-.47-.18-.62-.87a.85.85,0,0,0-.18-.5,3.63,3.63,0,0,0-.75-.36l-2.45-1,.07-.51,2.34.33a8.6,8.6,0,0,0,1.33.1c1.62,0,2.24-1,2.6-4.5a43.51,43.51,0,0,0,.39-5.61H211c-.61,5-1.3,7.31-3,10a17.37,17.37,0,0,1-4.32,4.72A5.88,5.88,0,0,1,201.82,20a.48.48,0,0,1-.33-.32c0-.11,0-.11.9-1,4-3.78,5.8-8.1,6.26-14.58Zm1.44,14.43h8.42l1-1.51L220.6,19a.86.86,0,0,1,.36.5c0,.18-.25.44-.54.51l-.68.21V30.78c0,.5-.93,1-1.83,1-.37,0-.47-.15-.47-.61V29.41h-8.79v1.83c0,.65-.79,1.19-1.76,1.19a.35.35,0,0,1-.39-.36V17.17Zm8.53,9.94v-9h-8.79v9Z"/><path class="cls-1" d="M248.29,1.08c.36.14.58.36.58.65a.65.65,0,0,1-.29.54l-.43.29c3.38,5.5,9,9.71,16.16,12.2a7.21,7.21,0,0,0-3.42,2.66,33.78,33.78,0,0,1-13.72-14.5,51.28,51.28,0,0,1-7.77,10.15,38.48,38.48,0,0,1-7,5.5,4.35,4.35,0,0,1-1.37.69.35.35,0,0,1-.29-.33c0-.14.18-.36.44-.54,5.72-4,10.87-10.8,14-18.39Zm-4,12c.79.07,1,.25,1,.76a.92.92,0,0,1-.39.68l-.79.65v.65l0,3.45c0,3.46-.68,6.3-1.87,8.07-1.37,2-4.14,3.78-7.45,4.86a14.1,14.1,0,0,1-2.52.64c-.29,0-.43-.1-.43-.36s.14-.32.5-.43a14.82,14.82,0,0,0,7-4.39c1.62-1.91,2.27-4.5,2.27-9a45.3,45.3,0,0,0-.4-5.8Zm8.17,0c.76.1,1,.28,1,.68,0,.25-.15.47-.54.68l-.76.51V31.71c0,.29-.14.47-.57.65a4.41,4.41,0,0,1-1.12.29.69.69,0,0,1-.72-.76V12.74Z"/></g></g></svg>