<svg xmlns="http://www.w3.org/2000/svg" width="388.562" height="32.47" viewBox="0 0 388.562 32.47">
  <defs>
    <style>
      .cls-1 {
        fill: #333;
        fill-rule: evenodd;
      }
    </style>
  </defs>
  <path id="ホテルツインリンク" class="cls-1" d="M533.674,3781.99a1.317,1.317,0,0,1-.74,1.44,16.2,16.2,0,0,1-2.726-1.44,1.477,1.477,0,0,0-.662-0.35,0.347,0.347,0,0,0-.233.27,0.843,0.843,0,0,0,.311.47,8.918,8.918,0,0,1,2.96,5.22c0.117,0.66.272,0.82,0.9,0.82a3.184,3.184,0,0,0,2.415-1.37,4.889,4.889,0,0,0,1.09-3c0-.62-0.039-1.71-0.078-2.84-0.195-4.71-.311-9.81-0.272-12.07a38.409,38.409,0,0,1,5.49-.35,43.293,43.293,0,0,1,4.4.27,10.959,10.959,0,0,0,1.363.12,1.239,1.239,0,0,0,1.4-1.13c0-.93-2.492-2.53-3.933-2.53a2.527,2.527,0,0,0-1.012.27c-1.83.86-3.31,1.17-7.594,1.64,0.078-2.69.2-3.39,0.662-4.4a2.458,2.458,0,0,0,.234-0.82c0-.39-0.35-0.78-1.6-1.71a4.235,4.235,0,0,0-2.453-1.13c-0.857,0-2.453.66-2.453,1.05,0,0.15.117,0.23,0.467,0.23,1.48,0.12,1.869,1.13,1.986,5.38,0,0.27.039,0.97,0.078,1.83-4.556.5-6.737,0.7-8.333,0.7-2.376,0-3.271-.28-3.933-1.29a0.7,0.7,0,0,0-.429.74c0,1.48,2.376,3.86,3.856,3.86a1.783,1.783,0,0,0,.934-0.39,22.523,22.523,0,0,1,7.944-1.99Zm-5.841-7.94c-0.156,0-.195.04-0.273,0.23-0.662,2.53-2.842,4.75-6.035,6.19a1.609,1.609,0,0,0-1.091,1.56,2.009,2.009,0,0,0,1.947,1.95c1.285,0,2.96-1.05,4.245-2.65a7.672,7.672,0,0,0,1.713-5.06C528.339,3774.71,528.183,3774.05,527.833,3774.05Zm12.7-.86c-0.662,0-1.091.16-1.091,0.39,0,0.12.078,0.19,0.429,0.31,2.492,1.01,4.633,3.7,5.607,7.05,0.467,1.6,1.051,2.22,2.025,2.22a2.154,2.154,0,0,0,2.142-2.38C549.64,3776.97,545.123,3773.19,540.528,3773.19Zm31.316-11.37a0.334,0.334,0,0,0-.234.31,5.138,5.138,0,0,0,1.09,2.1,3.171,3.171,0,0,0,2.532,1.13,54.277,54.277,0,0,0,9.657-1.59c2.1-.47,2.881-0.82,2.881-1.37a2.03,2.03,0,0,0-1.207-1.44,6.313,6.313,0,0,0-2.025-.7,1.884,1.884,0,0,0-.7.2,16.005,16.005,0,0,1-2.375.97,26.9,26.9,0,0,1-6.931,1.29,3.935,3.935,0,0,1-2.57-.82A0.206,0.206,0,0,0,571.844,3761.82Zm8.1,8.92a1.626,1.626,0,0,1,.312,1.01c0,2.1-1.324,5.84-3.115,8.72-1.986,3.16-5.179,6.35-7.672,7.63-1.869.98-1.869,0.98-1.869,1.13a0.255,0.255,0,0,0,.312.24,27.587,27.587,0,0,0,5.685-2.26c4.829-2.65,8.684-7.67,10.826-14.02a1.448,1.448,0,0,0,.584-0.9c0-.27-0.39-0.66-1.908-1.83,2.492-.15,3-0.19,3.971-0.19a46.48,46.48,0,0,1,5.3.39,6.013,6.013,0,0,0,1.013.12,1.3,1.3,0,0,0,1.441-1.13c0-.67-0.39-1.09-1.6-1.83a7.429,7.429,0,0,0-2.648-1.21c-1.6.97-2.726,1.32-5.958,1.79-3.271.47-13.94,1.6-15.3,1.6-1.636,0-2.376-.31-3.038-1.25a0.888,0.888,0,0,0-.389.74,2.714,2.714,0,0,0,.973,1.95,6.132,6.132,0,0,0,2.96,1.52,2.09,2.09,0,0,0,.623-0.12A38.113,38.113,0,0,1,579.943,3770.74Zm44.907,8.33-0.623,2.18a6.67,6.67,0,0,0,1.44,2.53,1.527,1.527,0,0,0,1.052.66,0.989,0.989,0,0,0,.584-0.23l0.545-.43c0.156-.08.506-0.31,1.09-0.66a37.455,37.455,0,0,0,11.644-10.71c1.674-2.41,3.738-6.27,3.738-7.01a0.3,0.3,0,0,0-.312-0.27,0.635,0.635,0,0,0-.506.51,38.358,38.358,0,0,1-3.894,5.29,40.235,40.235,0,0,1-7.282,6.39,12.148,12.148,0,0,1-4.283,1.98c-0.273,0-.428-0.31-0.428-0.81,0-.24.038-0.55,0.077-0.94,0-.27.156-2.14,0.351-4.87,0.2-2.88.311-3.97,0.389-4.75a3.332,3.332,0,0,1,.39-1.2,2.6,2.6,0,0,0,.35-0.98,2.411,2.411,0,0,0-1.129-1.4c-1.636-1.28-2.064-1.52-2.8-1.52-0.662,0-1.986.59-1.986,0.9,0,0.15.078,0.19,0.39,0.27a1.619,1.619,0,0,1,.973,1.21c0.234,0.66.273,2.68,0.273,10.12Zm-3.271-9.11a5.622,5.622,0,0,1,.272-0.86,1.7,1.7,0,0,0,.156-0.54c0-.55-0.934-1.72-2.025-2.53a5.4,5.4,0,0,0-3-1.25,1.45,1.45,0,0,0-1.441.66,0.359,0.359,0,0,0,.273.27,3.064,3.064,0,0,1,1.674,3.08,25.17,25.17,0,0,1-1.986,8.22,22.7,22.7,0,0,1-7.71,10.51,1,1,0,0,0-.545.55,0.3,0.3,0,0,0,.311.27,3.751,3.751,0,0,0,1.129-.39,21.141,21.141,0,0,0,6.231-4.67,29.453,29.453,0,0,0,6.425-12.39Zm43.777-7.24c-0.506,0-.74.07-0.74,0.27a0.248,0.248,0,0,0,.234.19c1.791,0.94,3.582,3.55,4.322,6.27,0.467,1.83.7,2.18,1.558,2.18a2.419,2.419,0,0,0,2.258-2.49C672.988,3766.22,668.822,3762.72,665.356,3762.72Zm17.912,4.9c0.818-.82.9-0.89,0.9-1.24,0-.59-1.051-2.03-2.414-3.31a4.706,4.706,0,0,0-3.232-1.37,0.5,0.5,0,0,0-.584.35,0.352,0.352,0,0,0,.116.24,2.536,2.536,0,0,1,.9,2.41c0,3.82-2.765,9.62-6.7,14.18-3.738,4.24-9.034,8.13-13.006,9.61-0.428.12-.506,0.2-0.506,0.39a0.317,0.317,0,0,0,.35.28,22.1,22.1,0,0,0,3.739-.94,30.936,30.936,0,0,0,13.278-9.15A38.227,38.227,0,0,0,683.268,3767.62Zm-25.311-.89c-0.545,0-.74.07-0.74,0.27a0.219,0.219,0,0,0,.156.19,12.578,12.578,0,0,1,4.245,5.53c0.506,1.44.506,1.44,0.739,1.68a0.987,0.987,0,0,0,.818.39,2.394,2.394,0,0,0,2.1-2.61c0-1.68-1.207-3.31-3.31-4.44A10.254,10.254,0,0,0,657.957,3766.73Zm61.417,20.28c0-.03-0.078-1.83-0.194-5.41-0.078-3.58-.156-6.81-0.156-6.85a11.583,11.583,0,0,1,.272-2.57,1.283,1.283,0,0,0,.351-0.82c0-.39-0.234-0.58-1.519-1.17-0.117-.04-0.506-0.23-0.9-0.43,2.686-2.88,3.894-4.24,5.062-5.64a3.976,3.976,0,0,1,1.363-1.25,0.757,0.757,0,0,0,.506-0.66c0-.51-0.584-1.33-1.986-2.73-1.207-1.24-1.947-1.63-3.193-1.63-0.74,0-1.129.11-1.129,0.35a0.33,0.33,0,0,0,.233.23,1.664,1.664,0,0,1,.935,1.68c0,4.32-10.514,15.96-17.679,19.62-0.7.35-.74,0.35-0.74,0.55a0.3,0.3,0,0,0,.312.27,18.48,18.48,0,0,0,3.777-1.32c3.972-1.72,5.8-3.04,11.02-7.95a5.4,5.4,0,0,1,.272,2.26c0,1.95-.038,3.54-0.194,7.28a16.7,16.7,0,0,1-.662,5.22,3.359,3.359,0,0,0-.351,1.25c0,0.89,2.3,3.03,3.232,3.03,0.779,0,1.4-.93,1.4-2.1Zm31.706-24.45c-1.4,0-2.375.19-2.375,0.51,0,0.11.116,0.19,0.428,0.27a11.31,11.31,0,0,1,5.685,5.22c0.545,1.16.9,1.48,1.675,1.48a2.15,2.15,0,0,0,2.141-2.07C758.634,3765.29,754.857,3762.56,751.08,3762.56Zm25,0.12a1.023,1.023,0,0,0-.584.46c-2.376,3.16-8.022,8.61-13.123,12.62-4.245,3.35-7.866,5.26-9.969,5.26a3.148,3.148,0,0,1-2.3-.94c-0.194-.39-0.233-0.39-0.35-0.39-0.312,0-.545.74-0.545,1.56,0,0.86.545,1.68,2.025,3.08a5.1,5.1,0,0,0,2.725,1.63,1.075,1.075,0,0,0,.546-0.23c0.272-.2.506-0.43,0.74-0.62a3.939,3.939,0,0,1,.739-0.51,58.536,58.536,0,0,0,16.589-15.07c1.636-2.22,3.777-5.96,3.777-6.58A0.325,0.325,0,0,0,776.08,3762.68Zm34.12-2.5c-0.9,0-2.648.74-2.648,1.13,0,0.2.116,0.28,0.545,0.31,1.713,0.16,2.025,1.13,2.025,6.16,0,7.94-.818,11.21-3.622,14.6a21.231,21.231,0,0,1-8.567,6.11c-0.545.16-.7,0.28-0.7,0.47a0.254,0.254,0,0,0,.312.2,16.016,16.016,0,0,0,3.738-1.02c5.569-1.9,9.151-4.71,10.981-8.52,1.169-2.5,1.519-5.42,1.519-13.09,0-2.26.039-2.37,0.545-3.19a0.942,0.942,0,0,0,.156-0.47c0-.35-0.389-0.7-1.674-1.52C811.017,3760.26,810.823,3760.18,810.2,3760.18Zm-10.67,1.91c-0.818,0-2.921.94-2.921,1.33,0,0.11.117,0.19,0.351,0.23a2.4,2.4,0,0,1,2.336,2.02c0.117,0.63.234,3.55,0.234,5.03a29.381,29.381,0,0,1-.156,3.66,3.85,3.85,0,0,0-.156.7c0,1.09,1.753,2.65,2.921,2.65,0.584,0,1.012-.66,1.012-1.56,0-.43-0.039-0.97-0.078-1.64-0.077-1.2-.194-3.97-0.194-4.55a22.281,22.281,0,0,1,.233-4.56,2.39,2.39,0,0,0,.117-0.62C803.229,3763.81,800.854,3762.09,799.53,3762.09Zm41.908,0.47c-1.4,0-2.376.19-2.376,0.51,0,0.11.117,0.19,0.429,0.27a11.31,11.31,0,0,1,5.685,5.22c0.545,1.16.9,1.48,1.675,1.48a2.15,2.15,0,0,0,2.141-2.07C848.992,3765.29,845.215,3762.56,841.438,3762.56Zm25,0.12a1.023,1.023,0,0,0-.584.46c-2.376,3.16-8.022,8.61-13.123,12.62-4.245,3.35-7.866,5.26-9.969,5.26a3.148,3.148,0,0,1-2.3-.94c-0.194-.39-0.233-0.39-0.35-0.39-0.312,0-.545.74-0.545,1.56,0,0.86.545,1.68,2.025,3.08a5.1,5.1,0,0,0,2.725,1.63,1.075,1.075,0,0,0,.546-0.23c0.272-.2.506-0.43,0.739-0.62a3.994,3.994,0,0,1,.74-0.51,58.536,58.536,0,0,0,16.589-15.07c1.635-2.22,3.777-5.96,3.777-6.58A0.325,0.325,0,0,0,866.438,3762.68Zm30.109,4.32a2.473,2.473,0,0,0,1.285.47,19.561,19.561,0,0,0,2.92-.63,8.969,8.969,0,0,1,1.714-.39,0.748,0.748,0,0,1,.739.78c0,0.86-.623,2.34-1.791,4.4a43.815,43.815,0,0,1-8.8,10.67,33.746,33.746,0,0,1-10.242,6.35c-0.311.12-.428,0.19-0.428,0.35a0.285,0.285,0,0,0,.273.23,18.4,18.4,0,0,0,4.049-1.05,38.1,38.1,0,0,0,13.591-8.76c2.764-2.76,4.049-4.63,7.671-11.21a9.845,9.845,0,0,1,1.012-.94,1.091,1.091,0,0,0,.468-0.62c0-.74-2.96-3.43-3.778-3.43a3.057,3.057,0,0,0-1.363.62,14.859,14.859,0,0,1-6.035,2.11,1.772,1.772,0,0,1-.662-0.12,17.309,17.309,0,0,0,1.83-3.58,3.747,3.747,0,0,0-1.675-1.95,5.8,5.8,0,0,0-3.232-1.13c-0.817,0-1.557.24-1.557,0.51,0,0.08.078,0.15,0.389,0.23a2.475,2.475,0,0,1,1.168,2.38c0,3.7-5.062,11.64-9.229,14.52-0.661.47-.739,0.51-0.739,0.7a0.254,0.254,0,0,0,.233.24,12.359,12.359,0,0,0,2.921-1.41C890.744,3774.2,893.431,3771.52,896.547,3767Z" transform="translate(-520.438 -3757.84)"/>
</svg>
