<svg xmlns="http://www.w3.org/2000/svg" viewBox="0 0 100.47 32.68"><defs><style>.cls-1{fill:#fff;}</style></defs><title>reservation-title-banner</title><g id="Layer_2" data-name="Layer 2"><g id="Layer_1-2" data-name="Layer 1"><path class="cls-1" d="M1.62,17.85a.12.12,0,0,1,0,.08,9,9,0,0,0-.46,2.8c0,3.67,3,5.58,8.63,5.58a26.11,26.11,0,0,0,6.59-.93,3.29,3.29,0,0,1,1.33-.33c1,0,2.27,1.05,2.27,1.84a1.07,1.07,0,0,1-.72.9,22.9,22.9,0,0,1-7.23.93c-3.93,0-6.77-.46-8.68-1.47A5.93,5.93,0,0,1,0,21.74C0,20.45.14,20,1,18c.11-.25.21-.33.36-.33S1.62,17.75,1.62,17.85ZM8,9.83A7.17,7.17,0,0,1,4.21,8.75,4.63,4.63,0,0,1,2.48,5.58c0-.22.11-.36.29-.36s.15,0,.25.32C3.67,7.2,5.47,8.13,8.1,8.13a16.63,16.63,0,0,0,4.25-.57,3.27,3.27,0,0,1,.86-.22,2.68,2.68,0,0,1,1.87,2c0,.65-.36.79-2.12.79A15.07,15.07,0,0,0,4.75,13a.28.28,0,0,1-.18.11c-.11,0-.21-.14-.21-.25A15,15,0,0,1,7.63,10ZM20.34,8.21a1.25,1.25,0,0,1-1.19,1.18c-.36,0-.43-.07-.9-.86A6,6,0,0,0,14.94,6c-.15,0-.22-.1-.22-.18s.58-.25,1.26-.25C18.14,5.54,20.34,6.88,20.34,8.21Zm3.35-1.66A1.26,1.26,0,0,1,22.5,7.74c-.36,0-.47-.15-.87-.83a6.05,6.05,0,0,0-3.42-2.63c-.1,0-.14,0-.14-.1s.47-.26,1.22-.26C21.53,3.92,23.69,5.22,23.69,6.55Z"/><path class="cls-1" d="M40.86,6a11.84,11.84,0,0,1,6.62,3.38c2-2,2.85-2.95,5.19-5.65H42.05c-2.2,0-3.46,0-6.63.18l-.5-1.29c3.42.18,4.5.21,7.13.21H52.74l1.65-1.69,2.34,2.27a1.71,1.71,0,0,1,.69,1.12c0,.35-.36.57-1.05.57L55,5.15C52.56,7,51.3,7.85,48,10.08A4.19,4.19,0,0,1,48.71,12a1.55,1.55,0,0,1-.62,1.15H58.17l1.55-1.73,2.74,2.74a1.37,1.37,0,0,1,.43.86c0,.43-.4.72-1,.72H60.44a69.4,69.4,0,0,1-8,5.29l-.36-.68A57.63,57.63,0,0,0,58.21,14h-10V29.34c0,1.47-.18,1.8-1.26,2.48a2.93,2.93,0,0,1-1.47.5c-.51,0-.76-.25-.76-.82s-.07-.8-.43-.9l-4.21-1.12.14-.58h4.54c.79,0,1-.18,1-.75V14H38.2c-2.16,0-3.5,0-6.7.15l-.4-1.23c3.32.18,4.4.22,7.1.22h8.09a12.27,12.27,0,0,0-5.61-6.73Z"/><path class="cls-1" d="M70.92,17.64l-.36.5c-.21.25-.39.4-.61.4a.7.7,0,0,1-.54-.4l-1.69-2.63c1.73,0,2.09,0,5-.1A114.9,114.9,0,0,0,79.13,4.54l2.3,1.87a1,1,0,0,1,.33.57c0,.25-.29.51-.65.61l-.79.19-6.45,7.55,5.65-.28a7.43,7.43,0,0,0-1.47-2.49l.43-.36c2.88,1.73,4.1,3.39,4.1,5.44a1.41,1.41,0,0,1-1.33,1.55.92.92,0,0,1-.68-.36,3.32,3.32,0,0,1-.33-1.16,14.54,14.54,0,0,0-.39-1.58l-3,.5V31.68c0,.57-.68,1-1.61,1-.37,0-.54-.14-.54-.46V16.92ZM73,20.19a.67.67,0,0,1,.51.61c0,.26-.14.47-.51.69l-.5.32a24.86,24.86,0,0,1-2.34,7.06c-.86,1.73-1.33,2.41-1.65,2.41a.3.3,0,0,1-.29-.29A9.38,9.38,0,0,1,69,28.8a29,29,0,0,0,1.26-9.08ZM68.94,5A7.32,7.32,0,0,1,72.18,6.8,57.26,57.26,0,0,0,75.6,0l2.3,1.62a.62.62,0,0,1,.26.5.64.64,0,0,1-.44.62L77,3,73,7.56a4.09,4.09,0,0,1,.87,2.16,1.49,1.49,0,0,1-1.37,1.55,1.15,1.15,0,0,1-.86-.4c-.15-.18-.15-.18-.65-2.09A6.76,6.76,0,0,0,68.8,5.36Zm9,14.18a8.72,8.72,0,0,1,3.6,4.07,6.92,6.92,0,0,1,.68,2.7,1.52,1.52,0,0,1-1.37,1.65,1,1,0,0,1-.79-.39c-.22-.33-.22-.33-.65-3.21a8.81,8.81,0,0,0-1.73-4.43ZM89.6,1.44a.6.6,0,0,1,.47.61.85.85,0,0,1-.75.83l-.8.22a38.76,38.76,0,0,1-1.8,4.31h9.76L97.7,5.72l2.38,2.34a1.2,1.2,0,0,1,.39.72c0,.26-.18.47-.54.61l-.64.29v5.73C99.29,22.57,99,26,98.21,28a5.39,5.39,0,0,1-3,3.39,4.76,4.76,0,0,1-1.48.36c-.39,0-.39,0-.93-1.41a1.09,1.09,0,0,0-.29-.46l-.43-.18-3.42-1.26.14-.69c.58.07,1.12.15,1.3.18a23.39,23.39,0,0,0,3.45.36c1.23,0,1.73-.25,2.2-1.11.68-1.34,1-4.5,1-9.61,0-1.41,0-1.41-.11-9.29H86.29c-1.65,3-3.6,5.65-4.14,5.65a.34.34,0,0,1-.32-.32.65.65,0,0,1,.14-.4A37.66,37.66,0,0,0,86.4.11ZM84.78,13.86A9.78,9.78,0,0,1,88.67,16,6.17,6.17,0,0,1,91,19.87a1.63,1.63,0,0,1-1.47,1.76c-.76,0-1.12-.46-1.48-1.91a9.81,9.81,0,0,0-3.56-5.47Z"/></g></g></svg>