<svg xmlns="http://www.w3.org/2000/svg" viewBox="0 0 344.47 33.22"><defs><style>.cls-1{fill:#fff;}</style></defs><title>big-banner-2-title</title><g id="Layer_2" data-name="Layer 2"><g id="Layer_1-2" data-name="Layer 1"><path class="cls-1" d="M3.13,2.45H24.91L26.1.72l2.3,2.05c.4.4.61.69.61.94s-.21.47-.68.61l-.58.22V31.21c0,.5-1,1-1.87,1-.4,0-.61-.18-.61-.58v-1.3H2.48v1.95c0,.47-1,.93-1.83.93C.14,33.22,0,33,0,32.36V.79Zm22.14,27V3.31H2.48V29.48Zm-9-25.23L19,4.54c.54.07.9.32.9.68s-.29.68-.79.86l-.47.18v4.83h1.55l1.69-2.31,2.23,2.05a.74.74,0,0,1,.29.58c0,.29-.18.54-.39.54H18.68V26c0,.83-.43,1.41-1.47,2a2.62,2.62,0,0,1-1,.36c-.47,0-.47,0-.76-1.37,0-.14-.21-.28-.5-.36l-3.35-1,.11-.54h2.77c1.51-.07,1.84-.21,1.84-.86V12H10.37c-1.08,0-1.23,0-6.81.18l-.28-1.22,3.81.1c1.59,0,2.7.08,3.28.08h5.94ZM6.08,14.18c4,1.23,6.23,3.49,6.23,6.3a1.55,1.55,0,0,1-1.48,1.73c-.54,0-.89-.47-1.18-1.58-.69-3.1-1.19-3.89-3.78-6Z"/><path class="cls-1" d="M49.22,1.84a.7.7,0,0,1,.43.64c0,.36-.18.58-.61.76l-.79.32a61.21,61.21,0,0,1-2.06,5.8l.62.14a.53.53,0,0,1,.43.51.66.66,0,0,1-.22.46l-.39.44V31.64c0,.54-.08.68-.33.9a2.65,2.65,0,0,1-1.47.5c-.43,0-.65-.18-.65-.46V13.68a32.57,32.57,0,0,1-4.43,6.51c-.39.51-.54.62-.72.62a.23.23,0,0,1-.21-.22,3.77,3.77,0,0,1,.61-1.22A48.94,48.94,0,0,0,45.87.65Zm9,11.69a44.9,44.9,0,0,1-5.72,7.74c-2,2.27-4.29,4.43-4.72,4.43a.29.29,0,0,1-.32-.25c0-.18.29-.58,1.15-1.55A60.71,60.71,0,0,0,57.35,9.83H54.22c-1.73,0-2.91,0-5.83.14L48,8.78l3.49.11C52.6,9,53.61,9,54.22,9h4V.58l2.88.36a.72.72,0,0,1,.68.61.91.91,0,0,1-.36.61l-.79.65V9h6.19l2.34-2.23L72,9.14a.37.37,0,0,1,.18.33c0,.18-.14.36-.25.36H61.24A20.25,20.25,0,0,0,72.8,22.14a6.57,6.57,0,0,0-2.92,2.55,27.74,27.74,0,0,1-9.29-14.32V23.58h2.23l1.88-2,2.52,2a.66.66,0,0,1,.21.5.34.34,0,0,1-.36.36H60.59v7c0,.58,0,.65-.32.87a3,3,0,0,1-1.58.5c-.36,0-.51-.14-.51-.47V24.44H56.92c-1.11,0-2.05,0-4.5.11l-.32-1.08c2.27.11,3.06.11,4.82.11h1.26Z"/><path class="cls-1" d="M93.61,25.48a29.5,29.5,0,0,1-9.68,4.14,2,2,0,0,1-.47.11,1.5,1.5,0,0,1-.33.07c-.21,0-.5-.18-.5-.36s.11-.21.54-.36a38,38,0,0,0,9.72-5.36,30.73,30.73,0,0,0,7.23-8.78,13.72,13.72,0,0,0,1.59-4.36c0-.57-.43-.9-1.08-.9a47.27,47.27,0,0,0-12,2.09A1.78,1.78,0,0,1,88,12a4.7,4.7,0,0,1-2-1.08A2.72,2.72,0,0,1,85.15,9c0-.68.11-1,.36-1s.14.07.25.32C86,9,87.24,9.54,88.57,9.54s6.12-.51,9.54-1a6.63,6.63,0,0,0,3.09-.94c.8-.47.87-.5,1.16-.5.5,0,.82.18,2.37,1.47.4.33.76.61.83.69.61.43.79.64.79.93s-.14.36-.57.54l-.8.47C101.06,19,98.36,22.43,93.61,25.48Zm18-20.58a3.46,3.46,0,1,1-3.39-3.46A3.46,3.46,0,0,1,111.61,4.9Zm-5.73,0a2.27,2.27,0,1,0,2.24-2.27A2.25,2.25,0,0,0,105.88,4.9Z"/><path class="cls-1" d="M131.23,27.68c-2.63,1.51-5.91,2.74-7.35,2.74-.32,0-.57-.18-.57-.36s.07-.22.29-.26A25.22,25.22,0,0,0,131.05,26a24.8,24.8,0,0,0,7-7.81c1.3-2.38,1.87-3.78,1.87-4.5s-.39-.94-1.15-.94-4.68.51-6.33.83a47.43,47.43,0,0,0-6.27,1.62,1.27,1.27,0,0,1-.57.14,4,4,0,0,1-2.05-1.26,3.61,3.61,0,0,1-.94-2.37c0-.29.11-.47.32-.47s.15,0,.22.25c.22.72,1.58,1.3,3,1.3.57,0,.57,0,4.93-.43l5.18-.58a11.89,11.89,0,0,0,4-1.12,2.61,2.61,0,0,1,.65-.18c.69,0,3.28,2.06,3.28,2.6,0,.32-.15.46-1.3,1.33C139.29,21.42,136.45,24.62,131.23,27.68ZM125.93,5c.36.54,1.19.8,2.52.8a27.2,27.2,0,0,0,8.46-1.48A2.36,2.36,0,0,1,138,4c.36,0,.68.14,1.76.72.76.39,1,.64,1,1s-.32.58-1.65.72c-1.84.22-1.91.22-4.72.72a35.37,35.37,0,0,1-5.44.65,2.87,2.87,0,0,1-2.73-1.33,6.06,6.06,0,0,1-.72-1.55c0-.07.07-.18.14-.18S125.79,4.79,125.93,5Z"/><path class="cls-1" d="M166.18,11.7a1.51,1.51,0,0,1-1.65,1.55c-.47,0-.72-.18-1.08-.83A7.93,7.93,0,0,0,157.9,8c-.21-.07-.32-.14-.32-.25s.65-.43,1.69-.43C162.73,7.31,166.18,9.5,166.18,11.7Zm-4.68,16a5.3,5.3,0,0,1-2.59-1.87,2.67,2.67,0,0,1-.9-2.27c0-.68.18-1.22.43-1.22s.22.07.29.25a2.55,2.55,0,0,0,2.16,1.83c1.48,0,5.83-2.69,11.05-6.83a71.44,71.44,0,0,0,6.73-6c.72-.72,2.67-3,3-3.38s.43-.58.61-.58a.3.3,0,0,1,.29.33c0,.57-1.59,3-3.39,5.22a55.77,55.77,0,0,1-7.7,7.77,54.52,54.52,0,0,1-8.57,5.91C162.26,27.43,161.86,27.68,161.5,27.68Z"/><path class="cls-1" d="M206.77,7.27a33.44,33.44,0,0,1,.5,4.36,19.7,19.7,0,0,1-4.39,11.44c-2.08,2.7-4,4-5.9,4a3.21,3.21,0,0,1-2.48-1.36,8.39,8.39,0,0,1-1.87-5.69c0-7.63,6.62-13.89,14.68-13.89,7.13,0,12.1,4.46,12.1,10.87,0,5.72-3.39,10.36-9.07,12.41a21.54,21.54,0,0,1-4.94,1.19c-.25,0-.46-.18-.46-.32s.1-.15.61-.29a16.43,16.43,0,0,0,6.8-3.56,13.14,13.14,0,0,0,4.1-10c0-3.31-1-5.76-3.09-7.3a9.28,9.28,0,0,0-5.58-1.88Zm-1.44.15a12.81,12.81,0,0,0-10.55,12.74c0,2.66,1,4.68,2.38,4.68,1.55,0,4.43-2.92,6.19-6.27a22.61,22.61,0,0,0,2.52-8.49,7.06,7.06,0,0,0-.47-2.49Z"/><path class="cls-1" d="M235.3,18.25a.18.18,0,0,1,0,.11,9.08,9.08,0,0,0-.5,2.95c0,3.81,3.06,5.76,9,5.76a25.92,25.92,0,0,0,6.84-1c1-.36,1-.36,1.4-.36,1.08,0,2.38,1.08,2.38,1.94a1.17,1.17,0,0,1-.76.94,23.37,23.37,0,0,1-7.52,1c-4.14,0-7-.51-9-1.51a6.26,6.26,0,0,1-3.45-5.8,8.71,8.71,0,0,1,1.11-4c.11-.15.18-.22.33-.22S235.3,18.14,235.3,18.25Zm6.59-8.35c-2.16-.18-3.49-.65-4.4-1.55a5,5,0,0,1-1.33-2.91c0-.22.11-.36.29-.36s.15,0,.29.36c.68,1.72,2.55,2.66,5.33,2.66a17.66,17.66,0,0,0,4.42-.58,3.51,3.51,0,0,1,.87-.21,2.73,2.73,0,0,1,2,2.08c0,.69-.36.83-2.2.87a15.31,15.31,0,0,0-8.57,3c-.1.07-.14.11-.21.11s-.22-.15-.22-.29a15,15,0,0,1,3.42-2.92Zm12.92-1.73a1.28,1.28,0,0,1-1.26,1.26c-.36,0-.43-.07-.94-.9a6.07,6.07,0,0,0-3.45-2.66c-.15-.07-.22-.11-.22-.18s.58-.29,1.33-.29C252.51,5.4,254.81,6.8,254.81,8.17Zm3.49-1.69a1.32,1.32,0,0,1-1.22,1.26c-.4,0-.54-.15-.9-.86a6.29,6.29,0,0,0-3.6-2.78c-.11,0-.15,0-.15-.14s.51-.25,1.26-.25C256,3.71,258.3,5.08,258.3,6.48Z"/><path class="cls-1" d="M273.05,15.62c2.95-4.61,3.42-5.4,6.41-10.72l2.12,1.43a1,1,0,0,1,.5.76c0,.22-.25.4-.61.5l-.75.26-6.45,7.77,5.55-.43a4.7,4.7,0,0,0-1.44-2.48l.14-.29a6.35,6.35,0,0,1,2.88,1.76,4.17,4.17,0,0,1,1.22,2.63,1.38,1.38,0,0,1-1.29,1.48c-.58,0-.72-.26-1.19-2.06l-2.66.47V31.78c0,.58-.69,1-1.59,1a.37.37,0,0,1-.39-.33V17l-4.36.75-.43.76a.6.6,0,0,1-.51.32c-.21,0-.43-.25-.57-.68l-.86-2.38Zm.47,4.68a.71.71,0,0,1,.68.72.9.9,0,0,1-.61.79l-.4.18c-.07.26-.14.44-.14.47l-.43,1.87a29.49,29.49,0,0,1-2.45,6.19c-.43.8-.58,1-.83,1a.33.33,0,0,1-.32-.36,1.11,1.11,0,0,1,.11-.39,34.82,34.82,0,0,0,1.9-11ZM269.59,5.11a11.24,11.24,0,0,1,3.35,1.73A45.74,45.74,0,0,0,276.07.4l2.2,1.47a.76.76,0,0,1,.36.58c0,.32-.22.5-.65.61l-.68.14-3.71,4.29a3.69,3.69,0,0,1,1,2.3,1.36,1.36,0,0,1-1.26,1.48,1.2,1.2,0,0,1-.83-.36c-.11-.11-.11-.11-.68-2.16a7.38,7.38,0,0,0-2.34-3.21ZM279.1,20c2.52,1.84,3.78,3.71,3.78,5.73,0,1-.51,1.65-1.26,1.65a1.3,1.3,0,0,1-.76-.25c-.18-.18-.18-.18-.36-2.38a11.55,11.55,0,0,0-1.69-4.49ZM287,4.14c-.58,0-1.3,0-2.13,0l-2.16.07-.39-1.12c2.37.11,3.31.15,4.6.15h10.23l.93-1.37,2.3,2a1.25,1.25,0,0,1,.44.75c0,.22-.22.44-.54.54l-.76.26-.36,3.63c-.36,3.89-.72,5.15-1.83,6.62a3.86,3.86,0,0,1-2.78,1.41c-.32,0-.46-.18-.61-.87a.93.93,0,0,0-.18-.5,3.63,3.63,0,0,0-.75-.36l-2.45-1,.07-.51,2.34.33a8.51,8.51,0,0,0,1.33.1c1.62,0,2.23-1,2.59-4.5a46,46,0,0,0,.4-5.61h-6.8c-.61,5-1.3,7.31-2.95,10a17.37,17.37,0,0,1-4.32,4.72A5.76,5.76,0,0,1,281.36,20a.49.49,0,0,1-.32-.32c0-.11,0-.11.9-1,4-3.78,5.79-8.1,6.26-14.58Zm1.43,14.43h8.43l1-1.51,2.3,1.91a.91.91,0,0,1,.36.5c0,.18-.25.44-.54.51l-.68.21V30.78c0,.5-.94,1-1.84,1-.36,0-.46-.15-.46-.61V29.41H288.2v1.83c0,.65-.79,1.19-1.76,1.19a.35.35,0,0,1-.4-.36V17.17ZM297,28.51v-9H288.2v9Z"/><path class="cls-1" d="M328.45,1.08c.36.14.58.36.58.65a.65.65,0,0,1-.29.54l-.43.29c3.38,5.5,9,9.71,16.16,12.2a7.21,7.21,0,0,0-3.42,2.66,33.76,33.76,0,0,1-13.71-14.5,51.69,51.69,0,0,1-7.78,10.15,38.48,38.48,0,0,1-7,5.5,4.24,4.24,0,0,1-1.37.69.34.34,0,0,1-.28-.33c0-.14.17-.36.43-.54,5.72-4,10.87-10.8,14-18.39Zm-4,12c.79.07,1,.25,1,.76a.92.92,0,0,1-.39.68l-.79.65v.65l0,3.45c0,3.46-.68,6.3-1.87,8.07-1.37,2-4.14,3.78-7.45,4.86a13.9,13.9,0,0,1-2.52.64c-.29,0-.43-.1-.43-.36s.14-.32.5-.43a14.82,14.82,0,0,0,6.95-4.39c1.62-1.91,2.27-4.5,2.27-9a45.3,45.3,0,0,0-.4-5.8Zm8.17,0c.76.1,1,.28,1,.68,0,.25-.15.47-.54.68l-.76.51V31.71c0,.29-.14.47-.57.65a4.41,4.41,0,0,1-1.12.29.69.69,0,0,1-.72-.76V12.74Z"/></g></g></svg>