<svg xmlns="http://www.w3.org/2000/svg" viewBox="0 0 269.62 30.64">
  <defs>
    <style>
      .cls-1 {
        fill: #2d2d2d;
        stroke: #2d2d2d;
        stroke-linecap: round;
        stroke-linejoin: round;
        stroke-width: 0.25px;
      }
    </style>
  </defs>
  <title>Asset 3</title>
  <g id="Layer_2" data-name="Layer 2">
    <g id="_レイヤー_" data-name="&lt;レイヤー&gt;">
      <g>
        <path class="cls-1" d="M6.57,18.93a5.59,5.59,0,0,0,1.78-.27.72.72,0,0,1,.34-.13,3.15,3.15,0,0,1,.87.64c.37.37.51.6.51.87,0,.61-.51.94-1.38.94A22.34,22.34,0,0,1,5,20.71a15.6,15.6,0,0,0-.07,1.65,5.54,5.54,0,0,0,1.24,4,5,5,0,0,0,3.66,1.48c2.86,0,4.67-1.71,4.67-4.43a10.13,10.13,0,0,0-4.3-8c-.17-.14-.23-.21-.23-.27s.13-.17.26-.17a8.28,8.28,0,0,1,2.69,1.64C15.57,18.8,17,21.32,17,23.87c0,3.53-2.72,5.94-6.68,5.94A7.41,7.41,0,0,1,5.43,28.1,6.44,6.44,0,0,1,3.52,23a14.73,14.73,0,0,1,.2-2.56C1.3,19.81.12,18.8.12,17.32a4.31,4.31,0,0,1,1.82-3.16A24.63,24.63,0,0,1,5.3,12.08a7,7,0,0,1,.17-.87C3,10.5,2.38,10.27,1.37,9.29a2.66,2.66,0,0,1-1-2.21c0-.31.1-.41.34-.41.07,0,.13.07.13.21.1.83,2,1.88,5,2.68.37-1.85.37-1.88.44-2.28a13.89,13.89,0,0,0,.4-2.52A2.34,2.34,0,0,0,4.76,2.14c-.13,0-.17,0-.17-.1,0-.24,1.14-.74,1.68-.74A5.52,5.52,0,0,1,8.69,2.58c.81.63,1.14,1.14,1.14,1.71S9.7,5.16,9,6.61C8.39,7.82,8.05,8.52,7.45,9.9a4.51,4.51,0,0,0,1.37.17,1,1,0,0,1,1,.43,2.18,2.18,0,0,1,.47,1.18c0,.43-.23.54-1.07.54a9,9,0,0,0-2.86.5,57.33,57.33,0,0,0-1.21,6.11A12,12,0,0,0,6.57,18.93Zm-2.45-.8c.1-.51.2-1,.3-1.45s.24-1.24.37-1.85c0-.23.14-.7.31-1.37C2.81,14.87,1.91,15.88,1.91,17c0,.84.53,1.24,2.11,1.61Z"/>
        <path class="cls-1" d="M49.23,5.13c3.66-.91,3.66-.91,4.16-.91a2.49,2.49,0,0,1,1.82,1,3.31,3.31,0,0,1,.9,1.54c0,.41-.4.68-.9.68a2.67,2.67,0,0,1-1-.24,9.35,9.35,0,0,0-2.46-.37,10.39,10.39,0,0,0-4.09.94,10.33,10.33,0,0,0-4.44,5.74,23.46,23.46,0,0,0-1,6.76c0,4.13,1.58,5.7,5.81,5.7a10.56,10.56,0,0,0,2.42-.23,1.52,1.52,0,0,1,.43,0,1.68,1.68,0,0,1,1.28.57,3,3,0,0,1,.6,1.34c0,.74-.87,1-3.09,1-6.07,0-9.7-2.79-9.7-7.42A20.17,20.17,0,0,1,43.32,10.4a13.54,13.54,0,0,1,2.42-2.89.34.34,0,0,0,.16-.27.14.14,0,0,0-.13-.13c-1.92,0-8.77,2.69-11,4.3-.94.67-1.25.81-1.82.81a4.63,4.63,0,0,1-2.52-1.38,4,4,0,0,1-.7-2.39.2.2,0,0,1,.2-.23c.1,0,.13,0,.2.17.34.77,1,1.11,2.22,1.11A6.47,6.47,0,0,0,34.89,9c5.2-1.55,7.86-2.29,11.35-3.06Z"/>
        <path class="cls-1" d="M71.13,3.72A.15.15,0,0,1,71,3.58c0-.16.34-.53.78-.9A2.33,2.33,0,0,1,73.44,2,4.82,4.82,0,0,1,76.13,3c.3.26.37.4.37,1.17,0,1,.34,1.78,1.65,4A8.3,8.3,0,0,0,80,6.81c.5-.44.8-.61,1.07-.61.67,0,1.65.68,1.65,1.15S81.44,8.76,79,9.73c.84,1.41,1.34,2.25,2,3.36a19,19,0,0,0,4.47-2.62c.43-.47.53-.54.8-.54a5.18,5.18,0,0,1,1.75.44c.33.17.53.4.53.64,0,.57-.67,1-2.88,2.11-1.38.67-2.32,1-3.66,1.55.67,1,1.17,1.61,3.32,4.2a4.34,4.34,0,0,1,1.41,3,2.24,2.24,0,0,1-1.91,2.42c-.24,0-.37-.1-.91-.58a11,11,0,0,0-7.32-2.65c-2.92,0-4.84,1.45-4.84,3.6,0,1.91,1.85,2.92,5.34,2.92.37,0,1,0,1.55-.07l1.24,0c1.34,0,1.71.23,1.71,1,0,1.14-.87,1.58-3,1.58a17.16,17.16,0,0,1-5.54-.87,4.57,4.57,0,0,1-3.16-4.27c0-2.89,2.68-4.7,7-4.7a15.92,15.92,0,0,1,5.18,1,2.21,2.21,0,0,0,1,.3.61.61,0,0,0,.64-.6c0-.67-.94-2.62-2.82-5.78a35.8,35.8,0,0,1-9.44,1.51c-2.38,0-3.9-1.21-3.9-3.12,0-.2.1-.37.24-.37s.2.07.4.5c.41.94,1.78,1.55,3.46,1.55a24,24,0,0,0,8.26-1.58c-.6-1.18-.67-1.31-2-3.63a19.74,19.74,0,0,1-5.2.81c-2,0-3.46-.94-3.46-2.25,0-.24.13-.4.27-.4s.17,0,.23.33c.2.71,1,1.11,2.25,1.11a13.39,13.39,0,0,0,5-1A28,28,0,0,0,74.32,5a3.28,3.28,0,0,0-2.65-1.31.62.62,0,0,0-.27,0ZM88.22,6.3a1.23,1.23,0,0,1-1.17,1.15c-.31,0-.47-.14-.71-.57A5.64,5.64,0,0,0,83,4.15c-.24-.06-.27-.1-.27-.16s.5-.27,1.24-.27C86,3.72,88.22,5.06,88.22,6.3Zm3.56-1.51A1.21,1.21,0,0,1,90.67,6c-.37,0-.53-.17-.87-.81a5.88,5.88,0,0,0-3.32-2.55c-.14,0-.17-.07-.17-.13s.54-.27,1.21-.27C89.67,2.21,91.78,3.48,91.78,4.79Z"/>
        <path class="cls-1" d="M114,6.67a30.8,30.8,0,0,1,.47,4.07,18.39,18.39,0,0,1-4.1,10.68c-1.94,2.52-3.76,3.76-5.51,3.76a3,3,0,0,1-2.31-1.28,7.81,7.81,0,0,1-1.75-5.3c0-7.12,6.18-13,13.7-13,6.65,0,11.29,4.17,11.29,10.15,0,5.34-3.16,9.67-8.47,11.58a20.38,20.38,0,0,1-4.6,1.11c-.23,0-.43-.17-.43-.3s.1-.14.57-.27a15.24,15.24,0,0,0,6.35-3.33A12.25,12.25,0,0,0,123,15.2c0-3.09-1-5.37-2.88-6.81a8.67,8.67,0,0,0-5.21-1.75Zm-1.34.14a12,12,0,0,0-9.84,11.89c0,2.48.94,4.36,2.21,4.36,1.45,0,4.13-2.72,5.78-5.84a21.21,21.21,0,0,0,2.35-7.93A6.54,6.54,0,0,0,112.67,7Z"/>
        <path class="cls-1" d="M149,15.67H146.8v1.38c0,.37-.61.67-1.34.67-.37,0-.61-.2-.61-.5V3.48l2.35,1.31h1.51a29.27,29.27,0,0,0,.64-4.67L152,.56c.41.07.64.3.64.57a.93.93,0,0,1-.47.71l-.7.5L150,4.79h3.23l.8-1.27L156,5.33a.81.81,0,0,1,.23.54.59.59,0,0,1-.37.5l-.54.3v9.78c0,.6-.63,1-1.51,1-.3,0-.43-.17-.43-.51V15.67H151.1v3.87h9.37l1.74-2.19,2.69,2.22c.24.17.34.34.34.47a.34.34,0,0,1-.37.3H152c3.29,3.33,8.26,5.64,14,6.45a9.06,9.06,0,0,0-2.58,2.62,27,27,0,0,1-6.92-3.53,23.46,23.46,0,0,1-5.34-5.1v8.87a.54.54,0,0,1-.1.33,2.62,2.62,0,0,1-1.48.54.49.49,0,0,1-.51-.44V21.52a37.08,37.08,0,0,1-9.2,6.18A20.45,20.45,0,0,1,135,29.54a.27.27,0,0,1-.3-.26c0-.17,0-.17,2-1.18A38.12,38.12,0,0,0,147,20.34h-5.1c-2.32.07-3.36.07-6.18.17l-.44-1.17,3.59.13c1.48,0,2.49.07,3,.07H149Zm-4.93-3.76-5.44,4.47-.14.64c-.1.43-.37.7-.67.7a.69.69,0,0,1-.37-.13l-2.15-2.12c2.92-1.27,3.93-1.78,8.5-4.2Zm-7.66-8.29c3.39.8,5.68,2.72,5.68,4.67a1.32,1.32,0,0,1-1.21,1.47,1.11,1.11,0,0,1-.84-.37c-.24-.23-.24-.23-.91-2.08A10,10,0,0,0,136.29,4Zm16.93,6.21V5.6H146.8V9.83Zm0,5V10.64H146.8v4.23Zm10-9.88a.43.43,0,0,1,.17.31c0,.16-.2.33-.64.43L161.71,6l-4.87,4.09c-.34.27-.5.37-.67.37s-.27-.1-.27-.3.13-.37,1.48-2.08c.9-1.24,1.78-2.45,3.56-5.11Zm-7,6.12a13.21,13.21,0,0,1,5.24,1.58c1.41.8,2.15,1.74,2.15,2.68a1.23,1.23,0,0,1-1.17,1.24c-.44,0-.54-.1-2.29-2.11a13.29,13.29,0,0,0-4-2.82Z"/>
        <path class="cls-1" d="M196.67,21.69a7.26,7.26,0,0,1-1.91,3.12,12,12,0,0,1-9.2,4.43A7.38,7.38,0,0,1,180,27.13c-1.41-1.51-2-3.5-2-6.55,0-2,0-2.45.68-11.22.2-2.82.2-2.82.2-3.22,0-2.15-.51-3.06-1.65-3.06-.2,0-.3-.07-.3-.17,0-.37.7-.67,1.48-.67,1.71,0,3.36,2,3.36,4a8.81,8.81,0,0,1-.51,2.55,72.3,72.3,0,0,0-1.41,11.52c0,4.7,1.85,6.82,6.05,6.82a12.4,12.4,0,0,0,7.35-2.72A13.25,13.25,0,0,0,196,21.72c.13-.24.26-.34.4-.34S196.67,21.52,196.67,21.69Z"/>
        <path class="cls-1" d="M221.26,27.36a21.43,21.43,0,0,1-5.51,1.82.36.36,0,0,1-.4-.34c0-.1.07-.17.4-.24a16.19,16.19,0,0,0,10.48-10.37A19.43,19.43,0,0,0,217.46,16a8.13,8.13,0,0,0-1.3.1,82.9,82.9,0,0,0-4,7.49c-.67,1.44-1.44,2-2.55,2-1.61,0-3.22-1.81-3.22-3.66,0-1.38,1-3,2.88-4.47a11.51,11.51,0,0,1,5.85-2.38c1-1.92,2.31-4.27,4.13-7.39.57-.94.67-1.18.67-1.45,0-.47-.44-.77-1-.77s-1.75.51-4.07,2c-1,.61-1.3.78-1.57.78a3.22,3.22,0,0,1-1.45-.64,1.66,1.66,0,0,1-.53-1.31c0-1,.3-1.85.63-1.85.07,0,.1,0,.1.13,0,1.08.34,1.65,1,1.65a37.89,37.89,0,0,0,6.21-2.15,1.66,1.66,0,0,1,.81-.23c.94,0,3.39,1.64,3.39,2.28,0,.27-.17.5-.71.84-1.27.67-4.46,4.9-6,8,.51,0,.84,0,1.11,0a26.41,26.41,0,0,1,8.83,1.81,15.27,15.27,0,0,0,.41-3.12,1.8,1.8,0,0,0-1.11-1.78,4,4,0,0,0-1.24-.27c-.17,0-.24,0-.24-.1,0-.21,1.51-.74,2.08-.74a5.65,5.65,0,0,1,2.15.8,1.57,1.57,0,0,1,.91,1.45,24.81,24.81,0,0,1-.87,4.6c3.92,1.75,5.5,3,5.5,4.43a1.27,1.27,0,0,1-1.14,1.41c-.5,0-.64-.1-1.51-1.14a15.6,15.6,0,0,0-3.46-3.06C226.26,23.67,224.42,25.85,221.26,27.36Zm-6.75-11a8,8,0,0,0-4.57,2.31,4.93,4.93,0,0,0-1.61,3.23,1.22,1.22,0,0,0,1.24,1.24c1.11,0,1.65-.74,4.6-6.15Z"/>
        <path class="cls-1" d="M252.53.63l3.09.37c.34.07.64.33.64.6s-.17.37-.54.64l-.77.47V7.48h9.1L266.27,5l2.78,2.15a.92.92,0,0,1,.44.67.52.52,0,0,1-.57.51h-15c-.1,2.35-.13,3.09-.4,6h7.92l.91-1.44,2.42,1.78a1.11,1.11,0,0,1,.43.67.66.66,0,0,1-.43.54l-.57.16c-.61,5.81-.61,5.81-.84,7.09-.61,3-1.45,4.77-2.92,5.91a4.63,4.63,0,0,1-2.79,1c-.41,0-.54-.1-.54-.44,0-.94,0-1-.1-1.07a1.65,1.65,0,0,0-.5-.34l-3.29-1.58.16-.57,2.15.41a18.59,18.59,0,0,0,2.42.3c1.41,0,2-.71,2.62-3,.67-2.55.81-3.46,1.14-8.66H253.4c-.8,5.51-2.38,8.56-5.84,11.48a22.22,22.22,0,0,1-6,3.56,2.83,2.83,0,0,1-.94.31.31.31,0,0,1-.31-.31c0-.23.17-.4.78-.7,3.52-1.88,7.25-5.91,8.49-9.27,1.18-3,1.55-5.51,1.75-11.92h-5.78c-2.15,0-3.19,0-6.18.16l-.43-1.14c3.52.14,4.9.17,6.61.17h7Z"/>
      </g>
    </g>
  </g>
</svg>
