<?xml version="1.0" encoding="utf-8"?>
<!-- Generator: Adobe Illustrator 24.1.3, SVG Export Plug-In . SVG Version: 6.00 Build 0)  -->
<svg version="1.0" id="Layer_1" xmlns="http://www.w3.org/2000/svg" xmlns:xlink="http://www.w3.org/1999/xlink" x="0px" y="0px"
	 viewBox="0 0 39.2 16.2" style="enable-background:new 0 0 39.2 16.2;" xml:space="preserve">
<g id="レイヤー_2">
	<g id="マップ">
		<path style="fill:#F39803;" d="M18.1,4.2L18,3.9C17.7,3.4,17.1,3,16.4,3h-0.2c-1.6-1.9-3.9-3-6.4-3C9,0,8.1,0.1,7.3,0.4H7.2L7,0.5
			L6.8,0.6L6.7,0.7C5.5,1.2,4.4,2,3.5,3.1H3.3c-0.6,0-1.2,0.3-1.6,0.9L1.6,4.2C1,4.5,0.5,5.1,0.2,5.8C0.1,6.1,0,6.5,0,6.8
			c0,0.5,0.1,1,0.3,1.5l0.1,0.4v0.1c0,0.1,0.1,0.4,0.2,0.5s0,0.4,0,0.4l0,0l0,0c0,0.4,0.2,0.8,0.5,1h0.1l0.4,0.2l0.4-0.1
			c0.1,0,0.2,0,0.4-0.1c0.6,1.8,1.9,3.3,3.6,4.2L6,15.1l0.3,0.1l0.1,0.1l0.2,0.1l0.2,0.1L7,15.6l0.3,0.1h0.1l0.3,0.1
			c0.7,0.2,1.5,0.3,2.2,0.3c3.4,0,6.5-2.1,7.6-5.3c0.1,0,0.2,0,0.3,0l0.4,0.1l0.4-0.2h0c0.3-0.2,0.5-0.6,0.5-1v0l0,0
			c0,0,0-0.1,0-0.3c0.1-0.2,0.1-0.4,0.2-0.5V8.7l0.1-0.4c0.2-0.5,0.3-0.9,0.3-1.4l0,0c0-0.3-0.1-0.7-0.2-1
			C19.3,5.1,18.8,4.5,18.1,4.2 M3.8,3.1L3.8,3.1L3.8,3.1L3.8,3.1 M4,8.8C3.9,9,3.8,9.2,3.7,9.3L3.5,9.5l0,0c0,0.1-0.1,0.2-0.2,0.3
			c-0.5-0.2-1-0.3-1.5-0.2V9.6c0-0.1,0-0.3,0-0.4v0V9.1C1.7,8.9,1.6,8.7,1.6,8.5V8.4L1.5,7.9C1.3,7.6,1.3,7.2,1.2,6.8
			c0-0.2,0-0.4,0.1-0.6c0.2-0.5,0.5-0.9,1-1.2C2.5,5,2.6,4.9,2.7,4.7C2.9,4.4,3,4.1,3.6,4.2l0,0c0,0.1-0.1,0.1-0.1,0.2L3.4,4.6
			L3.3,4.8L3.2,5C3.1,5.2,3,5.5,3,5.7c0,0.2,0.1,0.5,0.3,0.6l0,0l0,0h0.1C3.7,6.4,4,6.1,4.1,6l0.2,0c0.1-0.1,0.2-0.2,0.2-0.2
			S4.8,5.9,4.8,6l0,0c0,0.1-0.1,0.2-0.1,0.3l0,0C4.4,6.7,4.2,7.1,4.2,7.6C4.2,8,4.1,8.4,4,8.8 M7,13.1c-1.4-0.8-2.4-2-2.8-3.5
			c0-0.1,0.1-0.1,0.1-0.2l1.5,0.3C6.3,10.7,7,11.4,7.9,12c0,0.1,0.4,1.2,0.6,1.8C8,13.6,7.4,13.4,7,13.1 M9.9,3.8
			C7.9,3.8,6.3,4.7,5.6,6H5.5l0,0v0c0-0.4-0.3-0.7-0.7-0.8l0,0c1.6-2.8,5.2-3.8,8-2.2c0.9,0.5,1.7,1.3,2.2,2.2
			c-0.4,0.1-0.6,0.4-0.7,0.8v0.1h-0.1C13.6,4.7,12,3.8,9.9,3.8 M15,11c-0.8,1.4-2.2,2.4-3.8,2.8c0.2-0.6,0.6-1.6,0.6-1.8
			c0.9-0.6,1.6-1.4,2.1-2.3l1.5-0.3l0.1,0.2C15.4,10.1,15.3,10.6,15,11 M18.4,7.9l-0.1,0.5v0.1c0,0.2-0.1,0.4-0.2,0.6v0.1v0.1
			c0,0.1,0,0.3,0,0.4c0,0,0,0.1,0,0.1c-0.5-0.1-1,0-1.5,0.2c-0.1-0.1-0.1-0.2-0.1-0.3l0,0h0l-0.2-0.2c-0.1-0.1-0.3-0.3-0.3-0.5
			c-0.1-0.4-0.2-0.8-0.2-1.2c0-0.4-0.2-0.9-0.5-1.2l0,0C15,6.3,14.9,6.2,14.9,6c0-0.1,0.2-0.2,0.3-0.2s0.1,0.1,0.2,0.2l0.1,0.1
			c0.1,0.2,0.4,0.5,0.8,0.3l0,0l0,0l0,0l0,0c0.2-0.1,0.3-0.4,0.3-0.6c0-0.3,0-0.5,0-0.8l-0.1-0.2l-0.1-0.2l-0.1-0.2
			c0-0.1-0.1-0.1-0.1-0.2l0,0c0.5-0.1,0.7,0.2,0.9,0.5c0.1,0.2,0.2,0.3,0.4,0.4c0.5,0.2,0.8,0.7,1,1.2c0.1,0.2,0.1,0.4,0.1,0.6
			C18.5,7.2,18.4,7.5,18.4,7.9"/>
		<path style="fill:#FFFFFF;" d="M4.7,5.5C4.4,5.4,4.3,5.7,4.1,5.9S3.8,6.3,3.5,6.2l0,0H3.4C3,5.8,3.2,5.4,3.3,5
			c0-0.1,0.1-0.2,0.2-0.4S4,4,3.6,3.9c-1-0.2-1,0.8-1.4,1C1.6,5.1,1.2,5.6,1,6.2C0.6,6.9,1.1,7.7,1.3,8.5C1.3,8.8,1.4,9,1.5,9.3
			c-0.1,0.3-0.1,0.7,0,0.8c0.6-0.1,1.2-0.1,1.7,0.2c0.1,0,0.2-0.2,0.3-0.5l0.2-0.2c0.2-0.2,0.3-0.4,0.4-0.6C4.3,8.5,4.4,8,4.4,7.6
			c0-0.4,0.2-0.9,0.5-1.2C5,6.2,5.1,6.1,5.1,5.9C5.1,5.7,4.9,5.6,4.7,5.5"/>
		<path style="fill:#FFFFFF;" d="M18.8,6.2c-0.2-0.6-0.6-1.1-1.2-1.3c-0.4-0.2-0.4-1.2-1.4-1c-0.4,0.1,0,0.4,0.1,0.7L16.5,5
			c0.2,0.4,0.3,0.8-0.1,1.2h-0.1l0,0c-0.3,0.1-0.5-0.1-0.6-0.3s-0.3-0.4-0.5-0.4s-0.4,0.2-0.4,0.4c0,0.2,0.1,0.3,0.2,0.4
			c0.3,0.4,0.4,0.8,0.5,1.2c0,0.5,0.1,0.9,0.3,1.4c0.1,0.2,0.2,0.5,0.4,0.6l0.2,0.2c0.1,0.3,0.2,0.5,0.3,0.5
			c0.5-0.3,1.1-0.3,1.7-0.2c0.1-0.1,0.1-0.5,0-0.8c0.1-0.2,0.2-0.5,0.3-0.8C18.8,7.7,19.2,6.9,18.8,6.2"/>
		<path style="fill:#F39803;" d="M22.5,3.9l1.2,1.9l1.2-1.9v2.6h1.4V2.3h-1.2l-1.3,1.8l-1.4-2H21v4.4h1.5L22.5,3.9z M29.6,6.7l2.3-1
			V2.8l-2.3-1l-2.4,1v2.9L29.6,6.7z M29.6,3.1l1.1,0.5V5l-1.1,0.4L28.4,5V3.5L29.6,3.1z M37,5.4c-0.1-0.1-1-1.3-1-1.3S36.9,3,37,3
			c-0.1,0-0.8-1-0.9-1h-3.2v4.6h3.2C36.2,6.6,36.9,5.4,37,5.4 M35.4,5.7h-1.1V4.6h1.1V5.7z M35.4,3.9h-1.2v-1h1.2L35.4,3.9z M38,6.3
			h1.2V2.2h-1.3L38,6.3z M39.2,7.4h-1.6l-1.4,1.2V7.4h-1.3v4.2h1.3v-1.2l1.1,1.2h1.9l-2.3-2.2L39.2,7.4z M26.6,7.4l-1.8,4.2H26
			l0.3-0.8h1.8l0.3,0.8h1.3L28,7.4L26.6,7.4z M26.6,10l0.7-1.5L28,9.9L26.6,10z M25,8.7c-0.1-0.1-0.8-1.2-0.9-1.2H21v4.2h1.4v-1.3
			H24C24.1,10.3,24.9,8.8,25,8.7 M23.6,9.2h-1.2V8.3h1.2V9.2z M32.9,9.2h-1.2V8.3h1.2L32.9,9.2z M34.1,8.8l-0.9-1.3h-2.8v4.2h1.2
			v-1.3h0.2c0.4,0.4,0.8,0.9,1.2,1.3h1.4c-0.2-0.2-1.1-1.1-1.5-1.6L34.1,8.8z"/>
		<polygon style="fill:#F19101;" points="23.1,12.3 23.1,12.8 22,12.8 22,13 23.1,13 23.1,13.5 22,13.5 22,13.7 22.1,13.8 23,13.8 
			23,14.3 21.9,14.3 21.5,14 21.5,13.5 21,13.5 21,13 21.5,13 21.5,12.8 21,12.8 21,12.3 		"/>
		<path style="fill:#F19101;" d="M27,12.7v0.5l-1.5,0.1v0.4l0.1,0.1H27v0.5h-1.5l-0.4-0.4v-1.6h0.5v0.5L27,12.7z M26.7,12.4
			l-0.2,0.2l-0.2-0.2l0.2-0.2L26.7,12.4z M27.1,12.4l-0.2,0.2l-0.2-0.2l0.2-0.2L27.1,12.4z"/>
		<path style="fill:#F19101;" d="M30,12.3v1.1l-0.6,0.9L29,14l0.4-0.7v-1H30z M30.8,12.3L30.8,12.3l-0.2,0.2l0.2,0.2v0.5l0.5,0.7
			l-0.3,0.4l-0.6-0.9v-1.1H30.8z M31.2,12.6l-0.3,0.3l-0.3-0.3l0.3-0.3L31.2,12.6z M30.8,12.6L30.8,12.6H31H30.8L30.8,12.6z"/>
		<rect x="33.1" y="12.9" style="fill:#F19101;" width="2.1" height="0.5"/>
		<polygon style="fill:#F19101;" points="38.2,12.2 38.2,12.3 39.2,12.3 39.2,13.5 37.9,14.3 37.6,13.9 38.7,13.2 38.7,12.8 
			38.1,12.8 37.4,13.4 37.1,13 37.7,12.6 37.7,12.2 		"/>
	</g>
</g>
</svg>
