<?xml version="1.0" encoding="utf-8"?>
<!-- Generator: Adobe Illustrator 24.1.3, SVG Export Plug-In . SVG Version: 6.00 Build 0)  -->
<svg version="1.0" id="Layer_1" xmlns="http://www.w3.org/2000/svg" xmlns:xlink="http://www.w3.org/1999/xlink" x="0px" y="0px"
	 viewBox="0 0 288.9 289" style="enable-background:new 0 0 288.9 289;" xml:space="preserve">
<g id="レイヤー_2">
	<g id="Capa_1">
		
			<line style="fill:none;stroke:#31C101;stroke-width:10;stroke-linecap:round;stroke-linejoin:round;" x1="144.5" y1="5" x2="144.5" y2="33.5"/>
		
			<line style="fill:none;stroke:#31C101;stroke-width:10;stroke-linecap:round;stroke-linejoin:round;" x1="144.5" y1="255.4" x2="144.5" y2="284"/>
		
			<line style="fill:none;stroke:#31C101;stroke-width:10;stroke-linecap:round;stroke-linejoin:round;" x1="283.9" y1="144.5" x2="255.4" y2="144.5"/>
		
			<line style="fill:none;stroke:#31C101;stroke-width:10;stroke-linecap:round;stroke-linejoin:round;" x1="33.5" y1="144.5" x2="5" y2="144.5"/>
		
			<line style="fill:none;stroke:#231F20;stroke-width:10;stroke-linecap:round;stroke-linejoin:round;" x1="265.3" y1="74.8" x2="248.2" y2="85"/>
		
			<line style="fill:none;stroke:#231F20;stroke-width:10;stroke-linecap:round;stroke-linejoin:round;" x1="40.8" y1="204" x2="23.6" y2="214.1"/>
		
			<line style="fill:none;stroke:#231F20;stroke-width:10;stroke-linecap:round;stroke-linejoin:round;" x1="214.1" y1="265.3" x2="203.9" y2="248.2"/>
		
			<line style="fill:none;stroke:#231F20;stroke-width:10;stroke-linecap:round;stroke-linejoin:round;" x1="85" y1="40.8" x2="74.8" y2="23.6"/>
		
			<line style="fill:none;stroke:#231F20;stroke-width:10;stroke-linecap:round;stroke-linejoin:round;" x1="265.2" y1="214.3" x2="247.8" y2="204.5"/>
		
			<line style="fill:none;stroke:#231F20;stroke-width:10;stroke-linecap:round;stroke-linejoin:round;" x1="39.1" y1="83.4" x2="23.7" y2="74.7"/>
		
			<line style="fill:none;stroke:#231F20;stroke-width:10;stroke-linecap:round;stroke-linejoin:round;" x1="74.7" y1="265.2" x2="84.4" y2="247.8"/>
		
			<line style="fill:none;stroke:#231F20;stroke-width:10;stroke-linecap:round;stroke-linejoin:round;" x1="204.5" y1="41.1" x2="214.3" y2="23.7"/>
		
			<line style="fill:none;stroke:#231F20;stroke-width:10;stroke-linecap:round;stroke-linejoin:round;" x1="251.1" y1="234.4" x2="246.7" y2="230.7"/>
		
			<line style="fill:none;stroke:#231F20;stroke-width:10;stroke-linecap:round;stroke-linejoin:round;" x1="41.2" y1="57.2" x2="37.8" y2="54.6"/>
		
			<line style="fill:none;stroke:#231F20;stroke-width:10;stroke-linecap:round;stroke-linejoin:round;" x1="54.6" y1="251.1" x2="58.2" y2="246.7"/>
		
			<line style="fill:none;stroke:#231F20;stroke-width:10;stroke-linecap:round;stroke-linejoin:round;" x1="230.7" y1="42.2" x2="234.4" y2="37.8"/>
		
			<line style="fill:none;stroke:#231F20;stroke-width:10;stroke-linecap:round;stroke-linejoin:round;" x1="234" y1="251.4" x2="230.3" y2="247"/>
		
			<line style="fill:none;stroke:#231F20;stroke-width:10;stroke-linecap:round;stroke-linejoin:round;" x1="57.8" y1="40.7" x2="54.9" y2="37.5"/>
		
			<line style="fill:none;stroke:#231F20;stroke-width:10;stroke-linecap:round;stroke-linejoin:round;" x1="37.5" y1="234" x2="41.9" y2="230.3"/>
		
			<line style="fill:none;stroke:#231F20;stroke-width:10;stroke-linecap:round;stroke-linejoin:round;" x1="247" y1="58.6" x2="251.4" y2="54.9"/>
		
			<line style="fill:none;stroke:#231F20;stroke-width:10;stroke-linecap:round;stroke-linejoin:round;" x1="192.1" y1="275.5" x2="190.2" y2="270.2"/>
		
			<line style="fill:none;stroke:#231F20;stroke-width:10;stroke-linecap:round;stroke-linejoin:round;" x1="98.4" y1="17.4" x2="96.8" y2="13.4"/>
		
			<line style="fill:none;stroke:#231F20;stroke-width:10;stroke-linecap:round;stroke-linejoin:round;" x1="13.4" y1="192.2" x2="18.8" y2="190.2"/>
		
			<line style="fill:none;stroke:#231F20;stroke-width:10;stroke-linecap:round;stroke-linejoin:round;" x1="270.2" y1="98.8" x2="275.5" y2="96.8"/>
		
			<line style="fill:none;stroke:#231F20;stroke-width:10;stroke-linecap:round;stroke-linejoin:round;" x1="168.9" y1="281.8" x2="167.9" y2="276.2"/>
		
			<line style="fill:none;stroke:#231F20;stroke-width:10;stroke-linecap:round;stroke-linejoin:round;" x1="120.9" y1="11.4" x2="120.1" y2="7.2"/>
		
			<line style="fill:none;stroke:#231F20;stroke-width:10;stroke-linecap:round;stroke-linejoin:round;" x1="7.1" y1="168.9" x2="12.8" y2="167.9"/>
		
			<line style="fill:none;stroke:#231F20;stroke-width:10;stroke-linecap:round;stroke-linejoin:round;" x1="276.2" y1="121.1" x2="281.8" y2="120.1"/>
		
			<line style="fill:none;stroke:#231F20;stroke-width:10;stroke-linecap:round;stroke-linejoin:round;" x1="120.2" y1="281.8" x2="121.1" y2="276.2"/>
		
			<line style="fill:none;stroke:#231F20;stroke-width:10;stroke-linecap:round;stroke-linejoin:round;" x1="168.2" y1="11.4" x2="168.8" y2="7.1"/>
		
			<line style="fill:none;stroke:#231F20;stroke-width:10;stroke-linecap:round;stroke-linejoin:round;" x1="7.1" y1="120.2" x2="12.8" y2="121.1"/>
		
			<line style="fill:none;stroke:#231F20;stroke-width:10;stroke-linecap:round;stroke-linejoin:round;" x1="276.2" y1="167.8" x2="281.8" y2="168.8"/>
		
			<line style="fill:none;stroke:#231F20;stroke-width:10;stroke-linecap:round;stroke-linejoin:round;" x1="96.9" y1="275.6" x2="98.8" y2="270.2"/>
		
			<line style="fill:none;stroke:#231F20;stroke-width:10;stroke-linecap:round;stroke-linejoin:round;" x1="190.7" y1="17.5" x2="192" y2="13.4"/>
		
			<line style="fill:none;stroke:#231F20;stroke-width:10;stroke-linecap:round;stroke-linejoin:round;" x1="13.4" y1="96.9" x2="18.7" y2="98.8"/>
		
			<line style="fill:none;stroke:#231F20;stroke-width:10;stroke-linecap:round;stroke-linejoin:round;" x1="270.2" y1="190.1" x2="275.6" y2="192.1"/>
		<path style="fill:#31C101;" d="M134.8,155.3c5.7,5.6,14.9,5.4,20.4-0.3c5.6-5.7,5.4-14.9-0.3-20.4c-5.7-5.6-14.9-5.4-20.4,0.3
			c0,0,0,0,0,0l0,0C129,140.6,129.1,149.7,134.8,155.3z"/>
		<path style="fill:none;stroke:#231F20;stroke-width:10;stroke-miterlimit:10;" d="M134.8,155.3c5.7,5.6,14.9,5.4,20.4-0.3
			c5.6-5.7,5.4-14.9-0.3-20.4c-5.7-5.6-14.9-5.4-20.4,0.3c0,0,0,0,0,0l0,0C129,140.6,129.1,149.7,134.8,155.3z"/>
		
			<line style="fill:none;stroke:#231F20;stroke-width:10;stroke-linecap:round;stroke-linejoin:round;" x1="155" y1="134.5" x2="209.7" y2="79.7"/>
		
			<line style="fill:none;stroke:#231F20;stroke-width:10;stroke-linecap:round;stroke-linejoin:round;" x1="107.5" y1="107.4" x2="134.7" y2="134.6"/>
	</g>
</g>
</svg>
