<?xml version="1.0" encoding="utf-8"?>
<!-- Generator: Adobe Illustrator 24.1.3, SVG Export Plug-In . SVG Version: 6.00 Build 0)  -->
<svg version="1.0" id="Layer_1" xmlns="http://www.w3.org/2000/svg" xmlns:xlink="http://www.w3.org/1999/xlink" x="0px" y="0px"
	 viewBox="0 0 215.5 172.8" style="enable-background:new 0 0 215.5 172.8;" xml:space="preserve">
<g id="レイヤー_2">
	<g id="Layer_1_1_">
		<path style="fill:none;stroke:#221E1F;stroke-width:6;stroke-linecap:round;stroke-linejoin:round;" d="M3,10l0.8,138.5
			c0,2.6,1.8,4.9,4.4,5.5L73,169.5c0.9,0.2,1.8,0.2,2.6,0l68.2-16.2c0.9-0.2,1.8-0.2,2.7,0l59,14.7c3,0.7,6.1-1.1,6.8-4.2
			c0.1-0.4,0.2-0.9,0.2-1.3V22.8c0-2.7-1.9-5-4.4-5.5L143.6,3.1c-0.8-0.2-1.7-0.2-2.5,0L75.6,18.7c-0.8,0.2-1.7,0.2-2.6,0L9.9,4.4
			C6.9,3.7,3.8,5.7,3.1,8.7C3,9.1,3,9.6,3,10z"/>
		<path style="fill:#4FAE32;" d="M91.9,46.9V79c0,3.9,3.1,7,7,7c0.5,0,0.9,0,1.4-0.1l24.6-5c3.3-0.7,5.6-3.5,5.6-6.8V42.2
			c0-3.9-3.2-7-7-7c-0.4,0-0.9,0-1.3,0.1L97.5,40C94.2,40.6,91.8,43.5,91.9,46.9z"/>
		<path style="fill:#4FAE32;" d="M21.1,96.8v36.4c0,2.2,1.5,4,3.6,4.4l26,5.4c2.5,0.5,4.9-1.1,5.4-3.5c0.1-0.3,0.1-0.6,0.1-0.9v-37
			c0-2.2-1.5-4.1-3.7-4.5l-26-4.7c-2.5-0.5-4.8,1.2-5.3,3.6C21.1,96.2,21.1,96.5,21.1,96.8z"/>
		
			<line style="fill:none;stroke:#221E1F;stroke-width:5;stroke-linecap:round;stroke-linejoin:round;" x1="97" y1="108.5" x2="125.3" y2="104.7"/>
		
			<line style="fill:none;stroke:#221E1F;stroke-width:5;stroke-linecap:round;stroke-linejoin:round;" x1="160.9" y1="64.7" x2="196.4" y2="70.5"/>
		
			<line style="fill:none;stroke:#221E1F;stroke-width:5;stroke-linecap:round;stroke-linejoin:round;" x1="20.9" y1="57.7" x2="56.4" y2="63.5"/>
		
			<line style="fill:none;stroke:#4FAE32;stroke-width:6;stroke-linecap:round;stroke-linejoin:round;" x1="160.9" y1="41.7" x2="196.4" y2="47.5"/>
		
			<line style="fill:none;stroke:#4FAE32;stroke-width:6;stroke-linecap:round;stroke-linejoin:round;" x1="160.9" y1="83.4" x2="196.4" y2="89.2"/>
		
			<line style="fill:none;stroke:#221E1F;stroke-width:5;stroke-linecap:round;stroke-linejoin:round;" x1="97" y1="129.5" x2="125.3" y2="125.7"/>
		
			<line style="fill:none;stroke:#221E1F;stroke-width:6;stroke-linecap:round;stroke-linejoin:round;" x1="74.3" y1="19" x2="74.3" y2="169.8"/>
		
			<line style="fill:none;stroke:#221E1F;stroke-width:6;stroke-linecap:round;stroke-linejoin:round;" x1="144.4" y1="6.8" x2="144.4" y2="153"/>
	</g>
</g>
</svg>
