<?xml version="1.0" encoding="utf-8"?>
<!-- Generator: Adobe Illustrator 24.1.3, SVG Export Plug-In . SVG Version: 6.00 Build 0)  -->
<svg version="1.0" id="Layer_1" xmlns="http://www.w3.org/2000/svg" xmlns:xlink="http://www.w3.org/1999/xlink" x="0px" y="0px"
	 viewBox="0 0 175.4 180.8" style="enable-background:new 0 0 175.4 180.8;" xml:space="preserve">
<g id="レイヤー_2">
	<g id="Layer_1_1_">
		<circle style="fill:#4FAE32;" cx="153.3" cy="119.4" r="3.5"/>
		<circle style="fill:#4FAE32;" cx="18.8" cy="119.4" r="3.5"/>
		<path style="fill:#221E1F;" d="M171.9,173.8h-30.3L141.3,87c0-1.9-1.6-3.5-3.5-3.5c0,0,0,0,0,0l0,0c-1.9,0-3.5,1.6-3.5,3.5
			l0.2,86.8h-10.3l-0.1-38.6c0-1.9-1.6-3.5-3.5-3.5l0,0c-1.9,0-3.5,1.6-3.5,3.5l0.1,38.6h-8.6V127c10-0.8,17.7-9.1,17.9-19.1V73.7
			c0-5.4-1.2-10.8-3.4-15.7c6.9,0.4,13.5,3.3,18.5,8.1c5.4,5.2,8.5,12.3,8.5,19.8l0.1,20.1c0,1.9,1.6,3.5,3.5,3.5l0,0
			c1.9,0,3.5-1.6,3.5-3.5c0,0,0,0,0,0L157,85.9c0-9.4-3.9-18.4-10.7-24.8c-3.9-3.7-8.5-6.6-13.6-8.3c7.5-7.1,7.8-18.9,0.7-26.4
			c-3.5-3.7-8.4-5.8-13.6-5.8l0,0c-3,0-6,0.7-8.6,2.1c-1.7,0.9-2.4,3-1.5,4.8c0.9,1.7,3,2.4,4.8,1.5c5.7-3,12.7-0.7,15.7,5
			s0.7,12.7-5,15.7c-1.6,0.8-3.4,1.3-5.3,1.3c-0.1,0-0.3,0-0.4,0H119c-5.1-6.9-12.3-12-20.5-14.6c8.6-7.5,9.5-20.6,1.9-29.2
			S79.8-2.4,71.2,5.1s-9.5,20.6-1.9,29.2c0.8,0.9,1.7,1.7,2.6,2.5c-7.5,2.7-14.1,7.6-18.9,14.1c-0.6,0-1.1,0-1.7,0h-1
			c-6.4-0.1-11.6-5.3-11.5-11.8c0.1-6.4,5.3-11.6,11.8-11.5c1.9,0,3.7,0.5,5.3,1.4c1.7,1,3.8,0.4,4.8-1.3c1-1.7,0.4-3.8-1.3-4.8
			c-0.1,0-0.1-0.1-0.2-0.1c-9.1-4.9-20.4-1.6-25.3,7.4c-4.2,7.7-2.5,17.3,4.2,23.1C24.5,58.4,15.4,71.4,15.3,86v20
			c0.1,2,1.8,3.5,3.7,3.3c1.8-0.1,3.3-1.5,3.3-3.3V86c0-14.7,11.6-26.8,26.5-28c-2.2,4.9-3.4,10.3-3.3,15.7v34.2
			c0.1,10.3,8.2,18.7,18.5,19.2v46.7h-9.6v-38.6c-0.1-2-1.8-3.5-3.7-3.3c-1.8,0.1-3.3,1.5-3.3,3.3v38.6h-8.7V87
			c0.1-2-1.4-3.6-3.3-3.7c-2-0.1-3.6,1.4-3.7,3.3c0,0.1,0,0.3,0,0.4v86.8h-28c-1.9,0-3.5,1.6-3.5,3.5s1.6,3.5,3.5,3.5c0,0,0,0,0,0
			h168.3c1.9,0,3.5-1.6,3.5-3.5C175.4,175.3,173.8,173.8,171.9,173.8L171.9,173.8z M71.2,20.7c0-7.5,6.1-13.7,13.7-13.7
			c7.5,0,13.7,6.1,13.7,13.7s-6.1,13.7-13.7,13.7c0,0,0,0,0,0C77.3,34.4,71.2,28.3,71.2,20.7z M105,71.4c-1.9,0-3.5,1.6-3.5,3.5
			v98.9H88.9v-49.2c-0.1-2-1.8-3.5-3.7-3.3c-1.8,0.1-3.3,1.5-3.3,3.3v49.2H71.1V74.9c-0.1-2-1.8-3.5-3.7-3.3
			c-1.8,0.1-3.3,1.5-3.3,3.3V120c-6.3-0.5-11.2-5.7-11.4-12V73.7c0-6.1,1.8-12.1,5.1-17.2c10.4-15.6,31.6-19.8,47.2-9.3
			c3.7,2.5,6.9,5.6,9.3,9.3c3.3,5.1,5.1,11.1,5.1,17.2v34.2c-0.1,6.1-4.7,11.3-10.8,12v-45C108.6,73,107,71.4,105,71.4
			C105,71.4,105,71.4,105,71.4z"/>
	</g>
</g>
</svg>
