<svg xmlns="http://www.w3.org/2000/svg" viewBox="0 0 437.07 468.29"><defs><style>.cls-1{fill:#e1e6e9;}.cls-2{fill:#e56353;}.cls-3{fill:#ebf0f3;}</style></defs><g id="レイヤー_2" data-name="レイヤー 2"><g id="Capa_1" data-name="Capa 1"><polygon class="cls-1" points="75.85 0 0 75.85 0 468.29 343.41 468.29 343.41 0 75.85 0"/><path class="cls-2" d="M300.76,323.19c-7.68-8.77-18.89-14.84-31.57-17.12a291.92,291.92,0,0,0-57-4.58c-16.28-16.44-32-35.85-42.76-57.17a653.31,653.31,0,0,0,17.16-72.9,27.16,27.16,0,0,0-5.76-22.09,24.64,24.64,0,0,0-18.93-9h0a21.36,21.36,0,0,0-17.35,8.34c-14.35,18.28-4.54,62.52-2.42,71.22a147.44,147.44,0,0,0,9,25.73c-7.45,23.49-17.5,49-31.1,73.13C74.68,335.29,47.63,358,45.41,360c-7.53,7.33-11.26,14.69-11.06,21.88.11,4.07,1.57,10.09,7.92,15.64a26.4,26.4,0,0,0,17.41,6.36,28.7,28.7,0,0,0,18.22-6.54c21.92-18,39.48-40.41,53.57-64.18a270.22,270.22,0,0,1,74.16-14.2,417.7,417.7,0,0,0,53,43.18c13.41,9.21,31.35,8,42.65-2.83C311.85,349.11,311.66,335.63,300.76,323.19ZM67.05,384.1c-4.06,3.35-10,3.57-13.54.5-1.36-1.19-2.06-2.27-2.08-3.23,0-.79.33-3.77,5.5-8.82.38-.32,17.34-14.58,47-28.36A209.6,209.6,0,0,1,67.05,384.1Zm91-224.89a4.34,4.34,0,0,1,3.92-1.82,7.63,7.63,0,0,1,5.81,2.86,9.94,9.94,0,0,1,2.1,8.06h0c-2.05,11-5.29,28.52-10.64,49.31-.16-.6-.31-1.2-.46-1.8C154.29,197.57,151.13,168,158,159.21ZM143.27,311.36a409.81,409.81,0,0,0,19-45.11A256.06,256.06,0,0,0,190,302.78,282.66,282.66,0,0,0,143.27,311.36Zm146.18,35.58c-5.48,5.27-14.38,5.71-21.16,1.06a412.56,412.56,0,0,1-37.51-29.11,271.61,271.61,0,0,1,35.4,4c8.88,1.59,16.6,5.69,21.73,11.55C294.56,342,291.61,344.87,289.45,346.94Z"/><polygon class="cls-3" points="75.85 75.85 75.85 0 0 75.85 75.85 75.85"/><path class="cls-2" d="M424.59,128.5H262.24A12.49,12.49,0,0,1,249.76,116V46.49A12.48,12.48,0,0,1,262.24,34H424.59a12.48,12.48,0,0,1,12.48,12.48V116A12.49,12.49,0,0,1,424.59,128.5Z"/><path class="cls-3" d="M306.4,59.64q5.48,4.56,5.47,14.08t-5.58,13.94q-5.58,4.43-17.12,4.42h-9.29v15.36H271V55.06h18Q300.93,55.06,306.4,59.64Zm-6.25,21.61q2.66-2.81,2.66-8.24t-3.38-7.68q-3.37-2.25-10.56-2.25h-9v21h10.26Q297.49,84.06,300.15,81.25Z"/><path class="cls-3" d="M361.92,61.92q7.57,6.85,7.57,19.07t-7.34,19.33q-7.35,7.13-22.48,7.12H322.29V55.06h18Q354.36,55.06,361.92,61.92Zm-1.35,19.29q0-18-20.6-18h-8.84V99.12h9.81q9.53,0,14.58-4.53T360.57,81.21Z"/><path class="cls-3" d="M389.72,63.31V77.69H413v8.17H389.72v21.58h-8.84V55.06h34.91l-.07,8.25Z"/></g></g></svg>