<svg version="1.1" id="Capa_1" xmlns="http://www.w3.org/2000/svg" xmlns:xlink="http://www.w3.org/1999/xlink" x="0px" y="0px"
	 width="120px" height="120px" viewBox="0 0 120 120" style="enable-background:new 0 0 120 120;" xml:space="preserve">
  <g id="Layer_2" data-name="Layer 2">
    <g id="LINE_LOGO" data-name="LINE LOGO">
      <g>
        <path fill="#00db00" class="cls-1" d="M94,0H26A26,26,0,0,0,0,26V94a26,26,0,0,0,26,26H94a26,26,0,0,0,26-26V26A26,26,0,0,0,94,0Zm.13,76.54C85,87.09,64.47,99.94,59.8,101.9s-4-1.25-3.78-2.35l.62-3.74a8.93,8.93,0,0,0-.14-4C56,90.64,54.08,90,52.65,89.7c-21-2.77-36.54-17.45-36.54-35,0-19.55,19.61-35.45,43.69-35.45s43.7,15.9,43.7,35.45c0,7.83-3,14.87-9.37,21.82Z"/>
        <rect fill="#00db00" class="cls-1" x="47.01" y="45.28" width="4.77" height="20.74" rx="0.85"/>
        <path fill="#00db00" class="cls-1" d="M72,45.28H69a.85.85,0,0,0-.85.85V57.44L59.38,45.65l-.06-.08h0l-.05-.05h0l0,0,0,0,0,0,0,0,0,0h0l-.05,0h0l-.05,0h-3.3a.85.85,0,0,0-.85.85v19a.85.85,0,0,0,.85.85h3.06a.86.86,0,0,0,.86-.85V53.86l8.73,11.79a.63.63,0,0,0,.22.21h0l.05,0h0l0,0,0,0h0l.06,0h0A.78.78,0,0,0,69,66H72a.85.85,0,0,0,.85-.85v-19A.85.85,0,0,0,72,45.28Z"/>
        <path fill="#00db00" class="cls-1" d="M43.54,61.25H35.21V46.13a.85.85,0,0,0-.85-.85H31.3a.85.85,0,0,0-.85.85v19h0a.87.87,0,0,0,.23.59h0v0a.87.87,0,0,0,.59.23H43.54a.85.85,0,0,0,.85-.85V62.1A.85.85,0,0,0,43.54,61.25Z"/>
        <path fill="#00db00" class="cls-1" d="M89,45.28H76.7a.85.85,0,0,0-.59.24h0v0a.83.83,0,0,0-.24.59h0v19h0a.83.83,0,0,0,.24.59h0a.85.85,0,0,0,.59.24H89a.85.85,0,0,0,.85-.85V62.1a.85.85,0,0,0-.85-.85H80.62V58H89a.85.85,0,0,0,.85-.85V54.11a.85.85,0,0,0-.85-.85H80.62V50H89a.85.85,0,0,0,.85-.85V46.13A.85.85,0,0,0,89,45.28Z"/>
      </g>
    </g>
  </g>
</svg>
