<?xml version="1.0" encoding="utf-8"?>
<!-- Generator: Adobe Illustrator 24.1.3, SVG Export Plug-In . SVG Version: 6.00 Build 0)  -->
<svg version="1.0" id="Layer_1" xmlns="http://www.w3.org/2000/svg" xmlns:xlink="http://www.w3.org/1999/xlink" x="0px" y="0px"
	 viewBox="0 0 52.5 13.5" style="enable-background:new 0 0 52.5 13.5;" xml:space="preserve">
<g id="レイヤー_2">
	<g id="マップ">
		<polygon style="fill:#62AA31;" points="0,0.1 2.3,0.1 2.3,2.3 3.7,2.3 3.7,0.1 6,0.1 6,6.6 3.7,6.6 3.7,4.3 2.3,4.3 2.3,6.6 
			0,6.6 		"/>
		<polygon style="fill:#62AA31;" points="7.3,0.1 11.7,0.1 11.7,1.9 9.7,1.9 9.7,2.5 11.6,2.5 11.6,4.2 9.7,4.2 9.7,4.8 11.8,4.8 
			11.8,6.6 7.3,6.6 		"/>
		<polygon style="fill:#62AA31;" points="13.1,0.1 15.4,0.1 15.4,4.5 17.4,4.5 17.4,6.6 13.1,6.6 		"/>
		<polygon style="fill:#62AA31;" points="18.4,0.1 20.7,0.1 20.7,4.5 22.7,4.5 22.7,6.6 18.4,6.6 		"/>
		<path style="fill:#62AA31;" d="M27,2.1c0.7,0,1.2,0.5,1.2,1.2c0,0,0,0.1,0,0.1c0.1,0.7-0.4,1.3-1.1,1.3c-0.7,0.1-1.3-0.4-1.3-1.1
			c0-0.1,0-0.1,0-0.2C25.8,2.7,26.3,2.2,27,2.1C27,2.1,27,2.1,27,2.1 M27,0c-1.9-0.1-3.5,1.3-3.6,3.2c0,0.1,0,0.1,0,0.2
			c0,1.8,1.5,3.3,3.3,3.3c0.1,0,0.2,0,0.3,0c1.8,0.2,3.4-1.2,3.6-3c0-0.1,0-0.2,0-0.3c0-1.9-1.5-3.4-3.4-3.4C27.1,0,27.1,0,27,0"/>
		<path style="fill:#62AA31;" d="M15.5,6.9l0.8,3.9h0c0-0.4,0.1-0.8,0.2-1.2l0.7-2.7h1.8l0.9,3.9l0,0c0-0.4,0.1-0.8,0.2-1.1l0.7-2.7
			h2.5L21,13.4h-2l-0.7-3.5h-0.1c0,0.3-0.1,0.7-0.1,1l-0.7,2.5h-2l-2.3-6.5H15.5z"/>
		<path style="fill:#90BA5F;" d="M27.2,6.9c0.7,0,1.2,0.5,1.2,1.2c0,0,0,0.1,0,0.1c0.1,0.7-0.4,1.3-1.1,1.3C26.6,9.5,26.1,9,26,8.4
			c0-0.1,0-0.1,0-0.2C26,7.5,26.5,6.9,27.2,6.9C27.2,6.9,27.2,6.9,27.2,6.9 M27.2,4.7c-1.9-0.1-3.5,1.3-3.6,3.2c0,0.1,0,0.1,0,0.2
			c0,1.8,1.5,3.3,3.3,3.3c0.1,0,0.2,0,0.3,0c1.8,0.2,3.4-1.2,3.6-3c0-0.1,0-0.2,0-0.3c0-1.9-1.5-3.4-3.4-3.4
			C27.3,4.7,27.3,4.7,27.2,4.7"/>
		<path style="fill:#C0D695;" d="M32.4,6.9c0.7,0,1.2,0.5,1.2,1.2c0,0,0,0.1,0,0.1c0.1,0.7-0.4,1.3-1.1,1.3
			c-0.7,0.1-1.3-0.4-1.3-1.1c0-0.1,0-0.1,0-0.2C31.2,7.5,31.7,6.9,32.4,6.9C32.4,6.9,32.4,6.9,32.4,6.9 M32.4,4.7
			c-1.9-0.1-3.5,1.3-3.6,3.2c0,0.1,0,0.1,0,0.2c0,1.8,1.5,3.3,3.3,3.3c0.1,0,0.2,0,0.3,0c1.8,0.1,3.4-1.2,3.6-3.1c0-0.1,0-0.2,0-0.3
			c0-1.9-1.5-3.4-3.4-3.4C32.5,4.7,32.5,4.7,32.4,4.7"/>
		<path style="fill:#62AA31;" d="M39.3,8.9h0.1c0.9,0,1.4,0.4,1.4,1.3s-0.6,1.2-1.4,1.2h-0.1V8.9z M36.9,13.4h3
			c1.6,0.2,3.1-1.1,3.3-2.7c0-0.1,0-0.3,0-0.4c0-2.4-1.7-3.3-3.9-3.3h-2.4L36.9,13.4z"/>
		<path style="fill:#62AA31;" d="M44.4,11.1l0.1,0.1c0.4,0.4,0.9,0.6,1.5,0.6c0.2,0,0.6-0.1,0.6-0.4S46.3,11,46.1,11l-0.5-0.1
			c-0.9-0.2-1.7-0.7-1.7-1.7c0.1-1.4,1.3-2.5,2.7-2.4c0,0,0.1,0,0.1,0c0.7,0,1.4,0.2,2.1,0.6L48.2,9c-0.4-0.3-0.9-0.5-1.4-0.5
			c-0.2,0-0.5,0.1-0.5,0.3s0.3,0.3,0.5,0.3l0.5,0.1c1,0.2,1.7,0.8,1.7,1.9c0,1.6-1.4,2.3-2.8,2.3c-0.9,0-1.7-0.2-2.5-0.6L44.4,11.1z
			"/>
		<polygon style="fill:#62AA31;" points="50.6,10.1 50.2,6.9 52.5,6.9 52.1,10.1 		"/>
	</g>
</g>
</svg>
