<?xml version="1.0" encoding="utf-8"?>
<!-- Generator: Adobe Illustrator 24.1.3, SVG Export Plug-In . SVG Version: 6.00 Build 0)  -->
<svg version="1.0" id="Layer_1" xmlns="http://www.w3.org/2000/svg" xmlns:xlink="http://www.w3.org/1999/xlink" x="0px" y="0px"
	 viewBox="0 0 302.6 271.3" style="enable-background:new 0 0 302.6 271.3;" xml:space="preserve">
<g id="レイヤー_2">
	<g id="Layer_1_1_">
		
			<line style="fill:none;stroke:#4FAE32;stroke-width:6;stroke-linecap:round;stroke-linejoin:round;" x1="3" y1="86.2" x2="260.9" y2="87.2"/>
		<path style="fill:none;stroke:#211E1F;stroke-width:7;stroke-linecap:round;stroke-linejoin:round;" d="M243.8,241.8
			c0,0,1.4,8.7-3.5,13.2"/>
		<path style="fill:none;stroke:#211E1F;stroke-width:7;stroke-linecap:round;stroke-linejoin:round;" d="M243.8,170.8
			c0,0-35.3,36.2-24.8,57.1s39.8,14.6,47,4.2C271,224.8,279.7,211.4,243.8,170.8z"/>
		
			<line style="fill:none;stroke:#4FAE32;stroke-width:4;stroke-linecap:round;stroke-linejoin:round;" x1="244.2" y1="187.2" x2="244" y2="236.2"/>
		
			<line style="fill:none;stroke:#4FAE32;stroke-width:4;stroke-linecap:round;stroke-linejoin:round;" x1="244.1" y1="227.4" x2="259.7" y2="216.3"/>
		
			<line style="fill:none;stroke:#4FAE32;stroke-width:4;stroke-linecap:round;stroke-linejoin:round;" x1="244.1" y1="214.6" x2="256.6" y2="205.7"/>
		
			<line style="fill:none;stroke:#4FAE32;stroke-width:4;stroke-linecap:round;stroke-linejoin:round;" x1="244.1" y1="202.3" x2="252.3" y2="195.7"/>
		
			<line style="fill:none;stroke:#4FAE32;stroke-width:4;stroke-linecap:round;stroke-linejoin:round;" x1="244.4" y1="227.4" x2="228.3" y2="216.2"/>
		
			<line style="fill:none;stroke:#4FAE32;stroke-width:4;stroke-linecap:round;stroke-linejoin:round;" x1="244.5" y1="214.6" x2="232.1" y2="205.6"/>
		
			<line style="fill:none;stroke:#4FAE32;stroke-width:4;stroke-linecap:round;stroke-linejoin:round;" x1="244.5" y1="202.3" x2="236.4" y2="195.6"/>
		<path style="fill:none;stroke:#211E1F;stroke-width:7;stroke-miterlimit:10;" d="M183.5,252.9H32.2c-15.7,0-28.4-12.7-28.4-28.4
			c0,0,0,0,0,0V63.2c0-15.7,12.7-28.3,28.4-28.3h201.2c15.7,0,28.3,12.7,28.3,28.3c0,0,0,0,0,0v80.7"/>
		<path style="fill:#211E1F;" d="M60.3,67.1c-4.6,0-8.3-3.8-8.3-8.4l0.2-50.3C52.2,3.7,56,0,60.6,0S69,3.8,69,8.4l-0.2,50.3
			C68.7,63.4,65,67.1,60.3,67.1C60.3,67.1,60.3,67.1,60.3,67.1z"/>
		<path style="fill:#211E1F;" d="M200.1,67.6c-4.6,0-8.4-3.8-8.4-8.4l0.2-50.3c0.2-4.6,4.1-8.2,8.7-8c4.4,0.2,7.9,3.7,8,8.2
			l-0.2,50.3C208.5,63.9,204.7,67.6,200.1,67.6z"/>
		<circle style="fill:none;stroke:#211E1F;stroke-width:7;stroke-miterlimit:10;" cx="242.5" cy="211.1" r="56.7"/>
		<path style="fill:none;stroke:#221E1F;stroke-width:7;stroke-linecap:round;stroke-linejoin:round;" d="M53.6,122.8h25.7
			c3.1,0,5.7,2.5,5.7,5.7v25.7c0,3.1-2.5,5.7-5.7,5.7H53.6c-3.1,0-5.7-2.5-5.7-5.7v-25.7C48,125.3,50.5,122.8,53.6,122.8z"/>
		<path style="fill:none;stroke:#221E1F;stroke-width:7;stroke-linecap:round;stroke-linejoin:round;" d="M117.6,122.8h25.7
			c3.1,0,5.7,2.5,5.7,5.7v25.7c0,3.1-2.5,5.7-5.7,5.7h-25.7c-3.1,0-5.7-2.5-5.7-5.7v-25.7C112,125.3,114.5,122.8,117.6,122.8z"/>
		<path style="fill:none;stroke:#221E1F;stroke-width:7;stroke-linecap:round;stroke-linejoin:round;" d="M181.6,122.8h25.7
			c3.1,0,5.7,2.5,5.7,5.7v25.7c0,3.1-2.5,5.7-5.7,5.7h-25.7c-3.1,0-5.7-2.5-5.7-5.7v-25.7C176,125.3,178.5,122.8,181.6,122.8z"/>
		<path style="fill:none;stroke:#221E1F;stroke-width:7;stroke-linecap:round;stroke-linejoin:round;" d="M53.6,175.8h25.7
			c3.1,0,5.7,2.5,5.7,5.7v25.7c0,3.1-2.5,5.7-5.7,5.7H53.6c-3.1,0-5.7-2.5-5.7-5.7v-25.7C48,178.3,50.5,175.8,53.6,175.8z"/>
		<path style="fill:none;stroke:#221E1F;stroke-width:7;stroke-linecap:round;stroke-linejoin:round;" d="M117.6,175.8h25.7
			c3.1,0,5.7,2.5,5.7,5.7v25.7c0,3.1-2.5,5.7-5.7,5.7h-25.7c-3.1,0-5.7-2.5-5.7-5.7v-25.7C112,178.3,114.5,175.8,117.6,175.8z"/>
	</g>
</g>
</svg>
