<?xml version="1.0" encoding="utf-8"?>
<!-- Generator: Adobe Illustrator 24.1.3, SVG Export Plug-In . SVG Version: 6.00 Build 0)  -->
<svg version="1.0" id="Layer_1" xmlns="http://www.w3.org/2000/svg" xmlns:xlink="http://www.w3.org/1999/xlink" x="0px" y="0px"
	 viewBox="0 0 202.8 177.8" style="enable-background:new 0 0 202.8 177.8;" xml:space="preserve">
<g id="レイヤー_2">
	<g id="Layer_1_1_">
		<polyline style="fill:none;stroke:#4FAE32;stroke-width:6;stroke-linecap:round;stroke-linejoin:round;" points="150,116.8 
			161.2,137 178.1,137 		"/>
		<polyline style="fill:none;stroke:#4FAE32;stroke-width:6;stroke-linecap:round;stroke-linejoin:round;" points="172.7,161.1 
			167,150.6 190.1,150.6 		"/>
		<polyline style="fill:none;stroke:#50AE32;stroke-width:5;stroke-linecap:round;stroke-linejoin:round;" points="31.3,163.2 
			47.4,127.7 25.8,127.7 		"/>
		
			<circle style="fill:none;stroke:#221E1F;stroke-width:5;stroke-linecap:round;stroke-linejoin:round;" cx="101.3" cy="50.5" r="21.5"/>
		<path style="fill:none;stroke:#221E1F;stroke-width:5;stroke-linecap:round;stroke-linejoin:round;" d="M101.3,2.5
			c-26.5,0-47.9,21.5-47.9,48c0,41.8,48,84,48,84s47.9-42.2,47.9-84C149.3,24,127.8,2.5,101.3,2.5z"/>
		<polyline style="fill:none;stroke:#221E1F;stroke-width:5;stroke-linecap:round;stroke-linejoin:round;" points="82.8,114.9 
			34.2,114.9 2.5,163.2 		"/>
		
			<rect x="2.5" y="163.1" style="fill:none;stroke:#221E1F;stroke-width:5;stroke-linecap:round;stroke-linejoin:round;" width="197.8" height="12.1"/>
		<polyline style="fill:none;stroke:#221E1F;stroke-width:5;stroke-linecap:round;stroke-linejoin:round;" points="120,114.8 
			168.6,114.8 200.3,163.1 		"/>
		<polyline style="fill:#50AE32;stroke:#221E1F;stroke-width:5;stroke-linecap:round;stroke-linejoin:round;" points="97.5,130.8 
			68.1,130.8 63.8,146.8 139,146.7 134.7,130.8 105.3,130.8 		"/>
	</g>
</g>
</svg>
