<?xml version="1.0" encoding="utf-8"?>
<!-- Generator: Adobe Illustrator 24.1.3, SVG Export Plug-In . SVG Version: 6.00 Build 0)  -->
<svg version="1.0" id="Layer_1" xmlns="http://www.w3.org/2000/svg" xmlns:xlink="http://www.w3.org/1999/xlink" x="0px" y="0px"
	 viewBox="0 0 177.6 178.7" style="enable-background:new 0 0 177.6 178.7;" xml:space="preserve">
<g id="レイヤー_2">
	<g id="Layer_1_1_">
		
			<line style="fill:none;stroke:#4FAE32;stroke-width:6;stroke-linecap:round;stroke-linejoin:round;" x1="69.8" y1="68.5" x2="107.8" y2="68.5"/>
		
			<line style="fill:none;stroke:#4FAE32;stroke-width:6;stroke-linecap:round;stroke-linejoin:round;" x1="42.3" y1="158.8" x2="42.3" y2="175.7"/>
		
			<line style="fill:none;stroke:#4FAE32;stroke-width:6;stroke-linecap:round;stroke-linejoin:round;" x1="135.3" y1="158.8" x2="135.3" y2="175.7"/>
		
			<line style="fill:none;stroke:#4FAE32;stroke-width:6;stroke-linecap:round;stroke-linejoin:round;" x1="32.2" y1="128.8" x2="75.2" y2="128.8"/>
		
			<line style="fill:none;stroke:#4FAE32;stroke-width:6;stroke-linecap:round;stroke-linejoin:round;" x1="102.3" y1="128.8" x2="145.3" y2="128.8"/>
		<path style="fill:none;stroke:#221E1F;stroke-width:6;stroke-linecap:round;stroke-linejoin:round;" d="M88.8,101.9L88.8,101.9
			c7.5,0,13.6,6.1,13.6,13.6v60.2l0,0H75.2l0,0v-60.2C75.2,108,81.3,101.9,88.8,101.9z"/>
		
			<line style="fill:none;stroke:#221E1F;stroke-width:6;stroke-linecap:round;stroke-linejoin:round;" x1="54.8" y1="92.5" x2="122.7" y2="92.5"/>
		
			<line style="fill:none;stroke:#221E1F;stroke-width:6;stroke-linecap:round;stroke-linejoin:round;" x1="102.3" y1="158.8" x2="164" y2="158.8"/>
		
			<line style="fill:none;stroke:#221E1F;stroke-width:6;stroke-linecap:round;stroke-linejoin:round;" x1="13.5" y1="158.8" x2="75.2" y2="158.8"/>
		
			<line style="fill:none;stroke:#221E1F;stroke-width:6;stroke-linecap:round;stroke-linejoin:round;" x1="102.3" y1="143.8" x2="125.3" y2="143.8"/>
		
			<line style="fill:none;stroke:#221E1F;stroke-width:6;stroke-linecap:round;stroke-linejoin:round;" x1="52.2" y1="143.8" x2="75.2" y2="143.8"/>
		
			<line style="fill:none;stroke:#221E1F;stroke-width:6;stroke-linecap:round;stroke-linejoin:round;" x1="26.3" y1="158.8" x2="26.3" y2="175.7"/>
		
			<line style="fill:none;stroke:#221E1F;stroke-width:6;stroke-linecap:round;stroke-linejoin:round;" x1="58.3" y1="158.8" x2="58.3" y2="175.7"/>
		
			<line style="fill:none;stroke:#221E1F;stroke-width:6;stroke-linecap:round;stroke-linejoin:round;" x1="119.3" y1="158.8" x2="119.3" y2="175.7"/>
		
			<line style="fill:none;stroke:#221E1F;stroke-width:6;stroke-linecap:round;stroke-linejoin:round;" x1="151.3" y1="158.8" x2="151.3" y2="175.7"/>
		<polyline style="fill:none;stroke:#221E1F;stroke-width:6;stroke-linecap:round;stroke-linejoin:round;" points="67,3 
			174.6,175.7 3,175.7 110.6,3 		"/>
	</g>
</g>
</svg>
