<?xml version="1.0" encoding="utf-8"?>
<!-- Generator: Adobe Illustrator 24.1.3, SVG Export Plug-In . SVG Version: 6.00 Build 0)  -->
<svg version="1.0" id="Layer_1" xmlns="http://www.w3.org/2000/svg" xmlns:xlink="http://www.w3.org/1999/xlink" x="0px" y="0px"
	 viewBox="0 0 287.8 287.8" style="enable-background:new 0 0 287.8 287.8;" xml:space="preserve">
<g id="レイヤー_2">
	<g id="Capa_1">
		
			<line style="fill:none;stroke:#231F20;stroke-width:6;stroke-linecap:round;stroke-linejoin:round;" x1="83.5" y1="12.7" x2="83.5" y2="18.7"/>
		
			<line style="fill:none;stroke:#231F20;stroke-width:6;stroke-linecap:round;stroke-linejoin:round;" x1="83.5" y1="34.7" x2="83.5" y2="40.7"/>
		
			<line style="fill:none;stroke:#31C101;stroke-width:6;stroke-linecap:round;stroke-linejoin:round;" x1="97.5" y1="26.7" x2="91.5" y2="26.7"/>
		
			<line style="fill:none;stroke:#31C101;stroke-width:6;stroke-linecap:round;stroke-linejoin:round;" x1="75.5" y1="26.7" x2="69.5" y2="26.7"/>
		
			<line style="fill:none;stroke:#31C101;stroke-width:6;stroke-linecap:round;stroke-linejoin:round;" x1="36.5" y1="58.7" x2="36.5" y2="72.7"/>
		
			<line style="fill:none;stroke:#31C101;stroke-width:6;stroke-linecap:round;stroke-linejoin:round;" x1="36.5" y1="88.7" x2="36.5" y2="102.7"/>
		
			<line style="fill:none;stroke:#231F20;stroke-width:6;stroke-linecap:round;stroke-linejoin:round;" x1="58.5" y1="80.7" x2="44.5" y2="80.7"/>
		
			<line style="fill:none;stroke:#231F20;stroke-width:6;stroke-linecap:round;stroke-linejoin:round;" x1="28.5" y1="80.7" x2="14.5" y2="80.7"/>
		
			<line style="fill:none;stroke:#31C101;stroke-width:6;stroke-linecap:round;stroke-linejoin:round;" x1="259.4" y1="198.9" x2="259.4" y2="212.9"/>
		
			<line style="fill:none;stroke:#31C101;stroke-width:6;stroke-linecap:round;stroke-linejoin:round;" x1="259.4" y1="228.9" x2="259.4" y2="242.9"/>
		
			<line style="fill:none;stroke:#231F20;stroke-width:6;stroke-linecap:round;stroke-linejoin:round;" x1="281.4" y1="220.9" x2="267.4" y2="220.9"/>
		
			<line style="fill:none;stroke:#231F20;stroke-width:6;stroke-linecap:round;stroke-linejoin:round;" x1="251.4" y1="220.9" x2="237.4" y2="220.9"/>
		
			<line style="fill:none;stroke:#231F20;stroke-width:6;stroke-linecap:round;stroke-linejoin:round;" x1="199.4" y1="246.9" x2="199.4" y2="252.9"/>
		
			<line style="fill:none;stroke:#231F20;stroke-width:6;stroke-linecap:round;stroke-linejoin:round;" x1="199.4" y1="268.9" x2="199.4" y2="274.9"/>
		
			<line style="fill:none;stroke:#31C101;stroke-width:6;stroke-linecap:round;stroke-linejoin:round;" x1="213.4" y1="260.9" x2="207.4" y2="260.9"/>
		
			<line style="fill:none;stroke:#31C101;stroke-width:6;stroke-linecap:round;stroke-linejoin:round;" x1="191.4" y1="260.9" x2="185.4" y2="260.9"/>
		<polygon style="fill:none;stroke:#231F20;stroke-width:10;stroke-linecap:round;stroke-linejoin:round;" points="5,184.6 
			29,194.4 37.2,216.7 61.2,226.6 71.1,250.7 93.3,258.8 103.2,282.8 282.8,103.2 258.8,93.3 250.7,71.1 226.6,61.2 216.7,37.1 
			194.4,29 184.6,5 		"/>
		
			<line style="fill:none;stroke:#231F20;stroke-width:10;stroke-linecap:round;stroke-linejoin:round;" x1="118.5" y1="70.8" x2="118.9" y2="71.2"/>
		
			<line style="fill:none;stroke:#231F20;stroke-width:10;stroke-linecap:round;stroke-linejoin:round;stroke-dasharray:1.05,22.11;" x1="134.5" y1="86.8" x2="208.6" y2="160.9"/>
		
			<line style="fill:none;stroke:#231F20;stroke-width:10;stroke-linecap:round;stroke-linejoin:round;" x1="216.4" y1="168.7" x2="216.8" y2="169.1"/>
		<path style="fill:#31C101;" d="M134.8,148.7l-4.3,20.5l16.1,13.4c0.7,0.6,0.8,1.6,0.2,2.3c-0.3,0.3-0.7,0.5-1.1,0.6l-20.8,2.2
			l-7.8,19.4c-0.3,0.8-1.2,1.3-2.1,1c-0.4-0.2-0.7-0.5-0.9-0.9l-8.5-19.1l-20.9-1.4c-0.9-0.1-1.6-0.8-1.6-1.8c0-0.4,0.2-0.9,0.6-1.1
			l15.5-14L94,149.5c-0.2-0.9,0.3-1.7,1.1-2c0.4-0.1,0.9-0.1,1.3,0.2l18.1,10.4l17.7-11.2c0.8-0.5,1.9-0.2,2.4,0.6
			C134.8,147.9,134.9,148.3,134.8,148.7z"/>
		<path style="fill:none;stroke:#231F20;stroke-width:10;stroke-linecap:round;stroke-linejoin:round;" d="M134.8,148.7l-4.3,20.5
			l16.1,13.4c0.7,0.6,0.8,1.6,0.2,2.3c-0.3,0.3-0.7,0.5-1.1,0.6l-20.8,2.2l-7.8,19.4c-0.3,0.8-1.2,1.3-2.1,1
			c-0.4-0.2-0.7-0.5-0.9-0.9l-8.5-19.1l-20.9-1.4c-0.9-0.1-1.6-0.8-1.6-1.8c0-0.4,0.2-0.9,0.6-1.1l15.5-14L94,149.5
			c-0.2-0.9,0.3-1.7,1.1-2c0.4-0.1,0.9-0.1,1.3,0.2l18.1,10.4l17.7-11.2c0.8-0.5,1.9-0.2,2.4,0.6
			C134.8,147.9,134.9,148.3,134.8,148.7z"/>
		
			<line style="fill:none;stroke:#231F20;stroke-width:10;stroke-linecap:round;stroke-linejoin:round;" x1="191.1" y1="96.6" x2="204.8" y2="82.3"/>
		
			<line style="fill:none;stroke:#31C101;stroke-width:10;stroke-linecap:round;stroke-linejoin:round;" x1="166.5" y1="70.7" x2="180.1" y2="56.3"/>
		
			<line style="fill:none;stroke:#31C101;stroke-width:10;stroke-linecap:round;stroke-linejoin:round;" x1="216.6" y1="121.1" x2="230.3" y2="106.7"/>
	</g>
</g>
</svg>
