<?xml version="1.0" encoding="utf-8"?>
<!-- Generator: Adobe Illustrator 24.1.3, SVG Export Plug-In . SVG Version: 6.00 Build 0)  -->
<svg version="1.0" id="Layer_1" xmlns="http://www.w3.org/2000/svg" xmlns:xlink="http://www.w3.org/1999/xlink" x="0px" y="0px"
	 viewBox="0 0 255.6 226.9" style="enable-background:new 0 0 255.6 226.9;" xml:space="preserve">
<g id="レイヤー_2">
	<g id="Layer_1_1_">
		<path style="fill:none;stroke:#000102;stroke-width:5;stroke-linecap:round;stroke-linejoin:round;" d="M71.6,124.1
			c0,0-38.4-13.7-42.4-14.9c-2.4-0.9-5.1,0.2-6.1,2.7c-0.2,0.4-0.3,0.8-0.3,1.3c-0.2,2.4,0.9,4.8,3,6.1c2.4,1.5,32.4,19.4,32.4,19.4
			v80.5c0,0,8.2,12,16.8-0.3v-37.7c0-3.7,2.8-5.5,7-3.7l17.6,10.8v8.5c0,0,7.8,13.4,16.7,0v-12c0-2.1-0.6-4.2-1.8-6l-17.4-13v-27.1
			c0,0,31.9-28.7,34.3-30.2c2.1-1.3,3.2-3.7,3-6.1c-0.2-2.6-2.5-4.5-5.1-4.2c-0.4,0-0.9,0.1-1.3,0.3c-4,1.2-44,25.5-44,25.5"/>
		
			<ellipse style="fill:none;stroke:#000102;stroke-width:5;stroke-linecap:round;stroke-linejoin:round;" cx="77.6" cy="107.4" rx="16.8" ry="17.9"/>
		<path style="fill:none;stroke:#000102;stroke-width:5;stroke-linecap:round;stroke-linejoin:round;" d="M196.5,79.1
			c0,0,44.1-15.7,48.7-17.1s7.2,2.1,7.3,4.5c0.3,2.8-1.1,5.5-3.4,7c-2.8,1.7-37.2,22.3-37.2,22.3v92.5c0,0-9.4,13.8-19.4-0.4v-43.3
			c0-4.3-3.3-6.3-8-4.2l-20.3,12.4v9.8c0,0-9,15.4-19.2,0v-13.7c0-2.5,0.7-4.9,2.1-7l20-14.9V95.8c0,0-36.7-33-39.5-34.7
			c-2.4-1.5-3.7-4.2-3.4-7c0.1-2.4,2.7-5.9,7.3-4.5c4.6,1.4,50.6,29.3,50.6,29.3"/>
		
			<ellipse style="fill:none;stroke:#000102;stroke-width:5;stroke-linecap:round;stroke-linejoin:round;" cx="189.6" cy="59.9" rx="19.4" ry="20.6"/>
		
			<line style="fill:none;stroke:#4FAE32;stroke-width:6;stroke-linecap:round;stroke-linejoin:round;" x1="143.7" y1="3" x2="143.7" y2="12.4"/>
		
			<line style="fill:none;stroke:#4FAE32;stroke-width:6;stroke-linecap:round;stroke-linejoin:round;" x1="143.7" y1="23.1" x2="143.7" y2="32.5"/>
		
			<line style="fill:none;stroke:#221E1F;stroke-width:6;stroke-linecap:round;stroke-linejoin:round;" x1="158.5" y1="17.7" x2="149.1" y2="17.7"/>
		
			<line style="fill:none;stroke:#221E1F;stroke-width:6;stroke-linecap:round;stroke-linejoin:round;" x1="138.4" y1="17.7" x2="129" y2="17.7"/>
		
			<line style="fill:none;stroke:#4FAE32;stroke-width:6;stroke-linecap:round;stroke-linejoin:round;" x1="17.7" y1="162" x2="17.7" y2="171.4"/>
		
			<line style="fill:none;stroke:#4FAE32;stroke-width:6;stroke-linecap:round;stroke-linejoin:round;" x1="17.7" y1="182.1" x2="17.7" y2="191.5"/>
		
			<line style="fill:none;stroke:#221E1F;stroke-width:6;stroke-linecap:round;stroke-linejoin:round;" x1="32.5" y1="176.7" x2="23.1" y2="176.7"/>
		
			<line style="fill:none;stroke:#221E1F;stroke-width:6;stroke-linecap:round;stroke-linejoin:round;" x1="12.4" y1="176.7" x2="3" y2="176.7"/>
		
			<line style="fill:none;stroke:#221E1F;stroke-width:6;stroke-linecap:round;stroke-linejoin:round;" x1="42.2" y1="62.4" x2="42.2" y2="66.4"/>
		
			<line style="fill:none;stroke:#221E1F;stroke-width:6;stroke-linecap:round;stroke-linejoin:round;" x1="42.2" y1="77.1" x2="42.2" y2="81.1"/>
		
			<line style="fill:none;stroke:#4FAE32;stroke-width:6;stroke-linecap:round;stroke-linejoin:round;" x1="51.6" y1="71.7" x2="47.6" y2="71.7"/>
		
			<line style="fill:none;stroke:#4FAE32;stroke-width:6;stroke-linecap:round;stroke-linejoin:round;" x1="36.9" y1="71.7" x2="32.8" y2="71.7"/>
		
			<line style="fill:none;stroke:#221E1F;stroke-width:6;stroke-linecap:round;stroke-linejoin:round;" x1="152.2" y1="193.4" x2="152.2" y2="197.4"/>
		
			<line style="fill:none;stroke:#221E1F;stroke-width:6;stroke-linecap:round;stroke-linejoin:round;" x1="152.2" y1="208.1" x2="152.2" y2="212.1"/>
		
			<line style="fill:none;stroke:#4FAE32;stroke-width:6;stroke-linecap:round;stroke-linejoin:round;" x1="161.6" y1="202.7" x2="157.6" y2="202.7"/>
		
			<line style="fill:none;stroke:#4FAE32;stroke-width:6;stroke-linecap:round;stroke-linejoin:round;" x1="146.9" y1="202.7" x2="142.9" y2="202.7"/>
		
			<line style="fill:none;stroke:#221E1F;stroke-width:6;stroke-linecap:round;stroke-linejoin:round;" x1="243.2" y1="123.4" x2="243.2" y2="127.4"/>
		
			<line style="fill:none;stroke:#221E1F;stroke-width:6;stroke-linecap:round;stroke-linejoin:round;" x1="243.2" y1="138.1" x2="243.2" y2="142.1"/>
		
			<line style="fill:none;stroke:#4FAE32;stroke-width:6;stroke-linecap:round;stroke-linejoin:round;" x1="252.6" y1="132.7" x2="248.6" y2="132.7"/>
		
			<line style="fill:none;stroke:#4FAE32;stroke-width:6;stroke-linecap:round;stroke-linejoin:round;" x1="237.9" y1="132.7" x2="233.9" y2="132.7"/>
	</g>
</g>
</svg>
