<?xml version="1.0" encoding="utf-8"?>
<!-- Generator: Adobe Illustrator 24.1.3, SVG Export Plug-In . SVG Version: 6.00 Build 0)  -->
<svg version="1.0" id="Layer_1" xmlns="http://www.w3.org/2000/svg" xmlns:xlink="http://www.w3.org/1999/xlink" x="0px" y="0px"
	 viewBox="0 0 187.7 230.8" style="enable-background:new 0 0 187.7 230.8;" xml:space="preserve">
<g id="レイヤー_2">
	<g id="Layer_1_1_">
		<path style="fill:none;stroke:#221E1F;stroke-width:7;stroke-linecap:round;stroke-linejoin:round;" d="M84.4,47.6
			c12.2,0,22.1-9.9,22.1-22.1S96.6,3.5,84.4,3.5s-22.1,9.9-22.1,22.1c0,0,0,0,0,0.1C62.4,37.8,72.3,47.6,84.4,47.6z"/>
		<path style="fill:none;stroke:#4FA536;stroke-width:7;stroke-linecap:round;stroke-linejoin:round;" d="M118.5,172.6
			c-7.4,25.9-34.4,40.8-60.3,33.4s-40.8-34.4-33.4-60.3c4-13.9,14-25.4,27.2-31.2V93.8C16,104.7-4.5,142.7,6.3,178.7
			s48.8,56.5,84.9,45.7c18.7-5.6,34.2-19,42.3-36.8l-7.7-15.1L118.5,172.6z"/>
		<path style="fill:none;stroke:#221E1F;stroke-width:7;stroke-linecap:round;stroke-linejoin:round;" d="M182.8,198.8l-29.5-58.1
			c-2.2-4.3-6.7-7.1-11.5-7.1h-37.8V125h32.6c5.3-0.2,9.5-4.5,9.7-9.7c0-5.4-4.4-9.7-9.7-9.7h-32.6V76.3c0-8.1-6-19.4-19.4-19.4
			C73.7,56.8,65,65.5,65,76.2c0,0,0,0,0,0.1v63.4c0,10.9,8.9,19.8,19.8,19.8c0,0,0,0,0,0h48.9l25.9,51c2.2,4.3,6.7,7.1,11.6,7.1
			c7.2-0.1,13-5.9,12.9-13.1C184.1,202.5,183.7,200.6,182.8,198.8L182.8,198.8z"/>
	</g>
</g>
</svg>
