<?xml version="1.0" encoding="utf-8"?>
<!-- Generator: Adobe Illustrator 24.1.3, SVG Export Plug-In . SVG Version: 6.00 Build 0)  -->
<svg version="1.0" id="Layer_1" xmlns="http://www.w3.org/2000/svg" xmlns:xlink="http://www.w3.org/1999/xlink" x="0px" y="0px"
	 viewBox="0 0 293.1 230.5" style="enable-background:new 0 0 293.1 230.5;" xml:space="preserve">
<g id="レイヤー_2">
	<g id="Layer_1_1_">
		<path style="fill:#4F9D37;stroke:#221E1F;stroke-width:7;stroke-linecap:round;stroke-linejoin:round;" d="M146.6,191.3
			c-9.9,0-17.8,8.1-17.8,17.9c0,9.9,8.1,17.8,17.9,17.8c9.8,0,17.8-8,17.8-17.9C164.5,199.3,156.5,191.3,146.6,191.3z"/>
		<path style="fill:none;stroke:#221E1F;stroke-width:7;stroke-linecap:round;stroke-linejoin:round;" d="M284.7,57.1
			c-36.9-34.6-86-53.6-138.2-53.6S45.3,22.5,8.4,57.1c-6.1,5.5-6.6,15-1,21.1c0.3,0.4,0.7,0.7,1,1c6.7,6.1,16.9,6.1,23.6,0
			c30.6-28.7,71.3-42.8,114.6-42.8s84,14.1,114.6,42.8c6.7,6.1,16.9,6.1,23.6,0c6.1-5.6,6.5-15.1,0.9-21.2
			C285.3,57.7,285,57.4,284.7,57.1z"/>
		<path style="fill:none;stroke:#221E1F;stroke-width:7;stroke-linecap:round;stroke-linejoin:round;" d="M146.4,66
			c-38.3-0.1-75,15-102.1,42c-6.8,6.7-6.8,17.6-0.1,24.3c0,0,0.1,0.1,0.1,0.1c6.8,6.8,17.8,6.8,24.6,0c20.7-20.5,48.2-33,77.4-33
			s56.8,12.4,77.4,33c6.8,6.8,17.8,6.8,24.6,0c6.8-6.7,6.8-17.6,0.1-24.3c0,0-0.1-0.1-0.1-0.1C221.4,81,184.7,65.9,146.4,66z"/>
		<path style="fill:none;stroke:#221E1F;stroke-width:7;stroke-linecap:round;stroke-linejoin:round;" d="M146.6,128.6
			c-21.8,0-42.7,8.9-57.7,24.6c-6.4,6.7-6.4,17.2,0,23.9c6.1,6.4,16.2,6.6,22.6,0.5c0.2-0.2,0.3-0.3,0.5-0.5
			c9.2-9.5,21.5-15.3,34.6-15.3s25.4,5.8,34.6,15.3c6.1,6.4,16.2,6.6,22.6,0.5c0.2-0.2,0.3-0.3,0.5-0.5c6.4-6.7,6.4-17.2,0-23.8
			C189.2,137.5,168.4,128.6,146.6,128.6z"/>
	</g>
</g>
</svg>
