<svg id="Layer_1" data-name="Layer 1" xmlns="http://www.w3.org/2000/svg" viewBox="0 0 319.78 63.7"><title>info-subtext</title><path d="M1,51c5.91-2.35,12.56-2.76,17.78-7,1.73-1.42,3.35-2.47,3.57-5,.51-5.84-.17-6.59-5.93-6.12-2.63.21-5.48.75-7.07-2.24a3.05,3.05,0,0,1-.16-2.33c.4-.88,1.35-.72,2.15-.27a3.81,3.81,0,0,0,.45.23c3.61,1.37,7.05.89,9.52-2C23.17,24,21.55,15.84,19.05,14s-1.4-2.93.63-3.75c2.77-1.12,7.58,1.32,7.26,4.08-.61,5.3,2.52,6.21,6.43,6.71,1.32.16,2.84,0,3.28,1.65s-.78,2.86-2,3.68a19.51,19.51,0,0,1-4.84,2.5c-3.6,1.12-4.36,3.62-4.13,7,.21,3.16,1.58,3.78,4.21,2.31A37.12,37.12,0,0,1,42.63,34c6-.9,11.25,1.57,13.49,6.28S57,52.66,53.24,56.56,41.91,62.31,37.6,60.18A9.23,9.23,0,0,1,34,46.9c1,.43.78,1.38.75,2.12-.15,3.8,1.41,6.62,5.1,7.61s6.93-.49,9.28-3.42c3-3.71,3.62-8,1.31-12.15-2.39-4.27-6.66-4.5-11-3.6a29.55,29.55,0,0,0-4.28,1.36c-9.34,3.49-9.79,4.23-9,14.1.11,1.33.1,2.67.32,4,.46,2.85-.47,5.07-3.21,6-3.09,1-3.43-1.68-4.23-3.62a16.43,16.43,0,0,0-3.83-5.18c-1-1.05-2.6-1.74-3.54-.6C7.2,59,4.18,55.22,1,52Zm21.36.11c-.33-1.46.6-3.84-1.82-3.92a4,4,0,0,0-4.2,3.49c-.17,2.21,2,3.63,3.84,3.94C22.76,55.06,22.13,52.65,22.36,51.11Z" transform="translate(-1 -3.58)"/><path d="M87.25,66.9c-.41-2.33,1.77-2.87,3-4a33.5,33.5,0,0,0,11-20.75c.49-3.77-.6-5.59-4.77-5.41-3.2.14-6.51.65-10.69-.6C90,34,93.55,34.89,97,34.9s5.25-1.1,4.77-4.6c-.46-3.27,2-7.87-1.92-9.53-4.24-1.8-5.37,3.34-7.74,5.6-1.52,1.44-2.51,3.52-4.71,4.12-1.52-1.4-.23-2.28.35-3.07A64.92,64.92,0,0,0,97.3,7.22c.47-1.57.78-3.79,2.77-3.64a12.41,12.41,0,0,1,5.41,2.27c1.32.86.59,2-.52,2.77-3,2.24-5.38,5-5,9,.12,1.28,10.71,1.13,12.92-.16a16,16,0,0,0,2-1.53c1.59-1.34,3.06-1,4.43.33.8.79,2.11,1.53,1.46,2.85-.84,1.68-2.64.9-4,1.1a4.17,4.17,0,0,1-.5,0c-8.83.11-11.39,3.52-9.23,12.3.62,2.53,4.65,3.56,7.5,1.29s4.84-3.37,8.06-.55c1.83,1.61,2.4-.6,2.43-2.17.06-4.33.09-8.66,0-13,0-2.69.17-4.17,3.61-2.6,4.66,2.12,9.66,2.49,14.27-.31,1.78-1.07,2.81-.37,4,.6s3.09,2.14,2.25,4c-2.94,6.59-1,13.46-1.37,20.17-.34,5.82-.08,11.67-.08,17.5,0,1.93-.26,3.9-2.45,4.37-2.37.52-2.3-1.62-2.94-3.13-1.69-4-5.36-2.32-8.29-2.5-2.73-.16-3.74,1.54-3.75,4.16,0,2.17-.86,4.27-3.37,4C124.1,64.19,125,61.66,125,60c-.1-5.83-.34-11.69.06-17.49.33-4.83-1.63-6.27-6.07-5.81-2.48.25-5,.07-7.5.11-2.14,0-4.51-.31-5,2.73-.51,2.86-1,5.66,2.3,7.37a29,29,0,0,1,9.54,7.14c1.24,1.54,2.4,3.22,2.4,5.38,0,1.4-.2,2.74-1.74,3.25a2.84,2.84,0,0,1-3.74-1.55c-1.73-3.21-3.18-6.56-5.69-9.35s-4.35-3.74-6.26.68c-2.74,6.35-8.11,10.44-13.61,14.26A1.83,1.83,0,0,1,87.25,66.9Zm43-30.61c0,4.5.09,9,0,13.49-.1,3.77,1.7,5,5.26,4.7,3.31-.25,7,.55,6.94-4.7q-.12-13.48,0-27c0-4.93-3.56-3.86-6.37-3.95s-6-.57-5.83,3.95S130.22,31.79,130.21,36.29Z" transform="translate(-1 -3.58)"/><path d="M286.53,39c1.93-.66,3,.33,4.05,1,1.91,1.17,4.09,2.69,5.54,0s2.25-5.91,1-9.09a1.47,1.47,0,0,0-1.17-.76c-5.32.54-10.75,1.35-15.16,4.36-3.13,2.13-1.67,6.15-1.45,9.39.84,12.34,8,14.41,21.5,12.54,1.8-.25,3.55-.93,5.35-1A3.13,3.13,0,0,1,309.44,58c.43,1.9-1,2.68-2.55,3.07a37.86,37.86,0,0,1-23.52-1.45c-6.28-2.48-7-8.43-7.54-14.14-.89-10.18-.8-10.19-10.38-5.79-4,1.84-7.75.31-9.07-3.71-.26-.79-.64-1.71.24-2.22a2.18,2.18,0,0,1,1.8.16c5.28,2.83,10.26,0,14.92-1.49,3.57-1.15,1.56-5.58,1.87-8.57.24-2.33-.52-4.3-3.19-4.89-.77-.18-1.69,0-2.43-1.26,1.88-2.52,4.25-2.81,7.2-1.75s4.4,2.71,4.09,6.29c-.77,8.9-.56,8.92,8.13,6.53a9,9,0,0,0,1.9-.61c2.53-1.38,6.87.23,7.42-4.43.59-5.06,2.27-10.43-4.2-13.7,2.87-2.53,5.34-1.28,7.64-.2s2.3,3.32,1.87,5.61c-.4,2.12-.54,4.28-.74,6.44-.13,1.36-.14,2.89,1.57,3.18,1.42.24,3.17.42,3.55-1.68.21-1.12.48-2,1.86-1.53,3,1,6,1.94,9,3,1.39.49,2.27,1.54,1.81,3.09s-1.91,1.74-3.27,1.42c-3.63-.85-7.3-.45-11-.62-2.91-.13-4.25,1.14-4.53,4a86.86,86.86,0,0,1-1.37,9.38,6.9,6.9,0,0,1-5.37,5.35c-3.12.83-3.36-1.89-4.55-3.53S288,40.76,286.53,39Z" transform="translate(-1 -3.58)"/><path d="M192.85,66.33c5-1.68,10.24-2.51,15-4.78a20,20,0,0,0,10-9.33c2.7-5.5-.57-11.09-6.63-11.45-6.44-.38-12.16,3.27-15,9.48-.8,1.74-1.23,4.26-3.91,3.68-2.5-.54-4.67-2-5.2-4.78a21.91,21.91,0,0,1,.21-7.95,63.69,63.69,0,0,0,1.52-14.85c-.25-5.22,3.4-7.76,7.83-9,3.09-.87,3.59-1.91,1.39-4.26A7.34,7.34,0,0,1,196.87,11c-.57-1.34-1.8-3.07-.51-4.14,1.83-1.53,2.24,1,3.19,1.84a10.07,10.07,0,0,0,6.36,2.52c1.7.07,3.35.24,4.48,1.74,1,1.35,2.08,2.78,1.3,4.55s-2.46,1.47-3.93,1.25c-3.15-.48-6.31-.75-9.39.25-3.62,1.17-6.31,2.8-4.77,7.55,1.12,3.44-1,6.79-1.27,10.26a41,41,0,0,1-1,4.38c-.29,1.62-.82,3.51.87,4.57s3.13-.42,4.27-1.55A24.36,24.36,0,0,1,206.61,38c7.4-2.31,14.47.14,17.23,6,2.68,5.7.4,12.75-5.9,16.86C210.34,65.81,201.8,67.21,192.85,66.33Z" transform="translate(-1 -3.58)"/><path d="M47.34,24.38c7.22-4.95,15.45-3.08,18.55,3.35,1,2.18,1.35,4.21-1,5.63-2.72,1.63-3.28-.62-4.21-2.44C58,25.61,53.36,23.72,47.34,24.38Z" transform="translate(-1 -3.58)"/></svg>