<svg xmlns="http://www.w3.org/2000/svg" viewBox="0 0 309.31 59.48"><path d="M38.9.71C37.23.71,36,1,36,1.55c0,.25.26.38,1,.64a9.93,9.93,0,0,1,5.69,5.05,1.75,1.75,0,0,0,1.73,1,2.7,2.7,0,0,0,2.81-2.5C47.21,3.14,43.12.71,38.9.71ZM32.05,5.83c-1.54,0-2.56.26-2.56.7s.13.52.9.7a9.51,9.51,0,0,1,5.31,4.48c.64,1.09,1.09,1.47,1.92,1.47a2.73,2.73,0,0,0,2.81-2.43c0-2.55-4-4.91-8.38-4.91ZM5.3,6.41c-.2,0-.26.13-.26.38,0,4.61,3.65,8.77,8.77,9.92a.51.51,0,0,1,.51.49v0a1,1,0,0,1-.38.64c-2.12,1.92-4,4-4,4.36a.36.36,0,0,0,.32.32,9,9,0,0,0,1.41-.64c4.93-2.3,11.78-4.1,15.75-4,2.36-.07,3.39-.64,3.39-1.92a9.63,9.63,0,0,0-1-3.27,3.8,3.8,0,0,0-3.2-2.29,12.78,12.78,0,0,0-2.88.57,22,22,0,0,1-5.76.83c-4.87,0-10.62-2.37-12.35-5.12A.49.49,0,0,0,5.3,6.41ZM3.06,30.86C1.71,30.86,0,35.27,0,38.73,0,48.2,7.6,53.38,21.36,53.38c4.86,0,10.3-.64,13.18-1.6,2.37-.76,3.33-1.85,3.33-3.77S36,44.42,33.46,44.42a8.27,8.27,0,0,0-2.82.64,45.53,45.53,0,0,1-12.16,1.86c-4.35,0-8.77-1-11.07-2.5C4.47,42.57,2.8,39.24,2.8,35.21a19.09,19.09,0,0,1,.45-3.84.48.48,0,0,0,.06-.26A.27.27,0,0,0,3.06,30.86ZM69.3,28.68l1.08-.7a1.34,1.34,0,0,0,.84-1.15,1.51,1.51,0,0,0-.84-1.09l-1-.77a44.46,44.46,0,0,0,3.46-7.87l1.53-.32a1.63,1.63,0,0,0,1.41-1.54,1.6,1.6,0,0,0-1-1.41l-6.59-3.07c-2.75,12.48-5.82,20.1-11.39,27.9-2.75,3.84-2.75,3.84-2.75,4.16a.42.42,0,0,0,.44.39c.32,0,1.28-.71,3.08-2.18a36.15,36.15,0,0,0,6.59-7.16V57.54c0,.71.25.9,1,.9,2.62,0,4.1-.58,4.1-1.66V28.68Zm33.21-18.5a41.91,41.91,0,0,1-2.62,5.89,3.45,3.45,0,0,0-.7,1.47.42.42,0,0,0,.38.39c.19,0,.19,0,1.6-1l2.37-1.6,2.56-1.79c.06,0,.38-.26.83-.52l2.95.13h.19a1.34,1.34,0,0,0,1.62-1,1.17,1.17,0,0,0,0-.32,1.74,1.74,0,0,0-.51-1.15L105,4.68l-2.5,3.78H86.57v-5l1-.38a1.32,1.32,0,0,0,1-1.21A1.17,1.17,0,0,0,87.49.65h-.08L80.56,0V8.46H63.73C63,5.83,62.58,4.94,62.19,4.94s-.32.12-.38,1c-.19,3.14-1.54,5.63-4.54,8.19-1.28,1.22-1.8,2.11-1.8,3.2a3,3,0,0,0,2.87,3.08h.27a5.22,5.22,0,0,0,4.16-2.11,9.65,9.65,0,0,0,1.66-4.92,28.54,28.54,0,0,0-.25-3.2h38.33ZM73.9,21.45c3.65-.13,5.32-.19,7.68-.19h5.64a53.78,53.78,0,0,1-1.28,7.87H83l-6.33-3.52V57.54a.87.87,0,0,0,.69,1,.82.82,0,0,0,.27,0c2.75,0,4.35-.71,4.35-1.86V54.92h18.37v2.37a.78.78,0,0,0,.72.84.65.65,0,0,0,.24,0,10.68,10.68,0,0,0,3.39-.7,1.28,1.28,0,0,0,1-1.28V33.29l1.15-.19a1.31,1.31,0,0,0,1.34-1.27v-.08a1.86,1.86,0,0,0-.64-1.21l-5.44-5.06-2.17,3.65H88.82c2.56-3.39,2.94-4,5.69-7.87H110c.77,0,1.15-.26,1.15-.77a1.09,1.09,0,0,0-.51-.83l-5.44-4.55-4,4.42H81.58c-2.36,0-4.22-.07-8.51-.26ZM82,53.19V42.57h18.37V53.19Zm0-12.35v-10h18.37v10Zm38.4-23.62c-.32,0-.45.07-.45.26a.66.66,0,0,0,.38.45c2,1.6,3.33,3.71,4.36,7.1.57,2.23,1.4,3.07,2.94,3.07a3.4,3.4,0,0,0,3.14-3.64h0c0-2.5-1.92-4.86-4.87-6.08a19.48,19.48,0,0,0-5.49-1.15Zm5.31,23.88c-1.66-.2-3.39-.39-4.1-.39s-1.15.26-1.15.77.13.51,1,.77c2.75.83,4.16,2.37,4.16,4.54a21,21,0,0,1-.32,3,33.77,33.77,0,0,0-.64,5.31,3,3,0,0,0,2.59,3.33,3.05,3.05,0,0,0,.74,0,3.53,3.53,0,0,0,3.72-3.31c0-.15,0-.31,0-.47a42.12,42.12,0,0,0-1.15-7.49,14.76,14.76,0,0,1-.38-2.88,4.36,4.36,0,0,1,.32-1.85l10.17-29.19a.43.43,0,0,0,.07-.25.64.64,0,0,0-.58-.64.76.76,0,0,0-.64.45Zm.13-38.53c-.64,0-1,.19-1,.51a.48.48,0,0,0,.32.38c2.62,2.05,3.33,3.08,4.41,6.72.7,2.56,1.67,3.52,3.27,3.52,1.79,0,3.2-1.66,3.2-3.9,0-3.84-4.8-7.23-10.24-7.23Zm21.44,52.35h21.69v3c0,.64.39.89,1.22.89a12.11,12.11,0,0,0,3.9-.76,1.28,1.28,0,0,0,1.09-1.16v-36l1.15-.58c1.09-.57,1.47-1,1.47-1.53a2.24,2.24,0,0,0-.83-1.41l-5.76-6.34-3,4.48h-15c1.54-2.17,2.56-3.71,3.39-5,2.11-3.26,2.18-3.39,3-4.67l1.22-.51a1.8,1.8,0,0,0,1.47-1.67,1.61,1.61,0,0,0-1.41-1.47L153.64,0a151.77,151.77,0,0,1-2.56,15.55h-2.94l-6.85-3.71V58.38a1,1,0,0,0,.83,1.1,1,1,0,0,0,.39,0c2.37,0,4.73-.89,4.73-1.72V54.92Zm0-1.73V35.72h21.69V53.19Zm0-19.2V17.29h21.69V34Zm39.81-6.84c6.78-.26,9-.32,11.26-.32h12.93V50.25c0,1.09-.45,1.6-1.41,1.6h-1.35c-2.3-.07-2.55-.07-6.91-.39a2.72,2.72,0,0,0-.7-.06.5.5,0,0,0-.57.45h0c0,.38.9.77,3.65,1.66,1.21.32,4.92,1.6,5.24,1.73s.45.45.51,2c.07,1.35.39,1.86,1.16,1.86a11.66,11.66,0,0,0,3.77-1.22c2.3-1.21,2.88-2.11,2.88-4.48V26.83h16.39c-1.67,2.81-6.6,8.44-10.3,11.83-1.67,1.6-1.67,1.6-1.67,1.86a.44.44,0,0,0,.45.38c.83,0,5.12-2.68,14.72-9.21l1.6-1.09,4-.25A1.43,1.43,0,0,0,244,28.87a2.55,2.55,0,0,0-.7-1.72l-5.57-5.7-3.33,3.65h-36c-2.75,0-5.44-.07-12.61-.32Zm6.46-18.5c5.12-.19,7.23-.26,9.53-.26h20.87a59.71,59.71,0,0,1-8.39,8.13,18.75,18.75,0,0,0-6.65-3.14,28.71,28.71,0,0,0-3.9-.7.37.37,0,0,0-.44.27.49.49,0,0,0,0,.12.64.64,0,0,0,.51.51,14.06,14.06,0,0,1,6.4,6.72c1.67,3.58,2.11,4.1,3.78,4.1a3,3,0,0,0,2.94-3v-.08A6.51,6.51,0,0,0,217,18.06c3.39-1.72,4.86-2.5,12.86-6.72l3.39.07.2.06a1.76,1.76,0,0,0,1-1.21A2.15,2.15,0,0,0,233.84,9l-5.76-5.76-3.33,3.39H203.06c-3.07,0-5.44-.06-11.07-.32Zm66.56,30.46a1.19,1.19,0,0,0,.64-1c0-.7-.58-1.15-1.6-1.4l-4.87-1.09A71.5,71.5,0,0,1,251.5,54.6a14.41,14.41,0,0,0-.7,2.75.39.39,0,0,0,.33.44h.06c.51,0,1.4-1.34,3.2-4.67a54.85,54.85,0,0,0,4.73-13.31ZM261.81,58a.74.74,0,0,0,.62.84.88.88,0,0,0,.28,0,15,15,0,0,0,2.75-.44c1.28-.39,1.6-.71,1.6-1.6V30.15c.77-.12,1.66-.38,4.29-1l.25,1.22a18.33,18.33,0,0,0,.64,3,2,2,0,0,0,2.05,1.47c1.6,0,2.82-1.54,2.82-3.58,0-2.56-2.37-5.57-5.89-7.56a20.63,20.63,0,0,0-3-1.41.17.17,0,0,0-.19.15v0a.72.72,0,0,0,.19.39,11,11,0,0,1,2.56,4.42q-2.11.19-7.87.57h-1.09a32.69,32.69,0,0,1,2.37-2.75c.32-.26,1.15-1.22,2.37-2.56.64-.77,1.47-1.6,2.3-2.5l2.37-2.5,2-2.3.51-.58,1.35-.38a1.43,1.43,0,0,0,1.28-1.15,2,2,0,0,0-1-1.48l-4.86-3.32c-2.43,5.76-5,10.56-10.11,18.81l-.45.7-.9.07c-3.58.13-4.1.13-7.81.32h-1l2.62,5c.45.77.64,1,1.16,1a1.51,1.51,0,0,0,1.34-1l.32-.64.7-.19,2.5-.51c1.47-.32,2.5-.58,2.94-.71V58ZM268.08,5.7a1.43,1.43,0,0,0,1.15-1.28,1.57,1.57,0,0,0-1-1.28L263.15.33a104.35,104.35,0,0,1-4.54,12.35,16.49,16.49,0,0,0-7-2.69.3.3,0,0,0-.32.26.92.92,0,0,0,.39.57c2.3,1.73,3.39,3.65,4.22,7.1.64,2.56,1.34,3.46,2.69,3.46a3.16,3.16,0,0,0,3-3.2,7.11,7.11,0,0,0-1.79-4.35l.51-.58,2-2.11c2.88-3.14,4.41-4.8,4.73-5.06Zm1.15,30.4a.27.27,0,0,0-.32.22.17.17,0,0,0,0,.1,1.23,1.23,0,0,0,.19.7,24.4,24.4,0,0,1,2.24,8.06c.51,4.23,1,5.25,2.63,5.25s2.81-1.54,2.81-4c0-2.75-1.47-5.37-4.48-8.32-1.28-1.14-2.56-2-3.07-2Zm14.21-20.48H301.8c.07,2.75.13,4.22.13,6.34a167.32,167.32,0,0,1-.83,20c-.9,6.21-2.75,8.83-6.34,8.83a66.7,66.7,0,0,1-6.91-.64,13.18,13.18,0,0,0-1.53-.25.34.34,0,0,0-.39.25h0c0,.26.39.52,1.35,1,5.56,2.76,6.65,3.4,6.46,4,.13,1.79.13,1.79.38,2.17a1.38,1.38,0,0,0,1.35.64,9.44,9.44,0,0,0,5.38-2.24c2.43-2,4.22-5.37,5-9.41C307,41,307.31,35.2,307.37,19.46v-1l.83-.39a1.27,1.27,0,0,0,1.09-1.28,2.17,2.17,0,0,0-.9-1.66l-4.86-5.06-2.43,3.84H284.53a72,72,0,0,0,3.77-8.06l1.35-.38a1.49,1.49,0,0,0,1.21-1.22c0-.64-.51-1.09-1.66-1.66L283.7,0a78.89,78.89,0,0,1-7.1,22.78c-1.09,2.18-1.09,2.18-1.09,2.43a.33.33,0,0,0,.26.38h.06c.38,0,.58-.2,1.41-1.16a50.87,50.87,0,0,0,5.95-8.38Zm-3.78,9.47a.39.39,0,0,0-.44.33.43.43,0,0,1,0,0,.87.87,0,0,0,.45.51c3.27,2.12,5.5,5.57,6.79,10.31.64,2,1.47,2.75,2.81,2.75a3.47,3.47,0,0,0,3.47-3.47c0-.08,0-.16,0-.24,0-3.27-2.56-6.47-6.66-8.45a20.61,20.61,0,0,0-6.4-1.78Z" transform="translate(0.01 -0.01)" fill="#fff" fill-rule="evenodd"/></svg>