<svg xmlns="http://www.w3.org/2000/svg" viewBox="0 0 304.97 26.61">
  <defs>
    <style>
      .cls-1 {
        fill: #2d2d2d;
        stroke: #2d2d2d;
        stroke-linecap: round;
        stroke-linejoin: round;
        stroke-width: 0.25px;
      }
    </style>
  </defs>
  <title>Asset 3</title>
  <g id="Layer_2" data-name="Layer 2">
    <g id="_レイヤー_" data-name="&lt;レイヤー&gt;">
      <g>
        <path class="cls-1" d="M5.16,20.18a7.68,7.68,0,0,1-2,.4c-1.11,0-2.35-1.21-2.92-2.89a.75.75,0,0,0-.07-.24,1.28,1.28,0,0,1-.07-.26A.23.23,0,0,1,.29,17a.45.45,0,0,1,.27.13,4.54,4.54,0,0,0,3.29.91c2.59,0,7-.37,12.83-1,1-.13,1.75-.2,2.35-.27a14.29,14.29,0,0,0,3.87-.87,1.85,1.85,0,0,1,.6-.17,7.47,7.47,0,0,1,2.35,1c1.08.64,1.51,1.11,1.51,1.65a.77.77,0,0,1-.8.77,11.73,11.73,0,0,1-1.85-.24,30.2,30.2,0,0,0-5.51-.4A64.25,64.25,0,0,0,5.16,20.18Zm14-14c.74.34,1,.67,1,1.11s-.26.5-.94.57c-4.4.67-4.76.74-7.65,1.24a11.47,11.47,0,0,1-2.25.27c-1.11,0-1.75-.4-2.56-1.68A6.22,6.22,0,0,1,6.1,6.47a.19.19,0,0,1,.2-.17c.11,0,.14,0,.31.21.4.5,1.17.7,2.78.7a17.91,17.91,0,0,0,6.89-1.38c.7-.36.8-.4,1.11-.4s.33,0,.9.34Z"/>
        <path class="cls-1" d="M50.13,15.71a18.17,18.17,0,0,0,.21-2c0-.54-.37-.84-.94-.84-1,0-2.49.4-5.44,1.48a3.72,3.72,0,0,1-1,.3A2.22,2.22,0,0,1,41.6,14a1.77,1.77,0,0,1-.67-1.48c0-.53.1-.8.31-.8.06,0,.06,0,.13.1.23.67.77.94,2,.94a19.72,19.72,0,0,0,4.2-.61,6.36,6.36,0,0,0,2.61-1,1.86,1.86,0,0,1,.74-.27c.27,0,.78.3,2.42,1.48.37.27.54.47.54.67s-.1.34-.47.71c-.64.4-1.34,2.58-2.32,7.12a41.07,41.07,0,0,0,5.71-.74,4.71,4.71,0,0,1,.87-.1c.44,0,.81.2,1.82,1,.6.44.87.81.87,1.21a.72.72,0,0,1-.67.64,3.8,3.8,0,0,1-.91-.17A31.49,31.49,0,0,0,51.85,22a59.77,59.77,0,0,0-6.85.51,19.34,19.34,0,0,0-4,.9,3.78,3.78,0,0,1-1.51.44c-.37,0-.74-.2-1.72-.91s-1.14-.87-1.14-1.24.17-.81.34-.81.1,0,.16.14c.27.43,1.21.7,2.56.7.23,0,.6,0,1.1-.06,1-.07,1.89-.14,2.56-.21,2.28-.13,4-.26,4.26-.3s.94-.1,1.72-.17Z"/>
        <path class="cls-1" d="M74,15.37a7.08,7.08,0,0,1-1.55.24,4.07,4.07,0,0,1-3-1.82,9.49,9.49,0,0,1-.24-1.88c0-.23.1-.4.27-.4s.17.07.27.24c.44,1,1.24,1.31,3.19,1.31a157.76,157.76,0,0,0,19.41-1.38,7.39,7.39,0,0,1,.91-.07,2.26,2.26,0,0,1,1.78.74c.64.6.87.94.87,1.24,0,.51-.67.81-1.74.81-.27,0-.64,0-1.25,0s-3.46-.11-4.87-.11A91,91,0,0,0,74,15.37Z"/>
        <path class="cls-1" d="M125.4,16.55c1.95,1.54,3,3.16,3,4.63a1.61,1.61,0,0,1-1.48,1.75c-.67,0-1.1-.44-1.54-1.58a13.39,13.39,0,0,0-7-7.52,27.45,27.45,0,0,1-10,8.53,18.87,18.87,0,0,1-4.43,1.74c-.24,0-.51-.2-.51-.4s.1-.2.64-.4c3.23-1.24,7.42-4.37,10.41-7.73a31.66,31.66,0,0,0,4.71-7.18,10.27,10.27,0,0,0,1.2-3.06c0-.3-.23-.5-.6-.5a37,37,0,0,0-8,2.11c-.57.24-.61.24-.74.24-.3,0-.34,0-1.41-.81a1.63,1.63,0,0,1-.88-1.61c0-.64.1-.91.34-.91.07,0,.13.07.17.17.2.5,1.21.87,2.38.87a53.44,53.44,0,0,0,6.48-1,7.19,7.19,0,0,0,2.69-1.11.88.88,0,0,1,.54-.2c.33,0,.74.23,2,1.21.91.7,1.08.87,1.08,1.14s-.1.23-.4.43-.34.24-.71.51a48.46,48.46,0,0,1-4.5,7.39A15.31,15.31,0,0,1,125.4,16.55Z"/>
        <path class="cls-1" d="M166,20.18c-1.72,2-3.11,2.79-4.8,2.79a5.93,5.93,0,0,1-4-1.79,9.36,9.36,0,0,1-5.42,1.67c-3.7,0-6.24-2-6.24-4.81A4.92,4.92,0,0,1,148,14a14.48,14.48,0,0,1,3.29-1.6C150.25,10,150,9,150,8.08,150,5.67,152.07,4,155,4s5,1.57,5,3.75c0,1.34-.72,2.31-2.29,3.16a20.72,20.72,0,0,1-3.8,1.51,28.63,28.63,0,0,0,4.42,6.86c1.92-1.87,3-3.54,3-4.78a1.26,1.26,0,0,0-1-1.2,4.64,4.64,0,0,0-1.62-.18v-.82h7.19v.82c-2,.05-2.64.54-3.9,2.82a14.14,14.14,0,0,1-3.08,3.91c1.36,1.23,2.2,1.66,3.23,1.66s2-.51,3.34-1.84Zm-16.82-5.47a4.32,4.32,0,0,0-1,2.77c0,2.36,2,4,4.78,4a6.61,6.61,0,0,0,3.52-1,26.73,26.73,0,0,1-4.86-7.32A5.41,5.41,0,0,0,149.17,14.71Zm8.71-7.2A2.75,2.75,0,0,0,155,4.79a2.59,2.59,0,0,0-2.78,2.7A8.49,8.49,0,0,0,153,10.6l.48,1C156.44,10.75,157.88,9.42,157.88,7.51Z"/>
        <path class="cls-1" d="M194.08,10.17c1.71.77,1.71.77,1.71,1.11a1.15,1.15,0,0,1-.13.47,7.1,7.1,0,0,0-.31,2.68l.07,3.43v3.83l0,2.31c0,.44,0,.84,0,1.11,0,.87-.3,1.38-.81,1.38-1,0-2.18-.87-2.18-1.65a2.51,2.51,0,0,1,.1-.63,107.75,107.75,0,0,0,.81-11.63,3.46,3.46,0,0,0-.41-2,42.39,42.39,0,0,1-8.73,6.92,14.94,14.94,0,0,1-3.73,1.58c-.13,0-.33-.13-.33-.27s.06-.17.33-.27c5.31-2.41,15.69-13,15.69-16,0-.34-.64-.94-1.11-1-.3-.07-.37-.14-.37-.27s.7-.47,1.38-.47c1.24,0,3.79,1.81,3.79,2.72,0,.23-.1.33-.4.5-.51.2-.67.34-1.21,1A56.05,56.05,0,0,1,193.64,10Z"/>
        <path class="cls-1" d="M220.31,12.72,219.2,14c-.5.57-.87,1-1,1.17-1,1.28-1.34,1.51-2,1.51a3.19,3.19,0,0,1-2.69-2,5.66,5.66,0,0,1-.13-1.47c0-.17.06-.27.23-.27s.2.06.3.37a1.44,1.44,0,0,0,1.35.77c.54,0,.87-.2,2-1.08.78-.6,3-2.65,4.37-4s1.88-1.58,3-1.58,1.17.1,2.92,1.64c5.27,4.67,8.59,7,11.72,8.27,1.37.53,1.48.57,1.88,1a2.09,2.09,0,0,1,.67,1.48A1.27,1.27,0,0,1,240.39,21c-1.1,0-2.72-.91-5.24-2.89-2.31-1.85-6.38-5.51-8.26-7.46-1.11-1.14-1.78-1.54-2.55-1.54S223.13,9.46,220.31,12.72Zm15.08-5.41a1.2,1.2,0,0,1-1.11,1.14c-.47,0-.57-.1-1-.87A5.81,5.81,0,0,0,230,5c-.1,0-.17-.1-.17-.17s.5-.27,1.07-.27C233.14,4.59,235.39,6,235.39,7.31ZM239,5.87A1.19,1.19,0,0,1,237.94,7c-.47,0-.74-.21-1-.71a5.91,5.91,0,0,0-3.25-2.69c-.14-.06-.21-.1-.21-.16s.41-.24.91-.24C236.8,3.18,239,4.46,239,5.87Z"/>
        <path class="cls-1" d="M261,8.15a1.41,1.41,0,0,1-1.55,1.45c-.44,0-.67-.17-1-.78a7.39,7.39,0,0,0-5.17-4.13c-.2-.06-.3-.13-.3-.23s.6-.41,1.58-.41C257.79,4.05,261,6.1,261,8.15Zm-4.37,14.91a5,5,0,0,1-2.42-1.74,2.48,2.48,0,0,1-.84-2.12c0-.64.17-1.14.4-1.14s.21.07.27.23a2.38,2.38,0,0,0,2,1.72c1.38,0,5.44-2.52,10.31-6.38A68.08,68.08,0,0,0,272.67,8c.67-.67,2.49-2.76,2.82-3.16s.4-.54.57-.54a.28.28,0,0,1,.27.31c0,.53-1.48,2.82-3.16,4.87A52.68,52.68,0,0,1,266,16.75a51.11,51.11,0,0,1-8,5.51C257.36,22.83,257,23.06,256.65,23.06Z"/>
        <path class="cls-1" d="M295.14,10.94c0,6,.1,9.2.27,11.45.07.71.1,1.21.1,1.51,0,1.41-.5,2.45-1.21,2.45s-1.78-1.51-1.78-2.35a4.45,4.45,0,0,1,.1-.87c.27-1.85.54-9.3.54-16,0-3.16-.14-4.3-.54-5A1.68,1.68,0,0,0,291,1.3c-.24,0-.34-.1-.34-.3s.1-.24.31-.34a10,10,0,0,1,2-.54c.51,0,1,.24,2.46,1.18.43.3.63.54.63.77a1.76,1.76,0,0,1-.16.64c-.54.91-.74,2.49-.81,6.25a14.28,14.28,0,0,1,7.05,2.18c1.82,1.24,2.66,2.32,2.66,3.39A1.37,1.37,0,0,1,303.44,16c-.74,0-1.11-.3-1.95-1.58a12,12,0,0,0-6.35-4.93Z"/>
      </g>
    </g>
  </g>
</svg>
