<svg xmlns="http://www.w3.org/2000/svg" viewBox="0 0 448.72 32.58"><defs><style>.cls-1{isolation:isolate;}.cls-2{fill:#333;}</style></defs><title>itadaki-enjoy-title</title><g id="Layer_2" data-name="Layer 2"><g id="Layer_1-2" data-name="Layer 1"><g class="cls-1"><path class="cls-2" d="M0,28.83c3.56,0,4.32-.54,4.32-3V8.35c0-2.27-.61-2.66-4.32-2.73V4.43H11.69V5.62c-3.49,0-4.28.5-4.28,2.73V25.81c0,2.55.76,3.06,4.28,3v1.23H0Z"/><path class="cls-2" d="M19.5,4.46H40.3l2.23,6-1,.47C39.33,8.28,39,8,38,7.2a6.83,6.83,0,0,0-4-1.51c-1.73,0-2.59,1.22-2.59,3.63V26.06c0,2.45.36,2.66,4.57,2.81v1.19H23.79V28.87c3.95-.11,4.42-.4,4.49-2.81V9.32c0-2.55-.75-3.56-2.73-3.56A6.69,6.69,0,0,0,21.09,7.7,33.09,33.09,0,0,0,18,11l-.9-.54Z"/><path class="cls-2" d="M47.75,28.76c2.13-.07,3.57-1.19,4.47-3.38l8.24-21,2.48-.87L71.68,26c.79,2,1.69,2.7,3.78,2.81v1.3H65.6v-1.3c2.23,0,2.88-.32,2.88-1.48a4.55,4.55,0,0,0-.32-1.51l-2-5.14H55.38L53.66,25.2a3.3,3.3,0,0,0-.26,1.29c0,1.73.69,2.2,3.21,2.27v1.3H47.75Zm18-9.36L61,6.44l-5.14,13Z"/><path class="cls-2" d="M81,28.9c3.42-.14,4-.61,4-3.24V8.35c0-2.09-.93-2.73-4-2.73V4.43h11.7c4.53,0,8,.93,10.32,2.84a12.62,12.62,0,0,1,4.43,10c0,7.81-5.72,12.75-14.75,12.75H81Zm7.23-3.13c0,2.52.69,3.1,3.75,3.1,7.26,0,11.4-4.36,11.4-11.95,0-7.42-4-11.34-11.66-11.34-2.62,0-3.49.65-3.49,2.63Z"/><path class="cls-2" d="M114,28.76c2.12-.07,3.56-1.19,4.46-3.38l8.24-21,2.48-.87L137.9,26c.79,2,1.69,2.7,3.78,2.81v1.3h-9.86v-1.3c2.23,0,2.88-.32,2.88-1.48a4.35,4.35,0,0,0-.33-1.51l-1.94-5.14H121.6l-1.73,4.57a3.29,3.29,0,0,0-.25,1.29c0,1.73.68,2.2,3.2,2.27v1.3H114Zm18-9.36-4.71-13-5.15,13Z"/><path class="cls-2" d="M147.26,28.87h.65c2.51,0,3.38-.69,3.41-2.67v-18c0-2.16-.57-2.56-4-2.67V4.43h11.23V5.54c-3.31,0-4,.47-4,2.67v9.64l10.25-9.64a2.26,2.26,0,0,0,.86-1.59c0-.79-.5-1-2.59-1.08V4.43h10V5.54a8.42,8.42,0,0,0-6.3,2.59l-6.15,5.73,9.32,12.63c1.12,1.66,2.48,2.34,4.82,2.45v1.12H163.88V28.87h0c1.76,0,2.37-.29,2.37-1.15a2.18,2.18,0,0,0-.5-1.3L158.3,16l-3.77,3.56v6.41c0,2.44.75,2.95,3.95,2.95v1.19H147.26Z"/><path class="cls-2" d="M180.66,28.83c3.56,0,4.31-.54,4.31-3V8.35c0-2.27-.61-2.66-4.31-2.73V4.43h11.69V5.62c-3.49,0-4.28.5-4.28,2.73V25.81c0,2.55.75,3.06,4.28,3v1.23H180.66Z"/><path class="cls-2" d="M217.36,12.09a8.28,8.28,0,0,1,5.36-2.3c2.55,0,4.53,1.51,4.53,3.46a2.14,2.14,0,0,1-.93,1.9c-.76.58-1,.65-4.32,2a62.84,62.84,0,0,0-7.7,3.5c.11,1.58.18,2.73.18,3.31,0,1.8-.36,2.26-1.8,2.26-.43,0-.65-.14-.65-.36a.75.75,0,0,1,0-.28,28.77,28.77,0,0,0,.18-3.89c-3.1,1.83-4.36,3.27-4.36,4.89,0,1.8,1.7,2.52,5.9,2.52a20.73,20.73,0,0,0,5.29-.64,2.8,2.8,0,0,1,.94-.18,1.92,1.92,0,0,1,1.73,1.47c0,1.19-2.38,1.8-7.27,1.8a11.86,11.86,0,0,1-5.87-1.08,4.29,4.29,0,0,1-2.48-3.67A4.55,4.55,0,0,1,208,23.4a25.67,25.67,0,0,1,4.24-2.77c0-2.56-.14-3.75-.47-4.54a1.86,1.86,0,0,0-1.69-1.26,4.17,4.17,0,0,0-2.55,1.33A22.28,22.28,0,0,0,204.4,20c-.39.69-.79,1-1.18,1S202,19.83,202,18.9c0-.47.14-.72.86-1.26,3.89-3.39,6.26-6.88,7-10.22a11.25,11.25,0,0,1-3.13.61,2.25,2.25,0,0,1-1.88-1.3,4.68,4.68,0,0,1-.54-1.37.16.16,0,0,1,.15-.14.3.3,0,0,1,.18.14,2.27,2.27,0,0,0,2.12.94A9.62,9.62,0,0,0,210,5.72a6,6,0,0,0,.1-1,1.7,1.7,0,0,0-1.69-1.95c-.14,0-.18,0-.18-.14,0-.33,1.23-.9,1.91-.9a2.47,2.47,0,0,1,2.37,2.12,5.37,5.37,0,0,1-.28,1.37A5.25,5.25,0,0,0,214.48,4c1.22.61,1.58.86,1.58,1.15s-.79.75-4.21,1.76a41.41,41.41,0,0,1-4.1,7.67,5.64,5.64,0,0,1,2.37-.65,3.64,3.64,0,0,1,2.31.83,5.21,5.21,0,0,1,1.33,2.55A14.54,14.54,0,0,1,217.36,12.09Zm1.54,4.68a36.39,36.39,0,0,0,4.61-2.7,2,2,0,0,0,.72-1.26A2.17,2.17,0,0,0,222,11c-1.88,0-4.32,1.7-5.73,4a18.32,18.32,0,0,0-2.12,4.43C215.63,18.57,215.88,18.43,218.9,16.77Z"/><path class="cls-2" d="M247.8,20.16a6.39,6.39,0,0,0,1.91-.29.75.75,0,0,1,.36-.14,3.41,3.41,0,0,1,.94.68c.39.4.54.65.54.94,0,.64-.54,1-1.48,1a23.45,23.45,0,0,1-4-.29c-.07.83-.07,1.27-.07,1.77a6,6,0,0,0,1.33,4.28,5.33,5.33,0,0,0,3.92,1.59c3.06,0,5-1.84,5-4.76a10.85,10.85,0,0,0-4.61-8.56c-.18-.15-.25-.22-.25-.29s.14-.18.29-.18a9.15,9.15,0,0,1,2.88,1.76c2.84,2.34,4.35,5,4.35,7.78,0,3.78-2.92,6.37-7.16,6.37A8,8,0,0,1,246.58,30c-1.37-1.22-2.05-3-2.05-5.47a15.86,15.86,0,0,1,.22-2.73c-2.59-.69-3.85-1.77-3.85-3.35a4.59,4.59,0,0,1,1.94-3.38,25.48,25.48,0,0,1,3.6-2.24c.07-.39.07-.46.18-.93-2.7-.76-3.31-1-4.39-2.05a2.89,2.89,0,0,1-1-2.38c0-.32.11-.43.36-.43.08,0,.15.07.15.21.11.9,2.12,2,5.32,2.88.4-2,.4-2,.47-2.44a15.08,15.08,0,0,0,.43-2.7,2.51,2.51,0,0,0-2-2.81c-.14,0-.18,0-.18-.11,0-.25,1.22-.79,1.8-.79a6,6,0,0,1,2.59,1.37c.86.68,1.22,1.22,1.22,1.83s-.14.94-.93,2.49c-.61,1.29-1,2.05-1.62,3.52a4.56,4.56,0,0,0,1.47.18,1.12,1.12,0,0,1,1.08.47,2.33,2.33,0,0,1,.51,1.26c0,.47-.25.58-1.15.58a9.5,9.5,0,0,0-3.06.54,58.62,58.62,0,0,0-1.3,6.55A14.2,14.2,0,0,0,247.8,20.16Zm-2.62-.87c.11-.54.21-1,.32-1.54s.25-1.34.4-2a14.6,14.6,0,0,1,.32-1.48c-2.44,1.51-3.42,2.59-3.42,3.82,0,.9.58,1.33,2.27,1.72Z"/><path class="cls-2" d="M298,20.77c0,3.42-2.05,6.26-5.76,7.92a27.34,27.34,0,0,1-8.34,2.12c-.26,0-.58-.25-.58-.43s.07-.11.61-.22c7.31-1.29,11.41-4.71,11.41-9.43,0-3.49-2.05-5.61-5.36-5.61A17.14,17.14,0,0,0,281.24,18a24.47,24.47,0,0,0-3.92,3,1.94,1.94,0,0,1-1.44.64,4,4,0,0,1-2.59-1.33,3.8,3.8,0,0,1-.72-2.63c0-.28.07-.39.25-.39s.14,0,.14.18A2,2,0,0,0,275,19c.79,0,1-.07,2.88-1.19,4.79-2.77,8.42-4,12-4C294.69,13.89,298,16.7,298,20.77Z"/><path class="cls-2" d="M319,18a7.7,7.7,0,0,1-1.59-5.36c0-1,.11-3.53.22-5.62l0-1.11c0-1.95-.82-2.7-2.87-2.7a1.52,1.52,0,0,0-.44,0h-.07c-.21,0-.32-.07-.32-.18,0-.46,1.76-1,3.24-1a6.15,6.15,0,0,1,3,.86A1.75,1.75,0,0,1,321,4.46a7.63,7.63,0,0,1-.43,2.09,34.23,34.23,0,0,0-1.23,8c0,1.4.44,2.41,1.08,2.41a12.68,12.68,0,0,0,3.64-2c.43-.36.61-.43.93-.43,1.05,0,2.38.9,2.38,1.58s-.54.9-1.84,1.3a36.91,36.91,0,0,1-4.42.9,8,8,0,0,0-3.06,1.22c-2.66,1.55-4,3.56-4,5.94,0,2.55,2.09,3.81,6.26,3.81a24.25,24.25,0,0,0,7.45-1.33,2.22,2.22,0,0,1,.86-.25,2.41,2.41,0,0,1,2.05,2,1,1,0,0,1-.64.83,24.12,24.12,0,0,1-7.63,1,19.13,19.13,0,0,1-6.91-1,5.26,5.26,0,0,1-3.56-4.79c0-2.77,2.66-5.76,6.65-7.56Z"/><path class="cls-2" d="M356.52,16.67h-2.37v1.47c0,.4-.65.72-1.44.72-.4,0-.65-.21-.65-.54V3.6L354.58,5h1.62a31.69,31.69,0,0,0,.68-5l2.85.47c.43.07.68.32.68.61a1,1,0,0,1-.5.76l-.76.54L357.6,5h3.46l.86-1.36L364,5.58a.83.83,0,0,1,.25.58.66.66,0,0,1-.39.54l-.58.32V17.49c0,.65-.68,1.12-1.62,1.12-.32,0-.46-.18-.46-.54v-1.4h-2.42v4.14h10l1.87-2.34,2.88,2.37c.25.18.36.36.36.51a.36.36,0,0,1-.39.32H359.69c3.53,3.56,8.85,6,15,6.91a9.74,9.74,0,0,0-2.77,2.81,29.54,29.54,0,0,1-7.42-3.78,25.73,25.73,0,0,1-5.72-5.47v9.5a.55.55,0,0,1-.1.36,2.83,2.83,0,0,1-1.59.58.53.53,0,0,1-.54-.47V22.93a39.83,39.83,0,0,1-9.85,6.62,22.4,22.4,0,0,1-5.11,2,.3.3,0,0,1-.33-.29c0-.18,0-.18,2.12-1.26a40.65,40.65,0,0,0,11-8.31H348.9c-2.49.07-3.6.07-6.62.18l-.47-1.26,3.85.14c1.58,0,2.66.08,3.24.08h7.62Zm-5.29-4-5.82,4.79-.15.69c-.11.46-.39.75-.72.75a.74.74,0,0,1-.39-.14l-2.31-2.27c3.13-1.37,4.21-1.91,9.11-4.5ZM343,3.74c3.64.87,6.08,2.92,6.08,5a1.42,1.42,0,0,1-1.29,1.58,1.18,1.18,0,0,1-.9-.4c-.25-.25-.25-.25-1-2.23a10.69,10.69,0,0,0-3.06-3.52Zm18.14,6.66V5.87h-7V10.4Zm0,5.4V11.27h-7V15.8ZM371.85,5.22a.43.43,0,0,1,.18.32c0,.18-.21.36-.68.47l-1.23.32-5.21,4.4c-.36.28-.54.39-.72.39s-.29-.11-.29-.32.14-.4,1.58-2.23c1-1.34,1.91-2.63,3.82-5.47Zm-7.52,6.55c2.92.47,4.21.86,5.61,1.69s2.31,1.87,2.31,2.88A1.32,1.32,0,0,1,371,17.67c-.47,0-.58-.1-2.45-2.26a14.46,14.46,0,0,0-4.28-3Z"/><path class="cls-2" d="M407.23,23.11c0,.61-.83,1.94-2.05,3.35-2.85,3.16-6.08,4.75-9.86,4.75a7.92,7.92,0,0,1-6-2.27c-1.51-1.62-2.16-3.74-2.16-7,0-2.16,0-2.63.72-12,.22-3,.22-3,.22-3.46,0-2.3-.54-3.27-1.77-3.27-.21,0-.32-.07-.32-.18,0-.4.76-.72,1.58-.72,1.84,0,3.6,2.09,3.6,4.32a9.55,9.55,0,0,1-.54,2.73,78.1,78.1,0,0,0-1.51,12.35c0,5,2,7.31,6.48,7.31a13.27,13.27,0,0,0,7.88-2.92,14.34,14.34,0,0,0,3.05-2.91c.15-.26.29-.36.44-.36A.29.29,0,0,1,407.23,23.11Z"/><path class="cls-2" d="M426.92,6.19c0-2.37-.36-2.95-1.84-3-.29,0-.32,0-.32-.15,0-.28,1.4-.93,2-.93a5.71,5.71,0,0,1,2.27.75,1.48,1.48,0,0,1,.75,1.08,3.58,3.58,0,0,1-.25,1,18.9,18.9,0,0,0-.61,3c1.62-.61,2.16-1,2.56-1.66,1.11.07,2.15.76,2.15,1.34,0,.32-.18.46-.86.79a25,25,0,0,1-4.21,1.54c-.25,1.88-.29,2.13-.54,3.93a1.63,1.63,0,0,1,1.26,1.55,24.63,24.63,0,0,1-1.15,4.53c-1,3.46-1.37,5.11-1.37,6.44,0,1.66,1.26,2.42,4.07,2.42a21.57,21.57,0,0,0,6.91-1.26c1.22-.58,1.69-1.44,1.69-3.17,0-1.08,0-1.51-.54-6.8-.25-2.38-.36-4.11-.36-5.19,0-2.3.93-3.49,2.73-3.49,3.28,0,7.45,3.42,7.45,6.12,0,1.19-1,2.52-1.8,2.52-.14,0-.25-.07-.36-.25-.86-1-1.69-1.26-3.78-1.23-.28,0-.43-.07-.43-.25s0-.18.33-.21a2,2,0,0,0,.43-.11c.5-.07.9-.18,1.29-.25,1.12-.22,1.48-.47,1.48-1a5.39,5.39,0,0,0-1.44-2.63,5.25,5.25,0,0,0-3.35-1.84c-1,0-1.58.94-1.58,2.85a43,43,0,0,0,.9,8.13c.54,2.45,1,3.5,1.91,4.29a2,2,0,0,1,.18.82c0,1.16-.76,2.16-2.2,3a18.82,18.82,0,0,1-8.49,1.84c-4.61,0-6.8-1.41-6.8-4.36a17.32,17.32,0,0,1,.43-3,1.89,1.89,0,0,1-1.4.54c-1.41,0-2.3-1.66-2.3-4.18,0-3.42,1.94-6.15,4.35-6.15a4,4,0,0,1,.54,0c.07-1.62.11-1.87.18-3.2a17.84,17.84,0,0,1-4.68.9c-1.15,0-1.65-.29-2.05-1.15a6.57,6.57,0,0,1-.54-2.56c0-.18.07-.29.22-.29s.1,0,.18.19a2.48,2.48,0,0,0,2.59,1.94,17.4,17.4,0,0,0,4.35-.83,10,10,0,0,1,0-1.3ZM424.25,16a8.51,8.51,0,0,0-.82,3.75c0,1.4.54,2.37,1.29,2.37s1-.5,1.26-1.73c.29-1.54.69-4.17.69-4.5,0-.72-.26-1.15-.72-1.22S424.65,15.23,424.25,16Z"/></g></g></g></svg>