<svg xmlns="http://www.w3.org/2000/svg" viewBox="0 0 432.21 33.3"><defs><style>.cls-1{fill:#333;}</style></defs><title>itadaki-forest-title</title><g id="レイヤー_2" data-name="レイヤー 2"><g id="レイヤー_1-2" data-name="レイヤー 1"><path class="cls-1" d="M15.05,19.55H11.34l-2.95.07c-.4,0-1.44,0-2.7.07L5.11,18.5l6.23.18h3.71V10H7.34a25.37,25.37,0,0,1-5.72,7.45c-.4.36-.58.47-.76.47s-.14-.08-.14-.18.07-.33.43-.8c2.56-3.38,5-9.43,6-14.93l3,1.15c.57.25.9.5.9.83a1.07,1.07,0,0,1-.83.86L9.68,5A41,41,0,0,1,7.81,9.18h7.24V.29l3.27.36c.65.07.9.25.9.68,0,.25-.21.54-.61.79l-.83.54V9.18h7.27L27.36,6.7l2.84,2c.43.29.61.51.61.8s-.21.54-.68.54H17.78v8.67H22.1l2.16-2.27L27,18.32a1,1,0,0,1,.5.72c0,.33-.28.51-.71.51h-9v9.39h8.86l2.52-2.73,2.88,2a1.42,1.42,0,0,1,.61.94.66.66,0,0,1-.54.64h-25c-2.84.11-5,.15-6.44.18L0,28.76c1.73,0,4.07.07,7.09.18h8Z"/><path class="cls-1" d="M43.63,6.16c.94,0,1.51,0,2.88-.08A35,35,0,0,0,49.17,0l2.56,1.26a.65.65,0,0,1,.4.54c0,.29-.18.43-.62.58l-.79.21L47.81,6.08c2.37-.07,2.62-.1,6.76-.36a12.26,12.26,0,0,0-2.19-2l.21-.43a13.43,13.43,0,0,1,4.07,2A3.84,3.84,0,0,1,58.28,8c0,.72-.43,1.26-1,1.26A.86.86,0,0,1,56.66,9a7.76,7.76,0,0,1-.72-1.15c-.18-.29-.47-.76-.86-1.3L45,8l-.65.68a1.08,1.08,0,0,1-.72.4.49.49,0,0,1-.43-.32L42.08,6.16Zm3.24,17.31A10.94,10.94,0,0,1,47,25.12c0,3.17-1.72,6.09-3.63,6.09a1.19,1.19,0,0,1-1.22-1.3c0-.72.1-.86,1.51-1.91a8,8,0,0,0,2.73-4.46ZM47.52,10h6.15l.8-1.26,2.08,1.73a.91.91,0,0,1,.36.61.53.53,0,0,1-.43.47l-.43.14v8.89c0,.83-.18,1.12-1,1.7a2.28,2.28,0,0,1-1,.46c-.4,0-.47-.14-.61-.9,0-.18-.18-.32-.4-.39l-2.56-.87.08-.46h1.65c1.77,0,1.8,0,1.84-.65V17.1H47V22c0,.68-.64,1.15-1.61,1.15-.29,0-.44-.15-.44-.5V8.78ZM54,13.17V10.8H47v2.37Zm0,3.06V14H47v2.19Zm-.58,7a.74.74,0,0,1,.69.65c0,.25-.18.47-.54.72l-.83.5v3.67c0,.72.11.83.86.9s2,.11,5.87.11c3.49,0,3.82-.11,4.21-1.33L64.83,25l.51.1-.15,3.35v.32c0,.18,0,.29,0,.33s.18.14.39.25a1.19,1.19,0,0,1,.72.94c0,.54-.5.93-1.4,1.18a24.37,24.37,0,0,1-5.22.29,45.46,45.46,0,0,1-7.7-.39c-1.15-.29-1.41-.69-1.41-2.27V23Zm2.56-1a8.44,8.44,0,0,1,3.27,1.19,3.7,3.7,0,0,1,2,2.88,1.13,1.13,0,0,1-1.15,1.26c-.65,0-.94-.29-1.51-1.59a7.24,7.24,0,0,0-2.81-3.31ZM62.46.54a.65.65,0,0,1,.65.65.94.94,0,0,1-.51.75l-.79.44V5.62a28.13,28.13,0,0,0,6.84-3.68l1.76,1.88a.55.55,0,0,1,.18.39c0,.36-.32.54-.93.54H68.54c-2.77.79-4.07,1.15-6.73,1.73V9.25c0,.47,0,.54.25.61a1.88,1.88,0,0,0,.69.11L64,10a35.42,35.42,0,0,0,4.83-.11c.72,0,1-.29,1.37-1.23l1-2.91.69,0L71.6,8.24l0,.62c0,.39,0,.39,1.08,1.18.11,0,.18.25.18.4,0,1-1.54,1.33-6.3,1.33-4.17,0-5.4-.07-5.94-.36a2,2,0,0,1-.93-1.91V.32Zm0,12.2a.6.6,0,0,1,.61.58c0,.29-.15.47-.5.61l-.83.36v2.48a44.51,44.51,0,0,0,7.7-4.14l1.76,1.8a.73.73,0,0,1,.15.4c0,.25-.33.43-.79.43h-1a72.81,72.81,0,0,1-7.81,2.45v2c0,.39.14.61.47.68a17.21,17.21,0,0,0,3.45.14c1.91,0,3,0,3.17,0,1.51-.07,1.76-.22,2.19-1.33l1.08-3.14h.65l-.29,3.14a2.79,2.79,0,0,0,0,.39c0,.15,0,.15.72.76a.92.92,0,0,1,.32.61c0,.4-.43.79-1.11,1a26.2,26.2,0,0,1-5.91.36c-3.38,0-4.86-.11-5.61-.36s-1.19-.94-1.19-2.05V12.49Zm5,10.84c4.24,1.65,6.15,3.42,6.15,5.65a1.29,1.29,0,0,1-1.29,1.4c-.62,0-.9-.29-1.26-1.19-1.19-2.88-2.09-4.06-4-5.4Z"/><path class="cls-1" d="M95.11,23.76c.43.28.65.57.65.82a.78.78,0,0,1-.69.69L94,25.34a35.23,35.23,0,0,1-6.37,5A15.47,15.47,0,0,1,84.13,32a.23.23,0,0,1-.21-.22c0-.25.21-.43,1.11-1a31.16,31.16,0,0,0,7.85-8.53ZM85,18.54c6.12,0,7.7-.07,11.56-.33,1.58-1.8,2.66-3,3-3.42,3.68-4.53,5.84-7.16,6.41-7.88l2.45,2a.8.8,0,0,1,.4.61.54.54,0,0,1-.54.54l-1.12.07-8.82,8,10.55-.39a12,12,0,0,0-3.82-2.88l.18-.54c5.18,1.4,9,4.35,9,7A1.33,1.33,0,0,1,113,22.79c-.61,0-1-.36-1.58-1.44a24.47,24.47,0,0,0-1.62-2.56l-8.39.83V31.46c0,.29-.07.4-.43.54a6.38,6.38,0,0,1-1.69.58c-.22,0-.36-.22-.36-.54V19.83l-10.41,1-.61.82a.91.91,0,0,1-.72.4,1,1,0,0,1-.9-.72Zm10-6.88C96.48,13,97,13.86,97,14.9s-.54,1.59-1.22,1.59-1.08-.47-1.62-1.73a10.11,10.11,0,0,0-5.08-5.18l.18-.44a13.35,13.35,0,0,1,4.9,1.8c.32-.5.68-1.11.72-1.19C95.4,8.82,96,7.88,96.55,7l.9-1.77C92.16,5.76,89.14,6,87.3,6c-.86,0-1.15-.11-1.15-.43s.18-.32,1.47-.47A153.48,153.48,0,0,0,109.37.61l1.76,2.13a1.12,1.12,0,0,1,.32.61.48.48,0,0,1-.54.47h-.11l-1.72-.26c-.65.08-1.08.15-1.23.18l-3.27.44c-1,.18-2,.32-3.06.46a12.33,12.33,0,0,1-1.33.11l.75.65a.81.81,0,0,1,.29.54c0,.18-.18.32-.4.36l-.82.11Zm9,10.15a17.57,17.57,0,0,1,5.15,2.2c3.28,2,5,3.92,5,5.58a1.35,1.35,0,0,1-1.11,1.4c-.61,0-1.12-.5-2.13-2.09a24.1,24.1,0,0,0-7-6.55Z"/><path class="cls-1" d="M142.38,7a33.44,33.44,0,0,1,.5,4.36,19.73,19.73,0,0,1-4.39,11.44c-2.09,2.7-4,4-5.9,4a3.24,3.24,0,0,1-2.49-1.36,8.43,8.43,0,0,1-1.87-5.69c0-7.63,6.62-13.9,14.69-13.9C150,5.9,155,10.37,155,16.77c0,5.73-3.38,10.37-9.07,12.42A22,22,0,0,1,141,30.38c-.25,0-.47-.18-.47-.32s.11-.15.61-.29A16.4,16.4,0,0,0,148,26.21a13.15,13.15,0,0,0,4.1-10c0-3.31-1-5.76-3.1-7.3A9.25,9.25,0,0,0,143.39,7Zm-1.44.14a12.82,12.82,0,0,0-10.55,12.75c0,2.66,1,4.67,2.38,4.67,1.54,0,4.42-2.91,6.19-6.26a22.8,22.8,0,0,0,2.52-8.49A7.06,7.06,0,0,0,141,7.34Z"/><path class="cls-1" d="M178.05,2.7l2.52,2c.29.21.44.39.44.54s-.22.36-.47.36h-5.33V29.34a1.79,1.79,0,0,1-1,1.76,4.42,4.42,0,0,1-1.76.94c-.36,0-.58-.29-.54-.83s-.08-.72-.54-.9L168,29.16v-.44h3.57c1.11,0,1.29-.1,1.33-.64V5.62h-1.59c-1.47,0-2.23,0-4.24.1l-.58-1c2.38.1,3.2.14,4.82.14h4.83Zm10.48,24.73a.62.62,0,0,1,.29.5c0,.29-.4.58-.79.54l-.9,0A30.38,30.38,0,0,1,180.68,32a8.2,8.2,0,0,1-2.41.87.29.29,0,0,1-.32-.25c0-.22.14-.33,1.18-.87a25.12,25.12,0,0,0,7.2-5.79Zm-8.68-25c2.63.11,3.68.14,4.83.14H195.3l2-2.23,2.49,2a.92.92,0,0,1,.39.68.44.44,0,0,1-.39.44h-8.35L189.21,8h5.58l1-1.41,2.27,2a.71.71,0,0,1,.25.5.6.6,0,0,1-.5.54l-.58.18v16c0,.58-.72,1-1.72,1-.4,0-.54-.15-.54-.47V25H184.35V26.6c0,.43-.68.76-1.51.76-.5,0-.75-.22-.75-.61V6.62L184.61,8h3l.83-4.5h-3.74c-1.05,0-2,0-4.21.1Zm15.09,10.94V8.82H184.35v4.57Zm0,5.44V14.25H184.35v4.58Zm0,5.29V19.69H184.35v4.43Zm-4.32,1.76c4.32.94,7.77,3.31,7.77,5.29a1.15,1.15,0,0,1-1.08,1.23c-.57,0-.9-.29-1.47-1.19a14.28,14.28,0,0,0-5.3-4.86Z"/><path class="cls-1" d="M213.66,25a6,6,0,0,1,.43,2.41c0,2.92-1.47,5.08-3.42,5.08a1.16,1.16,0,0,1-1.26-1.08,2.22,2.22,0,0,1,.9-1.55,6.83,6.83,0,0,0,2.88-4.93Zm4-11.7h5.58V.32l3.31.22a.75.75,0,0,1,.76.68.86.86,0,0,1-.43.72l-1.12.65V7h7.92l2.23-2.55L239,7.09c.18.15.26.25.26.4a.34.34,0,0,1-.33.36H225.75v5.43h7.6l.93-1.55L236.73,14a.81.81,0,0,1,.33.54c0,.15-.18.33-.44.43l-.72.29v8.07c0,.36-.14.54-.54.68a4.72,4.72,0,0,1-1.4.29c-.32,0-.5-.26-.5-.69V22.32h-16V23.9c0,.29-.15.47-.61.68a4.13,4.13,0,0,1-1.48.47c-.29,0-.39-.25-.39-.75V11.77Zm15.81,8.17v-7.3h-16v7.3ZM218.84,25.2c2.67,1.26,4.25,3.24,4.25,5.32a1.74,1.74,0,0,1-1.58,1.84.9.9,0,0,1-.87-.47c-.14-.32-.14-.32-.36-2.37a7.26,7.26,0,0,0-1.69-4Zm7.35-.11A12.39,12.39,0,0,1,229,26.28a5.12,5.12,0,0,1,2.62,4,1.3,1.3,0,0,1-1.22,1.4c-.86,0-1.33-.58-1.83-2.2a7.3,7.3,0,0,0-2.63-4.06Zm7.52-.18a12,12,0,0,1,4,1.47c2,1.16,2.88,2.24,2.88,3.46a1.52,1.52,0,0,1-1.48,1.62,1.26,1.26,0,0,1-.82-.29c-.22-.21-.22-.21-1.55-2.59a10,10,0,0,0-3.21-3.2Z"/><path class="cls-1" d="M270.43,12.09a8.28,8.28,0,0,1,5.36-2.3c2.56,0,4.54,1.51,4.54,3.46a2.12,2.12,0,0,1-.94,1.9c-.75.58-1,.65-4.32,2a62.84,62.84,0,0,0-7.7,3.5c.11,1.58.18,2.73.18,3.31,0,1.8-.36,2.27-1.8,2.27-.43,0-.65-.15-.65-.37a.78.78,0,0,1,0-.28,28.77,28.77,0,0,0,.18-3.89C262.22,23.5,261,25,261,26.56c0,1.8,1.69,2.52,5.91,2.52a20.84,20.84,0,0,0,5.29-.64,2.71,2.71,0,0,1,.93-.18,1.92,1.92,0,0,1,1.73,1.47c0,1.19-2.37,1.8-7.27,1.8a11.86,11.86,0,0,1-5.87-1.08,4.27,4.27,0,0,1-2.48-3.67A4.54,4.54,0,0,1,261,23.4a25.9,25.9,0,0,1,4.25-2.77c0-2.56-.14-3.75-.47-4.54a1.86,1.86,0,0,0-1.69-1.26,4.17,4.17,0,0,0-2.55,1.33,22.28,22.28,0,0,0-3.1,3.85c-.39.69-.79,1-1.19,1S255,19.83,255,18.9c0-.47.15-.72.87-1.26,3.88-3.39,6.26-6.88,6.94-10.22A11.12,11.12,0,0,1,259.7,8a2.24,2.24,0,0,1-1.87-1.3,4.68,4.68,0,0,1-.54-1.37.15.15,0,0,1,.14-.14s.11,0,.19.14a2.26,2.26,0,0,0,2.12.94A9.57,9.57,0,0,0,263,5.72a5.2,5.2,0,0,0,.11-1,1.7,1.7,0,0,0-1.69-1.95c-.14,0-.18,0-.18-.14,0-.33,1.22-.9,1.91-.9a2.47,2.47,0,0,1,2.37,2.12,5.37,5.37,0,0,1-.28,1.37A5.25,5.25,0,0,0,267.55,4c1.22.61,1.58.86,1.58,1.15s-.79.75-4.21,1.76a41.41,41.41,0,0,1-4.1,7.67,5.64,5.64,0,0,1,2.37-.65,3.64,3.64,0,0,1,2.31.83,5.21,5.21,0,0,1,1.33,2.55A14.67,14.67,0,0,1,270.43,12.09ZM272,16.77a36.63,36.63,0,0,0,4.6-2.7,2,2,0,0,0,.72-1.26,2.18,2.18,0,0,0-2.19-1.8c-1.87,0-4.32,1.7-5.72,4a18,18,0,0,0-2.13,4.43C268.7,18.57,269,18.43,272,16.77Z"/><path class="cls-1" d="M300,3.31h16l1.4-1.94L320,4a1,1,0,0,1,.33.65.67.67,0,0,1-.4.54l-.9.32V30.42c0,.46-.18.68-.72.86a5.69,5.69,0,0,1-1.51.32c-.36,0-.47-.14-.47-.64V28.69H299.45v2.73c0,.4-.18.62-.69.83a6.11,6.11,0,0,1-1.58.4c-.29,0-.43-.15-.43-.51V1.69Zm16.27,8.21V4.18H299.45v7.34Zm0,8.06v-7.2H299.45v7.2Zm0,8.24V20.45H299.45v7.37Z"/><path class="cls-1" d="M332.32,8.6c2.8.11,3.2.15,5.83.15V.14l2.62.11c.54,0,.9.29.9.72s-.21.54-.64.83l-.69.4V8.75h1.26l1.8-2.34,2.31,2.12A.85.85,0,0,1,346,9a.46.46,0,0,1-.4.5h-5.22v6.8c2-.75,2.45-.93,5-2l.18.61c-2.45,1.47-2.84,1.69-5.15,3V29.48a2,2,0,0,1-.68,1.73,4.51,4.51,0,0,1-1.91,1c-.29,0-.54-.5-.54-1.08a1,1,0,0,0-.07-.4l-.32-.1-.47-.11-2.77-.87v-.54l3.49,0c.83,0,1-.14,1.08-.86V19.19l-2.09,1-.54,1.19c-.18.32-.36.5-.61.5s-.25-.11-.43-.29l-2.16-2.44c3-1,3.49-1.16,5.83-2V9.54c-2.52,0-2.92,0-5.51.11ZM349.63.54c.61,0,1,.36,1,.86,0,.33-.22.58-.69.8l-.61.25V7.27A58.13,58.13,0,0,0,360.9,2.05l2.19,2a.82.82,0,0,1,.33.54c0,.29-.26.47-.72.47l-1.3.07c-4.82,1.41-4.9,1.44-12.06,3.06v2.7c0,.9.18.94,4.39.94,2.67,0,5.4-.08,6.81-.18a3.6,3.6,0,0,0,1.76-.36c.18-.15.18-.15.68-1.55l1-2.63.54.15-.11,2.62,0,1.23c0,.1.18.21.43.25.68.14.94.32.94.72,0,.83-1.12,1.37-3.1,1.51-2.2.18-6.3.32-8.82.32-5.87,0-6.69-.28-6.69-2.41V.4Zm1.19,17h8.64l.93-1.59L362.62,18a.92.92,0,0,1,.36.65c0,.22-.18.43-.5.54l-.54.22V31.17a.79.79,0,0,1-.5.83,2.92,2.92,0,0,1-1.23.29c-.39,0-.61-.18-.61-.47V30.24h-9.25v1.33c0,.61-.76,1-1.87,1-.33,0-.47-.14-.47-.43V16.09Zm8.78,5.93V18.43h-9.25V23.5Zm0,5.87v-5h-9.25v5Z"/><path class="cls-1" d="M394.92,28.51A1.86,1.86,0,0,1,397,30.17c0,.93-.76,1.43-2.16,1.43-6.05,0-10.37-3.16-10.37-7.59,0-1.8.33-2.74,1.87-5.36a17.41,17.41,0,0,0-6.69,4.53c-.36.43-.61.58-.94.58-.57,0-.86-.69-.86-2.13,0-1,.14-1.29,1.91-3.16.43-.44,1.26-1.34,2.12-2.31,1-1.15,2-2.3,3.17-3.56l3.78-4.1c.75-.87,1.26-1.44,1.37-1.52.86-.82,1-1.08,1-1.65s-.43-1.26-.93-1.26c-.33,0-.79.29-3.17,1.91s-2.74,1.83-3.28,1.83a2.42,2.42,0,0,1-2.05-2.34c0-1,.22-1.8.47-1.8s.14,0,.14.25a1.84,1.84,0,0,0,1.55,1.55,32.66,32.66,0,0,0,6.19-2.59,1.46,1.46,0,0,1,.83-.22c1.37,0,3.67,2.27,3.67,3.64,0,.61-.32,1-1.08,1.44a26.47,26.47,0,0,0-9.75,8,18,18,0,0,0-2.41,3.52c0,.11.21.22.43.22a2.08,2.08,0,0,0,.93-.29,65.2,65.2,0,0,1,9.9-3.89A32.83,32.83,0,0,1,397.8,14a2.59,2.59,0,0,1,1.76,1.15,3,3,0,0,1,.83,1.44c0,.29-.43.57-.94.57a7.49,7.49,0,0,1-.79-.07,15.13,15.13,0,0,0-2.27-.14,17.83,17.83,0,0,0-8.1,1.83,6.5,6.5,0,0,0-2.55,5.15A4.21,4.21,0,0,0,388,27.57a11.3,11.3,0,0,0,5.11,1c.5,0,.76,0,1.19,0Z"/><path class="cls-1" d="M416.05,12.42a2.05,2.05,0,0,0,1.76,2.16c.54,0,1-.18,2.56-1.05,3-1.61,4.72-2.23,6.34-2.23,3.24,0,5.5,2.95,5.5,7.24,0,5.5-2.91,9.93-8.38,12.78a27.42,27.42,0,0,1-6,2,.33.33,0,0,1-.36-.33c0-.14.11-.25.5-.36a19.72,19.72,0,0,0,6.41-3.49,13.57,13.57,0,0,0,5-10.51c0-3.71-1.41-6.08-3.57-6.08-1.51,0-3.89,1.36-5.79,3.34-1.12,1.16-1.59,1.48-2.2,1.48-1.33,0-2.77-1.73-2.77-3.31,0-.9.5-2,.86-2a.16.16,0,0,1,.15.14.18.18,0,0,1,0,.11Zm3.56-10c0-.61.11-1.05.29-1.05s.11,0,.15.36c.18,1.77,2.19,2.92,5,2.92.46,0,.93,0,1.36-.07a4.89,4.89,0,0,1,.69,0,1.2,1.2,0,0,1,1.08.69,3.48,3.48,0,0,1,.54,1.54c0,.47-.33.72-.9.72a2.66,2.66,0,0,1-.61-.1,8.45,8.45,0,0,0-1.73-.15,9.33,9.33,0,0,0-4.43.79c-.36.15-.36.15-.47.15a.16.16,0,0,1-.14-.15A10.84,10.84,0,0,1,423,6.3C421.27,6.3,419.61,4.39,419.61,2.45Z"/></g></g></svg>