<svg xmlns="http://www.w3.org/2000/svg" viewBox="0 0 387.72 33.12"><defs><style>.cls-1{isolation:isolate;}.cls-2{fill:#333;}</style></defs><title>itadaki-video-title</title><g id="Layer_2" data-name="Layer 2"><g id="Layer_1-2" data-name="Layer 1"><g class="cls-1"><path class="cls-2" d="M9.28,3.92c-4.57.69-6.91,1-7.59,1-.32,0-.5-.11-.5-.26s.18-.28.54-.39C9,2.63,12.16,1.62,15.44,0l1.94,1.51a1,1,0,0,1,.43.72c0,.29-.32.51-.72.51h-1.3a26.77,26.77,0,0,1-4.31.82V6.48h3.41l1.95-2.16,2.59,2.05c.29.22.36.36.36.58s-.11.39-.43.39H11.48v2.95H15l1-1.33,2,1.66a1,1,0,0,1,.36.68.58.58,0,0,1-.46.58l-.36.07v6.26c0,.62-.72,1.12-1.59,1.12-.28,0-.46-.14-.46-.4v-.68h-4v3.28h3l1.91-2,2,1.66c.33.29.47.5.47.79s0,.32-.57.32h-6.8v3.13c2.23-.28,3.49-.5,6.73-1.18l.1.64c-5.07,1.59-7.55,2.24-14.17,3.78l-.43.72c-.26.44-.44.54-.69.54a.67.67,0,0,1-.61-.39l-2-2.81c3.38-.25,4.86-.4,8.85-1V22.35H6c-1.84.08-2.59.08-4.21.11l-.65-1.08,2.56.07c1.11,0,1.87.08,2.3.08H9.28V18.25H5v1.4c0,.58-.62,1-1.48,1-.36,0-.54-.18-.54-.5V9l2.7,1.33H9.28V7.34H4.82c-1.08,0-2,0-4.24.11L0,6.34l4.82.14H9.28Zm0,9.9V11.16H5v2.66Zm0,3.57v-2.7H5v2.7Zm6.16-3.57V11.16h-4v2.66Zm0,3.57v-2.7h-4v2.7Zm2.26-9c2.23.11,2.52.11,4.46.14V.29L25,.76c.68.1,1,.36,1,.75s-.25.58-.83.87l-.72.28V8.53h3.92l1.16-1.76,2.41,2a.94.94,0,0,1,.36.62c0,.21-.15.39-.44.5l-.64.32v4.47A42.15,42.15,0,0,1,29.79,27a6.68,6.68,0,0,1-3.27,4.07,3.82,3.82,0,0,1-1.44.43c-.43,0-.61-.21-.61-.79,0-.94-.11-1-.9-1.4l-2.52-1.26.14-.58,2.92.58a2.36,2.36,0,0,0,.75.07c1.62,0,2.66-1.23,3.17-3.74a51.62,51.62,0,0,0,.86-10.16c0-.9,0-.9-.07-4.82H24.47c0,.58,0,.9,0,1.08-.18,5.36-.54,7.67-1.65,10.87-1.48,4.18-3.6,6.84-7.89,9.76a8.29,8.29,0,0,1-3,1.62.29.29,0,0,1-.32-.29c0-.18,0-.18,1.62-1.3,6.65-4.93,8.92-10.44,9-21.74-1.87,0-2.16,0-4.13.11Z"/><path class="cls-2" d="M40.49,2.48c1.61.08,3.16.11,3.63.15l3.45.07H67.69L70,.25l3.17,2.38a.75.75,0,0,1,.25.5.43.43,0,0,1-.47.43H58V9.5h4l1-1.58L65.49,10a.74.74,0,0,1,.29.54c0,.25-.14.39-.47.54l-.57.25V24.73c0,.68-.87,1.29-1.8,1.29a.49.49,0,0,1-.54-.46v-1.8h-11V26c0,.4-.21.69-.72.87a5.3,5.3,0,0,1-1.15.28.48.48,0,0,1-.5-.54V8.17L51.75,9.5h3.78V3.56h-8c-.43,0-1.61,0-3.45.11l-3.06.07Zm4.39,26.28H68.59V6.3l3,.43c.54.11.82.33.82.72,0,.22-.14.4-.5.65l-.79.61V31.14c0,.57-1,1.26-1.87,1.26a.59.59,0,0,1-.61-.62V29.62H44.88v2.16c0,.51-.9,1-1.8,1a.59.59,0,0,1-.65-.58V6.08l3,.44c.58.07.94.36.94.79s-.22.65-.68.86l-.79.36ZM55.53,16.05V10.37H51.35v5.68Zm0,6.81V16.92H51.35v5.94Zm6.87-6.81V10.37H58v5.68Zm0,6.84v-6H58v6Z"/><path class="cls-2" d="M103.53,5.54c3.92-1,3.92-1,4.46-1a2.65,2.65,0,0,1,2,1.08,3.57,3.57,0,0,1,1,1.66c0,.43-.44.72-1,.72a3,3,0,0,1-1.12-.25,9.44,9.44,0,0,0-2.63-.4,11.2,11.2,0,0,0-4.39,1c-1.9.93-3.88,3.49-4.75,6.15a25.19,25.19,0,0,0-1,7.24c0,4.43,1.69,6.12,6.23,6.12a11.09,11.09,0,0,0,2.59-.26,1.69,1.69,0,0,1,.46,0,1.79,1.79,0,0,1,1.37.61,3.19,3.19,0,0,1,.65,1.44c0,.79-.94,1.12-3.31,1.12-6.51,0-10.4-3-10.4-8A21.7,21.7,0,0,1,98,10.15,11.34,11.34,0,0,1,99.79,8.1a.39.39,0,0,0,.18-.29.15.15,0,0,0-.15-.14c-2,0-9.39,2.88-11.76,4.6-1,.72-1.33.87-1.94.87a4.9,4.9,0,0,1-2.7-1.48,4.2,4.2,0,0,1-.76-2.55c0-.15.07-.26.22-.26s.14,0,.21.19c.36.82,1,1.18,2.38,1.18a6.93,6.93,0,0,0,2.7-.57C93.74,8,96.59,7.2,100.33,6.37ZM108.68,16a1.33,1.33,0,0,1-1.26,1.26c-.33,0-.54-.18-.83-.68a5.81,5.81,0,0,0-3.53-2.88c-.25,0-.28-.07-.28-.18s.43-.25,1.22-.25C106.34,13.25,108.68,14.61,108.68,16ZM112.42,14a1.32,1.32,0,0,1-1.26,1.33c-.33,0-.54-.14-.76-.58a6.25,6.25,0,0,0-3.7-3.06c-.22,0-.25-.07-.25-.14s.5-.29,1.29-.29C110.08,11.3,112.42,12.67,112.42,14Z"/><path class="cls-2" d="M130,20.7v2c0,.51-.9,1-1.8,1a.45.45,0,0,1-.5-.43V.61l2.87,1.77h14.72l1-1.66,2.48,2.2a.72.72,0,0,1,.32.54c0,.21-.14.39-.46.5l-.94.29V22.32c0,.32-.14.5-.5.65a3.66,3.66,0,0,1-1.37.32c-.36,0-.54-.18-.54-.58v-2h-3.63v8.38c0,.65,0,.69.18.76l.5,0,2.09,0c6.62-.07,6.69-.07,7.08-2l.76-4.25.86.14-.14,4.75c0,.62.25.87.9,1.08.47.15.58.26.58.58,0,.76-.58,1.22-1.77,1.44s-1.33.25-7.45.36c-5.39,0-5.72-.11-6-1.8V20.7h-3c-.76,5.72-2.27,8.38-5.76,10.18a25.89,25.89,0,0,1-6.15,1.91,16.24,16.24,0,0,1-2,.33c-.25,0-.4-.11-.4-.33s.22-.36.62-.5c8.31-2.52,10.58-4.9,11.22-11.59ZM145.24,8.1V3.28H130V8.1Zm0,5.9V9H130v5Zm0,5.83V14.9H130v4.93Z"/><path class="cls-2" d="M178.71,28.18a6,6,0,0,0,3-2.44,7.83,7.83,0,0,0,1.08-4c0-3.57-2-5.55-5.55-5.55-3.31,0-5.61,1.16-7.95,4a17,17,0,0,0-2.7,4.25,1.39,1.39,0,0,1-1.29,1c-.61,0-1.55-1.08-1.55-1.84,0-.39.29-.86,1-1.58C169.5,17.1,169.82,16.7,175,9.86c2.08-2.7,2.12-2.73,2.12-3.31a.77.77,0,0,0-.79-.83c-1.12,0-2,.47-5.69,3.06-.68.51-1,.65-1.36.65a2.78,2.78,0,0,1-1.7-1,2.87,2.87,0,0,1-.64-1.95c0-.64.07-.86.29-.86s.1,0,.18.32a1.27,1.27,0,0,0,1.36.9,21.24,21.24,0,0,0,7.45-2.62,1.67,1.67,0,0,1,1.22-.44c1.44,0,4,1.73,4,2.74a.82.82,0,0,1-.58.79c-1.54.69-3.56,2.48-6.51,5.8-1.76,2-2.27,2.62-2.27,2.91s.11.33.22.33a.62.62,0,0,0,.18-.08.53.53,0,0,0,.18-.07l.5-.21a13.4,13.4,0,0,1,5.18-1.08c4.25,0,7.27,2.91,7.27,7a7.55,7.55,0,0,1-2.7,5.94,12.56,12.56,0,0,1-7.77,2.7,7,7,0,0,1-4.32-1.33,2.59,2.59,0,0,1-1-2.16c0-1.66,1.4-2.74,3.53-2.74a5.39,5.39,0,0,1,5.22,3.56l0,.11Zm-2.3.54c-.4-2.19-1.44-3.31-3.1-3.31a1.46,1.46,0,0,0-1.65,1.44c0,1.19,1.36,2,3.45,2a6.37,6.37,0,0,0,1.08-.07Z"/><path class="cls-2" d="M195.38,29c3.56,0,4.31-.54,4.31-3V8.53c0-2.27-.61-2.66-4.31-2.73V4.61h11.69V5.8c-3.49,0-4.28.5-4.28,2.73V26c0,2.55.75,3.06,4.28,3v1.23H195.38Z"/><path class="cls-2" d="M214.88,4.64h20.8l2.23,6-1,.47c-2.15-2.63-2.51-2.95-3.52-3.71a6.86,6.86,0,0,0-4-1.51c-1.72,0-2.59,1.22-2.59,3.63V26.24c0,2.45.36,2.66,4.57,2.81v1.19H219.16V29.05c4-.11,4.43-.4,4.5-2.81V9.5c0-2.55-.76-3.56-2.74-3.56a6.73,6.73,0,0,0-4.46,1.94,32.92,32.92,0,0,0-3.09,3.28l-.9-.54Z"/><path class="cls-2" d="M243.13,28.94c2.12-.07,3.56-1.19,4.46-3.38l8.24-21,2.48-.87,8.75,22.46c.79,2,1.69,2.7,3.78,2.81v1.3H261v-1.3c2.23,0,2.88-.32,2.88-1.48a4.35,4.35,0,0,0-.33-1.51l-1.94-5.14H250.76L249,25.38a3.29,3.29,0,0,0-.25,1.29c0,1.73.68,2.2,3.2,2.27v1.3h-8.85Zm18-9.36-4.71-13-5.15,13Z"/><path class="cls-2" d="M276.42,29.08c3.42-.14,4-.61,4-3.24V8.53c0-2.09-.94-2.73-4-2.73V4.61h11.69c4.54,0,7.95.93,10.33,2.84a12.61,12.61,0,0,1,4.42,10c0,7.82-5.72,12.75-14.75,12.75H276.42ZM283.65,26c0,2.52.68,3.1,3.74,3.1,7.27,0,11.41-4.36,11.41-11.95,0-7.42-4-11.34-11.66-11.34-2.63,0-3.49.65-3.49,2.63Z"/><path class="cls-2" d="M309.35,28.94c2.12-.07,3.56-1.19,4.46-3.38l8.24-21,2.48-.87,8.74,22.46c.79,2,1.69,2.7,3.78,2.81v1.3h-9.86v-1.3c2.23,0,2.88-.32,2.88-1.48a4.55,4.55,0,0,0-.32-1.51l-1.95-5.14H317l-1.72,4.57a3.29,3.29,0,0,0-.25,1.29c0,1.73.68,2.2,3.2,2.27v1.3h-8.85Zm18-9.36-4.72-13-5.14,13Z"/><path class="cls-2" d="M342.63,29.05h.65c2.52,0,3.38-.69,3.42-2.67v-18c0-2.16-.58-2.56-4-2.67V4.61H353.9V5.72c-3.31,0-4,.47-4,2.67V18l10.26-9.64A2.3,2.3,0,0,0,361,6.8c0-.79-.5-1-2.59-1.08V4.61h10V5.72a8.42,8.42,0,0,0-6.3,2.59L356,14l9.32,12.63c1.11,1.66,2.48,2.34,4.82,2.45v1.12H359.26V29.05h0c1.77,0,2.38-.29,2.38-1.15a2.2,2.2,0,0,0-.51-1.3l-7.48-10.47-3.78,3.56V26.1c0,2.44.76,2.95,4,2.95v1.19H342.63Z"/><path class="cls-2" d="M376,29c3.56,0,4.32-.54,4.32-3V8.53c0-2.27-.61-2.66-4.32-2.73V4.61h11.69V5.8c-3.49,0-4.28.5-4.28,2.73V26c0,2.55.76,3.06,4.28,3v1.23H376Z"/></g></g></g></svg>