<svg xmlns="http://www.w3.org/2000/svg" viewBox="0 0 432.14 32.76"><defs><style>.cls-1{isolation:isolate;}.cls-2{fill:#333;}</style></defs><title>itadaki-video-title</title><g id="Layer_2" data-name="Layer 2"><g id="Layer_1-2" data-name="Layer 1"><g class="cls-1"><g class="cls-1"><path class="cls-2" d="M15.29,16.85H12.92v1.47c0,.4-.65.72-1.44.72-.4,0-.65-.21-.65-.54V3.78l2.52,1.4H15a31.69,31.69,0,0,0,.68-5l2.84.47c.44.07.69.32.69.61a1,1,0,0,1-.51.76l-.75.54L16.37,5.18h3.46l.86-1.36,2,1.94a.88.88,0,0,1,.25.58.66.66,0,0,1-.39.54L22,7.2V17.67c0,.65-.68,1.12-1.62,1.12-.32,0-.47-.18-.47-.54v-1.4H17.52V21h10l1.87-2.34L32.31,21c.25.18.36.36.36.51a.37.37,0,0,1-.4.32H18.46c3.52,3.56,8.85,6,15,6.91a9.74,9.74,0,0,0-2.77,2.81,29.37,29.37,0,0,1-7.42-3.78,25.5,25.5,0,0,1-5.72-5.47v9.5a.5.5,0,0,1-.11.36,2.77,2.77,0,0,1-1.58.58.52.52,0,0,1-.54-.47V23.11a39.69,39.69,0,0,1-9.86,6.62,22,22,0,0,1-5.11,2A.29.29,0,0,1,0,31.42c0-.18,0-.18,2.12-1.25a41,41,0,0,0,11-8.32H7.66c-2.48.07-3.59.07-6.62.18L.58,20.77l3.85.14C6,21,7.09,21,7.66,21h7.63Zm-5.29-4L4.17,17.6,4,18.29c-.11.46-.4.75-.72.75a.8.8,0,0,1-.4-.14L.61,16.63c3.13-1.37,4.21-1.91,9.1-4.5ZM1.8,3.92c3.63.87,6.08,2.92,6.08,5a1.42,1.42,0,0,1-1.3,1.58,1.24,1.24,0,0,1-.9-.39c-.25-.26-.25-.26-1-2.24a10.66,10.66,0,0,0-3-3.52Zm18.13,6.66V6.05h-7v4.53Zm0,5.4V11.45h-7V16ZM30.62,5.4a.43.43,0,0,1,.18.32c0,.18-.22.36-.68.47l-1.23.33-5.22,4.39c-.36.29-.53.39-.71.39s-.29-.1-.29-.32.14-.4,1.58-2.23c1-1.33,1.91-2.63,3.81-5.47ZM23.1,12c2.91.47,4.21.86,5.61,1.69S31,15.51,31,16.52a1.31,1.31,0,0,1-1.25,1.33c-.47,0-.58-.1-2.45-2.26a14.59,14.59,0,0,0-4.28-3Z"/><path class="cls-2" d="M44,6.23c0-.61-.07-.72-.43-.87A19.89,19.89,0,0,0,41,4.54a1.09,1.09,0,0,1,.83-.76,6.11,6.11,0,0,1,1.94-.4c.43,0,1,.29,2.41,1.19,1,.69,1.26.9,1.26,1.26a1.35,1.35,0,0,1-.36.79,2,2,0,0,0-.58,1.52l-.57,10.43c-.11,1.41-.15,2.92-.15,4.14a5.29,5.29,0,0,0,.9,3.57,5,5,0,0,0,3.93,1.44c4.39,0,9.35-2.38,13.49-6.45.68-.68.9-.86,1.15-.86a.43.43,0,0,1,.4.4,18.69,18.69,0,0,1-3.39,3.88,26.15,26.15,0,0,1-4.53,3.53,17.42,17.42,0,0,1-7.12,1.91A7.76,7.76,0,0,1,45.09,28c-1-1.12-1.47-3.1-1.47-5.8l0-.57L44,6.34Z"/><path class="cls-2" d="M98.71,18a19.9,19.9,0,0,0-.79,2.06,37.71,37.71,0,0,1,5.61,2.62c1,.62,1.33,1,1.33,1.77s-.36,1.26-1.08,1.26a2.3,2.3,0,0,1-1.26-.51,40.78,40.78,0,0,0-5.47-3.31,30,30,0,0,1-6.11,8.86c-1.37,1.26-2,1.76-2.34,1.76a.3.3,0,0,1-.29-.29c0-.14.14-.36.5-.72a30.78,30.78,0,0,0,6.26-10.44,26,26,0,0,0-8.77-1.76h-1c-.93,1.76-2.51,4.46-3.31,5.58-1.22,1.76-2.8,2.92-3.92,2.92-1.94,0-3.81-1.62-3.81-3.35s1.47-3.64,4.06-4.93A18,18,0,0,1,84,18a85.24,85.24,0,0,0,4.9-11.59c-4,1.12-5,1.51-6.48,2.45a1.16,1.16,0,0,1-.58.25c-.9,0-3.27-2.19-3.27-3,0-.33.11-.58.54-1.3,1.26,1.3,1.8,1.66,2.55,1.66a41.11,41.11,0,0,0,7.13-1.73l1-1.22c1.94,1.26,2.81,2.08,2.81,2.7,0,.43-.29.61-1.41.9L88.81,12.2c-1.58,3.31-2,4.18-2.8,5.69a29.85,29.85,0,0,1,9.75,1.4,27.79,27.79,0,0,0,1.4-5.22c0-.54-.32-.82-1.76-1.54.75-.76,1.08-1,1.47-1A7.14,7.14,0,0,1,99.54,13c.9.68,1.29,1.22,1.29,1.69s-.32.61-1.26.87c-.11.28-.14.43-.21.61ZM76.4,24.66c0,.93.5,1.55,1.3,1.55,1.15,0,2.3-1.09,3.92-3.71a25.18,25.18,0,0,0,1.62-3C79.42,20,76.4,22.28,76.4,24.66Z"/><path class="cls-2" d="M126.21.72l3.31.4c.36.07.68.36.68.64s-.18.4-.58.69l-.82.5V8.06h9.75l2.37-2.7,3,2.31a1,1,0,0,1,.47.72.56.56,0,0,1-.62.54h-16c-.11,2.52-.15,3.31-.44,6.48h8.5l1-1.55,2.59,1.91a1.17,1.17,0,0,1,.47.72.7.7,0,0,1-.47.57l-.61.18c-.65,6.23-.65,6.23-.9,7.6-.65,3.24-1.55,5.11-3.13,6.33a4.93,4.93,0,0,1-3,1.08c-.43,0-.58-.11-.58-.47,0-1,0-1.08-.1-1.15a1.79,1.79,0,0,0-.54-.36L127,28.58l.18-.61,2.3.43a18.59,18.59,0,0,0,2.59.32c1.52,0,2.2-.75,2.81-3.16.72-2.74.86-3.71,1.22-9.29h-8.92c-.86,5.9-2.55,9.18-6.26,12.31a24,24,0,0,1-6.44,3.82,3.07,3.07,0,0,1-1,.32.32.32,0,0,1-.32-.32c0-.26.18-.44.83-.76,3.77-2,7.77-6.33,9.1-9.93,1.26-3.17,1.65-5.91,1.87-12.78h-6.19c-2.3,0-3.42,0-6.62.18l-.47-1.23c3.78.15,5.26.18,7.09.18h7.49Z"/><path class="cls-2" d="M163.81,4.72a1.53,1.53,0,0,0,.22-.8c0-.39-.25-.57-2.09-1.36.58-.8.83-1,1.3-1A8,8,0,0,1,166,2.92c.83.57,1.12.93,1.12,1.33a.86.86,0,0,1-.25.57,4.49,4.49,0,0,1-.44.47,4.37,4.37,0,0,0-.57.54l-1.51,2c3.52-.65,3.74-.72,4.6-1.4a.67.67,0,0,1,.54-.22c1.19,0,2.09.58,2.09,1.33,0,1-.94,1.23-7.81,2.13l-.68.1-4.25,5.94c2.7-1.36,3.74-1.69,5.47-1.69a3.3,3.3,0,0,1,3.13,1.77,4.63,4.63,0,0,1,.47,1.83l8.31-3.85c.58-.25.86-.47.86-.61,0-.33-.43-.58-2.19-1.19.57-.5.9-.72,1.22-.72a9.15,9.15,0,0,1,2.27.79c1.47.72,2.16,1.44,2.16,2.23a1,1,0,0,1-.72,1l-1.69.5A89.21,89.21,0,0,0,168,19.4l0,4.57v.29a1.22,1.22,0,0,1-.47,1.19,1.87,1.87,0,0,1-1.22.54c-.54,0-.61-.11-.76-1v-.11l.15-4.36a22.29,22.29,0,0,0-3.53,2c-2.2,1.48-3.13,2.66-3.13,3.85,0,2.09,1.83,2.88,6.58,2.88a31,31,0,0,0,8.39-1,3.46,3.46,0,0,1,.79-.18,1.85,1.85,0,0,1,1.62,1.73c0,.64-.79,1.11-2.2,1.29-1.65.22-5.21.43-7.12.43-6.3,0-9.43-1.65-9.43-5,0-1.77,1-3.24,3.42-5,1.51-1,2.77-1.87,4.57-2.92,0-2.05,0-2.12-.4-2.59a1.9,1.9,0,0,0-1.72-.83c-1,0-2.13.44-3.82,1.55a9.17,9.17,0,0,0-2.41,2.13l-2.08,2.41c-.65.75-.94.93-1.48.93s-1-.46-1-1.26a2.49,2.49,0,0,1,.54-1.54c.07-.11.07-.11,1.12-.9a19.66,19.66,0,0,0,2.3-2.52l4.1-6.12C159.24,10,158,10,157,10s-1.44-.29-2.34-1.29A3.9,3.9,0,0,1,153.56,7c0-.22.14-.36.65-.61,1.54,1.58,2.3,1.83,5.5,1.83.61,0,1.15,0,2.12-.1Z"/><path class="cls-2" d="M196.92,3.92c-4.57.69-6.91,1-7.59,1-.32,0-.5-.11-.5-.26s.18-.28.54-.39C196.6,2.63,199.8,1.62,203.07,0l2,1.51a1,1,0,0,1,.43.72c0,.29-.32.51-.72.51h-1.29a27.15,27.15,0,0,1-4.32.82V6.48h3.41l1.95-2.16,2.59,2.05c.29.22.36.36.36.58s-.11.39-.43.39h-7.88v2.95h3.49l1-1.33,2,1.66a1,1,0,0,1,.36.68.58.58,0,0,1-.46.58l-.36.07v6.26c0,.62-.72,1.12-1.59,1.12-.29,0-.47-.14-.47-.4v-.68h-3.95v3.28h3l1.91-2,2,1.66c.33.29.47.5.47.79s0,.32-.57.32h-6.8v3.14c2.23-.29,3.49-.51,6.73-1.19l.1.65c-5.07,1.58-7.55,2.23-14.17,3.77l-.43.72c-.26.44-.44.54-.69.54a.67.67,0,0,1-.61-.39l-2-2.81c3.38-.25,4.86-.4,8.85-1V22.35h-3.27c-1.84.08-2.59.08-4.21.11l-.65-1.08,2.56.07c1.11,0,1.87.08,2.3.08h3.27V18.25h-4.24v1.4c0,.58-.62,1-1.48,1-.36,0-.54-.18-.54-.5V9l2.7,1.33h3.56V7.34h-4.46c-1.08,0-2,0-4.24.11l-.58-1.11,4.82.14h4.46Zm0,9.9V11.16h-4.24v2.66Zm0,3.57v-2.7h-4.24v2.7Zm6.15-3.57V11.16h-3.95v2.66Zm0,3.57v-2.7h-3.95v2.7Zm2.27-9c2.23.11,2.52.11,4.46.14V.29l2.88.47c.68.1,1,.36,1,.75s-.25.58-.83.87l-.72.28V8.53h3.92l1.16-1.76,2.41,2a.94.94,0,0,1,.36.62c0,.21-.15.39-.44.5l-.64.32v4.47A42.15,42.15,0,0,1,217.43,27a6.68,6.68,0,0,1-3.27,4.07,3.82,3.82,0,0,1-1.44.43c-.43,0-.61-.21-.61-.79,0-.94-.11-1-.9-1.4l-2.52-1.26.14-.58,2.92.58a2.36,2.36,0,0,0,.75.07c1.62,0,2.66-1.23,3.17-3.74a51.62,51.62,0,0,0,.86-10.16c0-.9,0-.9-.07-4.82h-4.35c0,.58,0,.9,0,1.08-.18,5.36-.54,7.67-1.66,10.87-1.47,4.18-3.59,6.84-7.88,9.76a8.29,8.29,0,0,1-3,1.62.29.29,0,0,1-.32-.29c0-.18,0-.18,1.62-1.3,6.65-4.93,8.92-10.44,9-21.74-1.87,0-2.16,0-4.13.11Z"/><path class="cls-2" d="M226.69,2.48c1.62.08,3.16.11,3.63.15l3.45.07h20.12l2.3-2.45,3.17,2.38a.75.75,0,0,1,.25.5.43.43,0,0,1-.47.43h-14.9V9.5h4l1-1.58L251.69,10a.74.74,0,0,1,.29.54c0,.25-.14.39-.47.54l-.57.25V24.73c0,.68-.87,1.3-1.8,1.3a.5.5,0,0,1-.54-.47v-1.8h-11V26c0,.4-.21.69-.72.87a5.3,5.3,0,0,1-1.15.28.48.48,0,0,1-.5-.53V8.17L238,9.5h3.78V3.56h-8c-.43,0-1.62,0-3.45.11l-3.06.07Zm4.39,26.28h23.71V6.3l3,.43c.54.11.82.33.82.72,0,.22-.14.4-.5.65l-.79.61V31.14c0,.57-1,1.26-1.87,1.26a.59.59,0,0,1-.61-.62V29.62H231.08v2.16c0,.51-.9,1-1.8,1a.59.59,0,0,1-.65-.58V6.08l3,.44c.58.07.94.36.94.79s-.22.65-.68.86l-.79.36Zm10.65-12.71V10.37h-4.18v5.68Zm0,6.81V16.92h-4.18v5.94Zm6.87-6.81V10.37h-4.36v5.68Zm0,6.84v-6h-4.36v6Z"/><path class="cls-2" d="M290.45,5.54a1.13,1.13,0,0,0,.72-.39c.47-.51.76-.72,1-.72a9,9,0,0,1,2.67,1c.72.43,1,.79,1,1.18a1,1,0,0,1-1.08.94c-.18,0-.5,0-.79-.07-.5,0-.9-.07-1.22-.07s-3.49.32-4.11.43a10.78,10.78,0,0,0-6,3.56,9.72,9.72,0,0,0-3,6.8,8.06,8.06,0,0,0,5.07,7.6,13.57,13.57,0,0,0,4.68,1c1.62.1,2.12.47,2.12,1.51s-.57,1.47-1.76,1.47a14.66,14.66,0,0,1-5.07-1.15,10.28,10.28,0,0,1-6.55-9.79A14.75,14.75,0,0,1,283,8.64c-5,.83-10.29,2.37-11.22,3.24a1.86,1.86,0,0,1-.9.39c-.36,0-1-.43-2.38-1.76-1-1-1.15-1.11-1.15-1.3a4.43,4.43,0,0,1,.29-.93,3.36,3.36,0,0,1,.43-.61c1.44,1.47,1.84,1.76,2.38,1.76l.54-.07Zm-2.91,7.6c2.73,1,4.46,2.55,4.46,4a1.15,1.15,0,0,1-1.15,1.26c-.47,0-.62-.14-1.05-1.22a7.83,7.83,0,0,0-2.59-3.64Zm3.85-2c3.23.43,5.25,1.73,5.25,3.35a1.07,1.07,0,0,1-1,1.18c-.43,0-.65-.18-1.19-1a9.09,9.09,0,0,0-3.31-3Z"/><path class="cls-2" d="M329,13.79l2.52-1c2.34,1.23,3.09,1.84,3.09,2.56,0,.39-.5.75-1,.75a5.37,5.37,0,0,1-.94-.1,27.52,27.52,0,0,0-5-.4c-1.47,0-2.37,0-5.68.22-.47,8.35-3,12.13-10.4,15.26a4.41,4.41,0,0,0-.61.25,1,1,0,0,1-.29.07.31.31,0,0,1-.32-.25c0-.18.18-.32.68-.61,6-3.2,8.39-7.27,8.74-14.58-4.78.32-9.13,1.08-9.75,1.62a2.3,2.3,0,0,1-.64.25,5.32,5.32,0,0,1-2.31-1.55c-.9-.79-1-.93-1-1.29a5,5,0,0,1,.5-1.41l.25.22c1.37,1.3,1.59,1.4,2.59,1.4.51,0,.51,0,2.27-.14l8.17-.61c-.08-3.78-.08-4.18-.18-5.4-5.22,1.12-6,1.29-8.89,1.83a11.49,11.49,0,0,1-2.27.4c-.32,0-.5-.14-.5-.4s.14-.36,1.73-.75c2.12-.5,6.91-1.87,10.14-2.95,3.82-1.23,5.29-1.91,5.29-2.31,0-.21-.18-.46-.61-.86.07-.22.14-.25.36-.25a5.33,5.33,0,0,1,2,.68c1.72.72,2.19,1.12,2.19,1.87,0,.51-.32.72-1.12.72a4.59,4.59,0,0,0-1.72.29c-1.59.43-2.92.79-4,1l.25.19.22.1c.28.18.39.33.39.51s-.18.47-.68.83c-.29.21-.36.32-.36.89l-.07,3.39Z"/><path class="cls-2" d="M365.38,23c1.51.68,2.77,1.73,2.77,2.3a.84.84,0,0,1-.72.79,1.73,1.73,0,0,1-.5-.1,13,13,0,0,0-4-.58c-6.29,0-12.92.93-14.86,2.09a1.39,1.39,0,0,1-.43.18c-.58,0-2.66-2-2.66-2.63a2.41,2.41,0,0,1,.39-1l.22.18.18.11c1.15.86,1.15.86,1.37.86,0,0,.39,0,.93-.11l7.66-.86V18.14c0-1.55,0-1.65-.28-2.19l-.72.07c-2.74.32-2.92.36-3.82.79a2.59,2.59,0,0,1-1.08.4c-.64,0-2.48-1.59-2.48-2.16a3.64,3.64,0,0,1,.51-1.26c.86.9,1.43,1.26,2,1.26a8.47,8.47,0,0,0,.87-.08c3.88-.46,7.27-.79,9.53-.93,1,0,1,0,1.33-.25s.62-.51.9-.76c.54.32.65.43,1.08.68,1.26.8,1.55,1.08,1.55,1.59a.58.58,0,0,1-.61.61,3.39,3.39,0,0,1-.43-.07,3.12,3.12,0,0,0-.47-.07c-.14,0-.61,0-1.3-.08l-2.16-.1a23.3,23.3,0,0,0-3,.21c.75.43,1,.61,1,.87,0,.1-.07.18-.25.39s-.33.33-.33.61v6.52l.72,0c3.71-.28,4-.32,6-.32Z"/><path class="cls-2" d="M379.45,13.43c3.06,1.22,4.79,2.91,4.79,4.75a1.27,1.27,0,0,1-1.26,1.4c-.72,0-.9-.25-1.37-1.87a6.66,6.66,0,0,0-2.52-3.78Zm15.65-1.26.22-.11a3.24,3.24,0,0,0,.5-.22,1.27,1.27,0,0,1,.44-.1c.72,0,3,2.37,3,3.13,0,.25-.18.39-1,.72A37,37,0,0,1,394,22.21a24.74,24.74,0,0,1-10,7.49,9.08,9.08,0,0,1-1.94.72.33.33,0,0,1-.36-.33c0-.21.14-.36.76-.65a29.86,29.86,0,0,0,5.72-3.67A28.35,28.35,0,0,0,395,16.85a9.65,9.65,0,0,0,1.15-3c0-.36-.39-.86-1.29-1.59Zm-9.89-.51c3,.69,5.29,2.88,5.29,5a1.21,1.21,0,0,1-1.23,1.22c-.75,0-.89-.18-1.29-1.4a8,8,0,0,0-3.06-4.43Z"/><path class="cls-2" d="M429.44,7.81a9.84,9.84,0,0,1,1.65,1.37l.47.43c.43.43.58.61.58.83s-.29.47-1.08.68c-.44.18-.47.18-.65.65a51.14,51.14,0,0,1-4.79,8.1c-2.73,3.74-5.18,5.9-10,8.85A16,16,0,0,1,412,30.63a.39.39,0,0,1-.39-.36c0-.18.14-.36.5-.54,7.59-4.64,12.34-10.36,16.08-19.29a45.77,45.77,0,0,0-7.48.72l-.54-.58a36.27,36.27,0,0,1-6.91,8A13.94,13.94,0,0,1,409.79,21a.31.31,0,0,1-.29-.29c0-.21.11-.32.61-.75a38.08,38.08,0,0,0,7-8.53A37.79,37.79,0,0,0,420,5.76c0-.29-.61-.76-1.4-1.08-.47-.18-.54-.22-.54-.36s1.29-.79,1.76-.79.5,0,2.91,1.51c.69.43.9.68.9,1s-.18.51-.75.72a1.51,1.51,0,0,0-.69.51c0,.07-.1.21-.46.86-.26.4-.4.61-.69,1.12l1.33,0,2.16-.11L427.1,9c.14,0,.46,0,1-.07Z"/></g></g></g></g></svg>