<svg xmlns="http://www.w3.org/2000/svg" viewBox="0 0 418.03 33.3"><defs><style>.cls-1{isolation:isolate;}.cls-2{fill:#333;}</style></defs><title>Asset 11</title><g id="Layer_2" data-name="Layer 2"><g id="Layer_1-2" data-name="Layer 1"><g class="cls-1"><path class="cls-2" d="M15,19.55H11.33l-2.95.07c-.39,0-1.44,0-2.7.07L5.11,18.5l6.22.18H15V10H7.34a25.37,25.37,0,0,1-5.72,7.45c-.4.36-.58.47-.76.47s-.14-.08-.14-.18.07-.33.43-.8c2.56-3.38,5-9.43,6-14.93l3,1.15c.58.25.9.5.9.83a1.06,1.06,0,0,1-.83.86L9.68,5A43.27,43.27,0,0,1,7.81,9.18H15V.29l3.27.36c.65.07.9.25.9.68,0,.25-.21.54-.61.79l-.83.54V9.18H25l2.3-2.48,2.85,2c.43.29.61.51.61.8s-.22.54-.68.54H17.77v8.67h4.32l2.16-2.27L27,18.32a1,1,0,0,1,.5.72c0,.33-.29.51-.72.51h-9v9.39h8.85l2.52-2.74,2.88,2a1.42,1.42,0,0,1,.61.94.65.65,0,0,1-.54.64h-25c-2.84.11-5,.15-6.44.18L0,28.76c1.73,0,4.07.07,7.09.18h8Z"/><path class="cls-2" d="M42.18,6.16c.93,0,1.51,0,2.87-.08C46,4.5,46.1,4.18,47.72,0l2.55,1.26a.65.65,0,0,1,.4.54c0,.29-.18.43-.61.58l-.8.21L46.35,6.08C48.72,6,49,6,53.12,5.72a12.73,12.73,0,0,0-2.2-2l.22-.43a13.47,13.47,0,0,1,4.06,2A3.84,3.84,0,0,1,56.82,8c0,.72-.43,1.26-1,1.26A.86.86,0,0,1,55.2,9a7.76,7.76,0,0,1-.72-1.15c-.18-.29-.47-.76-.86-1.3L43.54,8l-.64.68a1.13,1.13,0,0,1-.72.4.48.48,0,0,1-.43-.32L40.63,6.16Zm3.24,17.31a12.46,12.46,0,0,1,.14,1.65c0,3.17-1.73,6.09-3.64,6.09a1.2,1.2,0,0,1-1.22-1.3c0-.72.11-.86,1.51-1.91A8,8,0,0,0,45,23.54ZM46.06,10h6.15L53,8.71l2.08,1.73a.91.91,0,0,1,.36.61.53.53,0,0,1-.43.47l-.43.14v8.89c0,.83-.18,1.12-1,1.7a2.28,2.28,0,0,1-1,.46c-.4,0-.47-.14-.61-.9,0-.18-.18-.32-.4-.39L49,20.55l.07-.46H50.7c1.77,0,1.8,0,1.84-.65V17.1h-7V22c0,.68-.65,1.15-1.62,1.15-.29,0-.43-.15-.43-.51V8.78Zm6.48,3.2V10.8h-7v2.37Zm0,3.06V14h-7v2.19Zm-.58,7a.74.74,0,0,1,.69.65c0,.25-.18.47-.54.72l-.83.5v3.67c0,.72.11.83.86.9s2,.11,5.87.11c3.49,0,3.81-.11,4.21-1.33l1.15-3.46.5.11-.14,3.35v.32a.79.79,0,0,0,0,.33,1.24,1.24,0,0,0,.4.25,1.21,1.21,0,0,1,.72.94c0,.54-.5.93-1.4,1.18a24.44,24.44,0,0,1-5.22.29,45.46,45.46,0,0,1-7.7-.39c-1.15-.29-1.4-.69-1.4-2.27V23Zm2.56-1a8.44,8.44,0,0,1,3.27,1.19,3.7,3.7,0,0,1,2,2.88,1.13,1.13,0,0,1-1.15,1.26c-.65,0-.94-.29-1.52-1.59a7.17,7.17,0,0,0-2.8-3.31ZM61,.54a.65.65,0,0,1,.65.65.92.92,0,0,1-.5.75l-.79.44V5.62a28,28,0,0,0,6.83-3.68L69,3.82a.59.59,0,0,1,.18.39c0,.36-.33.54-.94.54H67.08C64.3,5.54,63,5.9,60.35,6.48V9.25c0,.47,0,.54.25.61a1.82,1.82,0,0,0,.68.11l1.26,0a35.32,35.32,0,0,0,4.82-.11c.72,0,1-.29,1.37-1.23l1-2.91.68,0-.29,2.44,0,.61c0,.4,0,.4,1.08,1.19.11,0,.18.25.18.4,0,1-1.55,1.33-6.3,1.33-4.17,0-5.4-.07-5.94-.36a2,2,0,0,1-.93-1.91V.32Zm0,12.2a.61.61,0,0,1,.62.58c0,.29-.15.47-.51.61l-.82.36v2.48A44.36,44.36,0,0,0,68,12.63l1.77,1.8a.8.8,0,0,1,.14.4c0,.25-.32.43-.79.43h-1a72.79,72.79,0,0,1-7.8,2.45v2c0,.39.14.61.46.68a17.46,17.46,0,0,0,3.46.14c1.9,0,3,0,3.16,0,1.51-.07,1.77-.22,2.2-1.33l1.08-3.14h.65L71,19.19a2.1,2.1,0,0,0,0,.39c0,.15,0,.15.72.76A.92.92,0,0,1,72,21c0,.4-.43.79-1.11,1a26.08,26.08,0,0,1-5.9.36c-3.38,0-4.86-.11-5.61-.36s-1.19-.94-1.19-2.05V12.49Zm5,10.84c4.25,1.65,6.15,3.42,6.15,5.65a1.29,1.29,0,0,1-1.29,1.4c-.61,0-.9-.29-1.26-1.19-1.19-2.88-2.09-4.06-4-5.4Z"/><path class="cls-2" d="M92.2,23.76c.43.28.64.57.64.82a.77.77,0,0,1-.68.69L91,25.34a34.85,34.85,0,0,1-6.36,5A15.47,15.47,0,0,1,81.22,32a.24.24,0,0,1-.21-.22c0-.25.21-.43,1.11-1A31.16,31.16,0,0,0,90,22.21ZM82.12,18.54c6.12,0,7.7-.07,11.55-.33,1.59-1.8,2.66-3,3-3.42,3.67-4.53,5.83-7.16,6.4-7.88l2.45,2a.8.8,0,0,1,.4.61.54.54,0,0,1-.54.54l-1.12.07-8.81,8L106,17.75a12,12,0,0,0-3.82-2.88l.18-.54c5.18,1.4,9,4.35,9,7a1.33,1.33,0,0,1-1.26,1.44c-.61,0-1-.36-1.58-1.44a24.47,24.47,0,0,0-1.62-2.56l-8.39.83V31.46c0,.29-.07.4-.43.54a6.27,6.27,0,0,1-1.69.58c-.22,0-.36-.22-.36-.54V19.83l-10.4,1-.61.82a.91.91,0,0,1-.72.4,1,1,0,0,1-.9-.72Zm10-6.88c1.4,1.33,1.91,2.2,1.91,3.24s-.54,1.59-1.23,1.59-1.07-.47-1.61-1.73a10.21,10.21,0,0,0-5.08-5.19l.18-.43a13.41,13.41,0,0,1,4.9,1.8c.32-.5.68-1.11.72-1.19.53-.93,1.11-1.87,1.69-2.8l.9-1.77c-5.29.58-8.32.83-10.15.83-.86,0-1.15-.11-1.15-.43s.18-.32,1.47-.47A153.33,153.33,0,0,0,106.45.61l1.76,2.13a1.12,1.12,0,0,1,.32.61.48.48,0,0,1-.54.47h-.11l-1.72-.26c-.65.08-1.08.15-1.23.18l-3.27.44c-1,.18-2,.32-3.06.46a12.33,12.33,0,0,1-1.33.11L98,5.4a.79.79,0,0,1,.28.54c0,.18-.18.32-.39.36l-.83.11Zm9,10.15A17.63,17.63,0,0,1,106.3,24c3.28,2,5,3.92,5,5.58a1.35,1.35,0,0,1-1.11,1.4c-.61,0-1.12-.5-2.13-2.09a24.1,24.1,0,0,0-7-6.55Z"/><path class="cls-2" d="M138,7a33.54,33.54,0,0,1,.5,4.35,19.73,19.73,0,0,1-4.39,11.45c-2.08,2.7-4,4-5.9,4a3.19,3.19,0,0,1-2.48-1.37,8.39,8.39,0,0,1-1.87-5.68c0-7.63,6.62-13.9,14.68-13.9,7.12,0,12.09,4.47,12.09,10.87,0,5.73-3.39,10.37-9.07,12.42a22,22,0,0,1-4.93,1.19c-.25,0-.47-.18-.47-.32s.11-.15.62-.29a16.23,16.23,0,0,0,6.79-3.57,13.09,13.09,0,0,0,4.11-10c0-3.31-1.05-5.76-3.1-7.31A9.33,9.33,0,0,0,139,7Zm-1.44.14A12.81,12.81,0,0,0,126,19.91c0,2.66,1,4.67,2.37,4.67,1.55,0,4.43-2.91,6.19-6.26a22.8,22.8,0,0,0,2.52-8.49,7.06,7.06,0,0,0-.47-2.49Z"/><path class="cls-2" d="M172.23,2.7l2.52,2c.29.21.43.39.43.54a.44.44,0,0,1-.46.36h-5.33V29.34a1.79,1.79,0,0,1-1,1.76,4.42,4.42,0,0,1-1.76.94c-.36,0-.58-.29-.54-.83s-.08-.72-.54-.9l-3.38-1.15v-.44h3.56c1.11,0,1.29-.1,1.33-.64V5.62h-1.58c-1.48,0-2.24,0-4.25.1l-.58-1c2.38.1,3.21.14,4.83.14h4.82ZM182.7,27.43a.62.62,0,0,1,.29.5c0,.29-.39.58-.79.54l-.9,0A30.59,30.59,0,0,1,174.86,32a8.2,8.2,0,0,1-2.41.87c-.18,0-.33-.11-.33-.25s.15-.33,1.19-.87a25.26,25.26,0,0,0,7.2-5.79ZM174,2.45c2.63.11,3.67.14,4.82.14h10.62l2-2.23,2.49,2a.92.92,0,0,1,.39.68.44.44,0,0,1-.39.44h-8.35L183.39,8H189l1-1.41,2.26,2a.73.73,0,0,1,.26.5.61.61,0,0,1-.51.54l-.57.18v16c0,.58-.72,1-1.73,1-.4,0-.54-.14-.54-.46V25H178.53V26.6c0,.43-.68.76-1.51.76-.5,0-.76-.22-.76-.62V6.62L178.78,8h3l.83-4.5h-3.75c-1,0-2,0-4.21.1Zm15.08,10.94V8.82H178.53v4.57Zm0,5.44V14.25H178.53v4.58Zm0,5.29V19.69H178.53v4.43Zm-4.32,1.76c4.32.94,7.77,3.31,7.77,5.29a1.15,1.15,0,0,1-1.08,1.23c-.57,0-.9-.29-1.47-1.19a14.26,14.26,0,0,0-5.29-4.86Z"/><path class="cls-2" d="M206.39,25a6,6,0,0,1,.43,2.41c0,2.92-1.48,5.08-3.42,5.08a1.16,1.16,0,0,1-1.26-1.08,2.22,2.22,0,0,1,.9-1.55,6.83,6.83,0,0,0,2.88-4.93Zm4-11.7H216V.32l3.31.22a.75.75,0,0,1,.75.68.86.86,0,0,1-.43.72l-1.11.65V7h7.91l2.23-2.55,3.06,2.66c.18.14.25.25.25.4a.33.33,0,0,1-.32.36H218.48v5.43h7.59l.93-1.55L229.45,14a.79.79,0,0,1,.32.54c0,.15-.18.33-.43.43l-.72.29v8.07c0,.36-.14.53-.54.68a4.79,4.79,0,0,1-1.4.29c-.32,0-.5-.26-.5-.69V22.32h-16V23.9c0,.29-.15.47-.62.68a4,4,0,0,1-1.47.47c-.29,0-.4-.25-.4-.75V11.77Zm15.8,8.17v-7.3h-16v7.3ZM211.57,25.2c2.66,1.26,4.24,3.24,4.24,5.32a1.74,1.74,0,0,1-1.58,1.84.88.88,0,0,1-.86-.47c-.15-.32-.15-.32-.36-2.37a7.41,7.41,0,0,0-1.69-4Zm7.34-.11a12.39,12.39,0,0,1,2.77,1.19,5.1,5.1,0,0,1,2.62,4,1.3,1.3,0,0,1-1.22,1.4c-.86,0-1.33-.58-1.83-2.2a7.25,7.25,0,0,0-2.63-4.06Zm7.52-.18a12,12,0,0,1,4,1.47c2,1.16,2.88,2.24,2.88,3.46a1.52,1.52,0,0,1-1.48,1.62,1.31,1.31,0,0,1-.83-.29c-.21-.21-.21-.21-1.54-2.59a10,10,0,0,0-3.21-3.2Z"/><path class="cls-2" d="M260.08,12.09a8.28,8.28,0,0,1,5.36-2.3c2.55,0,4.53,1.51,4.53,3.46a2.14,2.14,0,0,1-.93,1.9c-.76.58-1,.65-4.32,2a62.13,62.13,0,0,0-7.7,3.5c.11,1.58.18,2.73.18,3.31,0,1.8-.36,2.26-1.8,2.26-.43,0-.65-.14-.65-.36a.75.75,0,0,1,0-.28,28.77,28.77,0,0,0,.18-3.89c-3.1,1.83-4.35,3.27-4.35,4.89,0,1.8,1.69,2.52,5.9,2.52a20.7,20.7,0,0,0,5.28-.64,2.8,2.8,0,0,1,.94-.18,1.92,1.92,0,0,1,1.73,1.47c0,1.19-2.38,1.8-7.27,1.8a11.89,11.89,0,0,1-5.87-1.08,4.29,4.29,0,0,1-2.48-3.67,4.55,4.55,0,0,1,1.84-3.38,25.67,25.67,0,0,1,4.24-2.77c0-2.56-.14-3.75-.47-4.54a1.86,1.86,0,0,0-1.69-1.26,4.17,4.17,0,0,0-2.55,1.33,22.28,22.28,0,0,0-3.1,3.85c-.39.69-.79,1-1.18,1s-1.26-1.19-1.26-2.12c0-.47.14-.72.86-1.26,3.89-3.39,6.26-6.88,7-10.22a11.25,11.25,0,0,1-3.13.61,2.25,2.25,0,0,1-1.88-1.3A4.6,4.6,0,0,1,247,5.36a.15.15,0,0,1,.14-.14.3.3,0,0,1,.18.14,2.27,2.27,0,0,0,2.12.94,9.62,9.62,0,0,0,3.28-.58,6,6,0,0,0,.1-1,1.7,1.7,0,0,0-1.69-1.95c-.14,0-.18,0-.18-.14,0-.33,1.23-.9,1.91-.9a2.47,2.47,0,0,1,2.37,2.12,5.37,5.37,0,0,1-.28,1.37A5.25,5.25,0,0,0,257.2,4c1.22.61,1.58.86,1.58,1.15s-.79.75-4.21,1.76a41.41,41.41,0,0,1-4.1,7.67,5.64,5.64,0,0,1,2.38-.65,3.63,3.63,0,0,1,2.3.83,5.21,5.21,0,0,1,1.33,2.55A14.54,14.54,0,0,1,260.08,12.09Zm1.54,4.68a36.39,36.39,0,0,0,4.61-2.7,2,2,0,0,0,.72-1.26,2.17,2.17,0,0,0-2.2-1.8c-1.87,0-4.31,1.7-5.72,4a18.32,18.32,0,0,0-2.12,4.43C258.35,18.57,258.6,18.43,261.62,16.77Z"/><path class="cls-2" d="M288.4,3.31h16l1.41-1.94L308.33,4a1,1,0,0,1,.33.65.67.67,0,0,1-.4.54l-.9.32V30.42c0,.46-.18.68-.72.86a5.69,5.69,0,0,1-1.51.32c-.36,0-.46-.14-.46-.64V28.69H287.83v2.73c0,.4-.18.62-.69.83a6.11,6.11,0,0,1-1.58.4c-.29,0-.43-.15-.43-.51V1.69Zm16.27,8.21V4.18H287.83v7.34Zm0,8.06v-7.2H287.83v7.2Zm0,8.24V20.45H287.83v7.37Z"/><path class="cls-2" d="M320,8.6c2.81.11,3.21.15,5.83.15V.14l2.63.11c.54,0,.9.29.9.72s-.22.54-.65.83l-.68.4V8.75h1.26l1.8-2.34,2.3,2.12a.85.85,0,0,1,.25.5.46.46,0,0,1-.39.51H328v6.8c2-.75,2.44-.93,5-2l.18.61c-2.44,1.47-2.84,1.69-5.14,3V29.48a2,2,0,0,1-.69,1.73,4.43,4.43,0,0,1-1.9,1c-.29,0-.54-.5-.54-1.08a1.15,1.15,0,0,0-.07-.4l-.33-.1-.47-.11-2.77-.87v-.54l3.49,0c.83,0,1-.14,1.08-.86V19.19l-2.08,1-.54,1.19c-.18.32-.36.5-.61.5s-.26-.11-.44-.29L320,19.19c3-1,3.5-1.16,5.83-2V9.54c-2.51,0-2.91,0-5.5.11ZM337.27.54c.61,0,1,.36,1,.86,0,.33-.22.58-.69.8l-.61.25V7.27a57.75,57.75,0,0,0,11.55-5.22l2.2,2a.8.8,0,0,1,.32.54c0,.29-.25.47-.72.47L349,5.11c-4.82,1.41-4.9,1.44-12.06,3.06v2.7c0,.9.18.94,4.39.94,2.67,0,5.4-.08,6.8-.18a3.61,3.61,0,0,0,1.77-.36c.18-.15.18-.15.68-1.55l1-2.63.54.14-.11,2.63,0,1.23c0,.1.18.21.44.25.68.14.93.32.93.72,0,.83-1.11,1.37-3.09,1.51-2.2.18-6.3.32-8.82.32-5.86,0-6.69-.28-6.69-2.41V.4Zm1.19,17h8.63L348,16,350.26,18a.92.92,0,0,1,.36.65c0,.22-.18.43-.5.54l-.54.22V31.17a.79.79,0,0,1-.51.83,2.88,2.88,0,0,1-1.22.29c-.4,0-.61-.18-.61-.47V30.24H338v1.33c0,.61-.75,1-1.87,1-.32,0-.47-.14-.47-.43V16.09Zm8.78,5.93V18.43H338V23.5Zm0,5.87v-5H338v5Z"/><path class="cls-2" d="M381.1,28.51a1.86,1.86,0,0,1,2,1.65c0,.94-.75,1.44-2.15,1.44-6.05,0-10.37-3.16-10.37-7.59,0-1.8.33-2.74,1.87-5.36a17.41,17.41,0,0,0-6.69,4.53c-.36.43-.61.58-.93.58-.58,0-.87-.69-.87-2.13,0-1,.15-1.29,1.91-3.16.43-.44,1.26-1.34,2.12-2.31,1-1.15,2-2.3,3.17-3.56L375,8.49c.75-.86,1.26-1.43,1.36-1.51.87-.82,1-1.08,1-1.65s-.43-1.26-.94-1.26c-.32,0-.79.29-3.16,1.91S370.52,7.81,370,7.81a2.42,2.42,0,0,1-2.05-2.34c0-1,.22-1.8.47-1.8s.15,0,.15.25a1.82,1.82,0,0,0,1.54,1.55,32.66,32.66,0,0,0,6.19-2.59,1.46,1.46,0,0,1,.83-.22c1.37,0,3.67,2.27,3.67,3.64,0,.61-.32,1-1.08,1.44a26.39,26.39,0,0,0-9.75,8,18,18,0,0,0-2.41,3.52c0,.11.21.22.43.22a2.15,2.15,0,0,0,.94-.29,64.68,64.68,0,0,1,9.89-3.89A32.57,32.57,0,0,1,384,14a2.57,2.57,0,0,1,1.76,1.15,3,3,0,0,1,.83,1.44c0,.29-.43.57-.93.57a7.87,7.87,0,0,1-.8-.07,15,15,0,0,0-2.26-.14,17.76,17.76,0,0,0-8.1,1.83,6.5,6.5,0,0,0-2.55,5.15,4.19,4.19,0,0,0,2.23,3.67,11.3,11.3,0,0,0,5.11,1c.5,0,.75,0,1.19,0Z"/><path class="cls-2" d="M401.87,12.42a2.05,2.05,0,0,0,1.76,2.16c.54,0,1-.18,2.56-1.05,3-1.62,4.71-2.23,6.33-2.23,3.24,0,5.51,2.95,5.51,7.24,0,5.5-2.92,9.93-8.39,12.78a27.36,27.36,0,0,1-6,2,.33.33,0,0,1-.36-.33c0-.14.11-.25.5-.36a19.72,19.72,0,0,0,6.41-3.49,13.59,13.59,0,0,0,5-10.51c0-3.71-1.4-6.08-3.56-6.08-1.51,0-3.89,1.36-5.8,3.34-1.11,1.16-1.58,1.48-2.19,1.48-1.33,0-2.77-1.73-2.77-3.31,0-.9.5-2,.86-2a.16.16,0,0,1,.15.14.18.18,0,0,1,0,.11Zm3.56-10c0-.61.11-1.05.29-1.05s.11,0,.14.36c.18,1.77,2.2,2.92,5,2.92.47,0,.94,0,1.37-.07a4.84,4.84,0,0,1,.68,0,1.2,1.2,0,0,1,1.08.69,3.36,3.36,0,0,1,.54,1.54c0,.47-.32.72-.9.72a2.66,2.66,0,0,1-.61-.1,8.45,8.45,0,0,0-1.73-.15,9.26,9.26,0,0,0-4.42.79c-.36.15-.36.15-.47.15a.16.16,0,0,1-.14-.15,10.84,10.84,0,0,1,2.48-1.76C407.09,6.3,405.43,4.39,405.43,2.45Z"/></g></g></g></svg>