<svg xmlns="http://www.w3.org/2000/svg" viewBox="0 0 274.13 109.36"><defs><style>.cls-1{fill:#333;}</style></defs><title>itadaki-videos-title</title><g id="Layer_2" data-name="Layer 2"><g id="Layer_1-2" data-name="Layer 1"><path class="cls-1" d="M13.93,5.89C7.07,6.91,3.56,7.34,2.54,7.34c-.49,0-.76-.16-.76-.37s.27-.44.81-.6C13.45,3.94,18.25,2.43,23.17,0l2.91,2.27a1.45,1.45,0,0,1,.65,1.08c0,.43-.49.75-1.08.75H23.71a41,41,0,0,1-6.48,1.25V9.72h5.13l2.91-3.24,3.89,3.08c.43.32.54.54.54.86s-.16.6-.65.6H17.23v4.42h5.23l1.46-2,3,2.48a1.5,1.5,0,0,1,.54,1,.86.86,0,0,1-.71.86l-.54.11v9.39c0,.92-1.08,1.68-2.37,1.68-.43,0-.7-.22-.7-.6v-1H17.23v4.91h4.53l2.86-2.91,3,2.48a1.57,1.57,0,0,1,.71,1.19c0,.48-.06.48-.87.48H17.23v4.7c3.34-.43,5.23-.75,10.09-1.78l.17,1c-7.62,2.38-11.34,3.35-21.28,5.67l-.65,1.08c-.38.65-.65.81-1,.81a1,1,0,0,1-.92-.59l-3-4.21c5.07-.38,7.29-.6,13.28-1.46V33.53H9c-2.76.11-3.89.11-6.32.17l-1-1.62,3.83.1c1.68.06,2.81.11,3.46.11h4.91V27.38H7.56v2.1c0,.87-.92,1.52-2.21,1.52-.54,0-.81-.27-.81-.76V13.45l4.05,2h5.34V11H7.24c-1.62,0-3,.05-6.38.16L0,9.5l7.24.22h6.69Zm0,14.85v-4H7.56v4Zm0,5.34V22H7.56v4Zm9.24-5.34v-4H17.23v4Zm0,5.34V22H17.23v4Zm3.4-13.5c3.35.16,3.78.16,6.69.22V.43l4.32.7c1,.17,1.52.54,1.52,1.14s-.38.86-1.25,1.29L36.77,4v8.8h5.89l1.73-2.65,3.62,3a1.39,1.39,0,0,1,.54.91c0,.33-.22.6-.65.76l-1,.49V22c0,7.62-.81,14.37-2.22,18.52a10,10,0,0,1-4.91,6.11,5.78,5.78,0,0,1-2.16.64c-.65,0-.92-.32-.92-1.18,0-1.41-.16-1.52-1.35-2.11l-3.78-1.89.22-.86,4.37.86a3.43,3.43,0,0,0,1.13.11c2.43,0,4-1.84,4.76-5.62a76.9,76.9,0,0,0,1.29-15.23c0-1.35,0-1.35-.11-7.23H36.72c0,.86,0,1.35,0,1.62-.27,8-.81,11.5-2.49,16.31C32,38.34,28.78,42.34,22.36,46.71c-2.33,1.62-3.89,2.43-4.54,2.43a.44.44,0,0,1-.49-.43c0-.27,0-.27,2.43-2,10-7.39,13.4-15.66,13.5-32.61-2.8,0-3.24,0-6.21.16Z"/><path class="cls-1" d="M57.51,3.73c2.43.1,4.75.16,5.45.21l5.19.11H98.33L101.79.38l4.75,3.56a1.14,1.14,0,0,1,.38.76.64.64,0,0,1-.7.65H83.86v8.91h6l1.51-2.38L95,15a1.11,1.11,0,0,1,.43.81c0,.38-.21.6-.7.81l-.86.38V37.1c0,1-1.3,1.94-2.7,1.94a.74.74,0,0,1-.81-.7v-2.7H73.82v3.29c0,.6-.33,1-1.08,1.3a7.74,7.74,0,0,1-1.73.43.72.72,0,0,1-.76-.81V12.26l4.16,2h5.67V5.35H68.15c-.65,0-2.43.05-5.19.16-.64,0-2.53,0-4.59.11ZM64.1,43.15H99.68V9.45l4.43.65c.81.16,1.24.48,1.24,1.08,0,.32-.21.59-.75,1l-1.19.92V46.71c0,.86-1.51,1.89-2.81,1.89a.88.88,0,0,1-.92-.92V44.44H64.1v3.24c0,.76-1.35,1.46-2.7,1.46a.88.88,0,0,1-1-.86V9.13l4.48.64c.86.11,1.4.54,1.4,1.19s-.32,1-1,1.3l-1.19.54Zm16-19.07V15.55H73.82v8.53Zm0,10.21V25.38H73.82v8.91ZM90.4,24.08V15.55H83.86v8.53Zm0,10.26v-9H83.86v9Z"/><path class="cls-1" d="M148.88,8.32c5.88-1.46,5.88-1.46,6.7-1.46a4,4,0,0,1,2.91,1.62A5.38,5.38,0,0,1,160,11c0,.65-.65,1.08-1.46,1.08a4.39,4.39,0,0,1-1.67-.38,14.88,14.88,0,0,0-3.94-.59,16.83,16.83,0,0,0-6.59,1.51c-2.87,1.41-5.84,5.24-7.13,9.24a37.36,37.36,0,0,0-1.57,10.85c0,6.64,2.54,9.18,9.34,9.18a16.55,16.55,0,0,0,3.89-.38,2.42,2.42,0,0,1,.7,0,2.7,2.7,0,0,1,2.06.92,4.78,4.78,0,0,1,1,2.16c0,1.18-1.41,1.67-5,1.67-9.77,0-15.61-4.48-15.61-11.93a32.44,32.44,0,0,1,6.54-19,16.54,16.54,0,0,1,2.75-3.08.54.54,0,0,0,.27-.43.24.24,0,0,0-.21-.22c-3.08,0-14.1,4.32-17.66,6.91-1.51,1.08-2,1.3-2.92,1.3a7.44,7.44,0,0,1-4-2.21,6.39,6.39,0,0,1-1.13-3.84c0-.21.11-.38.32-.38s.22.06.33.27c.54,1.25,1.56,1.79,3.56,1.79a10.29,10.29,0,0,0,4-.87c8.37-2.48,12.64-3.67,18.25-4.91ZM156.6,24a2,2,0,0,1-1.89,1.89c-.49,0-.81-.27-1.24-1a8.82,8.82,0,0,0-5.29-4.32c-.38-.05-.43-.11-.43-.27s.64-.38,1.83-.38C153.09,19.87,156.6,21.92,156.6,24Zm5.62-2.92a2,2,0,0,1-1.89,2c-.49,0-.81-.22-1.14-.87a9.35,9.35,0,0,0-5.56-4.59c-.32-.05-.38-.1-.38-.21,0-.27.76-.43,1.95-.43C158.71,17,162.22,19,162.22,21.06Z"/><path class="cls-1" d="M185.27,31.05v3c0,.76-1.35,1.52-2.7,1.52a.68.68,0,0,1-.75-.65V.92l4.32,2.64h22.08l1.52-2.48,3.72,3.29a1.09,1.09,0,0,1,.49.81c0,.33-.22.6-.7.76l-1.41.43V33.48c0,.49-.21.76-.75,1a5.5,5.5,0,0,1-2.06.49c-.54,0-.81-.27-.81-.87v-3h-5.45V43.63c0,1,0,1,.27,1.14l.76,0,3.13,0c9.93-.1,10-.1,10.64-3l1.13-6.37,1.3.21-.22,7.13c0,.92.38,1.3,1.35,1.62.7.22.86.38.86.87,0,1.13-.86,1.83-2.64,2.16-2,.37-2,.37-11.18.54-8.1,0-8.59-.17-9-2.7V31.05h-4.49c-1.13,8.59-3.4,12.58-8.64,15.28a39.07,39.07,0,0,1-9.23,2.86,23.73,23.73,0,0,1-3,.49c-.38,0-.6-.16-.6-.49s.33-.54.92-.75C186.62,44.66,190,41.09,191,31.05Zm22.95-18.9V4.91H185.38v7.24Zm0,8.86V13.5H185.38V21Zm0,8.74V22.36H185.38v7.39Z"/><path class="cls-1" d="M259.25,42.28c2.43-1.19,3.46-2,4.49-3.67a11.72,11.72,0,0,0,1.62-5.94c0-5.35-3-8.32-8.32-8.32-5,0-8.42,1.73-11.93,6a24.57,24.57,0,0,0-4.05,6.37,2.1,2.1,0,0,1-1.95,1.46c-.92,0-2.32-1.62-2.32-2.76,0-.59.43-1.29,1.51-2.37,7.13-7.4,7.62-8,15.34-18.25,3.13-4.05,3.18-4.11,3.18-5a1.14,1.14,0,0,0-1.18-1.24c-1.68,0-3,.7-8.54,4.59-1,.75-1.51,1-2,1a4.13,4.13,0,0,1-2.54-1.57,4.24,4.24,0,0,1-1-2.91c0-1,.11-1.3.43-1.3.17,0,.17.05.27.49a1.94,1.94,0,0,0,2.06,1.35c2.21,0,8.8-2.33,11.17-4a2.5,2.5,0,0,1,1.84-.64c2.16,0,6,2.59,6,4.1a1.24,1.24,0,0,1-.86,1.19c-2.32,1-5.35,3.72-9.77,8.69-2.65,3-3.41,3.94-3.41,4.38,0,.21.17.48.33.48a.83.83,0,0,0,.27-.11,1,1,0,0,0,.27-.1c.11-.06.38-.17.75-.33a20.1,20.1,0,0,1,7.78-1.62c6.37,0,10.91,4.38,10.91,10.48a11.35,11.35,0,0,1-4.05,8.91,18.86,18.86,0,0,1-11.67,4.05,10.45,10.45,0,0,1-6.48-2,3.86,3.86,0,0,1-1.45-3.24c0-2.48,2.1-4.1,5.29-4.1,3.62,0,6.26,1.78,7.83,5.34l0,.16Zm-3.45.81c-.6-3.29-2.16-5-4.65-5a2.2,2.2,0,0,0-2.48,2.16c0,1.79,2.05,3,5.18,3a10,10,0,0,0,1.62-.1Z"/><path class="cls-1" d="M4.94,107.52c5.35,0,6.48-.81,6.48-4.53V76.8c.06-3.4-.91-4-6.48-4.11V70.91H22.49v1.78c-5.23,0-6.42.76-6.42,4.11V103c.05,3.83,1.13,4.59,6.42,4.53v1.84H4.94Z"/><path class="cls-1" d="M31,71H62.18l3.35,9-1.57.7c-3.24-3.94-3.78-4.43-5.29-5.56a10.24,10.24,0,0,0-6-2.27c-2.59,0-3.89,1.84-3.89,5.46v25.11c0,3.67.54,4,6.86,4.21v1.78H37.4v-1.78c5.94-.16,6.64-.6,6.75-4.21V78.26c0-3.84-1.14-5.35-4.11-5.35a10,10,0,0,0-6.69,2.92,47.41,47.41,0,0,0-4.65,4.91l-1.35-.81Z"/><path class="cls-1" d="M70.12,107.42c3.19-.11,5.35-1.79,6.7-5.08L89.18,70.8l3.73-1.29L106,103.2c1.19,3,2.54,4,5.67,4.22v1.94H96.91v-1.94c3.34,0,4.31-.49,4.31-2.22a6.7,6.7,0,0,0-.48-2.27l-2.92-7.72H81.57L79,102.07A5,5,0,0,0,78.6,104c0,2.6,1,3.3,4.8,3.41v1.94H70.12Zm27-14L90.05,73.94,82.33,93.38Z"/><path class="cls-1" d="M116.83,107.63c5.13-.21,6-.92,6-4.86v-26c0-3.13-1.41-4.11-6-4.11V70.91h17.55c6.8,0,11.93,1.41,15.5,4.27,4.21,3.35,6.64,8.85,6.64,15.06,0,11.72-8.59,19.12-22.14,19.12H116.83Zm10.85-4.7c0,3.78,1,4.65,5.62,4.65,10.91,0,17.12-6.54,17.12-17.93,0-11.12-6-17-17.5-17-3.94,0-5.24,1-5.24,3.94Z"/><path class="cls-1" d="M163,107.42c3.18-.11,5.34-1.79,6.69-5.08L182.06,70.8l3.73-1.29,13.12,33.69c1.19,3,2.54,4,5.67,4.22v1.94h-14.8v-1.94c3.35,0,4.32-.49,4.32-2.22a6.7,6.7,0,0,0-.48-2.27l-2.92-7.72H174.45l-2.6,6.86a5,5,0,0,0-.37,1.94c0,2.6,1,3.3,4.8,3.41v1.94H163Zm27-14-7.08-19.44L175.2,93.38Z"/><path class="cls-1" d="M209.71,107.58h1c3.78,0,5.08-1,5.13-4v-27c.05-3.24-.86-3.83-6.05-4V70.91h16.85v1.68c-5,0-5.94.7-6,4V91.05L236,76.58a3.43,3.43,0,0,0,1.29-2.37c0-1.19-.75-1.52-3.89-1.62V70.91h15v1.68c-4.32.21-6.42,1.08-9.45,3.88l-9.23,8.59,14,19c1.68,2.49,3.73,3.51,7.24,3.68v1.67H234.66v-1.78h.05c2.65,0,3.56-.43,3.56-1.73a3.27,3.27,0,0,0-.75-1.94L226.29,88.19l-5.67,5.35v9.61c0,3.67,1.13,4.43,5.94,4.43v1.78H209.71Z"/><path class="cls-1" d="M256.58,107.52c5.35,0,6.48-.81,6.48-4.53V76.8c.05-3.4-.92-4-6.48-4.11V70.91h17.55v1.78c-5.24,0-6.43.76-6.43,4.11V103c.06,3.83,1.14,4.59,6.43,4.53v1.84H256.58Z"/></g></g></svg>