<svg xmlns="http://www.w3.org/2000/svg" viewBox="0 0 423.68 29.37"><title>itadaki-cta-title</title><g id="レイヤー_2" data-name="レイヤー 2"><g id="レイヤー_1-2" data-name="レイヤー 1"><path d="M0,26c3.21,0,3.9-.49,3.9-2.73V7.53c0-2-.56-2.4-3.9-2.47V4H10.55V5.06c-3.15,0-3.86.46-3.86,2.47V23.27c0,2.31.68,2.76,3.86,2.73v1.1H0Z"/><path d="M18.89,4H37.65l2,5.39-.94.42a15.58,15.58,0,0,0-3.18-3.34,6.22,6.22,0,0,0-3.6-1.36c-1.56,0-2.34,1.1-2.34,3.28V23.5c0,2.21.32,2.4,4.12,2.53V27.1h-11V26c3.57-.1,4-.36,4.06-2.53V8.41c0-2.31-.68-3.22-2.47-3.22a6,6,0,0,0-4,1.76,27.83,27.83,0,0,0-2.79,3l-.82-.49Z"/><path d="M45,25.93a4.27,4.27,0,0,0,4-3.05L56.47,3.93l2.24-.78L66.6,23.4c.71,1.82,1.52,2.43,3.41,2.53V27.1h-8.9V25.93c2,0,2.6-.29,2.6-1.33a4,4,0,0,0-.29-1.36L61.67,18.6H51.9l-1.56,4.12a3,3,0,0,0-.23,1.17c0,1.56.62,2,2.89,2V27.1H45Zm16.22-8.44L57,5.81,52.35,17.49Z"/><path d="M76.34,26.06c3.08-.13,3.6-.55,3.63-2.92V7.53c0-1.88-.84-2.47-3.63-2.47V4H86.88c4.09,0,7.18.85,9.32,2.57a11.38,11.38,0,0,1,4,9.05c0,7-5.16,11.49-13.31,11.49H76.34Zm6.52-2.82c0,2.27.62,2.79,3.37,2.79,6.56,0,10.29-3.93,10.29-10.78C96.52,8.57,92.89,5,86,5c-2.37,0-3.15.59-3.15,2.37Z"/><path d="M107.33,25.93a4.29,4.29,0,0,0,4-3.05l7.43-18.95L121,3.15l7.88,20.25c.72,1.82,1.53,2.43,3.41,2.53V27.1h-8.89V25.93c2,0,2.6-.29,2.6-1.33a3.82,3.82,0,0,0-.3-1.36L124,18.6h-9.77l-1.56,4.12a3,3,0,0,0-.22,1.17c0,1.56.61,2,2.88,2V27.1h-8Zm16.23-8.44L119.31,5.81l-4.64,11.68Z"/><path d="M138.65,26h.59c2.27,0,3-.62,3.08-2.4V7.4c0-1.95-.52-2.3-3.64-2.4V4h10.13V5c-3,0-3.57.42-3.6,2.4v8.7l9.25-8.7A2.05,2.05,0,0,0,155.24,6c0-.71-.46-.91-2.34-1V4h9V5a7.58,7.58,0,0,0-5.68,2.33l-5.55,5.17,8.41,11.39a4.82,4.82,0,0,0,4.34,2.2v1h-9.76V26h0c1.59,0,2.14-.26,2.14-1a2,2,0,0,0-.45-1.17l-6.76-9.44-3.4,3.21v5.78c0,2.21.68,2.66,3.57,2.66V27.1H138.65Z"/><path d="M170.07,26c3.21,0,3.89-.49,3.89-2.73V7.53c0-2-.55-2.4-3.89-2.47V4h10.55V5.06c-3.15,0-3.87.46-3.87,2.47V23.27c0,2.31.69,2.76,3.87,2.73v1.1H170.07Z"/><path d="M205.93,10.91a7.41,7.41,0,0,1,4.84-2.08c2.3,0,4.09,1.36,4.09,3.11a1.91,1.91,0,0,1-.85,1.72c-.68.52-.87.59-3.89,1.79a55,55,0,0,0-7,3.15c.1,1.43.16,2.46.16,3,0,1.63-.32,2.05-1.62,2.05-.39,0-.58-.13-.58-.33a.9.9,0,0,1,0-.26,25.19,25.19,0,0,0,.16-3.5c-2.79,1.65-3.92,2.95-3.92,4.41,0,1.63,1.52,2.27,5.32,2.27a18.67,18.67,0,0,0,4.77-.58,2.62,2.62,0,0,1,.84-.16,1.74,1.74,0,0,1,1.56,1.33c0,1.07-2.14,1.62-6.56,1.62a10.76,10.76,0,0,1-5.29-1,3.86,3.86,0,0,1-2.23-3.31,4.09,4.09,0,0,1,1.65-3,22.89,22.89,0,0,1,3.83-2.5,12.36,12.36,0,0,0-.42-4.09,1.7,1.7,0,0,0-1.53-1.14,3.81,3.81,0,0,0-2.3,1.2A19.66,19.66,0,0,0,194.25,18c-.36.62-.72.91-1.07.91S192,17.88,192,17c0-.42.13-.65.78-1.14,3.51-3.05,5.65-6.2,6.26-9.21a10.14,10.14,0,0,1-2.82.55,2,2,0,0,1-1.69-1.17,4.11,4.11,0,0,1-.49-1.23.14.14,0,0,1,.13-.13s.1,0,.17.13a2.05,2.05,0,0,0,1.91.84,8.68,8.68,0,0,0,3-.52,5.88,5.88,0,0,0,.09-.91,1.53,1.53,0,0,0-1.52-1.75c-.13,0-.16,0-.16-.13,0-.29,1.1-.81,1.72-.81a2.24,2.24,0,0,1,2.14,1.91,5.05,5.05,0,0,1-.26,1.24,4.71,4.71,0,0,0,2.07-1.11c1.11.55,1.43.78,1.43,1s-.71.68-3.79,1.59a37.52,37.52,0,0,1-3.7,6.91,5.16,5.16,0,0,1,2.14-.58,3.31,3.31,0,0,1,2.08.75,4.73,4.73,0,0,1,1.2,2.3A12.94,12.94,0,0,1,205.93,10.91Zm1.4,4.21a35.89,35.89,0,0,0,4.15-2.43,1.81,1.81,0,0,0,.65-1.14,2,2,0,0,0-2-1.62c-1.69,0-3.89,1.53-5.16,3.6a16.13,16.13,0,0,0-1.91,4C204.37,16.75,204.6,16.62,207.33,15.12Z"/><path d="M233.39,18.17a6,6,0,0,0,1.72-.25.68.68,0,0,1,.32-.13,3.12,3.12,0,0,1,.85.61c.36.36.49.59.49.85,0,.58-.49.91-1.34.91a21.94,21.94,0,0,1-3.56-.26,14.41,14.41,0,0,0-.07,1.59,5.37,5.37,0,0,0,1.2,3.86,4.82,4.82,0,0,0,3.54,1.43c2.76,0,4.51-1.66,4.51-4.29a9.78,9.78,0,0,0-4.15-7.72c-.17-.13-.23-.2-.23-.26s.13-.16.26-.16a7.8,7.8,0,0,1,2.59,1.59c2.57,2.1,3.93,4.54,3.93,7,0,3.4-2.63,5.74-6.46,5.74a7.16,7.16,0,0,1-4.7-1.65,6.2,6.2,0,0,1-1.85-4.94,14.47,14.47,0,0,1,.19-2.46c-2.34-.62-3.47-1.6-3.47-3a4.16,4.16,0,0,1,1.75-3.05,22.33,22.33,0,0,1,3.25-2c.06-.35.06-.42.16-.84-2.44-.68-3-.91-4-1.85a2.59,2.59,0,0,1-.94-2.14c0-.29.1-.39.32-.39.07,0,.13.06.13.19.1.81,1.92,1.82,4.81,2.6.35-1.79.35-1.82.42-2.21a13.31,13.31,0,0,0,.39-2.43A2.26,2.26,0,0,0,231.64,2c-.13,0-.16,0-.16-.1,0-.23,1.1-.71,1.62-.71a5.37,5.37,0,0,1,2.33,1.23c.78.62,1.11,1.1,1.11,1.65s-.13.85-.85,2.24c-.55,1.17-.87,1.85-1.46,3.18a4.29,4.29,0,0,0,1.33.17,1,1,0,0,1,1,.42,2.08,2.08,0,0,1,.45,1.14c0,.42-.22.51-1,.51a8.55,8.55,0,0,0-2.75.49A50.46,50.46,0,0,0,232,18.08,13,13,0,0,0,233.39,18.17ZM231,17.4c.1-.49.2-.94.29-1.4s.23-1.2.36-1.78c0-.23.13-.69.29-1.34-2.21,1.37-3.08,2.34-3.08,3.45,0,.81.52,1.2,2,1.55Z"/><path d="M278.7,18.73c0,3.08-1.85,5.64-5.19,7.14A24.86,24.86,0,0,1,266,27.78c-.23,0-.52-.23-.52-.39s.06-.1.55-.19C272.6,26,276.3,23,276.3,18.69c0-3.14-1.85-5.06-4.84-5.06a15.47,15.47,0,0,0-7.92,2.63A22.38,22.38,0,0,0,260,18.92a1.71,1.71,0,0,1-1.29.59,3.65,3.65,0,0,1-2.34-1.21,3.45,3.45,0,0,1-.65-2.36c0-.26.07-.36.23-.36s.13,0,.13.16a1.81,1.81,0,0,0,1.85,1.43c.71,0,.91-.07,2.59-1.07,4.32-2.5,7.6-3.57,10.84-3.57C275.68,12.53,278.7,15.06,278.7,18.73Z"/><path d="M301,16.2a7,7,0,0,1-1.43-4.84c0-.91.1-3.18.19-5.06l0-1c0-1.75-.75-2.43-2.6-2.43a1.21,1.21,0,0,0-.39,0h-.06c-.2,0-.3-.07-.3-.16,0-.43,1.6-.94,2.93-.94a5.56,5.56,0,0,1,2.69.77A1.6,1.6,0,0,1,302.85,4a7.11,7.11,0,0,1-.39,1.89,30.86,30.86,0,0,0-1.11,7.23c0,1.27.39,2.18,1,2.18a11.44,11.44,0,0,0,3.27-1.85,1.14,1.14,0,0,1,.85-.39c.94,0,2.14.81,2.14,1.43s-.49.81-1.65,1.17a33.38,33.38,0,0,1-4,.81,7.31,7.31,0,0,0-2.76,1.1c-2.4,1.4-3.63,3.21-3.63,5.36,0,2.3,1.88,3.44,5.65,3.44a22.07,22.07,0,0,0,6.72-1.2,1.81,1.81,0,0,1,.77-.23,2.15,2.15,0,0,1,1.85,1.78.87.87,0,0,1-.58.75,21.59,21.59,0,0,1-6.88.91,17.4,17.4,0,0,1-6.23-.91,4.76,4.76,0,0,1-3.22-4.32c0-2.5,2.41-5.19,6-6.81Z"/><path d="M337.28,15h-2.14v1.33c0,.35-.58.65-1.3.65-.36,0-.58-.2-.58-.49V3.25l2.27,1.26H337A30,30,0,0,0,337.61,0l2.56.42c.39.07.62.29.62.55a.93.93,0,0,1-.46.69l-.68.48-1.4,2.37h3.12l.78-1.23L344,5a.78.78,0,0,1,.23.52.58.58,0,0,1-.36.49l-.52.29v9.44c0,.59-.62,1-1.46,1-.29,0-.42-.16-.42-.49V15h-2.18v3.73h9.06L350,16.65l2.59,2.14a.64.64,0,0,1,.33.46.34.34,0,0,1-.36.29H340.14a23.65,23.65,0,0,0,13.5,6.23,8.85,8.85,0,0,0-2.5,2.53,26.44,26.44,0,0,1-6.69-3.41A23,23,0,0,1,339.29,20v8.57a.49.49,0,0,1-.09.32,2.55,2.55,0,0,1-1.43.52.47.47,0,0,1-.49-.42V20.67a35.74,35.74,0,0,1-8.89,6,20.11,20.11,0,0,1-4.61,1.78.27.27,0,0,1-.29-.26c0-.16,0-.16,1.91-1.13a37,37,0,0,0,9.93-7.5H330.4c-2.24.06-3.24.06-6,.16L324,18.56c1.56.07,2.92.1,3.47.13,1.43,0,2.4.07,2.92.07h6.88Zm-4.77-3.64-5.26,4.32-.13.62c-.09.42-.35.68-.65.68a.67.67,0,0,1-.35-.13l-2.08-2c2.82-1.23,3.8-1.72,8.21-4.05Zm-7.4-8c3.28.77,5.49,2.62,5.49,4.51a1.28,1.28,0,0,1-1.17,1.42,1.12,1.12,0,0,1-.81-.35c-.23-.23-.23-.23-.88-2A9.55,9.55,0,0,0,325,3.76Zm16.36,6V5.29h-6.33V9.38Zm0,4.87V10.16h-6.33v4.09Zm9.64-9.54a.36.36,0,0,1,.16.29c0,.16-.19.32-.62.42l-1.1.29-4.71,4c-.32.26-.48.36-.65.36s-.26-.1-.26-.29.13-.36,1.43-2c.88-1.2,1.72-2.36,3.44-4.93Zm-6.79,5.9a13.12,13.12,0,0,1,5.07,1.53c1.36.78,2.07,1.69,2.07,2.59a1.19,1.19,0,0,1-1.13,1.21c-.42,0-.52-.1-2.21-2a13,13,0,0,0-3.86-2.72Z"/><path d="M385.93,20.84a6.91,6.91,0,0,1-1.85,3,11.57,11.57,0,0,1-8.89,4.29,7.13,7.13,0,0,1-5.42-2.05c-1.36-1.46-1.95-3.37-1.95-6.32,0-1.95,0-2.37.65-10.84.2-2.73.2-2.73.2-3.12,0-2.08-.49-2.95-1.59-2.95-.2,0-.29-.07-.29-.17,0-.35.68-.65,1.42-.65,1.66,0,3.25,1.89,3.25,3.9A8.58,8.58,0,0,1,371,8.41a69.43,69.43,0,0,0-1.36,11.13c0,4.54,1.78,6.59,5.84,6.59a12,12,0,0,0,7.11-2.63,12.8,12.8,0,0,0,2.76-2.63c.13-.23.26-.33.39-.33S385.93,20.67,385.93,20.84Z"/><path d="M404,5.58c0-2.14-.32-2.66-1.65-2.72-.26,0-.3,0-.3-.13,0-.26,1.27-.85,1.82-.85a5.2,5.2,0,0,1,2.05.68,1.36,1.36,0,0,1,.68,1,3.3,3.3,0,0,1-.23.91,16.07,16.07,0,0,0-.55,2.69c1.46-.55,1.95-.88,2.3-1.49,1,.06,1.95.68,1.95,1.2,0,.29-.16.42-.78.71A22.79,22.79,0,0,1,405.5,9c-.22,1.69-.25,1.91-.48,3.54a1.46,1.46,0,0,1,1.13,1.39,22.23,22.23,0,0,1-1,4.09,22.51,22.51,0,0,0-1.24,5.81c0,1.49,1.14,2.17,3.67,2.17a19.35,19.35,0,0,0,6.23-1.13c1.1-.52,1.53-1.3,1.53-2.86,0-1,0-1.36-.49-6.13-.23-2.14-.33-3.7-.33-4.67,0-2.08.85-3.15,2.47-3.15,3,0,6.72,3.08,6.72,5.51,0,1.08-.88,2.28-1.62,2.28-.13,0-.23-.07-.33-.23-.78-.88-1.52-1.14-3.41-1.1-.26,0-.39-.07-.39-.23s0-.16.3-.2a1.83,1.83,0,0,0,.39-.09c.45-.07.81-.17,1.17-.23,1-.2,1.33-.42,1.33-.91a4.87,4.87,0,0,0-1.3-2.37,4.73,4.73,0,0,0-3-1.65c-.94,0-1.43.84-1.43,2.56a38.71,38.71,0,0,0,.81,7.33c.49,2.21.91,3.15,1.72,3.87a1.68,1.68,0,0,1,.16.74,3.25,3.25,0,0,1-2,2.7,17.09,17.09,0,0,1-7.65,1.65c-4.16,0-6.14-1.26-6.14-3.93a16,16,0,0,1,.39-2.72,1.71,1.71,0,0,1-1.26.49c-1.27,0-2.08-1.5-2.08-3.77,0-3.08,1.75-5.55,3.92-5.55a3.29,3.29,0,0,1,.49,0c.07-1.46.1-1.68.16-2.89a16,16,0,0,1-4.21.82c-1,0-1.5-.26-1.86-1a5.92,5.92,0,0,1-.48-2.31c0-.16.06-.26.19-.26s.1,0,.16.17a2.24,2.24,0,0,0,2.34,1.75A15.58,15.58,0,0,0,404,7.69a10.82,10.82,0,0,1,0-1.17Zm-2.4,8.83a7.67,7.67,0,0,0-.75,3.38c0,1.26.49,2.14,1.17,2.14s.94-.46,1.14-1.56c.26-1.4.61-3.76.61-4.06,0-.65-.22-1-.65-1.1S402,13.73,401.61,14.41Z"/></g></g></svg>