<svg xmlns="http://www.w3.org/2000/svg" viewBox="0 0 392.26 75.96"><defs><style>.cls-1{isolation:isolate;}.cls-2{fill:#333;}</style></defs><title>itadaki-enjoy-more-title_1</title><g id="Layer_2" data-name="Layer 2"><g id="Layer_1-2" data-name="Layer 1"><g class="cls-1"><g class="cls-1"><path class="cls-2" d="M5.61,16.16l-5.14.15-.4-1.16,5.08.15,1.11-1.66,2.23,2a1.25,1.25,0,0,1,.47.79.65.65,0,0,1-.4.54l-.79.33v8.2a11.74,11.74,0,0,0,6.48,3,46.77,46.77,0,0,0,8.38.51c4.46,0,6.59-.08,11.12-.4a11.79,11.79,0,0,0-2,2.84l-2.45,0c-2.48,0-3.85.07-4.82.07-5.9,0-10.32-.61-12.81-1.8a15.09,15.09,0,0,1-4.93-3.6l-3,3.39-.22.9c-.14.54-.32.75-.65.75a.88.88,0,0,1-.61-.29L0,28.65a40.93,40.93,0,0,0,5.61-3.09ZM2.05,1.08c3.74.94,6.08,3,6.08,5.36,0,1.19-.54,1.91-1.47,1.91-.72,0-1-.36-1.51-2.27a8.05,8.05,0,0,0-3.28-4.5ZM19.65.4l3,.32a.7.7,0,0,1,.65.65.87.87,0,0,1-.58.75l-.82.44V12.63h5.5l2.23-2.55,2.81,2.3a.7.7,0,0,1,.29.51.55.55,0,0,1-.51.61H21.88v2.23A21.62,21.62,0,0,1,29,19.11c1.84,1.37,2.67,2.49,2.67,3.57a1.33,1.33,0,0,1-1.3,1.44c-.5,0-.93-.43-1.65-1.51a20.2,20.2,0,0,0-6.8-6.05V27.18a.73.73,0,0,1-.51.79,5,5,0,0,1-1.29.32c-.29,0-.43-.14-.43-.47V17.57A28.65,28.65,0,0,1,14,23.07a14.73,14.73,0,0,1-3.21,2.13.31.31,0,0,1-.28-.26c0-.17,0-.25,1.33-1.43a32,32,0,0,0,7.45-10H16c-1.26,0-2.49,0-5.8.14l-.43-1.19c3.38.15,4.71.18,6.23.18h3.67ZM11.91,2.81A10.45,10.45,0,0,1,15,5.18a6.65,6.65,0,0,1,1.77,4.11,1.82,1.82,0,0,1-1.55,1.94c-.83,0-1.19-.65-1.37-2.73a9,9,0,0,0-2.26-5.4Zm18.46.9a.74.74,0,0,1,.36.57c0,.4-.36.69-.83.76l-.76.11-4.42,5.79a.77.77,0,0,1-.47.36A.32.32,0,0,1,24,11a16.06,16.06,0,0,1,1.15-2.63c.51-1.15.94-2.3,2.38-6.26Z"/><path class="cls-2" d="M43.94,2.66c.29.94.36,1.12.54,1.8H54.63V0L57.4.22c.64,0,1,.25,1,.61a.82.82,0,0,1-.54.72l-.61.39V4.46h9.39L67.72,3,71.1,5.69a1.28,1.28,0,0,1,.51.93c0,.47-.25.62-1,.62H69.16L65.82,9.4,65.38,9l1.41-3.71H44.62a7,7,0,0,1-.36,3.09c-.5,1.44-1.4,2.27-2.48,2.27a1.37,1.37,0,0,1-1.47-1.37c0-.61,0-.61,1.51-2.23a5.67,5.67,0,0,0,1.47-3.6V2.74ZM47.5,22.43H52l1-4.86H49.08v1.08c0,.5-.79,1-1.58,1-.5,0-.72-.18-.72-.58V8.57l2.7,1.37H61.61l.9-1.34L65,10.4c.25.18.36.36.36.51s-.14.36-.43.5l-.9.47v6.48c0,.5-.75.9-1.58.9-.43,0-.72-.18-.72-.47V17.57H56.25c.14.21.21.32.21.43a.34.34,0,0,1-.21.36l-.47.21-2.13,3.86h10L64.56,21l2.55,1.87a.82.82,0,0,1,.4.61.89.89,0,0,1-.54.72l-.54.22V31.6c0,.44-.83.83-1.69.83-.51,0-.8-.25-.8-.72V30.49H47.36v1.4c0,.51-.83,1-1.62,1-.43,0-.86-.26-.86-.54V20.81ZM64,29.62V23.29H47.36v6.33ZM61.68,16.7V10.8H49.08v5.9Z"/><path class="cls-2" d="M84.57,20.59c-.32,0-1.08,0-2.2.07-.32,0-1.22,0-2.26,0l-.43-1.15,4.82.18h2.3V14.61l2.7.22c.5,0,.83.32.83.68a1,1,0,0,1-.54.76l-.83.4v3.06H90.4l1.65-2.2,2.41,1.91a1.08,1.08,0,0,1,.44.72.47.47,0,0,1-.44.43H89v2.2a12.5,12.5,0,0,1,3.56,1.33,3.22,3.22,0,0,1,1.84,2.62,1.2,1.2,0,0,1-2,1A12.49,12.49,0,0,1,91.26,26,5.9,5.9,0,0,0,89,23.79v8.07c0,.54-.79,1-1.73,1-.32,0-.43-.18-.43-.57V23.9a31,31,0,0,1-4.64,4.93,8,8,0,0,1-2.77,1.84.36.36,0,0,1-.36-.36c0-.18.18-.4.86-.94a28.84,28.84,0,0,0,6.3-8.78ZM88.6,6c-.22,0-1.51,0-3.42.1-.43,0-1.73,0-3.13.08L81.51,4.9C83.17,5,84.5,5,85,5c1.76.08,2.95.11,3.56.11h5.94V.47l2.59.11c.5,0,.75.21.75.61a.86.86,0,0,1-.29.65l-.86.68V5.11h8.64l1.94-2.27,2.55,2a1.06,1.06,0,0,1,.47.68c0,.29-.18.44-.57.44H97.34c3.74,3.52,7.88,5.47,14.07,6.55A7,7,0,0,0,109,15.3c-5.61-2.23-9.31-4.9-12.23-8.82v9.07c0,.5-.72.9-1.69.9-.36,0-.5-.18-.5-.54V7.42a44.45,44.45,0,0,1-9.21,6.22,27.32,27.32,0,0,1-4.68,2.16.3.3,0,0,1-.29-.29c0-.18.36-.43,2.7-1.76A35.06,35.06,0,0,0,92.52,6Zm8,14.72-.36-1.12c3.6.15,3.78.15,4.82.15h1V14.9l3,.18c.32,0,.61.29.61.51a.9.9,0,0,1-.47.68l-1,.58v2.88h3.06l1.91-2.2,2.55,1.94a.88.88,0,0,1,.4.65.44.44,0,0,1-.47.47h-7.38c1.16,2.84,4.29,5.61,8.6,7.52a6,6,0,0,0-2.44,2.27,19.32,19.32,0,0,1-6.23-7.92V32q0,.75-1.62.75c-.32,0-.46-.14-.46-.5V23.4a49.32,49.32,0,0,1-5.51,5.4c-2,1.65-3.38,2.62-3.74,2.62a.35.35,0,0,1-.29-.32c0-.14,0-.14,1.19-1.15a50.22,50.22,0,0,0,7.7-9.36Z"/><path class="cls-2" d="M123.76,2.77H132l1-1.47,2,1.76c.32.25.43.4.43.54a.49.49,0,0,1-.36.43l-.47.18v4.9c0,.46-1,1-1.76,1-.29,0-.4-.14-.4-.54V9h-8.78v5.51h2V10.29l2.34.29c.54.07.82.25.82.54a.73.73,0,0,1-.36.58l-.75.47v2.3h2.7V10.29l2.26.29c.43,0,.65.22.65.47s-.14.43-.47.65l-.46.32v2.45H133l1.58-1.69,2,1.51c1-2.12,1.33-4.14,1.33-8.6,0-1,0-2.38-.11-4.25l2.63,1.26h2.66l1-1.51,2.24,1.87c.21.18.32.32.32.5s-.11.4-.43.54l-.47.29v7c0,.65.18.76,1.08.76,1.94,0,1.94,0,2.3-1.22l1.15-4,.47.07v3.78c0,.64,0,.64.5,1.08s.62.61.62.86a1.34,1.34,0,0,1-.65,1c-.65.36-2,.54-4.39.54s-3.35-.43-3.35-1.51V3.56h-3.38v3c0,3.38-.36,5.29-1.4,7.16a9,9,0,0,1-3.1,3.35,1.56,1.56,0,0,1-.61.25.23.23,0,0,1-.21-.22,1.1,1.1,0,0,1,.28-.54,4.41,4.41,0,0,0,.51-.57c.07-.08.21-.33.39-.62H132.4V20.7h.82l1.62-1.95,2.52,1.95a.56.56,0,0,1,.25.47.39.39,0,0,1-.36.39H123.08A22.31,22.31,0,0,1,120,29.12c-.76,1.19-1.3,1.8-1.58,1.8a.25.25,0,0,1-.26-.22.88.88,0,0,1,.15-.43,29.55,29.55,0,0,0,1.94-5.18,42,42,0,0,0,1.15-11c0-4.06,0-7.52-.18-12.74Zm5,21.78a1,1,0,0,1,.54.76c0,.28-.26.5-.65.61l-1,.18a24.18,24.18,0,0,1-5.26,4.39,7.28,7.28,0,0,1-2.37,1.11c-.14,0-.22-.07-.22-.18s.15-.28.76-.86a24.55,24.55,0,0,0,5.9-7.52Zm-3.13-3.85V15.33h-2a39.56,39.56,0,0,1-.47,5.37Zm6.76-12.6V3.64h-8.78V8.1Zm-2,12.6V15.33h-2.7V20.7Zm0,2.19c2.84.58,5.29,2.63,5.29,4.47a1.27,1.27,0,0,1-1.19,1.4c-.61,0-.61,0-1.55-2a7.48,7.48,0,0,0-2.7-3.38Zm5.68-4.78L135.81,17c1,0,1.87,0,2.2.07l2.62.07h5l1.11-1.58,2.2,2.2a.86.86,0,0,1,.32.57c0,.18-.22.36-.54.43l-.68.15a25.82,25.82,0,0,1-4,6.55,23.74,23.74,0,0,0,8,3.89,10.35,10.35,0,0,0-2.69,2.44,22.48,22.48,0,0,1-6.88-4.6,19.31,19.31,0,0,1-6.65,3.67A24.19,24.19,0,0,1,131,32.18c-.26,0-.36-.11-.36-.25s.14-.33.54-.43c4.85-1.62,7.44-3.1,10-5.8a22.36,22.36,0,0,1-3.2-7.63Zm2.81-.11a15.32,15.32,0,0,0,3.38,6.08A24.33,24.33,0,0,0,145.64,18Z"/><path class="cls-2" d="M170,29c3.56,0,4.32-.54,4.32-3V8.53c0-2.27-.61-2.66-4.32-2.73V4.61h11.69V5.8c-3.48,0-4.28.5-4.28,2.73V26c0,2.55.76,3.06,4.28,3v1.23H170Z"/><path class="cls-2" d="M188.83,4.64h20.79l2.23,6-1,.47c-2.16-2.63-2.52-2.95-3.53-3.71a6.83,6.83,0,0,0-4-1.51c-1.73,0-2.59,1.22-2.59,3.63V26.24c0,2.45.36,2.66,4.57,2.81v1.19H193.11V29.05c3.95-.11,4.42-.4,4.49-2.81V9.5c0-2.55-.75-3.56-2.73-3.56a6.69,6.69,0,0,0-4.46,1.94,33.09,33.09,0,0,0-3.1,3.28l-.89-.54Z"/><path class="cls-2" d="M216.36,28.94c2.12-.07,3.56-1.19,4.46-3.38l8.24-21,2.48-.87,8.74,22.46c.8,2,1.69,2.7,3.78,2.81v1.3H234.2v-1.3c2.23,0,2.88-.32,2.88-1.48a4.55,4.55,0,0,0-.32-1.51l-1.95-5.14H224l-1.72,4.57a3.29,3.29,0,0,0-.25,1.29c0,1.73.68,2.2,3.2,2.27v1.3h-8.85Zm18-9.36-4.72-13-5.14,13Z"/><path class="cls-2" d="M248.92,29.08c3.42-.14,4-.61,4-3.24V8.53c0-2.09-.94-2.73-4-2.73V4.61h11.7c4.53,0,7.95.93,10.32,2.84a12.62,12.62,0,0,1,4.43,10c0,7.82-5.72,12.75-14.75,12.75h-11.7ZM256.16,26c0,2.52.68,3.1,3.74,3.1,7.27,0,11.4-4.36,11.4-11.95,0-7.42-4-11.34-11.65-11.34-2.63,0-3.49.65-3.49,2.63Z"/><path class="cls-2" d="M281.13,28.94c2.13-.07,3.57-1.19,4.46-3.38l8.24-21,2.49-.87,8.74,22.46c.79,2,1.69,2.7,3.78,2.81v1.3H299v-1.3c2.23,0,2.88-.32,2.88-1.48a4.35,4.35,0,0,0-.33-1.51l-1.94-5.14H288.76L287,25.38a3.29,3.29,0,0,0-.25,1.29c0,1.73.69,2.2,3.2,2.27v1.3h-8.85Zm18-9.36-4.71-13-5.15,13Z"/><path class="cls-2" d="M313.7,29.05h.65c2.52,0,3.38-.69,3.42-2.67v-18c0-2.16-.58-2.56-4-2.67V4.61H325V5.72c-3.31,0-4,.47-4,2.67V18l10.25-9.64a2.28,2.28,0,0,0,.87-1.59c0-.79-.51-1-2.59-1.08V4.61h10V5.72a8.38,8.38,0,0,0-6.29,2.59L327,14l9.32,12.63c1.12,1.66,2.49,2.34,4.82,2.45v1.12H330.32V29.05h0c1.76,0,2.37-.29,2.37-1.15a2.18,2.18,0,0,0-.5-1.3l-7.48-10.47L321,19.69V26.1c0,2.44.75,2.95,4,2.95v1.19H313.7Z"/><path class="cls-2" d="M346.38,29c3.56,0,4.32-.54,4.32-3V8.53c0-2.27-.62-2.66-4.32-2.73V4.61h11.69V5.8c-3.49,0-4.28.5-4.28,2.73V26c0,2.55.76,3.06,4.28,3v1.23H346.38Z"/><path class="cls-2" d="M382.36,12.27a8.3,8.3,0,0,1,5.36-2.3c2.56,0,4.54,1.51,4.54,3.46a2.12,2.12,0,0,1-.94,1.9c-.76.58-1,.65-4.32,2a62.84,62.84,0,0,0-7.7,3.5c.11,1.58.18,2.73.18,3.31,0,1.8-.36,2.26-1.8,2.26-.43,0-.64-.14-.64-.36a1,1,0,0,1,0-.28,27.2,27.2,0,0,0,.18-3.89c-3.09,1.84-4.35,3.27-4.35,4.89,0,1.8,1.69,2.52,5.9,2.52a20.78,20.78,0,0,0,5.29-.64,2.75,2.75,0,0,1,.93-.18,1.92,1.92,0,0,1,1.73,1.47c0,1.19-2.37,1.8-7.27,1.8a11.84,11.84,0,0,1-5.86-1.08A4.28,4.28,0,0,1,371.13,27,4.55,4.55,0,0,1,373,23.58a25.45,25.45,0,0,1,4.25-2.77,14,14,0,0,0-.47-4.54A1.87,1.87,0,0,0,375.06,15a4.21,4.21,0,0,0-2.56,1.33,21.74,21.74,0,0,0-3.09,3.85c-.4.69-.79,1-1.19,1S367,20,367,19.08c0-.47.15-.72.87-1.26,3.88-3.39,6.25-6.88,6.94-10.22a11.25,11.25,0,0,1-3.13.61,2.24,2.24,0,0,1-1.87-1.3,4.58,4.58,0,0,1-.54-1.37.15.15,0,0,1,.14-.14s.11,0,.18.14a2.27,2.27,0,0,0,2.12.94A9.58,9.58,0,0,0,375,5.9a6.15,6.15,0,0,0,.11-1A1.71,1.71,0,0,0,373.37,3c-.15,0-.18,0-.18-.14,0-.33,1.22-.9,1.9-.9A2.48,2.48,0,0,1,377.47,4a5.49,5.49,0,0,1-.29,1.37,5.25,5.25,0,0,0,2.3-1.22c1.23.61,1.59.86,1.59,1.15s-.8.75-4.21,1.76a41.42,41.42,0,0,1-4.11,7.67,5.64,5.64,0,0,1,2.38-.65,3.63,3.63,0,0,1,2.3.83,5.13,5.13,0,0,1,1.33,2.55A14.67,14.67,0,0,1,382.36,12.27ZM383.91,17a36.63,36.63,0,0,0,4.6-2.7,2,2,0,0,0,.72-1.26,2.17,2.17,0,0,0-2.19-1.8c-1.87,0-4.32,1.7-5.72,4a18.42,18.42,0,0,0-2.13,4.43C380.63,18.75,380.89,18.61,383.91,17Z"/><path class="cls-2" d="M89.59,60.05H87.21v1.47c0,.4-.65.72-1.44.72-.39,0-.65-.21-.65-.54V47l2.52,1.4h1.62a31.57,31.57,0,0,0,.69-5l2.84.47c.43.07.68.32.68.61a1,1,0,0,1-.5.76l-.76.54-1.54,2.62h3.45L95,47,97,49a.84.84,0,0,1,.26.58.67.67,0,0,1-.4.54l-.58.32V60.87c0,.65-.68,1.12-1.61,1.12-.33,0-.47-.18-.47-.54v-1.4H91.82v4.14h10l1.87-2.34,2.87,2.37c.26.18.36.36.36.51a.36.36,0,0,1-.39.32H92.75c3.53,3.56,8.85,6,15,6.91A9.87,9.87,0,0,0,105,74.77,29.34,29.34,0,0,1,97.54,71a25.29,25.29,0,0,1-5.72-5.47V75a.55.55,0,0,1-.11.36,2.8,2.8,0,0,1-1.58.58.52.52,0,0,1-.54-.47V66.31a39.69,39.69,0,0,1-9.86,6.62,22.4,22.4,0,0,1-5.11,2,.3.3,0,0,1-.33-.29c0-.18,0-.18,2.13-1.26a41,41,0,0,0,11-8.31H82c-2.48.07-3.6.07-6.62.18L74.87,64l3.85.14c1.58,0,2.66.08,3.24.08h7.63ZM84.3,56,78.47,60.8l-.15.69c-.1.46-.39.75-.72.75a.77.77,0,0,1-.39-.14l-2.3-2.27c3.13-1.37,4.21-1.91,9.1-4.5Zm-8.21-8.89c3.64.87,6.08,2.92,6.08,5a1.42,1.42,0,0,1-1.29,1.58,1.21,1.21,0,0,1-.9-.4c-.25-.25-.25-.25-1-2.23A10.69,10.69,0,0,0,76,47.56Zm18.14,6.66V49.25h-7v4.53Zm0,5.4V54.65h-7v4.53ZM104.91,48.6a.43.43,0,0,1,.18.32c0,.18-.21.36-.68.47l-1.22.33L98,54.11c-.36.29-.54.39-.72.39s-.29-.1-.29-.32.15-.4,1.59-2.23c1-1.33,1.9-2.63,3.81-5.47Zm-7.52,6.55c2.92.47,4.21.86,5.62,1.69s2.3,1.87,2.3,2.88a1.32,1.32,0,0,1-1.26,1.33c-.47,0-.58-.1-2.45-2.26a14.46,14.46,0,0,0-4.28-3Z"/><path class="cls-2" d="M139.57,66.49c0,.61-.83,1.94-2,3.35-2.84,3.16-6.08,4.75-9.86,4.75a7.94,7.94,0,0,1-6-2.27c-1.51-1.62-2.16-3.74-2.16-7,0-2.16,0-2.63.72-12,.22-3,.22-3,.22-3.46,0-2.3-.54-3.27-1.76-3.27-.22,0-.33-.07-.33-.18,0-.4.76-.72,1.59-.72,1.83,0,3.59,2.09,3.59,4.32A9.55,9.55,0,0,1,123,52.7a78.1,78.1,0,0,0-1.51,12.35c0,5,2,7.31,6.48,7.31a13.27,13.27,0,0,0,7.88-2.92,14.17,14.17,0,0,0,3.06-2.91c.14-.26.28-.36.43-.36A.29.29,0,0,1,139.57,66.49Z"/><path class="cls-2" d="M158.54,49.57c0-2.37-.36-3-1.84-3-.28,0-.32,0-.32-.15,0-.28,1.4-.93,2-.93a5.67,5.67,0,0,1,2.26.75,1.5,1.5,0,0,1,.76,1.08,4.05,4.05,0,0,1-.25,1,18.76,18.76,0,0,0-.62,3c1.62-.61,2.16-1,2.56-1.66,1.11.08,2.16.76,2.16,1.34,0,.32-.18.46-.87.79a24.64,24.64,0,0,1-4.21,1.54c-.25,1.88-.28,2.13-.54,3.93a1.63,1.63,0,0,1,1.26,1.55,23.7,23.7,0,0,1-1.15,4.53c-1,3.46-1.36,5.11-1.36,6.45,0,1.65,1.25,2.41,4.06,2.41a21.52,21.52,0,0,0,6.91-1.26c1.22-.58,1.69-1.44,1.69-3.17,0-1.08,0-1.51-.54-6.8-.25-2.38-.36-4.11-.36-5.19,0-2.3.94-3.49,2.74-3.49,3.27,0,7.44,3.42,7.44,6.12,0,1.19-1,2.52-1.8,2.52-.14,0-.25-.07-.36-.25-.86-1-1.69-1.26-3.77-1.23-.29,0-.43-.07-.43-.25s0-.18.32-.21a2,2,0,0,0,.43-.11c.5-.07.9-.18,1.3-.25,1.11-.22,1.47-.47,1.47-1A5.31,5.31,0,0,0,176.06,55a5.21,5.21,0,0,0-3.34-1.83c-1.05,0-1.59.93-1.59,2.84a43,43,0,0,0,.9,8.13c.54,2.45,1,3.5,1.91,4.29a2,2,0,0,1,.18.83c0,1.15-.76,2.15-2.2,3a18.79,18.79,0,0,1-8.49,1.84c-4.6,0-6.8-1.41-6.8-4.36a18.53,18.53,0,0,1,.43-3,1.88,1.88,0,0,1-1.4.54c-1.4,0-2.3-1.66-2.3-4.18,0-3.42,1.94-6.15,4.35-6.15a3.92,3.92,0,0,1,.54,0c.07-1.62.11-1.87.18-3.2a17.84,17.84,0,0,1-4.68.9c-1.15,0-1.65-.29-2.05-1.15a6.57,6.57,0,0,1-.54-2.56c0-.18.08-.28.22-.28s.11,0,.18.18a2.48,2.48,0,0,0,2.59,1.94,17.32,17.32,0,0,0,4.35-.83,9.78,9.78,0,0,1,0-1.29Zm-2.66,9.79a8.37,8.37,0,0,0-.83,3.75c0,1.4.54,2.37,1.29,2.37s1-.5,1.26-1.73c.29-1.54.69-4.17.69-4.5,0-.72-.25-1.15-.72-1.22S156.27,58.61,155.88,59.36Z"/><path class="cls-2" d="M197.77,61a11.42,11.42,0,0,1-.8,4.35c-.86,2.09-2.87,3.78-4.49,3.78a1.87,1.87,0,0,1-1.55-1.58c0-.54.18-.68,1.37-1.22a8.87,8.87,0,0,0,4.85-5.44c0-.18.11-.22.26-.22S197.77,60.8,197.77,61Zm7.37-4.57c0,.72,0,2.37,0,5l.07,4c0,1.26,0,2.52.07,2.7,0,.68,0,1.29,0,1.65a3.45,3.45,0,0,1-1.26,2.84,3.34,3.34,0,0,1-2,1c-.36,0-.51-.22-.54-.8-.11-1.62-.65-2.52-2.41-4-.15-.14-.22-.22-.22-.32a.43.43,0,0,1,.36-.33c.14,0,.36.11.86.43,1.34.87,1.66,1,2.06,1,.86,0,.86,0,.9-7.31,0-3.24.07-4.86.07-4.86v-1a32.47,32.47,0,0,0-7.56,1.59,3,3,0,0,1-1,.25,4.06,4.06,0,0,1-1.62-.65,2.83,2.83,0,0,1-1.47-2.45c0-.21.07-.32.22-.32a.43.43,0,0,1,.28.21c.51.65,1.33.87,3.1.87a76.86,76.86,0,0,0,8-.69c0-5.47-.21-5.86-2.27-6.11-.21,0-.32-.08-.32-.15,0-.36,1.33-1.08,2-1.08A4.58,4.58,0,0,1,205.18,49c.57.47.9.83.9,1a.9.9,0,0,1-.11.36c-.47.75-.58,1.36-.76,4.57,4.07-.33,6.26-.72,7.45-1.3.72-.4.72-.4,1-.4.51,0,1,.26,2.2,1,.83.54,1.08.83,1.08,1.22a.94.94,0,0,1-.87.87,5.23,5.23,0,0,1-.64-.08,35.85,35.85,0,0,0-5.29-.39c-1.51,0-3.6.14-5,.29Zm6.69,4.86c3,1.8,4.79,3.92,4.79,5.76a1.81,1.81,0,0,1-1.69,2c-.68,0-.9-.25-1.3-1.76-.68-2.73-3.23-5.87-5.5-6.69-.18-.08-.25-.15-.25-.26s.18-.28.39-.28A8.46,8.46,0,0,1,211.83,61.31ZM218,47.74a3.53,3.53,0,1,1-3.49-3.53A3.53,3.53,0,0,1,218,47.74Zm-5.83,0a2.31,2.31,0,1,0,2.27-2.31A2.32,2.32,0,0,0,212.19,47.74Z"/><path class="cls-2" d="M242.75,57c1.83.82,1.83.82,1.83,1.18a1.18,1.18,0,0,1-.14.51,7.89,7.89,0,0,0-.32,2.88l.07,3.67v4.1l0,2.49c0,.46,0,.9,0,1.18,0,.94-.32,1.48-.86,1.48-1.08,0-2.34-.94-2.34-1.76a2.61,2.61,0,0,1,.11-.69A115.87,115.87,0,0,0,242,59.58a3.73,3.73,0,0,0-.43-2.13,45.91,45.91,0,0,1-9.36,7.42,15.91,15.91,0,0,1-4,1.69c-.14,0-.36-.14-.36-.29s.07-.18.36-.28c5.68-2.6,16.8-14,16.8-17.14,0-.36-.68-1-1.18-1.11-.33-.08-.4-.15-.4-.29s.75-.51,1.47-.51c1.34,0,4.07,2,4.07,2.92,0,.25-.11.36-.43.54a2.66,2.66,0,0,0-1.3,1.08,58.36,58.36,0,0,1-5,5.29Z"/><path class="cls-2" d="M271.47,54.83a1.5,1.5,0,0,1-1.66,1.54c-.46,0-.72-.18-1.08-.82a7.89,7.89,0,0,0-5.54-4.43c-.21-.07-.32-.14-.32-.25s.65-.43,1.69-.43C268,50.44,271.47,52.63,271.47,54.83Zm-4.68,16a5.37,5.37,0,0,1-2.59-1.87,2.67,2.67,0,0,1-.9-2.27c0-.68.18-1.22.43-1.22s.22.07.29.25a2.54,2.54,0,0,0,2.16,1.83c1.47,0,5.83-2.7,11.05-6.84a69.86,69.86,0,0,0,6.72-6c.72-.72,2.67-3,3-3.38s.43-.58.61-.58a.3.3,0,0,1,.29.33c0,.57-1.59,3-3.39,5.22a55.77,55.77,0,0,1-7.7,7.77,54.4,54.4,0,0,1-8.56,5.9C267.55,70.56,267.15,70.81,266.79,70.81Z"/><path class="cls-2" d="M306.05,57.81c0,6.45.11,9.87.29,12.28.07.75.11,1.29.11,1.62,0,1.51-.54,2.63-1.3,2.63s-1.9-1.62-1.9-2.52a5,5,0,0,1,.1-.94c.29-2,.58-10,.58-17.17,0-3.38-.14-4.61-.58-5.33a1.8,1.8,0,0,0-1.72-.9c-.25,0-.36-.1-.36-.32s.11-.25.32-.36a10.38,10.38,0,0,1,2.2-.58c.54,0,1,.26,2.62,1.26.47.33.69.58.69.83a2.2,2.2,0,0,1-.18.69c-.58,1-.8,2.66-.87,6.69A15.34,15.34,0,0,1,313.61,58c1.94,1.33,2.84,2.48,2.84,3.64a1.47,1.47,0,0,1-1.51,1.58c-.79,0-1.19-.32-2.09-1.69a12.88,12.88,0,0,0-6.8-5.29Z"/></g></g></g></g></svg>