<svg xmlns="http://www.w3.org/2000/svg" viewBox="0 0 392.31 49.63"><defs><style>.cls-1{fill:#333;}</style></defs><title>lab-aquarion-title</title><g id="Layer_2" data-name="Layer 2"><g id="Layer_1-2" data-name="Layer 1"><path class="cls-1" d="M7.94,17.06c-1.73,0-3.19.06-6.75.17L.7,15.55c1.41.06,2.65.06,3.08.11,2.27.05,3.78.11,4.16.11h7l1.78-2.38,3.51,3.94a1.17,1.17,0,0,1,.32.81.84.84,0,0,1-.81.87l-1,.11c-3,7.77-5.24,12-8.91,16.57a39.33,39.33,0,0,1-6.64,6.7A7.9,7.9,0,0,1,.43,44,.52.52,0,0,1,0,43.58c0-.22.54-.87,1.73-1.95C8.21,34.83,11.61,28.46,15,17.06Zm8,26.41,5.35.05c1.13-.1,1.29-.21,1.24-1.08V1.08L27,1.57c.81.05,1.35.48,1.35,1.08a1.59,1.59,0,0,1-1,1.29l-1.08.54v7.4a40.83,40.83,0,0,0,4.81,11.18L41.9,10.91l3.46,3.67a1,1,0,0,1,.27.65,1.2,1.2,0,0,1-1.4,1.08l-.17-.06L43,16.2,31.86,24.3C35.37,30,41.36,34.78,49.14,38c-2.81,1.78-3.4,2.32-4.81,4.15C35.48,36.45,29.38,28,26.24,17.33V44.06A3.44,3.44,0,0,1,24.73,47a4,4,0,0,1-2.43,1.19c-.59,0-.65-.16-1-1.89-.06-.16-.27-.33-.71-.49l-4.75-1.4Z"/><path class="cls-1" d="M79.65,29.43H74.09c-.49,0-2,.05-4.43.11-.59.05-2.16.05-4,.11l-.86-1.79,9.34.27h5.56v-13H68.09C65,20.57,63,23.22,59.51,26.3c-.6.54-.87.7-1.14.7s-.21-.11-.21-.27.11-.49.65-1.19c3.83-5.07,7.5-14.15,9-22.41l4.54,1.73c.86.38,1.35.76,1.35,1.24a1.6,1.6,0,0,1-1.24,1.3l-.87.16a64.23,64.23,0,0,1-2.8,6.32H79.65V.54l4.91.54c1,.11,1.36.38,1.36,1,0,.37-.33.81-.92,1.18l-1.25.81v9.78H94.66l3.46-3.73,4.27,3c.64.43.91.76.91,1.19s-.32.81-1,.81H83.75v13h6.48l3.25-3.4,4,2.86a1.43,1.43,0,0,1,.76,1.08c0,.49-.43.76-1.08.76H83.75V43.52H97l3.78-4.1,4.32,3a2.16,2.16,0,0,1,.92,1.41,1,1,0,0,1-.81,1H67.72c-4.27.16-7.51.22-9.67.27l-1-1.84c2.59,0,6.1.11,10.64.27H79.65Z"/><path class="cls-1" d="M136.89,29.43h-5.56c-.49,0-2.05.05-4.43.11-.59.05-2.16.05-4.05.11L122,27.86l9.34.27h5.56v-13H125.33c-3.07,5.45-5.13,8.1-8.58,11.18-.6.54-.87.7-1.14.7s-.21-.11-.21-.27.11-.49.65-1.19c3.83-5.07,7.5-14.15,9-22.41l4.54,1.73c.86.38,1.35.76,1.35,1.24a1.6,1.6,0,0,1-1.24,1.3l-.87.16a64.23,64.23,0,0,1-2.8,6.32h10.85V.54l4.91.54c1,.11,1.35.38,1.35,1,0,.37-.32.81-.91,1.18L141,4.1v9.78H151.9l3.46-3.73,4.26,3c.65.43.92.76.92,1.19s-.32.81-1,.81H141v13h6.48l3.24-3.4,4,2.86a1.43,1.43,0,0,1,.76,1.08c0,.49-.43.76-1.08.76H141V43.52h13.29l3.78-4.1,4.32,3a2.16,2.16,0,0,1,.92,1.41,1,1,0,0,1-.81,1H125c-4.27.16-7.51.22-9.67.27l-1-1.84c2.59,0,6.1.11,10.64.27h11.93Z"/><path class="cls-1" d="M177.55,13.66c-1,3.73-4.59,10.86-5.51,10.86a.5.5,0,0,1-.48-.54,4.66,4.66,0,0,1,.48-1.46c2-4.27,3.08-10.86,3.24-18.25l4.22,1.18c.54.17.86.49.86.81a1.66,1.66,0,0,1-.76,1.19l-.54.38-1,4.54h4.05V.22l4.26.54c.71.05,1.19.43,1.19,1a1.5,1.5,0,0,1-.86,1.13l-1.3.7v8.81h1.89l2.43-3,3.57,3a.92.92,0,0,1,.37.65c0,.27-.32.7-.48.7h-7.78V24.84c4.54-1.89,6.37-2.75,10.69-4.81l.17.92c-4.49,2.92-6.27,4.05-10.86,6.64V46.82a1.3,1.3,0,0,1-1,1.4,4.6,4.6,0,0,1-1.73.49c-.32,0-.59-.32-.59-.81V29.43a48.08,48.08,0,0,1-5.73,2.92l-.43,1.4c-.16.59-.38.81-.86.81-.27,0-.43-.11-.81-.54l-3.13-3.56c5.34-1.89,6.15-2.22,11-4.16V13.66Zm19.23,0a51,51,0,0,1-4.76,6,10.38,10.38,0,0,1-3,2.37.41.41,0,0,1-.37-.43c0-.27.1-.38,1.24-1.73,3.08-3.45,7.56-14,8.42-19.87l5,2.05a1.11,1.11,0,0,1,.71,1,1.17,1.17,0,0,1-.76,1l-1.67.54a72,72,0,0,1-4.22,7.78H214l1.73-2.43,3.83,2.91a2,2,0,0,1,.76,1.19,1.15,1.15,0,0,1-.76.92l-1.24.48c-.43,16.8-1,22.14-3.07,26.52a9.35,9.35,0,0,1-3.79,4.1,11.65,11.65,0,0,1-3.23,1.08c-.27,0-.49-.32-.54-.86a7.48,7.48,0,0,0-.22-1.46c-.05-.22-.49-.54-1-.81l-4.7-2.32.27-1,4,.86a14.75,14.75,0,0,0,2.54.27c3.08,0,4.16-1.78,5.07-8.26.55-4.27.76-7.45,1.19-19.93h-2.1C208.44,25.11,205.09,31.21,199.8,37c-3.51,3.83-7,6.91-7.78,6.91a.46.46,0,0,1-.43-.43c0-.32.11-.49,1.41-1.67,7-7.13,12.69-17.28,15.77-28.14h-4c-4.48,10-7.18,14.42-11.93,19.55-2.22,2.43-3.84,3.83-4.32,3.83a.36.36,0,0,1-.33-.37c0-.22.17-.44.44-.81,6.26-7.4,9.93-14.1,12.09-22.2Z"/><path class="cls-1" d="M234.14,25.43c-1.89,3.46-5.07,7.78-5.72,7.78a.58.58,0,0,1-.54-.49c0-.21.11-.43.49-1.13,4.8-8.37,6.69-14.42,7.88-25.33-3.4,0-3.89.06-7.13.17l-.86-1.68c3.83.16,5.07.22,7.83.22H242l3.19-3.4,2.92,2.16h22.35l3-3.24,4.05,3.18a.85.85,0,0,1,.38.7c0,.33-.16.6-.38.6h-7.72V24h1.46l3.13-3.41,3.78,3.08a1.38,1.38,0,0,1,.59,1,.68.68,0,0,1-.75.65h-8.21V47c0,.82-1.46,1.62-2.92,1.62-.54,0-.81-.21-.81-.64V25.27h-6.91c-.27,9.18-1.56,14-4.75,17.61-2.16,2.48-7.18,5.94-8.53,5.94a.49.49,0,0,1-.49-.49c0-.22,0-.22,2.22-1.84a25.85,25.85,0,0,0,5-5.61c1.84-2.81,2.92-7.89,2.92-14V25.27c-3.35.06-3.83.06-6.91.16l-.7-1.67c3.56.16,4.05.16,7.66.22V5h-6.15a4,4,0,0,1,.11.7c0,.38-.33.59-.92.59h-8c-1.73,7.73-2.64,10.8-4.05,13.94l1,1h5.34l1.57-2.11L247.43,22a1.2,1.2,0,0,1,.43.86c0,.22-.11.38-.43.49l-.76.32V41.8c0,.59-.21.86-1,1.35a3.28,3.28,0,0,1-1.51.54c-.54,0-.92-.33-.92-.71V40h-5.83v5.39c0,.82-1.41,1.84-2.54,1.84-.49,0-.76-.22-.76-.59Zm9.08,13.29V22.46h-5.78V38.72ZM266,24V5h-6.8V24Z"/><path class="cls-1" d="M292.36,4.64a9.45,9.45,0,0,1,.91,2.7h15.18v-7l4.43.38c.75.05,1.18.37,1.18,1a1.45,1.45,0,0,1-.81,1.19l-1.13.64V7.34h14.2l1.62-2.26L333,9.18a1.49,1.49,0,0,1,.59,1.19,1.21,1.21,0,0,1-1.29,1.24h-.38l-1.62-.22-5.67,4-.76-.49,2.7-6.1h-9.12V19.28c0,1,.37,1.13,3.51,1.13a35.41,35.41,0,0,0,5.56-.32c1.29-.27,1.94-1,2.59-2.81L330.64,13l.71.22-.33,5v.54a1.23,1.23,0,0,0,.76,1.14c.7.43.81.54.81,1,0,1.19-1.46,2.16-3.67,2.43a70.87,70.87,0,0,1-7.84.32c-5.77,0-7-.54-7-3V8.8h-7.39c-1.25,5.19-1.68,6.43-3.51,9.56-2.27,4.05-5.46,6.37-11.18,8.26a21.29,21.29,0,0,1-4.59,1.08.44.44,0,0,1-.49-.43c0-.38.11-.43,1.35-.81,9-3,12.64-7.67,13.93-17.66h-8.69c.05.6.11,1.08.11,1.41,0,3.88-1.89,6.91-4.32,6.91a2.06,2.06,0,0,1-2-2.22,3.5,3.5,0,0,1,1.24-2.48c2.48-2.81,3.08-4,3.08-6a13.34,13.34,0,0,0-.06-1.46Zm24.3,25.28,1.4-2.38,3.78,2.86a1,1,0,0,1,.38.65.75.75,0,0,1-.54.65l-1.24.59v9.94c0,1.24.27,1.35,2.91,1.35,6.81,0,7.51-.27,8.37-3.3l1.41-4.91H334l-.32,5.29-.05,1.08c-.06.81.05,1,.81,1.46a1.67,1.67,0,0,1,.86,1.3c0,.75-.86,1.51-2,1.83a64.19,64.19,0,0,1-9.23.54c-4,0-5.35-.16-6.16-.75a2.85,2.85,0,0,1-1.08-2.7v-12H309c-1.51,5.78-2.65,8-5.4,10.64a29.35,29.35,0,0,1-10.69,6.1,25.71,25.71,0,0,1-5.13,1.52c-.33,0-.49-.11-.49-.38s.22-.38.65-.6c11-4.59,15.5-9.12,17.22-17.28h-7.72c-2.64,0-4.1.06-8,.22l-1.35-1.94c5.18.21,7.24.27,9.34.27h7.94a72.88,72.88,0,0,0,.76-9.29l4.75.65c.81.1,1.19.43,1.19,1a1.59,1.59,0,0,1-.87,1.29l-1.13.71c-.38,2.75-.43,3.18-.76,5.67Z"/><path class="cls-1" d="M343.06,45.31c5.67.27,8,.32,10.64.32h11.88v-8.1H358c-2.11,0-4,0-8.59.22L348.62,36c4.81.16,6.7.21,9.35.21h7.61v-7.5c-1.3.16-2.59.27-3.89.38-2.43.16-4.37.32-5.51.43-1.29.11-2.59.21-3.83.27l-.7,1.08c-.33.48-.7.75-1,.75s-.54-.21-.87-.81l-2.59-4.42c2.27.05,4.16.1,5.18.1,1.79,0,1.79,0,6.21-.1a72,72,0,0,0,3.51-9.18h-4.37c-2,0-3.29.05-6.48.16l-.76-1.68c3.62.17,4.81.22,7.24.22h17.17l3-3.46,4.48,3.24a.87.87,0,0,1,.32.76c0,.43-.16.76-.43.76H367.2c-3,4.42-3.4,5.07-6.37,9.18l5.07-.06c7-.11,7.4-.11,13.5-.54a32.52,32.52,0,0,0-7.18-5.24l.43-.75c5.62,1.78,7.94,2.7,9.94,3.94,2.7,1.57,4.75,4.27,4.75,6.16a2,2,0,0,1-1.89,2.1c-.7,0-1-.21-1.56-1a40.05,40.05,0,0,0-3.14-3.89c-5.61.7-6.42.81-11.28,1.24v7.83h10.15l2.7-3,4.16,3a.8.8,0,0,1,.32.65c0,.27-.21.65-.38.65H369.47v8.1h14.47L387.18,42,392,45.52a.8.8,0,0,1,.32.65c0,.38-.27.76-.54.76H353.7c-2.38,0-4.48,0-9.72.27Zm6.48-40.56.16.6c.17.59.33,1.18.49,1.83l.05.11h15.5V.59l4.81.54c.59.06.92.33.92.81A1.38,1.38,0,0,1,370.6,3l-1.08.65V7.29h13.93L385.18,5l5.24,4.27a1.88,1.88,0,0,1,.65,1.35c0,.65-.43,1-1.24,1h-2.7l-5.19,2.92-.38-.44,2.27-5.5H350.46c.05.75.11,1.56.11,1.94,0,3.51-1.89,6.21-4.27,6.21A2,2,0,0,1,344.09,15c0-.76,0-.76,2.7-3.73A8,8,0,0,0,348.41,6V4.75Z"/></g></g></svg>