<svg xmlns="http://www.w3.org/2000/svg" viewBox="0 0 265.14 29.23"><defs><style>.cls-1{fill:#343434;}</style></defs><title>lobby-lounge-title</title><g id="Layer_2" data-name="Layer 2"><g id="Layer_1-2" data-name="Layer 1"><path class="cls-1" d="M3.71,21.74A79.71,79.71,0,0,0,2.27,10.62,2.51,2.51,0,0,0,1.37,9a2.89,2.89,0,0,0-1-.5C.11,8.46,0,8.35,0,8.21S.07,8,.25,8c.61-.11,1.23-.22,1.41-.22A4.06,4.06,0,0,1,4.57,9.5c2.59-.18,6.62-.65,11-1.29a7.72,7.72,0,0,0,2.91-1,2.13,2.13,0,0,1,1-.39c.58,0,3.21,2.55,3.21,3.1,0,.14-.15.32-.47.57-1,.72-1.12.86-1.37,1.55-.36.9-1.29,4.5-2,7.56,1.48,1.08,1.48,1.08,1.48,1.44s-.18.54-.36.54a1.46,1.46,0,0,1-.29-.08A28.86,28.86,0,0,0,16,21.24c-.9,0-3.53.21-6.23.5a12.78,12.78,0,0,0-3.56.58v.9c0,1-.29,1.51-.87,1.51a2,2,0,0,1-1.62-1.66c0-.18,0-.5,0-1Zm11.73-2a3.13,3.13,0,0,0,.83-.14,3.85,3.85,0,0,0,.47-.11c.5-3,.93-5.76,1-7,.11-.76.15-1.22.15-1.33,0-.29.07-.54.07-.72,0-.61-.43-1-1.15-1A109.22,109.22,0,0,0,5,11.09c.25,1.51.93,7.56,1.08,9.53,2.88-.21,3.13-.21,7.38-.71Z"/><path class="cls-1" d="M45.76,20.37a4.78,4.78,0,0,0,1.08,3.21c.61.61,1.72.9,3.56.9a16.93,16.93,0,0,0,7.74-1.41,10.27,10.27,0,0,1,2.41.83c.61.29.83.5.83.94,0,.72-.51,1.18-1.48,1.44a24.21,24.21,0,0,1-5.22.46c-4,0-6.55-.21-7.77-.68-2-.79-3.21-2.88-3.21-5.83l0-2.3,0-3.46c.07-4.28.07-4.28.07-4.68,0-2.7-.47-3.74-1.87-4.21-.18-.07-.26-.14-.26-.22,0-.25,1.19-.68,1.88-.68,1.29,0,3.13,1.4,3.13,2.45,0,.18,0,.43-.07.72-.33,1.54-.4,2.16-.76,8a33.73,33.73,0,0,0,5.58-3c2.19-1.44,3-2.23,3-3.16A1.23,1.23,0,0,0,54,8.71c-.14-.11-.18-.18-.18-.29s.15-.25.36-.25a6.72,6.72,0,0,1,2.77,1c1.34.79,1.91,1.37,1.91,1.91s-.57.86-3.35,2a89.24,89.24,0,0,1-9.61,3.49l0,1,0,1.47ZM61.2,6.23A1.26,1.26,0,0,1,60,7.42a1,1,0,0,1-1-.73,6.79,6.79,0,0,0-3.64-3c-.14-.07-.22-.11-.22-.18s.47-.25,1-.25C58.79,3.28,61.2,4.68,61.2,6.23ZM65,4.39a1.31,1.31,0,0,1-1.22,1.19c-.47,0-.72-.18-1-.76a7,7,0,0,0-3.53-3c-.25-.08-.32-.11-.32-.18s.5-.29,1.19-.29C62.53,1.37,65,2.88,65,4.39Z"/><path class="cls-1" d="M82,17.49a7.35,7.35,0,0,1-1.66.26,4.4,4.4,0,0,1-3.17-1.95,10.78,10.78,0,0,1-.25-2c0-.26.11-.44.29-.44s.18.08.29.26c.47,1,1.33,1.4,3.42,1.4a166.64,166.64,0,0,0,20.8-1.48c.33,0,.69-.07,1-.07a2.43,2.43,0,0,1,1.9.79c.69.65.94,1,.94,1.34,0,.54-.72.86-1.87.86-.29,0-.69,0-1.33,0-.8-.07-3.71-.1-5.22-.1A97.85,97.85,0,0,0,82,17.49Z"/><path class="cls-1" d="M128.05,25.74c-2.63,1.51-5.9,2.73-7.34,2.73-.33,0-.58-.18-.58-.36s.07-.21.29-.25A25.26,25.26,0,0,0,127.87,24a24.63,24.63,0,0,0,7.06-7.81c1.29-2.37,1.87-3.78,1.87-4.5s-.4-.93-1.15-.93a62.56,62.56,0,0,0-6.34.83,47.22,47.22,0,0,0-6.26,1.62,1.47,1.47,0,0,1-.58.14,4.15,4.15,0,0,1-2-1.26,3.61,3.61,0,0,1-.94-2.38c0-.28.11-.46.33-.46s.14,0,.21.25c.22.72,1.59,1.29,3,1.29.58,0,.58,0,4.93-.43,2.92-.32,4.65-.5,5.19-.57a12.26,12.26,0,0,0,4-1.12,2.15,2.15,0,0,1,.65-.18c.68,0,3.27,2.05,3.27,2.59,0,.33-.14.47-1.29,1.33C136.11,19.47,133.27,22.68,128.05,25.74ZM122.76,3.06c.36.54,1.19.79,2.52.79a27.57,27.57,0,0,0,8.46-1.47,2.42,2.42,0,0,1,1.11-.33c.36,0,.69.15,1.77.72.75.4,1,.65,1,1s-.33.58-1.66.72c-1.84.22-1.91.22-4.72.72a35.27,35.27,0,0,1-5.43.65,2.88,2.88,0,0,1-2.74-1.34A6.4,6.4,0,0,1,122.36,3c0-.07.08-.18.15-.18S122.62,2.84,122.76,3.06Z"/><path class="cls-1" d="M171.93,7.63c1.55-.14,2.42-.21,2.6-.25a8,8,0,0,0,2.84-.72c1.08-.47,1.08-.47,1.33-.47s.51.11.9.5c.15.11.47.4,1,.8.76.61,1.12,1,1.12,1.22s0,.25-1.08,1c-4,8.75-7,12.64-12.38,16.13a24.38,24.38,0,0,1-6.63,3.06c-.54.14-1.47.36-1.62.36a.43.43,0,0,1-.43-.36c0-.11.07-.15.25-.22a23.82,23.82,0,0,0,6-2.95,28.58,28.58,0,0,0,11.27-15.26c.14-.5.21-.87.25-.94a3.09,3.09,0,0,0,.11-.65c0-.32-.4-.54-1-.54-1.36,0-7.38.62-9.72,1s-2.95.65-3.2,1.19l.25,1.51.33,2.09.32,2a8.38,8.38,0,0,1,.22,1.58c0,.65-.36.9-1.19.9-1.37,0-1.66-.14-1.66-.9a5.68,5.68,0,0,1,0-.75v-.65a31.62,31.62,0,0,0-.94-6.84,2.36,2.36,0,0,0-1.87-1.87c-.18,0-.29-.14-.29-.29S159.12,7,159.8,7A5.75,5.75,0,0,1,163,8.57c1.19-.18,3.75-.47,6.05-.65,0-5.26,0-5.33-2.12-5.58-.22,0-.33-.07-.33-.22,0-.36,1.51-1,2.34-1a6.1,6.1,0,0,1,2.56.94c.61.36.79.57.79.86a.81.81,0,0,1-.22.54,12.29,12.29,0,0,0-1,4.32Z"/><path class="cls-1" d="M207.4,9.75a1.51,1.51,0,0,1-1.66,1.55c-.47,0-.72-.18-1.08-.83a8,8,0,0,0-5.54-4.42c-.22-.07-.33-.15-.33-.26s.65-.43,1.69-.43C203.94,5.36,207.4,7.56,207.4,9.75Zm-4.68,16a5.35,5.35,0,0,1-2.6-1.88,2.65,2.65,0,0,1-.9-2.26c0-.69.18-1.23.44-1.23s.21.07.28.25a2.55,2.55,0,0,0,2.16,1.84c1.48,0,5.83-2.7,11.05-6.84a71.74,71.74,0,0,0,6.74-6c.71-.72,2.66-2.95,3-3.38s.43-.58.61-.58a.3.3,0,0,1,.29.33c0,.57-1.58,3-3.39,5.21a55.27,55.27,0,0,1-7.7,7.78,54.4,54.4,0,0,1-8.56,5.9C203.47,25.48,203.08,25.74,202.72,25.74Z"/><path class="cls-1" d="M242,12.38c1.37.9,2,1.73,2,2.81a1.52,1.52,0,0,1-1.44,1.48c-.57,0-.9-.26-1.22-.87a8.22,8.22,0,0,0-4.54-4c-.21-.08-.32-.15-.32-.26s.57-.36,1.29-.36A9.09,9.09,0,0,1,242,12.38Zm-.43,15c-.9,0-2.41-1.15-3.24-2.52a3.33,3.33,0,0,1-.54-2.16c0-.36.11-.54.32-.54s.18.08.47.47A2.68,2.68,0,0,0,241.16,24c1.23,0,3.39-1,6.16-2.77a74.51,74.51,0,0,0,11.05-9.51A39.92,39.92,0,0,0,262.22,7c.29-.43.43-.58.58-.58s.25.22.25.4c0,.68-1.8,3.7-3.53,6A52.77,52.77,0,0,1,244,26c-1.19.68-1.69,1-1.77,1A.81.81,0,0,1,241.56,27.39Zm4.75-21.7c1.37.83,2,1.73,2,2.88a1.62,1.62,0,0,1-1.55,1.69c-.61,0-.83-.18-1.22-1a7.91,7.91,0,0,0-5.3-4.07c-.25,0-.36-.07-.36-.22s.69-.47,1.69-.47A10.42,10.42,0,0,1,246.31,5.69ZM261.07,4.5a1.25,1.25,0,0,1-1.15,1.19c-.51,0-.72-.15-1-.72a6.48,6.48,0,0,0-3.35-2.88c-.25-.07-.36-.11-.36-.22s.43-.25,1-.25C258.73,1.62,261.07,3,261.07,4.5ZM265.14,3A1.29,1.29,0,0,1,264,4.18a1.06,1.06,0,0,1-1-.72,6.54,6.54,0,0,0-3.53-3c-.18,0-.25-.11-.25-.18S259.7,0,260.28,0C262.73,0,265.14,1.48,265.14,3Z"/></g></g></svg>