<svg xmlns="http://www.w3.org/2000/svg" viewBox="0 0 202.84 177.72">
  <title>Asset 1</title>
  <g id="Layer_2" data-name="Layer 2">
    <g id="レイヤー_1" data-name="レイヤー 1">
      <g>
        <path class="cls-1" d="M125.47,50.46a24,24,0,1,0-24,24.05A24.08,24.08,0,0,0,125.47,50.46Zm-43.1,0a19,19,0,1,1,19,19.05A19.06,19.06,0,0,1,82.37,50.46Z"/>
        <path class="cls-1" d="M202.84,163.17v0s0-.09,0-.13a2,2,0,0,0,0-.35c0-.08,0-.15-.07-.23a2.17,2.17,0,0,0-.07-.24,2.49,2.49,0,0,0-.15-.28s-.05-.1-.08-.14l-31.75-48.28a2.49,2.49,0,0,0-2.09-1.12H125.3c.69-.89,1.39-1.78,2.09-2.7,16.25-21.39,24.49-41.31,24.49-59.21A50.46,50.46,0,0,0,51,50.46c0,17.9,8.24,37.82,24.49,59.21.7.92,1.39,1.81,2.09,2.7H34.25a2.5,2.5,0,0,0-2.09,1.12L.41,161.77a.61.61,0,0,0-.07.14,1.51,1.51,0,0,0-.15.28c0,.08,0,.16-.08.25a1.41,1.41,0,0,0-.06.22c0,.11,0,.23,0,.35s0,.08,0,.13v0H0v12.05a2.49,2.49,0,0,0,2.5,2.5H200.34a2.49,2.49,0,0,0,2.5-2.5V163.17Zm-28.52-2.53-3.4-7.51h19.84l4.94,7.51Zm4.2-26.13H162.75l-8.65-17.14h13.14ZM56,50.46a45.46,45.46,0,0,1,90.92,0c0,35.85-37.11,72.77-45.46,80.62C93.07,123.23,56,86.31,56,50.46Zm40.52,82.85c1.93,1.85,3.14,2.92,3.29,3.05a2.51,2.51,0,0,0,3.3,0c.15-.13,1.35-1.2,3.28-3.05H132.8l2.92,10.94H67.12L70,133.31ZM35.6,117.37h46c3.6,4.28,7,8,9.86,10.94H68.12a2.5,2.5,0,0,0-2.42,1.86L61.45,146.1a2.5,2.5,0,0,0,2.41,3.15H139a2.5,2.5,0,0,0,2.42-3.15l-4.26-15.93a2.49,2.49,0,0,0-2.41-1.86H111.36c2.86-3,6.26-6.66,9.87-10.94H148.5L159,138.14a2.5,2.5,0,0,0,2.23,1.37H181.8l5.67,8.62H167.05a2.5,2.5,0,0,0-2.28,3.53l4.07,9H35.15l14.52-32a2.51,2.51,0,0,0-2.28-3.53H30.5ZM7.14,160.64l20.07-30.52h16.3L29.66,160.64Zm190.7,12.08H5v-7.08H197.84Z"/>
      </g>
    </g>
  </g>
</svg>
