<svg xmlns="http://www.w3.org/2000/svg" viewBox="0 0 333.18 53.63">
  <defs>
    <style>
      .cls-1 {
        fill: #231916;
      }

      .cls-2 {
        fill: gray;
      }

      .cls-3 {
        fill: #fff;
      }

      .cls-4 {
        fill: #0081cc;
      }

      .cls-5 {
        fill: #00a041;
      }
    </style>
  </defs>
  <title>Asset 1</title>
  <g id="Layer_2" data-name="Layer 2">
    <g id="レイヤー_1" data-name="レイヤー 1">
      <g>
        <rect class="cls-1" x="149.68" y="22.64" width="6.52" height="16.16"/>
        <path class="cls-1" d="M104.77,31.72H90v5.46l11,0V49.86h7.37V37.05c2.81-.25,9.32-1.77,10.2-10.3V22.64h-7.08s.57,9.08-6.66,9.08"/>
        <rect class="cls-1" x="121.35" y="22.64" width="14.16" height="5.82"/>
        <path class="cls-1" d="M140.75,34.41s.85,9.22-10.77,9.22H121.5v6.23h9.75s15.17,1.54,15.44-14.74v-9.5h-5.94v8.79"/>
        <path class="cls-1" d="M176.16,22.64h-6.64v12.9c.41,9.07-8.64,8.64-8.64,8.64h-7.81v5.68h8.5c15.6,0,14.59-12.62,14.59-12.62V22.64"/>
        <rect class="cls-1" x="179.14" y="22.71" width="14.17" height="5.81"/>
        <path class="cls-1" d="M198.56,34.48s.85,9.21-10.77,9.21H179.3v6.24h9.77s15.16,1.55,15.43-14.75V25.71h-5.94v8.77"/>
        <path class="cls-1" d="M207.07,33.56v5.66s11.46-.55,11.18-11.47h8.95v8.79s.27,7.64-9.52,7.64h-7.36v5.68h10.35s12.9,0,12.9-12.76V22.64h-21.4s1.25,9.5-5.1,10.92"/>
        <path class="cls-1" d="M80.81,33.41c.44,10.92-9.06,10.5-9.06,10.5H61.83v6H71.9c15.29,0,15.86-13.6,15.86-13.6V22.64h-7V33.41"/>
        <polyline class="cls-1" points="68.18 35.55 66.61 22.64 60.84 22.64 62.27 35.55 68.18 35.55"/>
        <polyline class="cls-1" points="76.9 35.61 75.34 22.71 69.58 22.71 71 35.61 76.9 35.61"/>
        <path class="cls-1" d="M264.16,42a2,2,0,0,1-2.07,2.14h-6.71c-2.13,0-2.27-2.69-2.27-2.69l0-4.53h16.76V32H253.18l0-3.27h16.64V23.79H253.24v-2.7h-7.08l0,2.7h-4.7v4.95h4.7V32h-4.63v5h4.65v7.22a5.88,5.88,0,0,0,5.48,5.68h13.6a5.17,5.17,0,0,0,5.47-4.81V40.22l-6.61,0V42"/>
        <path class="cls-1" d="M273.81,27.75h12.46s-11.75,5-11.19,12.32c.43,5.66,3.55,9.08,14,9.79h7.66V43.34h-9.07s-6.52-.15-6.52-3.83c0-4.25,12.32-9.64,18.12-11.76V22H273.81v5.8"/>
        <polyline class="cls-1" points="321.6 28.17 328.64 28.17 328.64 21.51 325.38 21.51 325.38 23.79 320.17 23.79 319.43 21.51 312.45 21.55 313.21 23.79 301.57 23.79 301.57 28.17 314.71 28.17 316.17 32.5 301.72 32.5 301.72 36.91 317.65 36.91 318.93 40.68 325.66 40.63 324.44 36.91 328.78 36.91 328.78 32.5 323.01 32.5 321.6 28.17"/>
        <path class="cls-1" d="M308.23,40.07h-6.37v3.84c.84,6.79,9.5,6,9.5,6h14V43.63H312.19c-4.94,0-4-3.56-4-3.56"/>
        <rect class="cls-1" x="329.91" y="21.51" width="3.26" height="6.66"/>
        <path class="cls-2" d="M7.12,21.47S28.08,5.26,32,2.74C36.66-.23,45-2,50.82,4c7.7,7.9,3.65,15.72,2.13,18.11-2,3.19-18.62,23.17-24.38,28-3.57,3-14.48,6.58-22.87-1.26-9.37-8.74-6-22,1.42-27.42"/>
        <path class="cls-3" d="M10.45,22.78S28.57,9,32.51,6.29c3.54-2.4,7.24-4.41,12.7-2.28a10.88,10.88,0,0,1,6.73,8.15,11.29,11.29,0,0,1-2.33,9.31c-3,4-18.82,22.87-21.85,25.19-2,1.53-5.52,4.65-12.7,3.14C8.26,48.36,3.78,43.12,3.47,36.85c-.27-5.56,1.44-9.73,7-14.07"/>
        <path class="cls-4" d="M20.88,16.51s11.8-8.46,13.7-9.92c2.39-1.82,7.09-3,10.68-1,3.14,1.72,4.56,3.54,5.27,6.88a9.6,9.6,0,0,1-1.83,7.89C47,22.78,43.23,27,43.23,27a80.53,80.53,0,0,0,.41-12c-.44-4.68-2.79-5.06-4.15-5.16a4.14,4.14,0,0,0-3.84,3.89,10.27,10.27,0,0,1-.76,4s-.39-2.87-2.18-3.85a4,4,0,0,0-5.56,2.08c-.91,2.06-.2,3.44-1.82,7.18,0,0,1.32-6.57-4.45-6.57"/>
        <path class="cls-5" d="M17.89,18.89S9.34,25,7.72,27.23A14,14,0,0,0,5.29,39.47c1.62,6.81,9.41,9.62,13,9.47s6.12-.56,11.31-6A172.29,172.29,0,0,0,41,29.67s-3.44,1.17-4.73-1.73c-1-2.28,0-2.23-.51-6.47,0,0-2.28,9.81-3,11.53s-1.95,3.41-4.35,2.94a3.32,3.32,0,0,1-2.94-3.55c0-1.72.53-4.2.33-5.31,0,0-4.4,12.6-5.9,15.23a4.35,4.35,0,0,1-6,1.92c-2.71-1.5-3.11-4.09-1.13-7.21a38.51,38.51,0,0,0,3.34-8,46.23,46.23,0,0,0,1.74-10.17"/>
        <path class="cls-1" d="M65,12.6a16,16,0,0,1-1,1.48c-.59.8-.9,1.13-1.31,1.13a1.09,1.09,0,0,1-1-1.05c0-.33.14-.53.76-1.11a15.77,15.77,0,0,0,2-2.35H62.84a.83.83,0,1,1,0-1.65H65V8.39c0-.7.27-1,.91-1s.82.65.82,1v.66H68.1c.41,0,.93.11.93.82a.79.79,0,0,1-.93.83H66.84a14.16,14.16,0,0,0,1.29,1.17c.46.37.62.52.62.83a1,1,0,0,1-.85,1c-.28,0-.61-.24-1.16-1v2.69c0,.58-.2.95-.88.95-.84,0-.85-.65-.85-.95V12.6m5.16-5.23c0,.32,0,1-.87,1-.67,0-1-.24-1-1V5.11a12,12,0,0,1-5,2.7c-.63,0-.85-.66-.85-1,0-.59.34-.71,1.61-1.14a13.26,13.26,0,0,0,2.69-1.34H63.44a.81.81,0,0,1-.94-.82.81.81,0,0,1,.94-.84h4.87V2.16c0-.64.53-.74.86-.74s1,.06,1,.74v.53h4.88a.81.81,0,0,1,.94.82.81.81,0,0,1-.94.84H71.67a11,11,0,0,0,2.75,1.34c1.2.39,1.59.53,1.59,1.14,0,.31-.19,1-.84,1a11.65,11.65,0,0,1-5-2.67Zm3.65,3.33a12,12,0,0,0,1.94,2.35c.57.53.79.79.79,1.18a1,1,0,0,1-1.83.57,11.64,11.64,0,0,1-1.47-2.33v2.89c0,.67-.28.95-.94.95a.81.81,0,0,1-.84-.95v-3a8.92,8.92,0,0,1-1,1.59c-.65.9-1.07,1.36-1.5,1.36a1,1,0,0,1-.9-.9c0-.35.17-.55.87-1.21a11.82,11.82,0,0,0,1.91-2.5H70.2a.83.83,0,1,1,0-1.65h1.27V8.39c0-.73.33-1,.94-1,.81,0,.84.65.84,1v.66H75.6c.41,0,1,.09,1,.82s-.7.83-1,.83Z"/>
        <path class="cls-1" d="M84.3,12.39a3.17,3.17,0,0,1-2.73,1.89c-2,0-3.11-2.08-3.11-4.56,0-4.77,3.51-7.3,7.42-7.3,4.71,0,6.6,3.11,6.6,6.52a6.1,6.1,0,0,1-2.82,5.36,7.78,7.78,0,0,1-3.74,1.22,1,1,0,0,1-1-1.08c0-.81.58-.91,1.15-1,1.24-.2,4.32-.68,4.32-4.66,0-2.56-1.38-4.27-3.8-4.43a22.31,22.31,0,0,1-2.25,8M82.78,5.12a5.37,5.37,0,0,0-2.34,4.63c0,1.5.61,2.35,1.23,2.35s1.11-.88,1.53-2a24.55,24.55,0,0,0,1.35-5.67A6.11,6.11,0,0,0,82.78,5.12Z"/>
        <path class="cls-1" d="M102.71,15.33c0,.25,0,.94-1,.94s-1-.55-1-.94V12H97.06C95.7,12,95,11.52,95,9.87V6c0-1.62.69-2.09,2.07-2.09h3.65V2.39a.82.82,0,0,1,.94-.92c.76,0,1.06.26,1.06.92V3.94h3.7c1.4,0,2.07.5,2.07,2.09V9.87c0,1.6-.65,2.1-2.07,2.1h-3.7v3.36m-2-9.52H97.64A.61.61,0,0,0,97,6.5V9.42a.61.61,0,0,0,.69.69h3.07Zm2,4.3h3.12a.6.6,0,0,0,.67-.69V6.5c0-.47-.22-.69-.67-.69h-3.12Z"/>
        <path class="cls-1" d="M116.79,12.39a3.17,3.17,0,0,1-2.73,1.89c-2,0-3.1-2.08-3.1-4.56,0-4.77,3.51-7.3,7.4-7.3,4.72,0,6.61,3.11,6.61,6.52a6.1,6.1,0,0,1-2.82,5.36,7.78,7.78,0,0,1-3.74,1.22,1,1,0,0,1-1-1.08c0-.81.58-.91,1.15-1,1.24-.2,4.31-.68,4.31-4.66,0-2.56-1.37-4.27-3.79-4.43a22.31,22.31,0,0,1-2.25,8m-1.52-7.27a5.37,5.37,0,0,0-2.34,4.63c0,1.5.61,2.35,1.23,2.35s1.11-.88,1.53-2A24,24,0,0,0,117,4.42,6.08,6.08,0,0,0,115.27,5.12Z"/>
        <path class="cls-1" d="M133.73,7.35h6.14a.87.87,0,0,1,1,1,.88.88,0,0,1-1,1h-6.14v3.38c0,.72.12.72,2.29.72l3.18-.06c.34,0,1,0,1,.9,0,1.06-.59,1.08-3,1.08-3.69,0-4-.08-4.37-.19A1.91,1.91,0,0,1,131.59,13V9.28h-3.32a.89.89,0,0,1-1-1,.88.88,0,0,1,1-1h3.32V4.63h-2.71a.87.87,0,0,1-1-1,.86.86,0,0,1,1-1H139.2a.88.88,0,0,1,1,1,.88.88,0,0,1-1,1h-5.47V7.35"/>
        <path class="cls-1" d="M146,12.08c0,1.08.11,1.11,2.76,1.11,1.34,0,2.95,0,4-.07.28,0,1.46-.09,1.71-.09s1,0,1,1-.66,1.06-1.52,1.12-3.9.07-5.08.07a28.2,28.2,0,0,1-3-.1,2.16,2.16,0,0,1-2-2.45V3.12c0-.48.13-1,1.05-1s1.07.31,1.07,1V6.94a33.51,33.51,0,0,0,6-2.12,3.58,3.58,0,0,1,1.56-.57,1.16,1.16,0,0,1,1,1.16c0,.39-.14.68-1.58,1.28-.74.31-2.13.84-3.63,1.33A28.2,28.2,0,0,1,146,9v3.13m7.27-9.92a1.07,1.07,0,0,1-.06-.35c0-.36.39-.44.56-.44s.42.21.65.77a5.88,5.88,0,0,1,.37,1.28c0,.5-.53.5-.55.5a.45.45,0,0,1-.46-.32c-.09-.23-.18-.58-.26-.8ZM155.11,2l-.05-.28c0-.35.39-.45.56-.45s.42.22.65.76a4.3,4.3,0,0,1,.39,1.27c0,.45-.47.5-.56.5-.36,0-.4-.14-.73-1.11C155.34,2.56,155.14,2.11,155.11,2Z"/>
        <path class="cls-1" d="M161.09,10.09c0,.49-.15,1-1.06,1-.7,0-1.1-.26-1.1-1V3.3c0-.49.16-1,1.07-1,.69,0,1.09.26,1.09,1v6.79M169,9c0,1.79-.26,4.9-5,6.22a11.86,11.86,0,0,1-2.91.42,1,1,0,0,1-1.2-1.08c0-.84.52-.9,1.55-1,2.46-.23,3.63-.74,4.46-1.69a3.92,3.92,0,0,0,.88-2.81V3.11c0-.49.15-1,1.08-1,.68,0,1.1.27,1.1,1Z"/>
        <path class="cls-1" d="M172.85,8.75a.87.87,0,0,1-1-1,.87.87,0,0,1,1-1h11.59a.87.87,0,0,1,1,1,.88.88,0,0,1-1,1h-4.31c-.08,1.3-.23,4.22-2.93,5.87A7.92,7.92,0,0,1,174,15.75c-.76,0-1-.77-1-1.13,0-.6.36-.71,1.32-1,2.1-.59,3.5-1.51,3.66-4.89h-5.17m10.43-6.09a.86.86,0,0,1,1,.95.85.85,0,0,1-1,.95H174a.85.85,0,0,1-1-.94.85.85,0,0,1,1-1Z"/>
        <path class="cls-1" d="M194.67,14.91c0,.51-.23.93-1,.93s-1-.26-1-.93V9.69a22.39,22.39,0,0,1-2.91,1.19,6.49,6.49,0,0,1-1.42.34,1,1,0,0,1-.93-1.06c0-.63.27-.69,1.24-1a19.7,19.7,0,0,0,6.63-3.35l1.29-1.1a1,1,0,0,1,1.78.67,1.08,1.08,0,0,1-.43.81,19.59,19.59,0,0,1-3.25,2.39v6.3"/>
        <path class="cls-1" d="M201.35,8.75a.87.87,0,0,1-1-1,.87.87,0,0,1,1-1h11.59a.87.87,0,0,1,1,1,.88.88,0,0,1-1,1h-4.32c-.08,1.3-.23,4.22-2.92,5.87a8,8,0,0,1-3.19,1.13c-.76,0-1-.77-1-1.13,0-.6.35-.71,1.31-1,2.11-.59,3.51-1.51,3.67-4.89h-5.17m10.43-6.09a.86.86,0,0,1,1,.95.86.86,0,0,1-1,.95h-9.25a.86.86,0,0,1-1-.94.86.86,0,0,1,1-1Z"/>
        <path class="cls-1" d="M217.35,9.94c-.34,0-1.15,0-1.15-1.06s.7-1.08,1.15-1.08h11.51A1,1,0,0,1,230,8.86c0,1.05-.73,1.08-1.15,1.08H217.35"/>
        <path class="cls-1" d="M244.25,3.14c.67,0,1.49.22,1.49,1.19,0,1.29-1.75,4.44-5.68,7.08,1,1,1.35,1.42,1.64,1.75.45.53.59.78.59,1.11a1.28,1.28,0,0,1-1.22,1.17c-.47,0-.59-.16-1.27-1a29.27,29.27,0,0,0-4.27-4.3c-.78-.66-.94-.8-.94-1.29a1.2,1.2,0,0,1,1.1-1,1.27,1.27,0,0,1,.8.33c.28.2,1.27,1,2.14,1.81a13.52,13.52,0,0,0,3.82-3.48,3.44,3.44,0,0,0,.64-1.18c0-.22-.26-.22-.48-.22h-9.29a.9.9,0,0,1-1-1,.91.91,0,0,1,1-1h10.93"/>
        <path class="cls-1" d="M253.9,3.5c0,.22-.36,6.23-2.75,10.19-.78,1.31-1.11,1.55-1.6,1.55a1.22,1.22,0,0,1-1.15-1.07,1.52,1.52,0,0,1,.44-1c2.22-3.11,2.62-6.41,3-9.71.06-.45.19-1.12,1.19-1a.86.86,0,0,1,.86,1m4.82,0c.37,3.21.8,6.61,3,9.71a1.59,1.59,0,0,1,.44,1A1.24,1.24,0,0,1,261,15.25c-.54,0-.88-.36-1.62-1.58-2.36-3.9-2.76-9.89-2.76-10.17s0-.86.89-1S258.68,3,258.72,3.48ZM261,4.87a1.72,1.72,0,1,1,1.68-1.71A1.72,1.72,0,0,1,261,4.87Zm0-2.51a.8.8,0,0,0-.81.8A.8.8,0,0,0,261,4a.78.78,0,0,0,.78-.79A.79.79,0,0,0,261,2.36Z"/>
        <path class="cls-1" d="M265.79,9.94a1,1,0,0,1-1.14-1.06c0-1,.69-1.08,1.14-1.08H277.3a1,1,0,0,1,1.14,1.06c0,1.05-.72,1.08-1.14,1.08H265.79"/>
        <path class="cls-1" d="M291.27,4.06c1.13,0,1.54.57,1.54,1.38a11.67,11.67,0,0,1-4.14,7.72,13.58,13.58,0,0,1-6.27,2.59,1,1,0,0,1-1-1.08c0-.67.3-.76,1.44-1,2.55-.64,5.2-1.68,6.81-4.85a9.16,9.16,0,0,0,.88-2.52c0-.29-.2-.29-.59-.29h-4.55c-.78,1.06-2.73,3.25-3.78,3.25a1.08,1.08,0,0,1-1-1.05c0-.42.13-.51.84-1a12.71,12.71,0,0,0,3.23-3.8c.57-1.16.68-1.42,1.33-1.42.47,0,1.11.25,1.11.81a3,3,0,0,1-.5,1.34h4.68"/>
      </g>
    </g>
  </g>
</svg>
