<svg xmlns="http://www.w3.org/2000/svg" viewBox="0 0 785.53 81.99"><defs><style>.cls-1{fill:#343434;}</style></defs><title>title-1</title><g id="Layer_2" data-name="Layer 2"><g id="Layer_1-2" data-name="Layer 1"><path class="cls-1" d="M10.4,21.83a9,9,0,0,1,2.93.74,3.41,3.41,0,0,1,2.1,2.83,1.41,1.41,0,0,1-1.49,1.42c-.72,0-.89-.17-1.63-1.83a6.08,6.08,0,0,0-1.91-2.45V30a.89.89,0,0,1-.64,1,3.37,3.37,0,0,1-1.4.34c-.57,0-.81-.21-.81-.72V24.07a27.13,27.13,0,0,1-5.07,4.25A9.4,9.4,0,0,1,.24,29.65.27.27,0,0,1,0,29.41c0-.17.17-.38.61-.79a24.62,24.62,0,0,0,6.7-9H5.37c-.37,0-1,0-1.66,0l-2.15.06L.85,18.53c1.26,0,2.41.07,2.82.1.85,0,1.43,0,1.7,0H7.55V13.84l3.4.34a.74.74,0,0,1,.68.71c0,.27-.14.44-.51.65l-.72.34v2.78h1l1.7-2.14,2.42,2a.77.77,0,0,1,.34.58.47.47,0,0,1-.51.47h-5Zm20-16.73a.65.65,0,0,1,.27.48.41.41,0,0,1-.44.44h-12c3,3,8.6,5.44,14,6a7.82,7.82,0,0,0-3.53,2.88A22.35,22.35,0,0,1,17.78,6.7v7.75c0,.41-.14.61-.61.75a7,7,0,0,1-1.7.34c-.44,0-.68-.24-.68-.72V8.57a40.32,40.32,0,0,1-8.13,5.2,26.44,26.44,0,0,1-5.27,2.14.26.26,0,0,1-.27-.24c0-.17.14-.3.44-.44A35.67,35.67,0,0,0,13.05,6H9.55c-1.87,0-3,0-5.88.17L2.89,4.93,6.7,5c1.19,0,2.21.07,2.85.07h5.24v-5l3.5.27A.69.69,0,0,1,19,1a.89.89,0,0,1-.44.71l-.75.45V5.1h7.38l2.17-2.58ZM32,18.7a.8.8,0,0,1,.28.47.41.41,0,0,1-.45.41H25.26c1.32,2.62,3.81,4.83,7.51,6.73A6.7,6.7,0,0,0,30,29.07a19.36,19.36,0,0,1-5-7.48v8.74c0,.5-.17.71-.68.88a5.58,5.58,0,0,1-1.67.3c-.44,0-.61-.2-.61-.71V24a29.36,29.36,0,0,1-5.78,4.52A10.12,10.12,0,0,1,13.43,30a.23.23,0,0,1-.24-.24c0-.2,0-.23,1.09-1.09a26.44,26.44,0,0,0,7.55-9H21c-1,0-1.83,0-4,.1l-.51-1.15c1.4.07,2.69.1,4.52.13h1V13.8l3.33.45a.59.59,0,0,1,.58.57.72.72,0,0,1-.37.61l-.65.41v2.82H27.3l1.94-2.31Z"/><path class="cls-1" d="M56.91,9.59a21.84,21.84,0,0,1-3.4,11.05c-2,3.12-5,5.54-6.83,5.54a4.1,4.1,0,0,1-2.85-1.87,8.78,8.78,0,0,1-1.67-5.48C42.16,11.36,49,4.93,57,4.93A13.08,13.08,0,0,1,66.5,8.67a10.24,10.24,0,0,1,2.69,7.17A12.53,12.53,0,0,1,62.9,26.72,20.85,20.85,0,0,1,56.61,29a14.25,14.25,0,0,1-2.18.41c-.2,0-.34-.07-.34-.2s.1-.21.65-.38a18.12,18.12,0,0,0,6.08-3.16A11.62,11.62,0,0,0,65.18,16c0-4.55-1.53-7.65-4.49-9.14a8.18,8.18,0,0,0-3.5-.82,6.39,6.39,0,0,0-.72,0A13,13,0,0,1,56.91,9.59Zm-7.68-.31a13.32,13.32,0,0,0-4,9.49c0,2,.92,3.77,2,3.77s3-1.77,4.42-4A20,20,0,0,0,55.08,8.36a8,8,0,0,0-.21-1.9c0-.07,0-.14-.06-.24A12.81,12.81,0,0,0,49.23,9.28Z"/><path class="cls-1" d="M85.2,16.76a.31.31,0,0,1,0,.14,9.91,9.91,0,0,0-.24,2,5.54,5.54,0,0,0,2.45,4.89,11.7,11.7,0,0,0,5.88,1.33,24,24,0,0,0,6.46-1,4.51,4.51,0,0,1,1.5-.34,2.12,2.12,0,0,1,2.34,1.91c0,1-.51,1.59-1.77,2a26,26,0,0,1-7,.85c-7.31,0-11.35-2.75-11.35-7.78,0-1.84.91-4.19,1.63-4.19A.15.15,0,0,1,85.2,16.76ZM86.43,3.81c.91,1.46,4,2.72,6.56,2.72a12.12,12.12,0,0,0,3.06-.44,6.59,6.59,0,0,1,1.53-.31A2,2,0,0,1,99.28,7a5.11,5.11,0,0,1,.51,1.74c0,.68-.55,1-1.8,1a22,22,0,0,0-8.37,2.11,4.73,4.73,0,0,1-.75.34A.19.19,0,0,1,88.7,12a11.9,11.9,0,0,1,2.15-2.32.52.52,0,0,0,.2-.34c0-.13-.07-.23-.27-.27a5.67,5.67,0,0,1-4.66-5.27c0-.13,0-.2.14-.2S86.36,3.67,86.43,3.81ZM104.92,6a1.46,1.46,0,0,1-1.5,1.29c-.44,0-.67-.2-1-.78a5,5,0,0,0-2.83-2.38c-.4-.1-.47-.17-.47-.37s.54-.38,1.36-.38C102.81,3.33,104.92,4.59,104.92,6Zm3.6-2.69A1.44,1.44,0,0,1,107,4.59a.94.94,0,0,1-.92-.51,5.33,5.33,0,0,0-3-2.69c-.37-.13-.5-.2-.5-.34s.64-.44,1.52-.44C106.35.61,108.52,1.9,108.52,3.26Z"/><path class="cls-1" d="M124.78,30.16c-.34,0-.48-.11-.48-.31s.1-.24.48-.27a31.3,31.3,0,0,0,7.38-1.8,12.94,12.94,0,0,0,5-3.3,5.14,5.14,0,0,0,1.43-3.61c0-2.41-1.53-4.21-3.54-4.21-2.82,0-6.66,3-7.72,5.95-.24.64-.44.88-.78.88-1,0-2.82-1.87-2.82-3,0-.44,0-.47.58-2a35.83,35.83,0,0,0,1.8-7.65,18.78,18.78,0,0,1-2.89.31,3.77,3.77,0,0,1-3.84-3.71c0-.17.07-.24.17-.24s.07,0,.1.1c.68,1.13,1.94,1.6,4.28,1.6a8.91,8.91,0,0,0,2.42-.3c.13-1.23.23-2.55.23-3.23,0-1.5-.34-2.49-1-2.93a1.35,1.35,0,0,0-.85-.3c-.14,0-.2,0-.2-.14,0-.34,1.22-.82,2.17-.82a4.78,4.78,0,0,1,2.11.58,1.72,1.72,0,0,1,1,1.63,3.05,3.05,0,0,1-.14.92c0,.14,0,.21-.14.65a9,9,0,0,0,3.2.68c.2,0,.51,0,.92-.07,1,.2,1.53.71,1.53,1.53,0,1.33-2,2.31-6.77,3.4a41.5,41.5,0,0,0-1.32,7.82c0,.3.13.64.23.64s.07,0,.17-.13a20.68,20.68,0,0,1,2.66-1.8,13.48,13.48,0,0,1,6.18-1.7c3.57,0,6.12,2.31,6.12,5.5,0,3-2,5.58-5.67,7.25a30.32,30.32,0,0,1-10.44,2,8.89,8.89,0,0,0-1.12.07ZM128.86,8c1.53-.4,2.38-.85,2.38-1.29,0-.27,0-.3-.92-.71l-1-.48C129.1,6.7,129.06,6.9,128.86,8Z"/><path class="cls-1" d="M159.12,21.79c-.37.41-.58.55-.92.55-.85,0-1.22-.75-1.22-2.49a3,3,0,0,1,.27-1.42c.2-.34.2-.34,2.75-2.69.85-.78,1.74-1.63,1.77-1.7.85-.88,1.7-1.8,2.52-2.68C169.45,5.81,170,5.17,170,4.69s-.27-1-.58-1c-.71,0-2,.81-3.67,2.41-.89.85-1.46,1.19-2,1.19a2.94,2.94,0,0,1-2.45-2.65c0-.68.41-1.7.71-1.7.11,0,.18.1.21.34a1.29,1.29,0,0,0,1.22,1,24.07,24.07,0,0,0,5.48-2A2.36,2.36,0,0,1,170.2,2c1.84,0,4.25,1.94,4.25,3.44,0,.71-.3,1.08-1.26,1.59a35.23,35.23,0,0,0-9.65,7.48c-1.36,1.63-2,2.52-2,2.79,0,.1.14.17.31.17a2.7,2.7,0,0,0,1.49-.51c2.35-1.22,11.87-4.62,12.92-4.62a3.87,3.87,0,0,1,2.89,2.85c0,.44-.44.75-1.15.75a6.79,6.79,0,0,1-.75,0,12.55,12.55,0,0,0-2.11-.14c-3.57,0-5.54.51-7.24,1.84a6.2,6.2,0,0,0-2.24,4.59,3.89,3.89,0,0,0,2.61,3.57,10.44,10.44,0,0,0,3.51.54c.34,0,.71,0,1.08,0a3.61,3.61,0,0,1,.62,0,2.39,2.39,0,0,1,2,2.52c0,.92-.92,1.49-2.45,1.49-5.71,0-9.15-2.72-9.15-7.24,0-1.83.41-3,1.94-5.74A16,16,0,0,0,159.12,21.79Z"/><path class="cls-1" d="M195.19,11.32A2.06,2.06,0,0,0,197.1,13a5.18,5.18,0,0,0,2.34-.78c3.4-1.63,5-2.14,6.67-2.14,3.43,0,5.54,2.65,5.54,6.93,0,5.61-3.3,10.34-9,12.82a28.17,28.17,0,0,1-5.27,1.7c-.17,0-.31-.07-.31-.17s.14-.24.51-.37a25.27,25.27,0,0,0,6.5-4.18A13.13,13.13,0,0,0,208,17.13c0-3.53-1-5.5-2.79-5.5a7,7,0,0,0-3.4,1.46,27.82,27.82,0,0,0-3.23,2.68c-.88.75-1.26,1-1.63,1-1.43,0-2.69-1.56-2.69-3.37,0-.91.45-2.24.79-2.24C195.12,11.15,195.16,11.22,195.19,11.32Zm4.25-3.74a.22.22,0,0,1-.13,0c-.11,0-.17-.07-.17-.11a6.84,6.84,0,0,1,1.8-1.42c.17-.14.27-.24.27-.34s-.07-.14-.41-.31a4.51,4.51,0,0,1-2.31-3.81c0-.75.17-1.36.34-1.36s.17.07.24.31c.81,2,2.38,2.89,5.37,2.89.44,0,.85,0,1.16-.07s.51-.07.61-.07c.95,0,1.8,1.26,1.8,2.65,0,.72-.54,1-1.84,1-.3,0-.61,0-1.08-.06a8.78,8.78,0,0,0-1.57-.11A13.56,13.56,0,0,0,199.44,7.58Z"/><path class="cls-1" d="M232.93,4a.4.4,0,0,1-.17,0c-.07,0-.17-.07-.17-.13,0-.31,1.4-.89,2.14-.89,1.6,0,3.71,1.4,3.71,2.45a33.62,33.62,0,0,1-1,5.06,9.74,9.74,0,0,1,2.45-.37c2.79,0,4.32,2,4.32,5.61,0,4-.92,8.16-2.28,10.2a6,6,0,0,1-4.69,2.72c-.82,0-1-.2-1.09-1.16a7.59,7.59,0,0,0-1.7-4.14c-.27-.31-.34-.41-.34-.51a.25.25,0,0,1,.24-.21c.1,0,.1,0,1,.68,1.84,1.57,2,1.7,2.52,1.7.71,0,1.49-.71,1.94-1.83a24.75,24.75,0,0,0,1.59-8.67c0-2.08-.57-3-1.83-3a8.33,8.33,0,0,0-2.52.61,73.64,73.64,0,0,1-6,14.35,7.18,7.18,0,0,1-1.22,1.77,2.78,2.78,0,0,1-1.7.57,1.62,1.62,0,0,1-1.77-1.49c0-.51.17-.78,1.19-1.87,2.58-2.69,5.27-7.65,6.73-12.38-1.77.86-2.14,1-3.4,1.67a4.13,4.13,0,0,1-1.94.68c-1.29,0-2.34-1.43-2.34-3.19,0-.58.13-1,.34-1s.17,0,.27.4a2,2,0,0,0,1.8.95,24.55,24.55,0,0,0,5.68-1.32,21.67,21.67,0,0,0,.51-4.45c0-1.74-.78-2.79-2-2.79Zm17.61,1.26a1.43,1.43,0,0,1-1.49,1.32c-.58,0-.58,0-1.33-1.19a4.84,4.84,0,0,0-2.58-2c-.38-.1-.48-.2-.48-.34s.61-.41,1.46-.41C248.37,2.65,250.54,3.91,250.54,5.24ZM249.12,18c-.31,0-.55.07-.68.07a.28.28,0,0,1-.28-.27c0-.14.11-.21.34-.28a24.2,24.2,0,0,0,3.1-1.15c.61-.27.88-.61.88-1.09A6,6,0,0,0,251,12a7.29,7.29,0,0,0-4.21-2.72c-.38,0-.45-.11-.45-.28s.48-.37,1.36-.37A8.35,8.35,0,0,1,256,16.73c0,1.63-.72,2.68-1.84,2.68-.34,0-.51-.1-.92-.44-.88-.85-1.56-1-3.36-1A4.92,4.92,0,0,0,249.12,18ZM255.2,3.43a1.49,1.49,0,0,1-1.5,1.33c-.54,0-.71-.1-1.22-1a5.71,5.71,0,0,0-2.82-2.27c-.44-.14-.51-.21-.51-.38s.61-.41,1.5-.41C253,.71,255.2,2,255.2,3.43Z"/><path class="cls-1" d="M265.91,7.11c2.62.1,3.61.13,4.56.13h3.81l2.41-2.62,2.62,2.32a.5.5,0,0,1,.27.51c0,.4-.24.71-.54.71h-8.57c-.88,0-1.63,0-3.81.1Zm4.53,23.08c0,.31-.11.44-.48.58a4.91,4.91,0,0,1-1.56.3c-.58,0-.79-.2-.79-.71V18.12L271,20h3L275.43,18,278,20.5a1.05,1.05,0,0,1,.34.68.74.74,0,0,1-.41.61l-.64.34v6.7a.76.76,0,0,1-.65.78,5.32,5.32,0,0,1-1.73.31c-.41,0-.58-.21-.58-.65v-.75h-3.87ZM267.72,3h5.84L275.64.78l2.48,2.14a.84.84,0,0,1,.27.55.47.47,0,0,1-.51.47H267.72Zm.06,12.57h6l1.87-2,2.24,1.91a.85.85,0,0,1,.24.58.42.42,0,0,1-.44.47h-9.93Zm.11-4.14h6l1.84-2,2.28,2a.83.83,0,0,1,.23.54.45.45,0,0,1-.4.45h-10Zm6.42,16.15V20.87h-3.87v6.74Zm8.26-13.7c.78,0,1.57,0,1.67,0h2.14V8.06h-2l-1.91,0c-.27,0-1.08,0-2,.07L279.85,7c2.28.14,2.65.14,4.56.14h2V.34l3.67.34c.51.07.78.34.78.78a.82.82,0,0,1-.47.75l-.75.37V7.14h3.16l2.45-2.62L298,6.87c.47.41.47.41.47.64a.5.5,0,0,1-.54.55h-8.33v5.88h2.18l2.27-2.48,2.62,2.34a.85.85,0,0,1,.31.62.44.44,0,0,1-.48.44H284.24c-.41,0-.95,0-1.63,0l-2.25.07-.68-1.16Zm1.5,16.42c0,.57-.92,1-2.28,1-.54,0-.78-.24-.78-.68V17.17L284.54,19h7.08L293.08,17l2.55,2.62c.37.38.51.61.51.85a.7.7,0,0,1-.41.61l-.51.28v7.81a1,1,0,0,1-.61,1.06,7.26,7.26,0,0,1-1.91.37c-.44,0-.61-.17-.61-.61V28.52h-8Zm8-2.72V20h-8v7.65Z"/><path class="cls-1" d="M318.24,11.08c-1,.07-1.23.07-1.57.07-2.61,0-4-1.36-4-3.87,0-.14.07-.24.17-.24a.17.17,0,0,1,.17.13c.41.92,2,1.64,3.57,1.64a4.8,4.8,0,0,0,1.5-.21c-.1-4-.14-4.69-.41-5.34a1.87,1.87,0,0,0-1.5-1.39c-.2,0-.3,0-.3-.14,0-.27,1.36-.71,2.17-.71,1.81,0,3.78,1.29,3.78,2.48a1.58,1.58,0,0,1-.24.68,8.46,8.46,0,0,0-.88,3.91c1-.3,1.29-.47,1.49-.92,1.43.31,2.42,1,2.42,1.64s-1.26,1.15-4.08,1.83c-.07.92-.11,1.43-.11,2.58a12.33,12.33,0,0,0,.11,1.87c3.09-.78,3.87-1.22,3.87-2.17a2.09,2.09,0,0,0-.34-1,.39.39,0,0,1-.13-.27.21.21,0,0,1,.17-.17s0,0,.64.48a4.51,4.51,0,0,0,2.18.74l.44,0a1.13,1.13,0,0,1,1,1c0,1.33-2.48,2.52-7.62,3.67.17,2.25.28,3.2.65,5.58a13.94,13.94,0,0,1,4.83,2.17c1.43,1,2.07,1.94,2.07,3a1.37,1.37,0,0,1-1.43,1.53c-.57,0-.88-.17-1.46-.78a16.79,16.79,0,0,0-3.84-3.26V26c0,2.18-2.58,3.84-5.92,3.84-3.63,0-6.15-1.56-6.15-3.8a3.1,3.1,0,0,1,1.77-2.72c1.39-.75,2.82-1,5.47-1a11.33,11.33,0,0,1,1.67.1l0-2c0-1.5,0-1.63,0-2.62a28.81,28.81,0,0,1-4.28.37c-2.28,0-3.71-.54-4.66-1.69a5.8,5.8,0,0,1-1.09-2.52c0-.14,0-.24,0-.27v0c0-.07.1-.13.17-.13s.17,0,.44.47c.68,1.26,2.45,1.91,5.13,1.91a37.3,37.3,0,0,0,4.29-.34Zm.27,13.33a12.16,12.16,0,0,0-3.54-.48c-2.41,0-3.43.55-3.43,1.81s1.43,2,3.71,2,3.26-1,3.26-3.13Z"/><path class="cls-1" d="M346.15,18.22c-1.39,1.29-1.7,1.46-2.38,1.46a4.79,4.79,0,0,1-2.61-1.12,2.82,2.82,0,0,1-1.09-2.45c0-.61.1-.88.3-.88s.14,0,.34.44a2.26,2.26,0,0,0,1.91.85c.71,0,1.22-.2,2.82-1.12,4.49-2.62,8-3.77,11.42-3.77,4.59,0,7.89,2.89,7.89,6.9,0,3.67-2.31,6.49-6.83,8.23a32.54,32.54,0,0,1-7,1.7c-.31,0-.48-.11-.48-.31s.14-.24.44-.31a20.51,20.51,0,0,0,4.39-1.66c3.88-2,5.95-4.8,5.95-7.92a6.66,6.66,0,0,0-.92-3.3,4.09,4.09,0,0,0-3.64-1.91C353.53,13.05,349.65,15,346.15,18.22Z"/><path class="cls-1" d="M389.47,5.2a6.2,6.2,0,0,0,3.7,1.7.73.73,0,0,1,.79.82,2.13,2.13,0,0,1-1.16,1.83,26.45,26.45,0,0,1-4.59,2.32c-1.33,5.47-2.65,10.23-4.08,14.65a7.21,7.21,0,0,1-1.33,3,2.21,2.21,0,0,1-1.53.68,2.38,2.38,0,0,1-2.24-2c0-.37.14-.65.61-1.36a47.61,47.61,0,0,0,5.88-14.21,16.41,16.41,0,0,1-4,.54,3.18,3.18,0,0,1-2.62-1.25,5.44,5.44,0,0,1-1-2.83c0-.17.07-.27.17-.27s.14,0,.34.41c.34.71,1.6,1.22,3,1.22a17.13,17.13,0,0,0,4.73-.64,23.31,23.31,0,0,0,.58-4.83,2.44,2.44,0,0,0-1-2.35,2.72,2.72,0,0,0-.85-.3h-.07a.21.21,0,0,1-.13,0c-.11,0-.21-.07-.21-.13,0-.38,1.29-1,2.08-1,1.46,0,3.5,1.29,3.5,2.21a1.77,1.77,0,0,1-.21.65,2.75,2.75,0,0,1-.13.3l-.07.41-.07.34ZM389,7.14l-.41,1.94C389.88,8.64,391,8,391,7.75s-.82-1.09-1.77-1.77Zm13.8,18c1.43,0,2.31.78,2.31,2,0,1.46-.95,1.94-3.84,1.94a17.4,17.4,0,0,1-6-.88,5.53,5.53,0,0,1-3.71-5.41c0-1.46.85-3.74,1.4-3.74a.19.19,0,0,1,.17.21.33.33,0,0,1,0,.17,11.05,11.05,0,0,0-.27,2.21c0,2.61,2,3.94,5.91,3.94ZM394.36,13a.12.12,0,0,1-.1,0c-.07,0-.17-.07-.17-.14,0-.27.65-1,1.26-1.39a8,8,0,0,1,4.11-1c2.93,0,5.07,1.53,5.07,3.57,0,.75-.34,1.12-.95,1.12A5.28,5.28,0,0,1,403,15a9.33,9.33,0,0,0-2.1-.24,8.63,8.63,0,0,0-3.33.61c-.34.14-.38.14-.41.14a.24.24,0,0,1-.21-.17c0-.11.07-.21.28-.31,0,0,.51-.34,1.42-1,1.16-.75,1.16-.75,1.16-.92,0-.41-1.16-.82-2.31-.82A6.61,6.61,0,0,0,394.36,13Z"/><path class="cls-1" d="M424.59,18.15a6.67,6.67,0,0,1-1.5,4.42,5.5,5.5,0,0,1-3.7,2.32,1.75,1.75,0,0,1-1.7-1.7,1.4,1.4,0,0,1,.95-1.36c2.79-1.26,4.69-3.2,5.27-5.41.07-.17.1-.2.24-.2C424.45,16.22,424.59,16.79,424.59,18.15Zm4.69-5.91A19.68,19.68,0,0,0,422.35,14a1.54,1.54,0,0,1-.82.34c-1.29,0-3.36-2.07-3.36-3.36a.62.62,0,0,1,.37-.65c.58.89,1.36,1.12,3.43,1.12,1.4,0,3.3-.17,7.28-.61,0-.75-.07-1.36-.07-1.6-.1-3.7-.44-4.59-1.73-4.69-.31,0-.41-.07-.41-.2,0-.34,1.39-.92,2.14-.92a3.67,3.67,0,0,1,2.14,1c1.09.81,1.4,1.15,1.4,1.49a2.09,2.09,0,0,1-.21.72c-.41.88-.51,1.49-.58,3.84,3.74-.41,5-.68,6.63-1.43a2.16,2.16,0,0,1,.89-.24c1.26,0,3.43,1.4,3.43,2.21,0,.58-.51,1-1.22,1a11.48,11.48,0,0,1-1.19-.1,35.37,35.37,0,0,0-3.85-.24,33.7,33.7,0,0,0-4.79.3c0,2,.07,6.43.24,10.54,0,1,.07,1.94.07,2.48a4.31,4.31,0,0,1-.95,2.62,2.76,2.76,0,0,1-2.11,1.19c-.55,0-.68-.14-.78-.71a7.82,7.82,0,0,0-2.59-4.56c-.17-.17-.27-.3-.27-.41a.3.3,0,0,1,.2-.23c.11,0,.24.06.58.3a14,14,0,0,0,2.38,1.26c.34,0,.65-.58.65-1.26Zm13.91,9.86a1.88,1.88,0,0,1-1.87,2.07c-.85,0-1.36-.54-1.77-1.94-.85-2.92-2.72-5.27-4.9-6.15-.3-.1-.37-.17-.37-.27s.37-.34,1-.34C439.24,15.47,443.19,18.77,443.19,22.1Z"/><path class="cls-1" d="M460,15.16a1.73,1.73,0,0,1-.54.1,5.29,5.29,0,0,1-2.58-1.32,2.34,2.34,0,0,1-.85-1.7.79.79,0,0,1,.34-.65c.58.82,1.22,1.09,2.65,1.09,1.19,0,10.5-1,13.36-1.39s3.81-.72,5.2-1.57a6.52,6.52,0,0,1,2.31,1.06c1.06.64,1.4,1,1.4,1.6a1.14,1.14,0,0,1-1.26,1,5.09,5.09,0,0,1-.88-.1,41.86,41.86,0,0,0-4.63-.34c-.85,0-1.29,0-3.47.17,1.33,1,1.67,1.36,1.67,1.6s-.1.34-.51.78C470.32,21,467,25.4,462.74,27.71a24.23,24.23,0,0,1-5,2c-.17,0-.27-.07-.27-.2s0-.14,1.64-1a20.45,20.45,0,0,0,6.69-6.66c1.57-2.52,2.72-5.78,2.72-7.62a1.43,1.43,0,0,0-.27-.88A33.74,33.74,0,0,0,460,15.16Zm1.33-9.55a3.44,3.44,0,0,0,2.25.71,23.57,23.57,0,0,0,6.05-1.12,14,14,0,0,0,2.07-.85,1.72,1.72,0,0,1,.61-.17,5.57,5.57,0,0,1,1.77.61c.68.41,1.05.85,1.05,1.26s-.68.78-2.51,1.19a48.07,48.07,0,0,1-8.43,1.4,2.75,2.75,0,0,1-2.21-1A4.47,4.47,0,0,1,461,5.81c0-.1.1-.27.2-.27S461.28,5.58,461.31,5.61Z"/><path class="cls-1" d="M502.38,13.46a25.54,25.54,0,0,1-5.61,10.81,18.15,18.15,0,0,1-5.44,4.08,3.1,3.1,0,0,1-1,.34.26.26,0,0,1-.27-.23c0-.11.1-.21.47-.48a19.74,19.74,0,0,0,6.73-9.18A21.9,21.9,0,0,0,499,11.63a2.67,2.67,0,0,0-1.46-2.69c-.14-.07-.24-.13-.24-.24,0-.27.61-.58,1.26-.58a4.71,4.71,0,0,1,2.61,1.09c1,.72,1.77,1.74,1.77,2.21a1.33,1.33,0,0,1-.14.48,4.37,4.37,0,0,0-.23.75Zm3.1,3.88c0-6.5,0-8.26-.24-8.84a1.39,1.39,0,0,0-.85-1c-.27-.07-.34-.11-.34-.24s1.15-.78,1.73-.78,1,.2,2.45,1.32c.65.51,1,.92,1,1.23a2.25,2.25,0,0,1-.31.85,3,3,0,0,0-.34,1.05c-.07.68-.17,1.63-.34,4.15s-.31,4-.31,4.25-.06.61-.06.81c0,.44.13.72.37.72A10.65,10.65,0,0,0,512,19.07a34.82,34.82,0,0,0,6.36-5.57,34,34,0,0,0,3.4-4.63c.17-.34.27-.44.44-.44a.26.26,0,0,1,.27.24c0,.65-1.8,4-3.26,6.12A32.82,32.82,0,0,1,509,24.14c-.51.3-.81.51-.95.58l-.48.37a.85.85,0,0,1-.51.2,1.32,1.32,0,0,1-.91-.57,5.79,5.79,0,0,1-1.26-2.21l.54-1.91Z"/><path class="cls-1" d="M540.6,15.88a2,2,0,0,1-2,1.83c-.48,0-.78-.24-1.19-.95A8.66,8.66,0,0,0,533,12.68c-.3-.14-.34-.17-.34-.27s1-.44,2.15-.44C537.74,12,540.6,13.91,540.6,15.88Zm-6,7.27c.2.68.78.92,2.24.92,1.77,0,4.52-1.33,8.37-4A51.17,51.17,0,0,0,554,12.44a57.42,57.42,0,0,0,3.85-4.62c.34-.51.44-.58.61-.58s.2.14.2.27a9.91,9.91,0,0,1-1.39,3,42.24,42.24,0,0,1-6.53,8.6,63.88,63.88,0,0,1-11,8.3,4.73,4.73,0,0,0-.69.44c-.54.44-.64.51-.91.51-.55,0-1.5-.65-2.72-1.84a3.54,3.54,0,0,1-1.29-2.45c0-.54.2-1,.47-.91,0,0,0,0,0,0Zm10-13.66a1.91,1.91,0,0,1-2,1.87c-.71,0-.92-.17-1.46-1.19a7.87,7.87,0,0,0-4.86-3.81c-.24-.07-.31-.14-.31-.24,0-.31,1.5-.61,3-.61C542,5.51,544.61,7.38,544.61,9.49Z"/><path class="cls-1" d="M579.15,24a37.51,37.51,0,0,0,.17-4.39c0-3.64-.1-4-1-4a14.72,14.72,0,0,0-2.34.37,5.54,5.54,0,0,0-1.6.51,1.38,1.38,0,0,1-.31.07c-1,0-2.1-1.36-2.1-2.62,0-.34.06-.48.23-.48s.07,0,.34.35a3,3,0,0,0,1.87.51,47.06,47.06,0,0,0,4.73-.41,17.16,17.16,0,0,0,5.51-1.23,2.5,2.5,0,0,1,.91-.3,4.27,4.27,0,0,1,2.08,1c.54.41.81.79.81,1.16a.79.79,0,0,1-.81.75h-.34l-.41,0c-1.77-.07-1.77-.07-2.24-.07-1.09,0-2.08,0-3.3.14.78.48,1.26.92,1.26,1.16a1.1,1.1,0,0,1-.14.44c-.44,1.43-.61,2.85-.71,6.9,5.71-.58,6-.65,7.51-1.12a.8.8,0,0,1,.31,0c1.25,0,3.39,1.64,3.39,2.55a1,1,0,0,1-1,.92,7.73,7.73,0,0,1-1.43-.24,29.71,29.71,0,0,0-6.15-.61c-5.07,0-8.47.48-11.46,1.57a3.7,3.7,0,0,1-1.29.27c-.54,0-.54,0-2.11-1-.78-.48-1.05-.85-1.05-1.33s.13-.95.34-.95.13,0,.2.17c.27.37,1.09.58,2.28.58.68,0,.68,0,4.25-.21l2.62-.23Z"/><path class="cls-1" d="M615.47,25.29c-2.76,1.6-7.11,3.2-8.74,3.2-.21,0-.34-.1-.34-.24s.1-.2.3-.27a24.33,24.33,0,0,0,11.09-7.65,21.45,21.45,0,0,0,4.72-8.06,9.92,9.92,0,0,0,.65-2.58c0-.54-.31-.75-1.09-.75a42.53,42.53,0,0,0-6.7,1.16,14.36,14.36,0,0,0-4.08,1.43,1.39,1.39,0,0,1-.54.2,4.54,4.54,0,0,1-2.07-1A3.2,3.2,0,0,1,607.51,8c0-.27.1-.47.27-.47s.14.07.28.24a3.09,3.09,0,0,0,2.58,1,81,81,0,0,0,8.7-1,9.93,9.93,0,0,0,4-1.36c.68-.41.85-.48,1.15-.48s1,.31,2.89,1.67c.72.47,1.19,1,1.19,1.15s-.3.58-1.56,1.43C623.86,18,620.53,22.34,615.47,25.29Z"/><path class="cls-1" d="M655.31,9.59a21.92,21.92,0,0,1-3.39,11.05c-2,3.12-5,5.54-6.84,5.54a4.1,4.1,0,0,1-2.85-1.87,8.78,8.78,0,0,1-1.67-5.48c0-7.47,6.83-13.9,14.79-13.9a13.08,13.08,0,0,1,9.55,3.74,10.24,10.24,0,0,1,2.69,7.17,12.53,12.53,0,0,1-6.29,10.88A20.85,20.85,0,0,1,655,29a14.25,14.25,0,0,1-2.18.41c-.2,0-.34-.07-.34-.2s.11-.21.65-.38a18.12,18.12,0,0,0,6.08-3.16A11.62,11.62,0,0,0,663.58,16c0-4.55-1.53-7.65-4.49-9.14a8.18,8.18,0,0,0-3.5-.82,6.39,6.39,0,0,0-.72,0A13,13,0,0,1,655.31,9.59Zm-7.68-.31a13.32,13.32,0,0,0-4,9.49c0,2,.92,3.77,2,3.77s3-1.77,4.42-4a20,20,0,0,0,3.47-10.17,8,8,0,0,0-.21-1.9c0-.07,0-.14-.06-.24A12.93,12.93,0,0,0,647.63,9.28Z"/><path class="cls-1" d="M685.68,30.56c0,.34-.17.55-.65.72a6,6,0,0,1-1.7.34c-.51,0-.75-.24-.75-.72V4.66L686,6.29h3.64A57.8,57.8,0,0,0,690.74,0l3.78.78a.62.62,0,0,1,.51.65.6.6,0,0,1-.24.47l-1,.55c-1.29,1.8-1.84,2.51-2.89,3.84H701l1.22-2.07,2.83,2.89a1.6,1.6,0,0,1,.4,1,.78.78,0,0,1-.4.65l-.55.3V29.78c0,.38-.2.61-.75.85a5.09,5.09,0,0,1-1.7.34c-.57,0-.74-.14-.74-.58V28.9H685.68Zm0-17.1h15.64V7.21H685.68Zm15.64,7.24V14.38H685.68V20.7Zm0,7.28V21.62H685.68V28Z"/><path class="cls-1" d="M719.68,14.89c-2.31,3.13-4,5-4.52,5a.23.23,0,0,1-.24-.21c0-.1,0-.2.24-.51,3.5-5.4,5.44-11,6.59-19l3.71,1.5a.76.76,0,0,1,.47.68c0,.3-.24.54-.68.68l-.74.2c-.65,2.31-1.06,3.57-1.94,5.95l.68.31c.37.17.54.37.54.57a.72.72,0,0,1-.44.61l-.58.28V30.22a.74.74,0,0,1-.54.78,6.53,6.53,0,0,1-1.91.45c-.44,0-.64-.28-.64-.75Zm7.41-7.34c1.12,0,2.14.07,2.51.07h11.9L743.92,5l2.79,2.31a1,1,0,0,1,.44.75.5.5,0,0,1-.55.44h-17c-1.7,0-2.68,0-5.26.14l-.62-1.22Zm11.59,4.38,2.08-2.14,2.48,2c.37.3.47.44.47.64s-.2.41-.54.41H726.92v-.92Zm0,4.29,2.1-2.25,2.52,2.11c.37.31.51.48.51.65s-.2.4-.54.4H726.92v-.91Zm-1.3-13.3L739.63.61l2.72,2.25c.28.2.34.34.34.54a.39.39,0,0,1-.44.44H727.06V2.92Zm-7.1,27.44c0,.61-1,1.05-2.28,1.05-.48,0-.68-.17-.68-.64V19.24l3.54,1.67H739l1.47-2,2.85,3a1,1,0,0,1,.34.68q0,.36-.51.51l-.68.2v6.84a.59.59,0,0,1-.47.67,6.06,6.06,0,0,1-1.94.41c-.48,0-.72-.24-.72-.68v-1.8h-9Zm9-2.52v-6h-9v6Z"/><path class="cls-1" d="M758.57,14.21c-1.63,2.45-4,5.2-4.48,5.2a.33.33,0,0,1-.31-.3c0-.11.07-.21.31-.58,3-4.15,5.88-11.66,7-18.19l3.57,1.53a.86.86,0,0,1,.48.71.67.67,0,0,1-.51.58l-.85.34a61.59,61.59,0,0,1-2.31,5.78l.47.17a.66.66,0,0,1,.38.61.55.55,0,0,1-.31.51l-.51.31V30.53c0,.47-1.36,1-2.48,1-.37,0-.48-.1-.48-.61Zm15.1,15.91c0,.61-1.19,1.19-2.42,1.19-.51,0-.64-.14-.64-.68V9h-.48a35.31,35.31,0,0,1-4.42,5.67c-1.29,1.36-2,1.94-2.31,1.94a.24.24,0,0,1-.24-.24c0-.1.07-.24.28-.47A41.67,41.67,0,0,0,770.27.37l3.84,1.84a.65.65,0,0,1,.44.61.71.71,0,0,1-.54.68l-1.16.34a46.6,46.6,0,0,1-2.21,4.22h9.42l2.24-2.65,3,2.61a.6.6,0,0,1,.23.48.44.44,0,0,1-.37.48H773.67v5.5h5l2.14-2.38,2.89,2.38a.6.6,0,0,1,.24.44.46.46,0,0,1-.41.48h-9.86v5.51h5.1l2.38-2.42,2.72,2.42a.7.7,0,0,1,.23.47c0,.24-.16.45-.33.45h-10.1Z"/><path class="cls-1" d="M257.31,80.29c0,.41-1.33.88-2.52.88-.4,0-.57-.13-.57-.44V68a35.59,35.59,0,0,1-5.44,4.86,14.89,14.89,0,0,1-3.16,1.9.22.22,0,0,1-.21-.23c0-.11.1-.21.38-.45,6.05-5,9.72-11.08,11.59-19.27h-4.32c-.58,0-1.49,0-2.58.07l-3.3.1-.82-1.26,3.88.1c1.22,0,2.35.07,2.82.07h17.75l2.45-2.72,3.39,2.72a.54.54,0,0,1,.24.44.44.44,0,0,1-.41.48H261.12a42.2,42.2,0,0,1-4.45,10l.71.61h10.95l1.32-2,3.27,3.06a1,1,0,0,1,.34.65.87.87,0,0,1-.45.68l-.91.41V79.54c0,.41-1.47,1-2.59,1-.41,0-.58-.14-.58-.48V78.15H257.31Zm11.42-3.06V66.35H257.31V77.23Z"/><path class="cls-1" d="M285.09,73.19c3.67.13,5.17.17,6.66.17h6.7v-3.3H294.4c-1.66,0-2.61,0-5.16.13L288.49,69c3.26.14,4.52.17,5.91.17h4.05V66.25H293c-1.22,0-2.41,0-6.05.17l-.71-1.29c3.77.17,5.23.2,6.69.2h2.28a4.13,4.13,0,0,1-.27-.58,7.26,7.26,0,0,1-.34-.88,4.31,4.31,0,0,0-1.53-2.17,26.32,26.32,0,0,1-6.73,1.63c-.21,0-.34-.11-.34-.28s.13-.27.54-.4c5.58-1.43,8.36-3.67,9-7.28h-5.24a7.54,7.54,0,0,1-.51,2.75,3.29,3.29,0,0,1-2.72,2.08,1.58,1.58,0,0,1-1.53-1.67c0-.71.14-.88,1.43-1.93A4.69,4.69,0,0,0,289,52.82c0-.3.14-.47.34-.47.41,0,.62.54.85,2.1h8.09V50l3.47.21a.74.74,0,0,1,.72.71.73.73,0,0,1-.45.68l-.64.27v2.55H310l1.4-2,3.12,3.06a1,1,0,0,1,.34.68.64.64,0,0,1-.68.61h-1.53a18.27,18.27,0,0,0-1.8,1.09c-.34.23-.71.47-1,.68s-.44.27-.65.37a1.39,1.39,0,0,1-.71.34.16.16,0,0,1-.14-.17,3.75,3.75,0,0,1,.34-.75,28.12,28.12,0,0,0,1.4-3H304v3.4c0,.85,0,.85,4,.85,2,0,2.69-.07,3.06-.41a7,7,0,0,0,1.19-1.7c.27-.44.44-.61.61-.61s.14.1.14.24,0,.41-.11,1.29c0,.24-.06.55-.06.58,0,.2.06.31.37.44.61.27.88.61.88,1.09s-.54,1-1.53,1.12-2.34.14-5.74.14l-.85,0,1.36.78A.57.57,0,0,1,307,63.6h-.78a29,29,0,0,0-2.35,1.73h3.94L310,62.75l2.89,2.51a.7.7,0,0,1,.27.51c0,.31-.17.48-.41.48H301.27v2.89h4.56l2.07-2.48L310.66,69a1,1,0,0,1,.3.58.47.47,0,0,1-.41.44h-9.28v3.3h8.94l2.18-2.49,2.89,2.49a.76.76,0,0,1,.27.51.42.42,0,0,1-.44.4H291.75c-2.21,0-3.06,0-5.88.17Zm5.51,3.91a6.45,6.45,0,0,1-.68,3.09A3.55,3.55,0,0,1,287.3,82a1.79,1.79,0,0,1-1.94-1.8c0-.75.14-.89,1.7-1.9a5.17,5.17,0,0,0,2.55-3.06c.1-.28.21-.38.38-.38C290.39,74.85,290.6,75.57,290.6,77.1Zm4.89-1.3c1.91,1.26,2.72,2.45,2.72,4a1.87,1.87,0,0,1-1.9,2.07c-.95,0-1.4-.61-1.46-2.07-.11-2.18-.41-3.5-1-4.32a.79.79,0,0,1-.21-.37.23.23,0,0,1,.24-.21A5.59,5.59,0,0,1,295.49,75.8Zm3-20.43a1.6,1.6,0,0,1-.14.44A7.86,7.86,0,0,1,294,61.29a7.3,7.3,0,0,1,2.31.81,2.74,2.74,0,0,1,1.46,2.28,1.61,1.61,0,0,1-.3,1h4.93a24.09,24.09,0,0,0,1.43-3.67c-2.21,0-2.59-.31-2.59-1.83V55.37Zm3.19,20.47c2.35.88,3.68,2.34,3.68,4a1.67,1.67,0,0,1-2.62,1.36c-.38-.38-.38-.38-1-2.48a5.46,5.46,0,0,0-2-2.93c-.21-.17-.27-.27-.27-.37a.22.22,0,0,1,.23-.2A16.51,16.51,0,0,1,301.71,75.84Zm7.45-.21c3,.92,4.45,2.21,4.45,3.85a1.8,1.8,0,0,1-1.8,1.76c-.75,0-.78,0-2.14-2.07a13.21,13.21,0,0,0-3.88-3.5c-.4-.27-.54-.38-.54-.51a.32.32,0,0,1,.34-.31A25.89,25.89,0,0,1,309.16,75.63Z"/><path class="cls-1" d="M327.25,63.6c0,2.51-1.05,4.25-2.62,4.25a1.27,1.27,0,0,1-1.32-1.33c0-.61,0-.64,1.15-2.45a7.57,7.57,0,0,0,1.26-4.24,4.93,4.93,0,0,0-.07-.85,2.11,2.11,0,0,1,0-.38c0-.14.07-.24.2-.24C326.33,58.36,327.25,61.7,327.25,63.6Zm8.06-4.05A27.73,27.73,0,0,1,331,62.34a79.59,79.59,0,0,1-.72,8.67,7.63,7.63,0,0,1,4.15,2.11,4.33,4.33,0,0,1,1.12,2.62c0,1-.51,1.7-1.29,1.7s-1.16-.45-1.6-1.81a9.07,9.07,0,0,0-2.48-4.11,16.47,16.47,0,0,1-3.81,7.58,8.12,8.12,0,0,1-2.55,2.24.22.22,0,0,1-.2-.2c0-.14.07-.24.44-.71,2.82-3.47,4.18-9,4.18-17.17V50.51l3.06.27c.55,0,.95.34.95.72a.89.89,0,0,1-.54.74l-.75.45v8.63a51.47,51.47,0,0,0,2.76-4.69l1.8,1.66c.4.38.54.58.54.79s-.2.37-.41.44Zm6.29,10.58c-.34,4.25-1.13,6.35-3,8.19a13,13,0,0,1-4.66,2.79,6.84,6.84,0,0,1-2,.61c-.17,0-.27-.07-.27-.21s.13-.3.54-.51c4.72-2.38,6.36-5.13,6.53-10.87H336.8c-.95,0-1.83,0-3.91.1l-.64-1.16c2.17.1,2.48.1,4.62.14V63.84h-.34c-.54,0-1.26,0-2.07,0l-1.94.07L332,62.78c2.44.1,3.43.14,4.55.14h.34V58.53l2.86.31a.63.63,0,0,1,.3,1.22l-.51.24v2.62h6.56V58.6l2.76.24c.51,0,.85.31.85.61a1.05,1.05,0,0,1-.48.72l-.51.33v2.42h1.84l1.9-2.42,2.62,2.18c.34.24.51.48.51.68s-.27.48-.65.48H348.7v5.37H350L351.76,67l2.35,1.94a1.4,1.4,0,0,1,.54.75c0,.27-.3.48-.68.48H347V77c0,1,.17,1.09,2.44,1.09,2,0,2.32-.07,2.69-.78a25.16,25.16,0,0,0,1.39-3.6c.17-.51.24-.65.41-.65s.21.14.21.48c0,.13,0,.13,0,1.42l0,1.74c0,.78,0,.81.37,1.12.61.48.89.88.89,1.32,0,.62-.62,1.16-1.54,1.33a30,30,0,0,1-4.52.21c-4.79,0-5.1-.14-5.1-2.42V70.13Zm-7.08-14.25c2.38.1,3.37.14,4.56.14h2.38V50.37l3.26.28c.48,0,.85.34.85.64a.8.8,0,0,1-.47.65l-.82.47V56H348l1.94-2.28,2.52,2.14c.3.27.47.51.47.68s-.23.38-.57.38h-8v4a.59.59,0,0,1-.51.68,7.79,7.79,0,0,1-1.73.31c-.38,0-.58-.24-.58-.68V56.94h-2.38c-1.05,0-1.94,0-3.94.1Zm11.56,13.33V63.84h-6.56v5.37Z"/><path class="cls-1" d="M377.16,59.86a17.53,17.53,0,0,1-4.83.85,4.27,4.27,0,0,1-3.19-1.36,3.29,3.29,0,0,1-.85-1.5.24.24,0,0,1,.27-.23c.1,0,.17,0,.31.23.4.58,1.19.85,2.55.85a12.66,12.66,0,0,0,4.45-.88c-2.59-4.08-3.78-5.13-5.58-5.07-.13,0-.23-.06-.23-.13,0-.48,1.66-1.5,2.44-1.5a6.11,6.11,0,0,1,3.57,1.12,1.15,1.15,0,0,1,.41.68,1.24,1.24,0,0,0,0,.31c0,.82.27,1.63,1.32,3.91a7.7,7.7,0,0,0,1.29-1c.89-.78,1-.89,1.36-.89,1,0,2.21.85,2.21,1.5s-1.12,1.43-3.77,2.52a23,23,0,0,0,1.77,3c3-1.33,4.18-2.18,4.45-3.13a12.3,12.3,0,0,1,2.69.48c.51.17.75.44.75.78,0,.64-.48,1.19-1.6,1.9a26.72,26.72,0,0,1-4.73,2.31c.68.95,1.46,1.91,3.16,3.91a4.46,4.46,0,0,1,1.3,3c0,1.8-1.06,3.2-2.42,3.2a1.69,1.69,0,0,1-.41,0,11.38,11.38,0,0,0-8.05-4c-2.86,0-4.59,1.26-4.59,3.26s2,3.23,5.13,3.23c.44,0,2.18-.06,2.79-.1a5.69,5.69,0,0,1,.64,0,1.46,1.46,0,0,1,1.64,1.49c0,1.43-1.09,2.11-3.4,2.11-5.65,0-9.56-2.38-9.56-5.81,0-3.16,3-5.27,7.45-5.27a14.75,14.75,0,0,1,4.45.68,7.17,7.17,0,0,0,1.84.37c.24,0,.41-.13.41-.34,0-.51-.89-2.28-2.35-4.79a32.08,32.08,0,0,1-8.3,1.29,7.19,7.19,0,0,1-3.94-1,3.81,3.81,0,0,1-1.63-2.92c0-.31.1-.51.24-.51s.1,0,.27.41c.44,1.15,2,1.77,4.39,1.77A22.81,22.81,0,0,0,379,63.16,26,26,0,0,0,377.16,59.86Z"/><path class="cls-1" d="M413.1,75.36c-2.86,1.77-7.52,3.54-9.35,3.54a.28.28,0,0,1-.31-.24c0-.14.1-.2.31-.27a25.22,25.22,0,0,0,11.12-7.65,21.81,21.81,0,0,0,4.69-8.09,10.33,10.33,0,0,0,.64-2.59c0-.54-.3-.74-1.05-.74a42.68,42.68,0,0,0-6.73,1.15,14.13,14.13,0,0,0-4.08,1.43,1.09,1.09,0,0,1-.58.24,4.46,4.46,0,0,1-2-1,3.27,3.27,0,0,1-1.15-2.75c0-.28.1-.48.27-.48s.13.07.27.24a3.11,3.11,0,0,0,2.58,1,79,79,0,0,0,8.71-1.06,9.78,9.78,0,0,0,4-1.36c.68-.41.85-.47,1.16-.47s.95.3,2.89,1.66c.71.48,1.19.95,1.19,1.19s-.31.55-1.57,1.43C421,68.12,417.86,72.4,413.1,75.36Zm17.34-22a3.42,3.42,0,1,1-3.37-3.4A3.43,3.43,0,0,1,430.44,53.33Zm-5.51,0A2.09,2.09,0,1,0,427,51.22,2.09,2.09,0,0,0,424.93,53.3Z"/><path class="cls-1" d="M446.9,72c0,.34.1.44.4.44,1.5,0,7-3.23,10.68-6.22a43,43,0,0,0,7.61-7.75c.14-.2.24-.27.34-.27a.36.36,0,0,1,.31.3,19,19,0,0,1-1.53,2.89,33.67,33.67,0,0,1-8.13,8.91,39.85,39.85,0,0,1-6.66,4.42A7.72,7.72,0,0,0,447,76.86a.6.6,0,0,1-.48.3c-.78,0-3.06-2.24-3.06-3,0-.13,0-.13.31-.78a6.18,6.18,0,0,0,.37-2.62V68.43c0-3.23,0-5.1,0-5.58,0-3.43-.55-4.76-2.11-5-.41,0-.51-.1-.51-.27s.1-.24.34-.31a10.81,10.81,0,0,1,2-.41,4.61,4.61,0,0,1,2.55,1.09c1.19.89,1.63,1.43,1.63,1.87,0,.27,0,.31-.27.85-.48.75-.85,4.35-.88,8.81Z"/><path class="cls-1" d="M504,66.62c0,.68-.68,1.13-1.74,1.13-.3,0-1.39-.11-2.85-.24-.72-.07-1.74-.1-3-.1-8.49,0-13.53.47-16.08,1.49a1.28,1.28,0,0,1-.47.1,6.07,6.07,0,0,1-2.93-1.12,3.17,3.17,0,0,1-1.22-2.75c0-.61.17-.95.51-.95.1,0,.17.07.34.34.51.85,1.63,1.15,4.35,1.15s11.05-.51,13.4-.78a26.4,26.4,0,0,0,5.4-1.16C502.52,64.31,504,65.3,504,66.62Z"/><path class="cls-1" d="M524.79,71.55c0,1.19,0,2.32.07,2.72.1,1.4.13,2.55.13,3,0,1.73-.68,3.06-1.53,3.06s-2.41-2.15-2.41-3.4a10.14,10.14,0,0,1,.34-1.91,88.12,88.12,0,0,0,.47-9c0-2.28-.17-8.87-.23-9.83-.17-2.1-.51-2.55-2.15-2.55-.17,0-.27-.06-.27-.23,0-.45,2-1.4,3-1.4a3.61,3.61,0,0,1,2.45,1.43A3.17,3.17,0,0,1,525.6,55c0,.24,0,.31-.47,1.33a24.46,24.46,0,0,0-.48,5.54c3.2.27,5.07.78,6.94,2,1.7,1.09,2.82,2.55,2.82,3.78a1.73,1.73,0,0,1-1.8,1.8,2.07,2.07,0,0,1-1.57-.72A9.32,9.32,0,0,1,530,67.07a12,12,0,0,0-5.34-4.56l.07,3.09,0,2.79Z"/></g></g></svg>