<svg xmlns="http://www.w3.org/2000/svg" width="869.188" height="70.5" viewBox="0 0 434.594 35.25">
  <defs>
    <style>
      .cls-1 {
        fill: #333;
        fill-rule: evenodd;
      }
    </style>
  </defs>
  <path id="ランチ以外のメニュー" class="cls-1" d="M522.27,6819.09a0.258,0.258,0,0,0-.234.19,5.062,5.062,0,0,0,1.091,1.87,4.1,4.1,0,0,0,3.348,1.48,37.465,37.465,0,0,0,6.426-.93c1.908-.39,3.115-0.59,4.789-0.78,0.935-.16,1.4-0.43,1.4-0.9,0-.85-2.258-2.22-3.621-2.22a2.219,2.219,0,0,0-1.052.43,6.741,6.741,0,0,1-2.064.78,34.974,34.974,0,0,1-6.97,1.05,4.29,4.29,0,0,1-2.8-.78A0.41,0.41,0,0,0,522.27,6819.09Zm19.548,10.16a2.707,2.707,0,0,1,.857-0.5,1.214,1.214,0,0,0,.467-0.28,0.678,0.678,0,0,0,.156-0.42c0-.36,0-0.36-0.857-1.21-1.752-1.75-2.414-2.22-2.959-2.22a4.2,4.2,0,0,0-1.519.54,9.613,9.613,0,0,1-3,.94,100.939,100.939,0,0,1-12.071,1.59c-1.441,0-2.843-.54-3.271-1.28a0.484,0.484,0,0,0-.351-0.35q-0.349,0-.35.93c0,1.76,2.142,4.01,3.816,4.01a3.388,3.388,0,0,0,1.519-.58,50.979,50.979,0,0,1,11.955-2.65c0.817,0,1.285.24,1.285,0.7a10.551,10.551,0,0,1-1.052,2.96,25.847,25.847,0,0,1-5.1,8.26,24.629,24.629,0,0,1-11.1,6.93c-0.312.08-.428,0.19-0.428,0.35a0.351,0.351,0,0,0,.428.31,21.686,21.686,0,0,0,5.88-1.32,28.013,28.013,0,0,0,10.163-7.28C538.158,6836.5,539.559,6834.08,541.818,6829.25Zm23.956-9.19c-1.4,0-2.375.2-2.375,0.51,0,0.12.117,0.19,0.428,0.27a11.4,11.4,0,0,1,5.686,5.22c0.545,1.17.895,1.48,1.674,1.48a2.15,2.15,0,0,0,2.142-2.06C573.329,6822.79,569.552,6820.06,565.774,6820.06Zm25,0.12a1.06,1.06,0,0,0-.584.47c-2.375,3.15-8.022,8.6-13.123,12.61-4.244,3.35-7.866,5.26-9.969,5.26a3.182,3.182,0,0,1-2.3-.93c-0.2-.39-0.234-0.39-0.351-0.39-0.311,0-.545.74-0.545,1.55,0,0.86.545,1.68,2.025,3.08a5.134,5.134,0,0,0,2.726,1.64,1.093,1.093,0,0,0,.545-0.24c0.273-.19.506-0.43,0.74-0.62a4.571,4.571,0,0,1,.74-0.51,58.389,58.389,0,0,0,16.589-15.07c1.635-2.22,3.777-5.96,3.777-6.58A0.336,0.336,0,0,0,590.774,6820.18Zm29.681,8.29c-6.815.9-9.229,1.13-12.072,1.13-1.869,0-2.648-.19-3.076-0.81-0.2-.28-0.234-0.32-0.35-0.32a0.924,0.924,0,0,0-.312.9,3.614,3.614,0,0,0,.9,2.06,5.471,5.471,0,0,0,3.076,1.6,1.9,1.9,0,0,0,.973-0.31c1.753-.78,4.751-1.48,10.748-2.49-0.389,8.13-3.933,14.09-10.086,16.97a0.515,0.515,0,0,0-.389.35,0.27,0.27,0,0,0,.273.28,10.992,10.992,0,0,0,2.414-.74,18.494,18.494,0,0,0,6.191-3.9c3.31-3.27,5.024-7.47,5.413-13.35,2.414-.2,4.4-0.28,5.608-0.28a47.485,47.485,0,0,1,5.334.39,6.194,6.194,0,0,0,.7.08,0.875,0.875,0,0,0,.935-0.78,2.358,2.358,0,0,0-1.129-1.59c-1.441-1.17-2.337-1.72-2.921-1.72a2.1,2.1,0,0,0-1.051.39c-1.207.59-2.609,0.9-7.321,1.64a11.9,11.9,0,0,1,.273-2.85,1.6,1.6,0,0,0,.116-0.31c0-.31-0.778-0.97-1.947-1.59-0.467-.28-0.506-0.28-0.74-0.43a40.564,40.564,0,0,0,4.44-1.91c1.6-.74,2.1-1.13,2.1-1.64s-0.428-.97-1.635-1.71c-1.83-1.13-2.531-1.44-3.076-1.44-0.312,0-.468.08-0.507,0.27a0.876,0.876,0,0,1,.351.67c0,0.89-.9,1.79-3.271,3.27a39.44,39.44,0,0,1-10.28,4.59c-0.429.12-.546,0.23-0.546,0.43a0.29,0.29,0,0,0,.351.27,44.827,44.827,0,0,0,9.579-1.87C620.027,6824.11,620.3,6825.59,620.455,6828.47Zm30.42,15.11a1.1,1.1,0,0,0,.818.47,0.891,0.891,0,0,0,.74-0.7l0.389-1.05c4.946-2.14,9.463-4.25,12.422-5.65,2.415-1.21,2.726-1.36,2.726-1.67a0.314,0.314,0,0,0-.35-0.31,4.752,4.752,0,0,0-1.285.31c-5.958,1.83-7.749,2.37-9.657,2.8v-18.34l0.778-.47a0.835,0.835,0,0,0,.507-0.74,0.861,0.861,0,0,0-.9-0.85l-3.972-.51v21.84c-3.154.78-3.31,0.82-4.984,1.13Zm27.8-26.24a0.828,0.828,0,0,0,.428-0.7,0.858,0.858,0,0,0-.818-0.86l-4.478-.66c-0.078,13.63-.623,18.45-2.57,22.23-2.414,4.95-6.892,8.18-14.758,10.55-0.9.28-1.168,0.43-1.168,0.71a0.351,0.351,0,0,0,.428.31,42.781,42.781,0,0,0,9-2.38c4.439-1.79,6.737-3.58,9.073-7.09a14.428,14.428,0,0,1,4.44,5.5c1.323,2.53,1.323,2.53,1.791,2.95a1.473,1.473,0,0,0,1.051.43,1.732,1.732,0,0,0,1.714-1.9,5.845,5.845,0,0,0-1.947-4.02c-1.6-1.63-3-2.49-6.542-3.89,2.1-4.28,3.037-10.16,3.193-20.6Zm-17.952.11a0.381,0.381,0,0,0-.35.35,0.976,0.976,0,0,0,.234.35,11.579,11.579,0,0,1,3.738,6.16c0.74,2.41,1.09,2.88,2.1,2.88a1.918,1.918,0,0,0,1.869-2.18c0-1.91-1.285-3.97-3.388-5.53A13.532,13.532,0,0,0,660.727,6817.45Zm57.874-1.13,0.857-.42a0.787,0.787,0,0,0,.545-0.74,0.888,0.888,0,0,0-.857-0.82l-4.089-.39v14.48a15.939,15.939,0,0,1-2.764-5.8l0.584-.19a0.539,0.539,0,0,0,.389-0.51,0.8,0.8,0,0,0-.389-0.62l-3.31-2.81-1.285,2.3h-5.841c0.584-1.67.662-1.94,1.246-3.77l0.895-.39a0.8,0.8,0,0,0,.662-0.74,0.78,0.78,0,0,0-.584-0.71l-4.595-1.24c-0.662,7.51-3.037,14.99-6.542,20.4a2.56,2.56,0,0,0-.584,1.17,0.222,0.222,0,0,0,.2.24c0.74,0,4.322-4.4,5.841-7.17,1.441,1.13,1.869,1.83,3,4.63,0.507,1.25,1.013,1.76,1.753,1.72a3.967,3.967,0,0,0,.584-0.08,28.194,28.194,0,0,1-10.475,11.57,0.832,0.832,0,0,0-.468.58,0.193,0.193,0,0,0,.234.19,23.949,23.949,0,0,0,4.011-1.9c4.984-3,7.593-5.65,10.086-10.25a46.893,46.893,0,0,0,4.01-10.9,22.36,22.36,0,0,0,3.349,7.71v16.47c0,0.63.156,0.86,0.623,0.86a9,9,0,0,0,2.259-.51,0.751,0.751,0,0,0,.662-0.81v-11.96a31.575,31.575,0,0,0,7.9,5.41,10.778,10.778,0,0,1,3.5-3.5,31.825,31.825,0,0,1-11.409-5.69v-15.81Zm-10.4,5.53a56.7,56.7,0,0,1-2.8,10.56c-0.467-2.53-2.453-3.98-6.075-4.44a62.583,62.583,0,0,0,2.765-6.12H708.2Zm48.956-1.9c0.428-.04.7-0.04,0.818-0.04a9.4,9.4,0,0,1,4.011.93c3.387,1.71,5.14,5.26,5.14,10.48,0,4.79-1.6,8.33-4.985,11.09a21.041,21.041,0,0,1-6.97,3.63c-0.623.19-.74,0.23-0.74,0.42,0,0.16.156,0.24,0.39,0.24a17.194,17.194,0,0,0,2.492-.47,23.861,23.861,0,0,0,7.2-2.65,14.342,14.342,0,0,0,7.2-12.46,11.733,11.733,0,0,0-3.077-8.21,15.016,15.016,0,0,0-10.942-4.29c-9.112,0-16.939,7.36-16.939,15.93a10.107,10.107,0,0,0,1.908,6.27,4.721,4.721,0,0,0,3.271,2.14c2.142,0,5.53-2.77,7.827-6.35a25.035,25.035,0,0,0,3.894-12.65A14.88,14.88,0,0,0,757.16,6819.95Zm-1.908.15a1.869,1.869,0,0,0,.078.27,9.38,9.38,0,0,1,.233,2.18c0,3.47-1.479,7.79-3.972,11.65-1.635,2.57-3.855,4.59-5.062,4.59s-2.258-2.02-2.258-4.32a15.224,15.224,0,0,1,4.6-10.86A14.626,14.626,0,0,1,755.252,6820.1Zm52.071,9.62a45.912,45.912,0,0,0,3.154-5.8,3.179,3.179,0,0,1,.974-1.48,0.9,0.9,0,0,0,.545-0.74c0-.59-1.168-2.03-2.453-3a7.186,7.186,0,0,0-3.31-1.52,0.566,0.566,0,0,0-.545.39,0.312,0.312,0,0,0,.117.16,3.39,3.39,0,0,1,1.09,2.72c0,1.64-.818,4.21-2.375,7.32a19.31,19.31,0,0,0-9.035-2.92,0.573,0.573,0,0,0-.662.35c0,0.24.2,0.35,0.857,0.55,2.57,0.85,4.439,2.06,7.243,4.63-4.6,6.23-9.969,11.14-15.187,13.9-1.012.51-1.168,0.63-1.168,0.82a0.339,0.339,0,0,0,.312.35c0.856,0,5.295-1.83,7.593-3.11,3.933-2.26,6.97-4.91,10.864-9.7a22.647,22.647,0,0,1,3,3.82c0.895,1.32,1.168,1.55,1.869,1.55a1.977,1.977,0,0,0,1.947-2.06C812.152,6834.12,810.672,6832.21,807.323,6829.72Zm44.089-7.98a10.989,10.989,0,0,1-3,1.4,39.245,39.245,0,0,1-6.854,1.01,7.565,7.565,0,0,1-3.232-.82,1.209,1.209,0,0,0-.273-0.15,0.18,0.18,0,0,0-.194.15,3.194,3.194,0,0,0,.7,1.44c1.051,1.6,1.908,2.18,3.31,2.18a28.752,28.752,0,0,0,5.373-.73c2.064-.39,3-0.51,5.608-0.9,2.1-.31,2.609-0.55,2.609-1.17C855.462,6823.1,853.709,6822.05,851.412,6821.74Zm-20.249,14.13a0.352,0.352,0,0,0-.351.35c0,1.91,2.454,4.6,4.167,4.6a4.721,4.721,0,0,0,1.558-.39c3.972-1.48,10.942-2.42,18.263-2.42a32.995,32.995,0,0,1,6,.47,14.486,14.486,0,0,0,1.557.16,1.024,1.024,0,0,0,1.168-.98,2.573,2.573,0,0,0-1.44-2.06c-1.792-1.29-2.57-1.71-3-1.71a3.616,3.616,0,0,0-1.051.27,16.406,16.406,0,0,1-6.036,1.52c-7.476.93-14.057,1.56-16.121,1.56-2.181,0-3.739-.39-4.323-1.06A0.538,0.538,0,0,0,831.163,6835.87Zm61.534,3.43c-0.857.08-1.713,0.19-2.531,0.27-0.273,0-2.492.27-5.179,0.59-2.882.31-2.882,0.31-3.271,0.31a3.713,3.713,0,0,1-2.531-.66c-0.117-.2-0.117-0.2-0.195-0.2a1.181,1.181,0,0,0-.467,1.17c0,0.43.272,0.74,1.051,1.36a5.276,5.276,0,0,0,2.453,1.05,5.2,5.2,0,0,0,2.142-.66,11.288,11.288,0,0,1,2.648-.82,64.547,64.547,0,0,1,9.579-.93,41.833,41.833,0,0,1,7.126.62,6.578,6.578,0,0,0,1.13.2,1.043,1.043,0,0,0,1.168-.86c0-.9-2.181-2.96-3.154-2.96a1.914,1.914,0,0,0-.546.12,14.09,14.09,0,0,1-4.361.89c-0.311.04-1.246,0.12-2.258,0.24,0.7-3.2,1.051-4.68,1.986-7.79,0.817-.7.973-0.9,0.973-1.17,0-.35-0.234-0.58-1.441-1.44-1.713-1.21-1.752-1.25-1.986-1.25a1.293,1.293,0,0,0-.7.31,11.06,11.06,0,0,1-2.3.98,37.889,37.889,0,0,1-6.192,1.13,2.091,2.091,0,0,1-1.713-.74c-0.273-.47-0.273-0.47-0.428-0.47-0.312,0-.468.27-0.468,0.9a2.543,2.543,0,0,0,1.246,2.41,2.294,2.294,0,0,0,1.363.51,8.892,8.892,0,0,0,2.8-.9,14.669,14.669,0,0,1,4.439-1.36,0.757,0.757,0,0,1,.662.89A70.827,70.827,0,0,1,892.7,6839.3Zm55.887-10.59a30.66,30.66,0,0,1-6.191,1.32c-2.687.31-12.383,0.9-15.343,0.9-3.115,0-4.4-.35-4.984-1.33a0.573,0.573,0,0,0-.389-0.39c-0.39,0-.584.39-0.584,1.09a3.648,3.648,0,0,0,1.4,3.16,7.017,7.017,0,0,0,3.349,1.28,1.69,1.69,0,0,0,.545-0.11c2.921-1.17,8.684-1.72,18.419-1.72,1.441,0,2.609.04,3.427,0.12,1.674,0.16,2.921.27,3.271,0.27,1.207,0,1.986-.5,1.986-1.28C953.491,6830.5,951.855,6829.37,948.584,6828.71Z" transform="translate(-518.906 -6813.94)"/>
</svg>
