<svg xmlns="http://www.w3.org/2000/svg" viewBox="0 0 399.97 63.86"><defs><style>.cls-1{fill:#343434;}</style></defs><title>title-left-title</title><g id="Layer_2" data-name="Layer 2"><g id="Layer_1-2" data-name="Layer 1"><path class="cls-1" d="M4.52,3.41H11.6V.05l1.79.24c.49.05.7.2.7.52a.53.53,0,0,1-.36.46l-.42.21V3.41H20.2l1.38-1.69,1.87,1.45a.76.76,0,0,1,.34.57c0,.19-.13.29-.36.29H4.13L4.19,9.2v.26c0,5.31-.52,8.19-1.93,10.69-.86,1.53-1.77,2.73-2,2.73A.2.2,0,0,1,0,22.7a.75.75,0,0,1,.13-.37,20.82,20.82,0,0,0,1.69-4.39,26.5,26.5,0,0,0,.7-7.28c0-1.4,0-1.4-.13-6.19L2.34,2.18ZM8.45,15c-.86,0-1.51,0-3.2.08l-.31-.81c1.87.08,2.63.11,3.51.11H19.74L21,13l1.61,1.19a.84.84,0,0,1,.37.58c0,.18-.16.28-.42.28H12.27a21.27,21.27,0,0,1-2.42,2.6h9l.65-1.06,1.69,1.27a.65.65,0,0,1,.26.44c0,.18-.11.29-.37.34l-.38.1v4.24c0,.24-.71.52-1.25.52a.33.33,0,0,1-.34-.31v-1H9.85v.62c0,.39-.57.76-1.22.76-.23,0-.31-.13-.31-.44V19a16.5,16.5,0,0,1-3.07,2.14,7.75,7.75,0,0,1-2.29,1A.18.18,0,0,1,2.78,22c0-.1,0-.1,1.22-.94a20.42,20.42,0,0,0,6-6ZM5,8l-.24-.83,3.67.1V4.58l1.69.18c.34,0,.55.21.55.47s-.11.28-.34.41l-.47.26V7.25h1.17L12.12,6l1.56,1.24H16.2V4.55L18,4.76c.29,0,.47.18.47.39s-.1.26-.28.39l-.52.28V7.25H20l1.14-1.4,1.77,1.3c.18.16.26.26.26.39s-.13.36-.31.36H18.07A15.65,15.65,0,0,0,24.21,12c-1.12.55-1.36.73-1.75,1.33a15.67,15.67,0,0,1-4.75-4.76v4.65c0,.34-.47.6-1.07.6a.4.4,0,0,1-.44-.39V10c-1.79,1.87-3.62,3.43-4,3.43a.2.2,0,0,1-.21-.18c0-.16.16-.32.86-1A18.16,18.16,0,0,0,16,7.9H9.88v.89c1.87.31,3,1.06,3,2.05a.8.8,0,0,1-.76.76c-.26,0-.44-.13-.7-.55A4.18,4.18,0,0,0,9.88,9.36v3.82c0,.31-.49.63-1,.63-.32,0-.42-.11-.42-.42v-3c-1.72,1.87-3.3,3.3-3.69,3.3a.17.17,0,0,1-.16-.16.42.42,0,0,1,.13-.23A18.59,18.59,0,0,0,8.22,7.9Zm14,13.5V18.23H9.85v3.25Z"/><path class="cls-1" d="M32.36,2.47A8.35,8.35,0,0,1,32.73,4h7V.34l2.18.18c.39,0,.63.21.63.49s-.11.29-.34.47l-.57.39V4h6.71l1-1.27,2.18,1.87a1.42,1.42,0,0,1,.6,1c0,.36-.28.54-.88.54H50l-2.5,1.67-.2-.19,1.27-3H32.81a5.73,5.73,0,0,1-.31,2.11c-.37,1.09-1.17,1.9-1.93,1.9a.9.9,0,0,1-.94-.94c0-.57,0-.62,1.38-2.1a4.92,4.92,0,0,0,.89-3.1Zm7.41,12.9h-3c-1.28,0-2.19,0-4.37.1l-.21-.86c2.21.11,3,.13,4.58.13h3V9.91h-4.1c-1.38,0-2.21,0-4.24.1l-.36-.86c2.23.11,3.06.13,4.6.13h11.1l1.56-1.66L50.2,9.05c.29.21.37.34.37.52a.34.34,0,0,1-.37.34H41.59v4.83H46.2l1.4-1.53,1.82,1.35a.63.63,0,0,1,.29.49.36.36,0,0,1-.37.32H41.59v6.21h6.92l1.59-1.74,2,1.58a.67.67,0,0,1,.26.5.33.33,0,0,1-.36.28H34.91c-1.87,0-2.65,0-4.94.13l-.28-.91c2.44.13,3.14.16,5.22.16h4.86ZM43,16.54c2.7.15,4.6,1.48,4.6,3.17a1,1,0,0,1-.91,1.06.73.73,0,0,1-.49-.2c0-.06,0-.06-1.07-1.64a6.62,6.62,0,0,0-2.24-2Z"/><path class="cls-1" d="M60.73,16.2V2.05l1.82,1.17a20.26,20.26,0,0,0,6-3.19l1.53,1.48a.84.84,0,0,1,.24.44.38.38,0,0,1-.39.34l-1.3,0a56.39,56.39,0,0,1-6.37,1.77V15.91c2.21-.44,2.57-.52,5-1.12.13-1.74.19-2.34.19-3.82V4l2,.26a.58.58,0,0,1,.52.5.73.73,0,0,1-.39.57l-.47.28,0,6.37c0,5-1.07,7.49-3.93,9.39a16.67,16.67,0,0,1-4.13,2c-.73.26-.78.28-.91.28a.23.23,0,0,1-.26-.23c0-.13.1-.24.57-.42,4-1.53,6.32-4.08,6.78-7.38A62.27,62.27,0,0,1,61,17.94l-.29.65a.7.7,0,0,1-.54.44.55.55,0,0,1-.45-.28l-1.48-2.19ZM63,6.89c2.23,1.22,3.48,2.86,3.48,4.52,0,.78-.39,1.25-1,1.25a.68.68,0,0,1-.57-.26c-.16-.23-.16-.23-.34-1.64a6.05,6.05,0,0,0-1.69-3.51ZM73.65,3h4.86l.7-1.2L80.9,3.25a.9.9,0,0,1,.39.62c0,.19-.18.34-.52.5l-.39.18V17.63a1.77,1.77,0,0,1-.83,1.79A3.18,3.18,0,0,1,78.3,20c-.18,0-.18,0-.49-1.07a.68.68,0,0,0-.29-.21l-2.18-.85v-.32l2.23.06.16,0c.78,0,1.07-.18,1.09-1v-13H73.36V22.7c0,.23-.15.41-.44.55a2.32,2.32,0,0,1-.83.28.32.32,0,0,1-.29-.36V1.69ZM74,7.36c2.42,1.3,3.72,2.88,3.72,4.57,0,.73-.34,1.17-.86,1.17a1,1,0,0,1-.7-.31c-.16-.21-.16-.21-.44-1.79a7,7,0,0,0-1.82-3.28Z"/><path class="cls-1" d="M98.32,13a5.58,5.58,0,0,1-1.15-3.88c0-.72.08-2.54.16-4.05l0-.81c0-1.4-.59-1.95-2.08-1.95a.78.78,0,0,0-.31,0h0c-.16,0-.23,0-.23-.13,0-.34,1.27-.76,2.34-.76A4.35,4.35,0,0,1,99.17,2a1.26,1.26,0,0,1,.6,1.17,5.56,5.56,0,0,1-.31,1.51,25.06,25.06,0,0,0-.88,5.79c0,1,.31,1.75.78,1.75A9.29,9.29,0,0,0,102,10.76a.91.91,0,0,1,.68-.31c.75,0,1.72.65,1.72,1.15s-.39.65-1.33.93a25.24,25.24,0,0,1-3.2.65,5.83,5.83,0,0,0-2.21.89c-1.92,1.11-2.91,2.57-2.91,4.29s1.51,2.75,4.52,2.75a17.42,17.42,0,0,0,5.38-1,1.45,1.45,0,0,1,.63-.18,1.73,1.73,0,0,1,1.48,1.43.72.72,0,0,1-.47.6,17.52,17.52,0,0,1-5.51.72,14.05,14.05,0,0,1-5-.72,3.82,3.82,0,0,1-2.58-3.46c0-2,1.93-4.16,4.81-5.46Z"/><path class="cls-1" d="M120.62.08l2,.15c.36,0,.57.19.57.47a.67.67,0,0,1-.37.52l-.67.47v8.5h1.53l1.38-1.58,1.43,1.3a.73.73,0,0,1,.31.54.39.39,0,0,1-.36.39h-4.29v2.32a9.9,9.9,0,0,1,1.72.62c1.27.6,1.87,1.33,1.87,2.26a.92.92,0,0,1-.84,1c-.44,0-.59-.18-1.14-1.37a5.24,5.24,0,0,0-1.61-2v9.23a.84.84,0,0,1-.13.52,1.94,1.94,0,0,1-1,.36c-.24,0-.39-.21-.39-.52V15.11A20.84,20.84,0,0,1,118,19.27c-.71.83-1,1.11-1.17,1.11a.22.22,0,0,1-.21-.18c0-.13,0-.13.47-.91,1.79-3,3.27-6.58,3.48-8.45l-2,0-2,.05-.21-.81,4.24.11ZM117,3a6.12,6.12,0,0,1,2.63,4.84c0,.8-.36,1.27-1,1.27s-.75-.31-.75-1.59a8.18,8.18,0,0,0-1.09-4.29Zm9.21.49a.61.61,0,0,1,.44.55c0,.23-.1.31-.44.47l-.55.21a46.18,46.18,0,0,1-2.52,4.42l-.39-.21a61.83,61.83,0,0,0,1.72-6.16Zm1.76-2.26,1.77,1.15h5.62l.88-1.17L137.75,3a.66.66,0,0,1,.21.39c0,.13-.1.24-.34.34l-.49.24V21.84h.42l1.32-1.77,1.74,1.67a.58.58,0,0,1,.21.44c0,.23-.18.36-.49.36H127.82c-1.09,0-1.84,0-3.48.05l-.29-.8,2.29.05,1.58.05Zm7.55,7.7V3h-5.91V8.92Zm0,6.5V9.54h-5.91v5.88Zm0,6.47V16h-5.91v5.85Z"/><path class="cls-1" d="M149.47.1l2.29.16a.48.48,0,0,1,.42.49.53.53,0,0,1-.29.45l-.86.52v4.6h1.28l1.25-1.46,1.56,1.22a.75.75,0,0,1,.31.52.31.31,0,0,1-.31.34H151v5.64c1.41-.49,1.67-.57,3.36-1.19l.1.49L151,13.65v7.93a1.36,1.36,0,0,1-.72,1.35,2.66,2.66,0,0,1-1.1.52c-.23,0-.23,0-.41-1a.61.61,0,0,0-.34-.21l-2.24-.7-.05-.39H149a.49.49,0,0,0,.44-.52V14.46l-1.53.75-.21.49c-.1.32-.28.5-.47.5a.51.51,0,0,1-.39-.26L145.6,14.2c1.92-.52,2.21-.6,3.87-1.12V6.94c-1.71,0-2,0-3.74.08l-.21-.81c1.9.11,2.19.11,3.95.11Zm7.41,13.34v1.2c0,.34-.54.7-1.09.7a.32.32,0,0,1-.34-.36V9.15a9.78,9.78,0,0,1-2.75,2.34.2.2,0,0,1-.21-.18c0-.13,0-.13.57-.7A24.92,24.92,0,0,0,158.6,0l2,1c.28.13.39.29.39.47s-.16.39-.5.49l-.54.16c-.39.83-.47,1-.81,1.64h4.16l.86-1.12L165.83,4a.82.82,0,0,1,.36.58c0,.18-.15.28-.47.39l-.85.26-2.66,3.06h4l.7-1,1.51,1.27a.45.45,0,0,1,.21.34c0,.11-.08.21-.26.34l-.47.31V14.3c0,.29-.65.65-1.17.65-.18,0-.31-.16-.31-.39V13.44h-3V20.7c0,.62.19.8.84.8l1.48,0c1.74.05,1.84-.11,2.52-3.77h.44v3a.65.65,0,0,0,.08.41,5.19,5.19,0,0,0,.47.37.5.5,0,0,1,.18.36.77.77,0,0,1-.44.65c-.6.31-1.2.37-4.21.37-2.4,0-2.84-.24-2.84-1.46v-8h-1.64l0,.37L160,15.26a9.56,9.56,0,0,1-4.39,7.23,11.76,11.76,0,0,1-3,1.33.24.24,0,0,1-.24-.21c0-.13,0-.13.7-.47,3.7-2.05,5.1-4.52,5.49-9.7Zm.29-5.15h4c1-1.92,1.17-2.23,2-3.95h-4.37A37.48,37.48,0,0,1,156.49,8Zm3.67,4.53V8.92h-4v3.9Zm5.56,0V8.92h-4.08v3.9Z"/><path class="cls-1" d="M190.73,9a8.85,8.85,0,0,0,1.72-1.14c.34-.37.41-.42.62-.42.83,0,1.77.44,1.77.83s-.52.81-2.24,1.62a20.85,20.85,0,0,1-2.83,1.19,36.4,36.4,0,0,0,2.57,3.25,3.44,3.44,0,0,1,1.09,2.34A1.72,1.72,0,0,1,192,18.56c-.18,0-.28-.07-.7-.44a8.51,8.51,0,0,0-5.67-2.05c-2.26,0-3.74,1.12-3.74,2.78,0,1.48,1.43,2.26,4.13,2.26.37,0,.73,0,1.2,0s.75,0,1,0c1,0,1.33.18,1.33.75,0,.89-.68,1.23-2.39,1.23a12.39,12.39,0,0,1-4.27-.71,3.46,3.46,0,0,1-2.44-3.27c0-2.24,2.08-3.64,5.4-3.64a12.85,12.85,0,0,1,4,.78,1.61,1.61,0,0,0,.75.23A.48.48,0,0,0,191,16c0-.52-.73-2-2.19-4.47a27.83,27.83,0,0,1-7.3,1.17c-1.85,0-3-.93-3-2.39,0-.16.08-.29.18-.29s.16.06.31.37a2.84,2.84,0,0,0,2.68,1.19,18.45,18.45,0,0,0,6.4-1.22c-.47-.91-.52-1-1.59-2.81a15,15,0,0,1-4,.63c-1.56,0-2.68-.73-2.68-1.74,0-.19.11-.32.21-.32s.13,0,.18.26c.16.55.81.86,1.75.86a10.24,10.24,0,0,0,3.84-.78,22.72,22.72,0,0,0-2-2.83,2.62,2.62,0,0,0-2-1,.44.44,0,0,0-.21,0,.64.64,0,0,1-.21,0,.12.12,0,0,1-.1-.11,1.73,1.73,0,0,1,.6-.7,1.89,1.89,0,0,1,1.3-.49,3.7,3.7,0,0,1,2.08.7c.23.21.28.31.28.91,0,.78.26,1.38,1.28,3.09a6.31,6.31,0,0,0,1.45-1c.39-.34.63-.47.83-.47.53,0,1.28.55,1.28.88s-1,1.07-2.89,1.85c.68,1.14,1,1.69,1.59,2.6A10,10,0,0,0,190.73,9Z"/><path class="cls-1" d="M207.75,14c-.49,0-.54,0-3.17.08l-.31-.81,3.48.1h1.1a31.47,31.47,0,0,0,.47-4.65h-1c-1.43,0-1.66,0-3.17.08L204.82,8l2,.08c.7,0,1.4,0,1.53,0h1c.05-2,.07-3.8.1-5.13h-1.25L205,3l-.28-.8,1.95,0,1.53,0h6.24l.68-1.12,1.61,1.41a.77.77,0,0,1,.31.54c0,.16-.1.26-.31.37l-.57.28c0,3.69,0,3.69,0,4.4,0,5.69-.28,9.07-.93,11.2-.63,1.95-1.74,3.1-3.07,3.1-.39,0-.47-.11-.47-.6v-.34a.43.43,0,0,0-.05-.21l-.37-.18-1.89-.88.08-.21,2,.23a1.47,1.47,0,0,0,.41,0,1.56,1.56,0,0,0,1.72-1.15c.49-1.14.7-2.26.93-5.22h-4.13a10.62,10.62,0,0,1-2.86,5.51c-1.12,1.2-3.09,2.65-3.56,2.65a.17.17,0,0,1-.18-.15c0-.13,0-.13.83-.84A12.57,12.57,0,0,0,208.74,14Zm6.74-.63,0-1.17,0-1.45c0-.26,0-1.12,0-2h-3.64a33.47,33.47,0,0,1-.5,4.65Zm.08-5.27V3h-3.46c0,2.55-.05,3.23-.16,5.13ZM220.94,2h3.14l.58-.94L226.5,2.6a.73.73,0,0,1,.29.52c0,.23-.13.36-.42.49l-.47.19-3.17,5.87c2.65,2,4.14,4.24,4.14,6.16A3.92,3.92,0,0,1,225.62,19a2.33,2.33,0,0,1-1.64.73c-.31,0-.31,0-.52-.75-.1-.31-.13-.31-.63-.52l-1.63-.6v-.29l1.74.08.73,0c.88,0,1.32-.68,1.32-2a5.92,5.92,0,0,0-1.14-3.56,11,11,0,0,0-1.33-1.74c-.28-.31-.28-.31-.49-.57l2.13-7.18h-3.53v20c0,.2-.08.33-.34.46a2.34,2.34,0,0,1-.86.24.41.41,0,0,1-.44-.47V.88Z"/><path class="cls-1" d="M241.55,2.05a.57.57,0,0,1,.21.45c0,.28-.16.41-.55.46l-.75.11a30.43,30.43,0,0,1-5,4.7A8.88,8.88,0,0,1,233,9.36a.23.23,0,0,1-.21-.21c0-.1.06-.13.73-.7A30.14,30.14,0,0,0,239.7.7Zm.37,6a.7.7,0,0,1,.23.44c0,.23-.16.36-.52.41l-.73.11A35.62,35.62,0,0,1,235.7,14a7.82,7.82,0,0,1-2.37,1.48.23.23,0,0,1-.23-.23c0-.13,0-.13.75-.76a31.42,31.42,0,0,0,6.38-7.67ZM243,14.33a.39.39,0,0,1,.1.26.4.4,0,0,1-.41.41l-.6.11a26.65,26.65,0,0,1-6,5.77,11.79,11.79,0,0,1-2.68,1.56.21.21,0,0,1-.18-.21c0-.13.1-.23.73-.73a32.5,32.5,0,0,0,7.33-8.68Zm5.57,5.25a.52.52,0,0,1,.2.39.47.47,0,0,1-.52.41h-.88a28.76,28.76,0,0,1-4.84,2.37,10.29,10.29,0,0,1-2,.6c-.16,0-.28-.08-.28-.21s.15-.23,1.11-.68a18.79,18.79,0,0,0,5.59-4.23ZM242.07,2.11l1.79.05,1.85,0h7L254.29.52l2.13,1.59c.24.15.34.31.34.44s-.1.28-.36.28h-6.16l-1.85,3.23h4L253.2,5l1.61,1.41a.75.75,0,0,1,.24.44.45.45,0,0,1-.32.36l-.52.21v10.5c0,.47-.41.76-1.09.76-.36,0-.49-.11-.49-.42v-.73h-7.36v.94a.51.51,0,0,1-.26.47,2.11,2.11,0,0,1-.94.34.36.36,0,0,1-.33-.39v-14l2,1.17h1.38l.62-3.23h-2l-3.43.08Zm10.56,7.56v-3h-7.36v3Zm0,3.59v-3h-7.36v3Zm0,3.64v-3h-7.36v3Zm-3.15,1.25a13.58,13.58,0,0,1,4,1.51c1.46.83,2.34,1.87,2.34,2.67a1,1,0,0,1-.88,1c-.55,0-.55,0-2-1.82a12.8,12.8,0,0,0-3.54-3Z"/><path class="cls-1" d="M267.6,15.26h-1.93c-.75,0-.85,0-3.22.08l-.26-.83,1.79.08,1.69,0h1.93v-3.3h-2.78v1.12c0,.34-.53.62-1.1.62-.31,0-.41-.1-.41-.36V1.09l1.82,1.12h6.5l.65-1,1.5,1.53a.59.59,0,0,1,.19.42.39.39,0,0,1-.24.33l-.41.16v8.45c0,.31-.08.42-.34.52a2.66,2.66,0,0,1-.89.18c-.2,0-.26,0-.26-.34V11.31H269.1v3.3h2.81l1.3-1.43,1.64,1.33a.65.65,0,0,1,.26.44c0,.21-.15.31-.42.31H269.1v3.8c1.54-.21,3.49-.52,5.28-.89l.11.58c-4.45,1.3-5.41,1.56-10,2.65l-.34.7a.55.55,0,0,1-.49.34c-.19,0-.26-.05-.45-.34l-1.48-2.24c2.34-.18,3.2-.26,5.83-.59Zm0-8.81V2.86h-2.76V6.45Zm0,4.24V7.07h-2.76v3.62Zm4.23-4.24V2.86H269.1V6.45Zm0,4.24V7.07H269.1v3.62ZM284.06,9.1,285.82,11a.72.72,0,0,1,.21.47c0,.24-.13.31-.6.34l-1,.08-3.33,2.44-.31-.31a27.15,27.15,0,0,0,2.36-3.35H279.9V21.37A1.34,1.34,0,0,1,279,22.8a2.94,2.94,0,0,1-1,.37c-.29,0-.31-.06-.52-1a.37.37,0,0,0-.28-.26L275,21.27v-.42c.81,0,1.43,0,1.82,0,1.2,0,1.48-.13,1.48-.65V10.69h-.93l-1.59,0c-.26,0-.93,0-1.71,0l-.24-.8c2.08.08,2.78.1,3.54.1h5.82Zm-.68-7.72L285,3.17a.73.73,0,0,1,.23.55c0,.34-.18.47-.7.47h-.91c-1.4,1-1.8,1.27-4.06,2.75a2.29,2.29,0,0,1,.78,1.56,1,1,0,0,1-1,1.07c-.5,0-.65-.21-1.33-1.67a4.65,4.65,0,0,0-2.42-2.21l.16-.36A7.18,7.18,0,0,1,279,6.45a27.14,27.14,0,0,0,3.33-3.62h-4l-1.56.06-1.69,0-.23-.8,1.92.05,1.56,0h4.14Z"/><path class="cls-1" d="M304.69,12.25c1.07.67,1.46,1,1.46,1.27a.8.8,0,0,1-.15.36,1.32,1.32,0,0,0-.21.29,14.37,14.37,0,0,1-1.56,4.06,9.38,9.38,0,0,1-5.1,4.57,4.16,4.16,0,0,1-1.22.39c-.11,0-.26-.13-.26-.21s0-.07.1-.1a11.11,11.11,0,0,0,3.51-2.68,12.07,12.07,0,0,0,2.84-6.78,1.18,1.18,0,0,0-.5-1.07,8,8,0,0,0-2.44.49c-.47.16-.47.16-.52.16s-.39-.1-.65-.18a25.45,25.45,0,0,1-2.6,2.88,3.63,3.63,0,0,1-1.59,1c-.18,0-.31-.1-.31-.23s.1-.26.39-.49a13.13,13.13,0,0,0,2.78-3.41,12.56,12.56,0,0,0,1.67-4.32,1.2,1.2,0,0,0-.86-1.24q-.24,0-.24-.24c0-.13.13-.21.37-.21h.34a2.33,2.33,0,0,1,1.89.68c.65.49.92.75.92.91s0,.13-.24.34a1,1,0,0,0-.18.18l-.16.16a20.36,20.36,0,0,1-1.5,3,.84.84,0,0,0,.31.07l.26,0,.39-.05s.18,0,.31-.05c.34,0,.62-.11.86-.13l1.27-.16c3.07-.52,3.22-.57,4.26-1.14a1.77,1.77,0,0,1,.52-.21,1,1,0,0,1,.32.1l.41.16c1,.36,1.59.75,1.59,1.14a.51.51,0,0,1-.47.47l-1.3,0-1.2,0-.67,0-1,0Z"/><path class="cls-1" d="M325.23,2.42h14.45L341.25.7l2.31,1.72a.48.48,0,0,1,.21.36.27.27,0,0,1-.29.29h-9a1.49,1.49,0,0,1,.08.39.35.35,0,0,1-.19.34L334,4l-1.38,2.4H338l.68-1.1,1.79,1.54a.62.62,0,0,1,.18.36.38.38,0,0,1-.23.31l-.5.24V13.7a.64.64,0,0,1-.41.63,3.08,3.08,0,0,1-.91.28.33.33,0,0,1-.37-.31v-.86h-3.66V21c0,.84-.26,1.23-1.15,1.82a2.31,2.31,0,0,1-1.17.45c-.18,0-.26-.11-.28-.39a1.7,1.7,0,0,0-.21-.71,3,3,0,0,0-.78-.31l-1.79-.62.13-.42,2,.08h.14c1,0,1.29-.26,1.29-1v-6.5h-3.66v.94c0,.36-.63.73-1.28.73-.28,0-.41-.13-.41-.37V5.38l1.82,1h2.34l.47-3.33h-7.52c0,2.26.05,4,.05,5.12,0,5-.07,6.06-.59,7.9a13.5,13.5,0,0,1-2.89,5.41c-.55.65-.75.83-.91.83a.17.17,0,0,1-.18-.18,1.35,1.35,0,0,1,.18-.47,15,15,0,0,0,2-4.6,30.47,30.47,0,0,0,.68-8c0-2.47-.06-4.29-.19-7.91Zm5.22,14.14a.66.66,0,0,1,.26.5c0,.26-.2.41-.59.46l-.58.11a23,23,0,0,1-4.18,3.92,7,7,0,0,1-2,1.15.19.19,0,0,1-.21-.21c0-.16.11-.29.63-.75a19.73,19.73,0,0,0,4.83-6.43Zm7.8-6.94V7h-9.12v2.6Zm0,3.17V10.24h-9.12v2.55ZM336,15.5a14.53,14.53,0,0,1,3.33,1.58c2.11,1.33,3.35,2.78,3.35,3.93a1.17,1.17,0,0,1-1.11,1.17c-.39,0-.73-.26-1.07-.89-1.69-3-1.72-3-4.71-5.51Z"/><path class="cls-1" d="M349.69,13.47c2.94.13,4,.15,5.12.15h5.38V7.72h-5.14a21.89,21.89,0,0,1-3.23,4.79c-.26.26-.41.39-.52.39s-.15-.11-.15-.21,0-.11.57-1.07A24.26,24.26,0,0,0,354.79,2l2.41.75c.37.13.58.32.58.58s-.13.41-.45.52l-.8.36c-.47,1.27-.55,1.51-1.17,2.94h4.83V.18l2.34.21c.5,0,.73.21.73.49s-.15.39-.47.58l-.75.39V7.1H367l1.33-1.69,2.18,1.64a.52.52,0,0,1,.19.39c0,.13-.11.28-.19.28H362v5.9h6.71l1.51-1.87,2.34,1.8a.46.46,0,0,1,.2.36.36.36,0,0,1-.28.34H362v8.4c0,.41-.68.85-1.35.85-.29,0-.5-.15-.5-.41V14.25h-5.38c-1.56,0-2.49,0-4.81.13Z"/><path class="cls-1" d="M390.84,5a25,25,0,0,1,.37,3.15A14.26,14.26,0,0,1,388,16.46c-1.5,1.95-2.91,2.91-4.26,2.91a2.3,2.3,0,0,1-1.79-1,6.07,6.07,0,0,1-1.36-4.11c0-5.51,4.79-10,10.61-10,5.15,0,8.74,3.22,8.74,7.85a9.35,9.35,0,0,1-6.55,9,16,16,0,0,1-3.57.86c-.18,0-.33-.13-.33-.24s.07-.1.44-.2a11.8,11.8,0,0,0,4.91-2.58,9.44,9.44,0,0,0,3-7.25,6.22,6.22,0,0,0-2.24-5.28,6.69,6.69,0,0,0-4-1.35Zm-1,.11a9.25,9.25,0,0,0-7.62,9.2c0,1.93.73,3.38,1.72,3.38s3.2-2.1,4.47-4.52a16.38,16.38,0,0,0,1.82-6.14,5,5,0,0,0-.34-1.79Z"/><path class="cls-1" d="M126.78,42.28c2.83.1,3.95.13,5.12.13h14l1.64-1.77,2.18,1.64a.56.56,0,0,1,.26.44.33.33,0,0,1-.31.32h-11.8a35.23,35.23,0,0,1-3.62,7.56l.7.6H144l.76-1,1.87,1.38a.45.45,0,0,1,.21.36.41.41,0,0,1-.24.34l-.6.26v9.07c0,.47-.72,1-1.35,1a.59.59,0,0,1-.57-.52V61h-9.28v1.48c0,.44-.7.91-1.35.91a.55.55,0,0,1-.55-.6V52.71a25.66,25.66,0,0,1-4.65,4.42,7.13,7.13,0,0,1-2.14,1.35.28.28,0,0,1-.26-.26c0-.13.11-.26.32-.42a24.51,24.51,0,0,0,5.22-5.72,30.19,30.19,0,0,0,4.06-9H131.9l-4.81.13Zm17.29,18.07V51.82h-9.28v8.53Z"/><path class="cls-1" d="M161,40.28c.34,0,.52.18.52.47a.53.53,0,0,1-.36.46l-.57.34v6.76A19.6,19.6,0,0,0,163,45.12l1.3,1.09c.29.23.34.33.34.54a.49.49,0,0,1-.54.5l-.6,0-3,2a33.8,33.8,0,0,1-.55,6.34,11.76,11.76,0,0,1,2.63,1.56A3.49,3.49,0,0,1,164,59.49a1,1,0,0,1-.91,1c-.31,0-.44-.18-.75-1a7.42,7.42,0,0,0-2.44-3.38,13.41,13.41,0,0,1-3.07,5.93c-.73.86-1.17,1.27-1.38,1.27a.18.18,0,0,1-.18-.2c0-.13.08-.26.7-1.15a20.37,20.37,0,0,0,2.63-6.45,35.17,35.17,0,0,0,.49-7.51c0-3.75,0-5.3-.16-8Zm-3.8,6.21a7.49,7.49,0,0,1,.6,2.94c0,1.87-.78,3.41-1.71,3.41a.87.87,0,0,1-.84-.78c0-.34,0-.34.94-2a5.42,5.42,0,0,0,.7-2.45c0-.25,0-.57,0-1Zm10.17-.33c.47.05.7.2.7.49s-.15.39-.49.55l-.47.2v2.14h5.12V46.05l1.95.11c.34,0,.55.2.55.46a.54.54,0,0,1-.34.47l-.57.37v2.08h1.79L177,48l1.74,1.4a.7.7,0,0,1,.29.52c0,.16-.13.26-.39.26h-4.86v4h.91l1.48-1.54,1.92,1.46a.47.47,0,0,1,.16.39c0,.21-.1.31-.34.31h-5.46v5.93c0,.81.08.83,1.46.83a11.28,11.28,0,0,0,2.42-.15,2,2,0,0,0,.88-1.1l.88-2.8.34.07-.1,2.55v.34c0,.42,0,.42.55,1.07a.85.85,0,0,1,.18.41c0,.7-1.2.94-4.74.94-3,0-3.45-.21-3.45-1.51V54.76h-2l-.08.39c-.36,2.63-.52,3.12-1.14,4.29a9,9,0,0,1-4.35,3.9,4.62,4.62,0,0,1-1.35.52.22.22,0,0,1-.2-.21c0-.13.1-.23.49-.44,3.51-2.16,4.68-4.13,4.94-8.45h-1.51l-1.72.05c-.15,0-.67,0-1.24,0L162.5,54l3.17.11v-4l-3.51.08-.29-.78,3.8.11V46.05Zm-1.59-1.85c.71,0,1.31,0,1.59,0H169V40.17l1.79.13c.57.06.81.21.81.55s-.13.44-.47.57l-.57.24v2.67h3.22l1.38-1.5,1.82,1.4c.26.18.29.23.29.42a.28.28,0,0,1-.29.31h-6.42v3c0,.24-.18.39-.58.52a4.06,4.06,0,0,1-.72.16c-.21,0-.29-.11-.29-.39V45h-1.56c-2.68.08-3.15.08-3.17.08l-.31-.81Zm6.45,9.83v-4H167.1v4Z"/><path class="cls-1" d="M200.48,49a8.19,8.19,0,0,0,1.72-1.15c.33-.36.41-.41.62-.41.83,0,1.77.44,1.77.83s-.52.8-2.24,1.61a20.9,20.9,0,0,1-2.83,1.2,39.71,39.71,0,0,0,2.57,3.25,3.42,3.42,0,0,1,1.09,2.34,1.73,1.73,0,0,1-1.48,1.87c-.18,0-.28-.08-.7-.44a8.46,8.46,0,0,0-5.67-2.06c-2.26,0-3.74,1.12-3.74,2.78,0,1.49,1.43,2.27,4.13,2.27.36,0,.73,0,1.2,0s.75,0,1,0c1,0,1.33.19,1.33.76,0,.88-.68,1.22-2.4,1.22a12.63,12.63,0,0,1-4.26-.7,3.48,3.48,0,0,1-2.45-3.28c0-2.23,2.08-3.64,5.41-3.64a12.85,12.85,0,0,1,4,.78,1.68,1.68,0,0,0,.75.24.48.48,0,0,0,.5-.47c0-.52-.73-2-2.19-4.47a27.83,27.83,0,0,1-7.3,1.17c-1.85,0-3-.94-3-2.4,0-.15.08-.28.18-.28s.16.05.31.36a2.84,2.84,0,0,0,2.68,1.2,18.73,18.73,0,0,0,6.4-1.22c-.47-.91-.52-1-1.59-2.81a15.41,15.41,0,0,1-4,.62c-1.56,0-2.68-.73-2.68-1.74,0-.18.11-.31.21-.31s.13,0,.18.26c.16.54.81.86,1.75.86a10.44,10.44,0,0,0,3.84-.78,22.12,22.12,0,0,0-2-2.84,2.65,2.65,0,0,0-2-1,.65.65,0,0,0-.21,0,.64.64,0,0,1-.21,0,.11.11,0,0,1-.1-.11,1.73,1.73,0,0,1,.6-.7,1.89,1.89,0,0,1,1.29-.49,3.74,3.74,0,0,1,2.09.7c.23.21.28.31.28.91,0,.78.26,1.38,1.28,3.1a6.41,6.41,0,0,0,1.45-1c.39-.34.63-.47.83-.47.52,0,1.28.55,1.28.89s-1,1.06-2.89,1.84c.68,1.15,1,1.69,1.59,2.6A10.16,10.16,0,0,0,200.48,49Z"/><path class="cls-1" d="M219.35,53a.17.17,0,0,1,0,.08,6.3,6.3,0,0,0-.37,2.13c0,2.75,2.21,4.16,6.5,4.16a18.67,18.67,0,0,0,4.94-.7c.76-.26.76-.26,1-.26.77,0,1.71.78,1.71,1.4a.83.83,0,0,1-.55.68,16.92,16.92,0,0,1-5.43.7,15,15,0,0,1-6.53-1.09,4.52,4.52,0,0,1-2.49-4.19,6.48,6.48,0,0,1,.8-2.89c.08-.1.13-.15.24-.15S219.35,52.89,219.35,53Zm4.76-6a4.79,4.79,0,0,1-3.17-1.12,3.65,3.65,0,0,1-1-2.11c0-.16.08-.26.21-.26s.11,0,.21.26c.49,1.25,1.85,1.92,3.85,1.92a12.87,12.87,0,0,0,3.2-.41,2.33,2.33,0,0,1,.62-.16,2,2,0,0,1,1.43,1.51c0,.5-.26.6-1.58.63a11,11,0,0,0-6.19,2.13c-.08.05-.11.08-.16.08s-.15-.11-.15-.21a10.93,10.93,0,0,1,2.46-2.11Zm9.33-1.25a.92.92,0,0,1-.91.91c-.26,0-.31-.06-.67-.65a4.45,4.45,0,0,0-2.5-1.93c-.1-.05-.16-.07-.16-.13s.42-.21,1-.21C231.78,43.68,233.44,44.7,233.44,45.69ZM236,44.46a1,1,0,0,1-.89.92c-.28,0-.39-.11-.65-.63a4.51,4.51,0,0,0-2.6-2c-.08,0-.1,0-.1-.1s.36-.19.91-.19C234.33,42.46,236,43.45,236,44.46Z"/><path class="cls-1" d="M249.35,40.49a.43.43,0,0,1,.31.41.53.53,0,0,1-.39.47l-.42.1a11.55,11.55,0,0,1,2.94,1.59,3.59,3.59,0,0,1,1.54,2.19,1,1,0,0,1-.89,1c-.34,0-.54-.16-.83-.68a11,11,0,0,0-3.07-3.59c-.18.31-.28.47-.49.84a30.89,30.89,0,0,1-4.16,5.56c-.47.49-.78.75-.94.75a.23.23,0,0,1-.23-.23c0-.11,0-.11.57-.86a28.62,28.62,0,0,0,4.21-8.21Zm-6.63,20.64c1.2-.18,1.4-.21,2.31-.41V47.35l1.69,1h1.12V44.7l1.66.23c.34.06.52.21.52.47a.66.66,0,0,1-.33.55l-.37.23v2.16h1.2l.78-1.07,1.17,1.17a1.07,1.07,0,0,1,.39.63c0,.1-.11.23-.31.34l-.31.18v5.48c0,.5-.42.81-1.1.81-.28,0-.39-.1-.39-.36v-.68h-4.24v5.54c1.62-.39,1.88-.47,3.72-1a7.47,7.47,0,0,0-1.82-2.44l.24-.23c2.16.78,3.85,2.44,3.85,3.74,0,.68-.4,1.2-.94,1.2a.66.66,0,0,1-.44-.16s-.24-.52-.6-1.4l-4.94,2.18-.55.81a.62.62,0,0,1-.39.28.74.74,0,0,1-.47-.34Zm8-9.88V49h-4.24v2.29Zm0,3V51.88h-4.24v2.34Zm5.57-11.39h7l1.3-1.64,1.92,1.53a.55.55,0,0,1,.18.39c0,.21-.1.34-.28.34H256.21c.05,1.59.08,2.52.08,3.3,0,.5,0,1.07,0,1.9h6.06l.78-1.09L264.61,49c.18.21.29.36.29.52s-.16.31-.42.39L264,50a26.67,26.67,0,0,1-2.37,7.1A19.06,19.06,0,0,0,267,61.5a3.91,3.91,0,0,1-.36.23l-.76.36c-.18.13-.49.42-1,.86a33.11,33.11,0,0,1-4.19-4.39,15.64,15.64,0,0,1-4.7,3.9,10.57,10.57,0,0,1-2.21,1,.24.24,0,0,1-.24-.21q0-.12.18-.24a17.33,17.33,0,0,0,6.14-5.64,21.28,21.28,0,0,1-2.1-8.08h-1.57l0,.18v.26c0,.52-.13,4.11-.21,4.89a11.89,11.89,0,0,1-3.17,7.72c-.78.86-1.22,1.25-1.38,1.25a.18.18,0,0,1-.2-.19.27.27,0,0,1,.1-.2c2.65-3.38,3.3-6.11,3.3-13.6,0-2.47-.08-5.46-.23-8Zm2.18,6.45a15.53,15.53,0,0,0,2.18,6.6,30.84,30.84,0,0,0,1.77-6.6Z"/></g></g></svg>