<svg xmlns="http://www.w3.org/2000/svg" viewBox="0 0 251.74 63.91"><defs><style>.cls-1{fill:#343434;}</style></defs><title>title-3_3_title</title><g id="Layer_2" data-name="Layer 2"><g id="Layer_1-2" data-name="Layer 1"><path class="cls-1" d="M7.62,0,9.88.31a.42.42,0,0,1,.34.39.6.6,0,0,1-.31.42l-.78.49V3h4.68V0L16,.26a.47.47,0,0,1,.42.44c0,.18-.13.31-.36.42l-.73.34V3h4.89L22,1.22l1.89,1.61a.58.58,0,0,1,.24.42c0,.23-.11.34-.37.34H15.29V5.2l.93.26a.43.43,0,0,1,.34.36.48.48,0,0,1-.31.37l-.39.21v.8h4.81l1.38-1.4,1.72,1.4a.52.52,0,0,1,.18.34.27.27,0,0,1-.24.29H15.86V9.54h3.95l.6-.93,1.43,1.32a.55.55,0,0,1,.21.39c0,.13-.13.26-.31.34l-.37.16v4.7c0,.37-.44.65-1,.65-.24,0-.39-.13-.39-.34v-.54h-1.2v1.92H21l1.43-1.4,1.72,1.4a.52.52,0,0,1,.18.34.28.28,0,0,1-.29.29H18.77v4.1c0,.68-.13.86-.83,1.31s-.73.41-.94.41-.36-.18-.39-.47c0-.44-.05-.49-.2-.57l-2-.73,0-.36,2.37.08h.05c.29,0,.44-.16.44-.55V17.84H10.48c-1,0-2,0-4.14.1L6,17.08c2.29.11,3.17.13,4.5.13h6.78V15.29H10.37v.54c0,.24-.59.58-1.06.58-.18,0-.37-.13-.37-.29V8.66l1.77.88h3.67V7.83H10.09c-.68,0-1.33,0-3.12.07L6.6,7.1c2,.08,2.73.1,3.49.1h4.29v-1a1.88,1.88,0,0,1-.34.06c-.16,0-.23-.11-.23-.34V3.59H9.13V6.06c0,.34-.45.57-1,.57-.32,0-.47-.16-.47-.44V3.59H5.12C4,3.59,3,3.61.42,3.72L0,2.83C2.81,2.94,3.87,3,5.12,3h2.5ZM.68,17.78a13.89,13.89,0,0,1,2.15.11l4.79-8.4L8,9.67l-3.51,8a2.72,2.72,0,0,0-.13.88,11.61,11.61,0,0,0,.52,2.94,1.66,1.66,0,0,1,.06.44C5,23,4.58,23.5,3.69,23.5c-.57,0-.91-.28-.91-.8a12.13,12.13,0,0,1,.29-1.56,4.68,4.68,0,0,0,.05-.55,2.53,2.53,0,0,0-.65-1.87c-.23-.21-.42-.26-1-.39L.68,18.2Zm.1-8.11a4.89,4.89,0,0,1,2.11.89,2.34,2.34,0,0,1,1,1.76c0,.65-.36,1.07-.91,1.07a.73.73,0,0,1-.57-.26c-.08-.13-.08-.13-.34-1.22A3.35,3.35,0,0,0,.68,10Zm2-3.56c2.05.26,3.38,1.27,3.38,2.57a.88.88,0,0,1-.81,1,1,1,0,0,1-.73-.42A12.68,12.68,0,0,1,4.06,8,4.09,4.09,0,0,0,2.68,6.34ZM9.93,18.43a6,6,0,0,1,2.32.78A2.56,2.56,0,0,1,13.55,21a1,1,0,0,1-1,.89c-.41,0-.65-.21-1-.94a5.45,5.45,0,0,0-1.72-2.16Zm4.45-6.29v-2h-4v2Zm0,2.52V12.77h-4v1.89ZM20,12.14v-2H15.86v2Zm0,2.52V12.77H15.86v1.89ZM16.67,4.42l.39.08c1.77.28,2.7.86,2.7,1.64a.83.83,0,0,1-.83.78c-.42,0-.42,0-1.25-1.2a3.74,3.74,0,0,0-1.12-.94Z"/><path class="cls-1" d="M32.08,1l2.26.34a.53.53,0,0,1,.47.49.61.61,0,0,1-.39.52l-.57.26V8.14l3.48-1,1-2,2.13,1.19a.47.47,0,0,1,.24.39.27.27,0,0,1-.24.29l-6.6,1.9V14.4c0,.73.1.76,2.47.76,1.71,0,2.39-.29,2.75-1.22.19-.42.55-1.56.91-2.81l.45-.05-.19,3v.15c0,.29,0,.29.5.71a.69.69,0,0,1,.26.49c0,.83-1.59,1.25-4.58,1.25-4.08,0-4.34-.13-4.34-2.11V9.36c-1.35.36-1.56.44-3,.88l-.37-.8c1.59-.34,1.82-.39,3.33-.76Zm4.73,1.93L41.34,3h7.9l.7-1.3,2,1.63a.53.53,0,0,1,.24.39.45.45,0,0,1-.24.34l-.62.34c0,7,0,7.07-.18,8.87-.26,3.58-.7,5.53-1.48,6.73a4,4,0,0,1-2.79,1.82c-.13,0-.18-.1-.23-.36-.13-.71-.31-1-.78-1.12l-2.16-.7.11-.55a5.1,5.1,0,0,1,.57.08c.93.1,1.77.18,2.36.18.94,0,1.49-.52,1.93-1.87a24.44,24.44,0,0,0,.8-7.54c0-.47,0-.63-.07-6.32H45c-.08,6.92-.18,8.14-1.12,10.82A11.91,11.91,0,0,1,37,22a15.32,15.32,0,0,1-2.58.88.22.22,0,0,1-.2-.21c0-.18,0-.18,1-.67,6.5-3.36,8.24-7.36,8-18.36H41.34c-.45,0-1.2,0-2.06,0l-2.13.07Z"/><path class="cls-1" d="M68.42,9.05A9.4,9.4,0,0,0,67,13.47a4,4,0,0,0,.24,1.4.59.59,0,0,1,.1.37,1.06,1.06,0,0,1-.88,1.14c-.94,0-1.62-1.9-1.62-4.42a20,20,0,0,1,.94-5.82A15.34,15.34,0,0,0,66.5,3a1.78,1.78,0,0,0-1.74-1.48c-.16,0-.21,0-.21-.1s1-.5,1.61-.5a3,3,0,0,1,2,.81c.49.44.73.8.73,1.09s-.08.55-.57,1.22a15.05,15.05,0,0,0-2.19,6.66c0,.28.11.47.29.47s.34-.13.47-.5A15.14,15.14,0,0,1,68.37,7.9a4.22,4.22,0,0,1,3.2-2A3.18,3.18,0,0,1,74.3,7.77,13.31,13.31,0,0,1,75.21,13c0,4.34-1.93,7.72-5.46,9.54a12.13,12.13,0,0,1-3.64,1.15c-.26,0-.52-.21-.52-.39s.08-.11.21-.11a8.12,8.12,0,0,0,3.9-1.74c2.36-1.95,3.56-5,3.56-9,0-3.56-.7-5.41-2.08-5.49C70.24,6.94,69.2,7.72,68.42,9.05Z"/><path class="cls-1" d="M90.31,14.14c-.5,0-.55,0-3.17.08l-.31-.8,3.48.1H91.4a30.3,30.3,0,0,0,.47-4.65h-1c-1.43,0-1.66,0-3.17.07l-.31-.8,1.95.08c.7,0,1.41,0,1.53,0h1c0-2,.08-3.79.1-5.12H90.73l-3.2.08-.29-.81,2,0,1.54.06H97l.67-1.12,1.61,1.4a.82.82,0,0,1,.32.55c0,.15-.11.26-.32.36L98.68,4c0,3.69,0,3.69,0,4.39,0,5.7-.29,9.08-.94,11.21-.62,2-1.74,3.09-3.07,3.09-.39,0-.46-.1-.46-.59v-.34a.43.43,0,0,0-.06-.21,1.58,1.58,0,0,0-.36-.18l-1.9-.89.08-.21,2,.24a2.25,2.25,0,0,0,.42,0,1.54,1.54,0,0,0,1.71-1.14c.5-1.14.7-2.26.94-5.23H92.88A10.5,10.5,0,0,1,90,19.66c-1.11,1.19-3.09,2.65-3.56,2.65a.18.18,0,0,1-.18-.16c0-.13,0-.13.83-.83a12.59,12.59,0,0,0,4.19-7.18ZM97,13.52l0-1.17,0-1.46c0-.26,0-1.11,0-2H93.48A35.5,35.5,0,0,1,93,13.52Zm.08-5.28V3.12H93.66c0,2.55,0,3.22-.15,5.12Zm6.37-6.11h3.15l.57-.93,1.85,1.56a.69.69,0,0,1,.28.52c0,.23-.13.36-.41.49l-.47.18-3.17,5.88c2.65,2,4.13,4.24,4.13,6.16a4,4,0,0,1-1.25,3.12,2.36,2.36,0,0,1-1.64.73c-.31,0-.31,0-.52-.76-.1-.31-.13-.31-.62-.52L103.75,18v-.29l1.74.08.73,0c.89,0,1.33-.67,1.33-2a5.94,5.94,0,0,0-1.15-3.56,12.17,12.17,0,0,0-1.32-1.75,7,7,0,0,1-.5-.57l2.14-7.17h-3.54v20c0,.21-.08.34-.34.47a2.46,2.46,0,0,1-.86.23.42.42,0,0,1-.44-.46V1Z"/><path class="cls-1" d="M123.58,2.21a.55.55,0,0,1,.21.44c0,.29-.15.42-.54.47l-.76.1a30.55,30.55,0,0,1-5,4.71,9,9,0,0,1-2.47,1.59.23.23,0,0,1-.21-.21c0-.11.05-.13.73-.7A30.53,30.53,0,0,0,121.74.86Zm.37,6a.68.68,0,0,1,.23.44c0,.24-.15.37-.52.42l-.73.1a34.6,34.6,0,0,1-5.2,4.94,7.86,7.86,0,0,1-2.36,1.49.24.24,0,0,1-.24-.24c0-.13,0-.13.76-.75A31.4,31.4,0,0,0,122.26,7ZM125,14.48a.37.37,0,0,1,.11.26.42.42,0,0,1-.42.42l-.6.1a26,26,0,0,1-6,5.77,11.2,11.2,0,0,1-2.67,1.56.2.2,0,0,1-.19-.2c0-.13.11-.24.73-.73A32.22,32.22,0,0,0,123.32,13Zm5.57,5.25a.5.5,0,0,1,.21.39.48.48,0,0,1-.52.42h-.89a29.13,29.13,0,0,1-4.83,2.37,10,10,0,0,1-2,.59c-.15,0-.28-.07-.28-.2s.15-.24,1.12-.68A18.92,18.92,0,0,0,129,18.38ZM124.1,2.26l1.8.05,1.84.06h7L136.32.68l2.14,1.58c.23.16.33.31.33.44s-.1.29-.36.29h-6.16l-1.85,3.22h4l.83-1.06,1.61,1.4a.75.75,0,0,1,.24.44.45.45,0,0,1-.31.37l-.52.21v10.5c0,.47-.42.75-1.1.75-.36,0-.49-.1-.49-.41v-.73H127.3v.94a.49.49,0,0,1-.26.46,2,2,0,0,1-.93.34.35.35,0,0,1-.34-.39V5l2,1.17h1.37L129.8,3h-2.06l-3.43.08Zm10.56,7.57v-3H127.3v3Zm0,3.59v-3H127.3v3Zm0,3.64V14H127.3v3Zm-3.15,1.24a14,14,0,0,1,4,1.51c1.46.83,2.34,1.87,2.34,2.68a.94.94,0,0,1-.88,1c-.55,0-.55,0-2-1.82a12.72,12.72,0,0,0-3.53-3Z"/><path class="cls-1" d="M143.78,21c2.58.13,3.64.15,4.94.15h13.76L164.53,19,167,21a.71.71,0,0,1,.29.44.29.29,0,0,1-.26.29H148.72c-.52,0-1.35,0-2.31,0l-2.37.08ZM144.9,4.13c2.63.11,3.56.13,5.25.13h11.08l2.18-2.1L165.54,4a.94.94,0,0,1,.34.58.3.3,0,0,1-.31.31H150.15c-1.27,0-2.36,0-5,.1Zm2.16,8.4c2.28.11,3.27.13,4.49.13h8.09l1.72-2,2.26,1.82a.68.68,0,0,1,.31.55c0,.21-.1.29-.31.29H151.55c-1.53,0-2.28,0-4.21.1Z"/><path class="cls-1" d="M177.24,9.75c-1.87,0-2.58,0-4.79.13L172.12,9c2.57.1,3.64.13,5.12.13h14.51l1.66-1.9,2.16,1.92c.21.18.28.29.28.37s-.13.23-.41.23h-8.17V20.44c0,.31.06.41.32.46a13.42,13.42,0,0,0,2.18.16c.23,0,.52,0,.83,0l1.25,0c1.35,0,1.69-.26,2.11-1.51l.91-3.12.36.05-.16,2.84c0,.7,0,1.17,0,1.17a1.12,1.12,0,0,0,.29.26,1.25,1.25,0,0,1,.6.8c0,.34-.47.81-1,1a18.82,18.82,0,0,1-4.06.33,37.54,37.54,0,0,1-4.32-.26,1.24,1.24,0,0,1-1.09-1.3V9.75h-3.12c.21.16.29.23.29.34a.71.71,0,0,1-.18.36l-.26.31c-.32,3.9-1.28,6.92-2.84,8.82a13.74,13.74,0,0,1-5.41,3.72,5.6,5.6,0,0,1-1.48.52c-.15,0-.26-.08-.26-.19s.11-.23.65-.51a12.88,12.88,0,0,0,5.7-5.31,19.48,19.48,0,0,0,1.56-8.06Zm13.15-9,2.14,1.93a.56.56,0,0,1,.15.31c0,.13-.15.23-.36.23h-13c-1.24,0-2.05,0-4,.11l-.46-.86c2.23.1,3.09.13,4.49.13h9.39Z"/><path class="cls-1" d="M203.65,1.9h2.75l.68-1.09,1.61,1.45a.8.8,0,0,1,.29.5c0,.15-.13.26-.39.36l-.47.16V21.66a1.46,1.46,0,0,1-.83,1.38,2,2,0,0,1-1,.44c-.26,0-.36-.13-.36-.47a1.74,1.74,0,0,0-.16-.73c-.08-.05-.39-.2-.88-.41l-1-.39,0-.39,1.51.05c1.14,0,1.22-.11,1.22-.86V14.12h-3.07a23.09,23.09,0,0,1-1.32,7.07c-.5,1.3-1.25,2.55-1.51,2.55s-.24-.08-.24-.18a.68.68,0,0,1,.06-.21c1.17-3.15,1.63-6.74,1.63-12.59,0-2.83-.05-5.61-.18-9.93Zm2.91,5.74V2.52h-3V7.64Zm0,5.85V8.27h-2.94l-.05,5.22Zm6.32-9.77c-.5,0-.55,0-3.2.08L209.39,3l1.93.08c.7,0,1.38,0,1.56,0h7.67l1.53-1.76,2.19,1.58a.51.51,0,0,1,.21.42c0,.23-.13.39-.32.39h-6.29l.5.39a.67.67,0,0,1,.25.44c0,.23-.23.42-.59.47l-.73.08a32,32,0,0,1-3.33,3A13.73,13.73,0,0,1,217.69,13a40.36,40.36,0,0,0,4.21-5.69l1.8,1.33a.63.63,0,0,1,.31.49c0,.23-.16.39-.5.44l-.78.11-4.7,4a13.8,13.8,0,0,0,6.89,6.55,4.48,4.48,0,0,0-1.9,1.56A18.34,18.34,0,0,1,218.37,16c0,.39,0,.73,0,.89a9.24,9.24,0,0,1-.86,4c-.62,1.41-1.79,2.53-2.57,2.53-.26,0-.39-.21-.5-.81-.07-.31-.13-.36-.46-.49l-2.34-.86.13-.42,2.42.18a1.14,1.14,0,0,0,.28,0,1.78,1.78,0,0,0,1.59-.94,11.35,11.35,0,0,0,.7-4.37,5.61,5.61,0,0,0-.05-.83,35.77,35.77,0,0,1-5.31,4,8.85,8.85,0,0,1-2.31,1.27.2.2,0,0,1-.21-.21c0-.13,0-.13,1.35-1.12a31,31,0,0,0,6-6,8,8,0,0,0-.73-1.64c-2.39,2.19-6,4.76-6.58,4.76a.19.19,0,0,1-.21-.18c0-.13.08-.21.81-.78a27.68,27.68,0,0,0,5.09-5.1,10.82,10.82,0,0,0-1.3-1.22c-2.18,1.67-4.11,2.89-4.55,2.89-.1,0-.15,0-.15-.13s0-.16,1.14-1a31.19,31.19,0,0,0,6.24-6.63Z"/><path class="cls-1" d="M241.68,5.2a24.78,24.78,0,0,1,.37,3.15,14.23,14.23,0,0,1-3.18,8.26c-1.5,1.95-2.91,2.92-4.26,2.92a2.33,2.33,0,0,1-1.79-1,6.07,6.07,0,0,1-1.36-4.11c0-5.51,4.79-10,10.61-10,5.15,0,8.74,3.23,8.74,7.86a9.36,9.36,0,0,1-6.55,9,16,16,0,0,1-3.57.86c-.18,0-.33-.14-.33-.24s.07-.1.44-.21a11.67,11.67,0,0,0,4.91-2.57,9.5,9.5,0,0,0,3-7.26,6.18,6.18,0,0,0-2.24-5.27,6.7,6.7,0,0,0-4-1.36Zm-1,.1A9.27,9.27,0,0,0,233,14.51c0,1.92.73,3.38,1.72,3.38s3.2-2.11,4.47-4.53A16.29,16.29,0,0,0,241,7.23a5.1,5.1,0,0,0-.34-1.8Z"/><path class="cls-1" d="M6.89,55c1-2.65,1-2.65,1.14-2.65a.25.25,0,0,1,.21.23.5.5,0,0,1,0,.16,21.43,21.43,0,0,0-.68,2.18,20.81,20.81,0,0,0-.7,4.55A3.53,3.53,0,0,0,7.15,61a1.37,1.37,0,0,1,.1.5.89.89,0,0,1-.8,1C5,62.46,3.54,59,3.54,55.39c0-1.72.23-3.2,1.17-7.23a13.23,13.23,0,0,0,.49-3.07,2.63,2.63,0,0,0-.83-2.21c-.08-.08-.11-.1-.11-.16s.06-.07.16-.07a2.82,2.82,0,0,1,1.56.7A3,3,0,0,1,7.2,45.82c0,.86-.08,1.09-1.17,3.85a14.06,14.06,0,0,0-1.3,5.59c0,1.74.31,3,.76,3,.26,0,.41-.18.59-.78Zm5.1-.91a.06.06,0,0,1,0,0,5.56,5.56,0,0,0-.08.84c0,2.21,1.59,3.3,4.76,3.3a14.56,14.56,0,0,0,3.64-.5,3.67,3.67,0,0,1,1-.18,1.09,1.09,0,0,1,1.2,1.07c0,1-1.38,1.48-4,1.48a11.21,11.21,0,0,1-5.33-1,4,4,0,0,1-1.85-3.41c0-1.12.21-1.82.55-1.82A.15.15,0,0,1,12,54.11Zm8.76-7c0,.33-.37.57-1,.65a39.08,39.08,0,0,1-4.47.33,4.07,4.07,0,0,1-3.18-1.19,2,2,0,0,1-.52-1c0-.06.08-.11.13-.11s.11,0,.16.13a2.61,2.61,0,0,0,2.21.81,11.68,11.68,0,0,0,4.68-1,.73.73,0,0,1,.42-.13C19.71,45.58,20.75,46.52,20.75,47.07Z"/><path class="cls-1" d="M42.43,43.79c0,.44-.16.73-.7,1.25a43.63,43.63,0,0,0-5.62,7.3,5.21,5.21,0,0,0-.65,1.25.22.22,0,0,0,.23.21.31.31,0,0,0,.29-.16c1.56-1.76,3.85-3.09,5.36-3.09a3.18,3.18,0,0,1,3.25,3.28,7.64,7.64,0,0,1-.19,1.45,21.61,21.61,0,0,0-.54,3.9c0,1.35.57,2,1.79,2,2.37,0,4.37-1.64,5.51-4.53.06-.18.11-.23.16-.23s.21.13.21.29a8.6,8.6,0,0,1-1.12,3.17,6,6,0,0,1-5,2.62,3.06,3.06,0,0,1-3.25-3.4,23.72,23.72,0,0,1,.41-3.67,9.43,9.43,0,0,0,.24-1.87,1.76,1.76,0,0,0-2-1.85c-1.25,0-2.71.78-4.5,2.45s-2.7,4-3,7.8c-.07.67-.28,1-.6,1a2.19,2.19,0,0,1-1.14-.52.9.9,0,0,1-.31-.76c0-2.8,3.15-9.46,7.67-16.22.81-1.2,1-1.59,1-2.06A1.57,1.57,0,0,0,38.35,42c-.11,0-.16-.06-.16-.16s.68-.36,1.33-.36C40.87,41.48,42.43,42.72,42.43,43.79Z"/><path class="cls-1" d="M64.08,55c1-2.65,1-2.65,1.14-2.65a.25.25,0,0,1,.21.23.5.5,0,0,1,0,.16,21.43,21.43,0,0,0-.68,2.18,20.81,20.81,0,0,0-.7,4.55A3.53,3.53,0,0,0,64.34,61a1.37,1.37,0,0,1,.1.5.89.89,0,0,1-.8,1c-1.48,0-2.91-3.46-2.91-7.07,0-1.72.23-3.2,1.17-7.23a13.23,13.23,0,0,0,.49-3.07,2.63,2.63,0,0,0-.83-2.21c-.08-.08-.11-.1-.11-.16s.06-.07.16-.07a2.82,2.82,0,0,1,1.56.7,3,3,0,0,1,1.22,2.47c0,.86-.08,1.09-1.17,3.85a14.06,14.06,0,0,0-1.3,5.59c0,1.74.31,3,.76,3,.26,0,.41-.18.59-.78Zm5.1-.91a.06.06,0,0,1,0,0,5.56,5.56,0,0,0-.08.84c0,2.21,1.59,3.3,4.76,3.3a14.56,14.56,0,0,0,3.64-.5,3.67,3.67,0,0,1,1-.18,1.09,1.09,0,0,1,1.2,1.07c0,1-1.38,1.48-4,1.48a11.21,11.21,0,0,1-5.33-1,4,4,0,0,1-1.85-3.41c0-1.12.21-1.82.55-1.82A.15.15,0,0,1,69.18,54.11Zm8.76-7c0,.33-.37.57-1,.65a39.08,39.08,0,0,1-4.47.33,4.07,4.07,0,0,1-3.18-1.19,2,2,0,0,1-.52-1c0-.06.08-.11.13-.11s.11,0,.16.13a2.61,2.61,0,0,0,2.21.81,11.68,11.68,0,0,0,4.68-1,.73.73,0,0,1,.42-.13C76.9,45.58,77.94,46.52,77.94,47.07Z"/><path class="cls-1" d="M97.36,42c-.08,0-.13,0-.13-.08,0-.26.62-.49,1.35-.49,1.25,0,3,1.33,3,2.31,0,.32-.1.47-.54.78a19.76,19.76,0,0,0-3.31,3.18,18.05,18.05,0,0,0-2.18,2.52A3.77,3.77,0,0,0,95.07,52a2.75,2.75,0,0,0,.86,2c2.31,2.78,3.43,4.21,4,5a7.5,7.5,0,0,1,1.36,3.54c0,.83-.47,1.4-1.15,1.4s-.88-.33-1.17-1.61a19.88,19.88,0,0,0-3.38-6.71c-1.51-2.21-1.74-2.7-1.74-3.77s.6-2.21,3-5.33c1.82-2.31,2.08-2.75,2.08-3.43A1.32,1.32,0,0,0,97.75,42a1.2,1.2,0,0,0-.24,0Z"/><path class="cls-1" d="M125,50.13a1.2,1.2,0,0,1-1.09,1.28c-.49,0-.62-.13-.93-.94a7,7,0,0,0-3.54-3.77c-.18-.05-.26-.13-.26-.23s.13-.18.34-.18C122.18,46.29,125,48.29,125,50.13Zm-5.09,10.92a1.46,1.46,0,0,1-.26.06c-.18,0-.37-.16-.37-.26s.08-.13.29-.21A21.62,21.62,0,0,0,127,55.72c2.6-2.73,4.81-7,4.81-9.25,0-.65-.44-1.17-1.27-1.46a.19.19,0,0,1-.16-.18c0-.13.06-.21.26-.23a4.88,4.88,0,0,1,.91-.16,3.32,3.32,0,0,1,1.88,1c1,.76,1.22,1,1.22,1.28s-.11.31-.7,1A23.55,23.55,0,0,1,129,55.75a16.34,16.34,0,0,1-8.45,5.17Z"/><path class="cls-1" d="M149,54a5.06,5.06,0,0,1-1.2.18,3.17,3.17,0,0,1-2.29-1.4,8.07,8.07,0,0,1-.18-1.46c0-.18.08-.31.21-.31s.13,0,.21.18c.33.76,1,1,2.47,1a120.28,120.28,0,0,0,15-1.07c.23,0,.49,0,.7,0a1.79,1.79,0,0,1,1.38.57c.49.47.67.73.67,1,0,.39-.52.63-1.35.63-.21,0-.49,0-1,0s-2.68-.08-3.77-.08A70.61,70.61,0,0,0,149,54Z"/><path class="cls-1" d="M190.39,54.89c1.51,1.2,2.32,2.45,2.32,3.59a1.25,1.25,0,0,1-1.15,1.35c-.52,0-.85-.34-1.19-1.22A10.38,10.38,0,0,0,185,52.79a21.27,21.27,0,0,1-7.77,6.6,14.46,14.46,0,0,1-3.44,1.35c-.18,0-.39-.15-.39-.31s.08-.16.5-.31a23.85,23.85,0,0,0,8.06-6,24.5,24.5,0,0,0,3.64-5.57,8,8,0,0,0,.93-2.36c0-.24-.18-.39-.46-.39a28.74,28.74,0,0,0-6.19,1.64c-.44.18-.47.18-.57.18s-.26,0-1.1-.63a1.27,1.27,0,0,1-.67-1.24c0-.5.08-.71.26-.71s.1.06.13.13c.15.39.93.68,1.84.68a42.49,42.49,0,0,0,5-.78,5.52,5.52,0,0,0,2.08-.86.69.69,0,0,1,.42-.15c.26,0,.57.18,1.56.93.7.55.83.68.83.89s-.08.18-.31.33l-.55.39a36.75,36.75,0,0,1-3.48,5.72A12,12,0,0,1,190.39,54.89Z"/><path class="cls-1" d="M207,43.22l-.23,0a.1.1,0,0,1-.11-.1c0-.23,1-.73,1.54-.73a3.27,3.27,0,0,1,1.74.57c.57.37.75.6.75,1a22.52,22.52,0,0,1-.83,4.14,8.28,8.28,0,0,1,2.32-.45,2.75,2.75,0,0,1,2.34,1.28,6.9,6.9,0,0,1,.57,3.2c0,2.93-.91,6.24-2.13,7.74a4.33,4.33,0,0,1-3,1.46c-.37,0-.47-.1-.52-.6a4.69,4.69,0,0,0-1.36-2.55c-.31-.33-.38-.44-.38-.59s.1-.24.18-.24.18.08.41.31c1,.91,1.67,1.36,2.19,1.36.93,0,1.69-.86,2.26-2.55a17.66,17.66,0,0,0,.83-5.33c0-1.77-.54-2.73-1.56-2.73a7.05,7.05,0,0,0-2.39.57,62.77,62.77,0,0,1-3.3,8.45,37,37,0,0,1-1.88,3.38,1.57,1.57,0,0,1-1.35.81,1,1,0,0,1-1-1,1.07,1.07,0,0,1,.42-.78c2.16-2.16,4.24-6,5.67-10.35-.84.32-2.11.84-3.41,1.41a2.39,2.39,0,0,1-.94.28c-.83,0-1.61-1.09-1.61-2.26,0-.31.08-.47.24-.47s.18.11.26.26a1.16,1.16,0,0,0,1.17.71,23.43,23.43,0,0,0,4.49-1,31.72,31.72,0,0,0,.39-3.4c0-.81-.18-1.28-.65-1.54a1.89,1.89,0,0,0-1-.28Zm12.33,10.19a.9.9,0,0,1-.26,0,.19.19,0,0,1-.21-.21c0-.16,0-.18.39-.24,2.11-.39,2.91-.75,2.91-1.35a4.94,4.94,0,0,0-3-4,4.76,4.76,0,0,0-1.87-.49c-.08,0-.13,0-.13-.1s.36-.24,1.09-.24a5.78,5.78,0,0,1,6,5.57c0,1.09-.47,1.84-1.12,1.84-.23,0-.23,0-.7-.36a3.49,3.49,0,0,0-1.92-.5Z"/><path class="cls-1" d="M233.28,42.7a3.33,3.33,0,0,1,2.53,2.78,9.2,9.2,0,0,1-.76,2.65c-1.17,3.28-1.35,4.06-1.35,5.93,0,1.61.44,3.33.86,3.33.08,0,.18-.11.26-.34.28-.75.86-2,2.05-4.6.37-.76.42-.86.6-.86a.34.34,0,0,1,.23.26.75.75,0,0,1-.13.36,18.75,18.75,0,0,0-1.63,6,7.55,7.55,0,0,0,.23,1.48.77.77,0,0,1,.1.31c0,.26-.54.68-.88.68-.62,0-1.48-.83-2-1.87a10.71,10.71,0,0,1-1-4.42,27.24,27.24,0,0,1,.81-5.75A19.17,19.17,0,0,0,233.8,45c0-1.17-.36-1.9-1-2.13,0,0-.07,0-.07-.08a.22.22,0,0,1,.2-.21.24.24,0,0,1,.13,0Zm10.27.41a.33.33,0,0,1-.15,0c-.08,0-.13,0-.13-.1,0-.24,1.25-.89,1.69-.89a3.74,3.74,0,0,1,1.82.68c.57.34.75.52.75.83,0,.08,0,.1-.08.26a9.09,9.09,0,0,0-.26,2.65c0,.26,0,.57,0,1a6.07,6.07,0,0,0,2.55-1.53c.15-.15.23-.21.36-.21a4.19,4.19,0,0,1,1.25.42.69.69,0,0,1,.36.52c0,.62-1.45,1.4-4.26,2.29.1,1.79.13,2.62.13,3.74,0,4.21-1,6.92-3.25,8.48a12.35,12.35,0,0,1-4.47,2c-.18,0-.29-.08-.29-.21s.08-.23.31-.31A8.33,8.33,0,0,0,244,59.88c1.46-1.92,2-4.21,2-8.52,0-.26,0-1.1,0-2a14.73,14.73,0,0,1-2.57.39,3.68,3.68,0,0,1-2.6-1.28,2.13,2.13,0,0,1-.47-.8.16.16,0,0,1,.18-.14c.1,0,.16.06.29.19a2.58,2.58,0,0,0,2.1.83,9.55,9.55,0,0,0,2.91-.57,15.66,15.66,0,0,0-.39-3.88,1.88,1.88,0,0,0-1.58-1Z"/></g></g></svg>