<svg xmlns="http://www.w3.org/2000/svg" viewBox="0 0 448.29 62.43"><defs><style>.cls-1{fill:#343434;}</style></defs><title>title-3_4_title</title><g id="Layer_2" data-name="Layer 2"><g id="Layer_1-2" data-name="Layer 1"><path class="cls-1" d="M.21,3.87a.18.18,0,0,1-.11,0A.11.11,0,0,1,0,3.8c0-.16.44-.32.94-.32a2.75,2.75,0,0,1,2.83,2.4A9.33,9.33,0,0,1,3.43,8,16.76,16.76,0,0,0,3,12.12a7.46,7.46,0,0,0,1.2,4.55,2.35,2.35,0,0,0,1.43,1c.34,0,.42-.08,1.2-1.82C8,13.31,8.45,12.45,8.66,12.45a.23.23,0,0,1,.18.21.93.93,0,0,1-.1.39,16.56,16.56,0,0,0-1.17,4.66A2.86,2.86,0,0,0,8,19.34c.15.26.18.29.18.42,0,.31-.47.62-1,.6a5.59,5.59,0,0,1-2.73-1.15c-1.87-1.45-3-4.44-3-8,0-1.12.1-2.81.23-4.11,0-.39.06-.7.06-.94C1.85,5,1.07,3.87.29,3.87ZM12.74,8.53c0-.21.83-.39,1.74-.39,2.89,0,5.9,2.75,5.9,5.41a1.57,1.57,0,0,1-1.5,1.76c-.47,0-.65-.23-.65-.88,0-3.17-2.21-5.77-5-5.77C12.77,8.66,12.74,8.66,12.74,8.53Z"/><path class="cls-1" d="M47.34,14.43c0,2.47-1.48,4.52-4.16,5.72a19.71,19.71,0,0,1-6,1.53c-.18,0-.42-.18-.42-.31s.06-.08.45-.15c5.27-.94,8.24-3.41,8.24-6.82,0-2.52-1.48-4.05-3.88-4.05a12.4,12.4,0,0,0-6.34,2.1,17.77,17.77,0,0,0-2.83,2.14,1.42,1.42,0,0,1-1,.46,2.94,2.94,0,0,1-1.88-1,2.79,2.79,0,0,1-.52-1.9c0-.2.06-.28.19-.28s.1,0,.1.13a1.45,1.45,0,0,0,1.48,1.14c.57,0,.73,0,2.08-.86,3.46-2,6.09-2.86,8.69-2.86C44.92,9.46,47.34,11.49,47.34,14.43Z"/><path class="cls-1" d="M61.53,12.12a.12.12,0,0,1,0,.07,6.5,6.5,0,0,0-.37,2.14c0,2.73,2.21,4.16,6.5,4.16a18.65,18.65,0,0,0,4.94-.71c.76-.26.76-.26,1-.26.78,0,1.71.78,1.71,1.41a.82.82,0,0,1-.54.67,16.7,16.7,0,0,1-5.44.71,14.75,14.75,0,0,1-6.52-1.1A4.5,4.5,0,0,1,60.31,15a6.39,6.39,0,0,1,.81-2.89c.07-.1.13-.15.23-.15S61.53,12,61.53,12.12Zm4.76-6A4.9,4.9,0,0,1,63.12,5a3.67,3.67,0,0,1-1-2.1c0-.19.07-.29.2-.29s.11,0,.21.26c.47,1.22,1.85,1.92,3.85,1.92a13.11,13.11,0,0,0,3.35-.44,3.17,3.17,0,0,1,.68-.15A2.1,2.1,0,0,1,72,5.69a.61.61,0,0,1-.26.47c-.18.13-.21.13-1.15.13A11.42,11.42,0,0,0,63.9,8.48c-.08,0-.11.07-.16.07s-.15-.1-.15-.2a10.62,10.62,0,0,1,2.47-2.11Z"/><path class="cls-1" d="M94.89,1.33c-.08,0-.13,0-.13-.08,0-.26.62-.5,1.35-.5,1.25,0,3,1.33,3,2.32,0,.31-.1.47-.54.78A19.53,19.53,0,0,0,95.22,7,18.05,18.05,0,0,0,93,9.54a3.77,3.77,0,0,0-.44,1.74,2.73,2.73,0,0,0,.86,2c2.31,2.78,3.43,4.21,4,5a7.43,7.43,0,0,1,1.36,3.53c0,.84-.47,1.41-1.15,1.41s-.88-.34-1.17-1.61a19.7,19.7,0,0,0-3.38-6.71c-1.51-2.21-1.74-2.71-1.74-3.77s.6-2.21,3-5.33C96.19,3.48,96.45,3,96.45,2.37A1.33,1.33,0,0,0,95.28,1.3a.81.81,0,0,0-.24,0Z"/><path class="cls-1" d="M118.05,14.72h-1.93c-.75,0-.86,0-3.22.07l-.26-.83,1.79.08,1.69,0h1.93V10.76h-2.79v1.12c0,.34-.52.63-1.09.63-.31,0-.41-.11-.41-.37V.55l1.82,1.11h6.5l.65-1,1.5,1.53a.61.61,0,0,1,.19.42.41.41,0,0,1-.24.34l-.41.15v8.45c0,.32-.08.42-.34.52a2.49,2.49,0,0,1-.89.19c-.2,0-.26-.06-.26-.34V10.76h-2.73v3.31h2.81l1.3-1.43L125.3,14a.65.65,0,0,1,.26.44c0,.21-.16.32-.42.32h-5.59v3.79c1.54-.21,3.49-.52,5.28-.88l.11.57c-4.45,1.3-5.41,1.56-10,2.65l-.34.7a.56.56,0,0,1-.49.34c-.19,0-.26-.05-.45-.34l-1.48-2.23c2.34-.18,3.2-.26,5.83-.6Zm0-8.82V2.31h-2.76V5.9Zm0,4.24V6.53h-2.76v3.61Zm4.23-4.24V2.31h-2.73V5.9Zm0,4.24V6.53h-2.73v3.61ZM134.5,8.55l1.77,1.93a.7.7,0,0,1,.21.47c0,.23-.13.31-.6.33l-1,.08-3.32,2.45-.32-.32a26.6,26.6,0,0,0,2.37-3.35h-3.28V20.83a1.33,1.33,0,0,1-.91,1.43,3,3,0,0,1-1,.36c-.29,0-.31-.05-.52-1a.37.37,0,0,0-.29-.26l-2.18-.63v-.41c.81,0,1.43.05,1.82.05,1.2,0,1.48-.13,1.48-.65V10.14h-.93l-1.59,0c-.26,0-.94,0-1.72.05l-.23-.81c2.08.08,2.78.11,3.54.11h5.82ZM133.83.83l1.64,1.8a.71.71,0,0,1,.23.54c0,.34-.18.47-.7.47h-.91c-1.41,1-1.8,1.27-4.06,2.76A2.31,2.31,0,0,1,130.81,8a1,1,0,0,1-1,1.06c-.49,0-.65-.21-1.32-1.66a4.61,4.61,0,0,0-2.42-2.21l.16-.37a7.47,7.47,0,0,1,3.22,1.12,27.23,27.23,0,0,0,3.33-3.61h-4l-1.56,0-1.69,0-.23-.81,1.92.05,1.56,0h4.13Z"/><path class="cls-1" d="M149.11.68a.49.49,0,0,1,.44.46.57.57,0,0,1-.28.5l-.63.44,0,2.86c0,6.42-.06,6.86-.5,9.26a10.63,10.63,0,0,1-3.48,6.42,9.77,9.77,0,0,1-3,2.1.17.17,0,0,1-.18-.18c0-.15.07-.23.7-.75a11.59,11.59,0,0,0,4-6.06,26.17,26.17,0,0,0,.68-7.41c0-3.95,0-5.23-.13-8.09ZM145,7.1a16.83,16.83,0,0,1,.23,2.6c0,2.34-1.11,4.29-2.44,4.29a.91.91,0,0,1-1-.86c0-.31,0-.31,1.33-1.92a7.67,7.67,0,0,0,1.4-4.11Zm4.32.62a6,6,0,0,1,3.22,4.73c0,.86-.41,1.43-1.07,1.43a.82.82,0,0,1-.65-.33c-.15-.21-.15-.21-.44-2.66a4.87,4.87,0,0,0-1.3-2.8Zm6.13,12.9c0,.34-.65.7-1.27.7-.26,0-.44-.15-.44-.34V1.35l2.1.26a.64.64,0,0,1,.6.55.62.62,0,0,1-.28.49L155.4,3Zm.91-13a7.73,7.73,0,0,1,2.08,1.64,5.06,5.06,0,0,1,1.36,3.09,1.17,1.17,0,0,1-1,1.3c-.6,0-.91-.42-1-1.35-.08-1.67-.42-2.52-1.74-4.42Zm6.22,14.06c0,.55-.65,1-1.43,1-.24,0-.37-.13-.37-.31V0L163,.39c.44.08.7.29.7.55s-.2.44-.7.57l-.49.15Z"/><path class="cls-1" d="M180.33,12.45a5.49,5.49,0,0,1-1.14-3.84c0-.73.08-2.58.15-4.06l0-.81c0-1.48-.57-2-2.39-1.95-.24,0-.29,0-.29-.13,0-.33,1.28-.72,2.34-.72a4.48,4.48,0,0,1,2.16.62,1.27,1.27,0,0,1,.6,1.14,5.44,5.44,0,0,1-.31,1.54,24.25,24.25,0,0,0-.89,5.77c0,1,.31,1.74.78,1.74A10.06,10.06,0,0,0,184,10.27c.31-.23.44-.31.67-.31.76,0,1.72.65,1.72,1.14s-.39.65-1.33.94a25.81,25.81,0,0,1-3.19.65,5.46,5.46,0,0,0-2.21.88c-1.93,1.12-2.92,2.58-2.92,4.29s1.51,2.76,4.55,2.76a17.43,17.43,0,0,0,5.36-1,1.54,1.54,0,0,1,.62-.19,1.75,1.75,0,0,1,1.49,1.43.72.72,0,0,1-.47.6,17.25,17.25,0,0,1-5.54.73,13.71,13.71,0,0,1-5-.73A3.78,3.78,0,0,1,175.21,18c0-2,1.92-4.16,4.81-5.46Zm8.56-5.35A1,1,0,0,1,188,8c-.26,0-.41-.13-.6-.47a4.34,4.34,0,0,0-2.57-2.1c-.16,0-.18,0-.18-.13s.39-.21.91-.21C187.2,5.07,188.89,6.08,188.89,7.1Zm2.57-1.48a1,1,0,0,1-.88.93c-.26,0-.42-.13-.63-.52a4.42,4.42,0,0,0-2.62-2.1c-.11,0-.16-.06-.16-.13s.34-.19.91-.19C189.77,3.61,191.46,4.63,191.46,5.62Z"/><path class="cls-1" d="M208.93,8.35a9.4,9.4,0,0,0-1.43,4.42,4,4,0,0,0,.23,1.4.58.58,0,0,1,.1.36,1.06,1.06,0,0,1-.88,1.15c-.94,0-1.61-1.9-1.61-4.42a20,20,0,0,1,.93-5.83A14.42,14.42,0,0,0,207,2.34,1.77,1.77,0,0,0,205.26.86c-.16,0-.21,0-.21-.11s1-.49,1.62-.49a3,3,0,0,1,2,.81c.49.44.72.8.72,1.09s-.08.54-.57,1.22A15,15,0,0,0,206.59,10c0,.28.1.46.28.46s.34-.13.47-.49a14.64,14.64,0,0,1,1.54-2.81,4.22,4.22,0,0,1,3.19-2,3.16,3.16,0,0,1,2.73,1.84,13.13,13.13,0,0,1,.91,5.23c0,4.34-1.92,7.72-5.46,9.54A12,12,0,0,1,206.61,23c-.26,0-.52-.2-.52-.39s.08-.1.21-.1a8.08,8.08,0,0,0,3.9-1.74c2.37-1.95,3.56-5,3.56-9,0-3.56-.7-5.41-2.08-5.49C210.75,6.24,209.71,7,208.93,8.35Z"/><path class="cls-1" d="M239.21,4.5a24.89,24.89,0,0,1,.37,3.14,14.26,14.26,0,0,1-3.18,8.27c-1.5,1.95-2.91,2.91-4.26,2.91a2.32,2.32,0,0,1-1.79-1A6.1,6.1,0,0,1,229,13.73c0-5.51,4.79-10,10.61-10,5.15,0,8.74,3.23,8.74,7.85a9.34,9.34,0,0,1-6.55,9,15.46,15.46,0,0,1-3.57.86c-.18,0-.33-.13-.33-.23s.07-.11.44-.21a11.9,11.9,0,0,0,4.91-2.57,9.52,9.52,0,0,0,3-7.26A6.22,6.22,0,0,0,244,5.82a6.76,6.76,0,0,0-4-1.35Zm-1,.1a9.26,9.26,0,0,0-7.62,9.21c0,1.92.73,3.38,1.72,3.38s3.2-2.11,4.47-4.53a16.29,16.29,0,0,0,1.82-6.13,5.1,5.1,0,0,0-.34-1.8Z"/><path class="cls-1" d="M266.09,9.85c0,4.66.08,7.13.21,8.87.05.55.08.94.08,1.17,0,1.09-.39,1.9-.94,1.9s-1.38-1.17-1.38-1.82a3.85,3.85,0,0,1,.08-.68c.21-1.43.42-7.2.42-12.4,0-2.44-.11-3.33-.42-3.85a1.31,1.31,0,0,0-1.25-.65c-.18,0-.26-.08-.26-.23s.08-.18.24-.26a7.36,7.36,0,0,1,1.58-.42c.39,0,.76.18,1.9.91.34.24.49.42.49.6a1.33,1.33,0,0,1-.13.49c-.41.71-.57,1.93-.62,4.84A11.07,11.07,0,0,1,271.55,10c1.41,1,2.05,1.79,2.05,2.63a1.06,1.06,0,0,1-1.09,1.14c-.57,0-.86-.23-1.51-1.22a9.29,9.29,0,0,0-4.91-3.82Z"/><path class="cls-1" d="M299.13,12.66a21.37,21.37,0,0,1-2.39,1.56c1.4,1.22,2.24,2.52,2.24,3.54a1,1,0,0,1-1.07.88c-.52,0-.73-.21-1.17-1.19a11.41,11.41,0,0,0-5.12-5.2c-.16-.08-.24-.13-.24-.21a.25.25,0,0,1,.26-.21,11.25,11.25,0,0,1,2.21.68,12.34,12.34,0,0,1,2.45,1.3c2.57-2.06,5.22-4.89,5.22-5.57,0-.47-.59-.67-1.82-.67a46.21,46.21,0,0,0-6.94.91,31,31,0,0,0-4.37,1.27,1.63,1.63,0,0,1-.52.13A3.17,3.17,0,0,1,286.08,9a2.77,2.77,0,0,1-.62-1.8c0-.28.07-.49.2-.49s.11,0,.16.15a2.11,2.11,0,0,0,1.95,1c1.19,0,3.69-.26,8.09-.84s4.62-.54,5.59-.83a3.27,3.27,0,0,1,1-.23c.52,0,1,.26,2.57,1.4.49.39.7.65.7,1s-.18.52-.75.62a4.87,4.87,0,0,0-1.69.76c-.29.18-.34.21-1.54,1.09Z"/><path class="cls-1" d="M323.28,9.85c0,4.66.08,7.13.21,8.87.05.55.08.94.08,1.17,0,1.09-.39,1.9-.94,1.9s-1.38-1.17-1.38-1.82a3.85,3.85,0,0,1,.08-.68c.21-1.43.42-7.2.42-12.4,0-2.44-.11-3.33-.42-3.85a1.31,1.31,0,0,0-1.25-.65c-.18,0-.26-.08-.26-.23s.08-.18.24-.26a7.36,7.36,0,0,1,1.58-.42c.39,0,.76.18,1.9.91.34.24.49.42.49.6a1.33,1.33,0,0,1-.13.49c-.41.71-.57,1.93-.62,4.84A11.07,11.07,0,0,1,328.74,10c1.4,1,2.05,1.79,2.05,2.63a1.06,1.06,0,0,1-1.09,1.14c-.57,0-.86-.23-1.51-1.22a9.29,9.29,0,0,0-4.91-3.82Z"/><path class="cls-1" d="M344.31,20.9a27,27,0,0,0,8-5.59,21.54,21.54,0,0,0,4.52-6.11,9,9,0,0,0,1-2.31.61.61,0,0,0-.63-.57,4.21,4.21,0,0,0-.49,0c-.08,0-.62.13-1.17.21s-.81.13-1,.15a1.87,1.87,0,0,1-.51.08,2,2,0,0,1-1-.36,25.33,25.33,0,0,1-4.29,5.22A11.11,11.11,0,0,1,345.27,14c-.16,0-.29-.08-.29-.18s.06-.24.71-.71A21.4,21.4,0,0,0,350,8.24a9.23,9.23,0,0,0,1.77-4,1.65,1.65,0,0,0-1-1.61c-.11,0-.19-.11-.19-.16s.29-.23.71-.23a3.06,3.06,0,0,1,1.82.65c.93.62,1.14.83,1.14,1.19,0,.16,0,.21-.18.39a4.66,4.66,0,0,0-.44.65c-.19.42-.26.55-.37.76a2,2,0,0,0,.63.1A17,17,0,0,0,357,5.41a5.09,5.09,0,0,0,1-.47c.44-.29.59-.34.75-.34s.62.21,1.51,1,.88.76.88,1-.1.31-.39.42a6.33,6.33,0,0,0-.83.36c-3.69,7.39-8.09,11.49-15.08,14.07a1.82,1.82,0,0,0-.37.13,2,2,0,0,1-.23,0c-.21,0-.47-.21-.47-.39s.05-.13.37-.21Z"/><path class="cls-1" d="M375.79,4.47a.17.17,0,0,1-.13-.15,2.88,2.88,0,0,1,1.51-.65,3.51,3.51,0,0,1,1.35.57c.7.36.86.52.86.75a2.75,2.75,0,0,1-.05.31,13.92,13.92,0,0,0-.21,3c0,.45,0,1,.05,1.82,0,.58.05,1.17.05,1.2a6.34,6.34,0,0,0,0,.94,1.57,1.57,0,0,1,0,.33.61.61,0,0,1-.55.63A1.68,1.68,0,0,1,377.3,12a1.23,1.23,0,0,1,0-.26,27.84,27.84,0,0,0,.13-3.33c0-2.13-.05-2.86-.28-3.25A1.23,1.23,0,0,0,376,4.45a.39.39,0,0,0-.15,0Zm7.44-1.14a.17.17,0,0,1-.08,0,.25.25,0,0,1-.21-.23c0-.23,1.12-.75,1.64-.75.75,0,2.44,1.11,2.44,1.61,0,.1,0,.18-.18.44l-.31.57a7,7,0,0,0,0,1c0,2.08-.13,5.39-.26,6.24-.52,3.7-3,6.53-6.92,8a12.92,12.92,0,0,1-3,.94c-.18,0-.41-.13-.41-.26s.08-.11.34-.18a14.81,14.81,0,0,0,5.09-2.89c2.78-2.83,3.36-4.71,3.36-11.23l0-1.09c0-1.3-.52-2.16-1.32-2.16Z"/><path class="cls-1" d="M403.89,13.29a5.61,5.61,0,0,1-1.2.18,3.14,3.14,0,0,1-2.28-1.41,7.1,7.1,0,0,1-.19-1.45c0-.18.08-.31.21-.31s.13,0,.21.18c.34.75,1,1,2.47,1a122.2,122.2,0,0,0,15-1.06,5.84,5.84,0,0,1,.7-.06,1.76,1.76,0,0,1,1.38.58c.49.46.68.72.68,1,0,.39-.52.62-1.36.62-.21,0-.49,0-1,0s-2.68-.08-3.77-.08A69.38,69.38,0,0,0,403.89,13.29Z"/><path class="cls-1" d="M441.77,12.14c-.31-.18-.39-.26-.39-.34s.13-.18.26-.18a7.44,7.44,0,0,1,3.17,1.48c2,1.46,3.48,3.54,3.48,4.92a1.12,1.12,0,0,1-1.14,1.22.92.92,0,0,1-.75-.34c-.16-.21-.16-.23-.5-1.14a12.7,12.7,0,0,0-1.25-2.68,67.47,67.47,0,0,1-8.42,2.5,15.9,15.9,0,0,0-4.32,1.48,1.77,1.77,0,0,1-.52.18c-.28,0-.88-.49-1.56-1.27a1.62,1.62,0,0,1-.52-1.2,5.32,5.32,0,0,1,.13-1c.06-.21.08-.24.24-.24s.13,0,.18.19c.13.62.68.93,1.61.93a11.12,11.12,0,0,0,1.72-.13c1-1.87,2.08-4,3.51-7.2,1.25-2.76,1.45-3.28,1.45-3.72a1.62,1.62,0,0,0-.52-1.09c-.1-.1-.13-.13-.62-.34-.1,0-.13-.1-.13-.15s.55-.29,1.07-.29a2.78,2.78,0,0,1,1.58.65c.91.78,1.38,1.35,1.38,1.72,0,.18-.08.28-.39.62a87.94,87.94,0,0,0-6.24,9.67c3-.44,6.92-1.22,10-2A7.73,7.73,0,0,0,441.77,12.14Z"/><path class="cls-1" d="M123.35,53.54h-2.68l-2.13.05c-.29,0-1,0-2,0l-.42-.85c2,.05,3,.07,4.5.13h2.68V46.65h-5.56A18.22,18.22,0,0,1,113.65,52c-.28.26-.41.34-.54.34s-.11,0-.11-.13,0-.23.31-.57a28.2,28.2,0,0,0,4.35-10.79l2.18.83c.42.18.65.36.65.6a.78.78,0,0,1-.6.62l-.41.08a29.43,29.43,0,0,1-1.36,3h5.23V39.63l2.37.26c.46,0,.65.18.65.49s-.16.39-.45.58l-.59.38v4.71h5.25l1.66-1.79,2.06,1.43c.31.21.44.36.44.57s-.16.39-.5.39h-8.91v6.27h3.12L130,51.28l2,1.38a.66.66,0,0,1,.36.52c0,.23-.21.36-.52.36h-6.47v6.79h6.39l1.82-2,2.08,1.46a1,1,0,0,1,.44.67.47.47,0,0,1-.39.47H117.6c-2,.08-3.61.1-4.65.13l-.47-.88c1.25,0,2.94,0,5.12.13h5.75Z"/><path class="cls-1" d="M159.33,54.19c1.51,1.2,2.31,2.44,2.31,3.59a1.24,1.24,0,0,1-1.14,1.35c-.52,0-.86-.34-1.2-1.22a10.37,10.37,0,0,0-5.41-5.83,21.31,21.31,0,0,1-7.77,6.61A15.07,15.07,0,0,1,142.69,60c-.18,0-.39-.16-.39-.31s.08-.16.49-.31a23.79,23.79,0,0,0,8.06-6,24.17,24.17,0,0,0,3.64-5.57,7.85,7.85,0,0,0,.94-2.37c0-.23-.18-.38-.47-.38a29.32,29.32,0,0,0-6.19,1.63c-.44.19-.47.19-.57.19s-.26,0-1.09-.63a1.26,1.26,0,0,1-.68-1.25c0-.49.08-.7.26-.7s.11,0,.13.13c.16.39.94.68,1.85.68a43.11,43.11,0,0,0,5-.78,5.52,5.52,0,0,0,2.08-.86.67.67,0,0,1,.41-.16c.26,0,.57.18,1.56.94.71.55.84.68.84.88s-.08.19-.32.34l-.54.39a36.68,36.68,0,0,1-3.49,5.72A12,12,0,0,1,159.33,54.19Z"/><path class="cls-1" d="M179.06,48.73c.86.52,1.4,1.12,1.4,1.48,0,.13-.08.26-.31.39-.39.26-.47.37-1,1.12a18,18,0,0,1-7.54,6.34,11,11,0,0,1-1.9.63c-.15,0-.31-.13-.31-.24s.05-.13.44-.31a18.2,18.2,0,0,0,5.2-4c1.43-1.64,2.6-3.67,2.6-4.52a1.73,1.73,0,0,0-1.06-1.3c-.13-.06-.16-.08-.16-.16s.18-.29.42-.29A6.7,6.7,0,0,1,179.06,48.73Zm5.56-1c3.46,1.46,6.84,5.28,6.84,7.75a1.34,1.34,0,0,1-1.33,1.43c-.49,0-.72-.31-1.06-1.38-1.07-3.51-3.46-6.6-6-7.8-.24-.11-.29-.13-.29-.23s.16-.21.31-.21A6.55,6.55,0,0,1,184.62,47.69Zm6.09-4a2.54,2.54,0,1,1-2.5-2.55A2.55,2.55,0,0,1,190.71,43.71Zm-4.22,0a1.68,1.68,0,0,0,3.36,0,1.68,1.68,0,0,0-3.36,0Z"/><path class="cls-1" d="M216.47,48.47a33.72,33.72,0,0,0-5.26.31c1,.6,1.8,1.28,1.8,1.59,0,.13,0,.15-.16.34a2,2,0,0,0-.28.41l-.13.47a15.64,15.64,0,0,1-2.08,4.94,11.24,11.24,0,0,1-5.75,4.78,5,5,0,0,1-1.19.34c-.14,0-.32-.13-.32-.21a.06.06,0,0,1,.05,0,12.18,12.18,0,0,0,3.2-2.13,13.18,13.18,0,0,0,3.41-5.1,11.24,11.24,0,0,0,.91-4,1.46,1.46,0,0,0-.6-1.28,5.65,5.65,0,0,1-.68.08,9.52,9.52,0,0,0-2.41.55,1.69,1.69,0,0,1-.39.13,5.69,5.69,0,0,1-.81-.21c-2.39,3-4.19,4.63-4.94,4.63a.27.27,0,0,1-.29-.24c0-.13.08-.23.29-.39a15,15,0,0,0,3.62-4.5,14,14,0,0,0,1.79-4.7,1.5,1.5,0,0,0-1.09-1.59.22.22,0,0,1-.21-.21c0-.18.18-.23.7-.23A3,3,0,0,1,208,43c.78.62,1,.88,1,1s-.05.2-.23.36a2.18,2.18,0,0,0-.44.42,22.82,22.82,0,0,1-1.79,3.56,1.13,1.13,0,0,0,.38,0,18.54,18.54,0,0,0,2-.29c4.71-.65,5.36-.8,6.66-1.53a1.93,1.93,0,0,1,.68-.21,7.49,7.49,0,0,1,1.82.73c.54.23.77.52.77.86a.43.43,0,0,1-.41.44Zm2.21-4.14a.9.9,0,0,1-.86.86.7.7,0,0,1-.65-.41,4.69,4.69,0,0,0-2.47-2.16c-.18,0-.26-.1-.26-.16s.39-.21.83-.21C217,42.25,218.68,43.29,218.68,44.33Zm3-1.29a.92.92,0,0,1-.89.91.7.7,0,0,1-.7-.47,4.62,4.62,0,0,0-2.57-2.19.22.22,0,0,1-.18-.13c0-.13.33-.2.75-.2C219.87,41,221.67,42,221.67,43Z"/><path class="cls-1" d="M233.7,50.91a2.74,2.74,0,0,1,1.35,2.14c0,.67-.36,1.11-.91,1.11s-.62-.2-.83-.93a5.23,5.23,0,0,0-2.24-3c-.28-.13-.33-.15-.33-.26s.13-.18.33-.18A5,5,0,0,1,233.7,50.91Zm-1.35,11.34a3.7,3.7,0,0,0-.52.13,1,1,0,0,1-.26,0,.35.35,0,0,1-.31-.28c0-.08.05-.11.15-.13a19.4,19.4,0,0,0,3.9-2,22.76,22.76,0,0,0,6-5.8,16,16,0,0,0,1.61-3.25,9.53,9.53,0,0,0,.41-1.9,1.06,1.06,0,0,0-.7-1c-.18-.05-.23-.11-.23-.18s.31-.29.75-.29a2,2,0,0,1,1.51.75c.86.89,1.14,1.25,1.14,1.48s-.1.34-.65.76C242.77,56.11,237.29,61.16,232.35,62.25Zm6.73-11a1,1,0,0,1-1,1.09.65.65,0,0,1-.67-.59,5.73,5.73,0,0,0-2.32-3.67c-.1,0-.15-.1-.15-.18s.1-.16.26-.16C236.87,47.74,239.08,49.72,239.08,51.25Z"/><path class="cls-1" d="M263.91,48.6c6.89-.7,8.45-.94,9.54-1.48.26-.16.26-.16.41-.16.78,0,2.58,1,2.58,1.51a.75.75,0,0,1-.73.73,4.21,4.21,0,0,1-.67-.08,26,26,0,0,0-3.33-.29c-.55,0-2,.08-3.54.21,1.17.65,1.69,1.07,1.69,1.3s0,.21-.55.78a15.87,15.87,0,0,1-7.22,9.26,15.54,15.54,0,0,1-3,1.17.22.22,0,0,1-.2-.21c0-.08.05-.1.2-.18a13.31,13.31,0,0,0,4.5-3.33,16,16,0,0,0,3.25-5.28,8,8,0,0,0,.57-2.49,1.16,1.16,0,0,0-.33-.91,30,30,0,0,0-5.85,1.19,3.35,3.35,0,0,1-1,.24,2.94,2.94,0,0,1-2-1.1,1.89,1.89,0,0,1-.39-1.14c0-.13.05-.21.13-.21s.08,0,.26.21a2.68,2.68,0,0,0,1.64.62c.21,0,.21,0,2.13-.18Zm4.94-3.93-1.2.26a21.42,21.42,0,0,1-3.9.65,1.93,1.93,0,0,1-1.72-1,3.59,3.59,0,0,1-.46-1c0-.08.05-.13.1-.13s.1,0,.16.13c.2.34.7.52,1.45.52a23.17,23.17,0,0,0,3.2-.44,9.09,9.09,0,0,0,2.5-.84,1.74,1.74,0,0,1,.72-.26,6.41,6.41,0,0,1,1.69.6c.29.16.42.34.42.55a.38.38,0,0,1-.26.36,7,7,0,0,1-1.27.31Z"/><path class="cls-1" d="M297.31,59.29s0,.57.05,1.09,0,.73,0,1c0,.65-.18,1-.57,1-.68,0-1.46-.6-1.46-1.09a3,3,0,0,1,.05-.39,62,62,0,0,0,.55-7.75,2.51,2.51,0,0,0-.23-1.33,30.66,30.66,0,0,1-5.36,4.35,13.61,13.61,0,0,1-2.91,1.3c-.16,0-.29-.11-.29-.21s.05-.08.13-.13a24.79,24.79,0,0,0,6.16-4.79c2.45-2.44,4.42-5,4.42-5.85,0-.26-.36-.62-.78-.72-.13,0-.18-.08-.18-.19s.42-.33.91-.33a2.46,2.46,0,0,1,1.35.57c.86.57,1.17.88,1.17,1.27a.29.29,0,0,1-.2.31,1.45,1.45,0,0,0-.81.65,29.77,29.77,0,0,1-3.17,3.31c1.35.59,1.43.65,1.43.85a1,1,0,0,1-.06.26,5,5,0,0,0-.23,1.93Z"/><path class="cls-1" d="M318.11,53.28a5.06,5.06,0,0,1-1.2.18,3.17,3.17,0,0,1-2.29-1.4,7.36,7.36,0,0,1-.18-1.46c0-.18.08-.31.21-.31s.13.05.21.18c.33.76,1,1,2.47,1a121.91,121.91,0,0,0,15-1.07,6.07,6.07,0,0,1,.71-.05,1.72,1.72,0,0,1,1.37.57c.5.47.68.73.68,1,0,.39-.52.63-1.35.63-.21,0-.5,0-1,0s-2.68-.08-3.77-.08A70.5,70.5,0,0,0,318.11,53.28Z"/></g></g></svg>