<svg xmlns="http://www.w3.org/2000/svg" viewBox="0 0 72.5 19.07"><defs><style>.cls-1{fill:#343434;}</style></defs><title>title-3-right-price</title><g id="Layer_2" data-name="Layer 2"><g id="Layer_1-2" data-name="Layer 1"><path class="cls-1" d="M.42,15.35c2.16-.08,2.4-.22,2.42-1.46v-9c0-.74-.26-1.18-.74-1.3A11.59,11.59,0,0,0,0,3.52v-.6c2.26-.08,3.1-.38,4-1.4h.46V13.89c0,1.2.36,1.4,2.52,1.46V16H.42Z"/><path class="cls-1" d="M11.6,18.61c1.08-.74,1.52-1.26,1.52-1.84,0-.28-.06-.32-.68-.42a1.15,1.15,0,0,1-1-1.16,1.25,1.25,0,0,1,1.3-1.26,1.65,1.65,0,0,1,1.56,1.82c0,1.26-.68,2.2-2.36,3.32Z"/><path class="cls-1" d="M21.25,8.14l.64,0c2,0,2.8-.82,2.8-3,0-1.94-.74-3-2.14-3a1.62,1.62,0,0,0-1.76,1.34,1.4,1.4,0,0,0,.15.52,1.86,1.86,0,0,1,.14.66,1,1,0,0,1-1,1c-.66,0-1.1-.52-1.1-1.3,0-1.58,1.73-2.92,3.81-2.92A3.44,3.44,0,0,1,26.43,5a3.63,3.63,0,0,1-1.08,2.6,4.26,4.26,0,0,1-1.76.94,4,4,0,0,1,2.46,1.31,3.57,3.57,0,0,1,.8,2.3,4.18,4.18,0,0,1-4.42,4.12c-2,0-3.87-1.34-3.87-2.84a1.27,1.27,0,0,1,1.22-1.36,1,1,0,0,1,1,1.06,2.62,2.62,0,0,1-.26,1,1.17,1.17,0,0,0,0,.26c0,.64.91,1.24,1.93,1.24,1.66,0,2.58-1.22,2.58-3.46s-1-3.35-3-3.35l-.78,0Z"/><path class="cls-1" d="M33.47,8.14l.64,0c2,0,2.8-.82,2.8-3,0-1.94-.74-3-2.14-3A1.62,1.62,0,0,0,33,3.54a1.54,1.54,0,0,0,.14.52,1.86,1.86,0,0,1,.14.66,1,1,0,0,1-1,1c-.66,0-1.1-.52-1.1-1.3,0-1.58,1.74-2.92,3.82-2.92A3.44,3.44,0,0,1,38.65,5a3.63,3.63,0,0,1-1.08,2.6,4.26,4.26,0,0,1-1.76.94,4,4,0,0,1,2.46,1.31,3.57,3.57,0,0,1,.8,2.3,4.18,4.18,0,0,1-4.42,4.12c-2,0-3.88-1.34-3.88-2.84A1.27,1.27,0,0,1,32,12.05a1,1,0,0,1,1,1.06,2.62,2.62,0,0,1-.26,1,1.17,1.17,0,0,0,0,.26c0,.64.92,1.24,1.94,1.24,1.66,0,2.58-1.22,2.58-3.46s-1-3.35-3-3.35l-.78,0Z"/><path class="cls-1" d="M51.59,8.74a12.58,12.58,0,0,1-1,5.39,3.84,3.84,0,0,1-3.28,2.2,3.93,3.93,0,0,1-3.42-2.46A12.48,12.48,0,0,1,43,8.78c0-4.5,1.68-7.32,4.38-7.32C49.89,1.46,51.59,4.4,51.59,8.74Zm-6.84.18c0,4.61.82,6.75,2.6,6.75a1.78,1.78,0,0,0,1.6-.94c.54-1,.82-2.92.82-5.75,0-4.9-.7-6.88-2.46-6.88S44.75,4.4,44.75,8.92Z"/><path class="cls-1" d="M58.79.88H70.34L71,0l1.42,1.2a.35.35,0,0,1,.12.26.36.36,0,0,1-.12.26L71.86,2V15.69c0,.56-.14.78-.74,1.16a2.22,2.22,0,0,1-.84.32c-.18,0-.26-.12-.3-.36a.84.84,0,0,0-.14-.48,1.41,1.41,0,0,0-.48-.24l-1.78-.58v-.28h2.3c.36,0,.52-.14.52-.44V8.6H58.83v7.77c0,.3-.18.5-.6.66a2,2,0,0,1-.66.2.16.16,0,0,1-.16-.18V.12Zm5,7.24V1.36h-5V8.12Zm6.61,0V1.36H65.24V8.12Z"/></g></g></svg>