<svg xmlns="http://www.w3.org/2000/svg" viewBox="0 0 544.41 28.29"><defs><style>.cls-1{fill:#343434;}</style></defs><title>recommend-2-title</title><g id="Layer_2" data-name="Layer 2"><g id="Layer_1-2" data-name="Layer 1"><path class="cls-1" d="M5.34,3.39c0,2.91,0,3.09,0,3.87,0,7.32-.45,11.37-1.62,14.19C2.85,23.61.81,26.61.21,26.61A.21.21,0,0,1,0,26.37c0-.12,0-.12.54-1.17a21,21,0,0,0,1.68-5.55,54.47,54.47,0,0,0,.48-9.12c0-2.46-.06-5.07-.21-9.36L5.88,2.58H23.16l2-2.25L27.9,2.49a.72.72,0,0,1,.3.48c0,.27-.24.42-.66.42ZM4.62,19.8C8.19,20,8.46,20,9.81,20h5V17.22l2.22.42a5.76,5.76,0,0,1,.45-.42,20.15,20.15,0,0,0,1.41-1.44H10.17c-.84,0-1.62,0-3.42.09l-.6-1,2,.06c1,0,1.68.06,2,.06h9.39l1.17-1.32,2.61,2a.72.72,0,0,1,.33.57c0,.33-.21.48-.66.51l-1.56.06-1.23.42L17.91,18l-.6.21V20h6l1.86-2.07L27.75,20a.62.62,0,0,1,.24.42c0,.24-.21.36-.57.36H17.31v4.95a1.61,1.61,0,0,1-1,1.71,4.43,4.43,0,0,1-2,.75.86.86,0,0,1-.66-.3,3.42,3.42,0,0,1-.21-1c-.15-.63-.18-.66-3-1.65-1.11-.39-1.14-.42-1.14-.6s.12-.21.39-.21l1.41.06,2.28.06c1.14,0,1.38-.15,1.38-.84v-3h-5c-1.05,0-1.53,0-4.65.12Zm6.12-6.18c0,.3-.15.45-.54.57a8.6,8.6,0,0,1-1.5.21c-.33,0-.45-.15-.45-.54V4.44L11.37,6h9L21.54,4.2l2.67,2.34c.33.3.48.54.48.78a.79.79,0,0,1-.6.72l-.69.21V13c0,.27-.12.42-.42.54a6.28,6.28,0,0,1-1.53.24c-.3,0-.48-.12-.48-.3v-.78H10.74ZM21,8.85v-2H10.74v2Zm0,3V9.66H10.74v2.19Z"/><path class="cls-1" d="M34.56,11.85a30.69,30.69,0,0,0,3.81-1V1.59l3.15.24a.69.69,0,0,1,.69.63.82.82,0,0,1-.39.66l-.72.51v6.45L44.49,9l1-2.61,2.91,1.35a.62.62,0,0,1,.39.48.42.42,0,0,1-.27.36L41.1,10.89v6.66c0,.42,0,.45.15.54a1,1,0,0,0,.51.09h1.17l1.41,0c1.44.09,1.86-.45,3.18-4,.15-.42.21-.51.36-.51a.25.25,0,0,1,.24.27,1.24,1.24,0,0,1,0,.3l0,.36c0,.57-.09,1-.09,1.26l-.09,1a5.4,5.4,0,0,0-.06.69c0,.18.06.24.3.39.57.33.87.72.87,1.14,0,1.14-1.38,1.44-6.36,1.44-2.58,0-3.09-.06-3.6-.33s-.66-.69-.66-2.13V11.82c-1.26.39-1.47.48-2.85,1ZM54.21,5a51.19,51.19,0,0,1-1.38,12.57c-1.32,4.56-3.9,7.11-9.36,9.21a29.32,29.32,0,0,1-3.21,1c-.18,0-.3-.09-.3-.21s.12-.27.48-.42c8.58-3.63,11-8.58,11-22.17H49.23c-1.29,0-2.25,0-4.65.12L44,4c2.82.12,3.93.15,5.19.15h9L59.4,2.4l2.73,2.76a1.28,1.28,0,0,1,.36.69.6.6,0,0,1-.42.51l-.66.27c-.18,9.33-.36,12.09-1,14.64a7.58,7.58,0,0,1-2.55,4.47,4.08,4.08,0,0,1-2.31,1c-.54,0-.66-.27-.66-1.38,0-.18,0-.27,0-.3a.7.7,0,0,0-.27-.21l-1-.39-1.38-.57c-1.2-.48-1.2-.48-1.2-.69s.12-.24.33-.24a1.58,1.58,0,0,1,.42.06,28.07,28.07,0,0,0,3.09.27c2.07,0,2.85-1.35,3.27-5.55A119.19,119.19,0,0,0,58.59,5Z"/><path class="cls-1" d="M80.94,15.27a7.92,7.92,0,0,0,.3,1.92,2.53,2.53,0,0,1,.12.69A1.58,1.58,0,0,1,80,19.38c-1.41,0-2.55-2.73-2.55-6.15a25.18,25.18,0,0,1,.81-5.82,18.73,18.73,0,0,0,.66-4.23c0-1.41-.45-2.1-1.53-2.25-.18,0-.24-.09-.24-.18S77.91.3,78.63.3c1.71,0,3.69,1.56,3.69,2.91,0,.51-.12.81-1.08,2.73a12.63,12.63,0,0,0-1.65,5.22c0,.57.15,1.08.36,1.08s.42-.21.63-.66C82.35,7.8,84.18,6,86.22,6,89.07,6,91,9.3,91,14.25a12.58,12.58,0,0,1-5.37,10.86,18.74,18.74,0,0,1-5,2.4,6.59,6.59,0,0,0-.66.18,1.17,1.17,0,0,1-.39.09.2.2,0,0,1-.21-.18c0-.15,0-.15.48-.36a17.38,17.38,0,0,0,5.13-3.78c1.92-2.13,2.88-5.19,2.88-9.12,0-4.2-.93-6.81-2.43-6.81C83.31,7.53,80.94,11.67,80.94,15.27Z"/><path class="cls-1" d="M106.83,14.16c1.08,0,2-.6,4.83-3.3,2.22-2.07,2.73-2.4,3.84-2.4s1.44.18,4.86,3a41.27,41.27,0,0,0,9,6c1.32.63,1.68.84,2,1.26a3.92,3.92,0,0,1,.57,2.07,1.42,1.42,0,0,1-1.35,1.56c-.66,0-1.29-.33-2.76-1.47a42.54,42.54,0,0,1-4-3.39c-.93-.87-2.1-1.92-3.51-3.21-1.2-1-2.4-2.16-2.58-2.34-1.32-1.23-1.92-1.65-2.52-1.65s-.6.09-1.92,1.83c-2.34,3.09-2.37,3.12-2.85,3.69-.84,1-1.47,1.44-2,1.44A4.51,4.51,0,0,1,105.87,16a2.71,2.71,0,0,1-.84-1.83,1.72,1.72,0,0,1,.12-.72.23.23,0,0,1,.06-.09A2.09,2.09,0,0,0,106.83,14.16Zm18.3-7.41A1.15,1.15,0,0,1,124,7.92a.83.83,0,0,1-.87-.51,5.31,5.31,0,0,0-2.64-2.64c-.3-.06-.36-.12-.36-.24s.27-.24,1.08-.24C123.27,4.29,125.13,5.46,125.13,6.75Zm3.63-1.92A1.13,1.13,0,0,1,127.53,6c-.54,0-.57,0-1.11-.9a5.57,5.57,0,0,0-2.67-2.13c-.24-.06-.3-.09-.3-.24s.33-.27,1.26-.27C126.9,2.43,128.76,3.54,128.76,4.83Z"/><path class="cls-1" d="M165.93,14.73c0,.6-.6,1-1.53,1-.27,0-1.23-.09-2.52-.21-.63-.06-1.53-.09-2.64-.09-7.5,0-11.94.42-14.19,1.32a1.18,1.18,0,0,1-.42.09,5.39,5.39,0,0,1-2.58-1A2.8,2.8,0,0,1,141,13.41c0-.54.15-.84.45-.84.09,0,.15.06.3.3.45.75,1.44,1,3.84,1s9.75-.45,11.82-.69a23.72,23.72,0,0,0,4.77-1C164.67,12.69,165.93,13.56,165.93,14.73Z"/><path class="cls-1" d="M195.18,18.72c1.29.51,1.86,1,1.86,1.62a.8.8,0,0,1-.84.75,2,2,0,0,1-.51-.09,13.55,13.55,0,0,0-2.91-.36,49.48,49.48,0,0,0-7.41,1,9,9,0,0,0-2.79.9,1.47,1.47,0,0,1-.57.15c-.93,0-2.82-1.83-2.82-2.73,0-.15.12-.36.24-.36a.37.37,0,0,0,.09.06,4.57,4.57,0,0,0,2.07.42c.84,0,7.5-.69,10.77-1.11l.21-1.35c1-5.76,1.05-6.27,1.05-7.14,0-.51-.24-.75-.72-.75a11.89,11.89,0,0,0-2.31.27c-.24.06-1.74.33-3.24.6a40.45,40.45,0,0,0-5.88,1.38,2.51,2.51,0,0,1-.3.06,3.07,3.07,0,0,1-1.35-.63,3.13,3.13,0,0,1-1.44-2.1c0-.66.12-1.14.33-1.14.06,0,.12,0,.21.21.33.69,1.5,1.05,3.36,1.05a58.54,58.54,0,0,0,7.35-.81,11.35,11.35,0,0,0,4.11-1.17c.63-.36.78-.42,1-.42s.39,0,2,1.14c1,.72,1.44,1.14,1.44,1.44s-.06.3-.33.51c-1.14.9-1.5,1.95-3.12,8.67Z"/><path class="cls-1" d="M221.1,9.69a1.65,1.65,0,0,1-1.65,1.59c-.6,0-.87-.24-1.29-1.14a8.75,8.75,0,0,0-4.38-4c-.24-.06-.33-.12-.33-.21,0-.24.75-.39,1.83-.39C218.19,5.52,221.1,7.62,221.1,9.69Zm13.65-3.87a22.69,22.69,0,0,1-2.91,5.07A45,45,0,0,1,219.06,22.5a3.39,3.39,0,0,0-.57.39c-.18.15-.36.33-.57.48a.85.85,0,0,1-.42.18,3.94,3.94,0,0,1-2.1-1.26c-1.14-1.08-1.56-1.71-1.56-2.37s.18-1.2.42-1.2.12,0,.27.3a2.43,2.43,0,0,0,1.77.72c1.62,0,4.41-1.47,7.68-4A66.37,66.37,0,0,0,234.09,6c.21-.24.33-.36.45-.36A.25.25,0,0,1,234.75,5.82Z"/><path class="cls-1" d="M258.69,8.52a19.31,19.31,0,0,1-3,9.75c-1.77,2.76-4.38,4.89-6,4.89a3.63,3.63,0,0,1-2.52-1.65,7.77,7.77,0,0,1-1.47-4.83c0-6.6,6-12.27,13.05-12.27a11.57,11.57,0,0,1,8.43,3.3A9,9,0,0,1,269.52,14a11,11,0,0,1-5.55,9.6,18.48,18.48,0,0,1-5.55,2,13,13,0,0,1-1.92.36c-.18,0-.3-.06-.3-.18s.09-.18.57-.33a16.11,16.11,0,0,0,5.37-2.79A10.26,10.26,0,0,0,266,14.19c0-4-1.35-6.75-4-8.07a7.19,7.19,0,0,0-3.09-.72c-.09,0-.3,0-.63,0A11.48,11.48,0,0,1,258.69,8.52Zm-6.78-.27a11.75,11.75,0,0,0-3.54,8.37c0,1.77.81,3.33,1.74,3.33s2.64-1.56,3.9-3.54a17.64,17.64,0,0,0,3.06-9,7.21,7.21,0,0,0-.18-1.68,1.91,1.91,0,0,1-.06-.21A11.34,11.34,0,0,0,251.91,8.25Z"/><path class="cls-1" d="M289.11,26.79c0,.36-1.17.78-2.22.78-.36,0-.51-.12-.51-.39V16a31.09,31.09,0,0,1-4.8,4.29,13.12,13.12,0,0,1-2.79,1.68.2.2,0,0,1-.18-.21c0-.09.09-.18.33-.39a29.31,29.31,0,0,0,10.23-17h-3.81c-.51,0-1.32,0-2.28.06l-2.91.09-.72-1.11,3.42.09c1.08,0,2.07.06,2.49.06H301l2.16-2.4,3,2.4a.47.47,0,0,1,.21.39.38.38,0,0,1-.36.42H292.47a37.24,37.24,0,0,1-3.93,8.82l.63.54h9.66l1.17-1.8,2.88,2.7a.83.83,0,0,1,.3.57.75.75,0,0,1-.39.6l-.81.36v10c0,.36-1.29.84-2.28.84-.36,0-.51-.12-.51-.42V24.9H289.11Zm10.08-2.7v-9.6H289.11v9.6Z"/><path class="cls-1" d="M314.22,20.52c3.24.12,4.56.15,5.88.15H326V17.76h-3.57c-1.47,0-2.31,0-4.56.12l-.66-1.08c2.88.12,4,.15,5.22.15H326V14.4h-4.8c-1.08,0-2.13,0-5.34.15l-.63-1.14c3.33.15,4.62.18,5.91.18h2a5,5,0,0,1-.24-.51,8.32,8.32,0,0,1-.3-.78,3.81,3.81,0,0,0-1.35-1.92,23.14,23.14,0,0,1-5.94,1.44c-.18,0-.3-.09-.3-.24s.12-.24.48-.36C320.43,10,322.89,8,323.43,4.8h-4.62a6.72,6.72,0,0,1-.45,2.43A2.91,2.91,0,0,1,316,9.06a1.39,1.39,0,0,1-1.35-1.47c0-.63.12-.78,1.26-1.71a4.15,4.15,0,0,0,1.83-3.33c0-.27.12-.42.3-.42.36,0,.54.48.75,1.86h7.14V.09L329,.27a.65.65,0,0,1,.63.63.66.66,0,0,1-.39.6l-.57.24V4h7.62l1.23-1.77,2.76,2.7a1,1,0,0,1,.3.6.57.57,0,0,1-.6.54h-1.35A15.93,15.93,0,0,0,337,7c-.3.21-.63.42-.87.6s-.39.24-.57.33a1.25,1.25,0,0,1-.63.3.14.14,0,0,1-.12-.15,3.4,3.4,0,0,1,.3-.66,23.77,23.77,0,0,0,1.23-2.64H330.9v3c0,.75,0,.75,3.51.75,1.8,0,2.37-.06,2.7-.36a6.36,6.36,0,0,0,1.05-1.5c.24-.39.39-.54.54-.54s.12.09.12.21,0,.36-.09,1.14c0,.21-.06.48-.06.51,0,.18.06.27.33.39.54.24.78.54.78,1s-.48.87-1.35,1-2.07.12-5.07.12l-.75,0,1.2.69a.48.48,0,0,1,.24.42.5.5,0,0,1-.48.51h-.69a25,25,0,0,0-2.07,1.53h3.48l1.92-2.28,2.55,2.22A.62.62,0,0,1,339,14c0,.27-.15.42-.36.42H328.5V17h4l1.83-2.19,2.43,2.1a.86.86,0,0,1,.27.51.42.42,0,0,1-.36.39H328.5v2.91h7.89l1.92-2.19,2.55,2.19a.67.67,0,0,1,.24.45.37.37,0,0,1-.39.36H320.1c-2,0-2.7,0-5.19.15ZM319.08,24a5.66,5.66,0,0,1-.6,2.73,3.13,3.13,0,0,1-2.31,1.59,1.58,1.58,0,0,1-1.71-1.59c0-.66.12-.78,1.5-1.68a4.56,4.56,0,0,0,2.25-2.7c.09-.24.18-.33.33-.33C318.9,22,319.08,22.62,319.08,24Zm4.32-1.14c1.68,1.11,2.4,2.16,2.4,3.57a1.65,1.65,0,0,1-1.68,1.83c-.84,0-1.23-.54-1.29-1.83a7,7,0,0,0-.9-3.81.71.71,0,0,1-.18-.33.2.2,0,0,1,.21-.18A4.91,4.91,0,0,1,323.4,22.83Zm2.67-18a1.51,1.51,0,0,1-.12.39A7,7,0,0,1,322.11,10a6.46,6.46,0,0,1,2,.72,2.41,2.41,0,0,1,1.29,2,1.45,1.45,0,0,1-.27.84h4.35a21.55,21.55,0,0,0,1.26-3.24c-1.95,0-2.28-.27-2.28-1.62V4.8Zm2.82,18.06c2.07.78,3.24,2.07,3.24,3.54a1.46,1.46,0,0,1-2.31,1.2c-.33-.33-.33-.33-.9-2.19a4.81,4.81,0,0,0-1.8-2.58c-.18-.15-.24-.24-.24-.33a.2.2,0,0,1,.21-.18A14.91,14.91,0,0,1,328.89,22.86Zm6.57-.18c2.61.81,3.93,1.95,3.93,3.39a1.59,1.59,0,0,1-1.59,1.56c-.66,0-.69,0-1.89-1.83a11.58,11.58,0,0,0-3.42-3.09c-.36-.24-.48-.33-.48-.45a.28.28,0,0,1,.3-.27A22.07,22.07,0,0,1,335.46,22.68Z"/><path class="cls-1" d="M351.42,12.06c0,2.22-.93,3.75-2.31,3.75a1.12,1.12,0,0,1-1.17-1.17c0-.54,0-.57,1-2.16a6.69,6.69,0,0,0,1.11-3.75A5.06,5.06,0,0,0,350,8a1.62,1.62,0,0,1,0-.33c0-.12.06-.21.18-.21C350.61,7.44,351.42,10.38,351.42,12.06Zm7.11-3.57A24.74,24.74,0,0,1,354.69,11a71.08,71.08,0,0,1-.63,7.65,6.76,6.76,0,0,1,3.66,1.86,3.83,3.83,0,0,1,1,2.31c0,.9-.45,1.5-1.14,1.5s-1-.39-1.41-1.59A8,8,0,0,0,354,19.05a14.59,14.59,0,0,1-3.36,6.69,7.24,7.24,0,0,1-2.25,2,.19.19,0,0,1-.18-.18c0-.12.06-.21.39-.63,2.49-3.06,3.69-7.92,3.69-15.15V.51l2.7.24c.48,0,.84.3.84.63a.8.8,0,0,1-.48.66l-.66.39v7.62a47.23,47.23,0,0,0,2.43-4.14l1.59,1.47c.36.33.48.51.48.69s-.18.33-.36.39Zm5.55,9.33c-.3,3.75-1,5.61-2.67,7.23a11.42,11.42,0,0,1-4.11,2.46,6,6,0,0,1-1.77.54c-.15,0-.24-.06-.24-.18s.12-.27.48-.45c4.17-2.1,5.61-4.53,5.76-9.6h-1.68c-.84,0-1.62,0-3.45.09l-.57-1c1.92.09,2.19.09,4.08.12V12.27h-.3c-.48,0-1.11,0-1.83,0l-1.71.06-.48-1c2.16.09,3,.12,4,.12h.3V7.59l2.52.27a.65.65,0,0,1,.63.57.66.66,0,0,1-.36.51l-.45.21v2.31H368V7.65l2.43.21c.45,0,.75.27.75.54a.93.93,0,0,1-.42.63l-.45.3v2.13H372l1.68-2.13L376,11.25c.3.21.45.42.45.6s-.24.42-.57.42h-5.49V17h1.17l1.53-2,2.07,1.71a1.21,1.21,0,0,1,.48.66c0,.24-.27.42-.6.42h-6.12v6.06c0,.9.15,1,2.16,1,1.8,0,2-.06,2.37-.69A22.24,22.24,0,0,0,374.64,21c.15-.45.21-.57.36-.57s.18.12.18.42c0,.12,0,.12,0,1.26l0,1.53c0,.69,0,.72.33,1,.54.42.78.78.78,1.17s-.54,1-1.35,1.17a27.3,27.3,0,0,1-4,.18c-4.23,0-4.5-.12-4.5-2.13V17.82ZM357.84,5.25c2.1.09,3,.12,4,.12H364v-5l2.88.24c.42,0,.75.3.75.57a.7.7,0,0,1-.42.57l-.72.42V5.37h3.24l1.71-2,2.22,1.89c.27.24.42.45.42.6s-.21.33-.51.33h-7.08V9.69c0,.33-.09.48-.45.6a7.14,7.14,0,0,1-1.53.27c-.33,0-.51-.21-.51-.6V6.18h-2.1c-.93,0-1.71,0-3.48.09ZM368,17V12.27h-5.79V17Z"/><path class="cls-1" d="M397.26,8.76a15.52,15.52,0,0,1-4.26.75,3.76,3.76,0,0,1-2.82-1.2A2.88,2.88,0,0,1,389.43,7a.21.21,0,0,1,.24-.21c.09,0,.15,0,.27.21.36.51,1.05.75,2.25.75A11.13,11.13,0,0,0,396.12,7c-2.28-3.6-3.33-4.53-4.92-4.47-.12,0-.21-.06-.21-.12,0-.42,1.47-1.32,2.16-1.32a5.39,5.39,0,0,1,3.15,1c.18.15.39.48.36.6a.93.93,0,0,0,0,.27c0,.72.24,1.44,1.17,3.45a6.49,6.49,0,0,0,1.14-.84c.78-.69.9-.78,1.2-.78.84,0,1.95.75,1.95,1.32s-1,1.26-3.33,2.22a20.59,20.59,0,0,0,1.56,2.64C403,9.75,404,9,404.25,8.16a10.79,10.79,0,0,1,2.37.42c.45.15.66.39.66.69,0,.57-.42,1.05-1.41,1.68a23.47,23.47,0,0,1-4.17,2c.6.84,1.29,1.68,2.79,3.45a4,4,0,0,1,1.14,2.61c0,1.59-.93,2.82-2.13,2.82a1.72,1.72,0,0,1-.36,0A10.06,10.06,0,0,0,396,18.3c-2.52,0-4,1.11-4,2.88S393.72,24,396.51,24c.39,0,1.92-.06,2.46-.09a4.48,4.48,0,0,1,.57,0A1.28,1.28,0,0,1,401,25.23c0,1.26-1,1.86-3,1.86-5,0-8.43-2.1-8.43-5.13,0-2.79,2.64-4.65,6.57-4.65a13,13,0,0,1,3.93.6,6.29,6.29,0,0,0,1.62.33c.21,0,.36-.12.36-.3A17.22,17.22,0,0,0,400,13.71a28.09,28.09,0,0,1-7.32,1.14,6.36,6.36,0,0,1-3.48-.87,3.37,3.37,0,0,1-1.44-2.58c0-.27.09-.45.21-.45s.09,0,.24.36c.39,1,1.74,1.56,3.87,1.56a20,20,0,0,0,6.87-1.2A23.73,23.73,0,0,0,397.26,8.76Z"/><path class="cls-1" d="M430.17,22.44c-2.52,1.56-6.63,3.12-8.25,3.12a.24.24,0,0,1-.27-.21c0-.12.09-.18.27-.24a22.21,22.21,0,0,0,9.81-6.75,19.19,19.19,0,0,0,4.14-7.14,9.05,9.05,0,0,0,.57-2.28c0-.48-.27-.66-.93-.66a37.32,37.32,0,0,0-5.94,1,12.65,12.65,0,0,0-3.6,1.26,1,1,0,0,1-.51.21,3.93,3.93,0,0,1-1.8-.87,2.89,2.89,0,0,1-1-2.43c0-.24.09-.42.24-.42s.12.06.24.21a2.74,2.74,0,0,0,2.28.87,70.39,70.39,0,0,0,7.68-.93A8.71,8.71,0,0,0,436.65,6c.6-.36.75-.42,1-.42s.84.27,2.55,1.47c.63.42,1,.84,1,1s-.27.48-1.38,1.26C437.16,16.05,434.37,19.83,430.17,22.44ZM445.47,3a3,3,0,1,1-3-3A3,3,0,0,1,445.47,3Zm-4.86,0a1.85,1.85,0,1,0,1.86-1.83A1.84,1.84,0,0,0,440.61,3Z"/><path class="cls-1" d="M462.39,19.44c0,.3.09.39.36.39,1.32,0,6.21-2.85,9.42-5.49a38.38,38.38,0,0,0,6.72-6.84c.12-.18.21-.24.3-.24a.32.32,0,0,1,.27.27,17.06,17.06,0,0,1-1.35,2.55,29.69,29.69,0,0,1-7.17,7.86,35.66,35.66,0,0,1-5.88,3.9,6.78,6.78,0,0,0-2.58,1.92.52.52,0,0,1-.42.27c-.69,0-2.7-2-2.7-2.64,0-.12,0-.12.27-.69a5.42,5.42,0,0,0,.33-2.31V16.32c0-2.85,0-4.5,0-4.92,0-3-.48-4.2-1.86-4.44-.36,0-.45-.09-.45-.24s.09-.21.3-.27a9.52,9.52,0,0,1,1.8-.36,4,4,0,0,1,2.25,1c1,.78,1.44,1.26,1.44,1.65s0,.27-.24.75c-.42.66-.75,3.84-.78,7.77Z"/><path class="cls-1" d="M513.93,14.73c0,.6-.6,1-1.53,1-.27,0-1.23-.09-2.52-.21-.63-.06-1.53-.09-2.64-.09-7.5,0-11.94.42-14.19,1.32a1.18,1.18,0,0,1-.42.09,5.39,5.39,0,0,1-2.58-1A2.8,2.8,0,0,1,489,13.41c0-.54.15-.84.45-.84.09,0,.15.06.3.3.45.75,1.44,1,3.84,1s9.75-.45,11.82-.69a23.72,23.72,0,0,0,4.77-1C512.67,12.69,513.93,13.56,513.93,14.73Z"/><path class="cls-1" d="M535.92,19.08c0,1.05,0,2,.06,2.4.09,1.23.12,2.25.12,2.64,0,1.53-.6,2.7-1.35,2.7s-2.13-1.89-2.13-3a8.93,8.93,0,0,1,.3-1.68,76.47,76.47,0,0,0,.42-8c0-2-.15-7.83-.21-8.67-.15-1.86-.45-2.25-1.89-2.25-.15,0-.24-.06-.24-.21,0-.39,1.8-1.23,2.67-1.23a3.19,3.19,0,0,1,2.16,1.26,2.85,2.85,0,0,1,.81,1.38c0,.21,0,.27-.42,1.17a21.59,21.59,0,0,0-.42,4.89,12.35,12.35,0,0,1,6.12,1.74c1.5,1,2.49,2.25,2.49,3.33a1.53,1.53,0,0,1-1.59,1.59,1.81,1.81,0,0,1-1.38-.63,8.35,8.35,0,0,1-1-1.41,10.57,10.57,0,0,0-4.71-4l.06,2.73,0,2.46Z"/></g></g></svg>