<svg xmlns="http://www.w3.org/2000/svg" viewBox="0 0 274.88 63.76"><defs><style>.cls-1{fill:#343434;}</style></defs><title>title-3_2_title</title><g id="Layer_2" data-name="Layer 2"><g id="Layer_1-2" data-name="Layer 1"><path class="cls-1" d="M4.24.08l2,.15c.36,0,.57.19.57.47a.67.67,0,0,1-.37.52l-.67.47v8.5H7.33L8.71,8.61l1.43,1.3a.73.73,0,0,1,.31.54.39.39,0,0,1-.36.39H5.8v2.32a9.42,9.42,0,0,1,1.71.62c1.28.6,1.88,1.33,1.88,2.26a.92.92,0,0,1-.84,1c-.44,0-.59-.18-1.14-1.37a5.24,5.24,0,0,0-1.61-2v9.23a.84.84,0,0,1-.13.52,1.94,1.94,0,0,1-1,.36c-.24,0-.39-.21-.39-.52V15.11a20.84,20.84,0,0,1-2.65,4.16c-.71.83-1,1.11-1.17,1.11a.22.22,0,0,1-.21-.18c0-.13,0-.13.47-.91,1.79-3,3.27-6.58,3.48-8.45l-2,0-2,.05L0,10.11l4.24.11ZM.57,3A6.12,6.12,0,0,1,3.2,7.83c0,.8-.37,1.27-1,1.27s-.75-.31-.75-1.59A8.17,8.17,0,0,0,.36,3.22Zm9.21.49a.61.61,0,0,1,.44.55c0,.23-.11.31-.44.47l-.55.21A46.18,46.18,0,0,1,6.71,9.13l-.39-.21A58.28,58.28,0,0,0,8,2.76Zm1.76-2.26,1.77,1.15h5.62l.88-1.17L21.37,3a.66.66,0,0,1,.21.39c0,.13-.1.24-.34.34l-.49.24V21.84h.42l1.32-1.77,1.74,1.67a.58.58,0,0,1,.21.44c0,.23-.18.36-.49.36H11.44c-1.09,0-1.85,0-3.48.05l-.29-.8,2.29.05,1.58.05Zm7.54,7.7V3h-5.9V8.92Zm0,6.5V9.54h-5.9v5.88Zm0,6.47V16h-5.9v5.85Z"/><path class="cls-1" d="M32.57.1l2.29.16a.48.48,0,0,1,.42.49A.53.53,0,0,1,35,1.2l-.86.52v4.6h1.28l1.25-1.46,1.56,1.22a.75.75,0,0,1,.31.52.31.31,0,0,1-.31.34H34.13v5.64c1.41-.49,1.67-.57,3.36-1.19l.1.49-3.46,1.77v7.93a1.35,1.35,0,0,1-.73,1.35,2.59,2.59,0,0,1-1.09.52c-.23,0-.23,0-.41-1a.61.61,0,0,0-.34-.21l-2.24-.7-.05-.39h2.86a.49.49,0,0,0,.44-.52V14.46L31,15.21l-.21.49c-.1.32-.29.5-.47.5a.51.51,0,0,1-.39-.26L28.7,14.2c1.92-.52,2.21-.6,3.87-1.12V6.94c-1.71,0-2,0-3.74.08l-.21-.81c1.9.11,2.19.11,3.95.11ZM40,13.44v1.2c0,.34-.54.7-1.09.7a.32.32,0,0,1-.34-.36V9.15a9.78,9.78,0,0,1-2.75,2.34.2.2,0,0,1-.21-.18c0-.13,0-.13.57-.7A24.92,24.92,0,0,0,41.7,0l2,1c.28.13.39.29.39.47s-.16.39-.5.49L43,2.08c-.39.83-.47,1-.81,1.64h4.16l.86-1.12L48.93,4a.82.82,0,0,1,.36.58c0,.18-.15.28-.47.39L48,5.23,45.31,8.29h4l.7-1L51.5,8.55a.45.45,0,0,1,.21.34c0,.11-.08.21-.26.34L51,9.54V14.3c0,.29-.65.65-1.17.65-.18,0-.31-.16-.31-.39V13.44h-3V20.7c0,.62.19.8.84.8l1.48,0c1.74.05,1.84-.11,2.52-3.77h.44v3a.65.65,0,0,0,.08.41,5.19,5.19,0,0,0,.47.37.5.5,0,0,1,.18.36.77.77,0,0,1-.44.65c-.6.31-1.2.37-4.21.37-2.4,0-2.84-.24-2.84-1.46v-8H43.36l0,.37-.21,1.45a9.56,9.56,0,0,1-4.39,7.23,11.76,11.76,0,0,1-3,1.33.24.24,0,0,1-.24-.21c0-.13,0-.13.7-.47,3.7-2.05,5.1-4.52,5.49-9.7Zm.29-5.15h4c1-1.92,1.17-2.23,2-3.95H41.91A37.48,37.48,0,0,1,39.59,8Zm3.67,4.53V8.92H40v3.9Zm5.56,0V8.92H45.42v3.9Z"/><path class="cls-1" d="M73.31,9A8.85,8.85,0,0,0,75,7.88c.33-.37.41-.42.62-.42.83,0,1.77.44,1.77.83s-.52.81-2.24,1.62a20.85,20.85,0,0,1-2.83,1.19,36.4,36.4,0,0,0,2.57,3.25A3.44,3.44,0,0,1,76,16.69a1.72,1.72,0,0,1-1.48,1.87c-.18,0-.28-.07-.7-.44a8.51,8.51,0,0,0-5.67-2.05c-2.26,0-3.74,1.12-3.74,2.78,0,1.48,1.43,2.26,4.13,2.26.37,0,.73,0,1.2,0s.75,0,1,0c1,0,1.33.18,1.33.75,0,.89-.68,1.23-2.4,1.23a12.37,12.37,0,0,1-4.26-.71,3.46,3.46,0,0,1-2.44-3.27c0-2.24,2.08-3.64,5.4-3.64a12.85,12.85,0,0,1,4,.78,1.61,1.61,0,0,0,.75.23.48.48,0,0,0,.5-.47c0-.52-.73-2-2.19-4.47a27.83,27.83,0,0,1-7.3,1.17c-1.85,0-3-.93-3-2.39,0-.16.08-.29.18-.29s.16.06.31.37a2.84,2.84,0,0,0,2.68,1.19,18.5,18.5,0,0,0,6.4-1.22c-.47-.91-.52-1-1.59-2.81a15,15,0,0,1-4,.63c-1.56,0-2.68-.73-2.68-1.74,0-.19.11-.32.21-.32s.13,0,.18.26c.16.55.81.86,1.75.86a10.24,10.24,0,0,0,3.84-.78,22.72,22.72,0,0,0-2-2.83,2.63,2.63,0,0,0-2-1,.44.44,0,0,0-.21,0,.64.64,0,0,1-.21,0,.12.12,0,0,1-.1-.11,1.73,1.73,0,0,1,.6-.7,1.89,1.89,0,0,1,1.3-.49,3.73,3.73,0,0,1,2.08.7c.23.21.28.31.28.91,0,.78.26,1.38,1.28,3.09a6.31,6.31,0,0,0,1.45-1c.39-.34.63-.47.83-.47.52,0,1.28.55,1.28.88S71.91,6.5,70,7.28c.68,1.14,1,1.69,1.59,2.6A10,10,0,0,0,73.31,9Z"/><path class="cls-1" d="M89.81,14c-.49,0-.54,0-3.17.08l-.31-.81,3.48.1h1.1a31.47,31.47,0,0,0,.47-4.65h-1c-1.43,0-1.66,0-3.17.08L86.88,8l2,.08c.7,0,1.4,0,1.53,0h1c.05-2,.07-3.8.1-5.13H90.23L87,3l-.28-.8,2,0,1.53,0h6.24l.68-1.12,1.61,1.41a.77.77,0,0,1,.31.54c0,.16-.1.26-.31.37l-.57.28c0,3.69,0,3.69,0,4.4,0,5.69-.28,9.07-.93,11.2-.63,1.95-1.74,3.1-3.07,3.1-.39,0-.47-.11-.47-.6v-.34a.43.43,0,0,0,0-.21l-.36-.18-1.9-.88.07-.21,2,.23a1.44,1.44,0,0,0,.41,0,1.56,1.56,0,0,0,1.72-1.15c.49-1.14.7-2.26.93-5.22H92.39a10.54,10.54,0,0,1-2.86,5.51c-1.12,1.2-3.09,2.65-3.56,2.65a.18.18,0,0,1-.19-.15c0-.13,0-.13.84-.84A12.57,12.57,0,0,0,90.8,14Zm6.74-.63,0-1.17,0-1.45c0-.26,0-1.12,0-2H93a33.47,33.47,0,0,1-.5,4.65Zm.08-5.27V3H93.17c0,2.55,0,3.23-.16,5.13ZM103,2h3.14l.58-.94,1.84,1.56a.73.73,0,0,1,.29.52c0,.23-.13.36-.42.49L108,3.8l-3.17,5.87c2.65,2,4.14,4.24,4.14,6.16A3.92,3.92,0,0,1,107.68,19a2.33,2.33,0,0,1-1.64.73c-.31,0-.31,0-.52-.75-.1-.31-.13-.31-.62-.52l-1.64-.6v-.29l1.74.08.73,0c.88,0,1.32-.68,1.32-2a5.92,5.92,0,0,0-1.14-3.56,11,11,0,0,0-1.33-1.74c-.28-.31-.28-.31-.49-.57l2.13-7.18h-3.53v20c0,.2-.08.33-.34.46a2.34,2.34,0,0,1-.86.24.41.41,0,0,1-.44-.47V.88Z"/><path class="cls-1" d="M123.09,2.05a.57.57,0,0,1,.21.45c0,.28-.16.41-.55.46l-.75.11a30.84,30.84,0,0,1-5,4.7,8.88,8.88,0,0,1-2.47,1.59.23.23,0,0,1-.21-.21c0-.1.06-.13.73-.7A30.14,30.14,0,0,0,121.24.7Zm.36,6a.67.67,0,0,1,.24.44c0,.23-.16.36-.52.41l-.73.11a35.62,35.62,0,0,1-5.2,4.94,7.82,7.82,0,0,1-2.37,1.48.23.23,0,0,1-.23-.23c0-.13,0-.13.75-.76a31.18,31.18,0,0,0,6.37-7.67Zm1.07,6.24a.39.39,0,0,1,.1.26.4.4,0,0,1-.41.41l-.6.11a26.65,26.65,0,0,1-6,5.77A11.79,11.79,0,0,1,115,22.44a.21.21,0,0,1-.18-.21c0-.13.1-.23.73-.73a32.5,32.5,0,0,0,7.33-8.68Zm5.56,5.25a.5.5,0,0,1,.21.39.47.47,0,0,1-.52.41h-.88a29.53,29.53,0,0,1-4.84,2.37,10.5,10.5,0,0,1-2,.6c-.16,0-.29-.08-.29-.21s.16-.23,1.12-.68a18.79,18.79,0,0,0,5.59-4.23ZM123.61,2.11l1.79.05,1.85,0h7.05L135.83.52,138,2.11c.24.15.34.31.34.44s-.1.28-.36.28h-6.17l-1.84,3.23h4L134.74,5l1.61,1.41a.73.73,0,0,1,.23.44.44.44,0,0,1-.31.36l-.52.21v10.5c0,.47-.41.76-1.09.76-.36,0-.49-.11-.49-.42v-.73h-7.36v.94a.51.51,0,0,1-.26.47,2.11,2.11,0,0,1-.94.34.36.36,0,0,1-.34-.39v-14l2,1.17h1.38l.62-3.23h-2.05l-3.43.08Zm10.56,7.56v-3h-7.36v3Zm0,3.59v-3h-7.36v3Zm0,3.64v-3h-7.36v3ZM131,18.15a13.58,13.58,0,0,1,4,1.51c1.45.83,2.34,1.87,2.34,2.67a1,1,0,0,1-.89,1c-.54,0-.54,0-2-1.82a12.8,12.8,0,0,0-3.54-3Z"/><path class="cls-1" d="M146,1.74h2.76L149.4.65,151,2.11a.81.81,0,0,1,.28.49c0,.16-.13.26-.39.36l-.46.16V21.5a1.45,1.45,0,0,1-.84,1.38,2,2,0,0,1-1,.44c-.26,0-.37-.13-.37-.47a1.68,1.68,0,0,0-.15-.72,6.57,6.57,0,0,0-.89-.42l-1-.39,0-.39,1.5.05c1.15,0,1.23-.1,1.23-.86V14h-3.07A22.76,22.76,0,0,1,144.48,21c-.49,1.3-1.25,2.55-1.51,2.55a.21.21,0,0,1-.23-.18,1.23,1.23,0,0,1,0-.21c1.17-3.14,1.64-6.73,1.64-12.58,0-2.84-.05-5.62-.18-9.93Zm2.92,5.75V2.37h-3V7.49Zm0,5.85V8.11h-2.94l-.05,5.23Zm6.31-9.78c-.49,0-.54,0-3.19.08l-.29-.81,1.92.08c.71,0,1.38,0,1.56,0h7.67l1.54-1.77,2.18,1.59a.49.49,0,0,1,.21.41c0,.24-.13.39-.31.39h-6.29l.49.39a.65.65,0,0,1,.26.44c0,.24-.23.42-.6.47l-.73.08a30.75,30.75,0,0,1-3.32,3A13.85,13.85,0,0,1,160,12.82a41.15,41.15,0,0,0,4.22-5.7L166,8.45a.62.62,0,0,1,.31.49c0,.24-.15.39-.49.45l-.78.1-4.71,4.06a13.92,13.92,0,0,0,6.89,6.55,4.41,4.41,0,0,0-1.89,1.56,18.61,18.61,0,0,1-4.66-5.85c0,.39,0,.73,0,.88a9.43,9.43,0,0,1-.86,4c-.62,1.4-1.79,2.52-2.58,2.52-.25,0-.38-.21-.49-.81-.08-.31-.13-.36-.47-.49L154,21.06l.13-.42,2.42.19a1.8,1.8,0,0,0,.29,0,1.75,1.75,0,0,0,1.58-.93,11.17,11.17,0,0,0,.71-4.37,4.63,4.63,0,0,0-.06-.83,35.61,35.61,0,0,1-5.3,4A8.3,8.3,0,0,1,151.42,20a.19.19,0,0,1-.2-.2c0-.13,0-.13,1.35-1.12a31.15,31.15,0,0,0,6-6,7.78,7.78,0,0,0-.73-1.64c-2.39,2.18-6,4.76-6.58,4.76a.18.18,0,0,1-.2-.19c0-.13.07-.2.8-.78A27.44,27.44,0,0,0,157,9.7a11.58,11.58,0,0,0-1.3-1.22c-2.19,1.66-4.11,2.88-4.55,2.88-.11,0-.16,0-.16-.13s0-.15,1.15-1a31.19,31.19,0,0,0,6.24-6.63Z"/><path class="cls-1" d="M178.41,2.76a.12.12,0,0,1-.11-.11c0-.34,1.25-1,1.88-1,.83,0,2,.6,2,1a1.05,1.05,0,0,1-.05.26c-.1.32-.21.68-.37,1.36a6.88,6.88,0,0,0,2.74,1.14h.13a.37.37,0,0,1,.13,0,.45.45,0,0,1,.39.47c0,.78-1.07,1.48-4.24,2.78a98.78,98.78,0,0,1-3.25,12c-.52,1.59-.94,2.11-1.67,2.11a1.2,1.2,0,0,1-1.27-1,2,2,0,0,1,.47-1.14c1.35-1.85,3.4-7.31,4.29-11.42a14.28,14.28,0,0,1-3.56.91,2.86,2.86,0,0,1-2.61-2.7c0-.08.06-.16.11-.16s.16,0,.23.21a2.31,2.31,0,0,0,2.19,1.12,13.76,13.76,0,0,0,3.95-.81,19.76,19.76,0,0,0,.39-3.61c0-1-.31-1.41-1.22-1.41a2.32,2.32,0,0,0-.45.06ZM183.17,6c0-.19-.29-.45-1.51-1.38a2.33,2.33,0,0,0-.11.41c0,.16-.05.32-.44,2.29C182.2,6.86,183.17,6.27,183.17,6Zm1.89,9a.65.65,0,0,1,0,.18,6,6,0,0,0-.26,1.72c0,2.15,1.35,3,4.78,3a11.08,11.08,0,0,0,2.73-.26,2.38,2.38,0,0,1,.47-.08,1.11,1.11,0,0,1,1.09,1c0,.86-.8,1.17-3.14,1.17-4.58,0-6.74-1.3-6.74-4,0-1.11.57-2.91.94-2.91A.16.16,0,0,1,185.06,15Zm8.09-4.42c0,.44-.23.75-.57.75a.57.57,0,0,1-.26-.08,4.23,4.23,0,0,0-1.54-.31,8.44,8.44,0,0,0-2.65.63s-.08,0-.1,0a.17.17,0,0,1-.13-.13c0-.1.49-.44,1.38-.88s1-.55,1-.68c0-.34-1.11-.67-2.21-.67a4.08,4.08,0,0,0-2.18.54c-.1.08-.1.08-.16.08a.17.17,0,0,1-.13-.13,1.87,1.87,0,0,1,.63-.62,5.31,5.31,0,0,1,3-.86C191.3,8.27,193.15,9.36,193.15,10.61Z"/><path class="cls-1" d="M220.89,15c0,2.47-1.49,4.52-4.16,5.72a19.84,19.84,0,0,1-6,1.53c-.18,0-.41-.18-.41-.31s.05-.08.44-.16C216,20.83,219,18.36,219,15c0-2.52-1.48-4.06-3.87-4.06A12.45,12.45,0,0,0,208.74,13a17,17,0,0,0-2.83,2.13,1.38,1.38,0,0,1-1,.47,2.91,2.91,0,0,1-1.87-1,2.73,2.73,0,0,1-.52-1.9c0-.21.05-.29.18-.29s.1,0,.1.13a1.45,1.45,0,0,0,1.49,1.15c.57,0,.72-.05,2.08-.86,3.45-2,6.08-2.86,8.68-2.86C218.47,10,220.89,12,220.89,15Z"/><path class="cls-1" d="M243.79,19a2.6,2.6,0,0,1-.89,1.95,3.85,3.85,0,0,1-2.39.7c-.49-1.53-1.69-2.31-5.88-3.87-.8.78-1.48,1.45-1.95,2-.83.94-1.17,1.17-1.69,1.17a2.44,2.44,0,0,1-2-2.15c0-.84.75-2.24,1.19-2.24a.17.17,0,0,1,.13.16.65.65,0,0,1,0,.18,3.61,3.61,0,0,0-.08.88c0,.73.18,1,.62,1s.89-.26,2.42-1.38c4.29-3.17,5.12-3.72,6.63-4.37a10,10,0,0,0-1-1.2c-1.38-1.5-1.77-2.18-1.77-3,0-1.25.89-2.39,3-3.82a3,3,0,0,1-2-3c0-.5.08-.73.26-.73s.16.08.16.23c.15,1.41,2.08,2.55,4.29,2.58.57,0,.75.08,1,.36a2.81,2.81,0,0,1,.41,1.2c0,.31-.39.6-.83.6a4.14,4.14,0,0,1-.65-.08c-.26,0-.52-.05-.67-.05-2.16,0-3.93,1.3-3.93,2.88,0,.63.54,1.46,1.79,2.6.52.52.57.57.89.91a9.43,9.43,0,0,1,3.43-.62,7.43,7.43,0,0,1,5.2,1.95,6.72,6.72,0,0,1,2.26,4.52,1.25,1.25,0,0,1-1.27,1.33c-.44,0-.76-.34-.83-.89C249,15,247,12.69,244.15,12.69a7.2,7.2,0,0,0-2.73.54A9.36,9.36,0,0,1,243.79,19Zm-7.85-1.43c.54.21,1.09.39,1.61.6.78.26,1.53.54,2.28.8.08,0,.34.13.63.26a1.67,1.67,0,0,0,.6.16c.49,0,.75-.49.75-1.4a7.44,7.44,0,0,0-1.48-4.32,21.74,21.74,0,0,0-5.2,3.64C235.57,17.42,235.86,17.52,235.94,17.55ZM251.8,5.49a2.62,2.62,0,1,1-2.58-2.6A2.62,2.62,0,0,1,251.8,5.49Zm-4.32,0a1.69,1.69,0,1,0,3.38,0,1.69,1.69,0,1,0-3.38,0Z"/><path class="cls-1" d="M268.09,8.89a9.4,9.4,0,0,0-1.43,4.42,4.07,4.07,0,0,0,.24,1.41.55.55,0,0,1,.1.36,1.06,1.06,0,0,1-.88,1.14c-.94,0-1.62-1.89-1.62-4.42A20,20,0,0,1,265.44,6a15.48,15.48,0,0,0,.73-3.09,1.78,1.78,0,0,0-1.74-1.49c-.16,0-.21,0-.21-.1s1-.49,1.61-.49a3,3,0,0,1,1.95.8c.49.44.73.81.73,1.09s-.08.55-.57,1.23a15.05,15.05,0,0,0-2.19,6.65c0,.29.11.47.29.47s.34-.13.47-.49A14.83,14.83,0,0,1,268,7.75a4.2,4.2,0,0,1,3.2-2A3.18,3.18,0,0,1,274,7.62a13.12,13.12,0,0,1,.91,5.22c0,4.35-1.93,7.73-5.46,9.55a12.36,12.36,0,0,1-3.64,1.14c-.26,0-.52-.21-.52-.39s.08-.1.21-.1a8.14,8.14,0,0,0,3.9-1.75c2.36-1.95,3.56-5,3.56-9,0-3.56-.7-5.4-2.08-5.48C269.91,6.79,268.87,7.57,268.09,8.89Z"/><path class="cls-1" d="M75.21,42.93H91.87l.76-1.22,1.79,1.69a.72.72,0,0,1,.29.47.57.57,0,0,1-.39.46l-.52.19V61.78c0,.34-.65.7-1.38.73-.24,0-.39-.13-.39-.34V60.4H74.45v1.67c0,.41-.55.75-1.27.75-.32,0-.52-.13-.52-.28v-21ZM92,59.78V43.55H86.1v9.78c0,.31.23.5.62.5a9,9,0,0,0,2.42-.19c.18-.07.26-.23.39-.78l.76-2.7.39,0-.08,2.26a5.1,5.1,0,0,0,0,.73c0,.41,0,.41.63.9a.5.5,0,0,1,.2.37c0,.29-.31.6-.7.7a8.1,8.1,0,0,1-2.36.21c-2.29,0-3.18-.1-3.54-.36s-.39-.5-.39-1.56V43.55H81.52c0,5.34-.13,6.22-.57,8.2S79.52,55,77.36,56.24a8.22,8.22,0,0,1-2.21,1,.23.23,0,0,1-.21-.23c0-.13.14-.26.37-.39a7.71,7.71,0,0,0,4-4.94,23,23,0,0,0,.47-5.83c0-.41,0-1.17,0-2.29H74.45V59.78Z"/><path class="cls-1" d="M106,41.58c.36.08.57.26.57.54a.66.66,0,0,1-.44.58l-.44.18,0,2.16,0,3.3c0,.81,0,1.53,0,2.26a18.51,18.51,0,0,1-.62,5.54,13,13,0,0,1-4.74,6.6c-.2.16-.31.21-.41.21a.2.2,0,0,1-.21-.21c0-.1,0-.1.62-.85a15.92,15.92,0,0,0,3-5.8,25.57,25.57,0,0,0,.57-6.3c0-2.23-.08-4.31-.34-8.6Zm7.77,1.53c.37,0,.57.21.57.5s-.1.31-.33.49l-.52.36V59.55a.57.57,0,0,1-.19.44,2.58,2.58,0,0,1-1.19.47.55.55,0,0,1-.5-.55v-17ZM121.51,62a.79.79,0,0,1-.19.57,2.62,2.62,0,0,1-1.22.5.61.61,0,0,1-.54-.52V41.06l2.26.31a.64.64,0,0,1,.6.57c0,.18-.08.31-.32.5l-.59.49Z"/><path class="cls-1" d="M128.6,58c2-.31,2.31-.39,4.24-.78v-9c-1.67,0-2,0-3.77.08l-.24-.81c2,.08,2.26.08,4,.1V40.33l2.23.16a.51.51,0,0,1,.5.52c0,.18-.08.31-.37.49l-.7.47v5.61h1.27L137,46l1.64,1.63a.73.73,0,0,1,.15.37c0,.13-.1.26-.2.26H134.5v8.71a43.57,43.57,0,0,0,4.32-.94l.13.39-7.7,3-.39.65a.66.66,0,0,1-.49.31.48.48,0,0,1-.34-.21Zm22,1.38,2.1,1.63a.71.71,0,0,1,.21.47.33.33,0,0,1-.31.37H140.85c-1.46,0-2.42,0-4.76.13l-.34-.91c2.91.13,4,.15,5.1.15H149Zm-8.66-17h6.32l.78-1.07,1.53,1.31a.91.91,0,0,1,.41.62c0,.18-.15.31-.41.39l-.5.13V57.28c0,.37-.64.71-1.27.71-.34,0-.47-.13-.47-.47V55.39h-6.68V58.3c0,.41-.65.86-1.25.86-.28,0-.41-.13-.41-.39V41.29Zm6.39,6.19V43h-6.68V48.6Zm0,6.16V49.22h-6.68v5.54Z"/><path class="cls-1" d="M165.38,53.57a19.4,19.4,0,0,1,4.81,2c2.14-2.65,3.05-3.88,4.87-6.37a55,55,0,0,0-7,1.38,2.61,2.61,0,0,1-.62.15c-.18,0-.26,0-.91-.57a35.29,35.29,0,0,1-5.83,6.89c-1.14,1-1.76,1.51-2,1.51a.32.32,0,0,1-.34-.29c0-.18.1-.31.67-.8a35.8,35.8,0,0,0,6.48-8.66A31.93,31.93,0,0,0,167.88,44c0-.29-.52-.73-1.27-1.12-.16-.07-.24-.15-.24-.2s.76-.58,1.12-.58.78.31,1.85,1.2,1.09,1,1.09,1.35,0,.26-.68.6c-.18.1-.21.13-.49.6l-2.11,3.43c4.11-.5,5.33-.68,8.17-1.22l1-.91,2,1.66a1.11,1.11,0,0,1,.39.76c0,.31-.23.49-.62.49l-1.12,0L170.84,56a12.52,12.52,0,0,1,1.64,1.35A4.31,4.31,0,0,1,174,59.86a.9.9,0,0,1-.94.93c-.44,0-.57-.1-1-.8a17,17,0,0,0-6.89-6Z"/><path class="cls-1" d="M185.81,49.51c2.06.05,2.08.05,3.46.1h1.28V46.78H187v-.62h3.54V43.79h-1l-3.1.08-.33-.81c2.41.11,2.62.11,3.43.11h1V40.1l1.95.1a.45.45,0,0,1,.44.42.54.54,0,0,1-.26.41l-.57.31v1.83h1.66l1.07-1.41,1.58,1.48a.42.42,0,0,1,.11.26c0,.16-.08.29-.19.29h-4.23v2.37h1.37l1-1.36L196,46.36a.38.38,0,0,1,.05.21c0,.13-.08.21-.15.21h-3.77v2.83h2.08l1.17-1.5,1.56,1.66A.3.3,0,0,1,197,50a.2.2,0,0,1-.2.23h-5.15c-.5,1.15-.73,1.61-1.2,2.5h2.86l.94-1.07,1.32,1.54a.5.5,0,0,1,.16.39.44.44,0,0,1-.31.36l-.47.13a23.65,23.65,0,0,1-2,4.26c2.6,2.19,5.13,2.92,10.17,2.92,1.22,0,1.3,0,6.42-.21a2.85,2.85,0,0,0-.93,1.79c-1.82,0-2.68.08-4.92.08-3.79,0-5.56-.23-7.49-1a12.44,12.44,0,0,1-3.92-2.63,14.06,14.06,0,0,1-3.46,3.1,10.94,10.94,0,0,1-2.73,1.43.24.24,0,0,1-.21-.18c0-.19.05-.24,1-.86a16,16,0,0,0,4.42-4.58,12.84,12.84,0,0,1-2-3.53C187.79,56.5,186.2,58,185.71,58a.21.21,0,0,1-.18-.21c0-.11,0-.11,1-1.2a17.71,17.71,0,0,0,3.17-6.37h-.39c-.78,0-1.17,0-3.14.08Zm4,4.34a12.85,12.85,0,0,0,2.05,3.38,13.54,13.54,0,0,0,1.35-4h-3.09Zm11.57-7.54a29,29,0,0,0,.47-3.61c-1.49,0-2.5,0-3,0l-1.64,0-.44-.84c1.56.06,2.47.08,4.5.13h4.55l1.25-1.53,2.13,1.69a.38.38,0,0,1,.16.26.22.22,0,0,1-.24.21h-5c-.78,1.51-1.25,2.31-2,3.61h4l1-1.12,1.46,1.59a.83.83,0,0,1,.18.47c0,.13-.1.26-.31.31l-.42.15v11.5c0,.23,0,.31-.28.41a2.91,2.91,0,0,1-.91.21c-.21,0-.34-.1-.34-.23v-.91H199v1c0,.29-.13.39-.55.52a2.86,2.86,0,0,1-.65.16c-.18,0-.26-.11-.26-.29V45.35l1.93,1Zm-1,11.75V46.94H199V58.06Zm3.4-8.08v-3h-2.08v3Zm0,3.87V50.58h-2.08v3.27Zm0,4.21V54.48h-2.08v3.58Zm2.76,0V46.94h-1.46V58.06Z"/></g></g></svg>