<svg xmlns="http://www.w3.org/2000/svg" viewBox="0 0 91.24 21.34"><defs><style>.cls-1{fill:#343434;}</style></defs><title>recommend-1-price</title><g id="Layer_2" data-name="Layer 2"><g id="Layer_1-2" data-name="Layer 1"><path class="cls-1" d="M.17,17.38H.55c2.31-.07,2.93-.53,2.91-2.14V4.75c0-2.13-.17-2.37-2.16-2.45H0V1.75C2.57,1.58,4.3,1,5.5,0h.55V15.48c0,1.49.62,1.92,2.71,1.95H9v.67H.17Z"/><path class="cls-1" d="M14.74,20.74c1.27-.84,2-1.63,2-2.26,0-.26-.14-.36-.52-.45-1.25-.29-1.8-.8-1.8-1.66a1.82,1.82,0,0,1,2-1.83,2,2,0,0,1,2,2.21c0,1.78-1,3.24-3.19,4.59Z"/><path class="cls-1" d="M25.68.43h9.46c-.29,1.8-.7,2.33-1.85,2.28H26.21l-.55,5.64A5.61,5.61,0,0,1,30,6.41a5.53,5.53,0,0,1,5.55,5.76,6.21,6.21,0,0,1-6.32,6.29,5.62,5.62,0,0,1-4-1.51A3.48,3.48,0,0,1,24,14.64a1.85,1.85,0,0,1,1.76-1.89,1.56,1.56,0,0,1,1.51,1.55A1.38,1.38,0,0,1,26,15.75a1.93,1.93,0,0,1-.79-.2A2.46,2.46,0,0,0,26,16.63a4,4,0,0,0,2.54.94c2.5,0,4.23-2.19,4.23-5.35,0-2.88-1.49-4.76-3.77-4.76a4,4,0,0,0-3.36,1.88l-.7-.12Z"/><path class="cls-1" d="M50.71,9.84a4.39,4.39,0,0,1,1.95,3.55c0,2.72-2.79,5-6.1,5-2.9,0-5.38-1.85-5.38-4a1.81,1.81,0,0,1,1.71-2A1.63,1.63,0,0,1,44.54,14a1.36,1.36,0,0,1-1.39,1.39,2,2,0,0,1-1-.28,3.88,3.88,0,0,0,3.77,2.47c2.32,0,4-1.85,4-4.44a4.14,4.14,0,0,0-1.54-3.41,2.66,2.66,0,0,0-1.58-.6,6.19,6.19,0,0,0-1.25.24,1.51,1.51,0,0,1-.41.07.52.52,0,0,1-.5-.5.57.57,0,0,1,.55-.55,1.23,1.23,0,0,1,.38.07,3.32,3.32,0,0,0,1.08.19c1.61,0,2.91-1.7,2.91-3.82a3.46,3.46,0,0,0-3.36-3.74,3.87,3.87,0,0,0-3,1.63,2.49,2.49,0,0,0-.39,1.08,1.24,1.24,0,0,1,1-.45,1.33,1.33,0,0,1,1.37,1.34A1.43,1.43,0,0,1,43.56,6.1a1.78,1.78,0,0,1-1.75-1.9C41.81,1.94,44.18.05,47,.05s5.28,2,5.28,4.56A4,4,0,0,1,50.45,8a8.06,8.06,0,0,1-2.38.91A5.28,5.28,0,0,1,50.71,9.84Z"/><path class="cls-1" d="M68.81,2.81A12.29,12.29,0,0,1,70.3,9.05a13.69,13.69,0,0,1-1.37,6.33,5,5,0,0,1-4.71,3c-3.57,0-6-3.72-6-9.21a12.57,12.57,0,0,1,1.41-6.29A5.17,5.17,0,0,1,64.3,0,5,5,0,0,1,68.81,2.81Zm-7,.14A22.47,22.47,0,0,0,61,9.22a20.25,20.25,0,0,0,.94,6.6c.55,1.32,1.32,2,2.35,2,2.16,0,3.24-3,3.24-9a17.35,17.35,0,0,0-.86-6C66.12,1.34,65.38.67,64.32.67S62.38,1.34,61.82,3Z"/><path class="cls-1" d="M78.65,17.72c0,.16-.12.29-.37.39a4.22,4.22,0,0,1-1.07.2c-.19,0-.28-.09-.28-.25V2.47l2,.95h9.78l.7-1.12L91,4a.72.72,0,0,1,.23.45.46.46,0,0,1-.29.34l-.34.13V16.51c0,.65-.22,1-.94,1.32a3.33,3.33,0,0,1-1.11.34c-.24,0-.27-.09-.27-.54s0-.49-.29-.58a6.83,6.83,0,0,1-.7-.22l-.76-.25c-.72-.23-.83-.27-.83-.36s.06-.12.18-.12a1.3,1.3,0,0,1,.24,0l1.1,0c1.35,0,1.63-.07,1.63-.41V10.42H78.65Zm0-7.78h4.18v-6H78.65Zm10.21,0v-6H84.54v6Z"/></g></g></svg>