<svg xmlns="http://www.w3.org/2000/svg" viewBox="0 0 73.1 19.07"><defs><style>.cls-1{fill:#343434;}</style></defs><title>title-left-price</title><g id="Layer_2" data-name="Layer 2"><g id="Layer_1-2" data-name="Layer 1"><path class="cls-1" d="M.42,15.35c2.16-.08,2.4-.22,2.42-1.46v-9c0-.74-.26-1.18-.74-1.3A11.59,11.59,0,0,0,0,3.52v-.6c2.26-.08,3.1-.38,4-1.4h.46V13.89c0,1.2.36,1.4,2.52,1.46V16H.42Z"/><path class="cls-1" d="M11.6,18.61c1.08-.74,1.52-1.26,1.52-1.84,0-.28-.06-.32-.68-.42a1.15,1.15,0,0,1-1-1.16,1.25,1.25,0,0,1,1.3-1.26,1.65,1.65,0,0,1,1.56,1.82c0,1.26-.68,2.2-2.36,3.32Z"/><path class="cls-1" d="M18.5,15a37.14,37.14,0,0,1,4.13-5.32c1.74-2,2.28-3.11,2.28-4.71,0-1.78-.82-2.82-2.2-2.82a2.89,2.89,0,0,0-1.81.62,1.61,1.61,0,0,0-.52.92c0,.16.06.26.37.68a1.54,1.54,0,0,1,.46,1.06,1.08,1.08,0,0,1-1.07,1.12A1.45,1.45,0,0,1,18.86,5c0-1.88,1.92-3.52,4.11-3.52a3.58,3.58,0,0,1,3.8,3.58,4,4,0,0,1-.58,2.08c-.4.72-.4.72-2.16,2.43a22.85,22.85,0,0,0-4.37,5h4.15c1.42,0,1.76-.28,2.8-2.26l.6.2L26.11,16H18.5Z"/><path class="cls-1" d="M39.67,8.74a12.58,12.58,0,0,1-1,5.39,3.84,3.84,0,0,1-3.28,2.2A3.93,3.93,0,0,1,32,13.87a12.48,12.48,0,0,1-.88-5.09c0-4.5,1.68-7.32,4.38-7.32C38,1.46,39.67,4.4,39.67,8.74Zm-6.84.18c0,4.61.82,6.75,2.6,6.75a1.78,1.78,0,0,0,1.6-.94c.54-1,.82-2.92.82-5.75,0-4.9-.7-6.88-2.46-6.88S32.83,4.4,32.83,8.92Z"/><path class="cls-1" d="M52.19,8.74a12.58,12.58,0,0,1-1,5.39,3.84,3.84,0,0,1-3.28,2.2,3.93,3.93,0,0,1-3.42-2.46,12.48,12.48,0,0,1-.88-5.09c0-4.5,1.68-7.32,4.38-7.32C50.49,1.46,52.19,4.4,52.19,8.74Zm-6.84.18c0,4.61.82,6.75,2.6,6.75a1.78,1.78,0,0,0,1.6-.94c.54-1,.82-2.92.82-5.75,0-4.9-.7-6.88-2.46-6.88S45.35,4.4,45.35,8.92Z"/><path class="cls-1" d="M59.39.88H70.94L71.56,0,73,1.2a.35.35,0,0,1,.12.26.36.36,0,0,1-.12.26L72.46,2V15.69c0,.56-.14.78-.74,1.16a2.22,2.22,0,0,1-.84.32c-.18,0-.26-.12-.3-.36a.84.84,0,0,0-.14-.48,1.41,1.41,0,0,0-.48-.24l-1.78-.58v-.28h2.3c.36,0,.52-.14.52-.44V8.6H59.43v7.77c0,.3-.18.5-.6.66a2,2,0,0,1-.66.2.16.16,0,0,1-.16-.18V.12Zm5,7.24V1.36H59.43V8.12Zm6.62,0V1.36H65.84V8.12Z"/></g></g></svg>