<svg xmlns="http://www.w3.org/2000/svg" viewBox="0 0 91.55 21.39"><defs><style>.cls-1{fill:#343434;}</style></defs><title>recommend-2-price</title><g id="Layer_2" data-name="Layer 2"><g id="Layer_1-2" data-name="Layer 1"><path class="cls-1" d="M.17,17.42H.55c2.31-.07,2.93-.52,2.91-2.13V4.8c0-2.14-.17-2.38-2.16-2.45H0V1.8C2.57,1.63,4.3,1.08,5.5.07h.55V15.53c0,1.49.62,1.92,2.71,1.94H9v.68H.17Z"/><path class="cls-1" d="M14.74,20.79c1.27-.84,2-1.64,2-2.26,0-.26-.14-.36-.52-.46-1.25-.28-1.8-.79-1.8-1.65a1.82,1.82,0,0,1,2-1.83,2,2,0,0,1,2,2.21c0,1.78-1,3.24-3.19,4.59Z"/><path class="cls-1" d="M34.49,2.86A12.29,12.29,0,0,1,36,9.1a13.72,13.72,0,0,1-1.37,6.33,5,5,0,0,1-4.71,3.05c-3.57,0-6-3.72-6-9.22A12.53,12.53,0,0,1,25.34,3,5.17,5.17,0,0,1,30,.05,5,5,0,0,1,34.49,2.86ZM27.5,3a22.45,22.45,0,0,0-.84,6.26,20.32,20.32,0,0,0,.94,6.61c.55,1.32,1.32,2,2.35,2,2.16,0,3.24-3,3.24-9a17.69,17.69,0,0,0-.86-6.05C31.8,1.39,31.06.72,30,.72S28.06,1.39,27.5,3Z"/><path class="cls-1" d="M41.26,16.68a52.46,52.46,0,0,1,5.44-5.4,13.24,13.24,0,0,0,2.5-2.64,6.44,6.44,0,0,0,1.1-3.53,3.82,3.82,0,0,0-3.67-4.05c-2.13,0-4.27,1.84-4.27,3.64a1.36,1.36,0,0,0,0,.41c.41-.74.79-1,1.41-1a1.41,1.41,0,0,1,1.44,1.44A1.61,1.61,0,0,1,43.58,7.1a2.13,2.13,0,0,1-2-2.25C41.54,2.21,44.23,0,47.45,0s5.69,2,5.69,4.92c0,2.14-.94,3.46-4,5.64a30.5,30.5,0,0,0-6,5.28h6.43c2,0,2.47-.48,3-3.46l.62,0-.6,5.79H41.26Z"/><path class="cls-1" d="M69.12,2.86A12.29,12.29,0,0,1,70.61,9.1a13.72,13.72,0,0,1-1.37,6.33,5,5,0,0,1-4.7,3.05c-3.58,0-6-3.72-6-9.22A12.42,12.42,0,0,1,60,3,5.14,5.14,0,0,1,64.61.05,5,5,0,0,1,69.12,2.86Zm-7,.14a22.45,22.45,0,0,0-.84,6.26,20.36,20.36,0,0,0,.93,6.61c.55,1.32,1.32,2,2.35,2,2.16,0,3.24-3,3.24-9A17.45,17.45,0,0,0,67,2.78C66.43,1.39,65.69.72,64.63.72S62.69,1.39,62.14,3Z"/><path class="cls-1" d="M79,17.77c0,.16-.13.28-.38.39a4.14,4.14,0,0,1-1.06.2c-.2,0-.29-.09-.29-.25V2.51l2,1H89l.7-1.12L91.32,4a.77.77,0,0,1,.23.46.44.44,0,0,1-.29.34L90.92,5v11.6c0,.65-.21,1-.93,1.31a3.43,3.43,0,0,1-1.12.35c-.23,0-.27-.1-.27-.55s0-.48-.29-.57a6.83,6.83,0,0,1-.7-.22l-.76-.25c-.72-.23-.83-.27-.83-.36s.06-.13.18-.13a1.3,1.3,0,0,1,.24,0l1.1,0c1.35,0,1.64-.07,1.64-.41V10.47H79ZM79,10h4.17V4H79Zm10.21,0V4H84.85v6Z"/></g></g></svg>