<svg xmlns="http://www.w3.org/2000/svg" viewBox="0 0 470.19 80.07"><defs><style>.cls-1{fill:#343434;}</style></defs><title>recommend-1-title</title><g id="Layer_2" data-name="Layer 2"><g id="Layer_1-2" data-name="Layer 1"><path class="cls-1" d="M5.36,10.44c0-.65,0-1.12,0-2.2s.07-1.8.07-2.16c0-1.4-.25-2-1-2.59a3.61,3.61,0,0,0-1.87-.61c-.26,0-.36-.07-.36-.22,0-.5,1.94-1.22,3.27-1.22a6.16,6.16,0,0,1,3.2,1.08A2.26,2.26,0,0,1,9.86,4.43,6.44,6.44,0,0,1,9.4,6.7a30.29,30.29,0,0,0-1.16,7.23c0,1.08.36,1.94.8,1.94.68,0,2.26-1,4-2.44a1.3,1.3,0,0,1,.9-.44c1.23,0,2.88,1.44,2.88,2.49,0,.65-.61,1-2.95,1.62a29.73,29.73,0,0,1-4.1.86,17,17,0,0,0-3.85,1.87,6.36,6.36,0,0,0-3,5c0,2.45,2.23,3.88,6.05,3.88a22,22,0,0,0,6.76-1.26A6.25,6.25,0,0,1,17.6,27a2.76,2.76,0,0,1,2.63,2.55c0,.69-.47,1.15-1.69,1.59a29.27,29.27,0,0,1-8,1A15.35,15.35,0,0,1,3.06,30.6,6,6,0,0,1,0,25.52c0-3.13,2.48-6,7.09-8.1C5.54,15,5.36,14.25,5.36,10.44Z"/><path class="cls-1" d="M43.85,31.89c-.36,0-.51-.11-.51-.32s.11-.25.51-.29a33,33,0,0,0,7.81-1.91A13.53,13.53,0,0,0,57,25.88a5.43,5.43,0,0,0,1.51-3.81c0-2.56-1.62-4.47-3.75-4.47-3,0-7,3.17-8.17,6.3-.25.68-.46.94-.82.94-1.08,0-3-2-3-3.13,0-.47,0-.51.61-2.13a37.51,37.51,0,0,0,1.91-8.1,19,19,0,0,1-3.06.33,4,4,0,0,1-4.07-3.93c0-.18.07-.25.18-.25s.07,0,.11.11c.72,1.19,2,1.69,4.53,1.69a9.12,9.12,0,0,0,2.56-.32c.14-1.3.25-2.7.25-3.42,0-1.59-.36-2.63-1.11-3.1a1.47,1.47,0,0,0-.9-.32c-.15,0-.22,0-.22-.15,0-.36,1.3-.86,2.3-.86a5.09,5.09,0,0,1,2.24.61,1.83,1.83,0,0,1,1,1.73,3.39,3.39,0,0,1-.14,1c0,.15,0,.22-.15.69A9.59,9.59,0,0,0,52.23,6c.22,0,.54,0,1-.08,1,.22,1.62.76,1.62,1.62,0,1.41-2.09,2.45-7.17,3.6a44.58,44.58,0,0,0-1.4,8.28c0,.33.14.69.25.69s.07,0,.18-.15A22.65,22.65,0,0,1,49.5,18a14.42,14.42,0,0,1,6.55-1.8c3.78,0,6.48,2.45,6.48,5.84,0,3.16-2.12,5.9-6,7.66a31.72,31.72,0,0,1-11.05,2.09c-.65,0-1.08,0-1.19.07ZM48.17,8.46c1.62-.43,2.52-.9,2.52-1.37,0-.29,0-.32-1-.76-.57-.25-.93-.43-1.11-.5C48.42,7.06,48.38,7.27,48.17,8.46Z"/><path class="cls-1" d="M92.16,3.38c0,.87.29,1.73,1.4,4.14a7.87,7.87,0,0,0,1.37-1c.94-.83,1.08-.94,1.44-.94,1,0,2.34.9,2.34,1.58s-1.19,1.51-4,2.67A24.69,24.69,0,0,0,96.59,13c3.16-1.4,4.42-2.3,4.71-3.31a12.49,12.49,0,0,1,2.85.51c.54.18.79.47.79.82,0,.69-.51,1.26-1.69,2a28.51,28.51,0,0,1-5,2.45c.72,1,1.55,2,3.35,4.14A4.73,4.73,0,0,1,103,22.75c0,1.91-1.12,3.38-2.56,3.38a2.44,2.44,0,0,1-.43,0,12.06,12.06,0,0,0-8.53-4.25c-3,0-4.86,1.33-4.86,3.45s2.09,3.42,5.44,3.42c.46,0,2.3-.07,3-.1a4.76,4.76,0,0,1,.68,0,1.54,1.54,0,0,1,1.73,1.58c0,1.52-1.15,2.24-3.6,2.24-6,0-10.12-2.52-10.12-6.16,0-3.35,3.17-5.58,7.89-5.58a15.51,15.51,0,0,1,4.71.72,7.45,7.45,0,0,0,1.95.4.39.39,0,0,0,.43-.36c0-.54-.94-2.41-2.49-5.08a33.39,33.39,0,0,1-8.78,1.37,7.64,7.64,0,0,1-4.17-1,4.05,4.05,0,0,1-1.73-3.1c0-.32.11-.54.25-.54s.11,0,.29.43c.47,1.23,2.09,1.87,4.64,1.87a23.91,23.91,0,0,0,8.24-1.44,29.65,29.65,0,0,0-2-3.49,18.75,18.75,0,0,1-5.12.9,4.49,4.49,0,0,1-3.38-1.44,3.43,3.43,0,0,1-.9-1.58c0-.15.11-.25.29-.25s.18,0,.32.25c.43.61,1.26.9,2.7.9a13.35,13.35,0,0,0,4.72-.94c-2.74-4.32-4-5.43-5.91-5.36-.14,0-.25-.07-.25-.14,0-.51,1.77-1.59,2.59-1.59,2,0,4.21,1,4.21,1.91a.4.4,0,0,1,0,.14Zm12.49,2.13a1.48,1.48,0,0,1-1.55,1.33.89.89,0,0,1-.93-.51,5.47,5.47,0,0,0-3.35-2.87.39.39,0,0,1-.33-.33c0-.25.62-.39,1.55-.39C102.42,2.74,104.65,4.07,104.65,5.51Zm4-2.23a1.49,1.49,0,0,1-1.58,1.36c-.54,0-.76-.18-1.12-.86a5.69,5.69,0,0,0-3.17-2.59c-.28-.07-.39-.18-.39-.29S103.1.47,104,.47C106.41.47,108.68,1.84,108.68,3.28Z"/><path class="cls-1" d="M124.06,20.55a31,31,0,0,1-4.79,5.33c-1.15,1.08-1.51,1.37-1.77,1.37s-.21-.11-.21-.25.11-.33.5-.83A29.85,29.85,0,0,0,124.06,13h-1.84c-1.22,0-2,0-4.07.11l-.75-1.22L120,12c1,0,1.83,0,2.23,0h1.84V6.3c-2.06.36-2.6.47-3.42.58s-1.55.25-1.73.28a5.05,5.05,0,0,1-.69.08A.29.29,0,0,1,117.9,7c0-.21.11-.28,1-.57A56.05,56.05,0,0,0,130.57.9l2.48,2.56a.93.93,0,0,1,.33.57c0,.18-.25.36-.5.33h-.08l-1.26,0a41.52,41.52,0,0,1-4.35,1.15v6.59h2.37l2-2.63L134,11.77a1.25,1.25,0,0,1,.47.79c0,.25-.29.47-.61.47h-6.66v4.14c3.63.79,5.43,2.23,5.43,4.39,0,1.08-.57,1.73-1.47,1.73s-1.26-.43-1.66-1.76a7.21,7.21,0,0,0-2.3-3.57V32.43a.81.81,0,0,1-.69.83,7.94,7.94,0,0,1-1.76.25c-.47,0-.68-.21-.68-.75Zm14.32,10.19c0,.5-.18.68-1,.94-.47.1-1.3.28-1.48.28a.65.65,0,0,1-.65-.72V5.62l3.5,1.9h7l1.51-2,2.7,3a1.93,1.93,0,0,1,.47,1,1,1,0,0,1-.68.83l-.4.14V28.65c0,.47-.11.65-.5.79a11.51,11.51,0,0,1-2.05.36c-.51,0-.72-.28-.72-.86V26.56h-7.71Zm7.71-5.15V8.5h-7.71V25.59Z"/><path class="cls-1" d="M163.62,19.29l3.1.08h7.66v-8.1h-6.8c-2,3.27-4.93,6.69-5.76,6.69a.32.32,0,0,1-.29-.32c0-.25,0-.25.83-1.51,2.27-3.86,3.24-6.88,4.36-13.83L171.14,4a.73.73,0,0,1,.51.68.87.87,0,0,1-.54.76l-1,.43-.43,1a24.78,24.78,0,0,1-1.59,3.38h6.3V.47l4.14.21a.75.75,0,0,1,.79.76.94.94,0,0,1-.46.76l-.9.57v7.52H184l2.52-3,3,2.73c.36.33.44.43.44.69a.51.51,0,0,1-.54.54H178v8.1h8.64l2.55-3.06,3.31,2.91a.79.79,0,0,1,.36.61.5.5,0,0,1-.54.51H178V31.6c0,.76-1,1.23-2.7,1.23-.65,0-.87-.25-.87-.9V20.34h-7.66c-2.13,0-2.42.07-6.3.18l-.8-1.37Z"/><path class="cls-1" d="M200.88,29.23h.58c3.45-.11,4.39-.79,4.35-3.21V10.29c0-3.2-.25-3.56-3.24-3.67h-1.94V5.8c3.85-.26,6.44-1.08,8.24-2.6h.83V26.38c0,2.24.94,2.88,4.07,2.92h.39v1H200.88Z"/><path class="cls-1" d="M237.6,7.38a18.44,18.44,0,0,1,2.23,9.36,20.52,20.52,0,0,1-2.05,9.5c-1.59,3.06-3.89,4.57-7.06,4.57-5.36,0-9-5.58-9-13.82a18.78,18.78,0,0,1,2.12-9.43c1.73-2.95,4-4.39,7-4.39S235.94,4.54,237.6,7.38Zm-10.48.21a33.75,33.75,0,0,0-1.26,9.4c0,3.85.58,8,1.41,9.9s2,2.95,3.53,2.95c3.24,0,4.85-4.54,4.85-13.5a26.32,26.32,0,0,0-1.29-9.07c-.79-2.09-1.91-3.09-3.49-3.09C229.07,4.18,228,5.18,227.12,7.59Z"/><path class="cls-1" d="M263.59,7.38a18.34,18.34,0,0,1,2.23,9.36,20.52,20.52,0,0,1-2.05,9.5c-1.58,3.06-3.89,4.57-7,4.57-5.37,0-9-5.58-9-13.82a18.67,18.67,0,0,1,2.13-9.43c1.72-2.95,4-4.39,6.94-4.39S261.93,4.54,263.59,7.38Zm-10.47.21a33.75,33.75,0,0,0-1.26,9.4c0,3.85.57,8,1.4,9.9s2,2.95,3.53,2.95c3.24,0,4.86-4.54,4.86-13.5a26.29,26.29,0,0,0-1.3-9.07c-.79-2.09-1.91-3.09-3.49-3.09C255.06,4.18,253.94,5.18,253.12,7.59Z"/><path class="cls-1" d="M288.57,10.12a6.35,6.35,0,0,1-6,6.55,6.21,6.21,0,0,1-4.36-2.13,6.6,6.6,0,0,1-1.65-4.5c0-3.71,2.62-6.62,6-6.62S288.57,6.37,288.57,10.12Zm-8.82.57c0,3.2,1,5,2.71,5s2.91-2.13,2.91-6c0-3.42-1-5.32-2.84-5.32S279.75,6.33,279.75,10.69ZM299.84.76l1.22.75L282,32.5l-1.19-.72Zm5,22.42a6.44,6.44,0,0,1-6.15,6.59c-3.2,0-5.87-3-5.87-6.59a6.4,6.4,0,0,1,6.08-6.62C302.18,16.56,304.84,19.51,304.84,23.18Zm-8.92,0c0,3.78,1,5.69,2.91,5.69a2,2,0,0,0,1.95-1.19,9.4,9.4,0,0,0,1-4.61c0-3.6-1-5.58-2.85-5.58S295.92,19.55,295.92,23.18Z"/><path class="cls-1" d="M328.39,32c0,.43-1.4.93-2.66.93-.43,0-.61-.14-.61-.47V19a37.89,37.89,0,0,1-5.76,5.15,16,16,0,0,1-3.35,2,.25.25,0,0,1-.22-.26c0-.11.11-.21.4-.46,6.41-5.3,10.29-11.74,12.27-20.41h-4.57c-.61,0-1.58,0-2.73.07l-3.5.11-.86-1.34,4.1.11c1.3,0,2.49.07,3,.07h18.79l2.59-2.88,3.6,2.88a.58.58,0,0,1,.25.47.46.46,0,0,1-.43.51H332.42a45.19,45.19,0,0,1-4.71,10.58l.75.65h11.59l1.41-2.16,3.45,3.24a1,1,0,0,1,.36.68.88.88,0,0,1-.47.72l-1,.43v12c0,.44-1.54,1-2.73,1-.43,0-.61-.14-.61-.5v-2h-12.1Zm12.1-3.24V17.28h-12.1V28.8Z"/><path class="cls-1" d="M358.52,24.51c3.89.15,5.48.18,7.06.18h7.09V21.2h-4.28c-1.77,0-2.77,0-5.47.15l-.8-1.3c3.46.14,4.79.18,6.27.18h4.28V17.17h-5.76c-1.29,0-2.55,0-6.41.18L359.75,16c4,.18,5.54.22,7.09.22h2.41c-.18-.33-.25-.54-.29-.61-.14-.33-.25-.62-.36-.94a4.52,4.52,0,0,0-1.62-2.3,28,28,0,0,1-7.12,1.72c-.22,0-.36-.1-.36-.28s.14-.29.57-.44c5.91-1.51,8.86-3.88,9.51-7.7H364a7.93,7.93,0,0,1-.54,2.92,3.49,3.49,0,0,1-2.88,2.19A1.67,1.67,0,0,1,359,9c0-.76.15-.94,1.51-2a5,5,0,0,0,2.2-4c0-.32.14-.5.36-.5.43,0,.65.57.9,2.23h8.57V0l3.67.22A.78.78,0,0,1,377,1a.78.78,0,0,1-.46.72L375.8,2v2.7H385l1.47-2.12,3.31,3.24a1.1,1.1,0,0,1,.36.72.68.68,0,0,1-.72.64h-1.62a19.34,19.34,0,0,0-1.91,1.16c-.35.25-.75.5-1,.72s-.47.28-.68.39a1.52,1.52,0,0,1-.76.36.16.16,0,0,1-.14-.18,4.19,4.19,0,0,1,.36-.79,26.67,26.67,0,0,0,1.47-3.17h-6.51v3.6c0,.9,0,.9,4.21.9,2.16,0,2.84-.07,3.24-.43a7.9,7.9,0,0,0,1.26-1.8c.29-.47.47-.65.65-.65s.14.11.14.25,0,.44-.11,1.37c0,.25-.07.58-.07.61,0,.22.07.33.4.47.64.29.93.65.93,1.15,0,.65-.57,1.05-1.62,1.19s-2.48.15-6.08.15l-.9,0,1.44.83a.56.56,0,0,1,.29.5.6.6,0,0,1-.58.61h-.83c-.86.58-1.26.87-2.48,1.84h4.18l2.3-2.74L388,16.13a.74.74,0,0,1,.29.54.44.44,0,0,1-.44.5H375.66v3.06h4.82l2.2-2.63,2.91,2.52a1,1,0,0,1,.33.61.5.5,0,0,1-.43.47h-9.83v3.49h9.46l2.31-2.62,3.06,2.62a.81.81,0,0,1,.29.54.45.45,0,0,1-.47.44H365.58c-2.34,0-3.24,0-6.23.17Zm5.84,4.14a6.92,6.92,0,0,1-.72,3.28,3.77,3.77,0,0,1-2.78,1.91,1.9,1.9,0,0,1-2.05-1.91c0-.79.15-.94,1.8-2a5.43,5.43,0,0,0,2.7-3.24c.11-.29.22-.39.4-.39C364.14,26.28,364.36,27,364.36,28.65Zm5.18-1.36c2,1.33,2.88,2.59,2.88,4.28a2,2,0,0,1-2,2.19c-1,0-1.47-.64-1.54-2.19-.11-2.31-.44-3.71-1.08-4.57a.83.83,0,0,1-.22-.4.24.24,0,0,1,.25-.22A6,6,0,0,1,369.54,27.29Zm3.2-21.64a1.93,1.93,0,0,1-.14.47,8.37,8.37,0,0,1-4.61,5.8,7.56,7.56,0,0,1,2.45.86A2.88,2.88,0,0,1,372,15.19a1.69,1.69,0,0,1-.33,1h5.22a26.2,26.2,0,0,0,1.51-3.89c-2.34,0-2.73-.32-2.73-1.94V5.65Zm3.39,21.67c2.48.94,3.88,2.48,3.88,4.25A1.76,1.76,0,0,1,377.24,33c-.39-.4-.39-.4-1.08-2.63A5.68,5.68,0,0,0,374,27.29c-.21-.19-.29-.29-.29-.4a.25.25,0,0,1,.26-.22A18.3,18.3,0,0,1,376.13,27.32ZM384,27.1c3.13,1,4.71,2.34,4.71,4.07a1.91,1.91,0,0,1-1.9,1.87c-.8,0-.83,0-2.27-2.19a13.81,13.81,0,0,0-4.1-3.71c-.44-.29-.58-.39-.58-.54a.33.33,0,0,1,.36-.32A27.07,27.07,0,0,1,384,27.1Z"/><path class="cls-1" d="M403.16,14.36c0,2.67-1.11,4.5-2.77,4.5a1.33,1.33,0,0,1-1.4-1.4c0-.65,0-.69,1.22-2.59a8,8,0,0,0,1.33-4.5,5.58,5.58,0,0,0-.07-.9,2.37,2.37,0,0,1,0-.4c0-.14.07-.25.21-.25C402.19,8.82,403.16,12.35,403.16,14.36Zm8.53-4.28a30.31,30.31,0,0,1-4.6,2.95,83.75,83.75,0,0,1-.76,9.18,8.11,8.11,0,0,1,4.39,2.23,4.61,4.61,0,0,1,1.19,2.77c0,1.08-.54,1.8-1.37,1.8s-1.22-.47-1.69-1.91a9.56,9.56,0,0,0-2.63-4.35,17.52,17.52,0,0,1-4,8,8.57,8.57,0,0,1-2.7,2.37.23.23,0,0,1-.21-.21c0-.15.07-.26.46-.76,3-3.67,4.43-9.5,4.43-18.18V.5l3.24.29c.58,0,1,.36,1,.76a1,1,0,0,1-.58.79l-.79.47V12A54.9,54.9,0,0,0,410,7l1.91,1.77c.43.39.57.61.57.83s-.22.39-.43.46Zm6.66,11.19c-.36,4.5-1.18,6.73-3.2,8.68a13.65,13.65,0,0,1-4.93,2.95,7.16,7.16,0,0,1-2.13.65c-.17,0-.28-.07-.28-.22s.14-.32.57-.54c5-2.52,6.73-5.43,6.91-11.52h-2c-1,0-1.95,0-4.14.11l-.68-1.22c2.3.11,2.62.11,4.89.14V14.61H413c-.58,0-1.33,0-2.2,0l-2.05.07-.57-1.22c2.59.11,3.63.14,4.82.14h.36V9l3,.32a.78.78,0,0,1,.76.69.82.82,0,0,1-.43.61l-.54.25v2.77h6.95V9.07l2.91.25c.54,0,.9.33.9.65a1.14,1.14,0,0,1-.5.76l-.54.36v2.55h1.94l2-2.55,2.77,2.3c.36.25.54.5.54.72s-.29.5-.69.5h-6.58V20.3h1.4l1.84-2.37L431.6,20a1.47,1.47,0,0,1,.58.79c0,.29-.33.5-.72.5h-7.35v7.27c0,1.08.18,1.16,2.6,1.16,2.15,0,2.44-.08,2.84-.83A26.73,26.73,0,0,0,431,25.05c.18-.54.26-.68.44-.68s.21.14.21.5c0,.15,0,.15,0,1.51l0,1.84c0,.83,0,.86.4,1.19.64.5.93.93.93,1.4,0,.65-.65,1.23-1.62,1.41a33.59,33.59,0,0,1-4.79.21c-5.07,0-5.4-.14-5.4-2.55V21.27ZM410.87,6.19c2.52.11,3.56.14,4.82.14h2.52v-6l3.46.29c.5,0,.9.36.9.68a.85.85,0,0,1-.51.69l-.86.5V6.33h3.88l2.06-2.41,2.66,2.27c.32.29.5.54.5.72s-.25.4-.61.4H421.2v4.21c0,.4-.11.57-.54.72a8.89,8.89,0,0,1-1.84.32c-.39,0-.61-.25-.61-.72V7.31h-2.52c-1.12,0-2.05,0-4.18.11ZM423.11,20.3V14.61h-6.95V20.3Z"/><path class="cls-1" d="M458.17,10.4a18.69,18.69,0,0,1-5.11.9,4.52,4.52,0,0,1-3.39-1.44,3.48,3.48,0,0,1-.89-1.58.25.25,0,0,1,.28-.25c.11,0,.18,0,.33.25.43.61,1.26.9,2.7.9a13.3,13.3,0,0,0,4.71-.94c-2.73-4.32-4-5.43-5.9-5.36-.15,0-.25-.07-.25-.14,0-.51,1.76-1.59,2.59-1.59A6.46,6.46,0,0,1,457,2.34c.21.18.47.58.43.72a1,1,0,0,0,0,.32c0,.87.29,1.73,1.41,4.14a7.87,7.87,0,0,0,1.37-1c.93-.83,1.08-.94,1.43-.94,1,0,2.34.9,2.34,1.58s-1.18,1.51-4,2.67A25.71,25.71,0,0,0,461.84,13c3.17-1.4,4.43-2.3,4.72-3.31a12.4,12.4,0,0,1,2.84.51c.54.18.79.47.79.82,0,.69-.5,1.26-1.69,2a28.06,28.06,0,0,1-5,2.45c.72,1,1.54,2,3.34,4.14a4.73,4.73,0,0,1,1.37,3.13c0,1.91-1.11,3.38-2.55,3.38a2.6,2.6,0,0,1-.44,0,12,12,0,0,0-8.53-4.25c-3,0-4.86,1.33-4.86,3.45s2.09,3.42,5.44,3.42c.47,0,2.3-.07,3-.1a4.89,4.89,0,0,1,.69,0,1.53,1.53,0,0,1,1.72,1.58c0,1.52-1.15,2.24-3.6,2.24-6,0-10.11-2.52-10.11-6.16,0-3.35,3.17-5.58,7.88-5.58a15.56,15.56,0,0,1,4.72.72,7.5,7.5,0,0,0,1.94.4.39.39,0,0,0,.43-.36c0-.54-.93-2.41-2.48-5.08a33.45,33.45,0,0,1-8.78,1.37,7.68,7.68,0,0,1-4.18-1,4.05,4.05,0,0,1-1.73-3.1c0-.32.11-.54.26-.54s.1,0,.28.43c.47,1.23,2.09,1.87,4.65,1.87a24,24,0,0,0,8.24-1.44A29.45,29.45,0,0,0,458.17,10.4Z"/><path class="cls-1" d="M64,60.6a3.62,3.62,0,0,1,1.51,2.16c0,.18-.1.32-.36.54a3.15,3.15,0,0,0-.75.79C60.91,68.77,59.15,70.5,56,72.3c-2.16,1.26-5,2.41-6,2.41a.29.29,0,0,1-.32-.29c0-.14.14-.29.57-.5a22.32,22.32,0,0,0,7.45-6.19c2.09-2.52,3.35-4.94,3.35-6.41a1.89,1.89,0,0,0-.86-1.8c-.18-.07-.22-.11-.22-.22s.22-.25.69-.25A4.6,4.6,0,0,1,64,60.6Zm11.67.61C78.69,63.69,81,67.47,81,70a2.42,2.42,0,0,1-2.34,2.52,1.32,1.32,0,0,1-1.15-.61c-.25-.36-.25-.36-.86-2.48-1.8-5.15-4.68-9.33-7.24-10.48-.58-.25-.61-.28-.61-.43s.14-.25.43-.29C70.59,58.12,73.65,59.52,75.71,61.21Z"/><path class="cls-1" d="M105.91,59.52a2,2,0,0,1-2,1.91c-.72,0-1-.29-1.55-1.37a10.48,10.48,0,0,0-5.25-4.82c-.29-.08-.4-.15-.4-.26,0-.28.9-.46,2.2-.46C102.42,54.52,105.91,57,105.91,59.52Zm16.38-4.64c0,.57-2,4-3.49,6.08a54,54,0,0,1-15.34,13.93,4.16,4.16,0,0,0-.68.47c-.22.18-.43.39-.68.57a1,1,0,0,1-.51.22,4.77,4.77,0,0,1-2.52-1.51c-1.37-1.3-1.87-2.06-1.87-2.85s.22-1.44.5-1.44c.11,0,.15,0,.33.36a2.87,2.87,0,0,0,2.12.87c1.95,0,5.29-1.77,9.22-4.86A80.48,80.48,0,0,0,121.5,55.06c.25-.29.39-.44.54-.44A.32.32,0,0,1,122.29,54.88Z"/><path class="cls-1" d="M147.6,60.78c1,.86,1.51,1.62,1.51,2.16,0,.18-.11.32-.36.54a3.18,3.18,0,0,0-.76.79c-3.52,4.68-5.29,6.41-8.42,8.21-2.12,1.26-5,2.41-6,2.41a.3.3,0,0,1-.33-.29c0-.14.15-.29.58-.5a22.32,22.32,0,0,0,7.45-6.19c2.09-2.52,3.35-4.94,3.35-6.41a1.86,1.86,0,0,0-.87-1.8c-.18-.07-.21-.11-.21-.22s.21-.25.68-.25A4.62,4.62,0,0,1,147.6,60.78Zm9.18-1.08c4.1,2.23,7.74,7.16,7.74,10.47a2.43,2.43,0,0,1-2.34,2.52,1.32,1.32,0,0,1-1.15-.61c-.26-.36-.26-.36-.87-2.48-1.8-5.15-4.68-9.33-7.23-10.48-.58-.25-.62-.29-.62-.43s.15-.25.44-.29A10.68,10.68,0,0,1,156.78,59.7Zm3.31-4.18a1.5,1.5,0,0,1-1.58,1.34c-.54,0-.8-.22-1.26-1a5.45,5.45,0,0,0-3.1-2.41c-.18,0-.25-.15-.25-.26,0-.28.54-.43,1.51-.43C157.86,52.75,160.09,54.08,160.09,55.52Zm4.53-2.23A1.61,1.61,0,0,1,163,54.7c-.5,0-.64-.11-1.29-1.16a5.38,5.38,0,0,0-3.13-2.34.28.28,0,0,1-.25-.25c0-.25.68-.47,1.58-.47C162.32,50.48,164.62,51.85,164.62,53.29Z"/><path class="cls-1" d="M206.74,65.57c0,.72-.72,1.18-1.83,1.18-.33,0-1.48-.1-3-.25-.76-.07-1.84-.11-3.17-.11-9,0-14.33.51-17,1.59a1.46,1.46,0,0,1-.5.11,6.57,6.57,0,0,1-3.1-1.19A3.38,3.38,0,0,1,176.8,64c0-.65.18-1,.54-1,.1,0,.18.08.36.36.54.9,1.72,1.23,4.6,1.23s11.7-.54,14.19-.83a28.32,28.32,0,0,0,5.72-1.22C205.23,63.12,206.74,64.16,206.74,65.57Z"/><path class="cls-1" d="M224.17,67.58a11.61,11.61,0,0,1-2.7,1.3.23.23,0,0,1-.21-.22c0-.11.1-.25.32-.39,4.25-3,8.89-10.08,8.89-13.68a2.29,2.29,0,0,0-1.08-2.23c-.29-.08-.36-.15-.36-.22,0-.25.69-.47,1.44-.47a5.32,5.32,0,0,1,3,1c.83.54,1.55,1.4,1.55,1.8a14.43,14.43,0,0,1-1.7,3.31,1.93,1.93,0,0,0,.62.11A14,14,0,0,0,239.51,56a2.7,2.7,0,0,1,1.26-.57c.75,0,3.49,2.48,3.49,3.2,0,.11-.15.32-.43.54s-.51.43-.94.86c-3.38,6.12-4.54,7.85-7.09,10.41a35.23,35.23,0,0,1-12.56,8.09,17.14,17.14,0,0,1-3.75,1,.27.27,0,0,1-.25-.22c0-.14.11-.22.4-.32a31.83,31.83,0,0,0,9.46-5.87,41.57,41.57,0,0,0,8.14-9.9,10.47,10.47,0,0,0,1.65-4.07.69.69,0,0,0-.68-.72,8.4,8.4,0,0,0-1.58.36,17,17,0,0,1-2.7.62,2.09,2.09,0,0,1-1.19-.47C229.86,63.12,227.38,65.6,224.17,67.58Zm21.74-14.07A1.41,1.41,0,0,1,244.44,55c-.54,0-.72-.15-1.08-.87a5.57,5.57,0,0,0-3-2.88c-.4-.14-.47-.18-.47-.32s.29-.32,1.11-.32C243.61,50.56,245.91,52,245.91,53.51Zm4.29-2.45a1.34,1.34,0,0,1-1.48,1.37,1,1,0,0,1-1-.58,6,6,0,0,0-3.63-3,.28.28,0,0,1-.22-.29c0-.22.47-.32,1.4-.32C248,48.22,250.2,49.48,250.2,51.06Z"/><path class="cls-1" d="M273.27,74.82c-3,1.87-7.95,3.74-9.89,3.74-.18,0-.33-.11-.33-.25s.11-.22.33-.29a26.72,26.72,0,0,0,11.77-8.1,23.08,23.08,0,0,0,5-8.57,10.8,10.8,0,0,0,.69-2.73c0-.58-.33-.79-1.12-.79a45.25,45.25,0,0,0-7.13,1.22,15.4,15.4,0,0,0-4.32,1.51,1.11,1.11,0,0,1-.61.25,4.74,4.74,0,0,1-2.16-1,3.45,3.45,0,0,1-1.22-2.91c0-.29.11-.51.29-.51s.14.07.29.25a3.27,3.27,0,0,0,2.73,1,83.26,83.26,0,0,0,9.22-1.12,10.39,10.39,0,0,0,4.28-1.44c.72-.43.9-.5,1.22-.5s1,.32,3.06,1.76c.76.51,1.26,1,1.26,1.26s-.32.58-1.65,1.51C281.66,67.15,278.31,71.69,273.27,74.82Zm18.36-23.33a3.62,3.62,0,1,1-3.56-3.6A3.63,3.63,0,0,1,291.63,51.49Zm-5.83,0a2.22,2.22,0,1,0,2.23-2.2A2.21,2.21,0,0,0,285.8,51.46Z"/><path class="cls-1" d="M311.94,71.22c0,.36.11.47.43.47,1.58,0,7.45-3.42,11.3-6.59a46.52,46.52,0,0,0,8.07-8.21c.14-.21.25-.29.36-.29a.38.38,0,0,1,.32.33A20.88,20.88,0,0,1,330.8,60a35.6,35.6,0,0,1-8.6,9.43,43,43,0,0,1-7.06,4.68,8.05,8.05,0,0,0-3.09,2.3.63.63,0,0,1-.51.32c-.83,0-3.24-2.37-3.24-3.16,0-.15,0-.15.33-.83A6.5,6.5,0,0,0,309,70V67.47c0-3.42,0-5.4,0-5.9,0-3.63-.58-5-2.24-5.33-.43,0-.54-.1-.54-.28s.11-.26.37-.33a11.32,11.32,0,0,1,2.15-.43,4.85,4.85,0,0,1,2.7,1.15c1.26.94,1.73,1.51,1.73,2,0,.29,0,.33-.29.9-.5.79-.9,4.61-.93,9.32Z"/><path class="cls-1" d="M373.78,65.57c0,.72-.72,1.18-1.83,1.18-.33,0-1.48-.1-3-.25-.75-.07-1.83-.11-3.16-.11-9,0-14.33.51-17,1.59a1.46,1.46,0,0,1-.5.11,6.57,6.57,0,0,1-3.1-1.19A3.38,3.38,0,0,1,343.84,64c0-.65.18-1,.54-1,.1,0,.18.08.36.36.54.9,1.72,1.23,4.6,1.23s11.7-.54,14.19-.83a28.32,28.32,0,0,0,5.72-1.22C372.27,63.12,373.78,64.16,373.78,65.57Z"/><path class="cls-1" d="M400.17,70.79c0,1.25,0,2.44.08,2.88.1,1.47.14,2.7.14,3.16,0,1.84-.72,3.24-1.62,3.24s-2.56-2.27-2.56-3.6a10.69,10.69,0,0,1,.36-2,90.37,90.37,0,0,0,.51-9.58c0-2.41-.18-9.39-.25-10.4-.18-2.23-.54-2.7-2.27-2.7-.18,0-.29-.07-.29-.25,0-.47,2.16-1.48,3.2-1.48a3.84,3.84,0,0,1,2.6,1.51,3.44,3.44,0,0,1,1,1.66c0,.25,0,.32-.51,1.4a26.52,26.52,0,0,0-.5,5.87c3.38.29,5.36.83,7.34,2.09,1.8,1.15,3,2.7,3,4a1.83,1.83,0,0,1-1.91,1.91,2.18,2.18,0,0,1-1.65-.75,9.91,9.91,0,0,1-1.15-1.7A12.74,12.74,0,0,0,400,61.21l.08,3.28,0,3Z"/></g></g></svg>