<svg xmlns="http://www.w3.org/2000/svg" viewBox="0 0 425.76 76.6"><path d="M4.5,7a12.44,12.44,0,0,1,.11,1.37c0,2.2-1.3,4-2.95,4A1.56,1.56,0,0,1,0,10.91V10.8c0-.76.11-.94,1.51-2.3A5.89,5.89,0,0,0,3.17,4.21c0-.21,0-.29.14-.29s.25.15,1,2.09h10V3.35H11.52c-.87,0-1.12,0-5.47.14L5.29,2.2c1.59.07,2.84.1,3.35.1l2.88.08H23.11L25.16,0l2.95,2.12c.36.22.54.47.54.72a.63.63,0,0,1-.68.51H17.42V6H28.33l1.33-1.87,2.95,3.2a1.22,1.22,0,0,1,.43.79c0,.47-.28.65-1,.65H30.42c-.29.22-.51.4-.58.43-.4.29-.79.58-1.15.87-1.48,1-1.48,1-1.69,1a.34.34,0,0,1-.36-.32v0c0-.14,0-.14.72-1.76.28-.69.64-1.51.82-2H17.42v8.28c0,.65-1,1.15-2.3,1.15-.58,0-.83-.18-.83-.64V7Zm7.05,4.9,1.77,1.47a1,1,0,0,1,.43.72.51.51,0,0,1-.51.51H3.56v-1h6.52ZM7.34,29c0,.54-1.22,1.08-2.48,1.08-.47,0-.68-.15-.68-.44V15.91L8,17.6H24.69l1.41-1.83,2.84,2.48a1.22,1.22,0,0,1,.47.86c0,.29-.18.51-.61.72l-.44.25v7.28c0,.61-1.15,1.15-2.37,1.15-.54,0-.79-.22-.79-.65V26.74H17.31V29.3c0,1,0,1,2.42,1,.79,0,2.3,0,4-.07h1.94c2.88,0,3.35-.22,4.07-1.94.57-1.44.65-1.7,1.29-3.68.11-.43.18-.5.33-.5s.29.14.29.43c0,1.48,0,1.48-.08,4.14,0,.69.11.79,1.12,1.3.54.29.86.65.86,1a1.74,1.74,0,0,1-1,1.22c-1.08.61-3.89.79-11.66.79-6.34,0-6.8-.18-6.8-2.37V26.74H7.34Zm4-20.67L13.25,10a.83.83,0,0,1,.32.58c0,.25-.22.39-.58.39H5.11V10h5Zm2.78,13.4V18.57H7.34v3.14Zm0,4.06V22.68H7.34v3.09Zm11-4.06V18.57H17.31v3.14Zm0,4.06V22.68H17.31v3.09Zm-1-17.51L26.06,10a1.23,1.23,0,0,1,.4.65c0,.21-.18.32-.51.32H18.43V10h4.32Zm1.69,3.24,2.38,1.76c.32.25.47.47.47.69a.63.63,0,0,1-.61.61H18.43v-1h5.76Z" transform="translate(0)" fill="#343434"/><path d="M39.64,7c2.66.11,3.7.14,4.82.14h4V4.57c-.4.07-.65.11-.72.11l-2.12.25c-3.39.4-3.93.47-4.29.47s-.43-.11-.43-.29,0-.25,1.8-.72A76.27,76.27,0,0,0,55,.18l2.77,2.27A.71.71,0,0,1,58,3a.54.54,0,0,1-.57.51h-.08L55.7,3.32a4.87,4.87,0,0,0-.76.15l-2.45.39c-.11,0-.5.11-1,.22V7.16h3l2.3-2.45,3,2.49a.57.57,0,0,1,.22.47c0,.25-.14.46-.29.46H51.48v2.7h3.09l1-1.65,2.85,2.59a1.08,1.08,0,0,1,.39.72.62.62,0,0,1-.39.54l-.72.32v6.09c0,.57-1,1-2.49,1-.32,0-.43-.07-.43-.33v-.39h-3.3V23h2.63L56.3,20.7l2.49,2.23a.67.67,0,0,1,.21.5c0,.25-.14.47-.29.47H51.48v2.77l.65-.14,1.94-.33a27.17,27.17,0,0,1,3.24-.46c.29,0,.43.1.43.32s-.21.43-1.76.9c-.29.11-.72.25-1.08.36-2.16.72-3,1-6.09,1.87-2.91.79-3.49.94-5.25,1.48l-.5.83a.81.81,0,0,1-.65.43.78.78,0,0,1-.58-.43L40,28c2.31-.18,5.58-.54,8.39-.93V23.9h-3c-.9,0-1.73,0-4.14.11l-.68-1.22c2.62.1,3.67.14,4.82.14h3.06V19.69H45.11v1c0,.47-1,.83-2.23.83-.51,0-.65-.11-.65-.47V9.36l3.38,1.47h2.81V8.13h-6l-2,.07Zm8.78,7.63V11.77H45.11v2.88Zm0,4.07V15.6H45.11v3.1ZM64.8,10.15c-.29,6.3-.76,9.43-1.95,12.71a16,16,0,0,1-7.09,8.53,21.44,21.44,0,0,1-4.71,2.37c-.15,0-.22-.07-.22-.21s.11-.29.43-.47C59,28.11,61.34,23,61.63,10.15c-1.58.07-1.84.07-3.49.11L57.56,9c2,.1,2.31.1,4.11.14V5c0-2.38,0-2.52-.11-4.18l4,.29a.71.71,0,0,1,.65.72.75.75,0,0,1-.4.68L64.9,3c0,1-.07,3-.1,6.16h3.49L69.84,7l3.24,3.46a.8.8,0,0,1,.18.47.4.4,0,0,1-.26.39l-.93.36c0,.76-.07,1.34-.07,1.55L71.89,16c-.18,5.9-1,11-2.23,13.39S66.74,33.12,65,33.12a.87.87,0,0,1-1-.71A.81.81,0,0,1,64,32v-.44a1.14,1.14,0,0,0-.51-1.22,25.69,25.69,0,0,0-2.8-1.69c-.29-.15-.44-.33-.44-.51s.11-.21.33-.21a11.09,11.09,0,0,1,1.72.32,14.93,14.93,0,0,0,2.81.51c2.31,0,3.42-5.87,3.57-18.65Zm-10,4.5V11.77H51.48v2.88Zm0,4.07v-3.1H51.48v3.1Z" transform="translate(0)" fill="#343434"/><path d="M93.78,16.88A44.83,44.83,0,0,0,86.51,19a3.92,3.92,0,0,1-1.8.5c-1.44,0-3.39-2-3.39-3.49,0-.25.11-.43.26-.43s.1,0,.21.14a3.69,3.69,0,0,0,2.7.76A21.33,21.33,0,0,0,89,16c2-.29,2.27-.33,4.79-.65V12.58A5.74,5.74,0,0,0,93.47,10a17.9,17.9,0,0,1-3.71.57A3.82,3.82,0,0,1,87,9.14a3.38,3.38,0,0,1-.72-1.47c0-.15.11-.25.33-.29a2.5,2.5,0,0,0,2.09.72,29.34,29.34,0,0,0,11.48-2.88A1.41,1.41,0,0,1,100.9,5c1,0,2.66,1.26,2.66,2s-.93,1-7.84,2.27c1.44.83,2,1.3,2,1.66a1.43,1.43,0,0,1-.26.72,8.15,8.15,0,0,0-.57,3.24c2.81-.4,3.6-.51,7.59-1.16,2.49-1.22,2.56-1.26,2.85-1.26a8.16,8.16,0,0,1,2.41,1.26c1.19.8,1.65,1.34,1.65,1.84a.84.84,0,0,1-.91.76h0a10.71,10.71,0,0,1-1.26-.11c-1-.11-3.71-.25-4.68-.25-2.61.06-5.22.25-7.81.57-.07,2.95-.11,4-.11,4.93,0,3.35.72,4.25,3.38,4.25a17.64,17.64,0,0,0,5.91-.72,4.43,4.43,0,0,1,1.18-.29,2,2,0,0,1,1.7,2c0,1.51-2.24,2.37-6.16,2.37-3.27,0-6-.72-7.16-1.87s-1.66-2.91-1.66-5.36Z" transform="translate(0)" fill="#343434"/><path d="M152.31,17.67c0,.72-.72,1.19-1.83,1.19-.33,0-1.48-.11-3-.25-.75-.07-1.83-.11-3.17-.11-9,0-14.32.51-17,1.58a1.26,1.26,0,0,1-.51.11A6.4,6.4,0,0,1,123.66,19a3.35,3.35,0,0,1-1.3-2.92c0-.65.18-1,.54-1,.11,0,.18.07.36.36.54.9,1.73,1.23,4.61,1.23s11.7-.54,14.18-.83a29.4,29.4,0,0,0,5.73-1.23C150.8,15.23,152.31,16.27,152.31,17.67Z" transform="translate(0)" fill="#343434"/><path d="M172.51,15.44a24.83,24.83,0,0,1-3.89,3.64,11.65,11.65,0,0,1-3.16,1.8.24.24,0,0,1-.22-.22c0-.14,0-.14.65-.65,3.78-3.09,8-10.44,8-14a2.74,2.74,0,0,0-1.11-2.45c-.33-.14-.4-.18-.4-.28A2.56,2.56,0,0,1,174,2.84c1.7,0,4.14,1.8,4.14,3,0,.46-.25,1-1.44,3.42a2,2,0,0,0,.76.14,14.12,14.12,0,0,0,5.94-1.51,1.93,1.93,0,0,1,1.08-.4,3.18,3.18,0,0,1,1.62.87c.29.25.54.46.79.65,1,.86,1.44,1.29,1.44,1.61s-.14.36-.43.58l-1,.68a50.17,50.17,0,0,1-4,6.48c2.59,1.91,3.53,3.17,3.53,4.68A1.78,1.78,0,0,1,184.8,25h-.12c-.8,0-1.26-.36-2.06-1.62A16.4,16.4,0,0,0,180.68,21a33.41,33.41,0,0,1-12.17,9,23.92,23.92,0,0,1-5.29,1.73.25.25,0,0,1-.25-.25c0-.11.07-.18.29-.26,5.36-2.12,12.38-7.77,15.26-12.34A15,15,0,0,0,172.51,15.44Zm7.31,1.37a14.75,14.75,0,0,0,2.3-4.21,6.37,6.37,0,0,0,.61-2.09.41.41,0,0,0-.39-.43H182a6.58,6.58,0,0,1-1.08.18c-.72.11-1.4.26-2.05.36a8.25,8.25,0,0,1-1.4.18,3.37,3.37,0,0,1-1.55-.46,45.2,45.2,0,0,1-2.81,4.42,21.26,21.26,0,0,1,6.7,2Z" transform="translate(0)" fill="#343434"/><path d="M230.43,17.67c0,.72-.72,1.19-1.83,1.19-.33,0-1.48-.11-3-.25-.75-.07-1.83-.11-3.17-.11-9,0-14.32.51-17,1.58a1.26,1.26,0,0,1-.51.11A6.4,6.4,0,0,1,201.78,19a3.35,3.35,0,0,1-1.3-2.92c0-.65.18-1,.54-1,.11,0,.18.07.36.36.54.9,1.73,1.23,4.61,1.23s11.7-.54,14.18-.83a29.4,29.4,0,0,0,5.73-1.23C228.92,15.23,230.43,16.27,230.43,17.67Z" transform="translate(0)" fill="#343434"/><path d="M256.79,10.22a23.16,23.16,0,0,1-3.6,11.7c-2.13,3.31-5.26,5.87-7.24,5.87a4.34,4.34,0,0,1-3-2,9.33,9.33,0,0,1-1.77-5.8c0-7.92,7.24-14.72,15.66-14.72a13.94,13.94,0,0,1,10.12,4,10.88,10.88,0,0,1,2.84,7.6,13.25,13.25,0,0,1-6.66,11.51,22,22,0,0,1-6.66,2.45,14.8,14.8,0,0,1-2.3.43c-.22,0-.36-.07-.36-.21s.11-.22.68-.4a19.33,19.33,0,0,0,6.44-3.35c3.14-2.55,4.61-5.83,4.61-10.25,0-4.83-1.62-8.1-4.75-9.69a8.66,8.66,0,0,0-3.71-.86h-.75A13.74,13.74,0,0,1,256.79,10.22Zm-8.14-.32a14.06,14.06,0,0,0-4.25,10c0,2.13,1,4,2.09,4s3.17-1.87,4.68-4.25a21.22,21.22,0,0,0,3.67-10.76,8.46,8.46,0,0,0-.22-2,.4.4,0,0,0-.07-.25,13.69,13.69,0,0,0-5.9,3.26Z" transform="translate(0)" fill="#343434"/><path d="M285.77,19.37a12.18,12.18,0,0,1-2.7,1.29.24.24,0,0,1-.22-.21c0-.18.07-.22.69-.65,3.85-2.67,8.53-10,8.53-13.43A2.27,2.27,0,0,0,291,4.18c-.29-.08-.36-.15-.36-.22,0-.25.68-.47,1.44-.47a5.31,5.31,0,0,1,3,1c.83.54,1.55,1.4,1.55,1.79a16,16,0,0,1-1.69,3.32,1.81,1.81,0,0,0,.61.1,13.88,13.88,0,0,0,5.58-1.94,2.78,2.78,0,0,1,1.26-.57c.76,0,3.49,2.48,3.49,3.16,0,.15-.14.33-.43.58s-.64.56-.94.86c-3.34,6.09-4.53,7.81-7.09,10.37a35.17,35.17,0,0,1-12.56,8.1,17.37,17.37,0,0,1-3.74,1c-.11,0-.26-.11-.26-.22s.11-.21.4-.32a31.18,31.18,0,0,0,9.47-5.87,40.2,40.2,0,0,0,8.1-9.85,10.59,10.59,0,0,0,1.66-4.07.7.7,0,0,0-.68-.72h0a8.42,8.42,0,0,0-1.58.36,17.78,17.78,0,0,1-2.7.58,2.32,2.32,0,0,1-1.19-.43C291.45,14.9,289,17.39,285.77,19.37Z" transform="translate(0)" fill="#343434"/><path d="M328,14.33a27.19,27.19,0,0,1-6,11.44,19.37,19.37,0,0,1-5.76,4.32,3.52,3.52,0,0,1-1,.36.28.28,0,0,1-.29-.25c0-.11.11-.22.5-.5a21,21,0,0,0,7.11-9.7,23.43,23.43,0,0,0,1.83-7.6,2.82,2.82,0,0,0-1.54-2.84c-.15-.07-.26-.15-.26-.25,0-.29.65-.62,1.34-.62a5,5,0,0,1,2.77,1.16c1,.75,1.87,1.83,1.87,2.34a1.78,1.78,0,0,1-.14.5,5.61,5.61,0,0,0-.26.79Zm3.27,4.1c0-6.88,0-8.75-.25-9.36a1.46,1.46,0,0,0-.9-1.11c-.29-.08-.36-.11-.36-.26a3.47,3.47,0,0,1,1.84-.82c.61,0,1.08.21,2.59,1.4.68.54,1,1,1,1.29a2.26,2.26,0,0,1-.32.9,3.2,3.2,0,0,0-.36,1.12c-.07.72-.18,1.73-.36,4.39s-.32,4.25-.32,4.5-.08.65-.08.86c0,.47.15.76.4.76a11.19,11.19,0,0,0,4-1.83,37.49,37.49,0,0,0,6.73-5.91,35.18,35.18,0,0,0,3.6-4.89c.18-.36.29-.47.47-.47a.28.28,0,0,1,.29.25c0,.68-1.91,4.25-3.46,6.48A34.59,34.59,0,0,1,335,25.63l-1,.61-.5.4a1.06,1.06,0,0,1-.54.21,1.4,1.4,0,0,1-1-.61,6.2,6.2,0,0,1-1.33-2.34l.58-2Z" transform="translate(0)" fill="#343434"/><path d="M377.46,26a2.13,2.13,0,0,1-1.91,2.33h-.15c-.57,0-1-.39-1.51-1.37-1.94-4.21-4.35-7.19-6.76-8.38-.36-.15-.47-.22-.47-.33s.21-.32.5-.32a10.32,10.32,0,0,1,6.16,2.38c3.78-3.64,6.48-7,6.48-8.14,0-.47-.69-.76-1.8-.76a55.16,55.16,0,0,0-7.78,1.19,56.88,56.88,0,0,0-8.06,2.49,2,2,0,0,1-.58.18,6,6,0,0,1-3-1.8,3.3,3.3,0,0,1-.82-2.42c0-.61.07-.82.28-.82s.22.07.33.28a3.19,3.19,0,0,0,2.77,1.12,104.09,104.09,0,0,0,11-1.3c1.66-.25,3.06-.46,3.74-.54a16.55,16.55,0,0,0,4.93-1.29,4,4,0,0,1,.9-.25c.65,0,2.2.93,3.53,2.08,1,.83,1.23,1.19,1.23,1.73s-.26.79-1.08,1.12a6.51,6.51,0,0,0-2.63,1.58,73.88,73.88,0,0,1-8.32,6.3C376.59,23,377.46,24.37,377.46,26Z" transform="translate(0)" fill="#343434"/><path d="M412.45,3.71c1.51.5,1.51.5,1.51,1,0,1-.86,1.48-4.43,2.52-1.65,3.27-2.23,4.35-3.7,6.84a5,5,0,0,1,1.9-.43,4,4,0,0,1,2.6.93c.61.54.9,1.26,1.11,2.81,2.27-5.51,5.33-8.21,9.32-8.21,2.88,0,5,1.66,5,4,0,1.37-1,2.27-3.42,3.13a67.82,67.82,0,0,0-10,4.07c.07,2.09.1,2.66.1,3.31,0,1.59-.68,2.31-2.23,2.31-.47,0-.86-.29-.86-.62a2.54,2.54,0,0,1,0-.39,6.36,6.36,0,0,0,.08-1.15V21.7a13.67,13.67,0,0,0-2.48,2,4.23,4.23,0,0,0-1.23,2.7c0,1.59,1.59,2.31,5,2.31a21.49,21.49,0,0,0,5.58-.8,4.46,4.46,0,0,1,1.08-.25,2.11,2.11,0,0,1,1.55.65,3.09,3.09,0,0,1,.76,1.62c0,.79-.76,1.4-2.24,1.76a28.63,28.63,0,0,1-5.47.51,12.63,12.63,0,0,1-6-1.28A4.64,4.64,0,0,1,403.41,27c0-1.51.87-3,2.67-4.39a30.33,30.33,0,0,1,3.31-2.16V18.18c0-2.37-.64-3.56-1.83-3.56a4.1,4.1,0,0,0-2.63,1.58c-.4.51-2.27,3.31-3,4.58-.51.82-.94,1.22-1.44,1.22-.8,0-1.84-1.66-1.84-3,0-.54.07-.65,1.12-1.44,4.1-3.35,5.72-5.58,7.05-9.68a16.52,16.52,0,0,1-3.2.5,3.19,3.19,0,0,1-3.1-2.77.17.17,0,0,1,.15-.18.47.47,0,0,1,.28.18c.44.47,1.05.65,2.34.65a10,10,0,0,0,3.82-.79,4.25,4.25,0,0,0,.14-1.12c0-1.51-.57-2.59-1.4-2.63-.18,0-.25-.07-.25-.18,0-.28,1.15-.64,2.09-.64a2.87,2.87,0,0,1,1.76.57,2.47,2.47,0,0,1,.9,2.27,4,4,0,0,1-.11.9,3.11,3.11,0,0,0,1.69-1.15ZM412.05,19c9.43-5.44,9.43-5.44,9.43-6.44a2,2,0,0,0-1.83-1.91c-2.16,0-4.32,1.65-6.12,4.68a8.72,8.72,0,0,0-1.44,3.49v.07Z" transform="translate(0)" fill="#343434"/><path d="M30.47,60.91l-1.91.4-.54.1-.28.44c-.47.64-.54.72-.83.72s-.61-.29-.83-.87L25,58.89h4.89l.29-.43a53.14,53.14,0,0,0,5.61-9.58l2.34,1.77c.54.39.72.57.72.86s-.28.5-.86.58l-.76.14C34,55.9,31.94,58.1,31.08,58.89c1.51-.07,4.21-.25,5-.32a6.75,6.75,0,0,0-1.23-2.06c-.1-.14-.14-.21-.14-.28a.18.18,0,0,1,.16-.18h0a6.15,6.15,0,0,1,2.23,1c1.69,1.12,2.56,2.42,2.56,3.82,0,1.12-.58,1.76-1.51,1.76S37.1,62.31,36.81,61a5.89,5.89,0,0,0-.36-1.37L34,60.15V75.52c0,.4-.15.51-.62.69a8.79,8.79,0,0,1-1.69.29c-.39,0-.54-.11-.54-.36V60.77Zm-.54,2.66c.43.11.72.33.72.65s-.14.4-.5.69l-.29.25-.07.25-.43,1.84c-.65,3-2.88,7.77-3.6,7.77-.18,0-.25-.11-.25-.29a5,5,0,0,1,.32-1.26,38.45,38.45,0,0,0,1.44-10.4Zm4.43-16.88c-.58.69-1,1.15-1.84,2.09L30.44,51a3.82,3.82,0,0,1,1.18,2.59,1.55,1.55,0,0,1-1.44,1.66h-.07c-.9,0-1.22-.4-1.76-2.3A7,7,0,0,0,26,49.39a.32.32,0,0,1-.1-.22c0-.07,0-.1.18-.1a9.77,9.77,0,0,1,1.4.32,6.64,6.64,0,0,1,2.2,1,20,20,0,0,0,1.61-3.56c.15-.47.47-1.3.9-2.52l.18-.5.08-.26,2.77,1.59c.47.25.65.43.65.72s-.22.5-.76.65ZM37,64.76c1.73,1.51,2.45,2.92,2.45,4.64,0,1.12-.62,1.88-1.52,1.88a1,1,0,0,1-1-.69A8.52,8.52,0,0,1,36.41,68a13.06,13.06,0,0,0-1.22-4,1,1,0,0,1-.07-.29.19.19,0,0,1,.16-.22h0A5,5,0,0,1,37,64.76Zm-1.6,9.36c2.92.11,3.35.11,5.94.18V45.9l3.49,1.8h5.73l1.29-2,2.67,2.7c.5.51.65.72.65,1.08s-.18.58-.65.83L54,50.6V74.3h.43l2.05-3.1,2.31,2.74c.36.43.46.65.46.9a.39.39,0,0,1-.36.43.33.33,0,0,1-.1,0H41.63c-1.37,0-2.55,0-5.61.15ZM50.92,56.23V48.67H44.4v7.56Zm0,8.68V57.2H44.4v7.71Zm0,9.39V65.88H44.4V74.3Z" transform="translate(0)" fill="#343434"/><path d="M84.58,72.57a21.6,21.6,0,0,1-5,2,10.68,10.68,0,0,1-2.16.47c-.15,0-.29-.11-.29-.22s.11-.22.5-.36c4.72-1.51,9-6,11-11.41a21.59,21.59,0,0,0-9.86-2.74A48.91,48.91,0,0,0,75,68a5,5,0,0,1-1.44,2.41,3.26,3.26,0,0,1-2.2.83A4.21,4.21,0,0,1,67.3,67c0-2.31,1.59-4.54,4.25-6a16.36,16.36,0,0,1,5-1.66c.72-1.18,1.91-3.31,3-5.18,1.62-2.81,2.09-3.82,2.09-4.57a.67.67,0,0,0-.61-.68,4.5,4.5,0,0,0-1.7.68,24.2,24.2,0,0,0-2.84,2.2,2.4,2.4,0,0,1-1.44.72c-1.12,0-2.63-1.73-2.63-3.06,0-.62.65-1.91,1-1.91.11,0,.18.14.18.39a1.28,1.28,0,0,0,1.26,1.26,30.46,30.46,0,0,0,6.45-2,2.67,2.67,0,0,1,1.29-.39c1.12,0,4.43,2.19,4.43,2.91,0,.43-.29.76-1.15,1.37-2,1.48-3.92,4-6.16,8a31.62,31.62,0,0,1,9.65,1.54A9.28,9.28,0,0,0,90,57.44c0-1.58-.4-2.19-1.44-2.34-.08,0-.15-.11-.15-.18a3.36,3.36,0,0,1,1.55-.61,6.25,6.25,0,0,1,2.74,1.19c.9.61,1.15,1,1.15,1.87A15.14,15.14,0,0,1,92.86,62a21.7,21.7,0,0,1,3.64,2.19c1.37,1,1.87,1.73,1.87,2.7a1.68,1.68,0,0,1-1.51,1.83h-.15c-.75,0-.82,0-2.55-1.66-.58-.54-1.3-1.11-2.7-2.19C89.15,69.15,87.6,70.88,84.58,72.57Zm-8.53-12c-3.57.54-6,2.88-6,5.76,0,.86.47,1.44,1.15,1.44s1.15-.43,1.84-1.48c.43-.68.47-.72,2.52-4.64Z" transform="translate(0)" fill="#343434"/><path d="M105.82,73.15c5.44.21,5.62.21,7.09.21H124a190.39,190.39,0,0,0,3.67-19.51L132,55.37a.81.81,0,0,1,.54.75.82.82,0,0,1-.54.76l-.76.32A167.37,167.37,0,0,1,125,73.36h8.07l2.41-2.88,3.38,2.67a.91.91,0,0,1,.36.68.46.46,0,0,1-.41.51h-25.9c-1.4,0-1.87,0-6.26.18ZM108,51.66c1.33,0,3,.07,3.34.07l2.92.07h6.51V43.88l4,.36a.64.64,0,0,1,.62.65.75.75,0,0,1-.47.65l-.79.4V51.8h6.51l2.49-2.91,3.49,2.77a.7.7,0,0,1,.32.58.51.51,0,0,1-.49.53H114.21c-2.88.08-3.46.11-5.4.15ZM115.5,58a14.45,14.45,0,0,1,3.86,9.75c0,2.56-.87,4.14-2.24,4.14a1.3,1.3,0,0,1-1.22-.79c-.29-.58-.29-.61-.4-3.38a24,24,0,0,0-3.34-12c-.22-.36-.29-.5-.29-.64a.27.27,0,0,1,.25-.29h0C112.48,54.72,113.71,55.87,115.5,58Z" transform="translate(0)" fill="#343434"/><path d="M175.55,47.77c1.08.76,1.62,1.44,1.62,2.09a1.12,1.12,0,0,1-1.19,1,10.2,10.2,0,0,1-1.83-.25,10,10,0,0,0-1.55-.11,10.33,10.33,0,0,0-4.79.79,8.3,8.3,0,0,0-4,4.65A22.21,22.21,0,0,0,162.34,64c0,4.36,2,6.44,6,6.44a22,22,0,0,0,2.3-.18,5.85,5.85,0,0,1,.72-.07,2.76,2.76,0,0,1,2.23,2.52c0,1.15-1,1.77-3,1.77a19,19,0,0,1-6.55-1.23c-3.31-1.26-4.93-3.92-4.93-8a22.62,22.62,0,0,1,1.47-7.49,19.74,19.74,0,0,1,4-6.3A1.87,1.87,0,0,0,165,51c0-.08-.11-.11-.18-.11A28,28,0,0,0,158.52,53a29.64,29.64,0,0,0-5.36,3,1.44,1.44,0,0,1-.9.36,5.19,5.19,0,0,1-3.64-2.7,5.88,5.88,0,0,1-.43-2.38c0-.18.08-.29.18-.29s.15,0,.33.4a3,3,0,0,0,2.66,1.44,12.84,12.84,0,0,0,3.71-.86c4.28-1.3,7.74-2.24,12.31-3.42s4.71-1.37,5.51-1.8A4.64,4.64,0,0,1,175.55,47.77Z" transform="translate(0)" fill="#343434"/><path d="M215.69,47.77c1.08.76,1.62,1.44,1.62,2.09a1.12,1.12,0,0,1-1.19,1,10.2,10.2,0,0,1-1.83-.25,10,10,0,0,0-1.55-.11,10.33,10.33,0,0,0-4.79.79,8.3,8.3,0,0,0-4,4.65A22.21,22.21,0,0,0,202.48,64c0,4.36,2,6.44,6.05,6.44a22,22,0,0,0,2.3-.18,5.85,5.85,0,0,1,.72-.07,2.76,2.76,0,0,1,2.23,2.52c0,1.15-1,1.77-2.95,1.77a19,19,0,0,1-6.55-1.23c-3.31-1.26-4.93-3.92-4.93-8a22.62,22.62,0,0,1,1.47-7.49,19.74,19.74,0,0,1,4-6.3,1.87,1.87,0,0,0,.36-.43c0-.08-.11-.11-.18-.11A27.23,27.23,0,0,0,198.66,53a29.64,29.64,0,0,0-5.36,3,1.44,1.44,0,0,1-.9.36,5.16,5.16,0,0,1-3.63-2.7,5.54,5.54,0,0,1-.44-2.38c0-.18.08-.29.18-.29s.15,0,.33.4a3,3,0,0,0,2.66,1.44,12.84,12.84,0,0,0,3.71-.86c4.28-1.3,7.74-2.24,12.31-3.42s4.71-1.37,5.51-1.8A4.64,4.64,0,0,1,215.69,47.77Z" transform="translate(0)" fill="#343434"/><path d="M232.9,58.32c-1.83,0-2.91,0-5.22.14l-1-1.29c3.13.14,4.47.18,6.23.18h8.6v-5.3h-7c-1,0-1.94,0-3.95.11l-.87-1.22c2.45.11,3.46.14,4.82.14h7V44l3.82.33c.86.07,1.19.25,1.19.75s-.26.65-.72.94l-.87.47v4.6h6.3l2.38-2.62,2.84,2.41c.4.36.54.57.54.83s-.18.35-.5.35H244.92v5.3h8.68l2.59-2.78L259.07,57c.36.29.47.47.47.76a.58.58,0,0,1-.55.61H244.93v6.3h6.7L254,62.1l2.52,2.19c.32.29.47.51.47.76a.51.51,0,0,1-.48.54H244.92v6.66a43.17,43.17,0,0,0,5.8.29,53.77,53.77,0,0,0,9.65-.69,10.28,10.28,0,0,0-2.16,3.75c-2.42.1-3.82.14-6.12.14-6.48,0-9.15-.36-11.56-1.55s-3.89-2.63-5.76-5.76a16.09,16.09,0,0,1-3.24,4.68,9.88,9.88,0,0,1-2.91,2.31.24.24,0,0,1-.25-.22c0-.18,0-.18.93-1.55,2.66-4,3.85-8,4.21-13.86l3.82,1.34c.68.21,1,.46,1,.86s-.25.65-.79.9l-.79.4c-.29.93-.76,2.3-1.44,4.1,2.16,2.55,4.17,4,6.22,4.28V58.32Z" transform="translate(0)" fill="#343434"/><path d="M278.55,49.9c-2.45-1.44-3.39-2.67-3.39-4.43,0-.9.22-1.59.51-1.59.14,0,.18.08.21.47.22,1.73,2.2,2.85,5.29,3a2.21,2.21,0,0,1,1.88.79,3.67,3.67,0,0,1,.75,2.09,1.34,1.34,0,0,1-1.26,1.37,4.86,4.86,0,0,1-1.51-.33,10.18,10.18,0,0,0-2.52-.32c-2.7,0-4.21,1.08-4.21,3a.79.79,0,0,0,.18.61,1.67,1.67,0,0,1,.43,1.12,12.42,12.42,0,0,1-.68,3.46c-.72,2.7-.83,3.16-.83,4.28s.32,1.84,1,1.84c.25,0,.47-.11.83-.47a14.18,14.18,0,0,1,9.57-4.43c3.75,0,6.34,2.41,6.34,6,0,4.25-3.46,7.2-10,8.57a38,38,0,0,1-7.13.79c-.32,0-.5-.1-.5-.28s.14-.22.57-.26A23.49,23.49,0,0,0,281.5,73c3.56-1.69,5.72-4.39,5.72-7a3.89,3.89,0,0,0-3.61-4.17h-.39c-2.16,0-4.14,1.22-5.9,3.64a12.49,12.49,0,0,0-1.8,3.38,1.3,1.3,0,0,1-1.19.83A4.25,4.25,0,0,1,271.56,68a3.87,3.87,0,0,1-.89-2.59,18.46,18.46,0,0,1,.53-4.25c.15-.83.44-3.67.44-4.29v-1.4a4.66,4.66,0,0,1,3.1-4.57A14.14,14.14,0,0,1,278,50Z" transform="translate(0)" fill="#343434"/><path d="M312.82,61c0,5.11.36,7.06,1.48,8.17s2.77,1.52,5.32,1.52a16.28,16.28,0,0,0,5-.69,3.33,3.33,0,0,1,1.12-.22A2.56,2.56,0,0,1,328.16,72c0,1.26-1.66,1.87-5.26,1.87-6.08,0-9.4-1-11-3.42-1.08-1.58-1.4-3.67-1.69-10.29a31.52,31.52,0,0,0-5.72,2.56,1.33,1.33,0,0,1-.54.21,5,5,0,0,1-2.23-1.44,4.3,4.3,0,0,1-1.19-2.59c0-.4.07-.61.22-.61s.1,0,.25.14a3.88,3.88,0,0,0,2.84.94c1.3,0,2.63-.25,6.3-1.19-.11-1.87-.14-2.63-.14-3.85-.07-1.84-.25-2.63-.76-3.2a2.9,2.9,0,0,0-1.87-.65.28.28,0,0,0-.18,0,.41.41,0,0,0-.22,0c-.07,0-.18-.07-.18-.14,0-.36,1.8-1.19,2.63-1.19,1.59,0,4.14,1.44,4.14,2.34a1.55,1.55,0,0,1,0,.43c-.14.57-.43,3.45-.54,5.51,1.34-.4,3.17-.83,4.58-1.16s1.9-.46,4.14-1c.1-1.69.18-3.31.18-4.14,0-3.06-.69-4.28-2.31-4.24-.18,0-.25,0-.25-.15,0-.36,1.8-1.29,2.48-1.29,1.12,0,3.57,1.69,3.57,2.48a.79.79,0,0,1-.11.29,5.72,5.72,0,0,0-.36,1.83c-.07.58-.14,1.44-.32,3.42l-.15,1.26,1.48-.32c1.44-.29,1.62-.36,1.62-.69a2.2,2.2,0,0,0-.58-1c-.18-.26-.22-.33-.22-.36a.17.17,0,0,1,.15-.15.42.42,0,0,1,.18.08A7.42,7.42,0,0,0,331.39,54a1.87,1.87,0,0,1,1.66.58,2.86,2.86,0,0,1,.58,1.73c0,.54-.44.9-1.08.9a7.67,7.67,0,0,1-1.84-.29,15,15,0,0,0-3.13-.33,28.84,28.84,0,0,0-3.35.22l-.11,1.51c-.36,5.26-.61,6.34-1.69,7.38a5.9,5.9,0,0,1-3.17,1.3c-.28,0-.39-.11-.46-.4a8.87,8.87,0,0,0-2.8-5.29c-.11-.11-.14-.15-.14-.26a.19.19,0,0,1,.18-.18c.07,0,.11,0,1.37.83,2.08,1.23,2.34,1.37,2.77,1.37s.75-.4.86-1.12c.29-1.65.54-3.78.61-5-2.52.36-3.45.61-8.74,2.3Z" transform="translate(0)" fill="#343434"/><path d="M353.36,51.77c.14-3.06-.83-4.68-3-4.93-.14,0-.21,0-.21-.15,0-.36,1.69-1.08,2.59-1.08A7.6,7.6,0,0,1,356,46.76c.87.58,1.3,1.16,1.3,1.73,0,.25,0,.25-.36,1.26a18.86,18.86,0,0,0-.72,4.72,9.58,9.58,0,0,0,5.9-1.8c2,.79,2.92,1.62,2.92,2.59s-1.4,1.26-4.18,1.26a22.2,22.2,0,0,1-4.6-.43,41.18,41.18,0,0,0,1.29,10c4.93,1.54,8,3.88,8,6a1.81,1.81,0,0,1-1.76,1.84c-.65,0-1.16-.29-2-1.12a26.68,26.68,0,0,0-4.17-3.63c-.11,2-.51,3.06-1.44,4a8.07,8.07,0,0,1-5.08,1.51c-4.14,0-7.67-2.16-7.67-4.72a3.67,3.67,0,0,1,2.09-3.13c1.69-.93,3.46-1.26,6.8-1.26a16.64,16.64,0,0,1,2,.07A117.17,117.17,0,0,1,353.36,51.77Zm1,16.19a12.53,12.53,0,0,0-4.57-.82c-2.38,0-4,.93-4,2.34s1.95,2.52,4.4,2.52c2.09,0,3.67-.87,4-2.24a5.52,5.52,0,0,0,.18-1.62V68Z" transform="translate(0)" fill="#343434"/><path d="M380.25,55.26a2.18,2.18,0,0,0,2,1.73,5.5,5.5,0,0,0,2.48-.83c3.6-1.73,5.25-2.27,7-2.27,3.64,0,5.87,2.81,5.87,7.34,0,5.94-3.49,11-9.54,13.57a29.77,29.77,0,0,1-5.58,1.8c-.18,0-.32-.07-.32-.18s.14-.25.54-.39a26.49,26.49,0,0,0,6.87-4.43,13.89,13.89,0,0,0,4.18-10.19c0-3.74-1.08-5.83-2.95-5.83a7.37,7.37,0,0,0-3.6,1.55,30,30,0,0,0-3.4,2.87c-.94.8-1.33,1-1.73,1-1.51,0-2.84-1.66-2.84-3.57,0-1,.47-2.37.83-2.37C380.18,55.08,380.21,55.15,380.25,55.26Zm4.5-4a.38.38,0,0,1-.15,0c-.1,0-.18-.07-.18-.1a7.2,7.2,0,0,1,1.91-1.52c.18-.14.29-.25.29-.35s-.07-.15-.43-.33a4.77,4.77,0,0,1-2.45-4c0-.79.18-1.44.36-1.44s.18.07.25.32c.87,2.16,2.52,3.06,5.69,3.06a9.87,9.87,0,0,0,1.22-.07,5.67,5.67,0,0,0,.65-.07c1,0,1.91,1.33,1.91,2.81,0,.75-.58,1.08-1.94,1.08a7.53,7.53,0,0,1-1.16-.07,10.17,10.17,0,0,0-1.65-.11,14.2,14.2,0,0,0-4.32.83Z" transform="translate(0)" fill="#343434"/></svg>