<svg id="Layer_1" data-name="Layer 1" xmlns="http://www.w3.org/2000/svg" viewBox="0 0 660.34 62.01"><title>map-subtext</title><path d="M525,65c.37-2.61,2.62-3.17,4.49-4.2,11.66-6.4,21.32-14.73,26.31-27.5,1-2.63,2.32-5.23.39-8-.78-1.14-.25-1.88,1.08-2,2.92-.16,4.33,2.08,6.05,3.85s.69,3-.22,4.79c-7.59,14.7-18.16,26.14-34,32.07-.43.16-.74.64-1.11,1Z" transform="translate(-2.79 -2.99)"/><path d="M47.46,32.63c-3.26.27-7.24.55-11.2.95-1.13.11-2.78.23-3.24,1-2.7,4.26-1.55,9-.9,13.5.47,3.2,3.34,4.19,6.46,4.37,4.05.23,7.92-.89,11.88-1.31,2.06-.23,4.29-.15,4.67,2.5s-1.81,3.1-3.86,3.48A41.76,41.76,0,0,1,34.9,56.7c-4.54-1-7.18-4-7.6-8.69-.09-1,0-2-.05-3,0-11,0-11-10.7-7.87-2.07.61-4.07,1.47-6.14,2.08a5.79,5.79,0,0,1-6.6-2.33c-.61-.78-1.33-1.67-.89-2.69.67-1.55,1.91-.7,3-.55,6.38.84,12.58-.5,18.7-1.89,4.37-1,2.45-4.85,2.38-7.55s-2.21-2.63-4.41-2.29c-2.93.47-6,1.05-8.49-1.4-.6-.58-1.19-1.26-.71-2.17.36-.69,1.06-.57,1.73-.53,7.78.39,15.09-1.64,22.29-4.26a8.32,8.32,0,0,1,2.89-.7c1.83,0,4.09.21,4.42,2.37s-2.08,2.13-3.53,2.67a18.67,18.67,0,0,1-2.9.74C34,19.57,31,24.81,32.46,29c.66,1.9,2.14,1.91,3.67,1.56,4.85-1.14,9.95-1,14.67-2.89a6.54,6.54,0,0,1,3.86-.51c2.5.68,6,1.56,5.67,4.51-.28,2.5-3.65,1.23-5.66,1.34S50.36,32.78,47.46,32.63Z" transform="translate(-2.79 -2.99)"/><path d="M352.22,40.14a90.06,90.06,0,0,0,14.36-17.6c2.22-3.73,4.65-7.42,1.93-12-.9-1.51.15-2,1.64-1.95,3.8.13,6.81,3.18,6.27,7-.37,2.59.78,3,2.72,2.67,2.43-.47,5.13-.7,7.16-1.94,3.92-2.41,6.21-.1,8.71,2.15,1.2,1.08,1.44,2.42,0,3.35-3.3,2.15-4.33,5.83-6.2,8.91C380.28,44.79,368.71,55.3,353.06,61c-1,.38-2.06,1.25-3.53.28.28-2.43,2.71-2.5,4.19-3.35,13.44-7.73,24.41-17.83,31.17-32,.67-1.41,2.24-2.89,1-4.58s-3.08-.49-4.65-.68c-6-.71-9.59,2.32-12.92,7.07C363.11,35.27,357.15,39.51,352.22,40.14Z" transform="translate(-2.79 -2.99)"/><path d="M122.8,57.81c-3.11-.23-6.44-.38-9.74-.73-6.78-.73-9.16-3.11-10.32-9.93s.47-13.61.25-20.43c-.11-3.67.05-7.28-2.58-10.38-1.81-2.13-.31-2.91,1.76-3a6.35,6.35,0,0,1,6.47,7.09c-.32,3.64-.79,7.27-1.27,10.89-.41,3.17,1.11,3.79,3.4,2.26,4.86-3.23,12-4,12.84-11.76.18-1.56,1.84-1.19,2.9-.74,2.41,1,5.55,1.77,6,4.67s-2.89,3.36-4.83,4.21a114.41,114.41,0,0,1-15.84,6c-5.88,1.57-5,5.83-4.8,9.86.24,4.24,2.83,6.71,7,7.08a32,32,0,0,0,12.85-1.23,14.83,14.83,0,0,1,3.85-1c2.85-.15,6.47-.13,6.86,3.23s-3.27,3-5.62,3.31C129,57.51,126,57.59,122.8,57.81Z" transform="translate(-2.79 -2.99)"/><path d="M447.81,35.85c3.66-.52,6.39,1.09,9.22,2.29,1.22.52,2.27,1.39,3.72,1.15,2.14-.34,12.7-10.46,13-12.7.42-3.19-2.05-2.91-3.95-2.88a96.83,96.83,0,0,0-26,4.13A33.23,33.23,0,0,1,438,29.4c-3.83.42-6.4-1.39-7.35-5.18-.39-1.55-.06-3,2-1.94,5.84,3,11.81.82,17.62.3,8.43-.74,16.79-2.28,25.17-3.54,2-.31,4.06-.43,5.77.79,2,1.42,5.08,2.23,5.3,4.9.25,3-3.28,2.68-5.05,3.95-5.39,3.88-10.87,7.63-16.35,11.4-1.77,1.21-2,2.47-.51,4.07a13.14,13.14,0,0,1,3.27,5.53,3.21,3.21,0,0,1-1.47,3.87,2.52,2.52,0,0,1-3.8-1.16C459.06,45.71,454.53,39.94,447.81,35.85Z" transform="translate(-2.79 -2.99)"/><path d="M606.17,58.64c4-2,7.76-3.84,11.4-5.91A55,55,0,0,0,642,25.4c1.85-4.5.82-5.83-4-5.42A96.65,96.65,0,0,0,619,23.44c-2.24.66-4.23.78-6.16-.62-1.58-1.14-3-2.75-2-4.6,1.08-2.07,2.54-.06,3.79.37,3,1,6,.58,8.89.1C630,17.6,636.76,17.82,643,15.1c2.42-1,8.32,2.31,9.11,4.66a2,2,0,0,1-.56,2.26c-3.33,3.18-4.76,7.55-7.05,11.38C636.6,46.63,625,55,610.3,59.05a19.2,19.2,0,0,1-2.92.52C607.16,59.59,606.91,59.22,606.17,58.64Z" transform="translate(-2.79 -2.99)"/><path d="M300.81,37c-10.32-.3-20.53.89-30.72,2.36-5.22.75-9.08-1.54-9.11-5.23,0-1.11-.14-2.81,1.73-1.93,6.4,3,13,1.27,19.57,1.22a224.56,224.56,0,0,0,26.78-2.24c2.13-.27,4.36-.58,6.3.69,1.22.81,2.68,1.79,2.21,3.54-.42,1.56-2,1.57-3.32,1.58C309.77,37,305.29,37,300.81,37Z" transform="translate(-2.79 -2.99)"/><path d="M170.23,53.08c10.06-7.26,21.42-13.23,21.19-28.38,2.59-.35,5.22,1.53,7.64,3.78a2.28,2.28,0,0,1,.41,3.18c-7.42,9.73-15.2,19-27.88,22.12C171.47,53.81,171.31,53.64,170.23,53.08Z" transform="translate(-2.79 -2.99)"/><path d="M207.94,23.35c8.66.34,21.34,11.65,22.66,19.49.39,2.38.45,4.92-2.44,5.82s-3.76-1.58-4.4-3.59A42.16,42.16,0,0,0,207.94,23.35Z" transform="translate(-2.79 -2.99)"/><path d="M656.3,17a7,7,0,0,1-7-6.88A6.9,6.9,0,0,1,656.52,3c4.11.11,6.65,2.85,6.6,7.11S660.41,17,656.3,17Zm.06-2.91c2-.4,3.83-1.49,3.86-4.07a3.73,3.73,0,0,0-3.66-4,3.53,3.53,0,0,0-4.07,3.44C652.21,12,653.51,13.54,656.36,14.09Z" transform="translate(-2.79 -2.99)"/><path d="M228.77,12.71a7.21,7.21,0,0,1-14.42-.14,7.21,7.21,0,1,1,14.42.14Zm-7.1,4.09c2.41-.51,4-1.76,3.94-4.31s-1.37-4.13-4-4-4.44,1.73-4.25,4.41C217.54,15.27,219.31,16.57,221.67,16.8Z" transform="translate(-2.79 -2.99)"/><path d="M535.91,24.48a10.3,10.3,0,0,1,9.75,7.17c.73,1.92.33,3.82-1.63,4.62-2.3.94-2.71-1.12-3.19-2.68C539.8,30.27,537.59,27.59,535.91,24.48Z" transform="translate(-2.79 -2.99)"/><path d="M523.79,29.94c4.73.23,8.45,2.23,10.59,6.4.81,1.56,1,3.81-1.19,4.69-2,.81-3.09-.8-3.64-2.41C528.41,35.25,526,32.82,523.79,29.94Z" transform="translate(-2.79 -2.99)"/><path d="M134.12,7.53A9.27,9.27,0,0,1,144,10c1.26,1.23,1.67,3.07.13,4.39s-2.73.23-3.86-.9C138.44,11.66,136.56,9.88,134.12,7.53Z" transform="translate(-2.79 -2.99)"/><path d="M126.78,10.8c3.85-.27,7.08.27,9.55,3.06,1.16,1.32,1.76,3,.22,4.38-1.38,1.22-2.68.44-3.79-.83C131,15.32,129.07,13.31,126.78,10.8Z" transform="translate(-2.79 -2.99)"/></svg>