<svg xmlns="http://www.w3.org/2000/svg" width="114.344" height="30.69" viewBox="0 0 114.344 30.69">
  <defs>
    <style>
      .cls-1 {
        fill: #333;
        fill-rule: evenodd;
      }
    </style>
  </defs>
  <path id="マップ" class="cls-1" d="M696.827,4703.09c1.654-1.22,1.726-1.26,2.122-1.51a6.845,6.845,0,0,1,2.337-1.05c0.792-.14,1.043-0.36,1.043-0.86a1.847,1.847,0,0,0-.971-1.37c-2.158-1.58-2.841-1.94-3.56-1.94a4.666,4.666,0,0,0-1.439.32c-1.331.4-1.583,0.43-7.733,1.15-6.078.79-9.531,1.15-11.186,1.15a2.944,2.944,0,0,1-2.7-1.33,0.3,0.3,0,0,0-.216-0.21c-0.18,0-.288.28-0.288,0.68a3.846,3.846,0,0,0,.864,2.48,4.4,4.4,0,0,0,2.481,1.23,2.256,2.256,0,0,0,.72-0.18,42.558,42.558,0,0,1,6.042-1.77,65.194,65.194,0,0,1,9.6-1.26c1.691,0,2.518.29,2.518,0.94,0,0.94-3.669,4.86-7.229,7.71a17.432,17.432,0,0,0-3.381-1.8,15.8,15.8,0,0,0-3.058-.94,0.352,0.352,0,0,0-.359.29,0.435,0.435,0,0,0,.323.29,15.753,15.753,0,0,1,7.086,7.2c0.611,1.37.9,1.65,1.618,1.65a1.376,1.376,0,0,0,1.475-1.22c0-1.4-1.151-3.21-3.093-4.9a30.032,30.032,0,0,0,3.309-2.16Zm28.742-4.21a0.309,0.309,0,0,0-.359.21,0.289,0.289,0,0,0,.215.25c1.3,0.58,2.878,3.1,3.2,5.08a0.907,0.907,0,0,0,.936.83,1.446,1.446,0,0,0,1.366-1.51C730.928,4701.61,727.871,4698.88,725.569,4698.88Zm13.7,3.89c0.755-.58.9-0.72,0.9-1.05s-0.4-.83-1.583-2.05a2.723,2.723,0,0,0-2.086-1.05c-0.611,0-1.043.15-1.043,0.4,0,0.11.072,0.18,0.324,0.25a1.486,1.486,0,0,1,.971,1.41,13.722,13.722,0,0,1-.576,2.63,21.8,21.8,0,0,1-2.23,4.5,31.382,31.382,0,0,1-8.236,8.03,25.983,25.983,0,0,1-5.395,2.8c-0.144.04-.216,0.08-0.216,0.18a0.5,0.5,0,0,0,.432.4,1.976,1.976,0,0,0,.36-0.07,5.3,5.3,0,0,1,.719-0.18C728.447,4717.46,736.036,4710.47,739.273,4702.77Zm-19.422-1.01c-0.288,0-.468.11-0.468,0.25s0.072,0.18.468,0.36c1.114,0.43,2.625,2.45,3.093,4.1,0.287,1.01.5,1.3,1.151,1.3a1.341,1.341,0,0,0,1.258-1.55,3.8,3.8,0,0,0-1.87-2.95A6.969,6.969,0,0,0,719.851,4701.76Zm62.119-3.42c0.684-.4.684-0.4,0.792-0.47a0.672,0.672,0,0,0,.575-0.54,1.293,1.293,0,0,0-.791-0.94c-0.072-.07-0.432-0.36-0.827-0.68-1.547-1.3-1.871-1.48-2.374-1.48a2.044,2.044,0,0,0-1.151.51,6.539,6.539,0,0,1-3.093.93c-3.417.47-8.165,0.97-9.531,0.97-1.331,0-2.59-.57-2.806-1.26-0.108-.25-0.144-0.32-0.252-0.32-0.251,0-.359.32-0.359,1.01a2.721,2.721,0,0,0,.827,1.91,4.819,4.819,0,0,0,2.05,1.08,2.023,2.023,0,0,0,.611-0.18,46.743,46.743,0,0,1,11.977-2.09,0.924,0.924,0,0,1,1.079.9,13.923,13.923,0,0,1-1.582,4.36,30.792,30.792,0,0,1-7.229,8.78,38.042,38.042,0,0,1-9.711,5.37c-0.432.14-.54,0.21-0.54,0.36a0.518,0.518,0,0,0,.5.36,1.665,1.665,0,0,0,.323-0.08,2.261,2.261,0,0,0,.468-0.1,29.8,29.8,0,0,0,9.675-4.14C775.353,4709.53,778.05,4706.15,781.97,4698.34Zm3.237-9.8a3.46,3.46,0,1,0,3.381,3.46A3.44,3.44,0,0,0,785.207,4688.54Zm-0.107,1.19a2.27,2.27,0,1,1-2.23,2.27A2.259,2.259,0,0,1,785.1,4689.73Z" transform="translate(-674.25 -4688.53)"/>
</svg>
