<svg xmlns="http://www.w3.org/2000/svg" viewBox="0 0 387.62 33.66"><defs><style>.cls-1{fill:#333;}</style></defs><g id="レイヤー_2" data-name="レイヤー 2"><g id="レイヤー_1-2" data-name="レイヤー 1"><path class="cls-1" d="M3.13,23.65a.81.81,0,0,1-.75.93,6.46,6.46,0,0,1-1.66.33c-.47,0-.72-.29-.72-.79V7.92L3.31,9.68h8.1v-9L14.94,1c.57,0,1,.32,1,.65a.92.92,0,0,1-.47.72l-.75.54V9.68h8.6l1.37-1.87,2.66,2.81a1.7,1.7,0,0,1,.58,1c0,.29-.22.54-.65.76l-.5.21V23.11c0,.54-.15.75-.58.9a10.92,10.92,0,0,1-1.94.29c-.44,0-.69-.29-.69-.83v-2H14.69V32.18a.83.83,0,0,1-.69,1,8.07,8.07,0,0,1-1.87.33c-.47,0-.72-.29-.72-.87V21.49H3.13Zm8.28-3.13V10.65H3.13v9.87Zm12.13,0V10.65H14.69v9.87Z"/><path class="cls-1" d="M38.41,18.47c2.88.14,3.31.14,5.9.18V7.16L48,8.78h5.22c0-2.62,0-3.27-.22-7.74l4.29.44a.61.61,0,0,1,.57.61.81.81,0,0,1-.36.65l-1.15.75c0,2.23,0,2.67.07,5.29h5.4l1.33-2.12,3.17,3a1.08,1.08,0,0,1,.4.76.79.79,0,0,1-.65.68l-.72.18v7.35h1.15l2.2-2.92,3,3.1a.41.41,0,0,1,.15.36c0,.25-.11.43-.22.43H56.19c.76,1.94,3.24,4.53,6.23,6.51,3.24,2,4.25,2.45,9.54,4-2.13,1.16-2.88,1.77-3.71,3.1-2.12-.68-7-4.1-8.64-6.08a20.83,20.83,0,0,1-4.17-7.09,16.65,16.65,0,0,1-4.5,8.13,22.63,22.63,0,0,1-8.86,4.54,21,21,0,0,1-3,.79c-.21,0-.32-.07-.32-.25s.11-.29,1.15-.69c7.34-2.91,11-6.77,12.35-13H44.64c-.47,0-1.48,0-2.63,0l-2.84.11Zm14,.18c.5-2.49.61-3.68.75-8.9H47.7v8.9Zm4-8.9a55.06,55.06,0,0,1-.68,8.9H62V9.75Z"/><path class="cls-1" d="M93.66,23.5c.18,0,.62,0,1.23-.1.11-1.3.18-3.1.18-5.69,0-4.54-.15-5.11-1.19-5.11a17.59,17.59,0,0,0-5.15,1.11.35.35,0,0,1-.28.08c-1.27,0-2.63-1.73-2.63-3.32,0-.36.07-.5.21-.5s.11,0,.26.25a3.52,3.52,0,0,0,2.48.83c.57,0,.57,0,5.87-.47A21.42,21.42,0,0,0,101.8,9,2.72,2.72,0,0,1,103,8.6c1.33,0,3.6,1.66,3.6,2.67a1,1,0,0,1-1,.9c-.28,0-.72,0-1.36-.11a11.9,11.9,0,0,0-1.33,0c-1.3,0-2.34,0-5.48.15,1.3.86,1.77,1.26,1.77,1.51a1.16,1.16,0,0,1-.15.5c-.57,1.59-.79,3.57-1,9l5.22-.58a20.1,20.1,0,0,0,3.92-.72,3.84,3.84,0,0,1,1-.22c1.44,0,4.1,2.09,4.1,3.21a1.25,1.25,0,0,1-1.26,1.08,6.25,6.25,0,0,1-1.08-.18,41.66,41.66,0,0,0-9.1-.9c-5.58,0-10.52.68-13.76,1.94a4.56,4.56,0,0,1-1.79.4,3.06,3.06,0,0,1-1.84-.69c-1.94-1.33-2.16-1.51-2.16-2.27s.14-1.11.36-1.11c.07,0,.14,0,.25.21.29.47,1.37.72,3.17.72,1.44,0,1.44,0,5.79-.32Z"/><path class="cls-1" d="M136.43,11.88a2,2,0,0,1-2,1.91c-.72,0-1-.29-1.55-1.37a10.5,10.5,0,0,0-5.25-4.83c-.29-.07-.4-.14-.4-.25,0-.29.9-.46,2.2-.46C132.94,6.88,136.43,9.39,136.43,11.88Zm16.38-4.65c0,.58-2,4-3.49,6.09A54,54,0,0,1,134,27.25a3.6,3.6,0,0,0-.68.47c-.22.18-.43.39-.69.57a1,1,0,0,1-.5.22A4.7,4.7,0,0,1,129.59,27c-1.37-1.3-1.87-2.06-1.87-2.85s.21-1.44.5-1.44c.11,0,.15,0,.33.36a2.91,2.91,0,0,0,2.12.87c1.94,0,5.29-1.77,9.21-4.86A79.53,79.53,0,0,0,152,7.42c.26-.29.4-.44.54-.44A.32.32,0,0,1,152.81,7.23Z"/><path class="cls-1" d="M172.93,23.15c0,1.25,0,2.44.07,2.87.11,1.48.15,2.7.15,3.17,0,1.84-.72,3.24-1.62,3.24S169,30.16,169,28.83a10.69,10.69,0,0,1,.36-2,91.12,91.12,0,0,0,.5-9.58c0-2.41-.18-9.39-.25-10.4-.18-2.23-.54-2.7-2.27-2.7-.18,0-.28-.07-.28-.25,0-.47,2.16-1.48,3.2-1.48a3.84,3.84,0,0,1,2.59,1.51,3.44,3.44,0,0,1,1,1.66c0,.25,0,.32-.5,1.4a25.91,25.91,0,0,0-.5,5.87c3.38.29,5.36.83,7.34,2.09,1.8,1.15,3,2.7,3,4a1.84,1.84,0,0,1-1.91,1.91,2.19,2.19,0,0,1-1.66-.75,9.91,9.91,0,0,1-1.15-1.7,12.66,12.66,0,0,0-5.65-4.82l.07,3.28,0,2.95Z"/><path class="cls-1" d="M216,24.08a25.89,25.89,0,0,1-9.4,6.73A20.06,20.06,0,0,1,201.12,32c-.26,0-.4-.11-.4-.29s.11-.25.4-.33A22.74,22.74,0,0,0,211.37,25a23.93,23.93,0,0,0,4.72-7.63,9.61,9.61,0,0,0,1-2.74c0-.43-.43-.65-1.19-.65a47.26,47.26,0,0,0-11.05,2.45c-1.15.54-1.15.54-1.4.54-1.55,0-3.53-2.09-3.53-3.71,0-.57.11-.86.33-.86s.18.07.32.32a3.69,3.69,0,0,0,3,1.19,91.39,91.39,0,0,0,11.16-1.48,8.8,8.8,0,0,0,2.77-.86c1-.43,1.16-.5,1.41-.5.5,0,1.11.43,2.73,2.05.79.79.79.79.79,1.11a.66.66,0,0,1-.14.4,1.07,1.07,0,0,1-.43.25,2.55,2.55,0,0,0-.79.47C219,19.83,217.67,22.06,216,24.08ZM203.28,6.16a4,4,0,0,0,2.59.72,32.27,32.27,0,0,0,6.44-1,6.41,6.41,0,0,0,1.91-.72c.57-.32.75-.39,1-.39,1.26,0,3.35,1.26,3.35,2.05,0,.43-.43.68-1.3.83-1.55.18-2.66.36-4.43.72a34.67,34.67,0,0,1-5.93.86,3.81,3.81,0,0,1-3.1-1.37,4.87,4.87,0,0,1-1-1.72A.23.23,0,0,1,203,6C203.1,6,203.13,6,203.28,6.16Z"/><path class="cls-1" d="M246.58,11.88a2,2,0,0,1-2,1.91c-.72,0-1-.29-1.55-1.37a10.5,10.5,0,0,0-5.25-4.83c-.29-.07-.4-.14-.4-.25,0-.29.9-.46,2.2-.46C243.09,6.88,246.58,9.39,246.58,11.88ZM263,7.23c0,.58-2,4-3.49,6.09a54,54,0,0,1-15.34,13.93,3.6,3.6,0,0,0-.68.47c-.22.18-.43.39-.69.57a1,1,0,0,1-.5.22A4.74,4.74,0,0,1,239.74,27c-1.37-1.3-1.87-2.06-1.87-2.85s.21-1.44.5-1.44c.11,0,.15,0,.33.36a2.91,2.91,0,0,0,2.12.87c1.94,0,5.29-1.77,9.22-4.86A80.48,80.48,0,0,0,262.17,7.42c.25-.29.39-.44.54-.44A.32.32,0,0,1,263,7.23Z"/><path class="cls-1" d="M288,7.92a4.16,4.16,0,0,0,2.27-1c.65-.51.94-.69,1.26-.69s1.26.54,2.63,1.66c.79.65,1,.93,1,1.22s-.32.61-1.15,1.12a60.64,60.64,0,0,1-4.64,8.06,16.39,16.39,0,0,1,6.84,3.2c2.12,1.7,3.35,3.68,3.35,5.37a2.26,2.26,0,0,1-2.2,2.23c-.86,0-1.26-.43-1.94-2.09a16.75,16.75,0,0,0-6.52-8,32,32,0,0,1-5.29,5.76,28.6,28.6,0,0,1-9.54,5.22,8.4,8.4,0,0,1-1.76.43c-.18,0-.33-.11-.33-.25s.22-.33,1.19-.76a32,32,0,0,0,11.59-9.83,36,36,0,0,0,4.29-7.56,10,10,0,0,0,.86-2.48c0-.29-.22-.47-.58-.47a4.17,4.17,0,0,0-1.44.33,48.09,48.09,0,0,0-6.37,2.26,3.21,3.21,0,0,1-1.08.36,4.56,4.56,0,0,1-2-1.15,2.42,2.42,0,0,1-.87-1.69c0-.54.22-1.15.4-1.15s.14,0,.32.32a2.68,2.68,0,0,0,2.2.79c1,0,1.51-.07,5.29-.86Z"/><path class="cls-1" d="M342.58,7.7l3,2.77a.85.85,0,0,1,.29.62.48.48,0,0,1-.4.5h-7v18.5c0,1.15-.29,1.59-1.55,2.38a4.72,4.72,0,0,1-2.19.79c-.54,0-.72-.22-.72-1,0-.94-.08-1-.58-1.23-.86-.32-2.56-.86-4-1.29-.57-.18-.72-.25-.72-.47s0-.32,2.38-.32c.29,0,1.12,0,1.94,0h.65c1.41,0,1.41,0,1.41-1V11.59h-7.49c-1,0-1.3,0-6.26.18l-.62-.83a.83.83,0,0,1-.39.4l-.54.25V32.5c0,.54-1.41,1.16-2.56,1.16-.43,0-.57-.15-.57-.51V15.87c-2,2.92-4.29,5.58-4.79,5.58a.32.32,0,0,1-.33-.28,1.21,1.21,0,0,1,.26-.58c3.7-5.9,5.65-11.45,7.12-20.59l4.14,1.69a.9.9,0,0,1,.65.87c0,.32-.21.57-.65.72l-1,.36c-.62,2-1.3,3.78-2.34,6.4l.39.07a1.47,1.47,0,0,1,.69.29l3.56.15c1.44,0,2.77.07,3.24.07h7.49V.94l4.14.5c.46.07.72.29.72.68a.8.8,0,0,1-.51.76l-1,.61v7.13h1.73Zm-14.9,8.35c2.05,1.3,3.24,3,3.24,4.72a2,2,0,0,1-2,2.09c-.8,0-1.19-.44-1.48-1.59-.76-2.84-1.55-4.46-2.74-5.5-.39-.36-.54-.54-.54-.69a.32.32,0,0,1,.33-.32A10,10,0,0,1,327.68,16.05Z"/><path class="cls-1" d="M353.17,29.52a38.49,38.49,0,0,0,5.11-2.42v-10c-2.12,0-2.45,0-4.36.11L353.35,16c2.3.11,2.66.11,5,.14l1.23-2,2.59,2.41a2.1,2.1,0,0,1,.79,1.19c0,.32-.33.61-.79.79l-.62.21v8.1a9.75,9.75,0,0,0,5,2.34,39.15,39.15,0,0,0,8.39.72c2.52,0,5.83-.11,7.23-.25,4.36-.47,4.36-.47,5.44-.54a10.47,10.47,0,0,0-1.19,1.8,9.3,9.3,0,0,0-.57,1.76c-2.34.18-4.32.26-8.36.26-5.72,0-9.14-.44-11.66-1.48-2.09-.86-2.88-1.44-5.58-4.28l-.54.64c-.32.44-.64.9-1,1.34l-1.18,1.47c-.07.07-.22.33-.47.69l-.07.57c-.07.54-.29.83-.61.83a1,1,0,0,1-.72-.36Zm6.62-26.14a4.48,4.48,0,0,1,2.63,3.85,1.87,1.87,0,0,1-1.84,2.06c-1,0-1.4-.44-1.8-1.91-.64-2.23-1.54-3.67-2.7-4.36-.43-.28-.54-.36-.54-.5s.15-.29.4-.29A12.31,12.31,0,0,1,359.79,3.38Zm11.09,10.15c-.15,5.26-.65,7.6-2.27,10-1.26,1.8-3.67,4-4.46,4-.22,0-.33-.1-.33-.25s.11-.36.47-.83c2.52-2.95,3.46-6.37,3.46-12.45,0-3.85-.15-7.13-.51-11.23l3.85,1.94A36.36,36.36,0,0,0,381.68.47l2.66,2.66a.84.84,0,0,1,.29.61.57.57,0,0,1-.61.62h-.11l-1.37-.15c-4.21.69-7.38,1.12-11.66,1.51v6.84h10.8l2.48-2.66,2.77,2.23c.4.36.69.72.69.94s-.36.46-.87.46H379.7v14c0,.5-.18.75-.8,1a5.08,5.08,0,0,1-1.69.39.76.76,0,0,1-.86-.82V13.53Z"/></g></g></svg>