<svg xmlns="http://www.w3.org/2000/svg" viewBox="0 0 186.94 32.72"><defs><style>.cls-1{fill:#333;}</style></defs><g id="レイヤー_2" data-name="レイヤー 2"><g id="レイヤー_1-2" data-name="レイヤー 1"><path class="cls-1" d="M17.64,1c.32.15.5.33.5.62a.59.59,0,0,1-.36.5l-.72.43c3,4.61,8.89,9.15,15.88,12.24a8.78,8.78,0,0,0-2.88,2.41C23.58,12.92,19.8,9,16.52,3.24a45.66,45.66,0,0,1-8.31,10C5,16.2,1.26,18.86.29,18.86A.28.28,0,0,1,0,18.61c0-.22.32-.5,1.73-1.51A43.7,43.7,0,0,0,14.69,0ZM14.9,22.5h-5c-.43,0-1.4,0-2.77.07-.5,0-1.51,0-2.95.07l-.5-1.19c1.54,0,2.91.08,3.42.11l2.8.07h5V15.37H12.27L8,15.48l-.54-1.12c2.81.07,3.93.11,4.82.15h7.31l2-2.09L24,14.25c.29.22.4.4.4.62a.47.47,0,0,1-.47.5H17.53v6.26H23l2.23-2.23,2.59,1.91a1,1,0,0,1,.47.76c0,.28-.18.43-.54.43H17.53v7.3h9.39l2.38-2.41,2.77,2.09a.91.91,0,0,1,.36.68.47.47,0,0,1-.47.51H7.27c-.5,0-1.69,0-3,.07l-3.52.11L.18,29.59l4.07.14,3,.07H14.9Z"/><path class="cls-1" d="M51.8,1.51a.72.72,0,0,1,.43.65c0,.36-.18.58-.61.76l-.79.32a61.16,61.16,0,0,1-2,5.8l.61.14a.53.53,0,0,1,.43.5.69.69,0,0,1-.21.47l-.4.43V31.32c0,.54-.07.68-.32.9a2.76,2.76,0,0,1-1.48.5c-.43,0-.65-.18-.65-.47V13.35a32.32,32.32,0,0,1-4.42,6.52c-.4.5-.54.61-.72.61a.24.24,0,0,1-.22-.21A3.77,3.77,0,0,1,42,19,49.12,49.12,0,0,0,48.46.32Zm9,11.7A45.77,45.77,0,0,1,55,21c-2,2.27-4.28,4.43-4.71,4.43a.3.3,0,0,1-.33-.26c0-.17.29-.57,1.15-1.54A61.15,61.15,0,0,0,59.94,9.5H56.81c-1.73,0-2.92,0-5.84.15l-.43-1.19L54,8.57c1.16.07,2.16.07,2.78.07h4V.25l2.88.36a.75.75,0,0,1,.68.61,1,1,0,0,1-.36.62l-.79.64V8.64h6.19l2.34-2.23,2.91,2.41a.37.37,0,0,1,.18.32c0,.18-.14.36-.25.36H63.83A20.18,20.18,0,0,0,75.38,21.81a6.65,6.65,0,0,0-2.92,2.56A27.71,27.71,0,0,1,63.18,10V23.25h2.23l1.87-2,2.52,2a.69.69,0,0,1,.22.51.35.35,0,0,1-.36.36H63.18v7c0,.58,0,.65-.33.86a3,3,0,0,1-1.58.51c-.36,0-.5-.15-.5-.47V24.12H59.51c-1.12,0-2.06,0-4.5.11l-.33-1.08c2.27.1,3.06.1,4.83.1h1.26Z"/><path class="cls-1" d="M103.68,18.25a32.66,32.66,0,0,1-3.31,2.16c1.94,1.69,3.09,3.49,3.09,4.9A1.37,1.37,0,0,1,102,26.53c-.72,0-1-.29-1.62-1.66a15.82,15.82,0,0,0-7.1-7.2c-.21-.1-.32-.18-.32-.28a.35.35,0,0,1,.36-.29,16.38,16.38,0,0,1,3.06.93,18.42,18.42,0,0,1,3.38,1.8c3.57-2.84,7.24-6.76,7.24-7.7,0-.65-.83-.93-2.52-.93a63.89,63.89,0,0,0-9.61,1.26,42.75,42.75,0,0,0-6,1.76,2.27,2.27,0,0,1-.72.18,4.41,4.41,0,0,1-2.48-1.23,3.81,3.81,0,0,1-.87-2.48c0-.4.11-.68.29-.68s.15.07.22.21A2.94,2.94,0,0,0,88,11.55,112.06,112.06,0,0,0,99.14,10.4c6.16-.72,6.41-.75,7.74-1.15a4.71,4.71,0,0,1,1.44-.32c.72,0,1.4.36,3.56,1.94.69.54,1,.9,1,1.37s-.26.72-1,.86a6.87,6.87,0,0,0-2.34,1.05c-.39.25-.47.28-2.12,1.51Z"/><path class="cls-1" d="M127.55,15.84a3.78,3.78,0,0,1,1.87,2.95c0,.94-.5,1.55-1.26,1.55s-.87-.29-1.15-1.3c-.47-1.65-2-3.67-3.1-4.1-.39-.18-.47-.22-.47-.36s.18-.25.47-.25A7,7,0,0,1,127.55,15.84Zm-1.87,15.69a7,7,0,0,0-.72.18,1.49,1.49,0,0,1-.36.07.5.5,0,0,1-.44-.39c0-.11.08-.15.22-.18a26.15,26.15,0,0,0,5.4-2.81,31.26,31.26,0,0,0,8.24-8,21.08,21.08,0,0,0,2.23-4.5,13.57,13.57,0,0,0,.58-2.62,1.49,1.49,0,0,0-1-1.41c-.25-.07-.33-.14-.33-.25s.44-.39,1.05-.39a2.72,2.72,0,0,1,2.09,1c1.18,1.22,1.58,1.73,1.58,2s-.14.47-.9,1C140.11,23,132.51,30,125.68,31.53ZM135,16.31a1.45,1.45,0,0,1-1.37,1.51.91.91,0,0,1-.94-.83c-.32-2-1.9-4.5-3.2-5.07-.14-.08-.21-.15-.21-.26s.14-.21.35-.21C131.94,11.45,135,14.18,135,16.31Z"/><path class="cls-1" d="M169,25.16a29.67,29.67,0,0,1-9.69,4.14,2.59,2.59,0,0,1-.46.11,2.87,2.87,0,0,1-.33.07c-.21,0-.5-.18-.5-.36s.11-.22.54-.36a38.44,38.44,0,0,0,9.72-5.36,30.8,30.8,0,0,0,7.23-8.79,13.61,13.61,0,0,0,1.59-4.35c0-.58-.44-.9-1.08-.9a46.84,46.84,0,0,0-12,2.09,2,2,0,0,1-.61.18,4.81,4.81,0,0,1-2.05-1.08,2.72,2.72,0,0,1-.83-1.91c0-.68.11-1,.36-1s.14.07.25.33c.22.68,1.48,1.25,2.81,1.25s6.12-.5,9.54-1a6.53,6.53,0,0,0,3.09-.93c.79-.47.87-.51,1.15-.51.51,0,.83.18,2.38,1.48.39.32.76.61.83.68.61.44.79.65.79.94s-.15.36-.58.54l-.79.47C176.4,18.72,173.7,22.1,169,25.16Zm18-20.59a3.46,3.46,0,1,1-3.38-3.45A3.45,3.45,0,0,1,186.94,4.57Zm-5.72,0a2.27,2.27,0,1,0,2.23-2.27A2.26,2.26,0,0,0,181.22,4.57Z"/></g></g></svg>