<svg xmlns="http://www.w3.org/2000/svg" viewBox="0 0 520.31 143.79"><defs><style>.cls-1{fill:#fff;}</style></defs><title>top-title</title><g id="Layer_2" data-name="Layer 2"><g id="Layer_1-2" data-name="Layer 1"><path class="cls-1" d="M18.55,41.72C33,44.94,30,53.77,25.55,51c-1.12-2.66-4.27-6.1-7-8.2V62.45c0,.49-1.75,1.54-3.36,1.54h-.84V45.37A45.78,45.78,0,0,1,.84,59.58L0,58.46A48.65,48.65,0,0,0,12.67,39.2H1.61l-.56-2h13.3v-9.8l6.79.7c-.14,1-.84,1.61-2.59,1.89v7.21h5l2.73-3.71a59.29,59.29,0,0,1,5.25,4.69,1.58,1.58,0,0,1-1.68,1.05H18.55ZM2.38,28.07c9.73-4.13,18.2-10.5,23.59-17.5H5.11l-.56-2H30V0l7.21.77c-.21,1-.84,1.68-2.52,1.89V8.54H52.44l3.15-4.06s3.57,2.87,5.81,5c-.14.77-.84,1.12-1.82,1.12H37.17c6.37,6.3,17.3,11.62,26.33,14l-.07.7a4.45,4.45,0,0,0-3.78,3.5c-9.11-3.5-18.91-10.15-24.51-18.2h-.42V29.4c0,.49-2,1.33-3.78,1.33H30V12.46C23.66,20,14.14,25.62,3.08,29.33ZM50.06,39.2a37.19,37.19,0,0,0,15.82,16l-.07.63a4.7,4.7,0,0,0-3.71,3.64c-5.67-4.2-10.57-11.13-13.52-19.82v23c0,.56-1.82,1.4-3.5,1.4h-.91V43.68A48.92,48.92,0,0,1,24.71,60.56l-.63-1.19A49.36,49.36,0,0,0,41.79,39.2H32.06l-.56-2H44.17V27.51l6.94.77c-.15.91-.78,1.61-2.53,1.82v7.07H55.8l3.08-4.06s3.57,2.94,5.74,5c-.14.7-.77,1.05-1.75,1.05Z"/><path class="cls-1" d="M100.1,57.34c17.15-3,25.42-11.84,25.42-24.51,0-12.46-9.25-20.44-20.8-20.44-.84,0-1.68.07-2.52.14,1.61,2.24,3,4.69,3,7.42A35.09,35.09,0,0,1,103,31.22c-2.94,8.4-11.06,22-18.2,22-4.69,0-9.59-7.42-9.59-16A26.89,26.89,0,0,1,84.56,17.5,30.26,30.26,0,0,1,105,10c14.42,0,25.56,9.45,25.56,23.94,0,11.63-7.28,23.53-30.18,25ZM99.61,13a26.63,26.63,0,0,0-13.23,6.93,22.52,22.52,0,0,0-7.21,16.17c0,6.72,3.08,11.83,6,11.83,4.62,0,11.06-11.06,13.93-17.71a33,33,0,0,0,2.52-10.78A12.22,12.22,0,0,0,99.61,13Z"/><path class="cls-1" d="M150.85,12.6a16.09,16.09,0,0,1,4.76-1.26c2.87,0,7.35,3.22,7.35,4.9,0,1.19-1.47,2-1.68,4.27-.35,3.85-.56,23-.56,29.48,0,.55.14.77.7.63,12.67-4.07,28.91-15.2,38.44-25.28l1.33,1.33c-8.61,11.55-22,21.42-36.9,28.57-2.17,1-2.31,2.73-3.78,2.73-1.68,0-5-3.85-5-5.39,0-1,1.12-1.89,1.19-4.49.14-4.27.28-26-.14-31.22-.07-1.19-.77-2.17-5.6-2.94Z"/><path class="cls-1" d="M224.56,11.62c1.19,1.68,2.52,4.2,4.83,4.2,3.85,0,17.64-2.45,21.49-3.43,1.47-.42,2.31-1.75,3.29-1.75,2.1,0,6.66,3.64,6.66,5.18s-2.11,2-3,3.36a118.33,118.33,0,0,1-11.63,15.89C257.46,40.18,269,48,269,53.77a2.33,2.33,0,0,1-2.38,2.59c-1.89,0-2.87-2.24-6.58-6.44a62.46,62.46,0,0,0-15.48-13.1c-6.44,6.79-16.38,15.34-29.68,20.66l-1.05-1.75c16.45-8.55,33-25,39.48-39.35.35-.91-.07-1-.84-1-5,.77-14.7,3.15-18.55,4.13-2.17.56-2.45,1.82-4.13,1.82-2,0-4.83-3-5.67-4.83a12,12,0,0,1-1-4.27Z"/><path class="cls-1" d="M300.58,6.44a21.35,21.35,0,0,1,4.48-.84c2.94,0,7.7,2.66,7.7,4.27,0,1.4-1.26,1.68-1.54,4-.35,3.36-.49,8.47-.56,12.32,6.79,1.54,13.44,4,17.3,6.44,2.1,1.33,3.92,3.08,3.92,5.25a2.24,2.24,0,0,1-2.25,2.38c-2.3,0-3.08-2.38-7.28-5.6a54.89,54.89,0,0,0-11.69-6c-.07,4.83-.14,16.31-.07,23.74.07,3.08.21,5.18.21,6.37,0,1.82-.7,2.66-2.24,2.66-2.31,0-3.5-3.85-3.5-6.23,0-1.54.63-2.8.91-5.46.56-5.19.56-16.67.56-22,0-5.6,0-13.23-.42-16.73-.21-2.24-1.75-2.66-5.46-3.08Z"/><path class="cls-1" d="M360.22,22.4l1.33-.63c1.47,2.17,2.66,3.78,4.69,3.78,4.13,0,24.5-2.66,29.4-3.36,2-.28,2.6-1.33,3.78-1.33,2.11,0,6.38,3.57,6.38,5.32,0,1.33-2.73,2.1-3.57,3.85-7,13.72-17.44,24.93-35.57,31.86l-1-1.61c15.54-8,26.74-20.1,32.28-33.82.28-.84.07-1.26-.84-1.12-5.68.56-21,2.8-25.77,3.78-2.17.49-3.15,1.75-4.69,1.75S361.9,28,361.2,26.32A16.92,16.92,0,0,1,360.22,22.4Zm35.07-11.06c-5.18,1-13.93,2.66-20.16,2.66-3.57,0-5.53-2-7.84-5.67l1-.91c2.66,2,4.48,2.8,6.72,2.8a50.94,50.94,0,0,0,11.41-1.61c4.13-.91,5-2,6.51-2,3,0,5.4,1,5.4,2.66C398.38,10.22,397.54,10.85,395.29,11.34Z"/><path class="cls-1" d="M479.37,17.43,481,18.48c-8.4,14.91-21.43,26.11-36.76,35.92-1.4.84-2.17,2.59-3.71,2.59-2.73,0-6.93-3.29-8.33-5.39A15,15,0,0,1,430.71,47l1.12-.7c2.1,2.32,4.34,4.56,6.58,4.56C443.8,50.9,469.42,32.34,479.37,17.43Zm-47.05-6.58c8,2.24,17.64,7,17.64,12.39a2.39,2.39,0,0,1-2.45,2.59c-1.12,0-2-.77-3.85-2.94-3.36-4.06-6-6.51-12.18-10.57Z"/><path class="cls-1" d="M55.38,94.85c-.14,6.65-.14,13.44-.14,20.37v3.85c0,6.79,0,13.59.14,20.38l7.28.7v2.52H42.42v-2.52l6.87-.7c.13-6.73.07-13.52.13-20.17l.08-21.07L31.85,142.67H29L10.64,98.49c.14,6.65.35,15.89.35,16v24.86l6.79.84v2.52H.91v-2.52l6.79-.84.07-44.39L.7,94.08V91.63h13L31.57,135,48.79,91.63H62.66v2.45Z"/><path class="cls-1" d="M116,140.15v2.52H95.76v-2.52l7.7-.77-4.62-13.94h-18l-4.55,13.8,7.35.91v2.52H66.85v-2.52l6.3-.84L89.32,91.14h3.92l16.45,48.31ZM97.86,122.57l-8-24.22-8,24.22Z"/><path class="cls-1" d="M164.85,140.15v2.52a20.13,20.13,0,0,1-5.39.7c-4.55,0-6.37-1.26-7.21-4.41l-3.5-12.61c-1.61-6.09-4.06-7.42-10.5-7.42h-4.69c0,7.21,0,13.86.21,20.45l7.28.77v2.52H120.26v-2.52l7.28-.77c.21-6.66.21-13.45.21-20.31v-3.85c0-6.79,0-13.65-.21-20.37l-7.28-.77V91.63h20.86c11.41,0,18.06,4.83,18.06,13.37,0,6.16-4.41,11.48-12.81,13,4.34,1,6.65,3.57,8.4,9.1l3.78,12.4Zm-24.36-24c8.19,0,12.6-4.76,12.6-11.2,0-6.65-3.78-10.43-12.11-10.43h-7.21c-.21,6.72-.21,13.51-.21,21.63Z"/><path class="cls-1" d="M211,128.94,210.77,140a29.68,29.68,0,0,1-15.19,3.78c-15.26,0-25.62-11-25.62-26.68,0-15.47,10.85-26.67,25.62-26.67a27.72,27.72,0,0,1,14.49,3.78l.28,11H206.5l-1.68-9.45a17.53,17.53,0,0,0-8.47-2.17c-11.13,0-19.53,8.54-19.53,23.52,0,15.13,7.91,23.53,19,23.53a21.8,21.8,0,0,0,9.66-2.17l1.68-9.53Z"/><path class="cls-1" d="M263.62,94.85c-.14,6.65-.14,13.44-.14,20.37v3.85c0,6.72,0,13.59.14,20.31l7.35.77v2.52H250.11v-2.52l7.28-.7c.14-6.58.14-13.45.14-21.64H231.35c0,8.12,0,15,.21,21.57l7.28.77v2.52H218.05v-2.52l7.28-.77c.21-6.66.21-13.45.21-20.31v-3.85c0-6.79,0-13.65-.21-20.37l-7.28-.77V91.63h20.79v2.45l-7.28.77c-.21,6.51-.21,13.23-.21,20h26.18c0-6.72,0-13.44-.14-20l-7.28-.77V91.63H271v2.45Z"/><path class="cls-1" d="M317.52,129.43,317,142.67H278.18v-2.52l7.28-.77c.21-6.66.21-13.45.21-20.31v-3.85c0-6.79,0-13.65-.21-20.37l-7.28-.77V91.63h37.45l.49,13.16h-3.43L310.8,94.71H291.69c-.21,6.58-.21,13.44-.21,20.58h12.25l1-7.56h2.87v17.71h-2.87l-1-7.35H291.48c0,7.77,0,14.63.21,21.43H312.2L314,129.43Z"/><path class="cls-1" d="M368.62,140.15v2.52a20.13,20.13,0,0,1-5.39.7c-4.55,0-6.37-1.26-7.21-4.41l-3.5-12.61c-1.61-6.09-4.06-7.42-10.5-7.42h-4.69c0,7.21,0,13.86.21,20.45l7.28.77v2.52H324v-2.52l7.28-.77c.21-6.66.21-13.45.21-20.31v-3.85c0-6.79,0-13.65-.21-20.37L324,94.08V91.63h20.86C356.3,91.63,363,96.46,363,105c0,6.16-4.41,11.48-12.81,13,4.34,1,6.65,3.57,8.4,9.1l3.78,12.4Zm-24.36-24c8.19,0,12.6-4.76,12.6-11.2,0-6.65-3.78-10.43-12.11-10.43h-7.21c-.21,6.72-.21,13.51-.21,21.63Z"/><path class="cls-1" d="M419.58,140.15v2.52H399.35v-2.52l7.7-.77-4.62-13.94h-18l-4.55,13.8,7.35.91v2.52h-16.8v-2.52l6.3-.84,16.17-48.17h3.92l16.45,48.31Zm-18.13-17.58L393.4,98.35l-8,24.22Z"/><path class="cls-1" d="M473.06,94.08l-6.51.91-.07,48.24h-2.31L433,100l.07,39.21,8.12.91v2.52h-18v-2.52l6.58-.84.07-43.69-.63-.91L423.5,94V91.63h10.92l29,40.54-.07-37.11-8.19-1V91.63h17.92Z"/><path class="cls-1" d="M502,94.71c-.21,6.65-.21,13.51-.21,20.51v3.85c0,6.72,0,13.59.21,20.31l8,.77v2.52H487.75v-2.52l8.13-.77c.14-6.66.14-13.45.14-20.31v-3.85c0-6.86,0-13.79-.14-20.51H483.06l-2,10.22h-3.5l.56-13.3h41.45l.7,13.3h-3.5l-2-10.22Z"/></g></g></svg>