<svg class="svg-sprite" id="sprite-marcherant-dinner-buffet-title" viewBox="0 0 506.282 57.85"><title>marcherant-dinner-buffet-title</title><path d="M45.555 0c-1.984 0-2.944.19-2.944.64a.435.435 0 00.448.39 9.9 9.9 0 015.759 4.41c1.216 1.98 1.408 2.18 2.56 2.18a2.6 2.6 0 002.688-2.56c0-2.63-4.096-5.06-8.511-5.06zm-6.592 4.87c-1.536 0-2.112.12-2.112.57a.485.485 0 00.32.39 9.411 9.411 0 015.44 4.86c.768 1.6 1.152 1.92 2.3 1.92a2.406 2.406 0 002.559-2.5c.004-2.75-4.027-5.24-8.507-5.24zM9.781 9.86a.557.557 0 00-.384.51 8.856 8.856 0 001.792 3.45 5.161 5.161 0 004.1 1.86c2.752 0 7.871-.83 15.935-2.62 3.455-.77 4.735-1.35 4.735-2.24 0-.77-.7-1.6-1.984-2.37a10.365 10.365 0 00-3.327-1.15 3 3 0 00-1.152.32 28.427 28.427 0 01-3.9 1.6 41.754 41.754 0 01-11.455 2.11 6.311 6.311 0 01-4.16-1.35.342.342 0 00-.2-.12zm13.311 14.65a2.654 2.654 0 01.512 1.6c0 3.52-2.176 9.54-5.119 14.34-3.2 5.18-8.512 10.49-12.608 12.6-3.071 1.6-3.071 1.6-3.071 1.86a.411.411 0 00.512.38c.96 0 6.975-2.36 9.343-3.71 7.935-4.41 14.271-12.67 17.791-23.04.768-.83.96-1.08.96-1.47 0-.51-.576-1.09-3.136-3.01 4.1-.32 4.991-.38 6.527-.38a67.172 67.172 0 018.7.7 10.091 10.091 0 001.664.2 2.142 2.142 0 002.367-1.86c0-1.09-.64-1.79-2.623-3.01a11.332 11.332 0 00-4.352-1.98c-2.624 1.6-4.416 2.11-9.791 2.94-5.184.77-22.911 2.63-25.151 2.63-2.687 0-3.9-.52-4.991-2.05a1.314 1.314 0 00-.64 1.21 4.419 4.419 0 001.6 3.2c1.408 1.28 3.775 2.5 4.863 2.5a3.441 3.441 0 001.024-.19c3.465-1.47 8.265-2.5 15.619-3.46zm58.881 22.98c-.064.64-.064 1.21-.128 1.66a17.413 17.413 0 01-.9 3.2 3.281 3.281 0 00-.32 1.28c0 1.15 3.264 4.22 4.544 4.22 1.216 0 2.048-1.28 2.048-3.07 0-.64-.064-1.92-.128-3.45 0-.77-.128-3.08-.192-6.98-.192-6.91-.192-6.91-.192-7.42a14.978 14.978 0 01.384-3.91 2.379 2.379 0 00.512-1.21c0-.51-.448-.9-1.472-1.35-.768-.38-1.088-.51-1.792-.89 1.92-1.99 4.608-4.99 6.4-7.17.7-.83 1.024-1.15 1.152-1.28a3.535 3.535 0 011.024-.77 1.251 1.251 0 00.832-1.09c0-.76-.832-1.85-2.624-3.77-1.727-1.73-2.815-2.31-4.543-2.31-1.088 0-1.664.2-1.664.58a.531.531 0 00.448.45 2.294 2.294 0 011.216 2.3c0 2.24-2.816 6.91-7.168 12.1-5.439 6.46-12.351 12.28-17.6 14.84a.658.658 0 00-.512.52.521.521 0 00.575.51 29.133 29.133 0 004.992-1.73c5.248-2.24 8.256-4.35 15.167-10.88.384.9.384 1.09.384 3.58 0 1.35 0 1.35-.256 7.56zm56.832-24.39c4.672-.44 7.423-.57 9.983-.57a53.575 53.575 0 018.32.64c.511.06 1.087.13 1.471.13a1.824 1.824 0 001.92-1.8c0-.7-.7-1.53-2.368-2.81-1.471-1.15-3.9-2.37-4.735-2.37-.384 0-.768.19-2.5 1.09-2.5 1.34-3.9 1.66-11.711 2.62.192-5.05.384-8.64.512-9.79a3.519 3.519 0 01.512-1.34 1.563 1.563 0 00.256-.71c0-1.4-4.992-4.67-7.168-4.67-1.6 0-4.543 1.22-4.543 1.92 0 .19.192.26.832.39 2.815.57 3.711 3.32 3.711 11.13 0 .9-.064 1.92-.128 3.9-12.543 1.35-14.335 1.54-16.9 1.54-3.2 0-5.119-.51-5.951-1.6a.684.684 0 00-.576-.45.47.47 0 00-.512.51c0 3.27 3.456 7.04 6.4 7.04.831 0 1.535-.19 4.095-1.02 3.9-1.41 5.952-1.86 13.183-3.07-1.472 14.27-7.487 25.02-16.83 29.63-.96.51-1.152.64-1.152.96a.426.426 0 00.448.38c1.023 0 5.887-1.79 8-3.01a28.709 28.709 0 0011.519-12.73c2.056-4.42 2.952-7.94 3.912-15.94zm78.463 1.8a50.185 50.185 0 01-10.175 2.17c-4.416.51-20.351 1.47-25.215 1.47-5.119 0-7.231-.57-8.191-2.17a.936.936 0 00-.64-.64c-.64 0-.96.64-.96 1.79a5.951 5.951 0 002.3 5.18 11.426 11.426 0 005.5 2.11 2.463 2.463 0 00.895-.19c4.8-1.92 14.271-2.81 30.27-2.81 2.368 0 4.288.06 5.632.19 2.752.26 4.8.45 5.375.45 1.984 0 3.264-.83 3.264-2.11.008-2.5-2.68-4.36-8.055-5.44zm24.451 8.38c0 7.74.512 10.37 2.368 12.93 2.56 3.45 6.08 4.54 14.335 4.54a54.3 54.3 0 0013.119-1.41c1.92-.57 2.88-1.53 2.88-2.75 0-1.66-3.2-3.46-6.784-3.71-3.711 1.85-7.1 2.56-12.543 2.56-6.655 0-8.191-1.73-8.191-9.09 0-1.28 0-1.79.192-5.25 7.231-1.92 10.175-3 19.2-6.97 4.16-1.79 4.992-2.37 4.992-3.27a2.849 2.849 0 00-.832-1.72 21.115 21.115 0 00-3.968-3.4 11.772 11.772 0 00-3.839-.83c-.576 0-.9.13-.9.45a1.3 1.3 0 00.32.64 2.161 2.161 0 01.512 1.47c0 1.28-1.024 2.88-2.688 4.16a75.839 75.839 0 01-12.735 7.62 108.792 108.792 0 011.152-14.02 9.9 9.9 0 00.32-2.17c0-1.16-.512-1.92-1.984-2.88a10.432 10.432 0 00-4.736-1.73c-1.6 0-4.032.83-4.032 1.34a.4.4 0 00.32.32c3.136 1.22 3.712 2.56 3.712 8.51 0 1.35-.064 3.78-.128 7.24zm25.534-27.13c-1.728 0-2.688.25-2.688.76a.539.539 0 00.448.45 9.862 9.862 0 015.568 4.29c.9 1.6 1.216 1.92 2.176 1.92a2.658 2.658 0 002.816-2.43c0-2.63-3.968-4.99-8.32-4.99zm7.68-4.74c-1.536 0-2.752.38-2.752.83a.614.614 0 00.448.45 9.461 9.461 0 015.567 4.16c1.024 1.73 1.344 1.98 2.3 1.98a2.793 2.793 0 002.816-2.49c.004-2.5-4.092-4.93-8.374-4.93zm42.5 40.89c-1.408.13-2.816.32-4.16.45-.448 0-4.1.45-8.511.96-4.736.51-4.736.51-5.376.51-1.984 0-3.84-.51-4.16-1.09-.192-.32-.192-.32-.32-.32-.384 0-.767.9-.767 1.92 0 .71.447 1.22 1.727 2.24a8.569 8.569 0 004.032 1.73c.832 0 1.408-.19 3.52-1.09a18.194 18.194 0 014.352-1.34 105.023 105.023 0 0115.742-1.54 68.56 68.56 0 0111.712 1.03 11.252 11.252 0 001.855.32 1.714 1.714 0 001.92-1.41c0-1.47-3.583-4.86-5.183-4.86a3.12 3.12 0 00-.9.19 23.018 23.018 0 01-7.168 1.47c-.512.06-2.048.19-3.712.38 1.152-5.24 1.728-7.67 3.264-12.79 1.344-1.16 1.6-1.48 1.6-1.92 0-.58-.384-.96-2.368-2.37-2.815-1.99-2.879-2.05-3.263-2.05a2.069 2.069 0 00-1.152.51 17.786 17.786 0 01-3.776 1.6 61.6 61.6 0 01-10.175 1.86 3.429 3.429 0 01-2.816-1.22c-.448-.77-.448-.77-.7-.77-.512 0-.768.45-.768 1.48a4.178 4.178 0 002.048 3.96 3.738 3.738 0 002.24.84c.832 0 1.728-.32 4.607-1.48 3.456-1.47 6.016-2.24 7.3-2.24a1.254 1.254 0 011.088 1.48 116.47 116.47 0 01-1.735 13.56zm45.761-22.4a.479.479 0 10-.256.9c2.5 1.22 4.992 4.93 6.016 9.09.448 1.73.96 2.37 2.048 2.37a3.413 3.413 0 003.2-3.52c-.004-4.23-5.699-8.84-11.011-8.84zm25.086 6.79c1.088-1.15 1.216-1.28 1.216-1.73 0-.77-1.472-2.88-3.136-4.42a6.494 6.494 0 00-4.607-2.11.874.874 0 00-1.024.64c0 .13 0 .13.64.71a4.244 4.244 0 01.832 2.75c0 5.05-3.456 12.54-8.512 18.62-4.8 5.76-11.775 11.2-17.6 13.63-1.6.64-1.6.64-1.6.96a.627.627 0 00.64.51c2.432 0 9.279-2.68 13.183-5.12 8.702-5.5 15.55-13.95 19.965-24.44zm-35.005-1.35c-.64 0-.832.13-.832.39a1.039 1.039 0 00.7.77c2.368 1.6 4.672 4.99 5.823 8.63a1.747 1.747 0 001.728 1.41c1.664 0 2.944-1.6 2.944-3.58 0-4.03-4.8-7.62-10.366-7.62zm89.406-7.23c2.368-1.6 2.944-2.17 2.944-2.69 0-.38-.9-1.28-2.24-2.17-3.648-2.56-4.672-3.14-5.44-3.14-.576 0-.9.13-2.175.9-2.432 1.41-3.648 1.85-7.616 2.56a151.5 151.5 0 01-16.383 1.98c-2.24 0-4.1-.7-4.863-1.85a.917.917 0 00-.512-.45.74.74 0 00-.512.89 6.021 6.021 0 002.176 5.12 8.557 8.557 0 003.9 1.86 2.629 2.629 0 001.024-.38 26.923 26.923 0 017.68-2.69 79.95 79.95 0 0112.607-2.18c1.472 0 2.048.39 2.048 1.41a19.262 19.262 0 01-1.216 4.86c-1.856 5.76-4.352 9.92-8.9 15.17-6.207 7.17-12.479 11.52-20.862 14.4a.619.619 0 00-.576.51.544.544 0 00.64.45c3.072 0 11.263-3.01 16.447-6.02 9.539-5.56 15.81-13.82 21.826-28.54zm35.778 26.18l-4.927.44c-6.72.39-6.72.39-8 .39-2.24 0-3.776-.39-4.287-1.09a.433.433 0 00-.384-.32c-.384 0-.64.77-.64 1.79 0 .9.512 1.6 1.983 2.5 2.944 1.92 2.944 1.92 3.968 1.92a6.948 6.948 0 002.432-.51c5.632-2.05 12.031-2.95 21.566-2.95a55.935 55.935 0 0111.584 1.15 14.924 14.924 0 002.687.45 1.88 1.88 0 001.856-1.73c0-1.72-4.031-4.8-6.4-4.8a1.628 1.628 0 00-.576.07c-2.816.89-3.392 1.02-14.143 2.11.192-7.62.512-10.3 1.344-12.99a1.915 1.915 0 00.256-.83c0-.45-.9-1.28-2.368-2.18 2.3-.19 4.16-.25 6.207-.25.9 0 .9 0 4.224.12l.768.07h.64a1.493 1.493 0 001.536-1.41 3.036 3.036 0 00-1.536-2.18 8.159 8.159 0 00-3.9-1.85 4.647 4.647 0 00-1.728.57c-2.559 1.16-5.631 1.86-10.367 2.31-7.679.77-7.679.77-8.895.77-1.472 0-3.136-.45-3.52-.96-.512-.64-.512-.64-.64-.64-.32 0-.448.25-.448.89 0 2.37 2.048 4.93 3.968 4.93a2.814 2.814 0 00.576-.13 10.568 10.568 0 013.008-.96c3.9-.7 3.9-.7 4.415-.7 1.6 0 1.792.77 1.792 7.61a72.258 72.258 0 01-.32 8.26z" fill="#fff" fill-rule="evenodd"></path></svg>