<svg xmlns="http://www.w3.org/2000/svg" width="751.845" height="26.5" viewBox="0 0 751.845 26.5">
  <defs>
    <style>
      .cls-1 {
        fill: #333;
        fill-rule: evenodd;
      }
    </style>
  </defs>
  <path id="茂木町_自然農園_空土ファーム_直送の無農薬野菜" data-name="茂木町「自然農園 空土ファーム」直送の無農薬野菜" class="cls-1" d="M542.029,4552.23c3.612-.14,3.7-0.14,4.872-0.14h1.988v3.83c0,0.17.14,0.25,0.364,0.25a9.32,9.32,0,0,0,1.736-.33c0.308-.09.42-0.17,0.42-0.39v-3.36h5.32v2.57c0,0.25.168,0.39,0.532,0.39a8.426,8.426,0,0,0,1.82-.28,3.991,3.991,0,0,1,.98,1.38,5.247,5.247,0,0,0,.756,1.59,1.449,1.449,0,0,0,1.008.42,1.258,1.258,0,0,0,1.26-1.34c0-1.43-1.54-2.52-3.78-2.66v-2.07h7.644a0.407,0.407,0,0,0,.476-0.37,1,1,0,0,0-.476-0.67l-2.436-2.1-2.1,2.38H559.3v-2.77l0.588-.28a0.731,0.731,0,0,0,.5-0.62,0.776,0.776,0,0,0-.9-0.64l-2.772-.2v4.51h-5.32v-2.72l0.532-.28a0.831,0.831,0,0,0,.5-0.7c0-.36-0.336-0.56-0.924-0.61l-2.632-.2v4.51H546.9c-1.176,0-2.24-.03-5.516-0.17Zm11.144,7.14a19.147,19.147,0,0,0,2.66,7.44,25.537,25.537,0,0,1-7.644,5.21c-0.532.25-.644,0.34-0.644,0.48,0,0.11.084,0.17,0.252,0.17a16.261,16.261,0,0,0,3.528-1.07,23.991,23.991,0,0,0,5.712-3.13,13.2,13.2,0,0,0,2.912,2.32,12.351,12.351,0,0,0,5.236,1.65c1.12,0,1.82-.33,1.82-0.89a2.935,2.935,0,0,0-.812-1.52,0.761,0.761,0,0,1-.224-0.5,0.639,0.639,0,0,1,.028-0.17c0.028-.08.056-0.36,0.112-0.75,0-.09.084-0.51,0.2-1.12,0.112-.79.224-1.6,0.252-1.82l0.028-.26a0.184,0.184,0,0,0,.028-0.08,0.218,0.218,0,0,0-.168-0.2h-0.028a0.714,0.714,0,0,0-.308.42,14.7,14.7,0,0,1-1.372,2.72,1.749,1.749,0,0,1-1.54,1.12c-0.952,0-3.024-1.18-4.424-2.52a22.28,22.28,0,0,0,3.472-4.26l1.064-.25a0.586,0.586,0,0,0,.616-0.5,0.8,0.8,0,0,0-.476-0.65l-2.688-1.54-0.168.28a26.2,26.2,0,0,1-3.136,5.04,14.321,14.321,0,0,1-1.848-5.62h11.34a0.419,0.419,0,0,0,.5-0.37,1.286,1.286,0,0,0-.7-0.92l-2.128-1.79-2.016,2.32h-7.084c-0.056-.5-0.168-2.27-0.168-2.66v-0.25l0.7-.48a0.8,0.8,0,0,0,.392-0.59c0-.3-0.2-0.39-1.2-0.44l-2.492-.17a42.672,42.672,0,0,0,.28,4.59h-5.32l-3.136-1.51a33.719,33.719,0,0,1,.14,3.41c0,5.77-.616,8.66-2.492,11.79a0.7,0.7,0,0,0-.168.39,0.176,0.176,0,0,0,.2.2c0.616,0,2.716-2.38,3.584-4.09,1.148-2.27,1.428-4.06,1.54-9.43h5.8Zm32.144,12.76a0.348,0.348,0,0,0,.42.4,5.086,5.086,0,0,0,1.792-.42,0.477,0.477,0,0,0,.28-0.51v-14.98c1.932,5.97,4.648,9.63,9.436,12.8,1.372-1.6,1.456-1.68,2.912-2.33a20.777,20.777,0,0,1-11.984-11.59h10.7a0.355,0.355,0,0,0,.392-0.33,1.062,1.062,0,0,0-.476-0.7l-2.464-2.08-1.96,2.36h-6.552v-6.08l0.644-.34a0.726,0.726,0,0,0,.42-0.61c0-.37-0.224-0.53-0.868-0.56l-2.688-.2v7.79h-5.824c-0.056,0-1.288-.03-2.436-0.06l-3.08-.11,0.672,1.06c1.064-.03,2.072-0.05,2.408-0.08,1.232-.03,2.072-0.06,2.436-0.06h5.32c-1.736,4.82-6.244,10.59-10.948,14.11a0.418,0.418,0,0,0-.2.28,0.129,0.129,0,0,0,.14.14,16.813,16.813,0,0,0,4-2.29,38.158,38.158,0,0,0,7.5-7.87v12.26Zm23.912-6.07h7.28v1.93c0,0.28.112,0.39,0.448,0.39,1.2,0,2.016-.36,2.016-0.89v-14.76h5.46v15.62c0,0.68-.224.79-1.54,0.79-0.532,0-1.876-.03-2.716-0.09h-0.168c-0.224,0-.308.06-0.308,0.2,0,0.17.14,0.22,1.2,0.56,1.68,0.53,1.848.59,2.212,0.73a0.8,0.8,0,0,1,.476.92c-0.028.67,0.14,0.93,0.588,0.93a3.929,3.929,0,0,0,2.3-.98,2.237,2.237,0,0,0,.532-1.85v-16.83h5.124a0.387,0.387,0,0,0,.308-0.42,0.667,0.667,0,0,0-.252-0.5l-2.38-2.08-1.9,2.24h-8.932v-0.86l0.5-.17a0.634,0.634,0,0,0,.392-0.51,1.046,1.046,0,0,0-.336-0.61l-2.184-2.21-1.092,1.62h-6.748l-2.66-1.46v21.42a0.391,0.391,0,0,0,.476.48,5.092,5.092,0,0,0,1.372-.25,0.632,0.632,0,0,0,.532-0.53v-2.83Zm0-.76v-7.36h2.492v7.36h-2.492Zm0-8.09v-7.22h2.492v7.22h-2.492Zm4.788,8.09v-7.36h2.492v7.36h-2.492Zm0-8.09v-7.22h2.492v7.22h-2.492Zm42.84,9.49v-18h7.112v-1.68h-8.792v19.68h1.68Zm20.748,3.75h12.88v1.24c0,0.36.14,0.47,0.616,0.47a4.106,4.106,0,0,0,1.4-.28,0.76,0.76,0,0,0,.616-0.7V4554.1l0.448-.25a0.627,0.627,0,0,0,.336-0.53,1.294,1.294,0,0,0-.336-0.81l-2.324-2.38-1.008,1.7h-8.344c0.868-1.09,1.316-1.68,2.38-3.16l0.84-.45a0.477,0.477,0,0,0,.2-0.39,0.5,0.5,0,0,0-.42-0.53l-3.108-.65a48.841,48.841,0,0,1-.924,5.18h-3l-2.8-1.34v21.62a0.524,0.524,0,0,0,.616.58,4.974,4.974,0,0,0,1.4-.28,0.6,0.6,0,0,0,.532-0.58v-1.38Zm0-.75v-5.24h12.88v5.24h-12.88Zm0-5.99v-5.21h12.88v5.21h-12.88Zm0-11.12h12.88v5.15h-12.88v-5.15Zm40.992,3.5c-0.644,4.34-2.324,6.89-6.188,9.38-0.672.45-.7,0.48-0.7,0.59a0.151,0.151,0,0,0,.168.17,13.5,13.5,0,0,0,4.116-1.99,10.641,10.641,0,0,0,4.928-7.7,15.277,15.277,0,0,0,6.216,9.29,8.879,8.879,0,0,1,2.828-2.26,13.446,13.446,0,0,1-8.624-7.48h7.952a0.475,0.475,0,0,0,.5-0.42,0.959,0.959,0,0,0-.42-0.7l-2.24-1.79-1.848,2.15h-4.172c0.2-1.68.308-2.94,0.336-3.97l0.056-2.27,0.028-.34,0.336-.16a0.851,0.851,0,0,0,.56-0.7c0-.34-0.252-0.54-0.9-0.59l-2.6-.34v0.51c0.084,2.49.084,2.49,0.084,2.94a38.051,38.051,0,0,1-.308,4.92H714.9c0.224-.75.252-0.86,0.448-1.65l0.476-.19a0.485,0.485,0,0,0,.448-0.48,0.775,0.775,0,0,0-.364-0.56l-2.128-2.13-0.952,1.46h-3.22c0.084-.28.336-1.09,0.728-2.41l0.644-.28a0.657,0.657,0,0,0,.532-0.59,0.728,0.728,0,0,0-.644-0.61l-2.884-.84a35.608,35.608,0,0,1-4.032,13.77,2.117,2.117,0,0,0-.364.73,0.2,0.2,0,0,0,.2.22c0.252,0,1.036-.92,2.408-2.88a3.738,3.738,0,0,1,.252-0.36,5.42,5.42,0,0,1,1.6,2.29c0.308,0.87.5,1.09,1.008,1.09a0.733,0.733,0,0,0,.476-0.14,15.482,15.482,0,0,1-4.788,4.4c-0.644.36-.728,0.42-0.728,0.59a0.192,0.192,0,0,0,.2.17,10.208,10.208,0,0,0,2.324-.96,14.49,14.49,0,0,0,5.4-4.42,15.966,15.966,0,0,0,2.744-5.46h3.92Zm-11.928,2.04a23.361,23.361,0,0,0,1.624-3.02,4.057,4.057,0,0,1,1.96,1.88,1.046,1.046,0,0,0,.9.72,0.834,0.834,0,0,0,.56-0.22,25.912,25.912,0,0,1-1.512,3.22C710.169,4559.11,708.909,4558.22,706.669,4558.13Zm6.412-5.6a38.724,38.724,0,0,1-.952,3.76c-0.336-1.18-1.4-1.77-3.276-1.77a1.41,1.41,0,0,0-.308.03c0.392-.92.448-1.06,0.784-2.02h3.752Zm-4.872,13.61c-0.14,0-.168.09-0.2,0.34-0.224,1.23-.812,2.04-2.38,3.16a1.955,1.955,0,0,0-1.008,1.49,1.225,1.225,0,0,0,1.26,1.28c1.624,0,2.828-1.73,2.828-4.06C708.713,4567.18,708.489,4566.14,708.209,4566.14Zm3.64,0.67a0.151,0.151,0,0,0-.168.17,0.354,0.354,0,0,0,.14.23,4.887,4.887,0,0,1,1.092,2.94c0.084,1.45.084,1.45,0.28,1.79a1.29,1.29,0,0,0,1.12.61,1.558,1.558,0,0,0,1.484-1.73c0-1.18-.728-2.21-2.156-3.11A5.782,5.782,0,0,0,711.849,4566.81Zm5.6-.11c-0.168,0-.252.06-0.252,0.17a0.251,0.251,0,0,0,.112.17,4.918,4.918,0,0,1,1.96,2.99,4.085,4.085,0,0,0,.448,1.35,1.183,1.183,0,0,0,.924.45,1.334,1.334,0,0,0,1.344-1.43,3.282,3.282,0,0,0-1.988-2.83A9.184,9.184,0,0,0,717.449,4566.7Zm4.9-16.43c-0.224,0-.336.05-0.336,0.16a0.271,0.271,0,0,0,.168.23,3.729,3.729,0,0,1,1.176,1.59c0.588,1.74.672,1.88,1.316,1.88a1.242,1.242,0,0,0,1.2-1.37C725.877,4551.39,724.309,4550.27,722.349,4550.27Zm0.532,16.04a0.2,0.2,0,0,0-.224.11,0.233,0.233,0,0,0,.168.2c1.428,0.87,2.156,1.79,3.164,4.03a1.412,1.412,0,0,0,1.288,1.06,1.335,1.335,0,0,0,1.372-1.37c0-1.31-1.288-2.69-3.136-3.36A11.916,11.916,0,0,0,722.881,4566.31Zm21.336-1.82v5.07c-1.792.14-2.072,0.17-3.92,0.28l1.344,2.46a0.651,0.651,0,0,0,.56.51,0.723,0.723,0,0,0,.616-0.51l0.224-.39c4.228-1.32,6.16-1.96,7.588-2.49a0.54,0.54,0,0,0,.476-0.39,0.211,0.211,0,0,0-.224-0.23,3.664,3.664,0,0,0-.476.06c-1.82.28-2.6,0.39-3.64,0.5v-4.87h1.568c1.988,4.09,5.572,6.72,11.592,8.48a5.958,5.958,0,0,1,2.688-2.54,26.5,26.5,0,0,1-8.372-2.08l0.532-.22,1.2-.5,1.148-.51c0.14-.08.364-0.17,0.532-0.25h0.476c0.672,0,.9-0.08.9-0.39a0.739,0.739,0,0,0-.336-0.51l-1.876-1.48h4.032a0.311,0.311,0,0,0,.364-0.31,0.732,0.732,0,0,0-.364-0.53l-2.156-1.96-1.624,2.04h-16.3v-4.06h20.664a0.454,0.454,0,0,0,.476-0.3,1.014,1.014,0,0,0-.364-0.56l-2.072-1.91-1.652,2.02H741.389l-2.828-1.32c0.056,1.85.056,2.72,0.056,4.15,0,5.51-.5,7.72-2.408,10.66a0.53,0.53,0,0,0-.112.28,0.2,0.2,0,0,0,.224.2,5.3,5.3,0,0,0,1.708-1.57,11.054,11.054,0,0,0,2.66-6.83h3.528Zm12.516,0a28.343,28.343,0,0,1-3.22,3.53,13.269,13.269,0,0,1-4.508-3.53h7.728Zm-14.336-7.64h13.776v0.58c0,0.31.084,0.4,0.42,0.4,1.008,0,1.764-.31,1.764-0.76v-5.4l0.392-.14a0.536,0.536,0,0,0,.448-0.45,0.823,0.823,0,0,0-.392-0.62l-1.988-2.01-0.784,1.34h-3.052v-1.65l0.42-.23a0.686,0.686,0,0,0,.392-0.56,0.5,0.5,0,0,0-.5-0.42l-2.6-.16v3.02h-3.024v-1.51l0.56-.31a0.6,0.6,0,0,0,.364-0.53,0.5,0.5,0,0,0-.5-0.48l-2.632-.19v3.02h-2.744l-2.52-1.18v9.13c0,0.31.112,0.39,0.532,0.39,0.952,0,1.68-.36,1.68-0.86v-0.42Zm0-.76v-2.41h3.052v2.41H742.4Zm0-3.16v-2.38h3.052v2.38H742.4Zm5.264,3.16v-2.41h3.024v2.41h-3.024Zm0-3.16v-2.38h3.024v2.38h-3.024Zm5.32,3.16v-2.41h3.192v2.41h-3.192Zm0-3.16v-2.38h3.192v2.38h-3.192Zm-10.248,8.34,0.56,1.01c3.472-.11,3.584-0.11,4.284-0.11h9.576a0.362,0.362,0,0,0,.392-0.37,0.741,0.741,0,0,0-.392-0.53l-1.82-1.32-1.232,1.46h-6.524c-0.14,0-1.12-.03-2.072-0.06Zm42.168-3.5h-6.468l-2.632-1.09v6.21a0.37,0.37,0,0,0,.448.42,3.7,3.7,0,0,0,1.2-.25,0.555,0.555,0,0,0,.5-0.56v-0.78h2.072a23.454,23.454,0,0,1-6.216,5.51c-0.784.48-.868,0.54-0.868,0.68a0.177,0.177,0,0,0,.168.16,9.469,9.469,0,0,0,2.072-.84,31.162,31.162,0,0,0,5.264-2.94v4.76c0,0.45.112,0.56,0.448,0.56,0.9,0,1.932-.42,1.932-0.78v-4.54a9.236,9.236,0,0,1,3.332,2.92c1.2,1.7,1.2,1.7,1.792,1.7a1.234,1.234,0,0,0,1.176-1.26c0-1.23-1.176-2.32-3.416-3.22l3.22-.81,0.56-.14a0.4,0.4,0,0,0,.308-0.36,0.58,0.58,0,0,0-.252-0.39l-1.6-1.4-0.532.58v-2.43l0.364-.14a0.409,0.409,0,0,0,.252-0.37,0.854,0.854,0,0,0-.252-0.5l-1.96-1.93Zm-6.944,3.19v-2.43h7.252v2.43h-7.252Zm4.872,1.54,0.868-.78h1.512v0.33a0.388,0.388,0,0,0,.476.34,4.562,4.562,0,0,0,1.68-.39,19.132,19.132,0,0,1-2.324,2.21c-0.28-.06-0.476-0.11-0.588-0.14l-1.092-.25a3.38,3.38,0,0,1-.532-0.09v-1.23Zm-9.212-6.41,2.352-.08,1.96-.03h11.984a0.337,0.337,0,0,0,.28-0.39,0.5,0.5,0,0,0-.168-0.37l-2.1-1.79-1.624,1.79h-3.584v-2.18h6.188a0.38,0.38,0,0,0,.392-0.37,0.456,0.456,0,0,0-.252-0.39l-2.128-1.79-1.484,1.79h-2.716v-1.01l0.56-.39a0.477,0.477,0,0,0,.2-0.39,0.406,0.406,0,0,0-.364-0.42l-2.66-.11v2.32h-1.624c-1.008,0-1.988-.03-4.872-0.14l0.532,1.01c2.184-.08,2.772-0.11,4.34-0.11h1.624v2.18h-2.52c-1.288,0-2.324-.03-4.844-0.14Zm-1.176,14.78h18.284v0.87c0,0.37.084,0.45,0.336,0.45a5.788,5.788,0,0,0,1.54-.31,0.8,0.8,0,0,0,.644-0.75v-20.08l0.588-.25a0.578,0.578,0,0,0,.392-0.56,0.708,0.708,0,0,0-.224-0.51l-2.52-2.46-1.092,1.57H772.973l-3.024-1.35v24.67c0,0.51.112,0.65,0.5,0.65,1.008,0,1.988-.51,1.988-1.01v-0.93Zm0-.75v-20.53h18.284v20.53H772.441Zm62.944-2.33-2.128,2.38h-6.72v-6.94h7.476a0.437,0.437,0,0,0,.5-0.34,1,1,0,0,0-.448-0.61l-2.24-1.82-1.848,2.01h-9.212c-1.568,0-2.52-.02-4.844-0.14l0.644,1.01c2.128-.08,3.08-0.11,4.2-0.11h3.22v6.94h-5.768c-1.708,0-2.828-.02-5.516-0.14l0.728,1.04c2.436-.11,3.556-0.14,4.788-0.14h19.4a0.55,0.55,0,0,0,.644-0.42,1.32,1.32,0,0,0-.532-0.78Zm-8.708-16.54v6.58c0,1.2.224,1.62,1.036,1.84a24.525,24.525,0,0,0,4.564.17c3.78,0,4.956-.28,4.956-1.2a0.826,0.826,0,0,0-.588-0.76,0.741,0.741,0,0,1-.42-0.7,11.533,11.533,0,0,1,.14-1.37,7.492,7.492,0,0,0,.168-1.26,0.231,0.231,0,0,0-.252-0.28c-0.168,0-.252.17-0.728,1.2a3.957,3.957,0,0,1-1.176,1.91,10.535,10.535,0,0,1-3.92.42c-1.372,0-1.512-.11-1.512-1.04v-5.51h4.676a13.256,13.256,0,0,1-1.288,3.05,1.265,1.265,0,0,0-.224.56,0.165,0.165,0,0,0,.168.17,6.222,6.222,0,0,0,1.764-1.01c0.364-.23.756-0.48,1.12-0.73,0.084-.08.336-0.22,0.728-0.48l0.9,0.09H836.9a0.6,0.6,0,0,0,.728-0.53,1.611,1.611,0,0,0-.5-0.93l-2.38-2.69-1.176,1.74h-6.888v-2.13l0.532-.25a0.745,0.745,0,0,0,.448-0.62,0.622,0.622,0,0,0-.616-0.56l-2.828-.39v3.95h-7.336c-0.448-1.26-.644-1.62-0.868-1.62a0.247,0.247,0,0,0-.2.3,4.881,4.881,0,0,1-1.624,3.67c-0.812.79-.952,1.01-0.952,1.54a1.308,1.308,0,0,0,1.484,1.29c1.316,0,2.3-1.54,2.3-3.7v-0.72h3.612c0.084,5.12-1.988,8.12-6.944,10.02-0.56.22-.728,0.34-0.728,0.5a0.236,0.236,0,0,0,.28.2,14.79,14.79,0,0,0,7.308-3.14c1.652-1.54,2.492-3.92,2.688-7.58h3.444Zm18.284,19.37,0.588,1.07c3.7-.14,4-0.14,4.9-0.14h19.964a0.421,0.421,0,0,0,.5-0.4,0.781,0.781,0,0,0-.28-0.47l-2.38-2.13-2.156,2.24h-6.944v-12.54h9.66a0.466,0.466,0,0,0,.532-0.42,0.693,0.693,0,0,0-.392-0.54l-2.408-1.93-1.764,2.13h-5.628v-8.37l0.532-.37a0.9,0.9,0,0,0,.476-0.7,0.542,0.542,0,0,0-.588-0.5l-3.164-.34v10.28h-3.808c-1.4,0-2.576-.03-5.488-0.14l0.7,1.04,2.352-.09c0.98-.03,1.82-0.05,2.492-0.05h3.752v12.54h-5.964c-0.14,0-1.456-.03-2.716-0.06ZM898.413,4555c1.036-.7,1.288-0.95,1.288-1.18a2.281,2.281,0,0,0-.98-0.95c-1.6-1.12-2.044-1.37-2.38-1.37a1.665,1.665,0,0,0-.952.39,8.1,8.1,0,0,1-3.332,1.12,66.28,66.28,0,0,1-7.168.87,2.569,2.569,0,0,1-2.128-.81,0.413,0.413,0,0,0-.224-0.2,0.327,0.327,0,0,0-.224.39,2.631,2.631,0,0,0,.952,2.24,3.735,3.735,0,0,0,1.708.81,1.1,1.1,0,0,0,.448-0.16,11.667,11.667,0,0,1,3.36-1.18,35.317,35.317,0,0,1,5.516-.95c0.644,0,.9.17,0.9,0.61a8.381,8.381,0,0,1-.532,2.13,17.724,17.724,0,0,1-3.892,6.64,20.1,20.1,0,0,1-9.128,6.3,0.262,0.262,0,0,0-.252.22,0.242,0.242,0,0,0,.28.2c1.344,0,4.928-1.32,7.2-2.63C893.037,4565.05,895.781,4561.44,898.413,4555Zm26.6,5.32c0.84-.37,1.4-0.65,1.68-0.79,0.756-.36,1.512-0.72,2.24-1.09a4.977,4.977,0,0,1,1.372-.5c1.064-.11,1.064-0.11,1.316-0.31a0.621,0.621,0,0,0,.224-0.39,2.37,2.37,0,0,0-.84-1.26c-1.12-1.26-1.484-1.57-1.9-1.57a2.011,2.011,0,0,0-.532.14,20.419,20.419,0,0,1-4.564.98c-2.24.28-6.272,0.7-6.888,0.7a1.713,1.713,0,0,1-1.764-.81,0.267,0.267,0,0,0-.2-0.11,0.873,0.873,0,0,0-.224.78,2.274,2.274,0,0,0,.672,1.48,3.871,3.871,0,0,0,1.848,1.04,0.881,0.881,0,0,0,.392-0.14,9.744,9.744,0,0,1,2.688-1.18,38.15,38.15,0,0,1,6.272-1.06,0.889,0.889,0,0,1,.924.34c0,0.47-1.372,1.87-2.856,2.91a3.726,3.726,0,0,0-2.492-1.18,0.738,0.738,0,0,0-.84.48,1.054,1.054,0,0,1,.84,1.09,20.3,20.3,0,0,1-2.24,7.59,12.052,12.052,0,0,1-3.7,4.39c-0.224.17-.252,0.17-0.252,0.28a0.178,0.178,0,0,0,.168.17c0.7,0,3.332-1.79,4.452-3.05A20.421,20.421,0,0,0,925.013,4560.32Zm38.724-2.35a22,22,0,0,1-4.452.95c-1.932.22-8.9,0.64-11.032,0.64-2.24,0-3.164-.25-3.584-0.95a0.417,0.417,0,0,0-.28-0.28c-0.28,0-.42.28-0.42,0.78a2.6,2.6,0,0,0,1.008,2.27,5.017,5.017,0,0,0,2.408.93,1.037,1.037,0,0,0,.392-0.09c2.1-.84,6.244-1.23,13.244-1.23,1.036,0,1.876.03,2.464,0.08,1.2,0.12,2.1.2,2.352,0.2,0.868,0,1.428-.36,1.428-0.92C967.265,4559.25,966.089,4558.44,963.737,4557.97Zm17.836,7.44a19.928,19.928,0,0,1-2.24.17,1.851,1.851,0,0,1-1.344-.36,0.515,0.515,0,0,0-.308-0.25,0.691,0.691,0,0,0-.336.78c0,0.59.28,1.04,1.2,1.99a2.64,2.64,0,0,0,1.568,1.06,1.251,1.251,0,0,0,.644-0.28c0.672-.5,1.064-0.64,3.22-1.29,4.088-1.2,7.224-2.18,10-3.16a16.324,16.324,0,0,1,1.344,3.28c0.364,1.12.672,1.48,1.26,1.48a1.781,1.781,0,0,0,1.68-1.85c0-2.01-2.016-4.79-4.564-6.24a9.369,9.369,0,0,0-2.772-1.12,0.188,0.188,0,0,0-.2.19,0.546,0.546,0,0,0,.308.42,7.692,7.692,0,0,1,2.352,2.89c-4.508,1.09-6.048,1.4-9.884,2.04a79.877,79.877,0,0,1,6.608-10.39,0.649,0.649,0,0,0,.28-0.5c0-.64-0.42-1.2-1.68-2.24a3.131,3.131,0,0,0-2.184-1.01,0.764,0.764,0,0,0-.84.34c0,0.03.028,0.05,0.112,0.08a1.733,1.733,0,0,1,.84,1.6c0,1.23-.42,2.55-1.82,5.71C983.533,4561.63,982.665,4563.37,981.573,4565.41Zm33.657-12.88v18.01h-7.11v1.68h8.79v-19.69h-1.68Zm24.58-1.56,0.65,1.06c2.63-.11,3.67-0.14,4.87-0.14h6.89v3.16h-1.6l-2.55-1.26v15.1a0.341,0.341,0,0,0,.4.42,6.328,6.328,0,0,0,1.37-.23,0.632,0.632,0,0,0,.56-0.47v-1.29h8.09v1.06c0,0.42.11,0.56,0.5,0.56a6.26,6.26,0,0,0,1.24-.19,0.715,0.715,0,0,0,.67-0.65v-10.97l0.47-.2a0.6,0.6,0,0,0,.39-0.56,0.949,0.949,0,0,0-.33-0.64l-2.07-2.1-1.07,1.42h-3.52v-3.16h11.05a0.389,0.389,0,0,0,.23-0.42,0.547,0.547,0,0,0-.2-0.42l-2.52-1.99-1.76,2.07h-6.8v-2.54l0.53-.34a0.857,0.857,0,0,0,.39-0.64,0.582,0.582,0,0,0-.59-0.51l-2.88-.28v4.31h-6.89c-0.06,0-1.37-.02-2.58-0.05Zm10.59,15.59v-3.02h8.09v3.02h-8.09Zm0-3.78v-3.27h8.09v3.27h-8.09Zm0-4.03v-2.94h8.09v2.94h-8.09Zm10.78,11.65H1044.8v-12.71l0.42-.34a0.659,0.659,0,0,0-.37-1.26l-2.57-.25v16.8c0,0.28.14,0.39,0.47,0.39a8.66,8.66,0,0,0,1.52-.28,0.568,0.568,0,0,0,.53-0.45v-1.15h20.72a0.338,0.338,0,0,0,.28-0.36,0.526,0.526,0,0,0-.23-0.39l-2.46-2.16Zm12.71,1.2a0.919,0.919,0,0,0,.67.39c0.25,0,.39-0.16.48-0.61l0.11-.62c0.5-.61.59-0.75,1.6-2.01,0.22-.26.44-0.56,0.86-1.1a9.611,9.611,0,0,0,4.12,3.56c1.96,0.87,3.95,1.09,9.55,1.09,1.76,0,3.05-.03,5.6-0.17a6.044,6.044,0,0,1,1.68-2.63,106.363,106.363,0,0,1-10.84.59c-4.42,0-6.89-.62-8.9-2.27v-7.19l0.36-.09a0.565,0.565,0,0,0,.56-0.53,0.943,0.943,0,0,0-.47-0.73l-2.16-2.04-0.95,1.68-1.57-.03c-0.34,0-1.18-.03-2.27-0.08l0.56,0.95c1.63-.06,1.82-0.06,3.39-0.09v7.9a23.611,23.611,0,0,1-4.09,2.02Zm0.11-23.38a0.18,0.18,0,0,0-.22.14,0.393,0.393,0,0,0,.19.23c1.1,0.89,1.54,1.65,2.33,3.83,0.31,0.84.64,1.18,1.15,1.18a1.628,1.628,0,0,0,1.48-1.71,3.549,3.549,0,0,0-2.16-2.86A7.655,7.655,0,0,0,1074,4548.22Zm6.47,11.59c1.18-.02,2.21-0.05,2.58-0.05,0.84-.03,1.42-0.06,1.68-0.06h2.07c-0.42,3.78-1.54,5.66-4.71,7.79-1.26.78-1.26,0.78-1.26,1a0.24,0.24,0,0,0,.26.23,4.64,4.64,0,0,0,1.4-.42,11.625,11.625,0,0,0,4.48-2.94,6.316,6.316,0,0,0,1.87-3.33,12.178,12.178,0,0,1,4.23,4.59c0.59,1.06.98,1.4,1.62,1.4a1.28,1.28,0,0,0,1.23-1.43c0-1.18-.92-2.35-2.66-3.36a13.348,13.348,0,0,0-4.28-1.68,16.836,16.836,0,0,0,.36-1.85h8.43a0.463,0.463,0,0,0,.56-0.45,0.879,0.879,0,0,0-.45-0.7l-2.15-1.82-1.99,2.22h-4.34c0.08-1.07.08-1.1,0.2-3.92l0.02-.26h6.84a0.438,0.438,0,0,0,.5-0.44,0.876,0.876,0,0,0-.45-0.65l-2.04-1.62-1.74,1.96h-2.55c1.66-1.74,2.55-2.75,3.5-3.95l0.42-.17a0.788,0.788,0,0,0,.68-0.61,0.941,0.941,0,0,0-.68-0.76l-2.52-1.15a37.125,37.125,0,0,1-2.26,6.64h-4.09c-1.06,0-2.16-.03-4.84-0.14l0.64,1.01,2.6-.09c0.73-.03,1.38-0.03,1.6-0.03h1.82v0.54c0,0.5,0,.84-0.03,1.45l-0.08,1.68-0.03.51h-2.18c-0.76,0-1.57-.03-4.85-0.14Zm1.82-12.01a0.114,0.114,0,0,0-.14.09,0.387,0.387,0,0,0,.14.19,5.622,5.622,0,0,1,1.82,3.03c0.39,1.98.39,1.98,0.7,2.32a1.135,1.135,0,0,0,.67.2,1.669,1.669,0,0,0,1.54-1.82c0-1.21-1.01-2.44-2.71-3.31A7.822,7.822,0,0,0,1082.29,4547.8Zm36.15,3.87a5.707,5.707,0,0,1,.59-0.03,6.694,6.694,0,0,1,2.88.67c2.44,1.23,3.7,3.78,3.7,7.53a9.56,9.56,0,0,1-3.59,7.98,15.1,15.1,0,0,1-5.01,2.61c-0.45.14-.53,0.16-0.53,0.3,0,0.12.11,0.17,0.28,0.17a12.08,12.08,0,0,0,1.79-.33,17.341,17.341,0,0,0,5.18-1.91,10.3,10.3,0,0,0,5.18-8.96,8.487,8.487,0,0,0-2.21-5.91,10.806,10.806,0,0,0-7.87-3.08c-6.55,0-12.18,5.3-12.18,11.46a7.254,7.254,0,0,0,1.37,4.5,3.372,3.372,0,0,0,2.35,1.54c1.54,0,3.98-1.98,5.63-4.56a18.005,18.005,0,0,0,2.8-9.1A10.616,10.616,0,0,0,1118.44,4551.67Zm-1.37.11a0.739,0.739,0,0,0,.05.19,6.931,6.931,0,0,1,.17,1.57,16.392,16.392,0,0,1-2.86,8.37c-1.17,1.85-2.77,3.31-3.64,3.31s-1.62-1.46-1.62-3.11a10.97,10.97,0,0,1,3.3-7.81A10.528,10.528,0,0,1,1117.07,4551.78Zm20.21,5.54,0.59,1.01,1.85-.06c0.05,0,.95-0.02,2.55-0.05v5.26c-1.68-.03-1.96-0.03-3.7-0.11l0.64,0.95c2.16-.08,2.44-0.08,3.11-0.08h20.22a0.437,0.437,0,0,0,.53-0.42,0.99,0.99,0,0,0-.48-0.7l-1.87-1.71-1.77,2.07H1158v-5.26h5.1a0.349,0.349,0,0,0,.28-0.37,0.872,0.872,0,0,0-.34-0.61l-2.02-1.85-1.76,2.07H1158v-5.15h3.81a0.387,0.387,0,0,0,.36-0.36c0-.17,0-0.17-0.42-0.56l-2.1-1.94-1.84,2.13h-13.53c0.56-.67,1.23-1.54,1.71-2.15l0.59-.26a0.777,0.777,0,0,0,.67-0.64,0.893,0.893,0,0,0-.67-0.76l-2.47-1.12a25.073,25.073,0,0,1-5.9,9.41,0.733,0.733,0,0,0-.31.48,0.2,0.2,0,0,0,.22.22,12.5,12.5,0,0,0,3.14-2.1l0.84-.78s0.08-.06.17-0.14v3.72l-2.55-.05Zm7.39,6.16v-5.26h2.22v5.26h-2.22Zm0-11.17h2.22v5.15h-2.22v-5.15Zm4.46,11.17v-5.26h2.1v5.26h-2.1Zm0-6.02v-5.15h2.1v5.15h-2.1Zm4.28,6.02v-5.26h2.16v5.26h-2.16Zm0-11.17h2.16v5.15h-2.16v-5.15Zm-10.84,13.5c-0.11,0-.19.11-0.25,0.36a4.473,4.473,0,0,1-1.57,2.63c-1.79,1.57-1.79,1.57-1.79,2.21a1.292,1.292,0,0,0,1.4,1.26c1.51,0,2.75-1.73,2.75-3.83C1143.11,4566.93,1142.88,4565.81,1142.57,4565.81Zm3.17,0.3a0.209,0.209,0,0,0-.23.2,0.787,0.787,0,0,0,.17.34,6.3,6.3,0,0,1,.98,2.96c0.09,1.99.09,1.99,0.37,2.38a1.106,1.106,0,0,0,.89.42,1.641,1.641,0,0,0,1.49-1.9,4.993,4.993,0,0,0-2.24-3.64A4.213,4.213,0,0,0,1145.74,4566.11Zm4.79-.14a0.172,0.172,0,0,0-.2.17,0.463,0.463,0,0,0,.22.31,6.985,6.985,0,0,1,1.82,3.14,5.636,5.636,0,0,0,.59,1.87,1.343,1.343,0,0,0,2.47-.84c0-1.4-1.04-2.8-2.83-3.78A8.543,8.543,0,0,0,1150.53,4565.97Zm5.6-.16a0.281,0.281,0,0,0-.26.19,0.653,0.653,0,0,0,.37.48,8.111,8.111,0,0,1,2.57,2.8,8.987,8.987,0,0,0,.95,1.93,1.7,1.7,0,0,0,1.01.45,1.446,1.446,0,0,0,1.37-1.46,3.4,3.4,0,0,0-.98-2.07,8.5,8.5,0,0,0-3.49-1.96C1156.18,4565.81,1156.18,4565.81,1156.13,4565.81Zm21.81-1.32v5.07c-1.79.14-2.07,0.17-3.92,0.28l1.34,2.46a0.659,0.659,0,0,0,.56.51,0.732,0.732,0,0,0,.62-0.51l0.22-.39c4.23-1.32,6.16-1.96,7.59-2.49a0.556,0.556,0,0,0,.48-0.39,0.215,0.215,0,0,0-.23-0.23,4.058,4.058,0,0,0-.48.06c-1.81.28-2.6,0.39-3.63,0.5v-4.87h1.56c1.99,4.09,5.57,6.72,11.59,8.48a6.006,6.006,0,0,1,2.69-2.54,26.527,26.527,0,0,1-8.37-2.08l0.53-.22,1.21-.5,1.14-.51c0.14-.08.37-0.17,0.54-0.25h0.47c0.67,0,.9-0.08.9-0.39a0.727,0.727,0,0,0-.34-0.51l-1.87-1.48h4.03a0.31,0.31,0,0,0,.36-0.31,0.723,0.723,0,0,0-.36-0.53l-2.16-1.96-1.62,2.04h-16.3v-4.06h20.67a0.447,0.447,0,0,0,.47-0.3,1.025,1.025,0,0,0-.36-0.56l-2.07-1.91-1.66,2.02h-16.43l-2.83-1.32c0.06,1.85.06,2.72,0.06,4.15,0,5.51-.51,7.72-2.41,10.66a0.559,0.559,0,0,0-.11.28,0.2,0.2,0,0,0,.22.2,5.217,5.217,0,0,0,1.71-1.57,11.066,11.066,0,0,0,2.66-6.83h3.53Zm12.51,0a28.031,28.031,0,0,1-3.22,3.53,13.175,13.175,0,0,1-4.5-3.53h7.72Zm-14.33-7.64h13.77v0.58c0,0.31.09,0.4,0.42,0.4,1.01,0,1.77-.31,1.77-0.76v-5.4l0.39-.14a0.536,0.536,0,0,0,.45-0.45,0.833,0.833,0,0,0-.4-0.62l-1.98-2.01-0.79,1.34h-3.05v-1.65l0.42-.23a0.687,0.687,0,0,0,.39-0.56,0.494,0.494,0,0,0-.5-0.42l-2.6-.16v3.02h-3.03v-1.51l0.56-.31a0.6,0.6,0,0,0,.37-0.53,0.507,0.507,0,0,0-.51-0.48l-2.63-.19v3.02h-2.74l-2.52-1.18v9.13c0,0.31.11,0.39,0.53,0.39,0.95,0,1.68-.36,1.68-0.86v-0.42Zm0-.76v-2.41h3.05v2.41h-3.05Zm0-3.16v-2.38h3.05v2.38h-3.05Zm5.26,3.16v-2.41h3.03v2.41h-3.03Zm0-3.16v-2.38h3.03v2.38h-3.03Zm5.32,3.16v-2.41h3.19v2.41h-3.19Zm0-3.16v-2.38h3.19v2.38h-3.19Zm-10.25,8.34,0.56,1.01c3.48-.11,3.59-0.11,4.29-0.11h9.57a0.357,0.357,0,0,0,.39-0.37,0.737,0.737,0,0,0-.39-0.53l-1.82-1.32-1.23,1.46h-6.52c-0.14,0-1.12-.03-2.07-0.06Zm25.93,3.5,0.62,1.06c3.64-.11,4-0.14,4.87-0.14h4.81a30.353,30.353,0,0,1-8.98,6.08c-0.84.36-.84,0.39-0.84,0.53,0,0.11.08,0.17,0.28,0.17a20.341,20.341,0,0,0,4.48-1.29,27.278,27.278,0,0,0,6.52-3.61v4.79a0.327,0.327,0,0,0,.39.31,6.736,6.736,0,0,0,1.65-.34,0.439,0.439,0,0,0,.4-0.53v-5.35c1.9,2.63,5.6,5.04,9.6,6.19a5.387,5.387,0,0,1,2.3-2.69,21.988,21.988,0,0,1-11.32-3.98,4.393,4.393,0,0,0-.36-0.28h10.05a0.37,0.37,0,0,0,.42-0.36,0.818,0.818,0,0,0-.45-0.62l-2.43-1.84-1.74,2.07h-6.07v-2.41h0.78v0.73a0.284,0.284,0,0,0,.31.31,9.584,9.584,0,0,0,1.79-.4,0.339,0.339,0,0,0,.28-0.39v-6.1l0.39-.2a0.71,0.71,0,0,0,.45-0.56,0.869,0.869,0,0,0-.5-0.67l-1.96-1.74-0.84,1.29h-2.13a0.5,0.5,0,0,0,.14-0.17,5.583,5.583,0,0,1,.53-0.56c0.14-.19.31-0.36,0.45-0.53l0.08-.08,0.51-.25c0.39-.2.44-0.28,0.44-0.48,0-.28-0.19-0.45-0.72-0.59l-2.24-.61-0.03.19a14.942,14.942,0,0,1-.62,3.08h-0.7l-1.93-.81c1.04-.25,1.09-0.28,1.12-0.67v-1.93h6.27v1.82c0,0.3.2,0.44,0.67,0.44a5.053,5.053,0,0,0,1.49-.25,0.4,0.4,0,0,0,.28-0.5v-1.51h7.39a0.324,0.324,0,0,0,.36-0.26,0.96,0.96,0,0,0-.44-0.67l-2.52-1.87-1.71,2.04h-3.08v-1.99l0.5-.42a0.778,0.778,0,0,0,.37-0.59c0-.33-0.26-0.5-0.93-0.53l-2.38-.14v3.67h-6.27v-1.99l0.62-.33a0.835,0.835,0,0,0,.47-0.7c0-.37-0.3-0.54-0.95-0.59l-2.52-.14v3.75h-1.93c-0.11,0-1.2-.03-2.24-0.06-0.56-.02-1.71-0.05-3.25-0.11l0.56,1.07,2.69-.09c1.04-.03,2.04-0.05,2.24-0.05h1.93v2.32a0.351,0.351,0,0,0,.42.39c0.06,0,.25-0.03.51-0.05v9.35a0.327,0.327,0,0,0,.39.31,8.4,8.4,0,0,0,1.82-.31,0.343,0.343,0,0,0,.22-0.37v-0.5h0.98v2.41h-6.27c-0.45,0-1.37-.03-2.69-0.06Zm10.78-3v-2.82h4.2v2.82h-4.2Zm0-6.21h4.2v2.63h-4.2v-2.63Zm-10.39,6.02,1.68,2.15a0.844,0.844,0,0,0,.65.4c0.33,0,.45-0.14.61-0.65l0.2-.56a2.749,2.749,0,0,0,.31-0.22c0.28-.2.56-0.37,0.87-0.56l0.98-.76,0.92-.7c1.23-.98,1.23-0.98,1.23-1.15a0.18,0.18,0,0,0-.22-0.19,3.111,3.111,0,0,0-.76.19l-0.59.23c-0.39.11-.72,0.22-1.03,0.33-0.79.23-1.99,0.59-2.8,0.84l-1.65.51Zm1.66-7.56a0.154,0.154,0,0,0-.17.11,0.375,0.375,0,0,0,.19.25,4.991,4.991,0,0,1,1.35,2.1c0.36,1.79.36,1.79,0.75,2.19a1.215,1.215,0,0,0,.82.3,1.438,1.438,0,0,0,1.42-1.54,3.128,3.128,0,0,0-1.84-2.57A9.33,9.33,0,0,0,1204.43,4554.02Zm21.67,1.71c0.75-.14.92-0.23,0.92-0.51a1.329,1.329,0,0,0-.64-0.84l-1.82-1.59a42.847,42.847,0,0,1-3.45,4.76c-0.84.92-.84,0.92-0.84,1.03a0.131,0.131,0,0,0,.14.14c0.17,0,.37-0.11,2.38-1.37l1.21-.73c0.33-.19.64-0.39,0.95-0.59a3.329,3.329,0,0,0,.33-0.19Zm-5.04,3.27c-0.23,0-.31.06-0.31,0.17a0.378,0.378,0,0,0,.25.28,13.745,13.745,0,0,1,3.98,3.36,1.677,1.677,0,0,0,1.28.84,1.139,1.139,0,0,0,1.18-1.15c0-1.4-1.29-2.43-3.78-3.11A12.525,12.525,0,0,0,1221.06,4559Zm21.78,4.79h5.66c0.36,0,.53-0.11.53-0.36a0.655,0.655,0,0,0-.31-0.51l-2.04-1.65-1.6,1.76h-2.24v-3.38h2.3v0.98a0.32,0.32,0,0,0,.39.3,4.969,4.969,0,0,0,1.62-.33,0.383,0.383,0,0,0,.25-0.48v-8.31l0.37-.12a0.678,0.678,0,0,0,.56-0.67,1.085,1.085,0,0,0-.39-0.73l-1.91-1.96-1.03,1.43h-6.53l-2.49-1.15v12.6a0.339,0.339,0,0,0,.42.34,4.244,4.244,0,0,0,1.4-.34c0.31-.14.42-0.22,0.42-0.42v-1.14h2.33v3.38h-1.94c-0.16,0-.81,0-1.48-0.02l-2.24-.09,0.56,0.95,1.68-.05c0.7-.03,1.37-0.03,1.48-0.03h1.94v4.12c-0.82.14-1.35,0.22-3,.39-1.43.17-1.85,0.22-2.83,0.33l1.32,2.36a1.02,1.02,0,0,0,.87.81c0.36,0,.5-0.14.78-0.84l0.17-.39c1.31-.4,2.07-0.62,2.66-0.82l2.38-.75c5.04-1.51,6.97-2.21,6.97-2.52a0.177,0.177,0,0,0-.2-0.17,0.99,0.99,0,0,0-.28.03c-2.63.53-4.06,0.78-6.55,1.2v-3.75Zm9.16,4.82c0,0.67-.09.78-0.68,0.81-0.47.05-1.93,0.08-2.8,0.08h-0.36c-0.31-.03-0.56-0.03-0.62-0.03a0.243,0.243,0,0,0-.28.14c0,0.17.17,0.23,2.13,0.84a3.867,3.867,0,0,1,1.29.51,1.054,1.054,0,0,1,.28.61c0.08,0.84.2,1.04,0.53,1.04a5.2,5.2,0,0,0,1.65-.53c0.96-.45,1.4-0.95,1.4-1.54v-11.65h3.08a0.464,0.464,0,0,1-.14.22,5.046,5.046,0,0,1-.39.73c-0.22.37-.39,0.65-0.5,0.84-0.53.84-.98,1.54-1.51,2.3a1.1,1.1,0,0,0-.28.53,0.09,0.09,0,0,0,.11.11,23.293,23.293,0,0,0,3.13-2.13l0.79-.58c0.08-.06.22-0.2,0.47-0.4h0.9c0.53,0,.84-0.19.84-0.56a0.932,0.932,0,0,0-.34-0.64l-2.07-2.44-0.92,1.26h-5.63c-0.14,0-.78,0-1.46-0.02l-2.32-.09,0.56,0.98c1.57-.05,1.76-0.08,3.14-0.11v9.72Zm-13.75-13.58h2.3v3.86h-2.3v-3.86Zm0-.76v-3.75h2.3v3.75h-2.3Zm4.59,0.76h2.3v3.86h-2.3v-3.86Zm0-.76v-3.75h2.3v3.75h-2.3Zm6.19-3.64c1.51-.06,2.57-0.11,3.13-0.11h3.98c-1.01,1.37-2.16,2.85-2.77,3.5a9.956,9.956,0,0,0-3.73-1.12c-0.16,0-.25.05-0.25,0.17a0.679,0.679,0,0,0,.28.28,5.44,5.44,0,0,1,2.16,2.21c1.03,2.01,1.2,2.21,1.93,2.21a1.3,1.3,0,0,0,1.29-1.34,2.637,2.637,0,0,0-.98-1.85c1.23-.76,1.45-0.9,2.83-1.88,0.56-.36.78-0.5,1.12-0.7l0.98-.05c0.61-.03.89-0.2,0.89-0.54a1.051,1.051,0,0,0-.36-0.72l-2.13-2.36-1.2,1.43h-4.04c-0.05,0-.86-0.03-1.65-0.05-0.36,0-1.09-.03-2.1-0.06Zm18.68,0.45c2.46-.11,3.55-0.14,4.95-0.14h2.3v2.57a0.335,0.335,0,0,0,.39.37,8.235,8.235,0,0,0,1.54-.28,0.652,0.652,0,0,0,.62-0.59v-2.07h4.73v1.43a0.321,0.321,0,0,0,.39.36c1.01,0,2.13-.36,2.13-0.7v-1.09h7.95a0.355,0.355,0,0,0,.31-0.39,0.448,0.448,0,0,0-.14-0.31l-2.58-2.16-1.93,2.1h-3.61v-1.65l0.81-.5a0.581,0.581,0,0,0,.2-0.42,0.558,0.558,0,0,0-.51-0.56l-3.02-.31v3.44h-4.73v-1.54l0.72-.53a0.644,0.644,0,0,0,.34-0.56,0.611,0.611,0,0,0-.59-0.59l-3.02-.22v3.44h-2.3c-1.76,0-2.83-.03-5.51-0.17Zm0.36,12.96c2.32-.11,3.33-0.14,4.84-0.14h4.62a27.666,27.666,0,0,1-8.87,7.25c-0.81.42-.87,0.48-0.87,0.59a0.172,0.172,0,0,0,.2.2,18.566,18.566,0,0,0,3.5-1.15,29.6,29.6,0,0,0,7.28-4.45v5.71c0,0.42.11,0.53,0.5,0.53,1.09,0,2.02-.36,2.02-0.81v-7.48c1.95,3.62,4.39,5.8,9.09,8.21a6.8,6.8,0,0,1,2.83-2.75c-5.23-1.03-9.1-2.99-11.5-5.85h10.86a0.344,0.344,0,0,0,.31-0.36,0.5,0.5,0,0,0-.2-0.37l-2.35-2.12-1.96,2.1h-7.08v-1.18l0.53-.31a0.65,0.65,0,0,0,.39-0.56,0.562,0.562,0,0,0-.59-0.53l-2.85-.25v2.83h-5.86c-1.48,0-2.66-.03-5.51-0.17Zm19.85-9.55,0.67,0.09h0.03a0.37,0.37,0,0,0,.34-0.37,0.357,0.357,0,0,0-.2-0.33l-2.41-1.99a84.541,84.541,0,0,1-14.86,3.44c-2.47.4-2.47,0.4-2.47,0.7,0,0.23.2,0.34,0.56,0.34,1.23,0,6.86-.56,14.11-1.37l3-.34Zm-16.57,2.1a0.175,0.175,0,0,0-.2.12,0.428,0.428,0,0,0,.2.28,3.922,3.922,0,0,1,1.42,2.12c0.4,1.52.4,1.52,0.62,1.8a1.353,1.353,0,0,0,2.35-.98c0-1.29-1.09-2.38-2.91-2.97A9.111,9.111,0,0,0,1271.35,4556.59Zm5.96-.58c-0.17,0-.25.05-0.25,0.14a0.63,0.63,0,0,0,.28.36,4.731,4.731,0,0,1,1.71,2.04,2.812,2.812,0,0,0,.61,1.21,1.517,1.517,0,0,0,1.04.45,1.337,1.337,0,0,0,1.37-1.35c0-1.09-1.2-2.13-2.94-2.55C1278.43,4556.17,1277.51,4556.01,1277.31,4556.01Zm12.68,1.4a0.4,0.4,0,0,0,.31-0.42,0.657,0.657,0,0,0-.34-0.56l-2.66-1.66a48.783,48.783,0,0,1-3.77,6.44,2.71,2.71,0,0,0-.68,1.1,0.192,0.192,0,0,0,.2.19c0.45,0,3.64-2.55,6.02-4.84Z" transform="translate(-541.375 -4546.53)"/>
</svg>
