<svg xmlns="http://www.w3.org/2000/svg" width="708.874" height="35.63" viewBox="0 0 708.874 35.63">
  <defs>
    <style>
      .cls-1 {
        fill: #333;
        fill-rule: evenodd;
      }
    </style>
  </defs>
  <path id="ディナービュッフェ以外のメニュー" class="cls-1" d="M588.878,9623.32c-1.207,0-1.792.11-1.792,0.39a0.262,0.262,0,0,0,.273.23,6.046,6.046,0,0,1,3.5,2.69c0.74,1.2.856,1.32,1.557,1.32a1.581,1.581,0,0,0,1.636-1.56C594.057,9624.8,591.565,9623.32,588.878,9623.32Zm-4.011,2.96c-0.935,0-1.285.07-1.285,0.35a0.282,0.282,0,0,0,.194.23,5.706,5.706,0,0,1,3.31,2.96c0.468,0.97.7,1.17,1.4,1.17a1.461,1.461,0,0,0,1.558-1.52C590.046,9627.8,587.593,9626.28,584.867,9626.28Zm-17.757,3.03a0.347,0.347,0,0,0-.234.32,5.447,5.447,0,0,0,1.091,2.1,3.145,3.145,0,0,0,2.492,1.13,54.859,54.859,0,0,0,9.7-1.6c2.1-.47,2.882-0.82,2.882-1.36a2,2,0,0,0-1.208-1.44,6.316,6.316,0,0,0-2.024-.7,1.834,1.834,0,0,0-.7.19,16.05,16.05,0,0,1-2.376.97,25.286,25.286,0,0,1-6.97,1.29,3.843,3.843,0,0,1-2.531-.82A0.206,0.206,0,0,0,567.11,9629.31Zm8.1,8.92a1.6,1.6,0,0,1,.311.97c0,2.15-1.324,5.81-3.115,8.73a23.29,23.29,0,0,1-7.671,7.67c-1.87.97-1.87,0.97-1.87,1.13a0.254,0.254,0,0,0,.312.23,27.587,27.587,0,0,0,5.685-2.26c4.829-2.68,8.684-7.71,10.826-14.02a1.436,1.436,0,0,0,.584-0.89c0-.31-0.351-0.66-1.908-1.83,2.492-.2,3.037-0.23,3.972-0.23a41.09,41.09,0,0,1,5.3.42,5.992,5.992,0,0,0,1.012.12,1.3,1.3,0,0,0,1.441-1.13c0-.66-0.39-1.09-1.6-1.83a6.929,6.929,0,0,0-2.648-1.21c-1.6.98-2.687,1.29-5.958,1.79-3.154.47-13.94,1.6-15.3,1.6-1.636,0-2.376-.31-3.038-1.24a0.788,0.788,0,0,0-.389.74,2.679,2.679,0,0,0,.974,1.94,6.125,6.125,0,0,0,2.959,1.52,2.09,2.09,0,0,0,.623-0.12A38.157,38.157,0,0,1,575.21,9638.23Zm45.763,13.98c-0.039.39-.039,0.74-0.078,1.01a10.484,10.484,0,0,1-.545,1.95,1.981,1.981,0,0,0-.2.78c0,0.7,1.986,2.57,2.765,2.57,0.74,0,1.246-.78,1.246-1.87,0-.39-0.039-1.17-0.078-2.1,0-.47-0.078-1.87-0.117-4.25-0.117-4.2-.117-4.2-0.117-4.51a9.118,9.118,0,0,1,.234-2.38,1.456,1.456,0,0,0,.311-0.74,1.122,1.122,0,0,0-.895-0.82c-0.468-.23-0.662-0.31-1.091-0.54,1.169-1.21,2.8-3.04,3.894-4.36,0.429-.51.624-0.7,0.7-0.78a2,2,0,0,1,.623-0.47,0.756,0.756,0,0,0,.507-0.66c0-.47-0.507-1.13-1.6-2.3a3.552,3.552,0,0,0-2.765-1.4c-0.662,0-1.012.12-1.012,0.35a0.317,0.317,0,0,0,.272.27,1.4,1.4,0,0,1,.74,1.4c0,1.37-1.713,4.21-4.361,7.36-3.31,3.94-7.515,7.48-10.709,9.04a0.384,0.384,0,0,0-.311.31,0.32,0.32,0,0,0,.35.31,17.213,17.213,0,0,0,3.038-1.05c3.193-1.36,5.023-2.65,9.229-6.62a4.345,4.345,0,0,1,.233,2.18c0,0.82,0,.82-0.156,4.6Zm48.021-14.84c2.843-.27,4.517-0.35,6.075-0.35a32.642,32.642,0,0,1,5.062.39,8.166,8.166,0,0,0,.9.08,1.109,1.109,0,0,0,1.168-1.09c0-.43-0.428-0.93-1.441-1.71a7.554,7.554,0,0,0-2.881-1.44,4.178,4.178,0,0,0-1.519.66c-1.519.82-2.375,1.01-7.126,1.6,0.117-3.08.234-5.26,0.311-5.96a2.221,2.221,0,0,1,.312-0.82,0.924,0.924,0,0,0,.156-0.43c0-.86-3.038-2.84-4.362-2.84-0.973,0-2.764.74-2.764,1.17,0,0.11.116,0.15,0.506,0.23,1.713,0.35,2.258,2.03,2.258,6.78,0,0.54-.039,1.16-0.077,2.37-7.633.82-8.723,0.94-10.281,0.94-1.947,0-3.115-.32-3.621-0.98a0.412,0.412,0,0,0-.351-0.27,0.288,0.288,0,0,0-.311.31c0,1.99,2.1,4.29,3.894,4.29a8.325,8.325,0,0,0,2.492-.63,38.741,38.741,0,0,1,8.022-1.87c-0.9,8.69-4.556,15.23-10.242,18.03-0.584.31-.7,0.39-0.7,0.59a0.262,0.262,0,0,0,.272.23,19.384,19.384,0,0,0,4.868-1.83,17.513,17.513,0,0,0,7.009-7.75C667.865,9644.38,668.41,9642.24,668.994,9637.37Zm53.98,1.1a31.368,31.368,0,0,1-6.192,1.32c-2.687.31-12.383,0.89-15.342,0.89-3.116,0-4.4-.35-4.985-1.32a0.57,0.57,0,0,0-.389-0.39c-0.389,0-.584.39-0.584,1.09a3.646,3.646,0,0,0,1.4,3.16,7.013,7.013,0,0,0,3.349,1.28,1.5,1.5,0,0,0,.545-0.12c2.92-1.16,8.683-1.71,18.419-1.71,1.44,0,2.609.04,3.426,0.12,1.675,0.15,2.921.27,3.271,0.27,1.207,0,1.986-.51,1.986-1.29C727.88,9640.26,726.245,9639.13,722.974,9638.47Zm24.813,5.1c0,4.71.311,6.3,1.441,7.86,1.557,2.1,3.7,2.77,8.722,2.77a32.777,32.777,0,0,0,7.983-.86c1.168-.35,1.752-0.93,1.752-1.67,0-1.02-1.947-2.11-4.127-2.26a15.517,15.517,0,0,1-7.633,1.55c-4.049,0-4.984-1.05-4.984-5.52,0-.78,0-1.09.117-3.2A64.545,64.545,0,0,0,762.74,9638c2.531-1.09,3.037-1.44,3.037-1.99a1.747,1.747,0,0,0-.506-1.05,12.448,12.448,0,0,0-2.414-2.06,6.948,6.948,0,0,0-2.337-.51c-0.35,0-.545.08-0.545,0.27a0.784,0.784,0,0,0,.195.39,1.326,1.326,0,0,1,.311.9,3.657,3.657,0,0,1-1.635,2.53,46.245,46.245,0,0,1-7.749,4.63,65.855,65.855,0,0,1,.7-8.52,6.171,6.171,0,0,0,.194-1.33,1.988,1.988,0,0,0-1.207-1.75,6.415,6.415,0,0,0-2.881-1.05c-0.974,0-2.454.5-2.454,0.82a0.253,0.253,0,0,0,.195.19c1.908,0.74,2.259,1.56,2.259,5.18,0,0.82-.039,2.3-0.078,4.4Zm15.537-16.51c-1.051,0-1.635.15-1.635,0.46a0.332,0.332,0,0,0,.272.28,6,6,0,0,1,3.388,2.6c0.545,0.98.74,1.17,1.324,1.17a1.615,1.615,0,0,0,1.713-1.48C768.386,9628.5,765.972,9627.06,763.324,9627.06Zm4.673-2.89c-0.935,0-1.674.24-1.674,0.51a0.372,0.372,0,0,0,.272.27,5.762,5.762,0,0,1,3.388,2.53c0.623,1.06.818,1.21,1.4,1.21a1.7,1.7,0,0,0,1.713-1.52C773.1,9625.65,770.606,9624.17,768,9624.17Zm34.626,24.89c-0.857.07-1.713,0.19-2.531,0.27-0.273,0-2.492.27-5.179,0.58a31.938,31.938,0,0,1-3.271.32,3.7,3.7,0,0,1-2.531-.67c-0.117-.19-0.117-0.19-0.195-0.19a1.17,1.17,0,0,0-.467,1.17c0,0.42.272,0.74,1.051,1.36a5.276,5.276,0,0,0,2.453,1.05,5.368,5.368,0,0,0,2.142-.66,10.851,10.851,0,0,1,2.648-.82,63.236,63.236,0,0,1,9.579-.93,41.846,41.846,0,0,1,7.127.62,6.262,6.262,0,0,0,1.129.19,1.044,1.044,0,0,0,1.168-.85c0-.9-2.181-2.96-3.154-2.96a2.2,2.2,0,0,0-.545.11,13.8,13.8,0,0,1-4.362.9c-0.311.04-1.246,0.12-2.258,0.23,0.7-3.19,1.051-4.67,1.986-7.78,0.818-.7.973-0.9,0.973-1.17,0-.35-0.233-0.59-1.441-1.44-1.713-1.21-1.752-1.25-1.985-1.25a1.287,1.287,0,0,0-.7.31,11.089,11.089,0,0,1-2.3.98,37.881,37.881,0,0,1-6.191,1.13,2.122,2.122,0,0,1-1.714-.74c-0.272-.47-0.272-0.47-0.428-0.47-0.312,0-.467.27-0.467,0.89a2.556,2.556,0,0,0,1.246,2.42,2.272,2.272,0,0,0,1.363.5,8.742,8.742,0,0,0,2.8-.89,14.376,14.376,0,0,1,4.44-1.36,0.757,0.757,0,0,1,.662.89A70.887,70.887,0,0,1,802.623,9649.06Zm39.727-13.63a0.36,0.36,0,0,0-.428.23,0.353,0.353,0,0,0,.273.31c1.518,0.74,3.037,3,3.66,5.53,0.273,1.05.584,1.44,1.246,1.44a2.074,2.074,0,0,0,1.947-2.14C849.048,9638.23,845.582,9635.43,842.35,9635.43Zm15.265,4.13c0.662-.71.74-0.78,0.74-1.06a6.332,6.332,0,0,0-1.908-2.68,3.94,3.94,0,0,0-2.8-1.29,0.533,0.533,0,0,0-.623.39,0.714,0.714,0,0,0,.39.43,2.572,2.572,0,0,1,.506,1.67c0,3.08-2.1,7.64-5.179,11.34a31.217,31.217,0,0,1-10.709,8.29c-0.973.39-.973,0.39-0.973,0.58a0.387,0.387,0,0,0,.389.32c1.48,0,5.646-1.64,8.022-3.12A31.93,31.93,0,0,0,857.615,9639.56Zm-21.3-.82c-0.39,0-.507.08-0.507,0.23a0.626,0.626,0,0,0,.429.47,10.411,10.411,0,0,1,3.543,5.26,1.061,1.061,0,0,0,1.052.85,2,2,0,0,0,1.791-2.18C842.623,9640.92,839.7,9638.74,836.315,9638.74Zm66.868-4.4c1.441-.98,1.792-1.33,1.792-1.64a3.194,3.194,0,0,0-1.363-1.32c-2.22-1.56-2.843-1.91-3.31-1.91a2.407,2.407,0,0,0-1.324.54,11.283,11.283,0,0,1-4.634,1.56,90.3,90.3,0,0,1-9.969,1.21,3.558,3.558,0,0,1-2.959-1.13,0.566,0.566,0,0,0-.312-0.27,0.449,0.449,0,0,0-.311.54,3.679,3.679,0,0,0,1.324,3.12,5.249,5.249,0,0,0,2.375,1.13,1.525,1.525,0,0,0,.623-0.24,16.389,16.389,0,0,1,4.673-1.63,49.058,49.058,0,0,1,7.671-1.33c0.9,0,1.246.24,1.246,0.86a11.7,11.7,0,0,1-.74,2.96,24.53,24.53,0,0,1-5.412,9.23,27.883,27.883,0,0,1-12.7,8.76,0.378,0.378,0,0,0-.35.31,0.333,0.333,0,0,0,.389.28c1.869,0,6.854-1.84,10.008-3.67C895.707,9648.32,899.523,9643.29,903.183,9634.34Zm31.317,15.92-3,.28c-4.089.23-4.089,0.23-4.867,0.23-1.363,0-2.3-.23-2.609-0.66a0.269,0.269,0,0,0-.234-0.2,1.028,1.028,0,0,0-.389,1.09c0,0.55.311,0.98,1.207,1.52,1.791,1.17,1.791,1.17,2.414,1.17a4.256,4.256,0,0,0,1.48-.31c3.427-1.25,7.321-1.79,13.123-1.79a33.991,33.991,0,0,1,7.048.7,9.815,9.815,0,0,0,1.635.27,1.14,1.14,0,0,0,1.13-1.05c0-1.05-2.454-2.92-3.894-2.92a1.054,1.054,0,0,0-.351.04c-1.713.54-2.064,0.62-8.606,1.28,0.117-4.63.312-6.27,0.818-7.9a1.2,1.2,0,0,0,.156-0.51,2.9,2.9,0,0,0-1.441-1.32c1.4-.12,2.531-0.16,3.777-0.16,0.545,0,.545,0,2.57.08l0.468,0.04h0.389a0.91,0.91,0,0,0,.935-0.86,1.835,1.835,0,0,0-.935-1.32,4.953,4.953,0,0,0-2.375-1.13,2.812,2.812,0,0,0-1.052.35,19.444,19.444,0,0,1-6.308,1.4,53.955,53.955,0,0,1-5.413.47,3.444,3.444,0,0,1-2.141-.58c-0.312-.39-0.312-0.39-0.39-0.39-0.195,0-.272.15-0.272,0.54,0,1.44,1.246,3,2.414,3a1.911,1.911,0,0,0,.35-0.08,6.168,6.168,0,0,1,1.83-.58,16.681,16.681,0,0,1,2.687-.43c0.974,0,1.091.47,1.091,4.63a43.958,43.958,0,0,1-.195,5.03Zm32.912,3.08a1.137,1.137,0,0,0,.818.47,0.9,0.9,0,0,0,.74-0.7l0.389-1.05c4.946-2.15,9.463-4.25,12.422-5.65,2.415-1.21,2.726-1.36,2.726-1.68a0.32,0.32,0,0,0-.35-0.31,5.272,5.272,0,0,0-1.285.31c-5.958,1.83-7.749,2.38-9.658,2.81V9629.2l0.779-.47a0.846,0.846,0,0,0,.506-0.74,0.874,0.874,0,0,0-.895-0.86l-3.972-.5v21.84c-3.154.78-3.31,0.82-4.984,1.13Zm27.8-26.25a0.8,0.8,0,0,0,.428-0.7,0.856,0.856,0,0,0-.818-0.85l-4.478-.67c-0.078,13.63-.623,18.46-2.57,22.24-2.414,4.95-6.892,8.18-14.758,10.55-0.9.28-1.168,0.43-1.168,0.7a0.351,0.351,0,0,0,.428.32,42.781,42.781,0,0,0,9-2.38c4.439-1.79,6.737-3.58,9.073-7.09a14.458,14.458,0,0,1,4.439,5.49c1.324,2.53,1.324,2.53,1.792,2.96a1.473,1.473,0,0,0,1.051.43,1.735,1.735,0,0,0,1.713-1.91,5.838,5.838,0,0,0-1.947-4.01c-1.6-1.63-3-2.49-6.542-3.89,2.1-4.29,3.038-10.17,3.194-20.6Zm-17.952.12a0.381,0.381,0,0,0-.35.35,0.983,0.983,0,0,0,.233.35,11.59,11.59,0,0,1,3.739,6.15c0.74,2.42,1.09,2.89,2.1,2.89a1.918,1.918,0,0,0,1.869-2.18c0-1.91-1.285-3.98-3.388-5.53A13.543,13.543,0,0,0,977.264,9627.21Zm57.876-1.13,0.85-.43a0.782,0.782,0,0,0,.55-0.74,0.879,0.879,0,0,0-.86-0.81l-4.09-.39v14.48a15.854,15.854,0,0,1-2.76-5.8l0.58-.19a0.54,0.54,0,0,0,.39-0.51,0.783,0.783,0,0,0-.39-0.62l-3.31-2.81-1.28,2.3h-5.84c0.58-1.67.66-1.95,1.24-3.78l0.9-.39a0.79,0.79,0,0,0,.66-0.74,0.776,0.776,0,0,0-.58-0.7l-4.6-1.24c-0.66,7.51-3.04,14.99-6.54,20.4a2.471,2.471,0,0,0-.58,1.17,0.207,0.207,0,0,0,.19.23c0.74,0,4.32-4.4,5.84-7.16,1.44,1.13,1.87,1.83,3,4.63,0.51,1.25,1.01,1.75,1.75,1.72a4.05,4.05,0,0,0,.59-0.08,28.15,28.15,0,0,1-10.48,11.56,0.873,0.873,0,0,0-.47.59,0.2,0.2,0,0,0,.24.19,23.341,23.341,0,0,0,4.01-1.91c4.98-2.99,7.59-5.64,10.08-10.24a47.209,47.209,0,0,0,4.02-10.9,22.379,22.379,0,0,0,3.34,7.71v16.47c0,0.62.16,0.86,0.63,0.86a9.581,9.581,0,0,0,2.26-.51,0.757,0.757,0,0,0,.66-0.82v-11.95a31.568,31.568,0,0,0,7.9,5.41,10.765,10.765,0,0,1,3.51-3.5,31.917,31.917,0,0,1-11.41-5.69v-15.81Zm-10.4,5.53a56.231,56.231,0,0,1-2.8,10.55c-0.47-2.53-2.46-3.97-6.08-4.43a64.066,64.066,0,0,0,2.77-6.12h6.11Zm48.96-1.91c0.43-.04.7-0.04,0.81-0.04a9.278,9.278,0,0,1,4.02.94c3.38,1.71,5.14,5.26,5.14,10.47,0,4.79-1.6,8.34-4.99,11.1a20.813,20.813,0,0,1-6.97,3.62c-0.62.2-.74,0.24-0.74,0.43,0,0.16.16,0.24,0.39,0.24a17.042,17.042,0,0,0,2.49-.47,23.952,23.952,0,0,0,7.21-2.65,14.355,14.355,0,0,0,7.2-12.46,11.738,11.738,0,0,0-3.08-8.22,15.043,15.043,0,0,0-10.94-4.28c-9.11,0-16.94,7.36-16.94,15.93a10.14,10.14,0,0,0,1.91,6.27,4.733,4.733,0,0,0,3.27,2.14c2.14,0,5.53-2.77,7.83-6.35a25.123,25.123,0,0,0,3.89-12.66A14.871,14.871,0,0,0,1073.7,9629.7Zm-1.91.16a2.3,2.3,0,0,0,.08.27,9.724,9.724,0,0,1,.23,2.18c0,3.47-1.48,7.79-3.97,11.65-1.64,2.57-3.86,4.59-5.06,4.59s-2.26-2.02-2.26-4.32a15.273,15.273,0,0,1,4.59-10.87A14.711,14.711,0,0,1,1071.79,9629.86Zm52.07,9.62a45.579,45.579,0,0,0,3.15-5.8,3.129,3.129,0,0,1,.98-1.48,0.9,0.9,0,0,0,.54-0.74c0-.59-1.17-2.03-2.45-3a7.182,7.182,0,0,0-3.31-1.52,0.565,0.565,0,0,0-.55.39,0.268,0.268,0,0,0,.12.15,3.433,3.433,0,0,1,1.09,2.73c0,1.64-.82,4.21-2.37,7.32a19.335,19.335,0,0,0-9.04-2.92,0.57,0.57,0,0,0-.66.35c0,0.23.2,0.35,0.86,0.55,2.57,0.85,4.44,2.06,7.24,4.63-4.59,6.23-9.97,11.14-15.19,13.9-1.01.51-1.16,0.62-1.16,0.82a0.342,0.342,0,0,0,.31.35c0.85,0,5.29-1.83,7.59-3.12,3.93-2.25,6.97-4.9,10.86-9.69a21.905,21.905,0,0,1,3,3.81c0.9,1.33,1.17,1.56,1.87,1.56a1.979,1.979,0,0,0,1.95-2.06C1128.69,9643.88,1127.21,9641.97,1123.86,9639.48Zm44.09-7.99a11.362,11.362,0,0,1-3,1.41,39.269,39.269,0,0,1-6.85,1.01,7.63,7.63,0,0,1-3.24-.82,0.791,0.791,0,0,0-.27-0.15,0.172,0.172,0,0,0-.19.15,3.212,3.212,0,0,0,.7,1.44c1.05,1.6,1.91,2.18,3.31,2.18a29.282,29.282,0,0,0,5.37-.74c2.07-.39,3-0.5,5.61-0.89,2.1-.31,2.61-0.55,2.61-1.17C1172,9632.86,1170.25,9631.81,1167.95,9631.49Zm-20.25,14.14a0.354,0.354,0,0,0-.35.35c0,1.91,2.45,4.6,4.17,4.6a4.687,4.687,0,0,0,1.55-.39c3.98-1.48,10.95-2.42,18.27-2.42a32.912,32.912,0,0,1,5.99.47,14.259,14.259,0,0,0,1.56.15,1.02,1.02,0,0,0,1.17-.97,2.577,2.577,0,0,0-1.44-2.06c-1.79-1.29-2.57-1.72-3-1.72a3.74,3.74,0,0,0-1.05.28,16.643,16.643,0,0,1-6.04,1.52c-7.47.93-14.05,1.55-16.12,1.55-2.18,0-3.74-.39-4.32-1.05A0.53,0.53,0,0,0,1147.7,9645.63Zm61.53,3.43c-0.85.07-1.71,0.19-2.53,0.27-0.27,0-2.49.27-5.18,0.58a31.855,31.855,0,0,1-3.27.32,3.725,3.725,0,0,1-2.53-.67c-0.12-.19-0.12-0.19-0.19-0.19a1.159,1.159,0,0,0-.47,1.17c0,0.42.27,0.74,1.05,1.36a5.3,5.3,0,0,0,2.45,1.05,5.4,5.4,0,0,0,2.15-.66,10.72,10.72,0,0,1,2.64-.82,63.31,63.31,0,0,1,9.58-.93,41.9,41.9,0,0,1,7.13.62,6.255,6.255,0,0,0,1.13.19,1.047,1.047,0,0,0,1.17-.85c0-.9-2.18-2.96-3.16-2.96a2.2,2.2,0,0,0-.54.11,13.865,13.865,0,0,1-4.36.9c-0.32.04-1.25,0.12-2.26,0.23,0.7-3.19,1.05-4.67,1.98-7.78,0.82-.7.98-0.9,0.98-1.17,0-.35-0.24-0.59-1.44-1.44-1.72-1.21-1.76-1.25-1.99-1.25a1.28,1.28,0,0,0-.7.31,11.192,11.192,0,0,1-2.3.98,37.966,37.966,0,0,1-6.19,1.13,2.109,2.109,0,0,1-1.71-.74c-0.28-.47-0.28-0.47-0.43-0.47-0.31,0-.47.27-0.47,0.89a2.55,2.55,0,0,0,1.25,2.42,2.247,2.247,0,0,0,1.36.5,8.692,8.692,0,0,0,2.8-.89,14.422,14.422,0,0,1,4.44-1.36,0.762,0.762,0,0,1,.67.89A70.035,70.035,0,0,1,1209.23,9649.06Zm55.89-10.59a31.319,31.319,0,0,1-6.19,1.32c-2.69.31-12.38,0.89-15.34,0.89-3.12,0-4.4-.35-4.99-1.32a0.559,0.559,0,0,0-.39-0.39c-0.39,0-.58.39-0.58,1.09a3.653,3.653,0,0,0,1.4,3.16,7.005,7.005,0,0,0,3.35,1.28,1.522,1.522,0,0,0,.55-0.12c2.92-1.16,8.68-1.71,18.41-1.71,1.45,0,2.61.04,3.43,0.12,1.68,0.15,2.92.27,3.27,0.27,1.21,0,1.99-.51,1.99-1.29C1270.03,9640.26,1268.39,9639.13,1265.12,9638.47Z" transform="translate(-561.156 -9623.31)"/>
</svg>
