<svg xmlns="http://www.w3.org/2000/svg" viewBox="0 0 170.83 21.99"><defs><style>.cls-1{fill:#333;}</style></defs><title>toya-banner-title</title><g id="Layer_2" data-name="Layer 2"><g id="Layer_1-2" data-name="Layer 1"><path class="cls-1" d="M9.67,16.44H6.53c-1.18,0-1.32,0-4.47.12l-.28-.89c2.49.12,3.5.15,4.75.15H9.67V11.91H4.73v1.46c0,.29-.79.67-1.39.67-.2,0-.27-.09-.27-.33V1.15L5.16,2.33H16.27l.7-1,1.34,1.2a1.23,1.23,0,0,1,.44.65.45.45,0,0,1-.39.38l-.33.1v9.22c0,.31-.7.67-1.28.67-.24,0-.33-.12-.33-.39V11.91H11.33v3.91h5l1.2-1.44,1.84,1.44a.44.44,0,0,1,.22.38c0,.15-.12.24-.29.24h-8v3.82h6.41l1.51-1.61,2,1.66a.42.42,0,0,1,.15.31.27.27,0,0,1-.27.26H4.75c-1.2,0-1.27,0-4.46.12L0,20.14c2.59.09,3.65.12,4.75.12H9.67Zm0-9.67V3H4.73V6.77Zm0,4.51V7.39H4.73v3.89Zm6.75-4.51V3H11.33V6.77Zm0,4.51V7.39H11.33v3.89Z"/><path class="cls-1" d="M31,5.42c.41,0,.65.27.65.56a.56.56,0,0,1-.34.48l-.45.26V18.65H37V1l2,.19c.44.05.68.24.68.58s-.15.36-.46.55l-.53.26V18.65h6.51V5.21l2.28.24c.33,0,.5.21.5.5a.55.55,0,0,1-.33.51L47,6.84V20.47c0,.51-.56.87-1.35.87-.29,0-.38-.12-.38-.43V19.23H30.82v1.7c0,.46-.48.79-1.18.79-.34,0-.53-.12-.53-.33V5.23Z"/><path class="cls-1" d="M57,4.46a9.41,9.41,0,0,1,.63,3.36,4.94,4.94,0,0,1-.51,2.36,1.18,1.18,0,0,1-1.15.74c-.5,0-.86-.29-.86-.7a2.33,2.33,0,0,1,.31-1c1.22-2.14,1.3-2.38,1.3-3.65,0-.29,0-.55-.08-1.08Zm2.84.63c1.51.53,2.76,1.8,2.76,2.78a.91.91,0,0,1-.82.94c-.36,0-.55-.19-.7-.72a4.21,4.21,0,0,0-1.24-2.43V21.24c0,.36-.63.75-1.2.75-.17,0-.27-.15-.27-.44V.31l1.87.17c.46.05.7.22.7.53s-.14.36-.43.5l-.67.34Zm1.27,7.53,2.21.08,2,.05h3.07v-2l1.68.17c.21,0,.36.14.36.33a.34.34,0,0,1-.24.31l-.34.15v1h4.25l1.15-1.49,1.87,1.41a.41.41,0,0,1,.17.34c0,.19-.07.31-.19.31H70a12.79,12.79,0,0,0,2.11,3.17,30.68,30.68,0,0,0,2.69-2.74l1.37,1.13a.63.63,0,0,1,.21.39c0,.16-.16.28-.43.28h-.81l-2.62,1.37a15.25,15.25,0,0,0,5.11,2.86,4.52,4.52,0,0,0-1.85,1.34,13.57,13.57,0,0,1-6.28-7.58,20.19,20.19,0,0,1-2.14,1.8v4.15c1.75-.24,2.62-.38,4.51-.77l.1.48c-1.2.46-3.82,1.23-6.29,1.87l-.38.53a.65.65,0,0,1-.41.22c-.12,0-.27-.12-.39-.34l-1-1.56a23.89,23.89,0,0,0,2.4-.21V16.44A18.85,18.85,0,0,1,61.22,19C61.1,19,61,19,61,18.87s.09-.2.29-.32a21.27,21.27,0,0,0,6.17-5.23H65.31c-1.35,0-1.59,0-3.89.1ZM64.8,6.19h3.55V3.72H66l-2,0c-.26,0-1,0-1.85,0L61.78,3c.93,0,1.84,0,2.16.08l2,0h2.4V.22l1.73.14c.39,0,.63.24.63.5s-.12.39-.44.58l-.48.34V3.14h3.75L75,1.63l1.8,1.42a.54.54,0,0,1,.17.38c0,.15-.19.29-.36.29H69.79V6.19h3.87l.67-.91,1.42,1.37a.34.34,0,0,1,.16.26c0,.15-.07.22-.24.29l-.43.19v3.1c0,.36-.48.69-1,.69-.24,0-.43-.14-.43-.33v-.53H64.44v.74c0,.32-.5.61-1,.61a.35.35,0,0,1-.36-.37V5.23Zm2,3.56v-3H64.44v3Zm3.45,0v-3H68v3Zm3.65,0v-3H71.52v3Z"/><path class="cls-1" d="M83.64,2.33c2.62.09,3.65.12,4.73.12h12.91L102.79.82l2,1.51a.53.53,0,0,1,.24.41.3.3,0,0,1-.29.28H93.87a32.72,32.72,0,0,1-3.34,7l.65.55h8.35l.7-1L102,10.87a.44.44,0,0,1,.2.34.37.37,0,0,1-.22.31l-.55.24v8.38c0,.43-.67.89-1.25.89a.55.55,0,0,1-.53-.48v-1H91V21c0,.41-.65.84-1.25.84a.5.5,0,0,1-.5-.55V12A23.11,23.11,0,0,1,85,16a6.72,6.72,0,0,1-2,1.25.26.26,0,0,1-.24-.24c0-.12.09-.24.28-.38a23.22,23.22,0,0,0,4.83-5.28A28,28,0,0,0,91.63,3H88.37l-4.44.12ZM99.6,19V11.14H91V19Z"/><path class="cls-1" d="M122.59,4c2.16.26,3.43,1,4.08,2.35a22,22,0,0,0,2.14-3.6h-3.1c-1.08,0-1.56.05-2.95.07l-.26-.74,1.77.05,1.44,0h3.12l.89-1.05,1.58,1.39c.29.24.37.34.37.43s-.15.22-.39.34l-.77.33c-.17.22-.33.46-.5.7a26.82,26.82,0,0,1-3.29,4.13h6.12l1.37-1.37,1.56,1.15a.61.61,0,0,1,.22.44c0,.21-.12.35-.27.35H126.1a18.5,18.5,0,0,1-3.75,2.72,5.58,5.58,0,0,1-1.65.81.21.21,0,0,1-.2-.21c0-.12.12-.27.34-.41a19.39,19.39,0,0,0,4.68-4.06c-.38-.12-.43-.17-.65-.65-.67-1.82-1.08-2.35-2.28-2.92Zm4.8,7.37h8.14l.67-1,1.66,1.39c.19.17.26.27.26.38s-.09.24-.26.32l-.51.19v3.79c0,.41-.57.77-1.24.77-.24,0-.32-.1-.32-.38v-.92h-8.52v.63a4.11,4.11,0,0,1,1.56.74,2.85,2.85,0,0,1,1.37,2.26,1.83,1.83,0,0,1-.36,1.13h2.69a21.65,21.65,0,0,0,1-4.52l1.92.75a.38.38,0,0,1,.29.38.36.36,0,0,1-.22.34l-.41.21-1.61,2.84h5l1.75-1.83,2.09,1.68a.45.45,0,0,1,.22.36.35.35,0,0,1-.31.36H125.57l-2.35.07-2,.05-.41-.81,2.26,0c1.27.05,2.11.08,2.47.08h3a1.76,1.76,0,0,1-.19-.41c0-.07-.05-.48-.1-1.11a3.5,3.5,0,0,0-1-2.25c-.17.31-.21.36-.67.48a3,3,0,0,1-.6.16c-.24,0-.31-.14-.31-.5v-6.6Zm8.4,4V12h-8.52v3.39ZM132.22,0a15.65,15.65,0,0,0,2,3.79A20.09,20.09,0,0,0,137.07.91L138.31,2c.19.17.29.29.29.39s-.1.19-.33.24l-.56.12-3.09,1.63a9.14,9.14,0,0,0,1.87,1.94l.5-.48A17.44,17.44,0,0,0,139.56,3l1.32,1c.27.21.39.38.39.55s-.17.26-.44.29l-.6.07L137,6.72a19.49,19.49,0,0,0,6.29,2.93c-1.49.74-1.56.81-2.09,1.73A20.27,20.27,0,0,1,135,6.62,16.16,16.16,0,0,1,131.59.14Z"/><path class="cls-1" d="M155.42,12.58h7.8l.68-.84,1.41,1.32a.58.58,0,0,1,.19.38.27.27,0,0,1-.19.24l-.28.12v7c0,.36-.7.77-1.3.77a.38.38,0,0,1-.39-.38V19.83h-8.18v1.22c0,.38,0,.43-.31.6a1.84,1.84,0,0,1-.94.31c-.24,0-.38-.14-.38-.41V12.38a19,19,0,0,1-5,2.57.19.19,0,0,1-.2-.16c0-.15,0-.15.87-.63,4.22-2.37,6.41-4.87,9.29-10.63l1.7.67a.47.47,0,0,1,.36.43c0,.15-.07.24-.31.39l-.41.24c1.78,3,6.65,6.24,11,7.22-1.41.77-1.94,1.2-2.28,1.9C164,11.86,161,9,159.36,5.76a27.67,27.67,0,0,1-5.18,6.12Zm.7-11c.26.17.41.34.41.53s-.17.36-.48.46l-.65.21a24.61,24.61,0,0,1-4.8,4.66,4.56,4.56,0,0,1-1.58.89.13.13,0,0,1-.15-.15c0-.14.1-.28.43-.57a25,25,0,0,0,5.19-7Zm7.22,17.67v-6.1h-8.18v6.1Zm-2-18.46c4.35,1.47,7.2,3.75,7.2,5.81a.9.9,0,0,1-.81,1c-.36,0-.77-.43-1.32-1.41a16.7,16.7,0,0,0-5.28-5Z"/></g></g></svg>