<svg xmlns="http://www.w3.org/2000/svg" width="383.879" height="26.69" viewBox="0 0 383.879 26.69">
  <defs>
    <style>
      .cls-1 {
        fill: #333;
        fill-rule: evenodd;
      }
    </style>
  </defs>
  <path id="栃木県が誇るブランド食材" class="cls-1" d="M722.849,3740.86c1.68-.06,2.38-0.09,3.22-0.09h0.448a31.7,31.7,0,0,1-3.948,11.93,1.228,1.228,0,0,0-.28.59,0.186,0.186,0,0,0,.168.17c0.532,0,2.912-3.05,4.2-5.41v10.14a0.371,0.371,0,0,0,.448.45,4.961,4.961,0,0,0,1.512-.31,0.657,0.657,0,0,0,.616-0.67v-11.93a6.5,6.5,0,0,1,.924,2.49,2.633,2.633,0,0,0,.308,1.01,1.166,1.166,0,0,0,.98.42,1.3,1.3,0,0,0,1.232-1.51c0-1.49-1.288-2.66-3.444-3.11v-4.26h3.78a0.387,0.387,0,0,0,.224-0.42,0.647,0.647,0,0,0-.224-0.5l-1.82-1.76-1.568,1.93h-0.392v-5.27l0.532-.3a0.62,0.62,0,0,0-.448-1.15l-2.66-.23v6.95h-0.588c-0.308,0-.868,0-1.484-0.03l-2.268-.08Zm10.808-5.99c0.168,2.04.224,3.92,0.224,8.09a43.808,43.808,0,0,1-.868,9.01,16.06,16.06,0,0,1-2.072,4.99,1.948,1.948,0,0,0-.476.89,0.185,0.185,0,0,0,.2.17c0.448,0,1.988-1.73,3.192-3.58,1.848-2.89,2.436-5.77,2.492-12.46h2.436c0.028,8.85-.868,12.26-4.228,16.1a0.959,0.959,0,0,0-.28.47,0.19,0.19,0,0,0,.2.2c0.42,0,2.212-1.46,3.416-2.77,1.932-2.05,2.772-4.43,3.22-9.1h3.388a38.309,38.309,0,0,1-.448,6.05c-0.308,1.87-.728,2.52-1.568,2.52-0.532,0-1.344-.06-2.156-0.12a5.545,5.545,0,0,0-.728-0.05,0.236,0.236,0,0,0-.28.19,0.441,0.441,0,0,0,.364.34l0.2,0.08,0.336,0.14,1.036,0.48a3.93,3.93,0,0,1,.616.28l0.084,0.03c0.168,0.05.2,0.11,0.224,0.42,0.028,1.03.112,1.17,0.56,1.17a2.943,2.943,0,0,0,1.26-.36,4.116,4.116,0,0,0,2.1-2.8,29.2,29.2,0,0,0,.924-7.08l0.476-.28a0.544,0.544,0,0,0,.28-0.51,0.87,0.87,0,0,0-.28-0.61l-2.156-2.27-1.036,1.62h-3.136c0.14-1.54.168-2.32,0.2-4.14h7.252a0.307,0.307,0,0,0,.28-0.31,0.4,0.4,0,0,0-.168-0.31l-2.324-2.07-1.82,1.93h-8.232v-4.14a58.993,58.993,0,0,0,10.164-1.04l1.2,0.14h0.14a0.378,0.378,0,0,0,.448-0.33,0.8,0.8,0,0,0-.336-0.59l-2.212-2.05a28.8,28.8,0,0,1-8.988,3.06Zm33.04,23.26a0.348,0.348,0,0,0,.42.4,5.086,5.086,0,0,0,1.792-.42,0.477,0.477,0,0,0,.28-0.51v-14.98c1.932,5.97,4.648,9.63,9.436,12.8,1.372-1.6,1.456-1.68,2.912-2.33a20.777,20.777,0,0,1-11.984-11.59h10.7a0.355,0.355,0,0,0,.392-0.33,1.062,1.062,0,0,0-.476-0.7l-2.464-2.08-1.96,2.36h-6.552v-6.08l0.644-.34a0.726,0.726,0,0,0,.42-0.61c0-.37-0.224-0.53-0.868-0.56l-2.688-.2v7.79h-5.824c-0.056,0-1.288-.03-2.436-0.06l-3.08-.11,0.672,1.06c1.064-.03,2.072-0.05,2.408-0.08,1.232-.03,2.072-0.06,2.436-0.06h5.32c-1.736,4.82-6.244,10.59-10.948,14.11a0.418,0.418,0,0,0-.2.28,0.129,0.129,0,0,0,.14.14,16.813,16.813,0,0,0,4-2.29,38.158,38.158,0,0,0,7.5-7.87v12.26Zm29.484-5.15a0.629,0.629,0,0,0,.616-0.56,0.656,0.656,0,0,0-.448-0.53l-2.212-1.34a28.437,28.437,0,0,1-5.88,7.05,1.12,1.12,0,0,0-.56.56,0.2,0.2,0,0,0,.2.2,12.146,12.146,0,0,0,2.436-1.23,25.536,25.536,0,0,0,5.068-3.95Zm-4.116-3.22h7.14v8.46c0,0.33.112,0.47,0.392,0.47a11.428,11.428,0,0,0,1.512-.25,0.659,0.659,0,0,0,.588-0.73v-7.95h11.06c0.42,0,.56-0.11.56-0.45a0.541,0.541,0,0,0-.28-0.44l-2.52-1.99-1.876,2.13H792.065v-11.9l0.56-.4a0.791,0.791,0,0,0,.336-0.53,0.689,0.689,0,0,0-.812-0.56l-2.52-.17v15.71a0.389,0.389,0,0,0,.476.45,5.77,5.77,0,0,0,1.484-.31,0.58,0.58,0,0,0,.476-0.64v-0.9Zm5.824-4.06h8.064v1.09c0,0.45.112,0.56,0.588,0.56a8.822,8.822,0,0,0,1.4-.19,0.46,0.46,0,0,0,.448-0.51v-10.3l0.308-.11a0.707,0.707,0,0,0,.616-0.59,1.055,1.055,0,0,0-.364-0.67l-2.184-2.07-1.064,1.45h-7.476l-2.688-1.31v14.36a0.434,0.434,0,0,0,.5.53,6.466,6.466,0,0,0,1.4-.28,0.462,0.462,0,0,0,.448-0.5v-1.46Zm0-.75v-2.89h8.064v2.89h-8.064Zm0-3.64v-2.78h8.064v2.78h-8.064Zm0-3.53v-2.66h8.064v2.66h-8.064Zm5.6,13.1a0.211,0.211,0,0,0-.224.23,1.316,1.316,0,0,0,.728.58,13.8,13.8,0,0,1,4.62,4.15c1.456,2.01,1.568,2.13,2.212,2.13a1.256,1.256,0,0,0,1.232-1.4,3.589,3.589,0,0,0-1.652-2.75,13.749,13.749,0,0,0-3.248-1.85A29.236,29.236,0,0,0,803.489,3750.88Zm33.992-16.04a1.3,1.3,0,0,0-1.2.33c0,0.12.084,0.2,0.392,0.28a4.007,4.007,0,0,1,2.128,1.63c0.616,0.98.616,0.98,1.092,0.98a1.188,1.188,0,0,0,1.232-1.09C841.121,3735.87,839.329,3734.84,837.481,3734.84Zm3.724-1.6c-0.728,0-1.232.14-1.232,0.34,0,0.14.056,0.19,0.42,0.31a4.662,4.662,0,0,1,2.324,1.87c0.42,0.73.56,0.81,1.008,0.81a1.223,1.223,0,0,0,1.232-1.09C844.957,3734.33,843.109,3733.24,841.205,3733.24Zm-14.476,2.69c1.036,0,1.68.87,1.68,2.3a17.405,17.405,0,0,1-.42,3.66,20.322,20.322,0,0,1-4.676,1.1,1.648,1.648,0,0,1-1.484-.79c-0.084-.31-0.112-0.33-0.224-0.33a0.815,0.815,0,0,0-.28.84c0,1.45.868,2.63,1.932,2.63a3.509,3.509,0,0,0,1.6-.56c1.036-.53,1.344-0.67,2.8-1.37a27.965,27.965,0,0,1-5.544,10.19c-0.84.89-.98,1.12-0.98,1.54a1.339,1.339,0,0,0,1.456,1.23,2.28,2.28,0,0,0,1.4-.48,5.7,5.7,0,0,0,1.008-1.45,60.219,60.219,0,0,0,4.984-11.82,6.74,6.74,0,0,1,2.072-.5c1.036,0,1.512.78,1.512,2.49a20.237,20.237,0,0,1-1.316,7.14,2.068,2.068,0,0,1-1.6,1.51c-0.392,0-.56-0.11-2.072-1.4a2.029,2.029,0,0,0-.812-0.56,0.216,0.216,0,0,0-.2.17,0.8,0.8,0,0,0,.28.42,6.262,6.262,0,0,1,1.4,3.42c0.056,0.78.224,0.95,0.9,0.95a4.925,4.925,0,0,0,3.864-2.24c1.12-1.68,1.876-5.1,1.876-8.4,0-2.97-1.26-4.62-3.556-4.62a7.759,7.759,0,0,0-2.016.31,28.479,28.479,0,0,0,.84-4.18c0-.86-1.736-2.01-3.052-2.01a2.562,2.562,0,0,0-1.764.73,0.156,0.156,0,0,0,.14.11,0.287,0.287,0,0,0,.14-0.03h0.112Zm13.86,11.48c1.484,0,2.044.17,2.772,0.87a1.043,1.043,0,0,0,.756.36c0.924,0,1.512-.87,1.512-2.21a6.878,6.878,0,0,0-6.888-6.64c-0.728,0-1.12.12-1.12,0.31,0,0.14.056,0.2,0.364,0.23a5.975,5.975,0,0,1,3.472,2.24,4.953,4.953,0,0,1,1.26,2.63,0.968,0.968,0,0,1-.728.89,18.17,18.17,0,0,1-2.548.96c-0.2.05-.28,0.11-0.28,0.22a0.219,0.219,0,0,0,.224.22c0.112,0,.308-0.02.56-0.05A3.371,3.371,0,0,1,840.589,3747.41Zm12.04-7.92c1.26-.06,1.792-0.09,3.164-0.09h6.16c0.392,0,.532-0.08.532-0.31a0.535,0.535,0,0,0-.252-0.42h3.444a21.941,21.941,0,0,1-4.7,7.73c-0.868.81-.868,0.81-0.868,0.98a0.288,0.288,0,0,0,.28.31,2.111,2.111,0,0,0,.84-0.42l0.252-.14,0.476,0.76c0.728,0,1.792-.03,3.22-0.09H865.9a32.71,32.71,0,0,1-1.344,3.84,4.666,4.666,0,0,0-.42,1.29c0,0.3.56,0.47,1.6,0.47a0.927,0.927,0,0,0,.952-0.78c0.112-.34.2-0.48,0.56-1.35h5.488a20.18,20.18,0,0,1-.924,3.03c-0.42.95-.756,1.12-2.156,1.12a20.746,20.746,0,0,1-3.024-.25,1.285,1.285,0,0,0-.308-0.03,0.249,0.249,0,0,0-.308.22c0,0.17.028,0.17,0.56,0.37a17.923,17.923,0,0,1,2.716,1.12c0.168,0.08.168,0.14,0.168,0.44,0,0.93.2,1.18,0.9,1.18a3.945,3.945,0,0,0,2.828-1.62,10.545,10.545,0,0,0,1.848-4.29l0.5-.11a0.506,0.506,0,0,0,.532-0.5,0.634,0.634,0,0,0-.168-0.45l-2.128-2.38-1.036,1.4h-5.18c0.448-1.32.784-2.24,0.924-2.72h7.532a0.383,0.383,0,0,0,.476-0.39,0.517,0.517,0,0,0-.2-0.36l-2.436-1.94-1.68,1.94h-7c-2.156-.09-2.912-0.09-3.36-0.12a20.207,20.207,0,0,0,2.94-2.66h7.476c0.336,0,.5-0.11.5-0.36a0.58,0.58,0,0,0-.252-0.39l-1.96-1.6-1.4,1.6h-3.668a17.394,17.394,0,0,0,2.884-4.85h1.4c0.868,2.69,3.388,5.69,6.748,7.98a5.307,5.307,0,0,1,2.38-2.21c-4.228-1.62-6.748-3.36-8.344-5.77h7.14c0.532,0,.7-0.08.7-0.36a0.779,0.779,0,0,0-.392-0.56l-2.408-1.93-1.848,2.1h-5.04c0.112-.31.224-0.59,0.252-0.67,0.084-.2.224-0.68,0.476-1.43l0.252-.81,0.588-.23a0.642,0.642,0,0,0,.56-0.61,0.62,0.62,0,0,0-.56-0.59l-3-.81c-0.42,1.98-.812,3.55-1.288,5.15h-4.508l-1.484-1.15-1.624,1.88h-2.548c-1.288,0-2.016-.03-3.752-0.12Zm3.08,16.63h3.024v1.26a0.313,0.313,0,0,0,.364.36,8.573,8.573,0,0,0,1.484-.25,0.684,0.684,0,0,0,.476-0.73v-5.85l0.308-.08a0.552,0.552,0,0,0,.476-0.56,0.957,0.957,0,0,0-.364-0.65l-1.876-2.07-1.092,1.57h-2.352l-2.8-1.37v10.47a0.294,0.294,0,0,0,.336.36,8.075,8.075,0,0,0,1.372-.25,0.649,0.649,0,0,0,.644-0.67v-1.54Zm0-.76v-5.49h3.024v5.49h-3.024Zm-2.268-8.93h7.2c0.336,0,.476-0.11.476-0.36a0.59,0.59,0,0,0-.224-0.4l-1.876-1.54-1.316,1.54h-4.256v0.76Zm0-4.28v0.75h7.2c0.448,0,.588-0.08.588-0.36a0.571,0.571,0,0,0-.224-0.39l-1.932-1.6-1.428,1.6h-4.2Zm0.2-6.22h7.028c0.42,0,.588-0.11.588-0.39a0.726,0.726,0,0,0-.308-0.51l-1.988-1.51-1.484,1.65h-3.836v0.76Zm47.964,18.56c-0.112-.19-0.168-0.33-0.224-0.42a4.475,4.475,0,0,0-4.2-2.46c-1.96,0-3.136.9-3.136,2.41,0,1.65,1.82,2.71,4.592,2.71a9.5,9.5,0,0,0,6.244-2.07,6.728,6.728,0,0,0,2.3-4.9c0-3.11-2.66-5.43-6.244-5.43a8.932,8.932,0,0,0-4.228.98,0.1,0.1,0,0,1-.084.03,0.062,0.062,0,0,1-.056-0.06c0-.81,4.284-5.43,6.16-6.63,0.756-.48,1.008-0.76,1.008-1.15,0-.84-2.212-2.33-3.5-2.33a2.019,2.019,0,0,0-1.092.4,13.639,13.639,0,0,1-5.852,2.1,1.1,1.1,0,0,1-1.12-.59c-0.084-.23-0.112-0.25-0.168-0.25-0.168,0-.252.3-0.252,0.89a2.3,2.3,0,0,0,.448,1.49,2.38,2.38,0,0,0,1.652,1.03,1.992,1.992,0,0,0,1.232-.67c1.6-1.26,3.7-2.49,4.256-2.49a0.316,0.316,0,0,1,.308.33c0,1.12-2.38,4.71-5.18,7.82-1.2,1.34-3.276,3.44-4.48,4.53a1.775,1.775,0,0,0-.784,1.35,2.484,2.484,0,0,0,1.792,2.18c0.364,0,.644-0.28,1.036-1.12a21.216,21.216,0,0,1,2.688-4.2,7.173,7.173,0,0,1,5.4-2.6,4.248,4.248,0,0,1,2.716,1.06,4.3,4.3,0,0,1,1.344,3.36,6.117,6.117,0,0,1-.644,2.83A5,5,0,0,1,901.6,3754.49Zm-2.52.68c-0.364.02-.588,0.02-0.644,0.02-1.568,0-2.94-.67-2.94-1.45a1.166,1.166,0,0,1,1.344-1.01C898.073,3752.73,898.829,3753.54,899.081,3755.17Zm39.06-13.84c1.036-.72,1.288-0.95,1.288-1.17a2.136,2.136,0,0,0-.98-0.98c-1.6-1.12-2.044-1.37-2.38-1.37a1.665,1.665,0,0,0-.952.39,8.249,8.249,0,0,1-3.332,1.12,66.28,66.28,0,0,1-7.168.87,2.542,2.542,0,0,1-2.128-.82,0.377,0.377,0,0,0-.224-0.19,0.327,0.327,0,0,0-.224.39,2.7,2.7,0,0,0,.952,2.27,3.657,3.657,0,0,0,1.68.81,0.906,0.906,0,0,0,.476-0.2,11.716,11.716,0,0,1,3.36-1.17,35,35,0,0,1,5.544-.95c0.616,0,.868.16,0.868,0.61a8.381,8.381,0,0,1-.532,2.13,17.724,17.724,0,0,1-3.892,6.64,20.143,20.143,0,0,1-9.128,6.32,0.278,0.278,0,0,0-.252.23,0.224,0.224,0,0,0,.252.19c1.372,0,4.956-1.31,7.224-2.63C932.765,3751.39,935.509,3747.8,938.141,3741.33Zm1.932-8.7a1.293,1.293,0,0,0-1.2.36,0.273,0.273,0,0,0,.2.2,4.308,4.308,0,0,1,2.408,1.84c0.448,0.76.616,0.9,1.064,0.9a1.173,1.173,0,0,0,1.2-1.09C943.741,3733.69,942.005,3732.63,940.073,3732.63Zm-3.416,1.56c-0.336,0-.56.09-0.56,0.23a0.388,0.388,0,0,0,.168.22,4.158,4.158,0,0,1,2.156,2.16c0.308,0.78.5,0.95,1.008,0.95a1.17,1.17,0,0,0,1.2-1.04,2.653,2.653,0,0,0-1.372-1.82A5.181,5.181,0,0,0,936.657,3734.19Zm20.412,2.86a0.177,0.177,0,0,0-.168.14,3.68,3.68,0,0,0,.784,1.34,2.968,2.968,0,0,0,2.408,1.07,27.481,27.481,0,0,0,4.62-.67c1.372-.28,2.24-0.42,3.444-0.56,0.672-.12,1.008-0.31,1.008-0.65,0-.61-1.624-1.59-2.6-1.59a1.558,1.558,0,0,0-.756.3,4.946,4.946,0,0,1-1.484.56,24.755,24.755,0,0,1-5.012.76,3.071,3.071,0,0,1-2.016-.56A0.3,0.3,0,0,0,957.069,3737.05Zm14.056,7.31a1.923,1.923,0,0,1,.616-0.37,0.88,0.88,0,0,0,.336-0.19,0.531,0.531,0,0,0,.112-0.31c0-.25,0-0.25-0.616-0.87-1.26-1.26-1.736-1.59-2.128-1.59a2.849,2.849,0,0,0-1.092.39,7.062,7.062,0,0,1-2.156.67,71.651,71.651,0,0,1-8.68,1.15,2.864,2.864,0,0,1-2.352-.93,0.353,0.353,0,0,0-.252-0.25c-0.168,0-.252.23-0.252,0.67a3.367,3.367,0,0,0,2.744,2.89,2.426,2.426,0,0,0,1.092-.42,36.6,36.6,0,0,1,8.6-1.91c0.588,0,.924.17,0.924,0.51a7.662,7.662,0,0,1-.756,2.13,18.56,18.56,0,0,1-3.668,5.93,17.835,17.835,0,0,1-7.98,4.99,0.3,0.3,0,0,0-.308.25,0.249,0.249,0,0,0,.308.22,15.393,15.393,0,0,0,4.228-.95,20.206,20.206,0,0,0,7.308-5.24A27.627,27.627,0,0,0,971.125,3744.36Zm17.22-6.61c-1.008,0-1.708.14-1.708,0.36,0,0.09.084,0.14,0.308,0.2a8.177,8.177,0,0,1,4.088,3.75c0.392,0.84.644,1.07,1.2,1.07a1.55,1.55,0,0,0,1.54-1.49C993.777,3739.71,991.061,3737.75,988.345,3737.75Zm17.975,0.08a0.805,0.805,0,0,0-.42.34,61.879,61.879,0,0,1-9.435,9.07c-3.052,2.41-5.656,3.78-7.168,3.78a2.252,2.252,0,0,1-1.652-.67c-0.14-.28-0.168-0.28-0.252-0.28a1.138,1.138,0,0,0-.392,1.12c0,0.62.392,1.2,1.456,2.21a3.661,3.661,0,0,0,1.96,1.18,0.84,0.84,0,0,0,.392-0.17c0.2-.14.364-0.31,0.532-0.45a3.663,3.663,0,0,1,.532-0.36,41.906,41.906,0,0,0,11.927-10.84,20.9,20.9,0,0,0,2.72-4.73A0.257,0.257,0,0,0,1006.32,3737.83Zm28.45-2.01a1.317,1.317,0,0,0-1.21.33c0,0.14.12,0.23,0.48,0.34a4.05,4.05,0,0,1,2.3,2.04,0.8,0.8,0,0,0,.81.59,1.224,1.224,0,0,0,1.23-1.09C1038.38,3736.88,1036.64,3735.82,1034.77,3735.82Zm-2.83,2.04c-0.45,0-.7.09-0.7,0.23a0.326,0.326,0,0,0,.17.19,4.085,4.085,0,0,1,2.24,2.58,0.673,0.673,0,0,0,.67.59,1.314,1.314,0,0,0,1.2-1.18C1035.52,3739.15,1033.62,3737.86,1031.94,3737.86Zm-4.93,9.94-0.03-2.29-0.05-2.55a9.931,9.931,0,0,1,4.39,3.72,7.65,7.65,0,0,0,.9,1.35,1.676,1.676,0,0,0,1.29.58,1.418,1.418,0,0,0,1.48-1.48c0-1.01-.89-2.21-2.32-3.11a11.184,11.184,0,0,0-5.71-1.62,20.021,20.021,0,0,1,.39-4.59,2.873,2.873,0,0,0,.39-1.1,2.516,2.516,0,0,0-.76-1.26,2.909,2.909,0,0,0-2.01-1.2c-0.81,0-2.49.81-2.49,1.18a0.18,0.18,0,0,0,.22.19c1.34,0,1.62.37,1.76,2.1,0.06,0.79.2,6.22,0.2,8.09a70.88,70.88,0,0,1-.39,7.45,8.246,8.246,0,0,0-.28,1.57c0,1.04,1.26,2.8,1.99,2.8,0.7,0,1.26-1.12,1.26-2.55,0-.36-0.03-1.29-0.12-2.43-0.02-.34-0.05-1.26-0.05-2.24Zm25.82,7.67c-1.74.14-2.05,0.17-3.95,0.26l1.93,2.88a0.714,0.714,0,0,0,.56.39,0.611,0.611,0,0,0,.53-0.39l0.4-.73c1.87-.53,1.96-0.56,3.5-0.98,3.1-.84,4.36-1.23,5.96-1.76a0.416,0.416,0,0,0,.36-0.34,0.256,0.256,0,0,0-.28-0.25,2.8,2.8,0,0,0-.42.06c-1.42.16-3.72,0.42-5.9,0.58v-5.65h3.86c1.82,4.56,5.52,7.59,11.51,9.38a7.8,7.8,0,0,1,3.08-2.72,21.443,21.443,0,0,1-9.86-2.8c1.49-.73,4.01-1.99,5.6-2.8l0.81,0.03,0.2,0.03a0.568,0.568,0,0,0,.73-0.48,0.863,0.863,0,0,0-.42-0.61l-2.07-1.85a51.4,51.4,0,0,1-5.44,5.29,11.009,11.009,0,0,1-3.38-3.47h3.78v0.56a0.427,0.427,0,0,0,.5.45,5.123,5.123,0,0,0,1.4-.31,0.59,0.59,0,0,0,.53-0.7v-5.8l0.59-.17a0.515,0.515,0,0,0,.34-0.5,0.717,0.717,0,0,0-.31-0.53l-2.38-2.24-0.9,1.48h-2.97v-1.9l0.82-.37a0.551,0.551,0,0,0,.28-0.47,0.429,0.429,0,0,0-.42-0.42l-3.11-.31v3.47h-2.69l-1.43-.78a48.937,48.937,0,0,0,6.55-6.11c2.36,3.73,5.32,6.16,10.22,8.35a7.028,7.028,0,0,1,2.94-2.61c-5.96-1.26-9.94-3.19-12.54-6.04l0.53-.17a0.53,0.53,0,0,0,.39-0.48,0.438,0.438,0,0,0-.28-0.39l-3.13-1.23a35.682,35.682,0,0,1-11.29,12.01,0.679,0.679,0,0,0-.42.45,0.2,0.2,0,0,0,.2.17c0.56,0,3.14-1.35,5.49-2.89v13.41Zm2.69-6.69v-2.71h8.4v2.71h-8.4Zm0-3.47v-2.77h8.4v2.77h-8.4Zm32.2-3.84h4.36a0.447,0.447,0,0,0,.45-0.39,0.556,0.556,0,0,0-.19-0.42l-2.1-1.82-1.6,1.88h-0.92v-6.13l0.56-.37a0.765,0.765,0,0,0,.33-0.59,0.68,0.68,0,0,0-.73-0.56l-2.66-.11v7.76h-1.73c-1.21,0-1.91-.03-3.75-0.11l0.58,0.95c1.46-.06,1.99-0.09,3.17-0.09h1.68a27.435,27.435,0,0,1-5.15,11.74,0.919,0.919,0,0,0-.31.47,0.271,0.271,0,0,0,.19.23,4.4,4.4,0,0,0,1.4-1.07,23.713,23.713,0,0,0,3.92-4.56v9.85c0,0.26.17,0.4,0.54,0.4a3.4,3.4,0,0,0,1.4-.37,0.689,0.689,0,0,0,.56-0.81v-11.42a4.366,4.366,0,0,1,1.12,1.65,12.963,12.963,0,0,0,.61,1.51,1.144,1.144,0,0,0,.98.56,1.244,1.244,0,0,0,1.26-1.4c0-1.54-1.43-2.66-3.97-3.11v-3.67Zm14.33-.75h-0.89v-6.08l0.78-.53a0.619,0.619,0,0,0,.28-0.5,0.727,0.727,0,0,0-.67-0.65l-2.94-.17v7.93h-2.1c-0.87,0-1.68-.03-3.75-0.09l0.47,0.93c1.68-.06,2.38-0.09,3.28-0.09h1.62a38.8,38.8,0,0,1-8.93,13.28,0.747,0.747,0,0,0-.31.42,0.214,0.214,0,0,0,.2.19,12,12,0,0,0,2.97-1.93,31.78,31.78,0,0,0,6.55-7.22v8.17c0,0.84-.06.9-0.45,1.01a24.281,24.281,0,0,1-3.11.06c-0.61,0-.7.02-0.7,0.22,0,0.17,0,.17,1.18.53,0.47,0.14.98,0.31,1.43,0.45a4,4,0,0,1,.47.17c0.23,0.11.28,0.25,0.34,0.84,0.03,0.61.19,0.89,0.53,0.89a4.978,4.978,0,0,0,1.76-.61,1.538,1.538,0,0,0,1.1-1.74v-14.73h4.73a0.386,0.386,0,0,0,.28-0.42,0.641,0.641,0,0,0-.2-0.42l-2.18-1.93Z" transform="translate(-722.281 -3732.31)"/>
</svg>
