<svg xmlns="http://www.w3.org/2000/svg" width="872.59" height="36.34" viewBox="0 0 872.59 36.34">
  <defs>
    <style>
      .cls-1 {
        fill: #333;
        fill-rule: evenodd;
      }
    </style>
  </defs>
  <path id="_五感_で味わうシェフおすすめのメニュー" data-name="“五感”で味わうシェフおすすめのメニュー" class="cls-1" d="M460.619,1856.59c-3.739,2.57-5.374,4.86-5.374,7.51a3.646,3.646,0,0,0,3.5,3.9,2.889,2.889,0,0,0,3-2.92,2.741,2.741,0,0,0-2.57-2.85,2.964,2.964,0,0,0-1.986.9,3.024,3.024,0,0,1-.039-0.51c0.078-1.44,1.519-3.27,4.128-5.21Zm8.411,0.19c-3.739,2.46-5.335,4.75-5.335,7.63a3.5,3.5,0,0,0,3.427,3.78,2.958,2.958,0,0,0,3-3.04,2.586,2.586,0,0,0-2.531-2.76,2.551,2.551,0,0,0-1.947.93,1.965,1.965,0,0,1-.039-0.39,6.958,6.958,0,0,1,1.636-3.27,9.035,9.035,0,0,1,2.453-2.02Zm11.69,33.57c1.246-.04,2.3-0.08,2.687-0.08,2.181-.08,3.621-0.12,4.128-0.12h27.92c0.662,0,.973-0.23.973-0.66a1.234,1.234,0,0,0-.545-0.82l-3.427-2.96-2.686,3.39h-1.986l0.233-12.19,0.7-.31a0.841,0.841,0,0,0,.662-0.81,1.287,1.287,0,0,0-.389-0.82l-3.193-3.55-1.558,2.46h-7.866l1.713-10.83h15.031a0.716,0.716,0,0,0,.857-0.62,0.979,0.979,0,0,0-.389-0.66l-3.5-3.04-2.609,3.27H489.287c-3.738-.12-5.53-0.16-7.671-0.23l0.973,1.48c3.427-.16,4.907-0.2,6.7-0.2h5.023l-1.635,10.83h-2.259c-1.4,0-1.674,0-6.737-.2l0.779,1.4c3.933-.11,4.595-0.15,5.958-0.15h2.064l-2.3,14.17h-2.647c-0.39,0-1.909-.04-4.128-0.11-0.506-.04-1.947-0.08-3.544-0.12Zm13.318-1.25,2.18-14.17h8.217L504.2,1889.1H494.038Zm51.059-25.31c0.739,5.38,1.635,8.49,3.348,11.72a25.561,25.561,0,0,1-5.3,5.84,10.94,10.94,0,0,0-3-.78,0.192,0.192,0,0,0-.233.16,0.608,0.608,0,0,0,.155.27c1.6,1.48,1.83,1.76,2.415,3.16,0.739,2.29.739,2.29,1.051,2.65a1.392,1.392,0,0,0,.973.38,1.7,1.7,0,0,0,1.909-1.83c0-1.55-.9-2.8-2.765-3.81a30.012,30.012,0,0,0,6-4.05,11.965,11.965,0,0,0,3.193,3.04,13.567,13.567,0,0,0,6.464,2.45c1.207,0,2.1-.62,2.1-1.48a2.848,2.848,0,0,0-1.013-1.71,1.308,1.308,0,0,1-.389-0.82,15.832,15.832,0,0,1,.272-2.26,21.457,21.457,0,0,0,.507-2.77,0.32,0.32,0,0,0-.312-0.35c-0.156,0-.156,0-0.506.82-1.441,3.2-2.337,4.56-2.96,4.56-1.324,0-4.049-2.03-5.257-3.9a29.8,29.8,0,0,0,3.894-5.91l0.662-.2a0.957,0.957,0,0,0,.857-0.66,0.922,0.922,0,0,0-.467-0.74l-3.349-1.91a31.021,31.021,0,0,1-2.96,6.85,31.319,31.319,0,0,1-2.375-8.72h11.838a0.823,0.823,0,0,0,.935-0.74,0.858,0.858,0,0,0-.351-0.62l-3-2.49-2.415,2.8H547.9c-0.117-1.44-.194-2.57-0.194-3.58v-0.7l0.739-.47a0.964,0.964,0,0,0,.507-0.82,0.711,0.711,0,0,0-.662-0.66l-3.7-.35c0.039,2.49.195,4.75,0.39,6.58H532.4l-3.816-1.6c0.117,3.2.156,4.6,0.156,6.66,0,8.06-.935,12.85-3.116,16.16a1.752,1.752,0,0,0-.35.7,0.267,0.267,0,0,0,.272.2c0.39,0,2.181-2.03,3.31-3.78,2.376-3.66,3.194-7.94,3.232-17.29H545.1Zm-13.941,18.23c-0.156,0-.195.07-0.234,0.27a5.977,5.977,0,0,1-2.3,4.63,13.049,13.049,0,0,0-1.714,1.48,2.842,2.842,0,0,0-.506,1.44,1.793,1.793,0,0,0,1.986,1.6c1.129,0,1.947-.62,2.648-1.99a7.373,7.373,0,0,0,.9-3.66C531.935,1884.16,531.506,1882.02,531.156,1882.02Zm9.579-14.88h-7.983v1.05h11.916a0.558,0.558,0,0,0,.584-0.5,0.955,0.955,0,0,0-.506-0.78l-2.181-1.79Zm-4.244,10.32H541.4v1.25a0.356,0.356,0,0,0,.429.35c1.4,0,2.648-.59,2.648-1.21v-4.52l0.506-.19a0.788,0.788,0,0,0,.506-0.66,1.188,1.188,0,0,0-.467-0.86l-2.492-2.34-1.208,1.75h-4.634l-3.154-1.48v10.28c0,0.43.156,0.59,0.662,0.59,1.168,0,2.3-.55,2.3-1.09v-1.87Zm0-1.05v-4.32H541.4v4.32h-4.906Zm-1.753,5.22v7.86c0,2.26.351,2.42,5.335,2.42,6.542,0,8.334-.08,10.164-0.32,1.947-.31,2.842-0.81,2.842-1.67,0-.62-0.311-0.93-1.6-1.67a0.376,0.376,0,0,1-.234-0.39v-0.35c0.273-2.73.312-3.27,0.312-3.43a0.189,0.189,0,0,0-.156-0.23c-0.078,0-.117.03-0.234,0.23a31.139,31.139,0,0,1-2.258,3.93c-0.74.98-1.908,1.17-6.581,1.17a31.611,31.611,0,0,1-4.128-.16,0.917,0.917,0,0,1-.272-0.93v-4.44l0.467-.19a0.985,0.985,0,0,0,.662-0.86,0.761,0.761,0,0,0-.74-0.7Zm15.421-24.34c-0.39,0-.623.08-0.623,0.23a0.471,0.471,0,0,0,.194.24,4.942,4.942,0,0,1,1.792,1.9c0.856,1.72.856,1.72,1.207,1.95a1.637,1.637,0,0,0,.934.31,1.563,1.563,0,0,0,1.441-1.71c0-1.17-1.207-2.22-3.193-2.69A7.524,7.524,0,0,0,550.159,1857.29Zm2.8,25.66a0.308,0.308,0,0,0-.312.23,0.668,0.668,0,0,0,.312.39,13.365,13.365,0,0,1,3.348,4.36c1.013,2.19,1.013,2.19,1.324,2.5a1.9,1.9,0,0,0,1.285.5,1.859,1.859,0,0,0,1.792-2.06c0-1.75-1.324-3.31-3.816-4.56A20.133,20.133,0,0,0,552.963,1882.95Zm19.517-14.68c3.388-2.03,5.3-4.79,5.3-7.59a3.5,3.5,0,0,0-3.466-3.7,2.861,2.861,0,0,0-2.959,2.96,2.556,2.556,0,0,0,2.492,2.76,3.094,3.094,0,0,0,2.064-.89c0.038,1.79-1.636,4.12-4.128,5.76Zm8.333,0.12c3.466-2.22,5.374-4.79,5.374-7.32,0-2.38-1.441-4.13-3.466-4.13a3.014,3.014,0,0,0-3,3.07,2.539,2.539,0,0,0,2.57,2.73,2.665,2.665,0,0,0,2.1-1.01c-0.117,1.94-1.714,4.2-4.245,5.92Zm64.61-.2c-1.051,0-1.713.2-1.713,0.47a0.513,0.513,0,0,0,.35.35,6.4,6.4,0,0,1,3.505,2.73c0.545,1.01.623,1.05,1.246,1.05a1.7,1.7,0,0,0,1.791-1.52C650.6,1869.71,648.071,1868.19,645.423,1868.19Zm-4.867,2.45c-0.584,0-.935.12-0.935,0.36a0.409,0.409,0,0,0,.234.27,5.646,5.646,0,0,1,3,3c0.467,1.13.662,1.32,1.48,1.32a1.586,1.586,0,0,0,1.635-1.36C645.968,1872.48,643.165,1870.64,640.556,1870.64Zm4.127-10.47c-0.856.47-1.012,0.51-5.957,1.95-5.063,1.28-8.8,2.33-13.318,3.7a13.209,13.209,0,0,1-4.011.93,3.378,3.378,0,0,1-2.882-1.56c-0.194-.39-0.194-0.43-0.35-0.43-0.117,0-.195.12-0.195,0.32a6.345,6.345,0,0,0,.468,2.57c0.662,1.4,2.686,2.92,3.933,2.92a1.582,1.582,0,0,0,.973-0.39,31.494,31.494,0,0,1,5.8-3.2,29.945,29.945,0,0,1,6.854-2.25,0.173,0.173,0,0,1,.194.11,1.836,1.836,0,0,1-.389.47,21.158,21.158,0,0,0-4.322,6.81,24.771,24.771,0,0,0-1.6,8.1c0,4.44,1.752,7.33,5.335,8.69a20.739,20.739,0,0,0,7.087,1.32c2.1,0,3.193-.66,3.193-1.95a2.994,2.994,0,0,0-2.414-2.72,0.484,0.484,0,0,0-.234.04,24.111,24.111,0,0,1-3.076.27c-4.361,0-6.5-2.3-6.5-6.93a25.2,25.2,0,0,1,1.557-8.76,9.085,9.085,0,0,1,4.362-5.03,11.256,11.256,0,0,1,5.179-.85,15.081,15.081,0,0,1,2.92.31,5.722,5.722,0,0,0,.779.08,1.212,1.212,0,0,0,1.246-1.13c0-.7-0.584-1.48-1.752-2.26A4.977,4.977,0,0,0,644.683,1860.17Zm20.374,19.08h3.894v2.61a0.454,0.454,0,0,0,.546.51,7.233,7.233,0,0,0,1.518-.28c0.935-.27,1.207-0.46,1.207-0.85v-6.16h9a39.33,39.33,0,0,1-11.527,15.46,1.213,1.213,0,0,0-.662.74,0.187,0.187,0,0,0,.2.2c0.428,0,2.687-1.4,4.829-2.96a42.419,42.419,0,0,0,7.788-7.63v11.06c0,0.35.233,0.5,0.662,0.5a6.013,6.013,0,0,0,1.4-.23c1.052-.24,1.324-0.43,1.324-0.98v-14.33c2.22,6.08,4.712,9.86,8.84,13.48a7.159,7.159,0,0,1,3.544-3.47c-4.167-2.3-5.569-3.31-8.061-5.84a19.022,19.022,0,0,1-3.933-6h10.9a0.583,0.583,0,0,0,.545-0.54,1.363,1.363,0,0,0-.467-0.86l-3.037-2.61-2.648,2.96h-5.686v-7.4h9.619a0.479,0.479,0,0,0,.545-0.5,1.285,1.285,0,0,0-.584-0.94l-2.882-2.49-2.492,2.88h-4.206v-6.42l0.507-.35a1.219,1.219,0,0,0,.7-0.98,0.93,0.93,0,0,0-1.052-.78l-3.543-.38v8.91h-2.96c-0.117,0-1.168,0-2.219-.04l-3-.11,0.74,1.32,2.3-.08c0.973-.04,1.791-0.04,2.18-0.04h2.96v7.4h-9.619v-8.6l0.468-.24a0.828,0.828,0,0,0,.506-0.7,1.384,1.384,0,0,0-.506-0.97l-2.57-2.92-1.247,2.02h-3.7l-3.349-1.79v23.99a0.474,0.474,0,0,0,.506.51,11.478,11.478,0,0,0,2.259-.47,0.607,0.607,0,0,0,.467-0.7v-4.91Zm0-15.58h3.894v14.53h-3.894v-14.53Zm48.411,15.31a24.687,24.687,0,0,1-3.193,3.58c-1.129,1.09-1.363,1.48-1.363,2.26,0,1.56.779,2.69,1.908,2.69,0.662,0,.935-0.24,1.441-1.33,0.506-1.01,1.129-2.1,2.531-4.44a25.364,25.364,0,0,1,1.48,7.44,4.163,4.163,0,0,0,.156,1.75,0.9,0.9,0,0,0,.7.39,3.292,3.292,0,0,0,3.076-2.88,4.766,4.766,0,0,0-.078-0.74,58.091,58.091,0,0,1-.934-11.37c0-1.01.233-1.44,1.246-2.45,2.764-2.65,6.269-4.33,9.034-4.33,3.7,0,5.763,2.38,5.763,6.7a12.058,12.058,0,0,1-3.621,9.04,19.544,19.544,0,0,1-5.686,3.5c-0.428.16-.545,0.27-0.545,0.39a0.3,0.3,0,0,0,.312.31,11.214,11.214,0,0,0,1.6-.31,21.389,21.389,0,0,0,7.788-3.74,11.751,11.751,0,0,0,4.517-9.15,8.481,8.481,0,0,0-8.761-8.72c-3.466,0-6.971,1.67-11.371,5.41a3,3,0,0,1,.662-1.6c0.234-.31,1.052-1.32,1.363-1.71a1.975,1.975,0,0,0,.7-1.17,2.569,2.569,0,0,0-1.635-1.79,3.683,3.683,0,0,1-.7.12,18.344,18.344,0,0,1,.817-4.52,2.806,2.806,0,0,0,.195-0.86c0-1.51-2.531-3.58-4.361-3.58-1.091,0-2.259.31-2.259,0.59a0.267,0.267,0,0,0,.156.23,1.75,1.75,0,0,1,1.363.62c0.973,1.13,1.285,2.53,1.285,5.88,0,0.86,0,1.52-.039,2.57-3.972,2.22-5.8,3.94-5.8,5.49a6.126,6.126,0,0,0,.973,2.92A18.889,18.889,0,0,1,713.468,1878.98Zm1.052-1.4c-0.273-.82-0.273-0.82-0.623-1.72-0.662-1.71-.662-1.75-0.662-2.26,0-1.05.779-1.67,3.933-3.03,0,1.59,0,1.59.039,2.68a4.366,4.366,0,0,1-.546,1.56Zm1.363,3.66-0.312-.94a29.021,29.021,0,0,1,1.869-3.23c0.195,3.82.273,5.92,0.273,6.27a1.077,1.077,0,0,1-.584,1.21c-0.312,0-.429-0.2-0.584-1.05a6.016,6.016,0,0,0-.312-1.1Zm54.408-16.98a10.458,10.458,0,0,1,1.791.12c0.545,0.03.895,0.07,1.246,0.07,1.48,0,2.1-.35,2.1-1.16,0-1.6-.974-3.04-2.064-3.04-0.117,0-.351.04-0.7,0.08s-0.818.07-1.324,0.07c-3.427,0-5.218-.97-6.153-3.31-0.078-.27-0.155-0.35-0.272-0.35a1.972,1.972,0,0,0-.39,1.56,5.154,5.154,0,0,0,2.648,4.36c0.39,0.2.468,0.24,0.468,0.35a0.621,0.621,0,0,1-.312.39,7.733,7.733,0,0,0-2.064,1.64,0.187,0.187,0,0,0,.195.11,0.369,0.369,0,0,0,.156-0.03A15.142,15.142,0,0,1,770.291,1864.26Zm-9.7,4.94c-0.389,0-.9,1.52-0.9,2.57,0,2.07,1.441,3.86,3.076,3.86,0.428,0,.857-0.27,1.869-1.13a33.509,33.509,0,0,1,3.7-3.08,7.956,7.956,0,0,1,3.9-1.67c2.024,0,3.193,2.26,3.193,6.31a15.049,15.049,0,0,1-4.517,11.02,28.893,28.893,0,0,1-7.438,4.79c-0.428.15-.584,0.27-0.584,0.43a0.3,0.3,0,0,0,.35.19,32.27,32.27,0,0,0,6.036-1.95c6.542-2.84,10.319-8.25,10.319-14.68,0-4.9-2.414-7.94-6.347-7.94-1.947,0-3.738.58-7.632,2.45a5.96,5.96,0,0,1-2.687.9,2.36,2.36,0,0,1-2.181-1.87A0.217,0.217,0,0,0,760.594,1869.2Zm47.243-6.46c-1.674,0-3.388.35-3.388,0.7,0,0.12.078,0.2,0.351,0.27a9.049,9.049,0,0,1,5.568,4.36c0.623,1.17.857,1.37,1.675,1.37a2.187,2.187,0,0,0,2.336-2.14C814.379,1864.88,811.342,1862.74,807.837,1862.74Zm-4.906,20.21c0,0.04,0,.04-0.039.04-0.312-.04-0.545.43-0.545,1.05a4.061,4.061,0,0,0,1.479,2.8c1.4,1.37,2.492,2.11,3.116,2.11a1.551,1.551,0,0,0,1.051-.59,4.929,4.929,0,0,1,.779-0.5,73.319,73.319,0,0,0,12.616-9.5,48.465,48.465,0,0,0,7.477-9.86c1.168-2.1,1.6-3.03,1.6-3.46a0.3,0.3,0,0,0-.234-0.31c-0.195,0-.312.07-0.7,0.66a65.473,65.473,0,0,1-4.4,5.29,58.979,58.979,0,0,1-10.008,8.73c-4.4,3.07-7.554,4.59-9.579,4.59-1.675,0-2.337-.27-2.57-1.05h-0.039Zm0.194-12.81c-1.285,0-2.453.23-2.453,0.5,0,0.12.039,0.16,0.39,0.32a9.869,9.869,0,0,1,5.1,4.67,1.555,1.555,0,0,0,1.363,1.09,2.258,2.258,0,0,0,2.258-2.1C809.784,1872.36,806.513,1870.14,803.125,1870.14Zm53.668,13.82-3,.28c-4.089.23-4.089,0.23-4.868,0.23-1.363,0-2.3-.23-2.609-0.66a0.268,0.268,0,0,0-.233-0.2,1.028,1.028,0,0,0-.39,1.09c0,0.55.312,0.98,1.207,1.52,1.792,1.17,1.792,1.17,2.415,1.17a4.256,4.256,0,0,0,1.48-.31c3.426-1.25,7.32-1.79,13.122-1.79a33.994,33.994,0,0,1,7.049.7,9.815,9.815,0,0,0,1.635.27,1.147,1.147,0,0,0,1.129-1.05c0-1.05-2.453-2.92-3.894-2.92a1.051,1.051,0,0,0-.35.04c-1.713.54-2.064,0.62-8.606,1.28,0.117-4.63.312-6.27,0.818-7.9a1.2,1.2,0,0,0,.156-0.51,2.9,2.9,0,0,0-1.441-1.32c1.4-.12,2.531-0.16,3.777-0.16,0.545,0,.545,0,2.57.08l0.467,0.04h0.39a0.909,0.909,0,0,0,.934-0.86,1.816,1.816,0,0,0-.934-1.32,4.952,4.952,0,0,0-2.376-1.13,2.814,2.814,0,0,0-1.051.35,19.457,19.457,0,0,1-6.308,1.4,53.955,53.955,0,0,1-5.413.47,3.376,3.376,0,0,1-2.142-.59c-0.311-.39-0.311-0.39-0.389-0.39-0.2,0-.273.16-0.273,0.55,0,1.44,1.246,3,2.415,3a1.948,1.948,0,0,0,.35-0.08,6.151,6.151,0,0,1,1.83-.58,16.681,16.681,0,0,1,2.687-.43c0.974,0,1.09.46,1.09,4.63a44.036,44.036,0,0,1-.194,5.02Zm59.042-15.92c1.441-.98,1.791-1.33,1.791-1.64a3.194,3.194,0,0,0-1.363-1.32c-2.219-1.56-2.842-1.91-3.309-1.91a2.4,2.4,0,0,0-1.324.54,11.283,11.283,0,0,1-4.634,1.56,90.3,90.3,0,0,1-9.969,1.21,3.561,3.561,0,0,1-2.96-1.13,0.519,0.519,0,0,0-.311-0.27,0.449,0.449,0,0,0-.312.54,3.682,3.682,0,0,0,1.324,3.12,5.247,5.247,0,0,0,2.376,1.13,1.53,1.53,0,0,0,.623-0.24,16.377,16.377,0,0,1,4.673-1.63,49.058,49.058,0,0,1,7.671-1.33c0.895,0,1.246.24,1.246,0.86a11.744,11.744,0,0,1-.74,2.96,24.673,24.673,0,0,1-5.413,9.23,27.875,27.875,0,0,1-12.694,8.76,0.379,0.379,0,0,0-.351.31,0.328,0.328,0,0,0,.39.27c1.869,0,6.853-1.83,10.007-3.66C908.359,1882.02,912.175,1876.99,915.835,1868.04Zm30.3,10.43c4.751-2.96,7.165-3.93,9.657-3.93,2.375,0,3.933,1.75,3.933,4.4a6.021,6.021,0,0,1-5.919,6.07c-1.947,0-3.193-1.4-3.193-3.54a6.746,6.746,0,0,1,.623-2.65,0.9,0.9,0,0,0,.078-0.27,0.2,0.2,0,0,0-.156-0.19c-0.818,0-2.1,2.64-2.1,4.32a7.558,7.558,0,0,0,.818,3.39c0.857,1.44,2.3,2.14,4.439,2.14a9.077,9.077,0,0,0,9.19-8.92c0-3.82-2.764-6.35-6.814-6.35-3.038,0-5.958.98-10.592,3.47v-1.79c0-1.05.039-1.83,0.078-2.88,4.283-1.64,6.464-3.31,6.464-4.99a0.992,0.992,0,0,0-.935-1.09,4.344,4.344,0,0,0-.584.04h-0.272a11.611,11.611,0,0,1-4.362-1.21,4.624,4.624,0,0,1,.468-1.63,1.17,1.17,0,0,0,.194-0.51c0-1.05-2.18-2.49-3.7-2.49-1.051,0-2.648.82-2.648,1.36a0.285,0.285,0,0,0,.273.23h0.077a0.745,0.745,0,0,1,.429-0.11c1.168,0,1.713.89,1.947,3.31,0.233,2.57.311,3.78,0.311,4.9a14.909,14.909,0,0,1-4.634.78c-1.6,0-2.414-.35-2.725-1.16a0.2,0.2,0,0,0-.195-0.16c-0.2,0-.273.27-0.273,0.9,0,1.83,1.4,3.07,3.466,3.07a19.037,19.037,0,0,0,4.478-.66c0.117,1.56.117,2.37,0.117,5.02-1.752.9-3.115,1.64-5.958,3.12-2.336,1.28-2.336,1.28-2.843,1.28a0.8,0.8,0,0,1-.506-0.19,0.909,0.909,0,0,0-.7-0.35,1.461,1.461,0,0,0-1.285,1.59c0,1.56,1.83,3.82,3.116,3.82,0.467,0,.623-0.12,2.141-1.79,0.74-.78.779-0.86,1.246-1.36,2.142,1.44,3.31,3.42,3.193,5.37,0,0.9.117,1.09,0.7,1.09a3.932,3.932,0,0,0,3.5-3.39,2.124,2.124,0,0,0-.039-0.43c-0.195-2.22-.234-3.15-0.467-7.12Zm-1.908,5.22c0,0.78-.2,1.28-0.545,1.28a18.152,18.152,0,0,1-3.739-2.21c1.48-1.21,2.22-1.8,4.284-3.24-0.039,1.05-.039,1.44-0.039,2.11Zm2.1-18.38c0.662,0.31,1.4.7,2.258,1.13,0.2,0.08.234,0.12,0.234,0.27,0,0.66-1.013,1.48-2.57,2.1l0.039-1.75Zm15.693,0.35a8.877,8.877,0,0,0-5.141,1.6,1.2,1.2,0,0,0-.662.66,0.2,0.2,0,0,0,.195.23,1.593,1.593,0,0,0,.467-0.11,5.572,5.572,0,0,1,1.87-.32,6.908,6.908,0,0,1,3.7,1.17,6.992,6.992,0,0,1,2.181,2.46,1.916,1.916,0,0,0,.584,1.16,1.779,1.779,0,0,0,1.129.47,2.662,2.662,0,0,0,2.3-2.65C968.646,1867.72,965.726,1865.66,962.027,1865.66Zm33.691,5.8a3.992,3.992,0,0,0-1.207-.19c-2.609,0-4.712,2.88-4.712,6.5,0,3.19,1.947,5.8,4.323,5.8a2.809,2.809,0,0,0,1.908-.74,11.784,11.784,0,0,1-7.866,9.08c-0.234.07-.312,0.15-0.312,0.27a0.3,0.3,0,0,0,.351.19,17.811,17.811,0,0,0,5.646-1.83c4.283-2.41,6.271-6.23,6.271-11.91,0-3.16-.352-4.44-1.676-5.92-0.039-.39-0.078-0.62-0.078-0.82,0-.86.039-1.71,0.117-2.96,0.039-.15.039-0.58,0.078-1.13,1.6-.11,2.3-0.15,3.189-0.15a29.857,29.857,0,0,1,6.78.78,3.76,3.76,0,0,0,.97.15,1.386,1.386,0,0,0,1.29-1.28,2.45,2.45,0,0,0-.82-1.56,4.786,4.786,0,0,0-2.3-1.01,2.193,2.193,0,0,1-.39.03,1.363,1.363,0,0,1-.42.04,9.41,9.41,0,0,1-4.25-1.36,1.206,1.206,0,0,0-.54-0.31,0.257,0.257,0,0,0-.24.23,0.958,0.958,0,0,0,.35.47c0.43,0.55.82,1.05,1.17,1.52-1.01.15-1.67,0.23-2.02,0.27-0.67.12-1.523,0.24-2.614,0.39,0.234-3.31.273-3.78,0.74-4.98a2.909,2.909,0,0,0,.273-0.74c0-1.17-2.687-3.2-4.206-3.2-0.895,0-2.648.59-2.648,0.9a0.2,0.2,0,0,0,.234.16c2.22,0.35,2.336.73,2.531,8.25-4.205.66-4.828,0.78-6.7,1.09-6.191,1.09-6.191,1.09-6.853,1.09a4.164,4.164,0,0,1-3.349-1.56c-0.117-.15-0.117-0.15-0.2-0.15a0.249,0.249,0,0,0-.233.31,5.873,5.873,0,0,0,1.129,3.08,5.411,5.411,0,0,0,3.193,1.86,2.463,2.463,0,0,0,.974-0.38c2.492-1.41,7.126-2.81,12.032-3.7,0.078,1.63.078,2.18,0.078,2.68v0.74Zm-1.558,1.25a1.556,1.556,0,0,1,1.285,1.28,9.336,9.336,0,0,1,.156,1.99c0,3.43-.545,5.18-1.6,5.18-1.246,0-2.22-1.71-2.22-3.93C991.785,1874.81,992.875,1872.71,994.16,1872.71Zm46.74-1.25a4.027,4.027,0,0,0-1.21-.19c-2.61,0-4.71,2.88-4.71,6.5,0,3.19,1.95,5.8,4.32,5.8a2.818,2.818,0,0,0,1.91-.74,11.794,11.794,0,0,1-7.87,9.08c-0.23.07-.31,0.15-0.31,0.27a0.3,0.3,0,0,0,.35.19,17.831,17.831,0,0,0,5.65-1.83c4.28-2.41,6.27-6.23,6.27-11.91,0-3.16-.35-4.44-1.68-5.92-0.04-.39-0.08-0.62-0.08-0.82,0-.86.04-1.71,0.12-2.96,0.04-.15.04-0.58,0.08-1.13,1.6-.11,2.3-0.15,3.19-0.15a29.857,29.857,0,0,1,6.78.78,3.76,3.76,0,0,0,.97.15,1.386,1.386,0,0,0,1.29-1.28,2.45,2.45,0,0,0-.82-1.56,4.786,4.786,0,0,0-2.3-1.01,2.193,2.193,0,0,1-.39.03,1.4,1.4,0,0,1-.43.04,9.371,9.371,0,0,1-4.24-1.36,1.143,1.143,0,0,0-.55-0.31,0.256,0.256,0,0,0-.23.23,0.958,0.958,0,0,0,.35.47c0.43,0.55.82,1.05,1.17,1.52-1.01.15-1.68,0.23-2.03,0.27-0.66.12-1.51,0.24-2.6,0.39,0.23-3.31.27-3.78,0.74-4.98a3.008,3.008,0,0,0,.27-0.74c0-1.17-2.69-3.2-4.21-3.2-0.89,0-2.65.59-2.65,0.9a0.2,0.2,0,0,0,.24.16c2.22,0.35,2.33.73,2.53,8.25-4.21.66-4.83,0.78-6.7,1.09-6.19,1.09-6.19,1.09-6.85,1.09a4.156,4.156,0,0,1-3.35-1.56c-0.12-.15-0.12-0.15-0.2-0.15a0.25,0.25,0,0,0-.23.31,5.9,5.9,0,0,0,1.13,3.08,5.425,5.425,0,0,0,3.19,1.86,2.467,2.467,0,0,0,.98-0.38c2.49-1.41,7.12-2.81,12.03-3.7,0.08,1.63.08,2.18,0.08,2.68v0.74Zm-1.56,1.25a1.552,1.552,0,0,1,1.28,1.28,9.108,9.108,0,0,1,.16,1.99c0,3.43-.54,5.18-1.6,5.18-1.24,0-2.22-1.71-2.22-3.93C1036.96,1874.81,1038.05,1872.71,1039.34,1872.71Zm32.95-9.39,0.12,0.04c1.28,0.31,1.67.94,2.26,3.39a31.026,31.026,0,0,0,1.75,4.91,18.622,18.622,0,0,0-2.69,3.39,11.611,11.611,0,0,0-1.83,6.19c0,3.31,1.33,5.41,3.39,5.41a9.824,9.824,0,0,0,5.88-2.69,14.63,14.63,0,0,0,3.39-4.16,3.618,3.618,0,0,0,1.59.42,0.726,0.726,0,0,0,.82-0.66,4.056,4.056,0,0,0-.35-1.24,1.434,1.434,0,0,0-.97-0.47,55.327,55.327,0,0,0,4.01-9.93c2.49,0.54,3.66,1.17,4.71,2.57a9.446,9.446,0,0,1,1.75,5.92,12.117,12.117,0,0,1-5.96,10.59,27.049,27.049,0,0,1-7.9,3.31c-0.43.08-.51,0.12-0.51,0.27s0.16,0.24.43,0.24a32.337,32.337,0,0,0,9.89-2.46c5.22-2.33,8.3-6.46,8.3-11.25a9.845,9.845,0,0,0-4.56-8.8c-1.63-1.01-3-1.36-5.76-1.52a18.633,18.633,0,0,0,.66-3.97c0-2.1-1.95-3.55-4.75-3.55-0.9,0-1.56.12-1.56,0.32a0.263,0.263,0,0,0,.27.23c1.52,0.31,2.42,2.02,2.42,4.63a12.871,12.871,0,0,1-.2,2.26,22.168,22.168,0,0,0-8.37,3.23,16.66,16.66,0,0,1-.86-4.55c-0.03-1.29-.23-1.72-0.81-2.18a4.683,4.683,0,0,0-2.46-.86c-0.85,0-2.61.58-2.61,0.86a0.865,0.865,0,0,0,.2.15Zm10.16,15.42a15.864,15.864,0,0,1-3.07,3.66,4.992,4.992,0,0,1-2.53,1.33,2.027,2.027,0,0,1-1.25-.59,3.286,3.286,0,0,1-.74-2.57,10.153,10.153,0,0,1,2.65-6.89A13.654,13.654,0,0,0,1082.45,1878.74Zm4.17-10.74a32.8,32.8,0,0,1-3.04,8.91,10.516,10.516,0,0,1-4.28-5.1A15.828,15.828,0,0,1,1086.62,1868Zm44.91-4.6c0.43-.04.7-0.04,0.82-0.04a9.268,9.268,0,0,1,4.01.94c3.38,1.71,5.14,5.25,5.14,10.47,0,4.79-1.6,8.34-4.99,11.1a20.813,20.813,0,0,1-6.97,3.62c-0.62.2-.74,0.24-0.74,0.43,0,0.16.16,0.23,0.39,0.23a16.235,16.235,0,0,0,2.49-.46,24.223,24.223,0,0,0,7.21-2.65,14.334,14.334,0,0,0,7.2-12.46,11.775,11.775,0,0,0-3.07-8.22,15.043,15.043,0,0,0-10.95-4.28c-9.11,0-16.94,7.36-16.94,15.92a10.1,10.1,0,0,0,1.91,6.27,4.718,4.718,0,0,0,3.27,2.15c2.14,0,5.53-2.77,7.83-6.35a25.025,25.025,0,0,0,3.89-12.66A14.871,14.871,0,0,0,1131.53,1863.4Zm-1.91.16c0.04,0.11.04,0.19,0.08,0.27a9.724,9.724,0,0,1,.23,2.18c0,3.47-1.48,7.79-3.97,11.64-1.64,2.57-3.86,4.6-5.06,4.6s-2.26-2.03-2.26-4.32a15.273,15.273,0,0,1,4.59-10.87A14.711,14.711,0,0,1,1129.62,1863.56Zm52.07,9.62a46.253,46.253,0,0,0,3.16-5.81,3.181,3.181,0,0,1,.97-1.48,0.873,0.873,0,0,0,.54-0.74c0-.58-1.16-2.02-2.45-2.99a7.182,7.182,0,0,0-3.31-1.52,0.552,0.552,0,0,0-.54.39,0.263,0.263,0,0,0,.11.15,3.433,3.433,0,0,1,1.09,2.73c0,1.63-.82,4.2-2.37,7.32a19.335,19.335,0,0,0-9.04-2.92,0.56,0.56,0,0,0-.66.35c0,0.23.2,0.35,0.86,0.54,2.57,0.86,4.44,2.07,7.24,4.64-4.59,6.23-9.97,11.13-15.19,13.9-1.01.51-1.16,0.62-1.16,0.82a0.342,0.342,0,0,0,.31.35c0.85,0,5.29-1.83,7.59-3.12,3.93-2.26,6.97-4.9,10.86-9.69a21.905,21.905,0,0,1,3,3.81c0.9,1.33,1.17,1.56,1.87,1.56a1.985,1.985,0,0,0,1.95-2.06C1186.52,1877.58,1185.04,1875.67,1181.69,1873.18Zm44.09-7.99a11.362,11.362,0,0,1-3,1.41,40.1,40.1,0,0,1-6.85,1.01,7.543,7.543,0,0,1-3.23-.82,1.107,1.107,0,0,0-.28-0.16,0.179,0.179,0,0,0-.19.16,3.212,3.212,0,0,0,.7,1.44c1.05,1.6,1.91,2.18,3.31,2.18a29.282,29.282,0,0,0,5.37-.74c2.07-.39,3-0.5,5.61-0.89,2.1-.32,2.61-0.55,2.61-1.17C1229.83,1866.56,1228.08,1865.5,1225.78,1865.19Zm-20.25,14.14a0.348,0.348,0,0,0-.35.35c0,1.91,2.45,4.59,4.17,4.59a4.445,4.445,0,0,0,1.55-.39c3.98-1.48,10.95-2.41,18.27-2.41a32.912,32.912,0,0,1,5.99.47,14.259,14.259,0,0,0,1.56.15,1.025,1.025,0,0,0,1.17-.97,2.577,2.577,0,0,0-1.44-2.06c-1.79-1.29-2.57-1.72-3-1.72a3.74,3.74,0,0,0-1.05.28,16.393,16.393,0,0,1-6.04,1.51c-7.47.94-14.05,1.56-16.12,1.56-2.18,0-3.74-.39-4.32-1.05A0.53,0.53,0,0,0,1205.53,1879.33Zm61.53,3.43c-0.85.07-1.71,0.19-2.53,0.27-0.27,0-2.49.27-5.18,0.58-2.88.31-2.88,0.31-3.27,0.31a3.735,3.735,0,0,1-2.53-.66c-0.11-.19-0.11-0.19-0.19-0.19a1.159,1.159,0,0,0-.47,1.17c0,0.42.27,0.73,1.05,1.36a5.3,5.3,0,0,0,2.45,1.05,5.4,5.4,0,0,0,2.15-.66,10.856,10.856,0,0,1,2.64-.82,63.31,63.31,0,0,1,9.58-.93,41.9,41.9,0,0,1,7.13.62,7.335,7.335,0,0,0,1.13.19,1.047,1.047,0,0,0,1.17-.85c0-.9-2.18-2.96-3.16-2.96a2.2,2.2,0,0,0-.54.11,13.865,13.865,0,0,1-4.36.9c-0.31.04-1.25,0.12-2.26,0.23,0.7-3.19,1.05-4.67,1.98-7.79,0.82-.7.98-0.89,0.98-1.16,0-.35-0.24-0.59-1.44-1.44-1.72-1.21-1.76-1.25-1.99-1.25a1.308,1.308,0,0,0-.7.31,10.581,10.581,0,0,1-2.3.97,36.9,36.9,0,0,1-6.19,1.13,2.08,2.08,0,0,1-1.71-.74c-0.28-.46-0.28-0.46-0.43-0.46-0.31,0-.47.27-0.47,0.89a2.56,2.56,0,0,0,1.25,2.42,2.269,2.269,0,0,0,1.36.5,8.692,8.692,0,0,0,2.8-.89,14.615,14.615,0,0,1,4.44-1.37,0.766,0.766,0,0,1,.67.9A70.035,70.035,0,0,1,1267.06,1882.76Zm55.89-10.6a30.643,30.643,0,0,1-6.19,1.33c-2.69.31-12.38,0.89-15.34,0.89-3.12,0-4.4-.35-4.99-1.32a0.559,0.559,0,0,0-.39-0.39c-0.39,0-.58.39-0.58,1.09a3.623,3.623,0,0,0,1.4,3.15,6.922,6.922,0,0,0,3.35,1.29,1.522,1.522,0,0,0,.55-0.12c2.92-1.17,8.68-1.71,18.41-1.71,1.45,0,2.61.04,3.43,0.12,1.68,0.15,2.92.27,3.27,0.27,1.21,0,1.99-.51,1.99-1.29C1327.86,1873.95,1326.22,1872.83,1322.95,1872.16Z" transform="translate(-455.25 -1856.16)"/>
</svg>
