<svg xmlns="http://www.w3.org/2000/svg" width="748.439" height="36" viewBox="0 0 748.439 36">
  <defs>
    <style>
      .cls-1 {
        fill: #333;
        fill-rule: evenodd;
      }
    </style>
  </defs>
  <path id="ディナービュッフェを楽しむポイント" class="cls-1" d="M570.761,2784.02c-1.207,0-1.791.11-1.791,0.39a0.262,0.262,0,0,0,.272.23,6.006,6.006,0,0,1,3.5,2.69c0.74,1.2.857,1.32,1.558,1.32a1.58,1.58,0,0,0,1.635-1.56C575.94,2785.5,573.448,2784.02,570.761,2784.02Zm-4.011,2.96c-0.934,0-1.285.07-1.285,0.35a0.3,0.3,0,0,0,.195.23,5.712,5.712,0,0,1,3.31,2.96c0.467,0.97.7,1.17,1.4,1.17a1.466,1.466,0,0,0,1.557-1.52C571.929,2788.49,569.476,2786.98,566.75,2786.98Zm-17.757,3.03a0.344,0.344,0,0,0-.233.31,5.415,5.415,0,0,0,1.09,2.11,3.146,3.146,0,0,0,2.492,1.13,54.845,54.845,0,0,0,9.7-1.6c2.1-.47,2.882-0.82,2.882-1.36a2,2,0,0,0-1.207-1.44,6.13,6.13,0,0,0-2.025-.71,1.879,1.879,0,0,0-.7.2,16.093,16.093,0,0,1-2.375.97,25.3,25.3,0,0,1-6.971,1.29,3.845,3.845,0,0,1-2.531-.82A0.206,0.206,0,0,0,548.993,2790.01Zm8.1,8.92a1.59,1.59,0,0,1,.311.97c0,2.15-1.324,5.81-3.115,8.73a23.29,23.29,0,0,1-7.671,7.67c-1.869.97-1.869,0.97-1.869,1.13a0.253,0.253,0,0,0,.311.23,27.592,27.592,0,0,0,5.686-2.26c4.828-2.69,8.683-7.71,10.825-14.02a1.436,1.436,0,0,0,.584-0.89c0-.31-0.35-0.66-1.908-1.83,2.492-.2,3.037-0.24,3.972-0.24a41.094,41.094,0,0,1,5.3.43,6,6,0,0,0,1.012.12,1.3,1.3,0,0,0,1.441-1.13c0-.66-0.389-1.09-1.6-1.83a6.935,6.935,0,0,0-2.648-1.21c-1.6.98-2.687,1.29-5.958,1.79-3.154.47-13.941,1.6-15.3,1.6-1.635,0-2.375-.31-3.037-1.25a0.807,0.807,0,0,0-.39.74,2.681,2.681,0,0,0,.974,1.95,6.129,6.129,0,0,0,2.959,1.52,2.085,2.085,0,0,0,.623-0.12A37.717,37.717,0,0,1,557.093,2798.93Zm45.763,13.98c-0.039.39-.039,0.74-0.078,1.01a10.484,10.484,0,0,1-.545,1.95,1.981,1.981,0,0,0-.195.78c0,0.7,1.986,2.57,2.765,2.57,0.74,0,1.246-.78,1.246-1.87,0-.39-0.039-1.17-0.078-2.1,0-.47-0.078-1.87-0.117-4.25-0.116-4.2-.116-4.2-0.116-4.52a9.037,9.037,0,0,1,.233-2.37,1.484,1.484,0,0,0,.312-0.74,1.111,1.111,0,0,0-.9-0.82c-0.467-.23-0.662-0.31-1.09-0.54,1.168-1.21,2.8-3.04,3.894-4.37a9.921,9.921,0,0,1,.7-0.77,1.974,1.974,0,0,1,.623-0.47,0.768,0.768,0,0,0,.506-0.66c0-.47-0.506-1.13-1.6-2.3a3.551,3.551,0,0,0-2.764-1.4c-0.662,0-1.013.11-1.013,0.35a0.326,0.326,0,0,0,.273.27,1.4,1.4,0,0,1,.74,1.4c0,1.37-1.714,4.21-4.362,7.36-3.31,3.94-7.515,7.48-10.708,9.04a0.384,0.384,0,0,0-.312.31,0.32,0.32,0,0,0,.351.31,18.119,18.119,0,0,0,3.037-1.05c3.193-1.36,5.023-2.65,9.229-6.62a4.328,4.328,0,0,1,.234,2.18c0,0.82,0,.82-0.156,4.59Zm48.022-14.84c2.842-.27,4.517-0.35,6.074-0.35a32.654,32.654,0,0,1,5.063.39,8.15,8.15,0,0,0,.895.08,1.109,1.109,0,0,0,1.168-1.09c0-.43-0.428-0.93-1.44-1.71a7.564,7.564,0,0,0-2.882-1.44,4.185,4.185,0,0,0-1.519.66c-1.518.82-2.375,1.01-7.126,1.59,0.117-3.07.234-5.25,0.312-5.95a2.172,2.172,0,0,1,.311-0.82,0.961,0.961,0,0,0,.156-0.43c0-.86-3.037-2.84-4.361-2.84-0.974,0-2.765.74-2.765,1.17,0,0.11.117,0.15,0.506,0.23,1.714,0.35,2.259,2.02,2.259,6.77,0,0.55-.039,1.17-0.078,2.38-7.632.82-8.723,0.93-10.28,0.93-1.947,0-3.116-.31-3.622-0.97a0.412,0.412,0,0,0-.35-0.27,0.288,0.288,0,0,0-.312.31c0,1.99,2.1,4.28,3.894,4.28a8.155,8.155,0,0,0,2.492-.62,38.126,38.126,0,0,1,8.022-1.87c-0.9,8.69-4.556,15.23-10.241,18.03-0.584.31-.7,0.39-0.7,0.59a0.263,0.263,0,0,0,.272.23,19.384,19.384,0,0,0,4.868-1.83,17.5,17.5,0,0,0,7.009-7.75C649.748,2805.08,650.293,2802.94,650.878,2798.07Zm53.979,1.09a30.682,30.682,0,0,1-6.191,1.33c-2.687.31-12.383,0.89-15.343,0.89-3.115,0-4.4-.35-4.984-1.32a0.572,0.572,0,0,0-.39-0.39c-0.389,0-.584.39-0.584,1.09a3.619,3.619,0,0,0,1.4,3.15,6.929,6.929,0,0,0,3.349,1.29,1.493,1.493,0,0,0,.545-0.12c2.921-1.17,8.684-1.71,18.419-1.71,1.441,0,2.609.04,3.427,0.12,1.674,0.15,2.92.27,3.271,0.27,1.207,0,1.986-.51,1.986-1.29C709.764,2800.95,708.128,2799.83,704.857,2799.16Zm24.813,5.1c0,4.72.312,6.31,1.441,7.87,1.558,2.1,3.7,2.77,8.723,2.77a32.774,32.774,0,0,0,7.982-.86c1.169-.35,1.753-0.94,1.753-1.68,0-1.01-1.947-2.1-4.128-2.25a15.511,15.511,0,0,1-7.632,1.55c-4.05,0-4.985-1.05-4.985-5.53,0-.77,0-1.09.117-3.19a64.518,64.518,0,0,0,11.682-4.24c2.531-1.09,3.038-1.44,3.038-1.99a1.749,1.749,0,0,0-.507-1.05,12.418,12.418,0,0,0-2.414-2.06,6.942,6.942,0,0,0-2.336-.51c-0.351,0-.545.08-0.545,0.27a0.788,0.788,0,0,0,.194.39,1.328,1.328,0,0,1,.312.9,3.656,3.656,0,0,1-1.636,2.53,46.884,46.884,0,0,1-7.749,4.63,66.424,66.424,0,0,1,.7-8.53,6.022,6.022,0,0,0,.195-1.32,1.989,1.989,0,0,0-1.207-1.75,6.3,6.3,0,0,0-2.882-1.05c-0.973,0-2.453.5-2.453,0.81a0.25,0.25,0,0,0,.194.2c1.909,0.74,2.259,1.56,2.259,5.18,0,0.82-.039,2.29-0.078,4.4Zm15.537-16.51c-1.051,0-1.635.16-1.635,0.47a0.324,0.324,0,0,0,.273.27,6.014,6.014,0,0,1,3.387,2.61c0.546,0.98.74,1.17,1.324,1.17a1.616,1.616,0,0,0,1.714-1.48C750.27,2789.19,747.855,2787.75,745.207,2787.75Zm4.673-2.88c-0.934,0-1.674.24-1.674,0.51a0.374,0.374,0,0,0,.272.27,5.759,5.759,0,0,1,3.388,2.53c0.623,1.05.818,1.21,1.4,1.21a1.7,1.7,0,0,0,1.714-1.52C754.982,2786.35,752.489,2784.87,749.88,2784.87Zm34.626,24.89c-0.856.07-1.713,0.19-2.531,0.27-0.272,0-2.492.27-5.179,0.58-2.881.31-2.881,0.31-3.271,0.31a3.715,3.715,0,0,1-2.531-.66c-0.117-.19-0.117-0.19-0.2-0.19a1.171,1.171,0,0,0-.467,1.17c0,0.42.273,0.73,1.051,1.36a5.279,5.279,0,0,0,2.454,1.05,5.369,5.369,0,0,0,2.141-.66,10.851,10.851,0,0,1,2.648-.82,63.249,63.249,0,0,1,9.58-.93,41.843,41.843,0,0,1,7.126.62,7.347,7.347,0,0,0,1.129.19,1.044,1.044,0,0,0,1.168-.85c0-.9-2.18-2.96-3.154-2.96a2.207,2.207,0,0,0-.545.11,13.791,13.791,0,0,1-4.361.9c-0.312.04-1.246,0.12-2.259,0.23,0.7-3.19,1.052-4.67,1.986-7.79,0.818-.7.974-0.89,0.974-1.16,0-.35-0.234-0.59-1.441-1.44-1.714-1.21-1.753-1.25-1.986-1.25a1.287,1.287,0,0,0-.7.31,10.488,10.488,0,0,1-2.3.97,36.817,36.817,0,0,1-6.191,1.13,2.089,2.089,0,0,1-1.713-.74c-0.273-.46-0.273-0.46-0.429-0.46-0.311,0-.467.27-0.467,0.89a2.566,2.566,0,0,0,1.246,2.42,2.274,2.274,0,0,0,1.363.5,8.752,8.752,0,0,0,2.8-.89,14.478,14.478,0,0,1,4.439-1.37,0.762,0.762,0,0,1,.662.9A70.664,70.664,0,0,1,784.506,2809.76Zm39.728-13.63c-0.234,0-.429.07-0.429,0.23a0.353,0.353,0,0,0,.273.31c1.519,0.74,3.037,3,3.66,5.53,0.273,1.05.584,1.44,1.246,1.44a2.074,2.074,0,0,0,1.947-2.14C830.931,2798.93,827.466,2796.13,824.234,2796.13Zm15.264,4.12c0.662-.7.74-0.77,0.74-1.05a6.323,6.323,0,0,0-1.908-2.68,3.939,3.939,0,0,0-2.8-1.29,0.533,0.533,0,0,0-.623.39,0.714,0.714,0,0,0,.39.43,2.572,2.572,0,0,1,.506,1.67c0,3.08-2.1,7.64-5.179,11.33a31.129,31.129,0,0,1-10.709,8.3c-0.973.39-.973,0.39-0.973,0.58a0.38,0.38,0,0,0,.389.31c1.48,0,5.647-1.63,8.022-3.11A31.908,31.908,0,0,0,839.5,2800.25Zm-21.3-.81c-0.389,0-.506.07-0.506,0.23a0.626,0.626,0,0,0,.428.47,10.382,10.382,0,0,1,3.544,5.25,1.058,1.058,0,0,0,1.051.86,1.994,1.994,0,0,0,1.791-2.18C824.506,2801.62,821.586,2799.44,818.2,2799.44Zm66.869-4.4c1.441-.98,1.791-1.33,1.791-1.64a3.194,3.194,0,0,0-1.363-1.32c-2.219-1.56-2.843-1.91-3.31-1.91a2.41,2.41,0,0,0-1.324.54,11.277,11.277,0,0,1-4.634,1.56,90.283,90.283,0,0,1-9.968,1.21,3.56,3.56,0,0,1-2.96-1.13,0.525,0.525,0,0,0-.311-0.27,0.449,0.449,0,0,0-.312.54,3.679,3.679,0,0,0,1.324,3.12,5.249,5.249,0,0,0,2.375,1.13,1.525,1.525,0,0,0,.623-0.24,16.4,16.4,0,0,1,4.673-1.63,49.066,49.066,0,0,1,7.672-1.33c0.9,0,1.246.24,1.246,0.86a11.744,11.744,0,0,1-.74,2.96,24.686,24.686,0,0,1-5.413,9.23,27.872,27.872,0,0,1-12.7,8.76,0.379,0.379,0,0,0-.35.31,0.327,0.327,0,0,0,.389.27c1.87,0,6.854-1.83,10.008-3.66C877.59,2809.02,881.406,2803.99,885.067,2795.04Zm31.316,15.92-3,.28c-4.089.23-4.089,0.23-4.868,0.23-1.363,0-2.3-.23-2.609-0.66a0.269,0.269,0,0,0-.234-0.2,1.029,1.029,0,0,0-.389,1.09c0,0.55.311,0.98,1.207,1.52,1.791,1.17,1.791,1.17,2.414,1.17a4.252,4.252,0,0,0,1.48-.31c3.427-1.25,7.321-1.79,13.123-1.79a33.983,33.983,0,0,1,7.048.7,9.807,9.807,0,0,0,1.636.27,1.147,1.147,0,0,0,1.129-1.05c0-1.05-2.453-2.92-3.894-2.92a1.045,1.045,0,0,0-.35.04c-1.714.54-2.064,0.62-8.606,1.28,0.116-4.63.311-6.27,0.817-7.9a1.2,1.2,0,0,0,.156-0.51,2.9,2.9,0,0,0-1.441-1.32c1.4-.12,2.532-0.16,3.778-0.16,0.545,0,.545,0,2.57.08l0.467,0.04h0.389a0.909,0.909,0,0,0,.935-0.86,1.818,1.818,0,0,0-.935-1.32,4.949,4.949,0,0,0-2.375-1.13,2.809,2.809,0,0,0-1.051.35,19.457,19.457,0,0,1-6.309,1.4,53.978,53.978,0,0,1-5.412.47,3.374,3.374,0,0,1-2.142-.59c-0.312-.39-0.312-0.39-0.39-0.39-0.194,0-.272.16-0.272,0.55,0,1.44,1.246,3,2.414,3a1.936,1.936,0,0,0,.351-0.08,6.151,6.151,0,0,1,1.83-.58,16.644,16.644,0,0,1,2.687-.43c0.973,0,1.09.46,1.09,4.63a43.766,43.766,0,0,1-.2,5.02Zm48.684-23.79a3.357,3.357,0,0,1-1.831,1.25,4.473,4.473,0,0,0,.117-0.98,2.642,2.642,0,0,0-.973-2.45,3.11,3.11,0,0,0-1.908-.62c-1.013,0-2.259.39-2.259,0.7,0,0.11.078,0.15,0.273,0.19,0.895,0.04,1.518,1.21,1.518,2.84a4.68,4.68,0,0,1-.155,1.21,10.748,10.748,0,0,1-4.128.86c-1.4,0-2.064-.2-2.531-0.7a0.566,0.566,0,0,0-.312-0.2,0.182,0.182,0,0,0-.156.2,3.448,3.448,0,0,0,3.349,3,18.279,18.279,0,0,0,3.466-.55c-1.441,4.44-3.193,6.85-7.632,10.48-1.13.85-1.207,0.97-1.207,1.55,0,1.44,1.129,3.24,1.985,3.24,0.546,0,1.013-.43,1.558-1.33,0.818-1.36,2.843-4.4,3.271-4.94a4.413,4.413,0,0,1,2.843-1.72c1.285,0,1.947,1.29,1.986,3.86l0.039,1.67v0.78a32.727,32.727,0,0,0-3.583,2.34c-1.947,1.55-2.881,3.11-2.881,4.75a5,5,0,0,0,2.764,4.2,13.587,13.587,0,0,0,6.581,1.29,31.381,31.381,0,0,0,5.919-.55c1.6-.39,2.414-1.05,2.414-1.9a3.426,3.426,0,0,0-.817-1.76,2.282,2.282,0,0,0-1.675-.7,4.427,4.427,0,0,0-1.168.27,23.368,23.368,0,0,1-6.036.86c-3.738,0-5.451-.78-5.451-2.49a4.572,4.572,0,0,1,1.324-2.92,13.516,13.516,0,0,1,2.687-2.14v0.74l-0.039,1.55a7.841,7.841,0,0,1-.078,1.25,1.761,1.761,0,0,0-.039.43,0.852,0.852,0,0,0,.934.66c1.675,0,2.415-.78,2.415-2.49,0-.7-0.039-1.33-0.117-3.58a71.562,71.562,0,0,1,10.825-4.4c2.648-.94,3.7-1.91,3.7-3.39,0-2.49-2.259-4.29-5.374-4.29-4.323,0-7.633,2.93-10.086,8.88-0.233-1.67-.545-2.45-1.207-3.03a4.222,4.222,0,0,0-2.8-1.02,5.59,5.59,0,0,0-2.063.47c1.6-2.69,2.219-3.85,4.01-7.4,3.855-1.13,4.79-1.67,4.79-2.72,0-.51,0-0.51-1.635-1.06Zm0.233,16.59v-0.08a9.585,9.585,0,0,1,1.558-3.78c1.947-3.27,4.283-5.06,6.62-5.06a2.148,2.148,0,0,1,1.986,2.07c0,1.09,0,1.09-10.2,6.97Zm58.5,0.5-2.3,2.57h-10.16v-4.55h1.71v1.28a0.53,0.53,0,0,0,.66.59c1.13,0,2.61-.63,2.61-1.13v-10.59l0.55-.35a0.951,0.951,0,0,0,.66-0.7,1.281,1.281,0,0,0-.47-0.82l-2.92-3.08-1.29,1.79h-3.93l0.27-.31c0.35-.47.74-0.89,1.13-1.36,0.31-.35.59-0.74,0.9-1.13a1.379,1.379,0,0,1,.27-0.27l0.62-.32a0.867,0.867,0,0,0,.71-0.73,0.716,0.716,0,0,0-.67-0.59l-3.77-1.01a49.6,49.6,0,0,1-.86,5.72h-0.51l-3.85-1.59v16.23c0,0.63.12,0.78,0.62,0.78,1.36,0,2.61-.58,2.61-1.24v-1.17h1.6v4.55H999.3c-1.674,0-3.154-.03-7.671-0.23l0.9,1.52c3.582-.16,5.062-0.19,6.775-0.19h6.227a41.583,41.583,0,0,1-12.808,9.65c-1.285.63-1.363,0.7-1.363,0.9a0.237,0.237,0,0,0,.273.23,32.451,32.451,0,0,0,5.607-1.87,40.111,40.111,0,0,0,10.751-6.34v8.48a0.516,0.516,0,0,0,.5.59,7.687,7.687,0,0,0,2.22-.66,0.817,0.817,0,0,0,.63-0.55v-9.62c2.68,3.97,7.51,7.64,13.04,9.89a12.287,12.287,0,0,1,3.51-3.58c-6.74-.97-12.66-3.62-15.93-7.12h15.11a0.44,0.44,0,0,0,.5-0.47,0.863,0.863,0,0,0-.42-0.7Zm-17.41-3.03v-5.18h6.66v5.18h-6.66Zm0-6.23v-4.68h6.66V2795h-6.66Zm-11.837,9.46a1.266,1.266,0,0,0,.856.54,0.886,0.886,0,0,0,.857-1.01l0.156-.78c3-2.37,6.428-5.57,6.428-5.95a0.306,0.306,0,0,0-.31-0.28,5.52,5.52,0,0,0-1.6.7,64.683,64.683,0,0,1-9.113,3.82Zm-0.624-16.9c-0.311,0-.506.12-0.506,0.31a0.8,0.8,0,0,0,.429.55,6.6,6.6,0,0,1,2.648,3.85,19.672,19.672,0,0,0,.739,2.1,1.493,1.493,0,0,0,1.363.82,1.9,1.9,0,0,0,1.868-2.14,5.377,5.377,0,0,0-3.542-4.67A12.1,12.1,0,0,0,993.929,2787.56Zm31.351,2.92a0.82,0.82,0,0,0,.66-0.66,1.213,1.213,0,0,0-.55-0.86l-2.88-2.45a45.34,45.34,0,0,1-4.98,8.18,1.443,1.443,0,0,0-.43.74,0.22,0.22,0,0,0,.19.23c0.51,0,4.05-2.45,7.21-4.95Zm-7.36,6.39c-0.31,0-.47.07-0.47,0.23a0.792,0.792,0,0,0,.47.51,19.133,19.133,0,0,1,4.9,4.79c0.63,0.89,1.02,1.16,1.6,1.16a1.707,1.707,0,0,0,1.75-1.79c0-1.71-1.56-3.19-4.24-4.09A19.055,19.055,0,0,0,1017.92,2796.87Zm28.47-11.65c-0.82,0-1.87.35-1.87,0.66a0.183,0.183,0,0,0,.2.16c1.44,0.16,2.14,1.6,2.14,4.36,0,0.51-.08,2.3-0.24,4.83-0.54,9.81-.54,10.09-0.54,11.49,0,7.2,3.19,11.02,9.27,11.02,4.2,0,8.1-2.22,11.25-6.39a14.812,14.812,0,0,0,2.26-4.05,0.236,0.236,0,0,0-.2-0.27,0.276,0.276,0,0,0-.23.19,17.934,17.934,0,0,1-3.58,3.55,15.63,15.63,0,0,1-9.5,3.42c-4.09,0-6.31-2.57-6.31-7.24a91.556,91.556,0,0,1,1.79-13.71c0.7-2.14.78-2.41,0.78-3.07C1051.61,2787.72,1048.96,2785.22,1046.39,2785.22Zm63.25,17.25a2.284,2.284,0,0,1,.5-0.04l0.51-.03h0.43c1.83,0,3.11.54,3.78,1.59a2.213,2.213,0,0,0,2.14-2.49c0-3.97-3.82-7.55-8.02-7.55-2.46,0-3.59,1.32-3.59,4.2,0,1.09,0,1.09.24,7.01,0.15,3.86.15,3.86,0.15,4.95,0,1.83-.43,2.64-1.83,3.42-1.17.66-4.79,1.29-7.51,1.29-2.61,0-4.13-.98-4.13-2.61a7.66,7.66,0,0,1,.93-3.35c1.76-3.19,2.65-5.88,2.65-7.75a2.17,2.17,0,0,0-1.21-1.99c0.28-2.1.35-2.45,0.59-4.01a26.031,26.031,0,0,0,4.32-1.4c0.9-.39,1.25-0.66,1.25-1.13,0-.82-1.25-1.52-3.16-1.79a3.584,3.584,0,0,1-1.87,1.64,19.549,19.549,0,0,1,.82-3.39,1.556,1.556,0,0,0,.16-0.62,3.626,3.626,0,0,0-1.17-1.83,3.679,3.679,0,0,0-2.45-1.37c-0.86,0-2.96.9-2.96,1.29,0,0.15.07,0.19,0.42,0.19,1.41,0.08,2.11,1.6,2.11,4.52,0,0.35,0,.35-0.04,2.02a22.9,22.9,0,0,1-4.91.71,3.484,3.484,0,0,1-3.11-1.37,0.754,0.754,0,0,0-.31-0.31,0.183,0.183,0,0,0-.16.2,5.786,5.786,0,0,0,.47,1.98,3.349,3.349,0,0,0,3.35,1.99,19.426,19.426,0,0,0,4.51-.7,24.53,24.53,0,0,1-.23,2.84,4.715,4.715,0,0,0-3.12,1.01,8.061,8.061,0,0,0-2.53,6.12c0,2.6,1.17,4.47,2.73,4.47a2.214,2.214,0,0,0,1.79-.97,11.572,11.572,0,0,0-.58,3.23c0,3.35,2.53,5.06,7.47,5.06,6.78,0,12-2.29,12-5.33a2.391,2.391,0,0,0-.2-0.93,7.129,7.129,0,0,1-2.26-4.13,44.047,44.047,0,0,1-1.01-8.92c0-1.99.55-2.96,1.64-2.96a4.21,4.21,0,0,1,2.68,1.44,7.053,7.053,0,0,1,1.95,3.43c0,0.43-.82.93-3.19,1.91a0.373,0.373,0,0,0-.31.31,0.166,0.166,0,0,0,.19.15h0.08Zm-17.91-2.64c0.31,0.03.42,0.27,0.42,0.93a21.541,21.541,0,0,1-.58,4.17c-0.55,2.61-.66,2.88-1.21,2.88-0.74,0-1.21-.98-1.21-2.53a9.742,9.742,0,0,1,.71-3.86A2.7,2.7,0,0,1,1091.73,2799.83Zm52.03,10.12a1.317,1.317,0,0,1-.74,1.44,15.878,15.878,0,0,1-2.73-1.44,1.465,1.465,0,0,0-.66-0.35,0.341,0.341,0,0,0-.23.27,0.838,0.838,0,0,0,.31.47,8.962,8.962,0,0,1,2.96,5.22c0.11,0.66.27,0.82,0.89,0.82a3.2,3.2,0,0,0,2.42-1.37,4.933,4.933,0,0,0,1.09-3c0-.62-0.04-1.71-0.08-2.84-0.2-4.71-.31-9.81-0.27-12.07a38.379,38.379,0,0,1,5.49-.35,43.471,43.471,0,0,1,4.4.27,10.859,10.859,0,0,0,1.36.12,1.236,1.236,0,0,0,1.4-1.13c0-.94-2.49-2.53-3.93-2.53a2.5,2.5,0,0,0-1.01.27c-1.83.86-3.31,1.17-7.6,1.64,0.08-2.69.2-3.39,0.67-4.4a2.58,2.58,0,0,0,.23-0.82c0-.39-0.35-0.78-1.6-1.72a4.271,4.271,0,0,0-2.45-1.12c-0.86,0-2.45.66-2.45,1.05,0,0.15.11,0.23,0.46,0.23,1.48,0.12,1.87,1.13,1.99,5.37,0,0.28.04,0.98,0.08,1.83-4.56.51-6.74,0.71-8.34,0.71-2.37,0-3.27-.28-3.93-1.29a0.708,0.708,0,0,0-.43.74c0,1.48,2.38,3.86,3.86,3.86a1.786,1.786,0,0,0,.93-0.39,22.53,22.53,0,0,1,7.95-1.99Zm-5.84-7.94c-0.16,0-.2.04-0.28,0.23-0.66,2.53-2.84,4.75-6.03,6.19a1.608,1.608,0,0,0-1.09,1.56,2,2,0,0,0,1.94,1.95c1.29,0,2.96-1.06,4.25-2.65a7.659,7.659,0,0,0,1.71-5.06C1138.42,2802.67,1138.27,2802.01,1137.92,2802.01Zm12.69-.86c-0.66,0-1.09.16-1.09,0.39,0,0.12.08,0.19,0.43,0.31,2.49,1.01,4.63,3.7,5.61,7.05,0.46,1.6,1.05,2.22,2.02,2.22a2.155,2.155,0,0,0,2.14-2.38C1159.72,2804.93,1155.21,2801.15,1150.61,2801.15Zm5.96-17.56a3.91,3.91,0,1,0,3.85,3.89A3.928,3.928,0,0,0,1156.57,2783.59Zm-0.04,1.48a2.415,2.415,0,1,1-2.45,2.37A2.4,2.4,0,0,1,1156.53,2785.07Zm37.39,29.9c0-.04-0.08-1.83-0.19-5.41-0.08-3.58-.16-6.81-0.16-6.85a12,12,0,0,1,.27-2.57,1.285,1.285,0,0,0,.35-0.82c0-.39-0.23-0.58-1.52-1.17-0.11-.04-0.5-0.23-0.89-0.43,2.69-2.88,3.89-4.24,5.06-5.64a3.971,3.971,0,0,1,1.36-1.25,0.762,0.762,0,0,0,.51-0.66c0-.51-0.58-1.33-1.99-2.73-1.2-1.24-1.94-1.63-3.19-1.63-0.74,0-1.13.11-1.13,0.35a0.334,0.334,0,0,0,.24.23,1.665,1.665,0,0,1,.93,1.68c0,4.32-10.51,15.96-17.68,19.62-0.7.35-.74,0.35-0.74,0.55a0.306,0.306,0,0,0,.31.27,18.44,18.44,0,0,0,3.78-1.32c3.97-1.72,5.8-3.04,11.02-7.95a5.424,5.424,0,0,1,.27,2.26c0,1.95-.04,3.54-0.19,7.28a16.748,16.748,0,0,1-.66,5.22,3.367,3.367,0,0,0-.35,1.25c0,0.89,2.29,3.03,3.23,3.03,0.78,0,1.4-.93,1.4-2.1Zm31.71-24.45c-1.41,0-2.38.19-2.38,0.51,0,0.11.12,0.19,0.43,0.27a11.269,11.269,0,0,1,5.68,5.22c0.55,1.16.9,1.48,1.68,1.48a2.149,2.149,0,0,0,2.14-2.07C1233.18,2793.24,1229.4,2790.52,1225.63,2790.52Zm25,0.12a1.012,1.012,0,0,0-.59.46c-2.37,3.16-8.02,8.61-13.12,12.62-4.25,3.35-7.87,5.26-9.97,5.26a3.158,3.158,0,0,1-2.3-.94c-0.19-.39-0.23-0.39-0.35-0.39-0.31,0-.54.74-0.54,1.56,0,0.86.54,1.67,2.02,3.08a5.119,5.119,0,0,0,2.73,1.63,1.057,1.057,0,0,0,.54-0.23c0.28-.2.51-0.43,0.74-0.62a4.068,4.068,0,0,1,.74-0.51,58.446,58.446,0,0,0,16.59-15.07c1.64-2.22,3.78-5.96,3.78-6.58A0.329,0.329,0,0,0,1250.63,2790.64Zm29.75,13.86-0.03-3.19-0.08-3.55a13.7,13.7,0,0,1,6.11,5.22,9.614,9.614,0,0,0,1.25,1.83,2.324,2.324,0,0,0,1.79.82,1.982,1.982,0,0,0,2.06-2.07c0-1.4-1.28-3.07-3.23-4.32-2.14-1.36-4.28-1.95-7.94-2.26a28.126,28.126,0,0,1,.54-6.34,3.951,3.951,0,0,0,.55-1.52,3.669,3.669,0,0,0-1.05-1.79c-1.09-1.13-1.95-1.64-2.81-1.64-1.13,0-3.46,1.09-3.46,1.6a0.256,0.256,0,0,0,.31.27c1.87,0,2.26.51,2.45,2.92,0.08,1.09.27,8.64,0.27,11.25a100.458,100.458,0,0,1-.54,10.36,11.641,11.641,0,0,0-.39,2.18c0,1.44,1.71,3.9,2.76,3.9,0.98,0,1.76-1.52,1.76-3.51,0-.5-0.04-1.83-0.16-3.42-0.04-.47-0.08-1.76-0.08-3.12Z" transform="translate(-543.031 -2783.56)"/>
</svg>
