<svg xmlns="http://www.w3.org/2000/svg" viewBox="0 0 347.56 25.8"><defs><style>.cls-1{fill:#333;}</style></defs><g id="Layer_2" data-name="Layer 2"><g id="Layer_1-2" data-name="Layer 1"><path class="cls-1" d="M23.91,21.67l-1.7,2H18.37V20.79h7.09a.39.39,0,0,0,.38-.35.56.56,0,0,0-.24-.38l-2.23-1.84L22.1,19.87H18.37V17.29h3.5V18a.51.51,0,0,0,.57.52c.76,0,1.33-.39,1.33-.91v-6l.32-.12a.54.54,0,0,0,.38-.48.63.63,0,0,0-.2-.42L22.59,8.91l-.78,1.16H18.37V7.83h7.68c.2,0,.32-.24.32-.46a.52.52,0,0,0-.21-.46L23.91,5,22.35,6.9h-4V4c1.72-.33,2-.39,4-.82l1.12,0a.61.61,0,0,0,.5-.12.33.33,0,0,0,.12-.25.83.83,0,0,0-.3-.54L21.91.61,21.84.55l-.08,0A44.54,44.54,0,0,1,11.43,4.28c-1,.24-1.24.31-1.24.62a.42.42,0,0,0,.46.41,9.15,9.15,0,0,0,1.68-.23L13.11,5c.41-.07,1-.16,1.66-.25.1,0,.28-.06.52-.1s.7-.12,1.12-.21V6.9H13.79c-.87,0-1.63,0-3.75-.11H9.86l.26.8L8.51,6.27,7.15,7.91H6.52V3.46l.07,0L9.12,2.7l1-.08c.38,0,.51-.22.51-.41a.52.52,0,0,0-.19-.43L8.68.29,8.6.34A38.8,38.8,0,0,1,1.17,3.78C.29,4.09,0,4.21,0,4.48a.42.42,0,0,0,.43.41A35.63,35.63,0,0,0,4.59,4V7.91c-1.78,0-2.1,0-4.12-.11H.29L.62,8.92h.1l1.15,0c.95,0,1.44-.05,2.7-.05a27.27,27.27,0,0,1-3.85,9.8c-.53.76-.61.9-.61,1.08a.37.37,0,0,0,.35.35c.15,0,.33-.14.76-.57A24.41,24.41,0,0,0,4.59,15V25.09c0,.29.22.46.58.46A3.39,3.39,0,0,0,6,25.37c.38-.19.49-.31.49-.73V13.13a3.4,3.4,0,0,1,1,1.34c.54,1.33.54,1.33.72,1.54a.94.94,0,0,0,.71.36,1.19,1.19,0,0,0,1.11-1.25c0-1.41-1.16-2.42-3.56-3.09V8.83h3.71c.19,0,.41-.13.41-.51a.73.73,0,0,0-.14-.42l1.61-.05c.7,0,1.29,0,1.68,0h2.62v2.24H13.15l-2-1.1v9.62a.42.42,0,0,0,.44.49,2.32,2.32,0,0,0,.94-.23.72.72,0,0,0,.47-.76v-.8h3.39v2.58h-3c-1.28,0-1.87,0-3.61-.11H9.47l.36,1.13,1.89-.06c.73,0,1.37,0,1.68,0h3V23.7H12.17c-.87,0-1.7,0-3.75-.11h-.2l.48,1.13,1.29,0c1.07,0,1.6,0,2.18,0h14c.19,0,.32-.21.32-.49a.67.67,0,0,0-.18-.49ZM18.37,11h3.5V13.2h-3.5Zm0,3.14h3.5v2.24h-3.5Zm-2,2.24H13V14.13h3.39Zm0-3.17H13V11h3.39Z"/><path class="cls-1" d="M42,6.59c.1,0,.37,0,2.37-2.85l.53-.21A.64.64,0,0,0,45.33,3a.75.75,0,0,0-.46-.56L43,1.56l0,.15a23.85,23.85,0,0,1-1.25,4.17,1.12,1.12,0,0,0-.09.39A.32.32,0,0,0,42,6.59Z"/><path class="cls-1" d="M34.72,4.34c.34,1.71.35,1.75.67,2a.83.83,0,0,0,.52.17,1.27,1.27,0,0,0,1.22-1.3A3.32,3.32,0,0,0,35.67,2.7a5.53,5.53,0,0,0-1.77-.8l-.08,0-.32.37.08.08A3.42,3.42,0,0,1,34.72,4.34Z"/><path class="cls-1" d="M51.73,21.69,50,20.44l-.07.09A25.06,25.06,0,0,1,44.06,25c-.43.18-.6.29-.6.5a.34.34,0,0,0,.35.32A12.71,12.71,0,0,0,46.18,25a35.2,35.2,0,0,0,4.61-2.29l.79-.06a.5.5,0,0,0,.47-.46A.73.73,0,0,0,51.73,21.69Z"/><path class="cls-1" d="M45,22.74a2.71,2.71,0,0,0-1.46-2.07,15.2,15.2,0,0,0-3.31-1.35,13.54,13.54,0,0,0,.24-1.39H46.3c.19,0,.37-.23.37-.48a.75.75,0,0,0-.24-.5l-2-1.52L43,17H40.55l.1-1,.44-.36a.89.89,0,0,0,.38-.63c0-.29-.21-.6-.79-.6h0l-2.07-.12v1.22c0,.42,0,.72,0,1.11,0,.12,0,.25,0,.39H36.75c-.87,0-1.67,0-3.72-.11h-.19L33.28,18,35.05,18c.72,0,1.31,0,1.7,0h1.71c-.41,3.56-1.71,5.36-5.11,7.07-.27.09-.31.25-.31.34a.32.32,0,0,0,.35.32,9.66,9.66,0,0,0,2.86-1.25A7.46,7.46,0,0,0,40,20.15a7.16,7.16,0,0,1,2.36,2.35c.71,1.16,1,1.45,1.48,1.45A1.2,1.2,0,0,0,45,22.74Z"/><path class="cls-1" d="M33.42,13.51c-.58.49-.63.57-.63.72a.32.32,0,0,0,.32.32c.09,0,.24-.07.8-.39a21.32,21.32,0,0,0,4.79-4.09v3.48c0,.14,0,.46.54.46.77,0,1.33-.3,1.33-.71V9.52a6.94,6.94,0,0,1,2.07,1.84C43.75,13,43.77,13,44.25,13a1.14,1.14,0,0,0,1-1.14c0-.57-.36-1.09-1.2-1.75a9.18,9.18,0,0,0-3.53-1.51V7.85h5.92c.2,0,.35-.24.35-.46a.6.6,0,0,0-.18-.46L44.71,5.25,43.35,6.93H40.57V2l.26-.18c.38-.29.55-.54.55-.8s-.3-.6-.76-.63L38.7.29V6.93h-2c-1.44,0-1.93,0-3.74-.08H32.8l.3,1.1.7,0c1.23,0,1.85-.07,2.92-.07h1.37A24.75,24.75,0,0,1,33.42,13.51Z"/><path class="cls-1" d="M56.24,0l-1.52,1.9H49.49c-.81,0-1.6,0-3.75-.11h-.18L46,2.93l1.85-.06c.7,0,1.31,0,1.68,0h.9c-.1,1.46-.14,1.76-.34,3.34H49L47,4.93V21.2a.4.4,0,0,0,.44.4c.59,0,1.49-.29,1.49-.68V19.7h6.14v.85c0,.24.16.38.43.38.84,0,1.53-.42,1.53-.94V7.86l.4-.09c.34-.07.58-.29.58-.54a.78.78,0,0,0-.27-.54L55.83,4.91l-.94,1.27H51.5c.63-1.46.77-1.81,1.38-3.34H58.5a.45.45,0,0,0,.44-.46.74.74,0,0,0-.3-.55ZM55.05,18.78H48.91V15.53h6.14Zm0-4.18H48.91V11.33h6.14Zm0-7.5v3.3H48.91V7.1Z"/><path class="cls-1" d="M52.79,20.57l-.1,0-.22.57.1.05a8.53,8.53,0,0,1,2.84,2.2c1.72,2.18,1.72,2.18,2.28,2.18a1.06,1.06,0,0,0,1-1.13C58.71,22.83,56.17,21.18,52.79,20.57Z"/><path class="cls-1" d="M66.38,14.07c1.44,0,2.31-.06,2.74-.08l1,0,1.46,0H89.7c.16,0,.6,0,.6-.43A.77.77,0,0,0,90,13l-2.25-1.9L86,13H71.58L69.12,13l-3.2-.12.36,1.24Z"/><path class="cls-1" d="M69.84,12.64c.8,0,1.36-.35,1.39-.87l0-.67H84.78v.63a.4.4,0,0,0,.44.38,4.12,4.12,0,0,0,1-.2.67.67,0,0,0,.53-.6l0-5.71.49-.19c.31-.14.46-.32.46-.54a.85.85,0,0,0-.35-.62L85.42,2.68l-1,1.2H81.39V2.45l.45-.3a.79.79,0,0,0,.42-.61q0-.53-.87-.63L79.52.76V3.88h-3V2.45L77,2.09a.63.63,0,0,0,.33-.52c0-.35-.29-.59-.78-.66l-2-.21V3.88H71.4l-2.07-1.4v9.64A.45.45,0,0,0,69.84,12.64ZM81.39,4.8h3.39v2H81.39Zm0,2.94h3.39v2.44H81.39ZM76.52,4.8h3v2h-3Zm0,2.94h3v2.44h-3ZM71.26,4.8h3.36v2H71.26Zm0,2.94h3.36v2.44H71.26Z"/><path class="cls-1" d="M90.36,23.11,88,21.4l-1.94,2h-5l1.46-2.81c.3-.18.37-.27.42-.5h.51v.8c0,.44.32.49.57.49.71,0,1.38-.4,1.38-.83V16.73l.37-.08a.48.48,0,0,0,.45-.46.77.77,0,0,0-.3-.52l-1.84-1.54-.93,1.2H72.65l-1.87-1.07v7a.48.48,0,0,0,.49.43,2.67,2.67,0,0,0,.8-.23c.31-.12.59-.27.59-.62v-.8h.41a2.1,2.1,0,0,1,.83,1.24c.11.53.19,1.07.27,1.58a1.36,1.36,0,0,0,.16.49H71.19l-2.14-.06-3.37-.08H65.5l.42,1.21H66c1.12,0,2.38-.06,2.72-.09l1.28,0,1.18,0H90.26a.51.51,0,0,0,.57-.52A.9.9,0,0,0,90.36,23.11Zm-17.7-3.94V16.25H83.5v2.92Zm7.11,4.23h-3.7a1.92,1.92,0,0,0,.23-.91,2.46,2.46,0,0,0-.74-1.69,5.15,5.15,0,0,0-.91-.71h5.93Z"/><path class="cls-1" d="M119.81,16.42,117.66,15,117,16.06H104l-2.17-1.24V25.15a.56.56,0,0,0,.57.57c.79,0,1.44-.45,1.44-1v-.8h13.39v.8a.6.6,0,0,0,.68.68,1.31,1.31,0,0,0,1.47-1.19V17.73l.4-.14a.61.61,0,0,0,.44-.54A.82.82,0,0,0,119.81,16.42ZM109.56,23h-5.71V20.43h5.71Zm0-3.5h-5.71V17h5.71Zm7.68,3.5h-5.61V20.43h5.61Zm0-3.5h-5.61V17h5.61Z"/><path class="cls-1" d="M115,15.44a3.92,3.92,0,0,0,.86-.23c.34-.13.5-.31.5-.59V11.19l.33-.16c.29-.2.42-.37.42-.56a.75.75,0,0,0-.33-.58l-1.87-1.24-.71,1.14h-7.32l-2.14-1.06v6.45c0,.26.27.46.63.46a2,2,0,0,0,.89-.26.62.62,0,0,0,.44-.68v-.57h7.7v.68A.59.59,0,0,0,115,15.44Zm-8.3-2.24V10.65h7.7V13.2Z"/><path class="cls-1" d="M118.38,7.37a.69.69,0,0,0-.33-.56l-2.31-1.57L114.36,7h-7.61c-.87,0-1.62,0-3.75-.11h-.21L103.37,8,104,8c1.31,0,2-.07,2.73-.07h11.17A.48.48,0,0,0,118.38,7.37Z"/><path class="cls-1" d="M122.82,4.39l-2.4-2-.88,1.2h-7.85V1.78l.52-.27c.38-.19.46-.42.46-.58,0-.36-.28-.6-.73-.63l-2.4-.3V3.54h-7.69l-.51-1.44-.71.12v.61a4.22,4.22,0,0,1-.92,2.8c-1.35,1.66-1.35,1.66-1.35,2a1.39,1.39,0,0,0,1.36,1.24c1.24,0,2.37-1.69,2.37-3.54a4.1,4.1,0,0,0-.09-.85h17.56l-1.14,2.88,0,.08.45.4L121.35,6h.91c.5,0,1.16-.07,1.16-.69C123.42,5,123.2,4.74,122.82,4.39Z"/><path class="cls-1" d="M144.62,5.07a1,1,0,0,0-1.08-.91,1.36,1.36,0,0,1-.59-.1c-.21-.1-.37-.18-1.36-.73a4.66,4.66,0,0,0,.23-1c0-.74-1-1.41-2.14-1.41-.61,0-1.7.39-1.7.77,0,.22.16.23.39.26h0a1.16,1.16,0,0,1,1.27,1.31,13,13,0,0,1-.45,3,13.81,13.81,0,0,1-3.12.51,2.84,2.84,0,0,1-2.55-1.33.23.23,0,0,0-.22-.15.26.26,0,0,0-.27.26,4.93,4.93,0,0,0,.44,1.27,2.82,2.82,0,0,0,2.55,1.71,12.34,12.34,0,0,0,2.61-.37c-1.06,3.12-4.06,8.2-5.67,9.54a1.4,1.4,0,0,0-.54,1c0,.63.58,1.07,1.41,1.07,1,0,1.38-.45,2.29-2.11h0a87.85,87.85,0,0,0,4.29-9.87C143.22,6.94,144.62,6,144.62,5.07Zm-3.18-1.19c.43.31,1.05.77,1.05.91s-.15.41-1.53,1C141.16,5,141.26,4.68,141.44,3.88Z"/><path class="cls-1" d="M148.72,7.3c-1.07,0-2.84.45-2.84,1a.34.34,0,0,0,.32.35.42.42,0,0,0,.18,0,4,4,0,0,1,1.33-.17c1.44,0,2.79.58,2.79,1.2,0,.14-.08.26-.5.38-3.1.82-4.37,2.33-4.37,5.22,0,.23,0,.61,0,1.17,0,.79,0,.81,0,2.24a9.92,9.92,0,0,0-1.77-.12c-3.15,0-5,1.23-5,3.29,0,1.9,1.83,3.17,4.55,3.17,2.87,0,4.18-1.26,4.24-4.1a9.8,9.8,0,0,1,2.94,2.43,1.67,1.67,0,0,0,1.3.75,1.11,1.11,0,0,0,1.16-1.11c0-1.31-2-2.76-5.4-3.9a20.18,20.18,0,0,0-.22-2.55,22.24,22.24,0,0,1-.2-2.42c0-2,1.06-3,3.15-3a6,6,0,0,1,1.81.3,1.3,1.3,0,0,0,.49.12c.52,0,.82-.34.82-.93C153.52,8.79,151.32,7.3,148.72,7.3ZM145.6,21.18a2.18,2.18,0,0,1-2.48,2.05c-1.58,0-2.81-.7-2.81-1.58,0-1.15,1.06-1.92,2.64-1.92a6.58,6.58,0,0,1,2.71.49C145.66,20.42,145.62,21,145.6,21.18Z"/><path class="cls-1" d="M185.3,8.08l-.08.11a35.1,35.1,0,0,1-8.48,8.42c-1,.66-1,.66-1,.86a.35.35,0,0,0,.37.35c.28,0,.6-.14,2.33-1.11a27.47,27.47,0,0,0,7.5-5.78h.81a.56.56,0,0,0,.6-.54,1,1,0,0,0-.43-.76Z"/><path class="cls-1" d="M175.29,4.05c-.52,1.6-1.26,3.53-2.66,6.88l0,.08.53.49,3.77-5.14.35-.05c.31-.06.63-.29.63-.6s-.25-.57-.65-.81l-1.9-1Z"/><path class="cls-1" d="M168,4.37l-.31.43.08.08a6.35,6.35,0,0,1,1.73,2.27,8.34,8.34,0,0,0,.66,1.74,1,1,0,0,0,.8.5c.58,0,1.08-.66,1.08-1.41,0-1.45-1.66-3-3.95-3.59Z"/><path class="cls-1" d="M164,5.25l-.26.44.05.07a8,8,0,0,1,1.46,3.34c.19,1,.37,1.41,1,1.41a1.18,1.18,0,0,0,1.13-1.3,3.27,3.27,0,0,0-1.1-2.41,5.68,5.68,0,0,0-2.17-1.51Z"/><path class="cls-1" d="M163.73,4.33c.15,0,1-.09,2.06-.23a76.69,76.69,0,0,0,8.72-1.45l1.15.22h.11a.6.6,0,0,0,.66-.54,1,1,0,0,0-.35-.63L174.52.15l-.08.06c-1.06.75-4.13,1.73-9.67,3.08-1.45.3-1.47.31-1.47.63A.38.38,0,0,0,163.73,4.33Z"/><path class="cls-1" d="M175.7,10.28a.34.34,0,0,0,.32.35,12.53,12.53,0,0,0,2.78-1.42,36.45,36.45,0,0,0,6.74-5.69l.61,0a.85.85,0,0,0,.66-.2A.5.5,0,0,0,187,3c0-.27-.15-.5-.58-.83L184.63.76l-.07.14c-1.06,2.15-5.38,6.75-8.11,8.63C175.77,10,175.7,10.06,175.7,10.28Z"/><path class="cls-1" d="M174.05,17.82a9.16,9.16,0,0,0-3-1.33V14.74h5.67c.21,0,.46-.09.46-.51a.83.83,0,0,0-.38-.63L175,12.18l-1.5,1.64h-2.48v-2.2l.49-.22a.87.87,0,0,0,.52-.73c0-.35-.32-.6-.81-.63l-2.13-.21v4h-2.3l-1,0-2.77-.08h-.18l.37,1.13h.09c1.68-.09,1.82-.09,3.47-.09h2.25a25.34,25.34,0,0,1-5.48,7.91c-.69.69-.7.71-.7.93a.38.38,0,0,0,.4.37c.18,0,.4-.12.86-.5a30.19,30.19,0,0,0,5-4.91v6.58c0,.22,0,.46.38.46.88,0,1.55-.42,1.55-1V17.45a6.26,6.26,0,0,1,1.42,1.32c1.36,2.13,1.36,2.13,1.79,2.13a1.14,1.14,0,0,0,1.1-1.16A2.57,2.57,0,0,0,174.05,17.82Z"/><path class="cls-1" d="M186.43,14.88l-.09.1a36.75,36.75,0,0,1-10.29,8.85c-.61.3-.77.42-.77.64a.38.38,0,0,0,.38.38,10.66,10.66,0,0,0,2.35-.91,34.41,34.41,0,0,0,8.78-6.12h.94c.35,0,.76-.06.76-.57a1.2,1.2,0,0,0-.33-.7Z"/><path class="cls-1" d="M210.24,6.26a4.62,4.62,0,0,0-3.55,2.18A16.16,16.16,0,0,0,205,11.5c-.14.41-.26.44-.38.44s-.19-.19-.19-.37a16,16,0,0,1,2.33-7.1c.54-.74.64-1,.64-1.39s-.27-.77-.82-1.27a3.36,3.36,0,0,0-2.19-.9c-.52,0-1.86.29-1.86.66s.26.24.35.24a1.79,1.79,0,0,1,1.75,1.47,16.42,16.42,0,0,1-.78,3.3,21.87,21.87,0,0,0-1,6.3c0,2.83.78,4.89,1.86,4.89a1.27,1.27,0,0,0,1.08-1.36.7.7,0,0,0-.12-.44,4.2,4.2,0,0,1-.25-1.47A10,10,0,0,1,207,9.81c.81-1.38,1.89-2.2,2.85-2.15,1.41.08,2.12,2,2.12,5.78,0,4.27-1.27,7.49-3.79,9.57A8.56,8.56,0,0,1,204,24.85c-.2,0-.35.1-.35.24s.34.54.69.54a12.92,12.92,0,0,0,4-1.24c3.84-2,5.95-5.66,5.95-10.39a14.3,14.3,0,0,0-1-5.68A3.57,3.57,0,0,0,210.24,6.26Z"/><path class="cls-1" d="M247.58,16a13,13,0,0,0-5.34-2.73,42.31,42.31,0,0,0,3.63-6l.13-.1.43-.3c.23-.16.39-.28.39-.47s-.18-.46-.95-1.05c-1.09-.83-1.43-1-1.75-1a.88.88,0,0,0-.52.19,5.7,5.7,0,0,1-2.2.91A46,46,0,0,1,236,6.2c-1,0-1.75-.33-1.87-.64a.29.29,0,0,0-.26-.22c-.41,0-.41.59-.41.88a1.47,1.47,0,0,0,.78,1.44c.9.68,1,.7,1.25.7.14,0,.18,0,.66-.21A31.21,31.21,0,0,1,242.8,6.4c.19,0,.38.08.38.29a9.2,9.2,0,0,1-1,2.5,26.62,26.62,0,0,1-3.91,6,25.26,25.26,0,0,1-8.63,6.41c-.42.15-.61.23-.61.45a.55.55,0,0,0,.55.46A16.06,16.06,0,0,0,233.34,21a23.3,23.3,0,0,0,8.36-7.07,11.13,11.13,0,0,1,5.66,6.16c.38,1,.79,1.4,1.41,1.4a1.46,1.46,0,0,0,1.35-1.58C250.12,18.63,249.25,17.27,247.58,16Z"/><path class="cls-1" d="M275.48,2.79c-.54,0-1.28.18-1.28.52s.21.3.41.34.83.54.83.75c0,2.45-8.63,11.22-13,13.21-.19.07-.36.15-.36.34s.25.35.41.35A12.42,12.42,0,0,0,265.65,17a35.6,35.6,0,0,0,7.19-5.68,2.92,2.92,0,0,1,.24,1.45,92.21,92.21,0,0,1-.66,9.66,2.43,2.43,0,0,0-.09.56c0,.71,1,1.5,1.94,1.5.5,0,.8-.48.8-1.27,0-.23,0-.57,0-.93l0-1.93v-3.2L275,14.28a6.17,6.17,0,0,1,.24-2.18,1.08,1.08,0,0,0,.12-.45c0-.36,0-.37-1.5-1l-.2-.09a44.87,44.87,0,0,0,3.77-4,2,2,0,0,1,1-.81c.27-.15.4-.27.4-.53C278.77,4.29,276.52,2.79,275.48,2.79Z"/><path class="cls-1" d="M314.79,11.8a6.83,6.83,0,0,0-.77.06A128.87,128.87,0,0,1,297.85,13c-1.56,0-2.21-.26-2.55-1-.08-.13-.17-.26-.33-.26s-.35.19-.35.46a7.94,7.94,0,0,0,.2,1.61,3.51,3.51,0,0,0,2.58,1.6,5.93,5.93,0,0,0,1.32-.2,74.85,74.85,0,0,1,11.73-.92c1.28,0,3.46,0,4.05.08s.82,0,1.05,0c1,0,1.58-.3,1.58-.8,0-.29-.2-.59-.77-1.12A2,2,0,0,0,314.79,11.8Z"/><path class="cls-1" d="M334.16,5.4a7.35,7.35,0,0,1,2.74,4.28c.12.72.41,1,1,1a1.43,1.43,0,0,0,1.33-1.41A4.88,4.88,0,0,0,337,5.81h0a5.56,5.56,0,0,0-2.7-1.06c-.3,0-.44.16-.44.32S334,5.34,334.16,5.4Z"/><path class="cls-1" d="M346.33,5.71a2.92,2.92,0,0,0-2.17-1.16c-.68,0-1.05.16-1.05.44s.19.27.39.34a1.22,1.22,0,0,1,.79,1.22,12.88,12.88,0,0,1-1.17,3.84,22.19,22.19,0,0,1-4.73,6.46,28,28,0,0,1-8.77,5.74c-.26.08-.42.13-.42.32a.53.53,0,0,0,.49.43,1,1,0,0,0,.2,0l.05,0a2.19,2.19,0,0,0,.47-.08,21.3,21.3,0,0,0,9.07-4.93,28.54,28.54,0,0,0,7.27-9.84c.59-.42.81-.69.81-1S347.27,6.72,346.33,5.71Z"/><path class="cls-1" d="M331.78,11.68l0,.14c.14.56.15.6.26.71a1,1,0,0,0,.84.45c.75,0,1.24-.58,1.24-1.47a4,4,0,0,0-2.21-3.1,5.87,5.87,0,0,0-2.87-1c-.29,0-.49.12-.49.29s.11.27.31.35C329.93,8.36,331.2,10,331.78,11.68Z"/></g></g></svg>