<svg xmlns="http://www.w3.org/2000/svg" width="517.688" height="33.43" viewBox="0 0 517.688 33.43">
  <defs>
    <style>
      .cls-1 {
        fill: #333;
        fill-rule: evenodd;
      }
    </style>
  </defs>
  <path id="約_0種の和洋折衷メニュー" data-name="約６0種の和洋折衷メニュー" class="cls-1" d="M663.852,6779.52a0.7,0.7,0,0,0,.36-0.54,0.922,0.922,0,0,0-.9-0.79l-2.735-.62a40.314,40.314,0,0,1-1.548,10.66,7.88,7.88,0,0,0-.4,1.55,0.219,0.219,0,0,0,.216.25c0.288,0,.792-0.76,1.8-2.63a30.68,30.68,0,0,0,2.663-7.49Zm0.972,10.62a0.413,0.413,0,0,0,.5.46,7.983,7.983,0,0,0,1.548-.25c0.72-.21.9-0.39,0.9-0.9v-14.97c0.432-.07.936-0.22,2.411-0.54,0.072,0.32.072,0.32,0.144,0.68a9.984,9.984,0,0,0,.36,1.69,1.114,1.114,0,0,0,1.152.83,1.794,1.794,0,0,0,1.584-2.01c0-1.44-1.332-3.13-3.312-4.25a11.128,11.128,0,0,0-1.691-.79,0.094,0.094,0,0,0-.108.11,0.4,0.4,0,0,0,.108.21,6.262,6.262,0,0,1,1.439,2.49c-0.791.07-2.267,0.18-4.427,0.32h-0.612a18.229,18.229,0,0,1,1.332-1.55c0.18-.14.648-0.68,1.332-1.44,0.36-.43.828-0.9,1.3-1.4l1.331-1.41,1.152-1.29,0.288-.33,0.756-.21a0.806,0.806,0,0,0,.72-0.65,1.081,1.081,0,0,0-.576-0.83l-2.736-1.87a70.864,70.864,0,0,1-5.687,10.58l-0.252.4-0.5.04c-2.015.07-2.3,0.07-4.391,0.18h-0.576l1.476,2.8a0.711,0.711,0,0,0,.648.54,0.839,0.839,0,0,0,.756-0.54l0.18-.36,0.395-.11,1.4-.28c0.828-.18,1.4-0.33,1.656-0.4v15.05Zm3.528-29.41a0.819,0.819,0,0,0,.648-0.72,0.886,0.886,0,0,0-.54-0.72l-2.88-1.59a58.686,58.686,0,0,1-2.556,6.95,9.208,9.208,0,0,0-3.923-1.51,0.163,0.163,0,0,0-.18.14,0.5,0.5,0,0,0,.216.33,6.154,6.154,0,0,1,2.376,3.99c0.359,1.44.755,1.95,1.511,1.95a1.788,1.788,0,0,0,1.692-1.8,4.032,4.032,0,0,0-1.008-2.45l0.288-.32,1.116-1.19c1.62-1.77,2.484-2.7,2.664-2.85Zm0.648,17.1a0.154,0.154,0,0,0-.18.18,0.7,0.7,0,0,0,.108.39,13.9,13.9,0,0,1,1.259,4.54c0.288,2.37.54,2.95,1.476,2.95,0.972,0,1.584-.86,1.584-2.23,0-1.55-.828-3.03-2.52-4.68A4.5,4.5,0,0,0,669,6777.83Zm7.991-11.52h10.33c0.036,1.55.072,2.37,0.072,3.56a94.7,94.7,0,0,1-.468,11.27c-0.5,3.49-1.548,4.97-3.563,4.97-0.684,0-3.06-.22-3.888-0.36a6.3,6.3,0,0,0-.864-0.15,0.179,0.179,0,0,0-.216.15,1.162,1.162,0,0,0,.756.54c3.132,1.54,3.744,1.9,3.636,2.26a2.034,2.034,0,0,0,.216,1.23,0.79,0.79,0,0,0,.756.36,5.37,5.37,0,0,0,3.023-1.26,9.229,9.229,0,0,0,2.844-5.29c0.612-2.99.792-6.27,0.828-15.12v-0.58l0.468-.21a0.723,0.723,0,0,0,.612-0.72,1.226,1.226,0,0,0-.5-0.94l-2.736-2.84-1.368,2.16H677.6a41.62,41.62,0,0,0,2.124-4.54l0.756-.22a0.819,0.819,0,0,0,.684-0.68,1.248,1.248,0,0,0-.936-0.94l-3.1-1.43a44.389,44.389,0,0,1-4,12.81,3.878,3.878,0,0,0-.612,1.37,0.179,0.179,0,0,0,.18.21,1.182,1.182,0,0,0,.792-0.64,29.136,29.136,0,0,0,3.348-4.72Zm-2.124,5.33a0.217,0.217,0,0,0-.252.21,0.507,0.507,0,0,0,.252.29,9.5,9.5,0,0,1,3.815,5.79c0.36,1.12.828,1.55,1.584,1.55a1.95,1.95,0,0,0,1.944-2.09c0-1.83-1.44-3.63-3.744-4.75A11.755,11.755,0,0,0,674.867,6771.64Zm37.44,1.44a21.822,21.822,0,0,1,1.188-7.31c1.188-2.77,3.2-4.39,5.544-4.39a4.689,4.689,0,0,1,3.347,1.29,2.046,2.046,0,0,0-2.088,2.09,2.331,2.331,0,0,0,2.3,2.2,2.4,2.4,0,0,0,2.376-2.49c0-2.3-2.808-4.14-6.335-4.14-5.868,0-10.259,5.94-10.259,13.93,0,4.25,1.08,8.17,2.844,10.37a7.9,7.9,0,0,0,6.155,3.1c4.571,0,8.171-3.93,8.171-8.93,0-4.65-3.06-8.03-7.235-8.03-2.484,0-4.356,1.12-6.012,3.53v-1.22Zm4.608-.76a4.55,4.55,0,0,1,3.275,1.65,8.717,8.717,0,0,1,1.368,5.15c0,4.57-1.656,7.42-4.247,7.42a3.968,3.968,0,0,1-3.492-2.2,14.794,14.794,0,0,1-1.368-6.62,4.859,4.859,0,0,1,.864-3.28A4.456,4.456,0,0,1,716.915,6772.32Zm34.237-10.84c1.584,0,2.7,1.01,3.491,3.1a26.208,26.208,0,0,1,1.3,9.07c0,8.96-1.62,13.5-4.859,13.5-1.548,0-2.7-.97-3.528-2.95-0.828-1.95-1.4-6.05-1.4-9.9a33.751,33.751,0,0,1,1.26-9.4C748.236,6762.49,749.352,6761.48,751.152,6761.48Zm-0.036-1c-2.952,0-5.22,1.44-6.947,4.39a18.736,18.736,0,0,0-2.124,9.43c0,8.24,3.6,13.82,8.963,13.82,3.167,0,5.471-1.51,7.055-4.57a20.542,20.542,0,0,0,2.052-9.5,18.384,18.384,0,0,0-2.232-9.36C756.227,6761.84,754.031,6760.48,751.116,6760.48Zm25.38,8.96h4.571a0.424,0.424,0,0,0,.324-0.47,0.6,0.6,0,0,0-.18-0.43l-2.411-2.41-1.584,2.34H776.5v-6.16c1.512-.43,1.872-0.54,3.131-0.93l1.08-.04a0.477,0.477,0,0,0,.4-0.5,0.964,0.964,0,0,0-.252-0.62l-2.375-2.16a36.5,36.5,0,0,1-8.423,4.61c-1.584.72-1.584,0.72-1.584,0.97a0.4,0.4,0,0,0,.468.33,37.4,37.4,0,0,0,4.463-.87v5.37h-0.5c-1.008,0-1.98-.04-4.823-0.15l0.612,1.23c2.2-.07,3.1-0.11,4.211-0.11h0.468a35.03,35.03,0,0,1-4.859,13.53,1.549,1.549,0,0,0-.468.87,0.291,0.291,0,0,0,.288.32c0.684,0,2.843-2.66,5.075-6.3v12.31c0,0.54.072,0.65,0.5,0.65a7.051,7.051,0,0,0,1.908-.43,0.82,0.82,0,0,0,.684-0.79v-15.23a6.845,6.845,0,0,1,1.548,3.49c0.18,1.05.432,1.37,1.115,1.37a1.673,1.673,0,0,0,1.656-1.87,3.056,3.056,0,0,0-1.656-2.52,7.476,7.476,0,0,0-2.663-1.15v-4.25Zm2.555,19.94c3.1-.07,3.636-0.11,5.436-0.14h17.35a0.425,0.425,0,0,0,.252-0.4,0.693,0.693,0,0,0-.18-0.47l-3.312-2.73-2.232,2.63h-4.643v-4h8.891a0.385,0.385,0,0,0,.288-0.43,0.6,0.6,0,0,0-.216-0.43l-2.988-2.49-1.908,2.38h-4.067v-3.6h4.211v0.57a0.47,0.47,0,0,0,.576.51,5.256,5.256,0,0,0,1.584-.33,0.8,0.8,0,0,0,.756-0.93v-6.26l0.4-.15a0.685,0.685,0,0,0,.468-0.61,1.049,1.049,0,0,0-.288-0.65l-2.592-2.81-1.152,1.77h-3.959v-3.21h9.755a0.366,0.366,0,0,0,.252-0.43,0.578,0.578,0,0,0-.252-0.47l-3.132-2.59-2.052,2.52h-4.571v-4.1c2.016-.43,3.131-0.69,5.111-1.19h1.44a0.54,0.54,0,0,0,.5-0.5,0.978,0.978,0,0,0-.36-0.65l-2.628-2.2a66.216,66.216,0,0,1-13.93,5.19c-1.44.32-1.656,0.43-1.656,0.68s0.144,0.36.468,0.36c0.936,0,4.32-.47,8.027-1.08v3.49h-1.871c-1.548,0-2.88-.03-6.228-0.18l0.792,1.3c2.7-.11,3.708-0.15,5.436-0.15H788.7v3.21h-3.923l-2.88-1.51v12.09c0,0.43.108,0.58,0.468,0.58,1.224,0,2.268-.47,2.268-1.01v-1.26H788.7v3.6h-2.267c-0.5,0-1.512,0-2.664-.04l-3.564-.14,0.612,1.29c2.808-.1,3.852-0.14,5.616-0.14H788.7v4h-4.211c-1.368,0-2.664-.04-6.227-0.18Zm5.58-10.65v-3.03H788.7v3.03h-4.067Zm0-4v-2.95H788.7v2.95h-4.067Zm7.091,4v-3.03h4.211v3.03h-4.211Zm0-4v-2.95h4.211v2.95h-4.211Zm35.749-11.01a7.1,7.1,0,0,1,.756-0.04,8.627,8.627,0,0,1,3.707.86c3.132,1.59,4.751,4.86,4.751,9.69,0,4.42-1.475,7.7-4.607,10.26a19.273,19.273,0,0,1-6.443,3.34c-0.576.18-.684,0.22-0.684,0.4,0,0.14.144,0.22,0.36,0.22a15.337,15.337,0,0,0,2.3-.44,22.017,22.017,0,0,0,6.659-2.44,13.28,13.28,0,0,0,6.659-11.52,10.873,10.873,0,0,0-2.844-7.6,13.9,13.9,0,0,0-10.114-3.96c-8.423,0-15.658,6.81-15.658,14.72a9.317,9.317,0,0,0,1.763,5.8,4.344,4.344,0,0,0,3.024,1.98c1.98,0,5.111-2.56,7.235-5.87a23.149,23.149,0,0,0,3.6-11.7A13.7,13.7,0,0,0,827.471,6763.72Zm-1.764.14a2.015,2.015,0,0,0,.072.25,8.715,8.715,0,0,1,.216,2.02,21.157,21.157,0,0,1-3.672,10.76c-1.512,2.38-3.563,4.25-4.679,4.25s-2.088-1.87-2.088-4a14.1,14.1,0,0,1,4.248-10.04A13.572,13.572,0,0,1,825.707,6763.86Zm32.617,26.2a0.623,0.623,0,0,0,.684.76,7.943,7.943,0,0,0,1.764-.25,0.814,0.814,0,0,0,.684-0.83v-14.47a7.183,7.183,0,0,1,2.3,3.56c0.4,1.34.792,1.77,1.656,1.77a1.5,1.5,0,0,0,1.476-1.73c0-2.16-1.8-3.6-5.435-4.39v-4.14h6.659a0.572,0.572,0,0,0,.612-0.47,1.253,1.253,0,0,0-.468-0.79l-2.448-2.34-1.98,2.63h-2.375v-6.59a45.037,45.037,0,0,0,4.355-1.15l1.26,0.03h0.072a0.427,0.427,0,0,0,.5-0.32,0.976,0.976,0,0,0-.324-0.58l-2.484-2.55a56.592,56.592,0,0,1-11.7,5.51c-0.864.28-.972,0.36-0.972,0.57a0.285,0.285,0,0,0,.324.25,4.828,4.828,0,0,0,.684-0.07c0.18-.03.792-0.14,1.727-0.29,0.828-.1,1.368-0.21,3.42-0.57v5.76h-1.836c-0.4,0-1.26,0-2.231-.04l-2.592-.11,0.756,1.23c2.016-.07,2.843-0.11,4.067-0.11h1.836a29.785,29.785,0,0,1-6.263,13.14,1.739,1.739,0,0,0-.5.83,0.219,0.219,0,0,0,.216.25c0.252,0,.612-0.29,1.764-1.37a30.879,30.879,0,0,0,4.787-5.33v12.2Zm14.326-6.19h7.7v2.38a0.693,0.693,0,0,0,.72.86,11.4,11.4,0,0,0,2.052-.36,0.667,0.667,0,0,0,.5-0.79v-18.18l0.4-.14a0.98,0.98,0,0,0,.684-0.83,1.972,1.972,0,0,0-.468-1.01l-2.7-2.98-1.512,2.01h-7.055l-3.491-1.91v25.63a0.641,0.641,0,0,0,.648.72c0.18,0,1.007-.18,1.475-0.28,0.864-.26,1.044-0.44,1.044-0.94v-4.18Zm0-.97v-17.1h7.7v17.1h-7.7Zm31.753-15.26h8.063v5.9h-3.419c-1.044,0-2.088-.03-4.823-0.14l0.683,1.22,2.2-.07c0.828-.04,1.548-0.04,1.944-0.04h3.419v6.41h-5.723c-1.728,0-2.987-.03-6.227-0.18l0.72,1.3,2.916-.11c1.007-.04,1.907-0.04,2.591-0.04h5.723v8.32c0,0.32.216,0.5,0.684,0.5a6.413,6.413,0,0,0,1.98-.39,0.747,0.747,0,0,0,.612-0.76v-7.67h11.483a0.445,0.445,0,0,0,.288-0.5,0.587,0.587,0,0,0-.216-0.47l-3.276-2.7-2.376,2.7h-5.9v-6.41h8.963a0.471,0.471,0,0,0,.468-0.46,1.109,1.109,0,0,0-.324-0.69l-2.736-2.26-2.051,2.44h-4.32v-5.9h10.367a0.554,0.554,0,0,0,.4-0.61,0.844,0.844,0,0,0-.288-0.65l-2.916-2.41-2.3,2.7h-4.391c0.576-.69,1.08-1.3,1.224-1.48,0.756-.93,1.476-1.8,2.2-2.73,0.323-.47.683-0.9,1.043-1.34l0.9-.5a0.666,0.666,0,0,0,.36-0.54,1.032,1.032,0,0,0-.576-0.79l-3.419-1.69a39.611,39.611,0,0,1-3.06,9.07H904.691l1.3-3.71a1.094,1.094,0,0,0,.072-0.32,0.368,0.368,0,0,0-.324-0.4,0.551,0.551,0,0,0-.468.43l-8.423,17.78c-0.252-.03-0.4-0.07-0.432-0.07l-1.259-.11c-0.648-.03-0.648-0.03-0.828-0.03-0.288,0-.432.11-0.432,0.29s0.144,0.28.612,0.43a2.812,2.812,0,0,1,2.231,3.02,5.785,5.785,0,0,1-.072,1.01,17.776,17.776,0,0,0-.5,3.17,1.975,1.975,0,0,0,2.015,2.19,2.081,2.081,0,0,0,2.088-2.3,4.284,4.284,0,0,0-.216-1.33c-0.792-2.7-.828-2.85-0.828-3.67a3.371,3.371,0,0,1,.216-1.05l0.18-.43Zm-10.258-.68a0.252,0.252,0,0,0-.288.25,0.276,0.276,0,0,0,.18.21,5.189,5.189,0,0,1,2.124,3.1c0.287,1.84.287,1.84,0.575,2.23a1.214,1.214,0,0,0,1.08.61,2.108,2.108,0,0,0,1.908-2.19c0-1.59-1.3-2.99-3.348-3.71A10.859,10.859,0,0,0,894.145,6766.96Zm2.447-8.36c-0.216,0-.323.08-0.323,0.18a0.253,0.253,0,0,0,.143.22,6.406,6.406,0,0,1,2.592,3.64c0.684,2.16.9,2.44,1.836,2.44a1.877,1.877,0,0,0,1.908-2.01c0-2.05-1.62-3.6-4.464-4.21A10.738,10.738,0,0,0,896.592,6758.6Zm9.5-.72a0.242,0.242,0,0,0-.252.22,0.454,0.454,0,0,0,.18.29c1.656,1.37,2.268,2.52,2.808,5.29,0.324,1.51.828,2.16,1.62,2.16a2.144,2.144,0,0,0,1.907-2.3c0-2.2-1.511-3.96-4.319-5.08A11.463,11.463,0,0,0,906.1,6757.88Zm37.477,16.17v-6.41h5.615a0.442,0.442,0,0,0,.324-0.43,0.5,0.5,0,0,0-.216-0.4l-2.628-2.41-1.8,2.27h-1.3v-7.2l0.684-.51a0.779,0.779,0,0,0,.36-0.61,0.669,0.669,0,0,0-.648-0.61l-3.528-.36v9.29h-0.792c-1.44,0-2.375-.04-4.823-0.15l0.756,1.34c2.016-.08,2.7-0.11,4.067-0.11h0.792v7.12a51.493,51.493,0,0,1-5.615,1.44l1.728,3.24a0.747,0.747,0,0,0,.648.36,0.676,0.676,0,0,0,.648-0.43l0.359-1.01c1.008-.43,1.152-0.5,2.232-1.04v8.71c0,0.51-.36.69-1.368,0.69-0.648,0-2.3-.08-3.023-0.11a1.493,1.493,0,0,0-.36-0.04c-0.216,0-.288.07-0.288,0.18,0,0.15,0,.15,1.08.61l1.512,0.65c0.287,0.11.575,0.22,0.863,0.36a0.481,0.481,0,0,1,.36.47c0.144,1.4.216,1.55,0.72,1.55a5.343,5.343,0,0,0,1.836-.58c1.26-.61,1.8-1.29,1.8-2.16v-11.81c0.36-.21.648-0.36,0.72-0.39,1.871-.94,1.871-0.94,2.051-1.05,0.54-.28,2.088-1.07,2.592-1.36a1.01,1.01,0,0,0,.72-0.61,0.242,0.242,0,0,0-.252-0.22,33.541,33.541,0,0,0-3.6,1.04l-1.836.54Zm14.542-1.87v17.78c0,0.43.144,0.57,0.648,0.57,1.188,0,2.484-.5,2.484-0.97v-17.38H968.3a0.437,0.437,0,0,0,.4-0.44,0.677,0.677,0,0,0-.216-0.46l-2.988-2.6-2.34,2.52h-9.538v-8.02c2.483-.26,3.059-0.36,9.178-1.3l1.62-.25,1.8-.07a0.474,0.474,0,0,0,.468-0.4,0.821,0.821,0,0,0-.288-0.5l-2.916-2.6a42.288,42.288,0,0,1-9.934,4.25l-3.456-1.69c0.216,3.2.324,5.87,0.324,9.4,0,5.61-.288,8.63-1.044,11.33a15.883,15.883,0,0,1-5.075,7.96,1,1,0,0,0-.54.65,0.186,0.186,0,0,0,.216.18,2.54,2.54,0,0,0,1.188-.58,16.861,16.861,0,0,0,5.759-5.43c1.836-2.88,2.376-5.33,2.628-11.95h4.571Zm29.342,14.21c-0.9.08-1.512,0.11-1.764,0.15l-2.16.07c-0.18,0-.648.04-1.3,0.07l2.268,3.53a0.95,0.95,0,0,0,.9.61c0.468,0,.54-0.07.9-0.86l0.216-.47q1.08-.27,5.615-1.62l2.412-.76c4.139-1.29,4.319-1.36,4.319-1.69a0.438,0.438,0,0,0-.5-0.43c-0.144,0-.756.07-2.52,0.36-1.763.25-2.879,0.43-3.311,0.47-0.9.14-.936,0.14-2.34,0.32v-6.8a26.665,26.665,0,0,0,4.068-3.82,23.926,23.926,0,0,0,13.1,15.05,6.439,6.439,0,0,1,3.89-3.2c-0.33-.11-0.69-0.22-1.05-0.33a12.906,12.906,0,0,0-1.33-.39,24.355,24.355,0,0,1-3.92-1.44,18.3,18.3,0,0,1-4.93-3.21c1.47-.79,1.98-1.04,2.41-1.26,0.68-.32,1.37-0.65,2.02-0.97,0.57-.29,1.11-0.58,1.65-0.86,0.11-.04.4-0.18,0.87-0.4l1.22-.18a0.668,0.668,0,0,0,.75-0.61,1.45,1.45,0,0,0-.54-0.94l-2.41-2.23a44.359,44.359,0,0,1-6.692,6.73,20.762,20.762,0,0,1-4.211-5.9h6.553v1.15a0.446,0.446,0,0,0,.54.47,5.42,5.42,0,0,0,1.65-.36,0.861,0.861,0,0,0,.69-0.94v-6.04l0.54-.18a0.758,0.758,0,0,0,.68-0.65,1.256,1.256,0,0,0-.54-0.9l-2.95-2.31-1.4,2.02h-5.619v-3.53h14.609c0.51,0,.76-0.18.76-0.54a0.912,0.912,0,0,0-.4-0.72l-3.41-2.77-2.63,3.06h-8.929v-3.2l0.827-.47a1.148,1.148,0,0,0,.684-0.83,1.091,1.091,0,0,0-1.079-.72l-3.42-.36v5.58h-7.919c-0.216,0-1.908-.04-3.564-0.07l-3.527-.15,0.9,1.37c1.3-.03,2.483-0.07,2.879-0.11,1.584-.03,2.7-0.07,3.312-0.07h7.919v3.53H987.06l-3.924-1.69v11.23a0.548,0.548,0,0,0,.648.65,5.957,5.957,0,0,0,1.764-.33,0.734,0.734,0,0,0,.468-0.72v-1.4h4a37.159,37.159,0,0,1-12.238,9.9c-0.54.25-.684,0.39-0.684,0.57a0.278,0.278,0,0,0,.324.29,13.366,13.366,0,0,0,3.023-.97,30.725,30.725,0,0,0,7.02-3.74v4.96Zm-1.44-11.98v-5.8h6.227v5.8h-6.227Zm9.215,0v-5.8h6.409v5.8h-6.409Zm45.649-1.66a42.229,42.229,0,0,0,2.91-5.36,2.981,2.981,0,0,1,.9-1.37,0.829,0.829,0,0,0,.51-0.68c0-.54-1.08-1.88-2.27-2.78a6.722,6.722,0,0,0-3.06-1.4,0.509,0.509,0,0,0-.5.36,0.238,0.238,0,0,0,.1.14,3.145,3.145,0,0,1,1.01,2.52c0,1.52-.75,3.89-2.19,6.77a17.914,17.914,0,0,0-8.35-2.7,0.539,0.539,0,0,0-.62.33c0,0.21.18,0.32,0.8,0.5a17.407,17.407,0,0,1,6.69,4.28c-4.25,5.76-9.21,10.3-14.04,12.85-0.93.47-1.08,0.58-1.08,0.76a0.318,0.318,0,0,0,.29.32c0.79,0,4.9-1.69,7.02-2.88,3.64-2.08,6.44-4.53,10.04-8.96a20.932,20.932,0,0,1,2.77,3.53c0.83,1.22,1.08,1.44,1.73,1.44a1.832,1.832,0,0,0,1.8-1.91C1045.34,6776.82,1043.97,6775.05,1040.88,6772.75Zm40.75-7.38a10.163,10.163,0,0,1-2.77,1.3,36.279,36.279,0,0,1-6.34.93,6.974,6.974,0,0,1-2.98-.75,0.963,0.963,0,0,0-.26-0.15,0.176,0.176,0,0,0-.18.15,3.034,3.034,0,0,0,.65,1.33c0.97,1.48,1.77,2.02,3.06,2.02a27.465,27.465,0,0,0,4.97-.69c1.91-.36,2.77-0.47,5.18-0.83,1.95-.28,2.41-0.5,2.41-1.08C1085.37,6766.63,1083.75,6765.66,1081.63,6765.37Zm-18.72,13.07a0.316,0.316,0,0,0-.32.32c0,1.77,2.27,4.25,3.85,4.25a4.385,4.385,0,0,0,1.44-.36c3.67-1.37,10.11-2.23,16.88-2.23a30.362,30.362,0,0,1,5.55.43,14.079,14.079,0,0,0,1.43.14,0.945,0.945,0,0,0,1.08-.9,2.357,2.357,0,0,0-1.33-1.9c-1.65-1.19-2.37-1.59-2.77-1.59a3.71,3.71,0,0,0-.97.25,15.148,15.148,0,0,1-5.58,1.41c-6.91.86-12.99,1.44-14.9,1.44-2.02,0-3.46-.36-4-0.97A0.467,0.467,0,0,0,1062.91,6778.44Zm56.88,3.17c-0.79.07-1.58,0.18-2.34,0.25-0.25,0-2.3.25-4.79,0.54a29.978,29.978,0,0,1-3.02.29,3.381,3.381,0,0,1-2.34-.62c-0.11-.18-0.11-0.18-0.18-0.18a1.085,1.085,0,0,0-.43,1.08,1.774,1.774,0,0,0,.97,1.26,3.268,3.268,0,0,0,4.25.36,10.164,10.164,0,0,1,2.45-.75,58.623,58.623,0,0,1,8.85-.87,38.246,38.246,0,0,1,6.59.58,6.018,6.018,0,0,0,1.04.18,0.966,0.966,0,0,0,1.08-.79c0-.83-2.01-2.74-2.91-2.74a1.953,1.953,0,0,0-.51.11,13.148,13.148,0,0,1-4.03.83c-0.29.03-1.15,0.11-2.09,0.21,0.65-2.95.97-4.32,1.84-7.2,0.75-.64.9-0.82,0.9-1.07,0-.33-0.22-0.54-1.33-1.34-1.59-1.11-1.62-1.15-1.84-1.15a1.233,1.233,0,0,0-.65.29,10.058,10.058,0,0,1-2.12.9,34.5,34.5,0,0,1-5.72,1.04,1.94,1.94,0,0,1-1.59-.68c-0.25-.43-0.25-0.43-0.39-0.43-0.29,0-.44.25-0.44,0.83a2.362,2.362,0,0,0,1.16,2.23,2.109,2.109,0,0,0,1.26.46,8.308,8.308,0,0,0,2.59-.82,13.333,13.333,0,0,1,4.1-1.26,0.7,0.7,0,0,1,.61.82A65.618,65.618,0,0,1,1119.79,6781.61Zm51.66-9.79a28.319,28.319,0,0,1-5.72,1.22c-2.49.29-11.45,0.83-14.19,0.83-2.88,0-4.06-.33-4.6-1.23a0.56,0.56,0,0,0-.36-0.36c-0.36,0-.54.36-0.54,1.01a3.388,3.388,0,0,0,1.29,2.92,6.556,6.556,0,0,0,3.1,1.18,1.428,1.428,0,0,0,.5-0.1c2.7-1.08,8.03-1.59,17.03-1.59,1.33,0,2.41.04,3.17,0.11,1.54,0.14,2.7.25,3.02,0.25,1.11,0,1.83-.47,1.83-1.19C1175.98,6773.47,1174.47,6772.43,1171.45,6771.82Z" transform="translate(-658.312 -6757.38)"/>
</svg>
