<svg xmlns="http://www.w3.org/2000/svg" viewBox="0 0 541.38 109.66"><defs><style>.cls-1{fill:#343434;}</style></defs><g id="Layer_2" data-name="Layer 2"><g id="Layer_1-2" data-name="Layer 1"><path class="cls-1" d="M38.57,0C36.72,0,36,.19,36,.67c0,.23.17.38.48.44a8.25,8.25,0,0,1,4.78,3.67c1,1.68,1.22,1.9,2.27,1.9a2.32,2.32,0,0,0,2.39-2.29C45.88,2.09,42.4,0,38.57,0Z"/><path class="cls-1" d="M31.46,5.16A7.8,7.8,0,0,1,36,9.2c.66,1.39,1,1.69,2.05,1.69a2.16,2.16,0,0,0,2.29-2.23c0-2.39-3.48-4.56-7.31-4.56-1.26,0-1.91.1-1.91.62A.54.54,0,0,0,31.46,5.16Z"/><path class="cls-1" d="M13,13.48c2.35,0,6.76-.72,13.47-2.22,3.07-.68,4.1-1.18,4.1-2s-.6-1.42-1.74-2.1a8.69,8.69,0,0,0-2.87-1,2.61,2.61,0,0,0-1,.28,22.18,22.18,0,0,1-3.29,1.34,34.88,34.88,0,0,1-9.62,1.78,5.21,5.21,0,0,1-3.42-1.1.42.42,0,0,0-.25-.14c-.25,0-.45.33-.45.55a7.61,7.61,0,0,0,1.54,3A4.5,4.5,0,0,0,13,13.48Z"/><path class="cls-1" d="M38.1,16.65A9.77,9.77,0,0,0,34.39,15h0l0,0c-2.16,1.31-3.62,1.75-8.22,2.46S6.75,19.66,4.88,19.66c-2.22,0-3.21-.41-4.11-1.68l-.08-.1L.59,18A1.25,1.25,0,0,0,0,19.08a3.83,3.83,0,0,0,1.39,2.79A8.66,8.66,0,0,0,5.58,24a2.89,2.89,0,0,0,.9-.17h0c2.82-1.2,6.73-2.07,13.07-2.9a2.06,2.06,0,0,1,.37,1.22c0,2.9-1.81,8-4.31,12C12.93,38.55,8.48,43,5,44.78c-2.66,1.39-2.66,1.39-2.66,1.68s.2.45.55.45c.85,0,6-2,8-3.15C17.59,40,22.94,33.11,25.94,24.27c.62-.67.82-.92.82-1.3s-.46-1-2.43-2.44c3.15-.25,3.91-.3,5.17-.3a56.07,56.07,0,0,1,7.32.59,8.53,8.53,0,0,0,1.43.17,1.93,1.93,0,0,0,2.12-1.69C40.37,18.34,39.84,17.72,38.1,16.65Z"/><path class="cls-1" d="M66.11,37.78a23.55,23.55,0,0,0,4.26-1.47c4.5-1.92,7-3.71,12.71-9.08.24.6.24.87.24,2.81,0,1.13,0,1.13-.21,6.37l-.17,3.77c0,.25,0,.49,0,.71a6.34,6.34,0,0,1,0,.68,14.35,14.35,0,0,1-.75,2.68,2.86,2.86,0,0,0-.28,1.13c0,1.07,2.81,3.69,4,3.69s1.85-1.12,1.85-2.72c0-.41,0-1.12-.07-2l0-.9c0-.24,0-.68,0-1.28,0-1-.09-2.55-.13-4.61-.16-5.83-.16-5.83-.16-6.26a12.61,12.61,0,0,1,.31-3.23c.38-.66.45-.84.45-1.09,0-.47-.39-.84-1.31-1.24l-.6-.29L85.27,25c1.63-1.69,3.83-4.16,5.29-5.93.58-.69.85-1,1-1.08a2.83,2.83,0,0,1,.83-.62c.54-.3.77-.61.77-1,0-.73-.79-1.71-2.25-3.28s-2.45-2-3.92-2c-1,0-1.53.2-1.53.62,0,.27.23.4.45.49a1.82,1.82,0,0,1,1,1.83c0,1.82-2.3,5.7-6,10.12C76.24,29.62,70.43,34.52,66,36.68c-.31.16-.5.3-.5.54A.57.57,0,0,0,66.11,37.78Z"/><path class="cls-1" d="M130.1,23.79a11.49,11.49,0,0,0,3.5-.87c3.15-1.13,4.81-1.52,10.94-2.56-1.27,11.93-6.41,20.94-14.12,24.75-.8.43-1,.56-1,.92a.48.48,0,0,0,.51.44,26.79,26.79,0,0,0,6.81-2.55,24.36,24.36,0,0,0,9.77-10.8h0c1.76-3.79,2.5-6.8,3.29-13.39,3.55-.33,6-.47,8.32-.47a43.94,43.94,0,0,1,7,.54,11.73,11.73,0,0,0,1.26.11,1.66,1.66,0,0,0,1.74-1.64c0-.64-.59-1.36-2-2.48a10.41,10.41,0,0,0-4.08-2c-.35,0-.68.16-2.16.93-2.08,1.12-3.27,1.39-9.69,2.19.15-4,.31-7.13.42-8.11A2.85,2.85,0,0,1,151,7.7a1.53,1.53,0,0,0,.23-.66C151.18,5.78,146.91,3,145,3c-1.25,0-4,1-4,1.75,0,.28.3.34.8.44,2.3.47,3,2.72,3,9.28,0,.45,0,1,0,1.65,0,.42,0,.92-.05,1.53-10.39,1.11-12,1.28-14.14,1.28-2.64,0-4.25-.43-4.92-1.29-.22-.34-.35-.44-.59-.44a.52.52,0,0,0-.55.56C124.58,20.56,127.52,23.79,130.1,23.79Z"/><path class="cls-1" d="M224.52,21h-.06a42.82,42.82,0,0,1-8.56,1.83c-3.6.42-17.13,1.24-21.27,1.24s-6-.46-6.8-1.77c-.26-.41-.4-.6-.65-.6-.43,0-.93.28-.93,1.64a5.14,5.14,0,0,0,2,4.47A9.94,9.94,0,0,0,193,29.63a2.21,2.21,0,0,0,.8-.17c4-1.62,12.14-2.37,25.5-2.37,2,0,3.61.05,4.74.16h.1c2.3.21,4,.37,4.45.37,1.74,0,2.87-.75,2.87-1.91C231.42,23.52,229.1,21.94,224.52,21Z"/><path class="cls-1" d="M280.77,36.18h-.06c-3.13,1.57-6,2.15-10.53,2.15-5.52,0-6.79-1.41-6.79-7.54,0-1.06,0-1.5.16-4.33,6-1.59,8.42-2.48,16.13-5.87,3.53-1.52,4.29-2,4.29-2.87a2.49,2.49,0,0,0-.74-1.54,17.26,17.26,0,0,0-3.38-2.89,9.9,9.9,0,0,0-3.3-.72c-.22,0-.88,0-.88.51,0,.14.07.28.29.6a1.72,1.72,0,0,1,.41,1.18,4.94,4.94,0,0,1-2.22,3.41,63.45,63.45,0,0,1-10.53,6.32,88.78,88.78,0,0,1,1-11.6,8.56,8.56,0,0,0,.27-1.86c0-1-.47-1.71-1.73-2.54a8.88,8.88,0,0,0-4.06-1.47c-1.23,0-3.53.67-3.53,1.26a.45.45,0,0,0,.35.38c2.59,1,3.05,2.07,3.05,7.07,0,.75,0,1.87-.05,3.42,0,.79,0,1.69-.06,2.68l-.05,6.27c0,6.5.41,8.76,2,11,2.18,2.94,5.14,3.88,12.2,3.88a45.78,45.78,0,0,0,11.1-1.19c2.09-.63,2.52-1.67,2.52-2.44C286.61,38,283.83,36.4,280.77,36.18Z"/><path class="cls-1" d="M286.92,1.19c-1.19,0-2.45.29-2.45.83a.63.63,0,0,0,.47.49A7.88,7.88,0,0,1,289.57,6c.87,1.47,1.18,1.73,2.05,1.73a2.47,2.47,0,0,0,2.5-2.23C294.12,3.27,290.62,1.19,286.92,1.19Z"/><path class="cls-1" d="M280.44,5.18c-1.61,0-2.39.26-2.39.78a.56.56,0,0,0,.46.49A8.2,8.2,0,0,1,283.14,10c.75,1.35,1.06,1.69,1.94,1.69a2.36,2.36,0,0,0,2.5-2.18C287.58,7.25,284.18,5.18,280.44,5.18Z"/><path class="cls-1" d="M316.66,39.86a7.32,7.32,0,0,0,3.47,1.48,7.45,7.45,0,0,0,3-.92,15.29,15.29,0,0,1,3.64-1.13A88.39,88.39,0,0,1,340.06,38a57.67,57.67,0,0,1,9.85.86,10.37,10.37,0,0,0,1.59.27c1,0,1.75-.58,1.75-1.31,0-1.31-3.11-4.23-4.5-4.23a2.73,2.73,0,0,0-.8.17,19.36,19.36,0,0,1-6,1.23c-.18,0-.5.06-.91.1s-1.28.12-2,.21c.94-4.25,1.43-6.32,2.71-10.59,1.13-1,1.36-1.26,1.36-1.69s-.41-.94-2.05-2.1l-.43-.3c-2-1.42-2.05-1.45-2.4-1.45s-.43.07-1,.45A15.41,15.41,0,0,1,334,21a51.16,51.16,0,0,1-8.56,1.56,2.78,2.78,0,0,1-2.27-1c-.39-.67-.41-.71-.7-.71-.77,0-.77,1-.77,1.37a3.65,3.65,0,0,0,1.78,3.45,3.27,3.27,0,0,0,2,.73c.71,0,1.44-.25,3.94-1.26a20.08,20.08,0,0,1,6.11-1.88c.47,0,.79.45.79,1.12a97.51,97.51,0,0,1-1.44,11.33l-1.79.2-1.62.17c-.28,0-2,.21-4.4.49l-2.79.32c-4,.43-4,.43-4.52.43-1.73,0-3.18-.44-3.41-.85s-.19-.33-.37-.33c-.47,0-.78.9-.78,1.74C315.14,38.54,315.61,39,316.66,39.86Z"/><path class="cls-1" d="M381.46,22.58a14.34,14.34,0,0,1,4.86,7.23,1.59,1.59,0,0,0,1.58,1.27,2.88,2.88,0,0,0,2.61-3.14c0-3.49-4.15-6.56-8.87-6.56-.41,0-.83.06-.83.45S381,22.27,381.46,22.58Z"/><path class="cls-1" d="M389.73,17.79c2.11,1,4.17,4.14,5,7.59.35,1.32.76,2.09,1.85,2.09a3,3,0,0,0,2.83-3.1c0-3.68-4.84-7.58-9.41-7.58-.44,0-.72.18-.72.45A.6.6,0,0,0,389.73,17.79Z"/><path class="cls-1" d="M405.26,16.91a3.46,3.46,0,0,1,.66,2.22c0,4.21-2.88,10.49-7.15,15.64-4.11,4.92-9.92,9.42-14.81,11.46-1.4.56-1.42.58-1.42.93a.65.65,0,0,0,.66.56c2.06,0,7.81-2.23,11.19-4.34h0a44.46,44.46,0,0,0,16.89-20.67l0,0c.91-1,1-1.08,1-1.5,0-.7-1.28-2.52-2.68-3.82a5.57,5.57,0,0,0-4-1.82c-.58,0-1,.28-1,.67C404.68,16.38,404.69,16.39,405.26,16.91Z"/><path class="cls-1" d="M442.06,44.69c2.61,0,9.51-2.52,13.94-5.09h0c8-4.68,13.37-11.67,18.45-24.11,1.95-1.32,2.51-1.84,2.51-2.35s-1-1.29-1.94-1.94c-3.09-2.17-4-2.67-4.66-2.67-.52,0-.81.12-1.9.77a15.53,15.53,0,0,1-6.39,2.15,125.31,125.31,0,0,1-13.8,1.67c-1.85,0-3.38-.58-4-1.52-.21-.26-.35-.42-.53-.42-.33,0-.55.35-.55.88a5.22,5.22,0,0,0,1.88,4.42,7.23,7.23,0,0,0,3.37,1.59,2.26,2.26,0,0,0,.93-.34,22.63,22.63,0,0,1,6.45-2.25,67.22,67.22,0,0,1,10.61-1.84c1.34,0,1.6.39,1.6,1.07a16.55,16.55,0,0,1-1,4.06c-1.54,4.78-3.57,8.23-7.48,12.76A38.48,38.48,0,0,1,442,43.64c-.28.09-.57.22-.57.55S441.68,44.69,442.06,44.69Z"/><path class="cls-1" d="M535.86,35.05a1.54,1.54,0,0,0-.52.06c-2.37.75-2.93.86-11.77,1.76.15-6.12.4-8.45,1.11-10.77a1.69,1.69,0,0,0,.23-.76c0-.53-1-1.29-1.73-1.74,1.66-.13,3.13-.18,4.85-.18.75,0,.75,0,3.55.1l.66.06h.54a1.39,1.39,0,0,0,1.42-1.31c0-.64-.43-1.25-1.34-1.94a6.92,6.92,0,0,0-3.37-1.59,3.86,3.86,0,0,0-1.51.5,27.14,27.14,0,0,1-8.71,1.93,75.16,75.16,0,0,1-7.5.65,4.58,4.58,0,0,1-2.87-.77c-.46-.57-.47-.58-.63-.58-.45,0-.51.44-.51.88,0,2.08,1.79,4.28,3.47,4.28a1.41,1.41,0,0,0,.36-.07l.18,0a9.1,9.1,0,0,1,2.51-.8,23.36,23.36,0,0,1,3.7-.59c1.2,0,1.39.43,1.39,6.3a60.54,60.54,0,0,1-.26,6.85l-1.35.1-4.16.38c-5.66.32-5.66.32-6.74.32-1.83,0-3.12-.32-3.51-.85-.11-.23-.25-.34-.43-.34-.41,0-.67.65-.67,1.64,0,.83.49,1.45,1.73,2.21,2.52,1.64,2.52,1.64,3.42,1.64a6,6,0,0,0,2.1-.44c4.77-1.73,10.2-2.48,18.15-2.48a47.51,47.51,0,0,1,9.75,1,12.69,12.69,0,0,0,2.29.38,1.7,1.7,0,0,0,1.69-1.58C541.38,37.66,537.92,35.05,535.86,35.05Z"/><path class="cls-1" d="M81.85,68.23h0C80.11,67,76.7,65.34,75.92,65.4a.65.65,0,0,0-.59.61,1.43,1.43,0,0,0,.37.58,15.9,15.9,0,0,1,5.14,8.48c1,3.39,1.56,4.08,3,4.08,1.65,0,2.72-1.24,2.72-3.15C86.6,73.34,84.82,70.44,81.85,68.23Z"/><path class="cls-1" d="M95,94.67c2.89-6,4.16-14.22,4.38-28.42l1.56-.78a1.26,1.26,0,0,0,.65-1.08,1.31,1.31,0,0,0-1.24-1.31L94,62.14v.14c-.11,19-.87,25.59-3.55,30.79-3.33,6.82-9.62,11.31-20.39,14.56-1.21.37-1.71.6-1.71,1.1,0,.27.19.55.72.55,1.83,0,9-1.88,12.52-3.3,6.15-2.48,9.33-5,12.56-9.76a19.72,19.72,0,0,1,6,7.49c1.85,3.53,1.85,3.53,2.51,4.13a2.19,2.19,0,0,0,1.54.63,2.53,2.53,0,0,0,2.5-2.77,8.17,8.17,0,0,0-2.73-5.65C101.69,97.74,99.75,96.57,95,94.67Z"/><path class="cls-1" d="M86.11,89.83a.57.57,0,0,0-.61-.56,7.3,7.3,0,0,0-1.82.44C75.39,92.25,73,93,70.45,93.56V68.35l1-.61a1.28,1.28,0,0,0,.77-1.13,1.33,1.33,0,0,0-1.35-1.32l-5.65-.72V94.91C61,96,60.72,96,58.42,96.45l-.19,0,4,5.34a1.66,1.66,0,0,0,1.23.7c.48,0,.91-.39,1.15-1l.52-1.41c5.37-2.33,11.15-4.95,17.19-7.81C85.75,90.52,86.11,90.33,86.11,89.83Z"/><path class="cls-1" d="M156.31,85.82V64l1.11-.56a1.2,1.2,0,0,0,.83-1.14,1.34,1.34,0,0,0-1.3-1.26l-5.8-.55V80.35a21.7,21.7,0,0,1-3.57-7.56l.71-.23a.87.87,0,0,0,.62-.82,1.22,1.22,0,0,0-.58-1l-4.71-4L141.8,70H134c.64-1.84.83-2.43,1.35-4.07l.31-1,1.18-.51c.6-.25,1-.54,1-1.14a1.21,1.21,0,0,0-.9-1.1l-6.52-1.76v.14c-.93,10.49-4.23,20.78-9.05,28.24-.62.89-.84,1.34-.84,1.69a.43.43,0,0,0,.4.45C122,91,127,84.8,129,81.16c1.86,1.47,2.44,2.41,4,6.28.73,1.8,1.48,2.5,2.55,2.46a3.59,3.59,0,0,0,.59-.07c-3.13,6.38-7.58,11.25-14.38,15.77-.46.34-.7.59-.7.91a.4.4,0,0,0,.45.4,31.45,31.45,0,0,0,5.62-2.67c6.91-4.15,10.58-7.88,14-14.25a64.5,64.5,0,0,0,5.44-14.66,30.8,30.8,0,0,0,4.53,10.21v22.81c0,.79.16,1.31,1,1.31a13.21,13.21,0,0,0,3.16-.71c.73-.22,1-.57,1-1.25V91.41a44,44,0,0,0,10.78,7.33l.1.05.06-.09a14.86,14.86,0,0,1,4.83-4.83l.21-.15-.25-.07C165.31,91.6,160.74,89.33,156.31,85.82ZM141.62,71.75a80.3,80.3,0,0,1-3.7,14.09c-.78-3.27-3.49-5.18-8.27-5.84a86.29,86.29,0,0,0,3.72-8.25Z"/><path class="cls-1" d="M210.4,67a24.47,24.47,0,0,0-16.57,6.62,21.64,21.64,0,0,0-7,15.59A14.06,14.06,0,0,0,189.46,98c1.31,1.81,3.17,3,4.63,3,3,0,7.72-3.81,11-8.86a34.55,34.55,0,0,0,5.42-17.62,20.48,20.48,0,0,0-.67-5.45c.51,0,.83,0,1,0a12.68,12.68,0,0,1,5.5,1.28c4.69,2.37,7.06,7.22,7.06,14.42,0,6.61-2.18,11.47-6.86,15.29a28.8,28.8,0,0,1-9.63,5c-.87.28-1.11.35-1.11.72s.25.45.67.45a23.59,23.59,0,0,0,3.48-.66,33.62,33.62,0,0,0,10-3.68A20,20,0,0,0,230,84.48,16.53,16.53,0,0,0,225.67,73C222.19,69.26,216.49,67,210.4,67ZM194.9,95c-1.6,0-3-2.74-3-5.87a21,21,0,0,1,6.33-15h0c2.45-2.29,4.57-3.47,8.68-4.79l0,0a.83.83,0,0,0,.06.21,12.78,12.78,0,0,1,.32,3c0,4.75-2.06,10.76-5.49,16.08C199.56,92.22,196.53,95,194.9,95Z"/><path class="cls-1" d="M279.37,82.5a63.13,63.13,0,0,0,4.31-8c.7-1.44.8-1.59,1.32-2s.8-.66.8-1.13c0-.86-1.64-2.89-3.45-4.26A10.14,10.14,0,0,0,277.69,65c-.39,0-.89.32-.89.67,0,.1.08.17.22.32a4.63,4.63,0,0,1,1.46,3.67c0,2.26-1.15,5.8-3.22,10-4.06-2.43-8.95-4-12.48-4-.6,0-1,.26-1,.61s.37.61,1.27.88c3.48,1.16,6.08,2.81,9.92,6.32-6.31,8.54-13.75,15.34-21,19.15-1.45.73-1.69.9-1.69,1.25a.6.6,0,0,0,.56.61c1.19,0,7.33-2.52,10.59-4.34,5.56-3.2,9.78-7,15-13.37A32.27,32.27,0,0,1,280.5,92c1.27,1.88,1.68,2.21,2.69,2.21a2.88,2.88,0,0,0,2.83-3C286,88.62,284,85.94,279.37,82.5Z"/><path class="cls-1" d="M355.19,90.59c-2.43-1.75-3.58-2.4-4.23-2.4a5,5,0,0,0-1.5.39,22.53,22.53,0,0,1-8.34,2.09c-10,1.25-19.41,2.16-22.34,2.16s-5.11-.51-5.9-1.41c-.32-.38-.41-.48-.64-.48a.62.62,0,0,0-.61.61c0,2.74,3.42,6.5,5.91,6.5a6.48,6.48,0,0,0,2.2-.55c5.53-2.06,15.22-3.34,25.28-3.34a45.91,45.91,0,0,1,8.3.65l.36,0a14.73,14.73,0,0,0,1.82.18,1.54,1.54,0,0,0,1.74-1.48C357.24,92.47,356.63,91.58,355.19,90.59Z"/><path class="cls-1" d="M340.3,71.34l0,0c-2.84,1.56-2.84,1.56-4.13,1.93a54.17,54.17,0,0,1-9.47,1.4,10.31,10.31,0,0,1-4.41-1.12l-.22-.13a.43.43,0,0,0-.23-.1.36.36,0,0,0-.39.34,4.56,4.56,0,0,0,1,2.07c1.5,2.27,2.73,3.08,4.7,3.08,1.48,0,2.32-.12,7.47-1,2.3-.44,3.57-.62,5.89-1l1.88-.28c2.8-.42,3.73-.73,3.73-1.75,0-1.53-2.47-3-5.73-3.47Z"/><path class="cls-1" d="M411.39,93.59a2.73,2.73,0,0,0-.8.17,19.36,19.36,0,0,1-6,1.23c-.17,0-.49.06-.89.09l-2.07.22c.94-4.25,1.43-6.32,2.71-10.59,1.13-1,1.36-1.26,1.36-1.69s-.41-.94-2.05-2.1l-.42-.29c-2-1.43-2.06-1.46-2.4-1.46s-.44.07-1,.45A15.18,15.18,0,0,1,396.62,81a51.16,51.16,0,0,1-8.56,1.56,2.78,2.78,0,0,1-2.27-1c-.39-.67-.41-.71-.7-.71-.77,0-.77,1-.77,1.37a3.65,3.65,0,0,0,1.78,3.45,3.27,3.27,0,0,0,2,.73c.71,0,1.44-.25,3.94-1.26a20.08,20.08,0,0,1,6.11-1.88c.47,0,.79.45.79,1.12a97.26,97.26,0,0,1-1.44,11.33l-1.77.19-1.63.18c-.29,0-2,.2-4.31.47l-2.89.34c-4,.43-4,.43-4.52.43-1.73,0-3.18-.45-3.41-.85s-.19-.33-.37-.33c-.46,0-.78.9-.78,1.74,0,.68.45,1.14,1.52,2a7.32,7.32,0,0,0,3.47,1.48,7.45,7.45,0,0,0,3-.92,15.29,15.29,0,0,1,3.64-1.13A88.39,88.39,0,0,1,402.7,98a57.57,57.57,0,0,1,9.85.86,10.37,10.37,0,0,0,1.59.27c1,0,1.75-.58,1.75-1.31C415.89,96.51,412.78,93.59,411.39,93.59Z"/><path class="cls-1" d="M475.08,81H475a42.67,42.67,0,0,1-8.56,1.83c-3.6.42-17.13,1.24-21.27,1.24s-6-.46-6.8-1.77c-.28-.44-.42-.6-.65-.6-.43,0-.93.28-.93,1.64a5.14,5.14,0,0,0,2,4.47,9.94,9.94,0,0,0,4.73,1.81,2.26,2.26,0,0,0,.8-.17c4-1.62,12.14-2.37,25.5-2.37,2,0,3.62,0,4.74.16l.2,0c2.25.21,3.87.36,4.35.36,1.74,0,2.87-.75,2.87-1.91C482,83.52,479.66,81.94,475.08,81Z"/></g></g></svg>