<svg xmlns="http://www.w3.org/2000/svg" width="838.465" height="26.31" viewBox="0 0 838.465 26.31">
  <defs>
    <style>
      .cls-1 {
        fill: #333;
        fill-rule: evenodd;
      }
    </style>
  </defs>
  <path id="外はサクッ_中はジュワッと素材の旨味が広がる石窯料理" data-name="外はサクッ、中はジュワッと素材の旨味が広がる石窯料理" class="cls-1" d="M515.577,2950.06l0.616-.31a0.56,0.56,0,0,0,.392-0.53,0.639,0.639,0,0,0-.616-0.59l-2.94-.28v10.42a11.492,11.492,0,0,1-1.988-4.17l0.42-.14a0.4,0.4,0,0,0,.28-0.37,0.568,0.568,0,0,0-.28-0.44l-2.38-2.02-0.924,1.65h-4.2c0.42-1.2.476-1.4,0.9-2.71l0.644-.28a0.576,0.576,0,0,0,.476-0.54,0.554,0.554,0,0,0-.42-0.5l-3.3-.9a33.305,33.305,0,0,1-4.7,14.68,1.761,1.761,0,0,0-.42.84,0.152,0.152,0,0,0,.14.16c0.532,0,3.108-3.16,4.2-5.15,1.036,0.81,1.344,1.32,2.156,3.33,0.364,0.9.728,1.26,1.26,1.24a2.728,2.728,0,0,0,.42-0.06,20.257,20.257,0,0,1-7.532,8.32,0.6,0.6,0,0,0-.336.42,0.144,0.144,0,0,0,.168.14,17.093,17.093,0,0,0,2.884-1.38,17.454,17.454,0,0,0,7.252-7.36,33.88,33.88,0,0,0,2.884-7.84,16.032,16.032,0,0,0,2.408,5.54v11.85c0,0.45.112,0.61,0.448,0.61a6.47,6.47,0,0,0,1.624-.36,0.543,0.543,0,0,0,.476-0.59v-8.59a23.14,23.14,0,0,0,5.684,3.89,7.719,7.719,0,0,1,2.52-2.52,22.939,22.939,0,0,1-8.2-4.09v-11.37Zm-7.476,3.98a40.719,40.719,0,0,1-2.016,7.59c-0.336-1.82-1.764-2.86-4.368-3.2a43.758,43.758,0,0,0,1.988-4.39h4.4Zm43.876,0.45a6.047,6.047,0,0,1-2.912-.82,4.073,4.073,0,0,1,.392-1.23,0.849,0.849,0,0,0,.112-0.39c0-.7-1.96-1.96-3.052-1.96-0.7,0-1.792.45-1.792,0.73a0.16,0.16,0,0,0,.168.14h0.112a1.56,1.56,0,0,1,.224-0.03,1.432,1.432,0,0,1,1.064.98c0.308,0.73.308,0.73,0.42,5.18a17.579,17.579,0,0,1-3.276.39,3.13,3.13,0,0,1-2.744-1.15,0.308,0.308,0,0,0-.224-0.22,0.187,0.187,0,0,0-.14.2,3.6,3.6,0,0,0,.532,1.45,3.463,3.463,0,0,0,3.276,1.63,13.588,13.588,0,0,0,2.6-.28c0.2,1.9.364,4.92,0.336,6.44-0.644-.06-1.428-0.12-2.016-0.12-3.108,0-5.264,1.32-5.264,3.22,0,1.74,1.932,3.06,4.508,3.06a5.023,5.023,0,0,0,4.06-1.68,3.752,3.752,0,0,0,.868-1.96,7.376,7.376,0,0,1,2.156,1.87,3.6,3.6,0,0,0,.812,1.04,1.69,1.69,0,0,0,1.12.42,1.309,1.309,0,0,0,1.344-1.4c0-1.46-1.876-2.91-5.236-4.03-0.028-.98-0.056-1.4-0.2-2.94-0.252-2.55-.252-2.78-0.392-4.37,3-.9,4.4-1.93,4.4-3.31a0.786,0.786,0,0,0-.644-0.89,0.9,0.9,0,0,0-.252.03h-0.364Zm-5.012,12.82c-0.252,1.74-1.232,2.44-3.388,2.44-1.092,0-1.96-.56-1.96-1.29,0-1.04,1.176-1.82,2.772-1.82a7.282,7.282,0,0,1,2.6.53Zm2.212-13.02a5.857,5.857,0,0,0,.56.36,6.48,6.48,0,0,0,.7.42,0.552,0.552,0,0,1,.28.28c0,0.34-.7.79-1.932,1.21a17.183,17.183,0,0,1,.112-2.44Zm-11.564,7.2c-0.14,0-.224.11-0.392,0.58a9.148,9.148,0,0,1-.336.87c-0.2.51-.42,1.15-0.672,1.88-0.784,2.27-.868,2.43-1.232,2.43a0.4,0.4,0,0,1-.392-0.3,9.451,9.451,0,0,1-.28-2.33,18.69,18.69,0,0,1,1.82-7.47c0.924-1.91,1.036-2.27,1.036-3a3.957,3.957,0,0,0-2.184-3.28,3.7,3.7,0,0,0-1.624-.5,0.139,0.139,0,0,0-.168.11,0.357,0.357,0,0,0,.224.25,3.265,3.265,0,0,1,.84,2.38,22.2,22.2,0,0,1-.784,4.37,32.422,32.422,0,0,0-.98,7.25c0,4.23,1.568,7.68,3.528,7.68a1.383,1.383,0,0,0,1.288-1.15,1.307,1.307,0,0,0-.14-0.45,6.939,6.939,0,0,1-.476-2.86,24.1,24.1,0,0,1,.952-5.57,4.717,4.717,0,0,0,.14-0.7A0.183,0.183,0,0,0,537.613,2961.49Zm42.9-3.2c0.588-.02,1.008-0.02,1.092-0.02,0.812,0,2.744.14,3.584,0.25a10.588,10.588,0,0,0,1.064.08,0.809,0.809,0,0,0,.9-0.73c0-.84-1.54-1.96-3.108-2.24a11.594,11.594,0,0,1-4.368,1.26c-0.028-.47-0.028-0.98-0.028-1.12a9.116,9.116,0,0,1,.392-3.36,1.211,1.211,0,0,0,.14-0.39,1.95,1.95,0,0,0-.616-0.84,3.753,3.753,0,0,0-2.6-1.15,1.671,1.671,0,0,0-1.456.54,0.187,0.187,0,0,0,.14.14c1.288,0.42,1.344.56,1.428,4.67,0.028,0.23.056,1.04,0.084,1.82l-2.268.25a16.48,16.48,0,0,1-1.708.17c-0.028-.33-0.028-0.64-0.028-0.75l-0.028-.59v-1.74a3.128,3.128,0,0,1,.056-0.75,1.917,1.917,0,0,0,.056-0.31c0-.65-1.764-1.65-2.94-1.65a3.093,3.093,0,0,0-.9.22l-0.42.14a0.612,0.612,0,0,0-.448.36c0,0.09.112,0.14,0.28,0.14,1.344,0.28,1.876,1.07,1.876,2.72l0.056,0.76c0,0.19,0,.47.028,0.84l0.028,0.86c-2.772.26-3.64,0.31-4.172,0.31a3.935,3.935,0,0,1-2.6-.59,0.29,0.29,0,0,0-.168-0.14c-0.112,0-.168.09-0.168,0.28a2.266,2.266,0,0,0,.56,1.46,2.973,2.973,0,0,0,1.736,1.2,2.3,2.3,0,0,0,.756-0.19c0.056,0,.476-0.14,1.232-0.37,0.252-.05.532-0.14,0.868-0.19,0.728-.14.756-0.17,1.988-0.39v1.14a12.3,12.3,0,0,1-.168,2.47c-0.028.19-.056,0.31-0.056,0.39a2.717,2.717,0,0,0,.672,1.23,1.848,1.848,0,0,0,1.26.65,0.892,0.892,0,0,0,.868-0.84c0-.12-0.028-0.34-0.056-0.65-0.028-.03-0.084-1.37-0.084-2.74-0.028-1.4-.028-1.46-0.056-2.1a29.633,29.633,0,0,1,3.948-.39c0,6.49-2.324,11.22-6.636,13.38-1.008.5-1.036,0.53-1.036,0.7a0.284,0.284,0,0,0,.252.2,9.622,9.622,0,0,0,2.184-.73,10.87,10.87,0,0,0,6.58-6.72,23.793,23.793,0,0,0,1.092-6.92Zm27.216-2.35a1.8,1.8,0,0,0,.924.34,13.74,13.74,0,0,0,2.1-.45,6.712,6.712,0,0,1,1.232-.28,0.537,0.537,0,0,1,.532.56,8.146,8.146,0,0,1-1.288,3.16,31.627,31.627,0,0,1-6.328,7.68,24.185,24.185,0,0,1-7.364,4.56c-0.224.08-.308,0.14-0.308,0.25a0.205,0.205,0,0,0,.2.17,13.061,13.061,0,0,0,2.912-.76,27.286,27.286,0,0,0,9.772-6.3c1.988-1.98,2.912-3.33,5.516-8.06a6.431,6.431,0,0,1,.728-0.67,0.8,0.8,0,0,0,.336-0.45c0-.53-2.128-2.46-2.716-2.46a2.167,2.167,0,0,0-.98.44,10.729,10.729,0,0,1-4.34,1.52,1.231,1.231,0,0,1-.476-0.09,12.5,12.5,0,0,0,1.316-2.57,2.7,2.7,0,0,0-1.2-1.4,4.128,4.128,0,0,0-2.324-.82,1.2,1.2,0,0,0-1.12.37c0,0.05.056,0.11,0.28,0.17a1.748,1.748,0,0,1,.84,1.7c0,2.66-3.64,8.38-6.636,10.45-0.476.33-.532,0.36-0.532,0.5a0.178,0.178,0,0,0,.168.17,8.852,8.852,0,0,0,2.1-1.01A21.7,21.7,0,0,0,607.725,2955.94Zm29.092,0.84a0.259,0.259,0,0,0-.308.17,0.25,0.25,0,0,0,.2.22,6.267,6.267,0,0,1,2.632,3.98c0.2,0.76.42,1.04,0.9,1.04a1.493,1.493,0,0,0,1.4-1.54C641.633,2958.8,639.141,2956.78,636.817,2956.78Zm10.976,2.97a1.142,1.142,0,0,0,.532-0.76,4.566,4.566,0,0,0-1.372-1.93,2.851,2.851,0,0,0-2.016-.92,0.38,0.38,0,0,0-.448.28,0.565,0.565,0,0,0,.28.31,1.84,1.84,0,0,1,.364,1.2c0,2.21-1.512,5.49-3.724,8.15a22.35,22.35,0,0,1-7.7,5.96c-0.7.28-.7,0.28-0.7,0.42a0.283,0.283,0,0,0,.28.23,16.81,16.81,0,0,0,5.768-2.24A22.975,22.975,0,0,0,647.793,2959.75Zm-15.316-.59c-0.28,0-.364.06-0.364,0.17a0.455,0.455,0,0,0,.308.34,7.475,7.475,0,0,1,2.548,3.78,0.758,0.758,0,0,0,.756.61,1.437,1.437,0,0,0,1.288-1.57C637.013,2960.73,634.913,2959.16,632.477,2959.16Zm27.972,6.78c-0.2,0-.308.05-0.308,0.14a0.276,0.276,0,0,0,.14.17,5.754,5.754,0,0,1,3.7,4.36c0.42,1.32.7,1.63,1.456,1.63a1.639,1.639,0,0,0,1.764-1.6c0-1.51-1.512-3.11-3.92-4.06A8.478,8.478,0,0,0,660.449,2965.94Zm36.764-1.82h6.44v8.65a0.552,0.552,0,0,0,.56.67,6.73,6.73,0,0,0,1.456-.25,0.648,0.648,0,0,0,.532-0.76v-8.31h6.888v1.54a0.534,0.534,0,0,0,.532.64,8.933,8.933,0,0,0,1.512-.22,0.594,0.594,0,0,0,.448-0.7v-8.15l0.392-.17a0.721,0.721,0,0,0,.5-0.59,1.334,1.334,0,0,0-.448-0.81l-2.072-2.18-1.064,1.45H706.2v-5.26l0.588-.42a0.712,0.712,0,0,0,.364-0.56,0.686,0.686,0,0,0-.756-0.5l-2.744-.26v7h-6.3l-2.576-1.37v12.6a0.537,0.537,0,0,0,.56.62,5.385,5.385,0,0,0,1.288-.25,0.645,0.645,0,0,0,.588-0.73v-1.68Zm0-.76v-7.67h6.44v7.67h-6.44Zm8.988,0v-7.67h6.888v7.67H706.2Zm40.656-8.87a6.047,6.047,0,0,1-2.912-.82,4.073,4.073,0,0,1,.392-1.23,0.849,0.849,0,0,0,.112-0.39c0-.7-1.96-1.96-3.052-1.96-0.7,0-1.792.45-1.792,0.73a0.16,0.16,0,0,0,.168.14h0.112a1.56,1.56,0,0,1,.224-0.03,1.432,1.432,0,0,1,1.064.98c0.308,0.73.308,0.73,0.42,5.18a17.579,17.579,0,0,1-3.276.39,3.13,3.13,0,0,1-2.744-1.15,0.308,0.308,0,0,0-.224-0.22,0.187,0.187,0,0,0-.14.2,3.6,3.6,0,0,0,.532,1.45,3.463,3.463,0,0,0,3.276,1.63,13.588,13.588,0,0,0,2.6-.28c0.2,1.9.364,4.92,0.336,6.44-0.644-.06-1.428-0.12-2.016-0.12-3.108,0-5.264,1.32-5.264,3.22,0,1.74,1.932,3.06,4.508,3.06a5.023,5.023,0,0,0,4.06-1.68,3.752,3.752,0,0,0,.868-1.96,7.376,7.376,0,0,1,2.156,1.87,3.6,3.6,0,0,0,.812,1.04,1.69,1.69,0,0,0,1.12.42,1.309,1.309,0,0,0,1.344-1.4c0-1.46-1.876-2.91-5.236-4.03-0.028-.98-0.056-1.4-0.2-2.94-0.252-2.55-.252-2.78-0.392-4.37,3-.9,4.4-1.93,4.4-3.31a0.786,0.786,0,0,0-.644-0.89,0.9,0.9,0,0,0-.252.03h-0.364Zm-5.012,12.82c-0.252,1.74-1.232,2.44-3.388,2.44-1.092,0-1.96-.56-1.96-1.29,0-1.04,1.176-1.82,2.772-1.82a7.282,7.282,0,0,1,2.6.53Zm2.212-13.02a5.857,5.857,0,0,0,.56.36,6.48,6.48,0,0,0,.7.42,0.552,0.552,0,0,1,.28.28c0,0.34-.7.79-1.932,1.21a17.183,17.183,0,0,1,.112-2.44Zm-11.564,7.2c-0.14,0-.224.11-0.392,0.58a9.148,9.148,0,0,1-.336.87c-0.2.51-.42,1.15-0.672,1.88-0.784,2.27-.868,2.43-1.232,2.43a0.4,0.4,0,0,1-.392-0.3,9.451,9.451,0,0,1-.28-2.33,18.69,18.69,0,0,1,1.82-7.47c0.924-1.91,1.036-2.27,1.036-3a3.957,3.957,0,0,0-2.184-3.28,3.7,3.7,0,0,0-1.624-.5,0.139,0.139,0,0,0-.168.11,0.357,0.357,0,0,0,.224.25,3.265,3.265,0,0,1,.84,2.38,22.2,22.2,0,0,1-.784,4.37,32.422,32.422,0,0,0-.98,7.25c0,4.23,1.568,7.68,3.528,7.68a1.383,1.383,0,0,0,1.288-1.15,1.307,1.307,0,0,0-.14-0.45,6.939,6.939,0,0,1-.476-2.86,24.1,24.1,0,0,1,.952-5.57,4.717,4.717,0,0,0,.14-0.7A0.183,0.183,0,0,0,732.493,2961.49Zm45.892-13.53c-0.9,0-1.316.09-1.316,0.28,0,0.11.056,0.17,0.224,0.2a4.932,4.932,0,0,1,2.66,2.15c0.392,0.65.476,0.73,0.952,0.73a1.167,1.167,0,0,0,1.232-1.12C782.137,2949.03,780.317,2947.96,778.385,2947.96Zm-3.528,1.65c-0.7,0-.98.06-0.98,0.23,0,0.11.056,0.17,0.252,0.22a4.388,4.388,0,0,1,2.324,2.1c0.42,0.76.532,0.87,1.008,0.87a1.083,1.083,0,0,0,1.176-1.09C778.637,2950.73,776.817,2949.61,774.857,2949.61Zm-9.548,2.72c-1.2,0-2.436.25-2.436,0.5,0,0.09.056,0.14,0.252,0.2a6.475,6.475,0,0,1,4,3.14c0.448,0.84.616,0.98,1.2,0.98a1.572,1.572,0,0,0,1.68-1.52C770.013,2953.87,767.829,2952.33,765.309,2952.33Zm-3.388,5.32a2.622,2.622,0,0,0-1.764.36c0,0.09.028,0.12,0.28,0.23a7.12,7.12,0,0,1,3.668,3.36,1.113,1.113,0,0,0,.98.78,1.6,1.6,0,0,0,1.624-1.48C766.709,2959.25,764.357,2957.65,761.921,2957.65Zm-0.14,9.24h-0.028c-0.224-.03-0.392.31-0.392,0.76a2.987,2.987,0,0,0,1.064,2.04,4.594,4.594,0,0,0,2.24,1.51,1.088,1.088,0,0,0,.756-0.42,4.6,4.6,0,0,1,.56-0.36,53.174,53.174,0,0,0,9.072-6.83,36.461,36.461,0,0,0,5.376-7.09,8.892,8.892,0,0,0,1.148-2.52,0.215,0.215,0,0,0-.168-0.22,0.749,0.749,0,0,0-.5.47,46.159,46.159,0,0,1-10.36,10.11c-3.164,2.21-5.432,3.31-6.888,3.31-1.2,0-1.68-.2-1.848-0.76h-0.028Zm41.356-.31c-0.616.06-1.232,0.14-1.82,0.2-0.2,0-1.792.19-3.724,0.42-2.072.22-2.072,0.22-2.352,0.22a2.685,2.685,0,0,1-1.82-.47c-0.084-.14-0.084-0.14-0.14-0.14a0.842,0.842,0,0,0-.336.84,1.415,1.415,0,0,0,.756.98,3.838,3.838,0,0,0,1.764.75,3.794,3.794,0,0,0,1.54-.47,7.963,7.963,0,0,1,1.9-.59,45.058,45.058,0,0,1,6.888-.67,30.472,30.472,0,0,1,5.124.44,4.274,4.274,0,0,0,.812.14,0.75,0.75,0,0,0,.84-0.61,3.564,3.564,0,0,0-2.268-2.13,1.614,1.614,0,0,0-.392.08,10.164,10.164,0,0,1-3.136.65c-0.224.03-.9,0.08-1.624,0.17,0.5-2.3.756-3.36,1.428-5.6a1.386,1.386,0,0,0,.7-0.84c0-.26-0.168-0.42-1.036-1.04-1.232-.87-1.26-0.9-1.428-0.9a0.914,0.914,0,0,0-.5.23,8.156,8.156,0,0,1-1.652.7,26.858,26.858,0,0,1-4.452.81,1.5,1.5,0,0,1-1.232-.53c-0.2-.34-0.2-0.34-0.308-0.34-0.224,0-.336.2-0.336,0.65a1.821,1.821,0,0,0,.9,1.73,1.664,1.664,0,0,0,.98.37,6.25,6.25,0,0,0,2.016-.65,10.571,10.571,0,0,1,3.192-.98,0.548,0.548,0,0,1,.476.65A50.833,50.833,0,0,1,803.137,2966.58Zm27.384-10.86a52.59,52.59,0,0,1,8.764-1.54c0.924,0,1.26.22,1.26,0.89,0,2.24-2.072,7.62-3.892,10.06a18.122,18.122,0,0,1-7.252,5.82c-0.392.14-.5,0.25-0.5,0.45a0.263,0.263,0,0,0,.28.28,14.5,14.5,0,0,0,3.192-1.09,18.04,18.04,0,0,0,8.26-7.42c1.12-1.88,1.764-3.56,2.884-7.56a2.523,2.523,0,0,0,.952-1.15,3.263,3.263,0,0,0-1.092-1.4,2.838,2.838,0,0,0-1.624-1.04,2.064,2.064,0,0,0-.868.28c-1.288.7-7.7,1.85-10.7,1.91a3.307,3.307,0,0,0-2.38-1.21,2,2,0,0,0-1.6.59c0,0.11.056,0.14,0.224,0.17,0.84,0.11,1.26.67,1.54,2.01a30.624,30.624,0,0,1,.588,4.54,8.6,8.6,0,0,1-.084.98c-0.028.17-.056,0.28-0.056,0.31,0,0.64,1.4,1.76,2.24,1.76a0.839,0.839,0,0,0,.756-1.01C831.417,2961.77,831.109,2959.55,830.521,2955.72Zm33.656,1.06a0.259,0.259,0,0,0-.308.17,0.25,0.25,0,0,0,.2.22,6.267,6.267,0,0,1,2.632,3.98c0.2,0.76.42,1.04,0.9,1.04a1.493,1.493,0,0,0,1.4-1.54C868.993,2958.8,866.5,2956.78,864.177,2956.78Zm10.976,2.97a1.142,1.142,0,0,0,.532-0.76,4.566,4.566,0,0,0-1.372-1.93,2.851,2.851,0,0,0-2.016-.92,0.38,0.38,0,0,0-.448.28,0.565,0.565,0,0,0,.28.31,1.84,1.84,0,0,1,.364,1.2c0,2.21-1.512,5.49-3.724,8.15a22.35,22.35,0,0,1-7.7,5.96c-0.7.28-.7,0.28-0.7,0.42a0.283,0.283,0,0,0,.28.23,16.81,16.81,0,0,0,5.768-2.24A22.975,22.975,0,0,0,875.153,2959.75Zm-15.316-.59c-0.28,0-.364.06-0.364,0.17a0.455,0.455,0,0,0,.308.34,7.475,7.475,0,0,1,2.548,3.78,0.758,0.758,0,0,0,.756.61,1.437,1.437,0,0,0,1.288-1.57C864.373,2960.73,862.273,2959.16,859.837,2959.16Zm38.724,2.07c-3.584,1.66-5.516,3.87-5.516,6.3a4.668,4.668,0,0,0,2.38,3.95,11.91,11.91,0,0,0,5.852,1.23,22.479,22.479,0,0,0,6.188-.81c0.952-.33,1.316-0.7,1.316-1.23a2.147,2.147,0,0,0-2.044-1.99,4.779,4.779,0,0,0-1.484.37,17.312,17.312,0,0,1-5.264.98c-2.968,0-4.7-1.12-4.7-3.03a4.928,4.928,0,0,1,2.324-3.89,13.376,13.376,0,0,1,3-1.46,22.579,22.579,0,0,0,3.192-.67c1.82-.5,2.3-0.75,2.3-1.26a2.587,2.587,0,0,0-2.24-1.93,0.981,0.981,0,0,0-.7.34,7.4,7.4,0,0,1-3.08,1.9c-0.336,0-.616-0.67-0.616-1.51a23.673,23.673,0,0,1,.9-5.63,5.027,5.027,0,0,0,.364-1.76,1.778,1.778,0,0,0-.924-1.49,4.859,4.859,0,0,0-2.492-.84c-1.036,0-2.548.56-2.548,0.95,0,0.12.084,0.17,0.28,0.17a2.816,2.816,0,0,1,1.456.48,2.058,2.058,0,0,1,.812,2.01c0,0.28,0,.76-0.056,1.68-0.028.84-.028,1.21-0.028,1.71C897.217,2958.77,897.357,2959.36,898.561,2961.23Zm21.672-1.79c3.556-.11,4.116-0.14,4.9-0.14h4.48a15.769,15.769,0,0,1-1.148,2.27,8.617,8.617,0,0,0-3.948-1.06c-0.308,0-.448.08-0.448,0.25a0.329,0.329,0,0,0,.224.28,5.644,5.644,0,0,1,2.548,2.18,10.343,10.343,0,0,0,.84,1.18,1.57,1.57,0,0,0,1.148.5,1.1,1.1,0,0,0,1.176-1.17,2.067,2.067,0,0,0-.728-1.52c0.7-.5.924-0.64,1.036-0.75,0.28-.2.56-0.42,0.812-0.62a2.014,2.014,0,0,0,.28-0.22l0.812-.17a0.493,0.493,0,0,0,.5-0.42,0.577,0.577,0,0,0-.252-0.45l-0.392-.28h12.936a0.268,0.268,0,0,0,.28-0.33,0.741,0.741,0,0,0-.392-0.59l-2.184-1.82-1.82,1.99h-7.28v-2.5h8.316a0.356,0.356,0,0,0,.364-0.39,0.744,0.744,0,0,0-.364-0.56l-1.96-1.51-1.512,1.71h-4.844V2953h10.276a0.362,0.362,0,0,0,.448-0.33,0.748,0.748,0,0,0-.448-0.59l-2.24-1.65-1.568,1.82h-6.468v-2.52l0.644-.34a0.785,0.785,0,0,0,.448-0.64,0.7,0.7,0,0,0-.812-0.56l-2.94-.17v4.23h-4.9c-0.336,0-1.316-.03-2.772-0.09-0.392-.03-1.512-0.05-2.744-0.08l0.644,1.06c3.444-.14,3.556-0.14,4.872-0.14h4.9v2.3h-3.668c-0.364,0-1.092-.03-2.184-0.06-0.364-.03-1.456-0.05-2.66-0.08l0.532,1.01c2.38-.06,2.8-0.09,4.312-0.12h3.668v2.5h-5.824c-0.42,0-1.4-.03-2.828-0.09-0.364-.03-1.484-0.05-2.688-0.08Zm8.372,10.53c0.42-.06.616-0.2,0.616-0.45a0.843,0.843,0,0,0-.476-0.61l-2.212-1.38a19.017,19.017,0,0,1-5.348,5.52c-0.616.39-.672,0.45-0.672,0.59a0.2,0.2,0,0,0,.224.19,11.212,11.212,0,0,0,2.3-.81,22.393,22.393,0,0,0,4.844-2.94Zm2.6,3.56c0,0.25.168,0.36,0.56,0.36a7.066,7.066,0,0,0,1.26-.2c0.588-.11.84-0.3,0.84-0.61v-6.69c1.68-.17,4.956-0.65,5.852-0.82a10.822,10.822,0,0,1,1.2,1.54c0.756,1.21,1.064,1.49,1.624,1.49a1.391,1.391,0,0,0,1.372-1.35c0-1.28-1.2-2.43-3.444-3.27a12.946,12.946,0,0,0-3.332-.87,0.236,0.236,0,0,0-.28.2,0.334,0.334,0,0,0,.252.3,15.137,15.137,0,0,1,1.876,1.24c-2.884.16-5.152,0.28-6.328,0.3,1.2-.72,2.184-1.42,4.7-3.27h0.588c0.588,0,.84-0.14.84-0.45a0.774,0.774,0,0,0-.448-0.59l-2.184-1.54a37.186,37.186,0,0,1-4.7,5.91h-0.868l-2.856.06c-0.952.02-1.6,0.02-1.82,0.02l-3.892-.08h-1.12l1.008,2.44c0.224,0.58.364,0.72,0.7,0.72a0.869,0.869,0,0,0,.728-0.5l0.336-.39,0.756-.06,2.6-.28,3.192-.31c0.084-.02.2-0.02,0.98-0.11v6.81Zm4.2-5.74a0.249,0.249,0,0,0-.308.22,0.35,0.35,0,0,0,.224.31,11.927,11.927,0,0,1,4.508,3.81c0.84,1.03,1.288,1.37,1.82,1.37a1.247,1.247,0,0,0,1.232-1.32c0-1.03-1.176-2.35-2.744-3.11A18.576,18.576,0,0,0,935.409,2967.79Zm24.388-11.32h4.368a0.45,0.45,0,0,0,.448-0.39,0.554,0.554,0,0,0-.2-0.42l-2.1-1.82-1.6,1.88H959.8v-6.13l0.56-.37a0.755,0.755,0,0,0,.336-0.59,0.678,0.678,0,0,0-.728-0.56l-2.66-.11v7.76h-1.736c-1.2,0-1.9-.03-3.752-0.11l0.588,0.95c1.456-.06,1.988-0.09,3.164-0.09h1.68a27.318,27.318,0,0,1-5.152,11.74,0.976,0.976,0,0,0-.308.47,0.272,0.272,0,0,0,.2.23,4.5,4.5,0,0,0,1.4-1.07,24,24,0,0,0,3.92-4.56v9.85c0,0.26.168,0.4,0.532,0.4a3.387,3.387,0,0,0,1.4-.37,0.685,0.685,0,0,0,.56-0.81v-11.42a4.277,4.277,0,0,1,1.12,1.65,11.381,11.381,0,0,0,.616,1.51,1.146,1.146,0,0,0,.98.56,1.246,1.246,0,0,0,1.26-1.4c0-1.54-1.428-2.66-3.976-3.11v-3.67Zm14.336-.75h-0.9v-6.08l0.784-.53a0.624,0.624,0,0,0,.28-0.5,0.725,0.725,0,0,0-.672-0.65l-2.94-.17v7.93h-2.1c-0.868,0-1.68-.03-3.752-0.09l0.476,0.93c1.68-.06,2.38-0.09,3.276-0.09h1.624a38.925,38.925,0,0,1-8.932,13.28,0.727,0.727,0,0,0-.308.42,0.208,0.208,0,0,0,.2.19,11.85,11.85,0,0,0,2.968-1.93,31.74,31.74,0,0,0,6.552-7.22v8.17c0,0.84-.056.9-0.448,1.01a24.209,24.209,0,0,1-3.108.06c-0.616,0-.7.02-0.7,0.22,0,0.17,0,.17,1.176.53,0.476,0.14.98,0.31,1.428,0.45a3.994,3.994,0,0,1,.476.17c0.224,0.11.28,0.25,0.336,0.84,0.028,0.61.2,0.89,0.532,0.89a5.006,5.006,0,0,0,1.764-.61,1.539,1.539,0,0,0,1.092-1.74v-14.73h4.732a0.386,0.386,0,0,0,.28-0.42,0.627,0.627,0,0,0-.2-0.42l-2.184-1.93Zm23.884-3.05a5.721,5.721,0,0,1,.588-0.03,6.709,6.709,0,0,1,2.885.67c2.43,1.23,3.69,3.78,3.69,7.53a9.553,9.553,0,0,1-3.58,7.98,15.122,15.122,0,0,1-5.011,2.61c-0.448.14-.532,0.16-0.532,0.3,0,0.12.112,0.17,0.28,0.17a11.941,11.941,0,0,0,1.792-.33,17.337,17.337,0,0,0,5.181-1.91,10.3,10.3,0,0,0,5.18-8.96,8.487,8.487,0,0,0-2.21-5.91,10.84,10.84,0,0,0-7.871-3.08c-6.552,0-12.18,5.3-12.18,11.46a7.23,7.23,0,0,0,1.372,4.5,3.364,3.364,0,0,0,2.352,1.54c1.54,0,3.976-1.98,5.628-4.56a18.025,18.025,0,0,0,2.8-9.1A10.627,10.627,0,0,0,998.017,2952.67Zm-1.372.11a1.525,1.525,0,0,0,.056.19,6.823,6.823,0,0,1,.168,1.57,16.459,16.459,0,0,1-2.856,8.37c-1.176,1.85-2.772,3.31-3.64,3.31s-1.624-1.46-1.624-3.11a10.957,10.957,0,0,1,3.3-7.81A10.519,10.519,0,0,1,996.645,2952.78Zm25.785-2.91,0.51-.37a0.73,0.73,0,0,0,.39-0.59,0.607,0.607,0,0,0-.59-0.5l-2.86-.28v8.51c0,1.29.2,1.79,0.76,2.05,0.81,0.33,3.22.5,7.08,0.5,3.67,0,10.2-.2,12.1-0.36,1.74-.17,2.74-0.7,2.74-1.49a0.991,0.991,0,0,0-.75-0.95,0.754,0.754,0,0,1-.67-0.87,10.593,10.593,0,0,1,.08-1.15,8.861,8.861,0,0,0,.11-0.95,8.517,8.517,0,0,0,.09-0.87c0.02-.14.05-0.28,0.05-0.36a0.2,0.2,0,0,0-.22-0.22,0.311,0.311,0,0,0-.28.28c-0.28.7-.87,2.07-1.32,2.94-0.59,1.26-.87,1.4-2.83,1.54-2.46.16-6.58,0.3-9.18,0.3-5.01,0-5.21-.02-5.21-0.92v-1.85a96.462,96.462,0,0,0,12.66-2.71l1.31-.37,1.1,0.11,0.11,0.03a0.419,0.419,0,0,0,.5-0.42,0.65,0.65,0,0,0-.19-0.42l-2.55-2.35a51.444,51.444,0,0,1-12.94,5.46v-3.72Zm1.46,21.58h11.73v1.21a0.452,0.452,0,0,0,.53.53c1.12,0,2.05-.45,2.05-0.98v-8.54l0.44-.28a0.653,0.653,0,0,0,.4-0.56,1.281,1.281,0,0,0-.45-0.78l-2.1-2.13-0.98,1.54H1024.2l-2.75-1.4v13.05c0,0.5.09,0.64,0.51,0.64a3.088,3.088,0,0,0,1.34-.34,0.743,0.743,0,0,0,.59-0.67v-1.29Zm0-.75v-3.89h11.73v3.89h-11.73Zm0-4.65v-3.84h11.73v3.84h-11.73Zm28.53-1.99h2.8v1.88a0.321,0.321,0,0,0,.39.36,5.3,5.3,0,0,0,1.09-.19c0.68-.2.87-0.34,0.87-0.62v-4.42h6.47a28.344,28.344,0,0,1-8.29,11.11,0.847,0.847,0,0,0-.47.53,0.127,0.127,0,0,0,.14.14,16.257,16.257,0,0,0,3.47-2.12,31.239,31.239,0,0,0,5.6-5.49v7.95a0.376,0.376,0,0,0,.47.36,4.116,4.116,0,0,0,1.01-.16c0.76-.17.95-0.31,0.95-0.7v-10.31a21.51,21.51,0,0,0,6.36,9.69,5.114,5.114,0,0,1,2.55-2.49,20.162,20.162,0,0,1-5.8-4.2,13.851,13.851,0,0,1-2.83-4.31h7.84a0.43,0.43,0,0,0,.4-0.4,0.954,0.954,0,0,0-.34-0.61l-2.18-1.88-1.91,2.13h-4.09v-5.32h6.92a0.345,0.345,0,0,0,.39-0.36,0.911,0.911,0,0,0-.42-0.68l-2.07-1.79-1.79,2.07h-3.03v-4.62l0.37-.25a0.872,0.872,0,0,0,.5-0.7,0.661,0.661,0,0,0-.75-0.56l-2.55-.28v6.41h-2.13c-0.08,0-.84,0-1.6-0.02l-2.15-.09,0.53,0.95,1.65-.05c0.7-.03,1.29-0.03,1.57-0.03h2.13v5.32h-6.92v-6.19l0.34-.17a0.589,0.589,0,0,0,.36-0.5,1,1,0,0,0-.36-0.7l-1.85-2.1-0.9,1.46h-2.66l-2.4-1.29v17.25a0.336,0.336,0,0,0,.36.36,7.412,7.412,0,0,0,1.62-.34,0.434,0.434,0,0,0,.34-0.5v-3.53Zm0-11.2h2.8v10.45h-2.8v-10.45Zm46.9-3.02a1.292,1.292,0,0,0-1.2.33c0,0.12.08,0.2,0.39,0.28a4.048,4.048,0,0,1,2.13,1.63c0.61,0.98.61,0.98,1.09,0.98a1.188,1.188,0,0,0,1.23-1.09C1102.96,2950.87,1101.17,2949.84,1099.32,2949.84Zm3.72-1.6c-0.72,0-1.23.14-1.23,0.34,0,0.14.06,0.19,0.42,0.31a4.666,4.666,0,0,1,2.33,1.87c0.42,0.73.56,0.81,1,.81a1.226,1.226,0,0,0,1.24-1.09C1106.8,2949.33,1104.95,2948.24,1103.04,2948.24Zm-14.47,2.69c1.03,0,1.68.87,1.68,2.3a17.538,17.538,0,0,1-.42,3.66,20.248,20.248,0,0,1-4.68,1.1,1.646,1.646,0,0,1-1.48-.79c-0.09-.31-0.11-0.33-0.23-0.33a0.831,0.831,0,0,0-.28.84c0,1.45.87,2.63,1.94,2.63a3.5,3.5,0,0,0,1.59-.56c1.04-.53,1.35-0.67,2.8-1.37a27.872,27.872,0,0,1-5.54,10.19c-0.84.89-.98,1.12-0.98,1.54a1.334,1.334,0,0,0,1.45,1.23,2.249,2.249,0,0,0,1.4-.48,5.473,5.473,0,0,0,1.01-1.45,60.44,60.44,0,0,0,4.99-11.82,6.683,6.683,0,0,1,2.07-.5c1.03,0,1.51.78,1.51,2.49a20.061,20.061,0,0,1-1.32,7.14,2.054,2.054,0,0,1-1.59,1.51c-0.39,0-.56-0.11-2.07-1.4a1.966,1.966,0,0,0-.82-0.56,0.213,0.213,0,0,0-.19.17,0.76,0.76,0,0,0,.28.42,6.277,6.277,0,0,1,1.4,3.42c0.05,0.78.22,0.95,0.89,0.95a4.938,4.938,0,0,0,3.87-2.24c1.12-1.68,1.87-5.1,1.87-8.4,0-2.97-1.26-4.62-3.55-4.62a7.808,7.808,0,0,0-2.02.31,28.751,28.751,0,0,0,.84-4.18c0-.86-1.73-2.01-3.05-2.01a2.541,2.541,0,0,0-1.76.73,0.152,0.152,0,0,0,.14.11,0.312,0.312,0,0,0,.14-0.03h0.11Zm13.86,11.48c1.48,0,2.04.17,2.77,0.87a1.056,1.056,0,0,0,.76.36c0.92,0,1.51-.87,1.51-2.21a6.882,6.882,0,0,0-6.89-6.64c-0.73,0-1.12.12-1.12,0.31,0,0.14.06,0.2,0.36,0.23a5.974,5.974,0,0,1,3.48,2.24,5,5,0,0,1,1.26,2.63,0.975,0.975,0,0,1-.73.89,18.275,18.275,0,0,1-2.55.96c-0.2.05-.28,0.11-0.28,0.22a0.215,0.215,0,0,0,.22.22,5.576,5.576,0,0,0,.56-0.05A3.421,3.421,0,0,1,1102.43,2962.41Zm37.55-8.71a0.363,0.363,0,0,0,.39-0.42,0.546,0.546,0,0,0-.25-0.42l-2.66-1.99-1.96,2.08h-6.78v-3.22l0.53-.34a0.648,0.648,0,0,0,.39-0.59,0.509,0.509,0,0,0-.53-0.53l-3.05-.28v4.96h-6.27l-2.8-1.29c0.03,1.68.05,2.57,0.05,4a86.794,86.794,0,0,1-.42,10.84,15.705,15.705,0,0,1-2.57,6.63,0.572,0.572,0,0,0-.09.23,0.275,0.275,0,0,0,.28.25,9.351,9.351,0,0,0,2.38-2.52,11.832,11.832,0,0,0,2.66-6.92c0.14-1.65.23-4.59,0.23-10.47h20.47Zm-21.12,15.68,1.49,3.05a0.66,0.66,0,0,0,.53.4,0.645,0.645,0,0,0,.53-0.34l0.45-.64c3.22-.51,4.56-0.73,5.85-0.96,1.23-.22,2.38-0.44,7.28-1.4,0.28,0.65.28,0.65,1.12,2.86a1.267,1.267,0,0,0,1.29,1.01,1.464,1.464,0,0,0,1.32-1.71c0-1.96-1.8-4.56-4.54-6.58a14.2,14.2,0,0,0-3.02-1.68,0.275,0.275,0,0,0-.28.22,1.539,1.539,0,0,0,.53.62,18.447,18.447,0,0,1,3.22,4.51c-4.06.31-8.15,0.53-10.33,0.53,1.06-1.96,3.1-6.24,5.57-11.68l0.78-.22a0.613,0.613,0,0,0,.53-0.5,0.86,0.86,0,0,0-.53-0.7l-3.16-1.38a139.264,139.264,0,0,1-4.17,14.54c-1.29.02-2.47,0.05-2.94,0.05h-1.52Zm45.42-19.54a1.292,1.292,0,0,0-1.2.33c0,0.12.08,0.2,0.39,0.28a4.048,4.048,0,0,1,2.13,1.63c0.61,0.98.61,0.98,1.09,0.98a1.188,1.188,0,0,0,1.23-1.09C1167.92,2950.87,1166.13,2949.84,1164.28,2949.84Zm3.72-1.6c-0.72,0-1.23.14-1.23,0.34,0,0.14.06,0.19,0.42,0.31a4.666,4.666,0,0,1,2.33,1.87c0.42,0.73.56,0.81,1,.81a1.226,1.226,0,0,0,1.24-1.09C1171.76,2949.33,1169.91,2948.24,1168,2948.24Zm-14.47,2.69c1.03,0,1.68.87,1.68,2.3a17.538,17.538,0,0,1-.42,3.66,20.248,20.248,0,0,1-4.68,1.1,1.646,1.646,0,0,1-1.48-.79c-0.09-.31-0.11-0.33-0.23-0.33a0.831,0.831,0,0,0-.28.84c0,1.45.87,2.63,1.94,2.63a3.5,3.5,0,0,0,1.59-.56c1.04-.53,1.35-0.67,2.8-1.37a27.872,27.872,0,0,1-5.54,10.19c-0.84.89-.98,1.12-0.98,1.54a1.334,1.334,0,0,0,1.45,1.23,2.249,2.249,0,0,0,1.4-.48,5.473,5.473,0,0,0,1.01-1.45,60.44,60.44,0,0,0,4.99-11.82,6.683,6.683,0,0,1,2.07-.5c1.03,0,1.51.78,1.51,2.49a20.061,20.061,0,0,1-1.32,7.14,2.054,2.054,0,0,1-1.59,1.51c-0.39,0-.56-0.11-2.07-1.4a1.966,1.966,0,0,0-.82-0.56,0.213,0.213,0,0,0-.19.17,0.76,0.76,0,0,0,.28.42,6.277,6.277,0,0,1,1.4,3.42c0.05,0.78.22,0.95,0.89,0.95a4.938,4.938,0,0,0,3.87-2.24c1.12-1.68,1.87-5.1,1.87-8.4,0-2.97-1.26-4.62-3.55-4.62a7.808,7.808,0,0,0-2.02.31,28.751,28.751,0,0,0,.84-4.18c0-.86-1.73-2.01-3.05-2.01a2.541,2.541,0,0,0-1.76.73,0.152,0.152,0,0,0,.14.11,0.312,0.312,0,0,0,.14-0.03h0.11Zm13.86,11.48c1.48,0,2.04.17,2.77,0.87a1.056,1.056,0,0,0,.76.36c0.92,0,1.51-.87,1.51-2.21a6.882,6.882,0,0,0-6.89-6.64c-0.73,0-1.12.12-1.12,0.31,0,0.14.06,0.2,0.36,0.23a5.974,5.974,0,0,1,3.48,2.24,5,5,0,0,1,1.26,2.63,0.975,0.975,0,0,1-.73.89,18.275,18.275,0,0,1-2.55.96c-0.2.05-.28,0.11-0.28,0.22a0.215,0.215,0,0,0,.22.22,5.576,5.576,0,0,0,.56-0.05A3.421,3.421,0,0,1,1167.39,2962.41Zm28.53,7.08c-0.11-.19-0.17-0.33-0.22-0.42a4.485,4.485,0,0,0-4.2-2.46c-1.96,0-3.14.9-3.14,2.41,0,1.65,1.82,2.71,4.59,2.71a9.526,9.526,0,0,0,6.25-2.07,6.743,6.743,0,0,0,2.29-4.9c0-3.11-2.66-5.43-6.24-5.43a8.928,8.928,0,0,0-4.23.98,0.1,0.1,0,0,1-.08.03,0.065,0.065,0,0,1-.06-0.06c0-.81,4.28-5.43,6.16-6.63,0.76-.48,1.01-0.76,1.01-1.15,0-.84-2.21-2.33-3.5-2.33a1.982,1.982,0,0,0-1.09.4,13.694,13.694,0,0,1-5.86,2.1,1.1,1.1,0,0,1-1.12-.59c-0.08-.23-0.11-0.25-0.16-0.25-0.17,0-.26.3-0.26,0.89a2.332,2.332,0,0,0,.45,1.49,2.381,2.381,0,0,0,1.65,1.03,2,2,0,0,0,1.24-.67c1.59-1.26,3.69-2.49,4.25-2.49a0.316,0.316,0,0,1,.31.33c0,1.12-2.38,4.71-5.18,7.82-1.2,1.34-3.28,3.44-4.48,4.53a1.762,1.762,0,0,0-.78,1.35,2.477,2.477,0,0,0,1.79,2.18c0.36,0,.64-0.28,1.03-1.12a21.5,21.5,0,0,1,2.69-4.2,7.188,7.188,0,0,1,5.41-2.6,4.237,4.237,0,0,1,2.71,1.06,4.29,4.29,0,0,1,1.35,3.36,6.119,6.119,0,0,1-.65,2.83A5.024,5.024,0,0,1,1195.92,2969.49Zm-2.52.68c-0.36.02-.59,0.02-0.64,0.02-1.57,0-2.94-.67-2.94-1.45a1.164,1.164,0,0,1,1.34-1.01C1192.39,2967.73,1193.15,2968.54,1193.4,2970.17Zm28.25,0.67h9.41v1.54c0,0.28.14,0.39,0.48,0.39,0.92,0,2.12-.45,2.12-0.78v-9.36l0.76-.33a0.691,0.691,0,0,0,.36-0.56,0.757,0.757,0,0,0-.28-0.53l-2.68-2.52-1.1,1.68h-9.01l-0.59-.51a34.84,34.84,0,0,0,3.67-8.23h12.65a0.357,0.357,0,0,0,.34-0.39,0.466,0.466,0,0,0-.2-0.37l-2.8-2.24-2.01,2.24h-14.62c-0.39,0-1.31-.02-2.32-0.05l-3.19-.09,0.67,1.04,2.71-.08c0.9-.06,1.66-0.06,2.13-0.06h3.56a27.4,27.4,0,0,1-9.55,15.88,0.714,0.714,0,0,0-.31.36,0.2,0.2,0,0,0,.17.2,12.259,12.259,0,0,0,2.6-1.57,28.879,28.879,0,0,0,4.48-4.01v10.48c0,0.25.14,0.36,0.48,0.36,0.98,0,2.07-.39,2.07-0.73v-1.76Zm0-.76v-8.96h9.41v8.96h-9.41Zm24.08-2.29c2.33-.12,3.03-0.14,4.85-0.14h19.23a0.351,0.351,0,0,0,.37-0.34,0.639,0.639,0,0,0-.23-0.42l-2.38-2.04-1.79,2.04h-7.36v-2.72h7.64a0.385,0.385,0,0,0,.34-0.36,0.824,0.824,0,0,0-.26-0.48l-2.26-1.96-1.71,2.05h-3.75v-2.38h9.46a0.341,0.341,0,0,0,.34-0.39,0.581,0.581,0,0,0-.23-0.42l-2.38-2.08-1.79,2.13h-3.25c0.95-.75,1.26-0.98,1.93-1.43h0.65a0.466,0.466,0,0,0,.45-0.47,0.442,0.442,0,0,0-.23-0.39l-1.12-.65,0.7,0.03c2.8,0,3.95-.03,4.73-0.11,0.82-.11,1.26-0.42,1.26-0.93a0.964,0.964,0,0,0-.72-0.89,0.362,0.362,0,0,1-.31-0.37c0-.02.03-0.28,0.05-0.47,0.06-.73.09-0.93,0.09-1.07,0-.11-0.03-0.19-0.11-0.19a0.824,0.824,0,0,0-.51.5,5.618,5.618,0,0,1-.98,1.4c-0.31.28-.84,0.34-2.52,0.34-3.27,0-3.27,0-3.27-.7v-2.8h5.06a20.551,20.551,0,0,1-1.14,2.46,2.741,2.741,0,0,0-.28.62,0.127,0.127,0,0,0,.11.14,1.224,1.224,0,0,0,.59-0.28c0.16-.09.33-0.2,0.53-0.31,0.22-.17.53-0.36,0.81-0.56a17.051,17.051,0,0,1,1.48-.9h1.26a0.53,0.53,0,0,0,.56-0.5,0.881,0.881,0,0,0-.28-0.56l-2.57-2.52-1.15,1.65h-7.11v-2.1l0.53-.22a0.615,0.615,0,0,0,.36-0.56,0.609,0.609,0,0,0-.58-0.59l-2.86-.17v3.64h-6.66c-0.2-1.29-.37-1.73-0.7-1.73a0.319,0.319,0,0,0-.28.39,3.931,3.931,0,0,1-1.71,3.11c-1.07.86-1.18,1-1.18,1.59a1.3,1.3,0,0,0,1.26,1.37,2.708,2.708,0,0,0,2.24-1.7,6.23,6.23,0,0,0,.42-2.27h4.31c-0.5,2.97-2.8,4.81-7.39,5.99-0.33.11-.45,0.2-0.45,0.34a0.241,0.241,0,0,0,.28.22,21.759,21.759,0,0,0,5.55-1.34,3.515,3.515,0,0,1,1.26,1.79c0.08,0.25.17,0.47,0.28,0.73,0.03,0.05.08,0.22,0.22,0.47h-1.87c-1.21,0-2.41-.03-5.52-0.17l0.59,1.07c2.99-.11,3.97-0.14,4.98-0.14h4.48v2.38h-3.33c-1.15,0-2.18-.03-4.87-0.14l0.61,1.01c2.1-.09,2.89-0.12,4.26-0.12h3.33v2.72h-5.51c-1.24,0-2.47-.03-5.49-0.14Zm12.69-15.71v3.67c0,1.26.3,1.48,2.12,1.51a21.02,21.02,0,0,1-1.17,3.02h-4.06a1.369,1.369,0,0,0,.25-0.78,2.259,2.259,0,0,0-1.2-1.88,6.02,6.02,0,0,0-1.91-.67,6.524,6.524,0,0,0,3.59-4.51,2,2,0,0,0,.11-0.36h2.27Zm-9.3,16.04a0.36,0.36,0,0,0-.31.31,4.233,4.233,0,0,1-2.1,2.52c-1.29.84-1.4,0.95-1.4,1.57a1.473,1.473,0,0,0,1.6,1.48,2.9,2.9,0,0,0,2.15-1.48,5.2,5.2,0,0,0,.56-2.55C1249.62,2968.71,1249.46,2968.12,1249.12,2968.12Zm3.19,0.09a0.179,0.179,0,0,0-.19.16,0.632,0.632,0,0,0,.16.31,6.465,6.465,0,0,1,.84,3.56c0.06,1.2.42,1.71,1.21,1.71a1.547,1.547,0,0,0,1.57-1.71c0-1.32-.68-2.3-2.24-3.33A4.635,4.635,0,0,0,1252.31,2968.21Zm4.79,0.22a0.19,0.19,0,0,0-.2.17,0.473,0.473,0,0,0,.23.31,4.54,4.54,0,0,1,1.68,2.4c0.53,1.74.53,1.74,0.84,2.05a1.32,1.32,0,0,0,.75.25,1.36,1.36,0,0,0,1.4-1.37c0-1.37-1.09-2.58-3.02-3.31A14.806,14.806,0,0,0,1257.1,2968.43Zm4.87-.31a0.256,0.256,0,0,0-.28.25,0.716,0.716,0,0,0,.45.42,10.722,10.722,0,0,1,3.19,2.89c1.12,1.68,1.15,1.71,1.77,1.71a1.492,1.492,0,0,0,1.48-1.46c0-1.34-1.23-2.41-3.67-3.16A19.532,19.532,0,0,0,1261.97,2968.12Zm19.85,5.1a0.506,0.506,0,0,0,.56.56,4.71,4.71,0,0,0,1.29-.25,0.635,0.635,0,0,0,.53-0.68v-10.58a5,5,0,0,1,1.29,2.1c0.42,1.32.42,1.32,0.65,1.57a0.851,0.851,0,0,0,.64.28,1.2,1.2,0,0,0,1.06-1.4c0-1.49-1.31-2.58-3.64-3.03v-1.96h4.74a0.4,0.4,0,0,0,.47-0.36,0.559,0.559,0,0,0-.22-0.39l-1.82-1.85-1.51,1.85h-1.66v-9.44l0.79-.59a0.526,0.526,0,0,0,.25-0.44,0.465,0.465,0,0,0-.5-0.42l-2.92-.2v11.09h-1.56c-2.1-.06-3.17-0.09-3.76-0.11l0.54,0.95c2.49-.09,2.63-0.09,3.22-0.09h1.54a25.585,25.585,0,0,1-4.85,9.94,0.943,0.943,0,0,0-.22.45,0.137,0.137,0,0,0,.17.14,8.033,8.033,0,0,0,2.1-1.65,25,25,0,0,0,2.82-3.3v7.81Zm-4.73-22.18a0.146,0.146,0,0,0-.17.14,0.92,0.92,0,0,0,.14.31,8.512,8.512,0,0,1,1.26,4.82c0.03,1.14.31,1.54,1.01,1.54,0.87,0,1.4-.73,1.4-1.88a5.161,5.161,0,0,0-2.21-3.98A5.426,5.426,0,0,0,1277.09,2951.04Zm12.43,1.57a0.633,0.633,0,0,0,.34-0.56,0.549,0.549,0,0,0-.34-0.5l-2.43-1.35a37.223,37.223,0,0,1-1.85,6.13,3.656,3.656,0,0,0-.45,1.12,0.194,0.194,0,0,0,.2.2c0.36,0,2.18-2.24,3.83-4.7Zm-3.27,15.68c1.82-.56,2.35-0.7,3.95-1.15l5.6-1.48v7.22c0,0.37.19,0.53,0.64,0.53a3.628,3.628,0,0,0,1.2-.22,0.689,0.689,0,0,0,.59-0.73v-7.45l4.87-1.34a0.233,0.233,0,0,0,.2-0.22,0.667,0.667,0,0,0-.31-0.48l-2.35-1.93-1.23,2.91-1.18.34v-14.45l0.59-.39a0.609,0.609,0,0,0,.31-0.54,0.528,0.528,0,0,0-.56-0.53l-2.77-.25v16.77l-5.88,1.54c-1.52.42-2.24,0.59-4.29,1.04Zm3.53-10.05a0.137,0.137,0,0,0-.17.14,0.471,0.471,0,0,0,.22.25,4.761,4.761,0,0,1,1.85,3.44c0.2,0.98.48,1.32,1.15,1.32a1.333,1.333,0,0,0,1.34-1.6,2.9,2.9,0,0,0-1.85-2.71A7.515,7.515,0,0,0,1289.78,2958.24Zm0.95-6.27c-0.17,0-.28.05-0.28,0.14a0.485,0.485,0,0,0,.25.33,4.594,4.594,0,0,1,1.71,3.19c0.19,0.98.45,1.32,1.09,1.32a1.4,1.4,0,0,0,1.43-1.57,2.891,2.891,0,0,0-1.65-2.57A6.8,6.8,0,0,0,1290.73,2951.97Zm24.61,6.88h4a0.421,0.421,0,0,0,.4-0.39,0.626,0.626,0,0,0-.31-0.47l-1.88-1.66-1.54,1.77h-0.67v-6.53h4.26a0.337,0.337,0,0,0,.3-0.36,0.525,0.525,0,0,0-.19-0.39l-2.05-1.79-1.48,1.79h-3.33c-0.95,0-1.74-.03-3.73-0.11l0.56,0.95c1.52-.06,1.74-0.06,3.31-0.09v6.53c-1.6-.03-1.88-0.03-3.75-0.11l0.61,0.95c1.46-.06,1.68-0.06,3.14-0.09v7.26c-1.32.25-1.82,0.33-4.23,0.64l1.74,2.94a0.524,0.524,0,0,0,.5.25,0.644,0.644,0,0,0,.64-0.42l0.31-.95a62.844,62.844,0,0,0,7.23-2.94c1.28-.62,1.54-0.76,1.54-0.95a0.3,0.3,0,0,0-.34-0.28,2.836,2.836,0,0,0-.45.08c-2.21.59-3.64,0.93-4.59,1.12v-6.75Zm17.44,10.17-1.93,2.21h-2.88v-4.76h6.21a0.442,0.442,0,0,0,.37-0.48,0.645,0.645,0,0,0-.23-0.47l-2.07-1.82-1.71,2.01h-2.57v-3.94h3.47v0.92a0.35,0.35,0,0,0,.42.42,6.328,6.328,0,0,0,1.57-.31,0.5,0.5,0,0,0,.42-0.61v-10.06l0.7-.33a0.491,0.491,0,0,0,.28-0.42,0.9,0.9,0,0,0-.34-0.67l-2.27-2.16-0.92,1.26h-8.4l-2.74-1.15v14.93c0,0.3.11,0.39,0.44,0.39a5.111,5.111,0,0,0,1.35-.25c0.42-.14.56-0.26,0.56-0.51v-1.45h3.13v3.94h-1.65c-0.87,0-1.68-.02-3.75-0.11l0.59,0.95c1.57-.05,2.27-0.08,3.16-0.08h1.65v4.76h-3.3c-1.23,0-2.27-.03-4.84-0.14l0.61,1.01c2.02-.09,2.69-0.11,4.23-0.11h12.88a0.362,0.362,0,0,0,.36-0.34,0.567,0.567,0,0,0-.22-0.42Zm-10.27-8.01v-4.87h3.13v4.87h-3.13Zm0-5.63v-4.81h3.13v4.81h-3.13Zm5.46,5.63v-4.87h3.47v4.87h-3.47Zm0-5.63v-4.81h3.47v4.81h-3.47Z" transform="translate(-497.125 -2947.69)"/>
</svg>
