<svg xmlns="http://www.w3.org/2000/svg" viewBox="0 0 507.05 58.6"><defs><style>.cls-1{fill:#fff;}</style></defs><g id="Layer_2" data-name="Layer 2"><g id="Layer_1-2" data-name="Layer 1"><path class="cls-1" d="M45.94,0c-2,0-3.32.17-3.32,1,0,.23.1.63.74.75A9.56,9.56,0,0,1,48.88,6c1.2,1.94,1.5,2.36,2.88,2.36a3,3,0,0,0,3.07-2.94C54.83,2.59,50.59,0,45.94,0Z"/><path class="cls-1" d="M15.67,16.43c2.81,0,8-.86,16-2.63,3.33-.75,5-1.35,5-2.61,0-.91-.75-1.84-2.18-2.69A10.49,10.49,0,0,0,31,7.29a3.57,3.57,0,0,0-1.31.36,26.73,26.73,0,0,1-3.87,1.59,41.38,41.38,0,0,1-11.33,2.09,6,6,0,0,1-3.9-1.24.65.65,0,0,0-.45-.23c-.44,0-.76.52-.76.88,0,.84,1.08,2.68,1.88,3.7A5.54,5.54,0,0,0,15.67,16.43Z"/><path class="cls-1" d="M45.5,19.77a11.59,11.59,0,0,0-4.48-2l-.14,0-.13.08c-2.53,1.54-4.24,2.06-9.65,2.89S8.23,23.29,6,23.29c-2.57,0-3.66-.44-4.69-1.89l-.22-.3-.3.22A1.67,1.67,0,0,0,0,22.84a4.79,4.79,0,0,0,1.72,3.47c1.5,1.36,3.93,2.6,5.12,2.6A4,4,0,0,0,8,28.7H8c3.3-1.41,7.88-2.43,15.28-3.4a2.21,2.21,0,0,1,.32,1.2c0,3.4-2.13,9.35-5.06,14.13C15.38,45.76,10.14,51,6.09,53.09,2.82,54.8,2.82,54.8,2.82,55.28A.77.77,0,0,0,3.7,56c1.14,0,7.31-2.5,9.53-3.76,8-4.44,14.36-12.67,17.94-23.17.75-.82,1-1.14,1-1.66s-.46-1.16-2.5-2.72c3.23-.25,4.11-.3,5.52-.3a66.14,66.14,0,0,1,8.64.7,10.19,10.19,0,0,0,1.73.19,2.5,2.5,0,0,0,2.74-2.23C48.3,21.72,47.4,20.93,45.5,19.77Z"/><path class="cls-1" d="M37.42,6.55a9.07,9.07,0,0,1,5.24,4.67c.78,1.63,1.24,2.14,2.64,2.14a2.77,2.77,0,0,0,2.93-2.87c0-3-4.15-5.63-8.88-5.63-1.17,0-2.49,0-2.49.95A.85.85,0,0,0,37.42,6.55Z"/><path class="cls-1" d="M87,13.18c-.51,0-2,0-2,1a.9.9,0,0,0,.68.8,2,2,0,0,1,1,2c0,2.11-2.71,6.65-7.08,11.85C74.11,35.15,67.25,41,62,43.49c-.35.18-.72.4-.72.85a.89.89,0,0,0,.95.89,28,28,0,0,0,5.14-1.76c5.29-2.26,8.28-4.37,14.87-10.57a10.82,10.82,0,0,1,.16,2.93c0,1.33,0,1.33-.25,7.53L82,47.82c0,.3,0,.59-.07.86a7.56,7.56,0,0,1-.06.77A16.84,16.84,0,0,1,81,52.58,3.57,3.57,0,0,0,80.64,54c0,1.38,3.45,4.6,4.92,4.6S88,57.18,88,55.16c0-.49,0-1.34-.08-2.39l-.05-1.07c0-.29,0-.8,0-1.53,0-1.2-.11-3-.15-5.46-.19-6.9-.19-6.9-.19-7.41a16.15,16.15,0,0,1,.33-3.72c.46-.78.57-1,.57-1.4,0-.83-.82-1.3-1.68-1.68l-.7-.34-.65-.32c1.9-2,4.39-4.79,6.07-6.82.7-.83,1-1.14,1.14-1.27a3.4,3.4,0,0,1,.93-.7,1.63,1.63,0,0,0,1-1.41c0-.94-.92-2.1-2.74-4S88.78,13.18,87,13.18Z"/><path class="cls-1" d="M158.75,18.77c-1.42-1.11-3.95-2.45-5-2.45-.49,0-.9.22-2.67,1.13-2.4,1.29-3.8,1.62-11.14,2.53.18-4.71.36-8.18.49-9.31a3.13,3.13,0,0,1,.46-1.21,1.86,1.86,0,0,0,.31-.89c0-1.74-5.35-5.05-7.54-5.05-1.51,0-4.92,1.18-4.92,2.29,0,.53.5.63,1.13.76,2.58.52,3.41,3.14,3.41,10.76,0,.55,0,1.14-.06,2,0,.46,0,1-.06,1.61-12.12,1.3-14,1.5-16.53,1.5-3,0-4.9-.48-5.64-1.43-.25-.39-.48-.62-.88-.62a.85.85,0,0,0-.89.89c0,3.46,3.61,7.41,6.77,7.41.91,0,1.66-.21,4.23-1,3.66-1.33,5.62-1.79,12.63-3C131.33,38.54,125.31,49,116.3,53.48c-1,.51-1.35.72-1.35,1.29a.8.8,0,0,0,.82.76c1.13,0,6.1-1.86,8.18-3.05a29.12,29.12,0,0,0,11.67-12.9h0c2.07-4.48,3-8,3.9-15.75,4.09-.39,6.9-.54,9.64-.54a53,53,0,0,1,8.28.63A13.2,13.2,0,0,0,159,24a2.19,2.19,0,0,0,2.3-2.16C161.26,21,160.55,20.16,158.75,18.77Z"/><path class="cls-1" d="M217.73,24.9l-.09,0-.1,0a50.62,50.62,0,0,1-10.11,2.16c-4.25.5-20.26,1.47-25.17,1.47s-7-.52-7.87-2c-.32-.51-.54-.81-1-.81s-1.33.28-1.33,2.16a6.35,6.35,0,0,0,2.43,5.47,11.81,11.81,0,0,0,5.75,2.2,2.69,2.69,0,0,0,1-.22c4.76-1.9,14.34-2.78,30.14-2.78,2.39,0,4.27.06,5.59.19h.15c2.72.25,4.68.44,5.26.44,2.21,0,3.64-1,3.64-2.49C226.09,28,223.28,26,217.73,24.9Z"/><path class="cls-1" d="M275.32,1.41c-1.16,0-3.13.25-3.13,1.2a1,1,0,0,0,.73.82,9,9,0,0,1,5.34,4c1,1.74,1.44,2.17,2.63,2.17a3.16,3.16,0,0,0,3.19-2.87C284.08,4,279.82,1.41,275.32,1.41Z"/><path class="cls-1" d="M267.64,6.14c-1.32,0-3.06.12-3.06,1.15a.88.88,0,0,0,.7.8,9.42,9.42,0,0,1,5.36,4.12c.88,1.56,1.29,2.11,2.5,2.11a3,3,0,0,0,3.19-2.81C276.33,8.65,272.27,6.14,267.64,6.14Z"/><path class="cls-1" d="M268.05,42.88H268l-.1.05c-3.67,1.83-7,2.52-12.37,2.52-6.43,0-7.82-1.55-7.82-8.72,0-1.22,0-1.75.18-4.95,7-1.86,9.91-2.93,19-6.92,4.1-1.77,5.21-2.42,5.21-3.61a3.19,3.19,0,0,0-.93-2A21.47,21.47,0,0,0,267,15.78a12.19,12.19,0,0,0-4-.87c-1,0-1.27.45-1.27.82a1.61,1.61,0,0,0,.38.85,1.8,1.8,0,0,1,.45,1.27c0,1.15-1,2.67-2.54,3.86A75.75,75.75,0,0,1,247.94,29a106.12,106.12,0,0,1,1.12-13.34,10.05,10.05,0,0,0,.33-2.25c0-1.31-.58-2.17-2.16-3.2a10.75,10.75,0,0,0-4.93-1.78c-1.32,0-4.41.72-4.41,1.72a.77.77,0,0,0,.56.67c3,1.14,3.47,2.36,3.47,8.16,0,.88,0,2.23-.06,4l-.13,10.62c0,7.77.5,10.48,2.44,13.15,2.63,3.56,6.19,4.7,14.64,4.7A54.19,54.19,0,0,0,272,50.07c2.6-.78,3.15-2.12,3.15-3.11C275.18,45.06,271.85,43.15,268.05,42.88Z"/><path class="cls-1" d="M334.2,39.8a3.48,3.48,0,0,0-1,.22,22.87,22.87,0,0,1-7.09,1.45c-.21,0-.59.07-1.09.11l-2.1.22C324,37,324.55,34.53,326,29.64c1.3-1.11,1.65-1.51,1.65-2.13,0-.78-.51-1.24-2.53-2.68l-.53-.37c-2.42-1.71-2.47-1.74-2.94-1.74a2.35,2.35,0,0,0-1.34.56,17.81,17.81,0,0,1-3.68,1.56,61.6,61.6,0,0,1-10.09,1.85,3.14,3.14,0,0,1-2.49-1c-.47-.81-.56-1-1-1-.76,0-1.14.62-1.14,1.85a4.55,4.55,0,0,0,2.2,4.27,4.15,4.15,0,0,0,2.46.9c.92,0,1.92-.36,4.76-1.5,3.29-1.4,5.9-2.21,7.15-2.21.43,0,.71.43.71,1.1a114.51,114.51,0,0,1-1.68,13.22c-.65.06-1.3.14-1.95.21l-1.88.21c-.34,0-2.06.2-5.33.58l-3.23.38c-4.71.51-4.71.51-5.33.51-2,0-3.64-.54-3.84-.9s-.3-.51-.64-.51c-.72,0-1.14,1.17-1.14,2.3,0,.89.57,1.5,1.89,2.55a8.82,8.82,0,0,0,4.24,1.79c.91,0,1.56-.22,3.67-1.12A17.85,17.85,0,0,1,308.22,47a104.25,104.25,0,0,1,15.67-1.53,68,68,0,0,1,11.63,1,11.72,11.72,0,0,0,1.94.33,2.07,2.07,0,0,0,2.3-1.79C339.76,43.33,336,39.8,334.2,39.8Z"/><path class="cls-1" d="M363.16,21.51c2.43,1.19,4.82,4.82,5.81,8.84C369.4,32,370,33,371.38,33A3.79,3.79,0,0,0,375,29.11c0-4.48-5.85-9.21-11.38-9.21-.8,0-1.08.41-1.08.76A.9.9,0,0,0,363.16,21.51Z"/><path class="cls-1" d="M387,20.64a6.82,6.82,0,0,0-4.87-2.21c-.81,0-1.39.43-1.39,1,0,.29.05.34.77,1a4,4,0,0,1,.7,2.47c0,4.94-3.39,12.32-8.43,18.38C369,47,362,52.44,356.33,54.81c-1.69.68-1.83.73-1.83,1.31a1,1,0,0,0,1,.88c2.47,0,9.35-2.66,13.38-5.17h0c8.69-5.49,15.65-14,20.09-24.56,1.07-1.13,1.26-1.34,1.26-1.93C390.25,24.34,388.54,22.06,387,20.64Z"/><path class="cls-1" d="M359,35.63a2.11,2.11,0,0,0,2.08,1.66c1.86,0,3.32-1.74,3.32-4,0-4.25-5-8-10.74-8-.33,0-1.21,0-1.21.76,0,.48.32.71.87,1.08C355.64,28.75,357.87,32.06,359,35.63Z"/><path class="cls-1" d="M444,13.32c-3.71-2.61-4.77-3.21-5.65-3.21-.7,0-1.11.19-2.37,1-2.36,1.36-3.48,1.8-7.49,2.51a149.37,149.37,0,0,1-16.32,2c-2.11,0-3.85-.65-4.57-1.71-.28-.36-.49-.59-.8-.59-.53,0-.89.51-.89,1.27a6.42,6.42,0,0,0,2.31,5.41,8.94,8.94,0,0,0,4.15,1.94,2.87,2.87,0,0,0,1.22-.44,26.6,26.6,0,0,1,7.57-2.64,79.44,79.44,0,0,1,12.52-2.17c1.55,0,1.67.45,1.67,1a19.1,19.1,0,0,1-1.2,4.75c-1.81,5.63-4.2,9.71-8.82,15-6.2,7.16-12.4,11.44-20.7,14.29-.27.09-.83.27-.83.86a.91.91,0,0,0,1,.83c3.12,0,11.36-3,16.64-6.07h0c9.53-5.56,15.89-13.86,21.94-28.62,2.39-1.62,3-2.23,3-2.93S444.54,13.69,444,13.32Z"/><path class="cls-1" d="M500.28,41.53a2.16,2.16,0,0,0-.69.08c-2.75.88-3.44,1-13.64,2.06.18-7,.48-9.78,1.29-12.41a2.31,2.31,0,0,0,.3-1c0-.58-.76-1.27-1.62-1.89,1.7-.11,3.27-.17,5.08-.17.89,0,.89,0,4.19.13l.8.07h.64a1.87,1.87,0,0,0,1.91-1.79c0-.82-.53-1.61-1.68-2.47a8.33,8.33,0,0,0-4.13-1.93,4.65,4.65,0,0,0-1.88.61c-2.57,1.15-5.64,1.83-10.25,2.27-7.66.76-7.66.76-8.86.76a5.48,5.48,0,0,1-3.23-.81c-.56-.71-.62-.79-.93-.79-.82,0-.82,1-.82,1.28,0,2.57,2.23,5.3,4.34,5.3a1.83,1.83,0,0,0,.47-.09l.24-.07a10.86,10.86,0,0,1,2.94-.94A28.16,28.16,0,0,1,479.1,29c1.14,0,1.41.26,1.41,7.24a73.43,73.43,0,0,1-.28,7.9l-6.34.55c-6.71.39-6.71.39-8,.39-2.08,0-3.57-.35-4-.88a.79.79,0,0,0-.72-.53c-.62,0-1,.83-1,2.17,0,1.06.62,1.88,2.15,2.81,3,1.94,3,2,4.17,2a7.23,7.23,0,0,0,2.56-.54c5.63-2.05,12.05-2.92,21.44-2.92a55.77,55.77,0,0,1,11.5,1.14,14.65,14.65,0,0,0,2.77.46,2.25,2.25,0,0,0,2.23-2.1C507.05,44.77,502.81,41.53,500.28,41.53Z"/></g></g></svg>