<svg xmlns="http://www.w3.org/2000/svg" viewBox="0 0 505.21 124.42"><defs><style>.cls-1{fill:#343434;}</style></defs><g id="Layer_2" data-name="Layer 2"><g id="Layer_1-2" data-name="Layer 1"><path class="cls-1" d="M128,26.2c.06.28.08.37.17.81a15.26,15.26,0,0,0,.57,2.68,2,2,0,0,0,2,1.45c1.54,0,2.71-1.46,2.71-3.39,0-2.34-2.07-5-5.28-6.83a16.23,16.23,0,0,0-2.75-1.26.4.4,0,0,0-.42.42.84.84,0,0,0,.23.5,10,10,0,0,1,2.11,3.48c-1.29.11-3.5.27-6.57.47h-.45c.28-.35.57-.67,1.53-1.74l.19-.22a17.5,17.5,0,0,0,1.38-1.46l.73-.82c.38-.45.84-.93,1.32-1.44l.69-.73,2.07-2.19,2.2-2.46,1.11-.32c.86-.27,1.29-.69,1.29-1.25s-.3-1-1-1.49L127.3,7.32l-.12.28A109.41,109.41,0,0,1,118.35,24l-.32.51-2.35.11c-1.77.06-2.58.09-5.12.22h-1.31l2.49,4.74c.39.67.62,1,1.22,1s1-.34,1.4-1l.23-.46.5-.14,2.18-.45c1-.22,1.8-.4,2.28-.53V51.1c0,.65.34,1,1,1a13.35,13.35,0,0,0,2.48-.4c1.09-.33,1.58-.64,1.58-1.64V27c.31-.06.67-.14,1.19-.27Z"/><path class="cls-1" d="M131.53,22.43a.54.54,0,0,0,.53.59c.47,0,.71-.28,1.42-1.1a45.25,45.25,0,0,0,5.23-7.37l.16-.27h15.68c0,.62,0,1.17,0,1.67,0,1.31.07,2.34.07,3.62a147.28,147.28,0,0,1-.73,17.5c-.77,5.33-2.3,7.51-5.29,7.51a59.22,59.22,0,0,1-6-.56,9.62,9.62,0,0,0-1.39-.22c-.38,0-.58.23-.58.47s.42.65,1.31,1.06c3.85,1.9,5.65,2.84,5.53,3.24v.09c.11,1.6.12,1.63.37,2a1.45,1.45,0,0,0,1.39.68,8.52,8.52,0,0,0,4.86-2A14.51,14.51,0,0,0,158.62,41c1-4.68,1.24-9.75,1.3-23.57v-.74l.55-.25c.77-.26,1.13-.69,1.13-1.36a2.12,2.12,0,0,0-.86-1.63l-4.47-4.66L154,12.27H140.09a69,69,0,0,0,3.09-6.6l1-.3a1.52,1.52,0,0,0,1.25-1.31c0-.73-.61-1.19-1.6-1.68L138.75,0l-.05.33a68.56,68.56,0,0,1-6.19,19.86C131.53,22.15,131.53,22.15,131.53,22.43Z"/><path class="cls-1" d="M143.82,34.78a3.28,3.28,0,0,0,3.27-3.5c0-2.92-2.28-5.84-6-7.62a18.22,18.22,0,0,0-5.71-1.59.58.58,0,0,0-.64.58c0,.24.18.41.5.66,2.76,1.79,4.73,4.77,5.84,8.88C141.7,34,142.51,34.78,143.82,34.78Z"/><path class="cls-1" d="M117.5,32.27l-4.56-1v.31a62.68,62.68,0,0,1-2.4,16.5,12.69,12.69,0,0,0-.63,2.48.58.58,0,0,0,.59.64c.51,0,1.09-.63,3-4.21a48.39,48.39,0,0,0,4.15-11.63l.75-.55a1.25,1.25,0,0,0,.67-1C119.09,33,118.56,32.53,117.5,32.27Z"/><path class="cls-1" d="M133.15,41c0-2.42-1.27-4.79-4-7.46h0c-.49-.44-2.12-1.86-2.86-1.86a.48.48,0,0,0-.53.53A1.34,1.34,0,0,0,126,33a21.1,21.1,0,0,1,1.94,7c.45,3.67.86,4.81,2.55,4.81S133.15,43.28,133.15,41Z"/><path class="cls-1" d="M110.8,10c1.93,1.45,2.87,3,3.6,6.08.5,2,1.1,3.21,2.6,3.21a3,3,0,0,0,2.88-3.05,6.26,6.26,0,0,0-1.5-3.79l2.05-2.2c2.24-2.44,3.75-4.08,4.09-4.37l.86-.33a1.55,1.55,0,0,0,1.16-1.35,1.6,1.6,0,0,0-1-1.34L120.82.28l-.09.3a95.88,95.88,0,0,1-3.83,10.5,14.52,14.52,0,0,0-6-2.23.51.51,0,0,0-.53.48A1,1,0,0,0,110.8,10Z"/><path class="cls-1" d="M214.52,33.46c0-7.38-4.84-12.74-11.51-12.74-3.67,0-6.58,1.58-9.1,5V24.56a33.72,33.72,0,0,1,1.83-11.27c1.82-4.25,4.88-6.68,8.39-6.68a7.44,7.44,0,0,1,4.69,1.59,3.31,3.31,0,0,0-3,3.42,3.86,3.86,0,0,0,3.84,3.67,4,4,0,0,0,3.94-4.12c0-3.75-4.44-6.69-10.1-6.69-9.25,0-16.21,9.43-16.21,21.93,0,6.7,1.67,12.79,4.48,16.28a12.57,12.57,0,0,0,9.77,4.91C208.82,47.6,214.52,41.39,214.52,33.46Zm-13.69-9.83a6.82,6.82,0,0,1,4.89,2.48A13.31,13.31,0,0,1,207.8,34c0,7-2.43,11.28-6.36,11.28A6,6,0,0,1,196.23,42a23,23,0,0,1-2.1-10.19c0-2.41.27-3.43,1.3-5A6.74,6.74,0,0,1,200.83,23.63Z"/><path class="cls-1" d="M268.28,26.07a28.76,28.76,0,0,0-3.51-14.69c-2.61-4.49-6.13-6.67-10.74-6.67s-8.29,2.27-11,7c-2.21,3.81-3.33,8.79-3.33,14.8,0,13,5.7,21.76,14.19,21.76,5,0,8.67-2.37,11.2-7.25A32.46,32.46,0,0,0,268.28,26.07ZM254,46.2c-2.29,0-4-1.45-5.26-4.44s-2.16-9.28-2.16-15.3c0-5.12.84-11.37,1.95-14.53h0c1.25-3.66,2.87-5.15,5.58-5.15,2.35,0,4,1.47,5.2,4.65,1.33,3.49,2,8.2,2,14C261.28,39.22,258.82,46.2,254,46.2Z"/><path class="cls-1" d="M333.57,49.09a1.33,1.33,0,0,0-.37-.93l-5.34-4.41-3.56,4.19h-6.85V42.22H331a.84.84,0,0,0,.7-.92,1.21,1.21,0,0,0-.43-.86l-4.76-4,.64-.2c1.05-.31,1.35-.69,1.35-1.7V25l.46-.16a1.32,1.32,0,0,0,.89-1.19,1.85,1.85,0,0,0-.52-1.18l-4.25-4.6-1.89,2.9h-5.77V16.3h14.92c.37,0,.64-.39.64-.93a1.13,1.13,0,0,0-.48-.92l-5.06-4.19-3.28,4h-6.74V8.35c3.1-.66,4.78-1,7.7-1.8h2.24a1.08,1.08,0,0,0,1-1,1.73,1.73,0,0,0-.65-1.2L323.56.8l-.15.07a102.13,102.13,0,0,1-21.61,8c-2.25.51-2.77.69-2.77,1.31,0,.37.17.81,1,.81,1.38,0,6.27-.65,12.24-1.63v4.88h-2.66c-2.46,0-4.63-.06-9.68-.28l-.47,0L301,16.53h.14c4.16-.17,5.73-.22,8.45-.22h2.66v4.48h-5.79l-4.79-2.52V37.49c0,.6.12,1.15,1,1.15,2.08,0,3.77-.82,3.77-1.82V35.11h5.83v5.1H309c-.76,0-2.34,0-4.13-.05l-6-.24,1.2,2.53h.17c4.32-.17,6-.23,8.72-.23h3.28v5.72h-6.3c-2.17,0-4.25-.06-9.68-.28l-.47,0,1.56,2.54h.14l5.13-.14c1.09,0,2-.06,3.32-.09h27C333.28,50,333.57,49.48,333.57,49.09ZM317.45,26.88V22.79h6.05v4.09Zm0,6.22V28.9h6.05v4.2Zm5.95,7.11h-5.95v-5.1h6.05v.65c0,.68.38,1,1.14,1a7.57,7.57,0,0,0,1.72-.26ZM312.24,22.79v4.09h-5.83V22.79Zm0,6.11v4.2h-5.83V28.9Z"/><path class="cls-1" d="M282.71,19.27c2.48-.08,3.71-.12,5.2-.12h.44a54,54,0,0,1-7.48,20.67c-.72,1-.77,1.17-.77,1.48a.71.71,0,0,0,.7.76c1.31,0,4.79-4.63,7.64-9.18V51.16c0,.88.15,1.26,1,1.26a10.73,10.73,0,0,0,3.06-.7c.79-.34,1.22-.67,1.22-1.46v-23a11,11,0,0,1,1.91,4.78c.27,1.55.65,2.33,2,2.33a2.85,2.85,0,0,0,2.83-3.16c0-1.55-.86-2.87-2.68-4.12-1-.73-1.69-1-4-1.77V19.15h6.86a.89.89,0,0,0,.75-1,1.16,1.16,0,0,0-.35-.84l-4-4-2.55,3.78h-.74V8c2.17-.62,2.75-.79,4.66-1.39l1.64-.06a1,1,0,0,0,.87-1,1.7,1.7,0,0,0-.48-1.14L296.6.88l-.16.13a57.49,57.49,0,0,1-13.06,7.14c-2.61,1.18-2.61,1.18-2.61,1.74s.41.75,1,.75a56.46,56.46,0,0,0,6.69-1.28v7.78h-.53c-1.54,0-2.93-.05-7.5-.22l-.42,0,1.21,2.42Z"/><path class="cls-1" d="M373.59,7.84C360.25,7.84,349,18.45,349,31a14.68,14.68,0,0,0,2.79,9.16c1.38,1.9,3.36,3.18,4.91,3.18,3.15,0,8.08-4,11.46-9.24a36,36,0,0,0,5.64-18.33,21.46,21.46,0,0,0-.66-5.55c.44,0,.72,0,.86,0a13.3,13.3,0,0,1,5.66,1.32c4.81,2.43,7.25,7.43,7.25,14.84,0,6.82-2.25,11.83-7.07,15.76a29.89,29.89,0,0,1-9.95,5.17c-.92.29-1.24.39-1.24.85,0,.29.22.59.81.59a24.79,24.79,0,0,0,3.64-.68,34.86,34.86,0,0,0,10.43-3.83A20.83,20.83,0,0,0,394,26.07a17.3,17.3,0,0,0-4.49-12C385.88,10.18,379.93,7.84,373.59,7.84Zm-16.07,29c-1.57,0-3-2.84-3-6a21.69,21.69,0,0,1,6.53-15.45h0c2.5-2.34,4.67-3.55,8.83-4.9l.05.15a12.93,12.93,0,0,1,.33,3.06c0,4.91-2.12,11.11-5.68,16.61C362.31,33.94,359.14,36.85,357.52,36.85Z"/><path class="cls-1" d="M46.92,80.21l-2.46,3.27H33.68l-5.75-3.14v40.3A1.25,1.25,0,0,0,29.19,122a23.42,23.42,0,0,0,2.36-.46c1.33-.39,1.81-.7,1.81-1.7v-6.24H44.84v3.44c0,1.06.46,1.6,1.37,1.6a18.05,18.05,0,0,0,3.28-.58,1.28,1.28,0,0,0,.95-1.46V88.5l.45-.16a1.78,1.78,0,0,0,1.23-1.53,3.44,3.44,0,0,0-.79-1.73ZM44.84,85.5v26.1H33.36V85.5Z"/><path class="cls-1" d="M22.44,86.33l-3.18,4.21H15.94v-9.8c2.23-.47,3.58-.84,6.56-1.74l1.93.06h.07a1.06,1.06,0,0,0,.82-.24.68.68,0,0,0,.25-.51A1.72,1.72,0,0,0,25,77.23l-4-4.12-.17.1A87.16,87.16,0,0,1,2.68,81.76C1.37,82.2,1,82.35,1,82.89a.71.71,0,0,0,.76.65,9.45,9.45,0,0,0,1.11-.12c.3-.06,1.26-.23,2.67-.45,1-.12,1.69-.25,3.4-.55l1.64-.29v8.41H8c-.63,0-1.95,0-3.46-.06L0,90.3l1.5,2.42,1.17,0c2.41-.08,3.62-.13,5.29-.13h2.55a46.07,46.07,0,0,1-9.63,20C.21,113.43,0,113.73,0,114a.59.59,0,0,0,.59.64c.47,0,1-.37,2.91-2.19a47.47,47.47,0,0,0,7-7.72V123c0,1,.43,1.43,1.31,1.43A12.31,12.31,0,0,0,14.7,124a1.49,1.49,0,0,0,1.24-1.52v-22a10.88,10.88,0,0,1,3.1,5.06c.65,2.18,1.36,2.92,2.81,2.92s2.55-1.15,2.55-2.94c0-3.45-2.77-5.75-8.46-7v-6H26.05a1.12,1.12,0,0,0,1.2-1,2.15,2.15,0,0,0-.8-1.41Z"/><path class="cls-1" d="M89.14,82c.53,2.46,1.38,3.56,2.77,3.56,1.77,0,3.22-1.72,3.22-3.83,0-3.53-2.38-6.34-6.88-8.13a17.11,17.11,0,0,0-3.12-.91.61.61,0,0,0-.64.58.9.9,0,0,0,.37.64C87.39,76,88.31,77.73,89.14,82Z"/><path class="cls-1" d="M69.94,74.88a9.72,9.72,0,0,1,3.92,5.51c1,3.28,1.42,4,3.1,4A3.16,3.16,0,0,0,80.17,81c0-3.34-2.6-5.82-7.14-6.8h0a17.3,17.3,0,0,0-2.68-.39c-.56,0-.76.27-.76.53A.68.68,0,0,0,69.94,74.88Z"/><path class="cls-1" d="M66.23,88a7.76,7.76,0,0,1,3.2,4.65c.45,2.86.46,2.92.92,3.55a2.15,2.15,0,0,0,1.9,1.09,3.56,3.56,0,0,0,3.22-3.67c0-2.54-2.06-4.84-5.38-6a16.81,16.81,0,0,0-3.55-.8.65.65,0,0,0-.7.64C65.84,87.68,66,87.81,66.23,88Z"/><path class="cls-1" d="M118.27,108.57,113,104.22l-3.78,4.3h-8.82V99.05h13.69a1,1,0,0,0,1-1,2,2,0,0,0-.59-1.26L110,93.13,106.74,97h-6.35V88.35h15.88c.48,0,.86-.54.86-1.2a1.53,1.53,0,0,0-.54-1.2L111.87,82l-3.67,4.3H102c.75-.89,1.37-1.65,1.56-1.89l1-1.21c.84-1,1.63-2,2.45-3.06.49-.71,1-1.37,1.58-2l1.38-.77a1.27,1.27,0,0,0,.67-1,1.81,1.81,0,0,0-1-1.45L104,72.1l-.06.34a61.13,61.13,0,0,1-4.66,13.9h-16l1.9-5.44a1.82,1.82,0,0,0,.13-.58.82.82,0,0,0-.76-.87,1.09,1.09,0,0,0-.95.82l-13,27.49-.31-.05-.19,0-2-.17c-1-.06-1-.06-1.3-.06-.86,0-.92.54-.92.7,0,.52.51.72,1.12.91,2.38.81,3.3,2.06,3.3,4.47a8,8,0,0,1-.11,1.52c-.78,4.28-.78,4.28-.78,5,0,2.23,1.32,3.67,3.38,3.67s3.5-1.54,3.5-3.84a6.76,6.76,0,0,0-.35-2.14c-1.24-4.23-1.27-4.39-1.27-5.64a5,5,0,0,1,.31-1.53l.28-.67,7.4-21.52H94.79V97H89.72c-1.65,0-3.36-.07-7.49-.23l-.45,0,1.36,2.43,3.57-.12c1.28,0,2.41,0,3,0h5.07v9.47H86.14c-2.7,0-4.69-.06-9.68-.28l-.44,0,1.41,2.54,4.69-.18c1.56,0,3,0,4,0h8.65v12.68c0,.39.17,1,1.32,1a9.79,9.79,0,0,0,3.18-.64c.76-.35,1.1-.64,1.1-1.4V110.53H118c.39,0,.7-.47.7-1A1.14,1.14,0,0,0,118.27,108.57Z"/><path class="cls-1" d="M177.51,89.38l-3.73,4H159.3v-12c3.19-.32,4.44-.51,10.72-1.48l5.84-.9,2.83-.11c.56-.08.94-.43.94-.87a1.55,1.55,0,0,0-.53-1l-4.67-4.15-.16.09A65.89,65.89,0,0,1,159,79.55l-5.67-2.78,0,.43c.37,5.37.51,9.47.51,14.6,0,8.6-.44,13.37-1.62,17.57a24.34,24.34,0,0,1-7.81,12.25c-.71.6-.93.85-.93,1.2a.52.52,0,0,0,.58.53c.48,0,.79-.2,2-.93a26.15,26.15,0,0,0,9-8.54c2.87-4.49,3.72-8.31,4.12-18.47h6.62v27.41c0,.83.35,1.15,1.26,1.15,1.86,0,4.11-.79,4.11-1.76V95.41H181.9a.92.92,0,0,0,.87-.92,1.38,1.38,0,0,0-.43-.92Z"/><path class="cls-1" d="M143.68,101.18c.46-.27.83-.46,1-.53,2.92-1.46,2.92-1.46,3.2-1.63l1.3-.68c1-.52,2.22-1.16,2.73-1.45.87-.49,1.25-.72,1.25-1.17a.62.62,0,0,0-.64-.59c-.31,0-1.05.22-5.67,1.64l-2.86.84-.29.1V88.35h8.48a.91.91,0,0,0,.76-.92,1,1,0,0,0-.42-.8l-4.29-3.93-2.89,3.64h-1.64V75.52l.95-.71a1.47,1.47,0,0,0,.67-1.16,1.29,1.29,0,0,0-1.23-1.2l-5.76-.59V86.34h-1c-2.24,0-3.66,0-7.49-.22l-.45,0,1.47,2.59,1.69-.06c2-.07,3.05-.11,4.78-.11h1V99.17l-.34.09a76.47,76.47,0,0,1-8.2,2.09l-.33.07,2.86,5.36a1.44,1.44,0,0,0,1.22.67,1.3,1.3,0,0,0,1.24-.84l.52-1.46c1.37-.59,1.68-.74,3-1.41v13.15c0,.44-.15.81-1.88.81-1,0-3.66-.12-4.66-.16a2.78,2.78,0,0,0-.61-.06c-.63,0-.69.37-.69.53,0,.38,0,.38,1.83,1.18l2.36,1a12.24,12.24,0,0,1,1.33.56c.33.13.33.13.41.52.22,2.09.32,2.63,1.37,2.63a8.36,8.36,0,0,0,3-.92c2-1,2.94-2.11,2.94-3.58Z"/><path class="cls-1" d="M247.25,118.07l-.09,0c-.66-.22-1.35-.45-2.07-.62a35.54,35.54,0,0,1-5.93-2.16l-.14-.06c-3.81-1.94-5.54-3-7.36-4.71,2.08-1.11,2.83-1.49,3.43-1.79,1.07-.5,2.14-1,3.15-1.51s1.74-.9,2.54-1.33c.12,0,.34-.15.69-.31l.65-.3L244,105c.88-.06,1.4-.51,1.4-1.2a2.46,2.46,0,0,0-.92-1.64l-3.95-3.65-.16.21c-.63.78-1.25,1.52-1.87,2.23a2.46,2.46,0,0,0,0-.28V91.42l.65-.22c.77-.19,1.25-.67,1.25-1.25a2.22,2.22,0,0,0-.94-1.6l-4.8-3.74-2.26,3.24H224v-5h22.48c1.24,0,1.43-.68,1.43-1.09a1.67,1.67,0,0,0-.71-1.31L241.73,76l-4.17,4.86H224V76.26l1.16-.65a2,2,0,0,0,1.19-1.51c0-.66-.89-1.3-1.9-1.37l-5.6-.59v8.71H206.82l-5.53-.11-6-.24,1.75,2.65h.13c1.93,0,3.86-.11,4.48-.16l2.24-.06c1.31,0,2.28-.06,2.91-.06h12.07v5h-7.76l-6.41-2.76v17.85c0,.87.39,1.26,1.26,1.26a9.51,9.51,0,0,0,2.86-.54,1.37,1.37,0,0,0,.86-1.33v-1.94h5.44a56.94,56.94,0,0,1-18.62,14.93c-.78.36-1.21.65-1.21,1.12a.68.68,0,0,0,.76.7c.66,0,2-.45,4.79-1.53A48.1,48.1,0,0,0,211.44,110v7l-1.08.08c-.69.05-1.19.09-1.42.12l-3.35.11-1,0-1,.07-.43,0,3.76,5.85c.49.8.9,1.07,1.61,1.07.88,0,1.05-.23,1.63-1.49l.28-.62c1.21-.31,4.11-1.15,8.64-2.5l3.75-1.17c6.63-2.08,6.89-2.16,6.89-2.87a.93.93,0,0,0-1-.93c-.33,0-1.7.2-4,.57l-2.51.36c-1.32.2-2.2.33-2.64.36-1.21.2-1.42.22-2.85.41l-.5.06V106.42a39.75,39.75,0,0,0,6-5.57A37.59,37.59,0,0,0,242.55,124l.23.11.11-.23a9.77,9.77,0,0,1,5.9-4.85l.68-.25-.68-.23C248.31,118.39,247.78,118.23,247.25,118.07ZM218.89,89.86v8.52H209.7V89.86ZM224,98.38V89.86h9.47v8.52Zm6.09,10.6a31.57,31.57,0,0,1-6.16-8.59h9.54v1.54c0,.37.14,1,1.09,1a8.26,8.26,0,0,0,2.58-.55A78,78,0,0,1,230.13,109Z"/><path class="cls-1" d="M295.13,96a66.19,66.19,0,0,0,4.43-8.17c.73-1.53.83-1.64,1.32-2s.89-.73.89-1.26c0-1-1.92-3.21-3.63-4.51a10.41,10.41,0,0,0-4.91-2.24c-.47,0-1,.38-1,.81,0,.16.11.26.28.43a4.71,4.71,0,0,1,1.46,3.72c0,2.3-1.16,5.9-3.27,10.17-4.21-2.49-9.24-4.1-12.89-4.1-.71,0-1.2.31-1.2.76s.56.77,1.4,1c3.57,1.19,6.24,2.89,10.16,6.46-6.52,8.8-14.19,15.8-21.61,19.73-1.5.75-1.82,1-1.82,1.4a.74.74,0,0,0,.7.76c1.35,0,7.93-2.77,11-4.52,5.76-3.3,10.12-7.18,15.52-13.79a34.52,34.52,0,0,1,4.08,5.26c1.27,1.88,1.75,2.35,2.9,2.35A3.1,3.1,0,0,0,302,105C302,102.34,299.87,99.55,295.13,96Z"/><path class="cls-1" d="M344.47,92.33c1.54,0,2.41-.12,7.77-1.07,2.38-.45,3.69-.64,6.08-1l2-.3c3-.44,4-.78,4-1.92,0-1.66-2.6-3.26-6-3.72h-.08l-.07,0c-2.95,1.62-2.95,1.62-4.27,2A56.78,56.78,0,0,1,344,87.8a10.8,10.8,0,0,1-4.52-1.14l-.22-.14a.5.5,0,0,0-.83.35,5.23,5.23,0,0,0,1.05,2.21C341.08,91.48,342.38,92.33,344.47,92.33Z"/><path class="cls-1" d="M373.68,104.31c-2.59-1.86-3.75-2.51-4.46-2.51a5.47,5.47,0,0,0-1.61.41,23.25,23.25,0,0,1-8.61,2.16c-10.38,1.3-20.11,2.24-23.16,2.24s-5.23-.53-6-1.42c-.35-.4-.46-.54-.75-.54a.76.76,0,0,0-.76.76c0,2.88,3.62,6.85,6.25,6.85a7,7,0,0,0,2.32-.57c5.73-2.13,15.76-3.46,26.18-3.46a47.25,47.25,0,0,1,8.59.67l.39,0a15.74,15.74,0,0,0,1.88.18,1.71,1.71,0,0,0,1.93-1.65C375.85,106.33,375.18,105.35,373.68,104.31Z"/><path class="cls-1" d="M431.88,107.4a2.92,2.92,0,0,0-.86.18,19.88,19.88,0,0,1-6.22,1.27c-.18,0-.51.06-.92.1l-2,.2c.94-4.28,1.45-6.43,2.75-10.77,1.13-1,1.44-1.31,1.44-1.82s-.44-1-2.18-2.28l-.48-.33c-2.09-1.48-2.13-1.51-2.52-1.51s-.53.1-1.13.48a15.49,15.49,0,0,1-3.25,1.38,53.29,53.29,0,0,1-8.84,1.62,2.83,2.83,0,0,1-2.25-.94c-.4-.69-.46-.8-.83-.8-.92,0-.92,1.16-.92,1.54a3.91,3.91,0,0,0,1.89,3.67,3.56,3.56,0,0,0,2.11.78c.79,0,1.66-.32,4.13-1.31a21.27,21.27,0,0,1,6.29-1.94c.42,0,.7.41.7,1a99.9,99.9,0,0,1-1.48,11.64l-1.78.19-1.64.18c-.29,0-1.78.18-4.6.51l-2.88.33c-4.13.45-4.13.45-4.67.45-1.81,0-3.24-.49-3.43-.83s-.24-.4-.49-.4c-.57,0-.93,1-.93,1.93,0,.74.5,1.26,1.62,2.16a7.71,7.71,0,0,0,3.67,1.56c.8,0,1.35-.2,3.18-1a15.69,15.69,0,0,1,3.76-1.16,90.63,90.63,0,0,1,13.73-1.34,59.06,59.06,0,0,1,10.19.89,10.23,10.23,0,0,0,1.68.28c1.08,0,1.93-.65,1.93-1.48C436.67,110.47,433.4,107.4,431.88,107.4Z"/><path class="cls-1" d="M498,94.35h-.06l-.06,0A44.55,44.55,0,0,1,489,96.25c-3.73.44-17.75,1.29-22,1.29s-6.16-.47-7-1.79c-.26-.42-.44-.67-.77-.67s-1.09.23-1.09,1.81a5.49,5.49,0,0,0,2.11,4.73,10.19,10.19,0,0,0,5,1.91,2.45,2.45,0,0,0,.88-.19c4.17-1.67,12.56-2.44,26.4-2.44,2.08,0,3.73,0,4.9.16h.11c2.39.23,4.11.39,4.62.39,1.88,0,3.1-.83,3.1-2.1C505.21,97,502.77,95.33,498,94.35Z"/></g></g></svg>