<svg xmlns="http://www.w3.org/2000/svg" width="938.746" height="59.06" viewBox="0 0 938.746 59.06">
  <defs>
    <style>
      .cls-1 {
        fill: #fff;
        fill-rule: evenodd;
      }
    </style>
  </defs>
  <path id="森のレストラン_MARCHERANT" data-name="森のレストラン MARCHERANT" class="cls-1" d="M874.416,1056.01h9.343a0.9,0.9,0,0,0,.96-0.9,1.444,1.444,0,0,0-.64-1.09l-4.543-3.77-3.2,4.03h-1.92v-5.25l1.344-.64a1.35,1.35,0,0,0,.96-1.22,1.382,1.382,0,0,0-1.28-1.34l-6.4-.64v9.09h-4.095c-0.512,0-1.6,0-3.2-.07-0.768-.06-2.944-0.12-5.312-0.19l1.344,2.18,4.032-.13c1.344-.06,2.432-0.06,3.136-0.06h3.647c-3.007,6.78-6.4,11.39-12.607,17.02-0.832.77-1.152,1.15-1.152,1.47a0.48,0.48,0,0,0,.448.45c0.384,0,1.664-.77,4.224-2.5a50.756,50.756,0,0,0,9.535-8v12.23c0,0.96.448,1.34,1.536,1.34a6.029,6.029,0,0,0,2.624-.64,1.663,1.663,0,0,0,1.216-1.79v-14.02a11.411,11.411,0,0,1,3.584,4.61c1.408,3.14,1.728,3.46,3.072,3.46a2.663,2.663,0,0,0,2.815-2.69c0-2.05-1.536-4.1-3.967-5.31a16.615,16.615,0,0,0-5.5-1.41v-4.22Zm31.87-32.13-4.1,4.86H888.3v-5.5l1.408-.83a1.716,1.716,0,0,0,.832-1.35,1.323,1.323,0,0,0-1.28-1.15l-6.592-.51v9.34h-9.855c-1.216,0-3.136-.06-5.375-0.12l-7.168-.2,1.472,2.37c5.44-.25,7.551-0.32,11.071-0.32h6.592a67.323,67.323,0,0,1-21.631,17.34,1.071,1.071,0,0,0-.832.84,0.493,0.493,0,0,0,.512.44c0.9,0,5.568-1.85,9.92-4.03,5.631-2.75,8.127-4.35,15.294-9.79v11.78a1.169,1.169,0,0,0,1.28,1.34,12.865,12.865,0,0,0,3.2-.64,1.274,1.274,0,0,0,1.152-1.41v-14.59c5.184,7.23,11.2,11.84,20.479,15.49,1.983-2.75,2.943-3.46,6.655-5.44-10.175-1.09-20.734-5.63-26.366-11.33h22.654a0.773,0.773,0,0,0,.832-0.83,1.213,1.213,0,0,0-.512-0.9Zm3.583,26.05-3.647,4.35h-4.48v-5.31l1.216-.77a1.36,1.36,0,0,0,.7-1.15,1.116,1.116,0,0,0-1.088-1.09l-6.272-.83v9.15h-1.855c-3.456-.07-5.888-0.13-8.512-0.26l0.96,2.18c4.1-.13,5.7-0.19,7.552-0.19h1.471c-3.007,6.2-7.615,11.71-14.207,17.02-1.983,1.6-2.047,1.66-2.047,2.05a0.434,0.434,0,0,0,.448.44c0.576,0,2.367-.89,5.311-2.68a55.473,55.473,0,0,0,10.879-8.52v12.8c0,0.96.32,1.35,1.152,1.35a10.068,10.068,0,0,0,3.136-.58,1.488,1.488,0,0,0,1.28-1.66v-16.45a36.515,36.515,0,0,0,9.343,14.08,12.538,12.538,0,0,1,5.312-5.18c-6.976-3.59-11.647-7.75-14.143-12.67H914.8a0.758,0.758,0,0,0,.832-0.77,1.454,1.454,0,0,0-.512-0.9ZM950.9,1030.6c0.7-.06,1.152-0.06,1.344-0.06a15.339,15.339,0,0,1,6.592,1.53c5.567,2.82,8.447,8.64,8.447,17.22,0,7.87-2.624,13.69-8.191,18.23a34.429,34.429,0,0,1-11.456,5.96c-1.024.32-1.216,0.38-1.216,0.7,0,0.26.256,0.38,0.64,0.38a27.986,27.986,0,0,0,4.1-.76,39.574,39.574,0,0,0,11.839-4.36,23.549,23.549,0,0,0,11.839-20.47,19.321,19.321,0,0,0-5.055-13.51c-4.1-4.41-10.815-7.04-17.983-7.04-14.975,0-27.838,12.1-27.838,26.18a16.567,16.567,0,0,0,3.136,10.3c1.536,2.11,3.712,3.52,5.375,3.52,3.52,0,9.088-4.54,12.864-10.43a41.182,41.182,0,0,0,6.4-20.8A24.443,24.443,0,0,0,950.9,1030.6Zm-3.136.26a3.54,3.54,0,0,0,.128.44,15.476,15.476,0,0,1,.384,3.59c0,5.69-2.432,12.8-6.527,19.13-2.688,4.23-6.336,7.55-8.32,7.55s-3.711-3.32-3.711-7.1a25.079,25.079,0,0,1,7.551-17.86C940.208,1033.86,942.768,1032.46,947.759,1030.86Zm51.97,24.89c0.064-8.38.771-15.17,1.661-16.58a2.663,2.663,0,0,0,.51-1.6c0-.83-0.83-1.85-3.067-3.51a8.573,8.573,0,0,0-4.8-2.05,20.324,20.324,0,0,0-3.84.77,0.728,0.728,0,0,0-.64.57c0,0.32.192,0.45,0.96,0.51,2.944,0.52,3.968,3.01,3.968,9.47,0,0.9,0,4.42.064,10.5v4.42a11.537,11.537,0,0,1-.7,4.92,3.341,3.341,0,0,0-.576,1.47c0,1.41,4.288,5.64,5.76,5.64a1.129,1.129,0,0,0,.9-0.58c0.829-1.28,2.559-2.56,5.5-4.1a76.139,76.139,0,0,0,12.55-8.31,63.314,63.314,0,0,0,15.29-16.77,36.5,36.5,0,0,0,2.88-5.44,0.679,0.679,0,0,0-.57-0.58,0.838,0.838,0,0,0-.64.52,82.513,82.513,0,0,1-14.34,14.59c-6.85,5.63-17.28,11.71-20.09,11.71-0.579,0-.771-0.19-0.771-0.83v-4.74Zm70.461-22.33c-6.72,1.4-7.55,1.53-9.4,1.53s-3.4-.57-3.91-1.41c-0.32-.57-0.32-0.57-0.57-0.57-0.32,0-.71,1.09-0.71,2.05a4.3,4.3,0,0,0,1.54,3,8.068,8.068,0,0,0,3.58,2.05,5.859,5.859,0,0,0,1.92-.64,85.229,85.229,0,0,1,11.33-4.03,7.4,7.4,0,0,1,2.56-.58,0.866,0.866,0,0,1,1.02.83c0,0.58-.45,1.8-1.53,4.42a63.981,63.981,0,0,1-7.62,13.44c-5.76,7.74-13.44,14.21-20.61,17.47-1.72.77-2.11,1.02-2.11,1.34a0.52,0.52,0,0,0,.58.45,13.84,13.84,0,0,0,3.13-.77,50.6,50.6,0,0,0,16.96-9.27c3.07-2.56,5.19-4.8,9.41-10.24a29.681,29.681,0,0,1,11.58,14.14c1.22,2.94,1.92,3.71,3.46,3.71a4.019,4.019,0,0,0,3.9-3.97c0-3.01-2.17-6.52-5.95-9.53a28.915,28.915,0,0,0-12.16-5.7,108.241,108.241,0,0,0,8.26-14.33c1.47-.9,2.05-1.41,2.05-1.99,0-.51-0.39-1.02-1.8-2.17-2.43-1.99-3.96-2.95-4.67-2.95-0.57,0-1.09.32-2.24,1.22a7.386,7.386,0,0,1-4.03,1.73Zm53.31,20.35-0.06-5.25-0.13-5.83a22.63,22.63,0,0,1,10.05,8.58c1.73,2.69,1.73,2.69,2.05,3.01a3.867,3.867,0,0,0,2.94,1.34,3.256,3.256,0,0,0,3.39-3.39c0-2.3-2.11-5.06-5.31-7.1-3.52-2.24-7.04-3.2-13.05-3.72a46.34,46.34,0,0,1,.89-10.43c0.83-1.92.9-2.04,0.9-2.49,0-.64-0.64-1.67-1.73-2.95-1.79-1.85-3.2-2.68-4.61-2.68-1.85,0-5.69,1.79-5.69,2.62a0.426,0.426,0,0,0,.51.45c3.07,0,3.71.83,4.03,4.8,0.13,1.79.45,14.2,0.45,18.49a161.018,161.018,0,0,1-.9,17.02,19.074,19.074,0,0,0-.64,3.59c0,2.37,2.82,6.4,4.55,6.4,1.6,0,2.88-2.5,2.88-5.76,0-.83-0.07-3.01-0.26-5.63-0.06-.77-0.13-2.88-0.13-5.12Zm38.85-24.58a0.41,0.41,0,0,0-.38.32,8.492,8.492,0,0,0,1.79,3.07,6.783,6.783,0,0,0,5.51,2.44,61.5,61.5,0,0,0,10.56-1.54c3.13-.64,5.11-0.96,7.87-1.28,1.53-.26,2.3-0.7,2.3-1.47,0-1.41-3.71-3.65-5.95-3.65a3.633,3.633,0,0,0-1.73.7,11.253,11.253,0,0,1-3.39,1.28,56.9,56.9,0,0,1-11.46,1.73c-2.04,0-3.84-.51-4.6-1.28A0.688,0.688,0,0,0,1162.35,1029.19Zm32.13,16.7a4.928,4.928,0,0,1,1.41-.83,2.058,2.058,0,0,0,.77-0.45,1.171,1.171,0,0,0,.25-0.7c0-.58,0-0.58-1.41-1.98-2.88-2.88-3.96-3.65-4.86-3.65-0.45,0-.77.13-2.5,0.89a15.771,15.771,0,0,1-4.92,1.54,165.21,165.21,0,0,1-19.84,2.62c-2.37,0-4.67-.89-5.38-2.11a0.761,0.761,0,0,0-.57-0.57c-0.39,0-.58.51-0.58,1.53,0,2.88,3.52,6.59,6.27,6.59,0.45,0,.45,0,2.5-0.96,3.13-1.53,15.93-4.35,19.64-4.35,1.35,0,2.12.39,2.12,1.15,0,0.64-.39,1.73-1.73,4.87-2.75,6.4-4.86,9.73-8.38,13.56-5,5.38-12.1,9.86-18.24,11.4-0.52.12-.71,0.32-0.71,0.57a0.578,0.578,0,0,0,.71.51,35.5,35.5,0,0,0,9.66-2.17,46.068,46.068,0,0,0,16.7-11.97C1188.46,1057.8,1190.77,1053.83,1194.48,1045.89Zm20.8-15.1c-2.3,0-3.9.32-3.9,0.83,0,0.2.19,0.32,0.7,0.45,3.27,0.96,7.81,5.18,9.35,8.58,0.89,1.92,1.47,2.43,2.75,2.43a3.534,3.534,0,0,0,3.52-3.39C1227.7,1035.27,1221.49,1030.79,1215.28,1030.79Zm41.09,0.19a1.724,1.724,0,0,0-.96.77c-3.91,5.18-13.18,14.14-21.57,20.74-6.97,5.5-12.93,8.64-16.38,8.64-1.47,0-3.33-.77-3.78-1.54-0.32-.64-0.38-0.64-0.57-0.64-0.51,0-.9,1.22-0.9,2.56,0,1.41.9,2.75,3.33,5.05,1.86,1.73,3.45,2.69,4.48,2.69a1.813,1.813,0,0,0,.89-0.38c0.45-.32.84-0.71,1.22-1.03a7.787,7.787,0,0,1,1.22-.83,96.105,96.105,0,0,0,27.26-24.76c2.69-3.65,6.21-9.79,6.21-10.82A0.553,0.553,0,0,0,1256.37,1030.98Zm22.85,42.11h16.19v-1.73h-1.02c-4.93.13-6.21-1.28-6.27-6.91v-35.26l17.34,43.9h1.41l17.08-43.9v35.9c0,4.74-1.4,6.27-5.69,6.27h-0.9v1.73h20.74v-1.73h-0.96c-4.74-.32-5.7-1.6-5.7-6.97v-29.57c0-5.44,1.6-7.23,6.27-7.1h0.83v-1.73h-15.35l-14.21,35.52-14.21-35.52h-15.61v1.73h1.15c4.8,0.13,5.69,1.34,5.57,7.49v29.31c-0.07,4.86-1.28,6.52-5,6.78l-1.66.06v1.73Zm62.08,0h16.45v-1.79h-0.64c-4.1,0-5.95-1.09-5.95-3.46a8.326,8.326,0,0,1,.7-3.2l2.56-6.65h17.85l2.24,6.4a12.986,12.986,0,0,1,1.03,4.22c0,1.79-1.54,2.69-4.67,2.69h-1.09v1.79h21.18v-1.79h-1.41c-2.69-.13-4.61-2.05-6.27-6.34l-15.55-40.82h-3.33l-15.16,41.21c-1.86,4.8-3.14,5.76-7.94,5.95v1.79Zm13.82-17.21,8.39-22.66,8,22.66h-16.39Zm38.6,17.21h22.46v-1.79h-1.6c-4.55-.19-5.95-1.6-5.95-6.02v-15.8h7.16l11.78,23.61h14.21v-1.79h-1.67a6.974,6.974,0,0,1-6.46-3.71l-10.05-18.37c4.23-.77,6.02-1.28,7.87-2.43a10.8,10.8,0,0,0,1.03-18.17c-3.01-2.18-5.7-2.69-13.83-2.69h-24.95v1.79h2.36c3.2,0.06,4.74,1.47,4.8,4.35v33.41c0,4.8-.96,5.76-5.95,5.82h-1.21v1.79Zm14.91-25.53v-14.27c0-3.97,1.79-5.31,6.97-5.31,8.19,0,12.55,3.45,12.55,9.85,0,6.85-4.42,9.73-15.04,9.73h-4.48Zm77.11,10.05a33.378,33.378,0,0,1-4.09,7.55,13.63,13.63,0,0,1-11.26,5.76c-9.67,0-15.23-7.56-15.23-20.61,0-13.44,6.01-22.72,14.71-22.72a13.765,13.765,0,0,1,9.99,4.8c2.37,2.63,3.52,5.31,4.73,10.56h2.24l-0.64-17.79h-1.72l-3.27,3.78c-4.73-3.08-7.68-4.04-12.35-4.04a21.505,21.505,0,0,0-15.93,6.66c-4.74,4.67-6.98,10.3-6.98,17.34,0,14.85,9.34,25.15,22.85,25.15,8.83,0,14.78-4.86,19-15.48Zm36.49-29.89h1.72c4.23,0.06,5.31,1.34,5.25,6.34v13.69h-22.97v-16c0.12-3.07,1.6-4.16,5.37-4.03h1.73v-1.73h-22.01v1.73h1.53c3.97,0,5.38,1.22,5.57,4.67v32.64c-0.06,4.99-.83,6.21-4.1,6.27h-3v1.79h21.82v-1.79h-1.47c-4.55-.13-5.51-1.02-5.44-5.31v-16.26h22.97v16.26c-0.13,3.97-1.6,5.37-5.57,5.31h-1.47v1.79h21.82v-1.79l-1.6-.06c-4.41-.13-5.24-0.9-5.37-4.93v-32.38c-0.13-4.99,1.09-6.27,6.08-6.21h1.02v-1.73h-21.88v1.73Zm25.09,45.37h39.8l1.73-17.47h-2.11c-2.88,11.33-7.49,15.49-17.15,15.49-2.88,0-4.87-.32-5.89-0.96s-1.35-1.73-1.35-4.67v-16h2.95c7.04,0.06,9.6,2.75,9.85,10.62h1.86v-22.97h-1.79c-0.71,8-3.07,10.43-9.92,10.36h-2.95v-14.97c0-3.39,1.67-4.67,6.15-4.67,6.08,0,10.75,1.41,13.25,4.03,2.17,2.18,3.32,4.8,4.6,10.3h1.92l-0.96-16.19h-39.93v1.6h0.9c4.16-.25,6.01,1.22,6.33,4.99v31.04c0,6.14-1.09,7.74-5.44,7.74h-1.85v1.73Zm45.69,0h22.46v-1.79h-1.6c-4.54-.19-5.95-1.6-5.95-6.02v-15.8h7.17l11.77,23.61h14.21v-1.79h-1.66a7,7,0,0,1-6.47-3.71l-10.04-18.37c4.22-.77,6.01-1.28,7.87-2.43a10.8,10.8,0,0,0,1.02-18.17c-3.01-2.18-5.69-2.69-13.82-2.69h-24.96v1.79h2.37c3.2,0.06,4.73,1.47,4.8,4.35v33.41c0,4.8-.96,5.76-5.95,5.82h-1.22v1.79Zm14.91-25.53v-14.27c0-3.97,1.79-5.31,6.98-5.31,8.19,0,12.54,3.45,12.54,9.85,0,6.85-4.42,9.73-15.04,9.73h-4.48Zm36.23,25.53h16.44v-1.79h-0.64c-4.09,0-5.95-1.09-5.95-3.46a8.177,8.177,0,0,1,.71-3.2l2.56-6.65h17.85l2.24,6.4a12.889,12.889,0,0,1,1.02,4.22c0,1.79-1.53,2.69-4.67,2.69h-1.09v1.79h21.19v-1.79h-1.41c-2.69-.13-4.61-2.05-6.27-6.34l-15.55-40.82h-3.33l-15.17,41.21c-1.85,4.8-3.13,5.76-7.93,5.95v1.79Zm13.82-17.21,8.38-22.66,8,22.66h-16.38Zm38.72,17.21h15.68v-1.79h-1.86c-3.39-.19-5.12-1.86-4.99-4.86v-31.81l30.85,39.68h1.47v-40.96c0.13-4.22,1.66-5.76,5.76-5.63h1.09v-1.73h-15.62v1.73h0.96c3.46-.19,5.63,1.66,5.76,4.93v28.92l-27.45-35.58h-11.78v1.73h1.41c4.03-.06,5.38,1.22,5.57,5.18v33.54c0.06,3.32-1.41,4.73-5.19,4.86h-1.66v1.79Zm51.52-29.76h1.98a39.727,39.727,0,0,1,2.88-9.02c2.12-4.22,5.38-6.4,9.6-6.4a5.47,5.47,0,0,1,3.59,1.03c0.7,0.7.89,1.72,0.89,4.48v30.71c-0.06,5.95-1.15,7.11-6.65,7.23h-1.48v1.73h23.75v-1.73h-1.47c-5.19.07-6.72-1.4-6.53-6.14v-30.33c0-4.48.06-4.87,0.96-5.76a4.808,4.808,0,0,1,3.71-1.22,9.157,9.157,0,0,1,8.06,4.1c1.41,1.92,2.31,4.41,4.1,11.32h1.98l-0.77-17.34h-43.64Z" transform="translate(-854.844 -1019.41)"/>
</svg>
