<svg xmlns="http://www.w3.org/2000/svg" viewBox="0 0 529.34 32.58"><defs><style>.cls-1{fill:#333;}</style></defs><title>how-to-title</title><g id="Layer_2" data-name="Layer 2"><g id="Layer_1-2" data-name="Layer 1"><path class="cls-1" d="M18.93,18.32a29.12,29.12,0,0,1-3.31,2.16c2,1.69,3.1,3.49,3.1,4.9a1.38,1.38,0,0,1-1.48,1.22c-.72,0-1-.29-1.62-1.66a15.77,15.77,0,0,0-7.09-7.19c-.22-.11-.32-.18-.32-.29a.35.35,0,0,1,.36-.29,15.87,15.87,0,0,1,3.06.94A17.57,17.57,0,0,1,15,19.91c3.56-2.85,7.24-6.77,7.24-7.71,0-.65-.83-.93-2.52-.93a64,64,0,0,0-9.62,1.26,42.6,42.6,0,0,0-6,1.76,2.27,2.27,0,0,1-.72.18A4.42,4.42,0,0,1,.86,13.25,3.9,3.9,0,0,1,0,10.76c0-.39.11-.68.29-.68s.14.07.21.21a2.94,2.94,0,0,0,2.7,1.34c1.66,0,5.11-.36,11.2-1.16s6.41-.75,7.74-1.15A4.65,4.65,0,0,1,23.58,9c.72,0,1.4.36,3.56,1.94.68.54,1,.9,1,1.37s-.25.72-1,.86a6.79,6.79,0,0,0-2.34,1.05c-.4.25-.47.29-2.12,1.51Z"/><path class="cls-1" d="M48.45,9.39c1.08.58,1.88,1.3,1.88,1.62,0,.15,0,.18-.33.44a3,3,0,0,0-.47,1.33,31.14,31.14,0,0,1-3.45,8.75c-1.94,3.2-6.23,7.37-7.6,7.37a.41.41,0,0,1-.43-.39c0-.15.11-.29.36-.43a19.27,19.27,0,0,0,5-5.94c1.91-3.28,3.42-8.1,3.42-10.87a2,2,0,0,0-1.19-1.95c-.18-.07-.25-.18-.25-.29s.22-.28.51-.28A6,6,0,0,1,48.45,9.39Zm5,6.09c0-3.17.07-4.83.07-4.9a4.2,4.2,0,0,0-.28-2.09,2,2,0,0,0-.72-.5c-.22,0-.29-.07-.29-.22s.72-.5,1.15-.5a4,4,0,0,1,2.3,1c.94.65,1.05.75,1.05,1s0,.18-.29.5a7.75,7.75,0,0,0-.65,2.88c-.11,1.34-.36,6.88-.36,8.1,0,.51.18.72.58.72,1.33,0,4.14-1.62,6.73-3.88a40.6,40.6,0,0,0,7.13-8.28c.21-.44.32-.54.46-.54a.5.5,0,0,1,.4.43A20.7,20.7,0,0,1,68,14a32.15,32.15,0,0,1-5.58,6.22,30.37,30.37,0,0,1-5,3.42,4.79,4.79,0,0,0-2.19,1.59.51.51,0,0,1-.22.11c-.57,0-2.27-2-2.27-2.63a1.58,1.58,0,0,1,.15-.43,3.91,3.91,0,0,0,.47-2.45Z"/><path class="cls-1" d="M85.14,13.57c1.37.9,2,1.73,2,2.81a1.52,1.52,0,0,1-1.44,1.47c-.58,0-.9-.25-1.22-.86a8.24,8.24,0,0,0-4.54-4c-.22-.07-.32-.14-.32-.25s.57-.36,1.29-.36A9,9,0,0,1,85.14,13.57Zm-.43,15a5,5,0,0,1-2.77-1.8,3.83,3.83,0,0,1-1-2.12,6.52,6.52,0,0,1,0-.76c0-.36.11-.54.32-.54s.18,0,.47.47a2.65,2.65,0,0,0,2.55,1.37c1.23,0,3.42-1,6.2-2.78a73.26,73.26,0,0,0,11-9.5,36,36,0,0,0,3.85-4.79c.29-.43.43-.57.57-.57s.26.21.26.4c0,.68-1.77,3.7-3.53,6A52.66,52.66,0,0,1,87.15,27.18c-1.18.68-1.69,1-1.76,1A.81.81,0,0,1,84.71,28.58Zm4.75-21.7c1.37.82,2,1.72,2,2.87a1.62,1.62,0,0,1-1.54,1.7c-.62,0-.83-.18-1.23-1a7.93,7.93,0,0,0-5.29-4.06c-.25,0-.36-.08-.36-.22,0-.29.65-.47,1.73-.47A10.38,10.38,0,0,1,89.46,6.88Z"/><path class="cls-1" d="M133.81,16.13a14.67,14.67,0,0,0-2.05-.11c-.79,0-3.6.14-5.11.25,1.69.86,1.83,1,1.83,1.44,0,.22,0,.22-.21.68s-.58,2.95-.72,6.77c2.08-.18,6.22-.68,7.7-.94a8.51,8.51,0,0,1,1.11-.1,6.37,6.37,0,0,1,2.63,1c.61.36.9.75.9,1.22a.87.87,0,0,1-.83.87,4.06,4.06,0,0,1-1-.22,33.79,33.79,0,0,0-7.78-.65,40.8,40.8,0,0,0-11.66,1.55c-1.33.47-1.33.47-1.73.47s-.9-.25-2.09-1.08c-.79-.54-1-.87-1-1.3s.25-.93.4-.93.14.07.25.21c.25.43,1.22.69,2.52.69.39,0,.9,0,1.51-.08l3-.18c2.26-.14,2.59-.18,4.06-.32.08-.9.15-2.52.22-4.86V19.4c0-.43,0-.83,0-.93,0-1.08-.33-1.73-1-2a31.72,31.72,0,0,0-4,.72,3.37,3.37,0,0,1-1.15.22,2.5,2.5,0,0,1-2-2.56c0-.14.11-.29.21-.29s.11,0,.26.22a3.12,3.12,0,0,0,1.87.72c.25,0,.61,0,1-.07s.83,0,1.44-.11c4.82-.33,7.2-.72,8.93-1.44.79-.36.79-.36,1-.36a4.47,4.47,0,0,1,2,.93c.58.36.79.65.79,1.08a.61.61,0,0,1-.54.65Z"/><path class="cls-1" d="M160.38,27.43c-2.63,1.51-5.9,2.73-7.34,2.73-.33,0-.58-.18-.58-.36s.07-.21.29-.25a25.46,25.46,0,0,0,7.45-3.81,24.8,24.8,0,0,0,7.05-7.81c1.3-2.38,1.88-3.78,1.88-4.5s-.4-.94-1.16-.94a62.42,62.42,0,0,0-6.33.83,46.81,46.81,0,0,0-6.26,1.62,1.34,1.34,0,0,1-.58.14,4.15,4.15,0,0,1-2.05-1.26,3.61,3.61,0,0,1-.94-2.37c0-.29.11-.47.33-.47s.14,0,.21.25c.22.72,1.59,1.3,3,1.3.58,0,.58,0,4.93-.44,2.92-.32,4.64-.5,5.18-.57a12,12,0,0,0,4-1.12,2.11,2.11,0,0,1,.64-.18c.69,0,3.28,2,3.28,2.59,0,.33-.15.47-1.3,1.34C168.44,21.17,165.6,24.37,160.38,27.43ZM155.09,4.75c.36.54,1.18.79,2.52.79a27.63,27.63,0,0,0,8.46-1.47,2.36,2.36,0,0,1,1.11-.33c.36,0,.69.15,1.77.72.75.4,1,.65,1,1s-.32.58-1.65.72c-1.84.22-1.91.22-4.72.72a35.41,35.41,0,0,1-5.43.65,2.89,2.89,0,0,1-2.74-1.33,6.06,6.06,0,0,1-.72-1.55c0-.07.07-.18.14-.18S154.94,4.54,155.09,4.75Z"/><path class="cls-1" d="M197.24,11.45A1.5,1.5,0,0,1,195.59,13c-.47,0-.72-.18-1.08-.82A7.93,7.93,0,0,0,189,7.74c-.21-.07-.32-.15-.32-.25,0-.26.65-.44,1.69-.44C193.79,7.05,197.24,9.25,197.24,11.45Zm-4.68,16A5.41,5.41,0,0,1,190,25.56a2.67,2.67,0,0,1-.9-2.27c0-.69.18-1.23.43-1.23s.22.08.29.26A2.55,2.55,0,0,0,192,24.15c1.48,0,5.83-2.7,11.05-6.84a68.91,68.91,0,0,0,6.73-6c.72-.72,2.67-3,3-3.38s.43-.58.61-.58a.3.3,0,0,1,.29.33c0,.57-1.59,3-3.39,5.22a55.77,55.77,0,0,1-7.7,7.77,54.55,54.55,0,0,1-8.57,5.9C193.32,27.18,192.92,27.43,192.56,27.43Z"/><path class="cls-1" d="M239.69,12.09a8.28,8.28,0,0,1,5.36-2.3c2.55,0,4.53,1.51,4.53,3.46a2.12,2.12,0,0,1-.93,1.9c-.76.58-1,.65-4.32,2a64,64,0,0,0-7.7,3.49c.1,1.59.18,2.74.18,3.32,0,1.8-.36,2.26-1.8,2.26-.44,0-.65-.14-.65-.36a1,1,0,0,1,0-.28,27.2,27.2,0,0,0,.18-3.89c-3.09,1.83-4.35,3.27-4.35,4.89,0,1.8,1.69,2.52,5.9,2.52a20.73,20.73,0,0,0,5.29-.64,2.8,2.8,0,0,1,.94-.18,1.92,1.92,0,0,1,1.73,1.47c0,1.19-2.38,1.8-7.27,1.8a11.86,11.86,0,0,1-5.87-1.08,4.27,4.27,0,0,1-2.48-3.67,4.54,4.54,0,0,1,1.83-3.38,26.44,26.44,0,0,1,4.25-2.78,13.92,13.92,0,0,0-.47-4.53,1.87,1.87,0,0,0-1.69-1.26,4.21,4.21,0,0,0-2.56,1.33A21.74,21.74,0,0,0,226.73,20c-.4.69-.79,1-1.19,1s-1.26-1.19-1.26-2.12c0-.47.14-.72.86-1.26,3.89-3.39,6.27-6.88,7-10.22A11.25,11.25,0,0,1,229,8a2.24,2.24,0,0,1-1.87-1.3,4.68,4.68,0,0,1-.54-1.37.15.15,0,0,1,.14-.14s.11,0,.18.14A2.28,2.28,0,0,0,229,6.3a9.57,9.57,0,0,0,3.27-.58,6.26,6.26,0,0,0,.11-1,1.7,1.7,0,0,0-1.69-1.94c-.15,0-.18,0-.18-.14,0-.33,1.22-.9,1.9-.9a2.47,2.47,0,0,1,2.38,2.12,5.49,5.49,0,0,1-.29,1.37A5.35,5.35,0,0,0,236.81,4c1.22.61,1.58.86,1.58,1.15s-.79.75-4.21,1.76a41.42,41.42,0,0,1-4.11,7.67,5.64,5.64,0,0,1,2.38-.65,3.63,3.63,0,0,1,2.3.83,5.21,5.21,0,0,1,1.34,2.55A14.54,14.54,0,0,1,239.69,12.09Zm1.54,4.68a36.39,36.39,0,0,0,4.61-2.7,2,2,0,0,0,.72-1.26,2.17,2.17,0,0,0-2.19-1.8c-1.88,0-4.32,1.7-5.73,4a18.32,18.32,0,0,0-2.12,4.43C238,18.57,238.21,18.43,241.23,16.77Z"/><path class="cls-1" d="M276.66,16.67h-2.38v1.47c0,.4-.64.72-1.44.72-.39,0-.65-.21-.65-.54V3.6L274.71,5h1.62A31.57,31.57,0,0,0,277,0l2.84.47c.43.07.69.32.69.61a1,1,0,0,1-.51.75l-.75.55L277.74,5h3.45l.87-1.37,2.05,2a.86.86,0,0,1,.25.58.66.66,0,0,1-.39.54l-.58.32V17.49c0,.65-.68,1.12-1.62,1.12-.32,0-.47-.18-.47-.54v-1.4h-2.41V20.8h10l1.88-2.33,2.87,2.37c.26.18.36.36.36.5a.36.36,0,0,1-.39.33H279.83c3.52,3.56,8.85,6,15,6.91A9.74,9.74,0,0,0,292,31.39a29.37,29.37,0,0,1-7.42-3.78,25.73,25.73,0,0,1-5.72-5.47v9.5a.55.55,0,0,1-.11.36,2.77,2.77,0,0,1-1.58.58.52.52,0,0,1-.54-.47V22.93a39.69,39.69,0,0,1-9.86,6.62,22.24,22.24,0,0,1-5.12,2,.29.29,0,0,1-.32-.29c0-.18,0-.18,2.12-1.26a40.87,40.87,0,0,0,11-8.31H269c-2.49.07-3.6.07-6.63.18l-.46-1.26,3.85.14c1.58,0,2.66.07,3.24.07h7.63Zm-5.29-4-5.83,4.79-.15.69c-.11.46-.39.75-.72.75a.74.74,0,0,1-.39-.14L262,16.45c3.13-1.37,4.21-1.91,9.11-4.5Zm-8.21-8.89c3.64.87,6.08,2.92,6.08,5A1.42,1.42,0,0,1,268,10.33a1.18,1.18,0,0,1-.9-.4c-.25-.25-.25-.25-1-2.23A10.82,10.82,0,0,0,263,4.17ZM281.3,10.4V5.87h-7V10.4Zm0,5.4V11.27h-7V15.8ZM292,5.22a.41.41,0,0,1,.18.32c0,.18-.21.36-.68.47l-1.22.32-5.22,4.4c-.36.28-.54.39-.72.39S284,11,284,10.8s.14-.4,1.58-2.23c1-1.34,1.91-2.63,3.82-5.47Zm-7.52,6.55c2.92.47,4.21.86,5.61,1.69s2.31,1.87,2.31,2.88a1.32,1.32,0,0,1-1.26,1.33c-.47,0-.58-.1-2.45-2.26a14.46,14.46,0,0,0-4.28-3Z"/><path class="cls-1" d="M332.78,23.11c0,.61-.83,1.94-2,3.35-2.84,3.16-6.08,4.75-9.86,4.75a8,8,0,0,1-6-2.27c-1.51-1.62-2.15-3.74-2.15-7,0-2.16,0-2.63.72-12,.21-3,.21-3,.21-3.46,0-2.3-.54-3.27-1.76-3.27-.22,0-.33-.07-.33-.18,0-.4.76-.72,1.59-.72,1.83,0,3.6,2.09,3.6,4.32a9.55,9.55,0,0,1-.54,2.73,77,77,0,0,0-1.51,12.35c0,5,2,7.31,6.47,7.31A13.28,13.28,0,0,0,329,26.06a14.43,14.43,0,0,0,3.06-2.92c.14-.25.29-.35.43-.35A.29.29,0,0,1,332.78,23.11Z"/><path class="cls-1" d="M355,6.19c0-2.37-.36-2.95-1.84-3-.29,0-.32,0-.32-.15,0-.28,1.4-.93,2-.93a5.71,5.71,0,0,1,2.27.75,1.48,1.48,0,0,1,.75,1.08,3.58,3.58,0,0,1-.25,1,18.9,18.9,0,0,0-.61,3c1.62-.61,2.16-1,2.56-1.66,1.11.07,2.16.76,2.16,1.33,0,.33-.18.47-.87.8a25,25,0,0,1-4.21,1.54c-.25,1.88-.29,2.13-.54,3.93a1.63,1.63,0,0,1,1.26,1.55,24.63,24.63,0,0,1-1.15,4.53c-1,3.46-1.37,5.11-1.37,6.44,0,1.66,1.26,2.42,4.07,2.42a21.52,21.52,0,0,0,6.91-1.26c1.22-.58,1.69-1.44,1.69-3.17,0-1.08,0-1.51-.54-6.8-.25-2.38-.36-4.11-.36-5.19,0-2.3.94-3.49,2.74-3.49,3.27,0,7.45,3.42,7.45,6.12,0,1.19-1,2.52-1.8,2.52-.15,0-.25-.07-.36-.25-.87-1-1.69-1.26-3.78-1.23-.29,0-.43-.07-.43-.25s0-.18.32-.21a1.86,1.86,0,0,0,.43-.11c.51-.07.9-.18,1.3-.25,1.11-.22,1.47-.47,1.47-1a5.31,5.31,0,0,0-1.44-2.63,5.23,5.23,0,0,0-3.34-1.84c-1.05,0-1.59.94-1.59,2.85a43,43,0,0,0,.9,8.13c.54,2.45,1,3.49,1.91,4.29a1.82,1.82,0,0,1,.18.82c0,1.16-.75,2.16-2.19,3a18.86,18.86,0,0,1-8.5,1.84c-4.61,0-6.8-1.41-6.8-4.36a17.32,17.32,0,0,1,.43-3,1.89,1.89,0,0,1-1.4.54c-1.41,0-2.31-1.66-2.31-4.18,0-3.42,1.95-6.15,4.36-6.15a4,4,0,0,1,.54,0c.07-1.62.1-1.87.18-3.2a17.91,17.91,0,0,1-4.68.9c-1.15,0-1.66-.29-2-1.15a6.4,6.4,0,0,1-.54-2.56c0-.18.07-.29.21-.29s.11,0,.18.19a2.48,2.48,0,0,0,2.59,1.94A17.38,17.38,0,0,0,355,8.53a10,10,0,0,1,0-1.3ZM352.33,16a8.51,8.51,0,0,0-.83,3.75c0,1.4.54,2.37,1.3,2.37s1-.5,1.26-1.73c.29-1.54.68-4.17.68-4.5,0-.72-.25-1.15-.72-1.22S352.73,15.23,352.33,16Z"/><path class="cls-1" d="M396.94,17.64a11.42,11.42,0,0,1-.8,4.35c-.86,2.09-2.88,3.78-4.5,3.78a1.87,1.87,0,0,1-1.54-1.58c0-.54.18-.69,1.36-1.23a8.81,8.81,0,0,0,4.86-5.43c0-.18.11-.22.25-.22S396.94,17.42,396.94,17.64Zm7.37-4.57c0,.72,0,2.37,0,5l.07,4c0,1.27,0,2.52.07,2.7,0,.69,0,1.3,0,1.66a3.45,3.45,0,0,1-1.26,2.84,3.34,3.34,0,0,1-2,1c-.36,0-.51-.22-.54-.8-.11-1.62-.65-2.52-2.41-4-.15-.15-.22-.22-.22-.33s.22-.32.36-.32.36.11.86.43c1.34.87,1.66,1.05,2.06,1.05.86,0,.86,0,.9-7.31,0-3.24.07-4.86.07-4.86v-1a32.47,32.47,0,0,0-7.56,1.59,3,3,0,0,1-1,.25,4.06,4.06,0,0,1-1.62-.65,2.83,2.83,0,0,1-1.47-2.45c0-.21.07-.32.21-.32a.47.47,0,0,1,.29.21c.5.65,1.33.87,3.09.87a77,77,0,0,0,8-.69c0-5.47-.21-5.86-2.27-6.12-.21,0-.32-.07-.32-.14,0-.36,1.33-1.08,2-1.08a4.56,4.56,0,0,1,2.66,1.08c.58.47.9.83.9,1a.82.82,0,0,1-.11.35c-.47.76-.57,1.37-.75,4.58,4.06-.33,6.26-.72,7.45-1.3.72-.4.72-.4,1-.4.5,0,1,.26,2.19,1.05.83.54,1.08.83,1.08,1.22a.93.93,0,0,1-.86.87,5.36,5.36,0,0,1-.65-.08,35.75,35.75,0,0,0-5.29-.39c-1.51,0-3.6.14-5,.29Zm6.7,4.86c3,1.8,4.79,3.92,4.79,5.75a1.81,1.81,0,0,1-1.7,2c-.68,0-.9-.25-1.29-1.76-.68-2.73-3.24-5.87-5.51-6.69-.18-.08-.25-.15-.25-.26s.18-.28.4-.28A8.55,8.55,0,0,1,411,17.93ZM417.2,4.36A3.53,3.53,0,1,1,413.71.83,3.53,3.53,0,0,1,417.2,4.36Zm-5.83,0a2.31,2.31,0,1,0,2.27-2.31A2.31,2.31,0,0,0,411.37,4.36Z"/><path class="cls-1" d="M445.89,13.61c1.84.82,1.84.82,1.84,1.18a1.35,1.35,0,0,1-.14.51,7.82,7.82,0,0,0-.33,2.88l.07,3.67V26l0,2.49c0,.46,0,.9,0,1.18,0,.94-.33,1.48-.87,1.48-1.08,0-2.34-.94-2.34-1.76a3.1,3.1,0,0,1,.11-.69,116.06,116.06,0,0,0,.86-12.45,3.65,3.65,0,0,0-.43-2.13,45.91,45.91,0,0,1-9.36,7.42,15.91,15.91,0,0,1-4,1.69c-.15,0-.36-.14-.36-.29s.07-.18.36-.29c5.68-2.59,16.81-14,16.81-17.13,0-.36-.69-1-1.19-1.11-.32-.08-.4-.15-.4-.29s.76-.51,1.48-.51c1.33,0,4.07,1.95,4.07,2.92,0,.25-.11.36-.43.54a2.6,2.6,0,0,0-1.3,1.08,61.29,61.29,0,0,1-5,5.29Z"/><path class="cls-1" d="M480.92,11.45A1.5,1.5,0,0,1,479.27,13c-.47,0-.72-.18-1.08-.82a7.93,7.93,0,0,0-5.55-4.43c-.21-.07-.32-.15-.32-.25,0-.26.65-.44,1.69-.44C477.47,7.05,480.92,9.25,480.92,11.45Zm-4.68,16a5.41,5.41,0,0,1-2.59-1.87,2.67,2.67,0,0,1-.9-2.27c0-.69.18-1.23.43-1.23s.22.08.29.26a2.55,2.55,0,0,0,2.16,1.83c1.48,0,5.83-2.7,11.05-6.84a68.91,68.91,0,0,0,6.73-6c.72-.72,2.67-3,3-3.38s.43-.58.61-.58a.3.3,0,0,1,.29.33c0,.57-1.59,3-3.39,5.22a55.77,55.77,0,0,1-7.7,7.77,54.55,54.55,0,0,1-8.57,5.9C477,27.18,476.6,27.43,476.24,27.43Z"/><path class="cls-1" d="M518.94,14.43c0,6.45.11,9.87.29,12.28.07.75.1,1.29.1,1.62,0,1.51-.54,2.63-1.29,2.63s-1.91-1.62-1.91-2.52a5.13,5.13,0,0,1,.11-.94c.29-2,.57-10,.57-17.17,0-3.38-.14-4.61-.57-5.33a1.81,1.81,0,0,0-1.73-.9c-.25,0-.36-.1-.36-.32s.11-.25.33-.36a10.2,10.2,0,0,1,2.19-.58c.54,0,1.05.26,2.63,1.26.47.33.68.58.68.83a2,2,0,0,1-.18.69c-.57,1-.79,2.66-.86,6.69a15.34,15.34,0,0,1,7.56,2.34c1.94,1.33,2.84,2.48,2.84,3.64a1.47,1.47,0,0,1-1.51,1.58c-.79,0-1.19-.33-2.09-1.69a12.88,12.88,0,0,0-6.8-5.29Z"/></g></g></svg>