<svg xmlns="http://www.w3.org/2000/svg" viewBox="0 0 388.42 110.28"><defs><style>.cls-1{fill:#333;}</style></defs><title>how-to-title</title><g id="Layer_2" data-name="Layer 2"><g id="Layer_1-2" data-name="Layer 1"><path class="cls-1" d="M31.64,24.89a45,45,0,0,1-5,3.24c2.91,2.54,4.64,5.24,4.64,7.35a2.07,2.07,0,0,1-2.21,1.83c-1.08,0-1.52-.43-2.43-2.48A23.73,23.73,0,0,0,16,24c-.33-.16-.49-.27-.49-.43a.53.53,0,0,1,.54-.43,23.83,23.83,0,0,1,4.59,1.4,27.12,27.12,0,0,1,5.08,2.7C31.1,23,36.61,17.12,36.61,15.71c0-1-1.24-1.4-3.78-1.4A96.71,96.71,0,0,0,18.41,16.2a63.59,63.59,0,0,0-9.07,2.65,3.51,3.51,0,0,1-1.08.27,6.59,6.59,0,0,1-3.72-1.84,5.77,5.77,0,0,1-1.3-3.73c0-.59.16-1,.43-1,.11,0,.22.11.33.32.54,1.19,2.21,2,4.05,2,2.48,0,7.66-.54,16.79-1.73S34.45,12,36.45,11.39a7.15,7.15,0,0,1,2.16-.48c1.08,0,2.11.54,5.35,2.91,1,.81,1.45,1.35,1.45,2.06S45,17,43.85,17.17a10.25,10.25,0,0,0-3.51,1.57c-.6.38-.7.43-3.19,2.27Z"/><path class="cls-1" d="M74.84,11.5c1.62.87,2.81,1.95,2.81,2.43,0,.22-.05.27-.48.65a4.25,4.25,0,0,0-.71,2A46.78,46.78,0,0,1,71.28,29.7c-2.92,4.81-9.34,11.07-11.39,11.07a.61.61,0,0,1-.65-.59c0-.22.16-.44.54-.65,2.21-1.41,5.29-5,7.56-8.91,2.86-4.92,5.13-12.15,5.13-16.31a3.05,3.05,0,0,0-1.78-2.92c-.27-.1-.38-.27-.38-.43s.32-.43.75-.43A9.09,9.09,0,0,1,74.84,11.5Zm7.46,9.13c0-4.75.1-7.24.1-7.35,0-1.83-.1-2.64-.43-3.13a2.72,2.72,0,0,0-1.08-.75c-.32-.06-.43-.11-.43-.33s1.08-.75,1.73-.75c1,0,1.94.43,3.45,1.51s1.57,1.13,1.57,1.46,0,.27-.43.75a11.13,11.13,0,0,0-1,4.32c-.17,2-.54,10.32-.54,12.15,0,.76.27,1.08.86,1.08,2,0,6.21-2.43,10.1-5.83s9-9.34,10.69-12.42c.33-.65.49-.81.7-.81a.76.76,0,0,1,.6.65c0,.7-2,4.32-4,7.29a49.09,49.09,0,0,1-8.37,9.34,46.54,46.54,0,0,1-7.46,5.13,7.16,7.16,0,0,0-3.29,2.38.65.65,0,0,1-.32.16c-.87,0-3.41-3-3.41-3.94a2.15,2.15,0,0,1,.22-.65c.59-1,.7-1.57.7-3.67Z"/><path class="cls-1" d="M128.79,17.77c2.05,1.35,3,2.59,3,4.21a2.29,2.29,0,0,1-2.16,2.21,1.93,1.93,0,0,1-1.84-1.29,12.31,12.31,0,0,0-6.8-6c-.32-.11-.49-.21-.49-.38s.87-.54,2-.54A13.38,13.38,0,0,1,128.79,17.77Zm-.65,22.51c-1,0-3.08-1.35-4.16-2.7a5.76,5.76,0,0,1-1.45-3.18,7.26,7.26,0,0,1-.06-1.14c0-.54.16-.81.49-.81.16,0,.27.06.7.71a4,4,0,0,0,3.83,2.05c1.84,0,5.13-1.46,9.29-4.16a110.13,110.13,0,0,0,16.58-14.26,53.9,53.9,0,0,0,5.78-7.18c.43-.65.65-.86.86-.86s.38.32.38.59c0,1-2.65,5.56-5.29,9a78.71,78.71,0,0,1-23.28,19.82c-1.78,1-2.53,1.46-2.64,1.56A1.21,1.21,0,0,1,128.14,40.28Zm7.13-32.56c2,1.24,3,2.59,3,4.32A2.42,2.42,0,0,1,136,14.58c-.92,0-1.24-.27-1.83-1.46A12,12,0,0,0,126.2,7c-.38,0-.54-.11-.54-.32,0-.44,1-.71,2.59-.71A15.76,15.76,0,0,1,135.27,7.72Z"/><path class="cls-1" d="M207.2,21.6a23.76,23.76,0,0,0-3.08-.16c-1.19,0-5.4.21-7.67.38,2.54,1.29,2.76,1.45,2.76,2.16,0,.32,0,.32-.33,1-.48.87-.86,4.43-1.08,10.15,3.13-.27,9.34-1,11.56-1.4a12.58,12.58,0,0,1,1.67-.16A9.57,9.57,0,0,1,215,35.05c.92.54,1.36,1.13,1.36,1.83a1.32,1.32,0,0,1-1.25,1.3,5.73,5.73,0,0,1-1.51-.33c-1.89-.59-6.53-1-11.66-1-6.43,0-13.72,1-17.5,2.32-2,.71-2,.71-2.59.71s-1.35-.38-3.13-1.62c-1.19-.81-1.57-1.3-1.57-1.95s.38-1.4.59-1.4.22.11.38.32c.38.65,1.84,1,3.78,1,.6,0,1.35-.06,2.27-.11l4.48-.27c3.4-.22,3.89-.27,6.1-.49q.17-2,.33-7.29V26.51c0-.64,0-1.24,0-1.4,0-1.62-.48-2.59-1.56-3a47.69,47.69,0,0,0-6,1.08,5.16,5.16,0,0,1-1.73.32c-1.57,0-3.08-1.89-3.08-3.83,0-.22.16-.44.33-.44s.16.06.37.33a4.7,4.7,0,0,0,2.81,1.08c.38,0,.92-.06,1.46-.11.32,0,1.24-.05,2.16-.16,7.24-.49,10.8-1.08,13.39-2.16,1.19-.54,1.19-.54,1.46-.54a6.64,6.64,0,0,1,3.08,1.4c.86.54,1.19,1,1.19,1.62a.91.91,0,0,1-.81,1Z"/><path class="cls-1" d="M250.29,38.56c-3.94,2.26-8.86,4.1-11,4.1-.48,0-.86-.27-.86-.54s.11-.32.43-.38A37.93,37.93,0,0,0,250,36c4.86-3.73,8.43-7.62,10.58-11.72,1.95-3.56,2.81-5.67,2.81-6.75,0-.92-.59-1.4-1.73-1.4a95.68,95.68,0,0,0-9.5,1.24,72.86,72.86,0,0,0-9.4,2.43,2,2,0,0,1-.86.21c-.65,0-1.78-.7-3.08-1.89a5.4,5.4,0,0,1-1.4-3.56c0-.43.16-.7.48-.7s.22,0,.33.38c.32,1.08,2.37,1.94,4.48,1.94.86,0,.86,0,7.4-.65,4.37-.48,7-.75,7.78-.86A18,18,0,0,0,264,13a3.44,3.44,0,0,1,1-.27c1,0,4.92,3.08,4.92,3.89,0,.49-.22.7-1.94,2C262.39,29.16,258.12,34,250.29,38.56Zm-7.94-34c.54.81,1.78,1.18,3.78,1.18,4,0,10.1-1.08,12.69-2.21A3.64,3.64,0,0,1,260.5,3c.54,0,1,.22,2.64,1.08,1.14.6,1.52,1,1.52,1.52s-.49.86-2.49,1.08c-2.75.32-2.86.32-7.07,1.08a53.74,53.74,0,0,1-8.16,1,4.3,4.3,0,0,1-4.1-2,9.33,9.33,0,0,1-1.08-2.32c0-.11.11-.27.21-.27S242.14,4.21,242.35,4.54Z"/><path class="cls-1" d="M307.75,14.58a2.26,2.26,0,0,1-2.49,2.32c-.7,0-1.08-.27-1.62-1.24A11.91,11.91,0,0,0,295.33,9c-.33-.11-.49-.22-.49-.38,0-.38,1-.65,2.54-.65C302.56,8,307.75,11.29,307.75,14.58Zm-7,24c-.81,0-2.6-1.3-3.89-2.81a4,4,0,0,1-1.35-3.4c0-1,.27-1.84.65-1.84.21,0,.32.11.43.38a3.81,3.81,0,0,0,3.24,2.75c2.21,0,8.75-4.05,16.58-10.26a105.08,105.08,0,0,0,10.09-9c1.08-1.08,4-4.42,4.54-5.07s.65-.87.92-.87a.44.44,0,0,1,.43.49c0,.86-2.38,4.54-5.08,7.83A84,84,0,0,1,315.74,28.4a82.19,82.19,0,0,1-12.85,8.86C301.86,38.18,301.27,38.56,300.73,38.56Z"/><path class="cls-1" d="M373.57,15.55a12.45,12.45,0,0,1,8.05-3.45c3.83,0,6.8,2.26,6.8,5.18a3.2,3.2,0,0,1-1.4,2.86c-1.14.87-1.46,1-6.48,3A93,93,0,0,0,369,28.35c.16,2.38.27,4.1.27,5,0,2.7-.54,3.4-2.7,3.4-.65,0-1-.22-1-.54a1.42,1.42,0,0,1,.05-.43,41.44,41.44,0,0,0,.27-5.83c-4.64,2.75-6.53,4.91-6.53,7.34,0,2.7,2.54,3.78,8.86,3.78a30.88,30.88,0,0,0,7.93-1,4.33,4.33,0,0,1,1.41-.27c1.13,0,2.59,1.24,2.59,2.21,0,1.78-3.56,2.7-10.91,2.7-4.1,0-6.53-.43-8.8-1.62a6.42,6.42,0,0,1-3.73-5.51,6.82,6.82,0,0,1,2.76-5.07,38.77,38.77,0,0,1,6.37-4.16c-.05-3.83-.22-5.62-.7-6.8a2.81,2.81,0,0,0-2.54-1.89,6.28,6.28,0,0,0-3.83,2,32.84,32.84,0,0,0-4.65,5.78c-.59,1-1.19,1.51-1.78,1.51-.81,0-1.89-1.78-1.89-3.18,0-.7.22-1.08,1.3-1.89,5.83-5.08,9.39-10.32,10.42-15.34a16.34,16.34,0,0,1-4.7.92,3.36,3.36,0,0,1-2.81-1.94,6.9,6.9,0,0,1-.81-2.06.24.24,0,0,1,.22-.21c.05,0,.16,0,.27.21a3.4,3.4,0,0,0,3.18,1.41A14.4,14.4,0,0,0,362.45,6a8.72,8.72,0,0,0,.16-1.51c0-1.78-.86-2.81-2.54-2.91-.21,0-.27-.06-.27-.22,0-.49,1.84-1.35,2.86-1.35,1.73,0,3.57,1.62,3.57,3.19a8.19,8.19,0,0,1-.43,2.05,7.8,7.8,0,0,0,3.45-1.84c1.84.92,2.38,1.3,2.38,1.73,0,.65-1.19,1.13-6.32,2.65a61.94,61.94,0,0,1-6.16,11.5,8.55,8.55,0,0,1,3.57-1,5.47,5.47,0,0,1,3.45,1.24c.87.81,1.35,1.73,2,3.83C370.12,19.39,371.41,17.44,373.57,15.55Zm2.32,7c5.19-2.86,6.27-3.51,6.92-4.05a3,3,0,0,0,1.08-1.89c0-1.35-1.62-2.7-3.3-2.7-2.81,0-6.48,2.54-8.58,6a27.29,27.29,0,0,0-3.19,6.64C371,25.27,371.36,25.06,375.89,22.57Z"/><path class="cls-1" d="M23,86.41H19.39v2.21c0,.6-1,1.08-2.16,1.08-.6,0-1-.32-1-.81V66.81L20,68.91h2.43a47.33,47.33,0,0,0,1-7.5l4.27.7c.64.11,1,.49,1,.92A1.48,1.48,0,0,1,28,64.16L26.89,65l-2.32,3.94h5.18l1.3-2,3.08,2.92a1.29,1.29,0,0,1,.38.86,1,1,0,0,1-.6.81l-.86.49V87.65c0,1-1,1.68-2.43,1.68-.49,0-.7-.27-.7-.81V86.41H26.3v6.21H41.36l2.81-3.51,4.32,3.56c.38.27.54.54.54.76a.55.55,0,0,1-.59.49H27.7C33,99.26,41,103,50.17,104.28A14.65,14.65,0,0,0,46,108.5a44.22,44.22,0,0,1-11.13-5.67c-3.29-2.33-4.8-3.73-8.58-8.21v14.25a.83.83,0,0,1-.16.54,4.18,4.18,0,0,1-2.38.87.78.78,0,0,1-.81-.7V95.81c-6.05,5.13-9,7.12-14.8,9.93-3.29,1.62-6.8,3-7.66,3a.44.44,0,0,1-.49-.43c0-.27,0-.27,3.19-1.89A61.43,61.43,0,0,0,19.71,93.92H11.5c-3.72.1-5.4.1-9.93.27L.86,92.3c2.6.1,4.86.16,5.78.21,2.38.06,4,.11,4.86.11H23Zm-7.94-6L6.26,87.54l-.21,1c-.16.7-.6,1.13-1.08,1.13a1.14,1.14,0,0,1-.6-.21L.92,86.09c4.7-2.06,6.32-2.87,13.66-6.75ZM2.7,67c5.45,1.3,9.13,4.38,9.13,7.51a2.13,2.13,0,0,1-1.95,2.38,1.86,1.86,0,0,1-1.35-.6c-.38-.38-.38-.38-1.46-3.35a16,16,0,0,0-4.59-5.29ZM29.92,77v-6.8H19.39V77Zm0,8.1v-6.8H19.39v6.8ZM46,69.24a.62.62,0,0,1,.27.48c0,.27-.32.54-1,.71l-1.84.48L35.53,77.5c-.54.43-.81.59-1.08.59s-.43-.16-.43-.48.22-.6,2.38-3.35c1.45-2,2.86-3.94,5.72-8.21ZM34.67,79.07c4.37.7,6.32,1.29,8.42,2.53,2.27,1.3,3.46,2.81,3.46,4.32a2,2,0,0,1-1.89,2c-.7,0-.87-.16-3.67-3.4A22,22,0,0,0,34.56,80Z"/><path class="cls-1" d="M101.74,96.08c0,.91-1.24,2.91-3.08,5-4.27,4.75-9.13,7.13-14.8,7.13-3.83,0-6.86-1.14-9-3.41-2.26-2.43-3.24-5.61-3.24-10.53,0-3.24.06-3.94,1.08-18,.33-4.54.33-4.54.33-5.19,0-3.45-.81-4.91-2.65-4.91-.32,0-.48-.11-.48-.27,0-.6,1.13-1.08,2.37-1.08,2.76,0,5.4,3.13,5.4,6.48,0,.81,0,.86-.81,4.1a117.16,117.16,0,0,0-2.27,18.53c0,7.56,3,11,9.72,11a19.89,19.89,0,0,0,11.83-4.38,21.15,21.15,0,0,0,4.59-4.37c.22-.38.43-.54.65-.54A.45.45,0,0,1,101.74,96.08Z"/><path class="cls-1" d="M129.65,70.7c0-3.57-.54-4.43-2.75-4.54-.43,0-.49,0-.49-.22,0-.43,2.11-1.4,3-1.4a8.45,8.45,0,0,1,3.4,1.13A2.23,2.23,0,0,1,134,67.29a5.7,5.7,0,0,1-.37,1.52,26.5,26.5,0,0,0-.92,4.48c2.43-.92,3.24-1.46,3.83-2.49,1.68.11,3.24,1.14,3.24,2,0,.49-.27.7-1.29,1.19a38,38,0,0,1-6.32,2.32c-.38,2.81-.43,3.19-.81,5.89a2.45,2.45,0,0,1,1.89,2.32c0,.76-.43,2.48-1.73,6.8C130,96.51,129.44,99,129.44,101c0,2.48,1.89,3.62,6.1,3.62a32.09,32.09,0,0,0,10.37-1.89c1.83-.87,2.54-2.16,2.54-4.75,0-1.62-.06-2.27-.81-10.21-.38-3.56-.54-6.16-.54-7.78,0-3.45,1.4-5.23,4.1-5.23,4.91,0,11.18,5.13,11.18,9.18,0,1.78-1.46,3.78-2.7,3.78-.22,0-.38-.11-.54-.38-1.3-1.46-2.54-1.89-5.67-1.84-.43,0-.65-.11-.65-.38s.05-.27.49-.32a2.53,2.53,0,0,0,.64-.16c.76-.11,1.35-.27,2-.38,1.67-.32,2.21-.7,2.21-1.51A7.93,7.93,0,0,0,156,78.8c-1.56-1.68-3.56-2.76-5-2.76s-2.38,1.41-2.38,4.27a64.47,64.47,0,0,0,1.35,12.2c.81,3.67,1.52,5.24,2.87,6.43a3,3,0,0,1,.27,1.24c0,1.73-1.14,3.24-3.3,4.48-3,1.68-8,2.76-12.74,2.76-6.91,0-10.21-2.11-10.21-6.54a26.78,26.78,0,0,1,.65-4.53,2.86,2.86,0,0,1-2.11.81c-2.1,0-3.45-2.49-3.45-6.27,0-5.13,2.91-9.23,6.53-9.23a5.37,5.37,0,0,1,.81,0c.11-2.43.16-2.81.27-4.8a27,27,0,0,1-7,1.35c-1.73,0-2.48-.44-3.08-1.73a9.82,9.82,0,0,1-.81-3.84c0-.27.11-.43.33-.43s.16.06.27.27a3.72,3.72,0,0,0,3.89,2.92,26,26,0,0,0,6.53-1.24,17.86,17.86,0,0,1,.05-1.95Zm-4,14.68A12.63,12.63,0,0,0,124.42,91c0,2.11.81,3.56,1.94,3.56s1.57-.75,1.89-2.59c.43-2.32,1-6.26,1-6.75,0-1.08-.38-1.73-1.08-1.83S126.25,84.25,125.66,85.38Z"/><path class="cls-1" d="M187.16,87.87A17.16,17.16,0,0,1,186,94.4c-1.3,3.13-4.32,5.67-6.75,5.67a2.81,2.81,0,0,1-2.33-2.37c0-.81.27-1,2.06-1.84a13.35,13.35,0,0,0,7.29-8.15c.05-.27.16-.33.37-.33C187,87.38,187.16,87.54,187.16,87.87ZM198.23,81c0,1.08,0,3.56.06,7.45l.11,6.05c0,1.89,0,3.78.1,4,.06,1,.06,1.94.06,2.48a5.2,5.2,0,0,1-1.89,4.27,5,5,0,0,1-3.08,1.46c-.54,0-.76-.33-.81-1.19-.16-2.43-1-3.78-3.62-6-.21-.22-.32-.33-.32-.49a.63.63,0,0,1,.54-.49c.21,0,.54.17,1.29.65,2,1.3,2.49,1.57,3.08,1.57,1.3,0,1.3,0,1.35-11,.06-4.86.11-7.29.11-7.29V81.06a48.74,48.74,0,0,0-11.34,2.38,4.42,4.42,0,0,1-1.51.38,6,6,0,0,1-2.43-1,4.27,4.27,0,0,1-2.22-3.68q0-.48.33-.48c.11,0,.27.11.43.32.76,1,2,1.3,4.64,1.3a115.79,115.79,0,0,0,12-1c-.06-8.21-.33-8.8-3.41-9.18-.32,0-.48-.11-.48-.21,0-.54,2-1.62,3-1.62a6.8,6.8,0,0,1,4,1.62c.86.7,1.35,1.24,1.35,1.56a1.3,1.3,0,0,1-.16.54c-.71,1.14-.87,2.05-1.14,6.86,6.1-.49,9.4-1.08,11.18-1.94,1.08-.6,1.08-.6,1.46-.6.75,0,1.51.38,3.29,1.57,1.24.81,1.62,1.24,1.62,1.83A1.39,1.39,0,0,1,214.6,81a7.64,7.64,0,0,1-1-.11,52.88,52.88,0,0,0-7.93-.59c-2.27,0-5.4.21-7.46.43Zm10.05,7.29c4.53,2.7,7.18,5.89,7.18,8.64a2.72,2.72,0,0,1-2.54,3c-1,0-1.35-.38-1.94-2.65-1-4.1-4.86-8.8-8.26-10-.27-.11-.38-.22-.38-.38s.27-.43.59-.43A12.79,12.79,0,0,1,208.28,88.3Zm9.29-20.36a5.3,5.3,0,1,1-5.24-5.29A5.3,5.3,0,0,1,217.57,67.94Zm-8.75,0a3.46,3.46,0,1,0,3.4-3.45A3.48,3.48,0,0,0,208.82,67.94Z"/><path class="cls-1" d="M255.21,81.82C258,83.06,258,83.06,258,83.6a1.75,1.75,0,0,1-.22.76,12,12,0,0,0-.48,4.32l.11,5.51v6.15l.05,3.73c.05.7.05,1.35.05,1.78,0,1.4-.48,2.21-1.29,2.21-1.62,0-3.51-1.4-3.51-2.64a4.25,4.25,0,0,1,.16-1,173.91,173.91,0,0,0,1.29-18.68,5.58,5.58,0,0,0-.64-3.19,69.17,69.17,0,0,1-14,11.13,24.42,24.42,0,0,1-6,2.53c-.21,0-.54-.21-.54-.43s.11-.27.54-.43c8.53-3.89,25.22-20.95,25.22-25.7,0-.54-1-1.52-1.78-1.68-.49-.11-.59-.21-.59-.43,0-.38,1.13-.76,2.21-.76,2,0,6.1,2.92,6.1,4.38,0,.38-.16.54-.65.81A3.88,3.88,0,0,0,262,73.56a87.71,87.71,0,0,1-7.51,7.94Z"/><path class="cls-1" d="M307.75,78.58a2.26,2.26,0,0,1-2.49,2.32c-.7,0-1.08-.27-1.62-1.24A11.91,11.91,0,0,0,295.33,73c-.33-.11-.49-.22-.49-.38,0-.38,1-.65,2.54-.65C302.56,72,307.75,75.29,307.75,78.58Zm-7,24c-.81,0-2.6-1.3-3.89-2.81a4,4,0,0,1-1.35-3.4c0-1,.27-1.84.65-1.84.21,0,.32.11.43.38a3.81,3.81,0,0,0,3.24,2.75c2.21,0,8.75-4,16.58-10.26a105.08,105.08,0,0,0,10.09-9c1.08-1.08,4-4.42,4.54-5.07s.65-.87.92-.87a.44.44,0,0,1,.43.49c0,.86-2.38,4.54-5.08,7.83A84,84,0,0,1,315.74,92.4a82.19,82.19,0,0,1-12.85,8.86C301.86,102.18,301.27,102.56,300.73,102.56Z"/><path class="cls-1" d="M365.85,83.06c0,9.67.16,14.8.43,18.42.11,1.13.16,1.94.16,2.43,0,2.26-.81,3.94-1.94,3.94s-2.86-2.43-2.86-3.78a7.31,7.31,0,0,1,.16-1.41c.43-3,.86-15,.86-25.75,0-5.08-.21-6.92-.86-8a2.72,2.72,0,0,0-2.59-1.35c-.38,0-.54-.16-.54-.48s.16-.38.48-.54a15.57,15.57,0,0,1,3.3-.87c.81,0,1.56.38,3.94,1.89.7.49,1,.87,1,1.25a2.93,2.93,0,0,1-.27,1c-.87,1.46-1.19,4-1.3,10a23,23,0,0,1,11.34,3.51c2.92,2,4.27,3.72,4.27,5.45a2.22,2.22,0,0,1-2.27,2.38c-1.19,0-1.78-.49-3.13-2.54a19.43,19.43,0,0,0-10.21-7.94Z"/></g></g></svg>