<svg xmlns="http://www.w3.org/2000/svg" viewBox="0 0 621.61 68.86"><defs><style>.cls-1{fill:#fff;}</style></defs><g id="Layer_2" data-name="Layer 2"><g id="Layer_1-2" data-name="Layer 1"><path class="cls-1" d="M11.33,12.54c3,2.51,3.64,3,4.25,3a4,4,0,0,0,1.22-.38c4.1-2,17.93-3.72,29.64-3.72h1.67c2.59.15,2.59.15,2.81.15a2.29,2.29,0,0,0,2.51-2.2c0-1.37-1.06-2.28-3.8-3.5-1.21-.53-2.05-.91-2.36-1.06-.15-.08-.53-.23-1.06-.53L44.84,5.7a57.27,57.27,0,0,1-7,1c-6.84.68-10,1.06-15.12,1.67-4.56.53-8,.84-8.9.84-1.29,0-2.35-.76-3.65-2.51a2.21,2.21,0,0,0-1.51,2.2C8.67,10,9.35,10.94,11.33,12.54Z"/><path class="cls-1" d="M56.4,19.91,54,22.19c-17,1.3-20.75,1.6-35.34,3.27L13.3,26A48,48,0,0,1,7,26.6c-2.58,0-3.49-.53-4.79-2.81-1.59.3-2.2.91-2.2,2.05,0,1.37.08,1.45,4.1,4.79,4,3,4,3,4.57,3a1.05,1.05,0,0,0,.75-.3,5,5,0,0,0,1-.76c.08,0,.84-.23,2.05-.46,1.75-.38,3.5-.68,5.33-1.06,8.74-1.37,11.09-1.67,13.14-1.67a3.27,3.27,0,0,1,1.68,2.28c0,2-3.5,11.25-6.24,16.41A52.14,52.14,0,0,1,11.17,66.5C9.58,67.72,9.35,68,9.35,68.25a.36.36,0,0,0,.38.38c1.6,0,8.59-4.25,12.62-7.75,7.29-6.23,12.16-13.3,17.32-25.16,1.45-.38,1.83-.68,1.83-1.37,0-.91-2.51-3.26-5.85-5.39,4.48-.46,15.12-.91,21-.91,1.52,0,2.82.07,3.88.15,1.44.15,2.74.23,3,.23,1.82,0,3-1,3-2.59S61.64,21.43,56.4,19.91Z"/><path class="cls-1" d="M64.76,1.82A22.41,22.41,0,0,0,57.46,0c-.61,0-.91.15-.91.46,0,.15.23.38.76.68a18.73,18.73,0,0,1,6.76,6.08c1.6,2.05,2.05,2.43,3.19,2.43,1.3,0,2.21-1.06,2.21-2.66C69.47,5,67.87,3.27,64.76,1.82Z"/><path class="cls-1" d="M58.68,13.15c1,3.11,1.21,3.42,2.58,3.42a2.67,2.67,0,0,0,2.58-3c0-2-1.14-3.8-3.49-5.39-1.83-1.22-6.16-3-7.15-3-.3,0-.45.15-.45.3s.23.38.53.69A16.49,16.49,0,0,1,58.68,13.15Z"/><path class="cls-1" d="M118.11,17.56a7.61,7.61,0,0,0-4.18-1.75c-.61,0-1,.38-1.37,1.21,1.06.92,1.67,1.52,1.67,1.83,0,.07-.07.15-.15.3a3.77,3.77,0,0,1-.3.61C107.32,31,92.87,44.23,78.59,51.91a1,1,0,0,0-.69.91c0,.15.31.38.69.38a44.78,44.78,0,0,0,5.62-2.13c7-3,11.71-5.7,19.91-11.47l.08,3.19c.08,2.89.08,4.79.08,5.4v9.12a32.67,32.67,0,0,1-.31,5.93,9.12,9.12,0,0,0-.3,2.12c0,1.37,2.66,3.5,4.41,3.5,1.36,0,2-.84,2-2.51,0-.45-.07-1.52-.15-3-.15-1.67-.38-9.42-.38-11.48s0-2.2.08-8.89V39.83l1-.46a.82.82,0,0,0,.54-.68c0-.23-.23-.54-.69-.76l-2.73-1.52c3.26-3.2,5.7-5.55,7.22-7.07.91-1.07,1.67-1.83,5.47-6.16,1.75-.53,2-.68,2-1.37S120.84,19.61,118.11,17.56Z"/><path class="cls-1" d="M200.34,22c-1.37-.61-2.28-1.06-2.66-1.29a10.69,10.69,0,0,0-4.18-1.52l-2.13,2c-3.12.22-4.79.3-8.06.6-2.66.23-4.48.38-5.24.38-.38.08-1.29.08-2.43.15.07-1,.07-2,.15-2.27V15.2c0-3,.08-3.95.23-6.61,1.06-.23,1.67-.84,1.67-1.6,0-.91-.76-1.59-3.19-2.73C169.1,1.75,168.57,1.6,167,1.6a3.63,3.63,0,0,0-3.64,2.73c3,1,4.48,2,4.94,3.27a62.1,62.1,0,0,1,.6,10.19c0,1.36,0,2.58-.07,5.09l-2.21.15c-7.44.46-7.9.53-17.1,1.29-5,.38-5,.38-5.93.38-2.58,0-4.1-.83-5.09-2.81a2.14,2.14,0,0,0-2.05,2.43c0,1.22,1,2.43,3.88,4.87,2.12,1.9,3.87,3,4.48,3a1.69,1.69,0,0,0,.76-.38c.76-.68.84-.68,2.51-1,.15-.07,2.35-.53,5.39-1.14a104.69,104.69,0,0,1,15.21-1.82c-1.14,18.24-6.24,29.26-17.79,38.61-.61.45-.84.76-.84,1.06a.43.43,0,0,0,.46.38,6.51,6.51,0,0,0,2.43-1,42.83,42.83,0,0,0,11.25-8.59C172,50.16,174.57,43,175.41,27.44c3.34-.15,9.2-.23,14.21-.23a78.66,78.66,0,0,1,8.82.38l1.52.08a3.06,3.06,0,0,0,3-3.27C203,23.64,202.32,23,200.34,22Z"/><path class="cls-1" d="M277.56,30.71c-3.5-2.51-4.94-3.35-5.86-3.35a1.49,1.49,0,0,0-1,.31L269,29a5.6,5.6,0,0,1-2.51.38c-4.41-.08-32.3,1.21-40.66,1.9-1.45.15-2.89.23-3.42.23-2.66,0-4.34-.61-5.1-1.9-.6-1-.76-1.14-1.29-1.14a2.64,2.64,0,0,0-.68.15s-.08,0-.08.23a4.67,4.67,0,0,0-.23,1.36,9.68,9.68,0,0,0,2.59,6.31c1.59,1.67,4.1,3.27,5.24,3.27a3.73,3.73,0,0,0,1.14-.38c3.35-1.37,21.51-3,33.07-3,2.35,0,13.68.46,15.88.61,1.67.15,3.42.23,3.88.23a2.88,2.88,0,0,0,3.19-3C280,32.76,279.53,32.15,277.56,30.71Z"/><path class="cls-1" d="M347.25,3.72a32.19,32.19,0,0,0-7.83-1.36c-.46,0-.68.07-.68.3s.15.3.6.46c3.8,1.74,5.17,2.81,8,6.38,1.22,1.6,1.9,2.05,3,2.05,1.67,0,2.51-.91,2.51-2.81S350.9,4.94,347.25,3.72Z"/><path class="cls-1" d="M340.71,10a27.59,27.59,0,0,0-8-2.13c-.31,0-.54.16-.54.31s.23.3.61.53a17.05,17.05,0,0,1,6.92,5.93c2,3.12,2.35,3.42,3.72,3.42A2.48,2.48,0,0,0,346,15.5C346,13.45,344.28,11.7,340.71,10Z"/><path class="cls-1" d="M343.14,54.72a27.16,27.16,0,0,0-4.86-2.89,3.54,3.54,0,0,0-1.37.69c-1.52,1.06-3,1.37-8.05,2a133.39,133.39,0,0,1-16.12.91c-3.8,0-4.86-.15-5.62-1s-1-3-1-13.31c0-2.28,0-3.34.15-7.37,12.62-1.37,25.31-4.1,34.05-7.22.84.08,1.52.15,1.75.15,1.14,0,1.82-.45,1.82-1.21,0-2.43-8.2-9.2-11.17-9.2a4.69,4.69,0,0,0-2.89,1.52c1.83,1,2.74,1.82,2.74,2.51,0,.91-1.9,2.13-6.92,4.25a103.86,103.86,0,0,1-19.3,6.24l.07-2.21.16-5.85c0-1.44.07-2.73.3-8,1.6-.91,2-1.37,2-2.13,0-1-.61-1.52-2.44-2.43-4.25-2-6.68-3-7.75-3-2.05,0-3.49,1.06-3.65,2.74a6.48,6.48,0,0,0,2.51.83c2,.38,2.43.84,2.43,2.89,0,.23,0,1,.08,2.2.08,4.95.08,5.33.15,14.45l-.07,8.58c0,3.35.15,7,.38,11,.3,5.1.6,6.62,1.59,8,2.13,3,4.41,3.57,15.2,3.57a137,137,0,0,0,19.38-1.29c5.4-.61,5.4-.61,6.24-.92,1.14-.45,1.82-1.21,1.82-2.05A3.52,3.52,0,0,0,343.14,54.72Z"/><path class="cls-1" d="M417.32,52.14a12.91,12.91,0,0,0-5-2l-1.36,1.22c-3.88.15-6,.23-8.74.38,1.67-7.53,2.81-13.68,3.57-18.93l1.29-.38c.84-.22,1.37-.76,1.37-1.21,0-.91-1.68-2.13-6.39-4.94l-1.29,1.06c-1.37.15-2.28.23-2.58.31-1.9.15-3.8.3-5.7.53l-6.24.53c-1.59.15-3.34.3-5.24.53s-3,.23-3.65.31a7.94,7.94,0,0,1-1.21.07c-1.3,0-2.13-.45-3.2-2a1.76,1.76,0,0,0-1.06,1.9c0,1.21.53,1.9,3.42,4.18,1.6,1.21,2.13,1.52,2.51,1.52H378c2.28-1.14,9.27-2.13,20.6-2.82-.23,8.06-.61,13.91-1.22,19.46-4.86.38-10.34.84-18.39,1.44a82.55,82.55,0,0,1-8.74.69c-2.05,0-3-.61-4.33-2.66-.92.3-1.37,1.14-1.37,2.66,0,1.21.76,2.2,2.88,4,1.53,1.29,3.27,2.43,3.73,2.43a3,3,0,0,0,1.06-.3,108.53,108.53,0,0,1,12.62-2.44,143.11,143.11,0,0,1,17.86-1.52c3.19,0,11.1.46,12,.69a18.5,18.5,0,0,0,2.28.38,2.66,2.66,0,0,0,2.36-2.66C419.3,53.73,418.92,53.28,417.32,52.14Z"/><path class="cls-1" d="M447.19,21a19.52,19.52,0,0,1,8.28,10c1.37,3.12,2,3.72,3.65,3.72s2.81-1.29,2.81-3.34c0-2.51-1.9-5.55-4.71-7.45-2.43-1.67-8.21-3.87-10.26-3.87-.3,0-.46.07-.46.3S446.73,20.67,447.19,21Z"/><path class="cls-1" d="M445.29,39.29c2,0,3.19-1.36,3.19-3.64,0-2.44-2.21-5.48-5.32-7.53s-7.91-3.87-9.65-3.87c-.31,0-.54.15-.54.3s.16.3.76.76c3.35,2.13,5.48,4.86,7.83,9.88C443,38.15,444,39.29,445.29,39.29Z"/><path class="cls-1" d="M474.7,21.21a5.69,5.69,0,0,0-1.9.45.89.89,0,0,0-.61.84,3.65,3.65,0,0,1,2.36,2.89c0,1-2.05,6.38-4,10.48-3.95,8.36-9.35,15.74-14.82,20.45a79.72,79.72,0,0,1-15.2,10c-2,.91-2.05,1-2.05,1.36s.22.38.6.38c2.28,0,11.1-3.64,16.5-6.76,8.89-5.17,15.73-13,22-24.93.84-1.67,1.67-3.27,2.59-4.94.07-.23.45-.84,1-1.9,1-.15,1.52-.53,1.52-1.22s-.76-1.67-2-2.88C477.36,22.27,475.84,21.21,474.7,21.21Z"/><path class="cls-1" d="M546.22,8.28,545,10c-1.14.15-2.2.3-2.58.38s-3.35.3-7.6.68c-6.77.61-14.37,1.52-21,2.43a80.1,80.1,0,0,1-9.27.91c-2.66,0-4.11-.6-5.17-2.28-.53-.76-.61-.83-1.14-1.52a4.65,4.65,0,0,0-1.37,3c0,1.52.46,2.21,2.51,4,2.51,2.28,5.7,4.41,6.46,4.41a1.36,1.36,0,0,0,.76-.46l.68-.91a1.18,1.18,0,0,1,.31-.22c.07-.08,1.52-.31,6.38-1.15,10.26-1.67,16-2.43,28.65-3.57-8.89,21.89-21.58,36.33-41.87,47.66-.76.45-1.14.76-1.14,1.14s.22.38.53.38c1,0,4.18-1.14,8-2.81a74,74,0,0,0,27.06-19.77c4.87-5.62,12.16-16.94,16.11-24.92l1.68-.16c1.06-.07,1.9-.61,1.9-1.37C555,14.67,551.92,12,546.22,8.28Z"/><path class="cls-1" d="M620,52.29a20.42,20.42,0,0,0-5.62-2.58l-2,1.67-8.29.53c-3.26.23-5.7.38-5.93.38l-2.35.08c.3-4.64.3-5,.61-14l.07-2.51.84-.3a1.06,1.06,0,0,0,.53-.91,1.15,1.15,0,0,0-.76-1.07l-2.2-1.06a84.4,84.4,0,0,1,9.35-.38c1.59,0,4,.15,5.47.3l1.29.08a2.42,2.42,0,0,0,2.51-2.43c0-1-.46-1.45-2.36-2.43a17.49,17.49,0,0,0-4.63-1.52l-1.22,1c-1.22.16-2.36.38-2.74.38-.68.08-3.27.38-7.14.76l-7.75.84-5.78.38c-3.5.3-3.5.3-4,.3-2.51,0-2.73-.15-4.41-2.2-.76.23-1,.68-1,2.05,0,.76,0,.76,2.73,3.35,2.21,2.12,2.21,2.12,2.81,2.12a9.67,9.67,0,0,0,2.36-.53,55.57,55.57,0,0,1,9.2-1.67,2,2,0,0,1,1.29,2c.07,1.06.23,7.14.23,9.5,0,3.64,0,6.3-.08,8.28-2.43.23-3.88.3-8.59.61-2.58.23-4.94.38-5.7.45-1.29.16-2.81.23-3.27.23a5.57,5.57,0,0,1-4.79-2.5,3.83,3.83,0,0,0-1.13,2.66c0,.83.6,1.74,1.9,2.88,1,.84,2.05,1.9,2.05,1.9,1.44,1.45,1.82,1.75,2.2,1.75a3.52,3.52,0,0,0,1.52-.53,93.77,93.77,0,0,1,9.88-2.36,124.32,124.32,0,0,1,18.7-1.37c2.36,0,11.7.39,12.31.54a18.45,18.45,0,0,0,2.89.45,3.16,3.16,0,0,0,2.66-2.88C621.61,53.66,621.15,53,620,52.29Z"/></g></g></svg>