<svg xmlns="http://www.w3.org/2000/svg" viewBox="0 0 614.1 111.85"><defs><style>.cls-1{fill:#343434;}</style></defs><g id="Layer_2" data-name="Layer 2"><g id="Layer_1-2" data-name="Layer 1"><path class="cls-1" d="M53.28,33.49c3.57,8.87,10.64,14.61,22.25,18.09l.09,0,0-.07a14.84,14.84,0,0,1,5.89-5.2l.39-.2-.44,0c-7.9-.63-13.87-2.3-18.76-5.26,2.92-1.43,7.59-3.77,10.57-5.29l1.52.06.39,0a1.59,1.59,0,0,0,1.24-.34.91.91,0,0,0,.3-.7c0-.4-.27-.81-.85-1.28l-4.09-3.65-.09.1A98.4,98.4,0,0,1,61.35,39.9a21.24,21.24,0,0,1-6.3-6.41H62v1c0,.63.4,1,1.1,1a9.34,9.34,0,0,0,2.74-.61c.83-.27,1.11-.52,1.11-1.46V22.28l1-.3a1.12,1.12,0,0,0,.74-1.09,1.49,1.49,0,0,0-.63-1.11L63.5,15.46l-.11-.11-1.77,2.93H56.09V14.82l1.49-.67a1.17,1.17,0,0,0,.61-1,1,1,0,0,0-.92-.94l-6.13-.61v6.71h-5l-2.56-1.4A94.63,94.63,0,0,0,55.94,5.33c4.57,7.17,10.28,11.81,19.68,16l.1,0,.06-.08c1.46-2.19,2.32-3.06,5.62-5l.28-.16-.31-.07c-11.33-2.39-19-6-24-11.48l.84-.27a1.12,1.12,0,0,0,.85-1,1,1,0,0,0-.62-.87L52.39,0l-.1,0,0,.09A69.14,69.14,0,0,1,30.52,23.22c-.61.36-.87.65-.87,1a.48.48,0,0,0,.5.44c1.12,0,6-2.53,10.46-5.45V44.7l-.35,0c-2.95.24-3.65.29-7.15.45h-.22l3.85,5.74c.4.57.75.81,1.19.81a1.3,1.3,0,0,0,1.13-.82l.73-1.36,1.78-.5c2-.56,2.55-.73,4.92-1.37,5.87-1.59,8.29-2.33,11.51-3.41.53-.17.79-.42.79-.76a.63.63,0,0,0-.67-.61,4.93,4.93,0,0,0-.68.08l-.14,0c-2.33.27-6.87.78-11.26,1.12V33.49ZM62,26.79v5H46v-5Zm-16-1.7V20H62v5.1Z"/><path class="cls-1" d="M121.38,11.35c1.42.31,3.51,2.2,4.67,4.21.82,1.35,1,1.57,2,1.57a2.23,2.23,0,0,0,2.28-2.29c0-2.44-3.38-4.66-7.09-4.66-1.75,0-2.5.19-2.5.61S120.92,11.19,121.38,11.35Z"/><path class="cls-1" d="M138.91,41.11c2.18,0,4-1.47,4-3.26a4.72,4.72,0,0,0-3.21-3.9,55,55,0,0,1-18.43-11.31c-4.11-3.68-4.11-3.68-4.6-4a6.53,6.53,0,0,0-3.9-1.64c-1.87,0-3.68,1-6,3.44-4.58,4.73-6.93,6.33-9.31,6.33a3.94,3.94,0,0,1-3-1.21l-.09-.08-.08.09a.32.32,0,0,0-.09.22,3.18,3.18,0,0,0-.22,1.27,4.81,4.81,0,0,0,1.5,3.49,8.07,8.07,0,0,0,4.68,2.3c1.63,0,3.1-1.42,6.31-6.1,3.61-5.22,4.55-6.21,5.94-6.21.94,0,1.79.55,3.15,2,1,1.14,6.62,7,8.32,8.7a54.67,54.67,0,0,0,9.47,7.58C135.75,40.48,137.29,41.11,138.91,41.11Z"/><path class="cls-1" d="M127.59,7.57a9.32,9.32,0,0,1,4.57,3.56c.88,1.43,1.13,1.62,2.1,1.62a2.18,2.18,0,0,0,2.34-2.23c0-2.31-3.31-4.33-7.09-4.33-2,0-2.88.24-2.88.77C126.63,7.28,126.79,7.35,127.59,7.57Z"/><path class="cls-1" d="M198.43,33.8c0-6-5.23-10.6-12.17-10.6a17.55,17.55,0,0,0-8.21,1.9l0,0s0,0-.06,0c0-1.53,8.29-10.43,11.83-12.69,1.51-1,2-1.52,2-2.32,0-1.73-4.31-4.61-6.88-4.61a4,4,0,0,0-2.17.77c-3.47,2.23-8.5,4-11.22,4a2,2,0,0,1-2-1.05c-.16-.41-.23-.57-.44-.57-.42,0-.61.59-.61,1.86a4.51,4.51,0,0,0,.88,2.93,4.65,4.65,0,0,0,3.29,2.05c.65,0,1.11-.25,2.45-1.32,3.06-2.41,7.09-4.78,8.14-4.78a.49.49,0,0,1,.46.52c0,2.13-4.56,9-10,15-2.36,2.63-6.31,6.63-8.64,8.74-1.19,1.13-1.55,1.76-1.55,2.68,0,1.86,2,4.34,3.58,4.34.78,0,1.35-.61,2.11-2.23a41.13,41.13,0,0,1,5.17-8.08,13.63,13.63,0,0,1,10.33-5,8,8,0,0,1,5.15,2,8.25,8.25,0,0,1,2.55,6.39,11.58,11.58,0,0,1-1.23,5.4,9.24,9.24,0,0,1-3.57,3.5l-.18-.37q-.1-.21-.18-.33A8.75,8.75,0,0,0,179,37.24c-3.87,0-6.18,1.78-6.18,4.77,0,3.25,3.53,5.36,9,5.36,4.79,0,9.33-1.51,12.12-4A13.2,13.2,0,0,0,198.43,33.8Zm-20.05,5.85c2.28,0,3.68,1.5,4.17,4.46-.3,0-.71,0-1.09,0-3,0-5.55-1.25-5.55-2.68C175.91,40.4,176.93,39.65,178.38,39.65Z"/><path class="cls-1" d="M264.63,44c0-2-1.49-3.31-3.79-3.31l-6.48.7c-6.12,0-9.22-2.06-9.22-6.14a17.89,17.89,0,0,1,.43-3.47.71.71,0,0,0,.06-.31.43.43,0,0,0-.4-.45c-1,0-2.34,3.82-2.34,6.07a8.87,8.87,0,0,0,6,8.7,27.42,27.42,0,0,0,9.55,1.41C263.06,47.15,264.63,46.35,264.63,44Z"/><path class="cls-1" d="M251.08,7.24c1.52.47,3.65,2.59,4.57,4.52.44,1,.86,1.32,1.73,1.32a2.24,2.24,0,0,0,2.23-2.34c0-2.47-3.43-4.72-7.2-4.72-1.36,0-2,.1-2,.62C250.4,7,250.62,7.09,251.08,7.24Z"/><path class="cls-1" d="M247,13.06a1.27,1.27,0,0,0-1.36-1.42A9.72,9.72,0,0,1,239.87,9l.14-.65.1-.61a1.09,1.09,0,0,0,.09-.21c0-.08.07-.18.12-.28a2.8,2.8,0,0,0,.34-1.08c0-1.52-3.3-3.63-5.69-3.63-1.24,0-3.42,1-3.42,1.69,0,.19.24.34.45.34a.54.54,0,0,0,.26,0h.07a3.9,3.9,0,0,1,1.28.47c1,.62,1.51,1.74,1.51,3.61a36.22,36.22,0,0,1-.9,7.57,26.77,26.77,0,0,1-7.4,1c-2.17,0-4.13-.78-4.65-1.88l-.1-.18c-.23-.43-.28-.53-.55-.53s-.39.15-.39.56a8.65,8.65,0,0,0,1.65,4.56,5.16,5.16,0,0,0,4.25,2,26.19,26.19,0,0,0,6.26-.82c-2.43,9.2-5.46,16.5-9.28,22.34-.75,1.13-1,1.59-1,2.23,0,1.61,1.9,3.31,3.69,3.31a3.63,3.63,0,0,0,2.52-1.12c.77-.83,1.27-1.94,2.13-4.75,2.26-7,4.38-14.59,6.47-23.22a41.43,41.43,0,0,0,7.25-3.66A3.48,3.48,0,0,0,247,13.06Zm-4.95.06c0,.27-1.43,1.16-3.6,1.91l.61-2.86.38-1.65C240.92,11.61,242,12.78,242,13.12Z"/><path class="cls-1" d="M247.34,21.61a.33.33,0,0,0,.23-.07,10.33,10.33,0,0,1,4.84-1c1.88,0,3.55.66,3.55,1.17,0,.2,0,.2-1.78,1.36-.88.62-1.5,1-1.88,1.29l-.39.27c-.33.17-.49.36-.49.59a.48.48,0,0,0,.45.4c.08,0,.14,0,.7-.23a13.68,13.68,0,0,1,5.24-1,15.44,15.44,0,0,1,3.32.37l.57.14a2.08,2.08,0,0,0,.43.08c1.06,0,1.64-.67,1.64-1.9,0-3.31-3.51-5.8-8.17-5.8A12.81,12.81,0,0,0,249,19c-.93.62-2.06,1.79-2.06,2.32C246.94,21.46,247.18,21.61,247.34,21.61Z"/><path class="cls-1" d="M256.76,3.57A8,8,0,0,1,261.05,7c1.13,1.88,1.22,2,2.38,2a2.18,2.18,0,0,0,2.23-2.28c0-2.19-3.43-4.34-6.93-4.34-.8,0-2.66.06-2.66.61S256.59,3.53,256.76,3.57Z"/><path class="cls-1" d="M297.56,24.66c-.36,0-.6.33-.93,1.26-.06.15-.15.38-.26.68-.19.47-.43,1.12-.76,1.91-.48,1.18-1.66,4.12-2.33,6.06-.31.87-.58,1-.8,1-.7,0-1.49-2.3-1.49-5.38,0-3.29.94-7.44,2.8-12.32,1.2-3,1.41-3.83,1.41-4.91,0-2.34-1.52-4.6-4.27-6.37a8.88,8.88,0,0,0-3.25-1.37.49.49,0,0,0-.51.45.58.58,0,0,0,.32.48c1.33,1,1.95,2.7,1.95,5.3a32,32,0,0,1-.48,4.79c-1.66,9.09-1.79,9.87-1.79,13.79,0,7.39,3.55,14.38,7.31,14.38a2.23,2.23,0,0,0,2.28-2.12,1.76,1.76,0,0,0-.17-.76,7.65,7.65,0,0,1-.85-4.05,53.06,53.06,0,0,1,2-10.61,7,7,0,0,0,.33-1.65C298.06,24.73,297.75,24.66,297.56,24.66Z"/><path class="cls-1" d="M319.71,28.13c0-1.73,0-2.94-.17-6.56l0-1c6.41-2.27,8.8-3.73,8.8-5.38,0-.81-.46-1.38-1.63-2.05a4.91,4.91,0,0,0-2.22-.83,2.16,2.16,0,0,0-1.88,1.13c-.73.88-1.37,1.31-3.66,2.41,0-.66,0-1.4,0-2.26s0-1.51.05-2.39a7.28,7.28,0,0,1,.37-2.44c.22-.45.28-.56.28-.75,0-1.81-3.39-4.29-5.85-4.29-1.37,0-3.8.86-3.8,1.48,0,.23.22.39.5.39h0c2.92.26,3.71,2.68,3.82,11.72a17.44,17.44,0,0,1-5.54,1.05c-2.07,0-4.42-.7-5.15-1.53-.5-.56-.52-.58-.74-.58a.48.48,0,0,0-.45.45,7.81,7.81,0,0,0,1.65,2.73A7.76,7.76,0,0,0,310,22a21.6,21.6,0,0,0,4.63-.51c0,10.62-.39,13.62-2.26,17.72A19.08,19.08,0,0,1,303.07,48c-1.13.51-1.16.52-1.16.82a.66.66,0,0,0,.62.56,26.83,26.83,0,0,0,6.8-2.28C316.9,43.41,319.71,38.27,319.71,28.13Z"/><path class="cls-1" d="M374.75,9c2,.51,3.78,2.06,5.37,4.58a1.55,1.55,0,0,0,1.62,1,2.22,2.22,0,0,0,2.4-2.23c0-2.35-3.43-4.5-7.2-4.5-1.87,0-2.67.2-2.67.67C374.27,8.8,374.51,8.93,374.75,9Z"/><path class="cls-1" d="M369.24,13.67c1.74.47,3.5,2.12,4.94,4.63.56,1.18.87,1.42,1.84,1.42a2.18,2.18,0,0,0,2.23-2.28c0-2.42-3.52-4.88-7-4.88-1.77,0-2.5.08-2.5.61C368.77,13.44,369,13.57,369.24,13.67Z"/><path class="cls-1" d="M385,39.6c1.42-1.85,3.16-5,3.16-5.69,0-.3-.17-.51-.4-.51a.47.47,0,0,0-.42.33,25.48,25.48,0,0,1-4.95,4.88,21.58,21.58,0,0,1-13.1,4.73c-5.56,0-8.62-3.52-8.62-9.92,0-4,1.71-16.51,2.48-19,1-2.94,1.08-3.35,1.08-4.3,0-3.46-3.71-7-7.36-7-1.07,0-2.71.47-2.71,1a.37.37,0,0,0,.38.34h0c1.92.2,2.86,2.14,2.86,5.92,0,.72-.12,3.24-.33,6.69-.75,13.61-.75,14-.75,15.94,0,10.08,4.48,15.4,13,15.4C375.19,48.5,380.62,45.42,385,39.6Z"/><path class="cls-1" d="M442.12,18.82a20.23,20.23,0,0,0-5.76,1c0-1.58-.48-2.47-1.65-3h0a4.77,4.77,0,0,1-3.36-1.47,4.14,4.14,0,0,1-1.37-2.83.59.59,0,0,1,.05-.29,1.35,1.35,0,0,0,.06-.42.48.48,0,0,0-.4-.45c-.89,0-1.85,2-1.85,3.37A6.16,6.16,0,0,0,428.9,18a.56.56,0,0,1-.23.07.59.59,0,0,1-.27,0l0,0a44.33,44.33,0,0,0-6-.64c-3,0-5.15,1.52-5.15,3.63a3.06,3.06,0,0,0,1,2.14,30,30,0,0,1,2.26,2.48,14.63,14.63,0,0,1,1.33,1.87c-4,2.3-5.23,2.84-6.68,2.84s-2.65-.56-2.85-1.31c-.06-.23-.14-.37-.39-.37-.42,0-.67.91-.67,1.75A5.12,5.12,0,0,0,416,35.22a6.66,6.66,0,0,0,3.85-1.81c.5-.36,1-.73,1.42-1.07l.8-.6,1.84-1.44c2.05,2.84,4.27,8.7,5.79,15.35.67,3.26,1.19,4.42,2.77,4.42a3.27,3.27,0,0,0,3.09-3.2c0-1.55-1.53-5.17-2.82-7.94a90,90,0,0,0-6.15-10.72c6.89-5.16,9.93-6.65,13.49-6.65s5.39,1.81,5.39,5.11-2.62,5.71-6.52,5.71a15,15,0,0,1-6.69-2c-.5-.28-.51-.28-.65-.28a.52.52,0,0,0-.45.5c0,.29.25.66,1.5,1.67,3.23,2.57,5.4,3.48,8.29,3.48a9.4,9.4,0,0,0,9.68-9.31C450.61,21.89,447.2,18.82,442.12,18.82Zm-9.57,2.75c-3.36,1.71-4.68,2.43-7.51,4.17-.45-.68-.73-1.1-.94-1.43s-.4-.59-.62-.95C422.23,21.51,422,21,422,20.24s.84-1.17,2.31-1.17a13.73,13.73,0,0,1,6.58,1.72A12.82,12.82,0,0,0,432.55,21.57ZM428.92,18Z"/><path class="cls-1" d="M495,14.47c2.49-1.33,3.46-2.55,3.46-4.32,0-1.35-.3-1.64-1.79-1.69-2.2,0-3.8-.39-4.62-1.12,0-.24.08-.46.11-.66.11-.58.19-1.08.31-2v0l0,0a4.92,4.92,0,0,0-4.59-2.44c-1.62,0-3.79.76-3.79,1.53,0,.34.35.35.56.34a2.76,2.76,0,0,1,2.05.82,3.41,3.41,0,0,1,1,2.46,17.82,17.82,0,0,1-1.05,5.51,19.58,19.58,0,0,1-5.84,1.06c-2.28,0-4.34-1-4.91-2.3-.16-.38-.3-.51-.54-.51a.5.5,0,0,0-.51.5,8.32,8.32,0,0,0,1.32,3.75,6.23,6.23,0,0,0,5.34,2.37,28.58,28.58,0,0,0,4-.34c-2.54,6.87-6.35,12.83-10.48,16.38-1.29,1.18-1.77,1.89-1.77,2.63a3.19,3.19,0,0,0,3.21,3,4.43,4.43,0,0,0,3.33-1.51c.54-.64.74-.94,2.77-4.71,2.39-4.4,4-8,7.49-16.75A21.72,21.72,0,0,0,495,14.47Zm-1.38-4.59c0,.35-.5,1-2.86,2l.2-.69c.35-1.21.48-1.66.76-2.78C493.33,9.47,493.61,9.73,493.61,9.88Z"/><path class="cls-1" d="M502.59,46.39c.72-1.18,1-2.27,1.09-4.77A21.56,21.56,0,0,1,509,45.71c1.2,1.21,2,1.66,2.89,1.66a2.64,2.64,0,0,0,2.4-2.72c0-2.69-4.26-5.76-10.6-7.66a76,76,0,0,1-1-8.65c0-3.85,1.59-6,4.47-6a12.69,12.69,0,0,1,5.61,1.55l0,0h0a2.47,2.47,0,0,0,2-2.71c0-3.62-3.76-6.55-8.38-6.55-2.53,0-6.66,1.21-6.66,2.17a.48.48,0,0,0,.45.45,1.31,1.31,0,0,0,.4-.05l1.65-.06c2.82,0,5.49,1.2,5.49,2.47,0,.37-.1.47-1.31.8a10.22,10.22,0,0,0-6.94,5.8c-.66,1.69-.87,4.07-.88,9.73-1.1-.09-1.7-.09-2.52-.09A15.62,15.62,0,0,0,489,37.31a6.26,6.26,0,0,0-3.31,5.18c0,4.08,4.19,7.15,9.74,7.15C498.88,49.64,501.34,48.51,502.59,46.39Zm-8.74-7.55a13.89,13.89,0,0,1,4.84.88V41.2c0,2.52-1.71,4.08-4.46,4.08-3.09,0-5.17-1.27-5.17-3.17S491,38.84,493.85,38.84Z"/><path class="cls-1" d="M562.06,19.5c5.46-.27,9.37,3.92,10.23,10.91.22,2.6.28,2.74.85,3.42a2.62,2.62,0,0,0,1.82.74c2,0,3.58-1.86,3.58-4.23a12,12,0,0,0-3.33-7.91,12.76,12.76,0,0,0-10-4.58c-1.65,0-3.86.62-3.86,1.26,0,.15.09.39.67.39Z"/><path class="cls-1" d="M553.52,28.22c-.32,0-.81.69-2.81,4.77-1.78,3.61-1.78,3.61-2.16,4.14a1.7,1.7,0,0,1-1.3.92c-.4,0-1-.52-1.73-1.41-1.73-2.21-2.57-5.24-2.57-9.27A32.77,32.77,0,0,1,544.24,18c.6-2,.6-2,.6-2.36a6.59,6.59,0,0,0-1.6-3.76h0a10.74,10.74,0,0,0-7-2.68c-.48,0-.83.19-.83.45a.59.59,0,0,0,.34.48c1.88,1,2.8,3.08,2.8,6.37,0,.53,0,1.13-.06,1.94-.11,2.45-.21,4.93-.21,6,0,6.8,1.38,12.06,4.23,16.06,2.44,3.36,5.51,5.29,8.42,5.29,1.53,0,2.88-1,2.88-2.18a1.18,1.18,0,0,0-.13-.5,7.19,7.19,0,0,1-1.6-4.58A31,31,0,0,1,554,29a.46.46,0,0,0,.07-.28A.5.5,0,0,0,553.52,28.22Z"/><path class="cls-1" d="M33.28,83.58c-4.18,0-8.14,1.28-14.56,4.72V86c0-1.2,0-2.16.08-3.27l0-.64c5.95-2.28,9-4.63,9-7a1.49,1.49,0,0,0-1.42-1.63,6.54,6.54,0,0,0-.81,0h-.38c-1.42,0-2.81-.38-5.91-1.63a6.09,6.09,0,0,1,.63-2.14c.22-.44.28-.56.28-.75,0-1.5-3.05-3.58-5.26-3.58-1.44,0-3.8,1.13-3.8,2a.54.54,0,0,0,.51.44h.16a.88.88,0,0,1,.54-.15c1.56,0,2.26,1.22,2.57,4.48.33,3.52.43,5.18.44,6.7A20.88,20.88,0,0,1,9,80c-2.16,0-3.26-.46-3.67-1.54a.39.39,0,0,0-.38-.3c-.42,0-.51.55-.51,1.37,0,2.62,2,4.39,4.93,4.39a26.45,26.45,0,0,0,6.1-.89c.15,2.05.15,3.19.15,6.74-1.32.67-2.46,1.27-3.91,2L7.46,94c-3.21,1.77-3.21,1.77-3.88,1.77A1,1,0,0,1,3,95.53C2.3,95,2.27,95,1.91,95A2.16,2.16,0,0,0,0,97.36c0,2.23,2.62,5.42,4.45,5.42.7,0,1-.21,3.06-2.52.63-.67.9-1,1.16-1.27l.49-.55c2.89,2,4.45,4.62,4.29,7.29,0,1.23.15,1.64,1.09,1.64,2.33,0,5-2.57,5-4.82a2.74,2.74,0,0,0-.06-.61c-.22-2.5-.29-3.79-.49-7.21l-.15-2.67,0-.63C25.26,87.4,28.61,86,32,86c3.24,0,5.33,2.34,5.33,6a8.21,8.21,0,0,1-8.08,8.3c-2.62,0-4.31-1.88-4.31-4.79a9.18,9.18,0,0,1,.86-3.64s0-.08,0-.11a.87.87,0,0,0,.07-.3c0-.16-.14-.4-.34-.4-.58,0-1.32.82-2,2.2a9.72,9.72,0,0,0-1.05,3.92A10.54,10.54,0,0,0,23.72,102c1.22,2,3.27,3,6.27,3A12.7,12.7,0,0,0,42.86,92.5C42.86,87.16,39,83.58,33.28,83.58Zm-11-8.52c0,.83-1.29,1.89-3.31,2.73l0-2.24L19,73.31l1.75.87L22,74.8C22.25,74.9,22.25,74.92,22.25,75.06ZM15.88,98.6c0,1-.25,1.66-.63,1.66s-2-.92-5-3c1.93-1.57,3-2.4,5.6-4.23,0,1.28,0,1.82,0,2.67Z"/><path class="cls-1" d="M40.68,73.48a12.48,12.48,0,0,0-7.2,2.23c-.7.47-1,.76-1,1s.15.45.39.45.13,0,.69-.17a7.93,7.93,0,0,1,2.55-.42,9.4,9.4,0,0,1,5.06,1.6,9.57,9.57,0,0,1,3,3.34c.49,1.35.5,1.38.84,1.66a2.61,2.61,0,0,0,1.65.69c1.67,0,3.31-1.88,3.31-3.8C50,76.38,45.9,73.48,40.68,73.48Z"/><path class="cls-1" d="M106.5,82.66l-4,4.26H88.81V79.6l.76-.61a1.15,1.15,0,0,0,.43-.91,1.08,1.08,0,0,0-.13-.44c1.07-.7,1.36-.88,2.17-1.37l.66-.4c.82-.55,1.63-1,2.42-1.51l1.73-1.08c1-.6,2-1.21,3.76-2.36l1.91-.11c1.08-.08,1.3-.67,1.3-1.15a1.65,1.65,0,0,0-.52-1.17l-4.79-4.74L96,66.56H78.32c-3.17,0-4.76,0-9.39-.27h-.24L70,68.49h.07c3.9-.16,5.39-.22,8.21-.22H95.14A83.94,83.94,0,0,1,88,76.65l-4.41-1V86.92H72.22c-2.79,0-5,0-10.64-.32h-.22l1.28,2.31.45,0c4.32-.2,5.35-.25,9.13-.25H83.59v14.24c0,1.34-.17,1.5-1.65,1.5-.47,0-4.1-.17-5.29-.27-.8-.06-1.77-.11-2.11-.11-.53,0-.72.28-.72.55,0,.54.39.7,4.68,1.91,3.53,1,3.75,1.18,3.85,2.37s.11,1.16.17,1.27a1,1,0,0,0,.93.63,9.87,9.87,0,0,0,3.19-1.15A3.4,3.4,0,0,0,88.81,106V88.63H111.1a.75.75,0,0,0,.77-.77,1.49,1.49,0,0,0-.42-.85Z"/><path class="cls-1" d="M164.41,70.85a2.25,2.25,0,0,0-2.28-2.07,2,2,0,0,0-.5,0c-1.29.11-1.29.11-1.5.11a14.91,14.91,0,0,1-3.73-.74.5.5,0,0,0-.27-.07.35.35,0,0,0-.34.34c0,.23.16.37.43.54,1,.72,1.41,1.24,1.41,1.41,0,1-2,2.79-4.76,4.16l-2.74-3.21-1.9-2.23c-.53-.58-.72-.93-.72-1.32,0-.8.94-1.44,2.14-1.44H150a2.86,2.86,0,0,0,.57.11c.29,0,.5-.17.5-.39,0-.88-3.91-2.78-5.31-2.78-2.21,0-4.55,2.15-4.55,4.18,0,1,.25,1.28,2.27,2.64,2.55,1.7,3.17,2.31,6.06,5.61a32.28,32.28,0,0,1-10.09,1.67c-3.72,0-5.83-.7-7.52-2.49a.41.41,0,0,0-.37-.21.36.36,0,0,0-.29.34,7.32,7.32,0,0,0,.72,2c1.53,3.11,4.54,4.82,8.48,4.82a36.74,36.74,0,0,0,12.11-2.46c4.33,5.87,6.34,9.84,6.34,12.49a.27.27,0,0,1-.3.3,2.42,2.42,0,0,1-.86-.31,22.72,22.72,0,0,0-11-2.65c-6.86,0-11.47,3.73-11.47,9.3a9.4,9.4,0,0,0,4.54,7.88c2.58,1.6,7.23,2.67,11.57,2.67,3.77,0,6.6-1.17,6.6-2.72a3.94,3.94,0,0,0-3.41-3.53,6,6,0,0,0-1.39.22,8.72,8.72,0,0,1-2.83.32c-7,0-11-2-11-5.6,0-4.14,2.7-6.62,7.22-6.62a17.38,17.38,0,0,1,6.8,1.77A29.63,29.63,0,0,1,160,97.61a2.23,2.23,0,0,0,1.93.85c2.45,0,3.69-1.73,3.69-5.15s-2.24-6.91-10-15.24C160.49,75.94,164.41,72.72,164.41,70.85Z"/><path class="cls-1" d="M227.05,82.57a1.79,1.79,0,0,0-.63-1.27,1.55,1.55,0,0,0-1.12-.48l-.7.06a7.19,7.19,0,0,1-3.38-1.17c-1-.78-1-.78-1.1-.78a.46.46,0,0,0-.39.4.68.68,0,0,0,.23.49,3.24,3.24,0,0,1,.52,1.5c0,1.42-1.22,2.11-5.92,3.3a19.45,19.45,0,0,1-.15-2.81c0-1.79.05-2.59.16-4,4.48-1.09,6.49-2,6.49-3s-1.62-2.22-3.94-2.71l-.09,0-.05.1c-.29.64-.68.89-2.12,1.33a13.22,13.22,0,0,1,1.38-6,2.49,2.49,0,0,0,.39-1.13c0-2-3.15-4.07-6.12-4.07-1.21,0-3.58.68-3.58,1.26,0,.34.43.34.61.34A2.83,2.83,0,0,1,209.8,66c.42,1,.48,2,.64,8.33a7.51,7.51,0,0,1-2.25.3c-2.45,0-4.94-1.13-5.55-2.51a.41.41,0,0,0-.39-.3c-.23,0-.4.21-.4.5,0,4,2.31,6.28,6.5,6.28.52,0,.9,0,2.36-.1l.1,6.83a57.72,57.72,0,0,1-6.67.53c-4.22,0-7-1-8-3l-.13-.2c-.31-.52-.37-.61-.68-.61-.15,0-.39.14-.39.34v.1l0,0a1.69,1.69,0,0,1,0,.37A9.26,9.26,0,0,0,196.7,87c1.56,1.9,3.87,2.74,7.49,2.74a46.33,46.33,0,0,0,6.68-.57c0,1.45,0,1.71,0,4L211,96.3a18.21,18.21,0,0,0-2.52-.14c-4.22,0-6.51.42-8.76,1.63a5.07,5.07,0,0,0-2.87,4.43c0,3.64,4.07,6.18,9.9,6.18,5.34,0,9.52-2.74,9.52-6.23v-.52a26.77,26.77,0,0,1,5.89,5c1,1,1.46,1.28,2.41,1.28a2.29,2.29,0,0,0,2.39-2.55c0-1.67-1-3.15-3.34-4.8A22.19,22.19,0,0,0,216,97.16a86.45,86.45,0,0,1-1-8.66C223.21,86.63,227.05,84.75,227.05,82.57ZM205.65,99a19.24,19.24,0,0,1,5.49.72v.23c0,3.21-1.7,4.84-5.06,4.84s-5.76-1.2-5.76-3.06S201.91,99,205.65,99Z"/><path class="cls-1" d="M276.44,68.51a24.47,24.47,0,0,0-16.57,6.62,21.68,21.68,0,0,0-7,15.59,14.08,14.08,0,0,0,2.67,8.77c1.31,1.8,3.18,3,4.64,3,3,0,7.72-3.81,10.95-8.86A34.58,34.58,0,0,0,276.51,76a20.48,20.48,0,0,0-.67-5.45c.51,0,.84,0,1,0a12.75,12.75,0,0,1,5.51,1.28c4.68,2.37,7.06,7.22,7.06,14.42,0,6.61-2.18,11.47-6.87,15.29a29,29,0,0,1-9.62,5c-.88.28-1.12.35-1.12.71s.25.45.67.45a23.87,23.87,0,0,0,3.48-.65,33.69,33.69,0,0,0,10-3.68A20,20,0,0,0,296,86a16.53,16.53,0,0,0-4.3-11.48C288.24,70.74,282.53,68.51,276.44,68.51ZM261,96.48c-1.61,0-3-2.74-3-5.87a21,21,0,0,1,6.33-15h0c2.45-2.29,4.58-3.47,8.69-4.8a.13.13,0,0,0,0,.06.66.66,0,0,0,.06.2,12.93,12.93,0,0,1,.32,3c0,4.75-2.05,10.76-5.49,16.08C265.61,93.71,262.57,96.48,261,96.48Z"/><path class="cls-1" d="M357.38,88.44l-3.45,3.94H339.86V82.69H358a.65.65,0,0,0,.72-.66,1,1,0,0,0-.53-.91l-4.52-3.86L350.31,81H339.86V70.25l4.69-.92c3.28-.64,4.17-.81,7.12-1.33H354c.65,0,.88-.34.88-.66a1.5,1.5,0,0,0-.41-.85l-4.39-4.38-.08,0c-6.39,3.11-18.31,6.42-31.88,8.84-3.29.62-3.29.62-3.29,1.21s.55.66,1.32.66c2.79,0,13.55-1,18.18-1.7V81h-7.49c-2.07,0-4.19,0-10.63-.32H316L317.36,83h.08c4.93-.21,7.05-.27,9.44-.27h7.49v9.69H322.94c-.81,0-2.12,0-3.63-.08L312.09,92l1.22,2.32,5.32-.17c1.67-.11,3.13-.11,4.31-.11h11.43v9.44c0,1.1-.08,1.22-2.52,1.22-2,0-2,0-4.37-.11l-1.73,0c-.5,0-.83.2-.83.5,0,.51.05.53,2.62,1.28l.28.09c1,.26,1.95.55,3,.86l1.39.43c.53.24.69.48.8,1.79.09.93.33,1.51,1.2,1.51a9.64,9.64,0,0,0,3.3-1c2-1,2.39-1.73,2.39-4V94.08h22.07c.29,0,.55-.38.55-.82a.87.87,0,0,0-.36-.69Z"/><path class="cls-1" d="M419.75,69.21l-3.61,4.27H401.45c1.41-2.45,2.25-4,3.39-6.47l1.78-.53a1.25,1.25,0,0,0,.95-1.19,1.16,1.16,0,0,0-.77-1.09l-6.25-3,0,.15c-1.71,8.45-6.16,18.55-10.83,24.57a1.49,1.49,0,0,0-.46.84.5.5,0,0,0,.51.5c.57,0,1.63-.87,3.76-3.12a55.35,55.35,0,0,0,7-9h.57v34.28c0,.92.27,1.2,1.15,1.2,2,0,4-1,4-2V95.6h15.91a.8.8,0,0,0,.67-.83,1.25,1.25,0,0,0-.42-.85L417.92,90l-3.83,3.88h-7.92v-8.5H421.7a.84.84,0,0,0,.78-.88,1.06,1.06,0,0,0-.43-.8l-4.68-3.86-3.44,3.83h-7.76v-8.5H424.3a.79.79,0,0,0,.71-.88,1.06,1.06,0,0,0-.42-.85Z"/><path class="cls-1" d="M387.51,75.7l-.63-.23c1.29-2.8,2.5-5.83,3.6-9l1.29-.52a1.17,1.17,0,0,0,.9-1,1.49,1.49,0,0,0-.83-1.25L386,61.17l0,.15c-1.84,10.44-6.43,22.3-11.16,28.85l0,.06c-.36.58-.46.73-.46.92a.65.65,0,0,0,.61.61c.88,0,4.51-4.3,7-8V110c0,.85.2,1.1.88,1.1,1.74,0,4.07-.89,4.07-1.8V78.15l.74-.44a1,1,0,0,0,.56-.92A1.15,1.15,0,0,0,387.51,75.7Z"/><path class="cls-1" d="M467.06,71.37c-3.72,0-7.08,3.31-10.26,10.12q-.53,1.11-1,1.11c-.22,0-.53-.69-.53-1.82,0-2.3,1-5.36,3-9.34,1.74-3.47,2-4,2-5,0-2.5-3.61-5.36-6.77-5.36-1.25,0-2.77.42-2.77.94,0,.32.31.4.54.44,1.85.26,2.65,1.44,2.65,3.93,0,1.8-.26,3.43-1.19,7.59a45.31,45.31,0,0,0-1.46,10.5c0,6.28,2.07,11.2,4.71,11.2a3,3,0,0,0,2.56-2.83,4.7,4.7,0,0,0-.22-1.27,14.09,14.09,0,0,1-.54-3.43c0-6.45,4.19-13.8,7.87-13.8,2.62,0,4.25,4.64,4.25,12.13,0,7-1.73,12.54-5.15,16.33a31.09,31.09,0,0,1-9.2,6.78l-.19.08c-.64.3-.74.35-.74.68a.49.49,0,0,0,.5.45,2.24,2.24,0,0,0,.76-.18c.1-.05.59-.17,1.17-.32A33.81,33.81,0,0,0,466,106c6.45-4.54,9.72-11.15,9.72-19.65C475.72,77.39,472.24,71.37,467.06,71.37Z"/><path class="cls-1" d="M512.2,75.32l-.37-.16c1.13-2.68,1.71-4.31,3.17-8.47l.81-.21c1-.34,1.49-.77,1.49-1.41s-.41-1-1.1-1.25l-5.65-2.49,0,.15c-2.55,13.31-4.94,20.35-9.81,29-1.32,2.24-1.32,2.24-1.32,2.44a.49.49,0,0,0,.51.5c.77,0,4.1-4,6.84-7.88v24.44c0,1.28.28,1.59,1.42,1.59,2.27,0,3.58-.8,3.58-2.18V78l.5-.4c.51-.51.74-.8.74-1.17A1.18,1.18,0,0,0,512.2,75.32Z"/><path class="cls-1" d="M547.53,92.73a37.66,37.66,0,0,1-12.95-13.49c-.41-.87-.85-1.81-1.33-2.87h15.41a1,1,0,0,0,1.09-1,1.8,1.8,0,0,0-.91-1.4l-4.58-3.42-3.44,4.16h-8.18V64.94l1.15-.4a1.18,1.18,0,0,0,1-1.25c0-.54-.24-1.19-1.41-1.26l-6-.55V74.67h-4.74c-2,0-4-.06-9.34-.28h-.21l1.1,2.2h.09c3.81-.16,5.24-.22,8.36-.22h3.71A67.81,67.81,0,0,1,513.46,98.3c-1,1.16-1.22,1.46-1.22,1.65a.59.59,0,0,0,.51.51c.46,0,2.92-1.89,4.62-3.44a60.29,60.29,0,0,0,10-12.08V96.43H526.3c-1.42,0-2.49,0-3.13-.06l-4.31-.17,1,2.1,1.17,0c2.44-.08,3.67-.13,5.28-.13h1.07V110c0,1.07.37,1.42,1.52,1.42a6.42,6.42,0,0,0,2.48-.5,1.72,1.72,0,0,0,1.27-2V98.13h8.08c.74,0,1.2-.12,1.2-.77a1.37,1.37,0,0,0-.63-1L537.52,93l-3,3.4h-1.92v-17c3,8.46,7.37,15,13.45,20l.11.09.08-.12c1.61-2.52,2.54-3.41,4.76-4.54l.21-.11-.21-.11Z"/><path class="cls-1" d="M571.06,93.31h0l0,0a.26.26,0,0,0-.19-.09l-.24.09c-.2.08-.32.13-.32.36a.45.45,0,0,0,.13.34,9.08,9.08,0,0,1,1.87,5c.17,1.47.65,2.21,1.42,2.21a2.1,2.1,0,0,0,1.85-2.07,6.42,6.42,0,0,0-1.27-3.37,10.49,10.49,0,0,0-3-2.42Z"/><path class="cls-1" d="M613.83,107.18c-7.82-3.4-12.56-7.53-14.87-13h5.41v2c0,.55.37.82,1.1.82,2.87,0,3.47-.91,3.47-1.69V87.62l.39-.13a1,1,0,0,0,.8-1,1.81,1.81,0,0,0-.58-1.16l-3.68-3.74-1.66,2.73h-5.32v-5h4.31c.95,0,1.15-.47,1.15-.88a1.37,1.37,0,0,0-.48-1l-3.66-3.16-2.53,3.3h-7.56a49.55,49.55,0,0,0,7.56-12.24c3,7.71,6.59,12.91,11.71,16.83l.11.1.07-.14a8.57,8.57,0,0,1,4.27-4.16l.22-.11-.22-.11c-8.24-4.2-12.29-7.79-14.91-13.23l.44-.26a1.12,1.12,0,0,0,.66-1c0-.53-.39-.78-1.22-1.09l-4.76-1.6,0,.12c-3.23,9.84-5.13,13.84-9.19,19.29l-3.62-3.18-2.74,3.46H576.7v-5.8h7.22c.87,0,1.31-.32,1.31-.94a1.68,1.68,0,0,0-.64-1.17l-3.5-2.84-2.52,3.24H576.7V66.81h8.79c.74,0,1.2-.27,1.2-.71a1.36,1.36,0,0,0-.58-.91L582,61.76l-2.53,3.35H569.42l-5-2.29v29c0,.74.19,1,.77,1a11.18,11.18,0,0,0,2.9-.43,1.07,1.07,0,0,0,.84-1.15V89.44h10.56c0,.64,0,1.08,0,1.44a66.35,66.35,0,0,1-.81,9.59c-.69,4.27-1.35,5.14-3.93,5.14a27.44,27.44,0,0,1-2.79-.22c-2.87-.43-2.87-.43-3-.43a.51.51,0,0,0-.55.5c0,.31.25.45.61.66l1.62.75.59.27.59.27c.56.3,1,.51,1.12.58l0,0c.5.22.58.35.58.58a3.09,3.09,0,0,1-.05.63,3.26,3.26,0,0,0-.06.67c0,1.13.46,1.53,1.75,1.53a6.83,6.83,0,0,0,3.57-1c1.8-1.1,2.74-2.61,3.46-5.59.87-3.66,1.09-5.52,1.51-13.22l.4-.14a1,1,0,0,0,.79-1,1.45,1.45,0,0,0-.35-1L580.77,85,579,87.73H576.7V81.88h6.67c-1.31,1.47-1.47,1.68-1.47,1.93a.53.53,0,0,0,.51.5c.64,0,4.35-3.13,6.15-5.08h5.82v5H590l-4.63-2V97.2c0,.71.13,1.1.83,1.1a8.1,8.1,0,0,0,2.74-.55c.64-.23.89-.66.89-1.52v-2H594c-.66,7.19-3.16,11.23-9.49,15.38-2.49,1.49-2.49,1.49-2.49,1.83a.43.43,0,0,0,.4.45,6.52,6.52,0,0,0,1.88-.49,26.36,26.36,0,0,0,10.15-6.79c1.8-2.17,2.62-4,3.69-8.1a28.86,28.86,0,0,0,10.61,14.77l.1.06.07-.09a9,9,0,0,1,4.92-3.8l.27-.11ZM604.37,86v6.51h-5.74c.15-2.16.21-3.6.26-6.51Zm-10,0,0,1.58c-.08,2.4-.13,4-.21,4.93h-4.3V86Zm-22-19.17v5.91h-3.43V66.81Zm0,7.62v5.74h-3.43V74.43Zm0,7.45v5.85h-3.43V81.88Z"/><path class="cls-1" d="M577.22,97.76a1.7,1.7,0,0,0,1.69-1.86c0-1.39-1-2.79-2.76-3.83a8.09,8.09,0,0,0-2.92-1.2.46.46,0,0,0-.45.39c0,.16.09.3.36.57a9.31,9.31,0,0,1,2,2.93C576.14,97.42,576.32,97.76,577.22,97.76Z"/><path class="cls-1" d="M571.46,101.41A9.29,9.29,0,0,0,569.38,96c-1.33-1.5-1.62-1.5-1.71-1.5a.46.46,0,0,0-.4.39,3.06,3.06,0,0,0,.17.59,8.45,8.45,0,0,1,.75,4.11v.86c0,.6-.06,1.1-.08,1.44s0,.46,0,.51c0,.89.49,1.47,1.26,1.47A2.28,2.28,0,0,0,571.46,101.41Z"/><path class="cls-1" d="M565.45,94.64c-.32,0-.34.31-.34.78a9,9,0,0,1-2.35,6.57,4.55,4.55,0,0,0-1,2.5,1.82,1.82,0,0,0,2,2c1.92,0,3.26-2.32,3.26-5.63C567,98.88,566.11,94.64,565.45,94.64Z"/></g></g></svg>