<svg xmlns="http://www.w3.org/2000/svg" width="475.689" height="81.71" viewBox="0 0 475.689 81.71">
  <defs>
    <style>
      .cls-1 {
        fill: #333;
        fill-rule: evenodd;
      }
    </style>
  </defs>
  <path id="外はサクッ_中はジュワッと_素材の旨味が広がる石窯料理" data-name="外はサクッ、中はジュワッと 素材の旨味が広がる石窯料理" class="cls-1" d="M630.619,3218.35l0.7-.35a0.645,0.645,0,0,0,.448-0.61,0.724,0.724,0,0,0-.7-0.67l-3.359-.32v11.9a13.116,13.116,0,0,1-2.272-4.77l0.48-.16a0.433,0.433,0,0,0,.32-0.41,0.675,0.675,0,0,0-.32-0.52l-2.72-2.3-1.056,1.89h-4.8c0.48-1.38.544-1.6,1.024-3.11l0.736-.32a0.656,0.656,0,0,0,.544-0.6,0.642,0.642,0,0,0-.48-0.58l-3.776-1.02a37.971,37.971,0,0,1-5.375,16.76,2.1,2.1,0,0,0-.48.96,0.185,0.185,0,0,0,.16.2c0.608,0,3.552-3.62,4.8-5.89,1.184,0.93,1.536,1.5,2.464,3.81,0.416,1.02.832,1.44,1.44,1.4a3.538,3.538,0,0,0,.48-0.06,23.135,23.135,0,0,1-8.607,9.5,0.7,0.7,0,0,0-.384.48,0.16,0.16,0,0,0,.192.16,19.342,19.342,0,0,0,3.3-1.57,19.915,19.915,0,0,0,8.287-8.41,38.644,38.644,0,0,0,3.3-8.96,18.4,18.4,0,0,0,2.752,6.34v13.53c0,0.51.128,0.7,0.511,0.7a7.784,7.784,0,0,0,1.856-.41,0.622,0.622,0,0,0,.544-0.67v-9.83a25.775,25.775,0,0,0,6.5,4.45,8.863,8.863,0,0,1,2.88-2.88,26.282,26.282,0,0,1-9.376-4.67v-12.99Zm-8.543,4.54a46.486,46.486,0,0,1-2.3,8.67c-0.384-2.08-2.016-3.26-4.992-3.64a52.051,52.051,0,0,0,2.272-5.03h5.024Zm50.143,0.51a6.908,6.908,0,0,1-3.328-.92,4.459,4.459,0,0,1,.448-1.41,0.958,0.958,0,0,0,.128-0.45c0-.8-2.24-2.24-3.488-2.24-0.8,0-2.047.51-2.047,0.83a0.176,0.176,0,0,0,.192.16h0.128a2.026,2.026,0,0,1,.256-0.03,1.645,1.645,0,0,1,1.215,1.12c0.352,0.83.352,0.83,0.48,5.92a19.761,19.761,0,0,1-3.743.45,3.6,3.6,0,0,1-3.136-1.31,0.343,0.343,0,0,0-.256-0.26,0.213,0.213,0,0,0-.16.22,4.069,4.069,0,0,0,.608,1.67,3.957,3.957,0,0,0,3.744,1.85,14.844,14.844,0,0,0,2.975-.32c0.224,2.18.416,5.64,0.384,7.36-0.736-.06-1.632-0.12-2.3-0.12-3.552,0-6.016,1.5-6.016,3.68,0,1.98,2.208,3.48,5.152,3.48a5.739,5.739,0,0,0,4.639-1.92,4.272,4.272,0,0,0,.992-2.24,8.592,8.592,0,0,1,2.464,2.15,4,4,0,0,0,.928,1.18,1.931,1.931,0,0,0,1.28.48,1.5,1.5,0,0,0,1.536-1.6c0-1.66-2.144-3.33-5.984-4.61-0.032-1.12-.064-1.6-0.224-3.36-0.288-2.91-.288-3.16-0.448-4.99,3.424-1.02,5.024-2.21,5.024-3.77a0.907,0.907,0,0,0-.736-1.03,1.173,1.173,0,0,0-.288.03h-0.416Zm-5.728,14.66c-0.288,1.98-1.408,2.78-3.871,2.78-1.248,0-2.24-.64-2.24-1.47,0-1.18,1.344-2.08,3.168-2.08a8.148,8.148,0,0,1,2.975.61Zm2.528-14.88c0.224,0.16.416,0.29,0.64,0.42,0.352,0.22.448,0.28,0.8,0.48a0.552,0.552,0,0,1,.32.32c0,0.38-.8.89-2.208,1.37a19.383,19.383,0,0,1,.128-2.78ZM655.8,3231.4c-0.16,0-.256.13-0.448,0.68a10.532,10.532,0,0,1-.384.99c-0.224.57-.48,1.31-0.768,2.14-0.9,2.59-.992,2.79-1.408,2.79a0.464,0.464,0,0,1-.448-0.36,10.571,10.571,0,0,1-.32-2.65,21.451,21.451,0,0,1,2.08-8.55c1.056-2.17,1.184-2.59,1.184-3.42a4.5,4.5,0,0,0-2.5-3.74,4.038,4.038,0,0,0-1.855-.58,0.156,0.156,0,0,0-.192.13,0.426,0.426,0,0,0,.256.29,3.707,3.707,0,0,1,.959,2.72,25.657,25.657,0,0,1-.9,4.99,37.086,37.086,0,0,0-1.12,8.29c0,4.83,1.791,8.76,4.031,8.76a1.572,1.572,0,0,0,1.472-1.31,1.5,1.5,0,0,0-.16-0.51,7.9,7.9,0,0,1-.544-3.26,27.39,27.39,0,0,1,1.088-6.37,5.5,5.5,0,0,0,.16-0.8A0.219,0.219,0,0,0,655.8,3231.4Zm49.023-3.64c0.672-.04,1.152-0.04,1.248-0.04,0.928,0,3.136.16,4.1,0.29a9.472,9.472,0,0,0,1.216.1,0.922,0.922,0,0,0,1.024-.83c0-.96-1.76-2.24-3.552-2.56a13.572,13.572,0,0,1-4.992,1.44c-0.032-.55-0.032-1.12-0.032-1.28a10.4,10.4,0,0,1,.448-3.84,1.639,1.639,0,0,0,.16-0.45,2.181,2.181,0,0,0-.7-0.96,4.3,4.3,0,0,0-2.975-1.31c-0.768,0-1.664.32-1.664,0.6a0.193,0.193,0,0,0,.16.16c1.472,0.48,1.536.64,1.632,5.35,0.032,0.25.064,1.18,0.1,2.08l-2.592.29c-0.7.09-1.024,0.12-1.952,0.19-0.032-.39-0.032-0.74-0.032-0.87l-0.032-.67v-1.98a3.722,3.722,0,0,1,.064-0.87,2.006,2.006,0,0,0,.064-0.35c0-.73-2.016-1.89-3.36-1.89a3.619,3.619,0,0,0-1.024.26l-0.48.16a0.715,0.715,0,0,0-.512.42c0,0.09.128,0.16,0.32,0.16,1.536,0.32,2.144,1.21,2.144,3.1l0.064,0.86c0,0.23,0,.55.032,0.96l0.032,1c-3.168.28-4.16,0.35-4.768,0.35-1.5,0-2.623-.26-2.975-0.67a0.313,0.313,0,0,0-.192-0.16c-0.128,0-.192.09-0.192,0.32a2.611,2.611,0,0,0,.64,1.66,3.4,3.4,0,0,0,1.983,1.38,3,3,0,0,0,.864-0.23c0.064,0,.544-0.16,1.408-0.41,0.288-.07.608-0.16,0.992-0.23,0.832-.16.864-0.19,2.272-0.45v1.32a13.906,13.906,0,0,1-.192,2.81c-0.032.23-.064,0.35-0.064,0.45a3.094,3.094,0,0,0,.768,1.41,2.091,2.091,0,0,0,1.44.73,1.007,1.007,0,0,0,.992-0.96c0-.12-0.032-0.38-0.064-0.73-0.032-.03-0.1-1.57-0.1-3.14-0.032-1.6-.032-1.66-0.064-2.4a37.8,37.8,0,0,1,4.512-.45c0,7.43-2.656,12.84-7.584,15.3-1.152.57-1.184,0.61-1.184,0.8a0.319,0.319,0,0,0,.288.22,10.7,10.7,0,0,0,2.5-.83c3.9-1.66,6.272-4.06,7.519-7.68,0.736-2.17.992-3.84,1.248-7.9Zm31.105-2.69a1.991,1.991,0,0,0,1.056.38,15.981,15.981,0,0,0,2.4-.51,6.9,6.9,0,0,1,1.408-.32,0.616,0.616,0,0,1,.608.64,9.432,9.432,0,0,1-1.472,3.62,36.034,36.034,0,0,1-7.231,8.76,27.772,27.772,0,0,1-8.415,5.22c-0.256.09-.352,0.16-0.352,0.29a0.244,0.244,0,0,0,.224.19,15.357,15.357,0,0,0,3.327-.87,31.313,31.313,0,0,0,11.168-7.19c2.271-2.28,3.327-3.81,6.3-9.22a9.544,9.544,0,0,1,.832-0.77,0.872,0.872,0,0,0,.384-0.51c0-.61-2.432-2.82-3.1-2.82a2.434,2.434,0,0,0-1.12.52,12.339,12.339,0,0,1-4.959,1.72,1.584,1.584,0,0,1-.544-0.09,14.246,14.246,0,0,0,1.5-2.95,3.1,3.1,0,0,0-1.376-1.6,4.82,4.82,0,0,0-2.656-.92,1.4,1.4,0,0,0-1.28.41c0,0.07.064,0.13,0.32,0.19a2.046,2.046,0,0,1,.96,1.96c0,3.04-4.16,9.56-7.584,11.93-0.544.39-.608,0.42-0.608,0.58a0.21,0.21,0,0,0,.192.19,10.6,10.6,0,0,0,2.4-1.15A24.852,24.852,0,0,0,735.932,3225.07Zm33.248,0.96c-0.192,0-.352.06-0.352,0.19a0.3,0.3,0,0,0,.224.26c1.248,0.6,2.5,2.46,3.008,4.54,0.224,0.86.48,1.18,1.024,1.18a1.707,1.707,0,0,0,1.6-1.76C774.684,3228.33,771.836,3226.03,769.18,3226.03Zm12.543,3.39a1.335,1.335,0,0,0,.608-0.86,5.175,5.175,0,0,0-1.568-2.21,3.236,3.236,0,0,0-2.3-1.06,0.437,0.437,0,0,0-.512.32c0,0.07,0,.07.32,0.35a2.148,2.148,0,0,1,.416,1.38c0,2.53-1.728,6.27-4.255,9.31a25.677,25.677,0,0,1-8.8,6.82c-0.8.32-.8,0.32-0.8,0.48a0.319,0.319,0,0,0,.32.25c1.216,0,4.64-1.34,6.592-2.56A26.189,26.189,0,0,0,781.723,3229.42Zm-17.5-.67c-0.32,0-.416.06-0.416,0.19a0.5,0.5,0,0,0,.352.38,8.581,8.581,0,0,1,2.912,4.32,0.878,0.878,0,0,0,.864.71,1.641,1.641,0,0,0,1.472-1.79C769.4,3230.54,767,3228.75,764.22,3228.75Zm31.969,7.74c-0.224,0-.352.07-0.352,0.16a0.266,0.266,0,0,0,.16.19c2.528,1.19,3.424,2.28,4.223,4.99,0.48,1.51.8,1.86,1.664,1.86a1.874,1.874,0,0,0,2.016-1.82c0-1.73-1.728-3.55-4.479-4.64A9.617,9.617,0,0,0,796.189,3236.49Zm42.015-2.08h7.36v9.89a0.636,0.636,0,0,0,.64.77,7.449,7.449,0,0,0,1.664-.29,0.739,0.739,0,0,0,.608-0.87v-9.5h7.871v1.76a0.618,0.618,0,0,0,.608.74,9.4,9.4,0,0,0,1.728-.26,0.681,0.681,0,0,0,.512-0.8v-9.31l0.448-.19a0.83,0.83,0,0,0,.576-0.67,1.512,1.512,0,0,0-.512-0.93l-2.368-2.5-1.216,1.67h-7.647v-6.02l0.672-.48a0.826,0.826,0,0,0,.416-0.64,0.8,0.8,0,0,0-.864-0.58l-3.136-.28v8h-7.2l-2.943-1.57v14.4a0.605,0.605,0,0,0,.64.7,5.431,5.431,0,0,0,1.471-.29,0.726,0.726,0,0,0,.672-0.83v-1.92Zm0-.86v-8.77h7.36v8.77H838.2Zm10.272,0v-8.77h7.871v8.77h-7.871Zm46.463-10.15a6.908,6.908,0,0,1-3.328-.92,4.459,4.459,0,0,1,.448-1.41,0.958,0.958,0,0,0,.128-0.45c0-.8-2.24-2.24-3.488-2.24-0.8,0-2.047.51-2.047,0.83a0.176,0.176,0,0,0,.192.16h0.128a2.026,2.026,0,0,1,.256-0.03,1.643,1.643,0,0,1,1.215,1.12c0.352,0.83.352,0.83,0.48,5.92a19.761,19.761,0,0,1-3.743.45,3.6,3.6,0,0,1-3.136-1.31,0.343,0.343,0,0,0-.256-0.26,0.213,0.213,0,0,0-.16.22,4.069,4.069,0,0,0,.608,1.67,3.957,3.957,0,0,0,3.744,1.85,14.844,14.844,0,0,0,2.975-.32c0.224,2.18.416,5.64,0.384,7.36-0.736-.06-1.632-0.12-2.3-0.12-3.552,0-6.016,1.5-6.016,3.68,0,1.98,2.208,3.48,5.152,3.48a5.739,5.739,0,0,0,4.639-1.92,4.272,4.272,0,0,0,.992-2.24,8.592,8.592,0,0,1,2.464,2.15,4,4,0,0,0,.928,1.18,1.931,1.931,0,0,0,1.28.48,1.5,1.5,0,0,0,1.536-1.6c0-1.66-2.144-3.33-5.984-4.61-0.032-1.12-.064-1.6-0.224-3.36-0.288-2.91-.288-3.16-0.448-4.99,3.424-1.02,5.024-2.21,5.024-3.77a0.907,0.907,0,0,0-.736-1.03,1.173,1.173,0,0,0-.288.03h-0.416Zm-5.728,14.66c-0.288,1.98-1.408,2.78-3.871,2.78-1.248,0-2.24-.64-2.24-1.47,0-1.18,1.344-2.08,3.168-2.08a8.148,8.148,0,0,1,2.975.61Zm2.528-14.88c0.224,0.16.416,0.29,0.64,0.42,0.352,0.22.448,0.28,0.8,0.48a0.552,0.552,0,0,1,.32.32c0,0.38-.8.89-2.208,1.37a19.383,19.383,0,0,1,.128-2.78Zm-13.215,8.22c-0.16,0-.256.13-0.448,0.68a10.532,10.532,0,0,1-.384.99c-0.224.57-.48,1.31-0.768,2.14-0.9,2.59-.992,2.79-1.408,2.79a0.464,0.464,0,0,1-.448-0.36,10.571,10.571,0,0,1-.32-2.65,21.451,21.451,0,0,1,2.08-8.55c1.056-2.17,1.184-2.59,1.184-3.42a4.5,4.5,0,0,0-2.5-3.74,4.038,4.038,0,0,0-1.855-.58,0.156,0.156,0,0,0-.192.13,0.426,0.426,0,0,0,.256.29,3.707,3.707,0,0,1,.959,2.72,25.657,25.657,0,0,1-.895,4.99,37.086,37.086,0,0,0-1.12,8.29c0,4.83,1.791,8.76,4.031,8.76a1.572,1.572,0,0,0,1.472-1.31,1.5,1.5,0,0,0-.16-0.51,7.9,7.9,0,0,1-.544-3.26,27.39,27.39,0,0,1,1.088-6.37,5.5,5.5,0,0,0,.16-0.8A0.219,0.219,0,0,0,878.524,3231.4Zm52.447-15.45c-1.024,0-1.5.09-1.5,0.32,0,0.13.064,0.19,0.256,0.22a5.665,5.665,0,0,1,3.04,2.47c0.448,0.73.544,0.83,1.088,0.83a1.339,1.339,0,0,0,1.408-1.28C935.259,3217.16,933.179,3215.95,930.971,3215.95Zm-4.032,1.89c-0.8,0-1.12.06-1.12,0.25,0,0.13.064,0.19,0.288,0.26a4.98,4.98,0,0,1,2.656,2.4c0.48,0.86.608,0.99,1.152,0.99a1.236,1.236,0,0,0,1.344-1.25C931.259,3219.12,929.179,3217.84,926.939,3217.84Zm-10.911,3.1c-1.376,0-2.784.29-2.784,0.58,0,0.09.064,0.16,0.288,0.22a7.416,7.416,0,0,1,4.576,3.58c0.512,0.96.7,1.12,1.376,1.12a1.786,1.786,0,0,0,1.92-1.72C921.4,3222.7,918.908,3220.94,916.028,3220.94Zm-3.872,6.08c-1.056,0-2.015.19-2.015,0.42,0,0.09.032,0.12,0.32,0.25a8.139,8.139,0,0,1,4.191,3.84,1.291,1.291,0,0,0,1.12.9,1.832,1.832,0,0,0,1.856-1.7C917.628,3228.84,914.94,3227.02,912.156,3227.02ZM912,3237.58h-0.032c-0.256-.03-0.448.35-0.448,0.86a3.422,3.422,0,0,0,1.216,2.34c1.152,1.12,2.048,1.73,2.56,1.73a1.3,1.3,0,0,0,.864-0.48,3.889,3.889,0,0,1,.64-0.42,59.833,59.833,0,0,0,10.367-7.81,41.46,41.46,0,0,0,6.144-8.09,10.162,10.162,0,0,0,1.312-2.88,0.252,0.252,0,0,0-.192-0.26,0.88,0.88,0,0,0-.576.55,52.937,52.937,0,0,1-11.839,11.55c-3.616,2.53-6.208,3.77-7.872,3.77-1.376,0-1.92-.22-2.112-0.86H912Zm47.264-.35c-0.7.06-1.408,0.16-2.08,0.22-0.224,0-2.048.23-4.256,0.48a26.518,26.518,0,0,1-2.688.26,3.031,3.031,0,0,1-2.08-.55c-0.1-.16-0.1-0.16-0.16-0.16a0.969,0.969,0,0,0-.383.96,1.579,1.579,0,0,0,.863,1.12,4.251,4.251,0,0,0,2.016.87,4.367,4.367,0,0,0,1.76-.55,9.1,9.1,0,0,1,2.176-.67,53.188,53.188,0,0,1,7.871-.77,33.708,33.708,0,0,1,5.856.52,6.253,6.253,0,0,0,.928.16,0.856,0.856,0,0,0,.96-0.71c0-.73-1.792-2.43-2.592-2.43a1.444,1.444,0,0,0-.448.1,11.52,11.52,0,0,1-3.584.73c-0.256.03-1.024,0.1-1.855,0.19,0.575-2.62.863-3.84,1.631-6.4,0.672-.57.8-0.73,0.8-0.96,0-.28-0.192-0.48-1.184-1.18-1.407-.99-1.439-1.02-1.631-1.02a1.051,1.051,0,0,0-.576.25,8.641,8.641,0,0,1-1.888.8,30.8,30.8,0,0,1-5.088.93,1.729,1.729,0,0,1-1.408-.61c-0.224-.38-0.224-0.38-0.352-0.38-0.256,0-.384.22-0.384,0.73a2.109,2.109,0,0,0,1.024,1.99,1.852,1.852,0,0,0,1.12.41,7.318,7.318,0,0,0,2.3-.73,11.826,11.826,0,0,1,3.648-1.12,0.623,0.623,0,0,1,.544.73A58.337,58.337,0,0,1,959.26,3237.23Zm31.3-12.42a59.662,59.662,0,0,1,10.014-1.76c1.06,0,1.44.26,1.44,1.03,0,2.56-2.367,8.7-4.446,11.48a20.7,20.7,0,0,1-8.288,6.66c-0.448.16-.576,0.29-0.576,0.51a0.3,0.3,0,0,0,.32.32,16.652,16.652,0,0,0,3.648-1.25,20.5,20.5,0,0,0,9.442-8.48c1.28-2.14,2.01-4.06,3.29-8.64a2.764,2.764,0,0,0,1.09-1.31,3.835,3.835,0,0,0-1.25-1.6,3.2,3.2,0,0,0-1.85-1.18,2.257,2.257,0,0,0-.99.32c-1.48.8-8.8,2.11-12.228,2.17a3.824,3.824,0,0,0-2.72-1.37c-0.8,0-1.824.38-1.824,0.67,0,0.13.064,0.16,0.256,0.19,0.96,0.13,1.44.77,1.76,2.31a34.766,34.766,0,0,1,.672,5.18,9.737,9.737,0,0,1-.1,1.12c-0.032.19-.064,0.32-0.064,0.35,0,0.74,1.6,2.02,2.56,2.02a0.959,0.959,0,0,0,.864-1.15C991.58,3231.72,991.228,3229.2,990.556,3224.81Zm38.464,1.22c-0.19,0-.35.06-0.35,0.19a0.293,0.293,0,0,0,.22.26c1.25,0.6,2.5,2.46,3.01,4.54,0.22,0.86.48,1.18,1.02,1.18a1.7,1.7,0,0,0,1.6-1.76C1034.52,3228.33,1031.68,3226.03,1029.02,3226.03Zm12.54,3.39a1.315,1.315,0,0,0,.61-0.86,5.111,5.111,0,0,0-1.57-2.21,3.231,3.231,0,0,0-2.3-1.06,0.434,0.434,0,0,0-.51.32c0,0.07,0,.07.32,0.35a2.174,2.174,0,0,1,.41,1.38c0,2.53-1.72,6.27-4.25,9.31a25.7,25.7,0,0,1-8.8,6.82c-0.8.32-.8,0.32-0.8,0.48a0.319,0.319,0,0,0,.32.25c1.21,0,4.64-1.34,6.59-2.56A26.148,26.148,0,0,0,1041.56,3229.42Zm-17.5-.67c-0.32,0-.42.06-0.42,0.19a0.514,0.514,0,0,0,.36.38,8.628,8.628,0,0,1,2.91,4.32,0.879,0.879,0,0,0,.86.71,1.641,1.641,0,0,0,1.47-1.79C1029.24,3230.54,1026.84,3228.75,1024.06,3228.75Zm44.26,2.37c-4.1,1.88-6.31,4.41-6.31,7.2a5.343,5.343,0,0,0,2.72,4.51,13.672,13.672,0,0,0,6.69,1.4,25.867,25.867,0,0,0,7.07-.92c1.09-.39,1.51-0.8,1.51-1.41a2.46,2.46,0,0,0-2.34-2.27,5.431,5.431,0,0,0-1.7.41,19.493,19.493,0,0,1-6.01,1.12c-3.39,0-5.38-1.28-5.38-3.45a5.652,5.652,0,0,1,2.66-4.45,14.322,14.322,0,0,1,3.42-1.66,27.742,27.742,0,0,0,3.65-.77c2.08-.58,2.62-0.87,2.62-1.44,0-.93-1.47-2.21-2.56-2.21a1.189,1.189,0,0,0-.8.38c-1.5,1.32-2.91,2.18-3.52,2.18-0.38,0-.7-0.77-0.7-1.73a27.346,27.346,0,0,1,1.02-6.43,5.628,5.628,0,0,0,.42-2.02,2.009,2.009,0,0,0-1.06-1.69,5.455,5.455,0,0,0-2.84-.96c-1.19,0-2.92.64-2.92,1.09,0,0.12.1,0.19,0.32,0.19a3.21,3.21,0,0,1,1.67.54,2.375,2.375,0,0,1,.93,2.31c0,0.32,0,.86-0.07,1.92-0.03.96-.03,1.37-0.03,1.95C1066.78,3228.3,1066.94,3228.97,1068.32,3231.12ZM610.525,3281c4.063-.13,4.7-0.16,5.6-0.16h5.12a17.792,17.792,0,0,1-1.312,2.59,9.864,9.864,0,0,0-4.512-1.22c-0.352,0-.512.1-0.512,0.29a0.362,0.362,0,0,0,.256.32,6.517,6.517,0,0,1,2.912,2.5,11.49,11.49,0,0,0,.96,1.34,1.755,1.755,0,0,0,1.312.58,1.264,1.264,0,0,0,1.344-1.35,2.308,2.308,0,0,0-.832-1.72c0.8-.58,1.056-0.74,1.184-0.87,0.32-.22.64-0.48,0.928-0.7a2.318,2.318,0,0,0,.32-0.26l0.928-.19a0.563,0.563,0,0,0,.576-0.48,0.658,0.658,0,0,0-.288-0.51l-0.448-.32h14.783a0.313,0.313,0,0,0,.32-0.39,0.859,0.859,0,0,0-.448-0.67l-2.5-2.08-2.08,2.27H625.82v-2.84h9.5a0.417,0.417,0,0,0,.416-0.45,0.818,0.818,0,0,0-.416-0.64l-2.24-1.73-1.728,1.95H625.82v-2.62h11.743a0.417,0.417,0,0,0,.512-0.39,0.861,0.861,0,0,0-.512-0.67l-2.56-1.89-1.792,2.08H625.82v-2.88l0.736-.38a0.9,0.9,0,0,0,.512-0.74,0.816,0.816,0,0,0-.928-0.64l-3.36-.19v4.83h-5.6c-0.384,0-1.5-.03-3.167-0.09-0.448-.03-1.728-0.07-3.136-0.1l0.736,1.22c3.935-.16,4.063-0.16,5.567-0.16h5.6v2.62h-4.192c-0.416,0-1.248-.03-2.5-0.06-0.416-.03-1.664-0.07-3.039-0.1l0.608,1.15c2.719-.06,3.2-0.09,4.927-0.12h4.192v2.84h-6.656c-0.48,0-1.6-.03-3.231-0.09-0.416-.03-1.7-0.07-3.072-0.1Zm9.567,12.03c0.48-.07.7-0.23,0.7-0.51a0.979,0.979,0,0,0-.544-0.71l-2.528-1.56a21.762,21.762,0,0,1-6.111,6.3c-0.7.45-.768,0.51-0.768,0.67a0.224,0.224,0,0,0,.256.22,12.941,12.941,0,0,0,2.624-.92,26.131,26.131,0,0,0,5.535-3.36Zm2.976,4.06c0,0.29.192,0.42,0.64,0.42a8.842,8.842,0,0,0,1.44-.23c0.672-.12.96-0.35,0.96-0.7v-7.65c1.919-.19,5.663-0.73,6.687-0.92a11.9,11.9,0,0,1,1.376,1.76c0.864,1.37,1.216,1.69,1.856,1.69a1.582,1.582,0,0,0,1.568-1.53c0-1.48-1.376-2.79-3.936-3.75a14.934,14.934,0,0,0-3.808-.99,0.276,0.276,0,0,0-.32.22,0.409,0.409,0,0,0,.288.36,16.881,16.881,0,0,1,2.144,1.4c-3.3.2-5.887,0.32-7.231,0.36,1.376-.84,2.5-1.64,5.375-3.75h0.672c0.672,0,.96-0.16.96-0.51a0.9,0.9,0,0,0-.512-0.67l-2.5-1.76a41.992,41.992,0,0,1-5.375,6.75h-0.992l-3.264.06c-1.088.04-1.824,0.04-2.08,0.04l-4.447-.1h-1.28l1.152,2.78c0.256,0.68.416,0.83,0.8,0.83a1,1,0,0,0,.832-0.57l0.383-.45,0.864-.06,2.976-.32,3.648-.35a7.147,7.147,0,0,1,1.12-.13v7.77Zm4.8-6.56a0.29,0.29,0,0,0-.352.26,0.379,0.379,0,0,0,.256.35c2.879,1.7,3.551,2.27,5.151,4.35,0.96,1.19,1.472,1.57,2.08,1.57a1.423,1.423,0,0,0,1.408-1.5c0-1.19-1.344-2.69-3.136-3.56A21.514,21.514,0,0,0,627.868,3290.53Zm27.872-12.92h4.992a0.525,0.525,0,0,0,.512-0.45,0.619,0.619,0,0,0-.224-0.48l-2.4-2.08-1.824,2.14H655.74v-7.01l0.64-.41a0.875,0.875,0,0,0,.384-0.67,0.759,0.759,0,0,0-.832-0.64l-3.04-.13v8.86h-1.983c-1.376,0-2.176-.03-4.288-0.13l0.672,1.09c1.664-.06,2.272-0.09,3.616-0.09h1.919a31.127,31.127,0,0,1-5.887,13.4,1.114,1.114,0,0,0-.352.55,0.31,0.31,0,0,0,.224.25,4.986,4.986,0,0,0,1.6-1.21,27.747,27.747,0,0,0,4.479-5.22v11.26c0,0.29.192,0.45,0.608,0.45a4.049,4.049,0,0,0,1.6-.41,0.8,0.8,0,0,0,.64-0.93v-13.06a4.939,4.939,0,0,1,1.28,1.89,12.981,12.981,0,0,0,.7,1.73,1.292,1.292,0,0,0,1.12.64,1.426,1.426,0,0,0,1.44-1.6c0-1.76-1.632-3.04-4.544-3.55v-4.19Zm16.383-.87H671.1v-6.94l0.9-.61a0.716,0.716,0,0,0,.32-0.58,0.817,0.817,0,0,0-.768-0.73l-3.36-.19v9.05h-2.4c-0.991,0-1.919-.03-4.287-0.09l0.544,1.05c1.92-.06,2.72-0.09,3.743-0.09h1.856a44.584,44.584,0,0,1-10.207,15.16,0.885,0.885,0,0,0-.352.48,0.243,0.243,0,0,0,.224.23,13.48,13.48,0,0,0,3.392-2.21,36.142,36.142,0,0,0,7.487-8.26v9.35c0,0.96-.064,1.02-0.512,1.15a31.588,31.588,0,0,1-3.551.06c-0.7,0-.8.03-0.8,0.26,0,0.19,0,.19,1.344.61,0.543,0.16,1.119.35,1.631,0.51a3.531,3.531,0,0,1,.544.19,0.934,0.934,0,0,1,.384.96c0.032,0.7.224,1.02,0.608,1.02a5.679,5.679,0,0,0,2.016-.7c1.088-.61,1.248-0.86,1.248-1.98v-16.83h5.408a0.452,0.452,0,0,0,.32-0.48,0.652,0.652,0,0,0-.224-0.48l-2.5-2.21Zm27.3-3.49c0.352-.03.576-0.03,0.672-0.03a7.669,7.669,0,0,1,3.295.77c2.784,1.41,4.224,4.32,4.224,8.61a10.944,10.944,0,0,1-4.1,9.12,17.084,17.084,0,0,1-5.727,2.97c-0.512.16-.608,0.19-0.608,0.35,0,0.13.128,0.2,0.32,0.2a14.053,14.053,0,0,0,2.048-.39,19.65,19.65,0,0,0,5.919-2.17,11.8,11.8,0,0,0,5.92-10.24,9.638,9.638,0,0,0-2.528-6.75,12.338,12.338,0,0,0-8.991-3.52c-7.488,0-13.919,6.04-13.919,13.08a8.313,8.313,0,0,0,1.568,5.16,3.866,3.866,0,0,0,2.687,1.75c1.76,0,4.544-2.27,6.432-5.21a20.587,20.587,0,0,0,3.2-10.4A12.33,12.33,0,0,0,699.42,3273.25Zm-1.568.13a2.344,2.344,0,0,0,.064.23,7.6,7.6,0,0,1,.192,1.79,18.824,18.824,0,0,1-3.264,9.57c-1.344,2.11-3.168,3.77-4.16,3.77s-1.856-1.66-1.856-3.55a12.54,12.54,0,0,1,3.776-8.93A12.152,12.152,0,0,1,697.852,3273.38Zm29.472-3.33,0.576-.41a0.838,0.838,0,0,0,.448-0.67,0.692,0.692,0,0,0-.672-0.58l-3.263-.32v9.73c0,1.47.224,2.05,0.864,2.33,0.927,0.39,3.679.58,8.095,0.58,4.192,0,11.647-.22,13.823-0.42,1.984-.19,3.136-0.8,3.136-1.69a1.136,1.136,0,0,0-.864-1.09,0.87,0.87,0,0,1-.768-0.99c0-.19.032-0.8,0.1-1.31,0.064-.36.1-0.71,0.128-1.09,0.064-.51.1-0.83,0.1-0.99a2.633,2.633,0,0,0,.064-0.42,0.239,0.239,0,0,0-.256-0.26,0.369,0.369,0,0,0-.32.32c-0.32.8-.992,2.37-1.5,3.36-0.672,1.44-.992,1.6-3.232,1.76-2.816.2-7.519,0.36-10.5,0.36-5.728,0-5.952-.04-5.952-1.06v-2.11a110.637,110.637,0,0,0,14.463-3.11l1.5-.41,1.248,0.13,0.128,0.03a0.484,0.484,0,0,0,.576-0.48,0.75,0.75,0,0,0-.224-0.48l-2.912-2.69a58.841,58.841,0,0,1-14.783,6.24v-4.26Zm1.664,24.67H742.4v1.38a0.518,0.518,0,0,0,.608.61c1.28,0,2.336-.51,2.336-1.12v-9.76l0.512-.32a0.721,0.721,0,0,0,.448-0.64,1.454,1.454,0,0,0-.512-0.9l-2.4-2.43-1.12,1.76H729.34l-3.136-1.6v14.91c0,0.58.1,0.74,0.576,0.74a3.575,3.575,0,0,0,1.536-.39,0.849,0.849,0,0,0,.672-0.76v-1.48Zm0-.86v-4.45H742.4v4.45H728.988Zm0-5.31v-4.38H742.4v4.38H728.988Zm32.609-2.27h3.2v2.14a0.372,0.372,0,0,0,.448.42,6.042,6.042,0,0,0,1.248-.23c0.768-.22.992-0.38,0.992-0.7v-5.06h7.392a32.343,32.343,0,0,1-9.472,12.71,0.986,0.986,0,0,0-.544.6,0.149,0.149,0,0,0,.16.16,18.5,18.5,0,0,0,3.968-2.43,34.86,34.86,0,0,0,6.4-6.27v9.09c0,0.29.192,0.41,0.544,0.41a4.61,4.61,0,0,0,1.151-.19c0.864-.19,1.088-0.35,1.088-0.8v-11.77a24.613,24.613,0,0,0,7.264,11.07,5.891,5.891,0,0,1,2.912-2.85,23.192,23.192,0,0,1-6.624-4.8,15.763,15.763,0,0,1-3.232-4.93h8.96a0.478,0.478,0,0,0,.448-0.44,1.129,1.129,0,0,0-.384-0.71l-2.5-2.14-2.176,2.43h-4.672v-6.08h7.9a0.4,0.4,0,0,0,.448-0.42,1.044,1.044,0,0,0-.48-0.76l-2.368-2.05-2.048,2.37h-3.456v-5.28l0.416-.29a0.994,0.994,0,0,0,.576-0.8,0.758,0.758,0,0,0-.864-0.64l-2.911-.32v7.33h-2.432c-0.1,0-.96,0-1.824-0.04l-2.464-.09,0.608,1.09,1.888-.07c0.8-.03,1.472-0.03,1.792-0.03h2.432v6.08h-7.9v-7.07l0.384-.19a0.7,0.7,0,0,0,.416-0.58,1.127,1.127,0,0,0-.416-0.8l-2.112-2.4-1.024,1.66h-3.039l-2.752-1.47v19.71a0.388,0.388,0,0,0,.416.42,9.673,9.673,0,0,0,1.856-.38,0.5,0.5,0,0,0,.384-0.58v-4.03Zm0-12.8h3.2v11.93h-3.2v-11.93Zm53.6-3.46c-0.8,0-1.376.16-1.376,0.39,0,0.12.1,0.22,0.448,0.32a4.554,4.554,0,0,1,2.432,1.85c0.7,1.12.7,1.12,1.248,1.12a1.349,1.349,0,0,0,1.408-1.25C819.355,3271.21,817.307,3270.02,815.2,3270.02Zm4.256-1.82c-0.832,0-1.408.16-1.408,0.38,0,0.16.064,0.23,0.48,0.35a5.378,5.378,0,0,1,2.656,2.15c0.48,0.83.64,0.93,1.152,0.93a1.4,1.4,0,0,0,1.408-1.25C823.739,3269.45,821.627,3268.2,819.451,3268.2Zm-16.543,3.07c1.184,0,1.92.99,1.92,2.62a20.154,20.154,0,0,1-.48,4.2,23.317,23.317,0,0,1-5.343,1.24,1.876,1.876,0,0,1-1.7-.89c-0.1-.35-0.128-0.39-0.256-0.39a0.94,0.94,0,0,0-.32.96c0,1.67.992,3.01,2.208,3.01a3.845,3.845,0,0,0,1.823-.64c1.184-.61,1.536-0.77,3.2-1.57-1.376,4.45-3.9,9.12-6.335,11.65-0.96,1.02-1.12,1.28-1.12,1.76a1.533,1.533,0,0,0,1.664,1.41,2.6,2.6,0,0,0,1.6-.55,6.433,6.433,0,0,0,1.152-1.66,69.174,69.174,0,0,0,5.7-13.5,7.681,7.681,0,0,1,2.368-.58c1.184,0,1.728.9,1.728,2.85a23.128,23.128,0,0,1-1.5,8.16,2.356,2.356,0,0,1-1.824,1.73c-0.448,0-.64-0.13-2.368-1.6a2.319,2.319,0,0,0-.928-0.64,0.234,0.234,0,0,0-.224.19,0.9,0.9,0,0,0,.32.48,7.12,7.12,0,0,1,1.6,3.9c0.064,0.9.256,1.09,1.024,1.09a5.605,5.605,0,0,0,4.416-2.56c1.28-1.92,2.143-5.82,2.143-9.6,0-3.39-1.439-5.28-4.063-5.28a9.418,9.418,0,0,0-2.3.35,32.2,32.2,0,0,0,.96-4.76c0-1-1.984-2.31-3.488-2.31-0.7,0-2.016.55-2.016,0.83a0.167,0.167,0,0,0,.16.13,0.368,0.368,0,0,0,.16-0.03h0.128Zm15.839,13.12c1.7,0,2.336.19,3.168,0.99a1.207,1.207,0,0,0,.864.42c1.056,0,1.728-.99,1.728-2.53a7.847,7.847,0,0,0-7.872-7.58c-0.832,0-1.28.12-1.28,0.35,0,0.16.064,0.22,0.416,0.25a6.957,6.957,0,0,1,3.968,2.56,5.685,5.685,0,0,1,1.44,3.01,1.124,1.124,0,0,1-.832,1.03,22.729,22.729,0,0,1-2.912,1.08c-0.224.07-.32,0.13-0.32,0.26a0.254,0.254,0,0,0,.256.26c0.128,0,.352-0.04.64-0.07A4.4,4.4,0,0,1,818.747,3284.39Zm42.912-9.95a0.415,0.415,0,0,0,.448-0.48,0.609,0.609,0,0,0-.288-0.48l-3.04-2.27-2.24,2.36H848.8v-3.68l0.608-.38a0.729,0.729,0,0,0,.448-0.67,0.589,0.589,0,0,0-.608-0.61l-3.488-.32v5.66h-7.168l-3.2-1.47c0.032,1.92.064,2.95,0.064,4.58a99.12,99.12,0,0,1-.48,12.38c-0.48,2.94-.992,4.26-2.944,7.58a0.682,0.682,0,0,0-.1.26,0.317,0.317,0,0,0,.32.29c0.288,0,1.44-1.22,2.72-2.88a13.639,13.639,0,0,0,3.039-7.9c0.16-1.89.256-5.25,0.256-11.97h23.391Zm-24.127,17.92,1.7,3.48a0.763,0.763,0,0,0,.608.45,0.739,0.739,0,0,0,.608-0.38l0.512-.74c3.68-.57,5.216-0.83,6.688-1.09,1.408-.25,2.72-0.51,8.319-1.6,0.32,0.74.32,0.74,1.28,3.27a1.443,1.443,0,0,0,1.472,1.15c0.9,0,1.5-.77,1.5-1.95,0-2.24-2.048-5.22-5.184-7.52a15.8,15.8,0,0,0-3.456-1.92,0.317,0.317,0,0,0-.32.26,1.932,1.932,0,0,0,.608.7,21.265,21.265,0,0,1,3.68,5.15c-4.64.35-9.311,0.61-11.807,0.61,1.216-2.24,3.552-7.14,6.368-13.34l0.9-.26a0.714,0.714,0,0,0,.608-0.58,1.014,1.014,0,0,0-.608-0.8l-3.615-1.56a157.993,157.993,0,0,1-4.768,16.6c-1.472.03-2.816,0.07-3.36,0.07h-1.728Zm51.9-22.34c-0.8,0-1.376.16-1.376,0.39,0,0.12.1,0.22,0.448,0.32a4.554,4.554,0,0,1,2.432,1.85c0.7,1.12.7,1.12,1.248,1.12a1.349,1.349,0,0,0,1.408-1.25C893.6,3271.21,891.547,3270.02,889.435,3270.02Zm4.256-1.82c-0.832,0-1.408.16-1.408,0.38,0,0.16.064,0.23,0.48,0.35a5.378,5.378,0,0,1,2.656,2.15c0.48,0.83.64,0.93,1.152,0.93a1.4,1.4,0,0,0,1.408-1.25C897.979,3269.45,895.867,3268.2,893.691,3268.2Zm-16.543,3.07c1.184,0,1.92.99,1.92,2.62a20.154,20.154,0,0,1-.48,4.2,23.317,23.317,0,0,1-5.343,1.24,1.876,1.876,0,0,1-1.7-.89c-0.1-.35-0.128-0.39-0.256-0.39a0.94,0.94,0,0,0-.32.96c0,1.67.992,3.01,2.208,3.01a3.845,3.845,0,0,0,1.823-.64c1.184-.61,1.536-0.77,3.2-1.57-1.376,4.45-3.9,9.12-6.335,11.65-0.96,1.02-1.12,1.28-1.12,1.76a1.533,1.533,0,0,0,1.664,1.41,2.6,2.6,0,0,0,1.6-.55,6.433,6.433,0,0,0,1.152-1.66,69.174,69.174,0,0,0,5.7-13.5,7.681,7.681,0,0,1,2.368-.58c1.184,0,1.728.9,1.728,2.85a23.128,23.128,0,0,1-1.5,8.16,2.356,2.356,0,0,1-1.824,1.73c-0.448,0-.64-0.13-2.368-1.6a2.319,2.319,0,0,0-.928-0.64,0.234,0.234,0,0,0-.224.19,0.9,0.9,0,0,0,.32.48,7.12,7.12,0,0,1,1.6,3.9c0.064,0.9.256,1.09,1.024,1.09a5.605,5.605,0,0,0,4.416-2.56c1.28-1.92,2.144-5.82,2.144-9.6,0-3.39-1.44-5.28-4.064-5.28a9.418,9.418,0,0,0-2.3.35,32.2,32.2,0,0,0,.96-4.76c0-1-1.984-2.31-3.488-2.31-0.7,0-2.016.55-2.016,0.83a0.167,0.167,0,0,0,.16.13,0.368,0.368,0,0,0,.16-0.03h0.128Zm15.839,13.12c1.7,0,2.336.19,3.168,0.99a1.207,1.207,0,0,0,.864.42c1.056,0,1.728-.99,1.728-2.53a7.847,7.847,0,0,0-7.872-7.58c-0.832,0-1.28.12-1.28,0.35,0,0.16.064,0.22,0.416,0.25a6.957,6.957,0,0,1,3.968,2.56,5.685,5.685,0,0,1,1.44,3.01,1.124,1.124,0,0,1-.832,1.03,22.729,22.729,0,0,1-2.912,1.08c-0.224.07-.32,0.13-0.32,0.26a0.254,0.254,0,0,0,.256.26c0.128,0,.352-0.04.64-0.07A4.4,4.4,0,0,1,892.987,3284.39Zm32.608,8.09c-0.128-.22-0.192-0.38-0.256-0.48a5.12,5.12,0,0,0-4.8-2.81c-2.24,0-3.584,1.02-3.584,2.75,0,1.89,2.08,3.1,5.248,3.1a10.879,10.879,0,0,0,7.135-2.36,7.732,7.732,0,0,0,2.624-5.6c0-3.55-3.04-6.21-7.136-6.21a10.309,10.309,0,0,0-4.831,1.12,0.123,0.123,0,0,1-.1.03,0.067,0.067,0,0,1-.064-0.06c0-.93,4.9-6.21,7.039-7.59,0.864-.54,1.152-0.86,1.152-1.31,0-.96-2.528-2.65-4-2.65a2.265,2.265,0,0,0-1.248.44,15.364,15.364,0,0,1-6.688,2.4,1.252,1.252,0,0,1-1.28-.67c-0.1-.25-0.128-0.29-0.192-0.29-0.192,0-.288.36-0.288,1.03a2.588,2.588,0,0,0,.512,1.69,2.683,2.683,0,0,0,1.888,1.19,2.292,2.292,0,0,0,1.408-.77c1.824-1.44,4.224-2.85,4.864-2.85a0.365,0.365,0,0,1,.352.39c0,1.28-2.72,5.37-5.92,8.92-1.376,1.54-3.744,3.94-5.12,5.19a2.021,2.021,0,0,0-.9,1.53c0,1.06,1.184,2.5,2.048,2.5,0.416,0,.736-0.32,1.184-1.28a24.247,24.247,0,0,1,3.072-4.8,8.178,8.178,0,0,1,6.176-2.98,4.818,4.818,0,0,1,3.1,1.22,4.926,4.926,0,0,1,1.536,3.84,6.96,6.96,0,0,1-.736,3.23A5.7,5.7,0,0,1,925.6,3292.48Zm-2.879.77c-0.416.03-.672,0.03-0.736,0.03-1.792,0-3.36-.76-3.36-1.66a1.333,1.333,0,0,1,1.536-1.15C921.564,3290.47,922.428,3291.4,922.716,3293.25ZM955,3294.02h10.751v1.76c0,0.32.16,0.45,0.544,0.45,1.056,0,2.432-.51,2.432-0.9v-10.68l0.864-.39a0.8,0.8,0,0,0,.416-0.64,0.891,0.891,0,0,0-.32-0.61l-3.072-2.88-1.248,1.92h-10.3l-0.672-.57a39.814,39.814,0,0,0,4.192-9.41h14.463a0.406,0.406,0,0,0,.384-0.45,0.484,0.484,0,0,0-.224-0.41l-3.2-2.56-2.3,2.56H951c-0.448,0-1.5-.04-2.656-0.07l-3.647-.09,0.768,1.18,3.1-.1c1.024-.06,1.888-0.06,2.432-0.06h4.064a31.251,31.251,0,0,1-10.911,18.14,0.8,0.8,0,0,0-.352.42,0.209,0.209,0,0,0,.192.22,13.953,13.953,0,0,0,2.976-1.79,32.87,32.87,0,0,0,5.119-4.57v11.96c0,0.29.16,0.42,0.544,0.42,1.12,0,2.368-.45,2.368-0.83v-2.02Zm0-.86v-10.24h10.751v10.24H955Zm27.521-2.63c2.655-.12,3.455-0.16,5.535-0.16h21.98a0.4,0.4,0,0,0,.42-0.38,0.725,0.725,0,0,0-.26-0.48l-2.72-2.34-2.04,2.34h-8.42v-3.1h8.73a0.449,0.449,0,0,0,.39-0.42,0.908,0.908,0,0,0-.29-0.54l-2.59-2.24-1.95,2.33h-4.29v-2.72h10.81a0.392,0.392,0,0,0,.39-0.45,0.667,0.667,0,0,0-.26-0.48l-2.72-2.36-2.04,2.43h-3.717a24.394,24.394,0,0,1,2.207-1.63h0.74a0.534,0.534,0,0,0,.51-0.55,0.525,0.525,0,0,0-.26-0.45l-1.28-.73,0.8,0.03c3.2,0,4.51-.03,5.41-0.13,0.93-.13,1.44-0.48,1.44-1.05a1.13,1.13,0,0,0-.83-1.03,0.411,0.411,0,0,1-.35-0.41c0-.04.03-0.32,0.06-0.55,0.06-.83.1-1.05,0.1-1.21,0-.13-0.04-0.23-0.13-0.23a0.932,0.932,0,0,0-.58.58,6.463,6.463,0,0,1-1.12,1.6c-0.35.32-.96,0.38-2.88,0.38-3.741,0-3.741,0-3.741-.8v-3.2h5.791a24.688,24.688,0,0,1-1.31,2.82,4.232,4.232,0,0,0-.32.7,0.141,0.141,0,0,0,.13.16,1.275,1.275,0,0,0,.67-0.32c0.19-.09.38-0.22,0.61-0.35,0.25-.19.6-0.42,0.92-0.64a16.262,16.262,0,0,1,1.7-1.02h1.44a0.615,0.615,0,0,0,.64-0.58,1.029,1.029,0,0,0-.32-0.64l-2.94-2.88-1.31,1.89h-8.132v-2.4l0.608-.26a0.682,0.682,0,0,0-.256-1.31l-3.264-.19v4.16H986.62c-0.224-1.47-.416-1.99-0.8-1.99a0.368,0.368,0,0,0-.32.45,4.414,4.414,0,0,1-1.951,3.55c-1.216,1-1.344,1.16-1.344,1.83a1.492,1.492,0,0,0,1.44,1.57,3.113,3.113,0,0,0,2.559-1.96,7.133,7.133,0,0,0,.48-2.59h4.928c-0.576,3.39-3.2,5.51-8.447,6.85-0.384.13-.512,0.22-0.512,0.38a0.276,0.276,0,0,0,.32.26,24.54,24.54,0,0,0,6.335-1.54,4.137,4.137,0,0,1,1.44,2.05,7.89,7.89,0,0,0,.32.83,4.772,4.772,0,0,0,.256.55H989.18c-1.376,0-2.752-.03-6.3-0.19l0.672,1.21c3.423-.13,4.543-0.16,5.7-0.16h5.12v2.72h-3.808c-1.312,0-2.5-.03-5.567-0.16l0.7,1.15c2.4-.09,3.3-0.12,4.864-0.12h3.808v3.1h-6.3c-1.408,0-2.816-.03-6.271-0.16Zm14.5-17.95v4.19c0,1.44.352,1.7,2.431,1.73a22.8,22.8,0,0,1-1.343,3.46h-4.64a1.569,1.569,0,0,0,.288-0.9,2.56,2.56,0,0,0-1.376-2.14,6.984,6.984,0,0,0-2.176-.77,7.408,7.408,0,0,0,4.1-5.15,1.627,1.627,0,0,0,.128-0.42h2.592ZM986.4,3290.92a0.389,0.389,0,0,0-.352.35,4.855,4.855,0,0,1-2.4,2.88c-1.472.96-1.6,1.09-1.6,1.79a1.687,1.687,0,0,0,1.824,1.7,3.347,3.347,0,0,0,2.463-1.7,6.043,6.043,0,0,0,.64-2.91C986.972,3291.59,986.78,3290.92,986.4,3290.92Zm3.648,0.09a0.217,0.217,0,0,0-.224.19,0.749,0.749,0,0,0,.192.36c0.576,0.76.864,2.01,0.96,4.06,0.064,1.38.48,1.95,1.376,1.95a1.76,1.76,0,0,0,1.792-1.95c0-1.5-.768-2.62-2.56-3.81A5.238,5.238,0,0,0,990.044,3291.01Zm5.472,0.26a0.21,0.21,0,0,0-.224.19,0.509,0.509,0,0,0,.256.35,5.129,5.129,0,0,1,1.92,2.75c0.608,1.99.608,1.99,0.96,2.34a1.556,1.556,0,0,0,2.462-1.28c0-1.57-1.247-2.94-3.454-3.78A16.709,16.709,0,0,0,995.516,3291.27Zm5.564-.35a0.3,0.3,0,0,0-.32.28,0.847,0.847,0,0,0,.52.48,12.316,12.316,0,0,1,3.64,3.3c1.28,1.92,1.31,1.95,2.02,1.95a1.7,1.7,0,0,0,1.69-1.66q0-2.31-4.19-3.62A22.729,22.729,0,0,0,1001.08,3290.92Zm22.69,5.82a0.575,0.575,0,0,0,.64.64,5.086,5.086,0,0,0,1.47-.29,0.72,0.72,0,0,0,.61-0.77v-12.09a5.655,5.655,0,0,1,1.47,2.4c0.48,1.5.48,1.5,0.74,1.79a1,1,0,0,0,.74.32,1.379,1.379,0,0,0,1.21-1.6c0-1.69-1.5-2.94-4.16-3.45v-2.24h5.41a0.461,0.461,0,0,0,.54-0.42,0.644,0.644,0,0,0-.25-0.45l-2.08-2.11-1.73,2.11h-1.89V3269.8l0.9-.67a0.627,0.627,0,0,0,.29-0.52,0.556,0.556,0,0,0-.58-0.48l-3.33-.22v12.67h-1.79c-2.4-.06-3.62-0.09-4.29-0.13l0.61,1.09c2.85-.09,3.01-0.09,3.68-0.09h1.76a29.075,29.075,0,0,1-5.54,11.35,1.073,1.073,0,0,0-.25.52,0.162,0.162,0,0,0,.19.16,9.251,9.251,0,0,0,2.4-1.89,26.8,26.8,0,0,0,3.23-3.78v8.93Zm-5.41-25.34a0.162,0.162,0,0,0-.19.16,1.158,1.158,0,0,0,.16.35,9.763,9.763,0,0,1,1.44,5.5c0.03,1.32.35,1.76,1.15,1.76,1,0,1.6-.83,1.6-2.14a5.868,5.868,0,0,0-2.52-4.54A6.28,6.28,0,0,0,1018.36,3271.4Zm14.21,1.79a0.722,0.722,0,0,0,.39-0.64,0.659,0.659,0,0,0-.39-0.58l-2.78-1.53a43.217,43.217,0,0,1-2.11,7.01,4.05,4.05,0,0,0-.52,1.28,0.224,0.224,0,0,0,.23.22c0.41,0,2.49-2.56,4.38-5.38Zm-3.74,17.92c2.08-.64,2.69-0.8,4.51-1.31l6.4-1.7v8.26c0,0.41.22,0.6,0.74,0.6a4.182,4.182,0,0,0,1.37-.25,0.785,0.785,0,0,0,.67-0.83v-8.51l5.57-1.54a0.267,0.267,0,0,0,.22-0.26,0.738,0.738,0,0,0-.35-0.54l-2.69-2.21-1.4,3.33-1.35.38v-16.51l0.67-.45a0.667,0.667,0,0,0,.36-0.6,0.6,0.6,0,0,0-.64-0.61l-3.17-.29v19.17l-6.72,1.76c-1.73.48-2.56,0.67-4.9,1.18Zm4.03-11.49a0.162,0.162,0,0,0-.19.16,0.514,0.514,0,0,0,.25.29c1.16,0.8,1.76,1.95,2.12,3.94,0.22,1.12.54,1.5,1.31,1.5,0.99,0,1.53-.64,1.53-1.82a3.33,3.33,0,0,0-2.11-3.11A8.705,8.705,0,0,0,1032.86,3279.62Zm1.09-7.17a0.274,0.274,0,0,0-.32.16,0.554,0.554,0,0,0,.29.39,5.238,5.238,0,0,1,1.95,3.65c0.22,1.12.51,1.5,1.25,1.5a1.591,1.591,0,0,0,1.63-1.79,3.324,3.324,0,0,0-1.89-2.95A7.749,7.749,0,0,0,1033.95,3272.45Zm28.13,7.88h4.57a0.484,0.484,0,0,0,.45-0.45,0.758,0.758,0,0,0-.35-0.55l-2.15-1.88-1.76,2.01h-0.76v-7.45h4.86a0.4,0.4,0,0,0,.35-0.42,0.611,0.611,0,0,0-.22-0.45l-2.34-2.05-1.69,2.05h-3.81c-1.09,0-1.99-.03-4.26-0.13l0.64,1.09c1.73-.06,1.99-0.06,3.78-0.09v7.45c-1.83-.03-2.15-0.03-4.29-0.13l0.7,1.09c1.67-.06,1.92-0.06,3.59-0.09v8.28c-1.51.29-2.08,0.39-4.83,0.74l1.98,3.36a0.623,0.623,0,0,0,.58.29,0.744,0.744,0,0,0,.73-0.48l0.35-1.09a71.363,71.363,0,0,0,8.26-3.36c1.47-.7,1.76-0.86,1.76-1.09a0.339,0.339,0,0,0-.38-0.32,2.293,2.293,0,0,0-.52.1c-2.52.67-4.16,1.05-5.24,1.28v-7.71Zm19.93,11.61-2.21,2.53h-3.29v-5.44h7.1a0.513,0.513,0,0,0,.42-0.54,0.739,0.739,0,0,0-.26-0.55l-2.37-2.08-1.95,2.31h-2.94v-4.52h3.96v1.06a0.4,0.4,0,0,0,.48.48,7.165,7.165,0,0,0,1.8-.35,0.588,0.588,0,0,0,.48-0.71v-11.48l0.8-.39a0.559,0.559,0,0,0,.32-0.48,1.052,1.052,0,0,0-.39-0.77l-2.59-2.46-1.06,1.44h-9.59l-3.14-1.31v17.05c0,0.36.13,0.45,0.51,0.45a5.831,5.831,0,0,0,1.54-.29c0.48-.16.64-0.28,0.64-0.57v-1.67h3.58v4.52h-1.89c-0.99,0-1.92-.04-4.28-0.13l0.67,1.09c1.79-.07,2.59-0.1,3.61-0.1h1.89v5.44h-3.77c-1.41,0-2.6-.03-5.54-0.16l0.7,1.15c2.31-.1,3.08-0.13,4.84-0.13h14.71a0.417,0.417,0,0,0,.42-0.38,0.667,0.667,0,0,0-.26-0.48Zm-11.74-9.15v-5.57h3.58v5.57h-3.58Zm0-6.43v-5.51h3.58v5.51h-3.58Zm6.24,6.43v-5.57h3.96v5.57h-3.96Zm0-6.43v-5.51h3.96v5.51h-3.96Z" transform="translate(-609.531 -3215.91)"/>
</svg>
