<svg xmlns="http://www.w3.org/2000/svg" width="850.401" height="37.19" viewBox="0 0 850.401 37.19">
  <defs>
    <style>
      .cls-1 {
        fill: #333;
        fill-rule: evenodd;
      }
    </style>
  </defs>
  <path id="食べるだけじゃないお子さまの手作り体験" class="cls-1" d="M497.628,6135.67c-2.414.2-2.842,0.23-5.49,0.35l2.687,4.01a0.984,0.984,0,0,0,.778.55,0.867,0.867,0,0,0,.74-0.55l0.545-1.01c2.609-.74,2.726-0.78,4.868-1.36,4.322-1.17,6.075-1.72,8.294-2.46a0.563,0.563,0,0,0,.507-0.46,0.356,0.356,0,0,0-.39-0.35,3.753,3.753,0,0,0-.584.07c-1.986.24-5.179,0.59-8.216,0.82v-7.86h5.373c2.531,6.34,7.672,10.55,16,13.04a10.946,10.946,0,0,1,4.283-3.78c-5.841-.46-10.163-1.71-13.707-3.89,2.064-1.01,5.569-2.77,7.788-3.89l1.13,0.03,0.272,0.04a0.786,0.786,0,0,0,1.013-.66,1.241,1.241,0,0,0-.584-0.86l-2.882-2.57a71.263,71.263,0,0,1-7.554,7.36,15.277,15.277,0,0,1-4.712-4.82h5.257v0.77a0.6,0.6,0,0,0,.7.63,6.927,6.927,0,0,0,1.947-.43,0.825,0.825,0,0,0,.74-0.97v-8.07l0.817-.23a0.732,0.732,0,0,0,.468-0.7,1,1,0,0,0-.429-0.74l-3.31-3.11-1.246,2.06h-4.128v-2.65l1.13-.51a0.735,0.735,0,0,0,.389-0.66,0.6,0.6,0,0,0-.584-0.58l-4.322-.43v4.83h-3.739l-1.986-1.09a68.733,68.733,0,0,0,9.112-8.49c3.271,5.18,7.4,8.57,14.214,11.6a9.827,9.827,0,0,1,4.088-3.62c-8.294-1.75-13.823-4.44-17.445-8.41l0.74-.23a0.731,0.731,0,0,0,.545-0.66,0.631,0.631,0,0,0-.389-0.55L506,6103.47a49.766,49.766,0,0,1-15.693,16.7,0.945,0.945,0,0,0-.584.63,0.263,0.263,0,0,0,.273.23c0.779,0,4.361-1.87,7.632-4.01v18.65Zm3.739-9.31v-3.77h11.682v3.77H501.367Zm0-4.82v-3.86h11.682v3.86H501.367Zm60.287-13.63c-1.285,0-1.986.15-1.986,0.46,0,0.16.039,0.2,0.623,0.35a6.864,6.864,0,0,1,3.349,2.61c0.623,1.02.779,1.13,1.441,1.13a1.492,1.492,0,0,0,1.6-1.52C566.678,6109.35,564.341,6107.91,561.654,6107.91Zm-4.556,2.88c-1.168,0-1.713.11-1.713,0.35,0,0.15.078,0.19,0.428,0.31a6.8,6.8,0,0,1,3.427,3.08c0.584,0.97.7,1.09,1.324,1.09a1.52,1.52,0,0,0,1.558-1.56C562.122,6112.35,559.746,6110.79,557.1,6110.79Zm-20.872,11.06a0.179,0.179,0,0,0-.039.11,2.35,2.35,0,0,0-.155.9,3.379,3.379,0,0,0,1.051,2.45,5.731,5.731,0,0,0,3.31,1.64c1.129,0,2.181-1.01,4.478-4.36,2.609-3.78,3.31-4.52,4.361-4.52,0.7,0,1.324.39,2.337,1.48,0.74,0.82,4.712,4.94,6,6.27a39.2,39.2,0,0,0,6.814,5.45c1.83,1.21,2.921,1.64,4.05,1.64a2.562,2.562,0,0,0,2.765-2.26,3.317,3.317,0,0,0-2.259-2.73,39.293,39.293,0,0,1-13.317-8.18,41.751,41.751,0,0,0-3.31-2.88,4.664,4.664,0,0,0-2.765-1.17c-1.324,0-2.609.74-4.284,2.46-3.348,3.46-5.023,4.59-6.775,4.59A2.939,2.939,0,0,1,536.226,6121.85Zm67.3,12.46c-0.155-.27-0.233-0.47-0.311-0.59a6.23,6.23,0,0,0-5.841-3.42c-2.726,0-4.361,1.24-4.361,3.35,0,2.29,2.531,3.77,6.386,3.77a13.234,13.234,0,0,0,8.683-2.88,9.381,9.381,0,0,0,3.194-6.81c0-4.33-3.7-7.56-8.684-7.56a12.449,12.449,0,0,0-5.88,1.37,0.172,0.172,0,0,1-.117.03,0.076,0.076,0,0,1-.078-0.07c0-1.13,5.958-7.56,8.567-9.23,1.051-.66,1.4-1.05,1.4-1.6,0-1.17-3.076-3.23-4.868-3.23a2.761,2.761,0,0,0-1.518.54c-2.492,1.6-6.153,2.92-8.139,2.92a1.53,1.53,0,0,1-1.557-.81c-0.117-.31-0.156-0.35-0.234-0.35-0.234,0-.351.42-0.351,1.24a3.2,3.2,0,0,0,.623,2.07,3.313,3.313,0,0,0,2.3,1.44c0.428,0,.74-0.16,1.713-0.94,2.22-1.75,5.14-3.46,5.919-3.46a0.437,0.437,0,0,1,.429.46c0,1.56-3.31,6.55-7.2,10.87-1.675,1.87-4.556,4.79-6.231,6.31a2.453,2.453,0,0,0-1.09,1.87c0,1.28,1.441,3.03,2.492,3.03,0.506,0,.9-0.39,1.441-1.55a29.391,29.391,0,0,1,3.738-5.85,9.99,9.99,0,0,1,7.516-3.62,5.915,5.915,0,0,1,3.777,1.48,6,6,0,0,1,1.869,4.68,8.477,8.477,0,0,1-.9,3.93A6.966,6.966,0,0,1,603.523,6134.31Zm-3.5.93c-0.506.04-.818,0.04-0.9,0.04-2.18,0-4.089-.93-4.089-2.02a1.626,1.626,0,0,1,1.87-1.41C598.617,6131.85,599.668,6132.98,600.019,6135.24Zm54.836-30.1c-1.129,0-1.83.16-1.83,0.35,0,0.16.117,0.27,0.428,0.35a5.826,5.826,0,0,1,3.154,2.53c0.818,1.37.857,1.37,1.636,1.37a1.489,1.489,0,0,0,1.519-1.56C659.762,6106.66,657.308,6105.14,654.855,6105.14Zm-4.556,2.65c-1.012,0-1.363.08-1.363,0.35,0,0.16.078,0.23,0.428,0.35a7.045,7.045,0,0,1,3.349,3.31,1.132,1.132,0,0,0,1.169.9,1.521,1.521,0,0,0,1.518-1.6C655.4,6109.39,652.947,6107.79,650.3,6107.79Zm1.4,25.47c-4.439,0-6.737-1.52-6.737-4.52a13.057,13.057,0,0,1,.312-2.53,0.445,0.445,0,0,0,.039-0.2,0.219,0.219,0,0,0-.2-0.23c-0.623,0-1.6,2.61-1.6,4.28a6.315,6.315,0,0,0,4.245,6.19,19.529,19.529,0,0,0,6.853,1.02c3.31,0,4.4-.55,4.4-2.22,0-1.4-1.013-2.3-2.648-2.3Zm-10.514-23.48,0.078-.39,0.078-.47c0.039-.04.078-0.2,0.155-0.35a1.989,1.989,0,0,0,.234-0.74c0-1.05-2.336-2.53-4.011-2.53-0.895,0-2.375.7-2.375,1.13a0.276,0.276,0,0,0,.389.11h0.078a3.107,3.107,0,0,1,.974.35c0.778,0.47,1.129,1.29,1.129,2.69a26.344,26.344,0,0,1-.662,5.53,19.384,19.384,0,0,1-5.413.74c-1.6,0-3.037-.58-3.427-1.4-0.233-.43-0.233-0.47-0.389-0.47a0.254,0.254,0,0,0-.195.31,6.138,6.138,0,0,0,1.169,3.23,3.608,3.608,0,0,0,3,1.45,18.941,18.941,0,0,0,4.634-.63,54.563,54.563,0,0,1-6.737,16.28,2.776,2.776,0,0,0-.7,1.56,2.709,2.709,0,0,0,2.57,2.29,2.542,2.542,0,0,0,1.753-.77c0.545-.59.895-1.37,1.518-3.39,1.636-5.06,3.155-10.52,4.673-16.79a29.736,29.736,0,0,0,5.257-2.64,2.45,2.45,0,0,0,1.324-2.11,0.829,0.829,0,0,0-.895-0.93,7.137,7.137,0,0,1-4.245-1.95Zm-0.312,1.01a5.8,5.8,0,0,1,2.025,2.02c0,0.31-1.285,1.02-2.8,1.52l0.467-2.22Zm9.424,7.28c1.324,0,2.648.47,2.648,0.93,0,0.2,0,.2-1.324,1.06-1.051.74-1.6,1.09-1.636,1.12a0.44,0.44,0,0,0-.311.36,0.258,0.258,0,0,0,.234.19,1.44,1.44,0,0,0,.467-0.16,10.082,10.082,0,0,1,3.816-.7,10.855,10.855,0,0,1,2.414.28c0.507,0.11.623,0.15,0.7,0.15a1.069,1.069,0,0,0,1.091-1.28c0-2.34-2.454-4.09-5.8-4.09a9.17,9.17,0,0,0-4.711,1.17,3.6,3.6,0,0,0-1.441,1.59,0.211,0.211,0,0,0,.2.16,0.139,0.139,0,0,0,.116-0.04A7.561,7.561,0,0,1,650.3,6118.07Zm25.436-10.86a0.255,0.255,0,0,0-.272.23,0.332,0.332,0,0,0,.194.27c0.974,0.74,1.441,1.99,1.441,3.9a23.3,23.3,0,0,1-.35,3.46c-1.208,6.62-1.285,7.13-1.285,9.93,0,5.26,2.531,10.28,5.179,10.28a1.515,1.515,0,0,0,1.557-1.44,1.214,1.214,0,0,0-.117-0.51,5.63,5.63,0,0,1-.623-2.96,38.1,38.1,0,0,1,1.441-7.67,5.328,5.328,0,0,0,.234-1.16,0.264,0.264,0,0,0-.273-0.32c-0.194,0-.35.2-0.584,0.86-0.117.27-.35,0.94-0.74,1.87-0.506,1.25-1.246,3.11-1.674,4.36a0.869,0.869,0,0,1-.662.78c-0.623,0-1.168-1.83-1.168-3.97a26.047,26.047,0,0,1,2.025-8.92c0.856-2.1,1.012-2.73,1.012-3.5,0-1.68-1.09-3.28-3.037-4.52A6.206,6.206,0,0,0,675.735,6107.21Zm22.43,7.71c0.039-.9.039-2.03,0.078-3.51a5.315,5.315,0,0,1,.272-1.79,1.163,1.163,0,0,0,.2-0.51c0-1.24-2.414-3-4.128-3-1.012,0-2.648.63-2.648,0.98a0.229,0.229,0,0,0,.273.19c2.181,0.2,2.765,1.95,2.843,8.61a12.806,12.806,0,0,1-4.089.78,5.981,5.981,0,0,1-3.777-1.13c-0.351-.39-0.351-0.39-0.468-0.39a0.254,0.254,0,0,0-.233.23,5.462,5.462,0,0,0,1.168,1.91,5.525,5.525,0,0,0,4.205,1.87,15.837,15.837,0,0,0,3.427-.39c0,7.83-.272,9.93-1.635,12.93a13.869,13.869,0,0,1-6.776,6.35c-0.779.35-.779,0.35-0.779,0.5a0.369,0.369,0,0,0,.351.31,19.366,19.366,0,0,0,4.867-1.63c5.452-2.65,7.438-6.31,7.438-13.59,0-1.36-.039-2.3-0.156-5.53,4.634-1.64,6.347-2.69,6.347-3.82a1.663,1.663,0,0,0-1.129-1.4,3.5,3.5,0,0,0-1.557-.58,1.467,1.467,0,0,0-1.285.78C700.423,6113.75,699.956,6114.06,698.165,6114.92Zm41.947-5.81c-1.207,0-1.83.12-1.83,0.39a0.324,0.324,0,0,0,.272.28,7,7,0,0,1,3.933,3.34,1.025,1.025,0,0,0,1.09.67,1.51,1.51,0,0,0,1.636-1.52C745.213,6110.63,742.76,6109.11,740.112,6109.11Zm-4.089,3.39c-1.285,0-1.713.08-1.713,0.35a0.308,0.308,0,0,0,.272.27,6.75,6.75,0,0,1,3.622,3.39c0.389,0.82.584,0.98,1.246,0.98a1.488,1.488,0,0,0,1.518-1.56C740.968,6114.21,738.476,6112.5,736.023,6112.5Zm-10.358-6.77c-0.818,0-1.869.35-1.869,0.66a0.173,0.173,0,0,0,.194.15c1.441,0.16,2.142,1.6,2.142,4.36,0,0.51-.078,2.3-0.233,4.83-0.546,9.82-.546,10.09-0.546,11.49,0,7.2,3.193,11.02,9.268,11.02,4.206,0,8.1-2.22,11.254-6.39a14.736,14.736,0,0,0,2.258-4.05,0.234,0.234,0,0,0-.194-0.27,0.269,0.269,0,0,0-.234.2,18.228,18.228,0,0,1-3.582,3.54,15.646,15.646,0,0,1-9.5,3.43c-4.089,0-6.308-2.57-6.308-7.25a90.892,90.892,0,0,1,1.791-13.7c0.7-2.14.779-2.42,0.779-3.08C730.883,6108.22,728.235,6105.73,725.665,6105.73ZM774,6125.08c1.558,2.1,3.154,6.42,4.245,11.17,0.506,2.46.895,3.12,1.908,3.12a2.256,2.256,0,0,0,2.141-2.22c0-.9-0.74-2.92-2.025-5.68a64.258,64.258,0,0,0-4.478-7.79c4.985-3.74,7.243-4.87,9.852-4.87,2.531,0,3.972,1.36,3.972,3.78,0,2.49-1.947,4.2-4.79,4.2a10.914,10.914,0,0,1-4.867-1.44,0.868,0.868,0,0,0-.428-0.19,0.286,0.286,0,0,0-.234.27,2.45,2.45,0,0,0,1.051,1.13c2.3,1.83,3.855,2.49,5.919,2.49a6.654,6.654,0,0,0,6.893-6.62c0-3.23-2.454-5.41-6.036-5.41a14.575,14.575,0,0,0-4.245.78,1.937,1.937,0,0,0-1.129-2.18,3.648,3.648,0,0,1-3.5-3.2,0.511,0.511,0,0,1,.038-0.23,0.869,0.869,0,0,0,.039-0.27,0.257,0.257,0,0,0-.194-0.24c-0.545,0-1.246,1.33-1.246,2.34a4.381,4.381,0,0,0,.778,2.26,0.081,0.081,0,0,1,.039.08,0.351,0.351,0,0,1-.272.11,0.484,0.484,0,0,1-.234-0.04,33.234,33.234,0,0,0-4.322-.46c-2.1,0-3.622,1.05-3.622,2.53a2.125,2.125,0,0,0,.7,1.48,23.042,23.042,0,0,1,1.636,1.79,11.166,11.166,0,0,1,1.012,1.44c-2.881,1.67-3.855,2.1-4.945,2.1a2.137,2.137,0,0,1-2.142-1.01c-0.039-.16-0.078-0.19-0.2-0.19a1.26,1.26,0,0,0-.389,1.16,3.6,3.6,0,0,0,3.349,3.39,4.751,4.751,0,0,0,2.726-1.28c0.584-.43,1.129-0.86,1.6-1.21Zm0.779-3.04c-0.7-1.09-.857-1.28-1.168-1.79-0.9-1.32-1.091-1.71-1.091-2.3s0.623-.93,1.753-0.93a10.058,10.058,0,0,1,4.789,1.24,6.917,6.917,0,0,0,1.4.63A62.115,62.115,0,0,0,774.777,6122.04Zm55.81-6.38c2.1,0,4.049.89,4.049,1.86,0,0.36-.155.43-1.012,0.67a7.348,7.348,0,0,0-4.946,4.12c-0.467,1.21-.623,2.92-0.623,7.09a17.189,17.189,0,0,0-1.908-.08,11.043,11.043,0,0,0-5.14,1.02,4.443,4.443,0,0,0-2.336,3.66c0,2.88,3,5.06,6.931,5.06,2.414,0,4.167-.78,5.062-2.3a6.585,6.585,0,0,0,.779-3.54,15.756,15.756,0,0,1,3.972,3.03,2.913,2.913,0,0,0,2.025,1.17,1.806,1.806,0,0,0,1.636-1.87c0-1.9-3.038-4.08-7.633-5.45a53.5,53.5,0,0,1-.7-6.31c0-2.84,1.169-4.4,3.31-4.4a9.268,9.268,0,0,1,4.089,1.13,1.675,1.675,0,0,0,1.4-1.87c0-2.57-2.648-4.63-5.958-4.63-1.83,0-4.712.9-4.712,1.48a0.246,0.246,0,0,0,.234.23,0.736,0.736,0,0,0,.272-0.04Zm-2.571,17.4c0,1.87-1.285,3.04-3.309,3.04-2.3,0-3.817-.97-3.817-2.38,0-1.48,1.441-2.45,3.544-2.45a10.2,10.2,0,0,1,3.582.66v1.13Zm-9.5-17.29c-1.83,5.03-4.6,9.39-7.632,12-0.9.81-1.246,1.32-1.246,1.83a2.215,2.215,0,0,0,2.219,2.06,3.135,3.135,0,0,0,2.337-1.05,18.818,18.818,0,0,0,1.986-3.39,101.5,101.5,0,0,0,5.412-12.11,15.659,15.659,0,0,0,3.622-1.4c1.752-.94,2.453-1.79,2.453-3.04,0-.93-0.2-1.09-1.207-1.13a5.162,5.162,0,0,1-3.427-.85c0.117-.71.195-1.06,0.312-1.95a3.455,3.455,0,0,0-3.232-1.72c-1.169,0-2.648.55-2.648,1.02,0,0.11.077,0.15,0.311,0.15a2.341,2.341,0,0,1,2.3,2.46,13.124,13.124,0,0,1-.779,4.05,14.427,14.427,0,0,1-4.284.77c-1.674,0-3.193-.7-3.621-1.71-0.117-.27-0.2-0.31-0.312-0.31a0.267,0.267,0,0,0-.272.27,5.9,5.9,0,0,0,.934,2.65,4.374,4.374,0,0,0,3.778,1.67A19.731,19.731,0,0,0,818.515,6115.77Zm4.322-6.46c1.363,0.85,1.519,1.01,1.519,1.17,0,0.42-.779.97-2.3,1.63C822.487,6110.63,822.565,6110.4,822.837,6109.31Zm53.084,7.01c-1.207,0-2.687.46-2.687,0.82,0,0.11.117,0.19,0.39,0.19,3.972-.19,6.853,2.88,7.476,7.94,0.156,1.87.195,1.95,0.584,2.42a1.8,1.8,0,0,0,1.247.5,2.736,2.736,0,0,0,2.492-2.96,8.455,8.455,0,0,0-2.376-5.64A9.142,9.142,0,0,0,875.921,6116.32Zm-20.872-6.27a0.443,0.443,0,0,0-.506.23,0.32,0.32,0,0,0,.2.27c1.4,0.74,2.064,2.26,2.064,4.68,0,0.39,0,.81-0.039,1.4-0.078,1.75-.156,3.54-0.156,4.28,0,4.87,1.012,8.69,3.037,11.53,1.752,2.41,3.933,3.78,6,3.78a1.851,1.851,0,0,0,1.986-1.48,0.769,0.769,0,0,0-.078-0.32,5.291,5.291,0,0,1-1.168-3.34,22.458,22.458,0,0,1,1.324-6.86,0.219,0.219,0,0,0,.039-0.15,0.27,0.27,0,0,0-.273-0.28c-0.2,0-.662.78-1.947,3.39a21.854,21.854,0,0,1-1.557,3,1.29,1.29,0,0,1-1.013.7,2.271,2.271,0,0,1-1.324-1.05,10.688,10.688,0,0,1-1.869-6.74,23.761,23.761,0,0,1,.935-6.81,5.367,5.367,0,0,0,.428-1.68,4.68,4.68,0,0,0-1.129-2.64A7.6,7.6,0,0,0,855.049,6110.05Zm55.849,15.92c4.751-2.95,7.165-3.93,9.657-3.93,2.375,0,3.933,1.75,3.933,4.4a6.03,6.03,0,0,1-5.919,6.08c-1.947,0-3.193-1.41-3.193-3.55a6.7,6.7,0,0,1,.623-2.64,1.038,1.038,0,0,0,.078-0.28,0.2,0.2,0,0,0-.156-0.19c-0.818,0-2.1,2.65-2.1,4.32a7.525,7.525,0,0,0,.818,3.39c0.857,1.44,2.3,2.14,4.439,2.14a9.077,9.077,0,0,0,9.19-8.92c0-3.81-2.765-6.34-6.814-6.34-3.038,0-5.958.97-10.592,3.46v-1.79c0-1.05.039-1.83,0.078-2.88,4.283-1.64,6.464-3.31,6.464-4.99a0.992,0.992,0,0,0-.935-1.09,4.344,4.344,0,0,0-.584.04H915.61a11.611,11.611,0,0,1-4.362-1.21,4.624,4.624,0,0,1,.468-1.63,1.17,1.17,0,0,0,.194-0.51c0-1.05-2.18-2.49-3.7-2.49-1.051,0-2.648.82-2.648,1.36a0.294,0.294,0,0,0,.273.24h0.077a0.7,0.7,0,0,1,.429-0.12c1.168,0,1.713.9,1.947,3.31,0.233,2.57.311,3.78,0.311,4.91a15.208,15.208,0,0,1-4.634.78c-1.6,0-2.414-.35-2.725-1.17a0.2,0.2,0,0,0-.195-0.16c-0.2,0-.273.27-0.273,0.9,0,1.83,1.4,3.07,3.466,3.07a19.037,19.037,0,0,0,4.478-.66c0.117,1.56.117,2.38,0.117,5.03-1.752.89-3.115,1.63-5.958,3.11-2.336,1.29-2.336,1.29-2.843,1.29a0.809,0.809,0,0,1-.506-0.2,0.909,0.909,0,0,0-.7-0.35,1.464,1.464,0,0,0-1.285,1.6c0,1.55,1.83,3.81,3.115,3.81,0.468,0,.624-0.11,2.142-1.79,0.74-.78.779-0.85,1.246-1.36,2.142,1.44,3.31,3.43,3.193,5.37,0,0.9.117,1.09,0.7,1.09a3.932,3.932,0,0,0,3.5-3.38,2.073,2.073,0,0,0-.039-0.43c-0.2-2.22-.234-3.16-0.467-7.13Zm-1.908,5.22c0,0.78-.2,1.29-0.545,1.29a18.462,18.462,0,0,1-3.739-2.22c1.48-1.21,2.22-1.79,4.284-3.23-0.039,1.05-.039,1.44-0.039,2.1Zm2.1-18.38c0.662,0.31,1.4.7,2.258,1.13,0.2,0.08.234,0.12,0.234,0.27,0,0.67-1.013,1.48-2.57,2.11l0.039-1.75Zm15.693,0.35a8.877,8.877,0,0,0-5.141,1.6,1.227,1.227,0,0,0-.662.66,0.2,0.2,0,0,0,.2.24,1.479,1.479,0,0,0,.467-0.12,5.572,5.572,0,0,1,1.87-.31,6.908,6.908,0,0,1,3.7,1.17,6.98,6.98,0,0,1,2.181,2.45,2.01,2.01,0,0,0,.584,1.17,1.822,1.822,0,0,0,1.129.46,2.659,2.659,0,0,0,2.3-2.64C933.405,6115.23,930.485,6113.16,926.786,6113.16Zm44.594,9.7h-9.968v-5.41l0.584-.47a0.762,0.762,0,0,0,.272-0.58,0.95,0.95,0,0,0-.116-0.36c1.012-.66,1.09-0.7,2.1-1.32,0.584-.39,1.169-0.74,1.753-1.09,1.363-.86,1.986-1.21,3.972-2.49l1.4-.08a0.751,0.751,0,0,0,.857-0.74,1.122,1.122,0,0,0-.35-0.78l-3.388-3.35-1.791,1.99H953.935c-2.3,0-3.427-.04-6.776-0.2l0.857,1.41c2.843-.12,3.894-0.16,5.919-0.16H966.24a58.9,58.9,0,0,1-5.3,6.23l-3.115-.7v8.1h-8.294c-2.1,0-3.7-.04-7.671-0.23l0.817,1.48c3.31-.16,4.05-0.2,6.854-0.2h8.294v10.36c0,1.01-.156,1.17-1.285,1.17-0.35,0-2.959-.12-3.816-0.2-0.623-.04-1.285-0.08-1.519-0.08a0.352,0.352,0,0,0-.428.32c0,0.31.272,0.42,3.31,1.28,2.531,0.7,2.765.86,2.842,1.79a3.059,3.059,0,0,0,.117.9,0.605,0.605,0,0,0,.584.39,6.981,6.981,0,0,0,2.259-.82,2.369,2.369,0,0,0,1.519-2.53v-12.58h16.16a0.448,0.448,0,0,0,.467-0.47,1.018,1.018,0,0,0-.272-0.54l-3.505-3.08Zm34.28-14.99a2.1,2.1,0,0,0,.39.08,0.236,0.236,0,0,0,.27-0.2c0-.51-2.69-1.91-3.74-1.91a3.38,3.38,0,0,0-3.193,2.92c0,0.66.155,0.86,1.593,1.83a17.755,17.755,0,0,1,4.48,4.17,23.692,23.692,0,0,1-7.436,1.25c-2.726,0-4.245-.51-5.491-1.83a0.214,0.214,0,0,0-.2-0.12,0.174,0.174,0,0,0-.116.15,5.16,5.16,0,0,0,.506,1.41,6.29,6.29,0,0,0,6.036,3.42,26.4,26.4,0,0,0,8.766-1.79c3.19,4.32,4.63,7.17,4.63,9.11a0.292,0.292,0,0,1-.31.32,1.823,1.823,0,0,1-.66-0.24,16.341,16.341,0,0,0-7.91-1.91c-4.867,0-8.177,2.69-8.177,6.62a6.7,6.7,0,0,0,3.232,5.61,17.422,17.422,0,0,0,8.295,1.91c2.65,0,4.67-.82,4.67-1.87a2.762,2.762,0,0,0-2.37-2.45,4.618,4.618,0,0,0-.98.15,6.231,6.231,0,0,1-2.06.24c-5.14,0-8.061-1.48-8.061-4.13,0-3,1.986-4.87,5.291-4.87a12.546,12.546,0,0,1,4.95,1.29,21.894,21.894,0,0,1,4.83,3.38,1.512,1.512,0,0,0,1.32.59c1.72,0,2.57-1.21,2.57-3.62,0-2.5-1.67-5.03-7.24-11.02,3.5-1.52,6.39-3.86,6.39-5.18a1.538,1.538,0,0,0-1.56-1.4,1.684,1.684,0,0,0-.35.03c-0.94.08-.94,0.08-1.09,0.08a10.627,10.627,0,0,1-2.73-.54,0.274,0.274,0,0,0-.15-0.04,0.171,0.171,0,0,0-.16.15,0.413,0.413,0,0,0,.27.32,2.333,2.333,0,0,1,1.05,1.09c0,0.81-1.48,2.1-3.54,3.11-1.4-1.63-2.02-2.37-3.39-3.97a1.525,1.525,0,0,1-.54-1.01,1.427,1.427,0,0,1,1.63-1.13h0.28Zm43.93,13.86a42.4,42.4,0,0,1-4.91.39c-3.07,0-5.1-.74-5.88-2.18-0.31-.51-0.31-0.55-0.5-0.55a0.215,0.215,0,0,0-.2.16v0.04a0.56,0.56,0,0,1,.04.31,6.466,6.466,0,0,0,1.25,2.88c1.09,1.33,2.72,1.95,5.33,1.95a34.22,34.22,0,0,0,4.91-.43c0,1.13,0,1.29.04,3l0.04,2.34a12.964,12.964,0,0,0-1.91-.12c-3.04,0-4.68.31-6.27,1.17a3.547,3.547,0,0,0-2.03,3.11c0,2.57,2.88,4.36,7.05,4.36,3.82,0,6.78-1.91,6.78-4.4v-0.54a19.732,19.732,0,0,1,4.4,3.74,2.019,2.019,0,0,0,1.67.89,1.571,1.571,0,0,0,1.64-1.75c0-1.17-.74-2.22-2.38-3.39a15.836,15.836,0,0,0-5.53-2.49c-0.43-2.73-.54-3.82-0.74-6.39,5.88-1.32,8.73-2.68,8.73-4.2a1.29,1.29,0,0,0-1.17-1.17l-0.51.04a5.139,5.139,0,0,1-2.49-.86,3.075,3.075,0,0,0-.74-0.54,0.245,0.245,0,0,0-.2.19,0.442,0.442,0,0,0,.16.31,2.5,2.5,0,0,1,.39,1.13c0,1.09-.9,1.6-4.44,2.49a14.426,14.426,0,0,1-.12-2.14c0-1.32.04-1.91,0.12-2.96,3.23-.78,4.67-1.44,4.67-2.1,0-.74-1.13-1.52-2.76-1.87-0.24.51-.55,0.7-1.72,1.05a9.845,9.845,0,0,1,1.02-4.48,1.743,1.743,0,0,0,.27-0.77c0-1.37-2.26-2.85-4.32-2.85-0.94,0-2.49.51-2.49,0.82,0,0.12.11,0.16,0.35,0.16a2.136,2.136,0,0,1,1.71,1.59c0.31,0.74.35,1.48,0.47,6.12a5.631,5.631,0,0,1-1.72.23c-1.79,0-3.62-.82-4.09-1.87a0.187,0.187,0,0,0-.19-0.16,0.24,0.24,0,0,0-.2.28c0,2.88,1.6,4.44,4.6,4.44,0.39,0,.66,0,1.79-0.08Zm0.23,10.4c0,2.37-1.24,3.58-3.74,3.58-2.6,0-4.24-.9-4.24-2.3,0-1.44,1.17-2.06,3.93-2.06a13.9,13.9,0,0,1,4.05.54v0.24Zm46.47-21.23c0.42-.03.7-0.03,0.81-0.03a9.414,9.414,0,0,1,4.02.93c3.38,1.71,5.14,5.26,5.14,10.48,0,4.78-1.6,8.33-4.99,11.09a20.813,20.813,0,0,1-6.97,3.62c-0.62.2-.74,0.24-0.74,0.43,0,0.16.16,0.24,0.39,0.24a17.3,17.3,0,0,0,2.49-.47,23.952,23.952,0,0,0,7.21-2.65,14.355,14.355,0,0,0,7.2-12.46,11.738,11.738,0,0,0-3.08-8.22,15.043,15.043,0,0,0-10.94-4.28c-9.11,0-16.94,7.36-16.94,15.93a10.14,10.14,0,0,0,1.91,6.27,4.733,4.733,0,0,0,3.27,2.14c2.14,0,5.53-2.77,7.83-6.35a25.088,25.088,0,0,0,3.89-12.65A14.894,14.894,0,0,0,1096.29,6110.9Zm-1.91.16a1.833,1.833,0,0,0,.08.27,9.724,9.724,0,0,1,.23,2.18c0,3.47-1.48,7.79-3.97,11.65-1.64,2.57-3.86,4.59-5.06,4.59s-2.26-2.02-2.26-4.32a15.232,15.232,0,0,1,4.59-10.86A14.619,14.619,0,0,1,1094.38,6111.06Zm28.32,15.5,0.78,1.48,3.77-.12c1.21-.08,2.26-0.08,3.12-0.08h8.33v6.9c0,0.89-.15.97-1.91,0.97-1.44,0-1.44,0-3.15-.08-1.17-.04-1.17-0.04-1.25-0.04-0.31,0-.5.12-0.5,0.28,0,0.31.04,0.31,2.02,0.89,0.9,0.23,1.75.51,2.65,0.78l0.51,0.16c0.42,0.19.54,0.42,0.62,1.36,0.08,0.74.27,1.01,0.78,1.01a6.9,6.9,0,0,0,2.33-.74c1.41-.74,1.68-1.21,1.68-2.84v-8.65h16a0.456,0.456,0,0,0,.31-0.5,0.524,0.524,0,0,0-.23-0.43l-3.35-2.92-2.45,2.8h-10.28v-7.16h13.16a0.385,0.385,0,0,0,.43-0.39,0.662,0.662,0,0,0-.35-0.59l-3.2-2.72-2.37,2.65h-7.67v-7.91c5.61-1.09,5.68-1.13,8.6-1.63h1.72a0.444,0.444,0,0,0,.54-0.39,1,1,0,0,0-.27-0.55l-3.12-3.11c-4.63,2.25-13.2,4.63-23.01,6.38-2.3.43-2.3,0.43-2.3,0.78,0,0.31.2,0.39,0.86,0.39,2.02,0,9.89-.74,13.2-1.25v7.29h-5.49c-1.52,0-3.12-.04-7.67-0.24l0.86,1.48c3.66-.15,5.14-0.19,6.81-0.19h5.49v7.16h-8.33c-0.7,0-1.91-.04-3.31-0.08Zm50.32,12.85c0,0.58.11,0.7,0.54,0.7,1.29,0,2.84-.66,2.84-1.21v-22.5l0.59-.36a0.639,0.639,0,0,0,.35-0.58,0.768,0.768,0,0,0-.43-0.7l-0.55-.19c0.98-2.11,1.87-4.37,2.65-6.62l0.98-.39a0.773,0.773,0,0,0,.58-0.67,0.967,0.967,0,0,0-.55-0.81l-4.08-1.76c-1.33,7.48-4.64,16.09-8.06,20.84a1.643,1.643,0,0,0-.36.66,0.386,0.386,0,0,0,.36.35c0.58,0,3.27-3.15,5.14-5.96v19.2Zm17.28-10.48h11.57a0.479,0.479,0,0,0,.39-0.5,0.849,0.849,0,0,0-.27-0.55l-3.12-2.76-2.72,2.76h-5.85v-6.31h11.3a0.514,0.514,0,0,0,.46-0.54,0.653,0.653,0,0,0-.27-0.51l-3.31-2.72-2.45,2.72h-5.73v-6.31h13.17a0.492,0.492,0,0,0,.43-0.54,0.681,0.681,0,0,0-.28-0.55l-3.42-2.99-2.57,3.03h-10.79c1.01-1.75,1.63-2.92,2.53-4.83l1.32-.38a0.831,0.831,0,0,0,.63-0.78,0.738,0.738,0,0,0-.51-0.7l-4.4-2.11a47.592,47.592,0,0,1-7.83,17.76,1,1,0,0,0-.31.54,0.271,0.271,0,0,0,.27.28c0.39,0,1.17-.66,2.65-2.22a40.569,40.569,0,0,0,5.07-6.51h0.54v24.81c0,0.62.16,0.78,0.74,0.78,1.4,0,2.76-.66,2.76-1.36v-9.51Zm42.93-15.3c1.94,0,3.15,3.39,3.15,8.84,0,5.1-1.25,9.07-3.74,11.84a22.545,22.545,0,0,1-6.66,4.9c-0.58.28-.62,0.28-0.62,0.47a0.264,0.264,0,0,0,.27.24,1.519,1.519,0,0,0,.51-0.12c0.08-.04.39-0.12,0.85-0.24a24.3,24.3,0,0,0,6.51-3.11c4.59-3.23,6.97-8.02,6.97-14.1,0-6.42-2.45-10.71-6.15-10.71-2.65,0-5.03,2.34-7.33,7.25a1.152,1.152,0,0,1-.81.85c-0.28,0-.47-0.66-0.47-1.4,0-1.67.7-3.89,2.14-6.77,1.25-2.5,1.4-2.88,1.4-3.55,0-1.75-2.57-3.77-4.79-3.77-0.93,0-1.9.31-1.9,0.58,0,0.12.07,0.19,0.31,0.23,1.4,0.2,1.98,1.09,1.98,2.92a24.183,24.183,0,0,1-.85,5.49,32.763,32.763,0,0,0-1.05,7.56c0,4.44,1.47,7.98,3.3,7.98a2.05,2.05,0,0,0,1.76-1.95,3.2,3.2,0,0,0-.16-0.89,10.411,10.411,0,0,1-.39-2.49C1227.46,6119,1230.54,6113.63,1233.23,6113.63Zm29.79,25.74c0,0.86.16,1.05,0.94,1.05,1.59,0,2.49-.54,2.49-1.48v-22.66l0.39-.31a1.251,1.251,0,0,0,.51-0.78,0.748,0.748,0,0,0-.51-0.7l-0.35-.16c0.86-2.02,1.28-3.23,2.33-6.23l0.63-.15a1.11,1.11,0,0,0,1.01-.94,1.021,1.021,0,0,0-.74-0.82l-3.97-1.75c-1.83,9.54-3.58,14.72-7.09,20.91a6.585,6.585,0,0,0-.93,1.71,0.265,0.265,0,0,0,.27.28c0.47,0,2.8-2.73,5.02-5.88v17.91Zm14.88-9.66h-0.86c-0.23,0-1.24,0-2.26-.04l-2.96-.11,0.63,1.32c2.29-.08,3.27-0.12,4.59-0.12h0.86v8.65c0,0.74.23,0.93,1.01,0.93a4.411,4.411,0,0,0,1.75-.35,1.15,1.15,0,0,0,.86-1.32v-7.91h5.92c0.58,0,.78-0.11.78-0.46a0.912,0.912,0,0,0-.43-0.63l-2.65-2.37-2.1,2.41h-1.52v-12.85a31.91,31.91,0,0,0,9.85,14.92,7.575,7.575,0,0,1,3.47-3.31c-6.39-3.59-10.28-7.64-12.93-13.4h11.25a0.641,0.641,0,0,0,.7-0.66,1.234,1.234,0,0,0-.62-0.94l-3.23-2.41-2.45,2.96h-6.04v-7.17l0.9-.31a0.762,0.762,0,0,0,.62-0.81,0.815,0.815,0,0,0-.94-0.82l-4.2-.39v9.5h-3.51c-1.44,0-2.84-.04-6.73-0.19l0.7,1.4c2.84-.12,3.81-0.16,6.03-0.16h2.81a48.766,48.766,0,0,1-9.35,15.97,3.535,3.535,0,0,0-.86,1.13,0.341,0.341,0,0,0,.28.27,15.788,15.788,0,0,0,3.27-2.45,44.272,44.272,0,0,0,7.36-8.96v8.68Zm27.38-1.28c-0.12,0-.15.08-0.15,0.47a6.583,6.583,0,0,1-1.72,4.78,3.189,3.189,0,0,0-.7,1.76,1.232,1.232,0,0,0,1.33,1.32c1.32,0,2.25-1.6,2.25-3.97C1306.29,6131.27,1305.63,6128.43,1305.28,6128.43Zm2.42-3.94h7.78c0.04,0.51.04,0.86,0.04,1.13a48.59,48.59,0,0,1-.58,6.94c-0.51,3.11-1.01,3.77-2.92,3.77-0.51,0-1.33-.08-2.03-0.15-2.06-.31-2.06-0.31-2.14-0.31a0.275,0.275,0,0,0-.31.27,0.551,0.551,0,0,0,.39.39l1.17,0.54c0.35,0.16.66,0.31,0.85,0.39,0.43,0.24.74,0.39,0.82,0.43a0.558,0.558,0,0,1,.47.51,2.126,2.126,0,0,1-.04.46,2.409,2.409,0,0,0-.04.47c0,0.78.31,1.01,1.17,1.01a4.762,4.762,0,0,0,2.53-.74c1.29-.78,1.95-1.87,2.45-3.97,0.63-2.61.78-3.89,1.09-9.58l0.35-.11a0.654,0.654,0,0,0,.51-0.63,0.993,0.993,0,0,0-.23-0.62l-2.69-3.15-1.21,1.9h-1.83v-4.4h5.1c-1.01,1.13-1.16,1.33-1.16,1.48a0.291,0.291,0,0,0,.27.28c0.39,0,3-2.15,4.4-3.66h4.32v3.81h-3.27l-3.23-1.4v10.63c0,0.55.11,0.7,0.5,0.7a5.6,5.6,0,0,0,1.95-.39,0.88,0.88,0,0,0,.59-1.01v-1.56h3.19c-0.47,5.3-2.26,8.22-6.89,11.26-1.76,1.05-1.76,1.05-1.76,1.24a0.224,0.224,0,0,0,.2.24,4.32,4.32,0,0,0,1.32-.36,18.773,18.773,0,0,0,7.28-4.86c1.33-1.6,1.91-2.88,2.73-6.12a20.642,20.642,0,0,0,7.71,10.91,6.538,6.538,0,0,1,3.58-2.77c-5.72-2.49-9.15-5.49-10.82-9.54h4.13v1.56c0,0.35.23,0.51,0.7,0.51,1.55,0,2.41-.39,2.41-1.13v-5.65l0.35-.12a0.665,0.665,0,0,0,.51-0.66,1.286,1.286,0,0,0-.39-0.78l-2.57-2.61-1.17,1.91h-3.97v-3.81h3.19c0.51,0,.74-0.2.74-0.55a0.886,0.886,0,0,0-.31-0.62l-2.57-2.22-1.79,2.33h-5.69a36.05,36.05,0,0,0,5.65-9.15c2.18,5.73,4.79,9.47,8.49,12.31a6.266,6.266,0,0,1,3.11-3.04c-5.95-3.04-8.91-5.65-10.82-9.66l0.39-.23a0.718,0.718,0,0,0,.43-0.62c0-.31-0.2-0.47-0.82-0.7l-3.35-1.13c-2.34,7.12-3.7,10-6.7,14.02l-2.61-2.3-1.95,2.45h-1.4v-4.36h5.3c0.58,0,.86-0.2.86-0.58a1.125,1.125,0,0,0-.43-0.78l-2.46-1.99-1.79,2.3h-1.48v-4.44h6.43c0.47,0,.78-0.16.78-0.43a0.874,0.874,0,0,0-.39-0.58l-2.88-2.42-1.8,2.38h-7.32l-3.5-1.6v20.8c0,0.5.12,0.62,0.47,0.62a8.2,8.2,0,0,0,2.06-.31,0.687,0.687,0,0,0,.55-0.74v-1.41Zm0-1.05v-4.4h2.64v4.4h-2.64Zm0-5.45v-4.32h2.64v4.32h-2.64Zm0-5.37v-4.44h2.64v4.44h-2.64Zm15.07,14.25V6122h3.46c-0.08,2.46-.12,4.09-0.19,4.87h-3.27Zm10.67-4.87v4.87h-4.33c0.12-1.67.16-2.73,0.2-4.87h4.13Zm-26.09,10.56c-0.04.77-.08,1.32-0.08,1.4a0.844,0.844,0,0,0,.81.97,1.568,1.568,0,0,0,1.45-1.71,6.628,6.628,0,0,0-1.48-3.82,3.662,3.662,0,0,0-1.17-1.05,0.259,0.259,0,0,0-.2.19,2.318,2.318,0,0,0,.12.39,6.242,6.242,0,0,1,.55,3v0.63Zm1.71-5.14c-0.2.07-.24,0.07-0.24,0.19a0.23,0.23,0,0,0,.08.19,6.648,6.648,0,0,1,1.37,3.67c0.11,1.01.42,1.51,0.93,1.51a1.437,1.437,0,0,0,1.25-1.4,4.474,4.474,0,0,0-.9-2.37,7.52,7.52,0,0,0-2.14-1.72,0.419,0.419,0,0,1-.2-0.07,0.1,0.1,0,0,0-.07-0.04Zm1.83-1.72a0.247,0.247,0,0,0-.23.2,0.541,0.541,0,0,0,.23.35,6.586,6.586,0,0,1,1.48,2.14c0.7,1.91.82,2.1,1.4,2.1a1.135,1.135,0,0,0,1.13-1.24,3.366,3.366,0,0,0-1.95-2.69A5.723,5.723,0,0,0,1310.89,6125.7Z" transform="translate(-489.719 -6103.47)"/>
</svg>
