<svg xmlns="http://www.w3.org/2000/svg" viewBox="0 0 625.53 33.55"><defs><style>.cls-1{fill:#343434;}</style></defs><g id="Layer_2" data-name="Layer 2"><g id="Layer_1-2" data-name="Layer 1"><path class="cls-1" d="M2.63,14.28V13.13c0-.69,0-1.15,0-1.34A2.91,2.91,0,0,0,.29,8.84C.11,8.77,0,8.69,0,8.62s1.08-.5,1.88-.5,1.58.39,3,1.4a7.61,7.61,0,0,0,.69.51c.43.29.58.43.58.61s0,.11-.22.47a6.51,6.51,0,0,0-.72,2.74c-.29,2.89-.43,5.12-.43,6.75,0,2.49.1,2.85.82,2.85,1.52,0,4.91-1.74,8.45-4.33A54.18,54.18,0,0,0,24.46,9.05c.32-.47.43-.54.54-.54s.32.26.32.44a12.32,12.32,0,0,1-1.4,2.52,41,41,0,0,1-8.05,8.69,40.58,40.58,0,0,1-8.15,5.31A7.87,7.87,0,0,0,5.3,27.13c-.32.36-.54.5-.68.5a6,6,0,0,1-1.52-1A2.78,2.78,0,0,1,2,25.21a1.34,1.34,0,0,1,.14-.54,4.68,4.68,0,0,0,.47-2Z"/><path class="cls-1" d="M43,19.77A7.67,7.67,0,0,1,41.3,20a4.4,4.4,0,0,1-3.18-1.95,10.11,10.11,0,0,1-.25-2c0-.25.11-.43.29-.43s.18.07.29.25c.46,1.05,1.33,1.41,3.42,1.41A167.44,167.44,0,0,0,62.72,15.8a8.68,8.68,0,0,1,1-.07,2.43,2.43,0,0,1,1.91.79c.68.65.94,1,.94,1.34,0,.54-.73.86-1.88.86-.29,0-.69,0-1.34,0s-3.71-.11-5.23-.11A97,97,0,0,0,43,19.77Z"/><path class="cls-1" d="M86.56,14.14c1.37.9,2,1.73,2,2.81a1.52,1.52,0,0,1-1.44,1.48c-.58,0-.9-.25-1.23-.86a8.26,8.26,0,0,0-4.54-4c-.22-.07-.33-.14-.33-.25s.58-.36,1.3-.36A9,9,0,0,1,86.56,14.14Zm-.44,15a5,5,0,0,1-2.77-1.8,3.86,3.86,0,0,1-1-2.13,6.35,6.35,0,0,1,0-.76c0-.36.11-.54.32-.54s.18,0,.47.47a2.68,2.68,0,0,0,2.56,1.37c1.23,0,3.43-1,6.21-2.78A73.63,73.63,0,0,0,103,13.49a36,36,0,0,0,3.86-4.8c.29-.43.43-.57.58-.57s.25.21.25.39c0,.69-1.77,3.72-3.54,6A52.56,52.56,0,0,1,88.58,27.78c-1.19.68-1.7,1-1.77,1A.81.81,0,0,1,86.12,29.18ZM90.89,7.43c1.37.83,2,1.73,2,2.89A1.62,1.62,0,0,1,91.36,12c-.62,0-.83-.18-1.23-1A8,8,0,0,0,84.83,7c-.26,0-.36-.07-.36-.21,0-.29.65-.47,1.73-.47A10.55,10.55,0,0,1,90.89,7.43Z"/><path class="cls-1" d="M133.23,12a1.51,1.51,0,0,1-1.66,1.55c-.47,0-.72-.18-1.08-.83a8,8,0,0,0-5.56-4.43c-.22-.08-.32-.15-.32-.26s.65-.43,1.69-.43C129.77,7.61,133.23,9.81,133.23,12Zm-4.69,16a5.39,5.39,0,0,1-2.6-1.88,2.66,2.66,0,0,1-.9-2.27c0-.69.18-1.23.43-1.23s.22.08.29.26a2.57,2.57,0,0,0,2.17,1.84c1.47,0,5.84-2.71,11.07-6.86a71.83,71.83,0,0,0,6.74-6c.73-.72,2.67-3,3-3.39s.44-.58.62-.58a.29.29,0,0,1,.29.32c0,.58-1.59,3-3.39,5.24a57.18,57.18,0,0,1-7.72,7.79A55,55,0,0,1,130,27.16C129.3,27.78,128.9,28,128.54,28Z"/><path class="cls-1" d="M186.35,12.55a.73.73,0,0,0-.28.11c-3.07,5.48-3.07,5.48-4.73,7.61a32.07,32.07,0,0,1-9.77,8.44c-2.35,1.3-6.46,3.07-7.22,3.07-.22,0-.36-.18-.36-.43s.07-.26.76-.58a38,38,0,0,0,11.11-7.68,34.25,34.25,0,0,0,6.27-8.37A6.94,6.94,0,0,0,183.25,12a.81.81,0,0,0-.83-.79,4.75,4.75,0,0,0-.68.07c-.18,0-.9.18-1.66.29s-1.16.18-1.37.21a3.34,3.34,0,0,1-.76.11,2.65,2.65,0,0,1-1.41-.5l-.1-.07a30.69,30.69,0,0,1-5.67,6.42c-1.66,1.51-4.25,3.21-4.87,3.21-.21,0-.39-.11-.39-.25s.07-.26,1-.91a23.07,23.07,0,0,0,5.73-6c1.77-2.49,2.6-4.26,2.6-5.55A2.27,2.27,0,0,0,173.51,6c-.14,0-.25-.14-.25-.21s.4-.33.94-.33a4.15,4.15,0,0,1,2.52.94c1.3.83,1.59,1.12,1.59,1.62,0,.26,0,.26-.5.83-.36.72-.51,1-.87,1.66a1.25,1.25,0,0,0,.9.26,22.4,22.4,0,0,0,4.33-.83,11.19,11.19,0,0,0,1.37-.65c.61-.4.83-.47,1.05-.47.39,0,.79.25,2.09,1.33,1.08.9,1.23,1.05,1.23,1.37s0,.33-1,.8Zm2.57-6.27a1.28,1.28,0,0,1-1.16,1.22c-.5,0-.68-.14-1.08-.83a6.83,6.83,0,0,0-3.36-2.81c-.25-.07-.32-.11-.32-.18s.58-.29,1.08-.29C186.5,3.39,188.92,4.83,188.92,6.28ZM193,4.54a1.29,1.29,0,0,1-1.19,1.23c-.54,0-.72-.14-1.12-.9a6.91,6.91,0,0,0-3.43-2.81C187.08,2,187,2,187,1.88s.47-.29,1.12-.29C190.58,1.59,193,3.07,193,4.54Z"/><path class="cls-1" d="M221.27,11.43c4.43-.72,4.61-.79,5.73-1.58.33-.29.43-.33.69-.33s.72.18,1.69,1.05c1.3,1.12,1.41,1.26,1.41,1.62,0,.15-.11.29-.36.43-.58.33-.62.4-1,2.42-1.16,5.63-1.95,8.19-3.14,10.32s-2.89,3.39-4.51,3.39c-.25,0-.43-.11-.43-.29v-.25a1.23,1.23,0,0,0,0-.33,5.53,5.53,0,0,0-1.8-3.82c-.32-.29-.4-.32-.4-.4s.26-.32.36-.32,0,0,.47.25l.33.22C222,24.93,222,25,222.53,25c1.26,0,2.2-1.3,3.24-4.47a29.36,29.36,0,0,0,1.3-7.36c0-.94-.21-1.3-.79-1.3a34.61,34.61,0,0,0-6.1.9,30.61,30.61,0,0,1-4.76,10.18,20.88,20.88,0,0,1-7.93,6.24,13.46,13.46,0,0,1-2.46,1,.57.57,0,0,1-.5-.47c0-.14.11-.25.54-.4a23.81,23.81,0,0,0,12.55-16c-1.26.29-3.42.94-4.65,1.37a3.42,3.42,0,0,1-1.37.4,4.86,4.86,0,0,1-2.42-1.23,2.66,2.66,0,0,1-.72-1.91c0-.25.11-.4.29-.4s.14,0,.25.22c.43.75.94,1,2.09,1a55.22,55.22,0,0,0,6.82-.72,40.42,40.42,0,0,0,.58-5,2.63,2.63,0,0,0-1.26-2.38.42.42,0,0,1-.11-.22c0-.25.29-.4.86-.4a4.16,4.16,0,0,1,2.49,1.09c1.23.9,1.37,1,1.37,1.4,0,.15,0,.15-.18.44a11.82,11.82,0,0,0-.54,1.84c-.25,1-.32,1.29-.5,2-.08.32-.11.43-.22.83Z"/><path class="cls-1" d="M252.14,19.77a7.73,7.73,0,0,1-1.66.25,4.4,4.4,0,0,1-3.18-1.95,10.11,10.11,0,0,1-.25-2c0-.25.11-.43.29-.43s.18.07.29.25c.47,1.05,1.33,1.41,3.42,1.41A167.3,167.3,0,0,0,271.9,15.8a8.68,8.68,0,0,1,1-.07,2.43,2.43,0,0,1,1.91.79c.68.65.94,1,.94,1.34,0,.54-.72.86-1.88.86-.29,0-.68,0-1.33,0s-3.72-.11-5.23-.11A96.77,96.77,0,0,0,252.14,19.77Z"/><path class="cls-1" d="M301.15,15c0,6.45.11,9.88.29,12.3.07.75.11,1.29.11,1.62,0,1.51-.54,2.63-1.3,2.63s-1.91-1.62-1.91-2.52a5.11,5.11,0,0,1,.1-.94c.29-2,.58-10,.58-17.21,0-3.39-.14-4.61-.58-5.34a1.81,1.81,0,0,0-1.73-.9c-.25,0-.36-.11-.36-.32s.11-.25.33-.36a10.38,10.38,0,0,1,2.2-.58c.54,0,1,.25,2.63,1.26.47.33.69.58.69.83a2.14,2.14,0,0,1-.18.69c-.58,1-.8,2.67-.87,6.71a15.45,15.45,0,0,1,7.58,2.34c1.94,1.34,2.84,2.49,2.84,3.65a1.47,1.47,0,0,1-1.51,1.58c-.79,0-1.19-.32-2.09-1.69a12.93,12.93,0,0,0-6.82-5.3Z"/><path class="cls-1" d="M363.62,16.52c3.1,2.6,4.29,4.15,4.29,5.45a1.39,1.39,0,0,1-1.37,1.37c-.76,0-1-.25-2.24-2.13a24.7,24.7,0,0,0-2.16-2.67c-3.65,4.19-6.93,7-10.57,8.84a39.27,39.27,0,0,1-6.42,2.56c-.29,0-.51-.15-.51-.32s.11-.33.51-.47a40.28,40.28,0,0,0,15.33-12.23,21,21,0,0,0-7-4.51c-.29-.11-.4-.22-.4-.36a.3.3,0,0,1,.33-.26,26.34,26.34,0,0,1,3.17.8,20,20,0,0,1,5.16,2.49c1.62-2.74,2.56-5.09,2.56-6.39a4,4,0,0,0-.94-2.52c-.21-.18-.25-.25-.25-.36s.25-.33.62-.33a4.12,4.12,0,0,1,2.45,1.16c1.37,1.19,2.13,2.13,2.13,2.56,0,.22-.11.36-.47.61s-.36.25-.69.51A49.36,49.36,0,0,1,363.62,16.52Z"/><path class="cls-1" d="M399,12a1.51,1.51,0,0,1-1.66,1.55c-.47,0-.72-.18-1.08-.83a7.93,7.93,0,0,0-5.55-4.43c-.22-.08-.33-.15-.33-.26s.65-.43,1.7-.43C395.57,7.61,399,9.81,399,12Zm-4.69,16a5.34,5.34,0,0,1-2.59-1.88,2.63,2.63,0,0,1-.9-2.27c0-.69.17-1.23.43-1.23s.21.08.29.26a2.54,2.54,0,0,0,2.16,1.84c1.48,0,5.84-2.71,11.07-6.86a73.39,73.39,0,0,0,6.75-6c.72-.72,2.67-3,3-3.39s.43-.58.61-.58a.29.29,0,0,1,.29.32c0,.58-1.58,3-3.39,5.24a56,56,0,0,1-7.72,7.79,55.36,55.36,0,0,1-8.58,5.91C395.1,27.78,394.7,28,394.34,28Z"/><path class="cls-1" d="M439.71,13.49c1.19.72,2,1.55,2,2.06,0,.18-.11.36-.43.54-.54.36-.65.5-1.37,1.55a24.86,24.86,0,0,1-10.46,8.8,14.72,14.72,0,0,1-2.63.87c-.22,0-.44-.18-.44-.33s0-.18.62-.43a24.52,24.52,0,0,0,7.21-5.48c2-2.28,3.61-5.09,3.61-6.28a2.44,2.44,0,0,0-1.48-1.8c-.18-.08-.22-.11-.22-.22s.25-.4.58-.4A9.09,9.09,0,0,1,439.71,13.49Zm11.37.72a20.43,20.43,0,0,1,4.83,5.3,7.52,7.52,0,0,1,1,3.36,1.84,1.84,0,0,1-1.84,1.91c-.68,0-1-.43-1.48-1.91-1.58-5-4.69-9.09-8.26-10.82-.36-.11-.43-.18-.43-.33s.22-.29.43-.29C446.46,11.43,449.24,12.81,451.08,14.21Zm1.8-5.3a1.34,1.34,0,0,1-1.23,1.19,1,1,0,0,1-1-.68,6.83,6.83,0,0,0-3.65-3c-.14-.07-.22-.1-.22-.18s.55-.28,1.09-.28C450.39,5.92,452.88,7.43,452.88,8.91ZM456.67,7a1.29,1.29,0,0,1-1.19,1.26c-.51,0-.8-.21-1.12-.86A6.6,6.6,0,0,0,451,4.58c-.32-.11-.43-.18-.43-.29s.47-.25,1.15-.25C454.18,4,456.67,5.52,456.67,7Z"/><path class="cls-1" d="M476.1,19.77a7.65,7.65,0,0,1-1.66.25,4.4,4.4,0,0,1-3.17-1.95,10.11,10.11,0,0,1-.25-2c0-.25.11-.43.29-.43s.18.07.29.25c.46,1.05,1.33,1.41,3.42,1.41a167.44,167.44,0,0,0,20.85-1.48,8.68,8.68,0,0,1,1-.07,2.43,2.43,0,0,1,1.91.79c.68.65.93,1,.93,1.34,0,.54-.72.86-1.87.86-.29,0-.69,0-1.34,0s-3.71-.11-5.23-.11A97,97,0,0,0,476.1,19.77Z"/><path class="cls-1" d="M535.44,21.86c2.09,1.69,3.21,3.39,3.21,5a1.73,1.73,0,0,1-1.59,1.88c-.76,0-1.19-.47-1.66-1.7A14.3,14.3,0,0,0,527.9,19a28.88,28.88,0,0,1-10.79,9.13A19.89,19.89,0,0,1,512.35,30c-.25,0-.54-.22-.54-.43s.11-.22.68-.43c3.47-1.34,8-4.69,11.19-8.3a36,36,0,0,0,5.05-7.76A11.49,11.49,0,0,0,530,9.81c0-.32-.25-.54-.64-.54-1.27,0-5.27,1.08-8.59,2.31a2.43,2.43,0,0,1-.79.25c-.36,0-.36,0-1.52-.86a1.77,1.77,0,0,1-.94-1.74c0-.72.11-1,.36-1,.08,0,.15.08.19.18.21.55,1.33,1,2.56,1a62,62,0,0,0,7-1.08,7,7,0,0,0,2.88-1.23,1,1,0,0,1,.58-.22c.36,0,.83.29,2.16,1.3,1,.8,1.16,1,1.16,1.23s-.11.29-.43.47-.36.25-.76.57a54.28,54.28,0,0,1-4.83,7.94A16.93,16.93,0,0,1,535.44,21.86ZM538.75,7.5a1.27,1.27,0,0,1-1.15,1.23,1,1,0,0,1-1-.65,6.53,6.53,0,0,0-3.47-3c-.21,0-.29-.11-.29-.18s.4-.26,1-.26C536.41,4.65,538.75,6,538.75,7.5Zm4.08-1.58a1.31,1.31,0,0,1-1.19,1.22c-.51,0-.72-.18-1.15-.9a6.41,6.41,0,0,0-3.36-2.81c-.22,0-.29-.08-.29-.18S537.38,3,538,3C540.41,3,542.83,4.44,542.83,5.92Z"/><path class="cls-1" d="M569.77,1a.76.76,0,0,1,.61.69.54.54,0,0,1-.29.46l-.32.18c2.88,5.16,9,9.71,16.09,12.05l-.54.33a10,10,0,0,0-3.07,2.41A36,36,0,0,1,568.72,2.67a55.06,55.06,0,0,1-7.43,9.09,40.17,40.17,0,0,1-7.5,5.52,5.35,5.35,0,0,1-1.81.79.34.34,0,0,1-.36-.36c0-.21,0-.21,2.78-2.24A39.12,39.12,0,0,0,566.59,0ZM552.56,19.55c3.28.11,4.08.15,6.24.18h19l2.49-2.49,3.07,2.46a.6.6,0,0,1,.25.46c0,.29-.22.44-.58.44H567.6a1.39,1.39,0,0,1,.29.65.71.71,0,0,1-.36.65l-.61.28-5.09,7c6-.11,11.37-.29,14-.54a17.11,17.11,0,0,0-5.48-5.48l.25-.65c4.66,1.44,9.89,6,9.89,8.62a1.65,1.65,0,0,1-1.52,1.7c-.72,0-.72,0-2.27-2.85l-.25-.44c-2,.25-3.57.47-4.3.54-1.47.22-2.95.44-4.43.62l-5.23.65c-.22,0-2.27.28-4.26.54l-.86,1a1.22,1.22,0,0,1-.76.43c-.25,0-.4-.18-.65-.68L554.29,29l5.92.14a76.65,76.65,0,0,0,4-8.58H558.8c-2.23,0-3.14.07-5.7.14Zm6.78-5.73c2.42.07,4,.1,4.84.14h6.74l2.31-2.34L576,14a.61.61,0,0,1,.21.4c0,.25-.14.4-.43.4H564.18c-1.45,0-2.31,0-4.55.1Z"/><path class="cls-1" d="M606.52,28.79a.62.62,0,0,1,.29.54c0,.32-.18.46-.69.46h-1a36.79,36.79,0,0,1-7.39,2.86,23.14,23.14,0,0,1-3.14.72.42.42,0,0,1-.43-.44c0-.18,0-.18,2.16-1a25.94,25.94,0,0,0,7.58-4.83Zm-5-16.85h18l1.16-1.44,2.42,2.2a1,1,0,0,1,.28.54c0,.18-.21.36-.46.47l-.73.25V27.31c0,.47-.14.61-.72.72a7.32,7.32,0,0,1-1.15.14c-.36,0-.54-.11-.54-.36V26.4H600.93v1.09a.81.81,0,0,1-.43.75,7.26,7.26,0,0,1-1.7.55c-.14,0-.22-.19-.22-.47V10.46Zm1.23-9.85H618.1l1.08-1.8,2.6,2.27a.94.94,0,0,1,.32.61c0,.18-.14.37-.43.47l-.83.33V9.49c0,.32-1.26.86-2.06.86-.21,0-.32-.14-.32-.39V8.37H602.12v1c0,.61-.69,1-1.62,1-.44,0-.62-.18-.62-.54v-9Zm17,14.39V12.81H600.93v3.67Zm0,4.55V17.35H600.93V21Zm0,4.51V21.93H600.93v3.61Zm-1.3-18V3H602.12V7.5Zm-5.81,20A37.05,37.05,0,0,1,621.09,29q4.44,1.35,4.44,3.36a1.13,1.13,0,0,1-1.16,1.19,1.51,1.51,0,0,1-.79-.22l-3.35-2.13a31.37,31.37,0,0,0-7.8-3.1Z"/></g></g></svg>