<svg xmlns="http://www.w3.org/2000/svg" width="655.875" height="149.15" viewBox="0 0 655.875 149.15">
  <defs>
    <style>
      .cls-1 {
        fill: #fff;
        fill-rule: evenodd;
      }
    </style>
  </defs>
  <path id="アトラクション_アクティビティ一覧" data-name="アトラクション・ アクティビティ一覧" class="cls-1" d="M281.826,1414.1l2.356,0.07a1.246,1.246,0,0,0,1.6-1.14,2.266,2.266,0,0,0-.76-1.52l-5.472-4.86-2.28,2.13c-5.7.23-12.921,0.83-26.982,2.43-10.64,1.22-10.64,1.22-11.78,1.22-2.432,0-3.421-.61-5.321-3.2-1.14.38-1.444,0.76-1.444,1.68,0,1.21,1.52,3.26,3.42,4.78a13.729,13.729,0,0,0,3.117,1.83,2.917,2.917,0,0,0,1.064-.38c3.116-2.21,27.057-5.7,38.23-5.63a157.412,157.412,0,0,1-16.417,12.32v-0.23c0-.76-0.3-1.22-1.292-1.83-3.192-1.97-4.56-2.66-5.549-2.66a1.3,1.3,0,0,0-1.444,1.22l0.684,0.46c2.281,1.29,2.661,1.82,2.661,3.64a46.014,46.014,0,0,1-4.713,18.78c-2.508,4.79-5.928,8.51-11.4,12.46-1.216.84-1.52,1.22-1.52,1.75a0.746,0.746,0,0,0,.76.68c1.292,0,6.384-3.34,9.424-6.23,6.689-6.31,10.033-13.3,12.085-25.31,4.332-2.35,8.664-5.01,18.849-11.17Zm38.378-10.19,0.3,0.16,0.532,0.3c3.572,1.9,3.8,2.13,3.8,4.94l-0.076,2.66c-0.076,4.86-.152,6.23-0.076,15.81l-0.228,11.78c0,10.79,0,11.25-.684,14.21a7.738,7.738,0,0,0-.38,2.21c0,2.12,1.6,4.4,3.04,4.4,1.368,0,2.128-1.29,2.128-3.64,0-.76,0-0.76-0.152-3.35v-19.53c0-1.06,0-2.13.152-7.14,7.525,2.28,12.769,5.47,17.025,10.33,2.052,2.43,2.813,2.97,4.105,2.97a1.974,1.974,0,0,0,1.9-2.06c0-5.24-9.349-10.71-23.03-13.3l0.076-2.43,0.076-3.65c0.228-4.25.228-4.63,0.3-8.13a2.414,2.414,0,0,1,.076-0.99c0-.3.152-0.38,0.761-0.61a1.515,1.515,0,0,0,1.368-1.29c0-.83-0.684-1.59-2.433-2.66-2.888-1.75-4.256-2.2-6.384-2.2a11.047,11.047,0,0,0-1.976.15Zm102.221,16.27c-5.32.23-12.388,0.83-22.5,1.9-5.016.53-9.5,0.91-10.64,0.91-1.6,0-2.66-.68-4.561-3.04-0.76,0-1.064.23-1.064,0.76a5.742,5.742,0,0,0,1.825,3.8c2.28,2.28,3.5,3.27,4.18,3.27a2.716,2.716,0,0,0,.988-0.38c1.444-1.6,19.761-3.88,31.237-4.03a61.736,61.736,0,0,1-30.021,34.89c-1.444.68-1.976,1.14-1.976,1.82a0.746,0.746,0,0,0,.76.68c2.508,0,11.476-5.09,16.721-9.5,8.436-7.06,14.744-15.58,19.837-26.9l1.368-.08c1.064,0,1.672-.45,1.672-1.14a2.183,2.183,0,0,0-1.292-1.75l-5.016-3.04Zm-32.605-14.52h-0.152a0.682,0.682,0,0,0-.836.84c0,1.75.456,2.51,2.584,4.25,1.824,1.52,2.356,1.9,2.66,1.9a2.513,2.513,0,0,0,1.064-.53c1.9-1.14,12.161-2.28,21.281-2.28,1.14,0,2.812.08,4.636,0.15a14.7,14.7,0,0,0,1.673.08c1.748,0,2.888-.53,2.888-1.44a2.785,2.785,0,0,0-1.14-1.68,11.244,11.244,0,0,0-4.561-2.05,2.647,2.647,0,0,0-1.52.76,3.53,3.53,0,0,1-.836.69,3.341,3.341,0,0,1-1.292.22l-2.888.23-6.08.31c-4.333.22-7.981,0.45-11.021,0.68a27.486,27.486,0,0,1-2.964.23c-1.52,0-2.356-.61-3.344-2.36H389.82Zm105.185,7.07c-4.94.3-6.232,0.38-13.376,0.99l-0.836.07a31.128,31.128,0,0,0,1.52-3.19c0.532-1.21.608-1.29,1.14-1.52a1.282,1.282,0,0,0,1.14-1.21c0-.76-0.228-0.99-2.508-2.44-2.66-1.67-3.648-2.05-5.321-2.05a1.538,1.538,0,0,0-1.824,1.37c2.432,0.84,3.344,1.67,3.344,2.96,0,1.9-2.2,6.92-5.016,11.4a56.6,56.6,0,0,1-12.084,13.46c-2.433,1.9-2.661,2.2-2.661,2.81a0.913,0.913,0,0,0,.913.84c0.76,0,2.964-1.37,5.928-3.73a51.728,51.728,0,0,0,13.909-16.04,1.583,1.583,0,0,0,1.064.54,2.714,2.714,0,0,0,.76-0.08,67.632,67.632,0,0,1,12.084-1.14c0.228,0,.988,0,1.824.08-2.356,7.9-8.816,19-14.744,25.08-5.549,6-10.945,10.03-19.837,14.97-1.293.68-1.673,1.06-1.673,1.6a0.9,0.9,0,0,0,.989.91c0.532,0,.532,0,3.952-1.67a64.164,64.164,0,0,0,13.072-8.21c10.413-8.29,17.177-17.56,23.106-31.7l1.748-.3a1.313,1.313,0,0,0,1.444-1.14,1.712,1.712,0,0,0-.912-1.29l-5.473-3.65Zm34.274,10.11,0.3,0.15c6.233,2.51,7.6,3.5,10.641,7.75,0.912,1.37,1.368,1.75,2.28,1.75a2.177,2.177,0,0,0,2.128-2.13c0-4.33-6.384-8.21-14.213-8.66h-0.912Zm56.319-6.46-0.228.3a198.3,198.3,0,0,1-21.205,19.23c-8.816,6.84-20.217,13.76-22.725,13.76-1.52,0-3.952-2.51-4.256-4.49v-0.38h-1.292a1.748,1.748,0,0,0-.076.54v0.68a7.641,7.641,0,0,0,2.28,5.93c2.2,2.35,4.56,3.95,5.624,3.95a2.536,2.536,0,0,0,1.672-1.14,8.269,8.269,0,0,1,2.812-2.2c10.033-6.46,11.325-7.45,17.557-13.15a263.422,263.422,0,0,0,20.445-20.75l0.38-.38a3.2,3.2,0,0,1,.38-0.53Zm-48.87-7.68,0.3,0.08a18.86,18.86,0,0,1,10.488,6.38c1.6,1.83,2.128,2.21,3.116,2.21,1.064,0,1.825-.99,1.825-2.36,0-4.1-6.309-7.6-13.605-7.6H536.8Zm103.589,13.91c-5.016.3-8.436,0.61-16.721,1.44-2.66.23-3.42,0.31-4.18,0.31a4.128,4.128,0,0,1-4.028-2.05c-0.912.15-1.216,0.38-1.216,0.76a5.314,5.314,0,0,0,1.6,2.89,10.783,10.783,0,0,0,3.42,2.35,1.412,1.412,0,0,0,.608-0.23c0.836-.76,10.261-2.05,21.281-2.89-0.228,3.05-.38,6.85-0.456,9.96-5.852.23-13,.76-19.153,1.6a8.024,8.024,0,0,1-1.216.07c-0.836,0-1.444-.3-2.356-1.44l-0.228-.23-0.228-.3a0.753,0.753,0,0,0-.836.83c0,0.99.608,2.13,2.052,3.58a4.263,4.263,0,0,0,2.052,1.44,2.866,2.866,0,0,0,.836-0.3,2.418,2.418,0,0,1,.836-0.54,14.672,14.672,0,0,1,1.748-.3c0.38,0,1.52-.15,3.573-0.46,6.992-.91,7.144-0.98,12.844-1.36v0.98l-0.076,2.59-0.076,5.85v1.6c-7.676.38-17.1,1.14-19.913,1.67-0.684.07-1.292,0.15-1.748,0.15-1.216,0-1.976-.53-3.04-1.98-0.912.46-1.064,0.69-1.064,1.22,0,1.06.684,1.98,2.584,3.34,2.28,1.68,2.28,1.68,2.736,1.68a3.583,3.583,0,0,0,1.292-.76,2.434,2.434,0,0,1,1.9-.76c0.152,0,1.064-.16,2.432-0.31,5.929-.68,10.565-1.14,13.833-1.44,1.444,2.89,1.9,3.42,2.66,3.42,1.14,0,1.976-1.37,1.976-3.04,0.152-10.87.3-15.2,0.912-24.4l0.152-1.67,0.913-.38a1.112,1.112,0,0,0,.912-1.07,1.743,1.743,0,0,0-.912-1.29l-4.029-2.89Zm41.646-11.93c4.637,2.73,6.917,5.32,9.425,10.71,1.064,2.28,1.6,2.82,2.888,2.82a2.777,2.777,0,0,0,2.66-2.97c0-4.41-5.624-9.27-13.148-11.4l-0.456-.07-0.608-.23Zm53.431,4.56-0.228.3-0.532.46c-12.464,12.16-19.229,17.86-28.881,24.24-6.917,4.64-15.353,9.28-16.8,9.28-0.912,0-2.2-.92-3.268-2.28a13.142,13.142,0,0,1-1.672-3.58c-0.912.08-1.217,0.54-1.217,2.13,0,2.43,1.749,5.17,4.865,7.6,1.824,1.45,3.192,2.28,3.572,2.28a1.476,1.476,0,0,0,1.14-1.14,5.244,5.244,0,0,1,2.28-2.13c15.581-9.34,33.366-24.54,41.574-35.49l0.456-.61Zm43.927,8.97a6.421,6.421,0,1,0,6.308,6.38A6.406,6.406,0,0,0,779.321,1424.21ZM281.826,1499.1l2.356,0.07a1.246,1.246,0,0,0,1.6-1.14,2.266,2.266,0,0,0-.76-1.52l-5.472-4.86-2.28,2.13c-5.7.23-12.921,0.83-26.982,2.43-10.64,1.22-10.64,1.22-11.78,1.22-2.432,0-3.421-.61-5.321-3.2-1.14.38-1.444,0.76-1.444,1.68,0,1.21,1.52,3.26,3.42,4.78a13.729,13.729,0,0,0,3.117,1.83,2.917,2.917,0,0,0,1.064-.38c3.116-2.21,27.057-5.7,38.23-5.63a157.412,157.412,0,0,1-16.417,12.32v-0.23c0-.76-0.3-1.22-1.292-1.83-3.192-1.97-4.56-2.66-5.549-2.66a1.3,1.3,0,0,0-1.444,1.22l0.684,0.46c2.281,1.29,2.661,1.82,2.661,3.64a46.014,46.014,0,0,1-4.713,18.78c-2.508,4.79-5.928,8.51-11.4,12.46-1.216.84-1.52,1.22-1.52,1.75a0.746,0.746,0,0,0,.76.68c1.292,0,6.384-3.34,9.424-6.23,6.689-6.31,10.033-13.3,12.085-25.31,4.332-2.35,8.664-5.01,18.849-11.17Zm64.219-1.37c-4.94.3-6.232,0.38-13.376,0.99l-0.836.07a31.128,31.128,0,0,0,1.52-3.19c0.532-1.21.608-1.29,1.14-1.52a1.282,1.282,0,0,0,1.14-1.21c0-.76-0.228-0.99-2.508-2.44-2.66-1.67-3.648-2.05-5.321-2.05a1.538,1.538,0,0,0-1.824,1.37c2.432,0.84,3.345,1.67,3.345,2.96,0,1.9-2.2,6.92-5.017,11.4a56.6,56.6,0,0,1-12.084,13.46c-2.433,1.9-2.661,2.2-2.661,2.81a0.913,0.913,0,0,0,.913.84c0.76,0,2.964-1.37,5.928-3.73a51.728,51.728,0,0,0,13.909-16.04,1.583,1.583,0,0,0,1.064.54,2.714,2.714,0,0,0,.76-0.08,67.632,67.632,0,0,1,12.084-1.14c0.228,0,.988,0,1.824.08-2.356,7.9-8.816,19-14.744,25.08-5.549,6-10.945,10.03-19.837,14.97-1.293.68-1.673,1.06-1.673,1.6a0.9,0.9,0,0,0,.989.91c0.532,0,.532,0,3.952-1.67a64.164,64.164,0,0,0,13.072-8.21c10.413-8.29,17.177-17.56,23.106-31.7l1.748-.3a1.313,1.313,0,0,0,1.444-1.14,1.712,1.712,0,0,0-.912-1.29l-5.473-3.65Zm32.45,7.83c-0.076,2.28.228,3.27,1.6,4.63,1.672,1.68,4.1,3.43,4.865,3.43a1.847,1.847,0,0,0,1.064-.46,7.636,7.636,0,0,1,.836-0.61,10.734,10.734,0,0,1,1.52-.38,15.248,15.248,0,0,0,1.672-.23c6.916-.91,10.868-1.44,16.189-1.9,1.748,1.3,2.28,2.06,2.28,3.2,0,2.12-2.356,7.82-5.4,12.99a51.924,51.924,0,0,1-13.3,15.2c-1.9,1.52-2.356,1.98-2.356,2.66a0.683,0.683,0,0,0,.836.61c1.672,0,8.512-5.24,13-9.96a53.692,53.692,0,0,0,11.7-19.07c1.6-.61,2.2-0.99,2.2-1.6,0-.99-1.292-1.97-5.624-4.33,3.648-.23,5.548-0.31,8.512-0.31a73.663,73.663,0,0,1,13.757.99,11.239,11.239,0,0,0,2.356.38,1.481,1.481,0,0,0,1.444-1.21c0-.76-0.836-1.68-2.584-2.66a24.773,24.773,0,0,0-4.636-1.9,3.7,3.7,0,0,0-1.444.53c-1.444.61-1.976,0.68-6.157,0.76-2.508,0-4.1.07-9.652,0.53-1.976.08-3.572,0.23-5.092,0.3-2.356.16-4.1,0.31-4.865,0.31-1.292.15-4.1,0.38-8.132,0.76-2.736.3-5.092,0.45-6.612,0.45-4.713,0-5.473-.3-6.765-3.19l-0.152-.45Zm7.753-13.91a0.283,0.283,0,0,1-.076.23v0.53a5.991,5.991,0,0,0,1.824,3.57c1.292,1.29,3.5,2.81,4.1,2.81a1.8,1.8,0,0,0,.836-0.3c1.672-.76,2.964-0.99,7.144-1.52a164.676,164.676,0,0,1,18.469-1.22c1.824,0,3.04.08,4.257,0.16a18,18,0,0,0,1.824.07,1.455,1.455,0,0,0,1.672-1.37,3.115,3.115,0,0,0-2.052-2.28c-3.725-1.67-3.725-1.67-4.181-1.67a2.6,2.6,0,0,0-1.292.46,10.749,10.749,0,0,1-1.14.76,5.868,5.868,0,0,1-1.368.61,18.223,18.223,0,0,1-3.344.3c-3.5.23-3.876,0.3-9.12,0.91a78.587,78.587,0,0,1-9.5.76c-4.332,0-5.548-.45-6.536-2.66l-0.152-.3a3.408,3.408,0,0,0-.152-0.38Zm98.421,25.08a109.927,109.927,0,0,0,9.044-8.51c1.216-1.22,1.216-1.22,2.2-1.37,1.749-.23,2.433-0.68,2.433-1.44,0-1.83-5.093-5.32-7.677-5.32a0.785,0.785,0,0,0-.988.68v0.15c1.52,1.14,1.976,1.67,1.976,2.36,0,2.05-8.132,10.34-16.493,16.87a88.575,88.575,0,0,1-18.545,11.4,1.158,1.158,0,0,0-.836.99,0.817,0.817,0,0,0,.76.76c0.608,0,3.421-1.06,7.221-2.74a82.943,82.943,0,0,0,17.861-10.94c0.076,2.13.152,3.12,0.152,4.33v16.19a7.012,7.012,0,0,1-.456,2.96,2.578,2.578,0,0,0-.3,1.14c0,1.22,1.748,3.12,2.888,3.12s1.824-.91,1.824-2.36a9.659,9.659,0,0,0-.076-1.36c-0.228-3.42-.38-9.05-0.38-13.99,0-2.05,0-3.8.152-9.35l0.988-.6a1.122,1.122,0,0,0,.836-1.07,1.325,1.325,0,0,0-1.064-1.29Zm84.132-21.05,0.228,0.15a18.432,18.432,0,0,1,7.373,6.61c1.064,1.9,1.6,2.36,2.584,2.36a1.808,1.808,0,0,0,1.748-1.9c0-3.8-4.256-6.92-11.325-8.29Zm6.613-4.87c4.408,1.75,4.94,2.21,8.056,6.01,0.912,1.14,1.672,1.59,2.508,1.59a1.541,1.541,0,0,0,1.52-1.74c0-3.88-4.712-6.77-11.476-7Zm-29.49,7.45c1.216-.61,1.6-1.06,1.6-1.67,0-1.75-5.244-4.48-8.664-4.48-1.748,0-3.192.6-3.192,1.29a3.342,3.342,0,0,0,.228.76c4.028,0,5.548,1.44,5.548,5.32,0,1.67-.076,4.94-0.3,8.81-0.076,2.67-.228,10.11-0.228,13.84,0,8.97.3,11.09,1.9,12.84,1.672,1.9,4.256,2.36,12.921,2.36a150.253,150.253,0,0,0,16.721-1.07c2.128-.22,3.268-0.91,3.268-1.82,0-1.29-2.66-3.12-4.485-3.12a3.909,3.909,0,0,0-1.064.23c-5.092,1.83-9.2,2.36-17.4,2.36-4.485,0-6.461-.46-7.3-1.67-0.684-1.07-.988-4.03-0.988-9.81,0-1.29,0-1.29.3-8.59,3.876-.53,17.481-3.72,23.181-5.39,2.888-.84,3.268-0.99,4.257-0.99,1.444-.15,1.976-0.46,1.976-1.37,0-1.9-5.4-5.93-8.057-5.93-0.608,0-.836.23-1.14,1.07,1.368,0.6,2.128,1.21,2.128,1.67,0,1.37-12.312,6.15-22.193,8.74,0.152-3.65.3-5.78,0.912-12.31Zm56.011,7.3c-0.076,2.28.228,3.27,1.6,4.63,1.672,1.68,4.1,3.43,4.865,3.43a1.847,1.847,0,0,0,1.064-.46,7.636,7.636,0,0,1,.836-0.61,10.734,10.734,0,0,1,1.52-.38,15.248,15.248,0,0,0,1.672-.23c6.916-.91,10.868-1.44,16.189-1.9,1.748,1.3,2.28,2.06,2.28,3.2,0,2.12-2.356,7.82-5.4,12.99a51.924,51.924,0,0,1-13.3,15.2c-1.9,1.52-2.356,1.98-2.356,2.66a0.683,0.683,0,0,0,.836.61c1.672,0,8.512-5.24,13-9.96a53.692,53.692,0,0,0,11.705-19.07c1.6-.61,2.2-0.99,2.2-1.6,0-.99-1.292-1.97-5.624-4.33,3.648-.23,5.548-0.31,8.512-0.31a73.663,73.663,0,0,1,13.757.99,11.239,11.239,0,0,0,2.356.38,1.481,1.481,0,0,0,1.444-1.21c0-.76-0.836-1.68-2.584-2.66a24.773,24.773,0,0,0-4.636-1.9,3.7,3.7,0,0,0-1.444.53c-1.444.61-1.976,0.68-6.157,0.76-2.508,0-4.1.07-9.652,0.53-1.976.08-3.572,0.23-5.092,0.3-2.356.16-4.105,0.31-4.865,0.31-1.292.15-4.1,0.38-8.132,0.76-2.736.3-5.092,0.45-6.612,0.45-4.713,0-5.473-.3-6.765-3.19l-0.152-.45Zm7.753-13.91a0.283,0.283,0,0,1-.076.23v0.53a5.991,5.991,0,0,0,1.824,3.57c1.292,1.29,3.5,2.81,4.1,2.81a1.8,1.8,0,0,0,.836-0.3c1.672-.76,2.964-0.99,7.144-1.52a164.676,164.676,0,0,1,18.469-1.22c1.824,0,3.04.08,4.257,0.16a18,18,0,0,0,1.824.07,1.455,1.455,0,0,0,1.672-1.37,3.115,3.115,0,0,0-2.052-2.28c-3.725-1.67-3.725-1.67-4.181-1.67a2.6,2.6,0,0,0-1.292.46,10.749,10.749,0,0,1-1.14.76,5.868,5.868,0,0,1-1.368.61,18.223,18.223,0,0,1-3.344.3c-3.5.23-3.876,0.3-9.12,0.91a78.587,78.587,0,0,1-9.5.76c-4.332,0-5.548-.45-6.536-2.66l-0.152-.3a3.408,3.408,0,0,0-.152-0.38Zm98.421,25.08a109.927,109.927,0,0,0,9.044-8.51c1.216-1.22,1.216-1.22,2.2-1.37,1.749-.23,2.433-0.68,2.433-1.44,0-1.83-5.093-5.32-7.677-5.32a0.785,0.785,0,0,0-.988.68v0.15c1.52,1.14,1.976,1.67,1.976,2.36,0,2.05-8.132,10.34-16.493,16.87a88.575,88.575,0,0,1-18.545,11.4,1.158,1.158,0,0,0-.836.99,0.817,0.817,0,0,0,.76.76c0.608,0,3.421-1.06,7.221-2.74a82.943,82.943,0,0,0,17.861-10.94c0.076,2.13.152,3.12,0.152,4.33v16.19a7.012,7.012,0,0,1-.456,2.96,2.578,2.578,0,0,0-.3,1.14c0,1.22,1.748,3.12,2.888,3.12s1.824-.91,1.824-2.36a9.659,9.659,0,0,0-.076-1.36c-0.228-3.42-.38-9.05-0.38-13.99,0-2.05,0-3.8.152-9.35l0.988-.6a1.122,1.122,0,0,0,.836-1.07,1.325,1.325,0,0,0-1.064-1.29Zm40.2-.76c5.548-.3,7.9-0.38,12.009-0.38h52.29a1.066,1.066,0,0,0,1.293-.99,2.114,2.114,0,0,0-.76-1.52l-5.4-4.48-5.092,4.94H760.32c-4.333,0-7.373-.08-14.973-0.38Zm109.594,17.94v10.87c0,1.97.532,2.73,1.824,2.88a87.181,87.181,0,0,0,9.425.38c13.756,0,18.24-.83,18.24-3.57a1.024,1.024,0,0,0-.532-0.83c-1.9-1.14-1.976-1.22-1.9-2.97v-0.53l0.38-8.13-1.292-.15-1.824,8.43c-0.684,2.89-1.216,3.65-2.964,4.03a46.293,46.293,0,0,1-8.816.61c-8.285,0-9.121-.23-9.121-2.13v-8.89h7.9v2.81a0.711,0.711,0,0,0,.761.84,9,9,0,0,0,2.432-.69,0.951,0.951,0,0,0,.684-1.14v-20.44l1.064-.46a0.934,0.934,0,0,0,.76-0.76,1.425,1.425,0,0,0-.836-1.06l-3.876-2.89-1.6,1.98H838.9l-4.332-2.51v28.73c0,0.68.228,0.91,0.76,0.91a5.1,5.1,0,0,0,2.052-.61,1,1,0,0,0,.684-1.22v-3.49h7.98c-2.432,7.45-10.184,12.84-23.029,16.11-1.6.38-1.9,0.53-1.9,1.14a0.733,0.733,0,0,0,.836.69c1.748,0,9.121-1.98,12.617-3.5,8.284-3.35,12.692-7.37,15.808-14.44h7.525Zm-19.837-19.76h31.161v4.63H838.068v-4.63Zm0,13.37h31.161v4.34H838.068v-4.34Zm0-6.68h31.161v4.63H838.068v-4.63Zm-10.641-12.32h28.806a0.7,0.7,0,0,0,.684-0.76,1.952,1.952,0,0,0-.76-1.29l-4.1-3.42-3.193,3.42h-8.436V1501h6.764v1.29a0.631,0.631,0,0,0,.684.76c1.292,0,2.737-.91,2.737-1.67v-6.61l0.988-.38a0.716,0.716,0,0,0,.532-0.54,1.637,1.637,0,0,0-.76-1.06l-3.117-2.58-1.292,1.9h-6.612v-4.56H855.7a0.705,0.705,0,0,0,.684-0.76,1.992,1.992,0,0,0-.836-1.3l-4.1-3.26-3.041,3.26H829.327l-5.4-2.88v32.22a0.734,0.734,0,0,0,.684.84,5.114,5.114,0,0,0,2.28-.76,1.076,1.076,0,0,0,.532-1.14v-5.25Zm0-7.52H837v5.47h-9.577V1501Zm0-6.84h19.761v4.79H827.427v-4.79Zm0-6.61H837v4.56h-9.577v-4.56Zm59.283,5.47a0.945,0.945,0,0,0,.912-0.99,2.087,2.087,0,0,0-.836-1.52l-4.028-3.27-4.408,3.73H864.745a65.2,65.2,0,0,0,3.268-6.16l1.9-.46a0.753,0.753,0,0,0,.76-0.76,1.523,1.523,0,0,0-.988-1.21l-4.789-2.28c-2.584,9.5-4.788,14.36-9.424,20.59a3.165,3.165,0,0,0-.836,1.45,0.52,0.52,0,0,0,.532.53c1.14,0,5.548-5.02,8.36-9.65H886.71ZM861.1,1505.41c4.636-.16,6.612-0.23,8.969-0.23h15.048a1,1,0,0,0,1.216-.99,1.72,1.72,0,0,0-.836-1.37l-4.1-3.42-3.116,3.73h-8.132c-2.129,0-4.105-.08-10.489-0.31Z" transform="translate(-231.75 -1402.69)"/>
</svg>
