<svg xmlns="http://www.w3.org/2000/svg" viewBox="0 0 430.53 33.22"><defs><style>.cls-1{isolation:isolate;}.cls-2{fill:#333;}</style></defs><title>mobipark-sumika-title</title><g id="Layer_2" data-name="Layer 2"><g id="Layer_1-2" data-name="Layer 1"><g class="cls-1"><g class="cls-1"><path class="cls-2" d="M3.38,31.71c0,.58-.25.83-.9,1A7.6,7.6,0,0,1,.79,33C.25,33,0,32.79,0,32.25V1.84L4.32,4.07H22.51L25.24,1l3.5,2.91a.94.94,0,0,1,.32.62c0,.32-.22.5-.61.5H3.38v7.05h16l2-2.62,3.13,3.24c.36.39.47.57.47.82a.84.84,0,0,1-.5.72l-.94.54v7.85a1,1,0,0,1-.76,1.08,7.07,7.07,0,0,1-2,.32c-.61,0-.86-.21-.86-.71V21.17H3.38v7.7H23.55l2.81-3.13,3.2,2.91a1,1,0,0,1,.44.76c0,.29-.22.43-.54.43H3.38ZM20,20.19V13.07H3.38v7.12Z"/><path class="cls-2" d="M69.25,10.37a1,1,0,0,1,.4.68c0,.36-.26.5-.8.5H54.16c2.38,8.64,7.49,13.94,16.67,17.28A8.41,8.41,0,0,0,66.4,32C59.35,27.83,55,21.13,53.66,12.49,53,18.07,52,21,50,24.15a22.23,22.23,0,0,1-9.79,7.74,11.77,11.77,0,0,1-2.63.9.29.29,0,0,1-.32-.25c0-.22.07-.25.9-.72,8-4.39,11.3-9.83,12.2-20.27h-6c-1.41,0-2.7,0-6.23.18l-.87-1.36,3.89.14,3.21.07h6.08c0-1.72.07-2.66.07-3.78,0-2.26-.07-3.7-.28-6.19l4,.22c1,.07,1.33.29,1.33.93,0,.36-.18.62-.69.87L54,3.06c0,3.27-.08,5.8-.22,7.52h9.69L65.94,7.7Z"/></g><g class="cls-1"><path class="cls-2" d="M95.4,16c.79.54,1.33,1.08,1.33,1.3a1,1,0,0,1-.18.36,12,12,0,0,0-.5,4.14c0,.9.11,3.92.18,4.75.11,1.11.14,2,.14,2.45,0,1.76-.75,3.06-1.8,3.06-.4,0-.61-.18-1.11-.83-.69-.94-.8-1.12-.8-1.48a6.51,6.51,0,0,1,.18-1.11,89.53,89.53,0,0,0,.58-9.11,2.42,2.42,0,0,0-.18-1.26,35.71,35.71,0,0,1-8.57,5.83,19.81,19.81,0,0,1-5.33,1.8c-.18,0-.33-.11-.33-.25s.11-.29.47-.43a36.51,36.51,0,0,0,12.64-9.51,42.57,42.57,0,0,0,3-4.39,5.82,5.82,0,0,0,.18-.72.28.28,0,0,0-.29-.25,30,30,0,0,0-6.12,2.09c-.68.36-.83.43-1.22.43a3.41,3.41,0,0,1-2.78-3c0-.18.18-.39.29-.39s.15.07.33.28a2.63,2.63,0,0,0,1.69.4c2.74,0,6.81-.83,8.32-1.69C96.23,8,96.26,8,96.59,8s.86.21,2.27,1.11c1,.69,1.26.94,1.26,1.26s-.18.51-1.05,1.08A50.33,50.33,0,0,1,95.4,16ZM97.34,5.29A1.83,1.83,0,0,1,95.4,7c-.76,0-1-.14-2-1.4a9.38,9.38,0,0,0-4.5-3c-.36-.07-.43-.11-.43-.25,0-.33,1.22-.58,2.63-.58C94.28,1.8,97.34,3.49,97.34,5.29Zm9.94,17.57a2.09,2.09,0,0,1-2,2c-.68,0-1-.32-1.51-1.4-1-2.27-3.39-5.15-4.94-5.9-.18-.11-.25-.18-.25-.29s.15-.22.4-.22C103,17.06,107.28,20.05,107.28,22.86Z"/></g><g class="cls-1"><path class="cls-2" d="M122.84,18.93a1.85,1.85,0,0,1-1.66,2,1,1,0,0,1-1-.79,9.61,9.61,0,0,0-3.28-4.86c-.32-.22-.39-.29-.39-.43s.11-.22.47-.22C120.14,14.65,122.84,16.67,122.84,18.93Zm2.63,10.23c-2.2,1.36-6,2.88-7.42,2.88a.36.36,0,0,1-.36-.29c0-.18,0-.18.9-.54a28.81,28.81,0,0,0,9.9-7.67c2.85-3.42,4.79-7.63,4.79-10.47a2.4,2.4,0,0,0-.46-1.55c-.36-.33-.36-.33-.36-.4s.25-.36.57-.36A3.64,3.64,0,0,1,135.62,12a5.82,5.82,0,0,1,1.77,2.48c0,.26-.07.33-.68,1A29.56,29.56,0,0,1,125.47,29.16Zm3.31-12.6a1.92,1.92,0,0,1-1.8,2c-.61,0-.9-.36-1.15-1.33-.58-2.34-2-4.43-3.39-5.12-.18-.07-.25-.17-.25-.28s.18-.22.4-.22C125.58,11.59,128.78,14.18,128.78,16.56Z"/></g><g class="cls-1"><path class="cls-2" d="M151.36,22.68c0,1.26,0,2.44.08,2.88.1,1.47.14,2.7.14,3.16,0,1.84-.72,3.24-1.62,3.24s-2.56-2.26-2.56-3.6a10.69,10.69,0,0,1,.36-2,90.37,90.37,0,0,0,.51-9.58c0-2.41-.18-9.39-.26-10.4-.18-2.23-.54-2.7-2.26-2.7-.18,0-.29-.07-.29-.25,0-.47,2.16-1.48,3.2-1.48a3.82,3.82,0,0,1,2.6,1.52,3.42,3.42,0,0,1,1,1.65c0,.25,0,.33-.51,1.41a26.34,26.34,0,0,0-.5,5.86c3.39.29,5.37.83,7.35,2.09,1.8,1.15,3,2.7,3,4a1.83,1.83,0,0,1-1.9,1.9,2.19,2.19,0,0,1-1.66-.75,10,10,0,0,1-1.15-1.69,12.76,12.76,0,0,0-5.66-4.83l.08,3.28,0,2.95Z"/><path class="cls-2" d="M188.78,10a23.14,23.14,0,0,1-3.6,11.7c-2.13,3.31-5.26,5.86-7.24,5.86a4.32,4.32,0,0,1-3-2,9.3,9.3,0,0,1-1.77-5.79c0-7.92,7.24-14.72,15.67-14.72a13.89,13.89,0,0,1,10.12,4,10.84,10.84,0,0,1,2.84,7.59,13.26,13.26,0,0,1-6.66,11.52,22.26,22.26,0,0,1-6.66,2.45,16.11,16.11,0,0,1-2.31.43c-.21,0-.36-.07-.36-.22s.11-.21.69-.39a19.53,19.53,0,0,0,6.44-3.35c3.13-2.56,4.61-5.83,4.61-10.26,0-4.82-1.62-8.1-4.75-9.68a8.68,8.68,0,0,0-3.71-.87,7.18,7.18,0,0,0-.76,0A13.77,13.77,0,0,1,188.78,10Zm-8.14-.33a14.1,14.1,0,0,0-4.25,10.05c0,2.12,1,4,2.09,4s3.17-1.87,4.68-4.25a21.09,21.09,0,0,0,3.68-10.76,8.77,8.77,0,0,0-.22-2,1.38,1.38,0,0,1-.07-.26A13.62,13.62,0,0,0,180.64,9.68Z"/></g><g class="cls-1"><path class="cls-2" d="M221.88,23a9.21,9.21,0,0,1,3.1.79,3.59,3.59,0,0,1,2.23,3,1.5,1.5,0,0,1-1.58,1.51c-.76,0-.94-.18-1.73-2a6.44,6.44,0,0,0-2-2.59V31.6a.94.94,0,0,1-.68,1,3.45,3.45,0,0,1-1.48.36c-.61,0-.86-.21-.86-.75V25.34a29,29,0,0,1-5.37,4.5,10,10,0,0,1-2.37,1.4.27.27,0,0,1-.26-.25c0-.18.18-.39.65-.83a26.17,26.17,0,0,0,7.1-9.57h-2.06c-.39,0-1,0-1.76,0l-2.27.07-.76-1.23c1.34,0,2.56.08,3,.11.9,0,1.52,0,1.8,0h2.31V14.51l3.6.36a.78.78,0,0,1,.72.75c0,.29-.14.47-.54.69l-.76.36v2.95H223l1.8-2.27,2.56,2.12a.82.82,0,0,1,.36.62.51.51,0,0,1-.54.5h-5.26ZM243.06,5.26a.66.66,0,0,1,.29.5.44.44,0,0,1-.47.47H230.13C233.3,9.43,239.24,12,245,12.6a8.32,8.32,0,0,0-3.75,3.06A23.74,23.74,0,0,1,229.7,7v8.2c0,.44-.15.65-.65.8a7.43,7.43,0,0,1-1.8.36.66.66,0,0,1-.72-.76V8.93a42.15,42.15,0,0,1-8.61,5.5,27.6,27.6,0,0,1-5.58,2.27.28.28,0,0,1-.29-.25c0-.18.15-.32.47-.47a37.81,37.81,0,0,0,12.17-9.75H221c-2,0-3.17,0-6.23.18l-.83-1.33,4,.1c1.26,0,2.34.08,3,.08h5.55V0l3.71.29a.74.74,0,0,1,.72.65,1,1,0,0,1-.47.75l-.79.47v3.1h7.81l2.31-2.74Zm1.73,14.39a.8.8,0,0,1,.28.51.42.42,0,0,1-.46.43h-7c1.4,2.77,4,5.11,8,7.13a7.06,7.06,0,0,0-3,2.91,20.54,20.54,0,0,1-5.26-7.92V32c0,.54-.18.76-.72.94a5.58,5.58,0,0,1-1.76.32c-.47,0-.65-.21-.65-.75v-7.2a31.57,31.57,0,0,1-6.12,4.79,11.27,11.27,0,0,1-3,1.51.24.24,0,0,1-.25-.25c0-.22,0-.26,1.15-1.16a27.87,27.87,0,0,0,8-9.57h-.83c-1,0-1.94,0-4.24.11l-.54-1.23c1.47.08,2.84.11,4.78.15h1V14.47l3.53.47a.63.63,0,0,1,.61.61.76.76,0,0,1-.4.65l-.68.43v3h2.52l2.05-2.45Z"/><path class="cls-2" d="M251.2,19.8h1.15c1,3.67,1.55,4.86,3,6.55a8.74,8.74,0,0,0,6.95,3.38c3.57,0,6.09-2.05,6.09-4.89,0-1.62-.72-2.7-2.49-3.78a28.56,28.56,0,0,0-5.25-2.27,25.48,25.48,0,0,1-5.55-2.7,7.05,7.05,0,0,1-3.28-5.87c0-4.21,3.78-7.3,8.93-7.3,2.6,0,4.14.61,7,2.77L269.49,3l.79,0,.47,9.83h-1.33c-.72-3.14-1.51-4.79-2.92-6.27a8.34,8.34,0,0,0-5.9-2.55c-3.17,0-5.73,2-5.73,4.43a3.73,3.73,0,0,0,1.62,3,12.06,12.06,0,0,0,3.42,1.69c5.84,2.27,7.56,3.14,9.4,4.79a6.06,6.06,0,0,1,2.2,4.93c0,4.79-3.82,8-9.51,8-2.77,0-4.29-.61-7.45-2.95l-2.2,2.7-.86,0Z"/><path class="cls-2" d="M297.29,3.67h8.9v1h-.65c-2.45.11-3.32,1.16-3.35,4.11V20.88c0,3.85-.69,5.87-2.63,7.63a11.24,11.24,0,0,1-7.67,2.59A13.78,13.78,0,0,1,284.25,29c-2.08-1.48-3-3.42-3-6.48V8.42c0-2.88-.65-3.67-3.25-3.78h-.75v-1h12.31v1h-1c-2.16,0-3,.83-3.1,2.74V22.89c0,2.7.58,4.21,2,5.29a8.34,8.34,0,0,0,5.18,1.59c5.3,0,8.47-3.13,8.47-8.42V9c0-3.24-.83-4.24-3.42-4.32h-.4Z"/><path class="cls-2" d="M311.62,29.23l.94,0c2.09-.14,2.77-1.08,2.81-3.81V8.89c.07-3.45-.43-4.14-3.13-4.21h-.65v-1h8.78l8,20,8-20H345v1h-.47c-2.63-.07-3.53.94-3.53,4V25.3c0,3,.54,3.75,3.2,3.93h.54v1H333.09v-1h.5c2.41,0,3.2-.87,3.2-3.53V5.51L327.18,30.2h-.79L316.63,5.51V25.34c0,3.17.76,4,3.53,3.89h.57v1h-9.11Z"/><path class="cls-2" d="M350.59,29.3h1.47c2,0,2.67-1,2.71-4.07V7.56c.07-2-1-2.92-3.5-2.88h-.61v-1h12.53v1h-.72c-2.7,0-3.42.58-3.42,2.92V25.45c0,3.27.4,3.81,3.28,3.85h.79v.9H350.59Z"/><path class="cls-2" d="M368.88,29.26h.94c2-.07,2.95-1,3-3v-19c-.08-1.65-1.23-2.63-3.1-2.59h-.94v-1H381v1h-.94c-2.09,0-2.92.68-2.95,2.41V18.5L387.07,8a3.37,3.37,0,0,0,1.08-1.94c0-.9-1-1.37-2.88-1.37h-.87v-1h11.17v1a7,7,0,0,0-5.77,2.48L384.08,13,393.4,27.1a4.94,4.94,0,0,0,4.22,2.16v.94H384.91v-.94h1.44c1.29,0,2.16-.46,2.16-1.15a2.71,2.71,0,0,0-.51-1.36l-6.8-10.7-4.07,4.18v6.69c0,1.55,1.11,2.34,3.31,2.34h.47v.94h-12Z"/><path class="cls-2" d="M402.59,29.19c2.7-.11,3.42-.65,4.46-3.35l8.54-23.18h1.87l8.75,23c.94,2.41,2,3.49,3.53,3.56h.79v1H418.61v-1h.61c1.77,0,2.63-.5,2.63-1.51a7.37,7.37,0,0,0-.57-2.38L420,21.71H410l-1.44,3.74a4.65,4.65,0,0,0-.4,1.8c0,1.33,1.05,1.94,3.35,1.94h.36v1h-9.25Zm17-8.67-4.5-12.74-4.71,12.74Z"/></g></g></g></g></svg>