<svg xmlns="http://www.w3.org/2000/svg" viewBox="0 0 377.75 36.18"><defs><style>.cls-1{fill:#333;}</style></defs><title>itadaki-new-title</title><g id="Layer_2" data-name="Layer 2"><g id="Layer_1-2" data-name="Layer 1"><path class="cls-1" d="M9.19,29c2.92,2.49,6.43,3.19,15.62,3.19a90.55,90.55,0,0,0,12-.85c-1.68,1.67-2.07,2.33-2.38,4-2.57.15-6.38.23-9.69.23-5.61,0-8.45-.39-11.22-1.59a14,14,0,0,1-6-4.75A21.28,21.28,0,0,1,5.8,31.46,19.06,19.06,0,0,0,4.59,33l-.07.78c-.08.74-.35,1.13-.78,1.13a1.18,1.18,0,0,1-.9-.51L0,31.46a32.82,32.82,0,0,0,3.66-1.63c.35-.2,1-.55,1.83-1l.35-.24.16,0V18.19H5.26c-1.09,0-2.07,0-4.44.11L.08,17l3.11.12,2.07,0h.27l1.52-2.45,2.88,2.77a2,2,0,0,1,.66,1.16c0,.35-.23.55-.82.7l-.58.12ZM5.8,2.73C8.41,4.05,9.66,5.65,9.66,7.67A2.14,2.14,0,0,1,7.44,9.85c-1.13,0-1.33-.31-2.11-3.11a9.61,9.61,0,0,0-3.11-4.6c-.31-.23-.39-.31-.39-.39s.12-.19.27-.19A12.61,12.61,0,0,1,5.8,2.73Zm7.79,11.44c1.21,0,2.3,0,2.8,0h4.48V.47L24.81.9c.7.07.93.27.93.81a.73.73,0,0,1-.16.47l-1.24.7V14.21h5.22L32.24,11l3,2.8c.43.43.58.63.58.94s-.19.5-.58.5H24.34v2.42c6,1.63,10.39,4.91,10.39,7.79a1.94,1.94,0,0,1-1.83,2.14c-.93,0-1.51-.47-2.29-1.91a17.38,17.38,0,0,0-6.27-7.09V30c0,.43-.12.63-.63.86a6.17,6.17,0,0,1-2.18.43c-.46,0-.66-.16-.66-.55V20.6a30.26,30.26,0,0,1-6.27,5.84,15.16,15.16,0,0,1-3.66,2.06.25.25,0,0,1-.23-.19c0-.16.12-.31.43-.55A33.53,33.53,0,0,0,20,15.26H16.39c-.7,0-1.63,0-2.76,0l-3.19.12L9.66,14Zm1.25-9.65c2.76,1.94,3.89,3.62,3.89,5.76,0,1.6-.74,2.57-2,2.57a1.71,1.71,0,0,1-1.44-.78c-.31-.43-.31-.43-.5-3.27a8.39,8.39,0,0,0-2-4.63c-.19-.31-.27-.43-.27-.55a.21.21,0,0,1,.23-.19A8,8,0,0,1,14.84,4.52ZM32,6.82c-.51.58-1,1.2-1.56,1.83-.27.31-.86,1-1.56,1.71-.46.51-.89,1-1.36,1.52-1.13,1.24-1.32,1.4-1.6,1.4a.32.32,0,0,1-.31-.35,4.14,4.14,0,0,1,.47-1.21A46.2,46.2,0,0,0,29.4,2.84l.16-.58,3.69,2.3c.59.35.78.58.78.93s-.5.82-1.09.82h-.46Z"/><path class="cls-1" d="M47.63,6.35a9.94,9.94,0,0,1,.16,1.56c0,2.49-1.44,4.36-3.39,4.36-1.09,0-2.18-.82-2.18-1.64a3.4,3.4,0,0,1,.31-.93c.2-.43.47-.7,1.52-1.64a7,7,0,0,0,1.79-2.34c.35-1.24.35-1.24.35-1.28l-.08-1.05c0-.08.2-.27.28-.27s.31.23.42.5a6.81,6.81,0,0,0,.28.7,9.58,9.58,0,0,1,.27,1h9.77V0l4.36.35c.43,0,.67.27.67.66a.71.71,0,0,1-.43.7l-.86.55v3h10.4l1.52-2.07,3.54,3.59a1.53,1.53,0,0,1,.47,1c0,.31-.2.66-.39.7l-.78.16L74,8.57c-.19.15-.35.27-.58.43l-1,.7c-.47.35-.86.62-1.05.78-.7.54-1.13.81-1.37.81a.3.3,0,0,1-.27-.31,2.34,2.34,0,0,1,.23-.82,37.45,37.45,0,0,0,1.41-3.81Zm2.84,28.58c0,.7-1.2,1.25-2.68,1.25-.59,0-.86-.28-.86-.9V23.09l4.32,1.56h3.94a45,45,0,0,0,1.2-5.34H52.3V21c0,.35-.15.54-.54.74a5.35,5.35,0,0,1-2,.47c-.62,0-.81-.2-.81-.86V9.15l4.43,1.95H65.27l1.21-2.26L69.91,12a1.18,1.18,0,0,1,.38.78.73.73,0,0,1-.5.66l-.82.32v6.38c0,.47-.16.66-.62.9a6.72,6.72,0,0,1-2.07.46c-.5,0-.7-.19-.7-.62v-1.6H60.79c-1.9,2.65-2.61,3.63-4,5.34H67.26l1.32-2.1,3.47,3.15a1.16,1.16,0,0,1,.35.66c0,.24-.2.47-.55.59l-.54.23v6.93a1.14,1.14,0,0,1-.82,1.13,6,6,0,0,1-2.14.43c-.63,0-.86-.19-.86-.74V33.49h-17Zm17-2.49V25.7h-17v6.74ZM65.58,18.26V12.15H52.3v6.11Z"/><path class="cls-1" d="M93.86,25a10.37,10.37,0,0,1,3.35.86,3.89,3.89,0,0,1,2.41,3.23,1.62,1.62,0,0,1-1.71,1.64c-.82,0-1-.2-1.87-2.11a6.91,6.91,0,0,0-2.18-2.8v8.53a1,1,0,0,1-.74,1.09,3.71,3.71,0,0,1-1.6.39c-.66,0-.93-.24-.93-.82V27.53a31.18,31.18,0,0,1-5.8,4.87,10.84,10.84,0,0,1-2.57,1.52.29.29,0,0,1-.27-.28c0-.19.19-.42.7-.89a28.37,28.37,0,0,0,7.67-10.36H88.1c-.43,0-1.09,0-1.91,0l-2.45.08-.82-1.33c1.44,0,2.76.08,3.23.12,1,0,1.64,0,1.95,0h2.49V15.81l3.89.39a.84.84,0,0,1,.78.82c0,.31-.15.5-.58.74l-.82.39v3.19H95l2-2.45,2.76,2.29a.89.89,0,0,1,.39.67.54.54,0,0,1-.58.54H93.86ZM116.76,5.8a.75.75,0,0,1,.31.55.47.47,0,0,1-.51.5H102.78c3.43,3.47,9.85,6.23,16,6.9-2.26,1.2-2.84,1.63-4,3.31a25.74,25.74,0,0,1-12.46-9.43v8.88c0,.47-.15.7-.7.86a7.9,7.9,0,0,1-2,.39.72.72,0,0,1-.78-.82V9.77a46.12,46.12,0,0,1-9.3,6,29.79,29.79,0,0,1-6,2.46.31.31,0,0,1-.31-.28c0-.19.16-.35.51-.5A40.93,40.93,0,0,0,96.9,6.85h-4c-2.14,0-3.43,0-6.74.2l-.89-1.44,4.36.11c1.36,0,2.53.08,3.27.08h6V.12l4,.31a.8.8,0,0,1,.77.7,1.05,1.05,0,0,1-.5.82l-.86.5V5.8h8.45l2.49-3Zm1.87,15.58a.9.9,0,0,1,.31.54.46.46,0,0,1-.51.47h-7.55c1.52,3,4.36,5.53,8.6,7.71a7.75,7.75,0,0,0-3.23,3.16,22.17,22.17,0,0,1-5.68-8.57v10c0,.58-.2.81-.78,1a6.31,6.31,0,0,1-1.91.35c-.51,0-.7-.23-.7-.82V27.45a34,34,0,0,1-6.62,5.18,11.9,11.9,0,0,1-3.23,1.64.27.27,0,0,1-.28-.27c0-.24,0-.28,1.25-1.25A30.38,30.38,0,0,0,107,22.39h-.9c-1.13,0-2.1,0-4.6.12l-.58-1.33c1.6.08,3.08.12,5.18.16h1.13V15.77l3.82.51a.69.69,0,0,1,.66.66.83.83,0,0,1-.43.7l-.74.47v3.23h2.72l2.22-2.65Z"/><path class="cls-1" d="M141.49,20.29l2.57,2.45a.86.86,0,0,1,.31.59c0,.31-.23.5-.62.5h-15.5a27.45,27.45,0,0,1-3.46,9c-.78,1.36-1,1.59-1.25,1.59s-.27-.07-.27-.23,0-.16.27-.78c1.75-4.44,2.38-9.54,2.38-19.08,0-2.41-.16-9.46-.28-13.12l3.86,2.06h9.23l1.4-2,2.57,2.53a1.19,1.19,0,0,1,.51.89.77.77,0,0,1-.59.74l-.58.2v4.59c0,.43-.2.66-.66.86a5.59,5.59,0,0,1-1.8.35c-.35,0-.46-.08-.46-.35v-.9h-10v1.44l0,2.53,0,1.76h2V11l3.27.43c.39,0,.74.31.74.54a1.55,1.55,0,0,1-.51.86l-.58.47v2.61h2.41V11.21l3.2.51c.42,0,.7.27.7.59a.83.83,0,0,1-.55.66l-.5.19v2.77h.5L141,13.71l1.94,1.91a25.2,25.2,0,0,0,1.33-9c0-1.95-.08-3.86-.2-5.45l3.55,2h2.76L151.89,1l2.69,2.77a1.24,1.24,0,0,1,.39.82.74.74,0,0,1-.51.7l-.58.31v6.85c0,.78.07.82,1.28.82a1.72,1.72,0,0,0,1.05-.39c.27-.31.27-.31,1.13-2.57l.47-1.44c.47-1.25.47-1.25.7-1.25s.27.12.27.59l0,.5,0,1.6,0,1.13,0,.74a.82.82,0,0,0,.42.78c.78.7,1,.93,1,1.44s-.59,1.13-1.48,1.32a24.59,24.59,0,0,1-3.23.27c-3.66,0-4.56-.35-4.56-1.75v-10h-3.43V5.49c0,6.93-1.24,10.24-5,13.24l2.22,0c1.4,0,2.37.08,2.88.08h5.45l1.4-2,3,3a1.19,1.19,0,0,1,.43.82c0,.47-.35.7-1,.82l-.94.15a29.49,29.49,0,0,1-4.36,6.51c1.52,1.4,5.41,3,9.23,3.69-1.4.67-2,1.29-3.54,3.47a23.73,23.73,0,0,1-7.67-5.18l-.59.47a24.43,24.43,0,0,1-7.67,4.24,17.87,17.87,0,0,1-3.82,1,.35.35,0,0,1-.35-.32c0-.15.16-.31.51-.46A25.91,25.91,0,0,0,147.68,28a19.9,19.9,0,0,1-3-8l-2,.08-.7-1.09c-.39.35-.63.46-.78.46a.25.25,0,0,1-.2-.23c0-.08,0-.16.2-.39A8.28,8.28,0,0,0,142.35,17H139.2v5.8h.5ZM134,28.7a28.5,28.5,0,0,1-6.43,5.14,14.08,14.08,0,0,1-2.76,1.48.21.21,0,0,1-.24-.23c0-.08,0-.16.2-.28A35.18,35.18,0,0,0,132.3,25L135.22,27a.84.84,0,0,1,.47.74c0,.46-.23.7-.82.81ZM129,17a44.61,44.61,0,0,1-.5,5.8H131V17Zm.12-7.83h10V4.32h-10Zm7.24,13.63V17h-2.41v5.8Zm3.78,3.74a4.36,4.36,0,0,1,2.26,3.66,1.9,1.9,0,0,1-1.95,2c-.86,0-1.28-.51-1.87-2.19-.85-2.53-1.36-3.38-2.68-4.36-.2-.15-.28-.23-.28-.35a.31.31,0,0,1,.31-.31A13.4,13.4,0,0,1,140.13,26.52Zm5.76-6.62a15.61,15.61,0,0,0,3.23,6.27,29.91,29.91,0,0,0,3.55-6.27Z"/><path class="cls-1" d="M177,31.81h1.59c2.18,0,2.89-1.12,2.92-4.4V8.29c.08-2.21-1.05-3.15-3.77-3.11h-.67v-1h13.56v1h-.78c-2.92,0-3.7.62-3.7,3.15V27.65c0,3.54.43,4.13,3.54,4.16h.86v1H177Z"/><path class="cls-1" d="M195.87,4.13h26.55l.47,10.55h-1.21c-1.09-4.2-1.63-5.72-2.49-6.89a5.57,5.57,0,0,0-4.9-2.49A2.89,2.89,0,0,0,212,6c-.55.54-.59.78-.59,3.5V28c-.11,2.88.82,3.78,4,3.74h.9v1.05H201.86V31.74h.9c3.35-.08,4-.78,4.05-4.4V8.65c0-1.68-.12-2.3-.55-2.73a3.3,3.3,0,0,0-2.18-.62,6.29,6.29,0,0,0-5.84,3.89,23.88,23.88,0,0,0-1.75,5.49h-1.21Z"/><path class="cls-1" d="M227.1,31.7c2.92-.12,3.7-.7,4.83-3.62L241.16,3h2l9.47,24.84c1,2.61,2.18,3.78,3.81,3.86h.86v1.09H244.43V31.7h.66c1.91,0,2.85-.55,2.85-1.64a8,8,0,0,0-.63-2.57L246,23.6H235.08l-1.55,4a5.07,5.07,0,0,0-.43,1.94c0,1.45,1.13,2.11,3.62,2.11h.39v1.09h-10Zm18.38-9.39L240.61,8.53l-5.1,13.78Z"/><path class="cls-1" d="M261.34,31.62h.74c3.23-.12,3.62-.82,3.58-6.08V7.83c0-1.72-1.25-2.73-3.31-2.65l-.86,0v-1h13.44a17.12,17.12,0,0,1,8.8,2.26C287.89,8.92,290,12.93,290,18.3c0,5.14-1.87,9.31-5.3,11.8-2.53,1.87-5.72,2.69-10.24,2.69H261.34Zm9.11-3.78c0,2.81.93,3.74,3.7,3.74a12.63,12.63,0,0,0,5.6-1.28c3.12-1.68,4.72-5.73,4.72-11.88,0-5.45-1.33-9-4.25-11.14a10,10,0,0,0-6-1.91c-1.83,0-3,.47-3.47,1.41-.27.5-.31.74-.31,2.92Z"/><path class="cls-1" d="M294.4,31.7c2.92-.12,3.7-.7,4.83-3.62L308.46,3h2L320,27.84c1,2.61,2.18,3.78,3.81,3.86h.86v1.09H311.73V31.7h.66c1.91,0,2.84-.55,2.84-1.64a7.88,7.88,0,0,0-.62-2.57l-1.36-3.89H302.39l-1.56,4a5.07,5.07,0,0,0-.43,1.94c0,1.45,1.13,2.11,3.62,2.11h.39v1.09h-10Zm18.38-9.39L307.91,8.53l-5.1,13.78Z"/><path class="cls-1" d="M328.75,31.78h1c2.18-.08,3.19-1.06,3.23-3.2V8c-.08-1.79-1.33-2.84-3.35-2.8h-1v-1h13.24v1h-1c-2.25,0-3.15.74-3.19,2.61V20.13L348.42,8.76a3.63,3.63,0,0,0,1.17-2.1c0-1-1.09-1.48-3.12-1.48h-.93v-1h12.07v1a7.56,7.56,0,0,0-6.23,2.69l-6.19,6.34,10.08,15.23a5.34,5.34,0,0,0,4.56,2.34v1H346.08v-1h1.56c1.4,0,2.34-.51,2.34-1.25a3,3,0,0,0-.55-1.48l-7.36-11.57L337.67,22v7.25c0,1.67,1.21,2.53,3.58,2.53h.51v1h-13Z"/><path class="cls-1" d="M364.12,31.81h1.59c2.19,0,2.89-1.12,2.93-4.4V8.29c.07-2.21-1.06-3.15-3.78-3.11h-.66v-1h13.55v1H377c-2.92,0-3.7.62-3.7,3.15V27.65c0,3.54.43,4.13,3.54,4.16h.86v1H364.12Z"/></g></g></svg>