<svg xmlns="http://www.w3.org/2000/svg" viewBox="0 0 584.61 28.36"><defs><style>.cls-1{fill:#333;}</style></defs><title>title-car-bike_1</title><g id="レイヤー_2" data-name="レイヤー 2"><g id="レイヤー_1-2" data-name="レイヤー 1"><path class="cls-1" d="M.76,26.89a37.66,37.66,0,0,0,11.05-7.74,30.28,30.28,0,0,0,6.26-8.46,12.8,12.8,0,0,0,1.33-3.2.84.84,0,0,0-.86-.8,6.65,6.65,0,0,0-.69.08c-.1,0-.86.18-1.62.29l-1.4.21a3.32,3.32,0,0,1-.72.11,2.77,2.77,0,0,1-1.4-.5,36.16,36.16,0,0,1-5.94,7.23c-1.73,1.58-4.11,3.2-4.68,3.2-.22,0-.4-.1-.4-.25s.07-.32,1-1A29.66,29.66,0,0,0,8.57,9.36C10.08,7.06,11,5,11,3.82A2.31,2.31,0,0,0,9.68,1.58c-.14,0-.25-.14-.25-.21s.4-.33,1-.33a4.33,4.33,0,0,1,2.52.9c1.3.87,1.59,1.16,1.59,1.66,0,.22,0,.29-.26.54a6.81,6.81,0,0,0-.61.9c-.25.58-.36.75-.5,1a2.36,2.36,0,0,0,.86.15,23.38,23.38,0,0,0,4.32-.79,7.33,7.33,0,0,0,1.37-.65c.61-.4.83-.47,1-.47.4,0,.87.29,2.09,1.33S24,6.69,24,7s-.14.43-.53.57a11.15,11.15,0,0,0-1.16.51C17.24,18.32,11.16,24,1.48,27.57a3.45,3.45,0,0,0-.51.18,1.44,1.44,0,0,1-.32.07c-.29,0-.65-.28-.65-.54,0-.1.07-.18.5-.28Z"/><path class="cls-1" d="M46.19,6.55c1.08.58,1.87,1.3,1.87,1.62,0,.14,0,.18-.33.43a3,3,0,0,0-.46,1.33,31.35,31.35,0,0,1-3.46,8.75c-1.94,3.21-6.23,7.38-7.59,7.38a.41.41,0,0,1-.44-.4c0-.14.11-.28.36-.43a19,19,0,0,0,5-5.94C43.09,16,44.6,11.19,44.6,8.42a2,2,0,0,0-1.18-1.94c-.18-.07-.26-.18-.26-.29s.22-.29.51-.29A6.11,6.11,0,0,1,46.19,6.55Zm5,6.08c0-3.16.08-4.82.08-4.89a4.15,4.15,0,0,0-.29-2.09,1.85,1.85,0,0,0-.72-.5c-.22,0-.29-.07-.29-.22s.72-.5,1.15-.5a4.07,4.07,0,0,1,2.31,1c.93.64,1,.75,1,1s0,.18-.29.5a7.69,7.69,0,0,0-.65,2.88c-.1,1.33-.36,6.88-.36,8.1,0,.5.18.72.58.72,1.33,0,4.14-1.62,6.73-3.89a40.6,40.6,0,0,0,7.13-8.28c.21-.43.32-.54.47-.54a.5.5,0,0,1,.39.43,20.7,20.7,0,0,1-2.7,4.86,31.93,31.93,0,0,1-5.58,6.23,31,31,0,0,1-5,3.42A4.85,4.85,0,0,0,53,22.42a.38.38,0,0,1-.22.11c-.57,0-2.26-2-2.26-2.62a1.54,1.54,0,0,1,.14-.44A3.79,3.79,0,0,0,51.12,17Z"/><path class="cls-1" d="M98.75,15.48a31.57,31.57,0,0,1-3.32,2.16c1.95,1.69,3.1,3.49,3.1,4.89a1.38,1.38,0,0,1-1.48,1.23c-.72,0-1-.29-1.62-1.66a15.75,15.75,0,0,0-7.09-7.2c-.21-.11-.32-.18-.32-.29s.18-.28.36-.28a15.63,15.63,0,0,1,3.06.93,18.75,18.75,0,0,1,3.38,1.8c3.57-2.84,7.24-6.77,7.24-7.7,0-.65-.83-.94-2.52-.94a63.89,63.89,0,0,0-9.61,1.26,41.47,41.47,0,0,0-6.05,1.77,2.58,2.58,0,0,1-.72.18,4.41,4.41,0,0,1-2.48-1.23,3.85,3.85,0,0,1-.87-2.48c0-.4.11-.69.29-.69s.14.08.22.22A2.94,2.94,0,0,0,83,8.78c1.65,0,5.11-.36,11.19-1.15s6.41-.75,7.74-1.15a4.71,4.71,0,0,1,1.44-.32c.72,0,1.4.36,3.56,1.94.69.54,1,.9,1,1.37s-.25.72-1,.86a7,7,0,0,0-2.34,1c-.39.26-.47.29-2.12,1.52Z"/><path class="cls-1" d="M139.88,12h9.45v1.12h-.66c-2,.24-3,1-4.1,3.39-1.68,3.61-2.06,4.2-3.71,5.88,1.54,1.65,2.28,2,3.64,2s2.45-.42,4.41-1.71l.6,1.05c-2.49,1.82-4.73,2.73-6.69,2.73-1.54,0-2.48-.53-4.16-2.28A12.52,12.52,0,0,1,131,26.55c-4.8,0-8.54-3.22-8.54-7.31,0-3.26,2.52-5.78,7.63-7.63-1.19-2.45-1.61-3.85-1.61-5.29,0-3.26,2.9-5.88,6.51-5.88,3.22,0,5.56,2.1,5.56,5a5.32,5.32,0,0,1-2.31,4.24,14.86,14.86,0,0,1-4.48,1.89,59.29,59.29,0,0,0,6.3,9.8c2.14-2.52,3.15-4.55,3.15-6.16,0-1.4-.8-2.1-2.38-2.1h-1Zm-14.07,6.65c0,3.6,2.84,6.05,7,6.05a8,8,0,0,0,4.87-1.33,101.1,101.1,0,0,1-7.07-10.81C127.11,14.37,125.81,16,125.81,18.68Zm10.05-9.17A4.74,4.74,0,0,0,138,5.66c0-2-1.54-3.89-3.26-3.89a3.68,3.68,0,0,0-3.5,3.43,12.29,12.29,0,0,0,1.47,4.59c.14.21.42.8.42.8A6.54,6.54,0,0,0,135.86,9.51Z"/><path class="cls-1" d="M173.92,10.08c1.19.72,2,1.55,2,2.05,0,.18-.11.36-.43.54-.54.36-.65.5-1.37,1.55A24.76,24.76,0,0,1,163.63,23a14.25,14.25,0,0,1-2.63.86c-.21,0-.43-.17-.43-.32s0-.18.61-.43a24.31,24.31,0,0,0,7.2-5.47c2-2.27,3.6-5.08,3.6-6.27a2.45,2.45,0,0,0-1.48-1.8c-.18-.07-.21-.1-.21-.21s.25-.4.57-.4A8.81,8.81,0,0,1,173.92,10.08Zm11.34.72a20.24,20.24,0,0,1,4.83,5.29,7.55,7.55,0,0,1,1,3.35,1.84,1.84,0,0,1-1.83,1.91c-.69,0-1-.44-1.48-1.91-1.58-5-4.68-9.07-8.24-10.8-.36-.11-.43-.18-.43-.33s.21-.28.43-.28C180.65,8,183.43,9.39,185.26,10.8Zm1.8-5.29a1.34,1.34,0,0,1-1.22,1.18c-.47,0-.72-.17-1-.68a6.74,6.74,0,0,0-3.64-3c-.14-.07-.21-.11-.21-.18s.54-.29,1.08-.29C184.58,2.52,187.06,4,187.06,5.51Zm3.78-1.95a1.28,1.28,0,0,1-1.19,1.26c-.5,0-.79-.21-1.11-.86a6.65,6.65,0,0,0-3.31-2.77c-.33-.11-.44-.18-.44-.29s.47-.25,1.16-.25C188.36.65,190.84,2.12,190.84,3.56Z"/><path class="cls-1" d="M220,10.76c1.83.83,1.83.83,1.83,1.19a1.12,1.12,0,0,1-.14.5,7.82,7.82,0,0,0-.33,2.88l.08,3.68v4.1l0,2.48c0,.47,0,.9,0,1.19,0,.94-.33,1.48-.87,1.48-1.07,0-2.33-.94-2.33-1.77a2.92,2.92,0,0,1,.1-.68,113.19,113.19,0,0,0,.87-12.46,3.6,3.6,0,0,0-.44-2.12,45.61,45.61,0,0,1-9.35,7.42,16.09,16.09,0,0,1-4,1.69c-.14,0-.36-.15-.36-.29s.07-.18.36-.29c5.69-2.59,16.81-14,16.81-17.13,0-.36-.68-1-1.19-1.12-.32-.07-.39-.14-.39-.29s.75-.5,1.47-.5c1.33,0,4.07,1.94,4.07,2.92,0,.25-.11.36-.43.54a2.6,2.6,0,0,0-1.3,1.08,59.79,59.79,0,0,1-5,5.29Z"/><path class="cls-1" d="M244.38,26.89a37.66,37.66,0,0,0,11.05-7.74,30.09,30.09,0,0,0,6.26-8.46A12.41,12.41,0,0,0,263,7.49a.84.84,0,0,0-.86-.8,6.53,6.53,0,0,0-.68.08c-.11,0-.87.18-1.63.29l-1.4.21a3.32,3.32,0,0,1-.72.11,2.81,2.81,0,0,1-1.4-.5,35.82,35.82,0,0,1-5.94,7.23c-1.73,1.58-4.11,3.2-4.68,3.2-.22,0-.4-.1-.4-.25s.07-.32,1-1a29.66,29.66,0,0,0,5.91-6.73c1.51-2.3,2.45-4.36,2.45-5.54a2.3,2.3,0,0,0-1.34-2.24c-.14,0-.25-.14-.25-.21s.4-.33,1-.33a4.33,4.33,0,0,1,2.52.9c1.3.87,1.59,1.16,1.59,1.66,0,.22,0,.29-.25.54a6.91,6.91,0,0,0-.62.9c-.25.58-.36.75-.5,1a2.36,2.36,0,0,0,.86.15,23.24,23.24,0,0,0,4.32-.79,7.33,7.33,0,0,0,1.37-.65c.61-.4.83-.47,1-.47.4,0,.87.29,2.09,1.33s1.23,1,1.23,1.37-.15.43-.54.57A11.15,11.15,0,0,0,266,8.1C260.86,18.32,254.78,24,245.1,27.57a3.45,3.45,0,0,0-.51.18,1.44,1.44,0,0,1-.32.07c-.29,0-.65-.28-.65-.54,0-.1.07-.18.5-.28Z"/><path class="cls-1" d="M298.27,4.18a33.35,33.35,0,0,1,.5,4.35A19.73,19.73,0,0,1,294.38,20c-2.09,2.7-4,4-5.9,4A3.23,3.23,0,0,1,286,22.64,8.39,8.39,0,0,1,284.12,17c0-7.63,6.63-13.89,14.69-13.89,7.12,0,12.09,4.46,12.09,10.87,0,5.72-3.38,10.37-9.07,12.42a22,22,0,0,1-4.93,1.19c-.25,0-.47-.18-.47-.33s.11-.14.61-.29a16.17,16.17,0,0,0,6.81-3.56,13.12,13.12,0,0,0,4.1-10c0-3.31-1-5.76-3.09-7.31a9.3,9.3,0,0,0-5.58-1.87Zm-1.44.14a12.81,12.81,0,0,0-10.55,12.74c0,2.67,1,4.68,2.38,4.68,1.55,0,4.42-2.91,6.19-6.26A22.89,22.89,0,0,0,297.37,7a7.05,7.05,0,0,0-.47-2.48Z"/><path class="cls-1" d="M341.68,10.69a2.6,2.6,0,0,1-.46.25,36.13,36.13,0,0,1-5.76,11.88,18.89,18.89,0,0,1-5.47,5,4.16,4.16,0,0,1-1.48.57c-.18,0-.36-.14-.36-.28s0-.15.43-.44a19.45,19.45,0,0,0,6.48-7.52,26.45,26.45,0,0,0,2.45-6.62,22,22,0,0,0,.61-3.49,1.19,1.19,0,0,0-1-1.34c-.11,0-.18-.1-.18-.18s.32-.43.65-.43a7.39,7.39,0,0,1,3.81,2c2.63-1.55,5.26-3.88,5.26-4.71,0-.43-.69-.69-2-.69a75.16,75.16,0,0,0-7.77.94,28.84,28.84,0,0,0-5.83,1.65c-.65.33-.8.36-1,.36a4.16,4.16,0,0,1-2.66-1.76,3.14,3.14,0,0,1-.58-2.09V3.53a.33.33,0,0,1,.33-.33c.14,0,.18,0,.32.33a3.12,3.12,0,0,0,2.56,1.29c.28,0,.72,0,1.29-.07.33,0,1.08-.11,2.23-.18s2.16-.14,2.52-.18c1.3-.14,2.6-.32,3.93-.47,5.36-.57,5.61-.61,7.63-1.22a2.76,2.76,0,0,1,.54-.07c.5,0,1.15.54,2.23,1.87l.79,1c.51.51.61.69.61,1s-.25.57-.79.61a10.32,10.32,0,0,0-4.75,1.51c-1.33.65-1.69.79-3.56,1.62Z"/><path class="cls-1" d="M375.09,11.59c0,6.44.11,9.86.29,12.27.07.76.11,1.3.11,1.62,0,1.52-.54,2.63-1.3,2.63s-1.9-1.62-1.9-2.52a5,5,0,0,1,.1-.93c.29-2,.58-10,.58-17.17,0-3.39-.14-4.61-.58-5.33a1.8,1.8,0,0,0-1.72-.9c-.26,0-.37-.11-.37-.32s.11-.26.33-.36a10.23,10.23,0,0,1,2.2-.58c.53,0,1,.25,2.62,1.26.47.32.69.58.69.83a2.09,2.09,0,0,1-.18.68c-.58,1-.8,2.67-.87,6.7a15.24,15.24,0,0,1,7.56,2.34c2,1.33,2.85,2.48,2.85,3.63A1.48,1.48,0,0,1,384,17c-.79,0-1.18-.33-2.08-1.7A13,13,0,0,0,375.09,10Z"/><path class="cls-1" d="M413.25,24.58c-2.63,1.52-5.9,2.74-7.34,2.74-.33,0-.58-.18-.58-.36s.08-.22.29-.25a25.14,25.14,0,0,0,7.45-3.82,24.63,24.63,0,0,0,7.06-7.81c1.29-2.37,1.87-3.78,1.87-4.5s-.4-.93-1.15-.93-4.68.5-6.34.82a50.57,50.57,0,0,0-6.26,1.62,1.34,1.34,0,0,1-.58.15A4.19,4.19,0,0,1,405.62,11a3.61,3.61,0,0,1-.93-2.38c0-.29.1-.47.32-.47s.14,0,.22.26c.21.72,1.58,1.29,3,1.29.58,0,.58,0,4.93-.43,2.92-.32,4.65-.5,5.19-.58a12.23,12.23,0,0,0,4-1.11,2.15,2.15,0,0,1,.65-.18c.68,0,3.27,2.05,3.27,2.59,0,.32-.14.47-1.29,1.33C421.32,18.32,418.47,21.52,413.25,24.58ZM408,1.91c.36.54,1.19.79,2.52.79a27.26,27.26,0,0,0,8.46-1.48A2.5,2.5,0,0,1,420.06.9c.36,0,.68.14,1.76.72.76.4,1,.65,1,1s-.33.57-1.66.72c-1.83.21-1.91.21-4.71.72a35.5,35.5,0,0,1-5.44.65,2.86,2.86,0,0,1-2.73-1.34,6,6,0,0,1-.72-1.54c0-.08.07-.18.14-.18S407.82,1.69,408,1.91Z"/><path class="cls-1" d="M441.66,26.89a37.66,37.66,0,0,0,11-7.74A29.9,29.9,0,0,0,459,10.69a12.41,12.41,0,0,0,1.33-3.2.84.84,0,0,0-.86-.8,6.53,6.53,0,0,0-.68.08c-.11,0-.87.18-1.62.29l-1.41.21a3.32,3.32,0,0,1-.72.11,2.81,2.81,0,0,1-1.4-.5,35.82,35.82,0,0,1-5.94,7.23c-1.73,1.58-4.1,3.2-4.68,3.2-.22,0-.4-.1-.4-.25s.08-.32,1-1a29.91,29.91,0,0,0,5.9-6.73c1.51-2.3,2.45-4.36,2.45-5.54a2.3,2.3,0,0,0-1.34-2.24c-.14,0-.25-.14-.25-.21s.4-.33,1-.33a4.33,4.33,0,0,1,2.52.9c1.3.87,1.59,1.16,1.59,1.66,0,.22,0,.29-.25.54a6.91,6.91,0,0,0-.62.9c-.25.58-.36.75-.5,1a2.36,2.36,0,0,0,.86.15,23.24,23.24,0,0,0,4.32-.79,7.33,7.33,0,0,0,1.37-.65c.61-.4.83-.47,1.05-.47.39,0,.86.29,2.08,1.33S465,6.69,465,7s-.15.43-.54.57a11.15,11.15,0,0,0-1.16.51C458.14,18.32,452.06,24,442.38,27.57a3.45,3.45,0,0,0-.51.18,1.44,1.44,0,0,1-.32.07c-.29,0-.65-.28-.65-.54,0-.1.07-.18.51-.28Z"/><path class="cls-1" d="M485.61,10.73c1.37.9,2,1.72,2,2.8A1.52,1.52,0,0,1,486.15,15a1.27,1.27,0,0,1-1.22-.86,8.24,8.24,0,0,0-4.54-4c-.21-.07-.32-.14-.32-.25s.58-.36,1.3-.36A8.84,8.84,0,0,1,485.61,10.73Zm-.43,15a5,5,0,0,1-2.77-1.8,3.91,3.91,0,0,1-1-2.13,4.71,4.71,0,0,1,0-.75q0-.54.33-.54c.1,0,.18,0,.46.47a2.69,2.69,0,0,0,2.56,1.36c1.22,0,3.42-1,6.19-2.77A73.92,73.92,0,0,0,502,10.08a36.48,36.48,0,0,0,3.85-4.79c.29-.43.43-.57.58-.57s.25.21.25.39c0,.68-1.76,3.71-3.53,6a52.2,52.2,0,0,1-15.51,13.21c-1.19.69-1.69,1-1.76,1.05A.86.86,0,0,1,485.18,25.74ZM489.93,4c1.37.83,2,1.73,2,2.88A1.62,1.62,0,0,1,490.4,8.6c-.61,0-.83-.18-1.22-1a8,8,0,0,0-5.29-4.07c-.26,0-.36-.07-.36-.21s.64-.47,1.72-.47A10.47,10.47,0,0,1,489.93,4Z"/><path class="cls-1" d="M535.79,14.72c.08-.57.11-1,.11-1.08,0-.54-.57-1-1.33-1a92.41,92.41,0,0,0-10.65,1.66,5,5,0,0,1-1.48.32,3.53,3.53,0,0,1-2.09-1.15,2.61,2.61,0,0,1-.64-1.66c0-.39.14-.65.36-.65s.14,0,.21.29c.22.69,1.22,1,3.13,1,1.3,0,6.3-.5,10.84-1.12a6.85,6.85,0,0,0,1.18-.5c.76-.43.94-.5,1.19-.5.72,0,3.21,2,3.21,2.59,0,.18,0,.21-.54.57-.94.76-1.26,1.88-2.74,10,1.44.54,2,1,2,1.58,0,.33-.18.58-.43.58s-.29,0-.51-.07a16.75,16.75,0,0,0-3.67-.51,42.23,42.23,0,0,0-9.43,1.48,2.93,2.93,0,0,1-1.29.32c-.87,0-2.78-1.8-2.78-2.62a.24.24,0,0,1,.22-.22s.22.07.36.11a6.47,6.47,0,0,0,2.2.43c.21,0,.54,0,.9-.07s1.47-.11,3-.22c4-.32,6-.54,7.63-.72l.58-4.75a10.29,10.29,0,0,0-1.33-.07A66.72,66.72,0,0,0,524.28,20a4.57,4.57,0,0,1-1.12.22,2.64,2.64,0,0,1-2-1.55,2.2,2.2,0,0,0-.14-.39A1.67,1.67,0,0,1,521,18a.24.24,0,0,1,.18-.18c.11,0,.15,0,.36.18a2.2,2.2,0,0,0,1.52.47c.5,0,.5,0,3.24-.22,1.4-.11,2.8-.25,4.17-.36a8.67,8.67,0,0,0,3.13-.58,1.64,1.64,0,0,1,.47-.1c.29,0,.36,0,1.4.82Z"/><path class="cls-1" d="M568.2,8.6a1.51,1.51,0,0,1-1.66,1.55c-.47,0-.72-.18-1.08-.83a8,8,0,0,0-5.54-4.42c-.22-.08-.33-.15-.33-.26s.65-.43,1.7-.43C564.74,4.21,568.2,6.41,568.2,8.6Zm-4.68,16a5.36,5.36,0,0,1-2.6-1.87,2.64,2.64,0,0,1-.89-2.26c0-.69.18-1.23.43-1.23s.21.07.29.25a2.53,2.53,0,0,0,2.16,1.84c1.47,0,5.83-2.7,11.05-6.84a71.48,71.48,0,0,0,6.73-6c.72-.72,2.66-3,3-3.38s.43-.58.61-.58a.29.29,0,0,1,.29.32c0,.58-1.58,3-3.38,5.22a55.91,55.91,0,0,1-7.71,7.78,54.4,54.4,0,0,1-8.56,5.9C564.27,24.33,563.88,24.58,563.52,24.58Z"/></g></g></svg>