<svg xmlns="http://www.w3.org/2000/svg" viewBox="0 0 359.72 33.44"><defs><style>.cls-1{isolation:isolate;}.cls-2{fill:#333;}</style></defs><title>mobipark-itadaki-title</title><g id="Layer_2" data-name="Layer 2"><g id="Layer_1-2" data-name="Layer 1"><g class="cls-1"><path class="cls-2" d="M8.5,26.82c2.7,2.3,5.94,2.95,14.44,2.95A84,84,0,0,0,34.07,29c-1.55,1.54-1.91,2.16-2.2,3.7-2.38.15-5.91.22-9,.22-5.18,0-7.81-.36-10.37-1.48A13,13,0,0,1,7,27a17.94,17.94,0,0,1-1.58,2,14.5,14.5,0,0,0-1.12,1.41l-.07.72c-.07.68-.33,1-.72,1a1.09,1.09,0,0,1-.83-.47L0,29.08a28.52,28.52,0,0,0,3.38-1.51l1.7-.93.32-.22.15,0V16.81H4.86c-1,0-1.91,0-4.1.11L.07,15.69,3,15.8l1.91,0h.25l1.41-2.27,2.66,2.56a1.85,1.85,0,0,1,.61,1.08c0,.32-.21.5-.75.64L8.5,18ZM5.37,2.52c2.41,1.22,3.56,2.7,3.56,4.57a2,2,0,0,1-2,2c-1,0-1.23-.29-1.95-2.88A8.92,8.92,0,0,0,2.05,2c-.29-.22-.36-.29-.36-.36s.11-.18.25-.18A11.78,11.78,0,0,1,5.37,2.52Zm7.2,10.58c1.11,0,2.12,0,2.59,0H19.3V.43l3.64.4c.65.07.86.25.86.75a.74.74,0,0,1-.14.44s-.4.21-1.15.64V13.14h4.82l2.49-3,2.81,2.59c.39.39.54.57.54.86s-.18.47-.54.47H22.51v2.23c5.54,1.51,9.61,4.54,9.61,7.2a1.79,1.79,0,0,1-1.69,2c-.87,0-1.41-.43-2.13-1.76a15.91,15.91,0,0,0-5.79-6.55V27.72c0,.39-.11.57-.58.79a6,6,0,0,1-2,.39c-.43,0-.61-.14-.61-.5V19a27.92,27.92,0,0,1-5.8,5.4,13.86,13.86,0,0,1-3.38,1.91.24.24,0,0,1-.22-.18c0-.15.11-.29.4-.51a30.9,30.9,0,0,0,8.21-11.55H15.16c-.65,0-1.51,0-2.56,0l-2.95.1L8.93,13Zm1.15-8.93c2.56,1.8,3.6,3.35,3.6,5.33,0,1.48-.68,2.38-1.84,2.38a1.58,1.58,0,0,1-1.33-.72c-.29-.4-.29-.4-.47-3a7.73,7.73,0,0,0-1.87-4.28c-.18-.29-.25-.39-.25-.5a.2.2,0,0,1,.22-.18A7.62,7.62,0,0,1,13.72,4.17ZM29.6,6.3c-.47.54-1,1.12-1.44,1.69-.25.29-.79.9-1.44,1.58-.43.47-.83.9-1.26,1.41-1,1.15-1.22,1.29-1.48,1.29A.28.28,0,0,1,23.7,12a3.58,3.58,0,0,1,.43-1.12,43.13,43.13,0,0,0,3.06-8.2l.14-.54,3.42,2.12c.54.33.72.54.72.87s-.47.75-1,.75H30Z"/><path class="cls-2" d="M46.2,5.87a9.35,9.35,0,0,1,.15,1.44c0,2.3-1.34,4-3.14,4-1,0-2-.76-2-1.51A3.2,3.2,0,0,1,41.49,9c.18-.39.43-.65,1.4-1.51a6.55,6.55,0,0,0,1.66-2.16c.32-1.15.32-1.15.32-1.19l-.07-1a.44.44,0,0,1,.25-.25c.14,0,.29.22.4.47A4.55,4.55,0,0,0,45.7,4a7.1,7.1,0,0,1,.25.9h9V0l4,.32a.59.59,0,0,1,.61.62.64.64,0,0,1-.39.64l-.79.51V4.9h9.61L69.47,3,72.74,6.3a1.41,1.41,0,0,1,.43.9c0,.29-.18.61-.36.65L72.09,8l-1.51-.07a6.31,6.31,0,0,1-.54.39L69.11,9l-1,.72c-.64.51-1,.76-1.26.76a.28.28,0,0,1-.25-.29,2,2,0,0,1,.22-.76,34.29,34.29,0,0,0,1.29-3.52Zm2.63,26.42c0,.65-1.12,1.15-2.48,1.15-.54,0-.8-.25-.8-.83V21.34l4,1.45h3.64a41.78,41.78,0,0,0,1.11-4.94H50.52v1.59c0,.32-.14.5-.5.68a4.93,4.93,0,0,1-1.84.43c-.57,0-.75-.18-.75-.79V8.46l4.1,1.8h11l1.11-2.09,3.17,2.95a1.06,1.06,0,0,1,.36.72.67.67,0,0,1-.47.61l-.75.29v5.91c0,.43-.15.61-.58.82a6,6,0,0,1-1.91.44c-.47,0-.65-.18-.65-.58V17.85H58.37C56.61,20.3,56,21.2,54.7,22.79h9.65l1.23-1.95,3.2,2.92a1,1,0,0,1,.33.61c0,.21-.18.43-.51.54l-.5.21v6.41c0,.51-.22.79-.76,1a5.86,5.86,0,0,1-2,.39c-.58,0-.79-.18-.79-.68V31H48.83ZM64.57,30V23.76H48.83V30ZM62.8,16.88V11.23H50.52v5.65Z"/><path class="cls-2" d="M91.11,23.07a9.87,9.87,0,0,1,3.1.79,3.63,3.63,0,0,1,2.23,3,1.49,1.49,0,0,1-1.59,1.51c-.75,0-.93-.18-1.73-1.94a6.42,6.42,0,0,0-2-2.59v7.88a.94.94,0,0,1-.69,1,3.41,3.41,0,0,1-1.47.36c-.61,0-.87-.22-.87-.76V25.45A28.59,28.59,0,0,1,82.72,30a9.69,9.69,0,0,1-2.38,1.4.27.27,0,0,1-.25-.25c0-.18.18-.4.65-.83a26.19,26.19,0,0,0,7.09-9.57h-2c-.4,0-1,0-1.77,0l-2.26.07L81,19.58c1.33,0,2.56.07,3,.11.9,0,1.51,0,1.8,0h2.3V14.61l3.6.36a.79.79,0,0,1,.73.76c0,.29-.15.47-.55.68l-.75.36v3h1.08L94,17.46l2.56,2.12a.82.82,0,0,1,.36.61.51.51,0,0,1-.54.51H91.11ZM112.28,5.36a.7.7,0,0,1,.29.51.43.43,0,0,1-.47.46H99.35c3.17,3.21,9.12,5.76,14.84,6.38a8.24,8.24,0,0,0-3.74,3.06A23.78,23.78,0,0,1,98.92,7.05v8.21c0,.43-.14.65-.65.79a6.9,6.9,0,0,1-1.8.36.66.66,0,0,1-.72-.75V9a42.67,42.67,0,0,1-8.6,5.51,27.6,27.6,0,0,1-5.58,2.27.28.28,0,0,1-.29-.25c0-.18.14-.33.47-.47A37.92,37.92,0,0,0,93.92,6.33H90.21c-2,0-3.17,0-6.23.18l-.83-1.33,4,.11c1.26,0,2.34.07,3,.07h5.54V.11L99.46.4a.73.73,0,0,1,.72.64.94.94,0,0,1-.47.76l-.79.47V5.36h7.82L109,2.63ZM114,19.76a.83.83,0,0,1,.29.5.43.43,0,0,1-.47.44h-7c1.41,2.77,4,5.11,8,7.12a7.14,7.14,0,0,0-3,2.92,20.52,20.52,0,0,1-5.25-7.92v9.25c0,.54-.18.76-.72.94a6,6,0,0,1-1.77.32c-.47,0-.65-.21-.65-.75v-7.2a31.23,31.23,0,0,1-6.12,4.78,10.83,10.83,0,0,1-3,1.52.25.25,0,0,1-.25-.26c0-.21,0-.25,1.15-1.15a28,28,0,0,0,8-9.57h-.83c-1,0-1.94,0-4.25.1l-.54-1.22c1.48.07,2.85.11,4.79.15h1V14.58l3.53.47a.63.63,0,0,1,.62.61.78.78,0,0,1-.4.65l-.68.43v3H109l2-2.45Z"/><path class="cls-2" d="M137.31,18.75,139.69,21a.81.81,0,0,1,.29.54c0,.29-.22.47-.58.47H125.07a25.3,25.3,0,0,1-3.21,8.31c-.72,1.26-.9,1.48-1.15,1.48s-.25-.07-.25-.22,0-.14.25-.72c1.62-4.1,2.2-8.82,2.2-17.63,0-2.24-.15-8.75-.25-12.13L126.22,3h8.53l1.3-1.83,2.38,2.34a1.13,1.13,0,0,1,.47.83.71.71,0,0,1-.54.68l-.54.18V9.47c0,.39-.18.61-.62.79a5,5,0,0,1-1.65.32c-.33,0-.44-.07-.44-.32V9.43h-9.25v1.33l0,2.34,0,1.62h1.83V10.19l3,.39c.36,0,.68.29.68.51a1.44,1.44,0,0,1-.46.79l-.54.43v2.41h2.23V10.37l2.95.46c.4,0,.65.26.65.54a.76.76,0,0,1-.51.62l-.46.18v2.55h.46l1.19-2.05,1.8,1.76a23.26,23.26,0,0,0,1.23-8.27c0-1.8-.07-3.57-.18-5L143,3h2.56l1.41-2,2.48,2.55a1.15,1.15,0,0,1,.36.76.68.68,0,0,1-.47.65l-.54.28v6.34c0,.72.07.75,1.19.75a1.58,1.58,0,0,0,1-.36c.26-.28.26-.28,1.05-2.37l.43-1.33c.43-1.16.43-1.16.65-1.16s.25.11.25.54l0,.47,0,1.48,0,1,0,.69a.77.77,0,0,0,.39.72c.72.64.9.86.9,1.33s-.54,1-1.37,1.22a22.79,22.79,0,0,1-3,.25c-3.38,0-4.21-.32-4.21-1.62V3.92h-3.17V5.08c0,6.4-1.15,9.46-4.61,12.23l2.06,0c1.29,0,2.19.07,2.66.07h5l1.3-1.87,2.77,2.77a1.14,1.14,0,0,1,.4.76c0,.43-.33.65-.94.75l-.86.15a27.7,27.7,0,0,1-4,6c1.41,1.29,5,2.73,8.54,3.42-1.3.61-1.87,1.19-3.28,3.2a21.68,21.68,0,0,1-7.09-4.79l-.54.44a22.87,22.87,0,0,1-7.1,3.92,16.57,16.57,0,0,1-3.53.94.32.32,0,0,1-.32-.29c0-.15.14-.29.47-.43a24,24,0,0,0,9.4-6.56,18.16,18.16,0,0,1-2.74-7.41l-1.84.07-.64-1c-.36.33-.58.44-.73.44s-.17-.11-.17-.22,0-.14.17-.36a7.18,7.18,0,0,0,1-1.66h-2.91v5.37h.46Zm-6.91,7.78a26.34,26.34,0,0,1-5.94,4.75,12.65,12.65,0,0,1-2.56,1.37.19.19,0,0,1-.22-.22c0-.07,0-.14.18-.25a32.46,32.46,0,0,0,7-9.07l2.7,1.8a.78.78,0,0,1,.44.68c0,.43-.22.65-.76.76Zm-4.65-10.84a38.61,38.61,0,0,1-.47,5.37h2.34V15.69Zm.11-7.23h9.25V4h-9.25Zm6.7,12.6V15.69h-2.23v5.37Zm3.49,3.45a4,4,0,0,1,2.09,3.39,1.75,1.75,0,0,1-1.8,1.83c-.79,0-1.19-.47-1.73-2-.79-2.34-1.26-3.14-2.48-4-.18-.14-.26-.21-.26-.32a.29.29,0,0,1,.29-.29A12.68,12.68,0,0,1,136.05,24.51Zm5.33-6.12a14.32,14.32,0,0,0,3,5.8,27.85,27.85,0,0,0,3.28-5.8Z"/><path class="cls-2" d="M161.12,29.41h1.47c2,0,2.67-1.05,2.7-4.07V7.67c.07-2-1-2.92-3.49-2.88h-.61v-1h12.53v1H173c-2.7,0-3.42.57-3.42,2.91V25.56c0,3.27.39,3.81,3.27,3.85h.8v.9H161.12Z"/><path class="cls-2" d="M180.74,3.82H205.3l.43,9.75h-1.11c-1-3.89-1.52-5.29-2.31-6.37a5.17,5.17,0,0,0-4.54-2.3,2.68,2.68,0,0,0-2.08.68c-.51.5-.54.72-.54,3.24V25.88c-.11,2.66.75,3.49,3.67,3.46h.83v1H186.29v-1h.83c3.09-.08,3.7-.72,3.74-4.07V8c0-1.55-.11-2.12-.5-2.52a3.08,3.08,0,0,0-2-.57,5.81,5.81,0,0,0-5.4,3.59,22.08,22.08,0,0,0-1.62,5.08H180.2Z"/><path class="cls-2" d="M211.78,29.3c2.7-.11,3.42-.65,4.47-3.35l8.53-23.18h1.88l8.75,23c.93,2.41,2,3.49,3.52,3.56h.8v1H227.81v-1h.61c1.76,0,2.63-.5,2.63-1.51a7.48,7.48,0,0,0-.58-2.38l-1.26-3.6h-10l-1.45,3.75a4.8,4.8,0,0,0-.39,1.8c0,1.33,1,1.94,3.35,1.94H221v1h-9.26Zm17-8.68-4.5-12.74-4.72,12.74Z"/><path class="cls-2" d="M245.6,29.23h.68c3-.11,3.35-.76,3.31-5.62V7.23c0-1.58-1.15-2.52-3.06-2.44l-.79,0V3.82h12.43A15.85,15.85,0,0,1,266.3,5.9c3.86,2.34,5.8,6,5.8,11,0,4.75-1.73,8.6-4.9,10.9-2.34,1.73-5.29,2.49-9.47,2.49H245.6ZM254,25.74c0,2.59.87,3.45,3.43,3.45A11.7,11.7,0,0,0,262.63,28c2.88-1.54,4.36-5.29,4.36-11,0-5-1.23-8.28-3.93-10.3A9.17,9.17,0,0,0,257.52,5c-1.7,0-2.78.43-3.21,1.29-.25.47-.29.69-.29,2.7Z"/><path class="cls-2" d="M278.33,29.3c2.7-.11,3.42-.65,4.47-3.35l8.53-23.18h1.87l8.76,23c.93,2.41,2,3.49,3.52,3.56h.8v1H294.36v-1H295c1.76,0,2.63-.5,2.63-1.51a7.48,7.48,0,0,0-.58-2.38l-1.26-3.6H285.71l-1.44,3.75a4.8,4.8,0,0,0-.39,1.8c0,1.33,1,1.94,3.35,1.94h.36v1h-9.26Zm17-8.68-4.5-12.74-4.72,12.74Z"/><path class="cls-2" d="M312.25,29.37h.94c2-.07,2.95-1,3-2.95v-19c-.07-1.66-1.22-2.63-3.1-2.59h-.93v-1h12.24v1h-.94c-2.08,0-2.91.68-2.95,2.41V18.61L330.44,8.1a3.37,3.37,0,0,0,1.08-1.94c0-.91-1-1.37-2.88-1.37h-.86v-1h11.16v1a7,7,0,0,0-5.76,2.48l-5.73,5.87,9.33,14.07A4.92,4.92,0,0,0,341,29.37v.94H328.28v-.94h1.44c1.3,0,2.16-.47,2.16-1.15a2.85,2.85,0,0,0-.5-1.37l-6.81-10.69-4.07,4.18V27c0,1.55,1.12,2.34,3.31,2.34h.47v.94h-12Z"/><path class="cls-2" d="M347.11,29.41h1.48c2,0,2.66-1.05,2.7-4.07V7.67c.07-2-1-2.92-3.49-2.88h-.61v-1h12.53v1H359c-2.7,0-3.42.57-3.42,2.91V25.56c0,3.27.39,3.81,3.27,3.85h.8v.9H347.11Z"/></g></g></g></svg>