<svg xmlns="http://www.w3.org/2000/svg" width="450.875" height="31.875" viewBox="0 0 450.875 31.875">
  <defs>
    <style>
      .cls-1 {
        fill: #333;
        fill-rule: evenodd;
      }
    </style>
  </defs>
  <path id="ホンダコレクションホール" class="cls-1" d="M54.29,682.581a1.221,1.221,0,0,1-.684,1.332,14.81,14.81,0,0,1-2.52-1.332,1.344,1.344,0,0,0-.612-0.324,0.316,0.316,0,0,0-.216.252,0.8,0.8,0,0,0,.288.432,8.242,8.242,0,0,1,2.736,4.823c0.108,0.612.252,0.756,0.828,0.756a2.942,2.942,0,0,0,2.232-1.26,4.537,4.537,0,0,0,1.008-2.771c0-.576-0.036-1.584-0.072-2.628-0.18-4.355-.288-9.07-0.252-11.157a35.043,35.043,0,0,1,5.077-.324,38.564,38.564,0,0,1,4.069.252,10.383,10.383,0,0,0,1.26.108,1.144,1.144,0,0,0,1.3-1.044c0-.864-2.3-2.339-3.636-2.339a2.289,2.289,0,0,0-.936.251c-1.692.792-3.06,1.08-7.021,1.512,0.072-2.483.18-3.131,0.612-4.067a2.238,2.238,0,0,0,.216-0.756c0-.36-0.324-0.72-1.476-1.584a3.934,3.934,0,0,0-2.268-1.043c-0.792,0-2.268.612-2.268,0.971,0,0.144.108,0.216,0.432,0.216,1.368,0.108,1.728,1.044,1.836,4.967,0,0.252.036,0.9,0.072,1.692-4.213.468-6.229,0.648-7.705,0.648-2.2,0-3.024-.252-3.636-1.188a0.649,0.649,0,0,0-.4.684c0,1.368,2.2,3.563,3.564,3.563a1.628,1.628,0,0,0,.864-0.36,20.815,20.815,0,0,1,7.345-1.835Zm-5.4-7.342c-0.144,0-.18.036-0.252,0.216-0.612,2.339-2.628,4.391-5.581,5.722a1.485,1.485,0,0,0-1.008,1.44,1.854,1.854,0,0,0,1.8,1.8c1.188,0,2.736-.972,3.925-2.448a7.084,7.084,0,0,0,1.584-4.679C49.358,675.851,49.214,675.239,48.89,675.239Zm11.738-.792c-0.612,0-1.008.144-1.008,0.36,0,0.108.072,0.18,0.4,0.288,2.3,0.936,4.285,3.419,5.185,6.514,0.432,1.476.972,2.052,1.872,2.052a1.991,1.991,0,0,0,1.98-2.2C69.053,677.938,64.876,674.447,60.627,674.447Zm23.986-9.826c-1.3,0-2.2.18-2.2,0.468,0,0.108.108,0.18,0.4,0.252a10.5,10.5,0,0,1,5.257,4.823c0.5,1.08.828,1.368,1.548,1.368a1.984,1.984,0,0,0,1.98-1.908C91.6,667.141,88.106,664.621,84.614,664.621Zm23.115,0.108a0.964,0.964,0,0,0-.54.432,79.634,79.634,0,0,1-12.134,11.661c-3.925,3.1-7.273,4.859-9.217,4.859a2.921,2.921,0,0,1-2.124-.863c-0.18-.36-0.216-0.36-0.324-0.36-0.288,0-.5.683-0.5,1.439,0,0.792.5,1.548,1.872,2.844a4.72,4.72,0,0,0,2.52,1.511,1.025,1.025,0,0,0,.5-0.216c0.252-.179.468-0.395,0.684-0.575a4.113,4.113,0,0,1,.684-0.469,54.05,54.05,0,0,0,15.339-13.928c1.512-2.052,3.492-5.507,3.492-6.083A0.306,0.306,0,0,0,107.729,664.729Zm36.48-6.478c-0.936,0-1.656.179-1.656,0.467,0,0.108.108,0.216,0.432,0.288a5.049,5.049,0,0,1,3.2,2.772,1.065,1.065,0,0,0,1.08.647,1.561,1.561,0,0,0,1.548-1.331C148.818,659.654,146.55,658.251,144.209,658.251Zm-4.464,2.267c-0.9,0-1.548.216-1.548,0.468a0.32,0.32,0,0,0,.216.216,5.62,5.62,0,0,1,3.2,2.627,1.157,1.157,0,0,0,1.152.828,1.5,1.5,0,0,0,1.512-1.367C144.281,661.886,142.049,660.518,139.745,660.518ZM133.3,677.29c-2.881,4.571-9.866,10.222-15.267,12.346-0.216.072-.288,0.144-0.288,0.252a0.245,0.245,0,0,0,.252.251,23.5,23.5,0,0,0,5.293-1.727,33.621,33.621,0,0,0,12.17-9.034,16.9,16.9,0,0,1,1.944,2.412c0.793,1.259,1.261,1.619,2.053,1.619a1.782,1.782,0,0,0,1.692-1.944c0-1.511-.972-2.771-3.529-4.679a49.266,49.266,0,0,0,4-6.478c0.36-.252.36-0.252,0.972-0.684a0.834,0.834,0,0,0,.432-0.576c0-.324-0.432-0.792-1.44-1.619-0.288-.216-0.54-0.432-0.792-0.648a3.2,3.2,0,0,0-1.62-.864,2.061,2.061,0,0,0-1.08.4,14.222,14.222,0,0,1-5.941,1.511,1.677,1.677,0,0,1-.757-0.144c1.153-2.3,1.441-2.987,1.441-3.419,0-1.224-2.449-3.059-4.141-3.059a1.966,1.966,0,0,0-1.584.432c0,0.108.072,0.144,0.4,0.288a2.635,2.635,0,0,1,1.116,2.447c0,3.6-4.141,10.906-7.957,14.037-0.648.5-.648,0.5-0.648,0.648a0.232,0.232,0,0,0,.216.216,11.673,11.673,0,0,0,3.168-1.8,24.914,24.914,0,0,0,3.889-3.635A14.992,14.992,0,0,1,133.3,677.29Zm-5.4-4.1a48.639,48.639,0,0,0,2.808-4.427,3.38,3.38,0,0,0,1.549.468,8.737,8.737,0,0,0,1.4-.18c0.648-.144,1.332-0.252,2.052-0.36a7.489,7.489,0,0,0,1.08-.216,1.24,1.24,0,0,1,.324-0.036,0.409,0.409,0,0,1,.4.432,6.474,6.474,0,0,1-.612,2.124,15.73,15.73,0,0,1-2.3,4.211A21.2,21.2,0,0,0,127.9,673.187Zm50.2,7.307c1.945-8.063,2.377-9.322,3.745-10.4a0.721,0.721,0,0,0,.4-0.612c0-.36-0.468-0.864-1.728-1.728-1.909-1.331-1.945-1.367-2.377-1.367a2.36,2.36,0,0,0-1.26.5,13.644,13.644,0,0,1-4.933,1.4,70.259,70.259,0,0,1-8.821.972c-2.232,0-3.636-.432-4.033-1.26a0.317,0.317,0,0,0-.252-0.252c-0.252,0-.4.576-0.4,1.368a3.75,3.75,0,0,0,1.729,2.519,3.689,3.689,0,0,0,1.62.757,3.084,3.084,0,0,0,.36-0.073,48.693,48.693,0,0,1,7.057-1.655c1.8-.324,3.6-0.648,3.889-0.72a14.27,14.27,0,0,1,2.772-.324,0.775,0.775,0,0,1,.864.9c0,1.044-.108,1.655-1.26,8.566l-0.252,1.62c-3.925.5-11.918,1.331-12.926,1.331a5.466,5.466,0,0,1-2.484-.5,0.446,0.446,0,0,1-.108-0.072,0.447,0.447,0,0,0-.288.432c0,1.08,2.268,3.276,3.384,3.276a1.763,1.763,0,0,0,.684-0.181,10.791,10.791,0,0,1,3.349-1.079,59.381,59.381,0,0,1,8.893-1.152,16.28,16.28,0,0,1,3.493.432,2.429,2.429,0,0,0,.612.108,0.965,0.965,0,0,0,1.008-.9c0-.756-0.684-1.332-2.233-1.943Zm25.247-1.836c0.036-4.715.432-8.53,0.936-9.322a1.505,1.505,0,0,0,.288-0.9c0-.468-0.468-1.043-1.728-1.979a4.844,4.844,0,0,0-2.7-1.152,11.422,11.422,0,0,0-2.16.432,0.416,0.416,0,0,0-.36.324c0,0.18.108,0.252,0.54,0.288,1.656,0.288,2.233,1.691,2.233,5.326,0,0.5,0,2.484.036,5.9v2.484a6.485,6.485,0,0,1-.4,2.771,1.856,1.856,0,0,0-.324.828c0,0.792,2.413,3.167,3.241,3.167a0.626,0.626,0,0,0,.5-0.324,8.152,8.152,0,0,1,3.1-2.3,42.816,42.816,0,0,0,7.057-4.679,35.623,35.623,0,0,0,8.606-9.43,20.48,20.48,0,0,0,1.62-3.059,0.382,0.382,0,0,0-.324-0.324,0.482,0.482,0,0,0-.36.288,46.091,46.091,0,0,1-8.065,8.206c-3.853,3.167-9.722,6.587-11.306,6.587-0.324,0-.432-0.109-0.432-0.469v-2.663Zm43.141-9.934a2.275,2.275,0,0,0,1.188.432,17.847,17.847,0,0,0,2.7-.576,8.143,8.143,0,0,1,1.584-.36,0.692,0.692,0,0,1,.684.72,10.538,10.538,0,0,1-1.656,4.067,40.588,40.588,0,0,1-8.137,9.862,31.172,31.172,0,0,1-9.47,5.867c-0.288.108-.4,0.18-0.4,0.324a0.27,0.27,0,0,0,.252.216,17.311,17.311,0,0,0,3.745-.972,35.272,35.272,0,0,0,12.566-8.1c2.556-2.556,3.744-4.283,7.093-10.366a9.429,9.429,0,0,1,.936-0.864,1,1,0,0,0,.432-0.576c0-.684-2.736-3.167-3.493-3.167a2.76,2.76,0,0,0-1.26.576,13.839,13.839,0,0,1-5.581,1.943,1.682,1.682,0,0,1-.612-0.108,16.05,16.05,0,0,0,1.693-3.311,3.483,3.483,0,0,0-1.549-1.8,5.374,5.374,0,0,0-2.988-1.043c-0.756,0-1.44.216-1.44,0.468,0,0.072.072,0.144,0.36,0.216a2.275,2.275,0,0,1,1.08,2.2c0,3.419-4.681,10.762-8.533,13.425-0.612.432-.684,0.468-0.684,0.648a0.232,0.232,0,0,0,.216.216,11.666,11.666,0,0,0,2.7-1.3C241.12,675.383,243.605,672.9,246.485,668.724Zm31.98-4.823c-1.548,0-3.133.324-3.133,0.648,0,0.108.072,0.18,0.324,0.252a8.336,8.336,0,0,1,5.149,4.031c0.576,1.08.792,1.26,1.548,1.26a2.021,2.021,0,0,0,2.161-1.98C284.514,665.881,281.705,663.9,278.465,663.9Zm-4.537,18.68c0,0.036,0,.036-0.036.036-0.288-.036-0.5.4-0.5,0.972a3.772,3.772,0,0,0,1.368,2.591c1.3,1.26,2.305,1.944,2.881,1.944a1.433,1.433,0,0,0,.972-0.54,4.971,4.971,0,0,1,.72-0.468A67.016,67.016,0,0,0,291,678.334a44.711,44.711,0,0,0,6.913-9.106c1.08-1.943,1.476-2.807,1.476-3.2a0.28,0.28,0,0,0-.216-0.288c-0.18,0-.288.072-0.648,0.612a61.5,61.5,0,0,1-4.069,4.895,54.3,54.3,0,0,1-9.253,8.062c-4.069,2.843-6.985,4.247-8.857,4.247-1.549,0-2.161-.252-2.377-0.972h-0.036Zm0.18-11.841c-1.188,0-2.268.216-2.268,0.468,0,0.108.036,0.144,0.36,0.288a9.158,9.158,0,0,1,4.717,4.319,1.441,1.441,0,0,0,1.26,1.007,2.09,2.09,0,0,0,2.088-1.943C280.265,672.791,277.241,670.74,274.108,670.74Zm53.475,12.6-2.016.216c-8.137.936-8.209,0.936-9.506,0.936a3.372,3.372,0,0,1-1.548-.288,0.984,0.984,0,0,0-.432-0.252,0.268,0.268,0,0,0-.216.324,2.274,2.274,0,0,0,.576,1.4,3.992,3.992,0,0,0,2.052,1.655,2.322,2.322,0,0,0,.721-0.18c0.684-.288,1.368-0.54,2.016-0.756a38.7,38.7,0,0,1,8.173-1.223,10.572,10.572,0,0,1,2.232.252,4.773,4.773,0,0,0,1.225.252,0.943,0.943,0,0,0,.936-0.864,1.625,1.625,0,0,0-1.044-1.26c-0.144-.072-0.4-0.252-0.685-0.432,1.477-8.062,1.693-8.818,2.341-9.322a1.213,1.213,0,0,0,.5-0.756c0-.36-0.36-0.756-1.3-1.511-1.225-.936-1.477-1.044-1.909-1.044a1.253,1.253,0,0,0-.72.216,7.224,7.224,0,0,1-2.664,1.007c-2.268.36-9.037,1.08-10.37,1.08a2.469,2.469,0,0,1-2.16-.828,0.632,0.632,0,0,0-.4-0.324,0.948,0.948,0,0,0-.432.865c0,1.043,1.908,2.951,2.952,2.951a2.433,2.433,0,0,0,.612-0.18,16.778,16.778,0,0,1,3.637-.936,71.668,71.668,0,0,1,7.345-1.188,0.846,0.846,0,0,1,.972.864c0,0.468-.18,2.268-0.4,3.851a2.235,2.235,0,0,0-1.152-.5,4.734,4.734,0,0,0-.972.18,14.053,14.053,0,0,1-2.773.4c-0.36.036-1.62,0.144-3.492,0.36-1.908.216-2.664,0.288-3.061,0.288a2.389,2.389,0,0,1-2.016-.684,0.6,0.6,0,0,0-.324.54,3.326,3.326,0,0,0,2.52,2.376,1.8,1.8,0,0,0,.577-0.108c0.936-.324,1.044-0.36,1.584-0.5a62.872,62.872,0,0,1,8.317-1.152c0.072,0,.324,0,0.72.036Zm24.239-18.716c-1.3,0-2.2.18-2.2,0.468,0,0.108.108,0.18,0.4,0.252a10.492,10.492,0,0,1,5.257,4.823c0.5,1.08.828,1.368,1.548,1.368a1.985,1.985,0,0,0,1.981-1.908C358.807,667.141,355.314,664.621,351.822,664.621Zm23.115,0.108a0.964,0.964,0,0,0-.54.432,79.623,79.623,0,0,1-12.134,11.661c-3.924,3.1-7.273,4.859-9.217,4.859a2.923,2.923,0,0,1-2.125-.863c-0.18-.36-0.216-0.36-0.324-0.36-0.288,0-.5.683-0.5,1.439,0,0.792.5,1.548,1.873,2.844a4.72,4.72,0,0,0,2.52,1.511,1.025,1.025,0,0,0,.5-0.216c0.252-.179.468-0.395,0.684-0.575a4.11,4.11,0,0,1,.684-0.469A54.051,54.051,0,0,0,371.7,671.064c1.512-2.052,3.492-5.507,3.492-6.083A0.306,0.306,0,0,0,374.937,664.729Zm22.906,17.852a1.221,1.221,0,0,1-.684,1.332,14.811,14.811,0,0,1-2.52-1.332,1.343,1.343,0,0,0-.612-0.324,0.316,0.316,0,0,0-.216.252,0.8,0.8,0,0,0,.288.432,8.242,8.242,0,0,1,2.736,4.823c0.108,0.612.252,0.756,0.828,0.756a2.943,2.943,0,0,0,2.233-1.26,4.538,4.538,0,0,0,1.008-2.771c0-.576-0.036-1.584-0.072-2.628-0.18-4.355-.288-9.07-0.252-11.157a35.034,35.034,0,0,1,5.076-.324,38.557,38.557,0,0,1,4.069.252,10.379,10.379,0,0,0,1.26.108,1.143,1.143,0,0,0,1.3-1.044c0-.864-2.3-2.339-3.636-2.339a2.288,2.288,0,0,0-.936.251c-1.692.792-3.061,1.08-7.021,1.512,0.072-2.483.18-3.131,0.612-4.067a2.238,2.238,0,0,0,.216-0.756c0-.36-0.324-0.72-1.476-1.584a3.937,3.937,0,0,0-2.269-1.043c-0.792,0-2.268.612-2.268,0.971,0,0.144.108,0.216,0.432,0.216,1.368,0.108,1.728,1.044,1.836,4.967,0,0.252.036,0.9,0.072,1.692-4.212.468-6.229,0.648-7.705,0.648-2.2,0-3.024-.252-3.636-1.188a0.649,0.649,0,0,0-.4.684c0,1.368,2.2,3.563,3.564,3.563a1.627,1.627,0,0,0,.864-0.36,20.816,20.816,0,0,1,7.345-1.835Zm-5.4-7.342c-0.144,0-.18.036-0.252,0.216-0.612,2.339-2.628,4.391-5.58,5.722a1.486,1.486,0,0,0-1.009,1.44,1.855,1.855,0,0,0,1.8,1.8c1.188,0,2.736-.972,3.924-2.448a7.08,7.08,0,0,0,1.585-4.679C392.911,675.851,392.767,675.239,392.442,675.239Zm11.738-.792c-0.612,0-1.008.144-1.008,0.36,0,0.108.072,0.18,0.4,0.288,2.305,0.936,4.285,3.419,5.185,6.514,0.432,1.476.972,2.052,1.872,2.052a1.992,1.992,0,0,0,1.981-2.2C412.606,677.938,408.429,674.447,404.18,674.447Zm43.754-1.836a28.488,28.488,0,0,1-5.725,1.224c-2.485.288-11.45,0.828-14.186,0.828-2.881,0-4.069-.324-4.609-1.224a0.524,0.524,0,0,0-.36-0.36c-0.36,0-.54.36-0.54,1.008a3.355,3.355,0,0,0,1.3,2.915,6.463,6.463,0,0,0,3.1,1.188,1.414,1.414,0,0,0,.5-0.108c2.7-1.08,8.029-1.583,17.03-1.583,1.332,0,2.412.036,3.169,0.108,1.548,0.144,2.7.251,3.024,0.251,1.116,0,1.836-.467,1.836-1.187C452.47,674.267,450.958,673.223,447.934,672.611Zm27.011,7.271-0.577,2.015a6.163,6.163,0,0,0,1.333,2.34,1.42,1.42,0,0,0,.972.612,0.948,0.948,0,0,0,.54-0.216l0.5-.4c0.144-.072.468-0.288,1.008-0.612a34.653,34.653,0,0,0,10.766-9.9c1.548-2.231,3.456-5.795,3.456-6.478a0.278,0.278,0,0,0-.288-0.252,0.581,0.581,0,0,0-.468.468,35.392,35.392,0,0,1-3.6,4.894,36.837,36.837,0,0,1-6.733,5.9A11.261,11.261,0,0,1,477.9,680.1c-0.252,0-.4-0.288-0.4-0.756,0-.216.036-0.5,0.072-0.864,0-.252.144-1.979,0.324-4.5,0.18-2.663.288-3.671,0.36-4.391a3.123,3.123,0,0,1,.36-1.116,2.382,2.382,0,0,0,.324-0.9,2.243,2.243,0,0,0-1.044-1.295c-1.512-1.188-1.908-1.4-2.592-1.4a2.662,2.662,0,0,0-1.837.828c0,0.144.072,0.18,0.36,0.252a1.485,1.485,0,0,1,.9,1.116c0.216,0.611.252,2.483,0.252,9.358Zm-3.025-8.422a5.1,5.1,0,0,1,.252-0.792,1.554,1.554,0,0,0,.144-0.5,4.679,4.679,0,0,0-1.872-2.34,5,5,0,0,0-2.773-1.151,1.339,1.339,0,0,0-1.332.612,0.347,0.347,0,0,0,.252.251,2.827,2.827,0,0,1,1.549,2.844,23.246,23.246,0,0,1-1.837,7.594,20.965,20.965,0,0,1-7.129,9.718,0.946,0.946,0,0,0-.5.5,0.278,0.278,0,0,0,.288.252,3.391,3.391,0,0,0,1.044-.36,19.489,19.489,0,0,0,5.761-4.319,27.134,27.134,0,0,0,5.941-11.446Z" transform="translate(-42.063 -658.25)"/>
</svg>
