<svg xmlns="http://www.w3.org/2000/svg" viewBox="0 0 558.2 110.76"><defs><style>.cls-1{fill:#333;}</style></defs><title>mobipark-kids-attraction-title</title><g id="Layer_2" data-name="Layer 2"><g id="Layer_1-2" data-name="Layer 1"><path class="cls-1" d="M15.23,28.13l-.06-3.51c-.05-.59-.05-1.72-.05-3.24a17,17,0,0,1-6.64,1.41,2.93,2.93,0,0,1-2.86-1.41A2.77,2.77,0,0,1,5,19.76c0-1.08.16-1.67.43-1.67s.16.05.22.27c.16.86,1.56,1.46,3.56,1.46a13.87,13.87,0,0,0,5.94-1.3,74.71,74.71,0,0,0-.32-7.83c-.27-1.83-1-2.59-2.38-2.59a2.64,2.64,0,0,0-.65.05,1.65,1.65,0,0,1-.48.06c-.17,0-.22-.11-.22-.27,0-1,1.73-2.32,3.08-2.32,1.78,0,4.75,2,4.75,3.18a5,5,0,0,1-.27,1,9.15,9.15,0,0,0-.54,2.54A16.48,16.48,0,0,0,23.81,14l1.25,0c.48,0,1,.64,1,1.4,0,1.84-2.27,3.29-8.48,5.4-.05,2.16-.11,3.67-.11,4.91,0,.54,0,1.73.06,3,5.88-3.46,10.63-5.08,15-5.08,5.24,0,8.86,3.67,8.86,9,0,6.48-4.7,11.07-11.34,11.07-4.43,0-7.07-2.75-7.07-7.34,0-1.89.7-4,1.35-4,.16,0,.32.1.32.21a1.62,1.62,0,0,1-.16.6,14.5,14.5,0,0,0-.27,2.59,5.81,5.81,0,0,0,1.89,4,6.11,6.11,0,0,0,3.62,1.19c4.48,0,7.77-3.51,7.77-8.26,0-4.48-2.32-6.91-6.53-6.91-3.78,0-7.18,1.24-13.29,4.91v1.57c0,2.1.22,6.59.44,7.94a18.8,18.8,0,0,1,.16,2c0,1.73-2.05,3.62-4,3.62-.38,0-.54-.21-.54-.7-.11-2.81-2.64-6.48-5.45-8a16.41,16.41,0,0,0-3,2.59,1.74,1.74,0,0,1-1.29.76C2.43,40.45,0,38.07,0,36.56c0-.92.49-1.24,1.84-1.24,3.56-.11,4.53-.38,6.26-1.57.16-.11,1.19-.7,2.21-1.24l4.92-2.81Zm0,6.65c0-.33,0-.44,0-3.08a39.71,39.71,0,0,0-6.15,4.7,35.78,35.78,0,0,1,4,3.07c.64.54,1,.71,1.29.71.54,0,.81-.71.81-2.11Zm6.26-19.34c0-.27-.16-.43-1.13-1S19,13.72,17.82,13c-.16,1.52-.16,2.38-.22,5C19.93,17.23,21.49,16.15,21.49,15.44Zm12.64,1.19a2.82,2.82,0,0,1-.81.27.46.46,0,0,1-.38-.43c0-.86,3.94-2.16,6.48-2.16a9.89,9.89,0,0,1,7,2.59A7.35,7.35,0,0,1,48.28,21a2.85,2.85,0,0,1-2.87,2.64c-.54,0-.7-.27-1.08-1.94A8.73,8.73,0,0,0,41.74,18a7.91,7.91,0,0,0-4.91-1.79A10.8,10.8,0,0,0,34.13,16.63Z"/><path class="cls-1" d="M55.84,24.57c5.5.27,7.83.32,10.63.32H78.35V14.74l3.08.43a78.76,78.76,0,0,0,7.62-9.12H72.74c-2.59,0-4.48,0-8.91.21l-.7-1.78c4.8.22,6.69.27,9.61.27H89.8l2.7-2.64,4.16,3.51A1.73,1.73,0,0,1,97.42,7c0,.64-.49,1-1.62,1.08l-2.87.1a73.26,73.26,0,0,1-9.82,7.56c.59.33.86.6.86.92a1.58,1.58,0,0,1-1.08,1.19l-.65.27v6.8H96.12l3.73-3.83,4.8,3.67a1.11,1.11,0,0,1,.43.81c0,.43-.32.65-.86.65h-22V45c0,1.29-.32,1.72-1.73,2.59a5.28,5.28,0,0,1-2.43,1c-.59,0-.86-.38-.86-1.19a1.7,1.7,0,0,0-.11-.81c0-.05,0-.05-1.46-.54L70.9,44.5l.06-.81h5.88c1.41,0,1.51-.11,1.51-1.41V26.19H66.47c-2.21,0-4.15,0-10.09.27Z"/><path class="cls-1" d="M112.16,12.69c4.1.16,4.7.16,8.75.22V.22l4.26.32c.65,0,1.08.38,1.08.86a1.48,1.48,0,0,1-.75,1.19l-1.35.92v9.4H126l2.43-3.08,3.24,3.51a1.13,1.13,0,0,1,.22.54c0,.21-.11.32-.43.32h-7.29v7.18c4.1,1.19,6.53,3.35,6.53,5.89a2.11,2.11,0,0,1-2,2.32,1.69,1.69,0,0,1-1.35-.65c-.21-.27-.21-.27-1.08-3.07a5.45,5.45,0,0,0-2.1-3.08V47.52c0,.86-1.14,1.46-2.76,1.46-.38,0-.54-.16-.54-.65v-21a75.63,75.63,0,0,1-7.07,10.43c-.6.81-1,1.13-1.19,1.13a.52.52,0,0,1-.49-.43,1.53,1.53,0,0,1,.33-.81,66.45,66.45,0,0,0,8.48-23.44c-3.84.06-4.43.06-8.21.16Zm30.72,11.66h-3.07c-2.33,0-4.22.06-8.7.22l-.65-1.78c4.43.21,5.94.27,9.35.27h3.07V17.71h-3.61c-1.68,0-3.14.06-6.59.16L132,16.2c3.56.16,5,.22,7.24.22h3.61V10.91h-2.8c-2.81,0-4.65.05-8.81.21l-.54-1.78c4.32.22,5.62.27,9.35.27h7.39A52.77,52.77,0,0,0,150.23,0l4.05,2c.59.32.86.65.86,1.08s-.21.54-.65.75l-1.29.54-1.35,2c-.65.92-1.19,1.68-1.89,2.7a3.27,3.27,0,0,1-.38.54h4.7L157,6.37l3.51,3.19a1.54,1.54,0,0,1,.54.86c0,.27-.32.49-.7.49H146.12v5.51h7l2.54-2.92,3.45,3.08a1.1,1.1,0,0,1,.38.7c0,.32-.16.43-.54.43h-12.8v5.35h8.37l3.24-3.3,3.57,2.87c.54.43.75.75.75,1a.75.75,0,0,1-.75.7H146.12v2.33c1.62,3.45,2,4.15,3.68,6.21A37,37,0,0,0,156.11,26L159,28.57a1.54,1.54,0,0,1,.54.91c0,.33-.38.54-1,.65l-1.41.27L150.82,34c3.4,3.67,7,6.1,12.58,8.53a9.84,9.84,0,0,0-4.64,3.35c-5.78-4.16-9.23-8.48-12.64-15.77V43.85c0,2.16-.16,2.64-1.29,3.51a4.57,4.57,0,0,1-2.38.92c-.59,0-.86-.33-.92-1-.1-1.29-.1-1.29-.81-1.62l-4.1-1.35,0-.86,4.32.11h.17a3,3,0,0,0,1.24-.33c.38-.21.48-.43.48-1.18V36l-10,6.75-.43,1.46a1.21,1.21,0,0,1-.92.86c-.21,0-.37-.11-1-.65L127,41c5.62-2,6.92-2.54,15.93-6.65Zm-10.15,2.54c3.73.65,6.32,3.08,6.32,5.94a1.91,1.91,0,0,1-2,2.11c-1,0-1.35-.38-1.56-1.51-.71-3.68-.87-4-3-6.11ZM135,.76a9.2,9.2,0,0,1,5.13,2.48,5.09,5.09,0,0,1,2,3.46,2.15,2.15,0,0,1-1.95,2.21c-1,0-1.4-.49-1.94-2.32-.59-2.11-1.4-3.35-3.56-5.4Z"/><path class="cls-1" d="M195.8,10.48a50.79,50.79,0,0,1,.76,6.53c0,5.45-2.48,11.88-6.59,17.17-3.13,4-6.05,6-8.85,6a4.84,4.84,0,0,1-3.73-2,12.61,12.61,0,0,1-2.81-8.53c0-11.45,9.94-20.85,22-20.85,10.7,0,18.15,6.7,18.15,16.31,0,8.59-5.08,15.55-13.61,18.63a32.72,32.72,0,0,1-7.4,1.78c-.38,0-.7-.27-.7-.48s.16-.22.92-.44a24.43,24.43,0,0,0,10.2-5.34c3.89-3.35,6.16-8.86,6.16-15.07,0-5-1.57-8.64-4.64-11a14,14,0,0,0-8.37-2.81Zm-2.16.21a19.22,19.22,0,0,0-15.82,19.12c0,4,1.51,7,3.57,7,2.32,0,6.64-4.38,9.28-9.4,2.11-4.1,3.78-9.66,3.78-12.74a10.7,10.7,0,0,0-.7-3.73Z"/><path class="cls-1" d="M227.56,37.69c5.67.22,8,.27,10.63.27h11.72V31.32H239l.05,2.11c0,.75-1.45,1.56-2.86,1.56-.59,0-.81-.21-.81-.75V13l4.11,2.11h10.47V9h-11c-1.25,0-2.81.05-4.7.11l-5.29.16-.6-1.89c6,.27,8.21.32,10.59.32h11V.38l4.65.54A1.21,1.21,0,0,1,255.64,2a1.47,1.47,0,0,1-.76,1.13l-1.4.81V7.72h14.68l3.35-3.67,4.05,3.19a1.46,1.46,0,0,1,.54,1,.72.72,0,0,1-.65.76h-22v6.1h11.07l1.72-2.21,3.19,3.34a1.21,1.21,0,0,1,.43.81,1,1,0,0,1-.48.76l-1,.54V32.45c0,.92-1.13,1.62-2.7,1.62-.7,0-1-.21-1-.64V31.32H253.48V38h14.31L271.4,34,276,37.64a1.3,1.3,0,0,1,.6,1c0,.38-.27.6-.76.6H253.48V47c0,.87-1.3,1.57-2.81,1.57-.49,0-.76-.27-.76-.86V39.26H238.19c-2.26,0-4.1.05-10.15.27Zm22.35-15.12V16.42H239v6.15Zm0,7.45V23.87H239V30Zm14.74-7.45V16.42H253.48v6.15Zm0,7.45V23.87H253.48V30Z"/><path class="cls-1" d="M316,22.19h14.58v1.73h-1c-3.08.38-4.59,1.62-6.32,5.24-2.59,5.56-3.19,6.48-5.72,9.07,2.37,2.54,3.51,3.13,5.61,3.13s3.78-.64,6.81-2.64l.91,1.62c-3.83,2.81-7.29,4.21-10.31,4.21-2.38,0-3.83-.81-6.43-3.51a19.24,19.24,0,0,1-11.77,3.56c-7.4,0-13.17-5-13.17-11.28,0-5,3.88-8.91,11.77-11.77-1.84-3.78-2.49-5.94-2.49-8.16,0-5,4.49-9.07,10.05-9.07,5,0,8.58,3.24,8.58,7.78a8.18,8.18,0,0,1-3.56,6.53c-1.84,1.19-3.13,1.78-6.91,2.92a90.5,90.5,0,0,0,9.72,15.12c3.29-3.89,4.86-7,4.86-9.51,0-2.16-1.24-3.24-3.67-3.24H316Zm-21.7,10.26c0,5.57,4.37,9.35,10.8,9.35a12.38,12.38,0,0,0,7.5-2.06,156.76,156.76,0,0,1-10.91-16.68C296.24,25.81,294.25,28.35,294.25,32.45Zm15.49-14.14a7.28,7.28,0,0,0,3.35-5.94c0-3.14-2.37-6-5-6a5.67,5.67,0,0,0-5.4,5.29c0,1.62.86,4.22,2.27,7.08.21.32.65,1.24.65,1.24A10.08,10.08,0,0,0,309.74,18.31Z"/><path class="cls-1" d="M361.37,19.33c1.78,1.08,2.91,2.32,2.91,3.08,0,.27-.16.54-.64.81-.81.54-1,.76-2.06,2.32a37.1,37.1,0,0,1-15.66,13.18A21.12,21.12,0,0,1,342,40c-.32,0-.65-.27-.65-.48s.06-.27.92-.65c3.3-1.4,7.89-5,10.8-8.21,3-3.4,5.4-7.61,5.4-9.39a3.65,3.65,0,0,0-2.21-2.7c-.27-.11-.33-.17-.33-.33,0-.32.38-.59.87-.59A13.34,13.34,0,0,1,361.37,19.33Zm17,1.08a30,30,0,0,1,7.23,7.94,11.16,11.16,0,0,1,1.52,5,2.76,2.76,0,0,1-2.76,2.86c-1,0-1.51-.64-2.21-2.86-2.38-7.45-7-13.61-12.37-16.2-.54-.16-.65-.27-.65-.48s.33-.44.65-.44C371.47,16.25,375.62,18.31,378.38,20.41Zm2.7-7.94a2,2,0,0,1-1.84,1.79c-.7,0-1.08-.27-1.51-1a10.15,10.15,0,0,0-5.45-4.54c-.22-.1-.33-.16-.33-.27s.81-.43,1.62-.43C377.35,8,381.08,10.26,381.08,12.47Zm5.67-2.91A1.94,1.94,0,0,1,385,11.45c-.76,0-1.19-.33-1.68-1.3a9.89,9.89,0,0,0-5-4.16c-.48-.16-.64-.27-.64-.43s.7-.38,1.72-.38C383,5.18,386.75,7.4,386.75,9.56Z"/><path class="cls-1" d="M425,20.36c2.76,1.24,2.76,1.24,2.76,1.78a1.91,1.91,0,0,1-.22.76,12,12,0,0,0-.48,4.32l.1,5.5v6.16l.06,3.73c.05.7.05,1.35.05,1.78,0,1.4-.48,2.21-1.29,2.21-1.62,0-3.51-1.4-3.51-2.64a4.25,4.25,0,0,1,.16-1A173.91,173.91,0,0,0,424,24.25a5.58,5.58,0,0,0-.64-3.19,69.09,69.09,0,0,1-14,11.12,24.15,24.15,0,0,1-6,2.54c-.21,0-.54-.21-.54-.43s.11-.27.54-.43C411.8,30,428.49,12.91,428.49,8.15c0-.54-1-1.51-1.78-1.67-.49-.11-.6-.22-.6-.43,0-.38,1.14-.76,2.22-.76,2,0,6.1,2.92,6.1,4.38,0,.37-.16.54-.65.81a3.88,3.88,0,0,0-1.94,1.62A90.34,90.34,0,0,1,424.33,20Z"/><path class="cls-1" d="M462.73,44.55A56.32,56.32,0,0,0,479.3,32.94a45,45,0,0,0,9.4-12.69,19.05,19.05,0,0,0,2-4.81,1.26,1.26,0,0,0-1.3-1.18c-.21,0-.59.05-1,.1-.17.06-1.3.27-2.43.44-.92.16-1.68.27-2.11.32a4.6,4.6,0,0,1-1.08.16,4.26,4.26,0,0,1-2.11-.75,53.1,53.1,0,0,1-8.91,10.85c-2.59,2.38-6.15,4.81-7,4.81-.32,0-.59-.17-.59-.38,0-.38.11-.49,1.46-1.46,2.27-1.57,5.88-5.72,8.85-10.1,2.27-3.45,3.68-6.53,3.68-8.31a3.45,3.45,0,0,0-2-3.35c-.22-.06-.38-.22-.38-.33,0-.27.59-.48,1.46-.48A6.43,6.43,0,0,1,481,7.13c1.94,1.29,2.37,1.73,2.37,2.48,0,.33-.05.43-.37.81a10.44,10.44,0,0,0-.92,1.35c-.38.87-.54,1.14-.76,1.57a3.69,3.69,0,0,0,1.3.21,34.35,34.35,0,0,0,6.48-1.18,10.07,10.07,0,0,0,2.05-1c.92-.59,1.24-.7,1.57-.7.59,0,1.29.43,3.13,2,1.62,1.35,1.83,1.57,1.83,2.05s-.21.65-.81.87a14.51,14.51,0,0,0-1.72.75c-7.67,15.34-16.8,23.87-31.32,29.22a3.84,3.84,0,0,0-.76.27,3,3,0,0,1-.49.1c-.43,0-1-.43-1-.81,0-.16.11-.27.76-.43Z"/><path class="cls-1" d="M539.24,10.48A50.79,50.79,0,0,1,540,17c0,5.45-2.48,11.88-6.59,17.17-3.13,4-6,6-8.85,6a4.84,4.84,0,0,1-3.73-2A12.61,12.61,0,0,1,518,29.65C518,18.2,528,8.8,540.05,8.8c10.7,0,18.15,6.7,18.15,16.31,0,8.59-5.08,15.55-13.61,18.63a32.72,32.72,0,0,1-7.4,1.78c-.38,0-.7-.27-.7-.48s.16-.22.92-.44a24.43,24.43,0,0,0,10.2-5.34c3.89-3.35,6.16-8.86,6.16-15.07,0-5-1.56-8.64-4.64-11a14,14,0,0,0-8.37-2.81Zm-2.16.21a19.22,19.22,0,0,0-15.82,19.12c0,4,1.51,7,3.57,7,2.32,0,6.64-4.38,9.28-9.4,2.11-4.1,3.78-9.66,3.78-12.74a10.7,10.7,0,0,0-.7-3.73Z"/><path class="cls-1" d="M113.51,84.25a5.4,5.4,0,0,1-.7.38,54.24,54.24,0,0,1-8.64,17.82A28.21,28.21,0,0,1,96,109.9a6.21,6.21,0,0,1-2.22.86.53.53,0,0,1-.54-.43c0-.16.06-.21.65-.65a29.25,29.25,0,0,0,9.72-11.28,39.66,39.66,0,0,0,3.67-9.94,30.93,30.93,0,0,0,.92-5.24,1.77,1.77,0,0,0-1.46-2c-.16-.06-.27-.17-.27-.27,0-.33.49-.65,1-.65,1.35,0,3.61,1.19,5.72,3C117.07,81,121,77.45,121,76.2c0-.64-1-1-3-1a110.78,110.78,0,0,0-11.66,1.4,43.33,43.33,0,0,0-8.75,2.49c-1,.48-1.19.54-1.46.54-1.13,0-3-1.25-4-2.65-.64-1-.75-1.24-.86-3.13V73.5a.48.48,0,0,1,.49-.48c.21,0,.27,0,.48.48.38,1,2.32,2,3.84,2,.43,0,1.08-.06,1.94-.11.49,0,1.62-.16,3.35-.27s3.24-.22,3.78-.27c1.94-.22,3.89-.49,5.88-.7,8-.87,8.43-.92,11.45-1.84a5.36,5.36,0,0,1,.81-.11c.76,0,1.73.81,3.35,2.81.59.76,1,1.24,1.19,1.46.75.76.92,1,.92,1.57s-.38.86-1.19.91c-2.86.27-3.67.54-7.13,2.27-2,1-2.54,1.19-5.35,2.43Z"/><path class="cls-1" d="M163.62,85.6c0,9.67.16,14.8.43,18.41.11,1.14.16,1.95.16,2.43,0,2.27-.81,4-1.94,4s-2.86-2.43-2.86-3.78a7.31,7.31,0,0,1,.16-1.41c.43-3,.86-15,.86-25.76,0-5.07-.21-6.91-.86-8A2.7,2.7,0,0,0,157,70.1c-.38,0-.54-.16-.54-.48s.16-.38.48-.54a15.57,15.57,0,0,1,3.3-.87c.81,0,1.56.38,3.94,1.89.7.49,1,.87,1,1.24a3,3,0,0,1-.27,1c-.87,1.46-1.19,4-1.3,10A23.18,23.18,0,0,1,175,85.92c2.92,2,4.27,3.73,4.27,5.46A2.21,2.21,0,0,1,177,93.75c-1.19,0-1.78-.48-3.13-2.53a19.38,19.38,0,0,0-10.21-7.94Z"/><path class="cls-1" d="M219.78,105.09c-3.94,2.27-8.86,4.11-11,4.11-.48,0-.86-.27-.86-.54s.11-.33.43-.38a37.93,37.93,0,0,0,11.18-5.72c4.86-3.73,8.42-7.62,10.58-11.72,1.95-3.57,2.81-5.67,2.81-6.75,0-.92-.59-1.41-1.73-1.41a95.76,95.76,0,0,0-9.5,1.25,69.71,69.71,0,0,0-9.4,2.43,2,2,0,0,1-.86.21c-.65,0-1.78-.7-3.08-1.89a5.42,5.42,0,0,1-1.4-3.56c0-.43.16-.7.48-.7s.22,0,.33.37c.32,1.08,2.37,1.95,4.48,1.95.86,0,.86,0,7.4-.65,4.37-.49,7-.76,7.77-.86a18,18,0,0,0,6.05-1.68,3.44,3.44,0,0,1,1-.27c1,0,4.92,3.08,4.92,3.89,0,.49-.22.7-2,2C231.88,95.7,227.61,100.5,219.78,105.09Zm-7.94-34c.54.81,1.78,1.19,3.78,1.19,3.94,0,10.1-1.08,12.69-2.21a3.64,3.64,0,0,1,1.68-.49c.54,0,1,.22,2.64,1.08,1.14.6,1.51,1,1.51,1.51s-.48.87-2.48,1.08c-2.75.33-2.86.33-7.07,1.08a52.78,52.78,0,0,1-8.16,1,4.3,4.3,0,0,1-4.1-2A9.33,9.33,0,0,1,211.25,71c0-.11.11-.27.21-.27S211.63,70.75,211.84,71.07Z"/><path class="cls-1" d="M262.39,108.55A56.32,56.32,0,0,0,279,96.94a45,45,0,0,0,9.4-12.69,19.05,19.05,0,0,0,2-4.81,1.26,1.26,0,0,0-1.3-1.18c-.21,0-.59,0-1,.1-.17.06-1.3.27-2.43.44-.92.16-1.68.27-2.11.32a4.6,4.6,0,0,1-1.08.16,4.26,4.26,0,0,1-2.11-.75,53.1,53.1,0,0,1-8.91,10.85c-2.59,2.38-6.15,4.81-7,4.81-.32,0-.59-.17-.59-.38,0-.38.11-.49,1.46-1.46,2.27-1.57,5.88-5.72,8.85-10.1,2.27-3.45,3.68-6.53,3.68-8.31a3.45,3.45,0,0,0-2-3.35c-.22-.06-.38-.22-.38-.33,0-.27.59-.48,1.46-.48a6.43,6.43,0,0,1,3.78,1.35c1.94,1.29,2.37,1.73,2.37,2.48,0,.33-.05.43-.37.81a10.44,10.44,0,0,0-.92,1.35c-.38.87-.54,1.14-.76,1.57a3.69,3.69,0,0,0,1.3.21,34.35,34.35,0,0,0,6.48-1.18,10.07,10.07,0,0,0,2.05-1c.92-.59,1.24-.7,1.57-.7.59,0,1.29.43,3.13,2,1.62,1.35,1.83,1.57,1.83,2s-.21.65-.81.87a14.51,14.51,0,0,0-1.72.75c-7.67,15.34-16.8,23.87-31.32,29.22a3.84,3.84,0,0,0-.76.27,3,3,0,0,1-.49.1c-.43,0-1-.43-1-.81,0-.16.11-.27.76-.43Z"/><path class="cls-1" d="M327.24,84.3c2.05,1.35,3,2.6,3,4.22a2.29,2.29,0,0,1-2.16,2.21c-.86,0-1.35-.38-1.84-1.3a12.33,12.33,0,0,0-6.8-6c-.32-.11-.49-.22-.49-.38s.87-.54,1.95-.54A13.48,13.48,0,0,1,327.24,84.3Zm-.65,22.52c-1,0-3.08-1.35-4.16-2.7a5.79,5.79,0,0,1-1.45-3.18,7.26,7.26,0,0,1-.06-1.14c0-.54.16-.81.49-.81.16,0,.27.06.7.7a4,4,0,0,0,3.83,2.06c1.84,0,5.13-1.46,9.29-4.16a110.13,110.13,0,0,0,16.58-14.26,53.9,53.9,0,0,0,5.78-7.18c.43-.65.65-.86.86-.86s.38.32.38.59c0,1-2.65,5.56-5.29,9a78.86,78.86,0,0,1-23.28,19.82c-1.78,1-2.53,1.45-2.64,1.56A1.24,1.24,0,0,1,326.59,106.82Zm7.13-32.56c2,1.24,3,2.59,3,4.32a2.43,2.43,0,0,1-2.32,2.54c-.92,0-1.24-.27-1.83-1.46a12,12,0,0,0-7.94-6.1c-.38,0-.54-.11-.54-.33,0-.43,1-.7,2.59-.7A15.63,15.63,0,0,1,333.72,74.26Z"/><path class="cls-1" d="M403.6,90.3c.1-.87.16-1.51.16-1.62,0-.81-.87-1.46-2-1.46a143.49,143.49,0,0,0-16,2.48,6.94,6.94,0,0,1-2.22.49,5.22,5.22,0,0,1-3.13-1.73,3.9,3.9,0,0,1-1-2.48c0-.6.21-1,.54-1,.16,0,.21,0,.32.43.33,1,1.84,1.51,4.7,1.51,1.94,0,9.45-.76,16.25-1.67a10.46,10.46,0,0,0,1.79-.76c1.13-.65,1.4-.76,1.78-.76,1.08,0,4.8,3,4.8,3.89,0,.27-.05.33-.81.87-1.4,1.13-1.89,2.8-4.1,15,2.16.81,3,1.46,3,2.37,0,.49-.27.87-.65.87a7.11,7.11,0,0,1-.75-.11,25.09,25.09,0,0,0-5.51-.76,62.72,62.72,0,0,0-14.15,2.22,4.41,4.41,0,0,1-1.94.48c-1.3,0-4.16-2.7-4.16-3.94a.34.34,0,0,1,.32-.32c.06,0,.33.11.54.16a9.64,9.64,0,0,0,3.3.65c.32,0,.81-.06,1.35-.11l4.53-.32c5.94-.49,9.07-.81,11.45-1.08l.86-7.13a14.6,14.6,0,0,0-2-.11,97.48,97.48,0,0,0-14.58,1.84,7.46,7.46,0,0,1-1.68.32,4,4,0,0,1-3-2.32,3.71,3.71,0,0,0-.21-.6,1.91,1.91,0,0,1-.11-.43.34.34,0,0,1,.27-.27c.16,0,.21.06.54.27a3.25,3.25,0,0,0,2.27.7c.75,0,.75,0,4.86-.32,2.1-.16,4.21-.38,6.26-.54a13.8,13.8,0,0,0,4.7-.86A2.43,2.43,0,0,1,401,94c.43,0,.54.06,2.11,1.25Z"/><path class="cls-1" d="M449,81.12a2.26,2.26,0,0,1-2.49,2.32c-.7,0-1.08-.27-1.62-1.24a11.86,11.86,0,0,0-8.31-6.64c-.33-.11-.49-.22-.49-.38,0-.38,1-.65,2.54-.65C443.77,74.53,449,77.82,449,81.12Zm-7,24c-.81,0-2.6-1.29-3.89-2.8a4,4,0,0,1-1.35-3.41c0-1,.27-1.83.65-1.83.21,0,.32.11.43.38a3.81,3.81,0,0,0,3.24,2.75c2.21,0,8.75-4.05,16.58-10.26a106.45,106.45,0,0,0,10.09-9c1.08-1.08,4-4.43,4.54-5.07s.65-.87.92-.87a.44.44,0,0,1,.43.49c0,.86-2.38,4.53-5.08,7.83A84,84,0,0,1,457,94.94a82.88,82.88,0,0,1-12.85,8.86C443.07,104.72,442.48,105.09,441.94,105.09Z"/></g></g></svg>