<svg xmlns="http://www.w3.org/2000/svg" viewBox="0 0 565.99 34.02"><defs><style>.cls-1{isolation:isolate;}.cls-2{fill:#333;}</style></defs><title>mobipark-dokidoki-title</title><g id="Layer_2" data-name="Layer 2"><g id="Layer_1-2" data-name="Layer 1"><g class="cls-1"><path class="cls-2" d="M11,23.36a9.87,9.87,0,0,1,3.1.79,3.63,3.63,0,0,1,2.23,3,1.5,1.5,0,0,1-1.59,1.51c-.75,0-.93-.18-1.72-1.94a6.38,6.38,0,0,0-2-2.59V32a.94.94,0,0,1-.69,1,3.41,3.41,0,0,1-1.47.36c-.61,0-.87-.22-.87-.76V25.74a28.59,28.59,0,0,1-5.36,4.5,9.69,9.69,0,0,1-2.38,1.4A.27.27,0,0,1,0,31.39c0-.18.18-.4.65-.83A26.14,26.14,0,0,0,7.74,21h-2c-.4,0-1,0-1.76,0l-2.27.07L.9,19.87c1.33,0,2.56.07,3,.11.9,0,1.51,0,1.8,0H8V14.9l3.61.36a.78.78,0,0,1,.72.76c0,.29-.15.47-.54.68l-.76.36v3H12.1l1.8-2.26,2.56,2.12a.8.8,0,0,1,.36.61.5.5,0,0,1-.54.5H11ZM32.19,5.65a.66.66,0,0,1,.29.5.44.44,0,0,1-.47.47H19.27C22.43,9.83,28.38,12.38,34.1,13a8.36,8.36,0,0,0-3.74,3.06A23.75,23.75,0,0,1,18.83,7.34v8.21c0,.43-.14.65-.64.79a7,7,0,0,1-1.81.36c-.46,0-.71-.25-.71-.75V9.32a43,43,0,0,1-8.61,5.51A28.25,28.25,0,0,1,1.48,17.1a.28.28,0,0,1-.29-.25c0-.18.14-.33.47-.47A37.92,37.92,0,0,0,13.83,6.62H10.12c-2,0-3.17,0-6.23.18L3.06,5.47l4,.11c1.26,0,2.34.07,3,.07h5.55V.4l3.7.28a.74.74,0,0,1,.72.65,1,1,0,0,1-.46.76l-.8.46v3.1h7.82L29,2.92Zm1.73,14.4a.83.83,0,0,1,.29.5.43.43,0,0,1-.47.43h-7c1.4,2.78,4,5.12,8,7.13a7,7,0,0,0-3,2.92,20.43,20.43,0,0,1-5.26-7.92v9.25c0,.54-.18.76-.72.93a5.67,5.67,0,0,1-1.77.33c-.46,0-.65-.22-.65-.76v-7.2a30.9,30.9,0,0,1-6.12,4.79,10.64,10.64,0,0,1-3,1.51.24.24,0,0,1-.25-.25c0-.21,0-.25,1.15-1.15a27.93,27.93,0,0,0,8-9.58h-.83c-1,0-1.94,0-4.25.11l-.54-1.22c1.48.07,2.85.11,4.79.14h1V14.87l3.53.46a.64.64,0,0,1,.62.62.75.75,0,0,1-.4.64L26.4,17v3h2.52l2-2.44Z"/><path class="cls-2" d="M46.46,7.05c0,8.64-.8,12.6-3,16-1,1.62-2.7,3.49-3.06,3.49-.15,0-.26-.11-.26-.18s.08-.25.33-.65c2-3.06,2.88-7.49,2.88-14.94,0-1.91,0-3.2-.15-6.15l3.53,1.47H58.38C58.19,4.39,58.05,2.3,58,0l3.43.32a.67.67,0,0,1,.61.62.88.88,0,0,1-.47.75l-.68.43v.65c0,.94.07,2,.18,3.31h6.59L69.9,3.49l2.77,2.3a.8.8,0,0,1,.33.58c0,.4-.37.68-.87.68H61.18a29.23,29.23,0,0,0,2.2,8.07,28.74,28.74,0,0,0,2.74-6.34l3.09,1.77a.84.84,0,0,1,.44.68c0,.25-.29.47-.8.61l-.61.18a27.26,27.26,0,0,1-3.6,5.47c1.12,1.73,3.64,3.6,4.86,3.6.58,0,1.41-1.26,2.74-4.21.32-.76.32-.76.47-.76a.3.3,0,0,1,.29.33A20.18,20.18,0,0,1,72.53,19a13.67,13.67,0,0,0-.26,2.08,1.21,1.21,0,0,0,.36.76c.73.83.94,1.19.94,1.58,0,.79-.83,1.37-1.94,1.37a12.48,12.48,0,0,1-6-2.27,10.84,10.84,0,0,1-3-2.81,27.9,27.9,0,0,1-5.55,3.75c1.73.93,2.56,2.09,2.56,3.53a1.58,1.58,0,0,1-1.77,1.69,1.31,1.31,0,0,1-.9-.36c-.29-.33-.29-.33-1-2.45A6.49,6.49,0,0,0,53.84,23a.63.63,0,0,1-.15-.25c0-.11.11-.14.22-.14a9.8,9.8,0,0,1,2.77.72,24,24,0,0,0,4.9-5.4C60,14.9,59.17,12,58.48,7.05Zm-.15,20.34a6.81,6.81,0,0,1-.83,3.39c-.65,1.26-1.4,1.83-2.45,1.83a1.66,1.66,0,0,1-1.83-1.47,2.59,2.59,0,0,1,.47-1.34,11.27,11.27,0,0,1,1.58-1.36,5.56,5.56,0,0,0,2.13-4.29c0-.18.07-.25.21-.25C45.92,23.9,46.31,25.88,46.31,27.39ZM56.14,8.28l2,1.65c.36.29.47.47.47.72a.51.51,0,0,1-.54.47h-11v-1h7.38ZM50.52,21.42c0,.5-1,1-2.12,1-.47,0-.61-.14-.61-.54v-9.5l2.91,1.37H55l1.12-1.62,2.3,2.16a1.09,1.09,0,0,1,.43.79.72.72,0,0,1-.46.61l-.47.18v4.18c0,.57-1.16,1.12-2.45,1.12-.25,0-.4-.11-.4-.33V19.69H50.52Zm1.7,2.37a.71.71,0,0,1,.68.65.91.91,0,0,1-.61.79l-.43.18v4.11c0,.54.07.79.25.86a30.89,30.89,0,0,0,3.82.14c4.32,0,5.4-.18,6.08-1.08a28.46,28.46,0,0,0,2.09-3.63c.11-.18.14-.22.22-.22s.14.07.14.22,0,.65-.29,3.17v.32c0,.18,0,.25.22.36,1.19.68,1.48,1,1.48,1.55,0,.79-.83,1.26-2.63,1.55a76.52,76.52,0,0,1-9.4.28c-4.61,0-4.94-.14-4.94-2.23V23.54Zm2.84-5.07v-4H50.52v4ZM64.78,1.26c1.84.43,3,1.4,3,2.48a1.45,1.45,0,0,1-1.33,1.59A1.56,1.56,0,0,1,65.54,5c-.32-.22-.32-.22-1.12-1.8a4.49,4.49,0,0,0-1.65-1.76.47.47,0,0,1-.18-.22c0-.14.21-.22.57-.22A6.83,6.83,0,0,1,64.78,1.26ZM69.39,26c2.31,1.16,3.53,2.6,3.53,4.22a1.72,1.72,0,0,1-1.65,1.9,1.78,1.78,0,0,1-1.19-.46c-.29-.29-.29-.29-1.23-2.31a12.34,12.34,0,0,0-3.09-4c-.22-.18-.29-.29-.29-.36s.14-.22.29-.22A18.6,18.6,0,0,1,69.39,26Z"/><path class="cls-2" d="M85.46,9.47c0,.46,0,.72,0,1,0,2.45-1.33,4.18-3.28,4.18A1.68,1.68,0,0,1,80.45,13c0-.76,0-.79,1.76-2.38A5.66,5.66,0,0,0,84.05,6.3c0-.25.14-.4.33-.4s.28.11.36.36c.32,1,.5,1.84.57,2.2H101A46.6,46.6,0,0,0,103.5.18l3.81,2.27a1,1,0,0,1,.58.79c0,.39-.29.68-.83.86l-.57.15-.87.9c-1.76,1.94-1.91,2.05-3.13,3.31h5.69l1.55-2.38,3.35,3.82a1.68,1.68,0,0,1,.43,1c0,.54-.47.83-1.34.83l-1.4,0a20.79,20.79,0,0,0-2,1c-.4.21-.76.43-1.12.65a2.38,2.38,0,0,0-.36.18,1.14,1.14,0,0,1,.33.68c0,.22-.22.43-.61.65l-.65.32V25a.9.9,0,0,1-.61.94,5,5,0,0,1-1.81.43c-.54,0-.82-.25-.82-.72v-1.3h-1.91v5c0,.9.14,1,2.48,1,3.68,0,4.76-.1,5.26-.61s.79-1.15,2.16-4.75c.25-.68.29-.76.5-.76s.22.11.22.29,0,.94,0,2.09c-.08,1.91-.08,1.91-.08,2.34s.08.68.72,1.15a1.45,1.45,0,0,1,.76,1.23c0,1.54-1.87,2-8.5,2a29.86,29.86,0,0,1-5.36-.35,1.61,1.61,0,0,1-1.19-1.8V24.33H95.93c-1.22,4.54-2.41,6.19-5.65,7.74A20.4,20.4,0,0,1,84,33.76c-.9.11-2.37.26-2.66.26s-.4-.08-.4-.26.22-.32,1-.47c6.08-1.33,9.94-4.6,10.51-9H89.88v1.59a.89.89,0,0,1-.57.86,5.7,5.7,0,0,1-1.84.4.66.66,0,0,1-.72-.69V10.76l3.49,1.62H103l1.4-2,2.49,2.7a22.36,22.36,0,0,0,1.51-3.63Zm4.06-7.24a4.92,4.92,0,0,1,2.6,3.82A2,2,0,0,1,90.24,8.1c-.82,0-1.29-.51-1.54-1.66a9.3,9.3,0,0,0-2.24-4.75c-.14-.14-.18-.21-.18-.29a.25.25,0,0,1,.26-.25A7.44,7.44,0,0,1,89.52,2.23ZM103.14,16V13.35H89.88V16Zm0,3.56V17H89.88v2.59Zm0,3.82V20.52H89.88v2.84ZM96.83,2a3.92,3.92,0,0,1,1.91,3.09,1.87,1.87,0,0,1-1.83,2.05,1.47,1.47,0,0,1-1.34-.75,16.66,16.66,0,0,1-.79-2.31A7.43,7.43,0,0,0,92.66,1c-.11-.07-.15-.14-.15-.18s.07-.18.22-.21A10.65,10.65,0,0,1,96.83,2Z"/><path class="cls-2" d="M130.51,27.57a20.28,20.28,0,0,1-5.69,4.29,3.56,3.56,0,0,1-1.23.46.19.19,0,0,1-.21-.18c0-.1.07-.21.28-.36a19,19,0,0,0,6.16-7.59c1.62-3.28,3.1-8.46,3.1-10.94a1.7,1.7,0,0,0-1.23-1.77c.11-.39.58-.65,1.27-.65a6.07,6.07,0,0,1,3.78,1.84c2.3-1.62,4.46-3.82,4.46-4.57,0-.33-.58-.54-1.44-.54a52.25,52.25,0,0,0-9.87,1.65,10.79,10.79,0,0,0-3.45,1.41c-.69.43-.9.54-1.19.54a5.75,5.75,0,0,1-2.74-1.51,3.28,3.28,0,0,1-1-2.31c0-.72.11-1.11.28-1.11s.15,0,.29.25a2.56,2.56,0,0,0,2.52,1.19c1.34,0,7.53-.65,11.6-1.19A23,23,0,0,0,142.53,5a3.12,3.12,0,0,1,.69-.14c.57,0,1.33.61,2.84,2.27,1.05,1.15,1.33,1.58,1.33,2,0,.68-.5.9-2,1a8.6,8.6,0,0,0-2.45.83c-2.55,1.22-4.53,2.19-6,2.88C135.48,19.76,133.35,24.37,130.51,27.57Z"/><path class="cls-2" d="M173.65,7.85a4.27,4.27,0,0,0,2.27-1c.65-.51.93-.69,1.26-.69s1.26.54,2.63,1.66c.79.64,1,.93,1,1.22s-.32.61-1.15,1.12A61.77,61.77,0,0,1,175,18.25a16.39,16.39,0,0,1,6.84,3.2c2.12,1.69,3.35,3.67,3.35,5.37a2.27,2.27,0,0,1-2.2,2.23c-.86,0-1.26-.43-1.94-2.09A16.7,16.7,0,0,0,174.55,19a32.55,32.55,0,0,1-5.3,5.75A28.33,28.33,0,0,1,159.71,30a8,8,0,0,1-1.76.44.3.3,0,0,1-.33-.26c0-.18.22-.32,1.19-.75a32,32,0,0,0,11.6-9.83A35.56,35.56,0,0,0,174.69,12a10.27,10.27,0,0,0,.87-2.48c0-.29-.22-.47-.58-.47a4.29,4.29,0,0,0-1.44.32,49.79,49.79,0,0,0-6.37,2.27,3.28,3.28,0,0,1-1.08.36,4.53,4.53,0,0,1-2-1.15,2.42,2.42,0,0,1-.86-1.69c0-.54.21-1.15.39-1.15s.15,0,.32.32a2.68,2.68,0,0,0,2.2.79c1,0,1.51-.07,5.3-.86Z"/><path class="cls-2" d="M203.07,23.5c0,.37.11.47.43.47,1.59,0,7.46-3.42,11.31-6.59a46.17,46.17,0,0,0,8.07-8.2c.14-.22.25-.29.36-.29a.38.38,0,0,1,.32.32,20.38,20.38,0,0,1-1.62,3.06,35.66,35.66,0,0,1-8.61,9.44,43.23,43.23,0,0,1-7.05,4.67,8.21,8.21,0,0,0-3.1,2.31.65.65,0,0,1-.51.32c-.82,0-3.24-2.37-3.24-3.17,0-.14,0-.14.33-.82a6.69,6.69,0,0,0,.39-2.78V19.76c0-3.42,0-5.4,0-5.9,0-3.64-.58-5-2.24-5.33-.43,0-.54-.11-.54-.29s.11-.25.36-.32a11.49,11.49,0,0,1,2.17-.43,4.83,4.83,0,0,1,2.7,1.15c1.26.93,1.72,1.51,1.72,2,0,.29,0,.32-.28.9-.51.79-.9,4.6-.94,9.32Z"/><path class="cls-2" d="M246.39,10.19a41.75,41.75,0,0,1-8.86,1.72c-.21,0-.32-.1-.32-.25s.11-.29.5-.39A36.55,36.55,0,0,0,247.22,7c2.2-1.37,3-2.2,3-3a.8.8,0,0,0-.32-.62c0-.18.18-.25.47-.25.5,0,1.15.29,2.84,1.33,1.12.69,1.52,1.12,1.52,1.59s-.47.83-1.95,1.51a38.12,38.12,0,0,1-4.1,1.76,7.76,7.76,0,0,0,.68.4c1.08.57,1.8,1.19,1.8,1.47a1.75,1.75,0,0,1-.11.29,11.05,11.05,0,0,0-.25,2.63c4.36-.68,5.65-1,6.77-1.51.61-.33.76-.36,1-.36.54,0,1.37.5,2.7,1.58.76.65,1.05,1,1.05,1.48a.82.82,0,0,1-.87.72c-.14,0-.39,0-.64-.07a43.13,43.13,0,0,0-4.94-.36c-1.11,0-3,.07-5.18.25-.36,5.43-2,9.32-5,12.34a16.92,16.92,0,0,1-5.72,3.6,10.08,10.08,0,0,1-2.24.69.25.25,0,0,1-.25-.26c0-.1.11-.21.36-.32,5.69-2.66,9-8.17,9.33-15.69-5.55.93-8.32,1.58-9.94,2.3a1.79,1.79,0,0,1-.9.29,5.06,5.06,0,0,1-2.85-1.48,3.34,3.34,0,0,1-.82-1.9c0-.47.14-.83.28-.83s.15,0,.33.29c.39.57,1.11.75,2.84.75a81.14,81.14,0,0,0,11.17-1C247.11,11.91,246.86,10.55,246.39,10.19Z"/><path class="cls-2" d="M279.92,19.33a1.84,1.84,0,0,1-1.66,2,1,1,0,0,1-1-.79A9.61,9.61,0,0,0,274,15.69c-.32-.21-.39-.28-.39-.43s.1-.21.46-.21C277.22,15.05,279.92,17.06,279.92,19.33Zm2.63,10.22c-2.2,1.37-6.05,2.88-7.42,2.88a.35.35,0,0,1-.36-.29c0-.18,0-.18.9-.54a28.65,28.65,0,0,0,9.9-7.66c2.85-3.42,4.79-7.63,4.79-10.48a2.36,2.36,0,0,0-.47-1.55c-.36-.32-.36-.32-.36-.39s.26-.36.58-.36a3.64,3.64,0,0,1,2.59,1.19,5.82,5.82,0,0,1,1.77,2.48c0,.25-.08.32-.69,1A29.38,29.38,0,0,1,282.55,29.55ZM285.86,17a1.92,1.92,0,0,1-1.8,2c-.61,0-.9-.36-1.15-1.33-.58-2.34-2-4.43-3.39-5.11-.18-.07-.25-.18-.25-.29s.18-.21.4-.21C282.66,12,285.86,14.58,285.86,17Z"/><path class="cls-2" d="M309.66,19.54a11.61,11.61,0,0,1-2.7,1.3.24.24,0,0,1-.21-.22c0-.17.07-.21.68-.64C311.28,17.31,316,10,316,6.55a2.26,2.26,0,0,0-1.08-2.19c-.29-.08-.36-.15-.36-.22,0-.25.68-.47,1.44-.47a5.43,5.43,0,0,1,3,1c.82.54,1.54,1.41,1.54,1.8a15.75,15.75,0,0,1-1.69,3.32,1.74,1.74,0,0,0,.61.1A13.83,13.83,0,0,0,325,8a2.85,2.85,0,0,1,1.26-.58c.76,0,3.5,2.49,3.5,3.17,0,.15-.15.33-.43.58a9.59,9.59,0,0,0-.94.86c-3.35,6.09-4.54,7.81-7.09,10.37a35.3,35.3,0,0,1-12.57,8.1,17.58,17.58,0,0,1-3.75,1c-.1,0-.25-.11-.25-.22s.11-.21.4-.32a31.18,31.18,0,0,0,9.47-5.87,40.6,40.6,0,0,0,8.14-9.86,10.53,10.53,0,0,0,1.65-4.07.7.7,0,0,0-.68-.72,7.91,7.91,0,0,0-1.59.36,17.32,17.32,0,0,1-2.7.58,2.32,2.32,0,0,1-1.19-.43C315.35,15.08,312.87,17.57,309.66,19.54Z"/><path class="cls-2" d="M337.79,29.52h.68c3-.11,3.35-.76,3.32-5.62V7.52c0-1.58-1.16-2.52-3.06-2.45l-.8,0V4.1h12.43a15.82,15.82,0,0,1,8.14,2.09c3.85,2.34,5.79,6.05,5.79,11,0,4.75-1.73,8.6-4.89,10.9-2.35,1.73-5.3,2.49-9.48,2.49H337.79Zm8.43-3.5c0,2.6.86,3.46,3.42,3.46a11.67,11.67,0,0,0,5.18-1.19c2.88-1.55,4.36-5.29,4.36-11,0-5-1.22-8.28-3.93-10.29a9.16,9.16,0,0,0-5.54-1.77c-1.69,0-2.77.44-3.21,1.3-.25.47-.28.68-.28,2.7Z"/><path class="cls-2" d="M396.49,17.24c0,8-5.73,14-13.26,14a12.74,12.74,0,0,1-8.89-3.74,14,14,0,0,1-3.92-10.29,13.86,13.86,0,0,1,3.52-9.87,13.32,13.32,0,0,1,9.8-4C391.08,3.35,396.49,9.25,396.49,17.24ZM377.76,7.31c-1.62,2.26-2.34,5.36-2.34,10,0,8.28,2.81,12.78,8,12.78s7.92-4.61,7.92-13-2.77-12.64-8.1-12.64A6.56,6.56,0,0,0,377.76,7.31Z"/><path class="cls-2" d="M402.36,29.66h.93c2-.07,3-1,3-2.95v-19c-.07-1.66-1.22-2.63-3.09-2.6h-.94v-1h12.24v1h-.93c-2.09,0-2.92.69-3,2.42V18.9l9.94-10.51a3.3,3.3,0,0,0,1.08-1.95c0-.9-1-1.37-2.88-1.37h-.86v-1H429v1a7,7,0,0,0-5.76,2.49l-5.73,5.87,9.33,14.07a5,5,0,0,0,4.21,2.16v.94H418.38v-.94h1.44c1.3,0,2.16-.47,2.16-1.15a2.81,2.81,0,0,0-.5-1.37l-6.81-10.69-4.07,4.17v6.7c0,1.55,1.12,2.34,3.32,2.34h.46v.94h-12Z"/><path class="cls-2" d="M436.5,29.7H438c2,0,2.67-1.05,2.7-4.07V8c.07-2.06-1-2.92-3.49-2.89h-.61v-1H449.1v1h-.72C445.68,5,445,5.65,445,8V25.84c0,3.28.39,3.82,3.27,3.86h.8v.9H436.5Z"/><path class="cls-2" d="M454.68,29.52h.69c3-.11,3.34-.76,3.31-5.62V7.52c0-1.58-1.15-2.52-3.06-2.45l-.8,0V4.1h12.43a15.82,15.82,0,0,1,8.14,2.09c3.85,2.34,5.79,6.05,5.79,11,0,4.75-1.72,8.6-4.89,10.9-2.34,1.73-5.3,2.49-9.47,2.49H454.68Zm8.43-3.5c0,2.6.86,3.46,3.42,3.46a11.67,11.67,0,0,0,5.18-1.19c2.88-1.55,4.36-5.29,4.36-11,0-5-1.22-8.28-3.92-10.29a9.21,9.21,0,0,0-5.55-1.77c-1.69,0-2.77.44-3.2,1.3-.26.47-.29.68-.29,2.7Z"/><path class="cls-2" d="M513.38,17.24c0,8-5.73,14-13.25,14a12.76,12.76,0,0,1-8.9-3.74,14,14,0,0,1-3.92-10.29c0-4.07,1.22-7.49,3.53-9.87a13.28,13.28,0,0,1,9.79-4C508,3.35,513.38,9.25,513.38,17.24ZM494.65,7.31c-1.62,2.26-2.34,5.36-2.34,10,0,8.28,2.81,12.78,8,12.78s7.93-4.61,7.93-13-2.78-12.64-8.11-12.64A6.56,6.56,0,0,0,494.65,7.31Z"/><path class="cls-2" d="M519.25,29.66h.93c2-.07,3-1,3-2.95v-19C523.1,6,522,5,520.08,5.07h-.94v-1h12.24v1h-.93c-2.09,0-2.92.69-3,2.42V18.9l9.93-10.51a3.3,3.3,0,0,0,1.08-1.95c0-.9-1-1.37-2.88-1.37h-.86v-1h11.16v1a7,7,0,0,0-5.76,2.49l-5.72,5.87,9.32,14.07A5,5,0,0,0,548,29.66v.94H535.27v-.94h1.44c1.3,0,2.16-.47,2.16-1.15a2.81,2.81,0,0,0-.5-1.37l-6.81-10.69-4.06,4.17v6.7c0,1.55,1.11,2.34,3.31,2.34h.47v.94h-12Z"/><path class="cls-2" d="M553.39,29.7h1.47c2,0,2.67-1.05,2.71-4.07V8c.07-2.06-1-2.92-3.5-2.89h-.61v-1H566v1h-.72c-2.7,0-3.42.58-3.42,2.92V25.84c0,3.28.4,3.82,3.28,3.86h.79v.9H553.39Z"/></g></g></g></svg>