<svg xmlns="http://www.w3.org/2000/svg" viewBox="0 0 218.54 49.14"><defs><style>.cls-1{fill:#333;}</style></defs><title>mobipark-information-title</title><g id="Layer_2" data-name="Layer 2"><g id="Layer_1-2" data-name="Layer 1"><path class="cls-1" d="M15.23,28.08l-.06-3.51c-.05-.59-.05-1.73-.05-3.24a17,17,0,0,1-6.64,1.4,2.93,2.93,0,0,1-2.86-1.4A2.77,2.77,0,0,1,5,19.71C5,18.63,5.13,18,5.4,18s.16.05.22.27c.16.86,1.56,1.45,3.56,1.45a13.86,13.86,0,0,0,5.94-1.29,74.54,74.54,0,0,0-.32-7.83c-.27-1.84-1-2.59-2.38-2.59a2.64,2.64,0,0,0-.65,0,2,2,0,0,1-.48.05c-.17,0-.22-.1-.22-.27,0-1,1.73-2.32,3.08-2.32,1.78,0,4.75,2,4.75,3.19a4.8,4.8,0,0,1-.27,1,9.15,9.15,0,0,0-.54,2.54A16.32,16.32,0,0,0,23.81,14l1.25-.06c.48,0,1,.65,1,1.41,0,1.83-2.27,3.29-8.48,5.4-.05,2.16-.11,3.67-.11,4.91,0,.54,0,1.73.06,3,5.88-3.45,10.63-5.07,15-5.07,5.24,0,8.86,3.67,8.86,9,0,6.48-4.7,11.07-11.34,11.07-4.43,0-7.07-2.76-7.07-7.35,0-1.89.7-4.05,1.35-4.05.16,0,.32.11.32.22a1.58,1.58,0,0,1-.16.59,14.5,14.5,0,0,0-.27,2.59,5.83,5.83,0,0,0,1.89,4,6.17,6.17,0,0,0,3.62,1.19c4.48,0,7.77-3.51,7.77-8.26,0-4.49-2.32-6.92-6.53-6.92-3.78,0-7.18,1.25-13.29,4.92v1.56c0,2.11.22,6.59.44,7.94a19,19,0,0,1,.16,2c0,1.73-2.05,3.62-4,3.62-.38,0-.54-.22-.54-.7-.11-2.81-2.64-6.48-5.45-8a16.77,16.77,0,0,0-3,2.6,1.73,1.73,0,0,1-1.29.75C2.43,40.39,0,38,0,36.5c0-.91.49-1.24,1.84-1.24,3.56-.11,4.53-.38,6.26-1.56.16-.11,1.19-.71,2.21-1.25l4.92-2.8Zm0,6.64c0-.32,0-.43,0-3.08a41,41,0,0,0-6.15,4.7,35.69,35.69,0,0,1,4,3.08c.64.54,1,.7,1.29.7q.81,0,.81-2.1Zm6.26-19.33c0-.27-.16-.43-1.13-1S19,13.66,17.82,13c-.16,1.51-.16,2.38-.22,5C19.93,17.17,21.49,16.09,21.49,15.39Zm12.64,1.19a2.82,2.82,0,0,1-.81.27.47.47,0,0,1-.38-.43c0-.87,3.94-2.16,6.48-2.16a9.89,9.89,0,0,1,7,2.59A7.29,7.29,0,0,1,48.28,21a2.85,2.85,0,0,1-2.87,2.65c-.54,0-.7-.27-1.08-2A8.85,8.85,0,0,0,41.74,18a8,8,0,0,0-4.91-1.78A10.8,10.8,0,0,0,34.13,16.58Z"/><path class="cls-1" d="M63.83,13.12c-3.35,4.65-6.59,8.26-7.51,8.26a.34.34,0,0,1-.32-.32c0-.27.16-.54.81-1.35,4-5.62,5.88-9.77,9-19.71l4.7,2.11c.7.27,1,.59,1,1s-.27.65-1,.92l-1.73.59c-1.29,2.54-2.16,4.1-4,7.13H76l3.08-3.13,3.56,3.07a.89.89,0,0,1,.33.71c0,.37-.22.64-.49.64H71.82c-.11,5.4-.11,6.21-.38,11.4h5.62L80.41,21,84,24.14a1.41,1.41,0,0,1,.49,1c0,.38-.27.59-.76.59H71.33c-.21,2.76-.27,3.24-.75,6.48C78,35.64,82,39.42,82,43.09a2.24,2.24,0,0,1-2.16,2.33c-1,0-1.35-.49-2.16-2.38a20.36,20.36,0,0,0-7.34-9.61c-1.41,5-3.67,8.26-8.64,12.31-2.32,1.84-4.75,3.4-5.4,3.4a.51.51,0,0,1-.43-.49c0-.32.27-.59,1.13-1.29C64.64,41.2,67.5,35.48,67.82,25.7H62.75c-2.27.06-2.92.06-6.54.17l-.7-1.68,4.05.16c1.35.06,2.49.06,3.19.06H68C68,21.87,68,20,68,18.68s0-3.13-.05-5.56Zm25.22-2.59h9.07l1.62-2.38,3.56,3.14a1.69,1.69,0,0,1,.6,1c0,.33-.17.54-.6.7l-1.13.44V42.88a1.44,1.44,0,0,1-.38,1,4.32,4.32,0,0,1-2.32.81.92.92,0,0,1-1-.87V40.12H88.94v4.76c0,.64-1.68,1.67-2.81,1.67a.85.85,0,0,1-.86-1V8.05Zm9.45,28.3v-27H88.94v27Z"/><path class="cls-1" d="M131.22,12.91c-1.4.86-2,1.72-2,3a1.88,1.88,0,0,0,.43,1.45,1.74,1.74,0,0,1,.54,1.25c0,.64,0,.75-.7,3.67a55.1,55.1,0,0,0-1.51,8.8c0,1.35.59,2.38,1.4,2.38a3.18,3.18,0,0,0,1.73-1.08c4-4.22,8.21-6.21,13-6.21,5.51,0,9.18,3.4,9.18,8.47,0,5.46-3.94,9.62-11.23,11.83a59.56,59.56,0,0,1-12.58,1.94c-.6,0-1-.32-1-.75,0-.22.11-.22.81-.32a34.84,34.84,0,0,0,11.72-3c4.81-2.21,8.1-6.31,8.1-10.15,0-3.62-2.48-5.88-6.48-5.88A12.42,12.42,0,0,0,134,32.08a8.76,8.76,0,0,0-2.7,5.07c-.27,1-.7,1.52-1.35,1.52A7.31,7.31,0,0,1,126.31,37c-.92-.86-1.3-2.05-1.3-4.05a24,24,0,0,1,.7-5.24,29.59,29.59,0,0,0,.7-6.37c0-.32,0-1.19,0-1.57,0-.86,0-1.45,0-1.72,0-3,1.78-5.24,5.13-6.54A20.13,20.13,0,0,1,137,10.26c.38,0,.54-.11.54-.27s-.11-.16-.27-.22a6.17,6.17,0,0,1-5.4-6.37c0-1.19.32-1.94.81-1.94.21,0,.27.05.27.43.16,3.08,2.32,4.48,7.18,4.7a2.41,2.41,0,0,1,2,.75,5.4,5.4,0,0,1,1.56,3.35,1.41,1.41,0,0,1-1.4,1.51,7.23,7.23,0,0,1-.81-.1,22.22,22.22,0,0,0-4.37-.65A13.34,13.34,0,0,0,131.22,12.91Z"/><path class="cls-1" d="M189.38,21.17c9.29-2.43,9.56-2.49,12.42-3,.21-5.29.27-6.42.27-7.5,0-2-.33-3.24-1-3.84A3.51,3.51,0,0,0,199,6h-.21a1.12,1.12,0,0,1-.38.06c-.16,0-.32-.11-.32-.22,0-.38,2.05-1.4,2.8-1.4,1.41,0,5.08,1.94,5.08,2.64a2.37,2.37,0,0,1-.11.49c-.27.49-.59,3.13-1.19,10l1.41-.27,3.18-.65,1.57-.32A17.56,17.56,0,0,0,209,14.74c-.43-.32-.48-.38-.48-.48a.37.37,0,0,1,.27-.38c.11,0,.21,0,.48.21a15.51,15.51,0,0,0,6.81,2.22c1.56.05,2.43,1,2.43,2.75a1.2,1.2,0,0,1-1.24,1.14,3.66,3.66,0,0,1-1-.17,27.87,27.87,0,0,0-6.31-.7c-1.35,0-2.38.06-5.51.27-.7,8-1.14,10.48-2.16,11.94a5.58,5.58,0,0,1-3.08,2,5.58,5.58,0,0,1-1.62.49c-.27,0-.32-.05-.49-.7-.32-1.95-1.83-3.89-4.59-5.94-.43-.27-.43-.33-.43-.49s.16-.43.33-.43.16,0,1.89,1c4.15,2.38,4.15,2.38,4.64,2.38,1.3,0,2.21-3.35,2.7-9.88a71.28,71.28,0,0,0-14.26,3.67c-.1,1.78-.16,2.91-.16,4.32,0,5.29.65,8.48,2.11,10.15,1.83,2,4.48,2.86,9.07,2.86a29.36,29.36,0,0,0,7.45-1c1.14-.38,1.14-.38,1.57-.38,1.24,0,2.81,1.35,2.81,2.43,0,1.68-2.87,2.43-9,2.43-8,0-12.75-1.73-14.69-5.29-1.35-2.48-1.57-4.32-1.89-14.58a66.41,66.41,0,0,0-8.86,3.62c-.91.59-1,.59-1.35.59-.64,0-2.16-1.08-3.34-2.43a5.33,5.33,0,0,1-1.25-3.89c0-.27.06-.37.27-.37s.22.05.38.37c.7,1.3,2.11,2,4.05,2,1.3,0,1.3,0,8.75-1.83l1.3-.27V19.93c-.11-5.13-.11-6-.33-6.54-.32-.81-1.56-1.4-3-1.4a6.31,6.31,0,0,0-1.35.16,1.13,1.13,0,0,1-.38,0,.24.24,0,0,1-.27-.21c0-.16.38-.54,1.51-1.24,1.24-.87,1.62-1,2.49-1a12.92,12.92,0,0,1,4.05,1.19,2,2,0,0,1,1.35,1.46,6.59,6.59,0,0,1-.11.81c-.16.81-.43,3.34-1,8.47Z"/></g></g></svg>