<svg xmlns="http://www.w3.org/2000/svg" width="179.782" height="29.875" viewBox="0 0 179.782 29.875">
  <defs>
    <style>
      .cls-1 {
        fill: #333;
        fill-rule: evenodd;
      }
    </style>
  </defs>
  <path id="モビパーク" class="cls-1" d="M186.092,273.216c0,2.447.54,4.247,1.656,5.363,1.153,1.151,3.889,1.871,7.166,1.871,3.924,0,6.156-.864,6.156-2.375a1.947,1.947,0,0,0-1.692-2.016,4.539,4.539,0,0,0-1.188.288,17.665,17.665,0,0,1-5.905.72c-2.664,0-3.384-.9-3.384-4.247,0-.972.036-1.98,0.108-4.931a74.694,74.694,0,0,1,7.813-.576c0.972,0,3.672.144,4.681,0.252a9.841,9.841,0,0,0,1.26.108,0.837,0.837,0,0,0,.936-0.756c0-.5-0.468-1.043-1.656-1.836a7.93,7.93,0,0,0-2.413-1.259c-0.288,0-.36.036-2.844,1.259-4,.649-4.789.757-7.6,1.152a8.137,8.137,0,0,1,.576-3.239,1.385,1.385,0,0,0,.252-0.72c0-.36-0.54-0.828-1.98-1.655,6.913-1.224,7.849-1.512,7.849-2.268,0-.72-1.693-1.979-2.665-1.979a1.412,1.412,0,0,0-.72.216,29.4,29.4,0,0,1-11.486,2.879,2.514,2.514,0,0,1-2.088-.72,0.316,0.316,0,0,0-.324.288,3.4,3.4,0,0,0,.72,1.476,3.806,3.806,0,0,0,2.809,1.331,18.789,18.789,0,0,0,3.708-.576,5.817,5.817,0,0,1,.324,2.628c0,0.576,0,1.583-.036,2.771-2.52.324-2.736,0.36-4.789,0.648a21.346,21.346,0,0,1-4.5.54,3.669,3.669,0,0,1-2.7-.756,0.408,0.408,0,0,0-.216-0.144,0.367,0.367,0,0,0-.252.432c0,1.476,1.945,3.491,3.385,3.491a3.974,3.974,0,0,0,1.8-.5,45.65,45.65,0,0,1,7.273-2.123Zm33.06-2.52c0,4.355.288,5.831,1.332,7.271,1.44,1.943,3.421,2.555,8.065,2.555a30.52,30.52,0,0,0,7.382-.792c1.08-.324,1.62-0.863,1.62-1.547,0-.936-1.8-1.944-3.817-2.088a14.349,14.349,0,0,1-7.057,1.44c-3.744,0-4.609-.972-4.609-5.111,0-.72,0-1.008.108-2.951a59.293,59.293,0,0,0,10.8-3.924c2.34-1.007,2.809-1.331,2.809-1.835a1.621,1.621,0,0,0-.469-0.972,11.7,11.7,0,0,0-2.232-1.908,6.593,6.593,0,0,0-2.16-.467c-0.324,0-.5.072-0.5,0.252a0.744,0.744,0,0,0,.18.359,1.217,1.217,0,0,1,.288.828,3.382,3.382,0,0,1-1.512,2.34,42.874,42.874,0,0,1-7.166,4.283,61.265,61.265,0,0,1,.649-7.882,5.584,5.584,0,0,0,.18-1.224,1.844,1.844,0,0,0-1.117-1.62,5.9,5.9,0,0,0-2.664-.972c-0.9,0-2.268.468-2.268,0.756a0.227,0.227,0,0,0,.18.18c1.764,0.684,2.088,1.44,2.088,4.787,0,0.756-.036,2.124-0.072,4.067Zm14.366-15.26c-0.972,0-1.512.144-1.512,0.431a0.305,0.305,0,0,0,.252.253,5.549,5.549,0,0,1,3.132,2.411c0.505,0.9.685,1.08,1.225,1.08a1.5,1.5,0,0,0,1.584-1.368C238.2,256.767,235.967,255.436,233.518,255.436Zm4.321-2.664c-0.864,0-1.548.216-1.548,0.468a0.349,0.349,0,0,0,.252.252,5.313,5.313,0,0,1,3.132,2.339c0.576,0.972.756,1.116,1.3,1.116a1.575,1.575,0,0,0,1.585-1.4C242.556,254.14,240.251,252.772,237.839,252.772Zm22.078,9.934c-0.468,0-.684.072-0.684,0.252,0,0.108.036,0.144,0.216,0.216a1.877,1.877,0,0,1,.864,1.8c0,1.476-1.26,3.888-3.349,6.407a22.276,22.276,0,0,1-7.453,6.191,0.791,0.791,0,0,0-.576.5,0.294,0.294,0,0,0,.324.288c0.972,0,3.817-1.152,5.977-2.412,3.133-1.8,4.9-3.527,8.426-8.206a3.178,3.178,0,0,1,.756-0.792,0.75,0.75,0,0,0,.36-0.54,3.612,3.612,0,0,0-1.513-2.159A4.606,4.606,0,0,0,259.917,262.706Zm8.5-.828c-0.288.036-.432,0.108-0.432,0.288,0,0.144.036,0.18,0.612,0.432,2.557,1.152,5.437,5.327,7.237,10.474,0.612,2.123.612,2.123,0.864,2.483a1.345,1.345,0,0,0,1.153.612,2.425,2.425,0,0,0,2.34-2.519c0-2.52-2.268-6.3-5.257-8.783C272.879,263.174,269.818,261.77,268.414,261.878Zm7.633-7.954a3.617,3.617,0,1,0,3.565,3.6A3.626,3.626,0,0,0,276.047,253.924Zm-0.036,1.4a2.214,2.214,0,1,1-2.268,2.2A2.229,2.229,0,0,1,276.011,255.328Zm38.317,10.653a28.473,28.473,0,0,1-5.725,1.224c-2.484.288-11.45,0.828-14.186,0.828-2.88,0-4.069-.324-4.609-1.224a0.524,0.524,0,0,0-.36-0.36c-0.36,0-.54.36-0.54,1.008a3.355,3.355,0,0,0,1.3,2.915,6.467,6.467,0,0,0,3.1,1.188,1.413,1.413,0,0,0,.5-0.108c2.7-1.08,8.029-1.583,17.03-1.583,1.333,0,2.413.036,3.169,0.108,1.548,0.143,2.7.251,3.024,0.251,1.117,0,1.837-.467,1.837-1.187C318.865,267.637,317.352,266.593,314.328,265.981Zm27.587-3.887a2.275,2.275,0,0,0,1.188.432,17.873,17.873,0,0,0,2.7-.576,8.143,8.143,0,0,1,1.584-.36,0.692,0.692,0,0,1,.684.72,10.538,10.538,0,0,1-1.656,4.067,40.611,40.611,0,0,1-8.138,9.862,31.168,31.168,0,0,1-9.469,5.867c-0.288.108-.4,0.18-0.4,0.324a0.27,0.27,0,0,0,.252.216,17.306,17.306,0,0,0,3.744-.972,35.264,35.264,0,0,0,12.566-8.1c2.557-2.556,3.745-4.283,7.093-10.366a9.427,9.427,0,0,1,.937-0.864,1,1,0,0,0,.432-0.576c0-.684-2.737-3.167-3.493-3.167a2.76,2.76,0,0,0-1.26.576,13.844,13.844,0,0,1-5.581,1.943,1.682,1.682,0,0,1-.612-0.108,16.024,16.024,0,0,0,1.692-3.311,3.483,3.483,0,0,0-1.548-1.8,5.374,5.374,0,0,0-2.988-1.043c-0.757,0-1.441.216-1.441,0.468,0,0.072.072,0.144,0.36,0.216a2.272,2.272,0,0,1,1.081,2.195c0,3.419-4.681,10.762-8.534,13.425-0.612.432-.684,0.468-0.684,0.648a0.232,0.232,0,0,0,.216.216,11.686,11.686,0,0,0,2.7-1.3C336.55,268.753,339.034,266.269,341.915,262.094Z" transform="translate(-173.656 -252.781)"/>
</svg>
