<svg xmlns="http://www.w3.org/2000/svg" width="937.684" height="60.1" viewBox="0 0 937.684 60.1">
  <defs>
    <style>
      .cls-1 {
        fill: #fff;
        fill-rule: evenodd;
      }
    </style>
  </defs>
  <path id="アトラクション_アクティビティ一覧" data-name="アトラクション・アクティビティ一覧" class="cls-1" d="M150.311,1514.68c2.624-1.21,6.144-2.94,10.688-5.12a14.842,14.842,0,0,1,4.352-1.47c2.752-.26,3.648-0.64,3.648-1.86,0-.7-0.512-1.47-2.368-3.52-2.688-2.94-4.032-4.03-5.056-4.03a5.111,5.111,0,0,0-1.216.26c-3.9,1.47-5.376,1.79-11.329,2.62-7.232.96-18.24,2.11-20.608,2.11-2.241,0-3.649-.64-4.481-2.11-0.256-.38-0.32-0.45-0.512-0.45-0.32,0-.512.71-0.512,1.99a5.753,5.753,0,0,0,1.856,4.09c1.408,1.35,3.777,2.69,4.865,2.69,0.512,0,.9-0.19,2.112-0.96a19.324,19.324,0,0,1,6.144-2.49c6.976-1.73,14.145-2.95,17.537-2.95,1.536,0,2.56.39,2.56,0.96,0,1.35-3.84,5.25-7.937,8.13-2.5-2.18-4.672-3.26-6.72-3.26-1.216,0-2.048.44-2.24,1.15a3.011,3.011,0,0,1,2.176,3.13c0,4.42-2.624,13.64-5.5,19.46-2.944,6.02-6.784,10.75-10.945,13.51a0.836,0.836,0,0,0-.512.64,0.36,0.36,0,0,0,.384.32,6.311,6.311,0,0,0,2.177-.84,35.9,35.9,0,0,0,10.112-7.61C144.038,1533.37,147.814,1525.18,150.311,1514.68Zm46.847,10.43-0.064-5.24-0.128-5.83a22.541,22.541,0,0,1,10.048,8.58c1.729,2.69,1.729,2.69,2.049,3.01a3.876,3.876,0,0,0,2.944,1.34,3.26,3.26,0,0,0,3.392-3.39c0-2.31-2.112-5.06-5.312-7.11-3.521-2.24-7.041-3.2-13.057-3.71a46,46,0,0,1,.9-10.43c0.832-1.92.9-2.05,0.9-2.5,0-.64-0.64-1.66-1.728-2.94-1.792-1.86-3.2-2.69-4.608-2.69-1.856,0-5.7,1.79-5.7,2.62a0.427,0.427,0,0,0,.512.45c3.072,0,3.712.83,4.032,4.8,0.128,1.8.448,14.21,0.448,18.5a162.917,162.917,0,0,1-.9,17.02,19.074,19.074,0,0,0-.64,3.59c0,2.37,2.816,6.4,4.544,6.4,1.6,0,2.88-2.5,2.88-5.76,0-.83-0.064-3.01-0.256-5.63-0.064-.77-0.128-2.88-0.128-5.12Zm38.848-24.57a0.413,0.413,0,0,0-.384.32,8.493,8.493,0,0,0,1.792,3.07,6.774,6.774,0,0,0,5.505,2.43,62.141,62.141,0,0,0,10.56-1.53c3.136-.64,5.12-0.96,7.872-1.28,1.537-.26,2.305-0.71,2.305-1.48,0-1.41-3.713-3.65-5.953-3.65a3.613,3.613,0,0,0-1.728.71,11.306,11.306,0,0,1-3.392,1.28,57.611,57.611,0,0,1-11.456,1.73c-2.049,0-3.841-.51-4.609-1.28A0.653,0.653,0,0,0,236.006,1500.54Zm32.13,16.7a4.474,4.474,0,0,1,1.408-.83,2,2,0,0,0,.768-0.45,1.172,1.172,0,0,0,.256-0.7c0-.58,0-0.58-1.408-1.99-2.88-2.88-3.968-3.64-4.864-3.64-0.448,0-.768.12-2.5,0.89a15.884,15.884,0,0,1-4.928,1.54,165.017,165.017,0,0,1-19.841,2.62c-2.368,0-4.672-.89-5.376-2.11a0.791,0.791,0,0,0-.576-0.58c-0.384,0-.576.52-0.576,1.54,0,2.88,3.52,6.59,6.272,6.59,0.448,0,.448,0,2.5-0.96,3.137-1.53,15.937-4.35,19.649-4.35,1.344,0,2.112.38,2.112,1.15,0,0.64-.384,1.73-1.728,4.87-2.752,6.4-4.864,9.72-8.384,13.56-4.992,5.38-12.1,9.86-18.241,11.4-0.512.13-.7,0.32-0.7,0.57a0.579,0.579,0,0,0,.7.52,35.5,35.5,0,0,0,9.665-2.18,46.082,46.082,0,0,0,16.7-11.97C262.119,1529.15,264.424,1525.18,268.136,1517.24Zm38.719-7.81a4.016,4.016,0,0,0,2.112.77,32.015,32.015,0,0,0,4.8-1.02,14.675,14.675,0,0,1,2.817-.64,1.227,1.227,0,0,1,1.216,1.28c0,1.41-1.024,3.84-2.944,7.23a72.437,72.437,0,0,1-14.465,17.54c-5.376,4.73-11.713,8.64-16.833,10.43-0.512.19-.7,0.32-0.7,0.57a0.477,0.477,0,0,0,.448.39,30.561,30.561,0,0,0,6.656-1.73,62.672,62.672,0,0,0,22.337-14.4c4.545-4.54,6.657-7.62,12.609-18.43a16.383,16.383,0,0,1,1.664-1.54,1.8,1.8,0,0,0,.768-1.02c0-1.22-4.864-5.63-6.208-5.63a4.858,4.858,0,0,0-2.24,1.02c-2.688,1.73-7.617,3.46-9.921,3.46a2.95,2.95,0,0,1-1.088-.2c1.664-2.75,3.008-5.37,3.008-5.88,0-.71-1.28-2.25-2.752-3.21a9.58,9.58,0,0,0-5.312-1.85c-1.344,0-2.56.38-2.56,0.83,0,0.13.128,0.26,0.64,0.38,1.088,0.39,1.92,1.99,1.92,3.91,0,6.08-8.32,19.14-15.169,23.87-1.088.77-1.216,0.83-1.216,1.15a0.412,0.412,0,0,0,.384.39,20.518,20.518,0,0,0,4.8-2.31C297.319,1521.27,301.735,1516.86,306.855,1509.43Zm45.312-8.57c-2.752,0-5.568.57-5.568,1.15,0,0.19.128,0.32,0.576,0.45a14.813,14.813,0,0,1,9.152,7.17c1.024,1.92,1.408,2.24,2.752,2.24a3.6,3.6,0,0,0,3.84-3.52C362.919,1504.38,357.927,1500.86,352.167,1500.86Zm-8.064,33.21c0,0.07,0,.07-0.064.07-0.512-.07-0.9.7-0.9,1.73a6.689,6.689,0,0,0,2.432,4.6c2.3,2.24,4.1,3.46,5.12,3.46,0.512,0,.7-0.13,1.728-0.96a8.707,8.707,0,0,1,1.28-.83c8.576-5.31,15.873-10.75,20.737-15.62a79.315,79.315,0,0,0,12.289-16.19c1.92-3.46,2.624-4.99,2.624-5.7a0.5,0.5,0,0,0-.384-0.51c-0.32,0-.512.13-1.152,1.09a109,109,0,0,1-7.233,8.7,96.114,96.114,0,0,1-16.448,14.34c-7.233,5.06-12.417,7.55-15.745,7.55-2.752,0-3.84-.45-4.224-1.73H344.1Zm0.32-21.05c-2.112,0-4.033.38-4.033,0.83,0,0.19.064,0.26,0.641,0.51a16.275,16.275,0,0,1,8.384,7.68c0.768,1.35,1.344,1.79,2.24,1.79a3.712,3.712,0,0,0,3.712-3.45C355.367,1516.67,349.991,1513.02,344.423,1513.02Zm84.161,22.4-3.584.38c-14.465,1.67-14.593,1.67-16.9,1.67a5.979,5.979,0,0,1-2.752-.52,1.76,1.76,0,0,0-.768-0.44,0.471,0.471,0,0,0-.384.57,4.061,4.061,0,0,0,1.024,2.5c1.408,1.79,2.88,2.94,3.648,2.94a4.165,4.165,0,0,0,1.28-.32c1.216-.51,2.432-0.96,3.584-1.34a68.291,68.291,0,0,1,14.529-2.18,18.531,18.531,0,0,1,3.968.45,8.507,8.507,0,0,0,2.176.45,1.678,1.678,0,0,0,1.664-1.54c0-.77-0.512-1.41-1.856-2.24-0.256-.13-0.7-0.45-1.216-0.77,2.624-14.33,3.008-15.68,4.16-16.57a2.15,2.15,0,0,0,.9-1.35c0-.64-0.64-1.34-2.3-2.68-2.176-1.67-2.624-1.86-3.392-1.86a2.219,2.219,0,0,0-1.28.38,12.948,12.948,0,0,1-4.736,1.8c-4.032.64-16.065,1.92-18.433,1.92-1.856,0-3.072-.45-3.84-1.48a1.136,1.136,0,0,0-.7-0.57,1.678,1.678,0,0,0-.768,1.53c0,1.86,3.392,5.25,5.248,5.25a4.415,4.415,0,0,0,1.088-.32c1.792-.7,2.3-0.83,6.464-1.66,7.105-1.35,11.713-2.11,13.057-2.11a1.5,1.5,0,0,1,1.728,1.53c0,0.83-.32,4.03-0.7,6.85a3.99,3.99,0,0,0-2.048-.9,8.557,8.557,0,0,0-1.728.32,24.786,24.786,0,0,1-4.929.71c-0.64.06-2.88,0.25-6.208,0.64-3.392.38-4.736,0.51-5.44,0.51-1.792,0-2.624-.26-3.584-1.22a1.072,1.072,0,0,0-.576.96c0,1.6,2.816,4.23,4.48,4.23a3.408,3.408,0,0,0,1.024-.19c1.664-.58,1.856-0.64,2.816-0.9a111.452,111.452,0,0,1,14.785-2.05,12.623,12.623,0,0,1,1.28.07Zm28.032-33.28c-2.305,0-3.9.32-3.9,0.83,0,0.19.192,0.32,0.7,0.45,3.265,0.96,7.809,5.18,9.345,8.57,0.9,1.92,1.472,2.44,2.752,2.44a3.531,3.531,0,0,0,3.52-3.4C469.032,1506.62,462.824,1502.14,456.616,1502.14Zm41.089,0.19a1.73,1.73,0,0,0-.96.77c-3.9,5.18-13.184,14.14-21.569,20.73-6.976,5.51-12.928,8.64-16.384,8.64-1.472,0-3.329-.76-3.777-1.53-0.32-.64-0.384-0.64-0.576-0.64-0.512,0-.9,1.21-0.9,2.56,0,1.41.9,2.75,3.329,5.05,1.856,1.73,3.456,2.69,4.48,2.69a1.832,1.832,0,0,0,.9-0.38c0.448-.32.832-0.71,1.216-1.03a7.787,7.787,0,0,1,1.216-.83,95.984,95.984,0,0,0,27.265-24.77c2.688-3.64,6.208-9.79,6.208-10.81A0.548,0.548,0,0,0,497.705,1502.33Zm29.375,10.5a7.3,7.3,0,1,0,7.169,7.29A7.308,7.308,0,0,0,527.08,1512.83Zm57.153,1.85c2.625-1.21,6.145-2.94,10.689-5.12a14.842,14.842,0,0,1,4.352-1.47c2.752-.26,3.648-0.64,3.648-1.86,0-.7-0.512-1.47-2.368-3.52-2.688-2.94-4.032-4.03-5.056-4.03a5.111,5.111,0,0,0-1.216.26c-3.9,1.47-5.376,1.79-11.329,2.62-7.232.96-18.24,2.11-20.609,2.11-2.24,0-3.648-.64-4.48-2.11-0.256-.38-0.32-0.45-0.512-0.45-0.32,0-.512.71-0.512,1.99a5.753,5.753,0,0,0,1.856,4.09c1.408,1.35,3.776,2.69,4.865,2.69,0.512,0,.9-0.19,2.112-0.96a19.324,19.324,0,0,1,6.144-2.49c6.976-1.73,14.144-2.95,17.537-2.95,1.536,0,2.56.39,2.56,0.96,0,1.35-3.84,5.25-7.937,8.13-2.5-2.18-4.672-3.26-6.72-3.26-1.216,0-2.048.44-2.24,1.15a3.011,3.011,0,0,1,2.176,3.13c0,4.42-2.624,13.64-5.5,19.46-2.944,6.02-6.784,10.75-10.945,13.51a0.836,0.836,0,0,0-.512.64,0.36,0.36,0,0,0,.384.32,6.308,6.308,0,0,0,2.176-.84,35.886,35.886,0,0,0,10.113-7.61C577.961,1533.37,581.737,1525.18,584.233,1514.68Zm54.464-5.25a4.016,4.016,0,0,0,2.112.77,32.015,32.015,0,0,0,4.8-1.02,14.657,14.657,0,0,1,2.816-.64,1.227,1.227,0,0,1,1.216,1.28c0,1.41-1.024,3.84-2.944,7.23a72.41,72.41,0,0,1-14.464,17.54c-5.377,4.73-11.713,8.64-16.833,10.43-0.512.19-.7,0.32-0.7,0.57a0.477,0.477,0,0,0,.448.39,30.561,30.561,0,0,0,6.656-1.73,62.672,62.672,0,0,0,22.337-14.4c4.544-4.54,6.657-7.62,12.609-18.43a16.383,16.383,0,0,1,1.664-1.54,1.8,1.8,0,0,0,.768-1.02c0-1.22-4.864-5.63-6.208-5.63a4.858,4.858,0,0,0-2.24,1.02c-2.689,1.73-7.617,3.46-9.921,3.46a2.95,2.95,0,0,1-1.088-.2c1.664-2.75,3.008-5.37,3.008-5.88,0-.71-1.28-2.25-2.752-3.21a9.58,9.58,0,0,0-5.312-1.85c-1.344,0-2.56.38-2.56,0.83,0,0.13.128,0.26,0.64,0.38,1.088,0.39,1.92,1.99,1.92,3.91,0,6.08-8.321,19.14-15.169,23.87-1.088.77-1.216,0.83-1.216,1.15a0.412,0.412,0,0,0,.384.39,20.5,20.5,0,0,0,4.8-2.31C629.161,1521.27,633.577,1516.86,638.7,1509.43Zm42.752-8.51a0.557,0.557,0,0,0-.384.51,8.5,8.5,0,0,0,1.792,3.46,5.2,5.2,0,0,0,4.16,1.86c2.688,0,7.873-.84,15.873-2.63,3.456-.77,4.736-1.34,4.736-2.24,0-.77-0.7-1.6-1.984-2.37a10.37,10.37,0,0,0-3.328-1.15,3.192,3.192,0,0,0-1.152.32,26.043,26.043,0,0,1-3.9,1.6,44.184,44.184,0,0,1-11.393,2.11,6.424,6.424,0,0,1-4.224-1.34A0.366,0.366,0,0,0,681.449,1500.92Zm13.313,14.66a2.667,2.667,0,0,1,.512,1.66c0,3.46-2.177,9.6-5.121,14.34-3.264,5.18-8.512,10.43-12.608,12.54-3.072,1.6-3.072,1.6-3.072,1.86a0.411,0.411,0,0,0,.512.38c1.024,0,6.912-2.37,9.344-3.71,7.936-4.35,14.273-12.61,17.793-23.04,0.768-.83.96-1.09,0.96-1.47,0-.45-0.64-1.09-3.136-3.01,4.1-.26,4.928-0.32,6.528-0.32a78.464,78.464,0,0,1,8.7.64,9.873,9.873,0,0,0,1.665.19,2.136,2.136,0,0,0,2.368-1.85c0-1.09-.64-1.8-2.624-3.01a12.41,12.41,0,0,0-4.353-1.99c-2.624,1.6-4.48,2.18-9.792,2.95-5.376.77-22.913,2.62-25.153,2.62-2.688,0-3.9-.51-4.992-2.05a1.479,1.479,0,0,0-.64,1.22,4.436,4.436,0,0,0,1.6,3.2c1.408,1.28,3.776,2.5,4.864,2.5a3.5,3.5,0,0,0,1.024-.2C682.665,1517.56,687.465,1516.54,694.762,1515.58Zm55.616,23.36c-0.064.64-.064,1.21-0.128,1.66a17.413,17.413,0,0,1-.9,3.2,3.281,3.281,0,0,0-.32,1.28c0,1.16,3.264,4.23,4.544,4.23,1.216,0,2.048-1.28,2.048-3.07,0-.65-0.064-1.93-0.128-3.46,0-.77-0.128-3.07-0.192-6.98-0.192-6.91-.192-6.91-0.192-7.42a15.038,15.038,0,0,1,.384-3.91,2.379,2.379,0,0,0,.512-1.21c0-.51-0.448-0.9-1.472-1.35-0.768-.38-1.088-0.51-1.792-0.89,1.92-1.99,4.608-4.99,6.4-7.17,0.7-.83,1.024-1.15,1.152-1.28a3.535,3.535,0,0,1,1.024-.77,1.251,1.251,0,0,0,.832-1.09c0-.76-0.832-1.85-2.624-3.77-1.728-1.73-2.816-2.31-4.544-2.31-1.088,0-1.664.2-1.664,0.58a0.531,0.531,0,0,0,.448.45,2.294,2.294,0,0,1,1.216,2.3c0,2.24-2.816,6.91-7.168,12.1-5.44,6.46-12.353,12.29-17.6,14.85a0.65,0.65,0,0,0-.512.51,0.521,0.521,0,0,0,.576.51,29.133,29.133,0,0,0,4.992-1.73c5.248-2.24,8.257-4.35,15.169-10.88,0.384,0.9.384,1.09,0.384,3.59,0,1.34,0,1.34-.256,7.55Zm32.064-14.21c0,7.74.512,10.37,2.368,12.93,2.56,3.45,6.08,4.54,14.336,4.54,4.929,0,10.369-.57,13.121-1.41,1.92-.57,2.88-1.53,2.88-2.75,0-1.66-3.2-3.45-6.784-3.71-3.712,1.86-7.1,2.56-12.545,2.56-6.656,0-8.192-1.73-8.192-9.09,0-1.28,0-1.79.192-5.25,7.232-1.92,10.176-3,19.2-6.97,4.16-1.79,4.992-2.37,4.992-3.27a2.849,2.849,0,0,0-.832-1.72,21.115,21.115,0,0,0-3.968-3.4,11.778,11.778,0,0,0-3.84-.83c-0.576,0-.9.13-0.9,0.45a1.3,1.3,0,0,0,.32.64,2.161,2.161,0,0,1,.512,1.47c0,1.28-1.024,2.88-2.689,4.16a75.808,75.808,0,0,1-12.736,7.62,108.792,108.792,0,0,1,1.152-14.02,9.9,9.9,0,0,0,.32-2.17c0-1.16-.512-1.92-1.984-2.88a10.432,10.432,0,0,0-4.736-1.73c-1.6,0-4.033.83-4.033,1.34a0.4,0.4,0,0,0,.321.32c3.136,1.22,3.712,2.56,3.712,8.51,0,1.35-.064,3.78-0.128,7.24Zm25.537-27.14c-1.728,0-2.688.26-2.688,0.77a0.55,0.55,0,0,0,.448.45,9.862,9.862,0,0,1,5.568,4.29c0.9,1.6,1.216,1.92,2.176,1.92a2.658,2.658,0,0,0,2.816-2.43C816.3,1499.96,812.331,1497.59,807.979,1497.59Zm7.68-4.73c-1.536,0-2.752.38-2.752,0.83a0.629,0.629,0,0,0,.448.45,9.386,9.386,0,0,1,5.568,4.16c1.024,1.72,1.344,1.98,2.3,1.98a2.8,2.8,0,0,0,2.817-2.5C824.044,1495.29,819.947,1492.86,815.659,1492.86Zm28.991,8.06a0.557,0.557,0,0,0-.384.51,8.5,8.5,0,0,0,1.792,3.46,5.2,5.2,0,0,0,4.16,1.86c2.688,0,7.873-.84,15.873-2.63,3.456-.77,4.736-1.34,4.736-2.24,0-.77-0.7-1.6-1.984-2.37a10.37,10.37,0,0,0-3.328-1.15,3.192,3.192,0,0,0-1.152.32,26.043,26.043,0,0,1-3.9,1.6,44.184,44.184,0,0,1-11.393,2.11,6.424,6.424,0,0,1-4.224-1.34A0.366,0.366,0,0,0,844.65,1500.92Zm13.313,14.66a2.667,2.667,0,0,1,.512,1.66c0,3.46-2.176,9.6-5.121,14.34-3.264,5.18-8.512,10.43-12.608,12.54-3.072,1.6-3.072,1.6-3.072,1.86a0.411,0.411,0,0,0,.512.38c1.024,0,6.912-2.37,9.344-3.71,7.937-4.35,14.273-12.61,17.793-23.04,0.768-.83.96-1.09,0.96-1.47,0-.45-0.64-1.09-3.136-3.01,4.1-.26,4.928-0.32,6.528-0.32a78.5,78.5,0,0,1,8.705.64,9.864,9.864,0,0,0,1.664.19,2.136,2.136,0,0,0,2.368-1.85c0-1.09-.64-1.8-2.624-3.01a12.394,12.394,0,0,0-4.353-1.99c-2.624,1.6-4.48,2.18-9.792,2.95-5.376.77-22.913,2.62-25.153,2.62-2.688,0-3.9-.51-4.992-2.05a1.479,1.479,0,0,0-.64,1.22,4.436,4.436,0,0,0,1.6,3.2c1.408,1.28,3.776,2.5,4.864,2.5a3.5,3.5,0,0,0,1.024-.2C845.866,1517.56,850.666,1516.54,857.963,1515.58Zm55.616,23.36c-0.064.64-.064,1.21-0.128,1.66a17.413,17.413,0,0,1-.9,3.2,3.281,3.281,0,0,0-.32,1.28c0,1.16,3.264,4.23,4.544,4.23,1.216,0,2.048-1.28,2.048-3.07,0-.65-0.064-1.93-0.128-3.46,0-.77-0.128-3.07-0.192-6.98-0.192-6.91-.192-6.91-0.192-7.42a15.038,15.038,0,0,1,.384-3.91,2.379,2.379,0,0,0,.512-1.21c0-.51-0.448-0.9-1.472-1.35-0.768-.38-1.088-0.51-1.792-0.89,1.92-1.99,4.608-4.99,6.4-7.17,0.7-.83,1.024-1.15,1.152-1.28a3.535,3.535,0,0,1,1.024-.77,1.25,1.25,0,0,0,.833-1.09c0-.76-0.833-1.85-2.625-3.77-1.728-1.73-2.816-2.31-4.544-2.31-1.088,0-1.664.2-1.664,0.58a0.531,0.531,0,0,0,.448.45,2.294,2.294,0,0,1,1.216,2.3c0,2.24-2.816,6.91-7.168,12.1-5.44,6.46-12.353,12.29-17.6,14.85a0.65,0.65,0,0,0-.512.51,0.521,0.521,0,0,0,.576.51,29.133,29.133,0,0,0,4.992-1.73c5.249-2.24,8.257-4.35,15.169-10.88,0.384,0.9.384,1.09,0.384,3.59,0,1.34,0,1.34-.256,7.55Zm24.894-17.47c2.56-.07,4.865-0.13,5.7-0.2,2.816-.06,4.736-0.12,5.5-0.12H994.22a0.894,0.894,0,0,0,1.088-.77,2.427,2.427,0,0,0-1.216-1.6l-5.952-4.74-4.993,5.25H949.674s-3.072-.06-5.76-0.13c-1.024-.06-3.713-0.13-6.849-0.19Zm95.747,14.97v8.58c0,3.14.83,3.39,10.37,3.39,11.97,0,16-.7,16-2.75a3.173,3.173,0,0,0-1.6-2.31c-1.35-.89-1.6-1.21-1.6-2.17v-0.58c0.38-3.45.64-6.08,0.64-6.72s-0.26-1.02-.64-1.02c-0.26,0-.32.06-0.96,1.92-1.28,3.52-2.95,6.97-3.71,7.81-0.9.96-2.37,1.08-10.44,1.08-2.81,0-2.94-.06-2.94-1.21v-6.02h4.8v1.35c0,0.64.13,0.83,0.83,0.83a14.344,14.344,0,0,0,3.33-.58c1.02-.32,1.34-0.64,1.34-1.34v-12.23l1.09-.25a1.121,1.121,0,0,0,.77-1.09,1.95,1.95,0,0,0-.64-1.22l-5.06-5.18-2.24,3.26h-25.6l-6.78-2.17v21.37c0,0.52.38,0.77,1.09,0.77,2.24,0,4.28-.7,4.28-1.53v-1.99h5.7c-2.05,6.21-7.81,10.56-17.41,13-1.34.38-1.53,0.51-1.53,0.89a0.676,0.676,0,0,0,.76.58,57.127,57.127,0,0,0,11.91-2.56,21.592,21.592,0,0,0,12.8-11.91h5.44Zm-17.67-1.73v-3.32h27.59v3.32h-27.59Zm0-5.05v-3.01h27.59v3.01h-27.59Zm0-4.74v-3.2h27.59v3.2h-27.59Zm-7.87-7.68h24.64a0.65,0.65,0,0,0,.51-0.7,1.015,1.015,0,0,0-.32-0.71l-4.73-3.64-3.01,3.32h-6.66v-5.05h4.29v1.34c0,0.45.26,0.64,0.9,0.64a13.158,13.158,0,0,0,3.01-.45,0.978,0.978,0,0,0,.89-1.08v-5.7l1.03-.32a0.592,0.592,0,0,0,.38-0.64,1.194,1.194,0,0,0-.45-0.83l-4.41-3.84-2.12,2.88h-3.58v-4.68h13.06a0.87,0.87,0,0,0,.76-0.96,1.339,1.339,0,0,0-.51-1.02l-4.99-3.84-3.58,4.1h-14.66l-5.76-3.14v27.46c0,0.64.26,0.89,1.02,0.89,2.18,0,4.29-.64,4.29-1.28v-2.75Zm0-1.73v-5.05h5.44v5.05h-5.44Zm0-6.78v-4.54h14.72v4.54h-14.72Zm0-6.27v-4.68h5.44v4.68h-5.44Zm41.28-1.67h-11.39c1.34-1.98,1.66-2.43,2.69-4.22l2.05-.51a0.918,0.918,0,0,0,.7-0.96,1.286,1.286,0,0,0-.7-1.16l-6.15-3.13a51.9,51.9,0,0,1-6.97,17.15c-0.71,1.03-.77,1.09-0.77,1.35a0.538,0.538,0,0,0,.51.44c0.26,0,.26,0,2.43-1.92a45.287,45.287,0,0,0,4.93-5.31h21.06a1.052,1.052,0,0,0,.89-1.09,1.237,1.237,0,0,0-.51-1.02l-4.93-3.84Zm-15.42,11.78c3.9-.13,5.5-0.19,7.36-0.19h12.67a0.9,0.9,0,0,0,.77-0.9,1.585,1.585,0,0,0-.32-0.89l-5.12-3.97-3.58,4.03h-4.42c-1.99,0-3.78-.06-8.58-0.26Z" transform="translate(-122.906 -1490.81)"/>
</svg>
