<svg xmlns="http://www.w3.org/2000/svg" viewBox="0 0 619.73 36.8"><defs><style>.cls-1{fill:#333;}</style></defs><title>dokidoki-new-title</title><g id="Layer_2" data-name="Layer 2"><g id="Layer_1-2" data-name="Layer 1"><path class="cls-1" d="M11.92,25.27a10.3,10.3,0,0,1,3.34.86,3.91,3.91,0,0,1,2.42,3.23A1.62,1.62,0,0,1,16,31c-.82,0-1-.2-1.87-2.11a7.07,7.07,0,0,0-2.18-2.8v8.53a1,1,0,0,1-.74,1.09,3.75,3.75,0,0,1-1.6.39c-.66,0-.94-.24-.94-.82V27.84a30.18,30.18,0,0,1-5.8,4.87A10.42,10.42,0,0,1,.27,34.23.3.3,0,0,1,0,34c0-.2.19-.43.7-.9A28.26,28.26,0,0,0,8.37,22.7H6.15c-.43,0-1.09,0-1.91,0l-2.45.08L1,21.5c1.44,0,2.77.07,3.24.11,1,0,1.63,0,1.94,0H8.64V16.12l3.9.39a.84.84,0,0,1,.78.82c0,.31-.16.5-.59.74l-.81.39v3.19h1.16L15,19.2l2.77,2.3a.86.86,0,0,1,.39.66.55.55,0,0,1-.59.54H11.92ZM34.81,6.11a.72.72,0,0,1,.31.55.47.47,0,0,1-.5.51H20.83c3.43,3.46,9.86,6.23,16.05,6.89-2.26,1.2-2.85,1.63-4.05,3.31A25.65,25.65,0,0,1,20.37,7.94v8.88c0,.47-.16.7-.7.86a8,8,0,0,1-2,.39c-.51,0-.78-.27-.78-.82V10.09A45.76,45.76,0,0,1,7.63,16a30,30,0,0,1-6,2.46.3.3,0,0,1-.31-.28c0-.19.15-.35.5-.5A41,41,0,0,0,15,7.17h-4c-2.14,0-3.42,0-6.73.19l-.9-1.44L7.67,6c1.36,0,2.53.07,3.27.07h6V.43l4,.31a.8.8,0,0,1,.78.7,1,1,0,0,1-.51.82l-.85.5V6.11h8.45l2.49-3Zm1.87,15.58a.85.85,0,0,1,.31.55.45.45,0,0,1-.5.46H28.93c1.52,3,4.36,5.53,8.61,7.71a7.64,7.64,0,0,0-3.23,3.16A22.19,22.19,0,0,1,28.62,25V35c0,.58-.19.82-.78,1a6.31,6.31,0,0,1-1.91.35c-.5,0-.7-.23-.7-.82V27.76a33.66,33.66,0,0,1-6.62,5.18,11.9,11.9,0,0,1-3.23,1.64.27.27,0,0,1-.27-.27c0-.24,0-.28,1.24-1.25A30.15,30.15,0,0,0,25,22.7h-.9c-1.13,0-2.1,0-4.59.12l-.59-1.32c1.6.07,3.08.11,5.18.15h1.13V16.08l3.82.51a.68.68,0,0,1,.66.66.8.8,0,0,1-.43.7l-.74.47v3.23h2.73L33.49,19Z"/><path class="cls-1" d="M48.68,7.63c0,9.35-.85,13.63-3.23,17.29-1.13,1.75-2.92,3.78-3.31,3.78a.27.27,0,0,1-.27-.2c0-.11.08-.27.35-.7,2.18-3.31,3.11-8.1,3.11-16.16,0-2.06,0-3.46-.15-6.66L49,6.58H61.57c-.19-1.83-.35-4.09-.39-6.58l3.7.35a.71.71,0,0,1,.66.66,1,1,0,0,1-.5.82l-.74.47V3c0,1,.08,2.14.19,3.58h7.13L74,3.78l3,2.49a.84.84,0,0,1,.35.62c0,.43-.39.74-.93.74H64.61A31.65,31.65,0,0,0,67,16.36a31.06,31.06,0,0,0,3-6.86l3.35,1.91a.92.92,0,0,1,.47.74c0,.27-.31.51-.86.66l-.66.2a30.15,30.15,0,0,1-3.89,5.92c1.2,1.86,3.93,3.89,5.25,3.89.63,0,1.52-1.36,3-4.56.35-.81.35-.81.51-.81a.31.31,0,0,1,.31.35,22.39,22.39,0,0,1-.5,2.76,15.34,15.34,0,0,0-.28,2.26,1.32,1.32,0,0,0,.39.82c.78.89,1,1.28,1,1.71,0,.86-.89,1.48-2.1,1.48a13.57,13.57,0,0,1-6.46-2.45,11.84,11.84,0,0,1-3.19-3,30,30,0,0,1-6,4.05c1.87,1,2.76,2.26,2.76,3.82A1.71,1.71,0,0,1,61.1,31a1.42,1.42,0,0,1-1-.39c-.31-.35-.31-.35-1.05-2.65-.58-1.4-.82-1.68-2.41-3.16a.61.61,0,0,1-.16-.27c0-.11.12-.15.23-.15a10.7,10.7,0,0,1,3,.77A25.64,25.64,0,0,0,65,19.35C63.32,16.12,62.43,13,61.69,7.63Zm-.15,22a7.38,7.38,0,0,1-.9,3.66c-.7,1.37-1.52,2-2.65,2a1.79,1.79,0,0,1-2-1.6,2.84,2.84,0,0,1,.5-1.44,13.91,13.91,0,0,1,1.72-1.48,6,6,0,0,0,2.29-4.63c0-.2.08-.27.24-.27C48.1,25.86,48.53,28,48.53,29.63ZM59.16,9l2.18,1.79c.39.31.5.5.5.78a.56.56,0,0,1-.58.5H49.34V11h8ZM53.08,23.17c0,.54-1.13,1.09-2.29,1.09-.51,0-.67-.16-.67-.58V13.4l3.16,1.48h4.63l1.21-1.76,2.49,2.34a1.2,1.2,0,0,1,.47.86.8.8,0,0,1-.51.66l-.5.19v4.52c0,.62-1.25,1.21-2.65,1.21-.27,0-.43-.12-.43-.35V21.3H53.08Zm1.83,2.57a.76.76,0,0,1,.74.7,1,1,0,0,1-.66.86l-.47.19v4.44c0,.59.08.86.28.94a34.78,34.78,0,0,0,4.12.15c4.68,0,5.85-.19,6.58-1.17a30.8,30.8,0,0,0,2.26-3.93c.12-.19.16-.23.24-.23s.15.07.15.23,0,.7-.31,3.43v.35c0,.19,0,.27.24.39,1.28.74,1.59,1,1.59,1.67,0,.86-.89,1.36-2.84,1.68a81.2,81.2,0,0,1-10.16.31c-5,0-5.34-.16-5.34-2.42V25.47ZM58,20.25V15.93H53.08v4.32ZM68.5,1.36c2,.47,3.2,1.52,3.2,2.69a1.57,1.57,0,0,1-1.44,1.71,1.63,1.63,0,0,1-.94-.31C69,5.22,69,5.22,68.11,3.5a4.86,4.86,0,0,0-1.79-1.9.49.49,0,0,1-.19-.24c0-.15.23-.23.62-.23A7.45,7.45,0,0,1,68.5,1.36Zm5,26.79C76,29.4,77.3,31,77.3,32.71a1.86,1.86,0,0,1-1.79,2.06,1.9,1.9,0,0,1-1.28-.5c-.31-.31-.31-.31-1.33-2.49a13.44,13.44,0,0,0-3.35-4.37c-.23-.19-.31-.31-.31-.38s.16-.24.31-.24A20.12,20.12,0,0,1,73.49,28.15Z"/><path class="cls-1" d="M89.31,10.24c0,.51,0,.78,0,1.13,0,2.65-1.44,4.52-3.54,4.52a1.82,1.82,0,0,1-1.91-1.79c0-.82,0-.86,1.91-2.57a6.23,6.23,0,0,0,2-4.72c0-.27.15-.42.35-.42s.31.11.39.39c.35,1.13.54,2,.62,2.37h16.94a49.73,49.73,0,0,0,2.72-9l4.13,2.45a1.07,1.07,0,0,1,.62.85c0,.43-.31.75-.89.94l-.62.16-.94,1c-1.91,2.1-2.06,2.22-3.39,3.58h6.16l1.67-2.57,3.62,4.13a1.83,1.83,0,0,1,.47,1c0,.58-.51.9-1.44.9l-1.52,0a21.76,21.76,0,0,0-2.14,1.12c-.43.24-.82.47-1.21.71a2.27,2.27,0,0,0-.39.19,1.2,1.2,0,0,1,.35.74c0,.23-.23.47-.66.7l-.7.35V27a1,1,0,0,1-.66,1,5.32,5.32,0,0,1-2,.46c-.58,0-.9-.27-.9-.77V26.32h-2.06v5.46c0,1,.16,1,2.69,1,4,0,5.14-.12,5.68-.66s.86-1.25,2.34-5.14c.27-.74.31-.82.54-.82s.24.11.24.31,0,1,0,2.26c-.08,2.06-.08,2.06-.08,2.53,0,.62.08.74.78,1.24a1.57,1.57,0,0,1,.82,1.33c0,1.67-2,2.14-9.19,2.14a31.8,31.8,0,0,1-5.8-.39,1.75,1.75,0,0,1-1.29-2V26.32h-2.41C99.31,31.23,98,33,94.52,34.7a22.41,22.41,0,0,1-6.77,1.83c-1,.11-2.57.27-2.88.27s-.43-.08-.43-.27.23-.35,1-.51c6.58-1.44,10.75-5,11.37-9.7H94.09V28a1,1,0,0,1-.62.93,6.09,6.09,0,0,1-2,.43.7.7,0,0,1-.78-.74v-17l3.77,1.76h13.83l1.52-2.15,2.68,2.92a24.3,24.3,0,0,0,1.64-3.93Zm4.4-7.83a5.36,5.36,0,0,1,2.8,4.13,2.14,2.14,0,0,1-2,2.22c-.89,0-1.4-.54-1.67-1.79A10.16,10.16,0,0,0,90.4,1.83c-.16-.16-.2-.23-.2-.31a.26.26,0,0,1,.27-.27A8.08,8.08,0,0,1,93.71,2.41Zm14.71,14.88V14.45H94.09v2.84Zm0,3.85v-2.8H94.09v2.8Zm0,4.13V22.2H94.09v3.07ZM101.61,2.18a4.24,4.24,0,0,1,2.06,3.35,2,2,0,0,1-2,2.22,1.56,1.56,0,0,1-1.44-.82,13.74,13.74,0,0,1-.86-2.49,8.08,8.08,0,0,0-2.3-3.39C97,1,96.94.9,96.94.86s.08-.2.23-.24A11.69,11.69,0,0,1,101.61,2.18Z"/><path class="cls-1" d="M139,29.83a21.9,21.9,0,0,1-6.15,4.63,3.85,3.85,0,0,1-1.33.51.22.22,0,0,1-.23-.2c0-.11.08-.23.31-.39a20.6,20.6,0,0,0,6.66-8.21c1.75-3.55,3.35-9.15,3.35-11.84a1.85,1.85,0,0,0-1.32-1.91c.11-.43.62-.7,1.36-.7a6.51,6.51,0,0,1,4.09,2c2.49-1.75,4.83-4.13,4.83-5,0-.35-.63-.58-1.56-.58A56.32,56.32,0,0,0,138.34,10a11.75,11.75,0,0,0-3.74,1.52c-.74.47-1,.58-1.29.58a6.16,6.16,0,0,1-2.95-1.63,3.52,3.52,0,0,1-1.13-2.5c0-.77.11-1.2.31-1.2s.15,0,.31.27a2.77,2.77,0,0,0,2.73,1.28c1.44,0,8.13-.7,12.53-1.28a25,25,0,0,0,6.9-1.6,2.94,2.94,0,0,1,.74-.15c.62,0,1.44.66,3.07,2.45C157,9,157.26,9.42,157.26,9.85c0,.74-.54,1-2.22,1.13a9,9,0,0,0-2.64.9c-2.77,1.32-4.91,2.37-6.51,3.11C144.37,21.38,142.08,26.36,139,29.83Z"/><path class="cls-1" d="M185.07,8.49a4.49,4.49,0,0,0,2.46-1c.7-.55,1-.74,1.36-.74s1.36.58,2.84,1.79c.86.7,1.09,1,1.09,1.32s-.35.67-1.24,1.21a66.33,66.33,0,0,1-5,8.72,17.66,17.66,0,0,1,7.4,3.47c2.3,1.83,3.62,4,3.62,5.8a2.44,2.44,0,0,1-2.37,2.41c-.94,0-1.36-.46-2.1-2.25a18.05,18.05,0,0,0-7-8.61,34.94,34.94,0,0,1-5.73,6.23A30.81,30.81,0,0,1,170,32.44a8.84,8.84,0,0,1-1.9.47.31.31,0,0,1-.35-.28c0-.19.23-.35,1.28-.82a34.53,34.53,0,0,0,12.54-10.63A38.58,38.58,0,0,0,186.2,13a10.68,10.68,0,0,0,.94-2.69c0-.31-.24-.51-.62-.51a4.49,4.49,0,0,0-1.56.35,53.15,53.15,0,0,0-6.9,2.46,3.56,3.56,0,0,1-1.16.39,5,5,0,0,1-2.18-1.25,2.62,2.62,0,0,1-.94-1.83c0-.58.24-1.25.43-1.25s.16,0,.35.35a2.88,2.88,0,0,0,2.38.86c1.12,0,1.63-.08,5.72-.93Z"/><path class="cls-1" d="M219.82,25.43c0,.39.11.5.46.5,1.72,0,8.06-3.69,12.23-7.12a49.8,49.8,0,0,0,8.72-8.88c.16-.23.28-.31.39-.31A.4.4,0,0,1,242,10a22.38,22.38,0,0,1-1.75,3.31,38.62,38.62,0,0,1-9.3,10.2,46.13,46.13,0,0,1-7.64,5.06,8.9,8.9,0,0,0-3.35,2.5.68.68,0,0,1-.54.35c-.9,0-3.51-2.57-3.51-3.43,0-.16,0-.16.35-.9a6.88,6.88,0,0,0,.43-3V21.38c0-3.7,0-5.84,0-6.39,0-3.93-.62-5.45-2.41-5.76-.47,0-.58-.12-.58-.31s.11-.28.38-.35a12.08,12.08,0,0,1,2.34-.47,5.22,5.22,0,0,1,2.92,1.25c1.36,1,1.87,1.63,1.87,2.14,0,.31,0,.35-.31,1-.55.86-1,5-1,10.09Z"/><path class="cls-1" d="M265.11,11a45.43,45.43,0,0,1-9.58,1.87c-.23,0-.35-.12-.35-.27s.12-.31.55-.43A39.21,39.21,0,0,0,266,7.59c2.37-1.48,3.27-2.37,3.27-3.27a.87.87,0,0,0-.35-.66c0-.19.19-.27.5-.27.55,0,1.25.31,3.08,1.44,1.21.74,1.64,1.21,1.64,1.71s-.51.9-2.11,1.64a44,44,0,0,1-4.44,1.91c.24.15.28.15.74.42,1.17.63,2,1.29,2,1.6a1.54,1.54,0,0,1-.12.31,12.34,12.34,0,0,0-.27,2.84c4.71-.73,6.12-1,7.32-1.63.66-.35.82-.39,1-.39.59,0,1.48.55,2.92,1.71.82.7,1.13,1.13,1.13,1.6a.87.87,0,0,1-.93.78,6,6,0,0,1-.7-.08,47.52,47.52,0,0,0-5.34-.39c-1.2,0-3.19.08-5.6.27-.39,5.88-2.11,10.09-5.42,13.36a18.21,18.21,0,0,1-6.19,3.89,10.48,10.48,0,0,1-2.41.74.27.27,0,0,1-.28-.27c0-.11.12-.23.39-.35,6.16-2.88,9.7-8.84,10.09-17-6,1-9,1.72-10.75,2.5a1.89,1.89,0,0,1-1,.31,5.49,5.49,0,0,1-3.08-1.6,3.69,3.69,0,0,1-.89-2.06c0-.51.15-.9.31-.9s.15,0,.35.31c.43.63,1.21.82,3.08.82,2.84,0,5.25-.23,12.07-1.13C265.89,12.89,265.62,11.41,265.11,11Z"/><path class="cls-1" d="M303.32,20.91a2,2,0,0,1-1.79,2.18,1.05,1.05,0,0,1-1-.85A10.42,10.42,0,0,0,296.93,17c-.35-.24-.42-.31-.42-.47s.11-.23.5-.23C300.4,16.28,303.32,18.46,303.32,20.91ZM306.16,32c-2.37,1.48-6.54,3.12-8,3.12a.39.39,0,0,1-.39-.32c0-.19,0-.19,1-.58a31.15,31.15,0,0,0,10.71-8.29c3.08-3.7,5.18-8.26,5.18-11.34a2.59,2.59,0,0,0-.5-1.67c-.39-.35-.39-.35-.39-.43,0-.23.27-.39.62-.39a3.93,3.93,0,0,1,2.8,1.29A6.27,6.27,0,0,1,319.05,16c0,.28-.08.35-.74,1.05A31.9,31.9,0,0,1,306.16,32Zm3.59-13.63a2.08,2.08,0,0,1-1.95,2.14c-.66,0-1-.39-1.25-1.44-.62-2.53-2.14-4.79-3.66-5.53-.19-.08-.27-.19-.27-.31s.19-.23.43-.23C306.28,13,309.75,15.77,309.75,18.34Z"/><path class="cls-1" d="M339.78,21.14a12.26,12.26,0,0,1-2.93,1.41.26.26,0,0,1-.23-.24c0-.19.08-.23.74-.7,4.17-2.88,9.23-10.82,9.23-14.52a2.48,2.48,0,0,0-1.17-2.38c-.31-.08-.39-.15-.39-.23,0-.27.74-.51,1.56-.51a5.8,5.8,0,0,1,3.23,1.13c.9.59,1.68,1.52,1.68,2a17.42,17.42,0,0,1-1.83,3.58,1.76,1.76,0,0,0,.66.12,14.82,14.82,0,0,0,6-2.11A3,3,0,0,1,357.73,8c.81,0,3.77,2.69,3.77,3.43,0,.15-.15.35-.46.62a10,10,0,0,0-1,.94c-3.62,6.58-4.9,8.45-7.67,11.21A38.06,38.06,0,0,1,338.76,33,18.34,18.34,0,0,1,334.71,34c-.11,0-.27-.11-.27-.23s.12-.23.43-.35a33.8,33.8,0,0,0,10.24-6.35,43.81,43.81,0,0,0,8.8-10.67c1.17-2.06,1.79-3.54,1.79-4.4a.75.75,0,0,0-.74-.78,9.07,9.07,0,0,0-1.71.39,19.75,19.75,0,0,1-2.92.63A2.51,2.51,0,0,1,349,11.8C345.93,16.32,343.24,19,339.78,21.14Z"/><path class="cls-1" d="M383.83,31.93h.74c3.23-.12,3.62-.82,3.58-6.07V8.14c0-1.71-1.25-2.73-3.31-2.65l-.86,0v-1h13.44a17.12,17.12,0,0,1,8.8,2.26c4.16,2.53,6.27,6.54,6.27,11.91,0,5.14-1.87,9.31-5.3,11.8-2.53,1.87-5.72,2.69-10.24,2.69H383.83Zm9.11-3.78c0,2.81.93,3.74,3.7,3.74a12.71,12.71,0,0,0,5.61-1.28c3.11-1.68,4.71-5.73,4.71-11.88,0-5.45-1.33-9-4.25-11.14a10,10,0,0,0-6-1.9c-1.83,0-3,.46-3.47,1.4-.27.5-.31.74-.31,2.92Z"/><path class="cls-1" d="M445.75,18.65c0,8.61-6.19,15.15-14.33,15.15a13.8,13.8,0,0,1-9.62-4,15.13,15.13,0,0,1-4.25-11.14c0-4.4,1.33-8.1,3.82-10.67A14.39,14.39,0,0,1,432,3.62C439.91,3.62,445.75,10,445.75,18.65ZM425.5,7.91c-1.75,2.45-2.53,5.8-2.53,10.86,0,9,3,13.82,8.68,13.82s8.57-5,8.57-14.09-3-13.67-8.76-13.67A7.08,7.08,0,0,0,425.5,7.91Z"/><path class="cls-1" d="M450.54,32.09h1c2.19-.08,3.2-1.05,3.24-3.2V8.29c-.08-1.79-1.33-2.84-3.35-2.8h-1v-1h13.24v1h-1c-2.26,0-3.15.74-3.19,2.61V20.44L470.21,9.07A3.6,3.6,0,0,0,471.38,7c0-1-1.09-1.48-3.12-1.48h-.93v-1H479.4v1a7.56,7.56,0,0,0-6.23,2.69L467,14.53l10.08,15.22a5.34,5.34,0,0,0,4.56,2.34v1H467.87v-1h1.56c1.4,0,2.33-.51,2.33-1.25a3,3,0,0,0-.54-1.48L463.86,17.8l-4.4,4.51v7.25c0,1.67,1.21,2.53,3.58,2.53h.51v1h-13Z"/><path class="cls-1" d="M485.91,32.13h1.59c2.18,0,2.88-1.13,2.92-4.4V8.61c.08-2.22-1.05-3.16-3.77-3.12H486v-1h13.56v1h-.78c-2.92,0-3.7.62-3.7,3.15V28c0,3.54.43,4.13,3.54,4.17h.86v1H485.91Z"/><path class="cls-1" d="M504,31.93h.74c3.23-.12,3.62-.82,3.58-6.07V8.14c0-1.71-1.25-2.73-3.31-2.65l-.86,0v-1h13.44a17.09,17.09,0,0,1,8.8,2.26c4.16,2.53,6.27,6.54,6.27,11.91,0,5.14-1.87,9.31-5.3,11.8-2.53,1.87-5.72,2.69-10.24,2.69H504Zm9.11-3.78c0,2.81.93,3.74,3.7,3.74a12.67,12.67,0,0,0,5.61-1.28c3.11-1.68,4.71-5.73,4.71-11.88,0-5.45-1.33-9-4.25-11.14a10,10,0,0,0-6-1.9c-1.83,0-3,.46-3.47,1.4-.27.5-.31.74-.31,2.92Z"/><path class="cls-1" d="M565.94,18.65c0,8.61-6.19,15.15-14.33,15.15a13.8,13.8,0,0,1-9.62-4,15.13,15.13,0,0,1-4.24-11.14c0-4.4,1.32-8.1,3.81-10.67a14.41,14.41,0,0,1,10.59-4.32C560.1,3.62,565.94,10,565.94,18.65ZM545.69,7.91c-1.75,2.45-2.53,5.8-2.53,10.86,0,9,3,13.82,8.68,13.82s8.57-5,8.57-14.09-3-13.67-8.76-13.67A7.08,7.08,0,0,0,545.69,7.91Z"/><path class="cls-1" d="M570.73,32.09h1c2.18-.08,3.19-1.05,3.23-3.2V8.29c-.08-1.79-1.33-2.84-3.35-2.8h-1v-1h13.24v1h-1c-2.26,0-3.15.74-3.19,2.61V20.44L590.4,9.07A3.6,3.6,0,0,0,591.57,7c0-1-1.09-1.48-3.12-1.48h-.93v-1h12.07v1a7.56,7.56,0,0,0-6.23,2.69l-6.19,6.35,10.08,15.22a5.34,5.34,0,0,0,4.56,2.34v1H588.06v-1h1.56c1.4,0,2.34-.51,2.34-1.25a3.05,3.05,0,0,0-.55-1.48L584.05,17.8l-4.4,4.51v7.25c0,1.67,1.21,2.53,3.58,2.53h.51v1h-13Z"/><path class="cls-1" d="M606.1,32.13h1.59c2.18,0,2.89-1.13,2.92-4.4V8.61c.08-2.22-1.05-3.16-3.77-3.12h-.67v-1h13.56v1H619c-2.92,0-3.7.62-3.7,3.15V28c0,3.54.43,4.13,3.54,4.17h.86v1H606.1Z"/></g></g></svg>