<svg xmlns="http://www.w3.org/2000/svg" viewBox="0 0 440.05 106.44"><defs><style>.cls-1{fill:#343434;}</style></defs><title>carbike-sp-title</title><g id="Layer_2" data-name="Layer 2"><g id="Layer_1-2" data-name="Layer 1"><path class="cls-1" d="M1.13,40.23A56.35,56.35,0,0,0,17.71,28.62a45.33,45.33,0,0,0,9.4-12.69,19.45,19.45,0,0,0,2-4.81,1.26,1.26,0,0,0-1.3-1.18c-.22,0-.59.05-1,.1-.16.06-1.29.27-2.43.44-.91.16-1.67.27-2.1.32a4.6,4.6,0,0,1-1.08.16,4.22,4.22,0,0,1-2.11-.75,53.43,53.43,0,0,1-8.91,10.85c-2.59,2.38-6.15,4.81-7,4.81-.32,0-.59-.17-.59-.38,0-.38.11-.49,1.46-1.46,2.26-1.57,5.88-5.72,8.85-10.1,2.27-3.45,3.67-6.53,3.67-8.31a3.46,3.46,0,0,0-2-3.35c-.22-.06-.38-.22-.38-.33,0-.27.59-.48,1.46-.48a6.43,6.43,0,0,1,3.78,1.35c1.94,1.29,2.37,1.73,2.37,2.48,0,.33-.05.43-.38.81a10.32,10.32,0,0,0-.91,1.35c-.38.87-.54,1.14-.76,1.57a3.69,3.69,0,0,0,1.3.21,34.49,34.49,0,0,0,6.48-1.18,10.07,10.07,0,0,0,2.05-1c.92-.59,1.24-.7,1.56-.7.6,0,1.3.43,3.14,2,1.62,1.35,1.83,1.57,1.83,2.05s-.21.65-.81.87a15.37,15.37,0,0,0-1.73.75C25.87,27.38,16.74,35.91,2.21,41.26a3.76,3.76,0,0,0-.75.27,3,3,0,0,1-.49.1c-.43,0-1-.43-1-.81,0-.16.11-.27.76-.43Z"/><path class="cls-1" d="M69.28,9.72c1.62.86,2.81,1.94,2.81,2.43,0,.22,0,.27-.49.65a4.39,4.39,0,0,0-.7,2,46.78,46.78,0,0,1-5.18,13.12C62.8,32.72,56.38,39,54.32,39a.61.61,0,0,1-.64-.6c0-.21.16-.43.54-.64,2.21-1.41,5.29-5,7.56-8.91,2.86-4.92,5.13-12.15,5.13-16.31a3,3,0,0,0-1.79-2.92c-.27-.11-.37-.27-.37-.43s.32-.43.75-.43A9.09,9.09,0,0,1,69.28,9.72Zm7.45,9.13c.06-4.76.11-7.24.11-7.35,0-1.83-.11-2.64-.43-3.13a2.93,2.93,0,0,0-1.08-.76c-.32-.05-.43-.1-.43-.32s1.08-.76,1.73-.76c1,0,1.94.44,3.45,1.52s1.57,1.13,1.57,1.45,0,.27-.43.76a11.23,11.23,0,0,0-1,4.32c-.16,2-.54,10.31-.54,12.15,0,.76.27,1.08.87,1.08,2,0,6.21-2.43,10.1-5.83s9-9.34,10.69-12.42c.32-.65.49-.81.7-.81a.74.74,0,0,1,.59.65c0,.7-2,4.32-4.05,7.29A48.43,48.43,0,0,1,90.23,26a46.51,46.51,0,0,1-7.45,5.13,7.23,7.23,0,0,0-3.29,2.37.62.62,0,0,1-.33.17c-.86,0-3.4-3-3.4-4a2.2,2.2,0,0,1,.22-.64c.59-1,.7-1.57.7-3.68Z"/><path class="cls-1" d="M140.56,23.11a45.58,45.58,0,0,1-5,3.24c2.92,2.54,4.65,5.24,4.65,7.35A2.07,2.07,0,0,1,138,35.53c-1.08,0-1.51-.43-2.43-2.48A23.66,23.66,0,0,0,125,22.25c-.33-.16-.49-.27-.49-.43a.54.54,0,0,1,.54-.44,24.07,24.07,0,0,1,4.59,1.41,26.84,26.84,0,0,1,5.08,2.7c5.34-4.27,10.85-10.15,10.85-11.56,0-1-1.24-1.4-3.78-1.4a96.71,96.71,0,0,0-14.42,1.89,64.52,64.52,0,0,0-9.07,2.64,3.24,3.24,0,0,1-1.08.27,6.6,6.6,0,0,1-3.73-1.83,5.81,5.81,0,0,1-1.29-3.73c0-.59.16-1,.43-1,.11,0,.22.1.32.32.54,1.19,2.22,2,4,2,2.49,0,7.67-.54,16.8-1.73s9.61-1.13,11.61-1.73a7.15,7.15,0,0,1,2.16-.48c1.08,0,2.1.54,5.34,2.91,1,.81,1.46,1.35,1.46,2.05s-.38,1.08-1.56,1.3A10.17,10.17,0,0,0,149.26,17a38.63,38.63,0,0,0-3.19,2.26Z"/><path class="cls-1" d="M197.8,17.87h14.58V19.6h-1c-3.08.38-4.59,1.62-6.32,5.24-2.59,5.56-3.19,6.48-5.73,9.07,2.38,2.54,3.51,3.13,5.62,3.13s3.78-.64,6.8-2.64l.92,1.62c-3.83,2.81-7.29,4.21-10.31,4.21-2.38,0-3.84-.81-6.43-3.51a19.24,19.24,0,0,1-11.77,3.56c-7.4,0-13.18-5-13.18-11.28,0-5,3.89-8.91,11.78-11.77-1.84-3.78-2.49-5.94-2.49-8.16,0-5,4.48-9.07,10.05-9.07,5,0,8.58,3.24,8.58,7.78a8.18,8.18,0,0,1-3.56,6.53c-1.84,1.19-3.13,1.78-6.91,2.92a90.5,90.5,0,0,0,9.72,15.12c3.29-3.89,4.86-7,4.86-9.51,0-2.16-1.25-3.24-3.68-3.24H197.8ZM176.09,28.13c0,5.57,4.38,9.35,10.8,9.35a12.4,12.4,0,0,0,7.51-2.06,156.76,156.76,0,0,1-10.91-16.68C178.09,21.49,176.09,24,176.09,28.13ZM191.59,14a7.28,7.28,0,0,0,3.35-5.94c0-3.14-2.38-6-5-6a5.66,5.66,0,0,0-5.4,5.29c0,1.62.86,4.22,2.27,7.08.21.32.64,1.24.64,1.24A10.07,10.07,0,0,0,191.59,14Z"/><path class="cls-1" d="M243.22,15c1.78,1.08,2.91,2.32,2.91,3.08,0,.27-.16.54-.65.81-.81.54-1,.76-2,2.32A37.1,37.1,0,0,1,227.77,34.4a21.36,21.36,0,0,1-3.94,1.29c-.32,0-.65-.27-.65-.48s.06-.27.92-.65c3.29-1.4,7.88-5,10.8-8.21,3-3.4,5.4-7.61,5.4-9.39a3.65,3.65,0,0,0-2.21-2.7c-.27-.11-.33-.17-.33-.33,0-.32.38-.59.87-.59A13.41,13.41,0,0,1,243.22,15Zm17,1.08A30,30,0,0,1,267.46,24a11.14,11.14,0,0,1,1.51,5,2.75,2.75,0,0,1-2.75,2.86c-1,0-1.51-.64-2.21-2.86-2.38-7.45-7-13.61-12.37-16.2-.54-.16-.65-.27-.65-.48s.33-.44.65-.44C253.31,11.93,257.47,14,260.23,16.09Zm2.7-7.94a2,2,0,0,1-1.84,1.79c-.7,0-1.08-.27-1.51-1a10.14,10.14,0,0,0-5.46-4.54c-.21-.1-.32-.16-.32-.27s.81-.43,1.62-.43C259.2,3.67,262.93,5.94,262.93,8.15Zm5.67-2.91a1.94,1.94,0,0,1-1.79,1.89c-.75,0-1.18-.33-1.67-1.3a9.93,9.93,0,0,0-5-4.16c-.48-.16-.65-.27-.65-.43s.71-.38,1.73-.38C264.87.86,268.6,3.08,268.6,5.24Z"/><path class="cls-1" d="M306.88,16c2.76,1.24,2.76,1.24,2.76,1.78a1.91,1.91,0,0,1-.22.76,12,12,0,0,0-.49,4.32l.11,5.5v6.16l.06,3.73c0,.7,0,1.35,0,1.78,0,1.4-.48,2.21-1.3,2.21-1.62,0-3.51-1.4-3.51-2.64a4.35,4.35,0,0,1,.17-1,173.91,173.91,0,0,0,1.29-18.68,5.49,5.49,0,0,0-.65-3.19,68.82,68.82,0,0,1-14,11.12,24,24,0,0,1-6,2.54c-.22,0-.54-.21-.54-.43s.11-.27.54-.43c8.53-3.89,25.22-20.95,25.22-25.71,0-.54-1-1.51-1.78-1.67-.49-.11-.6-.22-.6-.43,0-.38,1.14-.76,2.22-.76,2,0,6.1,2.92,6.1,4.38,0,.37-.16.54-.65.81a3.88,3.88,0,0,0-1.94,1.62,91.85,91.85,0,0,1-7.51,7.93Z"/><path class="cls-1" d="M344.57,40.23a56.35,56.35,0,0,0,16.58-11.61,45.33,45.33,0,0,0,9.4-12.69,19.05,19.05,0,0,0,2-4.81,1.26,1.26,0,0,0-1.3-1.18c-.21,0-.59.05-1,.1-.16.06-1.29.27-2.43.44-.91.16-1.67.27-2.1.32a4.6,4.6,0,0,1-1.08.16,4.22,4.22,0,0,1-2.11-.75,53.43,53.43,0,0,1-8.91,10.85c-2.59,2.38-6.15,4.81-7,4.81-.32,0-.59-.17-.59-.38,0-.38.11-.49,1.46-1.46,2.26-1.57,5.88-5.72,8.85-10.1C358.56,10.48,360,7.4,360,5.62a3.46,3.46,0,0,0-2-3.35c-.22-.06-.38-.22-.38-.33,0-.27.59-.48,1.46-.48a6.43,6.43,0,0,1,3.78,1.35c1.94,1.29,2.37,1.73,2.37,2.48,0,.33-.05.43-.37.81a9.52,9.52,0,0,0-.92,1.35c-.38.87-.54,1.14-.76,1.57a3.69,3.69,0,0,0,1.3.21,34.49,34.49,0,0,0,6.48-1.18,10.07,10.07,0,0,0,2.05-1c.92-.59,1.24-.7,1.56-.7.6,0,1.3.43,3.14,2,1.62,1.35,1.83,1.57,1.83,2.05s-.21.65-.81.87A15.37,15.37,0,0,0,377,12c-7.66,15.34-16.79,23.87-31.32,29.22a3.76,3.76,0,0,0-.75.27,3,3,0,0,1-.49.1c-.43,0-1-.43-1-.81,0-.16.11-.27.76-.43Z"/><path class="cls-1" d="M421.09,6.16a50.79,50.79,0,0,1,.76,6.53c0,5.45-2.49,11.88-6.59,17.17-3.13,4-6.05,6-8.86,6a4.82,4.82,0,0,1-3.72-2,12.61,12.61,0,0,1-2.81-8.53c0-11.45,9.94-20.85,22-20.85,10.69,0,18.15,6.7,18.15,16.31,0,8.59-5.08,15.55-13.61,18.63A32.72,32.72,0,0,1,419,41.2c-.38,0-.7-.27-.7-.48s.16-.22.92-.44a24.43,24.43,0,0,0,10.2-5.34c3.89-3.35,6.16-8.86,6.16-15.07,0-5-1.57-8.64-4.65-11A13.94,13.94,0,0,0,422.6,6.1Zm-2.16.21a19.21,19.21,0,0,0-15.82,19.12c0,4,1.51,7,3.56,7,2.33,0,6.65-4.38,9.29-9.4,2.11-4.1,3.78-9.66,3.78-12.74a10.7,10.7,0,0,0-.7-3.73Z"/><path class="cls-1" d="M52.6,79.93a4.91,4.91,0,0,1-.71.38,54,54,0,0,1-8.64,17.82,28.06,28.06,0,0,1-8.2,7.45,6.28,6.28,0,0,1-2.22.86.53.53,0,0,1-.54-.43c0-.16.06-.21.65-.65a29.34,29.34,0,0,0,9.72-11.28,40.06,40.06,0,0,0,3.67-9.94,30.93,30.93,0,0,0,.92-5.24,1.77,1.77,0,0,0-1.46-2c-.16-.06-.27-.17-.27-.27,0-.33.49-.65,1-.65,1.35,0,3.62,1.19,5.73,3,3.94-2.32,7.88-5.84,7.88-7.08,0-.64-1-1-3-1a111.22,111.22,0,0,0-11.67,1.4,43.4,43.4,0,0,0-8.74,2.49c-1,.48-1.19.54-1.46.54-1.14,0-3-1.25-4-2.65-.65-1-.75-1.24-.86-3.13v-.33a.47.47,0,0,1,.48-.48c.22,0,.27,0,.49.48.38,1,2.32,1.95,3.83,1.95.44,0,1.08-.06,2-.11.48-.06,1.62-.16,3.35-.27s3.24-.22,3.78-.27c1.94-.22,3.88-.49,5.88-.7,8-.87,8.43-.92,11.45-1.84a5.2,5.2,0,0,1,.81-.11c.76,0,1.73.81,3.35,2.81.59.76,1,1.24,1.19,1.46.75.76.91,1,.91,1.57s-.37.86-1.18.91c-2.87.27-3.68.54-7.13,2.27-2,1-2.54,1.19-5.35,2.43Z"/><path class="cls-1" d="M102.71,81.28c.05,9.67.16,14.8.43,18.41.11,1.14.16,2,.16,2.43,0,2.27-.81,3.95-1.94,3.95s-2.86-2.43-2.86-3.78a7.31,7.31,0,0,1,.16-1.41c.43-3,.86-15,.86-25.76,0-5.07-.21-6.91-.86-8a2.7,2.7,0,0,0-2.59-1.35c-.38,0-.54-.16-.54-.49s.16-.37.48-.54a15.32,15.32,0,0,1,3.3-.86c.81,0,1.56.38,3.94,1.89.7.49,1,.87,1,1.24a2.76,2.76,0,0,1-.27,1c-.86,1.46-1.18,4-1.29,10a23.18,23.18,0,0,1,11.34,3.51c2.91,2,4.26,3.73,4.26,5.46a2.2,2.2,0,0,1-2.26,2.37c-1.19,0-1.79-.48-3.14-2.53A19.32,19.32,0,0,0,102.71,79Z"/><path class="cls-1" d="M158.87,100.77c-3.94,2.27-8.86,4.11-11,4.11-.48,0-.86-.27-.86-.54s.11-.33.43-.38a37.93,37.93,0,0,0,11.18-5.72c4.86-3.73,8.42-7.62,10.58-11.72C171.13,83,172,80.85,172,79.77c0-.92-.59-1.41-1.73-1.41a95.38,95.38,0,0,0-9.5,1.25,69.71,69.71,0,0,0-9.4,2.43,2,2,0,0,1-.86.21c-.65,0-1.78-.7-3.08-1.89A5.42,5.42,0,0,1,146,76.8c0-.43.16-.7.48-.7.16,0,.22.05.33.37.32,1.08,2.37,2,4.48,2,.86,0,.86,0,7.4-.65,4.37-.49,7-.76,7.77-.86a18,18,0,0,0,6.05-1.68,3.44,3.44,0,0,1,1-.27c1,0,4.92,3.08,4.92,3.89,0,.48-.22.7-1.95,2C171,91.38,166.7,96.18,158.87,100.77Zm-7.94-34c.54.81,1.78,1.19,3.78,1.19,3.94,0,10.1-1.08,12.69-2.21a3.51,3.51,0,0,1,1.67-.49c.54,0,1,.22,2.65,1.08,1.13.6,1.51,1,1.51,1.51s-.48.87-2.48,1.08c-2.76.33-2.86.33-7.08,1.08a52.23,52.23,0,0,1-8.15,1,4.32,4.32,0,0,1-4.1-2,9,9,0,0,1-1.08-2.32c0-.11.1-.27.21-.27S150.71,66.43,150.93,66.75Z"/><path class="cls-1" d="M201.47,104.23a56.35,56.35,0,0,0,16.58-11.61,45.33,45.33,0,0,0,9.4-12.69,19.45,19.45,0,0,0,2-4.81,1.26,1.26,0,0,0-1.3-1.18c-.22,0-.59,0-1,.1-.16.06-1.29.27-2.43.44-.91.16-1.67.27-2.1.32a4.6,4.6,0,0,1-1.08.16,4.22,4.22,0,0,1-2.11-.75,53.43,53.43,0,0,1-8.91,10.85c-2.59,2.38-6.15,4.81-7,4.81-.32,0-.59-.17-.59-.38,0-.38.11-.49,1.46-1.46,2.26-1.57,5.88-5.72,8.85-10.1,2.27-3.45,3.67-6.53,3.67-8.31a3.46,3.46,0,0,0-2-3.35c-.22-.06-.38-.22-.38-.33,0-.27.59-.48,1.46-.48a6.43,6.43,0,0,1,3.78,1.35c1.94,1.29,2.37,1.73,2.37,2.48,0,.33,0,.43-.38.81a9.7,9.7,0,0,0-.91,1.35c-.38.87-.54,1.13-.76,1.57a3.69,3.69,0,0,0,1.3.21A34,34,0,0,0,227.83,72a10.08,10.08,0,0,0,2-1c.92-.59,1.24-.7,1.56-.7.6,0,1.3.43,3.14,2,1.62,1.35,1.83,1.57,1.83,2s-.21.65-.81.87a15.37,15.37,0,0,0-1.73.75c-7.66,15.34-16.79,23.87-31.32,29.22a3.76,3.76,0,0,0-.75.27,3,3,0,0,1-.49.1c-.43,0-1-.43-1-.81,0-.16.11-.27.76-.43Z"/><path class="cls-1" d="M266.33,80c2.05,1.35,3,2.6,3,4.22a2.29,2.29,0,0,1-2.16,2.21c-.87,0-1.35-.38-1.84-1.3a12.33,12.33,0,0,0-6.8-6c-.33-.11-.49-.22-.49-.38s.87-.54,1.95-.54A13.51,13.51,0,0,1,266.33,80Zm-.65,22.52c-1,0-3.08-1.35-4.16-2.7a5.88,5.88,0,0,1-1.46-3.18,8.7,8.7,0,0,1-.05-1.14c0-.54.16-.81.49-.81.16,0,.27.06.7.7A4,4,0,0,0,265,97.43c1.84,0,5.13-1.46,9.29-4.16A110.13,110.13,0,0,0,290.9,79a53.9,53.9,0,0,0,5.78-7.18c.43-.65.65-.87.86-.87s.38.33.38.6c0,1-2.65,5.56-5.29,9a78.86,78.86,0,0,1-23.28,19.82c-1.78,1-2.54,1.45-2.64,1.56A1.24,1.24,0,0,1,265.68,102.5Zm7.13-32.56c2.05,1.24,3,2.59,3,4.32a2.43,2.43,0,0,1-2.32,2.54c-.92,0-1.24-.27-1.84-1.46a11.94,11.94,0,0,0-7.93-6.1c-.38,0-.54-.11-.54-.33,0-.43,1-.7,2.59-.7A15.63,15.63,0,0,1,272.81,69.94Z"/><path class="cls-1" d="M342.68,86c.11-.87.17-1.51.17-1.62,0-.81-.87-1.46-2-1.46a144,144,0,0,0-16,2.48,6.85,6.85,0,0,1-2.21.49,5.22,5.22,0,0,1-3.13-1.73,3.9,3.9,0,0,1-1-2.48c0-.6.21-1,.53-1s.22,0,.33.43c.32,1,1.84,1.51,4.7,1.51,1.94,0,9.45-.76,16.25-1.67a10,10,0,0,0,1.78-.76c1.14-.65,1.41-.76,1.79-.76,1.08,0,4.8,3,4.8,3.89,0,.27-.05.33-.81.87-1.4,1.13-1.89,2.8-4.1,15,2.16.81,3,1.46,3,2.37,0,.49-.27.87-.65.87a7.6,7.6,0,0,1-.76-.11,24.91,24.91,0,0,0-5.5-.76,62.72,62.72,0,0,0-14.15,2.22,4.44,4.44,0,0,1-2,.48c-1.29,0-4.16-2.7-4.16-3.94A.35.35,0,0,1,320,100c.05,0,.32.11.54.16a9.63,9.63,0,0,0,3.29.65c.33,0,.81-.06,1.35-.11l4.54-.32c5.94-.49,9.07-.81,11.45-1.08l.86-7.13a14.66,14.66,0,0,0-2-.11,97.81,97.81,0,0,0-14.58,1.84,7.4,7.4,0,0,1-1.67.32,3.92,3.92,0,0,1-3-2.32,2.67,2.67,0,0,0-.22-.6,2.41,2.41,0,0,1-.1-.43.34.34,0,0,1,.27-.27c.16,0,.21.06.54.27a3.24,3.24,0,0,0,2.26.7c.76,0,.76,0,4.86-.32,2.11-.16,4.22-.38,6.27-.54a13.86,13.86,0,0,0,4.7-.86,2.43,2.43,0,0,1,.7-.17c.43,0,.54.06,2.1,1.25Z"/><path class="cls-1" d="M388,76.8a2.26,2.26,0,0,1-2.48,2.32c-.7,0-1.08-.27-1.62-1.24a11.86,11.86,0,0,0-8.32-6.64c-.32-.11-.48-.22-.48-.38,0-.38,1-.65,2.54-.65C382.86,70.21,388,73.5,388,76.8Zm-7,24c-.81,0-2.59-1.29-3.88-2.8a4,4,0,0,1-1.35-3.41c0-1,.27-1.83.64-1.83.22,0,.33.11.44.38a3.81,3.81,0,0,0,3.24,2.75c2.21,0,8.74-4,16.57-10.26a106.7,106.7,0,0,0,10.1-9c1.08-1.08,4-4.43,4.54-5.08s.65-.86.92-.86a.44.44,0,0,1,.43.49c0,.86-2.38,4.53-5.08,7.83A84,84,0,0,1,396,90.62a82.55,82.55,0,0,1-12.86,8.86C382.16,100.4,381.56,100.77,381,100.77Z"/></g></g></svg>