<svg xmlns="http://www.w3.org/2000/svg" viewBox="0 0 625.64 32.65"><defs><style>.cls-1{isolation:isolate;}.cls-2{fill:#333;}</style></defs><title>mobipark-kids-car-title</title><g id="Layer_2" data-name="Layer 2"><g id="Layer_1-2" data-name="Layer 1"><g class="cls-1"><path class="cls-2" d="M10.15,18.75l0-2.34c0-.39,0-1.15,0-2.16a11.24,11.24,0,0,1-4.42.94,2,2,0,0,1-1.91-.94,1.85,1.85,0,0,1-.43-1.08c0-.72.11-1.11.29-1.11s.11,0,.14.18c.11.57,1,1,2.38,1a9.25,9.25,0,0,0,4-.86,48.05,48.05,0,0,0-.21-5.22C9.68,5.9,9.21,5.4,8.28,5.4a1.53,1.53,0,0,0-.44,0,1.44,1.44,0,0,1-.32,0c-.11,0-.14-.07-.14-.18,0-.68,1.15-1.55,2.05-1.55,1.18,0,3.16,1.34,3.16,2.13a3,3,0,0,1-.18.68,6.6,6.6,0,0,0-.36,1.69,10.85,10.85,0,0,0,3.82,1.12l.82,0c.33,0,.65.43.65.94,0,1.22-1.51,2.19-5.65,3.6,0,1.44-.07,2.45-.07,3.27,0,.36,0,1.16,0,2,3.92-2.3,7.09-3.38,10-3.38a5.67,5.67,0,0,1,5.9,6A7.17,7.17,0,0,1,20,29.16c-2.95,0-4.72-1.84-4.72-4.9,0-1.26.47-2.7.91-2.7.1,0,.21.07.21.15a1.17,1.17,0,0,1-.11.39,10,10,0,0,0-.18,1.73,3.9,3.9,0,0,0,1.26,2.66,4.11,4.11,0,0,0,2.41.79,5.19,5.19,0,0,0,5.18-5.5c0-3-1.54-4.61-4.35-4.61-2.52,0-4.78.83-8.85,3.28v1A52.59,52.59,0,0,0,12,26.78a12,12,0,0,1,.11,1.33,2.82,2.82,0,0,1-2.67,2.41c-.25,0-.36-.14-.36-.46a7.37,7.37,0,0,0-3.63-5.33,10.91,10.91,0,0,0-2,1.73,1.14,1.14,0,0,1-.86.5A3.46,3.46,0,0,1,0,24.37c0-.61.32-.83,1.22-.83,2.38-.07,3-.25,4.18-1,.1-.08.79-.47,1.47-.83l3.28-1.87Zm0,4.43c0-.22,0-.29,0-2.05a27.54,27.54,0,0,0-4.1,3.13,22.94,22.94,0,0,1,2.7,2c.43.36.65.47.86.47s.54-.47.54-1.4Zm4.17-12.89c0-.17-.11-.28-.76-.64s-.89-.51-1.69-1c-.1,1-.1,1.59-.14,3.35C13.28,11.48,14.32,10.76,14.32,10.29Zm8.42.8a2,2,0,0,1-.54.18A.31.31,0,0,1,22,11c0-.58,2.62-1.44,4.32-1.44a6.59,6.59,0,0,1,4.64,1.73A4.85,4.85,0,0,1,32.17,14a1.9,1.9,0,0,1-1.91,1.77c-.36,0-.47-.18-.72-1.3A5.9,5.9,0,0,0,27.81,12a5.32,5.32,0,0,0-3.27-1.19A7.05,7.05,0,0,0,22.74,11.09Z"/><path class="cls-2" d="M39.37,16.38c3.67.18,5.22.21,7.09.21h7.91V9.83l2.05.29A52.66,52.66,0,0,0,61.5,4H50.63c-1.72,0-3,0-5.93.15L44.23,3c3.2.14,4.46.18,6.4.18H62L63.8,1.4l2.77,2.34a1.18,1.18,0,0,1,.51.9c0,.44-.33.69-1.08.72l-1.91.08a48.92,48.92,0,0,1-6.55,5c.4.22.58.4.58.62s-.33.64-.72.79l-.44.18v4.53h9.25L68.69,14l3.21,2.45a.72.72,0,0,1,.28.54c0,.28-.21.43-.57.43H57V30c0,.86-.21,1.15-1.15,1.73a3.51,3.51,0,0,1-1.62.65c-.39,0-.57-.26-.57-.8a1.2,1.2,0,0,0-.07-.54s0,0-1-.36l-3.17-1,0-.54h3.92c.93,0,1-.07,1-.94V17.46H46.46c-1.48,0-2.77,0-6.73.18Z"/><path class="cls-2" d="M79.06,8.46c2.74.11,3.13.11,5.83.14V.14l2.85.22c.43,0,.72.25.72.58a1,1,0,0,1-.51.79l-.9.61V8.6h1.23l1.61-2,2.16,2.34a.7.7,0,0,1,.15.36c0,.14-.07.22-.29.22H87.05v4.78c2.74.8,4.36,2.24,4.36,3.93a1.42,1.42,0,0,1-1.33,1.55,1.16,1.16,0,0,1-.91-.44c-.14-.18-.14-.18-.71-2.05a3.69,3.69,0,0,0-1.41-2V31.68c0,.57-.75,1-1.83,1-.25,0-.36-.11-.36-.43v-14a51.63,51.63,0,0,1-4.72,7c-.39.54-.64.76-.79.76a.35.35,0,0,1-.32-.29,1,1,0,0,1,.22-.54A44.39,44.39,0,0,0,84.89,9.47c-2.55,0-3,0-5.47.11Zm20.48,7.77H97.49c-1.55,0-2.81,0-5.8.15l-.43-1.19c2.95.14,4,.18,6.23.18h2.05V11.81H97.13c-1.12,0-2.09,0-4.39.1l-.43-1.11c2.37.11,3.31.14,4.82.14h2.41V7.27H97.67c-1.87,0-3.1,0-5.87.15l-.36-1.19c2.88.14,3.74.18,6.23.18h4.93A36.86,36.86,0,0,0,104.43,0l2.7,1.33c.39.22.58.43.58.72s-.15.36-.44.51l-.86.36-.9,1.33c-.43.61-.79,1.11-1.26,1.8-.07.11-.21.36-.25.36h3.13L109,4.25l2.34,2.12a1,1,0,0,1,.36.58c0,.18-.21.32-.47.32H101.7v3.67h4.64L108,9l2.3,2.05a.73.73,0,0,1,.25.47c0,.21-.1.29-.36.29H101.7v3.56h5.57l2.16-2.2,2.38,1.91c.36.29.5.51.5.69a.5.5,0,0,1-.5.46H101.7v1.55a15.16,15.16,0,0,0,2.44,4.14,24.12,24.12,0,0,0,4.21-4.57l2,1.69a1,1,0,0,1,.36.61c0,.22-.26.36-.65.44l-.94.18-4.24,2.41a22.73,22.73,0,0,0,8.38,5.68,6.54,6.54,0,0,0-3.09,2.24,24.24,24.24,0,0,1-8.42-10.51v9.14c0,1.44-.11,1.76-.87,2.34a3,3,0,0,1-1.58.61c-.4,0-.58-.22-.61-.65-.07-.86-.07-.86-.54-1.08l-2.74-.9,0-.57,2.88.07h.11a1.9,1.9,0,0,0,.82-.22c.26-.14.33-.29.33-.79V24l-6.66,4.5-.29,1a.8.8,0,0,1-.61.58c-.14,0-.25-.08-.65-.44l-2.41-2.3a99.43,99.43,0,0,0,10.62-4.43Zm-6.77,1.7c2.49.43,4.21,2.05,4.21,4a1.26,1.26,0,0,1-1.33,1.4c-.65,0-.9-.25-1-1-.47-2.45-.58-2.66-2-4.07ZM94.25.5a6.17,6.17,0,0,1,3.42,1.66A3.37,3.37,0,0,1,99,4.46a1.44,1.44,0,0,1-1.29,1.48c-.65,0-.94-.32-1.3-1.55A7,7,0,0,0,94.07.79Z"/><path class="cls-2" d="M137,7a33.44,33.44,0,0,1,.5,4.36,19.82,19.82,0,0,1-4.39,11.45c-2.09,2.69-4,4-5.9,4a3.22,3.22,0,0,1-2.48-1.37,8.39,8.39,0,0,1-1.87-5.69c0-7.63,6.62-13.89,14.67-13.89,7.13,0,12.09,4.46,12.09,10.87,0,5.72-3.38,10.36-9.06,12.42a22,22,0,0,1-4.93,1.18c-.25,0-.47-.18-.47-.32s.11-.14.61-.29a16.25,16.25,0,0,0,6.8-3.56,13.12,13.12,0,0,0,4.1-10c0-3.32-1-5.76-3.09-7.31A9.27,9.27,0,0,0,138,7Zm-1.44.15A12.81,12.81,0,0,0,125,19.87c0,2.66,1,4.68,2.38,4.68,1.55,0,4.42-2.92,6.19-6.26a22.89,22.89,0,0,0,2.52-8.5,7,7,0,0,0-.47-2.48Z"/><path class="cls-2" d="M160.29,25.12c3.78.15,5.32.18,7.09.18h7.8V20.88h-7.3l0,1.4c0,.51-1,1-1.91,1-.4,0-.54-.15-.54-.51V8.67l2.73,1.41h7V6h-7.34c-.82,0-1.87,0-3.13.07l-3.52.11-.4-1.26c4,.18,5.47.22,7.05.22h7.34V.25l3.1.36a.81.81,0,0,1,.72.72,1,1,0,0,1-.5.76l-.94.54V5.15h9.79l2.23-2.45,2.69,2.12a1,1,0,0,1,.36.69.48.48,0,0,1-.43.5H177.56v4.07h7.37l1.16-1.48,2.12,2.23a.81.81,0,0,1,.29.55.68.68,0,0,1-.33.5l-.68.36v9.39c0,.62-.76,1.08-1.8,1.08-.47,0-.68-.14-.68-.43v-1.4h-7.45V25.3h9.53l2.41-2.62,3.06,2.41a.84.84,0,0,1,.4.68c0,.25-.18.4-.5.4h-14.9v5.18c0,.58-.86,1-1.87,1-.33,0-.51-.18-.51-.58V26.17h-7.8c-1.51,0-2.74,0-6.77.18Zm14.89-10.07V10.94h-7.3v4.11Zm0,5v-4.1h-7.3V20Zm9.83-5V10.94h-7.45v4.11Zm0,5v-4.1h-7.45V20Z"/><path class="cls-2" d="M218.66,14.79h9.71V16h-.68c-2.05.25-3.06,1.08-4.21,3.49-1.73,3.71-2.13,4.32-3.82,6,1.59,1.7,2.34,2.09,3.75,2.09s2.51-.43,4.53-1.76l.61,1.08c-2.55,1.87-4.86,2.81-6.87,2.81-1.59,0-2.56-.54-4.28-2.34a12.9,12.9,0,0,1-7.85,2.37c-4.93,0-8.78-3.31-8.78-7.52,0-3.35,2.59-5.94,7.85-7.85-1.23-2.52-1.66-4-1.66-5.43,0-3.35,3-6,6.7-6,3.3,0,5.72,2.16,5.72,5.18A5.46,5.46,0,0,1,217,12.42a15.07,15.07,0,0,1-4.6,1.94,60.38,60.38,0,0,0,6.47,10.08c2.2-2.59,3.24-4.68,3.24-6.33,0-1.44-.83-2.16-2.45-2.16h-1Zm-14.47,6.84c0,3.71,2.92,6.23,7.2,6.23a8.22,8.22,0,0,0,5-1.37,103.25,103.25,0,0,1-7.27-11.12C205.52,17.21,204.19,18.9,204.19,21.63Zm10.33-9.43a4.85,4.85,0,0,0,2.23-4c0-2.08-1.58-4-3.35-4a3.77,3.77,0,0,0-3.59,3.53,12.55,12.55,0,0,0,1.51,4.71c.14.22.43.83.43.83A6.82,6.82,0,0,0,214.52,12.2Z"/><path class="cls-2" d="M249.28,12.89c1.19.72,1.95,1.54,1.95,2,0,.18-.11.36-.44.54-.54.36-.64.5-1.36,1.55A24.83,24.83,0,0,1,239,25.81a14.21,14.21,0,0,1-2.62.86c-.22,0-.44-.18-.44-.32s0-.18.62-.43a24.4,24.4,0,0,0,7.19-5.47c2-2.27,3.6-5.08,3.6-6.27a2.46,2.46,0,0,0-1.47-1.8c-.19-.07-.22-.11-.22-.21s.25-.4.58-.4A8.63,8.63,0,0,1,249.28,12.89Zm11.34.72a20,20,0,0,1,4.82,5.29,7.53,7.53,0,0,1,1,3.35,1.84,1.84,0,0,1-1.84,1.9c-.68,0-1-.43-1.47-1.9-1.59-5-4.68-9.08-8.24-10.8-.36-.11-.44-.18-.44-.33s.22-.29.44-.29C256,10.83,258.78,12.2,260.62,13.61Zm1.8-5.29a1.34,1.34,0,0,1-1.23,1.18,1,1,0,0,1-1-.68,6.87,6.87,0,0,0-3.64-3c-.14-.07-.22-.1-.22-.17s.55-.29,1.09-.29C259.93,5.33,262.42,6.84,262.42,8.32Zm3.77-1.95A1.28,1.28,0,0,1,265,7.63c-.51,0-.8-.21-1.12-.86A6.47,6.47,0,0,0,260.58,4c-.32-.11-.43-.18-.43-.29s.47-.25,1.15-.25C263.71,3.46,266.19,4.93,266.19,6.37Z"/><path class="cls-2" d="M292.61,13.57c1.84.83,1.84.83,1.84,1.19a1.16,1.16,0,0,1-.15.5,8.13,8.13,0,0,0-.32,2.88l.07,3.67v4.11l0,2.48c0,.47,0,.9,0,1.19,0,.93-.32,1.47-.86,1.47-1.08,0-2.34-.93-2.34-1.76a2.94,2.94,0,0,1,.11-.68,116.08,116.08,0,0,0,.86-12.46,3.69,3.69,0,0,0-.43-2.12,45.79,45.79,0,0,1-9.35,7.41,15.83,15.83,0,0,1-4,1.7c-.14,0-.36-.15-.36-.29s.07-.18.36-.29c5.69-2.59,16.8-14,16.8-17.13,0-.36-.68-1-1.18-1.12-.33-.07-.4-.14-.4-.29s.76-.5,1.48-.5c1.33,0,4.06,1.94,4.06,2.91,0,.26-.11.36-.43.54a2.6,2.6,0,0,0-1.29,1.08,59.84,59.84,0,0,1-5,5.29Z"/><path class="cls-2" d="M313.24,29.7a37.82,37.82,0,0,0,11-7.74,29.9,29.9,0,0,0,6.26-8.46,12.58,12.58,0,0,0,1.33-3.21A.83.83,0,0,0,331,9.5a6.53,6.53,0,0,0-.68.08c-.11,0-.87.17-1.62.28s-1.12.18-1.41.22a3.24,3.24,0,0,1-.72.11,2.74,2.74,0,0,1-1.4-.51,35.55,35.55,0,0,1-5.94,7.24c-1.72,1.58-4.1,3.2-4.67,3.2-.22,0-.4-.11-.4-.25s.07-.32,1-1a30.14,30.14,0,0,0,5.9-6.73c1.51-2.31,2.45-4.36,2.45-5.55a2.31,2.31,0,0,0-1.33-2.23c-.15,0-.25-.14-.25-.21s.39-.33,1-.33a4.33,4.33,0,0,1,2.52.9c1.29.87,1.58,1.15,1.58,1.66,0,.21,0,.29-.25.54a5.5,5.5,0,0,0-.61.9c-.26.57-.36.75-.51,1a2.42,2.42,0,0,0,.87.15,22.68,22.68,0,0,0,4.31-.8,6.75,6.75,0,0,0,1.37-.65c.61-.39.83-.46,1-.46.4,0,.87.29,2.09,1.33s1.22,1,1.22,1.37-.14.43-.54.57a12.05,12.05,0,0,0-1.15.51C329.71,21.13,323.63,26.82,314,30.38a3.45,3.45,0,0,0-.51.18,1.44,1.44,0,0,1-.32.07c-.29,0-.65-.29-.65-.54s.07-.18.5-.29Z"/><path class="cls-2" d="M363.69,7a33.44,33.44,0,0,1,.5,4.36,19.75,19.75,0,0,1-4.39,11.45c-2.09,2.69-4,4-5.9,4a3.22,3.22,0,0,1-2.48-1.37,8.39,8.39,0,0,1-1.87-5.69c0-7.63,6.62-13.89,14.68-13.89,7.12,0,12.09,4.46,12.09,10.87,0,5.72-3.39,10.36-9.07,12.42a21.89,21.89,0,0,1-4.93,1.18c-.25,0-.47-.18-.47-.32s.11-.14.61-.29a16.19,16.19,0,0,0,6.8-3.56,13.12,13.12,0,0,0,4.11-10c0-3.32-1.05-5.76-3.1-7.31A9.27,9.27,0,0,0,364.69,7Zm-1.44.15a12.8,12.8,0,0,0-10.54,12.74c0,2.66,1,4.68,2.37,4.68,1.55,0,4.43-2.92,6.19-6.26a22.89,22.89,0,0,0,2.52-8.5,7,7,0,0,0-.47-2.48Z"/><path class="cls-2" d="M403.67,13.5a2.68,2.68,0,0,1-.47.25,35.93,35.93,0,0,1-5.76,11.88,18.88,18.88,0,0,1-5.46,5,4.16,4.16,0,0,1-1.48.57.35.35,0,0,1-.36-.29c0-.1,0-.14.43-.43a19.45,19.45,0,0,0,6.48-7.52,27,27,0,0,0,2.45-6.62,21.83,21.83,0,0,0,.61-3.5,1.19,1.19,0,0,0-1-1.33c-.11,0-.18-.1-.18-.18s.32-.43.64-.43a7.44,7.44,0,0,1,3.82,2C406,11.3,408.67,9,408.67,8.13c0-.43-.68-.68-2-.68a75.3,75.3,0,0,0-7.78.94A29.23,29.23,0,0,0,393.05,10c-.64.33-.79.36-1,.36a4.16,4.16,0,0,1-2.66-1.76,3.14,3.14,0,0,1-.58-2.09V6.33a.33.33,0,0,1,.33-.32c.14,0,.18,0,.32.32a3.12,3.12,0,0,0,2.56,1.3c.28,0,.72,0,1.29-.07.33,0,1.08-.11,2.23-.18s2.16-.14,2.52-.18L402,6.73c5.37-.57,5.62-.61,7.63-1.22a2.86,2.86,0,0,1,.54-.07c.51,0,1.15.54,2.23,1.87.4.5.69.82.79,1,.51.5.62.68.62,1s-.26.58-.8.61a10.42,10.42,0,0,0-4.75,1.52c-1.33.64-1.69.79-3.56,1.62Z"/><path class="cls-2" d="M433.65,14.4c0,6.44.11,9.86.29,12.27.07.76.1,1.3.1,1.62,0,1.51-.54,2.63-1.29,2.63s-1.91-1.62-1.91-2.52a5.23,5.23,0,0,1,.11-.94c.29-2,.58-10,.58-17.17,0-3.38-.15-4.6-.58-5.32a1.81,1.81,0,0,0-1.73-.9c-.25,0-.36-.11-.36-.33s.11-.25.33-.36a10,10,0,0,1,2.19-.57c.54,0,1,.25,2.63,1.26.47.32.68.57.68.83a1.86,1.86,0,0,1-.18.68c-.57,1-.79,2.66-.86,6.69a15.43,15.43,0,0,1,7.55,2.34c1.95,1.34,2.85,2.49,2.85,3.64a1.47,1.47,0,0,1-1.51,1.58c-.8,0-1.19-.32-2.09-1.69a12.91,12.91,0,0,0-6.8-5.29Z"/><path class="cls-2" d="M466.76,27.39c-2.63,1.51-5.9,2.74-7.34,2.74-.33,0-.58-.18-.58-.36s.07-.22.29-.25a25.51,25.51,0,0,0,7.45-3.82,24.82,24.82,0,0,0,7.05-7.81c1.29-2.38,1.87-3.78,1.87-4.5s-.4-.94-1.15-.94-4.68.51-6.33.83a47.43,47.43,0,0,0-6.27,1.62,1.31,1.31,0,0,1-.57.15,4.15,4.15,0,0,1-2.05-1.26,3.64,3.64,0,0,1-.94-2.38c0-.29.11-.47.33-.47s.14,0,.21.25c.22.72,1.59,1.3,3,1.3.57,0,.57,0,4.93-.43l5.18-.58a12.17,12.17,0,0,0,4-1.11,2.15,2.15,0,0,1,.65-.18c.68,0,3.27,2.05,3.27,2.59,0,.32-.14.47-1.29,1.33C474.82,21.13,472,24.33,466.76,27.39ZM461.47,4.72c.36.53,1.19.79,2.52.79A27.25,27.25,0,0,0,472.44,4a2.36,2.36,0,0,1,1.12-.32c.36,0,.68.14,1.76.72.76.39,1,.65,1,1s-.33.57-1.66.72c-1.83.21-1.9.21-4.71.72a35.08,35.08,0,0,1-5.43.64,2.88,2.88,0,0,1-2.74-1.33,6.06,6.06,0,0,1-.72-1.55c0-.07.07-.18.15-.18S461.32,4.5,461.47,4.72Z"/><path class="cls-2" d="M492.45,29.7A37.72,37.72,0,0,0,503.5,22a29.9,29.9,0,0,0,6.26-8.46,13,13,0,0,0,1.33-3.21.83.83,0,0,0-.86-.79,6.65,6.65,0,0,0-.69.08c-.1,0-.86.17-1.61.28s-1.12.18-1.41.22a3.32,3.32,0,0,1-.72.11,2.74,2.74,0,0,1-1.4-.51,35.55,35.55,0,0,1-5.94,7.24c-1.72,1.58-4.1,3.2-4.67,3.2-.22,0-.4-.11-.4-.25s.07-.32,1-1a30.14,30.14,0,0,0,5.9-6.73c1.51-2.31,2.45-4.36,2.45-5.55a2.31,2.31,0,0,0-1.33-2.23c-.15,0-.26-.14-.26-.21s.4-.33,1-.33a4.35,4.35,0,0,1,2.52.9c1.29.87,1.58,1.15,1.58,1.66,0,.21,0,.29-.25.54a6.3,6.3,0,0,0-.62.9c-.25.57-.35.75-.5,1a2.38,2.38,0,0,0,.87.15,22.82,22.82,0,0,0,4.31-.8,6.75,6.75,0,0,0,1.37-.65c.61-.39.83-.46,1-.46.4,0,.87.29,2.09,1.33s1.22,1,1.22,1.37-.14.43-.54.57a11,11,0,0,0-1.15.51c-5.11,10.22-11.19,15.91-20.87,19.47a3.34,3.34,0,0,0-.5.18,1.44,1.44,0,0,1-.32.07c-.29,0-.65-.29-.65-.54s.07-.18.5-.29Z"/><path class="cls-2" d="M533.51,13.53c1.37.9,2,1.73,2,2.81a1.52,1.52,0,0,1-1.44,1.48c-.57,0-.89-.25-1.22-.87a8.24,8.24,0,0,0-4.53-4c-.22-.07-.33-.15-.33-.25s.58-.36,1.3-.36A9,9,0,0,1,533.51,13.53Zm-.43,15a5.07,5.07,0,0,1-2.77-1.79,3.94,3.94,0,0,1-1-2.13,4.71,4.71,0,0,1,0-.75c0-.37.11-.54.33-.54s.18,0,.47.46a2.65,2.65,0,0,0,2.55,1.37c1.22,0,3.42-1,6.19-2.77a73.92,73.92,0,0,0,11-9.5,37.33,37.33,0,0,0,3.85-4.79c.28-.43.43-.58.57-.58s.25.22.25.4c0,.68-1.76,3.71-3.52,6a52.47,52.47,0,0,1-15.51,13.21c-1.19.68-1.69,1-1.76,1A.83.83,0,0,1,533.08,28.54Zm4.75-21.7c1.37.83,2,1.73,2,2.88a1.62,1.62,0,0,1-1.55,1.69c-.61,0-.83-.18-1.22-1a8,8,0,0,0-5.29-4.07c-.25,0-.36-.07-.36-.21,0-.29.65-.47,1.73-.47A10.5,10.5,0,0,1,537.83,6.84Z"/><path class="cls-2" d="M583.32,17.53c.07-.58.11-1,.11-1.08,0-.54-.58-1-1.33-1a94.58,94.58,0,0,0-10.65,1.65,4.86,4.86,0,0,1-1.48.33,3.53,3.53,0,0,1-2.09-1.15,2.61,2.61,0,0,1-.64-1.66c0-.4.14-.65.36-.65s.14,0,.21.29c.22.68,1.23,1,3.13,1,1.3,0,6.3-.51,10.83-1.12a7,7,0,0,0,1.19-.5c.75-.43.93-.51,1.19-.51.72,0,3.2,2,3.2,2.6,0,.18,0,.21-.54.57-.94.76-1.26,1.87-2.74,10,1.44.54,2,1,2,1.58,0,.33-.18.58-.43.58s-.29,0-.5-.07a16.33,16.33,0,0,0-3.67-.51A41.57,41.57,0,0,0,572,29.41a2.93,2.93,0,0,1-1.29.32c-.87,0-2.77-1.8-2.77-2.63a.23.23,0,0,1,.21-.21s.22.07.36.11a6.47,6.47,0,0,0,2.2.43c.21,0,.54,0,.89-.07s1.48-.11,3-.22c4-.32,6-.54,7.63-.72l.57-4.75a10.22,10.22,0,0,0-1.33-.07,65.23,65.23,0,0,0-9.71,1.22,5.12,5.12,0,0,1-1.12.22,2.64,2.64,0,0,1-2-1.55,2.47,2.47,0,0,0-.14-.4,1.22,1.22,0,0,1-.07-.28.22.22,0,0,1,.17-.19c.11,0,.15,0,.37.19a2.15,2.15,0,0,0,1.51.46c.5,0,.5,0,3.23-.21,1.41-.11,2.81-.25,4.18-.36a9,9,0,0,0,3.13-.58,1.67,1.67,0,0,1,.47-.11c.28,0,.36,0,1.4.83Z"/><path class="cls-2" d="M609.23,11.41A1.5,1.5,0,0,1,607.58,13c-.47,0-.72-.18-1.08-.83A8,8,0,0,0,601,7.7c-.22-.07-.33-.14-.33-.25s.65-.43,1.69-.43C605.78,7,609.23,9.21,609.23,11.41Zm-4.68,16A5.34,5.34,0,0,1,602,25.52a2.66,2.66,0,0,1-.9-2.27c0-.68.18-1.22.44-1.22s.21.07.28.25a2.55,2.55,0,0,0,2.16,1.84c1.48,0,5.83-2.7,11-6.84a72.91,72.91,0,0,0,6.73-6c.72-.72,2.66-2.95,3-3.39s.43-.57.61-.57a.29.29,0,0,1,.29.32c0,.58-1.58,3-3.38,5.22a55.78,55.78,0,0,1-7.7,7.77A54.52,54.52,0,0,1,606,26.53C605.31,27.14,604.91,27.39,604.55,27.39Z"/></g></g></g></svg>