<svg xmlns="http://www.w3.org/2000/svg" viewBox="0 0 283.18 30.13"><defs><style>.cls-1{isolation:isolate;}.cls-2{fill:#333;}</style></defs><title>mobipark-racing-title</title><g id="Layer_2" data-name="Layer 2"><g id="Layer_1-2" data-name="Layer 1"><g class="cls-1"><path class="cls-2" d="M2.63,12.67V11.52c0-.69,0-1.15,0-1.33A2.91,2.91,0,0,0,.29,7.24C.11,7.16,0,7.09,0,7s1.08-.5,1.87-.5,1.58.39,3,1.4a5.56,5.56,0,0,0,.68.5c.44.29.58.43.58.62s0,.1-.22.46a6.51,6.51,0,0,0-.72,2.74c-.28,2.88-.43,5.11-.43,6.73,0,2.48.11,2.84.83,2.84,1.51,0,4.89-1.72,8.42-4.32a53.58,53.58,0,0,0,10.43-10c.33-.47.44-.54.54-.54s.33.25.33.43a12.29,12.29,0,0,1-1.41,2.52,40.73,40.73,0,0,1-8,8.68A40.66,40.66,0,0,1,7.7,23.83a7.68,7.68,0,0,0-2.41,1.66c-.33.35-.54.5-.68.5a6,6,0,0,1-1.52-1C2.45,24.44,2,23.87,2,23.58A1.17,1.17,0,0,1,2.16,23a4.72,4.72,0,0,0,.47-2Z"/><path class="cls-2" d="M40.34,18.14a7,7,0,0,1-1.65.25,4.37,4.37,0,0,1-3.17-1.94,10.11,10.11,0,0,1-.25-2c0-.25.11-.43.29-.43s.18.07.28.25c.47,1.05,1.33,1.41,3.42,1.41a166.64,166.64,0,0,0,20.8-1.48c.32,0,.68-.07,1-.07a2.46,2.46,0,0,1,1.91.79c.68.65.93,1,.93,1.33,0,.54-.72.87-1.87.87-.29,0-.68,0-1.33,0S57,17,55.45,17A97.65,97.65,0,0,0,40.34,18.14Z"/><path class="cls-2" d="M79.71,12.53c1.37.9,2,1.72,2,2.8a1.52,1.52,0,0,1-1.44,1.48A1.27,1.27,0,0,1,79,16a8.24,8.24,0,0,0-4.54-4c-.21-.07-.32-.14-.32-.25s.58-.36,1.3-.36A8.84,8.84,0,0,1,79.71,12.53Zm-.43,15a5,5,0,0,1-2.77-1.8,3.87,3.87,0,0,1-1-2.13,4.71,4.71,0,0,1,0-.75q0-.54.33-.54c.1,0,.18,0,.46.47a2.68,2.68,0,0,0,2.56,1.36c1.22,0,3.42-1,6.19-2.77a73.86,73.86,0,0,0,11-9.5,35.84,35.84,0,0,0,3.85-4.79c.29-.43.43-.57.58-.57s.25.21.25.39c0,.68-1.76,3.71-3.53,6a52.28,52.28,0,0,1-15.5,13.21c-1.19.69-1.69,1-1.77,1.05A.83.83,0,0,1,79.28,27.54ZM84,5.83c1.37.83,2,1.73,2,2.88A1.61,1.61,0,0,1,84.5,10.4c-.61,0-.83-.18-1.23-1A8,8,0,0,0,78,5.36c-.25,0-.36-.07-.36-.21,0-.29.65-.47,1.73-.47A10.51,10.51,0,0,1,84,5.83Z"/><path class="cls-2" d="M121.6,10.4A1.5,1.5,0,0,1,120,12c-.47,0-.72-.18-1.08-.83a7.94,7.94,0,0,0-5.55-4.42c-.21-.08-.32-.15-.32-.26s.65-.43,1.69-.43C118.15,6,121.6,8.21,121.6,10.4Zm-4.68,16a5.34,5.34,0,0,1-2.59-1.87,2.65,2.65,0,0,1-.9-2.26c0-.69.18-1.23.43-1.23s.22.07.29.25a2.55,2.55,0,0,0,2.16,1.84c1.48,0,5.83-2.7,11-6.84a71.23,71.23,0,0,0,6.72-6c.72-.72,2.67-2.95,3-3.38s.43-.58.61-.58a.29.29,0,0,1,.29.32c0,.58-1.59,3-3.39,5.22a55.27,55.27,0,0,1-7.7,7.78,54.4,54.4,0,0,1-8.56,5.9C117.68,26.13,117.28,26.38,116.92,26.38Z"/><path class="cls-2" d="M171.37,10.94a.82.82,0,0,0-.29.11c-3.06,5.47-3.06,5.47-4.71,7.6a32.21,32.21,0,0,1-9.75,8.42c-2.34,1.29-6.44,3.06-7.2,3.06a.39.39,0,0,1-.36-.43c0-.22.07-.26.76-.58a37.86,37.86,0,0,0,11.08-7.67,33.9,33.9,0,0,0,6.26-8.35,7,7,0,0,0,1.11-2.7.8.8,0,0,0-.82-.79c-.18,0-.43,0-.69.07s-.9.18-1.65.29-1.15.18-1.37.22a3.68,3.68,0,0,1-.75.1,2.65,2.65,0,0,1-1.41-.5l-.11-.07a30.2,30.2,0,0,1-5.64,6.41c-1.66,1.51-4.25,3.2-4.86,3.2-.22,0-.4-.11-.4-.25s.07-.25,1-.9a23.15,23.15,0,0,0,5.72-5.94c1.77-2.49,2.6-4.25,2.6-5.54a2.27,2.27,0,0,0-1.3-2.27c-.14,0-.25-.15-.25-.22s.39-.32.93-.32a4.12,4.12,0,0,1,2.52.93c1.3.83,1.59,1.12,1.59,1.62,0,.26,0,.26-.51.83-.36.72-.5,1-.86,1.66a1.3,1.3,0,0,0,.9.25,22.36,22.36,0,0,0,4.32-.83,9.16,9.16,0,0,0,1.36-.65c.61-.39.83-.46,1.05-.46.39,0,.79.25,2.08,1.33,1.08.9,1.23,1,1.23,1.36s0,.33-1,.8Zm2.55-6.26a1.27,1.27,0,0,1-1.15,1.22c-.5,0-.68-.14-1.08-.82a6.73,6.73,0,0,0-3.34-2.81c-.26-.07-.33-.11-.33-.18s.58-.29,1.08-.29C171.51,1.8,173.92,3.24,173.92,4.68ZM178,3a1.29,1.29,0,0,1-1.19,1.23c-.54,0-.72-.15-1.12-.9A6.84,6.84,0,0,0,172.3.47C172.09.4,172,.36,172,.29s.46-.29,1.11-.29C175.58,0,178,1.48,178,3Z"/><path class="cls-2" d="M204.77,9.83c4.42-.72,4.6-.79,5.72-1.59.32-.28.43-.32.68-.32.4,0,.72.18,1.69,1,1.3,1.12,1.41,1.26,1.41,1.62,0,.15-.11.29-.36.43-.58.33-.62.4-1,2.42C211.75,19,211,21.6,209.77,23.72s-2.88,3.38-4.5,3.38c-.25,0-.43-.1-.43-.28v-.26a.85.85,0,0,0,0-.32,5.58,5.58,0,0,0-1.8-3.82c-.33-.28-.4-.32-.4-.39s.25-.32.36-.32,0,0,.47.25l.32.21c1.66,1.12,1.69,1.16,2.2,1.16,1.26,0,2.19-1.3,3.23-4.47a29.29,29.29,0,0,0,1.3-7.34c0-.94-.22-1.3-.79-1.3a34.3,34.3,0,0,0-6.08.9,30.62,30.62,0,0,1-4.75,10.15A20.8,20.8,0,0,1,191,27.5a13.51,13.51,0,0,1-2.44,1,.57.57,0,0,1-.51-.47c0-.14.11-.25.54-.39a23.79,23.79,0,0,0,12.52-16c-1.26.29-3.42.93-4.64,1.36a3.42,3.42,0,0,1-1.37.4,4.89,4.89,0,0,1-2.41-1.22,2.7,2.7,0,0,1-.72-1.91c0-.25.11-.4.29-.4s.15,0,.25.22c.44.75.94,1,2.09,1a54.88,54.88,0,0,0,6.8-.72,40.09,40.09,0,0,0,.58-5A2.65,2.65,0,0,0,200.74,3a.36.36,0,0,1-.11-.21c0-.25.29-.4.86-.4A4.22,4.22,0,0,1,204,3.49c1.22.9,1.36,1,1.36,1.41,0,.14,0,.14-.18.43a12,12,0,0,0-.54,1.83c-.25,1.05-.32,1.3-.5,2-.07.33-.11.44-.22.83Z"/><path class="cls-2" d="M231.44,18.14a7.1,7.1,0,0,1-1.66.25,4.39,4.39,0,0,1-3.17-1.94,10.9,10.9,0,0,1-.25-2c0-.25.11-.43.29-.43s.18.07.29.25c.47,1.05,1.33,1.41,3.42,1.41a166.48,166.48,0,0,0,20.79-1.48c.33,0,.69-.07,1-.07a2.43,2.43,0,0,1,1.91.79c.68.65.94,1,.94,1.33,0,.54-.72.87-1.87.87-.29,0-.69,0-1.34,0s-3.7-.11-5.21-.11A97.44,97.44,0,0,0,231.44,18.14Z"/><path class="cls-2" d="M272.78,13.39c0,6.44.11,9.86.29,12.28.07.75.11,1.29.11,1.61,0,1.52-.54,2.63-1.3,2.63s-1.9-1.62-1.9-2.52a4.37,4.37,0,0,1,.11-.93c.28-2,.57-10,.57-17.17,0-3.39-.14-4.61-.57-5.33a1.81,1.81,0,0,0-1.73-.9c-.25,0-.36-.11-.36-.32s.11-.26.32-.36a10.38,10.38,0,0,1,2.2-.58c.54,0,1,.25,2.62,1.26.47.32.69.58.69.83a1.86,1.86,0,0,1-.18.68c-.58,1-.79,2.67-.87,6.7a15.24,15.24,0,0,1,7.56,2.34c1.94,1.33,2.84,2.48,2.84,3.63a1.48,1.48,0,0,1-1.51,1.59c-.79,0-1.19-.33-2.09-1.7a12.92,12.92,0,0,0-6.8-5.29Z"/></g></g></g></svg>