<svg xmlns="http://www.w3.org/2000/svg" viewBox="0 0 473.81 32.58"><defs><style>.cls-1{isolation:isolate;}.cls-2{fill:#333;}</style></defs><title>Asset 3</title><g id="Layer_2" data-name="Layer 2"><g id="Layer_1-2" data-name="Layer 1"><g class="cls-1"><path class="cls-2" d="M14.25,10.44c.36.18.54.32.54.57a1.33,1.33,0,0,1-.11.44c-.25.43-.36,1.29-.61,3.85,6.55-.79,8.63-1.19,10-2a1.82,1.82,0,0,1,.62-.18A8,8,0,0,1,27,14.36c.76.51,1.08.83,1.08,1.12a.83.83,0,0,1-.86.75c-.18,0-.58,0-.94-.07-.72-.11-3.13-.21-4.17-.21a78.67,78.67,0,0,0-8.13.57c0,2.45,0,2.52-.08,3.06,0,.87,0,1.41,0,1.62,0,1.73.21,2.81.65,3.35.64.72,1.47,1,3,1a18.06,18.06,0,0,0,5.11-.65,2.68,2.68,0,0,1,1.15-.25A1.31,1.31,0,0,1,25,25.3a2.6,2.6,0,0,1,.47,1.16c0,.86-2.34,1.51-5.29,1.51a14.34,14.34,0,0,1-6.08-1.12c-1.44-.82-2-2-2.12-4.1,0-.4,0-.68,0-2.92,0-2,0-2,0-3A36.24,36.24,0,0,0,5,18.68a5.49,5.49,0,0,1-2.16.58C1.58,19.26,0,17.53,0,16.16,0,16,.07,16,.25,16s.15,0,.33.21a3.22,3.22,0,0,0,2.26.65c1.05,0,5.47-.61,9.11-1.26,0-1.58,0-1.69,0-2.09,0-2.23-.07-2.59-.47-3.09A21.88,21.88,0,0,1,7.59,11a2.61,2.61,0,0,1-2.34-1.4,4.44,4.44,0,0,1-.5-1.16.15.15,0,0,1,.14-.14c.08,0,.11,0,.18.14.29.47.94.69,2,.69a26.43,26.43,0,0,0,5-.79c3.6-.83,3.85-.9,5.26-1.59a2.6,2.6,0,0,1,1-.36,5.9,5.9,0,0,1,1.77.69c.39.21.57.43.57.68,0,.61-.36.76-4,1.51l-2.44.5a7.39,7.39,0,0,1-.94.22Z"/><path class="cls-2" d="M43.69,14.51c0,6.08.07,9.32.25,11.8.07.69.11,1.23.11,1.51,0,1.48-.54,2.56-1.23,2.56S41,28.8,41,27.93c0-.21,0-.5.07-.86.32-1.91.58-9.68.58-16.49,0-3.2-.15-4.46-.54-5.11a1.79,1.79,0,0,0-1.69-.9c-.22,0-.33-.11-.33-.29s.11-.25.29-.32a8.32,8.32,0,0,1,2.12-.58c.51,0,1,.26,2.48,1.23.51.32.69.54.69.79a1.73,1.73,0,0,1-.18.65c-.54.93-.76,2.52-.83,6.41a14.47,14.47,0,0,1,7.27,2.26c1.87,1.26,2.73,2.38,2.73,3.49a1.42,1.42,0,0,1-1.44,1.52c-.75,0-1.18-.33-2-1.66a12.28,12.28,0,0,0-6.55-5Z"/><path class="cls-2" d="M67.55,11c1.69,1.08,2.66,2.41,2.66,3.71,0,1-.54,1.65-1.37,1.65a1.13,1.13,0,0,1-.93-.47c-.11-.18-.11-.18-.33-1-.72-2.09-2.33-4.14-3.67-4.61-.21-.07-.28-.14-.28-.25s.18-.22.43-.22A7,7,0,0,1,67.55,11Zm9.28,12c-3.56,3.06-7.73,5.33-11.15,6-.25.07-.51.11-.54.14a1,1,0,0,1-.29,0c-.22,0-.47-.22-.47-.36s.07-.14.4-.25c2.8-.87,7.77-4.1,10.9-7.13a27.93,27.93,0,0,0,5.9-8A16,16,0,0,0,83,8.57a1.67,1.67,0,0,0-1.08-1.66c-.32-.11-.4-.14-.4-.25s.44-.4,1.12-.4a3.27,3.27,0,0,1,2.55,1.37c1.12,1.19,1.52,1.73,1.52,2.05s-.29.61-1,1.08A34.87,34.87,0,0,1,76.83,22.93ZM73.74,7.78c1.58,1.11,2.7,2.84,2.7,4.17a1.61,1.61,0,0,1-1.52,1.58c-.61,0-.9-.32-1-1.15-.43-2.09-2.09-4.68-3.49-5.4-.22-.07-.29-.14-.29-.28s.15-.22.4-.22A6.56,6.56,0,0,1,73.74,7.78Z"/><path class="cls-2" d="M99.94,19a6.71,6.71,0,0,1-1.59.25,4.14,4.14,0,0,1-3-1.87,9,9,0,0,1-.25-1.94c0-.25.11-.4.25-.4s.18.07.29.25c.5,1,1.3,1.37,3.31,1.37a161.91,161.91,0,0,0,19.93-1.44c.36,0,.69-.07,1-.07a2.35,2.35,0,0,1,1.8.76c.65.64.9,1,.9,1.29,0,.51-.68.83-1.8.83-.21,0-.64,0-1.26,0s-4-.1-5.1-.1A95.56,95.56,0,0,0,99.94,19Z"/><path class="cls-2" d="M131.75,7.34a.22.22,0,0,1-.18-.18c0-.25,1.47-.86,2-.86a4.76,4.76,0,0,1,1.83.76c.9.5,1.12.68,1.12,1a2.25,2.25,0,0,1-.07.4,18.53,18.53,0,0,0-.29,4c0,.57,0,1.36.07,2.41,0,.75.07,1.47.07,1.58a6.46,6.46,0,0,0,.08,1.26,2.68,2.68,0,0,1,0,.43.83.83,0,0,1-.72.83,2.24,2.24,0,0,1-1.94-1.66,1.44,1.44,0,0,1,0-.32,36.67,36.67,0,0,0,.18-4.53c0-2.78-.07-3.71-.36-4.25a1.59,1.59,0,0,0-1.54-.9.38.38,0,0,0-.18,0Zm9.89-1.51a.23.23,0,0,1-.14,0c-.11,0-.25-.18-.25-.33s1.51-1,2.16-1c1,0,3.24,1.48,3.24,2.13,0,.14,0,.25-.26.61a5.29,5.29,0,0,0-.39.75,6.15,6.15,0,0,0-.07,1.33c0,2.85-.18,7.1-.33,8.25-.72,4.93-3.92,8.64-9.17,10.65a18.88,18.88,0,0,1-4,1.23c-.25,0-.54-.18-.54-.36s.11-.15.43-.22a20,20,0,0,0,6.8-3.85c3.67-3.74,4.43-6.26,4.43-14.94l0-1.48c0-1.69-.68-2.84-1.73-2.84Z"/><path class="cls-2" d="M166.19,11.63a1.44,1.44,0,0,1-1.58,1.47c-.47,0-.69-.18-1.05-.79a7.45,7.45,0,0,0-5.29-4.25c-.21-.07-.32-.14-.32-.25s.61-.39,1.62-.39C162.88,7.42,166.19,9.54,166.19,11.63ZM161.73,27a5.1,5.1,0,0,1-2.48-1.8,2.57,2.57,0,0,1-.87-2.16c0-.69.18-1.19.43-1.19s.18.07.25.25a2.46,2.46,0,0,0,2.06,1.73c1.44,0,5.57-2.56,10.61-6.59a69.85,69.85,0,0,0,6.48-5.72c.61-.65,2.55-2.85,2.87-3.28s.44-.54.62-.54.25.15.25.33c0,.54-1.55,2.91-3.24,5a53.65,53.65,0,0,1-7.41,7.45,48.89,48.89,0,0,1-8.21,5.65C162.41,26.75,162.05,27,161.73,27Z"/><path class="cls-2" d="M209.52,13.5a35.18,35.18,0,0,1-6.34,8.89,31.81,31.81,0,0,1-11.65,7.49c-1.8.68-1.8.68-2.13.68a.37.37,0,0,1-.32-.4c0-.25,0-.25,1.15-.72a36.6,36.6,0,0,0,8.89-6,31.41,31.41,0,0,0,7.45-9.5c.75-1.34.93-1.8.93-2.31a.75.75,0,0,0-.79-.79,6.34,6.34,0,0,0-.65.07c-.07,0-.86.18-1.58.29s-1.08.18-1.33.22a3.22,3.22,0,0,1-.69.1A2.82,2.82,0,0,1,201,11a30.05,30.05,0,0,1-5.43,6.19c-1.59,1.44-4.07,3.06-4.68,3.06-.18,0-.36-.11-.36-.25s.07-.25.93-.87c3.78-2.62,8-8.42,8-11a2.18,2.18,0,0,0-1.26-2.2c-.14,0-.21-.1-.21-.18s.39-.32.9-.32a4.26,4.26,0,0,1,2.41.86c1.22.8,1.51,1.12,1.51,1.62,0,.18,0,.18-.51.76a13.13,13.13,0,0,1-.82,1.58,1.14,1.14,0,0,0,.86.25,18.54,18.54,0,0,0,4.17-.79,7.5,7.5,0,0,0,1.3-.64c.58-.33.79-.44,1-.44.39,0,.79.26,2,1.26S212,10.91,212,11.19s0,.33-1,.76l-.4.14s-.21.11-.39.18Zm3.41-7.34a1.23,1.23,0,0,1-1.11,1.15c-.5,0-.65-.15-1-.79a6.58,6.58,0,0,0-3.24-2.67c-.21-.07-.28-.11-.28-.14s.54-.29,1-.29C210.63,3.42,212.93,4.79,212.93,6.16Zm4-1.7a1.24,1.24,0,0,1-1.15,1.19c-.5,0-.68-.14-1-.83a6.65,6.65,0,0,0-3.31-2.7c-.22-.07-.29-.1-.29-.14s.43-.29,1-.29C214.52,1.69,216.89,3.06,216.89,4.46Z"/><path class="cls-2" d="M238.63,13.14a8.39,8.39,0,0,1,6-3.1c2.48,0,4.35,1.44,4.35,3.31a2,2,0,0,1-.9,1.84c-.71.54-1,.65-4.13,1.91a62.24,62.24,0,0,0-7.38,3.35c.15,1.87.18,2.73.18,3.2,0,1.69-.36,2.16-1.73,2.16-.39,0-.61-.14-.61-.36a1,1,0,0,1,0-.29,27.5,27.5,0,0,0,.14-3.71c-3,1.84-4.17,3.17-4.17,4.72,0,1.73,1.65,2.41,5.68,2.41a19.54,19.54,0,0,0,5.08-.61,2.7,2.7,0,0,1,.9-.18,1.85,1.85,0,0,1,1.65,1.4c0,1.15-2.27,1.73-7,1.73a11.52,11.52,0,0,1-5.65-1,4.1,4.1,0,0,1-2.37-3.5c0-1.51.93-2.8,3.06-4.24a32.14,32.14,0,0,1,2.77-1.69,12.58,12.58,0,0,0-.44-4.4,1.75,1.75,0,0,0-1.61-1.18c-1.37,0-3.71,2.16-5.44,5-.39.65-.75,1-1.15,1s-1.19-1.15-1.19-2c0-.47.15-.69.83-1.26,3.67-3.14,6.05-6.63,6.66-9.79a12.19,12.19,0,0,1-3,.57,2.07,2.07,0,0,1-1.77-1.22,4.87,4.87,0,0,1-.54-1.33.16.16,0,0,1,.11-.15c.07,0,.11.07.18.15a2.27,2.27,0,0,0,2.05.93,9.08,9.08,0,0,0,3.17-.57,6.43,6.43,0,0,0,.11-1,1.68,1.68,0,0,0-1.66-1.87c-.11,0-.14,0-.14-.14,0-.33,1.15-.87,1.8-.87a2.43,2.43,0,0,1,2.3,2.06,3.94,3.94,0,0,1-.29,1.29,4.68,4.68,0,0,0,2.23-1.15c1.15.58,1.51.83,1.51,1.08,0,.43-.65.72-4,1.69a38.7,38.7,0,0,1-4,7.38,5.72,5.72,0,0,1,2.31-.61,3.19,3.19,0,0,1,2.55,1.19,5.77,5.77,0,0,1,.94,2.05A15.84,15.84,0,0,1,238.63,13.14ZM241,16.77c4-2.23,4-2.23,4.42-2.59a1.86,1.86,0,0,0,.69-1.22A2.08,2.08,0,0,0,244,11.23a6.57,6.57,0,0,0-4.39,2.38A18.16,18.16,0,0,0,236.55,19c0,.07,0,.07-.08.29C237.55,18.68,237.55,18.68,241,16.77Z"/><path class="cls-2" d="M270.7,16.67h-2.38v1.47c0,.4-.65.72-1.44.72-.39,0-.64-.21-.64-.54V3.6L268.75,5h1.62a31.57,31.57,0,0,0,.69-5l2.84.47c.43.07.68.32.68.61a1,1,0,0,1-.5.76l-.76.54L271.78,5h3.45l.86-1.36,2.06,1.94a.88.88,0,0,1,.25.58.67.67,0,0,1-.4.54l-.57.32V17.49c0,.65-.69,1.12-1.62,1.12-.33,0-.47-.18-.47-.54v-1.4h-2.41v4.14h10l1.87-2.34,2.88,2.37c.25.18.36.36.36.51a.37.37,0,0,1-.4.32H273.86c3.53,3.56,8.85,6,15,6.91a9.87,9.87,0,0,0-2.77,2.81,29.34,29.34,0,0,1-7.41-3.78,25.52,25.52,0,0,1-5.72-5.47v9.5a.55.55,0,0,1-.11.36,2.77,2.77,0,0,1-1.58.58.52.52,0,0,1-.54-.47V22.93a39.69,39.69,0,0,1-9.86,6.62,22.22,22.22,0,0,1-5.11,2,.29.29,0,0,1-.32-.29c0-.18,0-.18,2.12-1.26a41,41,0,0,0,11-8.31h-5.47c-2.48.07-3.6.07-6.62.18L256,20.59l3.85.14c1.59,0,2.66.08,3.24.08h7.63Zm-5.29-4-5.83,4.79-.14.69c-.11.46-.4.75-.72.75a.77.77,0,0,1-.4-.14L256,16.45c3.13-1.37,4.21-1.91,9.1-4.5Zm-8.2-8.89c3.63.87,6.08,2.92,6.08,5a1.42,1.42,0,0,1-1.3,1.58,1.21,1.21,0,0,1-.9-.4c-.25-.25-.25-.25-1-2.23a10.58,10.58,0,0,0-3.06-3.52Zm18.13,6.66V5.87h-7V10.4Zm0,5.4V11.27h-7V15.8ZM286,5.22a.46.46,0,0,1,.18.32c0,.18-.22.36-.69.47l-1.22.32-5.22,4.4c-.36.28-.54.39-.72.39s-.29-.11-.29-.32.15-.4,1.59-2.23c1-1.33,1.9-2.63,3.81-5.47Zm-7.53,6.55c2.92.47,4.21.86,5.62,1.69s2.3,1.87,2.3,2.88a1.32,1.32,0,0,1-1.26,1.33c-.47,0-.57-.1-2.45-2.26a14.46,14.46,0,0,0-4.28-3Z"/><path class="cls-2" d="M316.9,22.82c0,.61-.82,1.91-2,3.24a12.41,12.41,0,0,1-9.46,4.54,7.62,7.62,0,0,1-5.76-2.2c-1.47-1.55-2.08-3.56-2.08-6.73,0-2.05,0-2.52.72-11.48.21-2.92.21-2.92.21-3.35,0-2.2-.5-3.13-1.69-3.13-.21,0-.32-.07-.32-.18,0-.36.72-.69,1.51-.69,1.76,0,3.45,2,3.45,4.14a9.83,9.83,0,0,1-.5,2.63,72,72,0,0,0-1.48,11.84c0,4.86,1.91,7,6.23,7a13.07,13.07,0,0,0,7.59-2.77,15.12,15.12,0,0,0,2.91-2.81c.15-.25.29-.36.4-.36A.28.28,0,0,1,316.9,22.82Z"/><path class="cls-2" d="M333,8c0-.83,0-1.44,0-1.55,0-2.12-.35-2.7-1.76-2.77-.25,0-.32,0-.32-.11,0-.28,1.37-.9,1.94-.9a5.5,5.5,0,0,1,2.16.72,1.43,1.43,0,0,1,.72,1,4.41,4.41,0,0,1-.22,1A16.52,16.52,0,0,0,335,8.28c1.55-.61,2.09-1,2.48-1.62,1.12.14,2.05.72,2.05,1.3,0,.28-.17.43-.82.75a28.66,28.66,0,0,1-4,1.51,4,4,0,0,0-.15.76c-.07.57-.14,1.19-.21,1.8,0,.07-.07.61-.18,1.19a1.56,1.56,0,0,1,1.22,1.47c0,.51-.11.87-1.08,4.36-1.11,3.78-1.33,4.86-1.33,6.19,0,1.58,1.22,2.3,3.89,2.3a19.87,19.87,0,0,0,6.65-1.22c1.19-.54,1.62-1.37,1.62-3,0-1.08,0-1.33-.54-6.55-.21-2.3-.32-4-.32-5,0-2.24.9-3.35,2.59-3.35,3.17,0,7.16,3.31,7.16,5.9,0,1.12-.94,2.41-1.73,2.41a.45.45,0,0,1-.36-.21c-.79-.94-1.65-1.23-3.63-1.19-.29,0-.4-.11-.4-.25s0-.18.33-.22c.57-.11,2.12-.43,2.44-.54a.83.83,0,0,0,.65-.75,5.1,5.1,0,0,0-1.4-2.56A5,5,0,0,0,346.63,10c-1,0-1.51.93-1.51,2.73a42.35,42.35,0,0,0,.86,7.81c.54,2.34,1,3.35,1.84,4.11a1.94,1.94,0,0,1,.18.79,3.46,3.46,0,0,1-2.09,2.88,18.07,18.07,0,0,1-8.17,1.76c-4.42,0-6.51-1.33-6.51-4.17a16.13,16.13,0,0,1,.4-2.92,1.77,1.77,0,0,1-1.34.54c-1.36,0-2.23-1.58-2.23-4,0-3.28,1.87-5.94,4.14-5.94a4.79,4.79,0,0,1,.58,0c.1-1.76.1-1.83.18-3.06a18.41,18.41,0,0,1-4.57.87A1.88,1.88,0,0,1,326.34,10,6.78,6.78,0,0,1,326,7.85c0-.18.07-.25.21-.25s.11,0,.15.18a2.42,2.42,0,0,0,2.48,1.87A16.57,16.57,0,0,0,333,8.86Zm-2.56,8a8.35,8.35,0,0,0-.79,3.56c0,1.37.51,2.31,1.26,2.31.58,0,.94-.44,1.15-1.34s.72-4.24.72-4.64c0-.72-.25-1.15-.68-1.19A2.31,2.31,0,0,0,330.47,16Z"/><path class="cls-2" d="M368.66,17.6a11.25,11.25,0,0,1-.76,4.18c-.83,2-2.77,3.63-4.32,3.63a1.72,1.72,0,0,1-1.47-1.54c0-.47.18-.65,1.29-1.16a8.48,8.48,0,0,0,4.68-5.22c0-.18.11-.21.25-.21A.29.29,0,0,1,368.66,17.6Zm7.09-3.49c0,.11,0,.11,0,3.85l.07,3.89c0,1.19,0,2.34.07,2.59,0,.65,0,1.23,0,1.59a3.33,3.33,0,0,1-1.22,2.73,3.23,3.23,0,0,1-2,.94c-.33,0-.47-.22-.51-.76-.1-1.58-.64-2.45-2.3-3.85a.47.47,0,0,1-.21-.29.39.39,0,0,1,.36-.32c.14,0,.14,0,1.44.82.75.47,1,.58,1.33.58.82,0,.82,0,.9-7l0-4.68v-1a33.41,33.41,0,0,0-7.27,1.55,2.71,2.71,0,0,1-1,.25A4.39,4.39,0,0,1,364,14.4a2.8,2.8,0,0,1-1.41-2.34c0-.22.07-.33.18-.33s.18,0,.29.19c.5.64,1.3.86,3,.86,1.48,0,5.26-.36,7.67-.69,0-5.25-.18-5.65-2.16-5.9-.22,0-.33,0-.33-.14,0-.33,1.3-1,2-1a4.2,4.2,0,0,1,2.55,1c.58.44.86.8.86,1a.71.71,0,0,1-.1.33c-.47.75-.54,1.29-.72,4.42,4.21-.39,5.93-.72,7.16-1.26.68-.39.68-.39.9-.39a4.16,4.16,0,0,1,2.12,1c.79.54,1,.79,1,1.19a.85.85,0,0,1-.82.82,4.65,4.65,0,0,1-.62-.07,38.65,38.65,0,0,0-5-.36c-1.44,0-3.6.15-4.82.29Zm6.44,3.78c2.87,1.73,4.56,3.74,4.56,5.51a1.73,1.73,0,0,1-1.61,1.9c-.65,0-.87-.25-1.26-1.69-.65-2.66-3.1-5.65-5.29-6.44-.15-.07-.22-.11-.22-.22s.18-.28.4-.28A7.92,7.92,0,0,1,382.19,17.89Zm5.93-13.07a3.38,3.38,0,1,1-3.31-3.38A3.38,3.38,0,0,1,388.12,4.82Zm-5.61,0a2.21,2.21,0,1,0,4.42,0,2.2,2.2,0,0,0-2.23-2.19A2.24,2.24,0,0,0,382.51,4.86Z"/><path class="cls-2" d="M409,13.71c1.77.83,1.77.83,1.77,1.12a2.25,2.25,0,0,1-.15.54,7.32,7.32,0,0,0-.28,2.74l0,3.52,0,4,0,2.38c0,.47,0,.9,0,1.11,0,.9-.32,1.44-.83,1.44-1,0-2.26-.9-2.26-1.69a3.23,3.23,0,0,1,.1-.68,104.86,104.86,0,0,0,.83-11.95,3.78,3.78,0,0,0-.4-2,43.62,43.62,0,0,1-9,7.12,15.84,15.84,0,0,1-3.81,1.62c-.18,0-.36-.14-.36-.28s.07-.15.36-.29C400.58,19.83,411.26,9,411.26,5.9c0-.36-.64-1-1.15-1.08-.28-.07-.36-.14-.36-.28s.72-.47,1.41-.47c1.29,0,3.88,1.87,3.88,2.81,0,.25-.11.36-.43.5-.47.18-.68.36-1.22,1a53.27,53.27,0,0,1-4.79,5.08Z"/><path class="cls-2" d="M433.58,11.63A1.44,1.44,0,0,1,432,13.1c-.47,0-.69-.18-1.05-.79a7.45,7.45,0,0,0-5.29-4.25c-.21-.07-.32-.14-.32-.25s.61-.39,1.62-.39C430.27,7.42,433.58,9.54,433.58,11.63ZM429.12,27a5.16,5.16,0,0,1-2.49-1.8,2.59,2.59,0,0,1-.86-2.16c0-.69.18-1.19.43-1.19s.18.07.26.25a2.43,2.43,0,0,0,2.05,1.73c1.44,0,5.57-2.56,10.61-6.59a69.85,69.85,0,0,0,6.48-5.72c.61-.65,2.55-2.85,2.87-3.28s.44-.54.62-.54.25.15.25.33c0,.54-1.55,2.91-3.24,5a53.65,53.65,0,0,1-7.41,7.45,48.89,48.89,0,0,1-8.21,5.65C429.8,26.75,429.44,27,429.12,27Z"/><path class="cls-2" d="M463.84,14.51c0,6.08.08,9.32.26,11.8.07.69.1,1.23.1,1.51,0,1.48-.54,2.56-1.22,2.56s-1.83-1.58-1.83-2.45c0-.21,0-.5.07-.86.32-1.91.57-9.68.57-16.49,0-3.2-.14-4.46-.54-5.11a1.78,1.78,0,0,0-1.69-.9c-.21,0-.32-.11-.32-.29s.11-.25.29-.32a8.32,8.32,0,0,1,2.12-.58c.5,0,1,.26,2.48,1.23.51.32.69.54.69.79a2,2,0,0,1-.18.65c-.54.93-.76,2.52-.83,6.41a14.5,14.5,0,0,1,7.27,2.26c1.87,1.26,2.73,2.38,2.73,3.49a1.42,1.42,0,0,1-1.44,1.52c-.75,0-1.19-.33-2-1.66a12.28,12.28,0,0,0-6.55-5Z"/></g></g></g></svg>