<svg xmlns="http://www.w3.org/2000/svg" viewBox="0 0 175.09 175.72">
  <title>Asset 3</title>
  <g id="Layer_2" data-name="Layer 2">
    <g id="レイヤー_1" data-name="レイヤー 1">
      <path d="M172.59,20H114.7a22.17,22.17,0,0,1-17.76-9l0,0a26.81,26.81,0,0,0-6.65-6.37,2.36,2.36,0,0,0-.42-.28A27.13,27.13,0,0,0,75.12,0H2.5A2.5,2.5,0,0,0,0,2.5V173.22a2.5,2.5,0,0,0,5,0V96.47H75.2a22.18,22.18,0,0,1,12,3.56L93,105.51l0,0A27,27,0,0,0,104,114.2a15.14,15.14,0,0,0,7,2.28h61.66a2.5,2.5,0,0,0,2.5-2.5V22.5A2.5,2.5,0,0,0,172.59,20Zm-2.5,33.93h-37V25h37Zm0,28.77h-37V58.93h37ZM5,35.49H42V61H5Zm42,0H84.61l1.57,4.65V61.33H47Zm81.19,18.44H110.93c-3.25,0-10.42-7.57-13.12-10.42l-6.63-6.95V12.94l1.14,1.22c3.18,3.57,11.8,10.94,18.19,10.94h17.63Zm-37-10.13,3,3.15c5.74,6.06,11.76,12,16.75,12h17.21V82.7H110.51c-2.78,0-9.14-7.74-11.85-11-1-1.17-1.8-2.19-2.53-3L91.18,62ZM86.18,8V30.53a4.38,4.38,0,0,0-.52,0H47V5H75.12A22.11,22.11,0,0,1,86.18,8ZM42,30.49H5V6.5A1.5,1.5,0,0,1,6.5,5H42ZM5,91.47V66H42V91.47Zm42,0V66.32H85.18l1,1.29V93.83a26.91,26.91,0,0,0-11-2.36Zm67.83,20a21.92,21.92,0,0,1-8.61-1.77,44.68,44.68,0,0,1-9.23-7.37l-.1-.09-.12-.12a26.78,26.78,0,0,0-5.54-5.41V70.37l1,1.34.14.18c.68.76,1.51,1.77,2.47,2.94,5.79,7,11,12.87,15.72,12.87h17.63v23.78Zm18.36,0V87.7h37v23.78Z"/>
    </g>
  </g>
</svg>
