<svg xmlns="http://www.w3.org/2000/svg" viewBox="0 0 443.18 111.3"><defs><style>.cls-1{fill:#343434;}</style></defs><title>ring-enjoy-point-title</title><g id="Layer_2" data-name="Layer 2"><g id="Layer_1-2" data-name="Layer 1"><path class="cls-1" d="M21.82,28c-.06,1.4-.11,2.32-.11,2.59,0,2.64.32,4.32,1,5.13,1,1.19,2.27,1.62,4.7,1.62a31.41,31.41,0,0,0,8-1A3.68,3.68,0,0,1,37.26,36a2.24,2.24,0,0,1,1.94,1,5,5,0,0,1,.71,1.89c0,.59-.81,1.24-1.89,1.51a29.59,29.59,0,0,1-6.38.81c-3.83,0-7.77-.7-9.5-1.73C19.87,38.12,19,36.29,18.79,33c0-.7,0-1.29-.05-4.59s0-3.18-.06-4.64A54.47,54.47,0,0,0,7.83,26.62c-2.16.81-2.59.92-3.4.92C2.48,27.54,0,24.84,0,22.68c0-.22.11-.32.38-.32s.21.05.48.32c.54.59,2.06,1,3.62,1s8.32-.92,14.2-1.94c.06-2.38.06-2.54.06-3.35,0-3.4-.11-4.1-.7-4.75a31.75,31.75,0,0,1-6.21,1c-1.52,0-2.54-.65-3.57-2.21a5.8,5.8,0,0,1-.81-1.73.26.26,0,0,1,.27-.27c.11,0,.16.05.27.21.43.76,1.41,1.08,3,1.08a38.77,38.77,0,0,0,7.88-1.24C24.35,9.18,25,9,27.05,7.94a4,4,0,0,1,1.57-.54,8.39,8.39,0,0,1,2.75,1.08c.65.27.92.65.92,1.08,0,.75-.59,1.08-3.08,1.62-1.08.21-1.89.43-4.75,1-2.48.49-2.48.49-3.72.81.81.38,1,.49,1.56.71s.81.54.81.86a1.8,1.8,0,0,1-.16.7c-.38.7-.54,1.84-.92,6,10.15-1.24,13.34-1.89,15.55-3.13a3.49,3.49,0,0,1,1-.27,13,13,0,0,1,3.72,1.94c1.19.76,1.68,1.3,1.68,1.73a1.28,1.28,0,0,1-1.35,1.19c-.33,0-.87-.06-1.46-.11-1.24-.16-5-.32-6.54-.32a119.47,119.47,0,0,0-12.74.91C21.82,27.05,21.82,27.16,21.82,28Z"/><path class="cls-1" d="M77.17,20.09c0,9.66.16,14.79.43,18.41.11,1.14.16,2,.16,2.43,0,2.27-.81,4-1.94,4S73,42.44,73,41.09a7.42,7.42,0,0,1,.17-1.4c.43-3,.86-15,.86-25.76,0-5.07-.22-6.91-.86-8a2.71,2.71,0,0,0-2.6-1.35c-.37,0-.54-.16-.54-.49s.17-.37.49-.54a15.14,15.14,0,0,1,3.29-.86c.81,0,1.57.38,3.95,1.89.7.49,1,.86,1,1.24a3,3,0,0,1-.27,1c-.86,1.46-1.19,4-1.29,10a23.07,23.07,0,0,1,11.34,3.51c2.91,2,4.26,3.73,4.26,5.46a2.21,2.21,0,0,1-2.27,2.37c-1.18,0-1.78-.48-3.13-2.54a19.35,19.35,0,0,0-10.2-7.93Z"/><path class="cls-1" d="M125,14.58c2.65,1.62,4.16,3.78,4.16,5.78,0,1.56-.81,2.59-2.16,2.59a1.63,1.63,0,0,1-1.41-.76c-.21-.21-.21-.27-.54-1.56-1.13-3.35-3.61-6.54-5.72-7.24-.27-.11-.43-.27-.43-.43s.27-.32.7-.32A11,11,0,0,1,125,14.58Zm14.53,18.63c-5.51,4.86-12.15,8.42-17.39,9.45a4,4,0,0,1-.87.16,2.18,2.18,0,0,1-.48.11c-.27,0-.7-.32-.7-.59s.1-.22.64-.38c4.59-1.46,12.1-6.43,17-11.13a42.59,42.59,0,0,0,9.18-12.52,25,25,0,0,0,2.27-7.51,2.6,2.6,0,0,0-1.67-2.59c-.49-.16-.6-.27-.6-.43,0-.38.71-.6,1.79-.6,1.4,0,2.59.65,4,2.16C154.49,11.23,155,12,155,12.53s-.43,1-1.51,1.73A54.44,54.44,0,0,1,139.54,33.21ZM134.73,9.56c2.48,1.78,4.21,4.43,4.21,6.53a2.53,2.53,0,0,1-2.32,2.49c-1,0-1.46-.49-1.67-1.79-.65-3.24-3.24-7.29-5.4-8.42-.38-.16-.49-.27-.49-.43s.22-.38.59-.38A10.61,10.61,0,0,1,134.73,9.56Z"/><path class="cls-1" d="M180.9,27.22a11,11,0,0,1-2.48.37c-1.57,0-4.32-1.67-4.76-2.91a15.67,15.67,0,0,1-.37-3c0-.37.16-.64.43-.64s.27.1.43.37c.7,1.57,2,2.11,5.13,2.11a253,253,0,0,0,31.21-2.21,12.91,12.91,0,0,1,1.46-.11,3.61,3.61,0,0,1,2.86,1.19c1,1,1.41,1.51,1.41,2,0,.81-1.08,1.3-2.81,1.3-.43,0-1,0-2,0-1.19-.11-5.56-.17-7.83-.17C196.13,25.43,185.11,26.3,180.9,27.22Z"/><path class="cls-1" d="M239.17,8.91a.35.35,0,0,1-.27-.32c0-.33,2.26-1.35,3.13-1.35.48,0,1.13.27,2.81,1.18,1.45.76,1.78,1.08,1.78,1.57a4.6,4.6,0,0,1-.11.65,28.84,28.84,0,0,0-.43,6.21c0,.92,0,2.16.11,3.78.05,1.19.1,2.43.1,2.48a11.55,11.55,0,0,0,.11,1.95,3.47,3.47,0,0,1,.06.7,1.25,1.25,0,0,1-1.14,1.29c-1.29,0-3-1.51-3-2.59a2.21,2.21,0,0,1,0-.54,58.94,58.94,0,0,0,.27-6.91c0-4.43-.11-5.94-.59-6.75a2.53,2.53,0,0,0-2.38-1.4.72.72,0,0,0-.32.05Zm15.44-2.38a.24.24,0,0,1-.16.06A.51.51,0,0,1,254,6.1c0-.48,2.32-1.56,3.4-1.56,1.56,0,5.07,2.32,5.07,3.34,0,.22-.05.38-.37.92-.44.81-.54,1-.65,1.19s-.05.65-.11,2c0,4.32-.27,11.18-.54,13-1.08,7.67-6.16,13.55-14.36,16.63-3.51,1.35-5.51,1.94-6.27,1.94-.38,0-.86-.27-.86-.54s.16-.21.7-.37a30.23,30.23,0,0,0,10.58-6c5.78-5.88,7-9.77,7-23.33l.05-2.26c0-2.7-1.08-4.49-2.75-4.49Z"/><path class="cls-1" d="M305.26,15.61a2.26,2.26,0,0,1-2.48,2.32c-.7,0-1.08-.27-1.62-1.24A11.9,11.9,0,0,0,292.84,10c-.32-.1-.48-.21-.48-.37,0-.38,1-.65,2.53-.65C300.08,9,305.26,12.31,305.26,15.61Zm-7,24c-.81,0-2.59-1.29-3.89-2.81a4,4,0,0,1-1.35-3.4c0-1,.27-1.83.65-1.83.22,0,.33.1.43.37a3.83,3.83,0,0,0,3.24,2.76c2.22,0,8.75-4.05,16.58-10.26a106.7,106.7,0,0,0,10.1-9c1.08-1.08,4-4.43,4.54-5.08s.64-.86.92-.86a.45.45,0,0,1,.43.49c0,.86-2.38,4.53-5.08,7.83a83.5,83.5,0,0,1-11.56,11.66,81.92,81.92,0,0,1-12.85,8.86C299.38,39.21,298.78,39.58,298.24,39.58Z"/><path class="cls-1" d="M379.41,16.42a1.07,1.07,0,0,0-.44.16c-4.59,8.21-4.59,8.21-7.07,11.39a48,48,0,0,1-14.64,12.64c-3.51,1.94-9.66,4.59-10.8,4.59a.58.58,0,0,1-.54-.65c0-.32.11-.38,1.14-.86,5.24-2.16,11.34-6.38,16.63-11.51a51,51,0,0,0,9.4-12.52c1.19-2.16,1.67-3.3,1.67-4.05a1.21,1.21,0,0,0-1.24-1.19,7.41,7.41,0,0,0-1,.11c-.27.05-1.35.27-2.48.43-.92.16-1.73.27-2.05.32a5.52,5.52,0,0,1-1.14.16,4,4,0,0,1-2.1-.75l-.17-.11a45,45,0,0,1-8.47,9.61c-2.49,2.27-6.37,4.81-7.29,4.81-.33,0-.6-.16-.6-.38s.11-.38,1.46-1.35c3.24-2.27,5.51-4.7,8.59-8.91,2.64-3.73,3.88-6.37,3.88-8.32a3.39,3.39,0,0,0-1.94-3.4c-.22,0-.38-.21-.38-.32,0-.27.6-.49,1.41-.49A6.23,6.23,0,0,1,365,7.24c1.94,1.24,2.37,1.67,2.37,2.43,0,.37,0,.37-.75,1.24-.54,1.08-.76,1.51-1.3,2.48a1.88,1.88,0,0,0,1.35.38,32.94,32.94,0,0,0,6.48-1.24,16,16,0,0,0,2.05-1c.92-.6,1.25-.71,1.57-.71.59,0,1.19.38,3.13,2,1.62,1.35,1.84,1.57,1.84,2.05s0,.49-1.52,1.19ZM383.24,7a1.92,1.92,0,0,1-1.73,1.84c-.76,0-1-.22-1.62-1.25a10.21,10.21,0,0,0-5-4.21c-.38-.11-.49-.16-.49-.27s.87-.43,1.62-.43C379.62,2.7,383.24,4.86,383.24,7Zm6.16-2.59a1.92,1.92,0,0,1-1.79,1.83c-.81,0-1.08-.21-1.67-1.35A10.39,10.39,0,0,0,380.81.7c-.32-.11-.43-.16-.43-.27,0-.27.7-.43,1.67-.43C385.72,0,389.4,2.21,389.4,4.43Z"/><path class="cls-1" d="M428.33,16.58a12.37,12.37,0,0,1,8-3.46c3.84,0,6.81,2.27,6.81,5.19a3.19,3.19,0,0,1-1.41,2.86c-1.13.86-1.45,1-6.48,3a92,92,0,0,0-11.55,5.24c.16,2.37.27,4.1.27,5,0,2.7-.54,3.41-2.7,3.41-.65,0-1-.22-1-.54a1.51,1.51,0,0,1,.05-.44,41.27,41.27,0,0,0,.27-5.83c-4.64,2.76-6.53,4.92-6.53,7.35,0,2.7,2.53,3.78,8.85,3.78a31,31,0,0,0,7.94-1,4.57,4.57,0,0,1,1.4-.27c1.14,0,2.6,1.25,2.6,2.22,0,1.78-3.57,2.7-10.91,2.7-4.11,0-6.54-.43-8.8-1.62a6.41,6.41,0,0,1-3.73-5.51,6.88,6.88,0,0,1,2.75-5.08,38.48,38.48,0,0,1,6.38-4.15c-.06-3.84-.22-5.62-.71-6.81a2.81,2.81,0,0,0-2.53-1.89,6.34,6.34,0,0,0-3.84,2,32.32,32.32,0,0,0-4.64,5.78c-.6,1-1.19,1.51-1.78,1.51-.81,0-1.89-1.78-1.89-3.19,0-.7.21-1.08,1.29-1.89,5.83-5.07,9.4-10.31,10.42-15.33a16.63,16.63,0,0,1-4.69.92,3.37,3.37,0,0,1-2.81-2,6.76,6.76,0,0,1-.81-2,.24.24,0,0,1,.21-.22c.06,0,.17.06.27.22a3.43,3.43,0,0,0,3.19,1.4A14.57,14.57,0,0,0,417.2,7a9,9,0,0,0,.17-1.51c0-1.78-.87-2.81-2.54-2.92-.22,0-.27,0-.27-.21,0-.49,1.83-1.35,2.86-1.35C419.15,1,421,2.65,421,4.21a8.1,8.1,0,0,1-.43,2.05A7.84,7.84,0,0,0,424,4.43c1.83.92,2.37,1.29,2.37,1.73,0,.64-1.18,1.13-6.31,2.64a61.89,61.89,0,0,1-6.16,11.5,8.64,8.64,0,0,1,3.56-1,5.55,5.55,0,0,1,3.46,1.24c.86.81,1.35,1.73,2,3.84C424.87,20.41,426.17,18.47,428.33,16.58Zm2.32,7c5.18-2.86,6.26-3.51,6.91-4.05a3,3,0,0,0,1.08-1.89c0-1.35-1.62-2.7-3.29-2.7-2.81,0-6.48,2.54-8.59,6a27.19,27.19,0,0,0-3.18,6.64C425.74,26.3,426.11,26.08,430.65,23.6Z"/><path class="cls-1" d="M49.09,87.44H45.52v2.21c0,.59-1,1.08-2.16,1.08-.59,0-1-.32-1-.81V67.83l3.78,2.11H48.6a47.64,47.64,0,0,0,1-7.51l4.26.71c.65.1,1,.48,1,.91a1.5,1.5,0,0,1-.76,1.14L53,66l-2.32,3.94h5.18l1.3-2,3.07,2.91a1.29,1.29,0,0,1,.38.87,1,1,0,0,1-.59.81l-.87.48V88.68c0,1-1,1.67-2.43,1.67-.48,0-.7-.27-.7-.81v-2.1H52.43v6.21H67.5l2.81-3.51,4.32,3.56c.38.27.54.54.54.76a.55.55,0,0,1-.6.48H53.84c5.29,5.35,13.28,9.07,22.46,10.37a14.75,14.75,0,0,0-4.16,4.21A43.85,43.85,0,0,1,61,103.85c-3.29-2.32-4.81-3.72-8.59-8.21V109.9a.79.79,0,0,1-.16.54,4.22,4.22,0,0,1-2.37.86.77.77,0,0,1-.81-.7V96.83c-6.05,5.13-9,7.13-14.8,9.94-3.29,1.62-6.8,3-7.67,3a.43.43,0,0,1-.48-.43c0-.27,0-.27,3.18-1.89A61.51,61.51,0,0,0,45.85,94.94H37.64c-3.73.11-5.4.11-9.94.27L27,93.32c2.59.11,4.86.16,5.78.22,2.37,0,4,.11,4.86.11H49.09Zm-7.94-6L32.4,88.57l-.22,1c-.16.7-.59,1.13-1.08,1.13a1.12,1.12,0,0,1-.59-.22l-3.46-3.4c4.7-2,6.32-2.86,13.67-6.75ZM28.84,68.05c5.45,1.3,9.12,4.37,9.12,7.51A2.12,2.12,0,0,1,36,77.93a1.82,1.82,0,0,1-1.35-.59C34.29,77,34.29,77,33.21,74a16,16,0,0,0-4.59-5.29ZM56.05,78v-6.8H45.52V78Zm0,8.1v-6.8H45.52v6.8Zm16-15.88a.66.66,0,0,1,.27.49c0,.27-.32.54-1,.7l-1.83.49-7.83,6.59c-.54.43-.81.59-1.08.59s-.43-.16-.43-.49.21-.59,2.37-3.34c1.46-2,2.86-4,5.73-8.21ZM60.8,80.09c4.38.7,6.32,1.3,8.43,2.54,2.27,1.3,3.45,2.81,3.45,4.32a2,2,0,0,1-1.89,2c-.7,0-.86-.16-3.67-3.4A21.91,21.91,0,0,0,60.7,81Z"/><path class="cls-1" d="M127.87,97.1c0,.92-1.24,2.92-3.08,5-4.26,4.76-9.12,7.13-14.79,7.13-3.84,0-6.86-1.13-9-3.4-2.27-2.43-3.24-5.62-3.24-10.53,0-3.24.05-3.94,1.08-18,.32-4.53.32-4.53.32-5.18,0-3.46-.81-4.91-2.64-4.91-.33,0-.49-.11-.49-.27,0-.6,1.14-1.08,2.38-1.08,2.75,0,5.4,3.13,5.4,6.48,0,.81,0,.86-.81,4.1a115.89,115.89,0,0,0-2.27,18.52c0,7.56,3,11,9.72,11a19.94,19.94,0,0,0,11.83-4.37,21.39,21.39,0,0,0,4.59-4.37c.21-.38.43-.54.64-.54S127.87,96.83,127.87,97.1Z"/><path class="cls-1" d="M155.79,71.72c0-3.56-.54-4.43-2.75-4.53-.44-.06-.49-.06-.49-.22,0-.43,2.11-1.4,3-1.4A8.54,8.54,0,0,1,159,66.7a2.23,2.23,0,0,1,1.13,1.62,5.49,5.49,0,0,1-.38,1.51,28.9,28.9,0,0,0-.92,4.48c2.43-.91,3.24-1.45,3.84-2.48,1.67.11,3.24,1.13,3.24,2,0,.48-.27.7-1.3,1.19a38.21,38.21,0,0,1-6.32,2.32c-.37,2.81-.43,3.18-.81,5.88a2.46,2.46,0,0,1,1.89,2.33c0,.75-.43,2.48-1.72,6.8-1.52,5.18-2.06,7.67-2.06,9.67,0,2.48,1.89,3.61,6.11,3.61A31.71,31.71,0,0,0,172,103.74c1.84-.86,2.54-2.16,2.54-4.75,0-1.62-.05-2.27-.81-10.2-.38-3.57-.54-6.16-.54-7.78,0-3.46,1.41-5.24,4.11-5.24,4.91,0,11.17,5.13,11.17,9.18,0,1.78-1.45,3.78-2.7,3.78-.21,0-.37-.11-.54-.38-1.29-1.45-2.53-1.89-5.67-1.83-.43,0-.64-.11-.64-.38s0-.27.48-.32a2.65,2.65,0,0,0,.65-.17c.76-.1,1.35-.27,1.94-.37,1.68-.33,2.22-.71,2.22-1.52a8.09,8.09,0,0,0-2.16-3.94c-1.57-1.67-3.57-2.75-5-2.75s-2.38,1.4-2.38,4.26A63.67,63.67,0,0,0,176,93.54c.81,3.67,1.51,5.24,2.86,6.42a2.83,2.83,0,0,1,.27,1.25c0,1.72-1.13,3.24-3.29,4.48-3,1.67-8,2.75-12.75,2.75-6.91,0-10.2-2.1-10.2-6.53a26,26,0,0,1,.65-4.54,2.83,2.83,0,0,1-2.11.81c-2.11,0-3.46-2.48-3.46-6.26,0-5.13,2.92-9.24,6.54-9.24a4.54,4.54,0,0,1,.81.06c.11-2.43.16-2.81.27-4.81a27,27,0,0,1-7,1.35c-1.73,0-2.49-.43-3.08-1.73a9.63,9.63,0,0,1-.81-3.83c0-.27.11-.43.32-.43s.17,0,.27.27a3.72,3.72,0,0,0,3.89,2.91,26.1,26.1,0,0,0,6.54-1.24,17.65,17.65,0,0,1,0-1.94Zm-4,14.69A12.77,12.77,0,0,0,150.55,92c0,2.1.81,3.56,1.95,3.56s1.56-.76,1.89-2.59c.43-2.32,1-6.27,1-6.75,0-1.08-.38-1.73-1.08-1.84S152.39,85.28,151.79,86.41Z"/><path class="cls-1" d="M213.3,88.89a17.18,17.18,0,0,1-1.19,6.54c-1.29,3.13-4.32,5.67-6.75,5.67A2.81,2.81,0,0,1,203,98.72c0-.81.27-1,2.05-1.83,3.62-1.73,6.43-4.81,7.29-8.16.06-.27.16-.32.38-.32C213.14,88.41,213.3,88.57,213.3,88.89ZM224.37,82c0,1.08,0,3.56,0,7.45l.11,6.05c.06,1.89.06,3.78.11,4,.05,1,.05,1.94.05,2.48a5.21,5.21,0,0,1-1.89,4.27,5,5,0,0,1-3.07,1.45c-.54,0-.76-.32-.81-1.18-.17-2.43-1-3.78-3.62-6-.22-.21-.33-.32-.33-.48a.64.64,0,0,1,.54-.49c.22,0,.54.16,1.3.65,2,1.29,2.48,1.56,3.08,1.56,1.29,0,1.29,0,1.35-11,0-4.86.11-7.29.11-7.29V82.09A48.13,48.13,0,0,0,210,84.47a4.38,4.38,0,0,1-1.52.37,6.11,6.11,0,0,1-2.43-1,4.24,4.24,0,0,1-2.21-3.67c0-.32.11-.49.32-.49s.27.11.44.33c.75,1,2,1.29,4.64,1.29a115.06,115.06,0,0,0,12-1c0-8.21-.32-8.8-3.4-9.18-.32,0-.49-.11-.49-.22,0-.54,2-1.62,3-1.62a6.81,6.81,0,0,1,4,1.62c.87.7,1.35,1.24,1.35,1.57a1.2,1.2,0,0,1-.16.54c-.7,1.13-.86,2-1.13,6.86,6.1-.49,9.39-1.08,11.18-1.95,1.08-.59,1.08-.59,1.45-.59.76,0,1.52.38,3.3,1.56,1.24.81,1.62,1.25,1.62,1.84a1.4,1.4,0,0,1-1.3,1.3c-.21,0-.59-.06-1-.11a53,53,0,0,0-7.94-.6c-2.27,0-5.4.22-7.45.44Zm10,7.29C239,92,241.6,95.21,241.6,98a2.72,2.72,0,0,1-2.54,3c-1,0-1.35-.38-1.95-2.65-1-4.1-4.86-8.8-8.26-10-.27-.11-.38-.22-.38-.38s.27-.43.6-.43A12.76,12.76,0,0,1,234.41,89.33ZM243.7,69a5.29,5.29,0,1,1-5.24-5.29A5.3,5.3,0,0,1,243.7,69ZM235,69a3.46,3.46,0,1,0,3.41-3.46A3.48,3.48,0,0,0,235,69Z"/><path class="cls-1" d="M281.34,82.85c2.75,1.24,2.75,1.24,2.75,1.78a1.78,1.78,0,0,1-.21.75,11.8,11.8,0,0,0-.49,4.32l.11,5.51v6.16l.05,3.72c.06.71.06,1.35.06,1.79,0,1.4-.49,2.21-1.3,2.21-1.62,0-3.51-1.4-3.51-2.65a4.74,4.74,0,0,1,.16-1,171,171,0,0,0,1.3-18.69,5.45,5.45,0,0,0-.65-3.18,68.82,68.82,0,0,1-14,11.12,24,24,0,0,1-6,2.54c-.22,0-.54-.22-.54-.43s.11-.27.54-.43c8.53-3.89,25.22-21,25.22-25.71,0-.54-1-1.51-1.79-1.67-.48-.11-.59-.22-.59-.43,0-.38,1.13-.76,2.21-.76,2,0,6.11,2.92,6.11,4.37,0,.38-.16.54-.65.81a4,4,0,0,0-1.95,1.62,89.08,89.08,0,0,1-7.5,7.94Z"/><path class="cls-1" d="M333.88,79.61a2.26,2.26,0,0,1-2.48,2.32c-.7,0-1.08-.27-1.62-1.24A11.9,11.9,0,0,0,321.46,74c-.32-.1-.48-.21-.48-.37,0-.38,1-.65,2.53-.65C328.7,73,333.88,76.31,333.88,79.61Zm-7,24c-.81,0-2.59-1.29-3.89-2.81a4,4,0,0,1-1.35-3.4c0-1,.27-1.83.65-1.83.22,0,.33.1.43.37a3.83,3.83,0,0,0,3.24,2.76c2.22,0,8.75-4,16.58-10.26a106.7,106.7,0,0,0,10.1-9c1.08-1.08,4-4.43,4.54-5.08s.64-.86.91-.86a.45.45,0,0,1,.44.49c0,.86-2.38,4.53-5.08,7.83a83.5,83.5,0,0,1-11.56,11.66A81.92,81.92,0,0,1,329,102.29C328,103.2,327.4,103.58,326.86,103.58Z"/><path class="cls-1" d="M392,84.09c.05,9.66.16,14.79.43,18.41.11,1.14.16,2,.16,2.43,0,2.27-.81,3.94-1.94,3.94s-2.87-2.43-2.87-3.78a7.42,7.42,0,0,1,.17-1.4c.43-3,.86-15,.86-25.76,0-5.07-.22-6.91-.86-8a2.71,2.71,0,0,0-2.6-1.35c-.37,0-.54-.16-.54-.49s.17-.37.49-.54a15.14,15.14,0,0,1,3.29-.86c.81,0,1.57.38,3.95,1.89.7.49,1,.86,1,1.24a3,3,0,0,1-.27,1c-.86,1.46-1.19,4-1.29,10a23.07,23.07,0,0,1,11.34,3.51c2.91,2,4.26,3.73,4.26,5.46a2.21,2.21,0,0,1-2.27,2.37c-1.18,0-1.78-.48-3.13-2.54A19.35,19.35,0,0,0,392,81.77Z"/></g></g></svg>