<svg xmlns="http://www.w3.org/2000/svg" viewBox="0 0 540.35 34.23"><defs><style>.cls-1{isolation:isolate;}.cls-2{fill:#333;}</style></defs><title>motoracer-subtext</title><g id="Layer_2" data-name="Layer 2"><g id="Layer_1-2" data-name="Layer 1"><g class="cls-1"><g class="cls-1"><path class="cls-2" d="M12.88,17.85V26c0,1.91.9,3.2,3.53,3.2H23a34.48,34.48,0,0,0,4.35-.25c0,.68.07,1.91.07,2.45A35.67,35.67,0,0,1,23,31.6h-6.8c-4.39,0-5.94-2.3-5.94-5.61V17.85H0V15.48H10.29V6.59H2.59V4.21H25.76V6.59H12.88v8.89h16.3v2.37Z"/><path class="cls-2" d="M61.35,21a129.53,129.53,0,0,0-12.63-5.87v18H46V1.8L49.66,2c0,.39-.32.64-.94.75V13.28l.54-.75a123.31,123.31,0,0,1,13.53,6Z"/><path class="cls-2" d="M80.83,29.05c9.14-2.56,16.4-6.95,20.83-14.8a12.35,12.35,0,0,0,1.91,1.8c-4.86,8.28-12.88,13.11-23.71,16a1.08,1.08,0,0,1-.58.72L77.77,30.2l.43-.68V3l3.71.18c0,.39-.36.72-1.08.79Z"/><path class="cls-2" d="M114.44,15.59h30v2.55H115.81a1.72,1.72,0,0,1-1.15.69Z"/><path class="cls-2" d="M186.3,12.6h-7.52v2.48c0,6.88-2.12,13.86-11.51,18.11a12.34,12.34,0,0,0-1.87-1.8c9.14-4,10.83-10.37,10.83-16.27V12.6H164.61v9h-2.56v-9H155V10.15h7.05V2.34l3.46.22a.93.93,0,0,1-.9.75v6.84h11.62V1.87l3.45.22c0,.32-.32.61-.9.68v7.38h7.52Z"/><path class="cls-2" d="M196.85,15.59H226.9v2.55H198.22a1.69,1.69,0,0,1-1.15.69Z"/><path class="cls-2" d="M267.74,16.2a.58.58,0,0,1-.21.07.88.88,0,0,1-.54-.22c-2.74.9-6.73,2.38-9.72,3.67.08.83.11,1.77.11,2.81s0,2.45-.11,3.85l-2.62.15c.1-1.3.18-3,.18-4.36,0-.54,0-1,0-1.44-4.07,2-7.38,4.39-7.38,6.55s2.49,3.1,7.45,3.1a80,80,0,0,0,9-.36l0,2.41c-2.12.22-5.36.29-9.07.29-6.91,0-10-1.66-10-5.33,0-3.17,4.17-6.22,9.57-8.93-.22-2.26-1.23-3.38-2.67-3.38-2.62,0-5.36,1.48-8.59,5.08-1,1.11-2.42,2.52-4,3.92l-1.77-1.76c3.6-3.17,7-6.19,9.07-13.29l-2,0h-6V6.73c2.19,0,4.75,0,6.22,0l2.45,0a47.37,47.37,0,0,0,1-5.15L251.7,2c-.08.36-.36.57-.9.64-.26,1.44-.58,2.7-.9,4a49.18,49.18,0,0,0,12.37-2.09L262.71,7a54.11,54.11,0,0,1-13.5,2,25.82,25.82,0,0,1-2.59,6.08h0a9.59,9.59,0,0,1,5.79-2.34c2.45,0,4,1.77,4.46,4.68,3-1.37,6.84-2.84,9.72-4Z"/><path class="cls-2" d="M310,23.83H297.25a30.81,30.81,0,0,0,13.35,7.56,9.76,9.76,0,0,0-1.62,2,33.34,33.34,0,0,1-14.06-8.93v9.72h-2.45V24.37a34.86,34.86,0,0,1-13.89,9.32,10.72,10.72,0,0,0-1.65-2A33.18,33.18,0,0,0,290,23.83H277.61V21.67h14.86V18.46l3.17.19c0,.28-.26.46-.72.5v2.52h15Zm-32.82-6.77c2.16-1.08,5.33-2.91,8.49-4.71l.69,2c-2.7,1.62-5.54,3.31-7.34,4.36a.74.74,0,0,1-.36.65ZM280,3a24,24,0,0,1,5.79,5.76L284,10.37a23.51,23.51,0,0,0-5.65-6ZM300.56,4.5V18.29H287.07V4.5h4.61c.39-1.19.83-2.67,1.08-3.74l3,.68c-.07.22-.32.36-.72.36-.25.76-.61,1.76-1,2.7Zm-2.37,5.9V6.48h-8.81V10.4Zm0,5.91v-4h-8.81v4Zm4.1-4.47a47.42,47.42,0,0,1,8.28,5.29L309.09,19a46.5,46.5,0,0,0-8.24-5.51Zm-1-3a45.59,45.59,0,0,0,5.83-6.22l2.48,1.54c-.11.19-.36.29-.79.22a57.18,57.18,0,0,1-5.72,5.72Z"/><path class="cls-2" d="M327,2.34c-.07.43-.39.68-1.11.79-.29,4.18-.65,13.72-.65,19s2.66,8,7.2,8c4.39,0,8.85-2.2,12.95-6.84A14.41,14.41,0,0,0,347,25.41c-4.21,4.79-9.32,7.31-14.61,7.31-6.55,0-9.9-3.78-9.9-10.58,0-4.54.33-15.7.58-20.12Z"/><path class="cls-2" d="M369.38,2.23c0,.4-.36.61-1,.76,0,1.37-.15,2.73-.22,4.17A41.39,41.39,0,0,0,376,5.69l.4,2.41A42.52,42.52,0,0,1,368,9.5c-.25,3.06-.54,5.91-.72,7.67a7,7,0,0,1,.07,1.22A9.65,9.65,0,0,1,365.63,24a8.34,8.34,0,0,0-1.08,3.49c0,2.67,3,3,6.88,3,7.3,0,10.5-1,10.5-4.71,0-1.84-1-4.22-3.31-7a14.29,14.29,0,0,0,2.2-1c2.59,3.2,3.81,6.11,3.81,8.49,0,2.81-1.69,4.86-4.82,5.69a33.22,33.22,0,0,1-8.24.83c-3,0-9.5,0-9.5-4.58a6.66,6.66,0,0,1,.69-2.77,4.51,4.51,0,0,1-1.7.33c-2.19,0-4.31-1.73-4.31-5.22,0-4.29,2.84-6.77,5.82-6.77a3.29,3.29,0,0,1,2.45,1l.4-5.18c-2.92.14-7.67.07-7.7.07V7.38c1.4,0,6.94,0,7.81,0,.14-2,.21-3.88.21-5.43ZM365,18.72c0-1.66-.76-3-2.34-3-2.49,0-3.82,2.09-3.82,4.61,0,2,1.05,3.31,2.67,3.31C364.55,23.61,365,19.47,365,18.72Zm22.59-4.43a31.27,31.27,0,0,0-10-2.84l.54-2.24a33.25,33.25,0,0,1,10.25,2.7Z"/><path class="cls-2" d="M407.2,17.75a29.91,29.91,0,0,1-6.76,10.61L398.35,27a25.2,25.2,0,0,0,6.51-10.15Zm7.7-5.55V29.08c0,3.93-2.81,3.93-8.56,3.93a16.11,16.11,0,0,0-.76-2.41c1,0,2.19,0,3.17,0h2.08a1.37,1.37,0,0,0,1.48-1.51V12.2H400.08V9.75h12.23V2.16l3.42.18c0,.36-.29.61-.83.68V9.75h12.16V12.2Zm6.44,4.39a71,71,0,0,1,7.59,10.48l-2.3,1.33a66,66,0,0,0-7.34-10.65ZM426,0A4,4,0,1,1,422,4,4,4,0,0,1,426,0Zm2.8,4A2.85,2.85,0,0,0,426,1.15a2.87,2.87,0,1,0,0,5.73A2.84,2.84,0,0,0,428.82,4Z"/><path class="cls-2" d="M468.48,4.1a.81.81,0,0,1-.68.29,1.59,1.59,0,0,1-.36,0A88.2,88.2,0,0,1,457.19,13c.28.11.71.32.86.39a.91.91,0,0,1-.79.47V33.15h-2.63V14.65a104.18,104.18,0,0,1-13.71,8,13,13,0,0,0-1.51-2C449.23,16.16,460,8.46,465.78,2.09Z"/><path class="cls-2" d="M480.36,4.71a44.71,44.71,0,0,1,10.73,4.9l-1.37,2.27a45.39,45.39,0,0,0-10.51-5Zm-.14,25c12.77-4,21.26-11.12,25.58-21.09A13.69,13.69,0,0,0,508.14,10c-4.5,9.87-13.28,17.53-25.47,21.6a1.23,1.23,0,0,1-.51.83Z"/><path class="cls-2" d="M538.91,21a130.63,130.63,0,0,0-12.63-5.87v18h-2.7V1.8l3.64.22c0,.39-.33.64-.94.75V13.28l.54-.75a123.31,123.31,0,0,1,13.53,6Z"/></g></g></g></g></svg>