<svg xmlns="http://www.w3.org/2000/svg" viewBox="0 0 240.03 75.88"><defs><style>.cls-1{isolation:isolate;}.cls-2{fill:#333;}</style></defs><title>tsubasa-video-title</title><g id="Layer_2" data-name="Layer 2"><g id="Layer_1-2" data-name="Layer 1"><g class="cls-1"><g class="cls-1"><path class="cls-2" d="M25.39,1c.36.15.54.33.54.58s-.22.43-.51.54l-.9.29c-2.19,5-2.62,5.94-3.38,7.41l.68.4c.33.18.47.36.47.54a.66.66,0,0,1-.36.5l-.64.36V31.6c0,.58-.8,1.16-1.59,1.16-.14,0-.25-.15-.25-.44V13a9.37,9.37,0,0,0-.61.87C17,16.41,15,18.72,14.56,18.72a.33.33,0,0,1-.33-.33c0-.18.08-.32.29-.57,3.6-4.39,6.23-10.15,8.1-17.82Zm4,7.89c-2,0-3.06.07-5.51.14l-.72-1.3c3.24.15,4.39.18,6.23.18h3.81V.25l2.38.33c.57.07.82.21.82.5s-.14.4-.5.54l-.79.4V8h7.73L44.6,5.76l2.55,2.05c.36.29.51.47.51.68s-.18.44-.58.44H35.89a27.17,27.17,0,0,0,4.32,7.84c2,2.56,2.56,3,7.59,6.77a6.14,6.14,0,0,0-2.34,1.91A34.66,34.66,0,0,1,35.14,9.21V23.54h3.27l1.51-1.8,2,1.8a.91.91,0,0,1,.36.61c0,.22-.18.36-.54.36H35.14v7.17c0,.28,0,.43-.18.54a2.39,2.39,0,0,1-1.3.43c-.32,0-.43-.15-.43-.61V24.51H30.78l-1.87.07-2.08,0L26,23.43c3,.07,3.92.11,4.82.11h2.45V10.91a43.41,43.41,0,0,1-7.09,11.3,18.61,18.61,0,0,1-3.63,3.53.39.39,0,0,1-.36-.36c0-.26.14-.44.68-1.05a53.42,53.42,0,0,0,9.43-15.4Z"/><path class="cls-2" d="M52.88,21a11.89,11.89,0,0,1,1,4.68c0,2-.54,3.13-1.51,3.13a.81.81,0,0,1-.83-.79,1.84,1.84,0,0,1,.29-.79,10.38,10.38,0,0,0,.79-4,10.28,10.28,0,0,0-.18-2.16ZM55.47,2.88h7.42l1.65-1.62,2,1.44a.81.81,0,0,1,.43.65c0,.36-.21.5-.72.5H60V7.34h2.12l1.19-1.22L65,7.27a.69.69,0,0,1,.29.54c0,.32-.18.5-.54.5H60v3.1H62.2L63.57,10l1.76,1.12a8.83,8.83,0,0,0,2.09-2.27A33.8,33.8,0,0,0,72.67.47l2.16.61c.4.11.61.25.61.47s-.14.28-.39.43l-.69.36c2.45,3.6,5.54,6.08,10.58,8.46l-.68.25a2.78,2.78,0,0,0-1.66,1.44,25.2,25.2,0,0,1-8.85-9.68,35.41,35.41,0,0,1-5.43,7h6.26L76.05,8.6l2,1.33a.64.64,0,0,1,.33.51c0,.25-.18.36-.61.36H74.47v3.74h4.79l.54-.75,1.76,1c.32.18.43.33.43.51s-.11.32-.43.43l-.54.18v5.65c0,.4-.76.94-1.33.94-.15,0-.25-.08-.25-.22V21H74.79a18,18,0,0,0,9.54,9.32,4.18,4.18,0,0,0-2.16,2C79,30.63,76,26.56,73.75,21c-1,3.2-1.51,4.28-2.7,5.76a19,19,0,0,1-7,5.15,8.41,8.41,0,0,1-2,.72.26.26,0,0,1-.29-.26c0-.18.15-.28.9-.64C68,29,70.87,25.81,72.13,21H68.46v1.43c0,.37-.83.94-1.36.94-.18,0-.33-.11-.33-.25V13.57l2,1h4V10.8H68.25l-.4-.43c-1.87,1.72-3.92,3.34-4.32,3.34a.24.24,0,0,1-.21-.25c0-.14.11-.29.32-.5l.58-.58H60v3.93h2.81l.61-.83,2,1.33c.36.22.51.4.51.61s-.15.29-.51.4l-.68.18-.07.9c-.5,6.19-.83,8.13-1.76,10.18a4.79,4.79,0,0,1-3.57,2.7c-.54,0-.54,0-.93-1.11,0-.11-.18-.22-.43-.36l-2.09-1,.07-.54c.47.11.79.15.94.18l1.11.22a9.09,9.09,0,0,0,1.59.18c1.83,0,2.55-1.69,3.05-7.2.22-2.27.33-3.89.33-4.82h-8v1.26c0,.25-.93.75-1.47.75-.22,0-.25-.07-.25-.43v-17Zm-.64,18.25c1.61,2,2.3,3.38,2.3,4.71,0,.9-.36,1.41-1,1.41-.5,0-.65-.29-.65-1.41a12,12,0,0,0-1-4.53ZM58.32,7.34V3.85H54.93V7.34Zm0,4.07V8.31H54.93v3.1Zm0,4.9V12.38H54.93v3.93Zm-2,3.85c1.84,1,3.46,2.91,3.46,4.1,0,.61-.33,1.08-.8,1.08s-.57-.25-.75-.86a9.42,9.42,0,0,0-2.12-4Zm1.51-1.23c2.13.72,3.92,2.27,3.92,3.35,0,.58-.28,1-.68,1s-.43-.18-.83-.9a10.78,10.78,0,0,0-2.62-3.06ZM72.38,20a24.37,24.37,0,0,0,.44-4.5H68.46V20Zm7.06,0v-4.5h-5A24.84,24.84,0,0,1,74,20Z"/><path class="cls-2" d="M105.13,6.08a22.9,22.9,0,0,1,.47,4.21,19.6,19.6,0,0,1-3.42,10.26c-2.26,3.46-4.75,5.51-6.72,5.51-2.45,0-4.57-3.35-4.57-7.16A13.93,13.93,0,0,1,95.1,9.11a15.19,15.19,0,0,1,11-4.54c7,0,12.13,4.72,12.13,11.12,0,5.83-3.49,10.62-9.36,12.85a25.6,25.6,0,0,1-5,1.34.4.4,0,0,1-.4-.4c0-.18.14-.29.54-.36a21.94,21.94,0,0,0,5.61-2.23c3.89-2.45,5.94-6.48,5.94-11.7,0-4.14-1.58-6.95-4.86-8.6a10.25,10.25,0,0,0-4.67-1.08,3.17,3.17,0,0,0-.83.07.59.59,0,0,0-.22,0ZM92.83,19.22C92.83,21.81,94,24,95.31,24c1.84,0,4.75-2.95,6.66-6.76a21.32,21.32,0,0,0,2.41-8.43,5.83,5.83,0,0,0-.65-3.13C97,7.23,92.83,12.45,92.83,19.22Z"/><path class="cls-2" d="M130.33,22.71a8.94,8.94,0,0,0-.47,2.56,16.08,16.08,0,0,0,.47,2.77,16.5,16.5,0,0,1,.39,2.59c0,1.26-.72,2.16-1.72,2.16-.83,0-1.3-.54-1.3-1.55a12.29,12.29,0,0,1,.11-1.47,16.69,16.69,0,0,0,.29-2.59c0-2.13-.54-2.74-3.28-3.68l0-.54,3.24.11,6.4-15.33.61.29ZM125.11,9.79a9.38,9.38,0,0,1,3.38,1.48A3.6,3.6,0,0,1,130,14a1.23,1.23,0,0,1-1,1.26c-.47,0-.54-.11-1.41-2a7.63,7.63,0,0,0-2.66-3Zm2.7-8.17A16.12,16.12,0,0,1,131,2.77a3,3,0,0,1,1.8,2.56c0,.79-.47,1.44-1,1.44s-.72-.26-1-.9a7.46,7.46,0,0,0-3.17-3.78Zm11.76,16.45c-.43,5.94-.72,7.27-2.15,9.68a16.21,16.21,0,0,1-4.72,5,2.55,2.55,0,0,1-1.08.54.32.32,0,0,1-.29-.32c0-.15.08-.26.29-.47,4.61-3.85,6-7.06,6-13.75,0-.47,0-1.41-.11-2.49l2.63.4c.47,0,.65.22.65.5s-.15.4-.43.54ZM134.18,5.62c1.33,0,2.59.07,3,.1.87,0,1.48,0,1.77,0h5.39v-5l2.52.29c.69.07.9.21.9.61a.62.62,0,0,1-.39.58l-.94.5v3h6l2-2.09,2.44,1.73a1,1,0,0,1,.47.79.51.51,0,0,1-.47.54H145.65c-1.25,2.59-2,4-3.38,6.41,2-.11,6.33-.4,9.72-.69a11,11,0,0,0-3.35-2.62l.14-.47a13.37,13.37,0,0,1,5.33,2.41,4.91,4.91,0,0,1,2,3.2,1,1,0,0,1-1,1.16c-.4,0-.69-.22-1.12-.9a11.75,11.75,0,0,0-1.4-2.06c-6.23.94-8.49,1.19-15.9,2l-.36.54a1,1,0,0,1-.58.44c-.14,0-.29-.18-.43-.54l-.94-2.24c2.77,0,4.21-.07,6.84-.21a38.9,38.9,0,0,0,1.94-6.41h-4.28c-.83,0-1.69.07-3.67.11ZM145,30c0,.5-.83,1.11-1.51,1.11-.26,0-.29-.07-.29-.57V15.87l2.37.4c.47.11.72.29.72.54s-.14.32-.5.54l-.79.5Zm11.62-1.8v.11l.11.54a.81.81,0,0,0,.36.32c.43.29.54.43.54.68,0,.51-.54,1-1.41,1.3a13.3,13.3,0,0,1-3.63.32c-3.56,0-3.78-.1-3.78-1.51V15.73l2.34.4c.54.1.76.25.76.57s-.11.36-.54.61l-.62.33V28.76c0,.86,0,.86,1.84.86,2.09,0,2.48-.21,2.7-1.4l1-5.33.53.07Z"/><path class="cls-2" d="M172,17.57c0,.89,0,1.47,0,1.58,0,.47,0,1.44.11,2.66,0,.9.11,1.84.11,2.67.11,2.08.14,2.8.32,4.21a4.45,4.45,0,0,1,.08.68,2.24,2.24,0,0,1-2.06,1.8c-.43,0-.54-.21-.57-1.4A26,26,0,0,0,168,22l-.25.61a19.24,19.24,0,0,0-1.55,4.57c-.22,1.33-.43,1.73-1.08,1.73-.32,0-.54-.22-.79-.79a7.21,7.21,0,0,1-.5-1.91c0-.65.21-1.08,1-2.12,1-1.37,1.44-1.95,2.41-3.46-2.26-3.71-2.91-5-2.91-5.87,0-1.15.65-1.83,2.95-3.24A23,23,0,0,1,170.52,10l0-.5v-2l0-1.16c0-2.44-.72-3.31-2.73-3.41-.11,0-.15,0-.15-.08,0-.28,1.52-.93,2.13-.93,1.36,0,3.24,1.29,3.24,2.23a2.85,2.85,0,0,1-.18.86,21.9,21.9,0,0,0-.65,5c.68.21.93.46.93.93s0,.47-.75,2.81C176.53,9.18,180,7,182.94,7a3.76,3.76,0,0,1,3.81,4.1,19.72,19.72,0,0,1-.65,4,45.31,45.31,0,0,0-1.22,7.71c0,1.87.83,2.77,2.56,2.77,2.62,0,5.36-2.13,6.62-5.19.07-.21.14-.29.21-.29a.59.59,0,0,1,.5.58,10.25,10.25,0,0,1-2.05,3.92A7.39,7.39,0,0,1,187,27.72c-2.49,0-4-1.88-4-5a61.55,61.55,0,0,1,.79-7.31,29.18,29.18,0,0,0,.54-4.43c0-1.58-.9-2.7-2.2-2.7-1.94,0-4.28,1.3-7,4-1,.94-1.41,1.37-3.06,3.17Zm-3.71,1.94.87-1.48.65-1.15.46-.79.22-.36V14.54a11.32,11.32,0,0,1,.07-1.22,6.57,6.57,0,0,0,0-.79c0-.4-.22-.65-.54-.65a5.1,5.1,0,0,0-1.84.72c-1.55.83-2.16,1.51-2.16,2.48s.15,1.37,1.59,4.57l.21.54Zm2.16-2.05-.57,1.08c-.58,1.11-.72,1.37-1,1.87l-.47.9c.57,1.37,1.18,3,1.69,4.5.14.39.25.57.39.57s.33-.07.36-1.54V23.68c0-1.9-.07-4.21-.1-6.8Z"/><path class="cls-2" d="M213.38,20.3a3.89,3.89,0,0,0-.5.25c.14,1.37.22,2.74.22,3.67,0,1.41-.44,1.91-1.66,1.91-.39,0-.57-.11-.57-.36a1.09,1.09,0,0,1,0-.29,35.21,35.21,0,0,0,.18-4.1c-3.45,2.16-4.75,3.6-4.75,5.26a2.6,2.6,0,0,0,2,2.26,13.08,13.08,0,0,0,3.92.47,24.27,24.27,0,0,0,5.76-.75,2.15,2.15,0,0,1,.65-.11c.47,0,1.55.72,1.55,1,0,0,0,.07-.08.11s0,0,0,0l.07.28s0,0-.79.8c-.33.28-4.21.75-6.51.75-4.82,0-8-1.8-8-4.46A5.28,5.28,0,0,1,207.3,23c1-.68,1.44-1,3.78-2.34a19.76,19.76,0,0,0-.29-3.59c-.28-1.62-1-2.45-2-2.45s-2.37.79-3.7,2.34A35,35,0,0,0,202.81,20c-.4.68-.62.86-1,.86s-.51-.14-.76-.61a3.31,3.31,0,0,1-.5-1.33c0-.36.14-.54.54-.9,4.1-3.42,6.69-7.27,7.45-10.95a13,13,0,0,1-3.38.69,2.67,2.67,0,0,1-1.91-1.41,4.27,4.27,0,0,1-.47-1.18s.07-.07.11-.07.11.07.21.21a2.41,2.41,0,0,0,2.27.9,9.72,9.72,0,0,0,3.31-.61,4.28,4.28,0,0,0,.07-.5,7.28,7.28,0,0,0,.07-.76,1.94,1.94,0,0,0-1.87-1.91c-.07,0-.07,0-.07,0l0,0,0,0v0c.07-.29,1.12-.79,1.62-.79A2.62,2.62,0,0,1,211,3.67a4.92,4.92,0,0,1-.36,1.48,6.22,6.22,0,0,0,2.56-1.3l.68.4c.58.29.76.43.76.64s-.25.44-1.51.87c-.54.14-1,.32-1.55.5-.25.07-.43.15-1.15.36a42.8,42.8,0,0,1-4.32,8.07,6.89,6.89,0,0,1,2.77-.8,3.67,3.67,0,0,1,2.84,1.59,4.49,4.49,0,0,1,.69,2.12c2.16-5,5.5-8,9.06-8,2.45,0,4.54,1.51,4.54,3.31a2.35,2.35,0,0,1-.87,1.83c-.43.4-.43.4-3,1.48L219,17.64l-1.83.79c-.83.4-1.23.57-2.85,1.4Zm-.18-1.15,1.52-.79c8.41-4.54,8.67-4.68,8.67-5.8s-1.23-1.87-2.63-1.87c-1.73,0-3.92,1.44-5.43,3.56a18.86,18.86,0,0,0-2.56,5.15Z"/><path class="cls-2" d="M9.1,47.2c-2.59.5-6.65,1.11-7.45,1.11-.28,0-.43-.11-.43-.32s.22-.4,1.3-.54A61.72,61.72,0,0,0,15.22,44l2.3,1.12c.4.18.54.29.58.43s-.18.29-.83.32l-1.37.08c-2.8.54-4.64.86-5.5,1l1,.54c.33.18.43.25.43.36s-.1.18-.36.32l-.64.36v2.16h5.32l1.55-1.8L20,50.51a1,1,0,0,1,.47.68.49.49,0,0,1-.54.43H10.87v2.49H15l.83-.72,1.79,1.08c.29.18.51.36.51.46s-.15.18-.43.29l-.58.22v7.92c0,.32-.18.54-.58.72a2.46,2.46,0,0,1-.86.25c-.18,0-.25-.11-.25-.36v-.72H10.87v3.17h3.77l1.55-1.8,2.12,1.62c.33.21.47.39.47.61a.54.54,0,0,1-.57.54H10.87V71c1.9-.25,4.75-.83,8-1.55l.25.58c-5.69,1.62-9.32,2.59-14.75,4L4,74.66c-.14.36-.29.54-.47.54s-.29-.11-.57-.5L1.12,72.25c4.17-.47,5.39-.61,8-1V67.39H6.15c-2.7.07-3.56.11-4,.11l-.82-1.23c1.29,0,2.44.07,2.88.07,1,0,1.61.08,1.9.08H9.1V63.25H4.5v1c0,.47-.58.87-1.26.87-.33,0-.4-.11-.4-.47V53.06l1.91,1H9.1V51.62H4.82c-.25,0-.86,0-1.73.07l-1.9,0L0,50.51l3,.07c.87,0,1.48.07,1.8.07H9.1Zm0,10.87v-3H4.5v3Zm0,4.21V59H4.5v3.24Zm6.3-4.21v-3H10.87v3Zm0,4.21V59H10.87v3.24Zm2.88-9c2.48.11,2.84.11,5.07.14V43.88l2.7.44c.29.07.5.25.5.43a.58.58,0,0,1-.36.43l-.86.54v4c0,.94-.07,2.13-.11,3.71h4.61l.79-1.33,2.09,1.37c.25.14.43.32.43.43s-.15.22-.43.36l-.72.32V56c0,9.9-.15,12.74-.87,15.48-.61,2.44-2,3.92-3.56,3.92-.5,0-.72-.25-.79-.83a1.66,1.66,0,0,0-.15-.5,1.63,1.63,0,0,0-.57-.29l-2.16-.94.25-.68a11.65,11.65,0,0,0,3.2.68c1.23,0,1.59-.54,2.09-3.06A57.94,57.94,0,0,0,30,61c0-1.55,0-4.68-.07-6.63H25.19c-.26,5.91-.44,7.38-1,9.8a15.29,15.29,0,0,1-6.66,9.43,14.13,14.13,0,0,1-4.24,2.26A.28.28,0,0,1,13,75.6c0-.22,0-.22.93-.72,7.38-4.47,9.25-8.54,9.43-20.49-2.05,0-2.34,0-4.28.11Z"/><path class="cls-2" d="M67.76,44.39l2.55,2.09a.77.77,0,0,1,.33.57.61.61,0,0,1-.62.51H54.3v5.25h5l.82-1.12,2.06,1.37a.64.64,0,0,1,.28.47.5.5,0,0,1-.36.4l-.79.25V68c0,.36-.79.75-1.47.75a.25.25,0,0,1-.26-.25V66.45h-12v1.73c0,.36-.07.4-.54.65a2.56,2.56,0,0,1-.86.29.33.33,0,0,1-.36-.33V51.69l2.3,1.12h4.46V47.56H44.26c-1.8,0-3,0-5.86.18l-1.23-1.23h3.49l3.6.07H65.38ZM41.85,74.52a.55.55,0,0,1-.32.57,2.34,2.34,0,0,1-1.33.51.37.37,0,0,1-.4-.4V51.48l2.84.43c.26,0,.44.18.44.36a.68.68,0,0,1-.29.47l-.94.61V71H65.46V51.69l2.69.51a.49.49,0,0,1,.4.47.52.52,0,0,1-.32.46l-.69.51V74.16c0,.5-.61.86-1.55.86-.39,0-.53-.11-.53-.43V72H41.85ZM52.57,59.07V53.82h-5v5.25Zm-5,6.45h5V60.08h-5Zm12-6.45V53.82H54.3v5.25Zm0,6.45V60.08H54.3v5.44Z"/><path class="cls-2" d="M97,48.09c2.66-.61,4.1-.93,4.32-.93a3,3,0,0,1,2.12,1.12c.54.61.76,1,.76,1.26a.77.77,0,0,1-.72.71,2,2,0,0,1-.72-.14,11.42,11.42,0,0,0-3-.43,10.55,10.55,0,0,0-4.89,1.19,11.83,11.83,0,0,0-4.32,5.47,27,27,0,0,0-1.37,8c0,2.19.47,3.81,1.44,4.85s2.49,1.55,5.08,1.55c.68,0,1.26,0,1.76-.07a12,12,0,0,1,1.47-.14,1.86,1.86,0,0,1,1.77,1.87c0,.68-1,1-3.13,1-6.52,0-10.4-3-10.4-8A21.1,21.1,0,0,1,89.86,55a16.26,16.26,0,0,1,3.24-4.28c.25-.22.32-.33.32-.47s-.11-.18-.25-.18a1.34,1.34,0,0,0-.36,0l-.65.14c-1.08.14-1.66.32-4.82,1.47a35.42,35.42,0,0,0-6.15,2.92c-.94.61-1.19.72-1.69.72a3.46,3.46,0,0,1-3.35-2.27,5.61,5.61,0,0,1-.29-1.47.24.24,0,0,1,.22-.22c.11,0,.11,0,.25.32a2.32,2.32,0,0,0,2.27,1.12,10.86,10.86,0,0,0,3.52-.72c7.56-2.2,8-2.3,12.38-3.38Zm5,10.73A1.23,1.23,0,0,1,100.9,60c-.36,0-.57-.18-.79-.68a6,6,0,0,0-3.42-3c-.25-.11-.28-.11-.28-.18s.28-.14.79-.14C99.54,56,102,57.45,102,58.82Zm3.09-2.45A1.21,1.21,0,0,1,104,57.56c-.4,0-.54-.14-.94-.86A6.15,6.15,0,0,0,99.54,54c-.22,0-.26-.07-.26-.11s.51-.22,1.16-.22C102.67,53.67,105.11,55.08,105.11,56.37Z"/><path class="cls-2" d="M128.9,45.5c0-.07.11-.14.18-.14,1.23,0,4.61,1.66,4.61,2.23,0,.18-.11.25-.5.36a6.32,6.32,0,0,0-1.19.68,28.61,28.61,0,0,1-4.9,2.49c1.88.93,3,1.76,3,2.19a.59.59,0,0,1-.11.29,2.52,2.52,0,0,0-.29,1.26,13.24,13.24,0,0,1-.1,1.69c4.82-.61,6.72-.93,7.62-1.26a2.67,2.67,0,0,1,.65-.14c1,0,3.64,1.4,3.64,1.94a.82.82,0,0,1-.9.72,5.39,5.39,0,0,1-1.16-.14,25.58,25.58,0,0,0-4.35-.25c-1.58,0-2.48,0-5.57.18-.54,3.92-1,5.69-2.13,7.88a17.15,17.15,0,0,1-8.24,8,10.19,10.19,0,0,1-2.05.75c-.18,0-.43-.14-.43-.25s.14-.14.43-.25c6.08-3,9.64-8.61,10.11-15.91l-1,.14a59.31,59.31,0,0,0-9.57,1.8,4.66,4.66,0,0,1-1.58.36,4,4,0,0,1-2.63-1.65,2.2,2.2,0,0,1-.5-1.55c0-.18,0-.22.1-.22s.08,0,.15.11a3.65,3.65,0,0,0,3.06,1.08c1.72,0,7.62-.54,12-1.08,0-.54,0-.76,0-1.12,0-1.94-.07-2.59-.36-3.2a1.3,1.3,0,0,0-1-.83,3.55,3.55,0,0,0-1.12.29,28.54,28.54,0,0,1-8,1.66c-.32,0-.54-.11-.54-.26s0-.1.43-.18a34.06,34.06,0,0,0,9.86-3.78c2.23-1.22,3.09-1.94,3.09-2.59a1.59,1.59,0,0,0-.68-1.15Z"/><path class="cls-2" d="M161.58,66.56l.07-2.19c.07-2.67.07-2.67.07-3.42,0-1.62-.25-2.2-1.15-2.56a41.93,41.93,0,0,0-4.17.76,4.49,4.49,0,0,1-1.22.25,2.45,2.45,0,0,1-2-2.41c0-.15.07-.22.14-.22s.14,0,.25.18a3.12,3.12,0,0,0,2,.76c.62,0,5.18-.4,6.59-.54a17.33,17.33,0,0,0,5.54-1.34,2.91,2.91,0,0,1,.57-.18,6.83,6.83,0,0,1,2.13.94c.5.32.72.61.72.9a.55.55,0,0,1-.54.61c-.25,0-.54,0-.94-.07a16.63,16.63,0,0,0-2.05-.11c-1.51,0-4.06.15-5.47.29,1.48.79,2.09,1.26,2.09,1.55a.85.85,0,0,1-.11.32c-.43,1-.61,2.67-.83,6.8l0,.83,1-.07c.65-.07,1.3-.14,2-.18,1.48-.14,2.91-.32,3.24-.36.5-.11,1-.18,1.54-.25a15.89,15.89,0,0,1,1.59-.18,7,7,0,0,1,2.34.83c.82.39,1.15.75,1.15,1.26a.79.79,0,0,1-.79.72,3.6,3.6,0,0,1-1-.22,39.37,39.37,0,0,0-7.78-.65c-5.11,0-10.21.69-13,1.77a3.34,3.34,0,0,1-1.08.25c-.5,0-.86-.15-1.84-.79-1.18-.76-1.4-1-1.4-1.44s.15-.87.29-.87.14,0,.21.22c.22.5,1.23.79,2.78.79.54,0,2.77-.14,6.29-.43l1.77-.15.89-.07Z"/><path class="cls-2" d="M187.89,57.67c1.94,1,3.31,2.7,3.31,4.1A1.19,1.19,0,0,1,190.05,63c-.54,0-.72-.25-1.05-1.29a6.82,6.82,0,0,0-3.67-4.36.26.26,0,0,1-.21-.22c0-.1.14-.18.32-.18A6.51,6.51,0,0,1,187.89,57.67Zm17.52-2.3a3.44,3.44,0,0,1,.69,1.29c0,.22-.08.33-.44.72a2.21,2.21,0,0,0-.5.87,32.58,32.58,0,0,1-3.42,5.86,30.52,30.52,0,0,1-12.05,9.65,16.45,16.45,0,0,1-3.42,1.12c-.18,0-.43-.18-.43-.33s.07-.11.21-.18c3.67-1.19,8.46-4.53,11.88-8.35a23.17,23.17,0,0,0,4.71-7.45,10,10,0,0,0,.76-2.77A1.9,1.9,0,0,0,202,54.18c-.1,0-.18-.11-.18-.18s.47-.29,1-.29A3.48,3.48,0,0,1,205.41,55.37Zm-10.4.28A5.28,5.28,0,0,1,196.85,59a1.26,1.26,0,0,1-1.12,1.26,1,1,0,0,1-1-.83c-.29-2-1.94-4.5-3.34-5.08-.11-.07-.19-.11-.19-.18s.15-.18.33-.18A6.56,6.56,0,0,1,195,55.65Z"/><path class="cls-2" d="M226,46.22a1.85,1.85,0,0,1,.83-.14,4.12,4.12,0,0,1,2.56,1c.9.65,1.29,1.08,1.29,1.51,0,.15-.07.26-.25.51a14.05,14.05,0,0,0-1.19,2.12,1.82,1.82,0,0,0,1.19.33,21.7,21.7,0,0,0,3.74-.47,5.4,5.4,0,0,0,2.45-.94c.29-.21.39-.25.58-.25s.32,0,1.58,1c.86.65,1.22,1,1.22,1.15s-.07.22-.25.33c-.83.5-.86.53-2,2.62a36.55,36.55,0,0,1-17.19,16.34,30.46,30.46,0,0,1-4.72,1.7.51.51,0,0,1-.5-.47c0-.07,0-.07.65-.29,3.81-1.33,9.35-5,12.95-8.6a32.24,32.24,0,0,0,6.58-9.22,7.53,7.53,0,0,0,.76-2.12c0-.29-.25-.47-.65-.47a10,10,0,0,0-1.73.25c-1.36.26-3.16.54-3.41.54s-.8-.21-1.59-.82c-3.16,4.82-6.94,8.42-10.86,10.36l-.18.07a.13.13,0,0,1-.11,0s0,0-.25-.14-.07-.11-.07-.15.21-.29.43-.43A25.34,25.34,0,0,0,223.7,56c2.59-3.28,3.88-5.73,3.88-7.38a2.42,2.42,0,0,0-1.36-2.2l-.15-.07,0,0,0,0h0Z"/></g></g></g></g></svg>