<svg xmlns="http://www.w3.org/2000/svg" viewBox="0 0 446.91 174.76"><defs><style>.cls-1{isolation:isolate;}.cls-2{fill:#333;}</style></defs><title>musasabi-videos-title</title><g id="Layer_2" data-name="Layer 2"><g id="Layer_1-2" data-name="Layer 1"><g class="cls-1"><g class="cls-1"><path class="cls-2" d="M99.52,5.89c-6.86,1-10.37,1.45-11.39,1.45-.49,0-.76-.16-.76-.37s.27-.44.81-.6C99,3.94,103.84,2.43,108.76,0l2.91,2.27a1.45,1.45,0,0,1,.65,1.08c0,.43-.49.75-1.08.75H109.3a41,41,0,0,1-6.48,1.25V9.72H108l2.91-3.24,3.89,3.08c.43.32.54.54.54.86s-.16.6-.65.6H102.82v4.42h5.23l1.46-2,3,2.48a1.5,1.5,0,0,1,.54,1,.86.86,0,0,1-.71.86l-.54.11v9.39c0,.92-1.08,1.68-2.37,1.68-.43,0-.7-.22-.7-.6v-1h-5.94v4.91h4.53l2.86-2.91,3,2.48a1.57,1.57,0,0,1,.71,1.19c0,.48-.06.48-.87.48h-10.2v4.7c3.34-.43,5.23-.75,10.09-1.78l.17,1c-7.62,2.38-11.34,3.35-21.28,5.67l-.65,1.08c-.38.65-.65.81-1,.81a1,1,0,0,1-.92-.59l-3-4.21c5.07-.38,7.29-.6,13.28-1.46V33.53H94.61c-2.76.11-3.89.11-6.32.17l-1-1.62,3.83.1c1.68.06,2.81.11,3.46.11h4.91V27.38H93.15v2.1c0,.87-.92,1.52-2.21,1.52-.54,0-.81-.27-.81-.76V13.45l4.05,2h5.34V11H92.83c-1.62,0-3,.05-6.38.16L85.59,9.5l7.24.22h6.69Zm0,14.85v-4H93.15v4Zm0,5.34V22H93.15v4Zm9.24-5.34v-4h-5.94v4Zm0,5.34V22h-5.94v4Zm3.4-13.5c3.35.16,3.78.16,6.69.22V.43l4.32.7c1,.17,1.52.54,1.52,1.14s-.38.86-1.25,1.29L122.36,4v8.8h5.89L130,10.15l3.62,3a1.39,1.39,0,0,1,.54.91c0,.33-.22.6-.65.76l-1,.49V22c0,7.62-.81,14.37-2.22,18.52a10,10,0,0,1-4.91,6.11,5.78,5.78,0,0,1-2.16.64c-.65,0-.92-.32-.92-1.18,0-1.41-.16-1.52-1.35-2.11l-3.78-1.89.22-.86,4.37.86a3.43,3.43,0,0,0,1.13.11c2.43,0,4-1.84,4.76-5.62A76.9,76.9,0,0,0,129,21.38c0-1.35,0-1.35-.11-7.23h-6.53c0,.86,0,1.35,0,1.62-.27,8-.81,11.5-2.49,16.31-2.21,6.26-5.4,10.26-11.82,14.63-2.33,1.62-3.89,2.43-4.54,2.43a.44.44,0,0,1-.49-.43c0-.27,0-.27,2.43-2,10-7.39,13.4-15.66,13.5-32.61-2.8,0-3.24,0-6.21.16Z"/><path class="cls-2" d="M143.1,3.73c2.43.1,4.75.16,5.45.21l5.19.11h30.18L187.38.38l4.75,3.56a1.14,1.14,0,0,1,.38.76.64.64,0,0,1-.7.65H169.45v8.91h6L177,11.88,180.63,15a1.11,1.11,0,0,1,.43.81c0,.38-.21.6-.7.81l-.86.38V37.1c0,1-1.3,1.94-2.7,1.94a.74.74,0,0,1-.81-.7v-2.7H159.41v3.29c0,.6-.33,1-1.08,1.3a7.74,7.74,0,0,1-1.73.43.72.72,0,0,1-.76-.81V12.26l4.16,2h5.67V5.35H153.74c-.65,0-2.43.05-5.19.16-.64,0-2.53,0-4.59.11Zm6.59,39.42h35.58V9.45l4.43.65c.81.16,1.24.48,1.24,1.08,0,.32-.21.59-.75,1l-1.19.92V46.71c0,.86-1.51,1.89-2.81,1.89a.88.88,0,0,1-.92-.92V44.44H149.69v3.24c0,.76-1.35,1.46-2.7,1.46a.88.88,0,0,1-1-.86V9.13l4.48.64c.86.11,1.4.54,1.4,1.19s-.32,1-1,1.3l-1.19.54Zm16-19.07V15.55h-6.26v8.53Zm0,10.21V25.38h-6.26v8.91ZM176,24.08V15.55h-6.54v8.53Zm0,10.26v-9h-6.54v9Z"/><path class="cls-2" d="M234.47,8.32c5.88-1.46,5.88-1.46,6.69-1.46a4,4,0,0,1,2.92,1.62A5.38,5.38,0,0,1,245.54,11c0,.65-.65,1.08-1.46,1.08a4.39,4.39,0,0,1-1.67-.38,15,15,0,0,0-3.95-.59,16.83,16.83,0,0,0-6.58,1.51C229,14,226,17.82,224.75,21.82a37.36,37.36,0,0,0-1.57,10.85c0,6.64,2.54,9.18,9.34,9.18a16.55,16.55,0,0,0,3.89-.38,2.42,2.42,0,0,1,.7,0,2.7,2.7,0,0,1,2.06.92,4.78,4.78,0,0,1,1,2.16c0,1.19-1.41,1.67-5,1.67-9.77,0-15.61-4.48-15.61-11.93a32.44,32.44,0,0,1,6.54-19,16.54,16.54,0,0,1,2.75-3.08.54.54,0,0,0,.27-.43.24.24,0,0,0-.21-.22c-3.08,0-14.1,4.32-17.66,6.91-1.51,1.08-2,1.3-2.92,1.3a7.44,7.44,0,0,1-4.05-2.21,6.39,6.39,0,0,1-1.13-3.84c0-.21.11-.38.32-.38s.22.06.33.27c.54,1.25,1.56,1.79,3.56,1.79a10.29,10.29,0,0,0,4-.87c8.37-2.48,12.64-3.67,18.25-4.91ZM242.19,24a2,2,0,0,1-1.89,1.89c-.49,0-.81-.27-1.24-1a8.82,8.82,0,0,0-5.29-4.32c-.38-.05-.44-.11-.44-.27s.65-.38,1.84-.38C238.68,19.87,242.19,21.92,242.19,24Zm5.62-2.92a2,2,0,0,1-1.89,2c-.49,0-.81-.22-1.14-.87a9.38,9.38,0,0,0-5.56-4.59c-.32-.05-.38-.1-.38-.21,0-.27.76-.43,1.95-.43C244.3,17,247.81,19,247.81,21.06Z"/><path class="cls-2" d="M270.86,31.05v3c0,.76-1.35,1.52-2.7,1.52a.68.68,0,0,1-.75-.65V.92l4.32,2.64h22.08l1.52-2.48,3.72,3.29a1.09,1.09,0,0,1,.49.81c0,.33-.22.6-.7.76l-1.41.43V33.48c0,.49-.21.76-.75,1a5.46,5.46,0,0,1-2.06.49c-.54,0-.81-.27-.81-.87v-3h-5.45V43.63c0,1,.05,1,.27,1.14l.76,0,3.13.06c9.94-.11,10-.11,10.64-3l1.13-6.37,1.3.21-.22,7.13c0,.92.38,1.3,1.35,1.62.7.22.86.38.86.87,0,1.13-.86,1.83-2.64,2.16-2,.37-2,.37-11.18.54-8.1,0-8.59-.17-9-2.7V31.05h-4.49c-1.13,8.59-3.4,12.58-8.64,15.28a39.07,39.07,0,0,1-9.23,2.86,23.73,23.73,0,0,1-3,.49c-.38,0-.6-.16-.6-.49s.33-.54.92-.75c12.47-3.78,15.88-7.35,16.85-17.39Zm22.95-18.9V4.91H271v7.24Zm0,8.86V13.5H271V21Zm0,8.74V22.36H271v7.39Z"/><path class="cls-2" d="M344.84,42.28c2.43-1.19,3.46-2,4.49-3.67A11.72,11.72,0,0,0,351,32.67c0-5.35-3-8.32-8.32-8.32-5,0-8.42,1.73-11.93,6a24.57,24.57,0,0,0-4.05,6.37,2.1,2.1,0,0,1-1.95,1.46c-.92,0-2.32-1.62-2.32-2.76,0-.59.43-1.29,1.51-2.37,7.13-7.4,7.62-8,15.34-18.25,3.13-4.05,3.18-4.11,3.18-5a1.14,1.14,0,0,0-1.18-1.24c-1.68,0-3,.7-8.54,4.59-1,.75-1.51,1-2.05,1a4.13,4.13,0,0,1-2.54-1.57,4.24,4.24,0,0,1-1-2.91c0-1,.11-1.3.43-1.3s.17.05.27.49a1.94,1.94,0,0,0,2.06,1.35c2.21,0,8.8-2.33,11.17-4a2.5,2.5,0,0,1,1.84-.64c2.16,0,6,2.59,6,4.1a1.24,1.24,0,0,1-.86,1.19c-2.32,1-5.35,3.72-9.77,8.69-2.65,3-3.41,3.94-3.41,4.38,0,.21.17.48.33.48a.83.83,0,0,0,.27-.11,1,1,0,0,0,.27-.1c.11-.06.38-.17.75-.33a20.1,20.1,0,0,1,7.78-1.62c6.37,0,10.91,4.38,10.91,10.48a11.35,11.35,0,0,1-4.05,8.91,18.86,18.86,0,0,1-11.67,4.05,10.45,10.45,0,0,1-6.48-2,3.86,3.86,0,0,1-1.45-3.24c0-2.48,2.1-4.1,5.29-4.1,3.62,0,6.26,1.78,7.83,5.34l.05.16Zm-3.45.81c-.6-3.29-2.16-5-4.65-5a2.2,2.2,0,0,0-2.48,2.16c0,1.79,2.05,3,5.18,3a10,10,0,0,0,1.62-.1Z"/><path class="cls-2" d="M8.32,94.89c-.49,0-1.62,0-3.3.11-.48,0-1.83,0-3.4,0L1,93.32c3.94.16,5.73.22,7.24.27h3.45V85.92l4.05.33c.76,0,1.25.48,1.25,1a1.42,1.42,0,0,1-.81,1.14L14.9,89v4.59h2.16l2.49-3.29,3.62,2.86a1.69,1.69,0,0,1,.64,1.08.7.7,0,0,1-.64.65H14.9v3.29a19.15,19.15,0,0,1,5.35,2A4.81,4.81,0,0,1,23,104.12a2,2,0,0,1-1.83,1.95,2,2,0,0,1-1.14-.44,18.91,18.91,0,0,1-1.67-2.7,8.9,8.9,0,0,0-3.46-3.24v12.1c0,.81-1.18,1.51-2.59,1.51-.48,0-.65-.27-.65-.86V99.86a46.48,46.48,0,0,1-7,7.39C2.65,109,1.13,110,.54,110a.54.54,0,0,1-.54-.54c0-.27.27-.59,1.3-1.41a43.26,43.26,0,0,0,9.45-13.17Zm6-21.93c-.32,0-2.26.06-5.13.17-.64.05-2.59.05-4.69.1l-.81-1.89c2.48.11,4.48.17,5.29.17,2.64.1,4.43.16,5.34.16h8.91v-7l3.89.16c.76.06,1.14.33,1.14.92a1.25,1.25,0,0,1-.44,1l-1.29,1v3.89h13l2.91-3.4,3.84,3a1.6,1.6,0,0,1,.7,1c0,.43-.27.64-.86.64H27.49c5.61,5.3,11.82,8.21,21.11,9.83A10.47,10.47,0,0,0,44.93,87c-8.43-3.35-14-7.34-18.36-13.23V87.33c0,.75-1.08,1.35-2.54,1.35-.54,0-.76-.27-.76-.81V75.12A66.06,66.06,0,0,1,9.45,84.47c-3.94,2-6.53,3.24-7,3.24A.46.46,0,0,1,2,87.27c0-.27.54-.64,4.05-2.64A52.67,52.67,0,0,0,20.25,73ZM26.3,95.05l-.54-1.67c5.4.21,5.67.21,7.23.21h1.57V86.36l4.43.27c.48.05.92.43.92.75a1.37,1.37,0,0,1-.71,1l-1.51.86v4.32h4.59l2.86-3.29L49,93.21a1.28,1.28,0,0,1,.59,1,.65.65,0,0,1-.7.7H37.8c1.73,4.26,6.43,8.42,12.91,11.28A9,9,0,0,0,47,109.58,29.16,29.16,0,0,1,37.69,97.7v14.36c0,.76-.81,1.13-2.43,1.13-.48,0-.7-.21-.7-.75V99.1a71.86,71.86,0,0,1-8.26,8.1c-3,2.49-5.08,3.94-5.62,3.94a.52.52,0,0,1-.43-.48c0-.22,0-.22,1.78-1.73a75.34,75.34,0,0,0,11.56-14Z"/><path class="cls-2" d="M83.27,74.8A50.26,50.26,0,0,1,84,81.33c0,5.46-2.48,11.88-6.58,17.18-3.14,4-6,6-8.86,6a4.81,4.81,0,0,1-3.73-2A12.6,12.6,0,0,1,62.05,94c0-11.45,9.93-20.84,22-20.84,10.69,0,18.14,6.69,18.14,16.3,0,8.59-5.07,15.56-13.61,18.63a32.79,32.79,0,0,1-7.39,1.79c-.38,0-.71-.27-.71-.49s.17-.21.92-.43a24.43,24.43,0,0,0,10.21-5.35c3.89-3.35,6.15-8.85,6.15-15.06,0-5-1.56-8.64-4.64-11a14,14,0,0,0-8.37-2.8ZM81.11,75A19.2,19.2,0,0,0,65.29,94.13c0,4,1.51,7,3.56,7,2.32,0,6.64-4.37,9.29-9.39,2.1-4.11,3.78-9.67,3.78-12.75a10.64,10.64,0,0,0-.7-3.72Z"/><path class="cls-2" d="M128.57,85.38c2.06,1.35,3,2.6,3,4.22a2.28,2.28,0,0,1-2.16,2.21c-.86,0-1.35-.38-1.83-1.3a12.35,12.35,0,0,0-6.81-6c-.32-.11-.48-.22-.48-.38s.86-.54,1.94-.54A13.65,13.65,0,0,1,128.57,85.38Zm-.64,22.52c-1.35,0-3.62-1.73-4.86-3.78a5,5,0,0,1-.81-3.24q0-.81.48-.81c.22,0,.27.11.7.7a4,4,0,0,0,3.89,2.06c1.84,0,5.08-1.46,9.24-4.16a110.65,110.65,0,0,0,16.57-14.26,59.21,59.21,0,0,0,5.78-7.18c.43-.65.65-.86.87-.86s.38.32.38.59c0,1-2.71,5.56-5.3,9A79.2,79.2,0,0,1,131.6,105.8c-1.78,1-2.54,1.45-2.65,1.56A1.23,1.23,0,0,1,127.93,107.9Zm7.12-32.56c2.06,1.24,3,2.59,3,4.32a2.43,2.43,0,0,1-2.32,2.54c-.92,0-1.25-.27-1.84-1.46a11.88,11.88,0,0,0-7.94-6.1c-.38,0-.54-.11-.54-.33,0-.43,1-.7,2.54-.7A15.64,15.64,0,0,1,135.05,75.34Zm22.14-1.78a1.86,1.86,0,0,1-1.72,1.78c-.76,0-1.08-.22-1.52-1.08a9.67,9.67,0,0,0-5-4.32c-.38-.11-.54-.16-.54-.32s.65-.38,1.51-.38C153.68,69.24,157.19,71.29,157.19,73.56Zm6.11-2.32a1.93,1.93,0,0,1-1.79,1.83A1.57,1.57,0,0,1,160,72a9.82,9.82,0,0,0-5.29-4.48c-.27-.05-.38-.16-.38-.27s.81-.43,1.68-.43C159.68,66.81,163.3,69,163.3,71.24Z"/><path class="cls-2" d="M186.3,88.14c1.89,1.4,2.81,2.86,2.81,4.43,0,1.4-.76,2.32-1.89,2.32-1,0-1.3-.43-1.73-2-.7-2.48-3-5.5-4.64-6.15-.6-.27-.71-.33-.71-.54s.27-.38.71-.38C182.14,85.82,184.52,86.79,186.3,88.14Zm-2.81,23.54c-.54.11-.92.22-1.08.27a2.07,2.07,0,0,1-.54.11.74.74,0,0,1-.65-.59c0-.17.11-.22.33-.27a39.29,39.29,0,0,0,8.1-4.22,46.88,46.88,0,0,0,12.36-12,32.25,32.25,0,0,0,3.35-6.75,20.74,20.74,0,0,0,.87-3.94,2.24,2.24,0,0,0-1.46-2.11c-.38-.1-.49-.21-.49-.37,0-.38.65-.6,1.57-.6A4.07,4.07,0,0,1,209,82.74c1.78,1.83,2.38,2.59,2.38,3.08s-.22.7-1.35,1.56C205.15,98.94,193.75,109.42,183.49,111.68Zm14-22.84a2.18,2.18,0,0,1-2,2.27A1.36,1.36,0,0,1,194,89.87c-.48-3-2.86-6.75-4.8-7.62-.22-.11-.33-.21-.33-.38s.22-.32.54-.32C192.89,81.55,197.48,85.65,197.48,88.84Z"/><path class="cls-2" d="M251.64,102.12a44.14,44.14,0,0,1-14.53,6.21,3.49,3.49,0,0,1-.7.17,2.93,2.93,0,0,1-.48.1c-.33,0-.76-.27-.76-.54s.16-.32.81-.54a57.42,57.42,0,0,0,14.58-8A46,46,0,0,0,261.41,86.3c1.3-2.43,2.38-5.45,2.38-6.53,0-.87-.65-1.35-1.62-1.35-4.64,0-14.15,1.67-18,3.13a2.78,2.78,0,0,1-.92.27,7.15,7.15,0,0,1-3.08-1.62A4.05,4.05,0,0,1,239,77.34c0-1,.16-1.51.54-1.51.16,0,.22.1.38.48.32,1,2.21,1.89,4.21,1.89s9.18-.75,14.31-1.46c2.65-.37,3.46-.64,4.64-1.4s1.3-.76,1.73-.76c.76,0,1.24.27,3.57,2.22l1.24,1c.92.65,1.19,1,1.19,1.41s-.22.54-.87.81c-.16.11-.16.11-1.19.7C262.82,92.46,258.77,97.53,251.64,102.12Zm27-30.88a5.19,5.19,0,1,1-5.08-5.19A5.18,5.18,0,0,1,278.64,71.24Zm-8.59,0a3.41,3.41,0,1,0,3.35-3.41A3.39,3.39,0,0,0,270.05,71.24Z"/><path class="cls-2" d="M307.58,105.42c-3.94,2.27-8.85,4.1-11,4.1-.49,0-.87-.27-.87-.54s.11-.32.44-.38a37.77,37.77,0,0,0,11.17-5.72c4.86-3.73,8.43-7.61,10.59-11.72,1.94-3.56,2.81-5.67,2.81-6.75,0-.92-.6-1.4-1.73-1.4a95.45,95.45,0,0,0-9.51,1.24,72.65,72.65,0,0,0-9.39,2.43,2.09,2.09,0,0,1-.87.22c-.64,0-1.78-.71-3.07-1.89a5.43,5.43,0,0,1-1.41-3.57c0-.43.16-.7.49-.7.16,0,.21.05.32.38.33,1.08,2.38,1.94,4.48,1.94.87,0,.87,0,7.4-.65,4.38-.48,7-.75,7.78-.86a18.35,18.35,0,0,0,6.05-1.67,3.06,3.06,0,0,1,1-.27c1,0,4.91,3.07,4.91,3.88,0,.49-.21.71-1.94,2C319.68,96,315.42,100.83,307.58,105.42Zm-7.93-34c.54.81,1.78,1.19,3.78,1.19,3.94,0,10.09-1.08,12.69-2.22a3.58,3.58,0,0,1,1.67-.48c.54,0,1,.21,2.65,1.08,1.13.59,1.51,1,1.51,1.51s-.49.86-2.49,1.08c-2.75.32-2.86.32-7.07,1.08a52.36,52.36,0,0,1-8.15,1,4.33,4.33,0,0,1-4.11-2,9.33,9.33,0,0,1-1.08-2.32c0-.11.11-.27.22-.27S299.43,71.07,299.65,71.4Z"/><path class="cls-2" d="M369.74,84.68c2.75,1.24,2.75,1.24,2.75,1.78a1.78,1.78,0,0,1-.21.76,11.73,11.73,0,0,0-.49,4.32l.11,5.51v6.15l.05,3.73c.06.7.06,1.35.06,1.78,0,1.41-.49,2.22-1.3,2.22-1.62,0-3.51-1.41-3.51-2.65a4.32,4.32,0,0,1,.16-1,171,171,0,0,0,1.3-18.68,5.49,5.49,0,0,0-.65-3.19,68.56,68.56,0,0,1-14,11.13,24,24,0,0,1-6,2.54c-.22,0-.54-.22-.54-.44s.1-.27.54-.43c8.53-3.89,25.21-21,25.21-25.7,0-.54-1-1.51-1.78-1.68-.48-.1-.59-.21-.59-.43,0-.38,1.13-.75,2.21-.75,2,0,6.1,2.91,6.1,4.37,0,.38-.16.54-.64.81a3.93,3.93,0,0,0-1.95,1.62,89.08,89.08,0,0,1-7.5,7.94Z"/><path class="cls-2" d="M422.28,81.44a2.25,2.25,0,0,1-2.48,2.32c-.71,0-1.08-.27-1.62-1.24a12,12,0,0,0-8.32-6.64c-.32-.11-.49-.22-.49-.38,0-.38,1-.65,2.54-.65C417.1,74.85,422.28,78.15,422.28,81.44Zm-7,24c-.81,0-2.59-1.3-3.89-2.81a4,4,0,0,1-1.35-3.4c0-1,.27-1.84.65-1.84.22,0,.32.11.43.38a3.82,3.82,0,0,0,3.24,2.75c2.22,0,8.75-4,16.58-10.26a106.74,106.74,0,0,0,10.1-9c1.08-1.08,4-4.43,4.53-5.08s.65-.86.92-.86a.44.44,0,0,1,.44.48c0,.87-2.38,4.54-5.08,7.83a84.1,84.1,0,0,1-11.56,11.67,82.44,82.44,0,0,1-12.85,8.85C416.39,105,415.8,105.42,415.26,105.42Z"/><path class="cls-2" d="M153.85,154.68c-.65-.38-.81-.54-.81-.71s.27-.37.54-.37c1.35,0,4.1,1.29,6.59,3.07,4.15,3,7.23,7.35,7.23,10.21a2.34,2.34,0,0,1-2.38,2.54,2,2,0,0,1-1.56-.7c-.33-.44-.33-.49-1-2.38a26.85,26.85,0,0,0-2.59-5.56c-4.59,1.73-5.94,2.16-17.5,5.18a33.35,33.35,0,0,0-9,3.08,3.56,3.56,0,0,1-1.08.38c-.59,0-1.84-1-3.24-2.65a3.28,3.28,0,0,1-1.08-2.48,9.88,9.88,0,0,1,.27-2c.11-.43.16-.49.49-.49s.27.06.37.38c.27,1.3,1.41,1.95,3.35,1.95a25.63,25.63,0,0,0,3.57-.27c2.16-3.89,4.32-8.32,7.29-15,2.59-5.73,3-6.81,3-7.72a3.41,3.41,0,0,0-1.08-2.27c-.22-.22-.27-.27-1.3-.7-.21-.11-.27-.22-.27-.33.06-.32,1.14-.59,2.22-.59a5.74,5.74,0,0,1,3.29,1.35c1.89,1.62,2.86,2.81,2.86,3.56,0,.38-.16.6-.81,1.3a183.28,183.28,0,0,0-13,20.09c6.27-.92,14.37-2.54,20.74-4.11A16.12,16.12,0,0,0,153.85,154.68Z"/><path class="cls-2" d="M213.62,144.09a10.41,10.41,0,0,0-.05,1.35c.49-.05,1-.16,1.13-.16l2-.22a12.3,12.3,0,0,0,3.45-1,4.53,4.53,0,0,1,2-.59,15.33,15.33,0,0,1,4.37,1.62c.81.43,1.35,1,1.35,1.46a1.58,1.58,0,0,1-1.46,1.56c-.32,0-.75,0-1.29-.11a64.78,64.78,0,0,0-7.72-.64c-1.08,0-2,.05-3.84.21-.7,9.83-1.67,13.66-4.7,18.09a22.47,22.47,0,0,1-12.2,8.75,2.53,2.53,0,0,0-.65.22,2.41,2.41,0,0,1-.43.1.74.74,0,0,1-.65-.59c0-.21.16-.38.54-.48,9.56-4.22,14.64-13.24,14.64-26-4,.27-5.94.43-9,.75,0,1.68,0,2.81,0,3.35s.06,1.3.06,2.11v1.45l.05,1.84c0,.49.11.92.11,1.19a1.25,1.25,0,0,1-1.3,1.29c-1.08,0-2.54-1.89-2.54-3.24a7.22,7.22,0,0,1,.06-1c.16-1.41.27-4.21.27-6.54a62.86,62.86,0,0,0-6.64,1.52,8.31,8.31,0,0,1-2.54.48,4.78,4.78,0,0,1-3.84-2.05,3.19,3.19,0,0,1-1-2.48v-.11a.29.29,0,0,1,.33-.33c.1,0,.21.06.37.22,1,1,2.27,1.4,4.81,1.4,1.08,0,5.24-.27,8.48-.54-.06-.64-.06-1.45-.06-1.45l-.1-2.43c-.17-4-.17-4-.65-4.49a3.9,3.9,0,0,0-2.49-.75,2.39,2.39,0,0,0-.59,0c-.05.06-.16.06-.22.06a.24.24,0,0,1-.21-.22c0-.16.11-.32.48-.54.11-.05.44-.27.92-.59,1-.76,1.46-1,1.84-1A15,15,0,0,1,200,136.8c.76.43,1.19.92,1.19,1.41a2.6,2.6,0,0,1-.05.59,1.83,1.83,0,0,0-.11.76v.86c-.06,1.46-.06,2.54-.06,3.35s0,1.51.06,2.91c4-.43,4.53-.48,9.07-.86l-.05-4.1c.05-5.89-.6-7.19-3.68-7.83-.21-.06-.32-.17-.32-.27,0-.49,1.78-1,3.29-1,1.95,0,5.67,2.27,5.67,3.51,0,.22,0,.22-.64,1.46a5.9,5.9,0,0,0-.6,2.37l0,1.25Z"/><path class="cls-2" d="M270.86,144.09a10.41,10.41,0,0,0-.05,1.35c.49-.05,1-.16,1.13-.16l1.95-.22a12.3,12.3,0,0,0,3.45-1,4.53,4.53,0,0,1,2-.59,15.33,15.33,0,0,1,4.37,1.62c.81.43,1.35,1,1.35,1.46a1.58,1.58,0,0,1-1.46,1.56c-.32,0-.75,0-1.29-.11a64.78,64.78,0,0,0-7.72-.64c-1.08,0-2,.05-3.84.21-.7,9.83-1.67,13.66-4.7,18.09a22.47,22.47,0,0,1-12.2,8.75,2.53,2.53,0,0,0-.65.22,2.41,2.41,0,0,1-.43.1.74.74,0,0,1-.65-.59c0-.21.16-.38.54-.48,9.56-4.22,14.64-13.24,14.64-26-4.05.27-5.94.43-9,.75,0,1.68,0,2.81,0,3.35s.06,1.3.06,2.11v1.45l.05,1.84c.05.49.11.92.11,1.19a1.25,1.25,0,0,1-1.3,1.29c-1.08,0-2.54-1.89-2.54-3.24a7.22,7.22,0,0,1,.06-1c.16-1.41.27-4.21.27-6.54a62.86,62.86,0,0,0-6.64,1.52,8.31,8.31,0,0,1-2.54.48,4.78,4.78,0,0,1-3.84-2.05,3.19,3.19,0,0,1-1-2.48v-.11a.29.29,0,0,1,.33-.33c.1,0,.21.06.37.22,1,1,2.27,1.4,4.81,1.4,1.08,0,5.24-.27,8.48-.54-.06-.64-.06-1.45-.06-1.45l-.1-2.43c-.17-4-.17-4-.65-4.49a3.9,3.9,0,0,0-2.49-.75,2.39,2.39,0,0,0-.59,0c0,.06-.16.06-.22.06a.24.24,0,0,1-.21-.22c0-.16.11-.32.48-.54.11-.05.44-.27.92-.59,1-.76,1.46-1,1.84-1a15,15,0,0,1,3.29,1.19c.76.43,1.19.92,1.19,1.41a2.6,2.6,0,0,1-.05.59,1.83,1.83,0,0,0-.11.76v.86c-.06,1.46-.06,2.54-.06,3.35s0,1.51.06,2.91c4-.43,4.53-.48,9.07-.86l-.05-4.1c.05-5.89-.6-7.19-3.68-7.83-.21-.06-.32-.17-.32-.27,0-.49,1.78-1,3.29-1,1.95,0,5.67,2.27,5.67,3.51,0,.22,0,.22-.64,1.46a5.9,5.9,0,0,0-.6,2.37l-.05,1.25Z"/><path class="cls-2" d="M311.31,161.37a7.16,7.16,0,0,0,1.62,4.81c.92.92,2.59,1.35,5.35,1.35,5.18,0,8.64-.65,11.61-2.11a15.59,15.59,0,0,1,3.61,1.24c.92.44,1.25.76,1.25,1.41,0,1.08-.76,1.78-2.22,2.16a35.6,35.6,0,0,1-7.83.7c-6,0-9.83-.32-11.66-1-3.08-1.18-4.81-4.32-4.81-8.74l.06-3.46,0-5.18c.11-6.43.11-6.43.11-7,0-4.05-.7-5.62-2.81-6.32-.27-.11-.38-.22-.38-.33,0-.37,1.78-1,2.81-1,1.94,0,4.7,2.1,4.7,3.67,0,.27-.06.65-.11,1.08-.49,2.32-.59,3.24-1.13,11.93A51.55,51.55,0,0,0,319.9,150c3.29-2.16,4.42-3.35,4.42-4.75a1.83,1.83,0,0,0-.7-1.4c-.21-.17-.27-.27-.27-.44s.22-.37.54-.37a10,10,0,0,1,4.16,1.51c2,1.19,2.86,2,2.86,2.86s-.86,1.3-5,3a135.32,135.32,0,0,1-14.42,5.24l-.05,1.46-.06,2.21Zm23.17-21.22a1.88,1.88,0,0,1-1.79,1.78,1.49,1.49,0,0,1-1.56-1.08,10.16,10.16,0,0,0-5.46-4.48c-.21-.11-.32-.16-.32-.27s.7-.38,1.46-.38C330.86,135.72,334.48,137.83,334.48,140.15Zm5.72-2.75a2,2,0,0,1-1.84,1.78c-.7,0-1.08-.27-1.51-1.14a10.64,10.64,0,0,0-5.29-4.48c-.38-.11-.49-.16-.49-.27,0-.27.76-.43,1.79-.43C336.47,132.86,340.2,135.13,340.2,137.4Z"/></g></g></g></g></svg>