<svg xmlns="http://www.w3.org/2000/svg" viewBox="0 0 285.9 53"><path d="M25.1,14.2a.91.91,0,0,1-.3.5c-.7,1-.7,1-2.5,5.9a90.79,90.79,0,0,1-9.7,19.5c-2.2,3.2-2.9,3.8-4.3,3.8-.7,0-.8-.1-2.6-1.6a18.39,18.39,0,0,1-3.8-4A12.45,12.45,0,0,1,0,31.4C0,26.1,2.8,20,7.1,16A27.72,27.72,0,0,1,25.6,8.6c11.4,0,20.8,8.2,20.8,18.1,0,5.8-3.6,11.4-9.4,14.6a45.39,45.39,0,0,1-11.8,4.4,16.53,16.53,0,0,1-2.5.5.53.53,0,0,1-.6-.6c0-.4.2-.5,1-.8a60,60,0,0,0,8.6-3.5c6.5-3.3,10.1-8.9,10.1-15.7a13.44,13.44,0,0,0-5.3-10.9,16.49,16.49,0,0,0-11.5-4,16.41,16.41,0,0,0-2.3.2c-.1.1-.2.1-.5.1C23.9,12,25.1,13.4,25.1,14.2ZM8.9,17.7A19.23,19.23,0,0,0,3.8,31.2c0,2.9.4,4.8,1.5,6.5.8,1.1,1.6,1.8,2.5,1.8,1.2,0,2.3-1,3.7-3.4a65.91,65.91,0,0,0,6.8-15.8,45.71,45.71,0,0,0,1.8-6.9,1.75,1.75,0,0,0-1-1.5,6.31,6.31,0,0,0-.9-.4A26.16,26.16,0,0,0,8.9,17.7Z" fill="#fff"/><path d="M79.4,26.7a84.33,84.33,0,0,0-17.9,6.1,2.69,2.69,0,0,1-1.3.4,4.35,4.35,0,0,1-2.1-.9,1.27,1.27,0,0,1-.4-.9,2.46,2.46,0,0,1,.8-1.7c.8-.7,1-.8,4-1.6,3.7-1.1,5.5-2.4,13-9.5C81.7,12.8,86,8.2,86.5,6.7c-5,1.3-10.7,3.5-12,4.7-.8.6-1.2.8-1.6.8-1.9,0-5.8-3.5-5.8-5.2,0-.6.4-1.1,1.4-2.2,1.4,2.3,2.6,3.4,3.7,3.4A10.5,10.5,0,0,0,73.5,8L84.6,5a7.66,7.66,0,0,0,2.5-1.1c.7-.5,1-.6,1.3-.6s1,.4,2.3,1.4C92.3,6.1,93,7,93,7.6c0,.4-.2.5-1,.8l-1.5.5C86.2,13.3,75.6,22,69.3,26.4l16.1-3.7c3.2-.8,6.7-1.4,12.1-2.2,1.5-1.4,1.8-1.6,2.2-1.6a16.51,16.51,0,0,1,4,1.7c1.6.8,2,1.3,2,2.1a1.24,1.24,0,0,1-1.4,1.3c-.4,0-1.2-.1-2.4-.2a9.72,9.72,0,0,0-1.8-.1c-7.5,0-12.5,1.3-16.8,4.1s-6.6,6.7-6.6,10.6c0,5.2,5,8.4,13.4,8.4a25,25,0,0,0,3.3-.2c.7-.1,1.1-.2,1.3-.2A3,3,0,0,1,97.6,49c0,1.4-1.5,2-5.6,2-4.9,0-8.3-.5-10.9-1.6-4.7-2.1-7-5.5-7-10.3a14.62,14.62,0,0,1,3-8.8c.5-.8.5-.8,3.1-3.8ZM96,6.1c5.2,1.5,8.2,3.8,8.2,6.4a2,2,0,0,1-1.8,2.1c-.9,0-1.1-.2-2.6-2.9A13.48,13.48,0,0,0,95.5,7Zm3.8-4c3.9.7,4.3.8,6.1,1.8s3,2.5,3,3.9a1.87,1.87,0,0,1-1.7,1.9c-.6,0-.8-.2-1.7-1.5a17.74,17.74,0,0,0-5.9-5.3Z" fill="#fff"/><path d="M156.4,28.5c-.1.2-.2.4-1.3,3.4a60.87,60.87,0,0,1,9.4,4.4c1.7,1,2.2,1.7,2.2,2.9q0,2.1-1.8,2.1a3.7,3.7,0,0,1-2.1-.8,72.69,72.69,0,0,0-9.1-5.5c-3.3,6.7-6.4,11.1-10.2,14.8-2.3,2.1-3.4,2.9-3.9,2.9a.54.54,0,0,1-.5-.5c0-.2.2-.6.8-1.2a49.82,49.82,0,0,0,10.4-17.4c-6.4-2.2-10.3-2.9-14.6-2.9h-1.6c-1.6,2.9-4.2,7.4-5.5,9.3-2,2.9-4.7,4.9-6.5,4.9-3.2,0-6.4-2.7-6.4-5.6s2.5-6.1,6.8-8.2c2.4-1.2,4.9-1.9,9.4-2.6a149.25,149.25,0,0,0,8.2-19.3c-6.7,1.9-8.3,2.5-10.8,4.1a1.85,1.85,0,0,1-1,.4c-1.5,0-5.5-3.7-5.5-5a4.6,4.6,0,0,1,.9-2.2c2.1,2.2,3,2.8,4.3,2.8s6.9-1.3,11.9-2.9l1.7-2c3.2,2.1,4.7,3.5,4.7,4.5,0,.7-.5,1-2.3,1.5L140,19c-2.6,5.5-3.3,7-4.7,9.5,7.6.2,9.4.4,16.3,2.3a47.12,47.12,0,0,0,2.3-8.7c0-.9-.5-1.4-2.9-2.6,1.3-1.3,1.8-1.6,2.5-1.6s2.6,1.1,4.4,2.5c1.5,1.1,2.2,2,2.2,2.8,0,.6-.5,1-2.1,1.4a5.13,5.13,0,0,1-.4,1ZM119.2,39.6c0,1.6.8,2.6,2.2,2.6,1.9,0,3.8-1.8,6.5-6.2a34.61,34.61,0,0,0,2.7-5C124.2,31.8,119.2,35.6,119.2,39.6Z" fill="#fff"/><path d="M201.5,14.2a.91.91,0,0,1-.3.5c-.7,1-.7,1-2.5,5.9A90.79,90.79,0,0,1,189,40.1c-2.2,3.2-2.9,3.8-4.3,3.8-.7,0-.8-.1-2.6-1.6a18.39,18.39,0,0,1-3.8-4,12.45,12.45,0,0,1-1.9-6.9c0-5.3,2.8-11.4,7.1-15.4A27.72,27.72,0,0,1,202,8.6c11.4,0,20.8,8.2,20.8,18.1,0,5.8-3.6,11.4-9.4,14.6a45.39,45.39,0,0,1-11.8,4.4,16.53,16.53,0,0,1-2.5.5.53.53,0,0,1-.6-.6c0-.4.2-.5,1-.8a60,60,0,0,0,8.6-3.5c6.5-3.3,10.1-8.9,10.1-15.7a13.44,13.44,0,0,0-5.3-10.9,17.49,17.49,0,0,0-13.8-3.8c-.1.1-.2.1-.5.1C200.3,12,201.5,13.4,201.5,14.2Zm-16.2,3.5a19.23,19.23,0,0,0-5.1,13.5c0,2.9.4,4.8,1.5,6.5.8,1.1,1.6,1.8,2.5,1.8,1.2,0,2.3-1,3.7-3.4a65.91,65.91,0,0,0,6.8-15.8,45.71,45.71,0,0,0,1.8-6.9,1.75,1.75,0,0,0-1-1.5,6.31,6.31,0,0,0-.9-.4A26.16,26.16,0,0,0,185.3,17.7Z" fill="#fff"/><path d="M230.4,35.8l4.7.6,13-26.3.8.5-9.7,25.9a6.23,6.23,0,0,0-.3,2.1c0,2,0,2,1.3,7.7a11,11,0,0,1,.2,1.8c0,2-1.2,3.5-2.9,3.5a2.71,2.71,0,0,1-2.7-2.8c0-.3.2-2.3.5-5.2a4.48,4.48,0,0,0,.1-1.1c0-3.5-1.2-4.8-5.1-5.5V35.8Zm1-21.8c4.5.6,8,3.7,8,7a2.56,2.56,0,0,1-2.5,2.6,1.42,1.42,0,0,1-1.4-.7c-.2-.3-.2-.3-.7-2.6a9.74,9.74,0,0,0-3.5-5.7ZM236,.9a12.85,12.85,0,0,1,5.3,1.9,7,7,0,0,1,3.4,5.5,2.34,2.34,0,0,1-2.4,2.5c-1.5,0-1.7-.2-2.8-4a10.24,10.24,0,0,0-3.7-5.2Zm9.4,23.3c4.1.2,5.9.2,8,.2h24.4l3.2-3.8,4.4,3.7c.4.4.5.6.5.9a.68.68,0,0,1-.7.7H260.8l-3.2,5.4h20.5l1.9-2.8,3.7,3.6a1.06,1.06,0,0,1,.5.9c0,.2-.2.5-.7.7l-1.3.6c-.7,5.9-1.6,10.2-2.9,13.1-1,2.1-2,3.4-3.3,4a8,8,0,0,1-2.8.8c-.6,0-.6,0-.7-2.5a.92.92,0,0,0-.4-.6L266.5,47l.2-1.1,5.8.8a2,2,0,0,0,.9.1,2.81,2.81,0,0,0,2.6-1.7c1.1-2.2,2.2-7.3,2.6-12.3h-4.1c-4.3,7.7-6.3,10.4-11.5,14.9-3.4,3-6.8,5.3-7.7,5.3a.65.65,0,0,1-.5-.6c0-.2.2-.5.7-.8a48.93,48.93,0,0,0,14.9-18.8h-3.9c-4.4,6.8-6.9,9.5-11.9,13.4-3.9,2.9-7.9,5.5-8.9,5.5a.54.54,0,0,1-.5-.5c0-.3.3-.7.9-1.1,7.7-5.2,12-9.8,16-17.3h-5.3A48.44,48.44,0,0,1,245.9,44a7.08,7.08,0,0,1-2.5,1.4.43.43,0,0,1-.4-.4c0-.4,0-.4,2.2-2.3A49.59,49.59,0,0,0,256.8,26h-3.2c-1.7,0-3.3.1-7.3.2ZM257.6,2.8h15.1L274.3.2,278,3.9a1.49,1.49,0,0,1,.4.9,1,1,0,0,1-.7.9l-.9.2V20.4a1.19,1.19,0,0,1-.9,1.3,9,9,0,0,1-1.9.5.74.74,0,0,1-.8-.8V19.2H257.1v2.2c0,.7-1.3,1.3-2.6,1.3a.82.82,0,0,1-.8-.9V0ZM273.2,10V4.2H257.1V10Zm0,7.7V11.6H257.1v6.1Z" fill="#fff"/></svg>