<?xml version="1.0" encoding="utf-8"?>
<!-- Generator: Adobe Illustrator 24.1.0, SVG Export Plug-In . SVG Version: 6.00 Build 0)  -->
<svg version="1.1" id="レイヤー_1" xmlns="http://www.w3.org/2000/svg" xmlns:xlink="http://www.w3.org/1999/xlink" x="0px"
	 y="0px" viewBox="0 0 222.3 46.1" style="enable-background:new 0 0 222.3 46.1;" xml:space="preserve">
<style type="text/css">
	.st0{fill:#FFFFFF;}
</style>
<g>
	<g>
		<path class="st0" d="M5.4,39.8c-0.1,0-0.1,0-0.2,0c-0.2,0-0.4-0.2-0.5-0.3c-0.1-0.2-0.2-0.4-0.3-0.6l0,0v-0.1
			c-0.1-0.3-0.1-0.6,0.1-0.9l0.1-0.1c0.4-0.5,0.9-1,1.4-1.5c0.4-0.4,0.8-0.8,1.2-1.2c2.1-2.2,4.3-4.3,6.4-6.5
			c2.2-2.1,4.3-4.3,6.5-6.4c2.1-2.1,4.2-4.4,6.3-6.6c2-2.1,4-4.4,5.8-6.7c1-1.3,1.9-2.6,2.8-3.9c0.2-0.3,0.4-0.6,0.5-0.9
			c0.1-0.3,0.3-0.6,0.3-0.9c0-0.1,0-0.1,0-0.2c0-0.1-0.1-0.1-0.1-0.1h-0.1c-0.1,0-0.2-0.1-0.4-0.1c-0.1,0-0.2,0-0.4,0h-0.1
			c-1.8,0.2-3.5,0.7-5.2,1.3c-2.7,1-5.4,2.2-7.9,3.5c-3.2,1.5-6.3,3.3-9.2,5.2c-1.8,1.2-3.5,2.4-5.1,3.8c-1.2,1.1-2.4,2.3-3.4,3.6
			c-0.4,0.5-0.7,1-0.9,1.6c0,0,0,0.1,0,0.2c0,0.1,0,0.1,0.1,0.2c0.1,0.1,0.1,0.1,0.2,0.2c0.1,0.1,0.2,0.1,0.3,0.2
			c0.1,0.1,0.2,0.3,0.3,0.4L4,23.2c0,0.2,0,0.3-0.1,0.4c-0.1,0.1-0.2,0.2-0.3,0.2c-0.1,0.1-0.2,0.1-0.3,0.1c-0.2,0-0.4,0-0.6-0.1
			c-0.5-0.3-0.8-0.6-1.1-1c-0.2-0.4-0.3-0.9-0.4-1.4c0-0.2,0-0.4,0.1-0.7v-0.1c0.1-0.4,0.3-0.8,0.5-1.2s0.5-0.7,0.7-1
			c0.9-1.2,1.9-2.3,3.1-3.3c1.6-1.5,3.4-2.8,5.2-4c3.7-2.4,7.6-4.6,11.7-6.4c1.8-0.8,3.7-1.6,5.6-2.4c1.6-0.7,3.3-1.1,5-1.4
			c0.3-0.1,0.6-0.1,0.8-0.1c0.1,0,0.1,0,0.1,0h0.1c0.7,0,1.3,0.1,1.7,0.3c0.7,0.3,1.2,0.8,1.5,1.5s0.4,1.4,0.1,2.2
			c-0.4,1-0.9,1.9-1.5,2.7c-1.1,1.6-2.2,3.1-3.5,4.5c-2.2,2.7-4.6,5.3-7,7.8c-1.2,1.3-2.5,2.6-3.8,3.9c-0.6,0.6-1.2,1.3-1.8,1.9v0.1
			c0.1,0,0.1-0.1,0.2-0.1c1.1-0.7,2.1-1.4,3.2-2.2c2-1.4,4-2.8,6-4.1c4.7-3.1,9.5-6,14.5-8.7c2-1.1,4.2-2.1,6.3-2.9
			c0.8-0.3,1.7-0.5,2.6-0.6c0.7,0,1.2,0.2,1.6,0.6c0.4,0.4,0.7,0.8,0.7,1.4c0.1,0.5,0,0.9-0.2,1.4c-0.2,0.4-0.4,0.9-0.7,1.3
			c-0.4,0.5-0.8,1-1.2,1.5c-1.3,1.5-2.7,3.1-4.1,4.5c-0.6,0.6-1.2,1.3-1.8,1.9c-1.4,1.5-2.9,3.1-4.3,4.7c-1.9,2.2-3.6,4.5-5.2,6.9
			c-0.4,0.6-0.9,1.3-1.3,1.9c-0.1,0.1-0.2,0.1-0.3,0.2c-0.1,0-0.3,0-0.4,0c-0.3-0.2-0.4-0.4-0.5-0.6c-0.1-0.3-0.1-0.5,0-0.8
			c0.1-0.2,0.2-0.5,0.3-0.7c1-1.9,2.2-3.7,3.4-5.5c1.2-1.8,2.5-3.4,4-5c1-1.1,2.1-2.3,3.1-3.4c0.6-0.6,1.2-1.3,1.8-2
			c0.1-0.1,0.3-0.3,0.4-0.4c1.2-1.3,2.4-2.6,3.5-3.9l0.2-0.2c0.3-0.3,0.5-0.5,0.7-0.8c0.2-0.2,0.3-0.5,0.4-0.8c-0.1,0-0.2,0-0.3,0.1
			c-0.4,0.1-0.8,0.2-1.2,0.3c-1.1,0.4-2.1,0.8-3.1,1.2c-1,0.5-2,1-3,1.5c-2,1-4,2.2-5.9,3.3s-3.9,2.4-5.8,3.6
			c-6.7,4.3-13.4,8.9-19.7,13.8c-2.6,1.9-5.1,4-7.5,6.2c-0.1,0.1-0.2,0.2-0.3,0.3l0,0l-0.1,0.1C5.8,39.8,5.6,39.8,5.4,39.8z
			 M19.7,25.8L19.7,25.8L19.7,25.8L19.7,25.8z"/>
	</g>
	<g>
		<path class="st0" d="M51.2,31.5c-0.7,0-1.3-0.3-1.7-0.8c-0.8-1-1-2-0.6-3.2c0.2-0.6,0.5-1.1,0.8-1.6c1-1.5,2.3-2.8,3.9-3.7
			c0.4-0.2,0.8-0.4,1.2-0.6c0.3-0.1,0.5-0.1,0.8,0s0.5,0.3,0.7,0.7v0.2l0,0c0.1,0.2,0.2,0.2,0.2,0.2c0.1,0,0.2-0.1,0.3-0.1l0.4-0.1
			c0.5-0.1,0.9-0.1,1.2,0c0.4,0.2,0.6,0.4,0.8,0.7c0.2,0.3,0.3,0.7,0.3,1s-0.1,0.6-0.1,0.9c0,0.1-0.1,0.2-0.1,0.3v0.1
			c0.8,0.1,1.8,0,2.9-0.2s2.1-0.5,3.1-0.9c0.9-0.4,1.2-0.4,1.4-0.2c0.2,0.2-0.1,0.5-0.2,0.6l0,0c-0.4,0.5-1,0.9-1.7,1.3
			c-0.7,0.4-1.5,0.7-2.5,0.9c-0.9,0.2-1.8,0.4-2.6,0.5c-0.8,0.1-1.4,0.2-1.7,0.2c-0.3,0-0.6,0.1-0.8,0.4c-1,1-2.1,1.9-3.4,2.6
			c-0.7,0.4-1.4,0.7-2.2,0.9C51.6,31.4,51.4,31.5,51.2,31.5z M54.6,23.8c-0.4,0.2-0.7,0.5-1.1,0.8s-0.8,0.7-1.1,1.1
			c-0.5,0.5-0.9,1-1.3,1.6c-0.4,0.5-0.6,1.2-0.7,1.8c0,0,0,0.1,0.1,0.2c0.1,0.1,0.1,0.1,0.2,0.1h0.1c0.1,0,0.2,0,0.4-0.1
			c0.6-0.2,1.3-0.4,1.9-0.8c0.6-0.3,1.2-0.7,1.7-1.2c0.3-0.2,0.3-0.3,0.3-0.3s0-0.1-0.3-0.6c-0.2-0.3-0.4-0.6-0.5-1
			c-0.2-0.4-0.2-0.8,0.1-1.2C54.3,24.2,54.4,24.1,54.6,23.8C54.5,23.9,54.5,23.9,54.6,23.8z M56.1,25.4c0.3,0.2,0.5,0.1,0.6,0
			c0.2-0.2,0.4-0.5,0.6-0.8C56.9,24.7,56.5,25,56.1,25.4z M56.1,25.4L56.1,25.4L56.1,25.4z"/>
	</g>
	<g>
		<path class="st0" d="M66.7,40.7c-0.8,0-1.4-0.5-1.7-1.4c-0.1-0.4-0.1-0.8,0.1-1.2c0.4-0.7,0.9-1.3,1.5-1.9
			c0.7-0.6,1.4-1.1,2.1-1.7c2-1.4,4.2-2.7,6.4-3.8c0.1-0.1,0.2-0.1,0.3-0.2c0.2-0.1,0.4-0.2,0.6-0.3c0.1-0.1,0.2-0.1,0.4-0.2
			c0.1,0,0.2-0.1,0.3-0.2l0.1-0.1c-0.1-0.1-0.1-0.1-0.2-0.1c-0.1,0-0.3-0.1-0.4-0.1c-0.1,0-0.2,0-0.3,0c-0.5-0.1-1-0.1-1.5-0.1
			c-1.6,0.1-3.3,0.4-4.9,0.7c-0.4,0.1-0.7,0.1-1.1,0.2c-0.9,0.1-1.4-0.3-1.6-1.2c0-0.1,0-0.2,0-0.4c0-0.1,0.1-0.2,0.1-0.3
			c0.2-0.3,0.5-0.5,0.7-0.6c0.7-0.5,1.5-0.9,2.3-1.4l3-1.7c0.8-0.4,1.6-0.9,2.4-1.3c0.3-0.1,0.5-0.3,0.8-0.5c-0.3,0-0.6,0-0.9,0
			c-0.4,0-0.8,0.1-1.2,0.1h-0.4c-1.1,0.1-2.1,0.6-3,1.5c-1.1,1-1.8,1.4-2.2,1.1c-0.5-0.3-0.6-0.7-0.4-1.1c0.2-0.3,0.6-0.9,1.3-1.8
			c0.9-1.2,1.4-1.4,1.6-1.4s0.3,0,0.5,0c0.8-0.1,1.6-0.1,2.3-0.2c0.6,0,1.2-0.1,1.7-0.1c0.2,0,0.5,0,0.7,0h0.1l0,0h0.5
			c0.5,0,1,0,1.5,0c0.7,0.1,1.3,0.4,1.6,1.1c0.1,0.2,0.1,0.4,0.1,0.6c0,0.2-0.1,0.4-0.3,0.5h-0.1c-0.4,0.3-0.9,0.6-1.3,0.8
			c-1.1,0.6-2.2,1.2-3.3,1.8c-0.7,0.4-1.4,0.8-2.1,1.2c-0.3,0.2-0.7,0.4-1,0.6l0,0c0.3,0,0.7,0,1-0.1c0.4-0.1,0.9-0.1,1.3-0.1
			s0.8,0.1,1.3,0.1c0.8,0.1,1.5,0.4,2.1,1l0,0l0.2,0.2c0.1,0.2,0.2,0.2,0.3,0.2s0.3,0,0.5-0.1c1.3-0.6,2.8-1.4,4.3-2.3
			c1-0.6,2-1.1,2.9-1.6s1.7-0.8,2.4-1c0.9-0.3,1.2-0.2,1.3-0.1c0.1,0.1,0.1,0.2,0.1,0.4c-0.1,0.2-0.3,0.5-1.2,1.1
			c-0.7,0.5-1.5,1-2.5,1.6s-2,1.2-2.9,1.8c-1,0.6-1.8,1.1-2.5,1.5s-1.1,0.6-1.2,0.7c-0.3,0.1-0.5,0.3-0.7,0.4
			c-0.2,0.1-0.3,0.4-0.5,0.6c-0.2,0.4-0.5,0.9-0.8,1.2c-0.3,0.4-0.6,0.7-0.9,1.1c-1.9,2.1-4.1,3.8-6.6,5.1c-0.7,0.4-1.5,0.7-2.3,1
			C67.2,40.7,66.9,40.7,66.7,40.7z M76.4,23.1C76.4,23.1,76.5,23.1,76.4,23.1C76.5,23.1,76.4,23.1,76.4,23.1z M73.4,34.1
			c-0.8,0.5-1.7,1-2.5,1.5c-0.9,0.5-1.7,1.2-2.5,1.8c-0.2,0.2-0.4,0.4-0.6,0.6c1-0.5,1.8-1,2.5-1.4c0.8-0.6,1.6-1.2,2.3-1.8
			C72.9,34.6,73.1,34.4,73.4,34.1z"/>
	</g>
	<g>
		<path class="st0" d="M92.1,31.5c-0.7,0-1.3-0.3-1.7-0.8c-0.8-1-1-2-0.6-3.2c0.2-0.6,0.5-1.1,0.8-1.6c1-1.5,2.3-2.8,3.9-3.7
			c0.4-0.2,0.8-0.4,1.2-0.6c0.3-0.1,0.5-0.1,0.8,0s0.5,0.3,0.7,0.7l0.1,0.2l0,0c0.1,0.2,0.2,0.2,0.2,0.2c0.1,0,0.2-0.1,0.3-0.1
			l0.4-0.1c0.5-0.1,0.9-0.1,1.2,0c0.4,0.2,0.6,0.4,0.8,0.7s0.3,0.7,0.3,1s-0.1,0.6-0.1,0.9c0,0.1-0.1,0.2-0.1,0.3v0.1
			c0.9,0.1,1.8,0,2.9-0.2c1.1-0.2,2.1-0.5,3.1-0.9c0.9-0.4,1.2-0.4,1.4-0.2s-0.1,0.5-0.2,0.6l0,0c-0.4,0.5-1,0.9-1.7,1.3
			c-0.7,0.4-1.5,0.7-2.5,0.9c-0.9,0.2-1.8,0.4-2.6,0.5s-1.4,0.2-1.7,0.2s-0.6,0.1-0.8,0.4c-1,1-2.1,1.9-3.4,2.6
			c-0.7,0.4-1.4,0.7-2.2,0.9C92.4,31.4,92.3,31.5,92.1,31.5z M95.4,23.8c-0.4,0.2-0.7,0.5-1.1,0.8c-0.4,0.3-0.8,0.7-1.1,1.1
			c-0.5,0.5-0.9,1-1.3,1.6c-0.4,0.5-0.6,1.2-0.7,1.8c0,0,0,0.1,0.1,0.2c0.1,0.1,0.1,0.1,0.2,0.1h0.1c0.1,0,0.2,0,0.4-0.1
			c0.6-0.2,1.3-0.4,1.9-0.8c0.6-0.3,1.2-0.7,1.7-1.2c0.3-0.2,0.3-0.3,0.3-0.3s0-0.1-0.3-0.6c-0.2-0.3-0.4-0.6-0.5-1
			c-0.2-0.4-0.2-0.8,0.1-1.2C95.1,24.2,95.2,24.1,95.4,23.8C95.3,23.9,95.4,23.9,95.4,23.8z M97,25.4c0.3,0.2,0.5,0.1,0.6,0
			c0.2-0.2,0.4-0.5,0.6-0.8C97.7,24.7,97.3,25,97,25.4z M96.9,25.4L96.9,25.4L96.9,25.4z"/>
	</g>
	<g>
		<path class="st0" d="M107.2,30.9c-0.1,0-0.1,0-0.2,0c-0.2-0.1-0.4-0.2-0.6-0.5c-0.4-0.6-0.3-1.1-0.1-1.4l1.1-1.5
			c1.6-2.1,3.1-4.1,4.6-6.1c0.2-0.2,0.3-0.4,0.5-0.6c0.1-0.1,0.1-0.1,0.1-0.1c0.2-0.2,0.6-0.2,1,0c0.7,0.6,0.5,1.1,0.3,1.4l-0.9,1.3
			c-0.1,0.2-0.3,0.4-0.4,0.6c0.1-0.1,0.2-0.1,0.4-0.2c0.4-0.2,0.7-0.4,1.1-0.6c0.3-0.1,0.6-0.3,0.9-0.4c0.6-0.2,1.1-0.1,1.5,0.2
			s0.7,0.7,0.9,1.2c0,0.2,0.1,0.4,0.1,0.6c0,0.1,0,0.2,0,0.3c0,0,0,0,0.1,0c0,0,0.1,0,0.1-0.1l0.3-0.2c0.2-0.1,0.4-0.3,0.7-0.4
			c0.5-0.3,1-0.5,1.6-0.7s1.1-0.1,1.6,0.3c0.7,0.5,1,1.3,1,2.1c0,0.3-0.1,0.6-0.1,0.9c0,0.1,0,0.2-0.1,0.3v0.1v0.1
			c0,0,0.3,0,0.8-0.2c0.4-0.2,0.9-0.5,1.5-0.9c0.5-0.4,1-0.7,1.5-1.1c0.5-0.4,0.9-0.6,1.1-0.8l0.1-0.1c0.1-0.1,0.3-0.2,0.4-0.2
			c0.4-0.2,0.8-0.2,0.9,0.3c0.1,0.4-0.2,0.8-0.7,1.4c-0.5,0.5-1.1,1.1-1.8,1.6s-1.4,1-2.1,1.4c-0.7,0.4-1.2,0.7-1.6,0.8
			c-0.5,0.2-1.3,0.1-1.8-0.8c-0.3-0.5-0.4-1-0.3-1.6c0.1-0.4,0.2-0.7,0.3-1.1c0-0.1,0.1-0.3,0.1-0.4c0-0.1,0-0.1,0-0.2H121
			c-0.1,0-0.1,0-0.2,0c-0.5,0.2-1,0.5-1.5,0.8c-1.6,1.1-3.1,2.3-4.5,3.6l-0.5,0.4c-0.2,0.1-0.3,0.1-0.5,0.1s-0.3-0.1-0.4-0.2
			c-0.2-0.2-0.3-0.3-0.4-0.5c-0.3-0.3-0.3-0.7-0.1-1.1c0.2-0.3,0.4-0.6,0.6-0.8l0.7-1c0.5-0.6,0.9-1.3,1.2-1.9
			c-0.1,0-0.2,0.1-0.2,0.1c-0.3,0.1-0.6,0.3-0.8,0.4c-2,1.3-3.8,2.7-5.5,4.3c-0.1,0.1-0.3,0.2-0.4,0.3c-0.2,0.2-0.3,0.3-0.5,0.5
			C107.6,30.8,107.4,30.9,107.2,30.9z M117.3,25.1L117.3,25.1L117.3,25.1z M117.5,25.1L117.5,25.1L117.5,25.1z"/>
	</g>
	<g>
		<path class="st0" d="M131.5,30.7c-0.5,0-1-0.1-1.3-0.4c-0.3-0.3-0.6-0.6-0.7-1c-0.2-0.4-0.2-0.8-0.2-1.2c0.1-0.4,0.2-0.7,0.4-1.1
			c0.3-0.5,0.5-1,0.9-1.4c1.1-1.4,2.3-2.8,3.6-4c0.2-0.1,0.3-0.2,0.5-0.4c0,0,0,0,0.1-0.1s0.3-0.1,0.5-0.1s0.3,0.1,0.5,0.2
			c0.3,0.3,0.5,0.5,0.5,0.8s-0.1,0.5-0.3,0.8c-1.1,1.1-2.1,2.2-3.1,3.4l-0.1,0.1c-0.3,0.4-0.6,0.7-0.9,1.2c-0.3,0.4-0.5,0.8-0.7,1.3
			h0.2c0.2,0,0.3,0,0.5,0c0.6-0.1,1.3-0.3,1.9-0.5c1.4-0.4,2.7-0.9,4-1.5s2.4-1.1,3.4-1.6c0.8-0.4,1.4-0.7,1.9-0.9
			c0.1,0,0.3-0.1,0.4-0.1c0.2,0,0.3,0,0.5,0s0.4,0.2,0.4,0.4c-0.1,0.4-0.5,0.8-1.2,1.4c-0.7,0.5-1.6,1-2.7,1.5
			c-1.1,0.5-2.2,1.1-3.4,1.6s-2.2,0.9-3.2,1.2C132.7,30.5,132,30.7,131.5,30.7L131.5,30.7z M138.5,19l-0.1-0.1h-0.1
			c-0.1,0-0.2-0.1-0.3-0.1c-0.2-0.2-0.3-0.5-0.4-0.7c0-0.3,0-0.5,0.2-0.7c0.5-0.5,1-0.9,1.7-1.1c0.4-0.1,0.8,0,1.1,0.3
			s0.4,0.6,0.3,1c0,0.1,0,0.2-0.1,0.2c-0.1,0.1-0.2,0.2-0.3,0.2c-0.5,0.3-1,0.5-1.4,0.8L138.5,19z"/>
	</g>
	<g>
		<path class="st0" d="M143.7,31.4c-0.1,0-0.1,0-0.2,0c-0.2-0.1-0.4-0.2-0.5-0.3c-0.7-0.8-0.5-1.4-0.2-1.9s0.6-0.9,0.9-1.4
			c1.6-2.1,3.2-4.2,4.8-6.4c0.1-0.1,0.1-0.2,0.2-0.2l0.1-0.2l0.1-0.1l0.2-0.2c0.1-0.1,0.3-0.2,0.7-0.2c0.3,0,0.5,0.2,0.6,0.3
			c0.3,0.4,0.4,0.7,0.2,1.1c-0.1,0.3-0.3,0.5-0.5,0.8c-0.1,0.1-0.1,0.1-0.1,0.1l-0.8,1.1c-0.2,0.2-0.3,0.4-0.5,0.7
			c-0.2,0.2-0.4,0.5-0.6,0.8c-0.1,0.1-0.2,0.3-0.3,0.5c0.1-0.1,0.2-0.1,0.4-0.2c0.4-0.2,0.8-0.5,1.2-0.7s0.8-0.5,1.2-0.7
			c0.6-0.4,1.3-0.7,2-0.9c0.6-0.2,1.2-0.1,1.7,0.2s0.9,0.7,1.1,1.4c0.2,0.5,0.2,1,0.1,1.5v0.1l0,0c0,0.1,0,0.1,0,0.2
			c0.4-0.1,1-0.5,1.9-1s1.7-1,2.4-1.3c0.7-0.4,1.2-0.6,1.7-0.6c0.3-0.1,0.4,0.1,0.5,0.2c0.1,0.2-0.1,0.5-0.8,1.2
			c-0.8,0.7-2.6,2-5.3,3.9c-0.3,0.2-0.6,0.3-1,0.5c-0.5,0.2-1,0.1-1.4-0.5c-0.4-0.5-0.4-1.1-0.2-1.7c0.1-0.3,0.2-0.6,0.3-1
			c0.1-0.2,0.2-0.5,0.3-0.7c0-0.1,0-0.3,0-0.4h-0.1c0,0,0,0-0.1,0h-0.1c-0.8,0.2-1.5,0.5-2.2,1c-2,1.2-4,2.5-5.8,4
			c-0.4,0.3-0.8,0.7-1.3,1c-0.1,0-0.1,0.1-0.2,0.1C144,31.3,143.8,31.4,143.7,31.4z"/>
	</g>
	<g>
		<path class="st0" d="M164.4,31.5c-0.7,0-1.3-0.3-1.7-0.8c-0.8-1-1-2-0.6-3.2c0.2-0.6,0.5-1.1,0.8-1.6c1-1.5,2.3-2.8,3.9-3.7
			c0.4-0.2,0.8-0.4,1.2-0.6c0.3-0.1,0.5-0.1,0.8,0s0.5,0.3,0.7,0.7l0.1,0.2l0,0c0.1,0.2,0.2,0.2,0.2,0.2c0.1,0,0.2-0.1,0.3-0.1
			l0.4-0.1c0.5-0.1,0.9-0.1,1.2,0c0.4,0.2,0.6,0.4,0.8,0.7s0.3,0.7,0.3,1s-0.1,0.6-0.1,0.9c0,0.1-0.1,0.2-0.1,0.3v0.1
			c0.8,0.1,1.8,0,2.9-0.2c1.1-0.2,2.1-0.5,3.1-0.9c0.9-0.4,1.2-0.4,1.4-0.2s-0.1,0.5-0.2,0.6l0,0c-0.4,0.5-1,0.9-1.7,1.3
			c-0.7,0.4-1.5,0.7-2.5,0.9c-0.9,0.2-1.8,0.4-2.6,0.5s-1.4,0.2-1.7,0.2s-0.6,0.1-0.8,0.4c-1,1-2.1,1.9-3.4,2.6
			c-0.7,0.4-1.4,0.7-2.2,0.9C164.7,31.4,164.5,31.5,164.4,31.5z M167.7,23.8c-0.4,0.2-0.7,0.5-1.1,0.8c-0.4,0.3-0.8,0.7-1.1,1.1
			c-0.5,0.5-0.9,1-1.3,1.6c-0.4,0.5-0.6,1.2-0.7,1.8c0,0,0,0.1,0.1,0.2c0.1,0.1,0.1,0.1,0.2,0.1h0.1c0.1,0,0.2,0,0.4-0.1
			c0.6-0.2,1.3-0.4,1.9-0.8c0.6-0.3,1.2-0.7,1.7-1.2c0.3-0.2,0.3-0.3,0.3-0.3s0-0.1-0.3-0.6c-0.2-0.3-0.4-0.6-0.5-1
			c-0.2-0.4-0.2-0.8,0.1-1.2C167.4,24.2,167.5,24.1,167.7,23.8C167.6,23.9,167.6,23.9,167.7,23.8z M169.3,25.4
			c0.3,0.2,0.5,0.1,0.6,0c0.2-0.2,0.4-0.5,0.6-0.8C170,24.7,169.6,25,169.3,25.4z M169.2,25.4L169.2,25.4L169.2,25.4z"/>
	</g>
	<g>
		<path class="st0" d="M179,45.3c-0.2,0-0.3,0-0.5-0.1c-0.4-0.1-0.7-0.4-1-0.7c-0.5-0.6-0.7-1.2-0.7-1.9c0.1-0.7,0.3-1.2,0.6-1.8
			c0,0,0.1-0.1,0.1-0.2c0.5-0.8,1-1.6,1.6-2.3c1.2-1.5,2.5-2.9,4-4.1c1-0.8,2-1.7,3-2.4c0.4-0.3,0.7-0.7,0.9-1.1l0.6-1.3
			c0.2-0.4,0.4-0.9,0.6-1.3V28l0,0l0,0v-0.2V28c-0.4,0.2-0.8,0.4-1.2,0.7c-0.3,0.2-0.7,0.4-1,0.6c-0.6,0.3-1.3,0.5-2,0.6
			c-0.9,0.1-1.7-0.3-2.4-1.1c-0.7-0.9-1.1-1.8-1-2.7c0-0.5,0.2-0.9,0.4-1.3c0.2-0.3,0.5-0.7,0.8-1c0.1-0.1,0.2-0.2,0.3-0.3
			c0,0,0.1-0.1,0.5-0.3c0.2-0.1,0.5-0.2,0.7-0.3c0.3-0.1,0.5-0.2,0.7-0.1c0.2,0.2,0.4,0.4,0.6,0.5c0.2,0.2,0.3,0.5,0.2,0.7
			c-0.1,0.3-0.2,0.5-0.4,0.8c-0.2,0.2-0.4,0.4-0.6,0.7c-0.3,0.3-0.6,0.7-0.9,1.1c-0.2,0.3-0.4,0.7-0.4,1.2c0,0.1,0.1,0.2,0.2,0.2
			c0.1,0.1,0.1,0.1,0.2,0.1c0.8-0.1,1.5-0.3,2.1-0.7c1.7-0.9,3.3-2.1,4.6-3.4c0.3-0.4,0.7-0.8,1.1-1.1c0.2-0.2,0.6-0.3,1.1,0.1
			c0.7,0.5,0.9,1.1,0.7,1.7c-0.2,0.4-0.3,0.9-0.5,1.3c0,0.1-0.1,0.1-0.1,0.2c-0.1,0.3-0.3,0.5-0.4,0.8c-0.2,0.4-0.4,0.9-0.6,1.3v0.1
			v0.1c0.1,0,0.2,0,0.3,0s0.2-0.1,0.3-0.1c0.3-0.2,0.9-0.5,1.8-1c0.9-0.5,1.9-1.1,3-1.6c1.1-0.6,2.1-1,3-1.4c1-0.4,1.6-0.5,1.9-0.2
			c0.2,0.2,0.2,0.3,0.3,0.5c0.1,0.3-0.1,0.4-0.2,0.5l-0.5,0.4c-0.3,0.2-0.6,0.3-0.9,0.5c-1.3,0.8-2.6,1.5-3.9,2.2
			c-2,1.2-4.1,2.4-6,3.8c-0.9,0.6-1.6,1.4-2,2.3c-0.4,0.9-0.9,1.8-1.5,2.6c-0.5,0.8-1.1,1.7-1.6,2.5c-0.8,1.2-1.7,2.4-2.6,3.5
			c-0.4,0.5-0.9,1-1.5,1.5c-0.3,0.3-0.7,0.5-1.1,0.7C179.4,45.3,179.2,45.3,179,45.3z M179.4,42.3L179.4,42.3c0.1,0,0.1-0.1,0.2-0.1
			l0,0l0,0l0.1-0.1c1.3-1.3,2.4-2.8,3.4-4.4v-0.1c-0.2,0.1-0.3,0.3-0.5,0.4c-0.4,0.4-0.8,0.8-1.2,1.3c-0.6,0.8-1.2,1.6-1.8,2.4
			l-0.2,0.3C179.4,42.1,179.4,42.2,179.4,42.3L179.4,42.3z"/>
	</g>
	<g>
		<path class="st0" d="M211.3,29.9c-0.4,0-0.7-0.2-0.9-0.5c-0.3-0.4-0.4-0.6-0.4-0.9c0-0.2,0.1-0.4,0.2-0.7c0.1-0.1,0.1-0.2,0.2-0.4
			c0.1-0.1,0.1-0.3,0.2-0.4c-0.5,0.3-1,0.6-1.5,0.9c-0.8,0.5-1.6,1-2.5,1.4c-0.5,0.2-1.1,0.3-1.7,0.3s-1-0.3-1.4-0.7
			c-0.4-0.5-0.7-1.1-0.6-1.7c0-0.6,0.1-1,0.3-1.4c0.8-1.8,2-3.3,3.6-4.5c0.3-0.2,0.6-0.3,0.9-0.3c0.3,0.1,0.6,0.3,0.8,0.7
			c0.1,0.1,0.1,0.2,0.1,0.4c0,0.1,0,0.2-0.1,0.3c-0.1,0.2-0.2,0.3-0.4,0.4l0,0c-1,0.8-1.8,1.8-2.5,2.9c-0.3,0.4-0.5,0.8-0.7,1.3
			c-0.1,0.1-0.1,0.3-0.2,0.4v0.1c0.1,0,0.2,0.1,0.3,0.1c0.2,0,0.3,0,0.4-0.1c0.2-0.1,0.4-0.2,0.6-0.2c0.5-0.2,1-0.5,1.5-0.7
			c1.8-1,3.6-2.2,5.2-3.6c0.3-0.2,0.5-0.5,0.8-0.7c0.5-0.4,1-0.3,1.4,0.2s0.4,1.1,0.1,1.6s-0.7,1-1,1.5s-0.6,1-1,1.5
			c0.1,0,0.2-0.1,0.3-0.1c0.2-0.1,0.2-0.1,0.3-0.1h0.1h0.1c0.2-0.1,0.8-0.3,1.7-0.7c0.9-0.3,1.8-0.7,2.9-1.1c1-0.4,1.8-0.7,2.4-0.8
			c0.4-0.1,0.6-0.1,0.8,0c0.1,0,0.3,0.2,0.1,0.6c-0.1,0.1-0.2,0.3-0.3,0.4c-0.1,0.1-0.2,0.2-0.3,0.3l-0.1,0.1
			c-0.2,0.1-0.4,0.2-0.6,0.3c-2.4,1.2-4.9,2.4-7.4,3.4c-0.4,0.2-0.8,0.3-1.2,0.4C211.5,29.9,211.4,29.9,211.3,29.9z"/>
	</g>
</g>
</svg>
