<?xml version="1.0" encoding="utf-8"?>
<!-- Generator: Adobe Illustrator 24.1.0, SVG Export Plug-In . SVG Version: 6.00 Build 0)  -->
<svg version="1.1" id="Layer_1" xmlns="http://www.w3.org/2000/svg" xmlns:xlink="http://www.w3.org/1999/xlink" x="0px" y="0px"
	 viewBox="0 0 285.9 53" style="enable-background:new 0 0 285.9 53;" xml:space="preserve">
<style type="text/css">
	.st0{fill:#FFFFFF;}
</style>
<g>
	<path class="st0" d="M25.1,14.2c0,0.1-0.1,0.3-0.3,0.5c-0.7,1-0.7,1-2.5,5.9c-2.6,7.2-6.4,14.8-9.7,19.5c-2.2,3.2-2.9,3.8-4.3,3.8
		c-0.7,0-0.8-0.1-2.6-1.6c-2.3-2-2.9-2.7-3.8-4C0.7,36.6,0,34,0,31.4C0,26.1,2.8,20,7.1,16c4.8-4.6,11.9-7.4,18.5-7.4
		c11.4,0,20.8,8.2,20.8,18.1c0,5.8-3.6,11.4-9.4,14.6c-3.4,1.9-8,3.6-11.8,4.4c-2.3,0.5-2.3,0.5-2.5,0.5c-0.4,0-0.6-0.2-0.6-0.6
		s0.2-0.5,1-0.8c1.8-0.5,6.1-2.2,8.6-3.5c6.5-3.3,10.1-8.9,10.1-15.7c0-4.4-1.7-7.9-5.3-10.9c-3.2-2.8-6.9-4-11.5-4
		c-1,0-1.4,0.1-2.3,0.2C22.6,11,22.5,11,22.2,11C23.9,12,25.1,13.4,25.1,14.2z M8.9,17.7c-3.4,3.7-5.1,8.2-5.1,13.5
		c0,2.9,0.4,4.8,1.5,6.5c0.8,1.1,1.6,1.8,2.5,1.8c1.2,0,2.3-1,3.7-3.4c2.8-4.6,4.9-9.5,6.8-15.8c1.1-3.5,1.8-6.3,1.8-6.9
		s-0.4-1.2-1-1.5c-0.2-0.1-0.8-0.4-0.9-0.4C15,12.7,11.6,14.9,8.9,17.7z"/>
	<path class="st0" d="M79.4,26.7c-6.4,1.4-10.6,2.9-17.9,6.1c-0.5,0.3-1,0.4-1.3,0.4c-0.5,0-1.7-0.5-2.1-0.9
		c-0.2-0.2-0.4-0.5-0.4-0.9c0-0.6,0.3-1.2,0.8-1.7c0.8-0.7,1-0.8,4-1.6c3.7-1.1,5.5-2.4,13-9.5c6.2-5.8,10.5-10.4,11-11.9
		c-5,1.3-10.7,3.5-12,4.7c-0.8,0.6-1.2,0.8-1.6,0.8c-1.9,0-5.8-3.5-5.8-5.2c0-0.6,0.4-1.1,1.4-2.2c1.4,2.3,2.6,3.4,3.7,3.4
		c0.2,0,0.8-0.1,1.3-0.2l11.1-3c0.9-0.2,1.5-0.5,2.5-1.1c0.7-0.5,1-0.6,1.3-0.6c0.4,0,1,0.4,2.3,1.4C92.3,6.1,93,7,93,7.6
		c0,0.4-0.2,0.5-1,0.8l-1.5,0.5C86.2,13.3,75.6,22,69.3,26.4l16.1-3.7c3.2-0.8,6.7-1.4,12.1-2.2c1.5-1.4,1.8-1.6,2.2-1.6
		s2.4,0.8,4,1.7c1.6,0.8,2,1.3,2,2.1c0,0.8-0.5,1.3-1.4,1.3c-0.4,0-1.2-0.1-2.4-0.2c-0.5-0.1-1.1-0.1-1.8-0.1
		c-7.5,0-12.5,1.3-16.8,4.1c-4.2,2.8-6.6,6.7-6.6,10.6c0,5.2,5,8.4,13.4,8.4c1.4,0,2.6-0.1,3.3-0.2s1.1-0.2,1.3-0.2
		c1.4,0,2.9,1.3,2.9,2.6c0,1.4-1.5,2-5.6,2c-4.9,0-8.3-0.5-10.9-1.6c-4.7-2.1-7-5.5-7-10.3c0-3.1,1-6.1,3-8.8
		c0.5-0.8,0.5-0.8,3.1-3.8L79.4,26.7z M96,6.1c5.2,1.5,8.2,3.8,8.2,6.4c0,1.1-0.8,2.1-1.8,2.1c-0.9,0-1.1-0.2-2.6-2.9
		c-1.1-1.9-2.1-3.1-4.3-4.7L96,6.1z M99.8,2.1c3.9,0.7,4.3,0.8,6.1,1.8c1.9,1,3,2.5,3,3.9c0,1-0.8,1.9-1.7,1.9
		c-0.6,0-0.8-0.2-1.7-1.5c-1.3-2-3.7-4.1-5.9-5.3L99.8,2.1z"/>
	<path class="st0" d="M156.4,28.5c-0.1,0.2-0.2,0.4-1.3,3.4c4.1,1.6,7.1,3,9.4,4.4c1.7,1,2.2,1.7,2.2,2.9c0,1.4-0.6,2.1-1.8,2.1
		c-0.6,0-1.2-0.2-2.1-0.8c-3.2-2.3-4.9-3.2-9.1-5.5c-3.3,6.7-6.4,11.1-10.2,14.8c-2.3,2.1-3.4,2.9-3.9,2.9c-0.2,0-0.5-0.2-0.5-0.5
		c0-0.2,0.2-0.6,0.8-1.2c4.6-5,8.2-11,10.4-17.4c-6.4-2.2-10.3-2.9-14.6-2.9h-1.6c-1.6,2.9-4.2,7.4-5.5,9.3c-2,2.9-4.7,4.9-6.5,4.9
		c-3.2,0-6.4-2.7-6.4-5.6c0-3,2.5-6.1,6.8-8.2c2.4-1.2,4.9-1.9,9.4-2.6c4.1-8.5,5.8-12.3,8.2-19.3c-6.7,1.9-8.3,2.5-10.8,4.1
		c-0.4,0.3-0.8,0.4-1,0.4c-1.5,0-5.5-3.7-5.5-5c0-0.5,0.2-1,0.9-2.2c2.1,2.2,3,2.8,4.3,2.8c1.4,0,6.9-1.3,11.9-2.9l1.7-2
		c3.2,2.1,4.7,3.5,4.7,4.5c0,0.7-0.5,1-2.3,1.5l-4,8.6c-2.6,5.5-3.3,7-4.7,9.5c7.6,0.2,9.4,0.4,16.3,2.3c1.2-3.4,2.3-7.7,2.3-8.7
		c0-0.9-0.5-1.4-2.9-2.6c1.3-1.3,1.8-1.6,2.5-1.6s2.6,1.1,4.4,2.5c1.5,1.1,2.2,2,2.2,2.8c0,0.6-0.5,1-2.1,1.4
		c-0.2,0.5-0.2,0.7-0.4,1L156.4,28.5z M119.2,39.6c0,1.6,0.8,2.6,2.2,2.6c1.9,0,3.8-1.8,6.5-6.2c1.3-2,1.7-2.9,2.7-5
		C124.2,31.8,119.2,35.6,119.2,39.6z"/>
	<path class="st0" d="M201.5,14.2c0,0.1-0.1,0.3-0.3,0.5c-0.7,1-0.7,1-2.5,5.9c-2.6,7.2-6.4,14.8-9.7,19.5c-2.2,3.2-2.9,3.8-4.3,3.8
		c-0.7,0-0.8-0.1-2.6-1.6c-2.3-2-2.9-2.7-3.8-4c-1.2-1.7-1.9-4.3-1.9-6.9c0-5.3,2.8-11.4,7.1-15.4c4.8-4.6,11.9-7.4,18.5-7.4
		c11.4,0,20.8,8.2,20.8,18.1c0,5.8-3.6,11.4-9.4,14.6c-3.4,1.9-8,3.6-11.8,4.4c-2.3,0.5-2.3,0.5-2.5,0.5c-0.4,0-0.6-0.2-0.6-0.6
		s0.2-0.5,1-0.8c1.8-0.5,6.1-2.2,8.6-3.5c6.5-3.3,10.1-8.9,10.1-15.7c0-4.4-1.7-7.9-5.3-10.9c-3.2-2.8-6.9-4-11.5-4
		c-1,0-1.4,0.1-2.3,0.2c-0.1,0.1-0.2,0.1-0.5,0.1C200.3,12,201.5,13.4,201.5,14.2z M185.3,17.7c-3.4,3.7-5.1,8.2-5.1,13.5
		c0,2.9,0.4,4.8,1.5,6.5c0.8,1.1,1.6,1.8,2.5,1.8c1.2,0,2.3-1,3.7-3.4c2.8-4.6,4.9-9.5,6.8-15.8c1.1-3.5,1.8-6.3,1.8-6.9
		s-0.4-1.2-1-1.5c-0.2-0.1-0.8-0.4-0.9-0.4C191.4,12.7,188,14.9,185.3,17.7z"/>
	<path class="st0" d="M230.4,35.8l4.7,0.6l13-26.3l0.8,0.5l-9.7,25.9c-0.2,0.5-0.3,1.3-0.3,2.1c0,2,0,2,1.3,7.7
		c0.1,0.6,0.2,1.2,0.2,1.8c0,2-1.2,3.5-2.9,3.5c-1.5,0-2.7-1.2-2.7-2.8c0-0.3,0.2-2.3,0.5-5.2c0.1-0.4,0.1-0.8,0.1-1.1
		c0-3.5-1.2-4.8-5.1-5.5v-1.2H230.4z M231.4,14c4.5,0.6,8,3.7,8,7c0,1.4-1.1,2.6-2.5,2.6c-0.7,0-1.1-0.2-1.4-0.7
		c-0.2-0.3-0.2-0.3-0.7-2.6c-0.5-2.3-1.7-4.3-3.5-5.7L231.4,14z M236,0.9c2.6,0.5,4,1,5.3,1.9c2,1.3,3.4,3.4,3.4,5.5
		c0,1.5-1,2.5-2.4,2.5c-1.5,0-1.7-0.2-2.8-4c-0.6-2-2-4-3.7-5.2L236,0.9z M245.4,24.2c4.1,0.2,5.9,0.2,8,0.2h24.4l3.2-3.8l4.4,3.7
		c0.4,0.4,0.5,0.6,0.5,0.9c0,0.4-0.3,0.7-0.7,0.7h-24.4l-3.2,5.4h20.5l1.9-2.8l3.7,3.6c0.4,0.3,0.5,0.6,0.5,0.9
		c0,0.2-0.2,0.5-0.7,0.7l-1.3,0.6c-0.7,5.9-1.6,10.2-2.9,13.1c-1,2.1-2,3.4-3.3,4c-0.8,0.4-2.1,0.8-2.8,0.8c-0.6,0-0.6,0-0.7-2.5
		c-0.1-0.3-0.2-0.5-0.4-0.6l-5.6-2.1l0.2-1.1l5.8,0.8c0.3,0.1,0.3,0.1,0.9,0.1c1.1,0,2.1-0.6,2.6-1.7c1.1-2.2,2.2-7.3,2.6-12.3h-4.1
		c-4.3,7.7-6.3,10.4-11.5,14.9c-3.4,3-6.8,5.3-7.7,5.3c-0.2,0-0.5-0.3-0.5-0.6c0-0.2,0.2-0.5,0.7-0.8c6.4-4.9,11.2-10.9,14.9-18.8
		h-3.9c-4.4,6.8-6.9,9.5-11.9,13.4c-3.9,2.9-7.9,5.5-8.9,5.5c-0.2,0-0.5-0.2-0.5-0.5s0.3-0.7,0.9-1.1c7.7-5.2,12-9.8,16-17.3h-5.3
		c-4,5.3-6,7.4-10.9,11.2c-1.4,1-2.2,1.4-2.5,1.4c-0.2,0-0.4-0.2-0.4-0.4c0-0.4,0-0.4,2.2-2.3c4.4-3.9,9.3-10.9,11.6-16.7h-3.2
		c-1.7,0-3.3,0.1-7.3,0.2L245.4,24.2z M257.6,2.8h15.1l1.6-2.6l3.7,3.7c0.2,0.2,0.4,0.6,0.4,0.9c0,0.4-0.3,0.8-0.7,0.9l-0.9,0.2
		v14.5c0,0.7-0.2,1-0.9,1.3c-0.6,0.2-1.5,0.5-1.9,0.5c-0.5,0-0.8-0.3-0.8-0.8v-2.2h-16.1v2.2c0,0.7-1.3,1.3-2.6,1.3
		c-0.5,0-0.8-0.4-0.8-0.9V0L257.6,2.8z M273.2,10V4.2h-16.1V10H273.2z M273.2,17.7v-6.1h-16.1v6.1H273.2z"/>
</g>
</svg>
