<svg id="Layer_1" data-name="Layer 1" xmlns="http://www.w3.org/2000/svg" viewBox="0 0 582.01 131.71"><path d="M670.71,258c2.13,2.74,3.19,3.42,5.32,3.42,1.07,0,1.07,0,11.4-1.06l3-.3a96,96,0,0,0,.83-9.81c0-2-.61-2.51-4.18-3.34,0-1.29.69-1.75,2.43-1.75,3.12,0,8.9,2.81,8.9,4.26,0,.53-.46,1-1.37,1.36-1.07.46-1.29.84-1.52,2.59-.08.23-.15.83-.31,1.67-.15,1.37-.3,2.28-.6,4.56l14.51-1.06,1.83-2.28,5.09,3a2.24,2.24,0,0,1,1.22,1.67c0,.45-.46.91-1.45,1.21l-1.14.38c-2.13,13.91-3.19,18.85-5.32,23.95-1.82,4.56-3.65,7-6.15,8.58a10.34,10.34,0,0,1-4.34,1.45c-1.14,0-1.67-.76-1.75-2.51,0-1-.15-1.22-1.36-2.43a89.11,89.11,0,0,1-6.62-7.07l1.14-.84.38.23c6.84,5.32,8.44,6.39,10,6.39,2.28,0,4.33-2.89,6.16-8.59a91,91,0,0,0,3.72-20.52c-7.07.38-12.31.83-16.34,1.36-2.81,13.69-6.23,21-13.07,28-4.18,4.26-12.47,9.81-14.59,9.81a.86.86,0,0,1-.84-.91c0-.46.15-.69,1.29-1.37,13.83-8.74,20.22-18.55,23-35l-3.57.53-2.73.38c-5.4.76-5.48.83-6.69,1.75a1.89,1.89,0,0,1-1.14.53c-1.14,0-3.88-2.28-5.09-4.33a6.89,6.89,0,0,1-1.07-3.65Z" transform="translate(-665.24 -244.1)" fill="#fff"/><path d="M744.74,253.06c1.67,1.9,2.81,2.44,5.16,2.44a39.44,39.44,0,0,0,4.79-.38c14.9-1.75,21.89-2.44,29.95-2.74l1.52-2.28,6.23,4.1a2.23,2.23,0,0,1,1.06,1.75c0,.76-.45,1.07-1.59,1.14l-1.67.08c-6.54,15.05-12.47,23.26-21.89,30.17-6.16,4.56-16.88,10-19.46,10a1,1,0,0,1-1.06-.91c0-.76.68-1.37,2.28-2,17.78-7.37,28.57-19.38,35.57-39.29-6,.3-7.3.45-21.82,2.05-8,1.06-10.64,1.67-11.63,2.81-1,.91-1.14,1-1.74,1s-.84-.15-1.52-.84-1.6-1.21-2.51-1.82c-1.52-.91-2.81-2.74-2.81-4a6.31,6.31,0,0,1,.22-1.06Z" transform="translate(-665.24 -244.1)" fill="#fff"/><path d="M819.29,289.09a6.16,6.16,0,0,0,4.71,2.05c1.6,0,1.68,0,9-.68,2.73-.31,4.56-.38,8.51-.61-.08-1.29-.08-1.6-.08-2v-2.28c.08-1.29.08-2.58.08-3.26,0-5.93-.08-7.45-.38-8.14s-.84-.83-2.58-1.36c-1.07.15-1.9.3-2.28.38-1.07.07-2.06.22-3.12.37l-1.9.31a3.25,3.25,0,0,0-2.13.76,2.19,2.19,0,0,1-1.21.45c-1.68,0-4.94-3.49-4.94-5.16,0-.61.3-.84.83-.84a7.8,7.8,0,0,0,5.4,2.28,9.41,9.41,0,0,0,1.29-.08l.76-.07c1.29-.15,2.13-.23,2.51-.31l7.07-.91c3-.38,4.18-.45,11.4-1a22.66,22.66,0,0,0,2.51-.22,6.67,6.67,0,0,0,1.74-.84.88.88,0,0,1,.84-.08l.3.16c3.12,1.29,4.41,2.28,4.41,3.49,0,.61-.45,1-1.29,1-.15,0-.15,0-2.28-.23-1.29-.07-2.74-.15-4.26-.15-2.81,0-6.08.15-10.26.38,2.43,1.06,2.89,1.44,2.89,2.05,0,.46-.3.84-1.37,1.52l-.07.84c-.08,3.65-.15,3.95-.23,6-.15,3.8-.15,4.41-.15,6.62l5.55-.23c5.54-.23,9.19-.46,9.42-.53a5.53,5.53,0,0,0,1.75-.61,1.73,1.73,0,0,1,1-.38,9.81,9.81,0,0,1,3,1.44c1.52,1.07,2.28,2.05,2.28,2.89a1.15,1.15,0,0,1-1.14,1.06,5.14,5.14,0,0,1-1.29-.22c-1.67-.46-7.83-.84-13.53-.84s-7.53.15-21.13,1.82l-3.65.46-1.06.08a1.4,1.4,0,0,0-.91.38,1.36,1.36,0,0,1-1,.45c-2,0-6.08-3.8-6.08-5.62,0-.46.23-.61.91-.76Z" transform="translate(-665.24 -244.1)" fill="#fff"/><path d="M947.58,263.25c-7.14,9.27-22.8,21.2-37.54,28.73-1.9,1-2.06,1.06-2.82,2.28-.38.61-.6.83-1,.83-1.14,0-4.79-4-4.79-5.32l.91-1.36v-7.53c0-14.59-.15-23.86-.46-25.23s-1.44-2.13-3.87-2.66a1.67,1.67,0,0,1-.31-.76c0-.53,1.83-1.14,3.27-1.14,2.59,0,7.53,3,7.53,4.48,0,.38-.31.69-1.07,1.22l-1.14.83c-.07,2.36-.07,2.36-.15,3.88V263L906,273.43l-.08,6.92c0,1.37.08,4.41.23,7.9,12-3.87,26.15-13.15,40.21-26.37Z" transform="translate(-665.24 -244.1)" fill="#fff"/><path d="M1003.37,251.47l5.39,3.87a2.08,2.08,0,0,1,1,1.52c0,.61-.68,1.14-1.52,1.14l-1.9.16A119.12,119.12,0,0,1,995.84,273a50.93,50.93,0,0,1,13.61,7.9c4.18,3.5,6.3,6.54,6.3,9,0,1.52-.91,2.81-2,2.81s-2.05-1-3.72-3.72c-2.74-4.87-7.6-9.43-15.51-14.44-6.08,7-11.17,11.25-18.47,15.27-4.4,2.44-10.79,5.25-11.93,5.25a.82.82,0,0,1-.76-.76c0-.53.61-1.07,2-1.75A71.75,71.75,0,0,0,986.42,278c7.22-7.52,12.69-15.27,15.35-21.89-17.71,2.51-22.88,3.5-23.33,4.56a2.37,2.37,0,0,1-1.3.69c-.6,0-2.2-1.14-3.26-2.28a8,8,0,0,1-2.21-4.87c0-.68.23-1,1.07-1.36,1.29,2.81,2.43,3.57,5.24,3.57,1.22,0,1.22,0,6.08-.61,2.13-.3,4.18-.53,6.31-.76.91-.08,3.72-.46,11.25-1.52Z" transform="translate(-665.24 -244.1)" fill="#fff"/><path d="M1054.44,244.25a11,11,0,0,1,2-.15c2.13,0,3.5.45,6.39,2.2,1.74,1.06,2.43,1.82,2.43,2.66,0,.61-.53,1.06-1.37,1.29-.61.23-.76.31-.76.61-.08.08-.08.38-.08,1-.07,3.49-.07,3.87-.3,8.13l-.08,3.65-.07,2.43c13.68,2.58,23,8.06,23,13.3a2,2,0,0,1-1.9,2.05c-1.29,0-2-.53-4.11-3-4.25-4.87-9.5-8.06-17-10.34-.15,5-.15,6.08-.15,7.15v19.53c.15,2.58.15,2.58.15,3.34,0,2.36-.76,3.65-2.13,3.65s-3-2.28-3-4.41a7.88,7.88,0,0,1,.38-2.2c.68-3,.68-3.42.68-14.21l.23-11.78c-.07-9.58,0-10.95.08-15.81l.07-2.66c0-2.81-.22-3-3.8-4.94l-.53-.31-.3-.15Z" transform="translate(-665.24 -244.1)" fill="#fff"/><path d="M1158,259.75l5,3a2.19,2.19,0,0,1,1.29,1.75c0,.68-.61,1.14-1.67,1.14l-1.37.08c-5.1,11.32-11.4,19.83-19.84,26.9-5.24,4.41-14.21,9.5-16.72,9.5a.75.75,0,0,1-.76-.68c0-.69.53-1.14,2-1.83a61.75,61.75,0,0,0,30-34.88c-11.48.15-29.8,2.43-31.24,4a2.94,2.94,0,0,1-1,.38c-.68,0-1.9-1-4.18-3.27a5.76,5.76,0,0,1-1.82-3.8c0-.53.3-.76,1.06-.76,1.9,2.35,3,3,4.56,3,1.14,0,5.63-.38,10.64-.91,10.11-1.07,17.18-1.68,22.5-1.9Zm-34-12.69c1,1.75,1.82,2.36,3.34,2.36a27.46,27.46,0,0,0,3-.23c3-.23,6.69-.46,11-.69l6.08-.3,2.89-.23a3.15,3.15,0,0,0,1.3-.23c.15,0,.38-.3.83-.68a2.6,2.6,0,0,1,1.52-.76,11.18,11.18,0,0,1,4.56,2,2.79,2.79,0,0,1,1.14,1.67c0,.92-1.14,1.45-2.89,1.45a14.66,14.66,0,0,1-1.67-.08c-1.82-.07-3.49-.15-4.64-.15-9.12,0-19.38,1.14-21.28,2.28a2.51,2.51,0,0,1-1.06.53c-.3,0-.84-.38-2.66-1.9-2.13-1.75-2.58-2.51-2.58-4.25,0-.69.22-.84.83-.84h.31Z" transform="translate(-665.24 -244.1)" fill="#fff"/><path d="M1193.29,250.94l.61.22.45.08c7.53,2.13,13.15,7,13.15,11.4a2.77,2.77,0,0,1-2.66,3c-1.29,0-1.82-.53-2.89-2.81-2.51-5.39-4.79-8-9.42-10.71Zm54,6.76-.46.61c-8.2,10.94-26,26.14-41.57,35.49a5.22,5.22,0,0,0-2.28,2.13c-.38.84-.76,1.14-1.14,1.14a12.05,12.05,0,0,1-3.57-2.28c-3.12-2.43-4.87-5.17-4.87-7.6,0-1.6.31-2.05,1.22-2.13a13.17,13.17,0,0,0,1.67,3.57c1.07,1.37,2.36,2.28,3.27,2.28,1.44,0,9.88-4.63,16.8-9.27,9.65-6.38,16.41-12.08,28.88-24.24l.53-.46.23-.3Z" transform="translate(-665.24 -244.1)" fill="#fff"/><path d="M693.51,320.17a10.43,10.43,0,0,1,2.43-.3c3.27,0,7.83,2.35,7.83,4,0,.38-.3.68-.91.83-.76.31-.91.53-.91,1.29a6.62,6.62,0,0,0,.08,1.14c.07,1.07.07,2.21.07,3.88v4.64c3.42-.31,4.26-.38,8.82-.54s4.86-.22,6.38-1.14a2.42,2.42,0,0,1,1.29-.53,21.52,21.52,0,0,1,5.25,2.59c1.37,1.06,2,1.67,2,2.35s-.6,1.07-1.44,1.07a9.13,9.13,0,0,1-1.14-.16,109.36,109.36,0,0,0-14.74-1c-1.75,0-2.66,0-6.46.22v12.92l.07,7.3c.08,4.26.08,4.71.31,7.22.07.91.07,1.75.07,2.43A7.92,7.92,0,0,1,700.2,374a4.46,4.46,0,0,1-2.81,1.75c-.68,0-1.22-.84-1.29-2.13s-.46-1.9-2.82-3.49a59.21,59.21,0,0,1-7.6-6l-.68-.53.91-.91.46.23a51.17,51.17,0,0,0,11.7,5.92,112.46,112.46,0,0,0,.69-14.28c0-2.28,0-5.25-.08-9.2v-3.57a105.87,105.87,0,0,1-19.3,20.14c-5.4,4.33-11.94,8.43-13.46,8.43a.67.67,0,0,1-.68-.68c0-.53.38-.91,1.37-1.6,11.78-8.13,18.77-15.2,29.11-29.33l-.76.07a146.22,146.22,0,0,0-15.58,1.67c-.84.08-1.6.23-1.83.23-1.52.15-2,.31-2.51,1a1.29,1.29,0,0,1-1.21.61c-.91,0-1.67-.46-3.35-1.9-2.35-2.05-2.81-2.81-2.81-4.18a13.15,13.15,0,0,1,.23-1.67l1.06-.08c1.22,2.43,2.44,3.12,5.48,3.12,1.44,0,1.44,0,12.84-.92,4.94-.45,6.92-.53,11.17-.76l-.07-2.2c-.16-2.43-.23-4.26-.23-4.86-.15-5.63-.38-6.08-2.81-6.84-.54-.16-1.67-.61-2.06-.76Z" transform="translate(-665.24 -244.1)" fill="#fff"/><path d="M742.3,351.48c-.53,0-1.06-.6-2.88-3.49a10.06,10.06,0,0,1-2-5.09c0-1.68.53-2.28,1.9-2.36.61,4.71,2.66,5.78,10.94,5.78,1.37,0,3.42-.08,6.31-.15,7.22-.23,10.49-.31,18.62-.39,8.29-.07,15.66-.68,17.94-1.44a5.24,5.24,0,0,1,1.29-.23,6.28,6.28,0,0,1,3,1.45,3.2,3.2,0,0,1,1.6,2.66c0,1.06-.61,1.59-1.75,1.59a15.58,15.58,0,0,1-2.81-.3,91.64,91.64,0,0,0-12-.46c-14.75,0-20.52.16-38,1.14A4.54,4.54,0,0,1,742.3,351.48Z" transform="translate(-665.24 -244.1)" fill="#fff"/><path d="M858.28,327.85l5.47,3.65c.61.45.92.83.92,1.29s-.54,1.06-1.45,1.14l-1.75.3c-5.93,14.14-12.69,23.41-23.1,31.7a63.69,63.69,0,0,1-13.07,8.2c-3.42,1.68-3.42,1.68-4,1.68a.9.9,0,0,1-1-.92c0-.53.38-.91,1.67-1.59,8.89-4.94,14.29-9,19.83-15,5.93-6.08,12.39-17.18,14.75-25.09-.84-.07-1.6-.07-1.82-.07a66.72,66.72,0,0,0-12.09,1.14,3.06,3.06,0,0,1-.76.07c-.38,0-.61-.15-1.06-.53a51.83,51.83,0,0,1-13.91,16c-3,2.36-5.17,3.72-5.93,3.72a.91.91,0,0,1-.91-.83c0-.61.23-.91,2.66-2.82a56.35,56.35,0,0,0,12.08-13.45c2.81-4.48,5-9.5,5-11.4,0-1.29-.91-2.13-3.35-3,.31-1.07.69-1.37,1.83-1.37,1.67,0,2.66.38,5.32,2.05,2.28,1.45,2.51,1.67,2.51,2.43s-.38,1-1.14,1.22c-.54.23-.61.3-1.14,1.52a34.58,34.58,0,0,1-1.52,3.19l.83-.07c7.15-.61,8.44-.69,13.38-1Z" transform="translate(-665.24 -244.1)" fill="#fff"/></svg>