<svg id="Layer_1" data-name="Layer 1" xmlns="http://www.w3.org/2000/svg" viewBox="0 0 612.58 265.9"><path d="M343.18,306.64c-2.65,1.35-3.41,1.78-5.08,2.75,5.13,5.94,11.12,9.45,20.41,11.94-2.81,1.24-4.86,3-5.56,4.8-5.78-3-12.31-9.34-15.23-14.74a26.87,26.87,0,0,1,.32,4.11c0,4.1-1,8.15-2.69,10.47-1.52,2-3.52,3.35-5.24,3.35-1.25,0-1.79-.65-1.79-2a2.83,2.83,0,0,0-.16-1.24,3.15,3.15,0,0,0-.91-.65c-.22-.11-.92-.48-2-1.08-.87-.43-1.62-.81-2.33-1.13-.48-.22-.7-.43-.7-.7s.16-.44.49-.44.65.06,1.08.11a38.87,38.87,0,0,0,5.78.7c1.56,0,2.43-.91,3.29-3.4a19.13,19.13,0,0,0,.92-7.13c-6.48,5.46-10.42,8.05-16.8,10.86-3.94,1.73-7,2.86-7.83,2.86-.37,0-.59-.16-.59-.38s.16-.43,1-.81a67.17,67.17,0,0,0,23-17.76,15.7,15.7,0,0,0-.92-1.84,69.07,69.07,0,0,1-12.53,9c-3.19,1.79-8.48,4-9.61,4a.44.44,0,0,1-.49-.43c0-.22.22-.43.81-.76,8.7-4.91,13.83-9,19.28-15.28a2.81,2.81,0,0,0-.76-.86,65.5,65.5,0,0,1-11.77,6.31c-3.89,1.68-7,2.81-7.61,2.81-.33,0-.54-.16-.54-.48s0-.33,3.18-2a69.74,69.74,0,0,0,16-11.23h-3.35c-.65,0-2.11.05-4.21.1-.6,0-2.16.06-3.94.11l-.92-1.89c4.64.16,6.64.22,9.07.22h16.26l3.4-3.67,2.59,2.05a47.48,47.48,0,0,0,2.54-5.73H316.39a7.85,7.85,0,0,1,.11,1.52,7.09,7.09,0,0,1-1.3,4.48,3.62,3.62,0,0,1-3.08,2c-1.72,0-3.18-1.19-3.18-2.6,0-1.08.21-1.4,2.43-3.07a7.18,7.18,0,0,0,3-5.67c.06-.49.27-.81.54-.81s.49.21.6.64c.21.87.43,1.52.54,2.06h14V279l5.57.33c.86.05,1.24.32,1.24,1a1.15,1.15,0,0,1-.65.92l-1.24.86v3.95h14.15l2-2.7,5,5.23a2,2,0,0,1,.54,1.19c0,.7-.6,1.08-1.52,1h-.32l-2.27-.11c-.7.43-1.19.7-1.35.81-.81.54-1.62,1.08-2.48,1.57-.38.27-.87.54-1.35.86l1,.86a1.14,1.14,0,0,1,.49.76c0,.54-.38.76-1.25.76H335.08c-2.7,1.89-3.25,2.26-5.51,3.83a23.53,23.53,0,0,1,7.66,8.37c3-2.86,4.38-4.16,5.14-5.08l3.4-3.88a11,11,0,0,1,1.19-1.3l4.59,3.51a1.33,1.33,0,0,1,.54,1c0,.54-.54.91-1.25.86h-.27l-1.56-.11Z" transform="translate(-308.4 -278.72)" fill="#333"/><path d="M382.7,303.67c-.92,9.61-2.48,14.42-6.1,18.79-2.21,2.65-5.51,5.62-6.32,5.62a.47.47,0,0,1-.43-.43c0-.33,0-.33,1-1.57,5.5-6.48,7.5-14.8,7.5-31.16v-2.27H377.3c-2.64,0-3.45.06-6.1.17L370.07,291c3.72.16,5.23.22,7.23.22h1.62V279.64l5.13.54c1,.11,1.51.54,1.51,1.3a1.49,1.49,0,0,1-.81,1.24l-1.08.54v7.94h3.46l3.13-3.78,3.84,3.34c.54.49.75.81.75,1.19s-.43.7-1,.7h-10.8c.05.6.05,1.19.05,1.35,0,1.73,0,2.16-.32,8.21h3.73l1.89-2.81,4.32,3.84a1.39,1.39,0,0,1,.59,1.08,1.25,1.25,0,0,1-1,1.24l-.54.16c-.7,8.75-1,11.23-2.05,15.23-1.14,4.48-3.73,7.18-6.86,7.18-1,0-1.14-.27-1.14-2.37.06-1.08-.1-1.19-3.13-2.81-1-.49-1.19-.65-1.19-.92s.22-.32.44-.32a1,1,0,0,1,.32.05,32.9,32.9,0,0,0,4.48.38c2.05,0,2.27-.33,3.19-4.7a80.9,80.9,0,0,0,1.51-13.77Zm37.59,5.51a1.62,1.62,0,0,1,.54,1.13c0,.6-.38.81-1.24.81h-13c2.7,6.16,5.83,8.86,15.07,13a11,11,0,0,0-5.13,4.32,25.53,25.53,0,0,1-10.64-15.23c-1.24,4.91-2.54,7.29-5.29,9.77a30.46,30.46,0,0,1-9.89,5.29,9.71,9.71,0,0,1-1.72.49c-.27,0-.49-.16-.49-.38s.22-.54,1.14-1c8.1-4.76,11.23-9,12-16.26h-2.11c-2.48.06-3.51.11-6.43.16l-.81-1.83,3.95.16c1.4.05,2.59.05,3.29.05h2.32a61.2,61.2,0,0,0,.38-6.48v-1h-2.43c-2.21,3.29-5.94,7.18-6.91,7.18a.32.32,0,0,1-.33-.32c0-.17.11-.38.76-1.41,2.65-4.05,4.21-8.21,5.83-15.12l5.24,2.11a1,1,0,0,1,.76,1,1.09,1.09,0,0,1-.76,1l-1.62.64c-.92,1.68-1.08,1.89-2,3.46h7.67l3.46-3.78,4.48,3.89a.82.82,0,0,1,.32.65c0,.48-.32.7-.91.7h-9a53.13,53.13,0,0,1-.48,7.5h5.5l3.73-4.26Zm-.38-19.44a1.4,1.4,0,0,1,.54,1c0,.54-.32.81-1,.81H399.33c-3.07,4.64-6.91,8.91-8,8.91a.42.42,0,0,1-.43-.38c0-.27,0-.27,1-1.83,3.46-5.67,5.08-10,7-19l5.62,2.05a1.37,1.37,0,0,1,1.08,1.3,1.32,1.32,0,0,1-1.14,1.24l-1,.27L402,287c-.32.71-.92,1.79-1.67,3.08h11.28l3.51-4Z" transform="translate(-308.4 -278.72)" fill="#333"/><path d="M461.87,322.52a32.67,32.67,0,0,1-7.51,3,16.11,16.11,0,0,1-3.24.7c-.22,0-.43-.16-.43-.32s.16-.33.75-.54c7.08-2.27,13.5-9,16.48-17.12a32.19,32.19,0,0,0-14.8-4.1,71.52,71.52,0,0,0-5.56,11.5c-.87,2.16-1.25,2.86-2.16,3.62a4.92,4.92,0,0,1-3.3,1.24,6.32,6.32,0,0,1-6.15-6.43c0-3.45,2.37-6.8,6.37-9.07,1.78-1,3.72-1.67,7.5-2.48,1.08-1.79,2.87-5,4.49-7.78,2.43-4.21,3.13-5.72,3.13-6.86a1,1,0,0,0-.92-1,6.86,6.86,0,0,0-2.54,1,36.19,36.19,0,0,0-4.26,3.3,3.57,3.57,0,0,1-2.16,1.08c-1.68,0-3.95-2.6-3.95-4.59,0-.92,1-2.87,1.46-2.87.16,0,.27.22.27.6a1.92,1.92,0,0,0,1.89,1.89,46.62,46.62,0,0,0,9.67-3.08,4,4,0,0,1,1.94-.59c1.68,0,6.64,3.29,6.64,4.37,0,.65-.43,1.13-1.72,2.05-3,2.22-5.89,6.05-9.24,12A47.57,47.57,0,0,1,469,304.43a14.36,14.36,0,0,0,.86-4.7c0-2.38-.59-3.3-2.16-3.51-.11,0-.22-.16-.22-.27,0-.33,1.46-.92,2.33-.92a9.45,9.45,0,0,1,4.1,1.78c1.35.92,1.73,1.57,1.73,2.81a22.6,22.6,0,0,1-1.41,6.91,32.22,32.22,0,0,1,5.46,3.3c2.05,1.45,2.81,2.59,2.81,4.05a2.52,2.52,0,0,1-2.49,2.75c-1.13,0-1.24-.05-3.83-2.48-.87-.81-1.95-1.68-4.05-3.3C468.73,317.39,466.4,320,461.87,322.52Zm-12.8-18c-5.35.81-9.07,4.32-9.07,8.64,0,1.3.7,2.16,1.72,2.16s1.73-.65,2.76-2.21c.65-1,.7-1.08,3.78-7Z" transform="translate(-308.4 -278.72)" fill="#333"/><path d="M528.61,306.59a18.07,18.07,0,0,1-.32,3c-.92,5.62-1.08,6.86-1.08,8.15,0,2.38.91,3.35,3,3.35,4.86,0,9.83-3.72,12.31-9.29.11-.21.22-.32.38-.32s.33.16.33.43a18.32,18.32,0,0,1-2.27,6.54,13.47,13.47,0,0,1-11.77,6.85c-4.27,0-7.13-2.91-7.13-7.34a79,79,0,0,1,1.19-9.34c.1-.92.21-1.73.21-2.27a3,3,0,0,0-3.19-3.13c-4.59,0-9.34,3.78-11.88,9.45a33.07,33.07,0,0,0-2.8,11.18c-.17,1.56-.22,1.94-.6,2.48a2,2,0,0,1-1.4.76,4.67,4.67,0,0,1-2.22-1.08,4.21,4.21,0,0,1-1.62-3.08c0-2,2.22-8.16,5.3-14.64a162.09,162.09,0,0,1,8.8-15.66c2.91-4.37,3.56-5.83,3.56-7.5s-1.08-3.62-2.26-3.73c-.44-.05-.55-.11-.55-.27,0-.32.92-.54,2-.54,3.35,0,7.72,3.4,7.72,6.05,0,1.08-.32,1.57-2,3-4.38,3.89-12.05,13.77-12.05,15.56,0,.32.27.64.49.64s.11,0,.92-.7c3.29-3.08,7.13-4.91,10.15-4.91A6.56,6.56,0,0,1,528.61,306.59Z" transform="translate(-308.4 -278.72)" fill="#333"/><path d="M571.16,295.35a6.08,6.08,0,0,1-5.24-2.32,8.13,8.13,0,0,1-1.29-3.67A.37.37,0,0,1,565,289c.16,0,.27.06.43.43.59,1.41,2.7,2.38,5,2.38a19.69,19.69,0,0,0,5.94-1.08,18,18,0,0,0,1.08-5.62,3.25,3.25,0,0,0-3.19-3.4c-.32,0-.43-.05-.43-.21,0-.65,2.06-1.41,3.68-1.41a4.8,4.8,0,0,1,4.48,2.38c-.17,1.24-.27,1.73-.44,2.7.82.75,2.38,1.19,4.76,1.19,1.4.05,1.67.27,1.67,1.56,0,1.73-1,2.92-3.4,4.21a21.47,21.47,0,0,1-5,1.95c-3.51,8.8-5.13,12.42-7.51,16.79-2,3.73-2.21,4-2.75,4.7a4.34,4.34,0,0,1-3.24,1.46,3.08,3.08,0,0,1-3.08-2.86c0-.71.48-1.41,1.73-2.54,4.21-3.62,8-9.67,10.58-16.63A28.31,28.31,0,0,1,571.16,295.35Zm19.23-.48a1.13,1.13,0,0,1-.38.05.34.34,0,0,1-.32-.32c0-.81,4-2.05,6.53-2.05,4.59,0,8.26,2.86,8.26,6.42a2.33,2.33,0,0,1-1.94,2.59,12.76,12.76,0,0,0-5.67-1.56c-3,0-4.59,2.16-4.59,6.1a74.84,74.84,0,0,0,1,8.75c6.37,1.89,10.58,4.91,10.58,7.56a2.51,2.51,0,0,1-2.26,2.59c-.87,0-1.62-.43-2.81-1.62a21.59,21.59,0,0,0-5.51-4.21c-.11,2.54-.32,3.67-1.08,4.91-1.24,2.11-3.67,3.19-7,3.19-5.46,0-9.61-3-9.61-7a6.18,6.18,0,0,1,3.24-5.08,15.43,15.43,0,0,1,7.13-1.4,24,24,0,0,1,2.64.11c0-5.78.22-8.16.87-9.83a10.16,10.16,0,0,1,6.85-5.73c1.19-.32,1.41-.43,1.41-.91,0-1.35-2.7-2.6-5.62-2.6Zm-1.89,22.52a14.07,14.07,0,0,0-5-.92c-2.92,0-4.92,1.35-4.92,3.4s2.11,3.29,5.3,3.29c2.8,0,4.59-1.62,4.59-4.21Zm-8.27-27.49c2.11-.92,3.19-1.67,3.19-2.27,0-.21-.21-.43-2.11-1.62C580.94,287.52,580.83,287.85,580.23,289.9Z" transform="translate(-308.4 -278.72)" fill="#333"/><path d="M665.29,285.31c1.62,1.08,2.43,2.16,2.43,3.13A1.68,1.68,0,0,1,666,290a8.79,8.79,0,0,1-1.08-.11,20.45,20.45,0,0,0-4-.43c-3.46,0-5.4.32-7.18,1.19a12.51,12.51,0,0,0-6,7,35,35,0,0,0-2.16,12.15c0,6.43,3,9.61,9,9.61a32,32,0,0,0,4.26-.37.65.65,0,0,1,.33-.06c1.51,0,3.34,2.05,3.34,3.78s-1.51,2.7-4.42,2.7a28.89,28.89,0,0,1-9.83-1.83c-5-1.89-7.4-5.89-7.4-12.05A34.27,34.27,0,0,1,643,300.32a29.58,29.58,0,0,1,6-9.45,2.61,2.61,0,0,0,.54-.65c0-.1-.16-.16-.27-.16-1.3,0-5.78,1.51-9.51,3.13a43.25,43.25,0,0,0-8,4.43,2.17,2.17,0,0,1-1.35.54c-1.73,0-4.54-2.1-5.46-4.05a8.78,8.78,0,0,1-.65-3.56c0-.27.11-.43.27-.43s.22.05.49.59a4.68,4.68,0,0,0,4,2.16c1.19,0,2.37-.27,5.56-1.3,6.26-1.89,11.45-3.34,18.47-5.13,6.86-2,7.07-2.05,8.26-2.7A7,7,0,0,1,665.29,285.31Zm-2.22,17.93a2.2,2.2,0,0,1-2.27,1.89c-1.13,0-1.4-.27-2-1.84a7.84,7.84,0,0,0-4.16-4.16c-.16-.1-.32-.21-.32-.37,0-.33.49-.49,1.3-.49C659.18,298.27,663.07,300.81,663.07,303.24Zm6.43-4.11a2.36,2.36,0,0,1-2.49,2.11c-.86,0-1-.05-1.72-1.46a8.92,8.92,0,0,0-4.86-3.78c-.27-.11-.49-.32-.49-.48,0-.38.92-.65,2.38-.65C666,294.87,669.5,297,669.5,299.13Z" transform="translate(-308.4 -278.72)" fill="#333"/><path d="M733.11,310.91a1.19,1.19,0,0,1,.59,1,.61.61,0,0,1-.7.65h-21c4.53,4.86,12.74,8.53,22.08,9.88a16.81,16.81,0,0,0-4.85,5c-7.67-3.14-14.37-8.21-18.1-13.72V327c0,.27-.26.48-.86.75a10.39,10.39,0,0,1-3.08.92c-.43,0-.7-.32-.7-.81V316.09a55.2,55.2,0,0,1-14.9,8.8,45.23,45.23,0,0,1-7.78,2.59c-.22,0-.38-.1-.38-.32s.11-.38,1.89-1.24a57.91,57.91,0,0,0,17.77-13.39H694.5c-2.38,0-4.43.05-9.4.27l-1.24-2.11c6.26.27,8.32.32,10.64.32h12V304.7h-2.21v1.62c0,.91-1.73,1.72-3.62,1.72-.7,0-.87-.21-.87-1.08V284.45l5.35,2.21h.7a64.69,64.69,0,0,0,1.19-7.94l5.24,1.41c.59.16.92.43.92.81s-.27.7-1,1l-.86.43a2.72,2.72,0,0,0-.38.38c-.43.54-.81,1.08-1.24,1.57-.54.65-1.08,1.24-1.57,1.89l-.37.43h5.45l1.78-2.48,4,4.26a1.78,1.78,0,0,1,.65,1.14c0,.32-.27.64-.92,1l-.75.48v14.69c0,.7-2.06,1.57-3.62,1.57-.65,0-.92-.22-.92-.81V304.7h-2.38V311h14.1l3.18-3.56Zm-49-7.29a91.72,91.72,0,0,0,12.64-5.3c1.62-.81,1.94-1,2.21-1a.41.41,0,0,1,.43.38c0,.54-4.75,5-8.91,8.26l-.21,1.08c-.11,1-.49,1.41-1.19,1.41-.33,0-.7-.22-1.19-.76Zm7.07-18.2c3,1.35,4.92,3.83,4.92,6.48,0,1.78-1,3-2.59,3a2.08,2.08,0,0,1-1.89-1.14,25.43,25.43,0,0,1-1-2.91c-.92-2.76-1.89-4.11-3.67-5.35-.43-.32-.6-.54-.6-.75s.27-.44.71-.44A16.87,16.87,0,0,1,691.2,285.42Zm22.36,9.18v-6.48h-9.23v6.48Zm0,8.64v-7.18h-9.23v7.18Zm15.88-14.58c-4.38,3.45-9.29,6.86-10,6.86a.31.31,0,0,1-.27-.33c0-.21.16-.48.59-1a62.85,62.85,0,0,0,6.91-11.34l4,3.4a1.66,1.66,0,0,1,.76,1.19c0,.37-.38.75-.92.91Zm-3.57,9.66c3.73,1.25,5.89,3.3,5.89,5.67a2.37,2.37,0,0,1-2.43,2.49c-.81,0-1.35-.38-2.21-1.62a26.64,26.64,0,0,0-6.81-6.64c-.54-.38-.65-.54-.65-.71s.22-.32.65-.32A26,26,0,0,1,725.87,298.32Z" transform="translate(-308.4 -278.72)" fill="#333"/><path d="M767,287.9c0,.92-.11,1.3-1.08,4.27-.81,2.59-2.48,15.12-2.48,19,0,6.48,3.08,10,8.75,10a21.7,21.7,0,0,0,13.17-4.75,24.88,24.88,0,0,0,5-4.92c.11-.21.22-.27.32-.27s.27.17.27.38c0,.65-1.73,3.78-3.13,5.62-4.37,5.78-9.77,8.85-15.6,8.85-8.43,0-12.86-5.29-12.86-15.28,0-1.94,0-2.32.76-15.93.22-3.51.32-6,.32-6.69,0-3.84-1-5.84-3-6.05a.25.25,0,0,1-.27-.22c0-.43,1.46-.92,2.6-.92C763.35,281,767,284.5,767,287.9Z" transform="translate(-308.4 -278.72)" fill="#333"/><path d="M815.24,288.17S815,288,815,288c0-.38,2.43-1.19,3.62-1.19A6.43,6.43,0,0,1,822,288c.81.64,1.08,1.24,1.14,3a23.19,23.19,0,0,0,1.18,6.32,30.47,30.47,0,0,1,11.61-4.48,18,18,0,0,0,.27-3.14c0-3.61-1.24-6-3.34-6.42-.27-.06-.38-.16-.38-.33s.92-.43,2.16-.43c3.89,0,6.59,2,6.59,4.92a25.52,25.52,0,0,1-.92,5.5c3.83.22,5.72.71,8,2.11,4.05,2.48,6.32,6.8,6.32,12.2,0,6.65-4.27,12.37-11.5,15.61-3.89,1.73-10.64,3.4-13.72,3.4-.38,0-.59-.11-.59-.32s.1-.27.7-.38a37.26,37.26,0,0,0,11-4.59,16.83,16.83,0,0,0,8.26-14.69,13.13,13.13,0,0,0-2.43-8.21c-1.46-1.94-3.08-2.8-6.53-3.56a75.45,75.45,0,0,1-5.56,13.77c1,.27,1.13.38,1.35.65a5.8,5.8,0,0,1,.48,1.73c0,.54-.48.91-1.13.91a5.07,5.07,0,0,1-2.22-.59c-1.94,3.08-3,4.37-4.69,5.78-2.65,2.32-5.78,3.72-8.16,3.72-2.86,0-4.7-2.91-4.7-7.5a16.25,16.25,0,0,1,2.54-8.59,26.35,26.35,0,0,1,3.73-4.7,42.46,42.46,0,0,1-2.43-6.8c-.81-3.4-1.35-4.27-3.13-4.7l-.17-.05Zm7.67,14.31a14,14,0,0,0-3.67,9.56c0,1.84.32,2.92,1,3.56a2.84,2.84,0,0,0,1.73.81,6.84,6.84,0,0,0,3.51-1.83,22.15,22.15,0,0,0,4.27-5.08C826.42,307.29,825.5,306.37,822.91,302.48Zm2.48-2.59a14.64,14.64,0,0,0,5.94,7.07,46,46,0,0,0,4.22-12.36A21.88,21.88,0,0,0,825.39,299.89Z" transform="translate(-308.4 -278.72)" fill="#333"/><path d="M907.37,317.06a11.74,11.74,0,0,0,1.24-5.45,8.28,8.28,0,0,0-2.59-6.48,8.17,8.17,0,0,0-5.24-2.05,13.81,13.81,0,0,0-10.42,5,40.84,40.84,0,0,0-5.19,8.1c-.75,1.62-1.29,2.16-2,2.16-1.45,0-3.45-2.43-3.45-4.21,0-.92.38-1.52,1.51-2.6,2.32-2.1,6.32-6.15,8.64-8.74,5.4-6,10-12.91,10-15.07a.61.61,0,0,0-.59-.65c-1.08,0-5.13,2.38-8.21,4.81-1.35,1.08-1.78,1.29-2.38,1.29a4.56,4.56,0,0,1-3.18-2,4.41,4.41,0,0,1-.87-2.87c0-1.13.16-1.72.49-1.72.11,0,.16.05.32.48a2.12,2.12,0,0,0,2.16,1.14c2.76,0,7.83-1.84,11.29-4.05a3.86,3.86,0,0,1,2.11-.76c2.48,0,6.75,2.86,6.75,4.48,0,.76-.49,1.3-2,2.22-3.62,2.32-11.88,11.23-11.88,12.79a.12.12,0,0,0,.11.11.2.2,0,0,0,.16,0,17.31,17.31,0,0,1,8.16-1.89c6.91,0,12,4.48,12,10.47A13,13,0,0,1,910,321c-2.75,2.49-7.24,4-12,4-5.35,0-8.86-2.05-8.86-5.24,0-2.91,2.27-4.64,6.05-4.64a8.62,8.62,0,0,1,8.1,4.75c.11.16.22.43.43.81A9.6,9.6,0,0,0,907.37,317.06Zm-12.91.22c-1.51,0-2.59.81-2.59,1.94,0,1.51,2.65,2.81,5.67,2.81.11,0,.54,0,1.24,0C898.29,318.84,896.84,317.28,894.46,317.28Z" transform="translate(-308.4 -278.72)" fill="#333"/><path d="M356.51,360.23h-9.45v29.53h-9.12v-38.5h18.57Zm-16.14-6.59v33.75h4.26V357.8h9.45v-4.16Z" transform="translate(-308.4 -278.72)" fill="#333"/><path d="M386.16,385.23a13.88,13.88,0,0,1,4.64,1.19c2.05,1,3.35,2.75,3.35,4.48a2.25,2.25,0,0,1-2.38,2.27c-1.13,0-1.4-.27-2.59-2.92a9.63,9.63,0,0,0-3-3.89v11.83a1.4,1.4,0,0,1-1,1.51,5,5,0,0,1-2.21.54c-.92,0-1.3-.32-1.3-1.13V388.79a42.67,42.67,0,0,1-8,6.75c-2.16,1.46-3.24,2.11-3.57,2.11a.41.41,0,0,1-.38-.38c0-.27.27-.59,1-1.24a39.29,39.29,0,0,0,10.64-14.37h-3.08c-.6,0-1.52,0-2.65.06l-3.4.11L371,380c2,.05,3.84.11,4.49.16,1.35.06,2.26.06,2.7.06h3.45v-7.67l5.4.54a1.16,1.16,0,0,1,1.08,1.13c0,.43-.21.7-.81,1l-1.13.54v4.43h1.62l2.7-3.41,3.83,3.19a1.19,1.19,0,0,1,.54.92.75.75,0,0,1-.81.75h-7.88Zm31.75-26.57a1,1,0,0,1,.43.76.65.65,0,0,1-.7.7H398.53c4.75,4.8,13.66,8.64,22.24,9.56-3.13,1.67-3.94,2.26-5.61,4.59-7.83-3.08-12.91-7-17.28-13.07v12.31c0,.65-.22,1-1,1.19a11,11,0,0,1-2.7.54,1,1,0,0,1-1.09-1.14v-9.93c-6,4.59-8.15,5.94-12.9,8.26-3.67,1.84-7.62,3.4-8.37,3.4a.41.41,0,0,1-.43-.38c0-.27.21-.48.7-.7a56.91,56.91,0,0,0,18.25-14.63h-5.56c-3,0-4.75.05-9.34.27l-1.25-2,6,.16c1.89.06,3.51.11,4.54.11h8.31v-7.88l5.57.43a1.1,1.1,0,0,1,1.08,1,1.44,1.44,0,0,1-.71,1.13l-1.18.71v4.64H409.6l3.45-4.1Zm2.59,21.6a1.24,1.24,0,0,1,.44.76.64.64,0,0,1-.71.64H409.76c2.1,4.16,6.05,7.67,11.93,10.7a10.56,10.56,0,0,0-4.48,4.37,30.75,30.75,0,0,1-7.88-11.88v13.88c0,.81-.27,1.13-1.08,1.4a8.51,8.51,0,0,1-2.65.49c-.7,0-1-.33-1-1.14v-10.8a47.1,47.1,0,0,1-9.18,7.19c-2.49,1.51-4,2.26-4.49,2.26a.36.36,0,0,1-.37-.37c0-.33.05-.38,1.72-1.73,5.57-4.48,9.46-9.13,12-14.37h-1.24c-1.56,0-2.91.06-6.37.17l-.81-1.84c2.21.11,4.27.16,7.18.22h1.57v-7.73l5.29.71a.94.94,0,0,1,.92.91,1.15,1.15,0,0,1-.6,1l-1,.64v4.49H413l3.08-3.68Z" transform="translate(-308.4 -278.72)" fill="#333"/><path d="M434.6,390.9h9.45V361.36h9.12v38.5H434.6Zm16.14,6.59V363.74h-4.26v29.59H437v4.16Z" transform="translate(-308.4 -278.72)" fill="#333"/><path d="M522.62,356c2.26.76,2.26.76,2.26,1.46,0,1.46-1.29,2.22-6.64,3.78-2.48,4.92-3.34,6.54-5.56,10.26a7.87,7.87,0,0,1,2.86-.65,5.86,5.86,0,0,1,3.89,1.41c.92.81,1.35,1.89,1.67,4.21,3.41-8.26,8-12.31,14-12.31,4.32,0,7.45,2.48,7.45,5.94,0,2.05-1.45,3.4-5.13,4.7-8.26,2.91-10.85,3.94-15,6.1.11,3.13.16,4,.16,5,0,2.37-1,3.45-3.35,3.45-.7,0-1.29-.43-1.29-.92a2.6,2.6,0,0,1,.05-.59,10.09,10.09,0,0,0,.11-1.73l0-2.16v-1a18.41,18.41,0,0,0-3.72,3,6.36,6.36,0,0,0-1.84,4.05c0,2.37,2.38,3.45,7.56,3.45a32.22,32.22,0,0,0,8.37-1.19,6,6,0,0,1,1.62-.37,3.16,3.16,0,0,1,2.33,1,4.72,4.72,0,0,1,1.13,2.43c0,1.19-1.13,2.1-3.35,2.64a42.67,42.67,0,0,1-8.21.76c-4,0-6.75-.54-9.12-1.78a6.94,6.94,0,0,1-3.84-5.83c0-2.27,1.3-4.43,4-6.59a42.86,42.86,0,0,1,5-3.24V380.1l-.06-2.32q-.08-5.36-2.75-5.35a6.09,6.09,0,0,0-3.94,2.38c-.6.75-3.41,5-4.54,6.85-.76,1.25-1.4,1.84-2.16,1.84-1.19,0-2.75-2.48-2.75-4.48,0-.81.1-1,1.67-2.16,6.16-5,8.59-8.37,10.58-14.53a24.82,24.82,0,0,1-4.8.76c-2.32,0-4.65-2.11-4.65-4.16a.25.25,0,0,1,.22-.27.78.78,0,0,1,.43.27c.65.7,1.57,1,3.51,1a14.84,14.84,0,0,0,5.73-1.19,6.52,6.52,0,0,0,.21-1.67c0-2.27-.86-3.89-2.1-3.94-.27-.06-.38-.11-.38-.27,0-.43,1.73-1,3.13-1a4.33,4.33,0,0,1,2.65.86c1,.86,1.35,1.62,1.35,3.4a6,6,0,0,1-.17,1.35,4.64,4.64,0,0,0,2.54-1.73Zm-.6,22.9c14.15-8.15,14.15-8.15,14.15-9.67a3,3,0,0,0-2.75-2.86c-3.24,0-6.48,2.49-9.18,7a13.19,13.19,0,0,0-2.16,5.24v.11Z" transform="translate(-308.4 -278.72)" fill="#333"/><path d="M569.92,374.64a2.94,2.94,0,0,1-.86.17A8.54,8.54,0,0,1,565,372.7a3.76,3.76,0,0,1-1.35-2.7,1.25,1.25,0,0,1,.54-1c.92,1.3,2,1.73,4.21,1.73,1.89,0,16.69-1.56,21.23-2.21s6-1.14,8.26-2.49a10.38,10.38,0,0,1,3.67,1.68c1.68,1,2.22,1.62,2.22,2.54a1.81,1.81,0,0,1-2,1.56,8.34,8.34,0,0,1-1.41-.16,66,66,0,0,0-7.34-.54c-1.35,0-2.05.05-5.51.27,2.11,1.62,2.65,2.16,2.65,2.54s-.16.54-.81,1.24c-3,8.8-8.32,15.77-15,19.44-2,1.13-7,3.13-7.88,3.13-.27,0-.43-.11-.43-.32s0-.22,2.59-1.57c3.46-1.78,7.89-6.21,10.64-10.58,2.48-4,4.32-9.18,4.32-12.1a2.27,2.27,0,0,0-.43-1.4C576.94,372.54,572.89,373.4,569.92,374.64ZM572,359.47a5.39,5.39,0,0,0,3.56,1.13,37.27,37.27,0,0,0,9.61-1.78,21.83,21.83,0,0,0,3.3-1.35,2.7,2.7,0,0,1,1-.27,8.8,8.8,0,0,1,2.81,1c1.08.65,1.67,1.35,1.67,2s-1.08,1.24-4,1.89c-6.75,1.51-11.13,2.22-13.4,2.22a4.39,4.39,0,0,1-3.51-1.57,7.25,7.25,0,0,1-1.51-2.92c0-.16.16-.43.32-.43S572,359.42,572,359.47Z" transform="translate(-308.4 -278.72)" fill="#333"/><path d="M668.9,377c0,1.08-1.08,1.78-2.75,1.78-.49,0-2.21-.16-4.54-.38-1.13-.11-2.75-.16-4.75-.16-13.5,0-21.49.75-25.54,2.37a2.1,2.1,0,0,1-.76.17,9.64,9.64,0,0,1-4.64-1.79,5,5,0,0,1-1.95-4.37c0-1,.27-1.51.81-1.51.17,0,.27.11.54.54.81,1.35,2.6,1.83,6.92,1.83,4.1,0,17.55-.81,21.27-1.24a42.14,42.14,0,0,0,8.59-1.83C666.64,373.29,668.9,374.86,668.9,377Z" transform="translate(-308.4 -278.72)" fill="#333"/><path d="M716.91,389.39c0,2.05-1.3,3.51-3.08,3.51-.86,0-1.51-.6-2.27-2.06-2.91-6.31-6.53-10.8-10.15-12.58-.54-.21-.7-.32-.7-.48s.32-.49.75-.49c3,0,5.95,1.13,9.24,3.56,5.67-5.45,9.72-10.53,9.72-12.2,0-.7-1-1.13-2.7-1.13a81.79,81.79,0,0,0-11.67,1.78A86.53,86.53,0,0,0,694,373a2.67,2.67,0,0,1-.87.27c-1,0-3.24-1.35-4.48-2.7a4.91,4.91,0,0,1-1.24-3.61c0-.92.11-1.25.43-1.25.16,0,.33.11.49.44.75,1.08,2.16,1.67,4.16,1.67,2.21,0,7.77-.65,16.47-1.94,2.48-.38,4.59-.71,5.61-.81a24.61,24.61,0,0,0,7.4-1.95,7.4,7.4,0,0,1,1.35-.38c1,0,3.3,1.41,5.29,3.14,1.46,1.24,1.84,1.78,1.84,2.59s-.38,1.19-1.62,1.67a9.71,9.71,0,0,0-3.94,2.38A112.74,112.74,0,0,1,712.37,382C715.61,384.9,716.91,387,716.91,389.39Z" transform="translate(-308.4 -278.72)" fill="#333"/><path d="M764.32,377.45a4.67,4.67,0,0,1-.27.92c-2.11,5.13-2.81,8.26-2.81,12a13.35,13.35,0,0,0,.81,5.19,2.07,2.07,0,0,1,.16.75c0,.65-1,1.24-2,1.24-4.05,0-7.24-6.58-7.24-14.9,0-3.4.49-6.7,2-13.39,1.13-4.92,1.4-6.54,1.4-8.26,0-2.54-.75-4.38-2-4.81-.05,0-.11-.11-.11-.16s.54-.33,1.08-.33a7,7,0,0,1,4.32,2.06,6.87,6.87,0,0,1,2.11,5c0,1.62-.38,3-1.57,5.94-2.54,6.32-3.56,10.26-3.56,13.88,0,2.91.54,5.13,1.29,5.13s.82-.27,1.36-1.52c.64-1.45,1.4-3.07,3-6.42.49-1,.76-1.57.87-1.84.38-.81.54-1,.81-1A.47.47,0,0,1,764.32,377.45ZM793.27,390c0,2.54-3,3.83-9.19,3.83-9.71,0-15-3.83-15-10.8,0-1.94.22-3,.71-3,.21,0,.26.16.32.76a7.81,7.81,0,0,0,2,4.59c1.78,1.94,5,3.07,8.86,3.07a29.54,29.54,0,0,0,7.34-1,5.94,5.94,0,0,1,1.78-.33A3,3,0,0,1,793.27,390Zm-22.63-27.27c.75,1.08,2.54,1.67,4.86,1.67a24.24,24.24,0,0,0,8.21-1.78c1.51-.7,1.62-.75,2.27-.75a4,4,0,0,1,3.61,3.51c0,.64-.54,1.24-1.46,1.56a30.48,30.48,0,0,1-9.17,1.3,10.41,10.41,0,0,1-7.51-2.65,5,5,0,0,1-1.35-2.81.3.3,0,0,1,.27-.27S770.48,362.55,770.64,362.71Z" transform="translate(-308.4 -278.72)" fill="#333"/><path d="M829.66,359.9c0,.92-.11,1.3-1.08,4.27-.81,2.59-2.48,15.12-2.48,19,0,6.48,3.07,10,8.74,10A21.7,21.7,0,0,0,848,388.47a24.88,24.88,0,0,0,5-4.92c.11-.21.22-.27.32-.27s.27.17.27.38c0,.65-1.73,3.78-3.13,5.62-4.37,5.78-9.77,8.85-15.61,8.85-8.42,0-12.85-5.29-12.85-15.28,0-1.94,0-2.32.76-15.93.21-3.51.32-6,.32-6.69,0-3.84-1-5.84-3-6.05a.25.25,0,0,1-.27-.22c0-.43,1.46-.92,2.59-.92C826,353,829.66,356.5,829.66,359.9Z" transform="translate(-308.4 -278.72)" fill="#333"/><path d="M893.17,358.82a9.84,9.84,0,0,0,5.88,2.7,1.15,1.15,0,0,1,1.24,1.3,3.37,3.37,0,0,1-1.83,2.91,41.84,41.84,0,0,1-7.29,3.68c-2.11,8.69-4.21,16.25-6.48,23.27-.87,2.81-1.35,3.89-2.11,4.7a3.48,3.48,0,0,1-2.43,1.08c-1.73,0-3.56-1.68-3.56-3.19,0-.59.21-1,1-2.16,3.89-5.94,6.91-13.28,9.34-22.57a26.19,26.19,0,0,1-6.43.86,5,5,0,0,1-4.15-2,8.52,8.52,0,0,1-1.62-4.49c0-.27.1-.43.27-.43s.21.06.54.65c.54,1.13,2.53,1.94,4.75,1.94a27.09,27.09,0,0,0,7.5-1,36.17,36.17,0,0,0,.92-7.67c0-1.94-.48-3.08-1.56-3.73a4.25,4.25,0,0,0-1.35-.48h-.11a.34.34,0,0,1-.22.05c-.16,0-.32-.11-.32-.21,0-.6,2-1.57,3.29-1.57,2.33,0,5.57,2.05,5.57,3.51a2.77,2.77,0,0,1-.33,1c-.11.21-.16.43-.21.48l-.11.65-.11.54Zm-.81,3.08-.65,3.08c2.1-.7,3.89-1.68,3.89-2.11s-1.3-1.73-2.81-2.81Zm21.92,28.62c2.27,0,3.67,1.24,3.67,3.19,0,2.32-1.51,3.07-6.1,3.07a27.3,27.3,0,0,1-9.5-1.4,8.76,8.76,0,0,1-5.89-8.59c0-2.32,1.35-5.94,2.21-5.94a.31.31,0,0,1,.27.33.64.64,0,0,1-.05.27,17.7,17.7,0,0,0-.43,3.51c0,4.16,3.13,6.26,9.39,6.26Zm-13.34-19.33a.2.2,0,0,1-.16.05c-.11,0-.27-.11-.27-.21,0-.44,1-1.57,2-2.22a12.75,12.75,0,0,1,6.53-1.62c4.65,0,8.05,2.43,8.05,5.67,0,1.19-.54,1.78-1.51,1.78a8.56,8.56,0,0,1-1-.21,15.12,15.12,0,0,0-3.34-.38,13.82,13.82,0,0,0-5.3,1c-.54.22-.59.22-.64.22A.35.35,0,0,1,905,375c0-.16.11-.33.43-.49.06-.05.81-.54,2.27-1.56,1.84-1.19,1.84-1.19,1.84-1.46,0-.65-1.84-1.3-3.67-1.3A10.52,10.52,0,0,0,900.94,371.19Z" transform="translate(-308.4 -278.72)" fill="#333"/><path d="M322.28,445.08a3.7,3.7,0,0,1-1.19.32,6.42,6.42,0,0,1-3.62-2.27,5.46,5.46,0,0,1-1.24-3c0-.54.11-.7.32-.7s.11,0,.54.54,2.27,1,4.43,1,6.32-.37,14.26-1.29c-.76-10.42-1.24-12-3.62-12a.31.31,0,0,1-.33-.27c0-.6,2.17-1.46,3.52-1.46,1.83,0,5.5,2.37,5.5,3.56a1.46,1.46,0,0,1-.21.65c-.38.86-.49,2.21-.49,6.48,0,1,0,1.51.06,2.54a22.34,22.34,0,0,0,5.88-2c1.24-.7,1.35-.76,1.84-.76a6.65,6.65,0,0,1,2.91,1.14c1.52,1,2.22,1.94,2.22,2.86s-.7,1.24-1.89,1.24c-.33,0-1.35-.05-2.65-.16-.75,0-2.92-.11-4-.11-1.41,0-2.38.06-4.32.22.21,4.86.7,10.47,1.72,19.6a31.07,31.07,0,0,1,.27,3.46,6.06,6.06,0,0,1-1.94,4.1,6.29,6.29,0,0,1-3.51,1.89c-.54,0-.86-.32-1-1.08-.27-2-2.27-5.24-4.38-7.07-.27-.22-.54-.49-.81-.76a4.47,4.47,0,0,0-.54-.43.39.39,0,0,1-.21-.33.46.46,0,0,1,.37-.43c.17,0,.17,0,2,.92,3.13,1.73,3.46,1.89,3.94,1.89s.81-.76.81-2.32-.11-4.65-.27-7.94c-.05-1.84-.11-3-.27-6.64-5.56,7.72-10,11.61-17.12,14.79-3.13,1.41-8.48,3-9.93,3-.27,0-.38-.11-.38-.33s.11-.27.38-.37a46.57,46.57,0,0,0,23.81-21.17A43.1,43.1,0,0,0,322.28,445.08Z" transform="translate(-308.4 -278.72)" fill="#333"/><path d="M391.56,435.47a3.71,3.71,0,0,1-.16.86c-.22.76-.33,2.43-.33,6.32,0,.81.16,4.64.27,6.32.06.91.11,1.67.11,2.26,0,1.25-.59,2.16-1.4,2.16-1.62,0-4.05-2.16-4.05-3.67a5.31,5.31,0,0,1,.21-1,40,40,0,0,0,.22-5.08c0-2.05-.16-6.1-.33-7-.27-1.62-1.29-2.49-3.24-2.81-.32,0-.48-.16-.48-.32,0-.54,2.91-1.84,4.05-1.84C388.27,431.74,391.56,434.12,391.56,435.47Zm13.28-4.76c1.79,1.14,2.33,1.62,2.33,2.11a1.33,1.33,0,0,1-.22.65c-.7,1.13-.76,1.29-.76,4.43,0,10.63-.48,14.68-2.1,18.14-2.54,5.29-7.51,9.18-15.23,11.83a23,23,0,0,1-5.19,1.4c-.27,0-.43-.11-.43-.27s.22-.43,1-.65a29.57,29.57,0,0,0,11.89-8.48c3.88-4.69,5-9.23,5-20.25,0-7-.43-8.31-2.81-8.53-.59,0-.76-.16-.76-.43,0-.54,2.43-1.57,3.68-1.57C402.09,429.09,402.36,429.2,404.84,430.71Z" transform="translate(-308.4 -278.72)" fill="#333"/><path d="M451.71,448.1a3.08,3.08,0,0,1-3.13,2.86c-.75,0-1.24-.37-1.89-1.51a13.72,13.72,0,0,0-7.07-6.48c-.49-.21-.54-.27-.54-.43,0-.38,1.62-.7,3.4-.7C447.18,441.84,451.71,444.92,451.71,448.1Zm-9.45,11.56c.33,1.08,1.25,1.46,3.57,1.46,2.81,0,7.18-2.11,13.28-6.38a88.9,88.9,0,0,0,20-19.49c.54-.76.7-.92,1-.92s.33.22.33.43c0,.6-.6,1.84-2.21,4.86a70.39,70.39,0,0,1-10.37,13.67,102,102,0,0,1-17.5,13.17,8.14,8.14,0,0,0-1.08.7c-.86.71-1,.81-1.46.81-.86,0-2.37-1-4.32-2.91a5.77,5.77,0,0,1-2.05-3.94c0-.87.32-1.52.76-1.46h.1ZM458.09,438a3,3,0,0,1-3.24,2.92c-1.14,0-1.46-.27-2.33-1.89a12.5,12.5,0,0,0-7.72-6.05c-.38-.11-.48-.22-.48-.38,0-.49,2.37-1,4.69-1C453.87,431.58,458.09,434.55,458.09,438Zm16.63-7.13a2.09,2.09,0,0,1-2.27,2.11c-.92,0-1.13-.22-1.94-1.68A8.42,8.42,0,0,0,466,427.2c-.37-.1-.48-.21-.48-.43s.54-.43,1.89-.43C471.21,426.34,474.72,428.5,474.72,430.82Zm6.75-3.35a2.26,2.26,0,0,1-2.38,2.16c-.91,0-1.08-.16-1.83-1.4a9.56,9.56,0,0,0-5.13-4.16c-.33-.05-.44-.16-.44-.38s.81-.54,2.54-.54C478,423.15,481.47,425.21,481.47,427.47Z" transform="translate(-308.4 -278.72)" fill="#333"/><path d="M521.32,456.31a24.29,24.29,0,0,1-9.72,10.75,27.08,27.08,0,0,1-6.75,2.53.36.36,0,0,1-.38-.32c0-.27.16-.38,1-.81,7.89-3.89,13-13,14.21-25-6.11,1-7.83,1.4-11.13,2.59a11.55,11.55,0,0,1-3.45.86c-2.49,0-5.4-3.18-5.4-5.94a.39.39,0,0,1,.43-.43c.16,0,.27.06.48.38.71.92,2.33,1.35,5,1.35,2.16,0,3.67-.16,14.25-1.3.06-1.67.11-2.53.11-3.29,0-6.59-.76-8.91-3.13-9.4-.54-.1-.7-.16-.7-.32,0-.59,2.48-1.62,3.83-1.62,1.84,0,6,2.75,6,3.94a1.37,1.37,0,0,1-.22.6,3,3,0,0,0-.43,1.13c-.11,1-.27,4-.43,8.26,6.59-.81,7.77-1.08,9.88-2.21,1.46-.76,1.78-.92,2.11-.92a10.49,10.49,0,0,1,4,2c1.41,1.08,2,1.78,2,2.37A1.54,1.54,0,0,1,541.3,443c-.32,0-.81-.06-1.24-.11a45.21,45.21,0,0,0-7-.54c-2.16,0-4.48.11-8.43.48C523.81,449.61,523.05,452.58,521.32,456.31Z" transform="translate(-308.4 -278.72)" fill="#333"/><path d="M577.86,443.94A40.72,40.72,0,0,1,569,461.12a29.45,29.45,0,0,1-8.64,6.48,5.4,5.4,0,0,1-1.57.54.43.43,0,0,1-.43-.38c0-.16.16-.33.76-.76a31.46,31.46,0,0,0,10.69-14.58c1.83-4.8,2.75-8.69,2.75-11.39,0-2.11-.81-3.62-2.32-4.27-.22-.11-.38-.21-.38-.38,0-.43,1-.91,2-.91a7.49,7.49,0,0,1,4.16,1.72c1.51,1.14,2.81,2.76,2.81,3.51a2.45,2.45,0,0,1-.22.76,8.29,8.29,0,0,0-.38,1.19Zm4.91,6.16c0-10.31,0-13.12-.37-14a2.23,2.23,0,0,0-1.36-1.67c-.43-.11-.54-.17-.54-.38,0-.43,1.84-1.24,2.76-1.24s1.62.32,3.89,2.1c1,.81,1.56,1.46,1.56,1.95a3.67,3.67,0,0,1-.48,1.35,4.37,4.37,0,0,0-.54,1.67c-.11,1.08-.27,2.59-.54,6.59-.27,3.78-.49,6.37-.49,6.75,0,.54-.11,1-.11,1.29,0,.71.22,1.14.6,1.14,1,0,3.78-1.3,5.94-2.76a55.28,55.28,0,0,0,10.1-8.85,53.7,53.7,0,0,0,5.4-7.35c.27-.54.43-.7.7-.7a.42.42,0,0,1,.43.38c0,1-2.86,6.37-5.18,9.72a52.07,52.07,0,0,1-16.15,14.85c-.81.49-1.3.81-1.51.92l-.76.59a1.4,1.4,0,0,1-.81.33,2.16,2.16,0,0,1-1.46-.92,9.35,9.35,0,0,1-2-3.51l.87-3Z" transform="translate(-308.4 -278.72)" fill="#333"/><path d="M660.86,454.42a2.75,2.75,0,0,1-2.7,2.86c-1,0-1.35-.32-2.59-2.16a31.78,31.78,0,0,0-4.16-5.29c-5.4,6.64-9.62,10.31-15.07,13.45-3.19,1.78-9.34,4.32-10.53,4.32a.48.48,0,0,1-.43-.49c0-.27.21-.43,1.62-1.13,7.23-3.84,14.69-10.64,21.06-19.28-3.89-3.57-6.48-5.24-10-6.43-.92-.27-1.19-.43-1.19-.75s.38-.49.92-.49c3.5,0,8.42,1.57,12.52,4.05,2.16-4.32,3.3-7.88,3.3-10.15a4.76,4.76,0,0,0-1.51-3.78c-.11-.11-.17-.16-.17-.22,0-.27.44-.54.76-.54a9.94,9.94,0,0,1,4.59,2.11c1.78,1.35,3.4,3.35,3.4,4.16,0,.37-.16.59-.75,1s-.65.6-1.35,2.05a63.39,63.39,0,0,1-4.38,8C658.81,449.24,660.86,451.88,660.86,454.42Z" transform="translate(-308.4 -278.72)" fill="#333"/><path d="M687.75,454.74c.81.92,3,1.46,6,1.46,2.86,0,12-.86,22.36-2.16a22.68,22.68,0,0,0,8.37-2.1,5.06,5.06,0,0,1,1.46-.38c.59,0,1.67.59,4.15,2.37,1.41,1,2,1.84,2,2.87,0,.81-.64,1.35-1.62,1.35a20.41,20.41,0,0,1-2.16-.22,45.69,45.69,0,0,0-8.31-.65c-10.16,0-19.82,1.3-25.33,3.35a6.37,6.37,0,0,1-2.16.54c-2.38,0-5.78-3.73-5.78-6.37a.49.49,0,0,1,.49-.49C687.37,454.31,687.42,454.37,687.75,454.74Zm33.16-16.68c0,.86-.71,1.19-3.62,1.62-3.62.54-4.92.7-7.78,1.24-5.18.92-6,1-7.45,1-1.95,0-3.13-.81-4.59-3a4.47,4.47,0,0,1-1-2,.24.24,0,0,1,.27-.21c.05,0,.11.05.37.21a10.57,10.57,0,0,0,4.49,1.14,54.52,54.52,0,0,0,9.5-1.41c1.3-.37,1.3-.37,4.16-1.94C718.47,435.14,720.91,436.6,720.91,438.06Z" transform="translate(-308.4 -278.72)" fill="#333"/><path d="M774,447.62c0-.76-.38-1.25-.92-1.25a20.26,20.26,0,0,0-6.16,1.89c-2.43,1-3.18,1.25-3.89,1.25a3.17,3.17,0,0,1-1.89-.71,3.53,3.53,0,0,1-1.72-3.34c0-.87.21-1.25.64-1.25.22,0,.22,0,.6.65a2.88,2.88,0,0,0,2.37,1,52,52,0,0,0,8.59-1.57A15.1,15.1,0,0,0,774.8,443c.59-.38.75-.43,1-.43s.38,0,2.75,1.73c1.68,1.19,2,1.51,2,2s-.22.64-1.35,1.62c-1.29,4.32-1.78,6.37-2.75,10.8,1.4-.17,2.7-.27,3.13-.33a19.38,19.38,0,0,0,6.05-1.24,2.58,2.58,0,0,1,.75-.16c1.35,0,4.38,2.86,4.38,4.1,0,.65-.7,1.19-1.62,1.19a9.54,9.54,0,0,1-1.57-.27,58,58,0,0,0-9.88-.86,88.58,88.58,0,0,0-13.28,1.29,15.37,15.37,0,0,0-3.68,1.14,7.38,7.38,0,0,1-3,.91,7.28,7.28,0,0,1-3.4-1.45c-1.08-.87-1.46-1.3-1.46-1.89,0-.87.33-1.62.65-1.62.11,0,.11,0,.27.27.27.48,1.84.91,3.51.91.54,0,.54,0,4.54-.43,3.72-.43,6.8-.81,7.18-.81,1.13-.11,2.32-.27,3.51-.38A98.14,98.14,0,0,0,774,447.62Z" transform="translate(-308.4 -278.72)" fill="#333"/><path d="M856.82,449c0,1.08-1.08,1.78-2.75,1.78-.49,0-2.22-.16-4.54-.38-1.13-.11-2.75-.16-4.75-.16-13.5,0-21.49.75-25.54,2.37a2.1,2.1,0,0,1-.76.17,9.6,9.6,0,0,1-4.64-1.79,5,5,0,0,1-2-4.37c0-1,.27-1.51.81-1.51.17,0,.27.11.54.54.81,1.35,2.6,1.83,6.92,1.83,4.1,0,17.55-.81,21.27-1.24a42.28,42.28,0,0,0,8.59-1.83C854.55,445.29,856.82,446.86,856.82,449Z" transform="translate(-308.4 -278.72)" fill="#333"/><path d="M884.31,428.88a.64.64,0,0,1-.27.05c-.11,0-.27-.11-.27-.21,0-.49,2.21-1.41,3.4-1.41,2.54,0,5.89,2.22,5.89,3.89a55.51,55.51,0,0,1-1.62,8.05,15.1,15.1,0,0,1,3.89-.6c4.42,0,6.85,3.19,6.85,8.91,0,6.37-1.45,13-3.61,16.2a9.49,9.49,0,0,1-7.46,4.32c-1.29,0-1.62-.32-1.73-1.83a12,12,0,0,0-2.69-6.59c-.44-.49-.54-.65-.54-.81a.4.4,0,0,1,.37-.33c.17,0,.17,0,1.57,1.08,2.91,2.49,3.24,2.7,4,2.7,1.14,0,2.38-1.13,3.08-2.91a39,39,0,0,0,2.54-13.77c0-3.3-.92-4.81-2.91-4.81a13.13,13.13,0,0,0-4,1,116.24,116.24,0,0,1-9.61,22.79,11,11,0,0,1-1.95,2.81,4.39,4.39,0,0,1-2.7.92,2.59,2.59,0,0,1-2.81-2.38c0-.81.28-1.24,1.9-3,4.1-4.26,8.37-12.15,10.69-19.65-2.81,1.35-3.4,1.62-5.4,2.64-1.84.92-2.38,1.08-3.08,1.08-2.05,0-3.73-2.27-3.73-5.07,0-.92.22-1.62.54-1.62s.27.05.44.64c.26.81,1.62,1.52,2.86,1.52,1.51,0,4.21-.65,9-2.11a34.18,34.18,0,0,0,.8-7.07c0-2.76-1.24-4.43-3.23-4.43Zm28,2a2.28,2.28,0,0,1-2.37,2.1c-.92,0-.92,0-2.11-1.89a7.73,7.73,0,0,0-4.1-3.13c-.6-.16-.76-.32-.76-.54,0-.38,1-.65,2.32-.65C908.83,426.77,912.28,428.77,912.28,430.88ZM910,451.07c-.48.06-.86.11-1.08.11a.43.43,0,0,1-.43-.43c0-.22.16-.33.54-.43a36.61,36.61,0,0,0,4.92-1.84c1-.43,1.4-1,1.4-1.73,0-1.29-1-3.29-2.43-5.07a11.59,11.59,0,0,0-6.7-4.32c-.59-.06-.7-.17-.7-.44s.76-.59,2.16-.59c7.18,0,13.29,5.89,13.29,12.8,0,2.59-1.14,4.26-2.92,4.26-.54,0-.81-.16-1.46-.7-1.4-1.35-2.48-1.67-5.34-1.67A7.61,7.61,0,0,0,910,451.07ZM919.68,428a2.36,2.36,0,0,1-2.38,2.11c-.86,0-1.13-.16-1.94-1.57a9.05,9.05,0,0,0-4.48-3.61c-.7-.22-.81-.33-.81-.6s1-.65,2.37-.65C916.12,423.69,919.68,425.8,919.68,428Z" transform="translate(-308.4 -278.72)" fill="#333"/><path d="M410.62,541.81c3.67.22,4.21.27,7.78.32V528.2l5.29,2.54H448.1l2.1-3L455,532.2a1.53,1.53,0,0,1,.48.92.92.92,0,0,1-.59.81l-1.41.64v7.56H454l3-4.53,4.48,4.37a1,1,0,0,1,.32.76c0,.43-.27.81-.59.81h-40c-1.84,0-1.95,0-9.72.27Zm30-35.37a24.39,24.39,0,0,0,3.73,9.29,67.4,67.4,0,0,0,4.75-8.43l4.37,3.35a1.43,1.43,0,0,1,.6,1.19,1,1,0,0,1-.81,1l-1.78.32a54.49,54.49,0,0,1-4.32,5.72c2.37,2.16,6.26,4.27,7.83,4.27.64,0,1.18-.59,1.89-2.21.43-1,1.67-4,1.94-4.7s.49-1.08.76-1.08.43.21.43.65-.16,1.83-.43,4.15a32.64,32.64,0,0,0-.38,3.46c0,.81,0,.81,1.56,2.38a2.26,2.26,0,0,1,.71,1.4c0,1.13-1.19,1.94-2.7,1.94-4.22,0-10.64-3-14.8-7a35.89,35.89,0,0,1-10.42,6.75,25.8,25.8,0,0,1-3.13,1.19.24.24,0,0,1-.27-.21c0-.22.16-.33,1.13-1a38.59,38.59,0,0,0,10.26-9.28,27.48,27.48,0,0,1-5.45-13.18H420.4v5.29h8.2l1.79-2.64,4.59,4.37a1.53,1.53,0,0,1,.48,1.08c0,.43-.21.7-.86.86l-1.41.49a22.47,22.47,0,0,1-2.05,7.88c-1.29,2.65-3.13,4.11-5.18,4.11-1.08,0-1.62-.49-1.62-1.46a2.42,2.42,0,0,1,.05-.54v-.43c0-.92-.05-1-3.08-2.38-1.24-.65-1.29-.7-1.29-.92s.16-.27.43-.27h.38a8.93,8.93,0,0,0,1,.06l2.05.16,1.73,0c1.84,0,2.59-2.16,3.29-9h-8.53c-.49,5.72-.76,7.24-1.84,10a20.79,20.79,0,0,1-5.72,8.32c-1.19,1.13-1.51,1.4-1.89,1.4a.25.25,0,0,1-.22-.27c0-.16.06-.22.38-.76,3.3-5.07,4.7-11.55,4.7-22,0-2.16,0-2.6-.16-7.73l6.05,2.81h14.15a92.74,92.74,0,0,1-1-9.77l5.78.37c.7.06,1.14.44,1.14.87a1.33,1.33,0,0,1-.65,1l-1.3,1a38.2,38.2,0,0,0,.54,6.48h11.34l3.89-4.21,4.86,4.21a.89.89,0,0,1,.32.76c0,.38-.16.7-.43.7Zm-11.88,35.69V532.2H423v9.93Zm9.88,0V532.2h-5.34v9.93Zm9.45-45c2.43.81,3.78,2.27,3.78,4.05a2.71,2.71,0,0,1-2.64,2.76c-1.24,0-1.89-.6-2.7-2.43a8.86,8.86,0,0,0-3.78-4.32c-.27-.17-.38-.33-.38-.49s.27-.38.7-.38A19.58,19.58,0,0,1,448,497.15Zm.65,45V532.2h-5.56v9.93Z" transform="translate(-308.4 -278.72)" fill="#333"/><path d="M493.78,521.94a14.09,14.09,0,0,0,.54,3.45,4.72,4.72,0,0,1,.22,1.25,2.85,2.85,0,0,1-2.43,2.7c-2.54,0-4.59-4.92-4.59-11.07A45.1,45.1,0,0,1,489,507.79a34,34,0,0,0,1.18-7.61c0-2.54-.81-3.78-2.75-4.06-.33-.05-.43-.16-.43-.32,0-.38,1.35-.81,2.64-.81,3.08,0,6.65,2.81,6.65,5.24,0,.92-.22,1.46-1.95,4.91-2,4-3,7.08-3,9.4,0,1,.27,1.94.65,1.94s.76-.37,1.13-1.18c3.19-6.81,6.48-10,10.16-10,5.13,0,8.53,5.94,8.53,14.85,0,8.43-3.3,15.07-9.67,19.55a33.81,33.81,0,0,1-9,4.32c-.64.16-1.08.27-1.18.32a2.11,2.11,0,0,1-.71.17.36.36,0,0,1-.37-.33c0-.27.05-.27.86-.65a31.22,31.22,0,0,0,9.23-6.8c3.46-3.83,5.19-9.34,5.19-16.42,0-7.56-1.68-12.25-4.38-12.25C498.05,508,493.78,515.46,493.78,521.94Z" transform="translate(-308.4 -278.72)" fill="#333"/><path d="M557.82,502.82a9.89,9.89,0,0,0,5.89,2.7,1.15,1.15,0,0,1,1.24,1.3,3.37,3.37,0,0,1-1.83,2.91,41.84,41.84,0,0,1-7.29,3.68c-2.11,8.69-4.22,16.25-6.48,23.27-.87,2.81-1.35,3.89-2.11,4.7a3.48,3.48,0,0,1-2.43,1.08c-1.73,0-3.56-1.68-3.56-3.19,0-.59.21-1,1-2.16,3.89-5.94,6.91-13.28,9.34-22.57a26.25,26.25,0,0,1-6.43.86,5,5,0,0,1-4.15-2,8.52,8.52,0,0,1-1.62-4.49c0-.27.1-.43.27-.43s.21.06.54.65c.54,1.13,2.53,1.94,4.75,1.94a27.09,27.09,0,0,0,7.5-1,36.17,36.17,0,0,0,.92-7.67c0-1.94-.48-3.08-1.56-3.73a4.25,4.25,0,0,0-1.35-.48h-.11a.36.36,0,0,1-.22.05c-.16,0-.32-.11-.32-.21,0-.6,2.05-1.57,3.29-1.57,2.33,0,5.56,2.05,5.56,3.51a2.66,2.66,0,0,1-.32,1,4.14,4.14,0,0,1-.22.48l-.1.65-.11.54ZM557,505.9l-.64,3.08c2.1-.7,3.88-1.68,3.88-2.11s-1.29-1.73-2.8-2.81Zm21.93,28.62c2.27,0,3.67,1.24,3.67,3.19,0,2.32-1.51,3.07-6.1,3.07a27.4,27.4,0,0,1-9.51-1.4,8.77,8.77,0,0,1-5.88-8.59c0-2.32,1.35-5.94,2.21-5.94a.3.3,0,0,1,.27.33.64.64,0,0,1-.05.27,18.14,18.14,0,0,0-.43,3.51c0,4.16,3.18,6.26,9.34,6.26ZM565.6,515.19a.2.2,0,0,1-.16,0c-.11,0-.27-.11-.27-.21,0-.44,1-1.57,2-2.22a12.75,12.75,0,0,1,6.53-1.62c4.65,0,8,2.43,8,5.67,0,1.19-.54,1.78-1.51,1.78a8.56,8.56,0,0,1-1-.21,15.12,15.12,0,0,0-3.34-.38,13.79,13.79,0,0,0-5.3,1c-.54.22-.59.22-.64.22a.35.35,0,0,1-.33-.27c0-.16.11-.33.43-.49.06-.05.81-.54,2.27-1.56,1.84-1.19,1.84-1.19,1.84-1.46,0-.65-1.84-1.3-3.67-1.3A10.52,10.52,0,0,0,565.6,515.19Zm12-10.69a2.1,2.1,0,0,1-2.11,2.21c-.81,0-1.19-.27-1.62-1.24-.91-2-3.07-4.11-4.64-4.59-.49-.16-.6-.27-.6-.49,0-.38.49-.48,1.9-.48C574.19,499.91,577.59,502.12,577.59,504.5Zm6-4.05a2.06,2.06,0,0,1-2.11,2.16c-1.08,0-1.13,0-2.27-1.89a7.94,7.94,0,0,0-4.37-3.51c-.43-.11-.6-.27-.6-.49s1-.49,2.54-.49C580.24,496.23,583.64,498.34,583.64,500.45Z" transform="translate(-308.4 -278.72)" fill="#333"/><path d="M628.51,497.91c1.73,1.13,2.92,2.75,2.92,4,0,1-.22,1.25-2.81,3.46-10.1,8.59-11.93,10.58-11.93,13.39,0,2.22,1.08,3.62,7.34,9.56a36.37,36.37,0,0,1,5.89,6.64c1.78,2.49,2.75,4.65,2.75,6.1a3.36,3.36,0,0,1-3.19,3.57c-1.73,0-2.86-1-3.56-3.08-2.27-6-4.32-9.45-9-14.85a22.23,22.23,0,0,1-3.25-4.21,7.77,7.77,0,0,1,.38-7.94c.54-.86.54-.86,5.29-7.07,3.3-4.11,3.3-4.11,3.79-5a4.93,4.93,0,0,0,.75-2.32,3.14,3.14,0,0,0-2.43-3c-.49-.11-.59-.17-.59-.44,0-.43,1.4-.81,2.91-.81C625,496,626.51,496.56,628.51,497.91Z" transform="translate(-308.4 -278.72)" fill="#333"/><path d="M687,500c-1.29,0-2.26.71-2.26,1.57a2.11,2.11,0,0,0,.75,1.4l4.7,5.51c2.86-1.4,4.91-3.18,4.91-4.32,0-.27-.54-.86-1.45-1.51-.27-.16-.38-.27-.38-.43a.24.24,0,0,1,.21-.22.38.38,0,0,1,.22.06,15,15,0,0,0,3.78.75c.22,0,.22,0,1.51-.11a2,2,0,0,1,.49,0,2.14,2.14,0,0,1,2.16,1.94c0,1.84-4,5.08-8.86,7.19,7.72,8.31,10.05,11.82,10.05,15.28s-1.19,5-3.57,5a2.08,2.08,0,0,1-1.83-.81,30.2,30.2,0,0,0-6.7-4.7,17.53,17.53,0,0,0-6.86-1.78c-4.59,0-7.34,2.59-7.34,6.75,0,3.67,4.05,5.72,11.18,5.72a8.91,8.91,0,0,0,2.86-.32,6.07,6.07,0,0,1,1.35-.22,3.85,3.85,0,0,1,3.29,3.41c0,1.45-2.81,2.59-6.48,2.59-4.37,0-9-1.08-11.5-2.65a9.28,9.28,0,0,1-4.48-7.77c0-5.46,4.59-9.18,11.34-9.18a22.59,22.59,0,0,1,11,2.64,2.53,2.53,0,0,0,.92.33.4.4,0,0,0,.43-.44c0-2.7-2-6.64-6.43-12.63a36.61,36.61,0,0,1-12.15,2.48c-3.89,0-6.85-1.67-8.37-4.75a7.36,7.36,0,0,1-.7-1.94.25.25,0,0,1,.16-.22.29.29,0,0,1,.27.16c1.73,1.84,3.84,2.54,7.62,2.54a32.68,32.68,0,0,0,10.31-1.73c-3-3.45-3.62-4.05-6.21-5.78-2-1.35-2.21-1.62-2.21-2.53,0-1.95,2.27-4.05,4.42-4.05,1.46,0,5.19,1.94,5.19,2.64,0,.16-.16.27-.38.27a3.15,3.15,0,0,1-.54-.11Z" transform="translate(-308.4 -278.72)" fill="#333"/><path d="M757,522.59a18.07,18.07,0,0,1-.32,3c-.92,5.62-1.08,6.86-1.08,8.15,0,2.38.92,3.35,3,3.35,4.86,0,9.83-3.72,12.31-9.29.11-.21.22-.32.38-.32s.33.16.33.43a18.32,18.32,0,0,1-2.27,6.54,13.48,13.48,0,0,1-11.78,6.85c-4.26,0-7.12-2.91-7.12-7.34a79,79,0,0,1,1.19-9.34c.1-.92.21-1.73.21-2.27a3,3,0,0,0-3.19-3.13c-4.59,0-9.34,3.78-11.88,9.45a33.07,33.07,0,0,0-2.8,11.18c-.16,1.56-.22,1.94-.6,2.48a2,2,0,0,1-1.4.76,4.61,4.61,0,0,1-2.21-1.08A4.17,4.17,0,0,1,728.2,539c0-2,2.21-8.16,5.29-14.64a164.25,164.25,0,0,1,8.8-15.66c2.92-4.37,3.56-5.83,3.56-7.5s-1.08-3.62-2.27-3.73c-.43-.05-.54-.11-.54-.27,0-.32.92-.54,2-.54,3.35,0,7.73,3.4,7.73,6.05,0,1.08-.33,1.57-2,3-4.38,3.89-12,13.77-12,15.56,0,.32.27.64.48.64s.11,0,.92-.7c3.29-3.08,7.13-4.91,10.15-4.91A6.56,6.56,0,0,1,757,522.59Z" transform="translate(-308.4 -278.72)" fill="#333"/><path d="M795.37,536.84a3.73,3.73,0,1,1-3.67-3.72A3.74,3.74,0,0,1,795.37,536.84Zm-4.32-7c-1.13-13-1.73-18.47-2.86-25.27a12,12,0,0,1-.11-1.35,3.49,3.49,0,0,1,3.56-3.78c2.27,0,3.68,1.51,3.68,3.89,0,.65,0,.65-1,7.18-.54,4-1.34,11.45-2,19.33Z" transform="translate(-308.4 -278.72)" fill="#333"/><path d="M817.51,536.84a3.73,3.73,0,1,1-3.67-3.72A3.73,3.73,0,0,1,817.51,536.84Zm-4.32-7c-1.13-13-1.73-18.47-2.86-25.27-.05-.49-.11-1-.11-1.35a3.49,3.49,0,0,1,3.57-3.78c2.26,0,3.67,1.51,3.67,3.89,0,.65,0,.65-1,7.18-.54,4-1.35,11.45-2,19.33Z" transform="translate(-308.4 -278.72)" fill="#333"/></svg>