<svg id="Layer_1" data-name="Layer 1" xmlns="http://www.w3.org/2000/svg" viewBox="0 0 166.92 28.27"><path d="M554.91,327.93A2,2,0,0,1,553,330c-.7,0-1-.23-1.87-1.55a22.64,22.64,0,0,0-3-3.82c-3.89,4.79-6.93,7.44-10.87,9.69-2.29,1.29-6.73,3.12-7.59,3.12a.35.35,0,0,1-.31-.35c0-.19.16-.31,1.17-.82,5.22-2.76,10.59-7.67,15.18-13.9-2.8-2.57-4.67-3.78-7.24-4.63-.66-.2-.86-.31-.86-.55s.28-.35.67-.35a19.3,19.3,0,0,1,9,2.92c1.56-3.11,2.38-5.68,2.38-7.32a3.43,3.43,0,0,0-1.09-2.73c-.08-.07-.12-.11-.12-.15,0-.2.31-.39.54-.39a7.18,7.18,0,0,1,3.31,1.52c1.29,1,2.46,2.41,2.46,3,0,.27-.12.42-.55.74s-.46.42-1,1.48a45.46,45.46,0,0,1-3.16,5.8C553.43,324.19,554.91,326.1,554.91,327.93Z" transform="translate(-529.33 -309.16)" fill="#333"/><path d="M574.31,328.16c.59.66,2.15,1,4.33,1s8.64-.62,16.12-1.55a16.39,16.39,0,0,0,6-1.52,3.65,3.65,0,0,1,1.05-.27c.43,0,1.21.42,3,1.71,1,.7,1.44,1.32,1.44,2.06s-.46,1-1.16,1a14.43,14.43,0,0,1-1.56-.16,33,33,0,0,0-6-.47c-7.32,0-14.29.94-18.26,2.42a4.73,4.73,0,0,1-1.56.39c-1.71,0-4.17-2.69-4.17-4.6a.35.35,0,0,1,.35-.35C574,327.85,574.08,327.89,574.31,328.16Zm23.91-12c0,.62-.5.86-2.61,1.17-2.6.39-3.54.5-5.6.89a28.36,28.36,0,0,1-5.38.74c-1.4,0-2.25-.58-3.31-2.18a3.33,3.33,0,0,1-.7-1.44c0-.08.08-.15.2-.15s.08,0,.27.15a7.54,7.54,0,0,0,3.23.82,39.38,39.38,0,0,0,6.86-1,11.7,11.7,0,0,0,3-1.4C596.47,314,598.22,315.08,598.22,316.13Z" transform="translate(-529.33 -309.16)" fill="#333"/><path d="M636.51,323c0-.54-.27-.89-.66-.89a14.35,14.35,0,0,0-4.44,1.36,8.87,8.87,0,0,1-2.81.9,2.31,2.31,0,0,1-1.36-.51,2.56,2.56,0,0,1-1.24-2.42c0-.62.15-.89.46-.89.16,0,.16,0,.43.47a2.11,2.11,0,0,0,1.71.74,37.86,37.86,0,0,0,6.2-1.13,10.91,10.91,0,0,0,2.29-1c.43-.27.55-.31.7-.31s.28,0,2,1.25c1.21.85,1.44,1.09,1.44,1.44s-.15.47-1,1.17c-.94,3.11-1.29,4.59-2,7.78l2.26-.23a14,14,0,0,0,4.36-.89,2,2,0,0,1,.55-.12c1,0,3.15,2.06,3.15,3,0,.47-.5.86-1.17.86a6.71,6.71,0,0,1-1.13-.2,41.76,41.76,0,0,0-7.12-.62,64.5,64.5,0,0,0-9.58.93,11.25,11.25,0,0,0-2.65.82,5.37,5.37,0,0,1-2.14.66,5.22,5.22,0,0,1-2.45-1.05c-.78-.62-1.06-.93-1.06-1.36,0-.63.24-1.17.47-1.17s.08,0,.2.19a3.69,3.69,0,0,0,2.53.67,31.85,31.85,0,0,0,3.27-.32c2.69-.31,4.9-.58,5.18-.58.82-.08,1.67-.19,2.53-.27A71.67,71.67,0,0,0,636.51,323Z" transform="translate(-529.33 -309.16)" fill="#333"/><path d="M696.25,324c0,.77-.78,1.28-2,1.28-.35,0-1.6-.12-3.27-.27-.82-.08-2-.12-3.43-.12-9.74,0-15.5.55-18.42,1.71a1.48,1.48,0,0,1-.55.12,7,7,0,0,1-3.34-1.28,3.63,3.63,0,0,1-1.41-3.16c0-.7.2-1.09.59-1.09.12,0,.19.08.39.39.58,1,1.87,1.33,5,1.33s12.66-.59,15.34-.9a31.41,31.41,0,0,0,6.2-1.32C694.62,321.35,696.25,322.48,696.25,324Z" transform="translate(-529.33 -309.16)" fill="#333"/></svg>