<svg xmlns="http://www.w3.org/2000/svg" width="1548.696" height="158.44" viewBox="0 0 774.348 79.22">
  <defs>
    <style>
      .cls-1 {
        fill: #333;
        fill-rule: evenodd;
      }
    </style>
  </defs>
  <path id="_森_をテーマにした_ここだけのオリジナルメニューがいっぱい" data-name="「森」をテーマにした ここだけのオリジナルメニューがいっぱい" class="cls-1" d="M550.407,1229.28h1.727v-23.57h7.341v-1.69h-9.068v25.26Zm25.625-5.04a28.882,28.882,0,0,1-6.3,8.79,1.778,1.778,0,0,0-.863.93,0.358,0.358,0,0,0,.36.36,7.845,7.845,0,0,0,2.77-1.83,31.246,31.246,0,0,0,4.642-4.93v8.38c0,0.4.108,0.58,0.432,0.58,0.935,0,1.727-.47,1.727-1.01v-8.06a5.838,5.838,0,0,1,2.3,2.16,13.272,13.272,0,0,0,1.115,1.8,1.327,1.327,0,0,0,.756.29,1.309,1.309,0,0,0,1.224-1.3,3.229,3.229,0,0,0-1.836-2.63,12.778,12.778,0,0,0-3.562-1.33v-2.2h5.506a0.459,0.459,0,0,0,.431-0.43,1.14,1.14,0,0,0-.431-0.72l-2.411-1.9-1.656,2.19H578.8v-3.06l0.828-.39a0.939,0.939,0,0,0,.539-0.76,0.765,0.765,0,0,0-.827-0.68l-2.7-.22v5.11h-2.3c-1.007-.04-2.2-0.07-4.822-0.18l0.432,1.15c1.044-.03,1.943-0.03,2.267-0.03,1.116-.04,1.871-0.08,2.2-0.08h1.619Zm6.333-14.61a35.143,35.143,0,0,1-9.463,7.78c-2.339,1.33-2.7,1.58-2.7,1.76a0.315,0.315,0,0,0,.288.29,27.077,27.077,0,0,0,4.678-2.16,44.372,44.372,0,0,0,9.211-6.23v8.5a0.453,0.453,0,0,0,.5.54c0.972,0,1.691-.4,1.691-0.9v-9.08c2.915,3.93,6.621,6.59,12.235,8.82a6.985,6.985,0,0,1,2.447-2.77c-6.19-1.08-10.328-3.02-14.07-6.55H599.6c0.4,0,.576-0.14.576-0.43a1.083,1.083,0,0,0-.468-0.69l-2.555-2.01-1.943,2.27h-8.636v-2.59l0.864-.69a0.829,0.829,0,0,0,.288-0.65c0-.39-0.252-0.57-0.756-0.61l-2.591-.11v4.65h-5.937c-0.611,0-1.8-.04-3.562-0.11-0.54,0-1.871-.04-3.526-0.11l0.539,1.26c1.4-.04,2.7-0.04,3.131-0.07,1.907-.07,3.2-0.11,3.418-0.11h3.922Zm8.888,14.61a49.7,49.7,0,0,1-7.7,9.36c-1.188,1.01-1.188,1.01-1.188,1.16a0.345,0.345,0,0,0,.288.32c0.36,0,1.727-.97,3.743-2.63a48.14,48.14,0,0,0,5.5-5.4v8.89a0.421,0.421,0,0,0,.468.51c1.079,0,1.619-.25,1.619-0.76v-9.57a19.361,19.361,0,0,0,6.225,7.92,5.872,5.872,0,0,1,2.447-2.27c-4.318-1.91-7.449-4.68-8.6-7.53h7.376a0.433,0.433,0,0,0,.468-0.46,0.856,0.856,0,0,0-.4-0.65l-2.554-1.94-1.908,2.19h-3.058v-2.88l1.007-.57a0.923,0.923,0,0,0,.468-0.69,0.661,0.661,0,0,0-.611-0.5l-2.951-.18v4.82h-1.044c-1.043,0-1.223,0-4.821-.14l0.36,1.11Zm29.116-13.1h-1.727v23.58H611.3v1.69h9.068v-25.27Zm48.906,12.02a0.709,0.709,0,0,1,.072-0.28,18.458,18.458,0,0,1,3.094-5.44,6.593,6.593,0,0,1,4.39-2.37,2.078,2.078,0,0,1,2.087,1.72,1.884,1.884,0,0,1-.683,1.23c-0.432.36-.432,0.36-4.426,2.59C670.354,1222.52,670.354,1222.52,669.275,1223.16Zm-0.4-2.05a5.8,5.8,0,0,0-.936-2.05,3.23,3.23,0,0,0-2.554-1.19,5.719,5.719,0,0,0-2.3.62,39.7,39.7,0,0,0,3.958-7.38c3.382-.98,4.03-1.26,4.03-1.7,0-.25-0.36-0.5-1.511-1.08a4.759,4.759,0,0,1-2.231,1.16,4.082,4.082,0,0,0,.288-1.3,2.433,2.433,0,0,0-2.3-2.05c-0.648,0-1.8.54-1.8,0.86a0.122,0.122,0,0,0,.143.15,1.663,1.663,0,0,1,1.656,1.87,6.032,6.032,0,0,1-.108.97,8.854,8.854,0,0,1-3.167.58,2.271,2.271,0,0,1-2.051-.94,0.318,0.318,0,0,0-.18-0.14,0.157,0.157,0,0,0-.108.14,4.81,4.81,0,0,0,.54,1.33,2.082,2.082,0,0,0,1.763,1.23,11.756,11.756,0,0,0,3.023-.58c-0.612,3.17-2.987,6.66-6.657,9.79a1.508,1.508,0,0,0-.828,1.26c0,0.86.684,2.02,1.188,2.02a1.573,1.573,0,0,0,1.151-.98c1.727-2.84,4.066-5,5.434-5a1.766,1.766,0,0,1,1.619,1.19,12.763,12.763,0,0,1,.432,4.39c-2.2,1.3-2.2,1.3-2.771,1.69-2.123,1.44-3.059,2.74-3.059,4.25a4.072,4.072,0,0,0,2.375,3.49,11.4,11.4,0,0,0,5.65,1.05c4.713,0,6.98-.58,6.98-1.73a1.863,1.863,0,0,0-1.655-1.41,3.043,3.043,0,0,0-.9.18,19.078,19.078,0,0,1-5.074.62c-4.03,0-5.685-.69-5.685-2.42,0-1.54,1.151-2.88,4.174-4.71a26.821,26.821,0,0,1-.144,3.71,1.118,1.118,0,0,0-.036.28c0,0.22.216,0.36,0.612,0.36,1.367,0,1.727-.46,1.727-2.16,0-.46-0.036-1.33-0.18-3.2a64.208,64.208,0,0,1,7.376-3.35c3.167-1.26,3.419-1.36,4.138-1.9a2.073,2.073,0,0,0,.9-1.84c0-1.87-1.871-3.31-4.354-3.31a8.358,8.358,0,0,0-6.009,3.09A16.006,16.006,0,0,0,668.879,1221.11Zm34.369-11.23a0.163,0.163,0,0,0-.144.18,4.63,4.63,0,0,0,.648,1.33,2.472,2.472,0,0,0,2.267,1.3,27.852,27.852,0,0,0,5.181-.86c0.792-.18,1.368-0.33,1.584-0.36,0.611-.11,1.259-0.22,1.871-0.36,2.051-.44,2.051-0.44,2.051-0.9a0.893,0.893,0,0,0-.54-0.72,9.312,9.312,0,0,0-2.231-.8,2.437,2.437,0,0,0-1.008.36,20.982,20.982,0,0,1-7.52,1.7,2.1,2.1,0,0,1-1.943-.69A0.253,0.253,0,0,0,703.248,1209.88Zm0.36,7.09c-2.591.22-2.591,0.22-2.843,0.22a3.471,3.471,0,0,1-2.159-.86,0.5,0.5,0,0,0-.36-0.26,0.221,0.221,0,0,0-.18.26,2.348,2.348,0,0,0,.54,1.51,3.7,3.7,0,0,0,2.591,1.47,4.463,4.463,0,0,0,1.367-.28,41.658,41.658,0,0,1,7.809-1.62,1.54,1.54,0,0,1,.431,1.22,14.78,14.78,0,0,1-1.763,5.54,21.135,21.135,0,0,1-6.369,7.53,18.661,18.661,0,0,1-2.95,1.69c-0.216.07-.252,0.14-0.252,0.25a0.28,0.28,0,0,0,.288.25,20.637,20.637,0,0,0,4.03-1.55,21.023,21.023,0,0,0,9.607-12.31c0.684-.79.72-0.82,0.72-1,0-.33-0.72-0.9-2.231-1.77,1.763-.14,4.03-0.29,4.678-0.29a39.608,39.608,0,0,1,4.426.4,5.6,5.6,0,0,0,.9.11,1.018,1.018,0,0,0,.972-0.97c0-.62-2.375-1.98-3.419-1.98a0.82,0.82,0,0,0-.575.21c-1.44.72-3.491,1.05-12.666,1.95Zm54.807,4.79c1.152,0,4.462.07,5.11,0.11,0.612,0.04,1.043.04,1.259,0.04,1.116,0,1.8-.33,1.8-0.83a2.243,2.243,0,0,0-.9-1.3,2.338,2.338,0,0,0-1.8-.75,9.093,9.093,0,0,0-.972.07,162,162,0,0,1-19.934,1.44c-2.016,0-2.807-.33-3.311-1.37a0.326,0.326,0,0,0-.288-0.25,0.319,0.319,0,0,0-.252.39,9.214,9.214,0,0,0,.252,1.95,4.13,4.13,0,0,0,3.023,1.87,7.268,7.268,0,0,0,1.583-.25A94.248,94.248,0,0,1,758.415,1221.76Zm44.408-2.73a15.254,15.254,0,0,1,1.3-.9,7.4,7.4,0,0,1,2.231-1.01c0.791-.15,1.007-0.33,1.007-0.79a1.7,1.7,0,0,0-.935-1.34c-2.087-1.54-2.7-1.87-3.419-1.87a4.209,4.209,0,0,0-1.367.33c-1.295.36-1.691,0.43-7.448,1.11a107.012,107.012,0,0,1-10.759,1.08,2.944,2.944,0,0,1-2.591-1.26c-0.072-.18-0.108-0.21-0.216-0.21-0.144,0-.252.25-0.252,0.68a3.635,3.635,0,0,0,.828,2.34,4.178,4.178,0,0,0,2.339,1.19,1.808,1.808,0,0,0,.719-0.15,40.6,40.6,0,0,1,5.829-1.72,61.194,61.194,0,0,1,9.212-1.23c1.619,0,2.411.29,2.411,0.87,0,0.97-3.562,4.78-6.945,7.45a16.515,16.515,0,0,0-3.238-1.73,13.3,13.3,0,0,0-2.951-.9,0.342,0.342,0,0,0-.324.29,0.665,0.665,0,0,0,.324.29,14.7,14.7,0,0,1,6.765,6.87c0.612,1.33.864,1.58,1.583,1.58a1.3,1.3,0,0,0,1.4-1.15c0-1.37-1.08-3.09-2.987-4.71a24.67,24.67,0,0,0,3.2-2.05Zm42.07-7.28a1.084,1.084,0,0,0-.576.18,16.192,16.192,0,0,1-6.225,1.34,3.4,3.4,0,0,1-2.879-1.08,0.238,0.238,0,0,0-.215-0.18,0.163,0.163,0,0,0-.18.14,2.077,2.077,0,0,0,.287.76,5.2,5.2,0,0,0,4.606,2.12,51.067,51.067,0,0,0,5.937-.43c0.9-.11,1.368-0.43,1.368-0.87A2.892,2.892,0,0,0,844.893,1211.75Zm-9.5,11.31a0.2,0.2,0,0,0-.216-0.15c-0.431,0-.719.94-0.719,2.41a5.309,5.309,0,0,0,2.483,4.54c1.295,0.79,3.886,1.26,7.052,1.26,3.455,0,5.29-.68,5.29-1.94a1.491,1.491,0,0,0-1.619-1.44,4.24,4.24,0,0,0-1.26.25,19.01,19.01,0,0,1-4.822.65c-4.21,0-6.333-1.48-6.333-4.36a3.147,3.147,0,0,1,.144-1.12v-0.1Zm-7.844,4.46c-0.252.76-.432,1.01-0.792,1.01-0.575,0-1.007-1.62-1.007-3.96a18.4,18.4,0,0,1,1.727-7.42c1.439-3.63,1.547-3.99,1.547-5.11a4.046,4.046,0,0,0-1.619-3.27,4.227,4.227,0,0,0-2.051-.94c-0.144,0-.216.04-0.216,0.11a0.217,0.217,0,0,0,.144.18,3.563,3.563,0,0,1,1.116,2.95,16.961,16.961,0,0,1-.684,4.1c-1.188,5.15-1.547,7.38-1.547,9.61,0,4.79,1.907,9.4,3.85,9.4a1.193,1.193,0,0,0,1.079-1.3,1.615,1.615,0,0,0-.144-0.61,5.155,5.155,0,0,1-.395-2.05,33.3,33.3,0,0,1,1.835-8.96,0.4,0.4,0,0,0,.036-0.18,0.347,0.347,0,0,0-.288-0.33c-0.18,0-.18,0-1.511,3.53Zm62.436-1.15a0.584,0.584,0,0,0-.4.36,15.914,15.914,0,0,1-2.915,2.81,13.065,13.065,0,0,1-7.592,2.77c-4.318,0-6.225-2.16-6.225-7.02a71.326,71.326,0,0,1,1.475-11.84,9.891,9.891,0,0,0,.5-2.63c0-2.13-1.691-4.14-3.454-4.14-0.792,0-1.512.32-1.512,0.68,0,0.11.108,0.18,0.324,0.18,1.188,0,1.691.94,1.691,3.13,0,0.44,0,.44-0.216,3.35-0.683,8.96-.719,9.43-0.719,11.48,0,3.17.611,5.19,2.087,6.74a7.61,7.61,0,0,0,5.757,2.19,12.416,12.416,0,0,0,9.464-4.53c1.151-1.34,1.979-2.63,1.979-3.24A0.276,0.276,0,0,0,889.985,1226.37Zm26.309-12.1c0.18-.82.18-1,0.287-1.54,0.144-.8.252-1.3,0.288-1.48a4.629,4.629,0,0,1,.144-0.58c1.548,1.19,2.015,1.62,2.015,1.88C919.028,1212.87,917.733,1213.66,916.294,1214.27Zm-3.491-6.12a3.944,3.944,0,0,1,.612-0.03c1.187,0,1.619.5,1.619,1.91a25.522,25.522,0,0,1-.54,4.78,20.148,20.148,0,0,1-5.253,1.05,3.061,3.061,0,0,1-2.915-1.51,0.383,0.383,0,0,0-.288-0.26,0.187,0.187,0,0,0-.143.22,3.763,3.763,0,0,0,3.418,3.6,17.8,17.8,0,0,0,4.786-1.22c-1.188,5.43-3.959,12.77-5.722,15.19a2.859,2.859,0,0,0-.611,1.51,1.559,1.559,0,0,0,1.691,1.37c0.971,0,1.511-.69,2.2-2.78a129.162,129.162,0,0,0,4.318-15.94c4.282-1.73,5.649-2.63,5.649-3.67a0.572,0.572,0,0,0-.5-0.62,0.358,0.358,0,0,0-.18.04h-0.18c-0.683,0-1.691-.43-3.634-1.55,0.18-.83.324-1.29,0.468-1.76a1.627,1.627,0,0,0,.072-0.36c0-.58-1.547-1.37-2.591-1.37-0.863,0-2.519.86-2.519,1.3a0.164,0.164,0,0,0,.144.1H912.8Zm14.214,7.35a6.919,6.919,0,0,0-4.21,1.33,2.044,2.044,0,0,0-.576.68,0.19,0.19,0,0,0,.18.15,0.332,0.332,0,0,0,.216-0.11,5.49,5.49,0,0,1,2.878-.72c1.476,0,2.951.47,2.951,0.9,0,0.18-.216.32-1.332,0.9a5.6,5.6,0,0,0-1.8,1.15,0.234,0.234,0,0,0,.18.18,0.317,0.317,0,0,0,.144-0.03,10.176,10.176,0,0,1,3.491-.83,4.929,4.929,0,0,1,2.015.43,0.552,0.552,0,0,0,.359.11,0.87,0.87,0,0,0,.756-1.01C932.27,1216.97,929.823,1215.5,927.017,1215.5Zm-5.686,8.78c-0.468,0-1.223,2.41-1.223,3.89,0,3.63,2.842,5.36,8.924,5.36,3.094,0,4.174-.39,4.174-1.58a1.458,1.458,0,0,0-1.44-1.37,3.1,3.1,0,0,0-.647.11,13.752,13.752,0,0,1-3.6.36c-4.534,0-6.369-1.15-6.369-4.03a7.623,7.623,0,0,1,.36-2.27,0.7,0.7,0,0,0,.036-0.25A0.234,0.234,0,0,0,921.331,1224.28ZM354.78,1261.34a5.215,5.215,0,0,0-.468.32,12.882,12.882,0,0,0-3.13,2.7,0.235,0.235,0,0,0,.216.25,0.239,0.239,0,0,0,.18-0.1,15.266,15.266,0,0,1,8.852-2.88,3.078,3.078,0,0,0,1.547-.18,0.814,0.814,0,0,0,.324-0.62,2.86,2.86,0,0,0-1.979-2.01,4.283,4.283,0,0,0-.9.18,17.567,17.567,0,0,1-4.462.61c-2.663,0-4.462-.94-5.109-2.59-0.108-.29-0.144-0.33-0.288-0.33a0.31,0.31,0,0,0-.252.36,4.586,4.586,0,0,0,1.763,3.24A7.419,7.419,0,0,0,354.78,1261.34Zm-6.585,7.85a0.426,0.426,0,0,0-.36.32,7.431,7.431,0,0,0-1.007,3.71,5.94,5.94,0,0,0,3.31,5.54c1.907,1.01,4.75,1.48,8.672,1.48a31,31,0,0,0,5.938-.54c1.439-.33,2.015-0.72,2.015-1.34,0-.79-1.3-1.83-2.267-1.83a3.26,3.26,0,0,0-1.332.32,24.146,24.146,0,0,1-6.585.97c-5.721,0-8.636-1.87-8.636-5.54a9.354,9.354,0,0,1,.468-2.84,0.136,0.136,0,0,0,.036-0.11A0.226,0.226,0,0,0,348.2,1269.19Zm48.331-7.85a5.215,5.215,0,0,0-.468.32,12.9,12.9,0,0,0-3.131,2.7,0.235,0.235,0,0,0,.216.25,0.239,0.239,0,0,0,.18-0.1,15.27,15.27,0,0,1,8.852-2.88,3.078,3.078,0,0,0,1.547-.18,0.814,0.814,0,0,0,.324-0.62,2.858,2.858,0,0,0-1.979-2.01,4.268,4.268,0,0,0-.9.18,17.573,17.573,0,0,1-4.462.61c-2.663,0-4.462-.94-5.11-2.59-0.108-.29-0.144-0.33-0.288-0.33a0.31,0.31,0,0,0-.252.36,4.589,4.589,0,0,0,1.763,3.24A7.426,7.426,0,0,0,396.526,1261.34Zm-6.585,7.85a0.426,0.426,0,0,0-.36.32,7.424,7.424,0,0,0-1.008,3.71,5.941,5.941,0,0,0,3.311,5.54c1.907,1.01,4.75,1.48,8.672,1.48a30.985,30.985,0,0,0,5.937-.54c1.439-.33,2.015-0.72,2.015-1.34,0-.79-1.295-1.83-2.267-1.83a3.254,3.254,0,0,0-1.331.32,24.146,24.146,0,0,1-6.585.97c-5.721,0-8.636-1.87-8.636-5.54a9.354,9.354,0,0,1,.468-2.84,0.136,0.136,0,0,0,.036-0.11A0.226,0.226,0,0,0,389.941,1269.19Zm46.459-10.52c1.619,1.26,2.015,1.62,2.015,1.84,0,0.36-1.3,1.15-2.735,1.76,0.252-1.36.5-2.55,0.648-3.31Zm12.486-2.98a1.567,1.567,0,0,0-1.223.25c0,0.07.036,0.11,0.252,0.18a5.858,5.858,0,0,1,3.418,2.77,0.984,0.984,0,0,0,.828.72,1.264,1.264,0,0,0,1.223-1.22C453.384,1257.05,451.117,1255.69,448.886,1255.69ZM445,1257.45c-0.684,0-1.079.07-1.079,0.25,0,0.04.036,0.07,0.18,0.11a5.623,5.623,0,0,1,3.454,2.77c0.324,0.58.432,0.69,0.755,0.69a1.253,1.253,0,0,0,1.188-1.19C449.5,1258.71,447.3,1257.45,445,1257.45Zm-12.81-1.3a3.944,3.944,0,0,1,.612-0.03c1.187,0,1.619.5,1.619,1.87a25.3,25.3,0,0,1-.54,4.82,20.148,20.148,0,0,1-5.253,1.05,3.06,3.06,0,0,1-2.915-1.51,0.383,0.383,0,0,0-.288-0.26,0.188,0.188,0,0,0-.144.22,3.764,3.764,0,0,0,3.419,3.6,18.77,18.77,0,0,0,4.786-1.22c-1.188,5.43-3.959,12.77-5.686,15.19a2.584,2.584,0,0,0-.648,1.51,1.56,1.56,0,0,0,1.692,1.37c0.971,0,1.511-.69,2.195-2.78a134.926,134.926,0,0,0,4.318-15.94c4.282-1.73,5.649-2.63,5.649-3.67a0.572,0.572,0,0,0-.5-0.62,0.358,0.358,0,0,0-.18.04h-0.18c-0.683,0-1.727-.43-3.634-1.55a16.482,16.482,0,0,1,.468-1.76,1.627,1.627,0,0,0,.072-0.36c0-.58-1.547-1.37-2.591-1.37-0.828,0-2.519.86-2.519,1.26a0.153,0.153,0,0,0,.144.14h0.108Zm14.213,7.96a7.085,7.085,0,0,0-4.21,1.33,2.437,2.437,0,0,0-.575.65,0.234,0.234,0,0,0,.18.18,0.328,0.328,0,0,0,.215-0.11,5.592,5.592,0,0,1,2.879-.72c1.475,0,2.951.47,2.951,0.9,0,0.18-.252.36-1.332,0.9a5.544,5.544,0,0,0-1.8,1.15,0.221,0.221,0,0,0,.18.18,0.317,0.317,0,0,0,.144-0.03,10.177,10.177,0,0,1,3.49-.83,4.747,4.747,0,0,1,1.692.29,1.736,1.736,0,0,0,.791.25,0.924,0.924,0,0,0,.684-1.01C451.693,1265.59,449.21,1264.11,446.4,1264.11Zm-5.649,8.17c-0.5,0-1.259,2.41-1.259,3.89,0,3.63,2.842,5.36,8.959,5.36,3.059,0,4.138-.39,4.138-1.58a1.457,1.457,0,0,0-1.439-1.37,3.117,3.117,0,0,0-.648.11,13.743,13.743,0,0,1-3.6.36c-4.57,0-6.369-1.15-6.369-4.03a9.06,9.06,0,0,1,.36-2.27,0.7,0.7,0,0,0,.036-0.25A0.236,0.236,0,0,0,440.754,1272.28Zm48.366-11.16a10.9,10.9,0,0,1,.36-3.56,0.786,0.786,0,0,0,.108-0.4c0-.39-0.252-0.65-1.007-1.08a5.3,5.3,0,0,0-2.411-.9,4.264,4.264,0,0,0-2.267,1.15,0.164,0.164,0,0,0,.18.15h0.18a0.9,0.9,0,0,1,.324-0.04,2.492,2.492,0,0,1,2.123,1.37,21,21,0,0,1,.5,5.18,12.609,12.609,0,0,1-3.85.76,3.531,3.531,0,0,1-2.807-1.08,0.573,0.573,0,0,0-.359-0.25,0.215,0.215,0,0,0-.252.18,2.724,2.724,0,0,0,.611,1.04,4.8,4.8,0,0,0,3.455,1.69,20.671,20.671,0,0,0,3.418-.5c0.036,1.51.036,2.12,0.036,2.66,0,5.69-.719,8.71-2.627,11.27a11.157,11.157,0,0,1-5.361,3.78,0.457,0.457,0,0,0-.432.4,0.319,0.319,0,0,0,.4.28c1.008,0,4.21-1.4,5.9-2.59,2.951-2.09,4.318-5.69,4.318-11.26,0-1.44-.036-2.49-0.144-5.01,3.886-1.26,5.65-2.19,5.65-3.02a0.973,0.973,0,0,0-.468-0.72,6.165,6.165,0,0,0-1.691-.54,0.562,0.562,0,0,0-.432.29,8.441,8.441,0,0,1-3.419,2.05,4,4,0,0,1-.036-0.58v-0.72Zm-12.917,6.63c-0.216,0-.288.1-0.756,1.15-1.08,2.23-2.447,5.32-2.771,6.12a0.556,0.556,0,0,1-.324.43c-0.575,0-1.151-2.23-1.151-4.43,0-2.48.252-3.6,1.8-7.88a11.824,11.824,0,0,0,1.008-3.53,3.85,3.85,0,0,0-1.908-2.99,6.471,6.471,0,0,0-1.979-.83,0.311,0.311,0,0,0-.251.26,0.152,0.152,0,0,0,.107.14c0.936,0.32,1.368,1.22,1.368,2.81a26.766,26.766,0,0,1-.72,4.82,36,36,0,0,0-1.043,7.67,14.574,14.574,0,0,0,1.259,5.87c0.612,1.36,1.763,2.48,2.591,2.48a1.373,1.373,0,0,0,1.151-.86,1.063,1.063,0,0,0-.144-0.47,8.886,8.886,0,0,1-.287-1.91,24.621,24.621,0,0,1,2.194-8.03,1.119,1.119,0,0,0,.18-0.46A0.386,0.386,0,0,0,476.2,1267.75Zm45.991-8.39s0.036,0.07.108,0.25a7.054,7.054,0,0,1,.432,2.3,21.828,21.828,0,0,1-2.447,8.18c-1.655,3.2-4.462,6.01-5.973,6.01-1.3,0-2.267-1.91-2.267-4.5A12.3,12.3,0,0,1,522.194,1259.36Zm1.655-.15a2.5,2.5,0,0,1,.36-0.03h0.324a9.222,9.222,0,0,1,5.4,1.8c1.944,1.51,2.951,3.85,2.951,7.02a12.487,12.487,0,0,1-3.958,9.64,15.849,15.849,0,0,1-6.549,3.42c-0.468.11-.576,0.18-0.576,0.26a0.4,0.4,0,0,0,.432.32,20.853,20.853,0,0,0,4.75-1.15c5.469-1.98,8.708-6.41,8.708-11.88,0-6.19-4.75-10.48-11.587-10.48-7.772,0-14.105,6.02-14.105,13.36a7.848,7.848,0,0,0,1.8,5.43,3.156,3.156,0,0,0,2.411,1.34c1.763,0,3.634-1.3,5.649-3.86a18.984,18.984,0,0,0,4.21-10.97,33.992,33.992,0,0,0-.5-4.22h0.288Zm45.632,5.12c1.008-.11,2.483-0.22,3.382-0.22a26.077,26.077,0,0,1,3.275.22c0.36,0.03.612,0.07,0.719,0.07a0.81,0.81,0,0,0,.9-0.87c0-.39-0.36-0.72-1.295-1.18a5.172,5.172,0,0,0-1.871-.72,1.25,1.25,0,0,0-.72.32,20.844,20.844,0,0,1-4.426,1.19c-0.072-1.01-.072-1.51-0.072-2.2,0-2.19.108-3.42,0.4-3.92a1.347,1.347,0,0,0,.072-0.22c0-.5-1.511-1.37-2.339-1.37-0.756,0-2.807,1.08-2.807,1.48a0.234,0.234,0,0,0,.216.22,0.576,0.576,0,0,0,.216-0.04,0.81,0.81,0,0,1,.324-0.04c0.9,0,1.259.36,1.439,1.37a34.478,34.478,0,0,1,.54,4.97c-4.57.54-7.628,0.83-9.428,0.83a3.8,3.8,0,0,1-2.554-.61,0.608,0.608,0,0,0-.432-0.26,0.21,0.21,0,0,0-.216.22,3.333,3.333,0,0,0,2.987,2.92,4.754,4.754,0,0,0,1.8-.44,42.408,42.408,0,0,1,6.4-1.44c-2.735,5.66-8.816,11.05-15.365,13.61a0.235,0.235,0,0,0-.216.22,0.474,0.474,0,0,0,.468.43,8.075,8.075,0,0,0,1.439-.36,24.405,24.405,0,0,0,5.757-2.56,26.143,26.143,0,0,0,9.644-9.75c0.036,0.54.036,0.93,0.036,1.08v2.09l0.036,2.69c0,0.76,0,1.16-.036,2.49v2.73c0,0.83-.144,1.16-0.54,1.16-0.432,0-.9-0.26-2.231-1.12a2.435,2.435,0,0,0-1.187-.65,0.258,0.258,0,0,0-.288.25,0.314,0.314,0,0,0,.252.29c1.691,1.23,3.058,3.06,3.166,4.18a0.785,0.785,0,0,0,.54.79,4.723,4.723,0,0,0,1.547-.79,2.9,2.9,0,0,0,1.4-2.49,14,14,0,0,0-.144-1.87c-0.216-1.87-.54-6.69-0.648-10.22l-0.108-1.76Zm39.155-6.66c1.043,0,1.727,1.15,1.727,2.84l-0.036,1.48c0,8.67-.756,11.19-4.426,14.93a19.891,19.891,0,0,1-6.8,3.86c-0.324.07-.432,0.14-0.432,0.21a0.533,0.533,0,0,0,.54.36,18.45,18.45,0,0,0,4.03-1.22c5.254-2.02,8.456-5.73,9.176-10.66,0.144-1.15.324-5.4,0.324-8.24a6.3,6.3,0,0,1,.072-1.33,5.267,5.267,0,0,1,.4-0.76,1.154,1.154,0,0,0,.251-0.61c0-.65-2.231-2.12-3.238-2.12-0.648,0-2.159.68-2.159,0.97a0.353,0.353,0,0,0,.252.32,0.317,0.317,0,0,0,.144-0.03h0.18Zm-9.968,1.51a0.3,0.3,0,0,1,.18-0.04,1.607,1.607,0,0,1,1.548.9c0.287,0.54.359,1.48,0.359,4.25a37.477,37.477,0,0,1-.179,4.54,1.206,1.206,0,0,0-.036.32,2.247,2.247,0,0,0,1.943,1.65,0.818,0.818,0,0,0,.719-0.82,2.241,2.241,0,0,0-.036-0.43,7.251,7.251,0,0,1-.072-1.26c0-.11-0.036-0.83-0.072-1.59-0.036-1.04-.072-1.83-0.072-2.41a18.636,18.636,0,0,1,.288-4,1.748,1.748,0,0,0,.072-0.39c0-.33-0.216-0.51-1.115-1.01a4.753,4.753,0,0,0-1.835-.76,3.635,3.635,0,0,0-1.979.87,0.234,0.234,0,0,0,.179.18h0.108Zm60.025-5.04a1.314,1.314,0,0,0-1.079.29c0,0.07.072,0.11,0.216,0.14a6.4,6.4,0,0,1,3.418,2.84,1.015,1.015,0,0,0,1.008.69,1.238,1.238,0,0,0,1.115-1.15C663.371,1255.54,661.032,1254.14,658.693,1254.14Zm-3.922,1.55a1.014,1.014,0,0,0-.935.25c0,0.07.072,0.11,0.359,0.21a6.259,6.259,0,0,1,3.2,2.74,0.906,0.906,0,0,0,.971.68,1.2,1.2,0,0,0,1.08-1.15C659.449,1256.98,657.218,1255.69,654.771,1255.69Zm-13.961,2.77c-1.008,0-1.655.18-1.655,0.47,0,0.1.107,0.18,0.359,0.18a7.654,7.654,0,0,1,5.074,3.92,1.116,1.116,0,0,0,1.187.94,1.541,1.541,0,0,0,1.476-1.62c0-1.12-.612-1.98-1.943-2.78A10.237,10.237,0,0,0,640.81,1258.46Zm0.575,21.6a9.269,9.269,0,0,1,1.332-.76,36.483,36.483,0,0,0,3.238-1.98,50.628,50.628,0,0,0,10-8.53c2.518-2.81,5.4-7.2,5.4-8.21a0.33,0.33,0,0,0-.252-0.36,1.007,1.007,0,0,0-.54.54,37.416,37.416,0,0,1-3.67,4.61,69.435,69.435,0,0,1-10.615,9.14c-2.663,1.73-4.75,2.67-5.937,2.67a2.562,2.562,0,0,1-2.447-1.34c-0.288-.39-0.324-0.43-0.468-0.43-0.18,0-.288.18-0.288,0.51a3.386,3.386,0,0,0,.5,2.08c0.828,1.3,2.231,2.42,3.131,2.42A0.77,0.77,0,0,0,641.385,1280.06Zm-4.317-15.19a1.274,1.274,0,0,0-1.224.36,0.386,0.386,0,0,0,.288.21,7.834,7.834,0,0,1,4.39,3.85,1.163,1.163,0,0,0,1.187.83,1.473,1.473,0,0,0,1.368-1.4c0-1.05-.576-1.84-1.907-2.7A8.292,8.292,0,0,0,637.068,1264.87Zm55.419-.9c0.179-1.73.359-4.11,0.395-5.4a6.889,6.889,0,0,0,.432-1.41c0-.65-2.195-1.98-3.238-1.98a13.937,13.937,0,0,0-1.62.29,0.429,0.429,0,0,0-.395.32,0.3,0.3,0,0,0,.252.22,2.56,2.56,0,0,1,1.475,1.33c0.36,0.72.432,1.33,0.432,3.64,0,0.72,0,1.08-.072,3.27-3.491.36-8.132,0.72-9.5,0.72-1.547,0-2.447-.28-2.986-0.9a0.437,0.437,0,0,0-.324-0.21,0.188,0.188,0,0,0-.216.21,2.59,2.59,0,0,0,.612,1.8,3.813,3.813,0,0,0,2.446,1.66,3.771,3.771,0,0,0,1.332-.32,45.1,45.1,0,0,1,8.528-1.8c-1.044,8.02-4.246,13.03-10.183,15.94a0.307,0.307,0,0,0-.288.25,0.558,0.558,0,0,0,.5.36,16.343,16.343,0,0,0,3.131-1.29,14.849,14.849,0,0,0,6.3-5.98c1.655-2.88,2.3-5.11,2.807-9.54,1.259-.14,3.994-0.25,5.4-0.25a25.1,25.1,0,0,1,4.678.51c0.324,0.03.648,0.07,0.864,0.07a0.85,0.85,0,0,0,.9-0.79,1.828,1.828,0,0,0-.9-1.12,5.911,5.911,0,0,0-2.519-1.4,1.085,1.085,0,0,0-.72.28C698.748,1263.14,697.308,1263.43,692.487,1263.97Zm39.262,0.39-0.036,2.99-0.036,4.21a3.841,3.841,0,0,1-.431,2.34,0.847,0.847,0,0,0-.144.43c0,0.65,1.619,2.52,2.159,2.52a0.238,0.238,0,0,0,.215-0.11,4.557,4.557,0,0,1,2.087-1.51,25.333,25.333,0,0,0,4.75-3.31,29.824,29.824,0,0,0,5.362-5.97,21.369,21.369,0,0,0,2.59-4.65,0.494,0.494,0,0,0-.395-0.43,0.741,0.741,0,0,0-.432.5,37.912,37.912,0,0,1-6.837,7.96c-2.483,2.19-5.181,3.74-6.477,3.74-0.36,0-.54-0.21-0.54-0.68,0-1.12.252-6.52,0.36-7.78a6.9,6.9,0,0,1,.612-2.77,0.7,0.7,0,0,0,.288-0.47c0-.21-0.072-0.28-1.008-0.93a3.7,3.7,0,0,0-2.2-.97,1.474,1.474,0,0,0-1.115.5c0,0.11.036,0.14,0.252,0.18a1.447,1.447,0,0,1,.719.5,3.766,3.766,0,0,1,.288,2.02Zm-7.2-3.49c-0.324,0-.5.11-0.5,0.29a0.29,0.29,0,0,0,.216.25,1.928,1.928,0,0,1,1.151,1.87c0,2.67-1.475,7.31-3.274,10.44a18.612,18.612,0,0,1-4.822,5.72,0.568,0.568,0,0,0-.36.44,0.374,0.374,0,0,0,.4.36c1.295,0,5.434-4,7.3-7.1a31.224,31.224,0,0,0,3.31-8.42,2.853,2.853,0,0,1,.432-1.26,0.583,0.583,0,0,0,.324-0.39,3.613,3.613,0,0,0-1.763-1.55A5.33,5.33,0,0,0,724.553,1260.87Zm56.21,0.97c0.324-.25.432-0.36,0.612-0.47a0.763,0.763,0,0,0,.468-0.57c0-.43-0.72-1.33-2.051-2.49a3.929,3.929,0,0,0-2.339-1.08,0.481,0.481,0,0,0-.576.33,0.381,0.381,0,0,0,.216.32,3.57,3.57,0,0,1,.936,2.41c0,1.26-.9,3.5-2.447,6.12a19.956,19.956,0,0,0-4.966-2.37,22.366,22.366,0,0,0-3.058-.76,0.28,0.28,0,0,0-.288.25c0,0.15.072,0.22,0.36,0.33a19.838,19.838,0,0,1,6.728,4.32,38.441,38.441,0,0,1-14.645,11.73c-0.395.15-.5,0.25-0.5,0.43a0.423,0.423,0,0,0,.467.33,35.8,35.8,0,0,0,6.153-2.49,33.481,33.481,0,0,0,10.112-8.45,20.835,20.835,0,0,1,2.087,2.59c1.187,1.8,1.439,2.01,2.159,2.01a1.344,1.344,0,0,0,1.295-1.33c0-1.22-1.079-2.63-4.138-5.22A43.257,43.257,0,0,0,780.763,1261.84Zm38.148-1.15a2.2,2.2,0,0,0-1.116.4,18.668,18.668,0,0,1-7.089,1.44c-1.655,0-2.446-.18-2.878-0.72a0.412,0.412,0,0,0-.288-0.22,0.2,0.2,0,0,0-.216.18,5.228,5.228,0,0,0,.72,1.22c0.791,1.3,1.439,1.73,2.59,1.73a14.316,14.316,0,0,0,2.339-.25c3.2-.61,3.419-0.61,7.845-1.3,0.683-.07.971-0.25,0.971-0.57a1.352,1.352,0,0,0-1.079-1.15c-0.4-.22-0.684-0.33-0.828-0.4A1.78,1.78,0,0,0,818.911,1260.69Zm-0.72,11.91a126.288,126.288,0,0,1-13.206,1.08,4.676,4.676,0,0,1-3.382-.97,0.5,0.5,0,0,0-.252-0.11,0.2,0.2,0,0,0-.18.18l0.036,0.26,0.108,0.25c0.576,1.73,1.835,2.95,3.022,2.95a8.087,8.087,0,0,0,2.016-.4,67.727,67.727,0,0,1,14.357-1.69,34.164,34.164,0,0,1,5.757.4,11.119,11.119,0,0,0,1.871.25,0.783,0.783,0,0,0,.828-0.79c0-.58-0.432-1.05-1.548-1.69a7.322,7.322,0,0,0-2.41-1.05,1.928,1.928,0,0,0-.648.18,13.448,13.448,0,0,1-3.958.9Zm39.371,4.11c-0.792.07-1.512,0.14-1.764,0.18-0.719.07-1.043,0.07-4.39,0.32-0.719.04-1.583,0.11-2.626,0.18-0.5.04-.9,0.07-1.152,0.07-1.367,0-2.339-.25-2.627-0.72a0.187,0.187,0,0,0-.179-0.14,1.024,1.024,0,0,0-.324.86c0,0.33.144,0.51,1.151,1.26a3.338,3.338,0,0,0,1.8.94,5.107,5.107,0,0,0,1.548-.43,15.143,15.143,0,0,1,4.138-.97,57.946,57.946,0,0,1,7.052-.54,31.216,31.216,0,0,1,7.089.68,4.007,4.007,0,0,0,.936.18,0.728,0.728,0,0,0,.683-0.65,1.789,1.789,0,0,0-.9-1.26c-1.08-.83-1.4-1.01-1.871-1.01a5.2,5.2,0,0,0-.9.11,40.351,40.351,0,0,1-5.865.76c0.971-4.65,1.727-6.88,2.375-7.34a1.143,1.143,0,0,0,.467-0.72,1.01,1.01,0,0,0-.539-0.65c-1.512-1.12-2.231-1.55-2.519-1.55a1.731,1.731,0,0,0-.72.29,6.9,6.9,0,0,1-2.735,1.01,19.3,19.3,0,0,1-4.282.64c-1.187,0-1.763-.28-2.015-0.93-0.036-.15-0.072-0.18-0.144-0.18-0.215,0-.323.29-0.323,0.83a1.723,1.723,0,0,0,.719,1.54,2.288,2.288,0,0,0,1.368.72,3.432,3.432,0,0,0,1.007-.28,19.888,19.888,0,0,1,5.614-1.55,0.857,0.857,0,0,1,1.007.86,19.24,19.24,0,0,1-.216,2.02Zm46.963-6.95c1.151,0,4.461.07,5.109,0.11,0.612,0.04,1.044.04,1.26,0.04,1.115,0,1.8-.33,1.8-0.83a2.241,2.241,0,0,0-.9-1.3,2.337,2.337,0,0,0-1.8-.75,9.093,9.093,0,0,0-.972.07,162,162,0,0,1-19.934,1.44c-2.015,0-2.807-.33-3.311-1.37a0.325,0.325,0,0,0-.287-0.25,0.319,0.319,0,0,0-.252.39,9.214,9.214,0,0,0,.252,1.95,4.128,4.128,0,0,0,3.022,1.87,7.268,7.268,0,0,0,1.583-.25A94.262,94.262,0,0,1,904.525,1269.76Zm44.444-15.55a1.756,1.756,0,0,0-1.224.25c0,0.08.072,0.15,0.252,0.18a5.727,5.727,0,0,1,3.419,2.7,1.031,1.031,0,0,0,.791.72,1.225,1.225,0,0,0,1.188-1.22C953.4,1255.51,951.2,1254.21,948.969,1254.21Zm-3.67,1.55a1.447,1.447,0,0,0-1.224.29c0,0.07.036,0.1,0.216,0.14a5.667,5.667,0,0,1,3.382,2.74,0.937,0.937,0,0,0,.828.72,1.319,1.319,0,0,0,1.187-1.23C949.688,1257.13,947.458,1255.76,945.3,1255.76Zm5.4,15.44a4.644,4.644,0,0,1,2.483.65,1.116,1.116,0,0,0,.935.5c0.864,0,1.476-1.01,1.476-2.44a7.671,7.671,0,0,0-7.953-7.42c-0.935,0-1.4.11-1.4,0.32,0,0.11.036,0.11,0.4,0.15,3.058,0.21,6.225,3.2,6.225,5.9,0,0.58-.288.87-1.187,1.19a19.117,19.117,0,0,1-2.663.65c-0.468.07-.54,0.14-0.54,0.36a0.28,0.28,0,0,0,.288.25,1.493,1.493,0,0,0,.36-0.04C949.185,1271.24,950.408,1271.2,950.7,1271.2Zm-17.74-14.29c1.44,0,2.195.83,2.195,2.45a36.056,36.056,0,0,1-.539,4.5,32.827,32.827,0,0,1-5.974,1.29,1.54,1.54,0,0,1-1.547-.93,0.448,0.448,0,0,0-.36-0.36c-0.18,0-.288.21-0.288,0.61,0,1.55,1.044,3.02,2.123,3.02a3.027,3.027,0,0,0,1.26-.39c1.439-.61,3.418-1.44,4.534-1.84-1.907,5.8-4.678,10.91-7.521,13.72a1.512,1.512,0,0,0-.575,1.08,1.3,1.3,0,0,0,1.4,1.33,2.111,2.111,0,0,0,1.763-1.08,44.494,44.494,0,0,0,2.483-4.5,83.459,83.459,0,0,0,4.39-11.2,9.646,9.646,0,0,1,3.166-.79c1.368,0,2.087,1.3,2.087,3.64a22.7,22.7,0,0,1-1.115,7.09c-0.756,2.23-1.763,3.38-2.987,3.38-0.683,0-1.583-.54-2.914-1.8a1.2,1.2,0,0,0-.576-0.39,0.379,0.379,0,0,0-.216.32,1.327,1.327,0,0,0,.5.79c1.3,1.59,1.619,2.2,1.835,3.39,0.072,0.61.18,0.75,0.684,0.75a5.73,5.73,0,0,0,3.958-1.94c1.655-2.02,2.842-6.34,2.842-10.3a8.9,8.9,0,0,0-.755-4.24,3.707,3.707,0,0,0-3.1-1.66,10.689,10.689,0,0,0-3.094.58,31.272,31.272,0,0,0,1.115-5.48,1.522,1.522,0,0,0-1.007-1.33,4.47,4.47,0,0,0-2.339-.75c-0.684,0-2.015.61-2.015,0.97a0.171,0.171,0,0,0,.144.11,1.038,1.038,0,0,0,.287-0.04h0.144Zm53.368,7.85a6.058,6.058,0,0,1,3.527,1.04,8.184,8.184,0,0,1,3.2,6.62c0,0.87.252,1.19,0.864,1.19a2.1,2.1,0,0,0,2.015-2.34c0-3.52-3.994-7.2-7.844-7.2-1.26,0-2.3.26-2.3,0.51,0,0.14.108,0.18,0.431,0.18h0.108Zm-17.091-6.37c1.043,0,2.087,1.51,2.087,3.02,0,0.32-.036.76-0.072,1.26-0.18,1.76-.288,3.89-0.288,5.47,0,4.75,1.439,8.68,3.922,10.62a7.544,7.544,0,0,0,3.634,1.55,1.15,1.15,0,0,0,1.26-.79,0.831,0.831,0,0,0-.252-0.54,4.2,4.2,0,0,1-.612-2.24,18.5,18.5,0,0,1,1.259-5.32,4.793,4.793,0,0,0,.432-1.33,0.276,0.276,0,0,0-.252-0.29c-0.252,0-.935,1.18-2.447,4.53-1.079,2.31-1.151,2.45-1.583,2.45a3.067,3.067,0,0,1-1.943-1.37,9.889,9.889,0,0,1-1.583-6.04,21.069,21.069,0,0,1,.648-5.51,12.98,12.98,0,0,0,.431-2.81c0-1.66-1.8-3.17-3.778-3.17a1.3,1.3,0,0,0-1.223.4,0.153,0.153,0,0,0,.144.14,0.42,0.42,0,0,0,.144-0.03h0.072Zm58.477,7.45c-3.42,0-6.94,1.15-11.51,3.81-1.8,1.01-2.02,1.12-2.74,1.12a1.938,1.938,0,0,1-1.98-1.51c-0.03-.15-0.07-0.18-0.14-0.18-0.18,0-.25.11-0.25,0.36a3.634,3.634,0,0,0,.72,2.55,3.738,3.738,0,0,0,2.44,1.26,1.856,1.856,0,0,0,1.37-.61c4.39-3.78,8.42-5.65,12.2-5.65,3.2,0,5.18,2.05,5.18,5.4,0,4.53-3.85,7.74-10.98,9.07-0.5.11-.57,0.11-0.57,0.22a0.587,0.587,0,0,0,.54.39,26.172,26.172,0,0,0,8.02-2.05c3.53-1.58,5.51-4.32,5.51-7.6C1035.52,1268.54,1032.32,1265.84,1027.71,1265.84Zm50.38-11.16a2.2,2.2,0,0,1,2.23,2.19A2.21,2.21,0,1,1,1078.09,1254.68Zm-5.14,6.3c0.79,0.79,1.15,1.15,1.58,1.51a0.467,0.467,0,0,1,.22.32c0,0.29-.9.8-2.24,1.23a18.613,18.613,0,0,1,.22-3.31Zm-1.95,15.58a0.833,0.833,0,0,1-.03.29c-0.29,2.2-1.62,3.1-4.61,3.1-1.58,0-2.63-.65-2.63-1.62,0-1.26,1.7-2.16,4.18-2.16A15.377,15.377,0,0,1,1071,1276.56Zm7.2-23.07a3.385,3.385,0,1,0,3.31,3.38A3.385,3.385,0,0,0,1078.2,1253.49Zm-9.46,4.03a1.833,1.833,0,0,1,1.94,1.66c0.07,0.5.18,3.09,0.14,5.22a30.129,30.129,0,0,1-4.39.43c-1.72,0-2.77-.47-3.13-1.37a0.3,0.3,0,0,0-.21-0.21,0.193,0.193,0,0,0-.18.21,4.605,4.605,0,0,0,.54,1.98,2.706,2.706,0,0,0,2.55,1.3,30.209,30.209,0,0,0,4.82-.54c0.07,2.34.15,3.63,0.29,5.76,0.07,1.18.11,1.83,0.11,2.52a7.769,7.769,0,0,1-.04.82,18.211,18.211,0,0,0-3.16-.28c-3.46,0-5.83,1.36-5.83,3.38s2.23,3.49,5.25,3.49c3.28,0,5.29-1.58,5.76-4.61a12.39,12.39,0,0,1,3.92,3.5,1.658,1.658,0,0,0,1.37.86,1.247,1.247,0,0,0,1.29-1.3c0-.97-0.68-1.9-2.08-2.8a15.172,15.172,0,0,0-4.47-1.84c-0.03-1.55-.14-3.67-0.39-6.55-0.11-1.15-.15-1.91-0.18-2.27,0-.14-0.04-0.57-0.07-1.08a13.113,13.113,0,0,0,3.81-1.62,2.943,2.943,0,0,0,1.48-1.8,1.419,1.419,0,0,0-1.16-1.01c-0.07,0-.21.04-0.43,0.08a3.209,3.209,0,0,1-.57.03,4.112,4.112,0,0,1-2.88-1.26,6.789,6.789,0,0,1,.47-1.51,1.1,1.1,0,0,0,.1-0.4c0-.79-1.87-2.08-2.98-2.08a2.823,2.823,0,0,0-1.73.79,1.377,1.377,0,0,0-.43.43,0.117,0.117,0,0,0,.11.11,0.11,0.11,0,0,0,.1-0.04h0.26Zm-11.81,17.5c-0.07.1-.25,0.68-0.46,1.26-0.36,1.04-.54,1.36-0.8,1.36-0.46,0-.82-1.8-0.82-4.06,0-3.31.64-5.8,2.73-10.8a6.493,6.493,0,0,0,.65-2.41,4.211,4.211,0,0,0-1.84-3.1,4.791,4.791,0,0,0-1.94-.79,0.187,0.187,0,0,0-.22.18,0.321,0.321,0,0,0,.11.14,3.338,3.338,0,0,1,1.19,2.95,11.921,11.921,0,0,1-.58,3.46,39.816,39.816,0,0,0-1.69,10.51c0,3.53.47,5.83,1.59,7.7a3.19,3.19,0,0,0,2.3,1.8,1.091,1.091,0,0,0,.86-1.69,5.3,5.3,0,0,1-.46-2.37,30.377,30.377,0,0,1,2.01-9.25,2.2,2.2,0,0,0,.25-0.8,0.275,0.275,0,0,0-.25-0.28c-0.25,0-.25,0-1.8,4.03Zm54.63-10.26a6.072,6.072,0,0,1,3.53,1.04,8.191,8.191,0,0,1,3.2,6.62c0,0.87.25,1.19,0.86,1.19a2.106,2.106,0,0,0,2.02-2.34c0-3.52-4-7.2-7.85-7.2-1.26,0-2.3.26-2.3,0.51,0,0.14.11,0.18,0.43,0.18h0.11Zm-17.09-6.37c1.04,0,2.09,1.51,2.09,3.02,0,0.32-.04.76-0.08,1.26-0.18,1.76-.28,3.89-0.28,5.47,0,4.75,1.44,8.68,3.92,10.62a7.563,7.563,0,0,0,3.63,1.55,1.152,1.152,0,0,0,1.26-.79,0.8,0.8,0,0,0-.25-0.54,4.2,4.2,0,0,1-.61-2.24,18.474,18.474,0,0,1,1.26-5.32,4.81,4.81,0,0,0,.43-1.33,0.277,0.277,0,0,0-.25-0.29c-0.25,0-.94,1.18-2.45,4.53-1.08,2.31-1.15,2.45-1.58,2.45a3.088,3.088,0,0,1-1.95-1.37,9.95,9.95,0,0,1-1.58-6.04,21.245,21.245,0,0,1,.65-5.51,13.156,13.156,0,0,0,.43-2.81c0-1.66-1.8-3.17-3.78-3.17a1.291,1.291,0,0,0-1.22.4,0.151,0.151,0,0,0,.14.14,0.435,0.435,0,0,0,.15-0.03h0.07Z" transform="translate(-346.812 -1204)"/>
</svg>
