<svg xmlns="http://www.w3.org/2000/svg" viewBox="0 0 583.62 136.13"><defs><style>.cls-1{fill:#fff;}</style></defs><g id="Layer_2" data-name="Layer 2"><g id="Layer_1-2" data-name="Layer 1"><path class="cls-1" d="M2.32,59.52c1,0,4.14-1.61,5.11-2.11,8.35-4.56,14.14-9.93,18.21-16.91,3.19-5.64,4.81-10.17,6.81-19.25a125.27,125.27,0,0,1,15.92-1,87.32,87.32,0,0,1-3.58,18.27c-1.78,5.9-4.32,9-5.91,9-.81,0-1.89-.57-4.8-2.57l-5-3.48-1.26,1.88,5,5.69c1.63,1.83,1.63,1.83,1.63,2.17a1.89,1.89,0,0,1,0,.45,6.71,6.71,0,0,0-.26,1.83A2.31,2.31,0,0,0,36.75,56c3.72,0,8.54-4.37,11.48-10.4C50.69,40.47,51.78,36,54,22c1.74-.52,2.86-1,2.86-2.22,0-1-.49-1.62-2.9-3.72a25,25,0,0,0-3.32-2.63l-.37-.24-2.43,2.75L46.36,16c-7.48.3-8.54.35-13.13.79l.9-6.76a6.19,6.19,0,0,1,.27-1.23A5.59,5.59,0,0,1,35,8.19c1.18-.93,1.56-1.39,1.56-1.91,0-1.12-1.1-2.31-3-3.27C28.9.79,27.69.53,27.18.53c-1.08,0-4,1.73-4,2.86a1.3,1.3,0,0,0,.13.6l.11.23.25,0a8,8,0,0,1,2.9,1c1.78.93,1.78,1.1,1.78,1.53a19.23,19.23,0,0,1-.23,2.67l-.94,7.74-12.95,1.4L13,18.7c-2,0-2.54-.2-3.26-1.12a25.92,25.92,0,0,1-2.17-2.9l-.36-.59-.54.64c-1.71,2-1.85,2.17-1.85,3S6,20.29,7,21.63C9,24.31,10.36,25.4,11.52,25.4c.61,0,1-.22,1.92-.88s2.87-1.15,13-2.6c-3.23,16-10.61,27-23.21,34.32l-.46.3c-1.45.89-1.67,1-1.67,1.72A1.31,1.31,0,0,0,2.32,59.52Z"/><path class="cls-1" d="M87.37,20.91a1.82,1.82,0,0,0,1-.37,14.69,14.69,0,0,1,2.67-1.4l.26-.1c1-.49,2.6-.79,7.89-1.48l24-3.15C115.34,34.44,106.3,45,89,54.48c-2.16,1.15-2.62,1.48-2.62,2.34a1.33,1.33,0,0,0,1.33,1.26c1.65,0,10.07-4.33,15.4-7.68,10.83-6.95,19.29-17.45,26.6-33,1.28-.23,2.81-.71,2.81-2.05a4.89,4.89,0,0,0-1.58-2.93l-4.54-4.87-2.59,2.76-30.29,3c-6.21.53-6.21.53-6.64.53-1.27,0-1.61-.14-4-2.23l-1.19-1.08-.33.34A5.4,5.4,0,0,0,79.65,14C79.65,15.38,85.78,20.91,87.37,20.91Z"/><path class="cls-1" d="M163.47,53.15c4-2.4,18-4.34,31.14-4.34A27,27,0,0,1,202.88,50a4.36,4.36,0,0,0,1.23.25,2.28,2.28,0,0,0,2-2.17c0-1.65-3.17-4-6.15-5.32l-.26-.12-2.53,1.75c-3.73,0-4.59.07-10.74.54l-2.74.19V31.89c0-.4,0-.4.56-1l.12-.15c.33-.39.53-.62.53-1,0-.59-.33-1-1.07-1.51.78-.07,1.82-.12,4.52-.25l.28,0,4.56.23,1.41.06a10,10,0,0,1,1.23.08H196a8.12,8.12,0,0,1,.89.14l.23.05a4.25,4.25,0,0,0,.78.12,1.74,1.74,0,0,0,1.8-1.8c0-1.35-.84-2.09-3.52-3.77-.44-.26-.72-.45-1-.65s-.67-.45-1.24-.79l-.32-.19-.27.24c-.6.53-1.51,1.28-1.87,1.57s-.48.36-2.55.43c-5,.32-12.36,1-20.18,2a16.73,16.73,0,0,1-1.75.15c-1,0-2.13-.75-3.82-2.51l-.48-.49-.32.61a7.29,7.29,0,0,0-1.12,2.89c0,1.59,4.23,5.06,5.74,5.06a5.77,5.77,0,0,0,2.5-.88c1.84-.89,2.13-.95,7.89-1.63l1.16-.12c.36.8.42,1.25.42,4.11V45.35l-15.76,1.78c-1.08.14-1.82.22-1.91.22-.28,0-.29,0-2.63-1.75l-.32-.19-.93-.77-.29.54a5.49,5.49,0,0,0-.89,2.37c0,1.47,4.64,6,6.12,6A3,3,0,0,0,163.47,53.15Z"/><path class="cls-1" d="M282.24,21.36c-.6,0-1,.35-2.55,1.73-9.35,8.84-26.61,20-36.09,23.37L244.05,20c.15-3.88.15-3.88,1.12-4.6.81-.72,1.16-1.29,1.16-1.89,0-.9-.57-1.65-1.85-2.41s-7-3.26-7.92-3.26-1.46.41-3.75,2.4l-.62.54.76.3c4.71,1.9,5.46,2.56,5.46,3.72l-.3,31.88-2.73,3,5.67,4.69a3.22,3.22,0,0,0,1.74.77c.71,0,1.07-.45,1.48-1.28l.68-1a115,115,0,0,0,12.17-6.58A131.07,131.07,0,0,0,275.05,32c7.54-7.11,8.67-8.31,8.67-9.18A1.62,1.62,0,0,0,282.24,21.36Z"/><path class="cls-1" d="M335.32,32.07a146.12,146.12,0,0,0,11.3-15.92l1.65-.33c1.9-.27,2.1-1.34,2.1-1.79a3.42,3.42,0,0,0-1.54-2.51l-5-4.34-2.57,2.65-25.36,3.48a16.42,16.42,0,0,1-1.76.22c-1.12,0-2.36-1.12-3.59-3.25l-.4-.69-.45.66c-1.65,2.44-1.68,2.49-1.68,3.25,0,1,.83,2.16,3.71,5.2,1.38,1.46,1.8,1.83,2.49,1.83s1-.19,2.34-1a7.06,7.06,0,0,1,2.56-1.14c2.49-.57,5.64-1.25,7.67-1.67,7.88-1.73,9.35-2,13.29-2.41C329.45,33.76,320.38,43.49,303.18,54c-2,1.18-2.45,1.57-2.45,2.33A1.25,1.25,0,0,0,302,57.55c1.23,0,4.46-1.57,7.09-3,9.89-5.59,16.05-10.65,24.26-20,5.35,3,15.45,12.43,17.78,16.74,1.38,2.17,2.29,3.2,3.77,3.2A3.43,3.43,0,0,0,358,51C358,45.4,349.52,38.36,335.32,32.07Z"/><path class="cls-1" d="M416.84,28.56a45.09,45.09,0,0,0-14.69-5.08l.44-11,0-.47a14.2,14.2,0,0,1,.23-2.9,5.57,5.57,0,0,1,.69-.88,3.82,3.82,0,0,0,1-2.08c0-1.2-1.26-2.45-4-3.93-1.91-1-4.41-2.27-5.18-2.27S394,.44,392,2.18l-.54.47.63.34c3.31,1.81,3.66,2,4.1,2.45s.5.73.5,3.12L396.65,43l-.31,9.11c0,.79-.14,2.28-.22,2.59a21.69,21.69,0,0,0-.46,3.06c0,1.91,2.21,3.92,4.3,3.92a2.5,2.5,0,0,0,2.47-2.48l-.15-32.52c5.86,2,13.68,7.66,17.42,12.69,1.4,1.8,2.2,2.32,3.59,2.32a3,3,0,0,0,2.93-3.08C426.22,35.25,423,31.79,416.84,28.56Z"/><path class="cls-1" d="M460.19,9.83c3.91,3.63,4.47,3.63,4.75,3.63a1.58,1.58,0,0,0,.92-.36c1.39-.76,2.66-1.16,6.57-1.46,10.76-1.06,14.17-1.29,19.18-1.29a13.91,13.91,0,0,1,2,.15,25.62,25.62,0,0,0,3.34.3,2.48,2.48,0,0,0,2.18-2.55c0-1.54-1.69-2.53-6.77-4.71l-.28-.13-2.85,2.46-18.16,1.5c-1.65.15-3.25.23-4.75.23-2,0-2,0-5.37-2.92l-.4-.35-.32.43c-1.09,1.42-1.47,2.15-1.47,2.81S459.23,9,460.19,9.83Z"/><path class="cls-1" d="M497.94,17.78l-.35-.21-2.26,2.51L470.9,22.2c-9,.75-9.1.75-9.54.75-1.48,0-2.16-.38-5.14-2.92l-.41-.34-.32.42a6,6,0,0,0-1.47,3c0,1.55,5.11,6.89,6.58,6.89.48,0,1-.3,1.78-1.13.59-.84,3.93-1.43,13-2.67l19.45-1.83a70.63,70.63,0,0,1-31.13,33.49c-2.92,1.53-3.46,1.85-3.46,2.72a1.31,1.31,0,0,0,1.26,1.26c.65,0,1.46-.37,4.47-1.8,11.6-5.64,16.35-8.86,22.11-15,5.29-5.6,7.7-9,13.44-18.79,1.86-.78,2.81-1.41,2.81-2.61C504.35,22.12,501.13,19.61,497.94,17.78Z"/><path class="cls-1" d="M538.65,21c1.1,2.79,1.82,4,3.43,4,2,0,3.61-2.07,3.61-4.53,0-3.61-3-7.47-7.71-10.09-2.52-1.34-4.27-2-8.93-3.16l-.42-.11-.87,2.11.39.21A23.29,23.29,0,0,1,538.65,21Z"/><path class="cls-1" d="M582.44,15.35c-.58,0-1.07.32-1.89,1.22-8.62,9.08-25.17,21.67-36.12,27.49-4.4,2.33-9.06,4.33-9.65,4.35s-1.79-.55-4.43-3.19l-.45-.45-.33.54c-1.37,2.23-1.37,2.86-1.37,3.07,0,1,.46,1.66,3.27,4.39s4.55,3.94,5.9,3.94c.94,0,1.44-.83,2.35-2.86,11.53-5.57,20.77-12.38,32.88-24.26,1.84-1.82,11-11,11-13A1.31,1.31,0,0,0,582.44,15.35Z"/><path class="cls-1" d="M61.38,91.86c-4.24-2.16-4.24-2.16-5.07-2.32l-.22-.05-2.42,1.88L39.92,92.45,40,86.76V85.44A10.29,10.29,0,0,0,40.06,84c.06-.51.06-.51.79-1.23,1-1.11,1.42-1.82,1.42-2.47,0-1.15-1.2-1.9-2.25-2.42C37.53,76.59,33.17,75,32.12,75s-2.21.81-3.54,2.81l-.32.48.53.25c1.15.53,1.55.7,2.76,1.15,2.71,1.1,2.8,1.33,2.8,3.13l.37,10.24L17.4,94.62a41.17,41.17,0,0,1-4.74.3c-2.86,0-3.1-.11-6.44-3l-.37-.32L5.52,92C4.36,93.29,3.88,94,3.88,95S4.29,96.51,6,98c3.53,3.07,4,3.39,5,3.39a3.74,3.74,0,0,0,1.58-.51,9.93,9.93,0,0,1,3-1.17l16.51-2.37C26.29,107.71,12.85,121.09,2.24,127,.43,128,0,128.23,0,129a1.23,1.23,0,0,0,1.18,1.18,16.06,16.06,0,0,0,4.18-1.57,73,73,0,0,0,17.82-12.32c4.42-4,4.81-4.43,11.79-12.42l.14,22.33a103,103,0,0,1-12.48-6.3l-.33-.19-1.49,1.49.42.35c.54.46.85.76,1.06,1a3.27,3.27,0,0,0,.39.34c.62.49,1.23,1,1.86,1.53s1.08.9,1.63,1.35l2.8,2.43,1.46,1.3a15.8,15.8,0,0,1,1.94,1.72c.31.3.32.31.45,1.37v.11c.06,1.75.27,3.45,2,3.45,2.68,0,6.36-3.81,6.36-6.58a3.68,3.68,0,0,0-.36-1.29c-.12-.24-.17-.39-.18-.39l-.75-31a100.72,100.72,0,0,1,11.73-.6,66.5,66.5,0,0,1,8.71.83,14.28,14.28,0,0,0,2.46.39,2.1,2.1,0,0,0,2-2.17C64.84,93.89,64.15,93.33,61.38,91.86Z"/><path class="cls-1" d="M137.08,102.45a4.14,4.14,0,0,0-.79.11l-.26.06a14,14,0,0,1-2.31.44L94.35,104l-5.39.15c-2.93,0-3.87-.4-5-2.12-.36-.56-.72-1.07-1.26-1.07-1,0-1.57,1.9-1.57,2.93s.26,1.53,2.08,4c1.9,2.58,2.24,3,3.29,3,.5,0,.54,0,2.52-1,1.09-.62,1.61-.69,5.55-.85l26.74-.38h4c6.23,0,10.7.09,12,.23a15.16,15.16,0,0,0,1.65.15,2.32,2.32,0,0,0,2.25-2.47C141.15,104.73,138.83,102.45,137.08,102.45Z"/><path class="cls-1" d="M205.9,89.59a22.66,22.66,0,0,0-3.56-2.94l-.31-.21L199,88.93,198,89c-.42,0-.72.06-.92.06l-9.94.53-1.91.06c.27-.46.49-.8.76-1.22l.24-.37c.69-1.24.88-1.62,1-1.79a2.66,2.66,0,0,1,1.2-.88c1.18-.44,1.92-.93,1.92-2s-.75-1.76-2.14-2.63c-5.21-3.27-5.21-3.27-6.42-3.27-.84,0-4.22,1.16-4.22,2.17,0,.67.45.84,1.45,1.23,1.82.74,2.62,1.59,2.65,1.8-.08.82-3.62,7.87-6,11.76-4.6,7.34-10.37,14.36-14.73,17.89-1,.89-1.46,1.26-1.46,2a1.16,1.16,0,0,0,1.11,1.11c1.09,0,5.25-3.18,7.7-5.37A78.38,78.38,0,0,0,182.6,93.73l.88.94.26,0a92.35,92.35,0,0,1,15-1.48c-7.8,18.3-17.85,30.23-33.43,39.75-.33.17-1.34.68-1.34,1.59a1.34,1.34,0,0,0,1.34,1.26c.29,0,1.18,0,7.94-4.1,10.24-6.32,15.39-10.89,21.19-18.83A108.15,108.15,0,0,0,204.57,95.6c.29-.75.29-.75,1-1l0,0c1.32-.36,2.65-.87,2.65-1.93,0-.67-.41-1.15-1.37-2.11Z"/></g></g></svg>