<svg id="Layer_1" data-name="Layer 1" xmlns="http://www.w3.org/2000/svg" viewBox="0 0 643.59 53.37"><path d="M579.62,239.35c-3.07,10.56-4.16,13.05-7.93,18.17a35.62,35.62,0,0,1-15.17,11.84,23,23,0,0,1-4.8,1.66c-.32,0-.58-.19-.58-.44s.2-.39.52-.58c11-5.57,18.81-16.06,21.75-29.18a63.26,63.26,0,0,0-9.28,3.39,2,2,0,0,1-1,.26,7.08,7.08,0,0,1-3.65-1.8,5.39,5.39,0,0,1-1.92-4c0-1,.13-1.28.45-1.28a.36.36,0,0,1,.32.19c.64,1.09,1.92,1.6,4,1.6a76,76,0,0,0,11.77-1.47,61,61,0,0,0,.71-8.38c0-3.07-.77-4.61-2.5-5.25.07-.77,1-1.21,2.31-1.21,2.49,0,8,3.51,8,5.18,0,.32-.13.51-.77,1.34-.64,2.95-.9,4.16-1.67,7.17.9-.19,1.67-.32,1.92-.38,4.8-.9,5.76-1.16,8.07-2.56,1.53-.9,1.6-1,2-1,1.28,0,6.34,3.58,6.34,4.54,0,.38,0,.38-1.28,1.79-.58.71-.77,1.41-1.16,4-1.92,12-4,17.92-7.61,22.14a9.27,9.27,0,0,1-6.21,2.88c-.83,0-1.41-.38-1.41-.89a1.31,1.31,0,0,1,.07-.45v-.45a12.71,12.71,0,0,0-2.88-6.85c-.77-1-.83-1.09-.83-1.28a.42.42,0,0,1,.44-.38,1.27,1.27,0,0,1,.52.19c2.17,1.41,4.73,2.62,5.44,2.62,2.87,0,6.71-11.9,6.71-21,0-1.53-.25-1.92-1.15-1.92-.57,0-.57,0-7.48,1.41Z" transform="translate(-551.14 -219.76)" fill="#fff"/><path d="M630.57,263.66c-5.19,3-13.38,6-16.45,6-.38,0-.64-.19-.64-.45s.19-.38.58-.51c8.38-2.88,14.65-7.23,20.86-14.4,4.54-5.25,7-9.41,8.89-15.17a19,19,0,0,0,1.22-4.86c0-1-.58-1.41-2-1.41a79.92,79.92,0,0,0-12.6,2.18,26.78,26.78,0,0,0-7.68,2.69,2.67,2.67,0,0,1-1,.38,8.55,8.55,0,0,1-3.9-1.86,6,6,0,0,1-2.18-5.12c0-.51.19-.89.51-.89.13,0,.26.13.52.45.76,1.15,2.62,1.85,4.86,1.85a151.4,151.4,0,0,0,16.38-2c4-.7,5.19-1.15,7.62-2.56,1.28-.77,1.6-.9,2.17-.9.77,0,1.8.58,5.44,3.14,1.35.89,2.24,1.79,2.24,2.17s-.57,1.09-2.94,2.69C646.37,249.84,640.1,258.1,630.57,263.66Z" transform="translate(-551.14 -219.76)" fill="#fff"/><path d="M689.9,261.17a73.68,73.68,0,0,0,.32-8.26c0-6.84-.2-7.61-1.8-7.61-.51,0-.51,0-4.41.7a10.56,10.56,0,0,0-3,1,2.87,2.87,0,0,1-.58.13c-1.92,0-4-2.56-4-4.93,0-.64.12-.89.44-.89.13,0,.13,0,.64.64s2.05,1,3.52,1c1.22,0,1.22,0,8.9-.77,4.74-.45,7.81-1.15,10.37-2.31a4.63,4.63,0,0,1,1.72-.57,8.17,8.17,0,0,1,3.91,1.85c1,.77,1.53,1.48,1.53,2.18a1.49,1.49,0,0,1-1.53,1.41h-.64l-.77-.07c-3.33-.12-3.33-.12-4.22-.12-2.05,0-3.91.06-6.21.25,1.47.9,2.37,1.73,2.37,2.18a2,2,0,0,1-.26.83c-.83,2.69-1.15,5.38-1.34,13,10.75-1.09,11.32-1.22,14.14-2.11a1.62,1.62,0,0,1,.58-.07c2.36,0,6.4,3.08,6.4,4.8a1.88,1.88,0,0,1-1.86,1.73,14.88,14.88,0,0,1-2.69-.45,55.92,55.92,0,0,0-11.58-1.15c-9.54,0-15.94.9-21.57,2.95a6.92,6.92,0,0,1-2.43.51c-1,0-1,0-4-1.92-1.47-.9-2-1.6-2-2.5s.26-1.79.64-1.79c.13,0,.26.06.38.32.51.7,2,1.09,4.29,1.09,1.28,0,1.28,0,8-.39l4.93-.44Z" transform="translate(-551.14 -219.76)" fill="#fff"/><path d="M741.1,257.39c0,.64.19.83.77.83,2.81,0,13.24-6.07,20.09-11.71a81.4,81.4,0,0,0,14.33-14.59c.26-.38.45-.51.64-.51a.68.68,0,0,1,.58.58,36.5,36.5,0,0,1-2.88,5.44,63.44,63.44,0,0,1-15.29,16.76,75.58,75.58,0,0,1-12.55,8.32c-2.94,1.54-4.67,2.82-5.5,4.1a1.13,1.13,0,0,1-.9.57c-1.47,0-5.76-4.22-5.76-5.63,0-.25,0-.25.58-1.47a11.61,11.61,0,0,0,.7-4.93v-4.41c-.06-6.08-.06-9.6-.06-10.5,0-6.46-1-9-4-9.47-.77-.06-1-.19-1-.51s.19-.45.64-.58a20.38,20.38,0,0,1,3.84-.76,8.6,8.6,0,0,1,4.8,2c2.24,1.67,3.07,2.69,3.07,3.52,0,.51,0,.58-.51,1.6-.89,1.41-1.6,8.19-1.66,16.58Z" transform="translate(-551.14 -219.76)" fill="#fff"/><path d="M815.53,229.55a7.31,7.31,0,0,0,4-1.72c1.15-.9,1.66-1.22,2.24-1.22s2.24,1,4.67,2.94c1.41,1.16,1.79,1.67,1.79,2.18s-.57,1.09-2,2A109.56,109.56,0,0,1,818,248.05a29,29,0,0,1,12.16,5.7c3.78,3,6,6.52,6,9.53a4,4,0,0,1-3.9,4c-1.54,0-2.24-.77-3.46-3.71a29.76,29.76,0,0,0-11.58-14.15c-4.22,5.44-6.34,7.68-9.41,10.24a50.46,50.46,0,0,1-17,9.28,14.45,14.45,0,0,1-3.13.77c-.32,0-.58-.19-.58-.45s.38-.57,2.11-1.34c7.17-3.27,14.85-9.73,20.61-17.47A63.51,63.51,0,0,0,817.38,237c1.09-2.63,1.54-3.84,1.54-4.42s-.38-.83-1-.83a7.4,7.4,0,0,0-2.56.58,83.83,83.83,0,0,0-11.33,4,5.93,5.93,0,0,1-1.92.64,8.07,8.07,0,0,1-3.58-2,4.32,4.32,0,0,1-1.54-3c0-1,.38-2,.7-2s.26,0,.58.57c.51.83,2,1.41,3.9,1.41s2.69-.13,9.41-1.54Z" transform="translate(-551.14 -219.76)" fill="#fff"/><path d="M865,256.62c0,2.24.06,4.36.13,5.12.19,2.63.25,4.8.25,5.64,0,3.26-1.27,5.76-2.88,5.76s-4.54-4-4.54-6.4a19.07,19.07,0,0,1,.64-3.59,161.19,161.19,0,0,0,.9-17c0-4.29-.32-16.7-.45-18.49-.32-4-1-4.8-4-4.8-.32,0-.51-.13-.51-.45,0-.83,3.84-2.63,5.69-2.63,1.41,0,2.82.84,4.61,2.69,1.09,1.28,1.73,2.31,1.73,3,0,.44-.07.57-.9,2.49a46.21,46.21,0,0,0-.89,10.43c6,.51,9.53,1.47,13,3.71,3.2,2.05,5.31,4.8,5.31,7.11a3.26,3.26,0,0,1-3.39,3.39,3.87,3.87,0,0,1-2.94-1.34c-.32-.32-.32-.32-2-3a22.57,22.57,0,0,0-10.05-8.58l.13,5.83.06,5.24Z" transform="translate(-551.14 -219.76)" fill="#fff"/><path d="M926.76,258.29a46.07,46.07,0,0,1-16.7,12,35.85,35.85,0,0,1-9.67,2.17c-.44,0-.7-.19-.7-.51s.19-.45.7-.58c6.15-1.53,13.25-6,18.24-11.39,3.52-3.84,5.64-7.16,8.39-13.56,1.34-3.14,1.73-4.23,1.73-4.87s-.77-1.15-2.12-1.15c-3.71,0-16.51,2.82-19.64,4.35-2,1-2,1-2.5,1-2.75,0-6.27-3.71-6.27-6.59,0-1,.19-1.54.57-1.54.2,0,.33.13.58.58.71,1.22,3,2.11,5.38,2.11a164.82,164.82,0,0,0,19.83-2.62,15.84,15.84,0,0,0,4.93-1.54c1.73-.77,2-.89,2.5-.89.89,0,2,.76,4.86,3.64,1.41,1.41,1.41,1.41,1.41,2a1.16,1.16,0,0,1-.26.7,1.92,1.92,0,0,1-.76.45,4.33,4.33,0,0,0-1.41.83C932.14,250.74,929.83,254.71,926.76,258.29Zm-22.53-31.87c.77.77,2.56,1.28,4.61,1.28A57.64,57.64,0,0,0,920.3,226a11.25,11.25,0,0,0,3.39-1.28c1-.57,1.34-.7,1.73-.7,2.24,0,6,2.24,6,3.65,0,.76-.77,1.21-2.31,1.47-2.75.32-4.73.64-7.87,1.28a62.06,62.06,0,0,1-10.56,1.53,6.77,6.77,0,0,1-5.5-2.43,8.42,8.42,0,0,1-1.79-3.07.41.41,0,0,1,.38-.32C903.92,226.1,904,226.16,904.23,226.42Z" transform="translate(-551.14 -219.76)" fill="#fff"/><path d="M969.07,236.59a3.54,3.54,0,0,1-3.52,3.4c-1.28,0-1.86-.52-2.76-2.44-1.53-3.39-6.07-7.61-9.34-8.57-.51-.13-.7-.26-.7-.45,0-.51,1.6-.83,3.9-.83C962.86,227.7,969.07,232.18,969.07,236.59Zm29.11-8.25c0,1-3.51,7.17-6.2,10.81a95.9,95.9,0,0,1-27.27,24.77,7.35,7.35,0,0,0-1.21.83c-.38.32-.77.71-1.22,1a1.81,1.81,0,0,1-.89.38c-1,0-2.63-1-4.48-2.69-2.43-2.3-3.33-3.65-3.33-5.05s.38-2.56.9-2.56c.19,0,.25,0,.57.64s2.31,1.53,3.78,1.53c3.45,0,9.4-3.13,16.38-8.64,8.38-6.59,17.66-15.55,21.57-20.73.44-.51.7-.77,1-.77A.54.54,0,0,1,998.18,228.34Z" transform="translate(-551.14 -219.76)" fill="#fff"/><path d="M1038.32,242.74a4.36,4.36,0,0,1-1.41.38c-1.09,0-3.2-1.34-4.29-2.69a6.47,6.47,0,0,1-1.47-3.58c0-.64.13-.83.38-.83s.13,0,.64.64,2.69,1.21,5.25,1.21,7.49-.44,16.89-1.53c-.89-12.35-1.47-14.27-4.28-14.27a.36.36,0,0,1-.39-.32c0-.71,2.56-1.73,4.16-1.73,2.18,0,6.53,2.82,6.53,4.22a1.65,1.65,0,0,1-.26.77c-.44,1-.57,2.63-.57,7.68,0,1.15,0,1.79.06,3a26.42,26.42,0,0,0,7-2.37c1.47-.83,1.6-.9,2.17-.9a8,8,0,0,1,3.46,1.35c1.79,1.21,2.62,2.3,2.62,3.39s-.83,1.47-2.24,1.47c-.38,0-1.6-.06-3.13-.19-.9-.06-3.46-.13-4.74-.13-1.66,0-2.81.07-5.12.26.26,5.76.83,12.41,2,23.23a39.67,39.67,0,0,1,.32,4.09,7.21,7.21,0,0,1-2.3,4.87,7.55,7.55,0,0,1-4.16,2.24c-.64,0-1-.39-1.16-1.28-.32-2.37-2.68-6.21-5.18-8.39a11.13,11.13,0,0,1-1-.89,5.51,5.51,0,0,0-.64-.51.48.48,0,0,1-.26-.39.56.56,0,0,1,.45-.51c.2,0,.2,0,2.31,1.09,3.71,2.05,4.09,2.24,4.67,2.24s1-.9,1-2.75-.13-5.51-.32-9.41c-.07-2.18-.13-3.52-.32-7.87-6.59,9.15-11.9,13.76-20.29,17.53-3.71,1.67-10,3.59-11.77,3.59-.32,0-.45-.13-.45-.39s.13-.32.45-.45a55.15,55.15,0,0,0,28.22-25.08A51.08,51.08,0,0,0,1038.32,242.74Z" transform="translate(-551.14 -219.76)" fill="#fff"/><path d="M1140,247.35c0,1.28-1.28,2.11-3.26,2.11-.58,0-2.63-.19-5.38-.45-1.34-.13-3.26-.19-5.63-.19-16,0-25.47.89-30.27,2.81a2.5,2.5,0,0,1-.9.2,11.4,11.4,0,0,1-5.5-2.12,5.94,5.94,0,0,1-2.31-5.18c0-1.15.32-1.79,1-1.79.2,0,.32.13.64.64,1,1.6,3.08,2.17,8.2,2.17,4.86,0,20.79-1,25.21-1.47a50.33,50.33,0,0,0,10.18-2.17C1137.32,243,1140,244.85,1140,247.35Z" transform="translate(-551.14 -219.76)" fill="#fff"/><path d="M1159,250.35a20.54,20.54,0,0,1-4.8,2.31.41.41,0,0,1-.38-.39c0-.32.12-.38,1.21-1.15,6.85-4.73,15.17-17.79,15.17-23.87,0-1.92-.83-3.52-1.92-3.9-.51-.13-.64-.26-.64-.39,0-.44,1.22-.83,2.56-.83a9.53,9.53,0,0,1,5.31,1.86c1.47,1,2.75,2.49,2.75,3.2,0,.51-1.34,3.13-3,5.88a3,3,0,0,0,1.09.2c2.31,0,7.23-1.73,9.92-3.46a4.87,4.87,0,0,1,2.24-1c1.35,0,6.21,4.41,6.21,5.63,0,.25-.26.57-.77,1a16.61,16.61,0,0,0-1.66,1.54c-6,10.81-8.07,13.89-12.61,18.43a62.72,62.72,0,0,1-22.33,14.4,31.3,31.3,0,0,1-6.66,1.73c-.19,0-.45-.2-.45-.39s.19-.38.71-.57c5.12-1.8,11.45-5.7,16.83-10.44a72.43,72.43,0,0,0,14.46-17.53c1.92-3.39,2.94-5.82,2.94-7.23a1.22,1.22,0,0,0-1.21-1.28,14.56,14.56,0,0,0-2.82.64,32,32,0,0,1-4.8,1,4,4,0,0,1-2.11-.77C1169.13,242.42,1164.72,246.83,1159,250.35Z" transform="translate(-551.14 -219.76)" fill="#fff"/></svg>