<svg id="Layer_1" data-name="Layer 1" xmlns="http://www.w3.org/2000/svg" viewBox="0 0 389.43 35.75"><path d="M365.05,277.86c-.43.47-.67.62-1.05.62-1,0-1.41-.85-1.41-2.84a3.43,3.43,0,0,1,.32-1.64c.23-.38.23-.38,3.15-3.07,1-.9,2-1.87,2-1.95,1-1,1.95-2.06,2.89-3.07,5.91-6.35,6.54-7.09,6.54-7.64s-.31-1.13-.66-1.13c-.82,0-2.26.94-4.21,2.77-1,1-1.67,1.36-2.34,1.36a3.36,3.36,0,0,1-2.8-3c0-.77.47-1.94.82-1.94.11,0,.19.11.23.39a1.49,1.49,0,0,0,1.4,1.2,27.63,27.63,0,0,0,6.27-2.29,2.77,2.77,0,0,1,1.52-.43c2.1,0,4.87,2.22,4.87,3.93,0,.82-.35,1.25-1.44,1.83a40.32,40.32,0,0,0-11.06,8.57c-1.56,1.87-2.3,2.88-2.3,3.19,0,.12.16.2.35.2a3.11,3.11,0,0,0,1.72-.59c2.68-1.4,13.59-5.29,14.79-5.29s3.31,2,3.31,3.27c0,.5-.5.85-1.32.85a6.79,6.79,0,0,1-.86,0,15.28,15.28,0,0,0-2.41-.15c-4.09,0-6.35.58-8.3,2.1a7.14,7.14,0,0,0-2.57,5.26,4.44,4.44,0,0,0,3,4.09,11.85,11.85,0,0,0,4,.62c.39,0,.82,0,1.25,0a4.6,4.6,0,0,1,.7,0c1.25,0,2.34,1.37,2.34,2.88,0,1.06-1.06,1.72-2.81,1.72-6.54,0-10.47-3.12-10.47-8.3,0-2.1.46-3.46,2.22-6.58A18.34,18.34,0,0,0,365.05,277.86Z" transform="translate(-362.59 -253.25)" fill="#333"/><path d="M421.67,263.88a25,25,0,0,1-3.89,12.66c-2.3,3.58-5.68,6.34-7.83,6.34a4.7,4.7,0,0,1-3.27-2.14,10.12,10.12,0,0,1-1.91-6.27c0-8.56,7.83-15.92,16.94-15.92a15,15,0,0,1,11,4.28,11.76,11.76,0,0,1,3.07,8.22,14.35,14.35,0,0,1-7.2,12.46,24.22,24.22,0,0,1-7.21,2.64,17,17,0,0,1-2.49.47c-.23,0-.39-.08-.39-.23s.12-.24.74-.43a20.72,20.72,0,0,0,7-3.62c3.39-2.77,5-6.31,5-11.1,0-5.22-1.76-8.76-5.14-10.47a9.27,9.27,0,0,0-4-.94c-.12,0-.39,0-.82,0A14.87,14.87,0,0,1,421.67,263.88Zm-8.8-.35a15.25,15.25,0,0,0-4.59,10.86c0,2.3,1.05,4.33,2.26,4.33s3.42-2,5.06-4.6c2.49-3.85,4-8.18,4-11.64a9.66,9.66,0,0,0-.23-2.18c0-.08,0-.16-.08-.27A14.77,14.77,0,0,0,412.87,263.53Z" transform="translate(-362.59 -253.25)" fill="#333"/><path d="M452.37,269.92c-2.34,3.31-4.36,5.68-4.87,5.68a.26.26,0,0,1-.27-.23c0-.16,0-.16,1.17-2.14,3.34-5.81,5.29-11.45,6.81-20l4,1.64c.47.19.74.5.74.85,0,.51-.23.7-1,.94l-.59.15a59.6,59.6,0,0,1-2.41,6.66l.43.23c.35.2.47.36.47.59s-.12.43-.47.66l-.35.27v22.32a.92.92,0,0,1-.66,1,5,5,0,0,1-2.15.47c-.66,0-.85-.2-.85-.86Zm4.09,1.05c2.14-.82,2.49-.94,4.63-1.79V258.47l3.74.31c.78.08,1.05.23,1.05.7,0,.23-.16.47-.51.74l-.78.55v7l3.78-1.52V253.76L472,254c.78,0,1.13.27,1.13.82a.87.87,0,0,1-.62.81l-.82.47v8.72l3.55-1.44,1.48-3L480,263.1a1.2,1.2,0,0,1,.5.9c0,.43-.15.62-.58.81l-.62.24V276c0,1.64-.28,2.1-1.48,2.84a5.67,5.67,0,0,1-2,.7c-.78,0-.93-.31-.93-1.67,0-.66,0-.7-2.54-1.71-.19-.08-.27-.16-.27-.28s.12-.27.35-.27h.31l.86,0c.51,0,1.09,0,1.21,0,.82,0,1.13-.31,1.13-1.09v-10.4l-4.21,1.75V280c0,.9-1,1.52-2.45,1.52-.7,0-.86-.16-.86-.86V267.39l-3.78,1.55v14.68c0,1,.12,1.21.67,1.37a5.79,5.79,0,0,0,1.55.11l3.51,0,2.92,0c4.32,0,4.83-.11,5.68-.81.47-.43.71-1,2.42-5.53.16-.39.23-.51.47-.51s.27.16.27.47,0,.19-.23,3c-.08.74-.12,1.63-.12,1.9,0,.67,0,.67,1.28,1.56a1.26,1.26,0,0,1,.59,1c0,.78-.82,1.48-2.07,1.72a53.26,53.26,0,0,1-7.28.27c-.89,0-2.33,0-4.24,0-1.56,0-3.16,0-3.74-.08-4.52,0-5.26-.62-5.18-3.89V270.54c-1.75.82-2,1-3.74,1.87Z" transform="translate(-362.59 -253.25)" fill="#333"/><path d="M512,263.88a25.12,25.12,0,0,1-3.89,12.66c-2.3,3.58-5.69,6.34-7.83,6.34a4.7,4.7,0,0,1-3.27-2.14,10.12,10.12,0,0,1-1.91-6.27c0-8.56,7.83-15.92,16.94-15.92A15,15,0,0,1,523,262.83a11.72,11.72,0,0,1,3.08,8.22,14.37,14.37,0,0,1-7.2,12.46,24.22,24.22,0,0,1-7.21,2.64,17.3,17.3,0,0,1-2.49.47c-.23,0-.39-.08-.39-.23s.12-.24.74-.43a20.81,20.81,0,0,0,7-3.62c3.39-2.77,5-6.31,5-11.1,0-5.22-1.76-8.76-5.15-10.47a9.2,9.2,0,0,0-4-.94c-.11,0-.39,0-.81,0A14.87,14.87,0,0,1,512,263.88Zm-8.8-.35a15.25,15.25,0,0,0-4.59,10.86c0,2.3,1.05,4.33,2.26,4.33s3.42-2,5.06-4.6c2.49-3.85,4-8.18,4-11.64a9.66,9.66,0,0,0-.23-2.18c0-.08,0-.16-.08-.27A14.71,14.71,0,0,0,503.23,263.53Z" transform="translate(-362.59 -253.25)" fill="#333"/><path d="M550.59,278.05c0,.39.12.51.47.51,1.71,0,8.06-3.7,12.23-7.12a50.5,50.5,0,0,0,8.72-8.88c.15-.24.27-.31.39-.31a.41.41,0,0,1,.35.35,22.9,22.9,0,0,1-1.75,3.31,38.79,38.79,0,0,1-9.31,10.2,46.7,46.7,0,0,1-7.63,5.06,8.71,8.71,0,0,0-3.35,2.49.67.67,0,0,1-.55.35c-.89,0-3.5-2.57-3.5-3.42,0-.16,0-.16.35-.9a7.06,7.06,0,0,0,.43-3V274c0-3.69,0-5.84,0-6.38,0-3.93-.62-5.45-2.42-5.76-.46,0-.58-.12-.58-.32s.12-.27.39-.35a12.62,12.62,0,0,1,2.34-.46,5.23,5.23,0,0,1,2.92,1.24c1.36,1,1.87,1.64,1.87,2.14,0,.32,0,.35-.32,1-.54.85-1,5-1,10.08Z" transform="translate(-362.59 -253.25)" fill="#333"/><path d="M602.31,261.12a4.49,4.49,0,0,0,2.46-1.06c.7-.54,1-.74,1.36-.74s1.36.59,2.84,1.8c.86.7,1.09,1,1.09,1.32s-.35.66-1.24,1.21a66.33,66.33,0,0,1-5,8.72,17.65,17.65,0,0,1,7.4,3.46c2.3,1.84,3.62,4,3.62,5.81a2.44,2.44,0,0,1-2.37,2.41c-.94,0-1.37-.47-2.11-2.26a18.05,18.05,0,0,0-7-8.6,34.94,34.94,0,0,1-5.73,6.23,30.78,30.78,0,0,1-10.32,5.64,8.16,8.16,0,0,1-1.91.47.32.32,0,0,1-.35-.27c0-.2.24-.35,1.29-.82a34.63,34.63,0,0,0,12.54-10.63,38.41,38.41,0,0,0,4.63-8.18,11,11,0,0,0,.94-2.68c0-.32-.24-.51-.63-.51a4.5,4.5,0,0,0-1.55.35,52.43,52.43,0,0,0-6.9,2.45,3.58,3.58,0,0,1-1.17.39,5,5,0,0,1-2.18-1.24,2.65,2.65,0,0,1-.93-1.83c0-.59.23-1.25.43-1.25s.15,0,.35.35a2.85,2.85,0,0,0,2.37.86c1.13,0,1.64-.08,5.73-.94Z" transform="translate(-362.59 -253.25)" fill="#333"/><path d="M646.05,277.59c0,1.36,0,2.65.08,3.11.12,1.6.15,2.92.15,3.43,0,2-.77,3.5-1.75,3.5s-2.76-2.45-2.76-3.89a11.64,11.64,0,0,1,.39-2.18,100.63,100.63,0,0,0,.54-10.36c0-2.61-.19-10.16-.27-11.25-.2-2.42-.59-2.92-2.45-2.92-.2,0-.32-.08-.32-.28,0-.5,2.34-1.59,3.47-1.59.86,0,1.71.5,2.8,1.63a3.67,3.67,0,0,1,1.05,1.79c0,.28,0,.36-.54,1.52a28.14,28.14,0,0,0-.55,6.35c3.67.31,5.81.9,8,2.26,1.95,1.25,3.23,2.92,3.23,4.32A2,2,0,0,1,655,275.1a2.36,2.36,0,0,1-1.79-.82,10.74,10.74,0,0,1-1.25-1.83,13.7,13.7,0,0,0-6.11-5.22l.07,3.54,0,3.2Z" transform="translate(-362.59 -253.25)" fill="#333"/><path d="M697.27,278.6a28.11,28.11,0,0,1-10.17,7.28,21.65,21.65,0,0,1-5.88,1.33c-.27,0-.43-.12-.43-.32s.12-.27.43-.35a24.64,24.64,0,0,0,11.1-6.93,25.75,25.75,0,0,0,5.1-8.25,10.43,10.43,0,0,0,1.05-3c0-.47-.47-.7-1.28-.7a51,51,0,0,0-12,2.64c-1.24.59-1.24.59-1.52.59-1.67,0-3.81-2.26-3.81-4,0-.63.11-.94.35-.94s.19.08.35.35c.43.74,1.83,1.29,3.27,1.29a101,101,0,0,0,12.07-1.6,10,10,0,0,0,3-.93c1-.47,1.25-.55,1.52-.55.54,0,1.21.47,3,2.22.85.86.85.86.85,1.21a.72.72,0,0,1-.15.43,1.28,1.28,0,0,1-.47.27,2.78,2.78,0,0,0-.86.51C700.54,274,699.13,276.42,697.27,278.6Zm-13.71-19.39a4.35,4.35,0,0,0,2.8.78,34.9,34.9,0,0,0,7-1.05,7,7,0,0,0,2.07-.78c.62-.35.81-.43,1.05-.43,1.36,0,3.62,1.36,3.62,2.22,0,.47-.47.74-1.4.89-1.68.2-2.88.39-4.79.78a37.84,37.84,0,0,1-6.43.94,4.14,4.14,0,0,1-3.35-1.48,5.23,5.23,0,0,1-1.09-1.87.26.26,0,0,1,.24-.2C683.36,259,683.4,259.05,683.56,259.21Z" transform="translate(-362.59 -253.25)" fill="#333"/><path d="M734.31,265.4a2.15,2.15,0,0,1-2.15,2.06c-.78,0-1.13-.31-1.67-1.48a11.35,11.35,0,0,0-5.69-5.21c-.31-.08-.42-.16-.42-.28,0-.31,1-.5,2.37-.5C730.53,260,734.31,262.71,734.31,265.4Zm17.71-5c0,.62-2.14,4.36-3.77,6.58A58.58,58.58,0,0,1,731.66,282a4.36,4.36,0,0,0-.74.5c-.24.2-.47.43-.74.63a1.18,1.18,0,0,1-.55.23,5.07,5.07,0,0,1-2.72-1.64c-1.48-1.4-2-2.22-2-3.07s.24-1.56.55-1.56c.11,0,.15,0,.35.39a3.14,3.14,0,0,0,2.3.93c2.1,0,5.72-1.9,10-5.25,5.1-4,10.75-9.47,13.13-12.62.27-.31.42-.47.58-.47A.33.33,0,0,1,752,260.38Z" transform="translate(-362.59 -253.25)" fill="#333"/></svg>