<svg xmlns="http://www.w3.org/2000/svg" viewBox="0 0 661.02 30.26">
  <defs>
    <style>
      .cls-1 {
        fill: #2d2d2d;
      }
    </style>
  </defs>
  <title>Asset 1</title>
  <g id="Layer_2" data-name="Layer 2">
    <g id="Layer_1-2" data-name="Layer 1">
      <g id="Layer_2-2" data-name="Layer 2">
        <g id="_レイヤー_" data-name=" レイヤー ">
          <g>
            <path class="cls-1" d="M19.88,6.79l-.41-.28c-.16-.1-.27-.18-.34-.21-.57-.37-.79-.48-1.11-.48s-.42,0-1.14.48a6,6,0,0,1-2.76.83C10.88,7.6,6.69,8,5.54,8s-2.28-.5-2.46-1.08c-.1-.23-.16-.37-.35-.37-.4,0-.45.56-.45,1a2.62,2.62,0,0,0,.79,1.82,4.45,4.45,0,0,0,1.94,1,1.79,1.79,0,0,0,.6-.17A42.64,42.64,0,0,1,16.42,8.39c.54,0,.85.25.85.69A12.33,12.33,0,0,1,15.85,13a27.59,27.59,0,0,1-6.51,7.91A34.45,34.45,0,0,1,.57,25.71c-.35.12-.57.21-.57.44s.32.45.58.45H.87a3.41,3.41,0,0,0,.46-.1,27.27,27.27,0,0,0,8.8-3.77c4.32-2.77,6.73-5.8,10.33-12.92,1.14-.68,1.5-1,1.5-1.36S21.78,7.93,19.88,6.79Z"/>
            <path class="cls-1" d="M43.13,8.16a3.22,3.22,0,0,0-1.77-.74c-.61,0-1.27.19-1.27.55a.37.37,0,0,0,.33.35c.47.12.88.53.88.79,0,1-2.47,4.21-5.51,7.24-2.83,2.84-5.92,5.24-7.7,6h0c-.1.06-.19.12-.19.24a.47.47,0,0,0,.48.39,17.43,17.43,0,0,0,3.72-1.65A38.17,38.17,0,0,0,38.68,16a3.24,3.24,0,0,1,.21,1.45,80.63,80.63,0,0,1-.68,9.69,2.73,2.73,0,0,0-.07.51c0,.7,1,1.5,2,1.5.56,0,.84-.46.84-1.37V26.53c0-.49-.07-1.32-.07-1.37V19a6.59,6.59,0,0,1,.27-2.34,0,0,0,0,0,0-.05v-.07a1.31,1.31,0,0,0,0-.28c0-.34-.15-.43-1.69-1.11a39.31,39.31,0,0,0,3.85-4,1.7,1.7,0,0,1,1-.78.51.51,0,0,0,.33-.5C44.65,9.27,44.15,8.84,43.13,8.16Z"/>
            <path class="cls-1" d="M70.62,13.4a14,14,0,0,0-6.78-2.13c.06-3.54.26-5,.77-5.89a2.28,2.28,0,0,0,.17-.67c0-.27-.2-.53-.68-.86-1.41-.9-1.9-1.16-2.44-1.16a8.57,8.57,0,0,0-2,.54c-.17.08-.36.18-.36.44s.22.38.45.41a1.51,1.51,0,0,1,1.46.76c.38.63.5,1.79.5,4.76,0,6.25-.25,13.65-.52,15.52A5.33,5.33,0,0,0,61,26c0,.9,1.16,2.41,1.86,2.41s1.29-1,1.29-2.51a10.53,10.53,0,0,0-.09-1.47c-.16-2.1-.23-5.11-.26-11.11V12.09a11.54,11.54,0,0,1,5.93,4.68c.84,1.28,1.23,1.59,2,1.59a1.46,1.46,0,0,0,1.49-1.43V16.8C73.25,15.71,72.42,14.63,70.62,13.4Z"/>
            <path class="cls-1" d="M108.69,6.77c-.23,0-.36.15-.65.56s-2.07,2.4-2.73,3.06a66.74,66.74,0,0,1-6.08,5.43C94.58,19.51,90.59,22,89.3,22a2.21,2.21,0,0,1-1.84-1.59.38.38,0,0,0-.38-.3c-.35,0-.51.62-.51,1.23a2.53,2.53,0,0,0,.84,2.14,5.07,5.07,0,0,0,2.44,1.73c.36,0,.72-.21,1.37-.8A51,51,0,0,0,99,19a50.89,50.89,0,0,0,7-7c1.49-1.82,3.09-4.19,3.09-4.81a.39.39,0,0,0-.31-.44Z"/>
            <path class="cls-1" d="M91.51,11.32c.34.62.6.81,1.08.81a1.49,1.49,0,0,0,1.62-1.37.76.76,0,0,0,0-.15c0-2.07-3.16-4.1-6.39-4.1-.49,0-1.65,0-1.65.51,0,.22.25.31.39.35A7.11,7.11,0,0,1,91.51,11.32Z"/>
            <path class="cls-1" d="M141.81,11.67a3.73,3.73,0,0,0-1.85-.76c-.26,0-.32,0-.87.3-1,.46-2.58.78-6,1.18a11.47,11.47,0,0,1,.06-1.28,3.08,3.08,0,0,1,.26-1V10a.67.67,0,0,0,0-.2c0-.46-.68-1-2.2-1.87a41,41,0,0,0,4-1.8c1.37-.68,1.56-.81,1.56-1.18,0-.77-3.24-2.31-4.52-2.31-.17,0-.45.07-.45.25a.43.43,0,0,0,.21.3,1.19,1.19,0,0,1,.41,1c0,.48-.47.82-3.36,2.37a25.24,25.24,0,0,1-6.8,2.63l-.26.07-.28.06-.34.1c-.13,0-.47,0-.47.31s.1.49,1,.49c2.19,0,3.94-.38,7.52-1.6.7.08,1.06,1.17,1.06,3.23v.81h-.14a47.51,47.51,0,0,1-4.77.45h0l-2.45.16c-2.15.17-2.15.17-2.5.17a4.08,4.08,0,0,1-2.75-.72.56.56,0,0,0-.48-.23.28.28,0,0,0-.28.3v0a2.38,2.38,0,0,0,.61,1.74A3.86,3.86,0,0,0,120.07,16a5,5,0,0,0,1.52-.37A49.53,49.53,0,0,1,130.3,14c-.42,6.11-3.44,10.88-8.52,13.43-.48.23-.59.29-.59.54a.46.46,0,0,0,.5.42h0a4,4,0,0,0,1.65-.54A16.15,16.15,0,0,0,130.88,21,19.53,19.53,0,0,0,133,13.79c1.09-.07,3.25-.16,4.23-.16a32,32,0,0,1,4.58.39c.24,0,.49.06.73.07a1,1,0,0,0,.94-.88C143.44,12.79,143.18,12.54,141.81,11.67Z"/>
            <path class="cls-1" d="M156.05,17.58c.26.9.47,1.27,1.16,1.27a1.39,1.39,0,0,0,1.27-1.53,3.52,3.52,0,0,0-1.75-2.77h0a6.46,6.46,0,0,0-3.29-1.4h-.07c-.38,0-.55.18-.55.36s.13.27.5.44A6.39,6.39,0,0,1,156.05,17.58Z"/>
            <path class="cls-1" d="M168.46,10.32c-.67,0-1.07.18-1.07.48s.18.29.38.35a1.22,1.22,0,0,1,.79,1.15,11.78,11.78,0,0,1-.51,2.34,19.81,19.81,0,0,1-2,4.05,28.23,28.23,0,0,1-7.43,7.23,23.27,23.27,0,0,1-4.85,2.52.29.29,0,0,0-.29.29.57.57,0,0,0,.52.48,1.26,1.26,0,0,0,.28-.05h.08s.26-.08.64-.16h0c6.21-1.37,13.12-7.69,16.08-14.71.65-.49.84-.66.84-1s-.33-.77-1.47-2A2.62,2.62,0,0,0,168.46,10.32Z"/>
            <path class="cls-1" d="M158.37,11.21c1.14.51,2.54,2.74,2.83,4.51a1,1,0,0,0,1,.85,1.43,1.43,0,0,0,1.36-1.5h0c0-2-2.79-4.52-5-4.52-.25,0-.45.14-.45.32A.39.39,0,0,0,158.37,11.21Z"/>
            <path class="cls-1" d="M226.68,7.61c.14.5.38,1.07,1,1.07a1.51,1.51,0,0,0,1.44-1.56s0-.07,0-.1a4.68,4.68,0,0,0-2-3.58,13.29,13.29,0,0,0-3.51-2,.15.15,0,0,0-.16,0l-.23.33a.14.14,0,0,0,0,.17C225.17,3.35,226,4.67,226.68,7.61Z"/>
            <path class="cls-1" d="M215.41,11.27c.69,1.91.69,1.91.86,2.12a1.12,1.12,0,0,0,.92.41,1.53,1.53,0,0,0,1.39-1.66v0c0-1.74-2.33-3.51-5-3.78a.11.11,0,0,0-.13.09l-.1.33a.12.12,0,0,0,.06.14A4.86,4.86,0,0,1,215.41,11.27Z"/>
            <path class="cls-1" d="M233.45,10h9.16A.47.47,0,0,0,243,9.5h0a.59.59,0,0,0-.22-.43l-2.7-2a.12.12,0,0,0-.17,0h0l-1.59,2h-4.94l3.41-4.6.92-.31a1,1,0,0,0,.72-.87.67.67,0,0,0-.35-.57l-2.84-1.53a.11.11,0,0,0-.11,0,.1.1,0,0,0-.07.07A62.37,62.37,0,0,1,232,9h-9.5l.86-2.51a.13.13,0,0,0-.07-.16l-.53-.19a.11.11,0,0,0-.15,0h0l-6.72,13.94h-2.3a.12.12,0,0,0-.12.1l-.07.46a.15.15,0,0,0,.09.14c1.76.51,1.76.51,2,.77a3.61,3.61,0,0,1,.68,2.3c0,.25,0,.51,0,.77-.11,1.63-.16,2.48-.16,3a1.5,1.5,0,0,0,1.43,1.55h.1a1.73,1.73,0,0,0,1.62-1.82,5.85,5.85,0,0,0-.17-1.1c-.35-1.64-.84-4.52-.84-5a4.81,4.81,0,0,1,.35-1.45L222.13,10h4.75a25.21,25.21,0,0,1-7.3,10.8c-.68.61-.79.71-.79.9a.48.48,0,0,0,.39.39c.38,0,2.35-1.55,4.11-3.05v8.27L220,27.24c-.05,0-.09,0-.11.05a.13.13,0,0,0,0,.12l.45,1.07a.17.17,0,0,0,.12.08h2.28l1.4,0h19.28c.27,0,.45-.22.45-.55a.94.94,0,0,0-.26-.64l-1.93-1.86a.14.14,0,0,0-.09,0,.12.12,0,0,0-.09.05l-1.72,2H239v-7l.57-.22c.28-.1.47-.22.47-.51a.67.67,0,0,0-.3-.55l-1.92-1.79a.09.09,0,0,0-.1,0,.11.11,0,0,0-.09.06l-.91,1.31H225.48l-1-.8a28,28,0,0,0,5.23-8h2.46c2.43,4.68,5,7.13,9.93,9.66a.15.15,0,0,0,.16,0,5.52,5.52,0,0,1,1.54-1.79l.48-.4a.12.12,0,0,0,.05-.12.12.12,0,0,0-.09-.09C239,15.74,235.72,13.57,233.45,10Zm-8,17.35V19.86h2.42V27.4Zm4.36,0V19.86h2.43V27.4Zm4.47,0V19.83h2.55V27.4Z"/>
            <path class="cls-1" d="M217.56,4.16a10.51,10.51,0,0,0,.76,1.92,1.24,1.24,0,0,0,1.05.61c.75,0,1.27-.65,1.27-1.59,0-2-1.61-3.2-5.22-4a.11.11,0,0,0-.14.07l-.13.33a.12.12,0,0,0,0,.16A4.71,4.71,0,0,1,217.56,4.16Z"/>
            <path class="cls-1" d="M280.65,18.6c-.21,0-.31.17-.47.5-1.26,2.81-3.3,4.35-5.75,4.35-1.28,0-1.9-.64-1.9-2a56.32,56.32,0,0,1,1.27-8.28,10.19,10.19,0,0,0,.39-2.57c0-2.22-1.71-3.78-4.16-3.78s-4.69,1.4-8.67,5.48a9.72,9.72,0,0,0,.42-1.67c0-.56-.23-.83-.84-1A21.87,21.87,0,0,1,261.77,5c.17-.44.17-.45.17-.57,0-.8-2.35-2.15-3.45-2.15-.56,0-2.08.65-2.08,1a.29.29,0,0,0,.27.29h0c2.06.12,2.33.42,2.36,5.29v.63a20.79,20.79,0,0,0-3.3,1.74C254,12.44,253.51,13,253.51,14a5.72,5.72,0,0,0,1.16,2.9c.6,1,.86,1.47,1.39,2.44l-.5.74c-.93,1.35-1.17,1.71-1.5,2.15-.77,1-1,1.39-1,1.94a7.32,7.32,0,0,0,.54,2c.25.5.51.72.86.72a1.18,1.18,0,0,0,1.07-1.08A16.73,16.73,0,0,1,257,21.14a20.94,20.94,0,0,1,1.58,6.62c.06.74.13,1.22.58,1.22a3.66,3.66,0,0,0,1.64-.71,1.32,1.32,0,0,0,.51-1,4.68,4.68,0,0,0,0-.53c-.36-4.88-.46-7-.46-9.77v-2.2c4.13-4.48,6.47-6.15,8.61-6.15,1.19,0,1.9.94,1.9,2.52a19.72,19.72,0,0,1-.3,2.65c-.4,2.47-.68,5-.84,7.48,0,3,1.35,4.72,3.61,4.72a7.86,7.86,0,0,0,6.92-5.22,6.82,6.82,0,0,0,.47-1.45A.69.69,0,0,0,280.65,18.6ZM259.3,24.21a2.72,2.72,0,0,1-.11-.25c-.43-1.29-.85-2.38-1.54-4,.48-.89.72-1.36,1-1.95l.65-1.23c.08,2,.08,3.06.08,5.49A7.89,7.89,0,0,1,259.3,24.21Zm-.25-9.33-.8,1.37-1.31,2.19c-.24-.59-.39-1-.49-1.22s-.21-.53-.32-.76a4.45,4.45,0,0,1-.61-2,1.84,1.84,0,0,1,1-1.69,6.21,6.21,0,0,1,2.15-1c.17,0,.26.06.43.27v1.52A3.51,3.51,0,0,0,259.05,14.88Z"/>
            <path class="cls-1" d="M300.58,13.42a12.1,12.1,0,0,0-4.74,1l-.23.1-.24.1-.1.05h-.1a.23.23,0,0,1-.08-.17,11,11,0,0,1,2-2.56c2.67-3,4.48-4.6,5.86-5.21a.88.88,0,0,0,.59-.83c0-1-2.45-2.61-3.74-2.61a1.57,1.57,0,0,0-1.18.42,19.18,19.18,0,0,1-6.68,2.35,1,1,0,0,1-1.11-.72h0c0-.22-.08-.33-.27-.33-.35,0-.38.41-.38.9a2.75,2.75,0,0,0,.61,1.84,2.56,2.56,0,0,0,1.63,1,2.22,2.22,0,0,0,1.31-.61c3.34-2.33,4.1-2.74,5.08-2.74a.55.55,0,0,1,.59.52V6c0,.47,0,.49-1.8,2.8l-.1.12a83.67,83.67,0,0,1-9.24,11c-.67.66-.95,1.12-.95,1.52,0,.74.9,1.79,1.52,1.79a1.38,1.38,0,0,0,1.29-.95,14.84,14.84,0,0,1,2.43-3.82c2.09-2.54,4.15-3.58,7.11-3.58,3.15,0,4.89,1.74,4.89,4.9a7,7,0,0,1-1,3.52A5.23,5.23,0,0,1,301,25.43l-.07-.21a5,5,0,0,0-4.84-3.3c-2,0-3.32,1-3.32,2.6a2.4,2.4,0,0,0,.92,2.05,6.36,6.36,0,0,0,4,1.24,11.51,11.51,0,0,0,7.12-2.47,7,7,0,0,0,2.49-5.48A6.36,6.36,0,0,0,301,13.41Zm-4.53,9.8c1.4,0,2.3.93,2.66,2.77h-.07a5.6,5.6,0,0,1-1,.06c-1.79,0-3-.67-3-1.67A1.26,1.26,0,0,1,296.05,23.22Z"/>
            <path class="cls-1" d="M329.08,24.3a3,3,0,0,0-1.72-2.49,11.56,11.56,0,0,0-3.17-1.19V18.85h4.86a.54.54,0,0,0,.52-.52,1.12,1.12,0,0,0-.44-.75L327,15.85a.09.09,0,0,0-.1,0h-.08l-1.46,1.94h-1.12V15.25l.69-.33a1,1,0,0,0,.55-.79c0-.4-.36-.71-.87-.75l-2.44-.19a.07.07,0,0,0-.09,0,.14.14,0,0,0,0,.09v4.54h-2.64c-.81,0-1.87-.06-3.73-.14a.1.1,0,0,0-.1.05.13.13,0,0,0,0,.12l.39,1a.16.16,0,0,0,.12.09h5.31a26,26,0,0,1-5.58,7.73c-.64.5-.83.72-.83.94a.45.45,0,0,0,.45.45h0c.38,0,1.25-.57,2.59-1.69a27.87,27.87,0,0,0,4-4.2v7.15c0,.27.05.64.51.64.92,0,1.69-.47,1.69-1V21.85a4.92,4.92,0,0,1,1.86,1.79,10.54,10.54,0,0,0,1,1.67,1.22,1.22,0,0,0,1.72-.16,1.18,1.18,0,0,0,.28-.84Z"/>
            <path class="cls-1" d="M316.54,14.51a28.34,28.34,0,0,0,4.29-2A39.49,39.49,0,0,0,329,7v7.43a.52.52,0,0,0,.44.6h.14c.95,0,1.66-.4,1.66-.94V6.32c2.63,3.42,5.91,5.74,10.91,7.73a.14.14,0,0,0,.16-.06,6.12,6.12,0,0,1,2.18-2.47.15.15,0,0,0,0-.13.11.11,0,0,0-.1-.09c-5.39-.94-9.1-2.65-12.39-5.68h10.93c.53,0,.64-.29.64-.52a1.06,1.06,0,0,0-.47-.72l-2.31-1.82a.13.13,0,0,0-.18,0l-1.72,2h-7.64V2.42l.74-.58a.85.85,0,0,0,.3-.68c0-.63-.6-.67-.8-.68l-2.35-.1h0a.14.14,0,0,0-.09,0,.14.14,0,0,0,0,.09V4.58H323.8c-.55,0-1.63,0-3.23-.09-.46,0-1.63,0-3.18-.1a.11.11,0,0,0-.11,0,.13.13,0,0,0,0,.12l.49,1.14s.07.09.12.08h2.84c1.8-.07,2.92-.09,3.09-.09H327a31.32,31.32,0,0,1-8.35,6.8c-2.31,1.31-2.51,1.47-2.51,1.71A.4.4,0,0,0,316.54,14.51Z"/>
            <path class="cls-1" d="M338.07,18.85h6.5a.52.52,0,0,0,.55-.49V18.3a.89.89,0,0,0-.41-.69l-2.32-1.76a.12.12,0,0,0-.17,0l-1.69,2H338V15.41l.85-.49a1,1,0,0,0,.48-.73c0-.27-.31-.54-.67-.58L336,13.45h-.1a.14.14,0,0,0,0,.09v4.28H335c-.93,0-1.1,0-4.36-.13a.09.09,0,0,0-.1,0,.13.13,0,0,0,0,.12l.32,1a.16.16,0,0,0,.12.09h0l4.16-.1a44.55,44.55,0,0,1-6.82,8.25c-1.12,1-1.12,1-1.12,1.14a.45.45,0,0,0,.38.42c.36,0,1.53-.81,3.47-2.41a42.26,42.26,0,0,0,4.79-4.67v7.79c0,.39.17.58.54.58,1.06,0,1.6-.28,1.6-.81V21a17.9,17.9,0,0,0,5.43,6.68.17.17,0,0,0,.1,0,.14.14,0,0,0,.08-.05,5.26,5.26,0,0,1,2.18-2,.14.14,0,0,0,.06-.11.12.12,0,0,0-.07-.11C342,23.75,339.17,21.36,338.07,18.85Z"/>
            <path class="cls-1" d="M371.77,25.62a1.09,1.09,0,0,0-.44,0,10,10,0,0,1-2.25.22c-3.89,0-5.34-1.43-5.34-5.25a21.47,21.47,0,0,1,.91-6.32A9.59,9.59,0,0,1,368.76,9a9.59,9.59,0,0,1,3.8-.87,8.32,8.32,0,0,1,2.27.34,2.91,2.91,0,0,0,1,.23c.56,0,1-.32,1-.76a3.51,3.51,0,0,0-.89-1.54,2.4,2.4,0,0,0-1.8-1c-.49,0-.49,0-3.95.86h0L367.38,7c-3.36.75-5.91,1.46-10.7,2.89a5.83,5.83,0,0,1-2.33.49c-1.1,0-1.67-.28-2-1-.06-.13-.12-.23-.3-.23a.3.3,0,0,0-.31.3v0a3.79,3.79,0,0,0,.69,2.32,4.48,4.48,0,0,0,2.47,1.35c.57,0,.87-.14,1.78-.79,2.07-1.5,8.49-4,10.26-4h0a.22.22,0,0,1-.11.16,9.74,9.74,0,0,0-1.63,1.82,19.21,19.21,0,0,0-3.85,11.21c0,4.45,3.46,7.11,9.26,7.11,1.82,0,3-.19,3-1.11a2.9,2.9,0,0,0-.6-1.35A1.68,1.68,0,0,0,371.77,25.62Z"/>
            <path class="cls-1" d="M370.63,13c-1.2,0-1.2.26-1.2.35s.19.25.34.27a5,5,0,0,1,3,2.48c.23.41.45.66.83.66a1.31,1.31,0,0,0,1.24-1.23C374.87,14.26,372.77,13,370.63,13Z"/>
            <path class="cls-1" d="M373.92,11.3c-1.26,0-1.26.29-1.26.38s.19.23.3.25a5.3,5.3,0,0,1,3.19,2.62c.2.41.43.58.77.58a1.28,1.28,0,0,0,1.23-1.3C378.15,12.55,376.06,11.3,373.92,11.3Z"/>
            <path class="cls-1" d="M385.7,21.68a.12.12,0,0,0-.14.07l-.22.44a.12.12,0,0,0,.05.16c2.28,1.44,2.83,2.08,3.45,4,.38,1.39.39,1.41.66,1.75a1.51,1.51,0,0,0,1.11.49,1.72,1.72,0,0,0,1.64-1.78v0C392.25,24.64,389.62,22.58,385.7,21.68Z"/>
            <path class="cls-1" d="M423.93,22.8c-.35,0-.37,0-1.32.33a22.85,22.85,0,0,1-6.15.88c-5.32,0-8-1.71-8-5.09a8,8,0,0,1,.44-2.61.33.33,0,0,0,.05-.16c0-.17-.15-.29-.36-.29a.49.49,0,0,0-.4.26,8.17,8.17,0,0,0-1,3.68,5.77,5.77,0,0,0,3.19,5.36c1.89.94,4.51,1.38,8.24,1.38a21.22,21.22,0,0,0,6.86-.89,1.17,1.17,0,0,0,.76-1A2.42,2.42,0,0,0,423.93,22.8Z"/>
            <path class="cls-1" d="M414.4,8.68h0c-1,.72-3.15,2.35-3.15,2.74a.38.38,0,0,0,.32.39.43.43,0,0,0,.22-.09h0A14.13,14.13,0,0,1,420.11,9c1.2,0,1.25,0,1.5-.18a.88.88,0,0,0,.39-.69,1.93,1.93,0,0,0-1.84-2,1.78,1.78,0,0,0-.79.13l-.27.07a16.75,16.75,0,0,1-4.17.55c-2.42,0-4.14-.85-4.71-2.34-.12-.27-.19-.4-.37-.4s-.39.13-.39.49a4.77,4.77,0,0,0,1.24,2.73A6.06,6.06,0,0,0,414.4,8.68Z"/>
            <path class="cls-1" d="M444.7,8.68h0c-1,.72-3.15,2.35-3.15,2.74a.38.38,0,0,0,.32.39.43.43,0,0,0,.22-.09h.05A14.12,14.12,0,0,1,450.41,9c1.2,0,1.24,0,1.5-.18a1,1,0,0,0,.38-.69,2.71,2.71,0,0,0-2-2,2.63,2.63,0,0,0-.62.13l-.26.07a16.75,16.75,0,0,1-4.17.55c-2.43,0-4.14-.85-4.71-2.34-.13-.27-.19-.4-.38-.4s-.39.13-.39.49A4.8,4.8,0,0,0,441,7.31,6,6,0,0,0,444.7,8.68Z"/>
            <path class="cls-1" d="M454.22,22.8c-.35,0-.37,0-1.31.33a22.85,22.85,0,0,1-6.15.88c-5.33,0-8-1.71-8-5.09a8.26,8.26,0,0,1,.44-2.61.33.33,0,0,0,.05-.16.33.33,0,0,0-.33-.3h0a.49.49,0,0,0-.4.26,8,8,0,0,0-1,3.68,5.75,5.75,0,0,0,3.2,5.36c1.88.94,4.5,1.38,8.24,1.38a21.16,21.16,0,0,0,6.85-.89,1.18,1.18,0,0,0,.77-1A2.58,2.58,0,0,0,454.22,22.8Z"/>
            <path class="cls-1" d="M481.33,7.67a.66.66,0,0,0-.62-.71h-.32a8.34,8.34,0,0,1-3.28-1.37c.2-.85.32-1.27.43-1.6a1.45,1.45,0,0,0,.07-.35c0-.68-1.55-1.43-2.6-1.43-.81,0-2.47.84-2.47,1.36a.27.27,0,0,0,.25.26h.13a2.33,2.33,0,0,1,.53-.06c1.06,0,1.4.4,1.4,1.63a24.61,24.61,0,0,1-.47,4.44,17.46,17.46,0,0,1-4.84,1,2.76,2.76,0,0,1-2.63-1.33c-.11-.22-.24-.33-.41-.33s-.25.17-.25.32A3.7,3.7,0,0,0,469.63,13a17.26,17.26,0,0,0,4.3-1.07C472.8,17,470.29,23.7,468.62,26a2.66,2.66,0,0,0-.61,1.5A1.62,1.62,0,0,0,469.73,29c1,0,1.54-.69,2.21-2.73a121.23,121.23,0,0,0,4.06-15C480,9.6,481.33,8.72,481.33,7.67Zm-2.7.13a5.52,5.52,0,0,1-2.28,1.46c.44-2.23.48-2.45.51-2.66a2.81,2.81,0,0,1,.08-.31c1.17.9,1.69,1.34,1.69,1.51Z"/>
            <path class="cls-1" d="M490.79,24.73a2.76,2.76,0,0,0-.63.1,14.2,14.2,0,0,1-3.38.32c-4.23,0-5.88-1-5.88-3.66a7.5,7.5,0,0,1,.33-2.11,1.22,1.22,0,0,0,0-.27.34.34,0,0,0-.32-.32c-.61,0-1.3,2.47-1.3,3.78,0,3.48,2.81,5.18,8.57,5.18,3,0,4.07-.42,4.07-1.6A1.52,1.52,0,0,0,490.79,24.73Z"/>
            <path class="cls-1" d="M488.67,3.15c-.86,0-1.3.13-1.3.38s.2.24.31.25a5.53,5.53,0,0,1,3.19,2.56c.32.53.48.74.89.74A1.34,1.34,0,0,0,493,5.82C493,4.47,490.87,3.15,488.67,3.15Z"/>
            <path class="cls-1" d="M482,13.37c.11,0,.14,0,.27-.12a5.09,5.09,0,0,1,2.67-.66c1.43,0,2.64.44,2.64.72,0,.11-.46.36-1.17.74-1.79.92-1.79,1.14-1.79,1.22a.31.31,0,0,0,.33.29.44.44,0,0,0,.15-.05,9.65,9.65,0,0,1,3.26-.77,4.75,4.75,0,0,1,1.86.37.67.67,0,0,0,.39.12c.49,0,.84-.44.84-1.07,0-1.63-2.37-3.06-5.08-3.06a6.65,6.65,0,0,0-3.82,1.1c-.33.22-.83.69-.83.88A.32.32,0,0,0,482,13.37Z"/>
            <path class="cls-1" d="M484.1,5.41A5,5,0,0,1,487.29,8c.32.52.48.68.86.68a1.33,1.33,0,0,0,1.23-1.27c0-1.32-2.12-2.57-4.36-2.57-.78,0-1.17.12-1.17.35A.27.27,0,0,0,484.1,5.41Z"/>
            <path class="cls-1" d="M509.63,14.49c-.31,0-.39.18-.86,1.15-1.56,3.34-2.23,4.85-2.58,5.78-.09.27-.19.34-.21.34-.36,0-1-1.89-1-4,0-2.31.22-3.28,1.69-7.39A12,12,0,0,0,507.62,7c0-1.49-1.43-3.07-3.25-3.61l-.31-.09a.34.34,0,0,0-.22-.05.4.4,0,0,0-.38.39.23.23,0,0,0,.14.2h0c.8.27,1.22,1.16,1.22,2.55a24.05,24.05,0,0,1-.68,4.54,33.85,33.85,0,0,0-1,7.23,13.49,13.49,0,0,0,1.21,5.59c.66,1.38,1.77,2.42,2.59,2.42.46,0,1.24-.55,1.24-1a1,1,0,0,0-.14-.44,9.35,9.35,0,0,1-.29-1.81,23.05,23.05,0,0,1,2-7.47,1,1,0,0,0,.18-.52A.53.53,0,0,0,509.63,14.49Z"/>
            <path class="cls-1" d="M527.13,7.83a5.22,5.22,0,0,0-1.63-.54c-.21,0-.34.09-.55.3a7.58,7.58,0,0,1-3,1.84V8.33A11.15,11.15,0,0,1,522.26,5a.76.76,0,0,0,.11-.38c0-.48-.31-.74-1-1.15A4.7,4.7,0,0,0,519,2.66c-.53,0-2.25.82-2.25,1.23,0,.2.24.33.51.23h.27a2.18,2.18,0,0,1,1.87,1.22,19.85,19.85,0,0,1,.5,4.68,12.07,12.07,0,0,1-3.52.68,3.17,3.17,0,0,1-2.55-1c-.18-.17-.27-.27-.45-.27a.33.33,0,0,0-.35.29,2.76,2.76,0,0,0,.62,1.09A4.74,4.74,0,0,0,517,12.49a18.12,18.12,0,0,0,3.1-.46v2.29c0,5.38-.66,8.26-2.45,10.62a10.31,10.31,0,0,1-5,3.51c-.28.09-.47.22-.47.51s.13.38.48.38c1,0,4.1-1.33,5.68-2.46,2.82-2,4.13-5.4,4.13-10.73,0-1.43,0-2.48-.16-4.61,3.59-1.13,5.34-2.1,5.34-2.95A1,1,0,0,0,527.13,7.83Z"/>
            <path class="cls-1" d="M548.65,5.46c-7.4,0-13.42,5.7-13.42,12.71A7.78,7.78,0,0,0,537,23.4a3,3,0,0,0,2.35,1.28c1.73,0,3.52-1.21,5.44-3.7a18,18,0,0,0,4-10.44,30.58,30.58,0,0,0-.43-3.82h.76a8.22,8.22,0,0,1,5,1.67c1.83,1.38,2.75,3.57,2.75,6.52a11.71,11.71,0,0,1-3.67,9,14.79,14.79,0,0,1-6.11,3.2c-.48.13-.65.18-.65.38s.27.42.55.42a20.06,20.06,0,0,0,4.51-1.09c5.2-1.87,8.3-6.12,8.3-11.36C559.73,9.56,555.17,5.46,548.65,5.46Zm-9.19,16.92c-1.16,0-2-1.77-2-4.11a11.45,11.45,0,0,1,9.35-11.4v.07a6.09,6.09,0,0,1,.41,2.2A20.46,20.46,0,0,1,545,16.77C543.38,19.76,540.81,22.38,539.46,22.38Z"/>
            <path class="cls-1" d="M587.39,9h9.54c.17,0,.35-.23.35-.45a.46.46,0,0,0-.21-.39L594.43,6a.12.12,0,0,0-.16,0l-2.09,2h-5.43V2.62l.67-.55a1,1,0,0,0,.38-.65.79.79,0,0,0-.73-.68L584.46.41h-.1a.17.17,0,0,0,0,.1V8H580.9c-.55,0-1.46,0-2.51-.07l-3.16-.1a.09.09,0,0,0-.1,0,.13.13,0,0,0,0,.12l.39,1.08a.2.2,0,0,0,.12.08C578.37,9,579.4,9,580.92,9h2.65a56,56,0,0,1-7.86,12.53c-.92,1-1.08,1.3-1.08,1.49a.4.4,0,0,0,.42.35c.49,0,2.69-2.13,4.37-4.05a41.38,41.38,0,0,0,5-6.64V21.2h-1c-1.58,0-2.31,0-4.36-.1a.1.1,0,0,0-.1,0,.11.11,0,0,0,0,.11l.29,1a.14.14,0,0,0,.12.09h1.14c1.41,0,2.12-.06,2.93-.06h1v7c0,.37.19.55.58.55a2.9,2.9,0,0,0,1.51-.48c.3-.23.34-.33.34-.88v-6.2h5.74a.43.43,0,0,0,.45-.41v0a.69.69,0,0,0-.24-.56l-2.28-1.79a.14.14,0,0,0-.17,0l-1.66,1.76h-1.84v-11A25.14,25.14,0,0,0,595,22.47a.14.14,0,0,0,.09,0l.09,0a5.81,5.81,0,0,1,2.6-2.28.16.16,0,0,0,.06-.12.11.11,0,0,0-.08-.11A18.17,18.17,0,0,1,587.39,9Z"/>
            <path class="cls-1" d="M574.17,8.5l-.41-.1c.89-2.25,1-2.7,1.79-5.06l.66-.28c.45-.18.63-.42.63-.8a.75.75,0,0,0-.46-.7h0l-3-1.08a.21.21,0,0,0-.11,0,.17.17,0,0,0-.06.1,44.52,44.52,0,0,1-5.81,16.9c-.44.72-.58,1-.58,1.17a.34.34,0,0,0,.32.32c.24,0,.41-.16.75-.6a29.16,29.16,0,0,0,3.79-5.49V29.51c0,.34.27.55.71.55a2.59,2.59,0,0,0,1.42-.49c.27-.23.34-.41.34-.91V9.94l.32-.35a.78.78,0,0,0,.23-.51A.59.59,0,0,0,574.17,8.5Z"/>
            <path class="cls-1" d="M607.46,24a5.34,5.34,0,0,0-1.87-3.87.12.12,0,0,0-.16,0l-.32.23a.11.11,0,0,0-.05.14,5.69,5.69,0,0,1,.55,2.57v1.1a1,1,0,0,0,0,.35.9.9,0,0,0,.2.66.81.81,0,0,0,.61.23A1.28,1.28,0,0,0,607.46,24Z"/>
            <path class="cls-1" d="M607,19.27l-.36.26a.14.14,0,0,0,0,.09.09.09,0,0,0,0,.1,7.25,7.25,0,0,1,1.43,3.51c0,.3.11.7.55.7a1.22,1.22,0,0,0,1.07-1.23c0-1.17-1-2.45-2.53-3.43A.12.12,0,0,0,607,19.27Z"/>
            <path class="cls-1" d="M609.66,20.54c.63,1.29.77,1.53,1.32,1.53a1,1,0,0,0,.84-1c0-1.16-1.43-2.39-3.48-3a.12.12,0,0,0-.15.08h0l-.13.39a.12.12,0,0,0,0,.14A5.72,5.72,0,0,1,609.66,20.54Z"/>
            <path class="cls-1" d="M632.76,10.15a3.74,3.74,0,0,0-.79-.47,19.73,19.73,0,0,1-5.58-4.14,14.42,14.42,0,0,1-2.22-3.2l.29-.08a.64.64,0,0,0,.53-.58.75.75,0,0,0-.47-.67l-2.64-1a.14.14,0,0,0-.16.07c-2.52,6-3.87,8.33-6.52,11.38l-2.15-1.69a.13.13,0,0,0-.18,0l-1.33,1.65h-1.31V7.93h4.53a.52.52,0,0,0,.52-.48.77.77,0,0,0-.28-.53l-2.09-1.56a.12.12,0,0,0-.17,0h0l-1.17,1.52h-1.31V3.46h5.84a.44.44,0,0,0,.45-.43V3a.71.71,0,0,0-.31-.55L614,.67a.14.14,0,0,0-.09,0,.1.1,0,0,0-.08,0l-1.37,1.74H606.3l-2.15-1.25a.11.11,0,0,0-.13,0,.11.11,0,0,0-.06.11V18.43c0,.27.22.45.55.45a5.61,5.61,0,0,0,1-.24.78.78,0,0,0,.52-.76V17h6.37v.07a36.3,36.3,0,0,1-.42,6.66c-.55,2.93-1,3.42-2.16,3.42a4,4,0,0,1-.77-.06l-2.8-.33a.13.13,0,0,0-.14.09l-.13.52a.14.14,0,0,0,.08.15l2,.79c.32.11,1,.33,1.09.39a3.15,3.15,0,0,1,.13.61.63.63,0,0,0,.6.66H610a4.39,4.39,0,0,0,3.27-2.54c.76-1.64,1-3.79,1.31-9.55l.49-.17a.7.7,0,0,0,.43-.54.75.75,0,0,0-.27-.48l-2-1.8h-.1a.11.11,0,0,0-.09.06l-.77,1h-2V12.49h4c-.62.65-.71.89-.71,1a.46.46,0,0,0,.39.32c.52,0,2.3-1.55,3.67-3h4c.09,1.32.09,1.59.09,3.07h-3l-2.22-1.35a.13.13,0,0,0-.12,0,.12.12,0,0,0-.07.11v9.42a.48.48,0,0,0,.41.52h.11c1,0,1.59-.32,1.59-.78v-2h3.06c-.63,4.34-2.57,7-6.67,9.28-.92.52-.94.53-.94.76a.47.47,0,0,0,.45.42,6.51,6.51,0,0,0,1.91-.73,13.55,13.55,0,0,0,5.1-3.72,10.93,10.93,0,0,0,2.06-5,16.47,16.47,0,0,0,6.74,8.76.14.14,0,0,0,.15,0l.17-.16.2-.2.27-.24.29-.26a5.86,5.86,0,0,1,.78-.42l.35-.21.49-.28a.14.14,0,0,0,.06-.11.12.12,0,0,0-.07-.11c-4.8-2.18-7.2-4.31-8.76-7.81h3.66v.95c0,.26.39.45.65.45.77,0,1.43-.37,1.43-.81V15.57l.55-.29a.51.51,0,0,0,.29-.4.8.8,0,0,0-.27-.52l-2-1.79a.09.09,0,0,0-.1,0,.1.1,0,0,0-.09.06l-.75,1.3h-3.61v-3.1h3.62a.34.34,0,0,0,.32-.35.91.91,0,0,0-.31-.62L625,8a.09.09,0,0,0-.1,0h-.08L623.5,9.83h-4.92a36.34,36.34,0,0,0,4.67-7,21.32,21.32,0,0,0,7.37,9.63.14.14,0,0,0,.17,0h0a7.34,7.34,0,0,1,2.19-2,.14.14,0,0,0,.06-.11.11.11,0,0,0-.06-.11Zm-9.16,8.68c.09-1.77.09-2.12.09-3.89h3.95v3.89Zm-1.92-3.89a38.24,38.24,0,0,1-.15,3.89h-3.19V14.94Zm-13.4-2.45V16h-2.23V12.49ZM606.05,6.9V3.46h2.23V6.9Zm2.23,1v3.53h-2.23V7.93Z"/>
            <path class="cls-1" d="M604.21,20.26h-.59a.09.09,0,0,0-.1,0,.17.17,0,0,0,0,.1,5.54,5.54,0,0,1,.07,1,5.82,5.82,0,0,1-.67,2.54c-.93,1.57-.93,1.57-.93,1.86a1.05,1.05,0,0,0,1.07.91c1,0,1.79-1.46,1.79-3.39a7.38,7.38,0,0,0-.5-2.91A.12.12,0,0,0,604.21,20.26Z"/>
            <path class="cls-1" d="M656.81,10.13A7.31,7.31,0,0,0,652,12.19a12.22,12.22,0,0,0-3,4.34,4.18,4.18,0,0,0-1.11-2,3.32,3.32,0,0,0-2.11-.75,4.29,4.29,0,0,0-1.76.42,34.88,34.88,0,0,0,3.37-6.36c3.14-.92,3.73-1.19,3.73-1.65s-.36-.58-1.46-1.12a.11.11,0,0,0-.15,0,4.22,4.22,0,0,1-1.74,1,4.31,4.31,0,0,0,.19-1,2.29,2.29,0,0,0-2.21-2c-.59,0-1.8.5-1.8.92a.24.24,0,0,0,.23.25h0a1.37,1.37,0,0,1,1.39,1.35,1.79,1.79,0,0,1,0,.23,5.31,5.31,0,0,1-.09.79,8.66,8.66,0,0,1-2.76.48A1.89,1.89,0,0,1,641,6.3a.37.37,0,0,0-.26-.18.26.26,0,0,0-.26.25A4.13,4.13,0,0,0,641,7.63a2.09,2.09,0,0,0,1.76,1.2,9.86,9.86,0,0,0,2.58-.47c-.65,2.83-2.72,5.83-6,8.69-.63.48-.81.74-.81,1.21,0,.82.64,2,1.23,2,.41,0,.79-.31,1.15-1a19,19,0,0,1,2.7-3.36,3.57,3.57,0,0,1,2.16-1.13,1.51,1.51,0,0,1,1.37,1,11.42,11.42,0,0,1,.4,3.86,21.79,21.79,0,0,0-3.68,2.41,4.12,4.12,0,0,0-1.66,3.07,3.9,3.9,0,0,0,2.25,3.34,10.52,10.52,0,0,0,5.21,1c4.38,0,6.51-.56,6.51-1.71a1.8,1.8,0,0,0-1.64-1.42,2.57,2.57,0,0,0-.86.16,18,18,0,0,1-4.61.57c-4.45,0-5.06-1-5.06-2.09,0-1.34,1.07-2.57,3.57-4.08a23.88,23.88,0,0,1-.15,3.16.71.71,0,0,0,0,.29c0,.1.05.44.7.44,1.34,0,1.7-.46,1.7-2.12,0-.48,0-1.41-.15-2.83a53.25,53.25,0,0,1,6.68-3l.42-.16c2.55-1,2.76-1.1,3.4-1.59a2,2,0,0,0,.88-1.78C660.92,11.52,659.11,10.13,656.81,10.13Zm-7.28,8.33a16.78,16.78,0,0,1,1.76-3.55c1.2-2,3.31-3.45,4.92-3.45a1.79,1.79,0,0,1,1.8,1.45,1.67,1.67,0,0,1-.59,1,32.05,32.05,0,0,1-4,2.36c-2.42,1.34-2.83,1.55-3.89,2.19Z"/>
            <path class="cls-1" d="M199.26,3.25c-.24,0-1,0-1,.33a.3.3,0,0,0,.24.26,6.13,6.13,0,0,1,3.36,2.81,1.07,1.07,0,0,0,1.07.69A1.24,1.24,0,0,0,204.1,6.1C204.06,4.63,201.73,3.25,199.26,3.25Z"/>
            <path class="cls-1" d="M196.56,13.67a14,14,0,0,0-7-2.19c.07-3.68.27-5.22.8-6.11a2.08,2.08,0,0,0,.18-.68c0-.27-.21-.53-.69-.86-1.52-1-2-1.19-2.5-1.19a8.35,8.35,0,0,0-2.08.58c-.19.06-.37.14-.37.39s.2.37.43.41a1.69,1.69,0,0,1,1.53.79c.41.66.52,1.72.52,4.92,0,7-.28,14.23-.53,16a4.42,4.42,0,0,0-.11.89c0,.89,1.2,2.45,1.88,2.45s1.31-1.07,1.31-2.55a10,10,0,0,0-.1-1.52c-.16-2.16-.23-5.26-.27-11.45v-1.3a11.85,11.85,0,0,1,6.17,4.82c.8,1.3,1.23,1.66,2,1.66a1.48,1.48,0,0,0,1.51-1.45v-.13C199.26,16,198.4,14.94,196.56,13.67Z"/>
            <path class="cls-1" d="M195.7,5.26c-.32,0-1.07,0-1.07.34,0,.13.1.18.26.26a5.78,5.78,0,0,1,3.2,2.67c.29.57.56.76,1.1.76A1.25,1.25,0,0,0,200.37,8C200.37,6.62,198.1,5.26,195.7,5.26Z"/>
          </g>
        </g>
      </g>
    </g>
  </g>
</svg>
