<svg id="_レイヤー_" data-name="&lt;レイヤー&gt;" xmlns="http://www.w3.org/2000/svg" viewBox="0 0 405.25 74.7"><defs><style>.cls-1{fill:#2d2d2d;stroke:#2d2d2d;stroke-linecap:round;stroke-linejoin:round;stroke-width:0.25px;}</style></defs><title>parkmap-subtext-sp</title><path class="cls-1" d="M523.3-54.38a27.15,27.15,0,0,1-8.77,3.75,2.28,2.28,0,0,1-.43.09,1.17,1.17,0,0,1-.29.07c-.19,0-.46-.16-.46-.33s.1-.19.49-.32a34.51,34.51,0,0,0,8.8-4.86,27.68,27.68,0,0,0,6.55-8,12.34,12.34,0,0,0,1.44-3.95c0-.52-.39-.81-1-.81A42.67,42.67,0,0,0,518.8-66.8a1.62,1.62,0,0,1-.56.16,4.18,4.18,0,0,1-1.85-1,2.43,2.43,0,0,1-.75-1.72c0-.62.09-.92.32-.92s.13.07.23.3c.2.62,1.34,1.14,2.58,1.14s5.47-.43,8.6-.88a5.82,5.82,0,0,0,2.8-.85c.72-.42.79-.45,1.08-.45s.49.09,1,.45c.13.07.39.26.75.49,1.79,1.08,2,1.27,2,1.5s-.32.59-1.47,1.27C530-60.25,527.6-57.15,523.3-54.38Z" transform="translate(-513.23 76.57)"/><path class="cls-1" d="M556.94-51.81s0,.72.06,1.37c0,.49,0,.91,0,1.27,0,.82-.23,1.24-.72,1.24-.85,0-1.83-.75-1.83-1.37a3.39,3.39,0,0,1,.07-.49,79.12,79.12,0,0,0,.68-9.71,3.05,3.05,0,0,0-.29-1.66,37.82,37.82,0,0,1-6.72,5.44,16.85,16.85,0,0,1-3.65,1.63c-.19,0-.35-.13-.35-.26s.06-.1.16-.16c1.79-.75,4.92-3.2,7.72-6,3.07-3.06,5.54-6.32,5.54-7.33,0-.33-.45-.79-1-.92-.17,0-.23-.09-.23-.22s.52-.43,1.14-.43a3.16,3.16,0,0,1,1.69.72c1.08.72,1.47,1.11,1.47,1.6a.38.38,0,0,1-.26.39,1.77,1.77,0,0,0-1,.81,37.76,37.76,0,0,1-4,4.14c1.7.75,1.8.82,1.8,1.08a1.71,1.71,0,0,1-.07.32,5.94,5.94,0,0,0-.29,2.41Z" transform="translate(-513.23 76.57)"/><path class="cls-1" d="M584.94-63.64c0,5.84.1,8.93.26,11.12.07.68.1,1.17.1,1.46,0,1.37-.49,2.38-1.17,2.38S582.4-50.15,582.4-51a4.2,4.2,0,0,1,.1-.85c.26-1.79.52-9,.52-15.54,0-3.07-.13-4.18-.52-4.83a1.65,1.65,0,0,0-1.57-.81c-.23,0-.32-.1-.32-.3s.09-.22.29-.32a8.9,8.9,0,0,1,2-.52c.49,0,.94.22,2.38,1.14.42.29.62.52.62.75a1.76,1.76,0,0,1-.17.62c-.52.88-.71,2.41-.78,6.06a13.85,13.85,0,0,1,6.84,2.12c1.76,1.2,2.58,2.25,2.58,3.29A1.33,1.33,0,0,1,593-58.72c-.72,0-1.07-.29-1.89-1.53A11.7,11.7,0,0,0,584.94-65Z" transform="translate(-513.23 76.57)"/><path class="cls-1" d="M618.32-66.34a1.37,1.37,0,0,1-1.5,1.4c-.42,0-.65-.17-1-.75a7.16,7.16,0,0,0-5-4c-.2-.07-.3-.13-.3-.23s.59-.39,1.53-.39C615.19-70.32,618.32-68.33,618.32-66.34Zm-4.24,14.47a4.89,4.89,0,0,1-2.34-1.7,2.4,2.4,0,0,1-.82-2c0-.62.17-1.11.39-1.11s.2.07.27.23a2.3,2.3,0,0,0,1.95,1.66c1.34,0,5.28-2.44,10-6.19a65,65,0,0,0,6.09-5.44c.65-.66,2.41-2.68,2.74-3.07s.39-.52.55-.52a.26.26,0,0,1,.26.29c0,.52-1.43,2.74-3.06,4.73a51.31,51.31,0,0,1-7,7,49.76,49.76,0,0,1-7.76,5.34C614.77-52.1,614.41-51.87,614.08-51.87Z" transform="translate(-513.23 76.57)"/><path class="cls-1" d="M649.71-63.74a38.29,38.29,0,0,0,5-.49,8.26,8.26,0,0,0,0-.91c0-2.18-.39-3.29-1.21-3.36-3.62,1.24-5.34,1.6-7.5,1.6-.52,0-.84-.13-.84-.36s.09-.16.36-.19l.35-.1c.2,0,.43-.1.66-.13a25,25,0,0,0,6.84-2.64c3-1.6,3.42-1.92,3.42-2.48a1.32,1.32,0,0,0-.45-1.07c-.1-.07-.17-.13-.17-.2s.17-.13.33-.13c1.3,0,4.4,1.53,4.4,2.18,0,.3-.13.4-1.5,1.08A39.23,39.23,0,0,1,655.19-69c1.6.85,2.38,1.47,2.38,1.89a2,2,0,0,1-.07.33,3.72,3.72,0,0,0-.26,1c0,.75-.06,1.44-.06,1.44,3.65-.42,5.25-.75,6.19-1.21.56-.29.59-.29.82-.29a3.65,3.65,0,0,1,1.79.75c1.33.85,1.56,1.07,1.56,1.43a.82.82,0,0,1-.81.75A7,7,0,0,1,666-63a32.94,32.94,0,0,0-4.59-.39c-1,0-3.3.09-4.34.16A19.78,19.78,0,0,1,655-56a16,16,0,0,1-7.47,6.84,3.79,3.79,0,0,1-1.6.52c-.22,0-.39-.13-.39-.29s0-.2.52-.43c5.19-2.6,8.22-7.43,8.61-13.68a51.1,51.1,0,0,0-8.9,1.62,4.36,4.36,0,0,1-1.47.36A3.68,3.68,0,0,1,642-62.5a2.2,2.2,0,0,1-.59-1.66c0-.13.07-.2.16-.2s.23,0,.4.2a4.12,4.12,0,0,0,2.83.75c.36,0,.36,0,2.51-.16Z" transform="translate(-513.23 76.57)"/><path class="cls-1" d="M681.89-62.3a3.4,3.4,0,0,1,1.69,2.67c0,.85-.45,1.4-1.14,1.4s-.78-.26-1-1.17a6.51,6.51,0,0,0-2.8-3.72c-.36-.16-.43-.19-.43-.32s.17-.23.43-.23A6.35,6.35,0,0,1,681.89-62.3ZM680.2-48.09a5.75,5.75,0,0,0-.66.16,1.56,1.56,0,0,1-.32.07.45.45,0,0,1-.39-.36c0-.1.06-.13.19-.17a23.33,23.33,0,0,0,4.89-2.54,28.33,28.33,0,0,0,7.47-7.27,20.21,20.21,0,0,0,2-4.07,12.26,12.26,0,0,0,.52-2.38,1.35,1.35,0,0,0-.88-1.27c-.23-.07-.3-.13-.3-.23s.39-.36,1-.36a2.46,2.46,0,0,1,1.89,1C696.65-64.45,697-64,697-63.7s-.13.42-.81.94C693.27-55.78,686.39-49.46,680.2-48.09Zm8.44-13.79a1.32,1.32,0,0,1-1.24,1.37.82.82,0,0,1-.85-.75c-.29-1.79-1.73-4.07-2.9-4.6-.13-.06-.2-.13-.2-.22s.13-.2.33-.2C685.87-66.28,688.64-63.8,688.64-61.88Z" transform="translate(-513.23 76.57)"/><path class="cls-1" d="M737.8-68.5c2.57.27,4.89,2,4.89,3.66a1.4,1.4,0,0,1-1.27,1.56,1,1,0,0,1-.82-.36c-.16-.19-.16-.19-.85-2.08a4.91,4.91,0,0,0-2-2.45Zm.06,11.87,2.38,0,6.75-14,.52.2-.91,2.67h9.74a61.1,61.1,0,0,0,3.1-7.89l2.84,1.53a.53.53,0,0,1,.29.46.93.93,0,0,1-.65.75l-.95.33-3.58,4.82h5.24l1.63-2,2.71,2a.45.45,0,0,1,.16.33c0,.23-.13.39-.29.39l-9.39,0c2.28,3.65,5.58,5.9,11,7.47l-.49.39a5.82,5.82,0,0,0-1.57,1.82c-5-2.54-7.49-5-9.91-9.68h-2.6a27.93,27.93,0,0,1-5.35,8.08l1.14.92h11.28l.94-1.37,1.93,1.79a.57.57,0,0,1,.26.46c0,.19-.1.29-.39.39l-.65.26v7.07h1l1.76-2,1.92,1.86a.83.83,0,0,1,.23.55c0,.26-.13.42-.33.42H749.34l-2.35.07c-.33,0-1.24,0-2.28.06l-.46-1.07,3.39.13v-8.67a23.23,23.23,0,0,1-4.23,3.19.36.36,0,0,1-.27-.26c0-.13.1-.23.75-.81a25.41,25.41,0,0,0,7.4-11h-5l-3.65,9.94a5,5,0,0,0-.36,1.5c0,.46.49,3.33.85,5a5.13,5.13,0,0,1,.16,1.07,1.61,1.61,0,0,1-1.49,1.7,1.37,1.37,0,0,1-1.41-1.44c0-.52.07-1.56.17-2.93a7.32,7.32,0,0,0,0-.78,3.67,3.67,0,0,0-.72-2.38c-.26-.29-.26-.29-2.05-.82Zm1.76-19.1c3.52.78,5.12,2,5.12,3.88,0,.85-.45,1.46-1.14,1.46a1.07,1.07,0,0,1-.94-.55,9.2,9.2,0,0,1-.75-1.89,4.85,4.85,0,0,0-2.42-2.57Zm8.15.33a13.29,13.29,0,0,1,3.49,2,4.6,4.6,0,0,1,2,3.49,1.38,1.38,0,0,1-1.34,1.53c-.39,0-.65-.29-.85-1-.72-3-1.53-4.3-3.49-5.7Zm4.4,26v-7.79H749.5v7.79Zm4.37,0v-7.79h-2.67v7.79Zm4.6,0v-7.82h-2.81v7.82Z" transform="translate(-513.23 76.57)"/><path class="cls-1" d="M784.94-60c0,2.8.09,4.89.45,9.78a3.59,3.59,0,0,1,0,.52,1.18,1.18,0,0,1-.45.94,3.54,3.54,0,0,1-1.57.69c-.29,0-.39-.26-.45-1.11a22,22,0,0,0-1.7-6.94,17.59,17.59,0,0,0-1.63,5,1,1,0,0,1-.94,1c-.3,0-.52-.2-.75-.65a7.16,7.16,0,0,1-.52-2c0-.49.19-.85,1-1.86.4-.52.66-.91,2.06-3-.56-1-.82-1.46-1.44-2.51a5.54,5.54,0,0,1-1.14-2.83c0-.95.52-1.53,2.19-2.61a22.1,22.1,0,0,1,3.35-1.76V-68c0-4.75-.26-5.28-2.47-5.41a.16.16,0,0,1-.17-.16c0-.26,1.37-.91,2-.91,1.11,0,3.32,1.37,3.32,2,0,.1,0,.1-.16.52a23.1,23.1,0,0,0-.85,4.76c.66.16.85.39.85.91a13.67,13.67,0,0,1-.55,2.12c4.17-4.34,6.45-5.8,8.93-5.8s4,1.5,4,3.65a10.33,10.33,0,0,1-.39,2.54,56.33,56.33,0,0,0-1.27,8.31,1.82,1.82,0,0,0,2,2.09c2.51,0,4.59-1.6,5.86-4.43.17-.33.23-.43.36-.43s.43.29.43.56a7.08,7.08,0,0,1-.46,1.4A7.74,7.74,0,0,1,798-51.12c-2.19,0-3.49-1.7-3.49-4.6a73.54,73.54,0,0,1,.85-7.46,19.4,19.4,0,0,0,.29-2.68c0-1.62-.75-2.64-2-2.64-2.18,0-4.53,1.67-8.73,6.23Zm-1.54-2c0-.72,0-1,0-1.34,0-.16,0-.26,0-1.56-.19-.26-.32-.36-.55-.36a6.32,6.32,0,0,0-2.22,1,2,2,0,0,0-1,1.79,4.59,4.59,0,0,0,.62,2c.2.42.23.55.91,2.21l1.44-2.41Zm-.09,9.09c.09.26.13.33.22.33s.23-.33.23-2.09c0-2.64,0-3.58-.1-6-.94,1.79-1.07,2.05-1.92,3.65C782.46-55.33,782.88-54.22,783.31-52.95Z" transform="translate(-513.23 76.57)"/><path class="cls-1" d="M826.17-51.35a5.45,5.45,0,0,0,2.71-2.22,7,7,0,0,0,1-3.58c0-3.23-1.79-5-5-5-3,0-5.09,1-7.21,3.62a14.93,14.93,0,0,0-2.44,3.84,1.25,1.25,0,0,1-1.18.88c-.55,0-1.4-1-1.4-1.66,0-.36.26-.78.92-1.43a82.74,82.74,0,0,0,9.25-11c1.89-2.45,1.93-2.48,1.93-3a.7.7,0,0,0-.72-.75c-1,0-1.79.42-5.15,2.77-.62.46-.91.59-1.24.59a2.5,2.5,0,0,1-1.53-1,2.52,2.52,0,0,1-.59-1.76c0-.58.07-.78.26-.78s.1,0,.17.29a1.15,1.15,0,0,0,1.23.82,19.23,19.23,0,0,0,6.75-2.38,1.48,1.48,0,0,1,1.11-.39c1.3,0,3.62,1.56,3.62,2.48a.75.75,0,0,1-.53.71c-1.4.62-3.22,2.25-5.89,5.25-1.6,1.79-2.06,2.38-2.06,2.64s.1.29.2.29a.54.54,0,0,0,.16-.06.64.64,0,0,0,.16-.07l.46-.19a12.18,12.18,0,0,1,4.69-1,6.22,6.22,0,0,1,6.59,6.32A6.83,6.83,0,0,1,830-51.71a11.38,11.38,0,0,1-7,2.44,6.28,6.28,0,0,1-3.91-1.2,2.33,2.33,0,0,1-.88-2c0-1.5,1.27-2.47,3.2-2.47A4.86,4.86,0,0,1,826-51.68l0,.1Zm-2.08.49c-.36-2-1.31-3-2.81-3a1.33,1.33,0,0,0-1.5,1.3c0,1.08,1.24,1.8,3.13,1.8a5.27,5.27,0,0,0,1-.07Z" transform="translate(-513.23 76.57)"/><path class="cls-1" d="M846.32-58.23c-.29,0-1,0-2,.07-.29,0-1.11,0-2.05,0l-.39-1,4.36.16h2.09v-4.63l2.45.2c.45,0,.75.29.75.62a.85.85,0,0,1-.49.68l-.75.36V-59h1.3l1.5-2,2.18,1.73a1,1,0,0,1,.39.65.41.41,0,0,1-.39.39h-5v2A11.43,11.43,0,0,1,853.52-55a2.89,2.89,0,0,1,1.67,2.37,1.19,1.19,0,0,1-1.11,1.18,1.23,1.23,0,0,1-.69-.26,11.16,11.16,0,0,1-1-1.63,5.29,5.29,0,0,0-2.08-2V-48c0,.49-.72.92-1.57.92-.29,0-.39-.17-.39-.53v-7.59a28.7,28.7,0,0,1-4.2,4.47,7.15,7.15,0,0,1-2.51,1.66.33.33,0,0,1-.33-.33c0-.16.16-.36.78-.85a26.19,26.19,0,0,0,5.71-7.95ZM850-71.46c-.19,0-1.37,0-3.09.1-.4,0-1.57,0-2.84.06l-.49-1.14c1.5.07,2.7.1,3.19.1,1.6.06,2.68.1,3.23.1h5.38v-4.21l2.35.1c.45,0,.68.2.68.55a.78.78,0,0,1-.26.59l-.78.62v2.35h7.82l1.76-2.06,2.31,1.83a1,1,0,0,1,.43.62c0,.26-.17.39-.52.39H857.89c3.39,3.19,7.14,4.95,12.74,5.93A6.27,6.27,0,0,0,868.42-63c-5.09-2-8.44-4.43-11.08-8v8.21c0,.46-.66.81-1.54.81-.32,0-.45-.16-.45-.49v-7.69A40,40,0,0,1,847-64.52a24.63,24.63,0,0,1-4.23,2,.28.28,0,0,1-.26-.26c0-.17.32-.4,2.44-1.6a31.88,31.88,0,0,0,8.57-7Zm7.2,13.33-.32-1c3.26.13,3.42.13,4.36.13h.95v-4.37l2.67.16c.3,0,.56.27.56.46a.82.82,0,0,1-.43.62l-.91.52V-59h2.77l1.73-2,2.31,1.76a.77.77,0,0,1,.36.59.39.39,0,0,1-.42.42h-6.68c1,2.58,3.87,5.09,7.79,6.81a5.38,5.38,0,0,0-2.22,2.06,17.63,17.63,0,0,1-5.64-7.17v8.67c0,.45-.49.68-1.47.68-.29,0-.42-.13-.42-.46v-8a43,43,0,0,1-5,4.89c-1.82,1.5-3.06,2.38-3.39,2.38a.31.31,0,0,1-.26-.29c0-.13,0-.13,1.08-1a45.29,45.29,0,0,0,7-8.48Z" transform="translate(-513.23 76.57)"/><path class="cls-1" d="M896.45-70.58c3.45-.86,3.45-.86,3.92-.86a2.34,2.34,0,0,1,1.71,1,3.12,3.12,0,0,1,.85,1.46c0,.38-.38.63-.85.63a2.61,2.61,0,0,1-1-.22,8.64,8.64,0,0,0-2.31-.35,9.79,9.79,0,0,0-3.86.89,9.67,9.67,0,0,0-4.17,5.4,21.88,21.88,0,0,0-.92,6.36c0,3.89,1.49,5.37,5.47,5.37a9.86,9.86,0,0,0,2.28-.22,1.36,1.36,0,0,1,.41,0,1.59,1.59,0,0,1,1.2.54,2.83,2.83,0,0,1,.57,1.26c0,.7-.82,1-2.91,1-5.72,0-9.14-2.62-9.14-7a19.08,19.08,0,0,1,3.83-11.13,9.5,9.5,0,0,1,1.61-1.8.32.32,0,0,0,.16-.25.14.14,0,0,0-.13-.13c-1.8,0-8.25,2.53-10.34,4-.88.63-1.17.76-1.7.76a4.33,4.33,0,0,1-2.37-1.3,3.7,3.7,0,0,1-.67-2.24c0-.13.07-.22.19-.22s.13,0,.19.15c.32.73.92,1,2.09,1A6.12,6.12,0,0,0,883-67c4.9-1.45,7.4-2.15,10.69-2.87ZM901-61.41a1.16,1.16,0,0,1-1.11,1.1c-.28,0-.47-.15-.72-.6a5.17,5.17,0,0,0-3.1-2.53c-.22,0-.25-.06-.25-.16s.38-.22,1.07-.22C898.92-63.82,901-62.62,901-61.41Zm3.29-1.71a1.16,1.16,0,0,1-1.11,1.17c-.28,0-.47-.13-.66-.51a5.46,5.46,0,0,0-3.26-2.68c-.19,0-.22-.07-.22-.13s.44-.25,1.14-.25C902.2-65.52,904.26-64.32,904.26-63.12Z" transform="translate(-513.23 76.57)"/><path class="cls-1" d="M911.9-55.15c3.86.89,6.45,2.91,6.45,5a1.57,1.57,0,0,1-1.51,1.67,1.41,1.41,0,0,1-1-.44c-.25-.32-.25-.32-.63-1.71-.63-2-1.2-2.62-3.51-4.08Z" transform="translate(-513.23 76.57)"/><path class="cls-1" d="M515.64-16a.17.17,0,0,1,0,.1,8.17,8.17,0,0,0-.46,2.67c0,3.43,2.77,5.22,8.15,5.22a23.32,23.32,0,0,0,6.19-.88c1-.33,1-.33,1.28-.33,1,0,2.15,1,2.15,1.76a1,1,0,0,1-.69.85,21,21,0,0,1-6.81.88c-3.75,0-6.36-.46-8.18-1.37a5.66,5.66,0,0,1-3.13-5.25,8.05,8.05,0,0,1,1-3.61c.1-.14.16-.2.29-.2S515.64-16.15,515.64-16Zm6-7.56a6.18,6.18,0,0,1-4-1.37,4.66,4.66,0,0,1-1.21-2.64c0-.23.1-.36.27-.36s.12,0,.26.33c.58,1.53,2.31,2.41,4.82,2.41a16.58,16.58,0,0,0,4.2-.55,3.85,3.85,0,0,1,.85-.2,2.64,2.64,0,0,1,1.89,1.89.78.78,0,0,1-.32.59c-.23.16-.26.16-1.44.16a14.29,14.29,0,0,0-8.34,2.74c-.1.06-.13.1-.2.1s-.19-.13-.19-.26a13.42,13.42,0,0,1,3.09-2.64Z" transform="translate(-513.23 76.57)"/><path class="cls-1" d="M546.94-16a.14.14,0,0,1,0,.1,8.19,8.19,0,0,0-.45,2.67c0,3.43,2.77,5.22,8.15,5.22a23.44,23.44,0,0,0,6.19-.88c.94-.33.94-.33,1.27-.33,1,0,2.15,1,2.15,1.76a1,1,0,0,1-.68.85,21.12,21.12,0,0,1-6.81.88c-3.75,0-6.36-.46-8.19-1.37a5.66,5.66,0,0,1-3.13-5.25,8.07,8.07,0,0,1,1-3.61c.09-.14.16-.2.29-.2S546.94-16.15,546.94-16Zm6-7.56a6.18,6.18,0,0,1-4-1.37,4.66,4.66,0,0,1-1.21-2.64c0-.23.1-.36.26-.36s.13,0,.26.33c.59,1.53,2.32,2.41,4.82,2.41a16.66,16.66,0,0,0,4.21-.55,3.85,3.85,0,0,1,.85-.2A2.66,2.66,0,0,1,560-24.1a.79.79,0,0,1-.33.59c-.23.16-.26.16-1.43.16a14.32,14.32,0,0,0-8.35,2.74c-.09.06-.13.1-.19.1s-.2-.13-.2-.26a13.59,13.59,0,0,1,3.1-2.64Z" transform="translate(-513.23 76.57)"/><path class="cls-1" d="M579.63-28.47a.14.14,0,0,1-.13-.13c0-.42,1.57-1.23,2.35-1.23,1,0,2.48.75,2.48,1.3a1.5,1.5,0,0,1-.07.33,16.24,16.24,0,0,0-.45,1.69c1.76,1,2.77,1.43,3.42,1.43h.16a.62.62,0,0,1,.16,0,.55.55,0,0,1,.49.59c0,1-1.33,1.86-5.31,3.49a122.18,122.18,0,0,1-4.07,15c-.66,2-1.18,2.64-2.09,2.64A1.5,1.5,0,0,1,575-4.71a2.63,2.63,0,0,1,.59-1.43c1.7-2.31,4.27-9.16,5.38-14.31a17.49,17.49,0,0,1-4.47,1.14,3.57,3.57,0,0,1-3.26-3.39c0-.09.07-.19.13-.19s.2.06.3.26a2.88,2.88,0,0,0,2.74,1.4,17.51,17.51,0,0,0,5-1,25.11,25.11,0,0,0,.49-4.53c0-1.3-.39-1.76-1.53-1.76a3.55,3.55,0,0,0-.56.06Zm6,4.08c0-.23-.36-.56-1.89-1.73a3.36,3.36,0,0,0-.13.52c0,.2-.07.39-.56,2.87C584.39-23.32,585.6-24.07,585.6-24.39ZM588-13.08a.72.72,0,0,1,0,.23,7.45,7.45,0,0,0-.33,2.15c0,2.7,1.69,3.78,6,3.78A13.68,13.68,0,0,0,597-7.25a3.1,3.1,0,0,1,.59-.1A1.39,1.39,0,0,1,599-6c0,1.07-1,1.47-3.94,1.47-5.74,0-8.44-1.63-8.44-5.06,0-1.4.72-3.65,1.17-3.65A.22.22,0,0,1,588-13.08Zm10.13-5c0,.56-.29.95-.71.95a.5.5,0,0,1-.33-.1,4.86,4.86,0,0,0-1.92-.39,10.13,10.13,0,0,0-3.33.78.16.16,0,0,1-.13,0,.22.22,0,0,1-.16-.17c0-.13.65-.55,1.73-1.11s1.24-.68,1.24-.84c0-.43-1.4-.85-2.77-.85A5.26,5.26,0,0,0,589-19c-.13.1-.13.1-.2.1a.22.22,0,0,1-.16-.16,2.35,2.35,0,0,1,.78-.78A6.58,6.58,0,0,1,593.16-21C595.8-21,598.11-19.6,598.11-18Zm-2-6.77a1.2,1.2,0,0,1-1.1,1.14c-.3,0-.43-.1-.75-.62A5.24,5.24,0,0,0,591-26.9c-.13,0-.17-.07-.17-.13s.39-.23,1.05-.23C594-27.26,596.09-26,596.09-24.81Zm3.65-1.57a1.19,1.19,0,0,1-1.14,1.14c-.32,0-.45-.13-.78-.68a5.68,5.68,0,0,0-3.26-2.61c-.19,0-.23-.07-.23-.13s.49-.26,1.18-.26C597.59-28.92,599.74-27.65,599.74-26.38Z" transform="translate(-513.23 76.57)"/><path class="cls-1" d="M611.22-28.73c1.76.53,3.16,2.06,3.16,3.49a11.39,11.39,0,0,1-.94,3.33c-1.47,4.1-1.7,5.08-1.7,7.43,0,2,.56,4.17,1.08,4.17.1,0,.23-.13.33-.42.35-.95,1.07-2.55,2.57-5.77.46-.95.52-1.08.75-1.08a.43.43,0,0,1,.29.33.91.91,0,0,1-.16.45,23.35,23.35,0,0,0-2.05,7.53,9.44,9.44,0,0,0,.29,1.86A1,1,0,0,1,615-7c0,.33-.68.85-1.11.85-.78,0-1.85-1-2.47-2.35a13.21,13.21,0,0,1-1.21-5.54,34.18,34.18,0,0,1,1-7.2,24.46,24.46,0,0,0,.69-4.57c0-1.46-.46-2.37-1.31-2.67-.06,0-.1,0-.1-.1a.28.28,0,0,1,.26-.26.31.31,0,0,1,.17,0Zm12.88.53a.56.56,0,0,1-.2,0,.15.15,0,0,1-.16-.13c0-.3,1.56-1.11,2.12-1.11a4.71,4.71,0,0,1,2.28.85c.72.42.94.65.94,1a.61.61,0,0,1-.09.33,10.89,10.89,0,0,0-.33,3.32c0,.33,0,.72,0,1.27a7.59,7.59,0,0,0,3.2-1.92c.19-.2.29-.26.45-.26a5.28,5.28,0,0,1,1.57.52.84.84,0,0,1,.45.65c0,.78-1.82,1.76-5.34,2.87.13,2.25.16,3.29.16,4.69,0,5.28-1.3,8.67-4.07,10.63C623.51-4.28,620.48-3,619.5-3c-.23,0-.36-.1-.36-.26s.1-.29.39-.39a10.38,10.38,0,0,0,5.09-3.55c1.82-2.41,2.48-5.28,2.48-10.69,0-.33,0-1.37,0-2.45a17.38,17.38,0,0,1-3.22.49,4.6,4.6,0,0,1-3.26-1.6,2.64,2.64,0,0,1-.59-1c0-.09.1-.16.23-.16s.19.07.36.23a3.22,3.22,0,0,0,2.64,1,12,12,0,0,0,3.65-.71,20.17,20.17,0,0,0-.49-4.86,2.35,2.35,0,0,0-2-1.3Z" transform="translate(-513.23 76.57)"/><path class="cls-1" d="M655-25.6a30.23,30.23,0,0,1,.46,4,17.86,17.86,0,0,1-4,10.36c-1.89,2.45-3.65,3.65-5.34,3.65a2.89,2.89,0,0,1-2.25-1.24,7.62,7.62,0,0,1-1.7-5.15c0-6.91,6-12.58,13.3-12.58,6.45,0,11,4,11,9.85,0,5.18-3.06,9.38-8.21,11.24a20.21,20.21,0,0,1-4.47,1.08c-.23,0-.42-.17-.42-.3s.1-.13.55-.26a14.57,14.57,0,0,0,6.16-3.23,11.86,11.86,0,0,0,3.72-9.09c0-3-.95-5.21-2.8-6.62a8.46,8.46,0,0,0-5.06-1.69Zm-1.3.13a11.6,11.6,0,0,0-9.55,11.54c0,2.41.91,4.24,2.15,4.24,1.4,0,4-2.64,5.6-5.67A20.53,20.53,0,0,0,654.19-23a6.39,6.39,0,0,0-.43-2.25Z" transform="translate(-513.23 76.57)"/><path class="cls-1" d="M683.17-30.52a.65.65,0,0,1,.39.59c0,.32-.16.52-.55.68l-.72.3a54.19,54.19,0,0,1-1.86,5.24l.55.13a.5.5,0,0,1,.4.46.63.63,0,0,1-.2.42l-.36.39V-3.53c0,.49-.06.62-.29.81a2.46,2.46,0,0,1-1.34.46c-.39,0-.59-.16-.59-.42V-19.8a29.25,29.25,0,0,1-4,5.9c-.36.46-.49.56-.66.56a.21.21,0,0,1-.19-.2,3.48,3.48,0,0,1,.55-1.11,44.36,44.36,0,0,0,5.84-16.94Zm8.11,10.59a40.63,40.63,0,0,1-5.18,7c-1.79,2.05-3.88,4-4.27,4a.26.26,0,0,1-.29-.23c0-.16.26-.52,1-1.4a55.14,55.14,0,0,0,7.95-12.74H687.7c-1.57,0-2.64,0-5.28.13L682-24.23l3.16.1c1,.06,1.95.06,2.51.06h3.58v-7.59l2.61.33a.66.66,0,0,1,.62.55.82.82,0,0,1-.33.55l-.71.59v5.57h5.6l2.12-2,2.64,2.19a.32.32,0,0,1,.16.29c0,.16-.13.33-.22.33h-9.72a18.32,18.32,0,0,0,10.47,11.14,5.93,5.93,0,0,0-2.64,2.32,25.08,25.08,0,0,1-8.41-13v12h2l1.69-1.79,2.28,1.79a.56.56,0,0,1,.2.45.31.31,0,0,1-.33.33h-5.86v6.32c0,.52,0,.59-.3.78a2.67,2.67,0,0,1-1.43.46c-.33,0-.46-.13-.46-.42V-10h-1.14c-1,0-1.85,0-4.07.1l-.29-1c2.05.1,2.77.1,4.36.1h1.14Z" transform="translate(-513.23 76.57)"/><path class="cls-1" d="M711-11.81a7.34,7.34,0,0,1,.49,2.87c0,1.86-.72,3.26-1.66,3.26a.93.93,0,0,1-1-.79c0-.26,0-.26.92-1.79a5.85,5.85,0,0,0,.68-2.61,6.4,6.4,0,0,0-.06-1Zm2.09-17.83h6.26l1.4-1.79L723-29.67a.61.61,0,0,1,.26.46.31.31,0,0,1-.32.35h-6v3.69h1.5l1.21-1.57,2.08,1.57c.17.16.26.29.26.42a.39.39,0,0,1-.39.36h-4.66v3.78h1.5l1.37-1.7,2.25,1.76c2.67-3.06,4-5.41,6.61-11.5l2.64,1a.64.64,0,0,1,.4.55.52.52,0,0,1-.43.46l-.45.13a14.27,14.27,0,0,0,2.31,3.35,19.53,19.53,0,0,0,5.61,4.18,5.59,5.59,0,0,1,.78.45l.23.13a7.71,7.71,0,0,0-2.22,2,21.15,21.15,0,0,1-7.43-9.81,36.62,36.62,0,0,1-5,7.4h5.25l1.37-1.83,2.31,1.83a.78.78,0,0,1,.27.52.22.22,0,0,1-.2.23H730.4v3.32h3.82l.78-1.37,2,1.8a.69.69,0,0,1,.23.42.38.38,0,0,1-.23.29l-.62.33v4.95c0,.36-.62.69-1.3.69-.23,0-.52-.16-.52-.33v-1.07h-4c1.56,3.62,4,5.83,8.9,8.05-.39.23-.75.42-.85.49a6.44,6.44,0,0,0-.78.42l-.59.52a2.31,2.31,0,0,1-.36.36,16.21,16.21,0,0,1-6.81-9.16c0,.2-.1.36-.1.43a11,11,0,0,1-2,4.95,13.43,13.43,0,0,1-5,3.68,6.39,6.39,0,0,1-1.86.72.35.35,0,0,1-.33-.29c0-.17,0-.17.88-.66,4.18-2.28,6.13-5,6.75-9.51h-3.32v2.08c0,.39-.62.66-1.47.66a.35.35,0,0,1-.39-.4v-9.42l2.25,1.37h3.19c0-1.63,0-1.85-.1-3.32H724.4c-1.53,1.63-3.19,3-3.61,3-.13,0-.26-.1-.26-.2s.26-.52.88-1.14h-4.47V-16h2.25l.78-1.14,2,1.79a.73.73,0,0,1,.23.4c0,.16-.17.32-.36.42l-.56.19c-.26,5.77-.55,8-1.3,9.59a4.32,4.32,0,0,1-3.16,2.47c-.33,0-.52-.16-.56-.55a1.7,1.7,0,0,0-.16-.68A8.07,8.07,0,0,0,714.92-4l-2-.78.14-.52,2.8.32a7.82,7.82,0,0,0,.78.07c1.3,0,1.76-.72,2.28-3.52a36.77,36.77,0,0,0,.43-6.68v-.2h-6.62v1c0,.33-.13.49-.46.65a4.23,4.23,0,0,1-.94.23c-.26,0-.43-.13-.43-.33V-30.91ZM712.35-12a5.3,5.3,0,0,1,1.82,3.78c0,.82-.36,1.28-1,1.28a.63.63,0,0,1-.68-.75,1.35,1.35,0,0,1,0-.33c0-.39,0-.75,0-1.14a6,6,0,0,0-.55-2.61Zm2.9-13.16v-3.69h-2.48v3.69Zm0,4.56v-3.78h-2.48v3.78Zm0,4.56v-3.78h-2.48V-16Zm-1.34,3.23c1.53.94,2.48,2.18,2.48,3.32a1.08,1.08,0,0,1-.95,1.11c-.26,0-.39-.16-.42-.58a7.41,7.41,0,0,0-1.47-3.59ZM715.15-14c2,.59,3.39,1.76,3.39,2.87a.85.85,0,0,1-.72.91c-.46,0-.55-.13-1.21-1.46A6.19,6.19,0,0,0,715-13.64Zm13.33.79c.1-1,.13-1.76.16-4.14h-3.58v4.14Zm6.13,0v-4.14H730.4c0,1.92,0,2.21-.1,4.14Z" transform="translate(-513.23 76.57)"/><path class="cls-1" d="M759.94-19.91a7.25,7.25,0,0,1,4.71-2c2.24,0,4,1.33,4,3a1.87,1.87,0,0,1-.82,1.67c-.66.51-.85.57-3.79,1.74a55.53,55.53,0,0,0-6.77,3.07c.1,1.39.16,2.4.16,2.91,0,1.58-.32,2-1.58,2-.38,0-.57-.13-.57-.32a.8.8,0,0,1,0-.25,24,24,0,0,0,.16-3.41c-2.72,1.61-3.83,2.87-3.83,4.3S753.11-5,756.81-5a18.17,18.17,0,0,0,4.65-.57,2.48,2.48,0,0,1,.82-.16,1.71,1.71,0,0,1,1.52,1.3c0,1-2.09,1.58-6.39,1.58a10.32,10.32,0,0,1-5.15-1A3.77,3.77,0,0,1,750.07-7a4,4,0,0,1,1.62-3,22.39,22.39,0,0,1,3.73-2.43,12.08,12.08,0,0,0-.41-4,1.66,1.66,0,0,0-1.49-1.11,3.7,3.7,0,0,0-2.25,1.17A19.5,19.5,0,0,0,748.56-13c-.35.6-.7.89-1,.89s-1.1-1-1.1-1.87c0-.41.12-.63.75-1.11,3.42-3,5.51-6,6.11-9a10,10,0,0,1-2.75.53,2,2,0,0,1-1.65-1.13,4.06,4.06,0,0,1-.47-1.21.13.13,0,0,1,.12-.12s.1,0,.16.12a2,2,0,0,0,1.87.83,8.5,8.5,0,0,0,2.88-.51,5.55,5.55,0,0,0,.09-.89A1.49,1.49,0,0,0,752-28.1c-.12,0-.15,0-.15-.13,0-.28,1.07-.79,1.67-.79a2.18,2.18,0,0,1,2.09,1.87,5.19,5.19,0,0,1-.25,1.2,4.7,4.7,0,0,0,2-1.08c1.07.54,1.39.76,1.39,1s-.7.67-3.7,1.55a36.32,36.32,0,0,1-3.6,6.74,4.87,4.87,0,0,1,2.08-.57,3.21,3.21,0,0,1,2,.73,4.58,4.58,0,0,1,1.17,2.24A12.55,12.55,0,0,1,759.94-19.91Zm1.36,4.11a31.79,31.79,0,0,0,4-2.38,1.76,1.76,0,0,0,.64-1.1,1.91,1.91,0,0,0-1.93-1.58c-1.65,0-3.8,1.48-5,3.51a15.66,15.66,0,0,0-1.86,3.89C758.42-14.22,758.64-14.35,761.3-15.8Z" transform="translate(-513.23 76.57)"/><path class="cls-1" d="M716.62-63.55c0,5.93.09,9.07.26,11.28.07.7.1,1.19.1,1.49,0,1.39-.5,2.42-1.19,2.42S714-49.85,714-50.68a5.34,5.34,0,0,1,.09-.86c.27-1.85.53-9.16.53-15.78,0-3.11-.1-4.2-.53-4.89a1.77,1.77,0,0,0-1.58-.83c-.23,0-.33-.1-.33-.3s.1-.23.29-.3a8.89,8.89,0,0,1,2-.56c.5,0,1,.23,2.42,1.16.43.3.63.53.63.76a1.75,1.75,0,0,1-.17.63c-.53.89-.73,2.45-.79,6.15a13.71,13.71,0,0,1,6.94,2.15c1.79,1.23,2.62,2.28,2.62,3.34a1.36,1.36,0,0,1-1.39,1.46c-.73,0-1.13-.3-1.92-1.59A11.73,11.73,0,0,0,716.62-65ZM727.27-69a1.13,1.13,0,0,1-1.06,1.12c-.5,0-.73-.16-1-.69A5.89,5.89,0,0,0,722-71.22c-.13-.07-.2-.1-.2-.17s.4-.23,1-.23C725.08-71.62,727.27-70.33,727.27-69Zm3.64-1.92a1.12,1.12,0,0,1-1.06,1.12.94.94,0,0,1-1-.62,6.18,6.18,0,0,0-3.38-2.82c-.09,0-.16-.1-.16-.16s.4-.23.93-.23C728.66-73.6,730.91-72.28,730.91-70.89Z" transform="translate(-513.23 76.57)"/></svg>