<svg xmlns="http://www.w3.org/2000/svg" width="901.245" height="37.09" viewBox="0 0 901.245 37.09">
  <defs>
    <style>
      .cls-1 {
        fill: #333;
        fill-rule: evenodd;
      }
    </style>
  </defs>
  <path id="広大なもてぎの森で_家族にちょうどいい冒険を" data-name="広大なもてぎの森で、家族にちょうどいい冒険を" class="cls-1" d="M283.065,1979.39a0.5,0.5,0,0,0,.545-0.58,0.745,0.745,0,0,0-.351-0.59l-3.7-2.76-2.726,2.88h-9.423v-4.48l0.74-.47a0.883,0.883,0,0,0,.545-0.81,0.715,0.715,0,0,0-.74-0.74l-4.245-.39v6.89h-8.722l-3.894-1.79c0.039,2.33.078,3.58,0.078,5.57a120.479,120.479,0,0,1-.585,15.07c-0.584,3.58-1.207,5.18-3.582,9.23a0.735,0.735,0,0,0-.117.31,0.387,0.387,0,0,0,.389.35c0.351,0,1.753-1.48,3.31-3.51a16.57,16.57,0,0,0,3.7-9.62c0.194-2.29.311-6.38,0.311-14.56h28.466ZM253.7,2001.2l2.064,4.24a0.943,0.943,0,0,0,.739.55,0.894,0.894,0,0,0,.74-0.47l0.623-.9c4.478-.7,6.348-1.01,8.139-1.32,1.713-.31,3.31-0.62,10.124-1.95,0.39,0.9.39,0.9,1.558,3.98a1.757,1.757,0,0,0,1.791,1.4c1.091,0,1.83-.94,1.83-2.38,0-2.72-2.492-6.35-6.308-9.15a19.743,19.743,0,0,0-4.205-2.34,0.388,0.388,0,0,0-.39.32,2.26,2.26,0,0,0,.74.85,25.9,25.9,0,0,1,4.478,6.27c-5.646.43-11.332,0.74-14.369,0.74,1.48-2.72,4.322-8.68,7.749-16.24l1.091-.31a0.858,0.858,0,0,0,.739-0.7,1.209,1.209,0,0,0-.739-0.97l-4.4-1.91a192.061,192.061,0,0,1-5.8,20.21c-1.791.04-3.427,0.08-4.089,0.08h-2.1Zm66.323-21.73-2.648,3.11H306.9c0.155-1.87.233-4.59,0.233-8.13l0.9-.47a1.026,1.026,0,0,0,.74-0.94c0-.7-0.351-0.93-1.441-1.01l-4.283-.23c0.233,2.68.311,4.24,0.311,6.7,0,1.2-.039,2.21-0.078,4.08H296.7c-0.428,0-1.908-.03-3.465-0.07l-4.206-.16,0.935,1.48c3.816-.16,5.218-0.19,6.736-0.19h6.464c-0.973,11.29-4.517,17.17-13.2,21.92-0.9.51-.974,0.54-0.974,0.78a0.317,0.317,0,0,0,.351.27,12.872,12.872,0,0,0,2.842-.97,24.166,24.166,0,0,0,10.592-8.38c2.22-3.38,3.232-6.58,3.972-12.61,1.441,9.34,6.153,16.59,13.785,21.06a8.973,8.973,0,0,1,4.789-3.38c-9.929-3.62-15.459-9.35-18.029-18.69h15.888c0.584,0,.856-0.16.856-0.55a1.062,1.062,0,0,0-.428-0.74Zm34.236,3.23c2.1,0,4.049.9,4.049,1.87,0,0.35-.155.43-1.012,0.66a7.334,7.334,0,0,0-4.945,4.13c-0.468,1.21-.624,2.92-0.624,7.09a17.189,17.189,0,0,0-1.908-.08,11.18,11.18,0,0,0-5.14,1.01,4.457,4.457,0,0,0-2.336,3.66c0,2.88,3,5.06,6.931,5.06,2.415,0,4.167-.77,5.062-2.29a6.651,6.651,0,0,0,.779-3.55,15.8,15.8,0,0,1,3.972,3.04,2.913,2.913,0,0,0,2.025,1.17,1.812,1.812,0,0,0,1.636-1.87c0-1.91-3.038-4.09-7.633-5.45a53.939,53.939,0,0,1-.7-6.31c0-2.84,1.169-4.4,3.31-4.4a9.135,9.135,0,0,1,4.089,1.13,1.687,1.687,0,0,0,1.4-1.87c0-2.57-2.648-4.63-5.958-4.63-1.83,0-4.712.89-4.712,1.48a0.254,0.254,0,0,0,.234.23,0.736,0.736,0,0,0,.272-0.04Zm-2.57,17.41c0,1.87-1.286,3.03-3.31,3.03-2.3,0-3.817-.97-3.817-2.37,0-1.48,1.441-2.45,3.544-2.45a10.21,10.21,0,0,1,3.583.66v1.13Zm-9.5-17.29c-1.83,5.02-4.595,9.38-7.632,11.99-0.9.82-1.246,1.33-1.246,1.83a2.224,2.224,0,0,0,2.219,2.07,3.109,3.109,0,0,0,2.337-1.06,18.444,18.444,0,0,0,1.986-3.38,103.045,103.045,0,0,0,5.412-12.11,15.242,15.242,0,0,0,3.622-1.41c1.752-.93,2.453-1.79,2.453-3.03,0-.94-0.195-1.09-1.207-1.13a5.1,5.1,0,0,1-3.427-.86c0.117-.7.195-1.05,0.312-1.95a3.466,3.466,0,0,0-3.232-1.71c-1.169,0-2.648.55-2.648,1.01,0,0.12.078,0.16,0.311,0.16a2.338,2.338,0,0,1,2.3,2.45,13.016,13.016,0,0,1-.779,4.05,14.161,14.161,0,0,1-4.284.78c-1.674,0-3.193-.7-3.621-1.71-0.117-.28-0.195-0.31-0.312-0.31a0.262,0.262,0,0,0-.272.27,5.9,5.9,0,0,0,.934,2.65,4.374,4.374,0,0,0,3.778,1.67A21.129,21.129,0,0,0,342.191,1982.82Zm4.322-6.47c1.363,0.86,1.519,1.02,1.519,1.17,0,0.43-.779.98-2.3,1.64C346.163,1977.68,346.241,1977.44,346.513,1976.35Zm38.831,9.04a27.44,27.44,0,0,0-3.309,1.87c-1.753,1.2-2.648,2.53-2.648,3.89,0,1.75,1.674,3.35,4.439,4.21a17.872,17.872,0,0,0-.234,2.76c0,5.14,2.921,8.06,8.022,8.06a10.287,10.287,0,0,0,5.8-1.75,6.136,6.136,0,0,0,2.687-5.34c0-3.31-1.908-6.5-5.452-9.19a15.9,15.9,0,0,0-2.648-1.59,0.27,0.27,0,0,0-.272.19,0.62,0.62,0,0,0,.311.43,13.554,13.554,0,0,1,4.284,9.5c0,3.2-1.986,5.22-5.1,5.22-3.543,0-5.724-2.34-5.724-6.11a9.13,9.13,0,0,1,.156-1.83c1.09,0.11,2.336.19,3.31,0.19,2.025,0,2.92-.35,2.92-1.21a2.739,2.739,0,0,0-2.024-1.98,9.011,9.011,0,0,1-2.142.35c-0.351,0-.351,0-1.947-0.12a46.119,46.119,0,0,1,1.635-6.66,8.313,8.313,0,0,1,2.726-.5c1.908-.16,2.025-0.24,2.025-0.82a2.486,2.486,0,0,0-1.6-2.26,1.773,1.773,0,0,1-.623.08,7.243,7.243,0,0,1-1.09-.12,33.94,33.94,0,0,1,1.636-3.78c0.934-1.63,1.012-1.83,1.012-2.45,0-1.87-2.959-4.44-5.062-4.44a1.831,1.831,0,0,0-1.441.55c0,0.08.039,0.11,0.428,0.27a3.116,3.116,0,0,1,1.558,3,38.182,38.182,0,0,1-.9,6.31c-3.271-.67-5.179-1.6-5.685-2.77-0.234-.62-0.234-0.62-0.35-0.62a0.957,0.957,0,0,0-.312.97,4.756,4.756,0,0,0,2.3,3.74,9.766,9.766,0,0,0,3.543,1.13Zm-1.168,7.2c-1.83-.47-2.765-1.17-2.765-2.14,0-1.21,1.052-2.18,3.856-3.66C384.838,1988.81,384.76,1989.4,384.176,1992.59Zm57.406-17.87c-0.857.47-1.013,0.5-5.958,1.95-4.946,1.28-8.684,2.29-13.318,3.69a13.589,13.589,0,0,1-4.011.94,3.287,3.287,0,0,1-2.881-1.56c-0.195-.39-0.195-0.43-0.351-0.43a0.255,0.255,0,0,0-.194.31,6.15,6.15,0,0,0,.467,2.57c0.662,1.45,2.687,2.93,3.933,2.93a1.582,1.582,0,0,0,.973-0.39,31.98,31.98,0,0,1,5.8-3.2,29.587,29.587,0,0,1,6.853-2.26,0.18,0.18,0,0,1,.195.12,1.618,1.618,0,0,1-.39.47,21.377,21.377,0,0,0-4.322,6.81,24.524,24.524,0,0,0-1.6,8.1c0,4.44,1.753,7.32,5.335,8.69a20.98,20.98,0,0,0,7.087,1.32c2.1,0,3.194-.66,3.194-1.91a2.994,2.994,0,0,0-2.415-2.72,6.355,6.355,0,0,0-.779.07,21.807,21.807,0,0,1-2.492.2c-4.4,0-6.542-2.26-6.542-6.97a24.092,24.092,0,0,1,1.558-8.72,8.948,8.948,0,0,1,4.361-5.03,11.152,11.152,0,0,1,5.179-.85,10.408,10.408,0,0,1,1.675.11,11.275,11.275,0,0,0,1.986.28,1.223,1.223,0,0,0,1.285-1.13c0-.71-0.584-1.44-1.753-2.26A4.91,4.91,0,0,0,441.582,1974.72Zm42.8-3.2c-0.935,0-1.675.2-1.675,0.47a0.426,0.426,0,0,0,.429.31,6.167,6.167,0,0,1,3.426,2.81,1.212,1.212,0,0,0,1.208.93,1.615,1.615,0,0,0,1.713-1.48C489.486,1973,487.033,1971.52,484.385,1971.52Zm-4.245,2.46c-1.012,0-1.674.15-1.674,0.43a0.418,0.418,0,0,0,.35.35,5.927,5.927,0,0,1,3.622,3.11,0.989,0.989,0,0,0,1.012.55,1.6,1.6,0,0,0,1.675-1.44C485.125,1975.42,482.71,1973.98,480.14,1973.98Zm-8.528.5a0.347,0.347,0,0,0,.039-0.15c0-.97-2.414-2.07-4.556-2.07-0.9,0-2.8,1.17-2.8,1.72a0.24,0.24,0,0,0,.273.15c2.064-.07,3.427,1.13,6.386,5.81a14.453,14.453,0,0,1-5.1,1.01c-1.558,0-2.453-.31-2.92-0.97a0.41,0.41,0,0,0-.351-0.28,0.28,0.28,0,0,0-.311.28,3.754,3.754,0,0,0,.973,1.71,4.892,4.892,0,0,0,3.66,1.56,20.272,20.272,0,0,0,5.53-.98,30.751,30.751,0,0,1,2.142,3.78,26.081,26.081,0,0,1-8.918,1.56c-2.764,0-4.517-.7-5.023-2.03-0.195-.43-0.195-0.46-0.311-0.46-0.156,0-.273.23-0.273,0.58a4.373,4.373,0,0,0,1.869,3.35,8.254,8.254,0,0,0,4.517,1.13,36.429,36.429,0,0,0,9.5-1.48c1.674,2.88,2.687,4.9,2.687,5.49a0.416,0.416,0,0,1-.468.39,8.144,8.144,0,0,1-2.1-.43,16.9,16.9,0,0,0-5.1-.78c-5.1,0-8.528,2.41-8.528,6.04,0,3.93,4.478,6.66,10.943,6.66,2.648,0,3.894-.78,3.894-2.42a1.66,1.66,0,0,0-1.87-1.71,5.652,5.652,0,0,0-.739.04c-0.7.04-2.687,0.11-3.194,0.11-3.621,0-5.88-1.4-5.88-3.7s1.986-3.73,5.257-3.73a13.065,13.065,0,0,1,9.229,4.59,2.184,2.184,0,0,0,.468.04c1.557,0,2.764-1.6,2.764-3.66a5.136,5.136,0,0,0-1.479-3.39c-1.947-2.3-2.843-3.39-3.622-4.48a30.12,30.12,0,0,0,5.413-2.64c1.285-.82,1.83-1.45,1.83-2.19a1,1,0,0,0-.857-0.89,14.273,14.273,0,0,0-3.076-.55c-0.311,1.09-1.674,2.07-5.1,3.59a26.5,26.5,0,0,1-2.025-3.43c3.037-1.25,4.322-2.1,4.322-2.88,0-.74-1.44-1.72-2.531-1.72-0.389,0-.545.12-1.557,1.02a8.667,8.667,0,0,1-1.48,1.09c-1.207-2.61-1.519-3.55-1.519-4.48v-0.2Zm42.414,3.47c0.428-.04.7-0.04,0.817-0.04a9.256,9.256,0,0,1,4.011.94c3.388,1.71,5.14,5.25,5.14,10.47,0,4.79-1.6,8.33-4.984,11.1a20.831,20.831,0,0,1-6.97,3.62c-0.623.19-.74,0.23-0.74,0.43,0,0.15.156,0.23,0.389,0.23a15.707,15.707,0,0,0,2.493-.47,23.845,23.845,0,0,0,7.2-2.64,14.34,14.34,0,0,0,7.2-12.46,11.74,11.74,0,0,0-3.076-8.22,15.009,15.009,0,0,0-10.942-4.28c-9.112,0-16.939,7.36-16.939,15.92a10.087,10.087,0,0,0,1.908,6.27,4.684,4.684,0,0,0,3.271,2.14c2.142,0,5.529-2.76,7.827-6.34a25.079,25.079,0,0,0,3.894-12.66A14.929,14.929,0,0,0,514.026,1977.95Zm-1.908.16c0.039,0.11.039,0.19,0.078,0.27a9.373,9.373,0,0,1,.233,2.18c0,3.46-1.48,7.79-3.972,11.64-1.635,2.57-3.855,4.6-5.062,4.6s-2.259-2.03-2.259-4.33a15.263,15.263,0,0,1,4.595-10.86A14.722,14.722,0,0,1,512.118,1978.11Zm35.6,15.3H553.4a0.542,0.542,0,0,0,.584-0.55,0.88,0.88,0,0,0-.389-0.66l-2.765-2.3-1.947,2.46h-1.168v-3.2l0.817-.38a0.832,0.832,0,0,0,.584-0.74,0.842,0.842,0,0,0-.778-0.82l-3.894-.39v5.53h-2.493c-0.311,0-.973,0-1.947-0.04-0.467-.04-1.791-0.08-3.232-0.12l0.818,1.33,2.453-.08c0.818-.04,1.48-0.04,1.908-0.04h2.22a28.3,28.3,0,0,1-7.671,10.36,1.687,1.687,0,0,0-.7.89,0.3,0.3,0,0,0,.272.28,10.688,10.688,0,0,0,2.57-1.52,31.424,31.424,0,0,0,5.8-4.87v7.44a0.746,0.746,0,0,0,.934.81,3.7,3.7,0,0,0,1.6-.38,1.022,1.022,0,0,0,.74-1.09v-8.53a6.882,6.882,0,0,1,2.18,2.8c0.857,1.91,1.052,2.1,1.869,2.1a1.616,1.616,0,0,0,1.714-1.63,3.892,3.892,0,0,0-2.415-3.23,10.114,10.114,0,0,0-3.348-.86v-2.57Zm19.392-19.55-2.492,2.96h-8.45v-3.35l0.856-.5a1.054,1.054,0,0,0,.507-0.82,0.8,0.8,0,0,0-.779-0.7l-4.011-.31v5.68h-6c-0.74,0-1.908-.04-3.271-0.08l-4.361-.11,0.895,1.44c3.31-.16,4.6-0.2,6.737-0.2h4.011a41.05,41.05,0,0,1-13.162,10.56,0.638,0.638,0,0,0-.506.5,0.3,0.3,0,0,0,.311.27,30.209,30.209,0,0,0,6.036-2.45,45.975,45.975,0,0,0,9.307-5.96v7.17a0.715,0.715,0,0,0,.779.82,7.893,7.893,0,0,0,1.947-.39,0.777,0.777,0,0,0,.7-0.86v-8.88a25.609,25.609,0,0,0,12.461,9.42c1.207-1.67,1.791-2.1,4.049-3.31-6.191-.66-12.616-3.42-16.043-6.89h13.785a0.466,0.466,0,0,0,.506-0.5,0.738,0.738,0,0,0-.311-0.55Zm2.181,15.85-2.22,2.65h-2.726v-3.23l0.74-.47a0.826,0.826,0,0,0,.428-0.7,0.674,0.674,0,0,0-.662-0.66l-3.816-.51v5.57h-1.129c-2.1-.04-3.583-0.08-5.179-0.16l0.584,1.33c2.492-.08,3.466-0.12,4.6-0.12h0.9a30.246,30.246,0,0,1-8.645,10.36c-1.207.97-1.246,1.01-1.246,1.24a0.27,0.27,0,0,0,.272.28,11.9,11.9,0,0,0,3.232-1.64,33.808,33.808,0,0,0,6.62-5.18v7.79c0,0.58.2,0.82,0.7,0.82a6.334,6.334,0,0,0,1.908-.35,0.914,0.914,0,0,0,.779-1.02v-10a22.223,22.223,0,0,0,5.685,8.56,7.727,7.727,0,0,1,3.232-3.15c-4.244-2.18-7.087-4.71-8.605-7.71h7.554a0.464,0.464,0,0,0,.506-0.47,0.881,0.881,0,0,0-.311-0.54Zm38.169-6.97c-1.052,0-1.714.19-1.714,0.47a0.531,0.531,0,0,0,.351.35,6.42,6.42,0,0,1,3.5,2.72c0.545,1.02.623,1.05,1.246,1.05a1.7,1.7,0,0,0,1.792-1.51C612.638,1984.26,610.107,1982.74,607.459,1982.74Zm-4.868,2.45c-0.584,0-.935.12-0.935,0.35a0.4,0.4,0,0,0,.234.28,5.633,5.633,0,0,1,3,2.99c0.467,1.13.661,1.33,1.479,1.33a1.587,1.587,0,0,0,1.636-1.36C608,1987.02,605.2,1985.19,602.591,1985.19Zm4.128-10.47c-0.857.47-1.013,0.5-5.958,1.95-5.062,1.28-8.8,2.33-13.318,3.69a13.341,13.341,0,0,1-4.011.94,3.375,3.375,0,0,1-2.881-1.56c-0.2-.39-0.2-0.43-0.351-0.43a0.254,0.254,0,0,0-.194.31,6.279,6.279,0,0,0,.467,2.57c0.662,1.41,2.687,2.93,3.933,2.93a1.582,1.582,0,0,0,.973-0.39,30.912,30.912,0,0,1,5.8-3.2,29.606,29.606,0,0,1,6.854-2.26,0.18,0.18,0,0,1,.2.12,2.058,2.058,0,0,1-.39.47,21.175,21.175,0,0,0-4.322,6.81,24.721,24.721,0,0,0-1.6,8.1c0,4.44,1.753,7.32,5.335,8.69a20.98,20.98,0,0,0,7.087,1.32c2.1,0,3.193-.66,3.193-1.95a2.994,2.994,0,0,0-2.414-2.72,0.478,0.478,0,0,0-.233.04,24.123,24.123,0,0,1-3.077.27c-4.361,0-6.5-2.3-6.5-6.93a25.18,25.18,0,0,1,1.558-8.76,9.046,9.046,0,0,1,4.361-5.03,11.256,11.256,0,0,1,5.179-.85,14.317,14.317,0,0,1,2.921.31,5.69,5.69,0,0,0,.779.08,1.212,1.212,0,0,0,1.246-1.13c0-.71-0.584-1.48-1.753-2.26A4.91,4.91,0,0,0,606.719,1974.72Zm13.4,21.69c-0.273,0-.429.08-0.429,0.19a0.358,0.358,0,0,0,.2.24c3.076,1.44,4.167,2.76,5.14,6.07,0.584,1.83.974,2.26,2.025,2.26a2.283,2.283,0,0,0,2.453-2.22c0-2.1-2.1-4.32-5.451-5.65A11.853,11.853,0,0,0,620.122,1996.41Zm69.827-7.4,1.129,0.08h0.2a0.737,0.737,0,0,0,.9-0.63,0.951,0.951,0,0,0-.39-0.74l-3.31-2.53a8.331,8.331,0,0,0-.856.94l-2.454,2.8c-0.545.66-1.518,1.6-3.7,3.66a16.965,16.965,0,0,0-5.529-6.03c1.635-1.13,2.024-1.41,3.972-2.77h9.034c0.623,0,.895-0.15.895-0.54a0.813,0.813,0,0,0-.35-0.55l-0.7-.62c0.35-.24.7-0.43,0.973-0.63,0.623-.35,1.208-0.74,1.792-1.12,0.117-.08.467-0.28,0.973-0.59l1.636,0.08h0.233a0.847,0.847,0,0,0,1.091-.74,1.452,1.452,0,0,0-.39-0.86l-3.621-3.77-1.441,1.94h-10.2v-2.84l0.895-.62a0.839,0.839,0,0,0,.468-0.67c0-.5-0.273-0.7-0.9-0.74l-4.011-.23v5.1H666.2c-0.077-.39-0.233-0.85-0.389-1.48a0.46,0.46,0,0,0-.428-0.46,0.544,0.544,0,0,0-.39.58,5.187,5.187,0,0,1-2.18,4.09c-1.6,1.21-1.753,1.44-1.753,2.22a2.149,2.149,0,0,0,2.3,1.87,2.6,2.6,0,0,0,2.219-1.44,5.113,5.113,0,0,0,.935-3.24,5.72,5.72,0,0,0-.078-1.09h23.52a34.248,34.248,0,0,1-1.83,4.13l-1.869-1.48-2.453,2.65H672.075c-1.752,0-3.193-.04-6.542-0.16l0.662,1.37c1.286-.04,2.415-0.08,2.843-0.08,1.519-.04,2.57-0.08,3.037-0.08h2.415a50.134,50.134,0,0,1-11.527,8.1c-2.3,1.21-2.3,1.21-2.3,1.44a0.336,0.336,0,0,0,.389.35,31.781,31.781,0,0,0,5.491-2.02,47.507,47.507,0,0,0,8.489-4.56,2.106,2.106,0,0,1,.545.62c-3.933,4.56-7.632,7.48-13.9,11.02a0.86,0.86,0,0,0-.584.55,0.32,0.32,0,0,0,.351.31c0.818,0,4.634-1.6,6.931-2.88a49.928,49.928,0,0,0,9.034-6.46,9.97,9.97,0,0,1,.662,1.32,48.306,48.306,0,0,1-16.549,12.81c-0.623.27-.74,0.39-0.74,0.58a0.352,0.352,0,0,0,.428.28,26.619,26.619,0,0,0,5.646-2.07,44.493,44.493,0,0,0,12.111-7.82,13.788,13.788,0,0,1-.662,5.14c-0.623,1.79-1.246,2.45-2.375,2.45a26.847,26.847,0,0,1-4.167-.51,7.7,7.7,0,0,0-.779-0.07,0.3,0.3,0,0,0-.35.31,0.637,0.637,0,0,0,.506.5c0.506,0.24,1.051.51,1.674,0.82,0.779,0.43,1.285.7,1.441,0.78a2.069,2.069,0,0,1,.662.47,2.038,2.038,0,0,1,.117.89,1.186,1.186,0,0,0,1.285,1.44,5.219,5.219,0,0,0,3.777-2.41,13.788,13.788,0,0,0,1.947-7.55,19.453,19.453,0,0,0-.233-2.96,29.481,29.481,0,0,0,10.981,10.63,7.408,7.408,0,0,1,4.011-3.47c-6.7-1.79-11.02-4.32-14.72-8.61,1.207-.7,1.752-1.01,3.661-1.98Zm23.8,0.08a58.413,58.413,0,0,1-1.09,9.93c-0.662,3.15-.818,3.38-2.3,3.38a23.441,23.441,0,0,1-3.232-.27,0.666,0.666,0,0,0-.233-0.04,0.305,0.305,0,0,0-.312.24c0,0.19.156,0.31,0.857,0.66,2.18,1.17,2.3,1.24,2.258,2.02,0,1.52.117,1.72,0.818,1.72,2.259,0,4.128-1.95,4.946-5.18,0.739-2.88.973-4.67,1.479-10.98l0.39-.12a0.911,0.911,0,0,0,.7-0.9,0.987,0.987,0,0,0-.429-0.77l-3.115-2.77-1.363,2.03h-2.687c0.234-4.37.234-4.68,0.234-5.92,0-.12,0-0.55-0.039-0.98h7.788a0.6,0.6,0,0,0,.7-0.5,1.2,1.2,0,0,0-.545-0.86l-2.765-2.41-2.259,2.72h-2.492v-5.72l0.779-.39a1.089,1.089,0,0,0,.584-0.9,0.969,0.969,0,0,0-1.09-.93l-3.7-.39v8.33h-1.168c-1.441,0-2.531-.04-5.218-0.15l0.818,1.32c1.908-.08,2.492-0.12,4.4-0.12h0.779v1.64c0,11.8-1.441,17.79-5.413,22.47-0.74.89-.74,0.89-0.74,1.13a0.339,0.339,0,0,0,.312.31c0.584,0,2.959-2.14,4.556-4.05,2.609-3.16,3.738-6.62,4.4-13.55h3.388Zm20.327,1.24-2.687,3.08h-3.972a37.809,37.809,0,0,0,.351-5.41h6.464a0.53,0.53,0,0,0,.662-0.51,0.612,0.612,0,0,0-.234-0.47l-3.232-2.8-2.492,2.73h-5.53c0.662-1.13.779-1.29,1.441-2.5l1.168-.46a0.786,0.786,0,0,0,.546-0.74,0.722,0.722,0,0,0-.546-0.7l-3.777-1.52c-1.168,4.98-2.3,7.98-4.205,10.9a2.946,2.946,0,0,0-.546,1.01,0.228,0.228,0,0,0,.234.24c0.7,0,3.388-2.81,4.984-5.18h1.753v0.74a44.84,44.84,0,0,1-.273,4.67h-1.674c-0.506,0-1.363,0-2.376-.04l-2.842-.12,0.584,1.33c2.1-.04,2.842-0.08,4.634-0.12h1.518c-0.584,5.22-2.842,8.3-8.683,11.72-0.662.35-.818,0.51-0.818,0.74a0.31,0.31,0,0,0,.35.27,6.644,6.644,0,0,0,1.247-.35,22.063,22.063,0,0,0,7.126-3.81c1.986-1.79,2.92-3.51,3.816-7.05a18.4,18.4,0,0,0,7.671,10.98,7.976,7.976,0,0,1,3.7-3.11c-6.658-3-8.917-4.95-10.864-9.39h9.385c0.623,0,.895-0.15.895-0.58a1.149,1.149,0,0,0-.389-0.82Zm-0.35-13.94-2.532,2.88h-8.138c0.545-.93.973-1.71,1.207-2.22,0.818-1.67.818-1.67,1.013-2.06l0.739-.19a0.951,0.951,0,0,0,.818-0.9,0.966,0.966,0,0,0-.779-0.93l-4.049-1.48c-1.363,6.46-2.532,9.58-5.024,13.66-0.7,1.13-.7,1.13-0.7,1.33a0.3,0.3,0,0,0,.312.27c0.779,0,3.543-3.08,5.763-6.42h14.486a0.593,0.593,0,0,0,.74-0.59,1.012,1.012,0,0,0-.39-0.7Zm26.448,3.2a0.2,0.2,0,0,0-.195.19,3.643,3.643,0,0,0,.973,2.03,7.535,7.535,0,0,0,5.413,1.9,22.334,22.334,0,0,0,6.62-.93,1.328,1.328,0,0,0,1.051-1.13,2.861,2.861,0,0,0-2.609-2.53,3.226,3.226,0,0,0-1.635.54,17.3,17.3,0,0,1-5.919,1.29c-1.675,0-2.96-.43-3.5-1.21A0.368,0.368,0,0,0,760.174,1979.59Zm14.252,17.71a4.126,4.126,0,0,0-1.285.24,21.769,21.769,0,0,1-5.3.74c-2.8,0-5.1-.82-6.386-2.22a5.672,5.672,0,0,1-1.48-3.31c-0.039-.43-0.078-0.55-0.234-0.55-0.35,0-.506.78-0.506,2.18,0,5.03,3.816,7.79,10.825,7.79,4.44,0,6.62-.93,6.62-2.76A2.137,2.137,0,0,0,774.426,1997.3Zm-18.925-7.24c-0.195,0-.312.12-0.584,0.7-0.078.2-.273,0.62-0.623,1.33-1.13,2.41-1.675,3.58-2.142,4.63-0.39.9-.545,1.09-0.974,1.09-0.545,0-.934-1.6-0.934-3.7,0-2.61.74-5.45,2.57-10.01a10.783,10.783,0,0,0,1.129-4.28,4.959,4.959,0,0,0-1.519-3.62,5.023,5.023,0,0,0-3.115-1.48,0.932,0.932,0,0,0-.779.23,0.135,0.135,0,0,0,.078.12c0.935,0.31,1.48,1.63,1.48,3.46a26.371,26.371,0,0,1-1.013,5.96c-1.09,4.83-1.44,7.21-1.44,9.66,0,6,2.3,10.75,5.218,10.75a1.339,1.339,0,0,0,1.441-.9,1.506,1.506,0,0,0-.117-0.54,9.56,9.56,0,0,1-.584-3.74,21.082,21.082,0,0,1,2.024-8.69,3.11,3.11,0,0,0,.2-0.66A0.338,0.338,0,0,0,755.5,1990.06Zm39.765,15.46c0.117-.04.584-0.04,1.285-0.08,4.634-.15,9.268-1.01,11.955-2.26,4.206-1.9,6.5-4.86,6.5-8.29,0-3.66-2.921-6.31-7.009-6.31a15.506,15.506,0,0,0-7.087,1.95,24.163,24.163,0,0,0-3.038,2.06,0.426,0.426,0,0,1-.194.16,0.881,0.881,0,0,1-.273-0.74,48.062,48.062,0,0,1,1.519-8.96c5.49-1.24,7.749-2.37,7.749-3.89a1.822,1.822,0,0,0-1.753-1.76c-0.467.04-.817,0.08-1.051,0.08a10.237,10.237,0,0,1-3.66-.78c0.116-.5.116-0.58,0.155-0.74a3.534,3.534,0,0,0,.156-1.05,1.965,1.965,0,0,0-1.129-1.87,5.476,5.476,0,0,0-2.414-.66c-1.091,0-2.493.55-2.493,0.94,0,0.11.078,0.15,0.234,0.15a1.59,1.59,0,0,1,.974.35c0.817,0.51,1.207,1.64,1.207,3.35,0,0.78-.117,2.3-0.273,3.7a9.887,9.887,0,0,1-2.765.35c-2.687,0-4.127-.54-4.906-1.83a0.168,0.168,0,0,0-.117-0.12c-0.117,0-.2.08-0.2,0.28a4.315,4.315,0,0,0,4.4,4.24,21.238,21.238,0,0,0,3.31-.35,40.852,40.852,0,0,1-2.064,8.76c-0.662,1.75-.662,1.79-0.662,2.3,0,1.25,2.064,3.39,3.232,3.39,0.389,0,.623-0.27.895-1.01,1.208-3.39,5.608-6.82,8.84-6.82,2.3,0,4.05,2.06,4.05,4.83a5.868,5.868,0,0,1-1.636,4.13,14.623,14.623,0,0,1-5.763,3.77,35.588,35.588,0,0,1-8.45,2.07c-0.428.04-.545,0.11-0.545,0.31,0,0.23.156,0.35,0.545,0.35h0.467Zm4.673-28.19c0.2,0.07.584,0.27,1.207,0.54,1.013,0.47,1.052.51,1.052,0.82,0,0.51-.974,1.01-2.726,1.48C799.705,1978.88,799.744,1978.65,799.939,1977.33Zm39.454,2.96,0.156,0.07c1.674,0.55,2.414,1.72,2.3,3.82a111.975,111.975,0,0,0,.935,13.08c-1.6-.07-1.83-0.07-2.492-0.07-4.478,0-7.4,1.59-7.4,4.05,0,2.41,3.232,4.36,7.2,4.36,2.3,0,4.128-.74,4.984-2.03a4.742,4.742,0,0,0,.818-2.92,24.629,24.629,0,0,1,3.5,3c0.973,1.05,1.324,1.29,2.025,1.29a1.7,1.7,0,0,0,1.674-1.8c0-1.86-2.843-3.97-7.321-5.41a37.8,37.8,0,0,1-1.168-8.95,22.044,22.044,0,0,0,3.894.38c2.687,0,4.089-.38,4.089-1.16,0-.98-0.779-1.68-2.726-2.5a8.715,8.715,0,0,1-5.3,1.68,16.39,16.39,0,0,1,.779-4.6,1.869,1.869,0,0,0,.234-0.81c0-1.13-2.532-2.69-4.323-2.69-0.74,0-2.375.7-2.375,1.01a0.31,0.31,0,0,0,.2.24Zm3.427,19.23a5.938,5.938,0,0,1-.2,1.68c-0.311,1.17-1.674,1.87-3.582,1.87-2.259,0-3.933-.94-3.933-2.15,0-1.28,1.44-2.1,3.7-2.1A12.456,12.456,0,0,1,842.82,1999.52Zm42.958-20.71a11.4,11.4,0,0,1,1.792.11c0.545,0.04.895,0.08,1.246,0.08,1.48,0,2.1-.35,2.1-1.17,0-1.59-.974-3.03-2.064-3.03-0.117,0-.351.03-0.7,0.07a11.823,11.823,0,0,1-1.324.08c-3.427,0-5.218-.97-6.153-3.31-0.078-.27-0.155-0.35-0.272-0.35a1.972,1.972,0,0,0-.39,1.56,5.154,5.154,0,0,0,2.648,4.36c0.39,0.19.468,0.23,0.468,0.35a0.645,0.645,0,0,1-.312.39,7.733,7.733,0,0,0-2.064,1.64,0.2,0.2,0,0,0,.2.11,0.289,0.289,0,0,0,.156-0.04A15.411,15.411,0,0,1,885.778,1978.81Zm-9.7,4.94c-0.389,0-.895,1.52-0.895,2.57,0,2.07,1.44,3.86,3.076,3.86,0.428,0,.857-0.28,1.869-1.13a33.509,33.509,0,0,1,3.7-3.08,7.956,7.956,0,0,1,3.895-1.67c2.024,0,3.193,2.26,3.193,6.31a15.049,15.049,0,0,1-4.517,11.02,28.893,28.893,0,0,1-7.438,4.79c-0.428.15-.584,0.27-0.584,0.42a0.3,0.3,0,0,0,.35.2,32.27,32.27,0,0,0,6.036-1.95c6.542-2.84,10.319-8.25,10.319-14.68,0-4.91-2.414-7.94-6.347-7.94-1.947,0-3.738.58-7.632,2.45a5.96,5.96,0,0,1-2.687.9,2.359,2.359,0,0,1-2.181-1.87A0.217,0.217,0,0,0,876.082,1983.75Zm61.689-8.99c-1.207,0-1.83.15-1.83,0.39a0.433,0.433,0,0,0,.39.31,6.453,6.453,0,0,1,3.465,2.8c0.7,1.13.818,1.21,1.4,1.21a1.579,1.579,0,0,0,1.713-1.56C942.911,1976.28,940.419,1974.76,937.771,1974.76Zm-4.361,2.96c-0.973,0-1.363.07-1.363,0.31,0,0.19.117,0.31,0.584,0.43a6.414,6.414,0,0,1,3.154,3.19,1.327,1.327,0,0,0,1.285,1.05,1.52,1.52,0,0,0,1.6-1.63C938.667,1979.27,936.214,1977.72,933.41,1977.72Zm-9.346,12.15c-4.984,2.29-7.671,5.37-7.671,8.76a6.494,6.494,0,0,0,3.31,5.49,16.527,16.527,0,0,0,8.139,1.71,31.08,31.08,0,0,0,8.605-1.13c1.324-.47,1.831-0.97,1.831-1.71a2.991,2.991,0,0,0-2.843-2.77,6.612,6.612,0,0,0-2.064.51,23.766,23.766,0,0,1-7.321,1.36c-4.127,0-6.542-1.55-6.542-4.2a6.879,6.879,0,0,1,3.232-5.42,18.493,18.493,0,0,1,4.167-2.02,32.814,32.814,0,0,0,4.439-.93c2.531-.71,3.193-1.06,3.193-1.76,0-1.13-1.791-2.68-3.115-2.68a1.387,1.387,0,0,0-.973.46c-1.831,1.6-3.544,2.65-4.284,2.65-0.467,0-.857-0.93-0.857-2.06a32.942,32.942,0,0,1,1.247-7.87,6.99,6.99,0,0,0,.506-2.45,2.478,2.478,0,0,0-1.285-2.07,6.706,6.706,0,0,0-3.466-1.16c-1.441,0-3.544.78-3.544,1.32,0,0.16.117,0.23,0.39,0.23a3.915,3.915,0,0,1,2.025.67c0.856,0.62,1.129,1.28,1.129,2.8,0,0.39,0,1.05-.078,2.34-0.039,1.16-.039,1.67-0.039,2.37C922.2,1986.44,922.39,1987.26,924.064,1989.87Zm49.618-6.51c-1.207,0-2.687.47-2.687,0.82,0,0.12.117,0.2,0.389,0.2,3.972-.2,6.854,2.88,7.477,7.94,0.156,1.87.2,1.95,0.584,2.41a1.813,1.813,0,0,0,1.246.51,2.736,2.736,0,0,0,2.492-2.96,8.477,8.477,0,0,0-2.375-5.65A9.142,9.142,0,0,0,973.682,1983.36Zm-20.872-6.27a0.445,0.445,0,0,0-.506.24,0.346,0.346,0,0,0,.194.27c1.4,0.74,2.064,2.26,2.064,4.67,0,0.39,0,.82-0.039,1.4-0.078,1.76-.156,3.55-0.156,4.29,0,4.87,1.013,8.68,3.038,11.52,1.752,2.42,3.933,3.78,6,3.78a1.851,1.851,0,0,0,1.986-1.48,0.721,0.721,0,0,0-.078-0.31,5.3,5.3,0,0,1-1.169-3.35,22.431,22.431,0,0,1,1.324-6.85,0.245,0.245,0,0,0,.039-0.16,0.267,0.267,0,0,0-.272-0.27c-0.195,0-.662.78-1.947,3.39a21.6,21.6,0,0,1-1.558,3,1.313,1.313,0,0,1-1.012.7,2.268,2.268,0,0,1-1.324-1.05,10.688,10.688,0,0,1-1.869-6.74,23.917,23.917,0,0,1,.934-6.82,5.417,5.417,0,0,0,.428-1.67,4.68,4.68,0,0,0-1.129-2.65A7.653,7.653,0,0,0,952.81,1977.09Zm62.16,6.27c-1.21,0-2.69.47-2.69,0.82,0,0.12.12,0.2,0.39,0.2,3.97-.2,6.85,2.88,7.48,7.94,0.15,1.87.19,1.95,0.58,2.41a1.813,1.813,0,0,0,1.25.51,2.736,2.736,0,0,0,2.49-2.96,8.474,8.474,0,0,0-2.38-5.65A9.139,9.139,0,0,0,1014.97,1983.36Zm-20.876-6.27a0.445,0.445,0,0,0-.506.24,0.348,0.348,0,0,0,.194.27c1.4,0.74,2.064,2.26,2.064,4.67,0,0.39,0,.82-0.039,1.4-0.078,1.76-.155,3.55-0.155,4.29,0,4.87,1.012,8.68,3.037,11.52,1.751,2.42,3.931,3.78,6,3.78a1.845,1.845,0,0,0,1.98-1.48,0.707,0.707,0,0,0-.08-0.31,5.321,5.321,0,0,1-1.16-3.35,22.293,22.293,0,0,1,1.32-6.85,0.24,0.24,0,0,0,.04-0.16,0.269,0.269,0,0,0-.27-0.27c-0.2,0-.67.78-1.95,3.39a22.64,22.64,0,0,1-1.56,3,1.309,1.309,0,0,1-1.01.7,2.3,2.3,0,0,1-1.33-1.05,10.719,10.719,0,0,1-1.864-6.74,23.917,23.917,0,0,1,.934-6.82,5.4,5.4,0,0,0,.43-1.67,4.683,4.683,0,0,0-1.131-2.65A7.653,7.653,0,0,0,994.094,1977.09Zm47.6,27.77h15.85v1.17c0,0.35.27,0.54,0.77,0.54a6.855,6.855,0,0,0,2.11-.31,1.128,1.128,0,0,0,.81-1.25v-14.52l0.74-.27a1.115,1.115,0,0,0,.78-0.9,1.518,1.518,0,0,0-.46-0.93l-3.24-3.27-1.83,2.37h-14.64l-3.78-1.87v-1.32h22.05v1.56c0,0.35.31,0.54,0.93,0.54a7.435,7.435,0,0,0,2.34-.47,0.953,0.953,0,0,0,.62-0.93v-7.75l0.54-.16a1,1,0,0,0,.71-0.93,1.387,1.387,0,0,0-.39-0.9l-3.51-3.5-1.71,2.61h-20.95l-4.36-2.18v14.02a0.773,0.773,0,0,0,.93.81,7.432,7.432,0,0,0,2.03-.35v19.55a0.5,0.5,0,0,0,.62.58,8.52,8.52,0,0,0,2.37-.38,0.866,0.866,0,0,0,.67-0.86v-0.7Zm-2.89-21.61v-3.39h22.05v3.39H1038.8Zm0-7.83h22.05v3.39H1038.8v-3.39Zm2.89,28.39v-4.48h15.85v4.48h-15.85Zm0-5.53v-4.4h15.85v4.4h-15.85Zm0-5.45v-4.29h15.85v4.29h-15.85Zm44.2-15.31h0.86a0.983,0.983,0,0,0,1.13-.93,1.292,1.292,0,0,0-.35-0.78l-3.27-3.58-1.48,2.22h-4.13l-4.17-2.38v34.15a0.632,0.632,0,0,0,.78.74,6.173,6.173,0,0,0,2.1-.39,0.933,0.933,0,0,0,.67-1.01v-9.11c2.18,0.7,2.49.93,2.57,1.83,0.15,1.05.42,1.44,1.05,1.44,2.33,0,4.32-3.04,4.32-6.58,0-3.47-1.56-6.16-5.37-9.12Zm-7.86-2.02h4.67l-3.31,8.64a8.5,8.5,0,0,1,.5.78,15.944,15.944,0,0,1,1.09,1.64,10.52,10.52,0,0,1,1.8,5.72c0,2.45-.86,3.35-3.16,3.35a13.562,13.562,0,0,1-1.59-.12V1975.5Zm23.83,20.32v1.56c0,0.55.11,0.62,0.66,0.62a8.689,8.689,0,0,0,2.14-.27,0.82,0.82,0,0,0,.74-0.85v-6l0.55-.27a0.811,0.811,0,0,0,.46-0.67,1.219,1.219,0,0,0-.27-0.74l-3.15-3.31-1.6,2.5h-3.74v-3.74h4.01a0.535,0.535,0,0,0,.66-0.55,0.8,0.8,0,0,0-.31-0.62l-3.19-2.45-2.14,2.45h-2.61c-1.21,0-1.71-.04-4.6-0.16a30.934,30.934,0,0,0,4.75-5.72c0.47-.7.94-1.4,1.41-2.14,0.15-.2.35-0.47,0.62-0.9a26.055,26.055,0,0,0,10.2,11.96,11.758,11.758,0,0,1,2.92-3.39c-6.11-2.61-9.85-5.37-12.19-9.07l0.47-.16a0.66,0.66,0,0,0,.55-0.62,0.8,0.8,0,0,0-.55-0.74l-4.13-2.03c-2.18,6.35-4.75,10.87-8.25,14.45-1.36,1.4-1.36,1.4-1.36,1.6a0.342,0.342,0,0,0,.31.35c0.46,0,2.72-1.52,4.59-3.12l0.55,0.97,1.91-.03c0.42,0,1.47-.04,2.95-0.08v3.74h-2.88l-4.36-1.87v11.83a0.414,0.414,0,0,0,.47.47,12.574,12.574,0,0,0,2.14-.35,0.9,0.9,0,0,0,.7-0.93v-1.72h3.35c-0.9,5.3-3.93,8.38-10.83,10.91a0.466,0.466,0,0,0-.42.39,0.3,0.3,0,0,0,.31.31,13.93,13.93,0,0,0,1.75-.35,23.677,23.677,0,0,0,6.66-2.38c3.39-1.79,4.94-3.97,5.76-8.02a18.5,18.5,0,0,0,9.5,10.44,10.657,10.657,0,0,1,3.35-3.62c-6.27-1.64-9.69-3.82-12.15-7.68h4.29Zm-11.57-1.05v-5.33h3.9a38.786,38.786,0,0,1-.39,5.33h-3.51Zm11.57-5.33v5.33h-4.71a45.291,45.291,0,0,0,.42-5.33h4.29Zm31.27-14.72a3.375,3.375,0,0,1-1.83,1.24,4.283,4.283,0,0,0,.12-0.97,2.64,2.64,0,0,0-.97-2.45,3.127,3.127,0,0,0-1.91-.63c-1.01,0-2.26.39-2.26,0.71,0,0.11.08,0.15,0.27,0.19,0.9,0.04,1.52,1.21,1.52,2.84a4.992,4.992,0,0,1-.15,1.21,10.8,10.8,0,0,1-4.13.86c-1.4,0-2.07-.2-2.53-0.7a0.6,0.6,0,0,0-.31-0.2,0.183,0.183,0,0,0-.16.2,3.436,3.436,0,0,0,3.35,2.99,18.04,18.04,0,0,0,3.46-.54c-1.44,4.44-3.19,6.85-7.63,10.47-1.13.86-1.21,0.98-1.21,1.56,0,1.44,1.13,3.23,1.99,3.23,0.55,0,1.01-.42,1.56-1.32,0.82-1.36,2.84-4.4,3.27-4.95a4.432,4.432,0,0,1,2.84-1.71c1.29,0,1.95,1.29,1.99,3.86l0.04,1.67v0.78a29.756,29.756,0,0,0-3.59,2.34c-1.94,1.55-2.88,3.11-2.88,4.75a4.993,4.993,0,0,0,2.77,4.2,13.575,13.575,0,0,0,6.58,1.29,31.485,31.485,0,0,0,5.92-.55c1.59-.39,2.41-1.05,2.41-1.91a3.425,3.425,0,0,0-.82-1.75,2.273,2.273,0,0,0-1.67-.7,4.474,4.474,0,0,0-1.17.27,23.353,23.353,0,0,1-6.03.86c-3.74,0-5.46-.78-5.46-2.49a4.566,4.566,0,0,1,1.33-2.92,12.963,12.963,0,0,1,2.68-2.14v0.73l-0.03,1.56a7.648,7.648,0,0,1-.08,1.25,1.679,1.679,0,0,0-.04.43,0.852,0.852,0,0,0,.93.66c1.68,0,2.42-.78,2.42-2.49,0-.7-0.04-1.33-0.12-3.59a73.885,73.885,0,0,1,10.83-4.4c2.64-.93,3.7-1.9,3.7-3.38,0-2.5-2.26-4.29-5.38-4.29-4.32,0-7.63,2.92-10.08,8.88-0.24-1.67-.55-2.45-1.21-3.04a4.256,4.256,0,0,0-2.8-1.01,5.62,5.62,0,0,0-2.07.47c1.6-2.69,2.22-3.86,4.01-7.4,3.86-1.13,4.79-1.67,4.79-2.73,0-.5,0-0.5-1.63-1.05Zm0.24,16.59v-0.08a9.519,9.519,0,0,1,1.55-3.78c1.95-3.27,4.29-5.06,6.62-5.06a2.143,2.143,0,0,1,1.99,2.06c0,1.09,0,1.09-10.2,6.97Z" transform="translate(-246.875 -1970.5)"/>
</svg>
