<svg xmlns="http://www.w3.org/2000/svg" viewBox="0 0 350.89 29.34"><defs><style>.cls-1{fill:#333;}</style></defs><title>pickup-event-title</title><g id="レイヤー_2" data-name="レイヤー 2"><g id="レイヤー_1-2" data-name="レイヤー 1"><path class="cls-1" d="M4.32,21.71c0,2.3.58,2.55,6,2.55,4.29,0,5.91-.14,7.46-.68a1.87,1.87,0,0,1,.64-.15,2,2,0,0,1,1.08.51.93.93,0,0,1,.51.9c0,.75-.65,1.19-1.95,1.26s-5.47.25-6.87.25C7.59,26.35,4.9,26,4,25.49c-1.23-.69-1.7-2-1.7-4.61V7.31c0-1.59,0-2.45,0-2.56C2.23,4.28,2,4.14,0,3.31,1,2.45,1.4,2.2,1.73,2.2A9.59,9.59,0,0,1,4.46,3.53c.9.57,1.16.86,1.16,1.26s-.18.47-.51.65-.54.36-.54.82L4.39,13c8-2.63,10.91-3.78,10.91-4.39,0-.29-.72-1-1.48-1.4a3.38,3.38,0,0,1,1.51-.58c.36,0,.51.07,1.66,1.15,1.48,1.3,1.66,1.51,1.66,2s0,.43-1.91,1.11S9.18,13.1,4.36,14.18Zm19.51-18A3.48,3.48,0,1,1,20.41.22,3.51,3.51,0,0,1,23.83,3.71ZM18,3.67a2.38,2.38,0,1,0,4.75,0,2.38,2.38,0,0,0-4.75,0Z"/><path class="cls-1" d="M37.26,11.23c3.06,1.23,4.79,2.92,4.79,4.75a1.28,1.28,0,0,1-1.26,1.41c-.72,0-.9-.26-1.37-1.88a6.72,6.72,0,0,0-2.52-3.78ZM52.92,10l.21-.11a3.4,3.4,0,0,0,.51-.21,1.28,1.28,0,0,1,.43-.11c.72,0,3,2.38,3,3.13,0,.25-.18.4-1,.72A36.68,36.68,0,0,1,51.8,20a24.65,24.65,0,0,1-10,7.49,9.08,9.08,0,0,1-1.94.72.33.33,0,0,1-.36-.32c0-.22.14-.36.75-.65A30.61,30.61,0,0,0,46,23.58a28.52,28.52,0,0,0,6.76-8.93,9.49,9.49,0,0,0,1.16-3c0-.36-.4-.86-1.3-1.58ZM43,9.47c3,.68,5.29,2.88,5.29,5a1.21,1.21,0,0,1-1.22,1.22c-.76,0-.9-.18-1.3-1.4a8,8,0,0,0-3.06-4.43Z"/><path class="cls-1" d="M90.86,5.62A10.27,10.27,0,0,1,92.52,7l.47.44c.43.43.57.61.57.82s-.29.47-1.08.69c-.43.18-.47.18-.65.65a51.41,51.41,0,0,1-4.78,8.09c-2.74,3.75-5.19,5.91-10,8.86a16.7,16.7,0,0,1-3.64,1.91.4.4,0,0,1-.4-.36c0-.18.15-.36.51-.54,7.59-4.65,12.34-10.37,16.09-19.3A46,46,0,0,0,82.15,9l-.54-.57a36,36,0,0,1-6.91,8,13.8,13.8,0,0,1-3.49,2.49.31.31,0,0,1-.29-.29c0-.22.11-.33.61-.76a37.85,37.85,0,0,0,7-8.53,37.32,37.32,0,0,0,2.88-5.69c0-.28-.61-.75-1.4-1.08-.47-.18-.54-.21-.54-.36s1.29-.79,1.76-.79.5,0,2.92,1.51c.68.44.9.69.9,1.05s-.18.5-.76.72a1.54,1.54,0,0,0-.68.5c0,.07-.11.22-.47.87-.25.39-.4.61-.69,1.11l1.34,0L86,7l2.55-.15c.15,0,.47,0,1-.07Z"/><path class="cls-1" d="M126.36,9.32c-2.92,1.77-3.39,2-5.65,3.21-.44,5.72-2.09,9.57-5.37,12.56-1.51,1.4-4.86,3.63-5.43,3.63a.32.32,0,0,1-.33-.32c0-.18.11-.29.62-.61a16.55,16.55,0,0,0,6.3-6.8,25.25,25.25,0,0,0,1.9-8.75c0-1-.57-1.58-1.94-1.91-.4-.11-.54-.18-.54-.32s.11-.29,1.33-1.15a11.11,11.11,0,0,1,4,2.23c3.31-2.56,4.42-3.49,6.94-5.69-13.13,1.08-16.55,1.62-18.82,3a.57.57,0,0,1-.33.14,4.25,4.25,0,0,1-1.26-1c-1.58-1.65-1.58-1.65-1.58-2a1.49,1.49,0,0,1,.94-1.47c.72,1,1.36,1.55,2,1.55a3.77,3.77,0,0,0,.58-.08,5.67,5.67,0,0,0,.93-.1l4-.44c6-.64,7-.72,13.93-1.18l1.29-1a19.16,19.16,0,0,1,1.59,1.23c1.22,1,1.54,1.4,1.54,1.8s-.28.57-1.54.57h-.29c-.65.36-1.51.9-2.59,1.55Z"/><path class="cls-1" d="M144.54,11.23c3.06,1.23,4.79,2.92,4.79,4.75a1.28,1.28,0,0,1-1.26,1.41c-.72,0-.9-.26-1.37-1.88a6.72,6.72,0,0,0-2.52-3.78ZM160.2,10l.21-.11a3.4,3.4,0,0,0,.51-.21,1.28,1.28,0,0,1,.43-.11c.72,0,3,2.38,3,3.13,0,.25-.18.4-1,.72A36.68,36.68,0,0,1,159.08,20a24.65,24.65,0,0,1-10,7.49,9.08,9.08,0,0,1-1.94.72.33.33,0,0,1-.36-.32c0-.22.14-.36.75-.65a30.61,30.61,0,0,0,5.73-3.67,28.52,28.52,0,0,0,6.76-8.93,9.49,9.49,0,0,0,1.16-3c0-.36-.4-.86-1.3-1.58Zm-9.9-.5c3,.68,5.29,2.88,5.29,5a1.21,1.21,0,0,1-1.22,1.22c-.76,0-.9-.18-1.3-1.4A8,8,0,0,0,150,9.86Z"/><path class="cls-1" d="M197.67,5.18c2.45,1.84,3.28,2.6,3.28,3s-.29.5-1.15.82a30.89,30.89,0,0,1-3.67,8.14C193.75,21,191.2,23.18,185.87,26a20,20,0,0,1-3.71,1.62.43.43,0,0,1-.43-.36c0-.22.18-.4.86-.76,8.57-4.57,12.06-9.1,14.62-18.86l-.65.07L194.22,8c-9.9,1-10,1.08-11.41,1.9a1.83,1.83,0,0,1-.79.29c-.69,0-3.46-2.55-3.46-3.17a2.33,2.33,0,0,1,.72-1.33c1.66,1.44,1.94,1.62,2.7,1.62l2.88-.21,6.44-.54c.51-.08,2.27-.18,5.8-.4Zm9.22-1.72a3.48,3.48,0,1,1-6.95,0,3.48,3.48,0,0,1,6.95,0Zm-5.9,0a2.41,2.41,0,1,0,2.37-2.41A2.41,2.41,0,0,0,201,3.49Z"/><path class="cls-1" d="M231.16,27.25v.68A1.12,1.12,0,0,1,230,29.19c-.68,0-1.58-.75-1.58-1.33a2.23,2.23,0,0,1,.07-.47c.36-1.4.43-2.81.43-7.09v-1l0-6.51A63.17,63.17,0,0,1,219.2,19a34,34,0,0,1-4.49,1.9.4.4,0,0,1-.4-.36c0-.25,0-.28,1.08-.82a55.25,55.25,0,0,0,11.88-8.25,74.93,74.93,0,0,0,6.8-6.76c.86-1,.86-1,.86-1.26,0-.54-.68-1.16-1.69-1.59,0-.07,0-.14,0-.14a.22.22,0,0,1,.18-.18l.5-.22c.61-.29.61-.29.79-.29s.36,0,1.7.94,2.23,1.84,2.23,2.45-.36.72-1.77,1.15l-.68.65c-3.13,2.95-4,3.81-5.36,5,1,.25,1.22.39,1.22.75s-.11.4-.93,1Z"/><path class="cls-1" d="M251.28,14.69c1.26.86,1.44,1,1.84,1s.5-.11,1.4-.9l6.77-5.87A2.6,2.6,0,0,1,263,8.06a3.34,3.34,0,0,1,2.06.83l9.07,6.55a48.71,48.71,0,0,0,5.94,3.78c1,.51,1.29,1,1.29,1.8s-.39,1.44-.93,1.44-1.87-.75-3.67-2.12l-11.34-8.89c-2.09-1.59-2.09-1.59-2.45-1.59a1.74,1.74,0,0,0-1,.47l-6.23,6.44a2.49,2.49,0,0,0-.61,1.3c-.14.43-.29.58-.61.58-1,0-3.92-2.13-3.92-2.88a4.89,4.89,0,0,1,.36-1.3ZM269.89,4.21c2.95.25,5.65,2.05,5.65,3.78a1.18,1.18,0,0,1-1.11,1.15c-.44,0-.65-.18-1-.72C272,6.34,271,5.36,269.78,4.72Zm3.42-2.48c3.78.39,6,1.47,6,3a1.13,1.13,0,0,1-1,1.26c-.39,0-.79-.26-1.33-.87a8.86,8.86,0,0,0-3.89-2.77Z"/><path class="cls-1" d="M296.82,4A16.27,16.27,0,0,1,301,5.47c2.16,1.19,3.52,3,3.52,4.57A1.75,1.75,0,0,1,303.05,12c-.58,0-.87-.36-1.41-1.73a11.25,11.25,0,0,0-5.07-5.61Zm4,23c-.58,0-1.34-.54-2.63-1.8s-1.48-1.51-1.48-1.91a3.78,3.78,0,0,1,.61-1.33c1.05,1,1.8,1.58,2.27,1.58a28.08,28.08,0,0,0,4.68-2.09A82,82,0,0,0,321.44,8.39c.36-.4.54-.51.72-.51a.39.39,0,0,1,.33.36c0,.54-2.24,3.1-5.15,6-5.73,5.61-10.12,8.85-15.59,11.48C301.28,26.75,301.1,27,300.82,27Z"/><path class="cls-1" d="M337.39,4.43c0-1.12,0-1.3-.29-1.62a8.83,8.83,0,0,0-2-1.23c.9-.79,1.15-1,1.44-1a9.53,9.53,0,0,1,2.34,1c1.19.64,1.76,1.18,1.76,1.65a1.54,1.54,0,0,1-.43.83,3.14,3.14,0,0,0-.36.47,7.11,7.11,0,0,0-.14,1.69l-.22,5.4a21,21,0,0,1,7.09,2.41c2.81,1.48,4.32,3.06,4.32,4.54a1.17,1.17,0,0,1-1.15,1.22c-.58,0-.9-.22-1.51-1a20,20,0,0,0-8.68-6.19l.07,15.73a1,1,0,0,1-.93.94,1.93,1.93,0,0,1-1.8-1.62,10.53,10.53,0,0,1,.21-1.41,10.32,10.32,0,0,0,.11-1.26l.15-4.32,0-10.36Z"/></g></g></svg>