<svg xmlns="http://www.w3.org/2000/svg" viewBox="0 0 325.3 46.01"><defs><style>.cls-1{fill:#343434;}</style></defs><title>pickup-new-title-sp</title><g id="Layer_2" data-name="Layer 2"><g id="Layer_1-2" data-name="Layer 1"><path class="cls-1" d="M3.08,22.46c.11-6.42.11-6.42.11-7,0-4-.71-5.61-2.81-6.31C.11,9,0,9,0,8.8c0-.32,1.84-1,2.75-1,2,0,4.76,2.1,4.76,3.67a10.12,10.12,0,0,1-.11,1.08c-.43,1.89-.6,3.4-1.14,11.93A56.17,56.17,0,0,0,14.63,20c3.3-2.16,4.43-3.35,4.43-4.75a1.87,1.87,0,0,0-.7-1.41c-.22-.16-.27-.27-.27-.43s.22-.38.54-.38a9.84,9.84,0,0,1,4.16,1.52c2,1.18,2.86,2,2.86,2.86s-.86,1.29-5,3A127.81,127.81,0,0,1,6.21,25.65c0,2.16,0,2.32-.11,3.56,0,.76,0,1.41,0,1.89a7.61,7.61,0,0,0,1.62,5.08c.92.92,2.59,1.35,5.34,1.35,5.19,0,8.64-.65,11.61-2.16a19.15,19.15,0,0,1,3.62,1.24c.92.43,1.24.81,1.24,1.41,0,1.08-.75,1.78-2.21,2.16a35.42,35.42,0,0,1-7.78.7c-5.94,0-9.88-.38-11.71-1.08C4.7,38.66,3,35.53,3,31.1l0-3.45ZM35.15,7.67a5.29,5.29,0,1,1-5.23-5.29A5.3,5.3,0,0,1,35.15,7.67Zm-8.74,0a3.46,3.46,0,1,0,3.4-3.46A3.47,3.47,0,0,0,26.41,7.67Z"/><path class="cls-1" d="M61.24,22.09C63.13,23.49,64,25,64,26.51c0,1.41-.75,2.33-1.89,2.33-1,0-1.29-.44-1.72-1.95-.71-2.48-3-5.51-4.65-6.15-.59-.27-.7-.33-.7-.54s.27-.38.7-.38C57.08,19.76,59.45,20.74,61.24,22.09ZM58.43,45.63c-.54.11-.92.22-1.08.27a2.72,2.72,0,0,1-.54.11.74.74,0,0,1-.65-.6c0-.16.11-.21.32-.26a39.29,39.29,0,0,0,8.1-4.22A46.92,46.92,0,0,0,77,28.89a32.74,32.74,0,0,0,3.35-6.75,20.55,20.55,0,0,0,.86-3.94,2.23,2.23,0,0,0-1.46-2.11c-.37-.11-.48-.21-.48-.38,0-.37.65-.59,1.56-.59a4.1,4.1,0,0,1,3.14,1.57c1.78,1.83,2.37,2.59,2.37,3.07s-.21.71-1.35,1.57C80.08,32.89,68.69,43.36,58.43,45.63Zm14-22.84a2.17,2.17,0,0,1-2,2.27A1.36,1.36,0,0,1,69,23.81c-.49-3-2.86-6.75-4.81-7.61-.21-.11-.32-.22-.32-.38s.21-.32.54-.32C67.82,15.5,72.41,19.6,72.41,22.79Z"/><path class="cls-1" d="M110.65,42.82a56.32,56.32,0,0,0,16.57-11.61,45,45,0,0,0,9.4-12.69,18.88,18.88,0,0,0,2-4.8,1.27,1.27,0,0,0-1.3-1.19,9.47,9.47,0,0,0-1,.11c-.17,0-1.3.27-2.43.43-.92.16-1.68.27-2.11.32a4.6,4.6,0,0,1-1.08.16,4.26,4.26,0,0,1-2.11-.75,52.84,52.84,0,0,1-8.91,10.85c-2.59,2.38-6.15,4.81-7,4.81-.32,0-.59-.16-.59-.38,0-.38.11-.49,1.46-1.46,2.27-1.56,5.88-5.72,8.85-10.1C124.63,13.07,126,10,126,8.21a3.45,3.45,0,0,0-2-3.35c-.22-.05-.38-.22-.38-.32,0-.27.59-.49,1.46-.49A6.43,6.43,0,0,1,128.9,5.4c1.94,1.3,2.37,1.73,2.37,2.48,0,.33-.05.44-.37.81A10.44,10.44,0,0,0,130,10c-.38.87-.54,1.14-.76,1.57a3.7,3.7,0,0,0,1.3.22A34.74,34.74,0,0,0,137,10.64a10.64,10.64,0,0,0,2.05-1c.92-.6,1.24-.71,1.57-.71.59,0,1.29.44,3.13,2,1.62,1.35,1.83,1.57,1.83,2s-.21.65-.81.87a14.51,14.51,0,0,0-1.72.75C135.38,30,126.25,38.5,111.73,43.85a3.84,3.84,0,0,0-.76.27,3.3,3.3,0,0,1-.49.11c-.43,0-1-.44-1-.81,0-.17.11-.27.76-.44Z"/><path class="cls-1" d="M190.73,18.52a5.4,5.4,0,0,1-.7.38,54.24,54.24,0,0,1-8.64,17.82,28.21,28.21,0,0,1-8.21,7.45A6.29,6.29,0,0,1,171,45a.54.54,0,0,1-.54-.44c0-.16.06-.21.65-.64a29.36,29.36,0,0,0,9.72-11.29,39.66,39.66,0,0,0,3.67-9.94,31,31,0,0,0,.92-5.23,1.77,1.77,0,0,0-1.46-2c-.16-.06-.27-.16-.27-.27,0-.33.49-.65,1-.65,1.35,0,3.61,1.19,5.72,3,3.94-2.32,7.88-5.83,7.88-7.07,0-.65-1-1-3-1a113.54,113.54,0,0,0-11.66,1.4,43.33,43.33,0,0,0-8.75,2.49c-1,.48-1.19.54-1.46.54-1.13,0-3-1.24-4-2.65-.64-1-.75-1.24-.86-3.13V7.78a.49.49,0,0,1,.49-.49c.21,0,.27,0,.48.49.38,1,2.32,1.94,3.84,1.94.43,0,1.08-.05,1.94-.11.49,0,1.62-.16,3.35-.27s3.24-.21,3.78-.27c1.94-.21,3.89-.48,5.88-.7,8-.86,8.43-.92,11.45-1.84a5.24,5.24,0,0,1,.81-.1c.76,0,1.73.81,3.35,2.8.59.76,1,1.25,1.19,1.46.75.76.92,1,.92,1.57s-.38.86-1.19.92c-2.86.27-3.67.54-7.13,2.26-2,1-2.54,1.19-5.35,2.43Z"/><path class="cls-1" d="M233,22.09c1.89,1.4,2.8,2.86,2.8,4.42,0,1.41-.75,2.33-1.89,2.33-1,0-1.29-.44-1.72-1.95-.71-2.48-3-5.51-4.65-6.15-.59-.27-.7-.33-.7-.54s.27-.38.7-.38C228.8,19.76,231.17,20.74,233,22.09Zm-2.81,23.54c-.54.11-.92.22-1.08.27a2.72,2.72,0,0,1-.54.11.74.74,0,0,1-.65-.6c0-.16.11-.21.32-.26a39.29,39.29,0,0,0,8.1-4.22,46.92,46.92,0,0,0,12.37-12A32.74,32.74,0,0,0,252,22.14a20.55,20.55,0,0,0,.86-3.94,2.23,2.23,0,0,0-1.46-2.11c-.37-.11-.48-.21-.48-.38,0-.37.65-.59,1.56-.59a4.1,4.1,0,0,1,3.14,1.57c1.78,1.83,2.37,2.59,2.37,3.07s-.21.71-1.35,1.57C251.8,32.89,240.41,43.36,230.15,45.63Zm14-22.84a2.17,2.17,0,0,1-2,2.27,1.36,1.36,0,0,1-1.4-1.25c-.49-3-2.86-6.75-4.81-7.61-.21-.11-.32-.22-.32-.38s.21-.32.54-.32C239.54,15.5,244.13,19.6,244.13,22.79Z"/><path class="cls-1" d="M298.3,36.07a44.32,44.32,0,0,1-14.53,6.21,3.33,3.33,0,0,1-.7.16,2.37,2.37,0,0,1-.49.11c-.32,0-.75-.27-.75-.54s.16-.32.81-.54a57.42,57.42,0,0,0,14.58-8,46.24,46.24,0,0,0,10.85-13.18c1.3-2.43,2.38-5.45,2.38-6.53,0-.87-.65-1.35-1.62-1.35a70.73,70.73,0,0,0-18,3.13,2.74,2.74,0,0,1-.91.27,7.1,7.1,0,0,1-3.08-1.62,4.07,4.07,0,0,1-1.24-2.86c0-1,.16-1.52.54-1.52.16,0,.21.11.37.49.33,1,2.22,1.89,4.22,1.89s9.18-.76,14.31-1.46c2.64-.38,3.45-.65,4.64-1.4s1.3-.76,1.73-.76c.75,0,1.24.27,3.56,2.22.6.48,1.14.91,1.24,1,.92.65,1.19,1,1.19,1.41s-.21.54-.86.81l-1.19.7C309.47,26.41,305.42,31.48,298.3,36.07Zm27-30.89A5.19,5.19,0,1,1,320.22,0,5.19,5.19,0,0,1,325.3,5.18Zm-8.59,0a3.4,3.4,0,1,0,3.35-3.4A3.39,3.39,0,0,0,316.71,5.18Z"/></g></g></svg>