<svg xmlns="http://www.w3.org/2000/svg" viewBox="0 0 366.13 28.79"><title>pickup</title><path d="M368,21c-3.74,1.27-4.29-3-6.75-3.93-1.33-.53-2.48-2.27-3.94-1.5-1.24.65-.59,2.42-.62,3.69-.08,3,0,6-.06,9,0,1.1.18,2.63-1.61,2.41-1.35-.17-1-1.49-1-2.42,0-6,.11-12,.12-18,0-2.53.5-5.15-2.09-7.81,4.3.42,5.72,1.73,4.87,5.24-.81,3.34-.46,6.2,4,6.91,2.83.46,4.87,2.73,7.13,4.41Z" transform="translate(-1.87 -1.88)"/><path d="M79.75,29.52c6.62-5,12.4-10.71,15.11-19-9-2.38-11,6.88-17.16,9.21C80,16.85,82.48,14.18,84.26,11a27.86,27.86,0,0,0,2.53-5.36c.26-.88-1.81-2.81,1-2.32,1.18.21,3.54.92,2.54,2.78-2.08,3.9,1,2.47,2.36,2.46,1.13,0,2.24-.68,3.37-.74,1.85-.09,3.68.65,2.47,2.79C94.07,18.57,89.29,26.35,79.75,29.52Z" transform="translate(-1.87 -1.88)"/><path d="M134.57,7.88a41,41,0,0,0-15,1.64c-2.68.83-4,0-5.18-2.73,7.87.44,15.25-.66,22.64-1.65,1.53-.21,2.75,0,3.42,1.31,1.11,2.12-1.18,1.89-2.06,2.51A38,38,0,0,1,133.26,12c-2.68,1.32-4.34,3-4.81,6.26a13.63,13.63,0,0,1-7.78,10.47c3.81-5.23,7.82-10.38,4.17-17.72C128.37,12.06,132,12.51,134.57,7.88Z" transform="translate(-1.87 -1.88)"/><path d="M1.87,3.81c3,.86,5.66.28,5,3.78-.42,2.18-1.87,5.66.6,6.07a9.48,9.48,0,0,0,8.72-3.49c.51-.67.14-2.16,1.66-1.41,1,.5,2.15,1.22,2.27,2.46s-1.09,1.46-2,1.72c-2.88.79-5.75,1.64-8.66,2.28-2.32.51-3.18,1.66-3.23,4.11C6.07,25.46,6.41,26,12.37,26c1.82,0,3.64-.17,5.45-.34,1.38-.12,3.49-1.33,3.6.92.09,2-2.28,1.39-3.62,1.4C2.11,28,4.28,29,4.09,14.94,4,11.43,5.06,7.74,1.87,3.81Z" transform="translate(-1.87 -1.88)"/><path d="M195.86,28.58c5.77-3.58,10.55-8,12.94-14.57,1-2.89,1.19-4.82-2.86-4.11-2.94.52-6.05.43-8.81,1.39-3.13,1.09-4.11-.44-5.8-3.42,6.61,2,12.32.13,18.09-.11,3.85-.17,4.84.33,3.34,4.25C209.63,20.17,204.59,26.18,195.86,28.58Z" transform="translate(-1.87 -1.88)"/><path d="M229.17,22.08c5.73-3.67,11.22-7.59,15.83-12.56C246.4,8,249.27,7,248,4c-.25-.58.13-.92.67-.94,1.5-.07,2.42,1,3.35,1.89.63.63,1.07,1.43,0,2-8.69,4.62-6.47,12.83-6.78,20.24-.06,1.25.8,3.57-1.52,3.37-1.79-.15-.83-2.11-.82-3.34,0-3.64,0-7.29,0-11.73C238,17.61,234.22,21.31,229.17,22.08Z" transform="translate(-1.87 -1.88)"/><path d="M265.28,17.07c4.71.36,6.77-2.93,9.31-5.2s4.4-2.3,7-.37c4.12,3.08,8.42,5.92,12.66,8.83,1.12.77,2.6,1.66,1.54,3.06s-2.42,0-3.37-.71c-3.85-2.9-7.69-5.82-11.38-8.92-2.15-1.81-3.82-2.28-5.74.27-1.19,1.58-3,2.7-4.14,4.3C268.56,22,267.31,19.59,265.28,17.07Z" transform="translate(-1.87 -1.88)"/><path d="M307.94,25.17c10.42-1.35,16.72-9.2,24.61-14.44-5.21,7.83-12.76,13-20.69,17.63C310.38,29.21,308.45,27.11,307.94,25.17Z" transform="translate(-1.87 -1.88)"/><path d="M43.81,29.39c6.95-4.2,12.09-9.56,13.7-18,2.79,1.05,3.29,2.62,1.35,5.6C55.1,22.71,50.84,27.7,43.81,29.39Z" transform="translate(-1.87 -1.88)"/><path d="M158.9,29.51c6.68-4.32,12.18-9.45,13.78-18,2.37.87,3.6,1.81,1.63,5C170.55,22.54,166.1,27.53,158.9,29.51Z" transform="translate(-1.87 -1.88)"/><path d="M25.8,5.38c-.37,1.94-1.3,3.43-3.48,3.53s-3.41-1.11-3.46-3.3,1-3.46,3.23-3.55S25.27,3.44,25.8,5.38Z" transform="translate(-1.87 -1.88)"/><path d="M220,5.47a3.21,3.21,0,0,1-3.42,3.27,3.26,3.26,0,0,1-3.45-3.48c0-2.24,1.3-3.36,3.44-3.38S219.93,3,220,5.47Z" transform="translate(-1.87 -1.88)"/><path d="M307.38,5.78c3.95.77,6.37,1.8,7.74,4.58.58,1.18.57,2.34-.57,3-1.35.83-1.73-.62-2.05-1.35C311.56,9.85,309.88,8.31,307.38,5.78Z" transform="translate(-1.87 -1.88)"/></svg>