<svg xmlns="http://www.w3.org/2000/svg" viewBox="0 0 213.26 30.67"><defs><style>.cls-1{fill:#343434;}</style></defs><title>pickup-new-title-pc</title><g id="Layer_2" data-name="Layer 2"><g id="Layer_1-2" data-name="Layer 1"><path class="cls-1" d="M2.05,15c.07-4.28.07-4.28.07-4.68,0-2.7-.46-3.74-1.87-4.21C.07,6,0,6,0,5.87s1.22-.69,1.84-.69C3.17,5.18,5,6.59,5,7.63a5.26,5.26,0,0,1-.07.72c-.29,1.26-.39,2.27-.75,8a37.82,37.82,0,0,0,5.57-3c2.2-1.44,3-2.23,3-3.17a1.28,1.28,0,0,0-.47-.94c-.15-.1-.18-.18-.18-.28s.14-.26.36-.26a6.54,6.54,0,0,1,2.77,1c1.33.79,1.91,1.37,1.91,1.91s-.58.86-3.35,2A86.12,86.12,0,0,1,4.14,17.1c0,1.44,0,1.55-.07,2.37,0,.51,0,.94,0,1.26a5.07,5.07,0,0,0,1.08,3.39c.61.61,1.73.9,3.57.9a16.46,16.46,0,0,0,7.73-1.44,12.79,12.79,0,0,1,2.42.82c.61.29.82.54.82.94,0,.72-.5,1.19-1.47,1.44a23.43,23.43,0,0,1-5.19.47c-4,0-6.58-.25-7.81-.72-2-.76-3.2-2.84-3.2-5.8l0-2.3ZM23.43,5.11a3.53,3.53,0,1,1-3.49-3.53A3.53,3.53,0,0,1,23.43,5.11Zm-5.83,0a2.31,2.31,0,1,0,4.61,0,2.31,2.31,0,0,0-4.61,0Z"/><path class="cls-1" d="M40.1,14.72a3.81,3.81,0,0,1,1.88,3c0,.94-.51,1.55-1.26,1.55s-.87-.29-1.16-1.29c-.46-1.66-2-3.68-3.09-4.11-.4-.18-.47-.21-.47-.36s.18-.25.47-.25A7,7,0,0,1,40.1,14.72Zm-1.87,15.7a5.46,5.46,0,0,0-.72.18,1.88,1.88,0,0,1-.36.07.5.5,0,0,1-.43-.4c0-.11.07-.14.22-.18a25.66,25.66,0,0,0,5.4-2.81,31.38,31.38,0,0,0,8.24-8,22.05,22.05,0,0,0,2.23-4.5,13.49,13.49,0,0,0,.58-2.63,1.48,1.48,0,0,0-1-1.4c-.25-.08-.32-.15-.32-.26s.43-.39,1-.39a2.73,2.73,0,0,1,2.09,1c1.19,1.23,1.59,1.73,1.59,2.05s-.15.47-.9,1.05C52.67,21.92,45.07,28.9,38.23,30.42Zm9.32-15.23a1.44,1.44,0,0,1-1.36,1.51.91.91,0,0,1-.94-.83c-.32-2-1.91-4.5-3.2-5.07-.15-.07-.22-.15-.22-.25s.15-.22.36-.22C44.5,10.33,47.55,13.07,47.55,15.19Z"/><path class="cls-1" d="M72.32,28.54a37.65,37.65,0,0,0,11.06-7.73,30.43,30.43,0,0,0,6.26-8.46A13,13,0,0,0,91,9.14a.84.84,0,0,0-.86-.79c-.15,0-.4,0-.69.07-.11,0-.86.18-1.62.29-.61.11-1.11.18-1.4.22a3.21,3.21,0,0,1-.72.1,2.84,2.84,0,0,1-1.41-.5,35.85,35.85,0,0,1-5.93,7.24c-1.73,1.58-4.11,3.2-4.68,3.2-.22,0-.4-.11-.4-.25s.07-.33,1-1A30,30,0,0,0,80.14,11c1.51-2.3,2.44-4.35,2.44-5.54a2.31,2.31,0,0,0-1.33-2.23C81.11,3.2,81,3.1,81,3s.4-.32,1-.32a4.33,4.33,0,0,1,2.52.9c1.3.86,1.58,1.15,1.58,1.66,0,.21,0,.28-.25.53a7.53,7.53,0,0,0-.61.9c-.25.58-.36.76-.5,1a2.35,2.35,0,0,0,.86.14,22.49,22.49,0,0,0,4.32-.79,6.75,6.75,0,0,0,1.37-.65c.61-.39.83-.46,1-.46.4,0,.87.28,2.09,1.33s1.22,1,1.22,1.36-.14.44-.54.58-.57.22-1.15.5C88.81,20,82.73,25.66,73,29.23a2.51,2.51,0,0,0-.5.18,2.42,2.42,0,0,1-.32.07c-.29,0-.65-.29-.65-.54s.07-.18.5-.29Z"/><path class="cls-1" d="M125,12.35a3,3,0,0,1-.47.25,36,36,0,0,1-5.76,11.88,18.6,18.6,0,0,1-5.47,5,4.21,4.21,0,0,1-1.47.58.35.35,0,0,1-.36-.29c0-.11,0-.14.43-.43a19.61,19.61,0,0,0,6.48-7.52,26.5,26.5,0,0,0,2.44-6.63,20.87,20.87,0,0,0,.62-3.49,1.19,1.19,0,0,0-1-1.33c-.11,0-.18-.11-.18-.18,0-.22.32-.43.64-.43a7.44,7.44,0,0,1,3.82,2C127.37,10.15,130,7.81,130,7c0-.43-.68-.68-2-.68a75.1,75.1,0,0,0-7.78.93,29.17,29.17,0,0,0-5.83,1.66c-.65.32-.79.36-1,.36a4.15,4.15,0,0,1-2.66-1.76,3,3,0,0,1-.58-2.09V5.18a.32.32,0,0,1,.32-.32c.15,0,.18,0,.33.32a3.12,3.12,0,0,0,2.55,1.3c.29,0,.72,0,1.3-.07.32,0,1.08-.11,2.23-.18s2.16-.15,2.52-.18c1.3-.15,2.59-.33,3.92-.47C128.7,5,129,5,131,4.36a2.82,2.82,0,0,1,.54-.08c.5,0,1.15.54,2.23,1.87.39.51.68.83.79,1,.5.5.61.68.61,1s-.25.58-.79.61a10.32,10.32,0,0,0-4.75,1.51c-1.33.65-1.69.8-3.57,1.62Z"/><path class="cls-1" d="M152.42,14.72a3.81,3.81,0,0,1,1.88,3c0,.94-.51,1.55-1.26,1.55s-.87-.29-1.16-1.29c-.46-1.66-2-3.68-3.09-4.11-.4-.18-.47-.21-.47-.36s.18-.25.47-.25A7,7,0,0,1,152.42,14.72Zm-1.87,15.7a5.46,5.46,0,0,0-.72.18,1.88,1.88,0,0,1-.36.07.5.5,0,0,1-.43-.4c0-.11.07-.14.22-.18a25.66,25.66,0,0,0,5.4-2.81,31.38,31.38,0,0,0,8.24-8,22.05,22.05,0,0,0,2.23-4.5,13.49,13.49,0,0,0,.58-2.63,1.48,1.48,0,0,0-1-1.4c-.25-.08-.32-.15-.32-.26s.43-.39,1-.39a2.73,2.73,0,0,1,2.09,1c1.19,1.23,1.59,1.73,1.59,2.05s-.15.47-.9,1.05C165,21.92,157.39,28.9,150.55,30.42Zm9.33-15.23a1.45,1.45,0,0,1-1.37,1.51.91.91,0,0,1-.94-.83c-.32-2-1.91-4.5-3.2-5.07-.15-.07-.22-.15-.22-.25s.15-.22.36-.22C156.81,10.33,159.88,13.07,159.88,15.19Z"/><path class="cls-1" d="M195.26,24a29.32,29.32,0,0,1-9.68,4.14,1.92,1.92,0,0,1-.47.11,1.44,1.44,0,0,1-.32.07c-.22,0-.51-.18-.51-.36s.11-.21.54-.36a38,38,0,0,0,9.72-5.36,30.76,30.76,0,0,0,7.24-8.78,13.9,13.9,0,0,0,1.58-4.36c0-.57-.43-.9-1.08-.9a47.19,47.19,0,0,0-12,2.09,1.82,1.82,0,0,1-.62.18,4.76,4.76,0,0,1-2.05-1.08,2.72,2.72,0,0,1-.83-1.91c0-.68.11-1,.36-1s.15.07.26.32c.21.68,1.47,1.26,2.8,1.26s6.12-.51,9.54-1a6.52,6.52,0,0,0,3.1-.94c.79-.47.86-.5,1.15-.5.5,0,.83.18,2.38,1.47.39.33.75.61.82.69.61.43.79.64.79.93s-.14.36-.57.54l-.79.47C202.71,17.6,200,21,195.26,24Zm18-20.58A3.46,3.46,0,1,1,209.88,0,3.46,3.46,0,0,1,213.26,3.46Zm-5.72,0a2.27,2.27,0,1,0,2.23-2.27A2.25,2.25,0,0,0,207.54,3.46Z"/></g></g></svg>