<svg xmlns="http://www.w3.org/2000/svg" viewBox="0 0 245.04 49.39"><defs><style>.cls-1{fill:#fff;}</style></defs><g id="Layer_2" data-name="Layer 2"><g id="Layer_1-2" data-name="Layer 1"><path class="cls-1" d="M7.43,35.93c-.06,3.45.86,3.83,9,3.83,6.43,0,8.86-.22,11.18-1a2.86,2.86,0,0,1,1-.21,3,3,0,0,1,1.62.75,1.42,1.42,0,0,1,.76,1.35c0,1.14-1,1.79-2.92,1.89-1.78.17-8.21.38-10.31.38-5.35,0-9.4-.48-10.75-1.29-1.84-1-2.54-3-2.54-6.92V14.33c-.05-2.38-.05-3.68-.05-3.84C4.29,9.79,4,9.57,1,8.33,2.46,7,3.05,6.66,3.54,6.66a14.59,14.59,0,0,1,4.1,2C9,9.52,9.37,10,9.37,10.54s-.27.71-.76,1-.81.54-.81,1.24L7.53,22.91c12-3.94,16.37-5.67,16.37-6.59,0-.43-1.08-1.45-2.22-2.1A5.19,5.19,0,0,1,24,13.35c.54,0,.76.11,2.48,1.73,2.22,2,2.49,2.27,2.49,3s0,.64-2.86,1.67S14.72,23,7.48,24.64Zm29.26-27a5.21,5.21,0,1,1-5.13-5.23A5.27,5.27,0,0,1,36.69,8.92ZM28,8.87a3.56,3.56,0,1,0,3.61-3.51A3.56,3.56,0,0,0,28,8.87Z"/><path class="cls-1" d="M17.69,43.39c-5.55,0-9.56-.5-11-1.37-2-1.11-2.78-3.17-2.78-7.34V14.33c0-2.38,0-3.68,0-3.84,0-.33-.17-.49-3.09-1.7L0,8.48.62,8C2.26,6.54,2.89,6.16,3.54,6.16A14.49,14.49,0,0,1,7.92,8.24c1.32.84,1.95,1.4,1.95,2.3a1.62,1.62,0,0,1-1,1.41c-.56.33-.56.35-.56.81l-.25,9.45C13,20.59,22.92,17.3,23.41,16.27a7.2,7.2,0,0,0-2-1.62l-.77-.44.78-.43A5.47,5.47,0,0,1,24,12.85c.74,0,1.06.21,2.83,1.87,2.24,2,2.64,2.4,2.64,3.39s-.24,1.08-3.19,2.14S15.07,23.44,8,25L7.93,35.93c0,1.32.11,2,.51,2.36.82.83,3.11,1,8,1,6.4,0,8.76-.22,11-1A3.33,3.33,0,0,1,28.54,38a3.51,3.51,0,0,1,1.94.87,1.85,1.85,0,0,1,.94,1.73c0,1-.59,2.24-3.39,2.39C26.17,43.18,19.73,43.39,17.69,43.39ZM1.9,8.18c2.34,1,2.87,1.31,2.95,2.27,0,.2,0,1.5.05,3.86V34.68c0,3.75.64,5.56,2.28,6.48,1.28.76,5.3,1.23,10.51,1.23,2.16,0,8.56-.22,10.26-.37,2.47-.14,2.47-1.09,2.47-1.4s-.05-.58-.55-.94A2.63,2.63,0,0,0,28.54,39a2.37,2.37,0,0,0-.8.18c-2.38.83-4.82,1.06-11.35,1.06-5.47,0-7.6-.19-8.66-1.27a4,4,0,0,1-.8-3.07L7,24.24l.39-.09c7.14-1.6,15.67-3.88,18.53-4.84a13.29,13.29,0,0,0,2.52-1v-.18c0-.5-.09-.7-2.32-2.65-1.71-1.61-1.82-1.61-2.15-1.61a3.1,3.1,0,0,0-1.28.42c.8.57,1.73,1.42,1.73,2.05,0,1.09-1.65,2.14-16.71,7.07L7,23.61,7.3,12.75a1.64,1.64,0,0,1,1.06-1.67c.51-.28.51-.43.51-.54,0-.28-.11-.58-1.5-1.46A15.3,15.3,0,0,0,3.53,7.16C3.26,7.16,2.8,7.44,1.9,8.18Zm29.56,6.48a5.74,5.74,0,1,1,5.73-5.74A5.75,5.75,0,0,1,31.46,14.66Zm.1-10.47a4.74,4.74,0,1,0-.1,9.47,4.8,4.8,0,0,0,4.73-4.74A4.75,4.75,0,0,0,31.56,4.19Zm0,8.8a4.07,4.07,0,1,1,4.06-4.07A4.1,4.1,0,0,1,31.51,13Zm0-7.13a3.06,3.06,0,0,0-3.11,3,3.06,3.06,0,1,0,3.11-3Z"/><path class="cls-1" d="M53.6,20.21c4.59,1.84,7.18,4.37,7.18,7.13a1.91,1.91,0,0,1-1.89,2.11c-1.08,0-1.35-.38-2-2.81A10,10,0,0,0,53.06,21Zm23.49-1.89.32-.16a4.35,4.35,0,0,0,.76-.33,2,2,0,0,1,.64-.16c1.08,0,4.49,3.57,4.49,4.7,0,.38-.27.59-1.46,1.08a55.21,55.21,0,0,1-6.43,9.94,37,37,0,0,1-15,11.23,13.83,13.83,0,0,1-2.91,1.08.5.5,0,0,1-.54-.49c0-.32.21-.54,1.13-1a44.52,44.52,0,0,0,8.59-5.51A42.45,42.45,0,0,0,76.87,25.34a14.21,14.21,0,0,0,1.73-4.48c0-.54-.6-1.3-1.95-2.38Zm-14.85-.75c4.48,1,7.93,4.31,7.93,7.5a1.82,1.82,0,0,1-1.83,1.84c-1.14,0-1.35-.27-2-2.11a12.07,12.07,0,0,0-4.59-6.64Z"/><path class="cls-1" d="M57.54,46.2a1,1,0,0,1-1-1c0-.7.59-1,1.42-1.42a44.61,44.61,0,0,0,8.48-5.44,42,42,0,0,0,10-13.24,14.25,14.25,0,0,0,1.68-4.25c0-.17-.17-.72-1.76-2l-.69-.55,1.76-.66s0-.05.16-.1l.4-.18a2.28,2.28,0,0,1,.84-.21c1.35,0,5,3.79,5,5.2,0,.72-.6,1.06-1.6,1.47a55.12,55.12,0,0,1-6.4,9.86A37.61,37.61,0,0,1,60.66,45.08,11,11,0,0,1,57.54,46.2ZM77.61,18.63c1,.91,1.49,1.61,1.49,2.23a14.82,14.82,0,0,1-1.79,4.71A43,43,0,0,1,67,39.12a46.11,46.11,0,0,1-8.7,5.58c-.69.32-.82.46-.84.5a14.94,14.94,0,0,0,2.75-1A36.56,36.56,0,0,0,75,33.07a53.82,53.82,0,0,0,6.37-9.84l.08-.17.18-.07c.87-.36,1.11-.52,1.14-.6,0-.88-3.16-4.21-4-4.22a1.66,1.66,0,0,0-.46.13l-.35.16A2.31,2.31,0,0,1,77.61,18.63ZM58.89,30c-1.49,0-1.84-.78-2.54-3.17a9.52,9.52,0,0,0-3.62-5.43l-.35-.3,1-1.45.36.15c4.84,1.93,7.5,4.63,7.5,7.59A2.41,2.41,0,0,1,58.89,30Zm-5.16-9.06a10.32,10.32,0,0,1,3.59,5.61C58,29,58.21,29,58.89,29a1.42,1.42,0,0,0,1.39-1.61c0-2.46-2.31-4.76-6.51-6.52Zm14.61,6.52c-1.5,0-1.82-.6-2.42-2.45a11.61,11.61,0,0,0-4.42-6.4l-.39-.3L62,17l.32.08c4.67,1.07,8.32,4.58,8.32,8A2.31,2.31,0,0,1,68.34,27.41Zm-5.69-9.22a12.67,12.67,0,0,1,4.22,6.46c.57,1.76.67,1.76,1.47,1.76a1.32,1.32,0,0,0,1.33-1.34C69.67,22.23,66.63,19.28,62.65,18.19Z"/><path class="cls-1" d="M106.35,10c0-1.67,0-1.94-.43-2.42s-.65-.54-3-1.84c1.35-1.19,1.73-1.46,2.16-1.46a14.54,14.54,0,0,1,3.51,1.57c1.78,1,2.64,1.78,2.64,2.48a2.3,2.3,0,0,1-.64,1.24,4.58,4.58,0,0,0-.54.7,10.42,10.42,0,0,0-.22,2.54l-.32,8.1a31.42,31.42,0,0,1,10.63,3.62c4.22,2.22,6.48,4.59,6.48,6.8a1.76,1.76,0,0,1-1.72,1.84c-.87,0-1.35-.32-2.27-1.51-2.81-3.78-8.7-8-13-9.29L109.7,46a1.42,1.42,0,0,1-1.4,1.4,2.88,2.88,0,0,1-2.7-2.43,16.08,16.08,0,0,1,.32-2.1,17.58,17.58,0,0,0,.16-1.89l.22-6.48,0-15.55Z"/><path class="cls-1" d="M108.3,47.87a3.37,3.37,0,0,1-3.2-2.93,15.35,15.35,0,0,1,.33-2.2c0-.21.12-1.3.15-1.82l.22-6.47,0-24.45c0-1.64,0-1.77-.32-2.12a14.93,14.93,0,0,0-2.87-1.7L102,5.84l.54-.48c1.36-1.19,1.85-1.58,2.49-1.58s3.25,1.36,3.75,1.63c2,1.09,2.9,2,2.9,2.92a2.84,2.84,0,0,1-.77,1.57,5.12,5.12,0,0,0-.47.6,12.21,12.21,0,0,0-.14,2l0,.34L110,20.49a32.15,32.15,0,0,1,10.36,3.6c4.41,2.32,6.74,4.82,6.74,7.24a2.26,2.26,0,0,1-2.22,2.34c-1.15,0-1.78-.55-2.67-1.71a30.14,30.14,0,0,0-12.11-8.9L110.2,46A1.93,1.93,0,0,1,108.3,47.87ZM103.77,5.64a10.17,10.17,0,0,1,2.5,1.58c.54.68.58,1.1.58,2.78v8.92l0,15.55L106.58,41a17.19,17.19,0,0,1-.17,2,13.48,13.48,0,0,0-.31,2,2.39,2.39,0,0,0,2.2,1.93.92.92,0,0,0,.9-.9l-.11-24.27.65.19A30.36,30.36,0,0,1,123,31.36c.86,1.12,1.22,1.31,1.87,1.31a1.27,1.27,0,0,0,1.22-1.34c0-2-2.2-4.25-6.21-6.36a31,31,0,0,0-10.48-3.56l-.44-.07.36-8.89a8.45,8.45,0,0,1,.22-2.33,3.68,3.68,0,0,1,.64-.87,2,2,0,0,0,.52-.92c0-.22-.23-.87-2.38-2a16,16,0,0,0-3.28-1.51C104.85,4.78,104.55,5,103.77,5.64Z"/><path class="cls-1" d="M162.84,9.3h-8.91c-.54,0-2.32.06-5,.16-.7.06-2.7.06-5,.11l-.7-1.83L149,8l4.92.11h25l3.41-3.56L186.87,8a.81.81,0,0,1,.27.65c0,.37-.22.7-.49.7L167.16,9.3V43.05h13.39l4-4.1,5,3.94a1,1,0,0,1,.32.81c0,.38-.16.65-.38.65h-37.8c-1.78,0-2,0-10,.27l-.64-1.84,5.77.17c2.06,0,3.73.1,4.86.1h11.13Z"/><path class="cls-1" d="M141.37,45.13l-1-2.87,7.81.22c1.46,0,2.66.07,3.54.07h10.63V9.8h-8.41c-.5,0-2.22,0-5,.16-.41,0-1.29,0-2.4.07l-2.58,0h-.35l-1.1-2.87,6.48.24,4.9.11h24.84l3.57-3.74,4.84,3.79a1.32,1.32,0,0,1,.46,1,1.1,1.1,0,0,1-1,1.2l-19-.06V42.55h12.68l4.22-4.27,5.29,4.19a1.43,1.43,0,0,1,.54,1.23c0,.67-.37,1.15-.88,1.15h-37.8c-1.76,0-2,0-10,.27Zm.42-1.83.28.81c7.64-.26,7.89-.26,9.64-.26h37.67s0-.09,0-.15a.77.77,0,0,0-.09-.39l-4.66-3.69-3.88,3.93h-14.1V8.8l20,.06s0-.09,0-.2a.4.4,0,0,0-.07-.25l-4.13-3.24L179.2,8.56H153.93L149,8.45l-5-.18.3.8,2.23,0c1.1,0,2,0,2.36-.06,2.43-.1,4.39-.17,5-.17h9.41V43.55H151.71c-.88,0-2.1,0-3.56-.07Z"/><path class="cls-1" d="M207.06,10.87h26.41l1.4-2.38,3.68,2.38a1.57,1.57,0,0,1,.81,1.13c0,.43-.33.81-.92,1l-1.08.32V20.7c0,.81-1.3,1.51-2.81,1.51-.49,0-.7-.22-.7-.7V18.86h-27.7l-.22,6.81h14.42V20.05l4.32.49c.92.1,1.24.32,1.24.86,0,.38-.22.59-.7.86l-1.08.6v2.81h12.15l3.29-3.51,4.27,3.24a1.58,1.58,0,0,1,.7,1c0,.33-.38.54-1.08.54H223.05a35.92,35.92,0,0,1-.81,5.35h11.5l1.35-2.06,3.73,2.87a1,1,0,0,1,.59.86c0,.33-.16.49-.65.76l-1.13.59c-1,8.75-3.51,13-7.78,13-.81,0-1.19-.32-1.13-.92v-.21a2,2,0,0,0,.05-.49c0-.59-.11-.75-.65-1l-4.86-2.16.11-.71,4.59.65a13.66,13.66,0,0,0,1.89.16c1.84,0,2.59-.86,3.35-3.67a25.58,25.58,0,0,0,1-6.32H221.86A19.89,19.89,0,0,1,211.6,45.81c-2.81,1.51-7,3.08-8.1,3.08-.38,0-.59-.17-.59-.44s0-.32,2.37-1.4c9.83-5,13.39-10.1,13.93-20.09H205.88c-.76,6.43-2.06,10.32-5,14.74-1.84,2.87-5,6.21-5.78,6.21a.36.36,0,0,1-.32-.37c0-.17,0-.17,1.13-1.68,4.75-6.26,6.59-13.34,6.59-25.16,0-1-.06-3.46-.11-6.86,0-1.24,0-3.08-.11-5.51ZM195,3.69C200.8,4,203,4,205.55,4h30.57L239.25.66l4.48,3.24a1,1,0,0,1,.49.76c0,.48-.27.65-1,.65H205.55c-2.86,0-4.91.05-9.88.27Zm38.88,13.88v-5.4h-27.7v5.4Z"/><path class="cls-1" d="M203.5,49.39a1,1,0,0,1-1.09-.94c0-.64.05-.66,2.66-1.86,9.49-4.79,13-9.67,13.61-19.13H206.32c-.78,6.29-2.11,10.13-5,14.52-1.46,2.26-4.92,6.43-6.2,6.43a.84.84,0,0,1-.82-.87c0-.33,0-.33,1.23-2C200.21,39.41,202,32.44,202,20.7c0-.64,0-1.8-.05-3.4l-.06-3.45c0-.71,0-1.62-.06-2.73,0-.82,0-1.74-.05-2.78l0-.85,5.4,2.88h26l1.52-2.58,4.11,2.66a2,2,0,0,1,1,1.55,1.68,1.68,0,0,1-1.25,1.5l-.75.22v7c0,1.11-1.49,2-3.31,2a1.09,1.09,0,0,1-1.2-1.2V19.36H206.63l-.18,5.81h13.4V19.49l4.87.55c.55.06,1.69.2,1.69,1.36a1.48,1.48,0,0,1-1,1.3l-.82.45v2h11.43l3.46-3.69L244.14,25a2,2,0,0,1,.9,1.42c0,.5-.41,1-1.58,1h-20a33.48,33.48,0,0,1-.64,4.35h10.61l1.5-2.28,4.15,3.19a1.45,1.45,0,0,1,.79,1.26c0,.64-.43.93-.9,1.19l-.91.48c-1,8.84-3.73,13.14-8.25,13.14a1.76,1.76,0,0,1-1.33-.46,1.26,1.26,0,0,1-.3-1v-.25l0-.08a1.17,1.17,0,0,0,0-.33c0-.39,0-.39-.37-.58l-5.19-2.3.24-1.57,5.08.72a15,15,0,0,0,1.82.15c1.46,0,2.11-.5,2.87-3.3a24.4,24.4,0,0,0,.92-5.69H222.22a20.44,20.44,0,0,1-10.39,12.15C209.21,47.66,204.85,49.39,203.5,49.39Zm1.93-22.93h14.31l0,.53c-.54,10.11-4.26,15.48-14.2,20.51-.93.42-1.57.71-1.9.88a32.1,32.1,0,0,0,7.75-3,19.32,19.32,0,0,0,10-11.92l.12-.35h13.2l0,.53a26.29,26.29,0,0,1-1,6.42c-.72,2.68-1.51,4-3.83,4a15.19,15.19,0,0,1-2-.16l-3.52-.5,4,1.76a1.38,1.38,0,0,1,.94,1.48,2.9,2.9,0,0,1-.05.56v.14c0,.16,0,.24,0,.28s.16.14.59.14c4,0,6.34-4.09,7.28-12.51l0-.27,1.37-.72c.38-.21.38-.25.38-.31s0-.21-.36-.44L235.21,31,234,32.81H221.62l.13-.61a34.32,34.32,0,0,0,.8-5.28l0-.46h20.87c.48,0,.61-.11.61-.11s-.17-.29-.53-.55l-3.91-3-3.14,3.34H223.63V22.56l1.34-.74c.44-.24.44-.33.44-.42s0-.28-.8-.37l-3.76-.42v5.56H205.41l.25-7.81h28.69v3.15a.72.72,0,0,0,0,.18.55.55,0,0,0,.18,0c1.34,0,2.31-.61,2.31-1V13l1.43-.43c.35-.13.57-.33.57-.55s-.16-.43-.59-.71L235,9.2l-1.28,2.17H206.94l-4.11-2.2c0,.7,0,1.34,0,1.93,0,1.1,0,2,.06,2.72l.06,3.46c0,1.61.05,2.78.05,3.42,0,12-1.88,19.12-6.69,25.46l-.7.94a27.43,27.43,0,0,0,4.85-5.67c2.86-4.34,4.14-8.14,4.89-14.53Zm28.92-8.39h-28.7v-6.4h28.7Zm-27.7-1h26.7v-4.4h-26.7Zm-11.32-11-1.09-2.94.75,0c6,.27,8.08.32,10.56.32H235.9L239.18,0,244,3.5a1.42,1.42,0,0,1,.7,1.16c0,1.15-1.11,1.15-1.53,1.15H205.55c-2.88,0-5,.05-9.86.27Zm.37-1.87.31.84c4.62-.2,6.71-.25,9.54-.25h37.64a1.45,1.45,0,0,0,.52-.06.55.55,0,0,0,0-.09c0-.1-.1-.23-.27-.34l-4.14-3-3,3.18H205.55C203.17,4.51,201.12,4.47,195.7,4.22Z"/></g></g></svg>