<svg xmlns="http://www.w3.org/2000/svg" viewBox="0 0 346.6 33.19"><defs><style>.cls-1{fill:#343434;}</style></defs><title>how-to-title_1</title><g id="Layer_2" data-name="Layer 2"><g id="Layer_1-2" data-name="Layer 1"><path class="cls-1" d="M4.32,23.83c0,2.3.57,2.56,6,2.56,4.29,0,5.91-.15,7.46-.69a1.8,1.8,0,0,1,.64-.14,2,2,0,0,1,1.08.5A.93.93,0,0,1,20,27c0,.76-.65,1.19-1.95,1.26s-5.47.25-6.87.25c-3.57,0-6.27-.32-7.16-.86-1.23-.69-1.7-2-1.7-4.61V9.43c0-1.58,0-2.45,0-2.55C2.23,6.41,2,6.26,0,5.44c1-.87,1.4-1.12,1.73-1.12A9.88,9.88,0,0,1,4.46,5.65c.9.58,1.16.87,1.16,1.26s-.19.47-.51.65-.54.36-.54.83l-.18,6.76c8-2.62,10.91-3.78,10.91-4.39,0-.29-.72-1-1.48-1.4a3.51,3.51,0,0,1,1.51-.58c.36,0,.51.07,1.66,1.15,1.47,1.3,1.66,1.52,1.66,2s0,.43-1.91,1.12S9.18,15.23,4.36,16.31Zm19.51-18a3.48,3.48,0,1,1-3.42-3.49A3.51,3.51,0,0,1,23.83,5.83ZM18,5.79a2.38,2.38,0,1,0,2.41-2.33A2.37,2.37,0,0,0,18,5.79Z"/><path class="cls-1" d="M34.38,13.35c3.06,1.23,4.79,2.92,4.79,4.76a1.28,1.28,0,0,1-1.26,1.4c-.72,0-.9-.25-1.37-1.87A6.66,6.66,0,0,0,34,13.86ZM50,12.09l.21-.1a3.19,3.19,0,0,0,.51-.22,1.28,1.28,0,0,1,.43-.11c.72,0,3,2.38,3,3.13,0,.26-.18.4-1,.72a36.74,36.74,0,0,1-4.29,6.63,24.63,24.63,0,0,1-10,7.48,9.08,9.08,0,0,1-1.94.72.33.33,0,0,1-.36-.32c0-.22.14-.36.75-.65a29.62,29.62,0,0,0,5.73-3.67,28.29,28.29,0,0,0,6.76-8.93,9.36,9.36,0,0,0,1.15-3c0-.36-.39-.87-1.29-1.59Zm-9.9-.5c3,.68,5.29,2.88,5.29,5a1.21,1.21,0,0,1-1.22,1.23c-.76,0-.9-.18-1.3-1.41A8.06,8.06,0,0,0,39.85,12Z"/><path class="cls-1" d="M68.83,6.55c0-1.11,0-1.29-.29-1.62a8.63,8.63,0,0,0-2-1.22c.9-.79,1.15-1,1.44-1a9.76,9.76,0,0,1,2.34,1c1.18.65,1.76,1.19,1.76,1.66a1.52,1.52,0,0,1-.43.82,2.94,2.94,0,0,0-.36.47,7.45,7.45,0,0,0-.15,1.69l-.21,5.4A21,21,0,0,1,78,16.23c2.81,1.48,4.32,3.06,4.32,4.54A1.17,1.17,0,0,1,81.18,22c-.58,0-.9-.21-1.51-1A20.07,20.07,0,0,0,71,14.79l.07,15.73a1,1,0,0,1-.93.94,1.92,1.92,0,0,1-1.8-1.62,10.47,10.47,0,0,1,.21-1.4c0-.15.07-.69.11-1.26l.14-4.32,0-10.37Z"/><path class="cls-1" d="M103.61,6.08H97.67c-.36,0-1.55,0-3.31.11-.47,0-1.8,0-3.32.07L90.58,5l3.81.14,3.28.08h16.7l2.27-2.38,3,2.34a.53.53,0,0,1,.18.43c0,.25-.14.47-.32.47l-13,0v22.5h8.92l2.7-2.74,3.31,2.63c.15.07.22.33.22.54s-.11.43-.25.43H96.19c-1.19,0-1.33,0-6.66.18L89.1,28.4l3.85.11c1.37,0,2.49.07,3.24.07h7.42Z"/><path class="cls-1" d="M134.53,7.13h17.6l.94-1.59,2.45,1.59a1,1,0,0,1,.54.75c0,.29-.22.54-.62.69l-.72.21v4.9c0,.54-.86,1-1.87,1a.41.41,0,0,1-.47-.47V12.45H133.92L133.78,17h9.61V13.25l2.88.32c.61.07.82.22.82.58s-.14.39-.46.57l-.72.4V17H154l2.2-2.34L159,16.81a1.06,1.06,0,0,1,.47.68c0,.22-.25.36-.72.36h-13.6a24.37,24.37,0,0,1-.54,3.57h7.66l.9-1.37L155.7,22a.68.68,0,0,1,.39.57c0,.22-.11.33-.43.51l-.76.39c-.64,5.83-2.33,8.64-5.18,8.64-.54,0-.79-.21-.75-.61v-.14a1.52,1.52,0,0,0,0-.33c0-.39-.07-.5-.43-.68l-3.24-1.44.07-.47,3.06.43a9.75,9.75,0,0,0,1.26.11c1.23,0,1.73-.58,2.23-2.45a17.34,17.34,0,0,0,.65-4.21h-8.21a13.23,13.23,0,0,1-6.84,8.14,20.08,20.08,0,0,1-5.39,2c-.26,0-.4-.11-.4-.29s0-.22,1.58-.94c6.55-3.31,8.93-6.73,9.29-13.39h-8.89a20.28,20.28,0,0,1-3.31,9.83c-1.23,1.91-3.31,4.14-3.85,4.14a.24.24,0,0,1-.22-.25c0-.11,0-.11.76-1.12,3.16-4.17,4.39-8.89,4.39-16.77,0-.69,0-2.31-.07-4.57,0-.83,0-2-.08-3.67Zm-8.06-4.79c3.89.18,5.36.22,7.05.22H153.9L156,.32l3,2.16a.64.64,0,0,1,.33.51c0,.32-.18.43-.69.43H133.52c-1.9,0-3.27,0-6.58.18Zm25.91,9.25V8H133.92v3.6Z"/><path class="cls-1" d="M174.09,1.69a.71.71,0,0,1,.44.65c0,.36-.18.58-.61.76l-.8.32a57.42,57.42,0,0,1-2.05,5.79l.61.15a.54.54,0,0,1,.44.5.71.71,0,0,1-.22.47l-.4.43V31.5c0,.54-.07.68-.32.9a2.76,2.76,0,0,1-1.48.5c-.43,0-.64-.18-.64-.47V13.53a32.36,32.36,0,0,1-4.43,6.52c-.4.5-.54.61-.72.61a.24.24,0,0,1-.22-.21,3.77,3.77,0,0,1,.61-1.23A49,49,0,0,0,170.75.5Zm9,11.7a45.77,45.77,0,0,1-5.73,7.74c-2,2.27-4.28,4.43-4.71,4.43-.18,0-.33-.11-.33-.25s.29-.58,1.16-1.55a61.44,61.44,0,0,0,8.78-14.08H179.1c-1.73,0-2.92,0-5.83.15l-.44-1.19,3.5.11c1.15.07,2.16.07,2.77.07h4V.43l2.88.36a.74.74,0,0,1,.68.61.93.93,0,0,1-.36.62l-.79.64V8.82h6.19L194,6.59,196.92,9a.39.39,0,0,1,.18.32c0,.18-.15.36-.26.36H186.12A20.21,20.21,0,0,0,197.67,22a6.56,6.56,0,0,0-2.91,2.56,27.73,27.73,0,0,1-9.29-14.33V23.43h2.23l1.87-2,2.52,2a.65.65,0,0,1,.22.51.35.35,0,0,1-.36.36h-6.48v7c0,.58,0,.65-.32.86a3.09,3.09,0,0,1-1.59.51c-.36,0-.5-.15-.5-.47V24.3H181.8c-1.12,0-2.05,0-4.5.1L177,23.32c2.27.11,3.06.11,4.83.11h1.26Z"/><path class="cls-1" d="M203.44,22.35a8.28,8.28,0,0,1,.54,3.17c0,2.05-.8,3.6-1.84,3.6a1,1,0,0,1-1-.86c0-.29,0-.29,1-2a6.36,6.36,0,0,0,.76-2.88,6.8,6.8,0,0,0-.07-1.08Zm2.3-19.69h6.91l1.55-2,2.41,1.95a.66.66,0,0,1,.29.5.36.36,0,0,1-.36.4H210V7.59h1.66l1.33-1.72,2.3,1.72c.18.18.29.33.29.47a.44.44,0,0,1-.43.4H210v4.17h1.66l1.51-1.87,2.48,2c3-3.39,4.47-6,7.31-12.71l2.92,1.08a.73.73,0,0,1,.43.61.58.58,0,0,1-.47.51l-.5.14a16.17,16.17,0,0,0,2.55,3.71,21.82,21.82,0,0,0,6.19,4.6,5.58,5.58,0,0,1,.87.51l.25.14a8.39,8.39,0,0,0-2.45,2.2,23.39,23.39,0,0,1-8.21-10.84A40.15,40.15,0,0,1,219,10.83h5.8l1.51-2,2.55,2a.88.88,0,0,1,.29.58.24.24,0,0,1-.21.25h-4.14v3.67H229l.86-1.51,2.27,2a.81.81,0,0,1,.25.47.43.43,0,0,1-.25.32l-.68.36v5.47c0,.4-.69.76-1.44.76-.25,0-.58-.18-.58-.36V21.63h-4.39c1.73,4,4.43,6.45,9.83,8.89l-.94.54a6.35,6.35,0,0,0-.86.47l-.65.58a5.18,5.18,0,0,1-.4.39,17.9,17.9,0,0,1-7.52-10.11c0,.21-.11.4-.11.47-.65,2.8-1.11,4-2.27,5.47s-2.7,2.63-5.58,4.07a6.92,6.92,0,0,1-2,.79.39.39,0,0,1-.36-.33c0-.18,0-.18,1-.72,4.61-2.52,6.77-5.5,7.46-10.51h-3.68v2.31c0,.43-.68.72-1.62.72a.39.39,0,0,1-.43-.43V13.82l2.49,1.51h3.52c0-1.8,0-2.05-.1-3.67h-4.58c-1.69,1.8-3.52,3.31-4,3.31-.15,0-.29-.1-.29-.21s.29-.58,1-1.26H210v4.17h2.48l.87-1.26,2.16,2a.84.84,0,0,1,.25.44c0,.18-.18.36-.4.46l-.61.22c-.28,6.37-.61,8.78-1.44,10.58-.72,1.48-2.3,2.74-3.49,2.74-.36,0-.57-.18-.61-.61a2.19,2.19,0,0,0-.18-.76,11.34,11.34,0,0,0-1.26-.47l-2.16-.86.14-.58,3.1.36c.32,0,.72.07.86.07,1.44,0,2-.79,2.52-3.88a39.72,39.72,0,0,0,.47-7.38V18.5h-7.31v1.08a.72.72,0,0,1-.5.72,4.67,4.67,0,0,1-1,.25c-.29,0-.47-.14-.47-.36V1.26Zm-.86,19.48a5.83,5.83,0,0,1,2,4.17c0,.9-.39,1.41-1.08,1.41a.69.69,0,0,1-.75-.83,1.59,1.59,0,0,1,0-.36c0-.43,0-.83,0-1.26a6.7,6.7,0,0,0-.61-2.88Zm3.2-14.55V3.53h-2.74V7.59Zm0,5V8.46h-2.74v4.17Zm0,5V13.5h-2.74v4.17Zm-1.48,3.57c1.7,1,2.74,2.41,2.74,3.67a1.18,1.18,0,0,1-1,1.22c-.29,0-.44-.18-.47-.65a8.34,8.34,0,0,0-1.62-4ZM208,19.91c2.2.64,3.74,1.94,3.74,3.16a.93.93,0,0,1-.79,1c-.5,0-.61-.14-1.33-1.62a6.78,6.78,0,0,0-1.76-2.12Zm14.72.86c.11-1.12.15-1.94.18-4.57h-4v4.57Zm6.77,0V16.2h-4.64c0,2.12,0,2.45-.11,4.57Z"/><path class="cls-1" d="M256.53,9.36a.45.45,0,0,1-.18.32c-.39.58-.43.61-1.51,3.57a57.84,57.84,0,0,1-5.79,11.69c-1.34,1.95-1.73,2.27-2.59,2.27-.4,0-.47,0-1.55-1a11.15,11.15,0,0,1-2.31-2.41,7.48,7.48,0,0,1-1.15-4.14,13.42,13.42,0,0,1,4.25-9.25A16.78,16.78,0,0,1,256.79,6c6.83,0,12.49,4.89,12.49,10.83a10.31,10.31,0,0,1-5.66,8.78,29.34,29.34,0,0,1-7.05,2.67,9.59,9.59,0,0,1-1.51.28.34.34,0,0,1-.36-.36c0-.25.14-.32.61-.46a36,36,0,0,0,5.15-2.09,10.37,10.37,0,0,0,6.08-9.43,8.17,8.17,0,0,0-3.17-6.55,10,10,0,0,0-6.91-2.42,8.09,8.09,0,0,0-1.37.11s-.14,0-.32.08C255.78,8.06,256.53,8.89,256.53,9.36Zm-9.72,2.12a11.43,11.43,0,0,0-3.06,8.1,6.84,6.84,0,0,0,.91,3.92c.46.69,1,1.08,1.47,1.08.72,0,1.41-.61,2.23-2a43.29,43.29,0,0,0,4.11-9.47A30,30,0,0,0,253.55,9a1,1,0,0,0-.58-.9,2.78,2.78,0,0,0-.54-.21A13.53,13.53,0,0,0,246.81,11.48Z"/><path class="cls-1" d="M276.73,9.47c2.95.36,5.26,2.19,5.26,4.24a1.54,1.54,0,0,1-1.44,1.7c-.72,0-.79-.08-1.3-1.88a5.92,5.92,0,0,0-2.59-3.67Zm.72,13,2.49.33,6.55-14.47.57.25-4.35,13.21a13.76,13.76,0,0,0-.83,3.74c0,.65,0,.65.65,4a2.13,2.13,0,0,1,0,.47c0,1.33-.68,2.09-1.87,2.09S279,31.46,279,30.2a21.44,21.44,0,0,1,.28-2.41,12.34,12.34,0,0,0,.18-1.87,2.78,2.78,0,0,0-2.16-2.85Zm1.91-21.16a8.3,8.3,0,0,1,4,1.44,3.34,3.34,0,0,1,1.58,2.56c0,1-.5,1.62-1.33,1.62s-1-.29-1.51-1.77a6.3,6.3,0,0,0-2.92-3.56Zm12,15.91c.54,0,.79.22.79.58a.87.87,0,0,1-.4.68l-.61.47-.07,3.42c-.07,4.89-.61,6.4-3.13,8.31A14,14,0,0,1,284,32.72a.31.31,0,0,1-.29-.29c0-.07.11-.18.29-.32a8.66,8.66,0,0,0,3.31-2.92c1.12-1.69,1.51-3.35,1.51-6.3,0-1.4,0-2.73-.11-6ZM294.8.29l2.85.21c.61.08.9.26.9.65a1,1,0,0,1-.51.76l-.9.61V6.08h6.37l2.16-2.26,2.85,2.05a1,1,0,0,1,.43.68.44.44,0,0,1-.43.4H297.14c-1.76,3-2.05,3.38-4,6.3,3.81-.08,5.43-.18,9.46-.47a23.37,23.37,0,0,0-3.85-2.92l.25-.5c4.9,1.44,8.21,4,8.21,6.19A1.25,1.25,0,0,1,306,16.92a1,1,0,0,1-.75-.33c-.11-.18-.51-.79-1-1.76-.18-.25-.43-.65-.82-1.15-6.05.93-8.5,1.22-14,1.73l-.62.72a.68.68,0,0,1-.5.25c-.21,0-.36-.11-.5-.4l-1.48-2.73c1.33,0,2.2,0,3,0,.47,0,1.4,0,2.48,0,1.08-2.63,1.51-3.75,2.45-6.3h-2.34c-1.37,0-1.55,0-5.87.14l-.39-1.19c3.38.15,4.75.18,6.26.18h2.95ZM297,29.7c0,.64-.54,1-1.51,1-.44,0-.62-.18-.62-.61V17.42l2.56.22c.5,0,.72.25.72.65s-.14.43-.47.64l-.68.47Zm11.23-5.84-.18,4.25v.07c0,.44.07.54.83,1.23a1,1,0,0,1,.32.65c0,.9-1,1.18-4.25,1.18-4.14,0-4.28-.07-4.28-2.37V16.45l2.74.25c.5,0,.82.29.82.65a1,1,0,0,1-.65.79l-.68.33V28.62c0,.57.22.68,1.37.68s1.33,0,1.58-.29a3.62,3.62,0,0,0,.87-1.62l1-3.7Z"/><path class="cls-1" d="M316.62,27.07c-.43.61-.65.79-1,.79s-.86-.47-.86-1.15a7,7,0,0,1,.25-1.62c.07-.22.11-.29.58-.58a14.48,14.48,0,0,0,1.76-1.8l4.89-6.22,0-4.14a11.82,11.82,0,0,0-3.71,1.9.68.68,0,0,1-.43.29c-.72,0-3.06-2.34-3.06-3.06,0-.29.18-.57.72-1l.83.76c.65.58,1.08.83,1.48.83A25.46,25.46,0,0,0,322.34,11l.22-5.9V4.9c0-.72-.07-1-.4-1.16a8.86,8.86,0,0,0-2.41-1,2.23,2.23,0,0,1,1.41-1.12c1.22,0,4.39,2,4.39,2.74,0,.18-.15.36-.47.76a1.86,1.86,0,0,0-.33.43,7.19,7.19,0,0,0-.21,1.37l-.36,3.45a1.62,1.62,0,0,1,.39-.07,2.21,2.21,0,0,1,.94,1,.92.92,0,0,1-.14.36L324,13.35l0,1.73.57-.54a43.42,43.42,0,0,1,4.86-4.1c2.7-1.95,4.14-2.59,5.69-2.59a3,3,0,0,1,3.28,2.84,26.44,26.44,0,0,1-.33,3l-1,8.28a8.24,8.24,0,0,0-.1,1.19c0,2,.93,3.28,2.37,3.28s2.85-.9,4.61-2.77a19.86,19.86,0,0,0,2-2.63c.14-.25.28-.36.39-.36s.25.11.25.29a8.16,8.16,0,0,1-1.11,2.44c-1.95,3.64-3.82,5.11-6.37,5.11-2.78,0-4.25-1.76-4.25-5.11,0-.54,0-1.18.07-1.83l.79-8.86c.07-.79.15-2,.15-2.23,0-.72-.51-1.19-1.37-1.19-2.05,0-6.66,3.46-10.51,8l.21,8.13c0,.58.11,1.73.22,2.88a6.88,6.88,0,0,1,.07.79c0,.62-.14.9-.79,1.59s-.94.83-1.37.83c-.25,0-.43-.15-.61-.47a8.33,8.33,0,0,1-.29-2,1.53,1.53,0,0,0-.54-1.15L318.13,25Zm5.43-.07.08-7.53-3.71,4.86Z"/></g></g></svg>