<svg xmlns="http://www.w3.org/2000/svg" viewBox="0 0 273.3 55"><defs><style>.cls-1{fill:#fff;}</style></defs><g id="レイヤー_2" data-name="レイヤー 2"><g id="レイヤー_1-2" data-name="レイヤー 1"><path class="cls-1" d="M8.5,13.8c-.4,5.1-.6,6.7-.7,9.7,7.8-2,17.6-5.9,17.5-6.9s-.6-.8-1.6-1.3.4-.9.9-.9c2.1,0,6.3,3.2,6.3,4.7s-.4,1-1.4,1A18.7,18.7,0,0,0,26,21c-4.6,1.3-15.2,3.8-18.3,4.2C7.5,31,7.5,31,7.5,32c0,4.6.2,6.9.7,7.8s2.2,1.3,5.9,1.3c5.8,0,9.9-.5,12.9-1.6l1.6-.5c1.4,0,3.5,1.5,3.5,2.5s-.9,1.3-2.6,1.4a114,114,0,0,1-13.2.9c-6.8,0-8.8-.4-10.2-1.9s-1.5-3-1.5-10.2c0-4,.2-8.8.4-15.3A20.9,20.9,0,0,0,5.1,14c0-2.9-1.3-4.3-3.8-4.3H.7L.5,9.1c0-.5,1.1-1,2.5-1s6.9,2.1,6.9,3.5-.3.9-1.3,1.3Zm32.6-3.2a5.8,5.8,0,0,1-11.6,0,5.8,5.8,0,1,1,11.6,0Zm-9.9,0a4.1,4.1,0,0,0,4.1,4.1,4.1,4.1,0,0,0,4.1-4.1,4.1,4.1,0,0,0-4.2-4A4.1,4.1,0,0,0,31.2,10.6Z"/><path class="cls-1" d="M16.3,44.3c-7,0-9.1-.4-10.5-2S4.1,39.1,4.1,31.7c0-3.8.2-8.6.4-15.3A20.9,20.9,0,0,0,4.6,14c0-2.6-1.1-3.8-3.3-3.8H.3L.1,9.6A.9.9,0,0,1,0,9.1c0-1,1.5-1.5,3-1.5s7.4,2.2,7.4,4-.5,1.2-1.3,1.7v.5c-.4,4.8-.5,6.5-.7,9.1,7.5-2,15.6-5.3,16.5-6.3s-.4-.4-1.3-.9h-.4v-.5a1.3,1.3,0,0,1,1.4-1.2c2.1,0,6.8,3.3,6.8,5.2s-.2,1.5-1.9,1.5a22.1,22.1,0,0,0-3.2.8h-.2c-4.2,1.2-14.4,3.6-17.9,4.2C8,31,8,31,8,32c0,2.8,0,6.5.7,7.5s2,1.1,5.4,1.1c5.8,0,9.8-.5,12.7-1.5a4.3,4.3,0,0,1,1.8-.6c1.6,0,4,1.6,4,3s-.4,1.7-3,1.9A117.2,117.2,0,0,1,16.3,44.3ZM1,9.2h.3c1.9,0,4.3.8,4.3,4.8a20.9,20.9,0,0,1-.1,2.4c-.2,6.8-.4,11.5-.4,15.3,0,7,.3,8.6,1.4,9.9s3.2,1.7,9.8,1.7c3.9,0,9.4-.4,13.2-.8,1.5-.2,2.1-.6,2.1-1s-1.7-2-3-2l-1.5.5c-2.9,1.1-7.1,1.6-13,1.6-3.9,0-5.5-.4-6.3-1.5S7,36.8,7,32c0-1,0-1,.2-6.8v-.4h.4c3.1-.5,13.8-3,18.3-4.3h.2a19.4,19.4,0,0,1,3.3-.8c1,0,1-.3,1-.5s-3.9-4.2-5.8-4.2h-.3c.8.5,1.5.9,1.5,1.6s.1,1.1-6.1,3.6A123.6,123.6,0,0,1,7.9,24l-.7.2v-.7c.1-3,.3-4.6.7-9.8V12.6h.3c1-.5,1-.7,1-.9s-3.7-3-6.4-3a3.4,3.4,0,0,0-2,.5Zm34.3,7.7a6.3,6.3,0,1,1,6.3-6.3A6.3,6.3,0,0,1,35.3,16.9Zm.1-11.6a5.3,5.3,0,1,0-.1,10.6,5.2,5.2,0,0,0,5.3-5.3A5.4,5.4,0,0,0,35.4,5.3Zm-.1,9.9a4.7,4.7,0,0,1-4.6-4.6,4.6,4.6,0,0,1,9.2,0A4.5,4.5,0,0,1,35.3,15.2Zm-.1-8.1a3.6,3.6,0,1,0,3.7,3.5A3.7,3.7,0,0,0,35.2,7.1Z"/><path class="cls-1" d="M58.2,21.8h.5c4.9,1.9,7.5,4.4,7.5,7.1a2,2,0,0,1-1.7,2.2c-.9,0-1.4-.5-2-2.3s-2.1-4.2-4.9-6.3Zm26.1-2.5c.1-.5.3-.7.7-.7a14.3,14.3,0,0,1,4.2,1.5c1.1.8,2.2,2.2,2.2,2.9s-.5.8-1.3.7-.7.1-.9.4l-.6,1c-2.9,6-4.2,8.1-6.3,10.8A42.8,42.8,0,0,1,60.1,49.8a.8.8,0,0,1-.7-.7c0-.5.1-.6,1.6-1.2,8.8-3.5,14.8-8.1,19.5-15,2.9-4.3,5.6-9.8,5.6-11.6s-.3-1-1.4-1.8h-.4ZM66.9,18l.5.2h.4A23.5,23.5,0,0,1,73.3,21a5.3,5.3,0,0,1,2.3,4,2,2,0,0,1-1.7,2.1c-.8,0-1.1-.4-1.8-2.1A10.1,10.1,0,0,0,67,19.5l-.3-.2h-.3Z"/><path class="cls-1" d="M60.1,50.3a1.3,1.3,0,0,1-1.2-1.2c0-.9.4-1,1.9-1.6,8.7-3.5,14.6-8,19.3-14.9,2.9-4.2,5.5-9.6,5.5-11.3s-.1-.6-1.2-1.3l-.7-.4v-.4c.1-.5.3-1.1,1.2-1.1a12.4,12.4,0,0,1,4.4,1.6c1.2.8,2.5,2.3,2.5,3.3a1.2,1.2,0,0,1-.4.9,1.7,1.7,0,0,1-1.5.3c-.3,0-.3,0-.4.2l-.5,1c-2.9,5.9-4.2,8-6.4,10.8A44.1,44.1,0,0,1,68.3,47.4C65.9,48.5,61,50.3,60.1,50.3ZM59.9,49h0c0,.1.2.2.2.2a48.4,48.4,0,0,0,7.8-2.8,43,43,0,0,0,14-11c2.2-2.7,3.4-4.8,6.3-10.6l.5-1a1.5,1.5,0,0,1,1.4-.7c.5.1.7,0,.7-.1s.1,0,.1-.1a4.7,4.7,0,0,0-2-2.4A11.4,11.4,0,0,0,85,19.1h-.1c1.2.8,1.7,1.2,1.7,2.2S83.7,29.1,81,33.2c-4.9,7-11,11.7-19.8,15.2Zm4.6-17.2c-1.3,0-1.8-.9-2.5-2.7s-1.9-3.9-4.7-6l-.3-.2,1-1.7.8.3c5.1,2,7.9,4.7,7.9,7.6A2.5,2.5,0,0,1,64.5,31.8Zm-6.2-9.2c2.7,2,3.7,3.3,4.7,6.2s1,2,1.5,2,1.2-.7,1.2-1.7-2.6-4.8-7.2-6.6h-.1Zm15.6,5c-1.2,0-1.6-.7-2.3-2.4a9.7,9.7,0,0,0-4.9-5.3l-.4-.2h-.5l.7-2.1H68a26.7,26.7,0,0,1,5.6,2.8A6,6,0,0,1,76.1,25,2.5,2.5,0,0,1,73.9,27.6ZM67.1,19h.1a10.5,10.5,0,0,1,5.3,5.7c.8,1.8,1,1.8,1.4,1.8s1.2-.7,1.2-1.6A4.8,4.8,0,0,0,73,21.4a23.7,23.7,0,0,0-5.3-2.6h-.5Z"/><path class="cls-1" d="M113.8,4.7h1.5c1.7,0,2.8.4,5.1,1.7s1.9,1.5,1.9,2.1-.4.9-1.1,1.1-.6.2-.6.4v.8c-.1,2.8-.1,3.1-.3,6.4v4.8c10.8,2.1,18.2,6.4,18.2,10.5a1.7,1.7,0,0,1-1.5,1.7c-1,0-1.6-.5-3.3-2.4-3.3-3.8-7.5-6.3-13.4-8.1-.1,3.9-.1,4.8-.1,5.6V44.6c.1,2.1.1,2.1.1,2.7s-.6,2.8-1.7,2.8-2.4-1.8-2.4-3.4a8.2,8.2,0,0,1,.3-1.8c.6-2.3.6-2.7.6-11.2V24.4c0-7.6,0-8.6.1-12.5V9.8c0-2.2-.2-2.4-3-3.9l-.5-.2h-.2Z"/><path class="cls-1" d="M118.5,50.6c-1.4,0-2.9-2-2.9-3.9a11.2,11.2,0,0,1,.3-1.9c.6-2.3.6-2.6.6-11.1V24.4c0-6.2,0-8.1.1-10.7V9.8c0-1.9,0-2-2.8-3.4l-1-.6.4-1.5h1.9c1.8,0,3,.4,5.3,1.8s2.2,1.5,2.2,2.5a1.8,1.8,0,0,1-1.4,1.6h-.3v1.2c0,2.4,0,2.8-.2,6v4.3c10.9,2.2,18.2,6.5,18.2,10.9a2.1,2.1,0,0,1-2,2.2c-1.3,0-2-.7-3.6-2.5-3.2-3.7-7.1-6.1-12.6-7.9-.1,3.4-.1,4.2-.1,5V44.6c.1,2.1.1,2.1.1,2.7C120.7,50.3,119.2,50.6,118.5,50.6ZM114.2,5.3l.3.2c2.9,1.5,3.3,1.8,3.3,4.3v3.9c-.1,2.6-.1,4.5-.1,10.7v9.3c0,8.6,0,8.9-.6,11.3a9.9,9.9,0,0,0-.3,1.7c0,1.4,1.1,2.9,1.9,2.9s1.2-1.4,1.2-2.3,0-.6-.1-2.6V29.2c0-.8,0-1.7.1-5.6v-.7l.6.2c6.1,1.8,10.3,4.4,13.7,8.3,1.6,1.9,2.1,2.2,2.9,2.2a1.1,1.1,0,0,0,1-1.2c0-3.8-7.5-8-17.8-10h-.4V17.1c.2-3.1.2-3.6.2-5.9V9.8c.1-.5.5-.6.9-.8s.8-.3.8-.6-.2-.7-1.7-1.6-3.2-1.7-4.8-1.7h-1.1Zm6.8,4.9h0Z"/><path class="cls-1" d="M159,45h18.1V9.4H166.3l-9.7.2-2.1-2.2,6.3.3h34l3-3.6L202,7.4a1.4,1.4,0,0,1,.5,1c0,.6-.4,1-1.2,1H181V45.1h17.2l3.3-3.8,4.7,3.8a1.5,1.5,0,0,1,.4.9.8.8,0,0,1-.9.7H164.8l-9.9.3L153,44.7Z"/><path class="cls-1" d="M154.7,47.5l-2.9-3.3,9.7.3h15.1V9.9H166.3l-9.7.2h-.3l-3-3.3,8.2.3h33l3.3-3.8L202.3,7a1.7,1.7,0,0,1,.7,1.4c0,.8-.4,1.5-1.7,1.5H181.5V44.6H198l3.4-4,5.1,4.1a1.8,1.8,0,0,1,.6,1.3,1.3,1.3,0,0,1-1.4,1.2H164.8l-9.8.3Zm-.6-2.2,1.1,1.2,9.6-.3h40.9s.4,0,.4-.2a.8.8,0,0,0-.2-.5L201.6,42l-3.2,3.6H180.5V8.9h20.8c.7,0,.7-.3.7-.5a.9.9,0,0,0-.3-.6l-3.8-2.9L195,8.3H160.8L155.7,8l1.1,1.1,9.5-.2h11.3V45.6H159Z"/><path class="cls-1" d="M229.5,20.9c-.5,13.1-1.1,16.6-3.7,21.8-1.8,3.5-7.1,9.9-8.2,9.9a.4.4,0,0,1-.4-.4c0-.3,0-.3,1.6-2.4,6-7.9,7.7-14.2,7.7-28.8,0-2.9,0-3.5-.4-12.1l3.5,2.1h33.6l1.1-1.5,3.9,2c.6.3.7.4.7.7s-.1.5-.6.7l-1.5.5v8.7c0,.8-1.3,1.6-2.5,1.6s-.7-.1-.7-.5V20.9ZM219.7,3.6l11.9.4h32.2L267.4.6l4.4,3.3c.4.3.7.6.7.9a.8.8,0,0,1-.9.8h-40l-10.4.3ZM247,38c-2.1,6.3-5.2,9.9-11.1,13-3,1.6-8.7,3.5-10.5,3.5a.5.5,0,0,1-.5-.5c0-.3.1-.3,1-.6,13-4,18.6-10.8,19.5-23.7h-4.7l-4.3.2h-4.8l-1.3-2.2,6,.3h9.9v-6l4.4.9c.6.1.8.3.8.7s-.2.5-.5.7l-1.3.6v3.1h15.8l3-3.4,3.8,3.1a1.3,1.3,0,0,1,.6,1.1c0,.5-.4.8-1.1.8h-23c-.5,3.2-.6,3.6-1.2,6.6h15.9l1.4-1.6,3.3,2.5c.5.5.7.6.7.9s-.2.4-.6.5l-1.4.4a12.1,12.1,0,0,1-.3,1.4,12.7,12.7,0,0,1-.6,2.8c-.6,3.4-1.9,6.6-3,7.8s-3.6,2.1-5.5,2.1-1.2-.3-1.5-1.8a1.1,1.1,0,0,0-.7-1l-3.5-1.8.4-.8a25.3,25.3,0,0,0,6.8,1.2,2.3,2.3,0,0,0,2.5-1.6,57.3,57.3,0,0,0,2.4-9.3ZM229.5,19.3h34.1V12.6H229.5Z"/><path class="cls-1" d="M225.4,55a.9.9,0,0,1-1-1c0-.7.4-.8,1.2-1h.2c12.7-3.9,18.1-10.3,19-22.7H231.3l-1.6-2.8c-.5,7.9-1.3,11-3.5,15.2s-7.1,10.2-8.6,10.2a1,1,0,0,1-.9-.9c0-.5,0-.5,1.7-2.7,5.9-7.8,7.6-13.9,7.6-28.5,0-2.9,0-3.5-.4-12.1v-1l4.1,2.6H263l1.2-1.7,4.2,2.3c.6.3,1,.5,1,1.1a1.3,1.3,0,0,1-.9,1.2l-1.2.4v8.3c0,1.2-1.6,2.1-3,2.1s-1.2-.4-1.2-1V21.4H229.9c0,2.2-.1,4.2-.2,5.9l6.6.3h9.4V21.5l5,1c1.1.2,1.2.9,1.2,1.2a1.2,1.2,0,0,1-.7,1.1l-1.1.5v2.3h15.1l3.1-3.6,4.2,3.4a2.2,2.2,0,0,1,.8,1.5c0,.7-.4,1.3-1.6,1.3H249.1c-.3,2.1-.5,2.9-.7,4.3l-.3,1.3h15l1.6-1.8,3.7,2.9c.6.4.9.7.9,1.2s-.2.8-1,1l-1,.3a3.1,3.1,0,0,0-.2.8.4.4,0,0,1-.1.3,15,15,0,0,1-.6,2.9c-.6,3.3-1.9,6.6-3.1,8a9.2,9.2,0,0,1-5.9,2.2c-1.5,0-1.7-.8-2-2.2s-.1-.5-.4-.6l-4-2.1.8-1.6h.4a24.2,24.2,0,0,0,6.7,1.2,1.9,1.9,0,0,0,2.1-1.3,56.9,56.9,0,0,0,2.2-8.6H247.4a21.5,21.5,0,0,1-11.2,13C233.3,53,227.4,55,225.4,55Zm15.3-25.8h5.2v.6c-.9,13-6.6,20-19.8,24.1h-.4a37,37,0,0,0,10-3.4c5.7-3.1,8.8-6.6,10.9-12.8v-.3h17.7V38a51.7,51.7,0,0,1-2.4,9.4,2.8,2.8,0,0,1-3,2,24.8,24.8,0,0,1-6.5-1.1l3,1.6a1.4,1.4,0,0,1,1,1.3c.2,1.4.4,1.4,1,1.4a8.4,8.4,0,0,0,5.2-1.9c1-1.2,2.2-4.4,2.8-7.5a15,15,0,0,0,.6-2.9V40a2.5,2.5,0,0,0,.2-1v-.3l1.6-.5h.3l-.5-.5-2.9-2.2-1.3,1.4H246.9l.5-2.4c.3-1.6.4-2.4.8-4.7v-.5h23.5c.6,0,.6-.2.6-.3s0-.3-.5-.7l-3.3-2.8-2.9,3.2H249.1V24.7l1.6-.7c.2-.2.2-.3.2-.3l-.3-.2-3.9-.8v5.9H236.3l-5.1-.2.6,1.1h8.9ZM226.6,9.8c.4,7.7.4,8.4.4,11.2,0,14.7-1.8,21.2-7.8,29.1L217.8,52c1.3-.7,5.8-6.1,7.6-9.5,2.6-5.2,3.1-8.6,3.6-21.6v-.5h35.1v2.8h.2c1.1,0,2-.7,2-1.1v-9l1.8-.7h.3c0-.1-.1-.2-.5-.3l-3.4-1.9-1,1.4H229.4Zm37.5,10H229V12.1h35.1Zm-34.1-1h33.1V13.1H230ZM221,6.4l-2.2-3.3h1l9.7.4h34.1L267.3,0l4.8,3.5a2,2,0,0,1,.9,1.3,1.3,1.3,0,0,1-1.4,1.3h-40l-6.1.2Zm-.3-2.2.8,1.2h4l6.1-.2h40c.2,0,.4-.1.4-.3l-.5-.5-4.1-3L264,4.5H229.5Z"/></g></g></svg>