<svg xmlns="http://www.w3.org/2000/svg" viewBox="0 0 807.06 33.76"><path d="M4.5,7a12.44,12.44,0,0,1,.11,1.37c0,2.2-1.3,4-2.95,4A1.56,1.56,0,0,1,0,10.91V10.8c0-.76.11-.94,1.51-2.31A5.8,5.8,0,0,0,3.17,4.21c0-.22,0-.29.14-.29s.25.15,1,2.09h10V3.35H11.52c-.87,0-1.12,0-5.47.14L5.29,2.2c1.59.07,2.84.1,3.35.1l2.88.08H23.11L25.16,0l2.95,2.12c.36.22.54.47.54.72a.63.63,0,0,1-.68.51H17.42V6H28.33l1.33-1.87,2.95,3.2a1.22,1.22,0,0,1,.43.79c0,.47-.28.65-1,.65H30.42c-.29.22-.51.4-.58.43-.4.29-.79.58-1.15.87-1.48,1-1.48,1-1.69,1a.34.34,0,0,1-.36-.32v0c0-.14,0-.14.72-1.76.28-.69.64-1.51.82-2H17.42v8.28c0,.65-1,1.15-2.3,1.15-.58,0-.83-.18-.83-.64V7Zm7.05,4.9,1.77,1.47a1,1,0,0,1,.43.72.51.51,0,0,1-.51.51H3.56v-1h6.52ZM7.34,29c0,.54-1.22,1.08-2.48,1.08-.47,0-.68-.15-.68-.44V15.91L8,17.6H24.69l1.41-1.83,2.84,2.48a1.22,1.22,0,0,1,.47.86c0,.29-.18.51-.61.72l-.44.26v7.27c0,.61-1.15,1.15-2.37,1.15-.54,0-.79-.22-.79-.65V26.74H17.31V29.3c0,1,0,1,2.42,1,.79,0,2.3,0,4-.07h1.94c2.88,0,3.35-.22,4.07-1.94.57-1.44.65-1.7,1.29-3.68.11-.43.18-.5.33-.5s.29.14.29.43c0,1.48,0,1.48-.08,4.14,0,.69.11.79,1.12,1.3.54.29.86.65.86,1a1.74,1.74,0,0,1-1,1.22c-1.08.61-3.89.79-11.66.79-6.34,0-6.8-.18-6.8-2.37V26.74H7.34Zm4-20.67L13.25,10a.83.83,0,0,1,.32.58c0,.25-.22.39-.58.39H5.11V10h5ZM14.15,21.7V18.57H7.34V21.7Zm0,4.07V22.68H7.34v3.09Zm11-4.07V18.57H17.31V21.7Zm0,4.07V22.68H17.31v3.09Zm-1-17.49L26.06,10a1.23,1.23,0,0,1,.4.65c0,.21-.18.32-.51.32H18.43V10h4.32Zm1.69,3.24,2.38,1.76c.32.25.47.47.47.69a.63.63,0,0,1-.61.61H18.43v-1h5.76Z" transform="translate(0)" fill="#343434"/><path d="M39.64,7c2.66.11,3.7.14,4.82.14h4V4.57c-.4.07-.65.11-.72.11l-2.12.25c-3.39.4-3.93.47-4.29.47s-.43-.11-.43-.29,0-.25,1.8-.72A76.27,76.27,0,0,0,55,.18l2.77,2.27A.71.71,0,0,1,58,3a.54.54,0,0,1-.57.51h-.08L55.7,3.32a4.87,4.87,0,0,0-.76.15l-2.45.39c-.11,0-.5.11-1,.22V7.16h3l2.3-2.44,3,2.48a.57.57,0,0,1,.22.47c0,.25-.14.46-.29.46H51.48v2.7h3.09l1-1.65,2.85,2.59a1.08,1.08,0,0,1,.39.72.62.62,0,0,1-.39.54l-.72.32v6.09c0,.57-1,1-2.49,1-.32,0-.43-.07-.43-.32v-.4h-3.3V23h2.63L56.3,20.7l2.49,2.23a.67.67,0,0,1,.21.5c0,.26-.14.47-.29.47H51.48v2.77l.65-.14,1.94-.33a27.17,27.17,0,0,1,3.24-.46c.29,0,.43.1.43.32s-.21.43-1.76.9c-.29.11-.72.25-1.08.36-2.16.72-3,1-6.09,1.87-2.91.79-3.49.94-5.25,1.48l-.5.83a.81.81,0,0,1-.65.43.78.78,0,0,1-.58-.43L40,28c2.31-.18,5.58-.54,8.39-.93V23.9h-3c-.9,0-1.73,0-4.14.11l-.68-1.23c2.62.11,3.67.15,4.82.15h3.06V19.69H45.11v1c0,.46-1,.82-2.23.82-.51,0-.65-.1-.65-.46V9.36l3.38,1.47h2.81V8.13h-6l-2,.07Zm8.78,7.63V11.77H45.11v2.88Zm0,4.07V15.6H45.11v3.1ZM64.8,10.15c-.29,6.3-.76,9.43-1.95,12.71a16,16,0,0,1-7.09,8.53,21.44,21.44,0,0,1-4.71,2.37c-.15,0-.22-.07-.22-.21s.11-.29.43-.47C59,28.11,61.34,23,61.63,10.15c-1.58.07-1.84.07-3.49.11L57.56,9c2,.11,2.31.11,4.11.15V5c0-2.38,0-2.52-.11-4.18l4,.29a.71.71,0,0,1,.65.72.75.75,0,0,1-.4.68L64.9,3c0,1-.07,3-.1,6.16h3.49L69.84,7l3.24,3.45a.8.8,0,0,1,.18.47.4.4,0,0,1-.26.39l-.93.36c0,.76-.07,1.34-.07,1.55L71.89,16c-.18,5.91-1,11-2.23,13.39S66.74,33.12,65,33.12a.87.87,0,0,1-1-.71A.81.81,0,0,1,64,32v-.44a1.14,1.14,0,0,0-.51-1.22,25.69,25.69,0,0,0-2.8-1.69c-.29-.15-.44-.33-.44-.51s.11-.21.33-.21a11.09,11.09,0,0,1,1.72.32,14.93,14.93,0,0,0,2.81.51c2.31,0,3.42-5.87,3.57-18.65Zm-10,4.5V11.77H51.48v2.88Zm0,4.07v-3.1H51.48v3.1Z" transform="translate(0)" fill="#343434"/><path d="M93.78,16.88A44.83,44.83,0,0,0,86.51,19a3.92,3.92,0,0,1-1.8.5c-1.44,0-3.39-2-3.39-3.49,0-.25.11-.43.26-.43s.1,0,.21.14a3.69,3.69,0,0,0,2.7.76A21.33,21.33,0,0,0,89,16c2-.29,2.27-.33,4.79-.65V12.58A5.74,5.74,0,0,0,93.47,10a17.9,17.9,0,0,1-3.71.57A3.8,3.8,0,0,1,87,9.14a3.38,3.38,0,0,1-.72-1.47c0-.15.1-.26.32-.29a2.5,2.5,0,0,0,2.09.72,29.34,29.34,0,0,0,11.48-2.88,1.41,1.41,0,0,1,.72-.22c1,0,2.66,1.26,2.66,2s-.93,1-7.84,2.27c1.44.83,2,1.3,2,1.66a1.43,1.43,0,0,1-.26.72,8.15,8.15,0,0,0-.57,3.24c2.81-.4,3.6-.51,7.59-1.16,2.49-1.22,2.56-1.26,2.85-1.26a8.16,8.16,0,0,1,2.41,1.26c1.19.8,1.65,1.34,1.65,1.84a.84.84,0,0,1-.91.76h0a10.71,10.71,0,0,1-1.26-.11c-1-.11-3.71-.25-4.68-.25-2.61.06-5.22.25-7.81.57-.07,2.95-.11,4-.11,4.93,0,3.35.72,4.25,3.38,4.25a17.64,17.64,0,0,0,5.91-.72,4.43,4.43,0,0,1,1.18-.29,2,2,0,0,1,1.7,2c0,1.51-2.24,2.37-6.16,2.37-3.27,0-6-.72-7.16-1.87s-1.66-2.91-1.66-5.36Z" transform="translate(0)" fill="#343434"/><path d="M152.31,17.67c0,.72-.72,1.19-1.83,1.19-.33,0-1.48-.11-3-.25-.75-.07-1.83-.11-3.17-.11-9,0-14.32.51-17,1.59a1.49,1.49,0,0,1-.51.1A6.4,6.4,0,0,1,123.66,19a3.35,3.35,0,0,1-1.3-2.92c0-.65.18-1,.54-1,.11,0,.18.07.36.36.54.9,1.73,1.23,4.61,1.23s11.7-.54,14.18-.83a29.4,29.4,0,0,0,5.73-1.23C150.8,15.23,152.31,16.27,152.31,17.67Z" transform="translate(0)" fill="#343434"/><path d="M172.51,15.44a24.83,24.83,0,0,1-3.89,3.64,12.08,12.08,0,0,1-3.16,1.8.24.24,0,0,1-.22-.22c0-.14,0-.14.65-.65,3.78-3.09,8-10.44,8-14a2.7,2.7,0,0,0-1.11-2.45c-.33-.14-.4-.18-.4-.29A2.52,2.52,0,0,1,174,2.84c1.7,0,4.14,1.8,4.14,3,0,.46-.25,1-1.44,3.42a2,2,0,0,0,.76.14,14.12,14.12,0,0,0,5.94-1.51,1.93,1.93,0,0,1,1.08-.4,3.18,3.18,0,0,1,1.62.87c.29.25.54.46.79.64,1,.87,1.44,1.3,1.44,1.62s-.14.36-.43.58l-1,.68a50.17,50.17,0,0,1-4,6.48c2.59,1.91,3.53,3.17,3.53,4.68A1.78,1.78,0,0,1,184.8,25h-.12c-.8,0-1.26-.36-2.06-1.62A16.4,16.4,0,0,0,180.68,21a33.1,33.1,0,0,1-12.17,9,23.92,23.92,0,0,1-5.29,1.73.25.25,0,0,1-.25-.25c0-.11.07-.18.29-.26,5.36-2.12,12.38-7.77,15.26-12.34A15,15,0,0,0,172.51,15.44Zm7.31,1.37a14.75,14.75,0,0,0,2.3-4.21,6.37,6.37,0,0,0,.61-2.09.41.41,0,0,0-.39-.43H182a6.58,6.58,0,0,1-1.08.18c-.72.11-1.4.26-2.05.36a8.25,8.25,0,0,1-1.4.18,3.37,3.37,0,0,1-1.55-.46,45.2,45.2,0,0,1-2.81,4.42,21.26,21.26,0,0,1,6.7,2Z" transform="translate(0)" fill="#343434"/><path d="M230.43,17.67c0,.72-.72,1.19-1.83,1.19-.33,0-1.48-.11-3-.25-.75-.07-1.83-.11-3.16-.11-9,0-14.33.51-17,1.59a1.44,1.44,0,0,1-.5.1,6.44,6.44,0,0,1-3.1-1.18,3.35,3.35,0,0,1-1.3-2.92c0-.65.18-1,.54-1,.11,0,.18.07.36.36.54.9,1.73,1.23,4.61,1.23s11.7-.54,14.18-.83A29.4,29.4,0,0,0,226,14.62C228.92,15.23,230.43,16.27,230.43,17.67Z" transform="translate(0)" fill="#343434"/><path d="M256.79,10.22a23.16,23.16,0,0,1-3.6,11.7c-2.13,3.31-5.26,5.87-7.24,5.87a4.34,4.34,0,0,1-3-2,9.33,9.33,0,0,1-1.77-5.8c0-7.92,7.24-14.72,15.66-14.72a13.94,13.94,0,0,1,10.12,4,10.88,10.88,0,0,1,2.84,7.6,13.25,13.25,0,0,1-6.66,11.51,22,22,0,0,1-6.66,2.45,14.8,14.8,0,0,1-2.3.43c-.22,0-.36-.07-.36-.21s.11-.22.68-.4A19.29,19.29,0,0,0,261,27.3c3.13-2.55,4.6-5.83,4.6-10.25,0-4.83-1.62-8.1-4.75-9.69a8.66,8.66,0,0,0-3.71-.86h-.75A13.74,13.74,0,0,1,256.79,10.22Zm-8.14-.32a14.06,14.06,0,0,0-4.25,10c0,2.12,1,4,2.09,4s3.17-1.88,4.68-4.25a21.22,21.22,0,0,0,3.67-10.76,8.45,8.45,0,0,0-.21-2,1.83,1.83,0,0,1-.08-.25,13.69,13.69,0,0,0-5.9,3.26Z" transform="translate(0)" fill="#343434"/><path d="M285.77,19.36a11.39,11.39,0,0,1-2.7,1.3.24.24,0,0,1-.22-.22c0-.17.07-.21.69-.64,3.85-2.67,8.53-10,8.53-13.43A2.27,2.27,0,0,0,291,4.18c-.29-.08-.36-.15-.36-.22,0-.25.68-.47,1.44-.47a5.39,5.39,0,0,1,3,1c.83.54,1.55,1.41,1.55,1.8a16,16,0,0,1-1.69,3.32,1.81,1.81,0,0,0,.61.1,13.88,13.88,0,0,0,5.58-1.94,3,3,0,0,1,1.26-.58c.76,0,3.49,2.49,3.49,3.17,0,.15-.14.33-.43.58a9.47,9.47,0,0,0-.93.86c-3.35,6.09-4.54,7.81-7.1,10.37a35.17,35.17,0,0,1-12.56,8.1,17.37,17.37,0,0,1-3.74,1,.28.28,0,0,1-.25-.22c0-.14.1-.21.39-.32a31.18,31.18,0,0,0,9.47-5.87,40.24,40.24,0,0,0,8.1-9.86,10.59,10.59,0,0,0,1.66-4.07.7.7,0,0,0-.68-.72h0a8,8,0,0,0-1.59.36,17.78,17.78,0,0,1-2.7.58,2.32,2.32,0,0,1-1.19-.43C291.45,14.9,289,17.39,285.77,19.36Z" transform="translate(0)" fill="#343434"/><path d="M328,14.33a27.19,27.19,0,0,1-6,11.44,19.37,19.37,0,0,1-5.76,4.32,3.52,3.52,0,0,1-1,.36.28.28,0,0,1-.29-.25c0-.11.11-.22.5-.5a21,21,0,0,0,7.11-9.7,23.43,23.43,0,0,0,1.83-7.6,2.82,2.82,0,0,0-1.54-2.84c-.15-.07-.25-.15-.25-.25,0-.29.64-.62,1.33-.62a5,5,0,0,1,2.77,1.16c1,.75,1.87,1.83,1.87,2.34a1.78,1.78,0,0,1-.14.5,5.61,5.61,0,0,0-.26.79Zm3.27,4.1c0-6.88,0-8.75-.25-9.36a1.5,1.5,0,0,0-.9-1.12c-.29-.07-.36-.1-.36-.25a3.46,3.46,0,0,1,1.84-.83c.61,0,1.08.22,2.59,1.41.68.54,1,1,1,1.29a2.26,2.26,0,0,1-.32.9,3.2,3.2,0,0,0-.36,1.12c-.07.72-.18,1.73-.36,4.39s-.32,4.25-.32,4.5-.08.65-.08.87c0,.46.15.75.4.75a11.19,11.19,0,0,0,4-1.83,37.49,37.49,0,0,0,6.73-5.91,35.18,35.18,0,0,0,3.6-4.89c.18-.36.29-.47.47-.47a.28.28,0,0,1,.29.25c0,.68-1.91,4.25-3.46,6.48A34.48,34.48,0,0,1,335,25.63l-1,.61-.5.4a1.06,1.06,0,0,1-.54.21,1.4,1.4,0,0,1-1-.61,6.2,6.2,0,0,1-1.33-2.34l.58-2Z" transform="translate(0)" fill="#343434"/><path d="M377.46,26a2.13,2.13,0,0,1-1.91,2.33h-.09c-.58,0-1-.39-1.52-1.37-1.94-4.21-4.35-7.19-6.76-8.38-.36-.15-.47-.22-.47-.33s.22-.32.5-.32a10.32,10.32,0,0,1,6.16,2.38c3.78-3.64,6.48-7,6.48-8.14,0-.47-.69-.76-1.8-.76a55.16,55.16,0,0,0-7.78,1.19,58.21,58.21,0,0,0-8.06,2.49,2,2,0,0,1-.58.18,6,6,0,0,1-3-1.8,3.29,3.29,0,0,1-.83-2.42c0-.61.07-.82.29-.82s.21.07.32.28a3.19,3.19,0,0,0,2.77,1.12,104.09,104.09,0,0,0,11-1.3c1.66-.25,3.06-.46,3.74-.54a16.61,16.61,0,0,0,4.94-1.29,4,4,0,0,1,.9-.25c.64,0,2.19.93,3.52,2.08,1,.83,1.23,1.19,1.23,1.73s-.25.79-1.08,1.12a6.51,6.51,0,0,0-2.63,1.58,73.88,73.88,0,0,1-8.32,6.3C376.59,23,377.46,24.37,377.46,26Z" transform="translate(0)" fill="#343434"/><path d="M412.45,3.71c1.51.5,1.51.5,1.51,1,0,1-.86,1.47-4.43,2.52-1.65,3.27-2.23,4.35-3.7,6.84a5,5,0,0,1,1.9-.43,4,4,0,0,1,2.6.93c.61.54.9,1.26,1.11,2.81,2.27-5.51,5.33-8.21,9.32-8.21,2.88,0,5,1.66,5,4,0,1.37-1,2.27-3.42,3.13a67.82,67.82,0,0,0-10,4.07c.07,2.09.1,2.66.1,3.31,0,1.59-.68,2.31-2.23,2.31-.47,0-.86-.29-.86-.62a2.54,2.54,0,0,1,0-.39,6.36,6.36,0,0,0,.08-1.15V21.7a12.57,12.57,0,0,0-2.48,2,4.23,4.23,0,0,0-1.23,2.7c0,1.59,1.59,2.31,5,2.31a21.49,21.49,0,0,0,5.58-.8,4.46,4.46,0,0,1,1.08-.25,2.11,2.11,0,0,1,1.55.65,3.09,3.09,0,0,1,.76,1.62c0,.79-.76,1.4-2.23,1.76a28.81,28.81,0,0,1-5.48.51,12.63,12.63,0,0,1-6-1.28A4.63,4.63,0,0,1,403.42,27c0-1.51.86-3,2.66-4.39a30.33,30.33,0,0,1,3.31-2.16V18.18c0-2.37-.64-3.56-1.83-3.56a4.1,4.1,0,0,0-2.63,1.58c-.39.51-2.27,3.32-3,4.58-.51.82-.94,1.22-1.44,1.22-.79,0-1.84-1.66-1.84-3,0-.54.07-.65,1.12-1.44,4.1-3.35,5.72-5.58,7.05-9.68a16.52,16.52,0,0,1-3.2.5,3.19,3.19,0,0,1-3.1-2.77.17.17,0,0,1,.15-.18.55.55,0,0,1,.29.18c.43.47,1,.65,2.34.65a10,10,0,0,0,3.81-.79,4.25,4.25,0,0,0,.14-1.12c0-1.51-.57-2.59-1.4-2.63-.18,0-.25-.07-.25-.18,0-.28,1.15-.64,2.09-.64a2.87,2.87,0,0,1,1.76.57,2.47,2.47,0,0,1,.9,2.27,4,4,0,0,1-.11.9,3.2,3.2,0,0,0,1.69-1.15ZM412.05,19c9.43-5.44,9.43-5.44,9.43-6.44a2,2,0,0,0-1.83-1.91c-2.16,0-4.32,1.65-6.12,4.68a8.72,8.72,0,0,0-1.44,3.49v.07Z" transform="translate(0)" fill="#343434"/><path d="M439.88,17.71l-1.9.39-.54.11-.29.44c-.47.64-.54.71-.83.71s-.61-.28-.83-.86l-1.11-2.81h4.89l.29-.43a52.61,52.61,0,0,0,5.62-9.58l2.34,1.77c.54.39.72.57.72.86s-.29.5-.87.58l-.75.14c-3.24,3.67-5.3,5.87-6.16,6.66,1.51-.07,4.21-.25,5-.32a7.15,7.15,0,0,0-1.22-2.06c-.11-.14-.15-.21-.15-.28a.18.18,0,0,1,.16-.18h0a6.15,6.15,0,0,1,2.23,1c1.7,1.12,2.56,2.42,2.56,3.82,0,1.12-.58,1.76-1.51,1.76s-1.08-.36-1.37-1.69a5.89,5.89,0,0,0-.36-1.37l-2.41.54V32.32c0,.4-.15.51-.61.69a9,9,0,0,1-1.7.29c-.39,0-.54-.11-.54-.36V17.56Zm-.54,2.66c.44.11.72.33.72.65s-.14.4-.5.68l-.29.26-.07.25L438.77,24c-.65,3-2.88,7.78-3.6,7.78-.18,0-.25-.11-.25-.29a5,5,0,0,1,.32-1.26,38.45,38.45,0,0,0,1.44-10.4Zm4.43-16.88c-.57.69-1,1.15-1.83,2.09l-2.09,2.23A3.83,3.83,0,0,1,441,10.4a1.56,1.56,0,0,1-1.46,1.66h-.06c-.9,0-1.22-.4-1.76-2.31a7,7,0,0,0-2.38-3.56.28.28,0,0,1-.1-.21c0-.08,0-.11.18-.11a9.77,9.77,0,0,1,1.4.32,6.64,6.64,0,0,1,2.2,1,21.15,21.15,0,0,0,1.62-3.56c.14-.47.46-1.3.9-2.52l.18-.5.07-.26,2.77,1.59c.47.25.65.43.65.72s-.22.5-.76.64Zm2.63,18.07c1.73,1.51,2.45,2.92,2.45,4.64,0,1.12-.61,1.88-1.52,1.88a1,1,0,0,1-1-.69,8.84,8.84,0,0,1-.47-2.55,13.06,13.06,0,0,0-1.22-4,1,1,0,0,1-.07-.29c0-.15.07-.22.21-.22A4.88,4.88,0,0,1,446.4,21.56Zm-1.58,9.36c2.91.11,3.34.11,5.93.18V2.7l3.5,1.8H460l1.3-2L464,5.2c.5.51.65.72.65,1.08s-.18.58-.65.83l-.54.29V31.1h.43l2-3.1,2.31,2.74c.36.43.46.65.46.9a.39.39,0,0,1-.36.43H451c-1.37,0-2.55,0-5.61.15ZM460.33,13V5.47h-6.52V13Zm0,8.67V14h-6.52v7.7Zm0,9.4V22.68h-6.52V31.1Z" transform="translate(0)" fill="#343434"/><path d="M494,29.37a21.6,21.6,0,0,1-5,2,10.68,10.68,0,0,1-2.16.47c-.15,0-.29-.11-.29-.22s.11-.22.5-.36c4.72-1.51,9-6,11-11.41a21.59,21.59,0,0,0-9.86-2.74,48.4,48.4,0,0,0-3.71,7.67A5,5,0,0,1,483,27.21a3.22,3.22,0,0,1-2.19.83,4.21,4.21,0,0,1-4.11-4.28c0-2.31,1.59-4.54,4.25-6.05a16.36,16.36,0,0,1,5-1.66c.72-1.18,1.91-3.31,3-5.18C490.57,8.06,491,7.06,491,6.3a.68.68,0,0,0-.61-.69,4.54,4.54,0,0,0-1.69.69,24.22,24.22,0,0,0-2.85,2.19,2.34,2.34,0,0,1-1.44.72c-1.11,0-2.63-1.72-2.63-3.06,0-.61.65-1.9,1-1.9.1,0,.18.14.18.39a1.28,1.28,0,0,0,1.26,1.26,30.19,30.19,0,0,0,6.44-2.05A2.64,2.64,0,0,1,492,3.46c1.12,0,4.43,2.19,4.43,2.91,0,.43-.29.76-1.15,1.37-2,1.47-3.92,4-6.16,8a31.62,31.62,0,0,1,9.65,1.54,9.28,9.28,0,0,0,.58-3.13c0-1.58-.4-2.19-1.44-2.34-.07,0-.15-.11-.15-.18a3.36,3.36,0,0,1,1.55-.61A6.11,6.11,0,0,1,502,12.24c.9.61,1.15,1,1.15,1.87a14.85,14.85,0,0,1-.94,4.61,21.7,21.7,0,0,1,3.64,2.19c1.37,1,1.87,1.73,1.87,2.7a1.68,1.68,0,0,1-1.51,1.83h-.15c-.75,0-.82,0-2.55-1.66-.58-.54-1.3-1.11-2.7-2.19C498.56,26,497,27.68,494,29.37Zm-8.53-12c-3.56.54-6,2.88-6,5.76,0,.86.47,1.44,1.15,1.44s1.16-.43,1.84-1.48c.43-.68.47-.72,2.52-4.64Z" transform="translate(0)" fill="#343434"/><path d="M515.23,30c5.44.21,5.62.21,7.09.21h11.09a190.39,190.39,0,0,0,3.67-19.51l4.32,1.52a.8.8,0,0,1,.54.75.81.81,0,0,1-.54.76l-.75.32c-2.92,8.42-3.28,9.36-6.19,16.16h8.06l2.41-2.88L548.31,30a.91.91,0,0,1,.36.68.46.46,0,0,1-.41.51H522.32c-1.4,0-1.87,0-6.26.18Zm2.13-21.49,3.35.07,2.91.07h6.52v-8l4,.36a.63.63,0,0,1,.61.65.75.75,0,0,1-.47.65l-.79.4V8.6H540l2.49-2.91L546,8.46a.67.67,0,0,1,.32.57.51.51,0,0,1-.48.54H523.62c-2.88.08-3.45.11-5.4.15Zm7.56,6.3a14.51,14.51,0,0,1,3.85,9.75c0,2.56-.87,4.14-2.23,4.14a1.31,1.31,0,0,1-1.23-.79c-.29-.58-.29-.61-.39-3.38a24.06,24.06,0,0,0-3.35-12c-.22-.36-.29-.5-.29-.64a.27.27,0,0,1,.25-.29h0c.32-.08,1.55,1.07,3.35,3.16Z" transform="translate(0)" fill="#343434"/><path d="M585,4.57c1.08.76,1.62,1.44,1.62,2.09a1.13,1.13,0,0,1-1.19,1,11.19,11.19,0,0,1-1.83-.25,9.53,9.53,0,0,0-1.6-.07,10.33,10.33,0,0,0-4.79.79,8.3,8.3,0,0,0-4,4.65,22.18,22.18,0,0,0-1.44,8.06c0,4.36,2,6.44,6,6.44a22,22,0,0,0,2.3-.18,5.85,5.85,0,0,1,.72-.07A2.76,2.76,0,0,1,583,29.55c0,1.15-1,1.77-2.95,1.77a19,19,0,0,1-6.55-1.23c-3.31-1.26-4.93-3.92-4.93-8a23,23,0,0,1,1.47-7.48,19.74,19.74,0,0,1,4-6.3,1.87,1.87,0,0,0,.36-.43c0-.08-.11-.11-.18-.11a27.65,27.65,0,0,0-6.33,2.09,29.49,29.49,0,0,0-5.37,3,1.44,1.44,0,0,1-.9.36,5.16,5.16,0,0,1-3.63-2.7,5.54,5.54,0,0,1-.44-2.38c0-.18.08-.29.18-.29s.15,0,.33.4a3,3,0,0,0,2.66,1.44,12.84,12.84,0,0,0,3.71-.86c4.28-1.3,7.74-2.23,12.31-3.42C581.36,4,581.51,4,582.3,3.53A4.61,4.61,0,0,1,585,4.57Z" transform="translate(0)" fill="#343434"/><path d="M625.1,4.57c1.08.76,1.62,1.44,1.62,2.09a1.13,1.13,0,0,1-1.19,1,11.19,11.19,0,0,1-1.83-.25,10,10,0,0,0-1.55-.11,10.33,10.33,0,0,0-4.79.79,8.3,8.3,0,0,0-4,4.65,22.18,22.18,0,0,0-1.44,8.06c0,4.36,2,6.44,6.05,6.44a22,22,0,0,0,2.3-.18A4.49,4.49,0,0,1,621,27a2.76,2.76,0,0,1,2.23,2.52c0,1.15-1,1.77-3,1.77a19,19,0,0,1-6.55-1.23c-3.31-1.26-4.93-3.92-4.93-8a22.27,22.27,0,0,1,1.48-7.48,19.74,19.74,0,0,1,4-6.3,1.87,1.87,0,0,0,.36-.43c0-.08-.11-.11-.18-.11a27.65,27.65,0,0,0-6.33,2.09,29.49,29.49,0,0,0-5.37,2.95,1.44,1.44,0,0,1-.9.36,5.16,5.16,0,0,1-3.63-2.7,5.71,5.71,0,0,1-.43-2.38c0-.18.07-.29.17-.29s.15,0,.33.4a3,3,0,0,0,2.66,1.44,12.84,12.84,0,0,0,3.71-.86c4.28-1.3,7.74-2.23,12.31-3.42s4.72-1.33,5.51-1.8A4.63,4.63,0,0,1,625.1,4.57Z" transform="translate(0)" fill="#343434"/><path d="M642.31,15.12c-1.83,0-2.91,0-5.22.14l-1-1.29c3.13.14,4.46.18,6.22.18h8.61V8.85h-7c-1,0-1.95,0-4,.11l-.87-1.22c2.45.11,3.46.14,4.83.14h7V.79l3.81.33c.86.07,1.19.25,1.19.75s-.25.65-.72.94l-.87.46V7.88h6.3L663,5.26l2.84,2.41c.4.36.54.57.54.82s-.18.36-.5.36H654.33v5.3H663l2.59-2.78,2.88,2.38c.36.29.47.47.47.76a.58.58,0,0,1-.55.61H654.33v6.3H661l2.41-2.52L666,21.09c.33.29.47.51.47.76a.51.51,0,0,1-.48.54H654.33v6.66a43.17,43.17,0,0,0,5.8.29,53.77,53.77,0,0,0,9.65-.69,10.28,10.28,0,0,0-2.16,3.75c-2.41.1-3.82.14-6.12.14-6.48,0-9.14-.36-11.56-1.55s-3.88-2.63-5.76-5.76A16.43,16.43,0,0,1,641,29.91a9.8,9.8,0,0,1-3,2.31.24.24,0,0,1-.25-.22c0-.18,0-.18.93-1.55,2.67-4,3.85-8,4.21-13.86l3.82,1.34c.68.21,1,.46,1,.86s-.25.65-.79.9l-.79.4c-.29.93-.76,2.3-1.44,4.1,2.16,2.55,4.17,4,6.23,4.28V15.12Z" transform="translate(0)" fill="#343434"/><path d="M688,6.69c-2.45-1.43-3.38-2.66-3.38-4.42,0-.9.21-1.59.5-1.59s.18.08.22.47c.21,1.73,2.19,2.84,5.29,3a2.17,2.17,0,0,1,1.87.79A3.66,3.66,0,0,1,693.21,7,1.33,1.33,0,0,1,692,8.39a5,5,0,0,1-1.52-.33A10.18,10.18,0,0,0,688,7.74c-2.7,0-4.21,1.08-4.21,3a.79.79,0,0,0,.18.61,1.67,1.67,0,0,1,.43,1.12,12.42,12.42,0,0,1-.68,3.46c-.72,2.7-.83,3.16-.83,4.28s.33,1.83,1,1.83c.26,0,.47-.1.83-.46a14.16,14.16,0,0,1,9.58-4.43c3.74,0,6.33,2.41,6.33,6,0,4.24-3.45,7.19-10,8.56a38,38,0,0,1-7.13.79c-.32,0-.5-.1-.5-.28s.14-.22.57-.26A23.54,23.54,0,0,0,691,29.84c3.56-1.69,5.72-4.39,5.72-7.06a3.9,3.9,0,0,0-3.62-4.16h-.38c-2.15,0-4.13,1.22-5.9,3.63a12.41,12.41,0,0,0-1.8,3.39,1.27,1.27,0,0,1-1.19.83,4.2,4.2,0,0,1-2.8-1.62,3.84,3.84,0,0,1-.9-2.6,17.85,17.85,0,0,1,.54-4.24c.14-.83.43-3.67.43-4.29v-1.4a4.66,4.66,0,0,1,3.1-4.57,14.14,14.14,0,0,1,3.24-.94Z" transform="translate(0)" fill="#343434"/><path d="M722.23,17.78c0,5.11.36,7.06,1.48,8.17s2.77,1.51,5.33,1.51a16,16,0,0,0,5-.68,3.23,3.23,0,0,1,1.11-.22,2.56,2.56,0,0,1,2.38,2.27c0,1.26-1.66,1.87-5.26,1.87-6.08,0-9.39-1-11-3.42-1.08-1.58-1.41-3.67-1.69-10.29a31.62,31.62,0,0,0-5.73,2.56,1.33,1.33,0,0,1-.54.21,5,5,0,0,1-2.23-1.44,4.3,4.3,0,0,1-1.19-2.59c0-.4.07-.61.22-.61s.11,0,.25.14a3.88,3.88,0,0,0,2.84.94c1.3,0,2.63-.25,6.3-1.19-.1-1.87-.14-2.63-.14-3.85-.07-1.84-.25-2.63-.76-3.21a2.94,2.94,0,0,0-1.87-.64.28.28,0,0,0-.18,0,.38.38,0,0,0-.21,0c-.08,0-.18-.07-.18-.15,0-.36,1.8-1.18,2.62-1.18,1.59,0,4.14,1.44,4.14,2.34a3.09,3.09,0,0,1,0,.43,51.12,51.12,0,0,0-.54,5.51c1.33-.4,3.16-.83,4.57-1.16s1.91-.46,4.14-1c.11-1.69.18-3.31.18-4.14,0-3.06-.69-4.28-2.31-4.25-.18,0-.25,0-.25-.14,0-.36,1.8-1.29,2.49-1.29,1.11,0,3.56,1.69,3.56,2.48a.79.79,0,0,1-.11.29,5.86,5.86,0,0,0-.36,2c-.07.58-.14,1.44-.32,3.42l-.15,1.26,1.48-.32c1.44-.29,1.62-.36,1.62-.69a2.2,2.2,0,0,0-.58-1c-.18-.26-.21-.33-.21-.36a.15.15,0,0,1,.14-.15l.18.07a7.42,7.42,0,0,0,4.36,1.55,1.84,1.84,0,0,1,1.65.58,2.76,2.76,0,0,1,.58,1.73c0,.54-.43.9-1.08.9a7.67,7.67,0,0,1-1.84-.29,15,15,0,0,0-3.13-.33,28.84,28.84,0,0,0-3.35.22l-.1,1.51c-.36,5.26-.62,6.34-1.7,7.38a5.86,5.86,0,0,1-3.16,1.37c-.29,0-.4-.11-.47-.4a8.93,8.93,0,0,0-2.85-5.33c-.1-.1-.14-.14-.14-.25a.19.19,0,0,1,.18-.18c.07,0,.11,0,1.37.83,2.09,1.23,2.34,1.37,2.77,1.37s.76-.4.86-1.12c.29-1.65.54-3.78.62-5-2.52.36-3.46.61-8.75,2.3Z" transform="translate(0)" fill="#343434"/><path d="M762.77,8.57c.14-3.06-.83-4.68-3-4.93-.15,0-.22,0-.22-.15,0-.36,1.69-1.08,2.59-1.08a7.68,7.68,0,0,1,3.28,1.15c.86.58,1.29,1.16,1.29,1.73,0,.25,0,.25-.36,1.26a18.86,18.86,0,0,0-.72,4.72,9.69,9.69,0,0,0,5.91-1.8c2,.79,2.91,1.62,2.91,2.59s-1.4,1.26-4.17,1.26a22.29,22.29,0,0,1-4.61-.43,41.18,41.18,0,0,0,1.29,10c4.94,1.54,8,3.88,8,6a1.81,1.81,0,0,1-1.76,1.84c-.65,0-1.15-.29-2-1.12A26.68,26.68,0,0,0,767,26c-.11,2-.51,3.06-1.44,4a8.07,8.07,0,0,1-5.08,1.51c-4.14,0-7.66-2.16-7.66-4.72A3.65,3.65,0,0,1,755,23.54c1.7-.94,3.46-1.26,6.81-1.26a16.64,16.64,0,0,1,2,.07A115.54,115.54,0,0,1,762.77,8.57Zm1,16.19a12.53,12.53,0,0,0-4.57-.82c-2.37,0-4,.93-4,2.34s1.94,2.52,4.39,2.52c2.09,0,3.67-.87,4-2.24a5.52,5.52,0,0,0,.18-1.62Z" transform="translate(0)" fill="#343434"/><path d="M789.66,12.06a2.18,2.18,0,0,0,2,1.73,5.5,5.5,0,0,0,2.48-.83c3.6-1.73,5.26-2.27,7.05-2.27,3.64,0,5.87,2.81,5.87,7.34,0,5.94-3.49,11-9.54,13.57A29.93,29.93,0,0,1,792,33.4c-.18,0-.32-.07-.32-.18s.14-.25.54-.39a26.54,26.54,0,0,0,6.88-4.43,13.92,13.92,0,0,0,4.17-10.19c0-3.74-1.08-5.83-3-5.83a7.37,7.37,0,0,0-3.6,1.55,30,30,0,0,0-3.42,2.84c-.94.79-1.33,1.05-1.73,1.05-1.51,0-2.84-1.66-2.84-3.57,0-1,.47-2.37.83-2.37C789.59,11.88,789.62,12,789.66,12.06Zm4.5-4H794c-.11,0-.18-.07-.18-.1a7,7,0,0,1,1.9-1.51c.18-.15.29-.26.29-.37s0-.08-.43-.25a4.77,4.77,0,0,1-2.45-4c0-.79.18-1.44.36-1.44s.18.07.25.32c.87,2.16,2.52,3.06,5.69,3.06a9.87,9.87,0,0,0,1.22-.07,5.67,5.67,0,0,0,.65-.07c1,0,1.91,1.33,1.91,2.81,0,.75-.57,1.08-1.94,1.08a6.44,6.44,0,0,1-1.15-.08,10.28,10.28,0,0,0-1.66-.1,13.82,13.82,0,0,0-4.32.76Z" transform="translate(0)" fill="#343434"/></svg>