<svg xmlns="http://www.w3.org/2000/svg" viewBox="0 0 481.02 52.05"><defs><style>.cls-1{fill:#fff;stroke:#fff;stroke-miterlimit:10;stroke-width:0.25px;}</style></defs><g id="Layer_2" data-name="Layer 2"><g id="Layer_1-2" data-name="Layer 1"><path class="cls-1" d="M42.11,19.48c-6,7.81-19.2,17.86-31.62,24.19-1.6.84-1.73.9-2.37,1.92-.32.52-.51.71-.83.71-1,0-4-3.39-4-4.48L4,40.67V34.33C4,22,3.9,14.24,3.65,13.08S2.43,11.29.38,10.84a1.43,1.43,0,0,1-.26-.64c0-.44,1.54-1,2.76-1,2.17,0,6.33,2.5,6.33,3.78,0,.32-.25.58-.89,1l-1,.71c-.07,2-.07,2-.13,3.26v1.28L7.1,28.06,7,33.88c0,1.15.06,3.71.19,6.66,10.11-3.27,22-11.07,33.85-22.21Z"/><path class="cls-1" d="M58.69,29.79c-.45,0-.9-.52-2.44-2.95a8.53,8.53,0,0,1-1.66-4.29c0-1.4.45-1.92,1.6-2,.51,4,2.24,4.86,9.21,4.86,1.16,0,2.88-.06,5.32-.12,6.08-.19,8.83-.26,15.68-.32s13.18-.58,15.1-1.22a4.21,4.21,0,0,1,1.09-.19,5.39,5.39,0,0,1,2.56,1.21A2.7,2.7,0,0,1,106.49,27c0,.9-.51,1.35-1.47,1.35a12.76,12.76,0,0,1-2.37-.26,77.42,77.42,0,0,0-10.11-.38c-12.42,0-17.28.13-32,1A3.91,3.91,0,0,1,58.69,29.79Z"/><path class="cls-1" d="M122.56,19.36h.77c6.59.38,12,3.64,12,7.29a1.83,1.83,0,0,1-1.79,1.79c-.77,0-1.15-.32-1.92-1.47-2.56-3.58-3.71-4.42-9-6.53l-.25-.12ZM170.94,16c-.13.19-.32.38-.32.45l-.32.31a221.21,221.21,0,0,1-17.22,17.48c-5.24,4.8-6.33,5.63-14.78,11.07a7.07,7.07,0,0,0-2.37,1.85c-.64.71-1,1-1.41,1-.89,0-2.87-1.34-4.73-3.33a6.39,6.39,0,0,1-1.92-5v-.57a1.55,1.55,0,0,1,.06-.45H129v.32c.26,1.66,2.3,3.78,3.58,3.78,2.12,0,11.72-5.83,19.14-11.59a166.8,166.8,0,0,0,17.85-16.19l.2-.25ZM128.7,7.32h1.73c6.14,0,11.45,2.95,11.45,6.4,0,1.16-.64,2-1.53,2s-1.28-.32-2.63-1.86a15.84,15.84,0,0,0-8.83-5.37l-.25-.07Z"/><path class="cls-1" d="M190.14,9.12l.51.19.39.06c6.33,1.79,11.07,5.89,11.07,9.6a2.34,2.34,0,0,1-2.24,2.5c-1.09,0-1.54-.45-2.43-2.37-2.12-4.54-4-6.72-7.94-9Zm45.44,5.69-.39.51c-6.91,9.22-21.88,22-35,29.89A4.37,4.37,0,0,0,198.27,47c-.32.7-.64,1-1,1a10.07,10.07,0,0,1-3-1.92c-2.62-2-4.09-4.35-4.09-6.4,0-1.34.25-1.73,1-1.79a10.91,10.91,0,0,0,1.41,3,4.34,4.34,0,0,0,2.75,1.92c1.21,0,8.32-3.91,14.14-7.81,8.13-5.38,13.82-10.18,24.32-20.41l.45-.39.19-.25Z"/><path class="cls-1" d="M285.63,9.88l4.6,3.08c.52.38.77.7.77,1.08s-.45.9-1.21,1l-1.48.26c-3.2,7.74-8.06,15.55-12.54,20.41A62.21,62.21,0,0,1,259.84,47.9a25.88,25.88,0,0,1-5.38,2.36.83.83,0,0,1-.77-.76c0-.58,0-.58,2.82-2.12a58,58,0,0,0,27.71-32.95c-.7-.07-1.41-.07-1.54-.07a56.57,56.57,0,0,0-10.17,1,2.06,2.06,0,0,1-.58.07,1.24,1.24,0,0,1-1-.45c-3.52,5.89-5.76,8.57-10.69,12.61-2.88,2.43-5.24,4-6.07,4a.76.76,0,0,1-.71-.71c0-.44.45-1,1.67-1.92a47.37,47.37,0,0,0,10.75-11.77c2.36-3.78,4.22-8,4.22-9.6,0-1.09-.7-1.73-2.82-2.5.2-.89.58-1.15,1.54-1.15,1.41,0,2.24.32,4.48,1.73,1.92,1.22,2.11,1.47,2.11,2.05s-.32.83-1,1-.57.32-1,1.28a21.71,21.71,0,0,1-1.28,2.69l.71-.06,2.24-.2c2.62-.19,5.31-.44,5.69-.44l2.37-.13,1-.07Zm.64-5.69.38.13.32.12c4.74,1.54,7.87,4.42,7.87,7.17a1.73,1.73,0,0,1-1.53,1.86c-1,0-1.48-.51-2.18-2.05a18,18,0,0,0-5.25-6.21l-.19-.13Zm3.9-4a1.18,1.18,0,0,0,.38.06l.32.06c5.06,1.09,8.64,3.84,8.64,6.53a1.38,1.38,0,0,1-1.4,1.54c-.84,0-1.48-.45-2.44-1.92a15.25,15.25,0,0,0-5.88-5.31Z"/><path class="cls-1" d="M317.12,15.07c1.79,2.3,2.69,2.88,4.48,2.88.89,0,.89,0,9.6-.9l2.49-.26a78,78,0,0,0,.71-8.25c0-1.66-.52-2.11-3.52-2.82,0-1.08.57-1.47,2-1.47,2.63,0,7.49,2.37,7.49,3.59,0,.44-.38.83-1.15,1.15s-1.09.7-1.28,2.17c-.06.2-.13.71-.26,1.41-.12,1.15-.25,1.92-.51,3.84l12.23-.89L351,13.6l4.29,2.56a1.88,1.88,0,0,1,1,1.4c0,.39-.38.77-1.21,1l-1,.32c-1.8,11.71-2.69,15.87-4.48,20.16-1.54,3.84-3.07,5.88-5.19,7.23a8.72,8.72,0,0,1-3.64,1.21c-1,0-1.41-.64-1.48-2.11,0-.83-.12-1-1.15-2a74.93,74.93,0,0,1-5.57-6l1-.7.32.19c5.76,4.48,7.11,5.38,8.39,5.38,1.92,0,3.65-2.44,5.18-7.24a76.86,76.86,0,0,0,3.14-17.28c-5.95.32-10.37.71-13.76,1.16-2.37,11.52-5.25,17.66-11,23.55-3.52,3.58-10.49,8.25-12.29,8.25a.72.72,0,0,1-.7-.76c0-.39.13-.58,1.09-1.16,11.64-7.36,17-15.61,19.32-29.43l-3,.44-2.31.32c-4.54.64-4.61.71-5.63,1.47a1.57,1.57,0,0,1-1,.45c-1,0-3.26-1.92-4.29-3.64a5.85,5.85,0,0,1-.89-3.08Z"/><path class="cls-1" d="M378.69,29.79c-.45,0-.9-.52-2.44-2.95a8.53,8.53,0,0,1-1.66-4.29c0-1.4.45-1.92,1.6-2,.51,4,2.24,4.86,9.21,4.86,1.16,0,2.88-.06,5.32-.12,6.08-.19,8.83-.26,15.68-.32s13.18-.58,15.1-1.22a4.21,4.21,0,0,1,1.09-.19,5.39,5.39,0,0,1,2.56,1.21A2.7,2.7,0,0,1,426.49,27c0,.9-.51,1.35-1.47,1.35a12.76,12.76,0,0,1-2.37-.26,77.42,77.42,0,0,0-10.11-.38c-12.42,0-17.28.13-32,1A3.91,3.91,0,0,1,378.69,29.79Z"/><path class="cls-1" d="M454.65,3.48a9.82,9.82,0,0,1,1.67-.12c1.79,0,2.94.38,5.37,1.85,1.47.9,2.05,1.54,2.05,2.24,0,.51-.45.9-1.15,1.09-.51.19-.64.26-.64.51-.07.07-.07.32-.07.83-.06,2.95-.06,3.27-.25,6.85l-.07,3.07-.06,2.05C473,24,480.89,28.63,480.89,33.05a1.66,1.66,0,0,1-1.6,1.73c-1.09,0-1.73-.45-3.45-2.5-3.59-4.09-8-6.78-14.34-8.7-.13,4.22-.13,5.12-.13,6V46c.13,2.18.13,2.18.13,2.82,0,2-.64,3.07-1.79,3.07s-2.56-1.92-2.56-3.71a6.34,6.34,0,0,1,.32-1.86c.57-2.49.57-2.88.57-12l.2-9.92c-.07-8.06,0-9.21.06-13.31l.06-2.24c0-2.36-.19-2.56-3.2-4.16l-.44-.25-.26-.13Z"/></g></g></svg>