<svg id="Layer_1" data-name="Layer 1" xmlns="http://www.w3.org/2000/svg" viewBox="0 0 605.55 59.78"><title>racing-kart-subtext</title><path d="M609,36c-3,3.71-5.68,3.39-8.36-.41a29.46,29.46,0,0,0-8.18-8c-4-2.52-5.47-1.83-5.37,2.78.15,7.65.57,15.29,1,22.93.14,2.54.35,5.07-1.71,7a1.92,1.92,0,0,1-2.72-.2,7.62,7.62,0,0,1-2.19-6.82A326.73,326.73,0,0,0,583,17.88c0-4.43-.22-8.75-5.12-11.4,3.27-2.47,6-2.07,8.73-.49,3.06,1.74,2.47,4.33,1.67,7a17.13,17.13,0,0,0-.53,2.44c-1,7-1.05,7.3,6,8.93,6.32,1.46,11,5.2,15.27,9.64Z" transform="translate(-3.45 -1)"/><path d="M373,1c1.44,1.31,3,2.53,4.28,4a2.17,2.17,0,0,1,.1,3.13c-.76.81-2.05,1.15-2.65.36-2-2.69-5.66-3.92-6.73-7.44Z" transform="translate(-3.45 -1)"/><path d="M429,45.48c7.87,2.26,9.56,1.26,12-6.49a54.81,54.81,0,0,0,2.56-13.19c.17-3.06-1-4.2-4.14-3.91-5.6.51-9.7,1.83-11.64,8.4-3.65,12.42-12,21.28-24,26.46-1.15.49-2.85,2.34-3.8.3-.73-1.57,1.47-1.87,2.52-2.48,9.64-5.53,16.1-13.76,20.33-23.86.61-1.44,1.78-3.26.53-4.69-1.4-1.61-3.09-.05-4.58.42-3.7,1.17-7.39,2.53-10.63-.94-.79-.85-1.67-1.91-1-3.11s1.68-.26,2.58,0A20.42,20.42,0,0,0,423,21.59c4.75-1.8,3.07-6.63,3.32-10.41.11-1.68-2.53-3.28-.38-4.91,1.19-.91,2.55.15,3.68.8,2.09,1.19,3.77,2.5,3.43,5.45-.26,2.34-3,5.27-.46,6.89s6.35.31,9-1.11c3.56-1.89,6-1,8.37,1.59a2.71,2.71,0,0,1,.67,3.2c-3.12,6.52-3.29,13.87-5.85,20.55-1.51,3.94-3.26,7.68-6.89,10.13-2.72,1.84-4.86,1.95-6-1.89A51.14,51.14,0,0,0,429,45.48Z" transform="translate(-3.45 -1)"/><path d="M325.13,38.49c4.61-4.86,9.38-9.43,12.86-15.16,2.34-3.85,5.26-7.51,2.51-12.38-.5-.89-.24-1.62.86-1.78,2.43-.33,4,1.38,5.78,2.55,1.46,1,1.71,2.27.75,3.88-2,3.44.26,3.8,2.75,3.37a24.57,24.57,0,0,0,7.65-2.15c3.54-2,5.64-.12,7.86,2,1.14,1.09,1.42,2.42,0,3.4-3.61,2.54-4.92,6.65-7.1,10.14-8.54,13.7-20.69,22.8-35.68,28.33a3.81,3.81,0,0,1-1.47-.1c-.37-2.12,1.52-1.94,2.46-2.45,13.7-7.35,24.7-17.47,32.18-31.19.89-1.63,2.81-3.42,1.3-5.43-1.29-1.72-3.42-.49-5.18-.61-6-.41-10,2.12-13.57,7A29.29,29.29,0,0,1,325.13,38.49Z" transform="translate(-3.45 -1)"/><path d="M51.89,15.51c-.75,4.89-3.8,8.2-6.62,11.57A86.78,86.78,0,0,1,19,48.23a42.66,42.66,0,0,0-5.14,3.05c-1.58,1.14-3,2.24-4.87.69-1.68-1.41-3.14-2.81-2.66-5.46,1.48-8.09.37-16.27.67-24.41a6.38,6.38,0,0,0-2.18-4.87c-.68-.68-1.75-1.35-1.14-2.47s2-.94,3.13-.71c4.92,1,6.86,4.06,6.15,9a86.72,86.72,0,0,0-1.29,16.41C11.84,44,13,45,17.19,43.2c8.25-3.45,15.21-8.92,21.7-14.94C43.32,24.14,47.59,19.83,51.89,15.51Z" transform="translate(-3.45 -1)"/><path d="M212.29,15.2c-1.6,5.56-4.84,9.39-7.87,13.18C195.61,39.43,184.64,48,172.3,54.76c-4.22,2.33-9.74-.67-10.39-5.53-.12-.83-.24-1.79.54-2.28s1.62,0,2.21.6c2.71,2.54,5.42,1.62,8.27.24,13.93-6.71,24.61-17.3,34.61-28.74C208.69,17.73,209.22,15.74,212.29,15.2Z" transform="translate(-3.45 -1)"/><path d="M294.41,14c-4.14,8.61-9.73,14.49-15.45,20.17A113.71,113.71,0,0,1,256,51.64c-4.67,2.74-8.59,1.72-10.72-3.21-.57-1.33-1.47-3.08-.12-4.18,1.54-1.25,2.23.75,3.06,1.57,2,2,4,1,5.9-.08A138.29,138.29,0,0,0,289.4,17.5c.78-.86,1.51-1.78,2.35-2.57C292.06,14.63,292.62,14.59,294.41,14Z" transform="translate(-3.45 -1)"/><path d="M119.46,35a207.93,207.93,0,0,0-35.28,2.67c-4.53.69-8.83-2-8.93-5.7,0-1.08-.12-3,1.69-1.86,7.61,4.65,15.64,1.15,23.44,1.3a122.91,122.91,0,0,0,22.84-2.08,16.9,16.9,0,0,1,5,0c2.12.3,4.1,1.6,4.07,3.72,0,2.75-2.7,1.8-4.31,1.88C124.62,35.15,121.29,35,119.46,35Z" transform="translate(-3.45 -1)"/><path d="M523.71,35c-11.36-.23-22.59,1.08-33.8,2.73-4.14.61-8.37-2.14-8.62-5.62-.08-1.09-.14-3.06,1.56-2.06,8,4.7,16.3,1.09,24.44,1.26a125.33,125.33,0,0,0,22.35-2,17.74,17.74,0,0,1,4,0c2.39.15,4.67,1.44,4.72,3.64.06,3-2.89,1.93-4.65,2C530.38,35.16,527,35,523.71,35Z" transform="translate(-3.45 -1)"/><path d="M244.6,13.91c5.78-1.68,12.58.44,15.33,4.54,1.28,1.92,1.95,4.27,0,5.81-2.17,1.68-4,.3-5.14-1.91C252.67,18.2,248.49,16.45,244.6,13.91Z" transform="translate(-3.45 -1)"/><path d="M167.77,11.32c5.1-1.41,9.58-.46,13.35,2.95,2.06,1.86,2.94,4.43.71,6.56-2.55,2.42-4.22.08-5.48-1.92C174.25,15.57,171.06,13.58,167.77,11.32Z" transform="translate(-3.45 -1)"/><path d="M163.09,23.5c4.06.9,8,1.8,10.31,5.55,1.1,1.76,1.12,3.61-.53,4.93-1.93,1.55-3.37.35-4.47-1.36a19.46,19.46,0,0,0-6.26-6.28c-.79-.48-2-.89-1.55-2.14S162.28,23.55,163.09,23.5Z" transform="translate(-3.45 -1)"/><path d="M360.21,5.38c4-.77,6.65.38,8.65,3.07a2.51,2.51,0,0,1-.17,3.6c-1.37,1.14-2.36.16-3.3-.92C363.83,9.32,362.2,7.58,360.21,5.38Z" transform="translate(-3.45 -1)"/></svg>