<svg xmlns="http://www.w3.org/2000/svg" viewBox="0 0 470.2 52.9"><defs><style>.cls-1{fill:#fff;}</style></defs><g id="レイヤー_2" data-name="レイヤー 2"><g id="レイヤー_1-2" data-name="レイヤー 1"><path class="cls-1" d="M41.1,18.4C29.6,29.2,17.9,37,8.1,40.3c-.1-2.7-.2-5-.2-5.9l.2-14.6V18.5a25.4,25.4,0,0,0,.1-3l.8-.6c.6-.4,1.1-.8,1.1-1.4S5.5,9.2,3.3,9.2,0,9.6,0,10.7a2.3,2.3,0,0,0,.3.9v.2H.6c2.4.5,2.8,1.2,2.9,1.9s.4,3.5.4,21.1V41l-.8,1.1v.2c0,1.3,3.3,5,4.6,5s.9-.5,1.2-1,.6-.9,2.2-1.7c12.6-6.5,25.7-16.5,31.8-24.3l.2-.4-1.6-1.8Z"/><path class="cls-1" d="M105.8,24.9a5.3,5.3,0,0,0-2.8-1.4l-1.3.3c-1.9.6-8.2,1.1-14.9,1.2s-9.7.1-15.7.3H65.8c-7.1,0-8.3-1-8.7-4.4v-.5h-.5c-1.4.1-2,.9-2,2.5a9.3,9.3,0,0,0,1.7,4.6c1.6,2.5,2.1,3.2,2.9,3.2s.8-.2,2-1.1c14.3-.9,19.1-1,31.8-1a79.7,79.7,0,0,1,10,.4l2.5.2c1.2,0,2-.6,2-1.8A3,3,0,0,0,105.8,24.9Z"/><path class="cls-1" d="M137.7,14.6c1.4,1.6,2,2.1,3,2.1a2.3,2.3,0,0,0,2.1-2.5c0-3.7-5.5-6.9-12-6.9h-2.2v2h.6A16.2,16.2,0,0,1,137.7,14.6Z"/><path class="cls-1" d="M169.6,15.3a174.4,174.4,0,0,1-17.8,16.1c-7.8,6.1-17,11.5-18.8,11.5s-2.9-1.9-3.1-3.3v-.8h-2v.4c0,.2-.1.3-.1.5v.6a6.9,6.9,0,0,0,2.1,5.3c1.6,1.7,3.8,3.5,5.1,3.5s1.1-.4,1.8-1.1a6.2,6.2,0,0,1,2.2-1.8c8.5-5.4,9.6-6.2,14.9-11.1A203.2,203.2,0,0,0,171,17.6l.5-.5h0a.2.2,0,0,0,.2-.2l.3-.4-1.9-1.8Z"/><path class="cls-1" d="M131.5,27.7c.8,1.2,1.3,1.7,2.4,1.7a2.3,2.3,0,0,0,2.3-2.3c0-3.9-5.5-7.4-12.5-7.8h-1.2l-.3,1.8.6.3C128,23.5,129.1,24.2,131.5,27.7Z"/><path class="cls-1" d="M197.4,19.8c.9,1.9,1.4,2.6,2.8,2.6a2.8,2.8,0,0,0,2.8-3c0-3.9-4.8-8.2-11.5-10.1h-.3l-.9-.3-1.1,1.7.4.3C193.4,13.2,195.3,15.4,197.4,19.8Z"/><path class="cls-1" d="M234.3,14.3l-.4.4c-10.6,10.2-16.2,15-24.3,20.3-6.3,4.3-12.9,7.7-13.8,7.7a3.8,3.8,0,0,1-2.4-1.7,11.7,11.7,0,0,1-1.3-2.9l-.2-.3h-.3c-1.4.1-1.5,1.2-1.5,2.3s1.5,4.6,4.3,6.8c.9.8,2.6,2,3.3,2s1.3-.9,1.4-1.2a3.8,3.8,0,0,1,1.7-1.6c13.1-7.9,28.2-20.8,35.2-30l.6-.9-1.8-1.5Z"/><path class="cls-1" d="M290.1.3H289l-.7,1.8.3.2a14.3,14.3,0,0,1,5.7,5.2c1.1,1.5,1.8,2.1,2.9,2.1a1.9,1.9,0,0,0,1.9-2C299.1,4.3,295.4,1.4,290.1.3Z"/><path class="cls-1" d="M289.6,13l-5-3.3L283,11.8l-3,.2h-2.2l-3.6.3-2,.2.9-1.9c.3-.9.3-.9.6-1A1.5,1.5,0,0,0,275,8.2c0-.9-.4-1.3-2.3-2.5s-3.2-1.8-4.7-1.8-1.8.3-2.1,1.5v.5h.4c2.1.8,2.5,1.3,2.5,2s-1.8,5.7-4.1,9.4A47,47,0,0,1,254,29c-1.3,1-1.9,1.6-1.9,2.3a1.2,1.2,0,0,0,1.2,1.2c1.3,0,4.6-2.6,6.4-4.1a39.4,39.4,0,0,0,10.5-12.3,1.3,1.3,0,0,0,.8.3h.7a52.4,52.4,0,0,1,10.1-1h.8a57.5,57.5,0,0,1-27.2,32.1c-3,1.6-3.1,1.7-3.1,2.6a1.3,1.3,0,0,0,1.3,1.2c.9,0,5.1-2.1,5.6-2.4a61.6,61.6,0,0,0,16-12.3c4.6-5,9.4-12.8,12.6-20.3l1.1-.2c1-.1,1.7-.7,1.7-1.5S290.1,13.4,289.6,13Z"/><path class="cls-1" d="M286.3,4.4l-1.1-.3-1.1,1.6.6.4a17.6,17.6,0,0,1,5.1,6c.7,1.5,1.3,2.3,2.6,2.3a2.2,2.2,0,0,0,2-2.3C294.4,9.1,291.1,6,286.3,4.4Z"/><path class="cls-1" d="M353.3,16.2l-4.6-2.8L347,15.5l-11.4.8c.1-.4.1-.8.2-1.1a16.5,16.5,0,0,0,.2-2.1c.1-.2.1-.5.2-.7a1.5,1.5,0,0,1,.1-.7c.2-1.4.3-1.5,1-1.8s1.4-.9,1.4-1.6-5.5-4.1-8-4.1-2.5.2-2.5,2v.4h.4c3,.7,3.1,1,3.1,2.3s-.3,5.1-.6,7.8L329,17l-9.6.9c-1.5,0-2.3-.4-4.1-2.7l-.2-.2-1.7.4v.4a5.8,5.8,0,0,0,.9,3.3c1.1,1.7,3.5,3.9,4.8,3.9a1.7,1.7,0,0,0,1.2-.6c1-.6,1-.7,5.4-1.3l4.6-.7c-2.3,13.3-7.7,21.3-18.9,28.4-1,.6-1.4.9-1.4,1.6a1.3,1.3,0,0,0,1.2,1.3c2.1,0,9.4-5,12.7-8.4,5.8-5.9,8.7-12.1,11.1-23.5,3.3-.4,7.5-.8,12.8-1a74.4,74.4,0,0,1-3.1,16.5c-1.5,4.6-3.1,6.9-4.7,6.9s-2.4-.8-8.1-5.3l-.6-.3-1.7,1.2.3.4c1.7,1.9,2.5,2.9,5.6,6,1,1,1,1,1,1.7s.2,2.6,2,2.6a9.3,9.3,0,0,0,3.9-1.3c2.3-1.5,3.9-3.6,5.4-7.5s2.7-8.2,4.5-19.9l.6-.3c1.4-.4,1.6-1.1,1.6-1.5A2.4,2.4,0,0,0,353.3,16.2Z"/><path class="cls-1" d="M423.3,24.9a5.6,5.6,0,0,0-2.9-1.4l-1.2.3c-1.9.6-8.2,1.1-15,1.2s-9.6.1-15.7.3h-5.3c-7.1,0-8.3-1-8.7-4.4v-.5H374c-1.5.1-2.1.9-2.1,2.5a9.3,9.3,0,0,0,1.7,4.6c1.6,2.5,2.2,3.2,2.9,3.2s.9-.2,2-1.1c14.4-.9,19.1-1,31.9-1a80.7,80.7,0,0,1,10,.4l2.4.2c1.3,0,2-.6,2-1.8A3.1,3.1,0,0,0,423.3,24.9Z"/><path class="cls-1" d="M450.9,21.9V17.2c.2-3.4.2-3.8.2-6.4V9.7h.4c.9-.3,1.5-.8,1.5-1.6s-.9-1.8-2.3-2.6-3.7-2-5.6-2l-1.8.2h-.3l-.4,1.6,1.1.6c2.9,1.5,2.9,1.6,2.9,3.7v4.1c0,2.8-.1,4.8,0,11.4l-.2,10c0,9,0,9.4-.6,11.8a6.2,6.2,0,0,0-.3,2c0,2.1,1.5,4.2,3.1,4.2s2.3-.4,2.3-3.6a25.1,25.1,0,0,0-.2-2.8V30.1c0-.9,0-1.7.1-5.4,5.9,1.9,10.1,4.5,13.5,8.4,1.7,2,2.5,2.6,3.8,2.6a2.1,2.1,0,0,0,2.1-2.2C470.2,28.8,462.5,24.2,450.9,21.9Z"/></g></g></svg>