<svg xmlns="http://www.w3.org/2000/svg" viewBox="0 0 481.77 52.9"><defs><style>.cls-1{fill:#fff;stroke:#fff;stroke-miterlimit:10;}</style></defs><g id="Layer_2" data-name="Layer 2"><g id="Layer_1-2" data-name="Layer 1"><path class="cls-1" d="M42.48,20c-6,7.81-19.2,17.85-31.61,24.19-1.6.83-1.73.9-2.37,1.92-.32.51-.51.7-.83.7-1,0-4-3.39-4-4.48l.76-1.15V34.8c0-12.29-.12-20.1-.38-21.25S2.8,11.76.76,11.31a1.32,1.32,0,0,1-.26-.64c0-.45,1.54-1,2.75-1,2.18,0,6.34,2.5,6.34,3.78,0,.32-.26.57-.9,1l-1,.7c-.06,2-.06,2-.13,3.27v1.28l-.12,8.77-.07,5.82c0,1.15.07,3.71.19,6.65,10.11-3.26,22-11.07,33.86-22.2Z"/><path class="cls-1" d="M59.06,30.25c-.45,0-.9-.51-2.43-2.94A8.49,8.49,0,0,1,55,23c0-1.41.45-1.92,1.6-2,.52,4,2.24,4.86,9.22,4.86,1.15,0,2.88-.06,5.31-.13,6.08-.19,8.83-.25,15.68-.32s13.18-.57,15.1-1.21a4.28,4.28,0,0,1,1.09-.19,5.35,5.35,0,0,1,2.56,1.21,2.7,2.7,0,0,1,1.34,2.24c0,.9-.51,1.35-1.47,1.35a12.77,12.77,0,0,1-2.36-.26,77.59,77.59,0,0,0-10.12-.38c-12.41,0-17.27.12-32,1A3.92,3.92,0,0,1,59.06,30.25Z"/><path class="cls-1" d="M122.93,19.82h.77c6.59.39,12,3.65,12,7.3a1.83,1.83,0,0,1-1.79,1.79c-.77,0-1.16-.32-1.92-1.47-2.56-3.59-3.72-4.42-9-6.53l-.26-.13Zm48.38-3.33c-.12.2-.32.39-.32.45l-.32.32a219.27,219.27,0,0,1-17.21,17.47c-5.25,4.8-6.34,5.63-14.78,11.07a7,7,0,0,0-2.37,1.86c-.64.7-1,1-1.41,1-.9,0-2.88-1.34-4.74-3.33a6.42,6.42,0,0,1-1.92-5v-.58a1.29,1.29,0,0,1,.07-.44h1.09v.32c.25,1.66,2.3,3.77,3.58,3.77,2.11,0,11.71-5.82,19.13-11.58A168,168,0,0,0,170,15.6l.19-.26Zm-42.23-8.7h1.72c6.15,0,11.46,2.94,11.46,6.4,0,1.15-.64,2-1.54,2s-1.28-.32-2.62-1.85a15.92,15.92,0,0,0-8.83-5.38L129,8.88Z"/><path class="cls-1" d="M190.52,9.58l.51.19.38.07c6.34,1.79,11.07,5.89,11.07,9.6a2.33,2.33,0,0,1-2.24,2.49c-1.08,0-1.53-.44-2.43-2.36-2.11-4.55-4-6.72-7.93-9ZM236,15.28l-.38.51c-6.91,9.22-21.89,22-35,29.89a4.43,4.43,0,0,0-1.92,1.79c-.32.7-.64,1-1,1a10.19,10.19,0,0,1-3-1.92c-2.63-2-4.1-4.35-4.1-6.4,0-1.35.26-1.73,1-1.79a11.27,11.27,0,0,0,1.41,3,4.35,4.35,0,0,0,2.75,1.92c1.22,0,8.32-3.9,14.15-7.8C218,30.06,223.73,25.26,234.23,15l.44-.38.19-.26Z"/><path class="cls-1" d="M286,10.35l4.61,3.07c.51.39.77.71.77,1.09s-.45.9-1.22,1l-1.47.26c-3.2,7.74-8.06,15.55-12.54,20.41a62,62,0,0,1-15.94,12.22,25.59,25.59,0,0,1-5.37,2.37.82.82,0,0,1-.77-.77c0-.57,0-.57,2.81-2.11a58,58,0,0,0,27.71-33c-.7-.06-1.4-.06-1.53-.06a55.7,55.7,0,0,0-10.18,1,2.27,2.27,0,0,1-.57.06,1.22,1.22,0,0,1-1-.44c-3.52,5.88-5.76,8.57-10.69,12.6-2.88,2.43-5.25,4-6.08,4a.74.74,0,0,1-.7-.7c0-.45.44-1,1.66-1.92a47.18,47.18,0,0,0,10.75-11.77c2.37-3.78,4.23-8,4.23-9.6,0-1.09-.71-1.73-2.82-2.5.19-.9.57-1.15,1.53-1.15,1.41,0,2.25.32,4.48,1.73,1.92,1.21,2.12,1.47,2.12,2s-.32.84-1,1-.58.32-1,1.28a24.11,24.11,0,0,1-1.28,2.69l.7-.07,2.24-.19c2.62-.19,5.31-.45,5.7-.45l2.36-.13,1-.06Zm.64-5.7.39.13.32.13c4.73,1.54,7.87,4.42,7.87,7.17a1.73,1.73,0,0,1-1.54,1.85c-1,0-1.47-.51-2.17-2a18,18,0,0,0-5.25-6.21l-.19-.13Zm3.91-4a1,1,0,0,0,.38.07l.32.06c5.06,1.09,8.64,3.84,8.64,6.53a1.38,1.38,0,0,1-1.41,1.53c-.83,0-1.47-.44-2.43-1.92a15.28,15.28,0,0,0-5.89-5.31Z"/><path class="cls-1" d="M317.49,15.53c1.79,2.31,2.69,2.88,4.48,2.88.9,0,.9,0,9.6-.89l2.5-.26a80.33,80.33,0,0,0,.7-8.25c0-1.67-.51-2.12-3.52-2.82,0-1.09.58-1.47,2.05-1.47,2.62,0,7.49,2.37,7.49,3.58,0,.45-.39.83-1.16,1.15s-1.08.71-1.28,2.18c-.06.19-.12.7-.25,1.41-.13,1.15-.26,1.92-.51,3.84l12.22-.9,1.54-1.92,4.28,2.56a1.91,1.91,0,0,1,1,1.41c0,.38-.39.77-1.22,1l-1,.32c-1.79,11.72-2.69,15.87-4.48,20.16-1.53,3.84-3.07,5.89-5.18,7.23A8.65,8.65,0,0,1,341.17,48c-1,0-1.41-.64-1.47-2.11,0-.83-.13-1-1.15-2a74.93,74.93,0,0,1-5.57-6l1-.71.32.2c5.76,4.48,7.1,5.37,8.38,5.37,1.92,0,3.65-2.43,5.19-7.23A76.33,76.33,0,0,0,351,18.22c-5.95.32-10.37.71-13.76,1.15C334.84,30.89,332,37,326.2,42.92c-3.52,3.59-10.5,8.26-12.29,8.26a.73.73,0,0,1-.71-.77c0-.38.13-.57,1.09-1.15,11.65-7.36,17-15.62,19.33-29.44l-3,.45-2.3.32c-4.55.64-4.61.7-5.63,1.47a1.62,1.62,0,0,1-1,.45c-1,0-3.27-1.92-4.29-3.65a5.82,5.82,0,0,1-.9-3.07Z"/><path class="cls-1" d="M379.06,30.25c-.45,0-.9-.51-2.43-2.94A8.49,8.49,0,0,1,375,23c0-1.41.45-1.92,1.6-2,.52,4,2.24,4.86,9.22,4.86,1.15,0,2.88-.06,5.31-.13,6.08-.19,8.83-.25,15.68-.32s13.18-.57,15.1-1.21a4.28,4.28,0,0,1,1.09-.19,5.31,5.31,0,0,1,2.56,1.21,2.7,2.7,0,0,1,1.34,2.24c0,.9-.51,1.35-1.47,1.35a12.84,12.84,0,0,1-2.37-.26,77.32,77.32,0,0,0-10.11-.38c-12.41,0-17.27.12-32,1A3.92,3.92,0,0,1,379.06,30.25Z"/><path class="cls-1" d="M455,4a9,9,0,0,1,1.66-.13c1.79,0,2.95.39,5.38,1.86,1.47.89,2,1.53,2,2.24,0,.51-.44.89-1.15,1.09-.51.19-.64.25-.64.51-.06.06-.06.32-.06.83-.07,2.94-.07,3.26-.26,6.85l-.06,3.07-.06,2.05c11.51,2.17,19.39,6.78,19.39,11.2a1.65,1.65,0,0,1-1.6,1.72c-1.09,0-1.73-.44-3.46-2.49-3.58-4.1-8-6.78-14.33-8.7-.13,4.22-.13,5.12-.13,6V46.51c.13,2.17.13,2.17.13,2.81,0,2-.65,3.08-1.8,3.08s-2.56-1.92-2.56-3.72a6.7,6.7,0,0,1,.32-1.85c.58-2.5.58-2.88.58-12l.19-9.92c-.06-8.06,0-9.21.07-13.31l.06-2.24c0-2.37-.19-2.56-3.2-4.16L455.09,5l-.25-.12Z"/></g></g></svg>