<svg id="Layer_1" data-name="Layer 1" xmlns="http://www.w3.org/2000/svg" viewBox="0 0 1652 124"><title>recommendation-subtext</title><path d="M0,90V0H1652V27c-3.23-2-4.91.55-6.72,2.4-6.73,6.88-13.15,14.07-20.15,20.66a259.59,259.59,0,0,1-48.56,36.34c-7.12,4.08-9.55,3.85-15.65-1.8-2-1.8-3.66-2.07-4.32.88C1555,93,1560,97,1565,101.09c4,3.27,7.16,2.2,10.6-.77a42.52,42.52,0,0,1,6.24-4.1c26.51-15.82,48.7-36.22,66.07-61.81,1-1.41,2.71-2.28,4.09-3.41v93H355a51.84,51.84,0,0,1,5.79-4.42c8.27-4.68,15.13-10.52,19.62-19.24s3.87-17.77,4.17-26.82c.15-4.55-.14-9.76-2.22-13.58a24.7,24.7,0,0,1-2.85-13.81c.41-8.92,1.33-10.25,10.38-9.84,8.43.37,16.81,1.87,25.24,2.49,2.15.16,4.41-1.15,6.62-1.79-.82-2.19-1-5.2-2.58-6.37-2.38-1.79-5.71-2.34-8.66-3.36-5.9-2-11.81-4.07-17.74-6.05a23.54,23.54,0,0,0-3.54-.54c.47,1.37.65,2,.87,2.53q1,2.76,2.09,5.51c-3,.61-6,1.64-9,1.56-.8,0-2.27-3.44-2.13-5.19a54.13,54.13,0,0,1,2.34-10.67c1.37-4.66-.2-7.77-4.45-9.76-1.36-.64-2.71-1.26-4-2-4.23-2.27-8.22-1.13-10.49,2.08,2.69,4.34,5.69,8,7.27,12.12,1.17,3.11.44,6.92.68,10.4s-1.45,5.26-4.78,5.78q-5.67.88-11.32,1.89c-9.67,1.73-19.3,3.66-29,5.18-4.23.66-8.65,1.09-12.35-2.27a3.06,3.06,0,0,0-3-.06,4.17,4.17,0,0,0-.64,3.18c1.05,7.73,10.63,12.33,17.48,8.51a20.88,20.88,0,0,1,4.55-2c10.88-3,21.81-5.75,32.69-8.73,3.53-1,5.88-.44,6.53,3.62.88,5.47-.83,7.88-5.23,8.7-3.14.58-6.67,1.54-9,3.53-7.8,6.58-9.79,21.15-4.39,29.89C356.64,89,360,92.68,366.29,92c5.85-.63,7,1.64,4.61,7-4.53,10-12.33,16.24-22.13,20.57-1.6.71-2.53,2.9-3.77,4.41H201c1.48-1.31,2.75-3.11,4.48-3.87,12.74-5.62,21.29-15,24.27-28.54,2.61-11.87,4.21-24-3-35.27-3.75-5.89.14-11.92.92-17.83.12-.91,2.69-2.17,4.08-2.12,8.44.35,16.88,1,25.31,1.63,2.3.19,4.55,1.27,6.83,1.29,1.42,0,3.47-.86,4.1-2s.46-3.68-.4-4.49a22.65,22.65,0,0,0-7.25-4.69c-6.63-2.48-13.43-4.53-20.19-6.66a18.43,18.43,0,0,0-3.86-.27c4.05,7,3.46,8.54-2.74,9.61-3.82.66-6-.89-5.92-4.63a35.89,35.89,0,0,1,1.77-10.68c2.06-5.79,1.81-7.43-3.46-10.53-1.29-.76-2.66-1.38-3.94-2.16-4.59-2.8-9.14-1.56-11.75,2.52,2.58,3.18,5.65,5.75,7.08,9s1.39,7.13,1.54,10.76c.24,5.86-1.07,7-7,8.12-10.79,2-21.52,4.33-32.35,6-6.54,1-13.35,3.3-19.29-2.71-2.31-2.32-3.38.34-3.35,2.6.1,7.76,10.24,13.86,17.36,10.66A135.93,135.93,0,0,1,212,39c3.35-.45,6.17.09,6.71,4,.49,3.64-.34,7-4.64,7.47-12.8,1.43-18.39,14.77-16.45,25.59,1.91,10.64,6.86,17.21,16.14,15.87,1.61-.23,3.32.31,5,.49a30.26,30.26,0,0,1-1,5.17c-4,10.68-12.13,17.15-22.08,21.91-1.57.76-2.46,3-3.66,4.48H0V94a17,17,0,0,1,2.53,1.57c7.66,6.83,7.82,6.87,15.77,1,2.95-2.18,6.22-2.57,8.55.21,3.28,3.89,6.59,8.07,8.55,12.69,2.81,6.62,4.64,7.65,9.75,2.49A11.78,11.78,0,0,0,48,104.45c.17-7.48-.22-15-.61-22.47-.18-3.56.79-6.25,4.15-7.74,7.13-3.15,14.09-6.88,21.5-9.12a24.67,24.67,0,0,1,13.65.29c7.45,2.31,10,7.38,9.87,16-.14,8.74-4.66,16.38-11.35,18.9-10.26,3.86-22.31-.29-21.07-13.74.13-1.36-.58-2.8-1-4.78-6.54,7.33-2.56,22.4,5.92,26.32,9.29,4.3,18.07,2.32,26.12-2.71,10-6.27,13.3-16,12.38-27.56C106.44,64.31,93,56.3,81.18,57.73A68.07,68.07,0,0,0,53,67.24c-2.32,1.44-4.89,1.76-6.13-1.55-3-8.08.28-14.63,8.47-17.69A35.66,35.66,0,0,0,65,43a7.91,7.91,0,0,0,2.49-6.33c-.21-1.42-3.1-2.82-5-3.51-2.8-1-5.92-1-8.74-2-3.56-1.21-5.61-3.76-4.23-7.73,1.85-5.33-1.77-7.94-5.3-10-3.9-2.24-8.39-2.6-12.19.57-2.21,1.85-2.63,4.16.92,5.09,5.18,1.36,6.47,5.35,6.86,9.85.29,3.31,0,6.67.19,10,.18,3.95-1.82,6.87-5.29,7.47-4.77.83-9.74.53-14.62.6-1.94,0-3.89-.21-5.83-.33.5,2,.44,4.51,1.66,5.87a10.11,10.11,0,0,0,6.16,3.28c4.1.28,8.29-.36,12.42-.75,3.3-.32,5.15,1,5.32,4.33s.65,6.71.21,10c-.28,2-1.52,4.85-3.15,5.68C26.51,80.34,17.62,89.29,4.66,88.34,3.15,88.23,1.56,89.42,0,90ZM518.27,10.74c2,1.54,3.89,3,5.78,4.5,4.81,3.82,4.4,9.17,3.59,14.25-.72,4.46-5.09,4.52-8.52,5.71-6.4,2.22-12.78,4.58-18.94,7.36-2.9,1.31-4.82.69-5.59-1.83a83.51,83.51,0,0,1-2.81-13c-.9-6.38-7.14-10.85-13.27-9a4.17,4.17,0,0,0-2.59,2c-.23.64.92,1.76,1.45,2.68,2.12,3.6,4.54,7.06,6.26,10.84,1.49,3.3,1.77,7.15,3.35,10.39,1.94,4,1.95,7.17-1.38,10.34a25.83,25.83,0,0,0-3.88,5.19c-6.41,10.33-10.66,21-6.47,33.51,3.26,9.72,10.17,12.41,19.5,7.83,8.38-4.12,14.4-10.51,19.9-17.75a9,9,0,0,1,5.47-3.34c4.4-.47,5.34-2.54,3.5-6-1.72-3.22-1-5.88.31-9,3-7,5.72-14.16,8.17-21.38,1.33-3.94,3.88-5.89,7.47-4.49,4.55,1.77,9.52,3.78,12.86,7.12,13.72,13.72,9.21,41.85-8.1,53.64-8.64,5.89-18.24,9.43-28.24,12.15-1.63.44-3,1.94-4.44,3,1.77.51,3.68,1.72,5.29,1.4a201.56,201.56,0,0,0,20.31-4.92c25.32-7.89,38.51-24.56,34.19-51.14-1.44-8.83-5.91-16.07-13.87-20.28a75.62,75.62,0,0,0-16.25-5.88c-4.17-1.09-5.44-3-4.76-7.12a68.22,68.22,0,0,0,.52-8.94C537.36,11.23,524.05,5.67,518.27,10.74Zm568,102.46.72,2.2c2.12-.25,4.41-.07,6.32-.85,4.77-1.92,9.34-4.33,14-6.46,24.5-11.16,42.27-29.51,56.26-52.08,4-6.38,6-14.24,13.08-18.46a3.47,3.47,0,0,0,1.11-2.62c0-4.89-11.2-10.85-15.77-9a125.42,125.42,0,0,1-18,5.75c-4.31,1-5.6-1.3-4.08-5.48.71-2,1.36-5.62.47-6.24a92.08,92.08,0,0,0-13.61-7.39c-.76-.35-2.52.62-3.3,1.46-.33.36.38,2.24,1.09,2.93,4.22,4.08,3.6,8.39,1.4,13.24C1119,45.78,1108.68,58.83,1095.86,70c-1.18,1-1.65,2.88-2.45,4.34,1.74-.23,3.78.06,5.16-.77,13.5-8.15,23.69-19.71,33-32.23,1.3-1.76,3.27-3.81,5.21-4.15a160.21,160.21,0,0,1,18.32-1.93c4.41-.27,5.88,2.45,3.84,6.51-.53,1-1.26,2-1.76,3-14.11,29.6-36.89,50.42-65.78,65.08A55.42,55.42,0,0,0,1086.3,113.2ZM698.7,26.58l5.11,2.62c-1.12,2-1.85,4.48-3.44,6-2.83,2.79-6.2,5-9.3,7.53-3.31,2.68-6.51,2.56-10.09.31a33.8,33.8,0,0,0-7.69-3.28,3.33,3.33,0,0,0-3,.87c-.43.64.24,2,.46,3.1.52,2.5,1.88,5.13,1.47,7.47-2.85,16.39-8,32-18.45,45.24-4.48,5.69-10.2,10.39-15.23,15.66-.88.93-1.11,2.48-1.64,3.74,1.36.13,2.86.7,4,.3a19.26,19.26,0,0,0,5.18-2.92c19-14.06,29.54-33.83,37.09-55.49,1.5-4.3,3.72-7.57,7.68-9.23C701.39,44.13,712,40,722.68,35.9c2.84-1.09,3.91-2.6,2.11-5.19s-3.72-4.69-5.58-7c-3.35-4.23-7.46-5.74-12.81-4.14a47.66,47.66,0,0,1-8.84,1.53c-14.22,1.51-28.52,2.49-42.66,4.53-7.82,1.14-15.14,2.27-21.9-3-.61-.48-2.47-.51-2.68-.14a5.32,5.32,0,0,0-.75,3.57c1.58,5.67,5.42,9.49,10.75,11.68a6.18,6.18,0,0,0,4.29-.34C661.39,30.06,679.34,28.69,698.7,26.58Zm750.57,54.85c11.44-.4,13,1.34,12,8.94-1.14,8.45-1.7,9-10.21,9.46a25.32,25.32,0,0,1-3,.26c-12.87-.81-25.53,5-38.52,1.23a3.58,3.58,0,0,0-2.9,1.23c-.41.49-.07,1.93.35,2.72a11.61,11.61,0,0,0,13.43,6.15c4.53-1,8.94-2.9,13.51-3.34,12.15-1.17,24.26-4.9,36.62-1,1.23.39,3-1.14,4.6-1.79-.73-1.52-1.07-3.76-2.27-4.42-4.29-2.36-4.41-5.83-3.55-9.86s1.35-8.25,2.6-12.19c1.89-5.93,4.34-11.68,6.47-17.54.54-1.48,1.38-3.25,1-4.59-1.61-5.88-10.76-9.7-16.43-7.19-2.27,1-4.58,2.27-7,2.57-12.21,1.53-24.43,3-36.69,4-3.78.29-7.69-1.27-11.56-1.86a29.35,29.35,0,0,0-4.09-.05c0,1.41-.38,3,.1,4.2,1.87,4.69,7.1,7.09,12.32,6.22q20.42-3.44,40.86-6.66c3.2-.51,6.88.07,7,3.67.2,4.22-1.23,8.52-2.13,12.76-.07.34-1.49.47-2.3.56-11.56,1.27-23.1,2.69-34.67,3.66-4.06.34-8.21-.52-12.33-.68a20.86,20.86,0,0,0-4,.63c.25,1.4,0,3.15.81,4.12,3,3.74,6.87,4.38,11.64,3.46C1431.61,84,1442.32,82.54,1449.27,81.43ZM822.37,69.3h.25c0-4.5-.08-9,0-13.49.14-6,2.28-7.53,7.42-4.23a101.91,101.91,0,0,1,14.15,11.64c3,2.81,5.07,6.66,8.18,9.3,1.43,1.21,5.33,1.65,6.41.63,1.86-1.74,3.77-5.33,3.14-7.36a22.26,22.26,0,0,0-6.37-9.21c-7.65-6.91-17.22-9.88-27.13-11.7-4.71-.86-6.72-3.14-5.86-7.91,1.06-5.86,2.11-11.73,2.94-17.63a7.64,7.64,0,0,0-.76-4.68c-2.65-4.4-11-7.4-16-5.89-1.13.34-2.59,1.32-2.86,2.29a3.62,3.62,0,0,0,1.42,3.23c4.43,1.93,5.26,5.78,5.59,9.83a112.3,112.3,0,0,1,.37,12.44c-.65,22.79-1.47,45.57-2,68.35a12.47,12.47,0,0,0,1.9,7c1.24,1.79,3.92,3.78,5.76,3.6,1.67-.17,3.5-2.94,4.44-4.94.79-1.68.56-3.92.49-5.9C823.42,92.91,822.88,81.11,822.37,69.3ZM996.8,45.5c8.31,1,10.37,3.8,6.93,11.2a106.73,106.73,0,0,1-9.45,16.39,97.7,97.7,0,0,1-45.88,35.55c-1,.4-1.71,1.74-2.55,2.65,1.22.55,2.44,1.55,3.65,1.55a16.2,16.2,0,0,0,5.34-1.19c18.76-7,35.35-17.24,47.53-33.41,7.06-9.38,13.33-19.36,19.71-29.23.71-1.1.37-3.68-.48-4.86-5.11-7.15-10.08-8.41-18.49-5.23a18.26,18.26,0,0,1-4.32,1.2C983.91,41.84,969,43.69,954.13,45c-3,.26-6.26-1.63-9.4-2.47-1.3-.35-2.65-.54-4-.8-.14,1.42-.69,2.94-.35,4.23,1.84,7,9.48,10.32,16.56,8.52C970.15,51.12,983.51,48.46,996.8,45.5Zm346.11-17.16-1.69-.77c-1.07,1-2.21,1.85-3.19,2.89-11.2,11.81-21.93,24.1-33.7,35.32a140.65,140.65,0,0,1-36.15,25.44c-5.86,2.8-12.09,3.89-17.7-1.35-.85-.79-3.15-1.22-3.85-.65-.85.68-1.43,3.07-.89,3.89a97.88,97.88,0,0,0,9.47,12.47c2.51,2.68,5.86,2.32,9.16.38,14.94-8.77,29.34-18.17,42.37-29.74a164.47,164.47,0,0,0,34.88-42.66C1342.46,32.05,1342.5,30.09,1342.91,28.34Zm-379.1.23.81-1.2c.66,0,1.33,0,2-.12Q981.9,25,997.17,22.7a53.87,53.87,0,0,0,7.85-1.35c1.58-.49,2.9-1.87,4.33-2.85-1-1.4-1.79-3.59-3.14-4-3.32-1.12-7.05-2.38-10.37-1.88-9,1.35-17.79,3.93-26.77,5.32-4.06.62-8.38-.51-12.59-.71a22.79,22.79,0,0,0-4,.5c.32,1.37.17,3.35,1,4C956.77,24.22,960.35,26.32,963.81,28.57ZM100.75,33.9c-2.4.52-6.33,1.21-10.15,2.31-1.16.34-2,1.81-3,2.77,1.39.43,2.91,1.45,4.16,1.19,8.69-1.74,14.83,2.25,19.89,8.58,1.54,1.93,2.47,4.33,3.81,6.43,2.66,4.19,5.85,4.33,8.24,0a10.19,10.19,0,0,0,.9-6.57C122.69,39.7,113.67,33.92,100.75,33.9ZM1556.91,25l-.6,1.62a29.82,29.82,0,0,0,4.81,2.92c7.08,2.68,12,7.63,15.29,14.27,1.74,3.49,4.94,4.82,7.79,3.14,2-1.16,4-5.12,3.41-7.07a19.6,19.6,0,0,0-6.27-9.06A28.15,28.15,0,0,0,1556.91,25Zm-301.16-3.37a40,40,0,0,1,19.72,16.26c2,3.22,5,4.33,8.52,2,3.19-2.12,4.45-6.48,1.68-9.56a34,34,0,0,0-11.11-8.56A22.67,22.67,0,0,0,1255.75,21.65ZM1246,44.06l-4,1.87c1,1.17,1.77,2.9,3,3.41,6.9,2.82,10.62,8.74,15,14.21,1.17,1.47,5.19,2.78,6,2.07a12.6,12.6,0,0,0,3.67-7.27c.2-1.68-1.71-3.87-3.13-5.42C1261.19,47.21,1254.08,45.55,1246,44.06Z" transform="translate(0)" fill="#fff"/><path d="M0,90c1.56-.58,3.15-1.77,4.66-1.66,13,1,21.85-8,32.21-13.24,1.63-.83,2.87-3.63,3.15-5.68.44-3.25,0-6.63-.21-10s-2-4.65-5.32-4.33c-4.13.39-8.32,1-12.42.75a10.11,10.11,0,0,1-6.16-3.28c-1.22-1.36-1.16-3.87-1.66-5.87,1.94.12,3.89.37,5.83.33,4.88-.07,9.85.23,14.62-.6,3.47-.6,5.47-3.52,5.29-7.47-.16-3.32.1-6.68-.19-10-.39-4.5-1.68-8.49-6.86-9.85-3.55-.93-3.13-3.24-.92-5.09,3.8-3.17,8.29-2.81,12.19-.57,3.53,2,7.15,4.64,5.3,10-1.38,4,.67,6.52,4.23,7.73,2.82.95,5.94,1,8.74,2,1.94.69,4.83,2.09,5,3.51A7.91,7.91,0,0,1,65,43a35.66,35.66,0,0,1-9.66,5c-8.19,3.06-11.49,9.61-8.47,17.69,1.24,3.31,3.81,3,6.13,1.55a68.07,68.07,0,0,1,28.15-9.51C93,56.3,106.44,64.31,107.5,77.8c.92,11.56-2.34,21.29-12.38,27.56-8.05,5-16.83,7-26.12,2.71-8.48-3.92-12.46-19-5.92-26.32.45,2,1.16,3.42,1,4.78-1.24,13.45,10.81,17.6,21.07,13.74,6.69-2.52,11.21-10.16,11.35-18.9.14-8.58-2.42-13.65-9.87-16A24.67,24.67,0,0,0,73,65.12c-7.41,2.24-14.37,6-21.5,9.12-3.36,1.49-4.33,4.18-4.15,7.74.39,7.48.78,15,.61,22.47a11.78,11.78,0,0,1-2.82,7.49c-5.11,5.16-6.94,4.13-9.75-2.49-2-4.62-5.27-8.8-8.55-12.69-2.33-2.78-5.6-2.39-8.55-.21-8,5.89-8.11,5.85-15.77-1A17,17,0,0,0,0,94Zm42,.14-4.39-8-9.43,8.07,9.23,8.18Zm4.37-52.45c1.75,1.68,3.18,3.86,4,3.65,1.54-.42,2.71-2.16,4-3.35l-4-4.36Z" transform="translate(0)"/><path d="M192,124c1.2-1.53,2.09-3.72,3.66-4.48,10-4.76,18.1-11.23,22.08-21.91a30.26,30.26,0,0,0,1-5.17c-1.66-.18-3.37-.72-5-.49-9.28,1.34-14.23-5.23-16.14-15.87-1.94-10.82,3.65-24.16,16.45-25.59,4.3-.48,5.13-3.83,4.64-7.47-.54-3.94-3.36-4.48-6.71-4a135.93,135.93,0,0,0-37.74,10.84c-7.12,3.2-17.26-2.9-17.36-10.66,0-2.26,1-4.92,3.35-2.6,5.94,6,12.75,3.73,19.29,2.71,10.83-1.7,21.56-4.07,32.35-6,5.93-1.08,7.24-2.26,7-8.12-.15-3.63-.14-7.55-1.54-10.76s-4.5-5.86-7.08-9C212.85,1.25,217.4,0,222,2.81c1.28.78,2.65,1.4,3.94,2.16,5.27,3.1,5.52,4.74,3.46,10.53a35.89,35.89,0,0,0-1.77,10.68c-.13,3.74,2.1,5.29,5.92,4.63,6.2-1.07,6.79-2.59,2.74-9.61a18.43,18.43,0,0,1,3.86.27c6.76,2.13,13.56,4.18,20.19,6.66a22.65,22.65,0,0,1,7.25,4.69c.86.81,1,3.36.4,4.49s-2.68,2-4.1,2c-2.28,0-4.53-1.1-6.83-1.29-8.43-.68-16.87-1.28-25.31-1.63-1.39,0-4,1.21-4.08,2.12-.78,5.91-4.67,11.94-.92,17.83,7.22,11.31,5.62,23.4,3,35.27-3,13.5-11.53,22.92-24.27,28.54-1.73.76-3,2.56-4.48,3.87Zm11.23-51.79c1.54,3.38,2.68,7,4.74,10.07s5.75,2.72,7-.27c2.86-6.84,5.18-14.08,2.16-21.62-1.35-3.37-3.74-4-6.77-2C205.57,61.6,204.16,66.38,203.23,72.21Z" transform="translate(0)"/><path d="M345,124c1.24-1.51,2.17-3.7,3.77-4.41,9.8-4.33,17.6-10.59,22.13-20.57,2.43-5.36,1.24-7.63-4.61-7-6.26.66-9.65-3-12.43-7.51-5.4-8.74-3.41-23.31,4.39-29.89,2.35-2,5.88-2.95,9-3.53,4.4-.82,6.11-3.23,5.23-8.7-.65-4.06-3-4.59-6.53-3.62-10.88,3-21.81,5.78-32.69,8.73a20.88,20.88,0,0,0-4.55,2c-6.85,3.82-16.43-.78-17.48-8.51a4.17,4.17,0,0,1,.64-3.18,3.06,3.06,0,0,1,3,.06c3.7,3.36,8.12,2.93,12.35,2.27,9.7-1.52,19.33-3.45,29-5.18q5.64-1,11.32-1.89c3.33-.52,5-2.27,4.78-5.78s.49-7.29-.68-10.4c-1.58-4.16-4.58-7.78-7.27-12.12,2.27-3.21,6.26-4.35,10.49-2.08,1.32.71,2.67,1.33,4,2,4.25,2,5.82,5.1,4.45,9.76a54.13,54.13,0,0,0-2.34,10.67c-.14,1.75,1.33,5.16,2.13,5.19,3,.08,6-.95,9-1.56Q391.14,26,390.1,23.2c-.22-.57-.4-1.16-.87-2.53a23.54,23.54,0,0,1,3.54.54c5.93,2,11.84,4,17.74,6.05,2.95,1,6.28,1.57,8.66,3.36,1.57,1.17,1.76,4.18,2.58,6.37-2.21.64-4.47,1.95-6.62,1.79-8.43-.62-16.81-2.12-25.24-2.49-9.05-.41-10,.92-10.38,9.84a24.7,24.7,0,0,0,2.85,13.81c2.08,3.82,2.37,9,2.22,13.58-.3,9,.27,18.21-4.17,26.82s-11.35,14.56-19.62,19.24A51.84,51.84,0,0,0,355,124Zm27.76-55.72-.83-.24c0-1.16.38-2.5-.07-3.46-1.16-2.51-2.68-4.85-4.06-7.26-2.45,1.41-5.88,2.22-7.17,4.34-3.88,6.39-3.89,13.33-.06,19.91,2.22,3.81,6.87,3.6,8.52-.54S371.57,72.54,372.76,68.28Z" transform="translate(0)"/><path d="M1652,31c-1.38,1.13-3.13,2-4.09,3.41-17.37,25.59-39.56,46-66.07,61.81a42.52,42.52,0,0,0-6.24,4.1c-3.44,3-6.62,4-10.6.77-5-4.11-10-8.08-8.4-15.61.66-3,2.37-2.68,4.32-.88,6.1,5.65,8.53,5.88,15.65,1.8a259.59,259.59,0,0,0,48.56-36.34c7-6.59,13.42-13.78,20.15-20.66,1.81-1.85,3.49-4.37,6.72-2.4Z" transform="translate(0)"/><path d="M518.27,10.74c5.78-5.07,19.09.49,18.81,7.79a68.22,68.22,0,0,1-.52,8.94c-.68,4.08.59,6,4.76,7.12a75.62,75.62,0,0,1,16.25,5.88c8,4.21,12.43,11.45,13.87,20.28,4.32,26.58-8.87,43.25-34.19,51.14a201.56,201.56,0,0,1-20.31,4.92c-1.61.32-3.52-.89-5.29-1.4,1.47-1,2.81-2.52,4.44-3,10-2.72,19.6-6.26,28.24-12.15,17.31-11.79,21.82-39.92,8.1-53.64-3.34-3.34-8.31-5.35-12.86-7.12-3.59-1.4-6.14.55-7.47,4.49-2.45,7.22-5.21,14.35-8.17,21.38-1.3,3.09-2,5.75-.31,9,1.84,3.45.9,5.52-3.5,6a9,9,0,0,0-5.47,3.34c-5.5,7.24-11.52,13.63-19.9,17.75-9.33,4.58-16.24,1.89-19.5-7.83-4.19-12.49.06-23.18,6.47-33.51a25.83,25.83,0,0,1,3.88-5.19c3.33-3.17,3.32-6.35,1.38-10.34-1.58-3.24-1.86-7.09-3.35-10.39-1.72-3.78-4.14-7.24-6.26-10.84-.53-.92-1.68-2-1.45-2.68a4.17,4.17,0,0,1,2.59-2c6.13-1.82,12.37,2.65,13.27,9a83.51,83.51,0,0,0,2.81,13c.77,2.52,2.69,3.14,5.59,1.83,6.16-2.78,12.54-5.14,18.94-7.36,3.43-1.19,7.8-1.25,8.52-5.71.81-5.08,1.22-10.43-3.59-14.25C522.16,13.74,520.24,12.28,518.27,10.74ZM491.3,93c1.08-.47,3.44-1,5.2-2.35a100.63,100.63,0,0,0,9.68-8.55c3.86-3.82,3.37-6.11-.79-9.84a66.36,66.36,0,0,1-8.67-9.45c-3.1-4.1-5.94-4.61-8.18-.08a89.63,89.63,0,0,0-6.85,18.43A9.8,9.8,0,0,0,491.3,93Zm8-40.63c.26,1.4.17,2.24.54,2.67,3.74,4.36,7.41,8.8,11.52,12.8.58.56,4.44-.71,5-1.94A175,175,0,0,0,524.2,46c1.69-5.34-1.1-7.88-6.32-5.72a131.17,131.17,0,0,0-15.81,8.25C500.71,49.37,500,51.33,499.33,52.36Z" transform="translate(0)"/><path d="M1086.3,113.2a55.42,55.42,0,0,1,5.06-3.29c28.89-14.66,51.67-35.48,65.78-65.08.5-1,1.23-2,1.76-3,2-4.06.57-6.78-3.84-6.51a160.21,160.21,0,0,0-18.32,1.93c-1.94.34-3.91,2.39-5.21,4.15-9.27,12.52-19.46,24.08-33,32.23-1.38.83-3.42.54-5.16.77.8-1.46,1.27-3.3,2.45-4.34,12.82-11.21,23.13-24.26,30.21-39.84,2.2-4.85,2.82-9.16-1.4-13.24-.71-.69-1.42-2.57-1.09-2.93.78-.84,2.54-1.81,3.3-1.46A92.08,92.08,0,0,1,1140.49,20c.89.62.24,4.27-.47,6.24-1.52,4.18-.23,6.51,4.08,5.48a125.42,125.42,0,0,0,18-5.75c4.57-1.85,15.78,4.11,15.77,9a3.47,3.47,0,0,1-1.11,2.62c-7.12,4.22-9.12,12.08-13.08,18.46-14,22.57-31.76,40.92-56.26,52.08-4.69,2.13-9.26,4.54-14,6.46-1.91.78-4.2.6-6.32.85Z" transform="translate(0)"/><path d="M698.7,26.58c-19.36,2.11-37.31,3.48-54.09,10.78a6.18,6.18,0,0,1-4.29.34c-5.33-2.19-9.17-6-10.75-11.68a5.32,5.32,0,0,1,.75-3.57c.21-.37,2.07-.34,2.68.14,6.76,5.27,14.08,4.14,21.9,3,14.14-2,28.44-3,42.66-4.53a47.66,47.66,0,0,0,8.84-1.53c5.35-1.6,9.46-.09,12.81,4.14,1.86,2.35,3.88,4.58,5.58,7s.73,4.1-2.11,5.19C712,40,701.39,44.13,690.87,48.54c-4,1.66-6.18,4.93-7.68,9.23-7.55,21.66-18.11,41.43-37.09,55.49a19.26,19.26,0,0,1-5.18,2.92c-1.17.4-2.67-.17-4-.3.53-1.26.76-2.81,1.64-3.74,5-5.27,10.75-10,15.23-15.66,10.44-13.22,15.6-28.85,18.45-45.24.41-2.34-1-5-1.47-7.47-.22-1.06-.89-2.46-.46-3.1a3.33,3.33,0,0,1,3-.87A33.8,33.8,0,0,1,681,43.08c3.58,2.25,6.78,2.37,10.09-.31,3.1-2.51,6.47-4.74,9.3-7.53,1.59-1.56,2.32-4,3.44-6Z" transform="translate(0)"/><path d="M1449.27,81.43c-7,1.11-17.66,2.58-28.26,4.63-4.77.92-8.64.28-11.64-3.46-.77-1-.56-2.72-.81-4.12a20.86,20.86,0,0,1,4-.63c4.12.16,8.27,1,12.33.68,11.57-1,23.11-2.39,34.67-3.66.81-.09,2.23-.22,2.3-.56.9-4.24,2.33-8.54,2.13-12.76-.17-3.6-3.85-4.18-7-3.67q-20.45,3.25-40.86,6.66c-5.22.87-10.45-1.53-12.32-6.22-.48-1.22-.09-2.79-.1-4.2a29.35,29.35,0,0,1,4.09.05c3.87.59,7.78,2.15,11.56,1.86,12.26-1,24.48-2.46,36.69-4,2.39-.3,4.7-1.57,7-2.57,5.67-2.51,14.82,1.31,16.43,7.19.36,1.34-.48,3.11-1,4.59-2.13,5.86-4.58,11.61-6.47,17.54-1.25,3.94-1.74,8.13-2.6,12.19s-.74,7.5,3.55,9.86c1.2.66,1.54,2.9,2.27,4.42-1.55.65-3.37,2.18-4.6,1.79-12.36-3.87-24.47-.14-36.62,1-4.57.44-9,2.32-13.51,3.34a11.61,11.61,0,0,1-13.43-6.15c-.42-.79-.76-2.23-.35-2.72a3.58,3.58,0,0,1,2.9-1.23c13,3.74,25.65-2,38.52-1.23a25.32,25.32,0,0,0,3-.26c8.51-.5,9.07-1,10.21-9.46C1462.28,82.77,1460.71,81,1449.27,81.43Z" transform="translate(0)"/><path d="M822.37,69.3c.51,11.81,1,23.61,1.5,35.41.07,2,.3,4.22-.49,5.9-.94,2-2.77,4.77-4.44,4.94-1.84.18-4.52-1.81-5.76-3.6a12.47,12.47,0,0,1-1.9-7c.57-22.78,1.39-45.56,2-68.35A112.3,112.3,0,0,0,813,24.11c-.33-4.05-1.16-7.9-5.59-9.83a3.62,3.62,0,0,1-1.42-3.23c.27-1,1.73-2,2.86-2.29,5-1.51,13.31,1.49,16,5.89a7.64,7.64,0,0,1,.76,4.68c-.83,5.9-1.88,11.77-2.94,17.63-.86,4.77,1.15,7,5.86,7.91,9.91,1.82,19.48,4.79,27.13,11.7a22.26,22.26,0,0,1,6.37,9.21c.63,2-1.28,5.62-3.14,7.36-1.08,1-5,.58-6.41-.63-3.11-2.64-5.18-6.49-8.18-9.3a101.91,101.91,0,0,0-14.15-11.64c-5.14-3.3-7.28-1.8-7.42,4.23-.1,4.49,0,9,0,13.49Z" transform="translate(0)"/><path d="M996.8,45.5c-13.29,3-26.65,5.62-39.83,9-7.08,1.8-14.72-1.53-16.56-8.52-.34-1.29.21-2.81.35-4.23,1.32.26,2.67.45,4,.8,3.14.84,6.36,2.73,9.4,2.47,14.91-1.31,29.78-3.16,44.66-4.88a18.26,18.26,0,0,0,4.32-1.2c8.41-3.18,13.38-1.92,18.49,5.23.85,1.18,1.19,3.76.48,4.86-6.38,9.87-12.65,19.85-19.71,29.23-12.18,16.17-28.77,26.43-47.53,33.41a16.2,16.2,0,0,1-5.34,1.19c-1.21,0-2.43-1-3.65-1.55.84-.91,1.52-2.25,2.55-2.65a97.7,97.7,0,0,0,45.88-35.55,106.73,106.73,0,0,0,9.45-16.39C1007.17,49.3,1005.11,46.55,996.8,45.5Z" transform="translate(0)"/><path d="M1342.91,28.34c-.41,1.75-.45,3.71-1.29,5.22a164.47,164.47,0,0,1-34.88,42.66c-13,11.57-27.43,21-42.37,29.74-3.3,1.94-6.65,2.3-9.16-.38a97.88,97.88,0,0,1-9.47-12.47c-.54-.82,0-3.21.89-3.89.7-.57,3-.14,3.85.65,5.61,5.24,11.84,4.15,17.7,1.35a140.65,140.65,0,0,0,36.15-25.44c11.77-11.22,22.5-23.51,33.7-35.32,1-1,2.12-1.93,3.19-2.89Z" transform="translate(0)"/><path d="M963.81,28.57c-3.46-2.25-7-4.35-10.29-6.87-.87-.66-.72-2.64-1-4a22.79,22.79,0,0,1,4-.5c4.21.2,8.53,1.33,12.59.71,9-1.39,17.79-4,26.77-5.32,3.32-.5,7,.76,10.37,1.88,1.35.45,2.11,2.64,3.14,4-1.43,1-2.75,2.36-4.33,2.85a53.87,53.87,0,0,1-7.85,1.35q-15.28,2.3-30.56,4.55c-.66.1-1.33.08-2,.12Z" transform="translate(0)"/><path d="M100.75,33.9c12.92,0,21.94,5.8,23.87,14.72a10.19,10.19,0,0,1-.9,6.57c-2.39,4.32-5.58,4.18-8.24,0-1.34-2.1-2.27-4.5-3.81-6.43-5.06-6.33-11.2-10.32-19.89-8.58-1.25.26-2.77-.76-4.16-1.19,1-1,1.82-2.43,3-2.77C94.42,35.11,98.35,34.42,100.75,33.9Z" transform="translate(0)"/><path d="M1556.91,25a28.15,28.15,0,0,1,24.43,5.82,19.6,19.6,0,0,1,6.27,9.06c.58,2-1.44,5.91-3.41,7.07-2.85,1.68-6,.35-7.79-3.14-3.29-6.64-8.21-11.59-15.29-14.27a29.82,29.82,0,0,1-4.81-2.92Z" transform="translate(0)"/><path d="M1255.75,21.65a22.67,22.67,0,0,1,18.81.12,34,34,0,0,1,11.11,8.56c2.77,3.08,1.51,7.44-1.68,9.56-3.51,2.35-6.49,1.24-8.52-2A40,40,0,0,0,1255.75,21.65Z" transform="translate(0)"/><path d="M1246,44.06c8.11,1.49,15.22,3.15,20.47,8.87,1.42,1.55,3.33,3.74,3.13,5.42a12.6,12.6,0,0,1-3.67,7.27c-.76.71-4.78-.6-6-2.07-4.35-5.47-8.07-11.39-15-14.21-1.27-.51-2-2.24-3-3.41Z" transform="translate(0)"/><path d="M42,90.14l-4.59,8.23-9.23-8.18,9.43-8.07Z" transform="translate(0)" fill="#fff"/><path d="M46.41,37.69l4-4.06,4,4.36c-1.33,1.19-2.5,2.93-4,3.35C49.59,41.55,48.16,39.37,46.41,37.69Z" transform="translate(0)" fill="#fff"/><path d="M203.23,72.21c.93-5.83,2.34-10.61,7.12-13.81,3-2,5.42-1.38,6.77,2,3,7.54.7,14.78-2.16,21.62-1.24,3-5,3.17-7,.27S204.77,75.59,203.23,72.21Z" transform="translate(0)" fill="#fff"/><path d="M372.76,68.28c-1.19,4.26-2,8.67-3.67,12.75s-6.3,4.35-8.52.54c-3.83-6.58-3.82-13.52.06-19.91,1.29-2.12,4.72-2.93,7.17-4.34,1.38,2.41,2.9,4.75,4.06,7.26.45,1,.07,2.3.07,3.46Z" transform="translate(0)" fill="#fff"/><path d="M491.3,93a9.8,9.8,0,0,1-9.61-11.84,89.63,89.63,0,0,1,6.85-18.43c2.24-4.53,5.08-4,8.18.08a66.36,66.36,0,0,0,8.67,9.45c4.16,3.73,4.65,6,.79,9.84a100.63,100.63,0,0,1-9.68,8.55C494.74,92,492.38,92.52,491.3,93Z" transform="translate(0)" fill="#fff"/><path d="M499.33,52.36c.71-1,1.38-3,2.74-3.79a131.17,131.17,0,0,1,15.81-8.25c5.22-2.16,8,.38,6.32,5.72a175,175,0,0,1-7.8,19.85c-.57,1.23-4.43,2.5-5,1.94-4.11-4-7.78-8.44-11.52-12.8C499.5,54.6,499.59,53.76,499.33,52.36Z" transform="translate(0)" fill="#fff"/></svg>