<svg xmlns="http://www.w3.org/2000/svg" viewBox="0 0 826 62"><title>recommend</title><path d="M826,15V62H178c.24-.43.38-1,.74-1.26,14.32-10.2,16.11-15.52,11.24-33.4-1.82-6.67.15-9.35,7.06-9.23,3,.05,5.94.73,8.92.84a24,24,0,0,0,4.84-.77c-1.35-1.4-2.44-3.44-4.09-4.09-3.5-1.38-7.28-2-10.7-2.93-.29,1.12-.25,2.85-1.07,3.5s-3.13.6-3.58,0c-.74-1-.56-2.73-.62-4.16,0-.63.56-1.33.45-1.91-.4-2-.35-4.77-1.64-5.89-1.93-1.7-4.89-2.86-7.61.36,5.1,2.68,4.74,7.49,3.71,11.44-.4,1.56-5,2.08-7.63,3a12.61,12.61,0,0,1-2.45.46l-19.42,2.47c0,3.72,3.28,6.1,7.75,4.62,6-2,12-3.77,18.12-5.27,1.18-.3,2.77,1.09,4.18,1.71a24.61,24.61,0,0,1-3,4c-1.92,1.68-4.84,2.6-6.08,4.61-4.44,7.17-.44,14.63,8.95,16.61-.87,5.55-4.36,9-8.87,11.75A33.36,33.36,0,0,0,173,62H101a8.91,8.91,0,0,1,1.6-1.83C115.38,52,118.79,41.81,113.3,28c-2.28-5.72.34-10,6.23-9.89,3.14.06,6.27.79,9.41.87,1.69,0,3.4-.66,5.11-1-1.28-1.3-2.34-3.18-3.89-3.78a109.43,109.43,0,0,0-10.88-3.11c-.24,1.2-.15,2.75-.88,3.61-.53.64-2.7.9-3.14.41a6.57,6.57,0,0,1-1.39-3.86c-.07-1.26.92-2.58.83-3.83a10.45,10.45,0,0,0-1.41-4.58C112.55,1.66,111.12.93,110,0H826V13a45.24,45.24,0,0,0-4.44,3c-9.62,8.14-19.08,16.47-28.84,24.45-4.06,3.32-8.62,6.69-13.85,1.09-.69,4.82.23,6.41,3.51,9,2.86,2.22,4.64.24,6.6-1.14,5.84-4.12,12.15-7.76,17.28-12.64C813.32,30,819.46,22.28,826,15ZM255.19,57.6c8.21,1.53,20.63-3.21,26.12-9.17,7.47-8.12,7.61-27.79-9-30.77-3.27-.59-4.3-1.9-3.9-5.39.71-6.3-2.74-8.88-8.71-6.91a31.83,31.83,0,0,1,3.1,3.17c2.21,3,1.49,7.41-1.48,8.51-4.3,1.59-8.72,2.87-13.83,4.53-.56-2.42-1.24-4.73-1.61-7.09-.74-4.67-2.78-5.83-7.62-4a7.74,7.74,0,0,0,.68,1.24c4.86,6,4.9,12.64,1.61,19.18-2.07,4.11-3.54,9.14-3.28,13.65.41,7.16,4.85,9,11.11,5.45,2.55-1.45,4.68-3.66,6.91-5.62s4.16-3.87,6.23-5.81c.62-4.88,2.27-9.56,3.91-14.24,1.85-5.28,3.53-6,8.22-2.84a15.28,15.28,0,0,1,4.9,5.4c4.37,8.55.07,20.24-9.26,25C265.1,54,260.51,55.48,255.19,57.6ZM569.83,16.19c1-7.45-1.64-10.23-7.06-9.37,2.84,14.38-9.52,20.89-15.64,30.55,7.27-3.22,12.45-8.65,17.09-14.74,3.37-4.41,9.39-5.94,15.92-3.76C573.1,36.55,559.71,48,543.55,57c1.25.43,2.35.68,3.05.26,7.77-4.69,16.49-8.42,22.95-14.53,7.57-7.18,13.16-16.45,19.83-25.1-2.92-3.28-4.83-6.71-10-3.83C576.72,15.26,573.28,15.37,569.83,16.19ZM336.6,20.05c-1.22,15.53-6.67,28-17.93,38.07a19,19,0,0,0,7.4-4c7.39-6.59,11.57-15.23,15.41-24.16a14.77,14.77,0,0,1,6-6.47c4.81-2.71,10.08-4.62,15.16-6.86-3.42-6.77-4.81-7.22-11.53-6.52-11.87,1.25-23.68,4.71-35.75,1.63.14,5.27,3.3,7.55,8.05,6.46,7.74-1.79,15.57-3.2,23.4-4.59,1.59-.28,3.33.26,5.74.49C348.06,21.21,343.2,24.36,336.6,20.05ZM703.5,51.49c1.5,4.59,4.59,4.41,8.61,3.84,7.33-1,14.77-1.29,22.16-1.88,1.06-.09,2.1-.25,3.41-.41-1.22-2.4-3.23-4.47-3-6.23.7-5.06,2.37-10,3.54-15,.37-1.56,1.06-4.12.39-4.63-1.79-1.36-4.5-3-6.38-2.51-10,2.39-20,4.3-30.6,2.35.55,4.61,3.27,5.58,7,5,6.25-.95,12.48-2.17,18.76-2.78,1.49-.14,4.22,1.44,4.53,2.68.62,2.46.45,5.29-3.63,5.56-7.9.54-15.76,1.47-23.88,2.27.81,3.48,3.31,3.59,6.35,3.09,4.92-.81,9.87-1.53,14.83-2.08,2.27-.24,5.1-.53,5,3.05,0,3-.29,6-4.71,6.13C718.57,50.25,711.19,51,703.5,51.49ZM411.4,24.31c2.85,1.36,4.86,1.84,6.19,3.05,2.69,2.45,4.87,5.45,7.56,7.89,1,.91,2.85.88,4.31,1.28.34-1.6,1.24-3.33.89-4.76a6.75,6.75,0,0,0-3-3.75c-3.29-1.87-6.68-4.1-10.29-4.74-5.36-1-6.57-3.54-5.34-8.27a9.3,9.3,0,0,0,.36-3.46c-.26-1.91-.23-4.64-1.4-5.46-1.9-1.31-4.68-1.34-7.41-2,1.51,4.25,3.24,7.06,3.38,10,.35,7,0,14-.16,21-.16,6-.75,12-.57,18,.05,1.62,2.19,3.18,3.37,4.76.89-1.55,2.44-3.06,2.54-4.67.25-3.63-.31-7.3-.36-11C411.34,36.56,411.4,31,411.4,24.31Zm62.15,31.1.23,1.09a36.9,36.9,0,0,0,5.08-1.23c11-4.37,20-11.22,26-21.57,1.35-2.29,2.76-4.56,4-6.93.77-1.53,2-4.44,1.67-4.67-2.16-1.44-5-3.56-7.08-3.13-11,2.22-21.84,4.74-33.14,2.23,1,5.56,3.56,7.06,8.56,5.87,6.14-1.47,12.34-2.75,18.58-3.68,5-.74,6.75,1.5,4,5.58a112.73,112.73,0,0,1-14.25,17.7C483.43,50.37,478.15,52.55,473.55,55.41ZM671.72,15.07l-1.09-.79c-.8.67-1.63,1.3-2.38,2-8,7.69-15.7,15.82-24.22,22.92C638.31,44,632.11,50,623.27,44.39c.34,7,4.79,10.68,9.27,8.23,13.32-7.26,25-16.5,33.9-28.94C668.4,21,670,18,671.72,15.07ZM504.31,10.45c0-.89,0-1.78,0-2.67-9.24-4-18.51,4.41-28.11,1.34,1.51,2.08,3.46,4.46,5.21,4.32C489.06,12.84,496.67,11.51,504.31,10.45Zm274.41,2.18c3.3,3,6,5.85,9.07,8.28,1.39,1.12,3.36,1.51,5.07,2.23-.17-2.08.44-4.82-.65-6.11C788.84,13,784.24,11.51,778.72,12.63ZM628.6,10.27c3.06,2.8,5.54,5.39,8.35,7.53,1.41,1.07,4.14,2.37,5,1.75,2.83-1.91,1.36-4.52-.58-6.23C637.87,10.19,633.59,9.37,628.6,10.27Zm-6.43,12.65c2.32,2.64,4.73,5.66,7.49,8.33.86.84,2.67.71,4.05,1,.16-1.49.9-3.24.38-4.43C632.42,24.05,626.06,21.84,622.17,22.92Z" fill="#fff"/><path d="M96,62H0V47c3,2.74,6,4.82,9.89,1.09.59-.56,3.61.37,4.51,1.44,2,2.33,3.31,5.21,5.8,9.35,1.54-2.91,3.31-5,3.67-7.24.51-3.24-.22-6.65,0-10,.08-1.48.69-3.73,1.73-4.23,4.3-2.07,8.72-4.21,13.34-5.17a7.43,7.43,0,0,1,9.28,6.14c.9,5.62-1.85,10.64-6.56,12-5.25,1.5-8.8-.81-9.62-6.22a34.54,34.54,0,0,0-1.08-3.67c-1.55,5.36-1.36,9.1,1.66,12,3.36,3.21,7.46,3.07,11.69,1.66a14,14,0,0,0,9.29-16.65c-1.37-6.13-7.58-9.71-14.92-8.19a91.69,91.69,0,0,0-10.4,3.33c-1.31.44-2.59,1-3.92,1.52-2.1-6.87-1.57-8,4.18-10.42a6.13,6.13,0,0,0,2.22-1.08,49.57,49.57,0,0,0,3.1-4.07c-1.34-.76-2.59-1.91-4-2.2-3.33-.67-5.43-1.67-5.17-5.83.09-1.36-2.34-3.51-4.06-4.16-1.43-.54-3.49.59-5.28,1V8.74c5.81,2.28,5.58,7.37,4.38,11.45-1.92,6.49-8,2.86-12.43,3.33.4,5,3.77,4.36,7,4.49,1.89.08,5.26.68,5.36,1.4.42,3.17,2.13,7.16-2.59,9L0,45V0H108l-3.16,2.8a17.54,17.54,0,0,1,2.57,1.94c3,3.42,2.6,11.24-.69,11.57-9.3,1-18.25,6.12-28,2.32.84,6.07,3.76,7.78,9,6a162.49,162.49,0,0,1,16.73-4.75c1.38-.31,3.16,1.16,4.75,1.82-1.18,1.31-2.12,3.28-3.58,3.82-4.35,1.6-6.29,4.72-6.82,9-.85,6.89,2.06,10.2,10.69,12.12-1.33,5.52-4.7,9.3-9.55,12A27.29,27.29,0,0,0,96,62ZM44.59,19.38c6-.18,10.17,2.37,12.91,7.6.45.87,2,1.18,3,1.75.65-1.22,2.11-2.75,1.79-3.61-.82-2.19-2-4.81-3.84-5.95C54.12,16.47,49.31,16.07,44.59,19.38Z" fill="#fff"/><path d="M0,45l17-6.6c4.72-1.83,3-5.82,2.59-9-.1-.72-3.47-1.32-5.36-1.4-3.18-.13-6.55.49-6.95-4.49,4.45-.47,10.51,3.16,12.43-3.33,1.2-4.08,1.43-9.17-4.38-11.45V7.4c1.79-.39,3.85-1.52,5.28-1,1.72.65,4.15,2.8,4.06,4.16-.26,4.16,1.84,5.16,5.17,5.83,1.43.29,2.68,1.44,4,2.2a49.57,49.57,0,0,1-3.1,4.07,6.13,6.13,0,0,1-2.22,1.08c-5.75,2.38-6.28,3.55-4.18,10.42,1.33-.52,2.61-1.08,3.92-1.52a91.69,91.69,0,0,1,10.4-3.33c7.34-1.52,13.55,2.06,14.92,8.19a14,14,0,0,1-9.29,16.65c-4.23,1.41-8.33,1.55-11.69-1.66-3-2.9-3.21-6.64-1.66-12A34.54,34.54,0,0,1,32,44.18c.82,5.41,4.37,7.72,9.62,6.22,4.71-1.34,7.46-6.36,6.56-12a7.43,7.43,0,0,0-9.28-6.14c-4.62,1-9,3.1-13.34,5.17-1,.5-1.65,2.75-1.73,4.23-.18,3.31.55,6.72,0,10-.36,2.28-2.13,4.33-3.67,7.24-2.49-4.14-3.83-7-5.8-9.35-.9-1.07-3.92-2-4.51-1.44C6,51.82,3,49.74,0,47Zm19.81-5.06-6.59,5.45,6.59,4.28Z"/><path d="M96,62a27.29,27.29,0,0,1,4-3.35c4.85-2.74,8.22-6.52,9.55-12C100.9,44.69,98,41.38,98.84,34.49c.53-4.25,2.47-7.37,6.82-9,1.46-.54,2.4-2.51,3.58-3.82-1.59-.66-3.37-2.13-4.75-1.82a162.49,162.49,0,0,0-16.73,4.75c-5.24,1.78-8.16.07-9-6,9.71,3.8,18.66-1.36,28-2.32,3.29-.33,3.67-8.15.69-11.57a17.54,17.54,0,0,0-2.57-1.94L108,0h2c1.12.93,2.55,1.66,3.29,2.83a10.45,10.45,0,0,1,1.41,4.58c.09,1.25-.9,2.57-.83,3.83a6.57,6.57,0,0,0,1.39,3.86c.44.49,2.61.23,3.14-.41.73-.86.64-2.41.88-3.61a109.43,109.43,0,0,1,10.88,3.11c1.55.6,2.61,2.48,3.89,3.78-1.71.36-3.42,1.06-5.11,1-3.14-.08-6.27-.81-9.41-.87C113.64,18,111,22.29,113.3,28c5.49,13.8,2.08,24-10.7,32.16A8.91,8.91,0,0,0,101,62Zm13.32-29.25-2.82-3.86c-1.46,2-4,3.92-4.09,6-.13,2.28,2,4.68,3.07,7,1.1-1.79,2.28-3.53,3.26-5.39C109.1,35.81,109,34.88,109.32,32.75Z"/><path d="M173,62a33.36,33.36,0,0,1,4.16-3.58c4.51-2.79,8-6.2,8.87-11.75-9.39-2-13.39-9.44-8.95-16.61,1.24-2,4.16-2.93,6.08-4.61a24.61,24.61,0,0,0,3-4c-1.41-.62-3-2-4.18-1.71-6.1,1.5-12.15,3.29-18.12,5.27-4.47,1.48-7.76-.9-7.75-4.62l19.42-2.47a12.61,12.61,0,0,0,2.45-.46c2.68-.92,7.23-1.44,7.63-3,1-4,1.39-8.76-3.71-11.44,2.72-3.22,5.68-2.06,7.61-.36,1.29,1.12,1.24,3.85,1.64,5.89.11.58-.48,1.28-.45,1.91.06,1.43-.12,3.16.62,4.16.45.62,2.8.64,3.58,0s.78-2.38,1.07-3.5c3.42.89,7.2,1.55,10.7,2.93,1.65.65,2.74,2.69,4.09,4.09A24,24,0,0,1,206,19c-3-.11-5.94-.79-8.92-.84-6.91-.12-8.88,2.56-7.06,9.23,4.87,17.88,3.08,23.2-11.24,33.4-.36.26-.5.83-.74,1.26Zm14.47-27.67-4.26-5.58c-1.45,2.37-3.71,4.61-4.08,7.13-.27,1.83,2,4,3.07,6.06C183.81,39.61,185.42,37.28,187.47,34.33Z"/><path d="M826,15c-6.54,7.28-12.68,15-19.74,21.7-5.13,4.88-11.44,8.52-17.28,12.64-2,1.38-3.74,3.36-6.6,1.14-3.28-2.55-4.2-4.14-3.51-9,5.23,5.6,9.79,2.23,13.85-1.09,9.76-8,19.22-16.31,28.84-24.45A45.24,45.24,0,0,1,826,13Z"/><path d="M255.19,57.6c5.32-2.12,9.91-3.57,14.14-5.72,9.33-4.76,13.63-16.45,9.26-25a15.28,15.28,0,0,0-4.9-5.4c-4.69-3.16-6.37-2.44-8.22,2.84-1.64,4.68-3.29,9.36-3.91,14.24-2.07,1.94-4.1,3.94-6.23,5.81S251,48.54,248.42,50c-6.26,3.59-10.7,1.71-11.11-5.45-.26-4.51,1.21-9.54,3.28-13.65,3.29-6.54,3.25-13.22-1.61-19.18a7.74,7.74,0,0,1-.68-1.24c4.84-1.82,6.88-.66,7.62,4,.37,2.36,1.05,4.67,1.61,7.09,5.11-1.66,9.53-2.94,13.83-4.53,3-1.1,3.69-5.53,1.48-8.51a31.83,31.83,0,0,0-3.1-3.17c6-2,9.42.61,8.71,6.91-.4,3.49.63,4.8,3.9,5.39,16.57,3,16.43,22.65,9,30.77C275.82,54.39,263.4,59.13,255.19,57.6Zm-9.63-27.31c-3.46,2.37-4.67,6.76-4.51,11.42,0,1.55,2.64,4.49,3,4.33a82.51,82.51,0,0,0,9.11-5.1c.26-.16.6-.5.59-.76,0-1.06.26-2.55-.31-3.11C251.1,34.77,248.49,32.76,245.56,30.29Zm17.38-8.59c-1.51-.64-2.88-1.78-3.83-1.5a19.16,19.16,0,0,0-6.58,3.23c-1.23,1-2.62,3.76-2.11,4.53,1.56,2.34,4,4.13,6.15,6,.14.13,1.3-.48,1.52-1C259.64,29.6,261.07,26.11,262.94,21.7Z"/><path d="M569.83,16.19c3.45-.82,6.89-.93,9.56-2.42,5.16-2.88,7.07.55,10,3.83-6.67,8.65-12.26,17.92-19.83,25.1-6.46,6.11-15.18,9.84-22.95,14.53-.7.42-1.8.17-3.05-.26,16.16-9,29.55-20.42,36.59-38.1-6.53-2.18-12.55-.65-15.92,3.76-4.64,6.09-9.82,11.52-17.09,14.74,6.12-9.66,18.48-16.17,15.64-30.55C568.19,6,570.88,8.74,569.83,16.19Z"/><path d="M336.6,20.05c6.6,4.31,11.46,1.16,16-5.92-2.41-.23-4.15-.77-5.74-.49-7.83,1.39-15.66,2.8-23.4,4.59-4.75,1.09-7.91-1.19-8.05-6.46,12.07,3.08,23.88-.38,35.75-1.63,6.72-.7,8.11-.25,11.53,6.52-5.08,2.24-10.35,4.15-15.16,6.86a14.77,14.77,0,0,0-6,6.47c-3.84,8.93-8,17.57-15.41,24.16a19,19,0,0,1-7.4,4C329.93,48,335.38,35.58,336.6,20.05Z"/><path d="M703.5,51.49C711.19,51,718.57,50.25,726,50c4.42-.16,4.66-3.08,4.71-6.13.05-3.58-2.78-3.29-5-3.05-5,.55-9.91,1.27-14.83,2.08-3,.5-5.54.39-6.35-3.09,8.12-.8,16-1.73,23.88-2.27,4.08-.27,4.25-3.1,3.63-5.56-.31-1.24-3-2.82-4.53-2.68-6.28.61-12.51,1.83-18.76,2.78-3.74.57-6.46-.4-7-5,10.64,1.95,20.6,0,30.6-2.35,1.88-.45,4.59,1.15,6.38,2.51.67.51,0,3.07-.39,4.63-1.17,5-2.84,9.92-3.54,15-.25,1.76,1.76,3.83,3,6.23-1.31.16-2.35.32-3.41.41-7.39.59-14.83.86-22.16,1.88C708.09,55.9,705,56.08,703.5,51.49Z"/><path d="M411.4,24.31c0,6.68-.06,12.25,0,17.82.05,3.66.61,7.33.36,11-.1,1.61-1.65,3.12-2.54,4.67-1.18-1.58-3.32-3.14-3.37-4.76-.18-6,.41-12,.57-18,.18-7,.51-14,.16-21-.14-2.89-1.87-5.7-3.38-9.95,2.73.64,5.51.67,7.41,2,1.17.82,1.14,3.55,1.4,5.46a9.3,9.3,0,0,1-.36,3.46c-1.23,4.73,0,7.31,5.34,8.27,3.61.64,7,2.87,10.29,4.74a6.75,6.75,0,0,1,3,3.75c.35,1.43-.55,3.16-.89,4.76-1.46-.4-3.31-.37-4.31-1.28-2.69-2.44-4.87-5.44-7.56-7.89C416.26,26.15,414.25,25.67,411.4,24.31Z"/><path d="M473.55,55.41c4.6-2.86,9.88-5,13.65-8.74A112.73,112.73,0,0,0,501.45,29c2.73-4.08,1-6.32-4-5.58-6.24.93-12.44,2.21-18.58,3.68-5,1.19-7.53-.31-8.56-5.87,11.3,2.51,22.16,0,33.14-2.23,2.12-.43,4.92,1.69,7.08,3.13.34.23-.9,3.14-1.67,4.67-1.2,2.37-2.61,4.64-4,6.93-6.05,10.35-15,17.2-26,21.57a36.9,36.9,0,0,1-5.08,1.23Z"/><path d="M671.72,15.07C670,18,668.4,21,666.44,23.68c-8.9,12.44-20.58,21.68-33.9,28.94-4.48,2.45-8.93-1.28-9.27-8.23,8.84,5.61,15-.4,20.76-5.17,8.52-7.1,16.18-15.23,24.22-22.92.75-.72,1.58-1.35,2.38-2Z"/><path d="M504.31,10.45c-7.64,1.06-15.25,2.39-22.92,3-1.75.14-3.7-2.24-5.21-4.32,9.6,3.07,18.87-5.32,28.11-1.34C504.3,8.67,504.3,9.56,504.31,10.45Z"/><path d="M778.72,12.63c5.52-1.12,10.12.4,13.49,4.4,1.09,1.29.48,4,.65,6.11-1.71-.72-3.68-1.11-5.07-2.23C784.75,18.48,782,15.68,778.72,12.63Z"/><path d="M628.6,10.27c5-.9,9.27-.08,12.82,3.05,1.94,1.71,3.41,4.32.58,6.23-.91.62-3.64-.68-5-1.75C634.14,15.66,631.66,13.07,628.6,10.27Z"/><path d="M622.17,22.92c3.89-1.08,10.25,1.13,11.92,4.92.52,1.19-.22,2.94-.38,4.43-1.38-.31-3.19-.18-4.05-1C626.9,28.58,624.49,25.56,622.17,22.92Z"/><path d="M44.59,19.38c4.72-3.31,9.53-2.91,13.87-.21,1.85,1.14,3,3.76,3.84,5.95.32.86-1.14,2.39-1.79,3.61-1-.57-2.56-.88-3-1.75C54.76,21.75,50.61,19.2,44.59,19.38Z"/><path d="M19.81,39.94v9.73l-6.59-4.28Z" fill="#fff"/><path d="M109.32,32.75c-.31,2.13-.22,3.06-.58,3.75-1,1.86-2.16,3.6-3.26,5.39-1.12-2.34-3.2-4.74-3.07-7,.11-2.06,2.63-4,4.09-6Z" fill="#fff"/><path d="M187.47,34.33c-2.05,3-3.66,5.28-5.27,7.61-1.11-2-3.34-4.23-3.07-6.06.37-2.52,2.63-4.76,4.08-7.13Z" fill="#fff"/><path d="M245.56,30.29c2.93,2.47,5.54,4.48,7.88,6.78.57.56.3,2,.31,3.11,0,.26-.33.6-.59.76a82.51,82.51,0,0,1-9.11,5.1c-.36.16-3-2.78-3-4.33C240.89,37.05,242.1,32.66,245.56,30.29Z" fill="#fff"/><path d="M262.94,21.7c-1.87,4.41-3.3,7.9-4.85,11.33-.22.48-1.38,1.09-1.52,1-2.17-1.9-4.59-3.69-6.15-6-.51-.77.88-3.54,2.11-4.53a19.16,19.16,0,0,1,6.58-3.23C260.06,19.92,261.43,21.06,262.94,21.7Z" fill="#fff"/></svg>