<svg xmlns="http://www.w3.org/2000/svg" viewBox="0 0 399.13 30.2"><defs><style>.cls-1{fill:#333;}</style></defs><title>recommendation-title</title><g id="レイヤー_2" data-name="レイヤー 2"><g id="レイヤー_1-2" data-name="レイヤー 1"><path class="cls-1" d="M11.27,19.47c0,1.41.14,4.18.25,5a11.42,11.42,0,0,1,.11,1.3,2.74,2.74,0,0,1-2.56,2.3c-.22,0-.32-.14-.32-.43a7.08,7.08,0,0,0-3.53-5.11,9.18,9.18,0,0,0-1.91,1.66c-.32.32-.54.46-.79.46A3.35,3.35,0,0,1,0,22.25c0-.62.32-.83,1.19-.83,2.23-.07,2.84-.22,4-1a14.14,14.14,0,0,1,1.41-.83c1.44-.79,1.58-.9,3.16-1.8,0-.47,0-.9,0-1l0-2.27v-2a11.58,11.58,0,0,1-4.28.9,1.89,1.89,0,0,1-1.84-.9,1.78,1.78,0,0,1-.39-1c0-.69.11-1,.29-1s.1,0,.1.18c.11.58,1,.94,2.31.94a8.53,8.53,0,0,0,3.81-.87c-.07-3.16-.1-4.17-.21-5C9.29,4.46,8.85,4,7.88,4a.93.93,0,0,0-.32,0,1.09,1.09,0,0,1-.32,0c-.11,0-.15-.07-.15-.18,0-.65,1.08-1.48,2-1.48,1.15,0,3,1.26,3,2.05a3.32,3.32,0,0,1-.18.65,5.71,5.71,0,0,0-.36,1.62,10.1,10.1,0,0,0,3.68,1.08l.79,0c.36,0,.65.4.65.9,0,1.16-1.48,2.09-5.44,3.46-.07,1.55-.07,2.2-.07,3.24,0,.58,0,1,0,1.84C15,15,18,14,20.73,14a5.43,5.43,0,0,1,5.69,5.72,6.89,6.89,0,0,1-7.23,7.13c-2.85,0-4.54-1.77-4.54-4.72A6.7,6.7,0,0,1,15,20.27c.15-.51.33-.76.54-.76s.22.07.22.14a1.19,1.19,0,0,1-.11.36,9.17,9.17,0,0,0-.18,1.7,3.78,3.78,0,0,0,1.19,2.55A4.24,4.24,0,0,0,19,25a5,5,0,0,0,5-5.29c0-2.85-1.48-4.43-4.18-4.43-2.45,0-4.57.79-8.49,3.13ZM5.87,22.1C7.38,23.22,7.59,23.36,8.42,24c.4.37.62.47.79.47s.33-.1.44-.36.1-.32.1-3.09c0-.25,0-.51,0-2A27.55,27.55,0,0,0,5.87,22.1ZM13.75,8.67c0-.17-.11-.25-.72-.57s-.9-.5-1.62-1a24.12,24.12,0,0,0-.14,3.24C12.78,9.83,13.75,9.18,13.75,8.67Zm8.06.8a4.4,4.4,0,0,1-.5.14.3.3,0,0,1-.25-.25c0-.54,2.48-1.37,4.17-1.37a6.29,6.29,0,0,1,4.43,1.66,4.52,4.52,0,0,1,1.22,2.62A1.82,1.82,0,0,1,29.05,14c-.36,0-.43-.15-.69-1.26a5.68,5.68,0,0,0-1.65-2.34,5.19,5.19,0,0,0-3.17-1.16A5.3,5.3,0,0,0,21.81,9.47Z"/><path class="cls-1" d="M59.87,6.73A19.84,19.84,0,0,0,57.63,5c-.28-.18-.36-.28-.36-.36a.24.24,0,0,1,.22-.21c.11,0,.14,0,.54.25a10.84,10.84,0,0,0,4.35,1.55A4.1,4.1,0,0,1,64.9,7a1.79,1.79,0,0,1,.9,1.26.89.89,0,0,1-.79.86,3.23,3.23,0,0,1-.5-.07,33.91,33.91,0,0,0-6.16-.76c-.82,0-1.51,0-3.16.19C55,11.12,55,11.55,55,12.38v1c.79.86.86,1,1,1.47a13.9,13.9,0,0,1,.36,3.53c0,4.68-1.33,7.59-4.53,9.83a10.68,10.68,0,0,1-5,1.94c-.22,0-.33-.11-.33-.29s.08-.18.36-.25A9.88,9.88,0,0,0,54,20.52l-.32-.11c-.51,1.48-1,2.05-1.91,2.05-1.94,0-3.67-2.3-3.67-4.86,0-3,1.8-5.4,4-5.4a2.71,2.71,0,0,1,1.41.36c0-.93,0-1.29,0-2.12s0-1,0-1.8c-5.19.83-8.39,1.69-11.23,3.06a3,3,0,0,1-1.41.43,3.62,3.62,0,0,1-2-1.19A3,3,0,0,1,38,8.46C38,8.1,38,8,38.2,8s.14,0,.18.18a2.15,2.15,0,0,0,2.26,1.48,26.72,26.72,0,0,0,4.68-.72c3.57-.69,5.83-1,8.1-1.26-.14-4.5-.18-4.9-.43-5.44a1.93,1.93,0,0,0-1.94-1.15c-.15,0-.26-.07-.26-.14,0-.33,1.62-.94,2.38-.94a3.38,3.38,0,0,1,1.91.76c.93.57,1.22.86,1.22,1.18,0,.15,0,.15-.29.83-.46,1-.54,1.48-.75,4.65l.47-.08,1.11-.18L59,6.88Zm-9.33,7.49a4.91,4.91,0,0,0-1,3.09c0,1.88.9,3.39,2,3.39s1.73-1.66,1.73-5.22c0-1.37-.33-2-1.08-2.05A2.44,2.44,0,0,0,50.54,14.22Z"/><path class="cls-1" d="M97.3,6.73A19.67,19.67,0,0,0,95.07,5c-.28-.18-.36-.28-.36-.36a.24.24,0,0,1,.22-.21c.11,0,.14,0,.54.25a10.87,10.87,0,0,0,4.36,1.55,4.09,4.09,0,0,1,2.51.79,1.79,1.79,0,0,1,.9,1.26.89.89,0,0,1-.79.86,3.23,3.23,0,0,1-.5-.07,33.91,33.91,0,0,0-6.16-.76c-.82,0-1.51,0-3.16.19-.18,2.62-.22,3.05-.22,3.88v1c.79.86.86,1,1,1.47a13.9,13.9,0,0,1,.36,3.53c0,4.68-1.33,7.59-4.53,9.83a10.68,10.68,0,0,1-5,1.94c-.22,0-.32-.11-.32-.29s.07-.18.35-.25a9.88,9.88,0,0,0,7.13-9.14l-.32-.11c-.51,1.48-1,2.05-1.91,2.05-1.94,0-3.67-2.3-3.67-4.86,0-3,1.8-5.4,4-5.4a2.71,2.71,0,0,1,1.41.36c0-.93,0-1.29,0-2.12s0-1,0-1.8c-5.19.83-8.39,1.69-11.23,3.06a3,3,0,0,1-1.41.43,3.62,3.62,0,0,1-2.05-1.19,3,3,0,0,1-.79-2.48c0-.36,0-.47.22-.47s.14,0,.18.18a2.15,2.15,0,0,0,2.26,1.48,26.72,26.72,0,0,0,4.68-.72c3.57-.69,5.83-1,8.1-1.26-.14-4.5-.18-4.9-.43-5.44a1.93,1.93,0,0,0-1.94-1.15c-.15,0-.26-.07-.26-.14,0-.33,1.62-.94,2.38-.94a3.38,3.38,0,0,1,1.91.76c.93.57,1.22.86,1.22,1.18,0,.15,0,.15-.29.83-.46,1-.54,1.48-.75,4.65l.47-.08,1.11-.18,2.13-.28ZM88,14.22a4.91,4.91,0,0,0-1,3.09c0,1.88.9,3.39,2,3.39s1.73-1.66,1.73-5.22c0-1.37-.33-2-1.08-2.05A2.44,2.44,0,0,0,88,14.22Z"/><path class="cls-1" d="M117.43,6.7c-.22-1.34-.68-1.73-2.09-1.73-.14,0-.21,0-.21-.15,0-.32,1-.79,1.83-.79a2.93,2.93,0,0,1,2.24,1c.28.32.28.47.39,1.73a16,16,0,0,0,.94,4.17,16.09,16.09,0,0,1,8-3,11.73,11.73,0,0,0,.26-2.41c0-2.09-.76-3-2.74-3.21a.17.17,0,0,1-.18-.18c0-.21.94-.39,2-.39,1.66,0,3.13,1.19,3.13,2.55a16.43,16.43,0,0,1-.64,3.64,13.12,13.12,0,0,1,4.42,1c3.21,1.4,4.86,4.1,4.86,8,0,4.57-2.48,7.89-7.56,10a22.49,22.49,0,0,1-7.52,1.69c-.36,0-.58-.14-.58-.36s.08-.22.26-.25a29.46,29.46,0,0,0,5-1.48c5.07-2,7.55-5.4,7.55-10.4a6.83,6.83,0,0,0-2.62-5.8,7.67,7.67,0,0,0-4.14-1.47,44.76,44.76,0,0,1-3.42,8.75,2.3,2.3,0,0,0,.36.1,1.2,1.2,0,0,1,.79,1.3c0,.32-.18.61-.43.61a6.33,6.33,0,0,1-1.55-.5,13.21,13.21,0,0,1-3.2,4,7.51,7.51,0,0,1-4.5,2.09c-1.69,0-3-2-3-4.68a11,11,0,0,1,1.44-5.19,16.25,16.25,0,0,1,2.59-3.2A21.35,21.35,0,0,1,117.43,6.7Zm2.49,6.65C117.86,15.8,117,17.71,117,20c0,1.7.82,2.81,2.08,2.81,1.44,0,3.64-1.73,5.55-4.46A11.2,11.2,0,0,1,119.92,13.35Zm5.57,3.71A8.31,8.31,0,0,0,126,16c.08-.22.65-1.62,1.41-3.53.32-1,.54-1.91.93-3.57A13.64,13.64,0,0,0,121,12.24,9.48,9.48,0,0,0,125.49,17.06Z"/><path class="cls-1" d="M169.2,11.66a6.91,6.91,0,0,0-.76.36A34.81,34.81,0,0,1,162.9,23.4c-2.05,2.7-5.36,5.32-6.66,5.32-.18,0-.36-.14-.36-.28s.07-.15.43-.4a18.66,18.66,0,0,0,6.23-7.23,24.33,24.33,0,0,0,2.37-6.34,17.93,17.93,0,0,0,.58-3.38,1.12,1.12,0,0,0-.94-1.26c-.14,0-.17-.08-.17-.18s.32-.4.64-.4a7.1,7.1,0,0,1,3.64,1.91c.43-.18.43-.18,3-2.16,1-.79,2-1.94,2-2.38s-.76-.68-1.91-.68a70.13,70.13,0,0,0-7.52.94,25.46,25.46,0,0,0-5.58,1.58c-.72.32-.79.36-.94.36a4.09,4.09,0,0,1-2.52-1.73,2.82,2.82,0,0,1-.57-2V4.93a.4.4,0,0,1,.28-.36c.15,0,.22.07.33.36a3.2,3.2,0,0,0,2.55,1.26A8.76,8.76,0,0,0,159,6.08l2.12-.14c1,0,1.94-.11,2.45-.18,1.22-.14,2.48-.29,3.74-.47,5-.5,5.4-.57,7.34-1.15a1.9,1.9,0,0,1,.58-.11c.43,0,1.08.58,2.09,1.8.36.47.61.79.75.94.51.54.62.72.62,1s-.29.57-.8.61a10,10,0,0,0-4.57,1.44c-.79.43-1.62.79-2.37,1.12Z"/><path class="cls-1" d="M199.62,12.63c0,6.09.07,9.33.25,11.81.07.68.11,1.23.11,1.51,0,1.48-.54,2.56-1.23,2.56s-1.83-1.59-1.83-2.45c0-.22,0-.5.07-.86.32-1.91.58-9.69.58-16.49,0-3.2-.15-4.46-.54-5.11a1.79,1.79,0,0,0-1.7-.9c-.21,0-.32-.11-.32-.29s.11-.25.29-.32a8.43,8.43,0,0,1,2.12-.58c.51,0,1,.25,2.49,1.23.5.32.68.54.68.79a1.78,1.78,0,0,1-.18.65c-.54.93-.76,2.52-.83,6.4a14.47,14.47,0,0,1,7.27,2.27c1.87,1.26,2.74,2.38,2.74,3.49a1.42,1.42,0,0,1-1.44,1.51c-.76,0-1.19-.32-2-1.65a12.2,12.2,0,0,0-6.55-5Z"/><path class="cls-1" d="M234.9,25.09c-2.52,1.44-5.69,2.63-7.06,2.63-.28,0-.54-.18-.54-.36s.08-.18.29-.22a24.62,24.62,0,0,0,7.16-3.67A24.2,24.2,0,0,0,241.52,16c1.3-2.41,1.8-3.63,1.8-4.32s-.39-.9-1.11-.9a58.16,58.16,0,0,0-6.05.79,47.64,47.64,0,0,0-6,1.55,1.17,1.17,0,0,1-.54.15,4,4,0,0,1-2-1.23,3.47,3.47,0,0,1-.9-2.23c0-.29.11-.47.29-.47s.14,0,.22.25c.25.69,1.51,1.23,2.88,1.23.54,0,.54,0,4.71-.43,2.84-.29,4.5-.47,5-.54a12.06,12.06,0,0,0,3.89-1.05,2.11,2.11,0,0,1,.64-.18c.69,0,3.13,2,3.13,2.52,0,.25-.17.43-1.25,1.23C242.67,19,239.9,22.17,234.9,25.09ZM240.33,5c-.14,0-1,.18-2.34.4a31.53,31.53,0,0,1-5.18.65,2.7,2.7,0,0,1-2.66-1.3,5.51,5.51,0,0,1-.69-1.47.15.15,0,1,1,.29,0c.43.61,1.15.86,2.45.86a28.34,28.34,0,0,0,8-1.33c1-.39,1-.39,1.26-.39s.61.1,1.73.68c.68.4.93.65.93,1s-.28.58-1.58.69l-1.8.21Z"/><path class="cls-1" d="M262.94,28c-.21.07-.32.14-.46.18a2.87,2.87,0,0,1-.33.07c-.25,0-.61-.29-.61-.5s.07-.18.47-.29c0,0,.11-.07.25-.11s.25-.11.43-.18c3.46-1.44,8.53-5.25,11.95-9a33.19,33.19,0,0,0,4.57-6.95,9.81,9.81,0,0,0,1-2.49.83.83,0,0,0-.83-.75c-.15,0-.4,0-.65.07-.07,0-.86.18-1.58.29s-1.05.18-1.34.22a3.15,3.15,0,0,1-.68.1,2.59,2.59,0,0,1-1.37-.5,34.54,34.54,0,0,1-5.72,7c-1.66,1.51-3.92,3.06-4.5,3.06-.18,0-.36-.11-.36-.25s.07-.29.94-.9a29.27,29.27,0,0,0,5.65-6.48c1.44-2.16,2.34-4.17,2.34-5.29a2.24,2.24,0,0,0-1.26-2.16c-.11,0-.22-.11-.22-.18s.4-.32.9-.32a4.07,4.07,0,0,1,2.41.86c1.23.79,1.51,1.12,1.51,1.58,0,.18,0,.26-.21.51a3.8,3.8,0,0,0-.61.86c-.22.47-.29.61-.44,1a1.6,1.6,0,0,0,.83.18,18.81,18.81,0,0,0,4.14-.79,7.15,7.15,0,0,0,1.3-.65c.57-.32.79-.43,1-.43s.82.29,2,1.26,1.19,1,1.19,1.33-.14.43-.5.58a5.72,5.72,0,0,0-1.12.47C278.1,19.11,272.23,24.55,262.94,28Z"/><path class="cls-1" d="M304.56,11.81c1.33.86,1.91,1.65,1.91,2.7a1.45,1.45,0,0,1-1.37,1.4,1.23,1.23,0,0,1-1.19-.83,7.88,7.88,0,0,0-4.36-3.85c-.17-.07-.28-.14-.28-.22s.57-.36,1.22-.36A8.2,8.2,0,0,1,304.56,11.81Zm-.4,14.39c-.86,0-2.3-1.11-3.13-2.41a3.3,3.3,0,0,1-.5-1.87c0-.54.07-.72.32-.72s.18.07.43.43A2.59,2.59,0,0,0,303.77,23c1.15,0,3.24-.94,5.9-2.67a69.43,69.43,0,0,0,10.62-9.11A34.57,34.57,0,0,0,324,6.59c.25-.4.43-.54.54-.54s.25.18.25.36c0,.68-1.73,3.6-3.39,5.79a51,51,0,0,1-14.86,12.67,17.1,17.1,0,0,0-1.73,1A.81.81,0,0,1,304.16,26.2Zm4.57-20.8c1.37.79,1.95,1.62,1.95,2.74a1.56,1.56,0,0,1-1.48,1.61c-.61,0-.83-.18-1.19-.93a7.62,7.62,0,0,0-5.07-3.89c-.25,0-.36-.07-.36-.18,0-.29.65-.47,1.65-.47A10.08,10.08,0,0,1,308.73,5.4Z"/><path class="cls-1" d="M353.55,15.62c.08-.57.11-.93.11-1,0-.5-.65-1-1.26-1-.18,0-.43,0-.72.07l-1.73.22a54.23,54.23,0,0,0-8.63,1.55,2.39,2.39,0,0,1-.62.11,3.64,3.64,0,0,1-2-1.12,2.76,2.76,0,0,1-.64-1.58c0-.36.18-.62.36-.62s.14,0,.21.26c.18.64,1.3,1,3.1,1a13.29,13.29,0,0,0,1.37-.1l3.49-.33c1.69-.18,3.24-.36,5.47-.68a3.48,3.48,0,0,0,1.11-.51c.72-.39.9-.46,1.16-.46.68,0,3.06,1.9,3.06,2.48,0,.18,0,.22-.51.58-.94.75-1.19,1.65-2.63,9.61,1.52.57,1.91.9,1.91,1.51,0,.32-.18.54-.39.54a4.33,4.33,0,0,1-.51-.07,14.71,14.71,0,0,0-3.49-.47,49,49,0,0,0-5.9.65,17.86,17.86,0,0,0-3.75,1,2.53,2.53,0,0,1-.68.11c-.83,0-2.66-1.73-2.66-2.52a.23.23,0,0,1,.21-.22,1.06,1.06,0,0,1,.32.11,6.76,6.76,0,0,0,2.09.43,7.65,7.65,0,0,0,.9,0c.4-.07,1.41-.14,2.88-.25,4-.32,5.83-.5,7.35-.68l.54-4.57a10.12,10.12,0,0,0-1.3-.07,60.63,60.63,0,0,0-9.29,1.18,4.52,4.52,0,0,1-1.11.22,2.54,2.54,0,0,1-1.87-1.51,2.23,2.23,0,0,0-.15-.36,1.41,1.41,0,0,1-.07-.29.24.24,0,0,1,.18-.18c.11,0,.14,0,.36.18a2.05,2.05,0,0,0,1.44.43c.65,0,5.76-.39,7.67-.57a8.11,8.11,0,0,0,2.48-.51,1.28,1.28,0,0,1,.43-.11c.25,0,.25,0,1.33.8Z"/><path class="cls-1" d="M383.36,9.75a1.45,1.45,0,0,1-1.58,1.48c-.47,0-.69-.18-1-.79a7.45,7.45,0,0,0-5.29-4.25c-.21-.07-.32-.14-.32-.25s.61-.4,1.62-.4C380.05,5.54,383.36,7.67,383.36,9.75ZM378.9,25.12a5.07,5.07,0,0,1-2.48-1.79,2.57,2.57,0,0,1-.87-2.16c0-.69.18-1.19.43-1.19s.18.07.26.25A2.43,2.43,0,0,0,378.29,22c1.44,0,5.58-2.56,10.62-6.59a68.34,68.34,0,0,0,6.47-5.72c.62-.65,2.56-2.85,2.88-3.28s.44-.54.62-.54.25.15.25.33c0,.54-1.55,2.91-3.24,5a53.74,53.74,0,0,1-7.42,7.45,49.17,49.17,0,0,1-8.2,5.65C379.58,24.87,379.22,25.12,378.9,25.12Z"/></g></g></svg>