<svg xmlns="http://www.w3.org/2000/svg" viewBox="0 0 233.41 32.94"><defs><style>.cls-1{isolation:isolate;}.cls-2{fill:#333;}</style></defs><title>research-mammalian-title</title><g id="Layer_2" data-name="Layer 2"><g id="Layer_1-2" data-name="Layer 1"><g class="cls-1"><path class="cls-2" d="M2.55,5H5.76L6.91,3.56,9,5.51a1.35,1.35,0,0,1,.46.72c0,.14-.25.36-.61.5L8.28,7V23.07c0,.51-.8,1-1.59,1-.39,0-.57-.21-.57-.68V20.27h-4v4.6c0,.51-.86,1-1.73,1A.41.41,0,0,1,0,25.45v-22ZM6.12,19.4V5.9h-4V19.4ZM19.43,0,22.2.29a.72.72,0,0,1,.68.68.83.83,0,0,1-.54.72l-.82.43V6.37h5.57L29,4l2.77,2.09a.74.74,0,0,1,.28.58c0,.32-.17.54-.39.54H21.52v4.21h5.32l1-1.41,2.27,1.8a1,1,0,0,1,.36.72c0,.29-.26.54-.65.65l-.51.15V29.91a1.8,1.8,0,0,1-1.11,2,2.56,2.56,0,0,1-1.37.54c-.36,0-.5-.18-.5-.65,0-.79-.11-.9-.83-1.15L23.24,30v-.54h3.24c.58,0,.72-.18.72-.72V22.17H21.52v8.5c0,.65-.61,1.08-1.52,1.08-.43,0-.57-.15-.57-.58v-9H13.82v9c0,.4-.18.62-.69.9a2.54,2.54,0,0,1-1,.29c-.36,0-.47-.14-.47-.5V9.79l2.95,1.66h4.82V7.24H14.9c-1.55,0-2.31,0-4.25.1l-.54-1.11c2.38.11,3.38.14,4.82.14h4.5Zm0,16.27v-4H13.82v4Zm0,5V17.13H13.82v4.18Zm7.77-5v-4H21.52v4Zm0,5V17.13H21.52v4.18ZM23.28,1.69c2.12.15,4,1.41,4,2.7a1.11,1.11,0,0,1-1.18,1.08c-.58,0-.8-.14-1.08-.79A5.56,5.56,0,0,0,23.14,2.2Z"/><path class="cls-2" d="M57.65,2.16a1,1,0,0,1,.43.68c0,.29-.29.44-.9.44h-.65c-.61.07-1.18.14-1.36.18s-1.26.21-2.67.43c-3.09.54-7.44,1.15-9.85,1.44a14,14,0,0,0-1.41.18c-.47,0-1,.11-1.26.11s-.47-.11-.47-.29.22-.36,1.59-.65c6.58-1.4,11.73-3,14.43-4.36ZM48.26,16.92l2.37.5,3.28-3.27H45.24l-4.39.1-.44-1.11,2.67.11,2.16,0h9.14l1.54-1.44,1.87,1.87a1.11,1.11,0,0,1,.43.76c0,.36-.25.58-.72.65l-1,.11-6,3.67v1.58c4.43-.43,5-.5,7.67-.83l.14.51L50.52,22v8a1.73,1.73,0,0,1-.9,1.58,3.73,3.73,0,0,1-1.72.68c-.43,0-.69-.43-.72-1.08,0-.21,0-.32-.07-.39v0c-.33-.07-.61-.18-.9-.25l-2.7-.83V29.3h3.88c.69-.07.9-.29.87-1V22.5l-5,.86L43,23.9c-.22.36-.51.61-.76.61s-.46-.21-.64-.54l-1.66-2.84c3.2,0,4.07-.11,8.35-.43ZM41.82,6.55c2.37.47,4.31,2.38,4.31,4.18a1.47,1.47,0,0,1-1.4,1.62c-.79,0-1-.33-1.33-2.23a5.56,5.56,0,0,0-1.69-3.21Zm4.68-1c2.77.65,5,2.59,5,4.39,0,.79-.61,1.62-1.22,1.62a1.16,1.16,0,0,1-.47-.14c-.4-.25-.4-.25-1-2.34A7.32,7.32,0,0,0,46.46,5.9ZM55.67,5,58,6.26c.36.18.61.47.61.65s-.29.47-.72.69l-.61.25-4,4.71-.54-.32Zm7.27-3.31c.72.11,1,.29,1,.65s-.22.54-.69.75l-.93.51V27.46c0,1.44.21,1.7,1.54,1.7a27.94,27.94,0,0,0,4-.22c.86-.22,1.22-.79,1.83-3.17l.9-3.42h.61L71,27.54,71,28.4c0,.07.18.18.43.29.44.21.76.58.76.86,0,1.26-2.05,1.77-7.2,1.77-4.78,0-4.93-.11-4.93-3.42V1.26Z"/><path class="cls-2" d="M79.82,8.71c2.34.11,3,.11,4.82.11h2.7V.29l2.3.14c.51,0,.83.29.83.65s-.22.58-.65.9l-.39.29V8.82h3.81l1.69-2.09,2.38,2a.63.63,0,0,1,.18.47c0,.22-.15.43-.29.43H89.43v1.26a11.68,11.68,0,0,1,4.6,2c1,.79,1.48,1.44,1.48,2.12a1.3,1.3,0,0,1-1.19,1.3c-.54,0-.54,0-1.94-2.06a9.59,9.59,0,0,0-2.95-2.55v5.15c0,.43-.69.75-1.55.75-.36,0-.54-.14-.54-.43V12.28a27.47,27.47,0,0,1-6.4,5.54,4.45,4.45,0,0,1-.94.47.25.25,0,0,1-.25-.26c0-.1,0-.18.75-.79a32.22,32.22,0,0,0,6.19-7.56h-2c-1.58,0-2.37,0-4.53.11Zm9.57,13.07h3.42l1.76-2L97,21.67a.75.75,0,0,1,.25.5c0,.26-.18.47-.32.47H89.28a18.14,18.14,0,0,1-.36,2.05,19.4,19.4,0,0,1,4.36,1.77A3.3,3.3,0,0,1,95.08,29a1.4,1.4,0,0,1-1.33,1.4c-.58,0-.87-.32-1.77-1.8a9.47,9.47,0,0,0-3.24-3.17A9.46,9.46,0,0,1,84,31a12.61,12.61,0,0,1-3.6,1.59.26.26,0,0,1-.29-.26c0-.1.07-.21.29-.28,4.5-2.27,6.19-4.65,6.69-9.4H84.68c-.51,0-1.26,0-2.2,0l-2.16.07-.43-1.12c2.66.11,3.67.15,4.79.15h2.48c0-.87.07-1.33.07-2.09v-1.4l2.48.14c.58,0,.87.25.87.61s-.15.43-.43.69l-.61.5ZM81,2.34a6.76,6.76,0,0,1,2.23,1A4.1,4.1,0,0,1,85,6.48,1.45,1.45,0,0,1,83.6,8,1,1,0,0,1,83,7.81c-.36-.32-.36-.32-.79-2.52a4.55,4.55,0,0,0-1.51-2.66ZM94.32,4.43c-1.62,2.3-2.7,3.63-2.95,3.63a.24.24,0,0,1-.25-.25.94.94,0,0,1,.11-.43A33.73,33.73,0,0,0,92.85,2L95,3c.29.15.5.4.5.58s-.21.43-.5.54Zm9.5,23.32a.78.78,0,0,1,.36.58c0,.21-.22.39-.47.43l-1,.07a45.85,45.85,0,0,1-5.94,3,16.91,16.91,0,0,1-3,1,.28.28,0,0,1-.29-.26c0-.14.11-.25.68-.5a31.74,31.74,0,0,0,7.63-5.76ZM109.76,0l2.95,2.23a.75.75,0,0,1,.32.58.44.44,0,0,1-.4.43h-7.34c-.86,2.16-1,2.52-1.9,4.61h4.68l1.15-1.55,2.3,2.16a.89.89,0,0,1,.29.58c0,.25-.26.46-.61.54l-.65.14V25.45c0,.58-.83,1-1.8,1-.25,0-.4-.11-.4-.32V24.91h-8.2v1.73c0,.32-1,.72-1.76.72A.35.35,0,0,1,98,27V6.37l2.41,1.48h1.51c.29-2.23.33-2.56.47-4.61h-1.33c-.47,0-1.26,0-2.16,0l-2.27.07-.39-1.12c2.8.11,3.78.15,4.82.15h6.8Zm-1.41,13.28V8.71h-8.2v4.57Zm0,5.4V14.15h-8.2v4.53Zm0,5.36V19.55h-8.2V24Zm-3.09,2.31c4.21.76,7.48,2.84,7.48,4.79a1.21,1.21,0,0,1-1.15,1.29c-.65,0-.65,0-2.81-2.73a10.94,10.94,0,0,0-3.7-2.88Z"/><path class="cls-2" d="M123.69,16.81c-1.26,2.3-3.38,5.18-3.81,5.18a.4.4,0,0,1-.37-.32c0-.14.08-.29.33-.76C123,15.33,124.3,11.3,125.09,4c-2.26,0-2.59,0-4.75.11L119.77,3c2.55.11,3.38.15,5.21.15h3.93L131,.9,133,2.34h14.9l2-2.16,2.69,2.12a.59.59,0,0,1,.26.47c0,.22-.11.4-.26.4H147.4V15.84h1l2.09-2.27,2.52,2a.92.92,0,0,1,.39.65.45.45,0,0,1-.5.43H147.4V31.21c0,.54-1,1.08-1.94,1.08-.36,0-.54-.15-.54-.43V16.7h-4.61c-.18,6.12-1,9.33-3.16,11.74-1.44,1.65-4.79,4-5.69,4a.32.32,0,0,1-.32-.33c0-.14,0-.14,1.47-1.22a17.14,17.14,0,0,0,3.31-3.74c1.23-1.88,2-5.26,2-9.33V16.7c-2.24,0-2.56,0-4.61.11l-.47-1.11c2.38.1,2.7.1,5.11.14V3.17h-4.1a3,3,0,0,1,.07.47c0,.25-.21.39-.61.39H127.9c-1.15,5.15-1.76,7.2-2.7,9.29l.68.65h3.57l1-1.41,2,1.95a.79.79,0,0,1,.29.57c0,.15-.07.25-.29.33l-.5.21v12.1c0,.39-.15.57-.65.9a2.16,2.16,0,0,1-1,.36c-.36,0-.61-.22-.61-.47v-2h-3.89v3.6c0,.54-.93,1.22-1.69,1.22-.32,0-.5-.14-.5-.39Zm6,8.86V14.83h-3.85V25.67Zm15.19-9.83V3.17h-4.54V15.84Z"/><path class="cls-2" d="M164.64,3a5.91,5.91,0,0,1,.61,1.8h10.11V.11l3,.25c.5,0,.79.25.79.65a1,1,0,0,1-.54.79l-.76.43V4.75h9.46l1.08-1.51L191.74,6a1,1,0,0,1,.39.79.81.81,0,0,1-.86.83H191l-1.08-.15-3.78,2.67-.5-.33,1.79-4.07h-6.08v7c0,.68.25.75,2.34.75a23.75,23.75,0,0,0,3.71-.21c.86-.18,1.29-.65,1.73-1.87l1-2.88.47.14L190.4,12v.36a.83.83,0,0,0,.51.76c.47.29.54.36.54.64,0,.8-1,1.44-2.45,1.62a45.87,45.87,0,0,1-5.22.22c-3.85,0-4.67-.36-4.67-2V5.72h-4.93c-.83,3.46-1.12,4.29-2.34,6.38-1.51,2.69-3.64,4.24-7.45,5.5a14.2,14.2,0,0,1-3.06.72A.29.29,0,0,1,161,18c0-.25.07-.28.9-.54,6-2,8.42-5.11,9.28-11.77H165.4c0,.4.07.72.07.94,0,2.59-1.26,4.61-2.88,4.61a1.38,1.38,0,0,1-1.37-1.48,2.32,2.32,0,0,1,.83-1.65c1.66-1.88,2-2.67,2-4,0-.28,0-.57,0-1ZM180.83,19.8l.94-1.59,2.52,1.91a.72.72,0,0,1,.25.43.5.5,0,0,1-.36.44l-.83.39V28c0,.83.18.9,1.94.9,4.54,0,5-.18,5.58-2.19l.94-3.28h.61L192.2,27l0,.72c0,.54,0,.65.54,1a1.1,1.1,0,0,1,.57.87c0,.5-.57,1-1.33,1.22a42.81,42.81,0,0,1-6.15.36c-2.66,0-3.56-.11-4.1-.5a1.9,1.9,0,0,1-.72-1.8v-8h-5.26c-1,3.85-1.76,5.33-3.59,7.09A19.62,19.62,0,0,1,165,31.93a17.26,17.26,0,0,1-3.42,1c-.21,0-.32-.08-.32-.26s.14-.25.43-.39C169,29.23,172,26.21,173.17,20.77H168c-1.76,0-2.73,0-5.32.14l-.9-1.29c3.45.14,4.82.18,6.22.18h5.29a47.23,47.23,0,0,0,.51-6.19L177,14c.54.07.8.29.8.65a1.07,1.07,0,0,1-.58.86l-.76.47c-.25,1.83-.28,2.12-.5,3.78Z"/><path class="cls-2" d="M200.59,30.06c3.78.18,5.33.21,7.09.21h7.92v-5.4h-5.07c-1.41,0-2.63,0-5.73.15l-.5-1.15c3.2.1,4.46.14,6.23.14h5.07V19c-.86.1-1.73.18-2.59.25-1.62.11-2.92.21-3.67.29s-1.73.14-2.56.18l-.46.72c-.22.32-.47.5-.65.5s-.36-.14-.58-.54l-1.72-2.95c1.51,0,2.77.07,3.45.07,1.19,0,1.19,0,4.14-.07a48.1,48.1,0,0,0,2.34-6.12h-2.92c-1.33,0-2.19,0-4.32.11l-.5-1.12c2.41.11,3.2.14,4.82.14h11.44l2-2.3,3,2.16a.55.55,0,0,1,.22.51c0,.28-.11.5-.29.5H216.68c-2,2.95-2.27,3.38-4.25,6.12l3.38,0c4.65-.07,4.93-.07,9-.36A21.82,21.82,0,0,0,220,13.57l.29-.5c3.74,1.18,5.29,1.8,6.62,2.63,1.8,1,3.17,2.84,3.17,4.1a1.31,1.31,0,0,1-1.26,1.4c-.47,0-.68-.14-1-.65A27.38,27.38,0,0,0,225.71,18c-3.74.47-4.28.54-7.52.83V24H225l1.8-2,2.77,2a.5.5,0,0,1,.22.43c0,.18-.15.43-.25.43h-11.3v5.4h9.64L230,27.86l3.2,2.34a.5.5,0,0,1,.22.43c0,.25-.18.51-.36.51H207.68c-1.58,0-3,0-6.47.18Zm4.32-27,.11.4c.11.4.22.79.32,1.22l0,.08h10.33V.25l3.2.36c.39,0,.61.22.61.54a.93.93,0,0,1-.57.72l-.72.43V4.72h9.28l1.15-1.52,3.49,2.85a1.25,1.25,0,0,1,.43.9c0,.43-.29.65-.83.65H230L226.5,9.54l-.25-.29,1.51-3.67H205.52c0,.5.08,1,.08,1.3,0,2.33-1.26,4.14-2.85,4.14a1.33,1.33,0,0,1-1.47-1.19c0-.51,0-.51,1.8-2.49a5.33,5.33,0,0,0,1.08-3.49V3Z"/></g></g></g></svg>