<svg xmlns="http://www.w3.org/2000/svg" viewBox="0 0 274.4 33.08"><defs><style>.cls-1{isolation:isolate;}.cls-2{fill:#333;}</style></defs><title>research-aquatic-title</title><g id="Layer_2" data-name="Layer 2"><g id="Layer_1-2" data-name="Layer 1"><g class="cls-1"><path class="cls-2" d="M5.29,11.38c-1.15,0-2.12,0-4.5.1L.47,10.37c.93,0,1.76,0,2.05.07l2.77.07H10l1.18-1.58,2.34,2.62a.8.8,0,0,1,.22.54.57.57,0,0,1-.54.58l-.68.07c-2,5.19-3.49,8-5.94,11a25.66,25.66,0,0,1-4.43,4.47A5.27,5.27,0,0,1,.29,29.34.34.34,0,0,1,0,29.05c0-.14.36-.58,1.15-1.3C5.47,23.22,7.74,19,10,11.38ZM10.61,29l3.57,0c.75-.07.86-.14.82-.72V.72L18,1c.54,0,.9.33.9.72a1.06,1.06,0,0,1-.68.87L17.49,3V7.92a26.6,26.6,0,0,0,3.2,7.45l7.23-8.1,2.3,2.45a.66.66,0,0,1,.18.43.8.8,0,0,1-.93.72l-.11,0-.72,0-7.41,5.4c2.34,3.81,6.33,7,11.51,9.14a9.44,9.44,0,0,0-3.2,2.77,28.67,28.67,0,0,1-12-16.56V29.37a2.31,2.31,0,0,1-1,1.95,2.73,2.73,0,0,1-1.62.79c-.4,0-.43-.11-.68-1.26,0-.11-.18-.22-.47-.33l-3.17-.93Z"/><path class="cls-2" d="M55.24,19.62H51.53l-3,.07c-.39,0-1.44,0-2.7.07l-.57-1.19,6.22.18h3.71V10.08h-7.7a25.37,25.37,0,0,1-5.72,7.45c-.4.36-.58.47-.76.47s-.14-.07-.14-.18.07-.33.43-.79c2.55-3.39,5-9.43,6-14.94l3,1.15c.58.25.9.5.9.83a1.07,1.07,0,0,1-.83.86L49.88,5A43.27,43.27,0,0,1,48,9.25h7.23V.36l3.27.36c.65.07.9.25.9.68,0,.26-.21.54-.61.8L58,2.74V9.25h7.27l2.3-2.48,2.85,2c.43.29.61.5.61.79s-.22.54-.69.54H58v8.67h4.32l2.16-2.26,2.7,1.9a1,1,0,0,1,.5.72c0,.33-.29.51-.72.51H58V29h8.85l2.52-2.73,2.88,2a1.42,1.42,0,0,1,.61.94.67.67,0,0,1-.54.65h-25c-2.85.1-5,.14-6.44.18l-.65-1.23c1.73,0,4.06.08,7.09.18h8Z"/><path class="cls-2" d="M95.54,19.62h-3.7l-3,.07c-.4,0-1.44,0-2.7.07l-.58-1.19,6.23.18h3.7V10.08h-7.7a25.2,25.2,0,0,1-5.72,7.45c-.39.36-.57.47-.75.47s-.15-.07-.15-.18.08-.33.44-.79c2.55-3.39,5-9.43,6-14.94l3,1.15c.57.25.9.5.9.83a1.07,1.07,0,0,1-.83.86L90.18,5a41,41,0,0,1-1.87,4.21h7.23V.36l3.28.36c.65.07.9.25.9.68,0,.26-.22.54-.61.8l-.83.54V9.25h7.27l2.3-2.48,2.84,2c.43.29.61.5.61.79s-.21.54-.68.54H98.28v8.67h4.32l2.15-2.26,2.7,1.9a.94.94,0,0,1,.51.72c0,.33-.29.51-.72.51h-9V29h8.85l2.52-2.73,2.88,2a1.42,1.42,0,0,1,.61.94.67.67,0,0,1-.54.65h-25c-2.84.1-5,.14-6.44.18l-.65-1.23c1.73,0,4.07.08,7.09.18h8Z"/><path class="cls-2" d="M124.8,9.11c-.64,2.48-3,7.23-3.67,7.23a.33.33,0,0,1-.32-.36,3,3,0,0,1,.32-1c1.3-2.84,2.05-7.23,2.16-12.17l2.81.8c.36.1.57.32.57.54a1.08,1.08,0,0,1-.5.79l-.36.25-.68,3h2.7V.14l2.84.36c.47,0,.79.29.79.65a1,1,0,0,1-.58.76l-.86.47V8.24h1.26l1.62-2,2.37,2a.61.61,0,0,1,.26.43c0,.18-.22.47-.33.47H130v7.45c3-1.26,4.25-1.84,7.13-3.21l.1.62c-3,1.94-4.17,2.7-7.23,4.42V31.21a.86.86,0,0,1-.65.93,3.05,3.05,0,0,1-1.15.33c-.21,0-.39-.22-.39-.54V19.62A31.78,31.78,0,0,1,124,21.56l-.29.94c-.1.39-.25.54-.57.54s-.29-.07-.54-.36l-2.09-2.38c3.56-1.26,4.1-1.47,7.31-2.77V9.11Zm12.81,0a33.21,33.21,0,0,1-3.16,4,7.19,7.19,0,0,1-2,1.59.28.28,0,0,1-.25-.29c0-.18.07-.25.82-1.15,2.05-2.31,5-9.33,5.62-13.25L142,1.37a.73.73,0,0,1,.47.68.79.79,0,0,1-.5.65l-1.12.36A46.32,46.32,0,0,1,138,8.24h11.05l1.15-1.62,2.56,2a1.34,1.34,0,0,1,.5.79.77.77,0,0,1-.5.61l-.83.32c-.29,11.2-.68,14.76-2.05,17.68a6.16,6.16,0,0,1-2.52,2.73,7.87,7.87,0,0,1-2.16.72c-.18,0-.32-.21-.36-.57a5.38,5.38,0,0,0-.14-1c0-.15-.33-.36-.69-.54l-3.13-1.55.18-.65,2.67.58a9.36,9.36,0,0,0,1.69.18c2,0,2.77-1.19,3.38-5.51.36-2.84.5-5,.79-13.28h-1.4c-2.85,7.63-5.08,11.7-8.6,15.55-2.34,2.55-4.64,4.6-5.18,4.6a.3.3,0,0,1-.29-.28c0-.22.07-.33.93-1.12A44.86,44.86,0,0,0,145.6,9.11H143c-3,6.66-4.78,9.61-7.95,13-1.47,1.62-2.55,2.55-2.88,2.55a.24.24,0,0,1-.21-.25c0-.14.11-.29.29-.54a36.5,36.5,0,0,0,8.06-14.79Z"/><path class="cls-2" d="M164.68,17c-1.26,2.31-3.38,5.19-3.82,5.19a.39.39,0,0,1-.36-.33c0-.14.08-.28.33-.75,3.2-5.58,4.46-9.61,5.25-16.88-2.26,0-2.59,0-4.75.1l-.57-1.11c2.55.11,3.38.14,5.21.14h3.93L172,1,174,2.48h14.9l2-2.16,2.69,2.13a.57.57,0,0,1,.26.47c0,.21-.11.39-.26.39h-5.14V16h1l2.09-2.27L194,15.77a.9.9,0,0,1,.39.64.45.45,0,0,1-.5.44h-5.47v14.5c0,.54-1,1.08-1.94,1.08-.36,0-.54-.14-.54-.43V16.85H181.3c-.18,6.12-1,9.32-3.17,11.73-1.43,1.66-4.78,4-5.68,4a.32.32,0,0,1-.32-.32c0-.15,0-.15,1.47-1.23a17.4,17.4,0,0,0,3.31-3.74c1.22-1.87,1.94-5.26,1.94-9.32V16.85c-2.23,0-2.55,0-4.6.1l-.47-1.11c2.38.11,2.7.11,5.11.14V3.31h-4.1a2.23,2.23,0,0,1,.07.47c0,.25-.22.4-.61.4h-5.36c-1.15,5.14-1.77,7.2-2.7,9.28l.68.65h3.57l1-1.4,2.05,1.94a.82.82,0,0,1,.29.58c0,.14-.07.25-.29.32l-.5.22V27.86c0,.4-.15.58-.65.9a2.16,2.16,0,0,1-1,.36c-.36,0-.61-.21-.61-.47v-2h-3.89v3.6c0,.54-.93,1.23-1.69,1.23-.32,0-.5-.15-.5-.4Zm6,8.86V15h-3.85V25.81ZM185.91,16V3.31h-4.54V16Z"/><path class="cls-2" d="M205.63,3.1a5.72,5.72,0,0,1,.61,1.8h10.11V.25l3,.25c.51,0,.8.26.8.65a1,1,0,0,1-.54.79l-.76.44V4.9h9.46l1.08-1.52,3.39,2.74a1,1,0,0,1,.39.79.8.8,0,0,1-.86.83H232l-1.08-.14-3.78,2.66-.51-.32,1.8-4.07h-6.08v7c0,.69.26.76,2.34.76a22.31,22.31,0,0,0,3.71-.22c.86-.18,1.29-.65,1.72-1.87l1-2.88.47.14-.22,3.31v.37a.8.8,0,0,0,.51.75c.47.29.54.36.54.65,0,.79-1,1.44-2.45,1.62a48.87,48.87,0,0,1-5.22.21c-3.85,0-4.67-.36-4.67-2V5.87h-4.93c-.83,3.45-1.12,4.28-2.34,6.37-1.51,2.7-3.64,4.25-7.45,5.51a14.84,14.84,0,0,1-3.06.72.29.29,0,0,1-.32-.29c0-.25.07-.29.9-.54,6-2,8.42-5.11,9.28-11.77h-5.79c0,.39.07.72.07.93,0,2.6-1.26,4.61-2.88,4.61a1.37,1.37,0,0,1-1.37-1.47A2.34,2.34,0,0,1,203,8.28c1.66-1.87,2.05-2.66,2.05-4,0-.29,0-.58,0-1Zm16.19,16.84.94-1.58,2.52,1.91a.67.67,0,0,1,.25.43.48.48,0,0,1-.36.43l-.83.4v6.62c0,.83.18.9,1.95.9,4.53,0,5-.18,5.57-2.2l.94-3.27h.61l-.22,3.53,0,.72c0,.54,0,.64.54,1a1.1,1.1,0,0,1,.57.86c0,.51-.57,1-1.33,1.22a42.81,42.81,0,0,1-6.15.36c-2.66,0-3.56-.1-4.1-.5a1.9,1.9,0,0,1-.72-1.8v-8h-5.26c-1,3.86-1.76,5.33-3.59,7.09A19.57,19.57,0,0,1,206,32.07a16.52,16.52,0,0,1-3.42,1c-.21,0-.32-.07-.32-.25s.14-.25.43-.4C210,29.37,213,26.35,214.16,20.91H209c-1.76,0-2.73,0-5.32.15l-.9-1.3c3.45.15,4.82.18,6.22.18h5.29a47.23,47.23,0,0,0,.51-6.19l3.16.43c.54.07.79.29.79.65a1,1,0,0,1-.57.86l-.76.47c-.25,1.84-.28,2.13-.5,3.78Z"/><path class="cls-2" d="M241.58,30.2c3.78.18,5.33.22,7.09.22h7.92V25h-5.08c-1.4,0-2.62,0-5.72.14l-.5-1.15c3.2.11,4.46.14,6.22.14h5.08v-5c-.87.11-1.73.18-2.59.25-1.62.11-2.92.22-3.67.29s-1.73.14-2.56.18l-.46.72c-.22.32-.47.5-.65.5s-.36-.14-.58-.54l-1.73-2.95c1.52,0,2.77.07,3.46.07,1.19,0,1.19,0,4.14-.07a48.1,48.1,0,0,0,2.34-6.12h-2.92c-1.33,0-2.19,0-4.32.11l-.5-1.11c2.41.1,3.2.14,4.82.14h11.44l2-2.3,3,2.16a.54.54,0,0,1,.22.5c0,.29-.11.5-.29.5H257.67c-2,2.95-2.27,3.39-4.25,6.12l3.38,0c4.65-.08,4.93-.08,9-.36a21.49,21.49,0,0,0-4.79-3.5l.29-.5c3.74,1.19,5.29,1.8,6.62,2.63,1.8,1,3.17,2.84,3.17,4.1a1.32,1.32,0,0,1-1.26,1.41c-.47,0-.68-.15-1-.65a25,25,0,0,0-2.09-2.59c-3.74.46-4.28.54-7.52.82v5.22h6.76l1.8-2,2.77,2a.51.51,0,0,1,.22.43c0,.19-.15.44-.25.44h-11.3v5.4h9.64L271,28l3.2,2.34a.52.52,0,0,1,.22.44c0,.25-.18.5-.36.5H248.67c-1.58,0-3,0-6.47.18Zm4.32-27,.11.39c.11.4.22.8.32,1.23l0,.07H256.7V.4l3.2.36c.39,0,.61.21.61.54a.92.92,0,0,1-.58.72l-.72.43V4.86h9.29l1.15-1.51,3.49,2.84a1.28,1.28,0,0,1,.43.9c0,.43-.29.65-.83.65h-1.8l-3.45,1.94-.25-.28,1.51-3.68H246.51c0,.51.08,1,.08,1.3,0,2.34-1.26,4.14-2.85,4.14A1.33,1.33,0,0,1,242.27,10c0-.5,0-.5,1.8-2.48A5.35,5.35,0,0,0,245.15,4V3.17Z"/></g></g></g></svg>