<svg xmlns="http://www.w3.org/2000/svg" width="398.313" height="60.1" viewBox="0 0 398.313 60.1">
  <defs>
    <style>
      .cls-1 {
        fill: #fff;
        fill-rule: evenodd;
      }
    </style>
  </defs>
  <path id="レストラン一覧" class="cls-1" d="M120.449,1722.36c0.064-8.39.768-15.17,1.664-16.58a2.672,2.672,0,0,0,.512-1.6c0-.83-0.832-1.86-3.072-3.52a8.645,8.645,0,0,0-4.8-2.05,20.324,20.324,0,0,0-3.84.77,0.747,0.747,0,0,0-.64.58c0,0.32.192,0.45,0.96,0.51,2.944,0.51,3.968,3.01,3.968,9.47,0,0.9,0,4.42.064,10.5v4.41a11.56,11.56,0,0,1-.7,4.93,3.257,3.257,0,0,0-.576,1.47c0,1.41,4.288,5.63,5.76,5.63a1.115,1.115,0,0,0,.9-0.57c0.832-1.28,2.559-2.56,5.5-4.1a75.65,75.65,0,0,0,12.543-8.32,63.317,63.317,0,0,0,15.295-16.77,36.735,36.735,0,0,0,2.88-5.43,0.679,0.679,0,0,0-.576-0.58,0.863,0.863,0,0,0-.64.51,81.658,81.658,0,0,1-14.335,14.59c-6.847,5.63-17.279,11.71-20.094,11.71-0.576,0-.768-0.19-0.768-0.83v-4.73Zm70.464-22.34c-6.72,1.41-7.552,1.54-9.407,1.54s-3.392-.58-3.9-1.41c-0.32-.58-0.32-0.58-0.576-0.58-0.32,0-.7,1.09-0.7,2.05a4.335,4.335,0,0,0,1.536,3.01,8.087,8.087,0,0,0,3.584,2.05,5.9,5.9,0,0,0,1.919-.64,85.614,85.614,0,0,1,11.328-4.04,7.537,7.537,0,0,1,2.559-.57,0.87,0.87,0,0,1,1.024.83c0,0.58-.448,1.79-1.536,4.42a63.658,63.658,0,0,1-7.615,13.44c-5.76,7.74-13.439,14.2-20.607,17.47-1.727.76-2.111,1.02-2.111,1.34a0.516,0.516,0,0,0,.576.45,14.494,14.494,0,0,0,3.135-.77,50.722,50.722,0,0,0,16.959-9.28c3.072-2.56,5.184-4.8,9.407-10.24a29.758,29.758,0,0,1,11.584,14.14c1.216,2.95,1.919,3.72,3.455,3.72a4.021,4.021,0,0,0,3.9-3.97c0-3.01-2.176-6.53-5.952-9.54a29.05,29.05,0,0,0-12.159-5.69,109.131,109.131,0,0,0,8.256-14.34c1.472-.89,2.048-1.41,2.048-1.98,0-.51-0.384-1.02-1.792-2.18-2.432-1.98-3.968-2.94-4.672-2.94-0.576,0-1.088.32-2.24,1.22a7.331,7.331,0,0,1-4.031,1.72Zm53.312,20.35-0.064-5.25-0.128-5.82a22.544,22.544,0,0,1,10.047,8.58c1.728,2.68,1.728,2.68,2.048,3a3.851,3.851,0,0,0,2.943,1.35,3.26,3.26,0,0,0,3.392-3.39c0-2.31-2.112-5.06-5.311-7.11-3.52-2.24-7.04-3.2-13.055-3.71a46,46,0,0,1,.9-10.43c0.831-1.92.9-2.05,0.9-2.5,0-.64-0.639-1.66-1.727-2.94-1.792-1.86-3.2-2.69-4.608-2.69-1.856,0-5.7,1.79-5.7,2.63a0.421,0.421,0,0,0,.512.44c3.072,0,3.712.84,4.032,4.8,0.128,1.8.448,14.21,0.448,18.5a163.089,163.089,0,0,1-.9,17.02,19.232,19.232,0,0,0-.64,3.58c0,2.37,2.816,6.4,4.544,6.4,1.6,0,2.88-2.49,2.88-5.76,0-.83-0.064-3-0.256-5.63-0.064-.77-0.128-2.88-0.128-5.12Zm38.849-24.57a0.413,0.413,0,0,0-.384.32,8.493,8.493,0,0,0,1.792,3.07,6.772,6.772,0,0,0,5.5,2.43,62.134,62.134,0,0,0,10.559-1.53c3.136-.64,5.12-0.96,7.871-1.28,1.536-.26,2.3-0.71,2.3-1.48,0-1.4-3.711-3.64-5.951-3.64a3.552,3.552,0,0,0-1.728.7,11.306,11.306,0,0,1-3.392,1.28,57.594,57.594,0,0,1-11.455,1.73c-2.048,0-3.84-.51-4.608-1.28A0.653,0.653,0,0,0,283.074,1695.8Zm32.126,16.7a4.474,4.474,0,0,1,1.408-.83,2,2,0,0,0,.768-0.45,1.172,1.172,0,0,0,.256-0.7c0-.58,0-0.58-1.408-1.99-2.88-2.88-3.968-3.65-4.864-3.65-0.448,0-.768.13-2.5,0.9a16.14,16.14,0,0,1-4.927,1.54c-5.184,1.08-16.767,2.62-19.839,2.62-2.368,0-4.671-.9-5.375-2.11a0.791,0.791,0,0,0-.576-0.58c-0.384,0-.576.51-0.576,1.54,0,2.88,3.519,6.59,6.271,6.59,0.448,0,.448,0,2.5-0.96,3.136-1.54,15.935-4.35,19.647-4.35,1.344,0,2.112.38,2.112,1.15,0,0.64-.384,1.73-1.728,4.86-2.752,6.4-4.864,9.73-8.384,13.57-4.991,5.38-12.1,9.86-18.238,11.39-0.512.13-.7,0.32-0.7,0.58a0.573,0.573,0,0,0,.7.51,35.49,35.49,0,0,0,9.663-2.18,45.944,45.944,0,0,0,16.7-11.96C309.184,1724.4,311.488,1720.44,315.2,1712.5Zm20.8-15.1c-2.3,0-3.9.32-3.9,0.83,0,0.19.192,0.32,0.7,0.45,3.264,0.96,7.808,5.18,9.344,8.57,0.9,1.92,1.472,2.43,2.752,2.43a3.522,3.522,0,0,0,3.519-3.39C348.418,1701.88,342.211,1697.4,336,1697.4Zm41.085,0.19a1.73,1.73,0,0,0-.96.77c-3.9,5.18-13.183,14.14-21.566,20.73-6.976,5.51-12.927,8.64-16.383,8.64-1.472,0-3.328-.77-3.776-1.53-0.32-.64-0.384-0.64-0.576-0.64-0.512,0-.9,1.21-0.9,2.56,0,1.4.9,2.75,3.328,5.05,1.856,1.73,3.456,2.69,4.48,2.69a1.764,1.764,0,0,0,.9-0.39c0.448-.32.832-0.7,1.216-1.02a7.129,7.129,0,0,1,1.216-.83,96.131,96.131,0,0,0,27.262-24.77c2.687-3.65,6.207-9.79,6.207-10.81A0.548,0.548,0,0,0,377.088,1697.59Zm9.412,19.13c2.56-.06,4.864-0.12,5.7-0.19,2.816-.06,4.735-0.13,5.5-0.13H442.24a0.894,0.894,0,0,0,1.088-.76,2.427,2.427,0,0,0-1.216-1.6l-5.951-4.74-4.992,5.25H397.7l-5.759-.13c-1.024-.06-3.712-0.13-6.848-0.19Zm95.742,14.98v8.57c0,3.14.832,3.4,10.367,3.4,11.967,0,16-.71,16-2.76a3.176,3.176,0,0,0-1.6-2.3c-1.344-.9-1.6-1.22-1.6-2.18v-0.57c0.384-3.46.64-6.08,0.64-6.72s-0.256-1.02-.64-1.02c-0.256,0-.32.06-0.96,1.91-1.28,3.52-2.944,6.98-3.712,7.81-0.895.96-2.367,1.09-10.431,1.09-2.816,0-2.944-.06-2.944-1.22v-6.01h4.8v1.34c0,0.64.128,0.83,0.832,0.83a14.822,14.822,0,0,0,3.328-.57c1.024-.32,1.344-0.64,1.344-1.35v-12.22l1.088-.25a1.122,1.122,0,0,0,.768-1.09,1.908,1.908,0,0,0-.64-1.22l-5.056-5.18-2.24,3.26h-25.6l-6.784-2.17v21.37c0,0.51.384,0.77,1.088,0.77,2.24,0,4.288-.71,4.288-1.54v-1.98h5.7c-2.048,6.21-7.808,10.56-17.407,12.99-1.344.38-1.536,0.51-1.536,0.9a0.673,0.673,0,0,0,.768.57,57.072,57.072,0,0,0,11.9-2.56,21.54,21.54,0,0,0,12.8-11.9h5.44Zm-17.663-1.73v-3.33h27.582v3.33H464.579Zm0-5.05v-3.01h27.582v3.01H464.579Zm0-4.74v-3.2h27.582v3.2H464.579Zm-7.871-7.68h24.638a0.655,0.655,0,0,0,.512-0.7,1.03,1.03,0,0,0-.32-0.71l-4.736-3.65-3.008,3.33h-6.655v-5.05h4.288v1.34c0,0.45.256,0.64,0.9,0.64a13.657,13.657,0,0,0,3.007-.45,0.983,0.983,0,0,0,.9-1.09v-5.69l1.024-.32a0.588,0.588,0,0,0,.384-0.64,1.19,1.19,0,0,0-.448-0.83l-4.415-3.84-2.112,2.88h-3.584v-4.67H480.13a0.876,0.876,0,0,0,.768-0.96,1.345,1.345,0,0,0-.512-1.03l-4.992-3.84-3.583,4.1H457.156l-5.76-3.14v27.46c0,0.64.256,0.89,1.024,0.89,2.176,0,4.288-.64,4.288-1.28v-2.75Zm0-1.73v-5.05h5.439v5.05h-5.439Zm0-6.78v-4.54h14.719v4.54H456.708Zm0-6.27v-4.67h5.439v4.67h-5.439Zm41.277-1.67H486.594a49.854,49.854,0,0,0,2.687-4.22l2.048-.51a0.916,0.916,0,0,0,.7-0.96,1.267,1.267,0,0,0-.7-1.15l-6.143-3.14a51.779,51.779,0,0,1-6.976,17.15c-0.7,1.02-.768,1.09-0.768,1.34a0.543,0.543,0,0,0,.512.45c0.256,0,.256,0,2.432-1.92a46.093,46.093,0,0,0,4.928-5.31h21.054a1.058,1.058,0,0,0,.9-1.09,1.239,1.239,0,0,0-.512-1.02l-4.928-3.84Zm-15.423,11.78c3.9-.13,5.5-0.19,7.359-0.19h12.671a0.906,0.906,0,0,0,.768-0.9,1.667,1.667,0,0,0-.32-0.9l-5.119-3.96-3.584,4.03h-4.416c-1.984,0-3.775-.07-8.575-0.26Z" transform="translate(-110.281 -1686.06)"/>
</svg>
