<svg xmlns="http://www.w3.org/2000/svg" width="635.776" height="35.85" viewBox="0 0 635.776 35.85">
  <defs>
    <style>
      .cls-1 {
        fill: #333;
        fill-rule: evenodd;
      }
    </style>
  </defs>
  <path id="森のレストラン_MARCHERANT" data-name="森のレストラン MARCHERANT" class="cls-1" d="M443.325,2890.87c0,0.58.273,0.82,0.974,0.82a7.911,7.911,0,0,0,2.375-.47,1.154,1.154,0,0,0,.779-1.13v-8.65a4.5,4.5,0,0,1,1.246,1.6c0.818,2.38.818,2.38,1.129,2.77a1.632,1.632,0,0,0,1.285.7,2.041,2.041,0,0,0,1.908-2.11c0-2.1-2.258-3.7-5.568-3.89v-2.38h4.789c0.662,0,.9-0.11.9-0.5a1,1,0,0,0-.35-0.62l-2.843-2.57-1.986,2.64h-0.506v-2.72l1.012-.63a0.771,0.771,0,0,0-.311-1.48l-4.829-.58v5.41h-2.687c-2.3,0-2.57,0-5.218-.15l0.662,1.32c2.22-.12,2.259-0.12,4.556-0.12h2.025a33.553,33.553,0,0,1-6.931,10.67,0.883,0.883,0,0,0-.39.63,0.352,0.352,0,0,0,.351.35c0.973,0,4.828-2.77,7.632-5.45v6.54Zm8.061-18.46c0,0.66.311,0.9,1.285,0.9,2.141,0,3.271-.63,3.271-1.8v-8.1c2.92,4.6,6,7.05,12.266,9.82a7.3,7.3,0,0,1,4.089-4.29,28.762,28.762,0,0,1-15.382-5.99l-0.428-.35h12.5a0.554,0.554,0,0,0,.662-0.55,0.639,0.639,0,0,0-.234-0.54l-3.816-3.43-2.453,3.47h-7.2v-2.81l0.779-.62a1.137,1.137,0,0,0,.545-0.86,0.8,0.8,0,0,0-.779-0.7l-5.1-.54v5.53h-5.335c-0.428,0-1.83-.04-3.271-0.08l-4.4-.16,0.623,1.48,3.738-.11c1.48-.04,2.843-0.08,3.31-0.08h3.232a38.381,38.381,0,0,1-12.578,10.51,0.431,0.431,0,0,0-.35.35,0.283,0.283,0,0,0,.311.31,23.622,23.622,0,0,0,4.79-1.55,43.7,43.7,0,0,0,9.93-5.92v6.11Zm8.177,18.73c0,0.62.117,0.74,0.662,0.74a9.687,9.687,0,0,0,2.609-.58,1.085,1.085,0,0,0,.779-1.13v-9.85c0.818,3.34,3.271,7.28,5.724,9.03,0.935-2.34,1.636-3.39,2.921-4.32-4.167-1.52-6.581-3.59-8.256-7.01h7.321c0.468,0,.7-0.16.7-0.47a0.866,0.866,0,0,0-.35-0.66l-3.778-3.27-2.453,3.35h-1.83v-2.42l0.857-.54a0.917,0.917,0,0,0,.506-0.74,0.691,0.691,0,0,0-.7-0.7l-4.712-.59v4.99h-0.428c-2.025,0-2.57,0-5.218-.16l0.467,1.32,2.765-.07,2.1-.04a31.706,31.706,0,0,1-8.022,11.1,0.9,0.9,0,0,0-.428.58,0.261,0.261,0,0,0,.272.27,9.876,9.876,0,0,0,2.648-1.32,39.312,39.312,0,0,0,5.841-4.09v6.58Zm36.767-28.46h0.195a9.492,9.492,0,0,1,5.88,2.37c1.947,1.87,3.076,5.18,3.076,9.07a14.094,14.094,0,0,1-3.933,10.36,19.124,19.124,0,0,1-6.736,4.13c-0.857.27-1.13,0.47-1.13,0.7a0.356,0.356,0,0,0,.39.35,22.753,22.753,0,0,0,5.88-1.6c6.659-2.72,10.553-7.98,10.553-14.25,0-7.44-5.686-12.5-14.058-12.5a16.481,16.481,0,0,0-11.02,4.01,15.707,15.707,0,0,0-5.88,11.8,10.173,10.173,0,0,0,2.648,7.24,4.565,4.565,0,0,0,2.687,1.37c1.83,0,4.79-2.14,6.853-4.95a25.97,25.97,0,0,0,4.751-13.7,17.286,17.286,0,0,0-.584-4.37,0.857,0.857,0,0,0,.312-0.03h0.116Zm-2.375.27a0.31,0.31,0,0,1,.039.11v0.08a11.035,11.035,0,0,1,.195,2.07,21.964,21.964,0,0,1-3.116,10.39c-1.752,3.2-4.283,5.77-5.607,5.77-1.012,0-1.986-1.95-1.986-4.01a17.076,17.076,0,0,1,4.322-10.95,12.746,12.746,0,0,1,6.153-3.54v0.08Zm59.2,2.1a1.494,1.494,0,0,0-.9.82,48.9,48.9,0,0,1-5.529,5.72,50.483,50.483,0,0,1-7.633,5.92c-3.777,2.42-6.347,3.74-7.32,3.78-0.507.04-.546-0.24-0.546-2.57,0-5.38.312-9.27,0.818-10.36a2.419,2.419,0,0,0,.467-1.13c0-1.25-3.543-3.66-5.334-3.66-1.052,0-2.8.58-2.8,0.94,0,0.11.078,0.19,0.467,0.27a2.918,2.918,0,0,1,2.1,1.83c0.389,0.97.623,4.71,0.623,9.54,0,4.32-.156,5.84-0.662,7.01a1.3,1.3,0,0,0-.156.54c0,0.35.312,0.78,1.324,1.83,1.207,1.21,1.753,1.56,2.453,1.56a1.6,1.6,0,0,0,1.169-.7,8.276,8.276,0,0,1,2.92-2.1,47.527,47.527,0,0,0,16.044-13.98,24.787,24.787,0,0,0,2.8-4.99A0.338,0.338,0,0,0,553.152,2865.05Zm26.915-1.64a62.32,62.32,0,0,1-9.151,1.48,3.573,3.573,0,0,1-2.882-1.16c-0.116-.2-0.155-0.24-0.272-0.24-0.195,0-.312.31-0.312,0.98a3.22,3.22,0,0,0,1.13,2.68,4.187,4.187,0,0,0,2.219,1.29,2.258,2.258,0,0,0,1.129-.47,43.4,43.4,0,0,1,8.334-2.65,0.548,0.548,0,0,1,.545.59,7.646,7.646,0,0,1-.545,1.79,42.188,42.188,0,0,1-5.413,9.54A34.778,34.778,0,0,1,562,2887.75c-0.545.31-.662,0.43-0.662,0.63a0.416,0.416,0,0,0,.467.39,30.281,30.281,0,0,0,6.308-2.46,33.535,33.535,0,0,0,11.955-10.08c2.414,1.51,4.712,4.51,6.347,8.33,0.974,2.22,1.324,2.61,2.454,2.61a2.54,2.54,0,0,0,2.648-2.45c0-3.7-4.868-7.99-10.748-9.51a50.108,50.108,0,0,0,4.984-8.72c1.285-.74,1.441-0.86,1.441-1.17,0-.74-3.388-3.42-4.283-3.42a3.094,3.094,0,0,0-1.441.74C581.313,2862.75,580.729,2863.06,580.067,2863.41Zm38.675,5.61c0.156-4.75.312-5.72,0.935-6.93a1.755,1.755,0,0,0,.233-0.7,4.469,4.469,0,0,0-1.012-1.75,4.728,4.728,0,0,0-3.154-1.87c-0.623,0-1.168.19-2.843,1.05-0.856.43-.895,0.51-0.895,0.74,0,0.19.077,0.23,0.662,0.23,1.051,0.04,1.4.2,1.752,0.86,0.467,0.93.7,3.93,0.7,9.15,0,7.71-.351,13.82-0.857,15.62a4.814,4.814,0,0,0-.234,1.09,5.8,5.8,0,0,0,1.091,2.45,2.459,2.459,0,0,0,1.986,1.48c1.285,0,2.064-1.44,2.064-3.86,0-.5-0.039-1.12-0.078-1.86-0.195-3.82-.312-7.36-0.39-14.65,2.337,1.02,4.284,2.92,6.309,6.08,0.934,1.52,1.635,2.02,2.726,2.02a2.409,2.409,0,0,0,2.375-2.18c0-1.52-1.441-3.35-3.661-4.67A17.173,17.173,0,0,0,618.742,2869.02Zm46.814-8.53a2.435,2.435,0,0,0-.935.28c-0.973.5-.973,0.5-1.168,0.62a34.817,34.817,0,0,1-7.983,1.44c-1.635,0-2.414-.23-3-0.82a0.76,0.76,0,0,0-.467-0.27,0.267,0.267,0,0,0-.2.27,5.124,5.124,0,0,0,1.013,1.95,4.271,4.271,0,0,0,3.543,1.67,30.98,30.98,0,0,0,5.569-.74c3-.54,3.738-0.66,5.957-0.97,0.9-.12,1.324-0.39,1.324-0.89a2.03,2.03,0,0,0-1.051-1.48A6.071,6.071,0,0,0,665.556,2860.49Zm6.542,11.88c1.246-.89,1.324-0.93,1.324-1.24s-0.234-.59-1.012-1.33c-1.675-1.52-2.921-2.37-3.5-2.37a4.565,4.565,0,0,0-1.246.46,13.269,13.269,0,0,1-4.478,1.33,101.122,101.122,0,0,1-10.281,1.13,4.462,4.462,0,0,1-3.426-1.41,0.654,0.654,0,0,0-.351-0.35,1.149,1.149,0,0,0-.467,1.13c0,1.79,2.336,4.33,4.011,4.33a2.22,2.22,0,0,0,1.012-.39,43.974,43.974,0,0,1,12.15-2.92,1.116,1.116,0,0,1,1.246.97c0,1.09-1.986,5.45-3.583,7.83a25.4,25.4,0,0,1-13.278,10.04c-0.39.12-.507,0.2-0.507,0.39a0.307,0.307,0,0,0,.351.35,19.758,19.758,0,0,0,2.3-.43,26.109,26.109,0,0,0,14.6-8.84C668.71,2878.95,669.917,2876.85,672.1,2872.37Zm44.594-9.27a0.758,0.758,0,0,0-.584.39,64.6,64.6,0,0,1-10.631,10.48c-5.412,4.32-10.007,6.89-12.655,7.01a3.406,3.406,0,0,1-2.726-1.21c-0.078-.16-0.117-0.19-0.2-0.19-0.311,0-.623.85-0.623,1.71,0,1.09.7,2.22,2.142,3.5a4.791,4.791,0,0,0,2.57,1.44c0.467,0,.818-0.15,1.947-0.93,0.117-.08.506-0.31,0.935-0.58a59.65,59.65,0,0,0,15.809-14.1c2.064-2.69,4.284-6.43,4.284-7.17A0.317,0.317,0,0,0,716.692,2863.1Zm-25.038-.5c-1.4,0-2.61.31-2.61,0.66,0,0.15.117,0.23,0.429,0.35,2.531,0.86,4.205,2.49,5.763,5.57a1.684,1.684,0,0,0,1.713,1.21,2.3,2.3,0,0,0,2.415-2.26C699.364,2865.28,695.625,2862.6,691.654,2862.6Zm54.37-2.61h-9.7V2861c3.115,0,3.933.66,3.933,3.27v19.98c0,2.53-.818,3.23-3.933,3.39v0.97H746.1v-0.97c-3.232-.04-4.323-0.86-4.362-3.39v-22l10.514,26.36h0.74l10.242-26.52v22.35c0,2.42-.935,3.16-3.895,3.2v0.97H772.5v-0.97c-3.037-.04-3.816-0.71-3.855-3.2v-20.17c0-2.61.74-3.23,3.777-3.27h0.234v-1.01H762.34l-7.944,20.83Zm30.653,28.62H787v-1.05c-2.8-.04-4.05-0.78-4.05-2.38a3.874,3.874,0,0,1,.156-0.97l1.674-4.87h10.086l1.83,5.18a3.832,3.832,0,0,1,.273,1.36c0,1.21-.857,1.72-2.843,1.72a10.313,10.313,0,0,1-1.051-.04v1.05h13.356v-1.05c-2.842-.27-3.816-1.01-4.906-3.82l-9.034-24.88h-2.142l-8.606,24.49c-1.051,2.96-2.648,4.29-5.062,4.21v1.05Zm8.606-10.79,4.361-12.57,4.673,12.57h-9.034Zm25.589,10.79h13.2v-1.05c-2.881-.08-3.816-0.66-3.855-2.53v-10.91h3.154l8.879,14.49h8.294v-1.05a4.1,4.1,0,0,1-4.089-2.14l-7.009-11.3c3.115-.31,4.79-0.93,6.308-2.37a6.562,6.562,0,0,0,2.064-4.95c0-4.63-3.271-6.81-10.241-6.81H810.872v1.05c2.96-.08,3.972.58,3.972,2.65v21.34c0,1.79-1.168,2.53-3.972,2.53v1.05Zm9.346-15.5v-9.07c0-2.22,1.09-3,4.05-3,5.1,0,7.554,1.95,7.554,6.07,0,4.33-2.3,6-8.177,6h-3.427Zm47.241-11.17a13.405,13.405,0,0,0-7.827-2.57c-8.334,0-14.369,6.58-14.369,15.61,0,8.57,5.685,14.25,14.174,14.25a11.072,11.072,0,0,0,8.216-3.11c1.675-1.68,2.648-3.27,3.972-6.62l-1.207-.66c-2.531,5.91-5.413,8.45-9.618,8.45a9.423,9.423,0,0,1-7.282-3.47c-1.519-1.95-2.181-4.6-2.181-8.8,0-9.42,3-14.29,8.762-14.29a8.073,8.073,0,0,1,6.5,3.11c1.324,1.6,2.064,3.2,3.037,6.39l1.246-.23-0.7-10.01h-1.013Zm8.923,26.67h13.123v-0.94c-3.038-.15-3.817-0.77-3.817-2.95v-10.21h13.63v10.24c0,2.22-.974,2.92-3.972,2.92v0.94h13.239v-0.94c-2.8.04-3.855-.77-3.894-2.95v-20.45c0.039-2.53,1.013-3.35,4.011-3.35v-0.93h-13.24v0.93c2.8,0,3.817.9,3.856,3.35v8.8h-13.63v-8.8c0-2.49.857-3.23,3.933-3.35v-0.93H876.46v0.93c2.92,0.08,3.855.9,3.855,3.35v20.45c0,2.29-.857,2.92-3.933,2.95v0.94Zm36.377,0h24.182l0.662-10.87h-1.13c-0.934,3.98-1.051,4.41-2.064,6.08-1.635,2.69-3.894,3.74-8.177,3.74-3.31,0-4.206-.7-4.206-3.31v-10.24h1.363c3.972,0,5.686,1.87,5.763,6.34h0.974v-13.63h-0.974c-0.116,4.52-1.713,6.24-5.763,6.24h-1.363v-9.04c0-2.18,1.013-2.92,4.089-2.92,3,0,5.062.51,6.542,1.64,1.791,1.32,2.609,3.15,3.427,7.28h1.09l-0.467-9.93H912.759V2861c2.881,0,3.932.78,3.971,2.92v19.94c-0.039,2.92-.856,3.66-3.971,3.7v1.05Zm29.132,0h13.2v-1.05c-2.882-.08-3.816-0.66-3.855-2.53v-10.91h3.154l8.878,14.49h8.295v-1.05a4.1,4.1,0,0,1-4.089-2.14l-7.009-11.3c3.115-.31,4.789-0.93,6.308-2.37a6.562,6.562,0,0,0,2.064-4.95c0-4.63-3.271-6.81-10.242-6.81H941.891v1.05c2.959-.08,3.972.58,3.972,2.65v21.34c0,1.79-1.168,2.53-3.972,2.53v1.05Zm9.346-15.5v-9.07c0-2.22,1.09-3,4.05-3,5.1,0,7.554,1.95,7.554,6.07,0,4.33-2.3,6-8.178,6h-3.426Zm24.382,15.5h10.32v-1.05c-2.8-.04-4.05-0.78-4.05-2.38a3.92,3.92,0,0,1,.155-0.97l1.675-4.87h10.086l1.83,5.18a3.851,3.851,0,0,1,.272,1.36c0,1.21-.856,1.72-2.842,1.72a10.332,10.332,0,0,1-1.052-.04v1.05h13.357v-1.05c-2.84-.27-3.82-1.01-4.91-3.82l-9.031-24.88h-2.142l-8.605,24.49c-1.052,2.96-2.648,4.29-5.063,4.21v1.05Zm8.606-10.79,4.361-12.57,4.673,12.57h-9.034Zm25.585,10.79h9.35v-0.9c-2.8-.11-3.93-0.85-3.93-2.57v-20.87l19,24.88h1.56V2864c0-2.1,1.17-3.04,3.89-3.08v-0.93h-9.34v0.93c2.68,0,3.89.94,3.89,3.08v17.13l-16.12-21.14h-8.3v0.93c2.07,0.04,3.2.51,3.9,1.56v22.66c-0.04,1.76-.97,2.42-3.9,2.57v0.9Zm33.93-18.38h1.21c0.66-3.78,1.24-5.53,2.33-7.05a5.709,5.709,0,0,1,4.87-2.26c1.99,0,2.53.55,2.57,2.57v21.5c0,1.91-1.25,2.61-4.6,2.65v0.97h14.65v-0.97c-3.24-.04-4.52-0.78-4.6-2.65v-21.46c0-1.87.7-2.61,2.53-2.61a5.983,5.983,0,0,1,5.38,3.35,15.373,15.373,0,0,1,1.79,5.96h1.24l-0.35-10.24h-26.52Z" transform="translate(-435.344 -2856.03)"/>
</svg>
