<svg xmlns="http://www.w3.org/2000/svg" width="191.844" height="30" viewBox="0 0 191.844 30">
  <defs>
    <style>
      .cls-1 {
        fill: #333;
        fill-rule: evenodd;
      }
    </style>
  </defs>
  <path id="レストラン" class="cls-1" d="M631.113,2329.4c0.036-4.71.432-8.53,0.935-9.32a1.508,1.508,0,0,0,.288-0.9c0-.47-0.468-1.04-1.727-1.98a4.808,4.808,0,0,0-2.7-1.15,11.394,11.394,0,0,0-2.159.43,0.42,0.42,0,0,0-.36.32c0,0.18.108,0.26,0.54,0.29,1.655,0.29,2.231,1.69,2.231,5.33,0,0.5,0,2.48.036,5.9v2.49a6.514,6.514,0,0,1-.4,2.77,1.818,1.818,0,0,0-.324.83c0,0.79,2.411,3.16,3.239,3.16a0.612,0.612,0,0,0,.5-0.32,8.09,8.09,0,0,1,3.094-2.3,43.156,43.156,0,0,0,7.053-4.68,35.616,35.616,0,0,0,8.6-9.43,20.643,20.643,0,0,0,1.619-3.06,0.382,0.382,0,0,0-.324-0.33,0.476,0.476,0,0,0-.36.29,46.216,46.216,0,0,1-8.06,8.21c-3.85,3.16-9.715,6.58-11.3,6.58-0.324,0-.432-0.1-0.432-0.46v-2.67Zm45.559-12.56c-3.778.79-4.246,0.86-5.289,0.86a2.655,2.655,0,0,1-2.2-.79c-0.18-.32-0.18-0.32-0.324-0.32a1.39,1.39,0,0,0-.4,1.15,2.409,2.409,0,0,0,.864,1.69,4.565,4.565,0,0,0,2.015,1.15,3.226,3.226,0,0,0,1.079-.36,47.933,47.933,0,0,1,6.369-2.26,4.139,4.139,0,0,1,1.44-.33,0.489,0.489,0,0,1,.575.47,9.985,9.985,0,0,1-.863,2.48,35.872,35.872,0,0,1-4.282,7.56,32.005,32.005,0,0,1-11.587,9.83c-0.971.43-1.187,0.58-1.187,0.76a0.292,0.292,0,0,0,.324.25,8.525,8.525,0,0,0,1.763-.43,28.578,28.578,0,0,0,9.535-5.22,32.238,32.238,0,0,0,5.29-5.76,16.665,16.665,0,0,1,6.513,7.95c0.684,1.66,1.079,2.09,1.943,2.09a2.257,2.257,0,0,0,2.195-2.23c0-1.69-1.223-3.67-3.346-5.37a16.352,16.352,0,0,0-6.837-3.2,61.187,61.187,0,0,0,4.642-8.06c0.827-.51,1.151-0.79,1.151-1.12,0-.29-0.216-0.57-1.008-1.22-1.367-1.12-2.23-1.66-2.626-1.66a2.242,2.242,0,0,0-1.26.69,4.163,4.163,0,0,1-2.267.97Zm42.574,11.45-0.036-2.95-0.072-3.28a12.678,12.678,0,0,1,5.649,4.82,10.007,10.007,0,0,0,1.151,1.69,2.155,2.155,0,0,0,1.656.76,1.833,1.833,0,0,0,1.907-1.91c0-1.29-1.188-2.84-2.987-3.99-1.979-1.26-3.958-1.8-7.34-2.09a25.982,25.982,0,0,1,.5-5.87,3.643,3.643,0,0,0,.5-1.4,3.431,3.431,0,0,0-.971-1.66,3.835,3.835,0,0,0-2.591-1.51c-1.044,0-3.2,1.01-3.2,1.48a0.238,0.238,0,0,0,.288.25c1.727,0,2.087.47,2.267,2.7,0.072,1.01.252,7.99,0.252,10.4a92,92,0,0,1-.5,9.58,10.691,10.691,0,0,0-.36,2.01c0,1.33,1.584,3.6,2.555,3.6,0.9,0,1.619-1.4,1.619-3.24,0-.47-0.036-1.69-0.144-3.17-0.035-.43-0.071-1.62-0.071-2.88Zm34.441-13.82a0.225,0.225,0,0,0-.216.18,4.788,4.788,0,0,0,1.007,1.72,3.81,3.81,0,0,0,3.1,1.37,34.644,34.644,0,0,0,5.937-.86c1.763-.36,2.879-0.54,4.426-0.72,0.863-.15,1.295-0.4,1.295-0.83,0-.79-2.087-2.05-3.346-2.05a2.045,2.045,0,0,0-.972.39,6.343,6.343,0,0,1-1.907.72,32.28,32.28,0,0,1-6.441.98,3.989,3.989,0,0,1-2.591-.72A0.357,0.357,0,0,0,753.687,2314.47Zm18.063,9.39a2.7,2.7,0,0,1,.792-0.47,1.12,1.12,0,0,0,.431-0.25,0.648,0.648,0,0,0,.144-0.4c0-.32,0-0.32-0.791-1.11-1.62-1.62-2.231-2.05-2.735-2.05a3.788,3.788,0,0,0-1.4.5,8.854,8.854,0,0,1-2.771.86,91.523,91.523,0,0,1-11.155,1.48,3.691,3.691,0,0,1-3.022-1.19,0.438,0.438,0,0,0-.324-0.32c-0.216,0-.324.29-0.324,0.86,0,1.62,1.979,3.71,3.526,3.71a3.119,3.119,0,0,0,1.4-.54,47.072,47.072,0,0,1,11.046-2.45c0.756,0,1.188.22,1.188,0.65a9.8,9.8,0,0,1-.972,2.74,24.007,24.007,0,0,1-4.713,7.63,22.771,22.771,0,0,1-10.256,6.4,0.389,0.389,0,0,0-.4.33,0.318,0.318,0,0,0,.4.28,20.028,20.028,0,0,0,5.434-1.22,25.867,25.867,0,0,0,9.391-6.73C768.368,2330.55,769.663,2328.32,771.75,2323.86Zm22.135-8.49c-1.3,0-2.195.18-2.195,0.46,0,0.11.108,0.18,0.4,0.25a10.494,10.494,0,0,1,5.253,4.83c0.5,1.08.828,1.37,1.547,1.37a1.988,1.988,0,0,0,1.979-1.91C800.865,2317.88,797.375,2315.37,793.885,2315.37Zm23.1,0.1a1,1,0,0,0-.54.43,79.512,79.512,0,0,1-12.126,11.67c-3.922,3.09-7.269,4.86-9.212,4.86a2.926,2.926,0,0,1-2.123-.87c-0.18-.36-0.216-0.36-0.324-0.36-0.288,0-.5.69-0.5,1.44,0,0.79.5,1.55,1.871,2.85a4.725,4.725,0,0,0,2.519,1.51,1.016,1.016,0,0,0,.5-0.22c0.252-.18.468-0.39,0.684-0.57a3.6,3.6,0,0,1,.684-0.47,54,54,0,0,0,15.328-13.93c1.512-2.05,3.491-5.51,3.491-6.08A0.312,0.312,0,0,0,816.986,2315.47Z" transform="translate(-625.406 -2310.91)"/>
</svg>
