<svg id="Layer_1" data-name="Layer 1" xmlns="http://www.w3.org/2000/svg" viewBox="0 0 267.26 53.37"><path d="M388.51,254.06c0,.64.19.83.77.83,2.81,0,13.24-6.08,20.09-11.71a81.84,81.84,0,0,0,14.34-14.59c.25-.38.44-.51.64-.51a.68.68,0,0,1,.57.57,36,36,0,0,1-2.88,5.44,63.31,63.31,0,0,1-15.29,16.77,76.21,76.21,0,0,1-12.55,8.32c-2.94,1.53-4.67,2.81-5.5,4.09a1.12,1.12,0,0,1-.9.58c-1.47,0-5.76-4.22-5.76-5.63,0-.26,0-.26.58-1.47a11.57,11.57,0,0,0,.71-4.93V247.4c-.07-6.08-.07-9.6-.07-10.49,0-6.46-1-9-4-9.47-.76-.07-1-.19-1-.51s.2-.45.64-.58a20.48,20.48,0,0,1,3.84-.77,8.62,8.62,0,0,1,4.8,2c2.24,1.66,3.07,2.69,3.07,3.52,0,.51,0,.58-.51,1.6-.89,1.41-1.6,8.19-1.66,16.57Z" transform="translate(-378.33 -216.43)" fill="#fff"/><path d="M462.94,226.22a7.31,7.31,0,0,0,4-1.73c1.15-.89,1.67-1.21,2.24-1.21s2.24,1,4.67,2.94c1.41,1.15,1.8,1.67,1.8,2.18s-.58,1.09-2.05,2a108.43,108.43,0,0,1-8.26,14.34,29,29,0,0,1,12.16,5.69c3.78,3,6,6.53,6,9.54a4,4,0,0,1-3.9,4c-1.54,0-2.24-.76-3.46-3.71a29.68,29.68,0,0,0-11.58-14.14c-4.22,5.44-6.33,7.68-9.41,10.24a50.63,50.63,0,0,1-17,9.28,14.45,14.45,0,0,1-3.13.77.53.53,0,0,1-.58-.45c0-.32.39-.58,2.11-1.35,7.17-3.26,14.85-9.72,20.61-17.47a64.16,64.16,0,0,0,7.62-13.43c1.08-2.63,1.53-3.84,1.53-4.42s-.38-.83-1-.83a7.51,7.51,0,0,0-2.56.57,86.68,86.68,0,0,0-11.33,4,5.74,5.74,0,0,1-1.92.65,8.07,8.07,0,0,1-3.58-2.05,4.34,4.34,0,0,1-1.54-3c0-1,.39-2.05.71-2.05s.25,0,.57.58c.51.83,2,1.41,3.91,1.41s2.68-.13,9.4-1.54Z" transform="translate(-378.33 -216.43)" fill="#fff"/><path d="M512.41,253.29c0,2.24.07,4.35.13,5.12.19,2.63.26,4.8.26,5.63,0,3.27-1.28,5.76-2.88,5.76s-4.55-4-4.55-6.4a18.94,18.94,0,0,1,.64-3.58,161.19,161.19,0,0,0,.9-17c0-4.29-.32-16.71-.45-18.5-.32-4-1-4.8-4-4.8-.32,0-.51-.13-.51-.45,0-.83,3.84-2.62,5.69-2.62,1.41,0,2.82.83,4.61,2.69,1.09,1.28,1.73,2.3,1.73,2.94,0,.45-.07.58-.9,2.5a46.21,46.21,0,0,0-.89,10.43c6,.51,9.53,1.47,13.05,3.71,3.2,2.05,5.31,4.8,5.31,7.1a3.26,3.26,0,0,1-3.39,3.4,3.84,3.84,0,0,1-2.94-1.35c-.32-.32-.32-.32-2.05-3a22.55,22.55,0,0,0-10-8.57l.13,5.82.06,5.25Z" transform="translate(-378.33 -216.43)" fill="#fff"/><path d="M574.17,255a46.16,46.16,0,0,1-16.7,12,35.54,35.54,0,0,1-9.66,2.18c-.45,0-.71-.19-.71-.51s.19-.45.71-.58c6.14-1.54,13.24-6,18.24-11.39,3.52-3.84,5.63-7.17,8.38-13.57,1.34-3.13,1.73-4.22,1.73-4.86S575.39,237,574,237c-3.71,0-16.51,2.81-19.64,4.35-2,1-2,1-2.5,1-2.75,0-6.27-3.71-6.27-6.59,0-1,.19-1.54.58-1.54.19,0,.32.13.57.58.71,1.21,3,2.11,5.38,2.11A165.46,165.46,0,0,0,572,234.28a15.8,15.8,0,0,0,4.92-1.53c1.73-.77,2.05-.9,2.5-.9.9,0,2,.77,4.86,3.65,1.41,1.41,1.41,1.41,1.41,2a1.23,1.23,0,0,1-.25.71,2.06,2.06,0,0,1-.77.45,4.47,4.47,0,0,0-1.41.83C579.55,247.4,577.25,251.37,574.17,255Zm-22.52-31.87c.77.76,2.56,1.28,4.6,1.28a57.64,57.64,0,0,0,11.46-1.73,11.25,11.25,0,0,0,3.39-1.28c1-.58,1.35-.71,1.73-.71,2.24,0,5.95,2.24,5.95,3.65,0,.77-.77,1.22-2.3,1.47-2.75.32-4.74.64-7.87,1.28a61.5,61.5,0,0,1-10.56,1.54,6.78,6.78,0,0,1-5.51-2.43,8.57,8.57,0,0,1-1.79-3.07.41.41,0,0,1,.38-.32C551.33,222.77,551.39,222.83,551.65,223.09Z" transform="translate(-378.33 -216.43)" fill="#fff"/><path d="M616.48,233.26a3.53,3.53,0,0,1-3.52,3.39c-1.28,0-1.86-.51-2.75-2.43-1.54-3.39-6.08-7.61-9.35-8.57-.51-.13-.7-.26-.7-.45,0-.51,1.6-.83,3.9-.83C610.27,224.37,616.48,228.85,616.48,233.26ZM645.6,225c0,1-3.52,7.16-6.21,10.81a96.14,96.14,0,0,1-27.26,24.77,7.13,7.13,0,0,0-1.22.83c-.38.32-.77.7-1.22,1a1.84,1.84,0,0,1-.89.39c-1,0-2.63-1-4.48-2.69-2.43-2.31-3.33-3.65-3.33-5.06s.39-2.56.9-2.56c.19,0,.25,0,.57.64s2.31,1.54,3.78,1.54c3.45,0,9.41-3.14,16.38-8.64,8.38-6.59,17.66-15.55,21.57-20.73.45-.52.7-.77,1-.77A.54.54,0,0,1,645.6,225Z" transform="translate(-378.33 -216.43)" fill="#fff"/></svg>