<svg xmlns="http://www.w3.org/2000/svg" viewBox="0 0 174.71 174.71">
  <title>Asset 1</title>
  <g id="Layer_2" data-name="Layer 2">
    <g id="レイヤー_1" data-name="レイヤー 1">
      <path class="cls-1" d="M148.21,150A87.11,87.11,0,1,0,135,160.58l4,9a8.14,8.14,0,0,0,7.41,4.83,8.42,8.42,0,0,0,3.41-.74A8.14,8.14,0,0,0,154,162.9ZM87.36,169.71A82.4,82.4,0,1,1,146,145.12l-7.51-16.88A65.49,65.49,0,0,0,87.36,21.85l-.83,0c-1.74-5.5-5.3-9.79-10.27-11.55-10-3.57-22.05,4.41-26.81,17.79a34.08,34.08,0,0,0-1.69,7.07,65.5,65.5,0,0,0-18.42,82.6l-1.92,5.4a8.17,8.17,0,0,0,5,10.42,8.13,8.13,0,0,0,6.22-.32,7.76,7.76,0,0,0,1.27-.76,65.46,65.46,0,0,0,86,7.75l7,15.67A81.8,81.8,0,0,1,87.36,169.71Zm37.19-58.87L119.71,100a15.1,15.1,0,0,0,6.81-10.36c.91-5-.08-10.9-2.87-17.17l-9.79-22a2.5,2.5,0,0,0-4.57,2l9.79,22c2.38,5.34,3.25,10.26,2.52,14.23a10.23,10.23,0,0,1-3.95,6.63l-17.3-38.86a2.5,2.5,0,0,0-4.57,2l17.3,38.85c-7.2,1.43-13.13-5.43-16.46-12.89l-9.78-22a2.5,2.5,0,0,0-4.57,2l9.79,22c4.58,10.29,11.67,16,19.13,16a15,15,0,0,0,4-.56L120,112.88l-5.19,2.31,9.08,20.39a60.45,60.45,0,0,1-80.95-7.18L62.78,72.6l-5.35-1.91,4-11.22a15.31,15.31,0,0,0,2.63.23,18.85,18.85,0,0,0,10.66-3.6A30.68,30.68,0,0,0,85.8,41a32,32,0,0,0,1.77-14.18A60.48,60.48,0,0,1,136.2,123l-6.46-14.51ZM47.63,41.76c.65,7.08,3.89,13.09,9.09,16L52.72,69l-5.35-1.91-15.66,44A60.46,60.46,0,0,1,47.63,41.76Zm13,12.36c-7.42-2.64-10.34-13.56-6.51-24.34,3.27-9.17,10.39-15.33,17-15.33a9.88,9.88,0,0,1,3.4.58C82,17.67,84.93,28.58,81.09,39.36A25.65,25.65,0,0,1,71.89,52C68.1,54.59,64.12,55.35,60.67,54.12ZM32.14,124.86,50.41,73.5l6,2.13L38.13,127a3.1,3.1,0,0,1-1.61,1.78,3.17,3.17,0,0,1-2.48.09A3.13,3.13,0,0,1,32.14,124.86Zm117.3,42.47a3.17,3.17,0,0,1-1.73,1.78,3.14,3.14,0,0,1-4.14-1.59l-22.17-49.8,5.81-2.58,22.17,49.79A3.12,3.12,0,0,1,149.44,167.33Z"/>
    </g>
  </g>
</svg>
