<svg xmlns="http://www.w3.org/2000/svg" width="502.562" height="35.85" viewBox="0 0 502.562 35.85">
  <defs>
    <style>
      .cls-1 {
        fill: #333;
        fill-rule: evenodd;
      }
    </style>
  </defs>
  <path id="森のジェラテリア_ROCCO" data-name="森のジェラテリア ROCCO" class="cls-1" d="M613.672,7260.9c0,0.59.272,0.82,0.973,0.82a7.614,7.614,0,0,0,2.375-.47,1.145,1.145,0,0,0,.779-1.13v-8.64a4.4,4.4,0,0,1,1.246,1.6c0.818,2.37.818,2.37,1.13,2.76a1.6,1.6,0,0,0,1.285.7,2.032,2.032,0,0,0,1.908-2.1c0-2.1-2.259-3.7-5.569-3.9v-2.37h4.79c0.662,0,.895-0.12.895-0.51a1.022,1.022,0,0,0-.35-0.62l-2.843-2.57-1.986,2.65H617.8v-2.73l1.013-.62a0.8,0.8,0,0,0,.467-0.7,0.78,0.78,0,0,0-.779-0.78l-4.828-.58v5.41h-2.687c-2.3,0-2.57,0-5.218-.16l0.662,1.33c2.219-.12,2.258-0.12,4.556-0.12h2.025a33.78,33.78,0,0,1-6.932,10.67,0.871,0.871,0,0,0-.389.62,0.345,0.345,0,0,0,.35.35c0.974,0,4.829-2.76,7.633-5.45v6.54Zm8.06-18.45c0,0.66.312,0.89,1.285,0.89,2.142,0,3.271-.62,3.271-1.79v-8.1c2.921,4.6,6,7.05,12.266,9.81a7.287,7.287,0,0,1,4.089-4.28,28.847,28.847,0,0,1-15.381-6l-0.429-.35h12.5a0.548,0.548,0,0,0,.662-0.54,0.661,0.661,0,0,0-.233-0.55l-3.817-3.42-2.453,3.46h-7.2v-2.8l0.779-.63a1.121,1.121,0,0,0,.545-0.85,0.792,0.792,0,0,0-.779-0.7l-5.1-.55v5.53H616.4c-0.428,0-1.83-.04-3.271-0.08l-4.4-.15,0.623,1.48,3.738-.12c1.48-.04,2.843-0.08,3.31-0.08h3.232a38.4,38.4,0,0,1-12.577,10.52,0.421,0.421,0,0,0-.351.35,0.288,0.288,0,0,0,.312.31,23.821,23.821,0,0,0,4.789-1.56,43.323,43.323,0,0,0,9.93-5.92v6.12Zm8.178,18.73c0,0.62.116,0.74,0.662,0.74a9.722,9.722,0,0,0,2.609-.59,1.07,1.07,0,0,0,.778-1.13v-9.85c0.818,3.35,3.271,7.28,5.725,9.03,0.934-2.33,1.635-3.38,2.92-4.32-4.166-1.52-6.581-3.58-8.255-7.01h7.321c0.467,0,.7-0.15.7-0.46a0.883,0.883,0,0,0-.351-0.67l-3.777-3.27L635.79,7247h-1.831v-2.41l0.857-.55a0.9,0.9,0,0,0,.506-0.74,0.7,0.7,0,0,0-.7-0.7l-4.711-.58V7247h-0.429c-2.025,0-2.57,0-5.218-.15l0.468,1.32,2.764-.08,2.1-.04a31.6,31.6,0,0,1-8.022,11.1,0.924,0.924,0,0,0-.428.58,0.27,0.27,0,0,0,.273.28,9.777,9.777,0,0,0,2.648-1.33,37.909,37.909,0,0,0,5.841-4.09v6.59Zm36.767-28.47h0.195a9.448,9.448,0,0,1,5.88,2.38c1.947,1.86,3.076,5.17,3.076,9.07a14.11,14.11,0,0,1-3.933,10.36,19.248,19.248,0,0,1-6.737,4.12c-0.857.28-1.129,0.47-1.129,0.71a0.362,0.362,0,0,0,.389.35,22.742,22.742,0,0,0,5.88-1.6c6.659-2.73,10.553-7.98,10.553-14.25,0-7.44-5.685-12.5-14.057-12.5a16.432,16.432,0,0,0-11.021,4.01,15.675,15.675,0,0,0-5.88,11.8,10.19,10.19,0,0,0,2.648,7.24,4.548,4.548,0,0,0,2.687,1.36c1.831,0,4.79-2.14,6.854-4.94a25.973,25.973,0,0,0,4.751-13.71,17.181,17.181,0,0,0-.585-4.36,0.655,0.655,0,0,0,.312-0.04h0.117Zm-2.376.27a0.315,0.315,0,0,1,.039.12v0.08a10.842,10.842,0,0,1,.195,2.06,21.966,21.966,0,0,1-3.115,10.4c-1.752,3.19-4.284,5.76-5.608,5.76-1.012,0-1.986-1.95-1.986-4.01a17.05,17.05,0,0,1,4.323-10.94,12.754,12.754,0,0,1,6.152-3.55v0.08Zm54.33-6.66c-1.13,0-1.753.2-1.753,0.55a0.373,0.373,0,0,0,.312.31,5.531,5.531,0,0,1,3.582,3,1.331,1.331,0,0,0,1.4.97,1.722,1.722,0,0,0,1.792-1.71C723.966,7227.69,721.668,7226.32,718.631,7226.32Zm-5.3,2.34c-1.013,0-1.675.2-1.675,0.55,0,0.15.078,0.23,0.351,0.31a5.8,5.8,0,0,1,3.115,2.8c0.506,0.86.7,1.01,1.324,1.01a1.732,1.732,0,0,0,1.83-1.71C718.28,7229.91,716.177,7228.66,713.335,7228.66Zm-14.019,3.35c-1.518,0-3,.43-2.959.86,0,0.15.039,0.15,0.389,0.23a8.853,8.853,0,0,1,5.452,4.44c0.7,1.32,1.051,1.6,1.986,1.6a2.482,2.482,0,0,0,2.57-2.34C706.754,7234.15,703.405,7232.01,699.316,7232.01Zm-4.088,7.63c-1.363,0-2.61.39-2.648,0.78,0,0.12.038,0.16,0.35,0.23a8.994,8.994,0,0,1,4.984,4.52c0.662,1.17.9,1.36,1.87,1.36a2.278,2.278,0,0,0,2.375-2.22C702.159,7241.82,698.927,7239.64,695.228,7239.64Zm5.3,18.58a53.681,53.681,0,0,0,18.458-16.59c1.908-2.73,3.894-6.43,3.894-7.28a0.291,0.291,0,0,0-.311-0.32c-0.195,0-.273.08-0.584,0.55-1.753,2.84-6.153,7.51-10.475,11.14-5.88,4.98-11.293,8.06-14.1,8.06a3.057,3.057,0,0,1-2.258-1.05c-0.156-.32-0.195-0.32-0.273-0.32-0.311,0-.584.7-0.584,1.56,0,0.98.273,1.52,1.363,2.69,1.441,1.56,2.687,2.37,3.5,2.37A1.843,1.843,0,0,0,700.523,7258.22Zm34.12-5.53a1.488,1.488,0,0,0-.74,1.36c0,0.54.311,0.93,1.285,1.64,1.324,0.97,1.83,1.2,2.57,1.2a5.07,5.07,0,0,0,1.947-.47c2.531-.93,7.71-1.63,12.3-1.63a40.146,40.146,0,0,1,8.333.82,3.755,3.755,0,0,0,.935.15,1.244,1.244,0,0,0,1.285-1.01c0-1.21-2.1-2.92-4.05-3.35a15.074,15.074,0,0,0-1.947.66c-3.738.47-4.4,0.55-7.2,0.82,0.078-4.13.273-5.88,0.935-7.86a2.074,2.074,0,0,0,.078-0.36c0-.35-0.351-0.7-1.247-1.28,2.181-.08,3.038-0.12,3.817-0.12,0.817,0,1.908.04,2.609,0.12a6.445,6.445,0,0,0,.817.04,1.221,1.221,0,0,0,1.363-1.09c0-.86-2.375-2.57-3.543-2.57a1.245,1.245,0,0,0-.74.27,16.177,16.177,0,0,1-4.245,1.21c-1.713.27-7.126,0.78-8.606,0.78a3.055,3.055,0,0,1-2.414-1.13,0.206,0.206,0,0,0-.117-0.08,1.077,1.077,0,0,0-.194.9c0,1.44,1.324,3.11,2.492,3.11a4.206,4.206,0,0,0,.973-0.23,26.511,26.511,0,0,1,4.206-.86,1.291,1.291,0,0,1,.545,1.05c0.078,0.94.156,2.65,0.156,4.56,0,1.44-.039,2.18-0.156,3.85-3.972.31-7.476,0.55-8.372,0.55C735.811,7253.74,734.993,7253.47,734.643,7252.69Zm59.975-22.16a2.576,2.576,0,0,0-.934.27c-0.974.51-.974,0.51-1.169,0.63a35.365,35.365,0,0,1-7.982,1.44c-1.636,0-2.415-.24-3-0.82a0.71,0.71,0,0,0-.467-0.27,0.259,0.259,0,0,0-.2.27,5.21,5.21,0,0,0,1.013,1.95,4.274,4.274,0,0,0,3.543,1.67,31.981,31.981,0,0,0,5.569-.74c3-.55,3.738-0.66,5.958-0.97,0.895-.12,1.324-0.39,1.324-0.9a2.048,2.048,0,0,0-1.052-1.48A6.035,6.035,0,0,0,794.618,7230.53Zm6.542,11.88c1.246-.9,1.324-0.94,1.324-1.25s-0.233-.58-1.012-1.32c-1.675-1.52-2.921-2.38-3.5-2.38a4.758,4.758,0,0,0-1.246.47,13.545,13.545,0,0,1-4.478,1.32,98.351,98.351,0,0,1-10.28,1.13,4.459,4.459,0,0,1-3.427-1.4,0.654,0.654,0,0,0-.351-0.35,1.138,1.138,0,0,0-.467,1.13c0,1.79,2.337,4.32,4.011,4.32a2.216,2.216,0,0,0,1.012-.39,43.974,43.974,0,0,1,12.15-2.92,1.123,1.123,0,0,1,1.246.97c0,1.09-1.986,5.46-3.583,7.83a25.466,25.466,0,0,1-13.278,10.05c-0.39.11-.507,0.19-0.507,0.39a0.311,0.311,0,0,0,.351.35,22.281,22.281,0,0,0,2.3-.43,26.106,26.106,0,0,0,14.6-8.84C797.772,7248.99,798.98,7246.88,801.16,7242.41Zm21.152-10.48a0.388,0.388,0,0,0-.311.39,5.64,5.64,0,0,0,.934,1.95,3.233,3.233,0,0,0,3,1.56,66.277,66.277,0,0,0,11.526-2.07c0.935-.27,1.363-0.58,1.363-1.01,0-.94-2.1-2.3-3.544-2.3a3.3,3.3,0,0,0-1.713.55,22.662,22.662,0,0,1-8.333,1.9,4.411,4.411,0,0,1-2.726-.81A0.421,0.421,0,0,0,822.312,7231.93Zm7.594,9.5a1.4,1.4,0,0,1,.272.94,18.408,18.408,0,0,1-2.414,7.67,25.566,25.566,0,0,1-9.346,9.54c-0.779.43-.856,0.51-0.856,0.62a0.328,0.328,0,0,0,.311.27,5.978,5.978,0,0,0,1.519-.46,26.4,26.4,0,0,0,7.359-3.97c3.5-2.81,5.919-6.47,7.983-12a1.432,1.432,0,0,0,.74-0.97c0-.39-0.662-1.05-2.025-2.03,1.48-.07,2.22-0.11,3.193-0.11a36.228,36.228,0,0,1,5.3.39,12.512,12.512,0,0,0,1.675.19,1.349,1.349,0,0,0,1.557-1.13c0-.62-0.506-1.32-1.557-2.1a7.331,7.331,0,0,0-2.843-1.21c-1.986,1.13-3.193,1.48-6.892,1.99-4.323.62-12.111,1.36-14.214,1.36-1.557,0-2.648-.35-3.076-1.01-0.195-.31-0.234-0.35-0.35-0.35a0.781,0.781,0,0,0-.234.74,3.613,3.613,0,0,0,1.4,2.61,5.773,5.773,0,0,0,2.609,1.36,1.725,1.725,0,0,0,.662-0.2C821.962,7242.87,826.362,7241.82,829.906,7241.43Zm50.162-4.48c0.039-.85.039-1.32,0.039-1.55a2.821,2.821,0,0,1,.623-1.99,0.611,0.611,0,0,0,.156-0.35,3.847,3.847,0,0,0-1.558-1.6,8.359,8.359,0,0,0-4.01-1.2c-0.935,0-1.792.35-1.792,0.7a0.289,0.289,0,0,0,.234.23c1.635,0.66,2.181,1.91,2.181,5.22,0,8.99-.662,12.62-2.843,15.54a19.563,19.563,0,0,1-9,6.54c-0.7.27-.818,0.31-0.818,0.54,0,0.2.156,0.32,0.467,0.32a12.081,12.081,0,0,0,1.947-.39c4.478-1.17,7.827-2.92,10.242-5.38,3-3.04,3.894-6.07,4.049-13.47Zm-11.37,8.38c-0.117-1.29-.273-4.44-0.273-5.45a20.812,20.812,0,0,1,.351-4.41c0.077-.31.155-0.5,0.155-0.58,0-1.01-2.8-2.88-4.205-2.8-0.9.04-2.8,1.01-2.8,1.4a0.343,0.343,0,0,0,.351.27c2.063,0.39,2.336,1.25,2.336,7.01a24.13,24.13,0,0,1-.2,3.35,5.019,5.019,0,0,0-.117.93c-0.077,1.25,1.753,2.92,3.194,2.92a1.434,1.434,0,0,0,1.246-1.59Zm48.1-4.6c3.466-1.67,5.647-2.72,6.581-3.15a8.353,8.353,0,0,1,3.116-.82c1.4-.12,1.908-0.39,1.908-1.05,0-.47-0.506-1.21-1.792-2.65-1.479-1.63-2.336-2.3-3-2.3a2.071,2.071,0,0,0-1.09.31c-1.792.67-3.972,1.1-8.334,1.52-3.465.39-5.685,0.63-6.386,0.7a40.052,40.052,0,0,1-4.166.32,6.92,6.92,0,0,1-2.142-.32,2.21,2.21,0,0,1-1.246-1.24,0.374,0.374,0,0,0-.273-0.24c-0.233,0-.311.24-0.311,0.82a4.357,4.357,0,0,0,.934,2.84,6.451,6.451,0,0,0,3.427,2.26,2.106,2.106,0,0,0,.935-0.39,25.137,25.137,0,0,1,7.009-2.53,62.884,62.884,0,0,1,7.749-1.13,1.182,1.182,0,0,1,1.324.74c0,0.78-2.336,3.2-4.634,4.87a7.821,7.821,0,0,0-4.361-1.98,1.638,1.638,0,0,0-1.519.58,0.3,0.3,0,0,0,.312.31,1.547,1.547,0,0,1,1.129,1.6,18.812,18.812,0,0,1-.506,3.46,30.21,30.21,0,0,1-3.038,8.88,19.947,19.947,0,0,1-6.581,7.52,0.737,0.737,0,0,0-.467.54,0.339,0.339,0,0,0,.351.31c1.324,0,5.918-2.96,7.9-5.06C912.863,7252.02,915.083,7247.51,916.8,7240.73Zm31.2,17.91h13.2v-1.05c-2.881-.07-3.816-0.66-3.855-2.53v-10.9H960.5l8.879,14.48h8.294v-1.05a4.085,4.085,0,0,1-4.089-2.14l-7.009-11.29c3.115-.31,4.79-0.94,6.308-2.38a6.54,6.54,0,0,0,2.064-4.94c0-4.64-3.271-6.82-10.241-6.82H948v1.05c2.96-.07,3.972.59,3.972,2.65v21.34c0,1.79-1.168,2.53-3.972,2.53v1.05Zm9.346-15.49v-9.08c0-2.22,1.09-3,4.05-3,5.1,0,7.554,1.95,7.554,6.08,0,4.32-2.3,6-8.177,6h-3.427Zm39.492-13.75c-8.217,0-14.369,6.35-14.369,14.8,0,8.6,6.191,15.07,14.407,15.07a13.425,13.425,0,0,0,9.967-4.09,15.707,15.707,0,0,0,4.36-10.94C1011.2,7235.67,1005.13,7229.4,996.835,7229.4Zm-0.039,1.21c5.6,0,8.254,4.32,8.254,13.55,0,9.69-2.53,13.86-8.449,13.86-5.646,0-8.061-4.05-8.061-13.67,0-4.67.429-7.63,1.363-9.58A7.3,7.3,0,0,1,996.8,7230.61Zm41.754,1.36a13.509,13.509,0,0,0-7.83-2.57c-8.33,0-14.37,6.58-14.37,15.62,0,8.56,5.68,14.25,14.17,14.25a11.043,11.043,0,0,0,8.22-3.12c1.67-1.67,2.65-3.27,3.97-6.62l-1.2-.66c-2.54,5.92-5.42,8.45-9.62,8.45a9.407,9.407,0,0,1-7.29-3.47c-1.51-1.94-2.18-4.59-2.18-8.8,0-9.42,3-14.29,8.77-14.29a8.086,8.086,0,0,1,6.5,3.12c1.32,1.59,2.06,3.19,3.04,6.38l1.24-.23-0.7-10.01h-1.01Zm31.54,0a13.458,13.458,0,0,0-7.82-2.57c-8.34,0-14.37,6.58-14.37,15.62,0,8.56,5.68,14.25,14.17,14.25a11.043,11.043,0,0,0,8.22-3.12c1.67-1.67,2.65-3.27,3.97-6.62l-1.21-.66c-2.53,5.92-5.41,8.45-9.62,8.45a9.4,9.4,0,0,1-7.28-3.47c-1.52-1.94-2.18-4.59-2.18-8.8,0-9.42,3-14.29,8.76-14.29a8.105,8.105,0,0,1,6.51,3.12c1.32,1.59,2.06,3.19,3.03,6.38l1.25-.23-0.7-10.01h-1.01Zm23.8-2.57c-8.22,0-14.37,6.35-14.37,14.8,0,8.6,6.19,15.07,14.41,15.07a13.442,13.442,0,0,0,9.97-4.09,15.752,15.752,0,0,0,4.36-10.94C1108.26,7235.67,1102.19,7229.4,1093.89,7229.4Zm-0.04,1.21c5.61,0,8.26,4.32,8.26,13.55,0,9.69-2.53,13.86-8.45,13.86-5.65,0-8.06-4.05-8.06-13.67,0-4.67.43-7.63,1.36-9.58A7.3,7.3,0,0,1,1093.85,7230.61Z" transform="translate(-605.688 -7226.06)"/>
</svg>
