<svg xmlns="http://www.w3.org/2000/svg" width="453.629" height="32.75" viewBox="0 0 453.629 32.75">
  <defs>
    <style>
      .cls-1 {
        fill: #333;
        fill-rule: evenodd;
      }
    </style>
  </defs>
  <path id="カフェレストラン_オーク" data-name="カフェレストラン オーク" class="cls-1" d="M646.742,4678.41a0.915,0.915,0,0,0,1.09,1.13,5.741,5.741,0,0,0,4.945-3.08c1.519-2.68,2.259-5.37,3.388-12.5,0.351-2.02.39-2.18,1.013-2.65a0.957,0.957,0,0,0,.545-0.7c0.039-.62-3.349-3-4.323-3a1.021,1.021,0,0,0-.623.24c-1.752,1.32-2.063,1.44-6.581,2.18,0.39-1.79.585-2.73,0.974-4.36a1.423,1.423,0,0,0,.428-0.74c0-.98-3.66-3.2-5.218-3.2a2.214,2.214,0,0,0-1.6.59,0.514,0.514,0,0,0,.35.35c0.818,0.62,1.168,1.6,1.168,3.23a36.468,36.468,0,0,1-.311,4.95,53.371,53.371,0,0,1-6.932.81,2.543,2.543,0,0,1-2.531-1.36,0.286,0.286,0,0,0-.233-0.23c-0.195,0-.312.23-0.312,0.66a4.229,4.229,0,0,0,1.013,2.84,3.814,3.814,0,0,0,2.414,1.52,3.216,3.216,0,0,0,.973-0.23,46.881,46.881,0,0,1,5.257-1.83c-1.635,7.82-6.035,13.82-12.616,17.29a0.646,0.646,0,0,0-.507.46,0.3,0.3,0,0,0,.351.28,8.725,8.725,0,0,0,2.765-.9,20.8,20.8,0,0,0,10.669-8.84c1.6-2.53,2.454-4.71,3.622-9.34a30.236,30.236,0,0,1,5.49-1.06,0.681,0.681,0,0,1,.818.71c0,0.58-.272,3.5-0.428,4.67a36.648,36.648,0,0,1-1.441,6.15c-0.545,1.48-1.129,2.22-1.83,2.22a5.82,5.82,0,0,1-2.025-.86c-2.181-1.16-2.181-1.16-2.336-1.16a0.262,0.262,0,0,0-.273.27,0.5,0.5,0,0,0,.273.39c0.233,0.23,1.44,1.67,1.908,2.3a3.325,3.325,0,0,1,.7,2.1Zm50.318-19.35c1.713-1.09,1.869-1.21,1.869-1.56,0-.27-0.272-0.51-1.363-1.25-2.025-1.36-3.232-2.02-3.66-2.02a2.267,2.267,0,0,0-.935.31c-2.609,1.32-2.765,1.36-6.113,1.87a90.1,90.1,0,0,1-9,1.09,3.8,3.8,0,0,1-3-1.25c-0.117-.19-0.156-0.23-0.234-0.23-0.233,0-.35.39-0.35,1.09a3.728,3.728,0,0,0,1.4,2.72,4.306,4.306,0,0,0,2.609,1.33,1.5,1.5,0,0,0,.934-0.39c1.6-1.17,9.112-3,12.3-3a0.53,0.53,0,0,1,.585.62,11.716,11.716,0,0,1-.9,3.39,30.226,30.226,0,0,1-6.542,10.13,33.87,33.87,0,0,1-11.6,7.9c-0.429.16-.584,0.27-0.584,0.43a0.334,0.334,0,0,0,.389.31c1.635,0,6.192-1.63,9.19-3.27C689.038,4673.39,692.66,4669.02,697.06,4659.06Zm16.362,15.57a1.49,1.49,0,0,0-.74,1.36c0,0.55.312,0.94,1.285,1.64,1.324,0.97,1.831,1.21,2.571,1.21a5.266,5.266,0,0,0,1.947-.47c2.531-.93,7.71-1.64,12.3-1.64a40.844,40.844,0,0,1,8.333.82,3.425,3.425,0,0,0,.935.16,1.252,1.252,0,0,0,1.285-1.01c0-1.21-2.1-2.92-4.05-3.35a13.629,13.629,0,0,0-1.947.66c-3.738.47-4.4,0.54-7.2,0.82,0.078-4.13.272-5.88,0.934-7.87a2.01,2.01,0,0,0,.078-0.35c0-.35-0.35-0.7-1.246-1.28,2.181-.08,3.038-0.12,3.816-0.12,0.818,0,1.908.04,2.609,0.12,0.312,0.03.623,0.03,0.818,0.03a1.215,1.215,0,0,0,1.363-1.09c0-.85-2.375-2.57-3.544-2.57a1.206,1.206,0,0,0-.739.28,16.656,16.656,0,0,1-4.245,1.2c-1.713.28-7.126,0.78-8.606,0.78a3.055,3.055,0,0,1-2.414-1.13,0.185,0.185,0,0,0-.117-0.07,1.058,1.058,0,0,0-.2.89c0,1.44,1.324,3.12,2.493,3.12a3.9,3.9,0,0,0,.973-0.24,26.729,26.729,0,0,1,4.206-.85,1.277,1.277,0,0,1,.545,1.05c0.078,0.93.156,2.65,0.156,4.55,0,1.44-.039,2.18-0.156,3.86-3.972.31-7.477,0.54-8.372,0.54C714.591,4675.68,713.773,4675.41,713.422,4674.63Zm71.424-17.6a1.5,1.5,0,0,0-.895.82,48.84,48.84,0,0,1-5.53,5.72,50.476,50.476,0,0,1-7.632,5.92c-3.777,2.42-6.347,3.74-7.321,3.78-0.506.04-.545-0.23-0.545-2.57,0-5.37.312-9.27,0.818-10.36a2.419,2.419,0,0,0,.467-1.13c0-1.24-3.544-3.66-5.335-3.66-1.051,0-2.8.59-2.8,0.94,0,0.11.078,0.19,0.468,0.27a2.921,2.921,0,0,1,2.1,1.83c0.389,0.97.623,4.71,0.623,9.54,0,4.32-.156,5.84-0.662,7.01a1.3,1.3,0,0,0-.156.54c0,0.35.311,0.78,1.324,1.83,1.207,1.21,1.752,1.56,2.453,1.56a1.6,1.6,0,0,0,1.168-.7,8.292,8.292,0,0,1,2.921-2.1,47.514,47.514,0,0,0,16.043-13.98,24.808,24.808,0,0,0,2.8-4.99A0.339,0.339,0,0,0,784.846,4657.03Zm26.916-1.63a63.728,63.728,0,0,1-9.151,1.48,3.574,3.574,0,0,1-2.882-1.17c-0.117-.2-0.156-0.24-0.273-0.24-0.194,0-.311.31-0.311,0.98a3.222,3.222,0,0,0,1.129,2.68,4.193,4.193,0,0,0,2.22,1.29,2.264,2.264,0,0,0,1.129-.47,43.416,43.416,0,0,1,8.333-2.65,0.548,0.548,0,0,1,.546.59,7.617,7.617,0,0,1-.546,1.79,42.184,42.184,0,0,1-5.412,9.54,34.773,34.773,0,0,1-12.851,10.51c-0.545.31-.662,0.43-0.662,0.63a0.416,0.416,0,0,0,.468.39,30.281,30.281,0,0,0,6.308-2.46,33.535,33.535,0,0,0,11.955-10.08c2.414,1.52,4.711,4.51,6.347,8.33,0.973,2.22,1.324,2.61,2.453,2.61a2.539,2.539,0,0,0,2.648-2.45c0-3.7-4.867-7.99-10.747-9.51a50.173,50.173,0,0,0,4.984-8.72c1.285-.74,1.441-0.86,1.441-1.17,0-.74-3.388-3.42-4.284-3.42a3.1,3.1,0,0,0-1.44.74C813.008,4654.73,812.424,4655.04,811.762,4655.4Zm38.675,5.6c0.156-4.75.311-5.72,0.934-6.93a1.76,1.76,0,0,0,.234-0.7,4.469,4.469,0,0,0-1.012-1.75,4.728,4.728,0,0,0-3.155-1.87c-0.623,0-1.168.19-2.842,1.05-0.857.43-.9,0.51-0.9,0.74,0,0.19.078,0.23,0.662,0.23,1.052,0.04,1.4.2,1.753,0.86,0.467,0.94.7,3.93,0.7,9.15,0,7.71-.35,13.83-0.856,15.62a4.814,4.814,0,0,0-.234,1.09,5.8,5.8,0,0,0,1.09,2.45,2.459,2.459,0,0,0,1.986,1.48c1.285,0,2.064-1.44,2.064-3.86,0-.5-0.039-1.12-0.078-1.86-0.194-3.82-.311-7.36-0.389-14.65,2.336,1.02,4.283,2.92,6.308,6.08,0.935,1.52,1.636,2.02,2.726,2.02a2.409,2.409,0,0,0,2.375-2.18c0-1.52-1.44-3.35-3.66-4.67A17.177,17.177,0,0,0,850.437,4661Zm46.814-8.53a2.425,2.425,0,0,0-.935.28c-0.973.5-.973,0.5-1.168,0.62a34.827,34.827,0,0,1-7.983,1.44c-1.635,0-2.414-.23-3-0.82a0.761,0.761,0,0,0-.468-0.27,0.268,0.268,0,0,0-.194.27,5.064,5.064,0,0,0,1.012,1.95,4.274,4.274,0,0,0,3.544,1.67,31.582,31.582,0,0,0,5.568-.73c3-.55,3.738-0.67,5.958-0.98,0.9-.12,1.324-0.39,1.324-0.89a2.03,2.03,0,0,0-1.051-1.48A6.071,6.071,0,0,0,897.251,4652.47Zm6.542,11.88c1.246-.89,1.324-0.93,1.324-1.24s-0.234-.59-1.013-1.33c-1.674-1.52-2.92-2.37-3.5-2.37a4.567,4.567,0,0,0-1.247.46,13.269,13.269,0,0,1-4.478,1.33,101.105,101.105,0,0,1-10.28,1.13,4.463,4.463,0,0,1-3.427-1.41,0.65,0.65,0,0,0-.35-0.35,1.147,1.147,0,0,0-.467,1.13c0,1.79,2.336,4.33,4.01,4.33a2.218,2.218,0,0,0,1.013-.39,43.967,43.967,0,0,1,12.149-2.92,1.116,1.116,0,0,1,1.246.97c0,1.09-1.986,5.45-3.582,7.83a25.4,25.4,0,0,1-13.279,10.04c-0.389.12-.506,0.2-0.506,0.39a0.307,0.307,0,0,0,.35.35,19.722,19.722,0,0,0,2.3-.43,26.1,26.1,0,0,0,14.6-8.83C900.405,4670.93,901.612,4668.83,903.793,4664.35Zm44.594-9.27a0.756,0.756,0,0,0-.584.39,64.683,64.683,0,0,1-10.631,10.48c-5.413,4.32-10.008,6.89-12.656,7.01a3.409,3.409,0,0,1-2.726-1.21c-0.077-.16-0.116-0.19-0.194-0.19-0.312,0-.623.85-0.623,1.71,0,1.09.7,2.22,2.141,3.5a4.793,4.793,0,0,0,2.571,1.44c0.467,0,.817-0.15,1.947-0.93,0.116-.08.506-0.31,0.934-0.58a59.67,59.67,0,0,0,15.81-14.1c2.064-2.69,4.283-6.43,4.283-7.17A0.316,0.316,0,0,0,948.387,4655.08Zm-25.039-.5c-1.4,0-2.609.31-2.609,0.66,0,0.16.117,0.23,0.428,0.35,2.532,0.86,4.206,2.49,5.764,5.57a1.683,1.683,0,0,0,1.713,1.21,2.3,2.3,0,0,0,2.414-2.26C931.058,4657.26,927.32,4654.58,923.348,4654.58Zm63.015,7.08a37.771,37.771,0,0,1-4.867,6.98,34.711,34.711,0,0,1-11.176,7.94c-1.246.47-1.246,0.47-1.246,0.66s0.117,0.27.35,0.27a13.592,13.592,0,0,0,2.765-.5,30.194,30.194,0,0,0,11.41-5.96,34.623,34.623,0,0,0,5.451-6.04c0.078,2.73.156,7.75,0.156,9.54,0,2.11-.078,2.42-0.623,2.42-0.312,0-.312,0-2.337-1.01a6.154,6.154,0,0,0-1.908-.86,0.3,0.3,0,0,0-.272.23,0.58,0.58,0,0,0,.233.31,11.365,11.365,0,0,1,4.05,6.04,0.819,0.819,0,0,0,.9.82c1.908,0,4.244-2.49,4.244-4.6,0-.35-0.039-0.81-0.078-1.32-0.856-7.67-1.168-11.29-1.362-15.42,1.635-.12,2.336-0.16,3.076-0.16a28.714,28.714,0,0,1,3.66.28c0.429,0.03.857,0.07,1.091,0.07a1.4,1.4,0,0,0,1.484-1.16c0-.67-0.82-1.56-2.068-2.26a5.388,5.388,0,0,0-2.532-.82c-1.363,1.01-1.791,1.21-4.75,1.98-0.039-.77-0.039-1.32-0.039-1.75,0-2.1.233-3.85,0.623-4.4a0.644,0.644,0,0,0,.233-0.43c0-.85-2.881-2.72-4.244-2.72-0.974,0-3,.85-3,1.28,0,0.12.078,0.16,0.234,0.2,1.947,0.27,1.986.39,2.531,8.33-4.011.47-8.839,0.9-10.436,0.9-1.635,0-2.57-.35-3.154-1.13a0.585,0.585,0,0,0-.467.62c0,1.44,2.258,4.01,3.5,4.01a2.63,2.63,0,0,0,1.4-.51A30.158,30.158,0,0,1,986.363,4661.66Zm53.237,1.25a22.546,22.546,0,0,1-5.92,1.48,153.748,153.748,0,0,1-15.65.97c-3.43,0-4.63-.39-5.49-1.83a0.32,0.32,0,0,0-.27-0.19c-0.24,0-.28.19-0.28,1.4a3.856,3.856,0,0,0,1.13,2.92,8.587,8.587,0,0,0,3.47,1.68,2.678,2.678,0,0,0,.82-0.24,20.542,20.542,0,0,1,4.98-1.01,118.864,118.864,0,0,1,12.03-.7c1.76,0,4.13.08,6.16,0.23,0.93,0.08,1.86.12,2.41,0.12,1.25,0,1.99-.51,1.99-1.36C1044.98,4664.94,1042.91,4663.61,1039.6,4662.91Zm29.41-3.19a2.414,2.414,0,0,0,1.13.31,23.226,23.226,0,0,0,4.28-.7,3.231,3.231,0,0,1,.51-0.08,0.508,0.508,0,0,1,.5.58,6.425,6.425,0,0,1-.58,2.15,47.2,47.2,0,0,1-5.76,8.45c-3.9,4.4-9.89,8.64-14.49,10.28-0.82.27-.89,0.31-0.89,0.54a0.311,0.311,0,0,0,.35.31,9.107,9.107,0,0,0,1.67-.27,35.563,35.563,0,0,0,9.07-3.66c6.86-3.85,11.18-8.49,15.62-16.59,1.28-.85,1.75-1.32,1.75-1.67,0-.24-0.19-0.47-0.97-1.21-1.99-1.83-2.77-2.34-3.55-2.34a2.04,2.04,0,0,0-.97.47,15.886,15.886,0,0,1-6.35,2.18c-0.07,0-.27-0.04-0.54-0.08a13.874,13.874,0,0,0,1.98-3.5,2.632,2.632,0,0,0-.89-1.36,7.287,7.287,0,0,0-4.52-1.99,1.582,1.582,0,0,0-1.52.66,2.265,2.265,0,0,1,1.44,2.42c0,2.33-1.55,5.68-4.2,9.07a26.044,26.044,0,0,1-5.73,5.72,0.726,0.726,0,0,0-.5.59,0.263,0.263,0,0,0,.27.27,15.5,15.5,0,0,0,4.4-2.1C1063.75,4666.07,1065.62,4664.2,1069.01,4659.72Z" transform="translate(-628.531 -4649.75)"/>
</svg>
