<svg xmlns="http://www.w3.org/2000/svg" width="1379.12" height="175.94" viewBox="0 0 689.56 87.97">
  <defs>
    <style>
      .cls-1 {
        fill: #532525;
        fill-rule: evenodd;
      }
    </style>
  </defs>
  <path id="栃木県の人気ジェラート店と_ツインリングもてぎがコラボレーション" data-name="栃木県の人気ジェラート店と ツインリングもてぎがコラボレーション" class="cls-1" d="M1474.09,9361.6h2.38l-0.15-11.3v-6.02a20.34,20.34,0,0,1,2.82,4.07l1.51-1.47a18.277,18.277,0,0,0-3.21-4.11l-1.12,1.01v-5.58h0.9l3.61,0.15v-2.16l-3.61.14h-0.9v-6.3c0.87-.18,1.19-0.4,1.19-0.79,0-.36-0.39-0.61-3.57-0.83a13.778,13.778,0,0,1,.29,2.84v5.08h-1.41l-3.97-.14v2.16l3.97-.15h1.12a35.76,35.76,0,0,1-5.81,13.82,5.888,5.888,0,0,1,1.3,1.77,35.094,35.094,0,0,0,4.98-10.51Zm17.64-22.07h4.58l5.42,0.15v-2.23l-5.42.14h-11.76v-3.71a96.368,96.368,0,0,0,13.17-2.23,6.013,6.013,0,0,0,1.27.14c0.5,0,.75-0.1.75-0.39,0-.4-0.5-0.87-2.49-2.16a12.051,12.051,0,0,1-2.31.86,71.385,71.385,0,0,1-10.14,1.84,16.429,16.429,0,0,0-2.67-.87,24.268,24.268,0,0,1,.22,4.04v7.41c0,7.78-1.26,12.35-4.4,16.31a5.762,5.762,0,0,1,1.66,1.58c3.64-4.89,4.94-9.54,4.94-18.11v-2.77h4.98v1.77c0,10.36-1.7,14.22-6.75,17.85a5.323,5.323,0,0,1,1.55,1.55c4.3-3.2,6.43-6.84,7.15-13.68h6.31a56.794,56.794,0,0,1-.83,9.97c-0.28,1.33-.86,1.84-1.91,1.84a20.841,20.841,0,0,1-3.03-.25,9.438,9.438,0,0,1,.94,2.55h1.23c3.32,0,4.43-.9,4.94-3.24a65.87,65.87,0,0,0,.9-10.01l0.18-2.8-0.14-.15-4.19.15h-4.26c0.08-1.26.11-2.6,0.11-4.04v-1.51Zm31,22.14h2.6l-0.25-21.17a30.9,30.9,0,0,0,3.36,5.84,35.574,35.574,0,0,0,7.25,7.3c1.26,0.98,2.63,1.8,4,2.67a9.741,9.741,0,0,1,1.59-2.31,39.162,39.162,0,0,1-4.91-2.98,33.093,33.093,0,0,1-10.35-12.5h8.48l5.41,0.15v-2.27l-5.41.15h-9.31v-6.45c0.94-.25,1.26-0.5,1.26-0.86,0-.4-0.5-0.65-3.86-0.83a13.778,13.778,0,0,1,.29,2.84v5.3h-8.99l-5.41-.15v2.27l5.41-.15h8.01a30.924,30.924,0,0,1-3.79,6.7,32.972,32.972,0,0,1-7.14,7.06,40.23,40.23,0,0,1-3.86,2.41,9.534,9.534,0,0,1,1.59,1.98c7.43-4.47,11.76-9.58,14.29-15.88Zm46.88-14.97,4.84,0.18,0.22-.22-0.18-4.54v-7.95l0.18-4.14-0.18-.18-4.88.18h-8.55l-4.91-.18-0.14.18,0.14,4.14v7.95l-0.14,4.54,0.14,0.22,4.91-.18h8.55Zm2.68-1.8h-13.93v-3.32h13.93v3.32Zm0-5.04h-13.93v-3.17h13.93v3.17Zm0-4.9h-13.93v-3.13h13.93v3.13Zm-16.75,20.05a28.269,28.269,0,0,1-8.44,4.29,10.925,10.925,0,0,1,1.69,1.76,34.009,34.009,0,0,0,9.17-4.97,4.846,4.846,0,0,0,.9.11c0.43,0,.72-0.11.72-0.36,0-.36-0.21-0.68-2.56-2.2A10.394,10.394,0,0,1,1555.54,9355.01Zm12.6,0.15a66.658,66.658,0,0,1,10.03,5.61l1.66-1.87a72.7,72.7,0,0,0-10.14-5.29Zm-3.22-3.53h8.88l5.41,0.14v-2.23l-5.41.14h-22.23v-15.22c0.9-.25,1.26-0.51,1.26-0.87,0-.39-0.68-0.72-3.78-0.82a18.582,18.582,0,0,1,.28,3.2v11.01l-0.14,4.61,0.14,0.22,5.24-.18h8.12v4.57l-0.15,5.4h2.49l-0.11-5.4v-4.57Zm36.71,4.97a24.837,24.837,0,0,1,1.59,2.3c8.91-1.19,13.6-6.3,13.6-12.82,0-6.98-5.27-12.74-14.22-12.74-8.41,0-15.19,6.23-15.19,14.33,0,5.72,2.49,8.93,5.45,8.93,2.09,0,4.04-1.59,6.42-6.2a42.689,42.689,0,0,0,4.04-12.74,14.641,14.641,0,0,0-3.03-.75c-0.43,0-.61.14-0.61,0.36a2.051,2.051,0,0,0,.86,1,34.788,34.788,0,0,1-3.42,10.77c-1.74,3.45-3.14,4.82-4.26,4.82-1.66,0-2.92-2.12-2.92-6.26a12.27,12.27,0,0,1,12.55-12.06c7.11,0,11.52,4.5,11.52,10.26C1614.01,9352.06,1609.31,9355.88,1601.63,9356.6Zm37.68-21.64a32.5,32.5,0,0,1-.4,5.11c-1.44,8.97-6.5,15.01-14.29,18.54a11.3,11.3,0,0,1,2.02,2.09c7.25-3.78,12.23-9.61,14.18-18a26.857,26.857,0,0,0,15.34,17.82,12.4,12.4,0,0,1,1.91-2.27,41.261,41.261,0,0,1-5.23-2.84,23.813,23.813,0,0,1-7.11-7.13,29.912,29.912,0,0,1-3.97-10.73c0.07-1.33.11-3.13,0.11-5.86,0.79-.29,1.19-0.51,1.19-0.94s-0.43-.72-4.04-0.86a16.953,16.953,0,0,1,.29,3.27v1.8Zm28.83,13.18a59.879,59.879,0,0,1,7.83,4.42,34.153,34.153,0,0,1-11.83,6.48,7.122,7.122,0,0,1,1.59,1.91,37.776,37.776,0,0,0,12.05-7.13,48.172,48.172,0,0,1,6.49,5.4l1.81-1.94a62.658,62.658,0,0,0-6.61-5.08,30.3,30.3,0,0,0,3.72-4.75c1.01,0,1.41-.11,1.41-0.47,0-.43-0.36-0.72-3.18-1.62a6.59,6.59,0,0,1-1.04,2.16,24.385,24.385,0,0,1-2.75,3.5,58.094,58.094,0,0,0-8.01-4.4Zm3.83-15.91c0.36-.54.72-1.08,1.04-1.66,0.94-.07,1.3-0.18,1.3-0.54,0-.43-0.47-0.76-3.24-1.58a5.418,5.418,0,0,1-.62,1.72,25.528,25.528,0,0,1-7.36,8.25,5.835,5.835,0,0,1,1.7,1.4,29.219,29.219,0,0,0,5.77-5.61h19.09l5.41,0.14v-2.27l-5.41.15h-17.68Zm-1.34,9.86-5.41-.15v2.24l5.41-.15h17.76a50.734,50.734,0,0,0,.68,11.34c0.87,4.9,2.93,5.69,4.33,5.69,1.63,0,3.07-1.76,3.54-6.19a9.434,9.434,0,0,1-2.2-1.37c-0.22,4.14-.98,5-1.44,5-0.65,0-1.56-.86-1.99-3.56a43.283,43.283,0,0,1-.65-9.79l0.15-3.06-0.15-.15-5.27.15h-14.76Zm4.69-3.24h11.01l5.41,0.14v-2.19l-5.41.14h-11.01l-5.41-.14v2.19Zm51.18-7.34a22.726,22.726,0,0,1,4.94,5.32l1.63-1.4a23.419,23.419,0,0,0-4.98-5.15Zm-15.77,26.99c10.72-2.3,17.36-7.3,21.65-18.57a14.1,14.1,0,0,1-2.06-2.09c-4.36,11.56-11.22,16.7-21.11,18.07a2.647,2.647,0,0,0-1.19-.79,0.426,0.426,0,0,0-.43.47,19.5,19.5,0,0,0,1.12,3.35Zm19.59-29.44a21.072,21.072,0,0,1,4.66,4.89l1.55-1.36a23.125,23.125,0,0,0-4.69-4.83Zm-21.86,6.33a36.074,36.074,0,0,1,9.67,3.42l1.15-2.3a41.473,41.473,0,0,0-9.99-3.49Zm-2.06,7.78a61.387,61.387,0,0,1,9.53,2.91l0.97-2.26a54.614,54.614,0,0,0-9.67-2.96Zm52.69,1.26h4.33l4.55,0.07v-2.38l-4.55.15h-10.57l-4.55-.15v2.38l4.55-.07h3.82v10.87h-5.52l-4.55-.11v2.38l4.55-.11h13.82l4.55,0.11v-2.38l-4.55.11h-5.88v-10.87Zm50.09-3.57-0.21-.18-5.24.15h-14.07l-5.45-.15v2.67l5.45-.15h16.64c-0.15,7.13-7.01,12.5-16.71,13.68a8.923,8.923,0,0,1,1.19,2.34c11.15-1.33,18.08-7.92,18.33-16.05Zm-21.58-7.95v2.59l5.49-.11h7.4l5.48,0.11v-2.59l-5.48.14h-7.4Zm40.42,13.71h15.95l5.49,0.15v-2.92l-5.49.18h-15.95l-5.48-.18v2.92Zm42.05,7.13-0.15,5.47h2.96l-0.14-5.47v-20.34l0.25-1.72a17.984,17.984,0,0,0-3.5-.69c-0.43,0-.61.11-0.61,0.25,0,0.33.14,0.47,1.19,1.19v21.31Zm15.41-7.81a47.833,47.833,0,0,0-11.19-4.75l-1.44,2.12a48.813,48.813,0,0,1,11.18,5.01Zm39.05,13.21v2.09h2.45l-0.14-5.47v-2.95l0.14-4.18-0.14-.14-4.19.14h-5.85v-5.15h6.5l5.41,0.15v-2.2l-5.41.14h-6.5v-3.81c0.8-.32,1.2-0.54,1.2-0.86,0-.4-0.44-0.65-3.76-0.76a13.778,13.778,0,0,1,.29,2.84v9.65h-3.82l-4.19-.14-0.14.14,0.14,4.18v3.09l-0.14,5.62h2.41v-2.38h15.74Zm0-1.91h-15.74v-6.69h15.74v6.69Zm-10.76-24.19h-7.54l-5.2-.14-0.14.14,0.14,5.26v7.81c0,6.8-1.84,10.62-4.15,13.61a17.738,17.738,0,0,1,2.03,1.51c2.7-3.92,4.43-8.35,4.43-15.05V9335h21.37l5.41,0.14v-2.23l-5.34.14h-8.77v-3.27c0.79-.29,1.19-0.47,1.19-0.76,0-.39-0.43-0.61-3.72-0.72a7.882,7.882,0,0,1,.29,2.09v2.66Zm29.56-.43a111.009,111.009,0,0,1,5.6,10.66c-5.38,3.09-7.26,5.97-7.26,9.07,0,4.25,3.11,6.44,10.79,6.44a109.681,109.681,0,0,0,11.8-.61l-0.21-2.59a108.53,108.53,0,0,1-11.08.75c-6.86,0-8.88-1.15-8.88-3.92,0-2.81,2.24-4.93,6.6-7.45a119.315,119.315,0,0,1,12.67-6.16,23.2,23.2,0,0,0-1.88-2.77,1,1,0,0,0-.72-0.47,0.494,0.494,0,0,0-.47.58,4.423,4.423,0,0,0,.18.97c-3.06,1.62-5.84,2.99-9.38,4.93-1.8-3.78-3.68-7.3-5.56-10.47Zm-569.14,59.49a36.208,36.208,0,0,1,4.65,8.14l2.38-1.23a34.32,34.32,0,0,0-4.83-8.2Zm9.38-1.72a35.2,35.2,0,0,1,3.75,7.81l2.42-1.16a38.6,38.6,0,0,0-3.93-7.84Zm17.57,0.54a15.693,15.693,0,0,0-3.64-1.16c-0.43,0-.61.11-0.61,0.33a2.513,2.513,0,0,0,1.08,1.26c-0.83,10.98-8.48,18.9-19.13,21.6a8.7,8.7,0,0,1,1.77,2.19c10.72-3.63,18.01-9.5,20.14-22.78Zm35.08-2.24c-2.56-1.87-3.14-2.23-3.46-2.23a0.426,0.426,0,0,0-.47.4,3.47,3.47,0,0,0,.58,1.15c-5.31,6.44-12.78,11.52-20.93,14.94a10.243,10.243,0,0,1,1.62,1.94,69.38,69.38,0,0,0,12.49-7.02l0.58,0.58v11.52l-0.15,5.47h3l-0.15-5.51v-9.86l0.15-2.34c-0.76-.22-1.59-0.47-2.35-0.65a59.945,59.945,0,0,0,7.36-6.59Zm17.22,3.5a55.3,55.3,0,0,1,9.53,5.07l1.51-2.41a68.853,68.853,0,0,0-9.63-4.86Zm4.01,21.45c9.42-3.31,16.92-7.92,21.65-19.47a20.683,20.683,0,0,1-2.24-1.88c-4.36,11.2-12.16,16.31-20.93,18.9a2.647,2.647,0,0,0-1.19-.79,0.426,0.426,0,0,0-.43.47,19.681,19.681,0,0,0,1.19,3.45Zm41.65-23.36,0.25-1.73a18.282,18.282,0,0,0-3.43-.68c-0.43,0-.61.1-0.61,0.25,0,0.32.14,0.47,1.19,1.19v9.39l-0.15,5.47h2.89l-0.14-5.47v-8.42Zm13.85-.51,0.26-1.72a18.039,18.039,0,0,0-3.51-.69c-0.43,0-.61.11-0.61,0.25,0,0.33.15,0.47,1.19,1.19v12.53c0,7.09-3.82,10.94-12.92,11.77a12.826,12.826,0,0,1,1.12,2.34c10-.94,14.47-5.94,14.47-14.11v-11.56Zm18.45,2.42a54.837,54.837,0,0,1,9.52,5.07l1.52-2.41a68.975,68.975,0,0,0-9.64-4.86Zm4,21.45c9.42-3.31,16.93-7.92,21.65-19.47a20.613,20.613,0,0,1-2.23-1.88c-4.37,11.2-12.16,16.31-20.93,18.9a2.756,2.756,0,0,0-1.19-.79,0.428,0.428,0,0,0-.44.47,19.681,19.681,0,0,0,1.19,3.45Zm45.22-22.46c0.54-.94,1.09-1.95,1.59-3.03-2.56-1.18-3.21-1.4-3.72-1.4a0.385,0.385,0,0,0-.36.36,1.968,1.968,0,0,0,.87,1.12c-1.91,4.75-5.2,8.71-9.85,12.63a9.438,9.438,0,0,1,1.98,1.62,43.433,43.433,0,0,0,8.12-9.07l10.83-.04c-3.76,10.12-9.06,16.24-19.27,20.27a9.915,9.915,0,0,1,1.55,2.05c10.14-3.99,15.66-9.97,20.5-21.49a1.218,1.218,0,0,0,1.01-.86c0-.4-0.72-1.33-2.31-2.88h-0.44l-0.86.68Zm9.89-4.21a22.726,22.726,0,0,1,4.94,5.32l1.63-1.4a23.2,23.2,0,0,0-4.98-5.15Zm3.83-2.45a21.233,21.233,0,0,1,4.65,4.89l1.55-1.36a22.878,22.878,0,0,0-4.69-4.83Zm13.46,16.05c1.23,2.49,2.38,3.49,7.76,3.64-0.04,1.15-.11,2.34-0.11,4.14,0,5.11,1.95,7.31,8.7,7.31,7.58,0,11.47-3.28,11.47-7.06,0-2.88-1.12-5.26-7-8.75a6.312,6.312,0,0,1-1.51,1.66c4.29,2.55,5.84,4.61,5.84,6.91,0,2.77-3.82,4.93-9.27,4.93-4.58,0-5.85-1.33-5.85-5.25,0-1.7.04-2.67,0.11-3.89a52.354,52.354,0,0,0,7.36-.65l-0.25-2.3a48.281,48.281,0,0,1-6.97.68c0.15-2.34.33-4.68,0.58-7.02,2.38,0.04,4.77.07,7.18,0.14l0.08-2.3h-7.04c0.18-1.83.36-3.89,0.61-6.3-1.08-.07-2.16-0.11-3.14-0.11-0.43,0-.65.15-0.65,0.36a1.571,1.571,0,0,0,1.19.9c-0.14,1.95-.28,3.64-0.43,5.15-2.6,0-5.23,0-8.01.11l-0.04,2.09c2.24,0,4.55-.04,6.9-0.04h0.97c-0.22,2.34-.43,4.68-0.58,7.02-4.58-.14-5.55-0.94-6.06-2.45Zm65.75-9.18-0.28-2.26-0.26-.15c-8.66,1.3-16.6,2.41-26.48,3.49l0.43,2.49c5.45-.76,9.56-1.3,14-1.95l2.92-.57a23.611,23.611,0,0,0-2.41,1.44,13.557,13.557,0,0,0-5.06,10.54c0,8.72,7.83,10.77,15.05,10.77h0.58l0.07-2.81c-0.43.04-.9,0.04-1.33,0.04-5.6,0-11.95-1.41-11.95-8.18a11.726,11.726,0,0,1,5.31-9.86c2.49-1.76,5.12-2.45,9.27-2.81Zm37.32,3.17a47.665,47.665,0,0,1-8.3,3.06,43.192,43.192,0,0,1-2.6-4.46,71.909,71.909,0,0,0,7.62-2.13l-0.8-2.05c-2.74.9-5.26,1.66-7.68,2.2a26.407,26.407,0,0,1-1.63-4.83c-1.69.18-2.23,0.26-2.74,0.36a0.861,0.861,0,0,0-.79.51c0,0.29.25,0.5,1.26,0.61,0.47,1.26.94,2.52,1.55,3.85a51.44,51.44,0,0,1-9.2.83l0.18,2.12a66.3,66.3,0,0,0,9.96-1c0.79,1.54,1.62,3.09,2.53,4.57a40.392,40.392,0,0,1-8.34.97,34.807,34.807,0,0,1-4.26-.4l-0.79,1.84a21.246,21.246,0,0,0,4.65.61,43.988,43.988,0,0,0,9.96-1.22,49.67,49.67,0,0,0,3.36,4.17c-1.44.15-2.92,0.33-4.37,0.47l0.07,1.76c2.49-.07,5.2-0.1,7.69-0.1l0.29-.18,0.36-1.41-0.14-.32a25.449,25.449,0,0,1-4.84-5.01,55.711,55.711,0,0,0,7.98-2.91Zm-3.61-7.63a23.012,23.012,0,0,1,4.95,5.33l1.62-1.41a23.148,23.148,0,0,0-4.98-5.14Zm-18.87,20.88c0.22,6.95,7,7.92,12.77,7.92a50.565,50.565,0,0,0,5.13-.22l0.03-2.48c-2.09.14-3.53,0.21-5.12,0.21-4.47,0-10.28-.18-10.72-5.58Zm22.7-23.33a21.273,21.273,0,0,1,4.65,4.9l1.56-1.37a22.878,22.878,0,0,0-4.7-4.82Zm13.35,12.49c2.71-.36,5.13-0.68,7.15-0.86a102.594,102.594,0,0,1-7.98,17.57l2.21,1.08a135.2,135.2,0,0,0,8.33-18.9c1.16-.11,2.09-0.15,2.71-0.15,2.67,0,3.35.69,3.35,4.11a36.308,36.308,0,0,1-1.76,10.44c-0.55,1.65-1.27,2.52-2.21,2.52a8.159,8.159,0,0,1-4.29-2.16,12.058,12.058,0,0,1-1.08,2.01c1.73,1.51,4.18,2.77,5.7,2.77,1.73,0,3.18-1.15,4.19-3.92a37.178,37.178,0,0,0,1.94-11.7c0-5-1.66-6.3-5.52-6.3-0.5,0-1.26.04-2.23,0.11,0.68-2.2,1.33-4.39,1.91-6.55a16.915,16.915,0,0,0-3.25-.58,0.5,0.5,0,0,0-.58.36c0,0.29.29,0.54,1.01,0.83-0.5,2.05-1.04,4.1-1.69,6.16-2.28.21-5.09,0.5-8.19,0.86Zm21.62-9.18a22.964,22.964,0,0,1,4.94,5.33l1.63-1.4a23.2,23.2,0,0,0-4.98-5.15Zm3.83-2.44a21.233,21.233,0,0,1,4.65,4.89l1.55-1.37a23.074,23.074,0,0,0-4.69-4.82Zm-5.09,8.35a29.053,29.053,0,0,1,7.11,11.91l2.41-1.4a34.454,34.454,0,0,0-7.39-11.88Zm43.63,12.27v-8.78l0.14-5.29-0.18-.18-5.26.14h-11.44l-5.45-.14v2.59l5.45-.11h14v14.76h-14.33l-5.45-.11v2.59l5.45-.14h11.77l5.26,0.14,0.18-.18Zm40.24-9.11-0.22-.18-5.23.15h-14.07l-5.45-.15v2.67l5.45-.15h16.63c-0.14,7.13-7,12.5-16.7,13.68a9.239,9.239,0,0,1,1.19,2.34c11.15-1.33,18.08-7.92,18.33-16.05Zm-21.58-7.95v2.59l5.49-.11h7.39l5.49,0.11v-2.59l-5.49.14h-7.39Zm49.55,5.11v-4.46l0.25-1.73a19.255,19.255,0,0,0-3.32-.65c-0.43,0-.61.11-0.61,0.33,0,0.25.18,0.46,1.12,1.08v5.43h-7.29l-5.49-.14v2.59l5.49-.11h7.29v14.94c0,1.19-.33,1.51-1.05,1.51a16.188,16.188,0,0,1-4.47-.9,13.7,13.7,0,0,1-.18,2.34,17.46,17.46,0,0,0,5.27,1.08c1.95,0,3.06-1.08,3.06-3.27,0-.87-0.07-1.88-0.07-3.24v-12.46h6.79l5.48,0.11v-2.59l-5.48.14h-6.79Zm5.88-6.87a22.773,22.773,0,0,1,4.95,5.32l1.62-1.4a23.2,23.2,0,0,0-4.98-5.15Zm-1.4,14.83a37.448,37.448,0,0,1,6.46,8.6l2.09-1.58a41.821,41.821,0,0,0-6.57-8.54Zm5.23-17.28a21.233,21.233,0,0,1,4.65,4.89l1.56-1.36a22.923,22.923,0,0,0-4.7-4.83Zm-16.93,17.13c-2.31-1.26-3.03-1.51-3.28-1.51a0.377,0.377,0,0,0-.43.36,2.556,2.556,0,0,0,.76,1.08,23.976,23.976,0,0,1-6.25,7.78,7.67,7.67,0,0,1,1.84,1.58,31.065,31.065,0,0,0,6.68-8.28Zm38.48-10.36,0.25-1.98a18.122,18.122,0,0,0-3.5-.69c-0.43,0-.61.11-0.61,0.25,0,0.33.14,0.47,1.19,1.19l-0.15,20.59-0.43.58v0.36c1.66,1.98,2.2,2.41,2.63,2.41,0.29,0,.54-0.14.87-0.9a45.805,45.805,0,0,0,19.81-14.54,11.787,11.787,0,0,1-1.77-1.91,42.48,42.48,0,0,1-18.47,13.82Zm37.57,11.15h15.95l5.48,0.15v-2.92l-5.48.18h-15.95l-5.49-.18v2.92Zm36.52-11.44a35.61,35.61,0,0,1,9.67,3.42l1.16-2.31a41.4,41.4,0,0,0-10-3.49Zm-2.06,7.77a59.991,59.991,0,0,1,9.53,2.92l0.98-2.27a55.565,55.565,0,0,0-9.68-2.95Zm4.33,15.34c10.76-2.13,17.8-8.28,22.16-19.77a13.969,13.969,0,0,1-2.06-2.08c-4.51,11.98-11.4,17.92-21.61,19.26a2.765,2.765,0,0,0-1.19-.8,0.434,0.434,0,0,0-.44.47,20.624,20.624,0,0,0,1.12,3.35Zm53.06-8.39v6.26h-11.23l-4.51-.07v2.34l4.51-.11h9.31l4.3,0.11,0.21-.21-0.1-4.25v-9.65l0.1-4.25-0.21-.21-4.3.1h-9.13l-4.54-.1v2.37l4.54-.07h11.05v5.58h-9.78l-4.51-.11v2.34l4.51-.07h9.78Zm20.79-13.71a55.2,55.2,0,0,1,9.52,5.07l1.52-2.41a68.975,68.975,0,0,0-9.64-4.86Zm4,21.45c9.42-3.31,16.93-7.92,21.65-19.47a20.613,20.613,0,0,1-2.23-1.88c-4.37,11.2-12.17,16.31-20.93,18.9a2.708,2.708,0,0,0-1.2-.79,0.426,0.426,0,0,0-.43.47,19.681,19.681,0,0,0,1.19,3.45Z" transform="translate(-1374.19 -9327.75)"/>
</svg>
