<svg xmlns="http://www.w3.org/2000/svg" viewBox="0 0 588.09 140.98"><defs><style>.cls-1{fill:#fff;}</style></defs><title>top-title_1</title><g id="Layer_2" data-name="Layer 2"><g id="Layer_1-2" data-name="Layer 1"><path class="cls-1" d="M3.57,40.51l5.32.23c2.21.07,4.11.07,4.87.07H22v-10l4.94.68c1.37.15,1.83.46,1.83,1.14s-.31.76-1.37,1.29l-1.68.69v6.15h4.57l3.19-4.1,5.09,4.1h11.7V30.63l5.17.91c.84.15,1.29.61,1.29,1.14a.91.91,0,0,1-.83,1l-1.83.61v6.53H64.22l4-4.1,4.63,3.72a2.1,2.1,0,0,1,.84,1.45.94.94,0,0,1-.76,1H54.27c4.18,7.29,11.47,13.75,21,18.46a8.21,8.21,0,0,0-3,1.6c-.23.23-.76.76-2,1.9A62.77,62.77,0,0,1,54.11,45.68V67a2.91,2.91,0,0,1-2.88,2.81c-.61,0-.92-.46-.92-1.29V47.88c-7.44,8.89-12.54,13.76-20.14,19-1.14.76-1.29.84-1.67.84a.75.75,0,0,1-.76-.61c0-.45,0-.45,3-2.89A103,103,0,0,0,49.17,42.87H25.76v4.56c5.25,1.06,5.93,1.21,7.45,2,2.21,1.29,3,2.35,3,4a1.77,1.77,0,0,1-1.59,2c-.76,0-1.45-.46-2.36-1.52-2.89-3.2-3.42-3.65-6.54-5.32V68.1a1.4,1.4,0,0,1-.68,1.37,6.25,6.25,0,0,1-2.36.91c-.45,0-.68-.3-.68-1V47.58A63.23,63.23,0,0,1,8.59,63.69c-3,2.74-4.79,4-5.47,4a.65.65,0,0,1-.54-.61c0-.3.31-.68,1.07-1.37,5.32-4.63,15-17.63,17-22.87H13.76c-1.68,0-2.51,0-8.14.22Zm5.7-29.95,7.53.31c2.43.07,4.48.07,5.62.07H37.24V0l5,1c.76.15,1.21.45,1.21.91a1.21,1.21,0,0,1-.76,1L41,3.72v7.22H58.29l3.65-4.25,5.32,3.8c.92.68,1.22,1.06,1.22,1.59s-.38.92-1.06.92H41.35C48.72,21.05,57.08,25.23,73,28.81c-4,2.5-4.48,2.81-5.55,4.18C54.11,27.59,47.43,23.26,41,15.58V30.86c0,1.06-1.59,2.28-3,2.28a.82.82,0,0,1-.84-.91V15.35A95.77,95.77,0,0,1,11.86,32.53C4.64,35.87,4.41,36,3.8,36A.76.76,0,0,1,3,35.19c0-.46.38-.76,1.52-1.37,13.68-7,22.35-13.07,29.57-20.82H22.42c-.68,0-2.66.07-5.62.15-.61.07-2.59.07-4.72.15Z"/><path class="cls-1" d="M101.61,48.87c-3.19,4.94-5.62,7.45-7.22,7.45-.53,0-1-.46-1.9-1.67a2.49,2.49,0,0,0-1.44-1.22c-3.34-1.44-5.78-7.14-5.78-13.38,0-15.2,13.76-27.43,30.78-27.43,15,0,26.38,9.57,26.38,22.19,0,8.21-5.63,16-14.67,20.37-3.88,1.9-12,4.41-14.21,4.41a.72.72,0,0,1-.76-.76c0-.54.38-.84,1.74-1.22A57.85,57.85,0,0,0,127,52.37c7.07-4.41,10.79-10.64,10.79-18.24a17.71,17.71,0,0,0-9.58-16,29.56,29.56,0,0,0-13.52-3.35,26.15,26.15,0,0,0-3.8.3c2.58,1.37,4.86,3.58,4.86,4.64,0,.61-.3,1-1.6,2C109.37,34.66,106,42,101.61,48.87Zm7-33.37A25.09,25.09,0,0,0,98.5,20.29c-6.54,5.1-9.58,11.25-9.58,19.23,0,4.56.91,7.75,2.89,10.26a4,4,0,0,0,2.66,1.83c2.2,0,5.62-5.25,9.5-14.29,3.72-8.82,6.16-16.27,6.16-18.85A3.13,3.13,0,0,0,109.06,16Z"/><path class="cls-1" d="M161.5,25.92h.91c7.83.45,14.21,4.33,14.21,8.66a2.17,2.17,0,0,1-2.12,2.13c-.92,0-1.37-.38-2.28-1.75-3-4.25-4.41-5.24-10.64-7.75l-.31-.15ZM219,22c-.15.23-.38.46-.38.54l-.38.38a262.63,262.63,0,0,1-20.45,20.75c-6.23,5.7-7.52,6.68-17.55,13.14A8.46,8.46,0,0,0,177.38,59c-.76.83-1.21,1.14-1.67,1.14-1.06,0-3.42-1.6-5.62-3.95a7.63,7.63,0,0,1-2.28-5.93v-.69a1.87,1.87,0,0,1,.07-.53h1.3v.38c.3,1.9,2.73,4.49,4.25,4.49,2.51,0,13.91-6.92,22.73-13.76a196.7,196.7,0,0,0,21.2-19.23l.23-.3ZM168.8,11.63h2c7.3,0,13.6,3.49,13.6,7.6,0,1.37-.76,2.35-1.82,2.35s-1.52-.37-3.12-2.2A18.83,18.83,0,0,0,169,13l-.3-.08ZM197.91,8c7.06,2.36,10.86,5.24,10.86,8.21,0,1.44-.83,2.43-2,2.43s-1.52-.3-3.19-2.89A19.8,19.8,0,0,0,196.84,9Zm8.28-5.24.38.15c6.39,1.52,10.34,4.33,10.34,7.29a1.93,1.93,0,0,1-1.83,2.13c-.76,0-1.44-.45-2.5-1.75A25.82,25.82,0,0,0,205.28,4Z"/><path class="cls-1" d="M238.64,51.91A6.16,6.16,0,0,0,243.35,54c1.6,0,1.68,0,9.05-.68,2.73-.31,4.56-.38,8.51-.61-.08-1.29-.08-1.6-.08-2V48.41c.08-1.29.08-2.58.08-3.26,0-5.93-.08-7.45-.38-8.14s-.84-.83-2.58-1.36c-1.07.15-1.9.3-2.28.38-1.07.07-2.06.22-3.12.38l-1.9.3a3.25,3.25,0,0,0-2.13.76,2.21,2.21,0,0,1-1.21.46c-1.68,0-4.94-3.5-4.94-5.17,0-.61.3-.84.83-.84a7.8,7.8,0,0,0,5.4,2.28,10.73,10.73,0,0,0,1.29-.07l.76-.08c1.29-.15,2.13-.23,2.51-.3l7.07-.92c3-.38,4.18-.45,11.4-1a23.78,23.78,0,0,0,2.5-.23,6.22,6.22,0,0,0,1.75-.84,1.24,1.24,0,0,1,.46-.15,1,1,0,0,1,.38.08l.3.15c3.12,1.29,4.41,2.28,4.41,3.49,0,.61-.45,1-1.29,1-.15,0-.15,0-2.28-.23-1.29-.07-2.74-.15-4.26-.15-2.81,0-6.08.15-10.26.38,2.43,1.07,2.89,1.45,2.89,2s-.3.84-1.37,1.52l-.07.84c-.08,3.65-.16,4-.23,6-.15,3.8-.15,4.41-.15,6.62l5.55-.23c5.54-.23,9.19-.46,9.42-.53a5.53,5.53,0,0,0,1.75-.61,1.73,1.73,0,0,1,1-.38,9.81,9.81,0,0,1,3,1.44c1.52,1.07,2.28,2,2.28,2.89A1.15,1.15,0,0,1,286.22,56a5.14,5.14,0,0,1-1.29-.22c-1.68-.46-7.83-.84-13.53-.84s-7.53.15-21.13,1.82l-3.65.46-1.06.08a1.4,1.4,0,0,0-.91.38,1.36,1.36,0,0,1-1,.45c-2,0-6.08-3.8-6.08-5.62,0-.46.22-.61.91-.76Z"/><path class="cls-1" d="M353.86,22.57l5,3a2.19,2.19,0,0,1,1.29,1.75c0,.69-.61,1.14-1.67,1.14l-1.37.08c-5.1,11.32-11.4,19.83-19.84,26.9-5.24,4.41-14.21,9.5-16.72,9.5a.75.75,0,0,1-.76-.68c0-.68.53-1.14,2-1.82a61.8,61.8,0,0,0,30-34.89c-11.48.15-29.8,2.43-31.24,4a2.74,2.74,0,0,1-1,.38c-.68,0-1.9-1-4.18-3.27a5.74,5.74,0,0,1-1.82-3.8c0-.53.3-.76,1.06-.76,1.9,2.36,3,3,4.56,3,1.14,0,5.63-.38,10.64-.91,10.11-1.07,17.18-1.68,22.5-1.9Zm-34-12.69c1,1.75,1.83,2.36,3.35,2.36a27.46,27.46,0,0,0,3-.23c3-.23,6.69-.46,11-.69l6.08-.3,2.89-.23a3,3,0,0,0,1.29-.23c.16,0,.38-.3.84-.68a2.6,2.6,0,0,1,1.52-.76,11.24,11.24,0,0,1,4.56,2.05,2.79,2.79,0,0,1,1.14,1.67c0,.92-1.14,1.45-2.89,1.45a14.66,14.66,0,0,1-1.67-.08c-1.82-.07-3.5-.15-4.64-.15-9.12,0-19.38,1.14-21.28,2.28a2.51,2.51,0,0,1-1.06.53c-.31,0-.84-.38-2.66-1.9-2.13-1.75-2.58-2.51-2.58-4.25,0-.69.22-.84.83-.84h.3Z"/><path class="cls-1" d="M384,24.25l.15.45c1.3,2.89,2.06,3.19,6.77,3.19a66.13,66.13,0,0,0,6.61-.45c4-.38,6.84-.61,8.13-.76.76,0,2.51-.15,4.87-.31,1.52-.07,3.11-.22,5.09-.3,5.55-.46,7.14-.53,9.65-.53,4.18-.08,4.72-.15,6.16-.76a3.71,3.71,0,0,1,1.44-.53,24.58,24.58,0,0,1,4.64,1.9c1.75,1,2.58,1.9,2.58,2.66A1.48,1.48,0,0,1,438.6,30a11.27,11.27,0,0,1-2.36-.38,73.6,73.6,0,0,0-13.75-1c-3,0-4.87.08-8.52.31,4.34,2.35,5.63,3.34,5.63,4.33,0,.61-.61,1-2.21,1.6A53.75,53.75,0,0,1,405.69,54c-4.48,4.71-11.32,10-13,10-.53,0-.83-.23-.83-.61,0-.68.45-1.14,2.35-2.66a51.81,51.81,0,0,0,13.3-15.2c3-5.17,5.4-10.87,5.4-13,0-1.14-.53-1.9-2.28-3.19-5.32.46-9.27,1-16.19,1.9-.76.15-1.67.23-1.67.23a9.37,9.37,0,0,0-1.52.38,7.88,7.88,0,0,0-.84.61,1.82,1.82,0,0,1-1.06.45c-.76,0-3.19-1.74-4.87-3.42-1.36-1.36-1.67-2.35-1.59-4.63Zm7.91-13.91c.07.22.15.3.15.38l.15.3c1,2.2,2.21,2.66,6.54,2.66a78.71,78.71,0,0,0,9.5-.76c5.24-.61,5.62-.68,9.12-.91a16.65,16.65,0,0,0,3.34-.31,5.3,5.3,0,0,0,1.37-.6,10.75,10.75,0,0,0,1.14-.76,2.59,2.59,0,0,1,1.29-.46c.46,0,.46,0,4.18,1.67,1.22.53,2.06,1.52,2.06,2.28S430,15.2,429,15.2a15.71,15.71,0,0,1-1.82-.08c-1.22-.07-2.43-.15-4.26-.15a164.68,164.68,0,0,0-18.47,1.22c-4.18.53-5.47.76-7.14,1.52a1.78,1.78,0,0,1-.84.3c-.6,0-2.81-1.52-4.1-2.81a6,6,0,0,1-1.82-3.57V11.1a.31.31,0,0,0,.07-.23Z"/><path class="cls-1" d="M497.5,16c.15,2.81.38,8.82.38,10.19,0,10.33-1.22,17.25-3.73,22q-4.89,9.12-18.24,15.05a25.79,25.79,0,0,1-6.38,2.12.84.84,0,0,1-.84-.83c0-.61.38-.91,2-1.6a46.26,46.26,0,0,0,15.81-10.56,21.14,21.14,0,0,0,6.15-12.47,87.21,87.21,0,0,0,.92-13.07c0-3.57-.31-12.54-.54-14.14-.22-1.75-.91-2.28-4.4-3.34,0-1.22.83-1.67,2.73-1.67a18.14,18.14,0,0,1,6.31,1.9c1.22.6,1.75,1.14,1.75,1.9a2.46,2.46,0,0,1-1,1.67c-.84.76-.91.91-.91,1.67Zm-20,2.28c.15,9,.38,18.7.53,21,.08.91.15,1.67.15,2.2,0,1.14-.76,2.21-1.52,2.21-1.21,0-3.26-2.28-3.26-3.65a3.44,3.44,0,0,1,.3-1.14,12.35,12.35,0,0,0,.38-3.65c0-3.8-.3-14-.53-17.94-.31-4.25-.53-4.48-4-5.24a1.12,1.12,0,0,1-.15-.53c0-.61.76-1.07,1.67-1.07a18.5,18.5,0,0,1,7.14,2.13c.76.46,1.07.91,1.07,1.44s-.23.76-1,1.14-.76.31-.76.92Z"/><path class="cls-1" d="M582,19.61c-10.18,6.16-14.52,8.82-18.85,11.17-2,12-5.39,19-12.08,25.31-3,2.89-8.13,6.23-9.43,6.23a.75.75,0,0,1-.76-.68c0-.53.31-.91,1.52-1.75,5.48-4,8.9-7.68,11.4-12.46a46,46,0,0,0,4.72-18.78c0-1.82-.38-2.35-2.66-3.64l-.69-.46a1.3,1.3,0,0,1,1.45-1.22c1,0,2.35.69,5.54,2.66,1,.61,1.3,1.07,1.3,1.83v.23a157.35,157.35,0,0,0,16.41-12.32c-11.17-.07-35.11,3.42-38.23,5.63-.68.3-.83.38-1.06.38a13.79,13.79,0,0,1-3.12-1.83c-1.9-1.52-3.42-3.57-3.42-4.79,0-.91.31-1.29,1.45-1.67,1.9,2.59,2.88,3.19,5.32,3.19,1.14,0,1.14,0,11.78-1.21,14.06-1.6,21.28-2.21,27-2.43l2.28-2.13,5.47,4.86a2.25,2.25,0,0,1,.76,1.52c0,.76-.61,1.22-1.59,1.14l-2.36-.07Z"/><path class="cls-1" d="M52.67,139.61h-12l-17.33-26h-9v17.79c0,4.1,1.44,5.77,4.94,5.85H22v2.35H0v-2.35H2.66c4.33-.08,6-1.37,6.08-4.87V96.52c-.08-6.23-1.22-7.75-6.31-7.83H0V86.26H23.33c6.39,0,12.39,1,15.89,2.58a12.26,12.26,0,0,1,7,10.72,12.42,12.42,0,0,1-4.33,9.12c-2.51,2.21-4.64,3-11.63,4.64l12.31,18.24c2.43,3.57,5.63,5.7,8.74,5.7h1.37Zm-33.14-28.5c7.53,0,10.19-.3,13-1.44,4.86-2,7.3-5.24,7.3-9.73,0-7.37-6.08-11.25-17.56-11.25-6.31,0-8,.91-8,4.56v17.86Z"/><path class="cls-1" d="M108.83,112.48c0,15.89-11.62,28.12-26.83,28.12a28.91,28.91,0,0,1-19.76-8.13c-5-4.94-7.67-11.78-7.67-19.76C54.57,97,66.42,85.2,82.31,85.2,97.28,85.2,108.83,97.05,108.83,112.48Zm-47.27,0c0,7.83,2.43,15.35,6.31,19.61a19.8,19.8,0,0,0,14.51,6c11.18,0,19.23-10.86,19.23-25.91,0-14.22-8.28-24.25-20-24.25S61.56,98.12,61.56,112.48Z"/><path class="cls-1" d="M161.42,99.94l-2.12,1.22c-5-6.69-6-7.76-8.36-9.58a17.91,17.91,0,0,0-10.64-3.72c-11.18,0-19.23,10.79-19.23,25.76,0,8.74,2.51,15,7.75,19.61a19,19,0,0,0,13,4.71c5.7,0,10.1-2,14.59-6.53a21.79,21.79,0,0,0,4.71-7.68l2.13.84c-2.51,5.54-3.72,7.44-6.23,9.88a23.1,23.1,0,0,1-16.5,6.53c-15,0-26.75-11.78-26.75-27,0-15.59,12.16-28.43,26.75-28.43,2.51,0,3.12.08,7.6,1.37a16.14,16.14,0,0,0,3.42.45c1.52,0,2.51-.22,5.4-1.14Z"/><path class="cls-1" d="M215.46,99.94l-2.13,1.22c-5-6.69-6-7.76-8.36-9.58a17.86,17.86,0,0,0-10.64-3.72c-11.17,0-19.23,10.79-19.23,25.76,0,8.74,2.51,15,7.75,19.61a19.05,19.05,0,0,0,13,4.71c5.7,0,10.11-2,14.59-6.53a21.65,21.65,0,0,0,4.72-7.68l2.12.84c-2.5,5.54-3.72,7.44-6.23,9.88A23.07,23.07,0,0,1,194.56,141c-15.05,0-26.75-11.78-26.75-27,0-15.59,12.16-28.43,26.75-28.43,2.51,0,3.12.08,7.6,1.37a16.05,16.05,0,0,0,3.42.45c1.52,0,2.51-.22,5.4-1.14Z"/><path class="cls-1" d="M275.73,112.48c0,15.89-11.63,28.12-26.83,28.12a28.89,28.89,0,0,1-19.76-8.13c-5-4.94-7.68-11.78-7.68-19.76,0-15.73,11.86-27.51,27.74-27.51C264.18,85.2,275.73,97.05,275.73,112.48Zm-47.28,0c0,7.83,2.44,15.35,6.31,19.61a19.82,19.82,0,0,0,14.52,6c11.17,0,19.23-10.86,19.23-25.91,0-14.22-8.29-24.25-20-24.25S228.45,98.12,228.45,112.48Z"/></g></g></svg>