<svg xmlns="http://www.w3.org/2000/svg" width="1102.57" height="294.2" viewBox="0 0 551.285 147.1">
  <defs>
    <style>
      .cls-1 {
        fill: #532525;
        fill-rule: evenodd;
      }
    </style>
  </defs>
  <path id="栃木県の人気ジェラート店と_ツインリングもてぎが_コラボレーション" data-name="栃木県の人気ジェラート店と ツインリングもてぎが コラボレーション" class="cls-1" d="M578.25,18714.9H580.9l-0.16-12.5v-6.7a24.055,24.055,0,0,1,3.128,4.5l1.684-1.6a19.2,19.2,0,0,0-3.569-4.6l-1.243,1.1v-6.2h1l4.01,0.2v-2.4l-4.01.1h-1v-7c0.962-.2,1.323-0.4,1.323-0.8s-0.441-.7-3.97-1a15.688,15.688,0,0,1,.321,3.2v5.6h-1.564l-4.411-.1v2.4l4.411-.2h1.243a39.761,39.761,0,0,1-6.456,15.4,6.806,6.806,0,0,1,1.444,1.9,38.725,38.725,0,0,0,5.534-11.6Zm19.609-24.5h5.092l6.015,0.2v-2.5l-6.015.1H589.879v-4.1a93.781,93.781,0,0,0,14.636-2.5,3.927,3.927,0,0,0,1.4.2c0.561,0,.842-0.1.842-0.4,0-.5-0.562-1-2.767-2.4a11.484,11.484,0,0,1-2.567.9,92.386,92.386,0,0,1-11.268,2.1,16.53,16.53,0,0,0-2.967-1,27.356,27.356,0,0,1,.241,4.5v8.2c0,8.7-1.4,13.7-4.893,18.1a6.826,6.826,0,0,1,1.845,1.8c4.05-5.4,5.494-10.6,5.494-20.1v-3.1h5.533v2c0,11.5-1.884,15.8-7.5,19.8a6.945,6.945,0,0,1,1.724,1.7c4.772-3.5,7.138-7.6,7.94-15.2H604.6a64.068,64.068,0,0,1-.922,11.1c-0.321,1.5-.962,2-2.125,2a21.694,21.694,0,0,1-3.369-.2,10.035,10.035,0,0,1,1.043,2.8h1.363c3.69,0,4.933-1,5.494-3.6a72.572,72.572,0,0,0,1-11.1l0.2-3.1-0.16-.2-4.652.2h-4.732q0.12-2.1.121-4.5v-1.7ZM632.3,18715h2.887l-0.281-23.5a36.325,36.325,0,0,0,3.73,6.5,41.145,41.145,0,0,0,8.06,8.1,40.31,40.31,0,0,0,4.451,2.9,9.808,9.808,0,0,1,1.764-2.5,53.372,53.372,0,0,1-5.453-3.3,36.708,36.708,0,0,1-11.509-13.9h9.424l6.015,0.1v-2.5l-6.015.2H635.032v-7.2c1.042-.3,1.4-0.5,1.4-0.9,0-.5-0.561-0.8-4.29-1a15.762,15.762,0,0,1,.32,3.2v5.9H622.48l-6.015-.2v2.5l6.015-.1h8.9a36.152,36.152,0,0,1-4.211,7.4,37.106,37.106,0,0,1-7.94,7.9,36.007,36.007,0,0,1-4.29,2.6,12.165,12.165,0,0,1,1.764,2.2c8.261-4.9,13.073-10.6,15.88-17.6Zm52.09-16.6,5.374,0.2,0.24-.3-0.2-5v-8.9l0.2-4.6-0.2-.2-5.414.2h-9.5l-5.454-.2-0.16.2,0.16,4.6v8.9l-0.16,5,0.16,0.3,5.454-.2h9.5Zm2.968-2H671.884v-3.7h15.479v3.7Zm0-5.6H671.884v-3.6h15.479v3.6Zm0-5.5H671.884v-3.5h15.479v3.5Zm-18.607,22.3a32.536,32.536,0,0,1-9.383,4.8,12.154,12.154,0,0,1,1.885,1.9,37.153,37.153,0,0,0,10.185-5.5,3.844,3.844,0,0,0,1,.1c0.482,0,.8-0.1.8-0.4,0-.4-0.24-0.7-2.847-2.4A9.652,9.652,0,0,1,668.756,18707.6Zm14,0.2a73.561,73.561,0,0,1,11.148,6.2l1.845-2.1a81.271,81.271,0,0,0-11.269-5.9Zm-3.569-4h9.865l6.015,0.2v-2.5l-6.015.2h-24.7v-16.9c1-.3,1.4-0.6,1.4-1s-0.762-.8-4.211-0.9a20.609,20.609,0,0,1,.321,3.5v12.3l-0.16,5.1,0.16,0.2,5.815-.2H676.7v5.1l-0.16,6H679.3l-0.121-6v-5.1Zm40.782,5.6a20.078,20.078,0,0,1,1.765,2.5c9.9-1.3,15.118-7,15.118-14.2,0-7.8-5.855-14.2-15.8-14.2-9.343,0-16.882,6.9-16.882,15.9,0,6.4,2.767,10,6.055,10,2.326,0,4.491-1.8,7.138-6.9a48.705,48.705,0,0,0,4.491-14.2,18.178,18.178,0,0,0-3.368-.8c-0.481,0-.682.1-0.682,0.4a2.148,2.148,0,0,0,.962,1.1,39.03,39.03,0,0,1-3.809,12c-1.925,3.8-3.489,5.3-4.732,5.3-1.845,0-3.248-2.3-3.248-6.9a13.616,13.616,0,0,1,13.955-13.4c7.9,0,12.792,5,12.792,11.4C733.719,18704.3,728.506,18708.6,719.964,18709.4Zm41.865-24.1a35.93,35.93,0,0,1-.441,5.7c-1.6,10-7.218,16.7-15.879,20.6a14.992,14.992,0,0,1,2.245,2.3c8.06-4.2,13.594-10.7,15.759-20a29.718,29.718,0,0,0,17.043,19.8,12.431,12.431,0,0,1,2.125-2.5,43.185,43.185,0,0,1-5.814-3.2,25.637,25.637,0,0,1-7.9-7.9,33.094,33.094,0,0,1-4.411-11.9c0.08-1.5.12-3.5,0.12-6.5,0.883-.3,1.324-0.6,1.324-1.1,0-.4-0.482-0.8-4.492-0.9a18.4,18.4,0,0,1,.321,3.6v2Zm32.041,14.7a61.55,61.55,0,0,1,8.7,4.9,39.927,39.927,0,0,1-13.153,7.2,7.413,7.413,0,0,1,1.765,2.1,42.5,42.5,0,0,0,13.393-7.9,49.723,49.723,0,0,1,7.218,6l2-2.2a75.131,75.131,0,0,0-7.338-5.6,34.589,34.589,0,0,0,4.13-5.3c1.123,0,1.564-.1,1.564-0.5,0-.5-0.4-0.8-3.529-1.8a7.341,7.341,0,0,1-1.162,2.4,32.409,32.409,0,0,1-3.048,3.9,59.715,59.715,0,0,0-8.9-4.9Zm4.25-17.7a19.17,19.17,0,0,0,1.163-1.9c1.043,0,1.444-.2,1.444-0.6s-0.522-.8-3.609-1.7a6.05,6.05,0,0,1-.682,1.9,28.525,28.525,0,0,1-8.18,9.2,4.97,4.97,0,0,1,1.884,1.5,32.678,32.678,0,0,0,6.416-6.2h21.213l6.015,0.1v-2.5l-6.015.2H798.12Zm-1.484,10.9-6.015-.1v2.5l6.015-.2h19.73a56.629,56.629,0,0,0,.762,12.6c0.962,5.4,3.248,6.3,4.812,6.3,1.8,0,3.408-1.9,3.929-6.9a8.5,8.5,0,0,1-2.446-1.5c-0.24,4.6-1.082,5.6-1.6,5.6-0.721,0-1.724-1-2.2-4a48.122,48.122,0,0,1-.722-10.9l0.16-3.4-0.16-.1-5.855.1h-16.4Zm5.213-3.6H814.08l6.015,0.2v-2.4l-6.015.1H801.849l-6.015-.1v2.4Zm56.863-8.1a24.278,24.278,0,0,1,5.494,5.9l1.8-1.6a25.774,25.774,0,0,0-5.534-5.7Zm-17.524,30c11.91-2.6,19.288-8.1,24.06-20.7a13.06,13.06,0,0,1-2.286-2.3c-4.852,12.9-12.471,18.6-23.458,20.1a3.132,3.132,0,0,0-1.323-.9,0.468,0.468,0,0,0-.482.5,23.576,23.576,0,0,0,1.243,3.8Zm21.774-32.7a23.5,23.5,0,0,1,5.173,5.4l1.725-1.5a27.242,27.242,0,0,0-5.213-5.4Zm-24.3,7a40.378,40.378,0,0,1,10.747,3.8l1.283-2.6a48.578,48.578,0,0,0-11.108-3.8Zm-2.286,8.6a71.562,71.562,0,0,1,10.586,3.3l1.083-2.5a58.075,58.075,0,0,0-10.747-3.3Zm58.547,1.4h4.812l5.052,0.1v-2.6l-5.052.1h-11.75l-5.052-.1v2.6l5.052-.1h4.251v12.1H886.1l-5.052-.1v2.6l5.052-.1h15.359l5.052,0.1v-2.6l-5.052.1h-6.536v-12.1Zm55.659-3.9-0.241-.2-5.814.1H928.888l-6.055-.1v2.9l6.055-.1h18.486c-0.161,7.9-7.78,13.9-18.567,15.2a9.96,9.96,0,0,1,1.324,2.6c12.391-1.5,20.09-8.8,20.371-17.9Zm-23.98-8.9v2.9l6.1-.1h8.221l6.1,0.1v-2.9l-6.1.2H932.7Zm44.912,15.3h17.725l6.095,0.1v-3.2l-6.095.2H971.514l-6.1-.2v3.2Zm46.716,7.9-0.16,6.1h3.29l-0.16-6.1v-22.6l0.28-1.9a20.162,20.162,0,0,0-3.89-.8c-0.48,0-.68.1-0.68,0.3,0,0.4.16,0.5,1.32,1.3v23.7Zm17.12-8.7a59.032,59.032,0,0,0-12.43-5.3l-1.6,2.4a54.107,54.107,0,0,1,12.43,5.6Zm43.39,14.7v2.3h2.73l-0.16-6.1v-3.2l0.16-4.7-0.16-.1-4.65.1h-6.5v-5.7h7.22l6.01,0.2v-2.5l-6.01.2h-7.22v-4.3q1.32-.45,1.32-0.9c0-.5-0.48-0.7-4.17-0.9a15.762,15.762,0,0,1,.32,3.2v10.7h-4.25l-4.65-.1-0.16.1,0.16,4.7v3.4l-0.16,6.2h2.69v-2.6h17.48Zm0-2.1h-17.48v-7.5h17.48v7.5Zm-11.95-26.9h-8.38l-5.77-.2-0.16.2,0.16,5.8v8.7c0,7.6-2.05,11.8-4.61,15.1,0.72,0.5,1.52,1.1,2.24,1.7,3.01-4.3,4.93-9.3,4.93-16.7v-12.4h23.74l6.02,0.1v-2.5l-5.94.2h-9.74v-3.6c0.88-.4,1.32-0.6,1.32-0.9,0-.4-0.48-0.7-4.13-0.8a9.087,9.087,0,0,1,.32,2.3v3Zm32.85-.5a126.552,126.552,0,0,1,6.21,11.9c-5.97,3.4-8.06,6.6-8.06,10,0,4.8,3.45,7.2,11.99,7.2a109.031,109.031,0,0,0,13.11-.7l-0.24-2.9a104.351,104.351,0,0,1-12.31.9c-7.62,0-9.86-1.3-9.86-4.4s2.48-5.5,7.34-8.3a135.242,135.242,0,0,1,14.07-6.8,31.58,31.58,0,0,0-2.08-3.1,1.331,1.331,0,0,0-.81-0.5,0.529,0.529,0,0,0-.52.6,4.482,4.482,0,0,0,.2,1.1c-3.41,1.8-6.49,3.3-10.42,5.5-2.01-4.2-4.09-8.1-6.18-11.6Zm-459.154,59.9a39.038,39.038,0,0,1,5.173,9l2.646-1.3a36.964,36.964,0,0,0-5.373-9.1Zm10.426-1.9a39.211,39.211,0,0,1,4.17,8.7l2.687-1.3a40.665,40.665,0,0,0-4.371-8.7Zm19.528,0.6a16.108,16.108,0,0,0-4.05-1.3c-0.481,0-.681.1-0.681,0.4a3.435,3.435,0,0,0,1.2,1.4c-0.923,12.2-9.424,21-21.253,24a8.656,8.656,0,0,1,1.965,2.4c11.909-4,20.009-10.6,22.375-25.3Zm38.978-2.5c-2.847-2.1-3.489-2.5-3.849-2.5a0.5,0.5,0,0,0-.522.5,3.329,3.329,0,0,0,.642,1.2c-5.895,7.2-14.2,12.8-23.258,16.6a12.412,12.412,0,0,1,1.8,2.2,74.953,74.953,0,0,0,13.875-7.8l0.641,0.6v12.8l-0.16,6.1h3.328l-0.16-6.1v-11l0.16-2.6c-0.842-.2-1.764-0.5-2.606-0.7a68.391,68.391,0,0,0,8.18-7.3Zm19.128,3.9a66.248,66.248,0,0,1,10.587,5.6l1.684-2.7a86.341,86.341,0,0,0-10.707-5.4Zm4.451,23.8c10.466-3.7,18.807-8.8,24.06-21.6-0.842-.7-1.644-1.3-2.486-2.1-4.852,12.4-13.514,18.1-23.258,21a3.132,3.132,0,0,0-1.323-.9,0.468,0.468,0,0,0-.481.5,23.6,23.6,0,0,0,1.323,3.9Zm46.276-25.9,0.281-2a26.774,26.774,0,0,0-3.81-.7c-0.481,0-.681.1-0.681,0.3,0,0.3.16,0.5,1.323,1.3v10.4l-0.16,6.1h3.208l-0.161-6.1v-9.3Zm15.4-.6,0.28-1.9a20.056,20.056,0,0,0-3.889-.8c-0.482,0-.682.1-0.682,0.3,0,0.4.16,0.5,1.323,1.3v13.9c0,7.9-4.25,12.2-14.356,13.1a15.217,15.217,0,0,1,1.243,2.6c11.108-1,16.081-6.6,16.081-15.7V18740Zm20.491,2.7a66.248,66.248,0,0,1,10.587,5.6l1.684-2.7a86.341,86.341,0,0,0-10.707-5.4Zm4.451,23.8c10.466-3.7,18.807-8.8,24.06-21.6-0.842-.7-1.644-1.3-2.486-2.1-4.852,12.4-13.514,18.1-23.258,21a3.132,3.132,0,0,0-1.323-.9,0.468,0.468,0,0,0-.481.5,23.6,23.6,0,0,0,1.323,3.9Zm50.246-24.9c0.6-1.1,1.2-2.2,1.764-3.4-2.847-1.3-3.569-1.6-4.13-1.6a0.467,0.467,0,0,0-.4.4,2.324,2.324,0,0,0,.962,1.3c-2.125,5.3-5.774,9.7-10.947,14a11.749,11.749,0,0,1,2.206,1.8,46.421,46.421,0,0,0,9.022-10.1h12.03c-4.17,11.2-10.065,18-21.413,22.5a11.724,11.724,0,0,1,1.724,2.3c11.268-4.4,17.4-11.1,22.777-23.9,0.682-.3,1.123-0.5,1.123-0.9,0-.5-0.8-1.5-2.567-3.2h-0.481l-0.962.7Zm10.987-4.7a24.278,24.278,0,0,1,5.494,5.9l1.8-1.6a25.8,25.8,0,0,0-5.534-5.7Zm4.251-2.7a23.5,23.5,0,0,1,5.173,5.4l1.724-1.5a27.186,27.186,0,0,0-5.213-5.4Zm14.958,17.8c1.363,2.8,2.646,3.9,8.621,4-0.04,1.3-.12,2.6-0.12,4.6,0,5.7,2.165,8.2,9.664,8.2,8.421,0,12.752-3.7,12.752-7.9,0-3.2-1.243-5.8-7.78-9.7a5.644,5.644,0,0,1-1.684,1.8c4.772,2.9,6.5,5.2,6.5,7.7,0,3.1-4.25,5.5-10.3,5.5-5.093,0-6.5-1.5-6.5-5.8,0-1.9.04-3,.12-4.4a44.424,44.424,0,0,0,8.18-.7l-0.28-2.5a57.549,57.549,0,0,1-7.74.7c0.161-2.6.361-5.2,0.642-7.8,2.646,0.1,5.293.1,7.98,0.2l0.08-2.6h-7.82c0.2-2,.4-4.3.682-7-1.2-.1-2.406-0.1-3.489-0.1-0.481,0-.721.2-0.721,0.4a1.843,1.843,0,0,0,1.323,1c-0.16,2.2-.321,4-0.481,5.7-2.887,0-5.815,0-8.9.1l-0.041,2.4c2.487,0,5.053-.1,7.66-0.1h1.082c-0.24,2.6-.481,5.2-0.641,7.8-5.093-.1-6.176-1-6.737-2.7Zm73.062-10.2-0.32-2.5-0.281-.2c-9.624,1.5-18.446,2.7-29.434,3.9l0.482,2.8c6.055-.9,10.626-1.5,15.559-2.2l3.248-.6a19.394,19.394,0,0,0-2.687,1.6,14.932,14.932,0,0,0-5.614,11.7c0,9.7,8.7,11.9,16.722,11.9h0.641l0.08-3.1a7.4,7.4,0,0,1-1.483.1c-6.216,0-13.273-1.6-13.273-9.1a13.158,13.158,0,0,1,5.894-11c2.767-1.9,5.695-2.7,10.306-3.1Zm41.462,3.5a51.257,51.257,0,0,1-9.22,3.4,48.4,48.4,0,0,1-2.89-4.9,80.039,80.039,0,0,0,8.46-2.4l-0.88-2.3c-3.05,1-5.85,1.9-8.54,2.5a29.4,29.4,0,0,1-1.8-5.4c-1.885.2-2.486,0.3-3.047,0.4a0.971,0.971,0,0,0-.883.6c0,0.3.281,0.5,1.4,0.6,0.521,1.4,1.042,2.8,1.724,4.3a57.186,57.186,0,0,1-10.225.9l0.2,2.4a68.266,68.266,0,0,0,11.068-1.1c0.884,1.7,1.8,3.4,2.8,5.1a48.227,48.227,0,0,1-9.26,1,38.386,38.386,0,0,1-4.732-.4l-0.882,2a22.566,22.566,0,0,0,5.173.7,52,52,0,0,0,11.071-1.3c1.12,1.6,2.52,3.2,3.73,4.6-1.61.2-3.25,0.4-4.86,0.5l0.08,2c2.77-.1,5.78-0.1,8.54-0.1l0.33-.2,0.4-1.6-0.16-.4a27.973,27.973,0,0,1-5.38-5.5,56.941,56.941,0,0,0,8.86-3.3Zm-4.01-8.5a26.735,26.735,0,0,1,5.5,6l1.8-1.6a25.8,25.8,0,0,0-5.53-5.7ZM989.6,18760c0.241,7.8,7.779,8.8,14.2,8.8a55.731,55.731,0,0,0,5.69-.2l0.04-2.8c-2.33.2-3.93,0.3-5.69,0.3-4.977,0-11.433-.2-11.914-6.2Zm25.22-25.9a23.973,23.973,0,0,1,5.18,5.5l1.72-1.6a24.274,24.274,0,0,0-5.21-5.3Zm14.84,13.9c3.01-.4,5.69-0.8,7.94-1a116.083,116.083,0,0,1-8.86,19.6l2.44,1.2a155.007,155.007,0,0,0,9.27-21,18.467,18.467,0,0,1,3-.2c2.97,0,3.73.8,3.73,4.6a40.625,40.625,0,0,1-1.96,11.6c-0.6,1.8-1.4,2.8-2.45,2.8-1,0-2.96-.9-4.77-2.4a13.689,13.689,0,0,1-1.2,2.2c1.92,1.7,4.65,3.1,6.33,3.1,1.93,0,3.53-1.3,4.66-4.4a40.922,40.922,0,0,0,2.16-13c0-5.5-1.84-7-6.13-7-0.57,0-1.41.1-2.49,0.1,0.76-2.4,1.48-4.8,2.12-7.2a18.833,18.833,0,0,0-3.6-.7,0.584,0.584,0,0,0-.65.4c0,0.3.32,0.6,1.13,0.9-0.56,2.3-1.17,4.6-1.89,6.9-2.52.2-5.65,0.5-9.1,0.9Zm24.02-10.2a24.105,24.105,0,0,1,5.49,5.9l1.81-1.5a26.324,26.324,0,0,0-5.54-5.8Zm4.25-2.7a23.314,23.314,0,0,1,5.17,5.4l1.73-1.5a27.511,27.511,0,0,0-5.21-5.4Zm-5.65,9.3a31.763,31.763,0,0,1,7.9,13.2l2.68-1.6a39.638,39.638,0,0,0-8.22-13.2Zm-341.3,69.6v-9.8l0.16-5.8-0.2-.2-5.855.1H692.375l-6.055-.1v2.8l6.055-.1h15.559v16.4H692.015l-6.056-.1v2.9l6.056-.2h13.072l5.855,0.2,0.2-.2Zm44.712-10.1-0.241-.2-5.814.1H734l-6.055-.1v2.9l6.055-.1h18.486c-0.161,7.9-7.78,13.9-18.566,15.2a9.986,9.986,0,0,1,1.323,2.6c12.391-1.5,20.09-8.8,20.371-17.9Zm-23.98-8.9v2.9l6.095-.1h8.221l6.1,0.1v-2.9l-6.1.2h-8.221Zm55.058,5.7v-4.9l0.281-2a32.818,32.818,0,0,0-3.69-.7c-0.481,0-.681.1-0.681,0.4s0.2,0.5,1.243,1.2v6h-8.1l-6.095-.1v2.8l6.095-.1h8.1v16.6c0,1.3-.361,1.7-1.163,1.7a17.171,17.171,0,0,1-4.973-1,14.939,14.939,0,0,1-.2,2.6,19.422,19.422,0,0,0,5.854,1.2c2.166,0,3.409-1.2,3.409-3.6,0-1-.08-2.1-0.08-3.6v-13.9h7.539l6.095,0.1v-2.8l-6.095.1h-7.539Zm6.536-7.6a24.278,24.278,0,0,1,5.494,5.9l1.8-1.6a25.791,25.791,0,0,0-5.533-5.7Zm-1.564,16.5a41.7,41.7,0,0,1,7.178,9.5l2.326-1.7a45.51,45.51,0,0,0-7.3-9.5Zm5.815-19.2a23.5,23.5,0,0,1,5.173,5.4l1.724-1.5a27.186,27.186,0,0,0-5.213-5.4Zm-18.807,19c-2.567-1.4-3.369-1.7-3.649-1.7a0.412,0.412,0,0,0-.482.4,2.493,2.493,0,0,0,.843,1.2,26.587,26.587,0,0,1-6.938,8.7,7.713,7.713,0,0,1,2.045,1.7,34.058,34.058,0,0,0,7.419-9.2Zm42.747-11.5,0.281-2.2a20.061,20.061,0,0,0-3.89-.8c-0.481,0-.682.1-0.682,0.3,0,0.4.161,0.5,1.323,1.3l-0.16,22.9-0.481.6v0.4c1.844,2.2,2.446,2.7,2.927,2.7,0.321,0,.6-0.1.963-1a51.024,51.024,0,0,0,22.014-16.1,12.637,12.637,0,0,1-1.964-2.2,47.03,47.03,0,0,1-20.532,15.4Zm41.744,12.4h17.725l6.1,0.1v-3.2l-6.1.2H863.243l-6.1-.2v3.2Zm40.582-12.7a37.153,37.153,0,0,1,10.747,3.8l1.283-2.6a44.25,44.25,0,0,0-11.108-3.9Zm-2.286,8.6a71.731,71.731,0,0,1,10.587,3.2l1.082-2.5a66.845,66.845,0,0,0-10.746-3.3Zm4.812,17c11.95-2.3,19.77-9.2,24.622-21.9a17.714,17.714,0,0,1-2.286-2.3c-5.012,13.3-12.672,19.9-24.02,21.4a3.132,3.132,0,0,0-1.323-.9,0.468,0.468,0,0,0-.481.5,21.09,21.09,0,0,0,1.243,3.7Zm58.948-9.3v7H952.828l-5.013-.1v2.6l5.013-.1h10.346l4.771,0.1,0.241-.2-0.12-4.8v-10.7l0.12-4.7-0.241-.2-4.771.1H953.028l-5.052-.1v2.6l5.052-.1H965.3v6.2H954.432l-5.013-.1v2.6l5.013-.1H965.3Zm23.1-15.2a66.194,66.194,0,0,1,10.586,5.6l1.687-2.7a86.509,86.509,0,0,0-10.709-5.4Zm4.451,23.8c10.462-3.7,18.8-8.8,24.062-21.6-0.84-.7-1.65-1.3-2.49-2.1-4.85,12.4-13.51,18.1-23.256,21a3.126,3.126,0,0,0-1.324-.9,0.468,0.468,0,0,0-.481.5,23.555,23.555,0,0,0,1.324,3.9Z" transform="translate(-571.625 -18677.3)"/>
</svg>
