<svg xmlns="http://www.w3.org/2000/svg" viewBox="0 0 547.22 141.25"><defs><style>.cls-1{fill:#fff;}</style></defs><g id="Layer_2" data-name="Layer 2"><g id="Layer_1-2" data-name="Layer 1"><path class="cls-1" d="M13.8,43c-.68,0-2.28.07-4.64.15-.68,0-2.58,0-4.78.08L3.46,40.8c5.55.23,8.06.31,10.19.38h4.86V30.39l5.7.46c1.07.07,1.75.68,1.75,1.44a2,2,0,0,1-1.14,1.6l-1.75.83v6.46h3l3.5-4.63,5.09,4a2.33,2.33,0,0,1,.91,1.52,1,1,0,0,1-.91.91H23.07v4.63c3.88,1.07,5.85,1.75,7.53,2.82C33,51.82,34.47,54,34.47,56a2.74,2.74,0,0,1-2.58,2.74,2.84,2.84,0,0,1-1.6-.61c-.22-.23-.22-.23-2.35-3.8-1.07-1.82-2.13-2.81-4.87-4.56v17c0,1.14-1.67,2.12-3.65,2.12-.68,0-.91-.38-.91-1.21V50a65.52,65.52,0,0,1-9.8,10.41c-2.89,2.43-5,3.88-5.85,3.88a.76.76,0,0,1-.76-.76c0-.38.38-.84,1.82-2A60.91,60.91,0,0,0,17.22,43Zm8.51-30.86c-.45,0-3.19.08-7.22.23-.91.07-3.65.07-6.61.15L7.34,9.87c3.5.15,6.31.23,7.45.23q5.58.22,7.52.23H34.85V.52l5.48.23c1.06.08,1.59.46,1.59,1.29a1.78,1.78,0,0,1-.61,1.37L39.49,4.85v5.48H57.73l4.1-4.79,5.4,4.25a2.26,2.26,0,0,1,1,1.45c0,.61-.38.91-1.22.91H40.78C48.69,19.6,57.43,23.7,70.5,26a14.8,14.8,0,0,0-5.17,5.85C53.47,27.12,45.65,21.5,39.49,13.21V32.37c0,1.06-1.52,1.9-3.57,1.9-.76,0-1.07-.38-1.07-1.14V15.19c-8.13,6.69-11.63,9-19.45,13.15C9.85,31.23,6.2,32.9,5.52,32.9a.66.66,0,0,1-.61-.61c0-.38.76-.91,5.7-3.72,8.28-4.87,12.69-8.44,20-16.42Zm16.8,31.09-.76-2.36c7.6.3,8,.3,10.18.3h2.21V31l6.23.38c.68.08,1.29.61,1.29,1.06a1.89,1.89,0,0,1-1,1.45L55.15,35.1v6.08h6.46l4-4.63,5.4,4.1A1.82,1.82,0,0,1,71.87,42a.92.92,0,0,1-1,1H55.3c2.43,6,9,11.85,18.16,15.88a12.69,12.69,0,0,0-5.17,4.79A40.87,40.87,0,0,1,55.15,47V67.18q0,1.59-3.42,1.59c-.69,0-1-.3-1-1.06V48.94c-5.93,6.38-7.68,8.13-11.63,11.4-4.26,3.49-7.15,5.54-7.9,5.54a.73.73,0,0,1-.61-.68c0-.3,0-.3,2.51-2.43,5.7-5.32,10.48-11.1,16.26-19.76Z"/><path class="cls-1" d="M19.42,69.42C18,69.42,18,68.13,18,67.71V51.44a64,64,0,0,1-9,9.35c-4.74,4-5.82,4-6.17,4A1.26,1.26,0,0,1,1.6,63.53c0-.61.45-1.14,2-2.37A60.45,60.45,0,0,0,16.44,43.51H13.8c-.4,0-1.12,0-2.13.06l-2.49.09c-.72,0-2.59,0-4.79.08H4l-1.3-3.48.75,0c4.33.18,6.81.27,8.7.33l1.49,0H18V29.85l6.24.5a2.11,2.11,0,0,1,2.21,1.94,2.44,2.44,0,0,1-1.4,2L23.57,35v5.64h2.29l3.66-4.84L35,40.18a2.86,2.86,0,0,1,1.1,1.92,1.48,1.48,0,0,1-1.41,1.41H23.57v3.75c3.45,1,5.56,1.67,7.3,2.77,2.52,1.42,4.1,3.72,4.1,6a3,3,0,0,1-5,2.54c-.33-.33-.33-.33-2.49-3.95a10.75,10.75,0,0,0-3.94-3.89V66.8C23.57,68.25,21.71,69.42,19.42,69.42ZM19,48.55V67.71c0,.71.15.71.41.71,1.78,0,3.15-.87,3.15-1.62V48.86l.77.49c2.81,1.79,3.93,2.85,5,4.73a29.53,29.53,0,0,0,2.28,3.7A2,2,0,0,0,34,56c0-1.89-1.38-3.85-3.62-5.11-1.71-1.09-3.83-1.78-7.41-2.76L22.57,48V42.51H34.7a.49.49,0,0,0,.41-.41A2,2,0,0,0,34.38,41l-4.68-3.7-3.34,4.42H22.57V34.41l2-1a1.51,1.51,0,0,0,.85-1.15c0-.51-.52-.89-1.28-.94L19,30.93V41.68H13.65l-1.5,0c-1.78-.06-4.08-.14-7.95-.3l.52,1.39c2.05-.06,3.77-.06,4.44-.06l2.47-.09c1,0,1.76-.06,2.17-.06H18l-.32.7A61.61,61.61,0,0,1,4.25,61.93C2.88,63,2.6,63.39,2.6,63.53a.26.26,0,0,0,.26.26c.17,0,1.28-.18,5.53-3.76a65.28,65.28,0,0,0,9.73-10.34ZM51.73,69.27a1.36,1.36,0,0,1-1.49-1.56V50.21A97.22,97.22,0,0,1,39.43,60.72c-6.89,5.66-7.9,5.66-8.22,5.66A1.22,1.22,0,0,1,30.1,65.2c0-.53,0-.53,2.68-2.81A102.67,102.67,0,0,0,48.42,43.53l-9.67.21-1.1-3.39.72,0c7.59.3,8,.3,10.16.3h1.71V30.47l6.76.41a1.88,1.88,0,0,1,1.76,1.56,2.37,2.37,0,0,1-1.24,1.88l-1.87,1.07v5.29h5.73l4.18-4.81,5.77,4.38a2.3,2.3,0,0,1,1,1.77,1.41,1.41,0,0,1-1.49,1.49H56.06c2.62,5.71,9,11.12,17.61,14.93l.89.39-.84.49a12.2,12.2,0,0,0-5,4.65l-.3.43L68,64.08A41.65,41.65,0,0,1,55.65,49.26V67.18C55.65,68.57,54.33,69.27,51.73,69.27Zm-.49-21.61v20c0,.52.12.56.49.56,1.33,0,2.92-.19,2.92-1.09V44.51l1,2.25A40,40,0,0,0,68.19,63a12.09,12.09,0,0,1,4.19-4c-8.74-4-15.11-9.75-17.54-15.75l-.28-.69H70.88a.43.43,0,0,0,.49-.49,1.35,1.35,0,0,0-.63-1l-5-3.83-3.88,4.45H54.65V34.81L57,33.45a1.43,1.43,0,0,0,.73-1,1,1,0,0,0-.84-.56l-5.68-.35V41.68H48.53c-2.12,0-2.56,0-9.48-.27l.42,1.32,10.85-.24-.53.8C44.1,51.82,39.21,57.75,33.45,63.13a28.35,28.35,0,0,0-2.37,2.09.49.49,0,0,0,.15.17c.08,0,1.2-.21,7.56-5.44,3.84-3.17,5.46-4.77,11.58-11.35ZM35.92,34.77a1.45,1.45,0,0,1-1.57-1.64V16.25c-7.58,6.2-11.08,8.53-18.72,12.53-3.32,1.73-9,4.62-10.11,4.62a1.16,1.16,0,0,1-1.11-1.11c0-.66.4-1,5.95-4.16C18.44,23.39,22.7,20,29.46,12.65H22.31c-.4,0-3,.07-7.2.23-.53,0-1.71.06-3.21.08L8.49,13H8.15L6.57,9.34l.79,0c3.62.16,6.34.23,7.43.23,3.72.15,6.24.23,7.52.23h12V0l6,.25c1.38.1,2.07.7,2.07,1.79a2.28,2.28,0,0,1-.79,1.76L40,5.1V9.83H57.5l4.27-5L67.54,9.4a2.69,2.69,0,0,1,1.18,1.84c0,.53-.22,1.41-1.72,1.41H42.06c7.59,6.83,16.2,10.69,28.52,12.84l1.14.2-.92.69a14.18,14.18,0,0,0-5,5.7l-.21.38-.41-.16C53.69,27.75,46.07,22.43,40,14.69V32.37C40,33.76,38.28,34.77,35.92,34.77Zm-.57-20.64v19c0,.58.18.64.57.64,1.83,0,3.07-.73,3.07-1.4V11.7l.9,1.22c6,8.13,13.6,13.61,25.22,18.29a13.94,13.94,0,0,1,4.19-4.94C56.86,24,48.18,19.81,40.44,12.51l-.92-.86H67c.72,0,.72-.22.72-.41a1.9,1.9,0,0,0-.79-1.05l-5-4L58,10.83H39V4.61L41,3a1.28,1.28,0,0,0,.42-1c0-.3,0-.71-1.13-.79L35.35,1v9.79h-13c-1.29,0-3.83-.08-7.54-.23h0c-1,0-3.42-.06-6.65-.2L8.81,12,11.89,12c1.47,0,2.64,0,3.16-.08,3.9-.15,6.77-.23,7.26-.23h9.42l-.76.84C23.76,20.37,19.25,24.07,10.86,29A39.58,39.58,0,0,0,5.4,32.37s.08,0,.12,0c.39,0,2.86-1,9.65-4.5C23,23.79,26.44,21.46,34.54,14.8Z"/><path class="cls-1" d="M114.27,19.45a1,1,0,0,1-.38.68c-.83,1.22-.91,1.29-3.19,7.53a122.17,122.17,0,0,1-12.24,24.7c-2.81,4.1-3.64,4.78-5.47,4.78-.83,0-1-.07-3.27-2A23.57,23.57,0,0,1,84.86,50a15.78,15.78,0,0,1-2.43-8.74c0-6.69,3.49-14.44,9-19.53a35.48,35.48,0,0,1,23.41-9.43c14.44,0,26.37,10.34,26.37,22.88,0,7.37-4.56,14.44-11.93,18.54a62.18,62.18,0,0,1-14.9,5.63,19.49,19.49,0,0,1-3.19.61.72.72,0,0,1-.76-.76c0-.54.3-.69,1.29-1a76,76,0,0,0,10.87-4.41c8.21-4.18,12.84-11.32,12.84-19.91,0-5.55-2.2-10-6.69-13.84A21.27,21.27,0,0,0,114.12,15a16.76,16.76,0,0,0-2.89.23c-.07.08-.3.08-.68.15C112.68,16.71,114.27,18.46,114.27,19.45ZM93.75,23.93A24.1,24.1,0,0,0,87.29,41c0,3.73.54,6.08,1.9,8.29,1,1.44,2.06,2.28,3.12,2.28,1.52,0,3-1.3,4.71-4.26a91.88,91.88,0,0,0,8.67-20A61.87,61.87,0,0,0,108,18.61a2.17,2.17,0,0,0-1.22-1.9,6,6,0,0,0-1.14-.46A28.66,28.66,0,0,0,93.75,23.93Z"/><path class="cls-1" d="M111.16,60.46a1.22,1.22,0,0,1-1.26-1.26c0-1,.76-1.2,1.64-1.47a74.87,74.87,0,0,0,10.79-4.38c8.11-4.12,12.57-11,12.57-19.46,0-5.34-2.13-9.74-6.51-13.45a20.77,20.77,0,0,0-14.27-5,15,15,0,0,0-2.31.15c1.56,1.19,3,2.71,3,3.84a1.48,1.48,0,0,1-.52,1c-.75,1.1-.85,1.24-3.08,7.35A124.39,124.39,0,0,1,98.88,52.64c-2.74,4-3.72,5-5.89,5-1,0-1.33-.21-3.59-2.17-3-2.59-3.82-3.52-5-5.19a16.25,16.25,0,0,1-2.52-9c0-6.93,3.58-14.74,9.13-19.9a35.84,35.84,0,0,1,23.75-9.56c14.81,0,26.87,10.49,26.87,23.38,0,7.52-4.67,14.8-12.19,19a62.28,62.28,0,0,1-15,5.68A18.79,18.79,0,0,1,111.16,60.46Zm3-46A21.8,21.8,0,0,1,129,19.67c4.62,3.92,6.86,8.57,6.86,14.22,0,8.69-4.78,16.11-13.11,20.36a77,77,0,0,1-11,4.44c-.92.29-.92.35-.92.51s.08.26.26.26a20.81,20.81,0,0,0,3.09-.6A62,62,0,0,0,129,53.29c7.21-4,11.68-10.95,11.68-18.11,0-12.34-11.61-22.38-25.87-22.38a34.81,34.81,0,0,0-23.07,9.29c-5.35,5-8.81,12.51-8.81,19.17a15.25,15.25,0,0,0,2.34,8.46c1.1,1.61,1.86,2.46,4.78,5,2.23,1.93,2.3,1.93,2.94,1.93,1.54,0,2.24-.44,5.06-4.57C102.2,46,107,36.36,110.23,27.48c2.28-6.22,2.39-6.38,3.23-7.59l.08-.11c.18-.19.23-.3.23-.33,0-.7-1.33-2.3-3.49-3.69l-1-.67,1.21-.24.37-.06.13,0,0,0,.16,0A16.41,16.41,0,0,1,114.12,14.46ZM92.31,52.1c-1.21,0-2.4-.84-3.53-2.5-1.43-2.31-2-4.71-2-8.57a24.66,24.66,0,0,1,6.6-17.44h0a29,29,0,0,1,12.07-7.81l.15,0a5.46,5.46,0,0,1,1.42.54,2.66,2.66,0,0,1,1.44,2.32,58.61,58.61,0,0,1-2.31,8.89,92.08,92.08,0,0,1-8.71,20.1C95.62,50.71,94,52.1,92.31,52.1Zm1.81-27.83A23.7,23.7,0,0,0,87.79,41c0,3.66.51,5.91,1.83,8,.91,1.33,1.84,2.05,2.69,2.05,1.32,0,2.65-1.24,4.28-4a91.54,91.54,0,0,0,8.62-19.89,62.3,62.3,0,0,0,2.26-8.59,1.65,1.65,0,0,0-.94-1.45,6.38,6.38,0,0,0-.91-.39,28.13,28.13,0,0,0-11.5,7.5Z"/><path class="cls-1" d="M160.25,25.68c8.89,1.21,15,4.94,15,9.12a2.83,2.83,0,0,1-2.5,3c-1.14,0-2-.84-3.5-3.34a17.39,17.39,0,0,0-9.2-7.68ZM172.11,55c1.82,0,12.84-6.92,21-13.15a166.69,166.69,0,0,0,19.3-17.56c1.37-1.44,1.82-1.82,2.2-1.82a.81.81,0,0,1,.69.76c0,.91-3.12,4.79-9.35,11.55A148.92,148.92,0,0,1,192.1,48.1a146.44,146.44,0,0,1-11.86,9c-3,1.75-3,1.82-4.1,3.72A1.91,1.91,0,0,1,174.39,62c-.91,0-1.67-.46-4.71-2.74C166,56.54,165,55.17,165,53.19a3.82,3.82,0,0,1,1.14-2.73C168.16,53,170.74,55,172.11,55Zm-3.27-44.24c8.13.76,14.82,4.87,14.82,9,0,1.67-1.14,3.19-2.35,3.19s-1.37-.31-3.58-3.35a21.36,21.36,0,0,0-9.35-7.75ZM194.3,9.72c6.77.68,12.24,4.1,12.24,7.67a2.69,2.69,0,0,1-2.36,2.51c-1.14,0-1.67-.45-3-2.43a19.06,19.06,0,0,0-7.15-6.69ZM203,4.85c7.45.69,12.32,3.5,12.32,7.07A2.48,2.48,0,0,1,213,14.51c-1,0-1.37-.38-3.65-3.12a15.77,15.77,0,0,0-6.54-5.17Z"/><path class="cls-1" d="M174.39,62.51c-1.11,0-2-.58-5-2.84-3.81-2.86-4.92-4.31-4.92-6.48a4.35,4.35,0,0,1,1.25-3l.4-.49.39.5c2.14,2.7,4.58,4.37,5.61,4.37,1.52,0,12.23-6.58,20.67-13.05A167,167,0,0,0,212,24c1.45-1.54,2-2,2.56-2a1.31,1.31,0,0,1,1.19,1.26c0,.48,0,1.6-9.48,11.89a149.51,149.51,0,0,1-13.88,13.35,146.35,146.35,0,0,1-11.93,9c-2.89,1.71-2.91,1.74-3.92,3.54A2.38,2.38,0,0,1,174.39,62.51Zm-8.27-11.25a2.86,2.86,0,0,0-.66,1.93c0,1.78,1,3.06,4.52,5.68,2.92,2.2,3.66,2.64,4.41,2.64.41,0,.85-.12,1.31-1,1.11-2,1.27-2.13,4.29-3.91a146.92,146.92,0,0,0,11.79-8.93,146,146,0,0,0,13.78-13.25c8.47-9.18,9.2-10.91,9.22-11.22a.38.38,0,0,0-.2-.26,9.53,9.53,0,0,0-1.83,1.67,166.38,166.38,0,0,1-19.36,17.61c-7.62,5.85-19.17,13.26-21.28,13.26C170.51,55.52,168,53.45,166.12,51.26Zm6.6-12.92c-1.49,0-2.45-1.16-3.93-3.59a16.92,16.92,0,0,0-8.94-7.46l-.4-.15.4-2,.47.06c9.21,1.26,15.4,5.13,15.4,9.62A3.3,3.3,0,0,1,172.72,38.34ZM160.6,26.5a18,18,0,0,1,9.06,7.76c1.58,2.6,2.27,3.08,3.06,3.08a2.34,2.34,0,0,0,2-2.54c0-3.84-5.76-7.33-14.07-8.56Zm20.71-3c-1.36,0-1.82-.56-4-3.55a20.82,20.82,0,0,0-9.14-7.59l-.45-.19.78-1.94.37,0c8.42.79,15.27,5.07,15.27,9.55C184.16,21.76,182.8,23.52,181.31,23.52ZM169,11.66a21.75,21.75,0,0,1,9.11,7.73c2.19,3,2.37,3.13,3.17,3.13s1.85-1.2,1.85-2.69c0-3.85-6.37-7.7-14-8.51Zm35.15,8.74c-1.4,0-2.08-.66-3.38-2.66a18.39,18.39,0,0,0-7-6.53l-.3-.19.4-1.85.44.05c7.12.72,12.69,4.31,12.69,8.17A3.18,3.18,0,0,1,204.18,20.4Zm-9.54-9.86a19.22,19.22,0,0,1,7,6.66c1.26,1.93,1.67,2.2,2.54,2.2a2.2,2.2,0,0,0,1.86-2c0-3.22-5-6.37-11.34-7.13ZM213,15c-1.25,0-1.72-.53-4-3.3a15.39,15.39,0,0,0-6.37-5l-.34-.16.36-2.2.47.05c7.75.71,12.77,3.68,12.77,7.56A3,3,0,0,1,213,15Zm-9.63-9.07a16.09,16.09,0,0,1,6.37,5.14C212,13.82,212.28,14,213,14a2,2,0,0,0,1.86-2.09c0-3.2-4.56-5.8-11.4-6.52Z"/><path class="cls-1" d="M274.48,48.18c3.19,1.44,5.85,3.64,5.85,4.86a1.78,1.78,0,0,1-1.52,1.67,3.61,3.61,0,0,1-1.06-.23,27.48,27.48,0,0,0-8.44-1.21c-13.3,0-27.28,2-31.39,4.41a2.71,2.71,0,0,1-.91.38c-1.21,0-5.62-4.34-5.62-5.55a5.08,5.08,0,0,1,.83-2.13l.46.38.38.23c2.43,1.82,2.43,1.82,2.89,1.82.07,0,.83-.07,2-.23l16.19-1.82V37.84c0-3.27-.07-3.5-.61-4.64l-1.51.16c-5.78.68-6.16.76-8.06,1.67a5.43,5.43,0,0,1-2.28.83c-1.37,0-5.25-3.34-5.25-4.56a7.82,7.82,0,0,1,1.07-2.66c1.82,1.9,3,2.66,4.18,2.66a18.11,18.11,0,0,0,1.82-.15c8.21-1,15.36-1.67,20.14-2,2.21-.07,2.21-.07,2.82-.53.38-.3,1.29-1.06,1.9-1.59,1.14.68,1.36.91,2.28,1.44,2.66,1.67,3.26,2.28,3.26,3.34a1.24,1.24,0,0,1-1.29,1.3,6.25,6.25,0,0,1-.91-.15,7.68,7.68,0,0,0-1-.16c-.3-.07-1.29-.07-2.73-.15l-4.56-.23a52.4,52.4,0,0,0-6.31.46c1.59.91,2.05,1.29,2.05,1.82,0,.23-.15.38-.53.84-.61.61-.69.68-.69,1.29V50.61l1.52-.08a122.94,122.94,0,0,1,12.62-.68Z"/><path class="cls-1" d="M237,58.56c-1.49,0-6.12-4.58-6.12-6.05a5.42,5.42,0,0,1,.89-2.36l.29-.55.93.78.32.18c2.34,1.75,2.35,1.75,2.63,1.75.09,0,.83-.08,1.91-.22l15.75-1.78V37.84c0-2.86-.06-3.31-.41-4.1l-1.16.11c-5.7.68-6.07.75-7.89,1.63a5.77,5.77,0,0,1-2.5.88c-1.52,0-5.75-3.46-5.75-5.06A7.37,7.37,0,0,1,237,28.41l.32-.61.48.5c1.69,1.75,2.83,2.5,3.82,2.5.42,0,1.09-.07,1.73-.14,7.84-.95,15.19-1.67,20.2-2,2.06-.08,2.06-.08,2.55-.44s1.26-1,1.87-1.57l.27-.24.31.19c.58.35.93.58,1.25.79s.58.39,1,.65c2.68,1.69,3.51,2.42,3.51,3.77a1.74,1.74,0,0,1-1.79,1.8,4.25,4.25,0,0,1-.78-.12l-.23,0a6.86,6.86,0,0,0-.89-.15h-.12a10.26,10.26,0,0,0-1.24-.08l-1.4-.06-4.56-.23-.28,0c-2.7.13-3.74.18-4.52.26.73.5,1.07.91,1.07,1.5,0,.39-.2.62-.53,1l-.12.14c-.57.57-.57.57-.57,1V50.08l2.75-.18a105.17,105.17,0,0,1,10.73-.55l2.54-1.75.26.12c3,1.35,6.14,3.67,6.14,5.32a2.27,2.27,0,0,1-2,2.17,4.37,4.37,0,0,1-1.22-.25,27,27,0,0,0-8.28-1.19c-13.13,0-27.1,1.94-31.13,4.34A3.11,3.11,0,0,1,237,58.56Zm-4.63-7.4a3.41,3.41,0,0,0-.49,1.35c0,.94,4.16,5.05,5.12,5.05a3,3,0,0,0,.66-.31c4.24-2.51,18.14-4.48,31.64-4.48a28.13,28.13,0,0,1,8.6,1.24,3.26,3.26,0,0,0,.9.2,1.32,1.32,0,0,0,1-1.17c0-.77-2-2.75-5.3-4.29l-2.32,1.6h-.16a105.23,105.23,0,0,0-10.81.54l-3.83.24V36.85c0-.81.2-1,.83-1.64l.09-.12a2.82,2.82,0,0,0,.3-.38c0-.26-.45-.61-1.8-1.38l-1.27-.72L257,32.4a52.21,52.21,0,0,1,6-.44l.33,0,4.61.23,1.39.06a10.61,10.61,0,0,1,1.39.1,7.88,7.88,0,0,1,1,.16l.24,0a3.82,3.82,0,0,0,.57.1.74.74,0,0,0,.79-.8c0-.77-.41-1.27-3-2.92-.45-.26-.74-.45-1.06-.67l-.9-.58c-.59.51-1.31,1.11-1.64,1.37-.75.56-.88.57-3.11.64-5,.32-12.31,1-20.1,2-.74.08-1.41.15-1.88.15-1.19,0-2.4-.68-4.05-2.32a5.76,5.76,0,0,0-.7,1.82c0,.85,3.53,4.06,4.75,4.06a5.11,5.11,0,0,0,2.06-.78c2-.95,2.35-1,8.22-1.72l1.88-.19L254,33c.58,1.25.65,1.6.65,4.85V51.21L238,53.08c-1,.13-1.89.23-2,.23-.62,0-.62,0-3.19-1.92Z"/><path class="cls-1" d="M339.84,23.17c3.58,2,6.16,4.33,6.16,5.4,0,.83-.61,1.36-2.66,2.2-5.85,10-8.29,13.38-13.45,18.85-5.86,6.23-10.57,9.35-22,14.9-2.89,1.36-3.72,1.74-4.25,1.74a.83.83,0,0,1-.77-.76c0-.53.31-.75,3.2-2.28a70.9,70.9,0,0,0,31.69-34.5l-20.29,1.9c-10,1.37-12.7,1.9-13.38,2.89-.68.68-1.06.91-1.37.91-1.14,0-6.08-5.09-6.08-6.38A5.67,5.67,0,0,1,298,25.38c3,2.58,3.8,3,5.47,3,.46,0,.46,0,9.58-.76l24.62-2.13ZM334.29,9c4.94,2.13,6.46,3,6.46,4.25a2,2,0,0,1-1.67,2.06,24,24,0,0,1-3.27-.31,17.24,17.24,0,0,0-2.05-.15c-5,0-8.43.23-19.23,1.29-3.87.31-5.24.69-6.76,1.52a1.25,1.25,0,0,1-.69.31c-.45,0-2.28-1.52-4.4-3.5-1-.91-1.3-1.37-1.3-1.9s.38-1.22,1.37-2.51c3.5,3,3.5,3,5.7,3,1.52,0,3.12-.07,4.79-.23l18.32-1.52Z"/><path class="cls-1" d="M303.67,66.76a1.31,1.31,0,0,1-1.27-1.26c0-.87.55-1.18,3.46-2.72A70.58,70.58,0,0,0,337,29.3l-19.46,1.82c-9.09,1.24-12.42,1.83-13,2.67-.82.83-1.3,1.13-1.78,1.13-1.47,0-6.58-5.34-6.58-6.88a6,6,0,0,1,1.47-3l.32-.43.4.34c3,2.54,3.67,2.93,5.15,2.93.43,0,.52,0,9.54-.76L337.48,25l2.26-2.5.35.2c3.19,1.83,6.41,4.34,6.41,5.83,0,1.19-.95,1.83-2.81,2.6C338,41,335.54,44.36,330.25,50c-5.76,6.14-10.51,9.36-22.11,15C305.13,66.39,304.32,66.76,303.67,66.76Zm34.91-38.62-.33.78a71.51,71.51,0,0,1-31.91,34.74c-2.39,1.26-2.94,1.6-2.94,1.84a.33.33,0,0,0,.27.26c.43,0,1.48-.49,4-1.7,11.6-5.64,16.08-8.68,21.81-14.78,5.26-5.57,7.63-8.9,13.39-18.76l.08-.15.16-.06c2.17-.89,2.35-1.31,2.35-1.74,0-.64-1.93-2.63-5.56-4.76L338,26l-24.82,2.14c-9.14.77-9.14.77-9.62.77-1.8,0-2.69-.55-5.38-2.82-.88,1.26-1,1.79-1,1.94,0,.94,4.6,5.78,5.59,5.88.09,0,.34-.1,1-.77.73-1.07,2.91-1.56,13.66-3Zm-31.5-9.71c-.27,0-.83,0-4.74-3.63-1-.89-1.46-1.49-1.46-2.27s.39-1.39,1.48-2.81l.32-.43.4.35c3.36,2.92,3.36,2.92,5.37,2.92,1.5,0,3.1-.07,4.75-.22l18.16-1.51,2.85-2.45.28.12c5.08,2.18,6.76,3.17,6.76,4.71a2.48,2.48,0,0,1-2.17,2.56,25.76,25.76,0,0,1-3.34-.31,15.56,15.56,0,0,0-2-.15c-5,0-8.42.23-19.18,1.29-3.91.31-5.18.7-6.57,1.46A1.6,1.6,0,0,1,307.08,18.43Zm-4.25-7.68a3.89,3.89,0,0,0-.95,1.78c0,.32.19.66,1.14,1.53,2.69,2.5,3.84,3.29,4.1,3.37a2.17,2.17,0,0,0,.35-.21c1.57-.87,2.94-1.3,7-1.62,10.79-1.06,14.21-1.29,19.27-1.29a15.7,15.7,0,0,1,2.12.16,22.61,22.61,0,0,0,3.2.3c.52,0,1.17-.73,1.17-1.56s-1.38-1.72-5.87-3.67l-2.62,2.26-18.48,1.53c-1.67.16-3.3.23-4.83.23C306.16,13.56,305.94,13.45,302.83,10.75Z"/><path class="cls-1" d="M395.4,31.83c.68.38,1,.76,1,1.22,0,.61-.23.84-1.52,1.22l-1.52,2.66c-6.69,11.85-6.84,12-10,15.81a54.53,54.53,0,0,1-13.6,11.4c-1.45,1-1.83,1.14-2.13,1.14a.67.67,0,0,1-.68-.61c0-.38.3-.68,1.06-1.37a58.7,58.7,0,0,0,11.55-11.78c4.18-5.7,9.28-15.81,9.28-18.32,0-.91-.38-1.67-1.52-3.11a92.28,92.28,0,0,0-9.51,1.06l-7.59,1.22c-2.51.45-2.82.53-4,1.29a3.36,3.36,0,0,1-1.45.53c-1.52,0-6.91-5.17-6.91-6.69a4.41,4.41,0,0,1,1.44-3c2,2.81,4,4.18,6.23,4.18a22.36,22.36,0,0,0,3.5-.3c13.53-1.37,26.45-2.21,36.56-2.51h1.37l3.41-2.13c3.8,1.6,6.77,4,6.77,5.62,0,.84-.68,1.75-1.37,1.75a6.22,6.22,0,0,1-2.05-.45c-2.89-.69-8.67-1.15-15.58-1.15-1.29,0-2.13,0-5.93.16Zm5-21.88c4.49,2.12,6.62,3.87,6.62,5.39a1.1,1.1,0,0,1-1.14,1.22,18.44,18.44,0,0,1-2.36-.23,50.31,50.31,0,0,0-7.07-.3c-9.57,0-17.86,1.14-22,3a3.58,3.58,0,0,1-1.37.46c-.68,0-2.66-1.14-4.63-2.74-1.45-1.14-2.13-2-2.13-2.66a8.6,8.6,0,0,1,.68-2.28,1.22,1.22,0,0,1,.84-.53c2.05,2,4.25,3.49,5.62,3.49a21.13,21.13,0,0,0,2.82-.22c2.05-.31,5.32-.69,7.82-.92L397.6,12.3Z"/><path class="cls-1" d="M367.58,65.78a1.16,1.16,0,0,1-1.18-1.11c0-.63.49-1.07,1.23-1.74a58.09,58.09,0,0,0,11.48-11.71c4.34-5.92,9.18-15.79,9.18-18,0-.73-.31-1.38-1.25-2.59a89.16,89.16,0,0,0-9.19,1l-7.61,1.22c-2.51.46-2.72.53-3.84,1.22a3.73,3.73,0,0,1-1.71.61c-1.8,0-7.41-5.44-7.41-7.19a4.86,4.86,0,0,1,1.63-3.35l.41-.33.31.43c1.88,2.67,3.78,4,5.82,4a21.58,21.58,0,0,0,3.43-.3c12.81-1.3,25.81-2.19,36.61-2.51h1.24l3.52-2.19.24.1c3.51,1.47,7.07,4,7.07,6.08,0,1-.83,2.25-1.87,2.25a6.56,6.56,0,0,1-2.19-.47c-2.91-.69-8.83-1.13-15.44-1.13-1.08,0-1.85,0-4.34.1l1.94,1.26a2,2,0,0,1,1.23,1.64c0,1-.66,1.33-1.69,1.64l-1.42,2.49c-6.66,11.8-6.85,12-10,15.79l-.07.09A55.45,55.45,0,0,1,370,64.56C368.45,65.61,368,65.78,367.58,65.78Zm19.91-36.21.17.21c1.23,1.56,1.63,2.39,1.63,3.42,0,2.68-5.08,12.76-9.37,18.62A58.79,58.79,0,0,1,368.26,63.7c-.49.45-.86.8-.86,1a.2.2,0,0,0,.18.11,6,6,0,0,0,1.85-1.06,54.52,54.52,0,0,0,13.51-11.31l.06-.08c3.11-3.7,3.29-3.92,9.91-15.65l1.62-2.84.19-.05c1.17-.34,1.17-.46,1.17-.74,0-.1,0-.37-.73-.78l0,0-4.59-3,1.57-.06c3.81-.16,4.66-.16,5.95-.16,6.78,0,12.65.44,15.69,1.16a6.16,6.16,0,0,0,1.94.44c.36,0,.87-.64.87-1.25,0-1.15-2.37-3.39-6.22-5.06L407,26.41h-1.51c-10.77.32-23.74,1.21-36.51,2.5a22.09,22.09,0,0,1-3.55.31c-2.26,0-4.32-1.28-6.29-3.91a4,4,0,0,0-.88,2.19c0,1.22,5.15,6.19,6.41,6.19a3.2,3.2,0,0,0,1.22-.47c1.26-.79,1.63-.88,4.17-1.34l7.61-1.22a93.43,93.43,0,0,1,9.54-1.07ZM373.05,20c-1,0-3.25-1.48-4.95-2.85s-2.31-2.19-2.31-3.05a8.34,8.34,0,0,1,.78-2.58,1.7,1.7,0,0,1,1.1-.71l.28-.08.21.2c2,2,4.11,3.35,5.27,3.35a19.26,19.26,0,0,0,2.74-.22c2-.3,5.34-.68,7.86-.91l13.37-1.28,2.94-2.46.29.13c4.77,2.27,6.9,4.07,6.9,5.85a1.59,1.59,0,0,1-1.64,1.72,20,20,0,0,1-2.43-.23,47.58,47.58,0,0,0-7-.3c-9.34,0-17.71,1.12-21.84,2.92A3.88,3.88,0,0,1,373.05,20Zm-5.37-8.14a.56.56,0,0,0-.29.24,8.85,8.85,0,0,0-.6,2c0,.49.65,1.25,1.94,2.27A13,13,0,0,0,373.05,19a3.11,3.11,0,0,0,1.15-.41c4.33-1.89,12.65-3,22.26-3a49.2,49.2,0,0,1,7.16.31,17.42,17.42,0,0,0,2.27.22c.53,0,.64-.39.64-.72,0-1.26-2-2.87-6-4.8l-2.69,2.25-13.68,1.3c-2.5.23-5.79.61-7.8.91a21.53,21.53,0,0,1-2.89.23C372,15.23,369.88,14,367.68,11.81Z"/><path class="cls-1" d="M438.49,15.8c.07-1.22-.46-1.52-4.26-3,1.29-1.75,2.21-2.43,3.12-2.43s3.49,1.14,6.53,2.81c.84.53,1.22.83,1.22,1.21,0,.69-.53,1.3-1.9,2.36V36.09a17.51,17.51,0,0,0,.15,3.35,23.23,23.23,0,0,1,.23,2.35,2.32,2.32,0,0,1-2.2,2.28c-1.3,0-3.27-2-3.27-3.42,0,0,.15-.61.3-1.44a16,16,0,0,0,.15-1.9l.08-4.49-.08-15.43Zm26.83,12.69c-.15,8.82-2.36,18.09-5.55,23s-9.5,9.5-17,12.47a41.27,41.27,0,0,1-7.07,2.27.68.68,0,0,1-.69-.68c0-.53.23-.68,3.42-2,6.31-2.59,11.1-5.85,14.67-10C458,48,459.92,41.41,460.53,28l-.08-12.62c-.07-1.52-.07-2.43-.07-2.81,0-.76-2.36-2-5.4-2.82,1.67-2,2.36-2.5,3.27-2.5a31.61,31.61,0,0,1,6.61,2.43c1.45.76,2,1.29,2,2,0,.53-.38,1.06-1.37,2.36Z"/><path class="cls-1" d="M435.68,66.76a1.18,1.18,0,0,1-1.19-1.18c0-.91.57-1.16,3.73-2.51,6.21-2.55,10.95-5.76,14.48-9.83,4.81-5.4,6.73-12,7.33-25.23L460,15.42c-.07-1.51-.07-2.42-.07-2.81s-1.72-1.42-5-2.33l-.76-.21.51-.6c1.68-2,2.48-2.68,3.65-2.68.94,0,5,1.57,6.84,2.48,1.43.75,2.25,1.4,2.25,2.5,0,.68-.42,1.28-1.37,2.53l-.15,14.2c-.16,9-2.42,18.32-5.63,23.29s-9.6,9.64-17.26,12.66A39.51,39.51,0,0,1,435.68,66.76ZM455.87,9.53c1.66.52,5,1.72,5,3.08,0,.38,0,1.28.07,2.78L461,28c-.61,13.52-2.6,20.28-7.58,25.87C449.82,58.09,445,61.39,438.6,64a16.36,16.36,0,0,0-3.1,1.51c0,.18.07.26.18.26a41.5,41.5,0,0,0,6.87-2.24c7.49-3,13.76-7.53,16.8-12.27s5.32-14,5.47-22.77L465,14l.1-.13c.9-1.17,1.27-1.69,1.27-2.05s-.28-.86-1.71-1.61a32.85,32.85,0,0,0-6.38-2.37C457.67,7.79,457.18,8,455.87,9.53Zm-14.49,35c-1.59,0-3.77-2.27-3.77-3.92v-.12s.15-.6.3-1.41a5.49,5.49,0,0,0,.08-.87c0-.28,0-.61.07-1l.07-4.46-.08-15.41L438,15.79v0c.05-.8-.06-1-3.94-2.55l-.6-.24.38-.52c1.38-1.87,2.4-2.63,3.52-2.63,1.4,0,5.2,2,6.78,2.87.9.57,1.47,1,1.47,1.65,0,.9-.66,1.63-1.9,2.6V36.09a20.62,20.62,0,0,0,.12,3.16l0,.12a22.14,22.14,0,0,1,.23,2.42A2.81,2.81,0,0,1,441.38,44.57Zm-2.77-3.86c.06,1.09,1.75,2.86,2.77,2.86a1.83,1.83,0,0,0,1.7-1.78,21.22,21.22,0,0,0-.22-2.24,17.18,17.18,0,0,1-.16-3.46V16.46l.19-.14c1.25-1,1.71-1.5,1.71-2,0-.16-.74-.64-1-.79-3.43-1.88-5.63-2.73-6.27-2.73s-1.37.51-2.32,1.71c3.08,1.24,4,1.72,4,3.26l.07,1.57.08,15.45-.08,4.5c0,.39,0,.71-.06,1a4.6,4.6,0,0,1-.11,1C438.78,40,438.65,40.53,438.61,40.71Z"/><path class="cls-1" d="M532.58,23.85c-6.16,3.73-7.15,4.26-11.93,6.77-.92,12.08-4.41,20.22-11.33,26.52-3.19,3-10.26,7.68-11.48,7.68a.67.67,0,0,1-.68-.68c0-.38.23-.61,1.29-1.3a34.67,34.67,0,0,0,13.3-14.36,52.75,52.75,0,0,0,4-18.47c0-2.2-1.21-3.34-4.1-4-.84-.23-1.14-.38-1.14-.68s.23-.61,2.81-2.43a23.57,23.57,0,0,1,8.44,4.71c7-5.4,9.34-7.37,14.67-12-27.75,2.28-35,3.42-39.75,6.31a1.24,1.24,0,0,1-.69.3,9,9,0,0,1-2.66-2.13C490,16.56,490,16.56,490,15.87a3.15,3.15,0,0,1,2-3.11c1.52,2.2,2.89,3.27,4.26,3.27a8.26,8.26,0,0,0,1.21-.16,12.1,12.1,0,0,0,2-.22l8.51-.92c12.7-1.36,14.82-1.52,29.42-2.5l2.73-2.06a40.72,40.72,0,0,1,3.35,2.59c2.58,2.2,3.27,3,3.27,3.8,0,1-.61,1.21-3.27,1.21h-.61c-1.37.76-3.19,1.9-5.47,3.27Z"/><path class="cls-1" d="M497.84,65.32a1.18,1.18,0,0,1-1.18-1.18c0-.7.52-1.07,1.52-1.72A34.08,34.08,0,0,0,511.3,48.27a52.52,52.52,0,0,0,4-18.26c0-1.94-1-2.9-3.72-3.54-.72-.2-1.52-.42-1.52-1.17s.34-.95,3-2.84l.19-.14.23.06a24.63,24.63,0,0,1,8.33,4.55C528.17,22,530.61,20,535,16.19c-26.24,2.18-33.44,3.36-38,6.12a1.58,1.58,0,0,1-.94.37c-.69,0-2.46-1.67-3-2.28-3.47-3.64-3.47-3.64-3.47-4.53a3.67,3.67,0,0,1,2.34-3.6l.34-.09.2.29c1.42,2.06,2.68,3.06,3.85,3.06a9.09,9.09,0,0,0,1.13-.15,11.93,11.93,0,0,0,2-.23l8.55-.91c12.86-1.39,15.09-1.54,29.29-2.5l2.89-2.18.3.2c.7.47.7.47,3.38,2.61s3.46,3.12,3.46,4.19c0,1.6-1.43,1.71-3.77,1.71H543c-.89.5-2,1.17-3.26,1.94l-2.09,1.26-4.79,2.81c-6.07,3.68-7.11,4.25-11.71,6.65-1,12-4.49,20.22-11.46,26.58C506.54,60.41,499.31,65.32,497.84,65.32Zm13.21-40c.05,0,.24.09.76.23,3.13.74,4.47,2.09,4.47,4.51a53.69,53.69,0,0,1-4.07,18.67,35.16,35.16,0,0,1-13.5,14.59c-.88.57-1,.74-1,.87a.18.18,0,0,0,.18.18c.94,0,7.76-4.4,11.14-7.54,6.83-6.23,10.27-14.31,11.17-26.2l0-.28.24-.12c4.79-2.51,5.75-3,11.91-6.75h0l4.78-2.81,2.09-1.26c1.32-.8,2.47-1.5,3.4-2l.11-.07h.74c2.77,0,2.77-.28,2.77-.71,0-.62-.67-1.35-3.1-3.42-2.19-1.76-2.55-2.05-3-2.35l-2.57,1.92h-.15c-14.31,1-16.51,1.12-29.39,2.51l-8.52.91a12,12,0,0,1-2,.23,7,7,0,0,1-1.21.16c-1.47,0-2.89-1-4.44-3.16a2.86,2.86,0,0,0-1.29,2.5c0,.47,0,.49,3.2,3.84a10.92,10.92,0,0,0,2.35,2,2.12,2.12,0,0,0,.34-.2c4.92-3,12-4.11,40-6.41l1.52-.12-1.15,1c-5.22,4.55-7.52,6.49-14.69,12l-.34.27-.31-.3a23.3,23.3,0,0,0-8-4.53,16.05,16.05,0,0,0-2.4,1.87Z"/><path class="cls-1" d="M.8,136.87,2,136.79c5.78-.07,7.07-1.21,7-6.31V93.32C8.94,88.83,7.64,88,.5,87.85V85.26H26c6.16,0,10.26.69,13.38,2.13,4.79,2.28,7.29,6.08,7.29,10.87A11.83,11.83,0,0,1,40.4,109c-2.66,1.59-5,2.35-9.88,3.11l12.77,18.7c3,4.48,4.79,5.47,10.56,5.85v2.74h-13l-17.79-27H15.78v18.08c-.08,5.4.83,6,9,6.39v2.51H.8Zm20.37-27c11.86,0,17.56-3.88,17.56-11.78,0-4-1.82-7.22-5.17-8.82-2.35-1.14-5.77-1.67-10.87-1.67-5.7,0-6.91,1-6.91,5.62v16.65Z"/><path class="cls-1" d="M54.35,139.88H40.59l-17.79-27H16.28v17.58c-.07,4.87.24,5.5,8.49,5.89l.48,0v3.49H.3V136.4L2,136.29c3.13,0,4.66-.39,5.51-1.26s1.05-2.09,1-4.54V93.32c-.07-3.95-.76-4.82-8-5H0V84.76H26c6.15,0,10.34.67,13.59,2.18,5,2.36,7.58,6.27,7.58,11.32a12.32,12.32,0,0,1-6.47,11.14c-2.6,1.56-4.92,2.34-9.28,3.06l12.32,18c3,4.37,4.58,5.26,10.19,5.63l.46,0Zm-13.22-1H53.35v-1.77c-5.51-.42-7.44-1.56-10.47-6L29.66,111.72l.78-.12c4.73-.74,7.09-1.48,9.7-3,4-2.42,6-5.79,6-10.29s-2.42-8.23-7-10.42C36,86.4,32,85.76,26,85.76H1v1.6c6.61.17,8.43,1,8.51,6v37.17c0,2.74-.33,4.26-1.3,5.25C7,137,4.86,137.26,2,137.29l-.73.05v1.54h23v-1.53c-8.33-.43-9-1.58-9-6.87V111.9h8.06Zm-20-28.49H15.28V93.24c0-4.92,1.45-6.12,7.41-6.12,5.14,0,8.66.55,11.09,1.72,3.46,1.65,5.45,5,5.45,9.27C39.23,106.37,33.32,110.39,21.17,110.39Zm-4.89-1h4.89c11.48,0,17.06-3.69,17.06-11.28,0-3.89-1.73-6.86-4.88-8.37-2.29-1.11-5.68-1.62-10.66-1.62-5.45,0-6.41.76-6.41,5.12Z"/><path class="cls-1" d="M117.69,112.17c0,16.34-11.47,28.42-27,28.42-15.81,0-27.29-11.78-27.29-28.12,0-10,4-17.55,12.24-23.26A26.68,26.68,0,0,1,91.4,84.43C106.6,84.43,117.69,96.13,117.69,112.17ZM78.1,92.25c-4.18,4.34-6.24,10.57-6.24,19.31,0,16.87,6.69,26.45,18.32,26.45S109,128.2,109,111.79c0-16-6.46-24.86-18.16-24.86A18.2,18.2,0,0,0,78.1,92.25Z"/><path class="cls-1" d="M90.64,141.09c-16.1,0-27.79-12-27.79-28.62,0-10.11,4.07-17.85,12.45-23.67a27.28,27.28,0,0,1,16.1-4.87c15.52,0,26.79,11.87,26.79,28.24C118.19,128.93,106.6,141.09,90.64,141.09Zm.76-56.16a26,26,0,0,0-15.53,4.7c-8.09,5.61-12,13.09-12,22.84,0,16,11.27,27.62,26.79,27.62s26.55-11.74,26.55-27.92C117.19,96.38,106.35,84.93,91.4,84.93Zm-1.22,53.58c-12,0-18.82-9.82-18.82-26.95,0-8.78,2.09-15.21,6.38-19.65h0a18.74,18.74,0,0,1,13.13-5.47c12,0,18.66,9,18.66,25.36C109.53,128.52,102.3,138.51,90.18,138.51ZM78.45,92.61c-4.09,4.24-6.09,10.44-6.09,19,0,16.49,6.5,25.95,17.82,25.95,11.49,0,18.35-9.62,18.35-25.72,0-15.71-6.27-24.36-17.66-24.36A17.69,17.69,0,0,0,78.45,92.61Z"/><path class="cls-1" d="M178.57,123.64c-1.9,4.26-3,6.24-4.94,8.44a25.7,25.7,0,0,1-36.79,1.75c-5.39-5-8.13-11.86-8.13-20.14,0-16.8,11.4-29.26,26.75-29.26a24.53,24.53,0,0,1,6.08.83,21.76,21.76,0,0,0,5,.76c1.59,0,2.66-.38,5-2l4.94,14.51-2.58,1.14c-3.12-5.17-4.94-7.22-8-9.35a18.41,18.41,0,0,0-10.57-3.42c-10.94,0-18.54,10.26-18.54,25s8.13,25.46,19.38,25.46c5.7,0,11.7-3.11,16.19-8.36a29.91,29.91,0,0,0,4-6.61Z"/><path class="cls-1" d="M154.4,141.25a26.09,26.09,0,0,1-17.9-7.06c-5.5-5.11-8.29-12-8.29-20.5,0-17,11.72-29.76,27.25-29.76a25.43,25.43,0,0,1,6.19.84,21.85,21.85,0,0,0,4.84.75c1.37,0,2.33-.26,4.73-1.89l.54-.37,5.3,15.57-3.4,1.51-.23-.38c-3-5-4.76-7-7.84-9.2a18,18,0,0,0-10.28-3.33c-10.62,0-18,10.08-18,24.51s7.94,25,18.88,25c5.52,0,11.43-3.06,15.81-8.19a28.58,28.58,0,0,0,3.95-6.5l.23-.48,3.07,1.7-.18.42c-1.95,4.35-3.12,6.35-5,8.56A25.72,25.72,0,0,1,154.4,141.25Zm1.06-56.32c-15,0-26.25,12.36-26.25,28.76,0,8.2,2.68,14.85,8,19.77a25.1,25.1,0,0,0,17.22,6.79,24.7,24.7,0,0,0,18.85-8.5,29,29,0,0,0,4.68-7.89l-1.34-.74a28.71,28.71,0,0,1-3.87,6.24c-4.57,5.35-10.77,8.54-16.57,8.54-11.52,0-19.88-10.92-19.88-26s7.83-25.51,19-25.51a19,19,0,0,1,10.85,3.51c3.1,2.17,5,4.34,7.9,9.13l1.76-.78-4.58-13.47c-2,1.31-3.15,1.7-4.75,1.7a22.21,22.21,0,0,1-5.05-.77A23.62,23.62,0,0,0,155.46,84.93Z"/><path class="cls-1" d="M239.07,123.64c-1.9,4.26-3,6.24-4.95,8.44a25.69,25.69,0,0,1-36.78,1.75c-5.4-5-8.13-11.86-8.13-20.14,0-16.8,11.4-29.26,26.75-29.26a24.53,24.53,0,0,1,6.08.83A21.77,21.77,0,0,0,227,86c1.6,0,2.66-.38,5-2l4.94,14.51-2.59,1.14c-3.11-5.17-4.94-7.22-8-9.35a18.38,18.38,0,0,0-10.56-3.42c-10.95,0-18.55,10.26-18.55,25s8.14,25.46,19.38,25.46c5.7,0,11.71-3.11,16.19-8.36a29.18,29.18,0,0,0,4-6.61Z"/><path class="cls-1" d="M214.9,141.25a26.07,26.07,0,0,1-17.9-7.06c-5.5-5.11-8.29-12-8.29-20.5,0-17,11.71-29.76,27.25-29.76a25.49,25.49,0,0,1,6.19.84,21.7,21.7,0,0,0,4.83.75c1.37,0,2.33-.26,4.74-1.89l.54-.37,5.3,15.57-3.41,1.51-.23-.38c-3-5-4.76-7-7.84-9.2a18,18,0,0,0-10.27-3.33c-10.63,0-18.05,10.08-18.05,24.51s7.94,25,18.88,25c5.52,0,11.43-3.06,15.81-8.19a28.94,28.94,0,0,0,4-6.5l.23-.48,3.07,1.7-.19.42c-1.94,4.35-3.11,6.35-5,8.56A25.7,25.7,0,0,1,214.9,141.25ZM216,84.93c-15,0-26.25,12.36-26.25,28.76,0,8.2,2.68,14.85,8,19.77a25.06,25.06,0,0,0,17.22,6.79,24.71,24.71,0,0,0,18.85-8.5,29,29,0,0,0,4.67-7.89l-1.34-.74a29,29,0,0,1-3.86,6.24c-4.58,5.35-10.77,8.54-16.58,8.54-11.52,0-19.88-10.92-19.88-26s7.83-25.51,19.05-25.51a19,19,0,0,1,10.85,3.51c3.09,2.17,5,4.34,7.89,9.13l1.77-.78-4.59-13.47c-2,1.31-3.14,1.7-4.75,1.7a22.36,22.36,0,0,1-5-.77A23.51,23.51,0,0,0,216,84.93Z"/><path class="cls-1" d="M303.67,112.17c0,16.34-11.48,28.42-27.06,28.42-15.81,0-27.29-11.78-27.29-28.12,0-10,4-17.55,12.24-23.26a26.68,26.68,0,0,1,15.81-4.78C292.57,84.43,303.67,96.13,303.67,112.17Zm-39.6-19.92c-4.18,4.34-6.24,10.57-6.24,19.31,0,16.87,6.69,26.45,18.32,26.45,11.78,0,18.85-9.81,18.85-26.22,0-16-6.46-24.86-18.16-24.86A18.2,18.2,0,0,0,264.07,92.25Z"/><path class="cls-1" d="M276.61,141.09c-16.1,0-27.79-12-27.79-28.62,0-10.11,4.08-17.85,12.45-23.67a27.28,27.28,0,0,1,16.1-4.87c15.53,0,26.8,11.87,26.8,28.24C304.17,128.93,292.58,141.09,276.61,141.09Zm.76-56.16a26,26,0,0,0-15.53,4.7c-8.09,5.61-12,13.09-12,22.84,0,16,11.27,27.62,26.79,27.62s26.56-11.74,26.56-27.92C303.17,96.38,292.32,84.93,277.37,84.93Zm-1.22,53.58c-12,0-18.82-9.82-18.82-26.95,0-8.78,2.09-15.21,6.38-19.65h0a18.74,18.74,0,0,1,13.13-5.47c12,0,18.66,9,18.66,25.36C295.5,128.52,288.27,138.51,276.15,138.51Zm-11.73-45.9c-4.09,4.24-6.09,10.44-6.09,19,0,16.49,6.5,25.95,17.82,25.95,11.49,0,18.35-9.62,18.35-25.72,0-15.71-6.27-24.36-17.66-24.36A17.69,17.69,0,0,0,264.42,92.61Z"/></g></g></svg>