<svg xmlns="http://www.w3.org/2000/svg" viewBox="0 0 199.12 20.11"><defs><style>.cls-1{fill:#542625;}</style></defs><g id="Layer_2" data-name="Layer 2"><g id="Layer_1-2" data-name="Layer 1"><path class="cls-1" d="M7.73,1.85c5.59,0,9,3.31,9,8.88s-3.67,8.93-9.43,8.93H0v-.84l2.28-.22c.05-2.37.05-4.85.05-7.56v-.79c0-2.47,0-4.9-.05-7.32L0,2.71V1.85ZM7.2,18.72c3.84,0,6-2.95,6-8s-2.16-8-5.83-8H5.74c-.08,2.43-.08,4.92-.08,7.47V11c0,2.74,0,5.23.08,7.68Z"/><path class="cls-1" d="M25.66,10C26.42,7.7,28,6.43,29.47,6.43A2,2,0,0,1,31.63,8C31.56,9.05,31.1,9.79,30,9.79a2.46,2.46,0,0,1-1.9-1.15l-.26-.29a6.47,6.47,0,0,0-2.16,3.53V14c0,1.29,0,3.24,0,4.6l2.21.29v.75H20.69v-.75l1.75-.21c0-1.37,0-3.36,0-4.68V12.29c0-1.56,0-2.43-.1-3.58L20.5,8.52v-.6l4.6-1.46.34.21Z"/><path class="cls-1" d="M41.18,18.91v.75h-6.6v-.75l1.76-.21c0-1.37,0-3.36,0-4.68V12.31c0-1.53,0-2.45-.07-3.65l-1.94-.19V7.82l4.87-1.36.34.21,0,3.75V14c0,1.32,0,3.33,0,4.7ZM36,2a1.9,1.9,0,0,1,3.79,0A1.9,1.9,0,0,1,36,2Z"/><path class="cls-1" d="M59.59,18.91v.75H53v-.75l1.68-.21c0-1.35.07-3.32.07-4.68V10.94c0-2.08-.6-2.8-1.9-2.8A4.91,4.91,0,0,0,49.73,9.7V14c0,1.32,0,3.33.05,4.7l1.56.19v.75H44.76v-.75l1.75-.21c0-1.37.05-3.36.05-4.68V12.29c0-1.56,0-2.43-.1-3.58l-1.89-.19v-.6l4.61-1.46.33.21.17,2.19a5.87,5.87,0,0,1,4.56-2.43c2.26,0,3.67,1.44,3.67,4.66V14c0,1.36,0,3.33.05,4.7Z"/><path class="cls-1" d="M77.57,18.91v.75H73l-3.67-6.94L68,14c0,1.41,0,3.33.07,4.7l1.7.19v.75H63v-.75l1.8-.21c0-1.39,0-3.34,0-4.68V1.85L62.9,1.7V1l4.83-1,.33.22L68,4v8.86l5-5L70.7,7.58V6.82h6.2v.76l-2.4.27-3,2.83,4.42,8Z"/><path class="cls-1" d="M100.49,9.46A14.71,14.71,0,0,1,98,14.87c.82.87,1.71,1.77,2.78,2.89l1.33.15,0,.65a8.66,8.66,0,0,1-2,.29,4,4,0,0,1-3-1.09c-.34-.34-.66-.65-.95-1a5.71,5.71,0,0,1-4.53,2.1c-3.09,0-4.84-1.93-4.84-4.19,0-1.89,1.09-3.41,3.64-4.59l-.27-.31a5.58,5.58,0,0,1-1.46-3.62c0-2.17,1.67-3.54,4.09-3.54s3.79,1.24,3.79,3-1.16,2.78-3.5,3.89c.45.51,1,1.14,1.84,2,1,1.11,1.81,2,2.63,2.86A13.66,13.66,0,0,0,99.2,9.46l-1.91-.25V8.54h4.9v.67Zm-4.78,6.82c-.91-1-1.73-2-2.49-2.84-1.11-1.32-1.77-2.13-2.42-2.9a4.06,4.06,0,0,0-1.58,3.24,3.37,3.37,0,0,0,3.54,3.51A4.47,4.47,0,0,0,95.71,16.28ZM90.82,5.5a3.92,3.92,0,0,0,1,2.53c.27.36.55.67.86,1.05a4.75,4.75,0,0,0,1.92-3.49c0-1.35-.69-2.13-1.83-2.13A1.93,1.93,0,0,0,90.82,5.5Z"/><path class="cls-1" d="M126,10.75c0,6-3.92,9.36-8.29,9.36s-8.3-3.24-8.3-9.36,4-9.33,8.3-9.33S126,4.68,126,10.75Zm-8.29,8.38c3.22,0,4.73-3.7,4.73-8.38S120.9,2.4,117.68,2.4,113,6.14,113,10.75,114.47,19.13,117.68,19.13Z"/><path class="cls-1" d="M138.28,18.34a3.83,3.83,0,0,1-3.46,1.7c-2.21,0-3.43-1.08-3.43-3.53,0-.76,0-1.44,0-2.4V7.82h-2.06V7l2.23-.24,1-3.77h2.07l-.08,3.8h3.17v1h-3.19v8.89c0,1.34.6,1.89,1.56,1.89a2.68,2.68,0,0,0,1.7-.72Z"/><path class="cls-1" d="M155.94,18.91v.75h-6.58v-.75l1.73-.21c0-1.35,0-3.32,0-4.68V10.94c0-2.08-.7-2.8-1.94-2.8A4.82,4.82,0,0,0,146,9.7V14c0,1.32,0,3.33.07,4.7l1.54.19v.75h-6.53v-.75l1.75-.21c0-1.37,0-3.36,0-4.68V1.85L141,1.7V1l4.76-1,.36.22L146,4V8.9c1.44-1.65,2.86-2.47,4.61-2.47,2.28,0,3.67,1.37,3.67,4.71V14c0,1.36,0,3.33.05,4.7Z"/><path class="cls-1" d="M162.88,13.18c.09,3.67,1.92,5.28,4.24,5.28a4.12,4.12,0,0,0,3.6-1.85l.49.34A5.46,5.46,0,0,1,166,20c-3.76,0-6.5-2.45-6.5-6.82a6.46,6.46,0,0,1,6.53-6.79,5,5,0,0,1,5.28,5.26,5.22,5.22,0,0,1-.17,1.49Zm4.1-.89c1.1,0,1.37-.55,1.37-1.78,0-1.94-1-3.19-2.5-3.19s-2.83,1.46-3,5Z"/><path class="cls-1" d="M180.08,10c.77-2.31,2.38-3.58,3.82-3.58A2,2,0,0,1,186.06,8c-.07,1.08-.53,1.82-1.66,1.82a2.46,2.46,0,0,1-1.89-1.15l-.27-.29a6.58,6.58,0,0,0-2.16,3.53V14c0,1.29,0,3.24,0,4.6l2.21.29v.75h-7.22v-.75l1.75-.21c0-1.37,0-3.36,0-4.68V12.29c0-1.56,0-2.43-.1-3.58l-1.9-.19v-.6l4.61-1.46.34.21Z"/><path class="cls-1" d="M195.56,12c2.52.84,3.56,2.12,3.56,4,0,2.45-2,4.13-5.5,4.13a9,9,0,0,1-4.44-1.1l.1-3.12h1.39l.67,2.9a5.13,5.13,0,0,0,2.09.39c1.92,0,2.93-.75,2.93-2.07,0-1-.56-1.73-2.43-2.35l-1.32-.43c-2.06-.65-3.33-1.8-3.33-3.75,0-2.3,1.8-4.08,5.08-4.08a8.19,8.19,0,0,1,4,1.08l-.17,2.88H197l-.74-2.59a3.85,3.85,0,0,0-1.82-.43c-1.59,0-2.5.77-2.5,1.94,0,1,.53,1.66,2.38,2.26Z"/></g></g></svg>