<svg xmlns="http://www.w3.org/2000/svg" width="1622.94" height="181.26" viewBox="0 0 811.47 90.63">
  <defs>
    <style>
      .cls-1 {
        fill: #532525;
        fill-rule: evenodd;
      }
    </style>
  </defs>
  <path id="_森のジェラテリア_ROCCO_は_栃木県の人気ジェラート店とコラボしています" data-name="「森のジェラテリア ROCCO」は、 栃木県の人気ジェラート店とコラボしています" class="cls-1" d="M1423.23,9465.74v27.25h1.73v-25.67h10.65v-1.58h-12.38Zm46.59,21.71,4.77,0.1v-2.8l-4.77.1h-2.74v-3.27c0.83-.22,1.16-0.4,1.16-0.76,0-.68-0.58-0.79-4.62-1.15a11.333,11.333,0,0,1,.32,2.63v2.55h-0.9l-4.76-.1v2.8l4.76-.1h0.4a22.2,22.2,0,0,1-8.12,7.05,13.723,13.723,0,0,1,2.16,2.16,25.312,25.312,0,0,0,6.57-5.8l-0.18,8.64h3.28l-0.18-8.67a28.732,28.732,0,0,0,6.39,5.97,10.124,10.124,0,0,1,2.27-2.62,21.027,21.027,0,0,1-8.08-6.73h2.27Zm-3.46-15.27,5.81,0.15v-2.85l-5.81.15h-6.78v-1.84c0.83-.22,1.15-0.4,1.15-0.76,0-.68-0.58-0.79-4.66-1.15a9.753,9.753,0,0,1,.33,2.63v1.12h-6.21l-5.81-.15v2.85l5.81-.15h4.84c-3.14,2.41-7.04,4.03-13.14,5.4a8.062,8.062,0,0,1,2.1,2.63c5.52-1.55,9.2-3.38,12.52-6.05l-0.25,7.53h3.46l-0.25-7.56c3.64,3.06,7.36,4.71,13.31,6.15a9.584,9.584,0,0,1,1.77-3.06c-5.74-.72-10.07-2.34-13.57-5.04h5.38Zm-17.76,27.32h3.22l-0.08-8.2v-0.58a17.575,17.575,0,0,1,2.96,2.95l2.13-1.87a18.512,18.512,0,0,0-3.89-3.35l-1.2,1.01v-2.01h0.69l4.73,0.1v-2.8l-4.73.1h-0.69v-3.27c0.83-.22,1.16-0.4,1.16-0.76,0-.68-0.58-0.79-4.55-1.15a10.386,10.386,0,0,1,.33,2.63v2.55h-2.2l-4.73-.1v2.8l4.73-.1h1.69a21.653,21.653,0,0,1-7.43,7.3,8.685,8.685,0,0,1,2.09,2.2,22.637,22.637,0,0,0,5.96-5.91Zm47.14-5.72a11.957,11.957,0,0,1,2.24,3.06c9.45-1.15,14.03-6.48,14.03-13.07,0-7.7-5.91-12.96-14.25-12.96-8.84,0-15.52,6.3-15.52,14.69,0,5.33,2.38,9.07,5.81,9.07,2.38,0,4.58-2.12,6.53-5.9a43.253,43.253,0,0,0,4.15-12.56,18.01,18.01,0,0,0-3.75-.9c-0.58,0-.79.14-0.79,0.46a1.874,1.874,0,0,0,.9.98,37.831,37.831,0,0,1-3.21,10.11c-1.3,2.63-2.64,4.39-3.86,4.39-1.38,0-2.39-2.3-2.39-5.61,0-6.81,5.16-11.77,11.98-11.77,6.36,0,10.72,3.96,10.72,9.75C1508.33,9489.53,1504.4,9492.95,1495.74,9493.78Zm47.89-25.09a25.2,25.2,0,0,1,5.27,5.69l1.84-1.62a24.459,24.459,0,0,0-5.27-5.47Zm3.68-2.45a22.712,22.712,0,0,1,4.98,5.22l1.77-1.51a24.6,24.6,0,0,0-4.98-5.15Zm-22.19,7.38a33.407,33.407,0,0,1,10.35,3.71l1.56-3.17a40.53,40.53,0,0,0-10.72-3.71Zm-2.02,7.6a52.467,52.467,0,0,1,10.24,3.2l1.34-3.24a51.441,51.441,0,0,0-10.43-3.09Zm4.98,15.08c11.36-2.52,17.28-7.81,21.72-18.72a14.843,14.843,0,0,1-2.81-2.84c-3.97,10.83-8.7,16.34-20.9,18.18a2.176,2.176,0,0,0-1.23-.83c-0.28,0-.43.18-0.43,0.61,0,0.5.25,1.26,1.3,4.18Zm48.57-13.75h3.76l4.9,0.07v-3.09l-4.9.14h-10.43l-4.91-.14v3.09l4.91-.07h3.32v10.01h-4.98l-4.91-.11v3.09l4.91-.1h13.6l4.91,0.1v-3.09l-4.91.11h-5.27v-10.01Zm49.59-4.64-5.59.14h-13.79l-5.81-.14v3.56l5.81-.14h15.66c-0.54,7.12-6.49,11.3-16.63,12.49a9.247,9.247,0,0,1,1.76,3.31c10.47-1.23,18.34-7.02,18.7-16.27,0.03-.9.07-1.84,0.11-2.74Zm-21.87-7.6v3.49l5.85-.11h7.25l5.85,0.11v-3.49l-5.85.14h-7.25Zm51.86,11.48h4.87l5.89,0.11v-3.49l-5.89.14h-16.09l-5.88-.14v3.49l5.88-.11h7.4v0.8c0,6.76-2.67,9.32-9.6,11.73a9.643,9.643,0,0,1,2.2,3.02c7.65-2.84,11.22-6.87,11.22-14.79v-0.76Zm-13.21-11.23v3.46l5.85-.11h8.66l5.88,0.11v-3.46l-5.88.15h-8.66Zm44.03,1.62,0.33-2.05a20.3,20.3,0,0,0-4.26-.83c-0.69,0-.83.18-0.83,0.47,0,0.25.18,0.47,1.15,1.12v9.54l-0.14,5.83h3.9l-0.15-5.83v-8.25Zm13.61-.47,0.29-2.08a19.583,19.583,0,0,0-4.33-.83c-0.69,0-.83.18-0.83,0.47s0.18,0.46,1.15,1.11v12.6c0,7.6-3.75,10.01-12.95,10.98a14.5,14.5,0,0,1,1.62,3.38c10.68-1.51,15.05-5.36,15.05-14.36v-11.27Zm32.16,8,0.32-2.09a26.377,26.377,0,0,0-4.26-.65c-0.76,0-.94.18-0.94,0.47,0,0.39.22,0.61,1.19,1.11v2.92c0,7.16-2.67,10.4-8.98,12.6a11.585,11.585,0,0,1,2.16,3.02c7.29-2.59,10.51-7.81,10.51-15.33v-2.05Zm7.43-5.62a21.575,21.575,0,0,1-6.21,5.76,9.639,9.639,0,0,1,2.67,2.34,36.355,36.355,0,0,0,7.55-7.34c1.19-.47,1.62-0.76,1.62-1.3s-0.47-1.08-3.03-3.35h-0.51l-0.79.61h-17.47l-6.31-.18v3.64l6.31-.18h16.17Zm26.49-4.97v2.52l3.97,0.36v21.46l-3.97.36v2.52h12.06v-2.52l-4.05-.36v-8.17a30.69,30.69,0,0,0,3.97.21c2.06,2.92,3.4,4.9,4.87,6.91,2.31,3.17,3.36,3.93,6,3.93h2.3v-2.56c-1.47-.07-2.56-0.43-4.61-3.06-1.05-1.33-2.75-3.56-4.98-6.73a7.567,7.567,0,0,0,5.77-7.67c0-4.57-3.32-7.2-9.06-7.2h-12.27Zm8.01,2.95h2.78c3.9,0,6.17,1.77,6.17,5.04,0,3.68-2.34,5.37-6.28,5.37a21.837,21.837,0,0,1-2.67-.15v-10.26Zm36.02-3.31c-7.83,0-13.1,5.29-13.1,14.15,0,8.64,4.69,13.79,12.96,13.79,7.83,0,13.13-5.3,13.13-14.15C1823.76,9473.91,1819.07,9468.76,1810.77,9468.76Zm0.25,24.8c-5.77,0-8.95-3.49-8.95-10.72,0-6.77,3.14-10.98,8.3-10.98,5.85,0,8.99,3.49,8.99,10.76C1819.36,9489.35,1816.22,9493.56,1811.02,9493.56Zm39.7-15.62h3.18v-7.92a27.9,27.9,0,0,0-8.19-1.26c-8.63,0-14.37,5.73-14.37,14.08,0,8.74,5.02,13.86,14.01,13.86a26.366,26.366,0,0,0,8.73-1.41v-3.13a25.772,25.772,0,0,1-7.62,1.19c-7,0-10.75-3.71-10.75-10.58,0-6.74,3.5-10.88,9.27-10.88a16.912,16.912,0,0,1,5.24.76Zm30.14,0h3.17v-7.92a27.8,27.8,0,0,0-8.19-1.26c-8.62,0-14.36,5.73-14.36,14.08,0,8.74,5.02,13.86,14,13.86a26.285,26.285,0,0,0,8.73-1.41v-3.13a25.7,25.7,0,0,1-7.61,1.19c-7,0-10.75-3.71-10.75-10.58,0-6.74,3.5-10.88,9.27-10.88a16.849,16.849,0,0,1,5.23.76Zm23.85-9.18c-7.83,0-13.1,5.29-13.1,14.15,0,8.64,4.7,13.79,12.96,13.79,7.83,0,13.14-5.3,13.14-14.15C1917.71,9473.91,1913.01,9468.76,1904.71,9468.76Zm0.26,24.8c-5.78,0-8.95-3.49-8.95-10.72,0-6.77,3.14-10.98,8.3-10.98,5.84,0,8.98,3.49,8.98,10.76C1913.3,9489.35,1910.16,9493.56,1904.97,9493.56Zm31.97,6.02v-27.25h-1.73v25.66h-10.64v1.59h12.37Zm37.9-21.03c1.66,0.04,3.25.08,5.19,0.08,1.52,0,3.29-.04,4.95-0.08,0.11,3.39.18,6.48,0.29,9.72a11.1,11.1,0,0,0-4.04-.82c-3.25,0-6.36,2.44-6.36,4.96,0,2.63,2.82,4.54,6.68,4.54,3.14,0,5.52-1.23,6.71-3.82a41.952,41.952,0,0,1,4.87,3.67l2.13-2.98a66.274,66.274,0,0,0-6.56-4.07c-0.11-2.92-.29-6.73-0.33-11.38,1.99-.1,4.01-0.25,6.1-0.46l-0.04-3.21c-2.2.25-4.25,0.43-6.1,0.54v-3.17c0-1,0-2.08.04-3.09-1.73-.07-3.03-0.11-3.68-0.11-0.87,0-1.08.14-1.08,0.47,0,0.29.32,0.61,1.26,0.97,0,1.51.07,3.6,0.07,5.11-1.48.07-2.56,0.07-4.18,0.07s-4.08-.07-5.96-0.18Zm10.32,12.89c-0.4,1.8-2.02,2.66-4.08,2.66-1.73,0-3.1-.72-3.1-1.8,0-1.11,1.59-2.05,3.07-2.05A8.735,8.735,0,0,1,1985.16,9491.44Zm-13.32,5.65a36.692,36.692,0,0,1-1.58-11.05,61.582,61.582,0,0,1,2.49-16.74,17.655,17.655,0,0,0-4.08-.86c-0.51,0-.69.11-0.69,0.39a1.823,1.823,0,0,0,.98.98,69.5,69.5,0,0,0-2.17,16.56,37.646,37.646,0,0,0,1.62,11.51Zm41.07,0.15a35.272,35.272,0,0,0-7.76-8.36l-2.7,2.24a32.759,32.759,0,0,1,7.47,8.67Zm-695.06,58.19h3.36l-0.15-11.55v-5.04a20.593,20.593,0,0,1,1.81,3.53l2.38-1.52a21.235,21.235,0,0,0-2.96-4.6l-1.23.75v-4.5l3.72,0.11v-2.95l-3.72.11v-5.94c0.83-.22,1.16-0.44,1.16-0.83,0-.61-0.55-0.79-4.55-1.08a13.272,13.272,0,0,1,.32,3.2v4.65h-1.15l-4.19-.11v2.95l4.19-.11h0.79a35.435,35.435,0,0,1-5.73,13.03,9.214,9.214,0,0,1,1.98,2.7,37.15,37.15,0,0,0,4.29-8.74Zm11.22-24.44v-2.88c4.95-.54,9.1-1.22,13.79-2.16a8.6,8.6,0,0,0,.9.07c0.58,0,.83-0.14.83-0.5,0-.54-0.47-0.94-3.03-2.77a12.232,12.232,0,0,1-2.31.82,81.3,81.3,0,0,1-10.47,1.88c-1.01-.36-2.09-0.65-3.21-0.94a13.989,13.989,0,0,1,.33,3.28v8.38c0,8.28-1.05,11.88-4.26,16.17a8.612,8.612,0,0,1,2.56,2.05c3.61-4.97,4.87-9.29,4.87-18.43v-2.2h3.79v3.28c0,8.6-1.55,12.13-6.49,15.66a10.071,10.071,0,0,1,2.31,2.3c4.54-3.53,6.64-6.95,7.21-13.75h4.87a68.433,68.433,0,0,1-.64,9.03c-0.22,1.05-.55,1.26-1.2,1.26a24.132,24.132,0,0,1-3.97-.25,11.464,11.464,0,0,1,1.45,3.49h1.66c3.64,0,4.76-.82,5.23-3.99,0.29-1.84.47-4.9,0.65-9.11l0.14-3.17-0.14-.21-4.51.14h-3.39v-4.68h4.94l4.73,0.15v-3.06l-4.73.14h-11.91Zm49.3,1.76,5.81,0.15v-3.17l-5.81.14h-8.62v-6.19c0.83-.21,1.15-0.39,1.15-0.75,0-.69-0.65-0.79-4.8-1.01a10.827,10.827,0,0,1,.33,3.06v4.89h-8.27l-5.77-.14v3.17l5.77-.15h7.15a32.859,32.859,0,0,1-14.29,15.23,7.425,7.425,0,0,1,2.16,2.63,32.291,32.291,0,0,0,13.25-13.79v12.78l-0.15,5.83h3.61l-0.14-5.83v-12.99c3.46,6.12,7.29,9.79,13.64,13.71a17.757,17.757,0,0,1,2.27-3.1c-7.18-3.99-11.29-7.84-14.79-14.47h7.5Zm26.82,8h8.41l5.26,0.18,0.18-.18-0.18-4.9v-7.78l0.18-4.53-0.21-.18-5.23.18h-8.41l-5.24-.18-0.18.18,0.15,4.53v7.78l-0.15,4.9,0.18,0.18Zm10.46-2.7h-12.52v-2.34h12.52v2.34Zm-12.52-9.58v-2.27h12.52v2.27h-12.52Zm12.52,2.48v2.27h-12.52v-2.27h12.52Zm-5.99,14.73h7.94l5.78,0.14v-3.02l-5.78.14h-21.25v-14.83c0.86-.29,1.01-0.54,1.01-0.86,0-.54-0.44-0.76-4.51-0.94a19.54,19.54,0,0,1,.36,3.67v10.66l-0.15,4.96,0.15,0.22,4.54-.14h8.56v3.99l-0.15,5.76h3.61l-0.11-5.76v-3.99Zm2.13,3.45a71.547,71.547,0,0,1,10.11,5.73l2.34-2.6a75.615,75.615,0,0,0-10.21-5.29Zm-9.38.79c1.08,0.08,1.62-.03,1.62-0.5,0-.5-0.36-0.79-3.17-2.59a8.432,8.432,0,0,1-1.88,1.83,29.4,29.4,0,0,1-8.3,3.93,8.033,8.033,0,0,1,2.35,2.48A31.833,31.833,0,0,0,1402.41,9549.92Zm42.4-.14a11.724,11.724,0,0,1,2.24,3.06c9.46-1.15,14.04-6.48,14.04-13.07,0-7.7-5.92-12.96-14.25-12.96-8.85,0-15.52,6.3-15.52,14.69,0,5.33,2.38,9.07,5.81,9.07,2.38,0,4.58-2.12,6.53-5.9a43.555,43.555,0,0,0,4.15-12.56,18.01,18.01,0,0,0-3.75-.9c-0.58,0-.8.14-0.8,0.46a1.917,1.917,0,0,0,.91.98,37.463,37.463,0,0,1-3.22,10.11c-1.3,2.63-2.63,4.39-3.86,4.39-1.37,0-2.38-2.3-2.38-5.61,0-6.81,5.16-11.77,11.98-11.77,6.35,0,10.72,3.96,10.72,9.75C1457.41,9545.53,1453.48,9548.95,1444.81,9549.78Zm41.58-24.66c0.87-.25,1.16-0.47,1.16-0.86,0-.65-0.62-0.76-4.91-0.94a19.953,19.953,0,0,1,.32,3.67v1.8c0,5.91-1.15,10.34-3.64,14.08a23.21,23.21,0,0,1-10.79,9.11,11.247,11.247,0,0,1,2.42,2.62,26.977,26.977,0,0,0,11.22-10.04,23.853,23.853,0,0,0,2.92-6.69c2.24,7.27,7,12.52,14.83,16.55a12.544,12.544,0,0,1,2.42-2.91c-9.17-4.29-13.71-9.5-16.09-19.37,0.1-1.04.14-2.12,0.14-3.27v-3.75Zm25.81,16.99a65.461,65.461,0,0,1,7.14,4.25,28.8,28.8,0,0,1-11.08,5.83,9.155,9.155,0,0,1,1.95,2.59,35.785,35.785,0,0,0,11.66-6.66,60.252,60.252,0,0,1,5.84,4.9l2.24-2.41a59.24,59.24,0,0,0-5.88-4.68,31.5,31.5,0,0,0,3.17-4.21c0.91,0.03,1.34-.04,1.34-0.47,0-.5-0.18-0.79-3.68-2.38a6.616,6.616,0,0,1-1.08,2.42,34.772,34.772,0,0,1-2.31,2.95,76.305,76.305,0,0,0-7.29-4.11Zm4.9-16.41,0.76-1.3c0.98,0,1.23-.18,1.23-0.5,0-.54-0.43-0.76-4.04-1.98a10.115,10.115,0,0,1-.9,2.37,24.114,24.114,0,0,1-7.26,7.82,7.165,7.165,0,0,1,2.42,1.98,29.4,29.4,0,0,0,5.81-5.55h18.44l5.77,0.15v-3.14l-5.77.15H1517.1Zm-2.09,9.65-5.77-.15v3.1l5.77-.15h16.93a53.6,53.6,0,0,0,.68,10.73c0.76,3.92,2.28,5.98,4.58,5.98,2.24,0,3.4-1.62,4.08-6.34a11.09,11.09,0,0,1-2.92-1.98c-0.29,3.67-.72,4.68-1.26,4.68-0.58,0-1.01-1.15-1.3-2.92a38.548,38.548,0,0,1-.65-6.69c0-1.26,0-2.23.03-2.84l0.15-3.39-0.18-.18-5.6.15h-14.54Zm4.76-2.16h10.25l5.81,0.1v-3.06l-5.81.15h-10.25l-5.81-.15v3.06Zm50.89-8.5a25.2,25.2,0,0,1,5.27,5.69l1.84-1.62a24.027,24.027,0,0,0-5.27-5.47Zm3.68-2.45a22.712,22.712,0,0,1,4.98,5.22l1.77-1.51a24.353,24.353,0,0,0-4.98-5.15Zm-22.19,7.38a33.564,33.564,0,0,1,10.36,3.71l1.55-3.17a40.53,40.53,0,0,0-10.72-3.71Zm-2.02,7.6a52.56,52.56,0,0,1,10.25,3.2l1.33-3.24a51.441,51.441,0,0,0-10.43-3.09Zm4.98,15.08c11.36-2.52,17.28-7.81,21.72-18.72a15.138,15.138,0,0,1-2.81-2.84c-3.97,10.83-8.7,16.34-20.9,18.18a2.2,2.2,0,0,0-1.22-.83c-0.29,0-.44.18-0.44,0.61,0,0.5.26,1.26,1.3,4.18Zm48.57-13.75h3.76l4.91,0.07v-3.09l-4.91.14h-10.43l-4.91-.14v3.09l4.91-.07h3.32v10.01h-4.98l-4.91-.11v3.09l4.91-.1h13.6l4.91,0.1v-3.09l-4.91.11h-5.27v-10.01Zm49.59-4.64-5.59.14h-13.79l-5.81-.14v3.56l5.81-.14h15.66c-0.54,7.12-6.49,11.3-16.63,12.49a9.45,9.45,0,0,1,1.77,3.31c10.46-1.23,18.33-7.02,18.69-16.27,0.04-.9.07-1.84,0.11-2.74Zm-21.87-7.6v3.49l5.85-.11h7.25l5.85,0.11v-3.49l-5.85.14h-7.25Zm40.89,14.47h15.59l5.88,0.15v-3.86l-5.88.18h-15.59l-5.88-.18v3.86Zm45.15-3.81v-9.62l0.33-2.08a21.2,21.2,0,0,0-4.37-.8c-0.65,0-.87.15-0.87,0.47s0.26,0.58,1.16,1.08v21.2l-0.11,5.84h4.01l-0.15-5.84v-9.57a42.229,42.229,0,0,1,10.72,4.97l1.91-3.24a43.229,43.229,0,0,0-11.04-4.79Zm50.49,16.05v2.09h3.32l-0.14-5.76v-2.85l0.14-4.53-0.14-.18-4.59.14h-5.19v-4.32h5.84l5.78,0.15v-3.03l-5.78.15h-5.84v-3.06c0.9-.25,1.19-0.47,1.19-0.83,0-.58-0.76-0.76-4.62-0.83a21.808,21.808,0,0,1,.29,3.31v8.46h-3.18l-4.55-.14-0.18.18,0.15,4.53v3.1l-0.15,5.76h3.29v-2.34h14.36Zm0-2.7h-14.36v-5.69h14.36v5.69Zm-10.57-23.83h-7.04l-5.52-.14-0.18.21,0.14,5.58v7.09c0,6.05-1.22,9.94-4.22,14.08a8.661,8.661,0,0,1,2.74,1.98,26.041,26.041,0,0,0,4.77-15.98V9529.3h20.46l5.77,0.14v-3.09l-5.7.14h-8.12v-2.92c0.83-.21,1.16-0.39,1.16-0.75,0-.68-0.51-0.79-4.59-1.01a9.714,9.714,0,0,1,.33,2.63v2.05Zm29.52-.14a92.49,92.49,0,0,1,5.59,10.47c-4.9,2.95-6.96,5.65-6.96,9.07,0,4.75,3.35,6.81,11.22,6.81a101.689,101.689,0,0,0,11.91-.65l-0.29-3.6a92.59,92.59,0,0,1-11.26.83c-6.67,0-8.12-1.23-8.12-3.39,0-2.26,1.55-4.21,5.96-6.73a137.145,137.145,0,0,1,13.02-6.26,41.941,41.941,0,0,0-2.41-3.49,1.028,1.028,0,0,0-.76-0.51,0.483,0.483,0,0,0-.51.58,4.149,4.149,0,0,0,.18.97c-3.28,1.69-5.77,2.95-8.98,4.68a115.267,115.267,0,0,0-5.41-10.3Zm60.31,17.17v-8.57l0.14-5.69-0.22-.18-5.63.15h-11.22l-5.81-.15v3.53l5.81-.11h13.17v13.46h-13.49l-5.81-.1v3.52l5.81-.14h11.54l5.63,0.14,0.22-.18Zm39.95-9.61-5.6.14h-13.78l-5.81-.14v3.56l5.81-.14h15.66c-0.54,7.12-6.5,11.3-16.64,12.49a9.131,9.131,0,0,1,1.77,3.31c10.47-1.23,18.33-7.02,18.7-16.27,0.03-.9.07-1.84,0.1-2.74Zm-21.87-7.6v3.49l5.84-.11h7.26l5.84,0.11v-3.49l-5.84.14h-7.26Zm55.47-2.05a23.934,23.934,0,0,1,5.05,5.87l1.91-1.55a24.5,24.5,0,0,0-5.05-5.69Zm3.97-2.16a22.147,22.147,0,0,1,4.76,5.4l1.84-1.44a23.3,23.3,0,0,0-4.8-5.33Zm-9.06,9.21v-3.81l0.29-2.09a20.806,20.806,0,0,0-4.22-.76c-0.65,0-.87.18-0.87,0.44,0,0.21.25,0.5,1.12,1v5.22h-6.53l-5.89-.14v3.46l5.89-.08h6.53v14.19a0.833,0.833,0,0,1-.98,1,16.57,16.57,0,0,1-4.36-.97,15.569,15.569,0,0,1-.25,3.28,16.235,16.235,0,0,0,5.52,1.11,3.516,3.516,0,0,0,3.82-3.85c0-.75-0.07-1.58-0.07-2.99v-11.77h6.06l5.88,0.08v-3.46l-5.88.14h-6.06Zm3.03,8.28a37.25,37.25,0,0,1,6.93,9.18l2.89-2.16a39.7,39.7,0,0,0-7.08-9.1Zm-9.92-.28c-2.71-1.48-3.76-1.88-4.15-1.88a0.454,0.454,0,0,0-.54.44,1.8,1.8,0,0,0,.68,1,22.766,22.766,0,0,1-6.6,8.21,9.355,9.355,0,0,1,2.63,2.2,31.165,31.165,0,0,0,7-8.57Zm56.22,4.1c-4.29,4.35-8.8,6.48-13.46,6.48-3.46,0-4.29-1.23-4.29-4.93,0-5.58.11-11.05,0.58-20.59-1.95-.15-3.32-0.22-4.01-0.22-0.79,0-.94.14-0.94,0.54,0,0.29.29,0.5,1.05,0.94-0.15,7.59-.29,15.19-0.29,19.76,0,5.76,2.53,8.06,8.05,8.06,4.76,0,9.96-2.19,15.01-6.66A16.466,16.466,0,0,1,1964.98,9543.41Zm40.17-13.72-0.43-3.13-0.33-.18c-9.63,1.48-17.93,2.59-26.84,3.57l0.61,3.45c4.08-.61,8.66-1.29,12.31-1.83l3.42-.72,0.08,0.14a21.187,21.187,0,0,0-2.71,1.84,12.756,12.756,0,0,0-4.01,9.21c0,7.2,5.16,11.05,15.45,11.05h0.9l0.11-3.78c-0.69.04-1.05,0.07-1.52,0.07-7.9,0-11.47-2.37-11.47-7.59a10.99,10.99,0,0,1,4.94-9.11c2.02-1.44,4.19-2.37,9.28-2.7Zm30.28,3.68a37.868,37.868,0,0,1,7.8,13.17l3.39-1.73a38.677,38.677,0,0,0-8.37-13.32Zm-7.14,9.9c-1.48,4.31-2.35,5.54-3.21,5.54-0.8,0-3.9-3.6-3.9-11.2a44.767,44.767,0,0,1,1.23-10.11,26.289,26.289,0,0,0-4.26-.72c-0.62,0-.8.14-0.8,0.39a1.681,1.681,0,0,0,.98,1.05,57.536,57.536,0,0,0-.8,9.43c0,8.06,3.5,14.79,7.65,14.79,1.95,0,4.05-1.62,6.03-7.09A12.033,12.033,0,0,1,2028.29,9543.27Zm29.02-11.06c3.78-.36,7.47-0.54,11.22-0.68v4.79c-1.12.11-2.31,0.11-3.39,0.11a8.97,8.97,0,0,1-5.16-1.19l-1.95,2.37a12.046,12.046,0,0,0,7.14,1.88c1.12,0,2.38-.04,3.47-0.08,0.03,1.62.14,3.39,0.21,4.9a12.127,12.127,0,0,0-3.35-.61c-4.01,0-7.65,2.41-7.65,5.11,0,2.77,3.17,4.75,7.68,4.75,3.97,0,6.21-1.66,6.68-4.82a68.171,68.171,0,0,1,8.41,4.64l1.91-3.06a80.937,80.937,0,0,0-10.25-5.04c-0.07-2.01-.18-4.1-0.25-6.12,2.99-.32,5.34-0.65,8.73-1.22l-0.72-2.99a78.218,78.218,0,0,1-8.12,1.15v-4.68c2.17-.07,3.79-0.07,5.09-0.07,0.9,0,2.56.04,5.02,0.07l-0.11-3.02c-2.2-.07-3.58-0.07-4.95-0.07-1.3,0-2.74.03-5.01,0.07,0.03-.94.07-2.49,0.14-4.65-1.98-.07-3.1-0.1-3.75-0.1-0.87,0-1.08.1-1.08,0.5,0,0.32.36,0.58,1.26,1.01v3.35c-3.83.14-7.36,0.39-11.4,0.72Zm11.58,15.34c-0.07,1.83-1.16,3.06-3.36,3.06-2.52,0-4.51-.79-4.51-1.87,0-1.16,2.13-2.09,4.26-2.09A9.659,9.659,0,0,1,2068.89,9547.55Zm43.63-21.31,0.11-2.67c-2.16-.07-3.32-0.07-3.97-0.07-0.61,0-.83.15-0.83,0.51,0,0.25.25,0.54,1.19,0.97,0,1.08.07,2.73,0.07,3.92-3.89.11-8.69,0.33-14.94,0.65l0.15,3.2c6.1-.43,10.86-0.68,14.79-0.79,0.04,0.9.08,2.31,0.08,3.24a2.556,2.556,0,0,0-1.84-.72c-3.18,0-6.39,3.53-6.39,7.13,0,2.91,1.8,4.53,4.91,4.53a4.881,4.881,0,0,0,3.86-1.36c-0.47,2.7-2.67,5.14-10.18,5.9a9.075,9.075,0,0,1,1.66,3.13c8.99-1.37,11.98-5.36,11.98-11.55a12.707,12.707,0,0,0-.65-4.32v-6.05h1.37c2.89,0,5.63.11,9.42,0.32l0.07-3.24c-3.39-.1-6.17-0.1-9.45-0.1h-1.41v-2.63Zm-2.88,13.89c-0.22,2.27-1.34,3.28-3.36,3.28-1.7,0-2.31-.72-2.31-2.09,0-2.01,1.62-3.96,3.18-3.96C2108.41,9537.36,2109.2,9538.26,2109.64,9540.13Z" transform="translate(-1311.91 -9464.81)"/>
</svg>
