<svg xmlns="http://www.w3.org/2000/svg" width="1141.37" height="301.4" viewBox="0 0 570.685 150.7">
  <defs>
    <style>
      .cls-1 {
        fill: #532525;
        fill-rule: evenodd;
      }
    </style>
  </defs>
  <path id="_森のジェラテリア_ROCCO_は_栃木県の人気ジェラート店とコラボしています" data-name="「森のジェラテリア ROCCO」 は、栃木県の人気ジェラート店とコラボしています" class="cls-1" d="M566.86,18604.2v30.3h1.924V18606h11.83v-1.8H566.86Zm51.769,24.2,5.293,0.1v-3.1l-5.293.1h-3.047v-3.7c0.922-.2,1.283-0.4,1.283-0.8,0-.8-0.642-0.9-5.133-1.3a12.913,12.913,0,0,1,.361,2.9v2.9h-1l-5.293-.1v3.1l5.293-.1h0.441a24.41,24.41,0,0,1-9.022,7.8,18.114,18.114,0,0,1,2.406,2.4,27.65,27.65,0,0,0,7.3-6.4l-0.2,9.6h3.649l-0.2-9.7a31.878,31.878,0,0,0,7.1,6.7,10.355,10.355,0,0,1,2.526-2.9,24.582,24.582,0,0,1-8.982-7.5h2.526Zm-3.849-17,6.456,0.1v-3.1l-6.456.1h-7.539v-2c0.922-.3,1.283-0.5,1.283-0.9,0-.7-0.642-0.8-5.173-1.2a10.519,10.519,0,0,1,.361,2.9v1.2h-6.9l-6.456-.1v3.1l6.456-.1h5.373c-3.489,2.7-7.819,4.5-14.6,6a9.289,9.289,0,0,1,2.325,2.9,37.263,37.263,0,0,0,13.915-6.7l-0.28,8.4H607.4l-0.281-8.5c4.051,3.4,8.181,5.3,14.8,6.9a9.822,9.822,0,0,1,1.965-3.4c-6.376-.8-11.188-2.6-15.077-5.6h5.975Zm-19.73,30.4h3.569l-0.08-9.1v-0.7a20.44,20.44,0,0,1,3.288,3.3l2.366-2.1a20.077,20.077,0,0,0-4.331-3.7l-1.323,1.1v-2.2H599.3l5.253,0.1v-3.1l-5.253.1h-0.762v-3.7c0.922-.2,1.283-0.4,1.283-0.8,0-.8-0.641-0.9-5.052-1.3a11.915,11.915,0,0,1,.36,2.9v2.9h-2.446l-5.253-.1v3.1l5.253-.1h1.885a23.724,23.724,0,0,1-8.261,8.1,9.757,9.757,0,0,1,2.326,2.5,27.544,27.544,0,0,0,6.617-6.6Zm52.371-6.4a14.317,14.317,0,0,1,2.487,3.4c10.506-1.2,15.6-7.2,15.6-14.5,0-8.6-6.577-14.5-15.84-14.5-9.825,0-17.243,7.1-17.243,16.4,0,5.9,2.647,10.1,6.456,10.1,2.647,0,5.093-2.4,7.258-6.6a47.853,47.853,0,0,0,4.612-14,20.023,20.023,0,0,0-4.171-1c-0.641,0-.882.2-0.882,0.6a1.994,1.994,0,0,0,1,1,42.2,42.2,0,0,1-3.569,11.3c-1.444,2.9-2.928,4.9-4.291,4.9-1.524,0-2.647-2.6-2.647-6.3a12.906,12.906,0,0,1,13.314-13.1c7.057,0,11.909,4.4,11.909,10.9C661.416,18630.7,657.045,18634.5,647.421,18635.4Zm53.214-27.9a26.737,26.737,0,0,1,5.854,6.3l2.045-1.8a26.1,26.1,0,0,0-5.854-6.1Zm4.09-2.7a24.077,24.077,0,0,1,5.534,5.8l1.964-1.7a24.556,24.556,0,0,0-5.533-5.7Zm-24.662,8.2a37.138,37.138,0,0,1,11.509,4.1l1.724-3.5a49,49,0,0,0-11.91-4.2Zm-2.245,8.4a63.383,63.383,0,0,1,11.388,3.6l1.484-3.6a56.1,56.1,0,0,0-11.589-3.5Zm5.533,16.8c12.632-2.8,19.208-8.7,24.141-20.8a16.418,16.418,0,0,1-3.128-3.2c-4.411,12.1-9.664,18.2-23.218,20.3-0.762-.8-1.083-1-1.364-1-0.32,0-.481.2-0.481,0.7,0,0.6.281,1.4,1.444,4.7Zm53.975-15.3H741.5l5.454,0.1v-3.4l-5.454.1H729.908l-5.454-.1v3.4l5.454-.1H733.6v11.2h-5.534l-5.453-.2v3.5l5.453-.1h15.118l5.454,0.1v-3.5l-5.454.2h-5.855v-11.2Zm55.1-5.2-6.215.2H770.891l-6.457-.2v4l6.457-.1h17.4c-0.6,7.9-7.218,12.5-18.486,13.9a9.958,9.958,0,0,1,1.965,3.7c11.629-1.4,20.371-7.9,20.772-18.2l0.12-3Zm-24.3-8.4v3.9l6.5-.1h8.06l6.5,0.1v-3.9l-6.5.1h-8.06Zm57.624,12.8h5.413l6.537,0.1v-3.9l-6.537.2H813.277l-6.537-.2v3.9l6.537-.1h8.22v0.9c0,7.5-2.967,10.3-10.666,13a11.474,11.474,0,0,1,2.446,3.4c8.5-3.2,12.471-7.7,12.471-16.5v-0.8Zm-14.677-12.5v3.8l6.5-.1h9.624l6.537,0.1v-3.8l-6.537.1h-9.624Zm48.923,1.8,0.361-2.3a18.947,18.947,0,0,0-4.732-.9c-0.762,0-.923.2-0.923,0.5s0.2,0.5,1.284,1.2v10.7l-0.161,6.4h4.331l-0.16-6.4v-9.2Zm15.117-.6,0.321-2.3a20.867,20.867,0,0,0-4.812-.9c-0.762,0-.922.2-0.922,0.5s0.2,0.5,1.283,1.3v14c0,8.5-4.17,11.1-14.4,12.2a16.905,16.905,0,0,1,1.8,3.8c11.869-1.7,16.721-6,16.721-16v-12.6Zm35.73,9,0.361-2.4a31,31,0,0,0-4.732-.7c-0.842,0-1.043.2-1.043,0.5,0,0.5.241,0.7,1.324,1.3v3.2c0,8-2.968,11.6-9.985,14.1a12.488,12.488,0,0,1,2.406,3.3c8.1-2.9,11.669-8.7,11.669-17.1v-2.2Zm8.261-6.3c-1.444,2.2-3.569,4.1-6.9,6.4a12.58,12.58,0,0,1,2.968,2.6,40.574,40.574,0,0,0,8.381-8.2c1.323-.5,1.8-0.8,1.8-1.4s-0.521-1.2-3.368-3.7h-0.562l-0.882.6H901.137l-7.018-.2v4.1l7.018-.2H919.1Zm29.433-5.5v2.8l4.411,0.4v23.9l-4.411.4v2.8h13.394v-2.8l-4.491-.4v-9.1c1.2,0.1,2.566.2,4.411,0.2,2.285,3.3,3.769,5.5,5.413,7.7,2.567,3.5,3.729,4.4,6.657,4.4h2.566v-2.9c-1.644-.1-2.847-0.5-5.133-3.4-1.163-1.5-3.047-3.9-5.533-7.5a8.337,8.337,0,0,0,6.416-8.5c0-5.1-3.69-8-10.066-8H948.535Zm8.9,3.2h3.087c4.331,0,6.857,2,6.857,5.7,0,4.1-2.606,5.9-6.977,5.9a29.412,29.412,0,0,1-2.967-.1v-11.5Zm40.02-3.6c-8.7,0-14.557,5.9-14.557,15.7,0,9.6,5.213,15.4,14.4,15.4,8.7,0,14.593-5.9,14.593-15.8C1011.89,18613.3,1006.68,18607.6,997.458,18607.6Zm0.28,27.6c-6.416,0-9.945-3.9-9.945-12,0-7.5,3.489-12.2,9.223-12.2,6.494,0,9.984,3.9,9.984,12C1007,18630.5,1003.51,18635.2,997.738,18635.2Zm44.112-17.4h3.53v-8.8a28.659,28.659,0,0,0-9.11-1.4c-9.58,0-15.96,6.3-15.96,15.6,0,9.8,5.58,15.5,15.56,15.5a29.94,29.94,0,0,0,9.71-1.6v-3.5a28.668,28.668,0,0,1-8.46,1.3c-7.78,0-11.95-4.1-11.95-11.7,0-7.5,3.89-12.2,10.3-12.2a18.839,18.839,0,0,1,5.82.9Zm33.48,0h3.53v-8.8a28.6,28.6,0,0,0-9.1-1.4c-9.59,0-15.96,6.3-15.96,15.6,0,9.8,5.57,15.5,15.56,15.5a29.925,29.925,0,0,0,9.7-1.6v-3.5a28.565,28.565,0,0,1-8.46,1.3c-7.78,0-11.95-4.1-11.95-11.7,0-7.5,3.89-12.2,10.31-12.2a18.776,18.776,0,0,1,5.81.9Zm26.51-10.2c-8.7,0-14.56,5.9-14.56,15.7,0,9.6,5.21,15.4,14.4,15.4,8.7,0,14.59-5.9,14.59-15.8C1116.27,18613.3,1111.06,18607.6,1101.84,18607.6Zm0.28,27.6c-6.42,0-9.95-3.9-9.95-12,0-7.5,3.49-12.2,9.23-12.2,6.49,0,9.98,3.9,9.98,12C1111.38,18630.5,1107.89,18635.2,1102.12,18635.2Zm31.52,6.7v-30.4h-1.93v28.6h-11.83v1.8h13.76Zm-521.668,32.7c1.845,0,3.609.1,5.775,0.1,1.684,0,3.649-.1,5.493-0.1,0.121,3.8.2,7.2,0.321,10.8a12.982,12.982,0,0,0-4.491-.9c-3.609,0-7.058,2.7-7.058,5.5,0,3,3.128,5.1,7.419,5.1,3.489,0,6.135-1.4,7.459-4.3a66.327,66.327,0,0,1,5.413,4.1l2.366-3.3a72.274,72.274,0,0,0-7.3-4.5c-0.121-3.3-.321-7.5-0.361-12.7,2.205-.1,4.451-0.3,6.777-0.5l-0.04-3.6c-2.446.3-4.732,0.5-6.777,0.6v-3.5c0-1.1,0-2.3.04-3.5-1.925,0-3.369-.1-4.09-0.1-0.963,0-1.2.2-1.2,0.5,0,0.4.361,0.7,1.4,1.1,0,1.7.08,4,.08,5.7-1.644.1-2.847,0.1-4.651,0.1s-4.532-.1-6.617-0.2Zm11.469,14.4c-0.441,2-2.246,2.9-4.531,2.9-1.925,0-3.449-.8-3.449-2s1.764-2.3,3.409-2.3A9.606,9.606,0,0,1,623.441,18689Zm-14.8,6.3a41.4,41.4,0,0,1-1.764-12.4,68.909,68.909,0,0,1,2.766-18.6,21.176,21.176,0,0,0-4.531-1c-0.561,0-.762.2-0.762,0.5a2.344,2.344,0,0,0,1.083,1.1,77.543,77.543,0,0,0-2.406,18.4,41.451,41.451,0,0,0,1.8,12.8Zm45.634,0.1a40.956,40.956,0,0,0-8.621-9.3l-3.008,2.5a36,36,0,0,1,8.3,9.7Zm25.264,2.5h3.729l-0.161-12.9v-5.6a21.017,21.017,0,0,1,2,3.9l2.647-1.7a23.119,23.119,0,0,0-3.288-5.1l-1.364.8v-5l4.131,0.1v-3.2l-4.131.1v-6.6c0.923-.3,1.284-0.5,1.284-1,0-.6-0.6-0.8-5.053-1.2a15.559,15.559,0,0,1,.361,3.6v5.2h-1.283l-4.652-.1v3.2l4.652-.1H679.3a38.972,38.972,0,0,1-6.376,14.5,11.508,11.508,0,0,1,2.205,3,40.187,40.187,0,0,0,4.772-9.7Zm12.471-27.3v-3.2a149.224,149.224,0,0,0,15.318-2.4,3.844,3.844,0,0,0,1,.1c0.642,0,.923-0.2.923-0.6,0-.6-0.522-1-3.369-3a15.321,15.321,0,0,1-2.566.9c-3.048.7-7.058,1.5-11.629,2.1a35.529,35.529,0,0,0-3.569-1.1,15.44,15.44,0,0,1,.361,3.7v9.3c0,9.2-1.163,13.2-4.732,18a9.737,9.737,0,0,1,2.847,2.3c4.01-5.5,5.414-10.3,5.414-20.5v-2.5h4.21v3.7c0,9.6-1.724,13.5-7.218,17.4a10.564,10.564,0,0,1,2.567,2.6c5.052-3.9,7.378-7.8,8.02-15.3h5.413a75.536,75.536,0,0,1-.722,10c-0.24,1.2-.6,1.4-1.323,1.4a32.566,32.566,0,0,1-4.411-.2,12.866,12.866,0,0,1,1.6,3.8H702c4.05,0,5.293-.9,5.814-4.4,0.321-2.1.521-5.5,0.722-10.2l0.16-3.5-0.16-.2-5.013.1h-3.769v-5.2h5.494l5.253,0.2v-3.4l-5.253.1H692.013Zm54.777,2,6.456,0.2v-3.6l-6.456.2h-9.584v-6.9c0.922-.2,1.283-0.4,1.283-0.8,0-.8-0.722-0.9-5.333-1.2a12.61,12.61,0,0,1,.361,3.4v5.5h-9.183l-6.416-.2v3.6l6.416-.2h7.939a36.422,36.422,0,0,1-15.879,17,7.278,7.278,0,0,1,2.406,2.9c7.017-4.2,11.268-8.7,14.717-15.4v14.3l-0.161,6.5h4.01l-0.16-6.5v-14.5c3.849,6.8,8.1,10.9,15.158,15.3a19.933,19.933,0,0,1,2.526-3.5c-7.98-4.4-12.551-8.7-16.441-16.1h8.341Zm29.794,8.9h9.344l5.854,0.2,0.2-.2-0.2-5.4v-8.7l0.2-5.1-0.241-.2-5.814.2h-9.344l-5.814-.2-0.2.2,0.161,5.1v8.7l-0.161,5.4,0.2,0.2Zm11.629-3H774.3v-2.6h13.914v2.6Zm-13.914-10.7v-2.5h13.914v2.5H774.3Zm13.914,2.8v2.5H774.3v-2.5h13.914Zm-6.656,16.4h8.822l6.416,0.2v-3.4l-6.416.2H766.76v-16.6c0.962-.3,1.123-0.6,1.123-0.9,0-.6-0.482-0.9-5.013-1.1a21.435,21.435,0,0,1,.4,4.1v11.9l-0.16,5.5,0.16,0.3,5.053-.2h9.5v4.5l-0.161,6.4h4.01l-0.12-6.4v-4.5Zm2.366,3.8a86.46,86.46,0,0,1,11.228,6.4l2.606-2.9a88.326,88.326,0,0,0-11.348-5.9Zm-10.426.9c1.2,0.1,1.8,0,1.8-.5,0-.6-0.4-0.9-3.529-2.9a9.089,9.089,0,0,1-2.085,2,33.514,33.514,0,0,1-9.223,4.4,8.554,8.554,0,0,1,2.607,2.8A35.211,35.211,0,0,0,773.5,18691.7Zm47.118-.1a12.56,12.56,0,0,1,2.486,3.4c10.506-1.3,15.6-7.2,15.6-14.6,0-8.6-6.577-14.4-15.84-14.4-9.824,0-17.243,7-17.243,16.3,0,6,2.647,10.2,6.456,10.2,2.647,0,5.093-2.4,7.258-6.6a48.852,48.852,0,0,0,4.612-14,20.037,20.037,0,0,0-4.17-1c-0.642,0-.883.1-0.883,0.5a2.431,2.431,0,0,0,1,1.1,42.2,42.2,0,0,1-3.569,11.3c-1.444,2.9-2.927,4.8-4.291,4.8-1.524,0-2.646-2.5-2.646-6.2,0-7.6,5.734-13.1,13.313-13.1,7.057,0,11.91,4.4,11.91,10.8C834.61,18686.8,830.239,18690.6,820.615,18691.6Zm46.195-27.5c0.963-.3,1.284-0.5,1.284-1,0-.7-0.682-0.8-5.454-1a21.535,21.535,0,0,1,.361,4.1v2c0,6.6-1.283,11.5-4.05,15.7a25.983,25.983,0,0,1-11.99,10.1,14.4,14.4,0,0,1,2.686,2.9,30.021,30.021,0,0,0,12.472-11.1,26.956,26.956,0,0,0,3.248-7.5c2.486,8.1,7.779,14,16.481,18.4a13.347,13.347,0,0,1,2.687-3.2c-10.186-4.8-15.238-10.6-17.885-21.6a33.586,33.586,0,0,0,.16-3.6v-4.2Zm28.672,18.9a70.938,70.938,0,0,1,7.94,4.8,32.741,32.741,0,0,1-12.311,6.5,9.431,9.431,0,0,1,2.166,2.8,38.344,38.344,0,0,0,12.952-7.4,66.473,66.473,0,0,1,6.5,5.5l2.486-2.7a66.419,66.419,0,0,0-6.536-5.2,37.421,37.421,0,0,0,3.529-4.7c1,0,1.484-.1,1.484-0.5,0-.6-0.2-0.9-4.091-2.7a7.214,7.214,0,0,1-1.2,2.7,37.746,37.746,0,0,1-2.566,3.3c-2.566-1.6-5.333-3.2-8.1-4.6Zm5.454-18.3,0.842-1.4c1.083,0,1.363-.2,1.363-0.6,0-.6-0.481-0.8-4.491-2.2a11.724,11.724,0,0,1-1,2.7,27.19,27.19,0,0,1-8.061,8.7,7.23,7.23,0,0,1,2.687,2.2,30.752,30.752,0,0,0,6.456-6.2h20.491l6.416,0.2v-3.5l-6.416.1H900.936Zm-2.326,10.8-6.416-.2v3.5l6.416-.2h18.807a60.251,60.251,0,0,0,.762,12c0.842,4.3,2.526,6.6,5.093,6.6,2.486,0,3.769-1.8,4.531-7a13.539,13.539,0,0,1-3.248-2.2c-0.321,4.1-.8,5.2-1.4,5.2-0.641,0-1.123-1.3-1.443-3.3a43,43,0,0,1-.722-7.4c0-1.4,0-2.5.04-3.2l0.16-3.8-0.2-.2-6.216.2H898.61Zm5.293-2.4h11.389l6.456,0.1v-3.4l-6.456.2H903.9l-6.456-.2v3.4Zm56.542-9.5a29.248,29.248,0,0,1,5.854,6.4l2.045-1.8a26.1,26.1,0,0,0-5.854-6.1Zm4.09-2.7a26.054,26.054,0,0,1,5.534,5.8l1.965-1.7a29.271,29.271,0,0,0-5.534-5.7Zm-24.662,8.2a39.889,39.889,0,0,1,11.509,4.1l1.724-3.5a44.992,44.992,0,0,0-11.909-4.1Zm-2.245,8.5a56,56,0,0,1,11.388,3.5l1.484-3.6a62.561,62.561,0,0,0-11.589-3.4Zm5.534,16.8c12.631-2.8,19.208-8.7,24.14-20.9a19.027,19.027,0,0,1-3.128-3.1c-4.411,12-9.664,18.2-23.218,20.2a2.5,2.5,0,0,0-1.363-.9c-0.321,0-.482.2-0.482,0.7s0.281,1.4,1.444,4.6Zm53.975-15.3h9.623v-3.4l-5.45.2H989.718l-5.454-.2v3.4h9.143v11.1h-5.534l-5.453-.1v3.4l5.453-.1h15.117l5.45,0.1v-3.4l-5.45.1h-5.853v-11.1Zm55.093-5.2-6.21.1H1030.7l-6.46-.1v4l6.46-.2h17.4c-0.6,7.9-7.21,12.6-18.48,13.9a10.782,10.782,0,0,1,1.96,3.7c11.63-1.4,20.37-7.8,20.77-18.1,0.04-1,.08-2.1.13-3.1Zm-24.3-8.5v3.9l6.5-.1h8.06l6.5,0.1v-3.9l-6.5.2h-8.06Zm45.44,16.1h17.32l6.54,0.2v-4.3l-6.54.2h-17.32l-6.54-.2v4.3Zm50.16-4.2v-10.7l0.36-2.3a23.036,23.036,0,0,0-4.85-.9c-0.72,0-.96.1-0.96,0.5s0.28,0.6,1.28,1.2v23.6l-0.12,6.5h4.45l-0.16-6.5v-10.6a44.174,44.174,0,0,1,11.91,5.5l2.13-3.6a52.222,52.222,0,0,0-12.27-5.4Zm-435.929,74v2.3h3.689l-0.16-6.4v-3.1l0.16-5.1-0.16-.2-5.093.2h-5.774v-4.8h6.5l6.416,0.1v-3.4l-6.416.2h-6.5v-3.4c1-.3,1.323-0.5,1.323-0.9,0-.7-0.842-0.9-5.133-0.9a22.781,22.781,0,0,1,.321,3.6v9.5h-3.529l-5.052-.2-0.2.2,0.16,5.1v3.4l-0.16,6.4h3.649v-2.6H687.6Zm0-3h-15.96v-6.3H687.6v6.3Zm-11.749-26.5h-7.82l-6.135-.2-0.2.2,0.161,6.3v7.9c0,6.7-1.364,11-4.692,15.6a9.739,9.739,0,0,1,3.048,2.2c3.809-5.6,5.293-10.6,5.293-17.8v-11.1h22.737l6.416,0.2v-3.5l-6.336.2H679.3v-3.3c0.923-.2,1.283-0.4,1.283-0.8,0-.8-0.561-0.9-5.092-1.1a10.519,10.519,0,0,1,.361,2.9v2.3Zm32.8-.2a105.552,105.552,0,0,1,6.215,11.7c-5.453,3.3-7.739,6.3-7.739,10.1,0,5.3,3.729,7.6,12.471,7.6a104.957,104.957,0,0,0,13.233-.8l-0.321-4a101.624,101.624,0,0,1-12.511,1c-7.418,0-9.022-1.4-9.022-3.8,0-2.5,1.724-4.7,6.616-7.5,3.369-1.9,7.94-4.1,14.476-7a46.977,46.977,0,0,0-2.686-3.9,1.021,1.021,0,0,0-.843-0.5,0.52,0.52,0,0,0-.561.6,4.452,4.452,0,0,0,.2,1.1c-3.65,1.9-6.416,3.3-9.985,5.2-1.765-3.7-3.69-7.6-6.015-11.5Zm67.007,19.1v-9.5l0.161-6.3-0.241-.2-6.255.1H756.854l-6.456-.1v3.9l6.456-.1h14.637v15h-15l-6.457-.2v4l6.457-.2h12.832l6.255,0.2,0.241-.2Zm44.392-10.7-6.216.2H798.519l-6.456-.2v4l6.456-.2h17.4c-0.6,8-7.218,12.6-18.486,14a9.622,9.622,0,0,1,1.965,3.6c11.629-1.3,20.371-7.8,20.772-18.1l0.12-3Zm-24.3-8.4v3.9l6.5-.2h8.06l6.5,0.2v-3.9l-6.5.1h-8.06Zm61.634-2.3a26.629,26.629,0,0,1,5.614,6.5l2.125-1.7a27.184,27.184,0,0,0-5.614-6.3Zm4.411-2.4a23.061,23.061,0,0,1,5.293,6l2.045-1.6a23.95,23.95,0,0,0-5.333-5.9Zm-10.065,10.2v-4.2l0.321-2.3a24.7,24.7,0,0,0-4.692-.9c-0.722,0-.962.2-0.962,0.5,0,0.2.28,0.6,1.243,1.1v5.8h-7.258l-6.537-.1v3.8h13.8v15.7a0.962,0.962,0,0,1-1.083,1.2,18.8,18.8,0,0,1-4.852-1.1,16.481,16.481,0,0,1-.281,3.6,16.67,16.67,0,0,0,6.136,1.3c2.686,0,4.25-1.6,4.25-4.3,0-.9-0.08-1.8-0.08-3.3v-13.1h13.273v-3.8l-6.536.1h-6.737Zm3.368,9.3a41.474,41.474,0,0,1,7.7,10.2l3.208-2.4a44.754,44.754,0,0,0-7.86-10.2Zm-11.027-.4c-3.008-1.6-4.171-2-4.612-2a0.5,0.5,0,0,0-.6.4,2.033,2.033,0,0,0,.762,1.2c-1.484,3.4-3.93,6.2-7.339,9.1a10.7,10.7,0,0,1,2.928,2.5,34.877,34.877,0,0,0,7.779-9.6Zm62.476,4.6c-4.772,4.9-9.784,7.2-14.957,7.2-3.85,0-4.772-1.3-4.772-5.5,0-6.2.12-12.3,0.641-22.9-2.165-.2-3.689-0.2-4.451-0.2-0.882,0-1.042.1-1.042,0.6,0,0.3.321,0.5,1.163,1-0.161,8.5-.321,16.9-0.321,22,0,6.4,2.807,9,8.942,9,5.293,0,11.068-2.4,16.682-7.4A20.306,20.306,0,0,1,906.549,18740.6Zm44.632-15.3-0.481-3.5-0.361-.2c-10.707,1.7-19.93,2.9-29.835,4l0.682,3.9c4.531-.7,9.624-1.5,13.674-2.1l3.81-.8,0.08,0.2a24.43,24.43,0,0,0-3.008,2,14.514,14.514,0,0,0-4.451,10.3c0,8,5.735,12.3,17.163,12.3h1l0.12-4.2c-0.762,0-1.163.1-1.684,0.1-8.782,0-12.752-2.7-12.752-8.5a12.091,12.091,0,0,1,5.494-10.1c2.245-1.6,4.651-2.7,10.305-3Zm33.644,4.1a42.881,42.881,0,0,1,8.662,14.7l3.769-1.9a44,44,0,0,0-9.3-14.9Zm-7.94,11.1c-1.644,4.8-2.606,6.1-3.569,6.1-0.882,0-4.33-4-4.33-12.4a50.208,50.208,0,0,1,1.363-11.3,26.37,26.37,0,0,0-4.732-.8c-0.681,0-.882.1-0.882,0.4a1.8,1.8,0,0,0,1.083,1.2,64.484,64.484,0,0,0-.882,10.5c0,9,3.889,16.5,8.5,16.5,2.165,0,4.491-1.8,6.7-7.9A17.54,17.54,0,0,1,976.885,18740.5Zm32.245-12.4c4.21-.4,8.3-0.6,12.47-0.7v5.3c-1.25.1-2.57,0.1-3.77,0.1-2.57,0-3.93-.2-5.74-1.3l-2.16,2.7a13.921,13.921,0,0,0,7.94,2h3.85c0.04,1.8.16,3.7,0.24,5.4a15.725,15.725,0,0,0-3.73-.7c-4.45,0-8.5,2.7-8.5,5.7,0,3.1,3.53,5.3,8.54,5.3,4.41,0,6.9-1.8,7.42-5.4a90.227,90.227,0,0,1,9.34,5.2l2.13-3.4a87.446,87.446,0,0,0-11.39-5.6c-0.08-2.2-.2-4.6-0.28-6.8,3.33-.4,5.93-0.7,9.7-1.4l-0.8-3.3a82.23,82.23,0,0,1-9.02,1.3v-5.2c2.4-.1,4.21-0.1,5.65-0.1,1,0,2.85,0,5.57.1l-0.12-3.4c-2.44-.1-3.97-0.1-5.49-0.1-1.44,0-3.05.1-5.57,0.1,0.04-1.1.08-2.8,0.16-5.2-2.21-.1-3.45-0.1-4.17-0.1-0.97,0-1.21.1-1.21,0.6,0,0.3.4,0.6,1.41,1.1v3.7c-4.25.2-8.18,0.5-12.67,0.8Zm12.87,17.1c-0.08,2.1-1.28,3.4-3.73,3.4-2.81,0-5.01-.8-5.01-2.1,0-1.2,2.36-2.3,4.73-2.3A10.772,10.772,0,0,1,1022,18745.2Zm48.48-23.7,0.12-3c-2.41-.1-3.69-0.1-4.41-0.1-0.68,0-.92.2-0.92,0.6,0,0.3.28,0.6,1.32,1.1,0,1.2.08,3,.08,4.4-4.33.1-9.66,0.3-16.6,0.7l0.16,3.5c6.78-.4,12.07-0.7,16.44-0.8,0.04,1,.08,2.5.08,3.6a2.827,2.827,0,0,0-2.04-.8c-3.53,0-7.1,3.9-7.1,7.9,0,3.3,2,5.1,5.45,5.1a5.472,5.472,0,0,0,4.29-1.6c-0.52,3-2.97,5.8-11.31,6.6a10.435,10.435,0,0,1,1.85,3.5c9.98-1.5,13.31-6,13.31-12.9a14.281,14.281,0,0,0-.72-4.8v-6.7H1072c3.21,0,6.26.1,10.47,0.3l0.08-3.6c-3.77-.1-6.86-0.1-10.51-0.1h-1.56v-2.9Zm-3.21,15.5c-0.24,2.5-1.48,3.6-3.73,3.6-1.88,0-2.56-.8-2.56-2.3,0-2.3,1.8-4.4,3.52-4.4C1065.91,18733.9,1066.79,18734.9,1067.27,18737Z" transform="translate(-566.875 -18603.2)"/>
</svg>
