<svg xmlns="http://www.w3.org/2000/svg" width="496.38" height="58.82" viewBox="0 0 248.19 29.41">
  <defs>
    <style>
      .cls-1 {
        fill: #532525;
        fill-rule: evenodd;
      }
    </style>
  </defs>
  <path id="ドリンク_その他" data-name="ドリンク、その他" class="cls-1" d="M1612.41,8506.72a20.143,20.143,0,0,1,4.39,4.72l1.44-1.24a20.626,20.626,0,0,0-4.42-4.57Zm-9.88,18.6-0.13,4.86h2.62l-0.13-4.86v-18.03l0.23-1.53a16.754,16.754,0,0,0-3.1-.61c-0.39,0-.55.1-0.55,0.23,0,0.28.13,0.41,1.06,1.05v18.89Zm13.28-20.77a18.747,18.747,0,0,1,4.12,4.34l1.38-1.22a20.56,20.56,0,0,0-4.16-4.27Zm0.38,13.85a41.842,41.842,0,0,0-9.92-4.21l-1.28,1.88a44.3,44.3,0,0,1,9.92,4.43Zm21.25-10.66,0.22-1.53a15.46,15.46,0,0,0-3.04-.61c-0.38,0-.54.09-0.54,0.22,0,0.29.13,0.42,1.06,1.06v8.33l-0.13,4.85h2.56l-0.13-4.85v-7.47Zm12.29-.45,0.22-1.53a16.754,16.754,0,0,0-3.1-.61c-0.39,0-.55.1-0.55,0.23,0,0.28.13,0.41,1.06,1.05v11.11c0,6.28-3.39,9.7-11.46,10.43a11.322,11.322,0,0,1,1,2.08c8.86-.83,12.83-5.27,12.83-12.51v-10.25Zm16.35,2.14a49.156,49.156,0,0,1,8.45,4.5l1.34-2.14a61.467,61.467,0,0,0-8.54-4.31Zm3.55,19.02c8.35-2.93,15.01-7.02,19.2-17.27a18.022,18.022,0,0,1-1.98-1.65c-3.88,9.92-10.79,14.45-18.56,16.75a2.412,2.412,0,0,0-1.06-.7,0.376,0.376,0,0,0-.38.41,17.908,17.908,0,0,0,1.05,3.07Zm40.74-20.23c0.48-.83.96-1.73,1.4-2.68-2.27-1.06-2.84-1.25-3.29-1.25a0.343,0.343,0,0,0-.32.32,1.711,1.711,0,0,0,.77.99c-1.7,4.21-4.61,7.72-8.74,11.2a8.231,8.231,0,0,1,1.76,1.44,38.409,38.409,0,0,0,7.2-8.04l9.6-.04c-3.33,8.97-8.03,14.4-17.09,17.97a8.625,8.625,0,0,1,1.38,1.82c8.99-3.54,13.89-8.84,18.17-19.05a1.085,1.085,0,0,0,.9-0.77c0-.35-0.64-1.18-2.05-2.55h-0.38l-0.77.6ZM1740,8530.3a30.681,30.681,0,0,0-6.4-6.92l-1.76,1.43a29.952,29.952,0,0,1,6.14,7.19Zm16.38-23.46a33.536,33.536,0,0,1,4.8,5.56l1.76-1.6a44.542,44.542,0,0,0-4.92-5.26Zm-3.32,11.94,0.54,1.76,0.35,0.19c3.27-1.02,6.82-1.95,10.05-2.78l2.56-.73-1.86,1.37a7.4,7.4,0,0,0-2.21,5.01c0,3.89,2.47,6.67,9.54,6.67,1.31,0,2.14-.03,3.07-0.09l-0.03-2.27a30.14,30.14,0,0,1-3.14.13c-5.53,0-7.26-1.85-7.26-4.69,0-2.56,1.89-4.28,3.84-5.49a8.824,8.824,0,0,1,3.46-1.22,34.146,34.146,0,0,1,5.88-.41l0.16-.23-0.25-1.91-0.26-.16c-3.93.41-7.2,0.86-10.65,1.5l-2.69.64c0.7-.54,1.37-1.15,2.3-1.98a66.488,66.488,0,0,0,7.01-7.85c-2.3-1.5-2.69-1.69-2.94-1.69a0.366,0.366,0,0,0-.42.32,1.693,1.693,0,0,0,.51.95,55.262,55.262,0,0,1-7.68,8.94,11.143,11.143,0,0,1-4.54,2.46c-1.57.44-3.33,0.89-5.18,1.31Zm46.97,8.75a20.656,20.656,0,0,1,1.41,2.04c7.9-1.05,12.06-5.59,12.06-11.36,0-6.2-4.67-11.3-12.61-11.3-7.45,0-13.47,5.52-13.47,12.7,0,5.08,2.21,7.92,4.84,7.92,1.85,0,3.58-1.41,5.69-5.49a38.008,38.008,0,0,0,3.58-11.3,12.867,12.867,0,0,0-2.68-.67c-0.39,0-.55.13-0.55,0.32a1.791,1.791,0,0,0,.77.89,30.617,30.617,0,0,1-3.04,9.54c-1.53,3.07-2.78,4.28-3.77,4.28-1.48,0-2.6-1.88-2.6-5.55a10.89,10.89,0,0,1,11.14-10.7c6.3,0,10.21,3.99,10.21,9.1C1811.01,8523.5,1806.85,8526.89,1800.03,8527.53Zm38.3-15.67-4.6,1.37v-5.01c0.76-.2,1.05-0.42,1.05-0.71,0-.35-0.38-0.57-3.33-0.76a12.122,12.122,0,0,1,.26,2.52v4.53l-4,1.02,0.58,1.92,3.42-1.12v12.35c0,2.62.38,2.88,8.38,2.88,8.71,0,9.25-.42,9.57-5.56a7.856,7.856,0,0,1-1.98-.76c-0.13,4.31-.19,4.5-7.68,4.5-6.11,0-6.27-.07-6.27-1.25v-12.77l4.6-1.37v7.79l-0.12,4.79h2.2l-0.12-4.66v-8.49l4.83-1.44c0,2.36-.07,6.07-0.26,7.66-0.16,1.28-.48,1.63-1.44,1.63a15.886,15.886,0,0,1-1.98-.19,5.9,5.9,0,0,1,.86,2.33h0.8c2.43,0,3.43-.8,3.71-3.32,0.23-1.98.29-5.24,0.29-8.33,0.71-.29.96-0.48,0.96-0.77,0-.35-0.67-0.89-2.01-1.72h-0.36l-0.83.99-4.57,1.37v-7.12c0.8-.19,1.15-0.41,1.15-0.76s-0.64-.64-3.36-0.8a11.564,11.564,0,0,1,.25,2.46v6.8Zm-13.75,7.53v7.75l-0.13,4.79h2.11v-19.28c0.7-.28,1.06-0.48,1.06-0.76,0-.26-0.16-0.48-1.32-0.64a68.023,68.023,0,0,0,2.12-6.48c1.02-.1,1.28-0.22,1.28-0.61s-0.84-.73-3.17-1.4a18.165,18.165,0,0,1-.64,3.57,47.892,47.892,0,0,1-5.95,13.38,6.129,6.129,0,0,1,1.69,1.21c1.22-2.08,2.24-4.09,3.17-6.06Z" transform="translate(-1601.47 -8502.59)"/>
</svg>
