<svg xmlns="http://www.w3.org/2000/svg" width="1513.86" height="118.196" viewBox="0 0 756.93 59.098">
  <defs>
    <style>
      .cls-1 {
        fill: #fff;
        fill-rule: evenodd;
      }
    </style>
  </defs>
  <path id="森のジェラテリア_ROCCO" data-name="森のジェラテリア　ROCCO" class="cls-1" d="M1136.27,1016.43h9.34a0.887,0.887,0,0,0,.96-0.89,1.408,1.408,0,0,0-.64-1.09l-4.54-3.78-3.2,4.04h-1.92v-5.25l1.34-.64a1.36,1.36,0,0,0,.96-1.22,1.38,1.38,0,0,0-1.28-1.34l-6.4-.64v9.09h-4.09c-0.51,0-1.6,0-3.2-.07-0.77-.06-2.94-0.13-5.31-0.19l1.34,2.17,4.03-.12c1.35-.07,2.44-0.07,3.14-0.07h3.65c-3.01,6.79-6.4,11.39-12.61,17.03-0.83.76-1.15,1.15-1.15,1.47a0.483,0.483,0,0,0,.45.45c0.38,0,1.66-.77,4.22-2.5a50.626,50.626,0,0,0,9.53-8v12.22c0,0.96.45,1.35,1.54,1.35a5.987,5.987,0,0,0,2.62-.64,1.669,1.669,0,0,0,1.22-1.79V1022a11.419,11.419,0,0,1,3.58,4.61c1.41,3.13,1.73,3.45,3.08,3.45a2.652,2.652,0,0,0,2.81-2.68c0-2.05-1.53-4.1-3.97-5.32a16.8,16.8,0,0,0-5.5-1.4v-4.23Zm31.87-32.123-4.1,4.864h-13.88v-5.5l1.41-.832a1.73,1.73,0,0,0,.83-1.344,1.318,1.318,0,0,0-1.28-1.151l-6.59-.512v9.343h-9.86c-1.22,0-3.14-.064-5.37-0.128l-7.17-.192,1.47,2.368c5.44-.256,7.55-0.32,11.07-0.32h6.59a67.174,67.174,0,0,1-21.63,17.341,1.068,1.068,0,0,0-.83.83,0.5,0.5,0,0,0,.51.45c0.9,0,5.57-1.85,9.92-4.03,5.63-2.75,8.13-4.35,15.3-9.792v11.772a1.169,1.169,0,0,0,1.28,1.35,12.933,12.933,0,0,0,3.2-.64,1.277,1.277,0,0,0,1.15-1.41V992.179c5.18,7.231,11.2,11.841,20.48,15.491,1.98-2.76,2.94-3.46,6.65-5.44-10.17-1.09-20.73-5.636-26.36-11.331h22.65a0.773,0.773,0,0,0,.83-0.832,1.2,1.2,0,0,0-.51-0.9Zm3.58,26.043-3.64,4.36h-4.48v-5.32l1.21-.76a1.365,1.365,0,0,0,.71-1.16,1.117,1.117,0,0,0-1.09-1.08l-6.27-.84v9.16h-1.86c-3.45-.07-5.89-0.13-8.51-0.26l0.96,2.17c4.1-.12,5.7-0.19,7.55-0.19h1.47c-3,6.21-7.61,11.71-14.2,17.03-1.99,1.6-2.05,1.66-2.05,2.04a0.436,0.436,0,0,0,.45.45c0.57,0,2.36-.89,5.31-2.69a55.469,55.469,0,0,0,10.88-8.51v12.8c0,0.96.32,1.35,1.15,1.35a10.3,10.3,0,0,0,3.13-.58,1.488,1.488,0,0,0,1.28-1.66v-16.45a36.585,36.585,0,0,0,9.35,14.08,12.6,12.6,0,0,1,5.31-5.19c-6.98-3.58-11.65-7.74-14.14-12.67h12.41a0.757,0.757,0,0,0,.83-0.77,1.455,1.455,0,0,0-.51-0.89Zm41.03-19.323c0.7-.064,1.15-0.064,1.34-0.064a15.379,15.379,0,0,1,6.6,1.536c5.56,2.815,8.44,8.641,8.44,17.211,0,7.87-2.62,13.7-8.19,18.24a34.231,34.231,0,0,1-11.45,5.95c-1.03.32-1.22,0.39-1.22,0.71,0,0.25.26,0.38,0.64,0.38a27.233,27.233,0,0,0,4.1-.77,39.164,39.164,0,0,0,11.83-4.35,23.578,23.578,0,0,0,11.84-20.48,19.286,19.286,0,0,0-5.05-13.5c-4.1-4.415-10.82-7.039-17.98-7.039-14.98,0-27.84,12.1-27.84,26.179a16.6,16.6,0,0,0,3.13,10.3c1.54,2.11,3.72,3.52,5.38,3.52,3.52,0,9.09-4.55,12.86-10.43a41.146,41.146,0,0,0,6.4-20.8A24.474,24.474,0,0,0,1212.75,991.027Zm-3.14.256c0.07,0.192.07,0.32,0.13,0.448a15.157,15.157,0,0,1,.39,3.583c0,5.7-2.44,12.8-6.53,19.136-2.69,4.22-6.34,7.55-8.32,7.55s-3.71-3.33-3.71-7.1a25.061,25.061,0,0,1,7.55-17.858C1202.06,994.291,1204.62,992.883,1209.61,991.283Zm82.24-11.007c-2.05,0-3,.192-3,0.639,0,0.256.12,0.384,0.51,0.448,1.98,0.448,4.67,2.56,6.08,4.928,0.89,1.472,1.08,1.664,2.17,1.664a2.677,2.677,0,0,0,2.82-2.56C1300.43,982.707,1296.27,980.276,1291.85,980.276Zm-8.06,3.775c-1.6,0-2.24.128-2.24,0.512,0,0.256.13,0.384,0.58,0.512,1.79,0.448,4.16,2.56,5.31,4.8,0.96,1.728,1.21,1.984,2.3,1.984a2.476,2.476,0,0,0,2.69-2.5C1292.43,986.611,1288.27,984.051,1283.79,984.051Zm-21.82,6.208c-2.75,0-5.57.576-5.57,1.152,0,0.192.13,0.32,0.58,0.448a14.817,14.817,0,0,1,9.15,7.167c1.02,1.924,1.4,2.244,2.75,2.244a3.588,3.588,0,0,0,3.84-3.46C1272.72,993.779,1267.73,990.259,1261.97,990.259Zm-7.75,12.161c-2.11,0-4.03.38-4.03,0.83,0,0.19.07,0.26,0.64,0.51a16.287,16.287,0,0,1,8.39,7.68c0.76,1.35,1.34,1.79,2.23,1.79a3.666,3.666,0,0,0,3.72-3.39C1265.17,1006.07,1259.79,1002.42,1254.22,1002.42Zm-0.32,21.12h-0.06c-0.51-.07-0.9.7-0.9,1.72a6.858,6.858,0,0,0,2.44,4.68c2.3,2.24,4.09,3.45,5.12,3.45,0.51,0,.7-0.13,1.72-0.96a9.194,9.194,0,0,1,1.28-.83c8.77-5.44,15.81-10.75,20.74-15.62a82.659,82.659,0,0,0,12.28-16.186c1.92-3.584,2.63-5.056,2.63-5.759a0.5,0.5,0,0,0-.39-0.512c-0.32,0-.51.192-1.15,1.087a105.416,105.416,0,0,1-23.68,23.1c-7.23,5.06-12.41,7.55-15.74,7.55-2.75,0-3.84-.44-4.22-1.72h-0.07Zm76.35,1.28-4.92.44c-6.72.39-6.72,0.39-8,.39-2.24,0-3.78-.39-4.29-1.09a0.439,0.439,0,0,0-.38-0.32c-0.39,0-.64.77-0.64,1.79,0,0.9.51,1.6,1.98,2.5,2.94,1.92,2.94,1.92,3.97,1.92a6.921,6.921,0,0,0,2.43-.51c5.63-2.05,12.03-2.95,21.57-2.95a55.923,55.923,0,0,1,11.58,1.15,14.878,14.878,0,0,0,2.69.45,1.874,1.874,0,0,0,1.85-1.73c0-1.72-4.03-4.8-6.4-4.8a1.6,1.6,0,0,0-.57.07c-2.82.89-3.39,1.02-14.15,2.11,0.2-7.62.52-10.3,1.35-12.99a1.913,1.913,0,0,0,.25-0.83c0-.45-0.89-1.28-2.36-2.18,2.3-.19,4.16-0.25,6.2-0.25,0.9,0,.9,0,4.23.12l0.77,0.07h0.64a1.489,1.489,0,0,0,1.53-1.41,3.036,3.036,0,0,0-1.53-2.18,8.166,8.166,0,0,0-3.91-1.85,4.706,4.706,0,0,0-1.73.57c-2.56,1.16-5.63,1.86-10.36,2.31-7.68.77-7.68,0.77-8.9,0.77-1.47,0-3.13-.45-3.52-0.96-0.51-.64-0.51-0.64-0.64-0.64-0.32,0-.45.25-0.45,0.89,0,2.37,2.05,4.93,3.97,4.93a2.866,2.866,0,0,0,.58-0.13,10.616,10.616,0,0,1,3-.96c3.91-.7,3.91-0.7,4.42-0.7,1.6,0,1.79.77,1.79,7.61a71.341,71.341,0,0,1-.32,8.26Zm47.56-35.2a0.425,0.425,0,0,0-.39.32,8.455,8.455,0,0,0,1.8,3.072,6.773,6.773,0,0,0,5.5,2.431,61.635,61.635,0,0,0,10.56-1.535c3.13-.64,5.12-0.96,7.87-1.28,1.54-.256,2.3-0.7,2.3-1.472,0-1.408-3.71-3.648-5.95-3.648a3.661,3.661,0,0,0-1.73.7,11.253,11.253,0,0,1-3.39,1.28,57.379,57.379,0,0,1-11.45,1.728c-2.05,0-3.84-.512-4.61-1.28A0.67,0.67,0,0,0,1377.81,989.619Zm32.12,16.7a4.614,4.614,0,0,1,1.41-.83,1.975,1.975,0,0,0,.77-0.45,1.162,1.162,0,0,0,.26-0.7c0-.58,0-0.58-1.41-1.99-2.88-2.876-3.97-3.644-4.87-3.644-0.44,0-.76.128-2.49,0.9a16,16,0,0,1-4.93,1.538,164.952,164.952,0,0,1-19.84,2.62c-2.37,0-4.67-.89-5.37-2.11a0.8,0.8,0,0,0-.58-0.58c-0.38,0-.58.52-0.58,1.54,0,2.88,3.52,6.59,6.28,6.59,0.44,0,.44,0,2.49-0.96,3.14-1.53,15.94-4.35,19.65-4.35,1.34,0,2.11.38,2.11,1.15,0,0.64-.38,1.73-1.73,4.87-2.75,6.39-4.86,9.72-8.38,13.56-4.99,5.38-12.1,9.86-18.24,11.39a0.7,0.7,0,0,0-.7.58,0.568,0.568,0,0,0,.7.51,35.709,35.709,0,0,0,9.66-2.17,46.189,46.189,0,0,0,16.71-11.97C1403.92,1018.22,1406.22,1014.26,1409.93,1006.32ZM1435.41,990a0.566,0.566,0,0,0-.39.512,8.467,8.467,0,0,0,1.8,3.456,5.2,5.2,0,0,0,4.16,1.855c2.68,0,7.87-.832,15.87-2.623,3.45-.768,4.73-1.344,4.73-2.24,0-.768-0.7-1.6-1.98-2.368a10.372,10.372,0,0,0-3.33-1.152,3.154,3.154,0,0,0-1.15.32,26.844,26.844,0,0,1-3.9,1.6,44.157,44.157,0,0,1-11.4,2.112,6.425,6.425,0,0,1-4.22-1.344A0.335,0.335,0,0,0,1435.41,990Zm13.31,14.657a2.69,2.69,0,0,1,.51,1.66c0,3.46-2.17,9.6-5.12,14.34-3.26,5.18-8.51,10.43-12.61,12.54-3.07,1.6-3.07,1.6-3.07,1.86a0.414,0.414,0,0,0,.51.38c1.03,0,6.92-2.37,9.35-3.71,7.93-4.35,14.27-12.61,17.79-23.04,0.77-.83.96-1.09,0.96-1.47,0-.45-0.64-1.09-3.14-3.01,4.1-.26,4.93-0.32,6.53-0.32a78.285,78.285,0,0,1,8.7.64,9.921,9.921,0,0,0,1.67.19,2.14,2.14,0,0,0,2.37-1.85c0-1.09-.64-1.8-2.63-3.012a12.281,12.281,0,0,0-4.35-1.984c-2.62,1.6-4.48,2.176-9.79,2.946-5.38.77-22.91,2.62-25.15,2.62-2.69,0-3.9-.51-4.99-2.05a1.474,1.474,0,0,0-.64,1.22,4.415,4.415,0,0,0,1.6,3.2c1.4,1.28,3.77,2.5,4.86,2.5a3.43,3.43,0,0,0,1.02-.2C1436.62,1006.64,1441.42,1005.62,1448.72,1004.66Zm61.57-17.345c-1.47,0-4.35,1.216-4.35,1.856,0,0.32.19,0.448,0.89,0.512,2.82,0.256,3.33,1.856,3.33,10.111,0,13.056-1.34,18.426-5.95,24a35.008,35.008,0,0,1-14.08,10.05c-0.9.26-1.15,0.45-1.15,0.77,0,0.19.19,0.32,0.51,0.32a26.775,26.775,0,0,0,6.14-1.67c9.15-3.13,15.04-7.74,18.05-14.01,1.92-4.1,2.49-8.9,2.49-21.5,0-3.711.07-3.9,0.9-5.247a1.56,1.56,0,0,0,.26-0.768c0-.576-0.64-1.152-2.75-2.5C1511.63,987.443,1511.31,987.315,1510.29,987.315Zm-17.54,3.136c-1.34,0-4.8,1.536-4.8,2.176,0,0.192.19,0.32,0.58,0.384,2.3,0.384,3.52,1.407,3.84,3.327,0.19,1.024.38,5.822,0.38,8.252a50.564,50.564,0,0,1-.25,6.02,5.877,5.877,0,0,0-.26,1.15c0,1.79,2.88,4.35,4.8,4.35,0.96,0,1.66-1.08,1.66-2.56,0-.7-0.06-1.6-0.12-2.68-0.13-1.99-.32-6.53-0.32-7.49,0-4.61.12-6.594,0.38-7.49a3.823,3.823,0,0,0,.19-1.024C1498.83,993.267,1494.93,990.451,1492.75,990.451Zm69.12,13.309c2.63-1.21,6.15-2.94,10.69-5.118a14.988,14.988,0,0,1,4.35-1.472c2.75-.256,3.65-0.64,3.65-1.856,0-.7-0.51-1.471-2.37-3.519-2.69-2.944-4.03-4.032-5.05-4.032a5.229,5.229,0,0,0-1.22.256c-3.9,1.472-5.38,1.792-11.33,2.624-7.23.96-18.24,2.112-20.6,2.112-2.24,0-3.65-.64-4.48-2.112-0.26-.384-0.32-0.448-0.52-0.448-0.32,0-.51.7-0.51,1.984a5.76,5.76,0,0,0,1.86,4.1c1.41,1.344,3.77,2.688,4.86,2.688,0.51,0,.9-0.192,2.11-0.96a19.4,19.4,0,0,1,6.15-2.5c6.97-1.727,14.14-2.943,17.53-2.943,1.54,0,2.56.384,2.56,0.96,0,1.343-3.84,5.247-7.93,8.127-2.5-2.176-4.68-3.264-6.72-3.264-1.22,0-2.05.448-2.24,1.152a3.015,3.015,0,0,1,2.17,3.132c0,4.42-2.62,13.63-5.5,19.46-2.94,6.01-6.78,10.75-10.94,13.5a0.867,0.867,0,0,0-.52.64,0.367,0.367,0,0,0,.39.32,6.2,6.2,0,0,0,2.17-.83,35.906,35.906,0,0,0,10.12-7.62C1555.6,1022.45,1559.38,1014.26,1561.87,1003.76Zm60.1,29.76h22.46v-1.79h-1.6c-4.54-.19-5.95-1.6-5.95-6.02v-15.8h7.17l11.77,23.61h14.21v-1.79h-1.66a7.018,7.018,0,0,1-6.47-3.71l-10.04-18.37c4.22-.77,6.01-1.28,7.87-2.43a10.808,10.808,0,0,0,1.02-18.177c-3.01-2.176-5.69-2.688-13.82-2.688h-24.96v1.792h2.37c3.2,0.064,4.73,1.472,4.8,4.352v33.4c0,4.8-.96,5.76-5.95,5.83h-1.22v1.79Zm14.91-25.53V993.715c0-3.968,1.79-5.312,6.98-5.312,8.19,0,12.54,3.456,12.54,9.855,0,6.852-4.42,9.732-15.04,9.732h-4.48Zm63.55-22.915a23.635,23.635,0,0,0-17.4,7.1c-4.1,4.223-6.28,10.3-6.28,17.531,0,7.55,2.37,13.7,6.98,18.31a22.694,22.694,0,0,0,15.81,6.65c13.37,0,23.55-10.75,23.55-24.89C1723.09,995.57,1713.49,985.075,1700.43,985.075Zm-0.83,1.984c9.47,0,14.4,7.679,14.4,22.461,0,14.98-4.93,23.17-14.08,23.17-9.28,0-14.27-8-14.27-22.72,0-8.32,1.28-13.824,4.16-17.855A11.648,11.648,0,0,1,1699.6,987.059Zm70.34,30.971a33.508,33.508,0,0,1-4.1,7.55,13.63,13.63,0,0,1-11.26,5.76c-9.67,0-15.23-7.55-15.23-20.6,0-13.442,6.01-22.721,14.71-22.721a13.772,13.772,0,0,1,9.99,4.8c2.37,2.623,3.52,5.311,4.73,10.561h2.24l-0.64-17.793h-1.72l-3.27,3.776c-4.73-3.072-7.68-4.032-12.35-4.032a21.5,21.5,0,0,0-15.93,6.656c-4.74,4.671-6.98,10.3-6.98,17.343,0,14.85,9.34,25.15,22.85,25.15,8.83,0,14.78-4.86,19-15.49Zm48.57,0a33.959,33.959,0,0,1-4.09,7.55,13.648,13.648,0,0,1-11.27,5.76c-9.66,0-15.23-7.55-15.23-20.6,0-13.442,6.02-22.721,14.72-22.721a13.751,13.751,0,0,1,9.98,4.8c2.37,2.623,3.52,5.311,4.74,10.561h2.24l-0.64-17.793h-1.73l-3.26,3.776c-4.74-3.072-7.68-4.032-12.35-4.032a21.508,21.508,0,0,0-15.94,6.656c-4.73,4.671-6.97,10.3-6.97,17.343,0,14.85,9.34,25.15,22.84,25.15,8.83,0,14.78-4.86,19.01-15.49Zm32.45-32.955a23.658,23.658,0,0,0-17.41,7.1c-4.09,4.223-6.27,10.3-6.27,17.531,0,7.55,2.37,13.7,6.98,18.31a22.67,22.67,0,0,0,15.8,6.65c13.38,0,23.55-10.75,23.55-24.89C1873.61,995.57,1864.01,985.075,1850.96,985.075Zm-0.83,1.984c9.47,0,14.4,7.679,14.4,22.461,0,14.98-4.93,23.17-14.08,23.17-9.28,0-14.27-8-14.27-22.72,0-8.32,1.28-13.824,4.16-17.855A11.648,11.648,0,0,1,1850.13,987.059Z" transform="translate(-1116.69 -979.812)"/>
</svg>
