<svg xmlns="http://www.w3.org/2000/svg" viewBox="0 0 240.87 28.58"><defs><style>.cls-1{fill:#343434;}</style></defs><g id="Layer_2" data-name="Layer 2"><g id="Layer_1-2" data-name="Layer 1"><path class="cls-1" d="M23.58,18.75c2.09,1.66,3.2,3.39,3.2,5a1.72,1.72,0,0,1-1.58,1.87c-.72,0-1.19-.47-1.66-1.69a14.37,14.37,0,0,0-7.49-8.06A29.38,29.38,0,0,1,5.29,25,19.91,19.91,0,0,1,.54,26.85c-.25,0-.54-.21-.54-.43S.11,26.2.68,26c3.46-1.33,8-4.68,11.16-8.28a33.75,33.75,0,0,0,5-7.7,11,11,0,0,0,1.3-3.28c0-.32-.25-.54-.65-.54A40,40,0,0,0,9,8.46c-.61.25-.65.25-.79.25-.32,0-.36,0-1.51-.86a1.75,1.75,0,0,1-.94-1.73c0-.68.11-1,.36-1,.08,0,.15.07.18.18.22.54,1.3.93,2.56.93a57.15,57.15,0,0,0,7-1.08A7.62,7.62,0,0,0,18.65,4a.93.93,0,0,1,.57-.22c.36,0,.79.25,2.16,1.3,1,.75,1.15.93,1.15,1.22s-.1.25-.43.47-.36.25-.75.54a52.85,52.85,0,0,1-4.83,7.92A16.49,16.49,0,0,1,23.58,18.75Z"/><path class="cls-1" d="M65.88,10.33a50.41,50.41,0,0,0-7.27.43c1.4.79,2.48,1.77,2.48,2.2,0,.14,0,.21-.22.47a2,2,0,0,0-.39.57c-1.3,4.65-2.41,7-4.57,9.54a14.86,14.86,0,0,1-6.63,4.64,9.42,9.42,0,0,1-1.47.4c-.18,0-.43-.18-.43-.29a.08.08,0,0,1,.07-.07,16.68,16.68,0,0,0,4.42-3c3.46-3.2,6-8.53,6-12.52A2,2,0,0,0,57,10.94a7.79,7.79,0,0,1-.93.11,14.86,14.86,0,0,0-3.35.76,2,2,0,0,1-.54.18,6.82,6.82,0,0,1-1.12-.29c-3.38,4.17-5.79,6.41-6.84,6.41a.37.37,0,0,1-.39-.33c0-.14.11-.32.39-.54a21.75,21.75,0,0,0,5-6.23c1.4-2.55,2.48-5.36,2.48-6.51a2.08,2.08,0,0,0-1.51-2.2c-.18,0-.29-.14-.29-.28s.25-.33,1-.33a4.25,4.25,0,0,1,3.2,1.12c1.08.86,1.41,1.22,1.41,1.44s-.08.29-.33.5a3,3,0,0,0-.61.58,36.12,36.12,0,0,1-2.48,4.93,1.63,1.63,0,0,0,.54.07,26.55,26.55,0,0,0,2.8-.4C62,9,62.85,8.85,64.69,7.85a2.16,2.16,0,0,1,.93-.33,10.62,10.62,0,0,1,2.52,1c.76.36,1.08.72,1.08,1.19a.6.6,0,0,1-.57.61Z"/><path class="cls-1" d="M91,12.38c1.37.9,2,1.73,2,2.81a1.52,1.52,0,0,1-1.44,1.48c-.57,0-.9-.26-1.22-.87a8.22,8.22,0,0,0-4.54-4c-.21-.08-.32-.15-.32-.26s.57-.36,1.29-.36A9.09,9.09,0,0,1,91,12.38Zm-.43,15c-.9,0-2.41-1.15-3.24-2.52a3.33,3.33,0,0,1-.54-2.16c0-.36.11-.54.32-.54s.18.08.47.47A2.69,2.69,0,0,0,90.14,24c1.23,0,3.39-1,6.16-2.77a74,74,0,0,0,11-9.51A39.92,39.92,0,0,0,111.2,7c.29-.43.43-.58.58-.58s.25.22.25.4c0,.68-1.8,3.7-3.53,6A52.77,52.77,0,0,1,93,26c-1.19.68-1.69,1-1.77,1A.81.81,0,0,1,90.54,27.39Zm4.75-21.7c1.37.83,2,1.73,2,2.88a1.62,1.62,0,0,1-1.55,1.69c-.61,0-.83-.18-1.23-1a7.88,7.88,0,0,0-5.29-4.07c-.25,0-.36-.07-.36-.22s.69-.46,1.7-.46A10.4,10.4,0,0,1,95.29,5.69ZM110.05,4.5a1.25,1.25,0,0,1-1.15,1.19c-.51,0-.72-.15-1-.72a6.48,6.48,0,0,0-3.35-2.88c-.25-.07-.36-.11-.36-.22s.43-.25,1-.25C107.71,1.62,110.05,3,110.05,4.5ZM114.12,3a1.29,1.29,0,0,1-1.19,1.23,1.06,1.06,0,0,1-1-.72,6.54,6.54,0,0,0-3.53-3c-.18,0-.25-.11-.25-.18s.54-.29,1.12-.29C111.7,0,114.12,1.48,114.12,3Z"/><path class="cls-1" d="M141.62,17.85a19.66,19.66,0,0,0,.22-2.12c0-.58-.4-.9-1-.9-1.12,0-2.66.43-5.83,1.58a3.69,3.69,0,0,1-1.08.33,2.3,2.3,0,0,1-1.44-.76,1.88,1.88,0,0,1-.72-1.58c0-.58.11-.87.32-.87s.08,0,.15.11c.25.72.82,1,2.08,1a21.59,21.59,0,0,0,4.5-.65,7,7,0,0,0,2.81-1,2,2,0,0,1,.79-.29c.29,0,.83.32,2.6,1.58.39.29.57.51.57.72s-.11.36-.5.76c-.69.43-1.44,2.77-2.49,7.63a43.29,43.29,0,0,0,6.12-.79,5.65,5.65,0,0,1,.94-.11c.47,0,.86.22,1.94,1,.65.47.94.87.94,1.3a.77.77,0,0,1-.72.68,3.89,3.89,0,0,1-1-.18,34.36,34.36,0,0,0-7.38-.68,65,65,0,0,0-7.35.54,20.68,20.68,0,0,0-4.32,1,4.19,4.19,0,0,1-1.61.47c-.4,0-.8-.22-1.84-1s-1.22-.94-1.22-1.33.18-.87.36-.87.1,0,.18.15c.28.46,1.29.75,2.73.75.25,0,.65,0,1.19-.07,1.08-.07,2-.14,2.73-.22,2.45-.14,4.29-.28,4.58-.32s1-.11,1.83-.18Z"/><path class="cls-1" d="M172.91,17.49a7.35,7.35,0,0,1-1.66.26,4.4,4.4,0,0,1-3.17-1.95,10.78,10.78,0,0,1-.25-2c0-.26.11-.44.29-.44s.18.08.29.26c.47,1,1.33,1.4,3.42,1.4a166.64,166.64,0,0,0,20.8-1.48c.33,0,.69-.07,1-.07a2.43,2.43,0,0,1,1.91.79c.69.65.94,1,.94,1.34,0,.54-.72.86-1.87.86-.29,0-.69,0-1.34,0s-3.7-.1-5.21-.1A97.74,97.74,0,0,0,172.91,17.49Z"/><path class="cls-1" d="M218.63,7.7c1.08.58,1.87,1.3,1.87,1.62,0,.15,0,.18-.33.43a3,3,0,0,0-.46,1.34,31.4,31.4,0,0,1-3.46,8.74c-1.94,3.21-6.23,7.38-7.59,7.38a.41.41,0,0,1-.44-.39c0-.15.11-.29.36-.44a19.1,19.1,0,0,0,5-5.93c1.91-3.28,3.42-8.1,3.42-10.88a2,2,0,0,0-1.18-1.94c-.18-.07-.26-.18-.26-.29s.22-.29.51-.29A6.11,6.11,0,0,1,218.63,7.7Zm5,6.09c0-3.17.08-4.83.08-4.9a4.15,4.15,0,0,0-.29-2.09,1.85,1.85,0,0,0-.72-.5c-.22,0-.29-.07-.29-.22s.72-.5,1.15-.5a4.07,4.07,0,0,1,2.31,1c.93.64,1,.75,1,1s0,.18-.29.5a7.75,7.75,0,0,0-.65,2.88c-.1,1.33-.36,6.88-.36,8.1,0,.51.18.72.58.72,1.33,0,4.14-1.62,6.73-3.89A40.34,40.34,0,0,0,240,7.59c.21-.43.32-.54.47-.54a.5.5,0,0,1,.39.44,20.9,20.9,0,0,1-2.7,4.86,32.15,32.15,0,0,1-5.58,6.22,30.34,30.34,0,0,1-5,3.42,4.78,4.78,0,0,0-2.2,1.59.46.46,0,0,1-.22.11c-.57,0-2.26-2-2.26-2.63a1.64,1.64,0,0,1,.14-.44,3.79,3.79,0,0,0,.47-2.44Z"/></g></g></svg>