<svg xmlns="http://www.w3.org/2000/svg" viewBox="0 0 309.11 50.94"><defs><style>.cls-1{fill:#fff;}</style></defs><g id="Layer_2" data-name="Layer 2"><g id="Layer_1-2" data-name="Layer 1"><path class="cls-1" d="M1.28,31.35A11.62,11.62,0,0,0,5.6,37.94c2.86,2.16,7.34,3.19,13.93,3.19A47.54,47.54,0,0,0,31.08,40c.33-.05.54-.1.65-.1a3.06,3.06,0,0,1,2.7,2.37c0,.92-.92,1.57-2.48,1.84a90.93,90.93,0,0,1-11.23.75c-7.73,0-13-1.35-16.26-4.15A11.19,11.19,0,0,1,.25,32.6c0-1.3.11-1.73.54-1.73C1.06,30.87,1.17,31,1.28,31.35ZM14.34,14.67c.17-.11.38-.27.65-.43-3.78-.27-5.67-.71-7.5-1.73S3.71,9.59,3.71,8.78c0-.27.37-.7.59-.7,0,0,.11.05.22.11a16.5,16.5,0,0,0,10.09,3.13c3.78,0,8.16-.38,9-.81a2.18,2.18,0,0,1,.75-.32c.71,0,3.08,2.64,3.08,3.4,0,.54-.86,1.08-1.62,1.08l-2.54-.06a24.11,24.11,0,0,0-6.69,1.73,45,45,0,0,0-9.13,5c-1,.71-1.13.81-1.4.81a.58.58,0,0,1-.43-.48c0-.87,3.45-3.67,8.58-6.91Zm13-8.32c4.32.7,7.94,3.35,7.94,5.89A1.56,1.56,0,0,1,33.68,14c-.76,0-1-.27-1.73-1.67a13.56,13.56,0,0,0-4.86-5.46Zm4.37-2.27C36.21,4.46,40.1,7,40.1,9.54c0,1.13-.65,1.89-1.51,1.89-.65,0-1-.27-1.46-1.14a15.52,15.52,0,0,0-5.61-5.61Z"/><path class="cls-1" d="M20.72,45.1C13,45.1,7.63,43.72,4.3,40.89A11.43,11.43,0,0,1,0,32.6c0-1.16.06-2,.79-2a.76.76,0,0,1,.72.65v0a11.37,11.37,0,0,0,4.23,6.45c2.83,2.14,7.21,3.14,13.78,3.14A47.29,47.29,0,0,0,31,39.75l.34-.06.37,0c1.33,0,2.95,1.44,2.95,2.62s-1,1.79-2.69,2.08A89.4,89.4,0,0,1,20.72,45.1ZM.79,31.12c-.15,0-.29.11-.29,1.48a10.92,10.92,0,0,0,4.12,7.91c3.24,2.75,8.5,4.09,16.1,4.09a89.92,89.92,0,0,0,11.18-.75c1.45-.25,2.28-.83,2.28-1.59a2.85,2.85,0,0,0-2.45-2.12l-.27,0-.34.06a48,48,0,0,1-11.59,1.14c-6.68,0-11.16-1-14.08-3.24A11.79,11.79,0,0,1,1,31.42C.93,31.12.88,31.12.79,31.12ZM6,22.42a.82.82,0,0,1-.68-.73c0-1.2,4.68-4.59,8.7-7.13l.2-.13c-3.35-.28-5.14-.73-6.89-1.7s-3.9-2.93-3.9-4c0-.37.45-.95.84-.95a.43.43,0,0,1,.24.09l.09,0a16.33,16.33,0,0,0,10,3.11c3.8,0,8.1-.38,8.85-.78a2.25,2.25,0,0,1,.87-.35c.84,0,3.33,2.73,3.33,3.65,0,.73-1,1.33-1.87,1.33l-2.54-.06a24.09,24.09,0,0,0-6.6,1.71,45.24,45.24,0,0,0-9.07,5C6.62,22.26,6.39,22.42,6,22.42ZM4.28,8.34A.75.75,0,0,0,4,8.78c0,.65,1.71,2.44,3.65,3.51,1.79,1,3.66,1.43,7.4,1.7l.79,0-.68.41-.47.31-.33.22c-5.85,3.7-8.47,6.15-8.47,6.71a.37.37,0,0,0,.19.23c.17,0,.3-.08,1.25-.76a45.39,45.39,0,0,1,9.17-5.05,24.08,24.08,0,0,1,6.79-1.75l2.55.06c.67,0,1.36-.49,1.36-.83,0-.62-2.27-3.15-2.83-3.15a2.33,2.33,0,0,0-.63.29c-.93.49-5.53.84-9.09.84A16.78,16.78,0,0,1,4.36,8.38S4.31,8.36,4.28,8.34Zm29.4,5.93c-.92,0-1.24-.39-2-1.81a13.32,13.32,0,0,0-4.78-5.37L26.77,7l.45-.9.18,0c4.49.73,8.15,3.49,8.15,6.14A1.8,1.8,0,0,1,33.68,14.27ZM27.41,6.81a13.73,13.73,0,0,1,4.76,5.43c.7,1.39.91,1.53,1.51,1.53.88,0,1.37-.54,1.37-1.53,0-2.34-3.44-4.89-7.55-5.61Zm11.18,4.87c-.76,0-1.22-.35-1.68-1.27A15.37,15.37,0,0,0,31.4,4.9l-.19-.1.35-1h.19c4.66.4,8.6,3,8.6,5.71A1.91,1.91,0,0,1,38.59,11.68ZM31.82,4.56a15.8,15.8,0,0,1,5.54,5.63c.42.84.73,1,1.23,1,.74,0,1.26-.68,1.26-1.64,0-2.37-3.69-4.77-8-5.19Z"/><path class="cls-1" d="M45.77,26.49c5.24.27,7.35.33,10.64.33H68.56V11.59H59.43c-3.83,0-5.4.05-9.88.27L48.8,9.92c4.86.27,6.21.32,10.63.32h9.13v-9l5.13.43a1.21,1.21,0,0,1,1.08,1.13A1.33,1.33,0,0,1,74,3.92l-1.62.92v5.4H84.17l3.24-3.62,4.64,3.3a1.39,1.39,0,0,1,.65,1,.62.62,0,0,1-.65.65H72.34V26.82h14.2l3.4-3.73,4.27,3A1.47,1.47,0,0,1,95,27.3a.83.83,0,0,1-.81.81H73.58c4.43,6.75,12.26,12.42,22,15.77-2.81,1.19-4.54,2.43-5.45,4C82,42.86,76.23,36.75,72.45,29V48.36c0,.54-.33,1-1.08,1.3a6.38,6.38,0,0,1-2,.59c-.7,0-.86-.37-.86-1.78V30.65c-5.35,6.91-9.83,11.18-15.28,14.74C50,47.5,46.69,49.23,46,49.23a.52.52,0,0,1-.48-.49c0-.21.16-.43.54-.65a52.38,52.38,0,0,0,19.11-20h-8.8c-3.51,0-5.35.06-9.94.27Zm8.16-13.28a12.47,12.47,0,0,1,4.64,2.27c3,2.27,4.59,4.64,4.59,7.18,0,1.78-.81,2.86-2.16,2.86s-1.62-.54-2.16-3.67a12.71,12.71,0,0,0-5.08-8Zm32.61,1.4a1.22,1.22,0,0,1,.65,1,.9.9,0,0,1-.65.86L84.92,17c-1.83,2.27-1.83,2.27-6.42,7.56C77.58,25.74,77.31,26,77,26a.36.36,0,0,1-.37-.32,2,2,0,0,1,.27-.86,106.89,106.89,0,0,0,5.34-12.53Z"/><path class="cls-1" d="M69.42,50.5c-1,0-1.11-.8-1.11-2V31.38C63.2,37.9,58.85,42.05,53.41,45.6c-2.91,1.87-6.56,3.88-7.37,3.88a.76.76,0,0,1-.73-.74c0-.32.22-.61.66-.86A51.79,51.79,0,0,0,64.78,28.36H56.41c-3.45,0-5.22.05-9.92.27H46.3l-.9-2.42.38,0c5.33.28,7.42.33,10.63.33h11.9V11.84H59.43c-3.85,0-5.4.05-9.87.27h-.18l-1-2.48.39,0c4.87.27,6.2.32,10.62.32h8.88V1l5.4.46A1.46,1.46,0,0,1,75,2.84a1.55,1.55,0,0,1-.94,1.3L72.59,5v5H84.05l3.32-3.7,4.82,3.42A1.62,1.62,0,0,1,93,10.94a.88.88,0,0,1-.9.9H72.59V26.57H86.43l3.48-3.81,4.44,3.15a1.72,1.72,0,0,1,.87,1.39,1.07,1.07,0,0,1-1.06,1.06H74.05c4.49,6.61,12.14,12,21.59,15.29l.62.21-.6.25C92.85,45.3,91.2,46.5,90.32,48l-.13.22L90,48.09c-7.84-4.82-13.5-10.72-17.28-18V48.36a1.69,1.69,0,0,1-1.23,1.53A6.38,6.38,0,0,1,69.42,50.5Zm-.61-20.58V48.47c0,1.53.22,1.53.61,1.53a5.91,5.91,0,0,0,1.84-.57c.84-.36.94-.78.94-1.07V28l.47,1C76.38,36.49,82.05,42.58,90,47.53a10.59,10.59,0,0,1,4.86-3.62C85.41,40.53,77.79,35,73.37,28.25l-.25-.39h21a.58.58,0,0,0,.56-.56,1.27,1.27,0,0,0-.65-1L90,23.42l-3.33,3.65H72.09V11.34h20a.38.38,0,0,0,.4-.4,1.16,1.16,0,0,0-.55-.82L87.44,7l-3.16,3.54H72.09V4.69l1.75-1c.25-.14.68-.44.68-.86A1,1,0,0,0,73.67,2l-4.86-.41v8.94H59.43c-4.31,0-5.7-.05-10.26-.3l.55,1.41c4.34-.21,5.91-.26,9.71-.26h9.38V27.07H56.41c-3.14,0-5.21-.05-10.27-.31l.5,1.37c4.53-.22,6.39-.27,9.77-.27h9.23l-.21.38C60.45,37.05,54,43.8,46.22,48.31c-.27.15-.41.31-.41.43A.27.27,0,0,0,46,49c.49,0,3.43-1.45,7.1-3.8,5.55-3.62,10-7.88,15.22-14.68ZM77,26.2a.6.6,0,0,1-.62-.57,2.62,2.62,0,0,1,.29-1A104.76,104.76,0,0,0,82,12.16l.1-.29,4.59,2.53a1.44,1.44,0,0,1,.77,1.24,1.16,1.16,0,0,1-.81,1.1l-1.56.52c-1.79,2.21-1.83,2.26-6.38,7.51C77.74,25.93,77.42,26.2,77,26.2Zm5.38-13.6A108.48,108.48,0,0,1,77.1,24.88a2,2,0,0,0-.24.75s0,.07.12.07.45-.18,1.32-1.25c4.59-5.3,4.59-5.3,6.43-7.56l0-.06,1.69-.56a.66.66,0,0,0,.48-.63,1,1,0,0,0-.52-.81ZM61,25.77c-1.53,0-1.87-.78-2.41-3.88a12.37,12.37,0,0,0-5-7.83l-.13-.1.27-1.06L54,13a12.75,12.75,0,0,1,4.73,2.3c3.16,2.37,4.69,4.79,4.69,7.39C63.41,24.58,62.49,25.77,61,25.77Zm-7-12a12.94,12.94,0,0,1,5,8c.54,3.14.84,3.46,1.91,3.46s1.91-1,1.91-2.61c0-2.43-1.47-4.72-4.49-7a12,12,0,0,0-4.31-2.16Z"/><path class="cls-1" d="M99.72,34.22c4.43-.65,6-.92,8.69-1.46V16.88l-7.72.16L100,15.37l8.37.22V1.82L113,2.3c.7.06,1,.38,1,.92s-.22.76-1,1.19l-1.14.75V15.59h2.22L117,12.13l3.29,3.13a1.66,1.66,0,0,1,.49,1c0,.32-.38.59-.81.59h-8V32.11l7.89-1.73.1,1L105,37l-.54,1.08a1.09,1.09,0,0,1-1,.76c-.27,0-.49-.11-.76-.49Zm15.93-8.37-.7-1.79c1.94.06,3.67.11,4.26.11,2.81.11,4.7.16,5.13.16h18l2.81-3.45,4,3.18a1.52,1.52,0,0,1,.43.92c0,.43-.27.65-.76.65H128.18l-3,4.86h18.36L145,28.22l3.62,3.24a1.22,1.22,0,0,1,.43.76c0,.27-.22.43-.81.75l-1,.44-1.08,5.72a34.27,34.27,0,0,1-2,6.37,6.73,6.73,0,0,1-5.83,4c-.54,0-.81-.27-.81-.92v-.22a6.34,6.34,0,0,0,0-.86c0-.43-.21-.65-1.19-1l-3.94-1.67.22-.92,3.72.6a17.31,17.31,0,0,0,2.22.16c1.78,0,2.59-.92,3.45-3.73a38.49,38.49,0,0,0,1.68-9.12h-4.27c-3,5.61-4.86,8.2-8.31,11.66a37.84,37.84,0,0,1-8.86,6.37,8.15,8.15,0,0,1-2.11.87.48.48,0,0,1-.48-.49c0-.16.11-.32.43-.49a40.1,40.1,0,0,0,15.5-17.92H132l-.43.54c-5,7-6.64,8.64-11.83,12.47-2.43,1.78-4.91,3.19-5.61,3.19a.58.58,0,0,1-.49-.54c0-.27,0-.27.92-.87a44,44,0,0,0,13.5-14.79h-3.78a41.87,41.87,0,0,1-7.62,8C114.08,42,112.62,43,112,43a.47.47,0,0,1-.44-.43c0-.27.22-.49,1-1.19a42.79,42.79,0,0,0,11.61-15.77ZM126.18,4.73H139l1.51-2.16,3.24,2.86a1.58,1.58,0,0,1,.59,1.08c0,.33-.27.6-.7.76l-.81.32V20.5c0,.76-1.51,1.62-2.86,1.62-.38,0-.43-.16-.43-.86V19.58H125.37v2c0,.48-1.62,1.13-2.81,1.13-.32,0-.49-.11-.49-.32V2.57Zm13.34,6.7V6H125.37v5.4Zm0,6.86V12.72H125.37v5.57Z"/><path class="cls-1" d="M120.18,50.94a.74.74,0,0,1-.73-.74c0-.42.43-.64.57-.71A40,40,0,0,0,135.24,32h-3.11l-.36.44c-5,6.88-6.62,8.64-11.87,12.52-2.14,1.57-4.89,3.24-5.76,3.24a.83.83,0,0,1-.74-.79c0-.41.08-.46,1-1.08A43.82,43.82,0,0,0,127.64,32h-3.23a42.08,42.08,0,0,1-7.57,8c-2.84,2.37-4.16,3.25-4.86,3.25a.72.72,0,0,1-.69-.68c0-.4.29-.67,1.12-1.38a42.33,42.33,0,0,0,11.38-15.32l-8.31.21-.91-2.3,1.57.05c1.4,0,2.61.07,3.07.07,2.74.11,4.68.16,5.13.16h17.87l2.88-3.55,4.19,3.34a1.69,1.69,0,0,1,.53,1.11.88.88,0,0,1-1,.9H128.31l-2.71,4.36h17.78l1.54-2.4,3.83,3.44a1.42,1.42,0,0,1,.52.94c0,.43-.35.65-.94,1l-.87.39-1.06,5.6a34.1,34.1,0,0,1-2,6.43,7,7,0,0,1-6.06,4.14c-.49,0-1.06-.2-1.06-1.17v-.22a6.5,6.5,0,0,0,0-.86c0-.25,0-.41-1-.79L132.15,45l.32-1.35,3.95.63a16.34,16.34,0,0,0,2.18.16c1.63,0,2.38-.83,3.21-3.55a37.92,37.92,0,0,0,1.65-8.8h-3.85c-3,5.55-4.87,8.17-8.29,11.59A38,38,0,0,1,122.41,50,7.68,7.68,0,0,1,120.18,50.94Zm11.71-19.4H136l-.17.35a40.48,40.48,0,0,1-15.59,18c-.11,0-.31.17-.31.27a.23.23,0,0,0,.23.24,9.94,9.94,0,0,0,2-.84A37.54,37.54,0,0,0,131,43.27c3.4-3.4,5.26-6,8.27-11.6l.07-.13H144v.26A39.08,39.08,0,0,1,142.29,41c-.91,3-1.8,3.91-3.69,3.91a15.82,15.82,0,0,1-2.25-.17l-3.5-.55-.12.48,3.75,1.59c.93.36,1.34.63,1.34,1.26a7,7,0,0,1,0,.9v.18c0,.56.2.67.56.67a6.51,6.51,0,0,0,5.61-3.86,34.3,34.3,0,0,0,2-6.31L147,33.23l1.09-.48c.56-.31.66-.42.66-.53a1,1,0,0,0-.36-.58l-3.39-3-1.37,2.14h-19L128,25.38H148.8c.45,0,.51-.19.51-.4a1.18,1.18,0,0,0-.36-.74l-3.78-3-2.73,3.35h-18.1c-.45,0-2.41,0-5.14-.16h0c-.47,0-1.62,0-3.08-.07l-.8,0,.5,1.27,8.74-.22-.15.36a42.72,42.72,0,0,1-11.67,15.85c-.71.62-.95.85-.95,1a.24.24,0,0,0,.19.18c.69,0,2.79-1.67,4.53-3.13a42,42,0,0,0,7.58-8l.07-.1h4.33l-.2.37a44.38,44.38,0,0,1-13.58,14.88,5.92,5.92,0,0,0-.81.56v.1a.37.37,0,0,0,.24.29c.57,0,2.9-1.26,5.46-3.14,5.19-3.84,6.84-5.58,11.78-12.42Zm-28.5,7.52a1.14,1.14,0,0,1-1-.6L99.28,34l.4-.06c4.39-.64,6-.92,8.48-1.42V17.14l-7.64.16-.85-2.19,8.49.22V1.54l4.87.51c1.08.09,1.25.77,1.25,1.17,0,.66-.37,1-1.1,1.4l-1,.68v10H114l3-3.58,3.48,3.32a1.87,1.87,0,0,1,.57,1.21,1,1,0,0,1-1.06.84h-7.8V31.8L120,30.08l.16,1.44-15.05,5.65-.49,1A1.32,1.32,0,0,1,103.39,39.06Zm-3.23-4.66,2.68,3.77c.25.36.4.39.55.39a.85.85,0,0,0,.8-.61l.59-1.18.09,0,14.77-5.55,0-.5-7.92,1.73V16.63H120c.31,0,.56-.18.56-.34a1.41,1.41,0,0,0-.41-.85L117,12.5l-2.77,3.34h-2.58V5l1.25-.83c.77-.45.86-.65.86-1s-.09-.62-.8-.67l-4.32-.46V15.84l-8.25-.21.45,1.16,7.8-.16V33l-.2,0C105.9,33.52,104.37,33.79,100.16,34.4Zm22.4-11.49c-.66,0-.74-.4-.74-.57V2.16l4.42,2.32h12.61l1.59-2.28,3.45,3.05a1.78,1.78,0,0,1,.68,1.26,1.11,1.11,0,0,1-.86,1l-.65.26V20.5c0,1-1.74,1.87-3.11,1.87-.68,0-.68-.54-.68-1.11V19.83H125.62v1.7C125.62,22.28,123.74,22.91,122.56,22.91ZM122.32,3V22.34s.08.07.24.07a3.77,3.77,0,0,0,2.56-.89V19.33h14.65v1.93a1.63,1.63,0,0,0,0,.6H140c1.26,0,2.61-.8,2.61-1.37V7.42l1-.38c.34-.13.54-.33.54-.53a1.36,1.36,0,0,0-.5-.89l-3-2.68-1.42,2L126.06,5Zm17.45,15.55H125.12V12.47h14.65ZM125.62,18h13.65V13H125.62Zm14.15-6.36H125.12V5.78h14.65Zm-14.15-.5h13.65V6.28H125.62Z"/><path class="cls-1" d="M180.56,15.21a.73.73,0,0,1-.27.48c-.6.87-.65.92-2.27,5.35a87.17,87.17,0,0,1-8.7,17.55c-2,2.92-2.59,3.4-3.88,3.4-.6,0-.71-.05-2.33-1.46a16.7,16.7,0,0,1-3.45-3.61,11.24,11.24,0,0,1-1.73-6.21,20.12,20.12,0,0,1,6.37-13.88,25.2,25.2,0,0,1,16.63-6.7c10.26,0,18.74,7.35,18.74,16.26,0,5.23-3.24,10.26-8.48,13.17a43.82,43.82,0,0,1-10.58,4,13.68,13.68,0,0,1-2.27.43.51.51,0,0,1-.54-.54c0-.38.22-.49.92-.7a54,54,0,0,0,7.72-3.13c5.83-3,9.13-8,9.13-14.15a12.31,12.31,0,0,0-4.75-9.83A15.13,15.13,0,0,0,180.45,12a12.46,12.46,0,0,0-2,.16c-.06.06-.22.06-.49.11C179.42,13.26,180.56,14.51,180.56,15.21ZM166,18.39a17.12,17.12,0,0,0-4.59,12.15,10.29,10.29,0,0,0,1.35,5.89c.7,1,1.45,1.62,2.21,1.62,1.08,0,2.11-.92,3.35-3a65.44,65.44,0,0,0,6.15-14.21,41.86,41.86,0,0,0,1.62-6.21,1.53,1.53,0,0,0-.86-1.35,4.75,4.75,0,0,0-.81-.32A20.29,20.29,0,0,0,166,18.39Z"/><path class="cls-1" d="M178.34,44.24a.76.76,0,0,1-.79-.79c0-.6.48-.75,1.1-.94a52.37,52.37,0,0,0,7.68-3.12c5.8-3,9-7.89,9-13.92a12.09,12.09,0,0,0-4.67-9.64,14.86,14.86,0,0,0-10.2-3.56,10.65,10.65,0,0,0-1.91.15c1.16.84,2.27,2,2.27,2.79a1,1,0,0,1-.35.66c-.55.81-.62.91-2.21,5.26a87.71,87.71,0,0,1-8.72,17.6c-2,3-2.67,3.51-4.09,3.51-.69,0-.85-.1-2.49-1.52a16.79,16.79,0,0,1-3.5-3.66,11.51,11.51,0,0,1-1.77-6.35,20.31,20.31,0,0,1,6.45-14.07,25.35,25.35,0,0,1,16.8-6.76c10.47,0,19,7.41,19,16.51,0,5.3-3.3,10.44-8.6,13.39a43.84,43.84,0,0,1-10.65,4A13.48,13.48,0,0,1,178.34,44.24Zm2.11-32.47A15.35,15.35,0,0,1,191,15.45a12.58,12.58,0,0,1,4.84,10c0,6.22-3.29,11.33-9.26,14.37A55.23,55.23,0,0,1,178.78,43c-.73.22-.73.29-.73.46a.26.26,0,0,0,.29.29,14.37,14.37,0,0,0,2.22-.43,43.68,43.68,0,0,0,10.51-4c5.15-2.86,8.35-7.83,8.35-13,0-8.83-8.29-16-18.49-16A24.84,24.84,0,0,0,164.47,17a19.78,19.78,0,0,0-6.29,13.7,10.91,10.91,0,0,0,1.68,6.06,16.28,16.28,0,0,0,3.42,3.57c1.61,1.4,1.66,1.4,2.16,1.4,1.13,0,1.64-.32,3.68-3.29A87,87,0,0,0,177.78,21c1.61-4.4,1.69-4.51,2.28-5.37l.05-.06c.19-.19.2-.29.2-.31,0-.53-.95-1.69-2.54-2.71l-.51-.33.6-.12.26-.05.14,0,.06-.06,0,0A11.86,11.86,0,0,1,180.45,11.77ZM165,38.3c-.82,0-1.64-.58-2.42-1.73a10.47,10.47,0,0,1-1.39-6,17.45,17.45,0,0,1,4.65-12.32h0a20.51,20.51,0,0,1,8.54-5.52h.07a3.65,3.65,0,0,1,.95.37,1.75,1.75,0,0,1,1,1.55,42,42,0,0,1-1.63,6.29,64.77,64.77,0,0,1-6.18,14.25C167.23,37.33,166.13,38.3,165,38.3Zm1.21-19.74a17,17,0,0,0-4.52,12A10,10,0,0,0,163,36.3c.67,1,1.36,1.5,2,1.5,1,0,2-.89,3.13-2.9a64.75,64.75,0,0,0,6.14-14.15,44.3,44.3,0,0,0,1.6-6.14,1.28,1.28,0,0,0-.72-1.12,4.19,4.19,0,0,0-.69-.29,19.92,19.92,0,0,0-8.25,5.36Z"/><path class="cls-1" d="M207.5,10.13c2.65.11,4.81.16,5.73.22,2.37.05,4.05.11,4.91.11H225a8.41,8.41,0,0,1-.65-1.25c-.22-.64-.43-1.29-.7-1.94a10.16,10.16,0,0,0-4.38-5.62l.17-.54c4.91.6,9.28,4.16,9.28,7.62a2.79,2.79,0,0,1-.7,1.73h8c1.52-4.11,1.73-4.92,3.24-10.1l4.43,2.21c.6.33.81.6.81,1s-.21.65-.92.86l-1.35.43-4.05,5.57h10.59l3.62-3.89L257,10.35a1,1,0,0,1,.43.75c0,.44-.32.71-.92.71H218.14c-1.73,0-4,.1-10,.21Zm9.83,7.29h8.15L227.16,15l3.67,3a1.47,1.47,0,0,1,.59,1.13c0,.32-.16.54-.59.76l-.92.37V46.2A4.12,4.12,0,0,1,226,49.88c-.59,0-.81-.22-.81-1-.1-1.08-.16-1.13-2-1.78l-3.73-1.24v-1L224,45h.32c1.78,0,2.05-.22,2.05-1.79V33.46h-9.61V48.15c0,.86-.11,1.08-.92,1.4a5.12,5.12,0,0,1-1.62.43,1,1,0,0,1-1-1V15.15Zm9.07,7.24V18.72h-9.61v5.94Zm0,7.5V26h-9.61v6.21Zm15.23-14.25c.65.11,1,.43,1,.92s-.21.64-.65.91l-1.08.65V39.67c0,.59-.05.7-.7,1a3.33,3.33,0,0,1-1.83.59,1.05,1.05,0,0,1-1-1.13V17.31Zm-1.3,27,5.46-.11c1.78,0,1.94-.16,2-1.4V15.69l4.59.65c.86.16,1.24.43,1.24,1,0,.38-.22.59-.81,1l-1.35.76V45.61a3.57,3.57,0,0,1-1.68,3.19,4.82,4.82,0,0,1-2.32,1c-.43,0-.7-.27-.86-.87a4,4,0,0,0-.38-1.29c-.11-.22-.54-.43-1.19-.6l-4.7-1.18Z"/><path class="cls-1" d="M214.25,50.23A1.24,1.24,0,0,1,213,49V14.73l4.41,2.44h8l1.76-2.55,3.88,3.2a1.75,1.75,0,0,1,.68,1.33,1.08,1.08,0,0,1-.73,1l-.78.32V46.2A4.37,4.37,0,0,1,226,50.13c-.88,0-1.06-.51-1.06-1.28-.09-.93-.09-.93-1.83-1.55L219.24,46V44.54l4.8.23h.31c1.67,0,1.8-.12,1.8-1.54V33.71H217V48.15c0,.93-.14,1.26-1.08,1.63A5.29,5.29,0,0,1,214.25,50.23Zm-.77-34.65V49a.73.73,0,0,0,.77.77,5,5,0,0,0,1.53-.41c.71-.29.76-.41.76-1.17V33.21h10.11v10c0,1.8-.46,2-2.3,2H224l-4.29-.21v.59l3.55,1.18c1.87.66,2.05.76,2.17,2,0,.77.18.81.56.81a3.89,3.89,0,0,0,3.64-3.43V20.12l1.07-.45c.41-.2.44-.36.44-.52a1.24,1.24,0,0,0-.5-.94l-3.46-2.85-1.59,2.31h-8.35Zm34,34.44c-.82,0-1-.79-1.1-1.05a6.77,6.77,0,0,0-.32-1.19l0-.06c0-.08-.31-.28-1-.46L240.08,46V44.66l5.7-.11c1.71,0,1.71-.11,1.76-1.16v-28l4.87.68c.73.14,1.46.4,1.46,1.28,0,.5-.3.78-.93,1.18l-1.23.69V45.61A3.78,3.78,0,0,1,249.94,49,5.08,5.08,0,0,1,247.46,50Zm-1-2.56a4.06,4.06,0,0,1,.41,1.39c.16.59.4.67.62.67a4.64,4.64,0,0,0,2.18-.93,3.32,3.32,0,0,0,1.57-3V19l1.48-.83c.57-.37.68-.52.68-.75,0-.38-.17-.62-1-.78L248,16V43.4c-.07,1.46-.43,1.6-2.24,1.65l-5.22.1v.48l4.51,1.14A2.18,2.18,0,0,1,246.43,47.46Zm-8.09-5.92a1.3,1.3,0,0,1-1.23-1.38V17l4.56.63c1,.17,1.18.8,1.18,1.17a1.37,1.37,0,0,1-.76,1.13l-1,.57V39.67c0,.71-.12.89-.84,1.25A3.54,3.54,0,0,1,238.34,41.54Zm-.73-23.94V40.16a.81.81,0,0,0,.73.88,3.06,3.06,0,0,0,1.7-.56c.58-.29.58-.31.58-.81V20.25l1.21-.72c.46-.29.52-.51.52-.7s0-.55-.76-.68Zm-11,14.81H216.54V25.7h10.11Zm-9.61-.5h9.11V26.2H217Zm9.61-7H216.54V18.47h10.11Zm-9.61-.5h9.11V19H217Zm-9.13-12.14-.75-2.4h.35l3.32.12,2.41.1,2.21.05c1.22,0,2.13.06,2.69.06h6.43a7.48,7.48,0,0,1-.46-.92c-.21-.63-.43-1.28-.69-1.92a9.89,9.89,0,0,0-4.28-5.5l-.16-.1.28-.93.21,0c5.06.61,9.5,4.28,9.5,7.86a2.61,2.61,0,0,1-.48,1.48h7.35c1.37-3.72,1.65-4.68,2.92-9L239.1,0l4.69,2.35c.58.31,1,.64,1,1.25s-.42.89-1.09,1.1l-1.27.41-3.71,5.1h10l3.7-4,4.83,3.92a1.24,1.24,0,0,1,.52.95c0,.46-.3,1-1.17,1H218.14c-1.63,0-3.89.1-10,.21Zm-.06-1.87.43,1.37c6-.11,8.23-.16,9.85-.21h38.4c.31,0,.67-.08.67-.46a.77.77,0,0,0-.34-.56L252.4,6.91l-3.53,3.8H237.68l4.39-6,1.43-.46c.69-.21.74-.38.74-.62s-.1-.5-.68-.81L239.41.71l-.17.6c-1.3,4.44-1.57,5.36-3,9.23l-.06.17h-8.65l.28-.4a2.51,2.51,0,0,0,.65-1.58c0-3.29-4.11-6.69-8.86-7.34l0,.15a10.48,10.48,0,0,1,4.32,5.65c.26.64.48,1.3.7,1.94a9.19,9.19,0,0,0,.62,1.2l.22.38h-7.29c-.57,0-1.48,0-2.71-.06l-2.21-.05-2.4-.1Z"/><path class="cls-1" d="M279.11,23.42C275.7,31.68,274,37.67,274,41.07a15.75,15.75,0,0,0,.16,2c.05.75.11,1.13.11,1.56,0,1.3-.49,2.06-1.41,2.06-2.75,0-4.26-4.81-4.26-13.34,0-6.27.7-10.42,3.18-18.58a9.64,9.64,0,0,0,.7-3.13c0-1.24-.59-2.11-2.7-4.1,1.46-.6,1.68-.65,2.06-.65,1.29,0,4.75,4.1,4.75,5.72,0,.38-.06.49-.65,1.51a36.33,36.33,0,0,0-3,7A28,28,0,0,0,271,31.84a9.89,9.89,0,0,0,1,5A145.49,145.49,0,0,1,278,23Zm29.75,17.76c0,.7-.54,1.24-1.51,1.51a40.06,40.06,0,0,1-8.1.65c-6.37,0-10.91-1-13.29-2.81a8.41,8.41,0,0,1-3.45-7c0-2.49,1.24-6.32,2.05-6.32a.59.59,0,0,1,.59.54,1.53,1.53,0,0,1-.1.54,17.8,17.8,0,0,0-.65,4.27c0,3.18,1.83,5.29,5.51,6.37a25.88,25.88,0,0,0,7,.7,63.41,63.41,0,0,0,8-.54,11.83,11.83,0,0,1,1.46-.16A2.36,2.36,0,0,1,308.86,41.18ZM286.29,23.9a51.42,51.42,0,0,1,6.48-6.59,25.66,25.66,0,0,0,2.43-2.26,56.74,56.74,0,0,1-6.7.75c-1.46,0-2.59-.43-4.59-1.89-.86-.59-1.29-1.19-1.29-1.73a1.47,1.47,0,0,1,.32-.7c3.08,1.46,3.83,1.68,5.56,1.68A51.45,51.45,0,0,0,301,11.21a3.71,3.71,0,0,1,.91-.27,7.09,7.09,0,0,1,2.65,1.35,2,2,0,0,1,1,1.41c0,.86-.59,1.24-2.37,1.35-3.19.32-3.51.43-7.08,2.59a62.77,62.77,0,0,0-9.23,6.86Z"/><path class="cls-1" d="M272.84,46.89c-2.91,0-4.51-4.83-4.51-13.59,0-6.33.71-10.51,3.19-18.65a9.54,9.54,0,0,0,.69-3.06c0-1.14-.54-1.95-2.62-3.92l-.28-.27.36-.15c1.49-.6,1.72-.66,2.15-.66,1.44,0,5,4.24,5,6,0,.46-.11.64-.68,1.64a36.68,36.68,0,0,0-3,7,27.92,27.92,0,0,0-1.93,10.67,9.67,9.67,0,0,0,.7,4.29c1.3-3.58,4.2-10.06,5.85-13.26l.1-.2,1.58.6-.09.24c-3.35,8.12-5.11,14.2-5.11,17.56a11.48,11.48,0,0,0,.11,1.51l.05.41c0,.28,0,.51.05.7,0,.35.06.61.06.89C274.5,46.05,273.89,46.89,272.84,46.89ZM270.22,7.57c1.83,1.77,2.49,2.68,2.49,4A10.16,10.16,0,0,1,272,14.8c-2.46,8.08-3.17,12.23-3.17,18.5,0,8.32,1.46,13.09,4,13.09,1,0,1.16-1,1.16-1.81,0-.26,0-.51-.06-.84s0-.43-.05-.7l-.05-.4a14.32,14.32,0,0,1-.11-1.57c0-3.44,1.69-9.34,5-17.51l-.69-.26a140.91,140.91,0,0,0-5.93,13.59l-.2.59-.26-.57a10.17,10.17,0,0,1-1-5.07,28.18,28.18,0,0,1,2-10.83,37.09,37.09,0,0,1,3-7.07c.59-1,.61-1.08.61-1.38,0-1.56-3.44-5.47-4.5-5.47C271.52,7.09,271.37,7.11,270.22,7.57Zm29,36c-6.37,0-11-1-13.44-2.86a8.67,8.67,0,0,1-3.55-7.16c0-2.3,1.18-6.57,2.3-6.57a.84.84,0,0,1,.84.79,1.54,1.54,0,0,1-.12.62,17.64,17.64,0,0,0-.63,4.19c0,3.07,1.74,5.07,5.33,6.13a25.55,25.55,0,0,0,6.95.69,63.45,63.45,0,0,0,7.95-.54l.41-.05a7.24,7.24,0,0,1,1.09-.11,2.61,2.61,0,0,1,2.73,2.46c0,.82-.62,1.46-1.69,1.75A39.88,39.88,0,0,1,299.25,43.59ZM284.56,27.5c-.5,0-1.8,3.37-1.8,6.07a8.21,8.21,0,0,0,3.36,6.77c2.33,1.8,6.87,2.75,13.13,2.75a40.19,40.19,0,0,0,8-.64c.49-.14,1.32-.48,1.32-1.27a2.11,2.11,0,0,0-2.23-2,7.61,7.61,0,0,0-1,.1l-.41.06a64.51,64.51,0,0,1-8,.54,25.63,25.63,0,0,1-7.1-.71c-3.77-1.11-5.68-3.34-5.68-6.61a18.38,18.38,0,0,1,.65-4.33,1.29,1.29,0,0,0,.1-.48A.34.34,0,0,0,284.56,27.5Zm2.25-2.66-.84-.92.11-.16a52.63,52.63,0,0,1,6.52-6.64,18.54,18.54,0,0,0,1.88-1.71,52.14,52.14,0,0,1-6,.64c-1.55,0-2.75-.49-4.74-1.94-.92-.63-1.39-1.28-1.39-1.93a1.64,1.64,0,0,1,.36-.84l.12-.18.2.1c3,1.41,3.76,1.65,5.45,1.65A52.11,52.11,0,0,0,300.89,11a3.44,3.44,0,0,1,1-.29,7.12,7.12,0,0,1,2.8,1.4,2.18,2.18,0,0,1,1.07,1.61c0,1.19-1,1.5-2.61,1.59-3.17.33-3.43.42-7,2.56a63,63,0,0,0-9.2,6.84Zm-.2-1,.24.27a62.81,62.81,0,0,1,9.08-6.73c3.59-2.17,3.92-2.29,7.18-2.62,2-.12,2.15-.57,2.15-1.1a1.72,1.72,0,0,0-.85-1.2,7.15,7.15,0,0,0-2.52-1.31,4.15,4.15,0,0,0-.83.26,51.78,51.78,0,0,1-12.56,2c-1.75,0-2.55-.23-5.47-1.61a.91.91,0,0,0-.16.38c0,.46.42,1,1.18,1.53,1.92,1.39,3,1.84,4.45,1.84a56.53,56.53,0,0,0,6.66-.75l.76-.12-1,1a21,21,0,0,1-1.95,1.79A52.43,52.43,0,0,0,286.61,23.88Z"/></g></g></svg>