<svg xmlns="http://www.w3.org/2000/svg" viewBox="0 0 309.36 51.24"><defs><style>.cls-1{fill:#fff;}</style></defs><g id="Layer_2" data-name="Layer 2"><g id="Layer_1-2" data-name="Layer 1"><path class="cls-1" d="M31.86,39.69a2.05,2.05,0,0,0-.39.06l-.35.06a47.74,47.74,0,0,1-11.47,1.12c-6.54,0-10.89-1-13.7-3.1a11.33,11.33,0,0,1-4.19-6.39v0a.89.89,0,0,0-.84-.74C0,30.67,0,31.79,0,32.77a11.54,11.54,0,0,0,4.34,8.39c3.36,2.86,8.75,4.25,16.5,4.25a91.84,91.84,0,0,0,11.3-.76c2.43-.42,2.79-1.57,2.79-2.21C34.93,41.21,33.24,39.69,31.86,39.69Z"/><path class="cls-1" d="M31.89,3.89l-.29,0L31.18,5l.29.15a15.2,15.2,0,0,1,5.45,5.45c.49,1,1,1.34,1.8,1.34A2,2,0,0,0,40.6,9.72C40.6,7,36.61,4.29,31.89,3.89Z"/><path class="cls-1" d="M27.54,6.16l-.27,0-.54,1.07.27.19a13.36,13.36,0,0,1,4.74,5.31c.68,1.37,1,1.88,2.06,1.88a1.93,1.93,0,0,0,2-2.15C35.8,9.71,32.09,6.9,27.54,6.16Z"/><path class="cls-1" d="M7.43,13A15.15,15.15,0,0,0,14,14.7c-1.67,1.06-8.66,5.59-8.66,7.17a.93.93,0,0,0,.8.86c.41,0,.64-.17,1.64-.89a43.91,43.91,0,0,1,9-5,23.77,23.77,0,0,1,6.54-1.7l2.55.05c.9,0,2-.65,2-1.45S25.45,10,24.46,10c-.07,0-.29,0-.93.37s-4.72.76-8.79.76a16.17,16.17,0,0,1-9.86-3L4.74,8a.6.6,0,0,0-.32-.11A1.22,1.22,0,0,0,3.46,9C3.46,10.05,5.55,12,7.43,13Z"/><path class="cls-1" d="M58.6,22.09c.5,2.95.83,4,2.52,4s2.54-1.25,2.54-3.24c0-2.64-1.55-5.09-4.75-7.49A12.69,12.69,0,0,0,54.15,13l-.37-.11-.31,1.26.19.15A12.37,12.37,0,0,1,58.6,22.09Z"/><path class="cls-1" d="M74.41,28.67H94.28a1.21,1.21,0,0,0,1.19-1.19A1.84,1.84,0,0,0,94.55,26L90,22.77,86.5,26.62H72.84V12.14H82L82,12.3a106,106,0,0,1-5.32,12.48,2.55,2.55,0,0,0-.31,1,.73.73,0,0,0,.75.7c.52,0,.87-.34,1.79-1.48,4.54-5.23,4.6-5.3,6.37-7.49L86.8,17a1.27,1.27,0,0,0,.89-1.21,1.56,1.56,0,0,0-.84-1.35l-4.22-2.33h9.55a1,1,0,0,0,1-1,1.74,1.74,0,0,0-.81-1.33L87.48,6.3,84.12,10H72.84V5.24l1.43-.81a1.68,1.68,0,0,0,1-1.41,1.59,1.59,0,0,0-1.42-1.51l-5.54-.46v9H59.56c-4.42,0-5.75,0-10.62-.32l-.58,0,1.07,2.74.26,0c4.47-.21,6-.27,9.87-.27h8.75V26.62H56.54c-3.21,0-5.3-.05-10.62-.32l-.57,0,1,2.68h.28c4.7-.22,6.46-.27,9.92-.27h8.15A51.68,51.68,0,0,1,46,48a1.16,1.16,0,0,0-.72,1,.89.89,0,0,0,.86.86c.84,0,4.44-2,7.44-3.89,5.37-3.51,9.68-7.6,14.7-14V48.65c0,1.22.09,2.16,1.24,2.16a6.48,6.48,0,0,0,2.09-.63A1.79,1.79,0,0,0,73,48.54V30.77c3.79,7.1,9.4,12.87,17.08,17.61l.33.2.2-.33c.86-1.48,2.49-2.67,5.27-3.84l.9-.39-.92-.31C86.47,40.49,78.9,35.16,74.41,28.67Z"/><path class="cls-1" d="M122.69,23.21c1.11,0,3.18-.62,3.18-1.51V20.14h13.4v1.29c0,.56,0,1.24.8,1.24,1.46,0,3.24-.92,3.24-2V8l.57-.23a1.25,1.25,0,0,0,.94-1.11,1.92,1.92,0,0,0-.72-1.36l-3.55-3.14-1.64,2.35H126.4l-4.58-2.41V22.51C121.82,22.85,122.05,23.21,122.69,23.21Zm3.18-16.63h13.4v4.65h-13.4Zm0,6.7h13.4v4.81h-13.4Z"/><path class="cls-1" d="M145.2,20.53l-2.93,3.61h-17.8c-.45,0-2.4-.06-5.13-.16-.47,0-1.64,0-3.07-.08l-1.76,0,1,2.56,8.21-.21a42.32,42.32,0,0,1-11.28,15.09c-.86.75-1.16,1-1.16,1.47a.84.84,0,0,0,.81.81c.74,0,2.08-.89,4.94-3.27a42.21,42.21,0,0,0,7.56-8h3a43.7,43.7,0,0,1-13.06,14.11c-1,.62-1.09.7-1.09,1.17a1,1,0,0,0,.86.92c.92,0,3.63-1.64,5.84-3.26,5.26-3.89,6.93-5.65,11.9-12.54l.32-.4h2.84a39.74,39.74,0,0,1-15.07,17.22.94.94,0,0,0-.64.82.86.86,0,0,0,.86.86,7.58,7.58,0,0,0,2.28-.91,38.1,38.1,0,0,0,8.95-6.44c3.41-3.41,5.28-6,8.27-11.55h3.65A39.25,39.25,0,0,1,141.82,41c-.91,3-1.69,3.46-3.1,3.46a14.43,14.43,0,0,1-2.15-.16l-4.07-.64-.37,1.56,4.24,1.8c.95.37.95.51.95.68a6.66,6.66,0,0,1,0,.86v.22c0,1.12.74,1.29,1.18,1.29a7.12,7.12,0,0,0,6.17-4.21,33.92,33.92,0,0,0,2-6.46l1-5.53.82-.37c.51-.28,1-.55,1-1.08a1.59,1.59,0,0,0-.56-1L145,27.83l-1.59,2.46H126l2.56-4.11h20.42a1,1,0,0,0,1.13-1,1.86,1.86,0,0,0-.57-1.21Z"/><path class="cls-1" d="M120.26,30.1l-7.84,1.72V17.44h7.67a1.1,1.1,0,0,0,1.19-1,2.05,2.05,0,0,0-.6-1.3l-3.59-3.41-3,3.63h-1.66V5.54l1-.63c.75-.43,1.16-.8,1.16-1.51,0-.36-.14-1.2-1.36-1.29l-5-.53v13.8l-8.55-.22,1,2.44,7.6-.16V32.63c-2.45.49-4,.76-8.37,1.39l-.61.09,3.27,4.61a1.26,1.26,0,0,0,1.06.64,1.44,1.44,0,0,0,1.37-1l.47-.95,15.09-5.67Z"/><path class="cls-1" d="M181.06,9.94a25.49,25.49,0,0,0-16.89,6.79,20.45,20.45,0,0,0-6.49,14.15,11.6,11.6,0,0,0,1.79,6.43A17.17,17.17,0,0,0,163,41c1.61,1.39,1.82,1.55,2.57,1.55,1.55,0,2.25-.72,4.2-3.57a88,88,0,0,0,8.73-17.63c1.59-4.33,1.66-4.43,2.19-5.21a1.11,1.11,0,0,0,.38-.75c0-.81-1-1.86-2.08-2.71a10.11,10.11,0,0,1,1.59-.1A14.79,14.79,0,0,1,190.7,16.1a12,12,0,0,1,4.62,9.55c0,6-3.17,10.88-8.92,13.81a53.28,53.28,0,0,1-7.67,3.11c-.63.19-1.18.36-1.18,1.06a.89.89,0,0,0,.92.91,13.39,13.39,0,0,0,2.35-.44,43.93,43.93,0,0,0,10.68-4c5.35-3,8.67-8.15,8.67-13.51C200.17,17.4,191.6,9.94,181.06,9.94Zm-6.84,11A64.27,64.27,0,0,1,168.1,35c-1.16,2-2.09,2.84-3,2.84-.6,0-1.26-.5-1.9-1.44a10,10,0,0,1-1.29-5.69,16.86,16.86,0,0,1,4.48-11.89h0a20,20,0,0,1,8.16-5.32,4.93,4.93,0,0,1,.64.27,1.15,1.15,0,0,1,.65,1A44.09,44.09,0,0,1,174.22,20.89Z"/><path class="cls-1" d="M227.21,14.62l-1.8,2.61h-7.86L213,14.7V49.14a1.37,1.37,0,0,0,1.4,1.4,5.65,5.65,0,0,0,1.76-.46,1.51,1.51,0,0,0,1.15-1.75V34h8.86v9.4c0,1.31,0,1.41-1.68,1.41h-.3l-4.93-.23v1.68l4,1.33c1.66.59,1.66.59,1.74,1.43,0,.69.14,1.4,1.19,1.4a4.5,4.5,0,0,0,4.26-4V20.71l.71-.29a1.2,1.2,0,0,0,.8-1.09,1.85,1.85,0,0,0-.73-1.43ZM226.15,32h-8.86V26.51h8.86Zm0-7.51h-8.86V19.27h8.86Z"/><path class="cls-1" d="M257.38,10.23l-4.91-4-3.75,4H239l3.54-4.87L243.81,5c.71-.22,1.18-.51,1.18-1.22a1.57,1.57,0,0,0-1-1.37L239.14,0l-.38,1.31c-1.26,4.33-1.54,5.31-2.88,9h-7a2.55,2.55,0,0,0,.38-1.35c0-3.64-4.49-7.37-9.61-8l-.32,0L219,2l.24.15a9.83,9.83,0,0,1,4.23,5.44c.26.64.48,1.29.69,1.92a6.32,6.32,0,0,0,.36.75h-6.22c-.56,0-1.47,0-2.69,0l-2.2-.06c-.49,0-1.33-.06-2.41-.09l-3.32-.12-.53,0,.84,2.67h.28c6.15-.12,8.41-.17,10-.22h38.4c.95,0,1.29-.58,1.29-1.08A1.37,1.37,0,0,0,257.38,10.23Z"/><path class="cls-1" d="M252.55,16.15l-5-.71V43.56c0,1,0,1-1.63,1l-5.83.12V46.3l5,1.26c.67.16.91.34,1,.47a7.82,7.82,0,0,1,.3,1.15q.31,1.14,1.23,1.14a5.25,5.25,0,0,0,2.55-1A3.92,3.92,0,0,0,252,45.79V19.49l1.17-.66c.56-.35,1-.67,1-1.28C254.12,16.57,253.29,16.29,252.55,16.15Z"/><path class="cls-1" d="M241.37,39.85V20.78l.91-.54A1.47,1.47,0,0,0,243.1,19c0-.32-.12-1.09-1.28-1.28l-4.71-.66V40.33a1.42,1.42,0,0,0,1.35,1.51,3.61,3.61,0,0,0,2-.63C241.22,40.83,241.37,40.6,241.37,39.85Z"/><path class="cls-1" d="M283.82,14.39c2,1.47,3.22,2,4.81,2a49.55,49.55,0,0,0,5.62-.58,19.9,19.9,0,0,1-1.6,1.44,51.79,51.79,0,0,0-6.55,6.66l-.16.24,1,1.08.27-.23a62.45,62.45,0,0,1,9.19-6.82c3.51-2.13,3.76-2.22,6.9-2.54,1.64-.1,2.73-.43,2.73-1.73a2.28,2.28,0,0,0-1.12-1.7A7.21,7.21,0,0,0,302,10.75a3.29,3.29,0,0,0-1,.29A51.78,51.78,0,0,1,288.63,13c-1.69,0-2.4-.22-5.4-1.64l-.3-.14-.18.27a1.79,1.79,0,0,0-.38.91C282.37,13.05,282.86,13.73,283.82,14.39Z"/><path class="cls-1" d="M277.76,23c-1.6,3.12-4.39,9.33-5.74,13a9.89,9.89,0,0,1-.57-3.94,27.73,27.73,0,0,1,1.93-10.63,34.93,34.93,0,0,1,3-7c.59-1,.7-1.21.7-1.7,0-1.82-3.6-6.1-5.13-6.1a5.64,5.64,0,0,0-2.19.68l-.54.22.42.4c2.05,1.94,2.58,2.73,2.58,3.83a9.5,9.5,0,0,1-.68,3c-2.49,8.15-3.2,12.34-3.2,18.69,0,9,1.6,13.71,4.64,13.71.53,0,1.78-.24,1.78-2.43,0-.28,0-.54-.06-.9,0-.19,0-.42-.05-.7l-.05-.41a11.46,11.46,0,0,1-.11-1.5c0-3.35,1.76-9.41,5.1-17.51l.14-.36-1.8-.69Z"/><path class="cls-1" d="M306.5,38.77a8.83,8.83,0,0,0-1.1.11l-.42.06a63.32,63.32,0,0,1-7.93.53,25.35,25.35,0,0,1-6.91-.68c-3.53-1-5.24-3-5.24-6a17.16,17.16,0,0,1,.63-4.14,1.73,1.73,0,0,0,.12-.66,1,1,0,0,0-1-.92c-1.3,0-2.42,4.49-2.42,6.7a8.8,8.8,0,0,0,3.6,7.26c2.44,1.89,7.12,2.89,13.51,2.89a40.06,40.06,0,0,0,8.2-.67c1.14-.31,1.79-1,1.79-1.87A2.74,2.74,0,0,0,306.5,38.77Z"/></g></g></svg>