<svg xmlns="http://www.w3.org/2000/svg" viewBox="0 0 159.37 33.19"><defs><style>.cls-1{fill:#333;}</style></defs><title>shop-information-title</title><g id="Layer_2" data-name="Layer 2"><g id="Layer_1-2" data-name="Layer 1"><path class="cls-1" d="M6.77,5.51h8.78V.68L18.5.94c.69,0,1,.25,1,.64s-.18.51-.64.83l-.76.47V5.51h9.61L30,3.1l3,2.26a.7.7,0,0,1,.29.51c0,.25-.21.5-.39.5H6.55c-.11,11.27-.14,12.06-.5,14.47a19.8,19.8,0,0,1-4.39,9.65C1,31.32.54,31.68.25,31.68A.24.24,0,0,1,0,31.46a1.7,1.7,0,0,1,.29-.76C2.92,26.6,4,21.42,4,13.25c0-1.08,0-1.08-.18-9.61ZM13.28,20.3H17V7.45l3.21.33c.43.07.75.28.75.57s-.07.32-.64.79l-.83.72v3.82h6.87l1.87-2.16L31,13.61a.66.66,0,0,1,.28.54c0,.25-.14.39-.43.39H19.44V20.3h6l1.12-1.58L28.83,21a.8.8,0,0,1,.33.58.58.58,0,0,1-.33.43l-.43.21v9.4c0,.25-.14.43-.58.65a4,4,0,0,1-1.33.43c-.32,0-.57-.18-.57-.4V30.16H12.63l0,1.62a.9.9,0,0,1-.61.9,2.77,2.77,0,0,1-1.16.36.53.53,0,0,1-.57-.54V18.72Zm12.64,9V21.17H12.63V29.3Z"/><path class="cls-1" d="M64.65,7.63V.72l2.7.25c.61,0,1,.33,1,.72a1,1,0,0,1-.61.79L66.85,3V7.63h4.5l1.87-2.16,2.27,2.09a.9.9,0,0,1,.32.57.39.39,0,0,1-.43.37H66.85v3.7h4l1.08-1.44,1.91,1.66a1.16,1.16,0,0,1,.47.79.75.75,0,0,1-.54.65l-.54.21V28.76c0,1.87-.18,2.41-.94,3.1a3.49,3.49,0,0,1-1.72.79c-.29,0-.44-.18-.51-.61-.11-.76-.18-.94-.65-1.16L67.53,30v-.54l1.73.07h.18c1.08,0,1.62-.32,1.62-.93V23H66.85v8.5a.72.72,0,0,1-.22.61,3.47,3.47,0,0,1-1.55.54c-.28,0-.43-.21-.43-.57V23h-4v8.9a.74.74,0,0,1-.18.54,3.35,3.35,0,0,1-1.44.5.41.41,0,0,1-.43-.4v-22l3,1.69h3.13V8.5h-7.3c-.11.68-.47,1-1,1s-.69-.22-1.08-.79C53.31,6,52.59,5.26,50.54,3.92a37.81,37.81,0,0,1-5,6.09,15.22,15.22,0,0,1-3.5,2.73.31.31,0,0,1-.28-.32c0-.22.14-.4.68-.94A35.45,35.45,0,0,0,49.71,0l2.42,1.3c.43.25.57.39.57.61a.63.63,0,0,1-.39.54l-1.19.39L51,3.17c3.75,1.11,5.84,2.59,6.38,4.46ZM48.74,13.71c-2.08,0-2.41,0-4.68.11l-.43-1.11c2.52.1,2.92.14,5.11.14V8.28l3,.5a.62.62,0,0,1,.54.58c0,.25-.18.43-.54.61l-.9.43v2.45h1.94l1.48-1.69,2.12,1.62c.26.18.36.32.36.5a.38.38,0,0,1-.43.43H50.83v4h2.66l1.73-1.94,2.23,1.72a.94.94,0,0,1,.44.69c0,.21-.26.39-.51.39H46.8c-.07,0-1.08,0-2,0l-2.34.07L42,17.57l2.66.1c1,0,1.94,0,2.16,0h1.94Zm-1.22,8.1h5l1-1.26,2,1.73c.28.29.39.43.39.58a.58.58,0,0,1-.36.43l-.72.43v7.74c0,.5-.86,1-1.62,1-.36,0-.5-.18-.5-.54V29.88H47v2.05c0,.47-.83,1-1.62,1a.45.45,0,0,1-.5-.44V20.34ZM52.74,29V22.68H47V29ZM64.65,17.17v-4.1h-4v4.1Zm0,4.93V18h-4V22.1Zm6.41-4.93v-4.1H66.85v4.1Zm0,4.93V18H66.85V22.1ZM68.61,2.45A4.94,4.94,0,0,1,71,3,2.48,2.48,0,0,1,72.54,5a1.32,1.32,0,0,1-1.26,1.33,1.1,1.1,0,0,1-.69-.25c-.07-.11-.07-.11-.83-1.87a4,4,0,0,0-1.15-1.37Z"/><path class="cls-1" d="M87.37,7.42a14.47,14.47,0,0,1,.61,4c0,2.66-1.33,5.22-2.73,5.22A1.33,1.33,0,0,1,84,15.48a2.28,2.28,0,0,1,.54-1.26c1.69-2.45,2.31-4,2.31-5.83a8.17,8.17,0,0,0,0-.87ZM92,.83c.71.07,1,.29,1,.83,0,.25-.18.46-.54.68l-1,.5V6.91A8.35,8.35,0,0,1,95,8.64a3.29,3.29,0,0,1,1.19,2.19A1.29,1.29,0,0,1,95,12.06c-.57,0-.57,0-1.65-2.2a5.81,5.81,0,0,0-1.8-2.12V32c0,.43-.18.57-.76.79a4.64,4.64,0,0,1-1,.21.46.46,0,0,1-.5-.39V.65Zm1.62,11.91c3.41.07,4.85.11,6.11.15h3.78V9.68h-2.19c-1.15,0-2.13,0-4.39.11l-.44-1.12,2.63.11c1,0,1.91,0,2.2,0h2.19V5.65h-3.6c-.46,0-1.22,0-2.16,0l-2.33.07L94.9,4.64l2.91.11c.94,0,1.76,0,2.12,0h3.6V.5l2.85.22c.5,0,.79.29.79.72,0,.25-.15.43-.5.61l-.87.51V4.79h5l2-2.23,2.59,2a.89.89,0,0,1,.43.68c0,.29-.14.43-.46.43H105.8V8.82h3.89l1.8-1.77,2,1.45a1.17,1.17,0,0,1,.54.75.45.45,0,0,1-.43.43H105.8v3.21H112l2.23-2.2,2.7,2.05a.7.7,0,0,1,.29.54.43.43,0,0,1-.43.47h-17c-.82,0-1.8,0-2.91,0l-2.74.1Zm6.62,3.75h9.57l.87-1.44L113,17.21a.75.75,0,0,1,.25.5.53.53,0,0,1-.43.47l-.65.21V30.7c0,.76-.29,1.16-1.33,1.88a2.83,2.83,0,0,1-1.26.46c-.33,0-.4-.1-.54-1.15,0-.36-.15-.47-.69-.65l-3-1v-.51h3.45c1,0,1.12-.07,1.15-.75V25.52H99.57V32c0,.58-.79,1.19-1.58,1.19-.32,0-.58-.15-.58-.33V15.05Zm9.75,4.1V17.35H99.57v3.24Zm0,4.07V21.45H99.57v3.21Z"/><path class="cls-1" d="M133.6,7.31h-2.13c-.93,0-1,0-4.64.11L126.5,6.3c2.92.14,3.89.14,5,.14h2.13V.65l2.62.18c.65,0,1.05.32,1.05.72a1,1,0,0,1-.69.9l-.75.32V6.44h3l1.8-2.08,2.16,1.58a1.21,1.21,0,0,1,.65.9c0,.25-.29.47-.65.47h-7V11.7h3.81l1.8-2,2.34,1.77a.85.85,0,0,1,.43.68.42.42,0,0,1-.46.43H139.1l1.15.76a.66.66,0,0,1,.36.5.69.69,0,0,1-.36.51l-.68.39-2.34,4.21h2.48l1.84-2.08,2.38,1.83a.71.71,0,0,1,.36.61.49.49,0,0,1-.47.51H135.9v4.64H139l1.88-2.09L143,24c.36.25.5.47.5.75a.61.61,0,0,1-.65.54h-7v6.77c0,.54-.79,1-1.69,1a.55.55,0,0,1-.54-.62V25.3h-2.16s-1.16,0-2.2,0c-.39,0-1.19,0-2.41.07l-.29-1.11,2.7.07c.94,0,1.69.07,2.2.07h2.16V19.8H131c-1,0-1.94,0-4.53.11L126,18.83c2.45.1,2.81.1,5,.1-.07-.28-.14-.5-.14-.54l-.07-2.05a5.87,5.87,0,0,0-1.7-3.78l-2.91.07-.36-1.08c2.52.11,3.56.15,4.82.15h3Zm2.51,11.62a35.12,35.12,0,0,0,1.48-6.37h-7.78c2.31,1.3,3.53,2.92,3.53,4.65a3.24,3.24,0,0,1-.54,1.72ZM147.6,3.71h6l1.19-1.41,1.69,1.55c.51.47.79.83.79,1.08s-.28.43-.61.58l-.54.25v6.59c0,1.18-.18,1.54-1,2.05a3.32,3.32,0,0,1-1.48.54c-.25,0-.32-.15-.39-.61s-.11-.62-1-.9l-2.44-.76.18-.58,2.16.11h.43c1.15,0,1.37-.18,1.37-1.22V4.57h-6.7V16.23h7.2l1-1.29,2.05,2c.25.26.32.4.32.54s-.14.36-.43.47l-.86.33a33.1,33.1,0,0,1-3,7.23,20,20,0,0,0,5.91,4A7.48,7.48,0,0,0,157,32a27.22,27.22,0,0,1-4.72-4.75A20.1,20.1,0,0,1,148.82,31c-.43.43-.61.54-.76.54a.26.26,0,0,1-.28-.25c0-.18,0-.18.61-.94A24.1,24.1,0,0,0,151.31,26a21.86,21.86,0,0,1-3.21-8.85h-.9V31.82c0,.68-.61,1.15-1.55,1.15-.39,0-.57-.18-.57-.61V2.52ZM149,17.1c.83,3.31,1.8,5.43,3.2,7a37.8,37.8,0,0,0,2.13-7Z"/></g></g></svg>