<svg xmlns="http://www.w3.org/2000/svg" viewBox="0 0 582.07 119.15"><defs><style>.cls-1{fill:#343434;}</style></defs><title>content-title</title><g id="Layer_2" data-name="Layer 2"><g id="Layer_1-2" data-name="Layer 1"><path class="cls-1" d="M73.87,26.41c3.13,2.48,4.81,5.07,4.81,7.45a2.59,2.59,0,0,1-2.38,2.81c-1.08,0-1.78-.71-2.48-2.54-2-5.35-6.37-10.1-11.23-12.1A44.35,44.35,0,0,1,46.44,35.75c-2.75,1.4-6.26,2.81-7.13,2.81-.38,0-.81-.33-.81-.65s.16-.33,1-.65c5.18-2,11.93-7,16.74-12.42a51.15,51.15,0,0,0,7.56-11.56c1.4-2.86,1.94-4.26,1.94-4.91,0-.49-.38-.81-1-.81C62.91,7.56,56.86,9.18,52,11c-.92.38-1,.38-1.19.38-.49,0-.54,0-2.27-1.3a2.63,2.63,0,0,1-1.4-2.59c0-1,.16-1.46.54-1.46.11,0,.21.11.27.27.32.81,1.94,1.41,3.83,1.41A88,88,0,0,0,62.15,6.05a11.41,11.41,0,0,0,4.32-1.78,1.48,1.48,0,0,1,.87-.33c.54,0,1.19.38,3.24,1.95C72,7,72.31,7.29,72.31,7.72c0,.22-.17.38-.65.7-.33.22-.54.38-1.14.81a76.42,76.42,0,0,1-7.23,11.88A24.84,24.84,0,0,1,73.87,26.41Z"/><path class="cls-1" d="M124.52,23.22a46.57,46.57,0,0,1-5,3.24c2.91,2.54,4.64,5.24,4.64,7.34A2.07,2.07,0,0,1,122,35.64c-1.08,0-1.52-.43-2.43-2.48a23.73,23.73,0,0,0-10.64-10.8c-.33-.17-.49-.27-.49-.44a.54.54,0,0,1,.54-.43,23.34,23.34,0,0,1,4.59,1.41,26.54,26.54,0,0,1,5.08,2.7C124,21.33,129.49,15.44,129.49,14c0-1-1.24-1.4-3.78-1.4a95.41,95.41,0,0,0-14.42,1.89,63.58,63.58,0,0,0-9.07,2.64,3.51,3.51,0,0,1-1.08.27,6.57,6.57,0,0,1-3.72-1.83,5.79,5.79,0,0,1-1.3-3.73c0-.59.16-1,.43-1q.17,0,.33.33c.54,1.19,2.21,2,4.05,2,2.48,0,7.66-.54,16.79-1.73s9.61-1.14,11.61-1.73a7.34,7.34,0,0,1,2.16-.49c1.08,0,2.11.54,5.35,2.92,1,.81,1.45,1.35,1.45,2s-.37,1.08-1.56,1.3a10.4,10.4,0,0,0-3.51,1.56c-.6.38-.7.44-3.19,2.27Z"/><path class="cls-1" d="M161.78,24.52a11,11,0,0,1-2.48.37c-1.57,0-4.32-1.67-4.75-2.91a15.61,15.61,0,0,1-.38-3c0-.37.16-.64.43-.64s.27.1.43.37c.71,1.57,2,2.11,5.13,2.11a253.3,253.3,0,0,0,31.22-2.21,12.58,12.58,0,0,1,1.45-.11,3.65,3.65,0,0,1,2.87,1.19c1,1,1.4,1.51,1.4,2,0,.81-1.08,1.3-2.81,1.3-.43,0-1,0-2-.05-1.18-.11-5.56-.17-7.83-.17C177,22.73,166,23.6,161.78,24.52Z"/><path class="cls-1" d="M229.77,17.39c0,9.66.16,14.79.43,18.41.11,1.14.16,2,.16,2.43,0,2.27-.81,3.94-1.94,3.94s-2.86-2.43-2.86-3.78a7.3,7.3,0,0,1,.16-1.4c.43-3,.86-15,.86-25.76,0-5.07-.21-6.91-.86-8a2.7,2.7,0,0,0-2.59-1.35c-.38,0-.54-.16-.54-.49s.16-.37.48-.54a15.32,15.32,0,0,1,3.3-.86c.81,0,1.56.38,3.94,1.89.7.49,1,.86,1,1.24a3,3,0,0,1-.27,1c-.87,1.46-1.19,4-1.3,10a23.07,23.07,0,0,1,11.34,3.51c2.92,2,4.27,3.73,4.27,5.46a2.21,2.21,0,0,1-2.27,2.37c-1.19,0-1.78-.48-3.13-2.54a19.41,19.41,0,0,0-10.21-7.93Z"/><path class="cls-1" d="M302.56,27.43A17.9,17.9,0,0,1,306,27c1.14,0,2.49.49,4.65,1.67a2.5,2.5,0,0,1,1.46,2.06,1.39,1.39,0,0,1-1.35,1.4,6.49,6.49,0,0,1-1.35-.27c-2.38-.65-8.75-1.19-13.83-1.19a67.91,67.91,0,0,0-13.39,1.14,35.16,35.16,0,0,0-7.51,1.67c-1.89.65-2,.7-2.59.7s-1.73-.54-3.89-2.1c-1.08-.76-1.51-1.35-1.51-2s.43-1.57.65-1.57.16.06.22.22c.43.86,2.26,1.35,5,1.35,2.06,0,8.7-.43,14.64-1,.21-3.78.43-9.4.43-11.94,0-2.1-.59-3.24-1.89-3.72a44.09,44.09,0,0,0-7.34,1.35,6.38,6.38,0,0,1-1.68.27,3.21,3.21,0,0,1-2.91-2.16,6.4,6.4,0,0,1-.6-2.27c0-.22.11-.38.27-.38a.39.39,0,0,1,.33.22,5,5,0,0,0,3.51,1.45c.59,0,.59,0,4.32-.32,8.8-.7,12.79-1.35,15.82-2.7.81-.38.86-.43,1.35-.43.81,0,1.89.48,3.56,1.62.87.59,1.24,1.13,1.24,1.78a1,1,0,0,1-.91,1.08,9.35,9.35,0,0,1-1-.11c-.54,0-2.32-.16-3.51-.16-1.84,0-5.35.16-9.23.49.27.16.64.37,1,.54a13.62,13.62,0,0,1,1.29.7c.76.38,1.08.81,1.08,1.29a3,3,0,0,1-.37,1.3c-.71,1.73-.81,2.86-1.25,11.77C293.17,28.62,297,28.19,302.56,27.43Z"/><path class="cls-1" d="M343.39,12.91a2.26,2.26,0,0,1-2.49,2.32c-.7,0-1.08-.27-1.62-1.24A11.9,11.9,0,0,0,331,7.34c-.33-.1-.49-.21-.49-.37,0-.38,1-.65,2.54-.65C338.2,6.32,343.39,9.61,343.39,12.91Zm-7,24c-.81,0-2.6-1.29-3.89-2.81a4,4,0,0,1-1.35-3.4c0-1,.27-1.83.65-1.83.21,0,.32.1.43.37A3.81,3.81,0,0,0,335.45,32c2.21,0,8.75-4,16.58-10.26a106.45,106.45,0,0,0,10.09-9c1.08-1.08,4-4.43,4.54-5.08s.65-.86.92-.86a.44.44,0,0,1,.43.49c0,.86-2.38,4.53-5.08,7.83a84,84,0,0,1-11.55,11.66,82.88,82.88,0,0,1-12.85,8.86C337.5,36.5,336.91,36.88,336.37,36.88Z"/><path class="cls-1" d="M401.49,17.39c.05,9.66.16,14.79.43,18.41.11,1.14.16,2,.16,2.43,0,2.27-.81,3.94-1.94,3.94s-2.86-2.43-2.86-3.78a7.3,7.3,0,0,1,.16-1.4c.43-3,.86-15,.86-25.76,0-5.07-.21-6.91-.86-8a2.7,2.7,0,0,0-2.59-1.35c-.38,0-.54-.16-.54-.49s.16-.37.48-.54a15.32,15.32,0,0,1,3.3-.86c.81,0,1.56.38,3.94,1.89.7.49,1,.86,1,1.24a3,3,0,0,1-.27,1c-.87,1.46-1.19,4-1.3,10a23.07,23.07,0,0,1,11.34,3.51c2.92,2,4.27,3.73,4.27,5.46a2.21,2.21,0,0,1-2.27,2.37c-1.19,0-1.78-.48-3.13-2.54a19.41,19.41,0,0,0-10.21-7.93Z"/><path class="cls-1" d="M449,6.21a.35.35,0,0,1-.27-.32c0-.33,2.27-1.35,3.13-1.35.49,0,1.14.27,2.81,1.18,1.46.76,1.78,1.08,1.78,1.57a3.49,3.49,0,0,1-.11.65,28.84,28.84,0,0,0-.43,6.21c0,.92.06,2.16.11,3.78.05,1.19.11,2.43.11,2.48a10.5,10.5,0,0,0,.11,1.95,4.14,4.14,0,0,1,.05.7,1.25,1.25,0,0,1-1.13,1.29c-1.3,0-3-1.51-3-2.59a1.85,1.85,0,0,1,.06-.54,58.94,58.94,0,0,0,.27-6.91c0-4.43-.11-5.94-.6-6.75a2.51,2.51,0,0,0-2.37-1.4.76.76,0,0,0-.33,0Zm15.44-2.38a.24.24,0,0,1-.16.06.52.52,0,0,1-.43-.49c0-.48,2.32-1.56,3.4-1.56,1.57,0,5.08,2.32,5.08,3.34,0,.22-.06.38-.38.92-.43.81-.54,1-.65,1.19s-.05.65-.11,2c0,4.32-.27,11.18-.54,13-1.08,7.67-6.15,13.55-14.36,16.63-3.51,1.35-5.51,1.94-6.26,1.94-.38,0-.87-.27-.87-.54s.16-.21.7-.37a30.18,30.18,0,0,0,10.59-6c5.78-5.88,7-9.77,7-23.33l.06-2.26c0-2.7-1.08-4.49-2.76-4.49Z"/><path class="cls-1" d="M505.22,24.52a11,11,0,0,1-2.48.37c-1.57,0-4.32-1.67-4.75-2.91a15.61,15.61,0,0,1-.38-3c0-.37.16-.64.43-.64s.27.1.43.37c.71,1.57,2,2.11,5.13,2.11a253.3,253.3,0,0,0,31.22-2.21,12.58,12.58,0,0,1,1.45-.11,3.65,3.65,0,0,1,2.87,1.19c1,1,1.4,1.51,1.4,2,0,.81-1.08,1.3-2.81,1.3-.43,0-1,0-2-.05-1.18-.11-5.56-.17-7.83-.17C520.45,22.73,509.44,23.6,505.22,24.52Z"/><path class="cls-1" d="M13.18,71.19a29.89,29.89,0,0,0-6.7,9.56A33.49,33.49,0,0,0,7,108.89a29.21,29.21,0,0,0,6.21,8.53l-1.08,1.29A27,27,0,0,1,4,109.8a32,32,0,0,1,.54-31.91,27.15,27.15,0,0,1,7.56-8Z"/><path class="cls-1" d="M46.28,88a50.27,50.27,0,0,1-.38-6.75L46,80,46,77.35H39.37c-1.89.05-3.51.11-6.59.16l-.6-1.67c1.89,0,3.14.1,3.89.1,1.57.06,2.7.11,3.3.11h5.34l2.81-3.4,3.29,2.86c.6.49.81.87.81,1.25s-.32.86-1,1.13l-1.89.76a29.41,29.41,0,0,0-.43,5c0,8.58,3,15.82,8.75,21,3.56,3.24,7.72,5.73,13.82,8.21a22.43,22.43,0,0,0-3.29,1.73A14.1,14.1,0,0,0,66,116.07c-.16.21-.43.48-.75.81q-16.2-9.55-18.58-26.57a41.16,41.16,0,0,1-6.1,13,39.07,39.07,0,0,1-13.72,12.26A16.05,16.05,0,0,1,22,117.36a.38.38,0,0,1-.43-.37c0-.33,0-.33,1.89-1.41A41.75,41.75,0,0,0,42.77,86.37Z"/><path class="cls-1" d="M78.73,102.62c4.43-.65,6-.92,8.7-1.46V85.29l-7.73.16-.64-1.68,8.37.22V70.22l4.59.49c.7.05,1,.38,1,.92s-.21.75-1,1.18l-1.13.76V84h2.21L96,80.53l3.3,3.14a1.64,1.64,0,0,1,.48,1c0,.33-.38.6-.81.6h-8v15.23l7.88-1.73.11,1-15,5.62-.54,1.08a1.09,1.09,0,0,1-1,.75c-.27,0-.48-.11-.75-.48Zm15.93-8.37L94,92.47c1.94,0,3.67.11,4.27.11,2.8.11,4.69.16,5.13.16h18l2.81-3.46,4,3.19a1.44,1.44,0,0,1,.43.92c0,.43-.27.65-.75.65H107.19l-3,4.86h18.36L124,96.63l3.62,3.24a1.23,1.23,0,0,1,.43.75c0,.27-.21.44-.81.76l-1,.43-1.08,5.73a33.53,33.53,0,0,1-2,6.37,6.69,6.69,0,0,1-5.83,4c-.54,0-.81-.27-.81-.91v-.22a5.36,5.36,0,0,0,.06-.86c0-.44-.22-.65-1.19-1l-3.94-1.67.21-.92,3.73.59a15.44,15.44,0,0,0,2.21.16c1.78,0,2.59-.91,3.46-3.72a38.55,38.55,0,0,0,1.67-9.13h-4.26c-3,5.62-4.86,8.21-8.32,11.67a37.92,37.92,0,0,1-8.86,6.37,8.35,8.35,0,0,1-2.1.86.48.48,0,0,1-.49-.48c0-.17.11-.33.43-.49a40.13,40.13,0,0,0,15.5-17.93H111l-.43.54c-5,7-6.64,8.64-11.82,12.48-2.43,1.78-4.92,3.18-5.62,3.18a.58.58,0,0,1-.49-.54c0-.27,0-.27.92-.86a43.88,43.88,0,0,0,13.5-14.8H103.3a42.14,42.14,0,0,1-7.61,8c-2.59,2.16-4,3.18-4.7,3.18a.45.45,0,0,1-.43-.43c0-.27.21-.48,1-1.19A42.62,42.62,0,0,0,103.19,94Zm10.53-21.11H118L119.5,71l3.24,2.86a1.58,1.58,0,0,1,.6,1.08c0,.32-.27.59-.71.76l-.81.32V88.9c0,.76-1.51,1.62-2.86,1.62-.38,0-.43-.16-.43-.86V88H104.38v1.94c0,.49-1.62,1.13-2.81,1.13-.32,0-.48-.1-.48-.32V71Zm13.34,6.69v-5.4H104.38v5.4Zm0,6.86V81.13H104.38v5.56Z"/><path class="cls-1" d="M142.18,88.53V90.9c0,.6-.86,1.08-2,1.08a.88.88,0,0,1-.86-.75v-11l3.19,1.62h4.75V78.16h-4.11c-1.08,0-1.35,0-6.58.16l-.6-1.67c5.62.21,5.62.21,7.18.21h4.11V70.33l3.89.22c.81,0,1.29.37,1.29.86s-.21.65-.86,1.13l-1.24.92v3.4h5.94l2.48-3L162,76.16c.54.43.81.81.81,1.19a.84.84,0,0,1-.86.81H150.34v3.73h5L156.71,80l2.37,1.89c.65.54.92,1,.92,1.4s-.27.59-.7.7l-.81.22V90c0,.81-1,1.46-2.16,1.46-.59,0-.86-.27-.86-.92v-2h-5.13v3.13c6.37,1.24,9.28,2.86,9.28,5.18a1.41,1.41,0,0,1-1.51,1.57c-.92,0-1.46-.38-3-2.11a13.12,13.12,0,0,0-4.8-3.51v6.32c0,.76-.92,1.24-2.27,1.24a.78.78,0,0,1-.81-.86v-6.7A33.43,33.43,0,0,1,140,98.63c-2.32,1.45-3.35,2-3.73,2a.47.47,0,0,1-.43-.48c0-.16.11-.33.43-.54a37.51,37.51,0,0,0,10.53-11.07Zm6.48,17,4.38.32c.75.06,1.24.43,1.24,1,0,.38-.16.6-.76,1l-1.46.91v6.86h8.54v-13H149.42c-.65,0-2,.05-4.16.11-.7,0-2.54,0-4.64.1l-.54-1.78c2.32.06,4.37.11,5.18.16,2.05.06,3.51.11,4.16.11H174.1l3-3.24L180.9,101a1.39,1.39,0,0,1,.65,1,.7.7,0,0,1-.65.6H164.05v6.1h8.75l2.92-3.13,3.45,2.64c.65.54.81.76.81,1.08a.65.65,0,0,1-.7.71H164.05v5.61h13.66l3.46-3.67,4,3.13c.54.38.7.65.7,1a.72.72,0,0,1-.7.81H145.58c-.59,0-1.51.05-8.69.21l-.65-1.78c2.32.06,4.21.11,5,.16,2.11.06,3.62.11,4.37.11h3.08Zm-1.4-18.31v-4h-5.08v4Zm8.21,0v-4h-5.13v4Zm15.93-16a1.35,1.35,0,0,1,1,1.19,1.17,1.17,0,0,1-.81,1l-1.57.37a41.1,41.1,0,0,1-2.59,5.35h10.75l3-3.35,3.94,3a1.1,1.1,0,0,1,.48.86c0,.49-.32.76-.86.76h-5.62a32.62,32.62,0,0,1-4.91,10.2,34.94,34.94,0,0,0,12,5.3,12,12,0,0,0-2,1.56c-.76.76-.76.76-1.68,1.78a35.72,35.72,0,0,1-10.31-6.69,29,29,0,0,1-9.45,6.26,17.64,17.64,0,0,1-4.11,1.46c-.27,0-.48-.16-.48-.38s0-.32,2.05-1.29a29.75,29.75,0,0,0,10-8.11c-3.08-4-3.56-4.8-4.91-8-2.7,3.62-5,6.16-5.62,6.16a.37.37,0,0,1-.38-.38c0-.27,0-.27.6-1,3.61-5.08,5.72-9.89,7.56-17.72Zm-4.76,9.24-.75,1.18a27.73,27.73,0,0,0,5.72,6.92,24.11,24.11,0,0,0,3.46-8.1Z"/><path class="cls-1" d="M209.52,71.9l3.29,2.53c.54.43.76.76.76,1.14a.71.71,0,0,1-.65.7h-8.53V89h1.73l2.59-2.8,3.78,3.07a.68.68,0,0,1,.27.54.43.43,0,0,1-.49.49h-7.88v13.18c4.7-1.14,5.56-1.35,11.12-2.87l.33.81c-7,3.14-11,4.76-17.66,7.24l-.54,1.51a1,1,0,0,1-.81.7,1.19,1.19,0,0,1-.92-.54l-3-4.37c3.72-.65,4.32-.81,8-1.67v-14c-3.19,0-3.67,0-6.8.16l-.71-1.62c3.51.11,4,.16,7.51.16V76.27c-3.29,0-3.83,0-7.07.16l-.87-1.62c4.27.11,6,.16,8.1.16h5.67Zm16.15,32.67h-5c-1.24,0-1.56,0-6.1.16l-1-1.68c5.5.22,5.5.22,7.12.22h5v-8.1h-7.4v2.92c0,.54-1.46,1.35-2.54,1.35a.75.75,0,0,1-.76-.76V71.19l4,2.33h16.9l1.84-2.22,2.91,2.32c.71.54,1,1,1,1.46a1.16,1.16,0,0,1-.86,1l-1.08.43V96.57c0,.71-1.25,1.41-2.6,1.41-.48,0-.64-.22-.64-1V95.17H229v8.1h5.13l3.14-3.08,3.24,2.65a1.49,1.49,0,0,1,.7,1.13c0,.38-.27.6-.7.6H229v9.5h6.48l3.14-3.51,4.48,3.51a1,1,0,0,1,.48.76c0,.32-.32.54-.81.54H218.59c-2.64,0-4.48,0-8.37.21l-1-1.78c4.37.22,6,.27,9.34.27h7.08Zm0-20.85V74.81h-7.4v8.91Zm0,10.15V85h-7.4v8.85Zm10.8-10.15V74.81H229v8.91Zm0,10.15V85H229v8.85Z"/><path class="cls-1" d="M254,84.15c5.34.22,7.29.27,9.34.27H269a57,57,0,0,0,4.16-14.9l4.38,1.35a1.17,1.17,0,0,1,.91,1,1.36,1.36,0,0,1-.81,1l-1.51.59a101.37,101.37,0,0,1-3.56,11h16.09l3-3.24,3.94,3.19a.94.94,0,0,1,.27.7c0,.33-.21.65-.38.65H279.07a20.24,20.24,0,0,0,4.27,5.51H292l3.35-3.4,3.94,3.29a.73.73,0,0,1,.21.59c0,.54-.21.81-.54.81h-14.2c3.57,3.51,9,6.54,16.47,9.08a18.26,18.26,0,0,0-3.18,1.67c-.49.43-1.14,1-1.89,1.67-7.24-4.32-10.16-6.8-14.42-12.42H268.6a23.93,23.93,0,0,1-2.81,3.84c-.65.81-1.46,1.78-2.38,2.86h18.52l1.41-2,3.4,3.29a.9.9,0,0,1,.27.65.65.65,0,0,1-.32.59l-1.14.54c-.7,7.67-1.4,10.91-3,13.45a6.09,6.09,0,0,1-4.27,2.65c-.54,0-1-.27-1-.54l.1-1.35c0-.11-.27-.33-.43-.38l-5.67-2,.11-.65,5.78.27a4.14,4.14,0,0,0,.7,0c1.67,0,2.11-.32,2.75-2,1-2.86,1.19-4.32,1.68-11.07h-8.75c-2.32,8.53-3.94,11.56-7.88,14.42-2.33,1.67-7.51,4.16-8.7,4.16a.44.44,0,0,1-.48-.44c0-.37,0-.37,2.37-1.56,6.43-4.05,9.51-8.75,10.86-16.58h-7.51c-4.37,3.56-4.59,3.73-6.91,5.18-1.95,1.25-2.59,1.57-2.86,1.57a.59.59,0,0,1-.54-.59c0-.27.32-.54,1.35-1.25a44.66,44.66,0,0,0,11.93-13h-4.7c-1.73,0-1.78,0-8.8.22L251.1,91c5,.21,7,.27,9.34.27h5.4c1.3-2.65,1.46-3,2.54-5.51h-5l-4.21.11c-.54,0-2.16,0-4.54.11Zm4-11.71c4.64,1.18,7.88,4.26,7.88,7.5a2,2,0,0,1-2.05,2.27,1.72,1.72,0,0,1-1.41-.6c-.27-.26-.27-.26-1.13-3.29A9.89,9.89,0,0,0,257.85,73ZM280.8,91.23a31.9,31.9,0,0,1-3-5.51H272a60.17,60.17,0,0,1-2.7,5.51Zm-1.57-8.54A97.94,97.94,0,0,0,285.88,72l3.51,2.43a1.22,1.22,0,0,1,.64,1c0,.49-.32.82-.91,1l-1.52.32-7.66,6.53Z"/><path class="cls-1" d="M309.47,69.9a27.31,27.31,0,0,1,8.16,8.91,30.14,30.14,0,0,1,4,15.5,30.53,30.53,0,0,1-4.53,16.41,27.55,27.55,0,0,1-7.62,8l-1.08-1.29a28.62,28.62,0,0,0,6.7-9.56A32.23,32.23,0,0,0,318,94.31a32.87,32.87,0,0,0-3.35-14.58,29.41,29.41,0,0,0-6.27-8.54Z"/><path class="cls-1" d="M378.48,100.68c2.06-5.51,2.06-5.51,2.38-5.51a.51.51,0,0,1,.43.49.86.86,0,0,1-.05.32,45.77,45.77,0,0,0-1.4,4.54,43,43,0,0,0-1.46,9.45,7.35,7.35,0,0,0,.64,3.13,2.71,2.71,0,0,1,.22,1,1.84,1.84,0,0,1-1.67,2c-3.08,0-6.05-7.18-6.05-14.69,0-3.56.49-6.64,2.43-15a27.72,27.72,0,0,0,1-6.37c0-2.16-.6-3.78-1.73-4.59-.16-.16-.22-.22-.22-.32s.11-.17.32-.17a5.85,5.85,0,0,1,3.25,1.46,6.17,6.17,0,0,1,2.53,5.13c0,1.78-.16,2.27-2.43,8-2,5.08-2.7,8-2.7,11.61s.65,6.16,1.57,6.16c.54,0,.86-.38,1.24-1.62Zm10.59-1.89a.19.19,0,0,1-.05.11,11.41,11.41,0,0,0-.17,1.72c0,4.59,3.3,6.86,9.89,6.86a31.41,31.41,0,0,0,7.56-1,6.9,6.9,0,0,1,2-.38,2.27,2.27,0,0,1,2.49,2.21c0,2-2.86,3.08-8.26,3.08-5,0-9-.7-11.07-2a8.34,8.34,0,0,1-3.84-7.07c0-2.32.43-3.78,1.14-3.78A.3.3,0,0,1,389.07,98.79Zm18.2-14.64c0,.7-.76,1.19-2.16,1.35a79.94,79.94,0,0,1-9.29.71,8.45,8.45,0,0,1-6.59-2.49,4.1,4.1,0,0,1-1.08-2c0-.11.16-.21.27-.21s.22,0,.33.27c.59,1,2.43,1.67,4.59,1.67a24.69,24.69,0,0,0,9.72-2.1,1.43,1.43,0,0,1,.86-.28C405.11,81.07,407.27,83,407.27,84.15Z"/><path class="cls-1" d="M469.26,93.39c0,6.69-4.32,12-12.31,15.06-3.08,1.19-10.59,2.87-12.75,2.87-.59,0-1.13-.38-1.13-.76,0-.16.16-.22,1-.32,12.69-2.22,20.46-8.64,20.46-16.91,0-6.1-3.83-10-9.93-10-4.27,0-9.62,1.73-14.64,4.7a69.82,69.82,0,0,0-7.13,5.19c-1.45,1.35-2,1.62-3,1.62a7.07,7.07,0,0,1-5-2.65,6.41,6.41,0,0,1-1-4c0-.7.1-.92.48-.92.16,0,.22.06.27.27a3.55,3.55,0,0,0,3.67,2.86c1.3,0,2-.27,5-2,8.31-4.8,15.12-7.07,21.43-7.07C463.27,81.24,469.26,86.26,469.26,93.39Z"/><path class="cls-1" d="M484.22,79a.44.44,0,0,1-.22,0,.22.22,0,0,1-.21-.21c0-.33.91-.65,1.94-.65,3.08,0,5.89,2.37,5.89,5a19.52,19.52,0,0,1-.71,4.37,34.68,34.68,0,0,0-1,8.59c0,4.1.81,7.18,2.49,9.45.91,1.24,2.16,2.16,3,2.16s.86-.16,2.48-3.78c2.48-5.35,3.46-7.13,3.89-7.13a.47.47,0,0,1,.38.43,1.83,1.83,0,0,1-.22.81,34.84,34.84,0,0,0-2.43,9.67,6.07,6.07,0,0,0,1,3.4c.33.54.38.59.38.86,0,.65-1,1.3-2,1.25a11.64,11.64,0,0,1-5.67-2.38c-3.89-3-6.15-9.23-6.15-16.63,0-2.32.21-5.83.48-8.53.06-.82.11-1.46.11-2,0-2.43-1.62-4.75-3.24-4.75Zm26,9.67c0-.44,1.72-.81,3.61-.81,6,0,12.26,5.72,12.26,11.23,0,2.16-1.29,3.67-3.13,3.67-1,0-1.35-.49-1.35-1.84.05-6.58-4.59-12-10.31-12C510.3,88.9,510.25,88.9,510.25,88.64Z"/><path class="cls-1" d="M571,77.78c5.88-1.46,5.88-1.46,6.69-1.46a4,4,0,0,1,2.92,1.62,5.35,5.35,0,0,1,1.46,2.49c0,.64-.65,1.08-1.46,1.08a4.45,4.45,0,0,1-1.68-.38,14.45,14.45,0,0,0-3.94-.6,16.75,16.75,0,0,0-6.59,1.52c-2.86,1.4-5.83,5.24-7.12,9.23a37,37,0,0,0-1.57,10.86c0,6.64,2.54,9.18,9.34,9.18a17.1,17.1,0,0,0,3.89-.38,2,2,0,0,1,.7-.06,2.72,2.72,0,0,1,2.05.92,4.79,4.79,0,0,1,1,2.16c0,1.19-1.41,1.68-5,1.68-9.78,0-15.61-4.49-15.61-11.94a32.51,32.51,0,0,1,5.4-17.44,21.55,21.55,0,0,1,3.89-4.65.54.54,0,0,0,.27-.43.23.23,0,0,0-.22-.21c-3.07,0-14.09,4.32-17.65,6.91-1.52,1.08-2,1.3-2.92,1.3A7.43,7.43,0,0,1,540.81,87a6.34,6.34,0,0,1-1.13-3.83c0-.22.1-.38.32-.38s.22,0,.32.27c.54,1.24,1.57,1.78,3.57,1.78a10.45,10.45,0,0,0,4.05-.86c8.37-2.49,12.63-3.67,18.25-4.92Z"/></g></g></svg>