<svg xmlns="http://www.w3.org/2000/svg" viewBox="0 0 828.82 50.33"><defs><style>.cls-1{fill:#fff;stroke:#fff;stroke-miterlimit:10;}</style></defs><title>top-title_3</title><g id="Layer_2" data-name="Layer 2"><g id="Layer_1-2" data-name="Layer 1"><path class="cls-1" d="M34.09,12.84a2.11,2.11,0,0,1,1,1.51c0,.48-.43.81-1.19.92l-1.35.27a104.61,104.61,0,0,1-8.37,11.77c10.15,4.43,16.31,9.45,16.31,13.28a2.08,2.08,0,0,1-1.84,2.16c-.81,0-1.35-.48-2.37-2.1-1.73-3.19-9.18-10.16-13-12.15C17.35,35.19,13,38.81,5.9,42.81A16.52,16.52,0,0,1,1,44.91a.53.53,0,0,1-.54-.48c0-.33.22-.54,1.57-1.35,12.42-7.62,19-14.8,26.67-28.95a66.28,66.28,0,0,0-10.15,1.78c-1.3.27-3.56.76-5.45,1.19a5.39,5.39,0,0,0-2,.87c-.86.54-1.13.64-1.46.64s-.54-.16-1.51-1.18c-1.89-2-2.54-2.87-2.54-3.46,0-.43,0-.43,1.14-2.11,1,1.68,1.94,2.49,2.86,2.49a11.18,11.18,0,0,0,1.3-.16L29.12,11.7,30.79,10Z"/><path class="cls-1" d="M65.19,26A25.66,25.66,0,0,1,75.4,30.44c5.94-4.64,7.72-6.32,13.66-12.8a161.86,161.86,0,0,0-23.54,3.62,28.73,28.73,0,0,0-4.65,1.24,9.61,9.61,0,0,0-1,.65c-.22.11-.44.27-.71.43a1.26,1.26,0,0,1-.64.27c-.76,0-4.59-4.26-4.59-5.07,0-.33.16-.65,1-2,1.73,1.94,2.54,2.59,3.3,2.59a39.42,39.42,0,0,0,4.05-.54L77,16.62c2.22-.33,4.7-.6,11.51-1.35l1.45-.11,1.84-1.41c1.94,1.35,4.32,4.32,4.32,5.35,0,.65-.54.92-1.94.92L92.89,20A143.64,143.64,0,0,1,76.8,31.36a20.25,20.25,0,0,1,3.35,3.56A9.23,9.23,0,0,1,82,39.08a2.23,2.23,0,0,1-1.84,2.21c-1,0-1.35-.43-2.38-2.37-3.61-6-7.88-10-13-12Z"/><path class="cls-1" d="M117.14,27.42c-2.75.1-3.24.16-4.1.64-1.35.71-1.35.71-1.62.71-.54,0-.71-.17-2.06-2s-1.4-1.95-1.4-2.59.43-1.73.76-1.73c.16,0,.32.16.59.59.92,1.35,1.73,1.68,3.89,1.68l3.83-.11L145,24a10.2,10.2,0,0,0,1.73-.32,3.49,3.49,0,0,1,.65-.11A3.17,3.17,0,0,1,149.92,26a1.3,1.3,0,0,1-1.24,1.41c-.27,0-.71-.06-1.14-.11-1-.11-4.32-.16-8.53-.16h-2.86Z"/><path class="cls-1" d="M170.22,10.46c0-1.67-.05-1.94-.43-2.43s-.65-.54-3-1.84c1.35-1.18,1.72-1.45,2.16-1.45a14.5,14.5,0,0,1,3.51,1.56c1.78,1,2.64,1.78,2.64,2.49a2.3,2.3,0,0,1-.65,1.24,5.74,5.74,0,0,0-.54.7,11.45,11.45,0,0,0-.21,2.54l-.33,8.1A31.4,31.4,0,0,1,184,25c4.21,2.21,6.48,4.59,6.48,6.8a1.76,1.76,0,0,1-1.73,1.84c-.86,0-1.35-.33-2.26-1.52-2.81-3.78-8.7-8-13-9.28l.11,23.59a1.43,1.43,0,0,1-1.4,1.41,2.89,2.89,0,0,1-2.7-2.43,14.47,14.47,0,0,1,.32-2.11c.05-.21.11-1,.16-1.89l.22-6.48.05-15.55Z"/><path class="cls-1" d="M228,33.63c1.35-.17,1.68-.17,3.08-.27.59,0,2.43-.06,5.51-.17l2.37-.1c.22,0,.87,0,1.62-.06l2.27-1.56c3.89,1.72,5.35,2.75,5.35,3.83a1.2,1.2,0,0,1-1.3,1.19,7.56,7.56,0,0,1-1.29-.16,59.84,59.84,0,0,0-10.32-.65,120.43,120.43,0,0,0-13.82.92c-7.29,1.24-7.29,1.24-8.37,1.51a5.07,5.07,0,0,0-2.54,1,1.7,1.7,0,0,1-.86.33c-.49,0-1.84-.92-3.35-2.22-1.14-1-1.51-1.45-1.51-2.05s0-.59.64-2c2.16,2.11,2.65,2.38,4.59,2.38a22.23,22.23,0,0,0,4.54-.54l10.21-1.08V20.29c-.11-1.78-.38-2.27-1.3-2.27a36.92,36.92,0,0,0-5.89,1.13,11.52,11.52,0,0,0-2,.54c-.38.22-.71.44-1,.65a2,2,0,0,1-.81.27c-1.19,0-4.43-2.86-4.43-3.94a3.32,3.32,0,0,1,.81-1.78c1.78,1.62,2.59,2.1,3.46,2.1a12.06,12.06,0,0,0,1.67-.16L235,15l2.65-1.57c3,1.4,4.48,2.48,4.48,3.4S241.61,18,240.31,18a8.23,8.23,0,0,1-1.83-.27,13.65,13.65,0,0,0-4-.38,49.76,49.76,0,0,0-6.86.27c1.3.87,1.73,1.24,1.73,1.57a1.16,1.16,0,0,1-.48.7c-.76.65-.81.76-.81,1.57Z"/><path class="cls-1" d="M262.72,9.81A24.48,24.48,0,0,1,269,12c3.24,1.78,5.29,4.42,5.29,6.85,0,1.57-1,2.87-2.21,2.87-.87,0-1.3-.54-2.11-2.6a17,17,0,0,0-7.61-8.42Zm6,34.51c-.87,0-2-.81-3.94-2.7s-2.22-2.27-2.22-2.86a5.6,5.6,0,0,1,.92-2c1.57,1.56,2.7,2.37,3.4,2.37a42.2,42.2,0,0,0,7-3.13,123.56,123.56,0,0,0,25.76-19.6c.54-.59.81-.76,1.08-.76a.58.58,0,0,1,.49.54c0,.81-3.35,4.65-7.73,9-8.58,8.42-15.17,13.28-23.38,17.22C269.42,43.94,269.15,44.32,268.72,44.32Z"/><path class="cls-1" d="M325.74,10.46c0-1.67-.05-1.94-.43-2.43s-.65-.54-3-1.84C323.64,5,324,4.74,324.45,4.74A14.5,14.5,0,0,1,328,6.3c1.78,1,2.64,1.78,2.64,2.49A2.3,2.3,0,0,1,330,10a5.74,5.74,0,0,0-.54.7,11.45,11.45,0,0,0-.21,2.54l-.33,8.1A31.4,31.4,0,0,1,339.51,25c4.21,2.21,6.48,4.59,6.48,6.8a1.76,1.76,0,0,1-1.73,1.84c-.86,0-1.35-.33-2.26-1.52-2.81-3.78-8.7-8-13-9.28l.11,23.59a1.43,1.43,0,0,1-1.4,1.41A2.89,2.89,0,0,1,325,45.4a14.47,14.47,0,0,1,.32-2.11c.05-.21.11-1,.16-1.89l.22-6.48.05-15.55Z"/><path class="cls-1" d="M370,12.08c.06-.86-.32-1.08-3-2.16.92-1.24,1.56-1.73,2.21-1.73a16,16,0,0,1,4.65,2c.59.38.86.59.86.86,0,.49-.38.92-1.35,1.68V26.5a11.94,11.94,0,0,0,.11,2.37,15.33,15.33,0,0,1,.16,1.68,1.66,1.66,0,0,1-1.57,1.62,3.08,3.08,0,0,1-2.32-2.43s.11-.43.22-1c0-.16,0-.65.11-1.35l.05-3.18-.05-11Zm19.06,9c-.1,6.26-1.67,12.85-3.94,16.36s-6.75,6.75-12.09,8.86a29.65,29.65,0,0,1-5,1.62.48.48,0,0,1-.48-.49c0-.38.16-.49,2.43-1.46a26.93,26.93,0,0,0,10.42-7.07c3.51-3.94,4.86-8.64,5.29-18.15l-.05-9c-.06-1.08-.06-1.73-.06-2,0-.54-1.67-1.4-3.83-2,1.19-1.4,1.67-1.78,2.32-1.78a22.73,22.73,0,0,1,4.7,1.73c1,.54,1.4.92,1.4,1.46,0,.38-.27.75-1,1.67Z"/><path class="cls-1" d="M417.38,27.42c-2.75.1-3.24.16-4.1.64-1.35.71-1.35.71-1.62.71-.54,0-.71-.17-2.06-2s-1.4-1.95-1.4-2.59.43-1.73.76-1.73c.16,0,.32.16.59.59.92,1.35,1.73,1.68,3.89,1.68l3.83-.11,28-.65a10.2,10.2,0,0,0,1.73-.32,3.49,3.49,0,0,1,.65-.11A3.17,3.17,0,0,1,450.16,26a1.3,1.3,0,0,1-1.24,1.41c-.27,0-.7-.06-1.14-.11-1-.11-4.32-.16-8.53-.16h-2.86Z"/><path class="cls-1" d="M485.26,14.67a.77.77,0,0,1-.27.49c-.59.86-.65.92-2.27,5.34A87.44,87.44,0,0,1,474,38.05c-2,2.92-2.6,3.41-3.89,3.41-.6,0-.7-.06-2.32-1.46a16.32,16.32,0,0,1-3.46-3.62,11.21,11.21,0,0,1-1.73-6.21A20.18,20.18,0,0,1,469,16.29,25.25,25.25,0,0,1,485.64,9.6c10.26,0,18.74,7.34,18.74,16.25,0,5.24-3.24,10.26-8.48,13.18a44,44,0,0,1-10.59,4,13.68,13.68,0,0,1-2.27.43.51.51,0,0,1-.54-.54c0-.37.22-.48.92-.7a54.51,54.51,0,0,0,7.73-3.13c5.83-3,9.12-8,9.12-14.15a12.31,12.31,0,0,0-4.75-9.83,15.12,15.12,0,0,0-10.37-3.61,11.45,11.45,0,0,0-2,.16,2.11,2.11,0,0,1-.49.11C484.12,12.73,485.26,14,485.26,14.67Zm-14.58,3.19A17.08,17.08,0,0,0,466.09,30a10.34,10.34,0,0,0,1.35,5.88c.7,1,1.46,1.62,2.21,1.62,1.08,0,2.11-.91,3.35-3a66.05,66.05,0,0,0,6.16-14.2,43.29,43.29,0,0,0,1.62-6.21,1.54,1.54,0,0,0-.87-1.35,3.94,3.94,0,0,0-.81-.33A20.22,20.22,0,0,0,470.68,17.86Z"/><path class="cls-1" d="M535.26.69l4,3.13a1.27,1.27,0,0,1,.48.86.78.78,0,0,1-.86.81h-9.07v9.4h3.13l1.24-2,3.46,2.65a1.3,1.3,0,0,1,.65,1c0,.27-.22.54-.65.75l-1,.54V47.29c0,.38-.11.54-.54.75a6.68,6.68,0,0,1-1.78.49.87.87,0,0,1-.92-.86V44.53H518.52V48c0,.6,0,.65-.86,1a2.84,2.84,0,0,1-1.46.49.85.85,0,0,1-.81-.87V12.89l3,2h3.19V5.49h-1.3c-1,0-2.1,0-3.34.06l-3.19,0L513.07,4c3.89.16,5.4.22,7.23.22h11.89Zm-1.89,34.45V29.79H529c-1.35-.05-2-.65-2-1.94V16.18h-2.65c-.16,9.35-1.72,13.88-5.83,17.5v1.46Zm-14.85-19V31.74c2.22-2.87,3.19-7.78,3.08-15.56Zm14.85,27.06V36.43H518.52v6.81ZM527,14.89V5.49h-2.65v9.4Zm6.37,1.29h-3.56v9.89c0,1,.05,1,1,1.08h2.54ZM556.22,3l4,3.19a1.59,1.59,0,0,1,.65,1,1.35,1.35,0,0,1-.7,1l-1.14.6v17c0,.65-.21.92-.92,1.24a6.49,6.49,0,0,1-2.05.54c-.48,0-.81-.38-.81-1V23H545V42.16c0,1.24.49,1.4,3.89,1.4,8.64,0,9.34-.27,10.42-4.26l1.35-5.08,1,.16-.38,7.08.06.59.16.27a7.73,7.73,0,0,1,.75.59,1.32,1.32,0,0,1,.49,1,2.17,2.17,0,0,1-1.08,1.67c-1.3.76-3.83,1-9.51,1-9.77,0-10.74-.32-10.74-3.35V19.53l4.43,2.22h9.39v-15h-7.61c-1,0-2.11,0-3.46,0L540.82,7l-.43-1.67c3.73.16,5.24.21,7.24.21h6.8Z"/><path class="cls-1" d="M576.46,12.78c-1.94,0-2.05,0-8.58.22l-.76-1.78,5,.16c1.84,0,3.35.11,4.37.11h6.16a90.18,90.18,0,0,0,2.7-10.8l4.86,1.51c.86.27,1.24.59,1.24,1.13s-.32.87-1,1.14L589.15,5c-1,3.13-1.18,3.61-2.26,6.48h20.25l3.51-3.73,4.32,3c.7.49.92.76.92,1.24a.79.79,0,0,1-.65.81h-29a64.61,64.61,0,0,1-4.32,8.7l1,.81h8.69V14.73l4.27.48c.86.11,1.29.43,1.29,1a1.27,1.27,0,0,1-.75,1l-1.19.75v4.38h9.56l1.4-2.06,3.35,2.54a1.58,1.58,0,0,1,.65,1,1,1,0,0,1-.65.86l-.76.38V39.78c0,1.57-.37,2.32-1.83,3.57a4.73,4.73,0,0,1-2.65,1.4c-.65,0-1-.49-1-1.35a3,3,0,0,0-.16-1.3,2.91,2.91,0,0,0-1.24-.59l-3.78-1.24.1-.76,3.89.16c2.54.06,2.92-.16,3-1.62V23.64h-9.94V47.77c0,1.3-1,2.06-2.54,2.06-.81,0-1.08-.38-1.08-1.41V23.64h-8.85V43.18c0,.87-.06,1-.6,1.35a4.39,4.39,0,0,1-2,.6.84.84,0,0,1-.92-.87V25.69a59.89,59.89,0,0,1-8.1,8.37c-2.21,1.78-4.48,3.4-5,3.4a.4.4,0,0,1-.37-.38c0-.27,0-.27,1.62-1.67,7.45-7,12-13.93,14.74-22.63Z"/><path class="cls-1" d="M637.81,22.88c-3.4,8.26-5.13,14.26-5.13,17.66a15.77,15.77,0,0,0,.16,1.94c0,.76.11,1.14.11,1.57,0,1.29-.49,2.05-1.41,2.05-2.75,0-4.26-4.81-4.26-13.34,0-6.26.7-10.42,3.18-18.57a9.75,9.75,0,0,0,.71-3.14c0-1.24-.6-2.1-2.7-4.1,1.45-.59,1.67-.65,2-.65,1.29,0,4.75,4.11,4.75,5.73,0,.37,0,.48-.65,1.51a36.05,36.05,0,0,0-3,7,28,28,0,0,0-2,10.74,9.87,9.87,0,0,0,1,5,142.7,142.7,0,0,1,6-13.82Zm29.75,17.77c0,.7-.54,1.24-1.51,1.51a40.06,40.06,0,0,1-8.1.65c-6.37,0-10.91-1-13.28-2.81a8.42,8.42,0,0,1-3.46-7c0-2.48,1.24-6.32,2-6.32a.59.59,0,0,1,.6.54,1.4,1.4,0,0,1-.11.54,18.4,18.4,0,0,0-.65,4.27c0,3.19,1.84,5.29,5.51,6.37a25.48,25.48,0,0,0,7,.7,63.41,63.41,0,0,0,8-.54,14.62,14.62,0,0,1,1.46-.16A2.36,2.36,0,0,1,667.56,40.65ZM645,23.37a50.15,50.15,0,0,1,6.48-6.59,25.71,25.71,0,0,0,2.43-2.27,57.26,57.26,0,0,1-6.7.76c-1.45,0-2.59-.44-4.59-1.89-.86-.6-1.29-1.19-1.29-1.73a1.53,1.53,0,0,1,.32-.7c3.08,1.45,3.84,1.67,5.56,1.67a51.89,51.89,0,0,0,12.48-1.94,3.33,3.33,0,0,1,.92-.27,6.91,6.91,0,0,1,2.64,1.35,1.92,1.92,0,0,1,1,1.4c0,.86-.6,1.24-2.38,1.35-3.19.32-3.51.43-7.07,2.59A63,63,0,0,0,645.53,24Z"/><path class="cls-1" d="M680,22.77a2.67,2.67,0,0,0,1.46-.65,88.41,88.41,0,0,1,10.15-5.88,28.77,28.77,0,0,1,13.23-3.46,16.9,16.9,0,0,1,11.4,3.89,12.66,12.66,0,0,1,4.7,9.45c0,6.21-4.81,11.12-13.45,13.66A53.18,53.18,0,0,1,695,41.67c-.6,0-.92-.21-.92-.65s.27-.54,1.35-.64a41.94,41.94,0,0,0,12.8-3.19c5.13-2.38,8.31-6.8,8.31-11.56a10.45,10.45,0,0,0-3.08-7.45,14.72,14.72,0,0,0-9.45-3.4c-3.24,0-6.59,1.08-10.53,3.4a42.73,42.73,0,0,0-8.8,6.86c-1.84,2-2.21,2.27-3.08,2.27s-2.1-.65-4.64-2.81c-1.35-1.13-1.35-1.13-1.35-1.57,0-.91.22-1.45,1.19-2.8C678.09,21.8,679.28,22.77,680,22.77Z"/><path class="cls-1" d="M733.23,9.7c.7,0,3.13,1.25,4.8,2.54,1.25.92,1.68,1.46,1.68,2.22a2.83,2.83,0,0,1-.54,1.56c-1.14,2.05-1.57,5-1.57,10.75,0,4.48.54,7.29,1.84,9.66.54,1,.91,1.41,1.24,1.41s1-.92,2.86-4A109.29,109.29,0,0,1,751,23.1c.81-1.08,1-1.3,1.35-1.3a.48.48,0,0,1,.49.43c0,.22,0,.27-.92,1.84-3.72,6.59-4,7-5.08,9.23-1.4,2.92-2.53,5.89-2.53,6.64a9.28,9.28,0,0,0,.37,1.57,3.22,3.22,0,0,1,.22,1.13,1.51,1.51,0,0,1-1.46,1.52c-1.62,0-4.59-2.38-6.1-4.86-1.78-3-2.75-7.94-2.75-14.48a64.43,64.43,0,0,1,.48-7.45,17.44,17.44,0,0,0,.22-2.54c0-1.24-.32-1.67-2.11-3-.43-.27-.75-.48-1.13-.7l-.59-.38A1.8,1.8,0,0,1,733.23,9.7Zm27.1,3.35a20.52,20.52,0,0,1,10.43,7.51c2.7,3.45,4.48,7.72,4.48,10.74,0,2.06-1,3.46-2.32,3.46-1.19,0-1.73-.65-1.95-2.21-1.13-8.48-4.91-15-10.9-18.85Z"/><path class="cls-1" d="M820.11,8.84a1.77,1.77,0,0,0,1.08-.59c.71-.76,1.14-1.08,1.57-1.08a13.67,13.67,0,0,1,4,1.51c1.08.65,1.56,1.19,1.56,1.78a1.48,1.48,0,0,1-1.62,1.4c-.27,0-.75,0-1.19-.1-.75-.06-1.35-.11-1.83-.11s-5.24.48-6.16.65c-3,.43-6.15,2.32-9,5.34-3,3.24-4.48,6.54-4.48,10.21a12.09,12.09,0,0,0,7.61,11.39,19.75,19.75,0,0,0,7,1.51c2.42.17,3.18.71,3.18,2.27s-.86,2.22-2.64,2.22a22.1,22.1,0,0,1-7.62-1.73,15.44,15.44,0,0,1-9.83-14.69c0-5.29,2.81-11.29,7.19-15.34-7.56,1.25-15.45,3.57-16.85,4.86a2.78,2.78,0,0,1-1.35.6c-.54,0-1.46-.65-3.57-2.65-1.56-1.51-1.72-1.67-1.72-1.94a6.65,6.65,0,0,1,.43-1.41,4.85,4.85,0,0,1,.64-.91c2.16,2.21,2.76,2.64,3.57,2.64l.81-.11Z"/></g></g></svg>