<svg xmlns="http://www.w3.org/2000/svg" viewBox="0 0 624.65 137.64"><defs><style>.cls-1{fill:#fff;}</style></defs><title>top-title</title><g id="Layer_2" data-name="Layer 2"><g id="Layer_1-2" data-name="Layer 1"><path class="cls-1" d="M40.05,7.37l5.4,3.88a2.08,2.08,0,0,1,1,1.52c0,.61-.69,1.14-1.52,1.14l-1.9.15A118.7,118.7,0,0,1,32.53,28.88a51,51,0,0,1,13.6,7.91c4.18,3.49,6.31,6.53,6.31,9,0,1.53-.91,2.82-2,2.82s-2-1-3.72-3.73C43.93,40,39.07,35.42,31.16,30.4c-6.08,7-11.17,11.25-18.47,15.28C8.28,48.11,1.9,50.92.76,50.92A.82.82,0,0,1,0,50.16c0-.53.61-1.06,2-1.74A71.76,71.76,0,0,0,23.1,33.9C30.33,26.37,35.8,18.62,38.46,12c-17.71,2.51-22.88,3.49-23.34,4.56a2.29,2.29,0,0,1-1.29.68c-.61,0-2.2-1.14-3.27-2.28a8,8,0,0,1-2.2-4.86c0-.69.23-1,1.06-1.37,1.3,2.81,2.44,3.57,5.25,3.57,1.21,0,1.21,0,6.08-.6,2.13-.31,4.18-.54,6.31-.76.91-.08,3.72-.46,11.25-1.53Z"/><path class="cls-1" d="M90.59,29a2.36,2.36,0,0,1,.84.23,37,37,0,0,1,12.62,5.62c8.66-6.46,12.76-10.49,18.31-17.71-7.14-.15-17.86,1.07-27.82,3.19-5.47,1.3-8.58,2.06-9.34,2.21-2.82.68-3.35,1-4.72,2.2a1.93,1.93,0,0,1-1.06.69c-1.82,0-5.62-5.1-5.62-7.68,0-.53.22-.76,1.29-1.14,1.14,2.13,2,2.66,4.18,2.66a14,14,0,0,0,3.49-.53,311.26,311.26,0,0,1,39.83-4.49l2-2.05L130,16.34a2.08,2.08,0,0,1,1,1.52c0,.69-.68,1.14-1.75,1.22l-1.74.07a139.11,139.11,0,0,1-21.82,17c3.5,3.27,5.09,6,5.09,9,0,1.6-.91,2.66-2.2,2.66-.84,0-1.44-.53-2.28-2-4-7.37-8.82-11.85-16.65-15.42Z"/><path class="cls-1" d="M151.39,31.39c-.53,0-1.06-.61-2.89-3.5a10.06,10.06,0,0,1-2-5.09c0-1.67.53-2.28,1.9-2.35.61,4.71,2.66,5.77,10.94,5.77,1.37,0,3.42-.07,6.31-.15,7.22-.23,10.49-.3,18.62-.38,8.29-.08,15.66-.68,17.94-1.44a4.8,4.8,0,0,1,1.29-.23,6.38,6.38,0,0,1,3,1.44,3.21,3.21,0,0,1,1.6,2.66c0,1.07-.61,1.6-1.75,1.6a15.09,15.09,0,0,1-2.81-.31,92.12,92.12,0,0,0-12-.45c-14.75,0-20.52.15-38,1.14A4.63,4.63,0,0,1,151.39,31.39Z"/><path class="cls-1" d="M227.92.15a11.11,11.11,0,0,1,2-.15c2.13,0,3.5.46,6.39,2.2C238,3.27,238.72,4,238.72,4.86c0,.61-.53,1.07-1.37,1.3-.61.22-.76.3-.76.6-.08.08-.08.38-.08,1-.07,3.5-.07,3.88-.3,8.14l-.08,3.64L236.06,22c13.68,2.58,23,8.05,23,13.3a2,2,0,0,1-1.9,2c-1.3,0-2.06-.53-4.11-3-4.25-4.86-9.5-8-17-10.33-.15,5-.15,6.08-.15,7.14V50.7c.15,2.58.15,2.58.15,3.34,0,2.36-.76,3.65-2.13,3.65s-3-2.28-3-4.41a7.43,7.43,0,0,1,.38-2.2c.68-3,.68-3.42.68-14.22l.23-11.78c-.08-9.58,0-10.94.08-15.81l.07-2.66c0-2.81-.23-3-3.8-4.94l-.53-.3-.3-.15Z"/><path class="cls-1" d="M313.35,38.69c1.44-.08,3-.08,3.27-.16l5.55-.22,4.71-.16h2.89c1.44-.07,1.52-.07,3.11-1.14a2.34,2.34,0,0,1,1.14-.38c.84,0,2.51.76,4.64,2.21,1.37,1,2,1.82,2,2.66A1.68,1.68,0,0,1,339,42.94a8.08,8.08,0,0,1-1.75-.23,82.5,82.5,0,0,0-16.56-1.36,164.11,164.11,0,0,0-25.92,2c-4.64.76-4.71.76-6.84,1.83a3.64,3.64,0,0,1-.46.15c-.53,0-1.44-.61-3.19-2.21-1.9-1.74-2.51-2.73-2.51-4.25V38l1-.3c1.75,2.13,2.89,2.66,5.93,2.66a40.67,40.67,0,0,0,4.63-.38c6.31-.53,11.78-.91,16.57-1.14.08-3.42.08-3.8.08-5.78,0-12.31,0-12.31-.76-13.53-.46-.68-1.07-1.14-3.19-2.2-3.2.38-4.34.53-6.39.76-.91.15-1.9.3-2,.3a6.29,6.29,0,0,0-2.82.76,3.75,3.75,0,0,1-1.59.61c-.84,0-2.36-.83-3.88-2.05a5.11,5.11,0,0,1-2.05-4v-.69l.08-.45,1.14.22A5.85,5.85,0,0,0,294,15.58a25.6,25.6,0,0,0,3-.23c7.83-.91,15-1.44,22.72-1.74a17.82,17.82,0,0,0,4.18-.38c.61-.16.69-.23,2.51-.84a2.88,2.88,0,0,1,.84-.23c1.52,0,5.62,2.89,5.62,3.95,0,.54-.68,1-1.52,1a18.11,18.11,0,0,1-1.82-.15c-2.36-.23-5.25-.38-7.45-.38-1.9,0-9,.23-11.78.38,3.8,1.67,4.94,2.43,4.94,3.34,0,.61-.38,1.07-1.29,1.37Z"/><path class="cls-1" d="M363.74,6.84l.6.23.46.07c7.52,2.13,13.15,7,13.15,11.41a2.77,2.77,0,0,1-2.66,3c-1.29,0-1.83-.53-2.89-2.81-2.51-5.4-4.79-8-9.42-10.72Zm54,6.77-.46.6c-8.21,11-26,26.15-41.57,35.5a5.21,5.21,0,0,0-2.28,2.12c-.38.84-.76,1.15-1.14,1.15a12.05,12.05,0,0,1-3.57-2.28c-3.12-2.44-4.87-5.17-4.87-7.61,0-1.59.31-2.05,1.22-2.12a13.33,13.33,0,0,0,1.67,3.57c1.06,1.37,2.36,2.28,3.27,2.28,1.44,0,9.88-4.64,16.8-9.27,9.65-6.39,16.41-12.09,28.88-24.25l.53-.46.23-.3Z"/><path class="cls-1" d="M448.32.15a11.11,11.11,0,0,1,2-.15c2.13,0,3.5.46,6.38,2.2,1.75,1.07,2.44,1.83,2.44,2.66,0,.61-.54,1.07-1.37,1.3-.61.22-.76.3-.76.6-.08.08-.08.38-.08,1-.07,3.5-.07,3.88-.3,8.14l-.08,3.64L456.46,22c13.68,2.58,23,8.05,23,13.3a2,2,0,0,1-1.9,2c-1.3,0-2.06-.53-4.11-3-4.25-4.86-9.5-8-17-10.33-.16,5-.16,6.08-.16,7.14V50.7c.16,2.58.16,2.58.16,3.34,0,2.36-.76,3.65-2.13,3.65s-3-2.28-3-4.41a7.43,7.43,0,0,1,.38-2.2c.68-3,.68-3.42.68-14.22l.23-11.78c-.08-9.58,0-10.94.08-15.81l.07-2.66c0-2.81-.23-3-3.8-4.94l-.53-.3-.3-.15Z"/><path class="cls-1" d="M535.88,9c.15,2.82.38,8.82.38,10.19,0,10.34-1.22,17.25-3.73,22q-4.9,9.12-18.24,15a25.65,25.65,0,0,1-6.38,2.13.85.85,0,0,1-.84-.84c0-.61.38-.91,2-1.59a46.24,46.24,0,0,0,15.81-10.57A21.2,21.2,0,0,0,531,33a87.3,87.3,0,0,0,.91-13.08c0-3.57-.3-12.54-.53-14.13C531.17,4,530.48,3.5,527,2.43c0-1.21.84-1.67,2.74-1.67A18.14,18.14,0,0,1,536,2.66c1.22.61,1.75,1.14,1.75,1.9a2.46,2.46,0,0,1-1,1.67c-.84.76-.91.91-.91,1.68Zm-20,2.29c.15,9,.38,18.69.53,21,.08.91.15,1.67.15,2.21,0,1.14-.76,2.2-1.52,2.2-1.21,0-3.27-2.28-3.27-3.65a3.55,3.55,0,0,1,.31-1.14,12.27,12.27,0,0,0,.38-3.65c0-3.8-.31-14-.53-17.93-.31-4.26-.54-4.49-4-5.25a1.08,1.08,0,0,1-.15-.53c0-.61.76-1.06,1.67-1.06a18.48,18.48,0,0,1,7.14,2.12c.76.46,1.07.92,1.07,1.45s-.23.76-1,1.14c-.69.23-.76.3-.76.91Z"/><path class="cls-1" d="M567.87,31.39c-.53,0-1.06-.61-2.89-3.5a10.06,10.06,0,0,1-2-5.09c0-1.67.53-2.28,1.9-2.35.61,4.71,2.66,5.77,10.94,5.77,1.37,0,3.42-.07,6.31-.15,7.22-.23,10.49-.3,18.62-.38,8.29-.08,15.66-.68,17.94-1.44A4.8,4.8,0,0,1,620,24a6.34,6.34,0,0,1,3,1.44,3.21,3.21,0,0,1,1.6,2.66c0,1.07-.61,1.6-1.75,1.6a15.09,15.09,0,0,1-2.81-.31,92.12,92.12,0,0,0-12-.45c-14.75,0-20.52.15-38,1.14A4.63,4.63,0,0,1,567.87,31.39Z"/><path class="cls-1" d="M16.87,118c-3.19,4.94-5.62,7.45-7.22,7.45-.53,0-1-.45-1.9-1.67a2.49,2.49,0,0,0-1.44-1.22C3,121.07.53,115.37.53,109.14c0-15.2,13.76-27.44,30.78-27.44,15,0,26.38,9.58,26.38,22.19,0,8.21-5.63,16-14.67,20.37-3.88,1.9-12,4.41-14.22,4.41a.72.72,0,0,1-.76-.76c0-.53.38-.83,1.75-1.21a58,58,0,0,0,12.47-5.25c7.07-4.41,10.79-10.64,10.79-18.24a17.72,17.72,0,0,0-9.58-16A29.68,29.68,0,0,0,30,83.9a25.19,25.19,0,0,0-3.81.31C28.73,85.58,31,87.78,31,88.84c0,.61-.3,1-1.6,2.06C24.62,103.74,21.21,111.11,16.87,118Zm7-33.36a24.9,24.9,0,0,0-10.11,4.79c-6.54,5.09-9.58,11.25-9.58,19.23,0,4.56.91,7.75,2.89,10.26a3.92,3.92,0,0,0,2.66,1.82c2.2,0,5.62-5.24,9.5-14.29,3.72-8.82,6.15-16.26,6.15-18.85A3.12,3.12,0,0,0,24.32,85Z"/><path class="cls-1" d="M98.88,71.36l4.71,4.26a1.8,1.8,0,0,1,.68,1.29.86.86,0,0,1-.83.91H91.2V91h5.32l1.37-1.82,4,3c.46.3.53.46.53.84a.66.66,0,0,1-.3.6l-1.45.54v41c0,.46-2,1.37-2.88,1.37-.38,0-.84-.3-.84-.46v-3.95H74.4v3.8c0,.91-1.44,1.75-3,1.75-.61,0-.91-.3-.91-.84V88.46L75,91h5V77.82H78.36c-2.74,0-4.34.08-8.29.23l-1.9-2.58c5,.23,6.46.3,10.26.3H94.77Zm-2,46.14v-9c-1.67.08-2.81.15-4.33.15-4,0-4.86-.38-4.86-2.35V93H83.3c-.46,10-2.51,14.82-8.9,20.74v3.73Zm-22.5-6C78.2,107.16,80,101.54,80,93H74.4Zm0,18.55H96.9V119.55H74.4ZM87.71,91V77.82H83.3V91ZM91.2,93V104.2c0,.76.38.91,2.59.91.15,0,1,0,2.35-.08h.76V93Zm37.47-19.69,4.71,3.12c.54.3.76.6.76.91s-.22.53-.76.76l-1.59.61v26.67c0,.92-1.52,1.83-3,1.83-.68,0-1.06-.23-1.06-.69v-4.33H111.27V129c-.08,1.53.38,1.75,3.87,1.83.46,0,1.75.08,3.19.15,2.13.08,3.73.08,4.87.08a34.9,34.9,0,0,0,7.22-.46c.61-.23,1.06-1.06,1.52-2.51l2.35-8.89,1.53.38-.69,8.36v.15c-.07.31.23.76.76,1.45,1.37,1.37,1.52,1.52,1.52,2.2,0,2.43-4.86,3.27-19.61,3.27-5.17,0-8.36-.38-9.42-1.14-.76-.61-.91-1.37-.91-4.48V97.66l4.63,2.51h15.66V77.75H117c-.54,0-2,.07-4,.15l-5,.08-1.59-2.59,6,.23c1.9.08,3.57.08,4.56.08H127.3Z"/><path class="cls-1" d="M155.88,85.8c-4.72,0-6.08.08-10.95.31l-2.43-2.74c6.54.38,7.6.38,13.38.38h12.23a99.59,99.59,0,0,0,5.25-14.13l6.15,2.58a1.37,1.37,0,0,1,.91,1.14.8.8,0,0,1-.75.68l-3.12.46a64.59,64.59,0,0,1-4,9.27h28.57l3.8-4.63,5.78,4.18a1.93,1.93,0,0,1,1,1.52c0,.6-.61,1-1.52,1H171.68a137,137,0,0,1-6.91,12L166.36,99h13.31V88.31l5.16.84c.61.15,1.22.68,1.22,1.22a1.23,1.23,0,0,1-.76.91l-1.83,1.06V99h15.21l1.44-2.74,4.86,3a1.47,1.47,0,0,1,.84,1.14.82.82,0,0,1-.68.84l-1.75.61v24.7c0,1.29-1,2.35-3.5,3.57a7.58,7.58,0,0,1-3,1.06c-.69,0-.84-.15-1.29-1.44-.23-.76-.38-.84-1.45-1.14l-4.48-1.21.07-1.15,4.79.16c4.11-.38,4.79-.69,5-2.51V101.08H183.46v34.2c0,.76-.22,1.07-1.06,1.37a7.74,7.74,0,0,1-2.05.53c-.46,0-.68-.3-.68-.76V101.08H165.53v30.33c0,1-1.37,1.9-3,1.9-.45,0-.76-.31-.76-.91V102.07a62.46,62.46,0,0,1-13.3,13.22c-4.18,3.2-6.08,4.41-6.84,4.41a.52.52,0,0,1-.53-.53c0-.38.23-.68,1-1.29,11.25-8.51,18.09-17.25,25.08-32.08Z"/><path class="cls-1" d="M240.84,99.56c-2.43,5.4-2.66,5.85-3.8,8.89-2,5.17-3.72,11.56-3.72,13.84,0,.6.15,1.44.3,2.66a29.68,29.68,0,0,1,.69,4.63c0,1.3-.76,2.44-1.67,2.44-.61,0-1.14-.54-1.83-1.6-2.51-4.26-3.8-11.17-3.8-20.07,0-6.53.61-11.09,2.66-20.52.91-4,1.14-5.47,1.14-7.14,0-2.81-.83-4.26-3.42-5.93a.78.78,0,0,1,.91-.68c3,0,6.92,3.8,6.92,6.76,0,1-.15,1.6-1.6,5.7-2.66,7.6-4.1,15-4.1,21a38.62,38.62,0,0,0,1.06,9A90.15,90.15,0,0,1,239.71,99Zm8.9,4.94a19.78,19.78,0,0,0-1.67,7.68c0,7.14,4.78,9.8,17.86,9.8,5.92,0,9.19-.3,12-1.14a4.88,4.88,0,0,1,1.22-.23,3.81,3.81,0,0,1,3.12,3.35c0,.61-.46,1.06-1.45,1.37a67.89,67.89,0,0,1-10.71.76c-9.58,0-15.05-.76-18.09-2.59a11.87,11.87,0,0,1-6-10.56c0-3.35.69-5.4,2.82-8.89Zm1.9-4.86A48.05,48.05,0,0,1,264,88.08h-4.41c-6.69,0-8.82-.53-12.92-3.41l.38-1c4.41,1.29,5.85,1.52,9.35,1.52s13.68-1.22,15.8-1.9a4.17,4.17,0,0,1,1.3-.31c1.21,0,3.72,2.43,3.72,3.57,0,1-.38,1.15-3,1.22-7.07.68-15.12,5.4-21.66,12.69Z"/><path class="cls-1" d="M300.05,99.26c1.9,0,3.8-.84,10.18-4.34,11.25-6.3,18.47-8.81,25.24-8.81,12.31,0,22.49,7.9,22.49,17.56,0,6.38-4.1,12.31-11,15.73-4.18,2-10.56,3.72-18.62,4.86a23.65,23.65,0,0,1-3.87.38c-.84,0-1.37-.38-1.37-1s.45-.91,2.05-1.14a73.34,73.34,0,0,0,13.15-2.88c10-3.35,15.12-9,15.12-16.8,0-4.48-2-8.06-6.08-10.87A20.19,20.19,0,0,0,336,88.39c-4.64,0-10.26,1.82-16.8,5.55a71.13,71.13,0,0,0-12.62,8.74,3.87,3.87,0,0,1-2.5,1.06c-4,0-9.05-3.27-9.05-5.77,0-.69.3-1.37.61-1.37a.25.25,0,0,1,.15.07C297.31,98.5,298.6,99.26,300.05,99.26Z"/><path class="cls-1" d="M401.51,96.67a132.61,132.61,0,0,0-9,14.9c-3,5.7-5.24,10.94-5.24,12a5.37,5.37,0,0,0,.6,2,4.81,4.81,0,0,1,.39,1.37c0,.53-.84,1.21-1.53,1.21-1.74,0-4.78-2.35-6.53-5.09-3-4.86-4.64-13.91-4.64-27.21V93.33c.08-1.83.08-3,.08-3.42,0-4.87-.46-5.63-4.64-7.75,0-1,.15-1.22.61-1.22A16,16,0,0,1,378,83.45c1.59,1.14,2.51,2.35,2.51,3.27a8,8,0,0,1-.16,1,64.66,64.66,0,0,0-1.36,13.45c0,9.65,2.2,18.62,4.48,18.62.84,0,1.14-.46,4.18-5.47,4.71-7.91,8.89-14.06,12.62-18.32Zm12.31-11.55c6.77,4.26,9.73,7.07,13.38,12.46,3,4.64,4.79,9.35,4.79,12.85,0,2-1.22,3.65-2.66,3.65-1,0-1.67-.84-2.06-2.59-2.58-11.7-7.52-20.37-14.36-25.23Z"/><path class="cls-1" d="M487.39,81.55c.3,0,4.41-.76,8.36-1.52,2-1.37,2.74-1.83,3.27-1.83a13,13,0,0,1,3.34,1.37c2.28,1.07,3.12,1.9,3.12,3,0,.76-.61,1.21-1.67,1.21a16.71,16.71,0,0,1-1.83-.07c-1.44-.08-2.58-.08-3.72-.08-7.6,0-13.68,1.9-18.32,5.7a22.16,22.16,0,0,0-8.28,16.87c0,6.62,4.18,13.15,10.71,16.88,3,1.67,7.22,3,9.58,3,1.29,0,1.52.08,2,.46a7,7,0,0,1,1.36,3.19c0,.68-.91,1.37-1.82,1.37-1.75,0-7-1.37-9.58-2.44-9.35-4-15-12.16-15-21.58A25.16,25.16,0,0,1,473,93.48c1.52-2.2,3-3.72,7.23-7.83-18.4,3.57-22.58,4.56-25.09,5.93a3.73,3.73,0,0,1-1.52.46c-.6,0-2.43-1.07-4.1-2.44a6.47,6.47,0,0,1-2.66-4.78c0-.76.23-1.07,1.06-1.14,1,2.66,2,3.42,4.64,3.42,3.19,0,4.41-.23,22.65-3.58Z"/></g></g></svg>