<svg xmlns="http://www.w3.org/2000/svg" viewBox="0 0 821.73 33.08"><defs><style>.cls-1{fill:#343434;}</style></defs><title>content-title</title><g id="Layer_2" data-name="Layer 2"><g id="Layer_1-2" data-name="Layer 1"><path class="cls-1" d="M23.58,20.59c2.09,1.66,3.2,3.38,3.2,5a1.72,1.72,0,0,1-1.58,1.87c-.72,0-1.19-.47-1.66-1.69a14.36,14.36,0,0,0-7.49-8.07A29.5,29.5,0,0,1,5.29,26.82,20.36,20.36,0,0,1,.54,28.69c-.25,0-.54-.22-.54-.43s.11-.22.68-.44c3.46-1.33,8-4.68,11.16-8.28a33.31,33.31,0,0,0,5-7.7,11,11,0,0,0,1.3-3.27c0-.33-.25-.54-.65-.54C16.27,8,12.24,9.11,9,10.29c-.61.26-.64.26-.79.26-.32,0-.36,0-1.51-.87A1.75,1.75,0,0,1,5.72,8c0-.69.11-1,.36-1,.08,0,.15.07.18.18.22.54,1.3.94,2.56.94a59.23,59.23,0,0,0,7-1.08,7.64,7.64,0,0,0,2.88-1.19.91.91,0,0,1,.57-.21c.36,0,.79.25,2.16,1.29,1,.76,1.15.94,1.15,1.22s-.1.26-.43.47l-.75.54a51.83,51.83,0,0,1-4.83,7.92A16.63,16.63,0,0,1,23.58,20.59Z"/><path class="cls-1" d="M61,18.47a31.26,31.26,0,0,1-3.32,2.15c1.95,1.7,3.1,3.5,3.1,4.9a1.38,1.38,0,0,1-1.48,1.22c-.72,0-1-.28-1.62-1.65a15.7,15.7,0,0,0-7.09-7.2c-.21-.11-.32-.18-.32-.29a.36.36,0,0,1,.36-.29,15.87,15.87,0,0,1,3.06.94A18.14,18.14,0,0,1,57,20.05c3.57-2.84,7.24-6.77,7.24-7.7,0-.65-.83-.94-2.52-.94a63.89,63.89,0,0,0-9.61,1.26,42.75,42.75,0,0,0-6.05,1.76,2.27,2.27,0,0,1-.72.18,4.39,4.39,0,0,1-2.48-1.22A3.85,3.85,0,0,1,42,10.91c0-.4.11-.69.29-.69s.14.07.22.22a2.94,2.94,0,0,0,2.7,1.33c1.65,0,5.11-.36,11.19-1.15s6.41-.76,7.74-1.15a4.9,4.9,0,0,1,1.44-.33c.72,0,1.4.36,3.56,1.95.69.54,1,.9,1,1.36s-.25.72-1,.87a7,7,0,0,0-2.34,1c-.4.25-.47.29-2.12,1.51Z"/><path class="cls-1" d="M89.39,19.33a7.73,7.73,0,0,1-1.66.25,4.39,4.39,0,0,1-3.17-1.94,11,11,0,0,1-.25-2c0-.25.11-.43.29-.43s.18.07.29.25c.47,1,1.33,1.41,3.42,1.41a168.57,168.57,0,0,0,20.8-1.48,8.68,8.68,0,0,1,1-.07,2.4,2.4,0,0,1,1.91.79c.69.65.94,1,.94,1.33,0,.54-.72.87-1.87.87-.29,0-.69,0-1.33,0-.8-.07-3.71-.11-5.22-.11A97.69,97.69,0,0,0,89.39,19.33Z"/><path class="cls-1" d="M138.31,14.58c0,6.44.11,9.86.29,12.27.07.76.11,1.3.11,1.62,0,1.51-.54,2.63-1.3,2.63s-1.91-1.62-1.91-2.52a5.23,5.23,0,0,1,.11-.94c.29-2,.58-10,.58-17.17,0-3.38-.15-4.6-.58-5.32a1.81,1.81,0,0,0-1.73-.9c-.25,0-.36-.11-.36-.33s.11-.25.33-.36A10,10,0,0,1,136,3c.54,0,1.05.25,2.63,1.26.47.32.68.57.68.83a1.91,1.91,0,0,1-.18.68c-.57,1-.79,2.66-.86,6.69a15.44,15.44,0,0,1,7.56,2.34c1.94,1.34,2.84,2.49,2.84,3.64A1.47,1.47,0,0,1,147.2,20c-.79,0-1.19-.32-2.09-1.69a12.88,12.88,0,0,0-6.8-5.29Z"/><path class="cls-1" d="M190.44,21.27a12.2,12.2,0,0,1,2.27-.28,6.84,6.84,0,0,1,3.09,1.11,1.66,1.66,0,0,1,1,1.37.92.92,0,0,1-.9.93,4.19,4.19,0,0,1-.9-.18,48,48,0,0,0-9.21-.79,45.56,45.56,0,0,0-8.93.76,23.94,23.94,0,0,0-5,1.11c-1.26.44-1.33.47-1.73.47s-1.15-.36-2.59-1.4c-.72-.5-1-.9-1-1.33s.29-1.05.43-1.05.11,0,.15.15c.28.57,1.51.9,3.31.9,1.37,0,5.79-.29,9.75-.65.15-2.52.29-6.26.29-8,0-1.4-.39-2.16-1.26-2.48a29.33,29.33,0,0,0-4.89.9,4.23,4.23,0,0,1-1.12.18,2.12,2.12,0,0,1-1.94-1.44,4.25,4.25,0,0,1-.4-1.51c0-.15.07-.25.18-.25a.27.27,0,0,1,.22.14,3.32,3.32,0,0,0,2.34,1c.39,0,.39,0,2.88-.21,5.86-.47,8.53-.9,10.54-1.8.54-.26.58-.29.9-.29a4.83,4.83,0,0,1,2.38,1.08c.57.39.82.75.82,1.19a.68.68,0,0,1-.61.72,6.84,6.84,0,0,1-.68-.08c-.36,0-1.55-.1-2.34-.1-1.22,0-3.56.1-6.16.32.18.11.44.25.65.36a9.27,9.27,0,0,1,.87.47c.5.25.72.54.72.86a2,2,0,0,1-.26.87c-.46,1.15-.54,1.9-.82,7.84C184.17,22.07,186.69,21.78,190.44,21.27Z"/><path class="cls-1" d="M221.25,11.59a1.5,1.5,0,0,1-1.65,1.55c-.47,0-.72-.18-1.08-.83A8,8,0,0,0,213,7.88c-.22-.07-.33-.14-.33-.25s.65-.43,1.69-.43C217.8,7.2,221.25,9.39,221.25,11.59Zm-4.67,16A5.36,5.36,0,0,1,214,25.7a2.66,2.66,0,0,1-.9-2.27c0-.68.18-1.22.44-1.22s.21.07.28.25A2.57,2.57,0,0,0,216,24.3c1.48,0,5.83-2.7,11-6.84a73.18,73.18,0,0,0,6.74-6c.71-.72,2.66-2.95,3-3.39s.43-.57.61-.57a.29.29,0,0,1,.29.32c0,.58-1.59,3-3.38,5.22a55.87,55.87,0,0,1-7.71,7.77A54,54,0,0,1,218,26.71C217.33,27.32,216.94,27.57,216.58,27.57Z"/><path class="cls-1" d="M263.59,14.58c0,6.44.11,9.86.29,12.27.07.76.11,1.3.11,1.62,0,1.51-.54,2.63-1.3,2.63s-1.91-1.62-1.91-2.52a5.23,5.23,0,0,1,.11-.94c.29-2,.58-10,.58-17.17,0-3.38-.15-4.6-.58-5.32a1.81,1.81,0,0,0-1.73-.9c-.25,0-.36-.11-.36-.33s.11-.25.33-.36A10,10,0,0,1,261.32,3c.54,0,1.05.25,2.63,1.26.47.32.68.57.68.83a2.1,2.1,0,0,1-.17.68c-.58,1-.8,2.66-.87,6.69a15.44,15.44,0,0,1,7.56,2.34c1.94,1.34,2.84,2.49,2.84,3.64A1.47,1.47,0,0,1,272.48,20c-.79,0-1.19-.32-2.09-1.69a12.88,12.88,0,0,0-6.8-5.29Z"/><path class="cls-1" d="M298.87,7.13a.24.24,0,0,1-.18-.22,4.08,4.08,0,0,1,2.09-.9,4.77,4.77,0,0,1,1.87.79c1,.51,1.19.72,1.19,1a3.39,3.39,0,0,1-.07.43,19.13,19.13,0,0,0-.29,4.14c0,.61,0,1.44.07,2.52,0,.79.07,1.62.07,1.65a8.23,8.23,0,0,0,.07,1.3,2.36,2.36,0,0,1,0,.47.83.83,0,0,1-.76.86,2.32,2.32,0,0,1-2-1.73,1.27,1.27,0,0,1,0-.36,41.58,41.58,0,0,0,.17-4.6c0-3-.07-4-.39-4.5a1.68,1.68,0,0,0-1.58-.94.41.41,0,0,0-.22,0Zm10.3-1.59a.18.18,0,0,1-.11,0,.34.34,0,0,1-.29-.33c0-.32,1.55-1,2.27-1,1,0,3.38,1.55,3.38,2.23,0,.15,0,.26-.25.61-.29.54-.36.65-.43.8a10.35,10.35,0,0,0-.07,1.33c0,2.88-.18,7.45-.36,8.64-.72,5.11-4.11,9-9.58,11.08a18,18,0,0,1-4.17,1.3c-.26,0-.58-.18-.58-.36s.11-.14.47-.25a20.09,20.09,0,0,0,7.05-4c3.85-3.92,4.65-6.51,4.65-15.55l0-1.51c0-1.8-.72-3-1.83-3Z"/><path class="cls-1" d="M340,19.33a7.73,7.73,0,0,1-1.66.25,4.39,4.39,0,0,1-3.17-1.94,11,11,0,0,1-.25-2c0-.25.11-.43.29-.43s.18.07.29.25c.47,1,1.33,1.41,3.42,1.41a168.57,168.57,0,0,0,20.8-1.48,8.68,8.68,0,0,1,1-.07,2.39,2.39,0,0,1,1.9.79c.69.65.94,1,.94,1.33,0,.54-.72.87-1.87.87-.29,0-.69,0-1.33,0-.8-.07-3.71-.11-5.22-.11A97.58,97.58,0,0,0,340,19.33Z"/><path class="cls-1" d="M406.47,1.12A19.87,19.87,0,0,0,402,7.49a22.3,22.3,0,0,0,.32,18.75,19.36,19.36,0,0,0,4.14,5.69l-.72.86a18.06,18.06,0,0,1-5.4-5.94,20.18,20.18,0,0,1-2.66-10.33,20.36,20.36,0,0,1,3-10.94,18.32,18.32,0,0,1,5-5.33Z"/><path class="cls-1" d="M432.14,12.35a35.3,35.3,0,0,1-.25-4.5l0-.87,0-1.76h-4.42c-1.26,0-2.34.07-4.4.11l-.39-1.12c1.26,0,2.08.07,2.59.07,1,0,1.8.08,2.2.08h3.56L433,2.09,435.17,4c.39.32.54.57.54.82s-.22.58-.65.76l-1.26.5a19,19,0,0,0-.29,3.35,18.27,18.27,0,0,0,5.83,14,29.49,29.49,0,0,0,9.22,5.47,14.17,14.17,0,0,0-2.2,1.16,8.72,8.72,0,0,0-1,1,7.21,7.21,0,0,1-.51.54Q434,25.2,432.43,13.86a27.62,27.62,0,0,1-4.07,8.64,26,26,0,0,1-9.14,8.17A10.83,10.83,0,0,1,416,31.89a.26.26,0,0,1-.29-.25c0-.22,0-.22,1.26-.94A27.77,27.77,0,0,0,429.8,11.23Z"/><path class="cls-1" d="M457.38,22.07c2.95-.44,4-.62,5.8-1V10.51l-5.15.11L457.6,9.5l5.58.15V.47l3.06.32c.46,0,.68.25.68.61s-.14.51-.65.8l-.75.5v7H467l1.91-2.31,2.19,2.09a1.12,1.12,0,0,1,.33.68c0,.22-.25.4-.54.4h-5.36V20.66l5.25-1.15.07.65-10,3.74-.36.72a.72.72,0,0,1-.68.5.6.6,0,0,1-.51-.32ZM468,16.49l-.47-1.19,2.85.07,3.41.11h12l1.87-2.31,2.67,2.13a1,1,0,0,1,.28.61c0,.29-.18.43-.5.43H476.35l-2,3.24h12.24l1-1.51L490,20.23a.8.8,0,0,1,.28.5c0,.18-.14.29-.54.51l-.64.29-.72,3.81A22.31,22.31,0,0,1,487,29.59a4.47,4.47,0,0,1-3.88,2.66c-.36,0-.54-.18-.54-.61V31.5a4.87,4.87,0,0,0,0-.58c0-.29-.14-.43-.79-.68l-2.63-1.12.15-.61,2.48.39a9.57,9.57,0,0,0,1.48.11c1.18,0,1.72-.61,2.3-2.48a26.09,26.09,0,0,0,1.12-6.08h-2.85a28.34,28.34,0,0,1-5.54,7.77,25.63,25.63,0,0,1-5.9,4.25A5.67,5.67,0,0,1,471,33a.32.32,0,0,1-.32-.32c0-.11.07-.22.29-.32a26.85,26.85,0,0,0,10.33-11.95h-2.41l-.29.35c-3.35,4.65-4.43,5.76-7.89,8.32A12.14,12.14,0,0,1,467,31.24a.39.39,0,0,1-.32-.36c0-.18,0-.18.61-.57a29.33,29.33,0,0,0,9-9.86h-2.52a27.9,27.9,0,0,1-5.08,5.36c-1.72,1.44-2.7,2.12-3.13,2.12a.31.31,0,0,1-.29-.29c0-.18.15-.32.69-.79a28.57,28.57,0,0,0,7.74-10.51Zm7-14.08h8.53l1-1.44,2.16,1.91a1,1,0,0,1,.39.72c0,.22-.18.4-.47.5l-.54.22v8.6c0,.51-1,1.08-1.9,1.08-.25,0-.29-.11-.29-.57V12.31h-9.43v1.3c0,.32-1.08.75-1.87.75q-.33,0-.33-.21V1Zm8.89,4.47V3.28h-9.43v3.6Zm0,4.57V7.74h-9.43v3.71Z"/><path class="cls-1" d="M503.28,12.67v1.58c0,.4-.58.72-1.33.72a.59.59,0,0,1-.58-.5V7.16l2.13,1.08h3.16V5.76h-2.73c-.72,0-.9,0-4.39.11l-.4-1.12c3.74.15,3.74.15,4.79.15h2.73V.54l2.59.14c.54,0,.87.26.87.58s-.15.43-.58.76l-.83.61V4.9h4l1.66-2,2.16,1.55c.36.28.54.54.54.79a.56.56,0,0,1-.58.54h-7.74V8.24H512L513,7l1.59,1.26c.43.36.61.65.61.94s-.18.39-.47.47l-.54.14v3.89c0,.54-.65,1-1.44,1-.4,0-.58-.18-.58-.61V12.67h-3.42v2.09c4.25.83,6.2,1.91,6.2,3.45a.94.94,0,0,1-1,1.05c-.61,0-1-.26-2-1.41a8.73,8.73,0,0,0-3.21-2.34v4.22c0,.5-.61.82-1.51.82a.52.52,0,0,1-.54-.57V15.51a22.24,22.24,0,0,1-4.86,3.89,8.89,8.89,0,0,1-2.48,1.33.32.32,0,0,1-.29-.32c0-.11.07-.22.29-.36a25,25,0,0,0,7-7.38ZM507.6,24l2.91.21c.51,0,.83.29.83.65s-.11.4-.5.65l-1,.61V30.7h5.68V22H508.1c-.43,0-1.36,0-2.77.07-.47,0-1.69,0-3.09.07L501.88,21c1.54,0,2.91.07,3.45.1,1.37,0,2.34.08,2.77.08h16.45l2-2.17L529.09,21a.93.93,0,0,1,.43.68.47.47,0,0,1-.43.4H517.86V26.1h5.83L525.63,24l2.31,1.76c.43.36.54.51.54.72A.44.44,0,0,1,528,27H517.86V30.7H527l2.31-2.44,2.66,2.08c.36.26.47.44.47.69a.48.48,0,0,1-.47.54H505.55l-5.8.14-.43-1.19c1.55,0,2.81.08,3.31.11,1.41,0,2.41.07,2.92.07h2.05Zm-.94-12.2V9.11h-3.38v2.7Zm5.47,0V9.11h-3.42v2.7ZM522.75,1.12a.89.89,0,0,1,.65.79.76.76,0,0,1-.54.68l-1,.25a28.33,28.33,0,0,1-1.73,3.57h7.16l2-2.24,2.63,2a.73.73,0,0,1,.32.58c0,.32-.21.5-.57.5h-3.75a21.66,21.66,0,0,1-3.27,6.8,23.09,23.09,0,0,0,8,3.53,8.51,8.51,0,0,0-1.37,1c-.5.5-.5.5-1.11,1.18a23.79,23.79,0,0,1-6.88-4.46,19.08,19.08,0,0,1-6.3,4.17,11.82,11.82,0,0,1-2.73,1c-.18,0-.33-.11-.33-.25s0-.22,1.37-.87a19.82,19.82,0,0,0,6.66-5.4,19,19,0,0,1-3.28-5.33c-1.8,2.42-3.31,4.11-3.74,4.11a.25.25,0,0,1-.25-.25c0-.18,0-.18.39-.69a30.31,30.31,0,0,0,5-11.8Zm-3.16,6.15-.51.79a18.39,18.39,0,0,0,3.82,4.61,16,16,0,0,0,2.3-5.4Z"/><path class="cls-1" d="M551.77,1.58l2.2,1.7c.36.28.5.5.5.75a.48.48,0,0,1-.43.47h-5.69V13h1.15l1.73-1.87,2.52,2.05a.45.45,0,0,1,.18.36.29.29,0,0,1-.32.33h-5.26v8.78c3.13-.76,3.71-.9,7.42-1.91l.21.54c-4.68,2.09-7.34,3.17-11.77,4.83l-.36,1a.68.68,0,0,1-.54.47.78.78,0,0,1-.61-.36l-2-2.91c2.49-.43,2.88-.54,5.33-1.12V13.86c-2.12,0-2.45,0-4.53.11L541,12.89c2.34.07,2.7.1,5,.1V4.5c-2.19,0-2.55,0-4.71.11l-.58-1.08c2.84.07,4,.11,5.4.11h3.78Zm10.76,21.78h-3.34c-.83,0-1.05,0-4.07.11l-.68-1.12c3.67.15,3.67.15,4.75.15h3.34V17.1H557.6V19c0,.36-1,.9-1.69.9a.48.48,0,0,1-.5-.5V1.12l2.66,1.54h11.27l1.22-1.47,1.94,1.55c.47.36.69.68.69,1s-.22.5-.58.65l-.72.28V18c0,.47-.82.94-1.72.94-.33,0-.44-.14-.44-.65V17.1h-5v5.4h3.42l2.08-2.05,2.16,1.76a1,1,0,0,1,.47.75c0,.26-.18.4-.47.4h-7.66V29.7h4.31l2.09-2.34,3,2.34a.6.6,0,0,1,.32.5c0,.22-.21.36-.54.36H557.82c-1.77,0-3,0-5.58.14l-.65-1.18c2.92.14,4,.18,6.23.18h4.71Zm0-13.89V3.53H557.6V9.47Zm0,6.76v-5.9H557.6v5.9Zm7.2-6.76V3.53h-5V9.47Zm0,6.76v-5.9h-5v5.9Z"/><path class="cls-1" d="M585,9.75c3.56.15,4.86.18,6.22.18H595A37.87,37.87,0,0,0,597.78,0l2.91.9a.81.81,0,0,1,.62.65.92.92,0,0,1-.54.68l-1,.4a68.14,68.14,0,0,1-2.38,7.3h10.73l2-2.16,2.63,2.13a.62.62,0,0,1,.18.47c0,.21-.15.43-.26.43h-10.9a13.45,13.45,0,0,0,2.84,3.67h5.76l2.23-2.27,2.63,2.2a.47.47,0,0,1,.14.39c0,.36-.14.54-.36.54h-9.46c2.37,2.34,6,4.36,11,6a13.12,13.12,0,0,0-2.13,1.12c-.32.29-.75.64-1.26,1.11-4.82-2.88-6.76-4.53-9.61-8.28h-8.75a14.81,14.81,0,0,1-1.87,2.56c-.43.54-1,1.19-1.58,1.91h12.35l.93-1.37,2.27,2.19a.61.61,0,0,1,.18.44.42.42,0,0,1-.22.39l-.75.36c-.47,5.11-.94,7.27-2,9a4,4,0,0,1-2.84,1.76c-.36,0-.69-.18-.69-.36l.08-.9c0-.07-.18-.22-.29-.25l-3.78-1.37.07-.43,3.85.18a3.13,3.13,0,0,0,.47,0c1.12,0,1.4-.21,1.84-1.36.64-1.91.79-2.88,1.11-7.38H598c-1.55,5.68-2.63,7.7-5.25,9.61-1.55,1.11-5,2.77-5.8,2.77a.29.29,0,0,1-.32-.29c0-.25,0-.25,1.58-1,4.28-2.7,6.34-5.83,7.23-11h-5a33.9,33.9,0,0,1-4.61,3.45A6.48,6.48,0,0,1,584,25.2a.4.4,0,0,1-.36-.4c0-.18.21-.36.9-.83a29.89,29.89,0,0,0,8-8.64h-3.13c-1.15,0-1.19,0-5.87.15l-.36-1.19c3.31.14,4.65.18,6.23.18h3.6c.86-1.76,1-2,1.69-3.67h-3.35l-2.8.07-3,.07Zm2.7-7.81c3.09.8,5.25,2.85,5.25,5a1.35,1.35,0,0,1-1.37,1.51,1.15,1.15,0,0,1-.93-.4c-.18-.18-.18-.18-.76-2.19a6.56,6.56,0,0,0-2.34-3.53Zm15.15,12.53a21.72,21.72,0,0,1-2-3.67H597a36.87,36.87,0,0,1-1.8,3.67Zm-1-5.69a63.29,63.29,0,0,0,4.42-7.16l2.34,1.62c.29.22.43.4.43.68s-.21.54-.61.65l-1,.22-5.12,4.35Z"/><path class="cls-1" d="M625.61.25A18.27,18.27,0,0,1,631,6.19a20.09,20.09,0,0,1,2.67,10.33,20.28,20.28,0,0,1-3,10.94,18.33,18.33,0,0,1-5.07,5.33l-.72-.86a19,19,0,0,0,4.46-6.37,21.42,21.42,0,0,0,1.95-9,21.84,21.84,0,0,0-2.24-9.72,19.6,19.6,0,0,0-4.17-5.68Z"/><path class="cls-1" d="M675.21,20.77c1.37-3.67,1.37-3.67,1.59-3.67a.35.35,0,0,1,.29.32.51.51,0,0,1,0,.22c-.14.25-.68,2.09-.93,3a28.77,28.77,0,0,0-1,6.3,4.77,4.77,0,0,0,.44,2.09,2.09,2.09,0,0,1,.14.68,1.23,1.23,0,0,1-1.12,1.33c-2.05,0-4-4.78-4-9.79,0-2.37.33-4.42,1.62-10A18.62,18.62,0,0,0,672.88,7,3.61,3.61,0,0,0,671.72,4c-.1-.11-.14-.14-.14-.22s.07-.1.21-.1a3.92,3.92,0,0,1,2.17,1A4.09,4.09,0,0,1,675.65,8c0,1.18-.11,1.51-1.62,5.32-1.33,3.39-1.8,5.33-1.8,7.74s.43,4.11,1,4.11c.36,0,.58-.26.83-1.08Zm7.06-1.26a.11.11,0,0,1,0,.07,9.85,9.85,0,0,0-.1,1.15c0,3.06,2.19,4.57,6.58,4.57a20.76,20.76,0,0,0,5-.68,4.58,4.58,0,0,1,1.33-.25,1.51,1.51,0,0,1,1.66,1.47c0,1.37-1.91,2.06-5.51,2.06-3.31,0-6-.47-7.38-1.34a5.55,5.55,0,0,1-2.55-4.71c0-1.55.29-2.52.75-2.52A.2.2,0,0,1,682.27,19.51ZM694.4,9.75c0,.47-.5.8-1.44.9a51.84,51.84,0,0,1-6.19.47,5.65,5.65,0,0,1-4.39-1.65,2.74,2.74,0,0,1-.72-1.34c0-.07.11-.14.18-.14s.14,0,.21.18c.4.68,1.62,1.12,3.06,1.12a16.39,16.39,0,0,0,6.48-1.41,1,1,0,0,1,.58-.18C693,7.7,694.4,9,694.4,9.75Z"/><path class="cls-1" d="M739.33,15.91c0,4.46-2.88,8-8.21,10a39.58,39.58,0,0,1-8.49,1.91c-.4,0-.76-.25-.76-.5s.11-.15.68-.22c8.46-1.48,13.65-5.76,13.65-11.27,0-4.06-2.56-6.66-6.63-6.66a20.43,20.43,0,0,0-9.75,3.14,45.86,45.86,0,0,0-4.75,3.45c-1,.9-1.33,1.08-2,1.08a4.69,4.69,0,0,1-3.31-1.76,4.26,4.26,0,0,1-.68-2.7c0-.47.07-.61.32-.61s.14,0,.18.18a2.37,2.37,0,0,0,2.45,1.9c.86,0,1.33-.18,3.35-1.36,5.54-3.21,10.07-4.72,14.29-4.72C735.33,7.81,739.33,11.16,739.33,15.91Z"/><path class="cls-1" d="M752.9,6.3a.29.29,0,0,1-.14,0,.15.15,0,0,1-.14-.14c0-.22.61-.43,1.29-.43,2.05,0,3.93,1.58,3.93,3.31a13.06,13.06,0,0,1-.47,2.92,22.58,22.58,0,0,0-.65,5.72,10.29,10.29,0,0,0,1.66,6.3,3.21,3.21,0,0,0,2,1.44c.46,0,.57-.11,1.65-2.52,1.66-3.56,2.3-4.75,2.59-4.75a.3.3,0,0,1,.25.29,1.13,1.13,0,0,1-.14.53,23.42,23.42,0,0,0-1.62,6.45,4,4,0,0,0,.65,2.27c.22.36.25.39.25.57,0,.43-.65.87-1.33.83a7.81,7.81,0,0,1-3.78-1.58c-2.59-2-4.1-6.16-4.1-11.09,0-1.55.14-3.89.32-5.69,0-.54.07-1,.07-1.29,0-1.62-1.08-3.17-2.16-3.17Zm17.35,6.44c0-.29,1.16-.54,2.42-.54,4,0,8.17,3.82,8.17,7.49a2.2,2.2,0,0,1-2.09,2.45c-.65,0-.9-.33-.9-1.23,0-4.39-3.06-8-6.88-8C770.29,12.92,770.25,12.92,770.25,12.74Z"/><path class="cls-1" d="M814.35,5.51c3.93-1,3.93-1,4.47-1a2.65,2.65,0,0,1,1.94,1.08,3.55,3.55,0,0,1,1,1.65c0,.43-.43.72-1,.72a3,3,0,0,1-1.12-.25,9.69,9.69,0,0,0-2.62-.4,11.12,11.12,0,0,0-4.39,1c-1.91.94-3.89,3.49-4.76,6.16a25.07,25.07,0,0,0-1,7.23c0,4.43,1.69,6.12,6.23,6.12a11.61,11.61,0,0,0,2.59-.25,1.38,1.38,0,0,1,.47,0,1.84,1.84,0,0,1,1.37.61,3.32,3.32,0,0,1,.64,1.44c0,.8-.93,1.12-3.31,1.12-6.51,0-10.4-3-10.4-7.95A21.66,21.66,0,0,1,808,11.16a14.3,14.3,0,0,1,2.59-3.1.37.37,0,0,0,.18-.29.15.15,0,0,0-.14-.14c-2.06,0-9.4,2.88-11.77,4.61-1,.72-1.34.86-2,.86a5,5,0,0,1-2.7-1.47,4.23,4.23,0,0,1-.75-2.56c0-.14.07-.25.21-.25s.15,0,.22.18c.36.83,1,1.19,2.37,1.19a7,7,0,0,0,2.7-.58c5.58-1.65,8.43-2.45,12.17-3.28Z"/></g></g></svg>