<svg xmlns="http://www.w3.org/2000/svg" viewBox="0 0 827.88 48.33"><defs><style>.cls-1{fill:#fff;}</style></defs><title>top-title</title><g id="Layer_2" data-name="Layer 2"><g id="Layer_1-2" data-name="Layer 1"><path class="cls-1" d="M28.46,9.77l3.83,2.76a1.46,1.46,0,0,1,.7,1.08c0,.43-.48.81-1.08.81l-1.35.11a83.9,83.9,0,0,1-7.45,10.53,36,36,0,0,1,9.67,5.61c3,2.49,4.48,4.65,4.48,6.37,0,1.08-.65,2-1.46,2s-1.46-.7-2.64-2.64c-1.95-3.46-5.4-6.7-11-10.26A45,45,0,0,1,9,37C5.89,38.72,1.35,40.72.54,40.72A.58.58,0,0,1,0,40.18c0-.38.43-.76,1.4-1.25a51,51,0,0,0,15-10.31c5.13-5.35,9-10.85,10.9-15.55-12.58,1.78-16.25,2.48-16.57,3.24a1.71,1.71,0,0,1-.92.48,5.44,5.44,0,0,1-2.32-1.62,5.72,5.72,0,0,1-1.57-3.45c0-.49.16-.7.76-1,.91,2,1.72,2.53,3.72,2.53a29.09,29.09,0,0,0,4.32-.43c1.51-.21,3-.38,4.48-.54.65-.05,2.65-.32,8-1.08Z"/><path class="cls-1" d="M65.45,25.11a1.77,1.77,0,0,1,.59.16,26.22,26.22,0,0,1,9,4c6.15-4.59,9.07-7.45,13-12.58A94.94,94.94,0,0,0,68.26,19c-3.89.92-6.11,1.46-6.65,1.57-2,.49-2.37.7-3.34,1.57a1.43,1.43,0,0,1-.76.48c-1.3,0-4-3.62-4-5.45,0-.38.17-.54.92-.81.81,1.51,1.41,1.89,3,1.89a9.94,9.94,0,0,0,2.49-.38,220.9,220.9,0,0,1,28.29-3.19l1.46-1.45,3.78,3a1.46,1.46,0,0,1,.7,1.08c0,.48-.48.81-1.24.86l-1.24.05a98.71,98.71,0,0,1-15.5,12.05c2.48,2.32,3.62,4.26,3.62,6.37,0,1.13-.65,1.89-1.57,1.89-.59,0-1-.38-1.62-1.41a23.26,23.26,0,0,0-11.82-11Z"/><path class="cls-1" d="M109.73,26.84c-.38,0-.76-.43-2-2.49a7.14,7.14,0,0,1-1.41-3.61c0-1.19.38-1.62,1.35-1.68.43,3.35,1.89,4.11,7.78,4.11,1,0,2.43-.06,4.48-.11,5.13-.16,7.45-.22,13.23-.27s11.12-.49,12.74-1a3.6,3.6,0,0,1,.92-.16,4.42,4.42,0,0,1,2.16,1,2.27,2.27,0,0,1,1.14,1.89c0,.75-.44,1.13-1.25,1.13a10.74,10.74,0,0,1-2-.22,65.52,65.52,0,0,0-8.54-.32c-10.47,0-14.58.11-27,.81A3.3,3.3,0,0,1,109.73,26.84Z"/><path class="cls-1" d="M166.27,4.64a8.29,8.29,0,0,1,1.4-.1c1.51,0,2.48.32,4.54,1.56,1.24.76,1.72,1.3,1.72,1.89,0,.43-.37.76-1,.92-.43.16-.54.22-.54.43a1.84,1.84,0,0,0,0,.7c-.06,2.49-.06,2.76-.22,5.78l-.05,2.59L172,20.14c9.72,1.84,16.37,5.73,16.37,9.45a1.4,1.4,0,0,1-1.35,1.46c-.92,0-1.46-.38-2.92-2.11-3-3.45-6.75-5.72-12.1-7.34-.1,3.56-.1,4.32-.1,5.08V40.55c.1,1.84.1,1.84.1,2.38,0,1.67-.54,2.59-1.51,2.59s-2.16-1.62-2.16-3.13a5.8,5.8,0,0,1,.27-1.57c.49-2.1.49-2.43.49-10.09l.16-8.37c0-6.81,0-7.78.05-11.24l.06-1.89c0-2-.16-2.16-2.7-3.51l-.38-.21-.22-.11Z"/><path class="cls-1" d="M227,32c1-.05,2.16-.05,2.32-.11l3.95-.16,3.34-.11h2.06a3,3,0,0,0,2.21-.81,1.63,1.63,0,0,1,.81-.27,7.8,7.8,0,0,1,3.29,1.57c1,.7,1.46,1.3,1.46,1.89a1.19,1.19,0,0,1-1.24,1,5.94,5.94,0,0,1-1.24-.17,59.16,59.16,0,0,0-11.77-1,116.27,116.27,0,0,0-18.42,1.41c-3.29.54-3.35.54-4.86,1.29a1.69,1.69,0,0,1-.32.11c-.38,0-1-.43-2.27-1.57s-1.78-1.94-1.78-3v-.59l.7-.22c1.24,1.51,2.05,1.89,4.21,1.89a28.8,28.8,0,0,0,3.3-.27c4.48-.38,8.37-.65,11.77-.81.05-2.43.05-2.7.05-4.1,0-8.75,0-8.75-.54-9.62-.32-.48-.75-.81-2.27-1.56-2.26.27-3.07.38-4.53.54-.65.11-1.35.21-1.41.21a4.45,4.45,0,0,0-2,.54,2.7,2.7,0,0,1-1.14.44,6,6,0,0,1-2.75-1.46,3.64,3.64,0,0,1-1.46-2.81v-.49l.05-.32.81.16a4.19,4.19,0,0,0,3.95,1.95,17.43,17.43,0,0,0,2.1-.17c5.56-.64,10.64-1,16.15-1.24a12.15,12.15,0,0,0,3-.27c.43-.11.48-.16,1.78-.59a1.92,1.92,0,0,1,.59-.16c1.08,0,4,2.05,4,2.8,0,.38-.49.71-1.08.71-.32,0-.81-.06-1.3-.11-1.67-.16-3.72-.27-5.29-.27-1.35,0-6.42.16-8.37.27,2.7,1.19,3.51,1.73,3.51,2.37,0,.44-.27.76-.92,1Z"/><path class="cls-1" d="M263.84,9.4l.44.16.32,0c5.35,1.51,9.34,5,9.34,8.1a2,2,0,0,1-1.89,2.11c-.92,0-1.29-.38-2.05-2-1.78-3.83-3.4-5.67-6.7-7.61Zm38.35,4.8-.33.43c-5.83,7.78-18.47,18.58-29.54,25.22a3.74,3.74,0,0,0-1.62,1.51c-.27.6-.54.81-.81.81a8.49,8.49,0,0,1-2.54-1.62c-2.21-1.72-3.45-3.67-3.45-5.4,0-1.13.21-1.45.86-1.51A9.18,9.18,0,0,0,266,36.18a3.68,3.68,0,0,0,2.32,1.62c1,0,7-3.29,11.94-6.59,6.85-4.53,11.66-8.58,20.52-17.22l.37-.33.17-.21Z"/><path class="cls-1" d="M321.79,4.64a8.29,8.29,0,0,1,1.4-.1c1.51,0,2.48.32,4.54,1.56,1.24.76,1.72,1.3,1.72,1.89,0,.43-.37.76-1,.92-.43.16-.54.22-.54.43a1.84,1.84,0,0,0-.05.7c-.06,2.49-.06,2.76-.22,5.78l-.05,2.59-.06,1.73c9.72,1.84,16.37,5.73,16.37,9.45a1.4,1.4,0,0,1-1.35,1.46c-.92,0-1.46-.38-2.92-2.11-3-3.45-6.75-5.72-12.1-7.34-.1,3.56-.1,4.32-.1,5.08V40.55c.1,1.84.1,1.84.1,2.38,0,1.67-.54,2.59-1.51,2.59s-2.16-1.62-2.16-3.13a5.8,5.8,0,0,1,.27-1.57c.49-2.1.49-2.43.49-10.09l.16-8.37c-.05-6.81,0-7.78.05-11.24l.06-1.89c0-2-.16-2.16-2.7-3.51l-.38-.21-.22-.11Z"/><path class="cls-1" d="M387.23,11c.11,2,.27,6.27.27,7.24,0,7.34-.86,12.26-2.64,15.66q-3.48,6.48-13,10.69a18.49,18.49,0,0,1-4.54,1.51.6.6,0,0,1-.59-.59c0-.43.27-.65,1.4-1.14a32.73,32.73,0,0,0,11.23-7.5A15.07,15.07,0,0,0,383.78,28a62.42,62.42,0,0,0,.65-9.29c0-2.53-.22-8.91-.38-10S383.4,7,380.92,6.26c0-.86.59-1.18,1.94-1.18a12.92,12.92,0,0,1,4.48,1.35c.87.43,1.24.81,1.24,1.35a1.74,1.74,0,0,1-.7,1.18c-.59.54-.65.65-.65,1.19ZM373,12.58c.11,6.37.27,13.29.38,14.91,0,.64.11,1.18.11,1.56,0,.81-.54,1.57-1.08,1.57-.87,0-2.32-1.62-2.32-2.59a2.45,2.45,0,0,1,.21-.81,8.59,8.59,0,0,0,.27-2.6c0-2.7-.21-9.93-.38-12.74-.21-3-.37-3.19-2.86-3.73a.74.74,0,0,1-.11-.37c0-.44.54-.76,1.19-.76a13.2,13.2,0,0,1,5.08,1.51c.54.33.75.65.75,1s-.16.54-.7.81-.54.21-.54.65Z"/><path class="cls-1" d="M410,26.84c-.38,0-.76-.43-2.05-2.49a7.14,7.14,0,0,1-1.41-3.61c0-1.19.38-1.62,1.35-1.68.43,3.35,1.89,4.11,7.78,4.11,1,0,2.43-.06,4.48-.11,5.13-.16,7.45-.22,13.23-.27s11.12-.49,12.74-1a3.6,3.6,0,0,1,.92-.16,4.42,4.42,0,0,1,2.16,1,2.27,2.27,0,0,1,1.14,1.89c0,.75-.43,1.13-1.24,1.13a10.74,10.74,0,0,1-2-.22,65.44,65.44,0,0,0-8.53-.32c-10.48,0-14.59.11-27,.81A3.3,3.3,0,0,1,410,26.84Z"/><path class="cls-1" d="M474.23,34.34c-2.27,3.51-4,5.3-5.13,5.3-.38,0-.7-.33-1.35-1.19a1.74,1.74,0,0,0-1-.87c-2.37-1-4.1-5.07-4.1-9.5,0-10.8,9.77-19.49,21.87-19.49,10.64,0,18.74,6.8,18.74,15.76,0,5.84-4,11.34-10.43,14.48-2.75,1.35-8.53,3.13-10.09,3.13a.51.51,0,0,1-.54-.54c0-.38.27-.6,1.24-.87a41,41,0,0,0,8.85-3.72c5-3.13,7.67-7.56,7.67-13a12.6,12.6,0,0,0-6.8-11.34,21.08,21.08,0,0,0-9.61-2.38,18.1,18.1,0,0,0-2.7.22c1.83,1,3.45,2.54,3.45,3.29,0,.43-.21.7-1.13,1.46C479.74,24.25,477.31,29.48,474.23,34.34Zm5-23.7A17.87,17.87,0,0,0,472,14a16.26,16.26,0,0,0-6.8,13.66c0,3.24.65,5.51,2.05,7.29a2.82,2.82,0,0,0,1.89,1.3c1.57,0,4-3.73,6.75-10.15,2.65-6.27,4.38-11.56,4.38-13.4a2.25,2.25,0,0,0-.76-1.78Z"/><path class="cls-1" d="M533.57,1.24l3.35,3a1.27,1.27,0,0,1,.49.91.61.61,0,0,1-.6.65h-8.69v9.34h3.78l1-1.29L535.68,16c.32.21.38.32.38.59a.47.47,0,0,1-.22.43l-1,.38V46.55c0,.32-1.41,1-2.06,1-.27,0-.59-.21-.59-.32V44.39h-16v2.7c0,.65-1,1.24-2.11,1.24-.43,0-.65-.22-.65-.59V13.39l3.19,1.78h3.56V5.83H519c-1.94,0-3.07.06-5.88.16l-1.35-1.83c3.56.16,4.59.21,7.29.21h11.61ZM532.17,34V27.65c-1.19.05-2,.11-3.08.11-2.86,0-3.45-.27-3.45-1.68V16.63H522.5c-.32,7.13-1.78,10.53-6.31,14.74V34Zm-16-4.27c2.7-3.07,3.94-7.07,4-13.12h-4Zm0,13.18h16V35.48h-16Zm9.45-27.76V5.83H522.5v9.34Zm2.48,1.46v7.94c0,.54.27.65,1.84.65.1,0,.7,0,1.67-.06h.54V16.63Zm26.62-14,3.35,2.21c.38.22.54.43.54.65s-.16.38-.54.54L557,6.48v19c0,.65-1.08,1.3-2.11,1.3-.48,0-.76-.16-.76-.49V23.17H542.38v19c-.06,1.08.27,1.25,2.75,1.3.33,0,1.24.05,2.27.11,1.51.05,2.64.05,3.45.05a25.86,25.86,0,0,0,5.14-.32c.43-.16.75-.76,1.08-1.78l1.67-6.32,1.08.27-.49,5.94v.11c-.05.21.17.54.54,1,1,1,1.08,1.08,1.08,1.57,0,1.73-3.45,2.32-13.93,2.32-3.67,0-5.94-.27-6.69-.81-.54-.43-.65-1-.65-3.19V19.93L543,21.71h11.12V5.78h-7.66c-.38,0-1.41,0-2.87.11L540,5.94,538.87,4.1l4.26.17c1.35.05,2.54.05,3.24.05h7.4Z"/><path class="cls-1" d="M575.15,11.5c-3.34,0-4.32.06-7.77.22l-1.73-2c4.64.27,5.4.27,9.5.27h8.7a70.53,70.53,0,0,0,3.72-10L592,1.84a1,1,0,0,1,.65.81.58.58,0,0,1-.54.48l-2.22.33A44.37,44.37,0,0,1,587,10h20.31L610,6.75l4.1,3a1.36,1.36,0,0,1,.7,1.08c0,.43-.43.7-1.08.7H586.39A96.46,96.46,0,0,1,581.47,20l1.14.87h9.45V13.28l3.67.6c.43.11.86.48.86.86a.85.85,0,0,1-.54.65l-1.29.76V20.9h10.8l1-1.95L610,21.11a1,1,0,0,1,.59.81.58.58,0,0,1-.48.6l-1.24.43V40.5c0,.92-.71,1.67-2.49,2.54a5.55,5.55,0,0,1-2.11.75c-.48,0-.59-.1-.91-1-.16-.54-.27-.6-1-.81l-3.19-.87.06-.81,3.4.11c2.92-.27,3.4-.48,3.57-1.78V22.36H594.76v24.3c0,.54-.17.75-.76,1a5.57,5.57,0,0,1-1.46.38c-.32,0-.48-.22-.48-.54V22.36H582V43.9c0,.7-1,1.35-2.1,1.35-.33,0-.54-.21-.54-.65V23.06a44.53,44.53,0,0,1-9.45,9.39c-3,2.27-4.32,3.14-4.86,3.14a.37.37,0,0,1-.38-.38c0-.27.16-.49.7-.92,8-6.05,12.85-12.26,17.82-22.79Z"/><path class="cls-1" d="M636.61,21.28c-1.73,3.83-1.89,4.15-2.7,6.31-1.41,3.68-2.65,8.21-2.65,9.83,0,.43.11,1,.22,1.89a21.58,21.58,0,0,1,.48,3.3c0,.91-.54,1.72-1.19,1.72-.43,0-.81-.37-1.29-1.13-1.78-3-2.7-7.94-2.7-14.26,0-4.64.43-7.88,1.89-14.58a21.78,21.78,0,0,0,.81-5.07c0-2-.6-3-2.43-4.21a.56.56,0,0,1,.65-.49c2.16,0,4.91,2.7,4.91,4.81,0,.7-.11,1.13-1.13,4a47.3,47.3,0,0,0-2.92,14.9,27.46,27.46,0,0,0,.76,6.43A63.94,63.94,0,0,1,635.8,20.9Zm6.31,3.51a14.14,14.14,0,0,0-1.18,5.45c0,5.08,3.4,7,12.69,7,4.21,0,6.53-.22,8.53-.81a3.34,3.34,0,0,1,.86-.17A2.71,2.71,0,0,1,666,38.61c0,.43-.33.76-1,1a48.31,48.31,0,0,1-7.61.54c-6.81,0-10.69-.54-12.86-1.83a8.44,8.44,0,0,1-4.26-7.51,10.57,10.57,0,0,1,2-6.32Zm1.35-3.46a34.23,34.23,0,0,1,8.81-8.21h-3.14c-4.75,0-6.26-.38-9.18-2.43L641,10a18.83,18.83,0,0,0,6.65,1.08,70.67,70.67,0,0,0,11.23-1.35,3.05,3.05,0,0,1,.92-.22c.86,0,2.64,1.73,2.64,2.54s-.27.81-2.16.87c-5,.48-10.74,3.83-15.39,9Z"/><path class="cls-1" d="M679.75,21.06c1.35,0,2.7-.59,7.24-3.08,8-4.48,13.12-6.26,17.93-6.26,8.75,0,16,5.61,16,12.47,0,4.54-2.91,8.75-7.83,11.18-3,1.46-7.51,2.65-13.23,3.46a18.08,18.08,0,0,1-2.75.27c-.6,0-1-.27-1-.71s.33-.64,1.46-.81a51.84,51.84,0,0,0,9.35-2c7.12-2.37,10.74-6.42,10.74-11.93a8.9,8.9,0,0,0-4.32-7.72,14.35,14.35,0,0,0-8.05-2.54c-3.29,0-7.29,1.29-11.93,3.94a50.57,50.57,0,0,0-9,6.21,2.74,2.74,0,0,1-1.79.76c-2.8,0-6.42-2.33-6.42-4.11,0-.48.21-1,.43-1a.22.22,0,0,1,.11,0C677.81,20.52,678.73,21.06,679.75,21.06Z"/><path class="cls-1" d="M752.92,19.22a95,95,0,0,0-6.37,10.59c-2.11,4.05-3.73,7.77-3.73,8.53a3.93,3.93,0,0,0,.44,1.46,3.36,3.36,0,0,1,.27,1c0,.38-.6.86-1.08.86C741.2,41.63,739,40,737.8,38c-2.16-3.46-3.29-9.89-3.29-19.34V16.85c0-1.3,0-2.11,0-2.43,0-3.46-.32-4-3.29-5.51,0-.7.11-.86.43-.86a11.25,11.25,0,0,1,4.48,1.78c1.14.81,1.78,1.67,1.78,2.32a6,6,0,0,1-.1.7,45.28,45.28,0,0,0-1,9.56c0,6.86,1.57,13.23,3.19,13.23.59,0,.81-.32,3-3.89a92.87,92.87,0,0,1,9-13Zm8.75-8.2c4.81,3,6.91,5,9.5,8.85,2.16,3.3,3.41,6.64,3.41,9.13,0,1.4-.87,2.59-1.89,2.59-.7,0-1.19-.59-1.46-1.84-1.84-8.31-5.35-14.47-10.21-17.92Z"/><path class="cls-1" d="M815,8.48c.22,0,3.14-.54,5.94-1.08,1.41-1,1.95-1.3,2.33-1.3a9.54,9.54,0,0,1,2.37,1c1.62.76,2.22,1.35,2.22,2.11,0,.54-.44.86-1.19.86a11.74,11.74,0,0,1-1.3,0c-1-.05-1.84-.05-2.64-.05-5.41,0-9.73,1.35-13,4.05a15.74,15.74,0,0,0-5.89,12c0,4.7,3,9.35,7.62,12a17.11,17.11,0,0,0,6.8,2.11c.92,0,1.08,0,1.41.32a5.11,5.11,0,0,1,1,2.27c0,.49-.65,1-1.3,1a27.8,27.8,0,0,1-6.8-1.73C805.9,39,801.9,33.26,801.9,26.57A17.86,17.86,0,0,1,804.82,17,35,35,0,0,1,810,11.39c-13.07,2.54-16,3.24-17.82,4.22a2.73,2.73,0,0,1-1.08.32,8,8,0,0,1-2.92-1.73,4.59,4.59,0,0,1-1.89-3.4c0-.54.16-.76.76-.81.7,1.89,1.4,2.43,3.29,2.43,2.27,0,3.13-.16,16.09-2.54Z"/></g></g></svg>