<svg xmlns="http://www.w3.org/2000/svg" viewBox="0 0 360.73 34.54"><defs><style>.cls-1{fill:#343434;}</style></defs><title>standard-room-title</title><g id="Layer_2" data-name="Layer 2"><g id="Layer_1-2" data-name="Layer 1"><path class="cls-1" d="M17.33,8a4.49,4.49,0,0,0,2.45-1c.7-.54,1-.74,1.37-.74S22.51,6.81,24,8c.85.7,1.09,1,1.09,1.33s-.35.66-1.25,1.2a66.12,66.12,0,0,1-5,8.73,17.59,17.59,0,0,1,7.4,3.46c2.29,1.83,3.62,4,3.62,5.8A2.45,2.45,0,0,1,27.45,31c-.93,0-1.36-.47-2.1-2.26a18.1,18.1,0,0,0-7-8.61,34.6,34.6,0,0,1-5.72,6.23A30.91,30.91,0,0,1,2.26,32a8.87,8.87,0,0,1-1.91.47A.32.32,0,0,1,0,32.17c0-.2.23-.36,1.29-.82A34.62,34.62,0,0,0,13.82,20.72a39.13,39.13,0,0,0,4.64-8.18,10.89,10.89,0,0,0,.93-2.69c0-.31-.23-.5-.62-.5a4.58,4.58,0,0,0-1.56.35,50.93,50.93,0,0,0-6.89,2.45,3.58,3.58,0,0,1-1.17.39A4.86,4.86,0,0,1,7,11.29,2.61,2.61,0,0,1,6,9.46c0-.58.23-1.24.42-1.24s.16,0,.35.35a2.92,2.92,0,0,0,2.38.85c1.13,0,1.64-.07,5.72-.93Z"/><path class="cls-1" d="M52.62,16.43a27.18,27.18,0,0,1-4.21,3.94A12.73,12.73,0,0,1,45,22.31a.25.25,0,0,1-.23-.23c0-.16,0-.16.7-.7C49.54,18,54.06,10.09,54.06,6.23a3,3,0,0,0-1.21-2.65c-.35-.15-.43-.19-.43-.31s.82-.47,1.71-.47c1.83,0,4.48,2,4.48,3.28,0,.5-.27,1.12-1.55,3.69a1.83,1.83,0,0,0,.81.16A15.33,15.33,0,0,0,64.3,8.29a2.17,2.17,0,0,1,1.17-.42,3.46,3.46,0,0,1,1.75.93,9.49,9.49,0,0,0,.86.7c1.12.94,1.55,1.4,1.55,1.75,0,.2-.15.39-.46.63l-1.06.74a52.59,52.59,0,0,1-4.32,7c2.81,2.06,3.82,3.42,3.82,5.06a1.92,1.92,0,0,1-1.83,2.1c-.86,0-1.36-.39-2.22-1.75a18.8,18.8,0,0,0-2.1-2.61A35.9,35.9,0,0,1,48.29,32.2a25.14,25.14,0,0,1-5.72,1.87.26.26,0,0,1-.27-.27c0-.12.07-.19.31-.27,5.8-2.3,13.39-8.41,16.51-13.36A16.36,16.36,0,0,0,52.62,16.43Zm7.9,1.48A15.69,15.69,0,0,0,63,13.36a6.91,6.91,0,0,0,.67-2.26.45.45,0,0,0-.43-.47,1.28,1.28,0,0,0-.35,0,8.36,8.36,0,0,1-1.17.19c-.78.12-1.52.28-2.22.39a8.7,8.7,0,0,1-1.52.2,3.64,3.64,0,0,1-1.67-.51,47.86,47.86,0,0,1-3,4.79A23.22,23.22,0,0,1,60.52,17.91Z"/><path class="cls-1" d="M96.35,12.31a2.15,2.15,0,0,1-2.14,2.06c-.78,0-1.13-.31-1.67-1.48a11.42,11.42,0,0,0-5.69-5.22c-.31-.08-.43-.15-.43-.27,0-.31,1-.51,2.38-.51C92.58,6.89,96.35,9.62,96.35,12.31Zm17.72-5c0,.63-2.14,4.36-3.78,6.58A58.39,58.39,0,0,1,93.71,28.93a4.22,4.22,0,0,0-.74.51c-.24.19-.47.43-.74.62a1.11,1.11,0,0,1-.55.24A5.16,5.16,0,0,1,89,28.66c-1.47-1.4-2-2.22-2-3.08s.23-1.55.55-1.55c.11,0,.15,0,.35.39a3.17,3.17,0,0,0,2.29.93c2.11,0,5.73-1.91,10-5.26,5.1-4,10.75-9.46,13.12-12.61.28-.31.43-.47.59-.47A.33.33,0,0,1,114.07,7.28Z"/><path class="cls-1" d="M135,16.86a26.71,26.71,0,0,1-4.2,3.93,12.56,12.56,0,0,1-3.43,1.95.26.26,0,0,1-.24-.23c0-.16,0-.16.71-.7,4.12-3.39,8.6-11.3,8.6-15.19,0-1.25-.5-2.38-1.21-2.65-.35-.15-.42-.19-.42-.31s.81-.47,1.71-.47c1.83,0,4.48,2,4.48,3.31,0,.47-.31,1.21-1.56,3.7a1.77,1.77,0,0,0,.82.16,15.29,15.29,0,0,0,6.42-1.64,2.27,2.27,0,0,1,1.17-.43,3.5,3.5,0,0,1,1.75.94c.28.23.55.47.86.7,1.09.9,1.56,1.4,1.56,1.75s-.16.39-.47.63l-1.05.74a54.54,54.54,0,0,1-4.32,7c2.76,2.07,3.81,3.43,3.81,5.07a1.93,1.93,0,0,1-1.83,2.1c-.85,0-1.36-.39-2.22-1.75a17.39,17.39,0,0,0-2.1-2.61,36.32,36.32,0,0,1-13.16,9.77,25.17,25.17,0,0,1-5.73,1.87.27.27,0,0,1-.27-.27c0-.12.08-.2.31-.27,5.84-2.3,13.4-8.42,16.51-13.36A16.06,16.06,0,0,0,135,16.86Zm7.91,1.48a17.06,17.06,0,0,0,2.49-4.55,7.18,7.18,0,0,0,.66-2.3.44.44,0,0,0-.43-.47,1.31,1.31,0,0,0-.35,0,8.43,8.43,0,0,1-1.17.23c-.78.12-1.52.24-2.22.39a9.19,9.19,0,0,1-1.52.2,3.67,3.67,0,0,1-1.67-.51,53.16,53.16,0,0,1-3,4.79A23,23,0,0,1,142.86,18.34ZM153.33,5.45a1.62,1.62,0,0,1-1.64,1.48A1.24,1.24,0,0,1,150.45,6,6.09,6.09,0,0,0,147,3.19c-.11,0-.23-.15-.23-.23,0-.27.7-.51,1.67-.51C150.92,2.45,153.33,3.93,153.33,5.45Zm4.91-2.37a1.69,1.69,0,0,1-1.68,1.44,1.17,1.17,0,0,1-1.17-.7,5.45,5.45,0,0,0-3.46-3c-.35-.08-.47-.2-.47-.31,0-.32.78-.51,1.79-.51C155.78,0,158.24,1.52,158.24,3.08Z"/><path class="cls-1" d="M197.65,18.85c0,.78-.78,1.28-2,1.28-.35,0-1.6-.11-3.27-.27-.82-.08-2-.12-3.43-.12-9.74,0-15.5.55-18.42,1.72a1.73,1.73,0,0,1-.55.11,7,7,0,0,1-3.34-1.28,3.63,3.63,0,0,1-1.41-3.16c0-.7.2-1.09.59-1.09.11,0,.19.08.39.39.58,1,1.87,1.33,5,1.33,3,0,12.66-.59,15.34-.9a30.72,30.72,0,0,0,6.2-1.32C196,16.2,197.65,17.33,197.65,18.85Z"/><path class="cls-1" d="M221.33,24.49c0,1.37,0,2.65.08,3.12.12,1.6.16,2.88.16,3.39,0,2-.78,3.54-1.75,3.54s-2.77-2.45-2.77-3.89a11.35,11.35,0,0,1,.39-2.18A100.2,100.2,0,0,0,218,18.11c0-2.61-.2-10.17-.28-11.26-.19-2.41-.58-2.92-2.45-2.92-.19,0-.31-.07-.31-.27,0-.51,2.34-1.63,3.47-1.63.85,0,1.71.5,2.8,1.67a3.48,3.48,0,0,1,1.05,1.75c0,.27,0,.35-.54,1.52a27.84,27.84,0,0,0-.55,6.39c3.66.27,5.8.89,7.94,2.26,2,1.24,3.24,2.92,3.24,4.32A2,2,0,0,1,230.29,22a2.34,2.34,0,0,1-1.79-.82,10.83,10.83,0,0,1-1.25-1.87,13.79,13.79,0,0,0-6.11-5.17l.08,3.54,0,3.19ZM233.09,10.4A1.82,1.82,0,0,1,231.42,12c-.47,0-.74-.23-.93-.82a5.66,5.66,0,0,0-3.12-3.58c-.12-.08-.23-.19-.23-.27s.35-.31,1-.31C230.45,7.05,233.09,8.84,233.09,10.4Zm4-3.12a1.71,1.71,0,0,1-1.72,1.52c-.54,0-.81-.19-1.12-.82A5.63,5.63,0,0,0,231,5.14c-.5-.16-.66-.27-.66-.47s.7-.46,1.67-.46C234.65,4.21,237.07,5.69,237.07,7.28Z"/><path class="cls-1" d="M259.74,15.23a29.39,29.39,0,0,1-6.43,12.38,21.16,21.16,0,0,1-6.23,4.67,3.68,3.68,0,0,1-1.13.39.31.31,0,0,1-.31-.27c0-.12.12-.23.55-.55a22.68,22.68,0,0,0,7.71-10.51,25.23,25.23,0,0,0,2-8.22,3,3,0,0,0-1.67-3.07c-.16-.08-.27-.16-.27-.28,0-.31.7-.66,1.44-.66a5.44,5.44,0,0,1,3,1.25c1.09.82,2,2,2,2.53a1.76,1.76,0,0,1-.15.54,5.77,5.77,0,0,0-.28.86Zm3.54,4.44c0-7.44,0-9.47-.27-10.13a1.62,1.62,0,0,0-1-1.21c-.32-.07-.39-.11-.39-.27,0-.31,1.32-.89,2-.89s1.17.23,2.81,1.51c.74.59,1.13,1.06,1.13,1.41a2.53,2.53,0,0,1-.36,1,3.29,3.29,0,0,0-.38,1.21c-.08.78-.2,1.87-.39,4.75-.2,2.72-.36,4.59-.36,4.86s-.07.71-.07.94c0,.51.15.82.43.82a12.24,12.24,0,0,0,4.28-2A39.5,39.5,0,0,0,278,15.26,37.78,37.78,0,0,0,281.9,10c.19-.39.31-.51.5-.51a.3.3,0,0,1,.31.28c0,.74-2.06,4.59-3.73,7a37.41,37.41,0,0,1-11.65,10.71c-.58.35-.93.59-1.09.67l-.54.42a1,1,0,0,1-.59.24,1.56,1.56,0,0,1-1.05-.66,6.69,6.69,0,0,1-1.44-2.54l.62-2.18Z"/><path class="cls-1" d="M321.5,18.85c0,.78-.77,1.28-2,1.28-.35,0-1.6-.11-3.27-.27-.82-.08-2-.12-3.43-.12-9.73,0-15.5.55-18.42,1.72a1.67,1.67,0,0,1-.54.11,7,7,0,0,1-3.35-1.28,3.65,3.65,0,0,1-1.4-3.16c0-.7.19-1.09.58-1.09.12,0,.2.08.39.39.59,1,1.87,1.33,5,1.33,2.95,0,12.65-.59,15.34-.9a30.62,30.62,0,0,0,6.19-1.32C319.87,16.2,321.5,17.33,321.5,18.85Z"/><path class="cls-1" d="M342,16.63c2-4.4,2.54-6.23,2.54-7.95a2.42,2.42,0,0,0-1.17-2.22c-.12,0-.16-.07-.16-.11,0-.27.51-.47,1.17-.47,1,0,1.71.31,3,1.4,1.75,1.44,2.33,2.22,2.33,3.12,0,.23-.07.39-.39.7-1.24,1.13-7.9,11.6-9.19,14.44,5.34-.89,7.48-1.32,13.75-2.84a10.75,10.75,0,0,0-3.27-4c-.31-.23-.43-.39-.43-.58a.27.27,0,0,1,.27-.28,13,13,0,0,1,3.86,1.56c3.54,2,6.35,5.88,6.35,8.69a2.48,2.48,0,0,1-2.34,2.57c-.82,0-1.25-.51-1.75-2.07A23.3,23.3,0,0,0,354.77,24c-3.86,1.36-8.22,2.72-13.9,4.4-3,.89-3.55,1.09-4.48,1.79a1.81,1.81,0,0,1-.9.39c-.54,0-1.17-.43-2.18-1.48-1.28-1.33-1.67-1.95-1.67-2.77,0-.62.19-1.09.46-1.09.08,0,.08,0,.43.35a2.57,2.57,0,0,0,1.87.51,28.39,28.39,0,0,0,3.12-.23C339,23.05,340.24,20.64,342,16.63Z"/></g></g></svg>