<svg xmlns="http://www.w3.org/2000/svg" width="535.5" height="56.754" viewBox="0 0 535.5 56.754">
  <defs>
    <style>
      .cls-1 {
        fill: #fff;
        fill-rule: evenodd;
      }
    </style>
  </defs>
  <path id="スタンダードルーム" class="cls-1" d="M131.167,992.843c-6.72,1.407-7.552,1.535-9.408,1.535s-3.392-.576-3.9-1.407c-0.32-.576-0.32-0.576-0.576-0.576-0.32,0-.7,1.087-0.7,2.047a4.318,4.318,0,0,0,1.535,3.008A8.1,8.1,0,0,0,121.7,999.5a5.848,5.848,0,0,0,1.92-.64,85.5,85.5,0,0,1,11.327-4.032,7.476,7.476,0,0,1,2.56-.576,0.87,0.87,0,0,1,1.024.832c0,0.576-.448,1.792-1.536,4.416a63.711,63.711,0,0,1-7.615,13.442c-5.76,7.74-13.439,14.2-20.607,17.47-1.728.77-2.112,1.02-2.112,1.34a0.516,0.516,0,0,0,.576.45,14.5,14.5,0,0,0,3.136-.77,50.546,50.546,0,0,0,16.959-9.28c3.072-2.56,5.183-4.8,9.407-10.24a29.735,29.735,0,0,1,11.583,14.15c1.216,2.94,1.92,3.71,3.456,3.71a4.021,4.021,0,0,0,3.9-3.97c0-3.01-2.176-6.53-5.952-9.54a29.056,29.056,0,0,0-12.159-5.69,109.213,109.213,0,0,0,8.255-14.336c1.472-.9,2.048-1.408,2.048-1.984,0-.512-0.384-1.023-1.792-2.175-2.431-1.984-3.967-2.944-4.671-2.944-0.576,0-1.088.32-2.24,1.216a7.363,7.363,0,0,1-4.032,1.728Zm65.6,19.2c-5.12,8.13-17.6,18.18-27.134,21.95-0.384.13-.512,0.26-0.512,0.45a0.437,0.437,0,0,0,.448.45c1.152,0,5.76-1.47,9.407-3.07a59.056,59.056,0,0,0,21.631-16.07,29.932,29.932,0,0,1,3.455,4.29c1.408,2.24,2.24,2.88,3.648,2.88a3.167,3.167,0,0,0,3.008-3.46c0-2.68-1.664-4.92-6.272-8.31a87.69,87.69,0,0,0,7.1-11.524c0.64-.448.64-0.448,1.728-1.216a1.482,1.482,0,0,0,.768-1.024c0-.576-0.7-1.344-2.56-2.88-0.448-.32-0.9-0.7-1.408-1.151a5.681,5.681,0,0,0-2.88-1.536,3.664,3.664,0,0,0-1.92.7,25.276,25.276,0,0,1-10.559,2.687,3.148,3.148,0,0,1-1.344-.256c2.112-4.223,2.56-5.247,2.56-6.079,0-2.176-4.352-5.376-7.359-5.376-1.472,0-2.816.384-2.816,0.768,0,0.192.128,0.256,0.7,0.512,1.088,0.448,1.984,2.3,1.984,4.352,0,6.335-7.424,19.389-14.143,24.9-1.152.89-1.152,0.89-1.152,1.15a0.411,0.411,0,0,0,.384.38c0.64,0,3.711-1.73,5.631-3.2a44.092,44.092,0,0,0,6.912-6.46A26.612,26.612,0,0,1,196.766,1012.04Zm-9.6-7.29a77.985,77.985,0,0,0,4.991-7.876,6,6,0,0,0,2.752.832,14.716,14.716,0,0,0,2.5-.32c1.152-.192,2.368-0.448,3.648-0.64a15.406,15.406,0,0,0,1.92-.32,2.2,2.2,0,0,1,.576-0.064,0.726,0.726,0,0,1,.7.768,11.311,11.311,0,0,1-1.087,3.71,26.051,26.051,0,0,1-4.1,7.49C194.718,1006.28,192.67,1005.71,187.167,1004.75ZM233.7,990.219c-2.3,0-3.9.32-3.9,0.832,0,0.192.192,0.32,0.7,0.448,3.263,0.96,7.807,5.183,9.343,8.571,0.9,1.92,1.472,2.44,2.752,2.44a3.53,3.53,0,0,0,3.519-3.4C246.111,994.7,239.9,990.219,233.7,990.219Zm41.085,0.192a1.714,1.714,0,0,0-.96.768c-3.9,5.183-13.183,14.141-21.566,20.731-6.975,5.51-12.927,8.64-16.383,8.64-1.472,0-3.328-.77-3.776-1.53-0.32-.64-0.384-0.64-0.575-0.64-0.512,0-.9,1.21-0.9,2.56,0,1.4.9,2.75,3.327,5.05,1.856,1.73,3.456,2.69,4.48,2.69a1.832,1.832,0,0,0,.9-0.38c0.448-.32.832-0.71,1.216-1.03a7.129,7.129,0,0,1,1.216-.83,95.984,95.984,0,0,0,27.262-24.77c2.688-3.644,6.207-9.787,6.207-10.811A0.544,0.544,0,0,0,274.781,990.411Zm58.433-11.519c-1.664,0-2.944.32-2.944,0.831,0,0.192.192,0.384,0.768,0.512a8.973,8.973,0,0,1,5.7,4.928,1.894,1.894,0,0,0,1.92,1.152,2.775,2.775,0,0,0,2.751-2.368C341.405,981.387,337.374,978.892,333.214,978.892Zm-7.935,4.031c-1.6,0-2.752.384-2.752,0.832a0.57,0.57,0,0,0,.384.384c2.24,0.64,4.927,2.816,5.695,4.672a2.057,2.057,0,0,0,2.048,1.472,2.665,2.665,0,0,0,2.688-2.432C333.342,985.355,329.374,982.923,325.279,982.923Zm-11.456,29.827c-5.119,8.12-17.534,18.17-27.134,21.95-0.384.12-.512,0.25-0.512,0.44a0.437,0.437,0,0,0,.448.45c1.152,0,5.76-1.47,9.408-3.07a59.7,59.7,0,0,0,21.63-16.06,30.079,30.079,0,0,1,3.456,4.28c1.408,2.24,2.24,2.88,3.648,2.88a3.163,3.163,0,0,0,3.007-3.45c0-2.69-1.727-4.93-6.271-8.32a87.776,87.776,0,0,0,7.1-11.52c0.64-.448.64-0.448,1.728-1.216a1.482,1.482,0,0,0,.768-1.024c0-.576-0.768-1.408-2.56-2.88-0.512-.384-0.96-0.768-1.408-1.152a5.68,5.68,0,0,0-2.879-1.535,3.664,3.664,0,0,0-1.92.7,25.284,25.284,0,0,1-10.559,2.687,2.968,2.968,0,0,1-1.344-.256c2.048-4.1,2.559-5.311,2.559-6.079,0-2.176-4.351-5.44-7.359-5.44-1.472,0-2.816.384-2.816,0.768,0,0.192.128,0.256,0.7,0.512,1.152,0.448,1.984,2.3,1.984,4.352,0,6.4-7.359,19.389-14.143,24.959-1.152.89-1.152,0.89-1.152,1.15a0.411,0.411,0,0,0,.384.38c0.64,0,3.712-1.72,5.632-3.19a44.271,44.271,0,0,0,6.911-6.47A26.619,26.619,0,0,1,313.823,1012.75Zm-9.6-7.3a86.266,86.266,0,0,0,4.992-7.872,6,6,0,0,0,2.752.832,15.522,15.522,0,0,0,2.5-.32c1.152-.256,2.368-0.448,3.648-0.64a13.314,13.314,0,0,0,1.92-.384,2.2,2.2,0,0,1,.576-0.064,0.726,0.726,0,0,1,.7.768,11.548,11.548,0,0,1-1.088,3.78,27.816,27.816,0,0,1-4.1,7.48C311.776,1006.99,309.728,1006.41,304.224,1005.45Zm90.046-1.02a50.156,50.156,0,0,1-10.175,2.17c-4.416.51-20.351,1.47-25.214,1.47-5.12,0-7.232-.57-8.192-2.17a0.936,0.936,0,0,0-.64-0.64c-0.64,0-.959.64-0.959,1.79a5.95,5.95,0,0,0,2.3,5.18,11.426,11.426,0,0,0,5.5,2.11,2.464,2.464,0,0,0,.9-0.19c4.8-1.92,14.271-2.81,30.27-2.81,2.368,0,4.287.06,5.631,0.19,2.752,0.26,4.8.45,5.376,0.45,1.984,0,3.264-.83,3.264-2.11C402.334,1007.37,399.646,1005.51,394.27,1004.43ZM446.687,985.8c-1.6,0-2.752.32-2.752,0.768,0,0.32.256,0.512,1.088,0.768a9.2,9.2,0,0,1,5.248,4.672,1.846,1.846,0,0,0,1.856,1.344,2.8,2.8,0,0,0,2.816-2.5C454.943,988.235,450.975,985.8,446.687,985.8Zm-6.463,4.672c-1.024,0-1.6.192-1.6,0.512a0.8,0.8,0,0,0,.384.448,9.271,9.271,0,0,1,5.119,5.887,1.543,1.543,0,0,0,1.536,1.344,3.007,3.007,0,0,0,2.752-2.688C448.415,993.418,444.063,990.475,440.224,990.475ZM428.96,1013.19l-0.064-5.24-0.128-5.83a22.831,22.831,0,0,1,10.048,8.51c1.728,2.76,1.728,2.76,2.048,3.08a3.874,3.874,0,0,0,2.943,1.34,3.26,3.26,0,0,0,3.392-3.39c0-2.31-2.048-5.06-5.312-7.11-3.519-2.24-7.039-3.26-13.055-3.71a46.713,46.713,0,0,1,.9-10.493c0.832-1.92.9-2.048,0.9-2.5,0-.64-0.64-1.664-1.728-2.88-1.791-1.92-3.2-2.752-4.607-2.752-1.856,0-5.7,1.856-5.7,2.688a0.426,0.426,0,0,0,.512.448c3.072,0,3.712.832,4.032,4.8,0.128,1.792.448,14.205,0.448,18.5a163.089,163.089,0,0,1-.9,17.02,19.074,19.074,0,0,0-.64,3.59c0,2.36,2.88,6.4,4.544,6.4,1.6,0,2.879-2.56,2.879-5.83,0-.83-0.064-2.94-0.256-5.57-0.064-.76-0.128-2.88-0.128-5.12Zm62.272,4.16-1.023,3.59c0,0.7,1.215,2.81,2.367,4.16a2.522,2.522,0,0,0,1.728,1.08,1.65,1.65,0,0,0,.96-0.38l0.9-.7c0.256-.13.832-0.52,1.792-1.09a61.662,61.662,0,0,0,19.135-17.6c2.751-3.97,6.143-10.3,6.143-11.52a0.5,0.5,0,0,0-.512-0.448,1.034,1.034,0,0,0-.832.832,62.8,62.8,0,0,1-6.4,8.706,65.337,65.337,0,0,1-11.967,10.49c-2.56,1.73-5.888,3.27-7.04,3.27-0.448,0-.7-0.52-0.7-1.35,0-.38.064-0.89,0.128-1.53,0-.45.256-3.52,0.576-8,0.32-4.74.512-6.53,0.64-7.81a5.551,5.551,0,0,1,.64-1.984,4.235,4.235,0,0,0,.576-1.6c0-.576-0.64-1.344-1.856-2.3-2.688-2.112-3.392-2.5-4.608-2.5-1.088,0-3.263.96-3.263,1.472,0,0.256.128,0.32,0.64,0.448a2.631,2.631,0,0,1,1.6,1.983c0.384,1.088.448,4.416,0.448,16.64Zm-5.375-14.97a9.228,9.228,0,0,1,.448-1.41,2.776,2.776,0,0,0,.256-0.9c0-.892-1.536-2.812-3.328-4.156a8.875,8.875,0,0,0-4.928-2.048c-1.216,0-2.367.576-2.367,1.088a0.621,0.621,0,0,0,.448.448c1.791,0.768,2.751,2.56,2.751,5.058,0,3.2-1.088,7.81-3.263,13.5a37.28,37.28,0,0,1-12.672,17.28,1.65,1.65,0,0,0-.895.9,0.493,0.493,0,0,0,.512.44,5.977,5.977,0,0,0,1.855-.64,34.5,34.5,0,0,0,10.24-7.68,48.223,48.223,0,0,0,10.559-20.35Zm89.214,2.05a50.185,50.185,0,0,1-10.175,2.17c-4.416.51-20.351,1.47-25.214,1.47-5.12,0-7.232-.57-8.192-2.17a0.936,0.936,0,0,0-.64-0.64c-0.64,0-.96.64-0.96,1.79a5.951,5.951,0,0,0,2.3,5.18,11.426,11.426,0,0,0,5.5,2.11,2.464,2.464,0,0,0,.9-0.19c4.8-1.92,14.271-2.81,30.269-2.81,2.368,0,4.288.06,5.632,0.19,2.752,0.26,4.8.45,5.376,0.45,1.984,0,3.263-.83,3.263-2.11C583.134,1007.37,580.447,1005.51,575.071,1004.43ZM604,1021.45a44.757,44.757,0,0,1-5.12.38c-1.472,0-2.56-.25-3.072-0.83-0.576-.58-0.576-0.58-0.7-0.58-0.447,0-.767.77-0.767,1.8,0,1.34.639,2.36,2.751,4.54,1.664,1.73,2.688,2.43,3.584,2.43a2.924,2.924,0,0,0,1.472-.64c1.536-1.15,2.432-1.47,7.359-2.94,9.344-2.75,16.511-4.99,22.847-7.23a37.325,37.325,0,0,1,3.072,7.48c0.831,2.56,1.535,3.4,2.879,3.4a4.072,4.072,0,0,0,3.84-4.23c0-4.61-4.608-10.94-10.431-14.27-2.24-1.28-5.376-2.56-6.336-2.56a0.437,0.437,0,0,0-.448.45,1.268,1.268,0,0,0,.7.96,17.578,17.578,0,0,1,5.376,6.59c-10.3,2.5-13.823,3.2-22.59,4.67,2.111-4.67,13.055-21.884,15.1-23.74a1.517,1.517,0,0,0,.64-1.152c0-1.472-.96-2.751-3.839-5.119-2.176-1.792-3.264-2.3-4.992-2.3-1.088,0-1.92.32-1.92,0.768a0.285,0.285,0,0,0,.256.192,3.941,3.941,0,0,1,1.92,3.648c0,2.815-.96,5.823-4.16,13.057C608.482,1012.81,606.5,1016.78,604,1021.45Z" transform="translate(-106.656 -978.906)"/>
</svg>
