<svg xmlns="http://www.w3.org/2000/svg" viewBox="0 0 188.37 15.7"><defs><style>.cls-1{fill:#343434;}</style></defs><title>standard-room-english</title><g id="Layer_2" data-name="Layer 2"><g id="Layer_1-2" data-name="Layer 1"><path class="cls-1" d="M0,9.54H.64a8,8,0,0,0,1.64,3.64,4.85,4.85,0,0,0,3.86,1.88c2,0,3.38-1.14,3.38-2.72a2.31,2.31,0,0,0-1.38-2.1A15.78,15.78,0,0,0,5.22,9a14.16,14.16,0,0,1-3.08-1.5A3.91,3.91,0,0,1,.32,4.22c0-2.34,2.1-4.06,5-4.06A5.68,5.68,0,0,1,9.18,1.7l1-1.48.44,0,.26,5.46h-.74A6.73,6.73,0,0,0,8.5,2.22,4.65,4.65,0,0,0,5.22.8C3.46.8,2,1.9,2,3.26a2.07,2.07,0,0,0,.9,1.66,6.82,6.82,0,0,0,1.9.94C8.08,7.12,9,7.6,10.06,8.52a3.37,3.37,0,0,1,1.22,2.74c0,2.66-2.12,4.44-5.28,4.44-1.54,0-2.38-.34-4.14-1.64L.64,15.56l-.48,0Z"/><path class="cls-1" d="M15.68,5.58c1.9-.38,3-1.62,3.42-3.82h.62V5.52h2.52v.7H19.72v7.34a1,1,0,0,0,.94,1.08c.5,0,.94-.4,1.18-1.08a6.8,6.8,0,0,0,.24-1.84h.58A6.82,6.82,0,0,1,22.38,14a2.44,2.44,0,0,1-2.46,1.68,2.06,2.06,0,0,1-2.22-2.3V6.22h-2Z"/><path class="cls-1" d="M36.78,12.5a4.81,4.81,0,0,1-.2,1.82,1.9,1.9,0,0,1-2,1.3,1.6,1.6,0,0,1-1.76-1.22,5,5,0,0,1-3.08,1.16c-1.8,0-3-1-3-2.52,0-1.32.74-2.22,2.3-2.86a12.2,12.2,0,0,1,3.7-.8V8.28C32.8,6.66,32.16,6,30.7,6a2.14,2.14,0,0,0-2,1c.74.16,1.06.48,1.06,1.08a1.16,1.16,0,0,1-1.2,1.18,1.39,1.39,0,0,1-1.4-1.4c0-1.52,1.58-2.54,3.92-2.54,2.54,0,3.72.9,3.72,2.82v5.16c0,.92.1,1.16.52,1.16s.76-.4.8-1.56V12.5Zm-4-2.5a6.54,6.54,0,0,0-2.18.46,2.48,2.48,0,0,0-1.68,2.26,1.72,1.72,0,0,0,1.78,1.82,3.51,3.51,0,0,0,2.08-.88Z"/><path class="cls-1" d="M41,14.84h.34c1.1,0,1.52-.44,1.5-1.5V7.2c-.14-.9-.56-1.16-1.88-1.12V5.54a13.4,13.4,0,0,0,3.88-.44V7.28c1.4-1.46,2.34-1.94,3.8-1.94,1.78,0,2.7,1,2.7,2.88v5.1c0,1.14.32,1.5,1.4,1.52h.44v.48H47.54v-.48h.34c1.08,0,1.44-.46,1.42-1.68V8.08a1.56,1.56,0,0,0-1.62-1.6A2.79,2.79,0,0,0,46,7.1a4.56,4.56,0,0,0-1.14,1.38V13.8c0,.64.42,1,1.24,1h.52v.48H41Z"/><path class="cls-1" d="M69.12,15.18a19.15,19.15,0,0,0-4,.34V13.34c-1.12,1.68-2,2.24-3.54,2.24a3.52,3.52,0,0,1-2.9-1.4A5.78,5.78,0,0,1,57.4,10.5c0-3.06,2-5.3,4.64-5.3,1.34,0,2,.42,3.06,1.9V2.58c0-1-.52-1.42-1.68-1.44H63.2V.6l.5,0A8.5,8.5,0,0,0,67.16,0V13.1a1.31,1.31,0,0,0,1.48,1.48,4.36,4.36,0,0,0,.48,0Zm-4-6.54A4,4,0,0,0,64,6.78,2.76,2.76,0,0,0,62.16,6c-1.54,0-2.38,1.54-2.38,4.36s.78,4.2,2.32,4.2a2.72,2.72,0,0,0,2.32-1.46,4.33,4.33,0,0,0,.68-1.56Z"/><path class="cls-1" d="M83.34,12.5a4.81,4.81,0,0,1-.2,1.82,1.9,1.9,0,0,1-2,1.3A1.6,1.6,0,0,1,79.4,14.4a5,5,0,0,1-3.08,1.16c-1.8,0-3-1-3-2.52,0-1.32.74-2.22,2.3-2.86a12.2,12.2,0,0,1,3.7-.8V8.28c0-1.62-.64-2.32-2.1-2.32a2.14,2.14,0,0,0-2,1c.74.16,1.06.48,1.06,1.08a1.16,1.16,0,0,1-1.2,1.18,1.39,1.39,0,0,1-1.4-1.4c0-1.52,1.58-2.54,3.92-2.54,2.54,0,3.72.9,3.72,2.82v5.16c0,.92.1,1.16.52,1.16s.76-.4.8-1.56V12.5Zm-4-2.5a6.54,6.54,0,0,0-2.18.46,2.48,2.48,0,0,0-1.68,2.26,1.72,1.72,0,0,0,1.78,1.82,3.51,3.51,0,0,0,2.08-.88Z"/><path class="cls-1" d="M87.5,14.82h.26c1.36-.1,1.64-.48,1.56-2.18V7.52c0-1-.54-1.5-1.44-1.46H87.5V5.54a21.27,21.27,0,0,0,3.84-.44V7.2a3.84,3.84,0,0,1,2.88-1.8,1.46,1.46,0,0,1,1.54,1.42A1.31,1.31,0,0,1,94.5,8.14a1.19,1.19,0,0,1-1.18-1.2,1.11,1.11,0,0,1,.12-.54,3.3,3.3,0,0,0-2.1,3.24v3.42c0,1.52.42,1.82,2.32,1.76v.5H87.5Z"/><path class="cls-1" d="M111.69,15.18a19.3,19.3,0,0,0-4,.34V13.34c-1.12,1.68-2,2.24-3.54,2.24a3.52,3.52,0,0,1-2.9-1.4A5.78,5.78,0,0,1,100,10.5c0-3.06,2-5.3,4.64-5.3,1.34,0,2,.42,3.06,1.9V2.58c0-1-.52-1.42-1.68-1.44h-.22V.6l.5,0A8.5,8.5,0,0,0,109.72,0V13.1a1.32,1.32,0,0,0,1.49,1.48,4.36,4.36,0,0,0,.48,0Zm-4-6.54a3.92,3.92,0,0,0-1.12-1.86A2.76,2.76,0,0,0,104.72,6c-1.54,0-2.38,1.54-2.38,4.36s.78,4.2,2.32,4.2A2.72,2.72,0,0,0,107,13.12a4.33,4.33,0,0,0,.68-1.56Z"/><path class="cls-1" d="M124,14.76h.38c1.56,0,1.86-.32,1.86-1.82V2.5c0-.9-.5-1.34-1.5-1.36H124V.58h7.81c2.54,0,3.38.16,4.32.84a3.45,3.45,0,0,1,1.4,2.74,3.45,3.45,0,0,1-1.72,2.94,6.45,6.45,0,0,1-2.46.76l3.14,5.74a2.18,2.18,0,0,0,2,1.16H139v.56h-4.44l-3.69-7.38h-2.24v4.94c0,1.38.45,1.82,1.87,1.88h.5v.56h-7ZM130,7.34c3.33,0,4.71-.9,4.71-3s-1.36-3.08-3.92-3.08c-1.62,0-2.19.42-2.19,1.66V7.34Z"/><path class="cls-1" d="M152.89,10.46a4.83,4.83,0,0,1-4.83,5.16c-2.68,0-4.66-2.22-4.66-5.2a4.88,4.88,0,0,1,4.85-5.18C151,5.24,152.89,7.36,152.89,10.46Zm-7.15,0c0,3,.77,4.44,2.37,4.44s2.51-1.42,2.51-4.54A6.83,6.83,0,0,0,150,6.88a2.17,2.17,0,0,0-1.82-1C146.53,5.92,145.74,7.36,145.74,10.46Z"/><path class="cls-1" d="M166.77,10.46A4.82,4.82,0,0,1,162,15.62c-2.68,0-4.66-2.22-4.66-5.2a4.87,4.87,0,0,1,4.84-5.18C164.89,5.24,166.77,7.36,166.77,10.46Zm-7.15,0c0,3,.77,4.44,2.37,4.44s2.52-1.42,2.52-4.54a6.94,6.94,0,0,0-.58-3.48,2.2,2.2,0,0,0-1.82-1C160.41,5.92,159.62,7.36,159.62,10.46Z"/><path class="cls-1" d="M171.12,14.82h.39c1.21,0,1.52-.34,1.5-1.64V7.3c0-.94-.47-1.22-1.89-1.24v-.5A14,14,0,0,0,175,5.1V7.18c1.3-1.42,2-1.82,3.28-1.82a2.2,2.2,0,0,1,2.38,1.74A4,4,0,0,1,184,5.34c1.64,0,2.52,1,2.52,2.82V13.7c0,.8.38,1.1,1.4,1.12h.48v.5h-5.26v-.5c1.12,0,1.38-.36,1.4-1.68V8a1.41,1.41,0,0,0-1.46-1.52c-.84,0-1.46.44-2.26,1.64v5.36c0,1.06.28,1.32,1.3,1.34h.32v.5h-5.28v-.5h.4c.94,0,1.24-.34,1.24-1.34V7.92a1.33,1.33,0,0,0-1.24-1.48c-.94,0-1.76.64-2.5,1.92v5.06c0,1.08.2,1.34,1.14,1.4h.26v.5h-5.31Z"/></g></g></svg>