<svg xmlns="http://www.w3.org/2000/svg" viewBox="0 0 500.36 44.57"><defs><style>.cls-1{fill:#343434;}</style></defs><title>standard-content-title</title><g id="Layer_2" data-name="Layer 2"><g id="Layer_1-2" data-name="Layer 1"><path class="cls-1" d="M35.43,28.13c3.14,2.49,4.81,5.08,4.81,7.46a2.59,2.59,0,0,1-2.38,2.82c-1.08,0-1.78-.71-2.48-2.55A21.62,21.62,0,0,0,24.13,23.75,44.5,44.5,0,0,1,8,37.49C5.19,38.89,1.68,40.3.81,40.3.43,40.3,0,40,0,39.65s.16-.32,1-.65c5.19-2,12-7,16.77-12.44A51.32,51.32,0,0,0,25.37,15c1.41-2.86,1.95-4.27,1.95-4.92,0-.49-.38-.81-1-.81-1.89,0-7.95,1.62-12.87,3.41-.92.38-1,.38-1.19.38-.49,0-.54,0-2.27-1.3A2.63,2.63,0,0,1,8.6,9.14c0-1,.16-1.46.54-1.46.11,0,.22.11.27.27.33.81,1.95,1.41,3.84,1.41A88.53,88.53,0,0,0,23.69,7.74,11.57,11.57,0,0,0,28,6a1.41,1.41,0,0,1,.87-.32c.54,0,1.19.37,3.24,1.94C33.59,8.71,33.86,9,33.86,9.41c0,.22-.16.38-.65.71-.32.21-.54.37-1.13.81a79.24,79.24,0,0,1-7.25,11.9A24.79,24.79,0,0,1,35.43,28.13Z"/><path class="cls-1" d="M75.45,1.46A5.86,5.86,0,0,1,79.08,3C81,4.71,81.24,4.92,81.24,5.52c0,.38,0,.54-.54,1,0,0-.22.27-.43.54-.06.1-.17.21-.33.43-.43,1-.54,1.13-1.13,2.38a3.9,3.9,0,0,0,2.38.76,25.45,25.45,0,0,0,3.35-.38c2.16-.38,2.16-.38,3-.49A6.14,6.14,0,0,0,89,9.09c1.19-.76,1.4-.87,1.83-.87s.92.33,2.76,1.9c2.17,1.78,2.33,2,2.33,2.43s-.11.38-1.35.87a5.71,5.71,0,0,0-1,.48,70.68,70.68,0,0,1-6.6,10.39c3.79,2.76,5.63,5,5.63,7a2.13,2.13,0,0,1-2.11,2.27c-1.09,0-1.36-.27-2.93-2.76a18.73,18.73,0,0,0-2.86-3.84A52,52,0,0,1,65.88,40.52,44.71,44.71,0,0,1,58.52,43a.88.88,0,0,1-.86-.75c0-.17.1-.27.37-.33,8.12-2.65,18.4-10,24.13-17.09-3.41-2.76-7.3-4.87-10.06-5.41a33.6,33.6,0,0,1-6.82,5.79c-2,1.24-2.32,1.4-2.65,1.4s-.59-.27-.59-.48.11-.49,1.19-1.19c5.89-4.11,12.6-14.55,12.6-19.69A3.46,3.46,0,0,0,74.1,2.16c-.32-.1-.43-.21-.43-.32,0-.27.16-.33,1.35-.43ZM87.57,16.39A18.78,18.78,0,0,0,89,12.87a1.35,1.35,0,0,0-1.3-1.19,7.1,7.1,0,0,0-.87.11c-.38.06-1.24.16-2.27.22s-2.16.22-2.43.27c-.55.05-.92.11-1.19.11a4,4,0,0,1-2.76-1.3,57.61,57.61,0,0,1-5.36,7.57,31.39,31.39,0,0,1,11.09,3.79A46.57,46.57,0,0,0,87.57,16.39Z"/><path class="cls-1" d="M133.38,14.6a2.27,2.27,0,0,1-2.49,2.33c-.7,0-1.08-.27-1.62-1.24A12,12,0,0,0,120.94,9c-.33-.1-.49-.21-.49-.38,0-.37,1-.64,2.54-.64C128.19,8,133.38,11.31,133.38,14.6Zm-7,24c-.81,0-2.6-1.3-3.9-2.81a4,4,0,0,1-1.35-3.41c0-1,.27-1.84.65-1.84.22,0,.32.11.43.38a3.83,3.83,0,0,0,3.25,2.76c2.22,0,8.76-4.06,16.6-10.28a105.92,105.92,0,0,0,10.12-9c1.08-1.08,4-4.44,4.54-5.09s.65-.86.92-.86a.44.44,0,0,1,.43.49c0,.86-2.38,4.54-5.08,7.84a83.79,83.79,0,0,1-11.58,11.68,81.51,81.51,0,0,1-12.87,8.87C127.48,38.24,126.89,38.62,126.35,38.62Z"/><path class="cls-1" d="M186.22,20.39c-2.65,2.71-8.28,6.82-9.36,6.82a.59.59,0,0,1-.59-.49c0-.38.11-.43,1.19-1.19a37.7,37.7,0,0,0,8.11-8.44c2.76-3.89,4.54-8.22,4.54-10.82a3.34,3.34,0,0,0-1.78-3.08c-.27-.11-.38-.21-.38-.32,0-.27.11-.33,1.35-.44a7.09,7.09,0,0,1,3.52,1.19c2,1.57,2.7,2.33,2.7,2.93,0,.37-.05.54-.54,1l-.43.54a4,4,0,0,0-.32.44c-.82,1.67-.92,1.89-1.14,2.38a3.81,3.81,0,0,0,2.38.75c.49,0,2.6-.27,6.33-.86a4.64,4.64,0,0,0,1.46-.7c1.14-.76,1.41-.87,1.78-.87s1.36.54,2.93,1.95c2.21,1.94,2.21,1.94,2.21,2.38,0,.27-.21.43-.7.65a7.71,7.71,0,0,0-1.68.7,69.86,69.86,0,0,1-6.6,10.39c3.79,2.75,5.63,5,5.63,7a2.12,2.12,0,0,1-2.11,2.27c-1.08,0-1.35-.27-2.92-2.75A18.37,18.37,0,0,0,198.93,28a53.62,53.62,0,0,1-18.77,13.14c-3.14,1.24-6.76,2.38-7.73,2.38a.59.59,0,0,1-.54-.59c0-.28.1-.44.43-.55,8.22-2.65,18.12-9.35,24.18-16.49C193,23.1,189.09,21,186.38,20.45Zm.87-.7a31,31,0,0,1,11.08,3.79,55.74,55.74,0,0,0,3.68-6.06,19.43,19.43,0,0,0,1.41-3.52,1.35,1.35,0,0,0-1.3-1.19,6.74,6.74,0,0,0-.86.11c-.44,0-1.3.16-2.28.22s-2.27.21-2.43.27c-.54,0-.92.11-1.19.11a4,4,0,0,1-2.76-1.3,41.4,41.4,0,0,1-5.52,7.52Zm16.12-16.5a1,1,0,0,1,.7-.32l.38-.06a4.14,4.14,0,0,1,.7-.05,11.5,11.5,0,0,1,5.08,1.51c1.36.87,2.11,1.9,2.11,2.82A2,2,0,0,1,210.4,9c-.76,0-1.19-.38-1.68-1.3a9.89,9.89,0,0,0-5.14-4.22,2.06,2.06,0,0,1-.37-.21Zm14.49.92A2.06,2.06,0,0,1,216,6.17c-.76,0-1.08-.27-1.57-1.14a10,10,0,0,0-5-4.27c-.43-.11-.54-.16-.54-.33s.81-.43,1.73-.43C213.92,0,217.7,2.16,217.7,4.11Z"/><path class="cls-1" d="M238.14,26.23a10.74,10.74,0,0,1-2.49.38c-1.57,0-4.32-1.67-4.76-2.92a15.51,15.51,0,0,1-.38-3c0-.38.17-.65.44-.65s.27.11.43.38c.7,1.57,2,2.11,5.14,2.11a251.88,251.88,0,0,0,31.26-2.22c.49-.05,1-.1,1.46-.1a3.62,3.62,0,0,1,2.87,1.19c1,1,1.41,1.51,1.41,2,0,.81-1.08,1.3-2.81,1.3-.44,0-1,0-2-.06-1.19-.11-5.57-.16-7.84-.16C253.4,24.45,242.36,25.32,238.14,26.23Z"/><path class="cls-1" d="M305.91,19.74c.06,9.69.16,14.82.44,18.45.1,1.14.16,2,.16,2.43,0,2.28-.81,4-1.95,4s-2.87-2.43-2.87-3.78a7.9,7.9,0,0,1,.17-1.41c.43-3,.86-15,.86-25.8,0-5.09-.16-6.87-.86-8a2.94,2.94,0,0,0-2.6-1.35c-.38,0-.54-.16-.54-.49s.16-.38.49-.48a13.83,13.83,0,0,1,3.3-.92c.81,0,1.56.37,3.94,1.89.71.49,1,.86,1,1.24a3,3,0,0,1-.27,1c-.86,1.46-1.19,4-1.3,10.06a22.52,22.52,0,0,1,11.36,3.52c2.92,2,4.28,3.73,4.28,5.46a2.22,2.22,0,0,1-2.28,2.38c-1.19,0-1.84-.49-3.13-2.59a19.13,19.13,0,0,0-10.23-7.9Zm17.42-8.87a1.84,1.84,0,0,1-1.73,1.84c-.81,0-1.19-.27-1.62-1.13a9.63,9.63,0,0,0-5.25-4.39c-.22-.1-.32-.16-.32-.27s.64-.37,1.56-.37C319.76,6.55,323.33,8.65,323.33,10.87Zm5.95-3.13a1.83,1.83,0,0,1-1.73,1.83,1.55,1.55,0,0,1-1.57-1A10.09,10.09,0,0,0,320.46,4c-.16-.06-.27-.16-.27-.27s.65-.38,1.52-.38C325.6,3.3,329.28,5.46,329.28,7.74Z"/><path class="cls-1" d="M358.75,11.52c1.63.87,2.82,2,2.82,2.44,0,.21-.06.27-.49.64a4.37,4.37,0,0,0-.7,2,47,47,0,0,1-5.2,13.14c-2.92,4.81-9.35,11.09-11.41,11.09a.61.61,0,0,1-.65-.6c0-.21.16-.43.54-.64,2.22-1.41,5.3-5,7.57-8.93,2.87-4.92,5.14-12.17,5.14-16.34a3,3,0,0,0-1.78-2.92c-.27-.1-.38-.27-.38-.43s.32-.43.76-.43A9.09,9.09,0,0,1,358.75,11.52Zm7.47,9.14c0-4.76.11-7.24.11-7.35,0-1.84-.11-2.65-.44-3.14a2.85,2.85,0,0,0-1.08-.76c-.32-.05-.43-.11-.43-.32s1.08-.76,1.73-.76a6.09,6.09,0,0,1,3.46,1.51c1.41,1,1.57,1.14,1.57,1.47s0,.27-.43.75a11.29,11.29,0,0,0-1,4.33c-.16,2-.54,10.33-.54,12.17,0,.76.27,1.08.87,1.08,2,0,6.22-2.43,10.11-5.84s9-9.36,10.72-12.44c.32-.65.48-.81.7-.81a.74.74,0,0,1,.59.65c0,.7-2,4.32-4.05,7.3a48.67,48.67,0,0,1-8.39,9.36A46.68,46.68,0,0,1,372.28,33a7.14,7.14,0,0,0-3.3,2.38.68.68,0,0,1-.33.16c-.86,0-3.4-3-3.4-3.95a2.16,2.16,0,0,1,.21-.65c.6-1,.7-1.57.7-3.68Z"/><path class="cls-1" d="M410.14,26.23a10.81,10.81,0,0,1-2.49.38c-1.57,0-4.33-1.67-4.76-2.92a15.51,15.51,0,0,1-.38-3c0-.38.16-.65.43-.65s.27.11.43.38c.71,1.57,2,2.11,5.14,2.11a252,252,0,0,0,31.27-2.22c.49-.05,1-.1,1.46-.1a3.65,3.65,0,0,1,2.87,1.19c1,1,1.4,1.51,1.4,2,0,.81-1.08,1.3-2.81,1.3-.43,0-1,0-2-.06-1.19-.11-5.57-.16-7.84-.16C425.39,24.45,414.36,25.32,410.14,26.23Z"/><path class="cls-1" d="M486.78,23.85c-.65-.37-.81-.54-.81-.7s.27-.38.54-.38c1.35,0,4.11,1.3,6.6,3.09,4.16,3,7.25,7.35,7.25,10.22A2.35,2.35,0,0,1,498,38.62a2,2,0,0,1-1.57-.7c-.33-.43-.33-.49-1-2.38a26.43,26.43,0,0,0-2.6-5.57c-4.6,1.73-5.95,2.16-17.52,5.19a33.41,33.41,0,0,0-9,3.08,3.65,3.65,0,0,1-1.08.38c-.6,0-1.84-1-3.25-2.65a3.27,3.27,0,0,1-1.08-2.49,10,10,0,0,1,.27-2c.11-.43.16-.48.49-.48s.27.05.37.37c.27,1.3,1.41,1.95,3.36,1.95a24.16,24.16,0,0,0,3.57-.27c2.16-3.89,4.33-8.33,7.3-15,2.6-5.74,3-6.82,3-7.74a3.43,3.43,0,0,0-1.08-2.27c-.22-.22-.27-.27-1.3-.7-.22-.11-.27-.22-.27-.33.05-.32,1.14-.59,2.22-.59a5.8,5.8,0,0,1,3.3,1.35C484,9.41,485,10.6,485,11.36c0,.38-.16.59-.81,1.3a182.37,182.37,0,0,0-13,20.12c6.27-.92,14.39-2.54,20.77-4.11A16.31,16.31,0,0,0,486.78,23.85Z"/></g></g></svg>