<svg xmlns="http://www.w3.org/2000/svg" viewBox="0 0 447.72 33.3"><defs><style>.cls-1{isolation:isolate;}.cls-2{fill:#333;}</style></defs><title>Asset 7</title><g id="Layer_2" data-name="Layer 2"><g id="Layer_1-2" data-name="Layer 1"><g class="cls-1"><path class="cls-2" d="M0,19.83H1.15c1,3.67,1.55,4.86,2.95,6.55a8.74,8.74,0,0,0,7,3.39c3.56,0,6.08-2.05,6.08-4.9,0-1.62-.72-2.7-2.49-3.78a27.76,27.76,0,0,0-5.25-2.26,25.59,25.59,0,0,1-5.54-2.7A7,7,0,0,1,.58,10.26C.58,6.05,4.35,3,9.5,3c2.59,0,4.14.61,7,2.77l1.76-2.66.79,0,.47,9.82H18.21c-.72-3.13-1.51-4.79-2.92-6.26A8.35,8.35,0,0,0,9.39,4.1c-3.17,0-5.72,2-5.72,4.43a3.75,3.75,0,0,0,1.62,3,12.34,12.34,0,0,0,3.42,1.69c5.83,2.27,7.55,3.13,9.39,4.79a6,6,0,0,1,2.19,4.93c0,4.79-3.81,8-9.5,8-2.77,0-4.28-.61-7.44-3l-2.2,2.7-.86,0Z"/><path class="cls-2" d="M44.62,3.71h8.89v1h-.65c-2.45.11-3.31,1.15-3.35,4.1V20.91c0,3.85-.68,5.87-2.62,7.63a11.19,11.19,0,0,1-7.67,2.6A13.69,13.69,0,0,1,31.6,29c-2.09-1.47-3-3.42-3-6.48V8.46c0-2.88-.65-3.67-3.24-3.78h-.75v-1h12.3v1h-1c-2.16,0-3,.83-3.09,2.74V22.93c0,2.7.57,4.21,2,5.29A8.4,8.4,0,0,0,40,29.8c5.29,0,8.45-3.13,8.45-8.42V9c0-3.24-.82-4.25-3.41-4.32h-.4Z"/><path class="cls-2" d="M57.51,29.26l.93,0c2.09-.15,2.77-1.08,2.81-3.82V8.93c.07-3.46-.43-4.14-3.13-4.22h-.65v-1h8.78l8,20,8-20h8.63v1h-.47c-2.62-.07-3.52.94-3.52,4V25.34c0,3,.54,3.74,3.2,3.92h.54v1H79v-1h.51c2.41,0,3.2-.86,3.2-3.52V5.54l-9.61,24.7h-.79L62.51,5.54V25.38c0,3.16.76,4,3.53,3.88h.57v1h-9.1Z"/><path class="cls-2" d="M95,29.34h1.47c2,0,2.66-1.05,2.7-4.07V7.59c.07-2-1-2.91-3.49-2.88h-.61v-1H107.6v1h-.72c-2.7,0-3.42.58-3.42,2.92V25.48c0,3.28.4,3.82,3.28,3.86h.79v.9H95Z"/><path class="cls-2" d="M111.85,29.3h.93c2-.07,3-1,3-2.95v-19c-.07-1.66-1.22-2.63-3.09-2.6h-.94v-1H124v1H123c-2.09,0-2.92.69-3,2.42V18.54L130,8a3.36,3.36,0,0,0,1.08-1.95c0-.9-1-1.37-2.88-1.37h-.86v-1h11.15v1a7,7,0,0,0-5.76,2.49L127,13.07l9.32,14.07a5,5,0,0,0,4.21,2.16v.94h-12.7V29.3h1.44c1.29,0,2.16-.47,2.16-1.15a2.74,2.74,0,0,0-.51-1.37l-6.8-10.69-4.06,4.18V27c0,1.55,1.11,2.34,3.31,2.34h.47v.94h-12Z"/><path class="cls-2" d="M144.09,29.23c2.7-.11,3.42-.65,4.47-3.35L157.08,2.7H159l8.75,23c.93,2.41,2,3.49,3.52,3.56H172v1H160.1v-1h.62c1.76,0,2.62-.51,2.62-1.51a7.32,7.32,0,0,0-.57-2.38l-1.26-3.6h-10L150,25.48a4.65,4.65,0,0,0-.4,1.8c0,1.34,1.05,1.95,3.35,1.95h.36v1h-9.25Zm17-8.68-4.5-12.74-4.71,12.74Z"/><path class="cls-2" d="M192.92,3.53c1.52.5,1.52.5,1.52,1,0,1-.87,1.48-4.43,2.52-1.66,3.27-2.23,4.35-3.71,6.84a5.05,5.05,0,0,1,1.91-.43,3.93,3.93,0,0,1,2.59.93c.61.54.9,1.26,1.12,2.81,2.26-5.51,5.32-8.21,9.32-8.21,2.87,0,5,1.66,5,4,0,1.37-1,2.27-3.42,3.13a67.41,67.41,0,0,0-10,4.07c.07,2.09.11,2.67.11,3.31,0,1.59-.68,2.31-2.23,2.31-.47,0-.87-.29-.87-.62a1.43,1.43,0,0,1,0-.39,6.79,6.79,0,0,0,.07-1.15l0-1.44v-.69a13,13,0,0,0-2.48,2,4.22,4.22,0,0,0-1.23,2.7c0,1.59,1.59,2.31,5,2.31a21.67,21.67,0,0,0,5.58-.8,4.14,4.14,0,0,1,1.08-.25,2.09,2.09,0,0,1,1.54.65,3.1,3.1,0,0,1,.76,1.62c0,.79-.76,1.4-2.23,1.76a28.76,28.76,0,0,1-5.47.51,12.57,12.57,0,0,1-6.08-1.19,4.64,4.64,0,0,1-2.56-3.89c0-1.51.87-3,2.67-4.39a28.73,28.73,0,0,1,3.31-2.16v-.72l0-1.55c0-2.37-.65-3.56-1.83-3.56a4.1,4.1,0,0,0-2.63,1.58c-.4.51-2.27,3.32-3,4.57-.51.83-.94,1.23-1.44,1.23-.79,0-1.84-1.66-1.84-3,0-.54.07-.65,1.12-1.44,4.1-3.35,5.72-5.58,7.05-9.68a17,17,0,0,1-3.2.5,3.19,3.19,0,0,1-3.1-2.77.17.17,0,0,1,.15-.18.53.53,0,0,1,.29.18c.43.47,1,.65,2.33.65a9.93,9.93,0,0,0,3.82-.79,4.23,4.23,0,0,0,.14-1.12c0-1.51-.57-2.59-1.4-2.63-.18,0-.25-.07-.25-.18,0-.28,1.15-.64,2.08-.64a2.88,2.88,0,0,1,1.77.57,2.46,2.46,0,0,1,.9,2.27,4.25,4.25,0,0,1-.11.9,3.12,3.12,0,0,0,1.69-1.15Zm-.39,15.26C202,13.35,202,13.35,202,12.35a2,2,0,0,0-1.84-1.91c-2.16,0-4.32,1.65-6.12,4.68a8.91,8.91,0,0,0-1.44,3.49v.07Z"/><path class="cls-2" d="M245.93,21.45a.82.82,0,0,1,.4.65c0,.29-.18.43-.47.43h-14c3,3.24,8.49,5.69,14.72,6.59a11.3,11.3,0,0,0-3.24,3.31c-5.11-2.09-9.57-5.47-12.06-9.14v8.89c0,.18-.18.32-.57.5a7.11,7.11,0,0,1-2.05.62.48.48,0,0,1-.47-.54V24.91a37.1,37.1,0,0,1-9.93,5.87,30.55,30.55,0,0,1-5.18,1.72c-.15,0-.25-.07-.25-.21s.07-.25,1.25-.83A38.36,38.36,0,0,0,226,22.53h-5.75c-1.59,0-3,0-6.26.18l-.83-1.4c4.17.18,5.54.22,7.09.22h8V17.31h-1.48v1.08c0,.62-1.15,1.16-2.41,1.16-.46,0-.57-.15-.57-.72v-15l3.56,1.47h.47A43.66,43.66,0,0,0,228.59,0l3.49.94c.4.1.61.28.61.54s-.18.46-.65.68l-.57.29a1.47,1.47,0,0,0-.25.25c-.29.36-.54.72-.83,1s-.72.83-1,1.26l-.25.29h3.64l1.18-1.65,2.7,2.84a1.17,1.17,0,0,1,.43.76c0,.21-.18.43-.61.64l-.5.33V18c0,.47-1.37,1-2.41,1-.43,0-.61-.14-.61-.54V17.31h-1.59v4.22h9.39l2.13-2.38ZM213.3,16.59a61.54,61.54,0,0,0,8.42-3.52c1.08-.54,1.29-.65,1.47-.65a.28.28,0,0,1,.29.25c0,.36-3.17,3.31-5.94,5.51l-.14.72c-.07.65-.32.93-.79.93-.22,0-.47-.14-.79-.5ZM218,4.46a5,5,0,0,1,3.28,4.32,1.76,1.76,0,0,1-1.73,2A1.39,1.39,0,0,1,218.3,10a19.16,19.16,0,0,1-.68-1.95,6.16,6.16,0,0,0-2.45-3.56c-.29-.22-.4-.36-.4-.5s.18-.29.47-.29A11.17,11.17,0,0,1,218,4.46Zm14.9,6.12V6.26h-6.16v4.32Zm0,5.76V11.55h-6.16v4.79Zm10.57-9.72c-2.91,2.31-6.18,4.57-6.65,4.57a.19.19,0,0,1-.18-.21c0-.15.11-.33.39-.69a41.66,41.66,0,0,0,4.61-7.55L244.31,5a1.1,1.1,0,0,1,.51.79c0,.26-.26.51-.62.62Zm-2.37,6.45c2.48.82,3.92,2.19,3.92,3.78a1.57,1.57,0,0,1-1.62,1.65c-.54,0-.9-.25-1.47-1.08A17.93,17.93,0,0,0,237.4,13c-.36-.25-.43-.36-.43-.46s.15-.22.43-.22A17.12,17.12,0,0,1,241.11,13.07Z"/><path class="cls-2" d="M261.52,6.12A8.41,8.41,0,0,1,260.8,9a84,84,0,0,0-1.66,12.67c0,4.32,2.05,6.7,5.83,6.7a14.42,14.42,0,0,0,8.78-3.17,16.83,16.83,0,0,0,3.31-3.28c.07-.14.15-.17.22-.17s.18.1.18.25a13.58,13.58,0,0,1-2.09,3.74c-2.91,3.85-6.51,5.9-10.4,5.9-5.61,0-8.56-3.52-8.56-10.18,0-1.3,0-1.55.5-10.62.15-2.34.22-4,.22-4.47,0-2.55-.65-3.88-2-4a.16.16,0,0,1-.18-.14c0-.29,1-.61,1.73-.61C259.07,1.55,261.52,3.85,261.52,6.12Z"/><path class="cls-2" d="M310.21,17.49a.16.16,0,0,1-.18-.14c0-.11.07-.18.28-.29,2.2-.9,2.95-1.37,2.95-1.76a6.52,6.52,0,0,0-1.79-3.17A3.92,3.92,0,0,0,309,10.8c-1,0-1.51.9-1.51,2.73a40.45,40.45,0,0,0,.94,8.25,6.47,6.47,0,0,0,2.09,3.81,2.35,2.35,0,0,1,.17.87c0,2.8-4.82,4.93-11.08,4.93-4.57,0-6.91-1.59-6.91-4.68a10.72,10.72,0,0,1,.54-3,2,2,0,0,1-1.65.9c-1.44,0-2.52-1.73-2.52-4.14a7.43,7.43,0,0,1,2.34-5.65,4.34,4.34,0,0,1,2.88-.94,20.07,20.07,0,0,0,.21-2.62,17.76,17.76,0,0,1-4.17.64,3.1,3.1,0,0,1-3.09-1.83,5.39,5.39,0,0,1-.44-1.84.17.17,0,0,1,.15-.18c.07,0,.11.07.29.29a3.22,3.22,0,0,0,2.87,1.26A21.22,21.22,0,0,0,294.63,9c0-1.54,0-1.54,0-1.87,0-2.7-.64-4.1-1.94-4.17-.32,0-.4,0-.4-.18,0-.36,1.95-1.19,2.74-1.19a3.42,3.42,0,0,1,2.27,1.26,3.41,3.41,0,0,1,1.08,1.69,1.53,1.53,0,0,1-.15.58,18.09,18.09,0,0,0-.75,3.13,3.3,3.3,0,0,0,1.72-1.51c1.77.25,2.92.89,2.92,1.65,0,.43-.33.69-1.15,1a24.44,24.44,0,0,1-4,1.3c-.21,1.44-.29,1.76-.54,3.71a2,2,0,0,1,1.12,1.83c0,1.73-.83,4.22-2.45,7.17a7,7,0,0,0-.86,3.09c0,1.51,1.4,2.41,3.81,2.41s5.87-.57,6.95-1.18c1.29-.72,1.69-1.48,1.69-3.17,0-1,0-1-.15-4.57-.21-5.47-.21-5.47-.21-6.48,0-2.67,1-3.89,3.31-3.89,3.88,0,7.41,3.31,7.41,7a2.05,2.05,0,0,1-2,2.31c-.61-1-1.8-1.48-3.49-1.48h-.4l-.46,0a2.64,2.64,0,0,0-.47,0Zm-18.21-1a9,9,0,0,0-.65,3.56c0,1.45.44,2.34,1.12,2.34.5,0,.61-.25,1.11-2.66a19.94,19.94,0,0,0,.54-3.85c0-.61-.1-.83-.39-.86C293.22,15,292.43,15.69,292,16.52Z"/><path class="cls-2" d="M332.74,19.11a7.13,7.13,0,0,1-1.58,4.68c-1.19,1.48-2.74,2.45-3.93,2.45a1.86,1.86,0,0,1-1.8-1.8,1.5,1.5,0,0,1,1-1.44c2.95-1.33,5-3.38,5.58-5.72.07-.18.11-.22.25-.22C332.59,17.06,332.74,17.67,332.74,19.11Zm5-6.26a20.57,20.57,0,0,0-7.34,1.84,1.62,1.62,0,0,1-.86.36c-1.37,0-3.56-2.2-3.56-3.57a.65.65,0,0,1,.39-.68C327,11.73,327.77,12,330,12c1.47,0,3.49-.18,7.7-.65,0-.79-.07-1.44-.07-1.69-.11-3.93-.47-4.86-1.84-5-.32,0-.43-.07-.43-.22,0-.36,1.47-1,2.27-1a3.91,3.91,0,0,1,2.26,1c1.15.86,1.48,1.22,1.48,1.58a2.2,2.2,0,0,1-.22.76c-.43.93-.54,1.58-.61,4.06,4-.43,5.32-.72,7-1.51a2.23,2.23,0,0,1,.93-.25c1.33,0,3.64,1.47,3.64,2.34,0,.61-.54,1-1.3,1a9,9,0,0,1-1.26-.11,39.69,39.69,0,0,0-4.07-.25,34.4,34.4,0,0,0-5.07.33c0,2.08.07,6.8.25,11.15,0,1.05.08,2.06.08,2.63a4.58,4.58,0,0,1-1,2.77,2.93,2.93,0,0,1-2.23,1.26c-.58,0-.72-.14-.83-.75a8.32,8.32,0,0,0-2.73-4.83c-.18-.18-.29-.32-.29-.43a.31.31,0,0,1,.21-.25c.11,0,.26.07.61.33A15.22,15.22,0,0,0,337,25.74c.36,0,.69-.62.69-1.33Zm14.72,10.44a2,2,0,0,1-2,2.19c-.9,0-1.44-.57-1.87-2.05-.9-3.09-2.88-5.58-5.18-6.51-.33-.11-.4-.18-.4-.29s.4-.36,1-.36C348.25,16.27,352.42,19.76,352.42,23.29Zm.65-19.65A3.64,3.64,0,1,1,349.5,0,3.63,3.63,0,0,1,353.07,3.64Zm-5.87,0a2.23,2.23,0,1,0,4.46,0,2.26,2.26,0,0,0-2.19-2.24A2.23,2.23,0,0,0,347.2,3.6Z"/><path class="cls-2" d="M378.66,30.16c0,1.08-.58,1.95-1.3,1.95s-3-2-3-2.81c0-.22,0-.22.32-1.15a15.38,15.38,0,0,0,.61-4.82c.14-3.46.18-4.94.18-6.74a5,5,0,0,0-.25-2.08c-4.82,4.53-6.51,5.76-10.18,7.34a16.63,16.63,0,0,1-3.49,1.22.28.28,0,0,1-.29-.25c0-.18,0-.18.68-.5,6.62-3.39,16.34-14.15,16.34-18.14a1.53,1.53,0,0,0-.87-1.55c-.14-.07-.21-.15-.21-.22s.36-.32,1-.32a3.67,3.67,0,0,1,2.95,1.51c1.3,1.3,1.84,2.05,1.84,2.52,0,.25-.15.43-.47.61a3.66,3.66,0,0,0-1.26,1.15c-1.08,1.3-2.2,2.56-4.68,5.22.36.18.72.36.83.4,1.19.54,1.4.72,1.4,1.08,0,.21,0,.21-.32.75a10.68,10.68,0,0,0-.25,2.38s.07,3,.14,6.33.18,5,.18,5Z"/><path class="cls-2" d="M404.1,11.45a2,2,0,0,1-2,1.9c-.72,0-1-.28-1.54-1.36a10.52,10.52,0,0,0-5.26-4.83c-.29-.07-.39-.14-.39-.25,0-.29.9-.47,2.19-.47C400.61,6.44,404.1,9,404.1,11.45ZM420.47,6.8c0,.58-2,4-3.49,6.09a54.07,54.07,0,0,1-15.32,13.93,4.09,4.09,0,0,0-.69.46c-.21.18-.43.4-.68.58a1,1,0,0,1-.51.22,4.69,4.69,0,0,1-2.51-1.52c-1.37-1.29-1.88-2-1.88-2.84s.22-1.44.51-1.44c.11,0,.14,0,.32.36a2.92,2.92,0,0,0,2.12.86c2,0,5.29-1.76,9.22-4.85,4.71-3.71,9.93-8.75,12.12-11.67.25-.28.4-.43.54-.43A.31.31,0,0,1,420.47,6.8Z"/><path class="cls-2" d="M437.53,22.71c0,1.26,0,2.45.08,2.88.1,1.48.14,2.7.14,3.17,0,1.84-.72,3.24-1.62,3.24s-2.55-2.27-2.55-3.6a10.83,10.83,0,0,1,.36-2,93.56,93.56,0,0,0,.5-9.57c0-2.41-.18-9.39-.25-10.4-.18-2.23-.54-2.7-2.27-2.7-.18,0-.29-.07-.29-.25,0-.47,2.16-1.48,3.2-1.48a3.84,3.84,0,0,1,2.6,1.51,3.44,3.44,0,0,1,1,1.66c0,.25,0,.32-.51,1.4a26.52,26.52,0,0,0-.5,5.87c3.38.29,5.36.83,7.34,2.09,1.8,1.15,3,2.7,3,4a1.84,1.84,0,0,1-1.91,1.91,2.16,2.16,0,0,1-1.66-.76A10,10,0,0,1,443,18a12.66,12.66,0,0,0-5.65-4.82l.08,3.27,0,3Z"/></g></g></g></svg>