<svg xmlns="http://www.w3.org/2000/svg" viewBox="0 0 332.26 113.3"><defs><style>.cls-1{isolation:isolate;}.cls-2{fill:#333;}</style></defs><title>sumika-map-title</title><g id="Layer_2" data-name="Layer 2"><g id="Layer_1-2" data-name="Layer 1"><g class="cls-1"><g class="cls-1"><g class="cls-1"><path class="cls-2" d="M36.07,30.83c-.48,0-1.62.06-3.29.11-.49,0-1.84,0-3.4.06l-.65-1.73c3.94.16,5.72.21,7.23.27h3.46V21.87l4,.32c.76.06,1.24.49,1.24,1a1.4,1.4,0,0,1-.81,1.13l-1.24.6v4.59h2.16l2.48-3.3,3.62,2.87a1.64,1.64,0,0,1,.65,1.08.69.69,0,0,1-.65.64H42.66v3.3a18.84,18.84,0,0,1,5.35,2,4.84,4.84,0,0,1,2.75,3.94A2,2,0,0,1,48.92,42a2,2,0,0,1-1.13-.43,18.91,18.91,0,0,1-1.67-2.7,8.82,8.82,0,0,0-3.46-3.24v12.1c0,.81-1.19,1.51-2.59,1.51-.49,0-.65-.27-.65-.87V35.8a46.18,46.18,0,0,1-7,7.4C30.4,44.93,28.89,46,28.3,46a.54.54,0,0,1-.54-.54c0-.27.27-.59,1.29-1.4A43.19,43.19,0,0,0,38.5,30.83Zm6-21.92c-.32,0-2.27.05-5.13.16-.65.06-2.59.06-4.7.11l-.81-1.89c2.49.11,4.48.16,5.29.16,2.65.11,4.43.16,5.35.16H51v-7l3.89.16c.75,0,1.13.32,1.13.92a1.26,1.26,0,0,1-.43,1l-1.3,1V7.61h13l2.91-3.4,3.84,3a1.58,1.58,0,0,1,.7,1c0,.43-.27.65-.87.65H55.24c5.62,5.29,11.83,8.21,21.12,9.83a10.43,10.43,0,0,0-3.68,4.16c-8.42-3.35-14-7.35-18.36-13.23v13.6c0,.76-1.07,1.35-2.53,1.35-.54,0-.76-.27-.76-.81V11.07a66.25,66.25,0,0,1-13.82,9.34c-4,2.05-6.54,3.24-7,3.24a.46.46,0,0,1-.44-.43c0-.27.54-.65,4-2.65,5.89-3.45,9-6,14.21-11.66ZM54.05,31l-.54-1.68c5.41.22,5.67.22,7.24.22h1.57V22.3l4.43.27c.48.06.91.43.91.76a1.32,1.32,0,0,1-.7,1l-1.51.87v4.32H70l2.86-3.3,3.84,2.92a1.31,1.31,0,0,1,.59,1,.65.65,0,0,1-.7.7H65.56c1.73,4.27,6.42,8.43,12.9,11.29a9,9,0,0,0-3.67,3.4,29,29,0,0,1-9.34-11.88V48c0,.75-.81,1.13-2.43,1.13-.49,0-.7-.22-.7-.76V35.05a74.38,74.38,0,0,1-8.27,8.1c-3,2.48-5.07,3.94-5.61,3.94A.51.51,0,0,1,48,46.6c0-.21,0-.21,1.78-1.73a74.61,74.61,0,0,0,11.55-14Z"/><path class="cls-2" d="M115.18,18.36a12.47,12.47,0,0,1,8-3.46c3.83,0,6.8,2.27,6.8,5.19a3.2,3.2,0,0,1-1.4,2.86c-1.13.86-1.46,1-6.48,3a93,93,0,0,0-11.56,5.24c.16,2.37.27,4.1.27,5,0,2.7-.54,3.4-2.7,3.4-.65,0-1-.22-1-.54a1.19,1.19,0,0,1,.06-.43,43.4,43.4,0,0,0,.26-5.84c-4.64,2.76-6.53,4.92-6.53,7.35,0,2.7,2.54,3.78,8.86,3.78a31.46,31.46,0,0,0,7.94-1,4.24,4.24,0,0,1,1.4-.27c1.13,0,2.59,1.24,2.59,2.21,0,1.78-3.56,2.7-10.91,2.7-4.1,0-6.53-.43-8.8-1.62a6.42,6.42,0,0,1-3.73-5.51,6.82,6.82,0,0,1,2.76-5.07,38.77,38.77,0,0,1,6.37-4.16c0-3.84-.21-5.62-.7-6.81a2.82,2.82,0,0,0-2.54-1.89,6.3,6.3,0,0,0-3.83,2,32.84,32.84,0,0,0-4.65,5.78c-.59,1-1.19,1.51-1.78,1.51-.81,0-1.89-1.78-1.89-3.18,0-.71.22-1.08,1.3-1.89,5.83-5.08,9.39-10.32,10.42-15.34a16.69,16.69,0,0,1-4.7.92,3.35,3.35,0,0,1-2.81-1.95,6.76,6.76,0,0,1-.81-2.05.23.23,0,0,1,.22-.21s.16,0,.27.21a3.42,3.42,0,0,0,3.18,1.41,14.4,14.4,0,0,0,4.92-.87,8.72,8.72,0,0,0,.16-1.51c0-1.78-.86-2.81-2.54-2.92-.21,0-.27,0-.27-.21,0-.49,1.84-1.35,2.86-1.35,1.73,0,3.57,1.62,3.57,3.18a8.16,8.16,0,0,1-.43,2.06,7.84,7.84,0,0,0,3.45-1.84c1.84.92,2.38,1.3,2.38,1.73,0,.65-1.19,1.13-6.32,2.64a61.72,61.72,0,0,1-6.16,11.51,8.6,8.6,0,0,1,3.57-1,5.52,5.52,0,0,1,3.46,1.25c.86.81,1.34,1.72,2,3.83C111.73,22.19,113,20.25,115.18,18.36Zm2.32,7c5.19-2.86,6.27-3.51,6.92-4.05a3,3,0,0,0,1.08-1.89c0-1.35-1.62-2.7-3.3-2.7-2.8,0-6.48,2.54-8.58,6a27.5,27.5,0,0,0-3.19,6.65C112.59,28.08,113,27.86,117.5,25.38Z"/><path class="cls-2" d="M151.85,7.88h18.63c-.43-3.45-.49-4-.76-7.88L174,.27c1.08,0,1.62.38,1.62.92a1.54,1.54,0,0,1-.7,1.13l-1.51,1.19a33,33,0,0,0,.27,4.37h9.5l3-3.56,4.53,3.83a.7.7,0,0,1,.22.49.54.54,0,0,1-.54.54H173.83c.43,5.4,1.56,10.31,2.86,12.85a61.15,61.15,0,0,0,5-9.18l3.62,2.32a1.36,1.36,0,0,1,.48,1c0,.59-.43,1-1.13,1.08l-1.25.16A57.44,57.44,0,0,1,178,25a14.47,14.47,0,0,0,8.85,6.21,7.22,7.22,0,0,0,1.19-2.27l1.84-4.32.81.16L190,29.32a10.59,10.59,0,0,0-.1,1.14c0,1.13,0,1.18,1.4,3a1.79,1.79,0,0,1,.27.91c0,.54-.76.92-1.84.92a17.81,17.81,0,0,1-9.28-3.35,19,19,0,0,1-4.54-4.59c-3.13,3.08-7.18,6.21-8,6.21a.48.48,0,0,1-.49-.48c0-.27,0-.27,1.67-1.84a46.94,46.94,0,0,0,5.46-6.15c-2.32-5.08-2.92-7.56-3.94-15.88h-19.5c.06,2.38.11,3.67.11,5.24,0,7.4-1,12.2-3.56,16.58-1.57,2.64-4,5.61-4.59,5.61a.37.37,0,0,1-.38-.38c0-.32.11-.48.75-1.56a30.78,30.78,0,0,0,3.68-10,58.88,58.88,0,0,0,.7-10.47c0-2.16-.06-4.38-.16-8.43Zm-1.68,27.54a13.45,13.45,0,0,1,.49,3.51c0,4.7-2.11,8.43-4.7,8.43a1.83,1.83,0,0,1-1.78-1.78c0-.76,0-.76,2.75-3.95,1.35-1.62,1.84-2.75,2.65-6.1Zm16.21-24.08,3.5,3.13a.57.57,0,0,1,.27.49c0,.27-.16.43-.48.43H159.52c-1.41,0-1.41,0-6.81.16l-.43-1.67c3.62.16,6.05.21,7.24.21h4.37Zm-8.81,8.37h6.86l1.3-2.11,3.29,3a1,1,0,0,1,.32.65.71.71,0,0,1-.32.54l-1.24.6V29.7c0,.54-.22.81-.81,1.08a7,7,0,0,1-1.41.38.61.61,0,0,1-.64-.6V28.13h-8v2.7c0,.76-1.24,1.52-2.37,1.52-.38,0-.54-.33-.54-.92V17.71ZM178,37.53l-.37,4.37L177.5,43c0,.6.16.76,1.46,1.73.32.22.54.49.54.65A2.43,2.43,0,0,1,178,47.09c-1.35.48-5.24.75-11.12.75-4.6,0-8.11-.27-9.19-.64a2.63,2.63,0,0,1-1.94-2.54V34.24l3.56.27c1.08.05,1.68.43,1.68,1.13a1.15,1.15,0,0,1-.76,1l-1.24.64v5.24c.05,1.3.16,1.62.65,1.84a6.13,6.13,0,0,0,1.51.32h3.73l3.4.06,4.59-.11c1.73-.16,2.21-.65,3-3.3l1-4ZM164.92,26.84V21h-8v5.83Zm-2,6.37a12.1,12.1,0,0,1,5.13,1.57c1.94,1.18,3.13,2.8,3.13,4.42a2.15,2.15,0,0,1-1.89,2.33,1.72,1.72,0,0,1-1.35-.65c-.22-.22-.22-.22-1.19-2.59-.65-1.62-1.62-2.81-3.89-4.59Zm14-32.35c4.21.6,6.53,2.11,6.53,4.22A1.75,1.75,0,0,1,181.82,7c-.7,0-1.19-.38-1.68-1.3a8.11,8.11,0,0,0-3.45-4ZM181,35.59c3.24,1.35,4.1,1.83,5.51,3,2.64,2.1,4,4.32,4,6.31A2,2,0,0,1,188.68,47c-.92,0-1.41-.64-2.16-2.59a19.52,19.52,0,0,0-5.78-8Z"/><path class="cls-2" d="M243.59,35.1c0,.92-1.24,3-3.07,5-4.22,4.81-9.13,7.18-14.8,7.18-3.83,0-6.86-1.13-9-3.4-2.27-2.43-3.24-5.61-3.24-10.53,0-3.24.06-3.94,1.08-18,.33-4.54.33-4.54.33-5.19,0-3.45-.81-4.91-2.65-4.91-.32,0-.49-.11-.49-.27,0-.6,1.14-1.08,2.38-1.08,2.76,0,5.4,3.13,5.4,6.48,0,.81,0,.86-.81,4.1A116,116,0,0,0,216.43,33c0,7.56,3,11,9.72,11A20,20,0,0,0,238,39.58a21.25,21.25,0,0,0,4.59-4.43c.22-.37.43-.54.65-.54S243.59,34.83,243.59,35.1Zm-8-18.25a1.94,1.94,0,0,1-1.83,1.89c-.6,0-.87-.22-1.3-1a9,9,0,0,0-5.4-4.32c-.32-.05-.43-.11-.43-.27s.92-.38,2.11-.38C232,12.74,235.6,14.9,235.6,16.85Zm6.32-2.49a2.06,2.06,0,0,1-1.94,2c-.65,0-.87-.21-1.52-1.29a9.72,9.72,0,0,0-5.72-4.43.25.25,0,0,1-.27-.22c0-.21.86-.43,2.05-.43C238.2,10,241.92,12.2,241.92,14.36Z"/><path class="cls-2" d="M286.74,42.23c2.43-1.19,3.46-2,4.48-3.67a11.62,11.62,0,0,0,1.62-5.94c0-5.35-3-8.32-8.31-8.32-5,0-8.43,1.73-11.94,6a25.34,25.34,0,0,0-4,6.38,2.08,2.08,0,0,1-1.94,1.45c-.92,0-2.32-1.62-2.32-2.75,0-.59.43-1.3,1.51-2.38,7.13-7.39,7.61-8,15.33-18.25,3.14-4.05,3.19-4.1,3.19-5a1.15,1.15,0,0,0-1.19-1.24c-1.67,0-3,.7-8.53,4.59-1,.76-1.51,1-2,1A4.13,4.13,0,0,1,270,12.53a4.27,4.27,0,0,1-1-2.92c0-1,.11-1.29.43-1.29.16,0,.16,0,.27.48a1.92,1.92,0,0,0,2,1.35c2.22,0,8.8-2.32,11.18-3.94a2.49,2.49,0,0,1,1.84-.65c2.16,0,6,2.59,6,4.11a1.23,1.23,0,0,1-.86,1.18c-2.33,1-5.35,3.73-9.78,8.7-2.64,3-3.4,3.94-3.4,4.37,0,.22.16.49.32.49a.9.9,0,0,0,.27-.11.69.69,0,0,0,.27-.11l.76-.32a20.1,20.1,0,0,1,7.78-1.62c6.37,0,10.9,4.37,10.9,10.47A11.29,11.29,0,0,1,293,41.63a18.83,18.83,0,0,1-11.66,4,10.42,10.42,0,0,1-6.48-2,3.86,3.86,0,0,1-1.46-3.24c0-2.49,2.11-4.11,5.29-4.11,3.62,0,6.27,1.78,7.83,5.35l.06.16Zm-3.46.81c-.59-3.3-2.16-5-4.64-5a2.19,2.19,0,0,0-2.48,2.16c0,1.78,2,3,5.18,3a9.18,9.18,0,0,0,1.62-.11Z"/><path class="cls-2" d="M.27,98a20.8,20.8,0,0,1,3.94.54l12.48-25,.81.43L8.15,98.72a8.71,8.71,0,0,0-.86,3.3,17,17,0,0,0,.54,3.34,22.91,22.91,0,0,1,.7,4.22,2.41,2.41,0,0,1-2.64,2.7c-1.46,0-2.27-1-2.27-2.65,0-.54.11-1.67.27-3a16.55,16.55,0,0,0,.16-2.32c0-2.86-1.19-4.43-4-5.4ZM.54,78.31A36.59,36.59,0,0,1,4.7,79.82a5.81,5.81,0,0,1,3.4,4.86,2.17,2.17,0,0,1-2,2.38,1.9,1.9,0,0,1-1.46-.7c-.27-.27-.27-.27-1.51-4A7.5,7.5,0,0,0,.27,79Zm3.73-12.2A15.55,15.55,0,0,1,8.8,67.35c2.43,1.13,4.11,3.18,4.11,5a2.21,2.21,0,0,1-2.22,2.38c-1.13,0-1.56-.49-2.48-3.24A7.74,7.74,0,0,0,4.1,66.59Zm20.62,3.18H39L40.5,66.7l3.94,3.35a1.27,1.27,0,0,1,.49.86c0,.33-.22.6-.65.76L43,72.21V88.14c0,.7-.06.86-.59,1.13A6.57,6.57,0,0,1,40,90c-.38,0-.59-.27-.59-.76V86.14h-9c2.7,10.15,9.18,17.39,19.49,21.65a9.29,9.29,0,0,0-.92.6,8.8,8.8,0,0,0-3.67,3.08c-9.45-6.11-13.82-13-16.31-25.33H23.81c-.37,8-.81,10.8-2.1,14.2a27.19,27.19,0,0,1-8.53,11.13c-1,.81-1.35,1-1.68,1a.39.39,0,0,1-.43-.43c0-.27,0-.27,1.51-1.94a32.15,32.15,0,0,0,5.51-9.35c1.62-4.53,2.32-11.34,2.32-22.78,0-2.92-.05-5.46-.27-11.13ZM39.37,84.84V70.59H23.81c.11,4.59.11,6.37.11,8.26,0,1.51-.05,3.08-.11,6Z"/><path class="cls-2" d="M64.69,76c.92.11,1.46.59,1.46,1.24a1.26,1.26,0,0,1-.76,1.08l-1,.59v26.84H78.25V65.94l4.59.44c1,.1,1.51.54,1.51,1.29,0,.49-.33.81-1,1.24l-1.19.6v36.23H96.77V75.5l5.13.54c.76.11,1.13.49,1.13,1.14a1.23,1.23,0,0,1-.75,1.13l-1.62.86v30.68c0,1.13-1.24,1.94-3,1.94-.64,0-.86-.27-.86-1V107H64.37v3.83c0,1-1.08,1.78-2.65,1.78-.75,0-1.19-.27-1.19-.75V75.56Z"/><path class="cls-2" d="M139.64,74.75a50.79,50.79,0,0,1,.76,6.53c0,5.45-2.48,11.88-6.59,17.17-3.13,4-6,6-8.85,6a4.84,4.84,0,0,1-3.73-2,12.61,12.61,0,0,1-2.81-8.53c0-11.45,9.94-20.85,22-20.85,10.7,0,18.15,6.7,18.15,16.31,0,8.59-5.08,15.55-13.61,18.63a32.72,32.72,0,0,1-7.4,1.78c-.38,0-.7-.27-.7-.48s.16-.22.92-.44a24.43,24.43,0,0,0,10.2-5.34c3.89-3.35,6.16-8.86,6.16-15.07,0-5-1.57-8.64-4.64-11a14,14,0,0,0-8.37-2.81Zm-2.16.21a19.22,19.22,0,0,0-15.82,19.12c0,4,1.51,7,3.57,7,2.32,0,6.64-4.38,9.28-9.4,2.11-4.1,3.78-9.66,3.78-12.74a10.7,10.7,0,0,0-.7-3.73Z"/><path class="cls-2" d="M185.92,66.54c.65.27,1,.65,1,1.13s-.27.76-.81,1l-1,.48c-1.46,4.54-2.06,6.16-3.3,9.18l1.14.38c.59.16.86.49.86.92s-.27.7-.76,1l-.7.33v2.16h16.53v-17l4.64.43c.81,0,1.24.43,1.24,1s-.32.87-1,1.19l-1,.54V83.12h9.07l3.67-4L220,82.68a1.49,1.49,0,0,1,.59,1,.74.74,0,0,1-.81.7H202.83v23.92H211l3.46-3.67,3.83,3a2,2,0,0,1,.76,1.3c0,.48-.49.75-1.36.75H193.81c-.92,0-2.06,0-3.46.06l-3.56.11-.65-1.73c4.21.16,5.83.21,7.61.21h5.19V84.41H182.41V111c0,1.08-1.35,2-2.86,2-.49,0-.76-.22-.76-.6V84.9c-2.21,4.26-6.75,10.2-7.72,10.2a.47.47,0,0,1-.48-.43c0-.27.21-.7,1.4-2.48,4.54-6.81,8.69-18.63,9.56-27.38Z"/><path class="cls-2" d="M236.36,64.27l3.78.27c1.08,0,1.67.49,1.67,1.19a1.44,1.44,0,0,1-.86,1.19l-1.3.81v9.88h1.57l2.16-2.76,3.4,2.65a.9.9,0,0,1,.27.65c0,.43-.22.75-.43.75h-7V89l6.16-2.54.43.81-6.59,4v18.25a4.52,4.52,0,0,1-3.83,3.78c-.49,0-.81-.43-.87-1.19,0-1.13-.16-1.29-1-1.67l-4-1.4,0-.76,4.37.11.22,0c1.08.11,1.73-.43,1.73-1.35V93.16L233.23,95,233,96c-.16.6-.54,1-1,1a.93.93,0,0,1-.7-.37l-2.92-3.35c3.78-1.35,4.37-1.51,7.94-3V78.9c-3.46.06-4,.06-7.45.17l-.54-1.68c3.83.16,4.42.16,8,.22ZM250.83,95.1c-3.13.06-3.62.06-7,.17l-.59-1.62c3.78.16,4.32.16,7.56.16V85.44l3.78.43c.86.11,1.3.38,1.3.81a1.47,1.47,0,0,1-.76,1.13l-1.19.71v5.29h2.7l2.27-2.76,3.4,2.7a1.33,1.33,0,0,1,.33.76c0,.32-.44.59-.92.59H254v9.4l8.8-1.24.06,1-16,4.22-.7,1.08a.93.93,0,0,1-.81.54c-.33,0-.6-.22-.92-.6l-2.48-3.83c4.26-.27,4.91-.38,9-.81Zm0-20.35-5.56.1-.76-1.62c3.08.17,3.57.17,6.32.22V64.92l4.27.59a.91.91,0,0,1,.86,1,1.14,1.14,0,0,1-.7,1l-1.3.7v5.29h2.92l2.21-2.86,3.41,3.13a.72.72,0,0,1,.26.49.51.51,0,0,1-.54.54H254V83h3.24l2.59-3.19,3.41,2.76a1.21,1.21,0,0,1,.43.91.73.73,0,0,1-.65.81h-12.8c-.65,0-1.67,0-2.91.06l-4.22.11-.54-1.68c4.05.16,4.65.22,8.32.22Zm18.52-9.83a1.15,1.15,0,0,1,1,1.08,1.29,1.29,0,0,1-.81,1l-1.14.65v15.6c4.11,2,5.73,3,7.51,5A5.74,5.74,0,0,1,277.56,92c0,1.45-.86,2.64-2,2.64-.75,0-1.24-.7-2.1-3.18-.87-2.27-1.79-3.51-5-6.65v26.63c0,.7-.21.91-1.08,1.29a4,4,0,0,1-1.45.38.72.72,0,0,1-.81-.81V64.43Z"/><path class="cls-2" d="M293.92,69.56c2.92.87,5.24,3.4,5.24,5.78,0,.92-.32,2-1.57,5.51-2.43,6.8-2.8,8.42-2.8,12.31,0,3.35.91,6.91,1.78,6.91.16,0,.38-.21.54-.7.59-1.57,1.78-4.21,4.27-9.56.75-1.56.86-1.78,1.24-1.78a.7.7,0,0,1,.48.54,1.52,1.52,0,0,1-.27.76c-1.45,2.53-3.4,9.77-3.4,12.47a15.4,15.4,0,0,0,.49,3.08,1.66,1.66,0,0,1,.21.65c0,.54-1.13,1.4-1.83,1.4-1.3,0-3.08-1.73-4.11-3.89a22.19,22.19,0,0,1-2-9.18c0-3,.44-6,1.68-11.93A40.33,40.33,0,0,0,295,74.37c0-2.43-.75-3.94-2.16-4.43-.11,0-.16,0-.16-.16a.46.46,0,0,1,.43-.43.62.62,0,0,1,.27.05Zm21.33.87a.86.86,0,0,1-.32,0,.25.25,0,0,1-.27-.22c0-.48,2.59-1.83,3.51-1.83a7.81,7.81,0,0,1,3.78,1.4c1.19.7,1.56,1.08,1.56,1.73a.93.93,0,0,1-.16.54,18.6,18.6,0,0,0-.54,5.51c0,.54,0,1.19.06,2.1a12.47,12.47,0,0,0,5.29-3.18c.32-.33.49-.43.76-.43a8.59,8.59,0,0,1,2.59.86,1.41,1.41,0,0,1,.75,1.08c0,1.3-3,2.92-8.85,4.75.21,3.73.27,5.46.27,7.78,0,8.75-2.16,14.36-6.75,17.6-2.65,1.89-7.67,4-9.29,4-.38,0-.6-.16-.6-.43s.17-.49.65-.65a17.25,17.25,0,0,0,8.43-5.88c3-4,4.1-8.75,4.1-17.72,0-.54,0-2.26-.05-4.05a29.54,29.54,0,0,1-5.35.81,7.62,7.62,0,0,1-5.4-2.64,4.69,4.69,0,0,1-1-1.68c0-.16.16-.27.38-.27s.32.11.59.38a5.36,5.36,0,0,0,4.37,1.73,19.7,19.7,0,0,0,6-1.19c-.21-4.91-.43-7.13-.81-8a3.88,3.88,0,0,0-3.29-2.16Z"/></g></g></g></g></g></svg>