<svg xmlns="http://www.w3.org/2000/svg" viewBox="0 0 662.36 112.41"><title>sumika-enjoy-more-title-sp</title><path d="M4.59,5.35h30L38,1.78l4.15,3.4a1.36,1.36,0,0,1,.44.92c0,.38-.17.54-.54.54H3.94V17.28H30.4l1.89-2.48,3.94,3.61a1.2,1.2,0,0,1,.38.65c0,.22-.21.38-.59.65l-1.46.81v12.2a1.28,1.28,0,0,1-.7,1.14,6,6,0,0,1-2.16.65,1.11,1.11,0,0,1-1-1.19V30.67H3.94V42.39h32l3.67-3.78L44,42.17a1.12,1.12,0,0,1,.48.87.62.62,0,0,1-.59.65H3.94v2.7c0,.91-1.35,1.78-2.86,1.78A1.05,1.05,0,0,1,0,47.3V3Zm26.08,24V18.58H3.94v10.8Z" fill="#343434"/><path d="M65,17.06c-1.94,0-2,0-10,.27l-.65-1.83c5.78.21,8.1.27,10.64.27h9.13c.11-1.84.16-3.51.16-4.16,0-1.62,0-1.62-.11-8.15L74,.05l5.73.71a1.06,1.06,0,0,1,1,1c0,.38-.21.7-.81,1.14L78.46,4.05c-.11,5.56-.16,6.43-.54,11.72H92.61l3.78-3.84L101,15.66a1.05,1.05,0,0,1,.37.81.56.56,0,0,1-.51.59H79a39.94,39.94,0,0,0,9.78,16.53c4.32,4.16,9.61,7.72,13.39,9a6.11,6.11,0,0,1-.65.38l-2.1,1a15.75,15.75,0,0,0-2.54,2.49c-10.43-7-16.15-15.88-19.07-29.44-.64,6.81-1.56,10.1-4,14.64C71,37,67,41,60.91,44.66c-2.91,1.78-6.48,3.51-7.13,3.51a.47.47,0,0,1-.48-.48h0c0-.38,0-.38,2.91-2.1C67.5,38,72.36,30.24,74,17.06Z" fill="#343434"/><path d="M131,21.92c.86-.75,1.3-1,1.78-1s.76.16,2.38,1a55.45,55.45,0,0,0,8.31-7.45L132.68,16c-5.51.76-7.94,1.41-9.24,2.33-.75.48-.91.59-1.13.59-.43,0-1-.38-1.94-1.35-2.49-2.48-2.54-2.54-2.54-3.24s.75-1.78,1.24-1.84c.16.17.27.27.27.33s.22.16.27.27A4.85,4.85,0,0,0,123,14.8a9.39,9.39,0,0,0,1.4-.17l4.21-.48,15.83-2,2.16-1.83c3.07,3.08,3.83,4,3.83,4.75s-.65.86-2.7.92c-2.86,2.32-5.08,3.94-10.48,7.83.22.21.33.38.33.48,0,.44-.43.87-1.24,1.36l.43,19.76v.21a1.4,1.4,0,0,1-1.22,1.56h-.13a3.66,3.66,0,0,1-2.81-2.75,2.69,2.69,0,0,1,.22-1,8.88,8.88,0,0,0,.43-3.24L133.33,27a102,102,0,0,1-14,7.83,40.27,40.27,0,0,1-6.16,2.53.46.46,0,0,1-.48-.43c0-.27.16-.43,1.08-.92,9.5-5.45,15-9,19.06-12.36ZM128.36,1.84c6.21,1.78,9.56,4.48,9.56,7.66,0,1.25-.71,2.06-1.73,2.06s-1.57-.6-2.38-2.49c-1-2.48-2.64-4.37-5.78-6.48Zm10.31,23.59a32.45,32.45,0,0,1,10.53,3.46c3.62,1.84,5.78,3.89,5.78,5.62a2.11,2.11,0,0,1-1.84,2.05c-.7,0-1.4-.49-2.64-1.94a33.68,33.68,0,0,0-12-8.27Z" fill="#343434"/><path d="M177,19.44c4.59,1.84,7.18,4.37,7.18,7.13a1.91,1.91,0,0,1-1.69,2.09h-.2c-1.08,0-1.35-.37-2-2.8a10.05,10.05,0,0,0-3.78-5.67Zm23.49-1.89.33-.16a5,5,0,0,0,.75-.33,2.14,2.14,0,0,1,.65-.16c1.08,0,4.48,3.57,4.48,4.7,0,.38-.27.59-1.46,1.08a55.33,55.33,0,0,1-6.42,9.94,37.24,37.24,0,0,1-15,11.23A13.57,13.57,0,0,1,181,44.93a.5.5,0,0,1-.54-.46v0c0-.32.22-.54,1.14-1A45,45,0,0,0,190.13,38a42.31,42.31,0,0,0,10.16-13.39A14.41,14.41,0,0,0,202,20.09c0-.54-.59-1.3-1.94-2.38Zm-14.85-.76c4.48,1,7.94,4.32,7.94,7.51a1.81,1.81,0,0,1-1.8,1.84h0c-1.13,0-1.35-.27-1.94-2.11a12.15,12.15,0,0,0-4.59-6.64Z" fill="#343434"/><path d="M243.81,9.23c0-1.67-.05-1.94-.43-2.43s-.65-.54-3-1.83c1.35-1.19,1.73-1.46,2.16-1.46A14.6,14.6,0,0,1,246,5.08c1.79,1,2.65,1.78,2.65,2.48A2.3,2.3,0,0,1,248,8.8a5.94,5.94,0,0,0-.54.7,9.84,9.84,0,0,0-.21,2.54l-.33,8.1a31.36,31.36,0,0,1,10.64,3.62c4.21,2.21,6.48,4.59,6.48,6.8a1.77,1.77,0,0,1-1.7,1.84h0c-.86,0-1.35-.32-2.27-1.51a29.86,29.86,0,0,0-13-9.29l.11,23.6a1.43,1.43,0,0,1-1.41,1.4,2.88,2.88,0,0,1-2.7-2.43,14.8,14.8,0,0,1,.33-2.1c0-.22.11-1,.16-1.89l.22-6.48.05-15.56Z" fill="#343434"/><path d="M308.29,13.45a.75.75,0,0,1-.27.48c-.6.87-.65.92-2.27,5.35a86.94,86.94,0,0,1-8.7,17.55c-2,2.92-2.59,3.4-3.88,3.4-.6,0-.71,0-2.33-1.46a16.24,16.24,0,0,1-3.45-3.62,11.28,11.28,0,0,1-1.73-6.21A20.11,20.11,0,0,1,292,15.07a25.17,25.17,0,0,1,16.63-6.7c10.26,0,18.74,7.34,18.74,16.25,0,5.24-3.24,10.26-8.48,13.18a44.51,44.51,0,0,1-10.58,4,13.37,13.37,0,0,1-2.27.43.51.51,0,0,1-.54-.48v-.06c0-.38.22-.49.92-.7a55,55,0,0,0,7.72-3.14c5.83-3,9.13-8,9.13-14.14a12.3,12.3,0,0,0-4.75-9.83,15.07,15.07,0,0,0-10.37-3.62,11.73,11.73,0,0,0-2,.16c-.06.06-.22.06-.49.11C307.15,11.5,308.29,12.74,308.29,13.45Zm-14.58,3.18a17.08,17.08,0,0,0-4.59,12.15,10.28,10.28,0,0,0,1.35,5.89c.7,1,1.45,1.62,2.21,1.62,1.08,0,2.11-.92,3.35-3a65,65,0,0,0,6.15-14.2,41.69,41.69,0,0,0,1.62-6.21,1.52,1.52,0,0,0-.86-1.35,4,4,0,0,0-.81-.32,20.13,20.13,0,0,0-8.42,5.42Z" fill="#343434"/><path d="M347.06,30.19c-.49,0-1.62,0-3.3.1-.48,0-1.83,0-3.4.06l-.65-1.73c4,.16,5.73.22,7.24.27h3.46V21.22l4,.33c.75.05,1.24.48,1.24,1a1.41,1.41,0,0,1-.81,1.14l-1.24.59v4.59h2.16l2.48-3.29,3.62,2.86a1.64,1.64,0,0,1,.65,1.08.71.71,0,0,1-.65.65H353.6v3.29a19.24,19.24,0,0,1,5.34,2,4.81,4.81,0,0,1,2.76,3.94,1.8,1.8,0,0,1-3,1.51,16,16,0,0,1-1.68-2.7A8.81,8.81,0,0,0,353.65,35V47.1c0,.81-1.19,1.51-2.6,1.51-.48,0-.64-.27-.64-.86V35.15a46.7,46.7,0,0,1-7,7.4c-2.05,1.73-3.56,2.76-4.16,2.76a.54.54,0,0,1-.54-.54h0c0-.27.27-.6,1.3-1.41a43.26,43.26,0,0,0,9.45-13.17Zm6.05-21.93c-.33,0-2.27.06-5.13.16-.65.06-2.6.06-4.7.11l-.81-1.89c2.48.11,4.48.16,5.29.16,2.65.11,4.43.17,5.35.17H362V0l3.88.16c.76.06,1.14.33,1.14.92a1.24,1.24,0,0,1-.43,1l-1.3,1V7h13l2.92-3.41,3.83,3a1.59,1.59,0,0,1,.7,1c0,.44-.27.65-.86.65H366.23c5.61,5.29,11.82,8.21,21.11,9.83a10.46,10.46,0,0,0-3.67,4.16c-8.42-3.35-14-7.35-18.36-13.23V22.63c0,.75-1.08,1.35-2.54,1.35-.54,0-.75-.27-.75-.81V10.42a66.67,66.67,0,0,1-13.83,9.34c-3.94,2.06-6.53,3.24-7,3.24a.45.45,0,0,1-.43-.43c0-.27.54-.65,4.05-2.64A52.68,52.68,0,0,0,359,8.26ZM365,30.35l-.54-1.68c5.4.22,5.67.22,7.24.22h1.56V21.65l4.43.27c.49.06.92.44.92.76a1.4,1.4,0,0,1-.7,1l-1.52.86v4.32H381l2.87-3.29,3.83,2.91a1.28,1.28,0,0,1,.59,1,.66.66,0,0,1-.58.71H376.54c1.73,4.26,6.43,8.42,12.91,11.28a8.81,8.81,0,0,0-3.67,3.41A29.18,29.18,0,0,1,376.43,33V47.36c0,.76-.81,1.13-2.43,1.13-.48,0-.7-.21-.7-.75V34.4a72.15,72.15,0,0,1-8.3,8.1c-3,2.48-5.08,3.94-5.62,3.94A.54.54,0,0,1,359,46c0-.22,0-.22,1.78-1.73a74.64,74.64,0,0,0,11.56-14Z" fill="#343434"/><path d="M438.32,16.42c-2.81-4-4.21-5.4-6.48-6.81a13.32,13.32,0,0,0-7.13-2.21c-4.48,0-7.72,2.7-7.72,6.48a4.47,4.47,0,0,0,2.32,4c1.46,1,1.67,1.08,8,3.4l3.78,1.46c4.81,1.83,4.81,1.83,5.89,2.48a9.32,9.32,0,0,1,4.86,8.53,10.69,10.69,0,0,1-4.48,9c-2.43,1.78-5.46,2.59-9.35,2.59a17.45,17.45,0,0,1-5.45-1,9.06,9.06,0,0,0-3.24-.7A5.67,5.67,0,0,0,415.85,45l-3.72-10.74,1.73-.76c5,7.35,8.85,10,14.31,10s9.72-3.51,9.72-8.21c0-2.43-1.14-4.16-3.57-5.51-2.05-1.18-3.13-1.56-8.91-3.5-6.59-2.17-8.31-3-10.15-5a8.85,8.85,0,0,1-2.11-5.78c0-5.78,5-9.88,12.05-9.88,1.94,0,2.7.16,7,1.45a3.77,3.77,0,0,0,1.24.22c.81,0,1.51-.43,3.08-1.89l3.61,10.37Z" fill="#343434"/><path d="M489,8.05c-4.54.16-6,1.35-6,4.91V30.19c0,5.45-.65,8.2-2.43,10.42-2.6,3.18-7,4.91-12.59,4.91s-9.77-1.62-12-4.75c-1.62-2.16-2.21-5-2.21-10.37V12.64c0-3.89-.6-4.38-5.94-4.59V6.26h16.85V8.05c-5.51.16-6.11.59-6.22,4.59V31.7c0,4.21.92,7.23,2.7,9s4.81,2.64,8.32,2.64c4.32,0,7.94-1.45,9.88-4,1.35-1.73,1.89-4,1.89-7.45v-19c-.05-3.56-1.4-4.7-5.88-4.8V6.26H489Z" fill="#343434"/><path d="M494.37,42.93c5.13-.27,6-1,6-4.86V11.39c0-2.7-.7-3-6-3.24V6.26h10.74l15,32.78L535.73,6.26h10.1V8.15c-4.81.17-6.05,1.19-6.21,5.08V39c0,3.24.86,3.78,6.1,3.89v1.78h-16.9V42.88c5.08-.11,6.32-.87,6.32-3.89V11.56l-16.2,33.75h-.7L502,10.26V38.07c0,3.46,1.62,4.75,6.15,4.86v1.73H494.37Z" fill="#343434"/><path d="M551.23,42.82c5.35,0,6.48-.81,6.48-4.53V12.1c.06-3.41-.92-4-6.48-4.11V6.21h17.55V8c-5.24,0-6.43.76-6.43,4.11V38.29c.06,3.83,1.14,4.59,6.43,4.53v1.84H551.23Z" fill="#343434"/><path d="M574.18,42.88h1c3.78,0,5.08-1,5.13-4v-27c.06-3.24-.86-3.83-6-4V6.21h16.85V7.88c-5,.06-5.94.71-6,4V26.35l15.39-14.47a3.39,3.39,0,0,0,1.29-2.38c0-1.18-.75-1.51-3.88-1.62V6.21h15V7.88c-4.33.22-6.43,1.08-9.45,3.89l-9.24,8.59,14,19c1.67,2.49,3.72,3.51,7.23,3.68v1.67H599.13V42.88h0c2.65,0,3.57-.43,3.57-1.73a3.3,3.3,0,0,0-.76-1.94L590.76,23.49l-5.67,5.35v9.61c0,3.67,1.13,4.43,5.94,4.43v1.78H574.18Z" fill="#343434"/><path d="M620.78,42.71c3.19-.1,5.35-1.78,6.7-5.07L639.84,6.1l3.73-1.29L656.69,38.5c1.19,3,2.54,4,5.67,4.21v1.95H647.57V42.71c3.34,0,4.32-.48,4.32-2.21a6.55,6.55,0,0,0-.49-2.27l-2.92-7.72H632.23l-2.59,6.86a5.12,5.12,0,0,0-.38,1.94c0,2.6,1,3.3,4.81,3.4v1.95H620.78Zm27-14L640.71,9.23,633,28.67Z" fill="#343434"/><path d="M125.31,70.37a2.36,2.36,0,0,0,.32-1.19c0-.59-.38-.86-3.13-2.05.86-1.19,1.24-1.46,1.94-1.46a12.18,12.18,0,0,1,4.11,2c1.24.87,1.67,1.41,1.67,2a1.26,1.26,0,0,1-.38.86,7.3,7.3,0,0,1-.65.71,7.35,7.35,0,0,0-.86.81l-2.27,3c5.29-1,5.62-1.08,6.91-2.11a1,1,0,0,1,.81-.32c1.79,0,3.14.86,3.14,2,0,1.46-1.41,1.84-11.72,3.19l-1,.16-6.37,8.91c4-2,5.62-2.54,8.21-2.54a5,5,0,0,1,4.7,2.65,7,7,0,0,1,.7,2.75L143.91,84c.87-.38,1.3-.71,1.3-.92,0-.49-.65-.87-3.3-1.78.87-.76,1.35-1.08,1.84-1.08a13.71,13.71,0,0,1,3.4,1.18c2.22,1.08,3.24,2.16,3.24,3.35a1.47,1.47,0,0,1-1.08,1.46c-.48.16-.48.16-2.54.76a132.49,132.49,0,0,0-15.12,5.5l.06,6.86v.43a1.85,1.85,0,0,1-.7,1.79,2.78,2.78,0,0,1-1.84.81c-.81,0-.92-.17-1.13-1.57v-.16l.21-6.54a33.65,33.65,0,0,0-5.29,3c-3.29,2.22-4.7,4-4.7,5.78,0,3.13,2.76,4.32,9.88,4.32a46.53,46.53,0,0,0,12.59-1.56,4.81,4.81,0,0,1,1.18-.27,2.77,2.77,0,0,1,2.43,2.59c0,1-1.18,1.67-3.29,1.94-2.48.33-7.83.65-10.69.65-9.45,0-14.15-2.48-14.15-7.45,0-2.65,1.51-4.86,5.13-7.45,2.27-1.57,4.16-2.81,6.86-4.38-.06-3.08-.06-3.18-.6-3.89A2.84,2.84,0,0,0,125,86c-1.56,0-3.18.65-5.72,2.32a13.63,13.63,0,0,0-3.62,3.19l-3.13,3.62c-1,1.13-1.41,1.4-2.22,1.4-1,0-1.51-.7-1.51-1.89a3.76,3.76,0,0,1,.81-2.32c.11-.16.11-.16,1.68-1.35a29.42,29.42,0,0,0,3.45-3.78L120.88,78c-2.43.22-4.32.32-5.83.32-1.35,0-2.16-.43-3.51-1.94a5.82,5.82,0,0,1-1.62-2.59c0-.33.21-.54,1-.92,2.32,2.38,3.45,2.75,8.26,2.75a25.22,25.22,0,0,0,3.19-.16Z" fill="#343434"/><path d="M183.25,88.57h-3.57v2.21c0,.6-1,1.08-2.16,1.08-.59,0-1-.32-1-.81V69l3.78,2.1h2.43a47.42,47.42,0,0,0,1-7.5l4.26.7c.65.11,1,.49,1,.92a1.47,1.47,0,0,1-.76,1.13l-1.13.81-2.32,3.94H190l1.3-2L194.34,72a1.27,1.27,0,0,1,.37.86,1,1,0,0,1-.59.81l-.86.49V89.81c0,1-1,1.68-2.43,1.68-.49,0-.71-.27-.71-.81V88.57H186.6v6.21h15.06l2.81-3.51,4.32,3.56c.38.27.54.54.54.76a.55.55,0,0,1-.59.49H188c5.29,5.34,13.28,9.07,22.46,10.36a14.76,14.76,0,0,0-4.15,4.22A43.91,43.91,0,0,1,195.18,105c-3.29-2.33-4.8-3.73-8.58-8.21V111a.81.81,0,0,1-.17.54,4.1,4.1,0,0,1-2.37.87.78.78,0,0,1-.81-.7V98c-6.05,5.13-9,7.12-14.8,9.93-3.29,1.62-6.8,3-7.67,3a.43.43,0,0,1-.48-.38v0c0-.27,0-.27,3.18-1.89A61.47,61.47,0,0,0,180,96.08h-8.2c-3.73.1-5.4.1-9.94.27l-.7-1.89c2.59.1,4.86.16,5.78.21,2.38.06,4,.11,4.86.11h11.45Zm-7.94-6-8.75,7.18-.21,1c-.17.7-.6,1.13-1.08,1.13a1.09,1.09,0,0,1-.6-.21l-3.45-3.4c4.69-2.06,6.31-2.87,13.66-6.75ZM163,69.18c5.45,1.3,9.12,4.38,9.12,7.51a2.13,2.13,0,0,1-1.86,2.37h-.08a1.84,1.84,0,0,1-1.35-.6c-.38-.38-.38-.38-1.46-3.35a16,16,0,0,0-4.59-5.29Zm27.21,10v-6.8H179.68v6.8Zm0,8.1v-6.8H179.68v6.8Zm16-15.87a.63.63,0,0,1,.27.48c0,.27-.32.54-1,.71l-1.84.48-7.83,6.59c-.54.43-.81.59-1.08.59s-.43-.16-.43-.48.21-.6,2.37-3.35c1.46-2,2.87-3.94,5.73-8.21ZM195,81.23c4.37.7,6.31,1.29,8.42,2.53,2.27,1.3,3.46,2.81,3.46,4.32a2,2,0,0,1-1.89,2c-.71,0-.87-.16-3.68-3.4a21.77,21.77,0,0,0-6.42-4.54Z" fill="#343434"/><path d="M230.66,72.64c0-.92-.11-1.08-.65-1.3a27.51,27.51,0,0,0-3.89-1.24,1.68,1.68,0,0,1,1.25-1.1,9,9,0,0,1,2.91-.6c.65,0,1.46.44,3.62,1.79,1.57,1,1.89,1.35,1.89,1.89a2,2,0,0,1-.54,1.18,3,3,0,0,0-.86,2.27l-.87,15.66c-.16,2.11-.21,4.38-.21,6.21,0,2.65.37,4.16,1.35,5.35,1.18,1.4,3.24,2.16,5.88,2.16,6.59,0,14-3.57,20.25-9.67,1-1,1.35-1.29,1.73-1.29a.63.63,0,0,1,.59.59c0,.49-2.64,3.56-5.07,5.83a39.21,39.21,0,0,1-6.81,5.29,26.08,26.08,0,0,1-10.69,2.87c-3.18,0-6.64-1.35-8.26-3.24-1.46-1.68-2.21-4.65-2.21-8.7l.05-.86.54-22.9Z" fill="#343434"/><path d="M288.76,78.2c-4.15.43-6.58.65-7.45.65s-1.46-.32-2.91-1.84c-1-1.08-1.3-1.51-1.3-2s.16-.71.81-1.14a2.84,2.84,0,0,0,.54.43l1.13.92a3.89,3.89,0,0,0,2.6,1,46.39,46.39,0,0,0,6.75-.7L289,69a14.72,14.72,0,0,0-4.1-1.24,3.39,3.39,0,0,1,2.37-1.89c1.73,0,6.1,2.21,6.1,3.08,0,.16-.05.27-.54.86a2.85,2.85,0,0,0-.7,1.51c-.16,1.14-.16,1.14-.38,3.68,4-.87,5.35-1.19,6-1.52a9.09,9.09,0,0,1,2.16-.7c1,0,2.48,1.14,2.48,2a1.07,1.07,0,0,1-.86,1.08l-9.88,1.94a46.81,46.81,0,0,0-.49,6.59c0,.33,0,1.08,0,2C292.46,88,293,88.87,293,89.46c0,.38-.33.92-1.08,1.89-2.87,3.73-5.08,8.75-5.08,11.4,0,2.43,1.84,3.24,7.24,3.24a51.12,51.12,0,0,0,14.2-1.57c1.73-.43,2.1-.81,2.05-2a7.91,7.91,0,0,0-.11-1.08L309,93.21a45.65,45.65,0,0,1-.54-7c0-3.4.65-5.62,2-6.81a4.25,4.25,0,0,1,2.86-1.29c2.32,0,5.29,2.27,7.72,5.78,1.24,1.83,1.95,3.34,1.95,4.32a1.51,1.51,0,0,1-1.25,1.56,3.43,3.43,0,0,1-1-.21,1.71,1.71,0,0,0-.59-.11,2.7,2.7,0,0,0-1,.38L313,93.21l-.33-.75,3.57-3.19A4.88,4.88,0,0,0,318,86.41c0-1.08-1.41-3.62-2.76-4.91a3.49,3.49,0,0,0-2.37-1.35c-1.57,0-2.59,1.94-2.59,5a53.74,53.74,0,0,0,1.94,12.15c.76,2.6,1.19,3.46,2.54,4.86.81.92,1.08,1.35,1.08,2,0,1.24-1.19,2.1-3.94,3a53.39,53.39,0,0,1-14,1.89c-4.59,0-8.81-.38-10.7-1a3.5,3.5,0,0,1-2.64-3.57,20.69,20.69,0,0,1,1.4-6.26,9.6,9.6,0,0,1-4,1.74c-1.73,0-3.56-2.32-3.56-4.54a19.2,19.2,0,0,1,2.1-7.45c1.46-2.48,4-4.37,6-4.37a5.17,5.17,0,0,1,2,.48Zm-7.93,15.93c0,1.68.75,2.81,1.94,2.81s2.65-1.4,4.21-4a14.25,14.25,0,0,0,1.78-4.1,3.62,3.62,0,0,0-3-3.19c-2.34-.05-4.93,4.43-4.93,8.48Z" fill="#343434"/><path d="M349.78,83.12c-5.72.75-6.85,1-7.77,1.78a1.79,1.79,0,0,1-.92.32c-1.13,0-4.81-3.62-4.81-4.75a3.94,3.94,0,0,1,1.14-2.32c2.21,2.64,2.81,3.08,4.59,3.08.75,0,3-.11,4.86-.27l8.53-.65-.16-6.64c0-1.73-.65-2.22-4.05-3.14.48-1.08,1.35-1.83,2-1.83a17.28,17.28,0,0,1,4.64,1.51c1.46.7,2.05,1.19,2.05,1.73,0,.27-.16.48-.81,1s-.65.6-.65,1.73L358.37,80l1.84-.06,5.83-.32c.48,0,1.67,0,4.75-.16l2.32-1.24c2.38.86,4.65,2.7,4.65,3.72a1.33,1.33,0,0,1-1.41,1.19,9.53,9.53,0,0,1-2.32-.38A58.17,58.17,0,0,0,364.9,82c-1.08,0-2.1,0-6.64.27l.54,22.41v.48a2.81,2.81,0,0,1-1.08,2.54,3.77,3.77,0,0,1-2.32,1.46c-.81,0-1.19-.7-1.19-2.16,0-.76,0-.76-.59-1.41L347,98.78l.54-.6,6.1,4.11a6,6,0,0,0,1.51.86c.27,0,.32-.54.32-2.05l-.05-18.52ZM346.71,87v.81a20.66,20.66,0,0,1-2.65,10.48c-1.84,3.4-3.56,5-5.29,5a1.89,1.89,0,0,1-1.89-1.89v-.05c0-.92.27-1.24,1.83-2.49a19.72,19.72,0,0,0,7-12Zm16.74-.1c7,2.8,12.85,9.18,12.85,13.82a2.4,2.4,0,0,1-2.18,2.59h0c-.91,0-1.29-.54-2-2.64A30,30,0,0,0,363,87.54Zm13.66-15.18a5.27,5.27,0,1,1-5.3-5.24h.11A5.27,5.27,0,0,1,377.11,71.72Zm-8.86,0a3.59,3.59,0,1,0,3.56-3.62h-.05A3.6,3.6,0,0,0,368.25,71.72Z" fill="#343434"/><path d="M417.88,107.47v1a1.69,1.69,0,0,1-1.46,1.88h-.22c-1,0-2.37-1.14-2.37-2a3.29,3.29,0,0,1,.11-.7c.54-2.11.64-4.22.64-10.64V95.54l-.05-9.78A95.05,95.05,0,0,1,400,95.1a50.89,50.89,0,0,1-6.8,2.9.59.59,0,0,1-.59-.54c0-.38.05-.44,1.62-1.25a82.38,82.38,0,0,0,17.82-12.36,115,115,0,0,0,10.2-10.15c1.3-1.46,1.3-1.52,1.3-1.89,0-.81-1-1.73-2.54-2.38,0-.11,0-.22.05-.22s.11-.21.27-.27a7.19,7.19,0,0,0,.76-.32c.92-.43.92-.43,1.19-.43s.54,0,2.54,1.4c2.16,1.46,3.34,2.76,3.34,3.67,0,.71-.54,1.08-2.64,1.73l-1,1c-4.7,4.43-6,5.73-8,7.46,1.51.37,1.83.59,1.83,1.13s-.16.59-1.4,1.46Z" fill="#343434"/><path d="M453.73,72.59A24.13,24.13,0,0,1,460,74.8c3.24,1.78,5.29,4.43,5.29,6.86,0,1.56-1,2.86-2.21,2.86-.87,0-1.3-.54-2.11-2.59a17,17,0,0,0-7.61-8.43Zm6,34.5c-.87,0-2-.81-3.94-2.7s-2.22-2.27-2.22-2.86a5.7,5.7,0,0,1,.92-2c1.57,1.57,2.7,2.38,3.4,2.38a42.6,42.6,0,0,0,7-3.13,123.89,123.89,0,0,0,25.76-19.61c.54-.59.81-.75,1.08-.75a.59.59,0,0,1,.49.54c0,.81-3.35,4.64-7.73,9-8.58,8.43-15.17,13.29-23.38,17.23C460.43,106.71,460.16,107.09,459.73,107.09Z" fill="#343434"/><path d="M523.23,73.23c0-1.67-.05-1.94-.43-2.43s-.65-.54-3-1.83c1.35-1.19,1.72-1.46,2.16-1.46a15.14,15.14,0,0,1,3.51,1.57c1.78,1,2.64,1.78,2.64,2.48a2.3,2.3,0,0,1-.65,1.24,5.94,5.94,0,0,0-.54.7,12,12,0,0,0-.21,2.54l-.33,8.1A31.47,31.47,0,0,1,537,87.76c4.21,2.21,6.48,4.59,6.48,6.8a1.77,1.77,0,0,1-1.68,1.84h0c-.86,0-1.35-.32-2.26-1.51-2.81-3.78-8.7-8-13-9.29l.11,23.6a1.43,1.43,0,0,1-1.4,1.4,2.88,2.88,0,0,1-2.7-2.43,13.48,13.48,0,0,1,.32-2.1c0-.22.11-1,.16-1.89l.22-6.48,0-15.56Z" fill="#343434"/></svg>