<svg xmlns="http://www.w3.org/2000/svg" viewBox="0 0 372.39 33.66"><defs><style>.cls-1{isolation:isolate;}.cls-2{fill:#333;}</style></defs><title>Asset 9</title><g id="Layer_2" data-name="Layer 2"><g id="Layer_1-2" data-name="Layer 1"><g class="cls-1"><g class="cls-1"><path class="cls-2" d="M0,6.84C2.66,7,3.71,7,4.82,7h4V4.39c-.4.07-.65.11-.72.11l-2.12.25c-3.39.4-3.92.47-4.28.47s-.44-.11-.44-.29,0-.25,1.8-.72A75.59,75.59,0,0,0,15.36,0l2.77,2.27a.69.69,0,0,1,.26.54.54.54,0,0,1-.65.5l-1.66-.18a5.28,5.28,0,0,0-.75.15l-2.45.39c-.11,0-.5.11-1,.22V7h3l2.31-2.44,3,2.48a.59.59,0,0,1,.21.47c0,.25-.14.47-.28.47H11.84v2.69h3.09l1-1.65,2.84,2.59a1.13,1.13,0,0,1,.4.72.62.62,0,0,1-.4.54l-.72.32v6.09c0,.57-1,1-2.48,1-.32,0-.43-.07-.43-.32v-.4H11.84v3.24h2.62l2.2-2.23,2.48,2.23a.63.63,0,0,1,.22.5c0,.26-.15.47-.29.47H11.84v2.77l.65-.14L14.43,26a25.68,25.68,0,0,1,3.24-.46c.28,0,.43.11.43.32s-.22.43-1.77.9c-.28.11-.71.25-1.07.36-2.16.72-3,1-6.09,1.87-2.91.79-3.48.94-5.25,1.48l-.5.83a.82.82,0,0,1-.65.43.76.76,0,0,1-.58-.43L.4,27.82c2.3-.18,5.57-.54,8.38-.93V23.72H5.72c-.9,0-1.73,0-4.14.11L.9,22.61c2.63.1,3.67.14,4.82.14H8.78V19.51H5.47v1c0,.47-1,.83-2.23.83-.51,0-.65-.11-.65-.47V9.18L6,10.65H8.78V8h-4c-.5,0-1.19,0-2,0l-2,.07Zm8.78,7.63V11.59H5.47v2.88Zm0,4.07v-3.1H5.47v3.1ZM25.15,10c-.29,6.3-.76,9.43-1.94,12.71a16,16,0,0,1-7.09,8.53,21.44,21.44,0,0,1-4.71,2.37c-.15,0-.22-.07-.22-.21s.11-.29.43-.47C19.36,27.93,21.7,22.79,22,10c-1.58.07-1.83.07-3.49.11l-.57-1.23c2,.11,2.3.11,4.1.15V7.67l0-2.88c0-2.38,0-2.52-.1-4.18l4,.29a.7.7,0,0,1,.64.72.76.76,0,0,1-.39.68l-.9.54c0,1-.07,3-.11,6.16h3.49l1.55-2.12,3.24,3.45a.8.8,0,0,1,.18.47.39.39,0,0,1-.26.39l-.93.36c0,.76-.07,1.34-.07,1.55l-.11,2.7c-.18,5.91-1.05,11-2.23,13.39s-2.92,3.75-4.64,3.75a.89.89,0,0,1-1-1.08l0-.44c0-.64-.07-.93-.5-1.22a26.39,26.39,0,0,0-2.81-1.69c-.29-.15-.43-.33-.43-.51s.11-.21.32-.21a10.78,10.78,0,0,1,1.73.32,14.47,14.47,0,0,0,2.81.51c2.3,0,3.41-5.87,3.56-18.65Zm-10,4.5V11.59H11.84v2.88Zm0,4.07v-3.1H11.84v3.1Z"/><path class="cls-2" d="M39.87,3c4,.15,5.44.18,7.09.18H66.79L69.38.25,73,3.13a.7.7,0,0,1,.29.51c0,.36-.18.46-.68.46H57.83V9.54h3.63L62.72,7.6l2.7,2.91c.29.36.36.43.36.65s-.18.54-.58.75l-.43.26V24.58c0,.76-.14.94-.75,1.16a10,10,0,0,1-1.91.43c-.36,0-.5-.18-.5-.58V24h-11v1.62a.92.92,0,0,1-.65.94,5.46,5.46,0,0,1-1.87.43c-.43,0-.61-.18-.61-.61V8.14l3.38,1.4h3.7V4.1H46.93c-1.62,0-3.1,0-6.23.18Zm5,29.34c0,.68-1,1.22-2.34,1.22-.5,0-.75-.21-.75-.65l0-26.24,3.06.26c1,.07,1.29.28,1.29.79,0,.32-.14.5-.61.83l-.61.43V29.26H67.51V6.84l3.74.43c.47,0,.68.25.68.65a.85.85,0,0,1-.43.68L70.89,9V31.17c0,.87-.22,1.08-1.26,1.44a4.88,4.88,0,0,1-1.48.29c-.46,0-.64-.18-.64-.61V30.24H44.84Zm9.71-16.24V10.51H50.6v5.54Zm0,7V17H50.6v6Zm3.28-6.95h3.78V10.51H57.83Zm3.78,7V17H57.83v6Z"/><path class="cls-2" d="M108.78,4.39c1.08.72,1.62,1.44,1.62,2.09a1.11,1.11,0,0,1-1.15,1,4.85,4.85,0,0,1-.72-.07,14,14,0,0,0-2.7-.29,10.27,10.27,0,0,0-4.78.8,8.34,8.34,0,0,0-4,4.64,23.29,23.29,0,0,0-1.44,8.1c0,4.28,2,6.4,6,6.4a21.5,21.5,0,0,0,2.84-.25.53.53,0,0,1,.22,0,2.77,2.77,0,0,1,2.23,2.52c0,1.18-1,1.8-2.95,1.8a19.08,19.08,0,0,1-6.55-1.23c-3.31-1.26-4.93-3.92-4.93-8a22.82,22.82,0,0,1,1.47-7.49,19.48,19.48,0,0,1,4-6.3,2.32,2.32,0,0,0,.36-.43c0-.07-.11-.11-.18-.11a27.29,27.29,0,0,0-6.33,2.09A29.18,29.18,0,0,0,86.4,12.6a1.45,1.45,0,0,1-.9.36c-1.15,0-3-1.41-3.63-2.7a5.82,5.82,0,0,1-.43-2.38c0-.18.07-.28.18-.28s.14,0,.32.39a3.14,3.14,0,0,0,2.67,1.44,12.3,12.3,0,0,0,3.7-.86c4.17-1.26,7.63-2.23,12.31-3.42s4.71-1.37,5.5-1.8A4.56,4.56,0,0,1,108.78,4.39Zm-1.47,12a1.47,1.47,0,0,1-1.51,1.26c-.76,0-.94-.18-1.37-1.22a5.21,5.21,0,0,0-2.77-2.77c-.11-.08-.22-.15-.22-.26s.33-.32.87-.32C104.72,13,107.31,14.72,107.31,16.34Zm4.28-2.73a1.57,1.57,0,0,1-1.65,1.4c-.58,0-.65,0-1.16-1a5.92,5.92,0,0,0-3.23-2.52c-.18-.07-.33-.22-.33-.33s.61-.43,1.59-.43C109.25,10.76,111.59,12.17,111.59,13.61Z"/><path class="cls-2" d="M134.34,21.13c-.76,6-2.63,8.75-7,10.62a30.07,30.07,0,0,1-7.24,1.91c-.21,0-.32-.11-.32-.29s.47-.51,2-1c6.15-2.12,8.77-5.26,9.46-11.23h-3v1.62c0,.47-.26.76-.8.94a8.63,8.63,0,0,1-1.9.28c-.4,0-.58-.18-.58-.61V.76l3.67,1.8H142.4L143.8.5l2.84,3.1a1.26,1.26,0,0,1,.44.86,1,1,0,0,1-.72.87l-.36.11V22.35a.71.71,0,0,1-.54.76,11.1,11.1,0,0,1-2.31.32c-.36,0-.5-.14-.5-.57V21.13h-2.84v7.41c0,1.41.21,1.62,1.69,1.62.47,0,2.08,0,2.66-.07l2.12-.07c1.8,0,2.05-.18,2.85-1.91a34.17,34.17,0,0,0,1.54-4.35c.08-.25.18-.36.33-.36s.28.11.28.32a.8.8,0,0,1,0,.25c-.15,1.44-.32,4.11-.32,4.68,0,.36.07.51.46.76.94.65,1.26,1,1.26,1.55,0,1.36-2.52,1.83-9.86,1.83-5.5,0-6.19-.29-6.19-2.59V21.13Zm8.31-12.78V3.53H128.19V8.35Zm0,5.87V9.32H128.19v4.9Zm0,5.94v-5H128.19v5Z"/><path class="cls-2" d="M179.43,25.56a7.88,7.88,0,0,0,.83-3.64,5.56,5.56,0,0,0-1.73-4.32A5.43,5.43,0,0,0,175,16.23a9.18,9.18,0,0,0-6.94,3.35,26.93,26.93,0,0,0-3.46,5.4c-.5,1.08-.86,1.44-1.33,1.44-1,0-2.3-1.62-2.3-2.81,0-.61.25-1,1-1.72,1.54-1.41,4.21-4.11,5.75-5.84,3.6-4,6.66-8.6,6.66-10a.41.41,0,0,0-.4-.43c-.72,0-3.42,1.58-5.47,3.2-.9.72-1.18.87-1.58.87a3,3,0,0,1-2.12-1.34,2.92,2.92,0,0,1-.58-1.9c0-.76.11-1.15.33-1.15.07,0,.1,0,.21.32a1.42,1.42,0,0,0,1.44.76c1.84,0,5.22-1.23,7.52-2.7a2.59,2.59,0,0,1,1.4-.51c1.66,0,4.5,1.91,4.5,3,0,.5-.32.86-1.29,1.48-2.41,1.54-7.92,7.48-7.92,8.53a.08.08,0,0,0,.07.07.13.13,0,0,0,.11,0,11.55,11.55,0,0,1,5.43-1.26c4.61,0,8,3,8,7a8.67,8.67,0,0,1-3,6.29,12.21,12.21,0,0,1-8,2.67c-3.56,0-5.9-1.37-5.9-3.49,0-1.95,1.51-3.1,4-3.1a5.76,5.76,0,0,1,5.4,3.17c.07.11.14.29.29.54A6.44,6.44,0,0,0,179.43,25.56Zm-8.6.14c-1,0-1.73.54-1.73,1.3,0,1,1.77,1.87,3.78,1.87.07,0,.36,0,.83,0C173.38,26.74,172.41,25.7,170.83,25.7Z"/><path class="cls-2" d="M193.18,19.83h1.15c1,3.68,1.55,4.86,2.95,6.55a8.74,8.74,0,0,0,6.95,3.39c3.56,0,6.08-2.05,6.08-4.9,0-1.62-.72-2.7-2.49-3.78a28.48,28.48,0,0,0-5.25-2.26,25.59,25.59,0,0,1-5.54-2.7,7,7,0,0,1-3.27-5.87c0-4.21,3.77-7.31,8.92-7.31,2.59,0,4.14.61,7,2.77l1.76-2.66.79,0,.47,9.82h-1.33c-.72-3.13-1.51-4.78-2.92-6.26a8.35,8.35,0,0,0-5.9-2.56c-3.16,0-5.72,2-5.72,4.43a3.75,3.75,0,0,0,1.62,3,12.34,12.34,0,0,0,3.42,1.69c5.83,2.27,7.55,3.13,9.39,4.79a6,6,0,0,1,2.19,4.93c0,4.79-3.81,8-9.49,8-2.78,0-4.29-.61-7.45-3l-2.2,2.7-.86,0Z"/><path class="cls-2" d="M239.24,3.71h8.89v1h-.65c-2.45.11-3.31,1.15-3.35,4.1V20.91c0,3.86-.68,5.87-2.62,7.63a11.19,11.19,0,0,1-7.67,2.6A13.71,13.71,0,0,1,226.22,29c-2.09-1.47-3-3.42-3-6.48V8.46c0-2.88-.65-3.67-3.24-3.78h-.75v-1h12.3v1h-1c-2.15,0-3,.83-3.09,2.74V22.93c0,2.7.58,4.21,2,5.29a8.4,8.4,0,0,0,5.18,1.58c5.29,0,8.45-3.13,8.45-8.42V9c0-3.24-.82-4.25-3.41-4.32h-.4Z"/><path class="cls-2" d="M253.57,29.26l.93,0c2.09-.15,2.77-1.08,2.81-3.82V8.93c.07-3.46-.43-4.14-3.13-4.21h-.65v-1h8.78l8,20,8-20h8.63v1h-.47c-2.62-.08-3.52.93-3.52,4V25.34c0,3,.54,3.74,3.2,3.92h.54v1H275v-1h.51c2.41,0,3.2-.86,3.2-3.52V5.54l-9.61,24.7h-.79l-9.75-24.7V25.38c0,3.16.75,4,3.53,3.88h.57v1h-9.1Z"/><path class="cls-2" d="M292.51,29.34H294c2,0,2.66-1.05,2.7-4.07V7.6c.07-2.06-1-2.92-3.49-2.88h-.61v-1H305.1v1h-.72c-2.7,0-3.42.57-3.42,2.91V25.48c0,3.28.4,3.82,3.28,3.86H305v.9H292.51Z"/><path class="cls-2" d="M310.79,29.3h.93c2-.07,2.95-1,3-2.95v-19c-.07-1.66-1.22-2.63-3.1-2.59h-.93v-1h12.23v1H322c-2.09,0-2.92.68-3,2.41V18.54L329,8A3.36,3.36,0,0,0,330,6.08c0-.9-1-1.36-2.88-1.36h-.87v-1h11.16v1a7,7,0,0,0-5.76,2.48L326,13.07l9.32,14.07a5,5,0,0,0,4.21,2.16v.94H326.8V29.3h1.44c1.29,0,2.16-.47,2.16-1.15a2.74,2.74,0,0,0-.51-1.37l-6.8-10.69L319,20.27V27c0,1.55,1.11,2.34,3.31,2.34h.46v.94h-12Z"/><path class="cls-2" d="M344.47,29.23c2.7-.11,3.42-.65,4.46-3.35L357.46,2.7h1.87l8.74,23c.94,2.41,2,3.49,3.53,3.56h.79v1H360.48v-1h.61c1.77,0,2.63-.51,2.63-1.51a7.32,7.32,0,0,0-.57-2.38l-1.26-3.6h-10l-1.44,3.74a4.68,4.68,0,0,0-.4,1.8c0,1.34,1.05,1.95,3.35,1.95h.36v1h-9.25Zm17-8.68L357,7.81l-4.72,12.74Z"/></g></g></g></g></svg>