<svg xmlns="http://www.w3.org/2000/svg" viewBox="0 0 279.19 19.7"><defs><style>.cls-1{fill:#343434;}</style></defs><title>superior-title-english</title><g id="Layer_2" data-name="Layer 2"><g id="Layer_1-2" data-name="Layer 1"><path class="cls-1" d="M0,9.44H.64a8,8,0,0,0,1.64,3.64A4.85,4.85,0,0,0,6.14,15c2,0,3.38-1.14,3.38-2.72a2.31,2.31,0,0,0-1.38-2.1A15.78,15.78,0,0,0,5.22,8.88a14.16,14.16,0,0,1-3.08-1.5A3.91,3.91,0,0,1,.32,4.12c0-2.34,2.1-4.06,5-4.06A5.68,5.68,0,0,1,9.18,1.6l1-1.48.44,0,.26,5.46h-.74A6.73,6.73,0,0,0,8.5,2.12,4.65,4.65,0,0,0,5.22.7C3.46.7,2,1.8,2,3.16a2.07,2.07,0,0,0,.9,1.66,6.82,6.82,0,0,0,1.9.94C8.08,7,9,7.5,10.06,8.42a3.37,3.37,0,0,1,1.22,2.74c0,2.66-2.12,4.44-5.28,4.44-1.54,0-2.38-.34-4.14-1.64L.64,15.46l-.48,0Z"/><path class="cls-1" d="M21.92,5.36a17.2,17.2,0,0,0,4-.44v7.84c0,1.58.24,1.84,1.5,1.86h.4v.5a19.61,19.61,0,0,0-3.92.38V13.92a5.58,5.58,0,0,1-3.8,1.66A2.42,2.42,0,0,1,17.5,13V7.3c0-1-.46-1.38-1.54-1.38l-.38,0V5.4a13.76,13.76,0,0,0,3.9-.48v7.42c0,1.44.52,2.14,1.6,2.14s1.78-.44,2.84-1.58V7.74c0-1.46-.3-1.82-1.48-1.84h-.52Z"/><path class="cls-1" d="M37.94,19.7H32v-.54c1.82,0,2-.1,2-1.46V7.34c-.1-1.06-.62-1.4-2.08-1.38V5.44a18.46,18.46,0,0,0,4-.5V7.5A5.18,5.18,0,0,1,37.24,6a3.81,3.81,0,0,1,2.34-.76c2.4,0,4.14,2.08,4.14,4.94a6,6,0,0,1-1.62,4.18,4.1,4.1,0,0,1-2.84,1.08,3.6,3.6,0,0,1-2.34-.82,4,4,0,0,1-1-1.18V18c0,1,.26,1.18,2,1.2Zm-1.94-8a4.15,4.15,0,0,0,1,2,2.48,2.48,0,0,0,1.82.82c1.68,0,2.52-1.46,2.52-4.36,0-2.66-.78-4-2.32-4a2.6,2.6,0,0,0-2,1,5.68,5.68,0,0,0-1,2Z"/><path class="cls-1" d="M57.46,12.26a6.46,6.46,0,0,1-1.86,2.32,4.41,4.41,0,0,1-2.7.92,4.92,4.92,0,0,1-4.78-5.24A4.84,4.84,0,0,1,53,5.16a4,4,0,0,1,3.34,1.62,5.33,5.33,0,0,1,1,3.06c0,.12,0,.3,0,.52H50.48c0,2.48,1.12,3.94,3.06,3.94,1.3,0,2.18-.64,3.32-2.4ZM55,9.72c0-.22,0-.38,0-.5a5,5,0,0,0-.78-2.66,1.66,1.66,0,0,0-1.38-.72c-1,0-1.64.64-2,1.88a8.5,8.5,0,0,0-.3,2Z"/><path class="cls-1" d="M61.82,14.72h.26c1.36-.1,1.64-.48,1.56-2.18V7.42c0-1-.54-1.5-1.44-1.46h-.38V5.44A21.27,21.27,0,0,0,65.66,5V7.1a3.84,3.84,0,0,1,2.88-1.8,1.46,1.46,0,0,1,1.54,1.42A1.31,1.31,0,0,1,68.82,8a1.19,1.19,0,0,1-1.18-1.2,1.11,1.11,0,0,1,.12-.54,3.3,3.3,0,0,0-2.1,3.24V13c0,1.52.42,1.82,2.32,1.76v.5H61.82Z"/><path class="cls-1" d="M74.34,14.68h.36c1.18,0,1.46-.44,1.48-2.12V7.94c0-1.58-.44-2-2-2V5.4h1.18A9.27,9.27,0,0,0,78.2,5v8c0,1.2.26,1.58,1.34,1.66h.3v.54h-5.5ZM78.52,2.06A1.42,1.42,0,1,1,77.12.64,1.43,1.43,0,0,1,78.52,2.06Z"/><path class="cls-1" d="M93.56,10.36a4.82,4.82,0,0,1-4.82,5.16c-2.68,0-4.66-2.22-4.66-5.2a4.87,4.87,0,0,1,4.84-5.18C91.68,5.14,93.56,7.26,93.56,10.36Zm-7.14,0c0,3,.76,4.44,2.36,4.44s2.52-1.42,2.52-4.54a6.94,6.94,0,0,0-.58-3.48,2.2,2.2,0,0,0-1.82-1C87.2,5.82,86.42,7.26,86.42,10.36Z"/><path class="cls-1" d="M97.92,14.72h.26c1.36-.1,1.64-.48,1.56-2.18V7.42c0-1-.54-1.5-1.44-1.46h-.38V5.44A21.27,21.27,0,0,0,101.76,5V7.1a3.84,3.84,0,0,1,2.88-1.8,1.46,1.46,0,0,1,1.54,1.42A1.31,1.31,0,0,1,104.92,8a1.19,1.19,0,0,1-1.18-1.2,1.11,1.11,0,0,1,.12-.54,3.3,3.3,0,0,0-2.1,3.24V13c0,1.52.42,1.82,2.32,1.76v.5H97.92Z"/><path class="cls-1" d="M118.52,14.68H119c1.14,0,1.74-.58,1.7-1.64V2.34c-.08-1-.4-1.3-1.56-1.28h-.66V.5h12.81l.3,5.38H131A6.69,6.69,0,0,0,129.17,2c-.74-.68-1.74-.94-3.64-.94s-2.36.32-2.36,1.5V7.22h1.17c1.83.06,2.69-1,2.75-3.24h.6v7.26h-.64c-.16-2.64-.72-3.34-2.71-3.38h-1.17v4.82c0,1.76.2,2,2,2h.62v.54h-7.25Z"/><path class="cls-1" d="M146.11,12.4a4.81,4.81,0,0,1-.2,1.82,1.9,1.9,0,0,1-2,1.3,1.6,1.6,0,0,1-1.76-1.22,5,5,0,0,1-3.09,1.16c-1.79,0-3-1-3-2.52,0-1.32.75-2.22,2.3-2.86a12.38,12.38,0,0,1,3.71-.8V8.18c0-1.62-.64-2.32-2.1-2.32a2.12,2.12,0,0,0-2,1c.74.16,1.05.48,1.05,1.08a1.16,1.16,0,0,1-1.2,1.18,1.39,1.39,0,0,1-1.4-1.4c0-1.52,1.59-2.54,3.93-2.54,2.54,0,3.72.9,3.72,2.82v5.16c0,.92.1,1.16.52,1.16s.76-.4.8-1.56V12.4Zm-4-2.5a6.54,6.54,0,0,0-2.18.46,2.48,2.48,0,0,0-1.68,2.26A1.72,1.72,0,0,0,140,14.44a3.51,3.51,0,0,0,2.09-.88Z"/><path class="cls-1" d="M150.27,14.72h.38c1.22,0,1.52-.34,1.5-1.64V7.2c0-.94-.46-1.22-1.88-1.24v-.5a13.86,13.86,0,0,0,3.9-.46V7.08c1.3-1.42,2-1.82,3.28-1.82A2.2,2.2,0,0,1,159.83,7a4,4,0,0,1,3.28-1.76c1.64,0,2.52,1,2.52,2.82V13.6c0,.8.38,1.1,1.4,1.12h.48v.5h-5.26v-.5c1.12,0,1.38-.36,1.4-1.68V7.9a1.41,1.41,0,0,0-1.46-1.52c-.84,0-1.46.44-2.26,1.64v5.36c0,1.06.28,1.32,1.3,1.34h.32v.5h-5.28v-.5h.4c.94,0,1.24-.34,1.24-1.34V7.82a1.33,1.33,0,0,0-1.24-1.48c-.94,0-1.76.64-2.5,1.92v5.06c0,1.08.2,1.34,1.14,1.4h.26v.5h-5.3Z"/><path class="cls-1" d="M171.81,14.68h.36c1.18,0,1.46-.44,1.48-2.12V7.94c0-1.58-.44-2-2-2V5.4h1.18a9.27,9.27,0,0,0,2.84-.4v8c0,1.2.26,1.58,1.34,1.66h.3v.54h-5.5ZM176,2.06a1.42,1.42,0,1,1-1.4-1.42A1.43,1.43,0,0,1,176,2.06Z"/><path class="cls-1" d="M181.45,14.66h.5c1.24,0,1.52-.38,1.5-2.06V2.74c-.06-1.24-.5-1.58-2-1.6V.62A12.55,12.55,0,0,0,185.51,0V13c0,1.2.4,1.66,1.44,1.66h.42v.56h-5.92Z"/><path class="cls-1" d="M198.41,5.4h4.2v.54c-1.26.12-1.56.44-2.52,2.56l-3.86,8.76c-.8,1.84-1.48,2.4-2.9,2.4-1.06,0-1.74-.54-1.74-1.4a1.14,1.14,0,0,1,1.16-1.18,1.08,1.08,0,0,1,1.1,1.1,1.63,1.63,0,0,1-.2.72.68.68,0,0,0,.26,0c.62,0,1.24-.64,1.72-1.76l.92-2.16-3-7.1c-.72-1.64-1-1.9-2.14-2V5.4h5.4v.54c-.74,0-.84.06-1,.16a.69.69,0,0,0-.48.6,2.8,2.8,0,0,0,.22.9l2.14,4.92,2-4.54a3.68,3.68,0,0,0,.28-1.22c0-.52-.48-.8-1.44-.82Z"/><path class="cls-1" d="M214.81,14.66h.38c1.56,0,1.86-.32,1.86-1.82V2.4c0-.9-.5-1.34-1.5-1.36h-.74V.48h7.8c2.54,0,3.38.16,4.32.84a3.45,3.45,0,0,1,1.4,2.74A3.45,3.45,0,0,1,226.61,7a6.45,6.45,0,0,1-2.46.76l3.14,5.74a2.18,2.18,0,0,0,2,1.16h.52v.56h-4.44l-3.68-7.38h-2.24v4.94c0,1.38.44,1.82,1.86,1.88h.5v.56h-7Zm6.06-7.42c3.32,0,4.7-.9,4.7-3s-1.36-3.08-3.92-3.08c-1.62,0-2.18.42-2.18,1.66V7.24Z"/><path class="cls-1" d="M243.71,10.36a4.82,4.82,0,0,1-4.82,5.16c-2.68,0-4.66-2.22-4.66-5.2a4.87,4.87,0,0,1,4.84-5.18C241.83,5.14,243.71,7.26,243.71,10.36Zm-7.14,0c0,3,.76,4.44,2.36,4.44s2.52-1.42,2.52-4.54a6.94,6.94,0,0,0-.58-3.48,2.2,2.2,0,0,0-1.82-1C237.35,5.82,236.57,7.26,236.57,10.36Z"/><path class="cls-1" d="M257.59,10.36a4.82,4.82,0,0,1-4.82,5.16c-2.68,0-4.66-2.22-4.66-5.2A4.87,4.87,0,0,1,253,5.14C255.71,5.14,257.59,7.26,257.59,10.36Zm-7.14,0c0,3,.76,4.44,2.36,4.44s2.52-1.42,2.52-4.54a6.94,6.94,0,0,0-.58-3.48,2.2,2.2,0,0,0-1.82-1C251.23,5.82,250.45,7.26,250.45,10.36Z"/><path class="cls-1" d="M262,14.72h.38c1.22,0,1.52-.34,1.5-1.64V7.2c0-.94-.46-1.22-1.88-1.24v-.5a13.86,13.86,0,0,0,3.9-.46V7.08c1.3-1.42,2-1.82,3.28-1.82A2.2,2.2,0,0,1,271.51,7a4,4,0,0,1,3.28-1.76c1.64,0,2.52,1,2.52,2.82V13.6c0,.8.38,1.1,1.4,1.12h.48v.5h-5.26v-.5c1.12,0,1.38-.36,1.4-1.68V7.9a1.41,1.41,0,0,0-1.46-1.52c-.84,0-1.46.44-2.26,1.64v5.36c0,1.06.28,1.32,1.3,1.34h.32v.5H268v-.5h.4c.94,0,1.24-.34,1.24-1.34V7.82a1.33,1.33,0,0,0-1.24-1.48c-.94,0-1.76.64-2.5,1.92v5.06c0,1.08.2,1.34,1.14,1.4h.26v.5H262Z"/></g></g></svg>