<svg xmlns="http://www.w3.org/2000/svg" viewBox="0 0 865.28 28.44"><defs><style>.cls-1{isolation:isolate;}.cls-2{fill:#333;}</style></defs><title>takuma-kids-title</title><g id="Layer_2" data-name="Layer 2"><g id="Layer_1-2" data-name="Layer 1"><g class="cls-1"><path class="cls-2" d="M.54,1H25.1l.43,9.76H24.42c-1-3.89-1.52-5.29-2.31-6.37a5.16,5.16,0,0,0-4.54-2.31,2.72,2.72,0,0,0-2.09.69c-.5.5-.54.72-.54,3.24V23.11c-.1,2.66.76,3.49,3.68,3.46h.83v1H6.09v-1h.82c3.1-.08,3.71-.73,3.75-4.07V5.22c0-1.55-.11-2.12-.5-2.52a3.08,3.08,0,0,0-2-.58,5.81,5.81,0,0,0-5.4,3.6A21.6,21.6,0,0,0,1.12,10.8H0Z"/><path class="cls-2" d="M30.86,26.53c2.7-.11,3.42-.65,4.47-3.35L43.86,0h1.87l8.76,23c.93,2.41,2,3.49,3.52,3.56h.8v1H46.89v-1h.61c1.76,0,2.63-.5,2.63-1.51a7.48,7.48,0,0,0-.58-2.38L48.29,19h-10L36.8,22.79a4.76,4.76,0,0,0-.39,1.79c0,1.34,1,2,3.35,2h.36v1H30.86Zm17-8.68L43.36,5.11,38.64,17.85Z"/><path class="cls-2" d="M64.06,26.6H65c2-.07,3-1,3-3v-19C67.92,3,66.76,2,64.89,2H64V1H76.2V2h-.94c-2.09,0-2.91.68-3,2.41V15.84L82.25,5.33a3.36,3.36,0,0,0,1.08-1.95c0-.9-1-1.36-2.88-1.36h-.87V1H90.75V2A7,7,0,0,0,85,4.5l-5.73,5.87,9.33,14.07A5,5,0,0,0,92.8,26.6v.94H80.09V26.6h1.44c1.3,0,2.16-.47,2.16-1.15a2.81,2.81,0,0,0-.5-1.37L76.38,13.39l-4.07,4.18v6.69c0,1.55,1.12,2.34,3.31,2.34h.47v.94h-12Z"/><path class="cls-2" d="M118,1h8.9V2h-.65c-2.45.11-3.31,1.15-3.35,4.1V18.21c0,3.86-.68,5.87-2.63,7.63a11.18,11.18,0,0,1-7.67,2.6A13.72,13.72,0,0,1,105,26.31c-2.09-1.47-3-3.42-3-6.48V5.76c0-2.88-.65-3.67-3.24-3.78H98V1h12.32V2h-1c-2.16,0-3,.83-3.1,2.74V20.23c0,2.7.58,4.21,2,5.29a8.37,8.37,0,0,0,5.19,1.58c5.29,0,8.46-3.13,8.46-8.42V6.3c0-3.24-.83-4.25-3.42-4.32H118Z"/><path class="cls-2" d="M132.38,26.57l.93,0c2.09-.15,2.78-1.08,2.81-3.82V6.23c.07-3.46-.43-4.14-3.13-4.21h-.65V1h8.79l8,20,8-20h8.64V2h-.47c-2.63-.08-3.53.93-3.53,4V22.64c0,3,.54,3.74,3.21,3.93h.54v1H153.84v-1h.5c2.42,0,3.21-.87,3.21-3.53V2.84l-9.62,24.7h-.79l-9.76-24.7V22.68c0,3.16.76,4,3.53,3.89h.58v1h-9.11Z"/><path class="cls-2" d="M170.91,26.53c2.7-.11,3.42-.65,4.47-3.35L183.91,0h1.87l8.75,23c.94,2.41,2,3.49,3.53,3.56h.79v1H186.93v-1h.62c1.76,0,2.63-.5,2.63-1.51a7.48,7.48,0,0,0-.58-2.38L188.34,19H178.29l-1.44,3.75a4.57,4.57,0,0,0-.39,1.79c0,1.34,1,2,3.34,2h.36v1h-9.25Zm17-8.68-4.5-12.74-4.72,12.74Z"/><path class="cls-2" d="M216.72,26.6h.93c2-.07,3-1,3-3v-19C220.57,3,219.42,2,217.54,2h-.93V1h12.24V2h-.93c-2.09,0-2.92.68-3,2.41V15.84L234.9,5.33A3.3,3.3,0,0,0,236,3.38c0-.9-1-1.36-2.88-1.36h-.86V1H243.4V2a7,7,0,0,0-5.76,2.48l-5.73,5.87,9.33,14.07a5,5,0,0,0,4.21,2.16v.94H232.74V26.6h1.44c1.3,0,2.16-.47,2.16-1.15a2.81,2.81,0,0,0-.5-1.37L229,13.39,225,17.57v6.69c0,1.55,1.12,2.34,3.32,2.34h.46v.94h-12Z"/><path class="cls-2" d="M250.86,26.64h1.47c2,0,2.67-1.05,2.7-4.07V4.9c.07-2.06-1-2.92-3.49-2.88h-.61V1h12.53V2h-.72c-2.7,0-3.42.57-3.42,2.91V22.79c0,3.27.39,3.81,3.27,3.85h.8v.9H250.86Z"/><path class="cls-2" d="M269,26.46h.68c3-.11,3.35-.76,3.32-5.62V4.46C273,2.88,271.88,1.94,270,2l-.8,0V1h12.43a15.82,15.82,0,0,1,8.14,2.09c3.85,2.34,5.79,6.05,5.79,11,0,4.75-1.72,8.6-4.89,10.9-2.34,1.73-5.3,2.49-9.47,2.49H269ZM277.47,23c0,2.59.86,3.45,3.42,3.45a11.67,11.67,0,0,0,5.18-1.19c2.88-1.54,4.36-5.29,4.36-11,0-5-1.22-8.27-3.92-10.29A9.2,9.2,0,0,0,281,2.2c-1.69,0-2.77.43-3.21,1.29-.25.47-.28.69-.28,2.7Z"/><path class="cls-2" d="M301.85,17.13H303c1,3.68,1.55,4.86,2.95,6.56a8.77,8.77,0,0,0,6.95,3.38c3.57,0,6.09-2.05,6.09-4.9,0-1.62-.72-2.7-2.49-3.78a28.84,28.84,0,0,0-5.25-2.26,25.48,25.48,0,0,1-5.55-2.7,7.05,7.05,0,0,1-3.28-5.87c0-4.21,3.78-7.31,8.93-7.31,2.6,0,4.15.61,7,2.77L320.14.36l.79,0,.47,9.82h-1.33c-.72-3.13-1.51-4.78-2.92-6.26a8.35,8.35,0,0,0-5.9-2.56c-3.17,0-5.73,2-5.73,4.43a3.75,3.75,0,0,0,1.62,3,12.34,12.34,0,0,0,3.42,1.69c5.84,2.27,7.56,3.13,9.4,4.79a6.06,6.06,0,0,1,2.2,4.93c0,4.79-3.82,8-9.51,8-2.77,0-4.29-.61-7.45-2.95L303,28l-.87,0Z"/><path class="cls-2" d="M340.63,26.6h.94c2-.07,2.95-1,3-3v-19C344.48,3,343.33,2,341.46,2h-.94V1h12.25V2h-.94c-2.09,0-2.92.68-2.95,2.41V15.84l9.94-10.51a3.36,3.36,0,0,0,1.08-1.95c0-.9-1-1.36-2.88-1.36h-.87V1h11.16V2a7,7,0,0,0-5.76,2.48l-5.72,5.87,9.32,14.07a5,5,0,0,0,4.22,2.16v.94H356.66V26.6h1.44c1.29,0,2.16-.47,2.16-1.15a2.74,2.74,0,0,0-.51-1.37L353,13.39l-4.07,4.18v6.69c0,1.55,1.11,2.34,3.31,2.34h.47v.94h-12Z"/><path class="cls-2" d="M374.34,26.53c2.7-.11,3.42-.65,4.46-3.35L387.34,0h1.87L398,23c.94,2.41,2,3.49,3.53,3.56h.79v1H390.36v-1H391c1.77,0,2.63-.5,2.63-1.51a7.37,7.37,0,0,0-.57-2.38L391.77,19h-10l-1.44,3.75a4.6,4.6,0,0,0-.4,1.79c0,1.34,1.05,2,3.35,2h.36v1h-9.25Zm17-8.68-4.5-12.74-4.71,12.74Z"/><path class="cls-2" d="M407.43,26.53h.69c2.8,0,3.34-.58,3.34-3.28V4.46c0-1.62-.9-2.41-2.7-2.44h-1.33V1h14.05c4.57,0,6.08.29,7.77,1.51a6.19,6.19,0,0,1,2.52,4.93,6.2,6.2,0,0,1-3.09,5.29,11.62,11.62,0,0,1-4.43,1.37l5.65,10.33a4,4,0,0,0,3.64,2.09h.94v1h-8l-6.62-13.29h-4v8.9c0,2.48.79,3.27,3.35,3.38h.9v1H407.43Zm10.91-13.36c6,0,8.47-1.62,8.47-5.47,0-3.6-2.45-5.54-7.06-5.54-2.92,0-3.93.76-3.93,3v8Z"/><path class="cls-2" d="M440.78,1h24.56l.43,9.76h-1.12c-1-3.89-1.51-5.29-2.3-6.37a5.16,5.16,0,0,0-4.54-2.31,2.72,2.72,0,0,0-2.09.69c-.5.5-.54.72-.54,3.24V23.11c-.1,2.66.76,3.49,3.68,3.46h.82v1H446.32v-1h.83c3.1-.08,3.71-.73,3.75-4.07V5.22c0-1.55-.11-2.12-.51-2.52a3,3,0,0,0-2-.58,5.81,5.81,0,0,0-5.4,3.6,22,22,0,0,0-1.63,5.08h-1.11Z"/><path class="cls-2" d="M507.87,19.37c-2.38,6-5.73,8.71-10.7,8.71-7.6,0-12.85-5.8-12.85-14.15a13,13,0,0,1,3.92-9.75,12.12,12.12,0,0,1,9-3.75,11.19,11.19,0,0,1,7,2.27L506,.58h1l.36,10h-1.26c-.69-2.95-1.34-4.46-2.67-5.94a7.75,7.75,0,0,0-5.62-2.7c-4.89,0-8.28,5.22-8.28,12.78,0,7.35,3.13,11.59,8.57,11.59a7.68,7.68,0,0,0,6.34-3.24,19.07,19.07,0,0,0,2.3-4.24Z"/><path class="cls-2" d="M530.84,1h12.32V2h-.58c-2.81,0-3.49.68-3.42,3.49V23.72c.07,2.27.54,2.7,3,2.77l.9,0v1H530.81v-1h.82c2.24,0,3.07-.76,3.14-3V14.4H521.84v9.14c0,2.41.5,2.92,3.06,3h.83v1H513.45v-1h1.69c1.84,0,2.27-.72,2.31-3.53V4.64c-.11-1.94-.9-2.62-3.14-2.62h-.86V1h12.39V2h-1c-2.12-.08-3,.54-3,2.26v9h12.93V5.58c0-2.81-.58-3.53-3-3.56h-1Z"/><path class="cls-2" d="M548.31,26.53c2.7-.11,3.42-.65,4.46-3.35L561.31,0h1.87l8.75,23c.94,2.41,2,3.49,3.53,3.56h.79v1H564.33v-1H565c1.76,0,2.62-.5,2.62-1.51a7.37,7.37,0,0,0-.57-2.38L565.74,19h-10l-1.44,3.75a4.6,4.6,0,0,0-.4,1.79c0,1.34,1,2,3.35,2h.36v1h-9.25Zm17-8.68L560.8,5.11l-4.71,12.74Z"/><path class="cls-2" d="M581.4,26.57c3.6,0,4.14-.51,4.14-4V4.32C585.36,2.63,584.39,2,582,2h-.57V1.08h13.11V2h-1.19c-2.85,0-3.6.64-3.5,3.2V22.93c0,1.65.11,2.3.51,2.7s1.73.79,3.49.79c3.57,0,5.62-.79,7.35-2.84,1.37-1.66,2-3.1,2.74-6.45h1l-.22,10.41H581.4Z"/><path class="cls-2" d="M610.75,26.57c3.6,0,4.14-.51,4.14-4V4.32c-.18-1.69-1.15-2.34-3.53-2.3h-.57V1.08H623.9V2h-1.19c-2.85,0-3.6.64-3.5,3.2V22.93c0,1.65.11,2.3.51,2.7s1.73.79,3.49.79c3.57,0,5.62-.79,7.35-2.84,1.37-1.66,2-3.1,2.73-6.45h1.05l-.22,10.41H610.75Z"/><path class="cls-2" d="M640.1,26.57h1c2.44,0,3.06-.9,3.06-4.36V4.75C644,2.63,643,1.8,640.64,1.94h-.5V1h22.47l.54,9.11h-1.08c-.72-3.09-1.37-4.57-2.59-5.79-1.41-1.48-4-2.27-7.46-2.27-2.52,0-3.46.72-3.46,2.63v8.42h1.66c3.85,0,5.19-1.33,5.58-5.83h1V20.23h-1c-.15-4.43-1.59-5.94-5.55-6h-1.66v9c0,1.66.18,2.27.76,2.63a6.94,6.94,0,0,0,3.31.54c5.44,0,8-2.34,9.65-8.71h1.19l-1,9.83H640.1Z"/><path class="cls-2" d="M669.49,26.53h.93c2.13-.07,3-.86,2.92-2.74V4.93C673.23,2.7,672.47,2,670.21,2h-.8V1H676l15.45,20V4.79A2.75,2.75,0,0,0,688.25,2h-.54V1h8.78V2h-.61c-2.3-.08-3.17.79-3.24,3.16v23h-.83L674.46,5.9V23.79c-.08,1.7.9,2.63,2.8,2.74h1v1h-8.82Z"/><path class="cls-2" d="M728.25,15.66v1h-.68c-2.05,0-2.88.72-2.92,2.45V28h-.39l-3.1-3.13a8.27,8.27,0,0,1-6.8,3.24c-6.6,0-12.1-6.3-12.1-13.89C702.26,6.34,708,.29,715.33.29a11.22,11.22,0,0,1,6.88,2.19L723.9.32h.93l.4,9.8h-.94c-1-3.17-1.26-3.6-2.26-4.9-1.91-2.41-3.86-3.49-6.23-3.49-5.23,0-8.32,4.75-8.32,12.7,0,4.5,1,7.74,3.13,10a6.31,6.31,0,0,0,4.54,2.16c2.81,0,5.26-2.19,5.26-4.71V19.55c.07-2.09-.55-2.67-3-2.85h-1.11v-1Z"/><path class="cls-2" d="M733.66,26.57h1c2.45,0,3.06-.9,3.06-4.36V4.75c-.18-2.12-1.22-2.95-3.56-2.81h-.51V1h22.48l.54,9.11h-1.09c-.72-3.09-1.36-4.57-2.59-5.79-1.4-1.48-4-2.27-7.45-2.27-2.52,0-3.46.72-3.46,2.63v8.42h1.66c3.85,0,5.18-1.33,5.58-5.83h1V20.23h-1c-.14-4.43-1.58-5.94-5.54-6h-1.66v9c0,1.66.18,2.27.76,2.63a6.92,6.92,0,0,0,3.31.54c5.44,0,8-2.34,9.65-8.71H757l-1,9.83h-22.4Z"/><path class="cls-2" d="M775.75,25.34a79.51,79.51,0,0,1,8.18-8.1,20,20,0,0,0,3.74-4A9.65,9.65,0,0,0,789.33,8c0-3.42-2.41-6.08-5.51-6.08s-6.41,2.77-6.41,5.47a2.17,2.17,0,0,0,.07.61c.62-1.11,1.19-1.55,2.13-1.55a2.13,2.13,0,0,1,2.16,2.16A2.43,2.43,0,0,1,779.25,11a3.2,3.2,0,0,1-3.06-3.38c0-4,4-7.28,8.86-7.28s8.53,3.06,8.53,7.38c0,3.21-1.4,5.19-6,8.46a45.34,45.34,0,0,0-9,7.92h9.65c3.06,0,3.71-.72,4.57-5.18l.94,0-.9,8.68H775.75Z"/><path class="cls-2" d="M815.4,4.61A18.32,18.32,0,0,1,817.64,14a20.52,20.52,0,0,1-2.06,9.5C814,26.53,811.69,28,808.52,28c-5.36,0-9-5.58-9-13.82a18.78,18.78,0,0,1,2.12-9.43c1.73-2.95,4-4.39,7-4.39S813.75,1.76,815.4,4.61Zm-10.48.21a33.75,33.75,0,0,0-1.26,9.4c0,3.85.58,8,1.41,9.9s2,2.95,3.53,2.95c3.24,0,4.86-4.54,4.86-13.5a26.05,26.05,0,0,0-1.3-9.07c-.79-2.09-1.91-3.1-3.49-3.1C806.87,1.4,805.75,2.41,804.92,4.82Z"/><path class="cls-2" d="M823.4,25.34a79.35,79.35,0,0,1,8.17-8.1,20.47,20.47,0,0,0,3.75-4A9.64,9.64,0,0,0,837,8c0-3.42-2.41-6.08-5.51-6.08s-6.41,2.77-6.41,5.47a1.91,1.91,0,0,0,.08.61c.61-1.11,1.18-1.55,2.12-1.55a2.12,2.12,0,0,1,2.16,2.16A2.43,2.43,0,0,1,826.89,11a3.2,3.2,0,0,1-3.06-3.38c0-4,4-7.28,8.86-7.28s8.53,3.06,8.53,7.38c0,3.21-1.4,5.19-6,8.46a45.72,45.72,0,0,0-9,7.92h9.65c3.06,0,3.71-.72,4.57-5.18l.94,0-.9,8.68H823.4Z"/><path class="cls-2" d="M863,4.61A18.32,18.32,0,0,1,865.28,14a20.64,20.64,0,0,1-2,9.5c-1.59,3.06-3.89,4.57-7.06,4.57-5.37,0-9-5.58-9-13.82a18.67,18.67,0,0,1,2.13-9.43c1.72-2.95,4-4.39,6.95-4.39S861.39,1.76,863,4.61Zm-10.47.21a33.75,33.75,0,0,0-1.26,9.4c0,3.85.57,8,1.4,9.9s2,2.95,3.53,2.95c3.24,0,4.86-4.54,4.86-13.5a26.05,26.05,0,0,0-1.3-9.07c-.79-2.09-1.9-3.1-3.49-3.1C854.51,1.4,853.39,2.41,852.57,4.82Z"/></g></g></g></svg>