<svg xmlns="http://www.w3.org/2000/svg" width="281.188" height="33.88" viewBox="0 0 281.188 33.88">
  <defs>
    <style>
      .cls-1 {
        fill: #333;
        fill-rule: evenodd;
      }
    </style>
  </defs>
  <path id="title-program" class="cls-1" d="M581.883,5944.06c0,0.79.216,1.08,0.755,1.08a10.519,10.519,0,0,0,2.375-.4,0.962,0.962,0,0,0,.54-1.15v-4.93a37.146,37.146,0,0,0,10.039-9.54v6.7h-0.647c-0.468,0-1.188,0-2.051-.04l-2.771-.11,0.288,1.23c2.7-.08,3.6-0.11,4.534-0.11h0.647v7.48c0,0.62.216,0.87,0.684,0.87a16.87,16.87,0,0,0,2.375-.36,0.844,0.844,0,0,0,.719-0.9v-7.09h5.542a0.51,0.51,0,0,0,.612-0.51,1.159,1.159,0,0,0-.432-0.82l-2.735-2.49-1.979,2.85H599.37v-11.34a29.876,29.876,0,0,0,8.744,13.53,8.286,8.286,0,0,1,3.167-3.63c-5.685-3.53-9.356-7.31-11.515-11.95h10.291a0.571,0.571,0,0,0,.612-0.51,1.11,1.11,0,0,0-.468-0.79l-3.094-2.77-2.3,3.09H599.37v-6.26l1.008-.83a0.949,0.949,0,0,0,.5-0.79,0.84,0.84,0,0,0-.864-0.72l-4.426-.5v9.1h-3.958c-0.935,0-.971,0-4.822-0.14l0.432,1.22,4.39-.1h3.1c-1.728,5.58-5.686,12.23-9.176,15.47v-14.25l0.684-.58a0.788,0.788,0,0,0,.324-0.57,0.663,0.663,0,0,0-.432-0.51l-0.648-.28a55.437,55.437,0,0,0,1.979-5.55l0.864-.28a0.906,0.906,0,0,0,.791-0.83,1.115,1.115,0,0,0-.863-0.9l-4.246-1.84c-1.476,9.07-3.527,15.7-6.333,20.41a1.753,1.753,0,0,0-.432.9,0.247,0.247,0,0,0,.252.25c0.432,0,2.663-2.62,4.39-5.14v15.33Zm39.19-10.19c-0.215,0-.251.04-0.251,0.54a5.537,5.537,0,0,1-1.512,4.25,2.213,2.213,0,0,0-.611,1.48,1.591,1.591,0,0,0,1.619,1.69c1.259,0,2.015-1.33,2.015-3.57C622.333,5936.57,621.577,5933.87,621.073,5933.87Zm2.375-3.31h6.4l-0.036.76-0.072,1.94a4.675,4.675,0,0,0-3.562-1.87c-0.288,0-.4.07-0.4,0.29a0.417,0.417,0,0,0,.252.32,3.481,3.481,0,0,1,1.835,2.2,1.221,1.221,0,0,0,1.08.9,0.938,0.938,0,0,0,.719-0.36c-0.216,4.6-.863,6.22-2.374,6.22a24.98,24.98,0,0,1-3.671-.43,2.556,2.556,0,0,0-.4-0.03,0.235,0.235,0,0,0-.251.21c0,0.25.359,0.47,2.2,1.33,1.295,0.58,1.367.65,1.367,1.23a2.423,2.423,0,0,0,.144,1.26,1,1,0,0,0,.863.39,5.645,5.645,0,0,0,2.159-.61,4.716,4.716,0,0,0,2.267-3.06c0.684-2.01,1.044-4.57,1.3-9.14l0.4-.15a0.684,0.684,0,0,0,.5-0.61,1.188,1.188,0,0,0-.4-0.79l-2.806-3.02-1.224,2.05H628.81v-4.1h4.03a7.234,7.234,0,0,1-.54.68,1.133,1.133,0,0,0-.432.68,0.266,0.266,0,0,0,.288.29c0.4,0,2.3-1.51,4.786-3.78h2.915c0.108,1.84.108,2.13,0.108,3.85h-2.231l-3.275-1.44v9.58c0,0.72.108,0.9,0.576,0.9a10.944,10.944,0,0,0,2.051-.33,0.815,0.815,0,0,0,.54-0.9v-1.4h2.2c-0.576,4.57-2.591,7.63-6.693,10.29-1.188.72-1.188,0.76-1.188,0.98a0.319,0.319,0,0,0,.324.32,21.949,21.949,0,0,0,5.326-2.66,10.9,10.9,0,0,0,5.253-7.24,18.243,18.243,0,0,0,7.053,9.65,7.154,7.154,0,0,1,3.346-3.46c-5.289-2.34-7.844-4.39-9.823-7.88h3.022v1.12a0.49,0.49,0,0,0,.576.61,10.1,10.1,0,0,0,2.339-.33,0.87,0.87,0,0,0,.612-0.93v-4.32l0.4-.22a0.7,0.7,0,0,0,.467-0.61,1.136,1.136,0,0,0-.395-0.72l-3.1-2.84-1.043,1.83h-2.843c0-1.87,0-2.16-.036-3.85h2.231c0.612,0,.755-0.07.755-0.39a0.88,0.88,0,0,0-.395-0.58l-2.339-2.09-1.476,2.09h-4.389a29.176,29.176,0,0,0,4.533-7.13,23.032,23.032,0,0,0,8.025,10.91,8.089,8.089,0,0,1,3.13-3.74c-5.325-2.09-8.168-4.29-10.147-7.67l0.324-.22a0.985,0.985,0,0,0,.5-0.82,0.849,0.849,0,0,0-.72-0.76l-4.246-1.62a36.148,36.148,0,0,1-5.326,12.74l-2.087-1.73-1.655,2.16H628.81v-3.96H634.1a0.458,0.458,0,0,0,.5-0.43,1.075,1.075,0,0,0-.432-0.68l-2.375-2.16-1.475,2.3H628.81v-3.99h6.081a0.581,0.581,0,0,0,.684-0.43,1.292,1.292,0,0,0-.54-0.8l-2.771-2.3-1.943,2.56H624.06l-4.03-1.52v18.94a0.57,0.57,0,0,0,.684.68c1.511,0,2.734-.47,2.734-1.08v-1.08Zm0-5.07h2.2v4.1h-2.2v-4.1Zm0-.98v-3.96h2.2v3.96h-2.2Zm0-8.92h2.2v3.99h-2.2v-3.99Zm14.178,17.06v-4.46h2.339c0.036,0.86.036,1.26,0.036,1.72,0,1.05-.036,1.77-0.108,2.74h-2.267Zm8.815-4.46v4.46h-3.13c0.072-1.04.108-1.48,0.144-4.46h2.986Zm-23.245,10.4a0.912,0.912,0,0,0,1.008,1.01,1.213,1.213,0,0,0,1.3-1.3,7.321,7.321,0,0,0-1.691-3.85c-0.648-.79-0.935-1.05-1.187-1.05a0.266,0.266,0,0,0-.288.29,0.893,0.893,0,0,0,.144.4,9.813,9.813,0,0,1,.755,3.56Zm1.3-5.98a0.234,0.234,0,0,0-.216.22,2.026,2.026,0,0,0,.4.68,6.725,6.725,0,0,1,1.223,3.21c0.144,0.93.468,1.33,1.152,1.33a1.132,1.132,0,0,0,1.079-1.3,4.043,4.043,0,0,0-1.619-2.84A4.96,4.96,0,0,0,624.492,5932.61Zm63.515-9.72c1.583-1,1.727-1.15,1.727-1.47,0-.22-0.252-0.43-1.259-1.12-2.051-1.36-2.987-1.87-3.383-1.87a2.188,2.188,0,0,0-.863.29,12.821,12.821,0,0,1-5.649,1.73c-4.318.64-7.2,1-8.313,1a3.5,3.5,0,0,1-2.77-1.15c-0.108-.18-0.144-0.21-0.216-0.21-0.216,0-.324.36-0.324,1a3.444,3.444,0,0,0,1.295,2.52,3.99,3.99,0,0,0,2.411,1.23,1.366,1.366,0,0,0,.864-0.36c1.475-1.08,8.42-2.77,11.37-2.77a0.487,0.487,0,0,1,.54.57,10.868,10.868,0,0,1-.827,3.13,27.835,27.835,0,0,1-6.046,9.36,31.248,31.248,0,0,1-10.722,7.31c-0.4.14-.54,0.25-0.54,0.4a0.3,0.3,0,0,0,.36.28c1.511,0,5.721-1.51,8.492-3.06C680.6,5936.14,683.941,5932.11,688.007,5922.89Zm2.735-11.01a3.815,3.815,0,1,0,3.742,3.82A3.824,3.824,0,0,0,690.742,5911.88Zm-0.036,1.55a2.265,2.265,0,1,1-2.3,2.27A2.272,2.272,0,0,1,690.706,5913.43Zm29.943,9.1c-1.547.22-3.1,0.44-4.606,0.65-0.4.07-1.439,0.18-3.022,0.33a4.82,4.82,0,0,0-3.743-1.77c-0.935,0-1.943.29-1.943,0.58a0.358,0.358,0,0,0,.324.29c1.295,0.32,1.979,1.44,2.339,3.85a79.834,79.834,0,0,1,1.115,9.18,8.732,8.732,0,0,1-.144,1.4c-0.036.29-.071,0.47-0.071,0.54,0,0.97,1.511,2.3,2.626,2.3,0.828,0,1.476-1,1.476-2.26,0-.18-0.036-0.44-0.072-0.8a53.094,53.094,0,0,1,9.715-.97,10.642,10.642,0,0,1,2.123.18c0.612,0.07,1.151.15,1.439,0.15a0.712,0.712,0,0,0,.792-0.65c0-.65-0.36-1.12-1.439-1.95a60.211,60.211,0,0,1,2.051-7.88c0.395-.47.755-0.86,1.007-1.11a1.68,1.68,0,0,0,.54-0.9c0-.26-0.288-0.54-1.116-1.23-1.583-1.29-2.41-1.8-2.914-1.8-0.432,0-.576.07-1.835,0.83a4.176,4.176,0,0,1-1.691.61Zm-7.017,2.96a86.894,86.894,0,0,1,10.831-1.59,0.637,0.637,0,0,1,.756.69,83.016,83.016,0,0,1-1.188,9.07c-3.31.43-3.994,0.5-9.319,1.11C714.244,5929.88,714.064,5928.33,713.632,5925.49Zm59.917-13.61c-1.079,0-1.655.18-1.655,0.5a0.484,0.484,0,0,0,.432.33,5.387,5.387,0,0,1,3.274,2.95,1.114,1.114,0,0,0,1.152.68,1.537,1.537,0,0,0,1.655-1.54C778.407,5913.14,776.32,5911.88,773.549,5911.88Zm-3.814,2.63c-1.152,0-1.727.14-1.727,0.47a0.373,0.373,0,0,0,.324.32,5.132,5.132,0,0,1,3.238,2.81,1.279,1.279,0,0,0,1.295.86,1.589,1.589,0,0,0,1.656-1.58C774.521,5915.8,772.4,5914.51,769.735,5914.51Zm-8.6,8.6a2.146,2.146,0,0,0,1.044.29,21.591,21.591,0,0,0,3.958-.65,2.54,2.54,0,0,1,.467-0.07,0.473,0.473,0,0,1,.468.54,5.836,5.836,0,0,1-.54,1.98,42.906,42.906,0,0,1-5.325,7.81c-3.6,4.07-9.14,7.99-13.386,9.5-0.755.25-.827,0.29-0.827,0.51a0.288,0.288,0,0,0,.324.28,8.388,8.388,0,0,0,1.547-.25,32.518,32.518,0,0,0,8.384-3.38c6.333-3.57,10.327-7.85,14.429-15.34,1.187-.79,1.619-1.22,1.619-1.54a2.144,2.144,0,0,0-.9-1.12c-1.835-1.69-2.555-2.16-3.275-2.16a1.866,1.866,0,0,0-.9.43,14.676,14.676,0,0,1-5.866,2.02c-0.072,0-.251-0.04-0.5-0.07a13.233,13.233,0,0,0,1.835-3.24,2.415,2.415,0,0,0-.828-1.26,6.723,6.723,0,0,0-4.174-1.84,1.457,1.457,0,0,0-1.4.61,2.107,2.107,0,0,1,1.331,2.24c0,2.15-1.439,5.25-3.886,8.38a24.1,24.1,0,0,1-5.289,5.29,0.658,0.658,0,0,0-.468.54,0.241,0.241,0,0,0,.252.25,14.184,14.184,0,0,0,4.066-1.94C756.277,5928.98,758,5927.25,761.135,5923.11Zm46.783-6.69a2.17,2.17,0,0,0-.863.25c-0.9.47-.9,0.47-1.08,0.57a32.066,32.066,0,0,1-7.376,1.34c-1.512,0-2.231-.22-2.771-0.76a0.682,0.682,0,0,0-.432-0.25,0.246,0.246,0,0,0-.18.25,4.735,4.735,0,0,0,.936,1.8,3.954,3.954,0,0,0,3.274,1.55,29.391,29.391,0,0,0,5.146-.69c2.77-.5,3.454-0.61,5.5-0.9,0.828-.1,1.224-0.36,1.224-0.82a1.883,1.883,0,0,0-.972-1.37A5.4,5.4,0,0,0,807.918,5916.42Zm6.045,10.97c1.152-.82,1.224-0.86,1.224-1.15s-0.216-.54-0.936-1.22c-1.547-1.41-2.7-2.2-3.238-2.2a4.584,4.584,0,0,0-1.152.43,12.135,12.135,0,0,1-4.138,1.23,91.935,91.935,0,0,1-9.5,1.04,4.122,4.122,0,0,1-3.167-1.29,0.585,0.585,0,0,0-.324-0.33,1.067,1.067,0,0,0-.431,1.05c0,1.65,2.159,3.99,3.706,3.99a2,2,0,0,0,.935-0.36,40.78,40.78,0,0,1,11.227-2.7,1.039,1.039,0,0,1,1.151.9c0,1.01-1.835,5.04-3.31,7.24a23.47,23.47,0,0,1-12.27,9.28c-0.36.11-.468,0.18-0.468,0.36a0.289,0.289,0,0,0,.324.33,18.917,18.917,0,0,0,2.123-.4,24.159,24.159,0,0,0,13.494-8.17C810.833,5933.48,811.948,5931.53,813.963,5927.39Zm38.687,7.06a21.279,21.279,0,0,1,1.26,3.17c0.827,2.48,1.151,2.91,2.159,2.91a2.528,2.528,0,0,0,2.375-2.52c0-1.69-1.224-3.96-3.239-5.94-1.835-1.87-4.786-3.42-6.477-3.42-0.288,0-.468.11-0.468,0.29,0,0.15.036,0.18,0.468,0.47a10.889,10.889,0,0,1,3.059,3.67c-4.1,1.01-9.572,2.2-12.307,2.63a121.733,121.733,0,0,1,8.061-13c0.719-.75.755-0.82,0.755-1.08a5,5,0,0,0-1.331-2.08,6.281,6.281,0,0,0-4.5-2.16c-0.4,0-.648.11-0.648,0.29a0.643,0.643,0,0,0,.252.39,3.126,3.126,0,0,1,.936,2.48c0,1.41-.324,2.49-1.871,5.94-1.368,3.17-2.555,5.65-4.534,9.61-1.8.15-2.231,0.18-2.519,0.18-1.223,0-1.8-.21-1.943-0.68-0.072-.22-0.108-0.29-0.18-0.29a1.747,1.747,0,0,0-.828,1.44c0,0.79.54,1.66,1.836,2.77a3.527,3.527,0,0,0,2.015,1.16,1.019,1.019,0,0,0,.611-0.33c0.828-.65,3.419-1.62,6.729-2.55C847,5936.39,850.2,5935.35,852.65,5934.45Z" transform="translate(-577.25 -5911.34)"/>
</svg>
