<svg xmlns="http://www.w3.org/2000/svg" viewBox="0 0 852.2 51.9"><defs><style>.cls-1{fill:#fff;}</style></defs><g id="レイヤー_2" data-name="レイヤー 2"><g id="レイヤー_1-2" data-name="レイヤー 1"><path class="cls-1" d="M8.8,24.4A2.3,2.3,0,0,0,11,22c0-3.5-3.2-6.9-9-9.7l-.7-.4L0,13.5l.4.3a14.9,14.9,0,0,1,5.5,7C6.8,23.4,7.3,24.4,8.8,24.4Z"/><path class="cls-1" d="M12.9,11.3a11.8,11.8,0,0,1,4.6,7.4c.2.5.6,2.1,2.2,2.1s2.2-1,2.2-2.7c0-3.4-2.8-6.5-7.8-8.8l-.7-.2-1.3,1.4.4.4Z"/><path class="cls-1" d="M36.1,12.2a7.2,7.2,0,0,0-4.4-2,1.5,1.5,0,0,0-1.3.9l-.3.5.5.2c1.6.9,1.9,1.5,1.9,2.2a14.3,14.3,0,0,1-1.4,4A54.7,54.7,0,0,1,19.9,34.3,42.6,42.6,0,0,1,6.2,42.6c-1.9.6-2.5.8-2.5,1.8a1.4,1.4,0,0,0,1.4,1.2,18.2,18.2,0,0,0,4.6-1.4A39.5,39.5,0,0,0,23,36.3h0C27.7,32,30.7,27.7,36.5,17c1.4-.1,2.3-.7,2.3-1.5S37.9,13.6,36.1,12.2Z"/><path class="cls-1" d="M85.5,7.2a4,4,0,0,0-3.4-1.5,1.7,1.7,0,0,0-1.5.7l-.4.4.5.3c1.3,1,1.4,1.1,1.4,1.3s-2.7,4.1-8.4,9.5a113.7,113.7,0,0,1-10.1,7.9c-3,2-6.1,3.9-9.5,5.8-1.9.9-2.5,1.2-2.5,2a1.1,1.1,0,0,0,1.1,1c1.2,0,6.5-2.8,7.6-3.4A91.4,91.4,0,0,0,73,23.1v2.5c0,1.3,0,2.7.1,5.6v7.5a12,12,0,0,1-.3,3.7,10.5,10.5,0,0,0-.2,1.3,3.5,3.5,0,0,0,2.7,2.9A1.7,1.7,0,0,0,77,44.8a8.2,8.2,0,0,0-.1-1.4c0-.6-.1-4.3-.1-5.3V33.9c.1-5.3.1-8.3.1-8.8a21.1,21.1,0,0,1,.1-2.3h0l.5-.3c.6-.3,1-.5,1-1.2a1.4,1.4,0,0,0-1-1.3l-.5-.2c1-.8,1.8-1.7,5.4-5.1l1.2-1.1c1.8-1.8,1.8-1.8,2.7-1.8a2.4,2.4,0,0,0,1.6-.4.9.9,0,0,0,.3-.7C88.2,9.8,87.9,9.5,85.5,7.2Z"/><path class="cls-1" d="M148.7,14.5l-.5.5c-8.9,8.7-13.6,12.7-20.4,17.2s-10.9,6.5-11.7,6.5a3.3,3.3,0,0,1-1.9-1.4,11.2,11.2,0,0,1-1.1-2.4v-.4h-.4c-1.2.1-1.3,1.1-1.3,2s1.3,4,3.6,5.8,2.3,1.8,2.8,1.8,1.2-.9,1.3-1.1a3.6,3.6,0,0,1,1.4-1.3c11.1-6.7,23.9-17.6,29.7-25.4l.6-.8L149,14.1Z"/><path class="cls-1" d="M117.4,19.4c.7,1.6,1.2,2.3,2.5,2.3a2.5,2.5,0,0,0,2.4-2.6c0-3.4-4.1-7-9.8-8.6h-.2l-.8-.3-1,1.6.4.2A14.4,14.4,0,0,1,117.4,19.4Z"/><path class="cls-1" d="M190.1,7.4A13,13,0,0,0,185.4,6c-.7,0-2.5,0-2.5,1.7V8h.4c2.5.8,2.6,1.1,2.7,2s.4,7.4.4,10a63.6,63.6,0,0,1-.6,9.2,14.5,14.5,0,0,1-4.3,8.6,33.8,33.8,0,0,1-11,7.4c-1.1.4-1.7.8-1.7,1.6a1.1,1.1,0,0,0,1.1,1.1,18.3,18.3,0,0,0,4.7-1.6c6.4-2.8,10.8-6.5,13.2-10.9s2.7-8.6,2.7-15.9c0-1-.2-5.3-.3-7.3v-.8c0-.3,0-.3.5-.8a2,2,0,0,0,.9-1.5C191.6,8.3,190.9,7.8,190.1,7.4Z"/><path class="cls-1" d="M169.5,10h.3c2.2.5,2.2.5,2.4,3.3s.4,10.1.4,12.7a12.5,12.5,0,0,1-.2,2.4,2.6,2.6,0,0,0-.3,1c0,1.3,1.7,3.1,2.8,3.1s1.6-1,1.6-2.1a5.7,5.7,0,0,0-.1-1.2v-.4c-.1-1.6-.3-8.7-.4-14.8V12.4h.3c.5-.3,1-.5,1-1.3a1.9,1.9,0,0,0-1-1.4,13.2,13.2,0,0,0-5.4-1.6,1.5,1.5,0,0,0-1.6,1.3,1.8,1.8,0,0,0,.1.6Z"/><path class="cls-1" d="M225.4,19.4c.7,1.6,1.2,2.3,2.5,2.3a2.5,2.5,0,0,0,2.4-2.6c0-3.4-4.1-7-9.8-8.6h-.2l-.8-.3-1,1.6.4.2A14.4,14.4,0,0,1,225.4,19.4Z"/><path class="cls-1" d="M256.7,14.5l-.5.5c-8.9,8.7-13.6,12.7-20.4,17.2s-10.9,6.5-11.7,6.5a3.3,3.3,0,0,1-1.9-1.4,11.2,11.2,0,0,1-1.1-2.4v-.4h-.4c-1.2.1-1.3,1.1-1.3,2s1.3,4,3.6,5.8,2.3,1.8,2.8,1.8,1.2-.9,1.3-1.1a3.6,3.6,0,0,1,1.4-1.3c11.1-6.7,23.9-17.6,29.7-25.4l.6-.8L257,14.1Z"/><path class="cls-1" d="M304.4,13.6l-4.3-2.8-1.3,1.8h0l-9,.6a7.1,7.1,0,0,0,.7-1.5c.3-.7.3-.7.5-.8s1.2-.8,1.2-1.3-.4-1.1-2-2.2-2.8-1.5-4.1-1.5a1.7,1.7,0,0,0-1.8,1.3v.5l.5.2c1.8.6,2,1.1,2,1.6s-1.3,4.4-3.5,7.8a40.3,40.3,0,0,1-8.5,9.5c-1.7,1.3-2,1.6-2,2.3a1.1,1.1,0,0,0,1.1,1.1c.9,0,3-1.5,4.5-2.7a38.4,38.4,0,0,0,9.8-11.1,1.2,1.2,0,0,0,1.2.1,44.6,44.6,0,0,1,8.5-.8h.6a50.2,50.2,0,0,1-10.2,17.1c-3.8,4.1-7.6,7-13.9,10.5-.8.4-1.5.8-1.5,1.6A1.1,1.1,0,0,0,274,46c.5,0,.5,0,3-1.2a42.7,42.7,0,0,0,9.4-5.9c7.5-5.9,12.3-12.5,16.5-22.5h.9c.9-.1,1.5-.6,1.5-1.4A1.5,1.5,0,0,0,304.4,13.6Z"/><path class="cls-1" d="M351.4,26.2c-3.3-2.3-3.3-2.3-3.8-2.3a1.1,1.1,0,0,0-1.1,1c0,.7.1.7,2.4,2.6l2,1.8,2.1,2a9,9,0,0,1,3,6.9c0,4.4-3.1,7.2-7.9,7.2-3.1,0-5.8-1.3-7.1-3.3a9.7,9.7,0,0,1-1.1-5.1c0-.8.1-1.5.2-3.5v-.9a20.9,20.9,0,0,0,3.8.3c1.9,0,2.2-.9,2.2-1.4a3.1,3.1,0,0,0-3.1-2.7h-2.5c1-9.3,2.6-17.8,3.9-20.7a4.1,4.1,0,0,0,.3-1.2c0-.8-.6-1.3-2.7-2.4a9.5,9.5,0,0,0-4.9-1.3c-1.3,0-1.7.1-1.9,1.4v.4l.4.2c3.6,1.2,4.3,1.9,4.3,2.8V9.3h0a3.7,3.7,0,0,0-.2,1.2l-.3,2.1a6.8,6.8,0,0,0-.1,1.2l-.3,1.6-.7-.5h-.2l-2.4.3a10.7,10.7,0,0,1-7.8-3.6l-.4-.5V11l-.2-.3h-.4c-.5.1-1.2.4-1.2,1.1s1.7,2.8,2.3,3.4a11.4,11.4,0,0,0,4.4,2.7c-1.7,3.9-2,4.9-2,6.7a6.5,6.5,0,0,0,1.8,4.6,9.4,9.4,0,0,0,4.7,2.7,25.2,25.2,0,0,0-.5,5.2A12,12,0,0,0,338,44c1.9,2.7,5.6,4.3,10.1,4.3,7.1,0,12-4.2,12-10.2C360.1,33.7,357.9,30.7,351.4,26.2Zm-12.9-7.6c-.6,4.1-.8,5.3-1.2,8.4v1.3a6,6,0,0,1-2.2-.6,3.4,3.4,0,0,1-2.2-2.9c0-1.8.9-3.7,3-6.2h2.7Z"/><path class="cls-1" d="M416.7,8c-2.1-1-2.4-1-2.6-1s-1.1.3-2.5,1.3l-5.8,1.1-8.7,1.4h-.3c-12.7,2.4-13.5,2.5-15.7,2.5s-2.2-.4-2.8-2.1l-.2-.4h-.3c-.9.1-1.2.5-1.2,1.3a5.2,5.2,0,0,0,2,3.8c.8.6,2.5,1.8,3.3,1.8a2.7,2.7,0,0,0,1.3-.4c1.6-.9,4.4-1.5,16-3.8a33.1,33.1,0,0,0-4,4.5,18.8,18.8,0,0,0-3,9.9c0,6.9,4.1,12.8,11,15.8a29.5,29.5,0,0,0,7,1.7c.9,0,1.8-.7,1.8-1.4a5.1,5.1,0,0,0-1.2-2.7c-.5-.4-.8-.4-1.7-.4a16.2,16.2,0,0,1-6.6-2.1c-4.4-2.5-7.3-7.1-7.3-11.5a15,15,0,0,1,5.7-11.6c3.2-2.6,7.4-4,12.7-4h3.9c1.2,0,1.7-.7,1.7-1.3S418.2,8.7,416.7,8Z"/><path class="cls-1" d="M465,10.5c.8,1.3,1.4,1.9,2.2,1.9a2,2,0,0,0,1.9-2c0-1.5-1.5-3.5-3.8-4.9a9.3,9.3,0,0,0-4.8-1.8h-.4l-.9,1.5.5.2C462.4,6.7,463.1,7.4,465,10.5Z"/><path class="cls-1" d="M466.1,14.9c-.7,0-.9.1-2.7,1.3s-2.7,1.5-7.8,2.9c-1-2.2-1.3-2.9-2.2-5.3,6.8-1.6,7.9-2,7.9-3.1s-1.7-2.1-3-2.1a2.4,2.4,0,0,0-1.2.4h-.3a22.6,22.6,0,0,1-4.5,1.7,15.7,15.7,0,0,1-.7-3.3V6.6a1.1,1.1,0,0,0,.1-.5c0-.9-.6-1.4-1.8-2.1a10.7,10.7,0,0,0-4-1.3c-1.8,0-2.5.7-2.8,1.3l-.2.5.5.2c3.1,1.1,4.1,2.1,4.7,4.3s.6,1.8.9,2.7a48.3,48.3,0,0,1-7.2,1.1,8.5,8.5,0,0,1-4.2-1.6l-.5-.4-.2.7a2.3,2.3,0,0,0-.1.7,2.6,2.6,0,0,0,.9,1.8,8.7,8.7,0,0,0,4.8,1.9l3.5-.5,2.7-.6,1.4-.2,2.4,5.2a63,63,0,0,1-13.3,2.3,6.6,6.6,0,0,1-4.8-1.4l-.4-.2-.3.3a1.4,1.4,0,0,0-.3.9c0,1,.7,1.6,1.6,2.2s3.1,1.6,4.3,1.6,1.2,0,7.4-1.3l2.1-.4,2.6-.6,2.5-.5c1.5,3,2,4,3.8,7.1h-.6l-7-.5c-3.6,0-7.6.9-9.6,2.1a7.3,7.3,0,0,0-3.9,6.3q0,5.5,7.5,8.1a45.9,45.9,0,0,0,13,2c3.5,0,5.2-.8,5.2-2.5s-1.7-2.2-3.1-2.2l-1.3.2a9.9,9.9,0,0,1-3.2.4,37,37,0,0,1-10.8-1.7c-2.7-1-4.3-2.7-4.3-4.5s4-5.4,10-5.4,9.8,1,12.6,2.9a2.7,2.7,0,0,0,1.7.7,1.9,1.9,0,0,0,1.7-1.9c0-1-.6-1.6-1.8-2.5s-3.1-2.8-5.3-6.7a20.2,20.2,0,0,0-1.4-2.5h0c9.8-2.4,12.4-3.4,12.4-5S468,14.9,466.1,14.9Z"/><path class="cls-1" d="M466.2,1.3h-.3l-1,1.4.5.3a13.3,13.3,0,0,1,5.8,4.8c.6.9,1.1,1.3,1.9,1.3a1.7,1.7,0,0,0,1.8-1.8C474.9,4.6,471.2,2.1,466.2,1.3Z"/><path class="cls-1" d="M500.8,23.8h18.9c1.1,0,1.5-.6,1.5-1.1a1.9,1.9,0,0,0-.8-1.4l-3.2-2.9-2.9,3h-6.5V15.6h10.1c1,0,1.5-.5,1.5-1.1a2.9,2.9,0,0,0-.9-1.6l-2.8-2.4-2.8,2.6h-5.1V10.9l.8-.4c.5-.1,1.1-.5,1.1-1.1s-.2-1-1.7-1.2l-3.8-.6v5.5h-5.5l-5.3-.2,2.3,2.9h8.5v5.8h-6.4l-5.1-.2,1.6,2.9h6.5Z"/><path class="cls-1" d="M526.8,4.3,524,2.2l-1.8,2.1h-30l-4.7-2.7v.9c.3,6.3.5,9.3.5,16.2,0,16-1.4,21.9-7.2,30.2a2.6,2.6,0,0,0-.4,1,.9.9,0,0,0,.8.8c1.3,0,4.3-4.5,5.3-6.2,4.1-7.1,5.2-12.8,5.2-28.9V6.8h30.9V42.2c0,1.6-.2,1.6-.6,1.9a10,10,0,0,1-2.9.4h-.5l-3.6-.3v1.7l3.7,1.1,1,.2a1.3,1.3,0,0,1,.2.8c.2.8.3,1.6,1.1,1.6a12.4,12.4,0,0,0,3-1.1,3.9,3.9,0,0,0,2.5-3.9V7.8l1.2-.4a1.2,1.2,0,0,0,.7-1C528.3,5.7,527.4,4.8,526.8,4.3Z"/><path class="cls-1" d="M516.5,39.6V30.1h.4a.9.9,0,0,0,.7-1,1.8,1.8,0,0,0-.9-1.4l-3.2-1.9-1.2,1.6H500.1l-4-1.9V42.5c0,1.2.6,1.4,1.1,1.4a2.4,2.4,0,0,0,1.4-.5c.9-.4,1.1-.6,1.1-1.5V39.5h13.2v1.4c0,.3,0,1.2,1,1.2h0A2.7,2.7,0,0,0,516.5,39.6Zm-3.6-9.8v7.3H499.7V29.8Z"/><path class="cls-1" d="M542.2,11.1c1.6,2.7,1.9,3.2,3,3.2a2.2,2.2,0,0,0,2-2.4,5.5,5.5,0,0,0-2.6-4.3c-1.5-1.1-3-1.6-7.3-2.7h-.4l-.5,1.5.4.2C539.9,8.2,541.1,9.2,542.2,11.1Z"/><path class="cls-1" d="M549.5,41.7c1.3,0,5.9-4.2,7.9-6.5,4.4-5.3,5.9-10.7,6.8-24.8h11.7v1c0,1.7.1,3.1.1,4,0,8-.6,14.5-1.6,17.8s-2,3.7-3.3,3.7a18.8,18.8,0,0,1-5-1.1h-.4l-.7,1.5,3.1,1.8a4.7,4.7,0,0,1,1,1c.6,1.6.7,1.9,1.6,1.9s5.5-2.4,6.7-5.1,2.4-10.8,2.5-26l1.2-.6a1.1,1.1,0,0,0,.6-1,1.3,1.3,0,0,0-.6-1.1l-4-2.1-1.2,1.9H556.4L550,7.6l1.6,3h.3c3.9-.2,4.6-.2,8-.2h.3c-.3,15.2-3,22.8-10.4,28.8-.9.7-1.2,1-1.2,1.5A.9.9,0,0,0,549.5,41.7Z"/><path class="cls-1" d="M567.2,45c-12.1,0-16.5-1.1-20.5-5.4V25.8l1.3-.5a1.1,1.1,0,0,0,.7-1,1.5,1.5,0,0,0-.8-1.2l-3.6-1.8-1.4,1.6h-4l-5-.2,1.8,2.9,3.2-.2h3.9V39.1a51.7,51.7,0,0,1-7.1,4.3l-.6.3,2.7,3.2c.6.8.9,1.1,1.3,1.1s.8-.4,1-1.3l.4-1.3,4.2-4.4c3,3.2,4.2,4.1,7.1,5.3s8.6,2.6,18.7,2.6h10.8v-.4c.2-.7.6-1.4,2.4-2.9l1-1h-1.4Z"/><path class="cls-1" d="M615.3,9.5c-12.3,0-22.4,8.9-22.4,20,0,4.6,1.9,8.8,4.4,9.9a1.5,1.5,0,0,1,.9.7c.6.9,1.1,1.4,1.7,1.4s2.4-.5,5.6-5.5h0c3.1-4.9,5.5-10.1,8.9-19.2.8-.7,1.2-1.1,1.2-1.7s-1.1-2.1-2.5-3h1.2a19.9,19.9,0,0,1,9.4,2.4,12,12,0,0,1,6.5,10.9c0,5.1-2.5,9.5-7.4,12.5a44.9,44.9,0,0,1-8.7,3.7c-.9.2-1.6.5-1.6,1.3a.9.9,0,0,0,1,1c1.7,0,7.5-1.8,10.3-3.1,6.6-3.3,10.7-9,10.7-15C634.5,16.5,626.3,9.5,615.3,9.5ZM610,12.7a1.8,1.8,0,0,1,.6,1.4c0,1.8-1.8,7.1-4.3,13.2s-5.3,9.9-6.3,9.9a2.3,2.3,0,0,1-1.5-1.1c-1.4-1.7-2-3.9-2-7a15.9,15.9,0,0,1,6.6-13.3,17.2,17.2,0,0,1,6.8-3.2Z"/><path class="cls-1" d="M669.8,43.5a1.9,1.9,0,0,0-.5-1.1l-3.4-2.9-2.6,2.6H660V38h7.3a1.1,1.1,0,0,0,1.2-1.1,1.6,1.6,0,0,0-.5-1.1l-2.9-2.5-2.5,2.2H660V32h7.4a1.1,1.1,0,0,0,1.1-1.1,1.3,1.3,0,0,0-.6-1l-3.2-2.5-1.9,2.1H660V25.9h8.2a1.2,1.2,0,0,0,1.3-1.2,1.4,1.4,0,0,0-.6-1.1l-3.2-2.5-2.2,2.4h-3.2l1.6-2,1-.4c.7-.2.9-.6.9-.9s-.7-1-.9-1.1l-3.8-1.4v.6a30.2,30.2,0,0,1-1.6,5.2h-5.6a52.2,52.2,0,0,0,3.4-5.8h12.9a1.1,1.1,0,0,0,1.3-1.2,1.6,1.6,0,0,0-.7-1.3l-3.4-2.7-2.5,2.7h-6.4a52.2,52.2,0,0,0,2.4-5.6h8.7a1.1,1.1,0,0,0,1.3-1.3,1.4,1.4,0,0,0-.6-1.2l-3.8-2.6L662,7.1h-9.6l1-1.7,1.9-.2a1,1,0,0,0,1-1.1c0-.3-.2-.6-.7-.9L650.7.8v.6c-1.3,4.3-4,9.7-6,12v.2a1.9,1.9,0,0,0-.3.8,1,1,0,0,0,.4.7h-3.8l2.6,2.9h8.1c-2.5,5-6.5,10.8-9.6,13.7-.7.7-1,1.1-1,1.5a1.2,1.2,0,0,0,1.1,1c.9,0,3.8-2.8,5.7-4.9V49.6a1.2,1.2,0,0,0,1,1.2c.4,0,.7-.2,1.3-.6h.2c1-.7,1.2-1,1.2-1.9V44.6h17C668.8,44.6,669.8,44.6,669.8,43.5ZM656.5,38v4.1h-5.1V38Zm0-6v3.5h-5.1V32Zm0-6.1v3.6h-5.1V25.9Zm-8.9-12.2a38,38,0,0,0,3.3-4.1h3.8a44.2,44.2,0,0,1-2.1,5.6h-6.7Z"/><path class="cls-1" d="M692.4,46.1q-.3-.1-.3-.3a5,5,0,0,1-.1-1.5V37h-1.8L689,44.2c-.4,2-.6,2.3-4.1,2.3-1.7,0-1.7,0-1.7-1.4V33.2h1.5V35a.7.7,0,0,0,.8.8c1.1,0,2.7-1.1,2.7-2V7.9l.9-.3c.9-.1,1-.7,1-1a1.4,1.4,0,0,0-.6-1l-4-2.6-1.1,1.6H673.3l-3.4-1.8v33c0,1,.5,1.3,1,1.3a5.8,5.8,0,0,0,1.6-.5,1.4,1.4,0,0,0,1-1.5V33.2h.7c-.9,8.4-5,13.6-13.4,16.7a1,1,0,0,0-.9,1,.9.9,0,0,0,1,1,18.7,18.7,0,0,0,3.6-1.1,20.3,20.3,0,0,0,9.8-7.4c2.1-2.8,2.9-5.3,3.5-10.2h1.9V46.8c0,2.9.8,3.1,5,3.1,6,0,8.5-.7,8.5-2.5a1.5,1.5,0,0,0-.6-1.1Zm-7.8-21.7V31H673.4V24.4Zm0-8.8v6.5H673.4V15.6Zm-11.2-2.3V7h11.2v6.3Zm18.7,32.6Z"/><path class="cls-1" d="M744.7,43.6c-.9-.6-.9-.6-.9-1.4l.2-8.9h-1.8l-1.5,6.9c-.6,2.8-1.1,3.3-1.9,3.5s-3.5.4-8.4.4c-3.2,0-3.2-.1-3.2-1.8V23.4h16.6c1.3,0,1.4-.9,1.4-1.2a1.9,1.9,0,0,0-.7-1.2L740,17.5l-3.2,3.4H726.7l.2-.2c4-4.2,6.1-6.6,9.3-10.4h1.5c.4,0,1.5,0,1.5-1.1a1.4,1.4,0,0,0-.8-1.2l-4.6-3.3-.2.5a80.4,80.4,0,0,1-8.2,14.6l-.3.4,1.3.8h-4.1V4.9l1.1-.5a1.4,1.4,0,0,0,1.1-1.3c0-.5-.4-1.1-1.6-1.3l-4.5-.6V20.9H707.5c-2.4,0-4.7,0-10.6-.3h-1l2.3,3.1,3.7-.2h11.3c-.6,13.9-3.8,19.5-14.2,24.5-2,.8-2.4,1-2.4,1.8a1,1,0,0,0,.9,1,21.2,21.2,0,0,0,5.2-1.7c5.3-2.2,9.1-5.5,11.2-9.9s2.6-7.2,3.1-15.7h6.3V42.9c.1,4.6,1.1,4.8,9.3,4.8h4.7c2.9,0,6.2-.4,7.2-1.1a2,2,0,0,0,1-1.6A2.2,2.2,0,0,0,744.7,43.6Z"/><path class="cls-1" d="M708.4,16.4c.7,2.5,1.1,3.5,2.4,3.5s2.1-1.3,2.1-3a8.4,8.4,0,0,0-1.8-4.7c-1.6-2.2-3-3.2-7.3-5.4l-.7-.4-.7-.4-1.1,1.1.4.3C705.4,10.6,707.9,14,708.4,16.4Z"/><path class="cls-1" d="M779.1,36.4h19.7a1.4,1.4,0,0,0,1.4-1.3,2.1,2.1,0,0,0-.7-1.4l-4.1-3.2-3.8,3.4H777.2V31.3l1-.5a1.4,1.4,0,0,0,.7-1.2,1.3,1.3,0,0,0-1.2-1.2h0l-4.4-.3v5.8H758.8l-7.5-.2h-1.1l2.5,3.1,5.7-.2h11.4c-4.6,4.7-9.5,7.9-16.6,10.9-3.4,1.2-3.4,1.3-3.4,2.1a.9.9,0,0,0,1,1c1.3,0,7.2-2.3,10.4-3.9A51.6,51.6,0,0,0,773.3,38V50.7a1,1,0,0,0,1.1,1.1c1.2,0,2.8-1.1,2.8-2.1V37.6c4.7,5.5,9.5,8.6,18.9,12l.4.2.2-.4c.8-1.3,1.5-1.9,3.8-3.4l1.2-.7-1.4-.2C792.1,44.1,784,40.7,779.1,36.4Z"/><path class="cls-1" d="M753,17.8l5.6-.2h7.2l-3.3,3.8c-2,2-2,2-2,2.6s1.6,1.8,2.3,1.8,1-.3,2.6-2.1l.6-.6,5.6.7,1.8.2c-4.3,2.9-9.4,4.3-19.4,5.7-.7.1-1.7.2-1.7,1.2s.1,1.1,1.3,1.1a72.9,72.9,0,0,0,10.7-1.4c5.8-1.2,10.6-3.2,13.6-5.7a39.9,39.9,0,0,1,10.9,4.3c1.8,1.3,2.1,1.5,3.1,1.5s2.2-.7,2.2-1.7c0-2.7-4.9-5.1-13.5-6.6a30.7,30.7,0,0,0,3.9-4.8h14.8c1,0,1.5-.5,1.5-1.3a1.3,1.3,0,0,0-.7-1.2L795.7,12l-3.1,3.1H772.2l.3-.3,1.1-1.7,1.4-.4c.9-.1,1.1-.6,1.1-1a1,1,0,0,0-.7-.9l-2.8-1.5h18.5c-.6,1.5-.9,1.9-1.8,3.8l-.3.5,1.3.5,4.3-2.9h2.8c1.4,0,1.6-.6,1.6-1.2s-.3-.8-.9-1.3l-5-3.8-1.3,2h-14V4.2l1.1-.6c.8-.4.9-.9.9-1.2a1.3,1.3,0,0,0-1.3-1.3L773.9.7V6.9H759.8a6.8,6.8,0,0,0-.2-1.5l-.2-.9h-1.6v.3c-.8,3.6-1.4,4.5-3.5,5.9s-1.5,1.2-1.5,2,1,1.8,2.4,1.8a3.9,3.9,0,0,0,2.9-1.6,8.1,8.1,0,0,0,1.7-3.6h11.7a39.6,39.6,0,0,1-3.8,5.7H757.2l-5.9-.2h-1l2.4,3.1Zm14.7,3.3,2.7-3.5h9.5a23.6,23.6,0,0,1-3.5,4.1l-4.7-.4-2.9-.2Zm-14.9,10Z"/><path class="cls-1" d="M851.1,11.4l-4.2-2.5-1.7,2.7H829.6a7.5,7.5,0,0,0,.1-1.2l.2-5.2V4.1l1.4-.6c.8-.4,1.2-.8,1.2-1.5S831.4.8,830.8.7L825.9,0V7.8c0,1.8,0,2.1-.1,3.8H813l-4.5-3V47.9c0,.9.5,1.1,1,1.1s3-1.3,3-2.3V36.3c9.1-4.3,13.9-9.6,15.9-17.5a35.5,35.5,0,0,1,11.2,11.3c1.1,1.8,1.9,2.7,2.8,2.7s1.9-1.4,1.9-2.6-2.1-5.3-5.2-7.8-4.2-2.9-10.3-5.8l.2-1.1c.1-.5.2-.8.3-1.5h17.3V41.7c0,1.4-.3,1.7-1.7,1.7h-.4l-6.3-.4-.3,1.6,4,1.6.8.3a1.1,1.1,0,0,1,.2.5c.3,1,.8,1.4,1.5,1.4a9.9,9.9,0,0,0,3.9-1.3c2-1.1,2.4-2.4,2.4-5.6V14.7l.7-.7a1.3,1.3,0,0,0,.8-1.2C852.2,12.2,851.8,11.9,851.1,11.4ZM825.4,14c-1.2,9.4-4.8,15-12.9,19.7V14Z"/></g></g></svg>