<svg xmlns="http://www.w3.org/2000/svg" viewBox="0 0 663.6 146.8"><defs><style>.cls-1{fill:#fff;}</style></defs><g id="レイヤー_2" data-name="レイヤー 2"><g id="レイヤー_1-2" data-name="レイヤー 1"><path class="cls-1" d="M26,13.7a16.9,16.9,0,0,1,6.5,10.5c.6,2,1.5,2.9,2.9,2.9s2.9-1.4,2.9-3.6c0-4.7-3.8-9.1-10.9-12.3l-.8-.2L25,12.8l.4.3Z"/><path class="cls-1" d="M53.7,17.6c0,.9-.8,3-2,5.8-4.1,8.8-10,17.4-15.9,23A56.8,56.8,0,0,1,16.5,58.1c-2.6.8-3.4,1.1-3.4,2.4a1.6,1.6,0,0,0,1.7,1.4c.9,0,2.8-.5,6.5-1.9A56.1,56.1,0,0,0,39.9,48.9h0c6.6-6,10.9-12.1,19-27.1,2-.2,3.2-.9,3.2-2s-2-3.1-3.7-4.5a9.9,9.9,0,0,0-6.1-2.7,1.9,1.9,0,0,0-1.7,1.1l-.2.5.4.2C53.2,15.7,53.7,16.6,53.7,17.6Z"/><path class="cls-1" d="M16.1,27.2c1.4,3.6,2,4.8,4,4.8a2.8,2.8,0,0,0,2.8-3c0-4.8-4.5-9.6-12.5-13.6L9.6,15,8,16.9l.4.3C12.1,20,15,23.7,16.1,27.2Z"/><path class="cls-1" d="M80.4,46.5c1.2,0,6.2-2.5,10.5-4.8a141.9,141.9,0,0,0,18.3-11.6c-.1,1.7-.1,3.3-.1,3.9s0,3.8.1,7.9V52.4a18.8,18.8,0,0,1-.4,5.3c-.1.8-.2,1.3-.2,1.7s2.1,4,3.5,4a2.2,2.2,0,0,0,2.2-2.4,14.9,14.9,0,0,0-.1-1.9c0-.9-.1-6.1-.1-7.6V45.7c.1-7.5.1-11.7.1-12.5s0-1.4.1-3.1v-.2l.8-.4c.9-.5,1.3-.7,1.3-1.6a1.8,1.8,0,0,0-1.3-1.6l-1-.4c1.5-1.3,2.6-2.2,7.9-7.4l1.7-1.5c2.5-2.6,2.5-2.6,3.9-2.7a3,3,0,0,0,2.1-.4,1.8,1.8,0,0,0,.4-.9c0-1.2-.5-1.6-3.8-4.8-1.7-1.6-2.5-2-4.7-2a1.8,1.8,0,0,0-1.8.9l-.4.4.4.4c2,1.3,2.1,1.5,2.1,1.9s-3.7,5.8-11.9,13.5A141.8,141.8,0,0,1,95.7,34.5a151.1,151.1,0,0,1-13.3,8.1c-2.8,1.3-3.4,1.7-3.4,2.6A1.4,1.4,0,0,0,80.4,46.5Z"/><path class="cls-1" d="M170.1,25.2c1,2.3,1.7,3.1,3.3,3.1a3.3,3.3,0,0,0,3.2-3.4c0-4.7-5.7-9.7-13.6-11.9h-.4l-.9-.4-1.3,2,.4.2C165.4,17.4,167.6,20,170.1,25.2Z"/><path class="cls-1" d="M213.9,18.8l-.5.5c-12.5,12.2-19.2,17.8-28.8,24.1-7.1,4.8-15.3,9.2-16.5,9.2a4.6,4.6,0,0,1-2.9-2,14.7,14.7,0,0,1-1.6-3.5v-.3h-.4c-1.4.1-1.7,1.1-1.7,2.6s1.8,5.5,5.1,8c.9.7,3.1,2.4,3.9,2.4s1.4-1.1,1.5-1.4a5.1,5.1,0,0,1,2.1-2c15.6-9.3,33.5-24.6,41.8-35.6l.7-1-2.1-1.7Z"/><path class="cls-1" d="M242.2,65.3c.9,0,3.8-1,6.6-2.2,8.9-4,15.1-9.1,18.4-15.3s3.8-12,3.8-22.3c0-1.4-.2-7.4-.3-10.2V14.2c0-.6,0-.6.7-1.3a3.1,3.1,0,0,0,1.2-2c0-1.2-1-1.8-2.1-2.4A17.9,17.9,0,0,0,264,6.6c-1.5,0-3.2.2-3.2,2.1v.4h.3c3.5,1.1,3.9,1.5,4.1,3s.5,10.4.5,14a83.7,83.7,0,0,1-.9,13,21.1,21.1,0,0,1-6,12.2,46.5,46.5,0,0,1-15.7,10.5c-1.5.6-2.3,1.1-2.3,2A1.4,1.4,0,0,0,242.2,65.3Z"/><path class="cls-1" d="M241.8,11.8h.3c3.3.7,3.3.7,3.6,4.8s.5,14.1.5,17.9a10.3,10.3,0,0,1-.3,3.4,5,5,0,0,0-.3,1.4c0,1.6,2.2,4.1,3.7,4.1s2-1.3,2-2.7a11.6,11.6,0,0,0-.1-1.7v-.5c-.2-2.3-.4-12.3-.5-21V15.2l.4-.2c.8-.4,1.3-.7,1.3-1.6a2.1,2.1,0,0,0-1.3-1.9,18.8,18.8,0,0,0-7.4-2.2c-1.2,0-2.2.7-2.2,1.6l.2.7Z"/><path class="cls-1" d="M319,25.2c1.1,2.3,1.8,3.1,3.4,3.1a3.2,3.2,0,0,0,3.1-3.4c0-4.7-5.7-9.7-13.5-11.9h-.4l-1-.4-1.3,2,.5.2C314.3,17.4,316.6,20,319,25.2Z"/><path class="cls-1" d="M314.2,50.6a11.6,11.6,0,0,1-1.6-3.5l-.2-.3h-.3c-1.4.1-1.7,1.1-1.7,2.6s1.8,5.5,5,8c.9.7,3.1,2.4,3.9,2.4s1.5-1.1,1.6-1.4.7-1.1,2.1-2c15.5-9.3,33.5-24.6,41.7-35.6l.8-1-2.1-1.7-.5.7-.5.5c-12.5,12.2-19.3,17.8-28.8,24.1-7.1,4.8-15.3,9.2-16.6,9.2S315.3,52,314.2,50.6Z"/><path class="cls-1" d="M385.4,40.3c1.3,0,4.5-2.4,6.3-3.8a51.5,51.5,0,0,0,13.7-15.7,2.1,2.1,0,0,0,1.8.2,64.4,64.4,0,0,1,12-1.1h1.1c-2.5,7.9-8.7,18.5-14.4,24.3s-10.8,9.9-19.7,14.9c-1.3.7-1.9,1.2-1.9,2a1.4,1.4,0,0,0,1.4,1.4c.7,0,.7,0,4.2-1.7a63.9,63.9,0,0,0,13.2-8.3c10.5-8.3,17.2-17.5,23.1-31.6l1.5-.3c1.1-.1,1.9-.7,1.9-1.6a2.3,2.3,0,0,0-1.2-1.7l-5.8-3.9-1.9,2.5h0c-4.7.3-6.1.3-13,.9l1.1-2.4c.5-1.1.5-1.1.8-1.2a1.8,1.8,0,0,0,1.5-1.7c0-1.1-.5-1.5-2.7-2.9s-3.8-2.1-5.6-2.1-2,.4-2.3,1.7l-.2.5h.5c2.5.9,3,1.7,3,2.5s-2.2,6.8-4.9,11.2a60.3,60.3,0,0,1-12,13.3c-2.4,1.9-2.9,2.3-2.9,3.2A1.4,1.4,0,0,0,385.4,40.3Z"/><path class="cls-1" d="M466.5,23.2v.2c-2.5,5.4-2.9,6.8-2.9,9.4a9.5,9.5,0,0,0,2.5,6.3c1.6,1.7,3.1,2.6,6.6,3.7a56,56,0,0,0-.6,7.5c0,4.2.7,7.2,2.4,9.5s7.7,5.9,13.9,5.9c9.9,0,16.8-5.8,16.8-14.1,0-6-3.1-10.2-12.2-16.6-4.7-3.2-4.7-3.2-5.3-3.2a1.3,1.3,0,0,0-1.2,1.3c0,.8,0,.8,3.2,3.5l2.8,2.5a31.3,31.3,0,0,1,3,2.8,12.8,12.8,0,0,1,4.3,9.8c0,6.4-4.4,10.4-11.4,10.4-4.3,0-8.3-1.9-10-4.8s-1.6-4-1.6-7.3c0-1,0-2,.2-5V43.6a29.8,29.8,0,0,0,5.6.5c2.5,0,2.8-1.1,2.8-1.8a3.1,3.1,0,0,0-1.2-2.3,3,3,0,0,0-2.8-1.4h-3.9c1.5-13.1,3.8-25.2,5.6-29.4a3.7,3.7,0,0,0,.4-1.6c0-1-.6-1.5-3.7-3.2A12.6,12.6,0,0,0,473,2.5c-1.8,0-2.2.1-2.4,1.9v.4h.3c5.3,1.7,6.3,2.9,6.3,4.2s-.1,1.2-.1,1.9v.2c-.1.5-.2,1-.3,1.8s-.1.6-.1.9l-.2,1.8c-.2.9-.2,1.5-.3,1.9l-.4,2.6-1.1-.9h-.3l-3.4.3a15,15,0,0,1-11.1-5.2,1.7,1.7,0,0,0-.6-.6c0-.2-.1-.2-.1-.3l-.2-.4-.5.2c-.7.2-1.5.5-1.5,1.3s2.3,3.8,3.1,4.6A15.4,15.4,0,0,0,466.5,23.2Zm.3,9.6c0-2.6,1.3-5.2,4.2-8.9h4.2c-.9,6-1.1,7.6-1.7,12l-.3,2.1a11.4,11.4,0,0,1-3.3-.9A5,5,0,0,1,466.8,32.8Z"/><path class="cls-1" d="M583.4,9.4C580.6,8,580,8,579.9,8s-1.5.5-3.5,1.9l-8.2,1.5L556,13.3h-.5c-17.9,3.3-19,3.5-22.1,3.5s-3.2-.6-4.2-3.1v-.3h-.4a1.4,1.4,0,0,0-1.5,1.6,6.8,6.8,0,0,0,2.9,5.2c1.5,1.3,3.5,2.6,4.4,2.6a3.2,3.2,0,0,0,1.7-.6c2.4-1.3,6.4-2.2,23.3-5.5a44.5,44.5,0,0,0-6.1,6.7,25.8,25.8,0,0,0-4.1,13.8c0,9.7,5.7,17.9,15.2,22.1,2.5,1,7.9,2.4,9.8,2.4a2.2,2.2,0,0,0,2.3-1.8,7.3,7.3,0,0,0-1.5-3.6c-.6-.5-1-.6-2.3-.6s-6.4-1.3-9.3-2.9c-6.4-3.6-10.5-10-10.5-16.4A21.5,21.5,0,0,1,561.1,20c4.5-3.7,10.6-5.6,18-5.6h5.5c1.6,0,2.2-.9,2.2-1.7S585.4,10.4,583.4,9.4Z"/><path class="cls-1" d="M650.2,12.7c1.2,1.9,1.9,2.6,2.8,2.6a2.7,2.7,0,0,0,2.5-2.8c0-2-2.1-4.7-5.2-6.7a14.1,14.1,0,0,0-6.8-2.4h-.3l-1,1.9.4.2C646.5,7.3,647.4,8.2,650.2,12.7Z"/><path class="cls-1" d="M651.7,0h-.3l-1.3,1.7.5.3c4.2,2.2,5.8,3.6,8.2,6.9.8,1.1,1.5,1.7,2.6,1.7a2.1,2.1,0,0,0,2.2-2.3C663.6,4.6,658.5,1.1,651.7,0Z"/><path class="cls-1" d="M651.5,19.1c-.9,0-1.2.2-3.5,1.7h-.1c-1.9,1.3-4,2.1-11.2,4.1a49.5,49.5,0,0,1-3.3-7.7c9.8-2.4,11.2-2.9,11.2-4.3s-2.3-2.8-4-2.8a3.5,3.5,0,0,0-1.6.6l-.4.2a37,37,0,0,1-6.7,2.4,24.9,24.9,0,0,1-1-4.9v-2c0-1.1-.8-1.8-2.4-2.7A13.6,13.6,0,0,0,623,1.9c-2.3,0-3.2,1-3.6,1.8l-.3.5.6.2c4.3,1.6,5.9,3,6.7,6.2a35.6,35.6,0,0,0,1.3,3.9c-5.1,1.1-8.5,1.7-10.4,1.7s-3.4-.8-6-2.3l-.5-.4-.2.7a2.2,2.2,0,0,0-.2,1,3.2,3.2,0,0,0,1.3,2.3,12.8,12.8,0,0,0,6.5,2.7,39.4,39.4,0,0,0,4.9-.8l3.9-.7,2.2-.4c1.2,3,2.1,4.9,3.5,7.7-8.3,2.1-15.4,3.3-19.1,3.3a10.3,10.3,0,0,1-6.9-2l-.3-.2-.3.3a1.4,1.4,0,0,0-.5,1.1c0,1.1.7,1.9,2.2,2.9s4.4,2.2,5.9,2.2,1.8,0,10.4-1.7l3-.7,3.7-.8,3.6-.7c2.2,4.4,2.9,5.7,5.6,10.4h-1c-7.4-.6-8.2-.7-10-.7-5.1,0-10.6,1.2-13.5,2.9a10.4,10.4,0,0,0-5.3,8.7c0,5.1,3.5,8.8,10.4,11.1a63.7,63.7,0,0,0,18.3,2.9c4.7,0,7-1.1,7-3.3s-2.2-2.9-4-2.9L640,59a15.8,15.8,0,0,1-4.5.5,54.6,54.6,0,0,1-15.4-2.4c-3.7-1.4-6.1-3.9-6.1-6.6,0-4.6,5.7-7.7,14.3-7.7s13.9,1.5,17.9,4.1a3.6,3.6,0,0,0,2.3,1,2.4,2.4,0,0,0,2.1-2.5c0-1.2-.6-2-2.4-3.4s-4.5-4-7.6-9.5l-1.9-3.6v-.2c13.7-3.4,17.4-4.9,17.4-7S654,19.1,651.5,19.1Z"/><path class="cls-1" d="M65,80.2l-3.9-2.9-2.4,2.9H16.3L10,76.6v1c.5,8.8.6,13,.6,22.7,0,22.5-1.9,30.9-10.1,42.6a3.1,3.1,0,0,0-.5,1.3,1,1,0,0,0,1,.9c1.4,0,5.1-5,7.2-8.6,5.8-9.9,7.2-17.9,7.2-40.6V83.3H59.3v50.1c0,2.2-.3,2.4-1.1,2.8a13.2,13.2,0,0,1-4.1.6h-.7l-4.9-.5v2.2l5.2,1.4c1.2.3,1.5.4,1.5.5a3,3,0,0,1,.3,1.1c.2,1.1.4,2,1.3,2a13.8,13.8,0,0,0,4.1-1.5c2.5-1.2,3.4-2.7,3.4-5.3V84.8l1.9-.6a1.5,1.5,0,0,0,.8-1.3C67,82.2,65.9,80.9,65,80.2Z"/><path class="cls-1" d="M50.4,129.7V116.2l.6-.2c.5-.2,1-.4,1-1.2a2.5,2.5,0,0,0-1.2-1.8l-4.4-2.5-1.5,2.1H27.4L22.1,110v23.8c0,1.2.5,1.8,1.4,1.8a3.8,3.8,0,0,0,1.8-.7c1.2-.6,1.5-.8,1.5-2v-3.5h19v2.1c0,.5,0,1.5,1.1,1.5h0A3.6,3.6,0,0,0,50.4,129.7Zm-4.6-14.1v10.8h-19V115.6Z"/><path class="cls-1" d="M28.5,107.3H55.1c1.5,0,2-.7,2-1.3a2.6,2.6,0,0,0-1.2-1.9l-4.4-3.9-3.9,4H38.1V95.7H52.6c1.1,0,1.9-.5,1.9-1.3a3.5,3.5,0,0,0-1.2-2.1l-3.9-3.2-3.8,3.6H38.1V89.1l1.3-.5c.6-.2,1.4-.6,1.4-1.3s-.3-1.3-2.2-1.6l-5.1-.8v7.8H25.6l-7-.3L21.5,96h2.9l5.4-.2h3.7v8.5H24.3l-6.9-.3,2,3.6h9.1Z"/><path class="cls-1" d="M120.5,137.5c-17.2,0-23.5-1.6-29.1-7.7V110.2l1.9-.8a1.4,1.4,0,0,0,1-1.2,2,2,0,0,0-1.2-1.6l-4.9-2.4-1.9,2.2H80.6l-6.7-.3,2.3,3.6H86.3v19.6a63.1,63.1,0,0,1-10.1,6.1l-.6.3,3.6,4.4c.9,1.1,1.2,1.4,1.7,1.4s.8,0,1.3-1.7l.4-1.9,6.1-6.3c4.4,4.5,6.1,5.8,10.1,7.6,5.7,2.7,12.1,3.6,26.3,3.6h15V142c.2-1.1,1-2.2,3.3-4.2l1.1-.9h-1.5C136.1,137.2,124.2,137.5,120.5,137.5Z"/><path class="cls-1" d="M105.2,85.2l-8.6-.3,2,3.8h.3c5.5-.2,6.5-.3,11.3-.3h.5c-.3,21.7-4.1,32.4-14.7,41-1.2.9-1.5,1.3-1.5,1.9a1,1,0,0,0,1.1,1.1c1.6,0,7.8-5.5,10.8-9,6.3-7.5,8.4-15.1,9.6-35h16.9v1.7c.1,2.4.1,4.3.1,5.6,0,11.3-.8,20.4-2.2,25s-2.6,5.4-4.8,5.4-3.5-.4-7.2-1.5l-.4-.2-.8,1.8,4.2,2.5a3.3,3.3,0,0,1,1.4,1.5c1,2.2,1.1,2.5,2.2,2.5,3.2,0,7.5-3.3,9.2-7s3.4-15.2,3.6-36.7l1.7-.8a1.8,1.8,0,0,0,.8-1.3,1.7,1.7,0,0,0-.8-1.3l-5.5-3-1.6,2.7H105.2Z"/><path class="cls-1" d="M85.4,89.5c2.3,3.8,2.7,4.4,4.1,4.4S92,92.4,92,90.7a7.7,7.7,0,0,0-3.5-5.9c-2-1.5-4.1-2.2-10.1-3.7h-.5l-.6,1.8.4.2C82.2,85.4,83.8,86.8,85.4,89.5Z"/><path class="cls-1" d="M186.6,87.5c-17.2,0-31.3,12.5-31.3,28,0,6.4,2.6,12.3,6.1,13.8a2.4,2.4,0,0,1,1.3,1c.9,1.3,1.5,1.9,2.3,1.9s4.3-2.5,7.6-7.7h0c4.4-6.8,7.8-14.2,12.5-27,1.2-1,1.7-1.5,1.7-2.3s-1.8-3-3.8-4.4h2.3A29,29,0,0,1,198.5,94a17.1,17.1,0,0,1,9.4,15.5c0,7.4-3.7,13.5-10.6,17.8a53.1,53.1,0,0,1-12.3,5.2c-1.1.3-2.1.7-2.1,1.7a1.2,1.2,0,0,0,1.2,1.3c2.3,0,10.5-2.6,14.4-4.5,9.3-4.5,15-12.4,15-20.8C213.5,97.3,201.9,87.5,186.6,87.5Zm-21.6,39a3.4,3.4,0,0,1-2.2-1.6c-1.9-2.5-2.8-5.5-2.8-10,0-7.8,3-13.8,9.4-18.8a22.1,22.1,0,0,1,9.6-4.6l.3.2a2.7,2.7,0,0,1,.9,2.2c0,2.5-2.5,10-6.1,18.6C168.5,125.5,165.8,126.5,165,126.5Z"/><path class="cls-1" d="M261.6,135.2a1.9,1.9,0,0,0-.7-1.4l-4.6-3.9-3.5,3.6h-5v-6.3h10.4a1.3,1.3,0,0,0,1.5-1.3,1.6,1.6,0,0,0-.6-1.3l-3.9-3.4-3.5,2.9h-3.9v-5.3h10.6a1.2,1.2,0,0,0,1.3-1.3,2,2,0,0,0-.6-1.3l-4.4-3.3-2.6,2.8h-4.3v-5.4h11.8a1.5,1.5,0,0,0,1.6-1.5,1.8,1.8,0,0,0-.9-1.5L256,104l-3,3.2h-5l2.6-3.1,1.4-.6c.7-.2,1.1-.5,1.1-1.1s-.6-1.1-1.1-1.3l-5.1-1.9v.5c-1.2,4.7-1.7,6.3-2.3,7.5H236a47.9,47.9,0,0,0,5.2-8.6h18.2c1.5,0,1.7-.9,1.7-1.5a2.1,2.1,0,0,0-.9-1.6l-4.7-3.6-3.4,3.7h-9.4c1.3-2.8,2.1-4.6,3.5-8.4h12.3c1.4,0,1.7-.8,1.7-1.5a1.8,1.8,0,0,0-.7-1.5l-5.3-3.7-3.3,3.7h-14l.2-.4,1.4-2.4,2.9-.3a1.2,1.2,0,0,0,1.2-1.3,1.4,1.4,0,0,0-.8-1.1l-6.7-3.3-.2.5c-1.8,6.2-5.6,13.8-8.4,17.2h-.1a1.8,1.8,0,0,0-.4,1,1.2,1.2,0,0,0,1.2,1.2c.6,0,1.3-.5,3.3-2.3a43.6,43.6,0,0,0,4.6-5.9h5.7a71.6,71.6,0,0,1-3,8.4h-5c-4.5,0-5.4,0-10.1-.3h-1.2l3.2,3.7h.2l5.2-.2h6.2c-3.4,7.2-9.2,15.5-13.6,19.7-1,.9-1.3,1.5-1.3,1.9a1.3,1.3,0,0,0,1.3,1.2c1.2,0,5.5-4.1,8.2-7.2v29.5a1.4,1.4,0,0,0,1.2,1.5c.5,0,.9-.2,1.8-.8h.1c1.4-1.1,1.7-1.3,1.7-2.6v-5.3h24.2C260.4,136.5,261.6,136.5,261.6,135.2Zm-18.3-8v6.3h-7.6v-6.3Zm0-8.4v5.3h-7.6v-5.3Zm0-8.5v5.4h-7.6v-5.4Z"/><path class="cls-1" d="M293.4,139c-.1-.2-.4-.3-.4-.4a8,8,0,0,1-.2-2.3V126.2h-2.1l-1.7,10c-.6,3-.8,3.4-5.9,3.4-2.6,0-2.6,0-2.6-2.1v-17H283v2.8a.8.8,0,0,0,.9.9c1.4,0,3.5-1.4,3.5-2.7V84.9l1.6-.4c1-.2,1.2-.8,1.2-1.2a1.6,1.6,0,0,0-.8-1.2L284,78.4l-1.6,2.3H266.6l-4.4-2.4v46.1c0,1.5.9,1.6,1.2,1.6a6.5,6.5,0,0,0,2.1-.7,1.8,1.8,0,0,0,1.3-1.9v-2.9h1.4c-1.2,12.1-7.1,19.5-19,23.9-.5.2-1.1.4-1.1,1.2a1.1,1.1,0,0,0,1.1,1.2,23.1,23.1,0,0,0,5-1.5A28.3,28.3,0,0,0,268,134.9c2.9-4,4-7.4,4.9-14.4H276v19.3c0,3.9,1,4.2,6.8,4.2,8.3,0,11.7-1,11.7-3.3a2.2,2.2,0,0,0-.8-1.5Zm-10.5-30.9v9.7H266.7v-9.7Zm0-12.4v9.5H266.7V95.7Zm-16.2-2.9V83.6h16.2v9.2Z"/><path class="cls-1" d="M365.5,135.5c-1.2-.9-1.2-1-1.2-2.1l.2-12.3h-2.1l-2.1,9.5c-.9,4-1.6,4.8-2.9,5.1s-4.9.5-11.8.5c-4.7,0-4.7-.3-4.7-2.7V106.7h23.5c1.7,0,1.9-1,1.9-1.4s-.6-1.2-1-1.6l-6.2-4.8-4.5,4.7H334V80.7l1.6-.7c.9-.3,1.5-.9,1.5-1.6s-.6-1.5-2.1-1.7l-6.1-.8v27.7H313.4c-3.4,0-6.6,0-15-.4h-1l2.9,4,5.3-.2,7.8-.2h8.1c-.7,19.8-5.3,27.7-20.1,34.8-2.7,1.2-3.3,1.5-3.3,2.4a1.3,1.3,0,0,0,1.2,1.2c1,0,4.3-1.1,7.1-2.4,7.5-3,12.8-7.7,15.8-13.8s3.6-10.1,4.4-22.2h9.2v27.6c.1,6.4,1.3,6.6,12.9,6.6h6.6c3.9,0,8.7-.6,10-1.5a2.6,2.6,0,0,0,1.3-2.1C366.6,136.7,366.3,136.2,365.5,135.5Z"/><path class="cls-1" d="M350.5,80.7l-.3.6a105.2,105.2,0,0,1-11.4,20.5l-.4.4,1.7,1.1.3-.3c6.2-6.6,9.1-9.9,13.2-14.7l2.2-.2c.6,0,2,0,2-1.3a1.9,1.9,0,0,0-1-1.5Z"/><path class="cls-1" d="M314.8,97c.9,3.4,1.5,4.7,3.2,4.7s2.7-1.7,2.7-4a11.9,11.9,0,0,0-2.4-6.5c-2.3-3-4.2-4.4-10.2-7.5l-1-.5-.6-.3-.4-.2-1.2,1.2.4.4C310.5,88.8,314.1,93.6,314.8,97Z"/><path class="cls-1" d="M412.1,125h28.2a1.6,1.6,0,0,0,1.7-1.6,2.3,2.3,0,0,0-.8-1.8l-5.7-4.4-5.2,4.7H409.7V118l1.5-.8a1.7,1.7,0,0,0,.9-1.5,1.5,1.5,0,0,0-1.5-1.5h0l-5.9-.5v8.2H383.9l-10.5-.3h-1l3.2,3.9,8-.3H400c-6.7,6.9-13.6,11.5-23.8,15.7-4.6,1.7-4.7,1.8-4.7,2.8a1.2,1.2,0,0,0,1.2,1.3c1.8,0,10.1-3.3,14.6-5.6,6.4-3.2,10.7-6.2,17.4-12.1v18.3a1.2,1.2,0,0,0,1.3,1.3c1.7,0,3.7-1.5,3.7-2.8V126.3c6.7,8,13.4,12.4,26.9,17.4h.4l.2-.3c1.1-1.9,2.2-2.9,5.4-4.9l1.2-.7-1.4-.2C430.6,136.2,418.9,131.2,412.1,125Z"/><path class="cls-1" d="M375.8,98.9l8-.3h10.5l-4.9,5.7c-2.7,2.8-2.7,2.8-2.7,3.6s2,2.2,2.9,2.2,1.4-.4,3.6-2.8l.9-.9c4.3.4,5.5.5,7.9.9l3.1.5c-6.1,4.2-13.4,6.3-27.9,8.2-.8.1-2.1.3-2.1,1.6s.2,1.3,1.6,1.3a106.7,106.7,0,0,0,15.1-2c8.2-1.6,14.9-4.4,19-7.9,5.6,1.2,12.2,3.8,15.6,6.1s3,1.9,4.3,1.9,2.7-.9,2.7-2.1c0-3.7-7.1-7-19.1-9.2a42.5,42.5,0,0,0,5.8-7.1h21a1.5,1.5,0,0,0,1.8-1.6,1.8,1.8,0,0,0-.9-1.5l-6.1-4.3-4.2,4.3H402.5l.6-.8,1.6-2.4,2.2-.5a1.2,1.2,0,0,0,1.2-1.3,1.2,1.2,0,0,0-.8-1.1l-4.8-2.4h27.3c-1,2.3-1.3,2.9-2.7,5.6l-.2.5,1.4.6,6.1-4h4c1.4,0,2-.5,2-1.5s-.4-1-1.2-1.7l-6.8-5.3-1.9,2.8h-20V79.8l1.7-.9a1.8,1.8,0,0,0,1.2-1.5,1.7,1.7,0,0,0-1.6-1.7l-6.3-.5v8.7H385.3a15.7,15.7,0,0,0-.4-2.3l-.2-1.2h-1.9v.4c-1.1,5.1-1.9,6.4-4.9,8.5-1.2.7-2,1.5-2,2.6s1.3,2.3,3.1,2.3a5.3,5.3,0,0,0,4-2.2c1-1.2,1.6-2.2,2.3-5.1h17.1l-.2.3a46.6,46.6,0,0,1-5.5,8.2h-8.1l-6.8-.2-8.2-.2h-1.1l3.2,4Zm20.3,4.9c2.5-3.1,2.9-3.6,4.1-5.3h13.9a32.8,32.8,0,0,1-5.2,6.2l-6.7-.5-4.1-.3h-2Z"/><path class="cls-1" d="M512.3,90.2l-5.7-3.5-2.3,3.8H481.9c.1-1,.2-1.7.2-1.9l.2-7.3a2.5,2.5,0,0,0,.1-1v-.7l2-.9c1.1-.5,1.6-1.1,1.6-1.9s-1.4-1.5-2.2-1.6l-6.7-1V84.9a52.4,52.4,0,0,1-.2,5.6H458.8l-6.1-4v54.9a1.1,1.1,0,0,0,1.1,1.3c1.4,0,4-1.8,4-3V124.9c13-6,19.8-13.5,22.5-24.7,5.7,3.1,11.8,9.2,16.1,16.1,1.7,2.7,2.7,3.6,3.7,3.6s2.5-1.7,2.5-3.4-2.9-7.3-7.3-10.8-5.9-4.1-14.5-8.2c.2-.8.2-1.3.3-1.7s.2-1.3.4-2.3h24.7v39.1c0,2.2-.4,2.6-2.6,2.6h-.5l-8.7-.5-.4,2,5.6,2.1,1.1.4.4.9c.4,1.2,1,1.8,1.9,1.8a13.7,13.7,0,0,0,5.4-1.8c2.7-1.5,3.2-3.3,3.2-7.7V94.6l1.1-1c.8-.6,1.1-.9,1.1-1.6S513.2,90.8,512.3,90.2Zm-35.8,3.3c-1.7,13.5-6.9,21.5-18.7,28.2V93.5Z"/></g></g></svg>