<svg xmlns="http://www.w3.org/2000/svg" viewBox="0 0 117.45 32.98"><defs><style>.cls-1{fill:#343434;}</style></defs><g id="Layer_2" data-name="Layer 2"><g id="Layer_1-2" data-name="Layer 1"><path class="cls-1" d="M30.19,2.77,27.92,5.34H22.41V2.19l.83-.4a.84.84,0,0,0,.54-.72.87.87,0,0,0-.87-.88h0L20,0V5.34H12.48v-3l.94-.57A.87.87,0,0,0,13.88,1,.81.81,0,0,0,13,.26L10,.11V5.34H6.41c-.58,0-1.54,0-2.66,0L0,5.15.57,6.6H.66c2.77-.14,3-.14,5.75-.14H10v5.24c0,.4.21.63.56.63A5,5,0,0,0,12,11.91a.65.65,0,0,0,.47-.69V6.45H20V10a.5.5,0,0,0,.55.56c1,0,1.89-.54,1.89-1.14V6.45H33c.29,0,.48-.24.48-.59a.91.91,0,0,0-.37-.68Z"/><path class="cls-1" d="M30.16,12.49,27.92,15H17.86l0-.17c-.14-1.31-.18-1.64-.25-3.13l.9-.53a1.08,1.08,0,0,0,.58-.84c0-.43-.42-.76-1-.8l-3-.12V9.5c.14,2.57.18,3,.49,5.45H8.07L5,12.93v.24c.18,4.78.18,5.13.18,6.29,0,5.18-.8,8.4-2.86,11.49-.88,1.36-.88,1.36-.88,1.58a.43.43,0,0,0,.38.38c.54,0,1.92-1.5,2.94-2.9,2.14-2.9,3-6,3-10.84V16.06h7.87a22,22,0,0,0,3.22,9.25A34.7,34.7,0,0,1,8.45,32c-.27.13-.51.27-.51.55a.44.44,0,0,0,.49.41,17.09,17.09,0,0,0,4.26-1.38,27.23,27.23,0,0,0,7.68-4.52c3.61,3.73,7.26,5.54,11.17,5.54.92,0,1.46-.35,1.46-.95a.64.64,0,0,0-.14-.41c-.94-1.22-.94-1.22-.94-1.68a2.06,2.06,0,0,1,0-.46l.4-4.9v-.11L31.67,24l-1.33,4c-.45,1.44-.68,1.67-1.07,1.67a10.16,10.16,0,0,1-3.11-1.06,12.39,12.39,0,0,1-4-3.2,36.44,36.44,0,0,0,4.33-5.18l1.05-.13c.53,0,.87-.3.87-.67a.91.91,0,0,0-.4-.71l-2.6-2.07-.07.13a32.06,32.06,0,0,1-4.71,6.74c-1.07-1.48-1.93-3.93-2.63-7.49H33a.43.43,0,0,0,.48-.41.89.89,0,0,0-.29-.64Z"/><path class="cls-1" d="M24.26,12.88c.57,1.46.73,1.74,1.34,1.74A1.46,1.46,0,0,0,27,13.13c0-1.5-1.61-2.78-4.1-3.26h-.09l-.3.56.07.06A5.57,5.57,0,0,1,24.26,12.88Z"/><path class="cls-1" d="M59.75,11h13.8a.57.57,0,0,0,.56-.63.83.83,0,0,0-.34-.64L70.66,7.34,68.31,9.91H59.6v-7l1-.61a1,1,0,0,0,.5-.8.87.87,0,0,0-.84-.73L56.94.5V9.91H50.16c-1.26,0-2,0-3.14-.08l-4-.1h-.18l.53,1.48h.09c1.6,0,3-.07,3.42-.11l1.88,0,1.35,0h5.79A48.21,48.21,0,0,1,43.45,27.43c-1.37,1.08-1.7,1.41-1.7,1.68a.51.51,0,0,0,.48.48c.6,0,3.44-2,5.48-3.7a45.46,45.46,0,0,0,9.23-10.44v17a.45.45,0,0,0,.48.52,5.58,5.58,0,0,0,1.76-.38.85.85,0,0,0,.42-.83v-18c3.16,6.77,6,10.12,12.47,14.65l.1.07.08-.09a7.44,7.44,0,0,1,3.12-2.78l.24-.13-.25-.09A27.59,27.59,0,0,1,59.75,11Z"/><path class="cls-1" d="M116.94,6.51l-2.83-2.26-2.42,2.49H100.06V5.29l.47-.22a.85.85,0,0,0,.54-.69,1.18,1.18,0,0,0-.32-.63L98.34,1.46,97.07,3.14h-9L85.45,1.61V29c0,.5.23.74.7.74,1,0,1.71-.41,1.71-1V25h9.76v1.53c0,.46,0,1,.52,1,.8,0,1.92-.59,1.92-1.17V7.85h7.85V28.58c0,.19,0,.3-.07.37s-.4.14-.81.14L103.2,29v.76l3.32,1c.69.24.71.3.67.81a.82.82,0,0,0,.19.67.74.74,0,0,0,.59.22,3.18,3.18,0,0,0,1.47-.53,2.14,2.14,0,0,0,1.24-2.19V7.85h6.18a.56.56,0,0,0,.59-.55A1.07,1.07,0,0,0,116.94,6.51ZM97.62,14.58v9.33H93.87V14.58Zm0-10.33v9.22H93.87V4.25Zm-6.08,0v9.22H87.86V4.25Zm0,10.33v9.33H87.86V14.58Z"/></g></g></svg>