<svg xmlns="http://www.w3.org/2000/svg" viewBox="0 0 358.2 29.66"><defs><style>.cls-1{fill:#343434;}</style></defs><g id="Layer_2" data-name="Layer 2"><g id="Layer_1-2" data-name="Layer 1"><path class="cls-1" d="M26.83,11.1l-2,2.19H15.91v-.11c-.14-1.21-.17-1.48-.23-2.8l.79-.47A1,1,0,0,0,17,9.16c0-.4-.37-.7-.92-.74l-2.73-.1v.14c.12,2.28.16,2.68.43,4.83H7.2L4.44,11.48v.24c.15,4.25.15,4.57.15,5.6,0,4.6-.71,7.46-2.53,10.2-.79,1.21-.79,1.21-.79,1.41a.39.39,0,0,0,.35.35c.49,0,1.69-1.3,2.62-2.58,1.91-2.58,2.68-5.37,2.68-9.64V14.31h7a19.45,19.45,0,0,0,2.86,8.2,30.72,30.72,0,0,1-9.24,6c-.24.12-.45.24-.45.49a.39.39,0,0,0,.44.38,15.15,15.15,0,0,0,3.79-1.22,24,24,0,0,0,6.83-4c3.2,3.31,6.45,4.91,9.93,4.91.83,0,1.31-.31,1.31-.86a.53.53,0,0,0-.13-.36c-.83-1.09-.83-1.09-.83-1.49a1.64,1.64,0,0,1,0-.41l.35-4.35v-.12l-.64-.09L27,24.93c-.4,1.27-.6,1.48-.94,1.48a9.17,9.17,0,0,1-2.76-.95,11,11,0,0,1-3.53-2.83A32.66,32.66,0,0,0,23.58,18l.93-.12c.48,0,.79-.27.79-.6a.83.83,0,0,0-.37-.65l-2.32-1.85-.07.13a28.34,28.34,0,0,1-4.17,6,17.5,17.5,0,0,1-2.32-6.62H29.34a.4.4,0,0,0,.44-.39.77.77,0,0,0-.27-.57Z"/><path class="cls-1" d="M26.86,2.46l-2,2.28H20V2l.73-.35A.75.75,0,0,0,21.17,1a.79.79,0,0,0-.78-.8h0L17.76,0V4.74H11.13V2.12l.83-.5a.82.82,0,0,0,.41-.69.73.73,0,0,0-.82-.7L8.92.1V4.74H5.72c-.51,0-1.37,0-2.36,0L0,4.58.52,5.89H.61c2.46-.13,2.66-.13,5.11-.13h3.2V10.4c0,.37.19.58.51.58a4.4,4.4,0,0,0,1.27-.37.59.59,0,0,0,.43-.62V5.76h6.63V8.87a.46.46,0,0,0,.5.51c.89,0,1.7-.49,1.7-1V5.76h9.38c.26,0,.44-.22.44-.54a.84.84,0,0,0-.33-.61Z"/><path class="cls-1" d="M21.57,11.47c.5,1.28.66,1.56,1.21,1.56A1.32,1.32,0,0,0,24,11.68c0-1.34-1.43-2.48-3.65-2.9l-.09,0L20,9.28l.08.06A5,5,0,0,1,21.57,11.47Z"/><path class="cls-1" d="M53.15,9.83H65.4a.51.51,0,0,0,.51-.58.74.74,0,0,0-.31-.58L62.83,6.52,60.74,8.81H53V2.57L53.88,2a.88.88,0,0,0,.45-.71.79.79,0,0,0-.76-.67l-3-.2V8.81h-6l-2.77-.07L38.3,8.65h-.18L38.59,10h.1c1.42,0,2.64-.07,3-.1l1.7,0,1.18,0h5.12A43,43,0,0,1,38.64,24.39c-1.22,1-1.52,1.26-1.52,1.5a.47.47,0,0,0,.44.45c.54,0,3.07-1.77,4.88-3.3a40.51,40.51,0,0,0,8.18-9.25V28.87a.42.42,0,0,0,.45.47A5,5,0,0,0,52.63,29a.76.76,0,0,0,.38-.75v-16c2.8,6,5.35,9,11.07,13l.1.07.07-.1A6.66,6.66,0,0,1,67,22.77l.24-.13-.26-.1A24.54,24.54,0,0,1,53.15,9.83Z"/><path class="cls-1" d="M104,5.8l-2.52-2L99.3,6H89V4.72l.41-.18a.77.77,0,0,0,.49-.63,1,1,0,0,0-.3-.57l-2.15-2L86.3,2.79h-8L76,1.42V25.8c0,.45.2.66.63.66.92,0,1.53-.37,1.53-.92V22.27h8.65v1.35c0,.45.06.86.48.86C88,24.48,89,24,89,23.43V7h7V25.42a.44.44,0,0,1-.06.32c-.08.09-.29.12-.71.12l-3.42-.1v.7l3,.89c.6.21.62.27.59.71a.77.77,0,0,0,.17.61.69.69,0,0,0,.53.19,2.82,2.82,0,0,0,1.32-.46,1.94,1.94,0,0,0,1.11-2V7h5.48a.52.52,0,0,0,.54-.51A.94.94,0,0,0,104,5.8ZM86.78,13v8.26h-3.3V13Zm0-9.18V12h-3.3V3.81Zm-5.41,0V12H78.13V3.81Zm0,9.18v8.26H78.13V13Z"/><path class="cls-1" d="M127.35,5.45c-7.26,0-13.18,5.59-13.18,12.47a7.58,7.58,0,0,0,1.7,5.14,3,3,0,0,0,2.3,1.26c1.71,0,3.46-1.19,5.35-3.63a17.68,17.68,0,0,0,3.93-10.25A29,29,0,0,0,127,6.69l.75,0a8.1,8.1,0,0,1,4.88,1.64c1.8,1.35,2.71,3.5,2.71,6.39a11.55,11.55,0,0,1-3.61,8.84,14.5,14.5,0,0,1-6,3.14c-.49.14-.63.18-.63.37s.26.42.54.42a19.35,19.35,0,0,0,4.42-1.07c5.1-1.84,8.15-6,8.15-11.15C138.23,9.47,133.76,5.45,127.35,5.45Zm-9,16.6c-1.13,0-2-1.73-2-4a11.25,11.25,0,0,1,9.18-11.19l0,.07A6.08,6.08,0,0,1,126,9.06a20.17,20.17,0,0,1-2.23,7.49C122.18,19.48,119.66,22.05,118.33,22.05Z"/><path class="cls-1" d="M171.59,4.06l-1,1.61H162l1.23-3,.57-.33c.4-.23.67-.46.67-.81a.77.77,0,0,0-.58-.7L160.71.11V.26a50.4,50.4,0,0,1-.46,5.41H156l-2.85-1.8V29.09c0,.36.25.57.67.57A3.19,3.19,0,0,0,155,29.4c.48-.17.66-.4.66-.82V27h14.88V28.8c0,.18.07.58.7.58a3.2,3.2,0,0,0,1.41-.4.71.71,0,0,0,.38-.69V7.81l.47-.14c.32-.12.65-.37.65-.69a1.1,1.1,0,0,0-.32-.66Zm-1.07,2.63v5.64H155.64V6.69Zm0,6.66v5.79H155.64V13.35Zm0,6.81V26H155.64V20.16Z"/><path class="cls-1" d="M206.83,4l-.23.6.06,0c1,.87,1.05.94,1.8,2.74l0,.06c.31.75.67,1.07,1.21,1.07a1.2,1.2,0,0,0,1.18-1.21A3.36,3.36,0,0,0,209,4.73,8,8,0,0,0,206.93,4Z"/><path class="cls-1" d="M205.9,10.66h8.49a.55.55,0,0,0,.54-.54,1,1,0,0,0-.4-.68L212,7.71l-1.8,1.93h-4.73v0a56.76,56.76,0,0,0,.4-6.58l.65-.45c.45-.3.69-.53.69-.87,0-.64-.59-.78-1.17-.83l-2.6-.23V.78c0,1.72,0,2.88,0,3.9a40.75,40.75,0,0,1-.24,5h-5l.52-2,.56-.23c.4-.11.64-.34.64-.6a1.25,1.25,0,0,0-.42-.76L197.74,4.2l-1,1.41h-4.26c.1-.39.17-.68.24-.93.12-.47.21-.82.38-1.56l.66-.42c.31-.18.51-.37.51-.71s-.35-.62-.73-.73L190.89.65V.79a38.71,38.71,0,0,1-4.81,15.78.61.61,0,0,0-.12.33.41.41,0,0,0,.41.38c.31,0,.81-.57,2.92-3.94a5.44,5.44,0,0,1,1.77,2.27l0,.09c.56,1.17.63,1.32,1.24,1.52a17.69,17.69,0,0,1-5.07,4.31c-1.18.64-1.18.64-1.18.91a.45.45,0,0,0,.47.41,4.52,4.52,0,0,0,1.66-.62,17.49,17.49,0,0,0,4.57-3.06c2.26-2,3.81-4.59,5.16-8.51h5.17a13.94,13.94,0,0,1-7.68,10.67c-.37.19-.55.38-.55.59a.45.45,0,0,0,.47.42c1,0,4.27-2,5.94-3.59a12.06,12.06,0,0,0,3.8-7c1,3.36,4.21,7.49,7.73,9.82l.09.06.07-.08a6.33,6.33,0,0,1,1.4-1.4,3.17,3.17,0,0,1,.35-.29l.17-.13.46-.34.19-.13-.22-.09C210.72,17.49,207.38,14.45,205.9,10.66Zm-11.2,2.46a17.27,17.27,0,0,1-1.3,2.58c-.2-1.43-1.37-2.35-3.72-2.95a27.82,27.82,0,0,0,1.38-3,6.66,6.66,0,0,1,2.49,2.45A1.51,1.51,0,0,0,194.7,13.12Zm1.91-6.49a34.86,34.86,0,0,1-1.12,4.48c-.83-1.34-1.75-1.82-4.1-2.18.39-1.08.47-1.32.79-2.3Z"/><path class="cls-1" d="M201.73,22.67l-.1,0-.3.5.09.06c1.55,1.28,2,2,2.48,4.35.17.85.48,1.15,1.18,1.15a1.36,1.36,0,0,0,1.47-1.43C206.55,25.44,204.79,23.77,201.73,22.67Z"/><path class="cls-1" d="M208.16,22l-.11,0-.28.69.1.05A7.76,7.76,0,0,1,210.6,26c.67,1.63.77,1.88,1,2.06a1.32,1.32,0,0,0,1,.42,1.42,1.42,0,0,0,1.37-1.5C213.91,25.19,211.71,23.3,208.16,22Z"/><path class="cls-1" d="M191,22.24l-.73.05v.1a5.08,5.08,0,0,1-1.43,3c-1.47,1.22-1.47,1.22-1.61,1.36a1.57,1.57,0,0,0-.45,1.07A1.19,1.19,0,0,0,188.12,29c1.73,0,3.13-2.22,3.13-5a7.48,7.48,0,0,0-.22-1.65Z"/><path class="cls-1" d="M195.44,23l-.09,0-.39.49.08.08A4.24,4.24,0,0,1,196.32,26c.35,2.45.35,2.45.5,2.73a1.22,1.22,0,0,0,1,.54c.84,0,1.4-.69,1.4-1.72C199.25,25.84,197.76,24,195.44,23Z"/><path class="cls-1" d="M241.08,10.21a46.34,46.34,0,0,0,5.52-.42c1.21-.14,1.39-.64,1.39-.92a2.77,2.77,0,0,0-2.11-1.95,1,1,0,0,0-.57.17,14.3,14.3,0,0,1-5.7,1.24A3.19,3.19,0,0,1,237,7.41c-.08-.16-.17-.23-.3-.23a.29.29,0,0,0-.29.25,2.49,2.49,0,0,0,.68,1.27A5.1,5.1,0,0,0,241.08,10.21Z"/><path class="cls-1" d="M232.22,15.27c-.28,0-.28,0-1.53,3.35l-1,3c-.22.73-.39.87-.62.87-.39,0-.8-1.32-.8-3.52a17.28,17.28,0,0,1,1.59-6.84c1.33-3.34,1.45-3.68,1.45-4.78a3.75,3.75,0,0,0-1.55-3.13,3.61,3.61,0,0,0-2-.9c-.29,0-.32.16-.32.23s.06.17.18.29a3.12,3.12,0,0,1,1,2.62,15.93,15.93,0,0,1-.6,3.74c-1.15,4.94-1.44,6.78-1.44,8.93,0,4.54,1.8,8.83,3.71,8.83a1.21,1.21,0,0,0,1.11-1.31,1.73,1.73,0,0,0-.14-.66,4.23,4.23,0,0,1-.37-1.81,26,26,0,0,1,.86-5.56c.24-.91.71-2.46.83-2.68a.57.57,0,0,0,0-.24A.44.44,0,0,0,232.22,15.27Z"/><path class="cls-1" d="M248.47,21.73a4.19,4.19,0,0,0-1.21.23,18.19,18.19,0,0,1-4.45.61c-3.86,0-5.73-1.29-5.73-3.94a6.55,6.55,0,0,1,.09-1,.27.27,0,0,0,0-.12.3.3,0,0,0-.32-.28c-.51,0-.8.86-.8,2.36a5.06,5.06,0,0,0,2.33,4.3c1.21.76,3.63,1.2,6.63,1.2,3.33,0,5-.66,5-1.95A1.48,1.48,0,0,0,248.47,21.73Z"/><path class="cls-1" d="M285.74,17.29a9.18,9.18,0,0,0-6.48-2.43,11.44,11.44,0,0,0-4.19.74,6.37,6.37,0,0,0-.57-.6l-.47-.46c-1.48-1.39-2.17-2.39-2.17-3.14,0-1.84,2.14-3.4,4.68-3.4.19,0,.39,0,.63,0l.35,0a6.78,6.78,0,0,0,.68.05c.61,0,1.15-.4,1.15-.86a3.64,3.64,0,0,0-.54-1.55c-.32-.39-.59-.5-1.31-.5-2.66,0-5-1.38-5.16-3,0-.37-.22-.41-.31-.41-.45,0-.45.72-.45,1A3.72,3.72,0,0,0,274,6.52c-2.52,1.74-3.55,3.1-3.55,4.65,0,1,.47,1.8,2.2,3.77a13,13,0,0,1,1.09,1.33c-1.84.81-2.77,1.43-8,5.3-2,1.42-2.41,1.67-2.9,1.67s-.65-.19-.65-1.12a5.28,5.28,0,0,1,.09-1.05.76.76,0,0,0,0-.27.32.32,0,0,0-.28-.31c-.66,0-1.6,1.86-1.6,2.87A3.14,3.14,0,0,0,263,26.18c.71,0,1.14-.36,2.17-1.52.51-.56,1.23-1.29,2.34-2.37,5,1.88,6.49,2.85,7.08,4.7l0,.09h.1a4.79,4.79,0,0,0,3-.92,3.28,3.28,0,0,0,1.14-2.5,11.26,11.26,0,0,0-2.83-7,8.37,8.37,0,0,1,3.12-.6c3.53,0,5.93,2.7,6.59,7.41.11.73.55,1.19,1.15,1.19a1.65,1.65,0,0,0,1.7-1.75A8.29,8.29,0,0,0,285.74,17.29ZM275.35,24a2.23,2.23,0,0,1-.68-.18l-.38-.16-.23-.1-2.41-.87c-.64-.25-1.24-.46-1.76-.64l-.58-.21-1-.36a26.22,26.22,0,0,1,6.12-4.24,9.05,9.05,0,0,1,1.74,5.16C276.16,23.44,275.86,24,275.35,24Z"/><path class="cls-1" d="M326.58,18.34c-.21,0-.3.17-.46.49-1.24,2.76-3.24,4.28-5.65,4.28-1.25,0-1.86-.63-1.86-1.92a54.1,54.1,0,0,1,1.25-8.14,10.12,10.12,0,0,0,.39-2.52c0-2.18-1.69-3.71-4.1-3.71s-4.6,1.37-8.5,5.37a9.18,9.18,0,0,0,.4-1.63c0-.54-.21-.81-.82-1A21.76,21.76,0,0,1,308.05,5c.16-.43.16-.44.16-.56,0-.78-2.31-2.1-3.38-2.1-.56,0-2.05.63-2.05,1a.27.27,0,0,0,.28.28c2,.12,2.28.42,2.31,5.19v.62a21.84,21.84,0,0,0-3.24,1.71c-1.7,1.1-2.2,1.7-2.2,2.66a5.58,5.58,0,0,0,1.14,2.85c.59,1,.85,1.44,1.37,2.39l-.49.72c-.91,1.33-1.15,1.69-1.48,2.12-.75,1-1,1.36-1,1.9a7,7,0,0,0,.52,2c.24.49.51.71.85.71a1.15,1.15,0,0,0,1.05-1.07,16.33,16.33,0,0,1,1.47-4.64,20.52,20.52,0,0,1,1.54,6.49c.06.73.13,1.2.58,1.2a3.64,3.64,0,0,0,1.61-.69,1.33,1.33,0,0,0,.5-1,2.71,2.71,0,0,0,0-.52c-.35-4.8-.44-6.86-.44-9.59V14.55c4.05-4.4,6.35-6,8.45-6,1.16,0,1.86.93,1.86,2.47a20.32,20.32,0,0,1-.29,2.61,71.59,71.59,0,0,0-.83,7.34c0,2.9,1.32,4.64,3.54,4.64a7.72,7.72,0,0,0,6.81-5.13,6.38,6.38,0,0,0,.45-1.43C327.12,18.69,326.85,18.34,326.58,18.34Zm-20.95,5.51a.91.91,0,0,1-.11-.24c-.42-1.26-.83-2.33-1.52-3.95.47-.87.71-1.33,1-1.9.18-.33.38-.7.65-1.22.07,2,.07,3,.07,5.38A9.33,9.33,0,0,1,305.63,23.85Zm-.26-9.16-2.06,3.5c-.24-.58-.38-.94-.48-1.19s-.21-.52-.32-.76a4.42,4.42,0,0,1-.6-1.93,1.84,1.84,0,0,1,.94-1.66,6.07,6.07,0,0,1,2.1-1c.17,0,.26.06.42.27,0,1.24,0,1.33,0,1.49C305.34,13.76,305.34,14,305.37,14.69Z"/><path class="cls-1" d="M351.61,13.26a11.84,11.84,0,0,0-4.66,1l-.23.09-.22.1-.11.05h-.05l-.1.06a.27.27,0,0,1-.07-.17,11.06,11.06,0,0,1,2-2.51c2.62-2.94,4.4-4.52,5.75-5.12a.86.86,0,0,0,.59-.82c0-1-2.41-2.55-3.68-2.55a1.62,1.62,0,0,0-1.16.4,18.59,18.59,0,0,1-6.55,2.32,1,1,0,0,1-1.1-.71v0c-.05-.21-.08-.33-.27-.33-.35,0-.38.4-.38.89A2.62,2.62,0,0,0,342,7.7a2.49,2.49,0,0,0,1.6,1,2.13,2.13,0,0,0,1.28-.59c3.29-2.3,4-2.7,5-2.7a.56.56,0,0,1,.58.61c0,.45,0,.48-1.76,2.73l-.11.14a80.1,80.1,0,0,1-9.07,10.8c-.66.65-.93,1.1-.93,1.5,0,.72.88,1.75,1.5,1.75a1.34,1.34,0,0,0,1.26-.93,14.92,14.92,0,0,1,2.38-3.75c2.05-2.49,4.07-3.51,7-3.51,3.1,0,4.8,1.71,4.8,4.8a6.73,6.73,0,0,1-.94,3.46A5,5,0,0,1,352,25.05l-.07-.2a4.91,4.91,0,0,0-4.76-3.24c-1.95,0-3.26,1-3.26,2.55a2.4,2.4,0,0,0,.91,2,6.29,6.29,0,0,0,3.92,1.21,11.29,11.29,0,0,0,7-2.43,6.83,6.83,0,0,0,2.45-5.37A6.25,6.25,0,0,0,351.61,13.26Zm-4.45,9.62c1.38,0,2.25.91,2.61,2.72h-.07a5.62,5.62,0,0,1-.94.06c-1.76,0-2.95-.66-2.95-1.63C345.81,23.33,346.34,22.88,347.16,22.88Z"/></g></g></svg>