<svg xmlns="http://www.w3.org/2000/svg" viewBox="0 0 117.79 32.27"><defs><style>.cls-1{fill:#343434;}</style></defs><g id="Layer_2" data-name="Layer 2"><g id="Layer_1-2" data-name="Layer 1"><path class="cls-1" d="M11.05,6.22c.29,1.29.61,2,1.39,2a1.82,1.82,0,0,0,1.63-2,5.32,5.32,0,0,0-2.53-4.13A10.35,10.35,0,0,0,7.75.42l-.1,0L7.46.84,7.54.9A9.57,9.57,0,0,1,11.05,6.22Z"/><path class="cls-1" d="M20.26,9.63h12.3A.53.53,0,0,0,33.08,9a.77.77,0,0,0-.34-.64L29.85,6.06,27.5,8.52H20.09l3.41-5,1-.42c.52-.26.68-.4.68-.76a.79.79,0,0,0-.46-.69L21.54,0l-.05.15a68,68,0,0,1-3.16,8.37H8.58c-2.54,0-3.67,0-7-.18H1.34L2,9.81l.72,0,2.57,0C7,9.67,8.13,9.63,8.58,9.63h3.09A27.87,27.87,0,0,1,1.32,21.53l-.09,0c-1.07.58-1.23.67-1.23,1s.2.41.49.41c.88,0,4.14-1.87,6.67-3.82V29.57L.48,29.39l.57,1.48.94,0,2.24-.05,1.39,0,1.27,0H33.21c.21,0,.37-.34.37-.52a1,1,0,0,0-.23-.53l-3.19-2.49-1.95,2.39h-1.9v-8.3l.7-.43a.68.68,0,0,0,.34-.54c0-.19-.1-.33-.32-.55l-2.4-2.29L23.32,19H9.63l-1.24-.9c2.73-2.53,3.92-4,6.88-8.5h3.64c2.2,4.84,6.12,8.51,12.3,11.54l.1,0,.06-.1c.57-1,1-1.39,3-2.62l.23-.14-.26-.08C27,16.07,22.73,13.48,20.26,9.63ZM9.54,29.57V20.14h3.31v9.43Zm5.61,0V20.14h3v9.43Zm5.33,0V20.14h3.39v9.43Z"/><path class="cls-1" d="M71.86,13.62l-2.53,2.6H60.26V11.89l.35-.14a1.16,1.16,0,0,0,.8-.91c0-.27-.2-.46-.46-.62a49.19,49.19,0,0,0,6.36-4.91l1.87-.07c.79,0,1.2-.32,1.2-.85a1.31,1.31,0,0,0-.55-1L67,1,65.12,2.79H53.8c-1.93,0-3.18,0-6.4-.18h-.19l.57,1.45h.09c3-.11,4.22-.14,5.93-.14H64.43a53.14,53.14,0,0,1-4.88,5.82l-2.13-.3v6.79h-7.8c-1.81,0-3.33,0-7.08-.22h-.17l.43,1.53h.1c4-.14,5.28-.18,6.72-.18h7.8v10.6c0,.78,0,.82-.88.82h-4l0,.75,3.25,1.07.91.31h0a1.25,1.25,0,0,1,0,.47c0,.61.24.92.7.92a3.56,3.56,0,0,0,1.69-.67c.94-.57,1.21-.88,1.21-1.83V17.33H74.79c.43,0,.7-.21.7-.55a.87.87,0,0,0-.34-.64Z"/><path class="cls-1" d="M117.27,5.88l-2.82-2.27L112,6.1H100.4V4.65l.46-.21a.87.87,0,0,0,.55-.69,1.15,1.15,0,0,0-.33-.63L98.68.82,97.4,2.5h-9L85.79,1v27.4c0,.49.23.73.7.73,1,0,1.71-.41,1.71-1V24.39H98v1.53c0,.46,0,.95.52.95.81,0,1.93-.59,1.93-1.17V7.22h7.85V27.94c0,.19,0,.31-.07.37s-.41.15-.81.15l-3.84-.11v.76l3.33,1c.68.24.7.31.67.81a.88.88,0,0,0,.18.68.77.77,0,0,0,.59.21,3.14,3.14,0,0,0,1.48-.52A2.17,2.17,0,0,0,111,29.09V7.22h6.17a.58.58,0,0,0,.6-.56C117.79,6.4,117.62,6.15,117.27,5.88ZM98,14v9.32H94.21V14ZM98,3.62v9.21H94.21V3.62Zm-6.08,0v9.21H88.2V3.62Zm0,10.33v9.32H88.2V14Z"/></g></g></svg>