<svg xmlns="http://www.w3.org/2000/svg" width="879.94" height="158.12" viewBox="0 0 439.97 79.06">
  <defs>
    <style>
      .cls-1 {
        fill: #fff;
        fill-rule: evenodd;
      }
    </style>
  </defs>
  <path id="ひと皿ひと皿に_一期一会_の想いをこめて" data-name="ひと皿ひと皿に 「一期一会」の想いをこめて" class="cls-1" d="M1858.66,3358.15a6.025,6.025,0,0,0,.03-0.72,1.276,1.276,0,0,0-.87-1.47,2.564,2.564,0,0,0-1.26.51,1.486,1.486,0,0,0-.75,1.29,29.45,29.45,0,0,0,1.47,5.64,25.138,25.138,0,0,1-.99,7.59c-1.17,3.87-3.18,5.76-6.06,5.76-2.85,0-4.47-1.86-4.47-5.13a14.553,14.553,0,0,1,2.88-8.4,9.677,9.677,0,0,1,2.94-2.7,4.541,4.541,0,0,0,1.5-.45,0.76,0.76,0,0,0,.3-0.54c0-.6-1.77-1.77-2.7-1.77a1.26,1.26,0,0,0-.84.39,8.574,8.574,0,0,1-2.64,1.53,9.655,9.655,0,0,1-2.58.6,1.622,1.622,0,0,1-1.62-.96c-0.12-.24-0.12-0.24-0.24-0.27-0.06-.03-0.15.09-0.15,0.18a3.562,3.562,0,0,0,.48,1.89,2.235,2.235,0,0,0,1.68,1.32,13.855,13.855,0,0,0,3.63-.99,27.274,27.274,0,0,0-3.84,5.79,12.44,12.44,0,0,0-1.35,5.04,8.792,8.792,0,0,0,1.11,4.11,6.21,6.21,0,0,0,5.82,3.06,7.567,7.567,0,0,0,7.17-4.74c0.78-1.8.9-2.7,1.02-6.87,0.06-2.1.12-2.43,0.27-2.43a0.424,0.424,0,0,1,.24.27,31.9,31.9,0,0,0,1.89,3.12c1.53,2.16,2.88,3.27,3.96,3.27a1.623,1.623,0,0,0,1.35-1.74,3.234,3.234,0,0,0-.36-1.29,1.226,1.226,0,0,0-.81-0.78,11.353,11.353,0,0,1-4.68-3.78,10.448,10.448,0,0,1-1.53-5.73v-0.6Zm27.6,9.87c-3.84,1.77-5.91,4.14-5.91,6.75a5,5,0,0,0,2.55,4.23,12.736,12.736,0,0,0,6.27,1.32,24.157,24.157,0,0,0,6.63-.87c1.02-.36,1.41-0.75,1.41-1.32a2.3,2.3,0,0,0-2.19-2.13,5.086,5.086,0,0,0-1.59.39,18.419,18.419,0,0,1-5.64,1.05c-3.18,0-5.04-1.2-5.04-3.24a5.293,5.293,0,0,1,2.49-4.17,13.9,13.9,0,0,1,3.21-1.56,25.181,25.181,0,0,0,3.42-.72c1.95-.54,2.46-0.81,2.46-1.35a2.771,2.771,0,0,0-2.4-2.07,1.078,1.078,0,0,0-.75.36c-1.41,1.23-2.73,2.04-3.3,2.04-0.36,0-.66-0.72-0.66-1.62a25.364,25.364,0,0,1,.96-6.03,5.379,5.379,0,0,0,.39-1.89,1.9,1.9,0,0,0-.99-1.59,5.167,5.167,0,0,0-2.67-.9c-1.11,0-2.73.6-2.73,1.02,0,0.12.09,0.18,0.3,0.18a3.012,3.012,0,0,1,1.56.51,2.212,2.212,0,0,1,.87,2.16c0,0.3,0,.81-0.06,1.8-0.03.9-.03,1.29-0.03,1.83C1884.82,3365.38,1884.97,3366.01,1886.26,3368.02Zm22.23,10.5,0.72,1.14c3.84-.15,3.99-0.15,5.19-0.15h21.99a0.424,0.424,0,0,0,.51-0.42,0.82,0.82,0,0,0-.24-0.57l-2.43-2.4-1.65,2.58h-0.33v-18.33l0.69-.12a0.49,0.49,0,0,0,.42-0.51,0.8,0.8,0,0,0-.24-0.51l-2.79-2.85-1.23,2.04h-13.62l-3.36-1.71v21.9Zm6.39,0.18v-19.47h3.21v19.47h-3.21Zm5.73,0v-19.47h3.03v19.47h-3.03Zm5.52,0v-19.47h3.36v19.47h-3.36Zm36.93-20.55a6.025,6.025,0,0,0,.03-0.72,1.276,1.276,0,0,0-.87-1.47,2.564,2.564,0,0,0-1.26.51,1.486,1.486,0,0,0-.75,1.29,29.45,29.45,0,0,0,1.47,5.64,25.138,25.138,0,0,1-.99,7.59c-1.17,3.87-3.18,5.76-6.06,5.76-2.85,0-4.47-1.86-4.47-5.13a14.553,14.553,0,0,1,2.88-8.4,9.677,9.677,0,0,1,2.94-2.7,4.541,4.541,0,0,0,1.5-.45,0.76,0.76,0,0,0,.3-0.54c0-.6-1.77-1.77-2.7-1.77a1.26,1.26,0,0,0-.84.39,8.574,8.574,0,0,1-2.64,1.53,9.655,9.655,0,0,1-2.58.6,1.622,1.622,0,0,1-1.62-.96c-0.12-.24-0.12-0.24-0.24-0.27-0.06-.03-0.15.09-0.15,0.18a3.562,3.562,0,0,0,.48,1.89,2.235,2.235,0,0,0,1.68,1.32,13.855,13.855,0,0,0,3.63-.99,27.274,27.274,0,0,0-3.84,5.79,12.44,12.44,0,0,0-1.35,5.04,8.792,8.792,0,0,0,1.11,4.11,6.21,6.21,0,0,0,5.82,3.06,7.567,7.567,0,0,0,7.17-4.74c0.78-1.8.9-2.7,1.02-6.87,0.06-2.1.12-2.43,0.27-2.43a0.424,0.424,0,0,1,.24.27,31.9,31.9,0,0,0,1.89,3.12c1.53,2.16,2.88,3.27,3.96,3.27a1.623,1.623,0,0,0,1.35-1.74,3.234,3.234,0,0,0-.36-1.29,1.226,1.226,0,0,0-.81-0.78,11.353,11.353,0,0,1-4.68-3.78,10.448,10.448,0,0,1-1.53-5.73v-0.6Zm27.6,9.87c-3.84,1.77-5.91,4.14-5.91,6.75a5,5,0,0,0,2.55,4.23,12.736,12.736,0,0,0,6.27,1.32,24.157,24.157,0,0,0,6.63-.87c1.02-.36,1.41-0.75,1.41-1.32a2.3,2.3,0,0,0-2.19-2.13,5.086,5.086,0,0,0-1.59.39,18.419,18.419,0,0,1-5.64,1.05c-3.18,0-5.04-1.2-5.04-3.24a5.293,5.293,0,0,1,2.49-4.17,13.9,13.9,0,0,1,3.21-1.56,25.181,25.181,0,0,0,3.42-.72c1.95-.54,2.46-0.81,2.46-1.35a2.771,2.771,0,0,0-2.4-2.07,1.078,1.078,0,0,0-.75.36c-1.41,1.23-2.73,2.04-3.3,2.04-0.36,0-.66-0.72-0.66-1.62a25.364,25.364,0,0,1,.96-6.03,5.379,5.379,0,0,0,.39-1.89,1.9,1.9,0,0,0-.99-1.59,5.167,5.167,0,0,0-2.67-.9c-1.11,0-2.73.6-2.73,1.02,0,0.12.09,0.18,0.3,0.18a3.012,3.012,0,0,1,1.56.51,2.212,2.212,0,0,1,.87,2.16c0,0.3,0,.81-0.06,1.8-0.03.9-.03,1.29-0.03,1.83C1989.22,3365.38,1989.37,3366.01,1990.66,3368.02Zm22.23,10.5,0.72,1.14c3.84-.15,3.99-0.15,5.19-0.15h21.99a0.424,0.424,0,0,0,.51-0.42,0.82,0.82,0,0,0-.24-0.57l-2.43-2.4-1.65,2.58h-0.33v-18.33l0.69-.12a0.49,0.49,0,0,0,.42-0.51,0.8,0.8,0,0,0-.24-0.51l-2.79-2.85-1.23,2.04h-13.62l-3.36-1.71v21.9Zm6.39,0.18v-19.47h3.21v19.47h-3.21Zm5.73,0v-19.47h3.03v19.47h-3.03Zm5.52,0v-19.47h3.36v19.47h-3.36Zm30.69-18.6a0.161,0.161,0,0,0-.15.15,2.8,2.8,0,0,0,.75,1.56,5.788,5.788,0,0,0,4.17,1.47,17.063,17.063,0,0,0,5.1-.72,1.028,1.028,0,0,0,.81-0.87,2.207,2.207,0,0,0-2.01-1.95,2.458,2.458,0,0,0-1.26.42,13.466,13.466,0,0,1-4.56.99,3.277,3.277,0,0,1-2.7-.93A0.323,0.323,0,0,0,2061.22,3360.1Zm10.98,13.65a3.258,3.258,0,0,0-.99.18,16.5,16.5,0,0,1-4.08.57,6.634,6.634,0,0,1-4.92-1.71,4.356,4.356,0,0,1-1.14-2.55c-0.03-.33-0.06-0.42-0.18-0.42-0.27,0-.39.6-0.39,1.68,0,3.87,2.94,6,8.34,6,3.42,0,5.1-.72,5.1-2.13A1.643,1.643,0,0,0,2072.2,3373.75Zm-14.58-5.58c-0.15,0-.24.09-0.45,0.54-0.06.15-.21,0.48-0.48,1.02-0.87,1.86-1.29,2.76-1.65,3.57-0.3.69-.42,0.84-0.75,0.84-0.42,0-.72-1.23-0.72-2.85,0-2.01.57-4.2,1.98-7.71a8.323,8.323,0,0,0,.87-3.3,3.827,3.827,0,0,0-1.17-2.79,3.886,3.886,0,0,0-2.4-1.14,0.723,0.723,0,0,0-.6.18,0.1,0.1,0,0,0,.06.09c0.72,0.24,1.14,1.26,1.14,2.67a20.357,20.357,0,0,1-.78,4.59,32.5,32.5,0,0,0-1.11,7.44c0,4.62,1.77,8.28,4.02,8.28a1.032,1.032,0,0,0,1.11-.69,1.178,1.178,0,0,0-.09-0.42,7.352,7.352,0,0,1-.45-2.88,16.225,16.225,0,0,1,1.56-6.69,2.45,2.45,0,0,0,.15-0.51A0.258,0.258,0,0,0,2057.62,3368.17Zm-199.05,58.71v-19.29h7.62v-1.8h-9.42v21.09h1.8Zm16.2-6.96c1.2-.03,2.28-0.06,2.67-0.09,1.32-.03,2.22-0.06,2.58-0.06h20.88a0.419,0.419,0,0,0,.51-0.36,1.14,1.14,0,0,0-.57-0.75l-2.79-2.22-2.34,2.46h-15.69s-1.44-.03-2.7-0.06c-0.48-.03-1.74-0.06-3.21-0.09Zm40.89,8.64a0.554,0.554,0,0,0,.54-0.54,0.822,0.822,0,0,0-.39-0.66l-2.28-1.44a22.887,22.887,0,0,1-4.47,6.48,1.44,1.44,0,0,0-.6.72,0.194,0.194,0,0,0,.18.18c0.15,0,.15,0,1.56-0.84a22.184,22.184,0,0,0,4.68-3.72Zm-6.66-3.06c2.37-.09,2.49-0.09,3.48-0.09h12.93c-0.84,3.48-2.01,5.31-4.47,7.05-1.05.72-1.05,0.72-1.05,0.81a0.194,0.194,0,0,0,.18.18,12.043,12.043,0,0,0,2.79-1.35c3.45-2.07,4.74-4.47,5.25-9.75h4.5v6.9c0,0.63-.06.75-0.36,0.84a21.251,21.251,0,0,1-2.55.15h-0.39l-1.05-.03h-0.18a0.2,0.2,0,0,0-.24.18c0,0.21.48,0.39,2.43,1.02,1.14,0.39,1.29.48,1.35,0.78,0.09,1.23.18,1.35,0.72,1.35a3.511,3.511,0,0,0,1.62-.57,2.133,2.133,0,0,0,1.23-2.22v-20.76l0.39-.12a0.623,0.623,0,0,0,.48-0.54,1.092,1.092,0,0,0-.39-0.69l-2.25-2.34-1.11,1.59h-3.99l-2.64-1.23c0.18,3.42.21,5.28,0.21,10.59a51.179,51.179,0,0,1-.36,7.53l-2.46-2.22-1.74,2.04h-0.45v-11.76h3.84c0.39,0,.57-0.09.57-0.36a0.922,0.922,0,0,0-.39-0.66l-1.95-1.74-1.53,1.95h-0.54v-4.2l0.39-.24a0.739,0.739,0,0,0,.39-0.6,0.636,0.636,0,0,0-.66-0.6l-2.55-.15v5.79h-4.05v-4.29l0.36-.21a0.872,0.872,0,0,0,.42-0.66,0.532,0.532,0,0,0-.54-0.51l-2.64-.27v5.94c-1.56-.03-1.8-0.03-3.54-0.12l0.6,1.02c1.35-.06,1.56-0.09,2.94-0.09v11.76c-1.59-.03-1.83-0.03-3.54-0.12Zm5.4-.9v-3.42h4.05v3.42h-4.05Zm0-7.56h4.05v3.33h-4.05v-3.33Zm0-.81v-3.39h4.05v3.39h-4.05Zm18.21-.72v6.03h-4.41l0.03-1.2c0.15-3.06.15-3.21,0.15-4.83h4.23Zm-4.23-6.81h4.23v6h-4.23v-6Zm-11.16,17.34a0.212,0.212,0,0,0-.24.18,1.022,1.022,0,0,0,.63.54c0.99,0.66,1.62,1.62,2.25,3.57a1.22,1.22,0,0,0,1.17,1.02,1.385,1.385,0,0,0,1.29-1.47c0-1.11-.9-2.22-2.4-3A10.4,10.4,0,0,0,1917.22,3426.04Zm27.15-6.12c1.2-.03,2.28-0.06,2.67-0.09,1.32-.03,2.22-0.06,2.58-0.06h20.88a0.419,0.419,0,0,0,.51-0.36,1.14,1.14,0,0,0-.57-0.75l-2.79-2.22-2.34,2.46h-15.69s-1.44-.03-2.7-0.06c-0.48-.03-1.74-0.06-3.21-0.09Zm49.23-12.18a0.6,0.6,0,0,0,.48-0.6,0.691,0.691,0,0,0-.63-0.66l-3.03-1.02a34.7,34.7,0,0,1-12.06,14.52,0.562,0.562,0,0,0-.33.42,0.277,0.277,0,0,0,.3.27c0.54,0,3.39-1.62,5.31-3.03a37.5,37.5,0,0,0,8.76-9.33c2.82,5.46,5.25,8.04,11.1,11.7,0.54-1.05.99-1.44,2.91-2.61a24.941,24.941,0,0,1-13.32-9.51Zm-14.37,15.48c2.82-.12,4.05-0.15,5.43-0.15h3.06a34.517,34.517,0,0,1-2.76,6.72,47.437,47.437,0,0,1-5.19-.24l1.95,3.54a0.632,0.632,0,0,0,.57.48,0.884,0.884,0,0,0,.75-0.57l0.3-.6,2.25-.27c9.24-1.17,9.57-1.23,12.9-1.77a8.384,8.384,0,0,1,.84,1.44,5.7,5.7,0,0,0,.63,1.29,1.376,1.376,0,0,0,1.17.66,1.576,1.576,0,0,0,1.44-1.77c0-1.56-1.2-3.33-3.21-4.77a16.976,16.976,0,0,0-4.68-2.28,0.232,0.232,0,0,0-.24.21,0.913,0.913,0,0,0,.39.51,16.626,16.626,0,0,1,3.21,3.87c-2.97.24-6.36,0.36-9.96,0.36-0.36,0-1.08,0-1.89-.03,0.72-.99,1.14-1.5,3.81-4.86,0.12-.12.39-0.42,0.66-0.75l0.48-.15a0.588,0.588,0,0,0,.51-0.54,0.567,0.567,0,0,0-.39-0.48h13.26a0.41,0.41,0,0,0,.42-0.42,0.772,0.772,0,0,0-.36-0.6l-2.64-2.01-1.98,2.22H1984.6c-1.5,0-2.79-.03-5.91-0.15Zm5.82-4.98c1.89-.06,2.67-0.09,3.54-0.09h9.42c0.51,0,.69-0.12.69-0.42a0.829,0.829,0,0,0-.3-0.54l-2.31-1.95-2.01,2.1h-5.49c-0.93,0-1.77-.03-4.02-0.12Zm36.39-6.54v19.29h-7.62v1.8h9.42V3411.7h-1.8Zm40.98-.93c0.33-.03.54-0.03,0.63-0.03a7.192,7.192,0,0,1,3.09.72c2.61,1.32,3.96,4.05,3.96,8.07a10.256,10.256,0,0,1-3.84,8.55,16.112,16.112,0,0,1-5.37,2.79c-0.48.15-.57,0.18-0.57,0.33,0,0.12.12,0.18,0.3,0.18a12.994,12.994,0,0,0,1.92-.36,18.478,18.478,0,0,0,5.55-2.04,11.05,11.05,0,0,0,5.55-9.6,9.05,9.05,0,0,0-2.37-6.33,11.575,11.575,0,0,0-8.43-3.3c-7.02,0-13.05,5.67-13.05,12.27a7.771,7.771,0,0,0,1.47,4.83,3.625,3.625,0,0,0,2.52,1.65c1.65,0,4.26-2.13,6.03-4.89a19.306,19.306,0,0,0,3-9.75A11.478,11.478,0,0,0,2062.42,3410.77Zm-1.47.12a1.912,1.912,0,0,0,.06.21,7.212,7.212,0,0,1,.18,1.68,17.641,17.641,0,0,1-3.06,8.97c-1.26,1.98-2.97,3.54-3.9,3.54s-1.74-1.56-1.74-3.33a11.749,11.749,0,0,1,3.54-8.37A11.335,11.335,0,0,1,2060.95,3410.89Zm27.18,12.24a0.34,0.34,0,0,0,.39.36,9.051,9.051,0,0,0,1.71-.39,0.439,0.439,0,0,0,.39-0.36v-7.53a4.926,4.926,0,0,1,1.59,2.13c0.69,1.65.87,1.83,1.47,1.83a1.327,1.327,0,0,0,1.32-1.38,2.629,2.629,0,0,0-1.44-2.16c-0.66-.42-0.9-0.51-2.94-0.96v-3.36h4.62a0.355,0.355,0,0,0,.36-0.39,0.718,0.718,0,0,0-.3-0.54l-1.92-1.68-1.41,1.8h-1.35v-3.21l0.75-.48a0.594,0.594,0,0,0,.3-0.54,0.538,0.538,0,0,0-.6-0.54l-2.94-.21v4.98h-1.41c-0.9,0-1.77-.03-4.02-0.12l0.6,1.02c1.71-.06,2.37-0.09,3.42-0.09h1.41c-0.21,2.58-2.31,6.69-4.98,9.78a1.447,1.447,0,0,0-.51.69,0.142,0.142,0,0,0,.15.15c0.63,0,3.39-2.58,5.34-4.98v6.18Zm-1.02,1.44c-0.09,0-.12.06-0.15,0.27a5.293,5.293,0,0,1-1.41,2.94,11.777,11.777,0,0,0-1.59,1.56,1.763,1.763,0,0,0-.33.96,1.218,1.218,0,0,0,1.35,1.14,2.216,2.216,0,0,0,1.71-1.02,4.364,4.364,0,0,0,1.02-3.12C2087.71,3426.13,2087.38,3424.6,2087.11,3424.57Zm5.4,1.05,0.54-.3a0.582,0.582,0,0,0,.42-0.54,0.661,0.661,0,0,0-.78-0.57l-2.85-.27v6.63c0,1.8.51,2.04,4.38,2.04l4.29-.03c4.14-.24,4.14-0.24,4.8-0.39a1.236,1.236,0,0,0,.93-1.02,1.866,1.866,0,0,0-1.23-1.23,0.385,0.385,0,0,1-.27-0.27,0.661,0.661,0,0,1,.03-0.24c0-.12.03-0.42,0.06-0.84,0-.12.03-0.51,0.09-1.11,0.03-.42.06-0.84,0.06-1.02,0-.21-0.03-0.3-0.15-0.3s-0.12,0-.6,1.23c-1.08,2.4-1.11,2.43-1.62,2.67a36.317,36.317,0,0,1-5.73.24,6.944,6.944,0,0,1-2.25-.15c-0.09-.03-0.09-0.03-0.12-0.63v-3.9Zm1.5-2.19c-0.15,0-.18.03-0.18,0.09a0.345,0.345,0,0,0,.18.21,5.253,5.253,0,0,1,2.13,2.61,6.686,6.686,0,0,0,.78,1.92,1.014,1.014,0,0,0,.75.3,1.472,1.472,0,0,0,1.38-1.53c0-1.11-.93-2.19-2.4-2.91A10.14,10.14,0,0,0,2094.01,3423.43Zm4.92-2.61h5.97v1.62a0.351,0.351,0,0,0,.42.36,5.789,5.789,0,0,0,1.62-.39,0.66,0.66,0,0,0,.6-0.66V3409.9l0.36-.21a0.582,0.582,0,0,0,.42-0.54,1.124,1.124,0,0,0-.33-0.69l-2.25-2.46-1.02,1.65h-5.52l-2.88-1.35v16.35a0.408,0.408,0,0,0,.48.39,7.545,7.545,0,0,0,1.8-.39,0.453,0.453,0,0,0,.33-0.48v-1.35Zm0-.81v-3.39h5.97v3.39h-5.97Zm0-4.2v-3.33h5.97v3.33h-5.97Zm0-4.14v-3.21h5.97v3.21h-5.97Zm4.41,12.84a0.168,0.168,0,0,0-.18.15,0.286,0.286,0,0,0,.18.21,8.736,8.736,0,0,1,3.15,4.08c0.48,1.23.48,1.23,0.57,1.41a1.507,1.507,0,0,0,1.38.96,1.535,1.535,0,0,0,1.44-1.65c0-1.41-1.17-2.85-3.21-3.96A12.282,12.282,0,0,0,2103.34,3424.51Zm32.94-9.57c-0.93,0-2.07.36-2.07,0.63,0,0.09.09,0.15,0.3,0.15,3.06-.15,5.28,2.22,5.76,6.12,0.12,1.44.15,1.5,0.45,1.86a1.388,1.388,0,0,0,.96.39,2.11,2.11,0,0,0,1.92-2.28,6.52,6.52,0,0,0-1.83-4.35A7.043,7.043,0,0,0,2136.28,3414.94Zm-16.08-4.83a0.345,0.345,0,0,0-.39.18,0.26,0.26,0,0,0,.15.21c1.08,0.57,1.59,1.74,1.59,3.6,0,0.3,0,.63-0.03,1.08-0.06,1.35-.12,2.73-0.12,3.3,0,3.75.78,6.69,2.34,8.88,1.35,1.86,3.03,2.91,4.62,2.91a1.426,1.426,0,0,0,1.53-1.14,0.565,0.565,0,0,0-.06-0.24,4.091,4.091,0,0,1-.9-2.58,17.293,17.293,0,0,1,1.02-5.28,0.18,0.18,0,0,0,.03-0.12,0.205,0.205,0,0,0-.21-0.21c-0.15,0-.51.6-1.5,2.61a16.659,16.659,0,0,1-1.2,2.31,1,1,0,0,1-.78.54,1.749,1.749,0,0,1-1.02-.81,8.22,8.22,0,0,1-1.44-5.19,18.355,18.355,0,0,1,.72-5.25,4.172,4.172,0,0,0,.33-1.29,3.606,3.606,0,0,0-.87-2.04A5.89,5.89,0,0,0,2120.2,3410.11Zm46.5-1.83a2.6,2.6,0,0,1-1.41.96,3.4,3.4,0,0,0,.09-0.75,2.039,2.039,0,0,0-.75-1.89,2.4,2.4,0,0,0-1.47-.48c-0.78,0-1.74.3-1.74,0.54,0,0.09.06,0.12,0.21,0.15,0.69,0.03,1.17.93,1.17,2.19a3.6,3.6,0,0,1-.12.93,8.24,8.24,0,0,1-3.18.66,2.4,2.4,0,0,1-1.95-.54,0.437,0.437,0,0,0-.24-0.15,0.137,0.137,0,0,0-.12.15,2.655,2.655,0,0,0,2.58,2.31,13.968,13.968,0,0,0,2.67-.42c-1.11,3.42-2.46,5.28-5.88,8.07-0.87.66-.93,0.75-0.93,1.2,0,1.11.87,2.49,1.53,2.49a1.609,1.609,0,0,0,1.2-1.02c0.63-1.05,2.19-3.39,2.52-3.81a3.413,3.413,0,0,1,2.19-1.32q1.485,0,1.53,2.97l0.03,1.29v0.6a24.5,24.5,0,0,0-2.76,1.8c-1.5,1.2-2.22,2.4-2.22,3.66a3.857,3.857,0,0,0,2.13,3.24,10.507,10.507,0,0,0,5.07.99,24.109,24.109,0,0,0,4.56-.42c1.23-.3,1.86-0.81,1.86-1.47a2.62,2.62,0,0,0-.63-1.35,1.761,1.761,0,0,0-1.29-.54,3.327,3.327,0,0,0-.9.21,18.129,18.129,0,0,1-4.65.66c-2.88,0-4.2-.6-4.2-1.92a3.539,3.539,0,0,1,1.02-2.25,10.51,10.51,0,0,1,2.07-1.65v0.57l-0.03,1.2a6.007,6.007,0,0,1-.06.96,1.345,1.345,0,0,0-.03.33,0.657,0.657,0,0,0,.72.51,1.637,1.637,0,0,0,1.86-1.92c0-.54-0.03-1.02-0.09-2.76a55.582,55.582,0,0,1,8.34-3.39c2.04-.72,2.85-1.47,2.85-2.61,0-1.92-1.74-3.3-4.14-3.3-3.33,0-5.88,2.25-7.77,6.84a3.419,3.419,0,0,0-.93-2.34,3.276,3.276,0,0,0-2.16-.78,4.293,4.293,0,0,0-1.59.36c1.23-2.07,1.71-2.97,3.09-5.7,2.97-.87,3.69-1.29,3.69-2.1,0-.39,0-0.39-1.26-0.81Zm0.18,12.78V3421a7.367,7.367,0,0,1,1.2-2.91c1.5-2.52,3.3-3.9,5.1-3.9a1.655,1.655,0,0,1,1.53,1.59c0,0.84,0,.84-7.86,5.37Zm28.2-12.33a5,5,0,0,0,4.11,4.62,0.234,0.234,0,0,1,.24.24,0.474,0.474,0,0,1-.24.36,11.485,11.485,0,0,0-1.83,1.98,0.142,0.142,0,0,0,.15.15,3.4,3.4,0,0,0,.66-0.3,19.925,19.925,0,0,1,7.38-1.86c1.11-.03,1.59-0.3,1.59-0.9a4.377,4.377,0,0,0-.45-1.53,1.784,1.784,0,0,0-1.5-1.08,6.193,6.193,0,0,0-1.35.27,10.455,10.455,0,0,1-2.7.39c-2.28,0-4.98-1.11-5.79-2.4a0.218,0.218,0,0,0-.15-0.15,0.137,0.137,0,0,0-.12.15v0.06Zm-0.93,11.28c-0.63,0-1.44,2.04-1.44,3.66,0,4.44,3.57,6.87,10.02,6.87a22.973,22.973,0,0,0,6.18-.75c1.11-.36,1.56-0.87,1.56-1.77a1.867,1.867,0,0,0-2.07-1.65,3.931,3.931,0,0,0-1.32.3,21.4,21.4,0,0,1-5.7.87,10.38,10.38,0,0,1-5.19-1.17,4.908,4.908,0,0,1-2.16-4.32,8.716,8.716,0,0,1,.21-1.8,0.227,0.227,0,0,0,.03-0.12A0.129,0.129,0,0,0,2194.15,3420.01Zm31.44-9.3,0.09,0.03c0.99,0.24,1.29.72,1.74,2.61a23.956,23.956,0,0,0,1.35,3.78,14.469,14.469,0,0,0-2.07,2.61,9,9,0,0,0-1.41,4.77c0,2.55,1.02,4.17,2.61,4.17a7.579,7.579,0,0,0,4.53-2.07,11.414,11.414,0,0,0,2.61-3.21,2.8,2.8,0,0,0,1.23.33,0.56,0.56,0,0,0,.63-0.51,3.239,3.239,0,0,0-.27-0.96,1.164,1.164,0,0,0-.75-0.36,42.1,42.1,0,0,0,3.09-7.65c1.92,0.42,2.82.9,3.63,1.98a7.291,7.291,0,0,1,1.35,4.56,9.348,9.348,0,0,1-4.59,8.16,20.711,20.711,0,0,1-6.09,2.55c-0.33.06-.39,0.09-0.39,0.21s0.12,0.18.33,0.18a25.005,25.005,0,0,0,7.62-1.89c4.02-1.8,6.39-4.98,6.39-8.67a7.588,7.588,0,0,0-3.51-6.78,8.239,8.239,0,0,0-4.44-1.17,14.1,14.1,0,0,0,.51-3.06c0-1.62-1.5-2.73-3.66-2.73a1.562,1.562,0,0,0-1.2.24,0.2,0.2,0,0,0,.21.18c1.17,0.24,1.86,1.56,1.86,3.57a10.177,10.177,0,0,1-.15,1.74,16.94,16.94,0,0,0-6.45,2.49,12.825,12.825,0,0,1-.66-3.51,1.81,1.81,0,0,0-.63-1.68,3.209,3.209,0,0,0-3.9,0,0.654,0.654,0,0,0,.15.12Zm7.83,11.88a12.416,12.416,0,0,1-2.37,2.82,3.816,3.816,0,0,1-1.95,1.02,1.587,1.587,0,0,1-.96-0.45,2.558,2.558,0,0,1-.57-1.98,7.8,7.8,0,0,1,2.04-5.31A10.579,10.579,0,0,0,2233.42,3422.59Zm3.21-8.28a25.534,25.534,0,0,1-2.34,6.87,8.127,8.127,0,0,1-3.3-3.93A12.128,12.128,0,0,1,2236.63,3414.31Zm42.39-6.03c-0.66.36-.78,0.39-4.59,1.5-3.81.99-6.69,1.77-10.26,2.85a10.414,10.414,0,0,1-3.09.72,2.539,2.539,0,0,1-2.22-1.2c-0.15-.3-0.15-0.33-0.27-0.33-0.09,0-.15.09-0.15,0.24a4.768,4.768,0,0,0,.36,1.98,4.3,4.3,0,0,0,3.03,2.25,1.207,1.207,0,0,0,.75-0.3,24.93,24.93,0,0,1,4.47-2.46,22.861,22.861,0,0,1,5.28-1.74,0.139,0.139,0,0,1,.15.09,1.3,1.3,0,0,1-.3.36,16.424,16.424,0,0,0-3.33,5.25,18.889,18.889,0,0,0-1.23,6.24c0,3.42,1.35,5.64,4.11,6.69a16.02,16.02,0,0,0,5.46,1.02c1.62,0,2.46-.51,2.46-1.47a2.307,2.307,0,0,0-1.86-2.1,4.413,4.413,0,0,0-.6.06,17.258,17.258,0,0,1-1.92.15c-3.39,0-5.04-1.74-5.04-5.37a18.6,18.6,0,0,1,1.2-6.72,6.882,6.882,0,0,1,3.36-3.87,8.55,8.55,0,0,1,3.99-.66,8.148,8.148,0,0,1,1.29.09,8.92,8.92,0,0,0,1.53.21,0.94,0.94,0,0,0,.99-0.87,2.488,2.488,0,0,0-1.35-1.74A3.824,3.824,0,0,0,2279.02,3408.28Z" transform="translate(-1842.62 -3354.69)"/>
</svg>
