<svg xmlns="http://www.w3.org/2000/svg" width="199.86" height="45.12" viewBox="0 0 99.93 22.56">
  <defs>
    <style>
      .cls-1 {
        fill: #fff;
        fill-rule: evenodd;
      }
    </style>
  </defs>
  <path id="_8_200円" data-name="8,200円" class="cls-1" d="M1698.75,5424.89a7.165,7.165,0,0,0,1.8-.87,3.954,3.954,0,0,0,1.76-3.24c0-2.42-2.33-4.32-5.28-4.32s-5.12,1.97-5.12,4.68a4.242,4.242,0,0,0,1.23,2.98,13.518,13.518,0,0,0,1.87,1.56,9.27,9.27,0,0,0-2.04,1.06,3.76,3.76,0,0,0-1.8,3.21c0,2.74,2.42,4.68,5.81,4.68,3.41,0,5.88-1.97,5.88-4.68a4.127,4.127,0,0,0-1.13-2.81A12.026,12.026,0,0,0,1698.75,5424.89Zm-0.86-.51-0.12-.07a12.6,12.6,0,0,1-1.42-.89c-2.04-1.44-2.54-2.08-2.54-3.24a3.07,3.07,0,0,1,3.36-2.88,3.245,3.245,0,0,1,3.41,3.56,3.74,3.74,0,0,1-.6,2.13,3.846,3.846,0,0,1-1.87,1.51Zm-2.23,1.71c0.17,0.07.29,0.14,0.36,0.17a25.177,25.177,0,0,1,2.61,1.58c1.35,0.91,2.09,1.94,2.09,2.88a3.227,3.227,0,0,1-1.22,2.3,4.15,4.15,0,0,1-6.6-3.26C1692.9,5428.03,1693.64,5427.07,1695.66,5426.09Zm13.58,11.54c2.19-1.34,3.19-2.81,3.19-4.58a1.955,1.955,0,0,0-2.01-2.21,1.818,1.818,0,0,0-1.97,1.82c0,0.87.55,1.37,1.8,1.66,0.38,0.1.53,0.19,0.53,0.46,0,0.62-.7,1.41-1.97,2.25Zm8.76-3.24h11.43l0.6-5.78-0.63.02c-0.57,2.98-1.01,3.46-3.05,3.46h-6.43a30.263,30.263,0,0,1,5.98-5.28c3.05-2.19,3.98-3.51,3.98-5.64,0-2.88-2.37-4.92-5.69-4.92-3.21,0-5.9,2.21-5.9,4.85a2.139,2.139,0,0,0,2.04,2.25,1.614,1.614,0,0,0,1.68-1.58,1.41,1.41,0,0,0-1.44-1.44,1.541,1.541,0,0,0-1.42,1.03,1.689,1.689,0,0,1-.04-0.41c0-1.8,2.13-3.65,4.27-3.65a3.835,3.835,0,0,1,3.67,4.06,6.435,6.435,0,0,1-1.1,3.53,13.841,13.841,0,0,1-2.5,2.64,52.619,52.619,0,0,0-5.45,5.4v1.46Zm23.38-17.42c1.05,0,1.8.67,2.33,2.06a17.609,17.609,0,0,1,.86,6.05c0,5.98-1.08,9-3.24,9-1.03,0-1.8-.65-2.35-1.97a20.209,20.209,0,0,1-.94-6.6,22.449,22.449,0,0,1,.84-6.26C1739.43,5417.64,1740.18,5416.97,1741.38,5416.97Zm-0.03-.67a5.161,5.161,0,0,0-4.63,2.92,12.6,12.6,0,0,0-1.41,6.29c0,5.5,2.4,9.22,5.97,9.22a5.022,5.022,0,0,0,4.71-3.05,13.758,13.758,0,0,0,1.36-6.34,12.313,12.313,0,0,0-1.48-6.24A4.977,4.977,0,0,0,1741.35,5416.3Zm17.36,0.67c1.05,0,1.8.67,2.32,2.06a17.343,17.343,0,0,1,.87,6.05c0,5.98-1.08,9-3.24,9-1.03,0-1.8-.65-2.35-1.97a19.941,19.941,0,0,1-.94-6.6,22.449,22.449,0,0,1,.84-6.26C1756.76,5417.64,1757.51,5416.97,1758.71,5416.97Zm-0.03-.67a5.15,5.15,0,0,0-4.63,2.92,12.487,12.487,0,0,0-1.42,6.29c0,5.5,2.4,9.22,5.98,9.22a5,5,0,0,0,4.7-3.05,13.633,13.633,0,0,0,1.37-6.34,12.213,12.213,0,0,0-1.49-6.24A4.952,4.952,0,0,0,1758.68,5416.3Zm15.63,9.57h13.61v7.08c0,0.46-.39.55-2.19,0.55-0.31,0-1.06-.02-1.46-0.04a1.534,1.534,0,0,0-.32-0.03c-0.16,0-.24.05-0.24,0.17s0.15,0.17,1.11.48c0.38,0.12.72,0.24,1.01,0.34a9.476,9.476,0,0,0,.93.28c0.36,0.12.39,0.12,0.39,0.77,0,0.6.05,0.72,0.36,0.72a4.45,4.45,0,0,0,1.49-.45,1.712,1.712,0,0,0,1.24-1.76v-15.45l0.46-.17a0.589,0.589,0,0,0,.38-0.46,1.021,1.021,0,0,0-.31-0.6l-2.11-2.25-0.94,1.49h-13.03l-2.69-1.28v20.79a0.321,0.321,0,0,0,.39.33,5.415,5.415,0,0,0,1.41-.26,0.64,0.64,0,0,0,.51-0.53v-9.72Zm0-8.69h5.56v8.04h-5.56v-8.04Zm7.84,8.04v-8.04h5.77v8.04h-5.77Z" transform="translate(-1691.16 -5415.06)"/>
</svg>
