<svg xmlns="http://www.w3.org/2000/svg" width="818.06" height="71.14" viewBox="0 0 409.03 35.57">
  <defs>
    <style>
      .cls-1 {
        fill: #fff;
        fill-rule: evenodd;
      }
    </style>
  </defs>
  <path id="_登谷_だけの愉しみ" data-name="「登谷」だけの愉しみ" class="cls-1" d="M1546.93,3002.8v-24.43h9.65v-2.28h-11.93v26.71h2.28Zm20.34,6.69c3.15-.16,4.52-0.19,6.57-0.19h26.75a0.613,0.613,0,0,0,.68-0.57,1.094,1.094,0,0,0-.45-0.76l-3.31-2.7-2.51,3h-8.43a42.867,42.867,0,0,0,3.15-3.95l0.69-.15a1.18,1.18,0,0,0,.98-0.73,0.947,0.947,0,0,0-.15-0.45c1.52,0.07,2.85-.38,2.77-0.95v-5.78l0.76-.19a0.794,0.794,0,0,0,.76-0.72,1.187,1.187,0,0,0-.49-0.8l-3.3-3.04-1.49,2.09h-13.37l-3.57-2.09a36.667,36.667,0,0,0,8.7-10.06l0.76-.12a0.937,0.937,0,0,0,.99-0.76,1.541,1.541,0,0,0-.61-0.95l-3.12-2.85-1.52,2.21h-4.67s-1.22-.04-2.32-0.08l-2.77-.08,0.76,1.3c2.24-.08,3.19-0.12,4.33-0.12h4.94a48.368,48.368,0,0,1-3.76,6.27,4.491,4.491,0,0,0-3.42-4.22,11.216,11.216,0,0,0-2.43-.68,0.26,0.26,0,0,0-.31.27,0.668,0.668,0,0,0,.34.41,6.6,6.6,0,0,1,2.36,3.92c0.34,1.33.8,1.9,1.6,1.9a3.688,3.688,0,0,0,.79-0.12,29.593,29.593,0,0,1-6.91,6.31c-0.91.61-.91,0.61-0.91,0.8a0.2,0.2,0,0,0,.22.23c0.95,0,4.3-1.68,6.62-3.31v11.36c0,0.27.15,0.38,0.57,0.38,1.06,0,2.47-.53,2.47-0.91v-0.72a5.058,5.058,0,0,1,1.44,3.68,2.551,2.551,0,0,1-.04.57l-0.04.88a1.367,1.367,0,0,0,.73,1.25h-4.26c-2.17,0-3.72-.04-7.45-0.23Zm19.53-23.03-2.09,2.55h-2.21c-1.02,0-1.94-.04-5.09-0.16l0.61,1.3c2.58-.08,3.46-0.12,4.48-0.12h6.88a0.575,0.575,0,0,0,.65-0.61,1.088,1.088,0,0,0-.46-0.72Zm-10.79,14.4h14.97v1.94l-3.73-1.75c-0.38,1.94-1.4,5.66-1.94,7.26h-4.63a3.315,3.315,0,0,0,.61-1.79c0-1.75-1.37-3.46-3.65-4.6a6.786,6.786,0,0,0-1.44-.57,0.469,0.469,0,0,0-.19.04v-0.53Zm0-1.02v-5.21h14.97v5.21h-14.97Zm21.12-16.38,0.91-.11c0.53-.08.8-0.27,0.8-0.54a1.419,1.419,0,0,0-.72-0.91l-2.51-2.01a27.773,27.773,0,0,1-4.75,5.32,15.745,15.745,0,0,1-2.92-2.89c1.93-.87,3.04-1.37,5.35-2.43h0.57a0.65,0.65,0,0,0,.69-0.57,1.036,1.036,0,0,0-.42-0.69l-2.7-2.09a39.165,39.165,0,0,1-4.1,4.94,19.238,19.238,0,0,1-2.78-4.67,0.651,0.651,0,0,0-.57-0.53,0.354,0.354,0,0,0-.38.34,18.777,18.777,0,0,0,.88,2.7,25.15,25.15,0,0,0,2.54,5.05,26.634,26.634,0,0,0,11.21,9.5,7.5,7.5,0,0,1,3.76-3.31c-4.9-1.44-7.44-2.58-10.22-4.59a8.686,8.686,0,0,1,.8-0.38c0.61-.31,1.18-0.57,1.79-0.84l1.86-.87Zm21.06,26.44a0.745,0.745,0,0,0,.83.8,6.12,6.12,0,0,0,1.86-.34,0.717,0.717,0,0,0,.61-0.87v-2.09h12.73v1.9c0,0.57.11,0.68,0.61,0.68a7.5,7.5,0,0,0,2.05-.38,0.769,0.769,0,0,0,.64-0.8v-9.69l0.61-.3a1.028,1.028,0,0,0,.69-0.91,1.445,1.445,0,0,0-.46-0.88l-3.08-3.23-1.63,2.21h-11.82l-1.63-1.14a36.487,36.487,0,0,0,8.47-10.34c3.38,6.42,7.11,10.11,14.17,13.87a6.661,6.661,0,0,1,3.65-3.42c-7.48-1.9-13.64-5.74-17.06-10.6l0.46-.19a0.751,0.751,0,0,0,.61-0.68,1.2,1.2,0,0,0-.76-0.88l-3.39-1.52c-3.68,8.82-7.9,13.91-15.12,18.28a0.753,0.753,0,0,0-.49.46,0.192,0.192,0,0,0,.23.19c0.64,0,4.78-2.06,7.22-3.61v13.48Zm3.3-12.88h12.73v9.35h-12.73v-9.35Zm1.44-16.79a0.841,0.841,0,0,0,.65-0.68,1.276,1.276,0,0,0-.72-0.92l-3.19-2.09a34.843,34.843,0,0,1-8.51,12.12,1.588,1.588,0,0,0-.65.8,0.257,0.257,0,0,0,.23.27,15.068,15.068,0,0,0,4.1-2.28,45.072,45.072,0,0,0,7.26-6.95Zm8.59-2.93c-0.23,0-.38.08-0.38,0.23a0.921,0.921,0,0,0,.65.53,22.674,22.674,0,0,1,7.67,7.34c0.99,1.59,1.6,2.09,2.4,2.09a1.773,1.773,0,0,0,1.67-2.02c0-2.12-1.94-4.21-5.66-6.11A21.563,21.563,0,0,0,1631.52,2977.3Zm33.56,6.27V3008h-9.65v2.28h11.93v-26.71h-2.28Zm62.01-6.8c-1.1,0-1.79.15-1.79,0.34a0.422,0.422,0,0,0,.42.35,5.578,5.578,0,0,1,3.08,2.47c0.8,1.33.84,1.33,1.6,1.33a1.45,1.45,0,0,0,1.48-1.52C1731.88,2978.25,1729.48,2976.77,1727.09,2976.77Zm-4.44,2.59c-0.99,0-1.33.07-1.33,0.34,0,0.15.07,0.23,0.41,0.34a6.8,6.8,0,0,1,3.27,3.23,1.1,1.1,0,0,0,1.14.87,1.47,1.47,0,0,0,1.48-1.55C1727.62,2980.91,1725.23,2979.36,1722.65,2979.36Zm1.36,24.84c-4.33,0-6.57-1.48-6.57-4.4a12.7,12.7,0,0,1,.3-2.47,0.4,0.4,0,0,0,.04-0.19,0.207,0.207,0,0,0-.19-0.23c-0.61,0-1.56,2.55-1.56,4.18a6.162,6.162,0,0,0,4.15,6.04,19.135,19.135,0,0,0,6.68.99c3.23,0,4.3-.53,4.3-2.17,0-1.37-.99-2.24-2.59-2.24Zm-10.26-22.91,0.08-.38,0.08-.45c0.03-.04.07-0.19,0.15-0.34a1.923,1.923,0,0,0,.23-0.73c0-1.02-2.28-2.47-3.92-2.47-0.87,0-2.31.69-2.31,1.11a0.216,0.216,0,0,0,.22.15,0.24,0.24,0,0,0,.16-0.04h0.07a2.886,2.886,0,0,1,.95.34c0.76,0.46,1.1,1.26,1.1,2.62a25.53,25.53,0,0,1-.64,5.4,19.217,19.217,0,0,1-5.28.72c-1.56,0-2.97-.57-3.35-1.37-0.23-.41-0.23-0.45-0.38-0.45a0.246,0.246,0,0,0-.19.3,5.98,5.98,0,0,0,1.14,3.15,3.537,3.537,0,0,0,2.93,1.41,18.376,18.376,0,0,0,4.52-.61,53.39,53.39,0,0,1-6.57,15.88,2.691,2.691,0,0,0-.69,1.52,2.65,2.65,0,0,0,2.51,2.25,2.482,2.482,0,0,0,1.71-.76c0.53-.57.87-1.33,1.48-3.31,1.6-4.94,3.08-10.26,4.56-16.38a28.78,28.78,0,0,0,5.13-2.58,2.377,2.377,0,0,0,1.29-2.05,0.806,0.806,0,0,0-.87-0.91,7,7,0,0,1-4.14-1.9Zm-0.3.99a5.659,5.659,0,0,1,1.98,1.98c0,0.3-1.26.99-2.74,1.48l0.46-2.17Zm9.2,7.11c1.29,0,2.58.45,2.58,0.91,0,0.19,0,.19-1.29,1.02-1.03.73-1.56,1.07-1.6,1.11a0.4,0.4,0,0,0-.3.34,0.249,0.249,0,0,0,.23.19,1.53,1.53,0,0,0,.45-0.15,9.632,9.632,0,0,1,3.72-.69,11.023,11.023,0,0,1,2.36.27c0.49,0.11.61,0.15,0.68,0.15a1.044,1.044,0,0,0,1.07-1.25c0-2.28-2.4-3.99-5.66-3.99a8.877,8.877,0,0,0-4.6,1.14,3.571,3.571,0,0,0-1.41,1.55,0.213,0.213,0,0,0,.19.16,0.147,0.147,0,0,0,.12-0.04A7.461,7.461,0,0,1,1722.65,2989.39Zm24.81-10.6a0.246,0.246,0,0,0-.26.22,0.321,0.321,0,0,0,.19.27c0.95,0.72,1.4,1.94,1.4,3.8a22.608,22.608,0,0,1-.34,3.38c-1.18,6.46-1.25,6.95-1.25,9.69,0,5.13,2.47,10.03,5.05,10.03a1.48,1.48,0,0,0,1.52-1.41,1.243,1.243,0,0,0-.11-0.49,5.439,5.439,0,0,1-.61-2.89,37.237,37.237,0,0,1,1.4-7.48,5.244,5.244,0,0,0,.23-1.14,0.254,0.254,0,0,0-.26-0.31c-0.19,0-.35.19-0.57,0.84-0.12.27-.35,0.91-0.73,1.82-0.49,1.22-1.21,3.04-1.63,4.26a0.852,0.852,0,0,1-.65.76c-0.6,0-1.14-1.79-1.14-3.88a25.51,25.51,0,0,1,1.98-8.7c0.84-2.05.99-2.66,0.99-3.42,0-1.63-1.07-3.19-2.97-4.4A5.976,5.976,0,0,0,1747.46,2978.79Zm21.89,7.52c0.03-.87.03-1.98,0.07-3.42a5.3,5.3,0,0,1,.27-1.75,1.169,1.169,0,0,0,.19-0.49c0-1.22-2.36-2.93-4.03-2.93-0.99,0-2.58.61-2.58,0.95a0.219,0.219,0,0,0,.26.19c2.13,0.19,2.7,1.9,2.78,8.4a12.414,12.414,0,0,1-3.99.76,5.822,5.822,0,0,1-3.69-1.1c-0.34-.38-0.34-0.38-0.45-0.38a0.24,0.24,0,0,0-.23.23,5.484,5.484,0,0,0,1.14,1.86,5.4,5.4,0,0,0,4.1,1.82,15.1,15.1,0,0,0,3.35-.38c0,7.64-.27,9.69-1.6,12.61a13.53,13.53,0,0,1-6.61,6.2c-0.76.34-.76,0.34-0.76,0.49a0.373,0.373,0,0,0,.34.31,19.171,19.171,0,0,0,4.75-1.6c5.32-2.58,7.26-6.16,7.26-13.26,0-1.33-.04-2.24-0.16-5.4,4.53-1.59,6.2-2.62,6.2-3.72a1.636,1.636,0,0,0-1.1-1.37,3.471,3.471,0,0,0-1.52-.57,1.447,1.447,0,0,0-1.26.76C1771.55,2985.17,1771.09,2985.47,1769.35,2986.31Zm35.79-3.91a8,8,0,0,1,.8-0.04,9.169,9.169,0,0,1,3.92.91c3.3,1.67,5.01,5.13,5.01,10.22,0,4.67-1.56,8.13-4.86,10.83a20.355,20.355,0,0,1-6.8,3.53c-0.61.19-.73,0.23-0.73,0.42,0,0.15.16,0.23,0.38,0.23a17.019,17.019,0,0,0,2.44-.46,23.5,23.5,0,0,0,7.03-2.58,14.018,14.018,0,0,0,7.02-12.16,11.459,11.459,0,0,0-3-8.02,14.657,14.657,0,0,0-10.67-4.18c-8.89,0-16.53,7.18-16.53,15.54a9.854,9.854,0,0,0,1.86,6.12,4.6,4.6,0,0,0,3.19,2.09c2.09,0,5.4-2.7,7.64-6.19a24.44,24.44,0,0,0,3.8-12.35A14.47,14.47,0,0,0,1805.14,2982.4Zm-1.86.15a2.076,2.076,0,0,0,.08.26,9.333,9.333,0,0,1,.23,2.13c0,3.38-1.45,7.6-3.88,11.36-1.59,2.51-3.76,4.49-4.94,4.49s-2.2-1.98-2.2-4.22a14.886,14.886,0,0,1,4.48-10.6A14.324,14.324,0,0,1,1803.28,2982.55Zm29.99,1.25a5.941,5.941,0,0,1,.03.65,9.318,9.318,0,0,1-1.4,4.67c-1.26,1.98-1.26,2.01-1.26,2.77a1.722,1.722,0,0,0,1.68,1.87c1.74,0,2.85-1.9,2.85-4.98,0-2.28-.99-5.66-1.64-5.66-0.19,0-.26.15-0.26,0.45v0.23Zm6.04-5.01,1.06-.57a1.122,1.122,0,0,0,.57-0.88c0-.45-0.49-0.76-1.4-0.8l-3.35-.15v33.97a0.643,0.643,0,0,0,.76.8,4.953,4.953,0,0,0,1.9-.42,0.713,0.713,0,0,0,.46-0.8v-26.4a5.221,5.221,0,0,1,1.48,2.47c0.46,1.4.72,1.67,1.56,1.67a1.8,1.8,0,0,0,1.78-1.83,3.088,3.088,0,0,0-1.9-2.69,9.265,9.265,0,0,0-2.92-.8v-3.57Zm3.87,31.61a0.507,0.507,0,0,0,.53.61,7.6,7.6,0,0,0,1.9-.38,0.771,0.771,0,0,0,.57-0.76v-8.02h3.99v4.44c0,0.57-.11.65-0.98,0.65l-0.95-.04h-0.35a6.864,6.864,0,0,1-.76.04c-0.49,0-.6.04-0.6,0.15a0.454,0.454,0,0,0,.34.31c0.42,0.19.64,0.3,0.76,0.34a6.471,6.471,0,0,1,.83.42l0.57,0.22,0.08,0.04a0.455,0.455,0,0,1,.23.34c0.23,1.64.34,1.9,0.99,1.9a4.29,4.29,0,0,0,1.74-.64,1.766,1.766,0,0,0,1.14-1.86v-14.1l0.57-.34a0.905,0.905,0,0,0,.38-0.69,1.394,1.394,0,0,0-.72-1.1l-2.58-2.35-1.07,1.93h-3.19l-2.96-1.44a27.726,27.726,0,0,0,2.7-2.28l0.41,0.53c2.36-.07,3.35-0.11,4.45-0.11h7.64a0.5,0.5,0,0,0,.45-0.5,1.253,1.253,0,0,0-.64-0.87l-2.43-1.97-2.13,2.31h-2.89c-0.91,0-1.86-.03-4.07-0.15a48.2,48.2,0,0,0,6.54-8.59c1.63,4.34,5.17,8.48,9.84,11.59a7.883,7.883,0,0,1,3.53-3.15c-5.43-1.9-10.14-5.24-12.34-8.78l0.3-.15a0.814,0.814,0,0,0,.49-0.65c0-.38-0.26-0.57-1.02-0.76l-3.57-.95c-2.74,6.96-5.48,11.1-10.26,15.62a1.071,1.071,0,0,0-.38.57,0.254,0.254,0,0,0,.26.23,9.011,9.011,0,0,0,2.66-1.64v20.03Zm3-9.58v-3.72h3.99v3.72h-3.99Zm0-4.75v-3.53h3.99v3.53h-3.99Zm11.82-2.2,0.76-.49a1.053,1.053,0,0,0,.49-0.8c0-.42-0.3-0.61-1.17-0.69l-2.93-.26v13.49a0.492,0.492,0,0,0,.61.53c1.14,0,2.24-.5,2.24-1.03v-10.75Zm5.4-1.56,0.53-.3a0.816,0.816,0,0,0,.53-0.69c0-.41-0.23-0.53-1.22-0.68l-2.77-.3v15.46c-0.04,1.03-.11,1.03-3.5,1.03h-1.4a0.449,0.449,0,0,0-.23.03c-0.07,0-.07.04-0.07,0.08l-0.04.08,0.04,0.03,0.07,0.08a2,2,0,0,0,.19.08,2.729,2.729,0,0,1,.5.19l0.75,0.26,1.03,0.42c0.27,0.11.53,0.23,0.84,0.34l0.22,0.12a0.44,0.44,0,0,1,.12.34,1.932,1.932,0,0,0,.19,1.37,1.055,1.055,0,0,0,.91.53,4.189,4.189,0,0,0,2.28-1.07,2.454,2.454,0,0,0,1.03-2.47v-14.93Zm20.94-14.97c-0.8,0-1.83.34-1.83,0.65a0.18,0.18,0,0,0,.19.15c1.41,0.15,2.09,1.56,2.09,4.26,0,0.49-.07,2.24-0.22,4.71-0.54,9.57-.54,9.84-0.54,11.21,0,7.02,3.12,10.75,9.05,10.75,4.1,0,7.9-2.17,10.98-6.23a14.857,14.857,0,0,0,2.2-3.95,0.23,0.23,0,0,0-.19-0.27,0.266,0.266,0,0,0-.23.19,17.838,17.838,0,0,1-3.49,3.46,15.293,15.293,0,0,1-9.27,3.34c-3.99,0-6.16-2.51-6.16-7.07a88.639,88.639,0,0,1,1.75-13.37c0.68-2.09.76-2.36,0.76-3C1889.43,2979.77,1886.85,2977.34,1884.34,2977.34Zm62.05,20.98c1.48,1.14,2.24,1.74,2.85,2.31,1.82,1.71,1.9,1.75,2.7,1.75a1.772,1.772,0,0,0,1.74-1.94c0-1.02-.53-1.82-1.97-2.85a22.743,22.743,0,0,0-3.84-2.31,15.878,15.878,0,0,0,.99-4.87,2.086,2.086,0,0,0-1.22-1.97,6.509,6.509,0,0,0-2.88-1.26,2.355,2.355,0,0,0-1.64.65,0.217,0.217,0,0,0,.15.19c1.11,0.15,1.52.8,1.52,2.47a10.187,10.187,0,0,1-.6,3.3,33.559,33.559,0,0,0-10.19-1.63c2.36-4.22,4.41-6.91,6.5-8.47,0.91-.65,1.22-0.99,1.22-1.45,0-.76-3.5-3.07-4.68-3.07a2.936,2.936,0,0,0-1.37.41,32.316,32.316,0,0,1-6.8,2.17,1.356,1.356,0,0,1-1.33-1.33c0-.27-0.07-0.42-0.19-0.42-0.34,0-1.02,1.37-1.02,2.02,0,1.4,1.59,3.23,2.77,3.23a2.5,2.5,0,0,0,1.52-.76,23.98,23.98,0,0,1,3-2.32,4.863,4.863,0,0,1,1.79-.72,0.7,0.7,0,0,1,.64.72c0,0.8-.49,1.86-2.2,4.82-1.14,1.98-2.39,4.22-3.15,5.47a17.184,17.184,0,0,0-5.28,1.75c-2.82,1.6-4.49,3.95-4.49,6.39a4.452,4.452,0,0,0,4.33,4.52,3.455,3.455,0,0,0,2.32-.88,5.255,5.255,0,0,0,1.52-2.54,51.632,51.632,0,0,1,3.91-8.1,22.69,22.69,0,0,1,10.42,2.89c-2.09,5.74-6.62,10.45-11.59,12.05-0.42.15-.53,0.22-0.53,0.38a0.291,0.291,0,0,0,.3.22,11.3,11.3,0,0,0,2.28-.49,22.607,22.607,0,0,0,5.28-2.13C1942.36,3004.74,1944,3002.91,1946.39,2998.32Zm-16.79-3.35c-2.17,4.14-2.21,4.18-2.66,4.9-0.73,1.11-1.3,1.56-1.94,1.56a1.324,1.324,0,0,1-1.22-1.52c0-3.04,2.62-5.51,6.39-6.08Z" transform="translate(-1544.66 -2975.59)"/>
</svg>
