<svg xmlns="http://www.w3.org/2000/svg" width="558.62" height="67.38" viewBox="0 0 279.31 33.69">
  <defs>
    <style>
      .cls-1 {
        fill: #a38737;
        fill-rule: evenodd;
      }
    </style>
  </defs>
  <path id="里山懐石コース" class="cls-1" d="M1603.18,7244.6c4.61-.18,4.75-0.18,6.34-0.18h25.01a0.56,0.56,0,0,0,.62-0.54,0.921,0.921,0,0,0-.36-0.65l-3.06-2.7-2.67,2.92h-8.85v-5.94h11.95a0.434,0.434,0,0,0,.36-0.43,0.566,0.566,0,0,0-.29-0.47l-3.06-2.7-2.38,2.63h-6.58v-6.09h6.87v1.59a0.757,0.757,0,0,0,.87.83,6.374,6.374,0,0,0,1.65-.29,1.062,1.062,0,0,0,.97-0.97v-12.75l0.62-.25a0.732,0.732,0,0,0,.54-0.75,0.894,0.894,0,0,0-.29-0.65l-3.42-3.35-1.44,2.23h-16.42l-3.92-1.98v19.01a0.714,0.714,0,0,0,.83.86c1.69,0,2.63-.39,2.63-1.08v-2.45h7.02v6.09h-5.51c-0.65,0-1.66-.04-2.88-0.07l-3.35-.11,0.79,1.29c3.03-.1,4.18-0.14,5.44-0.14h5.51v5.94h-7.2c-0.36,0-1.88-.04-3.42-0.07-1.23-.04-2.45-0.08-3.67-0.15Zm6.52-15.12v-5.65h7.02v5.65h-7.02Zm0-6.62v-5.8h7.02v5.8h-7.02Zm10.51,6.62v-5.65h6.87v5.65h-6.87Zm0-12.42h6.87v5.8h-6.87v-5.8Zm29.52,24.59h20.8v1.94c0,0.79.15,0.94,0.76,0.94a5.108,5.108,0,0,0,1.76-.33,1.022,1.022,0,0,0,.87-1.15v-20.48l0.83-.65a0.944,0.944,0,0,0,.36-0.68,0.733,0.733,0,0,0-.76-0.72l-3.82-.32v20.48h-8.78v-24.55l0.94-.79a0.883,0.883,0,0,0,.36-0.62,0.7,0.7,0,0,0-.76-0.64l-4.07-.26v26.86h-8.49v-17.93l0.83-.54a1.086,1.086,0,0,0,.57-0.83,0.77,0.77,0,0,0-.83-0.75l-3.95-.25v24.15a0.694,0.694,0,0,0,.75.83,6.4,6.4,0,0,0,1.95-.4,0.822,0.822,0,0,0,.68-0.83v-2.48Zm37.91-22.14a0.236,0.236,0,0,0-.25.22,5.5,5.5,0,0,0,.07.57,2.934,2.934,0,0,1,.03.58,6.484,6.484,0,0,1-.39,2.37,6.68,6.68,0,0,1-1.48,2.56,3.239,3.239,0,0,0-.79,1.94,1.522,1.522,0,0,0,1.55,1.66,2.353,2.353,0,0,0,2.19-1.62,10.686,10.686,0,0,0,.58-3.46,9.188,9.188,0,0,0-1.12-4.35C1687.82,7219.58,1687.78,7219.51,1687.64,7219.51Zm9,10.04a0.526,0.526,0,0,0,.64.62c1.77,0,2.34-.26,2.34-1.08v-1.26h13.39v1.22c0,0.32.22,0.47,0.65,0.47a6.1,6.1,0,0,0,1.87-.33,0.779,0.779,0,0,0,.58-0.86v-4.39l0.58-.36a0.683,0.683,0,0,0,.5-0.61,1.221,1.221,0,0,0-.4-0.79l-2.98-2.81-1.23,2.05h-4.57v-3.06h9.97c0.61,0,.83-0.11.83-0.4a1.09,1.09,0,0,0-.5-0.68l-2.96-2.52-2.37,2.63h-4.97v-2.56l0.9-.57a0.682,0.682,0,0,0,.36-0.62,0.705,0.705,0,0,0-.79-0.75l-3.67-.36v4.86h-3.57c-1.62,0-3.02-.04-6.22-0.18l0.75,1.29c3.17-.1,3.31-0.1,5.47-0.14h3.57v3.06h-4.68l-3.49-1.37v3.31c-0.47-1.22-1.62-2.08-3.64-2.66v-5.62l0.9-.72a1.274,1.274,0,0,0,.47-0.9,0.693,0.693,0,0,0-.76-0.72l-3.85-.28v33c0,0.36.22,0.47,0.79,0.47,1.59,0,2.45-.43,2.45-1.19v-22.85a4.734,4.734,0,0,1,.68,1.54c0.58,2.56.69,2.78,1.44,2.78a2.555,2.555,0,0,0,1.52-.58v3.92Zm8.17-1.08v3.35h-4.65c-0.68,0-1.72-.03-2.98-0.07l-3.28-.11,0.72,1.3c2.88-.11,4.1-0.15,5.54-0.15h2.52a29.494,29.494,0,0,1-6.94,6.81c-1.84,1.18-1.84,1.18-1.84,1.33a0.268,0.268,0,0,0,.29.29,10.132,10.132,0,0,0,2.63-.98,34.313,34.313,0,0,0,4.42-2.51v3.85c-2.19.28-2.52,0.32-4.39,0.46l2.13,3.46a0.984,0.984,0,0,0,.93.65,1,1,0,0,0,.9-0.69l0.33-.68c2.88-1.04,4.06-1.48,4.71-1.73,1.01-.39,1.37-0.57,5.18-2.16a25.531,25.531,0,0,0,5.08,4.36,8.367,8.367,0,0,1,3.17-3.28,25.5,25.5,0,0,1-7.6-4.32,26.951,26.951,0,0,0,4.36-1.72h0.75a0.529,0.529,0,0,0,.65-0.54,0.594,0.594,0,0,0-.21-0.47l-2.52-2.05a30.69,30.69,0,0,1-3.89,4.03,12.191,12.191,0,0,1-3.03-4.11h10.7c0.39,0,.61-0.14.61-0.46a0.774,0.774,0,0,0-.4-0.62l-2.95-2.48-2.38,2.59h-5.32v-1.08l0.72-.36a1.044,1.044,0,0,0,.72-0.86,0.822,0.822,0,0,0-.9-0.79Zm-5.22-1.62v-4.46h2.63v4.46h-2.63Zm4.86,8.32a15.865,15.865,0,0,0,2.23-1.98,20.021,20.021,0,0,0,3.71,6.98c-2.92.58-3.35,0.65-5.94,1.01v-6.01Zm0.72-12.78h2.52v4.46h-2.52v-4.46Zm5.32,4.46v-4.46h2.52v4.46h-2.52Zm29.24,15.34h12.09v1.98c0,0.36.18,0.5,0.61,0.5,1.19,0,2.74-.57,2.74-1.01v-12.02l0.97-.43a0.9,0.9,0,0,0,.47-0.72,0.962,0.962,0,0,0-.36-0.68l-3.46-3.24-1.4,2.16H1739.8l-0.76-.65a44.629,44.629,0,0,0,4.72-10.58h16.27a0.462,0.462,0,0,0,.43-0.51,0.575,0.575,0,0,0-.25-0.47l-3.6-2.88-2.59,2.88h-18.79c-0.51,0-1.69-.03-2.99-0.07l-4.1-.11,0.86,1.34,3.49-.11c1.15-.07,2.13-0.07,2.74-0.07h4.57c-1.98,8.67-5.87,15.11-12.27,20.41a0.915,0.915,0,0,0-.4.46,0.246,0.246,0,0,0,.22.26,16.031,16.031,0,0,0,3.34-2.02,36.953,36.953,0,0,0,5.76-5.15v13.46c0,0.33.18,0.47,0.61,0.47,1.26,0,2.67-.5,2.67-0.93v-2.27Zm0-.97V7229.7h12.09v11.52h-12.09Zm53.82-6.41c1.94-8.06,2.37-9.32,3.74-10.4a0.752,0.752,0,0,0,.4-0.62c0-.36-0.47-0.86-1.73-1.72-1.91-1.33-1.95-1.37-2.38-1.37a2.38,2.38,0,0,0-1.26.5,13.387,13.387,0,0,1-4.93,1.41,70.213,70.213,0,0,1-8.82.97c-2.23,0-3.63-.43-4.03-1.26-0.11-.22-0.18-0.25-0.25-0.25-0.25,0-.4.57-0.4,1.36a3.744,3.744,0,0,0,1.73,2.52,3.648,3.648,0,0,0,1.62.76c0.07,0,.18-0.04.36-0.07a47.381,47.381,0,0,1,7.06-1.66c1.8-.32,3.6-0.65,3.88-0.72a14.8,14.8,0,0,1,2.77-.32,0.779,0.779,0,0,1,.87.9c0,1.04-.11,1.65-1.26,8.57l-0.25,1.62c-3.93.5-11.92,1.33-12.93,1.33a5.354,5.354,0,0,1-2.48-.51,0.379,0.379,0,0,1-.11-0.07,0.451,0.451,0,0,0-.29.43c0,1.08,2.27,3.28,3.39,3.28a1.726,1.726,0,0,0,.68-0.18,10.727,10.727,0,0,1,3.35-1.08,59.068,59.068,0,0,1,8.89-1.15,16.338,16.338,0,0,1,3.49.43,2.548,2.548,0,0,0,.61.11,0.969,0.969,0,0,0,1.01-.9c0-.76-0.68-1.33-2.23-1.95Zm44.38-7.88a28.031,28.031,0,0,1-5.72,1.22c-2.48.29-11.45,0.83-14.18,0.83-2.88,0-4.07-.33-4.61-1.23a0.54,0.54,0,0,0-.36-0.36c-0.36,0-.54.36-0.54,1.01a3.358,3.358,0,0,0,1.3,2.92,6.5,6.5,0,0,0,3.09,1.19,1.467,1.467,0,0,0,.51-0.11c2.7-1.08,8.02-1.59,17.02-1.59,1.33,0,2.41.04,3.17,0.11,1.55,0.15,2.7.25,3.02,0.25,1.12,0,1.84-.46,1.84-1.18C1842.47,7228.58,1840.96,7227.54,1837.93,7226.93Zm30.03-6.52c-3.78.79-4.25,0.87-5.29,0.87a2.662,2.662,0,0,1-2.2-.8c-0.18-.32-0.18-0.32-0.32-0.32a1.388,1.388,0,0,0-.4,1.15,2.417,2.417,0,0,0,.87,1.69,4.565,4.565,0,0,0,2.01,1.15,3.208,3.208,0,0,0,1.08-.36,48.091,48.091,0,0,1,6.37-2.26,4.172,4.172,0,0,1,1.44-.33,0.493,0.493,0,0,1,.58.47,9.866,9.866,0,0,1-.86,2.48,36.028,36.028,0,0,1-4.29,7.56,32.021,32.021,0,0,1-11.59,9.83c-0.97.43-1.19,0.58-1.19,0.76a0.3,0.3,0,0,0,.33.25,8.4,8.4,0,0,0,1.76-.43,28.6,28.6,0,0,0,9.54-5.22,31.978,31.978,0,0,0,5.29-5.76,16.747,16.747,0,0,1,6.52,7.95c0.68,1.66,1.08,2.09,1.94,2.09a2.259,2.259,0,0,0,2.2-2.23c0-1.69-1.23-3.67-3.35-5.36a16.278,16.278,0,0,0-6.84-3.21,61.768,61.768,0,0,0,4.64-8.06c0.83-.5,1.15-0.79,1.15-1.12,0-.28-0.21-0.57-1-1.22-1.37-1.12-2.23-1.66-2.63-1.66a2.259,2.259,0,0,0-1.26.69,4.156,4.156,0,0,1-2.27.97Z" transform="translate(-1602.44 -7212.47)"/>
</svg>
