<svg xmlns="http://www.w3.org/2000/svg" width="247.94" height="70.8" viewBox="0 0 123.97 35.4">
  <defs>
    <style>
      .cls-1 {
        fill: #fff;
        fill-rule: evenodd;
      }
    </style>
  </defs>
  <path id="御献立" class="cls-1" d="M1681.42,4649.02a0.606,0.606,0,0,0,.64.76,6.965,6.965,0,0,0,1.79-.34,0.931,0.931,0,0,0,.76-0.95v-17.44l0.34-.23a0.556,0.556,0,0,0,.31-0.46,0.589,0.589,0,0,0-.38-0.49l-0.46-.23a10.884,10.884,0,0,1,.65-1.06l1.25-2.17,0.57-1.02,0.38-.08a0.728,0.728,0,0,0,.68-0.68,0.872,0.872,0,0,0-.57-0.73l-3.04-1.59a43.711,43.711,0,0,1-7.06,13.94c-1.18,1.6-1.18,1.6-1.18,1.75a0.261,0.261,0,0,0,.26.27c0.38,0,2.89-2.21,5.06-4.53v15.28Zm6.19-30.36a0.655,0.655,0,0,0,.72-0.61,1.043,1.043,0,0,0-.41-0.72l-3.16-2.43a36.617,36.617,0,0,1-7.33,10.3,2.7,2.7,0,0,0-.91,1.17,0.348,0.348,0,0,0,.34.38,12.029,12.029,0,0,0,2.85-1.74,44.1,44.1,0,0,0,6.88-6.16Zm7.94,22.61v-6.31h4.64c0.49,0,.72-0.15.72-0.49a0.914,0.914,0,0,0-.27-0.57l-2.16-2.09-1.75,2.12h-1.18v-4.9h5.59v20.22a0.463,0.463,0,0,0,.57.53,6.212,6.212,0,0,0,1.67-.31,0.972,0.972,0,0,0,.68-1.1v-6.5c0.91,0.35,1.48.57,1.71,0.69a1.148,1.148,0,0,1,.65.64l-0.08,1.22a0.754,0.754,0,0,0,.76.57,4.669,4.669,0,0,0,2.02-.72,2.933,2.933,0,0,0,1.25-2.47v-19.23l0.72-.3a0.739,0.739,0,0,0,.61-0.65,1.214,1.214,0,0,0-.3-0.79l-3.16-3.46-1.33,2.39h-2.28l-3.49-1.86v10.18l-2.55-2.58-1.97,2.51h-1.07v-5.59h4.6a0.493,0.493,0,0,0,.61-0.45,0.784,0.784,0,0,0-.31-0.54l-2.31-2.28-1.9,2.28h-4.53c0.57-1.36.84-1.97,1.26-3.15l1.06-.57a0.658,0.658,0,0,0,.42-0.61,0.644,0.644,0,0,0-.57-0.68l-3.72-1.18a37.557,37.557,0,0,1-2.28,10.22,7.135,7.135,0,0,0-.61,1.79,0.3,0.3,0,0,0,.34.26c0.5,0,1.71-1.74,3.57-5.09h1.37v5.59h-1.37c-1.52,0-2.54-.04-5.09-0.16l0.69,1.3c3.19-.12,3.34-0.12,4.4-0.12h1.37v12.77l-2.17.38v-8.85l0.54-.35a0.7,0.7,0,0,0-.23-1.36l-3.19-.38v11.28l-2.05.34,1.9,3.27a0.812,0.812,0,0,0,.68.49,0.822,0.822,0,0,0,.72-0.49l0.34-.8c2.74-.99,4.98-1.78,8.1-2.89,3.04-1.06,3.38-1.21,3.38-1.59a0.441,0.441,0,0,0-.46-0.46,3.425,3.425,0,0,0-.53.08c-1.06.23-1.1,0.23-3.04,0.61Zm8.51-20.48h3.16v18.73c0.03,1.48-.19,1.63-2.63,1.59h-0.53v-20.32Zm16.84,1.06c2.24-.07,3.23-0.11,4.41-0.11h3.57v4.75h-3.65l-3.38-2.02v24.32a0.5,0.5,0,0,0,.57.57,11.762,11.762,0,0,0,1.6-.27c0.64-.19.87-0.34,0.87-0.68v-20.9h11.36v11.86l-2.13-2.02-1.4,1.83h-1.22v-3.54h3.42c0.68,0,.95-0.15.95-0.53a1.034,1.034,0,0,0-.38-0.68l-1.6-1.56-1.36,1.75h-0.95c0.15-.23.26-0.38,0.3-0.46l0.8-1.18c0.34-.53.68-1.02,1.06-1.55,0.08-.12.31-0.46,0.69-0.95l0.49-.23c0.49-.23.61-0.34,0.61-0.65a0.691,0.691,0,0,0-.53-0.57l-2.51-1.14a52.236,52.236,0,0,1-1.86,6.73h-4.79v1.02h2.93v3.54h-3.54v1.02h3.54v7.64c0,0.38.07,0.42,0.64,0.42,1.37,0,2.09-.31,2.09-0.91v-7.15h4.75v4.3c0,0.87-.23,1.02-1.44,1.02h-0.42c-0.53-.04-0.88-0.04-1.03-0.04h-0.72c-0.23,0-.34.08-0.34,0.23a0.336,0.336,0,0,0,.23.31c2.62,1.1,2.77,1.21,2.77,2.2,0.04,0.84.23,1.14,0.76,1.14a3.24,3.24,0,0,0,1.75-.8c1.25-.83,1.48-1.18,1.48-2.35v-16.8h4.67c-0.15,8.78-1.78,15.81-4.44,19.23a3.193,3.193,0,0,0-.76,1.21,0.24,0.24,0,0,0,.23.23c0.72,0,3.45-3.23,4.75-5.58,1.9-3.46,2.54-6.12,3.07-12.96,0.84,8.74,2.93,14.7,6.61,18.77a7.845,7.845,0,0,1,2.93-3.72c-4.9-4.03-7.9-9.88-8.89-17.18h7.86q0.69,0,.69-0.45a0.859,0.859,0,0,0-.34-0.57l-3.12-2.78-2.36,2.78H1747c0.04-3.04.04-4.03,0.04-4.45l-0.11-4.9v-1.44l0.83-.61a1.051,1.051,0,0,0,.53-0.84,0.846,0.846,0,0,0-.95-0.83l-3.83-.23c0.34,4.03.42,6.08,0.49,13.3h-4.41a1.469,1.469,0,0,0,.46-0.84,0.723,0.723,0,0,0-.19-0.49l-2.51-2.55-1.52,1.98h-3.72v-4.75h8.78c0.64,0,.87-0.15.87-0.57a1.034,1.034,0,0,0-.49-0.76l-2.82-2.4-2.31,2.7h-4.03v-3.61l0.91-.61a0.858,0.858,0,0,0,.46-0.64,0.811,0.811,0,0,0-.91-0.76l-3.69-.19v5.81h-3.57c-1.94-.04-2.62-0.07-5.09-0.15Zm4.98,5.85a0.214,0.214,0,0,0-.23.19,0.615,0.615,0,0,0,.11.23,8.819,8.819,0,0,1,1.45,4.33c0.11,1.1.42,1.52,1.1,1.52a1.553,1.553,0,0,0,1.56-1.75c0-1.63-.91-2.92-2.78-3.95A4.432,4.432,0,0,0,1725.88,4627.7Zm22.34-8.89a0.178,0.178,0,0,0-.19.19,0.484,0.484,0,0,0,.19.31,6.191,6.191,0,0,1,1.52,2.96c0.45,1.82.91,2.39,1.94,2.39a1.879,1.879,0,0,0,1.86-1.93c0-1.49-1.37-2.93-3.19-3.46A19.255,19.255,0,0,0,1748.22,4618.81Zm17.41,28.76c4.63-.15,5.13-0.19,6.61-0.19h27.28a0.48,0.48,0,0,0,.53-0.53,0.979,0.979,0,0,0-.38-0.72l-3.57-2.81-2.55,3.04h-8.51a181.122,181.122,0,0,0,6.54-17.06l0.79-.34a0.856,0.856,0,0,0,.57-0.8,0.847,0.847,0,0,0-.57-0.8l-4.55-1.59a204.767,204.767,0,0,1-3.88,20.59h-11.7c-1.56,0-1.75,0-7.49-.23Zm2.28-22.79c2.05-.04,2.66-0.08,5.7-0.15h23.36a0.552,0.552,0,0,0,.61-0.57,0.722,0.722,0,0,0-.34-0.61l-3.69-2.93-2.62,3.08h-6.88v-6.19l0.84-.42a0.816,0.816,0,0,0,.49-0.69,0.666,0.666,0,0,0-.64-0.68l-4.26-.38v8.36h-6.87c-0.16,0-1.64-.04-3.08-0.08-0.31,0-2.13-.03-3.54-0.07Zm3.53,1.9a0.274,0.274,0,0,0-.3.3,1.446,1.446,0,0,0,.3.68,25.375,25.375,0,0,1,3.53,12.69c0.12,2.93.12,2.97,0.42,3.58a1.379,1.379,0,0,0,1.29.83c1.45,0,2.36-1.67,2.36-4.37a15.275,15.275,0,0,0-4.07-10.29C1773.07,4627.89,1771.78,4626.68,1771.44,4626.68Z" transform="translate(-1676.09 -4614.91)"/>
</svg>
