<svg xmlns="http://www.w3.org/2000/svg" width="675.56" height="159.8" viewBox="0 0 337.78 79.9">
  <defs>
    <style>
      .cls-1 {
        fill: #fff;
        fill-rule: evenodd;
      }
    </style>
  </defs>
  <path id="料理人が市場で目利き_茂木町の厳選食材" data-name="料理人が市場で目利き 茂木町の厳選食材" class="cls-1" d="M1138.25,3957.86a0.539,0.539,0,0,0,.6.6,4.781,4.781,0,0,0,1.38-.27,0.676,0.676,0,0,0,.57-0.72v-11.34a5.379,5.379,0,0,1,1.38,2.25c0.45,1.41.45,1.41,0.69,1.68a0.925,0.925,0,0,0,.69.3,1.294,1.294,0,0,0,1.14-1.5c0-1.59-1.41-2.76-3.9-3.24v-2.1h5.07a0.435,0.435,0,0,0,.51-0.39,0.613,0.613,0,0,0-.24-0.42l-1.95-1.98-1.62,1.98h-1.77V3932.6l0.84-.63a0.576,0.576,0,0,0,.27-0.48,0.507,0.507,0,0,0-.54-0.45l-3.12-.21v11.88h-1.68c-2.25-.06-3.39-0.09-4.02-0.12l0.57,1.02c2.67-.09,2.82-0.09,3.45-0.09h1.65a27.439,27.439,0,0,1-5.19,10.65,1,1,0,0,0-.24.48,0.152,0.152,0,0,0,.18.15,8.558,8.558,0,0,0,2.25-1.77,25.912,25.912,0,0,0,3.03-3.54v8.37Zm-5.07-23.76a0.152,0.152,0,0,0-.18.15,0.93,0.93,0,0,0,.15.33,9.218,9.218,0,0,1,1.35,5.16c0.03,1.23.33,1.65,1.08,1.65,0.93,0,1.5-.78,1.5-2.01a5.506,5.506,0,0,0-2.37-4.26A5.862,5.862,0,0,0,1133.18,3934.1Zm13.32,1.68a0.682,0.682,0,0,0,.36-0.6,0.607,0.607,0,0,0-.36-0.54l-2.61-1.44a40.218,40.218,0,0,1-1.98,6.57,3.878,3.878,0,0,0-.48,1.2,0.205,0.205,0,0,0,.21.21c0.39,0,2.34-2.4,4.11-5.04Zm-3.51,16.8c1.95-.6,2.52-0.75,4.23-1.23l6-1.59v7.74a0.551,0.551,0,0,0,.69.57,3.918,3.918,0,0,0,1.29-.24,0.734,0.734,0,0,0,.63-0.78v-7.98l5.22-1.44a0.255,0.255,0,0,0,.21-0.24,0.718,0.718,0,0,0-.33-0.51l-2.52-2.07-1.32,3.12-1.26.36v-15.48l0.63-.42a0.643,0.643,0,0,0,.33-0.57,0.559,0.559,0,0,0-.6-0.57l-2.97-.27v17.97l-6.3,1.65c-1.62.45-2.4,0.63-4.59,1.11Zm3.78-10.77a0.152,0.152,0,0,0-.18.15,0.513,0.513,0,0,0,.24.27,5.1,5.1,0,0,1,1.98,3.69c0.21,1.05.51,1.41,1.23,1.41a1.43,1.43,0,0,0,1.44-1.71,3.118,3.118,0,0,0-1.98-2.91A8.165,8.165,0,0,0,1146.77,3941.81Zm1.02-6.72c-0.18,0-.3.06-0.3,0.15a0.536,0.536,0,0,0,.27.36,4.916,4.916,0,0,1,1.83,3.42c0.21,1.05.48,1.41,1.17,1.41a1.494,1.494,0,0,0,1.53-1.68,3.107,3.107,0,0,0-1.77-2.76A7.273,7.273,0,0,0,1147.79,3935.09Zm26.37,7.38h4.29a0.452,0.452,0,0,0,.42-0.42,0.677,0.677,0,0,0-.33-0.51l-2.01-1.77-1.65,1.89h-0.72v-6.99h4.56a0.369,0.369,0,0,0,.33-0.39,0.573,0.573,0,0,0-.21-0.42l-2.19-1.92-1.59,1.92h-3.57c-1.02,0-1.86-.03-3.99-0.12l0.6,1.02c1.62-.06,1.86-0.06,3.54-0.09v6.99c-1.71-.03-2.01-0.03-4.02-0.12l0.66,1.02c1.56-.06,1.8-0.06,3.36-0.09v7.77c-1.41.27-1.95,0.36-4.53,0.69l1.86,3.15a0.573,0.573,0,0,0,.54.27,0.7,0.7,0,0,0,.69-0.45l0.33-1.02a67.391,67.391,0,0,0,7.74-3.15c1.38-.66,1.65-0.81,1.65-1.02a0.319,0.319,0,0,0-.36-0.3,2.394,2.394,0,0,0-.48.09c-2.37.63-3.9,0.99-4.92,1.2v-7.23Zm18.69,10.89-2.07,2.37h-3.09v-5.1h6.66a0.474,0.474,0,0,0,.39-0.51,0.687,0.687,0,0,0-.24-0.51l-2.22-1.95-1.83,2.16h-2.76v-4.23h3.72v0.99a0.377,0.377,0,0,0,.45.45,6.665,6.665,0,0,0,1.68-.33,0.543,0.543,0,0,0,.45-0.66v-10.77l0.75-.36a0.525,0.525,0,0,0,.3-0.45,0.985,0.985,0,0,0-.36-0.72l-2.43-2.31-0.99,1.35h-9l-2.94-1.23v15.99c0,0.33.12,0.42,0.48,0.42a5.474,5.474,0,0,0,1.44-.27c0.45-.15.6-0.27,0.6-0.54v-1.56h3.36v4.23h-1.77c-0.93,0-1.8-.03-4.02-0.12l0.63,1.02c1.68-.06,2.43-0.09,3.39-0.09h1.77v5.1h-3.54c-1.32,0-2.43-.03-5.19-0.15l0.66,1.08c2.16-.09,2.88-0.12,4.53-0.12h13.8a0.393,0.393,0,0,0,.39-0.36,0.617,0.617,0,0,0-.24-0.45Zm-11.01-8.58v-5.22h3.36v5.22h-3.36Zm0-6.03v-5.16h3.36v5.16h-3.36Zm5.85,6.03v-5.22h3.72v5.22h-3.72Zm0-6.03v-5.16h3.72v5.16h-3.72Zm29.25-5.34,0.78-.51a0.772,0.772,0,0,0,.33-0.6,0.551,0.551,0,0,0-.57-0.57l-3.78-.3c0.12,2.34.18,3.78,0.18,5.91,0,8.4-1.86,13.26-6.36,16.65a22.435,22.435,0,0,1-4.32,2.55,0.61,0.61,0,0,0-.54.45,0.273,0.273,0,0,0,.33.27,15.484,15.484,0,0,0,4.08-1.44,15.725,15.725,0,0,0,6.6-5.31c1.62-2.37,2.19-4.41,2.76-9.45,1.38,7.35,4.8,12.27,11.1,15.9a6.743,6.743,0,0,1,3.36-2.64c-9.42-3.6-13.98-9.75-13.95-18.78v-2.13Zm38.97-.6c-0.75,0-1.29.15-1.29,0.36,0,0.12.09,0.21,0.42,0.3a4.28,4.28,0,0,1,2.28,1.74c0.66,1.05.66,1.05,1.17,1.05a1.269,1.269,0,0,0,1.32-1.17C1259.81,3933.92,1257.89,3932.81,1255.91,3932.81Zm3.99-1.71c-0.78,0-1.32.15-1.32,0.36,0,0.15.06,0.21,0.45,0.33a5.02,5.02,0,0,1,2.49,2.01c0.45,0.78.6,0.87,1.08,0.87a1.312,1.312,0,0,0,1.32-1.17C1263.92,3932.27,1261.94,3931.1,1259.9,3931.1Zm-15.51,2.88c1.11,0,1.8.93,1.8,2.46a18.779,18.779,0,0,1-.45,3.93,21.816,21.816,0,0,1-5.01,1.17,1.762,1.762,0,0,1-1.59-.84c-0.09-.33-0.12-0.36-0.24-0.36a0.878,0.878,0,0,0-.3.9c0,1.56.93,2.82,2.07,2.82a3.677,3.677,0,0,0,1.71-.6c1.11-.57,1.44-0.72,3-1.47a29.973,29.973,0,0,1-5.94,10.92c-0.9.96-1.05,1.2-1.05,1.65a1.436,1.436,0,0,0,1.56,1.32,2.44,2.44,0,0,0,1.5-.51,6.244,6.244,0,0,0,1.08-1.56,64.7,64.7,0,0,0,5.34-12.66,7.21,7.21,0,0,1,2.22-.54c1.11,0,1.62.84,1.62,2.67a21.683,21.683,0,0,1-1.41,7.65,2.212,2.212,0,0,1-1.71,1.62c-0.42,0-.6-0.12-2.22-1.5a2.174,2.174,0,0,0-.87-0.6,0.225,0.225,0,0,0-.21.18,0.852,0.852,0,0,0,.3.45,6.691,6.691,0,0,1,1.5,3.66c0.06,0.84.24,1.02,0.96,1.02a5.265,5.265,0,0,0,4.14-2.4c1.2-1.8,2.01-5.46,2.01-9,0-3.18-1.35-4.95-3.81-4.95a8.58,8.58,0,0,0-2.16.33,30.342,30.342,0,0,0,.9-4.47c0-.93-1.86-2.16-3.27-2.16a2.784,2.784,0,0,0-1.89.78,0.162,0.162,0,0,0,.15.12,0.326,0.326,0,0,0,.15-0.03h0.12Zm14.85,12.3c1.59,0,2.19.18,2.97,0.93a1.125,1.125,0,0,0,.81.39c0.99,0,1.62-.93,1.62-2.37a7.362,7.362,0,0,0-7.38-7.11c-0.78,0-1.2.12-1.2,0.33,0,0.15.06,0.21,0.39,0.24a6.465,6.465,0,0,1,3.72,2.4,5.319,5.319,0,0,1,1.35,2.82,1.046,1.046,0,0,1-.78.96,20.405,20.405,0,0,1-2.73,1.02c-0.21.06-.3,0.12-0.3,0.24a0.237,0.237,0,0,0,.24.24c0.12,0,.33-0.03.6-0.06A3.867,3.867,0,0,1,1259.24,3946.28Zm25.02-9.39v4.44h-5.49l-3.45-1.56v15.12a0.627,0.627,0,0,0,.75.78c1.17,0,2.07-.45,2.07-0.99v-12.54h6.12v15.6a0.665,0.665,0,0,0,.81.75,3.407,3.407,0,0,0,1.26-.27,0.893,0.893,0,0,0,.75-0.93v-15.15h6.18v9.18c0,0.9-.18.99-2.1,0.99-0.66,0-1.2,0-1.44-.03h-0.42a0.331,0.331,0,0,0-.39.27c0,0.24.09,0.3,1.11,0.66l0.93,0.36c0.39,0.12.72,0.27,0.9,0.33,0.54,0.24.57,0.3,0.54,0.99-0.03.66,0.21,1.02,0.66,1.02a4.177,4.177,0,0,0,1.89-.78,1.864,1.864,0,0,0,1.14-1.98v-9.63l0.69-.27a0.779,0.779,0,0,0,.48-0.63,1,1,0,0,0-.33-0.63l-2.55-2.58-1.44,1.92h-5.85v-3.27l0.39-.39a0.562,0.562,0,0,0,.24-0.42,1.037,1.037,0,0,0-.09-0.36h11.82a0.41,0.41,0,0,0,.42-0.42,0.668,0.668,0,0,0-.33-0.51l-2.88-2.28-2.22,2.4h-7.14v-3.33l0.87-.51a0.745,0.745,0,0,0,.39-0.63,0.609,0.609,0,0,0-.63-0.6l-3.6-.3v5.37h-6.42c-2.16,0-3-.03-5.91-0.15l0.72,1.11c3.12-.12,4.05-0.15,5.19-0.15h6.36Zm23.91,15.36a1.065,1.065,0,0,0,.78.51,0.864,0.864,0,0,0,.69-0.78l0.12-.54,0.69-.33,1.68-.81,1.95-1.05,1.98-1.02c1.77-.99,1.77-0.99,1.77-1.2a0.212,0.212,0,0,0-.24-0.18,11.953,11.953,0,0,0-1.83.51c-1.44.45-1.5,0.45-2.46,0.72v-8.13h3.99a0.473,0.473,0,0,0,.51-0.42,0.929,0.929,0,0,0-.39-0.63l-1.68-1.65-1.41,1.89h-1.02v-5.91l0.57-.36a0.869,0.869,0,0,0,.45-0.66,0.772,0.772,0,0,0-.81-0.54l-2.73-.27v7.74h-0.33c-0.45,0-1.11,0-1.89-.03l-2.13-.09,0.54,1.02c2.01-.06,2.7-0.09,3.48-0.09h0.33v8.76c-1.71.45-2.67,0.69-4.38,1.08Zm13.95-4.08a24.885,24.885,0,0,1-7.35,8.76,1.021,1.021,0,0,0-.48.51,0.159,0.159,0,0,0,.18.18,18.121,18.121,0,0,0,3.87-2.37,26.285,26.285,0,0,0,6.18-7.08h1.95a23.513,23.513,0,0,1-7.59,9.66,0.7,0.7,0,0,0-.42.42,0.194,0.194,0,0,0,.18.18,16.591,16.591,0,0,0,4.44-2.61,19.493,19.493,0,0,0,6-7.65h1.8a19.17,19.17,0,0,1-.93,5.16c-0.54,1.53-1.02,2.04-1.92,2.04a7.662,7.662,0,0,1-1.86-.27,7.184,7.184,0,0,0-1.23-.24,0.152,0.152,0,0,0-.18.15,1.956,1.956,0,0,0,.93.66c1.35,0.75,1.53.9,1.53,1.41v0.12c-0.06.54-.06,0.54-0.06,0.6a0.615,0.615,0,0,0,.75.72,4.015,4.015,0,0,0,3.66-2.37,20.115,20.115,0,0,0,1.68-6.36l0.42-.09a0.731,0.731,0,0,0,.66-0.63,1.322,1.322,0,0,0-.42-0.81l-2.13-2.31-1.08,1.41h-9.39c0.3-.39.6-0.75,0.87-1.14,0.42-.57.51-0.66,0.96-1.32h11.19a0.473,0.473,0,0,0,.51-0.42,1.149,1.149,0,0,0-.42-0.72l-2.19-2.1-1.92,2.43h-10.59l-5.22-.15,0.6,1.08c2.46-.09,3.48-0.12,4.62-0.12h0.3a24.2,24.2,0,0,1-7.11,9.33,0.649,0.649,0,0,0-.33.39,0.159,0.159,0,0,0,.18.18,14.207,14.207,0,0,0,2.7-1.59,25.244,25.244,0,0,0,5.22-5.04h1.44Zm-1.29-6.72h7.38v0.81a0.469,0.469,0,0,0,.54.51c1.26,0,1.95-.24,1.95-0.69v-7.11l0.36-.18a0.789,0.789,0,0,0,.54-0.63,1.215,1.215,0,0,0-.48-0.75l-2.1-1.95-1.17,1.56h-6.78l-2.64-1.26v11.01a0.469,0.469,0,0,0,.51.54,5.785,5.785,0,0,0,1.44-.24,0.554,0.554,0,0,0,.45-0.6v-1.02Zm0-.81v-3.06h7.38v3.06h-7.38Zm0-3.87v-2.94h7.38v2.94h-7.38Zm43.71,2.76c-0.81,0-1.32.15-1.32,0.36a0.4,0.4,0,0,0,.27.27,4.943,4.943,0,0,1,2.7,2.1c0.42,0.78.48,0.81,0.96,0.81a1.307,1.307,0,0,0,1.38-1.17C1368.53,3940.7,1366.58,3939.53,1364.54,3939.53Zm-3.75,1.89c-0.45,0-.72.09-0.72,0.27a0.3,0.3,0,0,0,.18.21,4.352,4.352,0,0,1,2.31,2.31c0.36,0.87.51,1.02,1.14,1.02a1.224,1.224,0,0,0,1.26-1.05C1364.96,3942.83,1362.8,3941.42,1360.79,3941.42Zm3.18-8.07c-0.66.36-.78,0.39-4.59,1.5-3.9.99-6.78,1.8-10.26,2.85a10.227,10.227,0,0,1-3.09.72,2.605,2.605,0,0,1-2.22-1.2c-0.15-.3-0.15-0.33-0.27-0.33-0.09,0-.15.09-0.15,0.24a4.865,4.865,0,0,0,.36,1.98,4.383,4.383,0,0,0,3.03,2.25,1.207,1.207,0,0,0,.75-0.3,24.141,24.141,0,0,1,4.47-2.46,22.861,22.861,0,0,1,5.28-1.74,0.139,0.139,0,0,1,.15.09,1.507,1.507,0,0,1-.3.36,16.287,16.287,0,0,0-3.33,5.25,19.036,19.036,0,0,0-1.23,6.24c0,3.42,1.35,5.64,4.11,6.69a16.02,16.02,0,0,0,5.46,1.02c1.62,0,2.46-.51,2.46-1.5a2.307,2.307,0,0,0-1.86-2.1,0.381,0.381,0,0,0-.18.03,18.005,18.005,0,0,1-2.37.21c-3.36,0-5.01-1.77-5.01-5.34a19.431,19.431,0,0,1,1.2-6.75,6.981,6.981,0,0,1,3.36-3.87,8.63,8.63,0,0,1,3.99-.66,11.493,11.493,0,0,1,2.25.24,4.509,4.509,0,0,0,.6.06,0.932,0.932,0,0,0,.96-0.87,2.435,2.435,0,0,0-1.35-1.74A3.824,3.824,0,0,0,1363.97,3933.35Zm19.74,21.84h13.17v1.65a0.388,0.388,0,0,0,.48.42,5.84,5.84,0,0,0,2.04-.45,0.49,0.49,0,0,0,.33-0.54v-20.13l0.48-.18a0.624,0.624,0,0,0,.51-0.57,1.482,1.482,0,0,0-.36-0.9l-2.67-2.79-1.41,2.04h-12.12l-3.24-1.68v25.41a0.34,0.34,0,0,0,.42.36,5.853,5.853,0,0,0,1.71-.36c0.48-.12.66-0.27,0.66-0.57v-1.71Zm0-7.17h13.17v6.36h-13.17v-6.36Zm0-.81v-5.97h13.17v5.97h-13.17Zm0-6.78v-5.88h13.17v5.88h-13.17Zm27.99,0.72c1.74-.06,2.46-0.09,3.48-0.09h1.83c-0.21,3.21-2.49,8.31-5.28,11.7a0.862,0.862,0,0,0-.24.42,0.173,0.173,0,0,0,.18.18,5.731,5.731,0,0,0,1.65-1.32,33.294,33.294,0,0,0,3.69-4.23v9.84c0,0.36.09,0.45,0.42,0.45a5.435,5.435,0,0,0,1.71-.36,0.533,0.533,0,0,0,.45-0.54v-12.09a6.663,6.663,0,0,1,2.31,3.78,1.143,1.143,0,0,0,1.17,1.02,1.4,1.4,0,0,0,1.41-1.53,3.549,3.549,0,0,0-1.98-2.85,8.874,8.874,0,0,0-2.91-.99v-3.48h5.85a0.452,0.452,0,0,0,.42-0.42,0.768,0.768,0,0,0-.3-0.54l-2.19-1.89-1.56,2.04h-2.22v-5.28c2.34-.57,2.55-0.63,4.05-1.05l0.72-.03a0.478,0.478,0,0,0,.42-0.42,0.626,0.626,0,0,0-.24-0.48l-2.22-1.89a43.978,43.978,0,0,1-8.85,4.2l-0.9.33c-0.96.33-.99,0.36-0.99,0.57a0.261,0.261,0,0,0,.3.27,35.267,35.267,0,0,0,4.38-.81l0.75-.15v4.74h-1.83c-1.14,0-1.95-.03-4.02-0.12Zm15.42-5.52v16.14a0.408,0.408,0,0,0,.51.48,5.242,5.242,0,0,0,1.38-.24c0.6-.15.78-0.33,0.78-0.72v-13.8l0.72-.45a0.534,0.534,0,0,0,.3-0.48,0.519,0.519,0,0,0-.45-0.51Zm6.75-4.05v22.68c0,0.45-.15.54-0.75,0.54a3.682,3.682,0,0,1-.51-0.03h-1.11c-0.51-.03-1.02-0.03-1.05-0.03a4.084,4.084,0,0,0-.48-0.03c-0.51,0-.6.03-0.6,0.18a0.305,0.305,0,0,0,.24.24c0.15,0.06.39,0.18,0.72,0.33l0.81,0.33,1.17,0.51c0.21,0.09.42,0.18,0.6,0.27,0.21,0.09.24,0.09,0.24,0.33,0.12,1.2.12,1.2,0.57,1.2a4.426,4.426,0,0,0,1.74-.69,1.731,1.731,0,0,0,1.14-1.89v-21.96l0.78-.51a0.716,0.716,0,0,0,.3-0.54,0.554,0.554,0,0,0-.54-0.51Zm28.11,10.5a20.046,20.046,0,0,1-6.87,1.2c-2.13,0-3.48-.54-3.87-1.56-0.15-.33-0.15-0.36-0.24-0.36-0.12,0-.21.18-0.21,0.45a3.37,3.37,0,0,0,1.44,2.58,6.36,6.36,0,0,0,3.48.87,28.085,28.085,0,0,0,7.32-1.14,17.218,17.218,0,0,1,2.07,4.23,0.319,0.319,0,0,1-.36.3,6.289,6.289,0,0,1-1.62-.33,12.992,12.992,0,0,0-3.93-.6c-3.93,0-6.57,1.86-6.57,4.65,0,3.03,3.45,5.13,8.43,5.13,2.04,0,3-.6,3-1.86a1.28,1.28,0,0,0-1.44-1.32,4.479,4.479,0,0,0-.57.03c-0.54.03-2.07,0.09-2.46,0.09-2.79,0-4.53-1.08-4.53-2.85s1.53-2.88,4.05-2.88a10.061,10.061,0,0,1,7.11,3.54,1.722,1.722,0,0,0,.36.03c1.2,0,2.13-1.23,2.13-2.82a3.95,3.95,0,0,0-1.14-2.61c-1.5-1.77-2.19-2.61-2.79-3.45a23.474,23.474,0,0,0,4.17-2.04c0.99-.63,1.41-1.11,1.41-1.68a0.775,0.775,0,0,0-.66-0.69,10.792,10.792,0,0,0-2.37-.42c-0.24.84-1.29,1.59-3.93,2.76a20.588,20.588,0,0,1-1.56-2.64c2.34-.96,3.33-1.62,3.33-2.22,0-.57-1.11-1.32-1.95-1.32-0.3,0-.42.09-1.2,0.78a6.488,6.488,0,0,1-1.14.84c-0.93-2.01-1.17-2.73-1.17-3.45a0.925,0.925,0,0,1,.03-0.27,1,1,0,0,0-.36-0.6,5.388,5.388,0,0,0-3.15-.99c-0.69,0-2.16.9-2.16,1.32a0.188,0.188,0,0,0,.21.12c1.59-.06,2.64.87,4.92,4.47a11.126,11.126,0,0,1-3.93.78,2.552,2.552,0,0,1-2.25-.75,0.315,0.315,0,0,0-.27-0.21,0.214,0.214,0,0,0-.24.21,2.878,2.878,0,0,0,.75,1.32,3.759,3.759,0,0,0,2.82,1.2,15.52,15.52,0,0,0,4.26-.75A23.734,23.734,0,0,1,1461.98,3942.08Zm-328.29,46.29c3.87-.15,3.96-0.15,5.22-0.15h2.13v4.11c0,0.18.15,0.27,0.39,0.27a10.047,10.047,0,0,0,1.86-.36c0.33-.09.45-0.18,0.45-0.42v-3.6h5.7v2.76c0,0.27.18,0.42,0.57,0.42a9.312,9.312,0,0,0,1.95-.3,4.216,4.216,0,0,1,1.05,1.47,5.871,5.871,0,0,0,.81,1.71,1.544,1.544,0,0,0,1.08.45,1.349,1.349,0,0,0,1.35-1.44c0-1.53-1.65-2.7-4.05-2.85v-2.22h8.19a0.435,0.435,0,0,0,.51-0.39,1.063,1.063,0,0,0-.51-0.72l-2.61-2.25-2.25,2.55h-3.33v-2.97l0.63-.3a0.773,0.773,0,0,0,.54-0.66,0.83,0.83,0,0,0-.96-0.69l-2.97-.21v4.83h-5.7v-2.91l0.57-.3a0.9,0.9,0,0,0,.54-0.75c0-.39-0.36-0.6-0.99-0.66l-2.82-.21v4.83h-2.13c-1.26,0-2.4-.03-5.91-0.18Zm11.94,7.65a20.558,20.558,0,0,0,2.85,7.98,27.474,27.474,0,0,1-8.19,5.58c-0.57.27-.69,0.36-0.69,0.51q0,0.18.27,0.18a17.414,17.414,0,0,0,3.78-1.14,25.6,25.6,0,0,0,6.12-3.36,14.249,14.249,0,0,0,3.12,2.49,13.24,13.24,0,0,0,5.61,1.77c1.2,0,1.95-.36,1.95-0.96a3.133,3.133,0,0,0-.87-1.62,0.836,0.836,0,0,1-.24-0.54,0.643,0.643,0,0,1,.03-0.18c0.03-.09.06-0.39,0.12-0.81,0-.09.09-0.54,0.21-1.2,0.12-.84.24-1.71,0.27-1.95l0.03-.27a0.232,0.232,0,0,0,.03-0.09,0.225,0.225,0,0,0-.18-0.21h-0.03a0.724,0.724,0,0,0-.33.45,15.581,15.581,0,0,1-1.47,2.91,1.87,1.87,0,0,1-1.65,1.2c-1.02,0-3.24-1.26-4.74-2.7a23.922,23.922,0,0,0,3.72-4.56l1.14-.27a0.633,0.633,0,0,0,.66-0.54,0.86,0.86,0,0,0-.51-0.69l-2.88-1.65-0.18.3a28.545,28.545,0,0,1-3.36,5.4,15.374,15.374,0,0,1-1.98-6.03h12.15a0.449,0.449,0,0,0,.54-0.39,1.394,1.394,0,0,0-.75-0.99l-2.28-1.92-2.16,2.49h-7.59c-0.06-.54-0.18-2.43-0.18-2.85v-0.27l0.75-.51a0.876,0.876,0,0,0,.42-0.63c0-.33-0.21-0.42-1.29-0.48l-2.67-.18a45.73,45.73,0,0,0,.3,4.92h-5.7l-3.36-1.62a36.2,36.2,0,0,1,.15,3.66c0,6.18-.66,9.27-2.67,12.63a0.729,0.729,0,0,0-.18.42,0.19,0.19,0,0,0,.21.21c0.66,0,2.91-2.55,3.84-4.38,1.23-2.43,1.53-4.35,1.65-10.11h6.21Zm34.44,13.68a0.367,0.367,0,0,0,.45.42,5.313,5.313,0,0,0,1.92-.45,0.5,0.5,0,0,0,.3-0.54v-16.05c2.07,6.39,4.98,10.32,10.11,13.71,1.47-1.71,1.56-1.8,3.12-2.49a22.277,22.277,0,0,1-12.84-12.42h11.46a0.381,0.381,0,0,0,.42-0.36,1.166,1.166,0,0,0-.51-0.75l-2.64-2.22-2.1,2.52h-7.02v-6.51l0.69-.36a0.785,0.785,0,0,0,.45-0.66c0-.39-0.24-0.57-0.93-0.6l-2.88-.21v8.34h-6.24c-0.06,0-1.38-.03-2.61-0.06l-3.3-.12,0.72,1.14c1.14-.03,2.22-0.06,2.58-0.09,1.32-.03,2.22-0.06,2.61-0.06h5.7c-1.86,5.16-6.69,11.34-11.73,15.12a0.423,0.423,0,0,0-.21.3,0.142,0.142,0,0,0,.15.15,17.941,17.941,0,0,0,4.29-2.46,40.877,40.877,0,0,0,8.04-8.43v13.14Zm25.62-6.51h7.8v2.07c0,0.3.12,0.42,0.48,0.42,1.29,0,2.16-.39,2.16-0.96v-15.81h5.85v16.74c0,0.72-.24.84-1.65,0.84-0.57,0-2.01-.03-2.91-0.09h-0.18c-0.24,0-.33.06-0.33,0.21,0,0.18.15,0.24,1.29,0.6,1.8,0.57,1.98.63,2.37,0.78a0.858,0.858,0,0,1,.51.99c-0.03.72,0.15,0.99,0.63,0.99a4.2,4.2,0,0,0,2.46-1.05,2.381,2.381,0,0,0,.57-1.98v-18.03h5.49a0.412,0.412,0,0,0,.33-0.45,0.727,0.727,0,0,0-.27-0.54l-2.55-2.22-2.04,2.4h-9.57v-0.93l0.54-.18a0.68,0.68,0,0,0,.42-0.54,1.116,1.116,0,0,0-.36-0.66l-2.34-2.37-1.17,1.74h-7.23l-2.85-1.56v22.95a0.418,0.418,0,0,0,.51.51,5.463,5.463,0,0,0,1.47-.27,0.673,0.673,0,0,0,.57-0.57v-3.03Zm0-.81v-7.89h2.67v7.89h-2.67Zm0-8.67v-7.74h2.67v7.74h-2.67Zm5.13,8.67v-7.89h2.67v7.89h-2.67Zm0-8.67v-7.74h2.67v7.74h-2.67Zm40.95-5.94c0.33-.03.54-0.03,0.63-0.03a7.192,7.192,0,0,1,3.09.72c2.61,1.32,3.96,4.05,3.96,8.07a10.256,10.256,0,0,1-3.84,8.55,16.112,16.112,0,0,1-5.37,2.79c-0.48.15-.57,0.18-0.57,0.33,0,0.12.12,0.18,0.3,0.18a12.994,12.994,0,0,0,1.92-.36,18.478,18.478,0,0,0,5.55-2.04,11.05,11.05,0,0,0,5.55-9.6,9.05,9.05,0,0,0-2.37-6.33,11.575,11.575,0,0,0-8.43-3.3c-7.02,0-13.05,5.67-13.05,12.27a7.771,7.771,0,0,0,1.47,4.83,3.625,3.625,0,0,0,2.52,1.65c1.65,0,4.26-2.13,6.03-4.89a19.306,19.306,0,0,0,3-9.75A11.478,11.478,0,0,0,1251.77,3987.77Zm-1.47.12a1.912,1.912,0,0,0,.06.21,7.212,7.212,0,0,1,.18,1.68,17.641,17.641,0,0,1-3.06,8.97c-1.26,1.98-2.97,3.54-3.9,3.54s-1.74-1.56-1.74-3.33a11.749,11.749,0,0,1,3.54-8.37A11.335,11.335,0,0,1,1250.3,3987.89Zm27.72,7.98v9.45c-1.38.21-1.56,0.24-2.76,0.39l1.65,2.61a0.643,0.643,0,0,0,.54.42,0.615,0.615,0,0,0,.57-0.39l0.27-.66c0.72-.33,1.2-0.54,1.41-0.63,0.87-.36,1.74-0.72,2.64-1.11,0.12-.03.48-0.21,1.05-0.45v4.29a0.4,0.4,0,0,0,.42.48,5.536,5.536,0,0,0,1.62-.48,0.647,0.647,0,0,0,.48-0.78v-6.39a16.316,16.316,0,0,0,3.54-3.66,11.942,11.942,0,0,0,2.16,5.22,18.325,18.325,0,0,1-5.13,5.31,0.8,0.8,0,0,0-.42.51,0.329,0.329,0,0,0,.33.3,7.419,7.419,0,0,0,2.19-.93,16.248,16.248,0,0,0,4.35-3.45,14.943,14.943,0,0,0,4.98,3.93,5.771,5.771,0,0,1,2.43-2.67,17.75,17.75,0,0,1-6.15-3,20.3,20.3,0,0,0,2.61-7.26h2.76c0.51,0,.69-0.09.69-0.42a0.838,0.838,0,0,0-.42-0.63l-2.37-2.01-1.95,2.25h-4.23a32.137,32.137,0,0,0,1.65-3.36l0.63-.21a0.817,0.817,0,0,0,.69-0.72,0.839,0.839,0,0,0-.6-0.69l-2.88-1.23c-1.56,6.09-2.67,8.79-4.89,12v-6.03h2.46c0.39,0,.6-0.15.6-0.42a0.772,0.772,0,0,0-.36-0.6l-2.01-1.68-1.65,1.89h-1.95v-2.43h4.17c0.39,0,.57-0.12.57-0.42a0.778,0.778,0,0,0-.33-0.51l-1.89-1.62-1.5,1.74h-6.18v0.81h2.58v2.43h-3.57c0.03-2.46.03-2.46,0.03-2.88,0-.45,0-0.45-0.03-2.64h22.74a0.389,0.389,0,0,0,.48-0.36,0.614,0.614,0,0,0-.27-0.45l-2.58-2.19-1.95,2.19h-3.69c0.18-.18.93-0.99,2.28-2.49,0.24-.24.39-0.39,0.81-0.84l0.57-.27a0.628,0.628,0,0,0,.45-0.6,0.71,0.71,0,0,0-.54-0.63l-2.85-1.23a55.178,55.178,0,0,1-1.89,6.06H1277.3l-3.39-2.01c0.18,3,.24,4.41.24,6.36,0,7.62-.48,11.76-1.77,14.79a6.855,6.855,0,0,0-.63,1.68,0.237,0.237,0,0,0,.24.24c0.33,0,1.74-1.95,2.64-3.63,1.32-2.49,1.83-5.01,2.19-10.29h1.2Zm2.43,6.36h2.94v2.4c-1.35.21-1.56,0.24-2.94,0.42v-2.82Zm0-.81v-2.4h2.94v2.4h-2.94Zm0-3.21v-2.34h2.94v2.34h-2.94Zm13.47-1.29a23.47,23.47,0,0,1-1.5,5.61,10.607,10.607,0,0,1-2.43-4.35c0.39-.57.45-0.66,0.81-1.26h3.12Zm-17.07-14.04a0.205,0.205,0,0,0-.21.21,0.41,0.41,0,0,0,.24.24c0.9,0.63,1.35,1.47,2.1,3.63,0.3,0.96.63,1.29,1.32,1.29a1.716,1.716,0,0,0,1.62-1.8,3.24,3.24,0,0,0-2.13-2.73A9.719,9.719,0,0,0,1276.85,3982.88Zm6.21-.3c-0.15,0-.24.06-0.24,0.15a0.787,0.787,0,0,0,.3.39,5.606,5.606,0,0,1,1.95,3.06c0.51,1.41.9,1.86,1.65,1.86a1.487,1.487,0,0,0,1.5-1.68c0-1.41-.87-2.43-2.64-3.15A10.562,10.562,0,0,0,1283.06,3982.58Zm30.39,15.09,0.54-.18c0.54-.15.6-0.21,0.6-0.48a1.321,1.321,0,0,0-.51-0.93l-2.19-2.28-1.14,1.77h-0.15c-0.33,0-.93-0.03-1.8-0.06-0.36-.03-1.14-0.03-2.19-0.06l0.54,1.02c2.7-.09,2.85-0.12,3.45-0.12h0.24v8.07a21.637,21.637,0,0,1-2.61,1.44q-1.35.585-1.62,0.72l2.13,2.13a1.025,1.025,0,0,0,.72.39c0.33,0,.51-0.24.51-0.72v-0.81l0.09-.09a2.645,2.645,0,0,1,.3-0.39c0.51-.63.57-0.75,1.2-1.53,0.39-.48.51-0.63,0.75-0.96,2.97,3.69,5.94,4.86,12.42,4.86,2.88,0,6.75-.06,8.4-0.09a6.8,6.8,0,0,1,1.8-2.79c-4.29.33-8.4,0.54-11.04,0.54-3.66,0-5.19-.15-6.93-0.75a47.925,47.925,0,0,0,5.61-2.7l0.63-.06c0.6-.06.84-0.21,0.84-0.51a0.911,0.911,0,0,0-.6-0.69l-1.89-1.29a21.527,21.527,0,0,1-5.46,4.95,8.219,8.219,0,0,1-2.64-1.56v-6.84Zm-4.95-14.25a0.231,0.231,0,0,0-.27.24,0.37,0.37,0,0,0,.12.24,6.642,6.642,0,0,1,2.13,2.79c0.6,2.19.6,2.19,0.93,2.52a1.022,1.022,0,0,0,.72.27,1.759,1.759,0,0,0,1.62-1.98c0-1.53-1.26-2.91-3.33-3.63A9.864,9.864,0,0,0,1308.5,3983.42Zm6.3,17.58c3.27-.12,3.66-0.12,4.59-0.12h15.06a0.38,0.38,0,0,0,.42-0.42,0.763,0.763,0,0,0-.42-0.63l-2.19-1.83-1.8,2.04h-1.95v-2.94h4.62a0.346,0.346,0,0,0,.42-0.33c0-.24-0.03-0.3-0.48-0.66l-1.8-1.53-1.53,1.71h-1.23v-1.26l0.27-.09a0.568,0.568,0,0,0,.39-0.45q0-.315-0.54-0.36l-2.43-.12v2.28h-4.02v-0.96l0.3-.15a0.524,0.524,0,0,0,.39-0.42c0-.3-0.24-0.42-0.75-0.45l-2.34-.06v2.04h-0.48c-0.12,0-1.08-.03-2.04-0.06l-1.98-.06,0.6,1.02c2.58-.09,2.94-0.09,3.42-0.09h0.48v2.94h-0.39c-2.01,0-2.76,0-5.19-.12Zm12.51-12.21h2.91v0.42c0,0.33.15,0.45,0.54,0.45,0.75,0,1.83-.42,1.83-0.72v-2.85l0.45-.21a0.6,0.6,0,0,0,.39-0.48,1.031,1.031,0,0,0-.66-0.87l-1.95-1.65-0.78,1.41h-2.1c-0.87,0-1.74-.03-4.02-0.12l0.51,1.02c0.78-.03,1.44-0.06,1.71-0.06,0.93-.03,1.56-0.06,1.8-0.06h2.28v2.91h-2.64l-2.52-.96v5.01c0,1.11.57,1.44,2.52,1.44a31.479,31.479,0,0,0,6.36-.39,1.183,1.183,0,0,0,.81-1.02,0.791,0.791,0,0,0-.57-0.69,1.534,1.534,0,0,1-.54-0.24,0.611,0.611,0,0,1-.06-0.33c-0.06-1.53-.09-1.74-0.27-1.74a0.42,0.42,0,0,0-.3.3,4.264,4.264,0,0,1-1.08,1.8,8.858,8.858,0,0,1-3.21.36,4.33,4.33,0,0,1-1.35-.09c-0.06-.03-0.06-0.03-0.06-0.51v-2.13Zm-9.54,0h2.61v0.45c0,0.3.12,0.39,0.54,0.39,0.93,0,1.86-.39,1.86-0.78v-2.88l0.45-.24a0.523,0.523,0,0,0,.39-0.48,0.887,0.887,0,0,0-.42-0.63l-2.07-1.62-0.99,1.26h-1.83c-0.33,0-1.02,0-2.01-.03-0.3-.03-1.11-0.06-2.04-0.09l0.66,1.02c1.5-.06,2.16-0.09,3.39-0.09h2.07v2.91h-2.61l-2.37-.99v4.98c0,1.47.21,1.59,2.85,1.59,5.4,0,6.12-.12,6.12-1.14a0.7,0.7,0,0,0-.36-0.63c-0.21-.12-0.42-0.24-0.6-0.33l-0.03-.03a1.472,1.472,0,0,1-.09-0.39,3.485,3.485,0,0,0-.06-0.6l-0.03-.33c0-.21-0.06-0.3-0.15-0.3a0.23,0.23,0,0,0-.21.24c-0.57,1.47-.78,1.62-2.34,1.62h-2.31c-0.42-.03-0.42-0.06-0.42-0.63v-2.25Zm4.41,11.25v-2.94h4.02v2.94h-4.02Zm3.18,1.32a0.2,0.2,0,0,0-.24.18,0.385,0.385,0,0,0,.3.27,12.642,12.642,0,0,1,3.69,2.7c1.74,1.68,1.74,1.68,2.19,1.68a1.284,1.284,0,0,0,1.35-1.23c0-.96-1.11-1.95-2.97-2.64A19.362,19.362,0,0,0,1325.36,4001.36Zm22.08,5.49c-1.86.15-2.19,0.18-4.23,0.27l2.07,3.09a0.754,0.754,0,0,0,.6.42,0.663,0.663,0,0,0,.57-0.42l0.42-.78c2.01-.57,2.1-0.6,3.75-1.05,3.33-.9,4.68-1.32,6.39-1.89a0.439,0.439,0,0,0,.39-0.36,0.277,0.277,0,0,0-.3-0.27,3.12,3.12,0,0,0-.45.06c-1.53.18-3.99,0.45-6.33,0.63v-6.06h4.14c1.95,4.89,5.91,8.13,12.33,10.05a8.37,8.37,0,0,1,3.3-2.91c-4.5-.36-7.83-1.32-10.56-3,1.59-.78,4.29-2.13,6-3l0.87,0.03,0.21,0.03a0.607,0.607,0,0,0,.78-0.51,0.948,0.948,0,0,0-.45-0.66l-2.22-1.98a55.759,55.759,0,0,1-5.82,5.67,11.745,11.745,0,0,1-3.63-3.72h4.05v0.6a0.461,0.461,0,0,0,.54.48,5.253,5.253,0,0,0,1.5-.33,0.635,0.635,0,0,0,.57-0.75v-6.21l0.63-.18a0.562,0.562,0,0,0,.36-0.54,0.768,0.768,0,0,0-.33-0.57l-2.55-2.4-0.96,1.59h-3.18v-2.04l0.87-.39a0.581,0.581,0,0,0,.3-0.51,0.461,0.461,0,0,0-.45-0.45l-3.33-.33v3.72h-2.88l-1.53-.84a52.826,52.826,0,0,0,7.02-6.54c2.52,3.99,5.7,6.6,10.95,8.94a7.509,7.509,0,0,1,3.15-2.79c-6.39-1.35-10.65-3.42-13.44-6.48l0.57-.18a0.561,0.561,0,0,0,.42-0.51,0.483,0.483,0,0,0-.3-0.42l-3.36-1.32a38.324,38.324,0,0,1-12.09,12.87,0.721,0.721,0,0,0-.45.48,0.2,0.2,0,0,0,.21.18c0.6,0,3.36-1.44,5.88-3.09v14.37Zm2.88-7.17v-2.91h9v2.91h-9Zm0-3.72v-2.97h9v2.97h-9Zm34.5-4.11h4.68a0.487,0.487,0,0,0,.48-0.42,0.586,0.586,0,0,0-.21-0.45l-2.25-1.95-1.71,2.01h-0.99v-6.57l0.6-.39a0.815,0.815,0,0,0,.36-0.63,0.718,0.718,0,0,0-.78-0.6l-2.85-.12v8.31h-1.86c-1.29,0-2.04-.03-4.02-0.12l0.63,1.02c1.56-.06,2.13-0.09,3.39-0.09h1.8a29.223,29.223,0,0,1-5.52,12.57,1.067,1.067,0,0,0-.33.51,0.291,0.291,0,0,0,.21.24,4.741,4.741,0,0,0,1.5-1.14,25.872,25.872,0,0,0,4.2-4.89v10.56c0,0.27.18,0.42,0.57,0.42a3.716,3.716,0,0,0,1.5-.39,0.741,0.741,0,0,0,.6-0.87v-12.24a4.608,4.608,0,0,1,1.2,1.77,12.181,12.181,0,0,0,.66,1.62,1.219,1.219,0,0,0,1.05.6,1.336,1.336,0,0,0,1.35-1.5c0-1.65-1.53-2.85-4.26-3.33v-3.93Zm15.36-.81h-0.96v-6.51l0.84-.57a0.67,0.67,0,0,0,.3-0.54,0.771,0.771,0,0,0-.72-0.69l-3.15-.18v8.49h-2.25c-0.93,0-1.8-.03-4.02-0.09l0.51,0.99c1.8-.06,2.55-0.09,3.51-0.09h1.74a41.756,41.756,0,0,1-9.57,14.22,0.805,0.805,0,0,0-.33.45,0.225,0.225,0,0,0,.21.21,12.665,12.665,0,0,0,3.18-2.07,33.942,33.942,0,0,0,7.02-7.74v8.76c0,0.9-.06.96-0.48,1.08a27.782,27.782,0,0,1-3.33.06c-0.66,0-.75.03-0.75,0.24,0,0.18,0,.18,1.26.57,0.51,0.15,1.05.33,1.53,0.48a3.7,3.7,0,0,1,.51.18c0.24,0.12.3,0.27,0.36,0.9,0.03,0.66.21,0.96,0.57,0.96a5.27,5.27,0,0,0,1.89-.66,1.646,1.646,0,0,0,1.17-1.86v-15.78h5.07a0.419,0.419,0,0,0,.3-0.45,0.638,0.638,0,0,0-.21-0.45l-2.34-2.07Z" transform="translate(-1132.56 -3930.72)"/>
</svg>
