<svg xmlns="http://www.w3.org/2000/svg" width="275.82" height="33.56" viewBox="0 0 137.91 16.78">
  <defs>
    <style>
      .cls-1 {
        fill: #a38737;
        fill-rule: evenodd;
      }
    </style>
  </defs>
  <path id="素材のこだわり" class="cls-1" d="M1154.13,3857.79c2.29-.08,2.65-0.09,3.15-0.09h2.89a11.126,11.126,0,0,1-.74,1.45,5.563,5.563,0,0,0-2.54-.68c-0.2,0-.29.05-0.29,0.16a0.2,0.2,0,0,0,.14.18,3.609,3.609,0,0,1,1.64,1.41,6.987,6.987,0,0,0,.54.75,1,1,0,0,0,.74.33,0.714,0.714,0,0,0,.76-0.76,1.319,1.319,0,0,0-.47-0.97c0.45-.33.59-0.42,0.67-0.49,0.18-.12.36-0.27,0.52-0.39a0.915,0.915,0,0,0,.18-0.15l0.52-.11a0.3,0.3,0,0,0,.32-0.27,0.36,0.36,0,0,0-.16-0.28l-0.25-.18h8.32a0.182,0.182,0,0,0,.18-0.22,0.492,0.492,0,0,0-.25-0.38l-1.41-1.17-1.17,1.28h-4.68v-1.6h5.35a0.232,0.232,0,0,0,.23-0.25,0.453,0.453,0,0,0-.23-0.36l-1.26-.98-0.97,1.1h-3.12v-1.48h6.61a0.234,0.234,0,0,0,.29-0.21,0.493,0.493,0,0,0-.29-0.38l-1.44-1.06-1.01,1.17h-4.16v-1.62l0.41-.22a0.507,0.507,0,0,0,.29-0.41,0.455,0.455,0,0,0-.52-0.36l-1.89-.11v2.72h-3.15c-0.22,0-.85-0.02-1.78-0.06-0.26-.01-0.98-0.03-1.77-0.05l0.42,0.68c2.21-.09,2.28-0.09,3.13-0.09h3.15v1.48h-2.36c-0.23,0-.7-0.02-1.4-0.03-0.24-.02-0.94-0.04-1.71-0.06l0.34,0.65c1.53-.04,1.8-0.05,2.77-0.07h2.36v1.6h-3.75c-0.27,0-.9-0.02-1.81-0.05-0.24-.02-0.96-0.04-1.73-0.06Zm5.39,6.77c0.27-.04.39-0.13,0.39-0.29a0.536,0.536,0,0,0-.3-0.4l-1.43-.88a12.15,12.15,0,0,1-3.43,3.55c-0.4.25-.44,0.28-0.44,0.37a0.132,0.132,0,0,0,.15.13,7.055,7.055,0,0,0,1.47-.52,14.851,14.851,0,0,0,3.12-1.89Zm1.67,2.28c0,0.16.11,0.24,0.36,0.24a5.37,5.37,0,0,0,.81-0.13c0.38-.07.54-0.2,0.54-0.4v-4.3c1.08-.11,3.19-0.41,3.77-0.52a7.457,7.457,0,0,1,.77.99c0.49,0.77.68,0.95,1.04,0.95a0.893,0.893,0,0,0,.89-0.86c0-.83-0.78-1.57-2.22-2.11a8.269,8.269,0,0,0-2.14-.56,0.156,0.156,0,0,0-.18.13,0.226,0.226,0,0,0,.16.2,9.28,9.28,0,0,1,1.21.79c-1.86.11-3.32,0.18-4.07,0.2,0.77-.47,1.4-0.92,3.02-2.11h0.38c0.38,0,.54-0.09.54-0.29a0.493,0.493,0,0,0-.29-0.37l-1.4-.99a24.082,24.082,0,0,1-3.03,3.8h-0.55l-1.84.03c-0.61.02-1.03,0.02-1.17,0.02l-2.5-.05h-0.72l0.64,1.56c0.15,0.38.24,0.47,0.45,0.47a0.569,0.569,0,0,0,.47-0.32l0.22-.26,0.48-.03,1.68-.18,2.05-.2a5.2,5.2,0,0,1,.63-0.07v4.37Zm2.7-3.69a0.17,0.17,0,0,0-.2.15,0.212,0.212,0,0,0,.15.19,7.753,7.753,0,0,1,2.9,2.45,1.669,1.669,0,0,0,1.17.88,0.8,0.8,0,0,0,.79-0.84,2.831,2.831,0,0,0-1.76-2A12.084,12.084,0,0,0,1163.89,3863.15Zm15.68-7.27h2.81a0.3,0.3,0,0,0,.29-0.25,0.352,0.352,0,0,0-.13-0.27l-1.35-1.18-1.03,1.21h-0.59v-3.94l0.36-.24a0.475,0.475,0,0,0,.22-0.37,0.426,0.426,0,0,0-.47-0.36l-1.71-.08v4.99h-1.12c-0.77,0-1.22-.02-2.41-0.07l0.38,0.61c0.93-.03,1.27-0.05,2.03-0.05h1.08a17.534,17.534,0,0,1-3.31,7.54,0.657,0.657,0,0,0-.2.31,0.171,0.171,0,0,0,.13.14,2.94,2.94,0,0,0,.9-0.68,15.883,15.883,0,0,0,2.52-2.94v6.34c0,0.16.1,0.25,0.34,0.25a2.3,2.3,0,0,0,.9-0.23,0.445,0.445,0,0,0,.36-0.52v-7.35a2.72,2.72,0,0,1,.72,1.06,5.584,5.584,0,0,0,.4.97,0.726,0.726,0,0,0,.63.37,0.812,0.812,0,0,0,.81-0.91c0-.99-0.92-1.71-2.56-1.99v-2.36Zm9.22-.49h-0.58v-3.91l0.51-.34a0.423,0.423,0,0,0,.18-0.32,0.471,0.471,0,0,0-.44-0.42l-1.89-.1v5.09h-1.35c-0.56,0-1.08-.02-2.41-0.05l0.31,0.59c1.08-.03,1.53-0.05,2.1-0.05h1.05a25.121,25.121,0,0,1-5.75,8.53,0.464,0.464,0,0,0-.19.27,0.13,0.13,0,0,0,.12.13,7.587,7.587,0,0,0,1.91-1.24,20.526,20.526,0,0,0,4.21-4.65v5.26c0,0.54-.03.57-0.28,0.65-0.18.03-.49,0.03-2,0.03-0.4,0-.45.02-0.45,0.15,0,0.1,0,.1.75,0.34,0.31,0.09.63,0.2,0.92,0.29a2.191,2.191,0,0,1,.31.1,0.537,0.537,0,0,1,.21.54c0.02,0.4.13,0.58,0.35,0.58a3.141,3.141,0,0,0,1.13-.4,0.98,0.98,0,0,0,.7-1.11v-9.47h3.04a0.254,0.254,0,0,0,.18-0.27,0.378,0.378,0,0,0-.12-0.27l-1.41-1.25Zm15.35-1.96a3.534,3.534,0,0,1,.38-0.02,4.3,4.3,0,0,1,1.85.43c1.57,0.8,2.38,2.43,2.38,4.85a6.155,6.155,0,0,1-2.31,5.13,9.52,9.52,0,0,1-3.22,1.67c-0.29.09-.34,0.11-0.34,0.2,0,0.07.07,0.11,0.18,0.11a8.378,8.378,0,0,0,1.15-.22,11.08,11.08,0,0,0,3.33-1.22,6.64,6.64,0,0,0,3.33-5.76,5.409,5.409,0,0,0-1.42-3.8,6.908,6.908,0,0,0-5.06-1.98c-4.21,0-7.83,3.4-7.83,7.36a4.693,4.693,0,0,0,.88,2.9,2.2,2.2,0,0,0,1.51.99c0.99,0,2.56-1.28,3.62-2.93a11.6,11.6,0,0,0,1.8-5.86A6.885,6.885,0,0,0,1204.14,3853.43Zm-0.88.07a0.789,0.789,0,0,1,.03.13,3.907,3.907,0,0,1,.11,1.01,10.585,10.585,0,0,1-1.83,5.38c-0.76,1.19-1.79,2.12-2.35,2.12s-1.04-.93-1.04-2a7.04,7.04,0,0,1,2.13-5.02A6.752,6.752,0,0,1,1203.26,3853.5Zm17.84-1.3a3,3,0,0,0,2.46,2.78,0.144,0.144,0,0,1,.15.14,0.3,0.3,0,0,1-.15.22,7.094,7.094,0,0,0-1.1,1.19,0.09,0.09,0,0,0,.09.09,2.3,2.3,0,0,0,.4-0.18,11.889,11.889,0,0,1,4.43-1.12c0.67-.02.95-0.18,0.95-0.54a2.451,2.451,0,0,0-.27-0.92,1.069,1.069,0,0,0-.9-0.65,3.958,3.958,0,0,0-.81.16,5.94,5.94,0,0,1-1.62.24,4.623,4.623,0,0,1-3.47-1.44,0.14,0.14,0,0,0-.09-0.09,0.075,0.075,0,0,0-.07.09v0.03Zm-0.56,6.77c-0.38,0-.87,1.23-0.87,2.2,0,2.67,2.15,4.12,6.02,4.12a13.844,13.844,0,0,0,3.71-.45,1.056,1.056,0,0,0,.93-1.06,1.118,1.118,0,0,0-1.24-.99,2.437,2.437,0,0,0-.79.18,12.824,12.824,0,0,1-3.42.52,6.264,6.264,0,0,1-3.12-.7,2.942,2.942,0,0,1-1.3-2.59,5.379,5.379,0,0,1,.13-1.08,0.143,0.143,0,0,0,.02-0.07A0.086,0.086,0,0,0,1220.54,3858.97Zm30.15-8.21a1.129,1.129,0,0,0-.85.17,0.207,0.207,0,0,0,.2.16,2.652,2.652,0,0,1,1.46,1.17c0.38,0.63.4,0.63,0.76,0.63a0.688,0.688,0,0,0,.7-0.72C1252.96,3851.47,1251.82,3850.76,1250.69,3850.76Zm-2.11,1.23c-0.47,0-.63.03-0.63,0.16,0,0.07.04,0.11,0.2,0.16a3.266,3.266,0,0,1,1.55,1.53,0.518,0.518,0,0,0,.54.42,0.7,0.7,0,0,0,.7-0.74C1250.94,3852.73,1249.81,3851.99,1248.58,3851.99Zm0.65,11.77c-2.05,0-3.11-.7-3.11-2.08a6.139,6.139,0,0,1,.14-1.18,0.164,0.164,0,0,0,.02-0.09,0.1,0.1,0,0,0-.09-0.1c-0.29,0-.74,1.2-0.74,1.98a2.921,2.921,0,0,0,1.96,2.86,9.06,9.06,0,0,0,3.17.47c1.53,0,2.04-.25,2.04-1.03a1.072,1.072,0,0,0-1.23-1.06Zm-4.86-10.85,0.04-.18,0.03-.22a0.894,0.894,0,0,0,.07-0.16,0.95,0.95,0,0,0,.11-0.34c0-.49-1.08-1.17-1.85-1.17a1.4,1.4,0,0,0-1.1.52,0.106,0.106,0,0,0,.11.07,0.1,0.1,0,0,0,.07-0.02h0.04a1.443,1.443,0,0,1,.45.16,1.3,1.3,0,0,1,.52,1.25,12.04,12.04,0,0,1-.31,2.55,8.829,8.829,0,0,1-2.5.35,1.809,1.809,0,0,1-1.59-.65c-0.1-.2-0.1-0.22-0.18-0.22a0.127,0.127,0,0,0-.09.15,2.9,2.9,0,0,0,.54,1.49,1.678,1.678,0,0,0,1.39.67,9.112,9.112,0,0,0,2.14-.29,25.449,25.449,0,0,1-3.11,7.52,1.347,1.347,0,0,0-.33.72,1.264,1.264,0,0,0,1.19,1.07,1.189,1.189,0,0,0,.81-0.36,3.769,3.769,0,0,0,.7-1.57c0.76-2.34,1.46-4.86,2.17-7.76a14.445,14.445,0,0,0,2.43-1.22,1.139,1.139,0,0,0,.61-0.98,0.387,0.387,0,0,0-.42-0.43,3.266,3.266,0,0,1-1.96-.9Zm-0.14.46a2.707,2.707,0,0,1,.93.94,2.482,2.482,0,0,1-1.29.7l0.21-1.02Zm4.35,3.37a1.37,1.37,0,0,1,1.23.43c0,0.09,0,.09-0.61.49-0.49.34-.74,0.5-0.76,0.52a0.217,0.217,0,0,0-.15.16,0.119,0.119,0,0,0,.11.09,0.672,0.672,0,0,0,.22-0.07,4.677,4.677,0,0,1,1.76-.32,5.34,5.34,0,0,1,1.12.12,2.9,2.9,0,0,0,.32.08,0.5,0.5,0,0,0,.51-0.6c0-1.08-1.14-1.89-2.68-1.89a4.236,4.236,0,0,0-2.18.54,1.7,1.7,0,0,0-.67.74,0.088,0.088,0,0,0,.09.07,0.048,0.048,0,0,0,.05-0.02A3.548,3.548,0,0,1,1248.58,3856.74Zm12.91,3.89a11.773,11.773,0,0,1-1.48,1.66,1.326,1.326,0,0,0-.63,1.04,1.061,1.061,0,0,0,.88,1.24c0.31,0,.43-0.1.67-0.61,0.23-.47.52-0.97,1.17-2.05a11.459,11.459,0,0,1,.68,3.44,1.792,1.792,0,0,0,.08.81,0.4,0.4,0,0,0,.32.18,1.528,1.528,0,0,0,1.42-1.33c0-.11-0.02-0.24-0.03-0.35a26.521,26.521,0,0,1-.44-5.25,1.362,1.362,0,0,1,.58-1.14,6.666,6.666,0,0,1,4.18-2c1.71,0,2.66,1.1,2.66,3.1a5.577,5.577,0,0,1-1.67,4.18,9.294,9.294,0,0,1-2.63,1.62c-0.2.07-.25,0.12-0.25,0.18a0.136,0.136,0,0,0,.14.14,5.729,5.729,0,0,0,.74-0.14,9.986,9.986,0,0,0,3.6-1.73,5.448,5.448,0,0,0,2.09-4.23,3.92,3.92,0,0,0-4.05-4.03c-1.61,0-3.23.77-5.26,2.5a1.349,1.349,0,0,1,.31-0.74c0.1-.14.48-0.61,0.63-0.79a0.943,0.943,0,0,0,.32-0.54,1.178,1.178,0,0,0-.76-0.83,1.073,1.073,0,0,1-.32.05,8.292,8.292,0,0,1,.38-2.09,1.344,1.344,0,0,0,.09-0.39,2.305,2.305,0,0,0-2.02-1.66,1.487,1.487,0,0,0-1.04.27,0.113,0.113,0,0,0,.07.11,0.821,0.821,0,0,1,.63.29c0.45,0.52.59,1.17,0.59,2.72,0,0.39,0,.7-0.01,1.19-1.84,1.02-2.69,1.81-2.69,2.53a2.842,2.842,0,0,0,.45,1.35A9.341,9.341,0,0,1,1261.49,3860.63Zm0.48-.65a6.446,6.446,0,0,0-.29-0.79,2.428,2.428,0,0,1-.3-1.04c0-.49.36-0.78,1.82-1.41,0,0.74,0,.74.02,1.24a2.007,2.007,0,0,1-.26.72Zm0.63,1.7-0.14-.44a13.1,13.1,0,0,1,.86-1.49c0.09,1.76.13,2.74,0.13,2.9a0.506,0.506,0,0,1-.27.56c-0.14,0-.2-0.09-0.27-0.49a2.787,2.787,0,0,0-.14-0.5Zm25.71-6.99c0.9,0,1.46,1.57,1.46,4.09a7.924,7.924,0,0,1-1.73,5.47,10.389,10.389,0,0,1-3.08,2.27c-0.27.12-.29,0.12-0.29,0.21a0.123,0.123,0,0,0,.13.11,0.873,0.873,0,0,0,.23-0.05,2.727,2.727,0,0,1,.4-0.11,11.333,11.333,0,0,0,3-1.44,7.538,7.538,0,0,0,3.23-6.52c0-2.97-1.14-4.95-2.85-4.95-1.22,0-2.32,1.08-3.38,3.35a0.547,0.547,0,0,1-.38.4,0.665,0.665,0,0,1-.22-0.65,7.71,7.71,0,0,1,.99-3.14,3.8,3.8,0,0,0,.65-1.63,2.316,2.316,0,0,0-2.21-1.75,1.107,1.107,0,0,0-.89.27c0,0.05.04,0.09,0.15,0.11a1.094,1.094,0,0,1,.92,1.35,11.125,11.125,0,0,1-.4,2.54,15.105,15.105,0,0,0-.48,3.49c0,2.05.68,3.69,1.53,3.69a0.954,0.954,0,0,0,.81-0.9,1.36,1.36,0,0,0-.08-0.41,5.142,5.142,0,0,1-.18-1.16C1285.64,3857.17,1287.07,3854.69,1288.31,3854.69Z" transform="translate(-1153.75 -3850.28)"/>
</svg>
