<svg xmlns="http://www.w3.org/2000/svg" width="908.24" height="733.06" viewBox="0 0 454.12 366.53">
  <defs>
    <style>
      .cls-1 {
        fill: #fff;
        fill-rule: evenodd;
      }
    </style>
  </defs>
  <path id="_1日3組限定_もてぎ最上級の_食材_器_空間とともに_里山ならではの_滋味_をご堪能いただける_里山懐石_で_おもてなし" data-name="1日3組限定、 もてぎ最上級の 食材・器・空間とともに 里山ならではの ”滋味”をご堪能いただける 「里山懐石」で おもてなし" class="cls-1" d="M1955.07,1278.97h8.85v-0.67h-0.26c-2.09-.02-2.69-0.45-2.71-1.94V1260.9h-0.55c-1.2,1.01-2.93,1.56-5.5,1.73v0.55h1.3c1.99,0.07,2.18.31,2.16,2.45v10.49c0.02,1.61-.6,2.06-2.91,2.13h-0.38v0.72Zm-0.5,28.01h9.5v1.44a0.293,0.293,0,0,0,.36.31,5.4,5.4,0,0,0,1.27-.21c0.65-.22.79-0.34,0.79-0.72v-14.84l0.41-.16a0.584,0.584,0,0,0,.36-0.51,0.886,0.886,0,0,0-.27-0.57l-2.25-2.4-0.98,1.51h-9.03l-2.54-1.23v19.23c0,0.38.12,0.48,0.55,0.48,0.94,0,1.83-.36,1.83-0.74v-1.59Zm0-.65v-7.32h9.5v7.32h-9.5Zm0-7.97v-6.88h9.5v6.88h-9.5Zm5.84,29a7.656,7.656,0,0,0,2.37-.92,3.969,3.969,0,0,0,1.83-3.36c0-2.54-2.33-4.56-5.28-4.56-2.81,0-5.18,1.9-5.18,4.16a1.775,1.775,0,0,0,1.75,1.89,1.427,1.427,0,0,0,1.51-1.41,1.337,1.337,0,0,0-1.37-1.35,1.221,1.221,0,0,0-.96.46,2.443,2.443,0,0,1,.39-1.08,3.843,3.843,0,0,1,3.04-1.63,3.45,3.45,0,0,1,3.36,3.74c0,2.11-1.29,3.82-2.9,3.82a3.073,3.073,0,0,1-1.08-.2,1.7,1.7,0,0,0-.39-0.07,0.584,0.584,0,0,0-.55.55,0.526,0.526,0,0,0,.51.51,1.977,1.977,0,0,0,.4-0.07,5.754,5.754,0,0,1,1.25-.24,2.682,2.682,0,0,1,1.59.6,4.11,4.11,0,0,1,1.53,3.4c0,2.6-1.63,4.45-3.96,4.45a3.867,3.867,0,0,1-3.76-2.48,1.969,1.969,0,0,0,.98.29,1.362,1.362,0,0,0,1.39-1.39,1.627,1.627,0,0,0-1.65-1.59,1.81,1.81,0,0,0-1.71,2c0,2.16,2.47,4.01,5.38,4.01,3.31,0,6.09-2.31,6.09-5.02a4.392,4.392,0,0,0-1.94-3.55A5.266,5.266,0,0,0,1960.41,1327.36Zm-8.24,29.44v10.25c0,0.17.09,0.24,0.36,0.24a5.24,5.24,0,0,0,1.12-.19c0.32-.12.41-0.19,0.41-0.45V1356.4c0.22-.05.87-0.2,1.61-0.36a3.729,3.729,0,0,1,.24.91c0.19,0.89.38,1.13,0.91,1.13a1.015,1.015,0,0,0,1.01-1.18,3.151,3.151,0,0,0-1.7-2.54,4.282,4.282,0,0,0-1.49-.68,0.116,0.116,0,0,0-.12.12,0.355,0.355,0,0,0,.09.2,4.485,4.485,0,0,1,.82,1.36c-0.55.05-2.35,0.17-3.36,0.22,0.58-.53,1.94-1.99,4.1-4.44l0.51-.1c0.38-.04.57-0.19,0.57-0.38a0.814,0.814,0,0,0-.48-0.58l-1.56-1.17a35.333,35.333,0,0,1-3.74,6.38l-0.19.29c-0.53.02-.77,0.02-1.01,0.02-0.31,0-.31,0-1.8-0.02l-0.45-.02,0.74,1.87a0.7,0.7,0,0,0,.55.57c0.19,0,.24-0.04.55-0.48l0.2-.28,0.36-.08,1.27-.26Zm-2.62,1.54a25.459,25.459,0,0,1-.96,6.94,3.334,3.334,0,0,0-.21.84,0.153,0.153,0,0,0,.16.19c0.48,0,1.97-3.19,2.4-5.19l0.29-1.22,0.05-.17,0.19-.17a0.652,0.652,0,0,0,.34-0.45,0.514,0.514,0,0,0-.48-0.43Zm5.21-11.06a0.512,0.512,0,0,0,.5-0.44,0.589,0.589,0,0,0-.43-0.48l-1.85-1.05-0.05.17-0.12.33c-0.28.82-.5,1.37-0.6,1.68a13.366,13.366,0,0,1-1.08,2.38,4.185,4.185,0,0,0-1.46-.65,8.677,8.677,0,0,0-.93-0.22c-0.1,0-.12.03-0.12,0.08a0.206,0.206,0,0,0,.07.14,4.631,4.631,0,0,1,1.58,2.38c0.36,1.27.58,1.53,1.18,1.53a1.035,1.035,0,0,0,1-1.1,2.536,2.536,0,0,0-.79-1.73c0.15-.17.6-0.65,1.39-1.49,0.58-.62.84-0.93,1.23-1.39Zm0.17,11.4a0.126,0.126,0,0,0-.15.14,0.9,0.9,0,0,0,.05.19,8.783,8.783,0,0,1,.82,2.64,5.567,5.567,0,0,0,.31,1.71,0.652,0.652,0,0,0,.69.45,1.088,1.088,0,0,0,1.01-1.25,3.935,3.935,0,0,0-1.63-3.09A3.392,3.392,0,0,0,1954.93,1358.68Zm0.45,7.89c2.04-.07,2.83-0.09,3.74-0.09h11.43a0.274,0.274,0,0,0,.31-0.29,0.939,0.939,0,0,0-.31-0.6l-1.54-1.82-1.37,2.06h-0.29v-15.82l0.36-.19a0.637,0.637,0,0,0,.44-0.55,0.976,0.976,0,0,0-.44-0.72l-1.77-1.8-0.86,1.34h-3.82l-2.33-1.2v18.94c-1.72-.05-2.01-0.05-3.96-0.12Zm5.59-.74v-5.62h4.35v5.62h-4.35Zm0-6.27v-5.13h4.35v5.13h-4.35Zm0-5.78v-5.04h4.35v5.04h-4.35Zm-9.84,22.9h3.1l-2.06,5.44c0.33,0.48.38,0.56,0.62,0.87,0.79,1.05.79,1.05,0.94,1.29a5,5,0,0,1,.76,2.62c0,1.56-.38,2.06-1.53,2.06-0.12,0-.31,0-0.58-0.02l-0.81-.02c-0.17,0-.22.04-0.22,0.19,0,0.09,0,.09.91,0.55,0.94,0.48.94,0.48,0.91,1.01s0.12,0.74.58,0.74c1.42,0,2.78-1.87,2.78-3.81a5.271,5.271,0,0,0-.88-2.81,8.9,8.9,0,0,0-2.4-2.33c-0.17-.14-0.34-0.26-0.46-0.38l3.17-4.37,0.41-.05a0.472,0.472,0,0,0,.5-0.48,0.721,0.721,0,0,0-.19-0.5l-1.61-1.76-0.74,1.11h-2.79l-2.42-1.11v21.03c0,0.22.07,0.31,0.26,0.31a9.333,9.333,0,0,0,.99-0.14c0.62-.12.76-0.24,0.76-0.65v-18.79Zm5.04,18.88a0.51,0.51,0,0,0,.46.32,0.575,0.575,0,0,0,.53-0.34l0.29-.55c2.59-1.01,4.48-1.8,5.75-2.4,0.82-.39.99-0.51,0.99-0.67a0.206,0.206,0,0,0-.22-0.2l-0.24.03c-0.21.05-.67,0.14-1.01,0.21-0.38.08-.84,0.17-1.36,0.29-0.39.07-.48,0.1-1.18,0.24l-0.53.12v-7.85h1.99c0.63,4.59,2.69,7.88,7.01,11.14a4.87,4.87,0,0,1,2.38-1.94,16.533,16.533,0,0,1-6.36-4.42l0.6-.36,1.51-.89,1.56-.91,0.57-.31,0.72-.07c0.41-.05.58-0.15,0.58-0.39a0.719,0.719,0,0,0-.24-0.45l-1.68-1.56a21.114,21.114,0,0,1-3.93,4.48,13.538,13.538,0,0,1-2.14-4.32h2.93v0.82c0,0.34.09,0.43,0.45,0.43,0.91,0,1.56-.31,1.56-0.79v-7.15l0.24-.12a0.66,0.66,0,0,0,.48-0.58,0.783,0.783,0,0,0-.26-0.53l-1.92-1.89-0.82,1.25h-5.06l-2.25-1.06v17.78c-1.4.27-1.61,0.29-2.76,0.46Zm3.48-11.44v-3.32h5.5v3.32h-5.5Zm0-3.96v-3.32h5.5v3.32h-5.5Zm0.65,36.69h7.61a0.332,0.332,0,0,0,.21-0.38,0.415,0.415,0,0,0-.14-0.34l-1.99-1.68-1.71,1.75h-3.98v-4.77h6.6a0.312,0.312,0,0,0,.24-0.34,0.488,0.488,0,0,0-.19-0.38l-2.02-1.66-1.49,1.73h-7.72c-1.27,0-2.04-.02-4.15-0.12l0.57,0.86c1.75-.09,2.07-0.09,3.58-0.09h2.42v9.84a8.558,8.558,0,0,1-3.98-3.58,17.64,17.64,0,0,0,.67-2.52l0.74-.33a0.455,0.455,0,0,0,.27-0.41,0.445,0.445,0,0,0-.34-0.41l-2.71-.72c-0.36,4.78-1.44,7.73-3.79,10.54a1.29,1.29,0,0,0-.5.72,0.133,0.133,0,0,0,.14.12,1.567,1.567,0,0,0,.62-0.34,12.883,12.883,0,0,0,2.95-2.9,11.171,11.171,0,0,0,1.68-3.05,10.356,10.356,0,0,0,4.25,4.65c1.51,0.8,3.72,1.13,7.25,1.13,1.56,0,2.54-.02,4.05-0.12a5.6,5.6,0,0,1,1.47-2.28,50.52,50.52,0,0,1-6.41.39,29.267,29.267,0,0,1-4.2-.27v-5.04Zm-8.06-10.17h14.49a11.908,11.908,0,0,1-.79,2.16,2.954,2.954,0,0,0-.24.67,0.059,0.059,0,0,0,.07.07,1.387,1.387,0,0,0,.6-0.34c0.22-.14.46-0.31,0.7-0.48,0.21-.14.31-0.19,1.17-0.79l1.35,0.05,0.14,0.02a0.625,0.625,0,0,0,.43-0.52,0.942,0.942,0,0,0-.29-0.53l-2.32-2.26-0.92,1.3h-6.33v-1.75l0.6-.29a0.6,0.6,0,0,0,.34-0.51,0.45,0.45,0,0,0-.41-0.43l-2.71-.21v3.19h-6c-0.24-1.03-.36-1.32-0.55-1.32-0.15,0-.2.12-0.24,0.5a4.01,4.01,0,0,1-1.49,2.71c-0.89.7-1.01,0.89-1.01,1.42a1.176,1.176,0,0,0,1.27,1.18c1.27,0,2.16-1.25,2.16-2.98Zm11.78,25.27c-0.26,0-.41.05-0.41,0.14a0.161,0.161,0,0,0,.17.12c1.63,0.7,2.4,1.68,3.14,4.11,0.29,0.91.58,1.2,1.25,1.2a1.423,1.423,0,0,0,1.49-1.47C1969.66,1434.2,1966.54,1431.95,1964.02,1431.95Zm-79.1-164.33a16.056,16.056,0,0,0-2.04,1.15,3.1,3.1,0,0,0-1.63,2.4c0,1.08,1.03,2.07,2.73,2.59a11.027,11.027,0,0,0-.14,1.71c0,3.17,1.8,4.97,4.94,4.97a6.4,6.4,0,0,0,3.58-1.08,3.792,3.792,0,0,0,1.65-3.29c0-2.04-1.17-4.01-3.36-5.67a9.654,9.654,0,0,0-1.63-.98,0.17,0.17,0,0,0-.17.12,0.389,0.389,0,0,0,.2.26,8.382,8.382,0,0,1,2.63,5.86,2.967,2.967,0,0,1-3.14,3.22c-2.18,0-3.53-1.44-3.53-3.77a5.8,5.8,0,0,1,.1-1.13c0.67,0.07,1.44.12,2.04,0.12,1.25,0,1.8-.22,1.8-0.74a1.711,1.711,0,0,0-1.25-1.23,5.406,5.406,0,0,1-1.32.22c-0.21,0-.21,0-1.2-0.07a29.374,29.374,0,0,1,1.01-4.11,5.075,5.075,0,0,1,1.68-.31c1.18-.1,1.25-0.14,1.25-0.5a1.544,1.544,0,0,0-.99-1.4,1.049,1.049,0,0,1-.38.05,4.2,4.2,0,0,1-.67-0.07,19.748,19.748,0,0,1,1.01-2.33,2.739,2.739,0,0,0,.62-1.51c0-1.15-1.82-2.74-3.12-2.74a1.161,1.161,0,0,0-.89.34c0,0.05.03,0.07,0.27,0.17a1.919,1.919,0,0,1,.96,1.85,22.8,22.8,0,0,1-.56,3.88c-2.01-.4-3.19-0.98-3.5-1.7-0.14-.38-0.14-0.38-0.21-0.38a0.585,0.585,0,0,0-.2.6,2.934,2.934,0,0,0,1.42,2.3,6.114,6.114,0,0,0,2.18.7Zm-0.72,4.44c-1.13-.29-1.7-0.72-1.7-1.32,0-.74.64-1.34,2.37-2.26C1884.61,1269.73,1884.56,1270.09,1884.2,1272.06Zm9.93,17.78c-0.53.29-.62,0.32-3.67,1.2-3.05.8-5.35,1.42-8.2,2.28a8.273,8.273,0,0,1-2.48.58,2.025,2.025,0,0,1-1.77-.96c-0.12-.24-0.12-0.26-0.22-0.26a0.155,0.155,0,0,0-.12.19,3.844,3.844,0,0,0,.29,1.58,3.447,3.447,0,0,0,2.42,1.8,0.926,0.926,0,0,0,.6-0.24,20.393,20.393,0,0,1,3.58-1.97,18.242,18.242,0,0,1,4.22-1.39,0.118,0.118,0,0,1,.12.07,0.934,0.934,0,0,1-.24.29,13.184,13.184,0,0,0-2.66,4.2,15.152,15.152,0,0,0-.99,4.99c0,2.74,1.08,4.52,3.29,5.36a12.919,12.919,0,0,0,4.37.81c1.29,0,1.97-.4,1.97-1.17a1.848,1.848,0,0,0-1.49-1.68,3.367,3.367,0,0,0-.48.05,14.334,14.334,0,0,1-1.54.12c-2.71,0-4.03-1.4-4.03-4.3a14.968,14.968,0,0,1,.96-5.38,5.5,5.5,0,0,1,2.69-3.09,6.745,6.745,0,0,1,3.19-.53,6.331,6.331,0,0,1,1.03.07,6.955,6.955,0,0,0,1.23.17,0.751,0.751,0,0,0,.79-0.7,1.984,1.984,0,0,0-1.08-1.39A3.11,3.11,0,0,0,1894.13,1289.84Zm0.94,26.84a1.149,1.149,0,0,0-1.03.28,0.264,0.264,0,0,0,.26.2,3.774,3.774,0,0,1,2.11,1.72,0.756,0.756,0,0,0,.75.58,1,1,0,0,0,1.05-.91C1898.21,1317.59,1896.7,1316.68,1895.07,1316.68Zm-2.62,1.51a1.083,1.083,0,0,0-1.03.26,0.264,0.264,0,0,0,.22.22,3.639,3.639,0,0,1,2.23,1.92,0.6,0.6,0,0,0,.62.33,0.98,0.98,0,0,0,1.03-.88C1895.52,1319.08,1894.04,1318.19,1892.45,1318.19Zm-5.25.31a0.3,0.3,0,0,0,.02-0.1c0-.6-1.49-1.27-2.81-1.27a2.438,2.438,0,0,0-1.72,1.06,0.14,0.14,0,0,0,.16.09c1.28-.04,2.12.7,3.94,3.58a8.947,8.947,0,0,1-3.14.62,2.039,2.039,0,0,1-1.8-.6,0.257,0.257,0,0,0-.22-0.16,0.167,0.167,0,0,0-.19.16,2.33,2.33,0,0,0,.6,1.06,3.028,3.028,0,0,0,2.25.96,12.293,12.293,0,0,0,3.41-.6,18.093,18.093,0,0,1,1.32,2.33,16.081,16.081,0,0,1-5.49.96c-1.71,0-2.79-.43-3.1-1.25-0.12-.26-0.12-0.29-0.19-0.29-0.1,0-.17.15-0.17,0.36a2.708,2.708,0,0,0,1.15,2.07,5.168,5.168,0,0,0,2.79.69,22.285,22.285,0,0,0,5.85-.91,14.027,14.027,0,0,1,1.66,3.38,0.252,0.252,0,0,1-.29.24,5.079,5.079,0,0,1-1.3-.26,10.421,10.421,0,0,0-3.14-.48c-3.14,0-5.25,1.49-5.25,3.72,0,2.43,2.75,4.11,6.74,4.11,1.63,0,2.4-.48,2.4-1.49a1.024,1.024,0,0,0-1.15-1.06,2.881,2.881,0,0,0-.46.03c-0.43.02-1.66,0.07-1.97,0.07-2.23,0-3.62-.87-3.62-2.28s1.22-2.31,3.24-2.31a8.064,8.064,0,0,1,5.68,2.83,1.131,1.131,0,0,0,.29.03,2.018,2.018,0,0,0,1.71-2.26,3.16,3.16,0,0,0-.92-2.09c-1.2-1.41-1.75-2.08-2.23-2.76a18.225,18.225,0,0,0,3.34-1.63,1.812,1.812,0,0,0,1.13-1.34,0.62,0.62,0,0,0-.53-0.55,8.706,8.706,0,0,0-1.9-.34c-0.19.67-1.03,1.27-3.14,2.21a18.779,18.779,0,0,1-1.25-2.11c1.87-.77,2.66-1.3,2.66-1.78a1.675,1.675,0,0,0-1.55-1.06,1.527,1.527,0,0,0-.96.63,6.052,6.052,0,0,1-.92.67,6.938,6.938,0,0,1-.93-2.76v-0.12Zm-10.51,36.34c1.2-.05,1.37-0.08,2.42-0.08v8.4c-1.01.1-1.53,0.12-2.71,0.15l1.3,2.4a0.432,0.432,0,0,0,.4.26,0.544,0.544,0,0,0,.46-0.26l0.41-.75c2.09-.6,3.33-0.98,5.32-1.63v3.87c0,0.31.1,0.41,0.36,0.41a4.4,4.4,0,0,0,1.25-.24,0.551,0.551,0,0,0,.48-0.53v-9.05h2.47a13.36,13.36,0,0,0,2.23,5.04,17.761,17.761,0,0,1-3.86,3.62c-0.48.36-.48,0.36-0.45,0.46a0.146,0.146,0,0,0,.14.09,0.24,0.24,0,0,0,.1-0.02,0.341,0.341,0,0,1,.16-0.07A17.871,17.871,0,0,0,1892,1364a14.27,14.27,0,0,0,4.58,3.2,4.478,4.478,0,0,1,2.28-2,14.351,14.351,0,0,1-5.76-2.4,23.184,23.184,0,0,0,2.74-3.86l0.6-.14a0.547,0.547,0,0,0,.43-0.51,0.607,0.607,0,0,0-.22-0.45l-1.82-1.9-0.82,1.2h-7.63v-2.4h12.07a0.292,0.292,0,0,0,.26-0.31,0.5,0.5,0,0,0-.21-0.39l-1.99-1.7-1.66,1.75h-14.61c-1.2,0-2.11-.02-4.15-0.12Zm4.44,5.9h3.16v1.87c-1.72.22-2.15,0.27-3.16,0.36v-2.23Zm0-.65v-2.3h3.16v2.3h-3.16Zm0-2.95v-2.4h3.16v2.4h-3.16Zm1.63-4.99h9.43v0.77c0,0.28.12,0.38,0.45,0.38,0.82,0,1.66-.34,1.66-0.67v-4.25l0.48-.19a0.485,0.485,0,0,0,.31-0.39,0.5,0.5,0,0,0-.21-0.38l-2.14-2.02-0.89,1.2h-8.61l-2.59-1v7.46c0,0.36.14,0.48,0.53,0.48a3.769,3.769,0,0,0,1.1-.22c0.36-.12.48-0.24,0.48-0.45v-0.72Zm0-.65v-1.94h9.43v1.94h-9.43Zm0-2.59v-1.66h9.43v1.66h-9.43Zm11.32,8.88a22.632,22.632,0,0,1-2.25,4.03,11.866,11.866,0,0,1-2.4-4.03h4.65Zm2,34.27-1.78,1.9h-6.38v-9.51h8.25a0.355,0.355,0,0,0,.39-0.31,0.768,0.768,0,0,0-.32-0.53l-1.89-1.65-1.63,1.84h-4.8v-7.29l0.45-.27a0.756,0.756,0,0,0,.48-0.6,0.721,0.721,0,0,0-.74-0.52l-2.54-.36v19.2h-4.75c-0.05,0-1.25-.03-2.33-0.05-0.36-.02-1.37-0.05-2.4-0.1l0.57,0.92c1.25-.05,2.19-0.08,4.16-0.12h17.34a0.343,0.343,0,0,0,.39-0.27,0.782,0.782,0,0,0-.36-0.48Zm-16.54,25.49a0.548,0.548,0,0,0,.27-0.43,0.387,0.387,0,0,0-.39-0.41l-2.11-.46a21.092,21.092,0,0,1-1.13,6.91,1.96,1.96,0,0,0-.24.7,0.165,0.165,0,0,0,.17.14,2.419,2.419,0,0,0,1.03-1.24,15.755,15.755,0,0,0,2.16-5.04Zm0.48-2.95v9.98c0,0.36.12,0.48,0.41,0.48a6.191,6.191,0,0,0,1.3-.21,0.626,0.626,0,0,0,.38-0.73v-10.03l1.37-.33a3.225,3.225,0,0,1,.21.72c0.1,0.28.17,0.52,0.22,0.69a0.742,0.742,0,0,0,.74.53,1.043,1.043,0,0,0,1.06-1.13,3.108,3.108,0,0,0-1.7-2.52,4.531,4.531,0,0,0-1.66-.74,0.188,0.188,0,0,0-.19.14,0.253,0.253,0,0,0,.1.19,4.619,4.619,0,0,1,.95,1.47c-0.83.05-1,.05-2.13,0.07h-1.25c1.68-1.82,2.93-3.22,4.32-4.82l0.55-.05a0.453,0.453,0,0,0,.46-0.43,0.608,0.608,0,0,0-.22-0.44l-2.06-1.44a71.6,71.6,0,0,1-3.84,7.2c-1.58,0-1.8,0-3.12-.02l0.94,2.21a0.509,0.509,0,0,0,.43.38,0.638,0.638,0,0,0,.48-0.33l0.31-.44Zm1.76-9.51,0.67-.07a0.438,0.438,0,0,0,.45-0.46,0.471,0.471,0,0,0-.24-0.4l-2.13-1.47a27.045,27.045,0,0,1-1.73,4.32,5.718,5.718,0,0,0-2.06-.91,0.158,0.158,0,0,0-.17.14,0.892,0.892,0,0,0,.36.51,6.521,6.521,0,0,1,1.32,3.05,0.894,0.894,0,0,0,.86.91,1.182,1.182,0,0,0,1.18-1.18,2.993,2.993,0,0,0-.89-2.04c0.26-.24.53-0.5,0.77-0.74,0.38-.41.77-0.79,1.15-1.18Zm0.93,11.02a0.2,0.2,0,0,0-.17.17,0.561,0.561,0,0,0,.08.21,5.709,5.709,0,0,1,.81,2.71c0.07,1.2.07,1.2,0.24,1.44a0.913,0.913,0,0,0,.7.32,1.086,1.086,0,0,0,1.05-1.23,3.774,3.774,0,0,0-1.37-2.71A3.231,3.231,0,0,0,1882.71,1416.11Zm13.8-3.27,0.6-.16a0.644,0.644,0,0,0,.45-0.53,1.4,1.4,0,0,0-.14-0.51l-1.92-2.35-0.98,1.61h-1.83l0.89-4.25,0.5-.14a0.482,0.482,0,0,0,.41-0.48,0.609,0.609,0,0,0-.24-0.48l-2.06-2.14-0.87,1.56h-4.55c-0.84,0-1.54-.02-3.22-0.09l0.43,0.81c1.25-.05,1.47-0.05,2.83-0.07v1.13c0.05,2.81.05,2.81,0.05,3.05,0,7.39-.69,10.46-3.19,14.23a1.479,1.479,0,0,0-.38.67,0.161,0.161,0,0,0,.16.17,7.491,7.491,0,0,0,2.26-2.11c1.63-2.04,2.47-4.25,3.05-8.04,0.02-.08.05-0.29,0.09-0.53a16.379,16.379,0,0,0,2.31,5.93,16.558,16.558,0,0,1-5.38,4.63,0.483,0.483,0,0,0-.31.36,0.184,0.184,0,0,0,.22.19,8.668,8.668,0,0,0,2.37-.91,13.271,13.271,0,0,0,4.15-2.86,17.582,17.582,0,0,0,4.32,3.53,6.318,6.318,0,0,1,2.38-2.28,14.591,14.591,0,0,1-5.4-2.76,17.659,17.659,0,0,0,2.73-6.17Zm-5.04-7.22-1.34,6.94a1.887,1.887,0,0,0-.05.33c0,0.36.24,0.48,1.12,0.48,0.75,0,.99-0.09,1.06-0.41l0.31-1.44h1.95a25.526,25.526,0,0,1-2.36,7.13,13.934,13.934,0,0,1-3.11-7.01c0.07-1.89.07-2.44,0.07-4.05,0-.29,0-1.13-0.03-1.97h2.38Zm-3.58,30.22a4.365,4.365,0,0,1,.51-0.03,5.783,5.783,0,0,1,2.47.58c2.09,1.05,3.17,3.24,3.17,6.45a8.222,8.222,0,0,1-3.08,6.85,12.836,12.836,0,0,1-4.29,2.23c-0.38.12-.46,0.14-0.46,0.26,0,0.1.1,0.15,0.24,0.15a11.547,11.547,0,0,0,1.54-.29,14.967,14.967,0,0,0,4.44-1.63,8.849,8.849,0,0,0,4.44-7.69,7.221,7.221,0,0,0-1.9-5.06,9.221,9.221,0,0,0-6.74-2.64c-5.61,0-10.44,4.54-10.44,9.82a6.24,6.24,0,0,0,1.18,3.86,2.893,2.893,0,0,0,2.01,1.32c1.32,0,3.41-1.7,4.83-3.91a15.5,15.5,0,0,0,2.4-7.8A9.162,9.162,0,0,0,1887.89,1435.84Zm-1.17.09a0.687,0.687,0,0,0,.05.17,6.127,6.127,0,0,1,.14,1.34,14.092,14.092,0,0,1-2.45,7.18c-1.01,1.58-2.37,2.83-3.12,2.83s-1.39-1.25-1.39-2.66a9.4,9.4,0,0,1,2.83-6.7A9.152,9.152,0,0,1,1886.72,1435.93Zm-77.78-157.63c-1.49.12-1.76,0.15-3.39,0.22l1.66,2.47a0.609,0.609,0,0,0,.48.34,0.524,0.524,0,0,0,.45-0.34l0.34-.62c1.61-.46,1.68-0.48,3-0.84,2.66-.72,3.74-1.06,5.11-1.52a0.336,0.336,0,0,0,.31-0.28,0.221,0.221,0,0,0-.24-0.22,2.021,2.021,0,0,0-.36.05c-1.22.14-3.19,0.36-5.06,0.5v-4.85h3.31c1.56,3.92,4.73,6.51,9.86,8.04a6.737,6.737,0,0,1,2.64-2.32,18.464,18.464,0,0,1-8.44-2.4c1.27-.63,3.43-1.71,4.79-2.41l0.7,0.03,0.17,0.02a0.479,0.479,0,0,0,.62-0.41,0.725,0.725,0,0,0-.36-0.52l-1.77-1.59a44.288,44.288,0,0,1-4.66,4.54,9.426,9.426,0,0,1-2.9-2.98h3.24v0.48a0.37,0.37,0,0,0,.43.39,4.143,4.143,0,0,0,1.2-.27,0.508,0.508,0,0,0,.46-0.6v-4.97l0.5-.14a0.45,0.45,0,0,0,.29-0.43,0.6,0.6,0,0,0-.27-0.46l-2.04-1.92-0.76,1.27h-2.55v-1.63l0.7-.31a0.471,0.471,0,0,0,.24-0.41,0.379,0.379,0,0,0-.36-0.36l-2.66-.26v2.97h-2.31l-1.22-.67a41.676,41.676,0,0,0,5.61-5.23c2.02,3.19,4.56,5.28,8.76,7.15a5.979,5.979,0,0,1,2.52-2.23c-5.11-1.08-8.52-2.74-10.75-5.18l0.46-.15a0.449,0.449,0,0,0,.33-0.41,0.371,0.371,0,0,0-.24-0.33l-2.68-1.06a30.67,30.67,0,0,1-9.67,10.3,0.566,0.566,0,0,0-.36.38,0.163,0.163,0,0,0,.16.15,19.436,19.436,0,0,0,4.71-2.48v11.5Zm2.3-5.74v-2.32h7.2v2.32h-7.2Zm0-2.97v-2.38h7.2v2.38h-7.2ZM1811,1295.1h3.74a0.4,0.4,0,0,0,.39-0.34,0.513,0.513,0,0,0-.17-0.36l-1.8-1.56-1.37,1.61H1811v-5.25l0.48-.32a0.645,0.645,0,0,0,.29-0.5,0.581,0.581,0,0,0-.63-0.48l-2.28-.1v6.65h-1.48c-1.03,0-1.63-.02-3.22-0.09l0.51,0.81c1.24-.05,1.7-0.07,2.71-0.07h1.44a23.432,23.432,0,0,1-4.42,10.06,0.83,0.83,0,0,0-.26.41,0.224,0.224,0,0,0,.17.19,3.779,3.779,0,0,0,1.2-.92,20.138,20.138,0,0,0,3.35-3.91v8.45c0,0.22.15,0.34,0.46,0.34a3.009,3.009,0,0,0,1.2-.31,0.6,0.6,0,0,0,.48-0.7v-9.79a3.737,3.737,0,0,1,.96,1.41,10.726,10.726,0,0,0,.53,1.3,0.972,0.972,0,0,0,.84.48,1.07,1.07,0,0,0,1.08-1.2c0-1.32-1.23-2.28-3.41-2.67v-3.14Zm12.28-.65h-0.76v-5.21l0.67-.45a0.562,0.562,0,0,0,.24-0.43,0.63,0.63,0,0,0-.58-0.56l-2.52-.14v6.79h-1.8c-0.74,0-1.44-.02-3.21-0.07l0.41,0.79c1.44-.05,2.04-0.07,2.8-0.07h1.4a33.48,33.48,0,0,1-7.66,11.38,0.649,0.649,0,0,0-.26.36,0.182,0.182,0,0,0,.17.17,10.156,10.156,0,0,0,2.54-1.66,27.074,27.074,0,0,0,5.61-6.19v7.01c0,0.72-.04.76-0.38,0.86a21.319,21.319,0,0,1-2.66.05c-0.53,0-.6.02-0.6,0.19,0,0.14,0,.14,1,0.46,0.41,0.12.84,0.26,1.23,0.38a3.936,3.936,0,0,1,.41.14,0.7,0.7,0,0,1,.28.72c0.03,0.53.17,0.77,0.46,0.77a4.2,4.2,0,0,0,1.51-.53,1.3,1.3,0,0,0,.94-1.48V1295.1h4.05a0.337,0.337,0,0,0,.24-0.36,0.512,0.512,0,0,0-.17-0.36l-1.87-1.66Zm-7.79,30.27a2.735,2.735,0,1,0,2.68,2.73A2.743,2.743,0,0,0,1815.49,1324.72Zm-6.84,41.21h2.9v0.84c0,0.16.12,0.24,0.43,0.24,0.94,0,1.73-.29,1.73-0.6v-5.07l0.39-.22a0.5,0.5,0,0,0,.28-0.43,0.7,0.7,0,0,0-.24-0.48l-1.68-1.73-0.98,1.35h-2.54a25.656,25.656,0,0,0,4.82-3.75h3.6a17.564,17.564,0,0,0,4.15,3.75h-3.24l-2.4-1.2v8.62c0,0.19.1,0.28,0.34,0.28,0.86,0,1.8-.33,1.8-0.67v-0.93h3.26v0.84c0,0.16.14,0.24,0.46,0.24a4.118,4.118,0,0,0,1.36-.24,0.523,0.523,0,0,0,.41-0.56v-5.16c0.98,0.48,1.1.55,1.63,0.77a5,5,0,0,1,1.78-2.38,19.076,19.076,0,0,1-8.76-3.36h8.23a0.342,0.342,0,0,0,.41-0.33,0.578,0.578,0,0,0-.29-0.46l-2.06-1.73-1.76,1.88h-8.27c0.38-.41.45-0.48,0.86-0.92l0.65-.21a0.565,0.565,0,0,0,.48-0.46,0.477,0.477,0,0,0-.34-0.41l-2.18-1.03v-4.03l0.5-.26a0.494,0.494,0,0,0,.29-0.44,0.569,0.569,0,0,0-.26-0.45l-1.95-1.85-0.81,1.32h-3.05l-2.35-1.25v8.38c0,0.31.14,0.43,0.55,0.43,0.82,0,1.58-.36,1.58-0.72v-1.44h3.34v1.03c0,0.19.14,0.27,0.48,0.27a3.7,3.7,0,0,0,1.08-.17,13.88,13.88,0,0,1-1.68,2.21h-2.88c-1.25,0-2.23-.03-4.73-0.12l0.53,0.88c2.04-.09,2.78-0.12,4.2-0.12h2.35a29.213,29.213,0,0,1-6.31,5.19,1.666,1.666,0,0,0-.79.6,0.31,0.31,0,0,0,.26.24,8.45,8.45,0,0,0,2.24-.91v6c0,0.26.12,0.36,0.45,0.36,1.03,0,1.73-.24,1.73-0.63v-1Zm0-5.45h2.9v4.8h-2.9v-4.8Zm-0.27-9.03v-4.1h3.34v4.1h-3.34Zm9.63,13.83v-4.8h3.26v4.8h-3.26Zm0.52-13.18h3.36v1.08c0,0.24.12,0.34,0.46,0.34,0.93,0,1.73-.34,1.73-0.75v-4.34l0.43-.29a0.57,0.57,0,0,0,.33-0.43,0.818,0.818,0,0,0-.31-0.48l-2.01-1.9-0.79,1.37h-2.84l-2.49-1.22v7.89c0,0.29.09,0.39,0.43,0.39a4.48,4.48,0,0,0,1.27-.24,0.483,0.483,0,0,0,.43-0.56v-0.86Zm0-.65v-4.1h3.36v4.1h-3.36Zm-3.04,30.87a2.735,2.735,0,1,0,2.68,2.73A2.743,2.743,0,0,0,1815.49,1382.32Zm8.37,38.54-1.82,2.04h-5.76v-5.95h6.4a0.383,0.383,0,0,0,.44-0.29,0.877,0.877,0,0,0-.39-0.53l-1.92-1.56-1.58,1.73h-7.89c-1.35,0-2.16-.02-4.16-0.12l0.56,0.86c1.82-.07,2.64-0.09,3.6-0.09h2.76v5.95h-4.95c-1.46,0-2.42-.02-4.72-0.12l0.62,0.89c2.09-.1,3.05-0.12,4.1-0.12h16.63a0.473,0.473,0,0,0,.55-0.36,1.129,1.129,0,0,0-.45-0.67Zm-7.46-14.18v5.64c0,1.03.19,1.39,0.89,1.58a21.275,21.275,0,0,0,3.91.14c3.24,0,4.24-.24,4.24-1.03a0.7,0.7,0,0,0-.5-0.65,0.635,0.635,0,0,1-.36-0.6,9.908,9.908,0,0,1,.12-1.17,6.634,6.634,0,0,0,.14-1.08,0.2,0.2,0,0,0-.21-0.24c-0.15,0-.22.14-0.63,1.03a3.457,3.457,0,0,1-1,1.63,9.038,9.038,0,0,1-3.36.36c-1.18,0-1.3-.09-1.3-0.89v-4.72h4.01a11.6,11.6,0,0,1-1.1,2.61,1.173,1.173,0,0,0-.2.48,0.147,0.147,0,0,0,.15.15,5.22,5.22,0,0,0,1.51-.87c0.31-.19.65-0.41,0.96-0.62,0.07-.07.29-0.19,0.62-0.41l0.77,0.07h0.1a0.514,0.514,0,0,0,.62-0.45,1.41,1.41,0,0,0-.43-0.8l-2.04-2.3-1.01,1.49h-5.9v-1.83l0.45-.21a0.654,0.654,0,0,0,.39-0.53,0.534,0.534,0,0,0-.53-0.48l-2.42-.34v3.39H1808c-0.38-1.08-.55-1.39-0.74-1.39-0.1,0-.17.09-0.17,0.26a4.163,4.163,0,0,1-1.39,3.14c-0.7.68-.82,0.87-0.82,1.32a1.125,1.125,0,0,0,1.27,1.11c1.13,0,1.97-1.32,1.97-3.17v-0.62h3.1c0.07,4.39-1.71,6.96-5.95,8.59-0.48.19-.63,0.29-0.63,0.43a0.205,0.205,0,0,0,.24.17,12.62,12.62,0,0,0,6.26-2.69c1.42-1.32,2.14-3.36,2.31-6.5h2.95Zm-9.05,32.8h4.97v1.23c0,0.21.14,0.31,0.46,0.31a3.341,3.341,0,0,0,.93-0.17,0.625,0.625,0,0,0,.53-0.65v-5.35l0.36-.14a0.4,0.4,0,0,0,.29-0.36,0.8,0.8,0,0,0-.22-0.48l-1.65-1.95-0.96,1.44h-4.25l-2.45-1.24v21.12c0,0.43.1,0.55,0.46,0.55a2.354,2.354,0,0,0,.93-0.22,0.758,0.758,0,0,0,.6-0.72v-13.37Zm0-.64v-2.16h4.97v2.16h-4.97Zm0-2.81v-2.02h4.97v2.02h-4.97Zm5.64,14.16h4.75v1.25c0,0.21.15,0.31,0.43,0.31a1.4,1.4,0,0,0,1.49-.79v-6.24l0.31-.15a0.432,0.432,0,0,0,.32-0.45,0.69,0.69,0,0,0-.22-0.48l-1.73-1.85-0.84,1.17h-4.24l-2.19-1.12v10.2c0,0.21.15,0.31,0.51,0.31a1.447,1.447,0,0,0,1.41-.65v-1.51Zm0-.65v-2.66h4.75v2.66h-4.75Zm0-3.31v-2.62h4.75v2.62h-4.75Zm5.47-6.75h5.04v10.9c0,0.63-.17.75-1.03,0.75-0.36,0-1.22-.03-1.82-0.05h-0.29c-0.22,0-.29.05-0.29,0.19,0,0.1.07,0.17,0.36,0.29,0.6,0.24,1.13.45,1.61,0.67a0.529,0.529,0,0,1,.4.58c0,1,.08,1.15.56,1.15a3.25,3.25,0,0,0,1.39-.46c1.01-.53,1.2-0.86,1.2-2.16v-16.3l0.38-.16a0.528,0.528,0,0,0,.31-0.44,1.105,1.105,0,0,0-.38-0.67l-1.99-2.04-0.87,1.63h-4.12l-2.35-1.1v8.45c0,0.24.09,0.31,0.4,0.31a1.548,1.548,0,0,0,1.49-.72v-0.82Zm0-.64v-2.16h5.04v2.16h-5.04Zm0-4.83h5.04v2.02h-5.04v-2.02Zm-4.27,37.97c-3.07,1.42-4.73,3.31-4.73,5.4a4.017,4.017,0,0,0,2.04,3.38,10.179,10.179,0,0,0,5.02,1.06,19.047,19.047,0,0,0,5.3-.7c0.82-.28,1.13-0.6,1.13-1.05a1.845,1.845,0,0,0-1.75-1.71,3.931,3.931,0,0,0-1.27.32,14.842,14.842,0,0,1-4.52.84c-2.54,0-4.03-.96-4.03-2.6a4.217,4.217,0,0,1,2-3.33,10.865,10.865,0,0,1,2.56-1.25,19.161,19.161,0,0,0,2.74-.58c1.56-.43,1.97-0.64,1.97-1.08a2.225,2.225,0,0,0-1.92-1.65,0.837,0.837,0,0,0-.6.29,6.365,6.365,0,0,1-2.64,1.63,1.227,1.227,0,0,1-.53-1.3,19.9,19.9,0,0,1,.77-4.82,4.511,4.511,0,0,0,.31-1.51,1.538,1.538,0,0,0-.79-1.28,4.177,4.177,0,0,0-2.14-.72c-0.89,0-2.18.48-2.18,0.82,0,0.1.07,0.14,0.24,0.14a2.413,2.413,0,0,1,1.25.41,1.789,1.789,0,0,1,.69,1.73c0,0.24,0,.65-0.05,1.44-0.02.72-.02,1.03-0.02,1.46C1813.04,1469.87,1813.16,1470.37,1814.19,1471.98Zm0,28.8c-3.07,1.42-4.73,3.31-4.73,5.4a4.017,4.017,0,0,0,2.04,3.38,10.179,10.179,0,0,0,5.02,1.06,19.047,19.047,0,0,0,5.3-.7c0.82-.28,1.13-0.6,1.13-1.05a1.845,1.845,0,0,0-1.75-1.71,3.931,3.931,0,0,0-1.27.32,14.842,14.842,0,0,1-4.52.84c-2.54,0-4.03-.96-4.03-2.6a4.217,4.217,0,0,1,2-3.33,10.865,10.865,0,0,1,2.56-1.25,19.161,19.161,0,0,0,2.74-.58c1.56-.43,1.97-0.64,1.97-1.08a2.225,2.225,0,0,0-1.92-1.65,0.837,0.837,0,0,0-.6.29,6.365,6.365,0,0,1-2.64,1.63,1.227,1.227,0,0,1-.53-1.3,19.9,19.9,0,0,1,.77-4.82,4.511,4.511,0,0,0,.31-1.51,1.538,1.538,0,0,0-.79-1.28,4.177,4.177,0,0,0-2.14-.72c-0.89,0-2.18.48-2.18,0.82,0,0.1.07,0.14,0.24,0.14a2.413,2.413,0,0,1,1.25.41,1.789,1.789,0,0,1,.69,1.73c0,0.24,0,.65-0.05,1.44-0.02.72-.02,1.03-0.02,1.46C1813.04,1498.67,1813.16,1499.17,1814.19,1500.78Zm-1.25,26.04a17.76,17.76,0,0,0-2.04,1.15,3.1,3.1,0,0,0-1.63,2.4c0,1.08,1.03,2.07,2.74,2.59a11.357,11.357,0,0,0-.15,1.71c0,3.17,1.8,4.97,4.95,4.97a6.391,6.391,0,0,0,3.57-1.08,3.778,3.778,0,0,0,1.66-3.29c0-2.04-1.18-4.01-3.36-5.67a10.072,10.072,0,0,0-1.63-.98,0.161,0.161,0,0,0-.17.12,0.4,0.4,0,0,0,.19.26,8.352,8.352,0,0,1,2.64,5.86,2.967,2.967,0,0,1-3.14,3.22c-2.19,0-3.53-1.44-3.53-3.77a5.113,5.113,0,0,1,.1-1.13c0.67,0.07,1.43.12,2.03,0.12,1.25,0,1.8-.22,1.8-0.74a1.7,1.7,0,0,0-1.24-1.23,5.477,5.477,0,0,1-1.32.22c-0.22,0-.22,0-1.2-0.07a26.724,26.724,0,0,1,1.01-4.11,5,5,0,0,1,1.67-.31c1.18-.1,1.25-0.14,1.25-0.5a1.55,1.55,0,0,0-.98-1.4,1.1,1.1,0,0,1-.39.05,4.306,4.306,0,0,1-.67-0.07,19.748,19.748,0,0,1,1.01-2.33,2.654,2.654,0,0,0,.62-1.51c0-1.15-1.82-2.74-3.11-2.74a1.161,1.161,0,0,0-.89.34c0,0.05.02,0.07,0.26,0.17a1.9,1.9,0,0,1,.96,1.85,23.646,23.646,0,0,1-.55,3.88c-2.02-.4-3.19-0.98-3.5-1.7-0.15-.38-0.15-0.38-0.22-0.38a0.587,0.587,0,0,0-.19.6,2.921,2.921,0,0,0,1.41,2.3,6.258,6.258,0,0,0,2.19.7Zm-0.72,4.44c-1.12-.29-1.7-0.72-1.7-1.32,0-.74.65-1.34,2.38-2.26C1812.63,1528.93,1812.58,1529.29,1812.22,1531.26Zm2.74,20.78a0.137,0.137,0,0,0-.12.12,2.239,2.239,0,0,0,.6,1.25,4.615,4.615,0,0,0,3.33,1.18,13.441,13.441,0,0,0,4.08-.58,0.821,0.821,0,0,0,.65-0.69,1.76,1.76,0,0,0-1.61-1.56,1.949,1.949,0,0,0-1,.33,10.777,10.777,0,0,1-3.65.79,2.616,2.616,0,0,1-2.16-.74A0.32,0.32,0,0,0,1814.96,1552.04Zm8.78,10.92a2.63,2.63,0,0,0-.79.15,13.106,13.106,0,0,1-3.26.45,5.325,5.325,0,0,1-3.94-1.36,3.45,3.45,0,0,1-.91-2.04c-0.03-.27-0.05-0.34-0.15-0.34-0.21,0-.31.48-0.31,1.34,0,3.1,2.35,4.81,6.67,4.81,2.74,0,4.08-.58,4.08-1.71A1.32,1.32,0,0,0,1823.74,1562.96Zm-11.66-4.46c-0.12,0-.19.07-0.36,0.43-0.05.12-.17,0.39-0.38,0.82-0.7,1.49-1.04,2.21-1.32,2.85-0.24.56-.34,0.68-0.6,0.68-0.34,0-.58-0.99-0.58-2.28a16.837,16.837,0,0,1,1.58-6.17,6.661,6.661,0,0,0,.7-2.64,3.041,3.041,0,0,0-.94-2.23,3.082,3.082,0,0,0-1.92-.92,0.582,0.582,0,0,0-.48.15,0.094,0.094,0,0,0,.05.07c0.58,0.19.91,1.01,0.91,2.14a16.539,16.539,0,0,1-.62,3.67,26.1,26.1,0,0,0-.89,5.95c0,3.7,1.42,6.63,3.22,6.63a0.835,0.835,0,0,0,.89-0.56,0.926,0.926,0,0,0-.08-0.33,6,6,0,0,1-.36-2.31,13.076,13.076,0,0,1,1.25-5.35,2.234,2.234,0,0,0,.12-0.41A0.2,0.2,0,0,0,1812.08,1558.5Zm-78.84-278.28c3.07-.12,3.17-0.12,4.23-0.12h16.67a0.367,0.367,0,0,0,.41-0.36,0.614,0.614,0,0,0-.24-0.43l-2.04-1.8-1.78,1.94h-5.9v-3.96h7.97a0.285,0.285,0,0,0,.24-0.29,0.384,0.384,0,0,0-.19-0.31l-2.04-1.8-1.59,1.75h-4.39v-4.05h4.58v1.05a0.512,0.512,0,0,0,.58.56,4.222,4.222,0,0,0,1.1-.2,0.7,0.7,0,0,0,.65-0.64v-8.5l0.41-.17a0.485,0.485,0,0,0,.36-0.5,0.591,0.591,0,0,0-.19-0.43l-2.28-2.24-0.96,1.49H1737.9l-2.62-1.32v12.67a0.479,0.479,0,0,0,.55.58c1.13,0,1.76-.26,1.76-0.72v-1.63h4.67v4.05h-3.67c-0.43,0-1.1-.02-1.92-0.04l-2.23-.08,0.53,0.87c2.02-.07,2.78-0.1,3.62-0.1h3.67v3.96h-4.79c-0.24,0-1.25-.02-2.28-0.05-0.82-.02-1.64-0.04-2.45-0.09Zm4.35-10.08v-3.77h4.67v3.77h-4.67Zm0-4.42v-3.86h4.67v3.86h-4.67Zm7,4.42v-3.77h4.58v3.77h-4.58Zm0-8.28h4.58v3.86h-4.58v-3.86Zm-8.16,45.19h13.87v1.3c0,0.53.1,0.62,0.51,0.62a3.576,3.576,0,0,0,1.17-.21,0.688,0.688,0,0,0,.58-0.77v-13.66l0.55-.43a0.637,0.637,0,0,0,.24-0.46,0.491,0.491,0,0,0-.5-0.48l-2.55-.21v13.66h-5.85v-16.37l0.62-.53a0.561,0.561,0,0,0,.24-0.41,0.459,0.459,0,0,0-.5-0.43l-2.71-.17v17.91h-5.67v-11.96l0.56-.36a0.719,0.719,0,0,0,.38-0.55,0.515,0.515,0,0,0-.55-0.5l-2.64-.17v16.1a0.465,0.465,0,0,0,.5.56,4.2,4.2,0,0,0,1.3-.27,0.55,0.55,0,0,0,.45-0.55v-1.66Zm10.82,16.51c1.3,0,2.5.56,2.5,1.16,0,0.21-.1.26-0.62,0.4a4.518,4.518,0,0,0-3.05,2.55c-0.29.74-.38,1.8-0.38,4.37a10.572,10.572,0,0,0-1.18-.05,6.866,6.866,0,0,0-3.17.62,2.75,2.75,0,0,0-1.44,2.26c0,1.77,1.85,3.12,4.27,3.12a3.352,3.352,0,0,0,3.12-1.42,4.036,4.036,0,0,0,.48-2.18,9.552,9.552,0,0,1,2.45,1.87,1.789,1.789,0,0,0,1.25.72,1.116,1.116,0,0,0,1.01-1.15c0-1.18-1.88-2.52-4.71-3.36a33.479,33.479,0,0,1-.43-3.89c0-1.75.72-2.71,2.04-2.71a5.706,5.706,0,0,1,2.52.69,1.029,1.029,0,0,0,.86-1.15c0-1.58-1.63-2.85-3.67-2.85-1.13,0-2.9.55-2.9,0.91a0.151,0.151,0,0,0,.14.14,0.555,0.555,0,0,0,.17-0.02Zm-1.58,10.73a1.824,1.824,0,0,1-2.04,1.87c-1.41,0-2.35-.6-2.35-1.46,0-.91.89-1.51,2.18-1.51a6.184,6.184,0,0,1,2.21.41v0.69Zm-5.85-10.65a18.1,18.1,0,0,1-4.71,7.39,1.7,1.7,0,0,0-.76,1.13,1.36,1.36,0,0,0,1.36,1.27,1.91,1.91,0,0,0,1.44-.65,11.419,11.419,0,0,0,1.23-2.09,63.786,63.786,0,0,0,3.33-7.46,9.491,9.491,0,0,0,2.23-.87c1.08-.57,1.52-1.1,1.52-1.87,0-.57-0.12-0.67-0.75-0.69a3.2,3.2,0,0,1-2.11-.53c0.07-.43.12-0.65,0.19-1.2a2.128,2.128,0,0,0-1.99-1.06c-0.72,0-1.63.34-1.63,0.63,0,0.07.05,0.09,0.19,0.09a1.447,1.447,0,0,1,1.42,1.51,8.29,8.29,0,0,1-.48,2.5,8.714,8.714,0,0,1-2.64.48,2.4,2.4,0,0,1-2.23-1.06c-0.08-.16-0.12-0.19-0.2-0.19a0.161,0.161,0,0,0-.16.17,3.6,3.6,0,0,0,.57,1.63,2.7,2.7,0,0,0,2.33,1.03A12.5,12.5,0,0,0,1739.82,1323.64Zm2.66-3.99a1.942,1.942,0,0,1,.94.72c0,0.27-.48.6-1.42,1.01C1742.26,1320.47,1742.31,1320.32,1742.48,1319.65Zm-0.14,29.98a8.931,8.931,0,0,0-2.16.62,3.109,3.109,0,0,0-2.07,3.05l0.03,0.94c0,0.4-.19,2.3-0.29,2.85a12.1,12.1,0,0,0-.36,2.83,2.54,2.54,0,0,0,.6,1.73,2.747,2.747,0,0,0,1.87,1.08,0.839,0.839,0,0,0,.79-0.55,8.566,8.566,0,0,1,1.2-2.26c1.18-1.6,2.5-2.42,3.94-2.42a2.6,2.6,0,0,1,2.64,2.78c0,1.78-1.44,3.58-3.82,4.71a15.663,15.663,0,0,1-4.99,1.41c-0.29.03-.38,0.08-0.38,0.17,0,0.12.12,0.19,0.33,0.19a25.555,25.555,0,0,0,4.75-.52c4.39-.92,6.7-2.88,6.7-5.72a3.913,3.913,0,0,0-4.23-3.98,9.492,9.492,0,0,0-6.38,2.95,0.762,0.762,0,0,1-.55.31c-0.43,0-.65-0.43-0.65-1.22a9.6,9.6,0,0,1,.55-2.86,8.11,8.11,0,0,0,.46-2.3,1.131,1.131,0,0,0-.29-0.74,0.56,0.56,0,0,1-.12-0.41c0-1.3,1.01-2.02,2.81-2.02a6.193,6.193,0,0,1,1.68.22,3.554,3.554,0,0,0,1.01.21,0.882,0.882,0,0,0,.84-0.91,2.414,2.414,0,0,0-.51-1.39,1.466,1.466,0,0,0-1.24-.53c-2.07-.09-3.39-0.84-3.53-1.99-0.03-.26-0.05-0.31-0.15-0.31a1.066,1.066,0,0,0-.33,1.05c0,1.18.62,2,2.25,2.96Zm8.3,31.56a1.1,1.1,0,0,0-1.06.29,0.326,0.326,0,0,0,.22.21,3.947,3.947,0,0,1,2.16,1.68c0.33,0.63.38,0.65,0.77,0.65a1.041,1.041,0,0,0,1.1-.94C1753.83,1382.12,1752.27,1381.19,1750.64,1381.19Zm-3,1.51c-0.36,0-.58.07-0.58,0.22a0.216,0.216,0,0,0,.15.16,3.47,3.47,0,0,1,1.84,1.85c0.29,0.7.41,0.82,0.92,0.82a0.978,0.978,0,0,0,1-.84C1750.97,1383.83,1749.25,1382.7,1747.64,1382.7Zm2.54-6.46c-0.53.29-.62,0.32-3.67,1.2-3.12.8-5.42,1.44-8.2,2.28a8.15,8.15,0,0,1-2.48.58,2.069,2.069,0,0,1-1.77-.96c-0.12-.24-0.12-0.26-0.22-0.26a0.155,0.155,0,0,0-.12.19,3.911,3.911,0,0,0,.29,1.58,3.5,3.5,0,0,0,2.42,1.8,0.926,0.926,0,0,0,.6-0.24,19.241,19.241,0,0,1,3.58-1.97,18.242,18.242,0,0,1,4.22-1.39,0.118,0.118,0,0,1,.12.07,0.916,0.916,0,0,1-.24.29,13.093,13.093,0,0,0-2.66,4.2,15.251,15.251,0,0,0-.99,4.99c0,2.74,1.08,4.52,3.29,5.36a12.919,12.919,0,0,0,4.37.81c1.29,0,1.97-.4,1.97-1.2a1.858,1.858,0,0,0-1.49-1.68,0.27,0.27,0,0,0-.15.03,14.39,14.39,0,0,1-1.89.17c-2.69,0-4.01-1.42-4.01-4.28a15.57,15.57,0,0,1,.96-5.4,5.57,5.57,0,0,1,2.69-3.09,6.8,6.8,0,0,1,3.19-.53,8.965,8.965,0,0,1,1.8.19,4.617,4.617,0,0,0,.48.05,0.745,0.745,0,0,0,.77-0.7,1.949,1.949,0,0,0-1.08-1.39A3.11,3.11,0,0,0,1750.18,1376.24Zm1.2,32.36a5.178,5.178,0,0,1-2.49-.7,3.379,3.379,0,0,1,.33-1.06,0.749,0.749,0,0,0,.1-0.33c0-.6-1.68-1.68-2.62-1.68a2.029,2.029,0,0,0-1.53.62,0.133,0.133,0,0,0,.14.12h0.1a1.883,1.883,0,0,1,.19-0.02,1.211,1.211,0,0,1,.91.84c0.26,0.62.26,0.62,0.36,4.44a15.293,15.293,0,0,1-2.81.33,2.69,2.69,0,0,1-2.35-.98c-0.09-.17-0.14-0.19-0.19-0.19a0.158,0.158,0,0,0-.12.17,3.07,3.07,0,0,0,.46,1.24,2.946,2.946,0,0,0,2.8,1.4,11.426,11.426,0,0,0,2.23-.24c0.17,1.63.32,4.22,0.29,5.52-0.55-.05-1.22-0.1-1.72-0.1-2.67,0-4.52,1.13-4.52,2.76,0,1.49,1.66,2.62,3.87,2.62a4.313,4.313,0,0,0,3.48-1.44,3.312,3.312,0,0,0,.74-1.68,6.2,6.2,0,0,1,1.85,1.61,2.752,2.752,0,0,0,.69.88,1.471,1.471,0,0,0,.96.36,1.124,1.124,0,0,0,1.16-1.2c0-1.24-1.61-2.49-4.49-3.45-0.03-.84-0.05-1.2-0.17-2.52-0.22-2.19-.22-2.38-0.34-3.75,2.57-.77,3.77-1.65,3.77-2.83a0.681,0.681,0,0,0-.55-0.77,0.7,0.7,0,0,0-.22.03h-0.31Zm-4.29,10.99c-0.22,1.49-1.06,2.09-2.91,2.09a1.472,1.472,0,0,1-1.68-1.11c0-.89,1.01-1.56,2.38-1.56a6.217,6.217,0,0,1,2.23.46Zm1.89-11.16c0.17,0.12.31,0.21,0.48,0.31,0.27,0.17.34,0.22,0.6,0.36a0.435,0.435,0,0,1,.24.24c0,0.29-.6.67-1.65,1.03a15.28,15.28,0,0,1,.09-2.09Zm-9.91,6.17c-0.12,0-.19.09-0.33,0.5-0.03.12-.15,0.38-0.29,0.74-0.17.44-.36,0.99-0.58,1.61-0.67,1.95-.74,2.09-1.05,2.09a0.341,0.341,0,0,1-.34-0.26,8.108,8.108,0,0,1-.24-2,16.08,16.08,0,0,1,1.56-6.4c0.79-1.64.89-1.95,0.89-2.57a3.39,3.39,0,0,0-1.87-2.81,3.163,3.163,0,0,0-1.39-.43c-0.08,0-.15.02-0.15,0.09a0.332,0.332,0,0,0,.19.22,2.761,2.761,0,0,1,.72,2.04,18.742,18.742,0,0,1-.67,3.74,27.833,27.833,0,0,0-.84,6.22c0,3.63,1.35,6.58,3.03,6.58a1.186,1.186,0,0,0,1.1-.99,1.343,1.343,0,0,0-.12-0.38,6.022,6.022,0,0,1-.41-2.45,20.427,20.427,0,0,1,.82-4.78,4.222,4.222,0,0,0,.12-0.6A0.163,0.163,0,0,0,1739.07,1414.6Zm4.87,21.24a4.365,4.365,0,0,1,.51-0.03,5.783,5.783,0,0,1,2.47.58c2.09,1.05,3.17,3.24,3.17,6.45a8.222,8.222,0,0,1-3.08,6.85,12.836,12.836,0,0,1-4.29,2.23c-0.38.12-.46,0.14-0.46,0.26,0,0.1.1,0.15,0.24,0.15a11.547,11.547,0,0,0,1.54-.29,14.967,14.967,0,0,0,4.44-1.63,8.849,8.849,0,0,0,4.44-7.69,7.221,7.221,0,0,0-1.9-5.06,9.221,9.221,0,0,0-6.74-2.64c-5.62,0-10.44,4.54-10.44,9.82a6.24,6.24,0,0,0,1.18,3.86,2.893,2.893,0,0,0,2.01,1.32c1.32,0,3.41-1.7,4.83-3.91a15.5,15.5,0,0,0,2.4-7.8A9.162,9.162,0,0,0,1743.94,1435.84Zm-1.17.09a0.687,0.687,0,0,0,.05.17,6.127,6.127,0,0,1,.14,1.34,14.092,14.092,0,0,1-2.45,7.18c-1.01,1.58-2.37,2.83-3.12,2.83s-1.39-1.25-1.39-2.66a9.4,9.4,0,0,1,2.83-6.7A9.152,9.152,0,0,1,1742.77,1435.93Zm-82.13-168.48,2.31,0.99,3.36-9.48-0.75-.32Zm4.25,0,2.3,0.99,3.36-9.48-0.74-.32Zm2.04,27h2.83a30.014,30.014,0,0,1-1.75,4.42,5.113,5.113,0,0,0-1.9-.82,0.107,0.107,0,0,0-.09.1,0.9,0.9,0,0,0,.12.19,4.859,4.859,0,0,1,1.05,2.3c0.22,1.4.22,1.4,0.41,1.68a0.948,0.948,0,0,0,.77.36,1.165,1.165,0,0,0,1.15-1.32,3.153,3.153,0,0,0-.93-2.08c0.84-.89,1.77-1.92,2.78-3.08l0.69-.19a0.31,0.31,0,0,0,.24-0.33,0.508,0.508,0,0,0-.19-0.39l-1.13-.84h6.08a23.58,23.58,0,0,1-1.37,4.08,6.568,6.568,0,0,0-2.26-.84,0.113,0.113,0,0,0-.12.1,0.3,0.3,0,0,0,.15.17,5.128,5.128,0,0,1,1.63,3.38,0.825,0.825,0,0,0,.91.82,1.122,1.122,0,0,0,1.15-1.2,2.727,2.727,0,0,0-.91-1.97c0.26-.29.55-0.65,1.22-1.44l0.72-.89c0.05-.05.15-0.17,0.34-0.38l0.74-.27a0.469,0.469,0,0,0,.34-0.43,0.5,0.5,0,0,0-.27-0.43l-1.08-.7h4.28a0.262,0.262,0,0,0,.19-0.31,0.33,0.33,0,0,0-.12-0.24l-2.07-1.9-1.56,1.8h-3.43c0.2-.24.44-0.5,0.58-0.69l1.73-1.97c0.14-.17.43-0.48,0.62-0.74l0.62-.2a0.448,0.448,0,0,0,.34-0.43,0.492,0.492,0,0,0-.29-0.43l-2.4-1.27a30.072,30.072,0,0,1-2.11,5.73h-7.53l0.74-2.2a0.227,0.227,0,0,0,.03-0.12,0.249,0.249,0,0,0-.22-0.27,0.243,0.243,0,0,0-.22.15l-5.23,11.52c-0.84-.08-1.29-0.1-1.39-0.1-0.41,0-.6.1-0.6,0.29a0.394,0.394,0,0,0,.39.31,1.98,1.98,0,0,1,1.24.58,2.665,2.665,0,0,1,.34,1.49,8.889,8.889,0,0,1-.17,1.51,5.921,5.921,0,0,0-.12.96,1.391,1.391,0,1,0,2.78-.07,5.739,5.739,0,0,0-.16-1.18,11.012,11.012,0,0,1-.65-2.64,3.947,3.947,0,0,1,.41-1.54Zm-6.62-.65a0.156,0.156,0,0,0-.19.15,0.436,0.436,0,0,0,.21.29,4.049,4.049,0,0,1,1.3,2.42c0.29,1.13.6,1.49,1.27,1.49a1.167,1.167,0,0,0,1.1-1.3c0-1.2-.79-2.09-2.4-2.71A4.93,4.93,0,0,0,1660.31,1293.8Zm1.25-5.11a0.181,0.181,0,0,0-.22.17,0.41,0.41,0,0,0,.24.26c0.96,0.56,1.39,1.18,1.97,2.81a1.246,1.246,0,0,0,1.17,1.03,1.152,1.152,0,0,0,1.13-1.24c0-1.25-.89-2.21-2.54-2.72A8.53,8.53,0,0,0,1661.56,1288.69Zm11.49,11.79,0.57-.17a0.52,0.52,0,0,0,.39-0.48,0.511,0.511,0,0,0-.24-0.41l-2.09-1.34a65.965,65.965,0,0,1-4.46,8.83c-1.01.05-1.37,0.07-2.07,0.07l1.18,2.5a0.46,0.46,0,0,0,.43.31,0.52,0.52,0,0,0,.46-0.31l0.33-.7,0.89-.33,2.26-.87,0.98-.38a3.269,3.269,0,0,1,.07.48,3.949,3.949,0,0,0,.12,1.01,0.9,0.9,0,0,0,.89.81,1.32,1.32,0,0,0,1.18-1.56,4,4,0,0,0-2.38-3.34,3.944,3.944,0,0,0-.89-0.45,0.116,0.116,0,0,0-.12.12c0,0.02.03,0.05,0.15,0.31,0.4,0.75.52,0.96,0.57,1.06a4.619,4.619,0,0,1,.27.96c-0.89.07-1.06,0.09-1.66,0.12-0.29.02-.86,0.07-1.7,0.12,0.55-.75.91-1.2,2.54-3.32l1.66-2.18Zm-4.25-12.24a0.154,0.154,0,0,0-.17.09,0.54,0.54,0,0,0,.22.34,5.573,5.573,0,0,1,1.51,3.65,1.183,1.183,0,0,0,1.15,1.24,1.308,1.308,0,0,0,1.18-1.53,3.679,3.679,0,0,0-2.31-3.17A7.679,7.679,0,0,0,1668.8,1288.24Zm13.03,11.95a0.47,0.47,0,0,0,.29-0.43,0.519,0.519,0,0,0-.29-0.48l-2.16-1.35a50.153,50.153,0,0,1-4.32,8.86l-1.37.05,1.23,2.54a0.466,0.466,0,0,0,.41.27,0.58,0.58,0,0,0,.48-0.36l0.31-.75c1.63-.65,1.7-0.67,3.86-1.53,0.22,1.63.48,2.08,1.25,2.08,0.67,0,1.1-.62,1.1-1.56,0-1.29-.93-2.4-2.85-3.33a1.97,1.97,0,0,0-.75-0.32,0.2,0.2,0,0,0-.19.15,0.491,0.491,0,0,0,.22.33,5.1,5.1,0,0,1,1.05,2c-2.32.26-2.66,0.29-3.88,0.38,1.36-1.7,3.38-4.3,4.89-6.31Zm-18.91,30.21h2.4v1.61a0.278,0.278,0,0,0,.34.31,4.865,4.865,0,0,0,.93-0.16c0.58-.17.75-0.29,0.75-0.53v-3.79h5.54a24.406,24.406,0,0,1-7.1,9.53,0.735,0.735,0,0,0-.41.45,0.116,0.116,0,0,0,.12.12,13.906,13.906,0,0,0,2.98-1.82,26.328,26.328,0,0,0,4.79-4.71v6.82c0,0.22.15,0.31,0.41,0.31a3.917,3.917,0,0,0,.87-0.14c0.64-.15.81-0.27,0.81-0.6v-8.84a18.387,18.387,0,0,0,5.45,8.31,4.409,4.409,0,0,1,2.18-2.14,17.293,17.293,0,0,1-4.97-3.6,11.835,11.835,0,0,1-2.42-3.69h6.72a0.366,0.366,0,0,0,.34-0.34,0.836,0.836,0,0,0-.29-0.53l-1.87-1.61-1.64,1.83h-3.5v-4.56h5.93a0.3,0.3,0,0,0,.33-0.31,0.76,0.76,0,0,0-.36-0.58l-1.77-1.54-1.54,1.78h-2.59v-3.96l0.31-.22a0.728,0.728,0,0,0,.44-0.6,0.576,0.576,0,0,0-.65-0.48l-2.19-.24v5.5h-1.82c-0.07,0-.72,0-1.37-0.02l-1.84-.08,0.45,0.82,1.42-.05c0.6-.02,1.1-0.02,1.34-0.02h1.82v4.56h-5.92v-5.31l0.29-.14a0.514,0.514,0,0,0,.31-0.43,0.845,0.845,0,0,0-.31-0.6l-1.59-1.8-0.77,1.25h-2.28l-2.06-1.11v14.79a0.289,0.289,0,0,0,.31.31,6.356,6.356,0,0,0,1.39-.29,0.375,0.375,0,0,0,.29-0.43v-3.03Zm0-9.6h2.4v8.96h-2.4v-8.96Zm-2.28,33.05,2.31,0.99,3.36-9.48-0.75-.32Zm4.25,0,2.3,0.99,3.36-9.48-0.74-.32Zm6.98,22.39a2.039,2.039,0,0,1-1.13.77,2.609,2.609,0,0,0,.08-0.6,1.639,1.639,0,0,0-.6-1.51,1.915,1.915,0,0,0-1.18-.38,1.866,1.866,0,0,0-1.39.43c0,0.07.05,0.09,0.17,0.12,0.55,0.02.93,0.74,0.93,1.75a2.921,2.921,0,0,1-.09.74,6.6,6.6,0,0,1-2.55.53,1.94,1.94,0,0,1-1.56-.43,0.345,0.345,0,0,0-.19-0.12,0.106,0.106,0,0,0-.09.12,2.125,2.125,0,0,0,2.06,1.85,11.035,11.035,0,0,0,2.14-.34c-0.89,2.74-1.97,4.23-4.71,6.46-0.69.53-.74,0.6-0.74,0.96,0,0.89.69,1.99,1.22,1.99a1.262,1.262,0,0,0,.96-0.82c0.51-.84,1.75-2.71,2.02-3.04a2.723,2.723,0,0,1,1.75-1.06c0.79,0,1.2.79,1.22,2.38l0.03,1.03v0.48a18.4,18.4,0,0,0-2.21,1.44,3.869,3.869,0,0,0-1.78,2.93,3.1,3.1,0,0,0,1.71,2.59,8.4,8.4,0,0,0,4.05.79,18.654,18.654,0,0,0,3.65-.34c0.98-.24,1.49-0.64,1.49-1.17a2.049,2.049,0,0,0-.51-1.08,1.377,1.377,0,0,0-1.03-.43,2.72,2.72,0,0,0-.72.16,14.162,14.162,0,0,1-3.72.53c-2.3,0-3.36-.48-3.36-1.53a2.819,2.819,0,0,1,.82-1.8,7.916,7.916,0,0,1,1.65-1.32v0.45l-0.02.96a4.14,4.14,0,0,1-.05.77,1.278,1.278,0,0,0-.02.26,0.519,0.519,0,0,0,.57.41,1.306,1.306,0,0,0,1.49-1.53c0-.44-0.02-0.82-0.07-2.21a44,44,0,0,1,6.67-2.71c1.63-.58,2.28-1.18,2.28-2.09,0-1.54-1.39-2.64-3.31-2.64-2.66,0-4.7,1.8-6.22,5.47a2.707,2.707,0,0,0-.74-1.87,2.581,2.581,0,0,0-1.73-.63,3.58,3.58,0,0,0-1.27.29c0.99-1.65,1.37-2.37,2.47-4.56,2.38-.69,2.95-1.03,2.95-1.68,0-.31,0-0.31-1-0.65Zm0.15,10.23v-0.05a5.822,5.822,0,0,1,.96-2.33c1.2-2.01,2.64-3.12,4.08-3.12a1.328,1.328,0,0,1,1.22,1.27c0,0.68,0,.68-6.29,4.3Zm7.17,16.7a1.118,1.118,0,0,0-1.08.31c0,0.1.1,0.15,0.36,0.24a3.8,3.8,0,0,1,2.14,1.9,0.65,0.65,0,0,0,.64.36,1.015,1.015,0,0,0,1.06-.94C1682.31,1404.08,1680.77,1403.17,1679.19,1403.17Zm-2.57,1.92a0.972,0.972,0,0,0-.96.27c0,0.14.05,0.19,0.34,0.26a3.542,3.542,0,0,1,1.99,1.68,0.8,0.8,0,0,0,.72.55,1.034,1.034,0,0,0,1.06-.91C1679.77,1405.98,1678.28,1405.09,1676.62,1405.09Zm-10.03.22c-0.07,0-.09.05-0.09,0.14a4,4,0,0,0,3.29,3.72,0.194,0.194,0,0,1,.19.19,0.343,0.343,0,0,1-.15.24,8.5,8.5,0,0,0-1.51,1.64,0.129,0.129,0,0,0,.12.12,3.46,3.46,0,0,0,.53-0.24,15.431,15.431,0,0,1,5.9-1.49c0.89-.03,1.27-0.24,1.27-0.72a3.43,3.43,0,0,0-.36-1.23,1.43,1.43,0,0,0-1.2-.86,4.633,4.633,0,0,0-1.08.22,8.572,8.572,0,0,1-2.16.31c-1.82,0-3.98-.89-4.63-1.92A0.148,0.148,0,0,0,1666.59,1405.31Zm-0.84,9.17c-0.5,0-1.15,1.65-1.15,2.95,0,3.55,2.86,5.5,8.02,5.5a18.368,18.368,0,0,0,4.94-.6,1.421,1.421,0,0,0,1.25-1.42,1.5,1.5,0,0,0-1.66-1.35,3.162,3.162,0,0,0-1.05.24,16.943,16.943,0,0,1-4.56.7,8.245,8.245,0,0,1-4.15-.94,3.9,3.9,0,0,1-1.73-3.45,6.444,6.444,0,0,1,.17-1.44,0.217,0.217,0,0,0,.02-0.1A0.1,0.1,0,0,0,1665.75,1414.48Zm13.27,37.29h-8.35v-0.98c2.52-1.01,3.48-2.47,3.84-5.83h1.25v3.57c0,1.04.43,1.18,3.43,1.18,2.21,0,3.07-.24,3.07-0.89a0.707,0.707,0,0,0-.48-0.65c-0.57-.41-0.57-0.43-0.57-0.69-0.05-1.18-.05-1.28-0.08-1.49v-0.31c-0.02-.17-0.07-0.24-0.19-0.24s-0.12,0-.31.55a9.061,9.061,0,0,1-.65,1.8c-0.14.21-.38,0.26-1.2,0.26h-0.17l-0.52-.02c-0.34,0-.39-0.05-0.36-0.39v-2.68h4.58a0.352,0.352,0,0,0,.36-0.32,0.881,0.881,0,0,0-.26-0.48l-1.59-1.63-1.44,1.78h-0.74v-7.83h3.21a0.415,0.415,0,0,0,.46-0.33,0.631,0.631,0,0,0-.19-0.36l-1.49-1.61-1.27,1.66h-0.72v-2.55l0.45-.33a0.653,0.653,0,0,0,.36-0.53,0.46,0.46,0,0,0-.43-0.41l-2.42-.29v4.11h-3.94v-2.62l0.48-.36a0.623,0.623,0,0,0,.22-0.41,0.648,0.648,0,0,0-.55-0.53l-2.14-.21v4.13h-0.6c-1.15,0-1.68-.03-3.21-0.1l0.45,0.82c1.28-.05,1.83-0.08,2.76-0.08h0.6v7.83h-1.08c-1.05,0-1.65-.03-3.19-0.1l0.43,0.82c0.89-.03,1.04-0.03,1.78-0.05v1.58c-1.39.39-1.87,0.48-3.12,0.75v-7.54h3.36a0.36,0.36,0,0,0,.43-0.33,0.685,0.685,0,0,0-.26-0.44l-1.44-1.48-1.23,1.6h-0.86v-5.37l0.48-.24a0.686,0.686,0,0,0,.38-0.58,0.451,0.451,0,0,0-.48-0.38l-2.59-.27v6.84c-1.58-.02-1.82-0.02-3.28-0.09l0.45,0.81c1.15-.04,1.37-0.04,2.83-0.07v8.02c-1.46.31-1.68,0.36-3.21,0.62l1.39,2.14a0.665,0.665,0,0,0,.55.38,0.513,0.513,0,0,0,.46-0.48l0.09-.52c2.47-1.09,4.32-2,6.05-2.91v6.31a0.4,0.4,0,0,0,.46.48c0.79,0,1.6-.4,1.6-0.76v-0.63h11.5a0.438,0.438,0,0,0,.52-0.33,0.724,0.724,0,0,0-.38-0.53l-1.85-1.42Zm-8.35-6.81h1.92c0.03,2.25-.72,4.27-1.92,5.18v-5.18Zm1.99-.65v-2.43h3.94v2.43h-3.94Zm0-3.07v-2.07h3.94v2.07h-3.94Zm0-2.72v-2.04h3.94v2.04h-3.94Zm-5.44,24a0.515,0.515,0,0,0,.45-0.48,0.64,0.64,0,0,0-.45-0.5l-2.14-1.15a40.949,40.949,0,0,1-2.21,5.69h-2.73l0.96,2.11c0.14,0.36.24,0.45,0.43,0.45a0.552,0.552,0,0,0,.48-0.4l0.24-.41c4.18-.77,4.87-0.91,6.96-1.35,0.26,0.6.38,0.87,0.48,1.18a3.038,3.038,0,0,0,.29.79,0.866,0.866,0,0,0,.79.43,1.236,1.236,0,0,0,1.08-1.36c0-1.04-1.11-2.33-2.69-3.17a6.709,6.709,0,0,0-1.92-.72c-0.07,0-.12.02-0.12,0.07a0.166,0.166,0,0,0,.1.14,8.629,8.629,0,0,1,1.63,1.95l-0.48.02c-1.75.12-2.47,0.15-4.56,0.22,1.03-1.11,2.09-2.33,2.95-3.41Zm-3.17,13.71h3.89v2.97c0,0.46-.12.56-0.72,0.56h-0.67l-0.8-.03h-0.36c-0.31,0-.43.05-0.43,0.19,0,0.12.1,0.2,0.41,0.29a5.242,5.242,0,0,0,.7.24c0.21,0.1.5,0.19,0.81,0.31a0.6,0.6,0,0,1,.46.72c0.02,0.68.12,0.92,0.38,0.92a3.338,3.338,0,0,0,1.32-.48,1.748,1.748,0,0,0,.99-1.42v-9.05l0.28-.17a0.552,0.552,0,0,0,.39-0.48,0.908,0.908,0,0,0-.29-0.52l-1.63-1.85-0.82,1.2h-3.84l-2.11-.96v13.44c0,0.29.12,0.38,0.48,0.38,0.82,0,1.56-.36,1.56-0.74v-5.52Zm0-.65v-2.3h3.89v2.3h-3.89Zm0-2.95v-2.35h3.89v2.35h-3.89Zm10.2,0.72,0.43-.22a0.534,0.534,0,0,0,.38-0.48,0.459,0.459,0,0,0-.52-0.41l-2.24-.21v8.66c0,1.08.29,1.15,5.52,1.15a14.755,14.755,0,0,0,4.06-.31,0.943,0.943,0,0,0,.69-0.81,1.025,1.025,0,0,0-.57-0.82,0.619,0.619,0,0,1-.39-0.65c0-.05.03-0.57,0.05-1.25,0.07-1.53.07-1.53,0.07-1.56,0-.19-0.07-0.31-0.19-0.31a0.333,0.333,0,0,0-.26.31c-0.17.58-.48,1.44-0.75,2.14-0.4,1.08-.62,1.34-1.12,1.44a24,24,0,0,1-2.83.12,14.084,14.084,0,0,1-2.04-.07c-0.24-.07-0.29-0.19-0.29-0.75V1477a59.113,59.113,0,0,0,6.02-2.4h0.43c0.41-.03.6-0.12,0.6-0.32a0.6,0.6,0,0,0-.24-0.43l-1.61-1.46a23.6,23.6,0,0,1-5.2,3.91v-2.95Zm0.07-11.07,0.53-.31a0.7,0.7,0,0,0,.43-0.57,0.473,0.473,0,0,0-.5-0.44l-2.4-.24v9.53c0,1.18.26,1.25,4.68,1.25,3.98,0,5.44-.31,5.44-1.2a0.692,0.692,0,0,0-.33-0.6c-0.68-.41-0.68-0.41-0.68-0.89a4.958,4.958,0,0,1,.03-0.62c0.02-.55.02-0.91,0.02-1.06l0.03-.53v-0.07c0-.21-0.05-0.29-0.17-0.29a0.27,0.27,0,0,0-.24.27c-1.01,2.97-1.15,3.17-2.47,3.19l-1.75.05h-1.52c-1.05-.03-1.12-0.05-1.1-0.6v-1.95c1.15-.45,2.71-1.15,5.61-2.54l0.68-.07c0.45-.05.64-0.17,0.64-0.41a0.818,0.818,0,0,0-.31-0.48l-1.7-1.54a23.383,23.383,0,0,1-4.92,4.3v-4.18Zm1.06,34.49a2.244,2.244,0,0,0-1.66.51c0,0.07.07,0.12,0.24,0.12,2.45-.12,4.22,1.77,4.61,4.89,0.09,1.15.12,1.2,0.36,1.49a1.109,1.109,0,0,0,.76.31,1.682,1.682,0,0,0,1.54-1.82,5.2,5.2,0,0,0-1.46-3.48A5.632,5.632,0,0,0,1675.38,1496.77Zm-12.86-3.86a0.284,0.284,0,0,0-.32.14,0.222,0.222,0,0,0,.12.17c0.87,0.46,1.27,1.39,1.27,2.88,0,0.24,0,.5-0.02.86-0.05,1.08-.1,2.19-0.1,2.64a11.993,11.993,0,0,0,1.88,7.11,4.869,4.869,0,0,0,3.69,2.33,1.14,1.14,0,0,0,1.22-.92,0.533,0.533,0,0,0-.04-0.19,3.271,3.271,0,0,1-.72-2.06,14.121,14.121,0,0,1,.81-4.23,0.11,0.11,0,0,0,.03-0.09,0.169,0.169,0,0,0-.17-0.17c-0.12,0-.41.48-1.2,2.09a12.732,12.732,0,0,1-.96,1.85,0.817,0.817,0,0,1-.62.43,1.407,1.407,0,0,1-.82-0.65,6.55,6.55,0,0,1-1.15-4.15,14.808,14.808,0,0,1,.57-4.2,3.367,3.367,0,0,0,.27-1.03,2.9,2.9,0,0,0-.7-1.64A4.75,4.75,0,0,0,1662.52,1492.91Zm13.02,33.74c0.82,0,1.64.29,1.64,0.58,0,0.12,0,.12-0.82.65-0.65.45-.98,0.67-1.01,0.69a0.273,0.273,0,0,0-.19.22,0.151,0.151,0,0,0,.14.12,0.828,0.828,0,0,0,.29-0.1,6.075,6.075,0,0,1,2.35-.43,6.639,6.639,0,0,1,1.49.17,3.334,3.334,0,0,0,.43.09,0.656,0.656,0,0,0,.67-0.79c0-1.44-1.51-2.52-3.57-2.52a5.682,5.682,0,0,0-2.9.72,2.175,2.175,0,0,0-.89.99,0.132,0.132,0,0,0,.12.09,0.1,0.1,0,0,0,.07-0.02A4.642,4.642,0,0,1,1675.54,1526.65Zm0.89,9.36q-4.17,0-4.17-2.78a7.857,7.857,0,0,1,.19-1.56,0.323,0.323,0,0,0,.02-0.12,0.143,0.143,0,0,0-.12-0.15c-0.38,0-.98,1.61-0.98,2.64a3.9,3.9,0,0,0,2.61,3.82,12.131,12.131,0,0,0,4.23.63c2.04,0,2.71-.34,2.71-1.37a1.43,1.43,0,0,0-1.63-1.42Zm-6.5-14.47,0.05-.24,0.05-.29c0.02-.02.04-0.12,0.09-0.21a1.162,1.162,0,0,0,.14-0.46c0-.65-1.43-1.56-2.47-1.56a1.856,1.856,0,0,0-1.46.7,0.14,0.14,0,0,0,.14.09,0.164,0.164,0,0,0,.1-0.02h0.05a1.965,1.965,0,0,1,.6.21,1.723,1.723,0,0,1,.69,1.66,16.494,16.494,0,0,1-.4,3.41,12.12,12.12,0,0,1-3.34.45,2.415,2.415,0,0,1-2.11-.86c-0.14-.26-0.14-0.29-0.24-0.29a0.155,0.155,0,0,0-.12.19,3.857,3.857,0,0,0,.72,2,2.224,2.224,0,0,0,1.85.88,11.525,11.525,0,0,0,2.85-.38,33.578,33.578,0,0,1-4.15,10.03,1.7,1.7,0,0,0-.43.96,1.663,1.663,0,0,0,1.58,1.42,1.525,1.525,0,0,0,1.08-.48,5.143,5.143,0,0,0,.94-2.09c1.01-3.12,1.94-6.48,2.88-10.34a18.748,18.748,0,0,0,3.24-1.64,1.488,1.488,0,0,0,.81-1.29,0.518,0.518,0,0,0-.55-0.58,4.344,4.344,0,0,1-2.61-1.2Zm-0.19.62a3.55,3.55,0,0,1,1.24,1.25,3.419,3.419,0,0,1-1.72.94l0.29-1.37Zm8.61,25.32a1.515,1.515,0,0,0-1.13.22,0.272,0.272,0,0,0,.27.22,3.517,3.517,0,0,1,1.94,1.56c0.5,0.84.53,0.84,1.01,0.84a0.911,0.911,0,0,0,.93-0.96C1681.37,1548.42,1679.86,1547.48,1678.35,1547.48Zm-2.81,1.64c-0.62,0-.84.04-0.84,0.21,0,0.1.05,0.15,0.27,0.22a4.313,4.313,0,0,1,2.06,2.04,0.693,0.693,0,0,0,.72.55,0.936,0.936,0,0,0,.94-0.98C1678.69,1550.1,1677.18,1549.12,1675.54,1549.12Zm0.87,15.69c-2.74,0-4.15-.93-4.15-2.78a8.032,8.032,0,0,1,.19-1.56,0.323,0.323,0,0,0,.02-0.12,0.143,0.143,0,0,0-.12-0.15c-0.38,0-.98,1.61-0.98,2.64a3.889,3.889,0,0,0,2.61,3.82,12.131,12.131,0,0,0,4.23.63c2.04,0,2.71-.34,2.71-1.37a1.43,1.43,0,0,0-1.63-1.42Zm-6.48-14.47,0.05-.24,0.05-.29c0.02-.02.04-0.12,0.09-0.21a1.162,1.162,0,0,0,.14-0.46c0-.65-1.43-1.56-2.47-1.56a1.856,1.856,0,0,0-1.46.7,0.14,0.14,0,0,0,.14.09,0.164,0.164,0,0,0,.1-0.02h0.05a1.965,1.965,0,0,1,.6.21,1.723,1.723,0,0,1,.69,1.66,16.494,16.494,0,0,1-.4,3.41,12.12,12.12,0,0,1-3.34.45,2.415,2.415,0,0,1-2.11-.86c-0.14-.26-0.14-0.29-0.24-0.29a0.155,0.155,0,0,0-.12.19,3.857,3.857,0,0,0,.72,2,2.224,2.224,0,0,0,1.85.88,11.525,11.525,0,0,0,2.85-.38,33.578,33.578,0,0,1-4.15,10.03,1.7,1.7,0,0,0-.43.96,1.663,1.663,0,0,0,1.58,1.42,1.525,1.525,0,0,0,1.08-.48,5.143,5.143,0,0,0,.94-2.09c1.01-3.12,1.94-6.48,2.88-10.34a18.748,18.748,0,0,0,3.24-1.64,1.488,1.488,0,0,0,.81-1.29,0.518,0.518,0,0,0-.55-0.58,4.344,4.344,0,0,1-2.61-1.2Zm-0.19.62a3.55,3.55,0,0,1,1.24,1.25,3.419,3.419,0,0,1-1.72.94l0.29-1.37Zm5.8,4.49c0.82,0,1.64.29,1.64,0.58,0,0.12,0,.12-0.82.65-0.65.45-.98,0.67-1.01,0.69a0.273,0.273,0,0,0-.19.22,0.151,0.151,0,0,0,.14.12,0.828,0.828,0,0,0,.29-0.1,6.075,6.075,0,0,1,2.35-.43,6.639,6.639,0,0,1,1.49.17,3.334,3.334,0,0,0,.43.09,0.656,0.656,0,0,0,.67-0.79c0-1.44-1.51-2.52-3.57-2.52a5.682,5.682,0,0,0-2.9.72,2.175,2.175,0,0,0-.89.99,0.132,0.132,0,0,0,.12.09,0.1,0.1,0,0,0,.07-0.02A4.642,4.642,0,0,1,1675.54,1555.45Zm-12.16,22.11a0.158,0.158,0,0,0-.17.14,0.222,0.222,0,0,0,.12.17,2.782,2.782,0,0,1,.89,2.4,14.269,14.269,0,0,1-.22,2.13c-0.74,4.08-.79,4.4-0.79,6.12,0,3.24,1.56,6.34,3.19,6.34a0.935,0.935,0,0,0,.96-0.89,0.73,0.73,0,0,0-.07-0.31,3.423,3.423,0,0,1-.38-1.82,23.363,23.363,0,0,1,.88-4.73,3.5,3.5,0,0,0,.15-0.72,0.16,0.16,0,0,0-.17-0.19c-0.12,0-.22.12-0.36,0.52-0.07.17-.22,0.58-0.46,1.16-0.31.76-.76,1.92-1.03,2.68a0.532,0.532,0,0,1-.41.48c-0.38,0-.72-1.12-0.72-2.44a16.077,16.077,0,0,1,1.25-5.5,5.52,5.52,0,0,0,.63-2.16,3.464,3.464,0,0,0-1.88-2.78A3.649,3.649,0,0,0,1663.38,1577.56Zm13.82,4.75c0.02-.55.02-1.25,0.05-2.16a3.141,3.141,0,0,1,.17-1.11,0.82,0.82,0,0,0,.12-0.31c0-.77-1.49-1.85-2.55-1.85a2.412,2.412,0,0,0-1.63.6,0.139,0.139,0,0,0,.17.12c1.34,0.12,1.7,1.2,1.75,5.31a8,8,0,0,1-2.52.48,3.646,3.646,0,0,1-2.33-.7c-0.21-.24-0.21-0.24-0.28-0.24a0.154,0.154,0,0,0-.15.15,3.484,3.484,0,0,0,.72,1.17,3.4,3.4,0,0,0,2.59,1.15,9.486,9.486,0,0,0,2.11-.24c0,4.83-.16,6.12-1,7.97a8.5,8.5,0,0,1-4.18,3.91c-0.48.22-.48,0.22-0.48,0.32a0.236,0.236,0,0,0,.22.19,12.088,12.088,0,0,0,3-1.01c3.36-1.63,4.58-3.89,4.58-8.38,0-.84-0.02-1.41-0.1-3.4,2.86-1.01,3.91-1.66,3.91-2.36a1.024,1.024,0,0,0-.69-0.86,2.21,2.21,0,0,0-.96-0.36,0.906,0.906,0,0,0-.79.48A4.29,4.29,0,0,1,1677.2,1582.31Zm-2.64,40.75c-0.1-.17-0.14-0.29-0.19-0.36a3.827,3.827,0,0,0-3.6-2.11c-1.68,0-2.69.77-2.69,2.06,0,1.42,1.56,2.33,3.94,2.33a8.191,8.191,0,0,0,5.35-1.77,5.816,5.816,0,0,0,1.96-4.21c0-2.66-2.27-4.65-5.35-4.65a7.679,7.679,0,0,0-3.62.84,0.1,0.1,0,0,1-.07.02,0.047,0.047,0,0,1-.05-0.05c0-.69,3.67-4.65,5.28-5.68a1.288,1.288,0,0,0,.86-0.99c0-.72-1.89-1.99-3-1.99a1.717,1.717,0,0,0-.93.34,11.658,11.658,0,0,1-5.02,1.8,0.945,0.945,0,0,1-.96-0.51c-0.07-.19-0.09-0.21-0.14-0.21-0.14,0-.22.26-0.22,0.76a1.969,1.969,0,0,0,.39,1.28,2.027,2.027,0,0,0,1.41.88,1.684,1.684,0,0,0,1.06-.57,11.821,11.821,0,0,1,3.65-2.14,0.272,0.272,0,0,1,.26.29c0,0.96-2.04,4.03-4.44,6.7-1.03,1.15-2.81,2.95-3.84,3.88a1.537,1.537,0,0,0-.67,1.16,2.131,2.131,0,0,0,1.54,1.87c0.31,0,.55-0.24.88-0.96a18.109,18.109,0,0,1,2.31-3.6,6.135,6.135,0,0,1,4.63-2.23,3.653,3.653,0,0,1,2.33.91,3.7,3.7,0,0,1,1.15,2.88,5.2,5.2,0,0,1-.55,2.42A4.279,4.279,0,0,1,1674.56,1623.06Zm-2.16.58c-0.31.02-.5,0.02-0.55,0.02-1.35,0-2.52-.57-2.52-1.25a1,1,0,0,1,1.15-.86C1671.54,1621.55,1672.18,1622.25,1672.4,1623.64Zm-78.98-349.32h15.43v6.09h1.44v-7.53h-16.87v1.44Zm-4.13,34.7c3.07-.12,3.17-0.12,4.23-0.12h16.67a0.367,0.367,0,0,0,.41-0.36,0.614,0.614,0,0,0-.24-0.43l-2.04-1.8-1.78,1.94h-5.9v-3.96h7.97a0.285,0.285,0,0,0,.24-0.29,0.384,0.384,0,0,0-.19-0.31l-2.04-1.8-1.59,1.75h-4.39v-4.05h4.58v1.05a0.512,0.512,0,0,0,.58.56,4.222,4.222,0,0,0,1.1-.2,0.7,0.7,0,0,0,.65-0.64v-8.5l0.41-.17a0.485,0.485,0,0,0,.36-0.5,0.591,0.591,0,0,0-.19-0.43l-2.28-2.24-0.96,1.49h-10.94l-2.62-1.32v12.67a0.479,0.479,0,0,0,.55.58c1.13,0,1.76-.26,1.76-0.72v-1.63h4.67v4.05h-3.67c-0.43,0-1.1-.02-1.92-0.04l-2.23-.08,0.53,0.87c2.02-.07,2.78-0.1,3.62-0.1h3.67v3.96h-4.79c-0.24,0-1.25-.02-2.28-0.05-0.82-.02-1.64-0.04-2.45-0.09Zm4.35-10.08v-3.77h4.67v3.77h-4.67Zm0-4.42v-3.86h4.67v3.86h-4.67Zm7,4.42v-3.77h4.58v3.77h-4.58Zm0-8.28h4.58v3.86h-4.58v-3.86Zm-8.16,45.19h13.87v1.3c0,0.53.1,0.62,0.51,0.62a3.576,3.576,0,0,0,1.17-.21,0.688,0.688,0,0,0,.58-0.77v-13.66l0.55-.43a0.637,0.637,0,0,0,.24-0.46,0.491,0.491,0,0,0-.5-0.48l-2.55-.21v13.66h-5.85v-16.37l0.62-.53a0.561,0.561,0,0,0,.24-0.41,0.459,0.459,0,0,0-.5-0.43l-2.71-.17v17.91h-5.67v-11.96l0.56-.36a0.719,0.719,0,0,0,.38-0.55,0.515,0.515,0,0,0-.55-0.5l-2.64-.17v16.1a0.465,0.465,0,0,0,.5.56,4.2,4.2,0,0,0,1.3-.27,0.55,0.55,0,0,0,.45-0.55v-1.66Zm-2.56,14.04a0.159,0.159,0,0,0-.17.15,3.277,3.277,0,0,0,.05.38,1.9,1.9,0,0,1,.02.38,4.46,4.46,0,0,1-.26,1.59,4.529,4.529,0,0,1-.99,1.7,2.175,2.175,0,0,0-.53,1.3,1.014,1.014,0,0,0,1.04,1.1,1.579,1.579,0,0,0,1.46-1.08,7.09,7.09,0,0,0,.38-2.3,6.178,6.178,0,0,0-.74-2.91C1590.04,1349.94,1590.01,1349.89,1589.92,1349.89Zm5.99,6.7a0.354,0.354,0,0,0,.44.41c1.17,0,1.56-.17,1.56-0.72v-0.84h8.92v0.81c0,0.22.15,0.31,0.43,0.31a4.089,4.089,0,0,0,1.25-.21,0.535,0.535,0,0,0,.39-0.58v-2.93l0.38-.24a0.458,0.458,0,0,0,.34-0.4,0.844,0.844,0,0,0-.27-0.53l-1.99-1.87-0.82,1.36h-3.04v-2.04h6.64c0.41,0,.55-0.07.55-0.26a0.749,0.749,0,0,0-.33-0.46l-1.97-1.68-1.58,1.76h-3.31v-1.71l0.6-.38a0.466,0.466,0,0,0,.24-0.41,0.471,0.471,0,0,0-.53-0.5l-2.45-.24v3.24h-2.37c-1.08,0-2.02-.03-4.16-0.12l0.51,0.86c2.11-.07,2.21-0.07,3.65-0.1h2.37v2.04h-3.12l-2.33-.91v2.21a3.266,3.266,0,0,0-2.42-1.78v-3.74l0.6-.48a0.863,0.863,0,0,0,.31-0.6,0.452,0.452,0,0,0-.5-0.48l-2.57-.19v22.01c0,0.24.15,0.31,0.53,0.31,1.06,0,1.63-.29,1.63-0.79v-15.24a3.148,3.148,0,0,1,.46,1.03c0.38,1.7.45,1.85,0.96,1.85a1.635,1.635,0,0,0,1-.39v2.62Zm5.45-.72v2.23h-3.09c-0.46,0-1.16-.02-2-0.05l-2.18-.07,0.48,0.86c1.92-.07,2.74-0.09,3.7-0.09h1.68a19.591,19.591,0,0,1-4.64,4.53c-1.22.8-1.22,0.8-1.22,0.89a0.174,0.174,0,0,0,.19.19,6.617,6.617,0,0,0,1.75-.64,25.11,25.11,0,0,0,2.96-1.68v2.56c-1.47.2-1.68,0.22-2.93,0.32l1.41,2.3a0.657,0.657,0,0,0,.63.43,0.671,0.671,0,0,0,.6-0.45l0.21-.46c1.92-.7,2.72-0.98,3.15-1.15,0.67-.27.91-0.39,3.45-1.44a16.82,16.82,0,0,0,3.39,2.9,5.507,5.507,0,0,1,2.11-2.18,17.146,17.146,0,0,1-5.07-2.88,18.463,18.463,0,0,0,2.91-1.15h0.5a0.351,0.351,0,0,0,.43-0.36,0.431,0.431,0,0,0-.14-0.32l-1.68-1.36a19.922,19.922,0,0,1-2.59,2.68,7.988,7.988,0,0,1-2.02-2.73h7.13a0.33,0.33,0,0,0,.41-0.31,0.511,0.511,0,0,0-.27-0.41l-1.96-1.66-1.59,1.73h-3.55v-0.72l0.48-.24a0.7,0.7,0,0,0,.48-0.58,0.545,0.545,0,0,0-.6-0.52Zm-3.48-1.08v-2.98h1.75v2.98h-1.75Zm3.24,5.54a10.385,10.385,0,0,0,1.49-1.32,13.343,13.343,0,0,0,2.47,4.66c-1.94.38-2.23,0.43-3.96,0.67v-4.01Zm0.48-8.52h1.68v2.98h-1.68v-2.98Zm3.55,2.98v-2.98h1.68v2.98h-1.68Zm-8.35,39.02h8.06v1.32c0,0.24.12,0.34,0.41,0.34,0.79,0,1.83-.38,1.83-0.67v-8.02l0.64-.29a0.6,0.6,0,0,0,.32-0.48,0.674,0.674,0,0,0-.24-0.45l-2.31-2.16-0.93,1.44h-7.73l-0.5-.44a29.786,29.786,0,0,0,3.14-7.05h10.84a0.31,0.31,0,0,0,.29-0.34,0.382,0.382,0,0,0-.17-0.31l-2.39-1.92-1.73,1.92H1593.8c-0.33,0-1.12-.02-1.99-0.05l-2.73-.07,0.57,0.89,2.33-.07c0.77-.05,1.42-0.05,1.82-0.05h3.05a23.476,23.476,0,0,1-8.18,13.61,0.607,0.607,0,0,0-.27.31,0.173,0.173,0,0,0,.15.17,10.755,10.755,0,0,0,2.23-1.35,24.761,24.761,0,0,0,3.84-3.43v8.98c0,0.21.12,0.31,0.41,0.31,0.84,0,1.77-.34,1.77-0.62v-1.52Zm0-.64v-7.69h8.06v7.69h-8.06Zm8.76,16.22h-15.43v-6.1h-1.44v7.54h16.87v-1.44Zm1.13,29.4a1.1,1.1,0,0,0-1.06.29,0.326,0.326,0,0,0,.22.21,3.947,3.947,0,0,1,2.16,1.68c0.33,0.63.38,0.65,0.77,0.65a1.041,1.041,0,0,0,1.1-.94C1609.88,1439.72,1608.32,1438.79,1606.69,1438.79Zm-3,1.51c-0.36,0-.58.07-0.58,0.22a0.216,0.216,0,0,0,.15.16,3.47,3.47,0,0,1,1.84,1.85c0.29,0.7.41,0.82,0.92,0.82a0.978,0.978,0,0,0,1-.84C1607.02,1441.43,1605.3,1440.3,1603.69,1440.3Zm2.54-6.46c-0.53.29-.62,0.32-3.67,1.2-3.12.8-5.42,1.44-8.21,2.28a8.051,8.051,0,0,1-2.47.58,2.069,2.069,0,0,1-1.77-.96c-0.12-.24-0.12-0.26-0.22-0.26a0.155,0.155,0,0,0-.12.19,3.911,3.911,0,0,0,.29,1.58,3.5,3.5,0,0,0,2.42,1.8,0.926,0.926,0,0,0,.6-0.24,19.241,19.241,0,0,1,3.58-1.97,18.242,18.242,0,0,1,4.22-1.39,0.118,0.118,0,0,1,.12.07,0.916,0.916,0,0,1-.24.29,13.093,13.093,0,0,0-2.66,4.2,15.251,15.251,0,0,0-.99,4.99c0,2.74,1.08,4.52,3.29,5.36a12.919,12.919,0,0,0,4.37.81c1.29,0,1.97-.4,1.97-1.2a1.858,1.858,0,0,0-1.49-1.68,0.27,0.27,0,0,0-.15.03,14.39,14.39,0,0,1-1.89.17c-2.69,0-4.01-1.42-4.01-4.28a15.57,15.57,0,0,1,.96-5.4,5.57,5.57,0,0,1,2.69-3.09,6.8,6.8,0,0,1,3.19-.53,8.965,8.965,0,0,1,1.8.19,4.617,4.617,0,0,0,.48.05,0.745,0.745,0,0,0,.77-0.7,1.949,1.949,0,0,0-1.08-1.39A3.11,3.11,0,0,0,1606.23,1433.84Zm-81.09-161.52c2.93-1.82,4.41-2.42,5.95-2.42a2.428,2.428,0,0,1,2.42,2.71,3.71,3.71,0,0,1-3.64,3.75,1.96,1.96,0,0,1-1.97-2.19,4.152,4.152,0,0,1,.38-1.63,0.451,0.451,0,0,0,.05-0.17,0.129,0.129,0,0,0-.1-0.12c-0.5,0-1.29,1.63-1.29,2.67a4.7,4.7,0,0,0,.5,2.09,2.913,2.913,0,0,0,2.74,1.32,5.6,5.6,0,0,0,5.66-5.5c0-2.35-1.7-3.91-4.2-3.91-1.87,0-3.67.6-6.52,2.13v-1.1c0-.65.02-1.13,0.04-1.78,2.64-1.01,3.99-2.04,3.99-3.07a0.611,0.611,0,0,0-.58-0.67,3.249,3.249,0,0,0-.36.02h-0.17a7.151,7.151,0,0,1-2.68-.74,2.834,2.834,0,0,1,.28-1.01,0.667,0.667,0,0,0,.12-0.31c0-.65-1.34-1.54-2.28-1.54a1.971,1.971,0,0,0-1.63.84,0.192,0.192,0,0,0,.17.15h0.05a0.4,0.4,0,0,1,.26-0.08c0.72,0,1.06.56,1.2,2.04,0.15,1.59.19,2.33,0.19,3.03a9.311,9.311,0,0,1-2.85.48c-0.99,0-1.49-.22-1.68-0.72a0.133,0.133,0,0,0-.12-0.1c-0.12,0-.17.17-0.17,0.55a1.925,1.925,0,0,0,2.14,1.9,11.586,11.586,0,0,0,2.76-.41c0.07,0.96.07,1.47,0.07,3.1-1.08.55-1.92,1.01-3.67,1.92-1.44.79-1.44,0.79-1.76,0.79a0.547,0.547,0,0,1-.31-0.12,0.537,0.537,0,0,0-.43-0.22,0.909,0.909,0,0,0-.79.99c0,0.96,1.13,2.35,1.92,2.35,0.29,0,.38-0.07,1.32-1.1,0.45-.48.48-0.53,0.77-0.84a3.84,3.84,0,0,1,1.96,3.31c0,0.55.08,0.67,0.44,0.67a2.433,2.433,0,0,0,2.16-2.09,1.049,1.049,0,0,0-.03-0.26c-0.12-1.37-.14-1.95-0.29-4.39Zm-1.18,3.22c0,0.48-.12.79-0.33,0.79a11.419,11.419,0,0,1-2.31-1.37c0.92-.74,1.37-1.1,2.64-1.99-0.02.65-.02,0.89-0.02,1.3Zm1.3-11.33c0.41,0.19.86,0.43,1.39,0.7,0.12,0.05.14,0.07,0.14,0.17,0,0.4-.62.91-1.58,1.29l0.03-1.08Zm9.67,0.22a5.52,5.52,0,0,0-3.17.98,0.73,0.73,0,0,0-.41.41,0.117,0.117,0,0,0,.12.14,0.949,0.949,0,0,0,.29-0.07,3.555,3.555,0,0,1,1.15-.19,4.2,4.2,0,0,1,2.28.72,4.352,4.352,0,0,1,1.35,1.51,1.142,1.142,0,0,0,.36.72,1.093,1.093,0,0,0,.69.29,1.648,1.648,0,0,0,1.42-1.63C1539.01,1265.7,1537.21,1264.43,1534.93,1264.43Zm-9.89,31.99a17.76,17.76,0,0,0-2.04,1.15,3.1,3.1,0,0,0-1.63,2.4c0,1.08,1.03,2.07,2.74,2.59a11.357,11.357,0,0,0-.15,1.71c0,3.17,1.8,4.97,4.95,4.97a6.391,6.391,0,0,0,3.57-1.08,3.778,3.778,0,0,0,1.66-3.29c0-2.04-1.18-4.01-3.36-5.67a10.072,10.072,0,0,0-1.63-.98,0.161,0.161,0,0,0-.17.12,0.4,0.4,0,0,0,.19.26,8.352,8.352,0,0,1,2.64,5.86,2.967,2.967,0,0,1-3.14,3.22c-2.19,0-3.53-1.44-3.53-3.77a5.113,5.113,0,0,1,.1-1.13c0.67,0.07,1.43.12,2.03,0.12,1.25,0,1.8-.22,1.8-0.74a1.7,1.7,0,0,0-1.24-1.23,5.477,5.477,0,0,1-1.32.22c-0.22,0-.22,0-1.2-0.07a27.62,27.62,0,0,1,1-4.11,5.134,5.134,0,0,1,1.68-.31c1.18-.1,1.25-0.14,1.25-0.5a1.55,1.55,0,0,0-.98-1.4,1.1,1.1,0,0,1-.39.05,4.306,4.306,0,0,1-.67-0.07,19.748,19.748,0,0,1,1.01-2.33,2.654,2.654,0,0,0,.62-1.51c0-1.15-1.82-2.74-3.11-2.74a1.161,1.161,0,0,0-.89.34c0,0.05.02,0.07,0.26,0.17a1.9,1.9,0,0,1,.96,1.85,23.646,23.646,0,0,1-.55,3.88c-2.02-.4-3.19-0.98-3.5-1.7-0.15-.38-0.15-0.38-0.22-0.38a0.587,0.587,0,0,0-.19.6,2.921,2.921,0,0,0,1.41,2.3,6.258,6.258,0,0,0,2.19.7Zm-0.72,4.44c-1.12-.29-1.7-0.72-1.7-1.32,0-.74.65-1.34,2.38-2.26C1524.73,1298.53,1524.68,1298.89,1524.32,1300.86Zm9.94,17.78c-0.53.29-.63,0.32-3.67,1.2-3.05.8-5.35,1.42-8.21,2.28a8.234,8.234,0,0,1-2.47.58,2.042,2.042,0,0,1-1.78-.96c-0.12-.24-0.12-0.26-0.21-0.26a0.155,0.155,0,0,0-.12.19,3.687,3.687,0,0,0,.29,1.58,3.409,3.409,0,0,0,2.42,1.8,0.966,0.966,0,0,0,.6-0.24,20.244,20.244,0,0,1,3.57-1.97,18.277,18.277,0,0,1,4.23-1.39,0.127,0.127,0,0,1,.12.07,1.155,1.155,0,0,1-.24.29,13.042,13.042,0,0,0-2.67,4.2,15.13,15.13,0,0,0-.98,4.99c0,2.74,1.08,4.52,3.29,5.36a12.862,12.862,0,0,0,4.36.81c1.3,0,1.97-.4,1.97-1.17a1.848,1.848,0,0,0-1.49-1.68,3.505,3.505,0,0,0-.48.05,14.174,14.174,0,0,1-1.53.12c-2.71,0-4.03-1.4-4.03-4.3a14.756,14.756,0,0,1,.96-5.38,5.489,5.489,0,0,1,2.68-3.09,6.8,6.8,0,0,1,3.19-.53,6.378,6.378,0,0,1,1.04.07,7.045,7.045,0,0,0,1.22.17,0.751,0.751,0,0,0,.79-0.7,1.984,1.984,0,0,0-1.08-1.39A3.108,3.108,0,0,0,1534.26,1318.64Zm-2.93,33.72c1.3,0,2.49.56,2.49,1.16,0,0.21-.09.26-0.62,0.4a4.54,4.54,0,0,0-3.05,2.55,13.373,13.373,0,0,0-.38,4.37,10.483,10.483,0,0,0-1.18-.05,6.792,6.792,0,0,0-3.16.62,2.75,2.75,0,0,0-1.44,2.26c0,1.77,1.85,3.12,4.27,3.12a3.352,3.352,0,0,0,3.12-1.42,4.13,4.13,0,0,0,.48-2.18,9.5,9.5,0,0,1,2.44,1.87,1.807,1.807,0,0,0,1.25.72,1.116,1.116,0,0,0,1.01-1.15c0-1.18-1.87-2.52-4.7-3.36a33.479,33.479,0,0,1-.43-3.89c0-1.75.72-2.71,2.04-2.71a5.638,5.638,0,0,1,2.51.69,1.029,1.029,0,0,0,.87-1.15c0-1.58-1.63-2.85-3.67-2.85-1.13,0-2.91.55-2.91,0.91a0.16,0.16,0,0,0,.15.14,0.588,0.588,0,0,0,.17-0.02Zm-1.58,10.73a1.829,1.829,0,0,1-2.04,1.87c-1.42,0-2.35-.6-2.35-1.46,0-.91.88-1.51,2.18-1.51a6.184,6.184,0,0,1,2.21.41v0.69Zm-5.86-10.65a18.2,18.2,0,0,1-4.7,7.39,1.728,1.728,0,0,0-.77,1.13,1.369,1.369,0,0,0,1.37,1.27,1.926,1.926,0,0,0,1.44-.65,11.826,11.826,0,0,0,1.22-2.09,61.784,61.784,0,0,0,3.34-7.46,9.491,9.491,0,0,0,2.23-.87c1.08-.57,1.51-1.1,1.51-1.87,0-.57-0.12-0.67-0.74-0.69a3.211,3.211,0,0,1-2.12-.53c0.08-.43.12-0.65,0.2-1.2a2.138,2.138,0,0,0-1.99-1.06c-0.72,0-1.64.34-1.64,0.63,0,0.07.05,0.09,0.2,0.09a1.446,1.446,0,0,1,1.41,1.51,7.994,7.994,0,0,1-.48,2.5,8.664,8.664,0,0,1-2.64.48,2.4,2.4,0,0,1-2.23-1.06c-0.07-.16-0.12-0.19-0.19-0.19a0.163,0.163,0,0,0-.17.17,3.5,3.5,0,0,0,.58,1.63,2.692,2.692,0,0,0,2.32,1.03A12.4,12.4,0,0,0,1523.89,1352.44Zm2.66-3.99a1.942,1.942,0,0,1,.94.72c0,0.27-.48.6-1.42,1.01C1526.34,1349.27,1526.39,1349.12,1526.55,1348.45Zm-4.19,26.59a1.426,1.426,0,0,0-1.16.41,0.113,0.113,0,0,0,.12.1c0.89,0.09,1.32.98,1.32,2.69,0,0.31-.04,1.41-0.14,2.97-0.34,6.05-.34,6.22-0.34,7.08,0,4.44,1.97,6.8,5.71,6.8,2.6,0,5-1.37,6.94-3.94a9.265,9.265,0,0,0,1.39-2.5,0.151,0.151,0,0,0-.12-0.17,0.16,0.16,0,0,0-.14.12,11.167,11.167,0,0,1-2.21,2.19,9.648,9.648,0,0,1-5.86,2.11c-2.51,0-3.88-1.58-3.88-4.46a56.006,56.006,0,0,1,1.1-8.45,5.7,5.7,0,0,0,.48-1.9A3.4,3.4,0,0,0,1522.36,1375.04Zm9.07,35.33a2.244,2.244,0,0,0-1.66.51c0,0.07.07,0.12,0.24,0.12,2.45-.12,4.22,1.77,4.61,4.89,0.09,1.15.12,1.2,0.36,1.49a1.109,1.109,0,0,0,.76.31,1.682,1.682,0,0,0,1.54-1.82,5.2,5.2,0,0,0-1.46-3.48A5.632,5.632,0,0,0,1531.43,1410.37Zm-12.87-3.86a0.276,0.276,0,0,0-.31.14,0.222,0.222,0,0,0,.12.17c0.87,0.46,1.27,1.39,1.27,2.88,0,0.24,0,.5-0.02.86-0.05,1.08-.1,2.19-0.1,2.64a11.993,11.993,0,0,0,1.88,7.11,4.869,4.869,0,0,0,3.69,2.33,1.14,1.14,0,0,0,1.22-.92,0.533,0.533,0,0,0-.04-0.19,3.271,3.271,0,0,1-.72-2.06,14.121,14.121,0,0,1,.81-4.23,0.11,0.11,0,0,0,.03-0.09,0.169,0.169,0,0,0-.17-0.17c-0.12,0-.41.48-1.2,2.09a12.732,12.732,0,0,1-.96,1.85,0.817,0.817,0,0,1-.62.43,1.407,1.407,0,0,1-.82-0.65,6.55,6.55,0,0,1-1.15-4.15,14.808,14.808,0,0,1,.57-4.2,3.367,3.367,0,0,0,.27-1.03,2.9,2.9,0,0,0-.7-1.64A4.756,4.756,0,0,0,1518.56,1406.51Zm13.03,33.74c0.82,0,1.64.29,1.64,0.58,0,0.12,0,.12-0.82.65-0.65.45-.98,0.67-1.01,0.69a0.273,0.273,0,0,0-.19.22,0.151,0.151,0,0,0,.14.12,0.828,0.828,0,0,0,.29-0.1,6.075,6.075,0,0,1,2.35-.43,6.639,6.639,0,0,1,1.49.17,3.334,3.334,0,0,0,.43.09,0.656,0.656,0,0,0,.67-0.79c0-1.44-1.51-2.52-3.57-2.52a5.682,5.682,0,0,0-2.9.72,2.175,2.175,0,0,0-.89.99,0.132,0.132,0,0,0,.12.09,0.1,0.1,0,0,0,.07-0.02A4.642,4.642,0,0,1,1531.59,1440.25Zm0.89,9.36q-4.17,0-4.17-2.78a7.857,7.857,0,0,1,.19-1.56,0.323,0.323,0,0,0,.02-0.12,0.143,0.143,0,0,0-.12-0.15c-0.38,0-.98,1.61-0.98,2.64a3.9,3.9,0,0,0,2.61,3.82,12.131,12.131,0,0,0,4.23.63c2.04,0,2.71-.34,2.71-1.37a1.43,1.43,0,0,0-1.63-1.42Zm-6.5-14.47,0.05-.24,0.04-.29a1.42,1.42,0,0,0,.1-0.21,1.162,1.162,0,0,0,.14-0.46c0-.65-1.43-1.56-2.47-1.56a1.856,1.856,0,0,0-1.46.7,0.14,0.14,0,0,0,.14.09,0.164,0.164,0,0,0,.1-0.02h0.05a1.965,1.965,0,0,1,.6.21,1.723,1.723,0,0,1,.69,1.66,16.494,16.494,0,0,1-.4,3.41,12.12,12.12,0,0,1-3.34.45,2.415,2.415,0,0,1-2.11-.86c-0.14-.26-0.14-0.29-0.24-0.29a0.155,0.155,0,0,0-.12.19,3.857,3.857,0,0,0,.72,2,2.224,2.224,0,0,0,1.85.88,11.525,11.525,0,0,0,2.85-.38,33.578,33.578,0,0,1-4.15,10.03,1.7,1.7,0,0,0-.43.96,1.663,1.663,0,0,0,1.58,1.42,1.525,1.525,0,0,0,1.08-.48,5.143,5.143,0,0,0,.94-2.09c1.01-3.12,1.94-6.48,2.88-10.34a18.748,18.748,0,0,0,3.24-1.64,1.488,1.488,0,0,0,.81-1.29,0.518,0.518,0,0,0-.55-0.58,4.344,4.344,0,0,1-2.61-1.2Zm-0.19.62a3.55,3.55,0,0,1,1.24,1.25,3.419,3.419,0,0,1-1.72.94l0.29-1.37Zm-3.43,25.68a1.426,1.426,0,0,0-1.16.41,0.113,0.113,0,0,0,.12.1c0.89,0.09,1.32.98,1.32,2.69,0,0.31-.04,1.41-0.14,2.97-0.34,6.05-.34,6.22-0.34,7.08,0,4.44,1.97,6.8,5.71,6.8,2.6,0,5-1.37,6.94-3.94a9.265,9.265,0,0,0,1.39-2.5,0.151,0.151,0,0,0-.12-0.17,0.16,0.16,0,0,0-.14.12,11.167,11.167,0,0,1-2.21,2.19,9.648,9.648,0,0,1-5.86,2.11c-2.51,0-3.88-1.58-3.88-4.46a56.006,56.006,0,0,1,1.1-8.45,5.7,5.7,0,0,0,.48-1.9A3.4,3.4,0,0,0,1522.36,1461.44Zm4.72,38.67a26.287,26.287,0,0,1-3.02.24c-1.9,0-3.14-.46-3.62-1.35-0.2-.31-0.2-0.33-0.32-0.33a0.144,0.144,0,0,0-.12.09v0.03a0.278,0.278,0,0,1,.03.19,3.958,3.958,0,0,0,.77,1.78,3.912,3.912,0,0,0,3.28,1.2,20.728,20.728,0,0,0,3.03-.27c0,0.7,0,.79.02,1.85l0.02,1.44a7.721,7.721,0,0,0-1.17-.07,7.48,7.48,0,0,0-3.86.72,2.178,2.178,0,0,0-1.25,1.92c0,1.58,1.77,2.69,4.34,2.69,2.35,0,4.18-1.18,4.18-2.72v-0.33a12.24,12.24,0,0,1,2.71,2.3,1.251,1.251,0,0,0,1.03.55,0.966,0.966,0,0,0,1.01-1.08,2.708,2.708,0,0,0-1.47-2.08,9.707,9.707,0,0,0-3.4-1.54,37.867,37.867,0,0,1-.46-3.94c3.62-.81,5.37-1.65,5.37-2.59a0.79,0.79,0,0,0-.71-0.72l-0.32.03a3.234,3.234,0,0,1-1.53-.53,1.634,1.634,0,0,0-.46-0.34,0.149,0.149,0,0,0-.12.12,0.293,0.293,0,0,0,.1.19,1.579,1.579,0,0,1,.24.7c0,0.67-.55.98-2.74,1.54a8.962,8.962,0,0,1-.07-1.32c0-.82.02-1.18,0.07-1.83,1.99-.48,2.88-0.89,2.88-1.29,0-.46-0.69-0.94-1.7-1.16a1.311,1.311,0,0,1-1.06.65,5.95,5.95,0,0,1,.63-2.76,1.06,1.06,0,0,0,.16-0.48c0-.84-1.39-1.75-2.66-1.75a2.343,2.343,0,0,0-1.53.5c0,0.08.07,0.1,0.21,0.1a1.321,1.321,0,0,1,1.06.98c0.19,0.46.21,0.92,0.28,3.77a3.37,3.37,0,0,1-1.05.15,2.9,2.9,0,0,1-2.52-1.16,0.115,0.115,0,0,0-.12-0.09,0.145,0.145,0,0,0-.12.17,2.494,2.494,0,0,0,2.83,2.73c0.24,0,.41,0,1.1-0.05Zm0.15,6.41a2,2,0,0,1-2.31,2.2c-1.6,0-2.61-.55-2.61-1.41,0-.89.72-1.27,2.42-1.27a8.623,8.623,0,0,1,2.5.33v0.15Zm0.62,20.68a2.553,2.553,0,0,0-.74-0.12c-1.61,0-2.91,1.78-2.91,4.01,0,1.97,1.2,3.58,2.67,3.58a1.756,1.756,0,0,0,1.17-.46,7.234,7.234,0,0,1-4.84,5.59c-0.15.05-.2,0.1-0.2,0.17a0.192,0.192,0,0,0,.22.12,10.869,10.869,0,0,0,3.48-1.13c2.64-1.48,3.86-3.84,3.86-7.34,0-1.94-.21-2.74-1.03-3.65-0.02-.24-0.05-0.38-0.05-0.5,0-.53.03-1.06,0.07-1.83a5.454,5.454,0,0,0,.05-0.69c0.99-.07,1.42-0.1,1.97-0.1a18.3,18.3,0,0,1,4.17.48,2.311,2.311,0,0,0,.6.1,0.859,0.859,0,0,0,.8-0.79,1.5,1.5,0,0,0-.51-0.96,2.957,2.957,0,0,0-1.41-.63,0.919,0.919,0,0,1-.24.03,1.142,1.142,0,0,1-.27.02,5.817,5.817,0,0,1-2.61-.84,0.7,0.7,0,0,0-.34-0.19,0.151,0.151,0,0,0-.14.14,0.621,0.621,0,0,0,.21.29c0.27,0.34.51,0.65,0.72,0.94-0.62.09-1.03,0.14-1.24,0.16-0.41.08-.94,0.15-1.61,0.24a9.021,9.021,0,0,1,.45-3.07,1.529,1.529,0,0,0,.17-0.45c0-.72-1.65-1.97-2.59-1.97a2.732,2.732,0,0,0-1.63.55,0.121,0.121,0,0,0,.14.1c1.37,0.21,1.44.45,1.56,5.08-2.59.41-2.97,0.48-4.12,0.68a30.084,30.084,0,0,1-4.23.67,2.574,2.574,0,0,1-2.06-.96c-0.07-.1-0.07-0.1-0.12-0.1-0.1,0-.14.07-0.14,0.19a3.613,3.613,0,0,0,.69,1.9,3.318,3.318,0,0,0,1.97,1.15,1.491,1.491,0,0,0,.6-0.24,26.967,26.967,0,0,1,7.41-2.28c0.05,1.01.05,1.35,0.05,1.66v0.45Zm-0.96.77a0.95,0.95,0,0,1,.79.79,5.9,5.9,0,0,1,.1,1.23c0,2.11-.34,3.19-0.99,3.19-0.76,0-1.36-1.06-1.36-2.42C1525.43,1529.27,1526.1,1527.97,1526.89,1527.97Zm7.94,19.8a2.965,2.965,0,1,0,2.93,2.95A2.975,2.975,0,0,0,1534.83,1547.77Zm-0.07,1.03a1.935,1.935,0,1,1-1.89,1.92A1.945,1.945,0,0,1,1534.76,1548.8Z" transform="translate(-1516.91 -1258.44)"/>
</svg>
