<svg xmlns="http://www.w3.org/2000/svg" width="660.2" height="66.2" viewBox="0 0 330.1 33.1">
  <defs>
    <style>
      .cls-1 {
        fill: #a38737;
        fill-rule: evenodd;
      }
    </style>
  </defs>
  <path id="こだわりの日本酒" class="cls-1" d="M1811.2,3136.85a5.991,5.991,0,0,0,4.93,5.54,0.281,0.281,0,0,1,.29.29,0.565,0.565,0,0,1-.29.43,13.752,13.752,0,0,0-2.2,2.38,0.179,0.179,0,0,0,.18.18,4.1,4.1,0,0,0,.8-0.36,23.927,23.927,0,0,1,8.85-2.24c1.33-.03,1.91-0.36,1.91-1.08a5.328,5.328,0,0,0-.54-1.83,2.138,2.138,0,0,0-1.8-1.3,7.487,7.487,0,0,0-1.62.33,12.669,12.669,0,0,1-3.24.46c-2.74,0-5.98-1.33-6.95-2.88a0.261,0.261,0,0,0-.18-0.18,0.169,0.169,0,0,0-.14.18v0.08Zm-1.12,13.53c-0.75,0-1.73,2.45-1.73,4.39,0,5.33,4.29,8.25,12.03,8.25a27.552,27.552,0,0,0,7.41-.9c1.33-.44,1.87-1.05,1.87-2.13a2.242,2.242,0,0,0-2.48-1.98,4.659,4.659,0,0,0-1.58.36,25.581,25.581,0,0,1-6.84,1.05,12.4,12.4,0,0,1-6.23-1.41,5.866,5.866,0,0,1-2.59-5.18,10.342,10.342,0,0,1,.25-2.16,0.257,0.257,0,0,0,.04-0.15A0.16,0.16,0,0,0,1810.08,3150.38Zm61.74-16.41c-1.04,0-1.69.14-1.69,0.32a0.391,0.391,0,0,0,.39.32,5.393,5.393,0,0,1,2.92,2.34c0.76,1.26.79,1.26,1.51,1.26a1.374,1.374,0,0,0,1.41-1.44C1876.36,3135.37,1874.09,3133.97,1871.82,3133.97Zm-4.21,2.44c-0.94,0-1.26.08-1.26,0.33,0,0.14.07,0.21,0.39,0.32a6.536,6.536,0,0,1,3.1,3.06,1.043,1.043,0,0,0,1.08.83,1.4,1.4,0,0,0,1.4-1.48C1872.32,3137.89,1870.06,3136.41,1867.61,3136.41Zm1.29,23.55c-4.1,0-6.22-1.41-6.22-4.18a12.092,12.092,0,0,1,.29-2.34,0.446,0.446,0,0,0,.03-0.18,0.2,0.2,0,0,0-.18-0.22c-0.57,0-1.47,2.42-1.47,3.96a5.854,5.854,0,0,0,3.92,5.73,18.278,18.278,0,0,0,6.33.93c3.06,0,4.07-.5,4.07-2.05,0-1.29-.93-2.12-2.45-2.12Zm-9.71-21.71,0.07-.36,0.07-.43a2.639,2.639,0,0,0,.14-0.33,1.845,1.845,0,0,0,.22-0.68c0-.97-2.16-2.34-3.71-2.34-0.83,0-2.19.65-2.19,1.04a0.194,0.194,0,0,0,.21.15,0.215,0.215,0,0,0,.15-0.04h0.07a2.624,2.624,0,0,1,.9.33c0.72,0.43,1.04,1.18,1.04,2.48a24.043,24.043,0,0,1-.61,5.11,17.961,17.961,0,0,1-5,.69c-1.48,0-2.81-.54-3.17-1.3-0.22-.4-0.22-0.43-0.36-0.43-0.11,0-.18.11-0.18,0.29a5.634,5.634,0,0,0,1.08,2.98,3.351,3.351,0,0,0,2.77,1.34,17.648,17.648,0,0,0,4.28-.58,50.589,50.589,0,0,1-6.22,15.05,2.073,2.073,0,0,0,1.72,3.56,2.317,2.317,0,0,0,1.62-.72,7.648,7.648,0,0,0,1.41-3.13c1.51-4.68,2.91-9.72,4.32-15.52a27.8,27.8,0,0,0,4.86-2.44,2.256,2.256,0,0,0,1.22-1.95,0.762,0.762,0,0,0-.83-0.86,6.625,6.625,0,0,1-3.92-1.8Zm-0.29.94a5.3,5.3,0,0,1,1.87,1.87c0,0.29-1.19.93-2.59,1.4l0.43-2.05Zm8.71,6.73c1.22,0,2.45.43,2.45,0.86,0,0.18,0,.18-1.23.97-0.97.69-1.47,1.01-1.51,1.05a0.391,0.391,0,0,0-.29.32,0.239,0.239,0,0,0,.22.18,1.441,1.441,0,0,0,.43-0.14,9.25,9.25,0,0,1,3.53-.65,10.543,10.543,0,0,1,2.23.25c0.47,0.11.58,0.15,0.65,0.15a0.992,0.992,0,0,0,1.01-1.19c0-2.16-2.27-3.78-5.37-3.78a8.39,8.39,0,0,0-4.35,1.08,3.365,3.365,0,0,0-1.33,1.47,0.183,0.183,0,0,0,.18.15,0.11,0.11,0,0,0,.1-0.04A7.1,7.1,0,0,1,1867.61,3145.92Zm27.25,7.77a22.213,22.213,0,0,1-2.95,3.31c-1.04,1.01-1.26,1.37-1.26,2.09,0,1.44.72,2.49,1.76,2.49,0.62,0,.87-0.22,1.34-1.23,0.46-.93,1.04-1.94,2.34-4.1a23.294,23.294,0,0,1,1.36,6.87,3.823,3.823,0,0,0,.15,1.62,0.841,0.841,0,0,0,.65.36,3.038,3.038,0,0,0,2.84-2.66,5.052,5.052,0,0,0-.07-0.68,53.417,53.417,0,0,1-.87-10.52,2.693,2.693,0,0,1,1.16-2.26c2.55-2.45,5.79-4,8.35-4,3.42,0,5.32,2.2,5.32,6.19a11.116,11.116,0,0,1-3.34,8.35,18.015,18.015,0,0,1-5.26,3.24,0.605,0.605,0,0,0-.5.36,0.284,0.284,0,0,0,.29.29,10.266,10.266,0,0,0,1.47-.29,19.646,19.646,0,0,0,7.2-3.45,10.882,10.882,0,0,0,4.18-8.46,7.84,7.84,0,0,0-8.1-8.06c-3.21,0-6.45,1.54-10.51,5a2.689,2.689,0,0,1,.61-1.48c0.21-.28.97-1.22,1.26-1.58a1.9,1.9,0,0,0,.65-1.08,2.379,2.379,0,0,0-1.52-1.66,2.515,2.515,0,0,1-.64.11,16.8,16.8,0,0,1,.75-4.17,2.5,2.5,0,0,0,.18-0.8c0-1.4-2.34-3.31-4.03-3.31-1.01,0-2.09.29-2.09,0.54a0.243,0.243,0,0,0,.15.22,1.621,1.621,0,0,1,1.26.57c0.9,1.05,1.18,2.34,1.18,5.44,0,0.79,0,1.4-.03,2.38-3.67,2.05-5.37,3.63-5.37,5.07a5.683,5.683,0,0,0,.9,2.7A16.389,16.389,0,0,1,1894.86,3153.69Zm0.97-1.29c-0.25-.76-0.25-0.76-0.57-1.59-0.61-1.58-.61-1.62-0.61-2.08,0-.98.72-1.55,3.63-2.81,0,1.47,0,1.47.04,2.48a4.066,4.066,0,0,1-.51,1.44Zm1.26,3.38-0.28-.86a24.378,24.378,0,0,1,1.72-2.99c0.18,3.53.26,5.47,0.26,5.79a1,1,0,0,1-.54,1.12c-0.29,0-.4-0.18-0.54-0.97a6.636,6.636,0,0,0-.29-1.01Zm52.85-13.97c1.8,0,2.92,3.14,2.92,8.17,0,4.72-1.16,8.39-3.46,10.95a20.832,20.832,0,0,1-6.15,4.53c-0.54.25-.58,0.25-0.58,0.43a0.243,0.243,0,0,0,.25.22,1.472,1.472,0,0,0,.47-0.11,7.964,7.964,0,0,1,.79-0.21,22.418,22.418,0,0,0,6.01-2.88c4.25-2.99,6.45-7.42,6.45-13.03,0-5.94-2.27-9.9-5.69-9.9-2.45,0-4.64,2.16-6.77,6.69a1.086,1.086,0,0,1-.75.8,1.329,1.329,0,0,1-.44-1.3,15.153,15.153,0,0,1,1.98-6.26c1.16-2.31,1.3-2.67,1.3-3.28,0-1.62-2.38-3.49-4.43-3.49-0.86,0-1.76.29-1.76,0.54,0,0.11.07,0.18,0.29,0.21,1.29,0.18,1.83,1.01,1.83,2.7a22.57,22.57,0,0,1-.79,5.08,30.442,30.442,0,0,0-.97,6.98c0,4.11,1.37,7.38,3.06,7.38a1.889,1.889,0,0,0,1.62-1.8,3.031,3.031,0,0,0-.15-0.83,9.533,9.533,0,0,1-.36-2.3C1944.61,3146.78,1947.46,3141.81,1949.94,3141.81Zm41.91-2.52c0.39-.03.64-0.03,0.75-0.03a8.636,8.636,0,0,1,3.71.86c3.13,1.59,4.75,4.86,4.75,9.68,0,4.43-1.48,7.71-4.61,10.26a19.246,19.246,0,0,1-6.44,3.35c-0.58.18-.68,0.22-0.68,0.4,0,0.14.14,0.21,0.36,0.21a14.609,14.609,0,0,0,2.3-.43,21.992,21.992,0,0,0,6.66-2.45,13.251,13.251,0,0,0,6.66-11.51,10.842,10.842,0,0,0-2.85-7.6,13.888,13.888,0,0,0-10.11-3.96c-8.42,0-15.66,6.8-15.66,14.72a9.328,9.328,0,0,0,1.77,5.8,4.322,4.322,0,0,0,3.02,1.98c1.98,0,5.11-2.56,7.23-5.87a23.11,23.11,0,0,0,3.6-11.7A13.793,13.793,0,0,0,1991.85,3139.29Zm-1.77.15c0.04,0.11.04,0.18,0.07,0.25a8.334,8.334,0,0,1,.22,2.02,21.191,21.191,0,0,1-3.67,10.76c-1.51,2.37-3.57,4.25-4.68,4.25s-2.09-1.88-2.09-4a14.093,14.093,0,0,1,4.25-10.04A13.519,13.519,0,0,1,1990.08,3139.44Zm37.01,22.57h14.25v2.16a0.446,0.446,0,0,0,.54.47,8.151,8.151,0,0,0,1.91-.33c0.97-.32,1.19-0.5,1.19-1.08v-22.24l0.61-.26a0.832,0.832,0,0,0,.54-0.75,1.363,1.363,0,0,0-.39-0.87l-3.39-3.6-1.47,2.27h-13.54l-3.81-1.83v28.83c0,0.58.18,0.72,0.82,0.72,1.41,0,2.74-.54,2.74-1.12v-2.37Zm0-.97v-10.98h14.25v10.98h-14.25Zm0-11.95v-10.34h14.25v10.34h-14.25Zm48.67,8.96h-3.24c-1.8,0-2.45,0-4.82-.15l0.75,1.23c1.91-.11,2.38-0.11,4.07-0.11h3.24v6.69c0,0.36.22,0.51,0.69,0.51a7.643,7.643,0,0,0,1.72-.29,1.152,1.152,0,0,0,.94-1.19v-5.72h7.2c0.5,0,.72-0.18.72-0.54a0.823,0.823,0,0,0-.36-0.58l-2.74-2.26-2.12,2.41h-2.7v-13a29.235,29.235,0,0,0,12.13,15.37c1.26-2.05,1.62-2.37,3.49-3.16-7.45-3.1-13.46-8.57-15.19-13.9h13.32c0.58,0,.79-0.14.79-0.54a0.907,0.907,0,0,0-.47-0.65l-3.24-2.48-2.37,2.7h-8.46v-6.88l0.86-.54a0.874,0.874,0,0,0,.51-0.72,0.892,0.892,0,0,0-1.01-.71l-3.71-.29v9.14h-6.87c-1.44,0-2.78-.04-7.09-0.22l0.79,1.37c3.2-.14,4.53-0.18,6.3-0.18h6.04a43.249,43.249,0,0,1-13.71,17.42,0.8,0.8,0,0,0-.43.51,0.243,0.243,0,0,0,.21.25,20.837,20.837,0,0,0,4.57-2.48,39.382,39.382,0,0,0,10.19-9.97v8.96Zm30.78-2.45c-0.82.04-1.18,0.04-1.54,0.04-0.58,0-.76.1-0.76,0.43,0,0.21.04,0.25,0.79,0.5,1.44,0.54,1.51.61,1.51,2.27a17.233,17.233,0,0,1-.32,3.02,7.134,7.134,0,0,0-.11,1.12,1.891,1.891,0,0,0,1.94,2.02,2.148,2.148,0,0,0,2.13-2.27,3.32,3.32,0,0,0-.15-1.08c-0.9-3.1-.9-3.1-0.9-3.67a6.02,6.02,0,0,1,.44-2.02l5.22-15.91,0.03-.22a0.366,0.366,0,0,0-.36-0.39,0.558,0.558,0,0,0-.47.39Zm-1.87-13.71c-0.18,0-.29.07-0.29,0.18a0.4,0.4,0,0,0,.18.25c0.83,0.68,1.08,1.19,1.55,2.91,0.58,2.24.9,2.7,1.91,2.7a1.841,1.841,0,0,0,1.73-2.05c0-1.65-1.12-2.88-3.31-3.6A8.925,8.925,0,0,0,2104.67,3141.89Zm2.59-7.38a0.315,0.315,0,0,0-.36.21,1.094,1.094,0,0,0,.44.54,6.222,6.222,0,0,1,1.83,3.53c0.29,1.26.79,1.8,1.69,1.8a1.686,1.686,0,0,0,1.69-1.84,3.81,3.81,0,0,0-2.23-3.38A9.955,9.955,0,0,0,2107.26,3134.51Zm6.34,3.02c2.59-.11,3.63-0.14,5.51-0.14h1.54c0.08,1.47.08,2.16,0.08,3.13s0,1.62-.04,3.13h-2.66l-3.46-1.76v23.29a0.579,0.579,0,0,0,.68.71,5.54,5.54,0,0,0,1.62-.32,0.944,0.944,0,0,0,.87-1.04v-0.87h14.61v1.59c0,0.32.15,0.43,0.54,0.43,1.66,0,2.85-.47,2.85-1.15v-18.25l0.57-.18a0.677,0.677,0,0,0,.58-0.65,1.4,1.4,0,0,0-.51-0.94l-2.77-3.27-1.4,2.41h-3.49v-6.26h9.32a0.358,0.358,0,0,0,.4-0.36,0.925,0.925,0,0,0-.29-0.58l-3.35-2.77-2.2,2.73h-13.49c-2.06,0-3.21-.03-6.23-0.18Zm4.14,25.16v-4.57h14.61v4.57h-14.61Zm7.92-18.07v6.77c0,2.37.28,2.63,3.06,2.63,2.44,0,3.09-.11,3.63-0.51v3.64h-14.61v-1.48c3.89-2.84,5.07-5.18,5.54-11.05h2.38Zm-7.92,0h2.91c-0.39,5.29-1.22,8.14-2.91,10.01v-10.01Zm5.61-.97c0.08-1.66.11-2.38,0.11-3.78v-2.48h2.2v6.26h-2.31Zm5.37,0.97h3.63v7.13c-0.75-.51-0.83-0.58-0.86-0.97v-1.98c0-1.12,0-1.19-.22-1.19-0.14,0-.18.07-0.5,1.12l-0.29.93c-0.14.4-.29,0.83-0.4,1.22-0.03.08-.1,0.26-0.21,0.58h-1.15v-6.84Z" transform="translate(-1808.34 -3133.12)"/>
</svg>
