<svg xmlns="http://www.w3.org/2000/svg" width="44.76" height="43.68" viewBox="0 0 22.38 21.84">
  <defs>
    <style>
      .cls-1 {
        fill: #fff;
        fill-rule: evenodd;
      }
    </style>
  </defs>
  <path id="秋" class="cls-1" d="M1833.78,6602.2l0.04-1.27,0.1-2.6,0.05-2.73c0-.07,0-0.39.02-0.79l0.58-.41a0.671,0.671,0,0,0,.36-0.48,0.51,0.51,0,0,0-.58-0.55l-2.45-.27a1.866,1.866,0,0,0,.03.48v2.64l0.02,3.34c0,4.49-.5,7.65-1.51,9.67a12.073,12.073,0,0,1-4.51,4.68c-0.84.48-.84,0.48-0.84,0.6a0.2,0.2,0,0,0,.19.22c0.74,0,3.53-1.56,4.85-2.69,2.11-1.82,3.16-4.18,3.48-7.59l0.12,0.51c0.96,4.29,2.88,7.61,5.28,9.22a4.591,4.591,0,0,1,1.97-2.12c-3.46-1.89-5.38-4.27-6.82-8.35l0.29-.24,0.29-.24,1.17-.94,1.85-1.53c0.41-.34.82-0.67,1.25-1.03l0.43-.36,0.62-.12a0.551,0.551,0,0,0,.58-0.56,0.617,0.617,0,0,0-.31-0.5l-2.16-1.51a29.331,29.331,0,0,1-4.15,6.65,6.294,6.294,0,0,1-.24-0.87v-0.26Zm-11.55,12.1c0,0.31.1,0.43,0.34,0.43a5.766,5.766,0,0,0,1.03-.17c0.69-.19.81-0.29,0.81-0.82v-9.33a2.965,2.965,0,0,1,.96,1.63,5.618,5.618,0,0,0,.6,1.68,0.839,0.839,0,0,0,.6.26,1.052,1.052,0,0,0,1.01-1.15,2.839,2.839,0,0,0-1.25-2.14,5.826,5.826,0,0,0-1.92-.86v-3.05h3.46c0.29,0,.43-0.09.43-0.26a0.667,0.667,0,0,0-.26-0.48l-1.54-1.49-1.25,1.58h-0.84v-4.65l0.53-.12c0.34-.07.7-0.15,1.03-0.24l0.56-.12,0.69,0.05h0.1a0.337,0.337,0,0,0,.43-0.29,0.426,0.426,0,0,0-.17-0.31l-1.75-1.59a36.532,36.532,0,0,1-6.53,3.15c-0.26.07-.33,0.14-0.33,0.28a0.227,0.227,0,0,0,.26.24,30.113,30.113,0,0,0,3.1-.6v4.2h-0.53c-0.63,0-.65,0-3.22-0.09l0.41,0.81c1.32-.04,1.9-0.07,2.81-0.07h0.48a19.591,19.591,0,0,1-3.05,8.23,2.674,2.674,0,0,0-.55.99,0.18,0.18,0,0,0,.17.19c0.33,0,2.08-1.97,3.38-3.79v7.9Zm6.82-16.23a6.238,6.238,0,0,1-.72,4.13c-0.92,1.17-.92,1.17-0.92,1.73a0.984,0.984,0,0,0,1.06.98c1.1,0,1.9-1.39,1.9-3.31a7.156,7.156,0,0,0-.68-2.83c-0.31-.75-0.38-0.89-0.5-0.89a0.122,0.122,0,0,0-.14.14v0.05Z" transform="translate(-1818.59 -6592.88)"/>
</svg>
