<svg xmlns="http://www.w3.org/2000/svg" width="791.24" height="119.804" viewBox="0 0 395.62 59.902">
  <defs>
    <style>
      .cls-1 {
        fill: #fff;
        fill-rule: evenodd;
      }
    </style>
  </defs>
  <path id="里山懐石_登谷" data-name="里山懐石 登谷" class="cls-1" d="M1129.21,1035.85c8.19-.32,8.45-0.32,11.26-0.32h44.48a0.985,0.985,0,0,0,1.09-.96,1.639,1.639,0,0,0-.64-1.15l-5.44-4.8-4.74,5.18h-15.74v-10.56h21.24a0.765,0.765,0,0,0,.64-0.77,0.994,0.994,0,0,0-.51-0.83l-5.44-4.8-4.22,4.67h-11.71V1010.7h12.22v2.81a1.338,1.338,0,0,0,1.54,1.47,11.409,11.409,0,0,0,2.94-.51c1.15-.32,1.73-0.89,1.73-1.72V990.091l1.09-.448a1.31,1.31,0,0,0,.96-1.344,1.611,1.611,0,0,0-.52-1.152l-6.08-5.952-2.56,3.968h-29.18l-6.97-3.52v33.787a1.269,1.269,0,0,0,1.47,1.54c3.01,0,4.67-.71,4.67-1.92v-4.35h12.48v10.81h-9.79c-1.15,0-2.95-.06-5.12-0.13l-5.95-.19,1.41,2.31c5.37-.2,7.42-0.26,9.66-0.26h9.79v10.56h-12.8c-0.64,0-3.33-.06-6.08-0.13-2.17-.06-4.35-0.13-6.53-0.25Zm11.58-26.88V998.922h12.48v10.048h-12.48Zm0-11.776v-10.3h12.48v10.3h-12.48Zm18.69,11.776V998.922h12.22v10.048h-12.22Zm0-22.079h12.22v10.3h-12.22v-10.3Zm42.24,43.709h36.99v3.46c0,1.4.25,1.66,1.34,1.66a9.183,9.183,0,0,0,3.14-.58,1.814,1.814,0,0,0,1.53-2.04V996.682l1.48-1.152a1.662,1.662,0,0,0,.64-1.216,1.3,1.3,0,0,0-1.35-1.279l-6.78-.576v36.411h-15.62V985.227l1.67-1.408a1.534,1.534,0,0,0,.64-1.088,1.245,1.245,0,0,0-1.35-1.152l-7.23-.448v47.739h-15.1V997l1.47-.96a1.92,1.92,0,0,0,1.02-1.472,1.38,1.38,0,0,0-1.47-1.343l-7.04-.448v42.941a1.234,1.234,0,0,0,1.35,1.47,11.518,11.518,0,0,0,3.45-.7,1.464,1.464,0,0,0,1.22-1.47v-4.42Zm57.15-39.357a0.434,0.434,0,0,0-.45.384c0,0.192.07,0.512,0.13,1.024a3.9,3.9,0,0,1,.07,1.023,11.765,11.765,0,0,1-.71,4.224c-0.64,1.856-.7,1.984-2.62,4.542a5.784,5.784,0,0,0-1.41,3.46,2.7,2.7,0,0,0,2.75,2.94,4.221,4.221,0,0,0,3.91-2.88,19.4,19.4,0,0,0,1.02-6.142,16.369,16.369,0,0,0-1.98-7.743C1259.19,991.371,1259.13,991.243,1258.87,991.243Zm16,17.857a0.933,0.933,0,0,0,1.15,1.09c3.14,0,4.16-.45,4.16-1.92v-2.24h23.81v2.17c0,0.58.38,0.83,1.15,0.83a11.005,11.005,0,0,0,3.33-.57,1.4,1.4,0,0,0,1.02-1.54v-7.806l1.03-.64a1.2,1.2,0,0,0,.89-1.088,2.24,2.24,0,0,0-.7-1.408l-5.31-4.991-2.18,3.647h-8.13V989.2h17.73c1.09,0,1.47-.192,1.47-0.7a1.954,1.954,0,0,0-.89-1.216l-5.25-4.48-4.23,4.672h-8.83v-4.544l1.6-1.024a1.184,1.184,0,0,0,.64-1.088,1.263,1.263,0,0,0-1.41-1.343l-6.52-.64v8.639h-6.34c-2.88,0-5.37-.064-11.07-0.32l1.34,2.3c5.64-.192,5.89-0.192,9.73-0.256h6.34v5.439h-8.32l-6.21-2.431v5.887c-0.83-2.176-2.88-3.712-6.46-4.735v-9.984l1.6-1.28a2.325,2.325,0,0,0,.83-1.6,1.229,1.229,0,0,0-1.35-1.279l-6.84-.512v58.68c0,0.64.38,0.84,1.41,0.84,2.81,0,4.35-.77,4.35-2.12V995.466a8.839,8.839,0,0,1,1.21,2.752c1.03,4.542,1.22,4.932,2.56,4.932a4.458,4.458,0,0,0,2.69-1.03v6.98Zm14.53-1.92v5.95h-8.26c-1.21,0-3.07-.06-5.31-0.13l-5.82-.19,1.28,2.3c5.12-.19,7.29-0.25,9.85-0.25h4.48a52.282,52.282,0,0,1-12.35,12.09c-3.26,2.11-3.26,2.11-3.26,2.37a0.468,0.468,0,0,0,.51.51c0.64,0,2.11-.57,4.67-1.73a61.428,61.428,0,0,0,7.87-4.48v6.85c-3.9.51-4.48,0.58-7.81,0.83l3.78,6.15c0.58,0.89.9,1.15,1.66,1.15a1.762,1.762,0,0,0,1.6-1.22l0.58-1.21c5.12-1.86,7.23-2.63,8.38-3.07,1.8-.71,2.44-1.03,9.22-3.84a44.937,44.937,0,0,0,9.02,7.74,14.87,14.87,0,0,1,5.63-5.82,45.482,45.482,0,0,1-13.5-7.68,46.827,46.827,0,0,0,7.74-3.08h1.35a0.94,0.94,0,0,0,1.15-.96,1.04,1.04,0,0,0-.38-0.83l-4.48-3.65a53.943,53.943,0,0,1-6.92,7.17,21.379,21.379,0,0,1-5.37-7.29h19.01a0.863,0.863,0,0,0,1.08-.83,1.342,1.342,0,0,0-.7-1.09l-5.25-4.42-4.22,4.61h-9.47v-1.92l1.28-.64c0.96-.58,1.28-0.96,1.28-1.54a1.466,1.466,0,0,0-1.6-1.4Zm-9.28-2.88v-7.938h4.67v7.938h-4.67Zm8.64,14.78a28.438,28.438,0,0,0,3.97-3.52,35.7,35.7,0,0,0,6.59,12.42c-5.19,1.02-5.95,1.15-10.56,1.79v-10.69Zm1.28-22.718h4.48v7.938h-4.48v-7.938Zm9.47,7.938v-7.938h4.48v7.938h-4.48Zm41.73,27.26h21.5v3.52c0,0.64.32,0.9,1.09,0.9,2.11,0,4.86-1.03,4.86-1.8v-21.37l1.73-.77a1.592,1.592,0,0,0,.83-1.28,1.738,1.738,0,0,0-.64-1.21l-6.14-5.76-2.5,3.84h-20.6l-1.35-1.16a79.458,79.458,0,0,0,8.39-18.811h28.92a0.814,0.814,0,0,0,.77-0.9,1.01,1.01,0,0,0-.45-0.832l-6.4-5.12-4.61,5.12h-33.4c-0.9,0-3.01-.064-5.31-0.128l-7.3-.192,1.54,2.368,6.21-.192c2.04-.128,3.77-0.128,4.86-0.128h8.13c-3.52,15.421-10.43,26.881-21.83,36.281a1.558,1.558,0,0,0-.7.84,0.422,0.422,0,0,0,.38.44c0.52,0,3.27-1.66,5.96-3.58a66.111,66.111,0,0,0,10.23-9.15v23.93c0,0.58.32,0.84,1.09,0.84,2.24,0,4.74-.9,4.74-1.67v-4.03Zm0-1.73v-20.48h21.5v20.48h-21.5Zm59.07,5.83c5.31-.26,7.62-0.32,11.07-0.32h45.06a1.039,1.039,0,0,0,1.15-.96,1.847,1.847,0,0,0-.77-1.28l-5.57-4.55-4.22,5.06h-14.21a71.1,71.1,0,0,0,5.31-6.66l1.15-.25a2.009,2.009,0,0,0,1.67-1.22,1.82,1.82,0,0,0-.26-0.77c2.56,0.13,4.8-.64,4.67-1.6v-9.72l1.28-.32c0.9-.26,1.28-0.64,1.28-1.22a1.96,1.96,0,0,0-.83-1.34l-5.57-5.12-2.49,3.52H1416.5l-6.01-3.52c5.37-4.16,9.6-9.028,14.65-16.963l1.28-.192c1.03-.128,1.67-0.64,1.67-1.28a2.585,2.585,0,0,0-1.03-1.6l-5.25-4.8-2.56,3.712h-7.87s-2.04-.064-3.9-0.128l-4.67-.128,1.28,2.176c3.77-.128,5.37-0.192,7.29-0.192h8.32c-0.96,2.176-2.81,5.248-6.33,10.559-0.45-3.775-1.99-5.759-5.76-7.1a18.874,18.874,0,0,0-4.1-1.152,0.425,0.425,0,0,0-.51.448,1.128,1.128,0,0,0,.58.7,11.126,11.126,0,0,1,3.96,6.591c0.58,2.24,1.35,3.2,2.69,3.2a6.567,6.567,0,0,0,1.34-.192,49.925,49.925,0,0,1-11.64,10.62c-1.54,1.03-1.54,1.03-1.54,1.35a0.342,0.342,0,0,0,.39.38c1.6,0,7.23-2.81,11.13-5.57v19.14c0,0.45.26,0.64,0.96,0.64,1.79,0,4.16-.9,4.16-1.54v-1.21a8.492,8.492,0,0,1,2.43,6.2,4.8,4.8,0,0,1-.06.96l-0.07,1.48a2.3,2.3,0,0,0,1.22,2.11h-7.17c-3.64,0-6.27-.07-12.54-0.39Zm32.9-38.786-3.52,4.286h-3.72c-1.72,0-3.26-.06-8.57-0.25l1.02,2.17c4.35-.13,5.83-0.19,7.55-0.19h11.59a0.954,0.954,0,0,0,1.08-1.02,1.748,1.748,0,0,0-.76-1.22Zm-18.18,24.256h25.21v3.26l-6.27-2.94c-0.64,3.26-2.36,9.53-3.26,12.22h-7.81a5.533,5.533,0,0,0,1.03-3.01c0-2.94-2.31-5.82-6.15-7.74a10.812,10.812,0,0,0-2.43-.96,0.914,0.914,0,0,0-.32.06v-0.89Zm0-1.73v-8.77h25.21v8.77h-25.21Zm35.58-27.581,1.54-.192c0.89-.128,1.34-0.448,1.34-0.9a2.348,2.348,0,0,0-1.21-1.536l-4.23-3.392a46.353,46.353,0,0,1-8,8.959,26.035,26.035,0,0,1-4.92-4.863c3.26-1.472,5.11-2.3,9.02-4.1h0.96a1.077,1.077,0,0,0,1.15-.96,1.749,1.749,0,0,0-.7-1.152l-4.55-3.52a67.268,67.268,0,0,1-6.91,8.32,32.509,32.509,0,0,1-4.67-7.872,1.115,1.115,0,0,0-.96-0.9,0.593,0.593,0,0,0-.64.576,30.9,30.9,0,0,0,1.47,4.544,42.46,42.46,0,0,0,4.29,8.512c4.42,6.785,10.3,11.775,18.88,16a12.584,12.584,0,0,1,6.33-5.56c-8.25-2.44-12.54-4.356-17.21-7.748a14.18,14.18,0,0,1,1.34-.64c1.03-.512,1.99-0.96,3.01-1.408l3.14-1.471Zm25.22,44.541a1.261,1.261,0,0,0,1.41,1.34,10.368,10.368,0,0,0,3.13-.57,1.22,1.22,0,0,0,1.03-1.47v-3.52h21.44v3.2c0,0.96.19,1.15,1.02,1.15a12.737,12.737,0,0,0,3.46-.64,1.3,1.3,0,0,0,1.08-1.35v-16.32l1.03-.51a1.714,1.714,0,0,0,1.15-1.53,2.383,2.383,0,0,0-.77-1.48l-5.18-5.43-2.75,3.71h-19.91l-2.75-1.92a61.116,61.116,0,0,0,14.27-17.41c5.7,10.82,11.97,17.02,23.87,23.36,1.22-2.63,2.76-4.1,6.15-5.76-12.61-3.2-22.98-9.66-28.74-17.855l0.77-.32a1.275,1.275,0,0,0,1.03-1.152,2.012,2.012,0,0,0-1.28-1.472l-5.7-2.56c-6.21,14.849-13.31,23.419-25.47,30.779a1.316,1.316,0,0,0-.83.77,0.324,0.324,0,0,0,.38.32c1.09,0,8.07-3.46,12.16-6.08v22.72Zm5.57-21.7h21.44v15.75H1481.4v-15.75Zm2.43-28.281a1.413,1.413,0,0,0,1.09-1.152,2.129,2.129,0,0,0-1.22-1.536l-5.37-3.52a58.8,58.8,0,0,1-14.34,20.419c-0.83.76-1.09,1.08-1.09,1.34a0.433,0.433,0,0,0,.39.45c0.83,0,4.09-1.86,6.91-3.842a75.451,75.451,0,0,0,12.22-11.711Zm14.46-4.928c-0.38,0-.64.128-0.64,0.384s0.32,0.512,1.09.9c6.21,3.968,9.41,7.04,12.93,12.351,1.66,2.688,2.69,3.52,4.03,3.52,1.66,0,2.82-1.344,2.82-3.392,0-3.583-3.27-7.1-9.54-10.3C1505.72,983.243,1500.15,981.451,1498.29,981.451Z" transform="translate(-1127.88 -978.688)"/>
</svg>
