<svg xmlns="http://www.w3.org/2000/svg" width="45.36" height="45.32" viewBox="0 0 22.68 22.66">
  <defs>
    <style>
      .cls-1 {
        fill: #fff;
        fill-rule: evenodd;
      }
    </style>
  </defs>
  <path id="冬" class="cls-1" d="M2065.72,6594.66l-1.44,1.49h-4.42c0.41-.65.46-0.72,0.84-1.34l0.55-.1a0.6,0.6,0,0,0,.6-0.58,0.654,0.654,0,0,0-.38-0.52l-2.28-1.25c-1.9,4.85-4.2,8.21-7.37,10.75a0.263,0.263,0,0,0-.14.19,0.169,0.169,0,0,0,.19.17,10.693,10.693,0,0,0,2.33-1.34,20.785,20.785,0,0,0,4.68-4.64,12.886,12.886,0,0,0,2.16,3.65,23.744,23.744,0,0,1-8.95,6.55c-0.72.32-.72,0.32-0.72,0.48a0.16,0.16,0,0,0,.19.17,23.657,23.657,0,0,0,4.65-1.61,24.14,24.14,0,0,0,6.22-4.15,23.549,23.549,0,0,0,9.46,5.35,4.758,4.758,0,0,1,2.16-2.49,24.511,24.511,0,0,1-10.52-3.96c1.13-1.35,1.37-1.63,1.71-2.07,0.33-.4.6-0.76,1.34-1.8l0.68-.04a0.638,0.638,0,0,0,.67-0.48,1.184,1.184,0,0,0-.36-0.63Zm-6.31,2.14h4.94a31.235,31.235,0,0,1-2.47,3.33,13.2,13.2,0,0,1-2.59-3.14Zm-5,12.7c-0.43,0-.57.07-0.57,0.28s0.12,0.27.57,0.32a36.777,36.777,0,0,1,12,4.22,3.649,3.649,0,0,0,1.61.67,1.2,1.2,0,0,0,1.23-1.15c0-1.34-2.19-2.54-6.15-3.36A51.52,51.52,0,0,0,2054.41,6609.5Zm5.09-3.94c-0.5,0-.6.02-0.6,0.17,0,0.12.03,0.14,0.31,0.26a8.191,8.191,0,0,1,2.98,1.92c1.34,1.46,1.34,1.46,1.87,1.46a1.074,1.074,0,0,0,1.13-1.1C2065.19,6606.73,2062.74,6605.56,2059.5,6605.56Z" transform="translate(-2051.38 -6592.34)"/>
</svg>
