<svg xmlns="http://www.w3.org/2000/svg" width="640" height="71.12" viewBox="0 0 320 35.56">
  <defs>
    <style>
      .cls-1 {
        fill: #fff;
        fill-rule: evenodd;
      }
    </style>
  </defs>
  <path id="_里山懐石_とは" data-name="「里山懐石」とは" class="cls-1" d="M1585.01,1894.8v-24.43h9.65v-2.28h-11.93v26.71h2.28Zm20.87,6.8c4.86-.19,5.01-0.19,6.69-0.19h26.4a0.586,0.586,0,0,0,.65-0.57,0.973,0.973,0,0,0-.38-0.68l-3.23-2.85-2.81,3.07h-9.35v-6.27h12.61a0.448,0.448,0,0,0,.38-0.45,0.6,0.6,0,0,0-.3-0.5l-3.23-2.84-2.51,2.77h-6.95v-6.42h7.26v1.67a0.79,0.79,0,0,0,.91.87,6.812,6.812,0,0,0,1.75-.3,1.117,1.117,0,0,0,1.02-1.03v-13.45l0.65-.26a0.785,0.785,0,0,0,.57-0.8,0.942,0.942,0,0,0-.31-0.68l-3.61-3.54-1.51,2.36h-17.33l-4.14-2.09v20.06a0.75,0.75,0,0,0,.87.91c1.79,0,2.78-.42,2.78-1.14v-2.58h7.4v6.42h-5.81c-0.68,0-1.75-.04-3.04-0.08l-3.53-.11,0.83,1.37c3.2-.12,4.41-0.16,5.74-0.16h5.81v6.27h-7.59c-0.38,0-1.98-.03-3.61-0.07-1.3-.04-2.59-0.08-3.88-0.15Zm6.88-15.96v-5.96h7.4v5.96h-7.4Zm0-6.99v-6.12h7.4v6.12h-7.4Zm11.09,6.99v-5.96h7.26v5.96h-7.26Zm0-13.11h7.26v6.12h-7.26v-6.12Zm31.16,25.95h21.96v2.06c0,0.83.15,0.98,0.8,0.98a5.433,5.433,0,0,0,1.86-.34,1.077,1.077,0,0,0,.91-1.21v-21.62l0.88-.69a0.962,0.962,0,0,0,.38-0.72,0.775,0.775,0,0,0-.8-0.76l-4.03-.34v21.62h-9.27v-25.91l0.99-.84a0.9,0.9,0,0,0,.38-0.65,0.733,0.733,0,0,0-.8-0.68l-4.29-.27v28.35h-8.97v-18.92l0.88-.57a1.153,1.153,0,0,0,.6-0.88,0.813,0.813,0,0,0-.87-0.79l-4.18-.27v25.49a0.737,0.737,0,0,0,.8.88,6.752,6.752,0,0,0,2.05-.42,0.87,0.87,0,0,0,.72-0.87v-2.63Zm40.02-23.36a0.25,0.25,0,0,0-.27.23c0,0.11.04,0.3,0.08,0.6a3.285,3.285,0,0,1,.03.61,7.864,7.864,0,0,1-1.97,5.21,3.422,3.422,0,0,0-.84,2.05,1.616,1.616,0,0,0,1.64,1.75,2.492,2.492,0,0,0,2.31-1.71,11.271,11.271,0,0,0,.61-3.65,9.666,9.666,0,0,0-1.18-4.6C1695.22,1875.19,1695.18,1875.12,1695.03,1875.12Zm9.5,10.6a0.549,0.549,0,0,0,.68.64c1.86,0,2.47-.26,2.47-1.14v-1.33h14.13v1.3c0,0.34.23,0.49,0.69,0.49a6.5,6.5,0,0,0,1.97-.34,0.831,0.831,0,0,0,.61-0.91v-4.64l0.61-.38a0.709,0.709,0,0,0,.53-0.64,1.315,1.315,0,0,0-.42-0.84l-3.15-2.96-1.29,2.16h-4.83v-3.23h10.53c0.64,0,.87-0.11.87-0.42a1.165,1.165,0,0,0-.53-0.72l-3.12-2.66-2.51,2.78h-5.24v-2.7l0.95-.61a0.7,0.7,0,0,0,.38-0.65,0.737,0.737,0,0,0-.83-0.79l-3.88-.38v5.13h-3.76c-1.71,0-3.19-.04-6.57-0.19l0.79,1.36c3.35-.11,3.5-0.11,5.78-0.15h3.76v3.23h-4.94l-3.68-1.44v3.49c-0.5-1.29-1.71-2.2-3.84-2.81v-5.93l0.95-.76a1.365,1.365,0,0,0,.49-0.95,0.73,0.73,0,0,0-.8-0.76l-4.06-.3v34.84c0,0.38.23,0.5,0.83,0.5,1.68,0,2.59-.46,2.59-1.26v-24.12a5.077,5.077,0,0,1,.72,1.63c0.61,2.7.72,2.92,1.52,2.92a2.688,2.688,0,0,0,1.6-.6v4.14Zm8.62-1.14v3.53h-4.9c-0.72,0-1.83-.04-3.15-0.07l-3.46-.12,0.76,1.37c3.04-.11,4.33-0.15,5.85-0.15h2.66a31.179,31.179,0,0,1-7.33,7.18c-1.94,1.25-1.94,1.25-1.94,1.4a0.281,0.281,0,0,0,.3.31,10.453,10.453,0,0,0,2.78-1.03,37.229,37.229,0,0,0,4.67-2.66v4.07c-2.32.3-2.66,0.34-4.64,0.49l2.24,3.65a1.052,1.052,0,0,0,.99.68,1.04,1.04,0,0,0,.95-0.72l0.34-.72c3.04-1.1,4.3-1.56,4.98-1.82,1.07-.42,1.45-0.61,5.47-2.28a26.525,26.525,0,0,0,5.36,4.59,8.827,8.827,0,0,1,3.34-3.45,27.06,27.06,0,0,1-8.01-4.56,28.106,28.106,0,0,0,4.59-1.83h0.8a0.563,0.563,0,0,0,.69-0.57,0.607,0.607,0,0,0-.23-0.49l-2.66-2.17a32.358,32.358,0,0,1-4.11,4.26,12.978,12.978,0,0,1-3.19-4.33h11.29c0.42,0,.64-0.15.64-0.5a0.806,0.806,0,0,0-.41-0.64l-3.12-2.62-2.51,2.73h-5.62v-1.14l0.76-.38a1.1,1.1,0,0,0,.76-0.91,0.881,0.881,0,0,0-.95-0.84Zm-5.51-1.71v-4.71h2.77v4.71h-2.77Zm5.13,8.78a17.622,17.622,0,0,0,2.36-2.09,21.308,21.308,0,0,0,3.91,7.37c-3.08.6-3.53,0.68-6.27,1.06v-6.34Zm0.76-13.49h2.66v4.71h-2.66v-4.71Zm5.62,4.71v-4.71h2.66v4.71h-2.66Zm30.86,16.18h12.77v2.09a0.51,0.51,0,0,0,.64.54c1.26,0,2.89-.61,2.89-1.07v-12.69l1.03-.45a0.981,0.981,0,0,0,.49-0.76,1.053,1.053,0,0,0-.38-0.73l-3.65-3.42-1.48,2.28h-12.23l-0.8-.68a47.255,47.255,0,0,0,4.98-11.17h17.17a0.484,0.484,0,0,0,.46-0.53,0.623,0.623,0,0,0-.27-0.5l-3.8-3.04-2.74,3.04h-19.83c-0.53,0-1.78-.03-3.15-0.07l-4.33-.12,0.91,1.41,3.68-.11c1.22-.08,2.25-0.08,2.89-0.08h4.83c-2.09,9.16-6.2,15.96-12.96,21.54a0.965,0.965,0,0,0-.42.5,0.254,0.254,0,0,0,.23.26,16.633,16.633,0,0,0,3.53-2.13,38.7,38.7,0,0,0,6.08-5.43v14.21c0,0.34.19,0.5,0.65,0.5,1.33,0,2.81-.54,2.81-0.99v-2.4Zm0-1.02v-12.16h12.77v12.16h-12.77Zm41.31-22.46V1900h-9.65v2.28h11.93v-26.71h-2.28Zm49.17,10.45c-4.86,2.24-7.49,5.25-7.49,8.55a6.348,6.348,0,0,0,3.23,5.36,16.163,16.163,0,0,0,7.94,1.67,30.491,30.491,0,0,0,8.4-1.1c1.29-.46,1.79-0.95,1.79-1.67a2.916,2.916,0,0,0-2.78-2.7,6.339,6.339,0,0,0-2.01.49,23.129,23.129,0,0,1-7.14,1.33c-4.03,0-6.39-1.52-6.39-4.1a6.684,6.684,0,0,1,3.16-5.28,17.4,17.4,0,0,1,4.06-1.98,32.263,32.263,0,0,0,4.33-.91c2.47-.68,3.12-1.03,3.12-1.71,0-1.1-1.75-2.62-3.04-2.62a1.37,1.37,0,0,0-.95.45c-1.79,1.56-3.46,2.59-4.18,2.59-0.46,0-.84-0.91-0.84-2.05a32.349,32.349,0,0,1,1.22-7.64,6.681,6.681,0,0,0,.49-2.39,2.4,2.4,0,0,0-1.25-2.02,6.6,6.6,0,0,0-3.38-1.14c-1.41,0-3.46.76-3.46,1.29,0,0.16.12,0.23,0.38,0.23a3.822,3.822,0,0,1,1.98.65c0.83,0.61,1.1,1.25,1.1,2.73,0,0.38,0,1.03-.08,2.28-0.04,1.14-.04,1.64-0.04,2.32C1838.66,1882.68,1838.85,1883.48,1840.49,1886.02Zm58.59-9.15a8.2,8.2,0,0,1-3.95-1.11,5.549,5.549,0,0,1,.53-1.67,1.074,1.074,0,0,0,.15-0.53c0-.95-2.65-2.66-4.14-2.66-0.95,0-2.43.61-2.43,0.99a0.22,0.22,0,0,0,.23.19h0.15a2.188,2.188,0,0,1,.31-0.04,1.943,1.943,0,0,1,1.44,1.33c0.42,0.99.42,0.99,0.57,7.03a23.8,23.8,0,0,1-4.45.53,4.251,4.251,0,0,1-3.72-1.56,0.42,0.42,0,0,0-.3-0.3,0.248,0.248,0,0,0-.19.27,4.865,4.865,0,0,0,.72,1.97,4.686,4.686,0,0,0,4.44,2.2,17.576,17.576,0,0,0,3.54-.38c0.26,2.59.49,6.69,0.45,8.74-0.87-.07-1.93-0.15-2.73-0.15-4.22,0-7.15,1.79-7.15,4.37,0,2.36,2.63,4.14,6.12,4.14a6.806,6.806,0,0,0,5.51-2.28,5.091,5.091,0,0,0,1.18-2.66,10.116,10.116,0,0,1,2.92,2.55c0.92,1.29.92,1.29,1.11,1.4a2.263,2.263,0,0,0,1.52.57,1.776,1.776,0,0,0,1.82-1.9c0-1.97-2.55-3.95-7.11-5.47-0.03-1.33-.07-1.9-0.26-3.99-0.34-3.45-.34-3.76-0.53-5.92,4.06-1.22,5.96-2.63,5.96-4.49a1.068,1.068,0,0,0-.87-1.21,1.212,1.212,0,0,0-.34.04h-0.5Zm-6.8,17.4c-0.34,2.35-1.67,3.3-4.6,3.3-1.48,0-2.66-.76-2.66-1.75,0-1.4,1.6-2.47,3.77-2.47a9.651,9.651,0,0,1,3.53.73Zm3-17.67c0.27,0.19.5,0.34,0.76,0.49a9.548,9.548,0,0,0,.95.57,0.726,0.726,0,0,1,.38.38c0,0.46-.95,1.07-2.62,1.64a23.983,23.983,0,0,1,.15-3.31Zm-15.69,9.76c-0.19,0-.3.16-0.53,0.8-0.04.19-.23,0.61-0.46,1.18-0.26.68-.57,1.56-0.91,2.55-1.06,3.07-1.18,3.3-1.67,3.3a0.535,0.535,0,0,1-.53-0.42,12.63,12.63,0,0,1-.38-3.15,25.43,25.43,0,0,1,2.47-10.15c1.25-2.58,1.4-3.07,1.4-4.06a5.37,5.37,0,0,0-2.96-4.45,5,5,0,0,0-2.2-.68,0.188,0.188,0,0,0-.23.15,0.494,0.494,0,0,0,.3.34,4.4,4.4,0,0,1,1.14,3.23,30.514,30.514,0,0,1-1.06,5.93,44.006,44.006,0,0,0-1.33,9.84c0,5.74,2.13,10.41,4.79,10.41a1.862,1.862,0,0,0,1.74-1.56,1.63,1.63,0,0,0-.19-0.6,9.594,9.594,0,0,1-.64-3.88,32.467,32.467,0,0,1,1.29-7.56,7.032,7.032,0,0,0,.19-0.95A0.257,0.257,0,0,0,1879.59,1886.36Z" transform="translate(-1582.72 -1867.66)"/>
</svg>
