<svg xmlns="http://www.w3.org/2000/svg" width="472.42" height="33.7" viewBox="0 0 236.21 16.85">
  <defs>
    <style>
      .cls-1 {
        fill: #fff;
        fill-rule: evenodd;
      }
    </style>
  </defs>
  <path id="茂木の四季の旬を味わう" class="cls-1" d="M1624.31,7181.37c2.32-.09,2.38-0.09,3.14-0.09h1.27v2.47c0,0.11.09,0.16,0.24,0.16a5.918,5.918,0,0,0,1.11-.21c0.2-.06.27-0.11,0.27-0.25v-2.17h3.42v1.66c0,0.16.11,0.25,0.35,0.25a5.343,5.343,0,0,0,1.17-.18,2.671,2.671,0,0,1,.63.89,3.785,3.785,0,0,0,.48,1.02,0.959,0.959,0,0,0,.65.27,0.807,0.807,0,0,0,.81-0.86c0-.92-0.99-1.62-2.43-1.71v-1.34h4.92a0.255,0.255,0,0,0,.3-0.23,0.634,0.634,0,0,0-.3-0.43l-1.57-1.35-1.35,1.53h-2v-1.78l0.38-.18a0.461,0.461,0,0,0,.32-0.4,0.487,0.487,0,0,0-.57-0.41l-1.79-.13v2.9h-3.42v-1.75l0.35-.18a0.554,0.554,0,0,0,.32-0.45c0-.23-0.22-0.36-0.59-0.39l-1.7-.13v2.9h-1.27c-0.76,0-1.45-.02-3.55-0.11Zm7.17,4.6a12.437,12.437,0,0,0,1.71,4.79,16.568,16.568,0,0,1-4.92,3.34c-0.34.17-.41,0.22-0.41,0.31,0,0.07.05,0.11,0.16,0.11a10.367,10.367,0,0,0,2.27-.69,14.992,14.992,0,0,0,3.67-2.01,8.366,8.366,0,0,0,1.88,1.49,7.907,7.907,0,0,0,3.36,1.06c0.72,0,1.17-.21,1.17-0.57a1.865,1.865,0,0,0-.52-0.97,0.5,0.5,0,0,1-.14-0.33,0.747,0.747,0,0,1,.01-0.11c0.02-.05.04-0.23,0.08-0.48,0-.06.05-0.33,0.12-0.72,0.07-.51.15-1.03,0.16-1.17l0.02-.16a0.155,0.155,0,0,0,.02-0.06,0.128,0.128,0,0,0-.11-0.12h-0.02a0.384,0.384,0,0,0-.19.27,8.927,8.927,0,0,1-.89,1.74,1.115,1.115,0,0,1-.99.72,5.8,5.8,0,0,1-2.84-1.62,14.064,14.064,0,0,0,2.23-2.74l0.69-.16a0.369,0.369,0,0,0,.39-0.32,0.527,0.527,0,0,0-.3-0.42l-1.73-.99-0.11.18a16.8,16.8,0,0,1-2.02,3.25,9.368,9.368,0,0,1-1.19-3.62h7.3a0.27,0.27,0,0,0,.32-0.24,0.822,0.822,0,0,0-.45-0.59l-1.37-1.15-1.29,1.49h-4.56c-0.04-.32-0.11-1.46-0.11-1.71v-0.16l0.45-.31a0.514,0.514,0,0,0,.25-0.38c0-.19-0.12-0.25-0.77-0.28l-1.6-.11a28.544,28.544,0,0,0,.18,2.95h-3.42l-2.02-.97c0.07,0.81.09,1.33,0.09,2.19,0,3.71-.4,5.57-1.6,7.58a0.456,0.456,0,0,0-.11.26,0.113,0.113,0,0,0,.13.12c0.39,0,1.74-1.53,2.3-2.63,0.74-1.45.92-2.61,0.99-6.06h3.73Zm22.1,8.21a0.218,0.218,0,0,0,.27.25,3.241,3.241,0,0,0,1.15-.27,0.3,0.3,0,0,0,.18-0.33v-9.63a14.154,14.154,0,0,0,6.07,8.23,3.726,3.726,0,0,1,1.88-1.49,13.361,13.361,0,0,1-7.71-7.46h6.88a0.229,0.229,0,0,0,.25-0.21,0.669,0.669,0,0,0-.31-0.45l-1.58-1.34-1.26,1.52h-4.22v-3.91l0.42-.22a0.469,0.469,0,0,0,.27-0.39c0-.24-0.15-0.35-0.56-0.36l-1.73-.13V7183h-3.74c-0.04,0-.83-0.02-1.57-0.04l-1.98-.07,0.43,0.68c0.69-.02,1.33-0.03,1.55-0.05,0.79-.02,1.33-0.04,1.57-0.04h3.42a22.244,22.244,0,0,1-7.04,9.08,0.248,0.248,0,0,0-.13.18,0.09,0.09,0,0,0,.09.09,11.088,11.088,0,0,0,2.58-1.48,24.45,24.45,0,0,0,4.82-5.06v7.89Zm23.58-13.17c0.2-.01.33-0.01,0.38-0.01a4.375,4.375,0,0,1,1.86.43c1.56,0.79,2.37,2.43,2.37,4.84a6.149,6.149,0,0,1-2.3,5.13,9.774,9.774,0,0,1-3.23,1.68c-0.28.09-.34,0.11-0.34,0.2,0,0.07.07,0.1,0.18,0.1a7.52,7.52,0,0,0,1.15-.21,11.249,11.249,0,0,0,3.34-1.23,6.616,6.616,0,0,0,3.33-5.76,5.434,5.434,0,0,0-1.43-3.8,6.948,6.948,0,0,0-5.06-1.98c-4.21,0-7.83,3.41-7.83,7.37a4.713,4.713,0,0,0,.88,2.9,2.214,2.214,0,0,0,1.52.99c0.99,0,2.55-1.28,3.62-2.94a11.668,11.668,0,0,0,1.8-5.85A6.937,6.937,0,0,0,1677.16,7181.01Zm-0.88.08a0.834,0.834,0,0,0,.04.12,4.49,4.49,0,0,1,.1,1.01,10.585,10.585,0,0,1-1.83,5.38c-0.76,1.19-1.78,2.13-2.34,2.13s-1.05-.94-1.05-2a7.022,7.022,0,0,1,2.13-5.02A6.767,6.767,0,0,1,1676.28,7181.09Zm16.88,11.29h11.81v1.02a0.3,0.3,0,0,0,.36.34,2.685,2.685,0,0,0,.9-0.18,0.451,0.451,0,0,0,.44-0.5v-11.33l0.41-.16a0.356,0.356,0,0,0,.27-0.3,0.735,0.735,0,0,0-.22-0.42l-1.54-1.78-0.76,1.15h-11.4l-1.91-.99v14.17a0.36,0.36,0,0,0,.38.42,3.436,3.436,0,0,0,.96-0.22,0.324,0.324,0,0,0,.3-0.38v-0.84Zm0-.49v-11.18h3.32c0.01,0.56.03,1.01,0.03,1.24a14.2,14.2,0,0,1-.72,5.42,6.185,6.185,0,0,1-2.07,2.38,0.492,0.492,0,0,0-.32.32,0.142,0.142,0,0,0,.14.13,4.242,4.242,0,0,0,1.3-.56,5.957,5.957,0,0,0,2.1-1.82c0.87-1.24,1.12-2.83,1.16-7.11h1.65v7.33c0,0.81.27,0.92,2.15,0.92a12.237,12.237,0,0,0,2.1-.11,0.762,0.762,0,0,0,.74-0.67,0.754,0.754,0,0,0-.41-0.61,0.531,0.531,0,0,1-.24-0.45v-0.15c0.09-1.13.11-1.51,0.11-1.72,0-.15-0.04-0.22-0.14-0.22a0.183,0.183,0,0,0-.18.18,7.893,7.893,0,0,1-.76,2.11c-0.16.21-.34,0.25-1.3,0.25-0.45,0-.5-0.04-0.5-0.34v-6.52h3.65v11.18h-11.81Zm20.32-1.73c2.49-.09,2.56-0.09,3.12-0.09h3.94v2.09c0,0.32-.07.36-0.66,0.36-0.53,0-1.05-.02-1.68-0.07a1.727,1.727,0,0,0-.3-0.02c-0.17,0-.27.05-0.27,0.16,0,0.16.07,0.2,0.86,0.42l0.58,0.19c0.07,0.02.28,0.09,0.52,0.17,0.36,0.1.39,0.14,0.43,0.45,0.09,0.72.09,0.73,0.41,0.73a2.2,2.2,0,0,0,.94-0.25,1.194,1.194,0,0,0,.86-1.29v-2.94h7.3a0.246,0.246,0,0,0,.28-0.27,0.431,0.431,0,0,0-.23-0.36l-1.49-1.15-1.32,1.3h-4.54v-1.05c0.9-.31,1.28-0.45,2.9-1.08h0.67a0.273,0.273,0,0,0,.34-0.27,0.416,0.416,0,0,0-.16-0.32l-1.33-1.23-0.94.74h-4.43c-0.97,0-1.26-.02-2.45-0.07a18.5,18.5,0,0,0,3.71-2.77v2.14c0,0.29.09,0.39,0.33,0.39a6.434,6.434,0,0,0,1.02-.14,0.341,0.341,0,0,0,.29-0.4v-2.39a13.487,13.487,0,0,0,6.23,4.16,3.833,3.833,0,0,1,1.68-1.5c-3.5-.64-5.64-1.49-7.48-2.91h6.79a0.206,0.206,0,0,0,.25-0.2,0.345,0.345,0,0,0-.12-0.27l-1.61-1.21-1.18,1.19h-4.56v-2.27c1.3-.18,1.3-0.18,1.59-0.21,0.79-.13.91-0.13,1.85-0.24l0.86,0.02c0.31,0.02.49-.09,0.49-0.27a0.539,0.539,0,0,0-.16-0.34l-1.42-1.24a62.57,62.57,0,0,1-10.56,2.52c-0.3.01-.43,0.1-0.43,0.25s0.09,0.2.29,0.2c0.58,0,4.21-.31,5.85-0.49v2.07h-3.67c-0.32,0-.96-0.02-1.68-0.03l-1.87-.08,0.4,0.69c2.41-.07,2.64-0.09,3.15-0.09h2.05a20.447,20.447,0,0,1-4.93,4.25c-0.81.48-.81,0.48-0.81,0.61a0.164,0.164,0,0,0,.18.16,16.314,16.314,0,0,0,3.37-1.55l0.34,0.56c1.06-.04,1.4-0.05,2.21-0.05h4.16l-0.63.48-0.77.61-1.5-.25v1.88h-3.94c-1.15,0-1.78-.02-3.55-0.11Zm30.64-9.15c0.2-.01.33-0.01,0.38-0.01a4.375,4.375,0,0,1,1.86.43c1.56,0.79,2.37,2.43,2.37,4.84a6.149,6.149,0,0,1-2.3,5.13,9.774,9.774,0,0,1-3.23,1.68c-0.28.09-.34,0.11-0.34,0.2,0,0.07.07,0.1,0.18,0.1a7.52,7.52,0,0,0,1.15-.21,11.249,11.249,0,0,0,3.34-1.23,6.616,6.616,0,0,0,3.33-5.76,5.434,5.434,0,0,0-1.43-3.8,6.948,6.948,0,0,0-5.06-1.98c-4.21,0-7.83,3.41-7.83,7.37a4.713,4.713,0,0,0,.88,2.9,2.214,2.214,0,0,0,1.52.99c0.99,0,2.55-1.28,3.62-2.94a11.668,11.668,0,0,0,1.8-5.85A6.937,6.937,0,0,0,1744.12,7181.01Zm-0.88.08a0.834,0.834,0,0,0,.04.12,4.49,4.49,0,0,1,.1,1.01,10.585,10.585,0,0,1-1.83,5.38c-0.76,1.19-1.78,2.13-2.34,2.13s-1.05-.94-1.05-2a7.022,7.022,0,0,1,2.13-5.02A6.767,6.767,0,0,1,1743.24,7181.09Zm17.67,10.89c0,0.34.08,0.41,0.33,0.41a3.031,3.031,0,0,0,.97-0.21,0.362,0.362,0,0,0,.27-0.42v-1.08h3.58v0.83c0,0.24.06,0.29,0.31,0.29a2.632,2.632,0,0,0,.95-0.16,0.438,0.438,0,0,0,.36-0.45v-5.91l0.24-.11a0.382,0.382,0,0,0,.27-0.34,0.584,0.584,0,0,0-.14-0.36l-1.39-1.51-0.72.95h-3.53l-1.04-.59c0.48-.72.57-0.85,1.04-1.66h9.16c-0.09,4.25-.12,5.28-0.32,7.13-0.29,2.69-.77,3.59-1.91,3.59a18.982,18.982,0,0,1-2.16-.22,0.39,0.39,0,0,0-.14-0.02,0.142,0.142,0,0,0-.15.15c0,0.09,0,.09.9,0.5,1.28,0.63,1.28.63,1.26,0.85l-0.01.14a0.467,0.467,0,0,0,.48.59,2.5,2.5,0,0,0,1.26-.43,4.345,4.345,0,0,0,1.82-2.81c0.43-1.67.54-3.04,0.65-8.42l0.23-.09a0.416,0.416,0,0,0,.34-0.38,0.627,0.627,0,0,0-.19-0.43l-1.57-1.71-0.7,1.08h-8.7a17.052,17.052,0,0,0,.74-1.61l0.43-.12a0.386,0.386,0,0,0,.34-0.4,0.44,0.44,0,0,0-.3-0.41l-1.82-.83a27.017,27.017,0,0,1-3.44,7.83,4.657,4.657,0,0,0-.79,1.19,0.118,0.118,0,0,0,.11.11c0.3,0,1.72-1.42,2.98-3.03v8.07Zm1.57-1.78v-2.65h3.58v2.65h-3.58Zm0-3.14v-2.66h3.58v2.66h-3.58Zm26.21-7.54a1.632,1.632,0,0,1-.85.58,1.86,1.86,0,0,0,.06-0.45,1.235,1.235,0,0,0-.45-1.14,1.451,1.451,0,0,0-.88-0.29,1.376,1.376,0,0,0-1.05.33c0,0.05.04,0.07,0.13,0.09a1.133,1.133,0,0,1,.7,1.31,2.317,2.317,0,0,1-.07.56,4.907,4.907,0,0,1-1.91.4,1.409,1.409,0,0,1-1.17-.33,0.309,0.309,0,0,0-.15-0.09,0.089,0.089,0,0,0-.07.09,1.6,1.6,0,0,0,1.55,1.39,8.4,8.4,0,0,0,1.6-.25,9.047,9.047,0,0,1-3.53,4.84c-0.52.4-.55,0.45-0.55,0.72a1.586,1.586,0,0,0,.91,1.49,0.96,0.96,0,0,0,.73-0.61c0.37-.63,1.31-2.03,1.51-2.28a2.03,2.03,0,0,1,1.31-.8c0.6,0,.9.6,0.92,1.79l0.02,0.77V7188a14.134,14.134,0,0,0-1.66,1.08,2.894,2.894,0,0,0-1.33,2.2,2.3,2.3,0,0,0,1.28,1.94,6.221,6.221,0,0,0,3.04.6,13.921,13.921,0,0,0,2.74-.26,1.131,1.131,0,0,0,1.11-.88,1.627,1.627,0,0,0-.37-0.81,1.053,1.053,0,0,0-.78-0.32,2.231,2.231,0,0,0-.54.12,10.622,10.622,0,0,1-2.79.4c-1.73,0-2.52-.36-2.52-1.15a2.156,2.156,0,0,1,.61-1.35,6.226,6.226,0,0,1,1.24-.99v0.34l-0.01.72a3.307,3.307,0,0,1-.04.58,0.682,0.682,0,0,0-.02.19,0.391,0.391,0,0,0,.43.31,0.982,0.982,0,0,0,1.12-1.15c0-.33-0.02-0.61-0.05-1.66a33.041,33.041,0,0,1,5-2.03c1.23-.44,1.71-0.89,1.71-1.57,0-1.15-1.04-1.98-2.48-1.98-2,0-3.53,1.35-4.67,4.1a2.04,2.04,0,0,0-.55-1.4,1.968,1.968,0,0,0-1.3-.47,2.612,2.612,0,0,0-.95.22c0.73-1.24,1.02-1.78,1.85-3.42,1.78-.53,2.21-0.78,2.21-1.26,0-.24,0-0.24-0.75-0.49Zm0.11,7.67v-0.04a4.394,4.394,0,0,1,.72-1.74c0.9-1.51,1.98-2.34,3.06-2.34a0.994,0.994,0,0,1,.92.95c0,0.51,0,.51-4.72,3.22Zm15.49,1.15h1.81v1.21a0.205,0.205,0,0,0,.25.23,3.506,3.506,0,0,0,.7-0.12c0.43-.13.56-0.22,0.56-0.4v-2.84h4.16a18.2,18.2,0,0,1-5.33,7.14,0.559,0.559,0,0,0-.31.35,0.09,0.09,0,0,0,.09.09,10.43,10.43,0,0,0,2.23-1.37,19.379,19.379,0,0,0,3.6-3.53v5.11a0.251,0.251,0,0,0,.31.24,2.735,2.735,0,0,0,.65-0.11c0.49-.11.61-0.2,0.61-0.45v-6.63a13.826,13.826,0,0,0,4.09,6.23,3.28,3.28,0,0,1,1.64-1.6,12.927,12.927,0,0,1-3.73-2.7,8.759,8.759,0,0,1-1.82-2.77h5.04a0.27,0.27,0,0,0,.25-0.26,0.633,0.633,0,0,0-.21-0.39l-1.41-1.21-1.22,1.37h-2.63v-3.42h4.45a0.221,0.221,0,0,0,.25-0.23,0.584,0.584,0,0,0-.27-0.44l-1.33-1.15-1.15,1.33h-1.95v-2.97l0.24-.16a0.562,0.562,0,0,0,.32-0.45,0.428,0.428,0,0,0-.49-0.36l-1.64-.18v4.12h-1.36c-0.06,0-.54,0-1.03-0.02l-1.39-.05,0.35,0.61,1.06-.03c0.45-.02.83-0.02,1.01-0.02h1.36v3.42h-4.44v-3.98l0.21-.11a0.381,0.381,0,0,0,.24-0.32,0.645,0.645,0,0,0-.24-0.45l-1.18-1.35-0.58.93h-1.71l-1.55-.82v11.09a0.215,0.215,0,0,0,.23.23,5.281,5.281,0,0,0,1.05-.21,0.287,0.287,0,0,0,.21-0.33v-2.27Zm0-7.2h1.81v6.72h-1.81v-6.72Zm23.82,7.08a11.128,11.128,0,0,1-1.48,1.65,1.353,1.353,0,0,0-.63,1.05,1.061,1.061,0,0,0,.88,1.24c0.31,0,.44-0.11.67-0.61,0.23-.47.52-0.97,1.17-2.05a11.828,11.828,0,0,1,.69,3.43,1.658,1.658,0,0,0,.07.81,0.419,0.419,0,0,0,.32.18,1.511,1.511,0,0,0,1.42-1.33,1.953,1.953,0,0,0-.03-0.34,26.717,26.717,0,0,1-.43-5.26,1.333,1.333,0,0,1,.57-1.13,6.614,6.614,0,0,1,4.18-2c1.71,0,2.66,1.1,2.66,3.1a5.539,5.539,0,0,1-1.67,4.17,8.738,8.738,0,0,1-2.63,1.62,0.3,0.3,0,0,0-.25.18,0.145,0.145,0,0,0,.14.15,4.7,4.7,0,0,0,.74-0.15,9.821,9.821,0,0,0,3.6-1.72,5.468,5.468,0,0,0,2.09-4.24,3.92,3.92,0,0,0-4.05-4.03c-1.6,0-3.22.78-5.26,2.5a1.349,1.349,0,0,1,.31-0.73c0.11-.15.48-0.62,0.63-0.8a0.89,0.89,0,0,0,.32-0.54,1.155,1.155,0,0,0-.75-0.82,3.263,3.263,0,0,1-.33.05,8.209,8.209,0,0,1,.38-2.09,1.385,1.385,0,0,0,.09-0.4,2.3,2.3,0,0,0-2.02-1.65,1.436,1.436,0,0,0-1.04.27,0.144,0.144,0,0,0,.07.11,0.785,0.785,0,0,1,.63.28c0.45,0.53.6,1.17,0.6,2.72,0,0.4,0,.71-0.02,1.19-1.84,1.03-2.69,1.82-2.69,2.54a2.842,2.842,0,0,0,.45,1.35A7.906,7.906,0,0,1,1828.11,7188.22Zm0.49-.65c-0.13-.38-0.13-0.38-0.29-0.79a2.389,2.389,0,0,1-.31-1.05c0-.48.36-0.77,1.82-1.4,0,0.74,0,.74.02,1.24a1.991,1.991,0,0,1-.25.72Zm0.63,1.69-0.15-.43a13.649,13.649,0,0,1,.87-1.5c0.09,1.77.12,2.74,0.12,2.9a0.486,0.486,0,0,1-.27.56c-0.14,0-.2-0.09-0.27-0.48a3.105,3.105,0,0,0-.14-0.51Zm26.58-7.85a5.34,5.34,0,0,1,.83.05c0.25,0.02.41,0.04,0.58,0.04,0.68,0,.97-0.16.97-0.54a1.287,1.287,0,0,0-.95-1.4,3.194,3.194,0,0,0-.33.03,5.045,5.045,0,0,1-.61.04c-1.59,0-2.41-.45-2.85-1.53-0.03-.13-0.07-0.16-0.12-0.16a0.9,0.9,0,0,0-.18.72,2.371,2.371,0,0,0,1.22,2.01c0.18,0.09.22,0.11,0.22,0.16a0.292,0.292,0,0,1-.15.18,3.727,3.727,0,0,0-.95.76,0.088,0.088,0,0,0,.09.05,0.2,0.2,0,0,0,.07-0.01A6.852,6.852,0,0,1,1855.81,7181.41Zm-4.48,2.29a1.577,1.577,0,0,0-.41,1.19,1.671,1.671,0,0,0,1.42,1.78,1.6,1.6,0,0,0,.86-0.52,15.663,15.663,0,0,1,1.71-1.43,3.721,3.721,0,0,1,1.8-.77c0.94,0,1.48,1.04,1.48,2.92a6.945,6.945,0,0,1-2.09,5.09,13.343,13.343,0,0,1-3.44,2.22c-0.2.07-.27,0.12-0.27,0.19s0.07,0.09.16,0.09a14.844,14.844,0,0,0,2.79-.9,7.319,7.319,0,0,0,4.78-6.78c0-2.27-1.12-3.68-2.94-3.68a8,8,0,0,0-3.53,1.14,2.756,2.756,0,0,1-1.24.41,1.087,1.087,0,0,1-1.01-.86C1851.38,7183.73,1851.37,7183.7,1851.33,7183.7Z" transform="translate(-1623.91 -7177.81)"/>
</svg>
