<svg xmlns="http://www.w3.org/2000/svg" width="195.56" height="54.94" viewBox="0 0 97.78 27.47">
  <defs>
    <style>
      .cls-1 {
        fill: #a38737;
        fill-rule: evenodd;
      }
    </style>
  </defs>
  <path id="山の幸_" data-name="山の幸 " class="cls-1" d="M1338.1,2425.95h17.33v1.62c0,0.66.12,0.78,0.63,0.78a4.367,4.367,0,0,0,1.47-.27,0.855,0.855,0,0,0,.72-0.96v-17.07l0.69-.54a0.773,0.773,0,0,0,.3-0.57,0.609,0.609,0,0,0-.63-0.6l-3.18-.27v17.07h-7.31v-20.46l0.78-.66a0.713,0.713,0,0,0,.3-0.51,0.582,0.582,0,0,0-.63-0.54l-3.39-.21v22.38h-7.08V2410.2l0.69-.45a0.9,0.9,0,0,0,.48-0.69,0.649,0.649,0,0,0-.69-0.63l-3.3-.21v20.13a0.577,0.577,0,0,0,.63.69,5.374,5.374,0,0,0,1.62-.33,0.686,0.686,0,0,0,.57-0.69v-2.07Zm45.38-19.02c0.33-.03.54-0.03,0.62-0.03a7.192,7.192,0,0,1,3.09.72c2.61,1.32,3.96,4.05,3.96,8.07a10.256,10.256,0,0,1-3.84,8.55,16.065,16.065,0,0,1-5.36,2.79c-0.48.15-.57,0.18-0.57,0.33,0,0.12.12,0.18,0.3,0.18a12.994,12.994,0,0,0,1.92-.36,18.514,18.514,0,0,0,5.54-2.04,11.05,11.05,0,0,0,5.55-9.6,9.05,9.05,0,0,0-2.37-6.33,11.567,11.567,0,0,0-8.42-3.3c-7.02,0-13.05,5.67-13.05,12.27a7.771,7.771,0,0,0,1.47,4.83,3.625,3.625,0,0,0,2.52,1.65c1.65,0,4.26-2.13,6.03-4.89a19.306,19.306,0,0,0,3-9.75A11.478,11.478,0,0,0,1383.48,2406.93Zm-1.47.12a1.912,1.912,0,0,0,.06.21,7.212,7.212,0,0,1,.18,1.68,17.641,17.641,0,0,1-3.06,8.97c-1.26,1.98-2.97,3.54-3.9,3.54s-1.74-1.56-1.74-3.33a11.749,11.749,0,0,1,3.54-8.37A11.335,11.335,0,0,1,1382.01,2407.05Zm23.66,5.76c2.25-.12,3.12-0.15,5.16-0.15h0.36a4.316,4.316,0,0,1,1.08,2.07l0.18,0.75c0.06,0.45.15,0.75,0.18,0.93a3.912,3.912,0,0,0,.42.99h-1.65c-2.31,0-3.24-.03-5.88-0.18l0.72,1.14c2.16-.12,2.94-0.15,5.16-0.15h5.78v3.96h-5c-2.25,0-3.21-.03-5.91-0.18l0.78,1.14c2.22-.12,3.06-0.15,5.13-0.15h5v5.82c0,0.48.12,0.6,0.63,0.6a7.345,7.345,0,0,0,1.71-.24,0.742,0.742,0,0,0,.6-0.78v-5.4h10.62a0.484,0.484,0,0,0,.6-0.48,0.772,0.772,0,0,0-.36-0.6l-2.61-1.89-1.98,2.16h-6.27v-3.96h11.28a0.424,0.424,0,0,0,.51-0.42,0.516,0.516,0,0,0-.24-0.39l-2.61-2.25-1.92,2.25h-3.93c1.05-1.41,1.2-1.62,2.22-3.12l0.63-.21a0.577,0.577,0,0,0,.57-0.54,0.766,0.766,0,0,0-.33-0.57l-0.42-.3h6.6c0.42,0,.6-0.15.6-0.45a0.873,0.873,0,0,0-.36-0.6l-2.58-2.19-1.98,2.43H1420v-4.26h10.23c0.45,0,.66-0.15.66-0.45a0.618,0.618,0,0,0-.27-0.48l-2.58-2.16-1.89,2.28H1420v-2.73l1.02-.6a0.674,0.674,0,0,0,.36-0.63,0.684,0.684,0,0,0-.78-0.66l-3.42-.24v4.86h-4.34c-1.92,0-3.06-.03-5.88-0.15l0.72,1.11c2.43-.12,3.48-0.15,5.16-0.15h4.34v4.26h-6.35c-2.28,0-3.21-.03-5.91-0.18Zm17.24-.15a33.079,33.079,0,0,1-1.05,4.74h-6.63a2.463,2.463,0,0,0,.48-1.44c0-1.38-1.05-2.58-2.96-3.3h10.16Z" transform="translate(-1335.28 -2401.94)"/>
</svg>
