<svg xmlns="http://www.w3.org/2000/svg" width="558.62" height="67.38" viewBox="0 0 279.31 33.69">
  <defs>
    <style>
      .cls-1 {
        fill: #fff;
        fill-rule: evenodd;
      }
    </style>
  </defs>
  <path id="里山懐石コース" class="cls-1" d="M1601.18,5386.26c4.61-.18,4.75-0.18,6.34-0.18h25.01a0.555,0.555,0,0,0,.62-0.54,0.922,0.922,0,0,0-.36-0.64l-3.06-2.7-2.67,2.91h-8.85v-5.94h11.95a0.426,0.426,0,0,0,.36-0.43,0.566,0.566,0,0,0-.29-0.47l-3.06-2.7-2.38,2.63h-6.58v-6.08h6.87v1.58a0.757,0.757,0,0,0,.87.83,6.374,6.374,0,0,0,1.65-.29,1.054,1.054,0,0,0,.97-0.97v-12.74l0.62-.25a0.743,0.743,0,0,0,.54-0.76,0.911,0.911,0,0,0-.29-0.65l-3.42-3.35-1.44,2.24h-16.42l-3.92-1.98v19a0.72,0.72,0,0,0,.83.87c1.69,0,2.63-.4,2.63-1.08v-2.45h7.02v6.08h-5.51c-0.65,0-1.66-.03-2.88-0.07l-3.35-.11,0.79,1.3c3.03-.11,4.18-0.15,5.44-0.15h5.51v5.94h-7.2c-0.36,0-1.88-.03-3.42-0.07-1.23-.04-2.45-0.07-3.67-0.14Zm6.52-15.11v-5.66h7.02v5.66h-7.02Zm0-6.63v-5.79h7.02v5.79h-7.02Zm10.51,6.63v-5.66h6.87v5.66h-6.87Zm0-12.42h6.87v5.79h-6.87v-5.79Zm29.52,24.58h20.8v1.95c0,0.79.15,0.93,0.76,0.93a5.334,5.334,0,0,0,1.76-.32,1.028,1.028,0,0,0,.87-1.15v-20.48l0.83-.65a0.946,0.946,0,0,0,.36-0.69,0.739,0.739,0,0,0-.76-0.72l-3.82-.32v20.48h-8.78v-24.55l0.94-.79a0.884,0.884,0,0,0,.36-0.61,0.7,0.7,0,0,0-.76-0.65l-4.07-.25v26.85h-8.49v-17.92l0.83-.54a1.086,1.086,0,0,0,.57-0.83,0.784,0.784,0,0,0-.83-0.76l-3.95-.25v24.15a0.69,0.69,0,0,0,.75.83,6.4,6.4,0,0,0,1.95-.4,0.819,0.819,0,0,0,.68-0.82v-2.49Zm37.91-22.13a0.229,0.229,0,0,0-.25.21c0,0.11.03,0.29,0.07,0.58a2.822,2.822,0,0,1,.03.57,6.537,6.537,0,0,1-.39,2.38,6.73,6.73,0,0,1-1.48,2.55,3.264,3.264,0,0,0-.79,1.95,1.519,1.519,0,0,0,1.55,1.65,2.353,2.353,0,0,0,2.19-1.62,10.574,10.574,0,0,0,.58-3.45,9.2,9.2,0,0,0-1.12-4.36C1685.82,5361.25,1685.78,5361.18,1685.64,5361.18Zm9,10.04a0.52,0.52,0,0,0,.64.61c1.77,0,2.34-.25,2.34-1.08v-1.26h13.39v1.22c0,0.33.22,0.47,0.65,0.47a6.1,6.1,0,0,0,1.87-.32,0.79,0.79,0,0,0,.58-0.87v-4.39l0.58-.36a0.674,0.674,0,0,0,.5-0.61,1.243,1.243,0,0,0-.4-0.79l-2.98-2.81-1.23,2.05h-4.57v-3.06h9.97c0.61,0,.83-0.1.83-0.39a1.128,1.128,0,0,0-.5-0.69l-2.96-2.52-2.37,2.63h-4.97v-2.55l0.9-.58a0.667,0.667,0,0,0,.36-0.61,0.712,0.712,0,0,0-.79-0.76l-3.67-.36v4.86h-3.57c-1.62,0-3.02-.03-6.22-0.18l0.75,1.3c3.17-.11,3.31-0.11,5.47-0.15h3.57v3.06h-4.68l-3.49-1.36v3.31c-0.47-1.23-1.62-2.09-3.64-2.67v-5.61l0.9-.72a1.312,1.312,0,0,0,.47-0.9,0.688,0.688,0,0,0-.76-0.72l-3.85-.29v33.01c0,0.36.22,0.47,0.79,0.47,1.59,0,2.45-.44,2.45-1.19v-22.86a4.682,4.682,0,0,1,.68,1.55c0.58,2.55.69,2.77,1.44,2.77a2.49,2.49,0,0,0,1.52-.58v3.93Zm8.17-1.08v3.35h-4.65c-0.68,0-1.72-.04-2.98-0.08l-3.28-.1,0.72,1.29c2.88-.11,4.1-0.14,5.54-0.14h2.52a29.44,29.44,0,0,1-6.94,6.8c-1.84,1.19-1.84,1.19-1.84,1.33a0.268,0.268,0,0,0,.29.29,9.93,9.93,0,0,0,2.63-.97,35.992,35.992,0,0,0,4.42-2.52v3.85c-2.19.29-2.52,0.32-4.39,0.47l2.13,3.45a0.969,0.969,0,0,0,.93.65,0.99,0.99,0,0,0,.9-0.68l0.33-.69c2.88-1.04,4.06-1.47,4.71-1.72,1.01-.4,1.37-0.58,5.18-2.16a25.5,25.5,0,0,0,5.08,4.35,8.343,8.343,0,0,1,3.17-3.27,25.717,25.717,0,0,1-7.6-4.32,27.029,27.029,0,0,0,4.36-1.73h0.75a0.529,0.529,0,0,0,.65-0.54,0.594,0.594,0,0,0-.21-0.47l-2.52-2.05a30.058,30.058,0,0,1-3.89,4.03,12.063,12.063,0,0,1-3.03-4.1h10.7a0.491,0.491,0,0,0,.61-0.47,0.747,0.747,0,0,0-.4-0.61l-2.95-2.49-2.38,2.6h-5.32v-1.08l0.72-.36a1.054,1.054,0,0,0,.72-0.87,0.828,0.828,0,0,0-.9-0.79Zm-5.22-1.62v-4.46h2.63v4.46h-2.63Zm4.86,8.31a15.255,15.255,0,0,0,2.23-1.98,20.065,20.065,0,0,0,3.71,6.99c-2.92.57-3.35,0.64-5.94,1v-6.01Zm0.72-12.77h2.52v4.46h-2.52v-4.46Zm5.32,4.46v-4.46h2.52v4.46h-2.52Zm29.24,15.33h12.09v1.98c0,0.36.18,0.51,0.61,0.51,1.19,0,2.74-.58,2.74-1.01v-12.02l0.97-.44a0.9,0.9,0,0,0,.47-0.72,0.981,0.981,0,0,0-.36-0.68l-3.46-3.24-1.4,2.16H1737.8l-0.76-.65a44.629,44.629,0,0,0,4.72-10.58h16.27a0.458,0.458,0,0,0,.43-0.5,0.563,0.563,0,0,0-.25-0.47l-3.6-2.88-2.59,2.88h-18.79c-0.51,0-1.69-.04-2.99-0.07l-4.1-.11,0.86,1.33,3.49-.11c1.15-.07,2.13-0.07,2.74-0.07h4.57c-1.98,8.67-5.87,15.12-12.27,20.41a0.882,0.882,0,0,0-.4.47,0.243,0.243,0,0,0,.22.25,16.031,16.031,0,0,0,3.34-2.02,36.422,36.422,0,0,0,5.76-5.14v13.46c0,0.32.18,0.47,0.61,0.47,1.26,0,2.67-.51,2.67-0.94v-2.27Zm0-.97v-11.52h12.09v11.52h-12.09Zm53.82-6.41c1.94-8.06,2.37-9.32,3.74-10.4a0.739,0.739,0,0,0,.4-0.61c0-.36-0.47-0.86-1.73-1.73-1.91-1.33-1.95-1.37-2.38-1.37a2.431,2.431,0,0,0-1.26.51,13.622,13.622,0,0,1-4.93,1.4,70.213,70.213,0,0,1-8.82.97c-2.23,0-3.63-.43-4.03-1.26a0.327,0.327,0,0,0-.25-0.25c-0.25,0-.4.58-0.4,1.37a3.764,3.764,0,0,0,1.73,2.52,3.721,3.721,0,0,0,1.62.75,2.321,2.321,0,0,0,.36-0.07,48.706,48.706,0,0,1,7.06-1.65c1.8-.33,3.6-0.65,3.88-0.72a14.1,14.1,0,0,1,2.77-.33,0.779,0.779,0,0,1,.87.9c0,1.05-.11,1.66-1.26,8.57l-0.25,1.62c-3.93.5-11.92,1.33-12.93,1.33a5.51,5.51,0,0,1-2.48-.5,1.162,1.162,0,0,1-.11-0.07,0.451,0.451,0,0,0-.29.43c0,1.08,2.27,3.27,3.39,3.27a1.726,1.726,0,0,0,.68-0.18,10.994,10.994,0,0,1,3.35-1.08,60.409,60.409,0,0,1,8.89-1.15,16.338,16.338,0,0,1,3.49.43,2.127,2.127,0,0,0,.61.11,0.962,0.962,0,0,0,1.01-.9c0-.75-0.68-1.33-2.23-1.94Zm44.38-7.88a28.031,28.031,0,0,1-5.72,1.22c-2.48.29-11.45,0.83-14.18,0.83-2.88,0-4.07-.32-4.61-1.22a0.515,0.515,0,0,0-.36-0.36c-0.36,0-.54.36-0.54,1.01a3.34,3.34,0,0,0,1.3,2.91,6.4,6.4,0,0,0,3.09,1.19,1.467,1.467,0,0,0,.51-0.11c2.7-1.08,8.02-1.58,17.02-1.58,1.33,0,2.41.03,3.17,0.11,1.55,0.14,2.7.25,3.02,0.25,1.12,0,1.84-.47,1.84-1.19C1840.47,5370.25,1838.96,5369.2,1835.93,5368.59Zm30.03-6.51c-3.78.79-4.25,0.86-5.29,0.86a2.661,2.661,0,0,1-2.2-.79c-0.18-.33-0.18-0.33-0.32-0.33a1.414,1.414,0,0,0-.4,1.16,2.455,2.455,0,0,0,.87,1.69,4.565,4.565,0,0,0,2.01,1.15,3.208,3.208,0,0,0,1.08-.36,48.293,48.293,0,0,1,6.37-2.27,4.286,4.286,0,0,1,1.44-.32,0.493,0.493,0,0,1,.58.47,10.146,10.146,0,0,1-.86,2.48,36.028,36.028,0,0,1-4.29,7.56,31.988,31.988,0,0,1-11.59,9.82c-0.97.44-1.19,0.58-1.19,0.76a0.3,0.3,0,0,0,.33.25,7.768,7.768,0,0,0,1.76-.43,28.424,28.424,0,0,0,9.54-5.22,31.978,31.978,0,0,0,5.29-5.76,16.773,16.773,0,0,1,6.52,7.96c0.68,1.65,1.08,2.08,1.94,2.08a2.259,2.259,0,0,0,2.2-2.23c0-1.69-1.23-3.67-3.35-5.36a16.389,16.389,0,0,0-6.84-3.2,62.643,62.643,0,0,0,4.64-8.07c0.83-.5,1.15-0.79,1.15-1.11,0-.29-0.21-0.58-1-1.23-1.37-1.11-2.23-1.65-2.63-1.65a2.289,2.289,0,0,0-1.26.68,4.085,4.085,0,0,1-2.27.97Z" transform="translate(-1600.44 -5354.12)"/>
</svg>
