<svg xmlns="http://www.w3.org/2000/svg" width="46.38" height="487.94" viewBox="0 0 23.19 243.97">
  <defs>
    <style>
      .cls-1 {
        fill: #a38737;
        fill-rule: evenodd;
      }
    </style>
  </defs>
  <path id="料理長_谷田部義憲" data-name="料理長　谷田部義憲" class="cls-1" d="M1306.46,3127.18a0.428,0.428,0,0,0,.48.48,3.85,3.85,0,0,0,1.1-.21,0.546,0.546,0,0,0,.46-0.58v-9.07a4.237,4.237,0,0,1,1.1,1.8,2.879,2.879,0,0,0,.55,1.34,0.73,0.73,0,0,0,.56.24,1.039,1.039,0,0,0,.91-1.2c0-1.27-1.13-2.2-3.12-2.59v-1.68h4.05a0.35,0.35,0,0,0,.41-0.31,0.513,0.513,0,0,0-.19-0.34l-1.56-1.58-1.3,1.58h-1.41v-8.09l0.67-.5a0.48,0.48,0,0,0,.22-0.38,0.4,0.4,0,0,0-.44-0.36l-2.49-.17v9.5h-1.35c-1.8-.04-2.71-0.07-3.21-0.09l0.45,0.81c2.14-.07,2.26-0.07,2.76-0.07h1.32a21.753,21.753,0,0,1-4.15,8.52,0.8,0.8,0,0,0-.19.39,0.122,0.122,0,0,0,.14.12,6.689,6.689,0,0,0,1.8-1.42,20.214,20.214,0,0,0,2.43-2.83v6.69Zm-4.06-19.01a0.122,0.122,0,0,0-.14.12,0.781,0.781,0,0,0,.12.27,7.385,7.385,0,0,1,1.08,4.13c0.02,0.98.26,1.32,0.86,1.32,0.75,0,1.2-.63,1.2-1.61a4.395,4.395,0,0,0-1.89-3.41A4.763,4.763,0,0,0,1302.4,3108.17Zm10.66,1.35a0.556,0.556,0,0,0,.29-0.48,0.48,0.48,0,0,0-.29-0.43l-2.09-1.16a32.517,32.517,0,0,1-1.58,5.26,3.22,3.22,0,0,0-.39.96,0.163,0.163,0,0,0,.17.17c0.31,0,1.87-1.92,3.29-4.03Zm-2.81,13.44c1.56-.48,2.02-0.6,3.38-0.98l4.8-1.28v6.2c0,0.31.17,0.45,0.56,0.45a3.167,3.167,0,0,0,1.03-.19,0.585,0.585,0,0,0,.5-0.62v-6.39l4.18-1.15a0.2,0.2,0,0,0,.17-0.19,0.582,0.582,0,0,0-.27-0.41l-2.01-1.66-1.06,2.5-1.01.29v-12.39l0.51-.33a0.52,0.52,0,0,0,.26-0.46,0.457,0.457,0,0,0-.48-0.46l-2.38-.21v14.38l-5.04,1.32c-1.29.36-1.92,0.5-3.67,0.88Zm3.02-8.62a0.122,0.122,0,0,0-.14.12,0.418,0.418,0,0,0,.19.22,4.072,4.072,0,0,1,1.59,2.95c0.16,0.84.4,1.13,0.98,1.13a1.146,1.146,0,0,0,1.15-1.37,2.5,2.5,0,0,0-1.58-2.33A6.636,6.636,0,0,0,1313.27,3114.34Zm0.82-5.37c-0.14,0-.24.04-0.24,0.12a0.421,0.421,0,0,0,.22.28,3.943,3.943,0,0,1,1.46,2.74c0.17,0.84.38,1.13,0.94,1.13a1.2,1.2,0,0,0,1.22-1.35,2.465,2.465,0,0,0-1.42-2.2A5.8,5.8,0,0,0,1314.09,3108.97Zm-6.74,33.74h3.43a0.356,0.356,0,0,0,.33-0.34,0.523,0.523,0,0,0-.26-0.4l-1.61-1.42-1.32,1.51h-0.57v-5.59h3.64a0.292,0.292,0,0,0,.27-0.31,0.452,0.452,0,0,0-.17-0.34l-1.75-1.53-1.27,1.53h-2.86c-0.82,0-1.49-.02-3.19-0.09l0.48,0.81c1.29-.05,1.49-0.05,2.83-0.07v5.59c-1.37-.02-1.61-0.02-3.22-0.09l0.53,0.81c1.25-.05,1.44-0.05,2.69-0.07v6.22c-1.13.21-1.56,0.29-3.62,0.55l1.48,2.52a0.483,0.483,0,0,0,.44.22,0.566,0.566,0,0,0,.55-0.36l0.26-.82a53.446,53.446,0,0,0,6.19-2.52c1.11-.53,1.32-0.65,1.32-0.82a0.254,0.254,0,0,0-.28-0.24,1.875,1.875,0,0,0-.39.08c-1.89.5-3.12,0.79-3.93,0.96v-5.79Zm14.95,8.71-1.66,1.9h-2.47v-4.08h5.33a0.376,0.376,0,0,0,.31-0.41,0.565,0.565,0,0,0-.19-0.41l-1.78-1.56-1.46,1.73h-2.21v-3.38h2.98V3146a0.3,0.3,0,0,0,.36.36,5.293,5.293,0,0,0,1.34-.26,0.44,0.44,0,0,0,.36-0.53v-8.62l0.6-.29a0.4,0.4,0,0,0,.24-0.36,0.758,0.758,0,0,0-.29-0.57l-1.94-1.85-0.79,1.08h-7.2l-2.36-.99v12.8c0,0.26.1,0.33,0.39,0.33a4.324,4.324,0,0,0,1.15-.21c0.36-.12.48-0.22,0.48-0.43v-1.25h2.69v3.38h-1.42c-0.74,0-1.44-.02-3.21-0.09l0.5,0.81c1.34-.05,1.94-0.07,2.71-0.07h1.42v4.08h-2.83c-1.06,0-1.95-.02-4.16-0.12l0.53,0.86c1.73-.07,2.31-0.09,3.63-0.09h11.04a0.315,0.315,0,0,0,.31-0.29,0.5,0.5,0,0,0-.19-0.36Zm-8.81-6.86v-4.18h2.69v4.18h-2.69Zm0-4.83v-4.12h2.69v4.12h-2.69Zm4.68,4.83v-4.18h2.98v4.18h-2.98Zm0-4.83v-4.12h2.98v4.12h-2.98Zm-15.98,32.38,0.5,0.91c2.11-.09,2.86-0.12,4.22-0.12h0.32v6.8c-1.54.16-2.48,0.21-4.76,0.33l1.59,2.76a0.587,0.587,0,0,0,.43.31,0.5,0.5,0,0,0,.43-0.31l0.48-.79c4.78-1.2,7.23-1.87,8.95-2.42,0.72-.24.92-0.34,0.92-0.48a0.225,0.225,0,0,0-.27-0.2c-0.09,0-.09,0-1.01.1l-1.68.19-1.89.22c-0.1,0-.43.05-0.94,0.09v-6.6h3.05a14.973,14.973,0,0,0,2.33,4.68,17.162,17.162,0,0,0,6.7,5.02,4.421,4.421,0,0,1,2.4-1.94c-3.77-1.16-5.91-2.21-7.83-3.87,0.34-.12,1.08-0.36,2.23-0.74,0.48-.17.96-0.34,1.44-0.53,0.1-.02.36-0.12,0.72-0.24h0.94a0.276,0.276,0,0,0,.29-0.24,0.5,0.5,0,0,0-.19-0.34l-1.92-1.6a36.021,36.021,0,0,1-3.99,3.26,13.18,13.18,0,0,1-2.54-3.46h11.11a0.264,0.264,0,0,0,.19-0.28,0.407,0.407,0,0,0-.12-0.29l-2.13-1.83-1.64,1.76h-11.04v-2.45h10.37a0.338,0.338,0,0,0,.29-0.34,0.445,0.445,0,0,0-.17-0.31l-1.87-1.51-1.37,1.51h-7.25v-2.35h10.16a0.323,0.323,0,0,0,.28-0.34,0.5,0.5,0,0,0-.21-0.38l-1.71-1.35-1.27,1.42h-7.25v-2.38h11.76a0.259,0.259,0,0,0,.2-0.29,0.486,0.486,0,0,0-.17-0.31l-2.07-1.68-1.32,1.63h-7.87l-2.78-1.1v10.23h-0.32c-0.19,0-1.05-.03-1.96-0.05Zm4.84,66.19a0.479,0.479,0,0,0,.53.51,3.971,3.971,0,0,0,1.18-.22,0.449,0.449,0,0,0,.38-0.55v-1.32h8.04v1.2c0,0.36.07,0.43,0.39,0.43a4.671,4.671,0,0,0,1.29-.24,0.481,0.481,0,0,0,.41-0.5v-6.12l0.39-.19a0.671,0.671,0,0,0,.43-0.58,0.872,0.872,0,0,0-.29-0.55l-1.95-2.04-1.03,1.39h-7.46l-1.03-.72a22.973,22.973,0,0,0,5.35-6.53c2.13,4.06,4.49,6.39,8.95,8.76a4.212,4.212,0,0,1,2.31-2.16c-4.73-1.2-8.62-3.62-10.78-6.7l0.29-.12a0.469,0.469,0,0,0,.38-0.43,0.739,0.739,0,0,0-.48-0.55l-2.14-.96c-2.32,5.57-4.99,8.79-9.55,11.55a0.475,0.475,0,0,0-.31.28,0.117,0.117,0,0,0,.14.12,21.589,21.589,0,0,0,4.56-2.28v8.52Zm2.09-8.13h8.04v5.9h-8.04v-5.9Zm0.91-10.61a0.537,0.537,0,0,0,.41-0.43,0.785,0.785,0,0,0-.45-0.58l-2.02-1.32a21.956,21.956,0,0,1-5.38,7.66,1,1,0,0,0-.4.5,0.158,0.158,0,0,0,.14.17,9.593,9.593,0,0,0,2.59-1.44,28.908,28.908,0,0,0,4.59-4.39Zm5.43-1.85c-0.15,0-.24.05-0.24,0.14a0.574,0.574,0,0,0,.41.34,14.509,14.509,0,0,1,4.85,4.63c0.62,1.01,1,1.32,1.51,1.32a1.111,1.111,0,0,0,1.05-1.27c0-1.34-1.22-2.66-3.57-3.86A13.554,13.554,0,0,0,1315.46,3217.71Zm-9.05,46.27h13.63v1.28c0,0.24.2,0.38,0.56,0.38a2.852,2.852,0,0,0,1.03-.22,0.73,0.73,0,0,0,.67-0.74v-14.93l0.46-.14a0.567,0.567,0,0,0,.4-0.56,0.753,0.753,0,0,0-.31-0.57l-2.09-2.09-0.98,1.32H1306.6l-2.37-1.22v19.53c0,0.36.12,0.48,0.55,0.48,0.89,0,1.63-.33,1.63-0.74v-1.78Zm0-.64v-7.16h5.66v7.16h-5.66Zm0-7.81v-7.17h5.66v7.17h-5.66Zm7.85,7.81v-7.16h5.78v7.16h-5.78Zm0-7.81v-7.17h5.78v7.17h-5.78Zm-12.27,27.15,0.51,0.86c0.81-.02,1.56-0.05,1.85-0.05,0.88-.02,1.51-0.04,1.8-0.04h9.48a0.312,0.312,0,0,0,.24-0.34,0.434,0.434,0,0,0-.17-0.34l-1.75-1.65-1.44,1.68h-2.02c1.3-2.04,2.14-3.41,2.54-4.08l0.63-.29a0.425,0.425,0,0,0,.21-0.38,0.53,0.53,0,0,0-.26-0.48l-1.13-.7h2.95a0.279,0.279,0,0,0,.22-0.31,0.46,0.46,0,0,0-.14-0.34l-1.85-1.58-1.3,1.58h-2.01v-2.61l0.43-.24a0.41,0.41,0,0,0,.29-0.39c0-.29-0.15-0.38-0.58-0.45l-2.23-.27v3.96h-2.57c-0.26,0-.82-0.02-1.56-0.05l-1.63-.04,0.55,0.81,1.08-.02c0.86-.03,1.44-0.05,1.56-0.05h5.69a38.236,38.236,0,0,1-1.49,5.93h-3.74c-0.32,0-1.08-.03-1.95-0.05Zm4.44,9.1h5.43v1.2c0,0.24.14,0.36,0.5,0.36,0.87,0,1.54-.32,1.54-0.7v-5.09l0.26-.12a0.441,0.441,0,0,0,.39-0.41,0.774,0.774,0,0,0-.24-0.52l-1.71-2.02-0.96,1.3h-4.87l-2.35-1.09v9.08c0,0.33.07,0.43,0.41,0.43,0.86,0,1.6-.31,1.6-0.67v-1.75Zm0-.65v-4.71h5.43v4.71h-5.43Zm-1.65-13.9a0.1,0.1,0,0,0-.12.1,0.218,0.218,0,0,0,.07.12,4.382,4.382,0,0,1,1.06,2.8,3.723,3.723,0,0,0,.21,1.61,0.921,0.921,0,0,0,.87.46,1.174,1.174,0,0,0,1.2-1.44,3.7,3.7,0,0,0-2.14-3.15A4.085,4.085,0,0,0,1304.78,3277.23Zm13.39-2.21h3.55l-2.61,6.1c2.28,2.21,2.9,3.45,2.9,5.69,0,1.41-.36,1.85-1.61,1.85-0.28,0-.88-0.03-1.2-0.05a1.361,1.361,0,0,0-.31-0.03c-0.14,0-.22.05-0.22,0.12a0.836,0.836,0,0,0,.58.36,6.159,6.159,0,0,1,1.18.58,1.12,1.12,0,0,1,.31.94c0.05,0.43.19,0.57,0.53,0.57a2.955,2.955,0,0,0,1.27-.45,4.06,4.06,0,0,0,1.7-3.46,5.858,5.858,0,0,0-1.41-3.67,11.69,11.69,0,0,0-2.31-2.14c-0.21-.17-0.4-0.34-0.6-0.48l3.48-4.61,0.56-.07a0.546,0.546,0,0,0,.55-0.5,0.643,0.643,0,0,0-.22-0.46l-1.89-2.02-0.82,1.08h-3.12l-2.28-1.08v20.91c0,0.24.12,0.34,0.41,0.34,0.93,0,1.58-.32,1.58-0.77v-18.75Zm-15.5,39.34,2.16-.07c0.86-.03,1.6-0.05,2.04-0.05h1.12v2.02c-2.56.26-3.57,0.33-5.78,0.43l1.15,2.23a0.523,0.523,0,0,0,.43.38,0.6,0.6,0,0,0,.51-0.38l0.24-.5,1.65-.39,1.8-.43v1.8c0,0.53-.09.58-0.96,0.58-0.19,0-1.12,0-1.2-.03-0.91-.02-0.93-0.02-1.08-0.02a0.155,0.155,0,0,0-.19.14,0.263,0.263,0,0,0,.27.19c0.07,0.03.21,0.08,0.4,0.15,0.27,0.12.51,0.21,0.77,0.31l0.72,0.29a1.437,1.437,0,0,1,.41.19,0.31,0.31,0,0,1,.12.26c0.1,0.84.14,0.96,0.5,0.96a3.356,3.356,0,0,0,1.47-.48,1.328,1.328,0,0,0,.84-1.34v-3.55c1.17-.29,2.28-0.58,3.12-0.87,0.57-.16.67-0.21,0.67-0.36,0-.12-0.12-0.21-0.34-0.21a5.078,5.078,0,0,0-.79.09c-0.55.08-1.56,0.2-2.66,0.32v-1.78h4.34a9.508,9.508,0,0,0,1.2,3.65,22.3,22.3,0,0,1-4.27,2.21c-0.7.26-.72,0.28-0.72,0.43,0,0.09.1,0.17,0.29,0.17a16.961,16.961,0,0,0,2.25-.44,18.6,18.6,0,0,0,3.2-1.2,7.244,7.244,0,0,0,3.26,2.36,11.677,11.677,0,0,0,3.63.79,0.82,0.82,0,0,0,.93-0.84,1.075,1.075,0,0,0-.41-0.75,1.317,1.317,0,0,1-.45-0.72,1.061,1.061,0,0,1,.09-0.33l0.22-.94,0.24-.91,0.12-.5,0.07-.29a0.287,0.287,0,0,0-.19-0.24,0.361,0.361,0,0,0-.24.26c-0.22.43-.72,1.35-1.08,1.92-0.53.79-.79,1.06-1.1,1.06a6.054,6.054,0,0,1-1.9-.58,4.593,4.593,0,0,1-1.51-1.15c0.28-.17.45-0.29,0.5-0.31l1.3-.91c0.07-.05.38-0.27,0.72-0.48l0.55-.05a0.371,0.371,0,0,0,.36-0.36,0.558,0.558,0,0,0-.29-0.46l-1.65-1.17a23.305,23.305,0,0,1-2.5,2.47,7.117,7.117,0,0,1-.79-2.69h8.09a0.322,0.322,0,0,0,.38-0.31,0.524,0.524,0,0,0-.29-0.43l-2.11-1.66-1.49,1.75h-4.7c-0.1-1.1-.1-1.27-0.15-2.33l0.53-.24a0.492,0.492,0,0,0,.29-0.43,0.508,0.508,0,0,0-.41-0.46l-2.35-.28a26.519,26.519,0,0,0,.24,3.74h-4.2v-1.85l1.8-.26h0.65a0.277,0.277,0,0,0,.33-0.27,0.442,0.442,0,0,0-.12-0.28l-1.46-1.42a33.778,33.778,0,0,1-7.83,2.57,0.282,0.282,0,0,0-.28.24c0,0.14.12,0.21,0.33,0.21,0.55,0,1.8-.12,2.95-0.26l1.16-.17,0.4-.05v1.54h-1.12c-1.28,0-2.28-.02-4.78-0.14Zm0.36-4.8,2.06-.07c0.84-.03,1.54-0.05,2.09-0.05H1324a0.376,0.376,0,0,0,.41-0.43,0.519,0.519,0,0,0-.29-0.46l-1.89-1.44-1.54,1.68h-6.38v-1.73h6.79c0.26,0,.38-0.09.38-0.31a0.5,0.5,0,0,0-.19-0.34l-1.85-1.41-1.2,1.41h-3.93v-1.77h8.13a0.382,0.382,0,0,0,.44-0.34,0.555,0.555,0,0,0-.29-0.43l-1.9-1.49-1.39,1.61h-3.79c0.84-.72,1.63-1.42,2.28-1.94l0.57-.17a0.394,0.394,0,0,0,.31-0.41,0.425,0.425,0,0,0-.24-0.38l-2.3-1.25a21.286,21.286,0,0,1-1.58,4.15h-3.44a1.331,1.331,0,0,0,.6-1.18c0-.98-0.74-1.75-2.18-2.25a8.254,8.254,0,0,0-1.58-.34,0.165,0.165,0,0,0-.2.15c0,0.09.05,0.14,0.32,0.31a3.943,3.943,0,0,1,1.46,2.35,1.807,1.807,0,0,0,.48.96h-1.92c-1.44,0-2.35-.02-4.73-0.12l0.58,0.89c3.21-.12,3.29-0.12,4.15-0.12h3.98v1.77h-2.47c-1.51,0-2.06-.02-4.15-0.12l0.55,0.87c3-.1,3.03-0.1,3.6-0.1h2.47v1.73h-4.89c-1.03,0-1.99-.02-4.73-0.12Zm14.56,0.55c-0.24,0-.36.07-0.36,0.19s0.05,0.17.39,0.34a3.135,3.135,0,0,1,1.17,1.61,0.98,0.98,0,0,0,1.93-.29C1320.72,3310.9,1319.4,3310.11,1317.59,3310.11Zm4.21,26.11-1.47,1.52h-6.19v-1.42h6.74a0.286,0.286,0,0,0,.22-0.31,0.385,0.385,0,0,0-.14-0.29l-1.71-1.2-1.1,1.15h-4.01v-1.3h5.54a0.323,0.323,0,0,0-.02.12,0.159,0.159,0,0,0,.17.15,1.839,1.839,0,0,0,.81-0.46c0.32-.21.6-0.38,0.77-0.5l0.75-.43,0.21-.12,1.2,0.04,0.07,0.03a0.73,0.73,0,0,0,.46-0.55,1.268,1.268,0,0,0-.26-0.6l-2.09-2.21-1.15,1.49h-6.46v-1.8l0.65-.36a0.507,0.507,0,0,0,.24-0.39,0.475,0.475,0,0,0-.46-0.43l-2.47-.19v3.17h-6.19c-0.29-1.08-.46-1.47-0.65-1.47-0.12,0-.15.07-0.17,0.43a3.2,3.2,0,0,1-1.25,2.26c-0.81.79-.96,1.01-0.96,1.54a1.121,1.121,0,0,0,1.13,1.15c1.08,0,2.02-1.25,2.02-2.74a3.791,3.791,0,0,0-.03-0.53h6.1v1.76h-2.98c-0.29,0-.81,0-1.41-0.03l-1.8-.05,0.5,0.8,1.37-.05c0.55-.03,1.01-0.03,1.34-0.03h2.98v1.3h-2.93c-1.27,0-2.02-.02-4.15-0.12l0.5,0.87c2.26-.08,2.95-0.1,3.65-0.1h2.93v1.42h-4.68c-0.36,0-1.18-.03-2.09-0.05l-2.64-.1,0.55,0.91c1.99-.09,2.69-0.12,4.18-0.12h16.32a0.23,0.23,0,0,0,.14-0.24,0.328,0.328,0,0,0-.12-0.24Zm-1.01-4.25a8.761,8.761,0,0,1-.91,1.76l-1.57-1.23-1.17,1.23h-3v-1.04l0.53-.24a0.474,0.474,0,0,0,.16-0.48h5.96Zm-13.32,11.17h11.52v0.67c0,0.14.09,0.19,0.31,0.19,0.89,0,1.61-.29,1.61-0.65v-2.33l0.53-.12a0.342,0.342,0,0,0,.28-0.33,0.7,0.7,0,0,0-.28-0.51l-1.95-1.6-0.84,1.12h-10.63l-2.47-1.05v5.69a0.2,0.2,0,0,0,.24.21,0.861,0.861,0,0,0,.21-0.02c-0.12,1.01-.5,1.51-1.87,2.42-0.89.6-1.13,0.91-1.13,1.47a1.134,1.134,0,0,0,1.13,1.2,2.49,2.49,0,0,0,1.78-1.06,3.728,3.728,0,0,0,.74-2.35,14.43,14.43,0,0,0-.17-1.68c0.7-.05.99-0.17,0.99-0.43v-0.84Zm0-.65v-2.26h2.83v2.26h-2.83Zm4.56,0v-2.26h2.3v2.26h-2.3Zm4.1,0v-2.26h2.86v2.26h-2.86Zm-5.98,2.78,0.58-.33a0.5,0.5,0,0,0,.29-0.44,0.45,0.45,0,0,0-.41-0.43l-2.38-.26v4.01c0,0.98.17,1.29,0.77,1.44a22.538,22.538,0,0,0,4.63.26c4.44,0,5.5-.22,5.5-1.15a0.753,0.753,0,0,0-.5-0.65,0.871,0.871,0,0,1-.63-0.6v-0.14a3.4,3.4,0,0,0,.05-0.56c0-.04,0-0.16.02-0.62,0.03-.29.05-0.65,0.05-0.74,0-.2-0.07-0.29-0.21-0.29-0.12,0-.17.07-0.36,0.5a6.531,6.531,0,0,1-1.18,2.19c-0.38.33-.62,0.36-3.5,0.36-2.69,0-2.72,0-2.72-.48v-2.07Zm0.92-1.94a0.177,0.177,0,0,0-.2.14,0.229,0.229,0,0,0,.12.15,4.395,4.395,0,0,1,1.88,2.54,1.021,1.021,0,0,0,2.01-.36c0-.98-0.86-1.82-2.25-2.18A13.277,13.277,0,0,0,1311.07,3343.33Zm7.48,0.96a0.127,0.127,0,0,0-.14.14,0.406,0.406,0,0,0,.22.29,7.369,7.369,0,0,1,2.93,3.55c0.36,0.82.69,1.13,1.2,1.13a1.378,1.378,0,0,0,1.24-1.44c0-1.46-1.87-2.86-4.65-3.5-0.34-.08-0.53-0.12-0.63-0.15A0.555,0.555,0,0,0,1318.55,3344.29Z" transform="translate(-1301.72 -3105.56)"/>
</svg>
