<svg xmlns="http://www.w3.org/2000/svg" width="44.94" height="43.82" viewBox="0 0 22.47 21.91">
  <defs>
    <style>
      .cls-1 {
        fill: #fff;
        fill-rule: evenodd;
      }
    </style>
  </defs>
  <path id="å¤" class="cls-1" d="M1593.21,6595.41c3.02-.12,3.16-0.12,4.17-0.12h3.82l-0.48,1.99h-1.87l-2.28-1.06v10.27a0.3,0.3,0,0,0,.33.32,6.305,6.305,0,0,0,1.08-.22c0.67-.17.79-0.29,0.79-0.67v-0.72h1.25a16.421,16.421,0,0,1-5.76,6.67c-0.89.55-.89,0.55-0.89,0.72a0.177,0.177,0,0,0,.2.17,8.919,8.919,0,0,0,2.25-.98,15.84,15.84,0,0,0,4.66-3.68,7.48,7.48,0,0,0,2.4,2.55,25.745,25.745,0,0,1-9.22,3.55c-0.24.05-.36,0.12-0.36,0.26s0.15,0.22.39,0.22a22.577,22.577,0,0,0,3.81-.5,20.456,20.456,0,0,0,6.94-2.45,24.23,24.23,0,0,0,8.66,2.85,4.626,4.626,0,0,1,1.95-2.59,23.738,23.738,0,0,1-9.05-1.32,16.794,16.794,0,0,0,2.57-2.23h0.45c0.48,0,.72-0.12.72-0.39a0.677,0.677,0,0,0-.21-0.45l-2-1.71-0.86,1.06h-5.3a18.73,18.73,0,0,0,1.22-1.75h5.95v0.53c0,0.26.08,0.36,0.24,0.36a5.7,5.7,0,0,0,1.4-.24,0.609,0.609,0,0,0,.57-0.72v-5.96l0.29-.14a0.47,0.47,0,0,0,.34-0.43,0.691,0.691,0,0,0-.24-0.48l-1.95-2.07-0.84,1.23h-6.36l2.54-1.99h9.68c0.31,0,.45-0.1.45-0.29a0.539,0.539,0,0,0-.19-0.34l-2.28-1.87-1.58,1.85h-13.28c-0.88,0-.88,0-4.72-0.12Zm5.56,9.14v-1.92h9.77v1.92h-9.77Zm0-2.57v-1.68h9.77v1.68h-9.77Zm0-4.05h9.77v1.72h-9.77v-1.72Zm7.76,9.67a19.825,19.825,0,0,1-2.52,2.26,8.547,8.547,0,0,1-2.98-2.26h5.5Z" transform="translate(-1592.59 -6592.78)"/>
</svg>
