<svg xmlns="http://www.w3.org/2000/svg" width="817.25" height="67.44" viewBox="0 0 408.625 33.72">
  <defs>
    <style>
      .cls-1 {
        fill: #fff;
        fill-rule: evenodd;
      }
    </style>
  </defs>
  <path id="料理人の〇〇を愉しむ" class="cls-1" d="M562.8,9233.03a0.645,0.645,0,0,0,.72.72,5.915,5.915,0,0,0,1.655-.32,0.816,0.816,0,0,0,.684-0.87v-13.6a6.455,6.455,0,0,1,1.656,2.7c0.54,1.69.54,1.69,0.828,2.01a1.1,1.1,0,0,0,.828.36,1.553,1.553,0,0,0,1.368-1.8c0-1.9-1.692-3.31-4.68-3.88v-2.52h6.084a0.522,0.522,0,0,0,.611-0.47,0.742,0.742,0,0,0-.288-0.51l-2.339-2.37-1.944,2.37h-2.124v-12.13l1.008-.75a0.7,0.7,0,0,0,.324-0.58,0.609,0.609,0,0,0-.648-0.54l-3.743-.25v14.25h-2.016c-2.7-.07-4.068-0.1-4.823-0.14l0.683,1.22c3.2-.1,3.384-0.1,4.14-0.1h1.98a32.875,32.875,0,0,1-6.228,12.77,1.257,1.257,0,0,0-.288.58,0.181,0.181,0,0,0,.216.18,10.263,10.263,0,0,0,2.7-2.12,31.11,31.11,0,0,0,3.636-4.25v10.04Zm-6.084-28.51a0.186,0.186,0,0,0-.216.18,1.068,1.068,0,0,0,.18.4,11.059,11.059,0,0,1,1.62,6.19c0.036,1.48.4,1.98,1.3,1.98,1.116,0,1.8-.94,1.8-2.41a6.6,6.6,0,0,0-2.844-5.11A6.956,6.956,0,0,0,556.719,9204.52Zm15.982,2.02a0.819,0.819,0,0,0,.432-0.72,0.74,0.74,0,0,0-.432-0.65l-3.131-1.73a48.086,48.086,0,0,1-2.376,7.89,4.518,4.518,0,0,0-.576,1.44,0.247,0.247,0,0,0,.252.25c0.468,0,2.808-2.88,4.932-6.05Zm-4.211,20.16c2.34-.72,3.024-0.9,5.075-1.48l7.2-1.91v9.29c0,0.47.252,0.68,0.828,0.68a4.689,4.689,0,0,0,1.548-.28,0.889,0.889,0,0,0,.756-0.94v-9.57l6.263-1.73a0.315,0.315,0,0,0,.252-0.29,0.859,0.859,0,0,0-.4-0.61l-3.023-2.49-1.584,3.75-1.512.43v-18.57l0.756-.51a0.759,0.759,0,0,0,.4-0.68,0.676,0.676,0,0,0-.72-0.69l-3.564-.32v21.56l-7.559,1.98c-1.943.54-2.879,0.76-5.507,1.33Zm4.535-12.93a0.186,0.186,0,0,0-.216.18,0.592,0.592,0,0,0,.288.33c1.3,0.9,1.98,2.19,2.376,4.43,0.252,1.26.612,1.69,1.476,1.69,1.116,0,1.728-.72,1.728-2.05,0-1.55-.72-2.6-2.376-3.5A9.938,9.938,0,0,0,573.025,9213.77Zm1.224-8.06c-0.216,0-.36.07-0.36,0.18a0.628,0.628,0,0,0,.324.43,5.93,5.93,0,0,1,2.2,4.11c0.252,1.26.576,1.69,1.4,1.69a1.8,1.8,0,0,0,1.836-2.02,3.732,3.732,0,0,0-2.124-3.31A8.727,8.727,0,0,0,574.249,9205.71Zm31.645,8.86h5.148a0.549,0.549,0,0,0,.5-0.51,0.816,0.816,0,0,0-.4-0.61l-2.412-2.12-1.98,2.26h-0.864v-8.38h5.472a0.446,0.446,0,0,0,.4-0.47,0.666,0.666,0,0,0-.252-0.5l-2.628-2.31-1.908,2.31h-4.283c-1.224,0-2.232-.04-4.788-0.15l0.72,1.23c1.944-.08,2.232-0.08,4.248-0.11v8.38c-2.052-.03-2.412-0.03-4.824-0.14l0.792,1.22c1.872-.07,2.16-0.07,4.032-0.1v9.32c-1.692.32-2.34,0.43-5.435,0.83l2.231,3.78a0.7,0.7,0,0,0,.648.32,0.844,0.844,0,0,0,.828-0.54l0.4-1.22a82.7,82.7,0,0,0,9.287-3.78c1.656-.79,1.98-0.97,1.98-1.23a0.386,0.386,0,0,0-.432-0.36,3.09,3.09,0,0,0-.576.11c-2.844.76-4.68,1.19-5.9,1.44v-8.67Zm22.426,13.06-2.484,2.85h-3.708v-6.12h7.991a0.57,0.57,0,0,0,.468-0.61,0.844,0.844,0,0,0-.288-0.62l-2.663-2.34-2.2,2.6h-3.312v-5.08h4.464v1.19a0.454,0.454,0,0,0,.54.54,8.007,8.007,0,0,0,2.016-.4,0.649,0.649,0,0,0,.539-0.79v-12.92l0.9-.43a0.64,0.64,0,0,0,.36-0.54,1.187,1.187,0,0,0-.432-0.87l-2.915-2.77-1.188,1.62h-10.8l-3.527-1.48v19.19c0,0.4.144,0.5,0.576,0.5a6.543,6.543,0,0,0,1.727-.32c0.54-.18.72-0.32,0.72-0.65v-1.87h4.032v5.08h-2.124c-1.116,0-2.16-.04-4.823-0.15l0.756,1.23c2.015-.08,2.915-0.11,4.067-0.11h2.124v6.12h-4.248c-1.583,0-2.915-.04-6.227-0.18l0.792,1.29c2.592-.11,3.456-0.14,5.435-0.14h16.558a0.474,0.474,0,0,0,.468-0.43,0.734,0.734,0,0,0-.288-0.54Zm-13.211-10.29v-6.27h4.032v6.27h-4.032Zm0-7.24v-6.19h4.032v6.19h-4.032Zm7.019,7.24v-6.27h4.464v6.27h-4.464Zm0-7.24v-6.19h4.464v6.19h-4.464Zm35.1-6.4,0.936-.62a0.915,0.915,0,0,0,.4-0.72,0.664,0.664,0,0,0-.684-0.68l-4.535-.36c0.144,2.81.216,4.54,0.216,7.09,0,10.08-2.232,15.91-7.631,19.98a26.819,26.819,0,0,1-5.184,3.06c-0.468.18-.648,0.32-0.648,0.54a0.327,0.327,0,0,0,.4.32,18.456,18.456,0,0,0,4.9-1.73,18.8,18.8,0,0,0,7.919-6.37c1.944-2.84,2.627-5.29,3.311-11.34,1.656,8.82,5.76,14.73,13.319,19.08a8.111,8.111,0,0,1,4.031-3.17c-11.3-4.31-16.774-11.69-16.738-22.53v-2.55Zm41.8,2.91c0.4-.03.648-0.03,0.756-0.03a8.628,8.628,0,0,1,3.708.86c3.131,1.58,4.751,4.86,4.751,9.68,0,4.43-1.476,7.71-4.607,10.26a19.307,19.307,0,0,1-6.443,3.35c-0.576.18-.684,0.21-0.684,0.39,0,0.15.144,0.22,0.36,0.22a16.058,16.058,0,0,0,2.3-.43,22.265,22.265,0,0,0,6.659-2.45,13.255,13.255,0,0,0,6.66-11.52,10.831,10.831,0,0,0-2.844-7.59,13.863,13.863,0,0,0-10.115-3.96c-8.423,0-15.658,6.8-15.658,14.72a9.358,9.358,0,0,0,1.764,5.8,4.36,4.36,0,0,0,3.024,1.97c1.979,0,5.111-2.55,7.235-5.86a23.187,23.187,0,0,0,3.6-11.7A13.817,13.817,0,0,0,699.025,9206.61Zm-1.764.15c0.037,0.1.037,0.18,0.072,0.25a8.626,8.626,0,0,1,.216,2.01,21.187,21.187,0,0,1-3.671,10.77c-1.512,2.37-3.564,4.24-4.679,4.24s-2.088-1.87-2.088-3.99a14.068,14.068,0,0,1,4.247-10.04A13.584,13.584,0,0,1,697.261,9206.76Zm43.02-5.76a15.949,15.949,0,0,0-10.834,4.06A15.832,15.832,0,1,0,740.281,9201Zm-0.5,1.22a14.616,14.616,0,1,1-14.362,14.61A14.613,14.613,0,0,1,739.777,9202.22Zm42.264-1.22a15.949,15.949,0,0,0-10.834,4.06A15.832,15.832,0,1,0,782.041,9201Zm-0.5,1.22a14.616,14.616,0,1,1-14.362,14.61A14.613,14.613,0,0,1,781.537,9202.22Zm42.624,1.4a3.131,3.131,0,0,1-1.691,1.16,4.173,4.173,0,0,0,.108-0.9,2.442,2.442,0,0,0-.9-2.27,2.88,2.88,0,0,0-1.764-.58c-0.936,0-2.088.36-2.088,0.65,0,0.11.072,0.14,0.252,0.18,0.828,0.04,1.4,1.12,1.4,2.63a4.262,4.262,0,0,1-.144,1.11,9.769,9.769,0,0,1-3.816.8c-1.3,0-1.907-.18-2.339-0.65a0.513,0.513,0,0,0-.288-0.18,0.163,0.163,0,0,0-.144.18,3.183,3.183,0,0,0,3.1,2.77,17,17,0,0,0,3.2-.5c-1.332,4.1-2.952,6.33-7.055,9.68-1.044.79-1.116,0.9-1.116,1.44,0,1.33,1.044,2.99,1.836,2.99a1.937,1.937,0,0,0,1.44-1.23c0.755-1.26,2.627-4.07,3.023-4.57a4.071,4.071,0,0,1,2.628-1.58c1.188,0,1.8,1.18,1.836,3.56l0.036,1.55v0.72a30,30,0,0,0-3.312,2.16c-1.8,1.44-2.664,2.88-2.664,4.39a4.637,4.637,0,0,0,2.556,3.89,12.708,12.708,0,0,0,6.083,1.18,28.8,28.8,0,0,0,5.472-.5c1.475-.36,2.231-0.97,2.231-1.76a3.123,3.123,0,0,0-.756-1.62,2.1,2.1,0,0,0-1.547-.65,3.778,3.778,0,0,0-1.08.25,21.667,21.667,0,0,1-5.58.79c-3.455,0-5.039-.72-5.039-2.3a4.255,4.255,0,0,1,1.224-2.7,12.384,12.384,0,0,1,2.484-1.98v0.68l-0.036,1.44a7.334,7.334,0,0,1-.072,1.16,1.545,1.545,0,0,0-.036.39,0.783,0.783,0,0,0,.864.61c1.547,0,2.231-.72,2.231-2.3,0-.65-0.036-1.22-0.108-3.31a66.245,66.245,0,0,1,10.007-4.07c2.448-.86,3.42-1.76,3.42-3.13,0-2.31-2.088-3.96-4.968-3.96-4,0-7.055,2.7-9.323,8.21-0.216-1.55-.5-2.27-1.115-2.81a3.914,3.914,0,0,0-2.592-.94,5.223,5.223,0,0,0-1.908.43c1.476-2.48,2.052-3.56,3.708-6.83,3.563-1.05,4.427-1.55,4.427-2.52,0-.47,0-0.47-1.512-0.98Zm0.216,15.34v-0.07a8.855,8.855,0,0,1,1.44-3.5c1.8-3.02,3.96-4.68,6.119-4.68a1.989,1.989,0,0,1,1.836,1.91c0,1.01,0,1.01-9.431,6.45Zm26.57-11.02a4.566,4.566,0,0,1,.036.62,8.766,8.766,0,0,1-1.332,4.42c-1.188,1.87-1.188,1.91-1.188,2.63a1.618,1.618,0,0,0,1.584,1.76c1.656,0,2.7-1.8,2.7-4.71,0-2.16-.936-5.36-1.548-5.36-0.18,0-.252.14-0.252,0.43v0.21Zm5.723-4.75,1.008-.54a1.03,1.03,0,0,0,.54-0.83c0-.43-0.468-0.72-1.332-0.75l-3.167-.15v32.18a0.61,0.61,0,0,0,.72.76,4.647,4.647,0,0,0,1.8-.4,0.664,0.664,0,0,0,.431-0.75v-25.02a4.932,4.932,0,0,1,1.4,2.34c0.432,1.33.684,1.58,1.476,1.58a1.693,1.693,0,0,0,1.692-1.72,2.943,2.943,0,0,0-1.8-2.56,8.61,8.61,0,0,0-2.772-.75v-3.39Zm3.672,29.95a0.481,0.481,0,0,0,.5.58,7.237,7.237,0,0,0,1.8-.36,0.729,0.729,0,0,0,.54-0.72v-7.6h3.779v4.21c0,0.54-.108.61-0.936,0.61l-0.9-.03h-0.324c-0.36.03-.611,0.03-0.719,0.03-0.468,0-.576.04-0.576,0.15a0.435,0.435,0,0,0,.324.29c0.4,0.18.611,0.28,0.719,0.32a7.355,7.355,0,0,1,.792.4l0.54,0.21,0.072,0.04a0.41,0.41,0,0,1,.216.32c0.216,1.55.324,1.8,0.936,1.8a4.147,4.147,0,0,0,1.656-.61,1.678,1.678,0,0,0,1.08-1.76v-13.36l0.54-.32a0.866,0.866,0,0,0,.36-0.65,1.327,1.327,0,0,0-.684-1.04l-2.448-2.24-1.008,1.84h-3.023l-2.808-1.37a24.257,24.257,0,0,0,2.556-2.16l0.4,0.51c2.231-.08,3.167-0.11,4.211-0.11h7.235a0.475,0.475,0,0,0,.432-0.47,1.192,1.192,0,0,0-.612-0.83l-2.3-1.87-2.015,2.2h-2.736c-0.864,0-1.764-.04-3.851-0.15a46.234,46.234,0,0,0,6.191-8.13,24.068,24.068,0,0,0,9.323,10.98,7.394,7.394,0,0,1,3.347-2.99c-5.147-1.8-9.611-4.97-11.7-8.32l0.288-.14a0.769,0.769,0,0,0,.468-0.61c0-.36-0.252-0.54-0.972-0.72l-3.384-.9c-2.592,6.59-5.183,10.51-9.719,14.79a1,1,0,0,0-.36.54,0.242,0.242,0,0,0,.252.22,8.86,8.86,0,0,0,2.52-1.55v18.97Zm2.844-9.07v-3.53h3.779v3.53h-3.779Zm0-4.5v-3.35h3.779v3.35h-3.779Zm11.194-2.09,0.72-.47a0.958,0.958,0,0,0,.468-0.75c0-.4-0.288-0.58-1.116-0.65l-2.771-.25v12.78a0.464,0.464,0,0,0,.576.5c1.079,0,2.123-.47,2.123-0.97v-10.19Zm5.112-1.47,0.5-.29a0.781,0.781,0,0,0,.5-0.65c0-.4-0.216-0.5-1.151-0.65l-2.628-.29v14.65c-0.036.98-.108,0.98-3.312,0.98h-1.331a0.387,0.387,0,0,0-.216.03,0.059,0.059,0,0,0-.072.07l-0.036.08,0.036,0.03,0.072,0.07a1.432,1.432,0,0,0,.18.08,2.877,2.877,0,0,1,.467.18l0.72,0.25,0.972,0.39c0.252,0.11.5,0.22,0.792,0.33l0.216,0.11a0.433,0.433,0,0,1,.108.32,1.822,1.822,0,0,0,.18,1.3,1.012,1.012,0,0,0,.864.5,4,4,0,0,0,2.16-1.01,2.313,2.313,0,0,0,.972-2.34v-14.14Zm19.838-14.19c-0.756,0-1.727.33-1.727,0.62a0.163,0.163,0,0,0,.18.14c1.331,0.14,1.979,1.48,1.979,4.03,0,0.47-.072,2.13-0.216,4.46-0.5,9.08-.5,9.33-0.5,10.62,0,6.66,2.952,10.19,8.567,10.19,3.888,0,7.487-2.05,10.4-5.9a13.687,13.687,0,0,0,2.088-3.75,0.216,0.216,0,0,0-.18-0.25,0.253,0.253,0,0,0-.216.18,16.74,16.74,0,0,1-3.312,3.28,14.5,14.5,0,0,1-8.783,3.16c-3.779,0-5.831-2.37-5.831-6.69a84.074,84.074,0,0,1,1.656-12.67,8.467,8.467,0,0,0,.72-2.84C904.154,9204.13,901.706,9201.82,899.33,9201.82Zm58.462,15.95a2,2,0,0,1,.468-0.04l0.468-.03h0.4c1.692,0,2.88.5,3.492,1.47a2.038,2.038,0,0,0,1.979-2.3c0-3.67-3.527-6.98-7.415-6.98-2.267,0-3.311,1.22-3.311,3.88,0,1.01,0,1.01.216,6.48,0.144,3.57.144,3.57,0.144,4.58,0,1.69-.4,2.44-1.692,3.16-1.08.61-4.428,1.19-6.947,1.19-2.412,0-3.816-.9-3.816-2.41a7.143,7.143,0,0,1,.864-3.1c1.62-2.95,2.448-5.43,2.448-7.16a2.018,2.018,0,0,0-1.116-1.84c0.252-1.94.324-2.26,0.54-3.7a24.183,24.183,0,0,0,4-1.3c0.828-.36,1.152-0.61,1.152-1.04,0-.76-1.152-1.41-2.915-1.66a3.3,3.3,0,0,1-1.728,1.51,18.045,18.045,0,0,1,.756-3.13,1.454,1.454,0,0,0,.144-0.57,3.367,3.367,0,0,0-1.08-1.7,3.438,3.438,0,0,0-2.268-1.26c-0.792,0-2.735.83-2.735,1.19,0,0.15.072,0.18,0.395,0.18,1.3,0.07,1.944,1.48,1.944,4.18,0,0.32,0,.32-0.036,1.87a21.181,21.181,0,0,1-4.535.65,3.235,3.235,0,0,1-2.88-1.26,0.6,0.6,0,0,0-.288-0.29,0.163,0.163,0,0,0-.144.18,5.412,5.412,0,0,0,.432,1.83,3.1,3.1,0,0,0,3.1,1.84,17.426,17.426,0,0,0,4.175-.65,21.706,21.706,0,0,1-.216,2.63,4.336,4.336,0,0,0-2.879.94,7.411,7.411,0,0,0-2.34,5.65c0,2.41,1.08,4.14,2.52,4.14a2.063,2.063,0,0,0,1.655-.9,10.722,10.722,0,0,0-.54,2.98c0,3.1,2.34,4.68,6.912,4.68,6.263,0,11.086-2.12,11.086-4.93a2.268,2.268,0,0,0-.18-0.86,6.529,6.529,0,0,1-2.087-3.82,40.359,40.359,0,0,1-.936-8.24c0-1.84.5-2.74,1.511-2.74a3.866,3.866,0,0,1,2.484,1.34,6.567,6.567,0,0,1,1.8,3.16c0,0.4-.756.87-2.952,1.77a0.368,0.368,0,0,0-.288.29,0.163,0.163,0,0,0,.18.14h0.072Zm-16.558-2.45c0.288,0.04.4,0.25,0.4,0.87a20.037,20.037,0,0,1-.54,3.85c-0.5,2.41-.612,2.66-1.115,2.66-0.684,0-1.116-.9-1.116-2.34a8.986,8.986,0,0,1,.648-3.56A2.534,2.534,0,0,1,941.234,9215.32Z" transform="translate(-555.969 -9200.16)"/>
</svg>
