<svg xmlns="http://www.w3.org/2000/svg" width="922.68" height="160.24" viewBox="0 0 461.34 80.12">
  <defs>
    <style>
      .cls-1 {
        fill: #fff;
        fill-rule: evenodd;
      }
    </style>
  </defs>
  <path id="器を愉しみ_食を楽しむ_それは新しいわびさびとなる_" data-name="器を愉しみ、食を楽しむ。 それは新しいわびさびとなる。" class="cls-1" d="M1899.53,4583.01h3.63v1.05c0,0.21.15,0.3,0.54,0.3,1.17,0,2.16-.36,2.16-0.75v-6.33l0.48-.27a0.642,0.642,0,0,0,.36-0.54,0.89,0.89,0,0,0-.3-0.6l-2.1-2.16-1.23,1.68h-3.18a31.754,31.754,0,0,0,6.03-4.68h4.5a21.934,21.934,0,0,0,5.19,4.68h-4.05l-3-1.5v10.77a0.34,0.34,0,0,0,.42.36c1.08,0,2.25-.42,2.25-0.84v-1.17h4.08v1.05c0,0.21.18,0.3,0.57,0.3a5.1,5.1,0,0,0,1.71-.3,0.641,0.641,0,0,0,.51-0.69v-6.45c1.23,0.6,1.38.69,2.04,0.96a6.286,6.286,0,0,1,2.22-2.97,23.928,23.928,0,0,1-10.95-4.2h10.29a0.424,0.424,0,0,0,.51-0.42,0.731,0.731,0,0,0-.36-0.57l-2.58-2.16-2.19,2.34h-10.35c0.48-.51.57-0.6,1.08-1.14l0.81-.27a0.692,0.692,0,0,0,.6-0.57,0.591,0.591,0,0,0-.42-0.51l-2.73-1.29v-5.04l0.63-.33a0.607,0.607,0,0,0,.36-0.54,0.723,0.723,0,0,0-.33-0.57l-2.43-2.31-1.02,1.65h-3.81l-2.94-1.56v10.47c0,0.39.18,0.54,0.69,0.54,1.02,0,1.98-.45,1.98-0.9v-1.8h4.17v1.29c0,0.24.18,0.33,0.6,0.33a4.471,4.471,0,0,0,1.35-.21,16.417,16.417,0,0,1-2.1,2.76h-3.6c-1.56,0-2.79-.03-5.91-0.15l0.66,1.11c2.55-.12,3.48-0.15,5.25-0.15h2.94a36.6,36.6,0,0,1-7.89,6.48,2.138,2.138,0,0,0-.99.75,0.384,0.384,0,0,0,.33.3,10.533,10.533,0,0,0,2.79-1.14v7.5c0,0.33.15,0.45,0.57,0.45,1.29,0,2.16-.3,2.16-0.78v-1.26Zm0-6.81h3.63v6h-3.63v-6Zm-0.33-11.28v-5.13h4.17v5.13h-4.17Zm12.03,17.28v-6h4.08v6h-4.08Zm0.66-16.47h4.2v1.35c0,0.3.15,0.42,0.57,0.42,1.17,0,2.16-.42,2.16-0.93v-5.43l0.54-.36a0.7,0.7,0,0,0,.42-0.54,1.01,1.01,0,0,0-.39-0.6l-2.52-2.37-0.99,1.71h-3.54l-3.12-1.53v9.87c0,0.36.12,0.48,0.54,0.48a5.461,5.461,0,0,0,1.59-.3,0.6,0.6,0,0,0,.54-0.69v-1.08Zm0-.81v-5.13h4.2v5.13h-4.2Zm31.41-5.01a2.6,2.6,0,0,1-1.41.96,3.4,3.4,0,0,0,.09-0.75,2.039,2.039,0,0,0-.75-1.89,2.4,2.4,0,0,0-1.47-.48c-0.78,0-1.74.3-1.74,0.54,0,0.09.06,0.12,0.21,0.15,0.69,0.03,1.17.93,1.17,2.19a3.6,3.6,0,0,1-.12.93,8.24,8.24,0,0,1-3.18.66,2.4,2.4,0,0,1-1.95-.54,0.437,0.437,0,0,0-.24-0.15,0.137,0.137,0,0,0-.12.15,2.655,2.655,0,0,0,2.58,2.31,13.968,13.968,0,0,0,2.67-.42c-1.11,3.42-2.46,5.28-5.88,8.07-0.87.66-.93,0.75-0.93,1.2,0,1.11.87,2.49,1.53,2.49a1.609,1.609,0,0,0,1.2-1.02c0.63-1.05,2.19-3.39,2.52-3.81a3.413,3.413,0,0,1,2.19-1.32q1.485,0,1.53,2.97l0.03,1.29v0.6a24.5,24.5,0,0,0-2.76,1.8c-1.5,1.2-2.22,2.4-2.22,3.66a3.857,3.857,0,0,0,2.13,3.24,10.507,10.507,0,0,0,5.07.99,24.109,24.109,0,0,0,4.56-.42c1.23-.3,1.86-0.81,1.86-1.47a2.62,2.62,0,0,0-.63-1.35,1.761,1.761,0,0,0-1.29-.54,3.327,3.327,0,0,0-.9.21,18.129,18.129,0,0,1-4.65.66c-2.88,0-4.2-.6-4.2-1.92a3.539,3.539,0,0,1,1.02-2.25,10.51,10.51,0,0,1,2.07-1.65v0.57l-0.03,1.2a6.007,6.007,0,0,1-.06.96,1.345,1.345,0,0,0-.03.33,0.657,0.657,0,0,0,.72.51,1.637,1.637,0,0,0,1.86-1.92c0-.54-0.03-1.02-0.09-2.76a55.582,55.582,0,0,1,8.34-3.39c2.04-.72,2.85-1.47,2.85-2.61,0-1.92-1.74-3.3-4.14-3.3-3.33,0-5.88,2.25-7.77,6.84a3.419,3.419,0,0,0-.93-2.34,3.276,3.276,0,0,0-2.16-.78,4.293,4.293,0,0,0-1.59.36c1.23-2.07,1.71-2.97,3.09-5.7,2.97-.87,3.69-1.29,3.69-2.1,0-.39,0-0.39-1.26-0.81Zm0.18,12.78v-0.06a7.367,7.367,0,0,1,1.2-2.91c1.5-2.52,3.3-3.9,5.1-3.9a1.655,1.655,0,0,1,1.53,1.59c0,0.84,0,.84-7.86,5.37Zm22.14-9.18a3.682,3.682,0,0,1,.03.51,7.333,7.333,0,0,1-1.11,3.69c-0.99,1.56-.99,1.59-0.99,2.19a1.353,1.353,0,0,0,1.32,1.47c1.38,0,2.25-1.5,2.25-3.93,0-1.8-.78-4.47-1.29-4.47-0.15,0-.21.12-0.21,0.36v0.18Zm4.77-3.96,0.84-.45a0.87,0.87,0,0,0,.45-0.69c0-.36-0.39-0.6-1.11-0.63l-2.64-.12v26.82a0.507,0.507,0,0,0,.6.63,3.933,3.933,0,0,0,1.5-.33,0.561,0.561,0,0,0,.36-0.63V4563.3a4.093,4.093,0,0,1,1.17,1.95c0.36,1.11.57,1.32,1.23,1.32a1.415,1.415,0,0,0,1.41-1.44,2.455,2.455,0,0,0-1.5-2.13,7.288,7.288,0,0,0-2.31-.63v-2.82Zm3.06,24.96a0.4,0.4,0,0,0,.42.48,6.03,6.03,0,0,0,1.5-.3,0.6,0.6,0,0,0,.45-0.6v-6.33h3.15v3.51c0,0.45-.09.51-0.78,0.51l-0.75-.03h-0.27a5.752,5.752,0,0,1-.6.03c-0.39,0-.48.03-0.48,0.12a0.361,0.361,0,0,0,.27.24c0.33,0.15.51,0.24,0.6,0.27a6.768,6.768,0,0,1,.66.33l0.45,0.18,0.06,0.03a0.345,0.345,0,0,1,.18.27c0.18,1.29.27,1.5,0.78,1.5a3.412,3.412,0,0,0,1.38-.51,1.405,1.405,0,0,0,.9-1.47v-11.13l0.45-.27a0.716,0.716,0,0,0,.3-0.54,1.11,1.11,0,0,0-.57-0.87l-2.04-1.86-0.84,1.53h-2.52l-2.34-1.14a21.046,21.046,0,0,0,2.13-1.8l0.33,0.42c1.86-.06,2.64-0.09,3.51-0.09h6.03a0.393,0.393,0,0,0,.36-0.39,0.983,0.983,0,0,0-.51-0.69l-1.92-1.56-1.68,1.83h-2.28c-0.72,0-1.47-.03-3.21-0.12a38.41,38.41,0,0,0,5.16-6.78,20.009,20.009,0,0,0,7.77,9.15,6.213,6.213,0,0,1,2.79-2.49c-4.29-1.5-8.01-4.14-9.75-6.93l0.24-.12a0.641,0.641,0,0,0,.39-0.51c0-.3-0.21-0.45-0.81-0.6l-2.82-.75a30.538,30.538,0,0,1-8.1,12.33,0.844,0.844,0,0,0-.3.45,0.2,0.2,0,0,0,.21.18,7.265,7.265,0,0,0,2.1-1.29v15.81Zm2.37-7.56v-2.94h3.15v2.94h-3.15Zm0-3.75v-2.79h3.15v2.79h-3.15Zm9.33-1.74,0.6-.39a0.817,0.817,0,0,0,.39-0.63c0-.33-0.24-0.48-0.93-0.54l-2.31-.21v10.65a0.388,0.388,0,0,0,.48.42c0.9,0,1.77-.39,1.77-0.81v-8.49Zm4.26-1.23,0.42-.24a0.643,0.643,0,0,0,.42-0.54c0-.33-0.18-0.42-0.96-0.54l-2.19-.24v12.21c-0.03.81-.09,0.81-2.76,0.81h-1.11a0.275,0.275,0,0,0-.18.03,0.049,0.049,0,0,0-.06.06l-0.03.06,0.03,0.03,0.06,0.06a1.261,1.261,0,0,0,.15.06,2.619,2.619,0,0,1,.39.15l0.6,0.21,0.81,0.33c0.21,0.09.42,0.18,0.66,0.27l0.18,0.09a0.367,0.367,0,0,1,.09.27,1.507,1.507,0,0,0,.15,1.08,0.832,0.832,0,0,0,.72.42,3.318,3.318,0,0,0,1.8-.84,1.933,1.933,0,0,0,.81-1.95v-11.79Zm16.53-11.82a1.761,1.761,0,0,0-1.44.51,0.137,0.137,0,0,0,.15.12c1.11,0.12,1.65,1.23,1.65,3.36,0,0.39-.06,1.77-0.18,3.72-0.42,7.56-.42,7.77-0.42,8.85,0,5.55,2.46,8.49,7.14,8.49,3.24,0,6.24-1.71,8.67-4.92a11.421,11.421,0,0,0,1.74-3.12,0.18,0.18,0,0,0-.15-0.21,0.206,0.206,0,0,0-.18.15,13.988,13.988,0,0,1-2.76,2.73,12.055,12.055,0,0,1-7.32,2.64c-3.15,0-4.86-1.98-4.86-5.58a70.028,70.028,0,0,1,1.38-10.56,7.058,7.058,0,0,0,.6-2.37A4.252,4.252,0,0,0,2005.94,4558.41Zm48.99,16.56c1.17,0.9,1.77,1.38,2.25,1.83,1.44,1.35,1.5,1.38,2.13,1.38a1.4,1.4,0,0,0,1.38-1.53c0-.81-0.42-1.44-1.56-2.25a18.074,18.074,0,0,0-3.03-1.83,12.587,12.587,0,0,0,.78-3.84,1.651,1.651,0,0,0-.96-1.56,5.2,5.2,0,0,0-2.28-.99,1.856,1.856,0,0,0-1.29.51,0.162,0.162,0,0,0,.12.15c0.87,0.12,1.2.63,1.2,1.95a7.922,7.922,0,0,1-.48,2.61,26.356,26.356,0,0,0-8.04-1.29c1.86-3.33,3.48-5.46,5.13-6.69,0.72-.51.96-0.78,0.96-1.14,0-.6-2.76-2.43-3.69-2.43a2.242,2.242,0,0,0-1.08.33,25.745,25.745,0,0,1-5.37,1.71,1.063,1.063,0,0,1-1.05-1.05c0-.21-0.06-0.33-0.15-0.33a2.3,2.3,0,0,0-.81,1.59,2.9,2.9,0,0,0,2.19,2.55,1.965,1.965,0,0,0,1.2-.6,19.929,19.929,0,0,1,2.37-1.83,3.817,3.817,0,0,1,1.41-.57,0.561,0.561,0,0,1,.51.57c0,0.63-.39,1.47-1.74,3.81-0.9,1.56-1.89,3.33-2.49,4.32a13.574,13.574,0,0,0-4.17,1.38c-2.22,1.26-3.54,3.12-3.54,5.04a3.51,3.51,0,0,0,3.42,3.57,2.722,2.722,0,0,0,1.83-.69,4.19,4.19,0,0,0,1.2-2.01,40.127,40.127,0,0,1,3.09-6.39,17.883,17.883,0,0,1,8.22,2.28c-1.65,4.53-5.22,8.25-9.15,9.51-0.33.12-.42,0.18-0.42,0.3a0.234,0.234,0,0,0,.24.18,8.966,8.966,0,0,0,1.8-.39,17.83,17.83,0,0,0,4.17-1.68C2051.75,4580.04,2053.04,4578.6,2054.93,4574.97Zm-13.26-2.64c-1.71,3.27-1.74,3.3-2.1,3.87-0.57.87-1.02,1.23-1.53,1.23a1.041,1.041,0,0,1-.96-1.2c0-2.4,2.07-4.35,5.04-4.8Zm27.27,4.29c-0.21,0-.33.06-0.33,0.15a0.27,0.27,0,0,0,.15.18,6.188,6.188,0,0,1,3.96,4.68c0.45,1.41.75,1.74,1.56,1.74a1.756,1.756,0,0,0,1.89-1.71c0-1.62-1.62-3.33-4.2-4.35A9.048,9.048,0,0,0,2068.94,4576.62Zm39.75,4.86c-1.86.15-2.19,0.18-4.23,0.27l2.07,3.09a0.754,0.754,0,0,0,.6.42,0.663,0.663,0,0,0,.57-0.42l0.42-.78c2.01-.57,2.1-0.6,3.75-1.05,3.33-.9,4.68-1.32,6.39-1.89a0.439,0.439,0,0,0,.39-0.36,0.277,0.277,0,0,0-.3-0.27,3.12,3.12,0,0,0-.45.06c-1.53.18-3.99,0.45-6.33,0.63v-6.06h4.14c1.95,4.89,5.91,8.13,12.33,10.05a8.37,8.37,0,0,1,3.3-2.91c-4.5-.36-7.83-1.32-10.56-3,1.59-.78,4.29-2.13,6-3l0.87,0.03,0.21,0.03a0.607,0.607,0,0,0,.78-0.51,0.948,0.948,0,0,0-.45-0.66l-2.22-1.98a55.759,55.759,0,0,1-5.82,5.67,11.745,11.745,0,0,1-3.63-3.72h4.05v0.6a0.461,0.461,0,0,0,.54.48,5.253,5.253,0,0,0,1.5-.33,0.635,0.635,0,0,0,.57-0.75v-6.21l0.63-.18a0.562,0.562,0,0,0,.36-0.54,0.768,0.768,0,0,0-.33-0.57l-2.55-2.4-0.96,1.59h-3.18v-2.04l0.87-.39a0.581,0.581,0,0,0,.3-0.51,0.461,0.461,0,0,0-.45-0.45l-3.33-.33v3.72h-2.88l-1.53-.84a52.826,52.826,0,0,0,7.02-6.54c2.52,3.99,5.7,6.6,10.95,8.94a7.509,7.509,0,0,1,3.15-2.79c-6.39-1.35-10.65-3.42-13.44-6.48l0.57-.18a0.561,0.561,0,0,0,.42-0.51,0.483,0.483,0,0,0-.3-0.42l-3.36-1.32a38.324,38.324,0,0,1-12.09,12.87,0.721,0.721,0,0,0-.45.48,0.2,0.2,0,0,0,.21.18c0.6,0,3.36-1.44,5.88-3.09v14.37Zm2.88-7.17v-2.91h9v2.91h-9Zm0-3.72v-2.97h9v2.97h-9Zm40.53-10.68a2.6,2.6,0,0,1-1.41.96,3.4,3.4,0,0,0,.09-0.75,2.039,2.039,0,0,0-.75-1.89,2.4,2.4,0,0,0-1.47-.48c-0.78,0-1.74.3-1.74,0.54,0,0.09.06,0.12,0.21,0.15,0.69,0.03,1.17.93,1.17,2.19a3.6,3.6,0,0,1-.12.93,8.24,8.24,0,0,1-3.18.66,2.4,2.4,0,0,1-1.95-.54,0.437,0.437,0,0,0-.24-0.15,0.137,0.137,0,0,0-.12.15,2.655,2.655,0,0,0,2.58,2.31,13.968,13.968,0,0,0,2.67-.42c-1.11,3.42-2.46,5.28-5.88,8.07-0.87.66-.93,0.75-0.93,1.2,0,1.11.87,2.49,1.53,2.49a1.609,1.609,0,0,0,1.2-1.02c0.63-1.05,2.19-3.39,2.52-3.81a3.413,3.413,0,0,1,2.19-1.32q1.485,0,1.53,2.97l0.03,1.29v0.6a24.5,24.5,0,0,0-2.76,1.8c-1.5,1.2-2.22,2.4-2.22,3.66a3.857,3.857,0,0,0,2.13,3.24,10.507,10.507,0,0,0,5.07.99,24.109,24.109,0,0,0,4.56-.42c1.23-.3,1.86-0.81,1.86-1.47a2.62,2.62,0,0,0-.63-1.35,1.761,1.761,0,0,0-1.29-.54,3.327,3.327,0,0,0-.9.21,18.129,18.129,0,0,1-4.65.66c-2.88,0-4.2-.6-4.2-1.92a3.539,3.539,0,0,1,1.02-2.25,10.51,10.51,0,0,1,2.07-1.65v0.57l-0.03,1.2a6.007,6.007,0,0,1-.06.96,1.345,1.345,0,0,0-.03.33,0.657,0.657,0,0,0,.72.51,1.637,1.637,0,0,0,1.86-1.92c0-.54-0.03-1.02-0.09-2.76a55.582,55.582,0,0,1,8.34-3.39c2.04-.72,2.85-1.47,2.85-2.61,0-1.92-1.74-3.3-4.14-3.3-3.33,0-5.88,2.25-7.77,6.84a3.419,3.419,0,0,0-.93-2.34,3.276,3.276,0,0,0-2.16-.78,4.293,4.293,0,0,0-1.59.36c1.23-2.07,1.71-2.97,3.09-5.7,2.97-.87,3.69-1.29,3.69-2.1,0-.39,0-0.39-1.26-0.81Zm0.18,12.78v-0.06a7.367,7.367,0,0,1,1.2-2.91c1.5-2.52,3.3-3.9,5.1-3.9a1.655,1.655,0,0,1,1.53,1.59c0,0.84,0,.84-7.86,5.37Zm45.06,0.39-1.77,1.98h-7.83v-3.51h1.32v0.99a0.408,0.408,0,0,0,.51.45c0.87,0,2.01-.48,2.01-0.87v-8.16l0.42-.27a0.714,0.714,0,0,0,.51-0.54,0.987,0.987,0,0,0-.36-0.63l-2.25-2.37-0.99,1.38h-3.03l0.21-.24c0.27-.36.57-0.69,0.87-1.05,0.24-.27.45-0.57,0.69-0.87a1.386,1.386,0,0,1,.21-0.21l0.48-.24a0.67,0.67,0,0,0,.54-0.57,0.544,0.544,0,0,0-.51-0.45l-2.91-.78a37.462,37.462,0,0,1-.66,4.41h-0.39l-2.97-1.23v12.51c0,0.48.09,0.6,0.48,0.6,1.05,0,2.01-.45,2.01-0.96v-0.9h1.23v3.51h-6.69c-1.29,0-2.43-.03-5.91-0.18l0.69,1.17c2.76-.12,3.9-0.15,5.22-0.15h4.8a32.088,32.088,0,0,1-9.87,7.44c-0.99.48-1.05,0.54-1.05,0.69a0.182,0.182,0,0,0,.21.18,25.374,25.374,0,0,0,4.32-1.44,30.785,30.785,0,0,0,8.28-4.89v6.54a0.4,0.4,0,0,0,.39.45,5.918,5.918,0,0,0,1.71-.51,0.619,0.619,0,0,0,.48-0.42v-7.41a22.7,22.7,0,0,0,10.05,7.62,9.422,9.422,0,0,1,2.7-2.76c-5.19-.75-9.75-2.79-12.27-5.49h11.64a0.34,0.34,0,0,0,.39-0.36,0.671,0.671,0,0,0-.33-0.54Zm-13.41-2.34v-3.99h5.13v3.99h-5.13Zm0-4.8v-3.6h5.13v3.6h-5.13Zm-9.12,7.29a0.987,0.987,0,0,0,.66.42,0.684,0.684,0,0,0,.66-0.78l0.12-.6c2.31-1.83,4.95-4.29,4.95-4.59a0.232,0.232,0,0,0-.24-0.21,4.2,4.2,0,0,0-1.23.54,50.738,50.738,0,0,1-7.02,2.94Zm-0.48-13.02c-0.24,0-.39.09-0.39,0.24a0.613,0.613,0,0,0,.33.42,5.1,5.1,0,0,1,2.04,2.97,15.8,15.8,0,0,0,.57,1.62,1.155,1.155,0,0,0,1.05.63,1.466,1.466,0,0,0,1.44-1.65,4.152,4.152,0,0,0-2.73-3.6A9.325,9.325,0,0,0,2174.33,4560.21Zm24.15,2.25a0.631,0.631,0,0,0,.51-0.51,0.923,0.923,0,0,0-.42-0.66l-2.22-1.89a34.745,34.745,0,0,1-3.84,6.3,1.136,1.136,0,0,0-.33.57,0.168,0.168,0,0,0,.15.18c0.39,0,3.12-1.89,5.55-3.81Zm-5.67,4.92q-0.36,0-.36.18a0.6,0.6,0,0,0,.36.39,14.786,14.786,0,0,1,3.78,3.69,1.481,1.481,0,0,0,1.23.9,1.316,1.316,0,0,0,1.35-1.38c0-1.32-1.2-2.46-3.27-3.15A14.381,14.381,0,0,0,2192.81,4567.38Zm21.93-8.97a1.761,1.761,0,0,0-1.44.51,0.137,0.137,0,0,0,.15.12c1.11,0.12,1.65,1.23,1.65,3.36,0,0.39-.06,1.77-0.18,3.72-0.42,7.56-.42,7.77-0.42,8.85,0,5.55,2.46,8.49,7.14,8.49,3.24,0,6.24-1.71,8.67-4.92a11.421,11.421,0,0,0,1.74-3.12,0.18,0.18,0,0,0-.15-0.21,0.206,0.206,0,0,0-.18.15,13.988,13.988,0,0,1-2.76,2.73,12.055,12.055,0,0,1-7.32,2.64c-3.15,0-4.86-1.98-4.86-5.58a70.028,70.028,0,0,1,1.38-10.56,7.058,7.058,0,0,0,.6-2.37A4.252,4.252,0,0,0,2214.74,4558.41Zm48.72,13.29a1.845,1.845,0,0,1,.39-0.03l0.39-.03h0.33a3.2,3.2,0,0,1,2.91,1.23,1.705,1.705,0,0,0,1.65-1.92,6.231,6.231,0,0,0-6.18-5.82c-1.89,0-2.76,1.02-2.76,3.24,0,0.84,0,.84.18,5.4,0.12,2.97.12,2.97,0.12,3.81a2.483,2.483,0,0,1-1.41,2.64,16.133,16.133,0,0,1-5.79.99c-2.01,0-3.18-.75-3.18-2.01a5.913,5.913,0,0,1,.72-2.58,13.8,13.8,0,0,0,2.04-5.97,1.668,1.668,0,0,0-.93-1.53c0.21-1.62.27-1.89,0.45-3.09a20.141,20.141,0,0,0,3.33-1.08c0.69-.3.96-0.51,0.96-0.87,0-.63-0.96-1.17-2.43-1.38a2.764,2.764,0,0,1-1.44,1.26,15.049,15.049,0,0,1,.63-2.61,1.225,1.225,0,0,0,.12-0.48,2.788,2.788,0,0,0-.9-1.41,2.837,2.837,0,0,0-1.89-1.05c-0.66,0-2.28.69-2.28,0.99,0,0.12.06,0.15,0.33,0.15,1.08,0.06,1.62,1.23,1.62,3.48,0,0.27,0,.27-0.03,1.56a17.65,17.65,0,0,1-3.78.54,2.7,2.7,0,0,1-2.4-1.05,0.513,0.513,0,0,0-.24-0.24,0.137,0.137,0,0,0-.12.15,4.557,4.557,0,0,0,.36,1.53,2.588,2.588,0,0,0,2.58,1.53,14.772,14.772,0,0,0,3.48-.54,18.04,18.04,0,0,1-.18,2.19,3.606,3.606,0,0,0-2.4.78,6.182,6.182,0,0,0-1.95,4.71c0,2.01.9,3.45,2.1,3.45a1.711,1.711,0,0,0,1.38-.75,8.955,8.955,0,0,0-.45,2.49c0,2.58,1.95,3.9,5.76,3.9,5.22,0,9.24-1.77,9.24-4.11a1.916,1.916,0,0,0-.15-0.72,5.446,5.446,0,0,1-1.74-3.18,33.679,33.679,0,0,1-.78-6.87c0-1.53.42-2.28,1.26-2.28a3.231,3.231,0,0,1,2.07,1.11,5.474,5.474,0,0,1,1.5,2.64c0,0.33-.63.72-2.46,1.47a0.305,0.305,0,0,0-.24.24,0.137,0.137,0,0,0,.15.12h0.06Zm-13.8-2.04c0.24,0.03.33,0.21,0.33,0.72a16.644,16.644,0,0,1-.45,3.21c-0.42,2.01-.51,2.22-0.93,2.22-0.57,0-.93-0.75-0.93-1.95a7.506,7.506,0,0,1,.54-2.97A2.1,2.1,0,0,1,2249.66,4569.66Zm32.1,6.45a3.705,3.705,0,1,0,3.66,3.69A3.714,3.714,0,0,0,2281.76,4576.11Zm-0.09,1.29a2.415,2.415,0,1,1-2.37,2.4A2.421,2.421,0,0,1,2281.67,4577.4Zm-375.54,46.77c-1.35,2.4-1.71,3.45-1.71,5.07,0,3.99,3.03,6.39,8.07,6.39,1.35,0,2.16-.51,2.16-1.32a2.106,2.106,0,0,0-1.8-2.22,3.64,3.64,0,0,0-.54.03c-0.33.03-.66,0.03-0.96,0.03a9.155,9.155,0,0,1-3.09-.48,3.417,3.417,0,0,1-2.31-3.15,5.5,5.5,0,0,1,1.98-4.05c1.5-1.17,3.24-1.62,6.39-1.62a11.373,11.373,0,0,1,1.86.12,5.32,5.32,0,0,0,.66.03,0.841,0.841,0,0,0,1.02-.66,3.41,3.41,0,0,0-2.55-2.52c-0.93,0-9.33,3-11.4,4.08a2.386,2.386,0,0,1-1.32.45,0.231,0.231,0,0,1-.27-0.15,9.353,9.353,0,0,1,1.77-2.46,31.125,31.125,0,0,1,8.52-6.6,1.508,1.508,0,0,0,1.11-1.41c0-1.32-2.13-3.03-3.75-3.03a2.117,2.117,0,0,0-1.17.33,21.212,21.212,0,0,1-4.83,1.77,1.149,1.149,0,0,1-1.08-.93c-0.03-.21-0.09-0.3-0.18-0.3a1.853,1.853,0,0,0-.63,1.5,2.588,2.588,0,0,0,2.16,2.34,2.8,2.8,0,0,0,1.8-1.05c1.5-1.41,2.61-2.13,3.24-2.13a0.778,0.778,0,0,1,.51.87c0,0.42-.48.99-5.04,5.88-0.72.78-1.47,1.59-2.22,2.37-0.03.06-.81,0.81-1.56,1.5-2.25,2.07-2.25,2.07-2.43,2.37a2.67,2.67,0,0,0-.24,1.26c0,1.53.33,2.19,1.08,2.19a1.034,1.034,0,0,0,.81-0.48A14.1,14.1,0,0,1,1906.13,4624.17Zm30.6-6.81a4.1,4.1,0,0,0-2.04.84c-2.49,1.47-3.27,2.34-3.27,3.6a2.377,2.377,0,0,0,.75,1.65,11.8,11.8,0,0,1,1.74,2.85c-0.63.96-.96,1.41-1.77,2.46-1.17,1.41-1.38,1.83-1.38,2.61,0,0.99.69,2.04,1.38,2.04a1.623,1.623,0,0,0,1.41-1.11,20.794,20.794,0,0,1,1.44-4.17c1.2,3.39,1.32,3.99,1.41,6.51,0.03,0.72.18,0.99,0.57,0.99s0.72-.24,1.74-1.17a0.941,0.941,0,0,0,.42-0.78,3.12,3.12,0,0,0-.06-0.45c-0.3-2.64-.45-4.59-0.51-6.93-0.03-.63-0.03-1.23-0.03-1.32-0.03-.36-0.03-0.6-0.03-0.72a3.921,3.921,0,0,1,.9-3.03c2.19-2.64,5.13-4.62,6.87-4.62,0.96,0,1.5.78,1.5,2.1a21.531,21.531,0,0,1-.3,2.82,54.255,54.255,0,0,0-.75,6.72c0,2.76,1.44,4.53,3.69,4.53a5.938,5.938,0,0,0,4.11-1.83c1.2-1.17,1.77-2.19,2.73-4.77a1.127,1.127,0,0,0,.12-0.39,0.2,0.2,0,0,0-.21-0.18,0.322,0.322,0,0,0-.24.18c-1.47,2.61-3.9,4.5-5.76,4.5-0.96,0-1.53-.84-1.53-2.22a45.34,45.34,0,0,1,.99-7.29,12.031,12.031,0,0,0,.21-2.1,3.617,3.617,0,0,0-3.75-3.72,6.993,6.993,0,0,0-4.05,1.62,19.61,19.61,0,0,0-4.47,4.53,9.494,9.494,0,0,1,1.02-2.64,1.627,1.627,0,0,0-.81-0.96,26.964,26.964,0,0,1,.66-3.81,1.409,1.409,0,0,0,.15-0.57c0-1.23-2.16-2.76-3.87-2.76a2.023,2.023,0,0,0-1.41.51c0,0.09.06,0.15,0.21,0.15a2.289,2.289,0,0,1,1.98,2.28c0.06,0.45.06,0.54,0.18,3.09Zm0.12,4.62c-0.72,1.17-.75,1.23-2.16,3.66-1.29-2.52-1.32-2.61-1.32-3.18a2.211,2.211,0,0,1,1.05-1.71,4.335,4.335,0,0,1,2.01-1.08,0.369,0.369,0,0,1,.39.33Zm0.33,3.87,0.06,1.86,0.06,1.14v0.33c0,0.54-.15.84-0.39,0.84-0.21,0-.3-0.12-0.48-0.57-0.18-.54-0.39-1.08-0.81-2.07,0.63-1.29.87-1.8,1.53-3Zm50.34-9.57a6.477,6.477,0,0,1-3.12-.87,4.264,4.264,0,0,1,.42-1.32,0.9,0.9,0,0,0,.12-0.42c0-.75-2.1-2.1-3.27-2.1-0.75,0-1.92.48-1.92,0.78a0.168,0.168,0,0,0,.18.15h0.12a1.785,1.785,0,0,1,.24-0.03,1.538,1.538,0,0,1,1.14,1.05c0.33,0.78.33,0.78,0.45,5.55a18.678,18.678,0,0,1-3.51.42,3.364,3.364,0,0,1-2.94-1.23,0.325,0.325,0,0,0-.24-0.24,0.2,0.2,0,0,0-.15.21,3.831,3.831,0,0,0,.57,1.56,3.71,3.71,0,0,0,3.51,1.74,14.217,14.217,0,0,0,2.79-.3c0.21,2.04.39,5.28,0.36,6.9-0.69-.06-1.53-0.12-2.16-0.12-3.33,0-5.64,1.41-5.64,3.45,0,1.86,2.07,3.27,4.83,3.27a5.381,5.381,0,0,0,4.35-1.8,4.012,4.012,0,0,0,.93-2.1,7.983,7.983,0,0,1,2.31,2.01,3.587,3.587,0,0,0,.87,1.11,1.81,1.81,0,0,0,1.2.45,1.4,1.4,0,0,0,1.44-1.5c0-1.56-2.01-3.12-5.61-4.32-0.03-1.05-.06-1.5-0.21-3.15-0.27-2.73-.27-2.97-0.42-4.68,3.21-.96,4.71-2.07,4.71-3.54a0.846,0.846,0,0,0-.69-0.96,1.033,1.033,0,0,0-.27.03h-0.39Zm-5.37,13.74c-0.27,1.86-1.32,2.61-3.63,2.61-1.17,0-2.1-.6-2.1-1.38,0-1.11,1.26-1.95,2.97-1.95a7.717,7.717,0,0,1,2.79.57Zm2.37-13.95a6.789,6.789,0,0,0,.6.39c0.33,0.21.42,0.27,0.75,0.45a0.549,0.549,0,0,1,.3.3c0,0.36-.75.84-2.07,1.29a18.283,18.283,0,0,1,.12-2.61Zm-12.39,7.71c-0.15,0-.24.12-0.42,0.63a9.84,9.84,0,0,1-.36.93c-0.21.54-.45,1.23-0.72,2.01-0.84,2.43-.93,2.61-1.32,2.61a0.431,0.431,0,0,1-.42-0.33,10.01,10.01,0,0,1-.3-2.49,20.07,20.07,0,0,1,1.95-8.01c0.99-2.04,1.11-2.43,1.11-3.21a4.228,4.228,0,0,0-2.34-3.51,3.868,3.868,0,0,0-1.74-.54,0.148,0.148,0,0,0-.18.12,0.391,0.391,0,0,0,.24.27,3.484,3.484,0,0,1,.9,2.55,23.9,23.9,0,0,1-.84,4.68,34.754,34.754,0,0,0-1.05,7.77c0,4.53,1.68,8.22,3.78,8.22a1.477,1.477,0,0,0,1.38-1.23,1.435,1.435,0,0,0-.15-0.48,7.419,7.419,0,0,1-.51-3.06,25.743,25.743,0,0,1,1.02-5.97,5.108,5.108,0,0,0,.15-0.75A0.2,0.2,0,0,0,1972.13,4623.78Zm26.22-4.11,0.63,0.99c2.64-.09,2.85-0.09,3.39-0.09h1.92v3.69h-1.41c-0.84,0-1.68-.03-4.02-0.12l0.78,1.02c2.49-.09,2.55-0.09,3.24-0.09h1.32a27.389,27.389,0,0,1-5.04,8.04,1.516,1.516,0,0,0-.54.78,0.2,0.2,0,0,0,.21.18c0.54,0,3.12-2.1,5.46-4.47v6.54a0.576,0.576,0,0,0,.66.66,3.971,3.971,0,0,0,1.47-.33,0.748,0.748,0,0,0,.57-0.72v-8.1a4.765,4.765,0,0,1,1.59,2.04c0.6,1.41.75,1.56,1.44,1.56a1.21,1.21,0,0,0,1.2-1.35,2.48,2.48,0,0,0-1.5-2.16,11.288,11.288,0,0,0-2.73-.81v-1.86h5.19a0.317,0.317,0,0,0,.36-0.27,0.84,0.84,0,0,0-.39-0.57l-2.07-1.83-1.65,1.86h-1.44v-3.69h6.06a0.277,0.277,0,0,0,.3-0.27,0.625,0.625,0,0,0-.3-0.45l-2.04-1.86-1.56,1.8h-1.62l1.53-2.07a7.429,7.429,0,0,1,.57-0.78l0.63-.27a0.569,0.569,0,0,0,.39-0.51,0.587,0.587,0,0,0-.48-0.54l-2.58-1.02a32.329,32.329,0,0,1-1.08,5.19h-3.03a1.514,1.514,0,0,0,.81-1.44,2.9,2.9,0,0,0-1.53-2.61,5.172,5.172,0,0,0-1.95-.81,0.18,0.18,0,0,0-.21.15,0.516,0.516,0,0,0,.12.21,4.729,4.729,0,0,1,.99,2.79,2.7,2.7,0,0,0,.36,1.71l-1.8-.06Zm1.14-5.16c1.68-.06,2.37-0.09,3.39-0.09h9.3a0.386,0.386,0,0,0,.42-0.39,0.819,0.819,0,0,0-.33-0.57l-1.92-1.68-1.5,1.83h-1.86v-2.76l0.6-.36a0.587,0.587,0,0,0,.33-0.51,0.541,0.541,0,0,0-.48-0.48l-3.15-.39v4.5h-1.41c-1.02,0-1.89-.03-4.02-0.12Zm19.53,7.11v14.34a0.612,0.612,0,0,0,.63.75,5.136,5.136,0,0,0,1.62-.36,0.836,0.836,0,0,0,.63-0.9v-13.83h4.41a0.331,0.331,0,0,0,.39-0.3,0.7,0.7,0,0,0-.21-0.45l-2.31-2.01-1.77,1.95h-6.03c0.06-1.23.09-1.74,0.09-3.06,0-1.56,0-2.43-.06-4.14,4.17-.48,4.17-0.48,6.63-0.84l1.35,0.06,0.12,0.03a0.457,0.457,0,0,0,.6-0.39,0.772,0.772,0,0,0-.21-0.48l-2.22-2.4a17.742,17.742,0,0,1-6.33,2.94l-2.73-1.29c0.21,3.45.27,5.13,0.27,8.04,0,5.43-.18,7.59-0.78,9.72a12.864,12.864,0,0,1-3.81,6,1.052,1.052,0,0,0-.51.63,0.255,0.255,0,0,0,.21.21c0.75,0,3.69-2.4,4.89-3.99,1.71-2.34,2.31-4.68,2.46-10.23h2.67Zm21.72-11.28a1.761,1.761,0,0,0-1.44.51,0.137,0.137,0,0,0,.15.12c1.11,0.12,1.65,1.23,1.65,3.36,0,0.39-.06,1.77-0.18,3.72-0.42,7.56-.42,7.77-0.42,8.85,0,5.55,2.46,8.49,7.14,8.49,3.24,0,6.24-1.71,8.67-4.92a11.421,11.421,0,0,0,1.74-3.12,0.18,0.18,0,0,0-.15-0.21,0.206,0.206,0,0,0-.18.15,13.988,13.988,0,0,1-2.76,2.73,12.055,12.055,0,0,1-7.32,2.64c-3.15,0-4.86-1.98-4.86-5.58a70.028,70.028,0,0,1,1.38-10.56,7.058,7.058,0,0,0,.6-2.37A4.252,4.252,0,0,0,2040.74,4610.34Zm46.14,8.16c-0.93,0-2.07.36-2.07,0.63,0,0.09.09,0.15,0.3,0.15,3.06-.15,5.28,2.22,5.76,6.12,0.12,1.44.15,1.5,0.45,1.86a1.388,1.388,0,0,0,.96.39,2.11,2.11,0,0,0,1.92-2.28,6.52,6.52,0,0,0-1.83-4.35A7.043,7.043,0,0,0,2086.88,4618.5Zm-16.08-4.83a0.345,0.345,0,0,0-.39.18,0.26,0.26,0,0,0,.15.21c1.08,0.57,1.59,1.74,1.59,3.6,0,0.3,0,.63-0.03,1.08-0.06,1.35-.12,2.73-0.12,3.3,0,3.75.78,6.69,2.34,8.88,1.35,1.86,3.03,2.91,4.62,2.91a1.426,1.426,0,0,0,1.53-1.14,0.565,0.565,0,0,0-.06-0.24,4.091,4.091,0,0,1-.9-2.58,17.293,17.293,0,0,1,1.02-5.28,0.18,0.18,0,0,0,.03-0.12,0.205,0.205,0,0,0-.21-0.21c-0.15,0-.51.6-1.5,2.61a16.659,16.659,0,0,1-1.2,2.31,1,1,0,0,1-.78.54,1.749,1.749,0,0,1-1.02-.81,8.22,8.22,0,0,1-1.44-5.19,18.355,18.355,0,0,1,.72-5.25,4.172,4.172,0,0,0,.33-1.29,3.606,3.606,0,0,0-.87-2.04A5.89,5.89,0,0,0,2070.8,4613.67Zm37.8,12.66a18.7,18.7,0,0,1-2.46,2.76c-0.87.84-1.05,1.14-1.05,1.74,0,1.2.6,2.07,1.47,2.07,0.51,0,.72-0.18,1.11-1.02,0.39-.78.87-1.62,1.95-3.42a19.506,19.506,0,0,1,1.14,5.73,3.235,3.235,0,0,0,.12,1.35,0.706,0.706,0,0,0,.54.3,2.536,2.536,0,0,0,2.37-2.22,3.676,3.676,0,0,0-.06-0.57,44.754,44.754,0,0,1-.72-8.76,2.255,2.255,0,0,1,.96-1.89c2.13-2.04,4.83-3.33,6.96-3.33,2.85,0,4.44,1.83,4.44,5.16a9.28,9.28,0,0,1-2.79,6.96,15.029,15.029,0,0,1-4.38,2.7c-0.33.12-.42,0.21-0.42,0.3a0.237,0.237,0,0,0,.24.24,9.189,9.189,0,0,0,1.23-.24,16.454,16.454,0,0,0,6-2.88,9.067,9.067,0,0,0,3.48-7.05,6.534,6.534,0,0,0-6.75-6.72c-2.67,0-5.37,1.29-8.76,4.17a2.292,2.292,0,0,1,.51-1.23c0.18-.24.81-1.02,1.05-1.32a1.541,1.541,0,0,0,.54-0.9,1.972,1.972,0,0,0-1.26-1.38,2.9,2.9,0,0,1-.54.09,14.14,14.14,0,0,1,.63-3.48,2.207,2.207,0,0,0,.15-0.66c0-1.17-1.95-2.76-3.36-2.76a2.435,2.435,0,0,0-1.74.45,0.2,0.2,0,0,0,.12.18,1.345,1.345,0,0,1,1.05.48c0.75,0.87.99,1.95,0.99,4.53,0,0.66,0,1.17-.03,1.98-3.06,1.71-4.47,3.03-4.47,4.23a4.736,4.736,0,0,0,.75,2.25A14.3,14.3,0,0,1,2108.6,4626.33Zm0.81-1.08c-0.21-.63-0.21-0.63-0.48-1.32a3.989,3.989,0,0,1-.51-1.74c0-.81.6-1.29,3.03-2.34,0,1.23,0,1.23.03,2.07a3.368,3.368,0,0,1-.42,1.2Zm1.05,2.82-0.24-.72a21.936,21.936,0,0,1,1.44-2.49c0.15,2.94.21,4.56,0.21,4.83a0.825,0.825,0,0,1-.45.93c-0.24,0-.33-0.15-0.45-0.81a4.691,4.691,0,0,0-.24-0.84Zm51.42-17.28c-0.99,0-1.41.09-1.41,0.3,0,0.09.06,0.12,0.24,0.18a5.511,5.511,0,0,1,2.97,2.52,0.91,0.91,0,0,0,.93.63,1.181,1.181,0,0,0,1.23-1.23C2165.84,4611.93,2163.98,4610.79,2161.88,4610.79Zm-2.13,2.82c-0.87,0-1.17.06-1.17,0.24a0.247,0.247,0,0,0,.18.21,5.228,5.228,0,0,1,2.73,2.52c0.36,0.72.51,0.84,0.96,0.84a1.166,1.166,0,0,0,1.26-1.2C2163.71,4614.87,2161.79,4613.61,2159.75,4613.61Zm-2.64.03a6.025,6.025,0,0,0,.03-0.72,1.276,1.276,0,0,0-.87-1.47,2.564,2.564,0,0,0-1.26.51,1.486,1.486,0,0,0-.75,1.29,29.45,29.45,0,0,0,1.47,5.64,25.138,25.138,0,0,1-.99,7.59c-1.17,3.87-3.18,5.76-6.06,5.76-2.85,0-4.47-1.86-4.47-5.13a14.553,14.553,0,0,1,2.88-8.4,9.677,9.677,0,0,1,2.94-2.7,4.541,4.541,0,0,0,1.5-.45,0.76,0.76,0,0,0,.3-0.54c0-.6-1.77-1.77-2.7-1.77a1.26,1.26,0,0,0-.84.39,8.574,8.574,0,0,1-2.64,1.53,9.655,9.655,0,0,1-2.58.6,1.622,1.622,0,0,1-1.62-.96c-0.12-.24-0.12-0.24-0.24-0.27-0.06-.03-0.15.09-0.15,0.18a3.562,3.562,0,0,0,.48,1.89,2.235,2.235,0,0,0,1.68,1.32,13.855,13.855,0,0,0,3.63-.99,27.274,27.274,0,0,0-3.84,5.79,12.44,12.44,0,0,0-1.35,5.04,8.792,8.792,0,0,0,1.11,4.11,6.21,6.21,0,0,0,5.82,3.06,7.567,7.567,0,0,0,7.17-4.74c0.78-1.8.9-2.7,1.02-6.87,0.06-2.1.12-2.43,0.27-2.43a0.424,0.424,0,0,1,.24.27,31.9,31.9,0,0,0,1.89,3.12c1.53,2.16,2.88,3.27,3.96,3.27a1.623,1.623,0,0,0,1.35-1.74,3.234,3.234,0,0,0-.36-1.29,1.226,1.226,0,0,0-.81-0.78,11.353,11.353,0,0,1-4.68-3.78,10.448,10.448,0,0,1-1.53-5.73v-0.6Zm29.7-1.65a1.683,1.683,0,0,0,.3.06,0.18,0.18,0,0,0,.21-0.15c0-.39-2.07-1.47-2.88-1.47a2.6,2.6,0,0,0-2.46,2.25c0,0.51.12,0.66,1.23,1.41a13.59,13.59,0,0,1,3.45,3.21,18.164,18.164,0,0,1-5.73.96c-2.1,0-3.27-.39-4.23-1.41a0.165,0.165,0,0,0-.15-0.09,0.134,0.134,0,0,0-.09.12,3.992,3.992,0,0,0,.39,1.08,4.85,4.85,0,0,0,4.65,2.64,20.386,20.386,0,0,0,6.75-1.38c2.46,3.33,3.57,5.52,3.57,7.02a0.221,0.221,0,0,1-.24.24,1.458,1.458,0,0,1-.51-0.18,12.519,12.519,0,0,0-6.09-1.47c-3.75,0-6.3,2.07-6.3,5.1a5.162,5.162,0,0,0,2.49,4.32,13.406,13.406,0,0,0,6.39,1.47c2.04,0,3.6-.63,3.6-1.44a2.135,2.135,0,0,0-1.83-1.89,3.3,3.3,0,0,0-.75.12,4.936,4.936,0,0,1-1.59.18c-3.96,0-6.21-1.14-6.21-3.18,0-2.31,1.53-3.75,4.08-3.75a9.7,9.7,0,0,1,3.81.99,16.717,16.717,0,0,1,3.72,2.61,1.167,1.167,0,0,0,1.02.45q1.98,0,1.98-2.79c0-1.92-1.29-3.87-5.58-8.49,2.7-1.17,4.92-2.97,4.92-3.99a1.185,1.185,0,0,0-1.2-1.08,1.033,1.033,0,0,0-.27.03c-0.72.06-.72,0.06-0.84,0.06a8.139,8.139,0,0,1-2.1-.42,0.227,0.227,0,0,0-.12-0.03,0.129,0.129,0,0,0-.12.12,0.308,0.308,0,0,0,.21.24,1.885,1.885,0,0,1,.81.84c0,0.63-1.14,1.62-2.73,2.4-1.08-1.26-1.56-1.83-2.61-3.06a1.184,1.184,0,0,1-.42-0.78,1.105,1.105,0,0,1,1.26-.87h0.21Zm44.67-1.2c-0.99,0-1.41.09-1.41,0.3,0,0.09.06,0.12,0.24,0.18a5.511,5.511,0,0,1,2.97,2.52,0.91,0.91,0,0,0,.93.63,1.181,1.181,0,0,0,1.23-1.23C2235.44,4611.93,2233.58,4610.79,2231.48,4610.79Zm-2.13,2.82c-0.87,0-1.17.06-1.17,0.24a0.247,0.247,0,0,0,.18.21,5.228,5.228,0,0,1,2.73,2.52c0.36,0.72.51,0.84,0.96,0.84a1.166,1.166,0,0,0,1.26-1.2C2233.31,4614.87,2231.39,4613.61,2229.35,4613.61Zm-2.64.03a6.025,6.025,0,0,0,.03-0.72,1.276,1.276,0,0,0-.87-1.47,2.564,2.564,0,0,0-1.26.51,1.486,1.486,0,0,0-.75,1.29,29.45,29.45,0,0,0,1.47,5.64,25.138,25.138,0,0,1-.99,7.59c-1.17,3.87-3.18,5.76-6.06,5.76-2.85,0-4.47-1.86-4.47-5.13a14.553,14.553,0,0,1,2.88-8.4,9.677,9.677,0,0,1,2.94-2.7,4.541,4.541,0,0,0,1.5-.45,0.76,0.76,0,0,0,.3-0.54c0-.6-1.77-1.77-2.7-1.77a1.26,1.26,0,0,0-.84.39,8.574,8.574,0,0,1-2.64,1.53,9.655,9.655,0,0,1-2.58.6,1.622,1.622,0,0,1-1.62-.96c-0.12-.24-0.12-0.24-0.24-0.27-0.06-.03-0.15.09-0.15,0.18a3.562,3.562,0,0,0,.48,1.89,2.235,2.235,0,0,0,1.68,1.32,13.855,13.855,0,0,0,3.63-.99,27.274,27.274,0,0,0-3.84,5.79,12.44,12.44,0,0,0-1.35,5.04,8.792,8.792,0,0,0,1.11,4.11,6.21,6.21,0,0,0,5.82,3.06,7.567,7.567,0,0,0,7.17-4.74c0.78-1.8.9-2.7,1.02-6.87,0.06-2.1.12-2.43,0.27-2.43a0.424,0.424,0,0,1,.24.27,31.9,31.9,0,0,0,1.89,3.12c1.53,2.16,2.88,3.27,3.96,3.27a1.623,1.623,0,0,0,1.35-1.74,3.234,3.234,0,0,0-.36-1.29,1.226,1.226,0,0,0-.81-0.78,11.353,11.353,0,0,1-4.68-3.78,10.448,10.448,0,0,1-1.53-5.73v-0.6Zm27.75,9.87c-3.84,1.77-5.91,4.14-5.91,6.75a5,5,0,0,0,2.55,4.23,12.736,12.736,0,0,0,6.27,1.32,24.157,24.157,0,0,0,6.63-.87c1.02-.36,1.41-0.75,1.41-1.32a2.3,2.3,0,0,0-2.19-2.13,5.086,5.086,0,0,0-1.59.39,18.419,18.419,0,0,1-5.64,1.05c-3.18,0-5.04-1.2-5.04-3.24a5.293,5.293,0,0,1,2.49-4.17,13.9,13.9,0,0,1,3.21-1.56,25.181,25.181,0,0,0,3.42-.72c1.95-.54,2.46-0.81,2.46-1.35a2.771,2.771,0,0,0-2.4-2.07,1.078,1.078,0,0,0-.75.36c-1.41,1.23-2.73,2.04-3.3,2.04-0.36,0-.66-0.72-0.66-1.62a25.364,25.364,0,0,1,.96-6.03,5.379,5.379,0,0,0,.39-1.89,1.9,1.9,0,0,0-.99-1.59,5.167,5.167,0,0,0-2.67-.9c-1.11,0-2.73.6-2.73,1.02,0,0.12.09,0.18,0.3,0.18a3.012,3.012,0,0,1,1.56.51,2.212,2.212,0,0,1,.87,2.16c0,0.3,0,.81-0.06,1.8-0.03.9-.03,1.29-0.03,1.83C2253.02,4620.87,2253.17,4621.5,2254.46,4623.51Zm41.1-5.52c1.62,0,3.12.69,3.12,1.44,0,0.27-.12.33-0.78,0.51a5.657,5.657,0,0,0-3.81,3.18c-0.36.93-.48,2.25-0.48,5.46a13.606,13.606,0,0,0-1.47-.06,8.591,8.591,0,0,0-3.96.78,3.433,3.433,0,0,0-1.8,2.82c0,2.22,2.31,3.9,5.34,3.9,1.86,0,3.21-.6,3.9-1.77a5.1,5.1,0,0,0,.6-2.73,12.038,12.038,0,0,1,3.06,2.34,2.25,2.25,0,0,0,1.56.9,1.394,1.394,0,0,0,1.26-1.44c0-1.47-2.34-3.15-5.88-4.2a41.366,41.366,0,0,1-.54-4.86c0-2.19.9-3.39,2.55-3.39a7.058,7.058,0,0,1,3.15.87,1.3,1.3,0,0,0,1.08-1.44c0-1.98-2.04-3.57-4.59-3.57-1.41,0-3.63.69-3.63,1.14a0.194,0.194,0,0,0,.18.18,0.586,0.586,0,0,0,.21-0.03Zm-1.98,13.41a2.282,2.282,0,0,1-2.55,2.34c-1.77,0-2.94-.75-2.94-1.83,0-1.14,1.11-1.89,2.73-1.89a7.892,7.892,0,0,1,2.76.51v0.87Zm-7.32-13.32a22.64,22.64,0,0,1-5.88,9.24,2.173,2.173,0,0,0-.96,1.41,1.709,1.709,0,0,0,1.71,1.59,2.41,2.41,0,0,0,1.8-.81,14.416,14.416,0,0,0,1.53-2.61,78.565,78.565,0,0,0,4.17-9.33,11.978,11.978,0,0,0,2.79-1.08c1.35-.72,1.89-1.38,1.89-2.34,0-.72-0.15-0.84-0.93-0.87a3.95,3.95,0,0,1-2.64-.66c0.09-.54.15-0.81,0.24-1.5a2.66,2.66,0,0,0-2.49-1.32c-0.9,0-2.04.42-2.04,0.78,0,0.09.06,0.12,0.24,0.12a1.8,1.8,0,0,1,1.77,1.89,10.048,10.048,0,0,1-.6,3.12,11.024,11.024,0,0,1-3.3.6,3.014,3.014,0,0,1-2.79-1.32c-0.09-.21-0.15-0.24-0.24-0.24a0.205,0.205,0,0,0-.21.21,4.532,4.532,0,0,0,.72,2.04,3.37,3.37,0,0,0,2.91,1.29A15.812,15.812,0,0,0,2286.26,4618.08Zm3.33-4.98c1.05,0.66,1.17.78,1.17,0.9,0,0.33-.6.75-1.77,1.26C2289.32,4614.12,2289.38,4613.94,2289.59,4613.1Zm39.87,19.26c-0.12-.21-0.18-0.36-0.24-0.45a4.8,4.8,0,0,0-4.5-2.64c-2.1,0-3.36.96-3.36,2.58,0,1.77,1.95,2.91,4.92,2.91a10.193,10.193,0,0,0,6.69-2.22,7.23,7.23,0,0,0,2.46-5.25c0-3.33-2.85-5.82-6.69-5.82a9.621,9.621,0,0,0-4.53,1.05,0.11,0.11,0,0,1-.09.03,0.065,0.065,0,0,1-.06-0.06c0-.87,4.59-5.82,6.6-7.11,0.81-.51,1.08-0.81,1.08-1.23,0-.9-2.37-2.49-3.75-2.49a2.141,2.141,0,0,0-1.17.42,14.5,14.5,0,0,1-6.27,2.25,1.178,1.178,0,0,1-1.2-.63c-0.09-.24-0.12-0.27-0.18-0.27-0.18,0-.27.33-0.27,0.96a2.442,2.442,0,0,0,.48,1.59,2.532,2.532,0,0,0,1.77,1.11,2.142,2.142,0,0,0,1.32-.72c1.71-1.35,3.96-2.67,4.56-2.67a0.34,0.34,0,0,1,.33.36c0,1.2-2.55,5.04-5.55,8.37-1.29,1.44-3.51,3.69-4.8,4.86a1.9,1.9,0,0,0-.84,1.44c0,0.99,1.11,2.34,1.92,2.34,0.39,0,.69-0.3,1.11-1.2a22.731,22.731,0,0,1,2.88-4.5,7.675,7.675,0,0,1,5.79-2.79,4.533,4.533,0,0,1,2.91,1.14,4.613,4.613,0,0,1,1.44,3.6,6.538,6.538,0,0,1-.69,3.03A5.326,5.326,0,0,1,2329.46,4632.36Zm-2.7.72c-0.39.03-.63,0.03-0.69,0.03-1.68,0-3.15-.72-3.15-1.56a1.249,1.249,0,0,1,1.44-1.08C2325.68,4630.47,2326.49,4631.34,2326.76,4633.08Zm24.6-5.04a3.705,3.705,0,1,0,3.66,3.69A3.714,3.714,0,0,0,2351.36,4628.04Zm-0.09,1.29a2.415,2.415,0,1,1-2.37,2.4A2.421,2.421,0,0,1,2351.27,4629.33Z" transform="translate(-1893.69 -4556.69)"/>
</svg>
