<svg xmlns="http://www.w3.org/2000/svg" width="239" height="65.94" viewBox="0 0 119.5 32.97">
  <defs>
    <style>
      .cls-1 {
        fill: #a38737;
        fill-rule: evenodd;
      }
    </style>
  </defs>
  <path id="里の幸_" data-name="里の幸 " class="cls-1" d="M1441.56,2671.73c4.61-.18,4.75-0.18,6.34-0.18h25a0.56,0.56,0,0,0,.62-0.54,0.921,0.921,0,0,0-.36-0.65l-3.06-2.7-2.67,2.91h-8.85v-5.94h11.95a0.426,0.426,0,0,0,.36-0.43,0.566,0.566,0,0,0-.29-0.47l-3.06-2.7-2.37,2.63h-6.59v-6.08h6.88v1.58a0.75,0.75,0,0,0,.86.83,6.374,6.374,0,0,0,1.65-.29,1.065,1.065,0,0,0,.98-0.97v-12.74l0.61-.25a0.743,0.743,0,0,0,.54-0.76,0.911,0.911,0,0,0-.29-0.65l-3.42-3.34-1.44,2.23h-16.41l-3.92-1.98v19a0.72,0.72,0,0,0,.83.87c1.69,0,2.63-.4,2.63-1.08v-2.45h7.01v6.08h-5.5c-0.65,0-1.66-.03-2.88-0.07l-3.35-.11,0.79,1.3c3.03-.11,4.18-0.15,5.44-0.15h5.5v5.94h-7.19c-0.36,0-1.88-.03-3.42-0.07-1.23-.03-2.45-0.07-3.67-0.14Zm6.52-15.12v-5.65h7.01v5.65h-7.01Zm0-6.63v-5.79h7.01v5.79h-7.01Zm10.5,6.63v-5.65h6.88v5.65h-6.88Zm0-12.42h6.88v5.79h-6.88v-5.79Zm42.22,1.76c0.39-.03.64-0.03,0.75-0.03a8.67,8.67,0,0,1,3.71.86c3.13,1.58,4.75,4.86,4.75,9.68,0,4.43-1.48,7.71-4.61,10.26a19.246,19.246,0,0,1-6.44,3.35c-0.57.18-.68,0.22-0.68,0.4,0,0.14.14,0.21,0.36,0.21a16.11,16.11,0,0,0,2.3-.43,22.261,22.261,0,0,0,6.66-2.45,13.267,13.267,0,0,0,6.65-11.52,10.854,10.854,0,0,0-2.84-7.59,13.848,13.848,0,0,0-10.11-3.96c-8.42,0-15.65,6.8-15.65,14.72a9.343,9.343,0,0,0,1.76,5.8,4.375,4.375,0,0,0,3.02,1.98c1.98,0,5.11-2.56,7.24-5.87a23.224,23.224,0,0,0,3.59-11.7A13.793,13.793,0,0,0,1500.8,2645.95Zm-1.77.15c0.04,0.1.04,0.18,0.07,0.25a8.306,8.306,0,0,1,.22,2.01,21.222,21.222,0,0,1-3.67,10.77c-1.51,2.37-3.56,4.24-4.68,4.24s-2.08-1.87-2.08-3.99a14.067,14.067,0,0,1,4.24-10.04A13.636,13.636,0,0,1,1499.03,2646.1Zm28.4,6.91c2.7-.15,3.74-0.18,6.19-0.18h0.43a5.138,5.138,0,0,1,1.3,2.48l0.21,0.9c0.07,0.54.18,0.9,0.22,1.12a4.478,4.478,0,0,0,.5,1.18h-1.98c-2.77,0-3.88-.03-7.05-0.21l0.86,1.37c2.59-.15,3.53-0.18,6.19-0.18h6.95v4.75h-6.01c-2.7,0-3.85-.04-7.09-0.22l0.93,1.37c2.67-.14,3.67-0.18,6.16-0.18h6.01v6.98c0,0.58.14,0.72,0.75,0.72a8.984,8.984,0,0,0,2.05-.28,0.891,0.891,0,0,0,.72-0.94v-6.48h12.74a0.581,0.581,0,0,0,.72-0.58,0.927,0.927,0,0,0-.43-0.72l-3.13-2.26-2.38,2.59h-7.52v-4.75h13.53a0.507,0.507,0,0,0,.61-0.51,0.632,0.632,0,0,0-.28-0.47l-3.13-2.69-2.31,2.69h-4.71c1.26-1.69,1.44-1.94,2.66-3.74l0.76-.25a0.686,0.686,0,0,0,.68-0.65,0.9,0.9,0,0,0-.39-0.68l-0.51-.36h7.92c0.5,0,.72-0.18.72-0.54a1.062,1.062,0,0,0-.43-0.72l-3.1-2.63-2.37,2.92h-9.79v-5.12h12.27c0.54,0,.79-0.18.79-0.54a0.737,0.737,0,0,0-.32-0.57l-3.1-2.59-2.26,2.73h-7.38v-3.27l1.22-.72a0.829,0.829,0,0,0-.5-1.55l-4.1-.29v5.83h-5.22c-2.3,0-3.67-.03-7.05-0.18l0.86,1.33c2.91-.14,4.17-0.18,6.19-0.18h5.22v5.12h-7.63c-2.74,0-3.85-.04-7.09-0.22Zm20.69-.18a38.688,38.688,0,0,1-1.26,5.68h-7.95a2.914,2.914,0,0,0,.57-1.72c0-1.66-1.26-3.1-3.56-3.96h12.2Z" transform="translate(-1440.81 -2639.94)"/>
</svg>
