<svg xmlns="http://www.w3.org/2000/svg" width="318" height="37.2" viewBox="0 0 159 18.6">
  <defs>
    <style>
      .cls-1 {
        fill: #a38737;
        fill-rule: evenodd;
      }
    </style>
  </defs>
  <path id="匠のこだわり_仮_" data-name="匠のこだわり(仮)" class="cls-1" d="M1900.4,5696.37h13.42a0.4,0.4,0,0,0,.46-0.29,0.763,0.763,0,0,0-.32-0.49l-1.48-1.24-1.49,1.53H1900.4v-12.14h12.88a0.349,0.349,0,0,0,.41-0.25,0.79,0.79,0,0,0-.34-0.47l-1.51-1.24-1.37,1.48h-9.71l-2.01-1.01v15.21a0.351,0.351,0,0,0,.36.42,3.425,3.425,0,0,0,.9-0.22,0.435,0.435,0,0,0,.39-0.38v-0.91Zm6.86-7.22v6.03a0.327,0.327,0,0,0,.36.36,4.163,4.163,0,0,0,.85-0.16,0.384,0.384,0,0,0,.38-0.4v-5.83h3.71a0.373,0.373,0,0,0,.45-0.27,0.8,0.8,0,0,0-.31-0.47l-1.4-1.12-1.21,1.37h-5.6v-2.38c1.13-.07,1.4-0.1,2.09-0.16,0.56-.07,1.11-0.12,1.69-0.18l1.46-.12c0.09,0,.4-0.04.81-0.09h0.32a0.271,0.271,0,0,0,.31-0.22,0.642,0.642,0,0,0-.25-0.38l-1.26-1.15a21.654,21.654,0,0,1-5.12,1.69l-1.58-.83c0.05,0.78.05,1.1,0.05,2.9a17.888,17.888,0,0,1-.23,3.51,6.42,6.42,0,0,1-1.86,3.62,0.733,0.733,0,0,0-.27.38,0.127,0.127,0,0,0,.11.11,2.31,2.31,0,0,0,.85-0.51,7.032,7.032,0,0,0,2.38-2.86,8.464,8.464,0,0,0,.5-2.84h2.77Zm20-4.72a3.534,3.534,0,0,1,.38-0.02,4.3,4.3,0,0,1,1.85.43c1.57,0.8,2.38,2.43,2.38,4.85a6.155,6.155,0,0,1-2.31,5.13,9.52,9.52,0,0,1-3.22,1.67c-0.29.09-.34,0.11-0.34,0.2,0,0.07.07,0.11,0.18,0.11a8.378,8.378,0,0,0,1.15-.22,11.08,11.08,0,0,0,3.33-1.22,6.64,6.64,0,0,0,3.33-5.76,5.409,5.409,0,0,0-1.42-3.8,6.908,6.908,0,0,0-5.06-1.98c-4.21,0-7.83,3.4-7.83,7.36a4.693,4.693,0,0,0,.88,2.9,2.2,2.2,0,0,0,1.51.99c0.99,0,2.56-1.28,3.62-2.93a11.6,11.6,0,0,0,1.8-5.86A6.885,6.885,0,0,0,1927.26,5684.43Zm-0.88.07a0.789,0.789,0,0,1,.03.13,3.907,3.907,0,0,1,.11,1.01,10.585,10.585,0,0,1-1.83,5.38c-0.76,1.19-1.79,2.12-2.35,2.12s-1.04-.93-1.04-2a7.04,7.04,0,0,1,2.13-5.02A6.752,6.752,0,0,1,1926.38,5684.5Zm17.84-1.3a3,3,0,0,0,2.46,2.78,0.144,0.144,0,0,1,.15.14,0.3,0.3,0,0,1-.15.22,7.094,7.094,0,0,0-1.1,1.19,0.09,0.09,0,0,0,.09.09,2.3,2.3,0,0,0,.4-0.18,11.889,11.889,0,0,1,4.43-1.12c0.67-.02.95-0.18,0.95-0.54a2.451,2.451,0,0,0-.27-0.92,1.069,1.069,0,0,0-.9-0.65,3.958,3.958,0,0,0-.81.16,5.94,5.94,0,0,1-1.62.24,4.623,4.623,0,0,1-3.47-1.44,0.14,0.14,0,0,0-.09-0.09,0.075,0.075,0,0,0-.07.09v0.03Zm-0.56,6.77c-0.38,0-.87,1.23-0.87,2.2,0,2.67,2.15,4.12,6.02,4.12a13.844,13.844,0,0,0,3.71-.45,1.056,1.056,0,0,0,.93-1.06,1.118,1.118,0,0,0-1.24-.99,2.437,2.437,0,0,0-.79.18,12.824,12.824,0,0,1-3.42.52,6.264,6.264,0,0,1-3.12-.7,2.942,2.942,0,0,1-1.3-2.59,5.379,5.379,0,0,1,.13-1.08,0.143,0.143,0,0,0,.02-0.07A0.086,0.086,0,0,0,1943.66,5689.97Zm30.15-8.21a1.129,1.129,0,0,0-.85.17,0.207,0.207,0,0,0,.2.16,2.652,2.652,0,0,1,1.46,1.17c0.38,0.63.4,0.63,0.76,0.63a0.688,0.688,0,0,0,.7-0.72C1976.08,5682.47,1974.94,5681.76,1973.81,5681.76Zm-2.11,1.23c-0.47,0-.63.03-0.63,0.16,0,0.07.04,0.11,0.2,0.16a3.266,3.266,0,0,1,1.55,1.53,0.518,0.518,0,0,0,.54.42,0.7,0.7,0,0,0,.7-0.74C1974.06,5683.73,1972.93,5682.99,1971.7,5682.99Zm0.65,11.77c-2.05,0-3.11-.7-3.11-2.08a6.139,6.139,0,0,1,.14-1.18,0.164,0.164,0,0,0,.02-0.09,0.1,0.1,0,0,0-.09-0.1c-0.29,0-.74,1.2-0.74,1.98a2.921,2.921,0,0,0,1.96,2.86,9.06,9.06,0,0,0,3.17.47c1.53,0,2.04-.25,2.04-1.03a1.072,1.072,0,0,0-1.23-1.06Zm-4.86-10.85,0.04-.18,0.03-.22a0.894,0.894,0,0,0,.07-0.16,0.95,0.95,0,0,0,.11-0.34c0-.49-1.08-1.17-1.85-1.17a1.4,1.4,0,0,0-1.1.52,0.106,0.106,0,0,0,.11.07,0.1,0.1,0,0,0,.07-0.02h0.04a1.443,1.443,0,0,1,.45.16,1.3,1.3,0,0,1,.52,1.25,12.04,12.04,0,0,1-.31,2.55,8.829,8.829,0,0,1-2.5.35,1.809,1.809,0,0,1-1.59-.65c-0.1-.2-0.1-0.22-0.18-0.22a0.127,0.127,0,0,0-.09.15,2.9,2.9,0,0,0,.54,1.49,1.678,1.678,0,0,0,1.39.67,9.112,9.112,0,0,0,2.14-.29,25.449,25.449,0,0,1-3.11,7.52,1.347,1.347,0,0,0-.33.72,1.264,1.264,0,0,0,1.19,1.07,1.189,1.189,0,0,0,.81-0.36,3.769,3.769,0,0,0,.7-1.57c0.76-2.34,1.46-4.86,2.17-7.76a14.445,14.445,0,0,0,2.43-1.22,1.139,1.139,0,0,0,.61-0.98,0.387,0.387,0,0,0-.42-0.43,3.266,3.266,0,0,1-1.96-.9Zm-0.14.46a2.707,2.707,0,0,1,.93.94,2.482,2.482,0,0,1-1.29.7l0.21-1.02Zm4.35,3.37a1.37,1.37,0,0,1,1.23.43c0,0.09,0,.09-0.61.49-0.49.34-.74,0.5-0.76,0.52a0.217,0.217,0,0,0-.15.16,0.119,0.119,0,0,0,.11.09,0.672,0.672,0,0,0,.22-0.07,4.677,4.677,0,0,1,1.76-.32,5.34,5.34,0,0,1,1.12.12,2.9,2.9,0,0,0,.32.08,0.5,0.5,0,0,0,.51-0.6c0-1.08-1.14-1.89-2.68-1.89a4.236,4.236,0,0,0-2.18.54,1.7,1.7,0,0,0-.67.74,0.088,0.088,0,0,0,.09.07,0.048,0.048,0,0,0,.05-0.02A3.548,3.548,0,0,1,1971.7,5687.74Zm12.91,3.89a11.773,11.773,0,0,1-1.48,1.66,1.326,1.326,0,0,0-.63,1.04,1.061,1.061,0,0,0,.88,1.24c0.31,0,.43-0.1.67-0.61,0.23-.47.52-0.97,1.17-2.05a11.459,11.459,0,0,1,.68,3.44,1.792,1.792,0,0,0,.08.81,0.4,0.4,0,0,0,.32.18,1.528,1.528,0,0,0,1.42-1.33c0-.11-0.02-0.24-0.03-0.35a26.521,26.521,0,0,1-.44-5.25,1.362,1.362,0,0,1,.58-1.14,6.666,6.666,0,0,1,4.18-2c1.71,0,2.66,1.1,2.66,3.1a5.577,5.577,0,0,1-1.67,4.18,9.294,9.294,0,0,1-2.63,1.62c-0.2.07-.25,0.12-0.25,0.18a0.136,0.136,0,0,0,.14.14,5.729,5.729,0,0,0,.74-0.14,9.986,9.986,0,0,0,3.6-1.73,5.448,5.448,0,0,0,2.09-4.23,3.92,3.92,0,0,0-4.05-4.03c-1.61,0-3.23.77-5.26,2.5a1.349,1.349,0,0,1,.31-0.74c0.1-.14.48-0.61,0.63-0.79a0.943,0.943,0,0,0,.32-0.54,1.178,1.178,0,0,0-.76-0.83,1.073,1.073,0,0,1-.32.05,8.292,8.292,0,0,1,.38-2.09,1.344,1.344,0,0,0,.09-0.39,2.305,2.305,0,0,0-2.02-1.66,1.487,1.487,0,0,0-1.04.27,0.113,0.113,0,0,0,.07.11,0.821,0.821,0,0,1,.63.29c0.45,0.52.59,1.17,0.59,2.72,0,0.39,0,.7-0.01,1.19-1.84,1.02-2.69,1.81-2.69,2.53a2.842,2.842,0,0,0,.45,1.35A9.341,9.341,0,0,1,1984.61,5691.63Zm0.48-.65a6.446,6.446,0,0,0-.29-0.79,2.428,2.428,0,0,1-.3-1.04c0-.49.36-0.78,1.82-1.41,0,0.74,0,.74.02,1.24a2.007,2.007,0,0,1-.26.72Zm0.63,1.7-0.14-.44a13.1,13.1,0,0,1,.86-1.49c0.09,1.76.13,2.74,0.13,2.9a0.506,0.506,0,0,1-.27.56c-0.14,0-.2-0.09-0.27-0.49a2.787,2.787,0,0,0-.14-0.5Zm25.71-6.99c0.9,0,1.46,1.57,1.46,4.09a7.924,7.924,0,0,1-1.73,5.47,10.389,10.389,0,0,1-3.08,2.27c-0.27.12-.29,0.12-0.29,0.21a0.123,0.123,0,0,0,.13.11,0.873,0.873,0,0,0,.23-0.05,2.727,2.727,0,0,1,.4-0.11,11.333,11.333,0,0,0,3-1.44,7.538,7.538,0,0,0,3.23-6.52c0-2.97-1.14-4.95-2.85-4.95-1.22,0-2.32,1.08-3.38,3.35a0.547,0.547,0,0,1-.38.4,0.665,0.665,0,0,1-.22-0.65,7.71,7.71,0,0,1,.99-3.14,3.8,3.8,0,0,0,.65-1.63,2.316,2.316,0,0,0-2.21-1.75,1.107,1.107,0,0,0-.89.27c0,0.05.04,0.09,0.15,0.11a1.094,1.094,0,0,1,.92,1.35,11.125,11.125,0,0,1-.4,2.54,15.105,15.105,0,0,0-.48,3.49c0,2.05.68,3.69,1.53,3.69a0.954,0.954,0,0,0,.81-0.9,1.36,1.36,0,0,0-.08-0.41,5.142,5.142,0,0,1-.18-1.16C2008.76,5688.17,2010.19,5685.69,2011.43,5685.69Zm17.33,13.74a13.206,13.206,0,0,1-1.85-2.42,11.078,11.078,0,0,1-1.5-5.65,11.436,11.436,0,0,1,1.26-5.27,13.011,13.011,0,0,1,2.09-2.94l-0.43-.5a10.689,10.689,0,0,0-4.25,8.75,10.509,10.509,0,0,0,1.64,5.79,10.265,10.265,0,0,0,2.61,2.74Zm6.23-2.06c0,0.51.05,0.58,0.41,0.58a1.58,1.58,0,0,0,.69-0.16,0.513,0.513,0,0,0,.34-0.58v-9.74l0.39-.23a0.436,0.436,0,0,0,.24-0.36,0.386,0.386,0,0,0-.38-0.36l-0.25-.06a17.689,17.689,0,0,0,1.04-3.26l0.36-.09a0.428,0.428,0,0,0,.4-0.41,0.5,0.5,0,0,0-.32-0.43l-1.9-.81a25.086,25.086,0,0,1-3.25,9.9,0.977,0.977,0,0,0-.26.47,0.163,0.163,0,0,0,.15.16,10.317,10.317,0,0,0,2.34-2.92v8.3Zm6.46-9.61a13.559,13.559,0,0,0,1.75,5.65,12.983,12.983,0,0,1-5.01,4.11,0.289,0.289,0,0,0-.23.23,0.158,0.158,0,0,0,.16.16,12.235,12.235,0,0,0,2.45-.97,12.024,12.024,0,0,0,3.4-2.36,14.441,14.441,0,0,0,3.69,3.24,3.385,3.385,0,0,1,1.73-1.65,14.047,14.047,0,0,1-4.5-2.72,16.84,16.84,0,0,0,2.23-4.77l0.31-.06c0.36-.09.49-0.18,0.49-0.41a0.914,0.914,0,0,0-.22-0.49l-1.49-1.58-0.76,1.13h-5.04v-3.6h8.06c0.35,0,.49-0.07.49-0.27a0.6,0.6,0,0,0-.22-0.36l-1.47-1.26-1.23,1.41h-5.33l-2.05-.92c0.11,2.77.13,3.29,0.13,4.28,0,2.18-.04,3.64-0.09,4.54a15.577,15.577,0,0,1-1.15,5.29,8.911,8.911,0,0,0-.62,1.35,0.14,0.14,0,0,0,.13.13,7.758,7.758,0,0,0,1.98-2.56c0.86-1.67,1.24-3.78,1.33-7.54h1.08Zm4.04,0a16.639,16.639,0,0,1-1.61,4.48,11.892,11.892,0,0,1-1.92-4.48h3.53Zm8,12.17a11.362,11.362,0,0,0,2.29-2.27,10.432,10.432,0,0,0,1.96-6.26,10.689,10.689,0,0,0-4.25-8.75l-0.43.5a14.934,14.934,0,0,1,1.82,2.43,11.512,11.512,0,0,1,1.53,5.78,11.263,11.263,0,0,1-1.24,5.2,12,12,0,0,1-2.11,2.87Z" transform="translate(-1898.75 -5681.34)"/>
</svg>
