<svg xmlns="http://www.w3.org/2000/svg" width="234.74" height="33.36" viewBox="0 0 117.37 16.68">
  <defs>
    <style>
      .cls-1 {
        fill: #a38737;
        fill-rule: evenodd;
      }
    </style>
  </defs>
  <path id="器のこだわり" class="cls-1" d="M1905.17,4494.36h2.18v0.63c0,0.13.09,0.18,0.33,0.18a1.326,1.326,0,0,0,1.29-.45v-3.8l0.29-.16a0.38,0.38,0,0,0,.22-0.32,0.5,0.5,0,0,0-.18-0.36l-1.26-1.3-0.74,1.01h-1.91a19.324,19.324,0,0,0,3.62-2.81h2.7a13.2,13.2,0,0,0,3.12,2.81h-2.44l-1.8-.9v6.46a0.21,0.21,0,0,0,.26.22,1.477,1.477,0,0,0,1.35-.51v-0.7h2.45v0.63c0,0.13.1,0.18,0.34,0.18a2.987,2.987,0,0,0,1.02-.18,0.382,0.382,0,0,0,.31-0.41v-3.87c0.74,0.36.83,0.41,1.22,0.57a3.734,3.734,0,0,1,1.34-1.78,14.373,14.373,0,0,1-6.58-2.52h6.18a0.257,0.257,0,0,0,.31-0.25,0.466,0.466,0,0,0-.22-0.35l-1.55-1.29-1.31,1.4h-6.21c0.28-.3.34-0.36,0.64-0.68l0.49-.16a0.429,0.429,0,0,0,.36-0.35,0.353,0.353,0,0,0-.25-0.3l-1.64-.78v-3.02l0.38-.2a0.364,0.364,0,0,0,.21-0.32,0.447,0.447,0,0,0-.19-0.35l-1.46-1.38-0.61.99h-2.29l-1.77-.94v6.29c0,0.23.11,0.32,0.42,0.32a1.174,1.174,0,0,0,1.19-.54v-1.08h2.5v0.77c0,0.15.11,0.2,0.36,0.2a2.9,2.9,0,0,0,.81-0.12,9.9,9.9,0,0,1-1.26,1.65h-2.16c-0.94,0-1.68-.02-3.55-0.09l0.4,0.67c1.53-.07,2.09-0.09,3.15-0.09h1.76a21.85,21.85,0,0,1-4.73,3.89,1.345,1.345,0,0,0-.6.45,0.236,0.236,0,0,0,.2.18,6.159,6.159,0,0,0,1.68-.69v4.51c0,0.19.09,0.27,0.34,0.27,0.77,0,1.29-.18,1.29-0.47v-0.76Zm0-4.09h2.18v3.6h-2.18v-3.6Zm-0.19-6.77v-3.08h2.5v3.08h-2.5Zm7.22,10.37v-3.6h2.45v3.6h-2.45Zm0.39-9.88h2.52v0.81c0,0.18.09,0.25,0.35,0.25a1.2,1.2,0,0,0,1.29-.56v-3.26l0.33-.21a0.428,0.428,0,0,0,.25-0.33,0.6,0.6,0,0,0-.24-0.36l-1.51-1.42-0.59,1.03h-2.13l-1.87-.92v5.92c0,0.22.07,0.29,0.32,0.29a3.283,3.283,0,0,0,.96-0.18,0.356,0.356,0,0,0,.32-0.41v-0.65Zm0-.49v-3.08h2.52v3.08h-2.52Zm18.92-1.51a3.534,3.534,0,0,1,.38-0.02,4.3,4.3,0,0,1,1.85.44c1.57,0.79,2.38,2.43,2.38,4.84a6.155,6.155,0,0,1-2.31,5.13,9.52,9.52,0,0,1-3.22,1.67c-0.29.09-.34,0.11-0.34,0.2,0,0.07.07,0.11,0.18,0.11a6.909,6.909,0,0,0,1.15-.22,10.817,10.817,0,0,0,3.33-1.22,6.64,6.64,0,0,0,3.33-5.76,5.409,5.409,0,0,0-1.42-3.8,6.948,6.948,0,0,0-5.06-1.98c-4.21,0-7.83,3.4-7.83,7.36a4.673,4.673,0,0,0,.88,2.9,2.164,2.164,0,0,0,1.51.99c0.99,0,2.56-1.28,3.62-2.93a11.57,11.57,0,0,0,1.8-5.85A6.908,6.908,0,0,0,1931.51,4481.99Zm-0.88.07a1.115,1.115,0,0,1,.03.13,3.907,3.907,0,0,1,.11,1.01,10.585,10.585,0,0,1-1.83,5.38c-0.76,1.19-1.79,2.13-2.35,2.13s-1.04-.94-1.04-2a7.045,7.045,0,0,1,2.13-5.03A6.752,6.752,0,0,1,1930.63,4482.06Zm17.84-1.29a2.991,2.991,0,0,0,2.46,2.77,0.144,0.144,0,0,1,.15.14,0.284,0.284,0,0,1-.15.22,7.094,7.094,0,0,0-1.1,1.19,0.09,0.09,0,0,0,.09.09,2.3,2.3,0,0,0,.4-0.18,11.889,11.889,0,0,1,4.43-1.12c0.67-.02.95-0.18,0.95-0.54a2.5,2.5,0,0,0-.27-0.92,1.076,1.076,0,0,0-.9-0.64,3.265,3.265,0,0,0-.81.16,6.305,6.305,0,0,1-1.62.23,4.587,4.587,0,0,1-3.47-1.44,0.14,0.14,0,0,0-.09-0.09,0.081,0.081,0,0,0-.07.09v0.04Zm-0.56,6.77c-0.38,0-.87,1.22-0.87,2.19,0,2.67,2.15,4.13,6.02,4.13a13.844,13.844,0,0,0,3.71-.45,1.072,1.072,0,0,0,.93-1.07,1.125,1.125,0,0,0-1.24-.99,2.437,2.437,0,0,0-.79.18,12.821,12.821,0,0,1-3.42.53,6.153,6.153,0,0,1-3.12-.71,2.931,2.931,0,0,1-1.3-2.59,5.479,5.479,0,0,1,.13-1.08,0.123,0.123,0,0,0,.02-0.07A0.075,0.075,0,0,0,1947.91,4487.54Zm30.15-8.21a1.152,1.152,0,0,0-.85.16,0.207,0.207,0,0,0,.2.16,2.7,2.7,0,0,1,1.46,1.17c0.38,0.63.4,0.63,0.76,0.63a0.688,0.688,0,0,0,.7-0.72C1980.33,4480.03,1979.19,4479.33,1978.06,4479.33Zm-2.11,1.22c-0.47,0-.63.04-0.63,0.16,0,0.07.04,0.11,0.2,0.16a3.336,3.336,0,0,1,1.55,1.54,0.519,0.519,0,0,0,.54.41,0.7,0.7,0,0,0,.7-0.74C1978.31,4481.29,1977.18,4480.55,1975.95,4480.55Zm0.65,11.78c-2.05,0-3.11-.71-3.11-2.09a5.959,5.959,0,0,1,.14-1.17,0.183,0.183,0,0,0,.02-0.09,0.1,0.1,0,0,0-.09-0.11c-0.29,0-.74,1.21-0.74,1.98a2.921,2.921,0,0,0,1.96,2.86,9.06,9.06,0,0,0,3.17.47c1.53,0,2.04-.25,2.04-1.03a1.077,1.077,0,0,0-1.23-1.06Zm-4.86-10.86,0.04-.18,0.03-.22a0.894,0.894,0,0,0,.07-0.16,0.95,0.95,0,0,0,.11-0.34c0-.49-1.08-1.17-1.85-1.17a1.4,1.4,0,0,0-1.1.52,0.1,0.1,0,0,0,.11.07,0.1,0.1,0,0,0,.07-0.02h0.04a1.179,1.179,0,0,1,.97,1.41,12.128,12.128,0,0,1-.31,2.56,9.192,9.192,0,0,1-2.5.34,1.809,1.809,0,0,1-1.59-.65c-0.1-.2-0.1-0.22-0.18-0.22a0.127,0.127,0,0,0-.09.15,2.9,2.9,0,0,0,.54,1.49,1.678,1.678,0,0,0,1.39.67,8.611,8.611,0,0,0,2.14-.29,25.4,25.4,0,0,1-3.11,7.53,1.289,1.289,0,0,0-.33.72,1.264,1.264,0,0,0,1.19,1.06,1.189,1.189,0,0,0,.81-0.36,3.769,3.769,0,0,0,.7-1.57c0.76-2.34,1.46-4.86,2.17-7.76a13.73,13.73,0,0,0,2.43-1.22,1.137,1.137,0,0,0,.61-0.97,0.394,0.394,0,0,0-.42-0.44,3.266,3.266,0,0,1-1.96-.9Zm-0.14.47a2.711,2.711,0,0,1,.93.93,2.542,2.542,0,0,1-1.29.71l0.21-1.03Zm4.35,3.36a1.342,1.342,0,0,1,1.23.44c0,0.09,0,.09-0.61.48-0.49.34-.74,0.51-0.76,0.52a0.213,0.213,0,0,0-.15.17,0.132,0.132,0,0,0,.11.09,0.61,0.61,0,0,0,.22-0.08,4.957,4.957,0,0,1,2.88-.19c0.23,0.05.29,0.07,0.32,0.07a0.5,0.5,0,0,0,.51-0.6c0-1.08-1.14-1.89-2.68-1.89a4.236,4.236,0,0,0-2.18.54,1.7,1.7,0,0,0-.67.74,0.088,0.088,0,0,0,.09.07,0.075,0.075,0,0,0,.05-0.01A3.431,3.431,0,0,1,1975.95,4485.3Zm12.91,3.89a11.773,11.773,0,0,1-1.48,1.66,1.326,1.326,0,0,0-.63,1.04,1.072,1.072,0,0,0,.88,1.25c0.31,0,.43-0.11.67-0.62,0.23-.46.52-0.97,1.17-2.05a11.517,11.517,0,0,1,.68,3.44,1.792,1.792,0,0,0,.08.81,0.4,0.4,0,0,0,.32.18,1.519,1.519,0,0,0,1.42-1.33c0-.11-0.02-0.24-0.03-0.34a26.7,26.7,0,0,1-.44-5.26,1.362,1.362,0,0,1,.58-1.14,6.648,6.648,0,0,1,4.18-1.99c1.71,0,2.66,1.09,2.66,3.09a5.577,5.577,0,0,1-1.67,4.18,9.294,9.294,0,0,1-2.63,1.62c-0.2.07-.25,0.13-0.25,0.18a0.136,0.136,0,0,0,.14.14,5.729,5.729,0,0,0,.74-0.14,9.825,9.825,0,0,0,3.6-1.73,5.433,5.433,0,0,0,2.09-4.23,3.92,3.92,0,0,0-4.05-4.03c-1.61,0-3.23.77-5.26,2.5a1.349,1.349,0,0,1,.31-0.74c0.1-.14.48-0.61,0.63-0.79a0.915,0.915,0,0,0,.32-0.54,1.178,1.178,0,0,0-.76-0.83,1.516,1.516,0,0,1-.32.06,8.126,8.126,0,0,1,.38-2.09,1.454,1.454,0,0,0,.09-0.4,2.305,2.305,0,0,0-2.02-1.66,1.487,1.487,0,0,0-1.04.27,0.113,0.113,0,0,0,.07.11,0.821,0.821,0,0,1,.63.29c0.45,0.52.59,1.17,0.59,2.72,0,0.4,0,.7-0.01,1.19-1.84,1.02-2.69,1.82-2.69,2.54a2.842,2.842,0,0,0,.45,1.35A9.288,9.288,0,0,1,1988.86,4489.19Zm0.48-.64a7.222,7.222,0,0,0-.29-0.8,2.428,2.428,0,0,1-.3-1.04c0-.49.36-0.78,1.82-1.41,0,0.74,0,.74.02,1.25a2.077,2.077,0,0,1-.26.72Zm0.63,1.69-0.14-.43a12.84,12.84,0,0,1,.86-1.5c0.09,1.77.13,2.74,0.13,2.9a0.506,0.506,0,0,1-.27.56c-0.14,0-.2-0.09-0.27-0.49a3.329,3.329,0,0,0-.14-0.5Zm25.71-6.99c0.9,0,1.46,1.57,1.46,4.09a7.924,7.924,0,0,1-1.73,5.47,10.389,10.389,0,0,1-3.08,2.27c-0.27.13-.29,0.13-0.29,0.22a0.131,0.131,0,0,0,.13.11,0.648,0.648,0,0,0,.23-0.06c0.04-.02.18-0.05,0.4-0.11a11.032,11.032,0,0,0,3-1.44,7.538,7.538,0,0,0,3.23-6.52c0-2.97-1.14-4.95-2.85-4.95-1.22,0-2.32,1.08-3.38,3.35a0.547,0.547,0,0,1-.38.4,0.665,0.665,0,0,1-.22-0.65,7.675,7.675,0,0,1,.99-3.13,3.861,3.861,0,0,0,.65-1.64,2.316,2.316,0,0,0-2.21-1.75,1.146,1.146,0,0,0-.89.27c0,0.06.04,0.09,0.15,0.11a1.094,1.094,0,0,1,.92,1.35,11.125,11.125,0,0,1-.4,2.54,15.105,15.105,0,0,0-.48,3.49c0,2.06.68,3.69,1.53,3.69a0.945,0.945,0,0,0,.81-0.9,1.36,1.36,0,0,0-.08-0.41,5.071,5.071,0,0,1-.18-1.15C2013.01,4485.74,2014.44,4483.25,2015.68,4483.25Z" transform="translate(-1901.66 -4478.91)"/>
</svg>
