<svg id="Layer_1" data-name="Layer 1" xmlns="http://www.w3.org/2000/svg" viewBox="0 0 974 68"><title>tsubasa-comparison</title><path d="M974,62v6H923c.25-3,.87-6,.66-8.9-.32-4.3,1.46-5.63,5.48-5.34,3.36.25,6.76.05,10.23.05-.15-1.44-.08-1.84-.24-2.08a10.61,10.61,0,0,0-1.3-1.47c-4.47-4.33-4.2-6.65-.28-11.23s7.16-9.78,11.06-15.22L942.84,21c-1.11,3.27-1.87,6-3,8.58-1,2.36-2.32,4.57-3.5,6.84-1.46-1.37-1.72-2.15-1.76-2.95a23.09,23.09,0,0,1,.07-4c.95-7.14.42-7.6-6.31-5.93-1.15.29-3.24.14-3.63-.54a6.81,6.81,0,0,1-.58-4.62c.2-.81,1.94-1.65,3-1.74a74.64,74.64,0,0,1,7.47.17c12.11.26,24.23.53,36.34.74.38,0,.78-.53,1.16-.81-3.38-5.48-4.33-5.52-9.21-2.44a8.75,8.75,0,0,1-6.45.88c-1-.3-1.81-3.27-1.78-5,0-2.34,1-4.66,1.49-7C950.69,1.13,950,1.55,950,7.07c0,1.84.28,3.75-.16,5.47-.3,1.19-1.71,3.06-2.47,3-3.66-.37-7.57-.66-10.79-2.22-2.57-1.26-4-2.12-6.45.09-1.06,1-3.42,1.12-5,.74-.74-.19-1.4-2.53-1.29-3.82a49.76,49.76,0,0,1,1.52-7.06c-4.69-2.22-5.84-1.63-6,3.28a22.94,22.94,0,0,0,0,3c.39,3.91-1.42,5.49-5.24,5.36a60.86,60.86,0,0,0-6.31.38c.06.6.11,1.2.17,1.8a51.32,51.32,0,0,1,7.51-.4A4.92,4.92,0,0,1,919,18.79a3.79,3.79,0,0,1-.31,3.65c-.86.79-2.63.89-4,.78s-2.61-.84-4.71-1.59c0,8.38-.05,15.84.08,23.31,0,.91,1,1.8,1.56,2.7a22.38,22.38,0,0,1,2.51-1.87c1.17-.63,2.51-1.57,3.63-1.41.69.11,1.46,2,1.57,3.16.36,3.67-1.85,4.49-5,4.22-2.19-.18-4.41,0-6.62,0V53.4c2.39.14,4.79.47,7.18.38,3.47-.12,4.72,1.39,4.63,4.8-.09,3.13.35,6.28.56,9.42H0V0H974V60c-5.58-2.79-11.2-5.52-16.71-8.45-.84-.45-1.89-2.24-1.61-2.8,2.63-5.33,3.55-11.78,9.35-15.59a13.61,13.61,0,0,0,1.71,2.19c1.37,1.07,2.84,2,4.26,3,.25-2,1.31-4.33.61-5.9-2.75-6.23-8.3-9.23-13.93-11.92l-1,1.06,7.4,8.69-.27,1.8c-5.91-4.48-6.45-.46-7.61,3.12-1,3.11-2.51,6.07-3.8,9.1l-1.59-.23-4.6-10.74-1.51.53c.7,3,.75,6.37,2.24,8.91,3.46,5.89,1.52,9.95-3.21,13.7-3.28,2.6-6.4,5.38-9.59,8.08.31.42.61.85.92,1.28,3.43-2.09,7.06-3.92,10.26-6.33,7.08-5.35,7-5.47,13.72.29s7.56,5.87,14.43,2.15C973.63,61.88,973.83,62,974,62Zm-205.55-.78.48,1.45a108.25,108.25,0,0,0,10.45-3.08,26,26,0,0,0,16.27-27.54c-1.29-10-8.93-16.93-20.54-18.55-18.85-2.65-35.73,13.65-32.85,31.8.71,4.46,2.63,9.19,7.16,9.82,3.12.44,7.55-1.63,10-4,8.47-8.4,13.39-18.59,11.85-30.94-.5-4,1.18-4.61,4.53-3.9A16.66,16.66,0,0,1,789.21,30c2,12-3.68,23.05-14.71,28.46C772.51,59.41,770.47,60.29,768.45,61.22ZM170.74,61l.38,1.25c6.55-.22,12.3-3,17.46-6.82,11.83-8.82,12.7-28,1.85-36.7-8.22-6.57-21.56-7.27-31.59-1.67C148.49,22.87,142.28,34,144.57,44.94a17.29,17.29,0,0,0,6.94,10.13c3.74,2.33,7.46-1.2,10.28-4.11,8.37-8.65,13.17-18.74,11.66-31.07-.41-3.33.74-4.37,3.81-3.75,6.08,1.22,10.77,4.2,13.14,10.23,4.54,11.53-1.27,25.93-12.9,31.7C175.3,59.16,173,60.05,170.74,61ZM865.44,5.68c-5.45-2.74-8-2.23-8,1.66-.09,17,0,33.93.11,50.89,0,3.79,2.1,5.78,6,5.77,4.65,0,9.31.06,14,0,7.69-.06,7.76-.2,6.66-7.65a17.77,17.77,0,0,1,.32-3.44c.06-1.32,0-2.64,0-4l-1.33-.15c-.4,1-.89,1.93-1.21,2.93-2.22,7-2.94,7.58-10.16,7.62-1.16,0-2.33-.08-3.49,0-4,.29-5.87-1.36-5.73-5.5.16-5,.2-10,0-15-.15-3.33,1.3-5.19,4.08-6.67,5.82-3.1,11.54-6.4,17.3-9.61-2.64-5.85-4.55-6.34-8.73-2.21-2,2-3.92,4.08-6,5.95-1.61,1.42-3.45,2.57-5.46,4C861.52,22.55,862.43,10.69,865.44,5.68ZM8.41,56.61,7.79,55.1c2.25-2.78,4.34-5.72,6.79-8.32,4.22-4.49,8.77-8.67,13-13.15,6-6.42,6-16.16.17-21C21.43,7.45,10.85,8.57,6,15.59,4.36,18,4.11,21.75,4.28,24.83c.06,1,3.42,1.88,5.27,2.82.73-1.81,1.56-3.6,2.13-5.46.15-.47-.42-1.23-.8-1.77-2.27-3.2-1-5.74,2.16-6.64,2.58-.74,6.76-1.19,8.12.24,2.23,2.33,4.15,6.54,3.64,9.53-.76,4.51-3.18,9-5.87,12.86C14.08,43.35,8.34,49.67,3.32,56.5.62,60.19,1.67,61.93,6.17,62c6.16.1,12.32.05,18.49,0,5.6,0,9.87-7.36,7.8-12.37C29,51.94,25.8,55.27,21.94,56.34,17.73,57.52,13,56.61,8.41,56.61Zm72.79-.38c11.11,2,27.48-5.54,32-14,4.82-9,1.36-20.22-7.88-23.36-4.4-1.49-9.74-2.42-14.11-1.36-8,1.92-15.7,5.17-23.23,8.54-4.59,2-8.62,4.67-13.59,0,.83,3.11,1.88,6,3.89,7.76,2.87,2.55,6.17,1.73,9-.75C74.25,27,81.91,22.43,91,20.56c5.69-1.18,11.14-.8,15,4.22,3.68,4.84,3.58,10.18,1,15.55-3,6.08-8.16,9.53-14.17,11.93C89.27,53.64,85.7,54.69,81.2,56.23ZM838.53,7.09C831.67,3.13,830,4,830,11c0,12.66-.25,25.33.12,38,.16,5.63-.38,9.88-7.16,10.29-.17,0-.31.53-.65,1.13,2.18,1.73,2.28,6.6,7.08,4.46,3.61-1.6,7.09-3.48,10.7-5.08,4.72-2.09,9.52-4,14.28-6l-.52-1.47c-4.28,1-8.57,2-12.83,3.11-4.92,1.27-5.69.79-5.75-4.14-.07-5.16.2-10.34-.09-15.49-.24-4.44,1.5-5.94,5.83-5.67,4.7.3,9.42.07,15,.07-4.49-6.58-5.16-6.75-9.61-3.4-3.9,2.94-11.11,1.78-11-1.89C835.59,18.82,833,12.2,838.53,7.09ZM403.82,59.59l.08.82a14.24,14.24,0,0,0,2.71-.19c12.76-3.38,23.71-9.65,31.39-20.64,4.05-5.82,7.56-12,11.35-18.11-3.4-5.09-6-6.39-9.76-5.3-10.31,3-20.71,5.29-31.49,2.5-.12,5.08,2.34,7,7.34,5.93,6.35-1.3,12.71-2.55,19.11-3.49,5.37-.79,6.54.83,4.44,5.73A52.11,52.11,0,0,1,419.3,50.72C414.31,54,409,56.65,403.82,59.59ZM597.74,30.71a48.64,48.64,0,0,1,.48,6c-.48,7.12-1,14.25-1.68,21.35-.28,2.9.29,5.23,3.37,5.62,3.61.46,3.25-2.49,3.29-4.78.16-8.77.29-17.55.33-26.32,0-.86-1-1.69-1.06-2.57-.11-1.62-.47-3.73.35-4.82,2.29-3,5.26-5.54,7.7-8.47.76-.92,1.42-3,.91-3.72-2.1-2.77-4.77-4.9-7-4.15-1.17,4.06-1.32,7.21-2.86,9.37a85.13,85.13,0,0,1-10.72,12.42C584.67,36.5,578,41.9,570.59,48.36,581.72,45.07,589,37.85,597.74,30.71ZM493.62,61.24c7.92-.1,14.38-4,20.56-8.45,7.63-5.5,12.54-13.19,16.78-21.37.91-1.76,2.38-4.48,1.7-5.59-1.77-2.89-4.48-4-8.52-3-10.7,2.63-21.57,5-32.69,2.23.44,5.61,3.55,7.48,9,6.14,6.43-1.6,13-2.88,19.51-3.88,4.92-.75,6.56,1.38,3.76,5.64a103.17,103.17,0,0,1-14.4,18.16C504.88,55.38,498.9,57.94,493.62,61.24ZM284.51,19.76l-1.74-1.16c-1,1.21-2.1,2.37-3,3.63C271.56,33,261.41,41.5,250.18,48.78c-4.9,3.17-10,6.39-15.94,1.06-1.36,4.61,1.31,6.9,3.9,8.69a6.15,6.15,0,0,0,5.34.32c13-7,24.5-16,33.62-27.74C279.87,27.56,282.06,23.56,284.51,19.76ZM712.4,18.27l-2.69-2.47c-.77,1.44-1.21,3.26-2.37,4.26-9.73,8.5-19.41,17.08-29.52,25.12-4,3.21-8.79,7.19-14.62,1.48-1.09,4.57,1,7.14,3.78,8.49a7.25,7.25,0,0,0,6.25-.48c9-6.71,18.16-13.4,26.53-20.9C704.67,29.37,708.23,23.48,712.4,18.27Zm-390,45.87.45,1.07c.46.05,1,.28,1.39.14a74.16,74.16,0,0,0,7.46-2.8c12.87-6.12,21.71-16.23,27.91-28.81.77-1.55,1.66-4,1-5.11-1.58-2.43-3.65-5.24-6.23-4.42-.63,4.19-.55,7.65-1.71,10.63-4.58,11.89-13.49,19.93-24.37,26ZM527.91,13.66c-4.34-4.48-5.29-4.81-9.41-3.67-7,1.93-14,3.64-21.76,2.32,1.8,2.08,4.05,4.7,6.11,4.56C510.84,16.33,518.78,14.91,527.91,13.66ZM453.5,4a7,7,0,0,0-7.22,6.74,7.12,7.12,0,1,0,14.23.29A7.2,7.2,0,0,0,453.5,4ZM238.93,14.48c3.37,2.94,6.37,5.39,9.15,8.07,1.58,1.54,2.91,4.78,5.2,2.22,1.08-1.21.65-5.47-.66-6.8C249,14.34,244.22,13.33,238.93,14.48Zm424.22,1.73c3.41,3.16,6.34,6.17,9.59,8.78,1.38,1.1,3.42,1.38,5.16,2-.12-2.06.54-4.74-.5-6.08C673.86,16.39,668.8,15.31,663.15,16.21ZM232.54,28.32c2.56,2.67,5,5.51,7.75,8,1.12,1,3,1.06,4.57,1.55.17-1.67,1-3.62.41-5C243.59,29,237,26.85,232.54,28.32Zm87.9,1.94c2.39,3.65,4.07,6.63,6.18,9.28.92,1.15,2.69,1.63,4.08,2.42.26-1.67,1.29-3.76.64-4.92C329.19,33.16,325.67,30.9,320.44,30.26Zm12.11-5.36c2.08,3.7,3.65,6.74,5.48,9.62a16.46,16.46,0,0,0,3.09,2.83c.56-1.56,1.94-3.38,1.54-4.63C341.26,28.37,338.18,25.6,332.55,24.9Zm-54-20.55-.16,1.19a62.75,62.75,0,0,0,5.06,5.93c.94.88,2.56,1,3.88,1.5-.09-1.62.43-4.15-.38-4.7C284.4,6.56,281.37,5.6,278.53,4.35ZM270.8,8.29A74,74,0,0,0,275.85,15c.62.67,2.26.4,3.43.56,0-1.22.53-2.85-.06-3.58C276.8,9,273.65,7.57,270.8,8.29Z" fill="#fff"/><path d="M920,68c-.21-3.14-.65-6.29-.56-9.42.09-3.41-1.16-4.92-4.63-4.8-2.39.09-4.79-.24-7.18-.38V51.71c2.21,0,4.43-.15,6.62,0,3.2.27,5.41-.55,5-4.22-.11-1.16-.88-3.05-1.57-3.16-1.12-.16-2.46.78-3.63,1.41a22.38,22.38,0,0,0-2.51,1.87c-.55-.9-1.55-1.79-1.56-2.7C909.91,37.47,910,30,910,21.63c2.1.75,3.38,1.48,4.71,1.59s3.11,0,4-.78a3.79,3.79,0,0,0,.31-3.65,4.92,4.92,0,0,0-3.43-2.13,51.32,51.32,0,0,0-7.51.4c-.06-.6-.11-1.2-.17-1.8a60.86,60.86,0,0,1,6.31-.38c3.82.13,5.63-1.45,5.24-5.36a22.94,22.94,0,0,1,0-3c.14-4.91,1.29-5.5,6-3.28a49.76,49.76,0,0,0-1.52,7.06c-.11,1.29.55,3.63,1.29,3.82,1.54.38,3.9.24,5-.74,2.42-2.21,3.88-1.35,6.45-.09,3.22,1.56,7.13,1.85,10.79,2.22.76.08,2.17-1.79,2.47-3,.44-1.72.14-3.63.16-5.47.07-5.52.73-5.94,6.28-3.89-.54,2.32-1.46,4.64-1.49,7,0,1.75.75,4.72,1.78,5A8.75,8.75,0,0,0,963,14.3c4.88-3.08,5.83-3,9.21,2.44-.38.28-.78.82-1.16.81-12.11-.21-24.23-.48-36.34-.74a74.64,74.64,0,0,0-7.47-.17c-1.1.09-2.84.93-3,1.74a6.81,6.81,0,0,0,.58,4.62c.39.68,2.48.83,3.63.54,6.73-1.67,7.26-1.21,6.31,5.93a23.09,23.09,0,0,0-.07,4c0,.8.3,1.58,1.76,2.95,1.18-2.27,2.51-4.48,3.5-6.84,1.08-2.58,1.84-5.31,3-8.58l5.77,2.82c-3.9,5.44-7.12,10.64-11.06,15.22s-4.19,6.9.28,11.23a10.61,10.61,0,0,1,1.3,1.47c.16.24.09.64.24,2.08-3.47,0-6.87.2-10.23-.05-4-.29-5.8,1-5.48,5.34.21,2.93-.41,5.93-.66,8.9Zm12.85-18.44c-2.54-2.72-3.24-8-8.11-4.9-1,.63-1.31,4.7-.36,5.75C926.85,53.12,929.89,52.12,932.85,49.56Zm-5.24-15.7-1.94.13c-.63,1.56-1.91,3.22-1.7,4.66.18,1.19,2.11,2.12,3.27,3.16,1-1.37,2.63-2.67,2.78-4.13C930.15,36.5,928.48,35.14,927.61,33.86Zm4.55-5c-2.62-1.53-4-3-5.14-2.82s-3.25,2.29-3,3a5.64,5.64,0,0,0,3.35,3.45C928.22,32.76,929.68,30.85,932.16,28.89Zm-15.37-4.76c-1.43,2.67-2.62,3.91-2.59,5.12s1.38,2.17,2.15,3.25c1-1,2.62-1.94,2.84-3.12S918.13,26.88,916.79,24.13Zm-.61,19.07c1.6-2.2,3.11-3.37,3-4.26-.25-1.45-1.58-2.72-2.45-4.07-.87,1-2.33,2-2.45,3.06S915.14,40.57,916.18,43.2Z"/><path d="M974,62c-.17,0-.37-.12-.49,0-6.87,3.72-7.72,3.59-14.43-2.15s-6.64-5.64-13.72-.29c-3.2,2.41-6.83,4.24-10.26,6.33-.31-.43-.61-.86-.92-1.28,3.19-2.7,6.31-5.48,9.59-8.08,4.73-3.75,6.67-7.81,3.21-13.7-1.49-2.54-1.54-5.91-2.24-8.91l1.51-.53,4.6,10.74,1.59.23c1.29-3,2.79-6,3.8-9.1,1.16-3.58,1.7-7.6,7.61-3.12l.27-1.8-7.4-8.69,1-1.06c5.63,2.69,11.18,5.69,13.93,11.92.7,1.57-.36,3.91-.61,5.9-1.42-1-2.89-1.94-4.26-3A13.61,13.61,0,0,1,965,33.16c-5.8,3.81-6.72,10.26-9.35,15.59-.28.56.77,2.35,1.61,2.8C962.8,54.48,968.42,57.21,974,60Z"/><path d="M768.45,61.22c2-.93,4.06-1.81,6-2.78C785.53,53,791.25,42,789.21,30a16.66,16.66,0,0,0-13.45-13.72c-3.35-.71-5-.14-4.53,3.9,1.54,12.35-3.38,22.54-11.85,30.94-2.41,2.39-6.84,4.46-10,4-4.53-.63-6.45-5.36-7.16-9.82-2.88-18.15,14-34.45,32.85-31.8,11.61,1.62,19.25,8.52,20.54,18.55a26,26,0,0,1-16.27,27.54,108.25,108.25,0,0,1-10.45,3.08ZM746.53,41.15A34.1,34.1,0,0,0,747,44.9c1.44,6.09,4.43,7,9,2.8,7.18-6.64,10.82-15.1,12.15-24.53.85-6-1.4-7.53-6.78-4.87C752,22.92,747.33,30.67,746.53,41.15Z"/><path d="M170.74,61c2.26-1,4.56-1.87,6.76-3,11.63-5.77,17.44-20.17,12.9-31.7-2.37-6-7.06-9-13.14-10.23-3.07-.62-4.22.42-3.81,3.75C175,32.22,170.16,42.31,161.79,51c-2.82,2.91-6.54,6.44-10.28,4.11a17.29,17.29,0,0,1-6.94-10.13c-2.29-10.91,3.92-22.07,14.27-27.85,10-5.6,23.37-4.9,31.59,1.67,10.85,8.66,10,27.88-1.85,36.7-5.16,3.85-10.91,6.6-17.46,6.82ZM147.83,42c1.6,2.71,2.67,6.28,5,7.77,1.16.73,5.3-1.91,7.14-3.9a38.43,38.43,0,0,0,10.41-24.25c.26-4.39-1.42-5.39-5.49-3.85C155.58,21.3,148.72,31.33,147.83,42Z"/><path d="M865.44,5.68c-3,5-3.92,16.87-1.72,24.75,2-1.47,3.85-2.62,5.46-4,2.11-1.87,4-4,6-5.95,4.18-4.13,6.09-3.64,8.73,2.21-5.76,3.21-11.48,6.51-17.3,9.61-2.78,1.48-4.23,3.34-4.08,6.67.23,5,.19,10,0,15-.14,4.14,1.75,5.79,5.73,5.5,1.16-.09,2.33,0,3.49,0,7.22,0,7.94-.6,10.16-7.62.32-1,.81-1.95,1.21-2.93l1.33.15c0,1.32,0,2.64,0,4a17.77,17.77,0,0,0-.32,3.44c1.1,7.45,1,7.59-6.66,7.65-4.66,0-9.32,0-14,0-3.89,0-6-2-6-5.77-.11-17-.2-33.93-.11-50.89C857.47,3.45,860,2.94,865.44,5.68Z"/><path d="M8.41,56.61c4.54,0,9.32.91,13.53-.27,3.86-1.07,7.09-4.4,10.52-6.68,2.07,5-2.2,12.35-7.8,12.37-6.17,0-12.33.08-18.49,0-4.5-.08-5.55-1.82-2.85-5.51,5-6.83,10.76-13.15,15.61-20.09,2.69-3.84,5.11-8.35,5.87-12.86.51-3-1.41-7.2-3.64-9.53-1.36-1.43-5.54-1-8.12-.24-3.14.9-4.43,3.44-2.16,6.64.38.54.95,1.3.8,1.77-.57,1.86-1.4,3.65-2.13,5.46-1.85-.94-5.21-1.79-5.27-2.82C4.11,21.75,4.36,18,6,15.59c4.83-7,15.41-8.14,21.72-2.94,5.86,4.82,5.87,14.56-.17,21-4.22,4.48-8.77,8.66-13,13.15-2.45,2.6-4.54,5.54-6.79,8.32Z"/><path d="M81.2,56.23c4.5-1.54,8.07-2.59,11.52-4,6-2.4,11.21-5.85,14.17-11.93,2.61-5.37,2.71-10.71-1-15.55-3.82-5-9.27-5.4-15-4.22C81.91,22.43,74.25,27,67.35,33c-2.87,2.48-6.17,3.3-9,.75-2-1.78-3.06-4.65-3.89-7.76,5,4.71,9,2.09,13.59,0,7.53-3.37,15.26-6.62,23.23-8.54,4.37-1.06,9.71-.13,14.11,1.36,9.24,3.14,12.7,14.35,7.88,23.36C108.68,50.69,92.31,58.26,81.2,56.23Z"/><path d="M838.53,7.09c-5.56,5.11-2.94,11.73-3.18,17.8-.14,3.67,7.07,4.83,11,1.89,4.45-3.35,5.12-3.18,9.61,3.4-5.54,0-10.26.23-15-.07-4.33-.27-6.07,1.23-5.83,5.67.29,5.15,0,10.33.09,15.49.06,4.93.83,5.41,5.75,4.14,4.26-1.11,8.55-2.08,12.83-3.11l.52,1.47c-4.76,2-9.56,3.93-14.28,6-3.61,1.6-7.09,3.48-10.7,5.08-4.8,2.14-4.9-2.73-7.08-4.46.34-.6.48-1.12.65-1.13,6.78-.41,7.32-4.66,7.16-10.29-.37-12.65-.13-25.32-.12-38C830,4,831.67,3.13,838.53,7.09Z"/><path d="M403.82,59.59C409,56.65,414.31,54,419.3,50.72A52.11,52.11,0,0,0,439,26.84c2.1-4.9.93-6.52-4.44-5.73-6.4.94-12.76,2.19-19.11,3.49-5,1-7.46-.85-7.34-5.93,10.78,2.79,21.18.46,31.49-2.5,3.75-1.09,6.36.21,9.76,5.3-3.79,6.09-7.3,12.29-11.35,18.11-7.68,11-18.63,17.26-31.39,20.64a14.24,14.24,0,0,1-2.71.19Z"/><path d="M597.74,30.71c-8.7,7.14-16,14.36-27.15,17.65C578,41.9,584.67,36.5,590.86,30.64a85.13,85.13,0,0,0,10.72-12.42c1.54-2.16,1.69-5.31,2.86-9.37,2.22-.75,4.89,1.38,7,4.15.51.67-.15,2.8-.91,3.72-2.44,2.93-5.41,5.44-7.7,8.47-.82,1.09-.46,3.2-.35,4.82.06.88,1.06,1.71,1.06,2.57,0,8.77-.17,17.55-.33,26.32,0,2.29.32,5.24-3.29,4.78-3.08-.39-3.65-2.72-3.37-5.62.7-7.1,1.2-14.23,1.68-21.35A48.64,48.64,0,0,0,597.74,30.71Z"/><path d="M493.62,61.24c5.28-3.3,11.26-5.86,15.66-10.08A103.17,103.17,0,0,0,523.68,33c2.8-4.26,1.16-6.39-3.76-5.64-6.55,1-13.08,2.28-19.51,3.88-5.41,1.34-8.52-.53-9-6.14,11.12,2.73,22,.4,32.69-2.23,4-1,6.75.07,8.52,3,.68,1.11-.79,3.83-1.7,5.59-4.24,8.18-9.15,15.87-16.78,21.37C508,57.25,501.54,61.14,493.62,61.24Z"/><path d="M284.51,19.76c-2.45,3.8-4.64,7.8-7.41,11.35C268,42.84,256.52,51.86,243.48,58.85a6.15,6.15,0,0,1-5.34-.32c-2.59-1.79-5.26-4.08-3.9-8.69,5.92,5.33,11,2.11,15.94-1.06C261.41,41.5,271.56,33,279.72,22.23c.95-1.26,2-2.42,3-3.63Z"/><path d="M712.4,18.27c-4.17,5.21-7.73,11.1-12.64,15.5-8.37,7.5-17.48,14.19-26.53,20.9a7.25,7.25,0,0,1-6.25.48c-2.8-1.35-4.87-3.92-3.78-8.49,5.83,5.71,10.58,1.73,14.62-1.48,10.11-8,19.79-16.62,29.52-25.12,1.16-1,1.6-2.82,2.37-4.26Z"/><path d="M322.35,64.14l5.87-3.27c10.88-6.1,19.79-14.14,24.37-26,1.16-3,1.08-6.44,1.71-10.63,2.58-.82,4.65,2,6.23,4.42.69,1.07-.2,3.56-1,5.11-6.2,12.58-15,22.69-27.91,28.81a74.16,74.16,0,0,1-7.46,2.8c-.4.14-.93-.09-1.39-.14Z"/><path d="M527.91,13.66c-9.13,1.25-17.07,2.67-25.06,3.21-2.06.14-4.31-2.48-6.11-4.56,7.72,1.32,14.74-.39,21.76-2.32C522.62,8.85,523.57,9.18,527.91,13.66Z"/><path d="M453.5,4a7.2,7.2,0,0,1,7,7,7.12,7.12,0,1,1-14.23-.29A7,7,0,0,1,453.5,4ZM453,16.78c2.15-2.67,4.41-4.26,4.29-5.66s-2.32-3.43-4-3.89c-.89-.24-3.47,2.12-3.58,3.45C449.56,12.22,451.31,13.92,453,16.78Z"/><path d="M238.93,14.48c5.29-1.15,10.11-.14,13.69,3.49,1.31,1.33,1.74,5.59.66,6.8-2.29,2.56-3.62-.68-5.2-2.22C245.3,19.87,242.3,17.42,238.93,14.48Z"/><path d="M663.15,16.21c5.65-.9,10.71.18,14.25,4.73,1,1.34.38,4,.5,6.08-1.74-.65-3.78-.93-5.16-2C669.49,22.38,666.56,19.37,663.15,16.21Z"/><path d="M232.54,28.32c4.48-1.47,11.05.64,12.73,4.54.58,1.34-.24,3.29-.41,5-1.55-.49-3.45-.58-4.57-1.55C237.52,33.83,235.1,31,232.54,28.32Z"/><path d="M320.44,30.26c5.23.64,8.75,2.9,10.9,6.78.65,1.16-.38,3.25-.64,4.92-1.39-.79-3.16-1.27-4.08-2.42C324.51,36.89,322.83,33.91,320.44,30.26Z"/><path d="M332.55,24.9c5.63.7,8.71,3.47,10.11,7.82.4,1.25-1,3.07-1.54,4.63A16.46,16.46,0,0,1,338,34.52C336.2,31.64,334.63,28.6,332.55,24.9Z"/><path d="M278.53,4.35c2.84,1.25,5.87,2.21,8.4,3.92.81.55.29,3.08.38,4.7-1.32-.48-2.94-.62-3.88-1.5a62.75,62.75,0,0,1-5.06-5.93Z"/><path d="M270.8,8.29c2.85-.72,6,.74,8.42,3.69.59.73.07,2.36.06,3.58-1.17-.16-2.81.11-3.43-.56A74,74,0,0,1,270.8,8.29Z"/><path d="M932.85,49.56c-3,2.56-6,3.56-8.47.85-1-1-.65-5.12.36-5.75C929.61,41.61,930.31,46.84,932.85,49.56Z" fill="#fff"/><path d="M927.61,33.86c.87,1.28,2.54,2.64,2.41,3.82-.15,1.46-1.79,2.76-2.78,4.13-1.16-1-3.09-2-3.27-3.16-.21-1.44,1.07-3.1,1.7-4.66Z" fill="#fff"/><path d="M932.16,28.89c-2.48,2-3.94,3.87-4.83,3.63A5.64,5.64,0,0,1,924,29.07c-.21-.71,1.81-2.78,3-3S929.54,27.36,932.16,28.89Z" fill="#fff"/><path d="M916.79,24.13c1.34,2.75,2.61,4.14,2.4,5.25s-1.84,2.09-2.84,3.12c-.77-1.08-2.13-2.15-2.15-3.25S915.36,26.8,916.79,24.13Z" fill="#fff"/><path d="M916.18,43.2c-1-2.63-2.08-4-1.94-5.27s1.58-2,2.45-3.06c.87,1.35,2.2,2.62,2.45,4.07C919.29,39.83,917.78,41,916.18,43.2Z" fill="#fff"/><path d="M746.53,41.15c.8-10.48,5.49-18.23,14.81-22.85,5.38-2.66,7.63-1.17,6.78,4.87-1.33,9.43-5,17.89-12.15,24.53-4.53,4.18-7.52,3.29-9-2.8A34.1,34.1,0,0,1,746.53,41.15Z" fill="#fff"/><path d="M147.83,42c.89-10.66,7.75-20.69,17.1-24.23,4.07-1.54,5.75-.54,5.49,3.85A38.43,38.43,0,0,1,160,45.86c-1.84,2-6,4.63-7.14,3.9C150.5,48.27,149.43,44.7,147.83,42Z" fill="#fff"/><path d="M453,16.78c-1.64-2.86-3.39-4.56-3.27-6.1.11-1.33,2.69-3.69,3.58-3.45,1.66.46,3.86,2.41,4,3.89S455.1,14.11,453,16.78Z" fill="#fff"/></svg>