<svg xmlns="http://www.w3.org/2000/svg" viewBox="0 0 457.65 33.26"><defs><style>.cls-1{isolation:isolate;}.cls-2{fill:#333;}</style></defs><title>tsubasa-video-title</title><g id="Layer_2" data-name="Layer 2"><g id="Layer_1-2" data-name="Layer 1"><g class="cls-1"><g class="cls-1"><path class="cls-2" d="M11.15,1c.36.15.54.33.54.58a.73.73,0,0,1-.5.54l-.9.29c-2.19,5-2.63,5.94-3.38,7.41l.68.4c.33.18.47.36.47.54a.66.66,0,0,1-.36.5l-.65.36V31.6c0,.58-.79,1.16-1.58,1.16-.14,0-.25-.15-.25-.44V13a7.78,7.78,0,0,0-.61.87C2.77,16.41.76,18.72.32,18.72A.32.32,0,0,1,0,18.39a.83.83,0,0,1,.29-.57C3.89,13.43,6.51,7.67,8.38,0Zm4,7.89c-1.94,0-3,.07-5.5.14L9,7.77c3.24.15,4.39.18,6.22.18H19V.25l2.37.33c.58.07.83.21.83.5s-.14.4-.5.54l-.79.4V8h7.73l1.73-2.19,2.55,2.05c.36.29.51.47.51.68s-.18.44-.58.44H21.66A27.17,27.17,0,0,0,26,16.77c2.05,2.56,2.55,3,7.59,6.77a6.14,6.14,0,0,0-2.34,1.91A34.58,34.58,0,0,1,20.91,9.21V23.54h3.27l1.51-1.8,2,1.8a.91.91,0,0,1,.36.61c0,.22-.18.36-.54.36H20.91v7.17c0,.28,0,.43-.19.54a2.33,2.33,0,0,1-1.29.43c-.32,0-.43-.15-.43-.61V24.51H16.55l-1.87.07-2.09,0-.86-1.19c3,.07,3.92.11,4.82.11H19V10.91a43.41,43.41,0,0,1-7.09,11.3,18.91,18.91,0,0,1-3.63,3.53.39.39,0,0,1-.36-.36c0-.26.14-.44.68-1.05A53.42,53.42,0,0,0,18,8.93Z"/><path class="cls-2" d="M38.65,21a11.89,11.89,0,0,1,1,4.68c0,2-.54,3.13-1.51,3.13a.81.81,0,0,1-.83-.79,1.84,1.84,0,0,1,.29-.79,10.38,10.38,0,0,0,.79-4,11,11,0,0,0-.18-2.16ZM41.24,2.88h7.41l1.66-1.62,2,1.44a.81.81,0,0,1,.43.65c0,.36-.21.5-.72.5H45.74V7.34h2.12l1.19-1.22,1.69,1.15a.69.69,0,0,1,.29.54c0,.32-.18.5-.54.5H45.74v3.1H48L49.34,10l1.76,1.12a8.83,8.83,0,0,0,2.09-2.27A34.09,34.09,0,0,0,58.44.47l2.16.61c.39.11.61.25.61.47s-.14.28-.4.43l-.68.36c2.45,3.6,5.54,6.08,10.58,8.46l-.68.25a2.78,2.78,0,0,0-1.66,1.44,25.2,25.2,0,0,1-8.85-9.68,35.79,35.79,0,0,1-5.43,7h6.26L61.82,8.6l2,1.33a.63.63,0,0,1,.32.51c0,.25-.18.36-.61.36H60.24v3.74H65l.54-.75,1.77,1c.32.18.43.33.43.51s-.11.32-.43.43l-.54.18v5.65c0,.4-.76.94-1.33.94-.15,0-.26-.08-.26-.22V21H60.56a18,18,0,0,0,9.54,9.32,4.15,4.15,0,0,0-2.16,2c-3.17-1.66-6.23-5.73-8.42-11.34-1,3.2-1.51,4.28-2.7,5.76a19,19,0,0,1-7,5.15,8.25,8.25,0,0,1-2,.72.26.26,0,0,1-.29-.26c0-.18.15-.28.9-.64C53.8,29,56.64,25.81,57.9,21H54.23v1.43c0,.37-.83.94-1.37.94a.29.29,0,0,1-.32-.25V13.57l2,1h4V10.8H54l-.39-.43c-1.87,1.72-3.92,3.34-4.32,3.34a.24.24,0,0,1-.22-.25c0-.14.11-.29.33-.5l.57-.58H45.74v3.93h2.8l.62-.83,2,1.33c.36.22.5.4.5.61s-.14.29-.5.4l-.68.18-.07.9c-.51,6.19-.83,8.13-1.77,10.18a4.79,4.79,0,0,1-3.56,2.7c-.54,0-.54,0-.93-1.11,0-.11-.18-.22-.44-.36l-2.08-1,.07-.54c.47.11.79.15.93.18l1.12.22a9,9,0,0,0,1.58.18c1.84,0,2.56-1.69,3.06-7.2.22-2.27.32-3.89.32-4.82h-8v1.26c0,.25-.93.75-1.47.75-.22,0-.26-.07-.26-.43v-17Zm-.65,18.25c1.62,2,2.31,3.38,2.31,4.71,0,.9-.36,1.41-1,1.41s-.65-.29-.65-1.41a12.22,12.22,0,0,0-1-4.53ZM44.08,7.34V3.85H40.7V7.34Zm0,4.07V8.31H40.7v3.1Zm0,4.9V12.38H40.7v3.93Zm-2,3.85c1.83,1,3.45,2.91,3.45,4.1,0,.61-.32,1.08-.79,1.08s-.57-.25-.75-.86a9.43,9.43,0,0,0-2.13-4Zm1.51-1.23c2.12.72,3.92,2.27,3.92,3.35,0,.58-.29,1-.68,1s-.43-.18-.83-.9a10.68,10.68,0,0,0-2.63-3.06ZM58.15,20a24.6,24.6,0,0,0,.43-4.5H54.23V20Zm7.05,0v-4.5h-5a24.57,24.57,0,0,1-.51,4.5Z"/><path class="cls-2" d="M90.9,6.08a22.9,22.9,0,0,1,.47,4.21A19.6,19.6,0,0,1,88,20.55c-2.27,3.46-4.75,5.51-6.73,5.51-2.44,0-4.57-3.35-4.57-7.16a13.93,13.93,0,0,1,4.21-9.79,15.23,15.23,0,0,1,11-4.54c7,0,12.12,4.72,12.12,11.12,0,5.83-3.49,10.62-9.35,12.85a25.65,25.65,0,0,1-5,1.34.4.4,0,0,1-.39-.4c0-.18.14-.29.54-.36a22.08,22.08,0,0,0,5.61-2.23c3.89-2.45,5.94-6.48,5.94-11.7,0-4.14-1.59-6.95-4.86-8.6a10.29,10.29,0,0,0-4.68-1.08,3.21,3.21,0,0,0-.83.07.57.57,0,0,0-.21,0ZM78.6,19.22c0,2.59,1.15,4.75,2.48,4.75,1.83,0,4.75-2.95,6.66-6.76a21.49,21.49,0,0,0,2.41-8.43,5.83,5.83,0,0,0-.65-3.13C82.81,7.23,78.6,12.45,78.6,19.22Z"/><path class="cls-2" d="M116.09,22.71a9.26,9.26,0,0,0-.46,2.56,16.68,16.68,0,0,0,.46,2.77,15.78,15.78,0,0,1,.4,2.59c0,1.26-.72,2.16-1.73,2.16-.82,0-1.29-.54-1.29-1.55a10.51,10.51,0,0,1,.11-1.47,16.08,16.08,0,0,0,.28-2.59c0-2.13-.54-2.74-3.27-3.68l0-.54,3.23.11,6.41-15.33.61.29ZM110.88,9.79a9.46,9.46,0,0,1,3.38,1.48,3.6,3.6,0,0,1,1.51,2.7,1.23,1.23,0,0,1-1,1.26c-.46,0-.54-.11-1.4-2a7.7,7.7,0,0,0-2.66-3Zm2.7-8.17a16.62,16.62,0,0,1,3.2,1.15,3.07,3.07,0,0,1,1.8,2.56c0,.79-.47,1.44-1,1.44s-.72-.26-1-.9a7.51,7.51,0,0,0-3.17-3.78Zm11.76,16.45c-.43,5.94-.72,7.27-2.16,9.68a16.17,16.17,0,0,1-4.71,5,2.55,2.55,0,0,1-1.08.54.32.32,0,0,1-.29-.32c0-.15.07-.26.29-.47,4.61-3.85,6-7.06,6-13.75,0-.47,0-1.41-.11-2.49l2.63.4c.46,0,.65.22.65.5s-.15.4-.44.54Zm-5.4-12.45c1.34,0,2.6.07,3,.1.86,0,1.48,0,1.76,0h5.4v-5l2.52.29c.68.07.9.21.9.61a.61.61,0,0,1-.4.58l-.93.5v3h6l2-2.09,2.44,1.73a1,1,0,0,1,.47.79.52.52,0,0,1-.47.54H131.42c-1.26,2.59-2,4-3.38,6.41,2.05-.11,6.33-.4,9.71-.69a10.9,10.9,0,0,0-3.34-2.62l.14-.47a13.37,13.37,0,0,1,5.33,2.41,5,5,0,0,1,2,3.2,1,1,0,0,1-1,1.16c-.39,0-.68-.22-1.11-.9a11.75,11.75,0,0,0-1.4-2.06c-6.23.94-8.49,1.19-15.91,2l-.36.54a1,1,0,0,1-.57.44c-.15,0-.29-.18-.43-.54l-.94-2.24c2.77,0,4.21-.07,6.84-.21a39.9,39.9,0,0,0,1.94-6.41h-4.28c-.83,0-1.69.07-3.67.11ZM130.77,30c0,.5-.82,1.11-1.51,1.11-.25,0-.28-.07-.28-.57V15.87l2.37.4c.47.11.72.29.72.54s-.14.32-.5.54l-.8.5Zm11.63-1.8v.11l.1.54a.88.88,0,0,0,.36.32c.44.29.54.43.54.68,0,.51-.54,1-1.4,1.3a13.35,13.35,0,0,1-3.63.32c-3.57,0-3.78-.1-3.78-1.51V15.73l2.34.4c.54.1.75.25.75.57s-.1.36-.54.61l-.61.33V28.76c0,.86,0,.86,1.84.86,2.08,0,2.48-.21,2.7-1.4l1-5.33.54.07Z"/><path class="cls-2" d="M157.77,17.57c0,.89,0,1.47,0,1.58,0,.47,0,1.44.11,2.66,0,.9.11,1.84.11,2.67.1,2.08.14,2.8.32,4.21a4.36,4.36,0,0,1,.07.68,2.22,2.22,0,0,1-2.05,1.8c-.43,0-.54-.21-.57-1.4a26,26,0,0,0-2-7.74l-.25.61a18.38,18.38,0,0,0-1.55,4.57c-.22,1.33-.43,1.73-1.08,1.73-.32,0-.54-.22-.79-.79a7.29,7.29,0,0,1-.51-1.91c0-.65.22-1.08,1-2.12,1-1.37,1.44-1.95,2.41-3.46-2.27-3.71-2.91-5-2.91-5.87,0-1.15.64-1.83,3-3.24A22.49,22.49,0,0,1,156.29,10l0-.5v-2l0-1.16c0-2.44-.72-3.31-2.73-3.41-.11,0-.15,0-.15-.08,0-.28,1.51-.93,2.12-.93,1.37,0,3.24,1.29,3.24,2.23a2.56,2.56,0,0,1-.18.86,22.09,22.09,0,0,0-.64,5c.68.21.93.46.93.93s0,.47-.76,2.81C162.3,9.18,165.72,7,168.71,7a3.76,3.76,0,0,1,3.81,4.1,19.72,19.72,0,0,1-.65,4,45.31,45.31,0,0,0-1.22,7.71c0,1.87.83,2.77,2.55,2.77,2.63,0,5.36-2.13,6.62-5.19.07-.21.15-.29.22-.29a.59.59,0,0,1,.5.58,10.25,10.25,0,0,1-2,3.92,7.39,7.39,0,0,1-5.75,3.14c-2.49,0-4-1.88-4-5a59.44,59.44,0,0,1,.79-7.31A29.18,29.18,0,0,0,170,11c0-1.58-.9-2.7-2.2-2.7-1.94,0-4.28,1.3-7,4-1,.94-1.41,1.37-3.06,3.17Zm-3.71,1.94.86-1.48.65-1.15.47-.79.22-.36V14.54a11.32,11.32,0,0,1,.07-1.22c0-.36,0-.61,0-.79,0-.4-.21-.65-.54-.65a5.07,5.07,0,0,0-1.83.72c-1.55.83-2.16,1.51-2.16,2.48s.14,1.37,1.58,4.57l.22.54Zm2.16-2.05-.58,1.08c-.57,1.11-.72,1.37-1,1.87l-.46.9c.57,1.37,1.18,3,1.69,4.5.14.39.25.57.39.57.29,0,.33-.07.36-1.54V23.68c0-1.9-.07-4.21-.11-6.8Z"/><path class="cls-2" d="M199.15,20.3a3.89,3.89,0,0,0-.5.25c.14,1.37.21,2.74.21,3.67,0,1.41-.43,1.91-1.65,1.91-.4,0-.58-.11-.58-.36a.83.83,0,0,1,0-.29,35.21,35.21,0,0,0,.18-4.1c-3.46,2.16-4.75,3.6-4.75,5.26a2.59,2.59,0,0,0,2.05,2.26,13.08,13.08,0,0,0,3.92.47,24.27,24.27,0,0,0,5.76-.75,2.15,2.15,0,0,1,.65-.11c.46,0,1.54.72,1.54,1,0,0,0,.07-.07.11s0,0,0,0L206,30s0,0-.79.8c-.33.28-4.21.75-6.52.75-4.82,0-8-1.8-8-4.46A5.26,5.26,0,0,1,193.07,23c1-.68,1.44-1,3.78-2.34a19.76,19.76,0,0,0-.29-3.59c-.29-1.62-1-2.45-2.05-2.45s-2.37.79-3.71,2.34A37.17,37.17,0,0,0,188.57,20c-.39.68-.61.86-1,.86s-.51-.14-.76-.61a3.31,3.31,0,0,1-.5-1.33c0-.36.14-.54.54-.9,4.1-3.42,6.69-7.27,7.44-10.95a12.93,12.93,0,0,1-3.38.69A2.69,2.69,0,0,1,189,6.33a4.51,4.51,0,0,1-.46-1.18s.07-.07.11-.07.1.07.21.21a2.41,2.41,0,0,0,2.27.9,9.76,9.76,0,0,0,3.31-.61c0-.22.07-.43.07-.5a7.28,7.28,0,0,0,.07-.76,1.94,1.94,0,0,0-1.87-1.91c-.07,0-.07,0-.07,0l0,0,0,0v0c.07-.29,1.11-.79,1.62-.79a2.62,2.62,0,0,1,2.48,2.19,4.92,4.92,0,0,1-.36,1.48,6.35,6.35,0,0,0,2.56-1.3l.68.4c.58.29.76.43.76.64s-.26.44-1.52.87c-.54.14-1,.32-1.54.5-.26.07-.44.15-1.15.36a42.8,42.8,0,0,1-4.32,8.07,6.85,6.85,0,0,1,2.77-.8,3.68,3.68,0,0,1,2.84,1.59,4.39,4.39,0,0,1,.68,2.12c2.16-5,5.51-8,9.07-8,2.45,0,4.54,1.51,4.54,3.31a2.35,2.35,0,0,1-.87,1.83c-.43.4-.43.4-3,1.48l-3.13,1.37-1.84.79c-.82.4-1.22.57-2.84,1.4ZM199,19.15l1.51-.79c8.42-4.54,8.67-4.68,8.67-5.8s-1.22-1.87-2.62-1.87c-1.73,0-3.92,1.44-5.44,3.56a19.1,19.1,0,0,0-2.55,5.15Z"/><path class="cls-2" d="M226.72,4c-2.59.5-6.66,1.11-7.45,1.11-.29,0-.43-.11-.43-.32s.22-.4,1.3-.54A61.91,61.91,0,0,0,232.84.79l2.3,1.12c.4.18.54.29.57.43s-.17.29-.82.32l-1.37.08c-2.81.54-4.64.86-5.51,1l1.05.54c.32.18.43.25.43.36s-.11.18-.36.32l-.65.36V7.45h5.33l1.55-1.8,2.26,1.66a1,1,0,0,1,.47.68.49.49,0,0,1-.54.43h-9.07v2.49h4.1l.83-.72,1.8,1.08c.29.18.5.36.5.46s-.14.18-.43.29l-.57.22v7.92c0,.32-.18.54-.58.72a2.46,2.46,0,0,1-.86.25c-.18,0-.25-.11-.25-.36v-.72h-4.54v3.17h3.78l1.55-1.8L235.93,23c.32.21.47.39.47.61a.54.54,0,0,1-.58.54h-7.34v3.6c1.91-.25,4.75-.83,8-1.55l.26.58c-5.69,1.62-9.32,2.59-14.76,4l-.28.68c-.15.36-.29.54-.47.54s-.29-.11-.58-.5l-1.87-2.45c4.18-.47,5.4-.61,8-1V24.19h-2.95c-2.7.07-3.56.11-4,.11L219,23.07c1.3,0,2.45.07,2.88.07,1,0,1.62.08,1.91.08h2.95V20.05h-4.61v1c0,.47-.57.87-1.25.87-.33,0-.4-.11-.4-.47V9.86l1.91,1.05h4.35V8.42h-4.28c-.25,0-.87,0-1.73.07l-1.91,0-1.18-1.22,3,.07c.86,0,1.47.07,1.8.07h4.28Zm0,10.87v-3h-4.61v3Zm0,4.21V15.84h-4.61v3.24Zm6.3-4.21v-3h-4.54v3Zm0,4.21V15.84h-4.54v3.24Zm2.87-9c2.49.11,2.85.11,5.08.14V.68l2.7.44c.28.07.5.25.5.43a.58.58,0,0,1-.36.43l-.86.54v4c0,.94-.07,2.13-.11,3.71h4.6l.8-1.33,2.08,1.37c.25.14.43.32.43.43s-.14.22-.43.36l-.72.32v1.41c0,9.9-.14,12.74-.86,15.48-.61,2.44-2,3.92-3.56,3.92-.51,0-.72-.25-.79-.83a1.66,1.66,0,0,0-.15-.5,1.63,1.63,0,0,0-.57-.29l-2.16-.94.25-.68a11.65,11.65,0,0,0,3.2.68c1.23,0,1.58-.54,2.09-3.06a59.29,59.29,0,0,0,.61-8.74c0-1.55,0-4.68-.07-6.63H242.8c-.25,5.91-.43,7.38-1,9.8a15.29,15.29,0,0,1-6.66,9.43,14.15,14.15,0,0,1-4.25,2.26.27.27,0,0,1-.28-.28c0-.22,0-.22.93-.72,7.38-4.47,9.25-8.54,9.43-20.49-2.05,0-2.34,0-4.28.11Z"/><path class="cls-2" d="M285.38,1.19l2.55,2.09a.76.76,0,0,1,.32.57.59.59,0,0,1-.61.51H271.92V9.61h5l.83-1.12,2.05,1.37a.63.63,0,0,1,.29.47.5.5,0,0,1-.36.4l-.79.25V24.84c0,.36-.79.75-1.48.75a.25.25,0,0,1-.25-.25V23.25h-12V25c0,.36-.07.4-.54.65a2.63,2.63,0,0,1-.86.29.33.33,0,0,1-.36-.33V8.49l2.3,1.12h4.46V4.36h-8.31c-1.8,0-3,0-5.86.18l-1.23-1.23h3.49l3.6.07H283ZM259.47,31.32a.55.55,0,0,1-.32.57,2.37,2.37,0,0,1-1.34.51.36.36,0,0,1-.39-.4V8.28l2.84.43c.25,0,.43.18.43.36a.72.72,0,0,1-.28.47l-.94.61V27.82h23.6V8.49l2.7.51a.49.49,0,0,1,.4.47.51.51,0,0,1-.33.46l-.68.51V31c0,.5-.61.86-1.55.86-.39,0-.54-.11-.54-.43V28.8h-23.6Zm10.72-15.45V10.62h-5v5.25Zm-5,6.45h5V16.88h-5Zm12-6.45V10.62h-5.25v5.25Zm0,6.45V16.88h-5.25v5.44Z"/><path class="cls-2" d="M314.6,4.89c2.66-.61,4.1-.93,4.32-.93A3,3,0,0,1,321,5.08c.54.61.75,1,.75,1.25a.77.77,0,0,1-.71.72,2,2,0,0,1-.72-.14,11.42,11.42,0,0,0-3-.43,10.55,10.55,0,0,0-4.89,1.19,11.71,11.71,0,0,0-4.32,5.47,27,27,0,0,0-1.37,8c0,2.19.47,3.81,1.44,4.85s2.48,1.55,5.07,1.55c.69,0,1.26,0,1.77-.07a12,12,0,0,1,1.47-.14,1.85,1.85,0,0,1,1.76,1.87c0,.68-1,1-3.13,1-6.51,0-10.39-3-10.39-8a21.17,21.17,0,0,1,2.69-10.44,16.7,16.7,0,0,1,3.24-4.28c.25-.22.33-.33.33-.47s-.11-.18-.25-.18a1.41,1.41,0,0,0-.37,0l-.64.14c-1.08.14-1.66.32-4.82,1.47a34.73,34.73,0,0,0-6.16,2.92c-.93.61-1.18.72-1.69.72a3.44,3.44,0,0,1-3.34-2.27,5.61,5.61,0,0,1-.29-1.47.24.24,0,0,1,.21-.22c.11,0,.11,0,.26.32a2.3,2.3,0,0,0,2.26,1.12,10.86,10.86,0,0,0,3.53-.72c7.55-2.2,8-2.3,12.38-3.38Zm5,10.73a1.23,1.23,0,0,1-1.12,1.15c-.36,0-.58-.18-.79-.68a6,6,0,0,0-3.42-3c-.25-.11-.29-.11-.29-.18s.29-.14.79-.14C317.15,12.78,319.64,14.25,319.64,15.62Zm3.09-2.45a1.21,1.21,0,0,1-1.11,1.19c-.4,0-.54-.14-.94-.86a6.17,6.17,0,0,0-3.53-2.7c-.21,0-.25-.07-.25-.11s.51-.22,1.15-.22C320.28,10.47,322.73,11.88,322.73,13.17Z"/><path class="cls-2" d="M346.52,2.3c0-.07.11-.14.18-.14,1.22,0,4.61,1.66,4.61,2.23,0,.18-.11.25-.51.36a6,6,0,0,0-1.18.68,28.61,28.61,0,0,1-4.9,2.49c1.87.93,3,1.76,3,2.19a.59.59,0,0,1-.11.29,2.42,2.42,0,0,0-.29,1.26,11.61,11.61,0,0,1-.11,1.69c4.83-.61,6.73-.93,7.63-1.26a2.67,2.67,0,0,1,.65-.14c1,0,3.63,1.4,3.63,1.94a.82.82,0,0,1-.9.72,5.38,5.38,0,0,1-1.15-.14,25.66,25.66,0,0,0-4.35-.25c-1.58,0-2.48,0-5.58.18-.54,3.92-1,5.68-2.12,7.88a17.15,17.15,0,0,1-8.24,8,10.42,10.42,0,0,1-2,.75c-.18,0-.43-.14-.43-.25s.14-.14.43-.25c6.08-3,9.64-8.61,10.11-15.91l-1,.14a59.31,59.31,0,0,0-9.57,1.8,4.7,4.7,0,0,1-1.59.36,4,4,0,0,1-2.62-1.65,2.2,2.2,0,0,1-.51-1.55c0-.18,0-.22.11-.22s.07,0,.15.11a3.63,3.63,0,0,0,3.05,1.08c1.73,0,7.63-.54,12-1.08,0-.54,0-.76,0-1.12,0-1.94-.07-2.59-.36-3.2a1.32,1.32,0,0,0-1-.83,3.6,3.6,0,0,0-1.11.29,28.54,28.54,0,0,1-7.95,1.66c-.33,0-.54-.11-.54-.26s0-.1.43-.18a34.06,34.06,0,0,0,9.86-3.78c2.23-1.22,3.09-1.94,3.09-2.59a1.59,1.59,0,0,0-.68-1.15Z"/><path class="cls-2" d="M379.2,23.36l.07-2.19c.07-2.67.07-2.67.07-3.42,0-1.62-.25-2.2-1.15-2.56A41.39,41.39,0,0,0,374,16a4.47,4.47,0,0,1-1.23.25,2.46,2.46,0,0,1-2-2.41c0-.15.08-.22.15-.22s.14,0,.25.18a3.12,3.12,0,0,0,2.05.76c.61,0,5.18-.4,6.59-.54a17.33,17.33,0,0,0,5.54-1.34,2.55,2.55,0,0,1,.57-.18,6.83,6.83,0,0,1,2.13.94c.5.32.71.61.71.9a.54.54,0,0,1-.53.61c-.26,0-.54,0-.94-.07a16.75,16.75,0,0,0-2.05-.11c-1.51,0-4.07.15-5.47.29,1.48.79,2.09,1.26,2.09,1.55a.85.85,0,0,1-.11.32c-.43,1-.61,2.66-.83,6.8l0,.83,1-.07c.65-.07,1.29-.14,2-.18,1.47-.14,2.91-.32,3.24-.36.5-.11,1-.18,1.54-.25a15.89,15.89,0,0,1,1.59-.18,7,7,0,0,1,2.34.83c.82.39,1.15.75,1.15,1.26a.79.79,0,0,1-.8.72,3.77,3.77,0,0,1-1-.22,39.26,39.26,0,0,0-7.77-.65c-5.11,0-10.22.69-13,1.77a3.34,3.34,0,0,1-1.08.25c-.51,0-.87-.15-1.84-.79-1.19-.76-1.4-1-1.4-1.44s.14-.87.29-.87.14,0,.21.22c.22.5,1.23.79,2.77.79.54,0,2.77-.14,6.3-.43l1.76-.15.9-.07Z"/><path class="cls-2" d="M405.51,14.47c1.94,1,3.31,2.7,3.31,4.1a1.19,1.19,0,0,1-1.15,1.19c-.54,0-.72-.25-1.05-1.3A6.85,6.85,0,0,0,403,14.11a.26.26,0,0,1-.21-.22c0-.1.14-.18.32-.18A6.51,6.51,0,0,1,405.51,14.47ZM423,12.17a3.53,3.53,0,0,1,.68,1.29c0,.22-.07.33-.43.72a2.21,2.21,0,0,0-.5.87,32.58,32.58,0,0,1-3.42,5.86,30.52,30.52,0,0,1-12.05,9.65,16.64,16.64,0,0,1-3.42,1.12c-.18,0-.43-.18-.43-.33s.07-.11.21-.18c3.67-1.19,8.46-4.53,11.88-8.35a23.34,23.34,0,0,0,4.71-7.45A9.92,9.92,0,0,0,421,12.6a1.89,1.89,0,0,0-1.4-1.62c-.11,0-.18-.11-.18-.18s.47-.29,1-.29A3.5,3.5,0,0,1,423,12.17Zm-10.4.28a5.28,5.28,0,0,1,1.84,3.32A1.26,1.26,0,0,1,413.35,17a1,1,0,0,1-1-.83c-.29-2-1.94-4.5-3.35-5.08-.11-.07-.18-.11-.18-.18s.15-.18.33-.18A6.56,6.56,0,0,1,412.63,12.45Z"/><path class="cls-2" d="M443.65,3a1.78,1.78,0,0,1,.83-.14,4.12,4.12,0,0,1,2.56,1c.89.65,1.29,1.08,1.29,1.51,0,.15-.07.26-.25.51a13.16,13.16,0,0,0-1.19,2.12,1.81,1.81,0,0,0,1.19.33,21.7,21.7,0,0,0,3.74-.47A5.45,5.45,0,0,0,454.27,7c.28-.21.39-.25.57-.25.33,0,.33,0,1.59,1,.86.65,1.22,1,1.22,1.15s-.07.22-.25.32c-.83.51-.87.54-2,2.63-4.21,7.63-10,13.1-17.2,16.34a30.45,30.45,0,0,1-4.71,1.7.51.51,0,0,1-.5-.47c0-.07,0-.07.64-.29,3.82-1.33,9.36-5,13-8.6a32.24,32.24,0,0,0,6.58-9.22,7.53,7.53,0,0,0,.76-2.12c0-.29-.25-.47-.65-.47a10,10,0,0,0-1.73.25c-1.36.25-3.16.54-3.42.54s-.79-.21-1.58-.83c-3.16,4.83-6.94,8.43-10.86,10.37l-.18.07a.14.14,0,0,1-.11,0s0,0-.25-.15-.08-.1-.08-.14.22-.29.44-.43a25.14,25.14,0,0,0,5.82-5.65c2.59-3.28,3.89-5.73,3.89-7.38a2.41,2.41,0,0,0-1.37-2.2l-.14-.07,0,0,0,0h0Z"/></g></g></g></g></svg>