<svg id="Layer_1" data-name="Layer 1" xmlns="http://www.w3.org/2000/svg" viewBox="0 0 412 70"><title>how-to-play</title><path d="M412,70H0V0H412ZM101.78,45.84l6.56,5.23c.16,7.49.16,7.49-12.22,10.81,2,1,3.43,1.61,4.71,2.44,5,3.23,8.66,2.14,10.62-3.54a55,55,0,0,0,1.71-8.32c.76-4.2,1.46-8.41,2.19-12.62.42-2.44-3-5.11-5.5-4.57a27.11,27.11,0,0,1-5.34.14c.09-1.91-.55-4.68.44-5.51,1.33-1.1,4-1.11,5.93-.84s3.93,1.43,5.89,2.2l1.5-.83V50.74l1.82.31c.65-1.12,1-2.56,2-3.3a25.78,25.78,0,0,1,4.73-2.36c.49,1.51,1.66,3.2,1.34,4.52-1.56,6.34-6,10.63-11.18,14.18-1.23.84-2.42,1.74-3.62,2.61l1,1.2c8.62-3.08,15.7-8,19.13-18.56,1.56,2.32,2.28,3.54,3.14,4.64,2.46,3.14,4.88,6.31,7.5,9.31,3.24,3.71,6.41,3.4,9.74-1-7-4.13-14.46-7.66-18.24-17.37,3.26.62,5.48.62,7.29,1.49,4,1.93,4.57,1.65,4.84-3,.17-2.95.87-5.86,1-8.81a4.27,4.27,0,0,0-1.43-3.27,6.4,6.4,0,0,0-3.87-.52c-2.08.2-4.14,1-6.19,1-.89,0-2.27-1.43-2.47-2.42s.55-3.37,1.06-3.41c3.57-.34,8.06-1.6,10.58,0,4.3,2.8,5.68,1.14,7.78-2.29-3-2-6.1-3.53-8.36-5.84-3.42-3.49-7.15-7.17-9-11.52-1.09-2.55-2-4.27-4.29-4.21-1.44,0-3.31,1.71-4.17,3.14-3.34,5.55-6.28,11.35-9.53,17-1.51,2.61-3.37,4.77-6.71,1.9-.54-.47-2.08.16-3.13.39-1.44.31-2.85.73-4.28,1.1-.22-1.44-1-3.12-.52-4.25a5.57,5.57,0,0,1,3.46-2.69c2.3-.55,4.77-.44,7.83-.65-2.25-3.37-3.73-5.8-7.45-3-2.64,2-4,.58-4.06-2.35s1.39-4.25,4.27-4.21c3,0,6.1,0,10.32,0-2.89-4-4.42-7.08-8.45-3.35a6.82,6.82,0,0,1-4.54,1.46c-4.69-.21-9.37-.81-14.88-1.34V15c0,7.84-.05,15.69,0,23.53A7.29,7.29,0,0,0,92,42.1a3.06,3.06,0,0,0,2.47-.59c2.2-4.62,6.32-2.85,9.7-2.91,5-.09,5.89,1.57,4,6.67l-7.55-3.75c.7,2.31,1,3.39,1.35,4.47l-4.16-1.35-.22,3-6.62-1C89.6,50.17,88.35,53,87.46,56c-.3,1,.29,2.3.47,3.46,1.18-.62,3-.94,3.41-1.9,1-2,1.27-4.41,1.84-6.65.64,1.42.39,2.92,1,4,.45.81,2.2,1.73,2.89,1.44C103,53.81,103.6,52.29,101.78,45.84ZM21.08,18.73,21,21.06c3.82,0,7.63-.09,11.44,0,4.76.14,5.71,1.44,3.26,5.36C31,33.91,25.94,41.16,21,48.45a10.84,10.84,0,0,1-2.37,1.94l-1.18-.49c1.95-14.57-3.77-30,5.93-44.73-2.2-.63-4.5-1.9-6.62-1.65-1,.12-1.67,3.21-2.33,5-3.57,9.66-7.06,19.33-10.63,29A38.53,38.53,0,0,1,2,41.18L3.28,42l8.42-10.9c.21,3.24.42,5,.43,6.68,0,8.69-.07,17.37.09,26.05,0,1.18,1.19,2.34,1.82,3.5,1.16-1,3.05-1.91,3.31-3.14.55-2.56,0-5.33.36-8A7.47,7.47,0,0,1,19.56,52c3-2.95,6.64-5.35,9.54-8.42,3.47-3.68,6.44-7.82,9.63-11.75l1.41.27c0,3.87-.14,7.74,0,11.6.15,3.21-1,4.64-4.31,4.43-2.3-.16-4.62,0-6.93,0l0,2a46.33,46.33,0,0,0,5.53,0c4.38-.53,6.07,1.24,5.7,5.66-.29,3.53-.06,7.11-.06,10.67,4.28.26,5.63-1.22,5.52-4.38a65.13,65.13,0,0,1,.09-8.5c.1-1.11,1-2.92,1.78-3.07C52,49.67,57,47.86,61,49c4.88,1.44,5.52-1.62,6.82-2.83C62,40.4,56.25,35,50.93,29.18c-1.55-1.68-1.92-4.44-2.83-6.7a59.24,59.24,0,0,1,7.51-1.37c4-.23,8-.06,12-.06l.08-1.58c-2-1.9-3.59-6.24-7.19-3.09S53.22,19.6,49.32,19.2C48,19.06,45.9,17,45.83,15.77c-.23-3.88.35-7.8.66-12.44L40.14,2.15c0,4.22-.22,7.7.06,11.14.35,4.5-1.18,6.55-5.92,6.08C29.9,18.94,25.48,18.92,21.08,18.73ZM357.83,7.85c1.45,2.18,3.36,4,3.93,6.1,1.28,4.85.59,8.68-5.08,11.21-7.42,3.32-8.5,6.55-4.67,12.37,3.28,5,2.59,8.66-.85,13-1.31,1.65-1.4,4.49-1.48,6.81,0,.83,1.6,1.71,2.47,2.57a11.79,11.79,0,0,0,2-2.52c1-2.31,1.71-4.72,2.54-7.1h1.78c1.22,4.79,2.45,9.58,3.68,14.41,4.78-1.71,4.8-1.76,4.61-5.6-.35-6.67-.72-13.33-.95-20-.07-1.79-.34-4.32.67-5.28,4.9-4.65,9.89-9.34,15.47-13.11,3.38-2.29,6.52-.15,7.16,4a21.78,21.78,0,0,1-.32,5.44c-.64,6.14-1.77,12.26-1.88,18.4-.14,7.35,3.72,10.33,10.8,9.32,6.07-.87,12.3-7.62,12.65-13.77,0-.42-.39-.87-.6-1.3l1.64,2.55c-3.13,2-6.07,4.37-9.43,5.71a13.25,13.25,0,0,1-8.36.57c-1.13-.36-1.76-4.34-1.51-6.56.63-5.8,1.92-11.51,2.86-17.27,1.45-8.79-4.79-14.07-13-10.67-3.61,1.49-6.7,4.24-10,6.43-1,.69-2,1.43-2.86,2-4.16-4-1.74-8.06-1.55-12.09A8,8,0,0,0,364.86,8C362.75,6.15,359.91,5,357.83,7.85ZM205.88,60.91l.34,1.61c3.24-.91,6.57-1.63,9.73-2.79a25.9,25.9,0,0,0,16.48-27c-1.26-10.88-8.7-18-20.86-19.3a36.52,36.52,0,0,0-10.91.77c-15.12,3-25.5,20.08-20.8,33.91,2.62,7.74,8.19,9.57,14.63,4.74a20.65,20.65,0,0,0,3.24-3.1C205,41.31,209.18,31.81,208,20.4c-.25-2.38-.73-4.83,3.18-4.52,6.85.55,13.42,6.24,14.74,13.06a26.56,26.56,0,0,1-14.24,29.29C209.78,59.2,207.81,60,205.88,60.91Zm54.55-14c5.43,3.51,3.56,8.38,3.59,12.9a11.16,11.16,0,0,0,1.69,5.37c.28.47,3.09.31,3.47-.32.94-1.57,2-3.82,1.51-5.38-3.22-11.24,3.6-20.15,6.1-31.36a46.18,46.18,0,0,0,3.65,4.08c.79.67,2,1.52,2.83,1.4,8.33-1.2,16.63-2.54,24.92-3.95,2.93-.5,5.1-.12,6.59,2.93.56,1.15,2.48,1.64,3.79,2.43.35-1.66,1.34-3.49.94-4.94-1.19-4.29-10-9.37-15.61-9.11L309,26.71,294.07,27.8c2-8.89,5.69-12.09,13.12-12.09H324c-4.46-6.44-5.26-6-10.53-3.65-3.41,1.51-7.89.59-11.89.75.3-2.78.61-5.56.88-8.34a6.12,6.12,0,0,0-.19-1.37c-5.88-1.9-6.86-1.32-7,4-.12,6.64-.15,6.65-6.8,6.62-3.49,0-7,0-10.46,0,0,.52-.05,1-.07,1.54l14.63.94C291,27.33,287,30.11,278,26.74c.52-2.47,1.06-5,1.59-7.52l-1.43-.4c-3.23,7-6.54,14-9.65,21.13C266.94,43.44,265.84,47.17,260.43,46.93Zm53.12-11c-4.36-2.69-6.63-2.24-6.72,1.51-.18,7.34-.27,14.7.12,22,.08,1.55,2.17,4,3.65,4.26a40,40,0,0,0,10.43,0c1-.08,2.67-1.58,2.58-2.21-.54-3.62-1.52-7.17-2.58-11.77-1.21,3.23-1.8,5.82-3.11,7.95-.7,1.14-2.61,1.76-4.09,2.06-.49.11-1.95-1.51-1.92-2.3C312.15,50.21,310.22,42.84,313.55,35.9ZM274.73,66a15.35,15.35,0,0,0,13-13.95c.43-5.05.71-10.11,1.08-15.46-4-2.11-5.59-1.44-5.39,3.49.39,9.71-.08,19-8.79,25.46C274.57,65.55,274.69,65.81,274.73,66ZM300.5,37c-3.78-1.92-5.11-1.21-5.15,4-.05,5.47-.19,11,.09,16.42.09,1.83,1.38,3.61,2.12,5.4.82-1.75,2.23-3.46,2.34-5.25C300.33,50.91,300.33,44.23,300.5,37ZM261,19.55l-1,1.5c1.38,2.58,2.6,5.27,4.21,7.69.85,1.27,2.39,2.07,3.62,3.09.5-1.88,2-4.63,1.31-5.47C266.84,23.71,263.74,21.77,261,19.55Zm4-15.32c2,3.41,3.55,6.46,5.59,9.09.7.89,2.74.73,4.16,1,.27-1.31,1.14-2.9.69-3.88C273.45,6.26,269.78,4.63,264.94,4.23Z" fill="#fff"/><path d="M101.93,46c-.32-1.08-.65-2.16-1.35-4.47l7.55,3.75c1.92-5.1,1-6.76-4-6.67-3.38.06-7.5-1.71-9.7,2.91A3.06,3.06,0,0,1,92,42.1a7.29,7.29,0,0,1-1.26-3.55c-.1-7.84,0-15.69,0-23.53V5.27c5.51.53,10.19,1.13,14.88,1.34a6.82,6.82,0,0,0,4.54-1.46c4-3.73,5.56-.67,8.45,3.35-4.22,0-7.27,0-10.32,0-2.88,0-4.39,1.25-4.27,4.21S105.38,17,108,15.05c3.72-2.76,5.2-.33,7.45,3-3.06.21-5.53.1-7.83.65a5.57,5.57,0,0,0-3.46,2.69c-.49,1.13.3,2.81.52,4.25,1.43-.37,2.84-.79,4.28-1.1,1-.23,2.59-.86,3.13-.39,3.34,2.87,5.2.71,6.71-1.9,3.25-5.6,6.19-11.4,9.53-16.95.86-1.43,2.73-3.1,4.17-3.14,2.25-.06,3.2,1.66,4.29,4.21,1.84,4.35,5.57,8,9,11.52,2.26,2.31,5.37,3.8,8.36,5.84-2.1,3.43-3.48,5.09-7.78,2.29-2.52-1.63-7-.37-10.58,0-.51,0-1.29,2.34-1.06,3.41s1.58,2.41,2.47,2.42c2,0,4.11-.79,6.19-1a6.4,6.4,0,0,1,3.87.52,4.27,4.27,0,0,1,1.43,3.27c-.12,3-.82,5.86-1,8.81-.27,4.62-.83,4.9-4.84,3-1.81-.87-4-.87-7.29-1.49,3.78,9.71,11.27,13.24,18.24,17.37-3.33,4.37-6.5,4.68-9.74,1-2.62-3-5-6.17-7.5-9.31-.86-1.1-1.58-2.32-3.14-4.64C130,59.88,122.93,64.82,114.31,67.9l-1-1.2c1.2-.87,2.39-1.77,3.62-2.61,5.23-3.55,9.62-7.84,11.18-14.18.32-1.32-.85-3-1.34-4.52a25.78,25.78,0,0,0-4.73,2.36c-1,.74-1.35,2.18-2,3.3l-1.82-.31V30.43l-1.5.83c-2-.77-3.86-1.93-5.89-2.2s-4.6-.26-5.93.84c-1,.83-.35,3.6-.44,5.51a27.11,27.11,0,0,0,5.34-.14c2.48-.54,5.92,2.13,5.5,4.57-.73,4.21-1.43,8.42-2.19,12.62a55,55,0,0,1-1.71,8.32c-2,5.68-5.63,6.77-10.62,3.54-1.28-.83-2.71-1.42-4.71-2.44,12.38-3.32,12.38-3.32,12.22-10.81l-6.56-5.23Zm22.13-23.5c6.59,2.46,10.85-.42,15.25-4.11L133.2,8.17Zm14.36,20.87c3.29.24,4.9-1.2,4.91-4.64,0-3.09-1.11-4.62-4.36-4.65s-4.83,1.53-5,4.78S135.25,43.51,138.42,43.36Zm-8.53-5.06c.48-2.6-.28-4.29-3.59-4.22-2.79.06-4.44.9-4.37,4,.06,2.69.2,5.1,3.78,5.21C129.12,43.44,130,41.45,129.89,38.3Zm-4.57-14.91L119,28.25c2.27,1.28,4.41,3,6.84,3.71,2,.6,4.94.23,4.13-3C129.48,27.17,127.36,25.75,125.32,23.39ZM93.8,32.78l4.11,3.72c.75-1.26,2.15-2.55,2.08-3.76-.08-1.44-1.42-2.81-2.22-4.21Zm7.41-20.42L97.81,8.5c-.89,1.38-2.36,2.7-2.48,4.14-.09,1,1.63,2.2,2.54,3.31Zm.16,10.32-3.74-3.9c-.83,1.23-2.38,2.51-2.3,3.69.08,1.38,1.58,2.68,2.46,4Z"/><path d="M21.08,18.73c4.4.19,8.82.21,13.2.64,4.74.47,6.27-1.58,5.92-6.08-.28-3.44-.06-6.92-.06-11.14l6.35,1.18c-.31,4.64-.89,8.56-.66,12.44C45.9,17,48,19.06,49.32,19.2c3.9.4,7.63.26,11.14-2.82s5.16,1.19,7.19,3.09l-.08,1.58c-4,0-8-.17-12,.06a59.24,59.24,0,0,0-7.51,1.37c.91,2.26,1.28,5,2.83,6.7,5.32,5.8,11,11.22,16.88,17C66.51,47.42,65.87,50.48,61,49c-4-1.18-9,.63-13.46,1.45-.78.15-1.68,2-1.78,3.07a65.13,65.13,0,0,0-.09,8.5c.11,3.16-1.24,4.64-5.52,4.38,0-3.56-.23-7.14.06-10.67.37-4.42-1.32-6.19-5.7-5.66a46.33,46.33,0,0,1-5.53,0l0-2c2.31,0,4.63-.13,6.93,0,3.27.21,4.46-1.22,4.31-4.43-.19-3.86,0-7.73,0-11.6l-1.41-.27c-3.19,3.93-6.16,8.07-9.63,11.75-2.9,3.07-6.5,5.47-9.54,8.42a7.47,7.47,0,0,0-1.85,4.22c-.32,2.63.19,5.4-.36,8-.26,1.23-2.15,2.11-3.31,3.14-.63-1.16-1.8-2.32-1.82-3.5-.16-8.68-.06-17.36-.09-26,0-1.72-.22-3.44-.43-6.68L3.28,42,2,41.18a38.53,38.53,0,0,0,1.78-3.66c3.57-9.66,7.06-19.33,10.63-29,.66-1.8,1.36-4.89,2.33-5,2.12-.25,4.42,1,6.62,1.65-9.7,14.74-4,30.16-5.93,44.73l1.18.49A10.84,10.84,0,0,0,21,48.45c5-7.29,10-14.54,14.7-22,2.45-3.92,1.5-5.22-3.26-5.36-3.81-.11-7.62,0-11.44,0ZM46.88,29l-1,.05c0,5.85-.05,11.7.18,17.53,0,.28,2.71.88,4,.57a49.11,49.11,0,0,0,6.53-2.55C53.57,39.79,50.23,34.38,46.88,29Z"/><path d="M357.83,7.85c2.08-2.89,4.92-1.7,7,.13a8,8,0,0,1,2.64,5.57c-.19,4-2.61,8.13,1.55,12.09.85-.61,1.83-1.35,2.86-2,3.32-2.19,6.41-4.94,10-6.43,8.24-3.4,14.48,1.88,13,10.67-.94,5.76-2.23,11.47-2.86,17.27-.25,2.22.38,6.2,1.51,6.56A13.25,13.25,0,0,0,402,51.1c3.36-1.34,6.3-3.75,9.43-5.71l-1.64-2.55c.21.43.62.88.6,1.3-.35,6.15-6.58,12.9-12.65,13.77-7.08,1-10.94-2-10.8-9.32.11-6.14,1.24-12.26,1.88-18.4a21.78,21.78,0,0,0,.32-5.44c-.64-4.18-3.78-6.32-7.16-4-5.58,3.77-10.57,8.46-15.47,13.11-1,1-.74,3.49-.67,5.28.23,6.67.6,13.33.95,20,.19,3.84.17,3.89-4.61,5.6-1.23-4.83-2.46-9.62-3.68-14.41h-1.78c-.83,2.38-1.57,4.79-2.54,7.1a11.79,11.79,0,0,1-2,2.52c-.87-.86-2.5-1.74-2.47-2.57.08-2.32.17-5.16,1.48-6.81,3.44-4.34,4.13-8,.85-13-3.83-5.82-2.75-9,4.67-12.37,5.67-2.53,6.36-6.36,5.08-11.21C361.19,11.81,359.28,10,357.83,7.85Zm.84,32.31c1.19-3,2.53-6,3.48-9.07.27-.86-.38-2.76-1-2.94a4.92,4.92,0,0,0-3.56.63C353.34,31.37,353.28,33.55,358.67,40.16ZM362.18,42l-1.7,0v7.18h1.7Z"/><path d="M205.88,60.91c1.93-.89,3.9-1.71,5.79-2.68a26.56,26.56,0,0,0,14.24-29.29c-1.32-6.82-7.89-12.51-14.74-13.06-3.91-.31-3.43,2.14-3.18,4.52,1.19,11.41-3,20.91-10.26,29.35a20.65,20.65,0,0,1-3.24,3.1c-6.44,4.83-12,3-14.63-4.74-4.7-13.83,5.68-30.91,20.8-33.91a36.52,36.52,0,0,1,10.91-.77c12.16,1.33,19.6,8.42,20.86,19.3a25.9,25.9,0,0,1-16.48,27c-3.16,1.16-6.49,1.88-9.73,2.79ZM183.43,40.57c.31,2.12.28,4.37,1,6.34,1.32,3.68,4,4.45,7,2C200,41.78,204,32.26,205,21.45c.4-4.14-1.55-5.17-5.64-3.73C190.37,20.9,183.77,30.47,183.43,40.57Z"/><path d="M260.43,46.93c5.41.24,6.51-3.49,8-7,3.11-7.09,6.42-14.09,9.65-21.13l1.43.4c-.53,2.53-1.07,5.05-1.59,7.52,9,3.37,13,.59,14.68-10.55L278,15.25c0-.51.05-1,.07-1.54,3.49,0,7,0,10.46,0,6.65,0,6.68,0,6.8-6.62.1-5.32,1.08-5.9,7-4a6.12,6.12,0,0,1,.19,1.37c-.27,2.78-.58,5.56-.88,8.34,4-.16,8.48.76,11.89-.75,5.27-2.33,6.07-2.79,10.53,3.65H307.19c-7.43,0-11.12,3.2-13.12,12.09L309,26.71,303.9,21c5.59-.26,14.42,4.82,15.61,9.11.4,1.45-.59,3.28-.94,4.94-1.31-.79-3.23-1.28-3.79-2.43-1.49-3.05-3.66-3.43-6.59-2.93-8.29,1.41-16.59,2.75-24.92,3.95-.87.12-2-.73-2.83-1.4a46.18,46.18,0,0,1-3.65-4.08c-2.5,11.21-9.32,20.12-6.1,31.36.45,1.56-.57,3.81-1.51,5.38-.38.63-3.19.79-3.47.32A11.16,11.16,0,0,1,264,59.83C264,55.31,265.86,50.44,260.43,46.93Z"/><path d="M313.55,35.9c-3.33,6.94-1.4,14.31-1.64,21.51,0,.79,1.43,2.41,1.92,2.3,1.48-.3,3.39-.92,4.09-2.06,1.31-2.13,1.9-4.72,3.11-7.95,1.06,4.6,2,8.15,2.58,11.77.09.63-1.61,2.13-2.58,2.21a40,40,0,0,1-10.43,0C309.12,63.42,307,61,307,59.43c-.39-7.32-.3-14.68-.12-22C306.92,33.66,309.19,33.21,313.55,35.9Z"/><path d="M274.73,66c0-.16-.16-.42-.11-.46,8.71-6.49,9.18-15.75,8.79-25.46-.2-4.93,1.38-5.6,5.39-3.49-.37,5.35-.65,10.41-1.08,15.46A15.35,15.35,0,0,1,274.73,66Z"/><path d="M300.5,37c-.17,7.21-.17,13.89-.6,20.55-.11,1.79-1.52,3.5-2.34,5.25-.74-1.79-2-3.57-2.12-5.4-.28-5.46-.14-11-.09-16.42C295.39,35.81,296.72,35.1,300.5,37Z"/><path d="M101.78,45.84c1.82,6.45,1.21,8-4.75,10.48-.69.29-2.44-.63-2.89-1.44-.57-1.05-.32-2.55-1-4-.57,2.24-.86,4.61-1.84,6.65-.45,1-2.23,1.28-3.41,1.9-.18-1.16-.77-2.44-.47-3.46.89-3,2.14-5.83,3.47-9.31l6.62,1,.22-3L101.93,46Z"/><path d="M261,19.55c2.78,2.22,5.88,4.16,8.15,6.81.71.84-.81,3.59-1.31,5.47-1.23-1-2.77-1.82-3.62-3.09-1.61-2.42-2.83-5.11-4.21-7.69Z"/><path d="M264.94,4.23c4.84.4,8.51,2,10.44,6.26.45,1-.42,2.57-.69,3.88-1.42-.32-3.46-.16-4.16-1C268.49,10.69,267,7.64,264.94,4.23Z"/><path d="M124.06,22.49,133.2,8.17l6.11,10.21C134.91,22.07,130.65,25,124.06,22.49Z" fill="#fff"/><path d="M138.42,43.36c-3.17.15-4.61-1.3-4.45-4.51s1.63-4.81,5-4.78,4.37,1.56,4.36,4.65C143.32,42.16,141.71,43.6,138.42,43.36Z" fill="#fff"/><path d="M129.89,38.3c.13,3.15-.77,5.14-4.18,5-3.58-.11-3.72-2.52-3.78-5.21-.07-3.14,1.58-4,4.37-4C129.61,34,130.37,35.7,129.89,38.3Z" fill="#fff"/><path d="M125.32,23.39c2,2.36,4.16,3.78,4.62,5.61.81,3.19-2.15,3.56-4.13,3-2.43-.74-4.57-2.43-6.84-3.71Z" fill="#fff"/><path d="M93.8,32.78l4-4.25c.8,1.4,2.14,2.77,2.22,4.21.07,1.21-1.33,2.5-2.08,3.76Z" fill="#fff"/><path d="M101.21,12.36,97.87,16c-.91-1.11-2.63-2.29-2.54-3.31.12-1.44,1.59-2.76,2.48-4.14Z" fill="#fff"/><path d="M101.37,22.68l-3.58,3.8c-.88-1.33-2.38-2.63-2.46-4-.08-1.18,1.47-2.46,2.3-3.69Z" fill="#fff"/><path d="M46.88,29c3.35,5.4,6.69,10.81,9.65,15.6A49.11,49.11,0,0,1,50,47.13c-1.26.31-4-.29-4-.57-.23-5.83-.18-11.68-.18-17.53Z" fill="#fff"/><path d="M358.67,40.16c-5.39-6.61-5.33-8.79-1.06-11.38a4.92,4.92,0,0,1,3.56-.63c.6.18,1.25,2.08,1,2.94C361.2,34.17,359.86,37.14,358.67,40.16Z" fill="#fff"/><path d="M362.18,42v7.14h-1.7V42Z" fill="#fff"/><path d="M183.43,40.57c.34-10.1,6.94-19.67,16-22.85,4.09-1.44,6-.41,5.64,3.73-1,10.81-5.07,20.33-13.61,27.42-3,2.49-5.68,1.72-7-2C183.71,44.94,183.74,42.69,183.43,40.57Z" fill="#fff"/></svg>