<svg xmlns="http://www.w3.org/2000/svg" viewBox="0 0 559.19 32.32"><defs><style>.cls-1{isolation:isolate;}.cls-2{fill:#333;}</style></defs><title>tsubasa-comparison-title</title><g id="Layer_2" data-name="Layer 2"><g id="Layer_1-2" data-name="Layer 1"><g class="cls-1"><g class="cls-1"><path class="cls-2" d="M0,28a65.55,65.55,0,0,1,7.46-9.56c3.13-3.56,4.1-5.61,4.1-8.49,0-3.2-1.47-5.07-4-5.07A5.34,5.34,0,0,0,4.32,6a2.88,2.88,0,0,0-.93,1.65c0,.29.1.47.68,1.23a2.75,2.75,0,0,1,.83,1.9,2,2,0,0,1-1.95,2A2.59,2.59,0,0,1,.65,10C.65,6.65,4.11,3.7,8.07,3.7s6.85,2.74,6.85,6.44a7.3,7.3,0,0,1-1.05,3.74c-.72,1.29-.72,1.29-3.89,4.38-4.47,4.24-6.09,6.08-7.89,9H9.58c2.56,0,3.17-.5,5.05-4.06l1.08.36-2,6.25H0Z"/><path class="cls-2" d="M50.54,15.53c0,4.46-2.88,8-8.21,10a39.66,39.66,0,0,1-8.5,1.91c-.4,0-.76-.26-.76-.51s.11-.14.69-.21C42.22,25.27,47.41,21,47.41,15.49c0-4.06-2.56-6.65-6.63-6.65A20.45,20.45,0,0,0,31,12a47.13,47.13,0,0,0-4.76,3.45c-1,.9-1.33,1.08-2,1.08a4.69,4.69,0,0,1-3.32-1.76,4.24,4.24,0,0,1-.68-2.7c0-.46.07-.61.32-.61s.14,0,.18.18a2.38,2.38,0,0,0,2.45,1.91c.86,0,1.33-.18,3.35-1.37C32.1,9,36.64,7.44,40.85,7.44,46.55,7.44,50.54,10.79,50.54,15.53Z"/><path class="cls-2" d="M73.28,6.79a33.54,33.54,0,0,1,.5,4.35,19.77,19.77,0,0,1-4.39,11.44c-2.09,2.69-4,4-5.91,4A3.23,3.23,0,0,1,61,25.24a8.39,8.39,0,0,1-1.87-5.68c0-7.62,6.63-13.88,14.7-13.88,7.13,0,12.1,4.46,12.1,10.86,0,5.71-3.39,10.35-9.08,12.4a22,22,0,0,1-4.93,1.19c-.26,0-.47-.18-.47-.33s.11-.14.61-.29A16.27,16.27,0,0,0,78.86,26a13.12,13.12,0,0,0,4.11-10c0-3.31-1-5.76-3.1-7.3a9.28,9.28,0,0,0-5.59-1.87Zm-1.45.15A12.8,12.8,0,0,0,61.28,19.67c0,2.66,1,4.67,2.38,4.67,1.55,0,4.43-2.91,6.19-6.26A22.61,22.61,0,0,0,72.38,9.6a7,7,0,0,0-.47-2.48Z"/><path class="cls-2" d="M100.44,13.84c1.37.9,2,1.73,2,2.8A1.52,1.52,0,0,1,101,18.12c-.58,0-.9-.25-1.23-.86a8.17,8.17,0,0,0-4.53-4c-.22-.08-.33-.15-.33-.26s.58-.36,1.3-.36A9.12,9.12,0,0,1,100.44,13.84Zm-.43,15c-.9,0-2.42-1.15-3.25-2.51a3.37,3.37,0,0,1-.54-2.16q0-.54.33-.54c.14,0,.18.07.47.47a2.69,2.69,0,0,0,2.59,1.36c1.23,0,3.39-1,6.16-2.77a72.82,72.82,0,0,0,11.06-9.49,40.29,40.29,0,0,0,3.86-4.78c.28-.43.43-.57.57-.57s.25.21.25.39c0,.69-1.8,3.71-3.53,6a52.77,52.77,0,0,1-15.52,13.19c-1.19.68-1.7,1-1.77,1A.81.81,0,0,1,100,28.83Zm4.75-21.68c1.37.83,2,1.73,2,2.88a1.62,1.62,0,0,1-1.55,1.69c-.61,0-.83-.18-1.22-1a7.93,7.93,0,0,0-5.3-4.06c-.25,0-.36-.07-.36-.22S99,6,100,6A10.54,10.54,0,0,1,104.76,7.15ZM119.53,6a1.23,1.23,0,0,1-1.15,1.18c-.5,0-.72-.14-1-.71A6.44,6.44,0,0,0,114,3.56c-.25-.07-.36-.11-.36-.22s.43-.25,1-.25C117.19,3.09,119.53,4.46,119.53,6Zm4.07-1.55a1.27,1.27,0,0,1-1.18,1.22,1,1,0,0,1-1-.72,6.63,6.63,0,0,0-3.53-3c-.18,0-.26-.11-.26-.18s.54-.29,1.12-.29C121.19,1.47,123.6,3,123.6,4.42Z"/><path class="cls-2" d="M134.81,15.67a3.8,3.8,0,0,1,1.87,3c0,.94-.5,1.55-1.26,1.55s-.86-.29-1.15-1.3c-.47-1.65-2-3.66-3.1-4.09-.4-.18-.47-.22-.47-.36s.18-.26.47-.26A7.18,7.18,0,0,1,134.81,15.67Zm-1.88,15.68a5.46,5.46,0,0,0-.72.18,1.88,1.88,0,0,1-.36.07.5.5,0,0,1-.43-.4c0-.1.07-.14.22-.18a26,26,0,0,0,5.4-2.8,31.43,31.43,0,0,0,8.25-8,21.25,21.25,0,0,0,2.23-4.49,13.57,13.57,0,0,0,.58-2.62,1.48,1.48,0,0,0-1-1.41c-.25-.07-.33-.14-.33-.25s.44-.39,1-.39a2.72,2.72,0,0,1,2.09,1c1.19,1.22,1.58,1.72,1.58,2.05s-.14.47-.9,1C147.38,22.86,139.78,29.84,132.93,31.35Zm9.34-15.21a1.45,1.45,0,0,1-1.37,1.51.91.91,0,0,1-.94-.83c-.32-2-1.91-4.49-3.21-5.06-.14-.08-.21-.15-.21-.26s.14-.21.36-.21C139.2,11.29,142.27,14,142.27,16.14Z"/><path class="cls-2" d="M171.73,25A29.77,29.77,0,0,1,162,29.12a27.85,27.85,0,0,1-.79.18c-.22,0-.5-.18-.5-.36s.1-.22.54-.36A38.13,38.13,0,0,0,171,23.22a30.58,30.58,0,0,0,7.24-8.77,13.69,13.69,0,0,0,1.59-4.35c0-.57-.43-.9-1.08-.9a47.35,47.35,0,0,0-12,2.09,1.78,1.78,0,0,1-.61.18,4.7,4.7,0,0,1-2.05-1.08,2.72,2.72,0,0,1-.83-1.91c0-.68.11-1,.36-1s.14.07.25.32c.22.68,1.48,1.26,2.81,1.26s6.12-.5,9.55-1a6.49,6.49,0,0,0,3.1-.94c.79-.46.86-.5,1.15-.5.5,0,.83.18,2.38,1.47.39.33.75.62.82.69.62.43.8.65.8.93s-.15.36-.58.54l-.79.47C179.19,18.55,176.49,21.93,171.73,25Zm18-20.57A3.46,3.46,0,1,1,186.36,1,3.45,3.45,0,0,1,189.75,4.42Zm-5.73,0a2.27,2.27,0,1,0,2.23-2.26A2.26,2.26,0,0,0,184,4.42Z"/><path class="cls-2" d="M204.91,27.18c-2.63,1.51-5.9,2.73-7.35,2.73-.32,0-.57-.18-.57-.36s.07-.22.29-.25a25.46,25.46,0,0,0,7.45-3.81,24.59,24.59,0,0,0,7.06-7.8c1.3-2.38,1.88-3.78,1.88-4.5s-.4-.93-1.15-.93a62.71,62.71,0,0,0-6.35.83,49.5,49.5,0,0,0-6.26,1.61,1.38,1.38,0,0,1-.58.15,4.15,4.15,0,0,1-2.05-1.26,3.61,3.61,0,0,1-.94-2.37c0-.29.11-.47.32-.47s.15,0,.22.25c.22.72,1.59,1.29,3,1.29.58,0,.58,0,4.94-.43,2.91-.32,4.64-.5,5.18-.57a12,12,0,0,0,4-1.12,2.5,2.5,0,0,1,.65-.18c.68,0,3.28,2,3.28,2.59,0,.33-.15.47-1.3,1.33C213,20.92,210.14,24.12,204.91,27.18ZM199.62,4.53c.36.54,1.19.79,2.52.79a27.64,27.64,0,0,0,8.47-1.47,2.36,2.36,0,0,1,1.11-.33c.36,0,.69.15,1.77.72.75.4,1,.65,1,1s-.33.57-1.66.72c-1.84.21-1.91.21-4.72.72a35.18,35.18,0,0,1-5.44.64A2.9,2.9,0,0,1,199.94,6a6,6,0,0,1-.72-1.54c0-.07.07-.18.15-.18S199.47,4.31,199.62,4.53Z"/><path class="cls-2" d="M240.44,13.37c1.83.83,1.83.83,1.83,1.19a1.12,1.12,0,0,1-.14.5,7.82,7.82,0,0,0-.33,2.88l.08,3.67V25.7l0,2.48c0,.47,0,.9,0,1.19,0,.94-.33,1.47-.87,1.47-1.08,0-2.34-.93-2.34-1.76a3,3,0,0,1,.11-.68A115.85,115.85,0,0,0,239.71,16a3.61,3.61,0,0,0-.43-2.12,46.18,46.18,0,0,1-9.36,7.41,16.09,16.09,0,0,1-4,1.69c-.15,0-.36-.15-.36-.29s.07-.18.36-.29c5.69-2.59,16.82-13.95,16.82-17.11,0-.36-.68-1-1.19-1.12-.32-.07-.39-.14-.39-.28s.75-.51,1.47-.51c1.34,0,4.07,2,4.07,2.92,0,.25-.1.36-.43.53A2.66,2.66,0,0,0,245,7.87a58.36,58.36,0,0,1-5,5.29Z"/><path class="cls-2" d="M266.3,11.22a1.5,1.5,0,0,1-1.65,1.54c-.47,0-.73-.18-1.09-.82A7.91,7.91,0,0,0,258,7.51c-.22-.07-.33-.14-.33-.25s.65-.43,1.7-.43C262.84,6.83,266.3,9,266.3,11.22Zm-4.68,16a5.36,5.36,0,0,1-2.6-1.87,2.66,2.66,0,0,1-.9-2.27c0-.68.18-1.22.44-1.22s.21.07.28.25A2.55,2.55,0,0,0,261,23.91c1.47,0,5.83-2.7,11.06-6.83a71.48,71.48,0,0,0,6.73-6c.72-.72,2.67-3,3-3.38s.43-.57.61-.57a.29.29,0,0,1,.29.32c0,.58-1.59,3-3.39,5.21a55.86,55.86,0,0,1-7.71,7.77,54.76,54.76,0,0,1-8.57,5.9C262.38,26.93,262,27.18,261.62,27.18Z"/><path class="cls-2" d="M288.85,23.8c4.4,1,7.35,3.31,7.35,5.68a1.79,1.79,0,0,1-1.73,1.9,1.57,1.57,0,0,1-1.15-.5c-.29-.36-.29-.36-.72-1.94-.72-2.23-1.37-3-4-4.64Z"/><path class="cls-2" d="M334.82,28.26a1.86,1.86,0,0,1,2.06,1.65c0,.93-.76,1.44-2.17,1.44-6,0-10.37-3.17-10.37-7.59,0-1.79.32-2.73,1.87-5.35a17.42,17.42,0,0,0-6.7,4.53c-.36.43-.61.57-.94.57-.57,0-.86-.68-.86-2.12,0-1,.14-1.29,1.91-3.16.43-.44,1.26-1.33,2.13-2.3,1-1.15,2.05-2.31,3.17-3.56l3.78-4.1c.75-.86,1.26-1.44,1.37-1.51.86-.83,1-1.08,1-1.65s-.44-1.26-.94-1.26c-.33,0-.79.28-3.17,1.9s-2.74,1.84-3.28,1.84a2.41,2.41,0,0,1-2.05-2.34c0-1,.21-1.8.46-1.8s.15,0,.15.25a1.82,1.82,0,0,0,1.55,1.55A32.94,32.94,0,0,0,330,2.66a1.41,1.41,0,0,1,.82-.22c1.37,0,3.68,2.27,3.68,3.64,0,.61-.33,1-1.08,1.43a26.6,26.6,0,0,0-9.77,8,18.5,18.5,0,0,0-2.41,3.52c0,.11.22.22.43.22a2.12,2.12,0,0,0,.94-.29,64.86,64.86,0,0,1,9.91-3.88,32.27,32.27,0,0,1,5.18-1.37,2.61,2.61,0,0,1,1.77,1.15,3,3,0,0,1,.83,1.44c0,.29-.43.58-.94.58-.18,0-.47,0-.79-.08a16.57,16.57,0,0,0-2.27-.14,17.84,17.84,0,0,0-8.11,1.83,6.48,6.48,0,0,0-2.55,5.15,4.17,4.17,0,0,0,2.23,3.66,11.33,11.33,0,0,0,5.11,1c.51,0,.76,0,1.19,0Z"/><path class="cls-2" d="M357.66,18.19c0,3.09.11,5.39.51,10.79a4.4,4.4,0,0,1,0,.57,1.32,1.32,0,0,1-.5,1,3.85,3.85,0,0,1-1.73.76c-.32,0-.43-.29-.5-1.22a23.91,23.91,0,0,0-1.88-7.66,19.25,19.25,0,0,0-1.8,5.57,1.16,1.16,0,0,1-1,1.08c-.33,0-.58-.22-.83-.72a8,8,0,0,1-.58-2.19c0-.54.22-.94,1.08-2.05.43-.58.72-1,2.27-3.27-.61-1.12-.9-1.62-1.58-2.77-1-1.62-1.26-2.34-1.26-3.13,0-1,.57-1.69,2.41-2.87A24.15,24.15,0,0,1,356,10.17V9.38c0-5.25-.29-5.82-2.74-6a.17.17,0,0,1-.18-.18c0-.29,1.51-1,2.16-1,1.23,0,3.68,1.51,3.68,2.23,0,.11,0,.11-.18.57a24.92,24.92,0,0,0-.94,5.25c.72.18.94.43.94,1a16.3,16.3,0,0,1-.61,2.33c4.61-4.78,7.13-6.39,9.87-6.39s4.46,1.65,4.46,4a11.44,11.44,0,0,1-.43,2.81,62.09,62.09,0,0,0-1.4,9.16,2,2,0,0,0,2.23,2.3c2.77,0,5.08-1.76,6.48-4.88.18-.36.26-.47.4-.47s.47.32.47.61a7.73,7.73,0,0,1-.5,1.55c-1.3,3.34-4.4,5.67-7.53,5.67-2.42,0-3.86-1.86-3.86-5.06a81.86,81.86,0,0,1,.94-8.24,21.92,21.92,0,0,0,.32-2.94c0-1.8-.83-2.92-2.23-2.92-2.42,0-5,1.84-9.66,6.87ZM356,16c0-.79,0-1.08,0-1.47,0-.18,0-.29,0-1.73-.22-.29-.36-.39-.61-.39a6.78,6.78,0,0,0-2.45,1.15,2.16,2.16,0,0,0-1.12,2,5,5,0,0,0,.69,2.23c.21.47.25.61,1,2.45l1.59-2.66Zm-.11,10c.11.29.15.36.25.36s.26-.36.26-2.3c0-2.91,0-3.95-.11-6.58-1.05,2-1.19,2.27-2.13,4C354.93,23.37,355.39,24.59,355.86,26Z"/><path class="cls-2" d="M404,28.47A1.86,1.86,0,0,1,406,30.13c0,.93-.76,1.43-2.16,1.43a13.88,13.88,0,0,1-6.77-1.69A6.57,6.57,0,0,1,393.47,24c0-1.8.33-2.73,1.88-5.36a17.49,17.49,0,0,0-6.7,4.53c-.36.43-.62.58-.94.58-.58,0-.87-.69-.87-2.12,0-1.05.18-1.33,1.91-3.17s1.84-1.94,5.3-5.86l3.78-4.1c.76-.86,1.26-1.43,1.37-1.51.87-.82,1-1.07,1-1.61,0-.69-.43-1.3-.94-1.3-.32,0-.79.29-3.17,1.91s-2.74,1.83-3.28,1.83a2.41,2.41,0,0,1-2.05-2.34c0-1,.22-1.79.47-1.79s.14,0,.14.25a1.84,1.84,0,0,0,1.55,1.54,31.66,31.66,0,0,0,6.2-2.58,1.42,1.42,0,0,1,.83-.22c1.37,0,3.67,2.26,3.67,3.63,0,.61-.32,1-1.08,1.44a26.71,26.71,0,0,0-9.76,8,16.78,16.78,0,0,0-2.42,3.52c0,.11.22.22.44.22a2.23,2.23,0,0,0,.93-.29,69.94,69.94,0,0,1,9.91-3.85A34.47,34.47,0,0,1,406.84,14a2.61,2.61,0,0,1,1.76,1.15,3,3,0,0,1,.83,1.41c0,.28-.43.57-.93.57a7.87,7.87,0,0,1-.8-.07,15,15,0,0,0-2.27-.14,17.76,17.76,0,0,0-8.1,1.83,6.48,6.48,0,0,0-2.56,5.14c0,3,2.63,4.64,7.31,4.64a11.84,11.84,0,0,0,1.23,0ZM411,9.6a1.32,1.32,0,0,1-1.26,1.26c-.36,0-.54-.18-.86-.79a6,6,0,0,0-3.5-2.77c-.21,0-.25-.07-.25-.18s.47-.25,1.22-.25C408.68,6.87,411,8.23,411,9.6Zm3-2.23a1.27,1.27,0,0,1-1.26,1.29c-.29,0-.43-.1-.61-.43a6.21,6.21,0,0,0-3.75-3.12c-.18-.08-.21-.11-.21-.19s.43-.25,1.18-.25C411.7,4.67,414,6,414,7.37Z"/><path class="cls-2" d="M428.81,18.19c0,3.09.11,5.39.51,10.79a4.4,4.4,0,0,1,0,.57,1.32,1.32,0,0,1-.5,1,3.85,3.85,0,0,1-1.73.76c-.32,0-.43-.29-.5-1.22a23.91,23.91,0,0,0-1.88-7.66,19.25,19.25,0,0,0-1.8,5.57,1.16,1.16,0,0,1-1,1.08c-.33,0-.58-.22-.83-.72a8,8,0,0,1-.58-2.19c0-.54.22-.94,1.08-2.05.43-.58.72-1,2.27-3.27-.61-1.12-.9-1.62-1.58-2.77-1-1.62-1.26-2.34-1.26-3.13,0-1,.57-1.69,2.41-2.87a24.15,24.15,0,0,1,3.71-1.95V9.38c0-5.25-.29-5.82-2.74-6a.17.17,0,0,1-.18-.18c0-.29,1.52-1,2.16-1,1.23,0,3.68,1.51,3.68,2.23,0,.11,0,.11-.18.57a24.92,24.92,0,0,0-.94,5.25c.72.18.94.43.94,1a16.3,16.3,0,0,1-.61,2.33c4.61-4.78,7.13-6.39,9.87-6.39s4.46,1.65,4.46,4a11.44,11.44,0,0,1-.43,2.81,62.09,62.09,0,0,0-1.4,9.16,2,2,0,0,0,2.23,2.3c2.77,0,5.08-1.76,6.49-4.88.18-.36.25-.47.39-.47s.47.32.47.61a7.73,7.73,0,0,1-.5,1.55c-1.3,3.34-4.4,5.67-7.53,5.67-2.42,0-3.86-1.86-3.86-5.06a81.86,81.86,0,0,1,.94-8.24,21.92,21.92,0,0,0,.32-2.94c0-1.8-.83-2.92-2.23-2.92-2.41,0-5,1.84-9.66,6.87ZM427.12,16c0-.79,0-1.08,0-1.47,0-.18,0-.29,0-1.73-.22-.29-.36-.39-.61-.39a6.78,6.78,0,0,0-2.45,1.15,2.18,2.18,0,0,0-1.12,2,5,5,0,0,0,.69,2.23c.21.47.25.61,1,2.45l1.59-2.66ZM427,26c.11.29.15.36.25.36s.26-.36.26-2.3c0-2.91,0-3.95-.11-6.58-1.05,2-1.19,2.27-2.13,4C426.08,23.37,426.54,24.59,427,26Z"/><path class="cls-2" d="M471.72,6.79a33.54,33.54,0,0,1,.5,4.35,19.7,19.7,0,0,1-4.39,11.44c-2.09,2.69-4,4-5.91,4a3.21,3.21,0,0,1-2.48-1.36,8.34,8.34,0,0,1-1.88-5.68c0-7.62,6.63-13.88,14.7-13.88,7.13,0,12.1,4.46,12.1,10.86,0,5.71-3.38,10.35-9.07,12.4a22.08,22.08,0,0,1-4.94,1.19c-.25,0-.47-.18-.47-.33s.11-.14.62-.29A16.29,16.29,0,0,0,477.3,26a13.08,13.08,0,0,0,4.11-10c0-3.31-1-5.76-3.1-7.3a9.27,9.27,0,0,0-5.58-1.87Zm-1.44.15a12.8,12.8,0,0,0-10.56,12.73c0,2.66,1,4.67,2.38,4.67,1.55,0,4.43-2.91,6.2-6.26a22.76,22.76,0,0,0,2.52-8.48,7,7,0,0,0-.47-2.48Z"/><path class="cls-2" d="M497.55,19a.69.69,0,0,1,.65.65.91.91,0,0,1-.61.75l-.33.11a23.33,23.33,0,0,1-2.48,8.19c-1,1.77-2.45,3.6-2.89,3.6a.24.24,0,0,1-.25-.22.9.9,0,0,1,.11-.36c2.13-3.52,3-7,3.28-13.26Zm-2.7-13.84h2.23A41.29,41.29,0,0,0,498,.25l2.7.72a.62.62,0,0,1,.43.61.51.51,0,0,1-.39.5l-.62.29-1.73,2.81H503l.75-1.33,2.13,1.72a1,1,0,0,1,.32.54.61.61,0,0,1-.32.54l-.54.25v11c0,.36-.76.72-1.44.72-.4,0-.54-.15-.54-.47V16.79h-2.63v11.5c0,1.12.36,1.22,4.72,1.22,1.15,0,1.15,0,7.67-.14l4.29-.07c2.88,0,3.67-.36,4.1-1.65L522.66,24h.72l-.22,3.71v.61c0,.21,0,.21.73.79a1.1,1.1,0,0,1,.28.72c0,.5-.5.93-1.37,1.15-1.54.47-2.08.47-13.25.5l-3.39,0-3.67-.07c-2.78,0-3.61-.62-3.68-2.56V16.79h-4.29v1.83c0,.33-.86.72-1.54.72-.26,0-.4-.11-.4-.22V3.67ZM498,10.5V6h-3.5V10.5Zm0,5.43V11.36h-3.5v4.57Zm5.37-5.43V6h-3.5V10.5Zm0,5.43V11.36h-3.5v4.57Zm-.8,9.45a57.07,57.07,0,0,0,1.19-6.33l2.31,1a.43.43,0,0,1,.29.4.88.88,0,0,1-.54.71l-.83.47c-.72,2-.87,2.41-1.41,3.67l3.32-.29a5.65,5.65,0,0,0-1.48-2.44l.25-.29c.72.32.87.39,1.62.79A35.18,35.18,0,0,0,512.86,14h-2c-.28,0-1.11,0-2,0l-2.45.07L506.05,13c1.37,0,2.31.08,2.78.11l2,0h2.42v-5c-2.31,0-2.67,0-5.23.11l-.39-1.11c2.81.11,3.2.11,5.62.14V.4l2.66.28a.69.69,0,0,1,.62.72.66.66,0,0,1-.4.61l-.87.47V7.26H518l1.59-1.94,2.52,1.91a1,1,0,0,1,.22.57c0,.22-.18.32-.58.32h-6.49v5h3.79l1.8-2.16,2.59,1.94a.9.9,0,0,1,.4.65c0,.29-.18.43-.47.43h-7.74c1.47,3.2,5.51,7,9.11,8.63a9.05,9.05,0,0,0-3.21,1.76,25.12,25.12,0,0,1-6.27-9.17V27.32c0,.36-.07.51-.32.65a2.78,2.78,0,0,1-1.19.32c-.32,0-.5-.14-.5-.43V17.62a42.16,42.16,0,0,1-5.3,5.93,3.77,3.77,0,0,1,1.73,2.91,1.24,1.24,0,0,1-1.19,1.29,1,1,0,0,1-.72-.32,6.88,6.88,0,0,1-.54-1.51L503.64,27l-.29.51a.81.81,0,0,1-.61.36c-.22,0-.33-.11-.47-.36l-.9-2.05Z"/><path class="cls-2" d="M538.48,10c-2.49,0-3.46,0-6.38.18l-.72-1.33c3.6.14,5,.18,7.1.18h4.21c.11-2.12.18-5.4.18-9l3.42.47a.76.76,0,0,1,.72.72,1.1,1.1,0,0,1-.54.82l-.75.54c0,.9-.08,1.37-.08,1.8l-.14,2.91c0,.22-.07.83-.11,1.73H555l1-1.69,2.84,2.37a.84.84,0,0,1,.4.61c0,.18-.14.47-.32.51l-.83.32c-.47,10.6-.9,14-2.24,17a5.05,5.05,0,0,1-3.13,3,6.45,6.45,0,0,1-1.66.4c-.29,0-.39-.11-.39-.47l0-.83c0-.5-.11-.64-.68-.93l-3.46-1.73V27l3.71.76a5.07,5.07,0,0,0,1.26.14c1.73,0,2.34-1,3-5.1a101.4,101.4,0,0,0,.9-12.8H545.28c-.82,11.32-3,15.74-9.72,19.73-2.13,1.23-5.15,2.56-5.91,2.56a.24.24,0,0,1-.25-.25c0-.22,0-.22,1.11-.76a21.8,21.8,0,0,0,8.72-7.48c1.91-2.87,2.81-6.61,3.39-13.8Z"/></g></g></g></g></svg>