<svg xmlns="http://www.w3.org/2000/svg" width="448.5" height="61.62" viewBox="0 0 224.25 30.81">
  <defs>
    <style>
      .cls-1 {
        fill: #333;
        fill-rule: evenodd;
      }
    </style>
  </defs>
  <path id="ハローウッズ" class="cls-1" d="M627.983,3337.57c-0.288.04-.432,0.11-0.432,0.29,0,0.14.036,0.18,0.612,0.43,2.556,1.15,5.437,5.33,7.237,10.47,0.612,2.13.612,2.13,0.864,2.49a1.354,1.354,0,0,0,1.152.61,2.428,2.428,0,0,0,2.341-2.52c0-2.52-2.268-6.3-5.257-8.78C632.448,3338.87,629.387,3337.46,627.983,3337.57Zm-8.5.83c-0.468,0-.684.07-0.684,0.25,0,0.11.036,0.14,0.216,0.22a1.872,1.872,0,0,1,.864,1.8c0,1.47-1.26,3.88-3.349,6.4a22.237,22.237,0,0,1-7.453,6.19,0.79,0.79,0,0,0-.576.51,0.288,0.288,0,0,0,.324.28c0.972,0,3.817-1.15,5.977-2.41,3.133-1.8,4.9-3.52,8.425-8.2a3.135,3.135,0,0,1,.756-0.79,0.756,0.756,0,0,0,.361-0.54,3.6,3.6,0,0,0-1.513-2.16A4.578,4.578,0,0,0,619.486,3338.4Zm52.323,13.14a0.542,0.542,0,0,0,.576-0.54c0-.4-0.54-1.05-1.585-1.91l1.045-3.96a29.586,29.586,0,0,1,1.224-3.92,6.5,6.5,0,0,0,1.548-1.91c0-.33-0.288-0.61-1.4-1.55-1.477-1.19-1.909-1.48-2.341-1.48a11.409,11.409,0,0,0-2.736,1.23c-4.105.65-5.869,0.86-11.522,1.37a4.339,4.339,0,0,0-3.384-1.77c-1.116,0-2.089.25-2.089,0.54,0,0.15.036,0.18,0.216,0.22a2.8,2.8,0,0,1,2.017,1.69,57.827,57.827,0,0,1,1.44,11.73,8.544,8.544,0,0,1-.072,1.16c-0.036.21-.072,0.39-0.072,0.43a2.856,2.856,0,0,0,2.448,2.12c0.72,0,1.224-.76,1.224-1.87a9.033,9.033,0,0,0-.108-1.12,63.022,63.022,0,0,1,9.434-.86,16.451,16.451,0,0,1,3.636.36Zm-3.961-2.45c-5.113.61-6.193,0.72-9.794,1.01-0.324-4-.5-5.87-0.936-9.36a108.628,108.628,0,0,1,10.982-1.44c0.756,0,1.044.21,1.044,0.79a4.38,4.38,0,0,1-.036.65Zm44.221-7.24a28.891,28.891,0,0,1-5.725,1.23c-2.484.29-11.449,0.83-14.186,0.83-2.88,0-4.068-.33-4.608-1.23a0.519,0.519,0,0,0-.36-0.36c-0.36,0-.54.36-0.54,1.01a3.347,3.347,0,0,0,1.3,2.91,6.426,6.426,0,0,0,3.1,1.19,1.265,1.265,0,0,0,.5-0.11c2.7-1.08,8.029-1.58,17.031-1.58,1.332,0,2.412.04,3.168,0.11,1.549,0.14,2.7.25,3.025,0.25,1.116,0,1.836-.47,1.836-1.19C716.606,3343.51,715.094,3342.47,712.069,3341.85Zm20.746-3.85a4.563,4.563,0,0,0-3.384-1.65c-0.72,0-1.584.28-1.584,0.54a0.174,0.174,0,0,0,.18.18,1.689,1.689,0,0,1,1.512,1.11c0.684,1.33,1.188,4.65,1.188,7.63a9.028,9.028,0,0,1-.108,1.44c0.72,1.3,1.476,1.87,2.52,1.87a1.266,1.266,0,0,0,1.333-1.33c0-.61-0.469-4.17-1.009-7.7,0.18-.5.36-0.58,1.909-0.83,2.808-.47,9.577-1.4,10.225-1.4a0.715,0.715,0,0,1,.792.68,3.181,3.181,0,0,1-.108.72,2.145,2.145,0,0,0-.108.51c-2.052,9.14-7.6,15.29-16.994,18.86-0.4.14-.5,0.21-0.5,0.39a0.233,0.233,0,0,0,.288.22,25.41,25.41,0,0,0,4.608-1.19,24.493,24.493,0,0,0,11.018-7.49c2.3-2.73,3.385-4.75,5.869-10.94,0.9-.72,1.188-1.01,1.188-1.29,0-.54-2.916-2.99-3.6-2.99a1.476,1.476,0,0,0-.793.32c-1.548.87-2.016,0.97-6.264,1.48a10.538,10.538,0,0,1,1.008-4.1,1.185,1.185,0,0,0,.18-0.51c0-1.04-2.341-2.3-4.213-2.3-1.008,0-2.052.32-2.052,0.65,0,0.1.072,0.18,0.324,0.21,1.512,0.43,1.944,1.84,1.908,6.34C735.336,3337.75,734.76,3337.82,732.815,3338Zm40.657,1.05c-0.216,0-.4.07-0.4,0.21a0.327,0.327,0,0,0,.252.29c1.4,0.68,2.809,2.77,3.385,5.11,0.252,0.97.54,1.33,1.152,1.33a1.92,1.92,0,0,0,1.8-1.98C779.665,3341.64,776.461,3339.05,773.472,3339.05Zm14.114,3.81c0.612-.65.684-0.72,0.684-0.97a5.827,5.827,0,0,0-1.764-2.48,3.647,3.647,0,0,0-2.592-1.19,0.487,0.487,0,0,0-.576.36,0.665,0.665,0,0,0,.36.39,2.4,2.4,0,0,1,.468,1.55c0,2.85-1.944,7.06-4.789,10.48a28.939,28.939,0,0,1-9.9,7.66c-0.9.36-.9,0.36-0.9,0.54a0.353,0.353,0,0,0,.361.29c1.368,0,5.22-1.51,7.417-2.88A29.535,29.535,0,0,0,787.586,3342.86Zm-19.7-.75c-0.36,0-.468.07-0.468,0.21a0.556,0.556,0,0,0,.4.43,9.637,9.637,0,0,1,3.277,4.86,0.98,0.98,0,0,0,.972.79,1.844,1.844,0,0,0,1.656-2.01C773.724,3344.12,771.024,3342.11,767.891,3342.11Zm59.92-13.43c-0.9,0-1.44.14-1.44,0.32,0,0.15.072,0.22,0.36,0.26a6.352,6.352,0,0,1,3.277,2.73c0.468,0.83.612,0.94,1.3,0.94a1.392,1.392,0,0,0,1.44-1.41C832.744,3329.98,830.512,3328.68,827.811,3328.68Zm-3.708,2.52c-0.864,0-1.225.07-1.225,0.25s0.072,0.25.433,0.36a6.318,6.318,0,0,1,3.06,3.03,1.013,1.013,0,0,0,1.08.71,1.329,1.329,0,0,0,1.368-1.4C828.819,3332.6,826.587,3331.2,824.1,3331.2Zm-9.254,4.14c-3.78.79-4.248,0.86-5.293,0.86a2.657,2.657,0,0,1-2.2-.79c-0.18-.32-0.18-0.32-0.324-0.32a1.39,1.39,0,0,0-.4,1.15,2.427,2.427,0,0,0,.864,1.69,4.567,4.567,0,0,0,2.016,1.15,3.23,3.23,0,0,0,1.081-.36,49.543,49.543,0,0,1,6.373-2.27,4.251,4.251,0,0,1,1.44-.32,0.49,0.49,0,0,1,.576.47,10.011,10.011,0,0,1-.864,2.48,35.837,35.837,0,0,1-4.285,7.56,32.008,32.008,0,0,1-11.594,9.83c-0.972.43-1.188,0.57-1.188,0.75a0.285,0.285,0,0,0,.324.25,7.9,7.9,0,0,0,1.765-.43,28.428,28.428,0,0,0,9.541-5.22,32.306,32.306,0,0,0,5.293-5.76,16.745,16.745,0,0,1,6.517,7.96c0.684,1.65,1.08,2.09,1.944,2.09a2.266,2.266,0,0,0,2.2-2.24c0-1.69-1.224-3.67-3.348-5.36a16.358,16.358,0,0,0-6.841-3.2,61.166,61.166,0,0,0,4.645-8.06c0.828-.51,1.152-0.8,1.152-1.12,0-.29-0.216-0.58-1.008-1.22-1.369-1.12-2.233-1.66-2.629-1.66a2.242,2.242,0,0,0-1.26.69,4.17,4.17,0,0,1-2.268.97Z" transform="translate(-608.5 -3328.69)"/>
</svg>
