<svg xmlns="http://www.w3.org/2000/svg" width="295.25" height="31.531" viewBox="0 0 295.25 31.531">
  <defs>
    <style>
      .cls-1 {
        fill: #333;
        fill-rule: evenodd;
      }
    </style>
  </defs>
  <path id="モータースポーツ" class="cls-1" d="M128.834,578.216c0,2.447.54,4.247,1.656,5.363,1.153,1.151,3.889,1.871,7.165,1.871,3.925,0,6.157-.864,6.157-2.375a1.947,1.947,0,0,0-1.692-2.016,4.539,4.539,0,0,0-1.188.288,17.669,17.669,0,0,1-5.905.72c-2.664,0-3.384-.9-3.384-4.247,0-.972.036-1.98,0.108-4.931a74.675,74.675,0,0,1,7.813-.576c0.972,0,3.672.144,4.68,0.252a9.869,9.869,0,0,0,1.261.108,0.837,0.837,0,0,0,.936-0.756c0-.5-0.468-1.043-1.656-1.836a7.93,7.93,0,0,0-2.413-1.259c-0.288,0-.36.036-2.844,1.259-4,.649-4.789.756-7.6,1.152a8.137,8.137,0,0,1,.576-3.239,1.385,1.385,0,0,0,.252-0.72c0-.36-0.54-0.828-1.981-1.655,6.913-1.224,7.85-1.512,7.85-2.268,0-.72-1.693-1.979-2.665-1.979a1.412,1.412,0,0,0-.72.216,29.4,29.4,0,0,1-11.486,2.879,2.514,2.514,0,0,1-2.088-.72,0.316,0.316,0,0,0-.324.288,3.4,3.4,0,0,0,.72,1.476,3.806,3.806,0,0,0,2.809,1.331,18.789,18.789,0,0,0,3.708-.576,5.817,5.817,0,0,1,.324,2.628c0,0.576,0,1.583-.036,2.771-2.52.324-2.736,0.36-4.789,0.648a21.346,21.346,0,0,1-4.5.54,3.669,3.669,0,0,1-2.7-.756,0.408,0.408,0,0,0-.216-0.144,0.367,0.367,0,0,0-.252.432c0,1.476,1.945,3.491,3.385,3.491a3.974,3.974,0,0,0,1.8-.5,45.65,45.65,0,0,1,7.273-2.123Zm51.891-7.235A28.488,28.488,0,0,1,175,572.205c-2.484.288-11.45,0.828-14.186,0.828-2.881,0-4.069-.324-4.609-1.224a0.524,0.524,0,0,0-.36-0.36c-0.36,0-.54.36-0.54,1.008a3.355,3.355,0,0,0,1.3,2.915,6.463,6.463,0,0,0,3.1,1.188,1.413,1.413,0,0,0,.5-0.108c2.7-1.08,8.029-1.583,17.03-1.583,1.332,0,2.413.036,3.169,0.108,1.548,0.143,2.7.251,3.024,0.251,1.116,0,1.836-.467,1.836-1.187C185.261,572.637,183.749,571.593,180.725,570.981Zm29.135,4.283c-2.88,4.571-9.9,10.222-15.266,12.346-0.216.072-.288,0.144-0.288,0.252a0.246,0.246,0,0,0,.252.252,23.534,23.534,0,0,0,5.292-1.728,33.214,33.214,0,0,0,12.17-9.034,17.121,17.121,0,0,1,1.945,2.411c0.792,1.26,1.26,1.62,2.052,1.62a1.782,1.782,0,0,0,1.692-1.944c0-1.511-.936-2.771-3.528-4.678a49.475,49.475,0,0,0,4-6.479c0.36-.252.36-0.252,0.972-0.684a0.834,0.834,0,0,0,.432-0.576c0-.324-0.4-0.756-1.44-1.619-0.252-.18-0.5-0.4-0.792-0.648a3.2,3.2,0,0,0-1.62-.864,2.061,2.061,0,0,0-1.08.4,14.223,14.223,0,0,1-5.941,1.512,1.771,1.771,0,0,1-.756-0.144c1.188-2.376,1.44-2.952,1.44-3.42,0-1.224-2.449-3.023-4.141-3.023a1.966,1.966,0,0,0-1.584.432c0,0.108.072,0.144,0.4,0.288a2.711,2.711,0,0,1,1.116,2.447c0,3.563-4.176,10.906-7.957,14-0.648.5-.648,0.5-0.648,0.648a0.232,0.232,0,0,0,.216.216,11.673,11.673,0,0,0,3.168-1.8,24.727,24.727,0,0,0,3.889-3.635A14.986,14.986,0,0,1,209.86,575.264Zm-5.4-4.1a43.981,43.981,0,0,0,2.809-4.427,3.377,3.377,0,0,0,1.548.468,8.278,8.278,0,0,0,1.4-.18c0.648-.108,1.332-0.252,2.052-0.36a8.666,8.666,0,0,0,1.08-.18,1.24,1.24,0,0,1,.324-0.036,0.409,0.409,0,0,1,.4.432,6.35,6.35,0,0,1-.613,2.088,14.7,14.7,0,0,1-2.3,4.211A21.188,21.188,0,0,0,204.459,571.161Zm52.611-.18a28.473,28.473,0,0,1-5.725,1.224c-2.484.288-11.45,0.828-14.186,0.828-2.881,0-4.069-.324-4.609-1.224a0.524,0.524,0,0,0-.36-0.36c-0.36,0-.54.36-0.54,1.008a3.355,3.355,0,0,0,1.3,2.915,6.467,6.467,0,0,0,3.1,1.188,1.413,1.413,0,0,0,.5-0.108c2.7-1.08,8.029-1.583,17.03-1.583,1.333,0,2.413.036,3.169,0.108,1.548,0.143,2.7.251,3.024,0.251,1.116,0,1.837-.467,1.837-1.187C261.607,572.637,260.094,571.593,257.07,570.981Zm26.435-6.514c-3.781.792-4.249,0.864-5.293,0.864a2.668,2.668,0,0,1-2.2-.792c-0.18-.324-0.18-0.324-0.324-0.324a1.4,1.4,0,0,0-.4,1.152,2.425,2.425,0,0,0,.865,1.691,4.556,4.556,0,0,0,2.016,1.152,3.289,3.289,0,0,0,1.08-.36,47.962,47.962,0,0,1,6.373-2.267,4.205,4.205,0,0,1,1.44-.324,0.489,0.489,0,0,1,.576.468,10.054,10.054,0,0,1-.864,2.483,35.818,35.818,0,0,1-4.284,7.558,32.011,32.011,0,0,1-11.594,9.826c-0.972.432-1.188,0.576-1.188,0.756a0.291,0.291,0,0,0,.324.252,8.055,8.055,0,0,0,1.764-.432,28.5,28.5,0,0,0,9.541-5.219,32.218,32.218,0,0,0,5.293-5.759,16.717,16.717,0,0,1,6.517,7.955c0.684,1.655,1.08,2.087,1.944,2.087A2.26,2.26,0,0,0,297.3,583c0-1.692-1.224-3.672-3.349-5.363a16.294,16.294,0,0,0-6.841-3.2,61.309,61.309,0,0,0,4.645-8.063c0.828-.5,1.152-0.791,1.152-1.115,0-.288-0.216-0.576-1.008-1.224-1.368-1.116-2.232-1.656-2.628-1.656a2.258,2.258,0,0,0-1.261.684,4.141,4.141,0,0,1-2.268.972ZM321.5,580.951a1.221,1.221,0,0,1-.684,1.332,14.811,14.811,0,0,1-2.52-1.332,1.343,1.343,0,0,0-.612-0.324,0.316,0.316,0,0,0-.216.252,0.8,0.8,0,0,0,.288.432,8.242,8.242,0,0,1,2.736,4.823c0.108,0.612.252,0.756,0.828,0.756a2.945,2.945,0,0,0,2.233-1.26,4.538,4.538,0,0,0,1.008-2.771c0-.576-0.036-1.584-0.072-2.628-0.18-4.355-.288-9.07-0.252-11.157a35.034,35.034,0,0,1,5.076-.324,38.557,38.557,0,0,1,4.069.252,10.379,10.379,0,0,0,1.26.108,1.143,1.143,0,0,0,1.3-1.044c0-.864-2.3-2.339-3.636-2.339a2.288,2.288,0,0,0-.936.251c-1.693.792-3.061,1.08-7.021,1.512,0.072-2.483.18-3.131,0.612-4.067a2.238,2.238,0,0,0,.216-0.756c0-.36-0.324-0.72-1.476-1.584a3.937,3.937,0,0,0-2.269-1.043c-0.792,0-2.268.612-2.268,0.971,0,0.144.108,0.217,0.432,0.217,1.368,0.108,1.728,1.043,1.836,4.966,0,0.252.036,0.9,0.072,1.692-4.212.468-6.229,0.648-7.705,0.648-2.2,0-3.024-.252-3.637-1.188a0.649,0.649,0,0,0-.4.684c0,1.368,2.2,3.563,3.565,3.563a1.627,1.627,0,0,0,.864-0.36,20.816,20.816,0,0,1,7.345-1.835Zm-5.4-7.342c-0.144,0-.18.036-0.252,0.216-0.612,2.339-2.628,4.391-5.58,5.722a1.485,1.485,0,0,0-1.009,1.44,1.854,1.854,0,0,0,1.8,1.8c1.188,0,2.736-.972,3.924-2.448a7.084,7.084,0,0,0,1.584-4.679C316.564,574.221,316.42,573.609,316.1,573.609Zm11.738-.792c-0.612,0-1.008.144-1.008,0.36,0,0.108.072,0.18,0.4,0.288,2.3,0.936,4.285,3.419,5.185,6.514,0.432,1.476.972,2.052,1.872,2.052a1.991,1.991,0,0,0,1.98-2.2C336.259,576.308,332.083,572.817,327.834,572.817Zm5.509-16.233a3.618,3.618,0,1,0,3.565,3.6A3.636,3.636,0,0,0,333.343,556.584Zm-0.036,1.368a2.232,2.232,0,1,1-2.268,2.2A2.221,2.221,0,0,1,333.307,557.952Zm38.281,13.029a28.488,28.488,0,0,1-5.725,1.224c-2.485.288-11.45,0.828-14.186,0.828-2.881,0-4.069-.324-4.609-1.224a0.524,0.524,0,0,0-.36-0.36c-0.36,0-.54.36-0.54,1.008a3.355,3.355,0,0,0,1.3,2.915,6.463,6.463,0,0,0,3.1,1.188,1.413,1.413,0,0,0,.5-0.108c2.7-1.08,8.03-1.583,17.031-1.583,1.332,0,2.412.036,3.168,0.108,1.549,0.143,2.7.251,3.025,0.251,1.116,0,1.836-.467,1.836-1.187C376.124,572.637,374.612,571.593,371.588,570.981Zm22.69-7.846c-0.468,0-.684.072-0.684,0.252a0.233,0.233,0,0,0,.216.18c1.656,0.864,3.312,3.275,4,5.795,0.432,1.691.648,2.015,1.441,2.015a2.237,2.237,0,0,0,2.088-2.3C401.335,566.374,397.482,563.135,394.278,563.135Zm16.562,4.535c0.756-.756.828-0.828,0.828-1.152,0-.54-0.972-1.871-2.232-3.059a4.36,4.36,0,0,0-2.988-1.26,0.457,0.457,0,0,0-.54.324,0.311,0.311,0,0,0,.108.216,2.35,2.35,0,0,1,.828,2.232c0,3.527-2.557,8.89-6.193,13.1-3.457,3.923-8.354,7.522-12.026,8.89-0.4.108-.468,0.18-0.468,0.36a0.291,0.291,0,0,0,.324.252,20.462,20.462,0,0,0,3.456-.864,28.583,28.583,0,0,0,12.278-8.458A35.336,35.336,0,0,0,410.84,567.67Zm-23.4-.828c-0.5,0-.684.072-0.684,0.252a0.217,0.217,0,0,0,.144.18,11.622,11.622,0,0,1,3.924,5.111c0.468,1.332.468,1.332,0.684,1.548a0.9,0.9,0,0,0,.756.36,2.212,2.212,0,0,0,1.945-2.412c0-1.548-1.116-3.059-3.061-4.1A9.561,9.561,0,0,0,387.437,566.842Z" transform="translate(-116.406 -556.594)"/>
</svg>
