<svg xmlns="http://www.w3.org/2000/svg" width="330.469" height="30" viewBox="0 0 330.469 30">
  <defs>
    <style>
      .cls-1 {
        fill: #333;
        fill-rule: evenodd;
      }
    </style>
  </defs>
  <path id="ホテルツインリンク" class="cls-1" d="M111.548,478.709a1.221,1.221,0,0,1-.684,1.332,14.811,14.811,0,0,1-2.52-1.332,1.343,1.343,0,0,0-.612-0.324,0.316,0.316,0,0,0-.216.252,0.8,0.8,0,0,0,.288.432,8.242,8.242,0,0,1,2.736,4.823c0.108,0.612.252,0.756,0.828,0.756a2.943,2.943,0,0,0,2.233-1.26,4.538,4.538,0,0,0,1.008-2.771c0-.576-0.036-1.584-0.072-2.628-0.18-4.355-.288-9.07-0.252-11.157a35.039,35.039,0,0,1,5.077-.324,38.555,38.555,0,0,1,4.068.252,10.379,10.379,0,0,0,1.26.108,1.144,1.144,0,0,0,1.3-1.044c0-.864-2.3-2.34-3.637-2.34a2.276,2.276,0,0,0-.936.252c-1.692.792-3.061,1.08-7.021,1.512,0.072-2.483.18-3.131,0.612-4.067a2.238,2.238,0,0,0,.216-0.756c0-.36-0.324-0.72-1.476-1.584a3.935,3.935,0,0,0-2.269-1.043c-0.792,0-2.268.611-2.268,0.971,0,0.144.108,0.216,0.432,0.216,1.368,0.108,1.728,1.044,1.836,4.967,0,0.252.036,0.9,0.072,1.692-4.212.468-6.229,0.648-7.7,0.648-2.2,0-3.024-.252-3.636-1.188a0.649,0.649,0,0,0-.4.684c0,1.368,2.2,3.563,3.564,3.563a1.627,1.627,0,0,0,.864-0.36,20.816,20.816,0,0,1,7.345-1.835Zm-5.4-7.342c-0.144,0-.18.036-0.253,0.215-0.612,2.34-2.628,4.392-5.58,5.723a1.485,1.485,0,0,0-1.008,1.44,1.854,1.854,0,0,0,1.8,1.8c1.188,0,2.736-.972,3.924-2.448a7.082,7.082,0,0,0,1.585-4.679C106.616,471.978,106.472,471.367,106.148,471.367Zm11.737-.792c-0.612,0-1.008.144-1.008,0.36,0,0.108.072,0.18,0.4,0.288,2.305,0.936,4.285,3.419,5.185,6.514,0.432,1.476.972,2.052,1.872,2.052a1.992,1.992,0,0,0,1.981-2.2C126.311,474.066,122.134,470.575,117.885,470.575Zm25.355-10.51a0.314,0.314,0,0,0-.216.288,4.77,4.77,0,0,0,1.008,1.944,2.93,2.93,0,0,0,2.34,1.044,50.364,50.364,0,0,0,8.93-1.476c1.944-.432,2.664-0.756,2.664-1.26a1.863,1.863,0,0,0-1.116-1.332,5.811,5.811,0,0,0-1.872-.648,1.773,1.773,0,0,0-.648.18,14.945,14.945,0,0,1-2.2.9,24.806,24.806,0,0,1-6.409,1.188,3.608,3.608,0,0,1-2.376-.756A0.191,0.191,0,0,0,143.24,460.065Zm7.489,8.242a1.513,1.513,0,0,1,.288.936c0,1.944-1.224,5.4-2.88,8.062a21.66,21.66,0,0,1-7.093,7.055c-1.729.9-1.729,0.9-1.729,1.044a0.234,0.234,0,0,0,.288.216,25.606,25.606,0,0,0,5.257-2.088c4.465-2.448,8.029-7.09,10.01-12.957a1.338,1.338,0,0,0,.54-0.828c0-.252-0.36-0.612-1.764-1.692,2.3-.144,2.772-0.18,3.672-0.18a44.154,44.154,0,0,1,4.9.36,5.7,5.7,0,0,0,.936.108,1.2,1.2,0,0,0,1.332-1.043c0-.612-0.36-1.008-1.476-1.692a6.955,6.955,0,0,0-2.448-1.116c-1.477.9-2.521,1.224-5.509,1.656-3.025.432-12.89,1.475-14.15,1.475-1.513,0-2.2-.287-2.809-1.151a0.823,0.823,0,0,0-.36.684,2.493,2.493,0,0,0,.9,1.8,5.675,5.675,0,0,0,2.737,1.4,1.979,1.979,0,0,0,.576-0.108A35.571,35.571,0,0,1,150.729,468.307Zm37.921,7.7-0.577,2.015a6.163,6.163,0,0,0,1.333,2.34,1.418,1.418,0,0,0,.972.611,0.953,0.953,0,0,0,.54-0.215l0.5-.4c0.144-.072.468-0.288,1.008-0.612a34.653,34.653,0,0,0,10.766-9.9c1.548-2.232,3.456-5.8,3.456-6.479a0.278,0.278,0,0,0-.288-0.251,0.581,0.581,0,0,0-.468.467,35.335,35.335,0,0,1-3.6,4.9,36.875,36.875,0,0,1-6.733,5.9,11.261,11.261,0,0,1-3.961,1.836c-0.252,0-.4-0.288-0.4-0.756,0-.216.036-0.5,0.072-0.864,0-.252.144-1.98,0.324-4.5,0.18-2.663.288-3.671,0.36-4.391a3.123,3.123,0,0,1,.36-1.116,2.382,2.382,0,0,0,.324-0.9,2.245,2.245,0,0,0-1.044-1.3c-1.512-1.187-1.908-1.4-2.592-1.4a2.664,2.664,0,0,0-1.837.828c0,0.144.072,0.18,0.36,0.252a1.482,1.482,0,0,1,.9,1.116c0.216,0.611.252,2.483,0.252,9.358Zm-3.025-8.423a5.12,5.12,0,0,1,.252-0.791,1.554,1.554,0,0,0,.144-0.5,4.679,4.679,0,0,0-1.872-2.34,5,5,0,0,0-2.773-1.151,1.34,1.34,0,0,0-1.332.611,0.349,0.349,0,0,0,.252.252,2.827,2.827,0,0,1,1.549,2.844,23.246,23.246,0,0,1-1.837,7.594,20.97,20.97,0,0,1-7.129,9.718,0.946,0.946,0,0,0-.5.5,0.278,0.278,0,0,0,.288.252,3.391,3.391,0,0,0,1.044-.36,19.489,19.489,0,0,0,5.761-4.319,27.146,27.146,0,0,0,5.941-11.446Zm36.877-6.694c-0.469,0-.685.072-0.685,0.252a0.233,0.233,0,0,0,.216.18c1.657,0.864,3.313,3.275,4,5.8,0.432,1.691.648,2.015,1.44,2.015a2.238,2.238,0,0,0,2.089-2.3C229.559,464.132,225.706,460.893,222.5,460.893Zm16.562,4.535c0.756-.756.828-0.828,0.828-1.152,0-.54-0.972-1.872-2.232-3.059a4.362,4.362,0,0,0-2.989-1.26,0.457,0.457,0,0,0-.54.324,0.311,0.311,0,0,0,.108.216,2.35,2.35,0,0,1,.828,2.232c0,3.527-2.556,8.889-6.193,13.1-3.456,3.923-8.353,7.522-12.025,8.89-0.4.108-.468,0.18-0.468,0.36a0.291,0.291,0,0,0,.324.252,20.462,20.462,0,0,0,3.456-.864,28.589,28.589,0,0,0,12.278-8.458A35.368,35.368,0,0,0,239.064,465.428Zm-23.4-.828c-0.5,0-.684.072-0.684,0.252a0.217,0.217,0,0,0,.144.18,11.616,11.616,0,0,1,3.925,5.111c0.468,1.332.468,1.332,0.684,1.547a0.9,0.9,0,0,0,.756.36,2.211,2.211,0,0,0,1.944-2.411c0-1.548-1.116-3.059-3.06-4.1A9.561,9.561,0,0,0,215.66,464.6Zm53.187,18.752c0-.036-0.072-1.691-0.18-5-0.072-3.311-.144-6.3-0.144-6.334a10.713,10.713,0,0,1,.252-2.376,1.169,1.169,0,0,0,.324-0.756c0-.36-0.216-0.54-1.4-1.08-0.108-.036-0.468-0.216-0.828-0.395,2.484-2.664,3.6-3.924,4.681-5.219a3.666,3.666,0,0,1,1.26-1.152,0.7,0.7,0,0,0,.468-0.612c0-.468-0.54-1.224-1.836-2.519-1.117-1.152-1.8-1.512-2.953-1.512-0.684,0-1.044.108-1.044,0.324a0.308,0.308,0,0,0,.216.216,1.534,1.534,0,0,1,.864,1.547c0,4-9.721,14.757-16.346,18.141-0.648.323-.684,0.323-0.684,0.5a0.278,0.278,0,0,0,.288.252,16.7,16.7,0,0,0,3.492-1.223c3.673-1.584,5.365-2.808,10.19-7.343a4.962,4.962,0,0,1,.252,2.088c0,1.8-.036,3.275-0.18,6.73a15.427,15.427,0,0,1-.612,4.823,3.14,3.14,0,0,0-.324,1.152c0,0.828,2.124,2.807,2.988,2.807,0.72,0,1.3-.863,1.3-1.943Zm25.715-22.6c-1.3,0-2.2.18-2.2,0.468,0,0.108.108,0.18,0.4,0.252a10.5,10.5,0,0,1,5.257,4.823c0.5,1.08.828,1.367,1.548,1.367a1.983,1.983,0,0,0,1.98-1.907C301.547,463.269,298.054,460.749,294.562,460.749Zm23.115,0.108a0.964,0.964,0,0,0-.54.432A79.656,79.656,0,0,1,305,472.95c-3.925,3.1-7.274,4.859-9.218,4.859a2.917,2.917,0,0,1-2.124-.864c-0.18-.359-0.216-0.359-0.324-0.359-0.288,0-.5.683-0.5,1.439,0,0.792.5,1.548,1.872,2.843a4.723,4.723,0,0,0,2.52,1.512,1.025,1.025,0,0,0,.5-0.216c0.252-.18.469-0.395,0.685-0.575a4.048,4.048,0,0,1,.684-0.469,54.047,54.047,0,0,0,15.338-13.928c1.512-2.052,3.493-5.507,3.493-6.083A0.307,0.307,0,0,0,317.677,460.857Zm27.947-2.3c-0.828,0-2.448.684-2.448,1.044,0,0.18.108,0.252,0.5,0.288,1.584,0.144,1.872,1.044,1.872,5.687,0,7.342-.756,10.366-3.348,13.5a19.677,19.677,0,0,1-7.921,5.651c-0.5.144-.648,0.252-0.648,0.432,0,0.108.108,0.18,0.288,0.18a15.051,15.051,0,0,0,3.456-.936c5.149-1.764,8.462-4.355,10.154-7.882,1.08-2.3,1.4-5,1.4-12.094,0-2.088.036-2.195,0.5-2.951a0.858,0.858,0,0,0,.144-0.432c0-.324-0.36-0.648-1.548-1.4C346.381,458.625,346.2,458.553,345.624,458.553Zm-9.865,1.764c-0.756,0-2.7.864-2.7,1.224q0,0.162.324,0.216a2.219,2.219,0,0,1,2.16,1.871c0.108,0.576.216,3.276,0.216,4.643a27.168,27.168,0,0,1-.144,3.383,3.592,3.592,0,0,0-.144.649c0,1.007,1.62,2.447,2.7,2.447a1.233,1.233,0,0,0,.936-1.44c0-.4-0.036-0.9-0.071-1.512-0.073-1.115-.181-3.671-0.181-4.211a20.473,20.473,0,0,1,.216-4.211,2.163,2.163,0,0,0,.109-0.575C339.18,461.9,336.983,460.317,335.759,460.317Zm35.148,0.432c-1.3,0-2.2.18-2.2,0.468,0,0.108.108,0.18,0.4,0.252a10.5,10.5,0,0,1,5.257,4.823c0.5,1.08.828,1.367,1.548,1.367a1.983,1.983,0,0,0,1.98-1.907C377.892,463.269,374.4,460.749,370.907,460.749Zm23.116,0.108a0.968,0.968,0,0,0-.541.432,79.656,79.656,0,0,1-12.133,11.661c-3.925,3.1-7.273,4.859-9.218,4.859a2.917,2.917,0,0,1-2.124-.864c-0.18-.359-0.216-0.359-0.324-0.359-0.288,0-.5.683-0.5,1.439,0,0.792.5,1.548,1.872,2.843a4.723,4.723,0,0,0,2.52,1.512,1.024,1.024,0,0,0,.5-0.216c0.252-.18.468-0.395,0.684-0.575a4.048,4.048,0,0,1,.684-0.469,54.034,54.034,0,0,0,15.338-13.928c1.512-2.052,3.493-5.507,3.493-6.083A0.306,0.306,0,0,0,394.023,460.857Zm24.238,3.995a2.275,2.275,0,0,0,1.188.432,17.873,17.873,0,0,0,2.7-.576,8.143,8.143,0,0,1,1.584-.36,0.692,0.692,0,0,1,.684.72,10.538,10.538,0,0,1-1.656,4.067A40.611,40.611,0,0,1,414.624,479a31.156,31.156,0,0,1-9.469,5.867c-0.288.108-.4,0.18-0.4,0.324a0.27,0.27,0,0,0,.252.216,17.325,17.325,0,0,0,3.745-.972,35.281,35.281,0,0,0,12.566-8.1c2.556-2.556,3.744-4.284,7.093-10.366a9.429,9.429,0,0,1,.936-0.864,1,1,0,0,0,.432-0.576c0-.684-2.737-3.167-3.493-3.167a2.76,2.76,0,0,0-1.26.576,13.844,13.844,0,0,1-5.581,1.943,1.682,1.682,0,0,1-.612-0.108,16.024,16.024,0,0,0,1.692-3.311,3.48,3.48,0,0,0-1.548-1.8,5.374,5.374,0,0,0-2.988-1.043c-0.756,0-1.441.216-1.441,0.468,0,0.072.072,0.143,0.361,0.215a2.276,2.276,0,0,1,1.08,2.2c0,3.419-4.681,10.762-8.534,13.425-0.612.432-.684,0.468-0.684,0.648a0.232,0.232,0,0,0,.216.216,11.666,11.666,0,0,0,2.7-1.3C412.9,471.511,415.381,469.027,418.261,464.852Z" transform="translate(-99.313 -456.406)"/>
</svg>
