<svg xmlns="http://www.w3.org/2000/svg" width="301.125" height="33.344" viewBox="0 0 301.125 33.344">
  <defs>
    <style>
      .cls-1 {
        fill: #333;
        fill-rule: evenodd;
      }
    </style>
  </defs>
  <path id="安全運転スクール" class="cls-1" d="M115.7,776.215c2.917-.144,4-0.18,6.373-0.18h2.989a80.667,80.667,0,0,1-4.285,8.134,2.745,2.745,0,0,0-.576,1.224,0.764,0.764,0,0,0,.72.54,12.257,12.257,0,0,0,1.548.288c0.576,0,.792-0.288,2.413-3.167a35.231,35.231,0,0,1,6.409,2.015c-2.449,2.951-7.346,5.075-14.619,6.3-0.864.108-1.116,0.251-1.116,0.575,0,0.216.144,0.325,0.432,0.325a44.2,44.2,0,0,0,8.534-1.188c4.392-1.044,7.057-2.376,9.469-4.787a34.042,34.042,0,0,1,6.337,3.851c2.052,1.727,2.268,1.871,3.06,1.871a1.332,1.332,0,0,0,1.405-1.439c0-1.116-.757-2.088-2.521-3.239a27.592,27.592,0,0,0-6.733-3.168,31.846,31.846,0,0,0,3.529-8.134h8.461a0.59,0.59,0,0,0,.684-0.612,1.293,1.293,0,0,0-.576-0.972l-2.628-2.267-2.881,2.879H128.8c0.936-2.016,1.224-2.7,2.341-5.471l0.864-.144a0.767,0.767,0,0,0,.684-0.719,1.063,1.063,0,0,0-.72-0.9l-2.989-1.332a67.668,67.668,0,0,1-3.456,8.566h-3.457c-2.376,0-3.672-.036-7.093-0.18Zm19.839-.18a25.777,25.777,0,0,1-2.988,7.306,61.435,61.435,0,0,0-7.273-1.08l0.468-.935c0.324-.648.648-1.3,0.972-1.98l1.008-2.015c0.252-.576.4-0.9,0.612-1.3h7.2Zm-14.222-9.97h20.919a17.885,17.885,0,0,1-1.728,4.175,1.385,1.385,0,0,0-.288.612,0.232,0.232,0,0,0,.216.216c0.432,0,2.916-1.764,4.393-3.131l1.44,0.18,0.18,0.036a0.8,0.8,0,0,0,.972-0.648,1.59,1.59,0,0,0-.432-1.008l-3.277-3.275-1.476,1.871H132.8v-2.627l0.612-.54a1,1,0,0,0,.36-0.72c0-.468-0.288-0.684-0.972-0.72l-3.313-.18v4.787h-8.317c-0.252-1.3-.612-2.087-1.008-2.087-0.18,0-.252.108-0.252,0.432a4.62,4.62,0,0,1-1.332,3.6c-2.017,1.872-2.053,1.943-2.053,2.7a1.692,1.692,0,0,0,1.8,1.764,2.852,2.852,0,0,0,2.088-1.08,4.409,4.409,0,0,0,.936-3.131Zm49.946-3.347a0.955,0.955,0,0,0,.72-0.792c0-.4-0.252-0.576-1.008-0.792l-3.708-.972c-2.377,6.767-7.561,13.858-12.854,17.565-1.044.755-1.152,0.827-1.152,1.043a0.323,0.323,0,0,0,.324.324c0.72,0,3.708-1.8,6.517-3.959a36.791,36.791,0,0,0,9.973-11.8,30.027,30.027,0,0,0,13.25,14.217,8,8,0,0,1,3.529-3.276c-8.1-2.843-12.242-5.758-16.023-11.373Zm-16.67,28.758c2.7-.108,3.456-0.108,6.085-0.18h24.664a0.464,0.464,0,0,0,.54-0.54,1.07,1.07,0,0,0-.54-0.828l-2.917-2.448-2.772,2.844h-8.822v-7.27h11.2a0.439,0.439,0,0,0,.5-0.433,0.913,0.913,0,0,0-.5-0.755l-2.916-2.448-2.485,2.664h-5.8V776h7.057a0.569,0.569,0,0,0,.576-0.576,1.021,1.021,0,0,0-.54-0.792l-2.7-2.123-2.34,2.519h-7.561c-0.289,0-.973-0.036-1.981-0.072-0.4,0-1.548-.036-2.808-0.072l0.612,1.224c2.124-.036,3.1-0.072,4.177-0.108h2.088v6.083h-4.9c-0.468,0-1.44-.036-2.844-0.072-0.5-.036-1.837-0.072-3.421-0.108l0.828,1.3c4.1-.144,4.285-0.144,5.437-0.144h4.9v7.27h-6.733c-0.54,0-1.8-.036-3.709-0.108-0.5,0-1.836-.036-3.384-0.072Zm44.545-12.85,0.9-.252a0.646,0.646,0,0,0,.54-0.611,1.119,1.119,0,0,0-.4-0.756l-3.025-2.88-1.332,1.8h-0.4c-1.332,0-2.3-.036-4.825-0.144l0.684,1.3c2.017-.108,2.557-0.144,4.141-0.144h0.468v9.97a38.79,38.79,0,0,1-5.4,2.591l2.592,2.987a0.843,0.843,0,0,0,.541.252,0.578,0.578,0,0,0,.576-0.467l0.288-1.188c1.152-1.332,1.584-1.836,3.42-4.1a13.279,13.279,0,0,0,7.345,5.254,49.17,49.17,0,0,0,9.686.72c2.592,0,4.464-.108,8.029-0.4a4.621,4.621,0,0,1,1.224-2.447,9.051,9.051,0,0,1,.612-0.828c-6.985.576-10.693,0.792-13.5,0.792-3.924,0-7.345-.432-9.109-1.188a11.566,11.566,0,0,1-3.061-1.907v-8.351Zm-6.3-16.52a0.165,0.165,0,0,0-.18.144,0.457,0.457,0,0,0,.144.252,6.336,6.336,0,0,1,2.305,4c0.4,2.016.4,2.016,0.72,2.412a1.669,1.669,0,0,0,1.152.467,1.9,1.9,0,0,0,1.944-2.051c0-2.052-1.512-3.707-4.32-4.751A7.586,7.586,0,0,0,192.833,762.106Zm8.066,23.215c2.736-.108,3.384-0.144,5.617-0.144h3.636v4.031a0.422,0.422,0,0,0,.5.432,7.723,7.723,0,0,0,1.656-.36c0.612-.216.828-0.4,0.828-0.756v-3.347h11.45a0.456,0.456,0,0,0,.4-0.5,0.752,0.752,0,0,0-.288-0.576l-2.988-2.411-2.449,2.519H213.14v-3.059h4.465v1.008a0.476,0.476,0,0,0,.54.467,4.868,4.868,0,0,0,1.8-.5,0.89,0.89,0,0,0,.612-0.828v-6.335l0.756-.432a0.519,0.519,0,0,0,.288-0.468,1.24,1.24,0,0,0-.468-0.828l-2.737-2.159-0.972,1.764H213.14v-2.664h10.226a0.477,0.477,0,0,0,.468-0.468,0.8,0.8,0,0,0-.36-0.612l-2.7-2.015L218.9,769.2H213.14v-2.447l0.721-.4a0.734,0.734,0,0,0,.36-0.576,0.625,0.625,0,0,0-.612-0.576l-3.457-.288V769.2h-3.708c-1.585,0-2.413-.036-4.789-0.108l0.576,1.188c2.268-.072,3.168-0.108,4.213-0.108h3.708v2.664h-4.069l-3.1-1.44v11.229c0,0.288.144,0.4,0.5,0.4,1.3,0,2.448-.468,2.448-0.971v-0.9h4.213v3.059h-3.636c-2.269,0-3.169-.036-6.265-0.18Zm5.04-5.147V777.3h4.213v2.879h-4.213Zm0-3.851V773.8h4.213v2.519h-4.213Zm7.2,3.851V777.3h4.465v2.879H213.14Zm0-3.851V773.8h4.465v2.519H213.14Zm-8.569-12.057h15.05l-0.072.216a2.376,2.376,0,0,1-.216.575c-0.252.5-.54,1.08-0.792,1.62a2.614,2.614,0,0,0-.468.972,0.219,0.219,0,0,0,.252.216,1.963,1.963,0,0,0,.828-0.4c0.288-.144.685-0.4,1.009-0.54,0.684-.4.936-0.54,1.584-0.936l2.376,0.072a0.712,0.712,0,0,0,.648-0.72,1.132,1.132,0,0,0-.4-0.827l-3.1-2.952-1.368,1.728H204.391c-0.54-1.512-.756-1.98-1.008-1.98-0.18,0-.252.108-0.252,0.36,0,1.728-.36,2.375-2.124,3.923a1.807,1.807,0,0,0-.972,1.476,1.69,1.69,0,0,0,1.692,1.692c1.548,0,2.844-1.728,2.844-3.816v-0.683Zm25,22.243c3.06-.108,3.24-0.108,4.1-0.108h1.837v6.658c0,0.288.216,0.432,0.684,0.432,1.116,0,2.16-.468,2.16-0.971V786.4h7.381a0.558,0.558,0,0,0,.648-0.468,0.922,0.922,0,0,0-.36-0.648l-2.736-2.231-1.944,2.375h-2.989v-4h2.52v1.115c0,0.252.181,0.36,0.541,0.36,1.224,0,2.232-.432,2.232-0.971v-8.026l0.468-.252a0.559,0.559,0,0,0,.4-0.541,0.862,0.862,0,0,0-.4-0.647l-2.376-2.592-1.261,1.62h-2.124v-3.635h7.093a0.583,0.583,0,0,0,.648-0.54,0.857,0.857,0,0,0-.54-0.684l-2.664-2.051-1.944,2.3h-2.593v-4.355l0.756-.468a0.861,0.861,0,0,0,.612-0.72,0.684,0.684,0,0,0-.72-0.612l-3.492-.288v6.443h-1.621c-0.36,0-1.116,0-2.232-.072-0.4,0-1.368-.036-2.592-0.072l0.792,1.224c1.908-.072,2.736-0.108,4.032-0.108h1.621V771.5H233.67l-3.2-1.4v12.741c0,0.325.144,0.433,0.72,0.433,1.008,0,2.088-.433,2.088-0.829v-1.007h2.233v4H233.67c-1.584-.036-1.728-0.036-4.824-0.144Zm3.708-6.047v-3.455h2.233v3.455h-2.233Zm0-4.427v-3.563h2.233v3.563h-2.233Zm5.077,4.427v-3.455h2.52v3.455h-2.52Zm0-7.99h2.52v3.563h-2.52v-3.563ZM259.63,772.8l-2.376,2.7h-8.173c-0.4,0-1.26,0-2.233-.036l-2.592-.108,0.648,1.224c1.98-.036,3.385-0.108,4.177-0.108h1.332a96.294,96.294,0,0,1-2.7,11.7c-2.377.144-2.737,0.144-5.329,0.252l1.476,3.275a0.931,0.931,0,0,0,.72.72,1.04,1.04,0,0,0,.792-0.648l0.36-.611c1.188-.288,2.053-0.468,2.449-0.576l3.888-.936c1.224-.324,2.449-0.612,3.673-0.9,0.288-.072,1.116-0.288,2.412-0.648a11.178,11.178,0,0,1,.5,2.124c0.324,1.907.612,2.3,1.62,2.3a2.087,2.087,0,0,0,1.981-2.232,7.375,7.375,0,0,0-2.449-5.075,19.908,19.908,0,0,0-4.572-2.987,0.557,0.557,0,0,0-.216-0.108,0.513,0.513,0,0,0-.144-0.072,0.18,0.18,0,0,0-.18.215,0.487,0.487,0,0,0,.18.324,13.922,13.922,0,0,1,3.024,4.788l-1.8.143c-0.9.108-1.836,0.18-2.773,0.252-0.432.036-1.368,0.108-2.7,0.216l-1.692.108c0.18-.36.252-0.54,0.5-1.079,0.4-.792.756-1.584,1.116-2.376l1.44-3.095c0.5-1.08.972-2.16,1.44-3.24,0.216-.467.576-1.259,0.865-1.835h8.137c0.4,0,.612-0.144.612-0.432a1.029,1.029,0,0,0-.54-0.756Zm-13.214-6.443,0.72,1.224c3.061-.108,3.133-0.108,4.069-0.108h9.686a0.6,0.6,0,0,0,.684-0.5,1.022,1.022,0,0,0-.576-0.72l-2.737-2.124L256.1,766.5h-4.9c-0.4,0-1.26,0-2.232-.036Zm36.589,1.872c-3.781.791-4.249,0.863-5.293,0.863a2.664,2.664,0,0,1-2.2-.791c-0.181-.324-0.181-0.324-0.325-0.324a1.394,1.394,0,0,0-.4,1.151,2.425,2.425,0,0,0,.865,1.692,4.556,4.556,0,0,0,2.016,1.152,3.289,3.289,0,0,0,1.08-.36,48.075,48.075,0,0,1,6.373-2.268,4.205,4.205,0,0,1,1.44-.324,0.489,0.489,0,0,1,.576.468,10.04,10.04,0,0,1-.864,2.484A35.777,35.777,0,0,1,282,779.526a32.01,32.01,0,0,1-11.593,9.826c-0.972.432-1.188,0.576-1.188,0.756a0.291,0.291,0,0,0,.324.252,8.055,8.055,0,0,0,1.764-.432,28.5,28.5,0,0,0,9.541-5.219,32.182,32.182,0,0,0,5.293-5.759,16.717,16.717,0,0,1,6.517,7.955c0.684,1.655,1.08,2.087,1.944,2.087a2.26,2.26,0,0,0,2.2-2.231c0-1.692-1.224-3.672-3.349-5.363a16.307,16.307,0,0,0-6.841-3.2,61.158,61.158,0,0,0,4.645-8.062c0.828-.5,1.152-0.792,1.152-1.116,0-.287-0.216-0.575-1.008-1.223-1.368-1.116-2.232-1.656-2.628-1.656a2.258,2.258,0,0,0-1.261.684,4.141,4.141,0,0,1-2.268.972Zm39.324,2.627a2.278,2.278,0,0,0,1.189.432,17.847,17.847,0,0,0,2.7-.576,8.143,8.143,0,0,1,1.584-.36,0.692,0.692,0,0,1,.684.72,10.544,10.544,0,0,1-1.656,4.067A40.626,40.626,0,0,1,318.693,785a31.192,31.192,0,0,1-9.47,5.867c-0.288.108-.4,0.18-0.4,0.324a0.27,0.27,0,0,0,.252.216,17.311,17.311,0,0,0,3.745-.972,35.261,35.261,0,0,0,12.566-8.1c2.556-2.555,3.744-4.282,7.093-10.365a9.429,9.429,0,0,1,.936-0.864,1,1,0,0,0,.432-0.576c0-.684-2.736-3.167-3.492-3.167a2.762,2.762,0,0,0-1.261.576,13.84,13.84,0,0,1-5.58,1.943,1.687,1.687,0,0,1-.613-0.108,16,16,0,0,0,1.693-3.311,3.473,3.473,0,0,0-1.549-1.8,5.361,5.361,0,0,0-2.988-1.044c-0.756,0-1.44.215-1.44,0.468,0,0.071.072,0.143,0.36,0.215a2.277,2.277,0,0,1,1.08,2.2c0,3.419-4.681,10.762-8.533,13.425-0.612.432-.684,0.468-0.684,0.648a0.232,0.232,0,0,0,.216.216,11.666,11.666,0,0,0,2.7-1.3C316.965,777.511,319.449,775.027,322.329,770.852Zm48.759,3.887a28.488,28.488,0,0,1-5.725,1.224c-2.485.288-11.45,0.828-14.186,0.828-2.881,0-4.069-.324-4.609-1.224a0.524,0.524,0,0,0-.36-0.36c-0.36,0-.54.36-0.54,1.008a3.356,3.356,0,0,0,1.3,2.915,6.463,6.463,0,0,0,3.1,1.188,1.413,1.413,0,0,0,.5-0.108c2.7-1.08,8.03-1.584,17.031-1.584,1.332,0,2.412.036,3.169,0.108,1.548,0.144,2.7.252,3.024,0.252,1.116,0,1.836-.468,1.836-1.187C375.624,776.4,374.112,775.351,371.088,774.739Zm27.01,7.271-0.576,2.015a6.149,6.149,0,0,0,1.333,2.34,1.42,1.42,0,0,0,.972.612,0.948,0.948,0,0,0,.54-0.216l0.5-.4c0.144-.072.468-0.288,1.008-0.612a34.641,34.641,0,0,0,10.766-9.9c1.548-2.232,3.456-5.8,3.456-6.479a0.278,0.278,0,0,0-.288-0.252,0.581,0.581,0,0,0-.468.468,35.329,35.329,0,0,1-3.6,4.895,36.809,36.809,0,0,1-6.733,5.9,11.251,11.251,0,0,1-3.96,1.836c-0.252,0-.4-0.288-0.4-0.756,0-.216.036-0.5,0.072-0.864,0-.252.144-1.98,0.324-4.5,0.18-2.664.288-3.671,0.36-4.391a3.123,3.123,0,0,1,.36-1.116,2.382,2.382,0,0,0,.324-0.9,2.238,2.238,0,0,0-1.044-1.3c-1.512-1.188-1.908-1.4-2.593-1.4a2.661,2.661,0,0,0-1.836.828c0,0.144.072,0.18,0.36,0.252a1.483,1.483,0,0,1,.9,1.115c0.216,0.612.252,2.484,0.252,9.358Zm-3.024-8.422a5.03,5.03,0,0,1,.252-0.792,1.554,1.554,0,0,0,.144-0.5,4.679,4.679,0,0,0-1.872-2.34,4.993,4.993,0,0,0-2.773-1.151,1.338,1.338,0,0,0-1.332.611,0.349,0.349,0,0,0,.252.252,2.826,2.826,0,0,1,1.548,2.844,23.239,23.239,0,0,1-1.836,7.594,20.97,20.97,0,0,1-7.129,9.718,0.946,0.946,0,0,0-.5.5,0.278,0.278,0,0,0,.288.252,3.391,3.391,0,0,0,1.044-.36,19.52,19.52,0,0,0,5.761-4.319,27.157,27.157,0,0,0,5.941-11.446Z" transform="translate(-114.969 -760.156)"/>
</svg>
