<svg id="Layer_1" data-name="Layer 1" xmlns="http://www.w3.org/2000/svg" viewBox="0 0 844 70"><title>video-dokidoki</title><path d="M844,70H0V0H844ZM35.89,5.55,36,2.93C33.7,2.69,31.33,2,29.08,2.3c-7.26.89-14.47,2.11-21.7,3.24-1.53.23-3,.62-4.54.93l-.16,1.7a25.27,25.27,0,0,0,5,1.31C9.81,9.61,12,9,14.13,9.15c1.16.09,2.25,1.17,3.37,1.8-1.09.77-2.13,2.07-3.3,2.2-3,.34-6-.06-9,.27C4.07,13.55,3,14.84,2,15.6c1.12.68,2.19,1.83,3.37,1.94,3.14.29,6.33,0,9.47.25,1,.1,1.93,1.33,2.89,2-.91.76-1.74,2-2.75,2.18a36.84,36.84,0,0,1-7,.14C5.27,22,4,23,4.09,25.88c.17,4.83-.19,9.69.21,14.49.11,1.29,2,3.1,3.37,3.45,2.36.6,5,.06,7.44.37.87.1,1.61,1.28,2.41,2-.79.67-1.53,1.81-2.39,1.92-2.3.29-4.69-.11-7,.26-1.48.25-2.81,1.38-4.2,2.11a20.07,20.07,0,0,0,4.45,2.06c1.76.37,3.76-.28,5.44.23,1.46.43,2.63,1.86,3.92,2.85C16.62,57,15.7,59,14.25,59.5c-2.28.8-5,.22-7.38.85-1.68.45-3.09,1.92-4.62,2.93,1.77.6,3.61,1.84,5.3,1.68,8.57-.83,17.09-2,24.88-3l3.17,5.51a28.69,28.69,0,0,0,4.73-2.85,20.44,20.44,0,0,0,3.31-4.37c6-9.45,8.34-19.91,8.23-31,0-4.22.41-7,5.79-6.89,5.59.08,5.12,3.55,5,7.09-.24,7.33-.44,14.66-.92,22-.6,9.08-.86,9.19-9.66,11.46A3.4,3.4,0,0,0,50,65.07a2.86,2.86,0,0,0,1.33,2.33,9.76,9.76,0,0,0,14.26-7.61c.91-9.78,1.47-19.6,2-29.41.19-3.8,1.26-8.85-.67-11.08-1.77-2.06-7-1.25-10.76-1.39-2.91-.11-4.34-1.23-4.23-4.21.12-3.16.31-6.33.16-9.49C52,3.23,51,2.29,50.37,1.34,49.54,2.18,48.12,3,48,3.89c-.33,2.8.14,5.7-.26,8.48-.27,1.85-1.46,5-2.32,5.06-2.27.08-4.63-1.15-6.88-2-1.43-.55-2.69-1.8-4.13-2-2.28-.35-4.71.21-7-.2-1.84-.34-3.52-1.54-5.27-2.35,1.57-1.08,3-2.54,4.73-3.14A81.87,81.87,0,0,1,35.89,5.55ZM320.73,52.77c-1.66,10-1.66,10-9.08,10-11.88,0-9.85.51-10-10.36-.08-8.4,0-8.51,8.44-8.67,3.07,0,4.54-.83,4.49-4.25-.17-10.51-.14-21,0-31.54,0-3.43-1.26-4.78-4.7-4.75q-18.24.17-36.48,0c-3.35,0-4.8,1.13-4.75,4.66q.21,15.77,0,31.53c0,3.36,1.24,4.4,4.4,4.32,6-.14,12,.14,18-.09,3.82-.15,5.54,1,5.23,5.08s-.1,8.34,0,12.51c.05,3.71,1.9,6.2,5.63,6.38a141.45,141.45,0,0,0,17,0c5.38-.4,5.15-5.17,6-9C325.64,55.16,324.09,53.64,320.73,52.77Zm74.12-45.3c-3.26-1.13-5.39-2.54-7.49-2.5-8.81.15-17.62.71-26.42,1.2-2.1.11-5.12-1-5,3,.13,3.61,2.85,2.54,4.8,2.47,6.73-.23,13.44-.6,20.16-.92l.69,1.08c-1.45,1.61-2.82,3.31-4.37,4.83-9.06,8.86-18.22,17.62-27.16,26.59-.87.88-.52,3-.74,4.53a30.06,30.06,0,0,0,4.56-.56c.7-.18,1.24-1.07,1.78-1.7,7.1-8.17,16.39-11.7,26.83-12.77C389,32,395,34.93,397.37,39.81a13,13,0,0,1-2.46,14.81c-3.81,4-4.57,3.93-7.31-.93a14.8,14.8,0,0,0-16.05-7.49c-4.86.94-8.72,4.73-8.77,9,0,4.83,2.74,7.62,7.12,9.12,8.19,2.8,16.14,1.84,23.73-1.89,9.18-4.51,12.57-12.38,10.14-22.5C402,32.36,394.9,27.7,385.22,28c-3.13.08-6.24.87-9.37,1.26-1,.13-2,0-4.51,0ZM120.27,5.25c-8.67,0-17.34-.1-26,.08-2.15,0-5.58-1.55-5.78,2.43,0,.63,3.56,2,5.52,2.07,6.32.27,12.66.13,19,.09,2.9,0,4.2,1.29,4.28,4.23.1,3.17-1.54,4.09-4.33,4-2.16-.06-4.34.09-6.5,0-2.76-.12-3.85,1.05-3.82,3.85.11,8.52.13,17,0,25.55,0,3,1,4.21,4,4.18q13.75-.15,27.5,0c2.76,0,3.88-1,3.82-3.84-.14-6.34,0-12.69,0-19,0-10.37,0-10.4-10.42-10.69-2.66-.07-5-.09-5-3.83s2-4.49,5.11-4.44c6.16.09,12.34.22,18.49-.07,2.32-.11,4.58-1.34,6.86-2.06-1.27-4-4.69-2.37-7.18-2.44C137.27,5.12,128.77,5.25,120.27,5.25Zm311.93,29c0,7.84.11,15.69-.06,23.53-.07,3.08,1.15,4.27,4.06,4.2,5.33-.13,10.71.24,16-.41,10-1.24,17.64-6.06,20.8-16.16a39.63,39.63,0,0,0,2-11.28c.1-13-4.18-24.51-19.47-27.2-6.46-1.13-13.24-.5-19.87-.58-2.91,0-3.47,1.87-3.45,4.36C432.24,18.57,432.2,26.41,432.2,34.26Zm218,.07c0,7.84-.12,15.68.11,23.51,0,1.36,1.54,3.79,2.46,3.84,9.11.5,18.39,1.45,26.91-3,11.72-6.11,13.51-17,12.91-28.62-.69-13.57-7.11-21.24-20.18-23.4-6.15-1-12.59-.3-18.89-.29-3,0-3.36,2-3.34,4.45C650.26,18.66,650.23,26.5,650.23,34.33ZM493.87,36.61a104.7,104.7,0,0,0,2.23,10.51A21.18,21.18,0,0,0,516,62.59c10.07.5,18.18-4.29,22.06-13.12a39.67,39.67,0,0,0,1.43-27.86c-4.85-16.35-25.2-21.82-37.25-10.07C495.83,17.73,494.14,25.86,493.87,36.61Zm217.44-2.53c1,4.69,1.6,9.5,3.06,14,2.83,8.77,10.71,14.21,20.1,14.5,9.91.29,17.79-4.52,21.52-13.18a39.34,39.34,0,0,0,1.37-27.84c-5-16.14-24.81-21.76-36.9-10.39C714,17.25,712.1,25.35,711.31,34.08ZM598.08,6.76c-7.14-1-7.19-1-10.57,3.18-4.69,5.84-9.29,11.76-14,17.62A26.24,26.24,0,0,1,571,30l-1.26-.4q0-9.36,0-18.72c0-2.29.59-4.87-3.19-4.79s-3.17,2.64-3.17,4.93q0,22.75,0,45.52c0,2.45-.61,5.25,3.44,5.15,3.89-.11,2.86-2.92,2.9-5,.09-4.83-.35-9.72.21-14.49.26-2.15,2.38-4.08,3.65-6.11,1.4,1.14,3.16,2,4.15,3.46,4.17,6,8.33,12.08,12,18.39,2.33,4,5.11,4.56,9.65,2.93-5.93-8.94-11.49-17.59-17.34-26-2.34-3.39-2.61-5.84.4-9.14C587.77,19.85,592.56,13.5,598.08,6.76Zm193,28.57,2.2.43c4.69,7.24,9.51,14.4,14,21.76,2.34,3.83,5.14,5.24,9.36,3.6,0-.56.13-1,0-1.19q-5.68-8.8-11.43-17.59c-8.36-12.74-8.35-12.72,1.47-24.23,3-3.57,6-7.21,9.32-11.2-6.89-1.3-7-1.28-10.37,2.9-3.66,4.53-7.28,9.1-10.92,13.66-1.79,2.24-3.6,4.47-5.4,6.71a8.36,8.36,0,0,1-1.57-5.09c0-5.17.17-10.35-.16-15.49-.07-1.2-1.92-2.29-3-3.42-1.09,1.09-3.11,2.17-3.13,3.28q-.3,24.51,0,49c0,1.08,2.08,2.14,3.19,3.22,1-1.14,2.82-2.22,2.9-3.42.33-5-.24-10,.28-15C788.17,40.56,790,38,791.1,35.33ZM223.74,62.17c-3.14-.74-6-1.38-8.86-2.09-12.16-3-18.92-12.19-14.56-21.6,6.2-13.4,16.26-23,31.42-26,1.42-.29,2.54-2,3.8-3.12C234,8.5,232.39,6.91,230.89,7c-16.78.9-33.54,2.07-50.31,3.13-5,.32-5.39,1-3.38,6l34.91-2.81.52,1.57a29.24,29.24,0,0,0-3.47,3.08c-4.64,5.6-10.1,10.76-13.56,17-5.78,10.48-1.52,22.25,9.18,27.46,4,1.94,8.49,2.77,12.75,4.13C220.68,67.53,222.66,66.49,223.74,62.17ZM150.53,18.43c-3.7-1.24-4.71.34-4.69,3.57.07,10.51-.08,21,.08,31.54.05,3.45-1.17,4.76-4.62,4.73-13.66-.1-27.32-.14-41,0-3.84.05-4.81-1.48-4.75-5,.19-10.51.15-21,0-31.54,0-1.24-1.19-2.47-1.82-3.71-1,1.16-2.79,2.24-2.93,3.5a100.8,100.8,0,0,0-.15,11c0,10.51-.06,21,.08,31.54,0,1.19,1.17,2.37,1.79,3.56,1.06-.74,2.08-1.57,3.2-2.21,1.44-.81,3-2.07,4.45-2.09,13.65-.16,27.31-.14,41,0a10.26,10.26,0,0,1,4.35,1.65,27.11,27.11,0,0,1,3.41,2.59c.53-1.43,1.52-2.85,1.53-4.28C150.57,48.42,150.53,33.61,150.53,18.43Zm467.69,16c0,7.68,0,15.36,0,23,0,2.36.07,4.84,3.22,4.06a5.16,5.16,0,0,0,3-3.78q.31-23.79,0-47.58a5.17,5.17,0,0,0-3-3.84c-3.1-.78-3.3,1.67-3.29,4.05C618.25,18.4,618.22,26.42,618.22,34.44Zm218-.5c0,8,0,16,0,24,0,2.33.48,4.37,3.15,3.63,1.36-.38,3.23-2.36,3.25-3.64q.33-24,0-48c0-1.27-1.9-3.25-3.26-3.62-2.68-.75-3.16,1.31-3.14,3.63C836.3,18,836.25,26,836.25,33.94ZM259.13,64.28c2,3.76,2.6,4.06,5.86,3.31,11.14-2.55,17.08-9,19.19-20.72-4.76-1.31-5.06-1.31-6.13,2.62-1.93,7-6.76,10.8-13.4,12.8C262.8,62.84,261,63.59,259.13,64.28Zm-27.65-46c-1.25.69-2.09.88-2.28,1.34a2.56,2.56,0,0,0,0,2.17,85.9,85.9,0,0,0,7.37,7.41c.39.34,2.07-.81,3.15-1.27ZM221,25.83,220.55,27c2.65,2.87,5.24,5.81,8,8.57.48.48,1.73.2,2.63.27,0-1,.49-2.43,0-3a53.65,53.65,0,0,0-6.62-6.69C223.8,25.5,222.19,25.9,221,25.83Z" fill="#fff"/><path d="M35.89,5.55a81.87,81.87,0,0,0-9,2.14c-1.73.6-3.16,2.06-4.73,3.14,1.75.81,3.43,2,5.27,2.35,2.25.41,4.68-.15,7,.2,1.44.22,2.7,1.47,4.13,2,2.25.88,4.61,2.11,6.88,2,.86,0,2-3.21,2.32-5.06.4-2.78-.07-5.68.26-8.48.11-.93,1.53-1.71,2.36-2.55.6,1,1.67,1.89,1.72,2.87.15,3.16,0,6.33-.16,9.49-.11,3,1.32,4.1,4.23,4.21,3.73.14,9-.67,10.76,1.39,1.93,2.23.86,7.28.67,11.08-.51,9.81-1.07,19.63-2,29.41A9.76,9.76,0,0,1,51.35,67.4,2.86,2.86,0,0,1,50,65.07a3.4,3.4,0,0,1,2.06-2.14c8.8-2.27,9.06-2.38,9.66-11.46.48-7.32.68-14.65.92-22,.12-3.54.59-7-5-7.09-5.38-.07-5.84,2.67-5.79,6.89.11,11.05-2.25,21.51-8.23,31a20.44,20.44,0,0,1-3.31,4.37,28.69,28.69,0,0,1-4.73,2.85L32.43,62c-7.79,1-16.31,2.17-24.88,3-1.69.16-3.53-1.08-5.3-1.68,1.53-1,2.94-2.48,4.62-2.93,2.38-.63,5.1-.05,7.38-.85,1.45-.5,2.37-2.55,3.52-3.91-1.29-1-2.46-2.42-3.92-2.85-1.68-.51-3.68.14-5.44-.23A20.07,20.07,0,0,1,4,50.45c1.39-.73,2.72-1.86,4.2-2.11,2.28-.37,4.67,0,7-.26.86-.11,1.6-1.25,2.39-1.92-.8-.69-1.54-1.87-2.41-2-2.46-.31-5.08.23-7.44-.37-1.38-.35-3.26-2.16-3.37-3.45-.4-4.8,0-9.66-.21-14.49C4,23,5.27,22,8,22.15a36.84,36.84,0,0,0,7-.14c1-.16,1.84-1.42,2.75-2.18-1-.71-1.87-1.94-2.89-2-3.14-.28-6.33,0-9.47-.25C4.14,17.43,3.07,16.28,2,15.6c1.09-.76,2.12-2,3.28-2.18,3-.33,6,.07,9-.27,1.17-.13,2.21-1.43,3.3-2.2-1.12-.63-2.21-1.71-3.37-1.8C12,9,9.81,9.61,7.68,9.48a25.27,25.27,0,0,1-5-1.31l.16-1.7c1.51-.31,3-.7,4.54-.93,7.23-1.13,14.44-2.35,21.7-3.24,2.25-.28,4.62.39,6.93.63ZM30.8,17.66c-1.95,0-3.53-.29-4.92.09s-2.54,1.43-3.8,2.19c1.28.74,2.51,2,3.84,2.12,10.58.91,10.59.84,10.59,11.68v1.5C36.44,44.46,37.62,44,28,44a10.18,10.18,0,0,0-3.46.18c-.91.34-1.57,1.36-2.34,2.07.82.64,1.6,1.75,2.48,1.84,2.64.27,5.35-.1,8,.26,1.49.2,2.85,1.35,4.26,2.07-1.49.72-2.91,1.83-4.47,2.07-2.45.37-5-.18-7.44.34-1.17.26-2,2.06-3,3.16,1.09.74,2.17,2.09,3.28,2.12,3.3.08,6.65-.72,9.93-.47,3,.23,4.48-1,5.86-3.44,5-8.69,5.91-18.31,6.44-28,.07-1.15-2.41-2.76-4-3.6-1.36-.72-4.41-.35-4.54-.95C37.81,16.32,33.72,17.87,30.8,17.66ZM27.05,32.57,32,28.65c-1.44-.9-2.91-2.58-4.3-2.51-1.89.09-3.71,1.52-5.56,2.38Zm-.17,8.62L32,38c-1.57-.95-3.16-2.67-4.7-2.62-1.79,0-3.53,1.66-5.3,2.6Zm-14.14.11,5-3.32c-1.45-.93-2.87-2.55-4.35-2.6s-3.2,1.38-4.81,2.17Zm.45-16.69L8.8,28.74c1.56.85,3.11,2.3,4.7,2.35,1.35,0,2.75-1.54,4.13-2.4Z"/><path d="M320.73,52.77c3.36.87,4.91,2.39,4.13,5.79-.89,3.85-.66,8.62-6,9a141.45,141.45,0,0,1-17,0c-3.73-.18-5.58-2.67-5.63-6.38-.06-4.17-.27-8.36,0-12.51s-1.41-5.23-5.23-5.08c-6,.23-12,0-18,.09-3.16.08-4.45-1-4.4-4.32q.24-15.76,0-31.53c-.05-3.53,1.4-4.69,4.75-4.66q18.24.15,36.48,0c3.44,0,4.74,1.32,4.7,4.75-.12,10.51-.15,21,0,31.54.05,3.42-1.42,4.2-4.49,4.25-8.46.16-8.52.27-8.44,8.67.12,10.87-1.91,10.37,10,10.36C319.07,62.78,319.07,62.77,320.73,52.77ZM291.06,27.29v0c4.82,0,9.67.31,14.43-.19,1.38-.15,2.53-2.6,3.78-4-1.29-1.13-2.54-3.2-3.86-3.24-9.29-.29-18.6-.12-27.89-.19-2.68,0-4,.95-3.89,3.8s1.27,3.91,4,3.87C282.1,27.24,286.58,27.29,291.06,27.29Zm.36,12c4.49,0,9,0,13.45,0,2.77,0,4.91-1.18,4.22-4-.35-1.43-2.6-3.37-4-3.42-9.13-.32-18.26-.13-27.4-.19-2.57,0-4.07.71-4,3.66s1.49,4.08,4.34,4C282.45,39.24,286.94,39.31,291.42,39.31Zm-.14-31.66c-4.65,0-9.32-.25-13.93.16-1.31.11-3.14,2-3.52,3.33-.65,2.37.55,4.14,3.46,4.13,9.3,0,18.61.15,27.89-.18,1.41-.06,3.5-2.21,3.93-3.77.77-2.73-1.34-3.7-3.88-3.68C300.58,7.67,295.93,7.65,291.28,7.65Z"/><path d="M394.85,7.47,371.34,29.24c2.5,0,3.52.11,4.51,0,3.13-.39,6.24-1.18,9.37-1.26,9.68-.26,16.73,4.4,18.55,11.93,2.43,10.12-1,18-10.14,22.5-7.59,3.73-15.54,4.69-23.73,1.89-4.38-1.5-7.17-4.29-7.12-9.12.05-4.23,3.91-8,8.77-9a14.8,14.8,0,0,1,16.05,7.49c2.74,4.86,3.5,5,7.31.93a13,13,0,0,0,2.46-14.81C395,34.93,389,32,382.51,32.69c-10.44,1.07-19.73,4.6-26.83,12.77-.54.63-1.08,1.52-1.78,1.7a30.06,30.06,0,0,1-4.56.56c.22-1.54-.13-3.65.74-4.53,8.94-9,18.1-17.73,27.16-26.59,1.55-1.52,2.92-3.22,4.37-4.83l-.69-1.08c-6.72.32-13.43.69-20.16.92-1.95.07-4.67,1.14-4.8-2.47-.14-3.94,2.88-2.86,5-3,8.8-.49,17.61-1,26.42-1.2C389.46,4.93,391.59,6.34,394.85,7.47ZM378.57,61l4.84-1.67c-.78-1.91-1.18-4.16-2.46-5.64s-3.73-3.47-5.31-3.2c-2.73.46-6.43,1.91-7.45,4-1.49,3.1,1.84,4.83,4.69,5.65A45.17,45.17,0,0,0,378.57,61Z"/><path d="M120.27,5.25c8.5,0,17-.13,25.5.08,2.49.07,5.91-1.61,7.18,2.44-2.28.72-4.54,2-6.86,2.06-6.15.29-12.33.16-18.49.07-3.15-.05-5.11.78-5.11,4.44s2.37,3.76,5,3.83c10.42.29,10.42.32,10.42,10.69,0,6.34-.1,12.69,0,19,.06,2.84-1.06,3.86-3.82,3.84q-13.74-.12-27.5,0c-3,0-4.08-1.18-4-4.18.14-8.51.12-17,0-25.55,0-2.8,1.06-4,3.82-3.85,2.16.09,4.34-.06,6.5,0,2.79.08,4.43-.84,4.33-4-.08-2.94-1.38-4.25-4.28-4.23-6.34,0-12.68.18-19-.09-2-.09-5.55-1.44-5.52-2.07.2-4,3.63-2.39,5.78-2.43C102.93,5.15,111.6,5.25,120.27,5.25Zm7.89,32c-3.74-.45-5.83.73-5.73,5.11.08,4,1.94,5,5.55,5.09,4.08.09,6-1.06,6-5.59S131.59,36.93,128.16,37.22Zm-.11-4.57c3.56.37,6-.25,5.93-4.88,0-4.31-2-5.31-5.78-5.32s-5.78,1.12-5.77,5.37S124.45,33,128.05,32.65Zm-15.77,0c3.4.4,6.17.18,6-4.69-.14-3.61-.84-5.64-5-5.48-3.51.14-6.23.23-6.19,4.93C107.07,31.11,108.05,33.24,112.28,32.62Zm.45,14.64c4.19.76,5.47-1.18,5.54-5.28.07-4.33-2-4.91-5.57-4.88S107,37.62,107,42C107.08,46.08,108.52,47.94,112.73,47.26Z"/><path d="M432.2,34.26c0-7.85,0-15.69,0-23.54,0-2.49.54-4.4,3.45-4.36,6.63.08,13.41-.55,19.87.58,15.29,2.69,19.57,14.2,19.47,27.2a39.63,39.63,0,0,1-2,11.28c-3.16,10.1-10.83,14.92-20.8,16.16-5.26.65-10.64.28-16,.41-2.91.07-4.13-1.12-4.06-4.2C432.31,50,432.2,42.1,432.2,34.26Zm6.37-.33c0,6.16,0,12.31,0,18.47,0,2.54.42,4.72,3.59,4.9,11.43.68,21.87-2.57,25-15.53,4.44-18.63-3.45-32.09-23.06-31.18-3.71.17-5.76,1.67-5.56,5.87C438.77,22.27,438.57,28.11,438.57,33.93Z"/><path d="M650.23,34.33c0-7.83,0-15.67,0-23.51,0-2.42.36-4.45,3.34-4.45,6.3,0,12.74-.72,18.89.29,13.07,2.16,19.49,9.83,20.18,23.4.6,11.62-1.19,22.51-12.91,28.62-8.52,4.45-17.8,3.5-26.91,3-.92,0-2.42-2.48-2.46-3.84C650.11,50,650.23,42.17,650.23,34.33Zm6.37-.63V45.21c0,13.16,1.73,14.46,14.78,11A18.22,18.22,0,0,0,674.62,55C683,50.9,687.17,41.9,686.11,29.88c-1.37-15.61-12.84-20.11-25.21-19.12-2.9.23-4.41,1.77-4.34,4.93C656.69,21.69,656.6,27.7,656.6,33.7Z"/><path d="M493.87,36.61c.27-10.75,2-18.88,8.32-25.07,12.05-11.75,32.4-6.28,37.25,10.07A39.67,39.67,0,0,1,538,49.47C534.13,58.3,526,63.09,516,62.59A21.18,21.18,0,0,1,496.1,47.12,104.7,104.7,0,0,1,493.87,36.61Zm41-2.75c-.92-3.93-1.49-8.41-3-12.54-2.31-6.19-6.89-10.49-13.72-10.65s-11.58,3.46-14.47,9.62a32,32,0,0,0-1.3,24.3c2.73,8.29,8.44,12.79,15.38,12.76,6.72,0,12-4.34,14.85-12.67C533.71,41.44,534.05,37.93,534.88,33.86Z"/><path d="M711.31,34.08c.79-8.73,2.72-16.83,9.15-22.88,12.09-11.37,31.94-5.75,36.9,10.39A39.34,39.34,0,0,1,756,49.43c-3.73,8.66-11.61,13.47-21.52,13.18-9.39-.29-17.27-5.73-20.1-14.5C712.91,43.58,712.3,38.77,711.31,34.08ZM753,33c-1.26-4-2.36-9.23-4.48-14a13.52,13.52,0,0,0-13.13-8.35c-6.31.15-10.86,3.63-13.6,9.39a32.63,32.63,0,0,0-1.64,24.29c2.42,7.93,8.56,13,15.22,13,7,0,12.55-4.55,15.18-12.85C751.62,41.22,752,37.74,753,33Z"/><path d="M598.08,6.76c-5.52,6.74-10.31,13.09-15.64,18.93-3,3.3-2.74,5.75-.4,9.14,5.85,8.44,11.41,17.09,17.34,26-4.54,1.63-7.32,1-9.65-2.93-3.71-6.31-7.87-12.36-12-18.39-1-1.43-2.75-2.32-4.15-3.46-1.27,2-3.39,4-3.65,6.11-.56,4.77-.12,9.66-.21,14.49,0,2.13,1,4.94-2.9,5-4,.1-3.44-2.7-3.44-5.15q0-22.76,0-45.52c0-2.29-.54-4.85,3.17-4.93s3.19,2.5,3.19,4.79q0,9.36,0,18.72L571,30a26.24,26.24,0,0,0,2.57-2.48c4.68-5.86,9.28-11.78,14-17.62C590.89,5.71,590.94,5.75,598.08,6.76Z"/><path d="M791.1,35.33c-1.12,2.65-2.93,5.23-3.22,8-.52,4.94,0,10-.28,15-.08,1.2-1.88,2.28-2.9,3.42-1.11-1.08-3.17-2.14-3.19-3.22q-.3-24.51,0-49c0-1.11,2-2.19,3.13-3.28,1,1.13,2.88,2.22,3,3.42.33,5.14.11,10.32.16,15.49a8.36,8.36,0,0,0,1.57,5.09c1.8-2.24,3.61-4.47,5.4-6.71,3.64-4.56,7.26-9.13,10.92-13.66,3.37-4.18,3.48-4.2,10.37-2.9-3.31,4-6.27,7.63-9.32,11.2-9.82,11.51-9.83,11.49-1.47,24.23q5.76,8.77,11.43,17.59c.15.23,0,.63,0,1.19-4.22,1.64-7,.23-9.36-3.6-4.5-7.36-9.32-14.52-14-21.76Z"/><path d="M223.74,62.17c-1.08,4.32-3.06,5.36-6.21,4.36-4.26-1.36-8.77-2.19-12.75-4.13-10.7-5.21-15-17-9.18-27.46,3.46-6.27,8.92-11.43,13.56-17a29.24,29.24,0,0,1,3.47-3.08l-.52-1.57L177.2,16.07c-2-4.93-1.6-5.63,3.38-6C197.35,9.06,214.11,7.89,230.89,7c1.5-.08,3.1,1.51,4.65,2.32-1.26,1.08-2.38,2.83-3.8,3.12-15.16,3.09-25.22,12.65-31.42,26.05-4.36,9.41,2.4,18.6,14.56,21.6C217.73,60.79,220.6,61.43,223.74,62.17Z"/><path d="M150.53,18.43c0,15.18,0,30-.07,44.81,0,1.43-1,2.85-1.53,4.28a27.11,27.11,0,0,0-3.41-2.59,10.26,10.26,0,0,0-4.35-1.65c-13.66-.12-27.32-.14-41,0-1.5,0-3,1.28-4.45,2.09-1.12.64-2.14,1.47-3.2,2.21-.62-1.19-1.77-2.37-1.79-3.56-.14-10.51-.08-21-.08-31.54a100.8,100.8,0,0,1,.15-11c.14-1.26,1.9-2.34,2.93-3.5.63,1.24,1.8,2.47,1.82,3.71.14,10.51.18,21,0,31.54-.06,3.57.91,5.1,4.75,5,13.66-.17,27.32-.13,41,0,3.45,0,4.67-1.28,4.62-4.73-.16-10.51,0-21-.08-31.54C145.82,18.77,146.83,17.19,150.53,18.43Z"/><path d="M618.22,34.44c0-8,0-16,0-24,0-2.38.19-4.83,3.29-4.05a5.17,5.17,0,0,1,3,3.84q.31,23.79,0,47.58a5.16,5.16,0,0,1-3,3.78c-3.15.78-3.24-1.7-3.22-4.06C618.26,49.8,618.22,42.12,618.22,34.44Z"/><path d="M836.25,33.94c0-8,0-16,0-24,0-2.32.46-4.38,3.14-3.63,1.36.37,3.24,2.35,3.26,3.62q.33,24,0,48c0,1.28-1.89,3.26-3.25,3.64-2.67.74-3.17-1.3-3.15-3.63C836.3,49.93,836.25,41.93,836.25,33.94Z"/><path d="M259.13,64.28c1.88-.69,3.67-1.44,5.52-2,6.64-2,11.47-5.78,13.4-12.8,1.07-3.93,1.37-3.93,6.13-2.62C282.07,58.64,276.13,65,265,67.59,261.73,68.34,261.15,68,259.13,64.28Z"/><path d="M231.48,18.3,239.71,28c-1.08.46-2.76,1.61-3.15,1.27a85.9,85.9,0,0,1-7.37-7.41,2.56,2.56,0,0,1,0-2.17C229.39,19.18,230.23,19,231.48,18.3Z"/><path d="M221,25.83c1.22.07,2.83-.33,3.59.3a53.65,53.65,0,0,1,6.62,6.69c.5.59,0,2,0,3-.9-.07-2.15.21-2.63-.27-2.77-2.76-5.36-5.7-8-8.57Z"/><path d="M30.8,17.66c2.92.21,7-1.34,8.21,4,.13.6,3.18.23,4.54.95,1.59.84,4.07,2.45,4,3.6-.53,9.65-1.49,19.27-6.44,28-1.38,2.42-2.81,3.67-5.86,3.44-3.28-.25-6.63.55-9.93.47-1.11,0-2.19-1.38-3.28-2.12,1-1.1,1.82-2.9,3-3.16,2.39-.52,5,0,7.44-.34,1.56-.24,3-1.35,4.47-2.07-1.41-.72-2.77-1.87-4.26-2.07-2.61-.36-5.32,0-8-.26-.88-.09-1.66-1.2-2.48-1.84.77-.71,1.43-1.73,2.34-2.07A10.18,10.18,0,0,1,28,44c9.58,0,8.4.46,8.47-8.76v-1.5c0-10.84,0-10.77-10.59-11.68-1.33-.11-2.56-1.38-3.84-2.12,1.26-.76,2.44-1.82,3.8-2.19S28.85,17.66,30.8,17.66Z" fill="#fff"/><path d="M27.05,32.57l-4.93-4.05c1.85-.86,3.67-2.29,5.56-2.38,1.39-.07,2.86,1.61,4.3,2.51Z" fill="#fff"/><path d="M26.88,41.19,22,38c1.77-.94,3.51-2.55,5.3-2.6,1.54,0,3.13,1.67,4.7,2.62Z" fill="#fff"/><path d="M12.74,41.3,8.57,37.55c1.61-.79,3.23-2.22,4.81-2.17s2.9,1.67,4.35,2.6Z" fill="#fff"/><path d="M13.19,24.61l4.44,4.08c-1.38.86-2.78,2.44-4.13,2.4-1.59-.05-3.14-1.5-4.7-2.35Z" fill="#fff"/><path d="M291.06,27.29c-4.48,0-9-.05-13.45,0-2.71,0-3.88-1.16-4-3.87s1.21-3.82,3.89-3.8c9.29.07,18.6-.1,27.89.19,1.32,0,2.57,2.11,3.86,3.24-1.25,1.4-2.4,3.85-3.78,4-4.76.5-9.61.19-14.43.19Z" fill="#fff"/><path d="M291.42,39.31c-4.48,0-9-.07-13.45,0-2.85.06-4.3-1-4.34-4s1.45-3.67,4-3.66c9.14.06,18.27-.13,27.4.19,1.44,0,3.69,2,4,3.42.69,2.87-1.45,4.06-4.22,4C300.39,39.29,295.91,39.31,291.42,39.31Z" fill="#fff"/><path d="M291.28,7.65c4.65,0,9.3,0,14,0,2.54,0,4.65,1,3.88,3.68-.43,1.56-2.52,3.71-3.93,3.77-9.28.33-18.59.14-27.89.18-2.91,0-4.11-1.76-3.46-4.13.38-1.38,2.21-3.22,3.52-3.33C282,7.4,286.63,7.65,291.28,7.65Z" fill="#fff"/><path d="M378.57,61a45.17,45.17,0,0,1-5.69-.83c-2.85-.82-6.18-2.55-4.69-5.65,1-2.12,4.72-3.57,7.45-4,1.58-.27,4,1.66,5.31,3.2s1.68,3.73,2.46,5.64Z" fill="#fff"/><path d="M128.16,37.22c3.43-.29,5.76.22,5.81,4.61s-1.91,5.68-6,5.59c-3.61-.08-5.47-1.07-5.55-5.09C122.33,38,124.42,36.77,128.16,37.22Z" fill="#fff"/><path d="M128.05,32.65c-3.6.38-5.62-.67-5.62-4.83s1.91-5.37,5.77-5.37,5.73,1,5.78,5.32C134,32.4,131.61,33,128.05,32.65Z" fill="#fff"/><path d="M112.28,32.62c-4.23.62-5.21-1.51-5.25-5.24,0-4.7,2.68-4.79,6.19-4.93,4.19-.16,4.89,1.87,5,5.48C118.45,32.8,115.68,33,112.28,32.62Z" fill="#fff"/><path d="M112.73,47.26c-4.21.68-5.65-1.18-5.71-5.3,0-4.34,2.23-4.83,5.68-4.86s5.64.55,5.57,4.88C118.2,46.08,116.92,48,112.73,47.26Z" fill="#fff"/><path d="M438.57,33.93c0-5.82.2-11.66-.07-17.47-.2-4.2,1.85-5.7,5.56-5.87,19.61-.91,27.5,12.55,23.06,31.18-3.1,13-13.54,16.21-25,15.53-3.17-.18-3.6-2.36-3.59-4.9C438.58,46.24,438.57,40.09,438.57,33.93Z" fill="#fff"/><path d="M656.6,33.7c0-6,.09-12,0-18-.07-3.16,1.44-4.7,4.34-4.93,12.37-1,23.84,3.51,25.21,19.12,1.06,12-3.11,21-11.49,25.11a18.22,18.22,0,0,1-3.24,1.25c-13,3.43-14.78,2.13-14.78-11Z" fill="#fff"/><path d="M534.88,33.86c-.83,4.07-1.17,7.58-2.28,10.82-2.86,8.33-8.13,12.63-14.85,12.67-6.94,0-12.65-4.47-15.38-12.76a32,32,0,0,1,1.3-24.3c2.89-6.16,7.75-9.79,14.47-9.62s11.41,4.46,13.72,10.65C533.39,25.45,534,29.93,534.88,33.86Z" fill="#fff"/><path d="M753,33c-1,4.78-1.41,8.26-2.45,11.54-2.63,8.3-8.22,12.87-15.18,12.85-6.66,0-12.8-5.09-15.22-13A32.63,32.63,0,0,1,721.82,20c2.74-5.76,7.29-9.24,13.6-9.39A13.52,13.52,0,0,1,748.55,19C750.67,23.73,751.77,28.92,753,33Z" fill="#fff"/></svg>