<svg xmlns="http://www.w3.org/2000/svg" viewBox="0 0 383.08 110.87"><defs><style>.cls-1{fill:#333;}</style></defs><title>walk-donguri-title</title><g id="Layer_2" data-name="Layer 2"><g id="Layer_1-2" data-name="Layer 1"><path class="cls-1" d="M49.09,26.62c-2-2.81-2.38-4.32-2.38-8,0-1.51.16-5.34.32-8.42l.06-1.68c0-3.08-1.19-4.1-5-4-.49,0-.59-.05-.59-.27,0-.7,2.64-1.51,4.86-1.51A9.19,9.19,0,0,1,50.87,4a2.64,2.64,0,0,1,1.24,2.37,11.45,11.45,0,0,1-.65,3.19,51.21,51.21,0,0,0-1.83,12c0,2.1.64,3.62,1.62,3.62.64,0,4.26-2.06,5.45-3.08.65-.49.92-.65,1.4-.65,1.57,0,3.57,1.35,3.57,2.37,0,.81-.81,1.36-2.76,2a52.15,52.15,0,0,1-6.64,1.35A11.26,11.26,0,0,0,47.68,29c-4,2.32-6,5.34-6,8.91,0,3.83,3.14,5.72,9.45,5.72a36.09,36.09,0,0,0,11.13-2,3.27,3.27,0,0,1,1.29-.38,3.62,3.62,0,0,1,3.08,3,1.49,1.49,0,0,1-1,1.25c-1.89.86-6.86,1.51-11.5,1.51a28.57,28.57,0,0,1-10.32-1.51c-3.4-1.46-5.34-4.05-5.34-7.19,0-4.15,4-8.64,10-11.34ZM66.85,15.5A2,2,0,0,1,65,17.33c-.54,0-.87-.27-1.25-1A9.05,9.05,0,0,0,58.43,12c-.33-.11-.38-.11-.38-.27s.81-.43,1.89-.43C63.34,11.29,66.85,13.39,66.85,15.5Zm5.35-3.08a2,2,0,0,1-1.84,1.94c-.54,0-.86-.27-1.29-1.07a9.23,9.23,0,0,0-5.46-4.38c-.21-.05-.32-.11-.32-.27s.7-.38,1.89-.38C68.69,8.26,72.2,10.37,72.2,12.42Z"/><path class="cls-1" d="M111.73,7.18c0,.92-.33,1.51-1.46,2.59-3,2.76-9.07,10.7-11.67,15.18a11.1,11.1,0,0,0-1.35,2.59.48.48,0,0,0,.49.43.61.61,0,0,0,.59-.32c3.24-3.67,8-6.43,11.13-6.43A6.6,6.6,0,0,1,116.21,28a15.57,15.57,0,0,1-.38,3,44,44,0,0,0-1.13,8.1c0,2.81,1.18,4.1,3.72,4.1,4.92,0,9.08-3.4,11.45-9.39.11-.38.22-.49.32-.49s.44.27.44.6a17.94,17.94,0,0,1-2.32,6.58A12.47,12.47,0,0,1,117.94,46c-4.22,0-6.75-2.65-6.75-7.07a48.4,48.4,0,0,1,.86-7.62,20.69,20.69,0,0,0,.49-3.89c0-2.37-1.52-3.83-4.05-3.83s-5.62,1.62-9.35,5.07S93.53,37,92.88,44.88c-.16,1.4-.59,2.16-1.24,2.16A4.48,4.48,0,0,1,89.26,46a1.88,1.88,0,0,1-.65-1.57c0-5.83,6.54-19.66,15.93-33.7,1.68-2.48,2.06-3.29,2.06-4.26a3.27,3.27,0,0,0-3.35-3c-.22-.06-.33-.11-.33-.33,0-.38,1.41-.75,2.76-.75C108.49,2.38,111.73,5,111.73,7.18Z"/><path class="cls-1" d="M163.19,3.51c-.16,0-.27,0-.27-.16,0-.54,1.29-1,2.81-1,2.59,0,6.15,2.76,6.15,4.81,0,.65-.21,1-1.13,1.62-1.51,1-3.13,2.54-6.86,6.59-3.24,3.45-3.83,4.16-4.54,5.24a7.78,7.78,0,0,0-.91,3.61c0,1.52.37,2.38,1.78,4.11,4.8,5.78,7.13,8.74,8.26,10.42,1.67,2.48,2.81,5.51,2.81,7.34s-1,2.92-2.38,2.92-1.83-.7-2.43-3.35c-.59-3.29-3.18-8.48-7-13.93-3.13-4.59-3.62-5.62-3.62-7.83,0-2.43,1.25-4.59,6.27-11.07,3.78-4.81,4.32-5.73,4.32-7.13A2.76,2.76,0,0,0,164,3.46a2,2,0,0,0-.49,0Zm16.68,16A1.94,1.94,0,0,1,178,21.44c-.54,0-.76-.22-1.41-1.35A9,9,0,0,0,171.29,16c-.16-.06-.22-.11-.22-.22,0-.27.81-.43,2-.43C176.47,15.39,179.87,17.44,179.87,19.55Zm4.65-3.78a2,2,0,0,1-1.84,1.94c-.48,0-.81-.27-1.19-1a9.5,9.5,0,0,0-5.29-4.37c-.38-.06-.48-.16-.48-.33s.64-.37,1.78-.37C181.06,11.67,184.52,13.72,184.52,15.77Z"/><path class="cls-1" d="M220.81,18.09a19.55,19.55,0,0,0-3,9.18,8.4,8.4,0,0,0,.48,2.92c.22.43.22.43.22.75a2.21,2.21,0,0,1-1.84,2.38c-1.94,0-3.35-3.94-3.35-9.18a41.45,41.45,0,0,1,2-12.1c1.19-4.21,1.51-5.56,1.51-6.42,0-1.52-1.84-3.08-3.62-3.08-.32,0-.43-.06-.43-.22,0-.38,2.05-1,3.35-1a6.23,6.23,0,0,1,4,1.67c1,.92,1.51,1.67,1.51,2.27s-.16,1.13-1.19,2.54c-2.16,3-4.53,10.1-4.53,13.82,0,.59.21,1,.59,1s.7-.27,1-1a31,31,0,0,1,3.19-5.84c2-2.64,4.32-4.1,6.64-4.1A6.61,6.61,0,0,1,233,15.44c1.14,2.33,1.89,6.48,1.89,10.86,0,9-4,16-11.34,19.82-2.27,1.13-6.16,2.37-7.56,2.37-.54,0-1.08-.43-1.08-.81,0-.1.16-.21.43-.21a16.79,16.79,0,0,0,8.1-3.62c4.92-4.05,7.4-10.42,7.4-18.63,0-7.4-1.46-11.23-4.32-11.4C224.59,13.72,222.43,15.34,220.81,18.09Z"/><path class="cls-1" d="M281.56,10.1a50.26,50.26,0,0,1,.75,6.53c0,5.46-2.48,11.88-6.59,17.17-3.13,4.06-6,6.05-8.85,6.05a4.81,4.81,0,0,1-3.73-2.05,12.61,12.61,0,0,1-2.81-8.53c0-11.45,9.94-20.85,22-20.85,10.69,0,18.14,6.7,18.14,16.31,0,8.59-5.08,15.56-13.61,18.63a32.73,32.73,0,0,1-7.4,1.79c-.37,0-.7-.27-.7-.49s.16-.22.92-.43a24.61,24.61,0,0,0,10.21-5.35c3.88-3.35,6.15-8.85,6.15-15.07,0-5-1.56-8.64-4.64-11A14,14,0,0,0,283.07,10Zm-2.16.21a19.23,19.23,0,0,0-15.83,19.12c0,4,1.52,7,3.57,7,2.32,0,6.64-4.37,9.29-9.4,2.1-4.1,3.78-9.66,3.78-12.74a10.48,10.48,0,0,0-.71-3.73Z"/><path class="cls-1" d="M321.08,30.19c-.48,0-1.62,0-3.29.1-.49,0-1.84,0-3.4.06l-.65-1.73c3.94.16,5.72.22,7.24.27h3.45V21.22l4.05.33c.76.05,1.24.48,1.24,1a1.41,1.41,0,0,1-.81,1.14l-1.24.59v4.59h2.16l2.49-3.29,3.61,2.86a1.64,1.64,0,0,1,.65,1.08.7.7,0,0,1-.65.65h-8.26v3.29a19.15,19.15,0,0,1,5.35,2,4.81,4.81,0,0,1,2.75,3.94,2,2,0,0,1-1.83,1.95,2,2,0,0,1-1.14-.44,18.91,18.91,0,0,1-1.67-2.7A8.9,8.9,0,0,0,327.67,35v12.1c0,.81-1.19,1.51-2.59,1.51-.49,0-.65-.27-.65-.86V35.16a46.48,46.48,0,0,1-7,7.39c-2.06,1.73-3.57,2.76-4.16,2.76a.54.54,0,0,1-.54-.54c0-.27.27-.6,1.29-1.41a43.26,43.26,0,0,0,9.45-13.17Zm6.05-21.93c-.32,0-2.27.06-5.13.16-.65.06-2.59.06-4.7.11l-.81-1.89c2.49.11,4.49.16,5.3.16,2.64.11,4.42.17,5.34.17H336V0l3.89.16c.76.06,1.13.33,1.13.92a1.25,1.25,0,0,1-.43,1l-1.29,1V7h13l2.91-3.41,3.84,3a1.58,1.58,0,0,1,.7,1c0,.44-.27.65-.87.65H340.25c5.62,5.29,11.83,8.21,21.12,9.83a10.39,10.39,0,0,0-3.67,4.16c-8.43-3.35-14-7.35-18.36-13.23V22.63c0,.75-1.08,1.35-2.54,1.35-.54,0-.76-.27-.76-.81V10.42a66.25,66.25,0,0,1-13.82,9.34c-3.94,2.06-6.54,3.24-7,3.24a.45.45,0,0,1-.43-.43c0-.27.54-.65,4.05-2.64A52.82,52.82,0,0,0,333,8.26Zm11.94,22.09-.54-1.68c5.4.22,5.67.22,7.23.22h1.57V21.66l4.43.26c.48.06.91.44.91.76a1.35,1.35,0,0,1-.7,1l-1.51.86v4.32h4.59l2.86-3.29,3.84,2.91a1.31,1.31,0,0,1,.59,1,.65.65,0,0,1-.7.7H350.57c1.73,4.26,6.43,8.42,12.91,11.28a9,9,0,0,0-3.68,3.41A29.16,29.16,0,0,1,350.46,33V47.36c0,.76-.81,1.13-2.43,1.13-.49,0-.7-.21-.7-.75V34.4a72.69,72.69,0,0,1-8.26,8.1c-3,2.48-5.08,3.94-5.62,3.94A.51.51,0,0,1,333,46c0-.22,0-.22,1.78-1.73a75.34,75.34,0,0,0,11.56-14Z"/><path class="cls-1" d="M25.06,80.31,29,79.66a9.3,9.3,0,0,0,5.13-2,.79.79,0,0,1,.54-.16c.59,0,1.19.37,2.54,1.56,2.1,1.89,2.1,1.89,2.1,2.43,0,.27-.16.44-.54.65-.86.49-.92.59-1.51,3.62C35.53,94,34.34,98,32.56,101.15s-4.32,5.08-6.75,5.08c-.43,0-.65-.16-.65-.43v-.38a1.52,1.52,0,0,0,.06-.54,8.18,8.18,0,0,0-2.7-5.67c-.54-.43-.6-.49-.6-.59a1,1,0,0,1,.54-.49.44.44,0,0,1,.27.16c.27.16.6.38.92.59,2.43,1.62,2.59,1.73,3.3,1.73,1.89,0,3.29-1.94,4.86-6.75a42.24,42.24,0,0,0,1.94-11c0-1.41-.32-1.95-1.13-1.95a52.51,52.51,0,0,0-9.18,1.35C21.55,88.68,19,94.13,16.31,97.48a30.66,30.66,0,0,1-11.88,9.34,20.42,20.42,0,0,1-3.67,1.46.86.86,0,0,1-.76-.7c0-.22.22-.38.81-.59C10,102.67,17.5,93.05,19.6,83c-2,.49-5.34,1.51-7,2.11a6.85,6.85,0,0,1-2.06.54A7.28,7.28,0,0,1,7,83.82,4,4,0,0,1,5.89,81c0-.38.16-.6.43-.6s.21.06.38.33c.59,1.13,1.45,1.56,3.13,1.56,2.1,0,2.37,0,10.2-1.13a61.08,61.08,0,0,0,.87-7.45A3.83,3.83,0,0,0,19,70.16a1,1,0,0,1-.16-.38c0-.38.43-.6,1.29-.6a6.6,6.6,0,0,1,3.73,1.62c1.94,1.46,2.05,1.57,2.05,2.11,0,.22,0,.22-.27.65a18.85,18.85,0,0,0-.81,2.81l-.76,2.91c0,.11-.16.7-.32,1.24Zm16.68-5.83a1.85,1.85,0,0,1-1.67,1.73c-.81,0-1.19-.28-1.62-1.14a10,10,0,0,0-5.19-4.27c-.16,0-.32-.16-.32-.27s.65-.37,1.4-.37C38.23,70.16,41.74,72.21,41.74,74.48Zm5.73-3a2,2,0,0,1-1.84,1.89c-.76,0-1.13-.27-1.57-1.14a9.87,9.87,0,0,0-5.23-4.37.58.58,0,0,1-.38-.27c0-.27.7-.43,1.73-.43C43.74,67.19,47.47,69.4,47.47,71.51Z"/><path class="cls-1" d="M81.49,84c2.75,1.24,2.75,1.24,2.75,1.78a1.75,1.75,0,0,1-.22.76,12,12,0,0,0-.48,4.32l.11,5.51v6.15l0,3.73c0,.7,0,1.35,0,1.78,0,1.41-.48,2.22-1.29,2.22-1.62,0-3.51-1.41-3.51-2.65a4.32,4.32,0,0,1,.16-1,171,171,0,0,0,1.3-18.68,5.57,5.57,0,0,0-.65-3.19,68.56,68.56,0,0,1-14,11.13,23.72,23.72,0,0,1-6,2.53c-.21,0-.54-.21-.54-.43s.11-.27.54-.43c8.54-3.89,25.22-21,25.22-25.7,0-.54-1-1.52-1.78-1.68-.49-.11-.59-.21-.59-.43,0-.38,1.13-.75,2.21-.75,2,0,6.1,2.91,6.1,4.37,0,.38-.16.54-.65.81a3.88,3.88,0,0,0-1.94,1.62,87.71,87.71,0,0,1-7.51,7.94Z"/><path class="cls-1" d="M134.57,85.87c.05,9.67.16,14.8.43,18.42.11,1.13.16,1.94.16,2.42,0,2.27-.81,4-1.94,4s-2.86-2.43-2.86-3.78a7.75,7.75,0,0,1,.16-1.41c.43-3,.86-15,.86-25.76,0-5.07-.16-6.85-.86-8a2.94,2.94,0,0,0-2.59-1.35c-.38-.05-.54-.16-.54-.48s.16-.38.48-.49a14.5,14.5,0,0,1,3.3-.92c.81,0,1.56.38,3.94,1.89.7.49,1,.87,1,1.24a2.76,2.76,0,0,1-.27,1c-.86,1.46-1.18,4-1.29,10a22.57,22.57,0,0,1,11.34,3.51c2.91,2,4.26,3.73,4.26,5.46A2.21,2.21,0,0,1,147.91,94c-1.19,0-1.84-.49-3.14-2.6a19.07,19.07,0,0,0-10.2-7.88ZM152,77a1.84,1.84,0,0,1-1.73,1.84c-.81,0-1.19-.27-1.62-1.13a9.62,9.62,0,0,0-5.24-4.38c-.22-.11-.32-.16-.32-.27s.64-.38,1.56-.38C148.39,72.69,152,74.8,152,77Zm5.94-3.13a1.84,1.84,0,0,1-1.73,1.84,1.55,1.55,0,0,1-1.57-1,10.12,10.12,0,0,0-5.51-4.59c-.16,0-.27-.16-.27-.27s.65-.38,1.52-.38C154.22,69.45,157.9,71.61,157.9,73.88Z"/><path class="cls-1" d="M197.48,77.55c2.32-.21,3.62-.32,3.89-.37a11.93,11.93,0,0,0,4.26-1.08c1.62-.71,1.62-.71,2-.71s.76.17,1.35.76c.22.16.7.6,1.46,1.19,1.13.92,1.67,1.51,1.67,1.83s0,.38-1.62,1.46c-6,13.12-10.47,19-18.57,24.2a36.62,36.62,0,0,1-9.94,4.59c-.81.21-2.21.54-2.43.54a.65.65,0,0,1-.65-.54c0-.17.11-.22.38-.33a35.33,35.33,0,0,0,9-4.43,42.89,42.89,0,0,0,16.91-22.89c.21-.76.32-1.3.37-1.41a4.37,4.37,0,0,0,.17-1c0-.49-.6-.81-1.57-.81-2.05,0-11.07.92-14.58,1.51s-4.43,1-4.81,1.79l.38,2.26.49,3.13.48,3a12.37,12.37,0,0,1,.33,2.37c0,1-.54,1.35-1.78,1.35-2.06,0-2.49-.22-2.49-1.35a8.59,8.59,0,0,1,.06-1.13v-1a47.74,47.74,0,0,0-1.41-10.26,3.54,3.54,0,0,0-2.81-2.8c-.27-.06-.43-.22-.43-.44s.7-.48,1.73-.48A8.71,8.71,0,0,1,184,79c1.78-.27,5.62-.7,9.07-1,.06-7.89,0-8-3.18-8.37-.33,0-.49-.11-.49-.33,0-.54,2.27-1.56,3.51-1.56a9.24,9.24,0,0,1,3.84,1.4c.91.54,1.18.86,1.18,1.3a1.21,1.21,0,0,1-.32.81c-.59.75-1.4,4.1-1.57,6.48Z"/><path class="cls-1" d="M254.77,92.73c0-.43-.05-1.62-.11-3.13a35.63,35.63,0,0,1-14.36,13.71c-2.92,1.52-7.07,3.14-8.15,3.14a.72.72,0,0,1-.71-.65c0-.22.17-.38.54-.49,8.43-3.19,16.91-10.74,20.36-18.09a66.29,66.29,0,0,0-8.58,2,5.49,5.49,0,0,1-2.33.54c-1.89,0-4.1-2.1-4.1-3.94,0-.27.11-.38.27-.38s.32.06.81.49a5.51,5.51,0,0,0,3.19.65,120.57,120.57,0,0,0,12.74-1.14,60.25,60.25,0,0,0-.86-7,1.63,1.63,0,0,0-1.62-1.35,2.4,2.4,0,0,0-.6.06.72.72,0,0,1-.32,0,.37.37,0,0,1-.33-.38c0-.54,2.76-2,3.73-2,1.3,0,3.29,1.13,3.29,1.84a1.38,1.38,0,0,1-.1.37c-.38.76-.49,2.27-.49,6,0,1.08,0,1.51,0,2.21,3.84-.75,4.76-1.08,6.38-1.89a1.61,1.61,0,0,1,.7-.21,13.44,13.44,0,0,1,3.4,1.62,1.24,1.24,0,0,1,.7,1.08A1.08,1.08,0,0,1,267.14,87a9.78,9.78,0,0,1-1.51-.16,35.67,35.67,0,0,0-3.78-.21,33.47,33.47,0,0,0-4.76.32c.22,3.46.22,3.78.33,5.94.11,1.89.16,3.19.21,3.67.11,1.24.22,2.54.33,3.84l.21,3.61c.11,1.25.17,2.11.17,2.33a4.51,4.51,0,0,1-.76,2.43,8.31,8.31,0,0,1-3.29,2.1c-.33,0-.65-.43-.76-1.13-.11-1.46-2.11-4-4.37-5.62a.39.39,0,0,1-.22-.37.46.46,0,0,1,.38-.38c.27,0,.48.11,1.83,1,1.62,1,2.43,1.41,2.87,1.41s.59-.22.64-2.7l.06-2.76.05-4.1Z"/><path class="cls-1" d="M295.87,92.35a11.44,11.44,0,0,1-2.49.38c-1.56,0-4.32-1.68-4.75-2.92a15.39,15.39,0,0,1-.38-3c0-.38.16-.65.43-.65s.27.11.44.38c.7,1.56,2,2.1,5.13,2.1a251.34,251.34,0,0,0,31.21-2.21c.48,0,1-.11,1.46-.11a3.66,3.66,0,0,1,2.86,1.19c1,1,1.4,1.51,1.4,2,0,.81-1.08,1.3-2.8,1.3-.44,0-1,0-2-.06-1.19-.11-5.57-.16-7.83-.16C311.09,90.57,300.08,91.43,295.87,92.35Z"/><path class="cls-1" d="M348.14,108.17a56.29,56.29,0,0,0,16.58-11.61,45,45,0,0,0,9.39-12.69,18.88,18.88,0,0,0,2-4.8,1.26,1.26,0,0,0-1.3-1.19,9.47,9.47,0,0,0-1,.11c-.16.05-1.3.27-2.43.43-.92.16-1.68.27-2.11.32a4.6,4.6,0,0,1-1.08.16,4.19,4.19,0,0,1-2.1-.75A53.49,53.49,0,0,1,357.16,89c-2.6,2.38-6.16,4.81-7,4.81-.33,0-.6-.16-.6-.38,0-.38.11-.48,1.46-1.46,2.27-1.56,5.89-5.72,8.86-10.09,2.26-3.46,3.67-6.54,3.67-8.32a3.45,3.45,0,0,0-2-3.35c-.22,0-.38-.22-.38-.32,0-.27.6-.49,1.46-.49a6.43,6.43,0,0,1,3.78,1.35c1.94,1.3,2.38,1.73,2.38,2.48,0,.33-.06.44-.38.81a10.44,10.44,0,0,0-.92,1.35c-.38.87-.54,1.14-.76,1.57a3.7,3.7,0,0,0,1.3.22A34.74,34.74,0,0,0,374.49,76a10.64,10.64,0,0,0,2.05-1c.92-.6,1.24-.71,1.57-.71.59,0,1.29.44,3.13,2,1.62,1.35,1.84,1.57,1.84,2s-.22.65-.81.87a14.62,14.62,0,0,0-1.73.75c-7.67,15.34-16.8,23.87-31.32,29.22a3.84,3.84,0,0,0-.76.27,3.24,3.24,0,0,1-.48.11c-.44,0-1-.43-1-.81,0-.16.11-.27.76-.44Z"/></g></g></svg>