<svg xmlns="http://www.w3.org/2000/svg" viewBox="0 0 300.35 33.33"><defs><style>.cls-1{isolation:isolate;}.cls-2{fill:#333;}</style></defs><title>walk-free-title</title><g id="Layer_2" data-name="Layer 2"><g id="Layer_1-2" data-name="Layer 1"><g class="cls-1"><path class="cls-2" d="M.47,19.19l2.52.1c1,0,1.94,0,2.3,0H9.21V14.61l2.34.33c.65.07.86.21.86.54s-.14.36-.64.61l-.8.32v2.92h2.16l1.51-1.94,2.41,1.94H22.6V14.51l2.44.43c.4.07.61.29.61.54s-.1.39-.39.47l-.86.28v3.1h4.78l1.87-1.94,2.2,1.76a1,1,0,0,1,.39.68.44.44,0,0,1-.36.47H24.47a23,23,0,0,0,9.93,8.75A3.91,3.91,0,0,0,33,29.8c-.1.11-.36.36-.93.9a29.3,29.3,0,0,1-7.66-9.07V31.75A1.38,1.38,0,0,1,23,33.08c-.29,0-.43-.22-.43-.61V22.68a44.2,44.2,0,0,1-9.54,9c-.54.36-.61.39-.79.39a.35.35,0,0,1-.36-.29c0-.21,0-.21,1.4-1.36A48.51,48.51,0,0,0,22.06,20.3H11v2.16c2.49.5,2.81.58,3.53,1,1,.61,1.44,1.12,1.44,1.87a.84.84,0,0,1-.76.94c-.36,0-.68-.22-1.11-.72A8.55,8.55,0,0,0,11,23v9.25a.66.66,0,0,1-.32.65,2.85,2.85,0,0,1-1.11.43c-.22,0-.33-.14-.33-.47V22.53a29.69,29.69,0,0,1-6.37,7.63C1.4,31.46.58,32.07.25,32.07A.3.3,0,0,1,0,31.78c0-.14.14-.32.5-.64C3,28.94,7.59,22.79,8.56,20.3H5.29c-.79,0-1.19,0-3.85.11ZM3.17,5l3.56.15c1.15,0,2.12,0,2.66,0h7V0l2.37.47c.36.07.58.21.58.43a.59.59,0,0,1-.36.47l-.79.39V5.18h8.16l1.73-2L30.62,5c.43.32.58.5.58.75s-.18.44-.51.44H18.35c3.49,3.81,7.45,5.79,15,7.48-1.9,1.19-2.12,1.33-2.62,2C24.4,13.07,21.23,11,18.21,7.38v7.23c0,.51-.76,1.08-1.41,1.08a.38.38,0,0,1-.39-.43v-8a45.5,45.5,0,0,1-12,8.14C1,17,.86,17,.58,17a.36.36,0,0,1-.36-.36c0-.22.18-.36.72-.65,6.47-3.31,10.57-6.19,14-9.86H9.39l-2.66.07c-.29,0-1.22,0-2.23.07Z"/><path class="cls-2" d="M55.63,10.65a18.71,18.71,0,0,1-3.31,9.87c-2.19,3.35-4.53,5.29-6.47,5.29-2.34,0-4.39-3.2-4.39-6.91a13.38,13.38,0,0,1,4-9.4A14.61,14.61,0,0,1,56.07,5.15c6.72,0,11.69,4.53,11.69,10.65,0,5.62-3.35,10.22-9,12.35A22.41,22.41,0,0,1,54,29.44a.41.41,0,0,1-.4-.43c0-.18.15-.25.54-.32a21.59,21.59,0,0,0,5.36-2.16c3.75-2.34,5.69-6.19,5.69-11.2,0-3.34-1-5.68-3.24-7.34A9.64,9.64,0,0,0,56,6.08a3.9,3.9,0,0,0-.94.08A24.87,24.87,0,0,1,55.63,10.65ZM53.8,6.23a12.86,12.86,0,0,0-7.49,4.5,13.52,13.52,0,0,0-3,8.53c0,2.41,1.08,4.5,2.38,4.5,1.73,0,4.5-2.81,6.33-6.48a20.46,20.46,0,0,0,2.3-8.1,6.66,6.66,0,0,0-.46-2.74Z"/><path class="cls-2" d="M88.67,9.54a28,28,0,0,0-4.75,1.22,2.56,2.56,0,0,1-.79.22,3.87,3.87,0,0,1-2-1,2.86,2.86,0,0,1-.8-2c0-.47.11-.72.29-.72s.11.07.14.21c.11.72,1.44,1.33,2.85,1.33a88.38,88.38,0,0,0,9.5-1C95.94,7.34,96,7.34,96.59,7c.43-.25.5-.29.68-.29a4.52,4.52,0,0,1,1.76,1c1.48,1.11,1.48,1.11,1.48,1.33s-.07.22-.33.4a1.76,1.76,0,0,0-.75.9C96.23,17.57,92.56,22,87.2,25.16c-2.6,1.55-7.6,3.53-8.89,3.53-.18,0-.43-.18-.43-.33s0-.14.61-.36a30.38,30.38,0,0,0,13.09-8.74C94.1,16.23,97,11,97,9.32c0-.5-.4-.72-1.41-.72A66.59,66.59,0,0,0,88.67,9.54Z"/><path class="cls-2" d="M111,7.16a.25.25,0,0,1-.11,0,.17.17,0,0,1-.11-.14,5.09,5.09,0,0,1,1.84-.87,3.75,3.75,0,0,1,1.69.76c1,.61,1.08.68,1.08,1.26l0,.75c-.1,1-.18,2.7-.18,3.39s.11,3.31.18,4.46a4.13,4.13,0,0,1,0,.65c0,.65-.29,1.08-.76,1.08A1.78,1.78,0,0,1,113,17a3.5,3.5,0,0,1,0-.61,23,23,0,0,0,.14-3.13,21.9,21.9,0,0,0-.25-4.75,1.7,1.7,0,0,0-1.73-1.3Zm1.08,22.46a2.34,2.34,0,0,1-.29.08c-.21,0-.47-.22-.47-.36s0-.15.76-.36a16.19,16.19,0,0,0,9.46-8c1.15-2.59,1.51-5.54,1.51-12.34,0-1.48-.14-2.16-.54-2.67a2.07,2.07,0,0,0-1.4-.72s-.11,0-.14,0h-.11c-.07,0-.18-.15-.18-.25,0-.29,1.55-1,2.16-1,.79,0,3.09,1.66,3.09,2.2,0,.07,0,.14-.25.47s-.43.79-.43.86a3.86,3.86,0,0,0-.07,1.19c-.11,9.36-.4,10.94-2.49,14.25-2,3-5.79,5.37-10.43,6.52Z"/><path class="cls-2" d="M144.06,16.45c3.23,0,15.58-.94,18-1.4a4,4,0,0,1,.83-.11c1.18,0,2.69.93,2.69,1.69,0,.54-.64,1-1.44,1a3.83,3.83,0,0,1-.64,0c-1.3-.11-3.53-.18-5-.18a108.28,108.28,0,0,0-15.9,1.23,5.42,5.42,0,0,1-1.37.21,6.3,6.3,0,0,1-3.24-1.37c-.36-.36-.5-1.11-.5-2.37,0-.29.07-.4.21-.4s.18.07.25.22c.62,1.29,1.3,1.51,4.5,1.47Z"/><path class="cls-2" d="M184.58,8.68c0-.76,0-1.19,0-1.66a7.44,7.44,0,0,0,0-.83c0-1.11-.36-1.8-1.08-2A5.55,5.55,0,0,0,182.49,4c-.14,0-.21-.11-.21-.25a4.52,4.52,0,0,1,2.26-.79c1,0,2.88,1,2.88,1.58a1.64,1.64,0,0,1-.18.58,17.09,17.09,0,0,0-1,4.46c5.62-.54,5.69-.58,6.62-1.15.4-.25.54-.33.65-.33a7.36,7.36,0,0,1,2.23,1.48c.47.4.65.61.65.79s-.18.32-1,1c-2.59,7.35-6.55,12.64-12.05,16.09-2.41,1.51-6.66,3.28-7.88,3.28a.36.36,0,0,1-.36-.33c0-.1.07-.18.29-.25a27.35,27.35,0,0,0,10.68-6.8,29.23,29.23,0,0,0,6-9.79,16.41,16.41,0,0,0,.72-2.88c0-.51-.29-.68-1.12-.68-1.51,0-7.8.68-10.18,1.11-2.12.4-2.41.54-2.66,1.15.11.72.14.94.25,1.55s.18,1.44.29,2.12a35.25,35.25,0,0,1,.5,3.68c0,.61-.36.9-1,.9-.9,0-1.47-.33-1.47-.8a2.82,2.82,0,0,1,0-.46l0-.94a38.3,38.3,0,0,0-.9-7.09,2.46,2.46,0,0,0-1.87-2c-.22-.07-.25-.11-.25-.22s.25-.25.79-.25a4.87,4.87,0,0,1,3.13,1.66c3-.33,4.39-.47,6.19-.65Z"/><path class="cls-2" d="M222.44,26.56a14,14,0,0,1,.18,2,2.52,2.52,0,0,1-1.23,2.34,2.72,2.72,0,0,1-1.22.65c-.22,0-.4-.18-.43-.54-.11-1-1.26-2.45-3-3.75-.11-.11-.15-.14-.15-.21a.21.21,0,0,1,.18-.22,13.35,13.35,0,0,1,2,1,2.79,2.79,0,0,0,1.29.5c.4,0,.54-.32.54-1.08,0-1.76-.14-6.44-.32-10a25,25,0,0,1-9.68,9.32,18.5,18.5,0,0,1-5.15,2,.45.45,0,0,1-.39-.39c0-.15,0-.15.57-.36,5.47-2.12,10.91-7,13.17-11.77a36.33,36.33,0,0,0-6.51,1.29,3.1,3.1,0,0,1-1.08.29,2.86,2.86,0,0,1-2.41-2.45c0-.14.07-.21.18-.21s.14,0,.29.18c.47.43,1.11.57,2.44.57a71.2,71.2,0,0,0,8.39-.75c-.36-5.54-.43-5.8-1.87-5.69-.36,0-.44,0-.44-.21,0-.33,1.62-1.19,2.24-1.19s1.9.75,1.9,1.19c0,.07,0,.07-.07.17-.25.44-.32,1.16-.32,3.24,0,.69,0,1.19.07,2.31,2.81-.51,3.63-.72,4.42-1.19a.82.82,0,0,1,.44-.18,8.78,8.78,0,0,1,2.05.79c.57.36.72.51.72.9a.64.64,0,0,1-.72.69,5,5,0,0,1-.72,0c-.94-.07-2.05-.14-2.59-.14-.72,0-2.23.07-3.57.21.15,1.95.22,3.28.26,4s.1,1.65.21,2.7l.15,1.91Z"/><path class="cls-2" d="M245.9,16.45c3.24,0,15.58-.94,18-1.4a4,4,0,0,1,.83-.11c1.19,0,2.7.93,2.7,1.69,0,.54-.65,1-1.44,1a4,4,0,0,1-.65,0c-1.29-.11-3.52-.18-5-.18a108.51,108.51,0,0,0-15.9,1.23,5.31,5.31,0,0,1-1.37.21,6.26,6.26,0,0,1-3.23-1.37,3.51,3.51,0,0,1-.51-2.37c0-.29.07-.4.22-.4s.18.07.25.22c.61,1.29,1.3,1.51,4.5,1.47Z"/><path class="cls-2" d="M291.21,8.78a23.87,23.87,0,0,0,4.17-.57,5.32,5.32,0,0,0,1.69-.72c.29-.22.4-.25.58-.25s.29,0,1.51.93c.79.61,1.19,1,1.19,1.15s-.07.22-.25.33a2.35,2.35,0,0,0-.72.54,8.63,8.63,0,0,0-1.23,2c-3.81,6.87-8.77,11.8-15,14.93a32.87,32.87,0,0,1-6,2.34.55.55,0,0,1-.51-.46c0-.08,0-.08.65-.33,3.64-1.26,8.92-4.78,12.38-8.24A29.89,29.89,0,0,0,296,11.59a7.77,7.77,0,0,0,.72-2c0-.29-.22-.44-.61-.44a8.49,8.49,0,0,0-1.66.26c-1.29.25-3,.54-3.27.54s-.79-.22-1.51-.83a30.66,30.66,0,0,1-7.92,8.49,14.06,14.06,0,0,1-2.73,1.55.35.35,0,0,1-.36-.29c0-.11.11-.21.43-.43a23.61,23.61,0,0,0,5.69-5.62c2.41-3,3.56-5.25,3.56-6.83a2.21,2.21,0,0,0-1.3-2.09c-.07,0-.18-.11-.18-.15s.29-.18.83-.18a3.77,3.77,0,0,1,2.48,1c.94.64,1.26,1,1.26,1.47a.59.59,0,0,1-.18.43,4.72,4.72,0,0,0-.29.4c-.14.25-.28.47-.93,1.66A1.85,1.85,0,0,0,291.21,8.78Z"/></g></g></g></svg>