<svg xmlns="http://www.w3.org/2000/svg" viewBox="0 0 608.87 32.4"><defs><style>.cls-1{fill:#333;}</style></defs><title>walk-tekuteku-title</title><g id="Layer_2" data-name="Layer 2"><g id="Layer_1-2" data-name="Layer 1"><path class="cls-1" d="M5.54,20.12c-.32,0-1.08,0-2.19.07-.33,0-1.23,0-2.27,0L.65,19.08c2.62.11,3.81.14,4.82.18h2.3V14.15l2.7.21c.5,0,.83.33.83.69a1,1,0,0,1-.54.75l-.83.4v3.06h1.44L13,17.06,15.44,19a1.12,1.12,0,0,1,.43.72.46.46,0,0,1-.43.43H9.93v2.2a12.37,12.37,0,0,1,3.56,1.33,3.23,3.23,0,0,1,1.84,2.63,1.3,1.3,0,0,1-1.23,1.29,1.31,1.31,0,0,1-.75-.29,10.73,10.73,0,0,1-1.12-1.8,5.83,5.83,0,0,0-2.3-2.16v8.07c0,.54-.79,1-1.73,1-.32,0-.43-.18-.43-.58V23.43a30.17,30.17,0,0,1-4.64,4.93C1.76,29.52.76,30.2.36,30.2A.36.36,0,0,1,0,29.84c0-.18.18-.4.86-.94a28.72,28.72,0,0,0,6.3-8.78Zm4-14.61c-.21,0-1.51,0-3.42.11-.43,0-1.72,0-3.13.07L2.48,4.43c1.66.07,3,.11,3.53.11,1.76.07,3,.1,3.56.1h5.94V0L18.1.11c.5,0,.75.21.75.61a.85.85,0,0,1-.28.65l-.87.68V4.64h8.64l1.94-2.26,2.55,2a1.06,1.06,0,0,1,.47.69c0,.28-.18.43-.57.43H18.31C22.06,9,26.19,11,32.38,12.06a6.91,6.91,0,0,0-2.44,2.77C24.32,12.6,20.62,9.93,17.7,6v9.07c0,.51-.72.9-1.69.9-.36,0-.5-.18-.5-.54V7A44.45,44.45,0,0,1,6.3,13.17a27.32,27.32,0,0,1-4.68,2.16.31.31,0,0,1-.29-.28c0-.18.36-.44,2.7-1.77a34.87,34.87,0,0,0,9.46-7.77Zm8,14.72-.36-1.12c3.6.15,3.78.15,4.82.15H23V14.43l2.95.18c.32,0,.61.29.61.51a.9.9,0,0,1-.47.68l-1,.58v2.88h3.06l1.91-2.2L32.63,19a.87.87,0,0,1,.4.65.44.44,0,0,1-.47.47H25.19c1.15,2.84,4.28,5.62,8.6,7.52a6,6,0,0,0-2.45,2.27A19.41,19.41,0,0,1,25.11,22v9.58c0,.5-.53.75-1.61.75-.33,0-.47-.14-.47-.5V22.93a49.32,49.32,0,0,1-5.51,5.4C15.51,30,14.14,31,13.78,31a.35.35,0,0,1-.29-.33c0-.14,0-.14,1.19-1.15a49.83,49.83,0,0,0,7.7-9.36Z"/><path class="cls-1" d="M55.27,7.09a33.1,33.1,0,0,1,.51,4.21,19,19,0,0,1-4.21,11c-2,2.56-3.89,3.85-5.65,3.85a3.14,3.14,0,0,1-2.41-1.33,7.88,7.88,0,0,1-1.8-5.43C41.71,12,48,6,55.81,6,62.65,6,67.4,10.29,67.4,16.49c0,5.47-3.24,9.89-8.71,11.87a20.38,20.38,0,0,1-4.75,1.16c-.21,0-.43-.15-.43-.33s.11-.14.58-.25a15.84,15.84,0,0,0,6.54-3.42,12.51,12.51,0,0,0,4-9.65c0-3.16-1-5.5-3-7a9.28,9.28,0,0,0-5.39-1.8h-.33a1.89,1.89,0,0,0-.36,0ZM43.76,19.47c0,2.59,1,4.5,2.27,4.5,1.51,0,4.31-2.8,6-6a21.79,21.79,0,0,0,2.45-8.17A6.81,6.81,0,0,0,54,7.49l-.1-.26A12.31,12.31,0,0,0,43.76,19.47Z"/><path class="cls-1" d="M89.14,24a29,29,0,0,1-9.32,4,3.83,3.83,0,0,1-.43.07l-.29.07c-.25,0-.5-.18-.5-.32s.11-.22.5-.36a36.5,36.5,0,0,0,9.36-5.15,29.36,29.36,0,0,0,6.94-8.46,13.09,13.09,0,0,0,1.51-4.17c0-.54-.39-.87-1-.87a43.84,43.84,0,0,0-11.52,2.06,3.2,3.2,0,0,1-.57.14,4.33,4.33,0,0,1-2-1A2.69,2.69,0,0,1,81,8.17c0-.65.11-1,.32-1s.15,0,.25.32c.22.69,1.44,1.23,2.74,1.23s6.44-.54,9.1-.94a6.56,6.56,0,0,0,3-.9c.72-.47.79-.5,1.08-.5a1.86,1.86,0,0,1,1.12.47s.43.28.83.54c1.87,1.15,2.12,1.36,2.12,1.58s-.36.65-1.55,1.33C96.23,17.89,93.71,21.06,89.14,24Z"/><path class="cls-1" d="M122.54,11c4.31-.43,4.38-.43,5.9-.86a4,4,0,0,1,1.11-.25c.47,0,.87.32,1.91,1.58s1.15,1.37,1.15,1.69-.22.51-1,.54a8,8,0,0,0-3,.9,50.64,50.64,0,0,1-4.79,2.16,27.84,27.84,0,0,1-5.65,10.87,12.42,12.42,0,0,1-3.7,3.06,3.23,3.23,0,0,1-1.19.51.33.33,0,0,1-.33-.29c0-.11.08-.22.36-.4a15.63,15.63,0,0,0,5-5.61c1.55-2.74,2.84-6.77,2.84-8.89,0-.61-.18-.87-.72-1-.18,0-.25-.14-.25-.22s.29-.39.61-.39A6.46,6.46,0,0,1,124,16c2-1.15,4.28-3.21,4.28-3.85,0-.33-.47-.51-1.44-.51-3.63,0-9.28,1.05-11.58,2.16a1.55,1.55,0,0,1-.76.25,3.67,3.67,0,0,1-2.12-1.44,3.27,3.27,0,0,1-.51-1.76c0-.29.11-.47.29-.47s.18.07.25.22a2.57,2.57,0,0,0,2.13,1.11l4.35-.32Z"/><path class="cls-1" d="M151.51,22c4.64,1.69,7.84,4,7.84,5.61A1.42,1.42,0,0,1,157.8,29c-.83,0-1-.11-2.37-1.59a27.52,27.52,0,0,0-10.94-6.22c-.61-.15-.68-.18-.68-.44s.21-.32.72-.32A28.16,28.16,0,0,1,151.51,22Zm1.44-7.7c1.72.79,2.91,2,2.91,2.88a1.22,1.22,0,0,1-1.26,1.15c-.61,0-.76-.07-1.69-.94a13.46,13.46,0,0,0-7.7-3.67c-.22,0-.32-.11-.32-.29s.43-.39,1.83-.39A14,14,0,0,1,153,14.33Zm-6.77-8c-.07,0-.25,0-.43-.07s-.36-.11-.36-.29.79-.47,2.3-.47c5.08,0,10.69,2.63,10.69,5A1.28,1.28,0,0,1,157,11.66c-.57,0-.79-.11-1.33-.65-3-2.73-5.61-4.1-8.67-4.57Z"/><path class="cls-1" d="M173.28,7.05a.23.23,0,0,1-.18-.17c0-.26,1.48-.87,2-.87a4.76,4.76,0,0,1,1.83.76c.9.5,1.12.68,1.12,1a2.25,2.25,0,0,1-.07.4,18.53,18.53,0,0,0-.29,4c0,.57,0,1.36.07,2.41,0,.75.07,1.47.07,1.58a6.37,6.37,0,0,0,.08,1.26,2.68,2.68,0,0,1,0,.43.82.82,0,0,1-.72.83A2.24,2.24,0,0,1,175.26,17a1.52,1.52,0,0,1,0-.33,36.55,36.55,0,0,0,.18-4.53c0-2.78-.07-3.71-.35-4.25a1.62,1.62,0,0,0-1.55-.9.38.38,0,0,0-.18,0Zm9.89-1.51a.23.23,0,0,1-.14,0c-.11,0-.25-.18-.25-.33s1.51-1,2.16-1c1,0,3.24,1.48,3.24,2.13,0,.14,0,.25-.26.61a5.29,5.29,0,0,0-.39.75,6.21,6.21,0,0,0-.07,1.34c0,2.84-.18,7.09-.33,8.24C186.41,22.28,183.21,26,178,28a18.88,18.88,0,0,1-4,1.23c-.25,0-.54-.18-.54-.36s.11-.15.43-.22a19.83,19.83,0,0,0,6.8-3.85c3.67-3.74,4.42-6.26,4.42-14.94l0-1.47c0-1.7-.68-2.85-1.73-2.85Z"/><path class="cls-1" d="M205.17,18.75a6.71,6.71,0,0,1-1.59.25,4.09,4.09,0,0,1-3-1.87,8.91,8.91,0,0,1-.25-1.94c0-.25.11-.4.25-.4s.18.08.29.26c.5,1,1.29,1.36,3.31,1.36A161.91,161.91,0,0,0,224.09,15c.36,0,.68-.07,1-.07a2.35,2.35,0,0,1,1.8.76c.65.65.9,1,.9,1.29,0,.51-.68.83-1.8.83-.21,0-.65,0-1.26,0s-4-.11-5.11-.11A95.52,95.52,0,0,0,205.17,18.75Z"/><path class="cls-1" d="M249.14,9.32c.68,0,1.33-.11,2-.18a9,9,0,0,0,3.2-.75c1-.47,1-.47,1.29-.47s.43.11.87.47c.07.07.39.36.9.79.68.54,1.08,1,1.08,1.19s0,.21-1.05.9c-3.85,8.45-6.69,12.16-11.87,15.47a23.74,23.74,0,0,1-6.37,3c-.5.11-1.4.33-1.51.33s-.43-.18-.43-.33.07-.18.25-.21a23.17,23.17,0,0,0,5.72-2.85A27.58,27.58,0,0,0,254.07,12a8.72,8.72,0,0,1,.22-.93,2.1,2.1,0,0,0,.1-.62c0-.28-.39-.5-1-.5-1.34,0-7.06.61-9.32,1s-2.81.58-3.06,1.15l.21,1.44c.8,4.83.83,5.12.83,5.44,0,.61-.32.86-1.08.86-1.36,0-1.62-.14-1.62-.86a5.28,5.28,0,0,1,0-.72v-.61a29.85,29.85,0,0,0-.9-6.59,2.31,2.31,0,0,0-1.8-1.8c-.18,0-.29-.14-.29-.25s.43-.33,1.08-.33a5.41,5.41,0,0,1,3.06,1.55l.33,0,.79-.11c1.44-.18,3-.33,4.67-.47,0-.76,0-1.4,0-1.69,0-3.17-.22-3.53-2.05-3.67-.22,0-.32-.08-.32-.22,0-.36,1.43-1,2.23-1a5.68,5.68,0,0,1,2.48.9c.57.33.75.54.75.83a.9.9,0,0,1-.18.54,10.91,10.91,0,0,0-1,4.14Z"/><path class="cls-1" d="M282.61,23.9c0-2.63,0-4.25,0-4.82,0-.29,0-1.19-.07-2a23,23,0,0,1-9.21,8.78,21.64,21.64,0,0,1-5.22,2,.47.47,0,0,1-.43-.43c0-.15.11-.22.36-.29,5.36-2,10.83-6.88,13-11.59a50.92,50.92,0,0,0-5.5,1.33,3.55,3.55,0,0,1-1.48.36,2.94,2.94,0,0,1-2.62-2.52c0-.18.07-.25.17-.25s.18,0,.51.29a3.52,3.52,0,0,0,2.05.43,76,76,0,0,0,8.17-.72c-.15-1.87-.4-3.82-.54-4.5A1.08,1.08,0,0,0,280.77,9a1.27,1.27,0,0,0-.36,0,.39.39,0,0,1-.21,0,.25.25,0,0,1-.22-.26c0-.32,1.77-1.29,2.38-1.29.82,0,2.08.72,2.08,1.19a1.18,1.18,0,0,1-.07.21,12.11,12.11,0,0,0-.29,3.75c0,.57,0,.86,0,1.51a13.67,13.67,0,0,0,4.1-1.19.82.82,0,0,1,.43-.14,9.83,9.83,0,0,1,2.2,1,.76.76,0,0,1,.43.68.69.69,0,0,1-.72.76,7.39,7.39,0,0,1-1-.11,22.9,22.9,0,0,0-2.41-.14,22.48,22.48,0,0,0-3.06.21c.14,2.2.14,2.38.22,3.78,0,1.23.1,2.06.1,2.34l.22,2.49.07,1.4c0,.54.07,1,.11,1.51a7,7,0,0,1,.07.87,2.85,2.85,0,0,1-.5,1.58,4.9,4.9,0,0,1-2.09,1.33c-.22,0-.43-.29-.5-.72-.07-.93-1.33-2.59-2.77-3.6-.11-.11-.15-.14-.15-.25a.31.31,0,0,1,.25-.25c.15,0,.36.11,1.19.65a5.12,5.12,0,0,0,1.8.93c.36,0,.4-.11.43-1.73Z"/><path class="cls-1" d="M305.39,18.75a6.66,6.66,0,0,1-1.58.25,4.09,4.09,0,0,1-3-1.87,8.85,8.85,0,0,1-.26-1.94c0-.25.11-.4.26-.4s.17.08.28.26c.51,1,1.3,1.36,3.31,1.36A162.07,162.07,0,0,0,324.32,15c.36,0,.68-.07,1-.07a2.35,2.35,0,0,1,1.8.76c.64.65.9,1,.9,1.29,0,.51-.69.83-1.8.83-.22,0-.65,0-1.26,0s-4-.11-5.11-.11A95.78,95.78,0,0,0,305.39,18.75Z"/><path class="cls-1" d="M337.64,29.55c-.22.07-.33.15-.47.18a1.44,1.44,0,0,1-.32.07c-.26,0-.62-.28-.62-.5s.08-.18.47-.29c0,0,.11-.07.25-.11l.43-.18c3.46-1.44,8.53-5.25,11.95-9a33.06,33.06,0,0,0,4.57-7,9.62,9.62,0,0,0,1-2.48A.82.82,0,0,0,354,9.5c-.14,0-.39,0-.64.07-.08,0-.87.18-1.59.29s-1,.18-1.33.22a3.41,3.41,0,0,1-.68.11,2.53,2.53,0,0,1-1.37-.51,34.88,34.88,0,0,1-5.72,7c-1.66,1.51-3.92,3-4.5,3-.18,0-.36-.1-.36-.25s.07-.28.94-.9a29,29,0,0,0,5.65-6.48c1.44-2.16,2.34-4.17,2.34-5.29a2.24,2.24,0,0,0-1.26-2.16c-.11,0-.22-.1-.22-.18s.4-.32.9-.32a4.14,4.14,0,0,1,2.41.86c1.22.79,1.51,1.12,1.51,1.59,0,.18,0,.25-.21.5a4.5,4.5,0,0,0-.62.86c-.21.47-.28.62-.43,1a1.71,1.71,0,0,0,.83.18,19.26,19.26,0,0,0,4.14-.8,7.38,7.38,0,0,0,1.29-.64c.58-.33.8-.44,1-.44.36,0,.83.29,2,1.26s1.19,1,1.19,1.34-.15.43-.51.57a5.41,5.41,0,0,0-1.11.47C352.78,20.7,346.92,26.13,337.64,29.55Z"/><path class="cls-1" d="M379.17,4.17H400l2.24,6-1.05.47C399,8,398.63,7.67,397.63,6.91a6.86,6.86,0,0,0-4-1.51C391.91,5.4,391,6.62,391,9V25.77c0,2.45.36,2.67,4.57,2.81v1.19H383.45V28.58c4-.11,4.43-.4,4.5-2.81V9c0-2.55-.76-3.56-2.74-3.56a6.7,6.7,0,0,0-4.46,2,31.82,31.82,0,0,0-3.09,3.27l-.9-.54Z"/><path class="cls-1" d="M405.44,28.65c3.52-.14,4-.47,4-2.95V8.46c0-2.45-.54-2.92-4-3.21V4.14H425l2.27,5.29-1,.5c-3.2-3.56-5.61-4.68-10.15-4.68-2.77,0-3.52.65-3.52,3V16h3.6c3,0,4.13-1.15,4.42-4.68h1.23V21.42h-1.16c-.28-3.28-1.26-4.21-4.49-4.21h-3.6v8.42c0,2.27.75,2.91,3.38,2.91,5.51,0,7.95-1.18,11.33-5.58l1.05.54-2.56,6.27H405.44Z"/><path class="cls-1" d="M432.5,28.58h.65c2.52,0,3.38-.68,3.42-2.66v-18c0-2.16-.58-2.56-4-2.67V4.14h11.22V5.25c-3.31,0-4,.47-4,2.67v9.65L450,7.92a2.28,2.28,0,0,0,.87-1.59c0-.79-.51-1-2.59-1.08V4.14h10V5.25A8.36,8.36,0,0,0,452,7.85l-6.16,5.72,9.32,12.63c1.12,1.66,2.49,2.34,4.82,2.45v1.12H449.12V28.58h0c1.76,0,2.37-.29,2.37-1.15a2.2,2.2,0,0,0-.5-1.3l-7.48-10.47-3.78,3.56v6.41c0,2.45.75,2.95,4,2.95v1.19H432.5Z"/><path class="cls-1" d="M491.19,5.36c-3,.11-4,.9-4,3.28V20.12c0,3.64-.43,5.47-1.62,7-1.73,2.12-4.68,3.27-8.39,3.27s-6.51-1.08-8-3.16c-1.08-1.44-1.47-3.35-1.47-6.92V8.42c0-2.59-.4-2.91-4-3.06V4.17H475V5.36c-3.67.11-4.06.4-4.13,3.06V21.13c0,2.81.61,4.82,1.79,6a8.12,8.12,0,0,0,5.55,1.76c2.87,0,5.29-1,6.58-2.66.9-1.15,1.26-2.63,1.26-5V8.57c0-2.38-.94-3.14-3.92-3.21V4.17h9.1Z"/><path class="cls-1" d="M496.85,4.17h20.79l2.23,6-1,.47c-2.16-2.63-2.52-2.95-3.53-3.71a6.83,6.83,0,0,0-4-1.51c-1.73,0-2.59,1.22-2.59,3.63V25.77c0,2.45.36,2.67,4.57,2.81v1.19H501.13V28.58c3.95-.11,4.42-.4,4.49-2.81V9c0-2.55-.75-3.56-2.73-3.56a6.66,6.66,0,0,0-4.46,2,32,32,0,0,0-3.1,3.27l-.9-.54Z"/><path class="cls-1" d="M523.12,28.65c3.52-.14,4-.47,4-2.95V8.46c0-2.45-.54-2.92-4-3.21V4.14h19.57L545,9.43l-1,.5c-3.2-3.56-5.61-4.68-10.15-4.68-2.77,0-3.52.65-3.52,3V16h3.59c3,0,4.14-1.15,4.43-4.68h1.22V21.42h-1.15c-.29-3.28-1.26-4.21-4.5-4.21h-3.59v8.42c0,2.27.75,2.91,3.38,2.91,5.5,0,8-1.18,11.33-5.58l1,.54-2.56,6.27H523.12Z"/><path class="cls-1" d="M550.18,28.58h.65c2.51,0,3.38-.68,3.41-2.66v-18c0-2.16-.57-2.56-4-2.67V4.14h11.23V5.25c-3.31,0-4,.47-4,2.67v9.65L567.7,7.92a2.26,2.26,0,0,0,.86-1.59c0-.79-.5-1-2.59-1.08V4.14h10V5.25a8.39,8.39,0,0,0-6.3,2.6l-6.15,5.72,9.32,12.63c1.12,1.66,2.48,2.34,4.82,2.45v1.12H566.8V28.58h0c1.76,0,2.37-.29,2.37-1.15a2.2,2.2,0,0,0-.5-1.3l-7.49-10.47-3.77,3.56v6.41c0,2.45.75,2.95,3.95,2.95v1.19H550.18Z"/><path class="cls-1" d="M608.87,5.36c-3,.11-4,.9-4,3.28V20.12c0,3.64-.44,5.47-1.62,7-1.73,2.12-4.68,3.27-8.39,3.27s-6.51-1.08-8-3.16c-1.08-1.44-1.48-3.35-1.48-6.92V8.42c0-2.59-.39-2.91-4-3.06V4.17h11.22V5.36c-3.67.11-4.06.4-4.14,3.06V21.13c0,2.81.62,4.82,1.8,6a8.08,8.08,0,0,0,5.54,1.76c2.88,0,5.29-1,6.59-2.66.9-1.15,1.26-2.63,1.26-5V8.57c0-2.38-.94-3.14-3.92-3.21V4.17h9.1Z"/></g></g></svg>