<svg xmlns="http://www.w3.org/2000/svg" viewBox="0 0 499.61 48.6"><defs><style>.cls-1{fill:#333;}</style></defs><title>walk-free-title</title><g id="Layer_2" data-name="Layer 2"><g id="Layer_1-2" data-name="Layer 1"><path class="cls-1" d="M8.32,30.19c-.49,0-1.62,0-3.3.1-.48,0-1.83,0-3.4.06L1,28.62c3.94.16,5.73.22,7.24.27h3.45V21.22l4.05.33c.76.05,1.25.48,1.25,1a1.43,1.43,0,0,1-.81,1.14l-1.25.59v4.59h2.16l2.49-3.29,3.62,2.86a1.67,1.67,0,0,1,.64,1.08.7.7,0,0,1-.64.65H14.9v3.29a19.15,19.15,0,0,1,5.35,2A4.81,4.81,0,0,1,23,39.42a2,2,0,0,1-1.83,1.95A2,2,0,0,1,20,40.93a18.91,18.91,0,0,1-1.67-2.7A8.9,8.9,0,0,0,14.9,35v12.1c0,.81-1.18,1.51-2.59,1.51-.48,0-.65-.27-.65-.86V35.16a46.48,46.48,0,0,1-7,7.39C2.65,44.28,1.13,45.31.54,45.31A.54.54,0,0,1,0,44.77c0-.27.27-.6,1.3-1.41a43.26,43.26,0,0,0,9.45-13.17Zm6-21.93c-.32,0-2.26.06-5.13.16-.64.06-2.59.06-4.69.11L3.73,6.64c2.48.11,4.48.16,5.29.16,2.64.11,4.43.17,5.34.17h8.91V0l3.89.16c.76.06,1.14.33,1.14.92a1.25,1.25,0,0,1-.44,1l-1.29,1V7h13l2.91-3.41,3.84,3a1.58,1.58,0,0,1,.7,1c0,.44-.27.65-.86.65H27.49c5.61,5.29,11.82,8.21,21.11,9.83a10.47,10.47,0,0,0-3.67,4.16C36.5,18.9,30.94,14.9,26.57,9V22.63c0,.75-1.08,1.35-2.54,1.35-.54,0-.76-.27-.76-.81V10.42A66,66,0,0,1,9.45,19.76C5.51,21.82,2.92,23,2.43,23A.45.45,0,0,1,2,22.57c0-.27.54-.65,4.05-2.64A52.67,52.67,0,0,0,20.25,8.26ZM26.3,30.35l-.54-1.68c5.4.22,5.67.22,7.23.22h1.57V21.66l4.43.26c.48.06.92.44.92.76a1.37,1.37,0,0,1-.71,1l-1.51.86v4.32h4.59l2.87-3.29L49,28.51a1.28,1.28,0,0,1,.59,1,.65.65,0,0,1-.7.7H37.8c1.73,4.26,6.43,8.42,12.91,11.28A8.88,8.88,0,0,0,47,44.88,29.11,29.11,0,0,1,37.69,33V47.36c0,.76-.81,1.13-2.43,1.13-.48,0-.7-.21-.7-.75V34.4a71.86,71.86,0,0,1-8.26,8.1c-3,2.48-5.08,3.94-5.62,3.94a.52.52,0,0,1-.43-.48c0-.22,0-.22,1.78-1.73a75.34,75.34,0,0,0,11.56-14Z"/><path class="cls-1" d="M83.27,10.1A50.26,50.26,0,0,1,84,16.63c0,5.46-2.48,11.88-6.58,17.17-3.14,4.06-6,6.05-8.86,6.05a4.81,4.81,0,0,1-3.73-2.05,12.6,12.6,0,0,1-2.8-8.53c0-11.45,9.93-20.85,22-20.85,10.69,0,18.14,6.7,18.14,16.31,0,8.59-5.07,15.56-13.61,18.63a32.79,32.79,0,0,1-7.39,1.79c-.38,0-.71-.27-.71-.49s.17-.22.92-.43a24.55,24.55,0,0,0,10.21-5.35c3.89-3.35,6.15-8.85,6.15-15.07,0-5-1.56-8.64-4.64-11A14,14,0,0,0,84.78,10Zm-2.16.21A19.22,19.22,0,0,0,65.29,29.43c0,4,1.51,7,3.56,7,2.32,0,6.64-4.37,9.29-9.4,2.1-4.1,3.78-9.66,3.78-12.74a10.7,10.7,0,0,0-.7-3.73Z"/><path class="cls-1" d="M137.43,36.56a44.56,44.56,0,0,1-14.53,6.21,3.2,3.2,0,0,1-.7.16,2.31,2.31,0,0,1-.48.11c-.33,0-.76-.27-.76-.54s.16-.33.81-.54a57.16,57.16,0,0,0,14.58-8.05A46.06,46.06,0,0,0,147.2,20.74c1.3-2.43,2.38-5.46,2.38-6.54,0-.86-.65-1.35-1.62-1.35A71.09,71.09,0,0,0,130,16a2.55,2.55,0,0,1-.92.27A7,7,0,0,1,126,14.63a4.05,4.05,0,0,1-1.24-2.86c0-1,.16-1.51.54-1.51.16,0,.22.11.38.49.32,1,2.21,1.89,4.26,1.89s9.08-.71,14.26-1.46c2.65-.38,3.46-.65,4.64-1.41s1.3-.75,1.79-.75.81.16,1.72.75c.22.11.65.44,1.25.81,3,1.79,3.34,2.11,3.34,2.49,0,.54-.54,1-2.43,2.1C148.61,26.84,144.56,32,137.43,36.56Z"/><path class="cls-1" d="M184.46,10a.36.36,0,0,1-.27-.32c0-.32,2.27-1.35,3.14-1.35.48,0,1.13.27,2.8,1.19,1.46.75,1.79,1.08,1.79,1.56a4.38,4.38,0,0,1-.11.65,29,29,0,0,0-.43,6.21c0,.92.05,2.16.1,3.78.06,1.19.11,2.43.11,2.49a11.3,11.3,0,0,0,.11,1.94,4.14,4.14,0,0,1,.05.7,1.26,1.26,0,0,1-1.13,1.3c-1.3,0-3-1.51-3-2.59a2.13,2.13,0,0,1,.05-.54,59.15,59.15,0,0,0,.27-6.92c0-4.42-.11-5.93-.59-6.75A2.55,2.55,0,0,0,185,10a.7.7,0,0,0-.32,0Zm15.45-2.37a.29.29,0,0,1-.16,0,.52.52,0,0,1-.44-.48c0-.49,2.33-1.57,3.41-1.57,1.56,0,5.07,2.32,5.07,3.35,0,.21,0,.38-.37.92-.44.81-.54,1-.65,1.18a16.17,16.17,0,0,0-.11,2c0,4.32-.27,11.18-.54,13C205,33.75,200,39.64,191.75,42.71c-3.51,1.36-5.5,1.95-6.26,1.95-.38,0-.86-.27-.86-.54s.16-.22.7-.38a30.36,30.36,0,0,0,10.58-6c5.78-5.89,7-9.78,7-23.33l.05-2.27c0-2.7-1.08-4.48-2.75-4.48Z"/><path class="cls-1" d="M240.68,28.35a11.36,11.36,0,0,1-2.49.38c-1.56,0-4.32-1.68-4.75-2.92a15.39,15.39,0,0,1-.38-3c0-.38.17-.65.44-.65s.27.11.43.38c.7,1.56,2,2.1,5.13,2.1a251.06,251.06,0,0,0,31.21-2.21c.49-.05,1-.11,1.46-.11a3.65,3.65,0,0,1,2.86,1.19c1,1,1.41,1.51,1.41,2,0,.81-1.08,1.3-2.81,1.3-.44,0-1,0-2-.06-1.19-.11-5.56-.16-7.83-.16C255.91,26.57,244.89,27.43,240.68,28.35Z"/><path class="cls-1" d="M314,13.55c2.32-.21,3.62-.32,3.89-.37a12,12,0,0,0,4.27-1.08c1.62-.71,1.62-.71,2-.71s.76.17,1.35.76c.22.16.7.6,1.46,1.19,1.13.92,1.68,1.51,1.68,1.83s0,.38-1.63,1.46c-6,13.12-10.47,19-18.57,24.2a36.62,36.62,0,0,1-9.94,4.59c-.81.21-2.21.54-2.43.54a.65.65,0,0,1-.65-.54c0-.17.11-.22.38-.33a35.41,35.41,0,0,0,9-4.43,42.92,42.92,0,0,0,16.9-22.89c.22-.76.32-1.3.38-1.41a4.22,4.22,0,0,0,.16-1c0-.49-.6-.81-1.57-.81-2,0-11.07.92-14.58,1.51s-4.43,1-4.8,1.79l.37,2.26.49,3.13.49,3a12.74,12.74,0,0,1,.32,2.37c0,1-.54,1.35-1.78,1.35-2.05,0-2.49-.22-2.49-1.35a8.59,8.59,0,0,1,.06-1.13v-1a47.12,47.12,0,0,0-1.41-10.26,3.53,3.53,0,0,0-2.8-2.8c-.27-.06-.44-.22-.44-.44s.71-.48,1.73-.48A8.71,8.71,0,0,1,300.56,15c1.79-.27,5.62-.7,9.08-1,.05-7.89,0-8-3.19-8.37-.32,0-.49-.11-.49-.33,0-.54,2.27-1.56,3.51-1.56a9.24,9.24,0,0,1,3.84,1.4c.92.54,1.19.86,1.19,1.3a1.23,1.23,0,0,1-.33.81c-.59.75-1.4,4.1-1.56,6.48Z"/><path class="cls-1" d="M371.3,28.73c0-.43-.05-1.62-.1-3.13a35.72,35.72,0,0,1-14.37,13.71c-2.91,1.52-7.07,3.14-8.15,3.14a.71.71,0,0,1-.7-.65c0-.22.16-.38.54-.49,8.42-3.19,16.9-10.74,20.35-18.09a66.7,66.7,0,0,0-8.58,2.05,5.49,5.49,0,0,1-2.32.54c-1.89,0-4.11-2.1-4.11-3.94,0-.27.11-.38.27-.38s.33.06.81.49a5.53,5.53,0,0,0,3.19.65,120.13,120.13,0,0,0,12.74-1.14,60.25,60.25,0,0,0-.86-7,1.62,1.62,0,0,0-1.62-1.35,2.44,2.44,0,0,0-.6.06.7.7,0,0,1-.32.05.36.36,0,0,1-.32-.38c0-.54,2.75-2,3.72-2,1.3,0,3.3,1.13,3.3,1.84a1.46,1.46,0,0,1-.11.37c-.38.76-.49,2.27-.49,6,0,1.08,0,1.51.06,2.21,3.83-.75,4.75-1.08,6.37-1.89a1.61,1.61,0,0,1,.7-.21,13.44,13.44,0,0,1,3.4,1.62,1.24,1.24,0,0,1,.7,1.08A1.08,1.08,0,0,1,383.67,23a10,10,0,0,1-1.51-.16,35.67,35.67,0,0,0-3.78-.21,33.23,33.23,0,0,0-4.75.32c.21,3.46.21,3.78.32,5.94.11,1.89.16,3.19.22,3.67.1,1.24.21,2.54.32,3.84l.22,3.61c.1,1.25.16,2.11.16,2.33a4.51,4.51,0,0,1-.76,2.43,8.31,8.31,0,0,1-3.29,2.1c-.33,0-.65-.43-.76-1.13-.11-1.46-2.1-4.05-4.37-5.62a.41.41,0,0,1-.22-.37.46.46,0,0,1,.38-.38c.27,0,.49.11,1.84,1,1.62,1,2.43,1.41,2.86,1.41s.59-.22.65-2.7l.05-2.76.05-4.1Z"/><path class="cls-1" d="M412.4,28.35a11.36,11.36,0,0,1-2.49.38c-1.56,0-4.32-1.68-4.75-2.92a15.39,15.39,0,0,1-.38-3c0-.38.17-.65.44-.65s.27.11.43.38c.7,1.56,2,2.1,5.13,2.1A251.06,251.06,0,0,0,442,22.41c.49-.05,1-.11,1.46-.11a3.65,3.65,0,0,1,2.86,1.19c1,1,1.4,1.51,1.4,2,0,.81-1.07,1.3-2.8,1.3-.43,0-1,0-2-.06-1.19-.11-5.56-.16-7.83-.16C427.63,26.57,416.61,27.43,412.4,28.35Z"/><path class="cls-1" d="M464.67,44.17a56.17,56.17,0,0,0,16.58-11.61,45,45,0,0,0,9.39-12.69,18.88,18.88,0,0,0,2-4.8,1.26,1.26,0,0,0-1.29-1.19,9.35,9.35,0,0,0-1,.11c-.16,0-1.3.27-2.43.43-.92.16-1.67.27-2.11.32a4.6,4.6,0,0,1-1.08.16,4.19,4.19,0,0,1-2.1-.75A53.49,53.49,0,0,1,473.69,25c-2.59,2.38-6.16,4.81-7,4.81-.33,0-.6-.16-.6-.38,0-.38.11-.48,1.46-1.46,2.27-1.56,5.89-5.72,8.86-10.09,2.27-3.46,3.67-6.54,3.67-8.32a3.45,3.45,0,0,0-2-3.35c-.21,0-.38-.22-.38-.32,0-.27.6-.49,1.46-.49a6.43,6.43,0,0,1,3.78,1.35c1.95,1.3,2.38,1.73,2.38,2.48,0,.33-.06.44-.38.81a10.44,10.44,0,0,0-.92,1.35c-.38.87-.54,1.14-.75,1.57a3.65,3.65,0,0,0,1.29.22A34.74,34.74,0,0,0,491,12a10.64,10.64,0,0,0,2.05-1c.92-.6,1.25-.71,1.57-.71.59,0,1.3.44,3.13,2,1.62,1.35,1.84,1.57,1.84,2s-.22.65-.81.87a14.62,14.62,0,0,0-1.73.75c-7.67,15.34-16.79,23.87-31.32,29.22a3.84,3.84,0,0,0-.76.27,3,3,0,0,1-.48.11c-.43,0-1-.43-1-.81,0-.16.1-.27.75-.44Z"/></g></g></svg>