<svg xmlns="http://www.w3.org/2000/svg" viewBox="0 0 469.17 32.65"><defs><style>.cls-1{isolation:isolate;}.cls-2{fill:#333;}</style></defs><title>walk-guide-title</title><g id="Layer_2" data-name="Layer 2"><g id="Layer_1-2" data-name="Layer 1"><g class="cls-1"><path class="cls-2" d="M7.09,17.75a7.57,7.57,0,0,1-1.58-5.33c0-1,.1-3.57.21-5.62l0-1.11C5.76,3.63,5,3,2.45,3c-.33,0-.4,0-.4-.18,0-.47,1.76-1,3.24-1a6.22,6.22,0,0,1,3,.86A1.77,1.77,0,0,1,9.1,4.25a7.56,7.56,0,0,1-.43,2.12,34.17,34.17,0,0,0-1.22,8c0,1.41.43,2.41,1.08,2.41a13.56,13.56,0,0,0,3.63-2c.43-.32.61-.43.94-.43,1,0,2.37.9,2.37,1.58s-.54.9-1.83,1.3a34.14,34.14,0,0,1-4.43.9,7.57,7.57,0,0,0-3.06,1.22c-2.66,1.55-4,3.57-4,5.94,0,2.56,2.09,3.82,6.3,3.82a24.07,24.07,0,0,0,7.41-1.33,2.12,2.12,0,0,1,.87-.26,2.42,2.42,0,0,1,2.05,2,1,1,0,0,1-.65.83c-1.26.58-4.57,1-7.67,1a18.93,18.93,0,0,1-6.87-1C1.3,29.3,0,27.57,0,25.48c0-2.77,2.66-5.76,6.66-7.55Zm11.84-7.42a1.32,1.32,0,0,1-1.23,1.22c-.36,0-.57-.17-.82-.64A6,6,0,0,0,13.31,8c-.21-.07-.25-.07-.25-.18s.54-.29,1.26-.29C16.59,7.52,18.93,8.93,18.93,10.33Zm3.56-2.05a1.32,1.32,0,0,1-1.23,1.29c-.35,0-.57-.18-.86-.72a6.14,6.14,0,0,0-3.63-2.91c-.15,0-.22-.07-.22-.18s.47-.25,1.26-.25C20.15,5.51,22.49,6.91,22.49,8.28Z"/><path class="cls-2" d="M49.55,4.79c0,.61-.21,1-1,1.73a59.93,59.93,0,0,0-7.77,10.11,7,7,0,0,0-.9,1.73.32.32,0,0,0,.32.29.42.42,0,0,0,.4-.22C42.79,16,46,14.15,48,14.15a4.4,4.4,0,0,1,4.5,4.53,10.43,10.43,0,0,1-.25,2,29.17,29.17,0,0,0-.76,5.4c0,1.87.79,2.73,2.48,2.73,3.28,0,6.05-2.27,7.63-6.26.07-.25.15-.32.22-.32a.36.36,0,0,1,.29.39A12,12,0,0,1,60.6,27a8.29,8.29,0,0,1-6.91,3.64c-2.81,0-4.5-1.77-4.5-4.72a31.61,31.61,0,0,1,.58-5.07,14,14,0,0,0,.32-2.59,2.42,2.42,0,0,0-2.7-2.56c-1.72,0-3.74,1.08-6.22,3.38S37.43,24.69,37,29.91c-.11.94-.4,1.44-.83,1.44a2.91,2.91,0,0,1-1.58-.72,1.22,1.22,0,0,1-.44-1c0-3.89,4.36-13.1,10.62-22.46,1.11-1.66,1.36-2.2,1.36-2.85a2.19,2.19,0,0,0-2.23-2c-.14,0-.21-.07-.21-.21s.93-.51,1.83-.51C47.39,1.58,49.55,3.31,49.55,4.79Z"/><path class="cls-2" d="M82.59,2.34c-.11,0-.18,0-.18-.11,0-.36.86-.68,1.87-.68,1.73,0,4.1,1.83,4.1,3.2,0,.43-.14.65-.75,1.08-1,.65-2.09,1.69-4.57,4.39a24.93,24.93,0,0,0-3,3.49,5.23,5.23,0,0,0-.62,2.42,3.82,3.82,0,0,0,1.19,2.73c3.2,3.85,4.75,5.83,5.51,7A10.38,10.38,0,0,1,88,30.7c0,1.16-.65,1.95-1.58,1.95s-1.23-.47-1.62-2.23c-.4-2.2-2.13-5.66-4.68-9.29C78,18.07,77.7,17.39,77.7,15.91s.83-3.06,4.17-7.38c2.52-3.2,2.88-3.82,2.88-4.75A1.84,1.84,0,0,0,83.13,2.3a1.09,1.09,0,0,0-.32,0ZM93.71,13a1.3,1.3,0,0,1-1.22,1.26c-.36,0-.51-.14-.94-.9A6.09,6.09,0,0,0,88,10.69c-.11,0-.15-.07-.15-.14s.54-.29,1.3-.29C91.44,10.26,93.71,11.63,93.71,13Zm3.09-2.52a1.3,1.3,0,0,1-1.22,1.3c-.32,0-.54-.18-.79-.65a6.4,6.4,0,0,0-3.53-2.92c-.25,0-.32-.11-.32-.21s.43-.25,1.19-.25C94.5,7.78,96.8,9.14,96.8,10.51Z"/><path class="cls-2" d="M117,12.06a13,13,0,0,0-2,6.12,5.56,5.56,0,0,0,.33,1.94.79.79,0,0,1,.14.5,1.47,1.47,0,0,1-1.22,1.59c-1.3,0-2.23-2.63-2.23-6.12A27.62,27.62,0,0,1,113.36,8a21.15,21.15,0,0,0,1-4.29A2.46,2.46,0,0,0,112,1.69c-.22,0-.29,0-.29-.14,0-.26,1.37-.69,2.23-.69A4.15,4.15,0,0,1,116.6,2c.68.61,1,1.12,1,1.51s-.11.76-.79,1.69a20.84,20.84,0,0,0-3,9.22c0,.39.15.65.4.65s.47-.18.65-.69A20.86,20.86,0,0,1,117,10.47c1.33-1.76,2.88-2.73,4.42-2.73a4.4,4.4,0,0,1,3.78,2.55,18.21,18.21,0,0,1,1.26,7.24c0,6-2.66,10.69-7.55,13.21a16.75,16.75,0,0,1-5,1.58c-.36,0-.72-.28-.72-.54,0-.07.11-.14.29-.14a11.15,11.15,0,0,0,5.39-2.41c3.28-2.7,4.93-6.95,4.93-12.42,0-4.93-1-7.49-2.87-7.6C119.55,9.14,118.11,10.22,117,12.06Z"/><path class="cls-2" d="M157,6.73a33.44,33.44,0,0,1,.5,4.36,19.7,19.7,0,0,1-4.39,11.44c-2.09,2.7-4,4-5.9,4a3.21,3.21,0,0,1-2.48-1.36,8.41,8.41,0,0,1-1.87-5.69c0-7.63,6.62-13.89,14.68-13.89,7.12,0,12.09,4.46,12.09,10.87,0,5.72-3.39,10.36-9.07,12.41a21.48,21.48,0,0,1-4.93,1.19c-.25,0-.47-.18-.47-.32s.11-.15.61-.29a16.3,16.3,0,0,0,6.8-3.56,13.15,13.15,0,0,0,4.11-10.05c0-3.31-1-5.75-3.1-7.3A9.27,9.27,0,0,0,158,6.7Zm-1.44.15A12.8,12.8,0,0,0,145,19.62c0,2.66,1,4.68,2.37,4.68,1.55,0,4.43-2.92,6.19-6.27a22.8,22.8,0,0,0,2.52-8.49,7.06,7.06,0,0,0-.47-2.49Z"/><path class="cls-2" d="M186.2,20.12c-.32,0-1.08,0-2.19.07-.33,0-1.23,0-2.27,0l-.43-1.15c2.62.11,3.81.14,4.82.18h2.3V14.15l2.7.21c.5,0,.83.33.83.69a1,1,0,0,1-.54.75l-.83.4v3.06H192l1.66-2.2L196.1,19a1.12,1.12,0,0,1,.43.72.46.46,0,0,1-.43.43h-5.51v2.2a12.37,12.37,0,0,1,3.56,1.33A3.23,3.23,0,0,1,196,26.28a1.2,1.2,0,0,1-2,1,10.73,10.73,0,0,1-1.12-1.8,5.83,5.83,0,0,0-2.3-2.16v8.07c0,.54-.79,1-1.73,1-.32,0-.43-.18-.43-.58V23.43a30.17,30.17,0,0,1-4.64,4.93c-1.37,1.16-2.37,1.84-2.77,1.84a.36.36,0,0,1-.36-.36c0-.18.18-.4.86-.94a28.72,28.72,0,0,0,6.3-8.78Zm4-14.61c-.21,0-1.51,0-3.42.11-.43,0-1.72,0-3.13.07l-.54-1.26c1.66.07,3,.11,3.53.11,1.76.07,3,.1,3.56.1h5.94V0l2.59.11c.5,0,.75.21.75.61a.85.85,0,0,1-.28.65l-.87.68V4.64H207l1.94-2.26,2.56,2a1.07,1.07,0,0,1,.46.69c0,.28-.18.43-.57.43H199C202.72,9,206.85,11,213,12.06a6.91,6.91,0,0,0-2.44,2.77C205,12.6,201.28,9.93,198.36,6v9.07c0,.51-.72.9-1.69.9-.36,0-.5-.18-.5-.54V7A44.06,44.06,0,0,1,187,13.17a27.32,27.32,0,0,1-4.68,2.16.31.31,0,0,1-.29-.28c0-.18.36-.44,2.7-1.77a34.87,34.87,0,0,0,9.46-7.77Zm8,14.72-.36-1.12c3.6.15,3.78.15,4.82.15h1.05V14.43l2.95.18c.32,0,.61.29.61.51a.9.9,0,0,1-.47.68l-1,.58v2.88h3.06l1.91-2.2,2.55,2a.84.84,0,0,1,.4.64.44.44,0,0,1-.47.47h-7.37c1.15,2.84,4.28,5.62,8.6,7.52A6,6,0,0,0,212,29.91,19.41,19.41,0,0,1,205.77,22v9.58c0,.5-.53.75-1.61.75-.33,0-.47-.14-.47-.5V22.93a49.32,49.32,0,0,1-5.51,5.4c-2,1.65-3.38,2.63-3.74,2.63a.35.35,0,0,1-.29-.33c0-.14,0-.14,1.19-1.15a49.83,49.83,0,0,0,7.7-9.36Z"/><path class="cls-2" d="M239.75,10.87l2.62-.43a6.16,6.16,0,0,0,3.42-1.37.55.55,0,0,1,.36-.11c.4,0,.79.25,1.69,1,1.41,1.26,1.41,1.26,1.41,1.62,0,.18-.11.28-.36.43-.58.32-.61.39-1,2.41-1.15,5.54-1.94,8.17-3.13,10.29s-2.88,3.39-4.5,3.39c-.29,0-.43-.11-.43-.29v-.25a1,1,0,0,0,0-.36,5.44,5.44,0,0,0-1.8-3.78c-.36-.29-.4-.33-.4-.4a.64.64,0,0,1,.36-.32.33.33,0,0,1,.18.11c.18.1.4.25.61.39,1.62,1.08,1.73,1.15,2.2,1.15,1.26,0,2.19-1.29,3.24-4.49a28.67,28.67,0,0,0,1.29-7.35c0-.93-.21-1.29-.75-1.29a34.11,34.11,0,0,0-6.12.9,30.72,30.72,0,0,1-4.75,10.15A20.48,20.48,0,0,1,226,28.54a13.89,13.89,0,0,1-2.44,1,.58.58,0,0,1-.51-.47c0-.15.15-.25.54-.4a23.76,23.76,0,0,0,12.52-16c-1.33.32-3.56,1-4.64,1.4a4.46,4.46,0,0,1-1.36.36,4.83,4.83,0,0,1-2.42-1.22A2.69,2.69,0,0,1,227,11.3c0-.25.11-.39.29-.39s.15,0,.25.21a2,2,0,0,0,2.09,1.05c1.4,0,1.58,0,6.8-.76a40.09,40.09,0,0,0,.58-5,2.58,2.58,0,0,0-1.26-2.34.68.68,0,0,1-.11-.25c0-.25.29-.39.86-.39A4.4,4.4,0,0,1,239,4.54c1.29,1,1.36,1,1.36,1.4,0,.14,0,.14-.18.43a14.53,14.53,0,0,0-.54,1.87l-.5,1.95c0,.07-.11.46-.22.82ZM250.87,7a1.23,1.23,0,0,1-1.12,1.15c-.54,0-.79-.17-1.08-.75a6.63,6.63,0,0,0-3.45-2.84c-.11,0-.22-.11-.22-.18s.43-.26.94-.26C248.53,4.1,250.87,5.47,250.87,7Zm3.81-2a1.32,1.32,0,0,1-1.22,1.26c-.51,0-.76-.18-1.05-.75a6.57,6.57,0,0,0-3.49-2.92c-.14,0-.25-.14-.25-.18s.47-.29,1.15-.29C252.2,2.12,254.68,3.6,254.68,5Z"/><path class="cls-2" d="M279,13.32c1.83.83,1.83.83,1.83,1.19a1.36,1.36,0,0,1-.14.5,7.82,7.82,0,0,0-.33,2.88l.07,3.67v4.1l0,2.49c0,.47,0,.9,0,1.19,0,.93-.33,1.47-.87,1.47-1.08,0-2.34-.93-2.34-1.76a3.1,3.1,0,0,1,.11-.69,112.8,112.8,0,0,0,.87-12.45,3.6,3.6,0,0,0-.44-2.12,45.87,45.87,0,0,1-9.35,7.41,16.22,16.22,0,0,1-4,1.69c-.15,0-.36-.14-.36-.28s.07-.19.36-.29c5.68-2.6,16.8-14,16.8-17.14,0-.36-.69-1-1.19-1.11-.32-.07-.39-.15-.39-.29s.75-.5,1.47-.5c1.33,0,4.07,1.94,4.07,2.91,0,.25-.11.36-.44.54a2.6,2.6,0,0,0-1.29,1.08,61.29,61.29,0,0,1-5,5.29Z"/><path class="cls-2" d="M307.15,14.58c0,6.44.11,9.86.29,12.27.07.76.11,1.3.11,1.62,0,1.51-.54,2.63-1.3,2.63s-1.9-1.62-1.9-2.52a4.67,4.67,0,0,1,.11-.94c.28-2,.57-10,.57-17.17,0-3.38-.11-4.57-.57-5.32a1.92,1.92,0,0,0-1.73-.9c-.25,0-.36-.11-.36-.33s.11-.25.32-.32a9.19,9.19,0,0,1,2.2-.61c.54,0,1,.25,2.62,1.26.47.32.69.57.69.83a2.09,2.09,0,0,1-.18.68c-.58,1-.79,2.66-.87,6.69a15.14,15.14,0,0,1,7.56,2.34c1.94,1.34,2.84,2.49,2.84,3.64A1.47,1.47,0,0,1,316,20c-.79,0-1.22-.32-2.09-1.72a12.63,12.63,0,0,0-6.8-5.26Zm11.59-5.91a1.23,1.23,0,0,1-1.15,1.23c-.54,0-.79-.18-1.08-.76A6.39,6.39,0,0,0,313,6.23c-.14-.08-.22-.11-.22-.18s.43-.26,1.05-.26C316.37,5.79,318.74,7.2,318.74,8.67Zm4-2.08a1.23,1.23,0,0,1-1.15,1.22,1,1,0,0,1-1.05-.68,6.74,6.74,0,0,0-3.67-3.06c-.11,0-.18-.11-.18-.18s.43-.26,1-.26C320.25,3.63,322.7,5.08,322.7,6.59Z"/><path class="cls-2" d="M347.64,9c1.55-.15,2.41-.22,2.59-.26a7.91,7.91,0,0,0,2.84-.72c1.08-.47,1.08-.47,1.33-.47s.51.11.9.51c.15.11.47.39,1,.79.76.61,1.12,1,1.12,1.23s0,.25-1.08,1c-4,8.74-7,12.63-12.38,16.12a24,24,0,0,1-6.62,3.06,14.34,14.34,0,0,1-1.62.36.43.43,0,0,1-.43-.36c0-.11.07-.14.25-.21a23.67,23.67,0,0,0,6-3,28.56,28.56,0,0,0,11.26-15.26c.14-.5.21-.86.25-.93a3.19,3.19,0,0,0,.11-.65c0-.33-.4-.54-1.05-.54-1.36,0-7.37.61-9.71,1s-3,.65-3.2,1.18l.25,1.52.32,2.08.33,2a8.7,8.7,0,0,1,.21,1.59c0,.64-.36.9-1.18.9-1.37,0-1.66-.15-1.66-.9a5.89,5.89,0,0,1,0-.76v-.65a31.62,31.62,0,0,0-.94-6.84A2.37,2.37,0,0,0,334.65,9a.3.3,0,0,1-.29-.29c0-.18.47-.32,1.15-.32A5.85,5.85,0,0,1,338.68,10c1.19-.18,3.74-.47,6-.65,0-5.25,0-5.32-2.12-5.58-.21,0-.32-.07-.32-.21,0-.36,1.51-1,2.34-1a6.21,6.21,0,0,1,2.55.94c.61.36.79.58.79.86a.79.79,0,0,1-.21.54,12.1,12.1,0,0,0-1.05,4.32Z"/><path class="cls-2" d="M385.46,19.15c0-.29,0-1.08-.07-2.09a23.86,23.86,0,0,1-9.57,9.15,21.91,21.91,0,0,1-5.43,2.08.46.46,0,0,1-.47-.43c0-.14.11-.25.36-.32,5.61-2.13,11.26-7.17,13.56-12.06a42.53,42.53,0,0,0-5.72,1.37,3.76,3.76,0,0,1-1.54.36,3.07,3.07,0,0,1-2.74-2.63c0-.18.07-.25.18-.25s.22,0,.54.32a3.64,3.64,0,0,0,2.12.43,80.5,80.5,0,0,0,8.49-.75,40.39,40.39,0,0,0-.57-4.68,1.08,1.08,0,0,0-1.08-.9,2.14,2.14,0,0,0-.4,0,.39.39,0,0,1-.21,0,.24.24,0,0,1-.22-.25c0-.36,1.84-1.37,2.48-1.37.87,0,2.2.76,2.2,1.22a1.07,1.07,0,0,1-.07.25c-.26.51-.33,1.52-.33,4,0,.72,0,1,0,1.48a13.85,13.85,0,0,0,4.24-1.26,1.1,1.1,0,0,1,.47-.15A9.08,9.08,0,0,1,394,13.82a.85.85,0,0,1,.47.72.73.73,0,0,1-.76.79,7.09,7.09,0,0,1-1-.1,22.08,22.08,0,0,0-5.68.07c.14,2.3.14,2.52.21,4,.08,1.26.11,2.12.15,2.45.07.82.14,1.69.21,2.55l.15,2.41c.07.83.11,1.41.11,1.55a3,3,0,0,1-.51,1.62,5.52,5.52,0,0,1-2.19,1.4c-.22,0-.43-.28-.51-.75-.07-1-1.4-2.7-2.91-3.75a.26.26,0,0,1-.14-.25.3.3,0,0,1,.25-.25c.18,0,.32.07,1.22.68a5.71,5.71,0,0,0,1.91.94c.36,0,.39-.14.43-1.8l0-1.84,0-2.73Z"/><path class="cls-2" d="M410.87,18.9a7.67,7.67,0,0,1-1.65.25,4.4,4.4,0,0,1-3.17-1.94,10.21,10.21,0,0,1-.25-2c0-.25.11-.43.29-.43s.18.07.28.25c.47,1,1.34,1.4,3.42,1.4a168.56,168.56,0,0,0,20.8-1.47,8.36,8.36,0,0,1,1-.07,2.43,2.43,0,0,1,1.91.79c.68.65.93,1,.93,1.33,0,.54-.72.86-1.87.86-.29,0-.68,0-1.33,0s-3.7-.11-5.22-.11A97.65,97.65,0,0,0,410.87,18.9Z"/><path class="cls-2" d="M445.89,29.44a37.58,37.58,0,0,0,11-7.73,30.26,30.26,0,0,0,6.27-8.46A13,13,0,0,0,464.53,10a.84.84,0,0,0-.87-.79c-.14,0-.39,0-.68.07-.11,0-.86.18-1.62.29s-1.11.18-1.4.22a3.21,3.21,0,0,1-.72.1,2.84,2.84,0,0,1-1.41-.5,35.85,35.85,0,0,1-5.93,7.24c-1.73,1.58-4.1,3.2-4.68,3.2-.22,0-.4-.11-.4-.25s.08-.33,1-1a30,30,0,0,0,5.9-6.74c1.51-2.3,2.44-4.35,2.44-5.54a2.31,2.31,0,0,0-1.33-2.23c-.14,0-.25-.14-.25-.22s.4-.32,1-.32a4.33,4.33,0,0,1,2.52.9c1.3.86,1.58,1.15,1.58,1.65,0,.22,0,.29-.25.55a6.73,6.73,0,0,0-.61.89c-.25.58-.36.76-.5,1.05a2.35,2.35,0,0,0,.86.14A22.49,22.49,0,0,0,463.45,8a6.65,6.65,0,0,0,1.36-.65c.62-.39.83-.46,1.05-.46.39,0,.86.28,2.08,1.33,1.08.9,1.23,1,1.23,1.36s-.15.44-.54.58a12.17,12.17,0,0,0-1.15.5c-5.11,10.23-11.19,15.91-20.87,19.48a2.59,2.59,0,0,0-.51.18,2.42,2.42,0,0,1-.32.07c-.29,0-.65-.29-.65-.54s.08-.18.51-.29Z"/></g></g></g></svg>