<svg xmlns="http://www.w3.org/2000/svg" viewBox="0 0 438.59 33.84"><defs><style>.cls-1{isolation:isolate;}.cls-2{fill:#333;}</style></defs><title>Asset 6</title><g id="Layer_2" data-name="Layer 2"><g id="Layer_1-2" data-name="Layer 1"><g class="cls-1"><g class="cls-1"><path class="cls-2" d="M11,23.36a9.72,9.72,0,0,1,3.09.79,3.63,3.63,0,0,1,2.23,3,1.5,1.5,0,0,1-1.58,1.51c-.76,0-.94-.18-1.73-1.94a6.51,6.51,0,0,0-2-2.59V32a.94.94,0,0,1-.69,1,3.41,3.41,0,0,1-1.47.36c-.61,0-.87-.22-.87-.76V25.74a28.84,28.84,0,0,1-5.35,4.5,9.69,9.69,0,0,1-2.38,1.4A.27.27,0,0,1,0,31.39c0-.18.18-.4.65-.83A26.16,26.16,0,0,0,7.73,21H5.68c-.39,0-1,0-1.76,0l-2.27.07L.9,19.87c1.33,0,2.55.07,3,.11.9,0,1.52,0,1.8,0H8V14.9l3.6.36a.78.78,0,0,1,.72.76c0,.29-.14.47-.54.68l-.75.36v3h1.07l1.8-2.26,2.56,2.12a.82.82,0,0,1,.36.61.51.51,0,0,1-.54.51H11ZM32.15,5.65a.67.67,0,0,1,.29.51.43.43,0,0,1-.47.46H19.24c3.17,3.21,9.1,5.76,14.82,6.37a8.36,8.36,0,0,0-3.74,3.06A23.65,23.65,0,0,1,18.81,7.34v8.21c0,.43-.14.65-.65.79a6.9,6.9,0,0,1-1.8.36c-.46,0-.71-.25-.71-.75V9.32a43,43,0,0,1-8.6,5.51A28,28,0,0,1,1.47,17.1a.27.27,0,0,1-.28-.25c0-.18.14-.33.46-.47A37.77,37.77,0,0,0,13.81,6.62h-3.7c-2,0-3.17,0-6.23.18L3.06,5.47l4,.11c1.26,0,2.34.07,3,.07h5.54V.4l3.7.28a.75.75,0,0,1,.72.65,1,1,0,0,1-.47.76l-.79.47V5.65h7.8l2.31-2.73Zm1.73,14.4a.83.83,0,0,1,.29.5.43.43,0,0,1-.47.44h-7c1.4,2.77,4,5.11,8,7.12a7,7,0,0,0-3,2.92,20.54,20.54,0,0,1-5.26-7.92v9.25c0,.54-.18.76-.72.94a5.88,5.88,0,0,1-1.76.32c-.46,0-.64-.22-.64-.76V25.67a31.53,31.53,0,0,1-6.12,4.78,10.8,10.8,0,0,1-3,1.51.24.24,0,0,1-.26-.25c0-.21,0-.25,1.16-1.15a28,28,0,0,0,8-9.57h-.83c-1,0-1.94,0-4.24.1l-.54-1.22c1.47.07,2.84.11,4.78.14h1V14.87l3.52.46a.63.63,0,0,1,.61.62.74.74,0,0,1-.39.64l-.69.44v3h2.52l2.05-2.44Z"/><path class="cls-2" d="M59.1,3.89c1.51.5,1.51.5,1.51,1,0,1-.86,1.48-4.43,2.52-1.65,3.27-2.23,4.35-3.7,6.84a5,5,0,0,1,1.91-.43,4,4,0,0,1,2.59.93c.61.54.89,1.26,1.11,2.81,2.27-5.51,5.32-8.21,9.32-8.21,2.87,0,5,1.66,5,4,0,1.37-1,2.27-3.42,3.13a67.41,67.41,0,0,0-10,4.07c.08,2.09.11,2.66.11,3.31,0,1.59-.68,2.31-2.23,2.31-.47,0-.86-.29-.86-.62a1.89,1.89,0,0,1,0-.39,6.47,6.47,0,0,0,.08-1.15l0-1.44v-.69a12.9,12.9,0,0,0-2.48,2,4.26,4.26,0,0,0-1.22,2.7c0,1.59,1.58,2.31,5,2.31A21.67,21.67,0,0,0,63,28a4.14,4.14,0,0,1,1.08-.25,2.09,2.09,0,0,1,1.54.65A3.1,3.1,0,0,1,66.4,30c0,.79-.76,1.4-2.23,1.76a28.68,28.68,0,0,1-5.47.51,12.59,12.59,0,0,1-6.08-1.19,4.65,4.65,0,0,1-2.55-3.89c0-1.51.86-2.95,2.66-4.39A30.75,30.75,0,0,1,56,20.66v-.72l0-1.55c0-2.37-.64-3.56-1.83-3.56a4.15,4.15,0,0,0-2.63,1.58c-.39.51-2.26,3.32-3,4.58-.5.82-.93,1.22-1.43,1.22-.8,0-1.84-1.66-1.84-3,0-.54.07-.65,1.12-1.44,4.1-3.35,5.71-5.58,7.05-9.68a17,17,0,0,1-3.21.5,3.18,3.18,0,0,1-3.09-2.77.16.16,0,0,1,.15-.18.51.51,0,0,1,.28.18c.43.47,1.05.65,2.34.65a9.88,9.88,0,0,0,3.81-.79,4.27,4.27,0,0,0,.15-1.12c0-1.51-.58-2.59-1.41-2.63-.18,0-.25-.07-.25-.18,0-.28,1.15-.64,2.09-.64A2.87,2.87,0,0,1,56,1.69,2.46,2.46,0,0,1,56.94,4a4.25,4.25,0,0,1-.11.9,3.12,3.12,0,0,0,1.69-1.15Zm-.4,15.26c9.42-5.44,9.42-5.44,9.42-6.44a2,2,0,0,0-1.83-1.91c-2.16,0-4.32,1.66-6.11,4.68A8.76,8.76,0,0,0,58.74,19V19Z"/><path class="cls-2" d="M89,7.05c0,8.64-.79,12.6-3,16-1,1.62-2.69,3.49-3.05,3.49-.15,0-.26-.11-.26-.18s.08-.25.33-.65c2-3.06,2.88-7.49,2.88-14.94,0-1.9,0-3.2-.15-6.15l3.53,1.47h11.61c-.18-1.69-.32-3.78-.36-6.08L104,.32a.67.67,0,0,1,.61.62.88.88,0,0,1-.47.75l-.68.43v.65c0,.94.07,2,.18,3.31h6.58l2.23-2.59,2.77,2.3a.79.79,0,0,1,.32.58c0,.4-.36.68-.86.68H103.74a29.25,29.25,0,0,0,2.19,8.07,28.74,28.74,0,0,0,2.74-6.34l3.09,1.77a.85.85,0,0,1,.43.68c0,.25-.29.47-.79.61l-.61.18a27.26,27.26,0,0,1-3.6,5.47c1.12,1.73,3.63,3.6,4.86,3.6.57,0,1.4-1.26,2.73-4.21.32-.75.32-.75.47-.75a.28.28,0,0,1,.28.32,20.58,20.58,0,0,1-.46,2.56,13.82,13.82,0,0,0-.26,2.08,1.19,1.19,0,0,0,.36.76c.72.83.94,1.19.94,1.58,0,.79-.83,1.37-1.94,1.37a12.44,12.44,0,0,1-6-2.27,10.94,10.94,0,0,1-3-2.8,27.8,27.8,0,0,1-5.54,3.74c1.73.93,2.55,2.09,2.55,3.53a1.57,1.57,0,0,1-1.76,1.69,1.31,1.31,0,0,1-.9-.36c-.29-.33-.29-.33-1-2.45A6.42,6.42,0,0,0,96.4,23a.58.58,0,0,1-.14-.25c0-.1.11-.14.21-.14a9.72,9.72,0,0,1,2.77.72,23.68,23.68,0,0,0,4.89-5.4c-1.58-3-2.41-5.87-3.09-10.84Zm-.15,20.34a6.91,6.91,0,0,1-.82,3.39c-.65,1.26-1.41,1.83-2.45,1.83a1.66,1.66,0,0,1-1.83-1.47,2.59,2.59,0,0,1,.47-1.34,10.44,10.44,0,0,1,1.58-1.36A5.52,5.52,0,0,0,88,24.15c0-.18.07-.25.22-.25C88.49,23.9,88.88,25.88,88.88,27.39ZM98.7,8.28l2,1.65c.36.29.46.47.46.72a.51.51,0,0,1-.53.47h-11v-1H97ZM93.09,21.42c0,.5-1,1-2.12,1-.47,0-.61-.15-.61-.55v-9.5l2.91,1.37h4.28l1.12-1.62,2.3,2.16a1.09,1.09,0,0,1,.43.79.72.72,0,0,1-.47.61l-.47.18v4.18c0,.57-1.15,1.12-2.44,1.12-.25,0-.4-.11-.4-.33V19.69H93.09Zm1.69,2.37a.71.71,0,0,1,.69.65.9.9,0,0,1-.62.79l-.43.18v4.11c0,.54.08.79.25.86a31,31,0,0,0,3.82.14c4.31,0,5.39-.18,6.07-1.08a28.46,28.46,0,0,0,2.09-3.63c.11-.18.14-.22.22-.22s.14.08.14.22,0,.65-.29,3.17v.32c0,.18,0,.25.22.36,1.19.68,1.47,1,1.47,1.55,0,.79-.82,1.26-2.62,1.55A76.3,76.3,0,0,1,96.4,33c-4.6,0-4.93-.14-4.93-2.23V23.54Zm2.84-5.07v-4H93.09v4Zm9.71-17.46c1.84.43,3,1.4,3,2.48A1.45,1.45,0,0,1,109,5.33a1.56,1.56,0,0,1-.86-.29c-.32-.22-.32-.22-1.12-1.8a4.42,4.42,0,0,0-1.65-1.76.43.43,0,0,1-.18-.22c0-.14.22-.22.58-.22A6.82,6.82,0,0,1,107.33,1.26ZM111.94,26c2.3,1.15,3.52,2.59,3.52,4.21a1.72,1.72,0,0,1-1.65,1.9,1.8,1.8,0,0,1-1.19-.46c-.29-.29-.29-.29-1.22-2.31a12.48,12.48,0,0,0-3.09-4c-.22-.18-.29-.29-.29-.36s.14-.21.29-.21A18,18,0,0,1,111.94,26Z"/><path class="cls-2" d="M134.85,6.48a8.54,8.54,0,0,1-.71,2.84A84,84,0,0,0,132.48,22c0,4.32,2.05,6.7,5.83,6.7a14.41,14.41,0,0,0,8.77-3.17,17.09,17.09,0,0,0,3.31-3.27c.07-.15.15-.18.22-.18s.18.1.18.25a13.58,13.58,0,0,1-2.09,3.74c-2.91,3.85-6.51,5.9-10.39,5.9-5.61,0-8.56-3.52-8.56-10.18,0-1.3,0-1.55.5-10.62.15-2.34.22-4,.22-4.46,0-2.56-.65-3.89-2-4a.16.16,0,0,1-.18-.14c0-.29,1-.61,1.73-.61A5.09,5.09,0,0,1,134.85,6.48Zm9.32,4.86a1.37,1.37,0,0,1-1.4,1.44c-.61,0-.79-.15-1.15-.9a6.21,6.21,0,0,0-3.35-3.13c-.18-.08-.25-.15-.25-.25,0-.26.4-.33,1.58-.33C141.87,8.17,144.17,9.75,144.17,11.34ZM148.09,8a1.39,1.39,0,0,1-1.51,1.4,1,1,0,0,1-1-.61,6.49,6.49,0,0,0-3.63-3.1c-.18-.07-.25-.14-.25-.25s.57-.36,1.69-.36C145.82,5,148.09,6.44,148.09,8Z"/><path class="cls-2" d="M182.66,25.92a7.88,7.88,0,0,0,.83-3.64A5.56,5.56,0,0,0,181.76,18a5.43,5.43,0,0,0-3.49-1.37,9.2,9.2,0,0,0-6.94,3.35,27.35,27.35,0,0,0-3.45,5.4c-.51,1.08-.87,1.44-1.33,1.44-1,0-2.3-1.62-2.3-2.81,0-.61.25-1,1-1.72,1.55-1.41,4.21-4.11,5.76-5.84,3.59-4,6.65-8.6,6.65-10a.41.41,0,0,0-.4-.43c-.72,0-3.41,1.58-5.46,3.2-.9.72-1.19.87-1.58.87a3,3,0,0,1-2.13-1.34,2.92,2.92,0,0,1-.57-1.9c0-.76.11-1.15.32-1.15s.11,0,.22.32a1.42,1.42,0,0,0,1.44.76c1.83,0,5.21-1.23,7.51-2.7a2.59,2.59,0,0,1,1.41-.51c1.65,0,4.49,1.91,4.49,3,0,.5-.32.86-1.29,1.48-2.41,1.54-7.92,7.48-7.92,8.53a.09.09,0,0,0,.08.07.11.11,0,0,0,.1,0,11.58,11.58,0,0,1,5.43-1.26c4.61,0,8,3,8,7a8.66,8.66,0,0,1-2.94,6.29,12.21,12.21,0,0,1-8,2.67c-3.57,0-5.9-1.37-5.9-3.49,0-1.95,1.51-3.1,4-3.1a5.76,5.76,0,0,1,5.39,3.17c.07.11.14.29.29.54A6.44,6.44,0,0,0,182.66,25.92Zm-8.6.14c-1,0-1.72.54-1.72,1.3,0,1,1.76,1.87,3.77,1.87.08,0,.36,0,.83,0C176.62,27.1,175.65,26.06,174.06,26.06Z"/><path class="cls-2" d="M201.51,10.22c1.8.65,2.77,1.84,2.77,3.39,0,1.29-.68,2.12-1.73,2.12-.82,0-1.22-.47-1.51-1.87-.43-2-1.08-3.21-2.15-4-.26-.11-.29-.15-.29-.22a.16.16,0,0,1,.18-.14A10.61,10.61,0,0,1,201.51,10.22Zm8.63-4.1a.48.48,0,0,1,.4-.25c.21,0,.47.21.43.39l0,.18-6,16.38a8.73,8.73,0,0,0-.61,2.63,13.31,13.31,0,0,0,.58,2.95,9.11,9.11,0,0,1,.39,2.2,2.13,2.13,0,0,1-2,2.41,1.89,1.89,0,0,1-2-2,12.18,12.18,0,0,1,.14-1.26,18.43,18.43,0,0,0,.39-3.14,2.65,2.65,0,0,0-1.94-2.73c-.82-.25-.9-.29-.9-.54s.15-.36.65-.36a12.25,12.25,0,0,1,2.3.25Zm-4.82-3.85a4,4,0,0,1,2.52,3.38,2,2,0,0,1-1.76,2.09c-.72,0-1-.29-1.33-1.48a9.33,9.33,0,0,0-3-4.24c-.15-.15-.22-.22-.22-.29s.15-.22.43-.22A11.17,11.17,0,0,1,205.32,2.27Zm9.39,13.64c-.32,7.23-1,9.93-3.31,12.89-1.33,1.65-4.53,4.46-5.14,4.46a.29.29,0,0,1-.32-.29c0-.14.07-.29.32-.54,2.59-2.7,4-5,4.57-7.81.54-2.34.93-8.71.93-14.94,0-2,0-3.16-.14-7.2l3.7,2.09h8.78l1.29-2,3.17,3.31a1.18,1.18,0,0,1,.32.68c0,.29-.21.54-.57.76l-.62.32V17c0,.5-.18.76-.79,1a5,5,0,0,1-1.69.36c-.54,0-.75-.18-.75-.61V15.91h-5.9c2.16,7.42,6.11,11.41,13.7,13.86a8.42,8.42,0,0,0-3.88,3.17c-6.3-3.6-9.53-8.79-10.65-17Zm9.75-1V5.54h-9.68v9.4Z"/><path class="cls-2" d="M246.33,32c0,.4-.18.65-.68.83a6.69,6.69,0,0,1-1.94.39c-.51,0-.76-.25-.76-.82V8.24l4,.26a.77.77,0,0,1,.82.75c0,.29-.18.54-.57.83l-.83.54V28.54h8.49V1.69l4.06.25a.7.7,0,0,1,.76.65.86.86,0,0,1-.36.61l-.94.8V28.54h8.78V8.06l3.81.33a.73.73,0,0,1,.76.72.94.94,0,0,1-.36.68l-.83.65V30.92c0,.65-.18.9-.86,1.15a5.21,5.21,0,0,1-1.77.33c-.61,0-.75-.15-.75-.94V29.52H246.33Z"/><path class="cls-2" d="M299.78,10.4a23.19,23.19,0,0,1-3.59,11.7C294.06,25.41,290.94,28,289,28a4.32,4.32,0,0,1-3-2,9.33,9.33,0,0,1-1.77-5.8c0-7.92,7.23-14.72,15.65-14.72a13.86,13.86,0,0,1,10.1,4,10.89,10.89,0,0,1,2.85,7.6,13.25,13.25,0,0,1-6.66,11.51A21.93,21.93,0,0,1,299.46,31a14.61,14.61,0,0,1-2.3.43c-.22,0-.36-.07-.36-.21s.11-.22.68-.4a19.34,19.34,0,0,0,6.44-3.35c3.13-2.55,4.6-5.83,4.6-10.25,0-4.83-1.62-8.1-4.75-9.69a8.59,8.59,0,0,0-3.7-.86,7.18,7.18,0,0,0-.76,0A13.7,13.7,0,0,1,299.78,10.4Zm-8.13-.32a14.13,14.13,0,0,0-4.24,10c0,2.13,1,4,2.09,4s3.16-1.87,4.67-4.25a21.19,21.19,0,0,0,3.67-10.76,8.39,8.39,0,0,0-.22-2c0-.07,0-.14-.07-.25A13.64,13.64,0,0,0,291.65,10.08Z"/><path class="cls-2" d="M331.69,32.47a.84.84,0,0,1-.5.79,4.64,4.64,0,0,1-1.94.58.76.76,0,0,1-.83-.83V16.45c-3,3.71-4.39,5.18-4.93,5.18a.23.23,0,0,1-.22-.21c0-.18.08-.33.54-1,3.67-5.48,6-12.1,7.05-20l4.28,1.62a.69.69,0,0,1,.4.65.77.77,0,0,1-.58.72l-1,.36L332.88,7c-.18.47-.54,1.33-1.48,3.64l.83.25a.63.63,0,0,1,.4.54.61.61,0,0,1-.4.54l-.54.32v.9h10.47V1.26l4.17.29a.66.66,0,0,1,.68.68.87.87,0,0,1-.47.72l-.86.51v9.71H351l2.44-2.88,3.28,2.81a.74.74,0,0,1,.28.54.49.49,0,0,1-.5.51H345.68V29.41h4.64l2.52-2.85,3.31,2.7a.75.75,0,0,1,.28.58.56.56,0,0,1-.57.54H339.64c-1.22,0-2.34,0-5.54.14l-.68-1.29c3.23.14,4.53.18,6.22.18h2.52V14.15H331.69Z"/><path class="cls-2" d="M373.67,16.7c1-.36,1.08-.43,2-.79.69-.29,1.41-.58,2.09-.83s.57-.25.68-.25a.24.24,0,0,1,.25.22c0,.28-1.58,1.4-5,3.67v12c0,1-.43,1.59-1.76,2.34a4.39,4.39,0,0,1-1.8.65c-.61,0-.86-.36-.9-1.19s-.07-.72-2.27-1.76c-1.51-.72-1.83-.94-1.83-1.12s.14-.21.43-.21a5.58,5.58,0,0,1,.65,0c.68.08,1.8.11,2.55.11,1.4,0,1.8-.21,1.8-1.11V20.62c-.9.58-1,.69-2.05,1.26l-.14.73c-.11.64-.33.89-.76.89s-.5-.17-.75-.57L365,19.69c2.76-.86,4.56-1.44,5.57-1.84V10.62c-2.34,0-2.7,0-4.82.11L365,9.5c2.59.11,3,.11,5.5.15V.47l3.52.36a.83.83,0,0,1,.87.72c0,.36-.25.65-.72,1l-.54.4V9.65h.43L376,7.24l2.3,2.08a1.26,1.26,0,0,1,.5.83c0,.29-.25.47-.61.47h-4.53Zm10.29,10c.89-.11,1.51-.21,1.79-.25.58-.11,1.15-.21,1.73-.29a8.1,8.1,0,0,1,1-.14c.22,0,.43.14.43.32s-.1.33-2.41,1.26c-.93.36-2.69,1-4.85,1.77-.22.1-.22.1-2.37.79-.26.07-.76.25-1.44.47l-.51,1a1,1,0,0,1-.82.61c-.29,0-.47-.14-.62-.47l-1.83-3.63c3.92-.47,4-.47,6-.76V21.45c-2.16,0-2.44,0-4.46.11l-.54-1.22c2.38.11,2.7.11,5,.14V14.83l3.24.11c.61,0,.93.25.93.65s-.21.61-.64.86l-.54.36v3.67h1.15L386,18.21l2.23,2c.36.36.54.61.54.83s-.25.39-.58.39h-5v5.33Zm-9.39-13.53c2.52.11,3.52.11,4.82.11h.75V7.63c-1.51,0-1.76,0-3.13.11l-.57-1.22c1.76.1,2.05.1,3.7.14V.86l3.46.29c.5.07.89.36.89.69s-.21.61-.68.9l-.68.43V6.66h1L386,4.28l2.41,2.2a1,1,0,0,1,.43.72.49.49,0,0,1-.54.43h-5.14v5.62h1.18l2.05-2.49L388.85,13c.43.4.5.51.5.76s-.18.5-.58.5h-9.38c-1.26,0-2.16,0-4.25.11Zm18.3.14c3.82,1.48,5.9,3.57,5.9,5.94,0,1.4-.82,2.41-1.9,2.41-.79,0-1.26-.54-1.62-1.8-.76-2.8-1.37-4.06-2.38-5.25V32.32c0,.4-.21.58-.86.76a9,9,0,0,1-1.76.32c-.36,0-.54-.18-.54-.5V.65L393,.9c.83.07,1.23.32,1.23.79s-.22.61-.72.94l-.62.39Z"/><path class="cls-2" d="M413.74,4.18c1.8,1.15,2.81,2.62,2.81,4.17a8.29,8.29,0,0,1-.94,3.24,24.09,24.09,0,0,0-1.87,8.24c0,2,.5,3.67,1.08,3.67.25,0,.43-.21.61-.71.4-1.16,1.08-2.88,1.55-4,.36-.86.57-1.47.68-1.72.22-.62.36-.8.54-.8s.25.11.25.29a4.69,4.69,0,0,1-.21,1.08,35,35,0,0,0-1.33,7.09,5.28,5.28,0,0,0,.57,2.74,1.12,1.12,0,0,1,.11.47,1.4,1.4,0,0,1-1.44,1.33c-2.44,0-4.78-4.65-4.78-9.5,0-2.6.07-3.06,1.18-9.18a21.59,21.59,0,0,0,.33-3.21c0-1.76-.43-2.91-1.33-3.6-.11-.07-.18-.14-.18-.25a.24.24,0,0,1,.25-.21A5.71,5.71,0,0,1,413.74,4.18Zm21.18,4.53A1.37,1.37,0,0,1,436.11,8a3.27,3.27,0,0,1,1.44.54c.75.43,1,.79,1,1.3,0,1-1.58,2-5.86,3.52.11,3,.14,3.86.14,5.12C432.87,25.2,431,28.58,426,31a17.9,17.9,0,0,1-4.49,1.51.34.34,0,0,1-.32-.29c0-.14,0-.14.72-.47a12.78,12.78,0,0,0,6.25-5.86c1.26-2.78,1.51-4.72,1.51-12a14.52,14.52,0,0,1-3.16.36,5.31,5.31,0,0,1-5-3.5.23.23,0,0,1,.21-.21c.11,0,.11,0,.43.36a5.57,5.57,0,0,0,3.49,1,11.51,11.51,0,0,0,3.78-.72c-.07-6.15-.61-7.77-2.63-8-.14,0-.25-.07-.25-.18,0-.33,1.51-.9,2.45-.9,1.58,0,3.81,1.62,3.81,2.77,0,.11,0,.18-.18.47a4.57,4.57,0,0,0-.25,1.65c0,1.37,0,2.41-.08,3.24A6.26,6.26,0,0,0,434.92,8.71Z"/></g></g></g></g></svg>