<svg xmlns="http://www.w3.org/2000/svg" viewBox="0 0 512.21 32.58"><defs><style>.cls-1{isolation:isolate;}.cls-2{fill:#333;}</style></defs><title>Asset 8</title><g id="Layer_2" data-name="Layer 2"><g id="Layer_1-2" data-name="Layer 1"><g class="cls-1"><path class="cls-2" d="M.14,7.74C.07,7.74,0,7.63,0,7.56c0-.25.4-.36,1.19-.36A5.14,5.14,0,0,1,4.25,8.32c.43,0,.64,0,.93,0a92.87,92.87,0,0,0,9.46-1.11A11,11,0,0,0,18,6.16a1.64,1.64,0,0,1,.72-.22c.32,0,.72.29,1.9,1.33.9.86,1.12,1.12,1.12,1.33s-.4.79-1.23,1.41c-1.69,5.54-2.91,8.28-5,11A21.79,21.79,0,0,1,6.48,28a20.05,20.05,0,0,1-3,.9.57.57,0,0,1-.5-.43c0-.11.07-.14.28-.21A24.18,24.18,0,0,0,7,26.53a21.22,21.22,0,0,0,8-8.64c1.33-2.56,2.74-6.84,2.74-8.39,0-.83-.62-1.18-2.05-1.18-.8,0-4.07.39-7.2.86-2.88.43-3,.47-3.89.9.15,1.11.15,1.19.4,2.91a37.58,37.58,0,0,1,.54,4.47c0,.83-.32,1.33-.83,1.33-.75,0-1.94-1-1.94-1.62,0,0,0-.22.07-.43a6.67,6.67,0,0,0,.07-1,40,40,0,0,0-.79-6.12C1.76,8.46,1.12,7.74.36,7.74Z"/><path class="cls-2" d="M43.29,13.71c1.76.83,1.76.83,1.76,1.12a2.15,2.15,0,0,1-.14.54,7,7,0,0,0-.29,2.74l0,3.52,0,4,0,2.38c0,.47,0,.9,0,1.11,0,.9-.33,1.44-.83,1.44-1,0-2.27-.9-2.27-1.69a3.41,3.41,0,0,1,.11-.68,107.22,107.22,0,0,0,.83-11.95,3.78,3.78,0,0,0-.4-2,43.62,43.62,0,0,1-9,7.12,15.87,15.87,0,0,1-3.82,1.62c-.18,0-.36-.14-.36-.28s.07-.15.36-.29C34.84,19.83,45.52,9,45.52,5.9c0-.36-.65-1-1.15-1.08-.29-.07-.36-.14-.36-.28s.72-.47,1.4-.47c1.3,0,3.89,1.87,3.89,2.81,0,.25-.11.36-.43.5a2.56,2.56,0,0,0-1.23,1,53.16,53.16,0,0,1-4.78,5.08Z"/><path class="cls-2" d="M68.77,9.68c1,.54,1.76,1.23,1.76,1.55,0,.11,0,.15-.32.4a2.76,2.76,0,0,0-.43,1.26,31.65,31.65,0,0,1-3.31,8.42c-1.87,3.1-6,7.09-7.31,7.09a.37.37,0,0,1-.39-.36c0-.14.11-.29.36-.43A18.79,18.79,0,0,0,64,21.89c1.8-3.14,3.27-7.78,3.27-10.44a1.91,1.91,0,0,0-1.15-1.87c-.14-.08-.21-.15-.21-.26S66,9,66.36,9A5.42,5.42,0,0,1,68.77,9.68Zm4.82,1.15c0-1.22-.07-1.69-.29-2a1.31,1.31,0,0,0-.72-.5c-.21,0-.25-.08-.25-.19s.69-.5,1.12-.5a3.67,3.67,0,0,1,2.19,1c.94.65,1,.72,1,.94s0,.11-.29.47a6.92,6.92,0,0,0-.61,2.77c-.11,1.26-.36,6.66-.36,7.77,0,.47.18.69.54.69,1.3,0,4-1.55,6.48-3.75a37.74,37.74,0,0,0,6.83-7.95c.22-.4.33-.5.44-.5a.5.5,0,0,1,.39.43,21.33,21.33,0,0,1-2.59,4.64,30.1,30.1,0,0,1-5.36,6,25.72,25.72,0,0,1-4.75,3.31,4.48,4.48,0,0,0-2.09,1.51.25.25,0,0,1-.21.11c-.54,0-2.16-1.87-2.16-2.52a.82.82,0,0,1,.14-.43,3.85,3.85,0,0,0,.43-2.34l0-4.22,0-3Z"/><path class="cls-2" d="M102.56,13.89l0,1c0,6.08.07,9.25.25,11.77.07.72.11,1.22.11,1.51,0,1.48-.54,2.56-1.22,2.56s-1.84-1.59-1.84-2.42c0-.25,0-.54.07-.9.33-1.9.58-9.68.58-16.48,0-3.2-.15-4.46-.54-5.11A1.77,1.77,0,0,0,98.32,5C98.1,5,98,4.86,98,4.68s.11-.25.29-.32a9.53,9.53,0,0,1,2.12-.58c.51,0,1,.25,2.49,1.22.5.33.68.54.68.8a1.69,1.69,0,0,1-.18.64c-.54.94-.76,2.56-.83,6.45a14.75,14.75,0,0,1,7.27,2.23c1.87,1.26,2.74,2.37,2.74,3.49a1.42,1.42,0,0,1-1.44,1.51c-.76,0-1.19-.32-2-1.65a12.54,12.54,0,0,0-6.55-5Zm11.12-4.64a1.18,1.18,0,0,1-1.11,1.15c-.51,0-.72-.18-1-.72a6.29,6.29,0,0,0-3.38-2.77c-.11,0-.18-.11-.18-.14s.43-.25,1-.25C111.38,6.52,113.68,7.85,113.68,9.25Zm3.81-2a1.14,1.14,0,0,1-1.07,1.15,1,1,0,0,1-1-.64,6.41,6.41,0,0,0-3.49-2.92c-.11,0-.18-.11-.18-.14s.36-.26,1-.26C115.16,4.46,117.49,5.83,117.49,7.27Z"/><path class="cls-2" d="M128.3,13.82V12.71c0-.69,0-1.16,0-1.3a2.84,2.84,0,0,0-2.2-2.81c-.18-.07-.28-.14-.28-.21s1-.47,1.8-.47a5.36,5.36,0,0,1,2.84,1.33,3.38,3.38,0,0,0,.65.5c.39.29.54.44.54.58s0,.07-.22.47a7.18,7.18,0,0,0-.68,2.63c-.26,2.8-.4,4.89-.4,6.58,0,2.2.11,2.6.79,2.6,3.53,0,13.71-7.78,18.14-13.83.32-.46.36-.5.5-.5s.29.22.29.39a12.7,12.7,0,0,1-1.33,2.45A40.6,40.6,0,0,1,141,19.44a35.74,35.74,0,0,1-7.81,5.07,7.94,7.94,0,0,0-2.3,1.62c-.32.36-.5.47-.65.47a6.22,6.22,0,0,1-1.47-1c-.61-.54-1-1.05-1-1.33a1.27,1.27,0,0,1,.14-.54,4.09,4.09,0,0,0,.44-1.87Z"/><path class="cls-2" d="M162.45,19a6.71,6.71,0,0,1-1.59.25,4.14,4.14,0,0,1-3-1.87,9,9,0,0,1-.25-1.94c0-.25.11-.4.25-.4s.18.07.29.25c.5,1,1.3,1.37,3.31,1.37a161.91,161.91,0,0,0,19.93-1.44c.36,0,.69-.07,1-.07a2.34,2.34,0,0,1,1.79.76c.65.64.9,1,.9,1.29,0,.51-.68.83-1.8.83-.21,0-.64,0-1.25,0s-4-.1-5.11-.1A95.56,95.56,0,0,0,162.45,19Z"/><path class="cls-2" d="M210.78,11.63c2.88-.33,2.91-.33,4.17-.87a2.92,2.92,0,0,1,1.26-.36,9.66,9.66,0,0,1,2.77,1c.54.28.86.64.86.93a1,1,0,0,1-.93,1,5,5,0,0,1-.83-.11,45.47,45.47,0,0,0-4.93-.39,23,23,0,0,0-2.44.14c-.47,6.3-1.08,8.71-3,11.59a14.16,14.16,0,0,1-7.77,5.58c-.18.07-.36.11-.43.14a1.07,1.07,0,0,1-.29.08c-.14,0-.39-.22-.39-.36s.1-.26.32-.33a15.25,15.25,0,0,0,6.33-5.15,18.4,18.4,0,0,0,2.7-7,23,23,0,0,0,.36-4.35.54.54,0,0,0,0-.18c-2.51.14-3.77.25-5.75.46l0,1.05,0,1.83V18c0,.47,0,.87.07,1.19l0,.76a.81.81,0,0,1-.83.82c-.68,0-1.62-1.22-1.62-2.05a4.56,4.56,0,0,1,0-.68c.1-.76.21-3.6.18-4.07v-.11a31.79,31.79,0,0,0-4.25.94,5.24,5.24,0,0,1-1.65.32,3.05,3.05,0,0,1-2.42-1.33,1.89,1.89,0,0,1-.64-1.58v-.08c0-.1.07-.17.21-.17s.11,0,.22.14c.68.65,1.47.9,3.09.9.65,0,3.31-.18,5.44-.36-.15-4.18-.18-4.64-.29-5-.18-.54-.9-.86-1.8-.86a1.84,1.84,0,0,0-.4,0,.23.23,0,0,1-.14,0,.15.15,0,0,1-.14-.11c0-.14.07-.21.32-.36A6.84,6.84,0,0,1,198.8,6c.61-.47.93-.62,1.15-.62a9.72,9.72,0,0,1,2.12.76c.5.29.76.58.76.86l-.11.69v.75c0,.44,0,1.8,0,2.2,0,.21,0,.21,0,1.84,2.41-.26,2.77-.29,5.79-.58v-.83c0-5.65-.18-6.3-2.37-6.8-.15,0-.22-.11-.22-.18,0-.29,1.15-.65,2.12-.65,1.26,0,3.64,1.48,3.64,2.23,0,.15,0,.15-.4,1a2.65,2.65,0,0,0-.4,1.51l0,.76-.07,1.87Z"/><path class="cls-2" d="M232.44,19a6.59,6.59,0,0,1-1.58.25,4.12,4.12,0,0,1-3-1.87,9,9,0,0,1-.25-1.94c0-.25.1-.4.25-.4s.18.07.29.25c.5,1,1.29,1.37,3.31,1.37a161.91,161.91,0,0,0,19.93-1.44c.36,0,.68-.07,1-.07a2.35,2.35,0,0,1,1.8.76c.65.64.9,1,.9,1.29,0,.51-.68.83-1.8.83-.21,0-.65,0-1.26,0s-4-.1-5.11-.1A95.78,95.78,0,0,0,232.44,19Z"/><path class="cls-2" d="M277,13.14a8.37,8.37,0,0,1,6-3.1c2.48,0,4.35,1.44,4.35,3.31a2,2,0,0,1-.9,1.84c-.72.54-1,.65-4.13,1.91A62.24,62.24,0,0,0,275,20.45c.14,1.87.18,2.73.18,3.2,0,1.69-.36,2.16-1.73,2.16-.39,0-.61-.14-.61-.36a1,1,0,0,1,0-.29,27.5,27.5,0,0,0,.14-3.71c-3,1.84-4.17,3.17-4.17,4.72,0,1.73,1.65,2.41,5.68,2.41a19.41,19.41,0,0,0,5.07-.61,2.79,2.79,0,0,1,.91-.18c.71,0,1.65.79,1.65,1.4,0,1.15-2.27,1.73-7,1.73a11.52,11.52,0,0,1-5.65-1,4.1,4.1,0,0,1-2.37-3.5c0-1.51.93-2.8,3.05-4.24.58-.4.58-.4,2.77-1.69a12.66,12.66,0,0,0-.43-4.4,1.75,1.75,0,0,0-1.62-1.18c-1.36,0-3.7,2.16-5.43,5-.4.65-.75,1-1.15,1s-1.19-1.15-1.19-2c0-.47.15-.69.83-1.26,3.67-3.14,6-6.63,6.66-9.79a12.17,12.17,0,0,1-3,.57,2.07,2.07,0,0,1-1.76-1.22,4.87,4.87,0,0,1-.54-1.33.16.16,0,0,1,.11-.15c.07,0,.11.07.18.15a2.27,2.27,0,0,0,2.05.93,9.08,9.08,0,0,0,3.17-.57,6.18,6.18,0,0,0,.1-1,1.67,1.67,0,0,0-1.65-1.87c-.11,0-.14,0-.14-.14,0-.33,1.15-.87,1.79-.87a2.44,2.44,0,0,1,2.31,2.06,4.23,4.23,0,0,1-.29,1.29,4.68,4.68,0,0,0,2.23-1.15c1.15.58,1.51.83,1.51,1.08,0,.43-.65.72-4,1.69a39.27,39.27,0,0,1-4,7.38A5.68,5.68,0,0,1,271,14a3.21,3.21,0,0,1,2.55,1.19,5.77,5.77,0,0,1,.94,2.05A15.84,15.84,0,0,1,277,13.14Zm2.38,3.63c4-2.23,4-2.23,4.42-2.59a1.84,1.84,0,0,0,.68-1.22,2.07,2.07,0,0,0-2.08-1.73A6.57,6.57,0,0,0,278,13.61a18.4,18.4,0,0,0-3.1,5.43,1,1,0,0,0-.07.29C276,18.68,276,18.68,279.41,16.77Z"/><path class="cls-2" d="M309.1,16.67h-2.38v1.47c0,.4-.64.72-1.44.72-.39,0-.64-.21-.64-.54V3.6L307.15,5h1.62a31.57,31.57,0,0,0,.69-5l2.84.47c.43.07.68.32.68.61a1,1,0,0,1-.5.76l-.76.54L310.18,5h3.45l.86-1.36,2.05,1.94a.84.84,0,0,1,.26.58.67.67,0,0,1-.4.54l-.57.32V17.49c0,.65-.69,1.12-1.62,1.12-.33,0-.47-.18-.47-.54v-1.4h-2.41v4.14h10l1.87-2.34,2.88,2.37c.25.18.36.36.36.51a.37.37,0,0,1-.4.32H312.26c3.53,3.56,8.85,6,15,6.91a9.87,9.87,0,0,0-2.77,2.81,29.34,29.34,0,0,1-7.41-3.78,25.52,25.52,0,0,1-5.72-5.47v9.5a.55.55,0,0,1-.11.36,2.8,2.8,0,0,1-1.58.58.52.52,0,0,1-.54-.47V22.93a39.69,39.69,0,0,1-9.86,6.62,22.22,22.22,0,0,1-5.11,2,.29.29,0,0,1-.32-.29c0-.18,0-.18,2.12-1.26a41,41,0,0,0,11-8.31h-5.47c-2.48.07-3.6.07-6.62.18l-.47-1.26,3.85.14c1.58,0,2.66.08,3.24.08h7.63Zm-5.29-4L298,17.42l-.15.69c-.1.46-.39.75-.71.75a.77.77,0,0,1-.4-.14l-2.3-2.27c3.13-1.37,4.21-1.91,9.1-4.5ZM295.6,3.74c3.64.87,6.09,2.92,6.09,5a1.42,1.42,0,0,1-1.3,1.58,1.21,1.21,0,0,1-.9-.4c-.25-.25-.25-.25-1-2.23a10.58,10.58,0,0,0-3.06-3.52Zm18.14,6.66V5.87h-7V10.4Zm0,5.4V11.27h-7V15.8ZM324.42,5.22a.43.43,0,0,1,.18.32c0,.18-.21.36-.68.47l-1.22.32-5.22,4.4c-.36.28-.54.39-.72.39s-.29-.11-.29-.32.15-.4,1.59-2.23c1-1.33,1.9-2.63,3.81-5.47Zm-7.51,6.55a14.45,14.45,0,0,1,5.61,1.69c1.51.87,2.3,1.87,2.3,2.88a1.31,1.31,0,0,1-1.26,1.33c-.47,0-.57-.1-2.45-2.26a14.46,14.46,0,0,0-4.28-3Z"/><path class="cls-2" d="M355.3,22.82c0,.61-.82,1.91-2,3.24a12.41,12.41,0,0,1-9.46,4.54,7.62,7.62,0,0,1-5.76-2.2c-1.47-1.55-2.08-3.56-2.08-6.73,0-2.05,0-2.52.72-11.48.21-2.92.21-2.92.21-3.35,0-2.2-.5-3.13-1.69-3.13-.21,0-.32-.07-.32-.18,0-.36.72-.69,1.51-.69,1.76,0,3.45,2,3.45,4.14a9.83,9.83,0,0,1-.5,2.63,72,72,0,0,0-1.48,11.84c0,4.86,1.91,7,6.23,7a13.07,13.07,0,0,0,7.59-2.77,15.51,15.51,0,0,0,2.92-2.81c.14-.25.28-.36.39-.36A.28.28,0,0,1,355.3,22.82Z"/><path class="cls-2" d="M371.43,8c0-.83,0-1.44,0-1.55,0-2.12-.35-2.7-1.76-2.77-.25,0-.32,0-.32-.11,0-.28,1.37-.9,1.94-.9a5.45,5.45,0,0,1,2.16.72,1.43,1.43,0,0,1,.72,1,4.41,4.41,0,0,1-.22,1,16.52,16.52,0,0,0-.61,2.88c1.55-.61,2.09-1,2.48-1.62,1.12.14,2.06.72,2.06,1.3,0,.28-.18.43-.83.75a28.2,28.2,0,0,1-4,1.51,4,4,0,0,0-.15.76c-.07.57-.14,1.19-.21,1.8,0,.07-.07.61-.18,1.19a1.56,1.56,0,0,1,1.22,1.47c0,.51-.11.87-1.08,4.36-1.11,3.78-1.33,4.86-1.33,6.19,0,1.58,1.22,2.3,3.89,2.3a19.87,19.87,0,0,0,6.65-1.22c1.19-.54,1.62-1.37,1.62-3,0-1.08,0-1.33-.54-6.55-.21-2.3-.32-4-.32-5,0-2.24.9-3.35,2.59-3.35,3.17,0,7.16,3.31,7.16,5.9,0,1.12-.94,2.41-1.73,2.41a.45.45,0,0,1-.36-.21c-.79-.94-1.65-1.23-3.63-1.19-.29,0-.4-.11-.4-.25s0-.18.33-.22c.57-.11,2.12-.43,2.44-.54a.83.83,0,0,0,.65-.75,5.1,5.1,0,0,0-1.4-2.56A5,5,0,0,0,385,10c-1,0-1.51.93-1.51,2.73a42.35,42.35,0,0,0,.86,7.81c.54,2.34,1,3.35,1.84,4.11a1.94,1.94,0,0,1,.18.79,3.46,3.46,0,0,1-2.09,2.88,18.07,18.07,0,0,1-8.17,1.76c-4.42,0-6.51-1.33-6.51-4.17A16.13,16.13,0,0,1,370,23a1.77,1.77,0,0,1-1.34.54c-1.36,0-2.23-1.58-2.23-4,0-3.28,1.87-5.94,4.14-5.94a4.79,4.79,0,0,1,.58,0c.11-1.76.11-1.83.18-3.06a18.41,18.41,0,0,1-4.57.87A1.88,1.88,0,0,1,364.74,10a6.78,6.78,0,0,1-.36-2.12c0-.18.07-.25.21-.25s.11,0,.15.18a2.42,2.42,0,0,0,2.48,1.87,16.57,16.57,0,0,0,4.21-.79Zm-2.55,8a8.2,8.2,0,0,0-.8,3.56c0,1.37.51,2.31,1.26,2.31.58,0,.94-.44,1.15-1.34s.72-4.24.72-4.64c0-.72-.25-1.15-.68-1.19A2.28,2.28,0,0,0,368.88,16Z"/><path class="cls-2" d="M407.06,17.6a11.25,11.25,0,0,1-.76,4.18c-.83,2-2.77,3.63-4.32,3.63a1.72,1.72,0,0,1-1.47-1.54c0-.47.18-.65,1.29-1.16a8.48,8.48,0,0,0,4.68-5.22c0-.18.11-.21.25-.21A.29.29,0,0,1,407.06,17.6Zm7.09-3.49c0,.11,0,.11,0,3.85l.07,3.89c0,1.19,0,2.34.08,2.59,0,.65,0,1.23,0,1.59a3.33,3.33,0,0,1-1.22,2.73,3.23,3.23,0,0,1-2,.94c-.33,0-.47-.22-.5-.76-.11-1.58-.65-2.45-2.31-3.85a.47.47,0,0,1-.21-.29.39.39,0,0,1,.36-.32c.14,0,.14,0,1.44.82.75.47,1,.58,1.33.58.82,0,.82,0,.9-7l0-4.68v-1a33.41,33.41,0,0,0-7.27,1.55,2.71,2.71,0,0,1-1,.25,4.46,4.46,0,0,1-1.54-.61A2.8,2.8,0,0,1,401,12.06c0-.22.07-.33.18-.33s.18,0,.29.19c.5.64,1.3.86,3,.86,1.48,0,5.26-.36,7.67-.69,0-5.25-.18-5.65-2.16-5.9-.22,0-.33,0-.33-.14,0-.33,1.3-1,1.95-1a4.2,4.2,0,0,1,2.55,1c.58.44.86.8.86,1a.71.71,0,0,1-.1.33c-.47.75-.54,1.29-.72,4.42,4.21-.39,5.93-.72,7.16-1.26.68-.39.68-.39.9-.39a4.16,4.16,0,0,1,2.12,1c.79.54,1,.79,1,1.19a.85.85,0,0,1-.82.82,4.65,4.65,0,0,1-.62-.07,38.65,38.65,0,0,0-5-.36c-1.44,0-3.6.15-4.82.29Zm6.44,3.78c2.87,1.73,4.57,3.74,4.57,5.51a1.74,1.74,0,0,1-1.62,1.9c-.65,0-.87-.25-1.26-1.69-.65-2.66-3.1-5.65-5.29-6.44-.15-.07-.22-.11-.22-.22s.18-.28.4-.28A7.92,7.92,0,0,1,420.59,17.89Zm5.93-13.07a3.38,3.38,0,1,1-3.31-3.38A3.38,3.38,0,0,1,426.52,4.82Zm-5.61,0a2.21,2.21,0,1,0,4.42,0,2.2,2.2,0,0,0-2.23-2.19A2.24,2.24,0,0,0,420.91,4.86Z"/><path class="cls-2" d="M447.43,13.71c1.77.83,1.77.83,1.77,1.12a2.25,2.25,0,0,1-.15.54,7.24,7.24,0,0,0-.29,2.74l0,3.52,0,4,0,2.38c0,.47,0,.9,0,1.11,0,.9-.33,1.44-.83,1.44-1,0-2.27-.9-2.27-1.69a3.41,3.41,0,0,1,.11-.68,104.86,104.86,0,0,0,.83-11.95,3.78,3.78,0,0,0-.4-2,43.62,43.62,0,0,1-9,7.12,15.7,15.7,0,0,1-3.82,1.62c-.17,0-.35-.14-.35-.28s.07-.15.35-.29C439,19.83,449.66,9,449.66,5.9c0-.36-.64-1-1.15-1.08-.29-.07-.36-.14-.36-.28s.72-.47,1.41-.47c1.29,0,3.88,1.87,3.88,2.81,0,.25-.11.36-.43.5s-.68.36-1.22,1A53.27,53.27,0,0,1,447,13.5Z"/><path class="cls-2" d="M472,11.63a1.44,1.44,0,0,1-1.58,1.47c-.47,0-.69-.18-1-.79a7.45,7.45,0,0,0-5.29-4.25c-.21-.07-.32-.14-.32-.25s.61-.39,1.62-.39C468.67,7.42,472,9.54,472,11.63ZM467.52,27A5.16,5.16,0,0,1,465,25.2a2.59,2.59,0,0,1-.86-2.16c0-.69.18-1.19.43-1.19s.18.07.25.25a2.46,2.46,0,0,0,2.06,1.73c1.43,0,5.57-2.56,10.61-6.59A69.85,69.85,0,0,0,484,11.52c.61-.65,2.55-2.85,2.87-3.28s.44-.54.62-.54.25.15.25.33c0,.54-1.55,2.91-3.24,5a53.65,53.65,0,0,1-7.41,7.45,48.89,48.89,0,0,1-8.21,5.65C468.2,26.75,467.84,27,467.52,27Z"/><path class="cls-2" d="M502.24,14.51c0,6.08.08,9.32.26,11.8.07.69.1,1.23.1,1.51,0,1.48-.54,2.56-1.22,2.56s-1.83-1.58-1.83-2.45c0-.21,0-.5.07-.86.32-1.91.57-9.68.57-16.49,0-3.2-.14-4.46-.54-5.11a1.78,1.78,0,0,0-1.69-.9c-.21,0-.32-.11-.32-.29s.11-.25.29-.32a8.32,8.32,0,0,1,2.12-.58c.5,0,1,.26,2.48,1.23.51.32.69.54.69.79a2,2,0,0,1-.18.65c-.54.93-.76,2.52-.83,6.41a14.5,14.5,0,0,1,7.27,2.26c1.87,1.26,2.73,2.38,2.73,3.49a1.42,1.42,0,0,1-1.44,1.52c-.75,0-1.19-.33-2-1.66a12.28,12.28,0,0,0-6.55-5Z"/></g></g></g></svg>