<svg xmlns="http://www.w3.org/2000/svg" viewBox="0 0 527.41 29.37"><defs><style>.cls-1{fill:#333;}</style></defs><title>wildracer-cta-title</title><g id="レイヤー_2" data-name="レイヤー 2"><g id="レイヤー_1-2" data-name="レイヤー 1"><path class="cls-1" d="M.16,6.65A.17.17,0,0,1,0,6.46c0-.2.39-.33,1.1-.33A4.9,4.9,0,0,1,4,7.21c.36,0,.52,0,.68,0,1.17,0,5.39-.46,8.18-.91A11.82,11.82,0,0,0,17,5.16,1.57,1.57,0,0,1,17.62,5c.33,0,.75.29,1.79,1.26.84.78,1.07,1,1.07,1.23s-.36.72-1.17,1.34c-1.62,5.32-2.73,7.75-4.71,10.38A20.53,20.53,0,0,1,6.1,25.7a20,20,0,0,1-2.79.85.53.53,0,0,1-.49-.42c0-.07.07-.13.26-.2a19.21,19.21,0,0,0,3.51-1.62,19.8,19.8,0,0,0,7.46-8.12c1.27-2.43,2.57-6.42,2.57-7.88,0-.78-.55-1.1-1.92-1.1-.84,0-4.09.38-7.66.94a7.38,7.38,0,0,0-2.79.71l.13.94a48.49,48.49,0,0,1,.78,6c0,.74-.29,1.23-.78,1.23-.75,0-1.85-.91-1.85-1.53,0-.06,0-.19.07-.42a7.55,7.55,0,0,0,.06-.91,38.72,38.72,0,0,0-.75-5.74C1.65,7.33,1,6.65.32,6.65Z"/><path class="cls-1" d="M47.29,12.27c1.65.74,1.65.74,1.65,1.07a1,1,0,0,1-.13.45,7.35,7.35,0,0,0-.29,2.6l.07,3.31v3.7l0,2.24c0,.42,0,.81,0,1.07,0,.84-.29,1.33-.78,1.33-1,0-2.11-.84-2.11-1.59a3,3,0,0,1,.1-.62,103.89,103.89,0,0,0,.78-11.23,3.32,3.32,0,0,0-.39-1.91,41.62,41.62,0,0,1-8.44,6.69,14.5,14.5,0,0,1-3.6,1.52c-.13,0-.33-.13-.33-.26s.07-.16.33-.26C39.34,18,49.37,7.79,49.37,4.93c0-.32-.62-.91-1.08-1-.29-.07-.35-.13-.35-.26s.68-.46,1.33-.46c1.2,0,3.67,1.76,3.67,2.63,0,.23-.1.33-.39.49a2.31,2.31,0,0,0-1.17,1,53.6,53.6,0,0,1-4.51,4.77Z"/><path class="cls-1" d="M78.45,8.47c1,.52,1.68,1.17,1.68,1.46,0,.13,0,.16-.29.39a2.66,2.66,0,0,0-.42,1.2,28.14,28.14,0,0,1-3.12,7.89c-1.75,2.89-5.61,6.65-6.84,6.65a.37.37,0,0,1-.39-.36c0-.13.09-.26.32-.39A17.23,17.23,0,0,0,73.93,20C75.65,17,77,12.66,77,10.16A1.82,1.82,0,0,0,76,8.41c-.17-.07-.23-.17-.23-.26s.19-.26.45-.26A5.57,5.57,0,0,1,78.45,8.47ZM82.92,14c0-2.86.07-4.35.07-4.42a3.7,3.7,0,0,0-.26-1.88,1.7,1.7,0,0,0-.65-.45c-.19,0-.26-.07-.26-.2s.65-.45,1-.45a3.72,3.72,0,0,1,2.08.9c.84.59.94.69.94.88s0,.16-.26.46A6.7,6.7,0,0,0,85,11.39c-.09,1.2-.32,6.2-.32,7.3,0,.46.16.65.52.65,1.2,0,3.73-1.46,6.07-3.5a36.15,36.15,0,0,0,6.42-7.47c.2-.39.3-.48.43-.48a.44.44,0,0,1,.35.39,19,19,0,0,1-2.43,4.38,29.22,29.22,0,0,1-5,5.61,28.46,28.46,0,0,1-4.48,3.09,4.32,4.32,0,0,0-2,1.42.32.32,0,0,1-.19.1c-.52,0-2-1.78-2-2.37a1.46,1.46,0,0,1,.13-.39,3.43,3.43,0,0,0,.42-2.2Z"/><path class="cls-1" d="M118.14,13.4c0,5.81.1,8.9.26,11.07.06.68.1,1.17.1,1.46,0,1.36-.49,2.37-1.17,2.37s-1.72-1.46-1.72-2.27a4.27,4.27,0,0,1,.1-.84c.26-1.82.52-9,.52-15.49,0-3-.1-4.12-.52-4.8a1.76,1.76,0,0,0-1.56-.81c-.23,0-.33-.1-.33-.29s.1-.23.3-.3a8.69,8.69,0,0,1,2-.55c.48,0,.94.23,2.36,1.14.43.29.62.52.62.75a1.63,1.63,0,0,1-.16.61c-.52.88-.72,2.4-.78,6A13.6,13.6,0,0,1,125,13.6c1.75,1.2,2.56,2.24,2.56,3.28a1.32,1.32,0,0,1-1.36,1.42c-.72,0-1.11-.29-1.89-1.55A11.43,11.43,0,0,0,118.14,12Zm10.45-5.32a1.1,1.1,0,0,1-1,1.1c-.49,0-.71-.16-1-.68a5.8,5.8,0,0,0-3.15-2.63c-.13-.06-.19-.09-.19-.16s.38-.23.94-.23C126.45,5.48,128.59,6.75,128.59,8.08Zm3.57-1.88a1.11,1.11,0,0,1-1,1.1.93.93,0,0,1-.94-.61,6.08,6.08,0,0,0-3.31-2.76c-.1,0-.16-.1-.16-.17s.39-.22.91-.22C130,3.54,132.16,4.84,132.16,6.2Z"/><path class="cls-1" d="M150.24,12.37v-1c0-.62,0-1,0-1.2a2.65,2.65,0,0,0-2.08-2.67c-.16-.06-.26-.13-.26-.19s1-.45,1.69-.45a4.79,4.79,0,0,1,2.66,1.26,6.43,6.43,0,0,0,.62.46c.39.26.51.39.51.55s0,.09-.19.42a5.93,5.93,0,0,0-.65,2.47c-.26,2.59-.39,4.6-.39,6.06,0,2.24.1,2.57.75,2.57,1.36,0,4.41-1.56,7.59-3.9a48.5,48.5,0,0,0,9.41-9c.3-.42.39-.49.49-.49s.29.23.29.39a10.65,10.65,0,0,1-1.26,2.27,37.13,37.13,0,0,1-7.24,7.83,37,37,0,0,1-7.33,4.77,7.05,7.05,0,0,0-2.18,1.49c-.29.32-.49.45-.62.45a5.53,5.53,0,0,1-1.36-.9,2.55,2.55,0,0,1-1-1.27,1.08,1.08,0,0,1,.13-.49,4.23,4.23,0,0,0,.42-1.78Z"/><path class="cls-1" d="M183.74,17.3a5.74,5.74,0,0,1-1.34.23,3.52,3.52,0,0,1-2.57-1.76,9.91,9.91,0,0,1-.21-1.81c0-.23.09-.39.23-.39s.15.06.24.22c.38.94,1.08,1.27,2.77,1.27a122.55,122.55,0,0,0,16.88-1.33c.27,0,.56-.07.79-.07a1.89,1.89,0,0,1,1.55.72c.55.58.76.91.76,1.2,0,.49-.58.78-1.52.78-.23,0-.55,0-1.08,0s-3-.09-4.23-.09A71.61,71.61,0,0,0,183.74,17.3Z"/><path class="cls-1" d="M231,9.51a6.21,6.21,0,0,0,0,.81c.29,0,.58-.1.68-.1l1.17-.13a7.25,7.25,0,0,0,2.07-.58,2.75,2.75,0,0,1,1.17-.36,9.12,9.12,0,0,1,2.63,1c.49.26.81.61.81.87a1,1,0,0,1-.87.94c-.2,0-.46,0-.78-.06a37.39,37.39,0,0,0-4.64-.39c-.65,0-1.2,0-2.31.13-.42,5.91-1,8.21-2.82,10.87a13.55,13.55,0,0,1-7.34,5.26,1.94,1.94,0,0,0-.39.13,1.46,1.46,0,0,1-.26.06.44.44,0,0,1-.38-.35c0-.13.09-.23.32-.3,5.74-2.53,8.8-7.95,8.8-15.64-2.44.16-3.57.26-5.42.46,0,1,0,1.68,0,2s0,.78,0,1.26v.88l0,1.1a6.5,6.5,0,0,1,.07.72.76.76,0,0,1-.78.78c-.65,0-1.53-1.14-1.53-1.95a4,4,0,0,1,0-.62c.09-.84.16-2.53.16-3.92a37.82,37.82,0,0,0-4,.9,4.87,4.87,0,0,1-1.53.3,2.85,2.85,0,0,1-2.3-1.24,1.88,1.88,0,0,1-.59-1.49v-.07a.18.18,0,0,1,.2-.19.31.31,0,0,1,.22.13c.62.62,1.37.84,2.89.84.65,0,3.15-.16,5.1-.32,0-.39,0-.88,0-.88l-.07-1.46c-.1-2.4-.1-2.4-.39-2.69a2.34,2.34,0,0,0-1.49-.46,1.11,1.11,0,0,0-.36,0,.21.21,0,0,1-.13,0,.15.15,0,0,1-.13-.13c0-.1.07-.2.29-.33s.26-.16.56-.35c.61-.46.87-.59,1.1-.59a9.1,9.1,0,0,1,2,.72c.45.26.71.55.71.84a1.59,1.59,0,0,1,0,.36,1.19,1.19,0,0,0-.06.45V7.3c0,.88,0,1.53,0,2s0,.91,0,1.76c2.4-.26,2.72-.3,5.45-.52l0-2.47c0-3.54-.36-4.32-2.21-4.7-.13,0-.2-.1-.2-.17,0-.29,1.07-.61,2-.61,1.17,0,3.41,1.36,3.41,2.11,0,.13,0,.13-.39.87A3.72,3.72,0,0,0,231.05,7l0,.75Z"/><path class="cls-1" d="M253.39,17.3a5.74,5.74,0,0,1-1.34.23,3.52,3.52,0,0,1-2.57-1.76,9.91,9.91,0,0,1-.21-1.81c0-.23.09-.39.24-.39s.14.06.23.22c.38.94,1.08,1.27,2.77,1.27a122.55,122.55,0,0,0,16.88-1.33c.27,0,.56-.07.79-.07a1.88,1.88,0,0,1,1.55.72c.56.58.76.91.76,1.2,0,.49-.58.78-1.52.78-.23,0-.55,0-1.08,0s-3-.09-4.23-.09A71.61,71.61,0,0,0,253.39,17.3Z"/><path class="cls-1" d="M298.63,10.9a7.44,7.44,0,0,1,4.83-2.07c2.31,0,4.09,1.36,4.09,3.11a1.92,1.92,0,0,1-.84,1.72c-.68.52-.88.59-3.89,1.79a55,55,0,0,0-6.95,3.15c.1,1.42.16,2.46.16,3,0,1.63-.32,2.05-1.62,2.05-.39,0-.58-.13-.58-.33a.9.9,0,0,1,0-.26,25.19,25.19,0,0,0,.16-3.5c-2.79,1.65-3.93,2.95-3.93,4.41,0,1.62,1.53,2.27,5.33,2.27a18.67,18.67,0,0,0,4.77-.58,2.57,2.57,0,0,1,.84-.16,1.74,1.74,0,0,1,1.56,1.33c0,1.07-2.14,1.62-6.56,1.62a10.76,10.76,0,0,1-5.29-1,3.87,3.87,0,0,1-2.24-3.31,4.1,4.1,0,0,1,1.66-3A22.25,22.25,0,0,1,294,18.6a12.36,12.36,0,0,0-.42-4.09A1.7,1.7,0,0,0,292,13.37a3.79,3.79,0,0,0-2.3,1.2,19.73,19.73,0,0,0-2.8,3.47c-.35.62-.71.91-1.07.91s-1.13-1.07-1.13-1.91c0-.42.13-.65.78-1.14,3.5-3.05,5.64-6.2,6.26-9.21a10.14,10.14,0,0,1-2.82.55,2,2,0,0,1-1.69-1.17,4.11,4.11,0,0,1-.49-1.23.14.14,0,0,1,.13-.13s.1,0,.16.13a2.07,2.07,0,0,0,1.92.84,8.62,8.62,0,0,0,2.95-.52,5,5,0,0,0,.1-.91,1.53,1.53,0,0,0-1.53-1.75c-.13,0-.16,0-.16-.13,0-.29,1.11-.81,1.72-.81a2.23,2.23,0,0,1,2.14,1.91A4.93,4.93,0,0,1,294,4.71,4.71,4.71,0,0,0,296,3.6c1.11.55,1.43.78,1.43,1s-.71.68-3.8,1.59a36.93,36.93,0,0,1-3.7,6.91,5.2,5.2,0,0,1,2.15-.58,3.28,3.28,0,0,1,2.07.75,4.65,4.65,0,0,1,1.2,2.3A13.22,13.22,0,0,1,298.63,10.9ZM300,15.12a35.61,35.61,0,0,0,4.16-2.43,1.81,1.81,0,0,0,.65-1.14,2,2,0,0,0-2-1.62c-1.69,0-3.9,1.53-5.16,3.6a16.61,16.61,0,0,0-1.92,4C297.07,16.75,297.3,16.62,300,15.12Z"/><path class="cls-1" d="M328,18.17a6,6,0,0,0,1.72-.25.7.7,0,0,1,.33-.13,3,3,0,0,1,.84.61c.36.36.49.59.49.85,0,.58-.49.9-1.33.9a22,22,0,0,1-3.57-.25,14.41,14.41,0,0,0-.07,1.59,5.37,5.37,0,0,0,1.2,3.86,4.82,4.82,0,0,0,3.54,1.43c2.76,0,4.51-1.66,4.51-4.29a9.78,9.78,0,0,0-4.15-7.72c-.16-.13-.23-.2-.23-.26s.13-.16.26-.16a7.91,7.91,0,0,1,2.6,1.59c2.56,2.1,3.92,4.54,3.92,7,0,3.4-2.62,5.74-6.45,5.74A7.17,7.17,0,0,1,326.93,27a6.24,6.24,0,0,1-1.85-4.94,13.62,13.62,0,0,1,.2-2.46c-2.34-.62-3.48-1.6-3.48-3a4.16,4.16,0,0,1,1.75-3.05,22.94,22.94,0,0,1,3.25-2c.07-.35.07-.42.16-.84-2.43-.68-3-.91-4-1.85a2.59,2.59,0,0,1-.94-2.14c0-.29.1-.39.33-.39.06,0,.13.06.13.19.09.81,1.91,1.82,4.8,2.6.36-1.79.36-1.82.42-2.21a13.43,13.43,0,0,0,.39-2.43A2.26,2.26,0,0,0,326.28,2c-.13,0-.16,0-.16-.1,0-.23,1.1-.71,1.62-.71a5.45,5.45,0,0,1,2.34,1.23c.78.62,1.1,1.1,1.1,1.65s-.13.85-.84,2.24c-.55,1.17-.88,1.85-1.46,3.18a4.21,4.21,0,0,0,1.33.17,1,1,0,0,1,1,.42,2.1,2.1,0,0,1,.46,1.13c0,.43-.23.52-1,.52a8.61,8.61,0,0,0-2.76.49,52.72,52.72,0,0,0-1.17,5.91A13.11,13.11,0,0,0,328,18.17Zm-2.37-.77c.1-.49.2-.95.3-1.4s.22-1.2.35-1.78c0-.23.13-.69.3-1.34-2.21,1.37-3.09,2.34-3.09,3.44,0,.82.52,1.21,2.05,1.56Z"/><path class="cls-1" d="M376.59,18.73c0,3.08-1.85,5.64-5.19,7.14a24.86,24.86,0,0,1-7.53,1.91c-.23,0-.52-.23-.52-.39s.06-.1.55-.19c6.59-1.17,10.29-4.25,10.29-8.51,0-3.14-1.85-5.06-4.84-5.06a15.47,15.47,0,0,0-7.92,2.63,22.38,22.38,0,0,0-3.54,2.66,1.71,1.71,0,0,1-1.29.59,3.65,3.65,0,0,1-2.34-1.21,3.4,3.4,0,0,1-.65-2.36c0-.26.06-.36.23-.36s.13,0,.13.16a1.81,1.81,0,0,0,1.85,1.43c.71,0,.91-.07,2.59-1.07,4.32-2.5,7.6-3.57,10.84-3.57C373.57,12.53,376.59,15.06,376.59,18.73Z"/><path class="cls-1" d="M400.87,16.19a6.93,6.93,0,0,1-1.43-4.83c0-.91.1-3.18.19-5.06l0-1c0-1.75-.74-2.43-2.59-2.43a1.21,1.21,0,0,0-.39,0h-.07c-.19,0-.29-.07-.29-.16,0-.43,1.59-.95,2.92-.95a5.61,5.61,0,0,1,2.7.78A1.59,1.59,0,0,1,402.68,4a6.69,6.69,0,0,1-.39,1.89,31.35,31.35,0,0,0-1.1,7.23c0,1.27.39,2.18,1,2.18a11.47,11.47,0,0,0,3.28-1.85c.39-.33.55-.39.85-.39.94,0,2.14.81,2.14,1.43s-.49.81-1.66,1.17a35.31,35.31,0,0,1-4,.81,7.31,7.31,0,0,0-2.76,1.1c-2.4,1.4-3.63,3.21-3.63,5.36,0,2.3,1.88,3.44,5.64,3.44a22,22,0,0,0,6.72-1.2,1.88,1.88,0,0,1,.78-.23,2.17,2.17,0,0,1,1.85,1.78.89.89,0,0,1-.58.75,21.64,21.64,0,0,1-6.88.91,17.43,17.43,0,0,1-6.24-.91,4.76,4.76,0,0,1-3.21-4.32c0-2.5,2.4-5.19,6-6.81Z"/><path class="cls-1" d="M438.42,15h-2.14v1.33c0,.35-.59.65-1.3.65-.36,0-.59-.2-.59-.49V3.25l2.28,1.26h1.45A27.58,27.58,0,0,0,438.74,0l2.57.42c.39.07.61.29.61.55a.88.88,0,0,1-.45.68l-.68.49-1.4,2.37h3.12l.78-1.23L445.14,5a.77.77,0,0,1,.22.52A.6.6,0,0,1,445,6l-.52.29v9.44c0,.59-.62,1-1.46,1-.3,0-.43-.16-.43-.49V15h-2.17v3.73h9.05l1.69-2.11,2.6,2.14a.62.62,0,0,1,.32.46.33.33,0,0,1-.35.29H441.27a23.68,23.68,0,0,0,13.51,6.23,8.6,8.6,0,0,0-2.5,2.53,26.28,26.28,0,0,1-6.69-3.41A22.79,22.79,0,0,1,440.43,20v8.57a.44.44,0,0,1-.1.32,2.49,2.49,0,0,1-1.43.52.46.46,0,0,1-.48-.42V20.67a35.78,35.78,0,0,1-8.9,6,20.09,20.09,0,0,1-4.6,1.78.27.27,0,0,1-.3-.26c0-.16,0-.16,1.92-1.13a37.32,37.32,0,0,0,9.93-7.5h-4.93c-2.24.06-3.25.06-6,.16l-.43-1.14c1.56.07,2.92.1,3.48.13,1.42,0,2.4.07,2.92.07h6.88Zm-4.77-3.64-5.26,4.32-.13.61c-.1.43-.36.69-.65.69a.75.75,0,0,1-.36-.13l-2.07-2c2.82-1.23,3.79-1.72,8.21-4.06Zm-7.4-8c3.27.77,5.48,2.62,5.48,4.51a1.27,1.27,0,0,1-1.17,1.42,1.14,1.14,0,0,1-.81-.35c-.23-.23-.23-.23-.87-2a9.79,9.79,0,0,0-2.76-3.19Zm16.35,6V5.29h-6.32V9.38Zm0,4.87V10.16h-6.32v4.09Zm9.64-9.54a.37.37,0,0,1,.17.29c0,.16-.2.32-.62.42l-1.1.29-4.71,4c-.32.26-.49.36-.65.36s-.26-.1-.26-.29.13-.36,1.43-2c.88-1.2,1.72-2.37,3.44-4.93Zm-6.78,5.9a12.83,12.83,0,0,1,5.06,1.53c1.37.78,2.08,1.69,2.08,2.59a1.19,1.19,0,0,1-1.14,1.21c-.42,0-.51-.1-2.2-2a13.31,13.31,0,0,0-3.86-2.73Z"/><path class="cls-1" d="M488.37,20.84a7,7,0,0,1-1.85,3,11.6,11.6,0,0,1-8.9,4.29,7.13,7.13,0,0,1-5.42-2.05c-1.36-1.46-1.94-3.37-1.94-6.32,0-1.95,0-2.37.65-10.84.19-2.73.19-2.73.19-3.12,0-2.08-.49-2.95-1.59-2.95-.19,0-.29-.07-.29-.17,0-.35.68-.65,1.43-.65,1.65,0,3.24,1.89,3.24,3.9a8.75,8.75,0,0,1-.48,2.47A69.46,69.46,0,0,0,472,19.54c0,4.54,1.79,6.59,5.84,6.59A12,12,0,0,0,485,23.5a12.8,12.8,0,0,0,2.76-2.63c.13-.23.26-.33.39-.33S488.37,20.67,488.37,20.84Z"/><path class="cls-1" d="M507.74,5.58c0-2.14-.32-2.66-1.65-2.72-.26,0-.29,0-.29-.13,0-.26,1.26-.85,1.81-.85a5.2,5.2,0,0,1,2.05.68,1.36,1.36,0,0,1,.68,1,3.3,3.3,0,0,1-.23.91,17.15,17.15,0,0,0-.55,2.69c1.46-.55,1.95-.88,2.31-1.49,1,.06,1.94.68,1.94,1.2,0,.29-.16.42-.78.71A22.67,22.67,0,0,1,509.24,9c-.23,1.69-.26,1.91-.49,3.54a1.47,1.47,0,0,1,1.14,1.39,21.82,21.82,0,0,1-1,4.09,22.51,22.51,0,0,0-1.24,5.81c0,1.49,1.14,2.17,3.67,2.17a19.3,19.3,0,0,0,6.23-1.13c1.11-.52,1.53-1.3,1.53-2.86,0-1,0-1.36-.49-6.13-.23-2.14-.32-3.7-.32-4.68,0-2.07.84-3.14,2.46-3.14,3,0,6.72,3.08,6.72,5.51,0,1.07-.87,2.28-1.62,2.28-.13,0-.23-.07-.33-.23-.77-.88-1.52-1.14-3.4-1.1-.26,0-.39-.07-.39-.23s0-.16.29-.2a1.71,1.71,0,0,0,.39-.09c.45-.07.81-.17,1.17-.23,1-.2,1.33-.42,1.33-.91a4.83,4.83,0,0,0-1.3-2.37,4.71,4.71,0,0,0-3-1.65c-.94,0-1.43.84-1.43,2.56a37.91,37.91,0,0,0,.82,7.33c.48,2.21.9,3.15,1.71,3.87a1.71,1.71,0,0,1,.17.74,3.25,3.25,0,0,1-2,2.7,17.17,17.17,0,0,1-7.66,1.65c-4.16,0-6.14-1.26-6.14-3.93a16,16,0,0,1,.39-2.72,1.68,1.68,0,0,1-1.26.49c-1.27,0-2.08-1.5-2.08-3.77,0-3.08,1.75-5.55,3.93-5.55a3.11,3.11,0,0,1,.48,0c.07-1.46.1-1.68.17-2.89a16.1,16.1,0,0,1-4.22.82c-1,0-1.5-.26-1.85-1a5.92,5.92,0,0,1-.49-2.31c0-.16.07-.26.2-.26s.09,0,.16.17a2.23,2.23,0,0,0,2.33,1.75,15.58,15.58,0,0,0,3.93-.75,10.82,10.82,0,0,1,0-1.17Zm-2.4,8.83a7.67,7.67,0,0,0-.74,3.38c0,1.26.48,2.14,1.16,2.14s.95-.46,1.14-1.56c.26-1.4.62-3.77.62-4.06,0-.65-.23-1-.65-1.1S505.7,13.73,505.34,14.41Z"/></g></g></svg>