<?xml version="1.0" standalone="no"?>
<!DOCTYPE svg PUBLIC "-//W3C//DTD SVG 20010904//EN"
 "http://www.w3.org/TR/2001/REC-SVG-20010904/DTD/svg10.dtd">
<svg version="1.0" xmlns="http://www.w3.org/2000/svg"
 width="602.000000pt" height="33.000000pt" viewBox="0 0 602.000000 33.000000"
 preserveAspectRatio="xMidYMid meet">

<g transform="translate(0.000000,33.000000) scale(0.100000,-0.100000)"
fill="#000000" stroke="none">
<path d="M5850 298 c0 -48 -10 -56 -70 -61 l-55 -3 59 -2 59 -2 -6 -51 c-8
-62 -37 -111 -83 -140 -49 -30 -35 -36 17 -8 57 32 78 63 92 137 l12 62 49 0
49 0 -7 -76 c-7 -91 -16 -105 -59 -98 -29 5 -30 4 -12 -7 11 -7 25 -19 30 -27
9 -11 14 -11 33 5 22 18 32 59 45 171 6 47 9 45 -75 42 l-58 -2 6 34 c4 18 7
37 8 42 0 6 -7 12 -16 14 -14 3 -18 -3 -18 -30z"/>
<path d="M1290 314 c0 -2 9 -13 20 -24 22 -22 49 -18 30 5 -10 12 -50 28 -50
19z"/>
<path d="M1990 305 c-18 -22 -1 -50 31 -50 20 0 24 5 24 30 0 23 -5 31 -21 33
-11 2 -27 -4 -34 -13z m47 -11 c8 -21 -13 -42 -28 -27 -13 13 -5 43 11 43 6 0
13 -7 17 -16z"/>
<path d="M5370 299 c0 -17 -5 -20 -25 -17 -25 5 -25 5 -25 -74 0 -50 4 -77 10
-73 15 9 12 -51 -4 -90 -8 -19 -11 -35 -6 -35 12 0 28 31 45 84 l13 41 1 -50
c1 -28 6 -56 13 -63 14 -14 205 -17 227 -3 14 9 22 91 10 91 -12 0 -69 58 -69
69 0 6 16 11 36 11 32 0 35 2 24 15 -9 11 -16 13 -24 5 -20 -20 -46 -11 -46
15 0 22 4 25 36 25 22 0 33 4 29 11 -4 6 -19 7 -37 4 -30 -7 -30 -6 -26 24 4
25 1 31 -14 31 -13 0 -18 -8 -18 -29 0 -25 -5 -30 -27 -34 l-28 -4 28 -2 c22
-1 27 -6 27 -26 0 -22 -4 -25 -36 -25 -34 0 -35 1 -33 33 4 43 -5 55 -36 49
-27 -5 -33 6 -13 26 9 9 7 12 -10 12 -16 0 -22 -6 -22 -21z m0 -54 c0 -16 -6
-25 -15 -25 -9 0 -15 9 -15 25 0 16 6 25 15 25 9 0 15 -9 15 -25z m55 0 c0
-10 -6 -20 -12 -22 -8 -3 -13 5 -13 22 0 17 5 25 13 23 6 -3 12 -13 12 -23z
m-55 -55 c0 -11 -7 -20 -15 -20 -8 0 -15 9 -15 20 0 11 7 20 15 20 8 0 15 -9
15 -20z m60 0 c0 -11 -7 -20 -15 -20 -8 0 -15 9 -15 20 0 11 7 20 15 20 8 0
15 -9 15 -20z m90 -5 c0 -16 -52 -85 -61 -80 -5 4 -7 11 -4 16 4 5 2 9 -3 9
-5 0 -7 13 -4 30 4 27 8 30 38 30 19 0 34 -2 34 -5z m-140 -35 c0 -5 -6 -10
-14 -10 -8 0 -18 5 -21 10 -3 6 3 10 14 10 12 0 21 -4 21 -10z m47 -22 c-3
-18 -7 -41 -9 -51 -2 -15 4 -19 35 -21 34 -3 38 -1 33 17 -3 11 3 30 14 44
l18 23 4 -49 3 -49 -43 -7 c-72 -11 -82 -3 -82 66 0 48 3 59 16 59 13 0 15 -7
11 -32z m181 -65 c-2 -12 -14 -19 -33 -21 l-30 -3 3 55 4 55 30 -34 c16 -19
28 -42 26 -52z m-153 27 c3 -5 1 -10 -4 -10 -6 0 -11 5 -11 10 0 6 2 10 4 10
3 0 8 -4 11 -10z"/>
<path d="M3551 293 c-18 -8 -40 -12 -47 -9 -16 6 -19 -20 -4 -29 6 -4 26 3 45
15 28 17 35 19 35 7 0 -8 -7 -20 -15 -27 -46 -38 -117 -132 -111 -147 6 -14 9
-14 29 4 39 35 44 35 43 -9 -1 -32 4 -44 24 -59 33 -24 85 -30 85 -9 0 10 -14
17 -43 21 -62 8 -78 37 -44 79 14 18 32 24 75 28 56 4 73 17 41 29 -14 5 -97
-17 -163 -44 -26 -11 39 65 79 91 22 14 40 33 40 41 0 25 -32 33 -69 18z"/>
<path d="M3836 301 c-3 -5 1 -11 9 -15 27 -10 18 -54 -15 -71 -32 -17 -38 -42
-18 -74 9 -15 8 -24 -6 -46 -18 -27 -16 -55 4 -55 5 0 10 9 10 19 0 11 4 22 9
25 10 7 21 -17 21 -45 0 -10 7 -19 15 -19 12 0 15 15 15 79 l0 80 38 30 c57
48 67 40 67 -54 0 -90 6 -105 41 -105 28 0 74 41 74 65 0 12 -6 10 -22 -9 -13
-14 -32 -26 -43 -28 -19 -3 -20 2 -17 76 4 110 -19 131 -92 81 -30 -21 -38
-22 -42 -10 -4 8 -3 26 0 40 5 18 1 27 -13 35 -24 12 -28 12 -35 1z m24 -114
c0 -7 -6 -22 -14 -33 -14 -18 -15 -18 -21 -1 -4 9 -5 24 -1 32 7 18 36 20 36
2z m-1 -79 c0 -27 -2 -29 -8 -13 -5 11 -6 26 -4 33 8 21 13 13 12 -20z"/>
<path d="M4597 304 c-3 -4 0 -13 8 -21 24 -23 18 -51 -15 -68 -32 -17 -38 -42
-18 -74 9 -15 8 -24 -6 -46 -18 -27 -16 -55 4 -55 5 0 10 9 10 19 0 11 4 22 9
25 10 7 21 -17 21 -45 0 -10 7 -19 15 -19 12 0 15 15 15 79 0 78 0 79 36 111
57 50 70 39 66 -54 -3 -85 6 -106 45 -106 27 0 73 41 73 65 0 12 -6 10 -22 -9
-13 -14 -32 -26 -43 -28 -19 -3 -20 2 -17 76 4 110 -19 131 -92 81 -30 -21
-38 -22 -42 -10 -4 8 -3 26 0 40 5 18 1 27 -13 35 -23 12 -26 12 -34 4z m23
-117 c0 -7 -6 -22 -14 -33 -14 -18 -15 -18 -21 -1 -4 9 -5 24 -1 32 7 18 36
20 36 2z m0 -79 c-1 -26 -3 -30 -10 -16 -6 9 -7 23 -4 32 9 25 14 19 14 -16z"/>
<path d="M36 279 c-33 -26 -36 -69 -5 -69 16 0 20 5 17 26 -4 34 27 56 60 43
54 -21 40 -73 -44 -155 -35 -35 -64 -68 -64 -74 0 -6 33 -10 85 -10 61 0 85 3
85 13 0 6 3 22 6 35 4 12 2 22 -4 22 -5 0 -12 -9 -15 -20 -4 -17 -14 -20 -61
-20 -67 0 -66 8 11 69 61 50 77 79 63 115 -18 48 -88 61 -134 25z"/>
<path d="M1265 280 c10 -11 22 -20 27 -20 15 0 9 28 -8 34 -30 11 -37 6 -19
-14z"/>
<path d="M2270 288 c-14 -5 -42 -8 -62 -6 -40 4 -49 -5 -20 -21 11 -6 40 -5
82 3 56 10 62 13 45 23 -13 7 -28 7 -45 1z"/>
<path d="M2625 281 c6 -21 -65 -107 -129 -153 -21 -15 -35 -28 -29 -28 12 0
99 55 107 69 19 30 28 6 25 -66 -3 -52 0 -77 8 -80 15 -5 23 159 8 169 -6 4 5
22 25 43 34 35 34 37 16 51 -27 19 -39 18 -31 -5z"/>
<path d="M4287 289 c-10 -6 -27 -9 -38 -6 -12 3 -19 0 -19 -9 0 -25 28 -27 60
-4 50 35 35 3 -35 -75 -36 -40 -65 -80 -65 -89 0 -22 5 -20 46 11 l35 26 -6
-26 c-12 -45 2 -77 40 -93 48 -20 77 -18 73 3 -2 13 -15 18 -43 21 -50 4 -70
22 -61 57 8 31 57 55 113 55 35 0 36 1 21 17 -16 15 -21 15 -80 -5 -35 -11
-72 -24 -83 -28 -33 -13 38 69 79 91 38 21 44 33 24 53 -15 15 -37 15 -61 1z"/>
<path d="M4431 259 c22 -22 35 -20 26 6 -4 8 -16 15 -27 15 -20 0 -20 0 1 -21z"/>
<path d="M755 258 c-64 -35 -94 -99 -74 -156 15 -44 44 -50 79 -17 39 37 60
85 60 134 0 35 3 41 20 41 37 0 70 -44 70 -92 -1 -55 -18 -85 -66 -114 -43
-26 -32 -32 20 -10 49 20 76 60 76 113 0 55 -12 78 -50 98 -34 17 -106 19
-135 3z m46 -55 c-26 -95 -93 -145 -99 -73 -3 45 15 79 57 107 43 29 56 19 42
-34z"/>
<path d="M1105 258 c11 -6 28 -20 37 -32 14 -17 19 -19 30 -8 11 11 9 17 -11
33 -13 10 -35 19 -50 19 -24 -1 -25 -1 -6 -12z"/>
<path d="M5013 250 c-40 -24 -63 -67 -63 -119 0 -40 19 -71 44 -71 19 0 67 50
82 87 8 18 14 51 14 73 0 34 3 40 20 40 36 0 70 -44 70 -90 0 -55 -23 -95 -68
-120 -36 -20 -36 -21 -7 -15 65 14 107 61 109 123 1 45 -25 89 -60 102 -41 16
-106 11 -141 -10z m57 -54 c-25 -92 -100 -141 -100 -66 0 43 25 87 63 110 42
26 53 13 37 -44z"/>
<path d="M425 251 c-16 -4 -50 -18 -74 -30 -24 -13 -54 -21 -67 -18 -28 5 -31
-5 -8 -27 21 -21 20 -21 79 19 94 65 175 55 175 -21 0 -45 -43 -89 -102 -105
-22 -5 -38 -13 -35 -15 7 -7 85 14 119 32 58 30 73 118 25 148 -30 19 -76 26
-112 17z"/>
<path d="M1900 249 c-25 -6 -60 -8 -77 -6 -35 3 -40 -2 -22 -20 7 -7 22 -8 42
-3 18 4 49 10 70 13 31 5 37 3 37 -12 0 -20 -45 -85 -81 -117 -13 -12 -42 -31
-64 -42 -23 -13 -33 -21 -22 -22 26 0 108 44 133 72 11 12 35 45 53 72 25 38
29 51 20 62 -13 16 -24 16 -89 3z"/>
<path d="M2842 230 c33 -34 48 -38 48 -14 0 21 -29 43 -57 44 -20 0 -20 -2 9
-30z"/>
<path d="M3024 229 c-33 -35 -128 -110 -162 -128 -18 -10 -27 -10 -38 0 -11 9
-14 8 -14 -4 0 -8 7 -20 16 -28 13 -11 22 -10 52 7 41 21 153 127 171 162 16
30 10 28 -25 -9z"/>
<path d="M4399 239 c24 -22 37 -20 28 6 -4 8 -16 15 -29 15 l-22 0 23 -21z"/>
<path d="M1266 193 c-66 -72 -133 -115 -168 -110 -31 4 -37 -13 -12 -34 21
-17 69 9 147 80 50 46 96 108 85 115 -2 1 -25 -22 -52 -51z"/>
<path d="M2275 218 c-22 -5 -61 -8 -88 -6 -26 2 -47 0 -47 -3 0 -15 31 -30 49
-24 11 3 43 10 71 14 56 9 61 2 36 -47 -19 -36 -62 -75 -111 -100 -47 -25 -31
-29 23 -6 44 18 83 54 123 113 23 34 27 46 18 57 -13 16 -18 16 -74 2z"/>
<path d="M1516 188 c11 -18 20 -35 21 -37 1 -1 6 0 12 4 15 9 -3 41 -30 56
l-21 11 18 -34z"/>
<path d="M1607 198 c6 -35 -48 -111 -106 -148 -56 -37 -62 -51 -9 -24 61 31
90 57 125 111 28 43 32 57 22 69 -18 22 -37 17 -32 -8z"/>
<path d="M1086 175 c27 -28 44 -32 44 -12 0 20 -21 37 -47 37 l-22 0 25 -25z"/>
<path d="M1462 160 c24 -33 38 -38 38 -16 0 14 -36 46 -53 46 -4 0 2 -13 15
-30z"/>
<path d="M3167 51 c26 -41 43 -45 43 -12 0 21 -15 36 -47 45 -22 7 -22 7 4
-33z"/>
</g>
</svg>
