<svg xmlns="http://www.w3.org/2000/svg" viewBox="0 0 716.9 50.12"><defs><style>.cls-1{fill:#fff;stroke:#fff;stroke-miterlimit:10;stroke-width:0.1px;}</style></defs><g id="Layer_2" data-name="Layer 2"><g id="Layer_1-2" data-name="Layer 1"><path class="cls-1" d="M36.77,30.52H50a.67.67,0,0,0,.54-.7,1.49,1.49,0,0,0-.59-1l-3.3-2.65-2.81,2.92H36.66V24.42L38,24a.64.64,0,0,0,.59-.7c0-.38-.32-.7-.92-.81L34,21.82v7.24H25.65L22,26.14l-2.27,2.92H16.52V24.69l1.19-.49c.75-.38,1-.54,1-.92s-.32-.7-1.3-.81L13.87,22v7.07H8c-.54,0-1.89,0-3.46,0L.75,28.84l1.46,1.84c4-.16,4.59-.16,5.78-.16H12.9c-1.46,3.72-8.31,13-12.09,16.25-.54.49-.76.76-.76,1a.47.47,0,0,0,.38.44c.48,0,1.73-.92,3.89-2.87a44.86,44.86,0,0,0,9.55-11.44V49.36c0,.49.17.71.49.71A4.45,4.45,0,0,0,16,49.42a1,1,0,0,0,.49-1V34.57a12.84,12.84,0,0,1,4.64,3.78c.65.75,1.14,1.08,1.68,1.08A1.26,1.26,0,0,0,24,38c0-1.13-.59-1.89-2.16-2.8-1.08-.6-1.56-.71-5.29-1.46V30.52H33.15A73.11,73.11,0,0,1,20,45.69c-2.11,1.73-2.11,1.73-2.11,2.05a.54.54,0,0,0,.54.44c.27,0,.38-.06,1.19-.6,5.4-3.72,9-7.18,14.31-13.5V48.77c0,.59.22.92.65.92a2.08,2.08,0,0,0,2-2V32.52a44.41,44.41,0,0,0,11.5,13.6c.87-.81,1.25-1.18,1.41-1.35a5.91,5.91,0,0,1,2.11-1.13C44.93,40.29,39.74,35.7,36.77,30.52Z"/><path class="cls-1" d="M.91,25.6c.44,0,.6-.05,5.73-2.43a68.09,68.09,0,0,0,18-12.2V23a.59.59,0,0,0,.6.65c1,0,2.1-.87,2.1-1.62V11.13c4.54,5.46,9.29,8.53,18.8,12.37.75-1,1.08-1.19,3.94-3C38.77,18,32.83,15,27.59,9.3H46.11c.49,0,.76-.22.76-.65S46.65,8,46,7.51l-3.79-2.7-2.59,3H27.37V2.71l1.19-.6a.85.85,0,0,0,.54-.7c0-.32-.32-.54-.86-.65L24.67.06V7.84H14.14c-.81,0-2.26,0-4-.06L4.8,7.57l2,1.94c1.51,0,2.92,0,3.35-.11,2.1-.05,3.51-.1,4-.1h8.32c-5.13,5.5-11.29,9.82-21,14.79-.81.43-1.08.65-1.08,1A.54.54,0,0,0,.91,25.6Z"/><path class="cls-1" d="M81.75,9C69.66,9,59.88,17.72,59.88,28.52,59.88,33,61.61,37,64,38a1.75,1.75,0,0,1,1,.87c.65.86,1,1.19,1.35,1.19,1.14,0,2.86-1.79,5.13-5.3C74.57,29.92,77,24.69,80.4,15.56c.92-.76,1.14-1,1.14-1.46,0-.76-1.62-2.32-3.46-3.29a17,17,0,0,1,2.7-.22A21.05,21.05,0,0,1,90.39,13,12.59,12.59,0,0,1,97.2,24.31c0,5.4-2.65,9.83-7.67,13A41.34,41.34,0,0,1,80.67,41c-1,.27-1.24.49-1.24.87a.51.51,0,0,0,.54.54c1.57,0,7.34-1.78,10.1-3.13,6.42-3.14,10.42-8.64,10.42-14.48C100.49,15.83,92.39,9,81.75,9ZM73.17,26.58C70.41,33,68,36.73,66.42,36.73a2.8,2.8,0,0,1-1.89-1.3c-1.41-1.78-2.06-4.05-2.06-7.29a16.25,16.25,0,0,1,6.81-13.66,17.7,17.7,0,0,1,7.18-3.4l.32.32a2.22,2.22,0,0,1,.76,1.78C77.54,15,75.81,20.31,73.17,26.58Z"/><path class="cls-1" d="M157.78,9.89l-5-4.05-1.51,2H134.83V3.57l1.79-.92a.56.56,0,0,0,.27-.48.57.57,0,0,0-.49-.54L131.65.82v7h-15a16.43,16.43,0,0,0-.59-3l-.71.16c-.16,4-.91,6-2.86,8.16a3.45,3.45,0,0,0-1.19,2.27A1.58,1.58,0,0,0,113.07,17c2.11,0,3.57-3,3.73-7.66h10c-1.08,8.85-6.64,15.39-16.09,18.9-.92.32-1.08.43-1.08.75a.38.38,0,0,0,.38.43,22.76,22.76,0,0,0,3.35-.91,27.4,27.4,0,0,0,8.15-4.38c3.94-3.13,6.64-7.34,8.26-13.07l1-.21a.44.44,0,0,0,.27-.43.65.65,0,0,0-.27-.49l-.65-.59h7.24V21.66c0,1.84.32,2.38,1.45,2.76a14.84,14.84,0,0,0,4.05.43c9.45,0,12.86-.54,12.86-2.05,0-.27-.11-.44-.54-.76-.76-.65-1-1-1-1.4l.06-.65.43-3.94-.7-.11-1.3,3.61c-.65,1.79-1.08,2.22-2.37,2.44a39.36,39.36,0,0,1-5.73.32c-4.21,0-4.7-.11-4.7-1.13V9.3h11.83a58.07,58.07,0,0,1-2.48,6.1l.64.54c2.22-2.27,2.54-2.6,4.65-4.92l2.91.06.11.05.11-.05c.32-.16.43-.33.43-.54A.82.82,0,0,0,157.78,9.89Z"/><path class="cls-1" d="M157,45.21,153,41.91l-3.89,3.4H134.78V33.16h16.15a.76.76,0,0,0,.75-.75,1.18,1.18,0,0,0-.54-1l-3.45-2.81-3.14,3H123.71c-2.16,0-4.1,0-9.34-.21l1.73,1.94c3.83-.16,5.45-.22,7.72-.22h8V45.31H120.47c-4,0-5.62-.05-10.75-.32l1.79,2c3.88-.22,4.91-.27,9-.27h36.34c.27,0,.54-.33.54-.76A1,1,0,0,0,157,45.21Z"/><path class="cls-1" d="M207.68,11.51l-3.13-2-1.41,1.73H188.89V4.06l1.62-.71c.59-.26.81-.48.81-.91s-.33-.76-1.08-.87L186,1V11.24h-14l-3.24-2.05V31.6c0,1,.11,1.19.6,1.19.86,0,2.43-1,2.43-1.46V28.9H186V49c0,.43.11.59.38.59a5,5,0,0,0,1.89-.81,1.05,1.05,0,0,0,.65-1.08V28.9h15v2.43c0,.32.27.48.7.48,1.19,0,2.27-.7,2.27-1.56V13.56l1.08-.32c.54-.16.75-.33.75-.7S208.54,12.05,207.68,11.51ZM186,27.44H171.72V12.7H186Zm17.88,0h-15V12.7h15Z"/><path class="cls-1" d="M263.08,11.4l-3,3.3h-9.18C252,11.24,253.09,7.84,254,4.43l1.41-.37c.75-.17,1-.38,1-.81s-.32-.65-1-.87l-4.27-1.24a85,85,0,0,1-3.94,16.69l-3.73-3.19-2.54,2.81h-3.72V10.21h8.42c.65,0,.92-.21.92-.64a1,1,0,0,0-.54-.81l-3.46-2.6-2.1,2.65h-3.24V3.19l.86-.48c.49-.22.7-.49.7-.81s-.32-.7-.81-.76L234.73.82v8h-6.64V3.35L229,3c.64-.27.86-.54.86-.86s-.27-.6-.86-.76L225.5.82v8c-3.29,0-3.83-.05-7.61-.22l1.67,1.79c2.65-.11,3.08-.17,5.94-.17v7.24h-1.89c-2.32,0-3.56,0-7.13-.16l1.73,1.78c5.13-.11,6.8-.16,8.48-.16h20.14c-1.73,3.56-2.59,5.24-3.4,6.75-1.62,2.7-1.62,2.7-1.62,2.91a.43.43,0,0,0,.43.44c.38,0,2.11-2.06,3.51-4.32,1-1.68,1.78-2.87,2.21-3.57l1,4.21c.27,1.25.32,1.35.59,2.38a57.94,57.94,0,0,0,2.54,6.75,35.67,35.67,0,0,1-11.34,12.15c-1.94,1.35-1.94,1.35-1.94,1.67a.48.48,0,0,0,.48.49,18.62,18.62,0,0,0,4.7-2.65,39.65,39.65,0,0,0,9.45-9.34,46.65,46.65,0,0,0,10,11.83,9.26,9.26,0,0,1,3-2.59c-6.81-5.19-8.05-6.43-11.72-11.51,2.54-4.37,4.21-9.12,6.26-18.36h5.13c.6,0,1-.32,1-.86a1.29,1.29,0,0,0-.48-.86Zm-28.35,6h-6.58V10.21h6.58ZM253.36,32.3a39.67,39.67,0,0,1-3.4-8.59c-.65-2.21-.75-2.64-1.19-4.05l1.57-3.51h7.88A57.88,57.88,0,0,1,253.36,32.3Z"/><path class="cls-1" d="M240.19,25.33l.92-.48c.37-.16.59-.38.59-.6a1.17,1.17,0,0,0-.59-.86l-2.87-1.73-1,1.46H226.74l-3.08-1.62V48.77a.48.48,0,0,0,.54.49c.87,0,2.11-1,2.11-1.73V36.67H237.6v7c0,1-1.14,1.62-2.92,1.62a3,3,0,0,1-.54-.05L231.55,45l-.06.87,2.11.75a1.88,1.88,0,0,1,.92.44,3.5,3.5,0,0,1,.54.91c.21.38.38.54.7.54a5.85,5.85,0,0,0,2.59-1c1.35-1,1.84-2.05,1.84-4.05Zm-2.59,9.89H226.31V30.68H237.6Zm0-6H226.31V24.58H237.6Z"/><path class="cls-1" d="M310.77,33.49l-3.24-3c-7.19,9.78-17.72,15.61-32.24,17.93-1.14.16-1.46.33-1.46.76s.38.54.92.54a40,40,0,0,0,6.75-1,53.39,53.39,0,0,0,17-6.21c3.29-2,4.26-2.75,10.15-8l1.84.38.1,0c.22.06.6-.27.6-.59A1.1,1.1,0,0,0,310.77,33.49Z"/><path class="cls-1" d="M319.89,18.91l-4-2.7-3.08,3.34H297.75V10H315c.32,0,.54-.38.54-.87A1.43,1.43,0,0,0,315,8.05L311,5.35l-2.76,3.19H297.75V3.73l2.05-.64a.8.8,0,0,0,.6-.71,1,1,0,0,0-.92-.86L294.67.66V19.55h-9.88V7.24l1.89-.65a.6.6,0,0,0,.49-.54c0-.37-.33-.64-.92-.8l-4.37-1V19.55H280l-3.89-.1c-.54,0-3.46-.11-5.46-.16l1.57,1.94C275.88,21.07,277,21,280,21h14.68V34.14c0,1-.81,1.51-2.48,1.51h-.32l-4.22-.33-.16.71,2.81,1c1,.38,1.51.7,1.73,1.14.65,1.29.65,1.29,1,1.29a6.32,6.32,0,0,0,2.7-1.13,3.28,3.28,0,0,0,2-3V21h22.09a1,1,0,0,0,.86-1A1.42,1.42,0,0,0,319.89,18.91Z"/><path class="cls-1" d="M285.12,26.58l2.21.05c.27,0,.54-.38.54-.7a.8.8,0,0,0-.43-.7l-4.21-2.16c-3.89,7.45-6.38,11-10.75,15.06-1.3,1.19-1.62,1.57-1.62,1.78a.48.48,0,0,0,.43.49c.16,0,.33-.11.76-.38.05-.05.54-.43,1-.81C278,35.76,280.74,32.84,285.12,26.58Z"/><path class="cls-1" d="M315.25,29.38A26.12,26.12,0,0,0,305,25c-.27-.06-.75-.17-1.35-.33l-.32.87a26.27,26.27,0,0,1,11.82,8.85c2,2.81,2.16,2.92,2.81,2.92s1.41-1,1.41-2.11C319.41,33.49,317.68,31.11,315.25,29.38Z"/><path class="cls-1" d="M373.68,1.3,372.81.22a30.55,30.55,0,0,0-12,24.36v.32a30.55,30.55,0,0,0,12,24.36l.87-1.08a31.17,31.17,0,0,1-10-23.22v-.44A31.17,31.17,0,0,1,373.68,1.3Z"/><path class="cls-1" d="M421.41,7.57c.76.92,1.24,1.24,1.78,1.24a1.37,1.37,0,0,0,1.3-1.51c0-2.11-2.81-4.11-7.34-5.19l-.27-.1-.65.86A18.13,18.13,0,0,1,421.41,7.57Z"/><path class="cls-1" d="M415,11.24c1.19,1.84,1.4,2,2.27,2s1.4-.7,1.4-1.73c0-2.1-2.7-4.15-7.72-5.83l-.76.76A13.94,13.94,0,0,1,415,11.24Z"/><path class="cls-1" d="M397.92,13.83c1.14,1.3,1.51,1.57,2.22,1.57s1.29-.7,1.29-1.68c0-2.91-4.48-5.4-9.66-5.4h-1.46l-.06.92.22.06A13.3,13.3,0,0,1,397.92,13.83Z"/><path class="cls-1" d="M424.81,14.91a139.1,139.1,0,0,1-15.06,13.66c-6.27,4.86-14.37,9.78-16.15,9.78-1.08,0-2.81-1.84-3-3.19v-.27h-.92a1.33,1.33,0,0,0-.05.38v.49A5.41,5.41,0,0,0,391.23,40c1.56,1.67,3.24,2.81,4,2.81.33,0,.65-.22,1.19-.81a5.87,5.87,0,0,1,2-1.57c7.13-4.59,8-5.29,12.47-9.34a186.57,186.57,0,0,0,14.53-14.74l.27-.27c0-.06.16-.22.27-.38l-1-1Z"/><path class="cls-1" d="M392.74,24.9c.65,1,1,1.24,1.62,1.24a1.54,1.54,0,0,0,1.51-1.51c0-3.08-4.54-5.83-10.1-6.15h-.65l-.16.81.22.1C389.61,21.18,390.58,21.88,392.74,24.9Z"/><path class="cls-1" d="M451.49,18.37a9.3,9.3,0,0,1,4.59,5c.65,1.56.92,1.89,1.62,1.89a1.77,1.77,0,0,0,1.57-1.89,4.87,4.87,0,0,0-2.11-3.62,21.83,21.83,0,0,0-4.91-2.43l-.38-.11a2.37,2.37,0,0,1-.49-.11L451,18.15l.22.06Z"/><path class="cls-1" d="M471.47,19a11.79,11.79,0,0,0-3.78-1.4c-.38,0-.54.16-.65.65l.11.05.27.16c1,.7,1.24,1,1.24,1.62,0,1.62-2.37,6.54-5,10.42-4.26,6.21-9.66,10.37-17.6,13.5-1.3.54-1.4.6-1.4,1a.7.7,0,0,0,.64.7,41.55,41.55,0,0,0,7.19-2.64,38.52,38.52,0,0,0,12.74-9.94c1.94-2.43,3.08-4.32,5.72-9.67l.49-.91c.22-.27.33-.33.81-.33.76.06,1.19-.21,1.19-.7A4.71,4.71,0,0,0,471.47,19Z"/><path class="cls-1" d="M447.44,26.9c.59,1.67,1,2.11,1.78,2.11a1.79,1.79,0,0,0,1.57-2c0-2.43-2.38-4.7-6.75-6.42l-.22-.06-.27-.11-.48.81C445.6,23.12,446.52,24.25,447.44,26.9Z"/><path class="cls-1" d="M530,2.22a5.21,5.21,0,1,0,5.13,5.19A5.18,5.18,0,0,0,530,2.22ZM530,11.08a3.65,3.65,0,1,1,3.62-3.67A3.64,3.64,0,0,1,530,11.08Z"/><path class="cls-1" d="M526.6,13l-3.51-2.76-1.24,1.41-1.24.05-4.05.11c-1.84.05-2.59.05-4.1.16-.92.06-3.35.27-7.19.6l-2.75.21-.76.05a22.83,22.83,0,0,1-3.13.28A4.26,4.26,0,0,1,495,11.35l-.65.11a2.8,2.8,0,0,0-.16.8,3.13,3.13,0,0,0,.43,1.19,4.28,4.28,0,0,0,1.84,1.84A7.88,7.88,0,0,1,498,16.48c.49.32.71.48,1,.48s.54-.05,1.24-.7c1-.86,1.95-1.08,6.21-1.56a113.89,113.89,0,0,1,12.21-.81h3.18c-.65,4.59-3.78,11.39-7.23,15.55-3.46,4.48-9.13,8.53-15.88,11.28-1.13.49-1.62.92-1.62,1.46a.72.72,0,0,0,.76.65c1.83,0,9.23-3.83,13.82-7.13,7-5.07,11.29-11.77,13.39-21l1.08.11h.17c.64,0,1-.27,1-.7A1.64,1.64,0,0,0,526.6,13Z"/><path class="cls-1" d="M554.85,10.7c1.29,1.08,1.67,1.35,1.89,1.35a1.86,1.86,0,0,0,.75-.38c1.35-.81,8.64-1.62,15.12-1.62.81,0,2,0,3.3.11a11.72,11.72,0,0,0,1.18.05c1.25,0,2.06-.37,2.06-1A2,2,0,0,0,578.34,8a8.06,8.06,0,0,0-3.24-1.46,1.87,1.87,0,0,0-1.08.54c-.33.27-.49.49-.6.49a2.28,2.28,0,0,1-.91.16l-2.06.16-4.32.22c-3.08.16-5.67.32-7.83.48a18.91,18.91,0,0,1-2.1.17c-1.08,0-1.68-.44-2.38-1.68h-.22c-.43,0-.59.11-.59.6C553,8.92,553.33,9.46,554.85,10.7Z"/><path class="cls-1" d="M581.52,18.26,578,16.1l-1.08,1.3c-3.78.16-8.8.59-16,1.35-3.56.37-6.75.64-7.56.64-1.13,0-1.89-.48-3.24-2.16-.54,0-.75.17-.75.54a4.07,4.07,0,0,0,1.29,2.7c1.62,1.62,2.49,2.33,3,2.33a2,2,0,0,0,.71-.27c1-1.14,14-2.76,22.19-2.87a43.85,43.85,0,0,1-21.33,24.79c-1,.49-1.4.81-1.4,1.3a.53.53,0,0,0,.54.48c1.78,0,8.15-3.62,11.88-6.75a51.43,51.43,0,0,0,14.09-19.11l1-.06c.76,0,1.19-.32,1.19-.81A1.53,1.53,0,0,0,581.52,18.26Z"/><path class="cls-1" d="M631.58,6.59a3.44,3.44,0,0,0-3.08-1.34c-.59,0-.65,0-1.08.54C628.83,6.76,629,7,629,7.46c0,1-3.45,5-8.58,9.83a94.09,94.09,0,0,1-10.16,8,97,97,0,0,1-9.55,5.78c-2,1-2.16,1.13-2.16,1.56a.59.59,0,0,0,.59.54c.65,0,3.51-1.29,7.29-3.34A92.45,92.45,0,0,0,620,21.12c0,1.51,0,3,0,3.51,0,1.35,0,2.7,0,5.62v7.5a15.1,15.1,0,0,1-.27,3.84,6.12,6.12,0,0,0-.16,1.13,3,3,0,0,0,2.16,2.43,1.16,1.16,0,0,0,1.19-1.29c0-.33,0-.81-.05-1.35s-.11-4.32-.11-5.4V33c.05-5.35.05-8.32.05-8.86.06-1,.06-1,.11-2.59l.76-.38c.64-.32.75-.43.75-.81a1,1,0,0,0-.7-.81l-1.3-.49c1.52-1.24,1.84-1.56,7.24-6.69,1.84-1.89,1.89-1.94,3.08-2,.92.06,1.35-.16,1.35-.59C634.12,9.08,634,8.86,631.58,6.59Z"/><path class="cls-1" d="M695.41,14.1l-.38.33c-8.85,8.64-13.66,12.69-20.52,17.22-4.91,3.3-10.91,6.59-11.93,6.59a3.7,3.7,0,0,1-2.33-1.62,9.53,9.53,0,0,1-1.18-2.54c-.65.06-.87.38-.87,1.51,0,1.73,1.24,3.68,3.46,5.4a8.36,8.36,0,0,0,2.54,1.62c.27,0,.54-.21.81-.81a3.69,3.69,0,0,1,1.62-1.51c11.07-6.64,23.7-17.44,29.54-25.22l.32-.43-.92-.75Z"/><path class="cls-1" d="M664.3,18.26c.76,1.62,1.14,2,2.06,2a2,2,0,0,0,1.89-2.11c0-3.13-4-6.59-9.35-8.1l-.32-.05-.43-.16-.54.8C660.9,12.59,662.52,14.43,664.3,18.26Z"/><path class="cls-1" d="M704.8.22l-.86,1.08a31.17,31.17,0,0,1,10,23.22V25a31.17,31.17,0,0,1-10,23.22l.86,1.08A30.56,30.56,0,0,0,716.85,24.9v-.32A30.56,30.56,0,0,0,704.8.22Z"/></g></g></svg>