<?xml version="1.0" encoding="utf-8"?>
<!-- Generator: Adobe Illustrator 24.1.0, SVG Export Plug-In . SVG Version: 6.00 Build 0)  -->
<svg version="1.1" id="Layer_1" xmlns="http://www.w3.org/2000/svg" xmlns:xlink="http://www.w3.org/1999/xlink" x="0px" y="0px"
	 viewBox="0 0 361 95" style="enable-background:new 0 0 361 95;" xml:space="preserve">
<style type="text/css">
	.st0{fill-rule:evenodd;clip-rule:evenodd;fill:#FFFFFF;}
</style>
<path id="ジップライン" class="st0" d="M24.3,40.5c-1.6,0-2.2,0.2-2.2,0.5c0,0.3,0.2,0.4,1.1,0.7c3.3,1.2,5,2.4,8.6,6.5
	c0.8,0.9,1.2,1.2,2,1.2c1.5,0,2.6-1.1,2.7-2.6c0-1.8-2.2-4.1-5-5.2C29.2,40.7,26.8,40.4,24.3,40.5z M35.5,68.3
	c11-6.5,17.7-11.8,23.8-18.8c3.1-3.6,8.1-10.5,8.1-11.2c0-0.2-0.2-0.4-0.4-0.4c0,0,0,0,0,0c-0.4,0.1-0.7,0.3-0.9,0.7
	c-1.4,1.5-4.9,4.9-7.1,7c-5.3,5-11.2,9.4-17.5,13c-4.4,2.5-8.7,4.6-9.5,4.6c-0.8-0.2-1.6-0.7-2.1-1.5c-0.5-0.7-0.9-1.6-1-2.4
	c-0.2-0.1-0.4-0.1-0.6-0.1c-0.4,0-0.8,1.3-0.8,2.8c0,1.6,0.4,2.3,2.6,4.6c2.1,2.1,3.1,3,3.8,3C34.7,69.5,35.3,69,35.5,68.3
	L35.5,68.3z M29,27.8c-1.2,0-1.5,0.1-1.5,0.4c0,0.2,0.1,0.3,0.4,0.4c3,1,5.1,2.3,8.5,5.4c3.1,3,3.1,3,4.1,3c1.2,0,2.2-0.9,2.2-2.1
	c0,0,0-0.1,0-0.1c0-2.6-2.6-5.2-6.2-6.1C34.1,28.1,31.6,27.8,29,27.8z M50.2,27.7c-0.2,0-0.4,0.1-0.4,0.3c0,0,0,0,0,0.1
	c0.2,0.4,0.5,0.7,0.9,1c1.9,1.5,2.6,2.4,4.3,5.4c0.3,0.9,1.1,1.5,2,1.5c1.1,0,2-0.9,2.1-2c0-2.1-2-4-5.5-5.3
	C52.4,28.2,51.3,27.9,50.2,27.7z M55.5,24.4c-0.1,0-0.3,0.1-0.3,0.2c0,0,0,0,0,0.1c0,0.3,0.1,0.4,0.9,0.8c1.7,0.9,3.1,2.2,4.2,3.8
	c1.5,2.2,1.9,2.4,2.8,2.4c1.1,0,1.9-0.9,1.9-1.9c0,0,0-0.1,0-0.1c0-1.9-2-3.6-5.5-4.6C58.2,24.7,56.8,24.4,55.5,24.4L55.5,24.4z
	 M80.1,40.3c-0.2,0-0.3,0.1-0.4,0.2c0.1,0.3,0.3,0.4,0.5,0.5c2.4,1.5,3.9,3.5,5.6,7c1,2.1,1.7,2.9,2.6,2.9c1.4,0,2.3-1,2.3-2.6
	c0-1.7-1.6-3.9-3.8-5.3C84.9,41.7,81.4,40.3,80.1,40.3z M113.9,44c0.5,0.1,1-0.3,1.1-0.9c-0.2-0.8-0.7-1.5-1.4-2.1
	c-2.3-2.2-3.4-3-4.2-3c-0.5,0-0.9,0.1-1.4,0.3c-0.3,0.1-0.4,0.3-0.4,0.6c0.9,0.3,1.5,1.1,1.7,2.1c-0.7,2.6-1.7,5.1-2.9,7.5
	c-2.5,5.5-6.1,10.4-10.5,14.5c-3.3,2.8-6.9,5.1-10.8,7.1c-1.4,0.6-1.5,0.7-1.5,1c0,0.2,0.2,0.3,0.4,0.3c1.6,0,7.9-2.6,11.7-4.8
	c6.3-3.7,11.2-9.2,15.6-17.7c0.6-1.2,1.2-2.3,1.8-3.5C113.3,45.2,113.6,44.8,113.9,44L113.9,44z M89.7,37.3c-0.2,0-0.3,0.1-0.3,0.2
	c0.1,0.2,0.3,0.4,0.5,0.4c2.7,1.6,4.8,4.2,5.9,7.1c1,2.2,1.4,2.6,2.6,2.6s2-0.9,2-2.4c0-1.8-1.4-3.9-3.3-5.3
	C95.3,38.9,91.2,37.3,89.7,37.3L89.7,37.3z M168.9,36.4c0.6-0.1,1.1-0.5,1.3-1c0-0.8-1.9-2.6-5.9-5.9l-0.9,0.7l-1.6,0.2l-4.2,0.4
	l-1.8,0.2c-1.5,0.2-5,0.6-7.5,0.9l-4.7,0.5c-2,0.3-4.1,0.5-6.2,0.6c-2.8,0-3.7-0.3-4.8-1.6c-0.5,0.3-0.9,0.9-0.9,1.5
	c0,0.6,0,0.6,2.8,3.6c1.1,1.2,2.2,1.9,2.8,1.9c0.3,0,0.6-0.1,0.8-0.3l0.4-0.5c0.2-0.2,0.4-0.4,0.7-0.5c0.3-0.1,1.4-0.4,3.4-0.8
	c3.7-0.8,10-1.7,13.6-2L160,34c0.3,0,1.1-0.1,1.9-0.1c-2.3,7-5.8,13.6-10.3,19.5c-4.6,6.2-8.7,9.8-16.4,14.5c-1.4,0.8-1.5,1-1.5,1.3
	c0,0.2,0.2,0.3,0.4,0.3c0,0,0,0,0,0c0.9-0.2,1.8-0.5,2.6-0.9c4.1-1.7,8-3.9,11.7-6.6c6.5-4.8,12-12,19.1-25.2L168.9,36.4z
	 M172.5,22.9c-3.5-0.1-6.3,3.1-5.6,6.7c0.4,2.1,2.1,3.9,4.2,4.4c3.6,0.8,6.9-1.9,6.9-5.4c0,0,0-0.1,0-0.1
	C178,25.4,175.6,22.9,172.5,22.9L172.5,22.9z M172.2,24.4c2.2-0.1,4.1,1.7,4.2,4c0,0,0,0,0,0c0,2.3-1.7,4.1-4,4.2
	c-2.3,0-4.1-1.7-4.2-4S169.9,24.5,172.2,24.4C172.2,24.4,172.2,24.4,172.2,24.4L172.2,24.4z M225.1,43.1c0.6,0,1-0.4,1.1-1
	c0-0.9-2.3-2.6-5.9-4.4l-1.1,1.3c-1,0.1-1.6,0.2-1.8,0.2l-5.3,0.3l-13.3,1.1c-6.9,0.6-6.9,0.6-8.4,0.6c-2.4,0-3.3-0.5-4.1-2.2
	c-0.7,0.1-1.2,0.7-1.1,1.4c0,0,0,0.1,0,0.1c0,1.3,0.4,1.9,2.8,3.9c2.5,2.2,2.8,2.4,3.2,2.4c0.2-0.1,0.5-0.2,0.6-0.4
	c0.4-0.6,1.8-1,7.3-1.8c5.6-0.9,11.2-1.4,16.8-1.5h1.1C211.3,55.5,204,64,193,70.9c-0.3,0.1-0.6,0.4-0.6,0.7c0,0.2,0.2,0.3,0.4,0.3
	c0,0,0,0,0,0c1.3-0.3,2.6-0.8,3.8-1.4c5.5-2.5,10.6-5.9,14.9-10.2c3.3-3.4,6.3-7.2,8.8-11.2c0.8-1.2,1.6-2.5,2.4-3.8
	c0.2-0.3,0.6-0.9,1.1-1.8L225.1,43.1z M214.7,27c-0.8,0.1-1.6,0.2-1.8,0.2c-0.4,0.1-2.1,0.2-4.3,0.4c-1.5,0.2-2.8,0.3-4,0.4
	c-7.5,0.8-9,0.9-10.3,0.9c-1.4-0.1-2.7-0.9-3.3-2.2c-0.9,0-1.3,0.6-1.3,1.7c0,0.7,0.9,1.7,3.1,3.5c0.7,0.6,1.5,1,2.4,1.3
	c0.2,0,0.5-0.1,0.7-0.2c2.3-1,12.7-1.9,21-1.9c0.4,0,0.8,0,1.2,0.1c0.8,0.1,1.2,0.1,1.5,0.1c1.1-0.1,2-0.9,2.2-1.9
	c0-1-3.1-2.7-5.9-3.2L214.7,27z M264,48.1v-2.6l1-0.5c0.4,0,0.7-0.4,0.7-0.8c0-0.4-0.4-0.7-0.8-0.7l0,0l-2.4-1.3
	c3.8-3.5,7.4-7.3,10.7-11.3c2.5-0.8,2.5-0.8,2.5-1.3c0-0.7-0.5-1.2-2.8-3c-2.3-1.8-3.4-2.3-4.5-2.3c-0.7,0-1.3,0.4-1.7,0.9
	c0.8,0.5,1.5,1.2,1.8,2.1c0,0.6-0.5,1.6-1.7,3.1c-3.1,4.1-6.5,8-10.3,11.5c-6,5.5-12.6,10.1-19.8,13.9c-0.6,0.3-0.8,0.5-0.8,0.8
	c0,0.3,0.2,0.5,0.5,0.4c0,0,0,0,0.1,0c2-0.5,4-1.3,5.9-2.2c6-2.5,11.7-5.8,17-9.7c0.1,4.6,0.1,5,0.1,7.4c0.1,2.1,0.1,3.6,0.1,4.3
	c0.1,3.1,0,6.3-0.4,9.4c-0.1,0.6-0.1,1.1-0.2,1.7c0,1.5,2,3.2,3.8,3.2c0.8,0,1.4-0.7,1.4-1.8c0-0.5-0.1-1.7-0.1-3.6
	c0-2.4,0-6.1-0.1-11L264,48.1L264,48.1z M294.8,30.1c-0.5,0-0.9,0.2-0.9,0.4c0,0.2,0.2,0.3,0.9,0.6c3.3,1.6,6.1,4.1,7.9,7.3
	c1.3,2.2,1.4,2.3,2.1,2.9c0.5,0.4,1.1,0.7,1.8,0.8c1.4,0.1,2.7-1,2.8-2.4c0-0.1,0-0.3,0-0.4c0-2.8-2.4-5.7-6-7.3
	C300.7,30.8,297.8,30.1,294.8,30.1L294.8,30.1z M297.5,58.1c-0.9,0.3-1.4,1.3-1.4,2.8c0,1.5,0.8,2.4,3.9,4.9c2.6,2,3.3,2.4,4.5,2.4
	c0.6,0,0.8-0.1,1-1.1c0.1-0.1,0.1-0.3,0.2-0.6c3.9-2.3,7.7-4.8,11.2-7.6c4.7-3.5,9-7.5,12.8-12c4.5-5,7.6-9,7.6-9.8
	c0-0.2-0.1-0.4-0.3-0.4c-0.4,0.1-0.8,0.3-1.1,0.7c-7.7,7.4-17.2,15-24.6,19.5c-4.2,2.5-8.7,4.6-9.9,4.6c-0.9-0.1-1.8-0.4-2.5-1
	C298.3,60,298.3,59.9,297.5,58.1L297.5,58.1z"/>
</svg>
