<svg xmlns="http://www.w3.org/2000/svg" width="475" height="32.91" viewBox="0 0 475 32.91">
  <defs>
    <style>
      .cls-1 {
        fill: #333;
        fill-rule: evenodd;
      }
    </style>
  </defs>
  <path id="_2つのジップラインの比較" data-name="2つのジップラインの比較" class="cls-1" d="M502.944,3136.42h13.7l1.979-6.26-1.079-.37c-1.871,3.57-2.482,4.07-5.036,4.07H505.03c1.8-2.91,3.417-4.75,7.877-9,3.165-3.09,3.165-3.09,3.884-4.39a7.3,7.3,0,0,0,1.043-3.75c0-3.7-2.877-6.44-6.833-6.44s-7.41,2.95-7.41,6.34a2.6,2.6,0,0,0,2.3,2.8,1.949,1.949,0,0,0,1.943-2.01,2.776,2.776,0,0,0-.828-1.91,2.161,2.161,0,0,1-.683-1.22,2.9,2.9,0,0,1,.935-1.66,5.309,5.309,0,0,1,3.273-1.12c2.482,0,3.956,1.88,3.956,5.08,0,2.88-.971,4.93-4.1,8.5a65.584,65.584,0,0,0-7.445,9.58v1.76Zm45.825-22.4c-4.208,0-8.74,1.52-14.279,4.72-2.014,1.19-2.482,1.37-3.345,1.37a2.377,2.377,0,0,1-2.446-1.91c-0.036-.14-0.072-0.18-0.18-0.18-0.251,0-.323.14-0.323,0.61a4.236,4.236,0,0,0,.683,2.7,4.688,4.688,0,0,0,3.309,1.77c0.683,0,1.043-.18,2.014-1.08a45.049,45.049,0,0,1,4.748-3.46,20.378,20.378,0,0,1,9.747-3.13c4.064,0,6.618,2.59,6.618,6.66,0,5.51-5.18,9.79-13.632,11.27-0.575.07-.683,0.11-0.683,0.22a0.708,0.708,0,0,0,.755.5,39.581,39.581,0,0,0,8.488-1.91c5.323-2.05,8.2-5.58,8.2-10.04C558.444,3117.37,554.451,3114.02,548.769,3114.02Zm38.417-.68a9.262,9.262,0,0,1,5.575,1.87c2.05,1.55,3.093,4,3.093,7.31a13.139,13.139,0,0,1-4.1,10.05,16.269,16.269,0,0,1-6.8,3.56c-0.5.15-.612,0.18-0.612,0.29a0.454,0.454,0,0,0,.468.32,21.861,21.861,0,0,0,4.927-1.18c5.683-2.06,9.064-6.7,9.064-12.43,0-6.41-4.964-10.87-12.085-10.87-8.057,0-14.675,6.26-14.675,13.9a8.418,8.418,0,0,0,1.871,5.69,3.228,3.228,0,0,0,2.481,1.37c1.871,0,3.813-1.34,5.9-4.04a19.774,19.774,0,0,0,4.388-11.45,33.638,33.638,0,0,0-.5-4.35Zm-2.373.36a7.118,7.118,0,0,1,.467,2.48,22.742,22.742,0,0,1-2.517,8.5c-1.763,3.35-4.64,6.27-6.187,6.27-1.366,0-2.374-2.02-2.374-4.68a12.809,12.809,0,0,1,10.539-12.75Zm53.416-5.65a1.474,1.474,0,0,0-1.115.28c0,0.08.072,0.15,0.251,0.18a6.6,6.6,0,0,1,3.525,2.99,1.043,1.043,0,0,0,1.007.72,1.28,1.28,0,0,0,1.187-1.22C643.084,3109.52,640.674,3108.05,638.229,3108.05Zm-4.065,1.62a1.153,1.153,0,0,0-1.007.25c0,0.11.108,0.14,0.36,0.21a6.488,6.488,0,0,1,3.345,2.89,0.971,0.971,0,0,0,1.007.72,1.248,1.248,0,0,0,1.151-1.19C639.02,3111.04,636.682,3109.67,634.164,3109.67Zm-14.6,2.91c-1.007,0-1.691.18-1.691,0.47,0,0.15.108,0.22,0.36,0.22a7.881,7.881,0,0,1,5.287,4.07c0.4,0.79.612,0.97,1.223,0.97a1.62,1.62,0,0,0,1.547-1.69c0-1.16-.648-2.06-2.014-2.88A10.4,10.4,0,0,0,619.562,3112.58Zm0.647,22.51c0.072-.07.576-0.36,1.763-1.05a52.728,52.728,0,0,0,15.5-13.21c1.727-2.31,3.525-5.33,3.525-6.01a0.425,0.425,0,0,0-.252-0.4,0.968,0.968,0,0,0-.575.58,40.3,40.3,0,0,1-3.849,4.78,72.81,72.81,0,0,1-11.041,9.51c-2.77,1.8-4.928,2.77-6.151,2.77a2.688,2.688,0,0,1-2.589-1.36c-0.288-.4-0.324-0.47-0.468-0.47q-0.324,0-.324.54a3.354,3.354,0,0,0,.54,2.16c0.827,1.37,2.338,2.52,3.237,2.52A0.811,0.811,0,0,0,620.209,3135.09Zm-4.5-15.85a1.518,1.518,0,0,0-1.294.36,0.369,0.369,0,0,0,.323.26,8.24,8.24,0,0,1,4.532,3.99,1.27,1.27,0,0,0,1.223.87,1.527,1.527,0,0,0,1.439-1.48c0-1.08-.612-1.91-1.979-2.81A9.091,9.091,0,0,0,615.713,3119.24Zm48.381-1.36a0.31,0.31,0,0,0-.36.21,0.29,0.29,0,0,0,.216.25c1.295,0.58,2.877,3.1,3.2,5.08a0.906,0.906,0,0,0,.935.83,1.446,1.446,0,0,0,1.367-1.51C669.453,3120.61,666.4,3117.88,664.094,3117.88Zm13.7,3.89c0.756-.58.9-0.72,0.9-1.05s-0.4-.83-1.583-2.05a2.723,2.723,0,0,0-2.086-1.05c-0.612,0-1.043.15-1.043,0.4,0,0.11.072,0.18,0.324,0.25a1.486,1.486,0,0,1,.971,1.41,13.722,13.722,0,0,1-.576,2.63,21.849,21.849,0,0,1-2.23,4.5,31.382,31.382,0,0,1-8.236,8.03,26.008,26.008,0,0,1-5.4,2.8c-0.144.04-.216,0.08-0.216,0.18a0.5,0.5,0,0,0,.432.4,1.967,1.967,0,0,0,.359-0.07,5.371,5.371,0,0,1,.72-0.18C666.971,3136.46,674.56,3129.47,677.8,3121.77Zm-19.422-1.01c-0.287,0-.467.11-0.467,0.25s0.072,0.18.467,0.36c1.115,0.43,2.626,2.45,3.093,4.1,0.288,1.01.5,1.3,1.151,1.3a1.341,1.341,0,0,0,1.259-1.55,3.8,3.8,0,0,0-1.87-2.95A6.972,6.972,0,0,0,658.375,3120.76Zm62.12-3.42c0.684-.4.684-0.4,0.791-0.47a0.672,0.672,0,0,0,.576-0.54,1.293,1.293,0,0,0-.791-0.94c-0.072-.07-0.432-0.36-0.828-0.68-1.546-1.3-1.87-1.48-2.373-1.48a2.044,2.044,0,0,0-1.151.51,6.543,6.543,0,0,1-3.093.93c-3.417.47-8.165,0.97-9.532,0.97-1.33,0-2.589-.57-2.805-1.26-0.108-.25-0.144-0.32-0.252-0.32-0.252,0-.36.32-0.36,1.01a2.722,2.722,0,0,0,.828,1.91,4.819,4.819,0,0,0,2.05,1.08,2.023,2.023,0,0,0,.611-0.18,46.743,46.743,0,0,1,11.977-2.09,0.924,0.924,0,0,1,1.079.9,13.923,13.923,0,0,1-1.582,4.36,30.779,30.779,0,0,1-7.23,8.78,38.009,38.009,0,0,1-9.711,5.37c-0.431.14-.539,0.21-0.539,0.36a0.518,0.518,0,0,0,.5.36,1.67,1.67,0,0,0,.324-0.08,2.261,2.261,0,0,0,.468-0.1,29.8,29.8,0,0,0,9.675-4.14C713.877,3128.53,716.575,3125.15,720.5,3117.34Zm3.237-9.8a3.46,3.46,0,1,0,3.381,3.46A3.441,3.441,0,0,0,723.732,3107.54Zm-0.108,1.19a2.27,2.27,0,1,1-2.23,2.27A2.259,2.259,0,0,1,723.624,3108.73Zm20.83,2.13a0.186,0.186,0,0,0-.144.18,6.1,6.1,0,0,0,.72,1.54,2.867,2.867,0,0,0,2.733,1.34,35.336,35.336,0,0,0,5.431-.65c2.806-.51,2.878-0.51,4.712-0.72,1.331-.15,1.654-0.29,1.654-0.72,0-.36-0.251-0.61-1.007-1.01a4.067,4.067,0,0,0-1.762-.72,2.346,2.346,0,0,0-1.115.32,27.211,27.211,0,0,1-8.452,1.48c-1.331,0-2.158-.25-2.518-0.79C744.562,3110.89,744.526,3110.86,744.454,3110.86Zm17.264,9.65c1.151-.87,1.3-1.01,1.3-1.34,0-.54-2.589-2.59-3.273-2.59a2.166,2.166,0,0,0-.647.18,12.178,12.178,0,0,1-4.028,1.12c-0.54.07-2.266,0.25-5.18,0.57-4.352.43-4.352,0.43-4.927,0.43-1.4,0-2.77-.57-2.985-1.29-0.072-.22-0.108-0.25-0.216-0.25a0.372,0.372,0,0,0-.324.46,3.615,3.615,0,0,0,.935,2.38,4.157,4.157,0,0,0,2.05,1.26,1.3,1.3,0,0,0,.576-0.14,47.308,47.308,0,0,1,6.258-1.62,62.563,62.563,0,0,1,6.33-.83,0.942,0.942,0,0,1,1.151.93c0,0.73-.575,2.13-1.87,4.51a24.825,24.825,0,0,1-7.05,7.81,25.411,25.411,0,0,1-7.445,3.82,0.269,0.269,0,0,0-.287.25,0.519,0.519,0,0,0,.575.36c1.439,0,4.712-1.23,7.337-2.74C755.208,3130.73,758.05,3127.53,761.718,3120.51Zm32.807-.76a59.641,59.641,0,0,0,5-5.29,2.576,2.576,0,0,1,1.3-1.08,0.582,0.582,0,0,0,.431-0.54c0-.98-2.733-2.92-4.064-2.92a1.687,1.687,0,0,0-1.475.5c0,0.15.072,0.22,0.4,0.29a1.771,1.771,0,0,1,1.187,1.12c0,3.17-11.114,14.54-16.8,17.14-0.287.1-.359,0.18-0.359,0.28a0.381,0.381,0,0,0,.359.29,16.052,16.052,0,0,0,3.993-1.69,45.826,45.826,0,0,0,9.351-7.42,3.694,3.694,0,0,1,.432,2.13,114.906,114.906,0,0,1-.864,12.46,2.812,2.812,0,0,0-.107.68c0,0.83,1.258,1.76,2.337,1.76,0.54,0,.864-0.54.864-1.47,0-.29,0-0.72-0.036-1.19l-0.036-2.48v-4.11l-0.072-3.67a7.985,7.985,0,0,1,.323-2.88,1.233,1.233,0,0,0,.144-0.51c0-.36,0-0.36-1.834-1.19Zm35.829,13.18a54.456,54.456,0,0,0,8.56-5.91,55.416,55.416,0,0,0,7.7-7.78c1.8-2.19,3.38-4.64,3.38-5.22a0.29,0.29,0,0,0-.287-0.32,0.9,0.9,0,0,0-.612.58c-0.359.43-2.3,2.66-3.021,3.38a71.13,71.13,0,0,1-6.726,6.01c-5.215,4.14-9.567,6.85-11.042,6.85a2.554,2.554,0,0,1-2.158-1.84,0.294,0.294,0,0,0-.287-0.25,1.182,1.182,0,0,0-.432,1.22,2.657,2.657,0,0,0,.9,2.27,5.312,5.312,0,0,0,2.59,1.87A2.515,2.515,0,0,0,830.354,3132.93Zm-3.669-19.52c-1.043,0-1.69.18-1.69,0.43a0.369,0.369,0,0,0,.323.26,7.93,7.93,0,0,1,5.539,4.42,1.148,1.148,0,0,0,1.079.83,1.5,1.5,0,0,0,1.655-1.55C833.591,3115.61,830.138,3113.41,826.685,3113.41Zm52.589-.07a9.266,9.266,0,0,1,5.575,1.87c2.05,1.55,3.093,4,3.093,7.31a13.14,13.14,0,0,1-4.1,10.05,16.269,16.269,0,0,1-6.8,3.56c-0.5.15-.612,0.18-0.612,0.29a0.454,0.454,0,0,0,.468.32,21.861,21.861,0,0,0,4.927-1.18c5.683-2.06,9.064-6.7,9.064-12.43,0-6.41-4.963-10.87-12.085-10.87-8.056,0-14.674,6.26-14.674,13.9a8.418,8.418,0,0,0,1.87,5.69,3.229,3.229,0,0,0,2.482,1.37c1.87,0,3.812-1.34,5.9-4.04a19.767,19.767,0,0,0,4.388-11.45,33.757,33.757,0,0,0-.5-4.35Zm-2.374.36a7.1,7.1,0,0,1,.467,2.48,22.742,22.742,0,0,1-2.517,8.5c-1.763,3.35-4.64,6.27-6.187,6.27-1.366,0-2.373-2.02-2.373-4.68a12.809,12.809,0,0,1,10.538-12.75Zm28.311,24.2a1.188,1.188,0,0,0,.755.57,1.035,1.035,0,0,0,.828-0.61l0.251-.68c6.87-2.6,7.733-2.96,12.553-5.08l-0.18-.5c-5.107,1.33-6.51,1.65-9.567,2.3v-13.5h9.531a0.5,0.5,0,0,0,.36-0.51,0.7,0.7,0,0,0-.252-0.54l-2.554-2.19-2.05,2.37h-5.035v-9.22l1.295-.82a0.957,0.957,0,0,0,.5-0.69,0.614,0.614,0,0,0-.575-0.54l-3.813-.54v26.68c-1.654.36-2.086,0.44-4.352,0.76Zm18.235-28.31,0.791-.46a0.95,0.95,0,0,0,.612-0.76,0.839,0.839,0,0,0-.719-0.72l-3.273-.47v26.18c0,2.48.143,3.06,0.827,3.49,0.935,0.54,1.834.65,5.826,0.65,4.46,0,5.647-.07,6.51-0.47a1.649,1.649,0,0,0,1.223-1.29c0-.26-0.072-0.33-0.575-0.69-0.432-.29-0.468-0.39-0.468-1.19l0.144-4.32h-0.575c-0.144.4-.144,0.4-0.648,2.16a10.08,10.08,0,0,1-1.151,2.88c-0.395.51-1.438,0.69-3.992,0.69-0.647,0-1.115,0-1.8-.04-0.864-.03-1.439-0.03-1.727-0.03-0.791,0-.971-0.22-1.007-1.08v-11.56c2.3-1.23,2.878-1.51,4.28-2.38,1.655-.97,3.273-1.98,4.928-2.99l1.115-.11a0.523,0.523,0,0,0,.611-0.5,0.739,0.739,0,0,0-.324-0.61l-2.481-2.13a49.642,49.642,0,0,1-8.129,7.67v-11.92ZM951,3131.34h-1.8c-1.475-.03-2.59-0.07-4.82-0.14l0.4,1.12c3.345-.11,3.417-0.11,4.424-0.11H951v6.51a0.59,0.59,0,0,0,.719.54,1.285,1.285,0,0,0,1.331-1.22v-5.83h7.661a0.3,0.3,0,0,0,.252-0.33,0.677,0.677,0,0,0-.216-0.46l-2.446-2.06-1.618,1.98h-3.633v-4.03h3.309v1.4a0.469,0.469,0,0,0,.54.51c0.863,0,1.4-.36,1.4-0.94v-9.29l0.648-.29a0.34,0.34,0,0,0,.251-0.25,0.492,0.492,0,0,0-.179-0.32l-2.122-2.02-0.864,1.37h-2.985v-3.64h6.15v0.4H977.33a0.378,0.378,0,0,0,.215-0.32,0.823,0.823,0,0,0-.179-0.44l-3.058-2.44-1.942,2.34h-3.992v-4.94l0.719-.5a0.868,0.868,0,0,0,.468-0.65,0.624,0.624,0,0,0-.576-0.58l-2.913-.36v7.03H960.5l-2.985-2.45-1.547,2.05h-2.913v-4.57l0.755-.51a0.919,0.919,0,0,0,.468-0.65,0.724,0.724,0,0,0-.791-0.64l-2.482-.18v6.55h-1.8c-0.4,0-1.151-.04-2.266-0.07-0.36,0-1.367-.04-2.554-0.07l0.4,1.11,2.158-.03c1.151-.04,1.942-0.08,2.266-0.08H951v3.64h-2.59l-2.337-1.37v12.86a0.436,0.436,0,0,0,.431.5,1.543,1.543,0,0,0,1.511-.76v-1.4H951v4.03Zm-2.985-4.86v-3.67H951v3.67h-2.985Zm0-4.5v-3.64H951v3.64h-2.985Zm5.035,4.5v-3.67h3.309v3.67h-3.309Zm0-4.5v-3.64h3.309v3.64h-3.309Zm10.394-.18c0.72,4.18,1.079,5.37,2.7,8.32-2.086,3.13-3.705,4.68-7.517,7.27-0.935.58-.971,0.61-0.971,0.79a0.242,0.242,0,0,0,.252.22,17.245,17.245,0,0,0,3.848-1.87,19.052,19.052,0,0,0,5.467-4.9,22.3,22.3,0,0,0,8.344,6.84,10.008,10.008,0,0,1,2.374-2.7,21.17,21.17,0,0,1-9.6-5.65,37.67,37.67,0,0,0,3.381-7.09l0.755-.22a0.8,0.8,0,0,0,.684-0.68,0.688,0.688,0,0,0-.36-0.58l-2.626-1.44a27.736,27.736,0,0,1-3.2,8.5,22.952,22.952,0,0,1-2.8-7.02Zm-1.043-5.83a29.021,29.021,0,0,1-2.769,7.63,7.091,7.091,0,0,0-.935,1.77,0.216,0.216,0,0,0,.18.25,4.546,4.546,0,0,0,1.618-1.51,32.439,32.439,0,0,0,3.453-5.41l0.827-.21a0.763,0.763,0,0,0,.576-0.61,0.576,0.576,0,0,0-.216-0.47Zm6.906,0.43c3.561,3.13,3.884,3.53,5.647,7.42,0.324,0.79.611,1.08,1.115,1.08a1.436,1.436,0,0,0,1.223-1.62c0-1.23-.792-2.63-2.266-4.04a19.914,19.914,0,0,0-5.359-3.42Z" transform="translate(-502.938 -3106.34)"/>
</svg>
