<svg xmlns="http://www.w3.org/2000/svg" width="364.094" height="32.82" viewBox="0 0 364.094 32.82">
  <defs>
    <style>
      .cls-1 {
        fill: #333;
        fill-rule: evenodd;
      }
    </style>
  </defs>
  <path id="ジップラインの種類" class="cls-1" d="M571.9,1208.2a1.422,1.422,0,0,0-1.117.29,0.252,0.252,0,0,0,.252.18,6.528,6.528,0,0,1,3.531,2.99,1.059,1.059,0,0,0,1.009.72,1.283,1.283,0,0,0,1.19-1.23C576.769,1209.67,574.354,1208.2,571.9,1208.2Zm-4.072,1.62a1.19,1.19,0,0,0-1.009.25c0,0.11.108,0.15,0.36,0.22a6.478,6.478,0,0,1,3.352,2.88,0.962,0.962,0,0,0,1.009.72,1.241,1.241,0,0,0,1.153-1.19C572.7,1211.19,570.354,1209.82,567.832,1209.82Zm-14.63,2.92c-1.009,0-1.694.18-1.694,0.47,0,0.14.108,0.21,0.361,0.21a7.938,7.938,0,0,1,5.3,4.08c0.4,0.79.612,0.97,1.225,0.97a1.62,1.62,0,0,0,1.549-1.69c0-1.16-.648-2.06-2.018-2.89A10.557,10.557,0,0,0,553.2,1212.74Zm0.649,22.53c0.072-.07.576-0.36,1.765-1.05a52.714,52.714,0,0,0,15.531-13.23c1.73-2.3,3.532-5.33,3.532-6.02a0.41,0.41,0,0,0-.253-0.39,0.971,0.971,0,0,0-.576.57,40.383,40.383,0,0,1-3.856,4.8,74.172,74.172,0,0,1-11.063,9.52c-2.774,1.8-4.936,2.77-6.162,2.77a2.686,2.686,0,0,1-2.594-1.37,0.738,0.738,0,0,0-.468-0.47q-0.326,0-.325.54a3.361,3.361,0,0,0,.541,2.17c0.829,1.37,2.342,2.52,3.243,2.52A0.815,0.815,0,0,0,553.851,1235.27Zm-4.5-15.86a1.523,1.523,0,0,0-1.3.36,0.352,0.352,0,0,0,.324.25,8.234,8.234,0,0,1,4.541,4,1.271,1.271,0,0,0,1.225.87,1.527,1.527,0,0,0,1.441-1.48c0-1.08-.612-1.91-1.982-2.81A9.01,9.01,0,0,0,549.346,1219.41Zm48.472-1.37a0.319,0.319,0,0,0-.36.21,0.312,0.312,0,0,0,.216.26c1.3,0.57,2.883,3.1,3.207,5.08a0.907,0.907,0,0,0,.937.83,1.456,1.456,0,0,0,1.369-1.52C603.187,1220.78,600.124,1218.04,597.818,1218.04Zm13.729,3.89c0.757-.58.9-0.72,0.9-1.04s-0.4-.83-1.585-2.06a2.717,2.717,0,0,0-2.09-1.04c-0.613,0-1.045.14-1.045,0.39,0,0.11.072,0.18,0.324,0.25a1.506,1.506,0,0,1,.973,1.41,13.508,13.508,0,0,1-.577,2.63,21.644,21.644,0,0,1-2.234,4.51,31.455,31.455,0,0,1-8.252,8.04,26.166,26.166,0,0,1-5.4,2.81c-0.144.04-.216,0.07-0.216,0.18a0.5,0.5,0,0,0,.432.4,1.462,1.462,0,0,0,.361-0.08c0.108-.03.36-0.1,0.72-0.18C600.7,1236.64,608.3,1229.65,611.547,1221.93Zm-19.458-1.01c-0.289,0-.469.11-0.469,0.25s0.072,0.18.469,0.37c1.117,0.43,2.63,2.45,3.1,4.1,0.289,1.01.5,1.3,1.154,1.3a1.343,1.343,0,0,0,1.261-1.55,3.784,3.784,0,0,0-1.874-2.95A7.1,7.1,0,0,0,592.089,1220.92Zm62.237-3.42c0.684-.4.684-0.4,0.792-0.47a0.672,0.672,0,0,0,.577-0.54,1.292,1.292,0,0,0-.793-0.94c-0.072-.07-0.432-0.36-0.829-0.68-1.549-1.3-1.873-1.48-2.378-1.48a2,2,0,0,0-1.153.5,6.43,6.43,0,0,1-3.1.94c-3.423.47-8.18,0.97-9.549,0.97-1.334,0-2.6-.57-2.811-1.26-0.108-.25-0.144-0.32-0.252-0.32-0.252,0-.361.32-0.361,1.01a2.723,2.723,0,0,0,.829,1.91,4.732,4.732,0,0,0,2.054,1.08,1.781,1.781,0,0,0,.613-0.18,46.9,46.9,0,0,1,12-2.09,0.925,0.925,0,0,1,1.081.9,13.811,13.811,0,0,1-1.585,4.36,30.754,30.754,0,0,1-7.243,8.8,38.123,38.123,0,0,1-9.729,5.37c-0.433.14-.541,0.21-0.541,0.36a0.519,0.519,0,0,0,.5.36,2.519,2.519,0,0,0,.324-0.07,2.61,2.61,0,0,0,.468-0.11,29.692,29.692,0,0,0,9.694-4.15C647.7,1228.71,650.4,1225.32,654.326,1217.5Zm3.243-9.81a3.46,3.46,0,1,0,3.387,3.46A3.453,3.453,0,0,0,657.569,1207.69Zm-0.108,1.19a2.27,2.27,0,1,1-2.235,2.27A2.263,2.263,0,0,1,657.461,1208.88Zm20.869,2.13a0.2,0.2,0,0,0-.144.18,6.131,6.131,0,0,0,.72,1.55,2.887,2.887,0,0,0,2.739,1.33,34.229,34.229,0,0,0,5.441-.65c2.811-.5,2.883-0.5,4.721-0.72,1.333-.14,1.657-0.29,1.657-0.72,0-.36-0.252-0.61-1.009-1.01a4.23,4.23,0,0,0-1.765-.72,2.409,2.409,0,0,0-1.117.33,27.625,27.625,0,0,1-8.468,1.47c-1.334,0-2.163-.25-2.523-0.79C678.438,1211.04,678.4,1211.01,678.33,1211.01Zm17.3,9.66c1.153-.87,1.3-1.01,1.3-1.33,0-.54-2.6-2.6-3.279-2.6a2.167,2.167,0,0,0-.649.18,11.985,11.985,0,0,1-4.036,1.12c-0.54.07-2.27,0.25-5.189,0.58-4.36.43-4.36,0.43-4.937,0.43-1.4,0-2.774-.58-2.99-1.3-0.073-.22-0.109-0.25-0.217-0.25-0.216,0-.324.18-0.324,0.47a3.648,3.648,0,0,0,.937,2.38,4.164,4.164,0,0,0,2.054,1.26,1.334,1.334,0,0,0,.576-0.15,47.511,47.511,0,0,1,6.27-1.62c1.658-.32,5.55-0.83,6.343-0.83a0.949,0.949,0,0,1,1.153.94c0,0.72-.577,2.13-1.874,4.51a24.869,24.869,0,0,1-7.063,7.82,25.473,25.473,0,0,1-7.459,3.82,0.276,0.276,0,0,0-.288.25,0.521,0.521,0,0,0,.576.36c1.442,0,4.721-1.22,7.351-2.74C689.1,1230.91,691.951,1227.7,695.627,1220.67Zm32.868-.76a58.647,58.647,0,0,0,5.009-5.3,2.641,2.641,0,0,1,1.3-1.08,0.582,0.582,0,0,0,.433-0.54c0-.97-2.739-2.92-4.072-2.92-0.721,0-1.478.25-1.478,0.51,0,0.14.073,0.21,0.4,0.28a1.773,1.773,0,0,1,1.189,1.12c0,3.17-11.135,14.57-16.828,17.16-0.288.11-.361,0.18-0.361,0.29a0.4,0.4,0,0,0,.361.29,15.86,15.86,0,0,0,4-1.7,45.912,45.912,0,0,0,9.369-7.42,3.658,3.658,0,0,1,.432,2.12,114.846,114.846,0,0,1-.865,12.48,2.9,2.9,0,0,0-.108.68c0,0.83,1.261,1.77,2.342,1.77,0.541,0,.865-0.54.865-1.48,0-.29,0-0.72-0.036-1.19l-0.036-2.49v-4.11l-0.072-3.67a7.984,7.984,0,0,1,.324-2.89,1.152,1.152,0,0,0,.145-0.5c0-.36,0-0.36-1.838-1.19Zm35.9,13.2a54.475,54.475,0,0,0,8.576-5.92,55.988,55.988,0,0,0,7.712-7.78c1.8-2.2,3.387-4.65,3.387-5.23a0.291,0.291,0,0,0-.288-0.32,0.872,0.872,0,0,0-.613.57c-0.36.44-2.306,2.67-3.027,3.39a69.9,69.9,0,0,1-6.738,6.02c-5.225,4.15-9.585,6.85-11.063,6.85a2.542,2.542,0,0,1-2.162-1.84,0.3,0.3,0,0,0-.288-0.25,1.192,1.192,0,0,0-.433,1.23,2.663,2.663,0,0,0,.9,2.27,5.324,5.324,0,0,0,2.6,1.87A2.521,2.521,0,0,0,764.391,1233.11Zm-3.675-19.54c-1.045,0-1.694.18-1.694,0.43a0.352,0.352,0,0,0,.324.25,7.971,7.971,0,0,1,5.55,4.44,1.148,1.148,0,0,0,1.081.83,1.51,1.51,0,0,0,1.657-1.55C767.634,1215.77,764.175,1213.57,760.716,1213.57Zm52.687-.07a9.3,9.3,0,0,1,5.586,1.87c2.054,1.55,3.1,4,3.1,7.32a13.168,13.168,0,0,1-4.108,10.06,16.328,16.328,0,0,1-6.811,3.57c-0.5.14-.612,0.18-0.612,0.28a0.451,0.451,0,0,0,.468.33,22.076,22.076,0,0,0,4.937-1.19c5.693-2.06,9.081-6.71,9.081-12.44,0-6.42-4.973-10.89-12.108-10.89-8.072,0-14.7,6.28-14.7,13.92a8.432,8.432,0,0,0,1.874,5.7,3.236,3.236,0,0,0,2.486,1.37c1.874,0,3.82-1.34,5.91-4.04a19.808,19.808,0,0,0,4.4-11.47,33.79,33.79,0,0,0-.5-4.36Zm-2.378.36a7.053,7.053,0,0,1,.469,2.48,22.783,22.783,0,0,1-2.523,8.51c-1.766,3.35-4.648,6.27-6.2,6.27-1.369,0-2.378-2.01-2.378-4.68a12.818,12.818,0,0,1,10.558-12.76Zm36.581-6.96a49.693,49.693,0,0,1-9.586,4.43c-1.117.4-1.4,0.54-1.4,0.76a0.368,0.368,0,0,0,.4.36,48.652,48.652,0,0,0,5.514-1.23v5.45c-2.415,0-2.811,0-5.478-.15l0.325,1.12c2.45-.07,2.81-0.11,5.153-0.11a35.041,35.041,0,0,1-5.009,12.87,2.981,2.981,0,0,0-.757,1.3,0.307,0.307,0,0,0,.288.29,2.23,2.23,0,0,0,.865-0.69c1.91-2.09,1.91-2.09,4.613-6.2v13.52a0.471,0.471,0,0,0,.576.44,4.1,4.1,0,0,0,1.045-.22,0.712,0.712,0,0,0,.541-0.79v-15.18a5.028,5.028,0,0,1,1.621,2.02,6.138,6.138,0,0,0,.9,1.94,1.042,1.042,0,0,0,.793.4,1.371,1.371,0,0,0,1.261-1.44c0-1.77-1.513-3.03-4.576-3.86v-4.4h4.937a0.411,0.411,0,0,0,.36-0.5,0.672,0.672,0,0,0-.144-0.43l-2.415-1.99-1.693,2.06h-1.045v-6.02c1.513-.43,1.765-0.51,3.5-1.01l1.225-.11a0.411,0.411,0,0,0,.5-0.36,0.532,0.532,0,0,0-.18-0.43Zm0.144,31.07c2.522-.07,3.387-0.1,4.36-0.1h18.053a0.419,0.419,0,0,0,.252-0.47,0.724,0.724,0,0,0-.18-0.51l-2.991-2.45-2.126,2.56h-5.189v-4.07h9.3a0.353,0.353,0,0,0,.325-0.29,0.556,0.556,0,0,0-.253-0.36l-2.738-2.27-1.586,2.05h-5.045v-3.64h4.829v1.01a0.5,0.5,0,0,0,.577.5,1.348,1.348,0,0,0,1.549-1v-7.79l0.5-.18a0.566,0.566,0,0,0,.4-0.47,0.618,0.618,0,0,0-.216-0.43l-2.018-2.02-0.937,1.4h-4.685v-3.2h10.054a0.4,0.4,0,0,0,.252-0.44,0.548,0.548,0,0,0-.216-0.47l-2.775-2.3-1.945,2.34h-5.37v-4.04c2.307-.43,2.667-0.5,5.3-1.08l1.477,0.07c0.36,0.04.613-.1,0.613-0.32a0.959,0.959,0,0,0-.325-0.58l-2.45-2.2c-3.063,1.7-7.1,3.14-13.333,4.76-1.3.33-1.477,0.4-1.477,0.65a0.38,0.38,0,0,0,.432.36,11.967,11.967,0,0,0,2.162-.29c0.144,0,1.369-.21,3.1-0.47,0.324-.07,1.261-0.21,2.306-0.43v3.57H854.2c-1.117,0-2.126-.04-4.829-0.14l0.361,1.11,2.306-.07c0.9-.03,1.657-0.03,2.162-0.03h3.531v3.2h-4.4l-2.342-1.29v12.11a0.374,0.374,0,0,0,.4.47,2.862,2.862,0,0,0,1.153-.29,0.759,0.759,0,0,0,.5-0.83v-1.19h4.684v3.64H853.7c-1.693,0-2.45-.03-4.828-0.14l0.36,1.11,2.306-.07c0.937-.03,1.766-0.03,2.162-0.03h4.036V1237H852.11c-1.117,0-2.2-.04-4.829-0.14Zm5.3-10.41v-3.21h4.684v3.21h-4.684Zm0-4.08v-3.17h4.684v3.17h-4.684Zm6.882,4.08v-3.21h4.829v3.21h-4.829Zm0-4.08v-3.17h4.829v3.17h-4.829Zm19.248-7.1c2.162-.07,2.955-0.11,4.541-0.11h2.054a32.6,32.6,0,0,1-6.2,7.57c-0.721.62-.757,0.69-0.757,0.8a0.247,0.247,0,0,0,.252.25,4.315,4.315,0,0,0,.937-0.47,27.6,27.6,0,0,0,6.414-5.55v4.9a0.435,0.435,0,0,0,.541.43c0.864,0,1.549-.32,1.549-0.75v-5.16a9.32,9.32,0,0,1,2.955,2.56c1.4,2.05,1.4,2.05,1.946,2.05a1.3,1.3,0,0,0,1.189-1.29c0-.69-0.468-1.34-1.477-2.13a11.871,11.871,0,0,0-4.613-1.95v-1.26h7.784a0.408,0.408,0,0,0,.288-0.43,0.624,0.624,0,0,0-.18-0.47l-2.379-2.05-1.693,2.09h-3.82v-6.56l0.4-.29a1.291,1.291,0,0,0,.648-0.9,0.746,0.746,0,0,0-.829-0.65l-2.306-.15v8.55h-2.7c-1.838,0-2.487,0-4.829-.11Zm9.441,10.45,0.613-.5a0.987,0.987,0,0,0,.432-0.69,0.7,0.7,0,0,0-.865-0.61l-2.486-.14v1.4c0,0.76-.036,1.23-0.072,2.09h-2.486c-1.118,0-2.126-.03-4.793-0.14l0.432,1.12,2.162-.07c0.937-.04,1.694-0.04,2.2-0.04h2.378c-0.5,4.76-2.2,7.14-6.7,9.41a0.328,0.328,0,0,0-.288.29,0.258,0.258,0,0,0,.288.25,12.5,12.5,0,0,0,3.6-1.59,9.487,9.487,0,0,0,4.792-5.58,9.351,9.351,0,0,1,3.244,3.17c0.9,1.48,1.189,1.8,1.765,1.8a1.4,1.4,0,0,0,1.334-1.41,3.3,3.3,0,0,0-1.8-2.52,19.462,19.462,0,0,0-4.36-1.77,19.086,19.086,0,0,0,.36-2.05h7.675a0.457,0.457,0,0,0,.325-0.47,0.737,0.737,0,0,0-.253-0.5l-2.45-1.88-1.766,1.98h-3.423Zm-8.828-17.62a4.6,4.6,0,0,1,1.513,2.66c0.433,2.2.433,2.2,0.793,2.53a0.983,0.983,0,0,0,.577.18,1.461,1.461,0,0,0,1.4-1.52,4.1,4.1,0,0,0-1.8-3.13,6.592,6.592,0,0,0-2.234-1.01Zm14.342,1.51a0.683,0.683,0,0,0,.5-0.54,0.855,0.855,0,0,0-.5-0.58l-2.2-1.04a32.975,32.975,0,0,1-1.621,5.4,1.135,1.135,0,0,0-.108.44,0.247,0.247,0,0,0,.252.25c0.252,0,1.333-1.33,2.955-3.64Zm6.738,22.13a31.979,31.979,0,0,1-7.639,5.77c-0.577.25-.685,0.36-0.685,0.51a0.28,0.28,0,0,0,.288.25,15.927,15.927,0,0,0,2.991-.97,44.407,44.407,0,0,0,5.946-2.96l1.045-.07a0.508,0.508,0,0,0,.468-0.43,0.792,0.792,0,0,0-.36-0.58Zm6.09-23.9h-6.811c-1.045,0-2.018-.03-4.828-0.14l0.4,1.12,2.27-.07c0.9-.04,1.694-0.04,2.162-0.04h1.334c-0.145,2.05-.181,2.38-0.469,4.61H899.5l-2.415-1.47v20.65a0.35,0.35,0,0,0,.4.36c0.793,0,1.765-.39,1.765-0.72v-1.73h8.216v1.26a0.329,0.329,0,0,0,.4.33c0.973,0,1.8-.47,1.8-1.05v-15.75l0.649-.15a0.648,0.648,0,0,0,.613-0.54,0.866,0.866,0,0,0-.289-0.57l-2.306-2.17-1.153,1.55h-4.684c0.9-2.09,1.045-2.45,1.909-4.61h7.351a0.435,0.435,0,0,0,.4-0.43,0.742,0.742,0,0,0-.324-0.58l-2.955-2.24Zm-7.712,21.71v-4.51h8.216v4.51h-8.216Zm0-5.38v-4.54h8.216v4.54h-8.216Zm0-5.4v-4.58h8.216v4.58h-8.216Zm4.937,13.55a11,11,0,0,1,3.712,2.89c2.162,2.74,2.162,2.74,2.81,2.74a1.225,1.225,0,0,0,1.154-1.3c0-1.95-3.28-4.04-7.5-4.8Z" transform="translate(-548.062 -1206.56)"/>
</svg>
